MidiFile(type=0, ticks_per_beat=480, tracks=[
  MidiTrack([
    MetaMessage('set_tempo', tempo=500000, time=0),
    MetaMessage('time_signature', numerator=4, denominator=4, clocks_per_click=24, notated_32nd_notes_per_beat=8, time=0),
    MetaMessage('time_signature', numerator=4, denominator=4, clocks_per_click=24, notated_32nd_notes_per_beat=8, time=0),
    MetaMessage('key_signature', key='C', time=0),
    MetaMessage('set_tempo', tempo=923076, time=0),
    Message('control_change', channel=2, control=121, value=0, time=0),
    Message('control_change', channel=8, control=121, value=0, time=0),
    Message('control_change', channel=0, control=121, value=0, time=0),
    Message('control_change', channel=9, control=121, value=0, time=0),
    Message('control_change', channel=1, control=121, value=0, time=0),
    Message('control_change', channel=10, control=121, value=0, time=0),
    Message('control_change', channel=3, control=121, value=0, time=0),
    Message('control_change', channel=7, control=121, value=0, time=0),
    Message('control_change', channel=12, control=121, value=0, time=0),
    Message('control_change', channel=11, control=121, value=0, time=0),
    Message('control_change', channel=5, control=121, value=0, time=0),
    Message('control_change', channel=6, control=121, value=0, time=0),
    Message('note_on', channel=9, note=42, velocity=99, time=0),
    Message('control_change', channel=4, control=121, value=0, time=0),
    Message('control_change', channel=9, control=7, value=127, time=1),
    Message('control_change', channel=12, control=7, value=80, time=0),
    Message('control_change', channel=7, control=7, value=110, time=0),
    Message('control_change', channel=8, control=7, value=110, time=0),
    Message('control_change', channel=10, control=7, value=110, time=0),
    Message('control_change', channel=6, control=7, value=90, time=0),
    Message('control_change', channel=3, control=7, value=90, time=0),
    Message('control_change', channel=4, control=7, value=127, time=0),
    Message('control_change', channel=5, control=7, value=100, time=0),
    Message('control_change', channel=1, control=7, value=90, time=0),
    Message('control_change', channel=11, control=7, value=100, time=0),
    Message('control_change', channel=0, control=7, value=110, time=0),
    Message('note_off', channel=9, note=42, velocity=0, time=0),
    Message('program_change', channel=12, program=25, time=3),
    Message('program_change', channel=3, program=33, time=0),
    Message('program_change', channel=10, program=93, time=0),
    Message('program_change', channel=6, program=110, time=0),
    Message('program_change', channel=1, program=1, time=0),
    Message('program_change', channel=8, program=26, time=0),
    Message('program_change', channel=11, program=88, time=0),
    Message('program_change', channel=2, program=32, time=0),
    Message('program_change', channel=7, program=25, time=0),
    Message('program_change', channel=0, program=1, time=0),
    Message('program_change', channel=4, program=53, time=0),
    Message('program_change', channel=5, program=27, time=0),
    Message('control_change', channel=10, control=10, value=75, time=1),
    Message('control_change', channel=1, control=10, value=50, time=0),
    Message('control_change', channel=6, control=10, value=45, time=0),
    Message('control_change', channel=11, control=10, value=30, time=0),
    Message('control_change', channel=12, control=10, value=40, time=0),
    Message('control_change', channel=7, control=10, value=75, time=0),
    Message('control_change', channel=9, control=10, value=64, time=0),
    Message('control_change', channel=4, control=10, value=65, time=0),
    Message('control_change', channel=5, control=10, value=30, time=0),
    Message('control_change', channel=8, control=10, value=75, time=0),
    Message('control_change', channel=2, control=10, value=64, time=0),
    Message('control_change', channel=0, control=10, value=50, time=0),
    Message('control_change', channel=3, control=10, value=64, time=0),
    Message('control_change', channel=2, control=7, value=109, time=102),
    Message('control_change', channel=2, control=7, value=112, time=301),
    Message('control_change', channel=2, control=7, value=113, time=0),
    Message('control_change', channel=2, control=7, value=115, time=20),
    Message('note_on', channel=9, note=42, velocity=99, time=52),
    Message('note_on', channel=9, note=42, velocity=0, time=1),
    Message('control_change', channel=2, control=7, value=118, time=219),
    Message('control_change', channel=2, control=7, value=119, time=20),
    Message('control_change', channel=2, control=7, value=120, time=24),
    Message('note_on', channel=9, note=42, velocity=99, time=216),
    Message('note_on', channel=9, note=42, velocity=0, time=1),
    Message('control_change', channel=2, control=7, value=119, time=418),
    Message('note_on', channel=9, note=42, velocity=99, time=61),
    Message('note_on', channel=9, note=42, velocity=0, time=1),
    Message('control_change', channel=11, control=10, value=65, time=99),
    Message('note_on', channel=11, note=79, velocity=113, time=260),
    Message('note_on', channel=11, note=84, velocity=109, time=10),
    Message('note_on', channel=11, note=88, velocity=112, time=60),
    Message('note_on', channel=11, note=91, velocity=114, time=50),
    Message('note_on', channel=12, note=48, velocity=108, time=0),
    Message('note_on', channel=2, note=36, velocity=126, time=0),
    Message('note_on', channel=3, note=36, velocity=126, time=0),
    Message('note_on', channel=11, note=84, velocity=0, time=12),
    Message('note_on', channel=11, note=88, velocity=0, time=24),
    Message('note_on', channel=12, note=64, velocity=104, time=204),
    Message('note_on', channel=12, note=60, velocity=103, time=0),
    Message('note_on', channel=12, note=67, velocity=101, time=0),
    Message('control_change', channel=12, control=64, value=127, time=8),
    Message('pitchwheel', channel=5, pitch=-322, time=19),
    Message('pitchwheel', channel=5, pitch=-707, time=3),
    Message('pitchwheel', channel=5, pitch=-1157, time=4),
    Message('pitchwheel', channel=5, pitch=-1446, time=3),
    Message('pitchwheel', channel=5, pitch=-1832, time=5),
    Message('pitchwheel', channel=5, pitch=-2217, time=3),
    Message('pitchwheel', channel=5, pitch=-2538, time=5),
    Message('pitchwheel', channel=5, pitch=-2860, time=3),
    Message('pitchwheel', channel=5, pitch=-3342, time=4),
    Message('pitchwheel', channel=5, pitch=-3663, time=3),
    Message('pitchwheel', channel=5, pitch=-4080, time=5),
    Message('pitchwheel', channel=5, pitch=-4498, time=3),
    Message('pitchwheel', channel=5, pitch=-4948, time=4),
    Message('pitchwheel', channel=5, pitch=-5237, time=3),
    Message('pitchwheel', channel=5, pitch=-5976, time=5),
    Message('pitchwheel', channel=5, pitch=-6811, time=3),
    Message('pitchwheel', channel=5, pitch=-7518, time=3),
    Message('note_off', channel=12, note=67, velocity=0, time=0),
    Message('pitchwheel', channel=5, pitch=-8192, time=4),
    Message('note_off', channel=12, note=64, velocity=0, time=14),
    Message('note_off', channel=12, note=60, velocity=0, time=10),
    Message('note_on', channel=12, note=64, velocity=105, time=126),
    Message('note_on', channel=12, note=67, velocity=104, time=0),
    Message('note_on', channel=12, note=60, velocity=104, time=0),
    Message('note_on', channel=5, note=64, velocity=120, time=0),
    Message('control_change', channel=2, control=7, value=120, time=0),
    Message('note_off', channel=12, note=67, velocity=0, time=44),
    Message('note_off', channel=12, note=60, velocity=0, time=2),
    Message('note_off', channel=12, note=64, velocity=0, time=8),
    Message('note_off', channel=11, note=79, velocity=0, time=26),
    Message('note_off', channel=11, note=91, velocity=0, time=2),
    Message('pitchwheel', channel=5, pitch=-8160, time=2),
    Message('pitchwheel', channel=5, pitch=-7711, time=5),
    Message('pitchwheel', channel=5, pitch=-7325, time=3),
    Message('pitchwheel', channel=5, pitch=-6940, time=3),
    Message('pitchwheel', channel=5, pitch=-6426, time=5),
    Message('pitchwheel', channel=5, pitch=-5847, time=4),
    Message('pitchwheel', channel=5, pitch=-5365, time=3),
    Message('note_off', channel=12, note=48, velocity=0, time=1),
    Message('pitchwheel', channel=5, pitch=-5141, time=4),
    Message('pitchwheel', channel=5, pitch=-4980, time=3),
    Message('pitchwheel', channel=5, pitch=-4691, time=3),
    Message('note_on', channel=12, note=67, velocity=101, time=2),
    Message('note_on', channel=12, note=64, velocity=102, time=0),
    Message('note_on', channel=12, note=60, velocity=100, time=0),
    Message('pitchwheel', channel=5, pitch=-4370, time=1),
    Message('pitchwheel', channel=5, pitch=-4080, time=4),
    Message('pitchwheel', channel=5, pitch=-3727, time=6),
    Message('pitchwheel', channel=5, pitch=-3406, time=3),
    Message('pitchwheel', channel=5, pitch=-2924, time=3),
    Message('pitchwheel', channel=5, pitch=-2506, time=3),
    Message('pitchwheel', channel=5, pitch=-2024, time=5),
    Message('pitchwheel', channel=5, pitch=-1446, time=3),
    Message('note_off', channel=12, note=67, velocity=0, time=2),
    Message('pitchwheel', channel=5, pitch=-739, time=1),
    Message('pitchwheel', channel=5, pitch=-225, time=4),
    Message('note_off', channel=12, note=60, velocity=0, time=1),
    Message('pitchwheel', channel=5, pitch=0, time=4),
    Message('note_off', channel=12, note=64, velocity=0, time=6),
    Message('note_on', channel=12, note=67, velocity=101, time=74),
    Message('note_on', channel=12, note=64, velocity=102, time=0),
    Message('note_on', channel=12, note=60, velocity=101, time=0),
    Message('note_on', channel=5, note=67, velocity=115, time=0),
    Message('note_on', channel=12, note=67, velocity=0, time=30),
    Message('note_on', channel=5, note=64, velocity=0, time=2),
    Message('note_on', channel=12, note=60, velocity=0, time=5),
    Message('note_on', channel=12, note=64, velocity=0, time=6),
    Message('note_on', channel=12, note=60, velocity=100, time=77),
    Message('note_on', channel=12, note=67, velocity=101, time=0),
    Message('note_on', channel=12, note=64, velocity=102, time=0),
    Message('note_on', channel=5, note=64, velocity=117, time=0),
    Message('note_on', channel=5, note=67, velocity=0, time=1),
    Message('pitchwheel', channel=5, pitch=-161, time=78),
    Message('pitchwheel', channel=5, pitch=-418, time=3),
    Message('pitchwheel', channel=5, pitch=-643, time=3),
    Message('pitchwheel', channel=5, pitch=-900, time=5),
    Message('pitchwheel', channel=5, pitch=-1286, time=3),
    Message('pitchwheel', channel=5, pitch=-1543, time=5),
    Message('pitchwheel', channel=5, pitch=-1864, time=3),
    Message('pitchwheel', channel=5, pitch=-2217, time=4),
    Message('pitchwheel', channel=5, pitch=-2538, time=3),
    Message('pitchwheel', channel=5, pitch=-2828, time=5),
    Message('pitchwheel', channel=5, pitch=-3213, time=3),
    Message('pitchwheel', channel=5, pitch=-3470, time=3),
    Message('note_on', channel=12, note=48, velocity=107, time=1),
    Message('pitchwheel', channel=5, pitch=-3695, time=5),
    Message('pitchwheel', channel=5, pitch=-3920, time=1),
    Message('pitchwheel', channel=5, pitch=-4177, time=5),
    Message('pitchwheel', channel=5, pitch=-4337, time=4),
    Message('pitchwheel', channel=5, pitch=-4530, time=3),
    Message('note_off', channel=12, note=67, velocity=0, time=3),
    Message('pitchwheel', channel=5, pitch=-4659, time=2),
    Message('pitchwheel', channel=5, pitch=-4755, time=3),
    Message('pitchwheel', channel=5, pitch=-4916, time=3),
    Message('pitchwheel', channel=5, pitch=-5012, time=4),
    Message('pitchwheel', channel=5, pitch=-5076, time=3),
    Message('note_off', channel=12, note=64, velocity=0, time=2),
    Message('pitchwheel', channel=5, pitch=-5141, time=3),
    Message('note_off', channel=12, note=60, velocity=0, time=2),
    Message('pitchwheel', channel=5, pitch=-5237, time=1),
    Message('pitchwheel', channel=5, pitch=-5269, time=5),
    Message('pitchwheel', channel=5, pitch=-5333, time=3),
    Message('pitchwheel', channel=5, pitch=-5462, time=4),
    Message('pitchwheel', channel=5, pitch=-5719, time=3),
    Message('pitchwheel', channel=5, pitch=-5912, time=3),
    Message('pitchwheel', channel=5, pitch=-6361, time=5),
    Message('pitchwheel', channel=5, pitch=-6490, time=3),
    Message('pitchwheel', channel=5, pitch=-6683, time=4),
    Message('pitchwheel', channel=5, pitch=-6875, time=3),
    Message('pitchwheel', channel=5, pitch=-7132, time=5),
    Message('pitchwheel', channel=5, pitch=-7261, time=3),
    Message('pitchwheel', channel=5, pitch=-7518, time=4),
    Message('pitchwheel', channel=5, pitch=-7711, time=3),
    Message('pitchwheel', channel=5, pitch=-8032, time=5),
    Message('pitchwheel', channel=5, pitch=-8160, time=3),
    Message('pitchwheel', channel=5, pitch=-8192, time=4),
    Message('note_on', channel=12, note=67, velocity=103, time=136),
    Message('note_on', channel=5, note=62, velocity=115, time=0),
    Message('note_on', channel=12, note=64, velocity=106, time=0),
    Message('note_on', channel=12, note=60, velocity=104, time=0),
    Message('note_on', channel=5, note=64, velocity=0, time=15),
    Message('control_change', channel=12, control=64, value=0, time=16),
    Message('control_change', channel=12, control=10, value=65, time=20),
    Message('control_change', channel=12, control=64, value=127, time=50),
    Message('note_off', channel=12, note=67, velocity=0, time=19),
    Message('note_off', channel=12, note=64, velocity=0, time=12),
    Message('note_off', channel=12, note=60, velocity=0, time=13),
    Message('control_change', channel=2, control=7, value=121, time=20),
    Message('control_change', channel=2, control=7, value=122, time=20),
    Message('control_change', channel=2, control=7, value=123, time=40),
    Message('note_on', channel=12, note=64, velocity=103, time=15),
    Message('control_change', channel=2, control=7, value=124, time=0),
    Message('note_on', channel=12, note=67, velocity=101, time=0),
    Message('note_on', channel=12, note=60, velocity=102, time=0),
    Message('note_on', channel=12, note=67, velocity=0, time=40),
    Message('note_on', channel=12, note=64, velocity=0, time=6),
    Message('note_on', channel=12, note=60, velocity=0, time=4),
    Message('note_on', channel=12, note=67, velocity=101, time=70),
    Message('note_on', channel=12, note=64, velocity=102, time=0),
    Message('note_on', channel=12, note=60, velocity=102, time=0),
    Message('note_on', channel=12, note=67, velocity=0, time=18),
    Message('note_on', channel=12, note=64, velocity=0, time=10),
    Message('note_on', channel=12, note=60, velocity=0, time=11),
    Message('note_on', channel=12, note=67, velocity=103, time=81),
    Message('note_on', channel=5, note=57, velocity=118, time=0),
    Message('note_on', channel=12, note=64, velocity=103, time=0),
    Message('note_on', channel=12, note=60, velocity=102, time=0),
    Message('note_on', channel=5, note=62, velocity=0, time=13),
    Message('note_on', channel=12, note=67, velocity=0, time=26),
    Message('note_on', channel=12, note=64, velocity=0, time=4),
    Message('note_on', channel=12, note=60, velocity=0, time=9),
    Message('pitchwheel', channel=5, pitch=-7839, time=29),
    Message('pitchwheel', channel=5, pitch=-6683, time=3),
    Message('pitchwheel', channel=5, pitch=-5301, time=4),
    Message('pitchwheel', channel=5, pitch=-4691, time=3),
    Message('note_off', channel=12, note=48, velocity=0, time=3),
    Message('pitchwheel', channel=5, pitch=-3888, time=2),
    Message('pitchwheel', channel=5, pitch=-3181, time=3),
    Message('pitchwheel', channel=5, pitch=-2346, time=3),
    Message('pitchwheel', channel=5, pitch=-1510, time=4),
    Message('pitchwheel', channel=5, pitch=-675, time=3),
    Message('pitchwheel', channel=5, pitch=0, time=5),
    Message('note_on', channel=12, note=67, velocity=101, time=6),
    Message('note_on', channel=12, note=64, velocity=103, time=0),
    Message('note_on', channel=12, note=60, velocity=102, time=0),
    Message('note_on', channel=12, note=67, velocity=0, time=112),
    Message('pitchwheel', channel=5, pitch=-193, time=4),
    Message('pitchwheel', channel=5, pitch=-611, time=3),
    Message('note_on', channel=12, note=48, velocity=106, time=1),
    Message('pitchwheel', channel=5, pitch=-996, time=5),
    Message('pitchwheel', channel=5, pitch=-1382, time=3),
    Message('pitchwheel', channel=5, pitch=-1735, time=3),
    Message('note_off', channel=12, note=64, velocity=0, time=1),
    Message('pitchwheel', channel=5, pitch=-2057, time=4),
    Message('pitchwheel', channel=5, pitch=-2346, time=3),
    Message('note_off', channel=12, note=60, velocity=0, time=2),
    Message('pitchwheel', channel=5, pitch=-2538, time=1),
    Message('control_change', channel=2, control=7, value=122, time=0),
    Message('pitchwheel', channel=5, pitch=-2731, time=5),
    Message('pitchwheel', channel=5, pitch=-2860, time=3),
    Message('pitchwheel', channel=5, pitch=-3052, time=4),
    Message('pitchwheel', channel=5, pitch=-3245, time=3),
    Message('pitchwheel', channel=5, pitch=-3342, time=5),
    Message('pitchwheel', channel=5, pitch=-3470, time=3),
    Message('pitchwheel', channel=5, pitch=-3599, time=4),
    Message('pitchwheel', channel=5, pitch=-3759, time=3),
    Message('pitchwheel', channel=5, pitch=-3920, time=3),
    Message('pitchwheel', channel=5, pitch=-4209, time=5),
    Message('pitchwheel', channel=5, pitch=-4370, time=3),
    Message('pitchwheel', channel=5, pitch=-4594, time=4),
    Message('pitchwheel', channel=5, pitch=-4851, time=5),
    Message('pitchwheel', channel=5, pitch=-5108, time=3),
    Message('pitchwheel', channel=5, pitch=-5301, time=3),
    Message('pitchwheel', channel=5, pitch=-5847, time=4),
    Message('pitchwheel', channel=5, pitch=-6490, time=3),
    Message('pitchwheel', channel=5, pitch=-7132, time=5),
    Message('pitchwheel', channel=5, pitch=-7711, time=3),
    Message('pitchwheel', channel=5, pitch=-8192, time=5),
    Message('control_change', channel=12, control=64, value=0, time=109),
    Message('note_on', channel=12, note=67, velocity=103, time=33),
    Message('note_on', channel=12, note=60, velocity=104, time=0),
    Message('note_on', channel=12, note=64, velocity=106, time=0),
    Message('control_change', channel=12, control=64, value=127, time=12),
    Message('note_off', channel=5, note=57, velocity=0, time=52),
    Message('note_off', channel=12, note=67, velocity=0, time=41),
    Message('note_off', channel=12, note=60, velocity=0, time=12),
    Message('note_off', channel=12, note=64, velocity=0, time=1),
    Message('note_on', channel=5, note=62, velocity=117, time=2),
    Message('note_on', channel=5, note=62, velocity=0, time=60),
    Message('note_on', channel=12, note=60, velocity=104, time=60),
    Message('note_on', channel=5, note=64, velocity=119, time=0),
    Message('note_on', channel=12, note=67, velocity=102, time=0),
    Message('note_on', channel=12, note=64, velocity=105, time=0),
    Message('note_on', channel=12, note=67, velocity=0, time=30),
    Message('note_on', channel=12, note=64, velocity=0, time=15),
    Message('note_on', channel=12, note=60, velocity=0, time=3),
    Message('note_on', channel=12, note=64, velocity=101, time=72),
    Message('note_on', channel=12, note=60, velocity=101, time=0),
    Message('pitchwheel', channel=5, pitch=-7582, time=32),
    Message('note_off', channel=12, note=64, velocity=0, time=0),
    Message('pitchwheel', channel=5, pitch=-6747, time=5),
    Message('pitchwheel', channel=5, pitch=-5655, time=4),
    Message('note_off', channel=12, note=60, velocity=0, time=2),
    Message('pitchwheel', channel=5, pitch=-5044, time=1),
    Message('pitchwheel', channel=5, pitch=-4434, time=3),
    Message('pitchwheel', channel=5, pitch=-3759, time=5),
    Message('pitchwheel', channel=5, pitch=-2956, time=3),
    Message('pitchwheel', channel=5, pitch=-2185, time=4),
    Message('pitchwheel', channel=5, pitch=-1382, time=3),
    Message('pitchwheel', channel=5, pitch=-450, time=5),
    Message('pitchwheel', channel=5, pitch=0, time=3),
    Message('note_on', channel=12, note=64, velocity=101, time=50),
    Message('note_on', channel=12, note=60, velocity=102, time=0),
    Message('note_on', channel=5, note=67, velocity=118, time=0),
    Message('note_on', channel=12, note=67, velocity=100, time=0),
    Message('note_on', channel=5, note=64, velocity=0, time=26),
    Message('note_on', channel=12, note=67, velocity=0, time=6),
    Message('note_on', channel=12, note=48, velocity=0, time=16),
    Message('note_on', channel=12, note=64, velocity=0, time=8),
    Message('note_on', channel=12, note=60, velocity=0, time=12),
    Message('note_on', channel=12, note=60, velocity=102, time=52),
    Message('note_on', channel=12, note=67, velocity=102, time=0),
    Message('note_on', channel=12, note=64, velocity=103, time=0),
    Message('pitchwheel', channel=5, pitch=160, time=51),
    Message('pitchwheel', channel=5, pitch=514, time=3),
    Message('pitchwheel', channel=5, pitch=835, time=4),
    Message('pitchwheel', channel=5, pitch=1028, time=3),
    Message('pitchwheel', channel=5, pitch=1220, time=5),
    Message('pitchwheel', channel=5, pitch=1477, time=3),
    Message('pitchwheel', channel=5, pitch=1670, time=3),
    Message('pitchwheel', channel=5, pitch=1831, time=4),
    Message('pitchwheel', channel=5, pitch=2056, time=3),
    Message('pitchwheel', channel=5, pitch=2377, time=5),
    Message('pitchwheel', channel=5, pitch=2537, time=3),
    Message('pitchwheel', channel=5, pitch=2762, time=4),
    Message('pitchwheel', channel=5, pitch=3051, time=3),
    Message('pitchwheel', channel=5, pitch=3373, time=5),
    Message('pitchwheel', channel=5, pitch=3630, time=3),
    Message('pitchwheel', channel=5, pitch=3919, time=4),
    Message('pitchwheel', channel=5, pitch=4176, time=3),
    Message('pitchwheel', channel=5, pitch=4465, time=5),
    Message('note_off', channel=12, note=67, velocity=0, time=2),
    Message('pitchwheel', channel=5, pitch=4722, time=1),
    Message('note_on', channel=12, note=48, velocity=106, time=3),
    Message('pitchwheel', channel=5, pitch=4947, time=0),
    Message('pitchwheel', channel=5, pitch=5204, time=5),
    Message('pitchwheel', channel=5, pitch=5397, time=3),
    Message('pitchwheel', channel=5, pitch=5782, time=4),
    Message('pitchwheel', channel=5, pitch=6039, time=3),
    Message('pitchwheel', channel=5, pitch=6425, time=5),
    Message('note_off', channel=12, note=64, velocity=0, time=1),
    Message('pitchwheel', channel=5, pitch=6746, time=3),
    Message('pitchwheel', channel=5, pitch=7067, time=3),
    Message('pitchwheel', channel=5, pitch=7388, time=3),
    Message('note_off', channel=12, note=60, velocity=0, time=4),
    Message('pitchwheel', channel=5, pitch=7774, time=1),
    Message('pitchwheel', channel=5, pitch=8031, time=3),
    Message('pitchwheel', channel=5, pitch=8191, time=4),
    Message('note_on', channel=12, note=64, velocity=106, time=198),
    Message('note_on', channel=12, note=60, velocity=103, time=0),
    Message('note_on', channel=12, note=67, velocity=103, time=0),
    Message('pitchwheel', channel=5, pitch=7388, time=14),
    Message('pitchwheel', channel=5, pitch=6103, time=4),
    Message('pitchwheel', channel=5, pitch=4915, time=3),
    Message('pitchwheel', channel=5, pitch=3983, time=5),
    Message('pitchwheel', channel=5, pitch=3116, time=3),
    Message('pitchwheel', channel=5, pitch=2216, time=4),
    Message('pitchwheel', channel=5, pitch=1252, time=3),
    Message('pitchwheel', channel=5, pitch=642, time=4),
    Message('pitchwheel', channel=5, pitch=-193, time=4),
    Message('pitchwheel', channel=5, pitch=0, time=3),
    Message('note_off', channel=12, note=67, velocity=0, time=18),
    Message('note_off', channel=12, note=64, velocity=0, time=19),
    Message('note_off', channel=12, note=60, velocity=0, time=8),
    Message('note_off', channel=12, note=48, velocity=0, time=136),
    Message('note_on', channel=12, note=67, velocity=104, time=12),
    Message('note_on', channel=12, note=60, velocity=103, time=0),
    Message('note_on', channel=12, note=64, velocity=106, time=0),
    Message('note_on', channel=12, note=67, velocity=0, time=37),
    Message('note_on', channel=12, note=64, velocity=0, time=4),
    Message('note_on', channel=12, note=60, velocity=0, time=9),
    Message('control_change', channel=12, control=10, value=59, time=20),
    Message('note_on', channel=12, note=64, velocity=103, time=50),
    Message('note_on', channel=12, note=67, velocity=102, time=0),
    Message('note_on', channel=12, note=60, velocity=102, time=0),
    Message('note_on', channel=12, note=67, velocity=0, time=29),
    Message('note_on', channel=12, note=64, velocity=0, time=11),
    Message('note_on', channel=12, note=60, velocity=0, time=3),
    Message('note_on', channel=12, note=67, velocity=103, time=77),
    Message('note_on', channel=12, note=60, velocity=103, time=0),
    Message('note_on', channel=12, note=64, velocity=104, time=0),
    Message('note_on', channel=5, note=64, velocity=122, time=0),
    Message('note_on', channel=5, note=67, velocity=0, time=47),
    Message('note_on', channel=12, note=67, velocity=0, time=2),
    Message('note_on', channel=12, note=64, velocity=0, time=1),
    Message('note_on', channel=12, note=60, velocity=0, time=3),
    Message('note_on', channel=12, note=60, velocity=104, time=67),
    Message('note_on', channel=12, note=64, velocity=105, time=0),
    Message('note_on', channel=12, note=67, velocity=104, time=0),
    Message('pitchwheel', channel=5, pitch=-129, time=8),
    Message('pitchwheel', channel=5, pitch=-193, time=1),
    Message('pitchwheel', channel=5, pitch=-322, time=5),
    Message('pitchwheel', channel=5, pitch=-386, time=3),
    Message('pitchwheel', channel=5, pitch=-579, time=3),
    Message('pitchwheel', channel=5, pitch=-707, time=4),
    Message('pitchwheel', channel=5, pitch=-804, time=3),
    Message('pitchwheel', channel=5, pitch=-964, time=5),
    Message('pitchwheel', channel=5, pitch=-1125, time=3),
    Message('pitchwheel', channel=5, pitch=-1318, time=4),
    Message('pitchwheel', channel=5, pitch=-1414, time=3),
    Message('pitchwheel', channel=5, pitch=-1543, time=5),
    Message('pitchwheel', channel=5, pitch=-1735, time=3),
    Message('pitchwheel', channel=5, pitch=-1992, time=4),
    Message('pitchwheel', channel=5, pitch=-2217, time=3),
    Message('pitchwheel', channel=5, pitch=-2442, time=3),
    Message('note_off', channel=12, note=67, velocity=0, time=3),
    Message('note_off', channel=12, note=60, velocity=0, time=0),
    Message('pitchwheel', channel=5, pitch=-2699, time=2),
    Message('pitchwheel', channel=5, pitch=-2860, time=3),
    Message('note_off', channel=12, note=64, velocity=0, time=4),
    Message('pitchwheel', channel=5, pitch=-3181, time=1),
    Message('pitchwheel', channel=5, pitch=-3406, time=3),
    Message('pitchwheel', channel=5, pitch=-3566, time=4),
    Message('pitchwheel', channel=5, pitch=-3823, time=3),
    Message('pitchwheel', channel=5, pitch=-4113, time=5),
    Message('pitchwheel', channel=5, pitch=-4337, time=3),
    Message('pitchwheel', channel=5, pitch=-4562, time=4),
    Message('pitchwheel', channel=5, pitch=-4755, time=3),
    Message('pitchwheel', channel=5, pitch=-5044, time=5),
    Message('pitchwheel', channel=5, pitch=-5237, time=3),
    Message('pitchwheel', channel=5, pitch=-5590, time=4),
    Message('pitchwheel', channel=5, pitch=-6426, time=3),
    Message('pitchwheel', channel=5, pitch=-6940, time=5),
    Message('note_on', channel=5, note=62, velocity=112, time=2),
    Message('control_change', channel=12, control=64, value=0, time=0),
    Message('note_on', channel=3, note=48, velocity=121, time=0),
    Message('note_on', channel=0, note=67, velocity=120, time=0),
    Message('note_on', channel=12, note=48, velocity=107, time=0),
    Message('note_on', channel=2, note=48, velocity=121, time=0),
    Message('note_on', channel=0, note=60, velocity=118, time=0),
    Message('pitchwheel', channel=5, pitch=-7518, time=1),
    Message('note_off', channel=3, note=36, velocity=0, time=0),
    Message('note_off', channel=2, note=36, velocity=0, time=0),
    Message('pitchwheel', channel=5, pitch=-8160, time=6),
    Message('pitchwheel', channel=5, pitch=-8192, time=1),
    Message('control_change', channel=12, control=64, value=127, time=10),
    Message('note_off', channel=5, note=64, velocity=0, time=50),
    Message('control_change', channel=0, control=64, value=127, time=99),
    Message('note_on', channel=12, note=55, velocity=104, time=73),
    Message('note_on', channel=0, note=60, velocity=0, time=34),
    Message('note_on', channel=12, note=48, velocity=0, time=5),
    Message('note_on', channel=0, note=67, velocity=0, time=7),
    Message('note_on', channel=12, note=55, velocity=0, time=163),
    Message('note_on', channel=12, note=60, velocity=106, time=31),
    Message('note_on', channel=0, note=60, velocity=117, time=0),
    Message('note_on', channel=12, note=67, velocity=105, time=0),
    Message('note_on', channel=12, note=64, velocity=107, time=0),
    Message('note_on', channel=0, note=67, velocity=118, time=0),
    Message('note_on', channel=12, note=67, velocity=0, time=44),
    Message('note_on', channel=12, note=64, velocity=0, time=3),
    Message('note_on', channel=0, note=60, velocity=0, time=12),
    Message('note_on', channel=12, note=60, velocity=0, time=3),
    Message('note_on', channel=0, note=67, velocity=0, time=4),
    Message('note_on', channel=12, note=67, velocity=102, time=54),
    Message('note_on', channel=12, note=60, velocity=101, time=0),
    Message('note_on', channel=12, note=64, velocity=102, time=0),
    Message('note_on', channel=12, note=67, velocity=0, time=36),
    Message('note_on', channel=12, note=64, velocity=0, time=9),
    Message('note_on', channel=12, note=60, velocity=0, time=9),
    Message('note_on', channel=12, note=60, velocity=100, time=66),
    Message('note_on', channel=12, note=64, velocity=102, time=0),
    Message('note_on', channel=12, note=67, velocity=101, time=0),
    Message('note_on', channel=12, note=67, velocity=0, time=46),
    Message('note_on', channel=12, note=64, velocity=0, time=3),
    Message('note_on', channel=12, note=60, velocity=0, time=6),
    Message('note_on', channel=12, note=60, velocity=102, time=65),
    Message('note_on', channel=12, note=64, velocity=101, time=0),
    Message('note_on', channel=12, note=67, velocity=101, time=0),
    Message('control_change', channel=0, control=64, value=0, time=88),
    Message('note_off', channel=12, note=67, velocity=0, time=0),
    Message('note_off', channel=3, note=48, velocity=0, time=12),
    Message('note_off', channel=2, note=48, velocity=0, time=0),
    Message('note_off', channel=12, note=64, velocity=0, time=0),
    Message('note_off', channel=12, note=60, velocity=0, time=13),
    Message('note_on', channel=0, note=62, velocity=119, time=7),
    Message('note_on', channel=0, note=55, velocity=116, time=0),
    Message('note_on', channel=3, note=43, velocity=118, time=0),
    Message('note_on', channel=12, note=43, velocity=105, time=0),
    Message('note_on', channel=2, note=43, velocity=118, time=0),
    Message('control_change', channel=12, control=64, value=0, time=73),
    Message('note_off', channel=5, note=62, velocity=0, time=44),
    Message('control_change', channel=0, control=64, value=127, time=104),
    Message('note_on', channel=12, note=50, velocity=100, time=19),
    Message('control_change', channel=12, control=64, value=127, time=6),
    Message('pitchwheel', channel=5, pitch=-7518, time=0),
    Message('pitchwheel', channel=5, pitch=-6683, time=5),
    Message('pitchwheel', channel=5, pitch=-5719, time=4),
    Message('pitchwheel', channel=5, pitch=-5141, time=3),
    Message('pitchwheel', channel=5, pitch=-4691, time=5),
    Message('pitchwheel', channel=5, pitch=-4209, time=3),
    Message('pitchwheel', channel=5, pitch=-3631, time=3),
    Message('pitchwheel', channel=5, pitch=-2956, time=4),
    Message('pitchwheel', channel=5, pitch=-2378, time=3),
    Message('pitchwheel', channel=5, pitch=-1607, time=5),
    Message('pitchwheel', channel=5, pitch=-836, time=3),
    Message('pitchwheel', channel=5, pitch=-161, time=5),
    Message('pitchwheel', channel=5, pitch=0, time=3),
    Message('note_off', channel=12, note=43, velocity=0, time=19),
    Message('note_on', channel=12, note=62, velocity=107, time=169),
    Message('note_on', channel=12, note=55, velocity=107, time=0),
    Message('note_on', channel=12, note=59, velocity=109, time=0),
    Message('note_on', channel=12, note=50, velocity=0, time=28),
    Message('note_on', channel=12, note=62, velocity=0, time=8),
    Message('note_on', channel=12, note=59, velocity=0, time=4),
    Message('note_on', channel=12, note=55, velocity=0, time=11),
    Message('note_on', channel=0, note=55, velocity=0, time=13),
    Message('note_on', channel=0, note=62, velocity=0, time=20),
    Message('note_on', channel=12, note=55, velocity=102, time=36),
    Message('note_on', channel=12, note=59, velocity=103, time=0),
    Message('note_on', channel=12, note=62, velocity=102, time=0),
    Message('note_on', channel=12, note=62, velocity=0, time=37),
    Message('note_on', channel=12, note=55, velocity=0, time=13),
    Message('note_on', channel=12, note=59, velocity=0, time=0),
    Message('note_on', channel=12, note=62, velocity=102, time=70),
    Message('note_on', channel=12, note=55, velocity=101, time=0),
    Message('note_on', channel=12, note=59, velocity=102, time=0),
    Message('note_on', channel=12, note=62, velocity=0, time=46),
    Message('note_on', channel=12, note=55, velocity=0, time=4),
    Message('note_on', channel=12, note=59, velocity=0, time=0),
    Message('note_on', channel=12, note=55, velocity=101, time=70),
    Message('note_on', channel=12, note=62, velocity=102, time=0),
    Message('note_on', channel=12, note=59, velocity=102, time=0),
    Message('control_change', channel=0, control=64, value=0, time=47),
    Message('control_change', channel=12, control=64, value=0, time=68),
    Message('note_on', channel=0, note=57, velocity=118, time=5),
    Message('note_on', channel=3, note=45, velocity=121, time=0),
    Message('note_on', channel=0, note=64, velocity=121, time=0),
    Message('note_on', channel=2, note=45, velocity=121, time=0),
    Message('note_on', channel=12, note=45, velocity=105, time=0),
    Message('note_on', channel=12, note=62, velocity=0, time=12),
    Message('note_on', channel=12, note=55, velocity=0, time=0),
    Message('note_on', channel=12, note=59, velocity=0, time=3),
    Message('note_on', channel=3, note=43, velocity=0, time=51),
    Message('note_on', channel=2, note=43, velocity=0, time=0),
    Message('control_change', channel=12, control=64, value=127, time=13),
    Message('control_change', channel=0, control=64, value=127, time=73),
    Message('note_on', channel=12, note=52, velocity=102, time=88),
    Message('note_on', channel=12, note=45, velocity=0, time=43),
    Message('note_on', channel=0, note=64, velocity=0, time=26),
    Message('note_on', channel=0, note=57, velocity=0, time=0),
    Message('note_on', channel=0, note=57, velocity=118, time=171),
    Message('note_on', channel=12, note=64, velocity=105, time=0),
    Message('note_on', channel=0, note=64, velocity=120, time=0),
    Message('note_on', channel=12, note=57, velocity=104, time=0),
    Message('note_on', channel=12, note=60, velocity=106, time=0),
    Message('note_on', channel=12, note=52, velocity=0, time=0),
    Message('note_on', channel=0, note=64, velocity=0, time=42),
    Message('note_on', channel=12, note=60, velocity=0, time=4),
    Message('note_on', channel=12, note=64, velocity=0, time=0),
    Message('note_on', channel=0, note=57, velocity=0, time=0),
    Message('note_on', channel=12, note=57, velocity=0, time=13),
    Message('note_on', channel=12, note=60, velocity=103, time=61),
    Message('note_on', channel=12, note=57, velocity=102, time=0),
    Message('note_on', channel=12, note=64, velocity=103, time=0),
    Message('note_on', channel=12, note=64, velocity=0, time=44),
    Message('note_on', channel=12, note=60, velocity=0, time=1),
    Message('note_on', channel=12, note=57, velocity=0, time=11),
    Message('note_on', channel=12, note=60, velocity=102, time=64),
    Message('note_on', channel=12, note=57, velocity=101, time=0),
    Message('note_on', channel=12, note=64, velocity=101, time=0),
    Message('note_on', channel=12, note=64, velocity=0, time=41),
    Message('note_on', channel=12, note=60, velocity=0, time=2),
    Message('note_on', channel=12, note=57, velocity=0, time=9),
    Message('note_on', channel=12, note=64, velocity=101, time=68),
    Message('note_on', channel=12, note=60, velocity=102, time=0),
    Message('note_on', channel=12, note=57, velocity=100, time=0),
    Message('note_on', channel=12, note=64, velocity=0, time=80),
    Message('note_on', channel=12, note=60, velocity=0, time=10),
    Message('control_change', channel=0, control=64, value=0, time=2),
    Message('note_off', channel=12, note=57, velocity=0, time=9),
    Message('note_off', channel=3, note=45, velocity=0, time=4),
    Message('note_off', channel=2, note=45, velocity=0, time=0),
    Message('note_on', channel=2, note=41, velocity=120, time=15),
    Message('note_on', channel=0, note=60, velocity=120, time=0),
    Message('note_on', channel=0, note=53, velocity=118, time=0),
    Message('note_on', channel=12, note=41, velocity=106, time=0),
    Message('note_on', channel=3, note=41, velocity=120, time=0),
    Message('control_change', channel=12, control=64, value=0, time=11),
    Message('control_change', channel=11, control=10, value=61, time=169),
    Message('control_change', channel=12, control=10, value=67, time=40),
    Message('control_change', channel=12, control=64, value=127, time=19),
    Message('note_on', channel=12, note=48, velocity=104, time=1),
    Message('control_change', channel=0, control=64, value=127, time=132),
    Message('note_off', channel=12, note=41, velocity=0, time=30),
    Message('note_off', channel=12, note=48, velocity=0, time=60),
    Message('note_on', channel=12, note=60, velocity=104, time=18),
    Message('note_on', channel=12, note=57, velocity=105, time=0),
    Message('note_on', channel=12, note=53, velocity=104, time=0),
    Message('note_on', channel=12, note=60, velocity=0, time=38),
    Message('note_on', channel=12, note=57, velocity=0, time=9),
    Message('note_on', channel=12, note=53, velocity=0, time=21),
    Message('note_on', channel=0, note=53, velocity=0, time=39),
    Message('note_on', channel=12, note=53, velocity=102, time=13),
    Message('note_on', channel=12, note=60, velocity=103, time=0),
    Message('note_on', channel=12, note=57, velocity=103, time=0),
    Message('note_on', channel=0, note=60, velocity=0, time=10),
    Message('note_on', channel=12, note=60, velocity=0, time=25),
    Message('note_on', channel=12, note=53, velocity=0, time=0),
    Message('note_on', channel=12, note=57, velocity=0, time=0),
    Message('control_change', channel=11, control=10, value=63, time=40),
    Message('note_on', channel=12, note=57, velocity=102, time=45),
    Message('note_on', channel=12, note=60, velocity=102, time=0),
    Message('note_on', channel=12, note=53, velocity=101, time=0),
    Message('note_on', channel=12, note=60, velocity=0, time=45),
    Message('note_on', channel=12, note=57, velocity=0, time=4),
    Message('note_on', channel=12, note=53, velocity=0, time=0),
    Message('note_on', channel=12, note=53, velocity=102, time=71),
    Message('note_on', channel=12, note=60, velocity=103, time=0),
    Message('note_on', channel=12, note=57, velocity=103, time=0),
    Message('note_on', channel=12, note=60, velocity=0, time=46),
    Message('note_on', channel=12, note=53, velocity=0, time=1),
    Message('note_on', channel=12, note=57, velocity=0, time=1),
    Message('control_change', channel=0, control=64, value=0, time=52),
    Message('control_change', channel=12, control=64, value=0, time=19),
    Message('note_on', channel=0, note=67, velocity=121, time=1),
    Message('note_on', channel=0, note=60, velocity=118, time=0),
    Message('note_on', channel=2, note=48, velocity=119, time=0),
    Message('note_on', channel=12, note=48, velocity=107, time=0),
    Message('note_on', channel=3, note=48, velocity=119, time=0),
    Message('control_change', channel=12, control=64, value=127, time=19),
    Message('note_off', channel=3, note=41, velocity=0, time=9),
    Message('note_off', channel=2, note=41, velocity=0, time=0),
    Message('control_change', channel=0, control=64, value=127, time=120),
    Message('note_on', channel=12, note=55, velocity=103, time=92),
    Message('note_on', channel=0, note=60, velocity=0, time=7),
    Message('note_on', channel=12, note=48, velocity=0, time=4),
    Message('note_on', channel=0, note=67, velocity=0, time=23),
    Message('note_on', channel=12, note=55, velocity=0, time=173),
    Message('note_on', channel=0, note=67, velocity=119, time=33),
    Message('note_on', channel=12, note=60, velocity=105, time=0),
    Message('note_on', channel=12, note=67, velocity=105, time=0),
    Message('note_on', channel=12, note=64, velocity=107, time=0),
    Message('note_on', channel=0, note=62, velocity=119, time=0),
    Message('note_on', channel=0, note=67, velocity=0, time=77),
    Message('note_on', channel=0, note=62, velocity=0, time=23),
    Message('note_on', channel=12, note=67, velocity=0, time=1),
    Message('note_on', channel=12, note=64, velocity=0, time=17),
    Message('note_on', channel=12, note=60, velocity=0, time=17),
    Message('note_on', channel=12, note=67, velocity=101, time=105),
    Message('note_on', channel=12, note=64, velocity=101, time=0),
    Message('note_on', channel=0, note=60, velocity=119, time=0),
    Message('note_on', channel=12, note=60, velocity=101, time=0),
    Message('note_on', channel=0, note=67, velocity=119, time=0),
    Message('note_on', channel=12, note=67, velocity=0, time=22),
    Message('control_change', channel=0, control=64, value=0, time=9),
    Message('note_off', channel=12, note=64, velocity=0, time=2),
    Message('note_off', channel=12, note=60, velocity=0, time=6),
    Message('note_on', channel=12, note=67, velocity=101, time=81),
    Message('note_on', channel=12, note=64, velocity=102, time=0),
    Message('note_on', channel=12, note=60, velocity=102, time=0),
    Message('note_on', channel=12, note=67, velocity=0, time=22),
    Message('note_on', channel=12, note=64, velocity=0, time=14),
    Message('note_on', channel=12, note=60, velocity=0, time=6),
    Message('control_change', channel=12, control=64, value=0, time=66),
    Message('note_on', channel=12, note=67, velocity=105, time=12),
    Message('note_on', channel=12, note=64, velocity=107, time=0),
    Message('note_on', channel=12, note=60, velocity=105, time=0),
    Message('note_on', channel=12, note=48, velocity=104, time=0),
    Message('control_change', channel=12, control=64, value=127, time=46),
    Message('control_change', channel=0, control=64, value=127, time=50),
    Message('note_off', channel=12, note=67, velocity=0, time=15),
    Message('note_off', channel=12, note=64, velocity=0, time=15),
    Message('note_off', channel=12, note=60, velocity=0, time=7),
    Message('note_on', channel=12, note=55, velocity=102, time=107),
    Message('note_on', channel=12, note=48, velocity=0, time=8),
    Message('note_on', channel=12, note=60, velocity=103, time=112),
    Message('note_on', channel=12, note=67, velocity=100, time=0),
    Message('note_on', channel=12, note=64, velocity=99, time=0),
    Message('note_on', channel=12, note=55, velocity=0, time=13),
    Message('note_on', channel=12, note=64, velocity=0, time=6),
    Message('note_on', channel=12, note=67, velocity=0, time=3),
    Message('note_on', channel=12, note=60, velocity=0, time=19),
    Message('note_on', channel=0, note=60, velocity=0, time=3),
    Message('note_on', channel=0, note=67, velocity=0, time=6),
    Message('note_on', channel=12, note=67, velocity=106, time=70),
    Message('note_on', channel=12, note=64, velocity=108, time=0),
    Message('note_on', channel=12, note=60, velocity=106, time=0),
    Message('note_on', channel=12, note=67, velocity=0, time=82),
    Message('note_on', channel=12, note=64, velocity=0, time=1),
    Message('note_on', channel=12, note=60, velocity=0, time=3),
    Message('note_on', channel=12, note=64, velocity=105, time=154),
    Message('note_on', channel=12, note=62, velocity=105, time=0),
    Message('note_on', channel=12, note=67, velocity=104, time=0),
    Message('note_on', channel=12, note=64, velocity=0, time=27),
    Message('note_on', channel=12, note=67, velocity=0, time=14),
    Message('note_on', channel=12, note=62, velocity=0, time=6),
    Message('control_change', channel=0, control=64, value=0, time=172),
    Message('control_change', channel=12, control=64, value=0, time=19),
    Message('note_on', channel=12, note=62, velocity=106, time=2),
    Message('note_on', channel=12, note=43, velocity=105, time=0),
    Message('note_on', channel=0, note=55, velocity=119, time=0),
    Message('note_on', channel=2, note=43, velocity=119, time=0),
    Message('note_on', channel=0, note=62, velocity=121, time=0),
    Message('note_on', channel=12, note=59, velocity=108, time=0),
    Message('note_on', channel=12, note=55, velocity=106, time=0),
    Message('note_on', channel=3, note=43, velocity=119, time=0),
    Message('note_on', channel=2, note=48, velocity=0, time=19),
    Message('note_on', channel=3, note=48, velocity=0, time=0),
    Message('control_change', channel=12, control=64, value=127, time=60),
    Message('note_off', channel=12, note=62, velocity=0, time=115),
    Message('note_off', channel=12, note=55, velocity=0, time=1),
    Message('note_off', channel=12, note=59, velocity=0, time=0),
    Message('note_off', channel=12, note=43, velocity=0, time=30),
    Message('note_on', channel=12, note=50, velocity=103, time=15),
    Message('control_change', channel=1, control=64, value=127, time=21),
    Message('control_change', channel=0, control=64, value=127, time=0),
    Message('note_off', channel=12, note=50, velocity=0, time=86),
    Message('note_on', channel=12, note=55, velocity=99, time=13),
    Message('note_on', channel=12, note=55, velocity=0, time=19),
    Message('note_on', channel=12, note=55, velocity=103, time=101),
    Message('note_on', channel=12, note=59, velocity=103, time=0),
    Message('note_on', channel=12, note=62, velocity=103, time=0),
    Message('note_on', channel=12, note=62, velocity=0, time=44),
    Message('note_on', channel=12, note=55, velocity=0, time=12),
    Message('note_on', channel=12, note=59, velocity=0, time=0),
    Message('note_on', channel=12, note=59, velocity=101, time=64),
    Message('note_on', channel=12, note=55, velocity=99, time=0),
    Message('note_on', channel=12, note=55, velocity=0, time=22),
    Message('note_on', channel=12, note=59, velocity=0, time=5),
    Message('control_change', channel=5, control=10, value=65, time=20),
    Message('note_on', channel=12, note=62, velocity=97, time=73),
    Message('note_on', channel=12, note=55, velocity=98, time=0),
    Message('note_on', channel=12, note=62, velocity=0, time=17),
    Message('note_on', channel=12, note=55, velocity=0, time=31),
    Message('note_on', channel=12, note=60, velocity=103, time=72),
    Message('note_on', channel=12, note=62, velocity=102, time=0),
    Message('note_on', channel=12, note=55, velocity=100, time=0),
    Message('note_on', channel=12, note=60, velocity=0, time=41),
    Message('note_on', channel=12, note=62, velocity=0, time=12),
    Message('note_on', channel=12, note=55, velocity=0, time=11),
    Message('control_change', channel=12, control=64, value=0, time=50),
    Message('note_on', channel=12, note=43, velocity=103, time=6),
    Message('note_on', channel=12, note=55, velocity=103, time=0),
    Message('note_on', channel=12, note=62, velocity=104, time=0),
    Message('note_on', channel=12, note=59, velocity=107, time=0),
    Message('control_change', channel=12, control=64, value=127, time=54),
    Message('note_off', channel=0, note=62, velocity=0, time=189),
    Message('note_off', channel=0, note=55, velocity=0, time=27),
    Message('pitchwheel', channel=7, pitch=-290, time=3),
    Message('pitchwheel', channel=10, pitch=-290, time=0),
    Message('pitchwheel', channel=8, pitch=-290, time=0),
    Message('pitchwheel', channel=8, pitch=-515, time=5),
    Message('pitchwheel', channel=7, pitch=-515, time=0),
    Message('pitchwheel', channel=10, pitch=-515, time=0),
    Message('pitchwheel', channel=10, pitch=-772, time=4),
    Message('pitchwheel', channel=7, pitch=-772, time=0),
    Message('pitchwheel', channel=8, pitch=-772, time=0),
    Message('pitchwheel', channel=7, pitch=-1253, time=5),
    Message('pitchwheel', channel=8, pitch=-1253, time=0),
    Message('pitchwheel', channel=10, pitch=-1253, time=0),
    Message('pitchwheel', channel=7, pitch=-1414, time=4),
    Message('pitchwheel', channel=8, pitch=-1414, time=0),
    Message('pitchwheel', channel=10, pitch=-1414, time=0),
    Message('pitchwheel', channel=7, pitch=-1703, time=5),
    Message('pitchwheel', channel=8, pitch=-1703, time=0),
    Message('pitchwheel', channel=10, pitch=-1703, time=0),
    Message('pitchwheel', channel=8, pitch=-1992, time=4),
    Message('pitchwheel', channel=10, pitch=-1992, time=0),
    Message('pitchwheel', channel=7, pitch=-1992, time=0),
    Message('pitchwheel', channel=8, pitch=-2281, time=5),
    Message('pitchwheel', channel=7, pitch=-2281, time=0),
    Message('pitchwheel', channel=10, pitch=-2281, time=0),
    Message('pitchwheel', channel=8, pitch=-2474, time=4),
    Message('pitchwheel', channel=7, pitch=-2474, time=0),
    Message('pitchwheel', channel=10, pitch=-2474, time=0),
    Message('pitchwheel', channel=7, pitch=-2763, time=5),
    Message('pitchwheel', channel=10, pitch=-2763, time=0),
    Message('pitchwheel', channel=8, pitch=-2763, time=0),
    Message('pitchwheel', channel=8, pitch=-3085, time=4),
    Message('pitchwheel', channel=10, pitch=-3085, time=0),
    Message('pitchwheel', channel=7, pitch=-3085, time=0),
    Message('pitchwheel', channel=10, pitch=-3374, time=3),
    Message('pitchwheel', channel=8, pitch=-3374, time=0),
    Message('pitchwheel', channel=7, pitch=-3374, time=0),
    Message('pitchwheel', channel=10, pitch=-3599, time=6),
    Message('pitchwheel', channel=7, pitch=-3599, time=0),
    Message('pitchwheel', channel=8, pitch=-3599, time=0),
    Message('pitchwheel', channel=7, pitch=-3888, time=3),
    Message('pitchwheel', channel=8, pitch=-3888, time=0),
    Message('pitchwheel', channel=10, pitch=-3888, time=0),
    Message('pitchwheel', channel=7, pitch=-4305, time=6),
    Message('pitchwheel', channel=8, pitch=-4305, time=0),
    Message('pitchwheel', channel=10, pitch=-4305, time=0),
    Message('pitchwheel', channel=10, pitch=-4691, time=3),
    Message('pitchwheel', channel=8, pitch=-4691, time=0),
    Message('pitchwheel', channel=7, pitch=-4691, time=0),
    Message('pitchwheel', channel=8, pitch=-5044, time=5),
    Message('pitchwheel', channel=10, pitch=-5044, time=0),
    Message('pitchwheel', channel=7, pitch=-5044, time=0),
    Message('pitchwheel', channel=7, pitch=-5430, time=4),
    Message('pitchwheel', channel=8, pitch=-5430, time=0),
    Message('pitchwheel', channel=10, pitch=-5430, time=0),
    Message('pitchwheel', channel=8, pitch=-6490, time=5),
    Message('pitchwheel', channel=10, pitch=-6490, time=0),
    Message('pitchwheel', channel=7, pitch=-6490, time=0),
    Message('pitchwheel', channel=7, pitch=-7454, time=4),
    Message('pitchwheel', channel=10, pitch=-7454, time=0),
    Message('pitchwheel', channel=8, pitch=-7454, time=0),
    Message('note_on', channel=2, note=40, velocity=117, time=3),
    Message('note_on', channel=3, note=40, velocity=117, time=0),
    Message('pitchwheel', channel=7, pitch=-8192, time=2),
    Message('pitchwheel', channel=8, pitch=-8192, time=0),
    Message('pitchwheel', channel=10, pitch=-8192, time=0),
    Message('note_off', channel=3, note=43, velocity=0, time=8),
    Message('note_off', channel=2, note=43, velocity=0, time=0),
    Message('note_on', channel=8, note=81, velocity=126, time=110),
    Message('note_on', channel=2, note=43, velocity=121, time=0),
    Message('note_on', channel=12, note=50, velocity=103, time=0),
    Message('note_on', channel=7, note=81, velocity=126, time=0),
    Message('note_on', channel=10, note=81, velocity=126, time=0),
    Message('note_on', channel=1, note=43, velocity=119, time=0),
    Message('note_on', channel=3, note=43, velocity=121, time=0),
    Message('note_on', channel=12, note=43, velocity=0, time=10),
    Message('note_on', channel=12, note=55, velocity=0, time=17),
    Message('note_on', channel=12, note=59, velocity=0, time=3),
    Message('note_on', channel=12, note=62, velocity=0, time=12),
    Message('note_on', channel=12, note=50, velocity=0, time=28),
    Message('note_on', channel=12, note=55, velocity=105, time=50),
    Message('note_on', channel=0, note=50, velocity=119, time=0),
    Message('note_on', channel=12, note=62, velocity=102, time=0),
    Message('note_on', channel=12, note=62, velocity=0, time=21),
    Message('note_on', channel=1, note=43, velocity=0, time=23),
    Message('note_on', channel=12, note=55, velocity=0, time=25),
    Message('pitchwheel', channel=8, pitch=-7968, time=24),
    Message('pitchwheel', channel=10, pitch=-7968, time=0),
    Message('pitchwheel', channel=7, pitch=-7968, time=0),
    Message('pitchwheel', channel=8, pitch=-7518, time=3),
    Message('pitchwheel', channel=7, pitch=-7518, time=0),
    Message('pitchwheel', channel=10, pitch=-7518, time=0),
    Message('pitchwheel', channel=7, pitch=-7197, time=4),
    Message('pitchwheel', channel=10, pitch=-7197, time=0),
    Message('pitchwheel', channel=8, pitch=-7197, time=0),
    Message('pitchwheel', channel=7, pitch=-6875, time=5),
    Message('pitchwheel', channel=8, pitch=-6875, time=0),
    Message('pitchwheel', channel=10, pitch=-6875, time=0),
    Message('pitchwheel', channel=7, pitch=-6618, time=4),
    Message('pitchwheel', channel=10, pitch=-6618, time=0),
    Message('pitchwheel', channel=8, pitch=-6618, time=0),
    Message('note_off', channel=0, note=50, velocity=0, time=2),
    Message('pitchwheel', channel=8, pitch=-6426, time=3),
    Message('pitchwheel', channel=7, pitch=-6426, time=0),
    Message('pitchwheel', channel=10, pitch=-6426, time=0),
    Message('pitchwheel', channel=10, pitch=-6169, time=4),
    Message('pitchwheel', channel=7, pitch=-6169, time=0),
    Message('pitchwheel', channel=8, pitch=-6169, time=0),
    Message('note_on', channel=12, note=62, velocity=102, time=2),
    Message('note_on', channel=0, note=55, velocity=119, time=0),
    Message('note_on', channel=3, note=48, velocity=119, time=0),
    Message('note_on', channel=12, note=59, velocity=106, time=0),
    Message('note_on', channel=12, note=55, velocity=99, time=0),
    Message('note_on', channel=2, note=48, velocity=119, time=0),
    Message('pitchwheel', channel=7, pitch=-5783, time=1),
    Message('pitchwheel', channel=8, pitch=-5783, time=0),
    Message('pitchwheel', channel=10, pitch=-5783, time=0),
    Message('pitchwheel', channel=8, pitch=-5430, time=11),
    Message('pitchwheel', channel=10, pitch=-5430, time=0),
    Message('pitchwheel', channel=7, pitch=-5430, time=0),
    Message('pitchwheel', channel=8, pitch=-5301, time=3),
    Message('pitchwheel', channel=10, pitch=-5301, time=0),
    Message('pitchwheel', channel=7, pitch=-5301, time=0),
    Message('note_off', channel=2, note=43, velocity=0, time=0),
    Message('note_off', channel=3, note=43, velocity=0, time=0),
    Message('pitchwheel', channel=8, pitch=-5237, time=6),
    Message('pitchwheel', channel=10, pitch=-5237, time=0),
    Message('pitchwheel', channel=7, pitch=-5237, time=0),
    Message('pitchwheel', channel=10, pitch=-5205, time=3),
    Message('pitchwheel', channel=8, pitch=-5205, time=0),
    Message('pitchwheel', channel=7, pitch=-5205, time=0),
    Message('note_off', channel=2, note=40, velocity=0, time=0),
    Message('note_off', channel=3, note=40, velocity=0, time=0),
    Message('note_off', channel=12, note=62, velocity=0, time=3),
    Message('pitchwheel', channel=7, pitch=-5108, time=1),
    Message('pitchwheel', channel=8, pitch=-5108, time=0),
    Message('pitchwheel', channel=10, pitch=-5108, time=0),
    Message('pitchwheel', channel=7, pitch=-5076, time=5),
    Message('pitchwheel', channel=8, pitch=-5076, time=0),
    Message('pitchwheel', channel=10, pitch=-5076, time=0),
    Message('pitchwheel', channel=7, pitch=-5044, time=6),
    Message('pitchwheel', channel=8, pitch=-5044, time=0),
    Message('pitchwheel', channel=10, pitch=-5044, time=0),
    Message('pitchwheel', channel=8, pitch=-5012, time=3),
    Message('pitchwheel', channel=7, pitch=-5012, time=0),
    Message('pitchwheel', channel=10, pitch=-5012, time=0),
    Message('pitchwheel', channel=10, pitch=-4948, time=6),
    Message('pitchwheel', channel=7, pitch=-4948, time=0),
    Message('pitchwheel', channel=8, pitch=-4948, time=0),
    Message('pitchwheel', channel=7, pitch=-4916, time=3),
    Message('pitchwheel', channel=10, pitch=-4916, time=0),
    Message('pitchwheel', channel=8, pitch=-4916, time=0),
    Message('note_off', channel=12, note=55, velocity=0, time=0),
    Message('pitchwheel', channel=7, pitch=-4884, time=5),
    Message('pitchwheel', channel=10, pitch=-4884, time=0),
    Message('pitchwheel', channel=8, pitch=-4884, time=0),
    Message('pitchwheel', channel=7, pitch=-4819, time=4),
    Message('pitchwheel', channel=10, pitch=-4819, time=0),
    Message('pitchwheel', channel=8, pitch=-4819, time=0),
    Message('pitchwheel', channel=7, pitch=-4755, time=5),
    Message('pitchwheel', channel=8, pitch=-4755, time=0),
    Message('pitchwheel', channel=10, pitch=-4755, time=0),
    Message('pitchwheel', channel=8, pitch=-4723, time=4),
    Message('pitchwheel', channel=10, pitch=-4723, time=0),
    Message('pitchwheel', channel=7, pitch=-4723, time=0),
    Message('note_off', channel=12, note=59, velocity=0, time=9),
    Message('pitchwheel', channel=8, pitch=-4659, time=3),
    Message('pitchwheel', channel=10, pitch=-4659, time=0),
    Message('pitchwheel', channel=7, pitch=-4659, time=0),
    Message('pitchwheel', channel=7, pitch=-4594, time=6),
    Message('pitchwheel', channel=10, pitch=-4594, time=0),
    Message('pitchwheel', channel=8, pitch=-4594, time=0),
    Message('pitchwheel', channel=8, pitch=-4562, time=3),
    Message('pitchwheel', channel=7, pitch=-4562, time=0),
    Message('pitchwheel', channel=10, pitch=-4562, time=0),
    Message('pitchwheel', channel=7, pitch=-4530, time=6),
    Message('pitchwheel', channel=8, pitch=-4530, time=0),
    Message('pitchwheel', channel=10, pitch=-4530, time=0),
    Message('pitchwheel', channel=10, pitch=-4498, time=3),
    Message('pitchwheel', channel=7, pitch=-4498, time=0),
    Message('pitchwheel', channel=8, pitch=-4498, time=0),
    Message('pitchwheel', channel=8, pitch=-4434, time=6),
    Message('pitchwheel', channel=7, pitch=-4434, time=0),
    Message('pitchwheel', channel=10, pitch=-4434, time=0),
    Message('pitchwheel', channel=8, pitch=-4402, time=3),
    Message('pitchwheel', channel=7, pitch=-4402, time=0),
    Message('pitchwheel', channel=10, pitch=-4402, time=0),
    Message('pitchwheel', channel=10, pitch=-4370, time=6),
    Message('pitchwheel', channel=7, pitch=-4370, time=0),
    Message('pitchwheel', channel=8, pitch=-4370, time=0),
    Message('pitchwheel', channel=8, pitch=-4337, time=3),
    Message('pitchwheel', channel=10, pitch=-4337, time=0),
    Message('pitchwheel', channel=7, pitch=-4337, time=0),
    Message('note_on', channel=0, note=59, velocity=121, time=3),
    Message('note_on', channel=3, note=45, velocity=122, time=0),
    Message('note_on', channel=2, note=45, velocity=122, time=0),
    Message('pitchwheel', channel=8, pitch=-4273, time=1),
    Message('pitchwheel', channel=7, pitch=-4273, time=0),
    Message('pitchwheel', channel=10, pitch=-4273, time=0),
    Message('pitchwheel', channel=7, pitch=-4241, time=5),
    Message('pitchwheel', channel=8, pitch=-4241, time=0),
    Message('pitchwheel', channel=10, pitch=-4241, time=0),
    Message('pitchwheel', channel=10, pitch=-4209, time=4),
    Message('pitchwheel', channel=8, pitch=-4209, time=0),
    Message('pitchwheel', channel=7, pitch=-4209, time=0),
    Message('note_off', channel=3, note=48, velocity=0, time=2),
    Message('note_off', channel=2, note=48, velocity=0, time=0),
    Message('pitchwheel', channel=7, pitch=-4145, time=3),
    Message('pitchwheel', channel=10, pitch=-4145, time=0),
    Message('pitchwheel', channel=8, pitch=-4145, time=0),
    Message('pitchwheel', channel=7, pitch=-4080, time=4),
    Message('pitchwheel', channel=10, pitch=-4080, time=0),
    Message('pitchwheel', channel=8, pitch=-4080, time=0),
    Message('pitchwheel', channel=7, pitch=-3984, time=5),
    Message('pitchwheel', channel=10, pitch=-3984, time=0),
    Message('pitchwheel', channel=8, pitch=-3984, time=0),
    Message('pitchwheel', channel=8, pitch=-3920, time=4),
    Message('pitchwheel', channel=10, pitch=-3920, time=0),
    Message('pitchwheel', channel=7, pitch=-3920, time=0),
    Message('pitchwheel', channel=7, pitch=-3888, time=5),
    Message('pitchwheel', channel=8, pitch=-3888, time=0),
    Message('pitchwheel', channel=10, pitch=-3888, time=0),
    Message('pitchwheel', channel=7, pitch=-3856, time=3),
    Message('pitchwheel', channel=10, pitch=-3856, time=0),
    Message('pitchwheel', channel=8, pitch=-3856, time=0),
    Message('note_off', channel=0, note=55, velocity=0, time=3),
    Message('pitchwheel', channel=7, pitch=-3823, time=3),
    Message('pitchwheel', channel=8, pitch=-3823, time=0),
    Message('pitchwheel', channel=10, pitch=-3823, time=0),
    Message('pitchwheel', channel=7, pitch=-3759, time=3),
    Message('pitchwheel', channel=10, pitch=-3759, time=0),
    Message('pitchwheel', channel=8, pitch=-3759, time=0),
    Message('pitchwheel', channel=10, pitch=-3695, time=6),
    Message('pitchwheel', channel=7, pitch=-3695, time=0),
    Message('pitchwheel', channel=8, pitch=-3695, time=0),
    Message('pitchwheel', channel=8, pitch=-3663, time=3),
    Message('pitchwheel', channel=7, pitch=-3663, time=0),
    Message('pitchwheel', channel=10, pitch=-3663, time=0),
    Message('pitchwheel', channel=10, pitch=-3631, time=4),
    Message('pitchwheel', channel=8, pitch=-3631, time=0),
    Message('pitchwheel', channel=7, pitch=-3631, time=0),
    Message('note_off', channel=0, note=59, velocity=0, time=3),
    Message('pitchwheel', channel=10, pitch=-3566, time=2),
    Message('pitchwheel', channel=7, pitch=-3566, time=0),
    Message('pitchwheel', channel=8, pitch=-3566, time=0),
    Message('pitchwheel', channel=10, pitch=-3502, time=4),
    Message('pitchwheel', channel=8, pitch=-3502, time=0),
    Message('pitchwheel', channel=7, pitch=-3502, time=0),
    Message('pitchwheel', channel=7, pitch=-3438, time=5),
    Message('pitchwheel', channel=8, pitch=-3438, time=0),
    Message('pitchwheel', channel=10, pitch=-3438, time=0),
    Message('pitchwheel', channel=10, pitch=-3406, time=4),
    Message('pitchwheel', channel=8, pitch=-3406, time=0),
    Message('pitchwheel', channel=7, pitch=-3406, time=0),
    Message('pitchwheel', channel=10, pitch=-3374, time=5),
    Message('pitchwheel', channel=8, pitch=-3374, time=0),
    Message('pitchwheel', channel=7, pitch=-3374, time=0),
    Message('pitchwheel', channel=10, pitch=-3342, time=4),
    Message('pitchwheel', channel=7, pitch=-3342, time=0),
    Message('pitchwheel', channel=8, pitch=-3342, time=0),
    Message('pitchwheel', channel=10, pitch=-3277, time=5),
    Message('pitchwheel', channel=8, pitch=-3277, time=0),
    Message('pitchwheel', channel=7, pitch=-3277, time=0),
    Message('pitchwheel', channel=7, pitch=-3213, time=4),
    Message('pitchwheel', channel=10, pitch=-3213, time=0),
    Message('pitchwheel', channel=8, pitch=-3213, time=0),
    Message('control_change', channel=12, control=64, value=0, time=4),
    Message('pitchwheel', channel=8, pitch=-3149, time=1),
    Message('pitchwheel', channel=10, pitch=-3149, time=0),
    Message('pitchwheel', channel=7, pitch=-3149, time=0),
    Message('pitchwheel', channel=10, pitch=-3020, time=3),
    Message('pitchwheel', channel=7, pitch=-3020, time=0),
    Message('pitchwheel', channel=8, pitch=-3020, time=0),
    Message('pitchwheel', channel=8, pitch=-2924, time=6),
    Message('pitchwheel', channel=7, pitch=-2924, time=0),
    Message('pitchwheel', channel=10, pitch=-2924, time=0),
    Message('pitchwheel', channel=10, pitch=-2860, time=3),
    Message('pitchwheel', channel=7, pitch=-2860, time=0),
    Message('pitchwheel', channel=8, pitch=-2860, time=0),
    Message('control_change', channel=1, control=64, value=0, time=1),
    Message('control_change', channel=0, control=64, value=0, time=0),
    Message('pitchwheel', channel=7, pitch=-2828, time=5),
    Message('pitchwheel', channel=10, pitch=-2828, time=0),
    Message('pitchwheel', channel=8, pitch=-2828, time=0),
    Message('note_on', channel=2, note=45, velocity=123, time=3),
    Message('pitchwheel', channel=7, pitch=-2763, time=0),
    Message('pitchwheel', channel=10, pitch=-2763, time=0),
    Message('note_on', channel=12, note=45, velocity=108, time=0),
    Message('note_on', channel=3, note=45, velocity=123, time=0),
    Message('pitchwheel', channel=8, pitch=-2763, time=0),
    Message('note_on', channel=1, note=45, velocity=119, time=0),
    Message('pitchwheel', channel=10, pitch=-2699, time=6),
    Message('pitchwheel', channel=7, pitch=-2699, time=0),
    Message('pitchwheel', channel=8, pitch=-2699, time=0),
    Message('pitchwheel', channel=10, pitch=-2603, time=3),
    Message('pitchwheel', channel=8, pitch=-2603, time=0),
    Message('pitchwheel', channel=7, pitch=-2603, time=0),
    Message('pitchwheel', channel=10, pitch=-2506, time=6),
    Message('pitchwheel', channel=7, pitch=-2506, time=0),
    Message('pitchwheel', channel=8, pitch=-2506, time=0),
    Message('pitchwheel', channel=8, pitch=-2474, time=3),
    Message('pitchwheel', channel=10, pitch=-2474, time=0),
    Message('pitchwheel', channel=7, pitch=-2474, time=0),
    Message('pitchwheel', channel=8, pitch=-2410, time=4),
    Message('pitchwheel', channel=10, pitch=-2410, time=0),
    Message('pitchwheel', channel=7, pitch=-2410, time=0),
    Message('pitchwheel', channel=7, pitch=-2378, time=5),
    Message('pitchwheel', channel=10, pitch=-2378, time=0),
    Message('pitchwheel', channel=8, pitch=-2378, time=0),
    Message('pitchwheel', channel=8, pitch=-2281, time=4),
    Message('pitchwheel', channel=7, pitch=-2281, time=0),
    Message('pitchwheel', channel=10, pitch=-2281, time=0),
    Message('pitchwheel', channel=7, pitch=-2185, time=5),
    Message('pitchwheel', channel=10, pitch=-2185, time=0),
    Message('pitchwheel', channel=8, pitch=-2185, time=0),
    Message('pitchwheel', channel=8, pitch=-2121, time=4),
    Message('pitchwheel', channel=10, pitch=-2121, time=0),
    Message('pitchwheel', channel=7, pitch=-2121, time=0),
    Message('pitchwheel', channel=7, pitch=-2089, time=5),
    Message('pitchwheel', channel=8, pitch=-2089, time=0),
    Message('pitchwheel', channel=10, pitch=-2089, time=0),
    Message('pitchwheel', channel=7, pitch=-2024, time=4),
    Message('pitchwheel', channel=8, pitch=-2024, time=0),
    Message('pitchwheel', channel=10, pitch=-2024, time=0),
    Message('pitchwheel', channel=7, pitch=-1928, time=5),
    Message('pitchwheel', channel=10, pitch=-1928, time=0),
    Message('pitchwheel', channel=8, pitch=-1928, time=0),
    Message('pitchwheel', channel=7, pitch=-1864, time=3),
    Message('pitchwheel', channel=8, pitch=-1864, time=0),
    Message('pitchwheel', channel=10, pitch=-1864, time=0),
    Message('pitchwheel', channel=7, pitch=-1800, time=4),
    Message('pitchwheel', channel=8, pitch=-1800, time=0),
    Message('pitchwheel', channel=10, pitch=-1800, time=0),
    Message('pitchwheel', channel=8, pitch=-1767, time=5),
    Message('pitchwheel', channel=10, pitch=-1767, time=0),
    Message('pitchwheel', channel=7, pitch=-1767, time=0),
    Message('pitchwheel', channel=10, pitch=-1735, time=6),
    Message('pitchwheel', channel=8, pitch=-1735, time=0),
    Message('pitchwheel', channel=7, pitch=-1735, time=0),
    Message('pitchwheel', channel=8, pitch=-1671, time=3),
    Message('pitchwheel', channel=10, pitch=-1671, time=0),
    Message('pitchwheel', channel=7, pitch=-1671, time=0),
    Message('pitchwheel', channel=7, pitch=-1607, time=4),
    Message('pitchwheel', channel=8, pitch=-1607, time=0),
    Message('pitchwheel', channel=10, pitch=-1607, time=0),
    Message('pitchwheel', channel=7, pitch=-1575, time=5),
    Message('pitchwheel', channel=8, pitch=-1575, time=0),
    Message('pitchwheel', channel=10, pitch=-1575, time=0),
    Message('pitchwheel', channel=10, pitch=-1510, time=4),
    Message('pitchwheel', channel=8, pitch=-1510, time=0),
    Message('pitchwheel', channel=7, pitch=-1510, time=0),
    Message('pitchwheel', channel=8, pitch=-1478, time=5),
    Message('pitchwheel', channel=7, pitch=-1478, time=0),
    Message('pitchwheel', channel=10, pitch=-1478, time=0),
    Message('pitchwheel', channel=8, pitch=-1446, time=6),
    Message('pitchwheel', channel=10, pitch=-1446, time=0),
    Message('pitchwheel', channel=7, pitch=-1446, time=0),
    Message('pitchwheel', channel=8, pitch=-1382, time=3),
    Message('pitchwheel', channel=10, pitch=-1382, time=0),
    Message('pitchwheel', channel=7, pitch=-1382, time=0),
    Message('pitchwheel', channel=10, pitch=-1350, time=4),
    Message('pitchwheel', channel=7, pitch=-1350, time=0),
    Message('pitchwheel', channel=8, pitch=-1350, time=0),
    Message('pitchwheel', channel=10, pitch=-1318, time=5),
    Message('pitchwheel', channel=8, pitch=-1318, time=0),
    Message('pitchwheel', channel=7, pitch=-1318, time=0),
    Message('pitchwheel', channel=10, pitch=-1286, time=4),
    Message('pitchwheel', channel=7, pitch=-1286, time=0),
    Message('pitchwheel', channel=8, pitch=-1286, time=0),
    Message('pitchwheel', channel=10, pitch=-1125, time=5),
    Message('pitchwheel', channel=8, pitch=-1125, time=0),
    Message('pitchwheel', channel=7, pitch=-1125, time=0),
    Message('pitchwheel', channel=8, pitch=-1029, time=4),
    Message('pitchwheel', channel=10, pitch=-1029, time=0),
    Message('pitchwheel', channel=7, pitch=-1029, time=0),
    Message('pitchwheel', channel=7, pitch=-900, time=5),
    Message('pitchwheel', channel=10, pitch=-900, time=0),
    Message('pitchwheel', channel=8, pitch=-900, time=0),
    Message('pitchwheel', channel=10, pitch=-804, time=3),
    Message('pitchwheel', channel=7, pitch=-804, time=0),
    Message('pitchwheel', channel=8, pitch=-804, time=0),
    Message('pitchwheel', channel=8, pitch=-707, time=6),
    Message('pitchwheel', channel=7, pitch=-707, time=0),
    Message('pitchwheel', channel=10, pitch=-707, time=0),
    Message('pitchwheel', channel=10, pitch=-579, time=3),
    Message('pitchwheel', channel=7, pitch=-579, time=0),
    Message('pitchwheel', channel=8, pitch=-579, time=0),
    Message('pitchwheel', channel=8, pitch=-450, time=4),
    Message('pitchwheel', channel=7, pitch=-450, time=0),
    Message('pitchwheel', channel=10, pitch=-450, time=0),
    Message('pitchwheel', channel=7, pitch=-386, time=5),
    Message('pitchwheel', channel=10, pitch=-386, time=0),
    Message('pitchwheel', channel=8, pitch=-386, time=0),
    Message('pitchwheel', channel=8, pitch=-258, time=4),
    Message('pitchwheel', channel=10, pitch=-258, time=0),
    Message('pitchwheel', channel=7, pitch=-258, time=0),
    Message('pitchwheel', channel=7, pitch=-193, time=5),
    Message('pitchwheel', channel=10, pitch=-193, time=0),
    Message('pitchwheel', channel=8, pitch=-193, time=0),
    Message('pitchwheel', channel=8, pitch=0, time=4),
    Message('pitchwheel', channel=7, pitch=0, time=0),
    Message('pitchwheel', channel=10, pitch=0, time=0),
    Message('control_change', channel=12, control=64, value=127, time=71),
    Message('note_on', channel=0, note=52, velocity=118, time=6),
    Message('note_on', channel=12, note=52, velocity=103, time=0),
    Message('note_on', channel=1, note=45, velocity=0, time=110),
    Message('note_on', channel=0, note=57, velocity=118, time=10),
    Message('control_change', channel=0, control=64, value=127, time=118),
    Message('control_change', channel=1, control=64, value=127, time=0),
    Message('note_on', channel=12, note=57, velocity=106, time=2),
    Message('note_on', channel=0, note=60, velocity=121, time=0),
    Message('note_on', channel=12, note=64, velocity=107, time=0),
    Message('note_on', channel=12, note=60, velocity=108, time=0),
    Message('note_on', channel=0, note=52, velocity=0, time=6),
    Message('note_on', channel=12, note=64, velocity=0, time=38),
    Message('note_on', channel=12, note=45, velocity=0, time=8),
    Message('control_change', channel=7, control=10, value=48, time=1),
    Message('note_off', channel=12, note=60, velocity=0, time=0),
    Message('note_off', channel=12, note=57, velocity=0, time=10),
    Message('note_off', channel=12, note=52, velocity=0, time=34),
    Message('note_off', channel=0, note=57, velocity=0, time=6),
    Message('note_on', channel=12, note=60, velocity=105, time=17),
    Message('note_on', channel=12, note=57, velocity=102, time=0),
    Message('note_on', channel=12, note=64, velocity=103, time=0),
    Message('note_on', channel=0, note=60, velocity=0, time=16),
    Message('note_on', channel=12, note=64, velocity=0, time=14),
    Message('note_on', channel=12, note=57, velocity=0, time=3),
    Message('note_on', channel=12, note=60, velocity=0, time=6),
    Message('note_on', channel=12, note=64, velocity=103, time=81),
    Message('note_on', channel=12, note=57, velocity=103, time=0),
    Message('note_on', channel=12, note=60, velocity=104, time=0),
    Message('note_on', channel=12, note=64, velocity=0, time=31),
    Message('note_on', channel=12, note=57, velocity=0, time=5),
    Message('note_on', channel=12, note=60, velocity=0, time=3),
    Message('note_on', channel=3, note=45, velocity=0, time=51),
    Message('note_on', channel=2, note=45, velocity=0, time=0),
    Message('note_on', channel=12, note=64, velocity=102, time=30),
    Message('note_on', channel=12, note=60, velocity=102, time=0),
    Message('note_on', channel=12, note=57, velocity=102, time=0),
    Message('note_on', channel=7, note=81, velocity=0, time=53),
    Message('note_on', channel=8, note=81, velocity=0, time=0),
    Message('note_on', channel=10, note=81, velocity=0, time=0),
    Message('control_change', channel=12, control=64, value=0, time=40),
    Message('note_off', channel=3, note=45, velocity=0, time=18),
    Message('note_off', channel=2, note=45, velocity=0, time=0),
    Message('note_on', channel=12, note=43, velocity=105, time=9),
    Message('note_on', channel=2, note=43, velocity=121, time=0),
    Message('note_on', channel=3, note=43, velocity=121, time=0),
    Message('note_on', channel=12, note=64, velocity=0, time=5),
    Message('note_on', channel=12, note=60, velocity=0, time=5),
    Message('note_on', channel=12, note=57, velocity=0, time=2),
    Message('control_change', channel=0, control=64, value=0, time=39),
    Message('control_change', channel=1, control=64, value=0, time=0),
    Message('control_change', channel=12, control=64, value=127, time=7),
    Message('note_on', channel=1, note=43, velocity=118, time=62),
    Message('note_on', channel=12, note=50, velocity=103, time=120),
    Message('note_on', channel=0, note=50, velocity=118, time=0),
    Message('note_on', channel=12, note=43, velocity=0, time=23),
    Message('control_change', channel=0, control=64, value=127, time=210),
    Message('control_change', channel=1, control=64, value=127, time=0),
    Message('note_on', channel=12, note=55, velocity=106, time=7),
    Message('note_on', channel=0, note=62, velocity=121, time=0),
    Message('note_on', channel=0, note=57, velocity=121, time=0),
    Message('note_on', channel=12, note=62, velocity=107, time=0),
    Message('note_on', channel=12, note=59, velocity=110, time=0),
    Message('note_on', channel=12, note=62, velocity=0, time=33),
    Message('note_on', channel=0, note=50, velocity=0, time=0),
    Message('note_on', channel=1, note=43, velocity=0, time=2),
    Message('note_on', channel=12, note=59, velocity=0, time=10),
    Message('note_on', channel=12, note=55, velocity=0, time=8),
    Message('note_on', channel=0, note=57, velocity=0, time=17),
    Message('note_on', channel=0, note=62, velocity=0, time=3),
    Message('note_on', channel=12, note=50, velocity=0, time=9),
    Message('note_on', channel=12, note=59, velocity=104, time=38),
    Message('note_on', channel=12, note=62, velocity=102, time=0),
    Message('note_on', channel=0, note=62, velocity=118, time=0),
    Message('note_on', channel=0, note=55, velocity=121, time=0),
    Message('note_on', channel=12, note=55, velocity=102, time=0),
    Message('note_on', channel=12, note=62, velocity=0, time=30),
    Message('note_on', channel=12, note=59, velocity=0, time=12),
    Message('note_on', channel=12, note=55, velocity=0, time=8),
    Message('note_on', channel=0, note=62, velocity=0, time=9),
    Message('note_on', channel=0, note=55, velocity=0, time=18),
    Message('control_change', channel=8, control=10, value=63, time=20),
    Message('note_on', channel=12, note=55, velocity=102, time=23),
    Message('note_on', channel=12, note=62, velocity=103, time=0),
    Message('note_on', channel=12, note=59, velocity=103, time=0),
    Message('note_on', channel=12, note=62, velocity=0, time=44),
    Message('note_on', channel=12, note=55, velocity=0, time=4),
    Message('note_on', channel=12, note=59, velocity=0, time=0),
    Message('note_on', channel=12, note=62, velocity=101, time=72),
    Message('note_on', channel=12, note=55, velocity=101, time=0),
    Message('note_on', channel=12, note=59, velocity=101, time=0),
    Message('control_change', channel=0, control=64, value=0, time=68),
    Message('control_change', channel=1, control=64, value=0, time=0),
    Message('pitchwheel', channel=5, pitch=-482, time=22),
    Message('control_change', channel=12, control=64, value=0, time=2),
    Message('pitchwheel', channel=5, pitch=-1286, time=3),
    Message('pitchwheel', channel=5, pitch=-1928, time=4),
    Message('note_off', channel=2, note=43, velocity=0, time=0),
    Message('note_off', channel=3, note=43, velocity=0, time=0),
    Message('pitchwheel', channel=5, pitch=-2603, time=5),
    Message('pitchwheel', channel=5, pitch=-3277, time=4),
    Message('pitchwheel', channel=5, pitch=-3856, time=5),
    Message('pitchwheel', channel=5, pitch=-4562, time=4),
    Message('note_on', channel=0, note=60, velocity=119, time=3),
    Message('note_on', channel=3, note=41, velocity=123, time=0),
    Message('note_on', channel=5, note=65, velocity=117, time=0),
    Message('note_on', channel=0, note=53, velocity=118, time=0),
    Message('note_on', channel=1, note=41, velocity=117, time=0),
    Message('note_on', channel=12, note=41, velocity=105, time=0),
    Message('note_on', channel=2, note=41, velocity=123, time=0),
    Message('note_on', channel=0, note=57, velocity=120, time=0),
    Message('note_on', channel=5, note=69, velocity=119, time=0),
    Message('pitchwheel', channel=5, pitch=-5076, time=2),
    Message('pitchwheel', channel=5, pitch=-5655, time=4),
    Message('pitchwheel', channel=5, pitch=-6618, time=5),
    Message('pitchwheel', channel=5, pitch=-7261, time=4),
    Message('pitchwheel', channel=5, pitch=-7775, time=3),
    Message('note_off', channel=12, note=62, velocity=0, time=0),
    Message('pitchwheel', channel=5, pitch=-8160, time=6),
    Message('note_off', channel=12, note=55, velocity=0, time=0),
    Message('note_off', channel=12, note=59, velocity=0, time=1),
    Message('pitchwheel', channel=5, pitch=-8192, time=7),
    Message('pitchwheel', channel=5, pitch=-8096, time=15),
    Message('pitchwheel', channel=5, pitch=-7518, time=3),
    Message('pitchwheel', channel=5, pitch=-6875, time=4),
    Message('control_change', channel=12, control=64, value=127, time=3),
    Message('pitchwheel', channel=5, pitch=-6040, time=2),
    Message('pitchwheel', channel=5, pitch=-5301, time=4),
    Message('pitchwheel', channel=5, pitch=-5044, time=5),
    Message('pitchwheel', channel=5, pitch=-4691, time=4),
    Message('pitchwheel', channel=5, pitch=-4337, time=5),
    Message('pitchwheel', channel=5, pitch=-3984, time=4),
    Message('pitchwheel', channel=5, pitch=-3727, time=5),
    Message('pitchwheel', channel=5, pitch=-3438, time=4),
    Message('pitchwheel', channel=5, pitch=-3277, time=3),
    Message('pitchwheel', channel=5, pitch=-2924, time=6),
    Message('pitchwheel', channel=5, pitch=-2763, time=3),
    Message('pitchwheel', channel=5, pitch=-2635, time=5),
    Message('pitchwheel', channel=5, pitch=-2474, time=4),
    Message('pitchwheel', channel=5, pitch=-2378, time=5),
    Message('pitchwheel', channel=5, pitch=-2281, time=4),
    Message('pitchwheel', channel=5, pitch=-2185, time=5),
    Message('pitchwheel', channel=5, pitch=-2153, time=45),
    Message('pitchwheel', channel=5, pitch=-2089, time=3),
    Message('pitchwheel', channel=5, pitch=-2024, time=4),
    Message('pitchwheel', channel=5, pitch=-1864, time=5),
    Message('pitchwheel', channel=5, pitch=-1735, time=4),
    Message('pitchwheel', channel=5, pitch=-1607, time=5),
    Message('pitchwheel', channel=5, pitch=-1478, time=4),
    Message('pitchwheel', channel=5, pitch=-1382, time=5),
    Message('pitchwheel', channel=5, pitch=-1318, time=4),
    Message('pitchwheel', channel=5, pitch=-1093, time=5),
    Message('pitchwheel', channel=5, pitch=-932, time=4),
    Message('pitchwheel', channel=5, pitch=-772, time=5),
    Message('pitchwheel', channel=5, pitch=-707, time=4),
    Message('pitchwheel', channel=5, pitch=-611, time=3),
    Message('pitchwheel', channel=5, pitch=-482, time=6),
    Message('pitchwheel', channel=5, pitch=-418, time=3),
    Message('pitchwheel', channel=5, pitch=-322, time=6),
    Message('note_on', channel=12, note=48, velocity=103, time=0),
    Message('pitchwheel', channel=5, pitch=-258, time=3),
    Message('pitchwheel', channel=5, pitch=-193, time=5),
    Message('pitchwheel', channel=5, pitch=-161, time=4),
    Message('note_off', channel=12, note=41, velocity=0, time=8),
    Message('pitchwheel', channel=5, pitch=-129, time=1),
    Message('pitchwheel', channel=5, pitch=0, time=18),
    Message('control_change', channel=5, control=64, value=127, time=73),
    Message('note_on', channel=12, note=53, velocity=96, time=8),
    Message('note_on', channel=12, note=53, velocity=0, time=26),
    Message('note_on', channel=12, note=48, velocity=0, time=85),
    Message('note_on', channel=12, note=57, velocity=108, time=9),
    Message('note_on', channel=12, note=53, velocity=106, time=0),
    Message('note_on', channel=12, note=60, velocity=106, time=0),
    Message('note_on', channel=12, note=60, velocity=0, time=42),
    Message('note_on', channel=12, note=57, velocity=0, time=9),
    Message('note_on', channel=12, note=53, velocity=0, time=8),
    Message('note_on', channel=5, note=69, velocity=0, time=23),
    Message('note_on', channel=12, note=53, velocity=102, time=38),
    Message('note_on', channel=12, note=57, velocity=102, time=0),
    Message('note_on', channel=12, note=60, velocity=102, time=0),
    Message('note_on', channel=12, note=60, velocity=0, time=31),
    Message('note_on', channel=12, note=57, velocity=0, time=3),
    Message('note_on', channel=12, note=53, velocity=0, time=10),
    Message('note_on', channel=12, note=53, velocity=100, time=76),
    Message('note_on', channel=12, note=57, velocity=102, time=0),
    Message('note_on', channel=12, note=60, velocity=101, time=0),
    Message('note_on', channel=12, note=57, velocity=0, time=53),
    Message('note_on', channel=12, note=60, velocity=0, time=7),
    Message('note_on', channel=12, note=53, velocity=0, time=3),
    Message('note_on', channel=5, note=65, velocity=0, time=48),
    Message('note_on', channel=12, note=60, velocity=103, time=9),
    Message('note_on', channel=12, note=53, velocity=102, time=0),
    Message('note_on', channel=12, note=57, velocity=104, time=0),
    Message('control_change', channel=5, control=64, value=0, time=19),
    Message('note_off', channel=12, note=60, velocity=0, time=33),
    Message('note_off', channel=12, note=57, velocity=0, time=3),
    Message('note_off', channel=12, note=53, velocity=0, time=43),
    Message('note_on', channel=12, note=41, velocity=105, time=22),
    Message('note_on', channel=5, note=65, velocity=116, time=0),
    Message('control_change', channel=12, control=64, value=0, time=5),
    Message('control_change', channel=12, control=64, value=127, time=34),
    Message('control_change', channel=1, control=64, value=127, time=56),
    Message('control_change', channel=0, control=64, value=127, time=0),
    Message('note_on', channel=12, note=48, velocity=103, time=145),
    Message('note_on', channel=12, note=41, velocity=0, time=6),
    Message('note_on', channel=12, note=48, velocity=0, time=121),
    Message('note_on', channel=0, note=60, velocity=0, time=37),
    Message('note_on', channel=0, note=53, velocity=0, time=16),
    Message('note_on', channel=0, note=57, velocity=0, time=9),
    Message('note_on', channel=1, note=41, velocity=0, time=16),
    Message('control_change', channel=5, control=64, value=127, time=15),
    Message('note_on', channel=5, note=60, velocity=115, time=20),
    Message('note_on', channel=12, note=53, velocity=105, time=0),
    Message('note_on', channel=12, note=60, velocity=106, time=0),
    Message('note_on', channel=12, note=57, velocity=108, time=0),
    Message('note_on', channel=12, note=60, velocity=0, time=41),
    Message('note_on', channel=12, note=57, velocity=0, time=3),
    Message('note_on', channel=12, note=53, velocity=0, time=11),
    Message('control_change', channel=1, control=64, value=0, time=21),
    Message('control_change', channel=0, control=64, value=0, time=0),
    Message('note_off', channel=5, note=60, velocity=0, time=27),
    Message('note_off', channel=5, note=65, velocity=0, time=6),
    Message('note_on', channel=12, note=60, velocity=101, time=11),
    Message('note_on', channel=12, note=53, velocity=102, time=0),
    Message('note_on', channel=12, note=57, velocity=102, time=0),
    Message('note_on', channel=12, note=60, velocity=0, time=37),
    Message('note_on', channel=12, note=57, velocity=0, time=11),
    Message('note_on', channel=12, note=53, velocity=0, time=3),
    Message('note_on', channel=12, note=60, velocity=103, time=69),
    Message('note_on', channel=12, note=57, velocity=103, time=0),
    Message('note_on', channel=12, note=53, velocity=102, time=0),
    Message('note_on', channel=12, note=60, velocity=0, time=49),
    Message('note_on', channel=12, note=57, velocity=0, time=3),
    Message('note_on', channel=12, note=53, velocity=0, time=7),
    Message('note_on', channel=2, note=41, velocity=0, time=53),
    Message('note_on', channel=3, note=41, velocity=0, time=0),
    Message('note_on', channel=3, note=38, velocity=120, time=8),
    Message('note_on', channel=12, note=60, velocity=103, time=0),
    Message('note_on', channel=12, note=57, velocity=103, time=0),
    Message('note_on', channel=12, note=53, velocity=102, time=0),
    Message('note_on', channel=2, note=38, velocity=120, time=0),
    Message('pitchwheel', channel=5, pitch=-322, time=50),
    Message('pitchwheel', channel=5, pitch=-643, time=3),
    Message('pitchwheel', channel=5, pitch=-1253, time=6),
    Message('pitchwheel', channel=5, pitch=-1671, time=3),
    Message('pitchwheel', channel=5, pitch=-2314, time=6),
    Message('pitchwheel', channel=5, pitch=-3052, time=3),
    Message('control_change', channel=5, control=64, value=0, time=2),
    Message('pitchwheel', channel=5, pitch=-3759, time=4),
    Message('pitchwheel', channel=5, pitch=-4498, time=3),
    Message('note_off', channel=12, note=53, velocity=0, time=2),
    Message('note_off', channel=12, note=60, velocity=0, time=0),
    Message('pitchwheel', channel=5, pitch=-5141, time=3),
    Message('note_off', channel=12, note=57, velocity=0, time=1),
    Message('pitchwheel', channel=5, pitch=-6361, time=3),
    Message('pitchwheel', channel=5, pitch=-7711, time=4),
    Message('pitchwheel', channel=5, pitch=-8192, time=5),
    Message('control_change', channel=12, control=64, value=0, time=21),
    Message('note_on', channel=12, note=60, velocity=107, time=1),
    Message('note_on', channel=3, note=36, velocity=122, time=0),
    Message('note_on', channel=2, note=36, velocity=122, time=0),
    Message('note_on', channel=12, note=64, velocity=108, time=0),
    Message('note_on', channel=12, note=48, velocity=106, time=0),
    Message('note_on', channel=0, note=67, velocity=121, time=0),
    Message('note_on', channel=0, note=60, velocity=120, time=0),
    Message('note_on', channel=5, note=64, velocity=121, time=0),
    Message('note_on', channel=1, note=48, velocity=118, time=0),
    Message('note_on', channel=12, note=67, velocity=107, time=0),
    Message('note_on', channel=0, note=64, velocity=122, time=0),
    Message('note_on', channel=3, note=38, velocity=0, time=4),
    Message('note_on', channel=2, note=38, velocity=0, time=0),
    Message('control_change', channel=12, control=64, value=127, time=9),
    Message('pitchwheel', channel=5, pitch=-8032, time=52),
    Message('pitchwheel', channel=5, pitch=-6811, time=6),
    Message('pitchwheel', channel=5, pitch=-5398, time=3),
    Message('pitchwheel', channel=5, pitch=-4787, time=6),
    Message('pitchwheel', channel=5, pitch=-4273, time=3),
    Message('pitchwheel', channel=5, pitch=-3695, time=4),
    Message('pitchwheel', channel=5, pitch=-3277, time=5),
    Message('pitchwheel', channel=5, pitch=-2763, time=4),
    Message('pitchwheel', channel=5, pitch=-2410, time=5),
    Message('pitchwheel', channel=5, pitch=-2121, time=4),
    Message('control_change', channel=1, control=10, value=75, time=0),
    Message('pitchwheel', channel=5, pitch=-1767, time=5),
    Message('pitchwheel', channel=5, pitch=-1543, time=4),
    Message('pitchwheel', channel=5, pitch=-1382, time=5),
    Message('pitchwheel', channel=5, pitch=-1221, time=4),
    Message('pitchwheel', channel=5, pitch=-964, time=5),
    Message('pitchwheel', channel=5, pitch=-804, time=3),
    Message('pitchwheel', channel=5, pitch=-675, time=6),
    Message('pitchwheel', channel=5, pitch=-482, time=3),
    Message('pitchwheel', channel=5, pitch=-354, time=4),
    Message('pitchwheel', channel=5, pitch=-161, time=5),
    Message('pitchwheel', channel=5, pitch=0, time=4),
    Message('note_off', channel=12, note=67, velocity=0, time=40),
    Message('note_off', channel=12, note=60, velocity=0, time=11),
    Message('note_off', channel=12, note=64, velocity=0, time=3),
    Message('note_on', channel=12, note=55, velocity=100, time=33),
    Message('note_on', channel=5, note=67, velocity=114, time=0),
    Message('note_on', channel=12, note=48, velocity=0, time=22),
    Message('note_on', channel=12, note=64, velocity=107, time=218),
    Message('note_on', channel=12, note=67, velocity=105, time=0),
    Message('note_on', channel=12, note=60, velocity=105, time=0),
    Message('note_on', channel=12, note=55, velocity=0, time=23),
    Message('note_on', channel=12, note=67, velocity=0, time=81),
    Message('note_on', channel=12, note=64, velocity=0, time=6),
    Message('note_on', channel=12, note=60, velocity=0, time=24),
    Message('note_on', channel=12, note=48, velocity=103, time=106),
    Message('note_on', channel=12, note=55, velocity=103, time=120),
    Message('note_on', channel=12, note=60, velocity=103, time=0),
    Message('note_on', channel=12, note=67, velocity=101, time=0),
    Message('note_on', channel=12, note=67, velocity=0, time=21),
    Message('note_on', channel=12, note=48, velocity=0, time=25),
    Message('note_on', channel=12, note=60, velocity=0, time=2),
    Message('note_on', channel=12, note=55, velocity=0, time=61),
    Message('note_on', channel=12, note=62, velocity=107, time=11),
    Message('note_on', channel=12, note=67, velocity=104, time=0),
    Message('note_on', channel=12, note=48, velocity=98, time=0),
    Message('note_on', channel=12, note=48, velocity=0, time=74),
    Message('note_on', channel=5, note=64, velocity=0, time=136),
    Message('note_on', channel=12, note=64, velocity=107, time=30),
    Message('note_on', channel=5, note=67, velocity=0, time=0),
    Message('note_on', channel=12, note=62, velocity=0, time=9),
    Message('note_on', channel=12, note=67, velocity=0, time=7),
    Message('note_on', channel=12, note=64, velocity=0, time=44),
    Message('note_on', channel=0, note=55, velocity=117, time=60),
    Message('note_on', channel=1, note=48, velocity=0, time=1),
    Message('note_on', channel=0, note=60, velocity=0, time=4),
    Message('note_on', channel=0, note=67, velocity=0, time=16),
    Message('note_on', channel=0, note=64, velocity=0, time=7),
    Message('control_change', channel=12, control=64, value=0, time=59),
    Message('control_change', channel=1, control=64, value=127, time=1),
    Message('control_change', channel=0, control=64, value=127, time=0),
    Message('control_change', channel=12, control=64, value=127, time=22),
    Message('note_on', channel=12, note=48, velocity=105, time=10),
    Message('note_on', channel=12, note=64, velocity=108, time=0),
    Message('note_on', channel=0, note=62, velocity=120, time=0),
    Message('note_on', channel=12, note=67, velocity=107, time=0),
    Message('note_on', channel=12, note=60, velocity=108, time=0),
    Message('note_on', channel=0, note=55, velocity=0, time=48),
    Message('note_on', channel=0, note=62, velocity=0, time=102),
    Message('note_on', channel=0, note=62, velocity=116, time=90),
    Message('note_on', channel=12, note=55, velocity=105, time=0),
    Message('note_on', channel=0, note=67, velocity=119, time=0),
    Message('note_on', channel=12, note=67, velocity=0, time=2),
    Message('note_on', channel=12, note=64, velocity=0, time=7),
    Message('note_on', channel=12, note=60, velocity=0, time=5),
    Message('note_on', channel=12, note=48, velocity=0, time=1),
    Message('note_on', channel=0, note=62, velocity=0, time=4),
    Message('note_on', channel=12, note=55, velocity=0, time=23),
    Message('note_on', channel=0, note=67, velocity=0, time=5),
    Message('note_on', channel=2, note=36, velocity=0, time=3),
    Message('note_on', channel=3, note=36, velocity=0, time=0),
    Message('control_change', channel=12, control=64, value=0, time=127),
    Message('note_on', channel=12, note=43, velocity=105, time=63),
    Message('note_on', channel=3, note=43, velocity=123, time=0),
    Message('note_on', channel=0, note=62, velocity=119, time=0),
    Message('note_on', channel=0, note=59, velocity=119, time=0),
    Message('note_on', channel=1, note=43, velocity=118, time=0),
    Message('note_on', channel=0, note=55, velocity=118, time=0),
    Message('note_on', channel=2, note=43, velocity=123, time=0),
    Message('note_on', channel=12, note=62, velocity=105, time=0),
    Message('note_on', channel=12, note=59, velocity=105, time=0),
    Message('note_on', channel=12, note=55, velocity=104, time=0),
    Message('control_change', channel=12, control=64, value=127, time=8),
    Message('control_change', channel=1, control=64, value=0, time=29),
    Message('control_change', channel=0, control=64, value=0, time=0),
    Message('note_off', channel=12, note=59, velocity=0, time=58),
    Message('note_off', channel=12, note=55, velocity=0, time=4),
    Message('note_off', channel=12, note=62, velocity=0, time=1),
    Message('control_change', channel=1, control=64, value=127, time=59),
    Message('control_change', channel=0, control=64, value=127, time=0),
    Message('note_on', channel=12, note=50, velocity=103, time=81),
    Message('note_on', channel=12, note=43, velocity=0, time=32),
    Message('note_on', channel=12, note=55, velocity=102, time=88),
    Message('note_on', channel=12, note=62, velocity=100, time=0),
    Message('note_on', channel=12, note=62, velocity=0, time=16),
    Message('note_on', channel=12, note=55, velocity=0, time=32),
    Message('note_on', channel=12, note=50, velocity=0, time=10),
    Message('note_on', channel=12, note=62, velocity=104, time=62),
    Message('note_on', channel=12, note=55, velocity=105, time=0),
    Message('note_on', channel=12, note=59, velocity=107, time=0),
    Message('note_on', channel=12, note=43, velocity=103, time=0),
    Message('note_on', channel=12, note=59, velocity=0, time=59),
    Message('note_on', channel=12, note=62, velocity=0, time=26),
    Message('note_on', channel=12, note=55, velocity=0, time=18),
    Message('note_on', channel=12, note=62, velocity=99, time=137),
    Message('note_on', channel=12, note=50, velocity=103, time=0),
    Message('note_on', channel=12, note=55, velocity=102, time=0),
    Message('note_on', channel=12, note=62, velocity=0, time=21),
    Message('note_on', channel=12, note=55, velocity=0, time=9),
    Message('note_on', channel=12, note=43, velocity=0, time=22),
    Message('note_on', channel=0, note=55, velocity=0, time=16),
    Message('note_on', channel=0, note=59, velocity=0, time=2),
    Message('note_on', channel=0, note=62, velocity=0, time=1),
    Message('note_on', channel=12, note=50, velocity=0, time=25),
    Message('pitchwheel', channel=5, pitch=-161, time=10),
    Message('pitchwheel', channel=5, pitch=-322, time=4),
    Message('pitchwheel', channel=5, pitch=-482, time=5),
    Message('pitchwheel', channel=5, pitch=-707, time=4),
    Message('note_on', channel=12, note=62, velocity=105, time=1),
    Message('note_on', channel=12, note=57, velocity=105, time=0),
    Message('pitchwheel', channel=5, pitch=-932, time=6),
    Message('pitchwheel', channel=5, pitch=-1286, time=1),
    Message('pitchwheel', channel=5, pitch=-1446, time=6),
    Message('pitchwheel', channel=5, pitch=-1703, time=3),
    Message('pitchwheel', channel=5, pitch=-1992, time=6),
    Message('pitchwheel', channel=5, pitch=-2314, time=3),
    Message('pitchwheel', channel=5, pitch=-2667, time=6),
    Message('pitchwheel', channel=5, pitch=-3052, time=3),
    Message('pitchwheel', channel=5, pitch=-3438, time=6),
    Message('note_off', channel=12, note=57, velocity=0, time=2),
    Message('pitchwheel', channel=5, pitch=-3856, time=1),
    Message('pitchwheel', channel=5, pitch=-4370, time=4),
    Message('note_off', channel=12, note=62, velocity=0, time=1),
    Message('pitchwheel', channel=5, pitch=-4787, time=4),
    Message('pitchwheel', channel=5, pitch=-5173, time=5),
    Message('pitchwheel', channel=5, pitch=-5719, time=4),
    Message('pitchwheel', channel=5, pitch=-6683, time=4),
    Message('pitchwheel', channel=5, pitch=-7389, time=5),
    Message('control_change', channel=12, control=64, value=0, time=2),
    Message('pitchwheel', channel=5, pitch=-8160, time=2),
    Message('pitchwheel', channel=5, pitch=-8192, time=5),
    Message('control_change', channel=12, control=64, value=127, time=41),
    Message('note_on', channel=12, note=43, velocity=105, time=0),
    Message('note_on', channel=5, note=64, velocity=123, time=0),
    Message('note_on', channel=12, note=55, velocity=107, time=0),
    Message('note_on', channel=12, note=62, velocity=104, time=0),
    Message('note_on', channel=5, note=67, velocity=120, time=0),
    Message('note_on', channel=12, note=59, velocity=108, time=0),
    Message('pitchwheel', channel=5, pitch=-7711, time=95),
    Message('pitchwheel', channel=5, pitch=-6875, time=5),
    Message('pitchwheel', channel=5, pitch=-5655, time=3),
    Message('pitchwheel', channel=5, pitch=-4980, time=6),
    Message('pitchwheel', channel=5, pitch=-4273, time=3),
    Message('pitchwheel', channel=5, pitch=-3470, time=4),
    Message('pitchwheel', channel=5, pitch=-2635, time=5),
    Message('pitchwheel', channel=5, pitch=-1928, time=4),
    Message('pitchwheel', channel=5, pitch=-1414, time=5),
    Message('pitchwheel', channel=5, pitch=-804, time=4),
    Message('pitchwheel', channel=5, pitch=-418, time=5),
    Message('pitchwheel', channel=5, pitch=-161, time=4),
    Message('pitchwheel', channel=5, pitch=0, time=5),
    Message('note_off', channel=5, note=67, velocity=0, time=46),
    Message('note_on', channel=5, note=67, velocity=115, time=46),
    Message('note_on', channel=12, note=50, velocity=104, time=0),
    Message('note_on', channel=5, note=62, velocity=119, time=0),
    Message('note_on', channel=12, note=59, velocity=0, time=8),
    Message('note_on', channel=12, note=55, velocity=0, time=3),
    Message('note_on', channel=12, note=43, velocity=0, time=15),
    Message('note_on', channel=5, note=64, velocity=0, time=9),
    Message('note_on', channel=12, note=62, velocity=0, time=0),
    Message('note_on', channel=1, note=43, velocity=0, time=70),
    Message('pitchwheel', channel=8, pitch=-322, time=64),
    Message('pitchwheel', channel=7, pitch=-322, time=0),
    Message('pitchwheel', channel=10, pitch=-322, time=0),
    Message('pitchwheel', channel=8, pitch=-739, time=5),
    Message('pitchwheel', channel=10, pitch=-739, time=0),
    Message('pitchwheel', channel=7, pitch=-739, time=0),
    Message('pitchwheel', channel=7, pitch=-1382, time=4),
    Message('pitchwheel', channel=8, pitch=-1382, time=0),
    Message('pitchwheel', channel=10, pitch=-1382, time=0),
    Message('pitchwheel', channel=7, pitch=-2089, time=5),
    Message('pitchwheel', channel=8, pitch=-2089, time=0),
    Message('pitchwheel', channel=10, pitch=-2089, time=0),
    Message('pitchwheel', channel=8, pitch=-2763, time=4),
    Message('pitchwheel', channel=10, pitch=-2763, time=0),
    Message('pitchwheel', channel=7, pitch=-2763, time=0),
    Message('pitchwheel', channel=10, pitch=-3502, time=5),
    Message('pitchwheel', channel=8, pitch=-3502, time=0),
    Message('pitchwheel', channel=7, pitch=-3502, time=0),
    Message('note_off', channel=5, note=62, velocity=0, time=2),
    Message('pitchwheel', channel=7, pitch=-4209, time=1),
    Message('pitchwheel', channel=8, pitch=-4209, time=0),
    Message('pitchwheel', channel=10, pitch=-4209, time=0),
    Message('note_off', channel=5, note=67, velocity=0, time=2),
    Message('pitchwheel', channel=8, pitch=-4916, time=4),
    Message('pitchwheel', channel=10, pitch=-4916, time=0),
    Message('pitchwheel', channel=7, pitch=-4916, time=0),
    Message('pitchwheel', channel=7, pitch=-5719, time=3),
    Message('pitchwheel', channel=8, pitch=-5719, time=0),
    Message('pitchwheel', channel=10, pitch=-5719, time=0),
    Message('pitchwheel', channel=8, pitch=-7132, time=6),
    Message('pitchwheel', channel=10, pitch=-7132, time=0),
    Message('pitchwheel', channel=7, pitch=-7132, time=0),
    Message('pitchwheel', channel=7, pitch=-8192, time=3),
    Message('pitchwheel', channel=10, pitch=-8192, time=0),
    Message('pitchwheel', channel=8, pitch=-8192, time=0),
    Message('pitchwheel', channel=5, pitch=-225, time=11),
    Message('pitchwheel', channel=5, pitch=-964, time=5),
    Message('pitchwheel', channel=5, pitch=-1703, time=4),
    Message('pitchwheel', channel=5, pitch=-2506, time=5),
    Message('note_on', channel=12, note=62, velocity=105, time=2),
    Message('note_on', channel=0, note=62, velocity=119, time=0),
    Message('note_on', channel=7, note=69, velocity=125, time=0),
    Message('note_on', channel=8, note=76, velocity=126, time=0),
    Message('note_on', channel=5, note=59, velocity=121, time=0),
    Message('note_on', channel=10, note=69, velocity=125, time=0),
    Message('note_on', channel=12, note=55, velocity=106, time=0),
    Message('note_on', channel=8, note=69, velocity=125, time=0),
    Message('note_on', channel=7, note=76, velocity=126, time=0),
    Message('note_on', channel=10, note=76, velocity=126, time=0),
    Message('note_on', channel=0, note=57, velocity=119, time=0),
    Message('pitchwheel', channel=5, pitch=-3342, time=2),
    Message('pitchwheel', channel=5, pitch=-4113, time=7),
    Message('pitchwheel', channel=5, pitch=-4755, time=2),
    Message('pitchwheel', channel=5, pitch=-5398, time=5),
    Message('pitchwheel', channel=5, pitch=-6618, time=4),
    Message('pitchwheel', channel=5, pitch=-7646, time=5),
    Message('pitchwheel', channel=5, pitch=-8192, time=4),
    Message('note_off', channel=12, note=62, velocity=0, time=7),
    Message('note_off', channel=0, note=57, velocity=0, time=43),
    Message('pitchwheel', channel=5, pitch=-7775, time=7),
    Message('pitchwheel', channel=5, pitch=-6618, time=3),
    Message('pitchwheel', channel=5, pitch=-5398, time=6),
    Message('pitchwheel', channel=5, pitch=-4755, time=3),
    Message('pitchwheel', channel=5, pitch=-4016, time=6),
    Message('pitchwheel', channel=5, pitch=-3374, time=3),
    Message('pitchwheel', channel=5, pitch=-2731, time=6),
    Message('pitchwheel', channel=5, pitch=-2121, time=3),
    Message('note_off', channel=12, note=50, velocity=0, time=1),
    Message('note_on', channel=0, note=59, velocity=123, time=3),
    Message('pitchwheel', channel=5, pitch=-1510, time=2),
    Message('pitchwheel', channel=5, pitch=-868, time=3),
    Message('pitchwheel', channel=5, pitch=-386, time=5),
    Message('pitchwheel', channel=5, pitch=0, time=4),
    Message('note_off', channel=0, note=62, velocity=0, time=35),
    Message('note_off', channel=0, note=59, velocity=0, time=24),
    Message('note_on', channel=5, note=55, velocity=116, time=47),
    Message('note_on', channel=12, note=62, velocity=100, time=0),
    Message('note_on', channel=0, note=59, velocity=117, time=0),
    Message('note_on', channel=12, note=59, velocity=106, time=0),
    Message('note_on', channel=0, note=55, velocity=122, time=0),
    Message('note_on', channel=12, note=62, velocity=0, time=20),
    Message('note_on', channel=0, note=59, velocity=0, time=7),
    Message('note_on', channel=5, note=59, velocity=0, time=3),
    Message('note_on', channel=12, note=59, velocity=0, time=9),
    Message('note_on', channel=0, note=55, velocity=0, time=30),
    Message('note_on', channel=12, note=55, velocity=0, time=2),
    Message('pitchwheel', channel=7, pitch=-8160, time=10),
    Message('pitchwheel', channel=10, pitch=-8160, time=0),
    Message('pitchwheel', channel=8, pitch=-8160, time=0),
    Message('pitchwheel', channel=7, pitch=-8032, time=4),
    Message('pitchwheel', channel=10, pitch=-8032, time=0),
    Message('pitchwheel', channel=8, pitch=-8032, time=0),
    Message('pitchwheel', channel=8, pitch=-7968, time=5),
    Message('pitchwheel', channel=10, pitch=-7968, time=0),
    Message('pitchwheel', channel=7, pitch=-7968, time=0),
    Message('pitchwheel', channel=7, pitch=-7839, time=4),
    Message('pitchwheel', channel=8, pitch=-7839, time=0),
    Message('pitchwheel', channel=10, pitch=-7839, time=0),
    Message('pitchwheel', channel=10, pitch=-7711, time=5),
    Message('pitchwheel', channel=8, pitch=-7711, time=0),
    Message('pitchwheel', channel=7, pitch=-7711, time=0),
    Message('pitchwheel', channel=10, pitch=-7646, time=4),
    Message('pitchwheel', channel=7, pitch=-7646, time=0),
    Message('pitchwheel', channel=8, pitch=-7646, time=0),
    Message('pitchwheel', channel=7, pitch=-7518, time=5),
    Message('pitchwheel', channel=8, pitch=-7518, time=0),
    Message('pitchwheel', channel=10, pitch=-7518, time=0),
    Message('pitchwheel', channel=8, pitch=-7454, time=7),
    Message('pitchwheel', channel=7, pitch=-7454, time=0),
    Message('pitchwheel', channel=10, pitch=-7454, time=0),
    Message('pitchwheel', channel=8, pitch=-7325, time=6),
    Message('pitchwheel', channel=10, pitch=-7325, time=0),
    Message('pitchwheel', channel=7, pitch=-7325, time=0),
    Message('pitchwheel', channel=10, pitch=-7261, time=3),
    Message('pitchwheel', channel=7, pitch=-7261, time=0),
    Message('pitchwheel', channel=8, pitch=-7261, time=0),
    Message('pitchwheel', channel=10, pitch=-7132, time=6),
    Message('pitchwheel', channel=7, pitch=-7132, time=0),
    Message('pitchwheel', channel=8, pitch=-7132, time=0),
    Message('pitchwheel', channel=7, pitch=-7068, time=3),
    Message('pitchwheel', channel=10, pitch=-7068, time=0),
    Message('pitchwheel', channel=8, pitch=-7068, time=0),
    Message('pitchwheel', channel=8, pitch=-6875, time=6),
    Message('pitchwheel', channel=7, pitch=-6875, time=0),
    Message('pitchwheel', channel=10, pitch=-6875, time=0),
    Message('pitchwheel', channel=7, pitch=-6811, time=3),
    Message('pitchwheel', channel=10, pitch=-6811, time=0),
    Message('pitchwheel', channel=8, pitch=-6811, time=0),
    Message('pitchwheel', channel=10, pitch=-6683, time=6),
    Message('pitchwheel', channel=8, pitch=-6683, time=0),
    Message('pitchwheel', channel=7, pitch=-6683, time=0),
    Message('pitchwheel', channel=7, pitch=-6490, time=3),
    Message('pitchwheel', channel=10, pitch=-6490, time=0),
    Message('pitchwheel', channel=8, pitch=-6490, time=0),
    Message('pitchwheel', channel=7, pitch=-6361, time=5),
    Message('pitchwheel', channel=10, pitch=-6361, time=0),
    Message('pitchwheel', channel=8, pitch=-6361, time=0),
    Message('pitchwheel', channel=10, pitch=-6104, time=4),
    Message('pitchwheel', channel=7, pitch=-6104, time=0),
    Message('pitchwheel', channel=8, pitch=-6104, time=0),
    Message('pitchwheel', channel=10, pitch=-5783, time=5),
    Message('pitchwheel', channel=8, pitch=-5783, time=0),
    Message('pitchwheel', channel=7, pitch=-5783, time=0),
    Message('pitchwheel', channel=10, pitch=-5655, time=4),
    Message('pitchwheel', channel=7, pitch=-5655, time=0),
    Message('pitchwheel', channel=8, pitch=-5655, time=0),
    Message('control_change', channel=12, control=64, value=0, time=1),
    Message('pitchwheel', channel=8, pitch=-5430, time=4),
    Message('pitchwheel', channel=10, pitch=-5430, time=0),
    Message('pitchwheel', channel=7, pitch=-5430, time=0),
    Message('pitchwheel', channel=10, pitch=-5301, time=4),
    Message('pitchwheel', channel=7, pitch=-5301, time=0),
    Message('pitchwheel', channel=8, pitch=-5301, time=0),
    Message('pitchwheel', channel=6, pitch=-386, time=2),
    Message('pitchwheel', channel=10, pitch=-5237, time=1),
    Message('pitchwheel', channel=8, pitch=-5237, time=0),
    Message('pitchwheel', channel=7, pitch=-5237, time=0),
    Message('control_change', channel=1, control=64, value=0, time=1),
    Message('control_change', channel=0, control=64, value=0, time=0),
    Message('pitchwheel', channel=6, pitch=-1221, time=1),
    Message('pitchwheel', channel=8, pitch=-5205, time=4),
    Message('pitchwheel', channel=10, pitch=-5205, time=0),
    Message('pitchwheel', channel=7, pitch=-5205, time=0),
    Message('pitchwheel', channel=6, pitch=-1703, time=0),
    Message('note_off', channel=2, note=43, velocity=0, time=0),
    Message('note_off', channel=3, note=43, velocity=0, time=0),
    Message('pitchwheel', channel=8, pitch=-5108, time=3),
    Message('pitchwheel', channel=7, pitch=-5108, time=0),
    Message('pitchwheel', channel=10, pitch=-5108, time=0),
    Message('pitchwheel', channel=6, pitch=-2346, time=2),
    Message('pitchwheel', channel=8, pitch=-5044, time=4),
    Message('pitchwheel', channel=10, pitch=-5044, time=0),
    Message('pitchwheel', channel=7, pitch=-5044, time=0),
    Message('pitchwheel', channel=6, pitch=-2892, time=1),
    Message('pitchwheel', channel=8, pitch=-5012, time=2),
    Message('pitchwheel', channel=7, pitch=-5012, time=0),
    Message('pitchwheel', channel=10, pitch=-5012, time=0),
    Message('pitchwheel', channel=6, pitch=-3406, time=4),
    Message('pitchwheel', channel=8, pitch=-4916, time=2),
    Message('pitchwheel', channel=7, pitch=-4916, time=0),
    Message('pitchwheel', channel=10, pitch=-4916, time=0),
    Message('pitchwheel', channel=6, pitch=-3823, time=1),
    Message('note_off', channel=5, note=55, velocity=0, time=1),
    Message('pitchwheel', channel=8, pitch=-4787, time=1),
    Message('pitchwheel', channel=10, pitch=-4787, time=0),
    Message('pitchwheel', channel=7, pitch=-4787, time=0),
    Message('pitchwheel', channel=6, pitch=-4241, time=4),
    Message('pitchwheel', channel=7, pitch=-4723, time=2),
    Message('pitchwheel', channel=8, pitch=-4723, time=0),
    Message('pitchwheel', channel=10, pitch=-4723, time=0),
    Message('pitchwheel', channel=6, pitch=-4562, time=0),
    Message('pitchwheel', channel=7, pitch=-4627, time=3),
    Message('pitchwheel', channel=10, pitch=-4627, time=0),
    Message('pitchwheel', channel=8, pitch=-4627, time=0),
    Message('pitchwheel', channel=5, pitch=-354, time=2),
    Message('pitchwheel', channel=6, pitch=-4851, time=0),
    Message('pitchwheel', channel=10, pitch=-4498, time=3),
    Message('pitchwheel', channel=8, pitch=-4498, time=0),
    Message('pitchwheel', channel=7, pitch=-4498, time=0),
    Message('pitchwheel', channel=6, pitch=-5108, time=2),
    Message('pitchwheel', channel=5, pitch=-1029, time=0),
    Message('pitchwheel', channel=8, pitch=-4434, time=2),
    Message('pitchwheel', channel=10, pitch=-4434, time=0),
    Message('pitchwheel', channel=7, pitch=-4434, time=0),
    Message('pitchwheel', channel=5, pitch=-1671, time=2),
    Message('pitchwheel', channel=6, pitch=-5269, time=0),
    Message('pitchwheel', channel=10, pitch=-4305, time=3),
    Message('pitchwheel', channel=8, pitch=-4305, time=0),
    Message('pitchwheel', channel=6, pitch=-5655, time=0),
    Message('pitchwheel', channel=7, pitch=-4305, time=0),
    Message('pitchwheel', channel=5, pitch=-2474, time=2),
    Message('pitchwheel', channel=10, pitch=-4209, time=2),
    Message('pitchwheel', channel=8, pitch=-4209, time=0),
    Message('pitchwheel', channel=7, pitch=-4209, time=0),
    Message('pitchwheel', channel=5, pitch=-3374, time=2),
    Message('pitchwheel', channel=6, pitch=-6297, time=2),
    Message('pitchwheel', channel=10, pitch=-4016, time=1),
    Message('note_on', channel=1, note=45, velocity=119, time=0),
    Message('note_on', channel=9, note=36, velocity=125, time=0),
    Message('pitchwheel', channel=8, pitch=-4016, time=0),
    Message('note_on', channel=2, note=33, velocity=125, time=0),
    Message('note_on', channel=5, note=57, velocity=117, time=0),
    Message('note_on', channel=3, note=33, velocity=125, time=0),
    Message('note_on', channel=12, note=45, velocity=108, time=0),
    Message('pitchwheel', channel=6, pitch=-6747, time=0),
    Message('note_on', channel=6, note=57, velocity=127, time=0),
    Message('note_on', channel=9, note=51, velocity=119, time=0),
    Message('pitchwheel', channel=7, pitch=-4016, time=0),
    Message('note_off', channel=9, note=51, velocity=0, time=1),
    Message('note_off', channel=9, note=36, velocity=0, time=0),
    Message('pitchwheel', channel=5, pitch=-4273, time=3),
    Message('pitchwheel', channel=6, pitch=-7132, time=2),
    Message('pitchwheel', channel=10, pitch=-3856, time=0),
    Message('pitchwheel', channel=5, pitch=-5173, time=0),
    Message('pitchwheel', channel=7, pitch=-3856, time=0),
    Message('pitchwheel', channel=8, pitch=-3856, time=0),
    Message('pitchwheel', channel=5, pitch=-6490, time=3),
    Message('pitchwheel', channel=6, pitch=-7518, time=4),
    Message('pitchwheel', channel=10, pitch=-3534, time=0),
    Message('pitchwheel', channel=7, pitch=-3534, time=0),
    Message('pitchwheel', channel=8, pitch=-3534, time=0),
    Message('pitchwheel', channel=5, pitch=-8096, time=2),
    Message('pitchwheel', channel=7, pitch=-3406, time=1),
    Message('pitchwheel', channel=8, pitch=-3406, time=0),
    Message('pitchwheel', channel=10, pitch=-3406, time=0),
    Message('pitchwheel', channel=5, pitch=-8192, time=2),
    Message('pitchwheel', channel=6, pitch=-8192, time=2),
    Message('pitchwheel', channel=7, pitch=-3245, time=2),
    Message('pitchwheel', channel=10, pitch=-3245, time=0),
    Message('pitchwheel', channel=8, pitch=-3245, time=0),
    Message('pitchwheel', channel=10, pitch=-2956, time=3),
    Message('pitchwheel', channel=8, pitch=-2956, time=0),
    Message('pitchwheel', channel=7, pitch=-2956, time=0),
    Message('pitchwheel', channel=7, pitch=-2828, time=6),
    Message('pitchwheel', channel=8, pitch=-2828, time=0),
    Message('pitchwheel', channel=10, pitch=-2828, time=0),
    Message('pitchwheel', channel=7, pitch=-2699, time=3),
    Message('pitchwheel', channel=10, pitch=-2699, time=0),
    Message('pitchwheel', channel=8, pitch=-2699, time=0),
    Message('pitchwheel', channel=8, pitch=-2506, time=6),
    Message('pitchwheel', channel=7, pitch=-2506, time=0),
    Message('pitchwheel', channel=10, pitch=-2506, time=0),
    Message('pitchwheel', channel=8, pitch=-2346, time=3),
    Message('pitchwheel', channel=10, pitch=-2346, time=0),
    Message('pitchwheel', channel=7, pitch=-2346, time=0),
    Message('pitchwheel', channel=8, pitch=-2185, time=6),
    Message('pitchwheel', channel=10, pitch=-2185, time=0),
    Message('pitchwheel', channel=7, pitch=-2185, time=0),
    Message('pitchwheel', channel=10, pitch=-2057, time=3),
    Message('pitchwheel', channel=7, pitch=-2057, time=0),
    Message('pitchwheel', channel=8, pitch=-2057, time=0),
    Message('pitchwheel', channel=10, pitch=-1832, time=5),
    Message('pitchwheel', channel=7, pitch=-1832, time=0),
    Message('pitchwheel', channel=8, pitch=-1832, time=0),
    Message('pitchwheel', channel=8, pitch=-1735, time=4),
    Message('pitchwheel', channel=10, pitch=-1735, time=0),
    Message('pitchwheel', channel=7, pitch=-1735, time=0),
    Message('pitchwheel', channel=10, pitch=-1543, time=4),
    Message('pitchwheel', channel=8, pitch=-1543, time=0),
    Message('pitchwheel', channel=7, pitch=-1543, time=0),
    Message('pitchwheel', channel=8, pitch=-1446, time=5),
    Message('pitchwheel', channel=7, pitch=-1446, time=0),
    Message('pitchwheel', channel=10, pitch=-1446, time=0),
    Message('pitchwheel', channel=10, pitch=-1350, time=4),
    Message('pitchwheel', channel=7, pitch=-1350, time=0),
    Message('pitchwheel', channel=8, pitch=-1350, time=0),
    Message('pitchwheel', channel=8, pitch=-1189, time=5),
    Message('pitchwheel', channel=10, pitch=-1189, time=0),
    Message('pitchwheel', channel=7, pitch=-1189, time=0),
    Message('pitchwheel', channel=7, pitch=-964, time=3),
    Message('pitchwheel', channel=10, pitch=-964, time=0),
    Message('pitchwheel', channel=6, pitch=-7968, time=0),
    Message('pitchwheel', channel=8, pitch=-964, time=0),
    Message('pitchwheel', channel=6, pitch=-7454, time=4),
    Message('pitchwheel', channel=7, pitch=-804, time=2),
    Message('pitchwheel', channel=8, pitch=-804, time=0),
    Message('pitchwheel', channel=10, pitch=-804, time=0),
    Message('pitchwheel', channel=10, pitch=-707, time=3),
    Message('pitchwheel', channel=6, pitch=-6940, time=0),
    Message('pitchwheel', channel=7, pitch=-707, time=0),
    Message('pitchwheel', channel=8, pitch=-707, time=0),
    Message('pitchwheel', channel=6, pitch=-6490, time=4),
    Message('pitchwheel', channel=8, pitch=-579, time=2),
    Message('pitchwheel', channel=10, pitch=-579, time=0),
    Message('pitchwheel', channel=7, pitch=-579, time=0),
    Message('pitchwheel', channel=6, pitch=-5847, time=2),
    Message('pitchwheel', channel=8, pitch=-482, time=1),
    Message('pitchwheel', channel=10, pitch=-482, time=0),
    Message('pitchwheel', channel=7, pitch=-482, time=0),
    Message('pitchwheel', channel=5, pitch=-8032, time=2),
    Message('pitchwheel', channel=6, pitch=-5430, time=2),
    Message('pitchwheel', channel=7, pitch=-386, time=2),
    Message('pitchwheel', channel=10, pitch=-386, time=0),
    Message('pitchwheel', channel=8, pitch=-386, time=0),
    Message('pitchwheel', channel=5, pitch=-7261, time=1),
    Message('pitchwheel', channel=6, pitch=-5205, time=2),
    Message('pitchwheel', channel=8, pitch=-290, time=0),
    Message('pitchwheel', channel=7, pitch=-290, time=0),
    Message('pitchwheel', channel=10, pitch=-290, time=0),
    Message('pitchwheel', channel=5, pitch=-6554, time=2),
    Message('pitchwheel', channel=6, pitch=-5076, time=2),
    Message('pitchwheel', channel=8, pitch=-225, time=2),
    Message('pitchwheel', channel=10, pitch=-225, time=0),
    Message('pitchwheel', channel=7, pitch=-225, time=0),
    Message('pitchwheel', channel=5, pitch=-5847, time=1),
    Message('pitchwheel', channel=8, pitch=-193, time=2),
    Message('pitchwheel', channel=10, pitch=-193, time=0),
    Message('pitchwheel', channel=7, pitch=-193, time=0),
    Message('pitchwheel', channel=6, pitch=-4916, time=0),
    Message('pitchwheel', channel=5, pitch=-5333, time=2),
    Message('pitchwheel', channel=6, pitch=-4723, time=0),
    Message('note_on', channel=0, note=52, velocity=118, time=0),
    Message('pitchwheel', channel=7, pitch=-129, time=4),
    Message('pitchwheel', channel=8, pitch=-129, time=0),
    Message('pitchwheel', channel=10, pitch=-129, time=0),
    Message('pitchwheel', channel=5, pitch=-5108, time=1),
    Message('pitchwheel', channel=6, pitch=-4562, time=0),
    Message('pitchwheel', channel=7, pitch=0, time=2),
    Message('pitchwheel', channel=8, pitch=0, time=0),
    Message('pitchwheel', channel=10, pitch=0, time=0),
    Message('pitchwheel', channel=5, pitch=-4787, time=2),
    Message('pitchwheel', channel=6, pitch=-4434, time=2),
    Message('pitchwheel', channel=5, pitch=-4530, time=3),
    Message('pitchwheel', channel=6, pitch=-4273, time=0),
    Message('pitchwheel', channel=5, pitch=-4241, time=4),
    Message('pitchwheel', channel=6, pitch=-4145, time=0),
    Message('pitchwheel', channel=5, pitch=-3920, time=5),
    Message('pitchwheel', channel=6, pitch=-4016, time=0),
    Message('pitchwheel', channel=5, pitch=-3663, time=4),
    Message('pitchwheel', channel=6, pitch=-3920, time=0),
    Message('pitchwheel', channel=5, pitch=-3470, time=5),
    Message('pitchwheel', channel=6, pitch=-3823, time=0),
    Message('pitchwheel', channel=6, pitch=-3759, time=4),
    Message('pitchwheel', channel=5, pitch=-3309, time=0),
    Message('pitchwheel', channel=5, pitch=-3020, time=3),
    Message('pitchwheel', channel=6, pitch=-3695, time=2),
    Message('pitchwheel', channel=5, pitch=-2763, time=4),
    Message('pitchwheel', channel=6, pitch=-3599, time=3),
    Message('pitchwheel', channel=5, pitch=-2538, time=0),
    Message('pitchwheel', channel=6, pitch=-3470, time=2),
    Message('pitchwheel', channel=5, pitch=-2346, time=3),
    Message('pitchwheel', channel=6, pitch=-3406, time=2),
    Message('pitchwheel', channel=5, pitch=-2121, time=2),
    Message('pitchwheel', channel=6, pitch=-3277, time=2),
    Message('pitchwheel', channel=6, pitch=-3052, time=3),
    Message('pitchwheel', channel=5, pitch=-1896, time=0),
    Message('pitchwheel', channel=5, pitch=-1639, time=4),
    Message('pitchwheel', channel=6, pitch=-2828, time=0),
    Message('pitchwheel', channel=6, pitch=-2699, time=5),
    Message('pitchwheel', channel=5, pitch=-1414, time=0),
    Message('pitchwheel', channel=5, pitch=-1253, time=4),
    Message('pitchwheel', channel=6, pitch=-2474, time=0),
    Message('note_off', channel=1, note=45, velocity=0, time=3),
    Message('pitchwheel', channel=5, pitch=-836, time=2),
    Message('pitchwheel', channel=6, pitch=-2314, time=0),
    Message('pitchwheel', channel=6, pitch=-2121, time=4),
    Message('pitchwheel', channel=5, pitch=-675, time=0),
    Message('pitchwheel', channel=5, pitch=-418, time=5),
    Message('pitchwheel', channel=6, pitch=-1960, time=0),
    Message('pitchwheel', channel=5, pitch=-225, time=4),
    Message('pitchwheel', channel=6, pitch=-1767, time=0),
    Message('pitchwheel', channel=6, pitch=-1671, time=5),
    Message('pitchwheel', channel=5, pitch=0, time=0),
    Message('pitchwheel', channel=6, pitch=-1510, time=5),
    Message('pitchwheel', channel=6, pitch=-1446, time=4),
    Message('pitchwheel', channel=6, pitch=-1382, time=5),
    Message('pitchwheel', channel=6, pitch=-1318, time=4),
    Message('note_on', channel=9, note=42, velocity=97, time=4),
    Message('note_on', channel=12, note=52, velocity=104, time=0),
    Message('note_on', channel=0, note=57, velocity=121, time=0),
    Message('pitchwheel', channel=6, pitch=-1286, time=1),
    Message('note_off', channel=9, note=42, velocity=0, time=0),
    Message('control_change', channel=0, control=64, value=127, time=4),
    Message('pitchwheel', channel=6, pitch=-1189, time=0),
    Message('control_change', channel=1, control=64, value=127, time=0),
    Message('pitchwheel', channel=6, pitch=-1125, time=3),
    Message('pitchwheel', channel=6, pitch=-1061, time=6),
    Message('control_change', channel=12, control=64, value=127, time=3),
    Message('pitchwheel', channel=6, pitch=-996, time=2),
    Message('pitchwheel', channel=6, pitch=-932, time=4),
    Message('pitchwheel', channel=6, pitch=-868, time=3),
    Message('pitchwheel', channel=6, pitch=-804, time=6),
    Message('pitchwheel', channel=6, pitch=-772, time=3),
    Message('pitchwheel', channel=6, pitch=-707, time=6),
    Message('note_off', channel=12, note=45, velocity=0, time=1),
    Message('pitchwheel', channel=6, pitch=-643, time=2),
    Message('pitchwheel', channel=6, pitch=-547, time=6),
    Message('pitchwheel', channel=6, pitch=-450, time=3),
    Message('pitchwheel', channel=6, pitch=-418, time=5),
    Message('pitchwheel', channel=6, pitch=-354, time=4),
    Message('pitchwheel', channel=6, pitch=-290, time=5),
    Message('pitchwheel', channel=6, pitch=-225, time=4),
    Message('pitchwheel', channel=6, pitch=-193, time=4),
    Message('pitchwheel', channel=6, pitch=-161, time=8),
    Message('pitchwheel', channel=6, pitch=-129, time=9),
    Message('pitchwheel', channel=6, pitch=0, time=6),
    Message('note_off', channel=0, note=57, velocity=0, time=39),
    Message('note_off', channel=0, note=52, velocity=0, time=3),
    Message('note_on', channel=12, note=60, velocity=106, time=100),
    Message('note_on', channel=12, note=64, velocity=105, time=0),
    Message('note_on', channel=9, note=42, velocity=99, time=0),
    Message('note_on', channel=0, note=60, velocity=124, time=0),
    Message('note_on', channel=0, note=64, velocity=123, time=0),
    Message('note_on', channel=12, note=57, velocity=106, time=0),
    Message('note_on', channel=0, note=57, velocity=121, time=0),
    Message('note_on', channel=9, note=37, velocity=124, time=0),
    Message('note_on', channel=5, note=45, velocity=113, time=0),
    Message('note_on', channel=9, note=37, velocity=0, time=1),
    Message('note_on', channel=9, note=42, velocity=0, time=0),
    Message('control_change', channel=5, control=64, value=127, time=30),
    Message('note_off', channel=12, note=64, velocity=0, time=4),
    Message('note_off', channel=12, note=60, velocity=0, time=6),
    Message('note_off', channel=0, note=57, velocity=0, time=12),
    Message('note_off', channel=0, note=60, velocity=0, time=2),
    Message('note_off', channel=12, note=57, velocity=0, time=2),
    Message('note_off', channel=0, note=64, velocity=0, time=0),
    Message('note_on', channel=12, note=64, velocity=102, time=63),
    Message('note_on', channel=5, note=52, velocity=111, time=0),
    Message('note_on', channel=12, note=60, velocity=103, time=0),
    Message('note_on', channel=12, note=57, velocity=102, time=0),
    Message('note_on', channel=12, note=52, velocity=0, time=17),
    Message('note_on', channel=12, note=64, velocity=0, time=17),
    Message('note_on', channel=12, note=57, velocity=0, time=11),
    Message('note_on', channel=12, note=60, velocity=0, time=0),
    Message('note_on', channel=5, note=45, velocity=0, time=24),
    Message('note_on', channel=5, note=52, velocity=0, time=42),
    Message('note_on', channel=12, note=60, velocity=102, time=9),
    Message('note_on', channel=9, note=42, velocity=98, time=0),
    Message('note_on', channel=12, note=64, velocity=102, time=0),
    Message('note_on', channel=12, note=57, velocity=101, time=0),
    Message('note_on', channel=5, note=57, velocity=112, time=0),
    Message('note_on', channel=9, note=42, velocity=0, time=1),
    Message('note_on', channel=10, note=69, velocity=0, time=8),
    Message('note_on', channel=7, note=69, velocity=0, time=0),
    Message('note_on', channel=8, note=69, velocity=0, time=0),
    Message('note_on', channel=8, note=76, velocity=0, time=2),
    Message('note_on', channel=7, note=76, velocity=0, time=0),
    Message('note_on', channel=10, note=76, velocity=0, time=0),
    Message('note_on', channel=12, note=60, velocity=0, time=37),
    Message('note_on', channel=12, note=57, velocity=0, time=0),
    Message('note_on', channel=12, note=64, velocity=0, time=2),
    Message('note_on', channel=12, note=57, velocity=100, time=70),
    Message('note_on', channel=12, note=64, velocity=101, time=0),
    Message('note_on', channel=5, note=64, velocity=107, time=0),
    Message('note_on', channel=12, note=60, velocity=102, time=0),
    Message('note_on', channel=5, note=57, velocity=0, time=42),
    Message('note_on', channel=12, note=64, velocity=0, time=47),
    Message('note_on', channel=5, note=64, velocity=0, time=9),
    Message('note_on', channel=12, note=57, velocity=0, time=0),
    Message('note_on', channel=12, note=60, velocity=0, time=1),
    Message('note_on', channel=5, note=57, velocity=0, time=3),
    Message('note_on', channel=9, note=36, velocity=125, time=18),
    Message('note_on', channel=10, note=69, velocity=126, time=0),
    Message('note_on', channel=2, note=31, velocity=120, time=0),
    Message('note_on', channel=3, note=31, velocity=120, time=0),
    Message('note_on', channel=9, note=42, velocity=99, time=0),
    Message('note_on', channel=5, note=43, velocity=114, time=0),
    Message('note_on', channel=8, note=69, velocity=126, time=0),
    Message('note_on', channel=12, note=43, velocity=107, time=0),
    Message('note_on', channel=7, note=69, velocity=126, time=0),
    Message('note_on', channel=1, note=43, velocity=118, time=0),
    Message('note_on', channel=6, note=55, velocity=127, time=0),
    Message('note_on', channel=3, note=33, velocity=0, time=0),
    Message('note_on', channel=2, note=33, velocity=0, time=0),
    Message('note_on', channel=9, note=42, velocity=0, time=1),
    Message('note_on', channel=9, note=36, velocity=0, time=0),
    Message('control_change', channel=1, control=64, value=0, time=2),
    Message('control_change', channel=0, control=64, value=0, time=0),
    Message('note_off', channel=6, note=57, velocity=0, time=4),
    Message('control_change', channel=12, control=64, value=0, time=14),
    Message('control_change', channel=5, control=64, value=0, time=44),
    Message('control_change', channel=12, control=64, value=127, time=26),
    Message('pitchwheel', channel=8, pitch=128, time=12),
    Message('pitchwheel', channel=10, pitch=128, time=0),
    Message('pitchwheel', channel=7, pitch=128, time=0),
    Message('pitchwheel', channel=7, pitch=321, time=4),
    Message('pitchwheel', channel=8, pitch=321, time=0),
    Message('pitchwheel', channel=10, pitch=321, time=0),
    Message('pitchwheel', channel=8, pitch=610, time=4),
    Message('pitchwheel', channel=7, pitch=610, time=0),
    Message('pitchwheel', channel=10, pitch=610, time=0),
    Message('pitchwheel', channel=10, pitch=963, time=5),
    Message('pitchwheel', channel=7, pitch=963, time=0),
    Message('pitchwheel', channel=8, pitch=963, time=0),
    Message('pitchwheel', channel=8, pitch=1220, time=4),
    Message('pitchwheel', channel=7, pitch=1220, time=0),
    Message('pitchwheel', channel=10, pitch=1220, time=0),
    Message('note_on', channel=0, note=50, velocity=119, time=0),
    Message('pitchwheel', channel=7, pitch=1606, time=5),
    Message('pitchwheel', channel=8, pitch=1606, time=0),
    Message('pitchwheel', channel=10, pitch=1606, time=0),
    Message('pitchwheel', channel=10, pitch=1927, time=3),
    Message('pitchwheel', channel=7, pitch=1927, time=0),
    Message('pitchwheel', channel=8, pitch=1927, time=0),
    Message('pitchwheel', channel=10, pitch=2345, time=6),
    Message('pitchwheel', channel=8, pitch=2345, time=0),
    Message('pitchwheel', channel=7, pitch=2345, time=0),
    Message('pitchwheel', channel=10, pitch=2666, time=3),
    Message('pitchwheel', channel=7, pitch=2666, time=0),
    Message('pitchwheel', channel=8, pitch=2666, time=0),
    Message('pitchwheel', channel=7, pitch=3148, time=6),
    Message('pitchwheel', channel=10, pitch=3148, time=0),
    Message('pitchwheel', channel=8, pitch=3148, time=0),
    Message('pitchwheel', channel=10, pitch=3694, time=3),
    Message('pitchwheel', channel=7, pitch=3694, time=0),
    Message('pitchwheel', channel=8, pitch=3694, time=0),
    Message('note_off', channel=1, note=43, velocity=0, time=4),
    Message('pitchwheel', channel=8, pitch=4208, time=2),
    Message('pitchwheel', channel=10, pitch=4208, time=0),
    Message('pitchwheel', channel=7, pitch=4208, time=0),
    Message('pitchwheel', channel=10, pitch=4658, time=3),
    Message('pitchwheel', channel=8, pitch=4658, time=0),
    Message('pitchwheel', channel=7, pitch=4658, time=0),
    Message('pitchwheel', channel=7, pitch=5107, time=4),
    Message('pitchwheel', channel=8, pitch=5107, time=0),
    Message('pitchwheel', channel=10, pitch=5107, time=0),
    Message('pitchwheel', channel=10, pitch=5525, time=5),
    Message('pitchwheel', channel=7, pitch=5525, time=0),
    Message('pitchwheel', channel=8, pitch=5525, time=0),
    Message('pitchwheel', channel=10, pitch=6168, time=4),
    Message('pitchwheel', channel=7, pitch=6168, time=0),
    Message('pitchwheel', channel=8, pitch=6168, time=0),
    Message('pitchwheel', channel=10, pitch=6682, time=5),
    Message('pitchwheel', channel=8, pitch=6682, time=0),
    Message('pitchwheel', channel=7, pitch=6682, time=0),
    Message('pitchwheel', channel=7, pitch=7196, time=4),
    Message('pitchwheel', channel=8, pitch=7196, time=0),
    Message('pitchwheel', channel=10, pitch=7196, time=0),
    Message('pitchwheel', channel=8, pitch=7645, time=5),
    Message('pitchwheel', channel=10, pitch=7645, time=0),
    Message('pitchwheel', channel=7, pitch=7645, time=0),
    Message('pitchwheel', channel=10, pitch=7967, time=4),
    Message('pitchwheel', channel=7, pitch=7967, time=0),
    Message('pitchwheel', channel=8, pitch=7967, time=0),
    Message('pitchwheel', channel=8, pitch=8159, time=5),
    Message('pitchwheel', channel=10, pitch=8159, time=0),
    Message('pitchwheel', channel=7, pitch=8159, time=0),
    Message('pitchwheel', channel=10, pitch=8191, time=3),
    Message('pitchwheel', channel=7, pitch=8191, time=0),
    Message('pitchwheel', channel=8, pitch=8191, time=0),
    Message('note_on', channel=0, note=67, velocity=123, time=46),
    Message('note_on', channel=12, note=50, velocity=105, time=0),
    Message('note_on', channel=0, note=74, velocity=119, time=0),
    Message('note_on', channel=5, note=50, velocity=113, time=0),
    Message('note_on', channel=9, note=42, velocity=98, time=0),
    Message('note_on', channel=1, note=43, velocity=111, time=0),
    Message('note_on', channel=9, note=42, velocity=0, time=1),
    Message('note_on', channel=0, note=50, velocity=0, time=13),
    Message('control_change', channel=1, control=64, value=127, time=15),
    Message('control_change', channel=0, control=64, value=127, time=0),
    Message('note_off', channel=12, note=43, velocity=0, time=28),
    Message('note_off', channel=0, note=67, velocity=0, time=21),
    Message('note_off', channel=0, note=74, velocity=0, time=31),
    Message('note_off', channel=1, note=43, velocity=0, time=7),
    Message('note_on', channel=0, note=69, velocity=122, time=4),
    Message('note_on', channel=0, note=74, velocity=115, time=0),
    Message('note_on', channel=0, note=69, velocity=0, time=43),
    Message('note_on', channel=0, note=74, velocity=0, time=37),
    Message('pitchwheel', channel=7, pitch=6939, time=15),
    Message('pitchwheel', channel=8, pitch=6939, time=0),
    Message('pitchwheel', channel=10, pitch=6939, time=0),
    Message('pitchwheel', channel=7, pitch=5140, time=4),
    Message('pitchwheel', channel=8, pitch=5140, time=0),
    Message('pitchwheel', channel=10, pitch=5140, time=0),
    Message('pitchwheel', channel=8, pitch=3887, time=5),
    Message('pitchwheel', channel=10, pitch=3887, time=0),
    Message('pitchwheel', channel=7, pitch=3887, time=0),
    Message('pitchwheel', channel=7, pitch=2441, time=4),
    Message('pitchwheel', channel=8, pitch=2441, time=0),
    Message('pitchwheel', channel=10, pitch=2441, time=0),
    Message('control_change', channel=5, control=64, value=127, time=2),
    Message('pitchwheel', channel=8, pitch=1092, time=1),
    Message('pitchwheel', channel=10, pitch=1092, time=0),
    Message('pitchwheel', channel=7, pitch=1092, time=0),
    Message('pitchwheel', channel=10, pitch=0, time=6),
    Message('pitchwheel', channel=8, pitch=0, time=0),
    Message('pitchwheel', channel=7, pitch=0, time=0),
    Message('note_on', channel=9, note=37, velocity=125, time=3),
    Message('note_on', channel=12, note=59, velocity=108, time=0),
    Message('note_on', channel=12, note=62, velocity=105, time=0),
    Message('note_on', channel=0, note=76, velocity=118, time=0),
    Message('note_on', channel=0, note=74, velocity=118, time=0),
    Message('note_on', channel=12, note=55, velocity=106, time=0),
    Message('note_on', channel=8, note=67, velocity=125, time=0),
    Message('note_on', channel=0, note=67, velocity=124, time=0),
    Message('note_on', channel=7, note=67, velocity=125, time=0),
    Message('note_on', channel=10, note=67, velocity=125, time=0),
    Message('note_on', channel=9, note=42, velocity=99, time=0),
    Message('note_on', channel=5, note=55, velocity=106, time=0),
    Message('note_on', channel=9, note=42, velocity=0, time=1),
    Message('note_on', channel=9, note=37, velocity=0, time=0),
    Message('note_on', channel=12, note=62, velocity=0, time=35),
    Message('note_on', channel=12, note=50, velocity=0, time=8),
    Message('note_on', channel=12, note=59, velocity=0, time=1),
    Message('note_on', channel=12, note=55, velocity=0, time=5),
    Message('note_on', channel=8, note=69, velocity=0, time=9),
    Message('note_on', channel=10, note=69, velocity=0, time=0),
    Message('note_on', channel=7, note=69, velocity=0, time=0),
    Message('note_on', channel=5, note=43, velocity=0, time=3),
    Message('note_on', channel=0, note=76, velocity=0, time=2),
    Message('note_on', channel=0, note=74, velocity=0, time=23),
    Message('note_on', channel=0, note=67, velocity=0, time=6),
    Message('note_on', channel=5, note=50, velocity=0, time=0),
    Message('note_on', channel=12, note=62, velocity=103, time=27),
    Message('note_on', channel=12, note=55, velocity=102, time=0),
    Message('note_on', channel=12, note=59, velocity=103, time=0),
    Message('note_on', channel=12, note=59, velocity=0, time=43),
    Message('note_on', channel=12, note=62, velocity=0, time=0),
    Message('note_on', channel=12, note=55, velocity=0, time=12),
    Message('note_on', channel=12, note=62, velocity=103, time=65),
    Message('note_on', channel=9, note=42, velocity=98, time=0),
    Message('note_on', channel=12, note=59, velocity=103, time=0),
    Message('note_on', channel=5, note=59, velocity=113, time=0),
    Message('note_on', channel=12, note=55, velocity=102, time=0),
    Message('note_on', channel=9, note=42, velocity=0, time=1),
    Message('note_on', channel=5, note=55, velocity=0, time=22),
    Message('note_on', channel=12, note=62, velocity=0, time=18),
    Message('note_on', channel=12, note=59, velocity=0, time=2),
    Message('note_on', channel=12, note=55, velocity=0, time=9),
    Message('note_on', channel=5, note=59, velocity=0, time=7),
    Message('note_on', channel=12, note=59, velocity=103, time=61),
    Message('note_on', channel=12, note=62, velocity=102, time=0),
    Message('note_on', channel=12, note=55, velocity=102, time=0),
    Message('control_change', channel=1, control=64, value=0, time=100),
    Message('control_change', channel=0, control=64, value=0, time=0),
    Message('note_off', channel=3, note=31, velocity=0, time=6),
    Message('note_off', channel=10, note=67, velocity=0, time=0),
    Message('note_off', channel=2, note=31, velocity=0, time=0),
    Message('note_off', channel=8, note=67, velocity=0, time=0),
    Message('note_off', channel=7, note=67, velocity=0, time=0),
    Message('control_change', channel=12, control=64, value=0, time=2),
    Message('control_change', channel=5, control=64, value=0, time=2),
    Message('note_on', channel=0, note=69, velocity=118, time=10),
    Message('note_on', channel=0, note=72, velocity=120, time=0),
    Message('note_on', channel=7, note=65, velocity=122, time=0),
    Message('note_on', channel=9, note=36, velocity=124, time=0),
    Message('note_on', channel=0, note=65, velocity=121, time=0),
    Message('note_on', channel=8, note=65, velocity=122, time=0),
    Message('note_on', channel=12, note=41, velocity=106, time=0),
    Message('note_on', channel=3, note=29, velocity=122, time=0),
    Message('note_on', channel=9, note=42, velocity=98, time=0),
    Message('note_on', channel=2, note=29, velocity=122, time=0),
    Message('note_on', channel=10, note=65, velocity=122, time=0),
    Message('note_on', channel=1, note=41, velocity=118, time=0),
    Message('note_on', channel=6, note=53, velocity=127, time=0),
    Message('note_on', channel=9, note=42, velocity=0, time=1),
    Message('note_on', channel=9, note=36, velocity=0, time=0),
    Message('note_on', channel=12, note=62, velocity=0, time=6),
    Message('note_on', channel=12, note=59, velocity=0, time=5),
    Message('note_on', channel=12, note=55, velocity=0, time=9),
    Message('note_on', channel=6, note=55, velocity=0, time=24),
    Message('control_change', channel=12, control=64, value=127, time=23),
    Message('note_on', channel=9, note=42, velocity=97, time=172),
    Message('note_on', channel=12, note=48, velocity=104, time=0),
    Message('note_on', channel=9, note=42, velocity=0, time=1),
    Message('note_on', channel=8, note=65, velocity=0, time=14),
    Message('note_on', channel=7, note=65, velocity=0, time=0),
    Message('note_on', channel=10, note=65, velocity=0, time=0),
    Message('note_on', channel=12, note=53, velocity=105, time=225),
    Message('note_on', channel=9, note=42, velocity=98, time=0),
    Message('note_on', channel=9, note=37, velocity=124, time=0),
    Message('note_on', channel=12, note=60, velocity=106, time=0),
    Message('note_on', channel=12, note=57, velocity=107, time=0),
    Message('note_on', channel=9, note=37, velocity=0, time=1),
    Message('note_on', channel=9, note=42, velocity=0, time=0),
    Message('note_on', channel=12, note=60, velocity=0, time=40),
    Message('note_on', channel=12, note=57, velocity=0, time=15),
    Message('note_on', channel=12, note=53, velocity=0, time=10),
    Message('note_on', channel=12, note=41, velocity=0, time=16),
    Message('note_on', channel=12, note=57, velocity=103, time=38),
    Message('note_on', channel=12, note=53, velocity=103, time=0),
    Message('note_on', channel=12, note=60, velocity=101, time=0),
    Message('note_on', channel=12, note=48, velocity=0, time=13),
    Message('note_on', channel=12, note=60, velocity=0, time=9),
    Message('note_on', channel=12, note=57, velocity=0, time=12),
    Message('note_on', channel=12, note=53, velocity=0, time=10),
    Message('note_on', channel=12, note=53, velocity=102, time=76),
    Message('note_on', channel=12, note=60, velocity=102, time=0),
    Message('note_on', channel=9, note=42, velocity=98, time=0),
    Message('note_on', channel=12, note=57, velocity=103, time=0),
    Message('note_on', channel=9, note=42, velocity=0, time=1),
    Message('note_on', channel=12, note=57, velocity=0, time=30),
    Message('note_on', channel=12, note=60, velocity=0, time=7),
    Message('note_on', channel=12, note=53, velocity=0, time=10),
    Message('note_on', channel=12, note=53, velocity=101, time=72),
    Message('note_on', channel=12, note=60, velocity=102, time=0),
    Message('note_on', channel=12, note=57, velocity=102, time=0),
    Message('note_on', channel=1, note=48, velocity=118, time=0),
    Message('note_on', channel=1, note=41, velocity=0, time=3),
    Message('note_on', channel=0, note=65, velocity=0, time=21),
    Message('note_on', channel=2, note=29, velocity=0, time=9),
    Message('note_on', channel=3, note=29, velocity=0, time=0),
    Message('note_on', channel=0, note=72, velocity=0, time=2),
    Message('note_on', channel=0, note=69, velocity=0, time=4),
    Message('note_on', channel=9, note=42, velocity=98, time=81),
    Message('note_on', channel=0, note=65, velocity=122, time=0),
    Message('note_on', channel=2, note=29, velocity=122, time=0),
    Message('note_on', channel=7, note=67, velocity=126, time=0),
    Message('note_on', channel=12, note=41, velocity=106, time=0),
    Message('note_on', channel=0, note=72, velocity=118, time=0),
    Message('note_on', channel=3, note=29, velocity=122, time=0),
    Message('note_on', channel=8, note=67, velocity=126, time=0),
    Message('note_on', channel=10, note=67, velocity=126, time=0),
    Message('note_on', channel=9, note=36, velocity=125, time=0),
    Message('note_on', channel=9, note=36, velocity=0, time=1),
    Message('note_on', channel=9, note=42, velocity=0, time=0),
    Message('note_on', channel=12, note=57, velocity=0, time=2),
    Message('note_on', channel=12, note=60, velocity=0, time=0),
    Message('note_on', channel=1, note=48, velocity=0, time=16),
    Message('note_on', channel=12, note=53, velocity=0, time=4),
    Message('control_change', channel=1, control=64, value=127, time=2),
    Message('control_change', channel=0, control=64, value=127, time=0),
    Message('note_off', channel=0, note=72, velocity=0, time=2),
    Message('note_on', channel=0, note=72, velocity=121, time=93),
    Message('note_on', channel=0, note=65, velocity=116, time=0),
    Message('note_on', channel=0, note=65, velocity=0, time=1),
    Message('pitchwheel', channel=7, pitch=-129, time=59),
    Message('pitchwheel', channel=8, pitch=-129, time=0),
    Message('pitchwheel', channel=10, pitch=-129, time=0),
    Message('pitchwheel', channel=8, pitch=160, time=4),
    Message('pitchwheel', channel=10, pitch=160, time=0),
    Message('pitchwheel', channel=7, pitch=160, time=0),
    Message('pitchwheel', channel=8, pitch=224, time=3),
    Message('pitchwheel', channel=10, pitch=224, time=0),
    Message('pitchwheel', channel=7, pitch=224, time=0),
    Message('pitchwheel', channel=7, pitch=353, time=6),
    Message('pitchwheel', channel=8, pitch=353, time=0),
    Message('pitchwheel', channel=10, pitch=353, time=0),
    Message('pitchwheel', channel=8, pitch=514, time=3),
    Message('pitchwheel', channel=10, pitch=514, time=0),
    Message('pitchwheel', channel=7, pitch=514, time=0),
    Message('note_off', channel=0, note=65, velocity=0, time=2),
    Message('pitchwheel', channel=8, pitch=642, time=4),
    Message('pitchwheel', channel=7, pitch=642, time=0),
    Message('pitchwheel', channel=10, pitch=642, time=0),
    Message('pitchwheel', channel=8, pitch=803, time=3),
    Message('pitchwheel', channel=10, pitch=803, time=0),
    Message('pitchwheel', channel=7, pitch=803, time=0),
    Message('pitchwheel', channel=10, pitch=931, time=6),
    Message('pitchwheel', channel=8, pitch=931, time=0),
    Message('pitchwheel', channel=7, pitch=931, time=0),
    Message('pitchwheel', channel=8, pitch=1060, time=3),
    Message('pitchwheel', channel=7, pitch=1060, time=0),
    Message('pitchwheel', channel=10, pitch=1060, time=0),
    Message('pitchwheel', channel=8, pitch=1188, time=5),
    Message('pitchwheel', channel=7, pitch=1188, time=0),
    Message('pitchwheel', channel=10, pitch=1188, time=0),
    Message('pitchwheel', channel=8, pitch=1381, time=4),
    Message('pitchwheel', channel=7, pitch=1381, time=0),
    Message('pitchwheel', channel=10, pitch=1381, time=0),
    Message('pitchwheel', channel=8, pitch=1542, time=5),
    Message('pitchwheel', channel=7, pitch=1542, time=0),
    Message('pitchwheel', channel=10, pitch=1542, time=0),
    Message('pitchwheel', channel=10, pitch=1734, time=4),
    Message('pitchwheel', channel=7, pitch=1734, time=0),
    Message('pitchwheel', channel=8, pitch=1734, time=0),
    Message('pitchwheel', channel=8, pitch=1895, time=4),
    Message('pitchwheel', channel=7, pitch=1895, time=0),
    Message('pitchwheel', channel=10, pitch=1895, time=0),
    Message('note_on', channel=12, note=48, velocity=104, time=4),
    Message('note_on', channel=9, note=42, velocity=98, time=0),
    Message('pitchwheel', channel=10, pitch=2056, time=1),
    Message('pitchwheel', channel=7, pitch=2056, time=0),
    Message('pitchwheel', channel=8, pitch=2056, time=0),
    Message('note_off', channel=9, note=42, velocity=0, time=0),
    Message('pitchwheel', channel=8, pitch=2345, time=5),
    Message('pitchwheel', channel=7, pitch=2345, time=0),
    Message('pitchwheel', channel=10, pitch=2345, time=0),
    Message('pitchwheel', channel=10, pitch=2473, time=4),
    Message('pitchwheel', channel=7, pitch=2473, time=0),
    Message('pitchwheel', channel=8, pitch=2473, time=0),
    Message('pitchwheel', channel=10, pitch=2602, time=5),
    Message('pitchwheel', channel=7, pitch=2602, time=0),
    Message('pitchwheel', channel=8, pitch=2602, time=0),
    Message('pitchwheel', channel=8, pitch=2762, time=4),
    Message('pitchwheel', channel=7, pitch=2762, time=0),
    Message('pitchwheel', channel=10, pitch=2762, time=0),
    Message('pitchwheel', channel=7, pitch=2987, time=3),
    Message('pitchwheel', channel=10, pitch=2987, time=0),
    Message('pitchwheel', channel=8, pitch=2987, time=0),
    Message('pitchwheel', channel=7, pitch=3116, time=6),
    Message('pitchwheel', channel=8, pitch=3116, time=0),
    Message('pitchwheel', channel=10, pitch=3116, time=0),
    Message('note_off', channel=12, note=41, velocity=0, time=0),
    Message('pitchwheel', channel=7, pitch=3276, time=3),
    Message('pitchwheel', channel=10, pitch=3276, time=0),
    Message('pitchwheel', channel=8, pitch=3276, time=0),
    Message('pitchwheel', channel=10, pitch=3437, time=6),
    Message('pitchwheel', channel=8, pitch=3437, time=0),
    Message('pitchwheel', channel=7, pitch=3437, time=0),
    Message('pitchwheel', channel=10, pitch=3533, time=3),
    Message('pitchwheel', channel=7, pitch=3533, time=0),
    Message('pitchwheel', channel=8, pitch=3533, time=0),
    Message('pitchwheel', channel=8, pitch=3694, time=6),
    Message('pitchwheel', channel=7, pitch=3694, time=0),
    Message('pitchwheel', channel=10, pitch=3694, time=0),
    Message('pitchwheel', channel=8, pitch=3790, time=3),
    Message('pitchwheel', channel=7, pitch=3790, time=0),
    Message('pitchwheel', channel=10, pitch=3790, time=0),
    Message('pitchwheel', channel=10, pitch=3887, time=5),
    Message('pitchwheel', channel=7, pitch=3887, time=0),
    Message('pitchwheel', channel=8, pitch=3887, time=0),
    Message('pitchwheel', channel=10, pitch=3951, time=4),
    Message('pitchwheel', channel=7, pitch=3951, time=0),
    Message('pitchwheel', channel=8, pitch=3951, time=0),
    Message('pitchwheel', channel=10, pitch=4015, time=4),
    Message('pitchwheel', channel=8, pitch=4015, time=0),
    Message('pitchwheel', channel=7, pitch=4015, time=0),
    Message('pitchwheel', channel=7, pitch=4079, time=5),
    Message('pitchwheel', channel=8, pitch=4079, time=0),
    Message('pitchwheel', channel=10, pitch=4079, time=0),
    Message('pitchwheel', channel=8, pitch=4144, time=5),
    Message('pitchwheel', channel=10, pitch=4144, time=0),
    Message('pitchwheel', channel=7, pitch=4144, time=0),
    Message('pitchwheel', channel=8, pitch=4240, time=4),
    Message('pitchwheel', channel=7, pitch=4240, time=0),
    Message('pitchwheel', channel=10, pitch=4240, time=0),
    Message('pitchwheel', channel=8, pitch=4369, time=5),
    Message('pitchwheel', channel=10, pitch=4369, time=0),
    Message('pitchwheel', channel=7, pitch=4369, time=0),
    Message('pitchwheel', channel=7, pitch=4401, time=4),
    Message('pitchwheel', channel=10, pitch=4401, time=0),
    Message('pitchwheel', channel=8, pitch=4401, time=0),
    Message('pitchwheel', channel=8, pitch=4497, time=3),
    Message('pitchwheel', channel=7, pitch=4497, time=0),
    Message('pitchwheel', channel=10, pitch=4497, time=0),
    Message('pitchwheel', channel=10, pitch=4626, time=6),
    Message('pitchwheel', channel=8, pitch=4626, time=0),
    Message('pitchwheel', channel=7, pitch=4626, time=0),
    Message('pitchwheel', channel=8, pitch=4722, time=3),
    Message('pitchwheel', channel=7, pitch=4722, time=0),
    Message('pitchwheel', channel=10, pitch=4722, time=0),
    Message('pitchwheel', channel=10, pitch=4818, time=6),
    Message('pitchwheel', channel=7, pitch=4818, time=0),
    Message('pitchwheel', channel=8, pitch=4818, time=0),
    Message('pitchwheel', channel=7, pitch=4979, time=3),
    Message('pitchwheel', channel=10, pitch=4979, time=0),
    Message('pitchwheel', channel=8, pitch=4979, time=0),
    Message('note_off', channel=0, note=72, velocity=0, time=4),
    Message('pitchwheel', channel=8, pitch=5140, time=2),
    Message('pitchwheel', channel=10, pitch=5140, time=0),
    Message('pitchwheel', channel=7, pitch=5140, time=0),
    Message('pitchwheel', channel=8, pitch=5332, time=3),
    Message('pitchwheel', channel=7, pitch=5332, time=0),
    Message('pitchwheel', channel=10, pitch=5332, time=0),
    Message('note_on', channel=1, note=48, velocity=117, time=5),
    Message('pitchwheel', channel=10, pitch=5782, time=1),
    Message('pitchwheel', channel=7, pitch=5782, time=0),
    Message('pitchwheel', channel=8, pitch=5782, time=0),
    Message('pitchwheel', channel=8, pitch=6232, time=3),
    Message('pitchwheel', channel=7, pitch=6232, time=0),
    Message('pitchwheel', channel=10, pitch=6232, time=0),
    Message('pitchwheel', channel=7, pitch=6746, time=5),
    Message('pitchwheel', channel=8, pitch=6746, time=0),
    Message('pitchwheel', channel=10, pitch=6746, time=0),
    Message('pitchwheel', channel=8, pitch=7388, time=4),
    Message('pitchwheel', channel=10, pitch=7388, time=0),
    Message('pitchwheel', channel=7, pitch=7388, time=0),
    Message('pitchwheel', channel=8, pitch=7902, time=5),
    Message('pitchwheel', channel=10, pitch=7902, time=0),
    Message('pitchwheel', channel=7, pitch=7902, time=0),
    Message('pitchwheel', channel=8, pitch=8191, time=4),
    Message('pitchwheel', channel=10, pitch=8191, time=0),
    Message('pitchwheel', channel=7, pitch=8191, time=0),
    Message('note_off', channel=12, note=48, velocity=0, time=56),
    Message('pitchwheel', channel=7, pitch=7838, time=6),
    Message('pitchwheel', channel=10, pitch=7838, time=0),
    Message('pitchwheel', channel=8, pitch=7838, time=0),
    Message('pitchwheel', channel=10, pitch=6489, time=4),
    Message('pitchwheel', channel=8, pitch=6489, time=0),
    Message('pitchwheel', channel=7, pitch=6489, time=0),
    Message('pitchwheel', channel=7, pitch=5140, time=5),
    Message('pitchwheel', channel=10, pitch=5140, time=0),
    Message('pitchwheel', channel=8, pitch=5140, time=0),
    Message('pitchwheel', channel=8, pitch=4144, time=4),
    Message('pitchwheel', channel=10, pitch=4144, time=0),
    Message('pitchwheel', channel=7, pitch=4144, time=0),
    Message('pitchwheel', channel=10, pitch=2955, time=3),
    Message('pitchwheel', channel=7, pitch=2955, time=0),
    Message('pitchwheel', channel=8, pitch=2955, time=0),
    Message('pitchwheel', channel=7, pitch=1670, time=6),
    Message('pitchwheel', channel=8, pitch=1670, time=0),
    Message('pitchwheel', channel=10, pitch=1670, time=0),
    Message('pitchwheel', channel=10, pitch=353, time=3),
    Message('pitchwheel', channel=7, pitch=353, time=0),
    Message('pitchwheel', channel=8, pitch=353, time=0),
    Message('pitchwheel', channel=7, pitch=0, time=6),
    Message('pitchwheel', channel=10, pitch=0, time=0),
    Message('pitchwheel', channel=8, pitch=0, time=0),
    Message('note_on', channel=0, note=72, velocity=119, time=5),
    Message('note_on', channel=9, note=37, velocity=125, time=0),
    Message('note_on', channel=12, note=60, velocity=105, time=0),
    Message('note_on', channel=9, note=42, velocity=98, time=0),
    Message('note_on', channel=0, note=67, velocity=124, time=0),
    Message('note_on', channel=12, note=57, velocity=107, time=0),
    Message('note_on', channel=12, note=53, velocity=107, time=0),
    Message('note_on', channel=9, note=42, velocity=0, time=1),
    Message('note_on', channel=9, note=37, velocity=0, time=0),
    Message('note_on', channel=1, note=48, velocity=0, time=1),
    Message('note_on', channel=12, note=60, velocity=0, time=21),
    Message('note_on', channel=12, note=57, velocity=0, time=11),
    Message('note_on', channel=12, note=53, velocity=0, time=22),
    Message('note_on', channel=10, note=67, velocity=0, time=28),
    Message('note_on', channel=8, note=67, velocity=0, time=0),
    Message('note_on', channel=7, note=67, velocity=0, time=0),
    Message('note_on', channel=0, note=67, velocity=0, time=7),
    Message('note_on', channel=0, note=72, velocity=0, time=11),
    Message('note_on', channel=12, note=57, velocity=104, time=18),
    Message('note_on', channel=12, note=60, velocity=102, time=0),
    Message('note_on', channel=12, note=53, velocity=102, time=0),
    Message('note_on', channel=12, note=60, velocity=0, time=32),
    Message('note_on', channel=12, note=53, velocity=0, time=5),
    Message('note_on', channel=12, note=57, velocity=0, time=3),
    Message('note_on', channel=10, note=67, velocity=123, time=80),
    Message('note_on', channel=8, note=67, velocity=123, time=0),
    Message('note_on', channel=7, note=67, velocity=123, time=0),
    Message('note_on', channel=9, note=42, velocity=98, time=0),
    Message('note_on', channel=12, note=57, velocity=104, time=0),
    Message('note_on', channel=12, note=53, velocity=103, time=0),
    Message('note_on', channel=12, note=60, velocity=103, time=0),
    Message('note_on', channel=0, note=65, velocity=123, time=0),
    Message('note_on', channel=9, note=42, velocity=0, time=1),
    Message('note_on', channel=2, note=29, velocity=0, time=36),
    Message('note_on', channel=3, note=29, velocity=0, time=0),
    Message('note_on', channel=0, note=65, velocity=0, time=9),
    Message('note_on', channel=12, note=60, velocity=0, time=0),
    Message('note_on', channel=12, note=53, velocity=0, time=7),
    Message('note_on', channel=12, note=57, velocity=0, time=1),
    Message('pitchwheel', channel=7, pitch=417, time=19),
    Message('pitchwheel', channel=8, pitch=417, time=0),
    Message('pitchwheel', channel=10, pitch=417, time=0),
    Message('pitchwheel', channel=10, pitch=1028, time=3),
    Message('pitchwheel', channel=8, pitch=1028, time=0),
    Message('pitchwheel', channel=7, pitch=1028, time=0),
    Message('pitchwheel', channel=10, pitch=1799, time=5),
    Message('pitchwheel', channel=8, pitch=1799, time=0),
    Message('pitchwheel', channel=7, pitch=1799, time=0),
    Message('pitchwheel', channel=7, pitch=2762, time=4),
    Message('pitchwheel', channel=10, pitch=2762, time=0),
    Message('pitchwheel', channel=8, pitch=2762, time=0),
    Message('pitchwheel', channel=7, pitch=3758, time=4),
    Message('pitchwheel', channel=10, pitch=3758, time=0),
    Message('pitchwheel', channel=8, pitch=3758, time=0),
    Message('pitchwheel', channel=10, pitch=4626, time=5),
    Message('pitchwheel', channel=8, pitch=4626, time=0),
    Message('pitchwheel', channel=7, pitch=4626, time=0),
    Message('pitchwheel', channel=10, pitch=5364, time=4),
    Message('pitchwheel', channel=8, pitch=5364, time=0),
    Message('pitchwheel', channel=7, pitch=5364, time=0),
    Message('pitchwheel', channel=8, pitch=6939, time=5),
    Message('pitchwheel', channel=7, pitch=6939, time=0),
    Message('pitchwheel', channel=10, pitch=6939, time=0),
    Message('pitchwheel', channel=7, pitch=8191, time=3),
    Message('pitchwheel', channel=10, pitch=8191, time=0),
    Message('pitchwheel', channel=8, pitch=8191, time=0),
    Message('note_off', channel=6, note=53, velocity=0, time=1),
    Message('note_on', channel=12, note=60, velocity=101, time=13),
    Message('note_on', channel=12, note=53, velocity=103, time=0),
    Message('note_on', channel=12, note=57, velocity=104, time=0),
    Message('note_on', channel=12, note=60, velocity=0, time=53),
    Message('note_on', channel=12, note=53, velocity=0, time=9),
    Message('note_on', channel=12, note=57, velocity=0, time=2),
    Message('pitchwheel', channel=10, pitch=7967, time=33),
    Message('pitchwheel', channel=7, pitch=7967, time=0),
    Message('pitchwheel', channel=8, pitch=7967, time=0),
    Message('control_change', channel=0, control=64, value=0, time=2),
    Message('control_change', channel=1, control=64, value=0, time=0),
    Message('pitchwheel', channel=8, pitch=5172, time=2),
    Message('pitchwheel', channel=10, pitch=5172, time=0),
    Message('pitchwheel', channel=7, pitch=5172, time=0),
    Message('pitchwheel', channel=10, pitch=3276, time=5),
    Message('pitchwheel', channel=8, pitch=3276, time=0),
    Message('pitchwheel', channel=7, pitch=3276, time=0),
    Message('pitchwheel', channel=8, pitch=803, time=4),
    Message('pitchwheel', channel=7, pitch=803, time=0),
    Message('pitchwheel', channel=10, pitch=803, time=0),
    Message('pitchwheel', channel=10, pitch=0, time=5),
    Message('pitchwheel', channel=8, pitch=0, time=0),
    Message('pitchwheel', channel=7, pitch=0, time=0),
    Message('control_change', channel=12, control=64, value=0, time=4),
    Message('note_on', channel=9, note=42, velocity=98, time=1),
    Message('note_on', channel=1, note=48, velocity=117, time=0),
    Message('note_on', channel=3, note=36, velocity=125, time=0),
    Message('control_change', channel=1, control=64, value=127, time=0),
    Message('note_on', channel=9, note=36, velocity=123, time=0),
    Message('note_on', channel=0, note=64, velocity=118, time=0),
    Message('note_on', channel=0, note=60, velocity=115, time=0),
    Message('note_on', channel=12, note=48, velocity=108, time=0),
    Message('note_on', channel=2, note=36, velocity=125, time=0),
    Message('control_change', channel=0, control=64, value=127, time=0),
    Message('note_on', channel=0, note=67, velocity=118, time=0),
    Message('note_on', channel=6, note=60, velocity=127, time=0),
    Message('note_on', channel=9, note=36, velocity=0, time=1),
    Message('note_on', channel=9, note=42, velocity=0, time=0),
    Message('note_on', channel=0, note=64, velocity=0, time=116),
    Message('note_on', channel=0, note=60, velocity=0, time=75),
    Message('note_on', channel=9, note=42, velocity=97, time=48),
    Message('note_on', channel=12, note=55, velocity=105, time=0),
    Message('note_on', channel=9, note=42, velocity=0, time=1),
    Message('control_change', channel=12, control=64, value=127, time=14),
    Message('note_off', channel=0, note=67, velocity=0, time=61),
    Message('note_off', channel=12, note=55, velocity=0, time=149),
    Message('note_on', channel=0, note=62, velocity=117, time=15),
    Message('note_on', channel=12, note=64, velocity=106, time=0),
    Message('note_on', channel=12, note=67, velocity=105, time=0),
    Message('note_on', channel=12, note=60, velocity=107, time=0),
    Message('note_on', channel=0, note=67, velocity=119, time=0),
    Message('note_on', channel=9, note=37, velocity=124, time=0),
    Message('note_on', channel=9, note=42, velocity=98, time=0),
    Message('note_on', channel=1, note=48, velocity=0, time=0),
    Message('note_on', channel=10, note=67, velocity=0, time=1),
    Message('note_on', channel=8, note=67, velocity=0, time=0),
    Message('note_on', channel=7, note=67, velocity=0, time=0),
    Message('note_on', channel=9, note=42, velocity=0, time=0),
    Message('note_on', channel=9, note=37, velocity=0, time=0),
    Message('note_on', channel=12, note=48, velocity=0, time=11),
    Message('note_on', channel=12, note=67, velocity=0, time=20),
    Message('note_on', channel=12, note=64, velocity=0, time=9),
    Message('note_on', channel=12, note=60, velocity=0, time=10),
    Message('note_on', channel=0, note=62, velocity=0, time=22),
    Message('note_on', channel=0, note=64, velocity=120, time=47),
    Message('note_on', channel=12, note=64, velocity=103, time=0),
    Message('note_on', channel=12, note=67, velocity=102, time=0),
    Message('note_on', channel=12, note=60, velocity=102, time=0),
    Message('note_on', channel=12, note=67, velocity=0, time=40),
    Message('note_on', channel=12, note=60, velocity=0, time=1),
    Message('note_on', channel=0, note=67, velocity=0, time=3),
    Message('note_on', channel=12, note=64, velocity=0, time=0),
    Message('note_on', channel=0, note=64, velocity=0, time=31),
    Message('note_on', channel=12, note=67, velocity=102, time=45),
    Message('note_on', channel=12, note=64, velocity=103, time=0),
    Message('note_on', channel=9, note=42, velocity=98, time=0),
    Message('note_on', channel=12, note=60, velocity=102, time=0),
    Message('note_on', channel=0, note=60, velocity=120, time=0),
    Message('note_on', channel=9, note=42, velocity=0, time=1),
    Message('note_on', channel=0, note=60, velocity=0, time=33),
    Message('note_on', channel=12, note=67, velocity=0, time=0),
    Message('note_on', channel=12, note=60, velocity=0, time=2),
    Message('note_on', channel=12, note=64, velocity=0, time=1),
    Message('note_on', channel=12, note=67, velocity=101, time=83),
    Message('note_on', channel=12, note=64, velocity=102, time=0),
    Message('note_on', channel=12, note=60, velocity=100, time=0),
    Message('note_on', channel=6, note=60, velocity=0, time=33),
    Message('note_on', channel=12, note=67, velocity=0, time=24),
    Message('note_on', channel=12, note=64, velocity=0, time=4),
    Message('note_on', channel=12, note=60, velocity=0, time=8),
    Message('note_on', channel=1, note=43, velocity=117, time=51),
    Message('note_on', channel=0, note=55, velocity=116, time=0),
    Message('note_on', channel=0, note=62, velocity=116, time=0),
    Message('note_on', channel=9, note=42, velocity=99, time=0),
    Message('note_on', channel=12, note=43, velocity=106, time=0),
    Message('note_on', channel=6, note=59, velocity=127, time=0),
    Message('note_on', channel=2, note=31, velocity=126, time=0),
    Message('note_on', channel=3, note=31, velocity=126, time=0),
    Message('note_on', channel=9, note=36, velocity=124, time=0),
    Message('note_on', channel=9, note=36, velocity=0, time=1),
    Message('note_on', channel=9, note=42, velocity=0, time=0),
    Message('control_change', channel=1, control=64, value=0, time=11),
    Message('control_change', channel=0, control=64, value=0, time=0),
    Message('note_off', channel=3, note=36, velocity=0, time=1),
    Message('note_off', channel=2, note=36, velocity=0, time=0),
    Message('control_change', channel=12, control=64, value=0, time=126),
    Message('note_on', channel=9, note=42, velocity=98, time=101),
    Message('note_on', channel=12, note=50, velocity=105, time=0),
    Message('note_on', channel=9, note=42, velocity=0, time=1),
    Message('control_change', channel=12, control=64, value=127, time=236),
    Message('note_on', channel=12, note=55, velocity=105, time=3),
    Message('note_on', channel=12, note=59, velocity=107, time=0),
    Message('note_on', channel=7, note=71, velocity=126, time=0),
    Message('note_on', channel=8, note=67, velocity=126, time=0),
    Message('note_on', channel=9, note=42, velocity=98, time=0),
    Message('note_on', channel=8, note=71, velocity=126, time=0),
    Message('note_on', channel=10, note=67, velocity=126, time=0),
    Message('note_on', channel=9, note=37, velocity=124, time=0),
    Message('note_on', channel=10, note=71, velocity=126, time=0),
    Message('note_on', channel=12, note=62, velocity=105, time=0),
    Message('note_on', channel=7, note=67, velocity=126, time=0),
    Message('note_on', channel=9, note=37, velocity=0, time=1),
    Message('note_on', channel=9, note=42, velocity=0, time=0),
    Message('control_change', channel=0, control=64, value=127, time=10),
    Message('control_change', channel=1, control=64, value=127, time=0),
    Message('note_off', channel=12, note=62, velocity=0, time=25),
    Message('note_off', channel=12, note=59, velocity=0, time=8),
    Message('note_off', channel=12, note=55, velocity=0, time=8),
    Message('note_off', channel=12, note=43, velocity=0, time=24),
    Message('note_off', channel=12, note=50, velocity=0, time=5),
    Message('note_on', channel=12, note=59, velocity=104, time=39),
    Message('note_on', channel=10, note=69, velocity=125, time=0),
    Message('note_on', channel=12, note=62, velocity=103, time=0),
    Message('note_on', channel=10, note=72, velocity=124, time=0),
    Message('note_on', channel=12, note=55, velocity=102, time=0),
    Message('note_on', channel=7, note=72, velocity=124, time=0),
    Message('note_on', channel=8, note=69, velocity=125, time=0),
    Message('note_on', channel=7, note=69, velocity=125, time=0),
    Message('note_on', channel=8, note=72, velocity=124, time=0),
    Message('note_on', channel=7, note=67, velocity=0, time=23),
    Message('note_on', channel=8, note=67, velocity=0, time=0),
    Message('note_on', channel=10, note=67, velocity=0, time=0),
    Message('note_on', channel=10, note=71, velocity=0, time=1),
    Message('note_on', channel=8, note=71, velocity=0, time=0),
    Message('note_on', channel=7, note=71, velocity=0, time=0),
    Message('note_on', channel=12, note=62, velocity=0, time=15),
    Message('note_on', channel=0, note=62, velocity=0, time=4),
    Message('note_on', channel=12, note=55, velocity=0, time=4),
    Message('note_on', channel=12, note=59, velocity=0, time=1),
    Message('note_on', channel=0, note=55, velocity=0, time=4),
    Message('note_on', channel=1, note=43, velocity=0, time=55),
    Message('note_on', channel=12, note=62, velocity=103, time=13),
    Message('note_on', channel=12, note=59, velocity=104, time=0),
    Message('note_on', channel=12, note=55, velocity=103, time=0),
    Message('note_on', channel=9, note=42, velocity=98, time=0),
    Message('note_on', channel=9, note=42, velocity=0, time=1),
    Message('pitchwheel', channel=10, pitch=1124, time=16),
    Message('pitchwheel', channel=7, pitch=1124, time=0),
    Message('pitchwheel', channel=8, pitch=1124, time=0),
    Message('pitchwheel', channel=7, pitch=2441, time=4),
    Message('pitchwheel', channel=8, pitch=2441, time=0),
    Message('pitchwheel', channel=10, pitch=2441, time=0),
    Message('pitchwheel', channel=7, pitch=3630, time=5),
    Message('pitchwheel', channel=10, pitch=3630, time=0),
    Message('pitchwheel', channel=8, pitch=3630, time=0),
    Message('pitchwheel', channel=8, pitch=4690, time=5),
    Message('pitchwheel', channel=7, pitch=4690, time=0),
    Message('pitchwheel', channel=10, pitch=4690, time=0),
    Message('pitchwheel', channel=8, pitch=6168, time=4),
    Message('pitchwheel', channel=7, pitch=6168, time=0),
    Message('pitchwheel', channel=10, pitch=6168, time=0),
    Message('pitchwheel', channel=7, pitch=8191, time=5),
    Message('pitchwheel', channel=8, pitch=8191, time=0),
    Message('pitchwheel', channel=10, pitch=8191, time=0),
    Message('note_off', channel=12, note=62, velocity=0, time=1),
    Message('note_off', channel=12, note=55, velocity=0, time=6),
    Message('note_off', channel=12, note=59, velocity=0, time=1),
    Message('note_on', channel=12, note=55, velocity=101, time=72),
    Message('note_on', channel=12, note=59, velocity=103, time=0),
    Message('note_on', channel=12, note=62, velocity=102, time=0),
    Message('control_change', channel=1, control=64, value=0, time=15),
    Message('control_change', channel=0, control=64, value=0, time=0),
    Message('note_off', channel=3, note=31, velocity=0, time=48),
    Message('note_off', channel=2, note=31, velocity=0, time=0),
    Message('note_off', channel=12, note=55, velocity=0, time=22),
    Message('note_off', channel=12, note=62, velocity=0, time=11),
    Message('note_off', channel=12, note=59, velocity=0, time=2),
    Message('pitchwheel', channel=10, pitch=7967, time=12),
    Message('pitchwheel', channel=7, pitch=7967, time=0),
    Message('pitchwheel', channel=8, pitch=7967, time=0),
    Message('pitchwheel', channel=10, pitch=5140, time=3),
    Message('pitchwheel', channel=8, pitch=5140, time=0),
    Message('pitchwheel', channel=7, pitch=5140, time=0),
    Message('pitchwheel', channel=7, pitch=3276, time=6),
    Message('pitchwheel', channel=8, pitch=3276, time=0),
    Message('pitchwheel', channel=10, pitch=3276, time=0),
    Message('note_on', channel=0, note=57, velocity=120, time=1),
    Message('note_on', channel=0, note=60, velocity=123, time=0),
    Message('note_on', channel=3, note=33, velocity=126, time=0),
    Message('note_on', channel=1, note=45, velocity=118, time=0),
    Message('pitchwheel', channel=8, pitch=1092, time=0),
    Message('note_on', channel=9, note=36, velocity=124, time=0),
    Message('note_on', channel=0, note=64, velocity=121, time=0),
    Message('note_on', channel=6, note=57, velocity=127, time=0),
    Message('note_on', channel=2, note=33, velocity=126, time=0),
    Message('note_on', channel=12, note=45, velocity=107, time=0),
    Message('pitchwheel', channel=7, pitch=1092, time=0),
    Message('pitchwheel', channel=10, pitch=1092, time=0),
    Message('note_on', channel=9, note=42, velocity=98, time=0),
    Message('note_on', channel=9, note=42, velocity=0, time=1),
    Message('note_on', channel=9, note=36, velocity=0, time=0),
    Message('pitchwheel', channel=8, pitch=0, time=5),
    Message('pitchwheel', channel=10, pitch=0, time=0),
    Message('pitchwheel', channel=7, pitch=0, time=0),
    Message('note_off', channel=6, note=59, velocity=0, time=11),
    Message('control_change', channel=0, control=64, value=127, time=67),
    Message('control_change', channel=1, control=64, value=127, time=0),
    Message('control_change', channel=12, control=64, value=0, time=72),
    Message('note_on', channel=12, note=52, velocity=105, time=84),
    Message('note_on', channel=9, note=42, velocity=98, time=0),
    Message('note_on', channel=9, note=42, velocity=0, time=1),
    Message('note_on', channel=0, note=57, velocity=0, time=90),
    Message('note_on', channel=0, note=60, velocity=0, time=6),
    Message('note_on', channel=0, note=64, velocity=0, time=18),
    Message('note_on', channel=1, note=45, velocity=0, time=25),
    Message('note_on', channel=9, note=37, velocity=123, time=100),
    Message('note_on', channel=9, note=42, velocity=99, time=0),
    Message('note_on', channel=12, note=64, velocity=105, time=0),
    Message('note_on', channel=12, note=57, velocity=106, time=0),
    Message('note_on', channel=12, note=60, velocity=108, time=0),
    Message('note_on', channel=9, note=42, velocity=0, time=1),
    Message('note_on', channel=9, note=37, velocity=0, time=0),
    Message('control_change', channel=12, control=64, value=127, time=8),
    Message('note_off', channel=10, note=72, velocity=0, time=1),
    Message('note_off', channel=7, note=72, velocity=0, time=0),
    Message('note_off', channel=8, note=72, velocity=0, time=0),
    Message('note_off', channel=12, note=64, velocity=0, time=25),
    Message('note_off', channel=12, note=52, velocity=0, time=5),
    Message('note_off', channel=12, note=60, velocity=0, time=3),
    Message('note_off', channel=12, note=45, velocity=0, time=9),
    Message('note_off', channel=12, note=57, velocity=0, time=5),
    Message('note_on', channel=12, note=60, velocity=102, time=63),
    Message('note_on', channel=12, note=64, velocity=102, time=0),
    Message('note_on', channel=12, note=57, velocity=101, time=0),
    Message('note_on', channel=12, note=57, velocity=0, time=28),
    Message('note_on', channel=12, note=64, velocity=0, time=8),
    Message('note_on', channel=12, note=60, velocity=0, time=1),
    Message('note_on', channel=10, note=69, velocity=0, time=56),
    Message('note_on', channel=7, note=69, velocity=0, time=0),
    Message('note_on', channel=8, note=69, velocity=0, time=0),
    Message('note_on', channel=7, note=72, velocity=125, time=27),
    Message('note_on', channel=12, note=57, velocity=102, time=0),
    Message('note_on', channel=9, note=42, velocity=98, time=0),
    Message('note_on', channel=12, note=64, velocity=102, time=0),
    Message('note_on', channel=12, note=60, velocity=102, time=0),
    Message('note_on', channel=8, note=72, velocity=125, time=0),
    Message('note_on', channel=10, note=72, velocity=125, time=0),
    Message('note_on', channel=9, note=42, velocity=0, time=1),
    Message('note_on', channel=12, note=60, velocity=0, time=34),
    Message('note_on', channel=12, note=64, velocity=0, time=0),
    Message('note_on', channel=12, note=57, velocity=0, time=10),
    Message('note_on', channel=12, note=60, velocity=101, time=75),
    Message('note_on', channel=12, note=64, velocity=101, time=0),
    Message('note_on', channel=12, note=57, velocity=100, time=0),
    Message('control_change', channel=1, control=64, value=0, time=74),
    Message('control_change', channel=0, control=64, value=0, time=0),
    Message('note_off', channel=12, note=64, velocity=0, time=35),
    Message('note_off', channel=12, note=60, velocity=0, time=3),
    Message('note_on', channel=9, note=42, velocity=99, time=8),
    Message('note_on', channel=10, note=75, velocity=126, time=0),
    Message('note_on', channel=9, note=36, velocity=125, time=0),
    Message('note_on', channel=12, note=41, velocity=104, time=0),
    Message('note_on', channel=1, note=41, velocity=119, time=0),
    Message('note_on', channel=3, note=29, velocity=126, time=0),
    Message('note_on', channel=8, note=75, velocity=126, time=0),
    Message('note_on', channel=2, note=29, velocity=126, time=0),
    Message('note_on', channel=7, note=75, velocity=126, time=0),
    Message('note_on', channel=2, note=33, velocity=0, time=0),
    Message('note_on', channel=3, note=33, velocity=0, time=0),
    Message('note_on', channel=9, note=36, velocity=0, time=1),
    Message('note_on', channel=9, note=42, velocity=0, time=0),
    Message('note_on', channel=8, note=72, velocity=0, time=7),
    Message('note_on', channel=7, note=72, velocity=0, time=0),
    Message('note_on', channel=10, note=72, velocity=0, time=0),
    Message('note_on', channel=12, note=57, velocity=0, time=2),
    Message('note_on', channel=6, note=57, velocity=0, time=94),
    Message('pitchwheel', channel=8, pitch=578, time=7),
    Message('pitchwheel', channel=7, pitch=578, time=0),
    Message('pitchwheel', channel=10, pitch=578, time=0),
    Message('pitchwheel', channel=8, pitch=1252, time=6),
    Message('pitchwheel', channel=10, pitch=1252, time=0),
    Message('pitchwheel', channel=7, pitch=1252, time=0),
    Message('note_on', channel=1, note=48, velocity=117, time=3),
    Message('pitchwheel', channel=8, pitch=1927, time=0),
    Message('pitchwheel', channel=10, pitch=1927, time=0),
    Message('pitchwheel', channel=7, pitch=1927, time=0),
    Message('pitchwheel', channel=7, pitch=2505, time=4),
    Message('pitchwheel', channel=10, pitch=2505, time=0),
    Message('pitchwheel', channel=8, pitch=2505, time=0),
    Message('pitchwheel', channel=8, pitch=3019, time=5),
    Message('pitchwheel', channel=10, pitch=3019, time=0),
    Message('pitchwheel', channel=7, pitch=3019, time=0),
    Message('pitchwheel', channel=7, pitch=3373, time=4),
    Message('pitchwheel', channel=10, pitch=3373, time=0),
    Message('pitchwheel', channel=8, pitch=3373, time=0),
    Message('pitchwheel', channel=10, pitch=3598, time=5),
    Message('pitchwheel', channel=7, pitch=3598, time=0),
    Message('pitchwheel', channel=8, pitch=3598, time=0),
    Message('pitchwheel', channel=10, pitch=3790, time=4),
    Message('pitchwheel', channel=7, pitch=3790, time=0),
    Message('pitchwheel', channel=8, pitch=3790, time=0),
    Message('pitchwheel', channel=7, pitch=3951, time=5),
    Message('pitchwheel', channel=10, pitch=3951, time=0),
    Message('pitchwheel', channel=8, pitch=3951, time=0),
    Message('control_change', channel=12, control=64, value=0, time=2),
    Message('pitchwheel', channel=8, pitch=4176, time=2),
    Message('pitchwheel', channel=7, pitch=4176, time=0),
    Message('pitchwheel', channel=10, pitch=4176, time=0),
    Message('control_change', channel=0, control=64, value=127, time=5),
    Message('pitchwheel', channel=8, pitch=4465, time=0),
    Message('pitchwheel', channel=7, pitch=4465, time=0),
    Message('control_change', channel=1, control=64, value=127, time=0),
    Message('pitchwheel', channel=10, pitch=4465, time=0),
    Message('pitchwheel', channel=10, pitch=4754, time=4),
    Message('pitchwheel', channel=7, pitch=4754, time=0),
    Message('pitchwheel', channel=8, pitch=4754, time=0),
    Message('pitchwheel', channel=10, pitch=5075, time=5),
    Message('pitchwheel', channel=7, pitch=5075, time=0),
    Message('pitchwheel', channel=8, pitch=5075, time=0),
    Message('pitchwheel', channel=7, pitch=5364, time=4),
    Message('pitchwheel', channel=8, pitch=5364, time=0),
    Message('pitchwheel', channel=10, pitch=5364, time=0),
    Message('pitchwheel', channel=7, pitch=5975, time=3),
    Message('pitchwheel', channel=8, pitch=5975, time=0),
    Message('pitchwheel', channel=10, pitch=5975, time=0),
    Message('pitchwheel', channel=7, pitch=6617, time=5),
    Message('pitchwheel', channel=10, pitch=6617, time=0),
    Message('pitchwheel', channel=8, pitch=6617, time=0),
    Message('pitchwheel', channel=8, pitch=7388, time=4),
    Message('pitchwheel', channel=7, pitch=7388, time=0),
    Message('pitchwheel', channel=10, pitch=7388, time=0),
    Message('note_off', channel=1, note=41, velocity=0, time=1),
    Message('pitchwheel', channel=8, pitch=8095, time=4),
    Message('pitchwheel', channel=7, pitch=8095, time=0),
    Message('pitchwheel', channel=10, pitch=8095, time=0),
    Message('pitchwheel', channel=8, pitch=8191, time=4),
    Message('pitchwheel', channel=10, pitch=8191, time=0),
    Message('pitchwheel', channel=7, pitch=8191, time=0),
    Message('note_on', channel=12, note=48, velocity=104, time=50),
    Message('note_on', channel=0, note=65, velocity=123, time=0),
    Message('note_on', channel=9, note=42, velocity=98, time=0),
    Message('note_on', channel=9, note=42, velocity=0, time=1),
    Message('note_on', channel=1, note=48, velocity=0, time=4),
    Message('control_change', channel=12, control=64, value=127, time=24),
    Message('note_on', channel=0, note=69, velocity=119, time=91),
    Message('note_on', channel=12, note=41, velocity=0, time=8),
    Message('note_on', channel=0, note=69, velocity=0, time=42),
    Message('note_on', channel=0, note=65, velocity=0, time=30),
    Message('note_on', channel=0, note=72, velocity=121, time=40),
    Message('note_on', channel=12, note=53, velocity=105, time=0),
    Message('note_on', channel=12, note=60, velocity=104, time=0),
    Message('note_on', channel=12, note=57, velocity=106, time=0),
    Message('note_on', channel=9, note=42, velocity=99, time=0),
    Message('note_on', channel=9, note=37, velocity=125, time=0),
    Message('note_on', channel=9, note=37, velocity=0, time=1),
    Message('note_on', channel=9, note=42, velocity=0, time=0),
    Message('note_on', channel=12, note=48, velocity=0, time=7),
    Message('note_on', channel=12, note=60, velocity=0, time=25),
    Message('note_on', channel=12, note=57, velocity=0, time=15),
    Message('note_on', channel=12, note=53, velocity=0, time=11),
    Message('note_on', channel=12, note=60, velocity=102, time=61),
    Message('note_on', channel=0, note=67, velocity=120, time=0),
    Message('note_on', channel=12, note=57, velocity=101, time=0),
    Message('note_on', channel=12, note=53, velocity=101, time=0),
    Message('note_on', channel=12, note=57, velocity=0, time=41),
    Message('note_on', channel=12, note=60, velocity=0, time=4),
    Message('note_on', channel=12, note=53, velocity=0, time=14),
    Message('note_on', channel=0, note=67, velocity=0, time=11),
    Message('note_on', channel=12, note=60, velocity=100, time=50),
    Message('note_on', channel=12, note=53, velocity=102, time=0),
    Message('note_on', channel=9, note=42, velocity=99, time=0),
    Message('note_on', channel=12, note=57, velocity=101, time=0),
    Message('note_on', channel=9, note=42, velocity=0, time=1),
    Message('note_on', channel=12, note=60, velocity=0, time=29),
    Message('note_on', channel=0, note=72, velocity=0, time=3),
    Message('note_on', channel=12, note=57, velocity=0, time=4),
    Message('note_on', channel=12, note=53, velocity=0, time=11),
    Message('note_on', channel=12, note=53, velocity=101, time=72),
    Message('note_on', channel=12, note=57, velocity=103, time=0),
    Message('note_on', channel=2, note=29, velocity=0, time=40),
    Message('note_on', channel=3, note=29, velocity=0, time=0),
    Message('note_on', channel=12, note=57, velocity=0, time=64),
    Message('note_on', channel=12, note=53, velocity=0, time=8),
    Message('note_on', channel=9, note=36, velocity=123, time=8),
    Message('note_on', channel=9, note=42, velocity=98, time=0),
    Message('note_on', channel=2, note=29, velocity=123, time=0),
    Message('note_on', channel=12, note=41, velocity=106, time=0),
    Message('note_on', channel=3, note=29, velocity=123, time=0),
    Message('note_on', channel=9, note=42, velocity=0, time=1),
    Message('note_on', channel=9, note=36, velocity=0, time=0),
    Message('control_change', channel=12, control=64, value=0, time=200),
    Message('note_on', channel=9, note=42, velocity=97, time=39),
    Message('note_on', channel=12, note=48, velocity=106, time=0),
    Message('note_on', channel=9, note=42, velocity=0, time=1),
    Message('control_change', channel=12, control=64, value=127, time=24),
    Message('note_on', channel=9, note=42, velocity=98, time=215),
    Message('note_on', channel=9, note=37, velocity=124, time=0),
    Message('note_on', channel=12, note=60, velocity=105, time=0),
    Message('note_on', channel=12, note=53, velocity=106, time=0),
    Message('note_on', channel=12, note=57, velocity=108, time=0),
    Message('note_on', channel=9, note=37, velocity=0, time=1),
    Message('note_on', channel=9, note=42, velocity=0, time=0),
    Message('note_on', channel=12, note=41, velocity=0, time=11),
    Message('note_on', channel=7, note=75, velocity=0, time=1),
    Message('note_on', channel=10, note=75, velocity=0, time=0),
    Message('note_on', channel=8, note=75, velocity=0, time=0),
    Message('note_on', channel=12, note=60, velocity=0, time=19),
    Message('note_on', channel=12, note=57, velocity=0, time=4),
    Message('note_on', channel=12, note=53, velocity=0, time=17),
    Message('note_on', channel=12, note=48, velocity=0, time=0),
    Message('pitchwheel', channel=10, pitch=7324, time=5),
    Message('pitchwheel', channel=8, pitch=7324, time=0),
    Message('pitchwheel', channel=7, pitch=7324, time=0),
    Message('pitchwheel', channel=10, pitch=5975, time=4),
    Message('pitchwheel', channel=7, pitch=5975, time=0),
    Message('pitchwheel', channel=8, pitch=5975, time=0),
    Message('pitchwheel', channel=10, pitch=4850, time=4),
    Message('pitchwheel', channel=8, pitch=4850, time=0),
    Message('pitchwheel', channel=7, pitch=4850, time=0),
    Message('pitchwheel', channel=7, pitch=3855, time=5),
    Message('pitchwheel', channel=10, pitch=3855, time=0),
    Message('pitchwheel', channel=8, pitch=3855, time=0),
    Message('pitchwheel', channel=7, pitch=2634, time=4),
    Message('pitchwheel', channel=10, pitch=2634, time=0),
    Message('pitchwheel', channel=8, pitch=2634, time=0),
    Message('pitchwheel', channel=7, pitch=1349, time=5),
    Message('pitchwheel', channel=10, pitch=1349, time=0),
    Message('pitchwheel', channel=8, pitch=1349, time=0),
    Message('pitchwheel', channel=10, pitch=0, time=3),
    Message('pitchwheel', channel=7, pitch=0, time=0),
    Message('pitchwheel', channel=8, pitch=0, time=0),
    Message('note_on', channel=12, note=57, velocity=103, time=37),
    Message('note_on', channel=12, note=60, velocity=103, time=0),
    Message('note_on', channel=12, note=53, velocity=102, time=0),
    Message('note_on', channel=12, note=60, velocity=0, time=36),
    Message('note_on', channel=12, note=57, velocity=0, time=1),
    Message('note_on', channel=12, note=53, velocity=0, time=8),
    Message('note_on', channel=9, note=42, velocity=98, time=75),
    Message('note_on', channel=12, note=60, velocity=102, time=0),
    Message('note_on', channel=12, note=57, velocity=102, time=0),
    Message('note_on', channel=12, note=53, velocity=102, time=0),
    Message('note_on', channel=9, note=42, velocity=0, time=1),
    Message('note_on', channel=12, note=60, velocity=0, time=33),
    Message('note_on', channel=12, note=57, velocity=0, time=11),
    Message('note_on', channel=12, note=53, velocity=0, time=3),
    Message('note_on', channel=12, note=57, velocity=102, time=72),
    Message('note_on', channel=12, note=60, velocity=102, time=0),
    Message('note_on', channel=12, note=53, velocity=102, time=0),
    Message('control_change', channel=1, control=64, value=0, time=43),
    Message('control_change', channel=0, control=64, value=0, time=0),
    Message('note_off', channel=2, note=29, velocity=0, time=33),
    Message('note_off', channel=3, note=29, velocity=0, time=0),
    Message('note_off', channel=12, note=53, velocity=0, time=31),
    Message('control_change', channel=12, control=64, value=0, time=11),
    Message('note_on', channel=9, note=36, velocity=124, time=2),
    Message('note_on', channel=2, note=31, velocity=126, time=0),
    Message('note_on', channel=1, note=43, velocity=119, time=0),
    Message('note_on', channel=3, note=31, velocity=126, time=0),
    Message('note_on', channel=12, note=43, velocity=107, time=0),
    Message('note_on', channel=9, note=42, velocity=99, time=0),
    Message('note_on', channel=9, note=42, velocity=0, time=1),
    Message('note_on', channel=9, note=36, velocity=0, time=0),
    Message('note_on', channel=12, note=57, velocity=0, time=0),
    Message('note_on', channel=12, note=60, velocity=0, time=4),
    Message('control_change', channel=0, control=64, value=127, time=30),
    Message('control_change', channel=1, control=64, value=127, time=0),
    Message('note_on', channel=12, note=50, velocity=106, time=205),
    Message('note_on', channel=9, note=42, velocity=98, time=0),
    Message('note_on', channel=9, note=42, velocity=0, time=1),
    Message('control_change', channel=12, control=64, value=127, time=9),
    Message('note_off', channel=1, note=43, velocity=0, time=34),
    Message('note_off', channel=12, note=43, velocity=0, time=7),
    Message('note_on', channel=1, note=43, velocity=119, time=69),
    Message('note_on', channel=12, note=50, velocity=0, time=91),
    Message('note_on', channel=0, note=57, velocity=121, time=29),
    Message('note_on', channel=0, note=59, velocity=122, time=0),
    Message('note_on', channel=12, note=62, velocity=105, time=0),
    Message('note_on', channel=0, note=62, velocity=119, time=0),
    Message('note_on', channel=9, note=37, velocity=124, time=0),
    Message('note_on', channel=12, note=59, velocity=108, time=0),
    Message('note_on', channel=9, note=42, velocity=98, time=0),
    Message('note_on', channel=12, note=55, velocity=106, time=0),
    Message('note_on', channel=9, note=42, velocity=0, time=1),
    Message('note_on', channel=9, note=37, velocity=0, time=0),
    Message('note_on', channel=12, note=62, velocity=0, time=24),
    Message('note_on', channel=0, note=59, velocity=0, time=7),
    Message('note_on', channel=12, note=59, velocity=0, time=4),
    Message('note_on', channel=12, note=55, velocity=0, time=11),
    Message('note_on', channel=0, note=62, velocity=0, time=21),
    Message('note_on', channel=0, note=57, velocity=0, time=10),
    Message('note_on', channel=1, note=43, velocity=0, time=14),
    Message('note_on', channel=0, note=55, velocity=118, time=28),
    Message('note_on', channel=12, note=55, velocity=102, time=0),
    Message('note_on', channel=0, note=62, velocity=117, time=0),
    Message('note_on', channel=12, note=59, velocity=104, time=0),
    Message('note_on', channel=12, note=62, velocity=103, time=0),
    Message('note_on', channel=12, note=59, velocity=0, time=29),
    Message('note_on', channel=12, note=62, velocity=0, time=9),
    Message('note_on', channel=12, note=55, velocity=0, time=3),
    Message('note_on', channel=0, note=55, velocity=0, time=54),
    Message('note_on', channel=12, note=55, velocity=102, time=25),
    Message('note_on', channel=12, note=59, velocity=103, time=0),
    Message('note_on', channel=9, note=42, velocity=98, time=0),
    Message('note_on', channel=12, note=62, velocity=102, time=0),
    Message('note_on', channel=9, note=42, velocity=0, time=1),
    Message('note_on', channel=12, note=59, velocity=0, time=34),
    Message('note_on', channel=12, note=62, velocity=0, time=4),
    Message('note_on', channel=12, note=55, velocity=0, time=2),
    Message('note_on', channel=0, note=62, velocity=0, time=11),
    Message('note_on', channel=12, note=62, velocity=102, time=68),
    Message('note_on', channel=12, note=55, velocity=102, time=0),
    Message('note_on', channel=12, note=59, velocity=103, time=0),
    Message('note_on', channel=12, note=55, velocity=0, time=62),
    Message('note_on', channel=3, note=31, velocity=0, time=3),
    Message('note_on', channel=2, note=31, velocity=0, time=0),
    Message('note_on', channel=12, note=59, velocity=0, time=10),
    Message('note_on', channel=12, note=62, velocity=0, time=2),
    Message('control_change', channel=12, control=64, value=0, time=42),
    Message('note_on', channel=7, note=79, velocity=126, time=1),
    Message('note_on', channel=8, note=77, velocity=120, time=0),
    Message('note_on', channel=8, note=79, velocity=126, time=0),
    Message('note_on', channel=2, note=36, velocity=126, time=0),
    Message('note_on', channel=3, note=36, velocity=126, time=0),
    Message('note_on', channel=10, note=77, velocity=120, time=0),
    Message('note_on', channel=10, note=79, velocity=126, time=0),
    Message('note_on', channel=12, note=48, velocity=105, time=0),
    Message('note_on', channel=9, note=51, velocity=119, time=0),
    Message('note_on', channel=7, note=77, velocity=120, time=0),
    Message('note_on', channel=9, note=51, velocity=0, time=1),
    Message('note_on', channel=7, note=77, velocity=0, time=13),
    Message('note_on', channel=10, note=77, velocity=0, time=0),
    Message('note_on', channel=8, note=77, velocity=0, time=0),
    Message('note_on', channel=12, note=55, velocity=105, time=226),
    Message('pitchwheel', channel=5, pitch=-129, time=28),
    Message('pitchwheel', channel=5, pitch=-225, time=5),
    Message('pitchwheel', channel=5, pitch=-386, time=3),
    Message('pitchwheel', channel=5, pitch=-515, time=4),
    Message('pitchwheel', channel=5, pitch=-707, time=3),
    Message('pitchwheel', channel=5, pitch=-836, time=5),
    Message('pitchwheel', channel=5, pitch=-1061, time=3),
    Message('pitchwheel', channel=5, pitch=-1318, time=3),
    Message('pitchwheel', channel=5, pitch=-1414, time=5),
    Message('pitchwheel', channel=5, pitch=-1543, time=4),
    Message('pitchwheel', channel=5, pitch=-1767, time=3),
    Message('pitchwheel', channel=5, pitch=-1928, time=5),
    Message('pitchwheel', channel=5, pitch=-2121, time=3),
    Message('pitchwheel', channel=5, pitch=-2314, time=3),
    Message('pitchwheel', channel=5, pitch=-2474, time=4),
    Message('pitchwheel', channel=5, pitch=-2699, time=3),
    Message('pitchwheel', channel=5, pitch=-2828, time=5),
    Message('pitchwheel', channel=5, pitch=-3117, time=3),
    Message('pitchwheel', channel=5, pitch=-3309, time=4),
    Message('pitchwheel', channel=5, pitch=-3438, time=3),
    Message('pitchwheel', channel=5, pitch=-3599, time=5),
    Message('pitchwheel', channel=5, pitch=-3791, time=3),
    Message('pitchwheel', channel=5, pitch=-3984, time=4),
    Message('pitchwheel', channel=5, pitch=-4209, time=3),
    Message('pitchwheel', channel=5, pitch=-4402, time=3),
    Message('pitchwheel', channel=5, pitch=-4594, time=5),
    Message('pitchwheel', channel=5, pitch=-4787, time=3),
    Message('pitchwheel', channel=5, pitch=-5044, time=5),
    Message('pitchwheel', channel=5, pitch=-5205, time=3),
    Message('pitchwheel', channel=5, pitch=-5398, time=4),
    Message('pitchwheel', channel=5, pitch=-5912, time=3),
    Message('pitchwheel', channel=5, pitch=-6426, time=5),
    Message('pitchwheel', channel=5, pitch=-6940, time=3),
    Message('pitchwheel', channel=5, pitch=-7389, time=4),
    Message('pitchwheel', channel=5, pitch=-7968, time=3),
    Message('pitchwheel', channel=5, pitch=-8192, time=5),
    Message('note_on', channel=12, note=60, velocity=108, time=80),
    Message('note_on', channel=12, note=67, velocity=109, time=0),
    Message('note_on', channel=12, note=64, velocity=110, time=0),
    Message('note_on', channel=5, note=64, velocity=125, time=0),
    Message('control_change', channel=12, control=64, value=127, time=1),
    Message('note_off', channel=12, note=67, velocity=0, time=39),
    Message('note_off', channel=12, note=64, velocity=0, time=3),
    Message('note_off', channel=12, note=60, velocity=0, time=2),
    Message('pitchwheel', channel=5, pitch=-7903, time=53),
    Message('pitchwheel', channel=5, pitch=-7325, time=3),
    Message('pitchwheel', channel=5, pitch=-6811, time=5),
    Message('pitchwheel', channel=5, pitch=-6297, time=3),
    Message('pitchwheel', channel=5, pitch=-5590, time=4),
    Message('pitchwheel', channel=5, pitch=-5237, time=3),
    Message('note_on', channel=12, note=67, velocity=102, time=4),
    Message('note_on', channel=12, note=60, velocity=103, time=0),
    Message('note_on', channel=12, note=64, velocity=105, time=0),
    Message('pitchwheel', channel=5, pitch=-5012, time=1),
    Message('pitchwheel', channel=5, pitch=-4691, time=4),
    Message('pitchwheel', channel=5, pitch=-3920, time=6),
    Message('pitchwheel', channel=5, pitch=-4305, time=0),
    Message('pitchwheel', channel=5, pitch=-3566, time=5),
    Message('pitchwheel', channel=5, pitch=-3277, time=3),
    Message('pitchwheel', channel=5, pitch=-2795, time=3),
    Message('pitchwheel', channel=5, pitch=-2442, time=4),
    Message('pitchwheel', channel=5, pitch=-2057, time=3),
    Message('note_off', channel=12, note=67, velocity=0, time=0),
    Message('pitchwheel', channel=5, pitch=-1575, time=5),
    Message('note_off', channel=12, note=60, velocity=0, time=0),
    Message('pitchwheel', channel=5, pitch=-1318, time=4),
    Message('pitchwheel', channel=5, pitch=-739, time=2),
    Message('note_off', channel=12, note=64, velocity=0, time=0),
    Message('pitchwheel', channel=5, pitch=-354, time=4),
    Message('pitchwheel', channel=5, pitch=0, time=5),
    Message('note_off', channel=12, note=55, velocity=0, time=7),
    Message('note_off', channel=12, note=48, velocity=0, time=17),
    Message('note_on', channel=5, note=67, velocity=121, time=47),
    Message('note_on', channel=12, note=64, velocity=103, time=0),
    Message('note_on', channel=12, note=67, velocity=103, time=0),
    Message('note_on', channel=12, note=60, velocity=102, time=0),
    Message('note_on', channel=12, note=60, velocity=0, time=37),
    Message('note_on', channel=12, note=67, velocity=0, time=6),
    Message('note_on', channel=5, note=64, velocity=0, time=3),
    Message('note_on', channel=12, note=64, velocity=0, time=0),
    Message('note_on', channel=5, note=67, velocity=0, time=31),
    Message('note_on', channel=12, note=64, velocity=102, time=43),
    Message('note_on', channel=12, note=60, velocity=101, time=0),
    Message('note_on', channel=5, note=64, velocity=125, time=0),
    Message('note_on', channel=12, note=67, velocity=102, time=0),
    Message('pitchwheel', channel=5, pitch=-129, time=96),
    Message('pitchwheel', channel=5, pitch=-258, time=3),
    Message('pitchwheel', channel=5, pitch=-450, time=5),
    Message('pitchwheel', channel=5, pitch=-675, time=3),
    Message('pitchwheel', channel=5, pitch=-868, time=4),
    Message('pitchwheel', channel=5, pitch=-1253, time=3),
    Message('pitchwheel', channel=5, pitch=-1446, time=3),
    Message('pitchwheel', channel=5, pitch=-1703, time=3),
    Message('note_on', channel=12, note=48, velocity=106, time=0),
    Message('pitchwheel', channel=5, pitch=-1992, time=5),
    Message('pitchwheel', channel=5, pitch=-2281, time=4),
    Message('pitchwheel', channel=5, pitch=-2571, time=3),
    Message('pitchwheel', channel=5, pitch=-2860, time=5),
    Message('pitchwheel', channel=5, pitch=-3245, time=3),
    Message('pitchwheel', channel=5, pitch=-3534, time=4),
    Message('pitchwheel', channel=5, pitch=-3791, time=3),
    Message('pitchwheel', channel=5, pitch=-4145, time=5),
    Message('pitchwheel', channel=5, pitch=-4434, time=3),
    Message('pitchwheel', channel=5, pitch=-4723, time=4),
    Message('pitchwheel', channel=5, pitch=-5044, time=3),
    Message('pitchwheel', channel=5, pitch=-5269, time=5),
    Message('pitchwheel', channel=5, pitch=-5783, time=3),
    Message('pitchwheel', channel=5, pitch=-6490, time=3),
    Message('pitchwheel', channel=5, pitch=-7197, time=5),
    Message('pitchwheel', channel=5, pitch=-7903, time=3),
    Message('note_off', channel=12, note=60, velocity=0, time=1),
    Message('pitchwheel', channel=5, pitch=-8192, time=3),
    Message('note_off', channel=12, note=64, velocity=0, time=2),
    Message('note_off', channel=12, note=67, velocity=0, time=12),
    Message('note_off', channel=5, note=64, velocity=0, time=129),
    Message('control_change', channel=12, control=64, value=0, time=26),
    Message('note_on', channel=12, note=55, velocity=103, time=6),
    Message('control_change', channel=12, control=64, value=127, time=37),
    Message('pitchwheel', channel=5, pitch=-7261, time=30),
    Message('pitchwheel', channel=5, pitch=-5847, time=4),
    Message('pitchwheel', channel=5, pitch=-5044, time=3),
    Message('pitchwheel', channel=5, pitch=-4273, time=3),
    Message('pitchwheel', channel=5, pitch=-3470, time=5),
    Message('pitchwheel', channel=5, pitch=-2667, time=4),
    Message('pitchwheel', channel=5, pitch=-1896, time=3),
    Message('pitchwheel', channel=5, pitch=-1157, time=4),
    Message('pitchwheel', channel=5, pitch=-322, time=4),
    Message('pitchwheel', channel=5, pitch=0, time=3),
    Message('note_off', channel=12, note=48, velocity=0, time=6),
    Message('note_on', channel=5, note=57, velocity=116, time=14),
    Message('note_on', channel=5, note=57, velocity=0, time=74),
    Message('pitchwheel', channel=5, pitch=-418, time=18),
    Message('pitchwheel', channel=5, pitch=-1896, time=4),
    Message('pitchwheel', channel=5, pitch=-3342, time=3),
    Message('pitchwheel', channel=5, pitch=-4851, time=6),
    Message('pitchwheel', channel=5, pitch=-7004, time=2),
    Message('pitchwheel', channel=5, pitch=-8192, time=4),
    Message('note_on', channel=12, note=64, velocity=105, time=9),
    Message('note_on', channel=12, note=67, velocity=102, time=0),
    Message('note_on', channel=5, note=52, velocity=121, time=0),
    Message('note_on', channel=12, note=60, velocity=103, time=0),
    Message('note_on', channel=12, note=55, velocity=0, time=4),
    Message('note_on', channel=12, note=67, velocity=0, time=30),
    Message('note_on', channel=12, note=64, velocity=0, time=18),
    Message('note_on', channel=12, note=60, velocity=0, time=2),
    Message('pitchwheel', channel=5, pitch=-8160, time=63),
    Message('note_on', channel=12, note=67, velocity=102, time=3),
    Message('note_on', channel=12, note=60, velocity=102, time=0),
    Message('pitchwheel', channel=5, pitch=-6940, time=0),
    Message('note_on', channel=12, note=64, velocity=103, time=0),
    Message('pitchwheel', channel=5, pitch=-5719, time=7),
    Message('pitchwheel', channel=5, pitch=-5044, time=3),
    Message('pitchwheel', channel=5, pitch=-4370, time=2),
    Message('pitchwheel', channel=5, pitch=-3663, time=4),
    Message('pitchwheel', channel=5, pitch=-2956, time=4),
    Message('pitchwheel', channel=5, pitch=-2281, time=4),
    Message('pitchwheel', channel=5, pitch=-1510, time=3),
    Message('pitchwheel', channel=5, pitch=-772, time=5),
    Message('pitchwheel', channel=5, pitch=-193, time=3),
    Message('pitchwheel', channel=5, pitch=0, time=4),
    Message('note_off', channel=12, note=67, velocity=0, time=0),
    Message('note_off', channel=12, note=64, velocity=0, time=7),
    Message('note_off', channel=12, note=60, velocity=0, time=0),
    Message('note_on', channel=12, note=60, velocity=103, time=74),
    Message('note_on', channel=12, note=64, velocity=104, time=0),
    Message('note_on', channel=5, note=55, velocity=121, time=0),
    Message('note_on', channel=12, note=67, velocity=102, time=0),
    Message('note_on', channel=5, note=52, velocity=0, time=17),
    Message('note_on', channel=12, note=67, velocity=0, time=31),
    Message('note_on', channel=12, note=60, velocity=0, time=3),
    Message('note_on', channel=12, note=64, velocity=0, time=1),
    Message('pitchwheel', channel=5, pitch=385, time=20),
    Message('pitchwheel', channel=5, pitch=835, time=3),
    Message('pitchwheel', channel=5, pitch=1285, time=3),
    Message('pitchwheel', channel=5, pitch=1799, time=4),
    Message('pitchwheel', channel=5, pitch=2280, time=3),
    Message('pitchwheel', channel=5, pitch=2762, time=5),
    Message('pitchwheel', channel=5, pitch=3373, time=3),
    Message('pitchwheel', channel=5, pitch=3887, time=4),
    Message('pitchwheel', channel=5, pitch=4433, time=3),
    Message('pitchwheel', channel=5, pitch=4947, time=5),
    Message('pitchwheel', channel=5, pitch=5429, time=3),
    Message('pitchwheel', channel=5, pitch=6232, time=4),
    Message('pitchwheel', channel=5, pitch=7131, time=4),
    Message('pitchwheel', channel=5, pitch=8031, time=4),
    Message('note_on', channel=12, note=64, velocity=104, time=0),
    Message('note_on', channel=12, note=67, velocity=103, time=0),
    Message('note_on', channel=12, note=60, velocity=102, time=0),
    Message('pitchwheel', channel=5, pitch=8191, time=5),
    Message('note_off', channel=8, note=79, velocity=0, time=37),
    Message('note_off', channel=7, note=79, velocity=0, time=0),
    Message('note_off', channel=10, note=79, velocity=0, time=0),
    Message('note_off', channel=3, note=36, velocity=0, time=16),
    Message('note_off', channel=2, note=36, velocity=0, time=0),
    Message('note_off', channel=12, note=67, velocity=0, time=2),
    Message('note_off', channel=12, note=60, velocity=0, time=4),
    Message('note_off', channel=12, note=64, velocity=0, time=4),
    Message('pitchwheel', channel=5, pitch=5846, time=29),
    Message('pitchwheel', channel=5, pitch=3726, time=3),
    Message('pitchwheel', channel=5, pitch=1285, time=4),
    Message('pitchwheel', channel=5, pitch=0, time=3),
    Message('control_change', channel=12, control=64, value=0, time=12),
    Message('control_change', channel=12, control=64, value=0, time=1),
    Message('note_on', channel=9, note=36, velocity=123, time=0),
    Message('note_on', channel=0, note=60, velocity=119, time=0),
    Message('note_on', channel=9, note=42, velocity=98, time=0),
    Message('note_on', channel=12, note=48, velocity=107, time=0),
    Message('note_on', channel=2, note=48, velocity=121, time=0),
    Message('note_on', channel=6, note=64, velocity=127, time=0),
    Message('note_on', channel=3, note=48, velocity=121, time=0),
    Message('note_on', channel=9, note=42, velocity=0, time=1),
    Message('note_on', channel=9, note=36, velocity=0, time=0),
    Message('control_change', channel=0, control=64, value=127, time=11),
    Message('control_change', channel=1, control=64, value=0, time=0),
    Message('control_change', channel=12, control=64, value=127, time=6),
    Message('note_on', channel=0, note=67, velocity=116, time=222),
    Message('note_on', channel=12, note=55, velocity=104, time=0),
    Message('note_on', channel=9, note=42, velocity=97, time=0),
    Message('note_on', channel=9, note=42, velocity=0, time=1),
    Message('note_on', channel=12, note=48, velocity=0, time=38),
    Message('note_on', channel=0, note=60, velocity=0, time=31),
    Message('note_on', channel=0, note=67, velocity=0, time=36),
    Message('note_on', channel=0, note=72, velocity=117, time=14),
    Message('note_on', channel=12, note=55, velocity=0, time=89),
    Message('note_on', channel=9, note=37, velocity=124, time=31),
    Message('note_on', channel=12, note=64, velocity=107, time=0),
    Message('note_on', channel=9, note=42, velocity=98, time=0),
    Message('note_on', channel=12, note=60, velocity=106, time=0),
    Message('note_on', channel=12, note=67, velocity=105, time=0),
    Message('note_on', channel=9, note=42, velocity=0, time=1),
    Message('note_on', channel=9, note=37, velocity=0, time=0),
    Message('note_on', channel=5, note=55, velocity=0, time=11),
    Message('note_on', channel=12, note=67, velocity=0, time=32),
    Message('note_on', channel=12, note=64, velocity=0, time=3),
    Message('note_on', channel=12, note=60, velocity=0, time=15),
    Message('note_on', channel=0, note=72, velocity=0, time=18),
    Message('note_on', channel=0, note=79, velocity=116, time=40),
    Message('note_on', channel=12, note=64, velocity=102, time=0),
    Message('note_on', channel=12, note=60, velocity=101, time=0),
    Message('note_on', channel=12, note=67, velocity=102, time=0),
    Message('note_on', channel=12, note=67, velocity=0, time=36),
    Message('note_on', channel=12, note=64, velocity=0, time=9),
    Message('note_on', channel=12, note=60, velocity=0, time=9),
    Message('note_on', channel=0, note=79, velocity=0, time=4),
    Message('note_on', channel=9, note=42, velocity=98, time=62),
    Message('note_on', channel=12, note=60, velocity=100, time=0),
    Message('note_on', channel=12, note=64, velocity=102, time=0),
    Message('note_on', channel=12, note=67, velocity=101, time=0),
    Message('note_on', channel=0, note=72, velocity=119, time=0),
    Message('note_on', channel=9, note=42, velocity=0, time=1),
    Message('note_on', channel=0, note=72, velocity=0, time=33),
    Message('note_on', channel=12, note=67, velocity=0, time=12),
    Message('note_on', channel=12, note=64, velocity=0, time=3),
    Message('note_on', channel=12, note=60, velocity=0, time=6),
    Message('note_on', channel=12, note=67, velocity=101, time=65),
    Message('note_on', channel=12, note=60, velocity=102, time=0),
    Message('note_on', channel=12, note=64, velocity=101, time=0),
    Message('note_on', channel=6, note=64, velocity=0, time=41),
    Message('note_on', channel=12, note=67, velocity=0, time=47),
    Message('control_change', channel=0, control=64, value=0, time=10),
    Message('note_off', channel=3, note=48, velocity=0, time=2),
    Message('note_off', channel=2, note=48, velocity=0, time=0),
    Message('note_off', channel=12, note=64, velocity=0, time=0),
    Message('note_off', channel=12, note=60, velocity=0, time=13),
    Message('note_on', channel=2, note=43, velocity=118, time=7),
    Message('note_on', channel=9, note=42, velocity=99, time=0),
    Message('note_on', channel=0, note=55, velocity=115, time=0),
    Message('note_on', channel=9, note=36, velocity=124, time=0),
    Message('note_on', channel=12, note=43, velocity=105, time=0),
    Message('note_on', channel=3, note=43, velocity=118, time=0),
    Message('note_on', channel=6, note=62, velocity=127, time=0),
    Message('note_on', channel=9, note=36, velocity=0, time=1),
    Message('note_on', channel=9, note=42, velocity=0, time=0),
    Message('control_change', channel=12, control=64, value=0, time=72),
    Message('control_change', channel=0, control=64, value=127, time=16),
    Message('note_on', channel=0, note=62, velocity=115, time=31),
    Message('note_on', channel=0, note=55, velocity=0, time=57),
    Message('note_on', channel=0, note=62, velocity=0, time=34),
    Message('note_on', channel=9, note=42, velocity=98, time=29),
    Message('note_on', channel=12, note=50, velocity=100, time=0),
    Message('note_on', channel=0, note=67, velocity=119, time=0),
    Message('note_on', channel=9, note=42, velocity=0, time=1),
    Message('control_change', channel=12, control=64, value=127, time=5),
    Message('note_off', channel=12, note=43, velocity=0, time=65),
    Message('note_off', channel=0, note=67, velocity=0, time=57),
    Message('note_on', channel=0, note=69, velocity=119, time=112),
    Message('note_on', channel=9, note=37, velocity=124, time=0),
    Message('note_on', channel=9, note=42, velocity=98, time=0),
    Message('note_on', channel=12, note=62, velocity=107, time=0),
    Message('note_on', channel=0, note=74, velocity=116, time=0),
    Message('note_on', channel=12, note=55, velocity=107, time=0),
    Message('note_on', channel=12, note=59, velocity=109, time=0),
    Message('note_on', channel=9, note=42, velocity=0, time=1),
    Message('note_on', channel=9, note=37, velocity=0, time=0),
    Message('note_on', channel=12, note=50, velocity=0, time=27),
    Message('note_on', channel=0, note=74, velocity=0, time=6),
    Message('note_on', channel=12, note=62, velocity=0, time=2),
    Message('note_on', channel=12, note=59, velocity=0, time=4),
    Message('note_on', channel=12, note=55, velocity=0, time=11),
    Message('note_on', channel=6, note=60, velocity=127, time=69),
    Message('note_on', channel=12, note=62, velocity=102, time=0),
    Message('note_on', channel=12, note=55, velocity=102, time=0),
    Message('note_on', channel=12, note=59, velocity=103, time=0),
    Message('note_on', channel=0, note=69, velocity=0, time=8),
    Message('note_on', channel=6, note=62, velocity=0, time=15),
    Message('note_on', channel=12, note=62, velocity=0, time=14),
    Message('note_on', channel=12, note=59, velocity=0, time=13),
    Message('note_on', channel=12, note=55, velocity=0, time=0),
    Message('note_on', channel=6, note=60, velocity=0, time=50),
    Message('note_on', channel=12, note=55, velocity=101, time=20),
    Message('note_on', channel=0, note=67, velocity=118, time=0),
    Message('note_on', channel=12, note=62, velocity=102, time=0),
    Message('note_on', channel=12, note=59, velocity=102, time=0),
    Message('note_on', channel=9, note=42, velocity=98, time=0),
    Message('note_on', channel=6, note=59, velocity=127, time=0),
    Message('note_on', channel=0, note=74, velocity=118, time=0),
    Message('note_on', channel=9, note=42, velocity=0, time=1),
    Message('note_on', channel=0, note=67, velocity=0, time=28),
    Message('note_on', channel=0, note=74, velocity=0, time=16),
    Message('note_on', channel=12, note=62, velocity=0, time=1),
    Message('note_on', channel=12, note=55, velocity=0, time=4),
    Message('note_on', channel=12, note=59, velocity=0, time=0),
    Message('note_on', channel=12, note=55, velocity=101, time=70),
    Message('note_on', channel=12, note=59, velocity=102, time=0),
    Message('note_on', channel=12, note=62, velocity=102, time=0),
    Message('control_change', channel=0, control=64, value=0, time=69),
    Message('control_change', channel=12, control=64, value=0, time=46),
    Message('note_on', channel=2, note=45, velocity=121, time=5),
    Message('note_on', channel=9, note=42, velocity=98, time=0),
    Message('note_on', channel=0, note=76, velocity=117, time=0),
    Message('note_on', channel=12, note=45, velocity=105, time=0),
    Message('note_on', channel=9, note=36, velocity=124, time=0),
    Message('note_on', channel=0, note=69, velocity=117, time=0),
    Message('note_on', channel=6, note=57, velocity=127, time=0),
    Message('note_on', channel=0, note=57, velocity=117, time=0),
    Message('note_on', channel=3, note=45, velocity=121, time=0),
    Message('note_on', channel=9, note=36, velocity=0, time=1),
    Message('note_on', channel=9, note=42, velocity=0, time=0),
    Message('note_on', channel=12, note=62, velocity=0, time=11),
    Message('note_on', channel=12, note=55, velocity=0, time=0),
    Message('note_on', channel=12, note=59, velocity=0, time=3),
    Message('note_on', channel=6, note=59, velocity=0, time=18),
    Message('note_on', channel=2, note=43, velocity=0, time=33),
    Message('note_on', channel=3, note=43, velocity=0, time=0),
    Message('control_change', channel=0, control=64, value=127, time=13),
    Message('control_change', channel=12, control=64, value=127, time=0),
    Message('note_on', channel=9, note=42, velocity=98, time=161),
    Message('note_on', channel=12, note=52, velocity=102, time=0),
    Message('note_on', channel=9, note=42, velocity=0, time=1),
    Message('note_on', channel=12, note=45, velocity=0, time=42),
    Message('note_on', channel=0, note=76, velocity=0, time=32),
    Message('note_on', channel=0, note=69, velocity=0, time=92),
    Message('note_on', channel=0, note=57, velocity=0, time=14),
    Message('note_on', channel=9, note=37, velocity=123, time=59),
    Message('note_on', channel=12, note=57, velocity=104, time=0),
    Message('note_on', channel=12, note=60, velocity=106, time=0),
    Message('note_on', channel=9, note=42, velocity=99, time=0),
    Message('note_on', channel=12, note=64, velocity=105, time=0),
    Message('note_on', channel=12, note=52, velocity=0, time=0),
    Message('note_on', channel=9, note=42, velocity=0, time=1),
    Message('note_on', channel=9, note=37, velocity=0, time=0),
    Message('note_on', channel=12, note=64, velocity=0, time=45),
    Message('note_on', channel=12, note=60, velocity=0, time=0),
    Message('note_on', channel=12, note=57, velocity=0, time=13),
    Message('note_on', channel=12, note=57, velocity=102, time=61),
    Message('note_on', channel=12, note=60, velocity=103, time=0),
    Message('note_on', channel=12, note=64, velocity=103, time=0),
    Message('note_on', channel=12, note=64, velocity=0, time=44),
    Message('note_on', channel=12, note=60, velocity=0, time=1),
    Message('note_on', channel=12, note=57, velocity=0, time=11),
    Message('note_on', channel=12, note=57, velocity=101, time=64),
    Message('note_on', channel=12, note=64, velocity=101, time=0),
    Message('note_on', channel=9, note=42, velocity=98, time=0),
    Message('note_on', channel=12, note=60, velocity=102, time=0),
    Message('note_on', channel=9, note=42, velocity=0, time=1),
    Message('note_on', channel=12, note=64, velocity=0, time=40),
    Message('note_on', channel=12, note=60, velocity=0, time=2),
    Message('note_on', channel=12, note=57, velocity=0, time=9),
    Message('note_on', channel=12, note=57, velocity=100, time=68),
    Message('note_on', channel=0, note=53, velocity=120, time=0),
    Message('note_on', channel=12, note=60, velocity=102, time=0),
    Message('note_on', channel=12, note=64, velocity=101, time=0),
    Message('control_change', channel=0, control=64, value=0, time=35),
    Message('note_off', channel=12, note=64, velocity=0, time=45),
    Message('note_off', channel=12, note=60, velocity=0, time=10),
    Message('note_off', channel=6, note=57, velocity=0, time=9),
    Message('note_off', channel=12, note=57, velocity=0, time=2),
    Message('note_off', channel=2, note=45, velocity=0, time=4),
    Message('note_off', channel=3, note=45, velocity=0, time=0),
    Message('note_on', channel=12, note=41, velocity=106, time=15),
    Message('note_on', channel=3, note=41, velocity=120, time=0),
    Message('note_on', channel=9, note=36, velocity=125, time=0),
    Message('note_on', channel=9, note=42, velocity=99, time=0),
    Message('note_on', channel=2, note=41, velocity=120, time=0),
    Message('note_on', channel=9, note=42, velocity=0, time=1),
    Message('note_on', channel=9, note=36, velocity=0, time=0),
    Message('control_change', channel=12, control=64, value=0, time=10),
    Message('control_change', channel=0, control=64, value=127, time=6),
    Message('note_on', channel=0, note=60, velocity=120, time=103),
    Message('note_on', channel=0, note=53, velocity=0, time=10),
    Message('note_on', channel=0, note=60, velocity=0, time=68),
    Message('control_change', channel=12, control=64, value=127, time=41),
    Message('note_on', channel=12, note=48, velocity=104, time=1),
    Message('note_on', channel=0, note=65, velocity=119, time=0),
    Message('note_on', channel=9, note=42, velocity=98, time=0),
    Message('note_on', channel=6, note=71, velocity=127, time=0),
    Message('note_on', channel=9, note=42, velocity=0, time=1),
    Message('pitchwheel', channel=6, pitch=321, time=107),
    Message('pitchwheel', channel=6, pitch=931, time=4),
    Message('pitchwheel', channel=6, pitch=1445, time=5),
    Message('note_on', channel=0, note=69, velocity=117, time=3),
    Message('pitchwheel', channel=6, pitch=1991, time=1),
    Message('pitchwheel', channel=6, pitch=2441, time=3),
    Message('pitchwheel', channel=6, pitch=2730, time=5),
    Message('pitchwheel', channel=6, pitch=2987, time=4),
    Message('pitchwheel', channel=6, pitch=3084, time=5),
    Message('pitchwheel', channel=6, pitch=3148, time=4),
    Message('pitchwheel', channel=6, pitch=3180, time=5),
    Message('pitchwheel', channel=6, pitch=3212, time=4),
    Message('pitchwheel', channel=6, pitch=3244, time=9),
    Message('note_off', channel=12, note=41, velocity=0, time=2),
    Message('pitchwheel', channel=6, pitch=3308, time=3),
    Message('pitchwheel', channel=6, pitch=3405, time=4),
    Message('note_off', channel=0, note=69, velocity=0, time=4),
    Message('pitchwheel', channel=6, pitch=3598, time=1),
    Message('pitchwheel', channel=6, pitch=3919, time=4),
    Message('pitchwheel', channel=6, pitch=4336, time=3),
    Message('note_off', channel=6, note=71, velocity=0, time=3),
    Message('pitchwheel', channel=6, pitch=4626, time=3),
    Message('pitchwheel', channel=6, pitch=4818, time=3),
    Message('pitchwheel', channel=6, pitch=4979, time=5),
    Message('pitchwheel', channel=6, pitch=5107, time=4),
    Message('note_off', channel=0, note=65, velocity=0, time=3),
    Message('pitchwheel', channel=6, pitch=5140, time=1),
    Message('pitchwheel', channel=6, pitch=5107, time=14),
    Message('pitchwheel', channel=6, pitch=4979, time=5),
    Message('note_off', channel=12, note=48, velocity=0, time=0),
    Message('pitchwheel', channel=6, pitch=4626, time=4),
    Message('pitchwheel', channel=6, pitch=4015, time=5),
    Message('pitchwheel', channel=6, pitch=3437, time=4),
    Message('note_on', channel=12, note=60, velocity=104, time=5),
    Message('note_on', channel=0, note=72, velocity=122, time=0),
    Message('pitchwheel', channel=6, pitch=2570, time=0),
    Message('note_on', channel=9, note=37, velocity=125, time=0),
    Message('note_on', channel=12, note=53, velocity=104, time=0),
    Message('note_on', channel=12, note=57, velocity=105, time=0),
    Message('note_on', channel=6, note=71, velocity=127, time=0),
    Message('note_on', channel=9, note=42, velocity=99, time=0),
    Message('note_on', channel=9, note=42, velocity=0, time=1),
    Message('note_on', channel=9, note=37, velocity=0, time=0),
    Message('pitchwheel', channel=6, pitch=1381, time=6),
    Message('pitchwheel', channel=6, pitch=0, time=7),
    Message('note_off', channel=0, note=72, velocity=0, time=17),
    Message('note_off', channel=12, note=60, velocity=0, time=7),
    Message('note_off', channel=12, note=57, velocity=0, time=9),
    Message('note_off', channel=12, note=53, velocity=0, time=21),
    Message('note_on', channel=12, note=60, velocity=103, time=52),
    Message('note_on', channel=12, note=57, velocity=103, time=0),
    Message('note_on', channel=12, note=53, velocity=102, time=0),
    Message('note_on', channel=12, note=53, velocity=0, time=35),
    Message('note_on', channel=12, note=60, velocity=0, time=0),
    Message('note_on', channel=12, note=57, velocity=0, time=0),
    Message('note_on', channel=12, note=57, velocity=102, time=85),
    Message('note_on', channel=9, note=42, velocity=99, time=0),
    Message('note_on', channel=12, note=60, velocity=102, time=0),
    Message('note_on', channel=6, note=67, velocity=127, time=0),
    Message('note_on', channel=12, note=53, velocity=101, time=0),
    Message('note_on', channel=9, note=42, velocity=0, time=1),
    Message('note_on', channel=6, note=71, velocity=0, time=27),
    Message('note_on', channel=12, note=60, velocity=0, time=17),
    Message('note_on', channel=12, note=53, velocity=0, time=4),
    Message('note_on', channel=12, note=57, velocity=0, time=0),
    Message('note_on', channel=12, note=60, velocity=103, time=71),
    Message('note_on', channel=12, note=57, velocity=103, time=0),
    Message('note_on', channel=6, note=65, velocity=127, time=0),
    Message('note_on', channel=12, note=53, velocity=102, time=0),
    Message('note_on', channel=6, note=67, velocity=0, time=4),
    Message('note_on', channel=12, note=60, velocity=0, time=42),
    Message('note_on', channel=12, note=53, velocity=0, time=1),
    Message('control_change', channel=0, control=64, value=0, time=1),
    Message('note_off', channel=12, note=57, velocity=0, time=0),
    Message('control_change', channel=12, control=64, value=0, time=71),
    Message('note_on', channel=6, note=64, velocity=127, time=1),
    Message('note_on', channel=0, note=60, velocity=119, time=0),
    Message('note_on', channel=2, note=48, velocity=119, time=0),
    Message('note_on', channel=12, note=48, velocity=107, time=0),
    Message('note_on', channel=9, note=42, velocity=98, time=0),
    Message('note_on', channel=3, note=48, velocity=119, time=0),
    Message('note_on', channel=9, note=36, velocity=123, time=0),
    Message('note_on', channel=9, note=36, velocity=0, time=1),
    Message('note_on', channel=9, note=42, velocity=0, time=0),
    Message('control_change', channel=0, control=64, value=127, time=18),
    Message('control_change', channel=12, control=64, value=127, time=0),
    Message('note_off', channel=3, note=41, velocity=0, time=9),
    Message('note_off', channel=2, note=41, velocity=0, time=0),
    Message('note_off', channel=6, note=65, velocity=0, time=2),
    Message('note_on', channel=0, note=67, velocity=116, time=90),
    Message('note_on', channel=0, note=60, velocity=0, time=61),
    Message('note_on', channel=0, note=67, velocity=0, time=23),
    Message('note_on', channel=0, note=72, velocity=119, time=36),
    Message('note_on', channel=12, note=55, velocity=103, time=0),
    Message('note_on', channel=9, note=42, velocity=97, time=0),
    Message('note_on', channel=9, note=42, velocity=0, time=1),
    Message('note_on', channel=12, note=48, velocity=0, time=10),
    Message('note_on', channel=0, note=72, velocity=0, time=127),
    Message('note_on', channel=12, note=55, velocity=0, time=69),
    Message('note_on', channel=0, note=79, velocity=119, time=33),
    Message('note_on', channel=12, note=67, velocity=105, time=0),
    Message('note_on', channel=9, note=42, velocity=98, time=0),
    Message('note_on', channel=12, note=60, velocity=105, time=0),
    Message('note_on', channel=9, note=37, velocity=124, time=0),
    Message('note_on', channel=12, note=64, velocity=107, time=0),
    Message('note_on', channel=9, note=37, velocity=0, time=1),
    Message('note_on', channel=9, note=42, velocity=0, time=0),
    Message('note_on', channel=0, note=79, velocity=0, time=81),
    Message('note_on', channel=12, note=67, velocity=0, time=19),
    Message('note_on', channel=12, note=64, velocity=0, time=17),
    Message('note_on', channel=12, note=60, velocity=0, time=17),
    Message('note_on', channel=12, note=60, velocity=101, time=105),
    Message('note_on', channel=9, note=42, velocity=98, time=0),
    Message('note_on', channel=12, note=64, velocity=101, time=0),
    Message('note_on', channel=12, note=67, velocity=101, time=0),
    Message('note_on', channel=0, note=72, velocity=121, time=0),
    Message('note_on', channel=9, note=42, velocity=0, time=1),
    Message('note_on', channel=12, note=67, velocity=0, time=21),
    Message('note_on', channel=12, note=64, velocity=0, time=11),
    Message('note_on', channel=0, note=72, velocity=0, time=4),
    Message('note_on', channel=12, note=60, velocity=0, time=2),
    Message('note_on', channel=12, note=60, velocity=102, time=81),
    Message('note_on', channel=12, note=67, velocity=101, time=0),
    Message('note_on', channel=12, note=64, velocity=102, time=0),
    Message('note_on', channel=0, note=84, velocity=121, time=0),
    Message('note_on', channel=12, note=67, velocity=0, time=22),
    Message('note_on', channel=0, note=84, velocity=0, time=10),
    Message('note_on', channel=12, note=64, velocity=0, time=4),
    Message('note_on', channel=12, note=60, velocity=0, time=6),
    Message('control_change', channel=12, control=64, value=0, time=66),
    Message('note_on', channel=9, note=42, velocity=99, time=12),
    Message('note_on', channel=12, note=67, velocity=105, time=0),
    Message('note_on', channel=12, note=48, velocity=104, time=0),
    Message('note_on', channel=9, note=36, velocity=124, time=0),
    Message('note_on', channel=12, note=60, velocity=105, time=0),
    Message('note_on', channel=12, note=64, velocity=107, time=0),
    Message('note_on', channel=9, note=36, velocity=0, time=1),
    Message('note_on', channel=9, note=42, velocity=0, time=0),
    Message('control_change', channel=12, control=64, value=127, time=45),
    Message('note_off', channel=12, note=67, velocity=0, time=65),
    Message('note_off', channel=12, note=64, velocity=0, time=15),
    Message('note_off', channel=12, note=60, velocity=0, time=7),
    Message('note_on', channel=9, note=42, velocity=98, time=107),
    Message('note_on', channel=12, note=55, velocity=102, time=0),
    Message('note_on', channel=0, note=60, velocity=116, time=0),
    Message('note_on', channel=9, note=42, velocity=0, time=1),
    Message('note_on', channel=12, note=48, velocity=0, time=7),
    Message('note_on', channel=12, note=67, velocity=100, time=112),
    Message('note_on', channel=0, note=67, velocity=118, time=0),
    Message('note_on', channel=12, note=60, velocity=103, time=0),
    Message('note_on', channel=12, note=64, velocity=99, time=0),
    Message('note_on', channel=12, note=55, velocity=0, time=13),
    Message('note_on', channel=12, note=64, velocity=0, time=6),
    Message('note_on', channel=12, note=67, velocity=0, time=3),
    Message('note_on', channel=0, note=60, velocity=0, time=18),
    Message('note_on', channel=12, note=60, velocity=0, time=1),
    Message('note_on', channel=0, note=67, velocity=0, time=28),
    Message('note_on', channel=12, note=67, velocity=106, time=51),
    Message('note_on', channel=9, note=42, velocity=98, time=0),
    Message('note_on', channel=12, note=64, velocity=108, time=0),
    Message('note_on', channel=9, note=37, velocity=124, time=0),
    Message('note_on', channel=12, note=60, velocity=106, time=0),
    Message('note_on', channel=0, note=74, velocity=122, time=0),
    Message('note_on', channel=9, note=37, velocity=0, time=1),
    Message('note_on', channel=9, note=42, velocity=0, time=0),
    Message('note_on', channel=12, note=67, velocity=0, time=81),
    Message('note_on', channel=12, note=64, velocity=0, time=1),
    Message('note_on', channel=12, note=60, velocity=0, time=3),
    Message('note_on', channel=0, note=74, velocity=0, time=11),
    Message('note_on', channel=0, note=79, velocity=118, time=23),
    Message('note_on', channel=0, note=79, velocity=0, time=75),
    Message('note_on', channel=6, note=64, velocity=0, time=18),
    Message('note_on', channel=12, note=67, velocity=104, time=27),
    Message('note_on', channel=12, note=62, velocity=105, time=0),
    Message('note_on', channel=12, note=64, velocity=105, time=0),
    Message('note_on', channel=0, note=72, velocity=122, time=0),
    Message('note_on', channel=6, note=62, velocity=127, time=0),
    Message('note_on', channel=9, note=42, velocity=98, time=0),
    Message('note_on', channel=9, note=42, velocity=0, time=1),
    Message('note_on', channel=12, note=64, velocity=0, time=26),
    Message('note_on', channel=12, note=67, velocity=0, time=14),
    Message('note_on', channel=0, note=72, velocity=0, time=2),
    Message('note_on', channel=12, note=62, velocity=0, time=4),
    Message('note_on', channel=6, note=62, velocity=0, time=64),
    Message('note_on', channel=6, note=60, velocity=127, time=9),
    Message('control_change', channel=0, control=64, value=0, time=79),
    Message('control_change', channel=12, control=64, value=0, time=39),
    Message('note_on', channel=6, note=59, velocity=127, time=2),
    Message('note_on', channel=0, note=55, velocity=119, time=0),
    Message('note_on', channel=12, note=55, velocity=106, time=0),
    Message('note_on', channel=12, note=43, velocity=105, time=0),
    Message('note_on', channel=9, note=42, velocity=98, time=0),
    Message('note_on', channel=9, note=36, velocity=124, time=0),
    Message('note_on', channel=2, note=31, velocity=126, time=0),
    Message('note_on', channel=3, note=31, velocity=126, time=0),
    Message('note_on', channel=12, note=59, velocity=108, time=0),
    Message('note_on', channel=12, note=62, velocity=106, time=0),
    Message('note_on', channel=9, note=36, velocity=0, time=1),
    Message('note_on', channel=9, note=42, velocity=0, time=0),
    Message('note_on', channel=6, note=60, velocity=0, time=7),
    Message('control_change', channel=0, control=64, value=127, time=11),
    Message('note_off', channel=3, note=48, velocity=0, time=0),
    Message('note_off', channel=2, note=48, velocity=0, time=0),
    Message('control_change', channel=12, control=64, value=127, time=60),
    Message('note_on', channel=0, note=62, velocity=119, time=41),
    Message('note_on', channel=0, note=55, velocity=0, time=37),
    Message('note_on', channel=12, note=62, velocity=0, time=37),
    Message('note_on', channel=12, note=59, velocity=0, time=1),
    Message('note_on', channel=12, note=55, velocity=0, time=0),
    Message('note_on', channel=0, note=62, velocity=0, time=29),
    Message('note_on', channel=12, note=43, velocity=0, time=1),
    Message('note_on', channel=12, note=50, velocity=103, time=15),
    Message('note_on', channel=9, note=42, velocity=98, time=0),
    Message('note_on', channel=0, note=67, velocity=119, time=0),
    Message('note_on', channel=9, note=42, velocity=0, time=1),
    Message('note_on', channel=12, note=50, velocity=0, time=106),
    Message('note_on', channel=12, note=55, velocity=99, time=13),
    Message('note_on', channel=0, note=71, velocity=116, time=0),
    Message('note_on', channel=12, note=55, velocity=0, time=19),
    Message('note_on', channel=0, note=67, velocity=0, time=54),
    Message('note_on', channel=0, note=71, velocity=0, time=32),
    Message('note_on', channel=12, note=59, velocity=103, time=15),
    Message('note_on', channel=9, note=42, velocity=99, time=0),
    Message('note_on', channel=9, note=37, velocity=123, time=0),
    Message('note_on', channel=0, note=74, velocity=120, time=0),
    Message('note_on', channel=12, note=55, velocity=103, time=0),
    Message('note_on', channel=12, note=62, velocity=103, time=0),
    Message('note_on', channel=9, note=37, velocity=0, time=1),
    Message('note_on', channel=9, note=42, velocity=0, time=0),
    Message('note_on', channel=12, note=62, velocity=0, time=43),
    Message('note_on', channel=12, note=55, velocity=0, time=12),
    Message('note_on', channel=12, note=59, velocity=0, time=0),
    Message('note_on', channel=12, note=55, velocity=99, time=64),
    Message('note_on', channel=12, note=59, velocity=101, time=0),
    Message('note_on', channel=12, note=55, velocity=0, time=22),
    Message('note_on', channel=12, note=59, velocity=0, time=5),
    Message('note_on', channel=0, note=74, velocity=0, time=7),
    Message('note_on', channel=0, note=71, velocity=119, time=86),
    Message('note_on', channel=9, note=42, velocity=98, time=0),
    Message('note_on', channel=12, note=62, velocity=97, time=0),
    Message('note_on', channel=0, note=74, velocity=112, time=0),
    Message('note_on', channel=12, note=55, velocity=98, time=0),
    Message('note_on', channel=9, note=42, velocity=0, time=1),
    Message('note_on', channel=12, note=62, velocity=0, time=16),
    Message('note_on', channel=0, note=74, velocity=0, time=21),
    Message('note_on', channel=12, note=55, velocity=0, time=10),
    Message('note_on', channel=0, note=67, velocity=119, time=72),
    Message('note_on', channel=12, note=62, velocity=102, time=0),
    Message('note_on', channel=12, note=60, velocity=103, time=0),
    Message('note_on', channel=12, note=55, velocity=100, time=0),
    Message('note_on', channel=0, note=71, velocity=0, time=1),
    Message('note_on', channel=6, note=59, velocity=0, time=12),
    Message('pitchwheel', channel=6, pitch=-193, time=25),
    Message('pitchwheel', channel=6, pitch=-611, time=3),
    Message('note_off', channel=12, note=60, velocity=0, time=0),
    Message('pitchwheel', channel=6, pitch=-1093, time=6),
    Message('pitchwheel', channel=6, pitch=-1446, time=3),
    Message('note_off', channel=12, note=62, velocity=0, time=3),
    Message('pitchwheel', channel=6, pitch=-1992, time=1),
    Message('pitchwheel', channel=6, pitch=-2442, time=5),
    Message('note_off', channel=0, note=67, velocity=0, time=0),
    Message('note_off', channel=12, note=55, velocity=0, time=5),
    Message('pitchwheel', channel=6, pitch=-2860, time=1),
    Message('pitchwheel', channel=6, pitch=-3374, time=3),
    Message('pitchwheel', channel=6, pitch=-3759, time=4),
    Message('pitchwheel', channel=6, pitch=-4241, time=5),
    Message('pitchwheel', channel=6, pitch=-4659, time=5),
    Message('pitchwheel', channel=6, pitch=-5012, time=4),
    Message('pitchwheel', channel=6, pitch=-5398, time=4),
    Message('pitchwheel', channel=6, pitch=-6297, time=5),
    Message('pitchwheel', channel=6, pitch=-6875, time=3),
    Message('pitchwheel', channel=6, pitch=-7518, time=6),
    Message('pitchwheel', channel=6, pitch=-8160, time=7),
    Message('pitchwheel', channel=6, pitch=-8192, time=2),
    Message('control_change', channel=12, control=64, value=0, time=1),
    Message('note_on', channel=9, note=42, velocity=99, time=6),
    Message('note_on', channel=0, note=79, velocity=121, time=0),
    Message('note_on', channel=12, note=43, velocity=103, time=0),
    Message('note_on', channel=12, note=59, velocity=107, time=0),
    Message('note_on', channel=12, note=62, velocity=104, time=0),
    Message('note_on', channel=9, note=36, velocity=125, time=0),
    Message('note_on', channel=6, note=67, velocity=127, time=0),
    Message('note_on', channel=12, note=55, velocity=103, time=0),
    Message('note_on', channel=9, note=36, velocity=0, time=1),
    Message('note_on', channel=9, note=42, velocity=0, time=0),
    Message('note_on', channel=0, note=79, velocity=0, time=40),
    Message('control_change', channel=12, control=64, value=127, time=13),
    Message('pitchwheel', channel=6, pitch=-8032, time=71),
    Message('pitchwheel', channel=6, pitch=-7775, time=3),
    Message('pitchwheel', channel=6, pitch=-7518, time=4),
    Message('pitchwheel', channel=6, pitch=-7197, time=5),
    Message('pitchwheel', channel=6, pitch=-6940, time=6),
    Message('pitchwheel', channel=6, pitch=-6683, time=3),
    Message('pitchwheel', channel=6, pitch=-6426, time=4),
    Message('pitchwheel', channel=6, pitch=-6233, time=5),
    Message('pitchwheel', channel=6, pitch=-5847, time=4),
    Message('pitchwheel', channel=6, pitch=-5655, time=5),
    Message('pitchwheel', channel=6, pitch=-5430, time=4),
    Message('pitchwheel', channel=6, pitch=-5269, time=5),
    Message('pitchwheel', channel=6, pitch=-5205, time=4),
    Message('pitchwheel', channel=6, pitch=-5108, time=5),
    Message('pitchwheel', channel=6, pitch=-5044, time=4),
    Message('pitchwheel', channel=6, pitch=-4948, time=5),
    Message('pitchwheel', channel=6, pitch=-4787, time=3),
    Message('pitchwheel', channel=6, pitch=-4691, time=6),
    Message('pitchwheel', channel=6, pitch=-4562, time=3),
    Message('pitchwheel', channel=6, pitch=-4434, time=6),
    Message('pitchwheel', channel=6, pitch=-4305, time=3),
    Message('pitchwheel', channel=6, pitch=-4177, time=6),
    Message('pitchwheel', channel=6, pitch=-4016, time=3),
    Message('pitchwheel', channel=6, pitch=-3856, time=6),
    Message('pitchwheel', channel=6, pitch=-3759, time=3),
    Message('pitchwheel', channel=6, pitch=-3599, time=4),
    Message('pitchwheel', channel=6, pitch=-3438, time=5),
    Message('note_on', channel=9, note=42, velocity=98, time=1),
    Message('note_on', channel=0, note=91, velocity=122, time=0),
    Message('note_on', channel=9, note=42, velocity=0, time=1),
    Message('pitchwheel', channel=6, pitch=-3374, time=3),
    Message('pitchwheel', channel=6, pitch=-3245, time=4),
    Message('pitchwheel', channel=6, pitch=-2988, time=4),
    Message('pitchwheel', channel=6, pitch=-2828, time=5),
    Message('pitchwheel', channel=6, pitch=-2731, time=4),
    Message('pitchwheel', channel=6, pitch=-2538, time=5),
    Message('pitchwheel', channel=6, pitch=-2410, time=3),
    Message('pitchwheel', channel=6, pitch=-2217, time=6),
    Message('note_off', channel=0, note=91, velocity=0, time=1),
    Message('pitchwheel', channel=6, pitch=-2057, time=2),
    Message('pitchwheel', channel=6, pitch=-1832, time=4),
    Message('pitchwheel', channel=6, pitch=-1639, time=5),
    Message('pitchwheel', channel=6, pitch=-1446, time=6),
    Message('pitchwheel', channel=6, pitch=-1318, time=3),
    Message('pitchwheel', channel=6, pitch=-996, time=4),
    Message('pitchwheel', channel=6, pitch=-739, time=5),
    Message('pitchwheel', channel=6, pitch=-515, time=4),
    Message('pitchwheel', channel=6, pitch=-322, time=5),
    Message('pitchwheel', channel=6, pitch=-161, time=4),
    Message('pitchwheel', channel=6, pitch=0, time=5),
    Message('note_on', channel=9, note=37, velocity=125, time=157),
    Message('note_on', channel=9, note=42, velocity=99, time=0),
    Message('note_on', channel=12, note=50, velocity=103, time=0),
    Message('note_on', channel=9, note=42, velocity=0, time=1),
    Message('note_on', channel=9, note=37, velocity=0, time=0),
    Message('note_on', channel=12, note=43, velocity=0, time=9),
    Message('note_on', channel=12, note=55, velocity=0, time=17),
    Message('note_on', channel=12, note=59, velocity=0, time=3),
    Message('note_on', channel=2, note=31, velocity=0, time=4),
    Message('note_on', channel=3, note=31, velocity=0, time=0),
    Message('note_on', channel=12, note=62, velocity=0, time=8),
    Message('note_on', channel=12, note=50, velocity=0, time=28),
    Message('note_on', channel=12, note=55, velocity=105, time=50),
    Message('note_on', channel=12, note=62, velocity=102, time=0),
    Message('note_on', channel=3, note=31, velocity=121, time=0),
    Message('note_on', channel=2, note=31, velocity=121, time=0),
    Message('note_on', channel=12, note=62, velocity=0, time=21),
    Message('note_on', channel=12, note=55, velocity=0, time=48),
    Message('note_on', channel=2, note=31, velocity=0, time=28),
    Message('note_on', channel=3, note=31, velocity=0, time=0),
    Message('note_on', channel=12, note=59, velocity=106, time=23),
    Message('note_on', channel=3, note=35, velocity=123, time=0),
    Message('note_on', channel=6, note=62, velocity=127, time=0),
    Message('note_on', channel=12, note=55, velocity=99, time=0),
    Message('note_on', channel=12, note=62, velocity=102, time=0),
    Message('note_on', channel=9, note=42, velocity=99, time=0),
    Message('note_on', channel=2, note=35, velocity=123, time=0),
    Message('note_on', channel=9, note=42, velocity=0, time=1),
    Message('note_on', channel=6, note=67, velocity=0, time=10),
    Message('note_on', channel=12, note=62, velocity=0, time=16),
    Message('note_on', channel=12, note=55, velocity=0, time=24),
    Message('control_change', channel=0, control=64, value=0, time=7),
    Message('note_off', channel=12, note=59, velocity=0, time=20),
    Message('note_off', channel=2, note=35, velocity=0, time=24),
    Message('note_off', channel=3, note=35, velocity=0, time=0),
    Message('note_on', channel=3, note=31, velocity=122, time=18),
    Message('note_on', channel=6, note=59, velocity=127, time=0),
    Message('note_on', channel=2, note=31, velocity=122, time=0),
    Message('note_on', channel=6, note=62, velocity=0, time=28),
    Message('note_on', channel=3, note=31, velocity=0, time=56),
    Message('note_on', channel=2, note=31, velocity=0, time=0),
    Message('control_change', channel=12, control=64, value=0, time=14),
    Message('note_on', channel=6, note=57, velocity=127, time=22),
    Message('note_on', channel=3, note=33, velocity=124, time=0),
    Message('note_on', channel=12, note=45, velocity=108, time=0),
    Message('note_on', channel=2, note=33, velocity=124, time=0),
    Message('note_on', channel=9, note=42, velocity=98, time=0),
    Message('note_on', channel=9, note=36, velocity=123, time=0),
    Message('note_on', channel=0, note=57, velocity=119, time=0),
    Message('note_on', channel=9, note=36, velocity=0, time=1),
    Message('note_on', channel=9, note=42, velocity=0, time=0),
    Message('note_on', channel=6, note=59, velocity=0, time=50),
    Message('control_change', channel=0, control=64, value=127, time=6),
    Message('note_on', channel=0, note=64, velocity=117, time=63),
    Message('note_on', channel=0, note=57, velocity=0, time=27),
    Message('note_on', channel=0, note=64, velocity=0, time=67),
    Message('control_change', channel=12, control=64, value=127, time=20),
    Message('note_on', channel=12, note=52, velocity=103, time=6),
    Message('note_on', channel=9, note=42, velocity=97, time=0),
    Message('note_on', channel=0, note=71, velocity=120, time=0),
    Message('note_on', channel=9, note=42, velocity=0, time=1),
    Message('note_on', channel=0, note=71, velocity=0, time=83),
    Message('note_on', channel=0, note=76, velocity=118, time=36),
    Message('note_on', channel=0, note=76, velocity=0, time=82),
    Message('note_on', channel=0, note=69, velocity=120, time=38),
    Message('note_on', channel=12, note=64, velocity=107, time=0),
    Message('note_on', channel=9, note=42, velocity=98, time=0),
    Message('note_on', channel=12, note=57, velocity=106, time=0),
    Message('note_on', channel=9, note=37, velocity=124, time=0),
    Message('note_on', channel=12, note=60, velocity=108, time=0),
    Message('note_on', channel=9, note=37, velocity=0, time=1),
    Message('note_on', channel=9, note=42, velocity=0, time=0),
    Message('note_on', channel=12, note=64, velocity=0, time=43),
    Message('note_on', channel=12, note=45, velocity=0, time=8),
    Message('note_on', channel=12, note=60, velocity=0, time=1),
    Message('note_on', channel=0, note=69, velocity=0, time=8),
    Message('note_on', channel=12, note=57, velocity=0, time=2),
    Message('note_on', channel=12, note=52, velocity=0, time=34),
    Message('note_on', channel=12, note=64, velocity=103, time=23),
    Message('note_on', channel=12, note=57, velocity=102, time=0),
    Message('note_on', channel=12, note=60, velocity=105, time=0),
    Message('note_on', channel=12, note=64, velocity=0, time=30),
    Message('note_on', channel=12, note=57, velocity=0, time=3),
    Message('note_on', channel=12, note=60, velocity=0, time=6),
    Message('note_on', channel=12, note=57, velocity=103, time=81),
    Message('note_on', channel=12, note=60, velocity=104, time=0),
    Message('note_on', channel=9, note=42, velocity=98, time=0),
    Message('note_on', channel=12, note=64, velocity=103, time=0),
    Message('note_on', channel=9, note=42, velocity=0, time=1),
    Message('note_on', channel=12, note=64, velocity=0, time=30),
    Message('note_on', channel=12, note=57, velocity=0, time=5),
    Message('note_on', channel=12, note=60, velocity=0, time=3),
    Message('pitchwheel', channel=6, pitch=160, time=49),
    Message('note_off', channel=2, note=33, velocity=0, time=0),
    Message('note_off', channel=3, note=33, velocity=0, time=0),
    Message('pitchwheel', channel=6, pitch=224, time=6),
    Message('pitchwheel', channel=6, pitch=353, time=3),
    Message('pitchwheel', channel=6, pitch=514, time=4),
    Message('pitchwheel', channel=6, pitch=610, time=5),
    Message('pitchwheel', channel=6, pitch=835, time=4),
    Message('pitchwheel', channel=6, pitch=963, time=5),
    Message('pitchwheel', channel=6, pitch=1124, time=4),
    Message('note_on', channel=12, note=64, velocity=102, time=1),
    Message('note_on', channel=12, note=60, velocity=102, time=0),
    Message('note_on', channel=12, note=57, velocity=102, time=0),
    Message('pitchwheel', channel=6, pitch=1413, time=9),
    Message('pitchwheel', channel=6, pitch=1574, time=4),
    Message('pitchwheel', channel=6, pitch=1799, time=5),
    Message('pitchwheel', channel=6, pitch=1895, time=4),
    Message('pitchwheel', channel=6, pitch=2023, time=3),
    Message('pitchwheel', channel=6, pitch=2248, time=6),
    Message('pitchwheel', channel=6, pitch=2345, time=3),
    Message('pitchwheel', channel=6, pitch=2441, time=6),
    Message('pitchwheel', channel=6, pitch=2505, time=3),
    Message('pitchwheel', channel=6, pitch=2602, time=6),
    Message('pitchwheel', channel=6, pitch=2698, time=3),
    Message('pitchwheel', channel=6, pitch=2891, time=4),
    Message('pitchwheel', channel=6, pitch=3019, time=5),
    Message('control_change', channel=0, control=64, value=0, time=4),
    Message('pitchwheel', channel=6, pitch=3148, time=0),
    Message('pitchwheel', channel=6, pitch=3276, time=5),
    Message('pitchwheel', channel=6, pitch=3373, time=4),
    Message('pitchwheel', channel=6, pitch=3437, time=5),
    Message('pitchwheel', channel=6, pitch=3501, time=3),
    Message('pitchwheel', channel=6, pitch=3598, time=6),
    Message('pitchwheel', channel=6, pitch=3758, time=3),
    Message('control_change', channel=12, control=64, value=0, time=2),
    Message('pitchwheel', channel=6, pitch=3855, time=4),
    Message('pitchwheel', channel=6, pitch=3983, time=3),
    Message('pitchwheel', channel=6, pitch=4112, time=6),
    Message('pitchwheel', channel=6, pitch=4272, time=3),
    Message('pitchwheel', channel=6, pitch=4369, time=6),
    Message('pitchwheel', channel=6, pitch=4497, time=3),
    Message('note_on', channel=3, note=31, velocity=126, time=2),
    Message('note_on', channel=9, note=36, velocity=124, time=0),
    Message('note_on', channel=2, note=31, velocity=126, time=0),
    Message('note_on', channel=12, note=43, velocity=105, time=0),
    Message('note_on', channel=0, note=55, velocity=119, time=0),
    Message('note_on', channel=9, note=42, velocity=99, time=0),
    Message('note_on', channel=9, note=42, velocity=0, time=1),
    Message('note_on', channel=9, note=36, velocity=0, time=0),
    Message('pitchwheel', channel=6, pitch=4593, time=2),
    Message('note_off', channel=12, note=64, velocity=0, time=2),
    Message('note_off', channel=12, note=60, velocity=0, time=5),
    Message('pitchwheel', channel=6, pitch=4754, time=1),
    Message('pitchwheel', channel=6, pitch=4690, time=0),
    Message('note_off', channel=12, note=57, velocity=0, time=1),
    Message('pitchwheel', channel=6, pitch=4818, time=4),
    Message('pitchwheel', channel=6, pitch=4947, time=5),
    Message('pitchwheel', channel=6, pitch=5011, time=4),
    Message('control_change', channel=0, control=64, value=127, time=3),
    Message('pitchwheel', channel=6, pitch=5172, time=0),
    Message('pitchwheel', channel=6, pitch=5300, time=6),
    Message('pitchwheel', channel=6, pitch=5397, time=3),
    Message('pitchwheel', channel=6, pitch=5782, time=6),
    Message('pitchwheel', channel=6, pitch=6039, time=3),
    Message('pitchwheel', channel=6, pitch=6489, time=6),
    Message('pitchwheel', channel=6, pitch=6939, time=3),
    Message('control_change', channel=12, control=64, value=127, time=3),
    Message('pitchwheel', channel=6, pitch=7388, time=1),
    Message('pitchwheel', channel=6, pitch=7902, time=5),
    Message('pitchwheel', channel=6, pitch=8191, time=6),
    Message('note_on', channel=0, note=62, velocity=117, time=50),
    Message('note_on', channel=0, note=55, velocity=0, time=29),
    Message('note_on', channel=0, note=62, velocity=0, time=55),
    Message('note_on', channel=9, note=42, velocity=98, time=36),
    Message('note_on', channel=0, note=67, velocity=120, time=0),
    Message('note_on', channel=12, note=50, velocity=103, time=0),
    Message('note_on', channel=9, note=42, velocity=0, time=1),
    Message('note_on', channel=12, note=43, velocity=0, time=22),
    Message('note_on', channel=0, note=67, velocity=0, time=20),
    Message('note_on', channel=9, note=37, velocity=124, time=197),
    Message('note_on', channel=12, note=62, velocity=107, time=0),
    Message('note_on', channel=9, note=42, velocity=98, time=0),
    Message('note_on', channel=0, note=81, velocity=123, time=0),
    Message('note_on', channel=12, note=55, velocity=106, time=0),
    Message('note_on', channel=12, note=59, velocity=110, time=0),
    Message('note_on', channel=9, note=42, velocity=0, time=1),
    Message('note_on', channel=9, note=37, velocity=0, time=0),
    Message('note_on', channel=12, note=62, velocity=0, time=32),
    Message('control_change', channel=6, control=64, value=127, time=1),
    Message('note_off', channel=12, note=59, velocity=0, time=11),
    Message('note_off', channel=12, note=55, velocity=0, time=8),
    Message('note_off', channel=0, note=81, velocity=0, time=1),
    Message('note_off', channel=12, note=50, velocity=0, time=28),
    Message('note_on', channel=0, note=79, velocity=123, time=38),
    Message('note_on', channel=12, note=55, velocity=102, time=0),
    Message('note_on', channel=12, note=62, velocity=102, time=0),
    Message('note_on', channel=12, note=59, velocity=104, time=0),
    Message('note_on', channel=12, note=62, velocity=0, time=30),
    Message('note_on', channel=0, note=79, velocity=0, time=6),
    Message('note_on', channel=12, note=59, velocity=0, time=6),
    Message('note_on', channel=12, note=55, velocity=0, time=8),
    Message('note_on', channel=6, note=57, velocity=0, time=7),
    Message('note_on', channel=12, note=59, velocity=103, time=63),
    Message('note_on', channel=12, note=62, velocity=103, time=0),
    Message('note_on', channel=9, note=42, velocity=98, time=0),
    Message('note_on', channel=12, note=55, velocity=102, time=0),
    Message('note_on', channel=9, note=42, velocity=0, time=1),
    Message('note_on', channel=12, note=62, velocity=0, time=43),
    Message('note_on', channel=12, note=59, velocity=0, time=4),
    Message('note_on', channel=12, note=55, velocity=0, time=0),
    Message('note_on', channel=12, note=59, velocity=101, time=72),
    Message('note_on', channel=12, note=55, velocity=101, time=0),
    Message('note_on', channel=12, note=62, velocity=101, time=0),
    Message('note_on', channel=3, note=31, velocity=0, time=76),
    Message('note_on', channel=2, note=31, velocity=0, time=0),
    Message('pitchwheel', channel=6, pitch=7003, time=7),
    Message('control_change', channel=6, control=64, value=0, time=3),
    Message('pitchwheel', channel=6, pitch=4883, time=2),
    Message('pitchwheel', channel=6, pitch=3276, time=4),
    Message('control_change', channel=12, control=64, value=0, time=0),
    Message('pitchwheel', channel=6, pitch=1285, time=3),
    Message('pitchwheel', channel=6, pitch=0, time=6),
    Message('note_on', channel=0, note=53, velocity=119, time=19),
    Message('note_on', channel=3, note=41, velocity=126, time=0),
    Message('note_on', channel=9, note=42, velocity=98, time=0),
    Message('note_on', channel=2, note=41, velocity=126, time=0),
    Message('note_on', channel=6, note=60, velocity=127, time=0),
    Message('note_on', channel=9, note=36, velocity=124, time=0),
    Message('note_on', channel=12, note=41, velocity=105, time=0),
    Message('note_on', channel=9, note=36, velocity=0, time=1),
    Message('note_on', channel=9, note=42, velocity=0, time=0),
    Message('control_change', channel=0, control=64, value=0, time=11),
    Message('note_off', channel=12, note=62, velocity=0, time=6),
    Message('note_off', channel=12, note=55, velocity=0, time=6),
    Message('note_off', channel=12, note=59, velocity=0, time=1),
    Message('control_change', channel=12, control=64, value=127, time=32),
    Message('control_change', channel=0, control=64, value=127, time=46),
    Message('note_on', channel=0, note=60, velocity=117, time=17),
    Message('note_on', channel=0, note=53, velocity=0, time=52),
    Message('note_on', channel=0, note=60, velocity=0, time=48),
    Message('note_on', channel=12, note=48, velocity=103, time=20),
    Message('note_on', channel=0, note=65, velocity=120, time=0),
    Message('note_on', channel=9, note=42, velocity=98, time=0),
    Message('note_on', channel=9, note=42, velocity=0, time=1),
    Message('note_on', channel=12, note=41, velocity=0, time=19),
    Message('note_on', channel=0, note=69, velocity=117, time=100),
    Message('note_on', channel=12, note=53, velocity=96, time=0),
    Message('control_change', channel=6, control=64, value=127, time=24),
    Message('note_off', channel=12, note=53, velocity=0, time=2),
    Message('note_off', channel=0, note=65, velocity=0, time=11),
    Message('note_off', channel=0, note=69, velocity=0, time=33),
    Message('note_off', channel=12, note=48, velocity=0, time=41),
    Message('note_on', channel=12, note=57, velocity=108, time=9),
    Message('note_on', channel=9, note=42, velocity=99, time=0),
    Message('note_on', channel=12, note=60, velocity=106, time=0),
    Message('note_on', channel=9, note=37, velocity=123, time=0),
    Message('note_on', channel=0, note=72, velocity=122, time=0),
    Message('note_on', channel=12, note=53, velocity=106, time=0),
    Message('note_on', channel=9, note=37, velocity=0, time=1),
    Message('note_on', channel=9, note=42, velocity=0, time=0),
    Message('note_on', channel=0, note=72, velocity=0, time=33),
    Message('note_on', channel=12, note=60, velocity=0, time=8),
    Message('note_on', channel=12, note=57, velocity=0, time=9),
    Message('note_on', channel=12, note=53, velocity=0, time=8),
    Message('note_on', channel=12, note=60, velocity=102, time=61),
    Message('note_on', channel=12, note=53, velocity=102, time=0),
    Message('note_on', channel=12, note=57, velocity=102, time=0),
    Message('note_on', channel=12, note=60, velocity=0, time=31),
    Message('note_on', channel=6, note=60, velocity=0, time=1),
    Message('note_on', channel=12, note=57, velocity=0, time=2),
    Message('note_on', channel=12, note=53, velocity=0, time=10),
    Message('note_on', channel=2, note=41, velocity=0, time=23),
    Message('note_on', channel=3, note=41, velocity=0, time=0),
    Message('pitchwheel', channel=2, pitch=-161, time=6),
    Message('pitchwheel', channel=3, pitch=-161, time=0),
    Message('pitchwheel', channel=3, pitch=-643, time=4),
    Message('pitchwheel', channel=2, pitch=-643, time=0),
    Message('pitchwheel', channel=3, pitch=-1286, time=5),
    Message('pitchwheel', channel=2, pitch=-1286, time=0),
    Message('pitchwheel', channel=2, pitch=-1960, time=4),
    Message('pitchwheel', channel=3, pitch=-1960, time=0),
    Message('pitchwheel', channel=3, pitch=-2731, time=5),
    Message('pitchwheel', channel=2, pitch=-2731, time=0),
    Message('pitchwheel', channel=2, pitch=-3566, time=4),
    Message('pitchwheel', channel=3, pitch=-3566, time=0),
    Message('pitchwheel', channel=3, pitch=-4337, time=5),
    Message('pitchwheel', channel=2, pitch=-4337, time=0),
    Message('pitchwheel', channel=3, pitch=-5141, time=4),
    Message('pitchwheel', channel=2, pitch=-5141, time=0),
    Message('pitchwheel', channel=3, pitch=-6426, time=5),
    Message('pitchwheel', channel=2, pitch=-6426, time=0),
    Message('pitchwheel', channel=3, pitch=-7903, time=4),
    Message('pitchwheel', channel=2, pitch=-7903, time=0),
    Message('pitchwheel', channel=2, pitch=-8192, time=5),
    Message('pitchwheel', channel=3, pitch=-8192, time=0),
    Message('note_on', channel=9, note=42, velocity=98, time=2),
    Message('note_on', channel=12, note=57, velocity=102, time=0),
    Message('note_on', channel=2, note=38, velocity=124, time=0),
    Message('note_on', channel=12, note=60, velocity=101, time=0),
    Message('note_on', channel=3, note=38, velocity=124, time=0),
    Message('note_on', channel=12, note=53, velocity=100, time=0),
    Message('note_on', channel=9, note=42, velocity=0, time=1),
    Message('note_on', channel=12, note=57, velocity=0, time=52),
    Message('note_on', channel=12, note=60, velocity=0, time=7),
    Message('note_on', channel=12, note=53, velocity=0, time=3),
    Message('note_on', channel=12, note=53, velocity=102, time=57),
    Message('note_on', channel=12, note=60, velocity=103, time=0),
    Message('note_on', channel=12, note=57, velocity=104, time=0),
    Message('pitchwheel', channel=2, pitch=-7518, time=12),
    Message('pitchwheel', channel=3, pitch=-7518, time=0),
    Message('pitchwheel', channel=3, pitch=-5976, time=2),
    Message('pitchwheel', channel=2, pitch=-5976, time=0),
    Message('pitchwheel', channel=3, pitch=-4851, time=5),
    Message('pitchwheel', channel=2, pitch=-4851, time=0),
    Message('pitchwheel', channel=2, pitch=-3856, time=4),
    Message('pitchwheel', channel=3, pitch=-3856, time=0),
    Message('pitchwheel', channel=2, pitch=-2828, time=3),
    Message('pitchwheel', channel=3, pitch=-2828, time=0),
    Message('pitchwheel', channel=3, pitch=-1510, time=5),
    Message('pitchwheel', channel=2, pitch=-1510, time=0),
    Message('pitchwheel', channel=3, pitch=-386, time=4),
    Message('pitchwheel', channel=2, pitch=-386, time=0),
    Message('pitchwheel', channel=2, pitch=0, time=5),
    Message('pitchwheel', channel=3, pitch=0, time=0),
    Message('note_off', channel=12, note=60, velocity=0, time=12),
    Message('note_off', channel=12, note=57, velocity=0, time=3),
    Message('note_off', channel=12, note=53, velocity=0, time=43),
    Message('note_on', channel=12, note=41, velocity=105, time=22),
    Message('note_on', channel=9, note=36, velocity=125, time=0),
    Message('note_on', channel=2, note=41, velocity=124, time=0),
    Message('note_on', channel=3, note=41, velocity=124, time=0),
    Message('note_on', channel=9, note=42, velocity=99, time=0),
    Message('note_on', channel=9, note=42, velocity=0, time=1),
    Message('note_on', channel=9, note=36, velocity=0, time=0),
    Message('control_change', channel=12, control=64, value=0, time=4),
    Message('note_off', channel=2, note=38, velocity=0, time=14),
    Message('note_off', channel=3, note=38, velocity=0, time=0),
    Message('control_change', channel=12, control=64, value=127, time=20),
    Message('note_on', channel=0, note=84, velocity=119, time=81),
    Message('note_on', channel=0, note=77, velocity=120, time=0),
    Message('note_on', channel=0, note=81, velocity=121, time=0),
    Message('note_on', channel=0, note=84, velocity=0, time=30),
    Message('note_on', channel=0, note=81, velocity=0, time=13),
    Message('note_on', channel=0, note=77, velocity=0, time=5),
    Message('control_change', channel=6, control=64, value=0, time=40),
    Message('note_on', channel=12, note=48, velocity=103, time=32),
    Message('note_on', channel=6, note=65, velocity=127, time=0),
    Message('note_on', channel=9, note=42, velocity=98, time=0),
    Message('note_on', channel=9, note=42, velocity=0, time=1),
    Message('note_on', channel=12, note=41, velocity=0, time=5),
    Message('note_on', channel=6, note=64, velocity=127, time=114),
    Message('note_on', channel=12, note=48, velocity=0, time=7),
    Message('note_on', channel=6, note=65, velocity=0, time=7),
    Message('note_on', channel=2, note=41, velocity=0, time=47),
    Message('note_on', channel=3, note=41, velocity=0, time=0),
    Message('note_on', channel=0, note=77, velocity=116, time=59),
    Message('note_on', channel=9, note=42, velocity=99, time=0),
    Message('note_on', channel=9, note=37, velocity=125, time=0),
    Message('note_on', channel=12, note=60, velocity=106, time=0),
    Message('note_on', channel=12, note=53, velocity=105, time=0),
    Message('note_on', channel=2, note=41, velocity=122, time=0),
    Message('note_on', channel=0, note=81, velocity=117, time=0),
    Message('note_on', channel=6, note=65, velocity=127, time=0),
    Message('note_on', channel=0, note=84, velocity=117, time=0),
    Message('note_on', channel=3, note=41, velocity=122, time=0),
    Message('note_on', channel=12, note=57, velocity=108, time=0),
    Message('note_on', channel=9, note=37, velocity=0, time=1),
    Message('note_on', channel=9, note=42, velocity=0, time=0),
    Message('note_on', channel=6, note=64, velocity=0, time=18),
    Message('note_on', channel=0, note=84, velocity=0, time=10),
    Message('note_on', channel=12, note=60, velocity=0, time=12),
    Message('note_on', channel=0, note=77, velocity=0, time=2),
    Message('note_on', channel=0, note=81, velocity=0, time=1),
    Message('note_on', channel=12, note=57, velocity=0, time=0),
    Message('note_on', channel=12, note=53, velocity=0, time=11),
    Message('note_on', channel=12, note=57, velocity=102, time=65),
    Message('note_on', channel=12, note=53, velocity=102, time=0),
    Message('note_on', channel=3, note=40, velocity=122, time=0),
    Message('note_on', channel=0, note=79, velocity=118, time=0),
    Message('note_on', channel=0, note=76, velocity=117, time=0),
    Message('note_on', channel=6, note=64, velocity=127, time=0),
    Message('note_on', channel=12, note=60, velocity=101, time=0),
    Message('note_on', channel=2, note=40, velocity=122, time=0),
    Message('note_on', channel=0, note=79, velocity=0, time=13),
    Message('note_on', channel=0, note=76, velocity=0, time=16),
    Message('note_on', channel=12, note=60, velocity=0, time=8),
    Message('note_on', channel=12, note=57, velocity=0, time=11),
    Message('note_on', channel=12, note=53, velocity=0, time=3),
    Message('note_on', channel=6, note=65, velocity=0, time=14),
    Message('note_on', channel=2, note=41, velocity=0, time=8),
    Message('note_on', channel=3, note=41, velocity=0, time=0),
    Message('note_on', channel=3, note=40, velocity=0, time=34),
    Message('note_on', channel=2, note=40, velocity=0, time=0),
    Message('note_on', channel=6, note=64, velocity=0, time=6),
    Message('note_on', channel=12, note=60, velocity=103, time=7),
    Message('note_on', channel=3, note=36, velocity=122, time=0),
    Message('note_on', channel=6, note=60, velocity=127, time=0),
    Message('note_on', channel=9, note=42, velocity=99, time=0),
    Message('note_on', channel=12, note=57, velocity=103, time=0),
    Message('note_on', channel=12, note=53, velocity=102, time=0),
    Message('note_on', channel=2, note=36, velocity=122, time=0),
    Message('note_on', channel=9, note=42, velocity=0, time=1),
    Message('note_on', channel=12, note=60, velocity=0, time=48),
    Message('note_on', channel=12, note=57, velocity=0, time=3),
    Message('note_on', channel=12, note=53, velocity=0, time=7),
    Message('note_on', channel=12, note=53, velocity=102, time=61),
    Message('note_on', channel=12, note=60, velocity=103, time=0),
    Message('note_on', channel=3, note=35, velocity=123, time=0),
    Message('note_on', channel=2, note=35, velocity=123, time=0),
    Message('note_on', channel=12, note=57, velocity=103, time=0),
    Message('note_on', channel=6, note=59, velocity=127, time=0),
    Message('note_on', channel=3, note=36, velocity=0, time=14),
    Message('note_on', channel=2, note=36, velocity=0, time=0),
    Message('note_on', channel=6, note=60, velocity=0, time=9),
    Message('control_change', channel=0, control=64, value=0, time=47),
    Message('note_off', channel=12, note=53, velocity=0, time=12),
    Message('note_off', channel=12, note=60, velocity=0, time=0),
    Message('note_off', channel=2, note=35, velocity=0, time=1),
    Message('note_off', channel=3, note=35, velocity=0, time=0),
    Message('note_off', channel=12, note=57, velocity=0, time=3),
    Message('note_off', channel=6, note=59, velocity=0, time=16),
    Message('control_change', channel=12, control=64, value=0, time=17),
    Message('note_on', channel=0, note=60, velocity=119, time=1),
    Message('note_on', channel=6, note=60, velocity=127, time=0),
    Message('note_on', channel=12, note=67, velocity=107, time=0),
    Message('note_on', channel=0, note=72, velocity=116, time=0),
    Message('note_on', channel=2, note=36, velocity=125, time=0),
    Message('note_on', channel=9, note=42, velocity=98, time=0),
    Message('note_on', channel=12, note=64, velocity=108, time=0),
    Message('note_on', channel=0, note=79, velocity=117, time=0),
    Message('note_on', channel=12, note=60, velocity=107, time=0),
    Message('note_on', channel=12, note=48, velocity=106, time=0),
    Message('note_on', channel=9, note=36, velocity=123, time=0),
    Message('note_on', channel=0, note=76, velocity=119, time=0),
    Message('note_on', channel=3, note=36, velocity=125, time=0),
    Message('note_on', channel=9, note=36, velocity=0, time=1),
    Message('note_on', channel=9, note=42, velocity=0, time=0),
    Message('control_change', channel=12, control=64, value=127, time=12),
    Message('control_change', channel=0, control=64, value=127, time=32),
    Message('note_off', channel=12, note=67, velocity=0, time=148),
    Message('note_off', channel=12, note=60, velocity=0, time=11),
    Message('note_off', channel=12, note=64, velocity=0, time=3),
    Message('note_on', channel=12, note=55, velocity=100, time=33),
    Message('note_on', channel=9, note=42, velocity=97, time=0),
    Message('note_on', channel=9, note=42, velocity=0, time=1),
    Message('note_on', channel=12, note=48, velocity=0, time=21),
    Message('note_on', channel=0, note=79, velocity=0, time=97),
    Message('note_on', channel=0, note=67, velocity=118, time=1),
    Message('note_on', channel=0, note=72, velocity=0, time=26),
    Message('note_on', channel=0, note=60, velocity=0, time=3),
    Message('note_on', channel=0, note=76, velocity=0, time=2),
    Message('note_on', channel=0, note=67, velocity=0, time=66),
    Message('note_on', channel=9, note=37, velocity=124, time=23),
    Message('note_on', channel=12, note=67, velocity=105, time=0),
    Message('note_on', channel=12, note=60, velocity=105, time=0),
    Message('note_on', channel=12, note=64, velocity=107, time=0),
    Message('note_on', channel=9, note=42, velocity=98, time=0),
    Message('note_on', channel=0, note=72, velocity=120, time=0),
    Message('note_on', channel=9, note=42, velocity=0, time=1),
    Message('note_on', channel=9, note=37, velocity=0, time=0),
    Message('note_on', channel=12, note=55, velocity=0, time=22),
    Message('note_on', channel=0, note=72, velocity=0, time=31),
    Message('note_on', channel=12, note=67, velocity=0, time=50),
    Message('note_on', channel=12, note=64, velocity=0, time=6),
    Message('note_on', channel=0, note=79, velocity=117, time=10),
    Message('note_on', channel=0, note=74, velocity=121, time=0),
    Message('note_on', channel=12, note=60, velocity=0, time=14),
    Message('note_on', channel=0, note=74, velocity=0, time=40),
    Message('note_on', channel=0, note=79, velocity=0, time=7),
    Message('note_on', channel=9, note=42, velocity=98, time=59),
    Message('note_on', channel=12, note=48, velocity=103, time=0),
    Message('note_on', channel=6, note=60, velocity=0, time=0),
    Message('note_on', channel=9, note=42, velocity=0, time=1),
    Message('note_on', channel=12, note=60, velocity=103, time=119),
    Message('note_on', channel=12, note=55, velocity=103, time=0),
    Message('note_on', channel=12, note=67, velocity=101, time=0),
    Message('note_on', channel=12, note=67, velocity=0, time=21),
    Message('note_on', channel=12, note=48, velocity=0, time=25),
    Message('note_on', channel=12, note=60, velocity=0, time=2),
    Message('note_on', channel=2, note=36, velocity=0, time=6),
    Message('note_on', channel=3, note=36, velocity=0, time=0),
    Message('control_change', channel=0, control=64, value=0, time=51),
    Message('note_off', channel=12, note=55, velocity=0, time=4),
    Message('note_on', channel=9, note=42, velocity=99, time=11),
    Message('note_on', channel=12, note=67, velocity=104, time=0),
    Message('note_on', channel=0, note=72, velocity=120, time=0),
    Message('note_on', channel=12, note=48, velocity=98, time=0),
    Message('note_on', channel=2, note=36, velocity=123, time=0),
    Message('note_on', channel=3, note=36, velocity=123, time=0),
    Message('note_on', channel=12, note=62, velocity=107, time=0),
    Message('note_on', channel=9, note=36, velocity=124, time=0),
    Message('note_on', channel=9, note=36, velocity=0, time=1),
    Message('note_on', channel=9, note=42, velocity=0, time=0),
    Message('control_change', channel=0, control=64, value=127, time=37),
    Message('note_off', channel=12, note=48, velocity=0, time=36),
    Message('note_on', channel=12, note=64, velocity=107, time=166),
    Message('note_on', channel=0, note=60, velocity=118, time=0),
    Message('note_on', channel=9, note=42, velocity=98, time=0),
    Message('note_on', channel=9, note=42, velocity=0, time=1),
    Message('note_on', channel=12, note=62, velocity=0, time=8),
    Message('note_on', channel=12, note=67, velocity=0, time=7),
    Message('note_on', channel=0, note=72, velocity=0, time=23),
    Message('note_on', channel=12, note=64, velocity=0, time=21),
    Message('note_on', channel=0, note=67, velocity=117, time=60),
    Message('note_on', channel=0, note=60, velocity=0, time=27),
    Message('note_on', channel=0, note=67, velocity=0, time=46),
    Message('control_change', channel=12, control=64, value=0, time=14),
    Message('control_change', channel=12, control=64, value=127, time=23),
    Message('note_on', channel=12, note=64, velocity=108, time=10),
    Message('note_on', channel=0, note=72, velocity=118, time=0),
    Message('note_on', channel=12, note=48, velocity=105, time=0),
    Message('note_on', channel=9, note=37, velocity=124, time=0),
    Message('note_on', channel=12, note=67, velocity=107, time=0),
    Message('note_on', channel=9, note=42, velocity=98, time=0),
    Message('note_on', channel=12, note=60, velocity=108, time=0),
    Message('note_on', channel=9, note=42, velocity=0, time=1),
    Message('note_on', channel=9, note=37, velocity=0, time=0),
    Message('note_on', channel=0, note=76, velocity=119, time=119),
    Message('note_on', channel=0, note=76, velocity=0, time=48),
    Message('note_on', channel=0, note=72, velocity=0, time=7),
    Message('note_on', channel=12, note=55, velocity=105, time=65),
    Message('note_on', channel=9, note=42, velocity=98, time=0),
    Message('note_on', channel=9, note=42, velocity=0, time=1),
    Message('note_on', channel=12, note=67, velocity=0, time=1),
    Message('note_on', channel=12, note=64, velocity=0, time=7),
    Message('note_on', channel=12, note=60, velocity=0, time=5),
    Message('note_on', channel=12, note=48, velocity=0, time=1),
    Message('note_on', channel=12, note=55, velocity=0, time=27),
    Message('note_on', channel=3, note=36, velocity=0, time=120),
    Message('note_on', channel=2, note=36, velocity=0, time=0),
    Message('control_change', channel=12, control=64, value=0, time=15),
    Message('control_change', channel=0, control=64, value=0, time=28),
    Message('note_on', channel=12, note=43, velocity=105, time=35),
    Message('note_on', channel=0, note=55, velocity=118, time=0),
    Message('note_on', channel=12, note=62, velocity=105, time=0),
    Message('note_on', channel=9, note=42, velocity=98, time=0),
    Message('note_on', channel=2, note=43, velocity=126, time=0),
    Message('note_on', channel=12, note=59, velocity=105, time=0),
    Message('note_on', channel=3, note=43, velocity=126, time=0),
    Message('note_on', channel=12, note=55, velocity=104, time=0),
    Message('note_on', channel=9, note=36, velocity=124, time=0),
    Message('note_on', channel=9, note=36, velocity=0, time=1),
    Message('note_on', channel=9, note=42, velocity=0, time=0),
    Message('control_change', channel=12, control=64, value=127, time=7),
    Message('control_change', channel=0, control=64, value=127, time=39),
    Message('note_off', channel=12, note=59, velocity=0, time=48),
    Message('note_off', channel=12, note=55, velocity=0, time=4),
    Message('note_off', channel=12, note=62, velocity=0, time=1),
    Message('note_on', channel=0, note=62, velocity=116, time=20),
    Message('pitchwheel', channel=6, pitch=-225, time=5),
    Message('pitchwheel', channel=6, pitch=-547, time=4),
    Message('pitchwheel', channel=6, pitch=-900, time=5),
    Message('pitchwheel', channel=6, pitch=-1350, time=4),
    Message('pitchwheel', channel=6, pitch=-1671, time=5),
    Message('pitchwheel', channel=6, pitch=-2089, time=4),
    Message('pitchwheel', channel=6, pitch=-2442, time=3),
    Message('note_off', channel=0, note=55, velocity=0, time=0),
    Message('pitchwheel', channel=6, pitch=-2795, time=6),
    Message('pitchwheel', channel=6, pitch=-3277, time=5),
    Message('pitchwheel', channel=6, pitch=-3599, time=4),
    Message('pitchwheel', channel=6, pitch=-3920, time=5),
    Message('pitchwheel', channel=6, pitch=-4370, time=3),
    Message('pitchwheel', channel=6, pitch=-4691, time=4),
    Message('pitchwheel', channel=6, pitch=-5012, time=5),
    Message('pitchwheel', channel=6, pitch=-5269, time=4),
    Message('pitchwheel', channel=6, pitch=-5719, time=5),
    Message('pitchwheel', channel=6, pitch=-6426, time=4),
    Message('pitchwheel', channel=6, pitch=-7004, time=5),
    Message('pitchwheel', channel=6, pitch=-7454, time=4),
    Message('pitchwheel', channel=6, pitch=-7903, time=5),
    Message('pitchwheel', channel=6, pitch=-8192, time=4),
    Message('note_off', channel=0, note=62, velocity=0, time=1),
    Message('note_on', channel=6, note=74, velocity=127, time=26),
    Message('note_on', channel=0, note=67, velocity=118, time=0),
    Message('note_on', channel=12, note=50, velocity=103, time=0),
    Message('note_on', channel=9, note=42, velocity=98, time=0),
    Message('note_on', channel=9, note=42, velocity=0, time=1),
    Message('note_on', channel=12, note=43, velocity=0, time=31),
    Message('note_on', channel=0, note=67, velocity=0, time=36),
    Message('pitchwheel', channel=6, pitch=-7711, time=28),
    Message('pitchwheel', channel=6, pitch=-7132, time=5),
    Message('pitchwheel', channel=6, pitch=-6490, time=4),
    Message('pitchwheel', channel=6, pitch=-5783, time=3),
    Message('pitchwheel', channel=6, pitch=-5269, time=6),
    Message('pitchwheel', channel=6, pitch=-5012, time=5),
    Message('note_on', channel=12, note=55, velocity=102, time=1),
    Message('note_on', channel=0, note=67, velocity=115, time=0),
    Message('note_on', channel=12, note=62, velocity=100, time=0),
    Message('pitchwheel', channel=6, pitch=-4691, time=5),
    Message('pitchwheel', channel=6, pitch=-4370, time=5),
    Message('pitchwheel', channel=6, pitch=-3952, time=2),
    Message('pitchwheel', channel=6, pitch=-3631, time=3),
    Message('note_off', channel=12, note=62, velocity=0, time=1),
    Message('pitchwheel', channel=6, pitch=-3342, time=5),
    Message('pitchwheel', channel=6, pitch=-2924, time=3),
    Message('pitchwheel', channel=6, pitch=-2699, time=5),
    Message('pitchwheel', channel=6, pitch=-2442, time=4),
    Message('pitchwheel', channel=6, pitch=-2249, time=4),
    Message('pitchwheel', channel=6, pitch=-2089, time=5),
    Message('pitchwheel', channel=6, pitch=-1896, time=5),
    Message('note_off', channel=12, note=55, velocity=0, time=1),
    Message('pitchwheel', channel=6, pitch=-1767, time=3),
    Message('pitchwheel', channel=6, pitch=-1607, time=3),
    Message('note_off', channel=12, note=50, velocity=0, time=4),
    Message('note_off', channel=0, note=67, velocity=0, time=1),
    Message('pitchwheel', channel=6, pitch=-1478, time=1),
    Message('pitchwheel', channel=6, pitch=-1382, time=3),
    Message('pitchwheel', channel=6, pitch=-1286, time=6),
    Message('pitchwheel', channel=6, pitch=-1061, time=3),
    Message('pitchwheel', channel=6, pitch=-804, time=6),
    Message('pitchwheel', channel=6, pitch=-707, time=3),
    Message('pitchwheel', channel=6, pitch=-450, time=6),
    Message('pitchwheel', channel=6, pitch=-354, time=3),
    Message('pitchwheel', channel=6, pitch=-225, time=6),
    Message('pitchwheel', channel=6, pitch=0, time=3),
    Message('note_on', channel=9, note=42, velocity=99, time=21),
    Message('note_on', channel=0, note=74, velocity=120, time=0),
    Message('note_on', channel=12, note=59, velocity=107, time=0),
    Message('note_on', channel=12, note=43, velocity=103, time=0),
    Message('note_on', channel=12, note=62, velocity=104, time=0),
    Message('note_on', channel=9, note=37, velocity=123, time=0),
    Message('note_on', channel=0, note=67, velocity=117, time=0),
    Message('note_on', channel=12, note=55, velocity=105, time=0),
    Message('note_on', channel=9, note=38, velocity=126, time=0),
    Message('note_on', channel=9, note=38, velocity=0, time=1),
    Message('note_on', channel=9, note=42, velocity=0, time=0),
    Message('note_on', channel=9, note=37, velocity=0, time=0),
    Message('note_on', channel=0, note=67, velocity=0, time=42),
    Message('note_on', channel=12, note=59, velocity=0, time=16),
    Message('note_on', channel=12, note=62, velocity=0, time=26),
    Message('note_on', channel=12, note=55, velocity=0, time=18),
    Message('note_on', channel=3, note=43, velocity=0, time=13),
    Message('note_on', channel=2, note=43, velocity=0, time=0),
    Message('note_on', channel=2, note=38, velocity=121, time=4),
    Message('note_on', channel=3, note=38, velocity=121, time=0),
    Message('note_on', channel=6, note=72, velocity=127, time=0),
    Message('note_on', channel=6, note=74, velocity=0, time=40),
    Message('note_on', channel=0, note=74, velocity=0, time=9),
    Message('note_on', channel=6, note=72, velocity=0, time=57),
    Message('note_on', channel=12, note=50, velocity=103, time=14),
    Message('note_on', channel=2, note=43, velocity=124, time=0),
    Message('note_on', channel=12, note=55, velocity=102, time=0),
    Message('note_on', channel=3, note=43, velocity=124, time=0),
    Message('note_on', channel=0, note=71, velocity=121, time=0),
    Message('note_on', channel=6, note=71, velocity=127, time=0),
    Message('note_on', channel=12, note=62, velocity=99, time=0),
    Message('note_on', channel=3, note=38, velocity=0, time=8),
    Message('note_on', channel=2, note=38, velocity=0, time=0),
    Message('note_on', channel=12, note=62, velocity=0, time=13),
    Message('note_on', channel=12, note=55, velocity=0, time=9),
    Message('note_on', channel=12, note=43, velocity=0, time=22),
    Message('note_on', channel=0, note=71, velocity=0, time=39),
    Message('note_on', channel=12, note=50, velocity=0, time=5),
    Message('note_on', channel=3, note=43, velocity=0, time=16),
    Message('note_on', channel=2, note=43, velocity=0, time=0),
    Message('note_on', channel=2, note=38, velocity=123, time=8),
    Message('note_on', channel=12, note=62, velocity=105, time=0),
    Message('note_on', channel=6, note=72, velocity=127, time=0),
    Message('note_on', channel=0, note=67, velocity=120, time=0),
    Message('note_on', channel=12, note=57, velocity=105, time=0),
    Message('note_on', channel=3, note=38, velocity=123, time=0),
    Message('note_on', channel=9, note=38, velocity=126, time=0),
    Message('note_on', channel=9, note=38, velocity=0, time=1),
    Message('note_on', channel=6, note=71, velocity=0, time=9),
    Message('note_on', channel=0, note=67, velocity=0, time=16),
    Message('note_on', channel=12, note=57, velocity=0, time=16),
    Message('note_on', channel=12, note=62, velocity=0, time=6),
    Message('note_on', channel=3, note=38, velocity=0, time=18),
    Message('note_on', channel=2, note=38, velocity=0, time=0),
    Message('control_change', channel=12, control=64, value=0, time=6),
    Message('note_on', channel=2, note=31, velocity=123, time=48),
    Message('note_on', channel=12, note=62, velocity=104, time=0),
    Message('control_change', channel=12, control=64, value=127, time=0),
    Message('note_on', channel=12, note=43, velocity=105, time=0),
    Message('note_on', channel=6, note=71, velocity=127, time=0),
    Message('note_on', channel=0, note=69, velocity=121, time=0),
    Message('note_on', channel=9, note=36, velocity=125, time=0),
    Message('note_on', channel=12, note=55, velocity=107, time=0),
    Message('note_on', channel=3, note=31, velocity=123, time=0),
    Message('note_on', channel=12, note=59, velocity=108, time=0),
    Message('note_on', channel=9, note=36, velocity=0, time=1),
    Message('note_on', channel=6, note=72, velocity=0, time=0),
    Message('note_on', channel=0, note=69, velocity=0, time=78),
    Message('note_on', channel=0, note=74, velocity=118, time=41),
    Message('note_on', channel=0, note=71, velocity=122, time=120),
    Message('note_on', channel=12, note=50, velocity=104, time=0),
    Message('note_on', channel=9, note=38, velocity=126, time=0),
    Message('note_on', channel=9, note=38, velocity=0, time=1),
    Message('note_on', channel=12, note=59, velocity=0, time=7),
    Message('note_on', channel=12, note=55, velocity=0, time=3),
    Message('note_on', channel=12, note=43, velocity=0, time=15),
    Message('note_on', channel=0, note=74, velocity=0, time=6),
    Message('note_on', channel=12, note=62, velocity=0, time=3),
    Message('note_on', channel=0, note=71, velocity=0, time=136),
    Message('control_change', channel=0, control=64, value=0, time=39),
    Message('note_off', channel=6, note=71, velocity=0, time=12),
    Message('note_on', channel=12, note=55, velocity=106, time=18),
    Message('note_on', channel=12, note=62, velocity=105, time=0),
    Message('note_on', channel=0, note=74, velocity=119, time=0),
    Message('note_on', channel=0, note=55, velocity=119, time=0),
    Message('note_on', channel=6, note=67, velocity=127, time=0),
    Message('note_on', channel=0, note=67, velocity=124, time=0),
    Message('note_on', channel=0, note=74, velocity=0, time=29),
    Message('control_change', channel=0, control=64, value=127, time=5),
    Message('note_off', channel=12, note=62, velocity=0, time=2),
    Message('note_off', channel=3, note=31, velocity=0, time=19),
    Message('note_off', channel=2, note=31, velocity=0, time=0),
    Message('note_off', channel=12, note=50, velocity=0, time=62),
    Message('note_on', channel=9, note=45, velocity=123, time=3),
    Message('note_on', channel=9, note=45, velocity=0, time=1),
    Message('note_on', channel=0, note=55, velocity=0, time=15),
    Message('note_on', channel=0, note=67, velocity=0, time=18),
    Message('note_on', channel=12, note=59, velocity=106, time=86),
    Message('note_on', channel=12, note=62, velocity=100, time=0),
    Message('note_on', channel=9, note=41, velocity=123, time=0),
    Message('note_on', channel=9, note=41, velocity=0, time=1),
    Message('note_on', channel=12, note=62, velocity=0, time=19),
    Message('note_on', channel=12, note=59, velocity=0, time=19),
    Message('note_on', channel=12, note=55, velocity=0, time=32),
    Message('pitchwheel', channel=6, pitch=-129, time=92),
    Message('pitchwheel', channel=6, pitch=192, time=3),
    Message('control_change', channel=12, control=64, value=0, time=4),
    Message('pitchwheel', channel=6, pitch=353, time=0),
    Message('pitchwheel', channel=6, pitch=514, time=5),
    Message('pitchwheel', channel=6, pitch=706, time=4),
    Message('control_change', channel=0, control=64, value=0, time=2),
    Message('pitchwheel', channel=6, pitch=899, time=3),
    Message('pitchwheel', channel=6, pitch=1092, time=4),
    Message('pitchwheel', channel=6, pitch=1252, time=3),
    Message('pitchwheel', channel=6, pitch=1542, time=6),
    Message('pitchwheel', channel=6, pitch=1734, time=3),
    Message('pitchwheel', channel=6, pitch=1895, time=5),
    Message('pitchwheel', channel=6, pitch=2152, time=4),
    Message('pitchwheel', channel=6, pitch=2377, time=5),
    Message('pitchwheel', channel=6, pitch=2537, time=4),
    Message('pitchwheel', channel=6, pitch=2698, time=5),
    Message('pitchwheel', channel=6, pitch=2955, time=4),
    Message('pitchwheel', channel=6, pitch=3148, time=5),
    Message('pitchwheel', channel=6, pitch=3341, time=4),
    Message('note_on', channel=3, note=33, velocity=126, time=4),
    Message('note_on', channel=4, note=72, velocity=118, time=0),
    Message('note_on', channel=12, note=45, velocity=108, time=0),
    Message('note_on', channel=2, note=33, velocity=126, time=0),
    Message('note_on', channel=4, note=69, velocity=114, time=0),
    Message('note_on', channel=9, note=49, velocity=119, time=0),
    Message('note_on', channel=8, note=64, velocity=126, time=0),
    Message('note_on', channel=9, note=51, velocity=124, time=0),
    Message('note_on', channel=9, note=36, velocity=126, time=0),
    Message('note_on', channel=0, note=57, velocity=120, time=0),
    Message('note_on', channel=7, note=64, velocity=126, time=0),
    Message('note_on', channel=10, note=64, velocity=126, time=0),
    Message('pitchwheel', channel=6, pitch=3437, time=1),
    Message('note_off', channel=9, note=36, velocity=0, time=0),
    Message('note_off', channel=9, note=51, velocity=0, time=0),
    Message('note_off', channel=9, note=49, velocity=0, time=0),
    Message('pitchwheel', channel=6, pitch=3565, time=7),
    Message('pitchwheel', channel=6, pitch=3694, time=2),
    Message('pitchwheel', channel=6, pitch=3790, time=5),
    Message('pitchwheel', channel=6, pitch=3887, time=4),
    Message('pitchwheel', channel=6, pitch=3983, time=4),
    Message('pitchwheel', channel=6, pitch=4079, time=3),
    Message('pitchwheel', channel=6, pitch=4144, time=6),
    Message('pitchwheel', channel=6, pitch=4272, time=3),
    Message('control_change', channel=4, control=64, value=127, time=0),
    Message('pitchwheel', channel=6, pitch=4336, time=5),
    Message('pitchwheel', channel=6, pitch=4369, time=4),
    Message('control_change', channel=0, control=64, value=127, time=3),
    Message('pitchwheel', channel=6, pitch=4465, time=1),
    Message('pitchwheel', channel=6, pitch=4561, time=5),
    Message('pitchwheel', channel=6, pitch=4658, time=5),
    Message('pitchwheel', channel=6, pitch=4722, time=4),
    Message('pitchwheel', channel=6, pitch=4818, time=5),
    Message('pitchwheel', channel=6, pitch=4883, time=4),
    Message('pitchwheel', channel=6, pitch=5011, time=5),
    Message('pitchwheel', channel=6, pitch=5107, time=4),
    Message('pitchwheel', channel=6, pitch=5236, time=5),
    Message('pitchwheel', channel=6, pitch=5364, time=4),
    Message('pitchwheel', channel=6, pitch=5525, time=3),
    Message('pitchwheel', channel=6, pitch=5911, time=6),
    Message('pitchwheel', channel=6, pitch=6103, time=3),
    Message('pitchwheel', channel=6, pitch=6425, time=5),
    Message('pitchwheel', channel=6, pitch=6746, time=4),
    Message('pitchwheel', channel=6, pitch=7067, time=5),
    Message('pitchwheel', channel=6, pitch=7453, time=4),
    Message('note_on', channel=0, note=64, velocity=119, time=1),
    Message('pitchwheel', channel=6, pitch=7774, time=4),
    Message('pitchwheel', channel=6, pitch=8031, time=4),
    Message('pitchwheel', channel=6, pitch=8191, time=5),
    Message('note_off', channel=0, note=57, velocity=0, time=42),
    Message('note_off', channel=0, note=64, velocity=0, time=61),
    Message('note_on', channel=12, note=52, velocity=104, time=4),
    Message('note_on', channel=0, note=69, velocity=121, time=0),
    Message('control_change', channel=12, control=64, value=127, time=17),
    Message('note_off', channel=12, note=45, velocity=0, time=25),
    Message('note_off', channel=4, note=72, velocity=0, time=23),
    Message('note_off', channel=4, note=69, velocity=0, time=32),
    Message('note_on', channel=0, note=72, velocity=119, time=23),
    Message('note_on', channel=0, note=69, velocity=0, time=44),
    Message('note_on', channel=0, note=72, velocity=0, time=18),
    Message('note_on', channel=0, note=76, velocity=125, time=58),
    Message('note_on', channel=12, note=60, velocity=106, time=0),
    Message('note_on', channel=12, note=64, velocity=105, time=0),
    Message('note_on', channel=12, note=57, velocity=106, time=0),
    Message('note_on', channel=9, note=51, velocity=119, time=0),
    Message('note_on', channel=9, note=38, velocity=125, time=0),
    Message('note_on', channel=9, note=38, velocity=0, time=1),
    Message('note_on', channel=9, note=51, velocity=0, time=0),
    Message('note_on', channel=12, note=64, velocity=0, time=34),
    Message('note_on', channel=12, note=60, velocity=0, time=6),
    Message('note_on', channel=12, note=57, velocity=0, time=16),
    Message('note_on', channel=0, note=76, velocity=0, time=13),
    Message('note_on', channel=12, note=64, velocity=102, time=50),
    Message('note_on', channel=12, note=57, velocity=102, time=0),
    Message('note_on', channel=12, note=60, velocity=103, time=0),
    Message('note_on', channel=12, note=52, velocity=0, time=17),
    Message('note_on', channel=12, note=64, velocity=0, time=17),
    Message('note_on', channel=12, note=57, velocity=0, time=11),
    Message('note_on', channel=12, note=60, velocity=0, time=0),
    Message('note_on', channel=9, note=51, velocity=119, time=75),
    Message('note_on', channel=2, note=28, velocity=125, time=0),
    Message('note_on', channel=12, note=57, velocity=101, time=0),
    Message('note_on', channel=3, note=28, velocity=125, time=0),
    Message('note_on', channel=12, note=64, velocity=102, time=0),
    Message('note_on', channel=12, note=60, velocity=102, time=0),
    Message('note_on', channel=9, note=51, velocity=0, time=1),
    Message('note_on', channel=3, note=33, velocity=0, time=14),
    Message('note_on', channel=2, note=33, velocity=0, time=0),
    Message('note_on', channel=12, note=57, velocity=0, time=33),
    Message('note_on', channel=12, note=60, velocity=0, time=0),
    Message('note_on', channel=12, note=64, velocity=0, time=2),
    Message('note_on', channel=3, note=33, velocity=125, time=70),
    Message('note_on', channel=12, note=60, velocity=102, time=0),
    Message('note_on', channel=12, note=64, velocity=101, time=0),
    Message('note_on', channel=12, note=57, velocity=100, time=0),
    Message('note_on', channel=2, note=33, velocity=125, time=0),
    Message('note_on', channel=2, note=28, velocity=0, time=1),
    Message('note_on', channel=6, note=67, velocity=0, time=0),
    Message('note_on', channel=3, note=28, velocity=0, time=0),
    Message('note_on', channel=7, note=64, velocity=0, time=6),
    Message('note_on', channel=8, note=64, velocity=0, time=0),
    Message('note_on', channel=10, note=64, velocity=0, time=0),
    Message('pitchwheel', channel=6, pitch=7388, time=34),
    Message('pitchwheel', channel=6, pitch=6103, time=4),
    Message('pitchwheel', channel=6, pitch=5011, time=7),
    Message('pitchwheel', channel=6, pitch=4208, time=2),
    Message('pitchwheel', channel=6, pitch=3373, time=3),
    Message('pitchwheel', channel=6, pitch=2537, time=6),
    Message('pitchwheel', channel=6, pitch=1509, time=5),
    Message('control_change', channel=0, control=64, value=0, time=3),
    Message('pitchwheel', channel=6, pitch=610, time=1),
    Message('pitchwheel', channel=6, pitch=0, time=3),
    Message('note_off', channel=12, note=64, velocity=0, time=14),
    Message('note_off', channel=12, note=57, velocity=0, time=9),
    Message('note_off', channel=12, note=60, velocity=0, time=1),
    Message('note_on', channel=2, note=31, velocity=126, time=21),
    Message('note_on', channel=3, note=31, velocity=126, time=0),
    Message('note_on', channel=8, note=62, velocity=126, time=0),
    Message('note_on', channel=9, note=51, velocity=124, time=0),
    Message('note_on', channel=9, note=36, velocity=126, time=0),
    Message('note_on', channel=4, note=71, velocity=118, time=0),
    Message('note_on', channel=4, note=67, velocity=116, time=0),
    Message('note_on', channel=12, note=43, velocity=107, time=0),
    Message('note_on', channel=7, note=62, velocity=126, time=0),
    Message('note_on', channel=0, note=55, velocity=119, time=0),
    Message('note_on', channel=10, note=62, velocity=126, time=0),
    Message('note_on', channel=9, note=36, velocity=0, time=1),
    Message('note_on', channel=9, note=51, velocity=0, time=0),
    Message('control_change', channel=4, control=64, value=0, time=2),
    Message('note_off', channel=3, note=33, velocity=0, time=0),
    Message('note_off', channel=2, note=33, velocity=0, time=0),
    Message('control_change', channel=12, control=64, value=0, time=18),
    Message('control_change', channel=0, control=64, value=127, time=21),
    Message('control_change', channel=12, control=64, value=127, time=49),
    Message('note_on', channel=0, note=62, velocity=120, time=29),
    Message('note_on', channel=0, note=55, velocity=0, time=66),
    Message('note_on', channel=0, note=62, velocity=0, time=45),
    Message('note_on', channel=12, note=50, velocity=105, time=9),
    Message('note_on', channel=9, note=51, velocity=114, time=0),
    Message('note_on', channel=0, note=67, velocity=121, time=0),
    Message('note_on', channel=9, note=51, velocity=0, time=1),
    Message('note_on', channel=12, note=43, velocity=0, time=56),
    Message('note_on', channel=0, note=71, velocity=119, time=63),
    Message('control_change', channel=4, control=64, value=127, time=24),
    Message('note_on', channel=12, note=62, velocity=105, time=96),
    Message('note_on', channel=12, note=59, velocity=108, time=0),
    Message('note_on', channel=12, note=55, velocity=106, time=0),
    Message('note_on', channel=9, note=38, velocity=126, time=0),
    Message('note_on', channel=9, note=51, velocity=119, time=0),
    Message('note_on', channel=0, note=74, velocity=124, time=0),
    Message('note_on', channel=9, note=51, velocity=0, time=1),
    Message('note_on', channel=9, note=38, velocity=0, time=0),
    Message('note_on', channel=0, note=67, velocity=0, time=7),
    Message('note_on', channel=0, note=71, velocity=0, time=11),
    Message('note_on', channel=12, note=62, velocity=0, time=17),
    Message('note_on', channel=12, note=50, velocity=0, time=8),
    Message('note_on', channel=12, note=59, velocity=0, time=1),
    Message('note_on', channel=12, note=55, velocity=0, time=5),
    Message('note_on', channel=0, note=74, velocity=0, time=4),
    Message('note_on', channel=4, note=71, velocity=0, time=34),
    Message('note_on', channel=4, note=67, velocity=0, time=15),
    Message('note_on', channel=12, note=62, velocity=103, time=17),
    Message('note_on', channel=12, note=59, velocity=103, time=0),
    Message('note_on', channel=12, note=55, velocity=102, time=0),
    Message('note_on', channel=12, note=59, velocity=0, time=43),
    Message('note_on', channel=12, note=62, velocity=0, time=0),
    Message('note_on', channel=12, note=55, velocity=0, time=12),
    Message('note_on', channel=12, note=55, velocity=102, time=65),
    Message('note_on', channel=12, note=62, velocity=103, time=0),
    Message('note_on', channel=12, note=59, velocity=103, time=0),
    Message('note_on', channel=9, note=51, velocity=114, time=0),
    Message('note_on', channel=9, note=51, velocity=0, time=1),
    Message('note_on', channel=12, note=62, velocity=0, time=40),
    Message('note_on', channel=12, note=59, velocity=0, time=2),
    Message('note_on', channel=12, note=55, velocity=0, time=9),
    Message('note_on', channel=12, note=59, velocity=103, time=68),
    Message('note_on', channel=12, note=55, velocity=102, time=0),
    Message('note_on', channel=12, note=62, velocity=102, time=0),
    Message('note_on', channel=8, note=62, velocity=0, time=79),
    Message('note_on', channel=7, note=62, velocity=0, time=0),
    Message('note_on', channel=10, note=62, velocity=0, time=0),
    Message('control_change', channel=0, control=64, value=0, time=12),
    Message('note_off', channel=2, note=31, velocity=0, time=1),
    Message('note_off', channel=3, note=31, velocity=0, time=0),
    Message('control_change', channel=12, control=64, value=0, time=16),
    Message('note_on', channel=3, note=41, velocity=126, time=12),
    Message('note_on', channel=4, note=69, velocity=117, time=0),
    Message('note_on', channel=4, note=65, velocity=114, time=0),
    Message('note_on', channel=10, note=72, velocity=126, time=0),
    Message('note_on', channel=0, note=53, velocity=119, time=0),
    Message('note_on', channel=8, note=72, velocity=126, time=0),
    Message('note_on', channel=9, note=51, velocity=119, time=0),
    Message('note_on', channel=12, note=41, velocity=106, time=0),
    Message('note_on', channel=9, note=36, velocity=126, time=0),
    Message('note_on', channel=2, note=41, velocity=126, time=0),
    Message('note_on', channel=7, note=72, velocity=126, time=0),
    Message('note_on', channel=9, note=36, velocity=0, time=1),
    Message('note_on', channel=9, note=51, velocity=0, time=0),
    Message('note_on', channel=12, note=62, velocity=0, time=6),
    Message('note_on', channel=12, note=59, velocity=0, time=5),
    Message('control_change', channel=0, control=64, value=127, time=4),
    Message('note_off', channel=12, note=55, velocity=0, time=5),
    Message('control_change', channel=4, control=64, value=0, time=1),
    Message('control_change', channel=12, control=64, value=127, time=46),
    Message('note_on', channel=0, note=60, velocity=118, time=52),
    Message('note_on', channel=0, note=53, velocity=0, time=63),
    Message('note_on', channel=9, note=51, velocity=109, time=57),
    Message('note_on', channel=12, note=48, velocity=104, time=0),
    Message('note_on', channel=0, note=65, velocity=118, time=0),
    Message('note_on', channel=9, note=51, velocity=0, time=1),
    Message('note_on', channel=0, note=60, velocity=0, time=4),
    Message('note_on', channel=0, note=69, velocity=116, time=115),
    Message('note_on', channel=0, note=72, velocity=123, time=120),
    Message('note_on', channel=12, note=53, velocity=105, time=0),
    Message('note_on', channel=9, note=51, velocity=119, time=0),
    Message('note_on', channel=9, note=38, velocity=126, time=0),
    Message('note_on', channel=12, note=60, velocity=106, time=0),
    Message('note_on', channel=12, note=57, velocity=107, time=0),
    Message('note_on', channel=9, note=38, velocity=0, time=1),
    Message('note_on', channel=9, note=51, velocity=0, time=0),
    Message('note_on', channel=0, note=65, velocity=0, time=23),
    Message('note_on', channel=0, note=69, velocity=0, time=9),
    Message('note_on', channel=12, note=60, velocity=0, time=8),
    Message('note_on', channel=0, note=72, velocity=0, time=11),
    Message('note_on', channel=12, note=57, velocity=0, time=4),
    Message('note_on', channel=12, note=53, velocity=0, time=10),
    Message('note_on', channel=12, note=41, velocity=0, time=16),
    Message('note_on', channel=12, note=53, velocity=103, time=38),
    Message('note_on', channel=12, note=60, velocity=101, time=0),
    Message('note_on', channel=12, note=57, velocity=103, time=0),
    Message('note_on', channel=12, note=48, velocity=0, time=13),
    Message('note_on', channel=12, note=60, velocity=0, time=9),
    Message('note_on', channel=12, note=57, velocity=0, time=12),
    Message('note_on', channel=12, note=53, velocity=0, time=10),
    Message('note_on', channel=12, note=57, velocity=103, time=76),
    Message('note_on', channel=12, note=60, velocity=102, time=0),
    Message('note_on', channel=9, note=51, velocity=114, time=0),
    Message('note_on', channel=12, note=53, velocity=102, time=0),
    Message('note_on', channel=9, note=51, velocity=0, time=1),
    Message('note_on', channel=12, note=57, velocity=0, time=30),
    Message('note_on', channel=12, note=60, velocity=0, time=7),
    Message('note_on', channel=12, note=53, velocity=0, time=10),
    Message('note_on', channel=2, note=41, velocity=0, time=43),
    Message('note_on', channel=3, note=41, velocity=0, time=0),
    Message('note_on', channel=3, note=36, velocity=123, time=29),
    Message('note_on', channel=0, note=53, velocity=120, time=0),
    Message('note_on', channel=12, note=53, velocity=101, time=0),
    Message('note_on', channel=12, note=60, velocity=102, time=0),
    Message('note_on', channel=12, note=57, velocity=102, time=0),
    Message('note_on', channel=2, note=36, velocity=123, time=0),
    Message('note_on', channel=0, note=60, velocity=121, time=120),
    Message('note_on', channel=3, note=29, velocity=126, time=0),
    Message('note_on', channel=9, note=51, velocity=119, time=0),
    Message('note_on', channel=12, note=41, velocity=106, time=0),
    Message('note_on', channel=9, note=36, velocity=125, time=0),
    Message('note_on', channel=2, note=29, velocity=126, time=0),
    Message('note_on', channel=9, note=36, velocity=0, time=1),
    Message('note_on', channel=9, note=51, velocity=0, time=0),
    Message('note_on', channel=12, note=60, velocity=0, time=2),
    Message('note_on', channel=12, note=57, velocity=0, time=0),
    Message('note_on', channel=0, note=53, velocity=0, time=19),
    Message('note_on', channel=12, note=53, velocity=0, time=1),
    Message('note_on', channel=2, note=36, velocity=0, time=3),
    Message('note_on', channel=3, note=36, velocity=0, time=0),
    Message('note_on', channel=0, note=60, velocity=0, time=61),
    Message('note_on', channel=0, note=77, velocity=124, time=33),
    Message('note_on', channel=10, note=72, velocity=0, time=1),
    Message('note_on', channel=7, note=72, velocity=0, time=0),
    Message('note_on', channel=8, note=72, velocity=0, time=0),
    Message('note_on', channel=12, note=48, velocity=104, time=119),
    Message('note_on', channel=0, note=81, velocity=122, time=0),
    Message('note_on', channel=9, note=51, velocity=109, time=0),
    Message('note_on', channel=9, note=51, velocity=0, time=1),
    Message('note_on', channel=12, note=41, velocity=0, time=27),
    Message('note_on', channel=0, note=77, velocity=0, time=18),
    Message('note_on', channel=0, note=81, velocity=0, time=52),
    Message('note_on', channel=12, note=48, velocity=0, time=100),
    Message('note_on', channel=9, note=38, velocity=126, time=42),
    Message('note_on', channel=9, note=51, velocity=114, time=0),
    Message('note_on', channel=12, note=60, velocity=105, time=0),
    Message('note_on', channel=12, note=57, velocity=107, time=0),
    Message('note_on', channel=12, note=53, velocity=107, time=0),
    Message('note_on', channel=0, note=84, velocity=125, time=0),
    Message('note_on', channel=9, note=51, velocity=0, time=1),
    Message('note_on', channel=9, note=38, velocity=0, time=0),
    Message('note_on', channel=12, note=60, velocity=0, time=22),
    Message('note_on', channel=12, note=57, velocity=0, time=11),
    Message('note_on', channel=12, note=53, velocity=0, time=22),
    Message('note_on', channel=0, note=84, velocity=0, time=17),
    Message('note_on', channel=0, note=77, velocity=121, time=47),
    Message('note_on', channel=12, note=60, velocity=102, time=0),
    Message('note_on', channel=12, note=57, velocity=104, time=0),
    Message('note_on', channel=0, note=84, velocity=115, time=0),
    Message('note_on', channel=12, note=53, velocity=102, time=0),
    Message('note_on', channel=12, note=60, velocity=0, time=32),
    Message('note_on', channel=12, note=53, velocity=0, time=5),
    Message('note_on', channel=12, note=57, velocity=0, time=3),
    Message('note_on', channel=0, note=77, velocity=0, time=4),
    Message('note_on', channel=0, note=84, velocity=0, time=9),
    Message('note_on', channel=2, note=29, velocity=0, time=57),
    Message('note_on', channel=3, note=29, velocity=0, time=0),
    Message('note_on', channel=9, note=51, velocity=109, time=10),
    Message('note_on', channel=2, note=31, velocity=123, time=0),
    Message('note_on', channel=12, note=53, velocity=103, time=0),
    Message('note_on', channel=12, note=57, velocity=104, time=0),
    Message('note_on', channel=12, note=60, velocity=103, time=0),
    Message('note_on', channel=0, note=76, velocity=121, time=0),
    Message('note_on', channel=3, note=31, velocity=123, time=0),
    Message('note_on', channel=9, note=51, velocity=0, time=1),
    Message('pitchwheel', channel=2, pitch=-643, time=5),
    Message('pitchwheel', channel=3, pitch=-643, time=0),
    Message('pitchwheel', channel=2, pitch=-2442, time=9),
    Message('pitchwheel', channel=3, pitch=-2442, time=0),
    Message('pitchwheel', channel=3, pitch=-3342, time=2),
    Message('pitchwheel', channel=2, pitch=-3342, time=0),
    Message('pitchwheel', channel=2, pitch=-4273, time=4),
    Message('pitchwheel', channel=3, pitch=-4273, time=0),
    Message('pitchwheel', channel=2, pitch=-5173, time=5),
    Message('pitchwheel', channel=3, pitch=-5173, time=0),
    Message('pitchwheel', channel=3, pitch=-6747, time=7),
    Message('pitchwheel', channel=2, pitch=-6747, time=0),
    Message('pitchwheel', channel=2, pitch=-8192, time=2),
    Message('pitchwheel', channel=3, pitch=-8192, time=0),
    Message('note_off', channel=0, note=76, velocity=0, time=10),
    Message('note_off', channel=12, note=60, velocity=0, time=1),
    Message('note_off', channel=12, note=53, velocity=0, time=7),
    Message('note_off', channel=12, note=57, velocity=0, time=1),
    Message('note_off', channel=4, note=69, velocity=0, time=35),
    Message('note_off', channel=4, note=65, velocity=0, time=2),
    Message('note_on', channel=12, note=53, velocity=103, time=29),
    Message('note_on', channel=0, note=74, velocity=121, time=0),
    Message('note_on', channel=12, note=60, velocity=101, time=0),
    Message('note_on', channel=12, note=57, velocity=104, time=0),
    Message('note_on', channel=0, note=74, velocity=0, time=39),
    Message('note_on', channel=12, note=60, velocity=0, time=14),
    Message('pitchwheel', channel=2, pitch=-8032, time=3),
    Message('pitchwheel', channel=3, pitch=-8032, time=0),
    Message('pitchwheel', channel=2, pitch=-6683, time=4),
    Message('pitchwheel', channel=3, pitch=-6683, time=0),
    Message('note_off', channel=12, note=53, velocity=0, time=2),
    Message('note_off', channel=12, note=57, velocity=0, time=2),
    Message('pitchwheel', channel=3, pitch=-5301, time=1),
    Message('pitchwheel', channel=2, pitch=-5301, time=0),
    Message('pitchwheel', channel=3, pitch=-4562, time=4),
    Message('pitchwheel', channel=2, pitch=-4562, time=0),
    Message('pitchwheel', channel=3, pitch=-3631, time=5),
    Message('pitchwheel', channel=2, pitch=-3631, time=0),
    Message('pitchwheel', channel=3, pitch=-2571, time=3),
    Message('pitchwheel', channel=2, pitch=-2571, time=0),
    Message('pitchwheel', channel=2, pitch=-1543, time=6),
    Message('pitchwheel', channel=3, pitch=-1543, time=0),
    Message('pitchwheel', channel=3, pitch=-482, time=3),
    Message('pitchwheel', channel=2, pitch=-482, time=0),
    Message('pitchwheel', channel=2, pitch=0, time=6),
    Message('pitchwheel', channel=3, pitch=0, time=0),
    Message('control_change', channel=0, control=64, value=0, time=19),
    Message('control_change', channel=12, control=64, value=0, time=8),
    Message('note_on', channel=2, note=36, velocity=124, time=1),
    Message('note_on', channel=0, note=72, velocity=123, time=0),
    Message('note_on', channel=12, note=48, velocity=108, time=0),
    Message('note_on', channel=6, note=64, velocity=127, time=0),
    Message('note_on', channel=9, note=51, velocity=114, time=0),
    Message('note_on', channel=9, note=36, velocity=126, time=0),
    Message('note_on', channel=3, note=36, velocity=124, time=0),
    Message('note_on', channel=9, note=36, velocity=0, time=1),
    Message('note_on', channel=9, note=51, velocity=0, time=0),
    Message('note_on', channel=2, note=31, velocity=0, time=4),
    Message('note_on', channel=3, note=31, velocity=0, time=0),
    Message('control_change', channel=0, control=64, value=127, time=58),
    Message('note_on', channel=9, note=51, velocity=114, time=177),
    Message('note_on', channel=12, note=55, velocity=105, time=0),
    Message('note_on', channel=0, note=60, velocity=117, time=0),
    Message('note_on', channel=9, note=51, velocity=0, time=1),
    Message('control_change', channel=12, control=64, value=127, time=14),
    Message('note_off', channel=0, note=72, velocity=0, time=39),
    Message('note_off', channel=12, note=55, velocity=0, time=171),
    Message('note_on', channel=9, note=38, velocity=126, time=15),
    Message('note_on', channel=12, note=67, velocity=105, time=0),
    Message('note_on', channel=12, note=64, velocity=106, time=0),
    Message('note_on', channel=0, note=72, velocity=123, time=0),
    Message('note_on', channel=12, note=60, velocity=107, time=0),
    Message('note_on', channel=9, note=51, velocity=119, time=0),
    Message('note_on', channel=9, note=51, velocity=0, time=1),
    Message('note_on', channel=9, note=38, velocity=0, time=0),
    Message('note_on', channel=12, note=48, velocity=0, time=11),
    Message('note_on', channel=12, note=67, velocity=0, time=20),
    Message('note_on', channel=12, note=64, velocity=0, time=9),
    Message('note_on', channel=12, note=60, velocity=0, time=10),
    Message('note_on', channel=12, note=60, velocity=102, time=69),
    Message('note_on', channel=12, note=67, velocity=102, time=0),
    Message('note_on', channel=12, note=64, velocity=103, time=0),
    Message('note_on', channel=0, note=67, velocity=119, time=0),
    Message('note_on', channel=0, note=60, velocity=0, time=10),
    Message('note_on', channel=12, note=67, velocity=0, time=30),
    Message('note_on', channel=12, note=60, velocity=0, time=1),
    Message('note_on', channel=12, note=64, velocity=0, time=3),
    Message('note_on', channel=0, note=72, velocity=0, time=9),
    Message('note_on', channel=0, note=67, velocity=0, time=5),
    Message('note_on', channel=3, note=36, velocity=0, time=45),
    Message('note_on', channel=2, note=36, velocity=0, time=0),
    Message('note_on', channel=3, note=28, velocity=126, time=17),
    Message('note_on', channel=12, note=60, velocity=102, time=0),
    Message('note_on', channel=2, note=28, velocity=126, time=0),
    Message('note_on', channel=0, note=79, velocity=125, time=0),
    Message('note_on', channel=12, note=64, velocity=103, time=0),
    Message('note_on', channel=0, note=72, velocity=115, time=0),
    Message('note_on', channel=12, note=67, velocity=102, time=0),
    Message('note_on', channel=9, note=51, velocity=114, time=0),
    Message('note_on', channel=9, note=51, velocity=0, time=1),
    Message('note_on', channel=12, note=67, velocity=0, time=33),
    Message('note_on', channel=12, note=60, velocity=0, time=2),
    Message('note_on', channel=12, note=64, velocity=0, time=1),
    Message('note_on', channel=0, note=72, velocity=0, time=2),
    Message('note_on', channel=0, note=79, velocity=0, time=10),
    Message('note_on', channel=9, note=36, velocity=125, time=71),
    Message('note_on', channel=3, note=29, velocity=125, time=0),
    Message('note_on', channel=12, note=60, velocity=100, time=0),
    Message('note_on', channel=2, note=29, velocity=125, time=0),
    Message('note_on', channel=12, note=64, velocity=102, time=0),
    Message('note_on', channel=12, note=67, velocity=101, time=0),
    Message('note_on', channel=9, note=36, velocity=0, time=1),
    Message('note_on', channel=2, note=28, velocity=0, time=6),
    Message('note_on', channel=3, note=28, velocity=0, time=0),
    Message('note_on', channel=12, note=67, velocity=0, time=50),
    Message('note_on', channel=12, note=64, velocity=0, time=4),
    Message('note_on', channel=12, note=60, velocity=0, time=8),
    Message('control_change', channel=0, control=64, value=0, time=45),
    Message('note_on', channel=3, note=31, velocity=125, time=6),
    Message('note_on', channel=0, note=55, velocity=118, time=0),
    Message('note_on', channel=6, note=62, velocity=127, time=0),
    Message('note_on', channel=9, note=51, velocity=124, time=0),
    Message('note_on', channel=9, note=36, velocity=126, time=0),
    Message('note_on', channel=12, note=43, velocity=106, time=0),
    Message('note_on', channel=2, note=31, velocity=125, time=0),
    Message('note_on', channel=9, note=36, velocity=0, time=1),
    Message('note_on', channel=9, note=51, velocity=0, time=0),
    Message('note_on', channel=6, note=64, velocity=0, time=5),
    Message('note_on', channel=2, note=29, velocity=0, time=9),
    Message('note_on', channel=3, note=29, velocity=0, time=0),
    Message('control_change', channel=0, control=64, value=127, time=55),
    Message('note_on', channel=0, note=62, velocity=120, time=50),
    Message('control_change', channel=12, control=64, value=0, time=19),
    Message('note_off', channel=0, note=55, velocity=0, time=22),
    Message('note_off', channel=0, note=62, velocity=0, time=59),
    Message('note_on', channel=9, note=51, velocity=119, time=20),
    Message('note_on', channel=12, note=50, velocity=105, time=0),
    Message('note_on', channel=0, note=67, velocity=119, time=0),
    Message('note_on', channel=9, note=51, velocity=0, time=1),
    Message('note_on', channel=0, note=71, velocity=119, time=119),
    Message('note_on', channel=0, note=67, velocity=0, time=80),
    Message('note_on', channel=0, note=71, velocity=0, time=3),
    Message('control_change', channel=12, control=64, value=127, time=34),
    Message('note_on', channel=0, note=74, velocity=125, time=3),
    Message('note_on', channel=9, note=38, velocity=126, time=0),
    Message('note_on', channel=0, note=67, velocity=112, time=0),
    Message('note_on', channel=12, note=59, velocity=107, time=0),
    Message('note_on', channel=5, note=59, velocity=126, time=0),
    Message('note_on', channel=9, note=51, velocity=124, time=0),
    Message('note_on', channel=12, note=62, velocity=105, time=0),
    Message('note_on', channel=12, note=55, velocity=105, time=0),
    Message('note_on', channel=9, note=51, velocity=0, time=1),
    Message('note_on', channel=9, note=38, velocity=0, time=0),
    Message('note_on', channel=0, note=67, velocity=0, time=24),
    Message('note_on', channel=12, note=62, velocity=0, time=11),
    Message('note_on', channel=12, note=59, velocity=0, time=8),
    Message('note_on', channel=12, note=55, velocity=0, time=8),
    Message('note_on', channel=12, note=43, velocity=0, time=24),
    Message('note_on', channel=12, note=50, velocity=0, time=5),
    Message('note_on', channel=0, note=74, velocity=0, time=7),
    Message('note_on', channel=12, note=55, velocity=102, time=32),
    Message('note_on', channel=12, note=62, velocity=103, time=0),
    Message('note_on', channel=5, note=60, velocity=121, time=0),
    Message('note_on', channel=12, note=59, velocity=104, time=0),
    Message('note_on', channel=5, note=59, velocity=0, time=15),
    Message('note_on', channel=12, note=62, velocity=0, time=24),
    Message('note_on', channel=12, note=55, velocity=0, time=8),
    Message('note_on', channel=12, note=59, velocity=0, time=1),
    Message('note_on', channel=2, note=31, velocity=0, time=57),
    Message('note_on', channel=3, note=31, velocity=0, time=0),
    Message('note_on', channel=0, note=67, velocity=119, time=15),
    Message('note_on', channel=9, note=51, velocity=114, time=0),
    Message('note_on', channel=12, note=59, velocity=104, time=0),
    Message('note_on', channel=5, note=59, velocity=125, time=0),
    Message('note_on', channel=12, note=62, velocity=103, time=0),
    Message('note_on', channel=12, note=55, velocity=103, time=0),
    Message('note_on', channel=9, note=51, velocity=0, time=1),
    Message('note_on', channel=5, note=60, velocity=0, time=26),
    Message('note_on', channel=12, note=62, velocity=0, time=14),
    Message('note_on', channel=12, note=55, velocity=0, time=6),
    Message('note_on', channel=12, note=59, velocity=0, time=1),
    Message('note_on', channel=0, note=67, velocity=0, time=0),
    Message('note_on', channel=12, note=62, velocity=102, time=72),
    Message('note_on', channel=12, note=59, velocity=103, time=0),
    Message('note_on', channel=5, note=55, velocity=113, time=0),
    Message('note_on', channel=12, note=55, velocity=101, time=0),
    Message('note_on', channel=5, note=59, velocity=0, time=5),
    Message('control_change', channel=0, control=64, value=0, time=61),
    Message('note_off', channel=12, note=55, velocity=0, time=19),
    Message('note_off', channel=12, note=62, velocity=0, time=11),
    Message('note_off', channel=12, note=59, velocity=0, time=2),
    Message('note_on', channel=12, note=45, velocity=107, time=22),
    Message('note_on', channel=6, note=64, velocity=127, time=0),
    Message('note_on', channel=5, note=57, velocity=123, time=0),
    Message('note_on', channel=9, note=36, velocity=126, time=0),
    Message('note_on', channel=2, note=33, velocity=126, time=0),
    Message('note_on', channel=9, note=51, velocity=124, time=0),
    Message('note_on', channel=3, note=33, velocity=126, time=0),
    Message('note_on', channel=0, note=57, velocity=119, time=0),
    Message('note_on', channel=9, note=51, velocity=0, time=1),
    Message('note_on', channel=9, note=36, velocity=0, time=0),
    Message('note_on', channel=6, note=62, velocity=0, time=8),
    Message('note_on', channel=5, note=55, velocity=0, time=12),
    Message('control_change', channel=0, control=64, value=127, time=12),
    Message('note_on', channel=0, note=64, velocity=121, time=87),
    Message('note_on', channel=0, note=57, velocity=0, time=25),
    Message('control_change', channel=12, control=64, value=0, time=11),
    Message('note_off', channel=0, note=64, velocity=0, time=12),
    Message('note_on', channel=9, note=51, velocity=119, time=72),
    Message('note_on', channel=12, note=52, velocity=105, time=0),
    Message('note_on', channel=0, note=81, velocity=123, time=0),
    Message('note_on', channel=9, note=51, velocity=0, time=1),
    Message('note_on', channel=0, note=81, velocity=0, time=75),
    Message('note_on', channel=0, note=88, velocity=121, time=44),
    Message('note_on', channel=0, note=88, velocity=0, time=107),
    Message('note_on', channel=12, note=60, velocity=108, time=13),
    Message('note_on', channel=12, note=57, velocity=106, time=0),
    Message('note_on', channel=0, note=83, velocity=124, time=0),
    Message('note_on', channel=12, note=64, velocity=105, time=0),
    Message('note_on', channel=9, note=51, velocity=124, time=0),
    Message('note_on', channel=9, note=38, velocity=125, time=0),
    Message('note_on', channel=9, note=38, velocity=0, time=1),
    Message('note_on', channel=9, note=51, velocity=0, time=0),
    Message('control_change', channel=12, control=64, value=127, time=8),
    Message('note_off', channel=12, note=64, velocity=0, time=26),
    Message('note_off', channel=12, note=52, velocity=0, time=5),
    Message('note_off', channel=12, note=60, velocity=0, time=3),
    Message('note_off', channel=12, note=45, velocity=0, time=9),
    Message('note_off', channel=12, note=57, velocity=0, time=5),
    Message('note_off', channel=0, note=83, velocity=0, time=7),
    Message('note_on', channel=12, note=64, velocity=102, time=56),
    Message('note_on', channel=12, note=57, velocity=101, time=0),
    Message('note_on', channel=12, note=60, velocity=102, time=0),
    Message('note_on', channel=12, note=57, velocity=0, time=28),
    Message('note_on', channel=12, note=64, velocity=0, time=8),
    Message('note_on', channel=12, note=60, velocity=0, time=1),
    Message('note_on', channel=12, note=57, velocity=102, time=83),
    Message('note_on', channel=0, note=79, velocity=124, time=0),
    Message('note_on', channel=12, note=64, velocity=102, time=0),
    Message('note_on', channel=12, note=60, velocity=102, time=0),
    Message('note_on', channel=9, note=51, velocity=119, time=0),
    Message('note_on', channel=9, note=51, velocity=0, time=1),
    Message('note_on', channel=5, note=57, velocity=0, time=29),
    Message('note_on', channel=12, note=60, velocity=0, time=5),
    Message('note_on', channel=12, note=64, velocity=0, time=0),
    Message('note_on', channel=12, note=57, velocity=0, time=10),
    Message('note_on', channel=0, note=79, velocity=0, time=3),
    Message('note_on', channel=2, note=33, velocity=0, time=39),
    Message('note_on', channel=3, note=33, velocity=0, time=0),
    Message('note_on', channel=3, note=40, velocity=122, time=33),
    Message('note_on', channel=12, note=60, velocity=101, time=0),
    Message('note_on', channel=2, note=40, velocity=122, time=0),
    Message('note_on', channel=9, note=36, velocity=126, time=0),
    Message('note_on', channel=12, note=57, velocity=100, time=0),
    Message('note_on', channel=12, note=64, velocity=101, time=0),
    Message('note_on', channel=9, note=36, velocity=0, time=1),
    Message('control_change', channel=0, control=64, value=0, time=62),
    Message('note_off', channel=12, note=64, velocity=0, time=46),
    Message('note_off', channel=12, note=60, velocity=0, time=3),
    Message('note_on', channel=9, note=51, velocity=124, time=8),
    Message('note_on', channel=0, note=53, velocity=120, time=0),
    Message('note_on', channel=12, note=41, velocity=104, time=0),
    Message('note_on', channel=0, note=84, velocity=117, time=0),
    Message('note_on', channel=6, note=65, velocity=127, time=0),
    Message('note_on', channel=9, note=36, velocity=126, time=0),
    Message('note_on', channel=0, note=77, velocity=120, time=0),
    Message('note_on', channel=3, note=41, velocity=125, time=0),
    Message('note_on', channel=2, note=41, velocity=125, time=0),
    Message('note_on', channel=9, note=36, velocity=0, time=1),
    Message('note_on', channel=9, note=51, velocity=0, time=0),
    Message('note_on', channel=12, note=57, velocity=0, time=9),
    Message('control_change', channel=0, control=64, value=127, time=15),
    Message('note_off', channel=3, note=40, velocity=0, time=0),
    Message('note_off', channel=2, note=40, velocity=0, time=0),
    Message('note_off', channel=0, note=84, velocity=0, time=7),
    Message('note_off', channel=6, note=64, velocity=0, time=1),
    Message('control_change', channel=12, control=64, value=0, time=116),
    Message('note_off', channel=0, note=77, velocity=0, time=54),
    Message('note_on', channel=9, note=51, velocity=114, time=37),
    Message('note_on', channel=12, note=48, velocity=104, time=0),
    Message('note_on', channel=9, note=51, velocity=0, time=1),
    Message('control_change', channel=12, control=64, value=127, time=28),
    Message('note_on', channel=0, note=60, velocity=119, time=91),
    Message('note_on', channel=12, note=41, velocity=0, time=8),
    Message('note_on', channel=0, note=53, velocity=0, time=50),
    Message('note_on', channel=0, note=60, velocity=0, time=49),
    Message('note_on', channel=0, note=72, velocity=117, time=13),
    Message('note_on', channel=0, note=65, velocity=120, time=0),
    Message('note_on', channel=9, note=38, velocity=125, time=0),
    Message('note_on', channel=9, note=51, velocity=119, time=0),
    Message('note_on', channel=12, note=57, velocity=106, time=0),
    Message('note_on', channel=12, note=60, velocity=104, time=0),
    Message('note_on', channel=12, note=53, velocity=105, time=0),
    Message('note_on', channel=9, note=51, velocity=0, time=1),
    Message('note_on', channel=9, note=38, velocity=0, time=0),
    Message('note_on', channel=12, note=48, velocity=0, time=7),
    Message('note_on', channel=0, note=72, velocity=0, time=17),
    Message('note_on', channel=12, note=60, velocity=0, time=8),
    Message('note_on', channel=12, note=57, velocity=0, time=15),
    Message('note_on', channel=12, note=53, velocity=0, time=11),
    Message('note_on', channel=12, note=57, velocity=101, time=61),
    Message('note_on', channel=12, note=60, velocity=102, time=0),
    Message('note_on', channel=12, note=53, velocity=101, time=0),
    Message('note_on', channel=12, note=57, velocity=0, time=41),
    Message('note_on', channel=12, note=60, velocity=0, time=4),
    Message('note_on', channel=12, note=53, velocity=0, time=14),
    Message('note_on', channel=0, note=65, velocity=0, time=25),
    Message('note_on', channel=3, note=41, velocity=0, time=30),
    Message('note_on', channel=2, note=41, velocity=0, time=0),
    Message('note_on', channel=12, note=53, velocity=102, time=6),
    Message('note_on', channel=9, note=51, velocity=114, time=0),
    Message('note_on', channel=3, note=36, velocity=122, time=0),
    Message('note_on', channel=2, note=36, velocity=122, time=0),
    Message('note_on', channel=12, note=57, velocity=101, time=0),
    Message('note_on', channel=0, note=65, velocity=112, time=0),
    Message('note_on', channel=12, note=60, velocity=100, time=0),
    Message('note_on', channel=0, note=69, velocity=122, time=0),
    Message('note_on', channel=9, note=51, velocity=0, time=1),
    Message('note_on', channel=12, note=60, velocity=0, time=29),
    Message('note_on', channel=12, note=57, velocity=0, time=7),
    Message('note_on', channel=12, note=53, velocity=0, time=11),
    Message('note_on', channel=0, note=65, velocity=0, time=6),
    Message('note_on', channel=12, note=53, velocity=101, time=66),
    Message('note_on', channel=12, note=57, velocity=103, time=0),
    Message('note_on', channel=0, note=69, velocity=0, time=5),
    Message('note_on', channel=12, note=57, velocity=0, time=99),
    Message('note_on', channel=3, note=36, velocity=0, time=3),
    Message('note_on', channel=2, note=36, velocity=0, time=0),
    Message('note_on', channel=12, note=53, velocity=0, time=5),
    Message('note_on', channel=9, note=51, velocity=119, time=8),
    Message('note_on', channel=2, note=29, velocity=125, time=0),
    Message('note_on', channel=12, note=41, velocity=106, time=0),
    Message('note_on', channel=9, note=36, velocity=126, time=0),
    Message('note_on', channel=3, note=29, velocity=125, time=0),
    Message('note_on', channel=9, note=36, velocity=0, time=1),
    Message('note_on', channel=9, note=51, velocity=0, time=0),
    Message('control_change', channel=12, control=64, value=0, time=200),
    Message('note_on', channel=9, note=51, velocity=119, time=39),
    Message('note_on', channel=12, note=48, velocity=106, time=0),
    Message('note_on', channel=9, note=51, velocity=0, time=1),
    Message('pitchwheel', channel=7, pitch=-161, time=7),
    Message('pitchwheel', channel=8, pitch=-161, time=0),
    Message('pitchwheel', channel=10, pitch=-161, time=0),
    Message('pitchwheel', channel=8, pitch=-290, time=4),
    Message('pitchwheel', channel=10, pitch=-290, time=0),
    Message('pitchwheel', channel=7, pitch=-290, time=0),
    Message('pitchwheel', channel=7, pitch=-450, time=4),
    Message('pitchwheel', channel=10, pitch=-450, time=0),
    Message('pitchwheel', channel=8, pitch=-450, time=0),
    Message('pitchwheel', channel=8, pitch=-643, time=5),
    Message('pitchwheel', channel=7, pitch=-643, time=0),
    Message('pitchwheel', channel=10, pitch=-643, time=0),
    Message('pitchwheel', channel=8, pitch=-836, time=4),
    Message('pitchwheel', channel=7, pitch=-836, time=0),
    Message('pitchwheel', channel=10, pitch=-836, time=0),
    Message('control_change', channel=12, control=64, value=127, time=0),
    Message('pitchwheel', channel=7, pitch=-1221, time=5),
    Message('pitchwheel', channel=8, pitch=-1221, time=0),
    Message('pitchwheel', channel=10, pitch=-1221, time=0),
    Message('pitchwheel', channel=7, pitch=-1382, time=3),
    Message('pitchwheel', channel=8, pitch=-1382, time=0),
    Message('pitchwheel', channel=10, pitch=-1382, time=0),
    Message('pitchwheel', channel=10, pitch=-1575, time=6),
    Message('pitchwheel', channel=8, pitch=-1575, time=0),
    Message('pitchwheel', channel=7, pitch=-1575, time=0),
    Message('pitchwheel', channel=7, pitch=-1800, time=3),
    Message('pitchwheel', channel=8, pitch=-1800, time=0),
    Message('pitchwheel', channel=10, pitch=-1800, time=0),
    Message('pitchwheel', channel=7, pitch=-2089, time=4),
    Message('pitchwheel', channel=8, pitch=-2089, time=0),
    Message('pitchwheel', channel=10, pitch=-2089, time=0),
    Message('pitchwheel', channel=8, pitch=-2346, time=5),
    Message('pitchwheel', channel=10, pitch=-2346, time=0),
    Message('pitchwheel', channel=7, pitch=-2346, time=0),
    Message('pitchwheel', channel=7, pitch=-2603, time=4),
    Message('pitchwheel', channel=10, pitch=-2603, time=0),
    Message('pitchwheel', channel=8, pitch=-2603, time=0),
    Message('pitchwheel', channel=8, pitch=-2828, time=5),
    Message('pitchwheel', channel=10, pitch=-2828, time=0),
    Message('pitchwheel', channel=7, pitch=-2828, time=0),
    Message('pitchwheel', channel=10, pitch=-3149, time=4),
    Message('pitchwheel', channel=7, pitch=-3149, time=0),
    Message('pitchwheel', channel=8, pitch=-3149, time=0),
    Message('pitchwheel', channel=8, pitch=-3438, time=5),
    Message('pitchwheel', channel=7, pitch=-3438, time=0),
    Message('pitchwheel', channel=10, pitch=-3438, time=0),
    Message('pitchwheel', channel=7, pitch=-3663, time=4),
    Message('pitchwheel', channel=8, pitch=-3663, time=0),
    Message('pitchwheel', channel=10, pitch=-3663, time=0),
    Message('pitchwheel', channel=7, pitch=-3952, time=5),
    Message('pitchwheel', channel=10, pitch=-3952, time=0),
    Message('pitchwheel', channel=8, pitch=-3952, time=0),
    Message('pitchwheel', channel=8, pitch=-4337, time=4),
    Message('pitchwheel', channel=7, pitch=-4337, time=0),
    Message('pitchwheel', channel=10, pitch=-4337, time=0),
    Message('pitchwheel', channel=10, pitch=-4659, time=5),
    Message('pitchwheel', channel=8, pitch=-4659, time=0),
    Message('pitchwheel', channel=7, pitch=-4659, time=0),
    Message('pitchwheel', channel=7, pitch=-5012, time=4),
    Message('pitchwheel', channel=8, pitch=-5012, time=0),
    Message('pitchwheel', channel=10, pitch=-5012, time=0),
    Message('pitchwheel', channel=8, pitch=-5205, time=5),
    Message('pitchwheel', channel=10, pitch=-5205, time=0),
    Message('pitchwheel', channel=7, pitch=-5205, time=0),
    Message('pitchwheel', channel=8, pitch=-5655, time=4),
    Message('pitchwheel', channel=7, pitch=-5655, time=0),
    Message('pitchwheel', channel=10, pitch=-5655, time=0),
    Message('pitchwheel', channel=7, pitch=-6361, time=5),
    Message('pitchwheel', channel=8, pitch=-6361, time=0),
    Message('pitchwheel', channel=10, pitch=-6361, time=0),
    Message('pitchwheel', channel=10, pitch=-6940, time=3),
    Message('pitchwheel', channel=8, pitch=-6940, time=0),
    Message('pitchwheel', channel=7, pitch=-6940, time=0),
    Message('pitchwheel', channel=10, pitch=-7582, time=4),
    Message('pitchwheel', channel=8, pitch=-7582, time=0),
    Message('pitchwheel', channel=7, pitch=-7582, time=0),
    Message('pitchwheel', channel=8, pitch=-8160, time=5),
    Message('pitchwheel', channel=10, pitch=-8160, time=0),
    Message('pitchwheel', channel=7, pitch=-8160, time=0),
    Message('note_on', channel=0, note=53, velocity=119, time=3),
    Message('pitchwheel', channel=8, pitch=-8192, time=3),
    Message('pitchwheel', channel=10, pitch=-8192, time=0),
    Message('pitchwheel', channel=7, pitch=-8192, time=0),
    Message('control_change', channel=0, control=64, value=0, time=34),
    Message('control_change', channel=0, control=64, value=127, time=74),
    Message('note_on', channel=10, note=69, velocity=126, time=9),
    Message('note_on', channel=12, note=53, velocity=106, time=0),
    Message('note_on', channel=9, note=38, velocity=125, time=0),
    Message('note_on', channel=12, note=60, velocity=105, time=0),
    Message('note_on', channel=7, note=69, velocity=126, time=0),
    Message('note_on', channel=8, note=69, velocity=126, time=0),
    Message('note_on', channel=12, note=57, velocity=108, time=0),
    Message('note_on', channel=9, note=51, velocity=119, time=0),
    Message('note_on', channel=0, note=65, velocity=121, time=0),
    Message('note_on', channel=9, note=51, velocity=0, time=1),
    Message('note_on', channel=9, note=38, velocity=0, time=0),
    Message('note_on', channel=12, note=41, velocity=0, time=11),
    Message('note_on', channel=0, note=53, velocity=0, time=13),
    Message('note_on', channel=12, note=60, velocity=0, time=7),
    Message('note_on', channel=12, note=57, velocity=0, time=4),
    Message('note_on', channel=12, note=53, velocity=0, time=17),
    Message('note_on', channel=12, note=48, velocity=0, time=0),
    Message('note_on', channel=12, note=53, velocity=102, time=67),
    Message('note_on', channel=12, note=57, velocity=103, time=0),
    Message('note_on', channel=0, note=69, velocity=121, time=0),
    Message('note_on', channel=12, note=60, velocity=103, time=0),
    Message('note_on', channel=12, note=60, velocity=0, time=36),
    Message('note_on', channel=12, note=57, velocity=0, time=1),
    Message('pitchwheel', channel=8, pitch=-8160, time=6),
    Message('pitchwheel', channel=7, pitch=-8160, time=0),
    Message('pitchwheel', channel=10, pitch=-8160, time=0),
    Message('note_off', channel=12, note=53, velocity=0, time=2),
    Message('pitchwheel', channel=7, pitch=-7968, time=3),
    Message('pitchwheel', channel=10, pitch=-7968, time=0),
    Message('pitchwheel', channel=8, pitch=-7968, time=0),
    Message('pitchwheel', channel=10, pitch=-7518, time=4),
    Message('pitchwheel', channel=7, pitch=-7518, time=0),
    Message('pitchwheel', channel=8, pitch=-7518, time=0),
    Message('pitchwheel', channel=7, pitch=-7197, time=5),
    Message('pitchwheel', channel=10, pitch=-7197, time=0),
    Message('pitchwheel', channel=8, pitch=-7197, time=0),
    Message('note_off', channel=0, note=69, velocity=0, time=1),
    Message('pitchwheel', channel=8, pitch=-6875, time=3),
    Message('pitchwheel', channel=7, pitch=-6875, time=0),
    Message('pitchwheel', channel=10, pitch=-6875, time=0),
    Message('pitchwheel', channel=10, pitch=-6426, time=5),
    Message('pitchwheel', channel=8, pitch=-6426, time=0),
    Message('pitchwheel', channel=7, pitch=-6426, time=0),
    Message('pitchwheel', channel=8, pitch=-5847, time=4),
    Message('pitchwheel', channel=7, pitch=-5847, time=0),
    Message('pitchwheel', channel=10, pitch=-5847, time=0),
    Message('pitchwheel', channel=8, pitch=-5398, time=5),
    Message('pitchwheel', channel=10, pitch=-5398, time=0),
    Message('pitchwheel', channel=7, pitch=-5398, time=0),
    Message('pitchwheel', channel=8, pitch=-5205, time=4),
    Message('pitchwheel', channel=7, pitch=-5205, time=0),
    Message('pitchwheel', channel=10, pitch=-5205, time=0),
    Message('note_off', channel=0, note=65, velocity=0, time=1),
    Message('pitchwheel', channel=8, pitch=-5012, time=4),
    Message('pitchwheel', channel=10, pitch=-5012, time=0),
    Message('pitchwheel', channel=7, pitch=-5012, time=0),
    Message('pitchwheel', channel=7, pitch=-4755, time=4),
    Message('pitchwheel', channel=8, pitch=-4755, time=0),
    Message('pitchwheel', channel=10, pitch=-4755, time=0),
    Message('pitchwheel', channel=10, pitch=-4562, time=5),
    Message('pitchwheel', channel=8, pitch=-4562, time=0),
    Message('pitchwheel', channel=7, pitch=-4562, time=0),
    Message('pitchwheel', channel=8, pitch=-4370, time=4),
    Message('pitchwheel', channel=7, pitch=-4370, time=0),
    Message('pitchwheel', channel=10, pitch=-4370, time=0),
    Message('pitchwheel', channel=8, pitch=-4177, time=3),
    Message('pitchwheel', channel=10, pitch=-4177, time=0),
    Message('pitchwheel', channel=7, pitch=-4177, time=0),
    Message('pitchwheel', channel=7, pitch=-3920, time=5),
    Message('pitchwheel', channel=10, pitch=-3920, time=0),
    Message('pitchwheel', channel=8, pitch=-3920, time=0),
    Message('pitchwheel', channel=10, pitch=-3759, time=4),
    Message('pitchwheel', channel=8, pitch=-3759, time=0),
    Message('pitchwheel', channel=7, pitch=-3759, time=0),
    Message('pitchwheel', channel=7, pitch=-3566, time=5),
    Message('pitchwheel', channel=8, pitch=-3566, time=0),
    Message('pitchwheel', channel=10, pitch=-3566, time=0),
    Message('pitchwheel', channel=8, pitch=-3438, time=4),
    Message('pitchwheel', channel=7, pitch=-3438, time=0),
    Message('pitchwheel', channel=10, pitch=-3438, time=0),
    Message('note_on', channel=12, note=60, velocity=102, time=2),
    Message('note_on', channel=0, note=72, velocity=124, time=0),
    Message('note_on', channel=12, note=57, velocity=102, time=0),
    Message('note_on', channel=12, note=53, velocity=102, time=0),
    Message('note_on', channel=0, note=65, velocity=112, time=0),
    Message('note_on', channel=9, note=51, velocity=119, time=0),
    Message('note_on', channel=9, note=51, velocity=0, time=1),
    Message('pitchwheel', channel=7, pitch=-3277, time=4),
    Message('pitchwheel', channel=8, pitch=-3277, time=0),
    Message('pitchwheel', channel=10, pitch=-3277, time=0),
    Message('note_off', channel=0, note=65, velocity=0, time=4),
    Message('pitchwheel', channel=10, pitch=-2860, time=5),
    Message('pitchwheel', channel=8, pitch=-2860, time=0),
    Message('pitchwheel', channel=7, pitch=-2860, time=0),
    Message('pitchwheel', channel=7, pitch=-2763, time=2),
    Message('pitchwheel', channel=8, pitch=-2763, time=0),
    Message('pitchwheel', channel=10, pitch=-2763, time=0),
    Message('pitchwheel', channel=8, pitch=-2667, time=5),
    Message('pitchwheel', channel=7, pitch=-2667, time=0),
    Message('pitchwheel', channel=10, pitch=-2667, time=0),
    Message('pitchwheel', channel=8, pitch=-2506, time=4),
    Message('pitchwheel', channel=7, pitch=-2506, time=0),
    Message('pitchwheel', channel=10, pitch=-2506, time=0),
    Message('pitchwheel', channel=10, pitch=-2442, time=5),
    Message('pitchwheel', channel=7, pitch=-2442, time=0),
    Message('pitchwheel', channel=8, pitch=-2442, time=0),
    Message('pitchwheel', channel=8, pitch=-2378, time=4),
    Message('pitchwheel', channel=10, pitch=-2378, time=0),
    Message('pitchwheel', channel=7, pitch=-2378, time=0),
    Message('note_off', channel=12, note=60, velocity=0, time=0),
    Message('pitchwheel', channel=10, pitch=-2281, time=3),
    Message('pitchwheel', channel=8, pitch=-2281, time=0),
    Message('pitchwheel', channel=7, pitch=-2281, time=0),
    Message('pitchwheel', channel=10, pitch=-2185, time=6),
    Message('pitchwheel', channel=8, pitch=-2185, time=0),
    Message('pitchwheel', channel=7, pitch=-2185, time=0),
    Message('note_off', channel=12, note=57, velocity=0, time=2),
    Message('pitchwheel', channel=8, pitch=-2057, time=3),
    Message('pitchwheel', channel=10, pitch=-2057, time=0),
    Message('pitchwheel', channel=7, pitch=-2057, time=0),
    Message('note_off', channel=12, note=53, velocity=0, time=0),
    Message('pitchwheel', channel=7, pitch=-1864, time=4),
    Message('pitchwheel', channel=10, pitch=-1864, time=0),
    Message('pitchwheel', channel=8, pitch=-1864, time=0),
    Message('note_off', channel=0, note=72, velocity=0, time=1),
    Message('pitchwheel', channel=8, pitch=-1735, time=2),
    Message('pitchwheel', channel=10, pitch=-1735, time=0),
    Message('pitchwheel', channel=7, pitch=-1735, time=0),
    Message('pitchwheel', channel=10, pitch=-1510, time=5),
    Message('pitchwheel', channel=7, pitch=-1510, time=0),
    Message('pitchwheel', channel=8, pitch=-1510, time=0),
    Message('pitchwheel', channel=8, pitch=-1382, time=4),
    Message('pitchwheel', channel=10, pitch=-1382, time=0),
    Message('pitchwheel', channel=7, pitch=-1382, time=0),
    Message('pitchwheel', channel=8, pitch=-1286, time=5),
    Message('pitchwheel', channel=7, pitch=-1286, time=0),
    Message('pitchwheel', channel=10, pitch=-1286, time=0),
    Message('pitchwheel', channel=7, pitch=-900, time=4),
    Message('pitchwheel', channel=8, pitch=-900, time=0),
    Message('pitchwheel', channel=10, pitch=-900, time=0),
    Message('note_off', channel=2, note=29, velocity=0, time=1),
    Message('note_off', channel=3, note=29, velocity=0, time=0),
    Message('pitchwheel', channel=7, pitch=-707, time=4),
    Message('pitchwheel', channel=8, pitch=-707, time=0),
    Message('pitchwheel', channel=10, pitch=-707, time=0),
    Message('pitchwheel', channel=8, pitch=-450, time=4),
    Message('pitchwheel', channel=10, pitch=-450, time=0),
    Message('pitchwheel', channel=7, pitch=-450, time=0),
    Message('pitchwheel', channel=10, pitch=-258, time=5),
    Message('pitchwheel', channel=8, pitch=-258, time=0),
    Message('pitchwheel', channel=7, pitch=-258, time=0),
    Message('pitchwheel', channel=7, pitch=0, time=4),
    Message('pitchwheel', channel=8, pitch=0, time=0),
    Message('pitchwheel', channel=10, pitch=0, time=0),
    Message('note_on', channel=12, note=60, velocity=102, time=29),
    Message('note_on', channel=9, note=36, velocity=125, time=0),
    Message('note_on', channel=12, note=57, velocity=102, time=0),
    Message('note_on', channel=12, note=53, velocity=102, time=0),
    Message('note_on', channel=9, note=36, velocity=0, time=1),
    Message('note_on', channel=6, note=65, velocity=0, time=12),
    Message('control_change', channel=0, control=64, value=0, time=54),
    Message('note_off', channel=8, note=69, velocity=0, time=3),
    Message('note_off', channel=10, note=69, velocity=0, time=0),
    Message('note_off', channel=7, note=69, velocity=0, time=0),
    Message('note_off', channel=12, note=53, velocity=0, time=37),
    Message('control_change', channel=12, control=64, value=0, time=11),
    Message('note_on', channel=7, note=67, velocity=126, time=2),
    Message('note_on', channel=12, note=43, velocity=107, time=0),
    Message('note_on', channel=0, note=71, velocity=124, time=0),
    Message('note_on', channel=2, note=31, velocity=125, time=0),
    Message('note_on', channel=8, note=67, velocity=126, time=0),
    Message('note_on', channel=3, note=31, velocity=125, time=0),
    Message('note_on', channel=10, note=67, velocity=126, time=0),
    Message('note_on', channel=0, note=67, velocity=121, time=0),
    Message('note_on', channel=0, note=74, velocity=122, time=0),
    Message('note_on', channel=9, note=36, velocity=126, time=0),
    Message('note_on', channel=9, note=51, velocity=124, time=0),
    Message('note_on', channel=0, note=55, velocity=119, time=0),
    Message('note_on', channel=9, note=51, velocity=0, time=1),
    Message('note_on', channel=9, note=36, velocity=0, time=0),
    Message('note_on', channel=12, note=57, velocity=0, time=0),
    Message('note_on', channel=12, note=60, velocity=0, time=4),
    Message('control_change', channel=0, control=64, value=127, time=33),
    Message('note_off', channel=0, note=67, velocity=0, time=110),
    Message('note_off', channel=0, note=71, velocity=0, time=0),
    Message('note_off', channel=0, note=74, velocity=0, time=9),
    Message('note_on', channel=9, note=51, velocity=119, time=83),
    Message('note_on', channel=9, note=38, velocity=126, time=0),
    Message('note_on', channel=12, note=50, velocity=106, time=0),
    Message('note_on', channel=9, note=38, velocity=0, time=1),
    Message('note_on', channel=9, note=51, velocity=0, time=0),
    Message('control_change', channel=12, control=64, value=127, time=9),
    Message('note_off', channel=12, note=43, velocity=0, time=41),
    Message('note_off', channel=0, note=55, velocity=0, time=63),
    Message('note_on', channel=0, note=62, velocity=119, time=6),
    Message('note_on', channel=0, note=62, velocity=0, time=88),
    Message('note_on', channel=12, note=50, velocity=0, time=3),
    Message('note_on', channel=9, note=51, velocity=119, time=29),
    Message('note_on', channel=12, note=62, velocity=105, time=0),
    Message('note_on', channel=0, note=81, velocity=123, time=0),
    Message('note_on', channel=12, note=55, velocity=106, time=0),
    Message('note_on', channel=12, note=59, velocity=108, time=0),
    Message('note_on', channel=9, note=38, velocity=126, time=0),
    Message('note_on', channel=9, note=38, velocity=0, time=1),
    Message('note_on', channel=9, note=51, velocity=0, time=0),
    Message('note_on', channel=12, note=62, velocity=0, time=24),
    Message('note_on', channel=12, note=59, velocity=0, time=11),
    Message('note_on', channel=12, note=55, velocity=0, time=11),
    Message('note_on', channel=0, note=81, velocity=0, time=30),
    Message('note_on', channel=9, note=45, velocity=104, time=43),
    Message('note_on', channel=12, note=62, velocity=103, time=0),
    Message('note_on', channel=12, note=59, velocity=104, time=0),
    Message('note_on', channel=12, note=55, velocity=102, time=0),
    Message('note_on', channel=9, note=45, velocity=0, time=1),
    Message('note_on', channel=12, note=59, velocity=0, time=28),
    Message('note_on', channel=12, note=62, velocity=0, time=9),
    Message('note_on', channel=12, note=55, velocity=0, time=3),
    Message('note_on', channel=3, note=31, velocity=0, time=3),
    Message('note_on', channel=2, note=31, velocity=0, time=0),
    Message('pitchwheel', channel=3, pitch=-386, time=45),
    Message('pitchwheel', channel=2, pitch=-386, time=0),
    Message('pitchwheel', channel=3, pitch=-1061, time=4),
    Message('pitchwheel', channel=2, pitch=-1061, time=0),
    Message('pitchwheel', channel=3, pitch=-1928, time=5),
    Message('pitchwheel', channel=2, pitch=-1928, time=0),
    Message('pitchwheel', channel=2, pitch=-2924, time=5),
    Message('pitchwheel', channel=3, pitch=-2924, time=0),
    Message('pitchwheel', channel=2, pitch=-4113, time=4),
    Message('pitchwheel', channel=3, pitch=-4113, time=0),
    Message('pitchwheel', channel=2, pitch=-5205, time=5),
    Message('pitchwheel', channel=3, pitch=-5205, time=0),
    Message('pitchwheel', channel=3, pitch=-7389, time=4),
    Message('pitchwheel', channel=2, pitch=-7389, time=0),
    Message('note_on', channel=12, note=55, velocity=102, time=4),
    Message('note_on', channel=0, note=79, velocity=124, time=0),
    Message('note_on', channel=2, note=31, velocity=125, time=0),
    Message('note_on', channel=9, note=41, velocity=125, time=0),
    Message('note_on', channel=12, note=59, velocity=103, time=0),
    Message('note_on', channel=12, note=62, velocity=102, time=0),
    Message('note_on', channel=9, note=51, velocity=114, time=0),
    Message('note_on', channel=3, note=31, velocity=125, time=0),
    Message('pitchwheel', channel=2, pitch=-8192, time=1),
    Message('pitchwheel', channel=3, pitch=-8192, time=0),
    Message('note_off', channel=9, note=51, velocity=0, time=0),
    Message('note_off', channel=9, note=41, velocity=0, time=0),
    Message('note_off', channel=12, note=59, velocity=0, time=34),
    Message('note_off', channel=12, note=62, velocity=0, time=4),
    Message('note_off', channel=12, note=55, velocity=0, time=2),
    Message('note_off', channel=0, note=79, velocity=0, time=11),
    Message('pitchwheel', channel=2, pitch=-7004, time=54),
    Message('pitchwheel', channel=3, pitch=-7004, time=0),
    Message('pitchwheel', channel=2, pitch=-5141, time=4),
    Message('pitchwheel', channel=3, pitch=-5141, time=0),
    Message('pitchwheel', channel=3, pitch=-3920, time=5),
    Message('pitchwheel', channel=2, pitch=-3920, time=0),
    Message('pitchwheel', channel=2, pitch=-2506, time=4),
    Message('pitchwheel', channel=3, pitch=-2506, time=0),
    Message('note_on', channel=12, note=62, velocity=102, time=1),
    Message('note_on', channel=12, note=59, velocity=103, time=0),
    Message('note_on', channel=12, note=55, velocity=102, time=0),
    Message('pitchwheel', channel=2, pitch=-1125, time=6),
    Message('pitchwheel', channel=3, pitch=-1125, time=0),
    Message('pitchwheel', channel=2, pitch=0, time=5),
    Message('pitchwheel', channel=3, pitch=0, time=0),
    Message('note_off', channel=8, note=67, velocity=0, time=45),
    Message('note_off', channel=7, note=67, velocity=0, time=0),
    Message('note_off', channel=10, note=67, velocity=0, time=0),
    Message('note_off', channel=12, note=55, velocity=0, time=6),
    Message('note_off', channel=12, note=59, velocity=0, time=13),
    Message('note_off', channel=12, note=62, velocity=0, time=2),
    Message('control_change', channel=0, control=64, value=0, time=26),
    Message('control_change', channel=12, control=64, value=0, time=16),
    Message('note_on', channel=10, note=72, velocity=126, time=1),
    Message('note_on', channel=6, note=60, velocity=127, time=0),
    Message('note_on', channel=11, note=60, velocity=117, time=0),
    Message('note_on', channel=9, note=51, velocity=124, time=0),
    Message('note_on', channel=2, note=36, velocity=126, time=0),
    Message('note_on', channel=11, note=36, velocity=116, time=0),
    Message('note_on', channel=12, note=48, velocity=108, time=0),
    Message('note_on', channel=11, note=64, velocity=123, time=0),
    Message('note_on', channel=0, note=60, velocity=120, time=0),
    Message('note_on', channel=9, note=36, velocity=126, time=0),
    Message('control_change', channel=11, control=64, value=127, time=0),
    Message('control_change', channel=12, control=64, value=127, time=0),
    Message('note_on', channel=0, note=76, velocity=125, time=0),
    Message('note_on', channel=0, note=72, velocity=123, time=0),
    Message('control_change', channel=6, control=7, value=110, time=0),
    Message('note_on', channel=9, note=49, velocity=119, time=0),
    Message('note_on', channel=8, note=72, velocity=126, time=0),
    Message('note_on', channel=7, note=72, velocity=126, time=0),
    Message('note_on', channel=11, note=67, velocity=119, time=0),
    Message('note_on', channel=3, note=36, velocity=126, time=0),
    Message('note_on', channel=0, note=79, velocity=119, time=0),
    Message('note_on', channel=2, note=31, velocity=0, time=0),
    Message('note_on', channel=3, note=31, velocity=0, time=0),
    Message('note_on', channel=9, note=49, velocity=0, time=1),
    Message('note_on', channel=9, note=51, velocity=0, time=0),
    Message('note_on', channel=9, note=36, velocity=0, time=0),
    Message('note_on', channel=0, note=79, velocity=0, time=6),
    Message('control_change', channel=0, control=64, value=127, time=67),
    Message('note_on', channel=12, note=55, velocity=106, time=166),
    Message('note_on', channel=12, note=48, velocity=0, time=30),
    Message('note_on', channel=0, note=67, velocity=119, time=90),
    Message('note_on', channel=0, note=60, velocity=0, time=15),
    Message('note_on', channel=0, note=76, velocity=0, time=0),
    Message('note_on', channel=0, note=72, velocity=0, time=1),
    Message('note_on', channel=6, note=60, velocity=0, time=12),
    Message('pitchwheel', channel=6, pitch=-193, time=31),
    Message('pitchwheel', channel=6, pitch=-547, time=3),
    Message('pitchwheel', channel=6, pitch=-1125, time=5),
    Message('pitchwheel', channel=6, pitch=-1543, time=3),
    Message('pitchwheel', channel=6, pitch=-2121, time=5),
    Message('pitchwheel', channel=6, pitch=-2667, time=3),
    Message('pitchwheel', channel=6, pitch=-3277, time=3),
    Message('pitchwheel', channel=6, pitch=-3759, time=4),
    Message('note_off', channel=0, note=67, velocity=0, time=4),
    Message('pitchwheel', channel=6, pitch=-4402, time=2),
    Message('pitchwheel', channel=6, pitch=-5012, time=2),
    Message('pitchwheel', channel=6, pitch=-5655, time=3),
    Message('pitchwheel', channel=6, pitch=-6940, time=4),
    Message('pitchwheel', channel=6, pitch=-8096, time=3),
    Message('note_off', channel=11, note=67, velocity=0, time=1),
    Message('note_off', channel=11, note=64, velocity=0, time=3),
    Message('pitchwheel', channel=6, pitch=-8192, time=1),
    Message('note_off', channel=11, note=60, velocity=0, time=5),
    Message('note_on', channel=0, note=72, velocity=122, time=7),
    Message('note_on', channel=9, note=51, velocity=119, time=0),
    Message('note_on', channel=12, note=64, velocity=111, time=0),
    Message('note_on', channel=12, note=60, velocity=110, time=0),
    Message('note_on', channel=12, note=67, velocity=110, time=0),
    Message('note_on', channel=6, note=64, velocity=127, time=0),
    Message('note_on', channel=9, note=38, velocity=125, time=0),
    Message('note_on', channel=9, note=38, velocity=0, time=1),
    Message('note_on', channel=9, note=51, velocity=0, time=0),
    Message('note_on', channel=11, note=36, velocity=0, time=13),
    Message('note_on', channel=12, note=67, velocity=0, time=18),
    Message('note_on', channel=12, note=64, velocity=0, time=7),
    Message('note_on', channel=12, note=55, velocity=0, time=3),
    Message('note_on', channel=12, note=60, velocity=0, time=6),
    Message('pitchwheel', channel=6, pitch=-7454, time=36),
    Message('pitchwheel', channel=6, pitch=-6683, time=3),
    Message('pitchwheel', channel=6, pitch=-5719, time=5),
    Message('pitchwheel', channel=6, pitch=-5173, time=5),
    Message('pitchwheel', channel=6, pitch=-4755, time=3),
    Message('pitchwheel', channel=6, pitch=-4337, time=3),
    Message('pitchwheel', channel=6, pitch=-3856, time=4),
    Message('pitchwheel', channel=6, pitch=-3438, time=3),
    Message('pitchwheel', channel=6, pitch=-3052, time=5),
    Message('pitchwheel', channel=6, pitch=-2635, time=3),
    Message('note_on', channel=0, note=76, velocity=118, time=2),
    Message('note_on', channel=12, note=67, velocity=104, time=0),
    Message('note_on', channel=12, note=60, velocity=103, time=0),
    Message('note_on', channel=12, note=64, velocity=105, time=0),
    Message('pitchwheel', channel=6, pitch=-2185, time=1),
    Message('pitchwheel', channel=6, pitch=-1671, time=4),
    Message('pitchwheel', channel=6, pitch=-1318, time=6),
    Message('pitchwheel', channel=6, pitch=-707, time=2),
    Message('pitchwheel', channel=6, pitch=-258, time=4),
    Message('pitchwheel', channel=6, pitch=0, time=3),
    Message('note_off', channel=12, note=67, velocity=0, time=14),
    Message('note_off', channel=12, note=60, velocity=0, time=8),
    Message('note_off', channel=12, note=64, velocity=0, time=1),
    Message('note_off', channel=0, note=76, velocity=0, time=1),
    Message('note_off', channel=0, note=72, velocity=0, time=25),
    Message('note_off', channel=2, note=36, velocity=0, time=40),
    Message('note_off', channel=3, note=36, velocity=0, time=0),
    Message('note_on', channel=12, note=64, velocity=107, time=11),
    Message('note_on', channel=0, note=79, velocity=126, time=0),
    Message('note_on', channel=9, note=51, velocity=119, time=0),
    Message('note_on', channel=12, note=60, velocity=105, time=0),
    Message('note_on', channel=3, note=28, velocity=123, time=0),
    Message('note_on', channel=2, note=28, velocity=123, time=0),
    Message('note_on', channel=12, note=67, velocity=105, time=0),
    Message('note_on', channel=9, note=51, velocity=0, time=1),
    Message('note_on', channel=12, note=67, velocity=0, time=36),
    Message('note_on', channel=12, note=60, velocity=0, time=6),
    Message('note_on', channel=12, note=64, velocity=0, time=2),
    Message('note_on', channel=0, note=79, velocity=0, time=5),
    Message('note_on', channel=7, note=72, velocity=0, time=33),
    Message('note_on', channel=8, note=72, velocity=0, time=0),
    Message('note_on', channel=10, note=72, velocity=0, time=0),
    Message('note_on', channel=6, note=64, velocity=0, time=27),
    Message('note_on', channel=6, note=64, velocity=127, time=10),
    Message('note_on', channel=12, note=67, velocity=105, time=0),
    Message('note_on', channel=12, note=60, velocity=105, time=0),
    Message('note_on', channel=12, note=64, velocity=107, time=0),
    Message('note_on', channel=3, note=29, velocity=124, time=0),
    Message('note_on', channel=6, note=65, velocity=127, time=0),
    Message('note_on', channel=2, note=29, velocity=124, time=0),
    Message('note_on', channel=3, note=28, velocity=0, time=12),
    Message('note_on', channel=2, note=28, velocity=0, time=0),
    Message('control_change', channel=0, control=64, value=0, time=49),
    Message('note_off', channel=6, note=64, velocity=0, time=0),
    Message('note_off', channel=12, note=67, velocity=0, time=30),
    Message('note_off', channel=6, note=65, velocity=0, time=6),
    Message('note_off', channel=12, note=64, velocity=0, time=7),
    Message('note_off', channel=12, note=60, velocity=0, time=3),
    Message('note_on', channel=12, note=43, velocity=107, time=13),
    Message('note_on', channel=0, note=55, velocity=119, time=0),
    Message('note_on', channel=6, note=62, velocity=127, time=0),
    Message('note_on', channel=11, note=59, velocity=121, time=0),
    Message('note_on', channel=3, note=31, velocity=126, time=0),
    Message('note_on', channel=11, note=55, velocity=115, time=0),
    Message('note_on', channel=11, note=62, velocity=118, time=0),
    Message('note_on', channel=9, note=36, velocity=126, time=0),
    Message('note_on', channel=0, note=74, velocity=125, time=0),
    Message('note_on', channel=9, note=51, velocity=124, time=0),
    Message('note_on', channel=2, note=31, velocity=126, time=0),
    Message('note_on', channel=0, note=71, velocity=120, time=0),
    Message('note_on', channel=0, note=67, velocity=122, time=0),
    Message('note_on', channel=11, note=43, velocity=114, time=0),
    Message('note_on', channel=0, note=71, velocity=0, time=1),
    Message('note_on', channel=9, note=51, velocity=0, time=0),
    Message('note_on', channel=9, note=36, velocity=0, time=0),
    Message('note_on', channel=2, note=29, velocity=0, time=11),
    Message('note_on', channel=3, note=29, velocity=0, time=0),
    Message('control_change', channel=0, control=64, value=127, time=20),
    Message('control_change', channel=11, control=64, value=0, time=5),
    Message('control_change', channel=12, control=64, value=0, time=0),
    Message('note_off', channel=0, note=67, velocity=0, time=22),
    Message('note_off', channel=0, note=74, velocity=0, time=25),
    Message('note_on', channel=0, note=74, velocity=118, time=36),
    Message('control_change', channel=12, control=64, value=0, time=0),
    Message('note_on', channel=0, note=67, velocity=117, time=0),
    Message('control_change', channel=12, control=64, value=127, time=0),
    Message('control_change', channel=12, control=64, value=127, time=3),
    Message('note_off', channel=0, note=67, velocity=0, time=40),
    Message('note_off', channel=0, note=74, velocity=0, time=5),
    Message('control_change', channel=12, control=64, value=0, time=30),
    Message('pitchwheel', channel=6, pitch=-418, time=21),
    Message('pitchwheel', channel=6, pitch=-1318, time=3),
    Message('pitchwheel', channel=6, pitch=-2185, time=5),
    Message('pitchwheel', channel=6, pitch=-2956, time=3),
    Message('pitchwheel', channel=6, pitch=-3759, time=4),
    Message('note_off', channel=6, note=62, velocity=0, time=1),
    Message('pitchwheel', channel=6, pitch=-4466, time=2),
    Message('pitchwheel', channel=6, pitch=-5173, time=3),
    Message('note_on', channel=12, note=50, velocity=107, time=0),
    Message('note_on', channel=9, note=51, velocity=114, time=0),
    Message('note_on', channel=6, note=67, velocity=127, time=0),
    Message('note_on', channel=9, note=51, velocity=0, time=1),
    Message('pitchwheel', channel=6, pitch=-7711, time=7),
    Message('pitchwheel', channel=6, pitch=-6426, time=0),
    Message('pitchwheel', channel=6, pitch=-8192, time=4),
    Message('pitchwheel', channel=6, pitch=-7775, time=61),
    Message('pitchwheel', channel=6, pitch=-6618, time=3),
    Message('pitchwheel', channel=6, pitch=-5301, time=3),
    Message('pitchwheel', channel=6, pitch=-4755, time=4),
    Message('pitchwheel', channel=6, pitch=-3952, time=3),
    Message('pitchwheel', channel=6, pitch=-3374, time=5),
    Message('pitchwheel', channel=6, pitch=-2699, time=3),
    Message('pitchwheel', channel=6, pitch=-2089, time=5),
    Message('pitchwheel', channel=6, pitch=-1446, time=3),
    Message('pitchwheel', channel=6, pitch=-804, time=3),
    Message('pitchwheel', channel=6, pitch=-386, time=4),
    Message('pitchwheel', channel=6, pitch=0, time=5),
    Message('control_change', channel=11, control=64, value=127, time=5),
    Message('note_on', channel=0, note=74, velocity=122, time=1),
    Message('note_on', channel=0, note=67, velocity=121, time=0),
    Message('control_change', channel=12, control=64, value=127, time=18),
    Message('note_off', channel=0, note=74, velocity=0, time=12),
    Message('note_off', channel=0, note=67, velocity=0, time=13),
    Message('note_on', channel=0, note=67, velocity=124, time=77),
    Message('note_on', channel=9, note=38, velocity=126, time=0),
    Message('note_on', channel=12, note=59, velocity=110, time=0),
    Message('note_on', channel=0, note=74, velocity=126, time=0),
    Message('note_on', channel=12, note=62, velocity=107, time=0),
    Message('note_on', channel=9, note=51, velocity=119, time=0),
    Message('note_on', channel=12, note=55, velocity=106, time=0),
    Message('note_on', channel=0, note=71, velocity=125, time=0),
    Message('note_on', channel=9, note=51, velocity=0, time=1),
    Message('note_on', channel=9, note=38, velocity=0, time=0),
    Message('note_on', channel=12, note=43, velocity=0, time=1),
    Message('note_on', channel=0, note=71, velocity=0, time=7),
    Message('note_on', channel=12, note=62, velocity=0, time=25),
    Message('note_on', channel=12, note=59, velocity=0, time=5),
    Message('note_on', channel=0, note=67, velocity=0, time=4),
    Message('note_on', channel=12, note=55, velocity=0, time=7),
    Message('note_on', channel=12, note=50, velocity=0, time=4),
    Message('note_on', channel=0, note=74, velocity=0, time=9),
    Message('note_on', channel=11, note=55, velocity=0, time=41),
    Message('note_on', channel=11, note=59, velocity=0, time=9),
    Message('note_on', channel=11, note=62, velocity=0, time=5),
    Message('note_on', channel=12, note=62, velocity=105, time=2),
    Message('note_on', channel=0, note=74, velocity=123, time=0),
    Message('note_on', channel=12, note=55, velocity=103, time=0),
    Message('note_on', channel=12, note=59, velocity=105, time=0),
    Message('note_on', channel=0, note=67, velocity=120, time=0),
    Message('note_on', channel=0, note=71, velocity=125, time=0),
    Message('note_on', channel=11, note=43, velocity=0, time=26),
    Message('note_on', channel=12, note=59, velocity=0, time=13),
    Message('note_on', channel=0, note=74, velocity=0, time=4),
    Message('note_on', channel=0, note=71, velocity=0, time=2),
    Message('note_on', channel=12, note=62, velocity=0, time=3),
    Message('note_on', channel=12, note=55, velocity=0, time=5),
    Message('note_on', channel=0, note=55, velocity=0, time=2),
    Message('note_on', channel=0, note=67, velocity=0, time=3),
    Message('pitchwheel', channel=6, pitch=-193, time=1),
    Message('pitchwheel', channel=6, pitch=-258, time=3),
    Message('pitchwheel', channel=6, pitch=-386, time=4),
    Message('pitchwheel', channel=6, pitch=-482, time=3),
    Message('pitchwheel', channel=6, pitch=-675, time=5),
    Message('pitchwheel', channel=6, pitch=-739, time=3),
    Message('pitchwheel', channel=6, pitch=-836, time=3),
    Message('pitchwheel', channel=6, pitch=-996, time=4),
    Message('pitchwheel', channel=6, pitch=-1157, time=5),
    Message('pitchwheel', channel=6, pitch=-1318, time=3),
    Message('pitchwheel', channel=6, pitch=-1382, time=3),
    Message('pitchwheel', channel=6, pitch=-1478, time=5),
    Message('pitchwheel', channel=6, pitch=-1543, time=3),
    Message('pitchwheel', channel=6, pitch=-1703, time=4),
    Message('pitchwheel', channel=6, pitch=-1767, time=3),
    Message('pitchwheel', channel=6, pitch=-1864, time=5),
    Message('pitchwheel', channel=6, pitch=-2024, time=3),
    Message('note_on', channel=9, note=51, velocity=114, time=2),
    Message('note_on', channel=12, note=59, velocity=107, time=0),
    Message('note_on', channel=12, note=55, velocity=104, time=0),
    Message('note_on', channel=12, note=62, velocity=105, time=0),
    Message('pitchwheel', channel=6, pitch=-2121, time=1),
    Message('note_off', channel=9, note=51, velocity=0, time=0),
    Message('pitchwheel', channel=6, pitch=-2217, time=4),
    Message('note_off', channel=3, note=31, velocity=0, time=4),
    Message('note_off', channel=2, note=31, velocity=0, time=0),
    Message('pitchwheel', channel=6, pitch=-2442, time=4),
    Message('pitchwheel', channel=6, pitch=-2506, time=3),
    Message('pitchwheel', channel=6, pitch=-2603, time=4),
    Message('pitchwheel', channel=6, pitch=-2731, time=5),
    Message('pitchwheel', channel=6, pitch=-2828, time=3),
    Message('pitchwheel', channel=6, pitch=-2924, time=3),
    Message('pitchwheel', channel=6, pitch=-3085, time=4),
    Message('pitchwheel', channel=6, pitch=-3277, time=3),
    Message('pitchwheel', channel=6, pitch=-3342, time=5),
    Message('note_off', channel=12, note=62, velocity=0, time=2),
    Message('pitchwheel', channel=6, pitch=-3438, time=1),
    Message('note_off', channel=12, note=55, velocity=0, time=4),
    Message('pitchwheel', channel=6, pitch=-3502, time=1),
    Message('note_off', channel=12, note=59, velocity=0, time=2),
    Message('pitchwheel', channel=6, pitch=-3663, time=1),
    Message('pitchwheel', channel=6, pitch=-3856, time=4),
    Message('pitchwheel', channel=6, pitch=-3952, time=3),
    Message('pitchwheel', channel=6, pitch=-4209, time=5),
    Message('pitchwheel', channel=6, pitch=-4370, time=3),
    Message('pitchwheel', channel=6, pitch=-4530, time=4),
    Message('pitchwheel', channel=6, pitch=-4723, time=3),
    Message('pitchwheel', channel=6, pitch=-4980, time=5),
    Message('pitchwheel', channel=6, pitch=-5141, time=3),
    Message('pitchwheel', channel=6, pitch=-5269, time=3),
    Message('pitchwheel', channel=6, pitch=-5590, time=4),
    Message('pitchwheel', channel=6, pitch=-6104, time=3),
    Message('pitchwheel', channel=6, pitch=-6554, time=5),
    Message('pitchwheel', channel=6, pitch=-7004, time=3),
    Message('pitchwheel', channel=6, pitch=-7518, time=4),
    Message('pitchwheel', channel=6, pitch=-8096, time=3),
    Message('pitchwheel', channel=6, pitch=-8192, time=5),
    Message('note_on', channel=0, note=67, velocity=120, time=6),
    Message('note_on', channel=12, note=62, velocity=105, time=0),
    Message('note_on', channel=3, note=31, velocity=123, time=0),
    Message('note_on', channel=12, note=55, velocity=104, time=0),
    Message('note_on', channel=12, note=59, velocity=106, time=0),
    Message('note_on', channel=0, note=71, velocity=123, time=0),
    Message('note_on', channel=2, note=31, velocity=123, time=0),
    Message('note_on', channel=0, note=74, velocity=121, time=0),
    Message('note_on', channel=0, note=74, velocity=0, time=36),
    Message('note_on', channel=0, note=71, velocity=0, time=1),
    Message('note_on', channel=0, note=67, velocity=0, time=6),
    Message('control_change', channel=0, control=64, value=0, time=27),
    Message('control_change', channel=11, control=64, value=0, time=16),
    Message('note_off', channel=3, note=31, velocity=0, time=12),
    Message('note_off', channel=2, note=31, velocity=0, time=0),
    Message('note_off', channel=6, note=67, velocity=0, time=21),
    Message('note_on', channel=2, note=33, velocity=126, time=1),
    Message('note_on', channel=11, note=60, velocity=122, time=0),
    Message('note_on', channel=0, note=69, velocity=122, time=0),
    Message('note_on', channel=9, note=36, velocity=126, time=0),
    Message('note_on', channel=0, note=76, velocity=123, time=0),
    Message('note_on', channel=11, note=57, velocity=117, time=0),
    Message('note_on', channel=0, note=72, velocity=124, time=0),
    Message('note_on', channel=3, note=33, velocity=126, time=0),
    Message('note_on', channel=12, note=45, velocity=107, time=0),
    Message('note_on', channel=0, note=57, velocity=119, time=0),
    Message('note_on', channel=9, note=51, velocity=119, time=0),
    Message('note_on', channel=6, note=66, velocity=127, time=0),
    Message('note_on', channel=11, note=45, velocity=119, time=0),
    Message('note_on', channel=11, note=64, velocity=121, time=0),
    Message('note_on', channel=9, note=51, velocity=0, time=1),
    Message('note_on', channel=9, note=36, velocity=0, time=0),
    Message('control_change', channel=0, control=64, value=127, time=10),
    Message('note_off', channel=12, note=55, velocity=0, time=6),
    Message('note_off', channel=12, note=62, velocity=0, time=9),
    Message('note_off', channel=12, note=59, velocity=0, time=6),
    Message('control_change', channel=12, control=64, value=0, time=22),
    Message('note_on', channel=12, note=52, velocity=105, time=66),
    Message('control_change', channel=12, control=64, value=127, time=27),
    Message('note_off', channel=6, note=66, velocity=0, time=40),
    Message('pitchwheel', channel=6, pitch=-6683, time=51),
    Message('note_on', channel=9, note=51, velocity=109, time=2),
    Message('note_on', channel=12, note=60, velocity=109, time=0),
    Message('note_on', channel=6, note=72, velocity=127, time=0),
    Message('note_on', channel=12, note=64, velocity=106, time=0),
    Message('note_on', channel=12, note=57, velocity=108, time=0),
    Message('note_on', channel=9, note=51, velocity=0, time=1),
    Message('pitchwheel', channel=6, pitch=-5173, time=5),
    Message('pitchwheel', channel=6, pitch=-3309, time=7),
    Message('pitchwheel', channel=6, pitch=-2249, time=0),
    Message('control_change', channel=11, control=64, value=127, time=1),
    Message('pitchwheel', channel=6, pitch=-1382, time=4),
    Message('pitchwheel', channel=6, pitch=-225, time=3),
    Message('pitchwheel', channel=6, pitch=0, time=4),
    Message('note_off', channel=12, note=64, velocity=0, time=5),
    Message('note_off', channel=12, note=60, velocity=0, time=18),
    Message('note_off', channel=12, note=45, velocity=0, time=10),
    Message('note_off', channel=12, note=57, velocity=0, time=4),
    Message('note_on', channel=0, note=64, velocity=116, time=58),
    Message('note_on', channel=0, note=76, velocity=0, time=11),
    Message('note_on', channel=0, note=69, velocity=0, time=1),
    Message('note_on', channel=0, note=72, velocity=0, time=3),
    Message('note_on', channel=0, note=57, velocity=0, time=14),
    Message('note_on', channel=6, note=72, velocity=0, time=50),
    Message('note_on', channel=0, note=64, velocity=0, time=18),
    Message('note_on', channel=6, note=74, velocity=127, time=23),
    Message('note_on', channel=0, note=72, velocity=123, time=0),
    Message('note_on', channel=9, note=38, velocity=126, time=0),
    Message('note_on', channel=0, note=69, velocity=120, time=0),
    Message('note_on', channel=12, note=60, velocity=110, time=0),
    Message('note_on', channel=0, note=76, velocity=121, time=0),
    Message('note_on', channel=12, note=64, velocity=108, time=0),
    Message('note_on', channel=12, note=57, velocity=108, time=0),
    Message('note_on', channel=9, note=51, velocity=119, time=0),
    Message('note_on', channel=9, note=51, velocity=0, time=1),
    Message('note_on', channel=9, note=38, velocity=0, time=0),
    Message('note_on', channel=11, note=45, velocity=0, time=7),
    Message('note_on', channel=11, note=64, velocity=0, time=2),
    Message('note_on', channel=11, note=60, velocity=0, time=3),
    Message('note_on', channel=11, note=57, velocity=0, time=2),
    Message('note_on', channel=12, note=52, velocity=0, time=11),
    Message('note_on', channel=12, note=64, velocity=0, time=11),
    Message('note_on', channel=12, note=60, velocity=0, time=2),
    Message('note_on', channel=12, note=57, velocity=0, time=2),
    Message('note_on', channel=0, note=76, velocity=0, time=17),
    Message('note_on', channel=0, note=69, velocity=0, time=8),
    Message('note_on', channel=0, note=72, velocity=0, time=0),
    Message('note_on', channel=3, note=33, velocity=0, time=2),
    Message('note_on', channel=2, note=33, velocity=0, time=0),
    Message('note_on', channel=12, note=57, velocity=105, time=52),
    Message('note_on', channel=12, note=64, velocity=106, time=0),
    Message('note_on', channel=12, note=60, velocity=107, time=0),
    Message('note_on', channel=2, note=36, velocity=123, time=0),
    Message('note_on', channel=3, note=36, velocity=123, time=0),
    Message('note_on', channel=12, note=60, velocity=0, time=32),
    Message('note_on', channel=12, note=57, velocity=0, time=0),
    Message('note_on', channel=12, note=64, velocity=0, time=5),
    Message('pitchwheel', channel=6, pitch=257, time=71),
    Message('pitchwheel', channel=6, pitch=1413, time=4),
    Message('pitchwheel', channel=6, pitch=2923, time=3),
    Message('pitchwheel', channel=6, pitch=4015, time=3),
    Message('note_on', channel=0, note=67, velocity=121, time=2),
    Message('note_on', channel=3, note=38, velocity=123, time=0),
    Message('note_on', channel=12, note=60, velocity=108, time=0),
    Message('note_on', channel=9, note=51, velocity=114, time=0),
    Message('note_on', channel=0, note=74, velocity=121, time=0),
    Message('note_on', channel=2, note=38, velocity=123, time=0),
    Message('note_on', channel=12, note=57, velocity=106, time=0),
    Message('note_on', channel=0, note=71, velocity=124, time=0),
    Message('note_on', channel=12, note=64, velocity=107, time=0),
    Message('note_on', channel=9, note=51, velocity=0, time=1),
    Message('note_on', channel=3, note=36, velocity=0, time=2),
    Message('note_on', channel=2, note=36, velocity=0, time=0),
    Message('pitchwheel', channel=6, pitch=4850, time=1),
    Message('pitchwheel', channel=6, pitch=8191, time=11),
    Message('note_off', channel=0, note=74, velocity=0, time=0),
    Message('note_off', channel=12, note=64, velocity=0, time=19),
    Message('note_off', channel=12, note=57, velocity=0, time=3),
    Message('note_off', channel=12, note=60, velocity=0, time=2),
    Message('note_off', channel=0, note=71, velocity=0, time=4),
    Message('note_off', channel=0, note=67, velocity=0, time=4),
    Message('note_off', channel=3, note=38, velocity=0, time=53),
    Message('note_off', channel=2, note=38, velocity=0, time=0),
    Message('note_on', channel=12, note=57, velocity=105, time=20),
    Message('note_on', channel=12, note=64, velocity=106, time=0),
    Message('note_on', channel=3, note=40, velocity=120, time=0),
    Message('note_on', channel=12, note=60, velocity=108, time=0),
    Message('note_on', channel=2, note=40, velocity=120, time=0),
    Message('control_change', channel=0, control=64, value=0, time=55),
    Message('note_off', channel=6, note=74, velocity=0, time=21),
    Message('note_off', channel=12, note=64, velocity=0, time=7),
    Message('note_off', channel=3, note=40, velocity=0, time=1),
    Message('note_off', channel=2, note=40, velocity=0, time=0),
    Message('control_change', channel=11, control=64, value=0, time=5),
    Message('note_off', channel=12, note=60, velocity=0, time=4),
    Message('note_off', channel=12, note=57, velocity=0, time=2),
    Message('note_on', channel=0, note=53, velocity=119, time=25),
    Message('note_on', channel=9, note=51, velocity=119, time=0),
    Message('note_on', channel=0, note=65, velocity=122, time=0),
    Message('note_on', channel=9, note=36, velocity=125, time=0),
    Message('note_on', channel=6, note=74, velocity=127, time=0),
    Message('note_on', channel=3, note=41, velocity=120, time=0),
    Message('note_on', channel=12, note=41, velocity=108, time=0),
    Message('note_on', channel=2, note=41, velocity=120, time=0),
    Message('note_on', channel=0, note=72, velocity=123, time=0),
    Message('note_on', channel=11, note=29, velocity=122, time=0),
    Message('note_on', channel=11, note=57, velocity=123, time=0),
    Message('note_on', channel=11, note=60, velocity=121, time=0),
    Message('note_on', channel=11, note=53, velocity=118, time=0),
    Message('note_on', channel=0, note=69, velocity=124, time=0),
    Message('note_on', channel=9, note=36, velocity=0, time=1),
    Message('note_on', channel=9, note=51, velocity=0, time=0),
    Message('control_change', channel=12, control=64, value=0, time=7),
    Message('control_change', channel=0, control=64, value=127, time=32),
    Message('note_off', channel=0, note=65, velocity=0, time=25),
    Message('note_off', channel=0, note=69, velocity=0, time=17),
    Message('note_off', channel=0, note=72, velocity=0, time=4),
    Message('note_on', channel=12, note=48, velocity=106, time=34),
    Message('control_change', channel=12, control=64, value=127, time=6),
    Message('note_off', channel=6, note=74, velocity=0, time=33),
    Message('control_change', channel=11, control=64, value=127, time=45),
    Message('note_on', channel=6, note=74, velocity=127, time=36),
    Message('note_on', channel=12, note=53, velocity=109, time=0),
    Message('note_on', channel=2, note=40, velocity=123, time=0),
    Message('note_on', channel=12, note=60, velocity=108, time=0),
    Message('note_on', channel=3, note=40, velocity=123, time=0),
    Message('note_on', channel=12, note=57, velocity=111, time=0),
    Message('note_on', channel=9, note=51, velocity=109, time=0),
    Message('note_on', channel=9, note=51, velocity=0, time=1),
    Message('note_on', channel=2, note=41, velocity=0, time=25),
    Message('note_on', channel=3, note=41, velocity=0, time=0),
    Message('note_on', channel=12, note=41, velocity=0, time=3),
    Message('pitchwheel', channel=6, pitch=6232, time=71),
    Message('pitchwheel', channel=6, pitch=3598, time=4),
    Message('pitchwheel', channel=6, pitch=1092, time=3),
    Message('pitchwheel', channel=6, pitch=0, time=4),
    Message('note_on', channel=0, note=60, velocity=118, time=9),
    Message('note_on', channel=12, note=60, velocity=0, time=12),
    Message('note_on', channel=12, note=57, velocity=0, time=3),
    Message('note_on', channel=12, note=53, velocity=0, time=6),
    Message('note_on', channel=0, note=53, velocity=0, time=15),
    Message('note_on', channel=6, note=74, velocity=0, time=6),
    Message('note_on', channel=12, note=48, velocity=0, time=31),
    Message('note_on', channel=3, note=40, velocity=0, time=19),
    Message('note_on', channel=2, note=40, velocity=0, time=0),
    Message('note_on', channel=0, note=60, velocity=0, time=3),
    Message('note_on', channel=12, note=57, velocity=111, time=25),
    Message('note_on', channel=2, note=38, velocity=120, time=0),
    Message('note_on', channel=3, note=38, velocity=120, time=0),
    Message('note_on', channel=0, note=84, velocity=122, time=0),
    Message('note_on', channel=9, note=51, velocity=114, time=0),
    Message('note_on', channel=9, note=38, velocity=126, time=0),
    Message('note_on', channel=12, note=53, velocity=108, time=0),
    Message('note_on', channel=12, note=60, velocity=109, time=0),
    Message('note_on', channel=0, note=77, velocity=121, time=0),
    Message('note_on', channel=6, note=74, velocity=127, time=0),
    Message('note_on', channel=9, note=38, velocity=0, time=1),
    Message('note_on', channel=9, note=51, velocity=0, time=0),
    Message('note_on', channel=11, note=53, velocity=0, time=55),
    Message('note_on', channel=11, note=57, velocity=0, time=7),
    Message('note_on', channel=0, note=77, velocity=0, time=7),
    Message('note_on', channel=11, note=60, velocity=0, time=4),
    Message('note_on', channel=0, note=84, velocity=0, time=11),
    Message('note_on', channel=11, note=29, velocity=0, time=24),
    Message('note_on', channel=0, note=84, velocity=118, time=11),
    Message('note_on', channel=3, note=36, velocity=120, time=0),
    Message('note_on', channel=2, note=36, velocity=120, time=0),
    Message('note_on', channel=0, note=79, velocity=123, time=0),
    Message('pitchwheel', channel=6, pitch=-675, time=0),
    Message('pitchwheel', channel=6, pitch=-1510, time=4),
    Message('pitchwheel', channel=6, pitch=-2410, time=3),
    Message('note_off', channel=2, note=38, velocity=0, time=0),
    Message('note_off', channel=3, note=38, velocity=0, time=0),
    Message('pitchwheel', channel=6, pitch=-3277, time=5),
    Message('pitchwheel', channel=6, pitch=-4113, time=3),
    Message('pitchwheel', channel=6, pitch=-4980, time=4),
    Message('pitchwheel', channel=6, pitch=-6297, time=3),
    Message('pitchwheel', channel=6, pitch=-8096, time=5),
    Message('pitchwheel', channel=6, pitch=-8192, time=3),
    Message('note_off', channel=12, note=60, velocity=0, time=12),
    Message('note_off', channel=12, note=53, velocity=0, time=0),
    Message('note_off', channel=12, note=57, velocity=0, time=2),
    Message('note_off', channel=0, note=79, velocity=0, time=9),
    Message('note_off', channel=0, note=84, velocity=0, time=36),
    Message('note_off', channel=6, note=74, velocity=0, time=13),
    Message('note_off', channel=3, note=36, velocity=0, time=5),
    Message('note_off', channel=2, note=36, velocity=0, time=0),
    Message('note_on', channel=12, note=57, velocity=108, time=13),
    Message('note_on', channel=12, note=60, velocity=107, time=0),
    Message('note_on', channel=3, note=33, velocity=119, time=0),
    Message('note_on', channel=2, note=33, velocity=119, time=0),
    Message('note_on', channel=6, note=74, velocity=127, time=0),
    Message('note_on', channel=12, note=53, velocity=105, time=0),
    Message('note_on', channel=9, note=51, velocity=109, time=0),
    Message('note_on', channel=9, note=51, velocity=0, time=1),
    Message('note_on', channel=12, note=60, velocity=0, time=54),
    Message('note_on', channel=12, note=57, velocity=0, time=0),
    Message('note_on', channel=12, note=53, velocity=0, time=0),
    Message('note_on', channel=2, note=33, velocity=0, time=61),
    Message('note_on', channel=3, note=33, velocity=0, time=0),
    Message('note_on', channel=6, note=73, velocity=127, time=4),
    Message('note_on', channel=2, note=31, velocity=120, time=0),
    Message('note_on', channel=0, note=77, velocity=121, time=0),
    Message('note_on', channel=3, note=31, velocity=120, time=0),
    Message('note_on', channel=12, note=53, velocity=105, time=0),
    Message('note_on', channel=12, note=60, velocity=108, time=0),
    Message('note_on', channel=12, note=57, velocity=108, time=0),
    Message('note_on', channel=6, note=74, velocity=0, time=7),
    Message('note_on', channel=0, note=77, velocity=0, time=38),
    Message('note_on', channel=12, note=53, velocity=0, time=7),
    Message('note_on', channel=12, note=57, velocity=0, time=14),
    Message('note_on', channel=12, note=60, velocity=0, time=2),
    Message('control_change', channel=11, control=64, value=0, time=7),
    Message('note_off', channel=6, note=73, velocity=0, time=11),
    Message('control_change', channel=0, control=64, value=0, time=7),
    Message('note_on', channel=11, note=36, velocity=121, time=27),
    Message('note_on', channel=11, note=60, velocity=118, time=0),
    Message('note_on', channel=6, note=74, velocity=127, time=0),
    Message('note_on', channel=2, note=36, velocity=126, time=0),
    Message('note_on', channel=0, note=72, velocity=123, time=0),
    Message('note_on', channel=0, note=76, velocity=125, time=0),
    Message('note_on', channel=9, note=51, velocity=114, time=0),
    Message('note_on', channel=12, note=48, velocity=107, time=0),
    Message('note_on', channel=9, note=36, velocity=126, time=0),
    Message('note_on', channel=11, note=64, velocity=123, time=0),
    Message('note_on', channel=0, note=79, velocity=123, time=0),
    Message('note_on', channel=11, note=67, velocity=120, time=0),
    Message('note_on', channel=3, note=36, velocity=126, time=0),
    Message('note_on', channel=9, note=36, velocity=0, time=1),
    Message('note_on', channel=9, note=51, velocity=0, time=0),
    Message('note_on', channel=2, note=31, velocity=0, time=2),
    Message('note_on', channel=3, note=31, velocity=0, time=0),
    Message('control_change', channel=12, control=64, value=0, time=14),
    Message('control_change', channel=0, control=64, value=127, time=32),
    Message('control_change', channel=11, control=64, value=127, time=59),
    Message('note_on', channel=12, note=55, velocity=106, time=132),
    Message('note_on', channel=9, note=51, velocity=114, time=0),
    Message('note_on', channel=9, note=51, velocity=0, time=1),
    Message('note_on', channel=0, note=60, velocity=120, time=119),
    Message('note_on', channel=0, note=72, velocity=0, time=36),
    Message('note_on', channel=0, note=79, velocity=0, time=2),
    Message('note_on', channel=0, note=76, velocity=0, time=3),
    Message('note_on', channel=6, note=74, velocity=0, time=53),
    Message('pitchwheel', channel=6, pitch=-579, time=3),
    Message('pitchwheel', channel=6, pitch=-1414, time=3),
    Message('note_off', channel=11, note=67, velocity=0, time=4),
    Message('pitchwheel', channel=6, pitch=-2410, time=1),
    Message('pitchwheel', channel=6, pitch=-3438, time=3),
    Message('pitchwheel', channel=6, pitch=-4562, time=3),
    Message('control_change', channel=12, control=64, value=127, time=0),
    Message('pitchwheel', channel=6, pitch=-5655, time=4),
    Message('note_off', channel=11, note=60, velocity=0, time=0),
    Message('note_off', channel=11, note=64, velocity=0, time=4),
    Message('note_on', channel=9, note=38, velocity=126, time=1),
    Message('pitchwheel', channel=6, pitch=-7775, time=0),
    Message('note_on', channel=9, note=51, velocity=119, time=0),
    Message('note_on', channel=12, note=64, velocity=110, time=0),
    Message('note_on', channel=12, note=60, velocity=108, time=0),
    Message('note_on', channel=6, note=79, velocity=127, time=0),
    Message('note_on', channel=12, note=67, velocity=108, time=0),
    Message('note_on', channel=0, note=67, velocity=119, time=0),
    Message('note_on', channel=9, note=51, velocity=0, time=1),
    Message('note_on', channel=9, note=38, velocity=0, time=0),
    Message('pitchwheel', channel=6, pitch=-8192, time=3),
    Message('note_off', channel=11, note=36, velocity=0, time=7),
    Message('note_off', channel=12, note=48, velocity=0, time=5),
    Message('note_off', channel=12, note=55, velocity=0, time=15),
    Message('note_off', channel=12, note=67, velocity=0, time=3),
    Message('note_off', channel=12, note=64, velocity=0, time=8),
    Message('note_off', channel=0, note=60, velocity=0, time=6),
    Message('note_off', channel=12, note=60, velocity=0, time=7),
    Message('note_off', channel=0, note=67, velocity=0, time=8),
    Message('note_on', channel=0, note=72, velocity=118, time=57),
    Message('note_on', channel=12, note=67, velocity=106, time=0),
    Message('note_on', channel=12, note=60, velocity=105, time=0),
    Message('note_on', channel=12, note=64, velocity=107, time=0),
    Message('pitchwheel', channel=6, pitch=-7261, time=11),
    Message('pitchwheel', channel=6, pitch=-6554, time=2),
    Message('pitchwheel', channel=6, pitch=-5783, time=4),
    Message('pitchwheel', channel=6, pitch=-5237, time=3),
    Message('pitchwheel', channel=6, pitch=-5012, time=5),
    Message('pitchwheel', channel=6, pitch=-4691, time=3),
    Message('pitchwheel', channel=6, pitch=-4402, time=4),
    Message('pitchwheel', channel=6, pitch=-4145, time=3),
    Message('note_off', channel=12, note=64, velocity=0, time=2),
    Message('note_off', channel=12, note=60, velocity=0, time=2),
    Message('pitchwheel', channel=6, pitch=-3791, time=1),
    Message('note_off', channel=12, note=67, velocity=0, time=0),
    Message('pitchwheel', channel=6, pitch=-3470, time=3),
    Message('pitchwheel', channel=6, pitch=-3181, time=5),
    Message('pitchwheel', channel=6, pitch=-2763, time=3),
    Message('pitchwheel', channel=6, pitch=-2442, time=4),
    Message('pitchwheel', channel=6, pitch=-2121, time=3),
    Message('pitchwheel', channel=6, pitch=-1767, time=3),
    Message('pitchwheel', channel=6, pitch=-1446, time=5),
    Message('pitchwheel', channel=6, pitch=-1286, time=3),
    Message('pitchwheel', channel=6, pitch=-836, time=4),
    Message('note_off', channel=3, note=36, velocity=0, time=2),
    Message('note_off', channel=2, note=36, velocity=0, time=0),
    Message('pitchwheel', channel=6, pitch=-675, time=1),
    Message('pitchwheel', channel=6, pitch=-450, time=5),
    Message('pitchwheel', channel=6, pitch=-258, time=3),
    Message('pitchwheel', channel=6, pitch=-161, time=4),
    Message('pitchwheel', channel=6, pitch=0, time=3),
    Message('note_on', channel=2, note=28, velocity=124, time=29),
    Message('note_on', channel=3, note=28, velocity=124, time=0),
    Message('note_on', channel=12, note=64, velocity=107, time=0),
    Message('note_on', channel=12, note=60, velocity=105, time=0),
    Message('note_on', channel=0, note=76, velocity=121, time=0),
    Message('note_on', channel=12, note=67, velocity=106, time=0),
    Message('note_on', channel=9, note=51, velocity=114, time=0),
    Message('note_on', channel=9, note=51, velocity=0, time=1),
    Message('note_on', channel=0, note=76, velocity=0, time=29),
    Message('note_on', channel=12, note=60, velocity=0, time=3),
    Message('note_on', channel=12, note=67, velocity=0, time=4),
    Message('note_on', channel=12, note=64, velocity=0, time=4),
    Message('note_on', channel=0, note=72, velocity=0, time=9),
    Message('note_on', channel=9, note=36, velocity=125, time=70),
    Message('note_on', channel=12, note=64, velocity=105, time=0),
    Message('note_on', channel=12, note=67, velocity=105, time=0),
    Message('note_on', channel=12, note=60, velocity=103, time=0),
    Message('note_on', channel=3, note=29, velocity=126, time=0),
    Message('note_on', channel=2, note=29, velocity=126, time=0),
    Message('note_on', channel=6, note=81, velocity=127, time=0),
    Message('note_on', channel=9, note=36, velocity=0, time=1),
    Message('note_on', channel=3, note=28, velocity=0, time=10),
    Message('note_on', channel=2, note=28, velocity=0, time=0),
    Message('note_on', channel=6, note=79, velocity=0, time=28),
    Message('note_on', channel=12, note=67, velocity=0, time=43),
    Message('note_on', channel=12, note=64, velocity=0, time=11),
    Message('note_on', channel=12, note=60, velocity=0, time=3),
    Message('control_change', channel=0, control=64, value=0, time=6),
    Message('control_change', channel=11, control=64, value=0, time=0),
    Message('note_on', channel=11, note=55, velocity=118, time=18),
    Message('note_on', channel=11, note=59, velocity=122, time=0),
    Message('note_on', channel=11, note=31, velocity=120, time=0),
    Message('note_on', channel=0, note=74, velocity=119, time=0),
    Message('note_on', channel=11, note=62, velocity=119, time=0),
    Message('note_on', channel=9, note=51, velocity=124, time=0),
    Message('note_on', channel=12, note=43, velocity=107, time=0),
    Message('note_on', channel=0, note=71, velocity=121, time=0),
    Message('note_on', channel=9, note=36, velocity=126, time=0),
    Message('note_on', channel=3, note=31, velocity=124, time=0),
    Message('note_on', channel=2, note=31, velocity=124, time=0),
    Message('note_on', channel=0, note=55, velocity=118, time=0),
    Message('note_on', channel=6, note=79, velocity=127, time=0),
    Message('note_on', channel=0, note=67, velocity=119, time=0),
    Message('note_on', channel=9, note=36, velocity=0, time=1),
    Message('note_on', channel=9, note=51, velocity=0, time=0),
    Message('note_on', channel=3, note=29, velocity=0, time=7),
    Message('note_on', channel=2, note=29, velocity=0, time=0),
    Message('control_change', channel=12, control=64, value=0, time=33),
    Message('note_off', channel=6, note=81, velocity=0, time=25),
    Message('control_change', channel=0, control=64, value=127, time=21),
    Message('control_change', channel=11, control=64, value=127, time=113),
    Message('pitchwheel', channel=6, pitch=-611, time=27),
    Message('pitchwheel', channel=6, pitch=-1414, time=4),
    Message('pitchwheel', channel=6, pitch=-2410, time=3),
    Message('pitchwheel', channel=6, pitch=-3374, time=5),
    Message('pitchwheel', channel=6, pitch=-4370, time=1),
    Message('note_on', channel=9, note=51, velocity=119, time=0),
    Message('note_on', channel=6, note=76, velocity=127, time=0),
    Message('note_on', channel=12, note=50, velocity=107, time=0),
    Message('note_on', channel=9, note=51, velocity=0, time=1),
    Message('pitchwheel', channel=6, pitch=-5398, time=5),
    Message('pitchwheel', channel=6, pitch=-7454, time=3),
    Message('control_change', channel=12, control=64, value=127, time=1),
    Message('note_off', channel=6, note=79, velocity=0, time=0),
    Message('pitchwheel', channel=6, pitch=-8192, time=4),
    Message('note_off', channel=12, note=43, velocity=0, time=37),
    Message('pitchwheel', channel=6, pitch=-7775, time=29),
    Message('pitchwheel', channel=6, pitch=-6811, time=3),
    Message('pitchwheel', channel=6, pitch=-5526, time=5),
    Message('pitchwheel', channel=6, pitch=-5044, time=3),
    Message('pitchwheel', channel=6, pitch=-4498, time=5),
    Message('pitchwheel', channel=6, pitch=-3984, time=3),
    Message('pitchwheel', channel=6, pitch=-3566, time=4),
    Message('pitchwheel', channel=6, pitch=-3245, time=3),
    Message('pitchwheel', channel=6, pitch=-2828, time=3),
    Message('pitchwheel', channel=6, pitch=-2506, time=5),
    Message('pitchwheel', channel=6, pitch=-2249, time=3),
    Message('pitchwheel', channel=6, pitch=-1960, time=4),
    Message('pitchwheel', channel=6, pitch=-1735, time=3),
    Message('pitchwheel', channel=6, pitch=-1510, time=5),
    Message('pitchwheel', channel=6, pitch=-1382, time=3),
    Message('pitchwheel', channel=6, pitch=-1318, time=4),
    Message('pitchwheel', channel=6, pitch=-1093, time=3),
    Message('pitchwheel', channel=6, pitch=-900, time=5),
    Message('pitchwheel', channel=6, pitch=-804, time=3),
    Message('pitchwheel', channel=6, pitch=-707, time=4),
    Message('pitchwheel', channel=6, pitch=-579, time=3),
    Message('pitchwheel', channel=6, pitch=-450, time=3),
    Message('pitchwheel', channel=6, pitch=-386, time=5),
    Message('pitchwheel', channel=6, pitch=-258, time=3),
    Message('pitchwheel', channel=6, pitch=-161, time=5),
    Message('pitchwheel', channel=6, pitch=0, time=3),
    Message('note_off', channel=12, note=50, velocity=0, time=23),
    Message('note_on', channel=12, note=59, velocity=110, time=44),
    Message('note_on', channel=12, note=55, velocity=107, time=0),
    Message('note_on', channel=9, note=51, velocity=124, time=0),
    Message('note_on', channel=12, note=62, velocity=107, time=0),
    Message('note_on', channel=0, note=62, velocity=119, time=0),
    Message('note_on', channel=9, note=38, velocity=126, time=0),
    Message('note_on', channel=9, note=38, velocity=0, time=1),
    Message('note_on', channel=9, note=51, velocity=0, time=0),
    Message('note_on', channel=11, note=62, velocity=0, time=17),
    Message('note_on', channel=11, note=55, velocity=0, time=11),
    Message('note_on', channel=12, note=62, velocity=0, time=0),
    Message('note_on', channel=0, note=67, velocity=0, time=5),
    Message('note_on', channel=11, note=59, velocity=0, time=2),
    Message('note_on', channel=12, note=59, velocity=0, time=3),
    Message('note_on', channel=0, note=55, velocity=0, time=1),
    Message('note_on', channel=0, note=71, velocity=0, time=2),
    Message('note_on', channel=0, note=74, velocity=0, time=5),
    Message('note_on', channel=12, note=55, velocity=0, time=11),
    Message('note_on', channel=11, note=31, velocity=0, time=6),
    Message('note_on', channel=0, note=62, velocity=0, time=1),
    Message('note_on', channel=12, note=62, velocity=105, time=55),
    Message('note_on', channel=0, note=67, velocity=118, time=0),
    Message('note_on', channel=12, note=55, velocity=103, time=0),
    Message('note_on', channel=12, note=59, velocity=106, time=0),
    Message('note_on', channel=12, note=62, velocity=0, time=36),
    Message('note_on', channel=12, note=55, velocity=0, time=1),
    Message('note_on', channel=12, note=59, velocity=0, time=4),
    Message('note_on', channel=0, note=67, velocity=0, time=21),
    Message('note_on', channel=12, note=55, velocity=104, time=58),
    Message('note_on', channel=9, note=51, velocity=114, time=0),
    Message('note_on', channel=12, note=59, velocity=107, time=0),
    Message('note_on', channel=12, note=62, velocity=105, time=0),
    Message('note_on', channel=9, note=51, velocity=0, time=1),
    Message('note_on', channel=12, note=55, velocity=0, time=30),
    Message('note_on', channel=12, note=62, velocity=0, time=5),
    Message('note_on', channel=12, note=59, velocity=0, time=2),
    Message('note_on', channel=2, note=31, velocity=0, time=17),
    Message('note_on', channel=3, note=31, velocity=0, time=0),
    Message('note_on', channel=6, note=76, velocity=0, time=60),
    Message('note_on', channel=12, note=62, velocity=104, time=5),
    Message('note_on', channel=6, note=74, velocity=127, time=0),
    Message('note_on', channel=12, note=59, velocity=105, time=0),
    Message('note_on', channel=2, note=31, velocity=119, time=0),
    Message('note_on', channel=3, note=31, velocity=119, time=0),
    Message('note_on', channel=12, note=55, velocity=103, time=0),
    Message('note_on', channel=12, note=55, velocity=0, time=43),
    Message('note_on', channel=12, note=62, velocity=0, time=18),
    Message('note_on', channel=12, note=59, velocity=0, time=1),
    Message('control_change', channel=0, control=64, value=0, time=39),
    Message('control_change', channel=11, control=64, value=0, time=1),
    Message('note_on', channel=9, note=36, velocity=126, time=18),
    Message('note_on', channel=3, note=36, velocity=125, time=0),
    Message('note_on', channel=11, note=24, velocity=123, time=0),
    Message('control_change', channel=6, control=7, value=80, time=0),
    Message('note_on', channel=0, note=60, velocity=119, time=0),
    Message('note_on', channel=6, note=72, velocity=127, time=0),
    Message('note_on', channel=12, note=48, velocity=107, time=0),
    Message('note_on', channel=2, note=36, velocity=125, time=0),
    Message('note_on', channel=9, note=51, velocity=124, time=0),
    Message('note_on', channel=11, note=67, velocity=121, time=0),
    Message('note_on', channel=11, note=64, velocity=122, time=0),
    Message('note_on', channel=11, note=60, velocity=119, time=0),
    Message('note_on', channel=9, note=51, velocity=0, time=1),
    Message('note_on', channel=9, note=36, velocity=0, time=0),
    Message('note_on', channel=6, note=74, velocity=0, time=12),
    Message('note_on', channel=2, note=31, velocity=0, time=6),
    Message('note_on', channel=3, note=31, velocity=0, time=0),
    Message('control_change', channel=12, control=64, value=0, time=20),
    Message('control_change', channel=0, control=64, value=127, time=31),
    Message('control_change', channel=1, control=64, value=127, time=0),
    Message('note_on', channel=0, note=67, velocity=114, time=50),
    Message('note_on', channel=0, note=60, velocity=0, time=51),
    Message('note_on', channel=0, note=67, velocity=0, time=34),
    Message('note_on', channel=12, note=55, velocity=105, time=35),
    Message('note_on', channel=9, note=51, velocity=119, time=0),
    Message('note_on', channel=6, note=71, velocity=127, time=0),
    Message('note_on', channel=0, note=72, velocity=114, time=0),
    Message('note_on', channel=9, note=51, velocity=0, time=1),
    Message('control_change', channel=12, control=64, value=127, time=14),
    Message('note_off', channel=6, note=72, velocity=0, time=20),
    Message('note_off', channel=0, note=72, velocity=0, time=1),
    Message('note_off', channel=12, note=48, velocity=0, time=144),
    Message('note_on', channel=9, note=38, velocity=125, time=60),
    Message('note_on', channel=12, note=67, velocity=108, time=0),
    Message('note_on', channel=6, note=69, velocity=127, time=0),
    Message('note_on', channel=12, note=64, velocity=109, time=0),
    Message('note_on', channel=12, note=60, velocity=106, time=0),
    Message('note_on', channel=9, note=51, velocity=124, time=0),
    Message('note_on', channel=0, note=74, velocity=118, time=0),
    Message('note_on', channel=9, note=51, velocity=0, time=1),
    Message('note_on', channel=9, note=38, velocity=0, time=0),
    Message('note_on', channel=6, note=71, velocity=0, time=18),
    Message('note_on', channel=12, note=55, velocity=0, time=17),
    Message('note_on', channel=12, note=64, velocity=0, time=3),
    Message('note_on', channel=12, note=67, velocity=0, time=4),
    Message('note_on', channel=12, note=60, velocity=0, time=7),
    Message('note_on', channel=0, note=74, velocity=0, time=47),
    Message('note_on', channel=12, note=67, velocity=105, time=23),
    Message('note_on', channel=12, note=60, velocity=103, time=0),
    Message('note_on', channel=12, note=64, velocity=105, time=0),
    Message('note_on', channel=0, note=79, velocity=116, time=0),
    Message('note_on', channel=12, note=64, velocity=0, time=37),
    Message('note_on', channel=12, note=60, velocity=0, time=4),
    Message('note_on', channel=12, note=67, velocity=0, time=0),
    Message('note_on', channel=2, note=36, velocity=0, time=60),
    Message('note_on', channel=3, note=36, velocity=0, time=0),
    Message('note_on', channel=3, note=46, velocity=125, time=19),
    Message('note_on', channel=12, note=67, velocity=105, time=0),
    Message('note_on', channel=6, note=67, velocity=127, time=0),
    Message('note_on', channel=12, note=64, velocity=106, time=0),
    Message('note_on', channel=12, note=60, velocity=104, time=0),
    Message('note_on', channel=9, note=51, velocity=119, time=0),
    Message('note_on', channel=0, note=72, velocity=120, time=0),
    Message('note_on', channel=2, note=46, velocity=125, time=0),
    Message('note_on', channel=9, note=51, velocity=0, time=1),
    Message('note_on', channel=0, note=79, velocity=0, time=2),
    Message('note_on', channel=6, note=69, velocity=0, time=11),
    Message('note_on', channel=12, note=67, velocity=0, time=20),
    Message('note_on', channel=12, note=60, velocity=0, time=5),
    Message('note_on', channel=0, note=72, velocity=0, time=0),
    Message('pitchwheel', channel=3, pitch=128, time=2),
    Message('pitchwheel', channel=2, pitch=128, time=0),
    Message('note_off', channel=12, note=64, velocity=0, time=2),
    Message('pitchwheel', channel=2, pitch=995, time=3),
    Message('pitchwheel', channel=3, pitch=995, time=0),
    Message('pitchwheel', channel=3, pitch=1927, time=4),
    Message('pitchwheel', channel=2, pitch=1927, time=0),
    Message('pitchwheel', channel=2, pitch=2923, time=5),
    Message('pitchwheel', channel=3, pitch=2923, time=0),
    Message('pitchwheel', channel=3, pitch=3758, time=4),
    Message('pitchwheel', channel=2, pitch=3758, time=0),
    Message('pitchwheel', channel=2, pitch=4754, time=5),
    Message('pitchwheel', channel=3, pitch=4754, time=0),
    Message('pitchwheel', channel=3, pitch=6168, time=4),
    Message('pitchwheel', channel=2, pitch=6168, time=0),
    Message('pitchwheel', channel=3, pitch=8191, time=5),
    Message('pitchwheel', channel=2, pitch=8191, time=0),
    Message('note_on', channel=12, note=67, velocity=104, time=47),
    Message('note_on', channel=12, note=64, velocity=104, time=0),
    Message('note_on', channel=12, note=60, velocity=102, time=0),
    Message('note_on', channel=9, note=36, velocity=126, time=0),
    Message('note_on', channel=9, note=36, velocity=0, time=1),
    Message('note_on', channel=12, note=67, velocity=0, time=64),
    Message('note_on', channel=12, note=64, velocity=0, time=6),
    Message('note_on', channel=12, note=60, velocity=0, time=11),
    Message('note_on', channel=0, note=67, velocity=118, time=38),
    Message('note_on', channel=0, note=64, velocity=117, time=0),
    Message('note_on', channel=12, note=48, velocity=107, time=0),
    Message('note_on', channel=1, note=48, velocity=116, time=0),
    Message('note_on', channel=0, note=60, velocity=117, time=0),
    Message('note_on', channel=9, note=51, velocity=124, time=0),
    Message('note_on', channel=9, note=36, velocity=126, time=0),
    Message('note_on', channel=6, note=65, velocity=127, time=0),
    Message('note_on', channel=9, note=36, velocity=0, time=1),
    Message('note_on', channel=9, note=51, velocity=0, time=0),
    Message('note_on', channel=6, note=67, velocity=0, time=11),
    Message('control_change', channel=0, control=64, value=0, time=28),
    Message('control_change', channel=1, control=64, value=0, time=0),
    Message('control_change', channel=12, control=64, value=0, time=9),
    Message('note_off', channel=3, note=46, velocity=0, time=137),
    Message('note_off', channel=2, note=46, velocity=0, time=0),
    Message('pitchwheel', channel=3, pitch=8031, time=29),
    Message('pitchwheel', channel=2, pitch=8031, time=0),
    Message('pitchwheel', channel=3, pitch=5075, time=5),
    Message('pitchwheel', channel=2, pitch=5075, time=0),
    Message('pitchwheel', channel=2, pitch=3244, time=4),
    Message('pitchwheel', channel=3, pitch=3244, time=0),
    Message('pitchwheel', channel=3, pitch=1092, time=5),
    Message('control_change', channel=12, control=64, value=127, time=0),
    Message('pitchwheel', channel=2, pitch=1092, time=0),
    Message('pitchwheel', channel=3, pitch=0, time=4),
    Message('pitchwheel', channel=2, pitch=0, time=0),
    Message('note_on', channel=12, note=55, velocity=105, time=7),
    Message('note_on', channel=2, note=46, velocity=125, time=0),
    Message('note_on', channel=6, note=64, velocity=127, time=0),
    Message('note_on', channel=3, note=46, velocity=125, time=0),
    Message('control_change', channel=11, control=64, value=127, time=12),
    Message('note_off', channel=6, note=65, velocity=0, time=1),
    Message('pitchwheel', channel=3, pitch=835, time=28),
    Message('pitchwheel', channel=2, pitch=835, time=0),
    Message('pitchwheel', channel=2, pitch=2345, time=5),
    Message('pitchwheel', channel=3, pitch=2345, time=0),
    Message('note_off', channel=11, note=60, velocity=0, time=1),
    Message('pitchwheel', channel=3, pitch=3919, time=3),
    Message('pitchwheel', channel=2, pitch=3919, time=0),
    Message('note_off', channel=12, note=48, velocity=0, time=1),
    Message('pitchwheel', channel=2, pitch=5236, time=4),
    Message('pitchwheel', channel=3, pitch=5236, time=0),
    Message('pitchwheel', channel=3, pitch=7260, time=4),
    Message('pitchwheel', channel=2, pitch=7260, time=0),
    Message('pitchwheel', channel=3, pitch=8191, time=3),
    Message('pitchwheel', channel=2, pitch=8191, time=0),
    Message('note_off', channel=11, note=64, velocity=0, time=17),
    Message('note_off', channel=11, note=67, velocity=0, time=14),
    Message('note_off', channel=12, note=55, velocity=0, time=89),
    Message('note_off', channel=11, note=24, velocity=0, time=11),
    Message('note_off', channel=2, note=46, velocity=0, time=23),
    Message('note_off', channel=3, note=46, velocity=0, time=0),
    Message('pitchwheel', channel=3, pitch=5718, time=11),
    Message('pitchwheel', channel=2, pitch=5718, time=0),
    Message('pitchwheel', channel=2, pitch=2827, time=3),
    Message('pitchwheel', channel=3, pitch=2827, time=0),
    Message('pitchwheel', channel=3, pitch=0, time=6),
    Message('pitchwheel', channel=2, pitch=0, time=0),
    Message('note_on', channel=3, note=43, velocity=123, time=4),
    Message('note_on', channel=12, note=67, velocity=104, time=0),
    Message('note_on', channel=11, note=84, velocity=116, time=0),
    Message('note_on', channel=6, note=62, velocity=127, time=0),
    Message('note_on', channel=2, note=43, velocity=123, time=0),
    Message('note_on', channel=12, note=60, velocity=105, time=0),
    Message('note_on', channel=12, note=64, velocity=107, time=0),
    Message('note_on', channel=12, note=67, velocity=0, time=22),
    Message('note_on', channel=6, note=64, velocity=0, time=1),
    Message('note_on', channel=12, note=64, velocity=0, time=9),
    Message('note_on', channel=12, note=60, velocity=0, time=18),
    Message('note_on', channel=12, note=60, velocity=102, time=70),
    Message('note_on', channel=3, note=45, velocity=124, time=0),
    Message('note_on', channel=12, note=64, velocity=104, time=0),
    Message('note_on', channel=2, note=45, velocity=124, time=0),
    Message('note_on', channel=12, note=67, velocity=104, time=0),
    Message('note_on', channel=2, note=43, velocity=0, time=1),
    Message('note_on', channel=3, note=43, velocity=0, time=0),
    Message('note_on', channel=11, note=84, velocity=0, time=20),
    Message('note_on', channel=12, note=64, velocity=0, time=15),
    Message('note_on', channel=12, note=67, velocity=0, time=3),
    Message('note_on', channel=12, note=60, velocity=0, time=2),
    Message('note_on', channel=6, note=64, velocity=127, time=79),
    Message('note_on', channel=12, note=64, velocity=102, time=0),
    Message('note_on', channel=12, note=67, velocity=103, time=0),
    Message('note_on', channel=12, note=60, velocity=102, time=0),
    Message('note_on', channel=6, note=62, velocity=0, time=32),
    Message('note_on', channel=12, note=64, velocity=0, time=14),
    Message('note_on', channel=12, note=67, velocity=0, time=9),
    Message('note_on', channel=6, note=65, velocity=127, time=5),
    Message('note_on', channel=12, note=60, velocity=0, time=1),
    Message('note_on', channel=6, note=64, velocity=0, time=27),
    Message('note_on', channel=6, note=65, velocity=0, time=31),
    Message('note_on', channel=12, note=64, velocity=107, time=1),
    Message('note_on', channel=12, note=60, velocity=104, time=0),
    Message('note_on', channel=2, note=43, velocity=123, time=0),
    Message('note_on', channel=12, note=67, velocity=105, time=0),
    Message('note_on', channel=3, note=43, velocity=123, time=0),
    Message('note_on', channel=3, note=45, velocity=0, time=29),
    Message('note_on', channel=2, note=45, velocity=0, time=0),
    Message('note_on', channel=6, note=62, velocity=127, time=31),
    Message('note_on', channel=12, note=60, velocity=0, time=18),
    Message('note_on', channel=12, note=64, velocity=0, time=7),
    Message('note_on', channel=12, note=67, velocity=0, time=4),
    Message('note_on', channel=1, note=48, velocity=0, time=19),
    Message('note_on', channel=0, note=60, velocity=0, time=3),
    Message('note_on', channel=0, note=67, velocity=0, time=1),
    Message('note_on', channel=0, note=64, velocity=0, time=1),
    Message('control_change', channel=12, control=64, value=0, time=6),
    Message('note_on', channel=6, note=64, velocity=127, time=1),
    Message('control_change', channel=12, control=64, value=0, time=0),
    Message('note_on', channel=3, note=48, velocity=121, time=0),
    Message('note_on', channel=9, note=36, velocity=123, time=0),
    Message('note_on', channel=0, note=60, velocity=119, time=0),
    Message('note_on', channel=12, note=48, velocity=107, time=0),
    Message('note_on', channel=9, note=42, velocity=98, time=0),
    Message('note_on', channel=2, note=48, velocity=121, time=0),
    Message('note_on', channel=9, note=42, velocity=0, time=1),
    Message('note_on', channel=9, note=36, velocity=0, time=0),
    Message('note_on', channel=2, note=43, velocity=0, time=7),
    Message('note_on', channel=3, note=43, velocity=0, time=0),
    Message('control_change', channel=0, control=64, value=127, time=4),
    Message('control_change', channel=12, control=64, value=127, time=6),
    Message('note_off', channel=6, note=62, velocity=0, time=11),
    Message('note_on', channel=12, note=55, velocity=104, time=211),
    Message('note_on', channel=9, note=42, velocity=97, time=0),
    Message('note_on', channel=0, note=67, velocity=116, time=0),
    Message('note_on', channel=9, note=42, velocity=0, time=1),
    Message('note_on', channel=12, note=48, velocity=0, time=38),
    Message('note_on', channel=0, note=60, velocity=0, time=31),
    Message('note_on', channel=0, note=67, velocity=0, time=36),
    Message('note_on', channel=0, note=72, velocity=117, time=14),
    Message('note_on', channel=12, note=55, velocity=0, time=89),
    Message('note_on', channel=6, note=64, velocity=0, time=2),
    Message('note_on', channel=9, note=37, velocity=124, time=29),
    Message('note_on', channel=12, note=67, velocity=105, time=0),
    Message('note_on', channel=9, note=42, velocity=98, time=0),
    Message('note_on', channel=12, note=64, velocity=107, time=0),
    Message('note_on', channel=12, note=60, velocity=106, time=0),
    Message('note_on', channel=9, note=42, velocity=0, time=1),
    Message('note_on', channel=9, note=37, velocity=0, time=0),
    Message('note_on', channel=12, note=67, velocity=0, time=43),
    Message('note_on', channel=12, note=64, velocity=0, time=3),
    Message('note_on', channel=12, note=60, velocity=0, time=15),
    Message('note_on', channel=0, note=72, velocity=0, time=18),
    Message('note_on', channel=12, note=64, velocity=102, time=40),
    Message('note_on', channel=12, note=67, velocity=102, time=0),
    Message('note_on', channel=12, note=60, velocity=101, time=0),
    Message('note_on', channel=0, note=79, velocity=116, time=0),
    Message('note_on', channel=12, note=67, velocity=0, time=36),
    Message('note_on', channel=12, note=64, velocity=0, time=9),
    Message('note_on', channel=12, note=60, velocity=0, time=9),
    Message('note_on', channel=0, note=79, velocity=0, time=4),
    Message('control_change', channel=11, control=64, value=0, time=37),
    Message('note_on', channel=0, note=72, velocity=119, time=25),
    Message('note_on', channel=9, note=42, velocity=98, time=0),
    Message('note_on', channel=12, note=60, velocity=100, time=0),
    Message('note_on', channel=12, note=67, velocity=101, time=0),
    Message('note_on', channel=12, note=64, velocity=102, time=0),
    Message('note_on', channel=9, note=42, velocity=0, time=1),
    Message('note_on', channel=0, note=72, velocity=0, time=33),
    Message('note_on', channel=12, note=67, velocity=0, time=12),
    Message('note_on', channel=12, note=64, velocity=0, time=3),
    Message('note_on', channel=12, note=60, velocity=0, time=6),
    Message('note_on', channel=12, note=67, velocity=101, time=65),
    Message('note_on', channel=12, note=64, velocity=101, time=0),
    Message('note_on', channel=12, note=60, velocity=102, time=0),
    Message('note_on', channel=12, note=67, velocity=0, time=88),
    Message('control_change', channel=0, control=64, value=0, time=10),
    Message('note_off', channel=12, note=64, velocity=0, time=2),
    Message('note_off', channel=2, note=48, velocity=0, time=0),
    Message('note_off', channel=3, note=48, velocity=0, time=0),
    Message('note_off', channel=12, note=60, velocity=0, time=13),
    Message('note_on', channel=9, note=36, velocity=124, time=7),
    Message('note_on', channel=3, note=43, velocity=118, time=0),
    Message('note_on', channel=0, note=55, velocity=115, time=0),
    Message('note_on', channel=2, note=43, velocity=118, time=0),
    Message('note_on', channel=12, note=43, velocity=105, time=0),
    Message('note_on', channel=9, note=42, velocity=99, time=0),
    Message('note_on', channel=9, note=42, velocity=0, time=1),
    Message('note_on', channel=9, note=36, velocity=0, time=0),
    Message('control_change', channel=12, control=64, value=0, time=72),
    Message('control_change', channel=0, control=64, value=127, time=16),
    Message('note_on', channel=0, note=62, velocity=115, time=31),
    Message('note_on', channel=0, note=55, velocity=0, time=57),
    Message('note_on', channel=0, note=62, velocity=0, time=34),
    Message('note_on', channel=0, note=67, velocity=119, time=29),
    Message('note_on', channel=12, note=50, velocity=100, time=0),
    Message('note_on', channel=9, note=42, velocity=98, time=0),
    Message('note_on', channel=9, note=42, velocity=0, time=1),
    Message('control_change', channel=12, control=64, value=127, time=5),
    Message('note_off', channel=12, note=43, velocity=0, time=65),
    Message('note_off', channel=0, note=67, velocity=0, time=57),
    Message('note_on', channel=9, note=37, velocity=124, time=112),
    Message('note_on', channel=0, note=74, velocity=116, time=0),
    Message('note_on', channel=0, note=69, velocity=119, time=0),
    Message('note_on', channel=12, note=62, velocity=107, time=0),
    Message('note_on', channel=9, note=42, velocity=98, time=0),
    Message('note_on', channel=12, note=59, velocity=109, time=0),
    Message('note_on', channel=12, note=55, velocity=107, time=0),
    Message('note_on', channel=9, note=42, velocity=0, time=1),
    Message('note_on', channel=9, note=37, velocity=0, time=0),
    Message('note_on', channel=12, note=50, velocity=0, time=27),
    Message('note_on', channel=0, note=74, velocity=0, time=6),
    Message('note_on', channel=12, note=62, velocity=0, time=2),
    Message('note_on', channel=12, note=59, velocity=0, time=4),
    Message('note_on', channel=12, note=55, velocity=0, time=11),
    Message('note_on', channel=12, note=62, velocity=102, time=69),
    Message('note_on', channel=12, note=55, velocity=102, time=0),
    Message('note_on', channel=12, note=59, velocity=103, time=0),
    Message('note_on', channel=0, note=69, velocity=0, time=8),
    Message('note_on', channel=12, note=62, velocity=0, time=29),
    Message('note_on', channel=12, note=55, velocity=0, time=13),
    Message('note_on', channel=12, note=59, velocity=0, time=0),
    Message('note_on', channel=12, note=62, velocity=102, time=70),
    Message('note_on', channel=0, note=74, velocity=118, time=0),
    Message('note_on', channel=0, note=67, velocity=118, time=0),
    Message('note_on', channel=12, note=55, velocity=101, time=0),
    Message('note_on', channel=12, note=59, velocity=102, time=0),
    Message('note_on', channel=9, note=42, velocity=98, time=0),
    Message('note_on', channel=9, note=42, velocity=0, time=1),
    Message('note_on', channel=0, note=67, velocity=0, time=28),
    Message('note_on', channel=0, note=74, velocity=0, time=16),
    Message('note_on', channel=12, note=62, velocity=0, time=1),
    Message('note_on', channel=12, note=55, velocity=0, time=4),
    Message('note_on', channel=12, note=59, velocity=0, time=0),
    Message('note_on', channel=12, note=62, velocity=102, time=70),
    Message('note_on', channel=12, note=55, velocity=101, time=0),
    Message('note_on', channel=12, note=59, velocity=102, time=0),
    Message('control_change', channel=0, control=64, value=0, time=69),
    Message('control_change', channel=12, control=64, value=0, time=46),
    Message('note_on', channel=3, note=45, velocity=121, time=5),
    Message('note_on', channel=0, note=57, velocity=117, time=0),
    Message('note_on', channel=9, note=36, velocity=124, time=0),
    Message('note_on', channel=2, note=45, velocity=121, time=0),
    Message('note_on', channel=0, note=69, velocity=117, time=0),
    Message('note_on', channel=12, note=45, velocity=105, time=0),
    Message('note_on', channel=0, note=76, velocity=117, time=0),
    Message('note_on', channel=9, note=42, velocity=98, time=0),
    Message('note_on', channel=9, note=42, velocity=0, time=1),
    Message('note_on', channel=9, note=36, velocity=0, time=0),
    Message('note_on', channel=12, note=55, velocity=0, time=11),
    Message('note_on', channel=12, note=62, velocity=0, time=0),
    Message('note_on', channel=12, note=59, velocity=0, time=3),
    Message('note_on', channel=2, note=43, velocity=0, time=51),
    Message('note_on', channel=3, note=43, velocity=0, time=0),
    Message('control_change', channel=0, control=64, value=127, time=13),
    Message('control_change', channel=12, control=64, value=127, time=0),
    Message('note_on', channel=12, note=52, velocity=102, time=161),
    Message('note_on', channel=9, note=42, velocity=98, time=0),
    Message('note_on', channel=9, note=42, velocity=0, time=1),
    Message('note_on', channel=12, note=45, velocity=0, time=42),
    Message('note_on', channel=0, note=76, velocity=0, time=32),
    Message('note_on', channel=0, note=69, velocity=0, time=92),
    Message('note_on', channel=0, note=57, velocity=0, time=14),
    Message('note_on', channel=12, note=64, velocity=105, time=59),
    Message('note_on', channel=9, note=42, velocity=99, time=0),
    Message('note_on', channel=12, note=60, velocity=106, time=0),
    Message('note_on', channel=9, note=37, velocity=123, time=0),
    Message('note_on', channel=12, note=57, velocity=104, time=0),
    Message('note_on', channel=12, note=52, velocity=0, time=0),
    Message('note_on', channel=9, note=42, velocity=0, time=1),
    Message('note_on', channel=9, note=37, velocity=0, time=0),
    Message('note_on', channel=12, note=64, velocity=0, time=45),
    Message('note_on', channel=12, note=60, velocity=0, time=0),
    Message('note_on', channel=12, note=57, velocity=0, time=13),
    Message('note_on', channel=12, note=60, velocity=103, time=61),
    Message('note_on', channel=12, note=57, velocity=102, time=0),
    Message('note_on', channel=12, note=64, velocity=103, time=0),
    Message('note_on', channel=12, note=64, velocity=0, time=44),
    Message('note_on', channel=12, note=60, velocity=0, time=1),
    Message('note_on', channel=12, note=57, velocity=0, time=11),
    Message('note_on', channel=12, note=60, velocity=102, time=64),
    Message('note_on', channel=12, note=57, velocity=101, time=0),
    Message('note_on', channel=9, note=42, velocity=98, time=0),
    Message('note_on', channel=12, note=64, velocity=101, time=0),
    Message('note_on', channel=9, note=42, velocity=0, time=1),
    Message('note_on', channel=12, note=64, velocity=0, time=40),
    Message('note_on', channel=12, note=60, velocity=0, time=2),
    Message('note_on', channel=12, note=57, velocity=0, time=9),
    Message('note_on', channel=12, note=57, velocity=100, time=68),
    Message('note_on', channel=0, note=53, velocity=120, time=0),
    Message('note_on', channel=12, note=60, velocity=102, time=0),
    Message('note_on', channel=12, note=64, velocity=101, time=0),
    Message('control_change', channel=0, control=64, value=0, time=35),
    Message('note_off', channel=12, note=64, velocity=0, time=45),
    Message('note_off', channel=12, note=60, velocity=0, time=10),
    Message('note_off', channel=12, note=57, velocity=0, time=11),
    Message('note_off', channel=3, note=45, velocity=0, time=4),
    Message('note_off', channel=2, note=45, velocity=0, time=0),
    Message('note_on', channel=12, note=41, velocity=106, time=15),
    Message('note_on', channel=2, note=41, velocity=120, time=0),
    Message('note_on', channel=9, note=36, velocity=125, time=0),
    Message('note_on', channel=9, note=42, velocity=99, time=0),
    Message('note_on', channel=3, note=41, velocity=120, time=0),
    Message('note_on', channel=9, note=42, velocity=0, time=1),
    Message('note_on', channel=9, note=36, velocity=0, time=0),
    Message('control_change', channel=12, control=64, value=0, time=10),
    Message('control_change', channel=0, control=64, value=127, time=6),
    Message('note_on', channel=0, note=60, velocity=120, time=103),
    Message('note_on', channel=0, note=53, velocity=0, time=10),
    Message('note_on', channel=0, note=60, velocity=0, time=68),
    Message('control_change', channel=12, control=64, value=127, time=41),
    Message('note_on', channel=0, note=65, velocity=119, time=1),
    Message('note_on', channel=12, note=48, velocity=104, time=0),
    Message('note_on', channel=9, note=42, velocity=98, time=0),
    Message('note_on', channel=9, note=42, velocity=0, time=1),
    Message('note_on', channel=0, note=69, velocity=117, time=119),
    Message('note_on', channel=12, note=41, velocity=0, time=42),
    Message('note_on', channel=0, note=69, velocity=0, time=11),
    Message('note_on', channel=0, note=65, velocity=0, time=29),
    Message('note_on', channel=12, note=48, velocity=0, time=20),
    Message('note_on', channel=12, note=57, velocity=105, time=18),
    Message('note_on', channel=12, note=53, velocity=104, time=0),
    Message('note_on', channel=0, note=72, velocity=122, time=0),
    Message('note_on', channel=9, note=42, velocity=99, time=0),
    Message('note_on', channel=12, note=60, velocity=104, time=0),
    Message('note_on', channel=9, note=37, velocity=125, time=0),
    Message('note_on', channel=9, note=37, velocity=0, time=1),
    Message('note_on', channel=9, note=42, velocity=0, time=0),
    Message('note_on', channel=0, note=72, velocity=0, time=30),
    Message('note_on', channel=12, note=60, velocity=0, time=7),
    Message('note_on', channel=12, note=57, velocity=0, time=9),
    Message('note_on', channel=12, note=53, velocity=0, time=21),
    Message('note_on', channel=12, note=60, velocity=103, time=52),
    Message('note_on', channel=12, note=57, velocity=103, time=0),
    Message('note_on', channel=12, note=53, velocity=102, time=0),
    Message('note_on', channel=12, note=53, velocity=0, time=35),
    Message('note_on', channel=12, note=60, velocity=0, time=0),
    Message('note_on', channel=12, note=57, velocity=0, time=0),
    Message('note_on', channel=9, note=42, velocity=99, time=85),
    Message('note_on', channel=12, note=60, velocity=102, time=0),
    Message('note_on', channel=12, note=57, velocity=102, time=0),
    Message('note_on', channel=12, note=53, velocity=101, time=0),
    Message('note_on', channel=9, note=42, velocity=0, time=1),
    Message('note_on', channel=12, note=60, velocity=0, time=44),
    Message('note_on', channel=12, note=57, velocity=0, time=4),
    Message('note_on', channel=12, note=53, velocity=0, time=0),
    Message('note_on', channel=12, note=57, velocity=103, time=71),
    Message('note_on', channel=12, note=60, velocity=103, time=0),
    Message('note_on', channel=12, note=53, velocity=102, time=0),
    Message('note_on', channel=12, note=60, velocity=0, time=46),
    Message('note_on', channel=12, note=53, velocity=0, time=1),
    Message('control_change', channel=0, control=64, value=0, time=1),
    Message('note_off', channel=12, note=57, velocity=0, time=0),
    Message('control_change', channel=12, control=64, value=0, time=71),
    Message('note_on', channel=0, note=60, velocity=119, time=1),
    Message('note_on', channel=2, note=48, velocity=119, time=0),
    Message('note_on', channel=9, note=42, velocity=98, time=0),
    Message('note_on', channel=3, note=48, velocity=119, time=0),
    Message('note_on', channel=9, note=36, velocity=123, time=0),
    Message('note_on', channel=12, note=48, velocity=107, time=0),
    Message('note_on', channel=9, note=36, velocity=0, time=1),
    Message('note_on', channel=9, note=42, velocity=0, time=0),
    Message('control_change', channel=0, control=64, value=127, time=18),
    Message('control_change', channel=12, control=64, value=127, time=0),
    Message('note_off', channel=2, note=41, velocity=0, time=9),
    Message('note_off', channel=3, note=41, velocity=0, time=0),
    Message('note_on', channel=0, note=67, velocity=116, time=92),
    Message('note_on', channel=0, note=60, velocity=0, time=61),
    Message('note_on', channel=0, note=67, velocity=0, time=23),
    Message('note_on', channel=9, note=42, velocity=97, time=36),
    Message('note_on', channel=0, note=72, velocity=119, time=0),
    Message('note_on', channel=12, note=55, velocity=103, time=0),
    Message('note_on', channel=9, note=42, velocity=0, time=1),
    Message('note_on', channel=12, note=48, velocity=0, time=10),
    Message('note_on', channel=0, note=72, velocity=0, time=127),
    Message('note_on', channel=12, note=55, velocity=0, time=69),
    Message('note_on', channel=9, note=37, velocity=124, time=33),
    Message('note_on', channel=0, note=79, velocity=119, time=0),
    Message('note_on', channel=9, note=42, velocity=98, time=0),
    Message('note_on', channel=12, note=64, velocity=107, time=0),
    Message('note_on', channel=12, note=60, velocity=105, time=0),
    Message('note_on', channel=12, note=67, velocity=105, time=0),
    Message('note_on', channel=9, note=42, velocity=0, time=1),
    Message('note_on', channel=9, note=37, velocity=0, time=0),
    Message('note_on', channel=0, note=79, velocity=0, time=81),
    Message('note_on', channel=12, note=67, velocity=0, time=19),
    Message('note_on', channel=12, note=64, velocity=0, time=17),
    Message('note_on', channel=12, note=60, velocity=0, time=17),
    Message('note_on', channel=12, note=67, velocity=101, time=105),
    Message('note_on', channel=0, note=72, velocity=121, time=0),
    Message('note_on', channel=9, note=42, velocity=98, time=0),
    Message('note_on', channel=12, note=64, velocity=101, time=0),
    Message('note_on', channel=12, note=60, velocity=101, time=0),
    Message('note_on', channel=9, note=42, velocity=0, time=1),
    Message('note_on', channel=12, note=67, velocity=0, time=21),
    Message('note_on', channel=12, note=64, velocity=0, time=11),
    Message('note_on', channel=0, note=72, velocity=0, time=4),
    Message('note_on', channel=12, note=60, velocity=0, time=2),
    Message('note_on', channel=0, note=84, velocity=121, time=81),
    Message('note_on', channel=12, note=67, velocity=101, time=0),
    Message('note_on', channel=12, note=60, velocity=102, time=0),
    Message('note_on', channel=12, note=64, velocity=102, time=0),
    Message('note_on', channel=12, note=67, velocity=0, time=22),
    Message('note_on', channel=0, note=84, velocity=0, time=10),
    Message('note_on', channel=12, note=64, velocity=0, time=4),
    Message('note_on', channel=12, note=60, velocity=0, time=6),
    Message('control_change', channel=12, control=64, value=0, time=66),
    Message('note_on', channel=12, note=67, velocity=105, time=12),
    Message('note_on', channel=9, note=42, velocity=99, time=0),
    Message('note_on', channel=12, note=60, velocity=105, time=0),
    Message('note_on', channel=12, note=64, velocity=107, time=0),
    Message('note_on', channel=12, note=48, velocity=104, time=0),
    Message('note_on', channel=9, note=36, velocity=124, time=0),
    Message('note_on', channel=9, note=36, velocity=0, time=1),
    Message('note_on', channel=9, note=42, velocity=0, time=0),
    Message('control_change', channel=12, control=64, value=127, time=45),
    Message('note_off', channel=12, note=67, velocity=0, time=65),
    Message('note_off', channel=12, note=64, velocity=0, time=15),
    Message('note_off', channel=12, note=60, velocity=0, time=7),
    Message('note_on', channel=12, note=55, velocity=102, time=107),
    Message('note_on', channel=0, note=60, velocity=116, time=0),
    Message('note_on', channel=9, note=42, velocity=98, time=0),
    Message('note_on', channel=9, note=42, velocity=0, time=1),
    Message('note_on', channel=12, note=48, velocity=0, time=7),
    Message('note_on', channel=12, note=60, velocity=103, time=112),
    Message('note_on', channel=0, note=67, velocity=118, time=0),
    Message('note_on', channel=12, note=64, velocity=99, time=0),
    Message('note_on', channel=12, note=67, velocity=100, time=0),
    Message('note_on', channel=12, note=55, velocity=0, time=13),
    Message('note_on', channel=12, note=64, velocity=0, time=6),
    Message('note_on', channel=12, note=67, velocity=0, time=3),
    Message('note_on', channel=0, note=60, velocity=0, time=18),
    Message('note_on', channel=12, note=60, velocity=0, time=1),
    Message('note_on', channel=0, note=67, velocity=0, time=28),
    Message('note_on', channel=12, note=60, velocity=106, time=51),
    Message('note_on', channel=9, note=42, velocity=98, time=0),
    Message('note_on', channel=0, note=74, velocity=122, time=0),
    Message('note_on', channel=9, note=37, velocity=124, time=0),
    Message('note_on', channel=12, note=64, velocity=108, time=0),
    Message('note_on', channel=12, note=67, velocity=106, time=0),
    Message('note_on', channel=9, note=37, velocity=0, time=1),
    Message('note_on', channel=9, note=42, velocity=0, time=0),
    Message('note_on', channel=12, note=67, velocity=0, time=81),
    Message('note_on', channel=12, note=64, velocity=0, time=1),
    Message('note_on', channel=12, note=60, velocity=0, time=3),
    Message('note_on', channel=0, note=74, velocity=0, time=11),
    Message('note_on', channel=0, note=79, velocity=118, time=23),
    Message('note_on', channel=0, note=79, velocity=0, time=75),
    Message('note_on', channel=12, note=64, velocity=105, time=45),
    Message('note_on', channel=9, note=42, velocity=98, time=0),
    Message('note_on', channel=12, note=62, velocity=105, time=0),
    Message('note_on', channel=0, note=72, velocity=122, time=0),
    Message('note_on', channel=12, note=67, velocity=104, time=0),
    Message('note_on', channel=9, note=42, velocity=0, time=1),
    Message('note_on', channel=12, note=64, velocity=0, time=26),
    Message('note_on', channel=12, note=67, velocity=0, time=14),
    Message('note_on', channel=0, note=72, velocity=0, time=2),
    Message('note_on', channel=12, note=62, velocity=0, time=4),
    Message('control_change', channel=0, control=64, value=0, time=152),
    Message('control_change', channel=12, control=64, value=0, time=39),
    Message('note_on', channel=12, note=59, velocity=108, time=2),
    Message('note_on', channel=9, note=42, velocity=98, time=0),
    Message('note_on', channel=2, note=31, velocity=126, time=0),
    Message('note_on', channel=12, note=55, velocity=106, time=0),
    Message('note_on', channel=3, note=31, velocity=126, time=0),
    Message('note_on', channel=9, note=36, velocity=124, time=0),
    Message('note_on', channel=12, note=62, velocity=106, time=0),
    Message('note_on', channel=12, note=43, velocity=105, time=0),
    Message('note_on', channel=0, note=55, velocity=119, time=0),
    Message('note_on', channel=9, note=36, velocity=0, time=1),
    Message('note_on', channel=9, note=42, velocity=0, time=0),
    Message('control_change', channel=0, control=64, value=127, time=18),
    Message('note_off', channel=3, note=48, velocity=0, time=0),
    Message('note_off', channel=2, note=48, velocity=0, time=0),
    Message('control_change', channel=12, control=64, value=127, time=60),
    Message('note_on', channel=0, note=62, velocity=119, time=41),
    Message('note_on', channel=0, note=55, velocity=0, time=37),
    Message('note_on', channel=12, note=62, velocity=0, time=37),
    Message('note_on', channel=12, note=55, velocity=0, time=1),
    Message('note_on', channel=12, note=59, velocity=0, time=0),
    Message('note_on', channel=0, note=62, velocity=0, time=29),
    Message('note_on', channel=12, note=43, velocity=0, time=1),
    Message('note_on', channel=12, note=50, velocity=103, time=15),
    Message('note_on', channel=0, note=67, velocity=119, time=0),
    Message('note_on', channel=9, note=42, velocity=98, time=0),
    Message('note_on', channel=9, note=42, velocity=0, time=1),
    Message('note_on', channel=12, note=50, velocity=0, time=106),
    Message('note_on', channel=12, note=55, velocity=99, time=13),
    Message('note_on', channel=0, note=71, velocity=116, time=0),
    Message('note_on', channel=12, note=55, velocity=0, time=19),
    Message('note_on', channel=0, note=67, velocity=0, time=54),
    Message('note_on', channel=0, note=71, velocity=0, time=32),
    Message('note_on', channel=12, note=59, velocity=103, time=15),
    Message('note_on', channel=12, note=55, velocity=103, time=0),
    Message('note_on', channel=12, note=62, velocity=103, time=0),
    Message('note_on', channel=9, note=42, velocity=99, time=0),
    Message('note_on', channel=0, note=74, velocity=120, time=0),
    Message('note_on', channel=9, note=37, velocity=123, time=0),
    Message('note_on', channel=9, note=37, velocity=0, time=1),
    Message('note_on', channel=9, note=42, velocity=0, time=0),
    Message('note_on', channel=12, note=62, velocity=0, time=43),
    Message('note_on', channel=12, note=55, velocity=0, time=12),
    Message('note_on', channel=12, note=59, velocity=0, time=0),
    Message('note_on', channel=12, note=59, velocity=101, time=64),
    Message('note_on', channel=12, note=55, velocity=99, time=0),
    Message('note_on', channel=12, note=55, velocity=0, time=22),
    Message('note_on', channel=12, note=59, velocity=0, time=5),
    Message('note_on', channel=0, note=74, velocity=0, time=7),
    Message('note_on', channel=0, note=71, velocity=119, time=86),
    Message('note_on', channel=12, note=62, velocity=97, time=0),
    Message('note_on', channel=9, note=42, velocity=98, time=0),
    Message('note_on', channel=0, note=74, velocity=112, time=0),
    Message('note_on', channel=12, note=55, velocity=98, time=0),
    Message('note_on', channel=9, note=42, velocity=0, time=1),
    Message('note_on', channel=12, note=62, velocity=0, time=16),
    Message('note_on', channel=0, note=74, velocity=0, time=21),
    Message('note_on', channel=12, note=55, velocity=0, time=10),
    Message('note_on', channel=12, note=55, velocity=100, time=72),
    Message('note_on', channel=12, note=62, velocity=102, time=0),
    Message('note_on', channel=12, note=60, velocity=103, time=0),
    Message('note_on', channel=0, note=67, velocity=119, time=0),
    Message('note_on', channel=0, note=71, velocity=0, time=1),
    Message('note_on', channel=12, note=60, velocity=0, time=40),
    Message('note_on', channel=12, note=62, velocity=0, time=12),
    Message('note_on', channel=0, note=67, velocity=0, time=6),
    Message('note_on', channel=12, note=55, velocity=0, time=5),
    Message('control_change', channel=12, control=64, value=0, time=50),
    Message('note_on', channel=12, note=43, velocity=103, time=6),
    Message('note_on', channel=12, note=55, velocity=103, time=0),
    Message('note_on', channel=12, note=59, velocity=107, time=0),
    Message('note_on', channel=9, note=42, velocity=99, time=0),
    Message('note_on', channel=12, note=62, velocity=104, time=0),
    Message('note_on', channel=9, note=36, velocity=125, time=0),
    Message('note_on', channel=0, note=79, velocity=121, time=0),
    Message('note_on', channel=9, note=36, velocity=0, time=1),
    Message('note_on', channel=9, note=42, velocity=0, time=0),
    Message('note_on', channel=0, note=79, velocity=0, time=40),
    Message('control_change', channel=12, control=64, value=127, time=13),
    Message('note_on', channel=0, note=91, velocity=122, time=186),
    Message('note_on', channel=9, note=42, velocity=98, time=0),
    Message('note_on', channel=9, note=42, velocity=0, time=1),
    Message('note_on', channel=0, note=91, velocity=0, time=35),
    Message('note_on', channel=12, note=50, velocity=103, time=204),
    Message('note_on', channel=9, note=42, velocity=99, time=0),
    Message('note_on', channel=9, note=37, velocity=125, time=0),
    Message('note_on', channel=7, note=67, velocity=126, time=0),
    Message('note_on', channel=9, note=37, velocity=0, time=1),
    Message('note_on', channel=9, note=42, velocity=0, time=0),
    Message('note_on', channel=12, note=43, velocity=0, time=9),
    Message('note_on', channel=12, note=55, velocity=0, time=17),
    Message('note_on', channel=12, note=59, velocity=0, time=3),
    Message('note_on', channel=3, note=31, velocity=0, time=4),
    Message('note_on', channel=2, note=31, velocity=0, time=0),
    Message('note_on', channel=12, note=62, velocity=0, time=8),
    Message('note_on', channel=12, note=50, velocity=0, time=28),
    Message('note_on', channel=12, note=55, velocity=105, time=50),
    Message('note_on', channel=12, note=62, velocity=102, time=0),
    Message('note_on', channel=3, note=31, velocity=121, time=0),
    Message('note_on', channel=2, note=31, velocity=121, time=0),
    Message('note_on', channel=12, note=62, velocity=0, time=21),
    Message('note_on', channel=12, note=55, velocity=0, time=48),
    Message('note_on', channel=2, note=31, velocity=0, time=28),
    Message('note_on', channel=3, note=31, velocity=0, time=0),
    Message('note_on', channel=9, note=42, velocity=99, time=23),
    Message('note_on', channel=12, note=59, velocity=106, time=0),
    Message('note_on', channel=12, note=62, velocity=102, time=0),
    Message('note_on', channel=12, note=55, velocity=99, time=0),
    Message('note_on', channel=2, note=35, velocity=123, time=0),
    Message('note_on', channel=3, note=35, velocity=123, time=0),
    Message('note_on', channel=9, note=42, velocity=0, time=1),
    Message('note_on', channel=12, note=62, velocity=0, time=26),
    Message('note_on', channel=12, note=55, velocity=0, time=24),
    Message('control_change', channel=0, control=64, value=0, time=7),
    Message('note_off', channel=12, note=59, velocity=0, time=20),
    Message('note_off', channel=2, note=35, velocity=0, time=24),
    Message('note_off', channel=3, note=35, velocity=0, time=0),
    Message('note_on', channel=3, note=31, velocity=122, time=18),
    Message('note_on', channel=2, note=31, velocity=122, time=0),
    Message('pitchwheel', channel=7, pitch=-161, time=13),
    Message('pitchwheel', channel=7, pitch=224, time=4),
    Message('pitchwheel', channel=7, pitch=385, time=3),
    Message('pitchwheel', channel=7, pitch=578, time=6),
    Message('pitchwheel', channel=7, pitch=706, time=5),
    Message('pitchwheel', channel=7, pitch=867, time=4),
    Message('pitchwheel', channel=7, pitch=963, time=5),
    Message('pitchwheel', channel=7, pitch=1060, time=4),
    Message('pitchwheel', channel=7, pitch=1156, time=5),
    Message('pitchwheel', channel=7, pitch=1317, time=3),
    Message('pitchwheel', channel=7, pitch=1509, time=4),
    Message('pitchwheel', channel=7, pitch=1702, time=5),
    Message('pitchwheel', channel=7, pitch=1863, time=4),
    Message('pitchwheel', channel=7, pitch=2056, time=5),
    Message('pitchwheel', channel=7, pitch=2280, time=6),
    Message('pitchwheel', channel=7, pitch=2377, time=3),
    Message('pitchwheel', channel=7, pitch=2505, time=4),
    Message('note_off', channel=2, note=31, velocity=0, time=1),
    Message('note_off', channel=3, note=31, velocity=0, time=0),
    Message('pitchwheel', channel=7, pitch=2698, time=4),
    Message('pitchwheel', channel=7, pitch=3019, time=4),
    Message('pitchwheel', channel=7, pitch=3308, time=5),
    Message('control_change', channel=12, control=64, value=0, time=1),
    Message('pitchwheel', channel=7, pitch=3469, time=3),
    Message('pitchwheel', channel=7, pitch=3630, time=5),
    Message('pitchwheel', channel=7, pitch=3822, time=4),
    Message('pitchwheel', channel=7, pitch=3919, time=5),
    Message('pitchwheel', channel=7, pitch=4047, time=4),
    Message('note_on', channel=12, note=45, velocity=108, time=1),
    Message('note_on', channel=0, note=57, velocity=119, time=0),
    Message('note_on', channel=9, note=42, velocity=98, time=0),
    Message('note_on', channel=9, note=36, velocity=123, time=0),
    Message('pitchwheel', channel=7, pitch=4208, time=0),
    Message('note_on', channel=3, note=33, velocity=124, time=0),
    Message('note_on', channel=2, note=33, velocity=124, time=0),
    Message('note_on', channel=9, note=36, velocity=0, time=1),
    Message('note_on', channel=9, note=42, velocity=0, time=0),
    Message('pitchwheel', channel=7, pitch=4336, time=6),
    Message('pitchwheel', channel=7, pitch=4433, time=4),
    Message('pitchwheel', channel=7, pitch=4561, time=5),
    Message('pitchwheel', channel=7, pitch=4658, time=4),
    Message('pitchwheel', channel=7, pitch=4754, time=5),
    Message('pitchwheel', channel=7, pitch=4818, time=4),
    Message('pitchwheel', channel=7, pitch=4915, time=5),
    Message('pitchwheel', channel=7, pitch=5043, time=4),
    Message('pitchwheel', channel=7, pitch=5140, time=5),
    Message('pitchwheel', channel=7, pitch=5268, time=4),
    Message('pitchwheel', channel=7, pitch=5364, time=5),
    Message('pitchwheel', channel=7, pitch=5461, time=4),
    Message('control_change', channel=0, control=64, value=127, time=1),
    Message('pitchwheel', channel=7, pitch=5718, time=4),
    Message('pitchwheel', channel=7, pitch=6039, time=4),
    Message('pitchwheel', channel=7, pitch=6296, time=5),
    Message('pitchwheel', channel=7, pitch=6489, time=4),
    Message('pitchwheel', channel=7, pitch=6810, time=3),
    Message('pitchwheel', channel=7, pitch=7131, time=5),
    Message('pitchwheel', channel=7, pitch=7388, time=4),
    Message('pitchwheel', channel=7, pitch=7774, time=5),
    Message('pitchwheel', channel=7, pitch=7967, time=4),
    Message('pitchwheel', channel=7, pitch=8191, time=5),
    Message('note_on', channel=0, note=64, velocity=117, time=20),
    Message('note_on', channel=0, note=57, velocity=0, time=27),
    Message('note_on', channel=0, note=64, velocity=0, time=67),
    Message('control_change', channel=12, control=64, value=127, time=20),
    Message('note_on', channel=12, note=52, velocity=103, time=6),
    Message('note_on', channel=0, note=71, velocity=120, time=0),
    Message('note_on', channel=9, note=42, velocity=97, time=0),
    Message('note_on', channel=9, note=42, velocity=0, time=1),
    Message('note_on', channel=0, note=71, velocity=0, time=83),
    Message('note_on', channel=0, note=76, velocity=118, time=36),
    Message('note_on', channel=0, note=76, velocity=0, time=82),
    Message('note_on', channel=12, note=64, velocity=107, time=38),
    Message('note_on', channel=9, note=42, velocity=98, time=0),
    Message('note_on', channel=12, note=60, velocity=108, time=0),
    Message('note_on', channel=12, note=57, velocity=106, time=0),
    Message('note_on', channel=9, note=37, velocity=124, time=0),
    Message('note_on', channel=0, note=69, velocity=120, time=0),
    Message('note_on', channel=9, note=37, velocity=0, time=1),
    Message('note_on', channel=9, note=42, velocity=0, time=0),
    Message('note_on', channel=12, note=64, velocity=0, time=43),
    Message('note_on', channel=12, note=45, velocity=0, time=8),
    Message('note_on', channel=12, note=60, velocity=0, time=1),
    Message('note_on', channel=0, note=69, velocity=0, time=8),
    Message('note_on', channel=12, note=57, velocity=0, time=2),
    Message('note_on', channel=12, note=52, velocity=0, time=34),
    Message('note_on', channel=12, note=64, velocity=103, time=23),
    Message('note_on', channel=12, note=60, velocity=105, time=0),
    Message('note_on', channel=12, note=57, velocity=102, time=0),
    Message('note_on', channel=12, note=64, velocity=0, time=30),
    Message('note_on', channel=12, note=57, velocity=0, time=3),
    Message('note_on', channel=12, note=60, velocity=0, time=6),
    Message('note_on', channel=9, note=42, velocity=98, time=81),
    Message('note_on', channel=12, note=64, velocity=103, time=0),
    Message('note_on', channel=12, note=57, velocity=103, time=0),
    Message('note_on', channel=12, note=60, velocity=104, time=0),
    Message('note_on', channel=9, note=42, velocity=0, time=1),
    Message('note_on', channel=12, note=64, velocity=0, time=30),
    Message('note_on', channel=12, note=57, velocity=0, time=5),
    Message('note_on', channel=12, note=60, velocity=0, time=3),
    Message('note_on', channel=3, note=33, velocity=0, time=49),
    Message('note_on', channel=2, note=33, velocity=0, time=0),
    Message('note_on', channel=12, note=60, velocity=102, time=32),
    Message('note_on', channel=12, note=64, velocity=102, time=0),
    Message('note_on', channel=12, note=57, velocity=102, time=0),
    Message('note_on', channel=7, note=67, velocity=0, time=42),
    Message('control_change', channel=0, control=64, value=0, time=23),
    Message('control_change', channel=12, control=64, value=0, time=28),
    Message('pitchwheel', channel=7, pitch=7324, time=21),
    Message('pitchwheel', channel=7, pitch=5975, time=5),
    Message('note_on', channel=2, note=31, velocity=126, time=1),
    Message('note_on', channel=3, note=31, velocity=126, time=0),
    Message('note_on', channel=0, note=55, velocity=119, time=0),
    Message('note_on', channel=12, note=43, velocity=105, time=0),
    Message('note_on', channel=9, note=42, velocity=99, time=0),
    Message('note_on', channel=9, note=36, velocity=124, time=0),
    Message('pitchwheel', channel=7, pitch=4947, time=1),
    Message('note_off', channel=9, note=36, velocity=0, time=0),
    Message('note_off', channel=9, note=42, velocity=0, time=0),
    Message('note_off', channel=12, note=64, velocity=0, time=4),
    Message('pitchwheel', channel=7, pitch=4176, time=5),
    Message('note_off', channel=12, note=60, velocity=0, time=0),
    Message('pitchwheel', channel=7, pitch=3437, time=1),
    Message('note_off', channel=12, note=57, velocity=0, time=1),
    Message('pitchwheel', channel=7, pitch=2570, time=5),
    Message('pitchwheel', channel=7, pitch=1670, time=3),
    Message('pitchwheel', channel=7, pitch=867, time=4),
    Message('control_change', channel=0, control=64, value=127, time=4),
    Message('pitchwheel', channel=7, pitch=-129, time=0),
    Message('pitchwheel', channel=7, pitch=0, time=5),
    Message('control_change', channel=12, control=64, value=127, time=25),
    Message('note_on', channel=0, note=62, velocity=117, time=62),
    Message('note_on', channel=0, note=55, velocity=0, time=29),
    Message('note_on', channel=0, note=62, velocity=0, time=55),
    Message('note_on', channel=0, note=67, velocity=120, time=36),
    Message('note_on', channel=12, note=50, velocity=103, time=0),
    Message('note_on', channel=9, note=42, velocity=98, time=0),
    Message('note_on', channel=9, note=42, velocity=0, time=1),
    Message('note_on', channel=12, note=43, velocity=0, time=22),
    Message('note_on', channel=0, note=67, velocity=0, time=20),
    Message('note_on', channel=12, note=59, velocity=110, time=197),
    Message('note_on', channel=9, note=37, velocity=124, time=0),
    Message('note_on', channel=12, note=55, velocity=106, time=0),
    Message('note_on', channel=9, note=42, velocity=98, time=0),
    Message('note_on', channel=0, note=81, velocity=123, time=0),
    Message('note_on', channel=12, note=62, velocity=107, time=0),
    Message('note_on', channel=9, note=42, velocity=0, time=1),
    Message('note_on', channel=9, note=37, velocity=0, time=0),
    Message('note_on', channel=12, note=62, velocity=0, time=32),
    Message('note_on', channel=12, note=59, velocity=0, time=12),
    Message('note_on', channel=12, note=55, velocity=0, time=8),
    Message('note_on', channel=0, note=81, velocity=0, time=1),
    Message('note_on', channel=12, note=50, velocity=0, time=28),
    Message('note_on', channel=0, note=79, velocity=123, time=38),
    Message('note_on', channel=12, note=59, velocity=104, time=0),
    Message('note_on', channel=12, note=55, velocity=102, time=0),
    Message('note_on', channel=12, note=62, velocity=102, time=0),
    Message('note_on', channel=12, note=62, velocity=0, time=30),
    Message('note_on', channel=0, note=79, velocity=0, time=6),
    Message('note_on', channel=12, note=59, velocity=0, time=6),
    Message('note_on', channel=12, note=55, velocity=0, time=8),
    Message('note_on', channel=12, note=62, velocity=103, time=70),
    Message('note_on', channel=12, note=59, velocity=103, time=0),
    Message('note_on', channel=9, note=42, velocity=98, time=0),
    Message('note_on', channel=12, note=55, velocity=102, time=0),
    Message('note_on', channel=9, note=42, velocity=0, time=1),
    Message('note_on', channel=12, note=62, velocity=0, time=43),
    Message('note_on', channel=12, note=59, velocity=0, time=4),
    Message('note_on', channel=12, note=55, velocity=0, time=0),
    Message('note_on', channel=12, note=55, velocity=101, time=72),
    Message('note_on', channel=12, note=62, velocity=101, time=0),
    Message('note_on', channel=12, note=59, velocity=101, time=0),
    Message('note_on', channel=2, note=31, velocity=0, time=76),
    Message('note_on', channel=3, note=31, velocity=0, time=0),
    Message('control_change', channel=12, control=64, value=0, time=16),
    Message('note_on', channel=0, note=53, velocity=119, time=28),
    Message('note_on', channel=3, note=41, velocity=126, time=0),
    Message('note_on', channel=12, note=41, velocity=105, time=0),
    Message('note_on', channel=9, note=36, velocity=124, time=0),
    Message('note_on', channel=9, note=42, velocity=98, time=0),
    Message('note_on', channel=2, note=41, velocity=126, time=0),
    Message('note_on', channel=9, note=42, velocity=0, time=1),
    Message('note_on', channel=9, note=36, velocity=0, time=0),
    Message('control_change', channel=0, control=64, value=0, time=11),
    Message('note_off', channel=12, note=62, velocity=0, time=6),
    Message('note_off', channel=12, note=55, velocity=0, time=6),
    Message('note_off', channel=12, note=59, velocity=0, time=1),
    Message('control_change', channel=12, control=64, value=127, time=32),
    Message('control_change', channel=0, control=64, value=127, time=46),
    Message('note_on', channel=0, note=60, velocity=117, time=17),
    Message('note_on', channel=0, note=53, velocity=0, time=52),
    Message('note_on', channel=0, note=60, velocity=0, time=48),
    Message('note_on', channel=12, note=48, velocity=103, time=20),
    Message('note_on', channel=0, note=65, velocity=120, time=0),
    Message('note_on', channel=9, note=42, velocity=98, time=0),
    Message('note_on', channel=9, note=42, velocity=0, time=1),
    Message('note_on', channel=12, note=41, velocity=0, time=19),
    Message('pitchwheel', channel=7, pitch=-161, time=58),
    Message('pitchwheel', channel=7, pitch=-386, time=5),
    Message('pitchwheel', channel=7, pitch=-675, time=6),
    Message('pitchwheel', channel=7, pitch=-1189, time=3),
    Message('pitchwheel', channel=7, pitch=-1478, time=4),
    Message('pitchwheel', channel=7, pitch=-1864, time=5),
    Message('pitchwheel', channel=7, pitch=-2249, time=4),
    Message('pitchwheel', channel=7, pitch=-2667, time=5),
    Message('pitchwheel', channel=7, pitch=-3020, time=4),
    Message('pitchwheel', channel=7, pitch=-3406, time=5),
    Message('note_on', channel=0, note=69, velocity=117, time=1),
    Message('note_on', channel=12, note=53, velocity=96, time=0),
    Message('pitchwheel', channel=7, pitch=-3791, time=3),
    Message('pitchwheel', channel=7, pitch=-4241, time=5),
    Message('pitchwheel', channel=7, pitch=-4627, time=4),
    Message('pitchwheel', channel=7, pitch=-5012, time=5),
    Message('pitchwheel', channel=7, pitch=-5269, time=4),
    Message('pitchwheel', channel=7, pitch=-5976, time=3),
    Message('note_off', channel=12, note=53, velocity=0, time=2),
    Message('pitchwheel', channel=7, pitch=-6875, time=3),
    Message('pitchwheel', channel=7, pitch=-7518, time=6),
    Message('note_off', channel=0, note=65, velocity=0, time=2),
    Message('pitchwheel', channel=7, pitch=-8192, time=1),
    Message('note_off', channel=0, note=69, velocity=0, time=32),
    Message('note_off', channel=12, note=48, velocity=0, time=41),
    Message('note_on', channel=12, note=60, velocity=106, time=9),
    Message('note_on', channel=0, note=72, velocity=122, time=0),
    Message('note_on', channel=7, note=72, velocity=126, time=0),
    Message('note_on', channel=9, note=37, velocity=123, time=0),
    Message('note_on', channel=12, note=53, velocity=106, time=0),
    Message('note_on', channel=9, note=42, velocity=99, time=0),
    Message('note_on', channel=12, note=57, velocity=108, time=0),
    Message('note_on', channel=9, note=42, velocity=0, time=1),
    Message('note_on', channel=9, note=37, velocity=0, time=0),
    Message('note_on', channel=0, note=72, velocity=0, time=33),
    Message('note_on', channel=12, note=60, velocity=0, time=8),
    Message('note_on', channel=12, note=57, velocity=0, time=9),
    Message('note_on', channel=12, note=53, velocity=0, time=8),
    Message('pitchwheel', channel=7, pitch=-7968, time=45),
    Message('pitchwheel', channel=7, pitch=-7325, time=4),
    Message('pitchwheel', channel=7, pitch=-6875, time=3),
    Message('pitchwheel', channel=7, pitch=-6490, time=6),
    Message('note_on', channel=12, note=53, velocity=102, time=3),
    Message('note_on', channel=12, note=57, velocity=102, time=0),
    Message('note_on', channel=12, note=60, velocity=102, time=0),
    Message('pitchwheel', channel=7, pitch=-5847, time=0),
    Message('pitchwheel', channel=7, pitch=-5430, time=9),
    Message('pitchwheel', channel=7, pitch=-5173, time=4),
    Message('pitchwheel', channel=7, pitch=-5012, time=1),
    Message('pitchwheel', channel=7, pitch=-4723, time=4),
    Message('pitchwheel', channel=7, pitch=-4530, time=5),
    Message('pitchwheel', channel=7, pitch=-4370, time=4),
    Message('note_off', channel=12, note=60, velocity=0, time=4),
    Message('pitchwheel', channel=7, pitch=-4177, time=1),
    Message('note_off', channel=12, note=57, velocity=0, time=2),
    Message('pitchwheel', channel=7, pitch=-3952, time=2),
    Message('pitchwheel', channel=7, pitch=-3823, time=5),
    Message('note_off', channel=12, note=53, velocity=0, time=3),
    Message('pitchwheel', channel=7, pitch=-3631, time=1),
    Message('pitchwheel', channel=7, pitch=-3438, time=5),
    Message('pitchwheel', channel=7, pitch=-3309, time=4),
    Message('pitchwheel', channel=7, pitch=-3052, time=3),
    Message('pitchwheel', channel=7, pitch=-2795, time=6),
    Message('note_off', channel=2, note=41, velocity=0, time=4),
    Message('note_off', channel=3, note=41, velocity=0, time=0),
    Message('pitchwheel', channel=7, pitch=-2538, time=1),
    Message('pitchwheel', channel=7, pitch=-2346, time=4),
    Message('pitchwheel', channel=2, pitch=-161, time=1),
    Message('pitchwheel', channel=3, pitch=-161, time=0),
    Message('pitchwheel', channel=7, pitch=-2089, time=2),
    Message('pitchwheel', channel=3, pitch=-643, time=2),
    Message('pitchwheel', channel=2, pitch=-643, time=0),
    Message('pitchwheel', channel=7, pitch=-1832, time=3),
    Message('pitchwheel', channel=2, pitch=-1286, time=2),
    Message('pitchwheel', channel=3, pitch=-1286, time=0),
    Message('pitchwheel', channel=7, pitch=-1575, time=2),
    Message('pitchwheel', channel=2, pitch=-1960, time=2),
    Message('pitchwheel', channel=3, pitch=-1960, time=0),
    Message('pitchwheel', channel=7, pitch=-1414, time=3),
    Message('pitchwheel', channel=3, pitch=-2731, time=2),
    Message('pitchwheel', channel=2, pitch=-2731, time=0),
    Message('pitchwheel', channel=7, pitch=-1286, time=2),
    Message('pitchwheel', channel=3, pitch=-3566, time=2),
    Message('pitchwheel', channel=2, pitch=-3566, time=0),
    Message('pitchwheel', channel=7, pitch=-932, time=3),
    Message('pitchwheel', channel=2, pitch=-4337, time=2),
    Message('pitchwheel', channel=3, pitch=-4337, time=0),
    Message('pitchwheel', channel=7, pitch=-739, time=2),
    Message('pitchwheel', channel=3, pitch=-5141, time=2),
    Message('pitchwheel', channel=2, pitch=-5141, time=0),
    Message('pitchwheel', channel=7, pitch=-579, time=3),
    Message('pitchwheel', channel=3, pitch=-6426, time=2),
    Message('pitchwheel', channel=2, pitch=-6426, time=0),
    Message('pitchwheel', channel=7, pitch=-418, time=2),
    Message('pitchwheel', channel=3, pitch=-7903, time=2),
    Message('pitchwheel', channel=2, pitch=-7903, time=0),
    Message('pitchwheel', channel=7, pitch=-258, time=1),
    Message('pitchwheel', channel=3, pitch=-8192, time=4),
    Message('pitchwheel', channel=2, pitch=-8192, time=0),
    Message('note_on', channel=9, note=42, velocity=98, time=2),
    Message('note_on', channel=2, note=38, velocity=124, time=0),
    Message('note_on', channel=3, note=38, velocity=124, time=0),
    Message('note_on', channel=12, note=57, velocity=102, time=0),
    Message('pitchwheel', channel=7, pitch=-193, time=0),
    Message('note_on', channel=12, note=53, velocity=100, time=0),
    Message('note_on', channel=12, note=60, velocity=101, time=0),
    Message('note_on', channel=9, note=42, velocity=0, time=1),
    Message('pitchwheel', channel=7, pitch=0, time=4),
    Message('note_off', channel=12, note=57, velocity=0, time=48),
    Message('note_off', channel=12, note=60, velocity=0, time=7),
    Message('note_off', channel=12, note=53, velocity=0, time=3),
    Message('note_on', channel=12, note=53, velocity=102, time=57),
    Message('note_on', channel=12, note=60, velocity=103, time=0),
    Message('note_on', channel=12, note=57, velocity=104, time=0),
    Message('pitchwheel', channel=2, pitch=-7518, time=12),
    Message('pitchwheel', channel=3, pitch=-7518, time=0),
    Message('pitchwheel', channel=2, pitch=-5976, time=2),
    Message('pitchwheel', channel=3, pitch=-5976, time=0),
    Message('pitchwheel', channel=2, pitch=-4851, time=5),
    Message('pitchwheel', channel=3, pitch=-4851, time=0),
    Message('pitchwheel', channel=3, pitch=-3856, time=4),
    Message('pitchwheel', channel=2, pitch=-3856, time=0),
    Message('pitchwheel', channel=2, pitch=-2828, time=3),
    Message('pitchwheel', channel=3, pitch=-2828, time=0),
    Message('pitchwheel', channel=2, pitch=-1510, time=5),
    Message('pitchwheel', channel=3, pitch=-1510, time=0),
    Message('pitchwheel', channel=3, pitch=-386, time=4),
    Message('pitchwheel', channel=2, pitch=-386, time=0),
    Message('pitchwheel', channel=3, pitch=0, time=5),
    Message('pitchwheel', channel=2, pitch=0, time=0),
    Message('note_off', channel=12, note=60, velocity=0, time=12),
    Message('note_off', channel=12, note=57, velocity=0, time=3),
    Message('note_off', channel=12, note=53, velocity=0, time=43),
    Message('note_on', channel=9, note=42, velocity=99, time=22),
    Message('note_on', channel=9, note=36, velocity=125, time=0),
    Message('note_on', channel=2, note=41, velocity=124, time=0),
    Message('note_on', channel=3, note=41, velocity=124, time=0),
    Message('note_on', channel=12, note=41, velocity=105, time=0),
    Message('note_on', channel=9, note=36, velocity=0, time=1),
    Message('note_on', channel=9, note=42, velocity=0, time=0),
    Message('control_change', channel=12, control=64, value=0, time=4),
    Message('note_off', channel=3, note=38, velocity=0, time=14),
    Message('note_off', channel=2, note=38, velocity=0, time=0),
    Message('control_change', channel=12, control=64, value=127, time=20),
    Message('note_on', channel=0, note=77, velocity=120, time=81),
    Message('note_on', channel=0, note=81, velocity=121, time=0),
    Message('note_on', channel=0, note=84, velocity=119, time=0),
    Message('note_on', channel=0, note=84, velocity=0, time=30),
    Message('note_on', channel=0, note=81, velocity=0, time=13),
    Message('note_on', channel=0, note=77, velocity=0, time=5),
    Message('note_on', channel=9, note=42, velocity=98, time=72),
    Message('note_on', channel=12, note=48, velocity=103, time=0),
    Message('note_on', channel=9, note=42, velocity=0, time=1),
    Message('note_on', channel=12, note=41, velocity=0, time=5),
    Message('note_on', channel=12, note=48, velocity=0, time=121),
    Message('note_on', channel=7, note=72, velocity=0, time=10),
    Message('note_on', channel=2, note=41, velocity=0, time=44),
    Message('note_on', channel=3, note=41, velocity=0, time=0),
    Message('note_on', channel=2, note=41, velocity=122, time=59),
    Message('note_on', channel=12, note=53, velocity=105, time=0),
    Message('note_on', channel=0, note=77, velocity=116, time=0),
    Message('note_on', channel=0, note=84, velocity=117, time=0),
    Message('note_on', channel=12, note=57, velocity=108, time=0),
    Message('note_on', channel=9, note=37, velocity=125, time=0),
    Message('note_on', channel=9, note=42, velocity=99, time=0),
    Message('note_on', channel=7, note=71, velocity=126, time=0),
    Message('note_on', channel=3, note=41, velocity=122, time=0),
    Message('note_on', channel=12, note=60, velocity=106, time=0),
    Message('note_on', channel=0, note=81, velocity=117, time=0),
    Message('note_on', channel=9, note=42, velocity=0, time=1),
    Message('note_on', channel=9, note=37, velocity=0, time=0),
    Message('note_on', channel=0, note=84, velocity=0, time=28),
    Message('note_on', channel=12, note=60, velocity=0, time=12),
    Message('note_on', channel=0, note=77, velocity=0, time=2),
    Message('note_on', channel=0, note=81, velocity=0, time=1),
    Message('note_on', channel=12, note=57, velocity=0, time=0),
    Message('note_on', channel=12, note=53, velocity=0, time=11),
    Message('note_on', channel=2, note=40, velocity=122, time=65),
    Message('note_on', channel=12, note=60, velocity=101, time=0),
    Message('note_on', channel=3, note=40, velocity=122, time=0),
    Message('note_on', channel=0, note=76, velocity=117, time=0),
    Message('note_on', channel=12, note=57, velocity=102, time=0),
    Message('note_on', channel=0, note=79, velocity=118, time=0),
    Message('note_on', channel=12, note=53, velocity=102, time=0),
    Message('note_on', channel=7, note=69, velocity=122, time=0),
    Message('note_on', channel=0, note=79, velocity=0, time=13),
    Message('note_on', channel=7, note=71, velocity=0, time=12),
    Message('note_on', channel=0, note=76, velocity=0, time=4),
    Message('note_on', channel=12, note=60, velocity=0, time=8),
    Message('note_on', channel=12, note=57, velocity=0, time=11),
    Message('note_on', channel=12, note=53, velocity=0, time=3),
    Message('note_on', channel=3, note=41, velocity=0, time=22),
    Message('note_on', channel=2, note=41, velocity=0, time=0),
    Message('note_on', channel=2, note=40, velocity=0, time=34),
    Message('note_on', channel=3, note=40, velocity=0, time=0),
    Message('note_on', channel=9, note=42, velocity=99, time=13),
    Message('note_on', channel=3, note=36, velocity=122, time=0),
    Message('note_on', channel=12, note=53, velocity=102, time=0),
    Message('note_on', channel=2, note=36, velocity=122, time=0),
    Message('note_on', channel=12, note=60, velocity=103, time=0),
    Message('note_on', channel=12, note=57, velocity=103, time=0),
    Message('note_on', channel=9, note=42, velocity=0, time=1),
    Message('note_on', channel=7, note=69, velocity=0, time=40),
    Message('note_on', channel=12, note=60, velocity=0, time=8),
    Message('note_on', channel=12, note=57, velocity=0, time=3),
    Message('note_on', channel=12, note=53, velocity=0, time=7),
    Message('note_on', channel=12, note=60, velocity=103, time=61),
    Message('note_on', channel=2, note=35, velocity=123, time=0),
    Message('note_on', channel=12, note=53, velocity=102, time=0),
    Message('note_on', channel=3, note=35, velocity=123, time=0),
    Message('note_on', channel=7, note=67, velocity=125, time=0),
    Message('note_on', channel=12, note=57, velocity=103, time=0),
    Message('note_on', channel=3, note=36, velocity=0, time=14),
    Message('note_on', channel=2, note=36, velocity=0, time=0),
    Message('control_change', channel=0, control=64, value=0, time=56),
    Message('note_off', channel=12, note=53, velocity=0, time=12),
    Message('note_off', channel=12, note=60, velocity=0, time=0),
    Message('note_off', channel=2, note=35, velocity=0, time=1),
    Message('note_off', channel=3, note=35, velocity=0, time=0),
    Message('note_off', channel=12, note=57, velocity=0, time=3),
    Message('note_off', channel=7, note=67, velocity=0, time=1),
    Message('control_change', channel=12, control=64, value=0, time=32),
    Message('note_on', channel=2, note=36, velocity=125, time=1),
    Message('note_on', channel=0, note=60, velocity=119, time=0),
    Message('note_on', channel=9, note=42, velocity=98, time=0),
    Message('note_on', channel=7, note=67, velocity=125, time=0),
    Message('note_on', channel=0, note=72, velocity=116, time=0),
    Message('note_on', channel=12, note=64, velocity=108, time=0),
    Message('note_on', channel=12, note=60, velocity=107, time=0),
    Message('note_on', channel=3, note=36, velocity=125, time=0),
    Message('note_on', channel=9, note=36, velocity=123, time=0),
    Message('note_on', channel=0, note=76, velocity=119, time=0),
    Message('note_on', channel=12, note=67, velocity=107, time=0),
    Message('note_on', channel=12, note=48, velocity=106, time=0),
    Message('note_on', channel=0, note=79, velocity=117, time=0),
    Message('note_on', channel=9, note=36, velocity=0, time=1),
    Message('note_on', channel=9, note=42, velocity=0, time=0),
    Message('control_change', channel=12, control=64, value=127, time=12),
    Message('control_change', channel=0, control=64, value=127, time=32),
    Message('note_off', channel=12, note=67, velocity=0, time=148),
    Message('note_off', channel=12, note=60, velocity=0, time=11),
    Message('note_off', channel=12, note=64, velocity=0, time=3),
    Message('note_on', channel=9, note=42, velocity=97, time=33),
    Message('note_on', channel=12, note=55, velocity=100, time=0),
    Message('note_on', channel=9, note=42, velocity=0, time=1),
    Message('note_on', channel=12, note=48, velocity=0, time=21),
    Message('note_on', channel=0, note=79, velocity=0, time=97),
    Message('note_on', channel=0, note=67, velocity=118, time=1),
    Message('note_on', channel=0, note=72, velocity=0, time=26),
    Message('note_on', channel=0, note=60, velocity=0, time=3),
    Message('note_on', channel=0, note=76, velocity=0, time=2),
    Message('note_on', channel=0, note=67, velocity=0, time=66),
    Message('note_on', channel=9, note=37, velocity=124, time=23),
    Message('note_on', channel=9, note=42, velocity=98, time=0),
    Message('note_on', channel=12, note=60, velocity=105, time=0),
    Message('note_on', channel=0, note=72, velocity=120, time=0),
    Message('note_on', channel=12, note=67, velocity=105, time=0),
    Message('note_on', channel=12, note=64, velocity=107, time=0),
    Message('note_on', channel=9, note=42, velocity=0, time=1),
    Message('note_on', channel=9, note=37, velocity=0, time=0),
    Message('note_on', channel=12, note=55, velocity=0, time=22),
    Message('note_on', channel=0, note=72, velocity=0, time=31),
    Message('note_on', channel=12, note=67, velocity=0, time=50),
    Message('note_on', channel=12, note=64, velocity=0, time=6),
    Message('note_on', channel=0, note=79, velocity=117, time=10),
    Message('note_on', channel=0, note=74, velocity=121, time=0),
    Message('note_on', channel=12, note=60, velocity=0, time=14),
    Message('note_on', channel=0, note=74, velocity=0, time=40),
    Message('note_on', channel=0, note=79, velocity=0, time=7),
    Message('note_on', channel=9, note=42, velocity=98, time=59),
    Message('note_on', channel=12, note=48, velocity=103, time=0),
    Message('note_on', channel=9, note=42, velocity=0, time=1),
    Message('note_on', channel=12, note=60, velocity=103, time=119),
    Message('note_on', channel=12, note=55, velocity=103, time=0),
    Message('note_on', channel=12, note=67, velocity=101, time=0),
    Message('note_on', channel=12, note=67, velocity=0, time=21),
    Message('note_on', channel=12, note=48, velocity=0, time=25),
    Message('note_on', channel=12, note=60, velocity=0, time=2),
    Message('note_on', channel=3, note=36, velocity=0, time=6),
    Message('note_on', channel=2, note=36, velocity=0, time=0),
    Message('control_change', channel=0, control=64, value=0, time=51),
    Message('note_off', channel=12, note=55, velocity=0, time=4),
    Message('note_on', channel=9, note=42, velocity=99, time=11),
    Message('note_on', channel=12, note=48, velocity=98, time=0),
    Message('note_on', channel=2, note=36, velocity=123, time=0),
    Message('note_on', channel=12, note=67, velocity=104, time=0),
    Message('note_on', channel=3, note=36, velocity=123, time=0),
    Message('note_on', channel=0, note=72, velocity=120, time=0),
    Message('note_on', channel=9, note=36, velocity=124, time=0),
    Message('note_on', channel=12, note=62, velocity=107, time=0),
    Message('note_on', channel=9, note=36, velocity=0, time=1),
    Message('note_on', channel=9, note=42, velocity=0, time=0),
    Message('control_change', channel=0, control=64, value=127, time=37),
    Message('note_off', channel=12, note=48, velocity=0, time=36),
    Message('note_on', channel=9, note=42, velocity=98, time=166),
    Message('note_on', channel=12, note=64, velocity=107, time=0),
    Message('note_on', channel=0, note=60, velocity=118, time=0),
    Message('note_on', channel=9, note=42, velocity=0, time=1),
    Message('note_on', channel=12, note=62, velocity=0, time=8),
    Message('note_on', channel=12, note=67, velocity=0, time=7),
    Message('note_on', channel=0, note=72, velocity=0, time=23),
    Message('note_on', channel=12, note=64, velocity=0, time=21),
    Message('note_on', channel=0, note=67, velocity=117, time=60),
    Message('note_on', channel=7, note=67, velocity=0, time=7),
    Message('note_on', channel=0, note=60, velocity=0, time=20),
    Message('note_on', channel=0, note=67, velocity=0, time=46),
    Message('control_change', channel=12, control=64, value=0, time=14),
    Message('control_change', channel=12, control=64, value=127, time=23),
    Message('note_on', channel=0, note=72, velocity=118, time=10),
    Message('note_on', channel=12, note=60, velocity=108, time=0),
    Message('note_on', channel=9, note=42, velocity=98, time=0),
    Message('note_on', channel=9, note=37, velocity=124, time=0),
    Message('note_on', channel=12, note=67, velocity=107, time=0),
    Message('note_on', channel=12, note=48, velocity=105, time=0),
    Message('note_on', channel=12, note=64, velocity=108, time=0),
    Message('note_on', channel=9, note=37, velocity=0, time=1),
    Message('note_on', channel=9, note=42, velocity=0, time=0),
    Message('note_on', channel=0, note=76, velocity=119, time=119),
    Message('note_on', channel=0, note=76, velocity=0, time=48),
    Message('note_on', channel=0, note=72, velocity=0, time=7),
    Message('note_on', channel=9, note=42, velocity=98, time=65),
    Message('note_on', channel=12, note=55, velocity=105, time=0),
    Message('note_on', channel=9, note=42, velocity=0, time=1),
    Message('note_on', channel=12, note=67, velocity=0, time=1),
    Message('note_on', channel=12, note=64, velocity=0, time=7),
    Message('note_on', channel=12, note=60, velocity=0, time=5),
    Message('note_on', channel=12, note=48, velocity=0, time=1),
    Message('note_on', channel=12, note=55, velocity=0, time=27),
    Message('note_on', channel=2, note=36, velocity=0, time=120),
    Message('note_on', channel=3, note=36, velocity=0, time=0),
    Message('control_change', channel=12, control=64, value=0, time=15),
    Message('control_change', channel=0, control=64, value=0, time=28),
    Message('note_on', channel=0, note=55, velocity=118, time=35),
    Message('note_on', channel=2, note=43, velocity=126, time=0),
    Message('note_on', channel=7, note=62, velocity=126, time=0),
    Message('note_on', channel=3, note=43, velocity=126, time=0),
    Message('note_on', channel=12, note=43, velocity=105, time=0),
    Message('note_on', channel=9, note=42, velocity=98, time=0),
    Message('note_on', channel=9, note=36, velocity=124, time=0),
    Message('note_on', channel=12, note=55, velocity=104, time=0),
    Message('note_on', channel=12, note=62, velocity=105, time=0),
    Message('note_on', channel=12, note=59, velocity=105, time=0),
    Message('note_on', channel=9, note=36, velocity=0, time=1),
    Message('note_on', channel=9, note=42, velocity=0, time=0),
    Message('control_change', channel=12, control=64, value=127, time=7),
    Message('control_change', channel=0, control=64, value=127, time=39),
    Message('note_off', channel=12, note=59, velocity=0, time=48),
    Message('note_off', channel=12, note=55, velocity=0, time=4),
    Message('note_off', channel=12, note=62, velocity=0, time=1),
    Message('note_on', channel=0, note=62, velocity=116, time=20),
    Message('note_on', channel=0, note=55, velocity=0, time=30),
    Message('note_on', channel=0, note=62, velocity=0, time=64),
    Message('note_on', channel=12, note=50, velocity=103, time=26),
    Message('note_on', channel=0, note=67, velocity=118, time=0),
    Message('note_on', channel=9, note=42, velocity=98, time=0),
    Message('note_on', channel=9, note=42, velocity=0, time=1),
    Message('note_on', channel=12, note=43, velocity=0, time=31),
    Message('note_on', channel=0, note=67, velocity=0, time=36),
    Message('note_on', channel=12, note=55, velocity=102, time=52),
    Message('note_on', channel=0, note=67, velocity=115, time=0),
    Message('note_on', channel=12, note=62, velocity=100, time=0),
    Message('note_on', channel=12, note=62, velocity=0, time=16),
    Message('note_on', channel=12, note=55, velocity=0, time=32),
    Message('note_on', channel=12, note=50, velocity=0, time=10),
    Message('note_on', channel=0, note=67, velocity=0, time=1),
    Message('note_on', channel=0, note=67, velocity=117, time=61),
    Message('note_on', channel=9, note=38, velocity=126, time=0),
    Message('note_on', channel=12, note=59, velocity=107, time=0),
    Message('note_on', channel=9, note=37, velocity=123, time=0),
    Message('note_on', channel=0, note=74, velocity=120, time=0),
    Message('note_on', channel=12, note=62, velocity=104, time=0),
    Message('note_on', channel=12, note=43, velocity=103, time=0),
    Message('note_on', channel=12, note=55, velocity=105, time=0),
    Message('note_on', channel=9, note=42, velocity=99, time=0),
    Message('note_on', channel=9, note=42, velocity=0, time=1),
    Message('note_on', channel=9, note=37, velocity=0, time=0),
    Message('note_on', channel=9, note=38, velocity=0, time=0),
    Message('note_on', channel=0, note=67, velocity=0, time=42),
    Message('note_on', channel=12, note=59, velocity=0, time=16),
    Message('note_on', channel=12, note=62, velocity=0, time=26),
    Message('note_on', channel=12, note=55, velocity=0, time=18),
    Message('note_on', channel=2, note=43, velocity=0, time=13),
    Message('note_on', channel=3, note=43, velocity=0, time=0),
    Message('note_on', channel=3, note=38, velocity=121, time=4),
    Message('note_on', channel=2, note=38, velocity=121, time=0),
    Message('note_on', channel=0, note=74, velocity=0, time=49),
    Message('note_on', channel=7, note=62, velocity=0, time=36),
    Message('note_on', channel=12, note=55, velocity=102, time=35),
    Message('note_on', channel=2, note=43, velocity=124, time=0),
    Message('note_on', channel=12, note=62, velocity=99, time=0),
    Message('note_on', channel=0, note=71, velocity=121, time=0),
    Message('note_on', channel=3, note=43, velocity=124, time=0),
    Message('note_on', channel=12, note=50, velocity=103, time=0),
    Message('note_on', channel=2, note=38, velocity=0, time=8),
    Message('note_on', channel=3, note=38, velocity=0, time=0),
    Message('note_on', channel=12, note=62, velocity=0, time=13),
    Message('note_on', channel=12, note=55, velocity=0, time=9),
    Message('pitchwheel', channel=7, pitch=-225, time=5),
    Message('pitchwheel', channel=7, pitch=-611, time=3),
    Message('pitchwheel', channel=7, pitch=-964, time=6),
    Message('pitchwheel', channel=7, pitch=-1350, time=3),
    Message('pitchwheel', channel=7, pitch=-1832, time=4),
    Message('note_off', channel=12, note=43, velocity=0, time=1),
    Message('pitchwheel', channel=7, pitch=-2346, time=4),
    Message('pitchwheel', channel=7, pitch=-2795, time=4),
    Message('pitchwheel', channel=7, pitch=-3374, time=5),
    Message('pitchwheel', channel=7, pitch=-3856, time=4),
    Message('pitchwheel', channel=7, pitch=-4402, time=5),
    Message('pitchwheel', channel=7, pitch=-4980, time=5),
    Message('pitchwheel', channel=7, pitch=-5398, time=4),
    Message('pitchwheel', channel=7, pitch=-6490, time=3),
    Message('note_off', channel=0, note=71, velocity=0, time=5),
    Message('pitchwheel', channel=7, pitch=-7518, time=1),
    Message('pitchwheel', channel=7, pitch=-8192, time=3),
    Message('note_off', channel=12, note=50, velocity=0, time=1),
    Message('note_off', channel=2, note=43, velocity=0, time=16),
    Message('note_off', channel=3, note=43, velocity=0, time=0),
    Message('note_on', channel=0, note=67, velocity=120, time=8),
    Message('note_on', channel=12, note=57, velocity=105, time=0),
    Message('note_on', channel=9, note=38, velocity=126, time=0),
    Message('note_on', channel=2, note=38, velocity=123, time=0),
    Message('note_on', channel=12, note=62, velocity=105, time=0),
    Message('note_on', channel=3, note=38, velocity=123, time=0),
    Message('note_on', channel=9, note=38, velocity=0, time=1),
    Message('note_on', channel=0, note=67, velocity=0, time=25),
    Message('note_on', channel=12, note=57, velocity=0, time=16),
    Message('note_on', channel=12, note=62, velocity=0, time=6),
    Message('note_on', channel=3, note=38, velocity=0, time=18),
    Message('note_on', channel=2, note=38, velocity=0, time=0),
    Message('control_change', channel=12, control=64, value=0, time=6),
    Message('note_on', channel=12, note=43, velocity=105, time=48),
    Message('note_on', channel=9, note=36, velocity=125, time=0),
    Message('note_on', channel=3, note=31, velocity=123, time=0),
    Message('note_on', channel=12, note=59, velocity=108, time=0),
    Message('note_on', channel=12, note=55, velocity=107, time=0),
    Message('note_on', channel=7, note=71, velocity=126, time=0),
    Message('note_on', channel=2, note=31, velocity=123, time=0),
    Message('note_on', channel=12, note=62, velocity=104, time=0),
    Message('control_change', channel=12, control=64, value=127, time=0),
    Message('note_on', channel=0, note=69, velocity=121, time=0),
    Message('note_on', channel=9, note=36, velocity=0, time=1),
    Message('note_on', channel=0, note=69, velocity=0, time=78),
    Message('pitchwheel', channel=7, pitch=-7968, time=1),
    Message('pitchwheel', channel=7, pitch=-6875, time=6),
    Message('pitchwheel', channel=7, pitch=-5462, time=3),
    Message('pitchwheel', channel=7, pitch=-4916, time=6),
    Message('pitchwheel', channel=7, pitch=-4273, time=3),
    Message('pitchwheel', channel=7, pitch=-3502, time=4),
    Message('pitchwheel', channel=7, pitch=-2860, time=5),
    Message('pitchwheel', channel=7, pitch=-2153, time=4),
    Message('pitchwheel', channel=7, pitch=-1478, time=5),
    Message('pitchwheel', channel=7, pitch=-772, time=4),
    Message('note_on', channel=0, note=74, velocity=118, time=0),
    Message('pitchwheel', channel=7, pitch=-225, time=5),
    Message('pitchwheel', channel=7, pitch=0, time=3),
    Message('note_on', channel=9, note=38, velocity=126, time=112),
    Message('note_on', channel=12, note=50, velocity=104, time=0),
    Message('note_on', channel=0, note=71, velocity=122, time=0),
    Message('note_on', channel=9, note=38, velocity=0, time=1),
    Message('note_on', channel=12, note=59, velocity=0, time=7),
    Message('note_on', channel=12, note=55, velocity=0, time=3),
    Message('note_on', channel=12, note=43, velocity=0, time=15),
    Message('note_on', channel=0, note=74, velocity=0, time=6),
    Message('note_on', channel=12, note=62, velocity=0, time=3),
    Message('note_on', channel=0, note=71, velocity=0, time=136),
    Message('control_change', channel=0, control=64, value=0, time=39),
    Message('note_on', channel=12, note=62, velocity=105, time=30),
    Message('note_on', channel=12, note=55, velocity=106, time=0),
    Message('note_on', channel=0, note=74, velocity=119, time=0),
    Message('note_on', channel=0, note=67, velocity=124, time=0),
    Message('note_on', channel=0, note=55, velocity=119, time=0),
    Message('note_on', channel=0, note=74, velocity=0, time=29),
    Message('control_change', channel=0, control=64, value=127, time=5),
    Message('note_off', channel=12, note=62, velocity=0, time=2),
    Message('note_off', channel=3, note=31, velocity=0, time=19),
    Message('note_off', channel=2, note=31, velocity=0, time=0),
    Message('note_off', channel=12, note=50, velocity=0, time=62),
    Message('note_on', channel=9, note=45, velocity=123, time=3),
    Message('note_on', channel=9, note=45, velocity=0, time=1),
    Message('note_on', channel=0, note=55, velocity=0, time=15),
    Message('note_on', channel=0, note=67, velocity=0, time=18),
    Message('note_on', channel=9, note=41, velocity=123, time=86),
    Message('note_on', channel=12, note=62, velocity=100, time=0),
    Message('note_on', channel=12, note=59, velocity=106, time=0),
    Message('note_on', channel=9, note=41, velocity=0, time=1),
    Message('note_on', channel=12, note=62, velocity=0, time=19),
    Message('note_on', channel=12, note=59, velocity=0, time=19),
    Message('note_on', channel=12, note=55, velocity=0, time=32),
    Message('control_change', channel=12, control=64, value=0, time=99),
    Message('control_change', channel=0, control=64, value=0, time=11),
    Message('note_on', channel=4, note=69, velocity=119, time=59),
    Message('note_on', channel=9, note=49, velocity=119, time=0),
    Message('note_on', channel=4, note=72, velocity=123, time=0),
    Message('note_on', channel=12, note=45, velocity=108, time=0),
    Message('note_on', channel=9, note=36, velocity=126, time=0),
    Message('note_on', channel=0, note=57, velocity=120, time=0),
    Message('note_on', channel=7, note=69, velocity=126, time=0),
    Message('note_on', channel=9, note=51, velocity=124, time=0),
    Message('note_on', channel=3, note=33, velocity=126, time=0),
    Message('note_on', channel=2, note=33, velocity=126, time=0),
    Message('note_on', channel=9, note=51, velocity=0, time=1),
    Message('note_on', channel=9, note=36, velocity=0, time=0),
    Message('note_on', channel=9, note=49, velocity=0, time=0),
    Message('note_on', channel=7, note=71, velocity=0, time=42),
    Message('control_change', channel=0, control=64, value=127, time=4),
    Message('control_change', channel=4, control=64, value=127, time=11),
    Message('note_on', channel=0, note=64, velocity=119, time=62),
    Message('note_on', channel=0, note=57, velocity=0, time=55),
    Message('note_on', channel=0, note=64, velocity=0, time=61),
    Message('note_on', channel=12, note=52, velocity=104, time=4),
    Message('note_on', channel=0, note=69, velocity=121, time=0),
    Message('control_change', channel=12, control=64, value=127, time=17),
    Message('note_off', channel=12, note=45, velocity=0, time=25),
    Message('note_on', channel=0, note=72, velocity=119, time=78),
    Message('note_on', channel=4, note=72, velocity=0, time=11),
    Message('note_on', channel=4, note=69, velocity=0, time=14),
    Message('note_on', channel=0, note=69, velocity=0, time=19),
    Message('note_on', channel=0, note=72, velocity=0, time=18),
    Message('note_on', channel=12, note=64, velocity=105, time=58),
    Message('note_on', channel=12, note=60, velocity=106, time=0),
    Message('note_on', channel=9, note=38, velocity=125, time=0),
    Message('note_on', channel=9, note=51, velocity=119, time=0),
    Message('note_on', channel=0, note=76, velocity=125, time=0),
    Message('note_on', channel=12, note=57, velocity=106, time=0),
    Message('note_on', channel=9, note=51, velocity=0, time=1),
    Message('note_on', channel=9, note=38, velocity=0, time=0),
    Message('note_on', channel=7, note=69, velocity=0, time=22),
    Message('note_on', channel=12, note=64, velocity=0, time=12),
    Message('note_on', channel=12, note=60, velocity=0, time=6),
    Message('note_on', channel=12, note=57, velocity=0, time=16),
    Message('note_on', channel=0, note=76, velocity=0, time=13),
    Message('note_on', channel=12, note=60, velocity=103, time=50),
    Message('note_on', channel=12, note=57, velocity=102, time=0),
    Message('note_on', channel=12, note=64, velocity=102, time=0),
    Message('note_on', channel=12, note=52, velocity=0, time=17),
    Message('note_on', channel=12, note=64, velocity=0, time=17),
    Message('note_on', channel=12, note=60, velocity=0, time=11),
    Message('note_on', channel=12, note=57, velocity=0, time=0),
    Message('note_on', channel=12, note=60, velocity=102, time=75),
    Message('note_on', channel=9, note=51, velocity=119, time=0),
    Message('note_on', channel=3, note=28, velocity=125, time=0),
    Message('note_on', channel=12, note=57, velocity=101, time=0),
    Message('note_on', channel=12, note=64, velocity=102, time=0),
    Message('note_on', channel=2, note=28, velocity=125, time=0),
    Message('note_on', channel=9, note=51, velocity=0, time=1),
    Message('note_on', channel=2, note=33, velocity=0, time=14),
    Message('note_on', channel=3, note=33, velocity=0, time=0),
    Message('note_on', channel=12, note=60, velocity=0, time=33),
    Message('note_on', channel=12, note=57, velocity=0, time=0),
    Message('note_on', channel=12, note=64, velocity=0, time=2),
    Message('note_on', channel=3, note=33, velocity=125, time=70),
    Message('note_on', channel=2, note=33, velocity=125, time=0),
    Message('note_on', channel=12, note=60, velocity=102, time=0),
    Message('note_on', channel=12, note=57, velocity=100, time=0),
    Message('note_on', channel=12, note=64, velocity=101, time=0),
    Message('note_on', channel=3, note=28, velocity=0, time=1),
    Message('note_on', channel=2, note=28, velocity=0, time=0),
    Message('control_change', channel=4, control=64, value=0, time=60),
    Message('control_change', channel=0, control=64, value=0, time=10),
    Message('note_off', channel=12, note=64, velocity=0, time=18),
    Message('note_off', channel=12, note=57, velocity=0, time=9),
    Message('note_off', channel=12, note=60, velocity=0, time=1),
    Message('note_on', channel=9, note=36, velocity=126, time=21),
    Message('note_on', channel=3, note=31, velocity=126, time=0),
    Message('note_on', channel=4, note=67, velocity=119, time=0),
    Message('note_on', channel=12, note=43, velocity=107, time=0),
    Message('note_on', channel=9, note=51, velocity=124, time=0),
    Message('note_on', channel=0, note=55, velocity=119, time=0),
    Message('note_on', channel=2, note=31, velocity=126, time=0),
    Message('note_on', channel=4, note=71, velocity=124, time=0),
    Message('note_on', channel=9, note=51, velocity=0, time=1),
    Message('note_on', channel=9, note=36, velocity=0, time=0),
    Message('note_on', channel=2, note=33, velocity=0, time=2),
    Message('note_on', channel=3, note=33, velocity=0, time=0),
    Message('control_change', channel=12, control=64, value=0, time=18),
    Message('control_change', channel=0, control=64, value=127, time=21),
    Message('control_change', channel=12, control=64, value=127, time=49),
    Message('note_on', channel=0, note=62, velocity=120, time=29),
    Message('note_on', channel=0, note=55, velocity=0, time=66),
    Message('note_on', channel=0, note=62, velocity=0, time=45),
    Message('note_on', channel=9, note=51, velocity=114, time=9),
    Message('note_on', channel=12, note=50, velocity=105, time=0),
    Message('note_on', channel=0, note=67, velocity=121, time=0),
    Message('note_on', channel=9, note=51, velocity=0, time=1),
    Message('control_change', channel=4, control=64, value=127, time=14),
    Message('note_off', channel=12, note=43, velocity=0, time=42),
    Message('note_on', channel=0, note=71, velocity=119, time=63),
    Message('note_on', channel=0, note=74, velocity=124, time=120),
    Message('note_on', channel=12, note=55, velocity=106, time=0),
    Message('note_on', channel=9, note=38, velocity=126, time=0),
    Message('note_on', channel=9, note=51, velocity=119, time=0),
    Message('note_on', channel=12, note=62, velocity=105, time=0),
    Message('note_on', channel=12, note=59, velocity=108, time=0),
    Message('note_on', channel=9, note=51, velocity=0, time=1),
    Message('note_on', channel=9, note=38, velocity=0, time=0),
    Message('note_on', channel=0, note=67, velocity=0, time=7),
    Message('note_on', channel=0, note=71, velocity=0, time=11),
    Message('note_on', channel=4, note=71, velocity=0, time=17),
    Message('note_on', channel=12, note=62, velocity=0, time=0),
    Message('note_on', channel=12, note=50, velocity=0, time=8),
    Message('note_on', channel=12, note=59, velocity=0, time=1),
    Message('note_on', channel=4, note=67, velocity=0, time=3),
    Message('note_on', channel=12, note=55, velocity=0, time=2),
    Message('note_on', channel=0, note=74, velocity=0, time=4),
    Message('note_on', channel=12, note=59, velocity=103, time=66),
    Message('note_on', channel=12, note=62, velocity=103, time=0),
    Message('note_on', channel=12, note=55, velocity=102, time=0),
    Message('note_on', channel=12, note=62, velocity=0, time=43),
    Message('note_on', channel=12, note=59, velocity=0, time=0),
    Message('note_on', channel=12, note=55, velocity=0, time=12),
    Message('note_on', channel=12, note=62, velocity=103, time=65),
    Message('note_on', channel=12, note=59, velocity=103, time=0),
    Message('note_on', channel=12, note=55, velocity=102, time=0),
    Message('note_on', channel=9, note=51, velocity=114, time=0),
    Message('note_on', channel=9, note=51, velocity=0, time=1),
    Message('note_on', channel=12, note=62, velocity=0, time=40),
    Message('note_on', channel=12, note=59, velocity=0, time=2),
    Message('note_on', channel=12, note=55, velocity=0, time=9),
    Message('note_on', channel=12, note=62, velocity=102, time=68),
    Message('note_on', channel=12, note=55, velocity=102, time=0),
    Message('note_on', channel=12, note=59, velocity=103, time=0),
    Message('control_change', channel=0, control=64, value=0, time=91),
    Message('note_off', channel=3, note=31, velocity=0, time=1),
    Message('note_off', channel=2, note=31, velocity=0, time=0),
    Message('control_change', channel=12, control=64, value=0, time=16),
    Message('note_on', channel=12, note=41, velocity=106, time=12),
    Message('note_on', channel=9, note=36, velocity=126, time=0),
    Message('note_on', channel=4, note=69, velocity=121, time=0),
    Message('note_on', channel=9, note=51, velocity=119, time=0),
    Message('note_on', channel=2, note=41, velocity=126, time=0),
    Message('note_on', channel=3, note=41, velocity=126, time=0),
    Message('note_on', channel=4, note=65, velocity=119, time=0),
    Message('note_on', channel=0, note=53, velocity=119, time=0),
    Message('note_on', channel=9, note=51, velocity=0, time=1),
    Message('note_on', channel=9, note=36, velocity=0, time=0),
    Message('note_on', channel=12, note=62, velocity=0, time=6),
    Message('note_on', channel=12, note=59, velocity=0, time=5),
    Message('control_change', channel=0, control=64, value=127, time=4),
    Message('note_off', channel=12, note=55, velocity=0, time=5),
    Message('control_change', channel=4, control=64, value=0, time=1),
    Message('control_change', channel=12, control=64, value=127, time=46),
    Message('note_on', channel=0, note=60, velocity=118, time=52),
    Message('note_on', channel=0, note=53, velocity=0, time=63),
    Message('note_on', channel=0, note=65, velocity=118, time=57),
    Message('note_on', channel=12, note=48, velocity=104, time=0),
    Message('note_on', channel=9, note=51, velocity=109, time=0),
    Message('note_on', channel=9, note=51, velocity=0, time=1),
    Message('note_on', channel=0, note=60, velocity=0, time=4),
    Message('note_on', channel=0, note=69, velocity=116, time=115),
    Message('note_on', channel=0, note=72, velocity=123, time=120),
    Message('note_on', channel=12, note=57, velocity=107, time=0),
    Message('note_on', channel=12, note=53, velocity=105, time=0),
    Message('note_on', channel=9, note=38, velocity=126, time=0),
    Message('note_on', channel=9, note=51, velocity=119, time=0),
    Message('note_on', channel=12, note=60, velocity=106, time=0),
    Message('note_on', channel=9, note=51, velocity=0, time=1),
    Message('note_on', channel=9, note=38, velocity=0, time=0),
    Message('note_on', channel=0, note=65, velocity=0, time=23),
    Message('note_on', channel=0, note=69, velocity=0, time=9),
    Message('note_on', channel=12, note=60, velocity=0, time=8),
    Message('note_on', channel=0, note=72, velocity=0, time=11),
    Message('note_on', channel=12, note=57, velocity=0, time=4),
    Message('note_on', channel=12, note=53, velocity=0, time=10),
    Message('note_on', channel=12, note=41, velocity=0, time=16),
    Message('note_on', channel=12, note=57, velocity=103, time=38),
    Message('note_on', channel=12, note=53, velocity=103, time=0),
    Message('note_on', channel=12, note=60, velocity=101, time=0),
    Message('note_on', channel=12, note=48, velocity=0, time=13),
    Message('note_on', channel=12, note=60, velocity=0, time=9),
    Message('note_on', channel=12, note=57, velocity=0, time=12),
    Message('note_on', channel=12, note=53, velocity=0, time=10),
    Message('note_on', channel=12, note=57, velocity=103, time=76),
    Message('note_on', channel=9, note=51, velocity=114, time=0),
    Message('note_on', channel=12, note=60, velocity=102, time=0),
    Message('note_on', channel=12, note=53, velocity=102, time=0),
    Message('note_on', channel=9, note=51, velocity=0, time=1),
    Message('note_on', channel=12, note=57, velocity=0, time=30),
    Message('note_on', channel=12, note=60, velocity=0, time=7),
    Message('note_on', channel=12, note=53, velocity=0, time=10),
    Message('note_on', channel=3, note=41, velocity=0, time=43),
    Message('note_on', channel=2, note=41, velocity=0, time=0),
    Message('note_on', channel=0, note=53, velocity=120, time=29),
    Message('note_on', channel=12, note=53, velocity=101, time=0),
    Message('note_on', channel=2, note=36, velocity=123, time=0),
    Message('note_on', channel=3, note=36, velocity=123, time=0),
    Message('note_on', channel=12, note=60, velocity=102, time=0),
    Message('note_on', channel=12, note=57, velocity=102, time=0),
    Message('note_on', channel=3, note=29, velocity=126, time=120),
    Message('note_on', channel=0, note=60, velocity=121, time=0),
    Message('note_on', channel=9, note=51, velocity=119, time=0),
    Message('note_on', channel=2, note=29, velocity=126, time=0),
    Message('note_on', channel=9, note=36, velocity=125, time=0),
    Message('note_on', channel=12, note=41, velocity=106, time=0),
    Message('note_on', channel=9, note=36, velocity=0, time=1),
    Message('note_on', channel=9, note=51, velocity=0, time=0),
    Message('note_on', channel=12, note=57, velocity=0, time=2),
    Message('note_on', channel=12, note=60, velocity=0, time=0),
    Message('note_on', channel=0, note=53, velocity=0, time=19),
    Message('note_on', channel=12, note=53, velocity=0, time=1),
    Message('note_on', channel=2, note=36, velocity=0, time=3),
    Message('note_on', channel=3, note=36, velocity=0, time=0),
    Message('note_on', channel=0, note=60, velocity=0, time=61),
    Message('note_on', channel=0, note=77, velocity=124, time=33),
    Message('note_on', channel=0, note=81, velocity=122, time=120),
    Message('note_on', channel=12, note=48, velocity=104, time=0),
    Message('note_on', channel=9, note=51, velocity=109, time=0),
    Message('note_on', channel=9, note=51, velocity=0, time=1),
    Message('note_on', channel=12, note=41, velocity=0, time=27),
    Message('note_on', channel=0, note=77, velocity=0, time=18),
    Message('note_on', channel=0, note=81, velocity=0, time=52),
    Message('note_on', channel=12, note=48, velocity=0, time=100),
    Message('note_on', channel=9, note=38, velocity=126, time=42),
    Message('note_on', channel=0, note=84, velocity=125, time=0),
    Message('note_on', channel=9, note=51, velocity=114, time=0),
    Message('note_on', channel=12, note=60, velocity=105, time=0),
    Message('note_on', channel=12, note=57, velocity=107, time=0),
    Message('note_on', channel=12, note=53, velocity=107, time=0),
    Message('note_on', channel=9, note=51, velocity=0, time=1),
    Message('note_on', channel=9, note=38, velocity=0, time=0),
    Message('note_on', channel=12, note=60, velocity=0, time=22),
    Message('note_on', channel=12, note=57, velocity=0, time=11),
    Message('note_on', channel=12, note=53, velocity=0, time=22),
    Message('note_on', channel=0, note=84, velocity=0, time=17),
    Message('note_on', channel=12, note=57, velocity=104, time=47),
    Message('note_on', channel=0, note=84, velocity=115, time=0),
    Message('note_on', channel=0, note=77, velocity=121, time=0),
    Message('note_on', channel=12, note=60, velocity=102, time=0),
    Message('note_on', channel=12, note=53, velocity=102, time=0),
    Message('note_on', channel=12, note=60, velocity=0, time=32),
    Message('note_on', channel=12, note=53, velocity=0, time=5),
    Message('note_on', channel=12, note=57, velocity=0, time=3),
    Message('note_on', channel=0, note=77, velocity=0, time=4),
    Message('note_on', channel=0, note=84, velocity=0, time=9),
    Message('note_on', channel=2, note=29, velocity=0, time=57),
    Message('note_on', channel=3, note=29, velocity=0, time=0),
    Message('note_on', channel=9, note=51, velocity=109, time=10),
    Message('note_on', channel=3, note=31, velocity=123, time=0),
    Message('note_on', channel=12, note=60, velocity=103, time=0),
    Message('note_on', channel=12, note=53, velocity=103, time=0),
    Message('note_on', channel=2, note=31, velocity=123, time=0),
    Message('note_on', channel=0, note=76, velocity=121, time=0),
    Message('note_on', channel=12, note=57, velocity=104, time=0),
    Message('note_on', channel=9, note=51, velocity=0, time=1),
    Message('pitchwheel', channel=3, pitch=-643, time=5),
    Message('pitchwheel', channel=2, pitch=-643, time=0),
    Message('pitchwheel', channel=3, pitch=-2442, time=9),
    Message('pitchwheel', channel=2, pitch=-2442, time=0),
    Message('pitchwheel', channel=2, pitch=-3342, time=2),
    Message('pitchwheel', channel=3, pitch=-3342, time=0),
    Message('pitchwheel', channel=3, pitch=-4273, time=4),
    Message('pitchwheel', channel=2, pitch=-4273, time=0),
    Message('pitchwheel', channel=2, pitch=-5173, time=5),
    Message('pitchwheel', channel=3, pitch=-5173, time=0),
    Message('note_off', channel=4, note=69, velocity=0, time=4),
    Message('note_off', channel=4, note=65, velocity=0, time=2),
    Message('pitchwheel', channel=3, pitch=-6747, time=1),
    Message('pitchwheel', channel=2, pitch=-6747, time=0),
    Message('pitchwheel', channel=3, pitch=-8192, time=2),
    Message('pitchwheel', channel=2, pitch=-8192, time=0),
    Message('note_off', channel=0, note=76, velocity=0, time=10),
    Message('note_off', channel=12, note=60, velocity=0, time=1),
    Message('note_off', channel=12, note=53, velocity=0, time=7),
    Message('note_off', channel=12, note=57, velocity=0, time=1),
    Message('note_on', channel=12, note=57, velocity=104, time=66),
    Message('note_on', channel=0, note=74, velocity=121, time=0),
    Message('note_on', channel=12, note=60, velocity=101, time=0),
    Message('note_on', channel=12, note=53, velocity=103, time=0),
    Message('note_on', channel=0, note=74, velocity=0, time=39),
    Message('note_on', channel=12, note=60, velocity=0, time=14),
    Message('pitchwheel', channel=2, pitch=-8032, time=3),
    Message('pitchwheel', channel=3, pitch=-8032, time=0),
    Message('pitchwheel', channel=3, pitch=-6683, time=4),
    Message('pitchwheel', channel=2, pitch=-6683, time=0),
    Message('note_off', channel=12, note=53, velocity=0, time=2),
    Message('note_off', channel=12, note=57, velocity=0, time=2),
    Message('pitchwheel', channel=3, pitch=-5301, time=1),
    Message('pitchwheel', channel=2, pitch=-5301, time=0),
    Message('pitchwheel', channel=3, pitch=-4562, time=4),
    Message('pitchwheel', channel=2, pitch=-4562, time=0),
    Message('pitchwheel', channel=3, pitch=-3631, time=5),
    Message('pitchwheel', channel=2, pitch=-3631, time=0),
    Message('pitchwheel', channel=2, pitch=-2571, time=3),
    Message('pitchwheel', channel=3, pitch=-2571, time=0),
    Message('pitchwheel', channel=2, pitch=-1543, time=6),
    Message('pitchwheel', channel=3, pitch=-1543, time=0),
    Message('pitchwheel', channel=2, pitch=-482, time=3),
    Message('pitchwheel', channel=3, pitch=-482, time=0),
    Message('pitchwheel', channel=3, pitch=0, time=6),
    Message('pitchwheel', channel=2, pitch=0, time=0),
    Message('control_change', channel=0, control=64, value=0, time=19),
    Message('control_change', channel=12, control=64, value=0, time=8),
    Message('note_on', channel=2, note=36, velocity=124, time=1),
    Message('note_on', channel=0, note=72, velocity=123, time=0),
    Message('note_on', channel=3, note=36, velocity=124, time=0),
    Message('note_on', channel=9, note=36, velocity=126, time=0),
    Message('note_on', channel=9, note=51, velocity=114, time=0),
    Message('note_on', channel=11, note=60, velocity=118, time=0),
    Message('note_on', channel=11, note=67, velocity=121, time=0),
    Message('note_on', channel=12, note=48, velocity=108, time=0),
    Message('note_on', channel=9, note=51, velocity=0, time=1),
    Message('note_on', channel=9, note=36, velocity=0, time=0),
    Message('note_on', channel=3, note=31, velocity=0, time=4),
    Message('note_on', channel=2, note=31, velocity=0, time=0),
    Message('control_change', channel=0, control=64, value=127, time=58),
    Message('note_on', channel=12, note=55, velocity=105, time=177),
    Message('note_on', channel=9, note=51, velocity=114, time=0),
    Message('note_on', channel=0, note=60, velocity=117, time=0),
    Message('note_on', channel=9, note=51, velocity=0, time=1),
    Message('control_change', channel=12, control=64, value=127, time=14),
    Message('note_off', channel=0, note=72, velocity=0, time=39),
    Message('control_change', channel=11, control=64, value=127, time=47),
    Message('note_off', channel=12, note=55, velocity=0, time=124),
    Message('note_on', channel=12, note=67, velocity=105, time=15),
    Message('note_on', channel=9, note=38, velocity=126, time=0),
    Message('note_on', channel=12, note=60, velocity=107, time=0),
    Message('note_on', channel=0, note=72, velocity=123, time=0),
    Message('note_on', channel=9, note=51, velocity=119, time=0),
    Message('note_on', channel=12, note=64, velocity=106, time=0),
    Message('note_on', channel=9, note=51, velocity=0, time=1),
    Message('note_on', channel=9, note=38, velocity=0, time=0),
    Message('note_on', channel=12, note=48, velocity=0, time=11),
    Message('note_on', channel=11, note=67, velocity=0, time=0),
    Message('note_on', channel=11, note=60, velocity=0, time=4),
    Message('note_on', channel=12, note=67, velocity=0, time=16),
    Message('note_on', channel=12, note=64, velocity=0, time=9),
    Message('note_on', channel=12, note=60, velocity=0, time=10),
    Message('note_on', channel=12, note=67, velocity=102, time=69),
    Message('note_on', channel=12, note=60, velocity=102, time=0),
    Message('note_on', channel=0, note=67, velocity=119, time=0),
    Message('note_on', channel=12, note=64, velocity=103, time=0),
    Message('note_on', channel=0, note=60, velocity=0, time=10),
    Message('note_on', channel=12, note=67, velocity=0, time=30),
    Message('note_on', channel=12, note=60, velocity=0, time=1),
    Message('note_on', channel=12, note=64, velocity=0, time=3),
    Message('note_on', channel=0, note=72, velocity=0, time=9),
    Message('note_on', channel=0, note=67, velocity=0, time=5),
    Message('note_on', channel=3, note=36, velocity=0, time=45),
    Message('note_on', channel=2, note=36, velocity=0, time=0),
    Message('note_on', channel=9, note=51, velocity=114, time=17),
    Message('note_on', channel=0, note=72, velocity=115, time=0),
    Message('note_on', channel=3, note=28, velocity=126, time=0),
    Message('note_on', channel=12, note=67, velocity=102, time=0),
    Message('note_on', channel=12, note=64, velocity=103, time=0),
    Message('note_on', channel=0, note=79, velocity=125, time=0),
    Message('note_on', channel=12, note=60, velocity=102, time=0),
    Message('note_on', channel=2, note=28, velocity=126, time=0),
    Message('note_on', channel=9, note=51, velocity=0, time=1),
    Message('note_on', channel=12, note=67, velocity=0, time=33),
    Message('note_on', channel=12, note=60, velocity=0, time=2),
    Message('note_on', channel=12, note=64, velocity=0, time=1),
    Message('note_on', channel=0, note=72, velocity=0, time=2),
    Message('note_on', channel=0, note=79, velocity=0, time=10),
    Message('note_on', channel=12, note=67, velocity=101, time=71),
    Message('note_on', channel=12, note=60, velocity=100, time=0),
    Message('note_on', channel=2, note=29, velocity=125, time=0),
    Message('note_on', channel=12, note=64, velocity=102, time=0),
    Message('note_on', channel=9, note=36, velocity=125, time=0),
    Message('note_on', channel=3, note=29, velocity=125, time=0),
    Message('note_on', channel=9, note=36, velocity=0, time=1),
    Message('note_on', channel=2, note=28, velocity=0, time=6),
    Message('note_on', channel=3, note=28, velocity=0, time=0),
    Message('note_on', channel=12, note=67, velocity=0, time=50),
    Message('note_on', channel=12, note=64, velocity=0, time=4),
    Message('note_on', channel=12, note=60, velocity=0, time=8),
    Message('control_change', channel=0, control=64, value=0, time=45),
    Message('note_on', channel=11, note=62, velocity=121, time=6),
    Message('note_on', channel=9, note=36, velocity=126, time=0),
    Message('note_on', channel=0, note=55, velocity=118, time=0),
    Message('note_on', channel=11, note=55, velocity=117, time=0),
    Message('note_on', channel=12, note=43, velocity=106, time=0),
    Message('note_on', channel=2, note=31, velocity=125, time=0),
    Message('note_on', channel=9, note=51, velocity=124, time=0),
    Message('note_on', channel=3, note=31, velocity=125, time=0),
    Message('note_on', channel=9, note=51, velocity=0, time=1),
    Message('note_on', channel=9, note=36, velocity=0, time=0),
    Message('note_on', channel=2, note=29, velocity=0, time=14),
    Message('note_on', channel=3, note=29, velocity=0, time=0),
    Message('control_change', channel=11, control=64, value=0, time=13),
    Message('control_change', channel=0, control=64, value=127, time=42),
    Message('note_on', channel=0, note=62, velocity=120, time=50),
    Message('control_change', channel=12, control=64, value=0, time=19),
    Message('note_off', channel=0, note=55, velocity=0, time=22),
    Message('note_off', channel=0, note=62, velocity=0, time=59),
    Message('note_on', channel=12, note=50, velocity=105, time=20),
    Message('note_on', channel=9, note=51, velocity=119, time=0),
    Message('note_on', channel=0, note=67, velocity=119, time=0),
    Message('note_on', channel=9, note=51, velocity=0, time=1),
    Message('note_on', channel=0, note=71, velocity=119, time=119),
    Message('control_change', channel=11, control=64, value=127, time=3),
    Message('note_off', channel=0, note=67, velocity=0, time=77),
    Message('note_off', channel=0, note=71, velocity=0, time=3),
    Message('control_change', channel=12, control=64, value=127, time=34),
    Message('note_on', channel=0, note=74, velocity=125, time=3),
    Message('note_on', channel=12, note=59, velocity=107, time=0),
    Message('note_on', channel=9, note=51, velocity=124, time=0),
    Message('note_on', channel=12, note=62, velocity=105, time=0),
    Message('note_on', channel=0, note=67, velocity=112, time=0),
    Message('note_on', channel=12, note=55, velocity=105, time=0),
    Message('note_on', channel=5, note=59, velocity=125, time=0),
    Message('note_on', channel=9, note=38, velocity=126, time=0),
    Message('note_on', channel=9, note=38, velocity=0, time=1),
    Message('note_on', channel=9, note=51, velocity=0, time=0),
    Message('note_on', channel=0, note=67, velocity=0, time=24),
    Message('note_on', channel=12, note=62, velocity=0, time=11),
    Message('note_on', channel=12, note=59, velocity=0, time=8),
    Message('note_on', channel=12, note=55, velocity=0, time=8),
    Message('note_on', channel=12, note=43, velocity=0, time=24),
    Message('note_on', channel=12, note=50, velocity=0, time=5),
    Message('note_on', channel=0, note=74, velocity=0, time=7),
    Message('note_on', channel=11, note=55, velocity=0, time=1),
    Message('note_on', channel=11, note=62, velocity=0, time=1),
    Message('note_on', channel=12, note=55, velocity=102, time=30),
    Message('note_on', channel=5, note=60, velocity=122, time=0),
    Message('note_on', channel=12, note=59, velocity=104, time=0),
    Message('note_on', channel=12, note=62, velocity=103, time=0),
    Message('note_on', channel=5, note=59, velocity=0, time=16),
    Message('note_on', channel=12, note=62, velocity=0, time=23),
    Message('note_on', channel=12, note=55, velocity=0, time=8),
    Message('note_on', channel=12, note=59, velocity=0, time=1),
    Message('note_on', channel=2, note=31, velocity=0, time=57),
    Message('note_on', channel=3, note=31, velocity=0, time=0),
    Message('note_on', channel=5, note=59, velocity=125, time=15),
    Message('note_on', channel=12, note=55, velocity=103, time=0),
    Message('note_on', channel=0, note=67, velocity=119, time=0),
    Message('note_on', channel=12, note=62, velocity=103, time=0),
    Message('note_on', channel=9, note=51, velocity=114, time=0),
    Message('note_on', channel=12, note=59, velocity=104, time=0),
    Message('note_on', channel=9, note=51, velocity=0, time=1),
    Message('note_on', channel=5, note=60, velocity=0, time=18),
    Message('note_on', channel=12, note=62, velocity=0, time=22),
    Message('note_on', channel=12, note=55, velocity=0, time=6),
    Message('note_on', channel=12, note=59, velocity=0, time=1),
    Message('note_on', channel=0, note=67, velocity=0, time=0),
    Message('note_on', channel=12, note=55, velocity=101, time=72),
    Message('note_on', channel=12, note=62, velocity=102, time=0),
    Message('note_on', channel=12, note=59, velocity=103, time=0),
    Message('control_change', channel=0, control=64, value=0, time=66),
    Message('control_change', channel=11, control=64, value=0, time=19),
    Message('note_off', channel=12, note=55, velocity=0, time=0),
    Message('note_off', channel=12, note=62, velocity=0, time=11),
    Message('note_off', channel=12, note=59, velocity=0, time=2),
    Message('note_on', channel=9, note=51, velocity=124, time=22),
    Message('note_on', channel=12, note=45, velocity=107, time=0),
    Message('note_on', channel=5, note=57, velocity=122, time=0),
    Message('note_on', channel=0, note=57, velocity=119, time=0),
    Message('note_on', channel=3, note=33, velocity=126, time=0),
    Message('note_on', channel=9, note=36, velocity=126, time=0),
    Message('note_on', channel=11, note=57, velocity=117, time=0),
    Message('note_on', channel=11, note=64, velocity=120, time=0),
    Message('note_on', channel=2, note=33, velocity=126, time=0),
    Message('note_on', channel=9, note=36, velocity=0, time=1),
    Message('note_on', channel=9, note=51, velocity=0, time=0),
    Message('note_on', channel=5, note=59, velocity=0, time=9),
    Message('control_change', channel=0, control=64, value=127, time=23),
    Message('note_on', channel=0, note=64, velocity=121, time=87),
    Message('note_on', channel=0, note=57, velocity=0, time=25),
    Message('control_change', channel=12, control=64, value=0, time=11),
    Message('note_off', channel=0, note=64, velocity=0, time=12),
    Message('control_change', channel=11, control=64, value=127, time=65),
    Message('note_on', channel=12, note=52, velocity=105, time=7),
    Message('note_on', channel=9, note=51, velocity=119, time=0),
    Message('note_on', channel=0, note=81, velocity=123, time=0),
    Message('note_on', channel=9, note=51, velocity=0, time=1),
    Message('note_on', channel=0, note=81, velocity=0, time=75),
    Message('note_on', channel=0, note=88, velocity=121, time=44),
    Message('note_on', channel=0, note=88, velocity=0, time=107),
    Message('note_on', channel=12, note=60, velocity=108, time=13),
    Message('note_on', channel=12, note=57, velocity=106, time=0),
    Message('note_on', channel=0, note=83, velocity=124, time=0),
    Message('note_on', channel=9, note=51, velocity=124, time=0),
    Message('note_on', channel=12, note=64, velocity=105, time=0),
    Message('note_on', channel=9, note=38, velocity=125, time=0),
    Message('note_on', channel=9, note=38, velocity=0, time=1),
    Message('note_on', channel=9, note=51, velocity=0, time=0),
    Message('control_change', channel=12, control=64, value=127, time=8),
    Message('note_off', channel=12, note=64, velocity=0, time=26),
    Message('note_off', channel=12, note=52, velocity=0, time=5),
    Message('note_off', channel=12, note=60, velocity=0, time=3),
    Message('note_off', channel=12, note=45, velocity=0, time=9),
    Message('note_off', channel=12, note=57, velocity=0, time=5),
    Message('note_off', channel=0, note=83, velocity=0, time=7),
    Message('note_off', channel=11, note=57, velocity=0, time=34),
    Message('note_off', channel=11, note=64, velocity=0, time=21),
    Message('note_on', channel=12, note=57, velocity=101, time=1),
    Message('note_on', channel=12, note=60, velocity=102, time=0),
    Message('note_on', channel=12, note=64, velocity=102, time=0),
    Message('note_on', channel=12, note=57, velocity=0, time=28),
    Message('note_on', channel=12, note=64, velocity=0, time=8),
    Message('note_on', channel=12, note=60, velocity=0, time=1),
    Message('note_on', channel=12, note=57, velocity=102, time=83),
    Message('note_on', channel=9, note=51, velocity=119, time=0),
    Message('note_on', channel=12, note=64, velocity=102, time=0),
    Message('note_on', channel=12, note=60, velocity=102, time=0),
    Message('note_on', channel=0, note=79, velocity=124, time=0),
    Message('note_on', channel=9, note=51, velocity=0, time=1),
    Message('note_on', channel=12, note=60, velocity=0, time=34),
    Message('note_on', channel=12, note=64, velocity=0, time=0),
    Message('note_on', channel=12, note=57, velocity=0, time=10),
    Message('note_on', channel=0, note=79, velocity=0, time=3),
    Message('note_on', channel=3, note=33, velocity=0, time=39),
    Message('note_on', channel=2, note=33, velocity=0, time=0),
    Message('note_on', channel=12, note=64, velocity=101, time=33),
    Message('note_on', channel=12, note=60, velocity=101, time=0),
    Message('note_on', channel=2, note=40, velocity=122, time=0),
    Message('note_on', channel=3, note=40, velocity=122, time=0),
    Message('note_on', channel=12, note=57, velocity=100, time=0),
    Message('note_on', channel=9, note=36, velocity=126, time=0),
    Message('note_on', channel=9, note=36, velocity=0, time=1),
    Message('note_on', channel=5, note=57, velocity=0, time=7),
    Message('control_change', channel=0, control=64, value=0, time=55),
    Message('note_off', channel=12, note=64, velocity=0, time=46),
    Message('note_off', channel=12, note=60, velocity=0, time=3),
    Message('note_on', channel=2, note=41, velocity=125, time=8),
    Message('note_on', channel=11, note=72, velocity=123, time=0),
    Message('note_on', channel=11, note=65, velocity=121, time=0),
    Message('note_on', channel=0, note=84, velocity=117, time=0),
    Message('note_on', channel=0, note=77, velocity=120, time=0),
    Message('note_on', channel=0, note=53, velocity=120, time=0),
    Message('note_on', channel=11, note=69, velocity=123, time=0),
    Message('note_on', channel=9, note=51, velocity=124, time=0),
    Message('note_on', channel=11, note=29, velocity=126, time=0),
    Message('note_on', channel=3, note=41, velocity=125, time=0),
    Message('note_on', channel=12, note=41, velocity=104, time=0),
    Message('note_on', channel=9, note=36, velocity=126, time=0),
    Message('note_on', channel=9, note=36, velocity=0, time=1),
    Message('note_on', channel=9, note=51, velocity=0, time=0),
    Message('note_on', channel=12, note=57, velocity=0, time=9),
    Message('control_change', channel=0, control=64, value=127, time=15),
    Message('note_off', channel=2, note=40, velocity=0, time=0),
    Message('note_off', channel=3, note=40, velocity=0, time=0),
    Message('note_off', channel=0, note=84, velocity=0, time=7),
    Message('control_change', channel=11, control=64, value=0, time=7),
    Message('control_change', channel=12, control=64, value=0, time=110),
    Message('note_off', channel=0, note=77, velocity=0, time=54),
    Message('note_on', channel=9, note=51, velocity=114, time=37),
    Message('note_on', channel=12, note=48, velocity=104, time=0),
    Message('note_on', channel=9, note=51, velocity=0, time=1),
    Message('control_change', channel=12, control=64, value=127, time=28),
    Message('note_on', channel=9, note=36, velocity=125, time=91),
    Message('note_on', channel=0, note=60, velocity=119, time=0),
    Message('note_on', channel=9, note=36, velocity=0, time=1),
    Message('note_on', channel=12, note=41, velocity=0, time=7),
    Message('note_on', channel=0, note=53, velocity=0, time=50),
    Message('note_on', channel=0, note=60, velocity=0, time=49),
    Message('note_on', channel=0, note=65, velocity=120, time=13),
    Message('note_on', channel=9, note=51, velocity=119, time=0),
    Message('note_on', channel=9, note=38, velocity=126, time=0),
    Message('note_on', channel=9, note=38, velocity=125, time=0),
    Message('note_on', channel=12, note=57, velocity=106, time=0),
    Message('note_on', channel=12, note=60, velocity=104, time=0),
    Message('note_on', channel=12, note=53, velocity=105, time=0),
    Message('note_on', channel=0, note=72, velocity=117, time=0),
    Message('note_on', channel=9, note=38, velocity=0, time=1),
    Message('note_on', channel=9, note=38, velocity=0, time=0),
    Message('note_on', channel=9, note=51, velocity=0, time=0),
    Message('note_on', channel=12, note=48, velocity=0, time=7),
    Message('note_on', channel=0, note=72, velocity=0, time=17),
    Message('note_on', channel=12, note=60, velocity=0, time=8),
    Message('note_on', channel=12, note=57, velocity=0, time=15),
    Message('note_on', channel=12, note=53, velocity=0, time=11),
    Message('note_on', channel=12, note=57, velocity=101, time=61),
    Message('note_on', channel=12, note=60, velocity=102, time=0),
    Message('note_on', channel=12, note=53, velocity=101, time=0),
    Message('note_on', channel=12, note=57, velocity=0, time=41),
    Message('note_on', channel=12, note=60, velocity=0, time=4),
    Message('note_on', channel=12, note=53, velocity=0, time=14),
    Message('note_on', channel=0, note=65, velocity=0, time=25),
    Message('note_on', channel=2, note=41, velocity=0, time=30),
    Message('note_on', channel=3, note=41, velocity=0, time=0),
    Message('note_on', channel=0, note=65, velocity=112, time=6),
    Message('note_on', channel=9, note=51, velocity=114, time=0),
    Message('note_on', channel=9, note=43, velocity=120, time=0),
    Message('note_on', channel=12, note=60, velocity=100, time=0),
    Message('note_on', channel=2, note=36, velocity=122, time=0),
    Message('note_on', channel=12, note=57, velocity=101, time=0),
    Message('note_on', channel=3, note=36, velocity=122, time=0),
    Message('note_on', channel=12, note=53, velocity=102, time=0),
    Message('note_on', channel=0, note=69, velocity=122, time=0),
    Message('note_on', channel=9, note=43, velocity=0, time=1),
    Message('note_on', channel=9, note=51, velocity=0, time=0),
    Message('note_on', channel=12, note=60, velocity=0, time=29),
    Message('note_on', channel=12, note=57, velocity=0, time=7),
    Message('note_on', channel=12, note=53, velocity=0, time=11),
    Message('note_on', channel=0, note=65, velocity=0, time=6),
    Message('note_on', channel=12, note=57, velocity=103, time=66),
    Message('note_on', channel=12, note=53, velocity=101, time=0),
    Message('note_on', channel=0, note=69, velocity=0, time=5),
    Message('note_on', channel=12, note=57, velocity=0, time=99),
    Message('note_on', channel=2, note=36, velocity=0, time=3),
    Message('note_on', channel=3, note=36, velocity=0, time=0),
    Message('note_on', channel=12, note=53, velocity=0, time=5),
    Message('note_on', channel=2, note=29, velocity=125, time=8),
    Message('note_on', channel=9, note=49, velocity=124, time=0),
    Message('note_on', channel=9, note=36, velocity=126, time=0),
    Message('note_on', channel=9, note=51, velocity=124, time=0),
    Message('note_on', channel=12, note=41, velocity=106, time=0),
    Message('note_on', channel=3, note=29, velocity=125, time=0),
    Message('note_on', channel=9, note=51, velocity=0, time=1),
    Message('note_on', channel=9, note=36, velocity=0, time=0),
    Message('note_on', channel=9, note=49, velocity=0, time=0),
    Message('control_change', channel=11, control=64, value=127, time=149),
    Message('control_change', channel=12, control=64, value=0, time=51),
    Message('note_on', channel=9, note=51, velocity=119, time=39),
    Message('note_on', channel=12, note=48, velocity=106, time=0),
    Message('note_on', channel=9, note=51, velocity=0, time=1),
    Message('control_change', channel=12, control=64, value=127, time=24),
    Message('note_on', channel=0, note=53, velocity=119, time=95),
    Message('control_change', channel=0, control=64, value=0, time=37),
    Message('note_off', channel=11, note=72, velocity=0, time=19),
    Message('note_off', channel=11, note=65, velocity=0, time=17),
    Message('note_off', channel=11, note=69, velocity=0, time=1),
    Message('control_change', channel=0, control=64, value=127, time=37),
    Message('note_on', channel=12, note=60, velocity=105, time=9),
    Message('note_on', channel=0, note=65, velocity=121, time=0),
    Message('note_on', channel=12, note=53, velocity=106, time=0),
    Message('note_on', channel=9, note=38, velocity=125, time=0),
    Message('note_on', channel=9, note=51, velocity=124, time=0),
    Message('note_on', channel=12, note=57, velocity=108, time=0),
    Message('note_on', channel=9, note=51, velocity=0, time=1),
    Message('note_on', channel=9, note=38, velocity=0, time=0),
    Message('note_on', channel=12, note=41, velocity=0, time=11),
    Message('note_on', channel=0, note=53, velocity=0, time=13),
    Message('note_on', channel=12, note=60, velocity=0, time=7),
    Message('note_on', channel=12, note=57, velocity=0, time=4),
    Message('note_on', channel=12, note=48, velocity=0, time=17),
    Message('note_on', channel=12, note=53, velocity=0, time=0),
    Message('note_on', channel=11, note=29, velocity=0, time=37),
    Message('note_on', channel=12, note=57, velocity=103, time=30),
    Message('note_on', channel=12, note=53, velocity=102, time=0),
    Message('note_on', channel=0, note=69, velocity=121, time=0),
    Message('note_on', channel=12, note=60, velocity=103, time=0),
    Message('note_on', channel=12, note=60, velocity=0, time=36),
    Message('note_on', channel=12, note=57, velocity=0, time=1),
    Message('note_on', channel=12, note=53, velocity=0, time=8),
    Message('note_on', channel=0, note=69, velocity=0, time=13),
    Message('note_on', channel=0, note=65, velocity=0, time=22),
    Message('note_on', channel=12, note=57, velocity=102, time=40),
    Message('note_on', channel=0, note=65, velocity=112, time=0),
    Message('note_on', channel=12, note=53, velocity=102, time=0),
    Message('note_on', channel=12, note=60, velocity=102, time=0),
    Message('note_on', channel=0, note=72, velocity=124, time=0),
    Message('note_on', channel=9, note=51, velocity=119, time=0),
    Message('note_on', channel=9, note=51, velocity=0, time=1),
    Message('note_on', channel=0, note=65, velocity=0, time=8),
    Message('note_on', channel=12, note=60, velocity=0, time=25),
    Message('note_on', channel=12, note=57, velocity=0, time=11),
    Message('note_on', channel=12, note=53, velocity=0, time=3),
    Message('note_on', channel=0, note=72, velocity=0, time=5),
    Message('note_on', channel=3, note=29, velocity=0, time=21),
    Message('note_on', channel=2, note=29, velocity=0, time=0),
    Message('note_on', channel=9, note=36, velocity=126, time=46),
    Message('note_on', channel=12, note=57, velocity=102, time=0),
    Message('note_on', channel=12, note=53, velocity=102, time=0),
    Message('note_on', channel=12, note=60, velocity=102, time=0),
    Message('note_on', channel=9, note=36, velocity=0, time=1),
    Message('control_change', channel=0, control=64, value=0, time=66),
    Message('note_off', channel=12, note=53, velocity=0, time=40),
    Message('control_change', channel=11, control=64, value=0, time=10),
    Message('control_change', channel=12, control=64, value=0, time=1),
    Message('note_on', channel=11, note=59, velocity=123, time=2),
    Message('note_on', channel=2, note=31, velocity=125, time=0),
    Message('note_on', channel=9, note=51, velocity=124, time=0),
    Message('note_on', channel=11, note=62, velocity=121, time=0),
    Message('note_on', channel=0, note=71, velocity=124, time=0),
    Message('note_on', channel=0, note=74, velocity=122, time=0),
    Message('note_on', channel=12, note=43, velocity=107, time=0),
    Message('note_on', channel=11, note=31, velocity=123, time=0),
    Message('note_on', channel=9, note=36, velocity=126, time=0),
    Message('note_on', channel=3, note=31, velocity=125, time=0),
    Message('note_on', channel=0, note=67, velocity=121, time=0),
    Message('note_on', channel=0, note=55, velocity=119, time=0),
    Message('note_on', channel=11, note=55, velocity=119, time=0),
    Message('note_on', channel=9, note=36, velocity=0, time=1),
    Message('note_on', channel=9, note=51, velocity=0, time=0),
    Message('note_on', channel=12, note=57, velocity=0, time=0),
    Message('note_on', channel=12, note=60, velocity=0, time=4),
    Message('control_change', channel=0, control=64, value=127, time=33),
    Message('note_off', channel=0, note=67, velocity=0, time=110),
    Message('note_off', channel=0, note=71, velocity=0, time=0),
    Message('note_off', channel=0, note=74, velocity=0, time=9),
    Message('note_on', channel=12, note=50, velocity=106, time=83),
    Message('note_on', channel=9, note=51, velocity=114, time=0),
    Message('note_on', channel=9, note=51, velocity=0, time=1),
    Message('control_change', channel=12, control=64, value=127, time=9),
    Message('note_off', channel=12, note=43, velocity=0, time=41),
    Message('control_change', channel=11, control=64, value=127, time=51),
    Message('note_off', channel=0, note=55, velocity=0, time=12),
    Message('note_on', channel=0, note=62, velocity=119, time=6),
    Message('note_on', channel=0, note=62, velocity=0, time=88),
    Message('note_on', channel=12, note=50, velocity=0, time=3),
    Message('note_on', channel=9, note=51, velocity=119, time=29),
    Message('note_on', channel=9, note=38, velocity=125, time=0),
    Message('note_on', channel=12, note=59, velocity=108, time=0),
    Message('note_on', channel=12, note=55, velocity=106, time=0),
    Message('note_on', channel=0, note=81, velocity=123, time=0),
    Message('note_on', channel=12, note=62, velocity=105, time=0),
    Message('note_on', channel=9, note=38, velocity=0, time=1),
    Message('note_on', channel=9, note=51, velocity=0, time=0),
    Message('note_on', channel=11, note=55, velocity=0, time=13),
    Message('note_on', channel=11, note=59, velocity=0, time=6),
    Message('note_on', channel=11, note=62, velocity=0, time=2),
    Message('note_on', channel=12, note=62, velocity=0, time=3),
    Message('note_on', channel=11, note=31, velocity=0, time=6),
    Message('note_on', channel=12, note=59, velocity=0, time=5),
    Message('note_on', channel=12, note=55, velocity=0, time=11),
    Message('note_on', channel=0, note=81, velocity=0, time=30),
    Message('note_on', channel=12, note=55, velocity=102, time=43),
    Message('note_on', channel=12, note=59, velocity=104, time=0),
    Message('note_on', channel=12, note=62, velocity=103, time=0),
    Message('note_on', channel=12, note=59, velocity=0, time=29),
    Message('note_on', channel=12, note=62, velocity=0, time=9),
    Message('note_on', channel=12, note=55, velocity=0, time=3),
    Message('note_on', channel=3, note=31, velocity=0, time=3),
    Message('note_on', channel=2, note=31, velocity=0, time=0),
    Message('pitchwheel', channel=2, pitch=-386, time=45),
    Message('pitchwheel', channel=3, pitch=-386, time=0),
    Message('pitchwheel', channel=2, pitch=-1061, time=4),
    Message('pitchwheel', channel=3, pitch=-1061, time=0),
    Message('pitchwheel', channel=2, pitch=-1928, time=5),
    Message('pitchwheel', channel=3, pitch=-1928, time=0),
    Message('pitchwheel', channel=3, pitch=-2924, time=5),
    Message('pitchwheel', channel=2, pitch=-2924, time=0),
    Message('pitchwheel', channel=2, pitch=-4113, time=4),
    Message('pitchwheel', channel=3, pitch=-4113, time=0),
    Message('pitchwheel', channel=2, pitch=-5205, time=5),
    Message('pitchwheel', channel=3, pitch=-5205, time=0),
    Message('pitchwheel', channel=2, pitch=-7389, time=4),
    Message('pitchwheel', channel=3, pitch=-7389, time=0),
    Message('note_on', channel=9, note=51, velocity=114, time=4),
    Message('note_on', channel=0, note=79, velocity=124, time=0),
    Message('note_on', channel=12, note=59, velocity=103, time=0),
    Message('note_on', channel=2, note=31, velocity=125, time=0),
    Message('note_on', channel=3, note=31, velocity=125, time=0),
    Message('note_on', channel=12, note=55, velocity=102, time=0),
    Message('note_on', channel=12, note=62, velocity=102, time=0),
    Message('pitchwheel', channel=3, pitch=-8192, time=1),
    Message('pitchwheel', channel=2, pitch=-8192, time=0),
    Message('note_off', channel=9, note=51, velocity=0, time=0),
    Message('note_off', channel=12, note=59, velocity=0, time=34),
    Message('note_off', channel=12, note=62, velocity=0, time=4),
    Message('note_off', channel=12, note=55, velocity=0, time=2),
    Message('note_off', channel=0, note=79, velocity=0, time=11),
    Message('pitchwheel', channel=3, pitch=-7004, time=54),
    Message('pitchwheel', channel=2, pitch=-7004, time=0),
    Message('pitchwheel', channel=3, pitch=-5141, time=4),
    Message('pitchwheel', channel=2, pitch=-5141, time=0),
    Message('pitchwheel', channel=2, pitch=-3920, time=5),
    Message('pitchwheel', channel=3, pitch=-3920, time=0),
    Message('pitchwheel', channel=3, pitch=-2506, time=4),
    Message('pitchwheel', channel=2, pitch=-2506, time=0),
    Message('note_on', channel=12, note=59, velocity=103, time=1),
    Message('note_on', channel=12, note=62, velocity=102, time=0),
    Message('note_on', channel=12, note=55, velocity=102, time=0),
    Message('pitchwheel', channel=2, pitch=-1125, time=6),
    Message('pitchwheel', channel=3, pitch=-1125, time=0),
    Message('pitchwheel', channel=3, pitch=0, time=5),
    Message('pitchwheel', channel=2, pitch=0, time=0),
    Message('note_off', channel=12, note=55, velocity=0, time=51),
    Message('note_off', channel=12, note=59, velocity=0, time=13),
    Message('note_off', channel=12, note=62, velocity=0, time=2),
    Message('control_change', channel=0, control=64, value=0, time=26),
    Message('control_change', channel=12, control=64, value=0, time=16),
    Message('note_on', channel=11, note=67, velocity=118, time=1),
    Message('note_on', channel=3, note=36, velocity=124, time=0),
    Message('control_change', channel=0, control=64, value=127, time=0),
    Message('note_on', channel=9, note=36, velocity=126, time=0),
    Message('note_on', channel=0, note=60, velocity=119, time=0),
    Message('note_on', channel=9, note=49, velocity=119, time=0),
    Message('note_on', channel=11, note=36, velocity=125, time=0),
    Message('note_on', channel=2, note=36, velocity=124, time=0),
    Message('note_on', channel=11, note=60, velocity=118, time=0),
    Message('note_on', channel=12, note=48, velocity=108, time=0),
    Message('note_on', channel=11, note=64, velocity=121, time=0),
    Message('note_on', channel=3, note=31, velocity=0, time=0),
    Message('note_on', channel=2, note=31, velocity=0, time=0),
    Message('note_on', channel=9, note=36, velocity=0, time=1),
    Message('note_on', channel=9, note=49, velocity=0, time=0),
    Message('control_change', channel=11, control=64, value=0, time=45),
    Message('note_on', channel=12, note=55, velocity=104, time=74),
    Message('note_on', channel=0, note=67, velocity=118, time=0),
    Message('note_on', channel=0, note=60, velocity=0, time=31),
    Message('note_on', channel=9, note=42, velocity=98, time=89),
    Message('note_on', channel=0, note=79, velocity=120, time=0),
    Message('note_on', channel=12, note=64, velocity=106, time=0),
    Message('note_on', channel=12, note=67, velocity=105, time=0),
    Message('note_on', channel=0, note=72, velocity=124, time=0),
    Message('note_on', channel=12, note=60, velocity=106, time=0),
    Message('note_on', channel=9, note=42, velocity=0, time=1),
    Message('note_on', channel=0, note=67, velocity=0, time=23),
    Message('note_on', channel=12, note=67, velocity=0, time=15),
    Message('note_on', channel=12, note=64, velocity=0, time=4),
    Message('control_change', channel=12, control=64, value=127, time=11),
    Message('control_change', channel=11, control=64, value=127, time=7),
    Message('note_off', channel=12, note=60, velocity=0, time=9),
    Message('note_off', channel=0, note=72, velocity=0, time=44),
    Message('note_on', channel=12, note=64, velocity=104, time=6),
    Message('note_on', channel=12, note=60, velocity=105, time=0),
    Message('note_on', channel=12, note=67, velocity=103, time=0),
    Message('note_on', channel=12, note=67, velocity=0, time=12),
    Message('note_on', channel=12, note=64, velocity=0, time=7),
    Message('note_on', channel=0, note=79, velocity=0, time=8),
    Message('note_on', channel=12, note=60, velocity=0, time=7),
    Message('note_on', channel=12, note=64, velocity=111, time=86),
    Message('note_on', channel=0, note=74, velocity=123, time=0),
    Message('note_on', channel=12, note=67, velocity=111, time=0),
    Message('note_on', channel=9, note=42, velocity=99, time=0),
    Message('note_on', channel=9, note=38, velocity=126, time=0),
    Message('note_on', channel=12, note=60, velocity=109, time=0),
    Message('note_on', channel=9, note=36, velocity=126, time=0),
    Message('note_on', channel=0, note=79, velocity=123, time=0),
    Message('note_on', channel=9, note=36, velocity=0, time=1),
    Message('note_on', channel=9, note=38, velocity=0, time=0),
    Message('note_on', channel=9, note=42, velocity=0, time=0),
    Message('note_on', channel=11, note=36, velocity=0, time=7),
    Message('note_on', channel=12, note=48, velocity=0, time=56),
    Message('note_on', channel=11, note=67, velocity=0, time=4),
    Message('note_on', channel=11, note=64, velocity=0, time=0),
    Message('note_on', channel=11, note=60, velocity=0, time=11),
    Message('note_on', channel=12, note=55, velocity=0, time=27),
    Message('note_on', channel=3, note=36, velocity=0, time=23),
    Message('note_on', channel=2, note=36, velocity=0, time=0),
    Message('pitchwheel', channel=2, pitch=-129, time=42),
    Message('pitchwheel', channel=3, pitch=-129, time=0),
    Message('pitchwheel', channel=3, pitch=-418, time=4),
    Message('pitchwheel', channel=2, pitch=-418, time=0),
    Message('pitchwheel', channel=2, pitch=-868, time=2),
    Message('pitchwheel', channel=3, pitch=-868, time=0),
    Message('pitchwheel', channel=3, pitch=-1414, time=4),
    Message('pitchwheel', channel=2, pitch=-1414, time=0),
    Message('pitchwheel', channel=3, pitch=-1928, time=2),
    Message('pitchwheel', channel=2, pitch=-1928, time=0),
    Message('pitchwheel', channel=2, pitch=-2474, time=4),
    Message('pitchwheel', channel=3, pitch=-2474, time=0),
    Message('pitchwheel', channel=3, pitch=-3020, time=2),
    Message('pitchwheel', channel=2, pitch=-3020, time=0),
    Message('pitchwheel', channel=3, pitch=-3534, time=3),
    Message('pitchwheel', channel=2, pitch=-3534, time=0),
    Message('pitchwheel', channel=2, pitch=-4113, time=4),
    Message('pitchwheel', channel=3, pitch=-4113, time=0),
    Message('pitchwheel', channel=3, pitch=-4691, time=2),
    Message('pitchwheel', channel=2, pitch=-4691, time=0),
    Message('note_off', channel=0, note=74, velocity=0, time=2),
    Message('pitchwheel', channel=3, pitch=-5205, time=2),
    Message('pitchwheel', channel=2, pitch=-5205, time=0),
    Message('pitchwheel', channel=3, pitch=-6361, time=2),
    Message('pitchwheel', channel=2, pitch=-6361, time=0),
    Message('pitchwheel', channel=2, pitch=-7261, time=4),
    Message('pitchwheel', channel=3, pitch=-7261, time=0),
    Message('pitchwheel', channel=3, pitch=-8096, time=2),
    Message('pitchwheel', channel=2, pitch=-8096, time=0),
    Message('pitchwheel', channel=3, pitch=-8192, time=4),
    Message('pitchwheel', channel=2, pitch=-8192, time=0),
    Message('note_off', channel=12, note=67, velocity=0, time=11),
    Message('note_off', channel=12, note=60, velocity=0, time=7),
    Message('note_off', channel=12, note=64, velocity=0, time=2),
    Message('note_off', channel=0, note=79, velocity=0, time=5),
    Message('note_on', channel=3, note=43, velocity=126, time=1),
    Message('note_on', channel=0, note=60, velocity=119, time=0),
    Message('note_on', channel=2, note=43, velocity=126, time=0),
    Message('note_on', channel=12, note=48, velocity=105, time=0),
    Message('note_on', channel=9, note=42, velocity=98, time=0),
    Message('note_on', channel=9, note=42, velocity=0, time=1),
    Message('control_change', channel=0, control=64, value=0, time=76),
    Message('pitchwheel', channel=2, pitch=-7454, time=37),
    Message('pitchwheel', channel=3, pitch=-7454, time=0),
    Message('pitchwheel', channel=2, pitch=-6490, time=3),
    Message('pitchwheel', channel=3, pitch=-6490, time=0),
    Message('note_on', channel=0, note=72, velocity=124, time=3),
    Message('note_on', channel=9, note=38, velocity=126, time=0),
    Message('pitchwheel', channel=2, pitch=-5430, time=0),
    Message('pitchwheel', channel=3, pitch=-5430, time=0),
    Message('note_on', channel=12, note=55, velocity=106, time=0),
    Message('note_on', channel=0, note=79, velocity=124, time=0),
    Message('note_on', channel=9, note=38, velocity=0, time=1),
    Message('pitchwheel', channel=2, pitch=-5108, time=3),
    Message('pitchwheel', channel=3, pitch=-5108, time=0),
    Message('pitchwheel', channel=3, pitch=-4851, time=2),
    Message('pitchwheel', channel=2, pitch=-4851, time=0),
    Message('pitchwheel', channel=2, pitch=-4562, time=4),
    Message('pitchwheel', channel=3, pitch=-4562, time=0),
    Message('pitchwheel', channel=3, pitch=-4337, time=2),
    Message('pitchwheel', channel=2, pitch=-4337, time=0),
    Message('pitchwheel', channel=2, pitch=-4048, time=5),
    Message('pitchwheel', channel=3, pitch=-4048, time=0),
    Message('pitchwheel', channel=2, pitch=-3759, time=1),
    Message('pitchwheel', channel=3, pitch=-3759, time=0),
    Message('note_off', channel=12, note=48, velocity=0, time=1),
    Message('control_change', channel=0, control=64, value=127, time=1),
    Message('pitchwheel', channel=2, pitch=-3406, time=1),
    Message('pitchwheel', channel=3, pitch=-3406, time=0),
    Message('pitchwheel', channel=2, pitch=-2892, time=4),
    Message('pitchwheel', channel=3, pitch=-2892, time=0),
    Message('pitchwheel', channel=2, pitch=-2474, time=2),
    Message('pitchwheel', channel=3, pitch=-2474, time=0),
    Message('pitchwheel', channel=3, pitch=-1992, time=4),
    Message('pitchwheel', channel=2, pitch=-1992, time=0),
    Message('pitchwheel', channel=3, pitch=-1478, time=2),
    Message('pitchwheel', channel=2, pitch=-1478, time=0),
    Message('pitchwheel', channel=2, pitch=-932, time=4),
    Message('pitchwheel', channel=3, pitch=-932, time=0),
    Message('pitchwheel', channel=3, pitch=-482, time=2),
    Message('pitchwheel', channel=2, pitch=-482, time=0),
    Message('pitchwheel', channel=3, pitch=-161, time=4),
    Message('pitchwheel', channel=2, pitch=-161, time=0),
    Message('pitchwheel', channel=2, pitch=0, time=3),
    Message('pitchwheel', channel=3, pitch=0, time=0),
    Message('control_change', channel=11, control=64, value=0, time=49),
    Message('note_off', channel=2, note=43, velocity=0, time=5),
    Message('note_off', channel=3, note=43, velocity=0, time=0),
    Message('note_on', channel=3, note=48, velocity=121, time=20),
    Message('note_on', channel=12, note=60, velocity=107, time=0),
    Message('note_on', channel=12, note=67, velocity=108, time=0),
    Message('note_on', channel=2, note=48, velocity=121, time=0),
    Message('note_on', channel=11, note=24, velocity=126, time=0),
    Message('note_on', channel=12, note=64, velocity=110, time=0),
    Message('note_on', channel=12, note=55, velocity=0, time=13),
    Message('control_change', channel=11, control=64, value=127, time=15),
    Message('note_off', channel=12, note=64, velocity=0, time=11),
    Message('note_off', channel=12, note=67, velocity=0, time=4),
    Message('note_off', channel=12, note=60, velocity=0, time=8),
    Message('note_off', channel=3, note=48, velocity=0, time=27),
    Message('note_off', channel=2, note=48, velocity=0, time=0),
    Message('note_off', channel=0, note=60, velocity=0, time=41),
    Message('note_on', channel=12, note=60, velocity=105, time=1),
    Message('note_on', channel=12, note=67, velocity=105, time=0),
    Message('note_on', channel=3, note=48, velocity=121, time=0),
    Message('note_on', channel=12, note=64, velocity=108, time=0),
    Message('note_on', channel=0, note=67, velocity=119, time=0),
    Message('note_on', channel=2, note=48, velocity=121, time=0),
    Message('note_on', channel=0, note=72, velocity=0, time=10),
    Message('note_on', channel=12, note=67, velocity=0, time=22),
    Message('note_on', channel=12, note=64, velocity=0, time=7),
    Message('note_on', channel=12, note=60, velocity=0, time=2),
    Message('note_on', channel=0, note=79, velocity=0, time=9),
    Message('note_on', channel=2, note=48, velocity=0, time=9),
    Message('note_on', channel=3, note=48, velocity=0, time=0),
    Message('note_on', channel=12, note=64, velocity=110, time=61),
    Message('note_on', channel=3, note=48, velocity=121, time=0),
    Message('note_on', channel=9, note=38, velocity=126, time=0),
    Message('note_on', channel=0, note=79, velocity=123, time=0),
    Message('note_on', channel=2, note=48, velocity=121, time=0),
    Message('note_on', channel=0, note=74, velocity=124, time=0),
    Message('note_on', channel=12, note=67, velocity=108, time=0),
    Message('note_on', channel=12, note=60, velocity=106, time=0),
    Message('note_on', channel=9, note=38, velocity=0, time=1),
    Message('note_on', channel=0, note=67, velocity=0, time=7),
    Message('note_on', channel=12, note=67, velocity=0, time=26),
    Message('note_on', channel=12, note=64, velocity=0, time=4),
    Message('note_on', channel=12, note=60, velocity=0, time=3),
    Message('note_on', channel=11, note=24, velocity=0, time=33),
    Message('note_on', channel=0, note=74, velocity=0, time=19),
    Message('note_on', channel=2, note=43, velocity=122, time=27),
    Message('note_on', channel=3, note=43, velocity=122, time=0),
    Message('note_on', channel=12, note=64, velocity=108, time=0),
    Message('note_on', channel=12, note=67, velocity=106, time=0),
    Message('note_on', channel=12, note=60, velocity=105, time=0),
    Message('note_on', channel=0, note=79, velocity=0, time=9),
    Message('note_on', channel=3, note=48, velocity=0, time=13),
    Message('note_on', channel=2, note=48, velocity=0, time=0),
    Message('note_on', channel=12, note=67, velocity=0, time=10),
    Message('note_on', channel=12, note=60, velocity=0, time=3),
    Message('note_on', channel=12, note=64, velocity=0, time=4),
    Message('note_on', channel=2, note=43, velocity=0, time=75),
    Message('note_on', channel=3, note=43, velocity=0, time=0),
    Message('note_on', channel=3, note=40, velocity=122, time=6),
    Message('note_on', channel=0, note=79, velocity=124, time=0),
    Message('note_on', channel=2, note=40, velocity=122, time=0),
    Message('note_on', channel=9, note=45, velocity=100, time=0),
    Message('note_on', channel=0, note=72, velocity=125, time=0),
    Message('note_on', channel=12, note=64, velocity=111, time=0),
    Message('note_on', channel=0, note=76, velocity=126, time=0),
    Message('note_on', channel=12, note=67, velocity=110, time=0),
    Message('note_on', channel=0, note=60, velocity=117, time=0),
    Message('note_on', channel=12, note=60, velocity=108, time=0),
    Message('note_on', channel=9, note=45, velocity=0, time=1),
    Message('note_on', channel=12, note=67, velocity=0, time=36),
    Message('note_on', channel=12, note=64, velocity=0, time=8),
    Message('note_on', channel=12, note=60, velocity=0, time=1),
    Message('control_change', channel=0, control=64, value=0, time=13),
    Message('note_off', channel=0, note=60, velocity=0, time=35),
    Message('note_off', channel=3, note=40, velocity=0, time=24),
    Message('note_off', channel=2, note=40, velocity=0, time=0),
    Message('note_on', channel=12, note=60, velocity=105, time=2),
    Message('note_on', channel=3, note=36, velocity=118, time=0),
    Message('note_on', channel=12, note=64, velocity=108, time=0),
    Message('note_on', channel=12, note=67, velocity=107, time=0),
    Message('note_on', channel=9, note=45, velocity=101, time=0),
    Message('note_on', channel=2, note=36, velocity=118, time=0),
    Message('note_on', channel=9, note=45, velocity=0, time=1),
    Message('note_on', channel=12, note=67, velocity=0, time=33),
    Message('note_on', channel=12, note=64, velocity=0, time=3),
    Message('note_on', channel=12, note=60, velocity=0, time=0),
    Message('note_on', channel=9, note=43, velocity=123, time=83),
    Message('note_on', channel=3, note=40, velocity=122, time=0),
    Message('note_on', channel=12, note=67, velocity=111, time=0),
    Message('note_on', channel=2, note=40, velocity=122, time=0),
    Message('note_on', channel=12, note=60, velocity=109, time=0),
    Message('note_on', channel=12, note=64, velocity=112, time=0),
    Message('note_on', channel=9, note=43, velocity=0, time=1),
    Message('note_on', channel=2, note=36, velocity=0, time=29),
    Message('note_on', channel=3, note=36, velocity=0, time=0),
    Message('note_on', channel=2, note=40, velocity=0, time=58),
    Message('note_on', channel=3, note=40, velocity=0, time=0),
    Message('note_on', channel=0, note=72, velocity=0, time=18),
    Message('note_on', channel=0, note=76, velocity=0, time=5),
    Message('note_on', channel=0, note=79, velocity=0, time=3),
    Message('note_on', channel=2, note=43, velocity=122, time=6),
    Message('note_on', channel=9, note=41, velocity=113, time=0),
    Message('note_on', channel=3, note=43, velocity=122, time=0),
    Message('note_on', channel=9, note=41, velocity=0, time=1),
    Message('control_change', channel=12, control=64, value=0, time=41),
    Message('control_change', channel=11, control=64, value=0, time=12),
    Message('note_off', channel=12, note=67, velocity=0, time=1),
    Message('note_off', channel=12, note=64, velocity=0, time=9),
    Message('note_off', channel=12, note=60, velocity=0, time=0),
    Message('note_off', channel=2, note=43, velocity=0, time=23),
    Message('note_off', channel=3, note=43, velocity=0, time=0),
    Message('note_on', channel=9, note=51, velocity=124, time=33),
    Message('note_on', channel=10, note=64, velocity=126, time=0),
    Message('note_on', channel=8, note=64, velocity=126, time=0),
    Message('note_on', channel=12, note=45, velocity=108, time=0),
    Message('note_on', channel=2, note=33, velocity=126, time=0),
    Message('note_on', channel=4, note=72, velocity=118, time=0),
    Message('note_on', channel=9, note=36, velocity=126, time=0),
    Message('note_on', channel=3, note=33, velocity=126, time=0),
    Message('note_on', channel=7, note=64, velocity=126, time=0),
    Message('note_on', channel=0, note=57, velocity=120, time=0),
    Message('note_on', channel=4, note=69, velocity=114, time=0),
    Message('note_on', channel=9, note=49, velocity=119, time=0),
    Message('pitchwheel', channel=6, pitch=3437, time=1),
    Message('note_off', channel=9, note=49, velocity=0, time=0),
    Message('note_off', channel=9, note=36, velocity=0, time=0),
    Message('note_off', channel=9, note=51, velocity=0, time=0),
    Message('pitchwheel', channel=6, pitch=3565, time=7),
    Message('pitchwheel', channel=6, pitch=3694, time=2),
    Message('pitchwheel', channel=6, pitch=3790, time=5),
    Message('pitchwheel', channel=6, pitch=3887, time=4),
    Message('pitchwheel', channel=6, pitch=3983, time=4),
    Message('pitchwheel', channel=6, pitch=4079, time=3),
    Message('pitchwheel', channel=6, pitch=4144, time=6),
    Message('control_change', channel=4, control=64, value=127, time=3),
    Message('pitchwheel', channel=6, pitch=4272, time=0),
    Message('pitchwheel', channel=6, pitch=4336, time=5),
    Message('pitchwheel', channel=6, pitch=4369, time=4),
    Message('control_change', channel=0, control=64, value=127, time=3),
    Message('pitchwheel', channel=6, pitch=4465, time=1),
    Message('pitchwheel', channel=6, pitch=4561, time=5),
    Message('pitchwheel', channel=6, pitch=4658, time=5),
    Message('pitchwheel', channel=6, pitch=4722, time=4),
    Message('pitchwheel', channel=6, pitch=4818, time=5),
    Message('pitchwheel', channel=6, pitch=4883, time=4),
    Message('pitchwheel', channel=6, pitch=5011, time=5),
    Message('pitchwheel', channel=6, pitch=5107, time=4),
    Message('pitchwheel', channel=6, pitch=5236, time=5),
    Message('pitchwheel', channel=6, pitch=5364, time=4),
    Message('pitchwheel', channel=6, pitch=5525, time=3),
    Message('pitchwheel', channel=6, pitch=5911, time=6),
    Message('pitchwheel', channel=6, pitch=6103, time=3),
    Message('pitchwheel', channel=6, pitch=6425, time=5),
    Message('pitchwheel', channel=6, pitch=6746, time=4),
    Message('pitchwheel', channel=6, pitch=7067, time=5),
    Message('pitchwheel', channel=6, pitch=7453, time=4),
    Message('note_on', channel=0, note=64, velocity=119, time=1),
    Message('pitchwheel', channel=6, pitch=7774, time=4),
    Message('pitchwheel', channel=6, pitch=8031, time=4),
    Message('pitchwheel', channel=6, pitch=8191, time=5),
    Message('note_off', channel=0, note=57, velocity=0, time=42),
    Message('note_off', channel=0, note=64, velocity=0, time=61),
    Message('note_on', channel=12, note=52, velocity=104, time=4),
    Message('note_on', channel=0, note=69, velocity=121, time=0),
    Message('control_change', channel=12, control=64, value=127, time=17),
    Message('note_off', channel=12, note=45, velocity=0, time=25),
    Message('note_off', channel=4, note=72, velocity=0, time=23),
    Message('note_off', channel=4, note=69, velocity=0, time=32),
    Message('note_on', channel=0, note=72, velocity=119, time=23),
    Message('note_on', channel=0, note=69, velocity=0, time=44),
    Message('note_on', channel=0, note=72, velocity=0, time=18),
    Message('note_on', channel=12, note=60, velocity=106, time=58),
    Message('note_on', channel=9, note=51, velocity=119, time=0),
    Message('note_on', channel=0, note=76, velocity=125, time=0),
    Message('note_on', channel=12, note=57, velocity=106, time=0),
    Message('note_on', channel=12, note=64, velocity=105, time=0),
    Message('note_on', channel=9, note=38, velocity=125, time=0),
    Message('note_on', channel=9, note=38, velocity=0, time=1),
    Message('note_on', channel=9, note=51, velocity=0, time=0),
    Message('note_on', channel=12, note=64, velocity=0, time=34),
    Message('note_on', channel=12, note=60, velocity=0, time=6),
    Message('note_on', channel=12, note=57, velocity=0, time=16),
    Message('note_on', channel=0, note=76, velocity=0, time=13),
    Message('note_on', channel=12, note=57, velocity=102, time=50),
    Message('note_on', channel=12, note=60, velocity=103, time=0),
    Message('note_on', channel=12, note=64, velocity=102, time=0),
    Message('note_on', channel=12, note=52, velocity=0, time=17),
    Message('note_on', channel=12, note=64, velocity=0, time=17),
    Message('note_on', channel=12, note=60, velocity=0, time=11),
    Message('note_on', channel=12, note=57, velocity=0, time=0),
    Message('note_on', channel=2, note=28, velocity=125, time=75),
    Message('note_on', channel=12, note=60, velocity=102, time=0),
    Message('note_on', channel=9, note=51, velocity=119, time=0),
    Message('note_on', channel=12, note=64, velocity=102, time=0),
    Message('note_on', channel=12, note=57, velocity=101, time=0),
    Message('note_on', channel=3, note=28, velocity=125, time=0),
    Message('note_on', channel=9, note=51, velocity=0, time=1),
    Message('note_on', channel=3, note=33, velocity=0, time=14),
    Message('note_on', channel=2, note=33, velocity=0, time=0),
    Message('note_on', channel=12, note=57, velocity=0, time=33),
    Message('note_on', channel=12, note=60, velocity=0, time=0),
    Message('note_on', channel=12, note=64, velocity=0, time=2),
    Message('note_on', channel=12, note=64, velocity=101, time=70),
    Message('note_on', channel=2, note=33, velocity=125, time=0),
    Message('note_on', channel=3, note=33, velocity=125, time=0),
    Message('note_on', channel=12, note=60, velocity=102, time=0),
    Message('note_on', channel=12, note=57, velocity=100, time=0),
    Message('note_on', channel=3, note=28, velocity=0, time=1),
    Message('note_on', channel=2, note=28, velocity=0, time=0),
    Message('note_on', channel=7, note=64, velocity=0, time=6),
    Message('note_on', channel=8, note=64, velocity=0, time=0),
    Message('note_on', channel=10, note=64, velocity=0, time=0),
    Message('pitchwheel', channel=6, pitch=7388, time=34),
    Message('pitchwheel', channel=6, pitch=6103, time=4),
    Message('pitchwheel', channel=6, pitch=5011, time=7),
    Message('pitchwheel', channel=6, pitch=4208, time=2),
    Message('pitchwheel', channel=6, pitch=3373, time=3),
    Message('pitchwheel', channel=6, pitch=2537, time=6),
    Message('pitchwheel', channel=6, pitch=1509, time=5),
    Message('control_change', channel=0, control=64, value=0, time=3),
    Message('pitchwheel', channel=6, pitch=610, time=1),
    Message('pitchwheel', channel=6, pitch=0, time=3),
    Message('note_off', channel=12, note=64, velocity=0, time=14),
    Message('note_off', channel=12, note=57, velocity=0, time=9),
    Message('note_off', channel=12, note=60, velocity=0, time=1),
    Message('note_on', channel=12, note=43, velocity=107, time=21),
    Message('note_on', channel=9, note=51, velocity=124, time=0),
    Message('note_on', channel=7, note=62, velocity=126, time=0),
    Message('note_on', channel=10, note=62, velocity=126, time=0),
    Message('note_on', channel=0, note=55, velocity=119, time=0),
    Message('note_on', channel=9, note=36, velocity=126, time=0),
    Message('note_on', channel=3, note=31, velocity=126, time=0),
    Message('note_on', channel=2, note=31, velocity=126, time=0),
    Message('note_on', channel=8, note=62, velocity=126, time=0),
    Message('note_on', channel=4, note=67, velocity=116, time=0),
    Message('note_on', channel=4, note=71, velocity=118, time=0),
    Message('note_on', channel=9, note=36, velocity=0, time=1),
    Message('note_on', channel=9, note=51, velocity=0, time=0),
    Message('control_change', channel=4, control=64, value=0, time=2),
    Message('note_off', channel=3, note=33, velocity=0, time=0),
    Message('note_off', channel=2, note=33, velocity=0, time=0),
    Message('control_change', channel=12, control=64, value=0, time=18),
    Message('control_change', channel=0, control=64, value=127, time=21),
    Message('control_change', channel=12, control=64, value=127, time=49),
    Message('note_on', channel=0, note=62, velocity=120, time=29),
    Message('note_on', channel=0, note=55, velocity=0, time=66),
    Message('note_on', channel=0, note=62, velocity=0, time=45),
    Message('note_on', channel=9, note=51, velocity=114, time=9),
    Message('note_on', channel=12, note=50, velocity=105, time=0),
    Message('note_on', channel=0, note=67, velocity=121, time=0),
    Message('note_on', channel=9, note=51, velocity=0, time=1),
    Message('note_on', channel=12, note=43, velocity=0, time=56),
    Message('note_on', channel=0, note=71, velocity=119, time=63),
    Message('control_change', channel=4, control=64, value=127, time=24),
    Message('note_on', channel=9, note=51, velocity=119, time=96),
    Message('note_on', channel=12, note=55, velocity=106, time=0),
    Message('note_on', channel=0, note=74, velocity=124, time=0),
    Message('note_on', channel=9, note=38, velocity=126, time=0),
    Message('note_on', channel=12, note=59, velocity=108, time=0),
    Message('note_on', channel=12, note=62, velocity=105, time=0),
    Message('note_on', channel=9, note=38, velocity=0, time=1),
    Message('note_on', channel=9, note=51, velocity=0, time=0),
    Message('note_on', channel=0, note=67, velocity=0, time=7),
    Message('note_on', channel=0, note=71, velocity=0, time=11),
    Message('note_on', channel=12, note=62, velocity=0, time=17),
    Message('note_on', channel=12, note=50, velocity=0, time=8),
    Message('note_on', channel=12, note=59, velocity=0, time=1),
    Message('note_on', channel=12, note=55, velocity=0, time=5),
    Message('note_on', channel=0, note=74, velocity=0, time=4),
    Message('note_on', channel=4, note=71, velocity=0, time=34),
    Message('note_on', channel=4, note=67, velocity=0, time=15),
    Message('note_on', channel=12, note=59, velocity=103, time=17),
    Message('note_on', channel=12, note=62, velocity=103, time=0),
    Message('note_on', channel=12, note=55, velocity=102, time=0),
    Message('note_on', channel=12, note=62, velocity=0, time=43),
    Message('note_on', channel=12, note=59, velocity=0, time=0),
    Message('note_on', channel=12, note=55, velocity=0, time=12),
    Message('note_on', channel=9, note=51, velocity=114, time=65),
    Message('note_on', channel=12, note=59, velocity=103, time=0),
    Message('note_on', channel=12, note=55, velocity=102, time=0),
    Message('note_on', channel=12, note=62, velocity=103, time=0),
    Message('note_on', channel=9, note=51, velocity=0, time=1),
    Message('note_on', channel=12, note=62, velocity=0, time=40),
    Message('note_on', channel=12, note=59, velocity=0, time=2),
    Message('note_on', channel=12, note=55, velocity=0, time=9),
    Message('note_on', channel=12, note=59, velocity=103, time=68),
    Message('note_on', channel=12, note=55, velocity=102, time=0),
    Message('note_on', channel=12, note=62, velocity=102, time=0),
    Message('note_on', channel=10, note=62, velocity=0, time=79),
    Message('note_on', channel=8, note=62, velocity=0, time=0),
    Message('note_on', channel=7, note=62, velocity=0, time=0),
    Message('control_change', channel=0, control=64, value=0, time=12),
    Message('note_off', channel=2, note=31, velocity=0, time=1),
    Message('note_off', channel=3, note=31, velocity=0, time=0),
    Message('control_change', channel=12, control=64, value=0, time=16),
    Message('note_on', channel=3, note=41, velocity=126, time=12),
    Message('note_on', channel=7, note=72, velocity=126, time=0),
    Message('note_on', channel=0, note=53, velocity=119, time=0),
    Message('note_on', channel=2, note=41, velocity=126, time=0),
    Message('note_on', channel=4, note=65, velocity=114, time=0),
    Message('note_on', channel=8, note=72, velocity=126, time=0),
    Message('note_on', channel=9, note=36, velocity=126, time=0),
    Message('note_on', channel=9, note=51, velocity=119, time=0),
    Message('note_on', channel=4, note=69, velocity=117, time=0),
    Message('note_on', channel=12, note=41, velocity=106, time=0),
    Message('note_on', channel=10, note=72, velocity=126, time=0),
    Message('note_on', channel=9, note=51, velocity=0, time=1),
    Message('note_on', channel=9, note=36, velocity=0, time=0),
    Message('note_on', channel=12, note=62, velocity=0, time=6),
    Message('note_on', channel=12, note=59, velocity=0, time=5),
    Message('control_change', channel=0, control=64, value=127, time=4),
    Message('note_off', channel=12, note=55, velocity=0, time=5),
    Message('control_change', channel=4, control=64, value=0, time=1),
    Message('control_change', channel=12, control=64, value=127, time=46),
    Message('note_on', channel=0, note=60, velocity=118, time=52),
    Message('note_on', channel=0, note=53, velocity=0, time=63),
    Message('note_on', channel=12, note=48, velocity=104, time=57),
    Message('note_on', channel=0, note=65, velocity=118, time=0),
    Message('note_on', channel=9, note=51, velocity=109, time=0),
    Message('note_on', channel=9, note=51, velocity=0, time=1),
    Message('note_on', channel=0, note=60, velocity=0, time=4),
    Message('note_on', channel=0, note=69, velocity=116, time=115),
    Message('note_on', channel=9, note=38, velocity=126, time=120),
    Message('note_on', channel=12, note=60, velocity=106, time=0),
    Message('note_on', channel=12, note=53, velocity=105, time=0),
    Message('note_on', channel=0, note=72, velocity=123, time=0),
    Message('note_on', channel=9, note=51, velocity=119, time=0),
    Message('note_on', channel=12, note=57, velocity=107, time=0),
    Message('note_on', channel=9, note=51, velocity=0, time=1),
    Message('note_on', channel=9, note=38, velocity=0, time=0),
    Message('note_on', channel=0, note=65, velocity=0, time=23),
    Message('note_on', channel=0, note=69, velocity=0, time=9),
    Message('note_on', channel=12, note=60, velocity=0, time=8),
    Message('note_on', channel=0, note=72, velocity=0, time=11),
    Message('note_on', channel=12, note=57, velocity=0, time=4),
    Message('note_on', channel=12, note=53, velocity=0, time=10),
    Message('note_on', channel=12, note=41, velocity=0, time=16),
    Message('note_on', channel=12, note=57, velocity=103, time=38),
    Message('note_on', channel=12, note=60, velocity=101, time=0),
    Message('note_on', channel=12, note=53, velocity=103, time=0),
    Message('note_on', channel=12, note=48, velocity=0, time=13),
    Message('note_on', channel=12, note=60, velocity=0, time=9),
    Message('note_on', channel=12, note=57, velocity=0, time=12),
    Message('note_on', channel=12, note=53, velocity=0, time=10),
    Message('note_on', channel=9, note=51, velocity=114, time=76),
    Message('note_on', channel=12, note=57, velocity=103, time=0),
    Message('note_on', channel=12, note=53, velocity=102, time=0),
    Message('note_on', channel=12, note=60, velocity=102, time=0),
    Message('note_on', channel=9, note=51, velocity=0, time=1),
    Message('note_on', channel=12, note=57, velocity=0, time=30),
    Message('note_on', channel=12, note=60, velocity=0, time=7),
    Message('note_on', channel=12, note=53, velocity=0, time=10),
    Message('note_on', channel=3, note=41, velocity=0, time=43),
    Message('note_on', channel=2, note=41, velocity=0, time=0),
    Message('note_on', channel=12, note=53, velocity=101, time=29),
    Message('note_on', channel=12, note=60, velocity=102, time=0),
    Message('note_on', channel=2, note=36, velocity=123, time=0),
    Message('note_on', channel=12, note=57, velocity=102, time=0),
    Message('note_on', channel=3, note=36, velocity=123, time=0),
    Message('note_on', channel=0, note=53, velocity=120, time=0),
    Message('note_on', channel=3, note=29, velocity=126, time=120),
    Message('note_on', channel=12, note=41, velocity=106, time=0),
    Message('note_on', channel=0, note=60, velocity=121, time=0),
    Message('note_on', channel=9, note=36, velocity=125, time=0),
    Message('note_on', channel=2, note=29, velocity=126, time=0),
    Message('note_on', channel=9, note=51, velocity=119, time=0),
    Message('note_on', channel=9, note=51, velocity=0, time=1),
    Message('note_on', channel=9, note=36, velocity=0, time=0),
    Message('note_on', channel=12, note=60, velocity=0, time=2),
    Message('note_on', channel=12, note=57, velocity=0, time=0),
    Message('note_on', channel=0, note=53, velocity=0, time=19),
    Message('note_on', channel=12, note=53, velocity=0, time=1),
    Message('note_on', channel=2, note=36, velocity=0, time=3),
    Message('note_on', channel=3, note=36, velocity=0, time=0),
    Message('note_on', channel=0, note=60, velocity=0, time=61),
    Message('note_on', channel=0, note=77, velocity=124, time=33),
    Message('note_on', channel=8, note=72, velocity=0, time=1),
    Message('note_on', channel=10, note=72, velocity=0, time=0),
    Message('note_on', channel=7, note=72, velocity=0, time=0),
    Message('note_on', channel=9, note=51, velocity=109, time=119),
    Message('note_on', channel=12, note=48, velocity=104, time=0),
    Message('note_on', channel=0, note=81, velocity=122, time=0),
    Message('note_on', channel=9, note=51, velocity=0, time=1),
    Message('note_on', channel=12, note=41, velocity=0, time=27),
    Message('note_on', channel=0, note=77, velocity=0, time=18),
    Message('note_on', channel=0, note=81, velocity=0, time=52),
    Message('note_on', channel=12, note=48, velocity=0, time=100),
    Message('note_on', channel=9, note=51, velocity=114, time=42),
    Message('note_on', channel=12, note=60, velocity=105, time=0),
    Message('note_on', channel=12, note=57, velocity=107, time=0),
    Message('note_on', channel=9, note=38, velocity=126, time=0),
    Message('note_on', channel=12, note=53, velocity=107, time=0),
    Message('note_on', channel=0, note=84, velocity=125, time=0),
    Message('note_on', channel=9, note=38, velocity=0, time=1),
    Message('note_on', channel=9, note=51, velocity=0, time=0),
    Message('note_on', channel=12, note=60, velocity=0, time=22),
    Message('note_on', channel=12, note=57, velocity=0, time=11),
    Message('note_on', channel=12, note=53, velocity=0, time=22),
    Message('note_on', channel=0, note=84, velocity=0, time=17),
    Message('note_on', channel=12, note=57, velocity=104, time=47),
    Message('note_on', channel=12, note=60, velocity=102, time=0),
    Message('note_on', channel=0, note=84, velocity=115, time=0),
    Message('note_on', channel=0, note=77, velocity=121, time=0),
    Message('note_on', channel=12, note=53, velocity=102, time=0),
    Message('note_on', channel=12, note=60, velocity=0, time=32),
    Message('note_on', channel=12, note=53, velocity=0, time=5),
    Message('note_on', channel=12, note=57, velocity=0, time=3),
    Message('note_on', channel=0, note=77, velocity=0, time=4),
    Message('note_on', channel=0, note=84, velocity=0, time=9),
    Message('note_on', channel=2, note=29, velocity=0, time=57),
    Message('note_on', channel=3, note=29, velocity=0, time=0),
    Message('note_on', channel=9, note=51, velocity=109, time=10),
    Message('note_on', channel=0, note=76, velocity=121, time=0),
    Message('note_on', channel=2, note=31, velocity=123, time=0),
    Message('note_on', channel=3, note=31, velocity=123, time=0),
    Message('note_on', channel=12, note=57, velocity=104, time=0),
    Message('note_on', channel=12, note=53, velocity=103, time=0),
    Message('note_on', channel=12, note=60, velocity=103, time=0),
    Message('note_on', channel=9, note=51, velocity=0, time=1),
    Message('pitchwheel', channel=3, pitch=-643, time=5),
    Message('pitchwheel', channel=2, pitch=-643, time=0),
    Message('pitchwheel', channel=2, pitch=-2442, time=9),
    Message('pitchwheel', channel=3, pitch=-2442, time=0),
    Message('pitchwheel', channel=2, pitch=-3342, time=2),
    Message('pitchwheel', channel=3, pitch=-3342, time=0),
    Message('pitchwheel', channel=2, pitch=-4273, time=4),
    Message('pitchwheel', channel=3, pitch=-4273, time=0),
    Message('pitchwheel', channel=2, pitch=-5173, time=5),
    Message('pitchwheel', channel=3, pitch=-5173, time=0),
    Message('pitchwheel', channel=3, pitch=-6747, time=7),
    Message('pitchwheel', channel=2, pitch=-6747, time=0),
    Message('pitchwheel', channel=3, pitch=-8192, time=2),
    Message('pitchwheel', channel=2, pitch=-8192, time=0),
    Message('note_off', channel=0, note=76, velocity=0, time=10),
    Message('note_off', channel=12, note=60, velocity=0, time=1),
    Message('note_off', channel=12, note=53, velocity=0, time=7),
    Message('note_off', channel=12, note=57, velocity=0, time=1),
    Message('note_off', channel=4, note=69, velocity=0, time=35),
    Message('note_off', channel=4, note=65, velocity=0, time=2),
    Message('note_on', channel=12, note=60, velocity=101, time=29),
    Message('note_on', channel=12, note=53, velocity=103, time=0),
    Message('note_on', channel=0, note=74, velocity=121, time=0),
    Message('note_on', channel=12, note=57, velocity=104, time=0),
    Message('note_on', channel=0, note=74, velocity=0, time=39),
    Message('note_on', channel=12, note=60, velocity=0, time=14),
    Message('pitchwheel', channel=3, pitch=-8032, time=3),
    Message('pitchwheel', channel=2, pitch=-8032, time=0),
    Message('pitchwheel', channel=2, pitch=-6683, time=4),
    Message('pitchwheel', channel=3, pitch=-6683, time=0),
    Message('note_off', channel=12, note=53, velocity=0, time=2),
    Message('note_off', channel=12, note=57, velocity=0, time=2),
    Message('pitchwheel', channel=2, pitch=-5301, time=1),
    Message('pitchwheel', channel=3, pitch=-5301, time=0),
    Message('pitchwheel', channel=3, pitch=-4562, time=4),
    Message('pitchwheel', channel=2, pitch=-4562, time=0),
    Message('pitchwheel', channel=2, pitch=-3631, time=5),
    Message('pitchwheel', channel=3, pitch=-3631, time=0),
    Message('pitchwheel', channel=2, pitch=-2571, time=3),
    Message('pitchwheel', channel=3, pitch=-2571, time=0),
    Message('pitchwheel', channel=3, pitch=-1543, time=6),
    Message('pitchwheel', channel=2, pitch=-1543, time=0),
    Message('pitchwheel', channel=3, pitch=-482, time=3),
    Message('pitchwheel', channel=2, pitch=-482, time=0),
    Message('pitchwheel', channel=3, pitch=0, time=6),
    Message('pitchwheel', channel=2, pitch=0, time=0),
    Message('control_change', channel=0, control=64, value=0, time=19),
    Message('control_change', channel=12, control=64, value=0, time=8),
    Message('note_on', channel=0, note=72, velocity=123, time=1),
    Message('note_on', channel=9, note=36, velocity=126, time=0),
    Message('note_on', channel=6, note=64, velocity=127, time=0),
    Message('note_on', channel=2, note=36, velocity=124, time=0),
    Message('note_on', channel=3, note=36, velocity=124, time=0),
    Message('note_on', channel=9, note=51, velocity=114, time=0),
    Message('note_on', channel=12, note=48, velocity=108, time=0),
    Message('note_on', channel=9, note=51, velocity=0, time=1),
    Message('note_on', channel=9, note=36, velocity=0, time=0),
    Message('note_on', channel=2, note=31, velocity=0, time=4),
    Message('note_on', channel=3, note=31, velocity=0, time=0),
    Message('control_change', channel=0, control=64, value=127, time=58),
    Message('note_on', channel=0, note=60, velocity=117, time=177),
    Message('note_on', channel=9, note=51, velocity=114, time=0),
    Message('note_on', channel=12, note=55, velocity=105, time=0),
    Message('note_on', channel=9, note=51, velocity=0, time=1),
    Message('control_change', channel=12, control=64, value=127, time=14),
    Message('note_off', channel=0, note=72, velocity=0, time=39),
    Message('note_off', channel=12, note=55, velocity=0, time=171),
    Message('note_on', channel=9, note=51, velocity=119, time=15),
    Message('note_on', channel=0, note=72, velocity=123, time=0),
    Message('note_on', channel=12, note=67, velocity=105, time=0),
    Message('note_on', channel=9, note=38, velocity=126, time=0),
    Message('note_on', channel=12, note=60, velocity=107, time=0),
    Message('note_on', channel=12, note=64, velocity=106, time=0),
    Message('note_on', channel=9, note=38, velocity=0, time=1),
    Message('note_on', channel=9, note=51, velocity=0, time=0),
    Message('note_on', channel=12, note=48, velocity=0, time=11),
    Message('note_on', channel=12, note=67, velocity=0, time=20),
    Message('note_on', channel=12, note=64, velocity=0, time=9),
    Message('note_on', channel=12, note=60, velocity=0, time=10),
    Message('note_on', channel=12, note=60, velocity=102, time=69),
    Message('note_on', channel=0, note=67, velocity=119, time=0),
    Message('note_on', channel=12, note=67, velocity=102, time=0),
    Message('note_on', channel=12, note=64, velocity=103, time=0),
    Message('note_on', channel=0, note=60, velocity=0, time=10),
    Message('note_on', channel=12, note=67, velocity=0, time=30),
    Message('note_on', channel=12, note=60, velocity=0, time=1),
    Message('note_on', channel=12, note=64, velocity=0, time=3),
    Message('note_on', channel=0, note=72, velocity=0, time=9),
    Message('note_on', channel=0, note=67, velocity=0, time=5),
    Message('note_on', channel=3, note=36, velocity=0, time=45),
    Message('note_on', channel=2, note=36, velocity=0, time=0),
    Message('note_on', channel=0, note=79, velocity=125, time=17),
    Message('note_on', channel=0, note=72, velocity=115, time=0),
    Message('note_on', channel=12, note=60, velocity=102, time=0),
    Message('note_on', channel=9, note=51, velocity=114, time=0),
    Message('note_on', channel=12, note=64, velocity=103, time=0),
    Message('note_on', channel=3, note=28, velocity=126, time=0),
    Message('note_on', channel=12, note=67, velocity=102, time=0),
    Message('note_on', channel=2, note=28, velocity=126, time=0),
    Message('note_on', channel=9, note=51, velocity=0, time=1),
    Message('note_on', channel=12, note=67, velocity=0, time=33),
    Message('note_on', channel=12, note=60, velocity=0, time=2),
    Message('note_on', channel=12, note=64, velocity=0, time=1),
    Message('note_on', channel=0, note=72, velocity=0, time=2),
    Message('note_on', channel=0, note=79, velocity=0, time=10),
    Message('note_on', channel=9, note=36, velocity=125, time=71),
    Message('note_on', channel=12, note=60, velocity=100, time=0),
    Message('note_on', channel=12, note=67, velocity=101, time=0),
    Message('note_on', channel=3, note=29, velocity=125, time=0),
    Message('note_on', channel=12, note=64, velocity=102, time=0),
    Message('note_on', channel=2, note=29, velocity=125, time=0),
    Message('note_on', channel=9, note=36, velocity=0, time=1),
    Message('note_on', channel=2, note=28, velocity=0, time=6),
    Message('note_on', channel=3, note=28, velocity=0, time=0),
    Message('note_on', channel=12, note=67, velocity=0, time=50),
    Message('note_on', channel=12, note=64, velocity=0, time=4),
    Message('note_on', channel=12, note=60, velocity=0, time=8),
    Message('control_change', channel=0, control=64, value=0, time=45),
    Message('note_on', channel=3, note=31, velocity=125, time=6),
    Message('note_on', channel=0, note=55, velocity=118, time=0),
    Message('note_on', channel=9, note=51, velocity=124, time=0),
    Message('note_on', channel=12, note=43, velocity=106, time=0),
    Message('note_on', channel=2, note=31, velocity=125, time=0),
    Message('note_on', channel=9, note=36, velocity=126, time=0),
    Message('note_on', channel=6, note=62, velocity=127, time=0),
    Message('note_on', channel=9, note=36, velocity=0, time=1),
    Message('note_on', channel=9, note=51, velocity=0, time=0),
    Message('note_on', channel=6, note=64, velocity=0, time=5),
    Message('note_on', channel=3, note=29, velocity=0, time=9),
    Message('note_on', channel=2, note=29, velocity=0, time=0),
    Message('control_change', channel=0, control=64, value=127, time=55),
    Message('note_on', channel=0, note=62, velocity=120, time=50),
    Message('control_change', channel=12, control=64, value=0, time=19),
    Message('note_off', channel=0, note=55, velocity=0, time=22),
    Message('note_off', channel=0, note=62, velocity=0, time=59),
    Message('note_on', channel=9, note=51, velocity=119, time=20),
    Message('note_on', channel=12, note=50, velocity=105, time=0),
    Message('note_on', channel=0, note=67, velocity=119, time=0),
    Message('note_on', channel=9, note=51, velocity=0, time=1),
    Message('note_on', channel=0, note=71, velocity=119, time=119),
    Message('note_on', channel=0, note=67, velocity=0, time=80),
    Message('note_on', channel=0, note=71, velocity=0, time=3),
    Message('control_change', channel=12, control=64, value=127, time=34),
    Message('note_on', channel=0, note=74, velocity=125, time=3),
    Message('note_on', channel=5, note=59, velocity=126, time=0),
    Message('note_on', channel=9, note=38, velocity=126, time=0),
    Message('note_on', channel=12, note=55, velocity=105, time=0),
    Message('note_on', channel=0, note=67, velocity=112, time=0),
    Message('note_on', channel=9, note=51, velocity=124, time=0),
    Message('note_on', channel=12, note=62, velocity=105, time=0),
    Message('note_on', channel=12, note=59, velocity=107, time=0),
    Message('note_on', channel=9, note=51, velocity=0, time=1),
    Message('note_on', channel=9, note=38, velocity=0, time=0),
    Message('note_on', channel=0, note=67, velocity=0, time=24),
    Message('note_on', channel=12, note=62, velocity=0, time=11),
    Message('note_on', channel=12, note=59, velocity=0, time=8),
    Message('note_on', channel=12, note=55, velocity=0, time=8),
    Message('note_on', channel=12, note=43, velocity=0, time=24),
    Message('note_on', channel=12, note=50, velocity=0, time=5),
    Message('note_on', channel=0, note=74, velocity=0, time=7),
    Message('note_on', channel=5, note=60, velocity=121, time=32),
    Message('note_on', channel=12, note=59, velocity=104, time=0),
    Message('note_on', channel=12, note=62, velocity=103, time=0),
    Message('note_on', channel=12, note=55, velocity=102, time=0),
    Message('note_on', channel=5, note=59, velocity=0, time=15),
    Message('note_on', channel=12, note=62, velocity=0, time=24),
    Message('note_on', channel=12, note=55, velocity=0, time=8),
    Message('note_on', channel=12, note=59, velocity=0, time=1),
    Message('note_on', channel=3, note=31, velocity=0, time=57),
    Message('note_on', channel=2, note=31, velocity=0, time=0),
    Message('note_on', channel=5, note=59, velocity=125, time=15),
    Message('note_on', channel=0, note=67, velocity=119, time=0),
    Message('note_on', channel=12, note=59, velocity=104, time=0),
    Message('note_on', channel=12, note=62, velocity=103, time=0),
    Message('note_on', channel=12, note=55, velocity=103, time=0),
    Message('note_on', channel=9, note=51, velocity=114, time=0),
    Message('note_on', channel=9, note=51, velocity=0, time=1),
    Message('note_on', channel=5, note=60, velocity=0, time=26),
    Message('note_on', channel=12, note=62, velocity=0, time=14),
    Message('note_on', channel=12, note=55, velocity=0, time=6),
    Message('note_on', channel=0, note=67, velocity=0, time=1),
    Message('note_on', channel=12, note=59, velocity=0, time=0),
    Message('note_on', channel=5, note=55, velocity=113, time=72),
    Message('note_on', channel=12, note=62, velocity=102, time=0),
    Message('note_on', channel=12, note=59, velocity=103, time=0),
    Message('note_on', channel=12, note=55, velocity=101, time=0),
    Message('note_on', channel=5, note=59, velocity=0, time=5),
    Message('control_change', channel=0, control=64, value=0, time=61),
    Message('note_off', channel=12, note=55, velocity=0, time=19),
    Message('note_off', channel=12, note=62, velocity=0, time=11),
    Message('note_off', channel=12, note=59, velocity=0, time=2),
    Message('note_on', channel=3, note=33, velocity=126, time=22),
    Message('note_on', channel=2, note=33, velocity=126, time=0),
    Message('note_on', channel=6, note=64, velocity=127, time=0),
    Message('note_on', channel=5, note=57, velocity=123, time=0),
    Message('note_on', channel=0, note=57, velocity=119, time=0),
    Message('note_on', channel=9, note=51, velocity=124, time=0),
    Message('note_on', channel=9, note=36, velocity=126, time=0),
    Message('note_on', channel=12, note=45, velocity=107, time=0),
    Message('note_on', channel=9, note=36, velocity=0, time=1),
    Message('note_on', channel=9, note=51, velocity=0, time=0),
    Message('note_on', channel=6, note=62, velocity=0, time=8),
    Message('note_on', channel=5, note=55, velocity=0, time=12),
    Message('control_change', channel=0, control=64, value=127, time=12),
    Message('note_on', channel=0, note=64, velocity=121, time=87),
    Message('note_on', channel=0, note=57, velocity=0, time=25),
    Message('control_change', channel=12, control=64, value=0, time=11),
    Message('note_off', channel=0, note=64, velocity=0, time=12),
    Message('note_on', channel=0, note=81, velocity=123, time=72),
    Message('note_on', channel=12, note=52, velocity=105, time=0),
    Message('note_on', channel=9, note=51, velocity=119, time=0),
    Message('note_on', channel=9, note=51, velocity=0, time=1),
    Message('note_on', channel=0, note=81, velocity=0, time=75),
    Message('note_on', channel=0, note=88, velocity=121, time=44),
    Message('note_on', channel=0, note=88, velocity=0, time=107),
    Message('note_on', channel=9, note=38, velocity=125, time=13),
    Message('note_on', channel=12, note=57, velocity=106, time=0),
    Message('note_on', channel=0, note=83, velocity=124, time=0),
    Message('note_on', channel=9, note=51, velocity=124, time=0),
    Message('note_on', channel=12, note=60, velocity=108, time=0),
    Message('note_on', channel=12, note=64, velocity=105, time=0),
    Message('note_on', channel=9, note=51, velocity=0, time=1),
    Message('note_on', channel=9, note=38, velocity=0, time=0),
    Message('control_change', channel=12, control=64, value=127, time=8),
    Message('note_off', channel=12, note=64, velocity=0, time=26),
    Message('note_off', channel=12, note=52, velocity=0, time=5),
    Message('note_off', channel=12, note=60, velocity=0, time=3),
    Message('note_off', channel=12, note=45, velocity=0, time=9),
    Message('note_off', channel=12, note=57, velocity=0, time=5),
    Message('note_off', channel=0, note=83, velocity=0, time=7),
    Message('note_on', channel=12, note=60, velocity=102, time=56),
    Message('note_on', channel=12, note=57, velocity=101, time=0),
    Message('note_on', channel=12, note=64, velocity=102, time=0),
    Message('note_on', channel=12, note=57, velocity=0, time=28),
    Message('note_on', channel=12, note=64, velocity=0, time=8),
    Message('note_on', channel=12, note=60, velocity=0, time=1),
    Message('note_on', channel=12, note=60, velocity=102, time=83),
    Message('note_on', channel=9, note=51, velocity=119, time=0),
    Message('note_on', channel=12, note=57, velocity=102, time=0),
    Message('note_on', channel=0, note=79, velocity=124, time=0),
    Message('note_on', channel=12, note=64, velocity=102, time=0),
    Message('note_on', channel=9, note=51, velocity=0, time=1),
    Message('note_on', channel=5, note=57, velocity=0, time=29),
    Message('note_on', channel=12, note=64, velocity=0, time=5),
    Message('note_on', channel=12, note=60, velocity=0, time=0),
    Message('note_on', channel=12, note=57, velocity=0, time=10),
    Message('note_on', channel=0, note=79, velocity=0, time=3),
    Message('note_on', channel=3, note=33, velocity=0, time=39),
    Message('note_on', channel=2, note=33, velocity=0, time=0),
    Message('note_on', channel=12, note=57, velocity=100, time=33),
    Message('note_on', channel=12, note=64, velocity=101, time=0),
    Message('note_on', channel=2, note=40, velocity=122, time=0),
    Message('note_on', channel=3, note=40, velocity=122, time=0),
    Message('note_on', channel=9, note=36, velocity=126, time=0),
    Message('note_on', channel=12, note=60, velocity=101, time=0),
    Message('note_on', channel=9, note=36, velocity=0, time=1),
    Message('control_change', channel=0, control=64, value=0, time=62),
    Message('note_off', channel=12, note=64, velocity=0, time=46),
    Message('note_off', channel=12, note=60, velocity=0, time=3),
    Message('note_on', channel=3, note=41, velocity=125, time=8),
    Message('note_on', channel=6, note=65, velocity=127, time=0),
    Message('note_on', channel=9, note=36, velocity=126, time=0),
    Message('note_on', channel=9, note=51, velocity=124, time=0),
    Message('note_on', channel=0, note=77, velocity=120, time=0),
    Message('note_on', channel=0, note=53, velocity=120, time=0),
    Message('note_on', channel=2, note=41, velocity=125, time=0),
    Message('note_on', channel=12, note=41, velocity=104, time=0),
    Message('note_on', channel=0, note=84, velocity=117, time=0),
    Message('note_on', channel=9, note=51, velocity=0, time=1),
    Message('note_on', channel=9, note=36, velocity=0, time=0),
    Message('note_on', channel=12, note=57, velocity=0, time=9),
    Message('control_change', channel=0, control=64, value=127, time=15),
    Message('note_off', channel=3, note=40, velocity=0, time=0),
    Message('note_off', channel=2, note=40, velocity=0, time=0),
    Message('note_off', channel=0, note=84, velocity=0, time=7),
    Message('note_off', channel=6, note=64, velocity=0, time=1),
    Message('control_change', channel=12, control=64, value=0, time=116),
    Message('note_off', channel=0, note=77, velocity=0, time=54),
    Message('note_on', channel=12, note=48, velocity=104, time=37),
    Message('note_on', channel=9, note=51, velocity=114, time=0),
    Message('note_on', channel=9, note=51, velocity=0, time=1),
    Message('control_change', channel=12, control=64, value=127, time=28),
    Message('note_on', channel=0, note=60, velocity=119, time=91),
    Message('note_on', channel=12, note=41, velocity=0, time=8),
    Message('note_on', channel=0, note=53, velocity=0, time=50),
    Message('note_on', channel=0, note=60, velocity=0, time=49),
    Message('note_on', channel=0, note=65, velocity=120, time=13),
    Message('note_on', channel=0, note=72, velocity=117, time=0),
    Message('note_on', channel=9, note=51, velocity=119, time=0),
    Message('note_on', channel=12, note=57, velocity=106, time=0),
    Message('note_on', channel=12, note=53, velocity=105, time=0),
    Message('note_on', channel=12, note=60, velocity=104, time=0),
    Message('note_on', channel=9, note=38, velocity=125, time=0),
    Message('note_on', channel=9, note=38, velocity=0, time=1),
    Message('note_on', channel=9, note=51, velocity=0, time=0),
    Message('note_on', channel=12, note=48, velocity=0, time=7),
    Message('note_on', channel=0, note=72, velocity=0, time=17),
    Message('note_on', channel=12, note=60, velocity=0, time=8),
    Message('note_on', channel=12, note=57, velocity=0, time=15),
    Message('note_on', channel=12, note=53, velocity=0, time=11),
    Message('note_on', channel=12, note=57, velocity=101, time=61),
    Message('note_on', channel=12, note=53, velocity=101, time=0),
    Message('note_on', channel=12, note=60, velocity=102, time=0),
    Message('note_on', channel=12, note=57, velocity=0, time=41),
    Message('note_on', channel=12, note=60, velocity=0, time=4),
    Message('note_on', channel=12, note=53, velocity=0, time=14),
    Message('note_on', channel=0, note=65, velocity=0, time=25),
    Message('note_on', channel=3, note=41, velocity=0, time=30),
    Message('note_on', channel=2, note=41, velocity=0, time=0),
    Message('note_on', channel=0, note=69, velocity=122, time=6),
    Message('note_on', channel=12, note=60, velocity=100, time=0),
    Message('note_on', channel=2, note=36, velocity=122, time=0),
    Message('note_on', channel=0, note=65, velocity=112, time=0),
    Message('note_on', channel=12, note=53, velocity=102, time=0),
    Message('note_on', channel=12, note=57, velocity=101, time=0),
    Message('note_on', channel=9, note=51, velocity=114, time=0),
    Message('note_on', channel=3, note=36, velocity=122, time=0),
    Message('note_on', channel=9, note=51, velocity=0, time=1),
    Message('note_on', channel=12, note=60, velocity=0, time=29),
    Message('note_on', channel=12, note=57, velocity=0, time=7),
    Message('note_on', channel=12, note=53, velocity=0, time=11),
    Message('note_on', channel=0, note=65, velocity=0, time=6),
    Message('note_on', channel=12, note=57, velocity=103, time=66),
    Message('note_on', channel=12, note=53, velocity=101, time=0),
    Message('note_on', channel=0, note=69, velocity=0, time=5),
    Message('note_on', channel=12, note=57, velocity=0, time=99),
    Message('note_on', channel=3, note=36, velocity=0, time=3),
    Message('note_on', channel=2, note=36, velocity=0, time=0),
    Message('note_on', channel=12, note=53, velocity=0, time=5),
    Message('note_on', channel=9, note=51, velocity=119, time=8),
    Message('note_on', channel=3, note=29, velocity=125, time=0),
    Message('note_on', channel=12, note=41, velocity=106, time=0),
    Message('note_on', channel=2, note=29, velocity=125, time=0),
    Message('note_on', channel=9, note=36, velocity=126, time=0),
    Message('note_on', channel=9, note=36, velocity=0, time=1),
    Message('note_on', channel=9, note=51, velocity=0, time=0),
    Message('control_change', channel=12, control=64, value=0, time=200),
    Message('note_on', channel=9, note=51, velocity=119, time=39),
    Message('note_on', channel=12, note=48, velocity=106, time=0),
    Message('note_on', channel=9, note=51, velocity=0, time=1),
    Message('pitchwheel', channel=10, pitch=-161, time=7),
    Message('pitchwheel', channel=8, pitch=-161, time=0),
    Message('pitchwheel', channel=7, pitch=-161, time=0),
    Message('pitchwheel', channel=8, pitch=-290, time=4),
    Message('pitchwheel', channel=10, pitch=-290, time=0),
    Message('pitchwheel', channel=7, pitch=-290, time=0),
    Message('pitchwheel', channel=10, pitch=-450, time=4),
    Message('pitchwheel', channel=8, pitch=-450, time=0),
    Message('pitchwheel', channel=7, pitch=-450, time=0),
    Message('pitchwheel', channel=10, pitch=-643, time=5),
    Message('pitchwheel', channel=8, pitch=-643, time=0),
    Message('pitchwheel', channel=7, pitch=-643, time=0),
    Message('pitchwheel', channel=7, pitch=-836, time=4),
    Message('control_change', channel=12, control=64, value=127, time=0),
    Message('pitchwheel', channel=8, pitch=-836, time=0),
    Message('pitchwheel', channel=10, pitch=-836, time=0),
    Message('pitchwheel', channel=7, pitch=-1221, time=5),
    Message('pitchwheel', channel=8, pitch=-1221, time=0),
    Message('pitchwheel', channel=10, pitch=-1221, time=0),
    Message('pitchwheel', channel=8, pitch=-1382, time=3),
    Message('pitchwheel', channel=7, pitch=-1382, time=0),
    Message('pitchwheel', channel=10, pitch=-1382, time=0),
    Message('pitchwheel', channel=7, pitch=-1575, time=6),
    Message('pitchwheel', channel=10, pitch=-1575, time=0),
    Message('pitchwheel', channel=8, pitch=-1575, time=0),
    Message('pitchwheel', channel=8, pitch=-1800, time=3),
    Message('pitchwheel', channel=10, pitch=-1800, time=0),
    Message('pitchwheel', channel=7, pitch=-1800, time=0),
    Message('pitchwheel', channel=7, pitch=-2089, time=4),
    Message('pitchwheel', channel=10, pitch=-2089, time=0),
    Message('pitchwheel', channel=8, pitch=-2089, time=0),
    Message('pitchwheel', channel=10, pitch=-2346, time=5),
    Message('pitchwheel', channel=7, pitch=-2346, time=0),
    Message('pitchwheel', channel=8, pitch=-2346, time=0),
    Message('pitchwheel', channel=10, pitch=-2603, time=4),
    Message('pitchwheel', channel=8, pitch=-2603, time=0),
    Message('pitchwheel', channel=7, pitch=-2603, time=0),
    Message('pitchwheel', channel=10, pitch=-2828, time=5),
    Message('pitchwheel', channel=8, pitch=-2828, time=0),
    Message('pitchwheel', channel=7, pitch=-2828, time=0),
    Message('pitchwheel', channel=10, pitch=-3149, time=4),
    Message('pitchwheel', channel=7, pitch=-3149, time=0),
    Message('pitchwheel', channel=8, pitch=-3149, time=0),
    Message('pitchwheel', channel=7, pitch=-3438, time=5),
    Message('pitchwheel', channel=10, pitch=-3438, time=0),
    Message('pitchwheel', channel=8, pitch=-3438, time=0),
    Message('pitchwheel', channel=7, pitch=-3663, time=4),
    Message('pitchwheel', channel=8, pitch=-3663, time=0),
    Message('pitchwheel', channel=10, pitch=-3663, time=0),
    Message('pitchwheel', channel=7, pitch=-3952, time=5),
    Message('pitchwheel', channel=8, pitch=-3952, time=0),
    Message('pitchwheel', channel=10, pitch=-3952, time=0),
    Message('pitchwheel', channel=7, pitch=-4337, time=4),
    Message('pitchwheel', channel=8, pitch=-4337, time=0),
    Message('pitchwheel', channel=10, pitch=-4337, time=0),
    Message('pitchwheel', channel=7, pitch=-4659, time=5),
    Message('pitchwheel', channel=10, pitch=-4659, time=0),
    Message('pitchwheel', channel=8, pitch=-4659, time=0),
    Message('pitchwheel', channel=7, pitch=-5012, time=4),
    Message('pitchwheel', channel=8, pitch=-5012, time=0),
    Message('pitchwheel', channel=10, pitch=-5012, time=0),
    Message('pitchwheel', channel=7, pitch=-5205, time=5),
    Message('pitchwheel', channel=8, pitch=-5205, time=0),
    Message('pitchwheel', channel=10, pitch=-5205, time=0),
    Message('pitchwheel', channel=7, pitch=-5655, time=4),
    Message('pitchwheel', channel=8, pitch=-5655, time=0),
    Message('pitchwheel', channel=10, pitch=-5655, time=0),
    Message('pitchwheel', channel=7, pitch=-6361, time=5),
    Message('pitchwheel', channel=10, pitch=-6361, time=0),
    Message('pitchwheel', channel=8, pitch=-6361, time=0),
    Message('pitchwheel', channel=8, pitch=-6940, time=3),
    Message('pitchwheel', channel=10, pitch=-6940, time=0),
    Message('pitchwheel', channel=7, pitch=-6940, time=0),
    Message('pitchwheel', channel=7, pitch=-7582, time=4),
    Message('pitchwheel', channel=8, pitch=-7582, time=0),
    Message('pitchwheel', channel=10, pitch=-7582, time=0),
    Message('pitchwheel', channel=10, pitch=-8160, time=5),
    Message('pitchwheel', channel=7, pitch=-8160, time=0),
    Message('pitchwheel', channel=8, pitch=-8160, time=0),
    Message('note_on', channel=0, note=53, velocity=119, time=3),
    Message('pitchwheel', channel=7, pitch=-8192, time=3),
    Message('pitchwheel', channel=10, pitch=-8192, time=0),
    Message('pitchwheel', channel=8, pitch=-8192, time=0),
    Message('control_change', channel=0, control=64, value=0, time=34),
    Message('control_change', channel=0, control=64, value=127, time=74),
    Message('note_on', channel=12, note=60, velocity=105, time=9),
    Message('note_on', channel=12, note=53, velocity=106, time=0),
    Message('note_on', channel=9, note=38, velocity=125, time=0),
    Message('note_on', channel=9, note=51, velocity=119, time=0),
    Message('note_on', channel=12, note=57, velocity=108, time=0),
    Message('note_on', channel=7, note=69, velocity=126, time=0),
    Message('note_on', channel=0, note=65, velocity=121, time=0),
    Message('note_on', channel=8, note=69, velocity=126, time=0),
    Message('note_on', channel=10, note=69, velocity=126, time=0),
    Message('note_on', channel=9, note=51, velocity=0, time=1),
    Message('note_on', channel=9, note=38, velocity=0, time=0),
    Message('note_on', channel=12, note=41, velocity=0, time=11),
    Message('note_on', channel=0, note=53, velocity=0, time=13),
    Message('note_on', channel=12, note=60, velocity=0, time=7),
    Message('note_on', channel=12, note=57, velocity=0, time=4),
    Message('note_on', channel=12, note=53, velocity=0, time=17),
    Message('note_on', channel=12, note=48, velocity=0, time=0),
    Message('note_on', channel=12, note=60, velocity=103, time=67),
    Message('note_on', channel=0, note=69, velocity=121, time=0),
    Message('note_on', channel=12, note=53, velocity=102, time=0),
    Message('note_on', channel=12, note=57, velocity=103, time=0),
    Message('note_on', channel=12, note=60, velocity=0, time=36),
    Message('note_on', channel=12, note=57, velocity=0, time=1),
    Message('pitchwheel', channel=7, pitch=-8160, time=6),
    Message('pitchwheel', channel=10, pitch=-8160, time=0),
    Message('pitchwheel', channel=8, pitch=-8160, time=0),
    Message('note_off', channel=12, note=53, velocity=0, time=2),
    Message('pitchwheel', channel=8, pitch=-7968, time=3),
    Message('pitchwheel', channel=7, pitch=-7968, time=0),
    Message('pitchwheel', channel=10, pitch=-7968, time=0),
    Message('pitchwheel', channel=8, pitch=-7518, time=4),
    Message('pitchwheel', channel=10, pitch=-7518, time=0),
    Message('pitchwheel', channel=7, pitch=-7518, time=0),
    Message('pitchwheel', channel=8, pitch=-7197, time=5),
    Message('pitchwheel', channel=10, pitch=-7197, time=0),
    Message('pitchwheel', channel=7, pitch=-7197, time=0),
    Message('note_off', channel=0, note=69, velocity=0, time=1),
    Message('pitchwheel', channel=8, pitch=-6875, time=3),
    Message('pitchwheel', channel=7, pitch=-6875, time=0),
    Message('pitchwheel', channel=10, pitch=-6875, time=0),
    Message('pitchwheel', channel=7, pitch=-6426, time=5),
    Message('pitchwheel', channel=8, pitch=-6426, time=0),
    Message('pitchwheel', channel=10, pitch=-6426, time=0),
    Message('pitchwheel', channel=10, pitch=-5847, time=4),
    Message('pitchwheel', channel=8, pitch=-5847, time=0),
    Message('pitchwheel', channel=7, pitch=-5847, time=0),
    Message('pitchwheel', channel=7, pitch=-5398, time=5),
    Message('pitchwheel', channel=8, pitch=-5398, time=0),
    Message('pitchwheel', channel=10, pitch=-5398, time=0),
    Message('pitchwheel', channel=8, pitch=-5205, time=4),
    Message('pitchwheel', channel=7, pitch=-5205, time=0),
    Message('pitchwheel', channel=10, pitch=-5205, time=0),
    Message('note_off', channel=0, note=65, velocity=0, time=1),
    Message('pitchwheel', channel=7, pitch=-5012, time=4),
    Message('pitchwheel', channel=10, pitch=-5012, time=0),
    Message('pitchwheel', channel=8, pitch=-5012, time=0),
    Message('pitchwheel', channel=7, pitch=-4755, time=4),
    Message('pitchwheel', channel=8, pitch=-4755, time=0),
    Message('pitchwheel', channel=10, pitch=-4755, time=0),
    Message('pitchwheel', channel=8, pitch=-4562, time=5),
    Message('pitchwheel', channel=10, pitch=-4562, time=0),
    Message('pitchwheel', channel=7, pitch=-4562, time=0),
    Message('pitchwheel', channel=8, pitch=-4370, time=4),
    Message('pitchwheel', channel=10, pitch=-4370, time=0),
    Message('pitchwheel', channel=7, pitch=-4370, time=0),
    Message('pitchwheel', channel=7, pitch=-4177, time=3),
    Message('pitchwheel', channel=8, pitch=-4177, time=0),
    Message('pitchwheel', channel=10, pitch=-4177, time=0),
    Message('pitchwheel', channel=8, pitch=-3920, time=5),
    Message('pitchwheel', channel=10, pitch=-3920, time=0),
    Message('pitchwheel', channel=7, pitch=-3920, time=0),
    Message('pitchwheel', channel=8, pitch=-3759, time=4),
    Message('pitchwheel', channel=7, pitch=-3759, time=0),
    Message('pitchwheel', channel=10, pitch=-3759, time=0),
    Message('pitchwheel', channel=10, pitch=-3566, time=5),
    Message('pitchwheel', channel=8, pitch=-3566, time=0),
    Message('pitchwheel', channel=7, pitch=-3566, time=0),
    Message('pitchwheel', channel=7, pitch=-3438, time=4),
    Message('pitchwheel', channel=10, pitch=-3438, time=0),
    Message('pitchwheel', channel=8, pitch=-3438, time=0),
    Message('note_on', channel=0, note=65, velocity=112, time=2),
    Message('note_on', channel=12, note=53, velocity=102, time=0),
    Message('note_on', channel=0, note=72, velocity=124, time=0),
    Message('note_on', channel=12, note=57, velocity=102, time=0),
    Message('note_on', channel=12, note=60, velocity=102, time=0),
    Message('note_on', channel=9, note=51, velocity=119, time=0),
    Message('note_on', channel=9, note=51, velocity=0, time=1),
    Message('pitchwheel', channel=8, pitch=-3277, time=4),
    Message('pitchwheel', channel=10, pitch=-3277, time=0),
    Message('pitchwheel', channel=7, pitch=-3277, time=0),
    Message('note_off', channel=0, note=65, velocity=0, time=4),
    Message('pitchwheel', channel=7, pitch=-2860, time=5),
    Message('pitchwheel', channel=8, pitch=-2860, time=0),
    Message('pitchwheel', channel=10, pitch=-2860, time=0),
    Message('pitchwheel', channel=8, pitch=-2763, time=2),
    Message('pitchwheel', channel=7, pitch=-2763, time=0),
    Message('pitchwheel', channel=10, pitch=-2763, time=0),
    Message('pitchwheel', channel=10, pitch=-2667, time=5),
    Message('pitchwheel', channel=8, pitch=-2667, time=0),
    Message('pitchwheel', channel=7, pitch=-2667, time=0),
    Message('pitchwheel', channel=10, pitch=-2506, time=4),
    Message('pitchwheel', channel=8, pitch=-2506, time=0),
    Message('pitchwheel', channel=7, pitch=-2506, time=0),
    Message('pitchwheel', channel=7, pitch=-2442, time=5),
    Message('pitchwheel', channel=10, pitch=-2442, time=0),
    Message('pitchwheel', channel=8, pitch=-2442, time=0),
    Message('pitchwheel', channel=10, pitch=-2378, time=4),
    Message('pitchwheel', channel=8, pitch=-2378, time=0),
    Message('pitchwheel', channel=7, pitch=-2378, time=0),
    Message('note_off', channel=12, note=60, velocity=0, time=0),
    Message('pitchwheel', channel=7, pitch=-2281, time=3),
    Message('pitchwheel', channel=10, pitch=-2281, time=0),
    Message('pitchwheel', channel=8, pitch=-2281, time=0),
    Message('pitchwheel', channel=8, pitch=-2185, time=6),
    Message('pitchwheel', channel=7, pitch=-2185, time=0),
    Message('pitchwheel', channel=10, pitch=-2185, time=0),
    Message('note_off', channel=12, note=57, velocity=0, time=2),
    Message('pitchwheel', channel=10, pitch=-2057, time=3),
    Message('pitchwheel', channel=8, pitch=-2057, time=0),
    Message('pitchwheel', channel=7, pitch=-2057, time=0),
    Message('note_off', channel=12, note=53, velocity=0, time=0),
    Message('pitchwheel', channel=10, pitch=-1864, time=4),
    Message('pitchwheel', channel=8, pitch=-1864, time=0),
    Message('pitchwheel', channel=7, pitch=-1864, time=0),
    Message('note_off', channel=0, note=72, velocity=0, time=1),
    Message('pitchwheel', channel=10, pitch=-1735, time=2),
    Message('pitchwheel', channel=7, pitch=-1735, time=0),
    Message('pitchwheel', channel=8, pitch=-1735, time=0),
    Message('pitchwheel', channel=8, pitch=-1510, time=5),
    Message('pitchwheel', channel=10, pitch=-1510, time=0),
    Message('pitchwheel', channel=7, pitch=-1510, time=0),
    Message('pitchwheel', channel=10, pitch=-1382, time=4),
    Message('pitchwheel', channel=7, pitch=-1382, time=0),
    Message('pitchwheel', channel=8, pitch=-1382, time=0),
    Message('pitchwheel', channel=10, pitch=-1286, time=5),
    Message('pitchwheel', channel=8, pitch=-1286, time=0),
    Message('pitchwheel', channel=7, pitch=-1286, time=0),
    Message('pitchwheel', channel=10, pitch=-900, time=4),
    Message('pitchwheel', channel=8, pitch=-900, time=0),
    Message('pitchwheel', channel=7, pitch=-900, time=0),
    Message('note_off', channel=2, note=29, velocity=0, time=1),
    Message('note_off', channel=3, note=29, velocity=0, time=0),
    Message('pitchwheel', channel=8, pitch=-707, time=4),
    Message('pitchwheel', channel=10, pitch=-707, time=0),
    Message('pitchwheel', channel=7, pitch=-707, time=0),
    Message('pitchwheel', channel=10, pitch=-450, time=4),
    Message('pitchwheel', channel=8, pitch=-450, time=0),
    Message('pitchwheel', channel=7, pitch=-450, time=0),
    Message('pitchwheel', channel=8, pitch=-258, time=5),
    Message('pitchwheel', channel=10, pitch=-258, time=0),
    Message('pitchwheel', channel=7, pitch=-258, time=0),
    Message('pitchwheel', channel=10, pitch=0, time=4),
    Message('pitchwheel', channel=7, pitch=0, time=0),
    Message('pitchwheel', channel=8, pitch=0, time=0),
    Message('note_on', channel=12, note=57, velocity=102, time=29),
    Message('note_on', channel=9, note=36, velocity=125, time=0),
    Message('note_on', channel=12, note=53, velocity=102, time=0),
    Message('note_on', channel=12, note=60, velocity=102, time=0),
    Message('note_on', channel=9, note=36, velocity=0, time=1),
    Message('note_on', channel=6, note=65, velocity=0, time=12),
    Message('control_change', channel=1, control=64, value=0, time=54),
    Message('control_change', channel=0, control=64, value=0, time=0),
    Message('note_off', channel=10, note=69, velocity=0, time=3),
    Message('note_off', channel=8, note=69, velocity=0, time=0),
    Message('note_off', channel=7, note=69, velocity=0, time=0),
    Message('note_off', channel=12, note=53, velocity=0, time=37),
    Message('control_change', channel=12, control=64, value=0, time=11),
    Message('note_on', channel=2, note=31, velocity=125, time=2),
    Message('note_on', channel=8, note=67, velocity=126, time=0),
    Message('note_on', channel=3, note=31, velocity=125, time=0),
    Message('note_on', channel=10, note=67, velocity=126, time=0),
    Message('note_on', channel=9, note=51, velocity=124, time=0),
    Message('note_on', channel=9, note=36, velocity=126, time=0),
    Message('note_on', channel=7, note=67, velocity=126, time=0),
    Message('note_on', channel=9, note=36, velocity=0, time=1),
    Message('note_on', channel=9, note=51, velocity=0, time=0),
    Message('note_on', channel=12, note=57, velocity=0, time=0),
    Message('note_on', channel=12, note=60, velocity=0, time=4),
    Message('note_on', channel=3, note=31, velocity=0, time=639),
    Message('note_on', channel=2, note=31, velocity=0, time=0),
    Message('note_on', channel=7, note=67, velocity=0, time=252),
    Message('note_on', channel=8, note=67, velocity=0, time=0),
    Message('note_on', channel=10, note=67, velocity=0, time=0),
    Message('note_on', channel=9, note=51, velocity=89, time=904),
    Message('note_on', channel=9, note=51, velocity=0, time=1),
    Message('note_on', channel=11, note=67, velocity=112, time=119),
    Message('note_on', channel=12, note=48, velocity=108, time=0),
    Message('note_on', channel=2, note=36, velocity=126, time=0),
    Message('note_on', channel=11, note=60, velocity=114, time=0),
    Message('note_on', channel=1, note=48, velocity=118, time=0),
    Message('note_on', channel=0, note=55, velocity=119, time=0),
    Message('note_on', channel=0, note=52, velocity=116, time=0),
    Message('note_on', channel=1, note=36, velocity=116, time=0),
    Message('note_on', channel=3, note=36, velocity=126, time=0),
    Message('note_on', channel=11, note=64, velocity=113, time=0),
    Message('note_on', channel=9, note=51, velocity=124, time=0),
    Message('note_on', channel=11, note=36, velocity=119, time=0),
    Message('note_on', channel=9, note=51, velocity=0, time=1),
    Message('note_on', channel=0, note=52, velocity=0, time=8),
    Message('control_change', channel=1, control=64, value=127, time=43),
    Message('control_change', channel=0, control=64, value=127, time=0),
    Message('note_on', channel=12, note=60, velocity=103, time=188),
    Message('note_on', channel=12, note=64, velocity=104, time=0),
    Message('note_on', channel=1, note=43, velocity=115, time=0),
    Message('note_on', channel=12, note=67, velocity=101, time=0),
    Message('control_change', channel=12, control=64, value=127, time=8),
    Message('pitchwheel', channel=5, pitch=-322, time=19),
    Message('control_change', channel=11, control=64, value=127, time=2),
    Message('pitchwheel', channel=5, pitch=-707, time=1),
    Message('pitchwheel', channel=5, pitch=-1157, time=4),
    Message('pitchwheel', channel=5, pitch=-1446, time=3),
    Message('pitchwheel', channel=5, pitch=-1832, time=5),
    Message('pitchwheel', channel=5, pitch=-2217, time=3),
    Message('pitchwheel', channel=5, pitch=-2538, time=5),
    Message('pitchwheel', channel=5, pitch=-2860, time=3),
    Message('pitchwheel', channel=5, pitch=-3342, time=4),
    Message('pitchwheel', channel=5, pitch=-3663, time=3),
    Message('note_off', channel=1, note=48, velocity=0, time=3),
    Message('pitchwheel', channel=5, pitch=-4080, time=2),
    Message('pitchwheel', channel=5, pitch=-4498, time=3),
    Message('pitchwheel', channel=5, pitch=-4948, time=4),
    Message('pitchwheel', channel=5, pitch=-5237, time=3),
    Message('pitchwheel', channel=5, pitch=-5976, time=5),
    Message('pitchwheel', channel=5, pitch=-6811, time=3),
    Message('pitchwheel', channel=5, pitch=-7518, time=3),
    Message('note_off', channel=12, note=67, velocity=0, time=0),
    Message('pitchwheel', channel=5, pitch=-8192, time=4),
    Message('note_off', channel=0, note=55, velocity=0, time=4),
    Message('note_off', channel=12, note=64, velocity=0, time=10),
    Message('note_off', channel=12, note=60, velocity=0, time=10),
    Message('note_off', channel=1, note=36, velocity=0, time=37),
    Message('note_on', channel=0, note=55, velocity=118, time=89),
    Message('note_on', channel=12, note=60, velocity=104, time=0),
    Message('note_on', channel=5, note=64, velocity=120, time=0),
    Message('note_on', channel=12, note=67, velocity=104, time=0),
    Message('note_on', channel=1, note=48, velocity=116, time=0),
    Message('note_on', channel=12, note=64, velocity=105, time=0),
    Message('note_on', channel=1, note=43, velocity=0, time=28),
    Message('note_on', channel=1, note=48, velocity=0, time=11),
    Message('note_on', channel=12, note=67, velocity=0, time=5),
    Message('note_on', channel=12, note=60, velocity=0, time=2),
    Message('control_change', channel=11, control=64, value=0, time=2),
    Message('note_off', channel=12, note=64, velocity=0, time=6),
    Message('note_off', channel=0, note=55, velocity=0, time=19),
    Message('pitchwheel', channel=5, pitch=-8160, time=11),
    Message('pitchwheel', channel=5, pitch=-7711, time=5),
    Message('pitchwheel', channel=5, pitch=-7325, time=3),
    Message('pitchwheel', channel=5, pitch=-6940, time=3),
    Message('pitchwheel', channel=5, pitch=-6426, time=5),
    Message('pitchwheel', channel=5, pitch=-5847, time=4),
    Message('pitchwheel', channel=5, pitch=-5365, time=3),
    Message('note_off', channel=12, note=48, velocity=0, time=1),
    Message('pitchwheel', channel=5, pitch=-5141, time=4),
    Message('pitchwheel', channel=5, pitch=-4980, time=3),
    Message('pitchwheel', channel=5, pitch=-4691, time=3),
    Message('note_on', channel=12, note=67, velocity=101, time=2),
    Message('note_on', channel=12, note=64, velocity=102, time=0),
    Message('note_on', channel=12, note=60, velocity=100, time=0),
    Message('pitchwheel', channel=5, pitch=-4370, time=1),
    Message('pitchwheel', channel=5, pitch=-4080, time=4),
    Message('pitchwheel', channel=5, pitch=-3727, time=6),
    Message('pitchwheel', channel=5, pitch=-3406, time=3),
    Message('pitchwheel', channel=5, pitch=-2924, time=3),
    Message('pitchwheel', channel=5, pitch=-2506, time=3),
    Message('pitchwheel', channel=5, pitch=-2024, time=5),
    Message('pitchwheel', channel=5, pitch=-1446, time=3),
    Message('note_off', channel=12, note=67, velocity=0, time=2),
    Message('pitchwheel', channel=5, pitch=-739, time=1),
    Message('pitchwheel', channel=5, pitch=-225, time=4),
    Message('note_off', channel=12, note=60, velocity=0, time=1),
    Message('pitchwheel', channel=5, pitch=0, time=4),
    Message('note_off', channel=12, note=64, velocity=0, time=6),
    Message('note_on', channel=5, note=67, velocity=115, time=74),
    Message('note_on', channel=12, note=67, velocity=101, time=0),
    Message('note_on', channel=12, note=60, velocity=101, time=0),
    Message('note_on', channel=12, note=64, velocity=102, time=0),
    Message('note_on', channel=12, note=67, velocity=0, time=30),
    Message('note_on', channel=5, note=64, velocity=0, time=2),
    Message('note_on', channel=12, note=60, velocity=0, time=5),
    Message('note_on', channel=12, note=64, velocity=0, time=6),
    Message('note_on', channel=12, note=60, velocity=100, time=77),
    Message('note_on', channel=12, note=64, velocity=102, time=0),
    Message('note_on', channel=5, note=64, velocity=117, time=0),
    Message('note_on', channel=12, note=67, velocity=101, time=0),
    Message('note_on', channel=5, note=67, velocity=0, time=1),
    Message('control_change', channel=11, control=64, value=127, time=46),
    Message('pitchwheel', channel=5, pitch=-161, time=32),
    Message('pitchwheel', channel=5, pitch=-418, time=3),
    Message('pitchwheel', channel=5, pitch=-643, time=3),
    Message('pitchwheel', channel=5, pitch=-900, time=5),
    Message('pitchwheel', channel=5, pitch=-1286, time=3),
    Message('pitchwheel', channel=5, pitch=-1543, time=5),
    Message('pitchwheel', channel=5, pitch=-1864, time=3),
    Message('pitchwheel', channel=5, pitch=-2217, time=4),
    Message('pitchwheel', channel=5, pitch=-2538, time=3),
    Message('pitchwheel', channel=5, pitch=-2828, time=5),
    Message('pitchwheel', channel=5, pitch=-3213, time=3),
    Message('pitchwheel', channel=5, pitch=-3470, time=3),
    Message('note_on', channel=12, note=48, velocity=107, time=1),
    Message('pitchwheel', channel=5, pitch=-3695, time=5),
    Message('pitchwheel', channel=5, pitch=-3920, time=1),
    Message('pitchwheel', channel=5, pitch=-4177, time=5),
    Message('pitchwheel', channel=5, pitch=-4337, time=4),
    Message('pitchwheel', channel=5, pitch=-4530, time=3),
    Message('note_off', channel=12, note=67, velocity=0, time=3),
    Message('pitchwheel', channel=5, pitch=-4659, time=2),
    Message('pitchwheel', channel=5, pitch=-4755, time=3),
    Message('pitchwheel', channel=5, pitch=-4916, time=3),
    Message('pitchwheel', channel=5, pitch=-5012, time=4),
    Message('pitchwheel', channel=5, pitch=-5076, time=3),
    Message('note_off', channel=12, note=64, velocity=0, time=2),
    Message('pitchwheel', channel=5, pitch=-5141, time=3),
    Message('note_off', channel=12, note=60, velocity=0, time=2),
    Message('pitchwheel', channel=5, pitch=-5237, time=1),
    Message('pitchwheel', channel=5, pitch=-5269, time=5),
    Message('pitchwheel', channel=5, pitch=-5333, time=3),
    Message('pitchwheel', channel=5, pitch=-5462, time=4),
    Message('pitchwheel', channel=5, pitch=-5719, time=3),
    Message('pitchwheel', channel=5, pitch=-5912, time=3),
    Message('pitchwheel', channel=5, pitch=-6361, time=5),
    Message('pitchwheel', channel=5, pitch=-6490, time=3),
    Message('pitchwheel', channel=5, pitch=-6683, time=4),
    Message('pitchwheel', channel=5, pitch=-6875, time=3),
    Message('pitchwheel', channel=5, pitch=-7132, time=5),
    Message('pitchwheel', channel=5, pitch=-7261, time=3),
    Message('pitchwheel', channel=5, pitch=-7518, time=4),
    Message('pitchwheel', channel=5, pitch=-7711, time=3),
    Message('pitchwheel', channel=5, pitch=-8032, time=5),
    Message('pitchwheel', channel=5, pitch=-8160, time=3),
    Message('pitchwheel', channel=5, pitch=-8192, time=4),
    Message('note_off', channel=11, note=67, velocity=0, time=39),
    Message('note_off', channel=11, note=60, velocity=0, time=7),
    Message('note_off', channel=11, note=64, velocity=0, time=0),
    Message('note_on', channel=5, note=62, velocity=115, time=90),
    Message('note_on', channel=12, note=64, velocity=106, time=0),
    Message('note_on', channel=12, note=60, velocity=104, time=0),
    Message('note_on', channel=12, note=67, velocity=103, time=0),
    Message('note_on', channel=5, note=64, velocity=0, time=15),
    Message('control_change', channel=12, control=64, value=0, time=16),
    Message('control_change', channel=12, control=64, value=127, time=70),
    Message('note_on', channel=1, note=36, velocity=117, time=19),
    Message('note_on', channel=12, note=67, velocity=0, time=0),
    Message('note_on', channel=12, note=64, velocity=0, time=12),
    Message('control_change', channel=0, control=64, value=0, time=9),
    Message('control_change', channel=1, control=64, value=0, time=0),
    Message('note_off', channel=12, note=60, velocity=0, time=4),
    Message('note_off', channel=11, note=36, velocity=0, time=12),
    Message('control_change', channel=0, control=64, value=127, time=67),
    Message('control_change', channel=1, control=64, value=127, time=0),
    Message('note_on', channel=12, note=60, velocity=102, time=16),
    Message('note_on', channel=11, note=76, velocity=118, time=0),
    Message('note_on', channel=1, note=43, velocity=114, time=0),
    Message('note_on', channel=11, note=72, velocity=116, time=0),
    Message('note_on', channel=12, note=64, velocity=103, time=0),
    Message('note_on', channel=12, note=67, velocity=101, time=0),
    Message('note_on', channel=12, note=67, velocity=0, time=40),
    Message('note_on', channel=12, note=64, velocity=0, time=6),
    Message('note_on', channel=11, note=76, velocity=0, time=4),
    Message('note_on', channel=12, note=60, velocity=0, time=0),
    Message('note_on', channel=11, note=72, velocity=0, time=8),
    Message('note_on', channel=1, note=36, velocity=0, time=36),
    Message('note_on', channel=0, note=62, velocity=119, time=26),
    Message('note_on', channel=12, note=64, velocity=102, time=0),
    Message('note_on', channel=12, note=67, velocity=101, time=0),
    Message('note_on', channel=12, note=60, velocity=102, time=0),
    Message('note_on', channel=12, note=67, velocity=0, time=18),
    Message('note_on', channel=12, note=64, velocity=0, time=10),
    Message('note_on', channel=1, note=43, velocity=0, time=7),
    Message('note_on', channel=12, note=60, velocity=0, time=4),
    Message('note_on', channel=12, note=67, velocity=103, time=81),
    Message('note_on', channel=12, note=64, velocity=103, time=0),
    Message('note_on', channel=0, note=67, velocity=119, time=0),
    Message('note_on', channel=5, note=57, velocity=118, time=0),
    Message('note_on', channel=12, note=60, velocity=102, time=0),
    Message('note_on', channel=5, note=62, velocity=0, time=13),
    Message('note_on', channel=12, note=67, velocity=0, time=26),
    Message('note_on', channel=0, note=62, velocity=0, time=3),
    Message('note_on', channel=12, note=64, velocity=0, time=1),
    Message('note_on', channel=12, note=60, velocity=0, time=9),
    Message('pitchwheel', channel=5, pitch=-7839, time=29),
    Message('pitchwheel', channel=5, pitch=-6683, time=3),
    Message('pitchwheel', channel=5, pitch=-5301, time=4),
    Message('pitchwheel', channel=5, pitch=-4691, time=3),
    Message('note_off', channel=12, note=48, velocity=0, time=3),
    Message('pitchwheel', channel=5, pitch=-3888, time=2),
    Message('pitchwheel', channel=5, pitch=-3181, time=3),
    Message('pitchwheel', channel=5, pitch=-2346, time=3),
    Message('pitchwheel', channel=5, pitch=-1510, time=4),
    Message('pitchwheel', channel=5, pitch=-675, time=3),
    Message('pitchwheel', channel=5, pitch=0, time=5),
    Message('note_on', channel=12, note=67, velocity=101, time=6),
    Message('note_on', channel=12, note=64, velocity=103, time=0),
    Message('note_on', channel=0, note=60, velocity=119, time=0),
    Message('note_on', channel=12, note=60, velocity=102, time=0),
    Message('note_on', channel=0, note=67, velocity=0, time=3),
    Message('note_on', channel=0, note=60, velocity=0, time=60),
    Message('control_change', channel=0, control=64, value=0, time=29),
    Message('control_change', channel=1, control=64, value=0, time=0),
    Message('note_off', channel=12, note=67, velocity=0, time=20),
    Message('pitchwheel', channel=5, pitch=-193, time=4),
    Message('pitchwheel', channel=5, pitch=-611, time=3),
    Message('note_on', channel=11, note=64, velocity=115, time=1),
    Message('note_on', channel=1, note=36, velocity=118, time=0),
    Message('note_on', channel=11, note=67, velocity=113, time=0),
    Message('note_on', channel=12, note=48, velocity=106, time=0),
    Message('note_on', channel=11, note=60, velocity=112, time=0),
    Message('note_on', channel=11, note=36, velocity=113, time=0),
    Message('pitchwheel', channel=5, pitch=-996, time=5),
    Message('pitchwheel', channel=5, pitch=-1382, time=3),
    Message('pitchwheel', channel=5, pitch=-1735, time=3),
    Message('note_off', channel=12, note=64, velocity=0, time=1),
    Message('pitchwheel', channel=5, pitch=-2057, time=4),
    Message('pitchwheel', channel=5, pitch=-2346, time=3),
    Message('note_off', channel=12, note=60, velocity=0, time=2),
    Message('pitchwheel', channel=5, pitch=-2538, time=1),
    Message('pitchwheel', channel=5, pitch=-2731, time=5),
    Message('pitchwheel', channel=5, pitch=-2860, time=3),
    Message('pitchwheel', channel=5, pitch=-3052, time=4),
    Message('pitchwheel', channel=5, pitch=-3245, time=3),
    Message('pitchwheel', channel=5, pitch=-3342, time=5),
    Message('control_change', channel=0, control=64, value=127, time=2),
    Message('control_change', channel=1, control=64, value=127, time=0),
    Message('pitchwheel', channel=5, pitch=-3470, time=1),
    Message('pitchwheel', channel=5, pitch=-3599, time=4),
    Message('pitchwheel', channel=5, pitch=-3759, time=3),
    Message('pitchwheel', channel=5, pitch=-3920, time=3),
    Message('pitchwheel', channel=5, pitch=-4209, time=5),
    Message('control_change', channel=11, control=64, value=0, time=0),
    Message('pitchwheel', channel=5, pitch=-4370, time=3),
    Message('pitchwheel', channel=5, pitch=-4594, time=4),
    Message('pitchwheel', channel=5, pitch=-4851, time=5),
    Message('pitchwheel', channel=5, pitch=-5108, time=3),
    Message('pitchwheel', channel=5, pitch=-5301, time=3),
    Message('pitchwheel', channel=5, pitch=-5847, time=4),
    Message('pitchwheel', channel=5, pitch=-6490, time=3),
    Message('pitchwheel', channel=5, pitch=-7132, time=5),
    Message('pitchwheel', channel=5, pitch=-7711, time=3),
    Message('pitchwheel', channel=5, pitch=-8192, time=5),
    Message('control_change', channel=12, control=64, value=0, time=109),
    Message('control_change', channel=11, control=64, value=127, time=24),
    Message('note_on', channel=12, note=60, velocity=104, time=9),
    Message('note_on', channel=1, note=43, velocity=116, time=0),
    Message('note_on', channel=12, note=64, velocity=106, time=0),
    Message('note_on', channel=12, note=67, velocity=103, time=0),
    Message('control_change', channel=12, control=64, value=127, time=12),
    Message('note_off', channel=1, note=36, velocity=0, time=39),
    Message('note_off', channel=5, note=57, velocity=0, time=13),
    Message('note_off', channel=12, note=67, velocity=0, time=41),
    Message('note_off', channel=12, note=60, velocity=0, time=12),
    Message('note_off', channel=12, note=64, velocity=0, time=1),
    Message('note_on', channel=5, note=62, velocity=117, time=2),
    Message('note_on', channel=1, note=43, velocity=0, time=55),
    Message('note_on', channel=5, note=62, velocity=0, time=5),
    Message('note_on', channel=12, note=67, velocity=102, time=60),
    Message('note_on', channel=0, note=55, velocity=117, time=0),
    Message('note_on', channel=12, note=60, velocity=104, time=0),
    Message('note_on', channel=1, note=48, velocity=116, time=0),
    Message('note_on', channel=5, note=64, velocity=119, time=0),
    Message('note_on', channel=12, note=64, velocity=105, time=0),
    Message('note_on', channel=12, note=67, velocity=0, time=30),
    Message('note_on', channel=12, note=64, velocity=0, time=15),
    Message('note_on', channel=12, note=60, velocity=0, time=3),
    Message('note_on', channel=11, note=64, velocity=0, time=0),
    Message('note_on', channel=11, note=67, velocity=0, time=1),
    Message('note_on', channel=11, note=60, velocity=0, time=0),
    Message('note_on', channel=12, note=64, velocity=101, time=71),
    Message('note_on', channel=12, note=60, velocity=101, time=0),
    Message('pitchwheel', channel=5, pitch=-7582, time=32),
    Message('note_off', channel=12, note=64, velocity=0, time=0),
    Message('pitchwheel', channel=5, pitch=-6747, time=5),
    Message('pitchwheel', channel=5, pitch=-5655, time=4),
    Message('note_off', channel=12, note=60, velocity=0, time=2),
    Message('pitchwheel', channel=5, pitch=-5044, time=1),
    Message('pitchwheel', channel=5, pitch=-4434, time=3),
    Message('pitchwheel', channel=5, pitch=-3759, time=5),
    Message('pitchwheel', channel=5, pitch=-2956, time=3),
    Message('pitchwheel', channel=5, pitch=-2185, time=4),
    Message('pitchwheel', channel=5, pitch=-1382, time=3),
    Message('pitchwheel', channel=5, pitch=-450, time=5),
    Message('note_off', channel=11, note=36, velocity=0, time=2),
    Message('pitchwheel', channel=5, pitch=0, time=1),
    Message('note_on', channel=12, note=60, velocity=102, time=50),
    Message('note_on', channel=12, note=64, velocity=101, time=0),
    Message('note_on', channel=12, note=67, velocity=100, time=0),
    Message('note_on', channel=5, note=67, velocity=118, time=0),
    Message('note_on', channel=5, note=64, velocity=0, time=26),
    Message('note_on', channel=12, note=67, velocity=0, time=6),
    Message('note_on', channel=12, note=48, velocity=0, time=16),
    Message('note_on', channel=12, note=64, velocity=0, time=8),
    Message('note_on', channel=12, note=60, velocity=0, time=12),
    Message('note_on', channel=0, note=55, velocity=0, time=8),
    Message('note_on', channel=1, note=48, velocity=0, time=18),
    Message('note_on', channel=12, note=60, velocity=102, time=26),
    Message('note_on', channel=12, note=64, velocity=103, time=0),
    Message('note_on', channel=12, note=67, velocity=102, time=0),
    Message('pitchwheel', channel=5, pitch=160, time=51),
    Message('pitchwheel', channel=5, pitch=514, time=3),
    Message('pitchwheel', channel=5, pitch=835, time=4),
    Message('pitchwheel', channel=5, pitch=1028, time=3),
    Message('pitchwheel', channel=5, pitch=1220, time=5),
    Message('pitchwheel', channel=5, pitch=1477, time=3),
    Message('pitchwheel', channel=5, pitch=1670, time=3),
    Message('pitchwheel', channel=5, pitch=1831, time=4),
    Message('pitchwheel', channel=5, pitch=2056, time=3),
    Message('pitchwheel', channel=5, pitch=2377, time=5),
    Message('pitchwheel', channel=5, pitch=2537, time=3),
    Message('pitchwheel', channel=5, pitch=2762, time=4),
    Message('pitchwheel', channel=5, pitch=3051, time=3),
    Message('pitchwheel', channel=5, pitch=3373, time=5),
    Message('pitchwheel', channel=5, pitch=3630, time=3),
    Message('pitchwheel', channel=5, pitch=3919, time=4),
    Message('pitchwheel', channel=5, pitch=4176, time=3),
    Message('pitchwheel', channel=5, pitch=4465, time=5),
    Message('note_off', channel=12, note=67, velocity=0, time=2),
    Message('pitchwheel', channel=5, pitch=4722, time=1),
    Message('pitchwheel', channel=5, pitch=4947, time=3),
    Message('note_on', channel=12, note=48, velocity=106, time=0),
    Message('pitchwheel', channel=5, pitch=5204, time=5),
    Message('pitchwheel', channel=5, pitch=5397, time=3),
    Message('pitchwheel', channel=5, pitch=5782, time=4),
    Message('pitchwheel', channel=5, pitch=6039, time=3),
    Message('pitchwheel', channel=5, pitch=6425, time=5),
    Message('note_off', channel=12, note=64, velocity=0, time=1),
    Message('pitchwheel', channel=5, pitch=6746, time=3),
    Message('pitchwheel', channel=5, pitch=7067, time=3),
    Message('pitchwheel', channel=5, pitch=7388, time=3),
    Message('note_off', channel=12, note=60, velocity=0, time=4),
    Message('pitchwheel', channel=5, pitch=7774, time=1),
    Message('pitchwheel', channel=5, pitch=8031, time=3),
    Message('pitchwheel', channel=5, pitch=8191, time=4),
    Message('note_on', channel=12, note=67, velocity=103, time=198),
    Message('note_on', channel=12, note=60, velocity=103, time=0),
    Message('note_on', channel=12, note=64, velocity=106, time=0),
    Message('pitchwheel', channel=5, pitch=7388, time=14),
    Message('pitchwheel', channel=5, pitch=6103, time=4),
    Message('pitchwheel', channel=5, pitch=4915, time=3),
    Message('pitchwheel', channel=5, pitch=3983, time=5),
    Message('pitchwheel', channel=5, pitch=3116, time=3),
    Message('pitchwheel', channel=5, pitch=2216, time=4),
    Message('pitchwheel', channel=5, pitch=1252, time=3),
    Message('pitchwheel', channel=5, pitch=642, time=4),
    Message('pitchwheel', channel=5, pitch=-193, time=4),
    Message('pitchwheel', channel=5, pitch=0, time=3),
    Message('note_off', channel=12, note=67, velocity=0, time=18),
    Message('note_off', channel=12, note=64, velocity=0, time=19),
    Message('note_off', channel=12, note=60, velocity=0, time=8),
    Message('note_off', channel=12, note=48, velocity=0, time=136),
    Message('control_change', channel=0, control=64, value=0, time=3),
    Message('control_change', channel=1, control=64, value=0, time=0),
    MetaMessage('set_tempo', tempo=923076, time=9),
    Message('note_on', channel=12, note=60, velocity=103, time=0),
    Message('note_on', channel=0, note=53, velocity=120, time=0),
    Message('note_on', channel=2, note=43, velocity=121, time=0),
    Message('note_on', channel=11, note=60, velocity=119, time=0),
    Message('note_on', channel=11, note=64, velocity=123, time=0),
    Message('note_on', channel=12, note=67, velocity=104, time=0),
    Message('note_on', channel=12, note=64, velocity=106, time=0),
    Message('note_on', channel=3, note=43, velocity=121, time=0),
    MetaMessage('set_tempo', tempo=937500, time=13),
    MetaMessage('set_tempo', tempo=952380, time=14),
    Message('note_off', channel=12, note=67, velocity=0, time=10),
    MetaMessage('set_tempo', tempo=967741, time=4),
    Message('note_off', channel=12, note=64, velocity=0, time=0),
    Message('note_off', channel=12, note=60, velocity=0, time=9),
    MetaMessage('set_tempo', tempo=983606, time=4),
    Message('note_off', channel=11, note=60, velocity=0, time=12),
    MetaMessage('set_tempo', tempo=1000000, time=2),
    Message('note_off', channel=11, note=64, velocity=0, time=0),
    MetaMessage('set_tempo', tempo=1016949, time=14),
    MetaMessage('set_tempo', tempo=1034482, time=14),
    MetaMessage('set_tempo', tempo=1052631, time=13),
    Message('note_on', channel=0, note=52, velocity=120, time=11),
    Message('note_on', channel=12, note=67, velocity=102, time=0),
    Message('note_on', channel=12, note=60, velocity=102, time=0),
    Message('note_on', channel=12, note=64, velocity=103, time=0),
    MetaMessage('set_tempo', tempo=1071428, time=3),
    MetaMessage('set_tempo', tempo=1090909, time=14),
    Message('note_off', channel=12, note=67, velocity=0, time=12),
    MetaMessage('set_tempo', tempo=1111111, time=1),
    Message('note_off', channel=12, note=64, velocity=0, time=10),
    Message('note_off', channel=12, note=60, velocity=0, time=3),
    MetaMessage('set_tempo', tempo=1132075, time=1),
    MetaMessage('set_tempo', tempo=1153846, time=14),
    MetaMessage('set_tempo', tempo=1176470, time=14),
    MetaMessage('set_tempo', tempo=1200000, time=13),
    Message('note_off', channel=0, note=53, velocity=0, time=2),
    MetaMessage('set_tempo', tempo=1224489, time=12),
    MetaMessage('set_tempo', tempo=1250000, time=14),
    Message('note_on', channel=3, note=31, velocity=124, time=7),
    Message('note_on', channel=5, note=74, velocity=122, time=0),
    Message('note_on', channel=0, note=50, velocity=119, time=0),
    Message('note_on', channel=12, note=67, velocity=103, time=0),
    Message('note_on', channel=12, note=60, velocity=103, time=0),
    Message('note_on', channel=2, note=31, velocity=124, time=0),
    Message('note_on', channel=12, note=64, velocity=104, time=0),
    MetaMessage('set_tempo', tempo=1276595, time=6),
    Message('note_off', channel=0, note=52, velocity=0, time=1),
    Message('note_off', channel=3, note=43, velocity=0, time=1),
    Message('note_off', channel=2, note=43, velocity=0, time=0),
    MetaMessage('set_tempo', tempo=1304347, time=12),
    MetaMessage('set_tempo', tempo=1333333, time=14),
    Message('note_off', channel=5, note=67, velocity=0, time=13),
    MetaMessage('set_tempo', tempo=1363636, time=1),
    Message('note_off', channel=12, note=67, velocity=0, time=1),
    Message('note_off', channel=12, note=64, velocity=0, time=1),
    Message('note_off', channel=12, note=60, velocity=0, time=3),
    MetaMessage('set_tempo', tempo=1395348, time=8),
    MetaMessage('set_tempo', tempo=1428571, time=14),
    MetaMessage('set_tempo', tempo=1463414, time=14),
    MetaMessage('set_tempo', tempo=1500000, time=13),
    MetaMessage('set_tempo', tempo=1538461, time=14),
    Message('note_on', channel=1, note=48, velocity=119, time=4),
    Message('note_on', channel=12, note=64, velocity=105, time=0),
    Message('note_on', channel=12, note=67, velocity=104, time=0),
    Message('note_on', channel=12, note=60, velocity=104, time=0),
    MetaMessage('set_tempo', tempo=1578947, time=10),
    MetaMessage('set_tempo', tempo=1621621, time=14),
    MetaMessage('set_tempo', tempo=1666666, time=13),
    Message('note_off', channel=0, note=50, velocity=0, time=1),
    MetaMessage('set_tempo', tempo=1714285, time=13),
    Message('note_off', channel=12, note=60, velocity=0, time=12),
    Message('note_off', channel=12, note=67, velocity=0, time=0),
    MetaMessage('set_tempo', tempo=1764705, time=2),
    Message('note_off', channel=12, note=64, velocity=0, time=7),
    MetaMessage('set_tempo', tempo=1818181, time=6),
    MetaMessage('set_tempo', tempo=1875000, time=14),
    MetaMessage('set_tempo', tempo=1935483, time=14),
    Message('pitchwheel', channel=5, pitch=385, time=9),
    Message('note_off', channel=1, note=48, velocity=0, time=3),
    Message('pitchwheel', channel=5, pitch=1124, time=1),
    Message('note_off', channel=2, note=31, velocity=0, time=0),
    Message('note_off', channel=3, note=31, velocity=0, time=0),
    MetaMessage('set_tempo', tempo=857142, time=1),
    Message('note_on', channel=11, note=48, velocity=118, time=0),
    Message('note_on', channel=11, note=55, velocity=120, time=0),
    Message('note_on', channel=12, note=60, velocity=104, time=0),
    Message('note_on', channel=11, note=36, velocity=114, time=0),
    Message('note_on', channel=11, note=52, velocity=122, time=0),
    Message('control_change', channel=12, control=64, value=0, time=0),
    Message('note_on', channel=12, note=48, velocity=105, time=0),
    Message('note_on', channel=12, note=64, velocity=106, time=0),
    Message('note_on', channel=12, note=67, velocity=105, time=0),
    Message('note_on', channel=0, note=52, velocity=118, time=0),
    Message('note_on', channel=3, note=36, velocity=123, time=1),
    Message('note_on', channel=2, note=36, velocity=123, time=0),
    Message('note_on', channel=2, note=36, velocity=0, time=0),
    Message('note_on', channel=3, note=36, velocity=0, time=0),
    Message('pitchwheel', channel=5, pitch=2056, time=1),
    Message('pitchwheel', channel=5, pitch=3565, time=15),
    Message('pitchwheel', channel=5, pitch=4754, time=10),
    Message('pitchwheel', channel=5, pitch=4979, time=4),
    Message('pitchwheel', channel=5, pitch=5204, time=3),
    Message('pitchwheel', channel=5, pitch=5364, time=6),
    Message('pitchwheel', channel=5, pitch=5589, time=3),
    Message('pitchwheel', channel=5, pitch=6039, time=6),
    Message('pitchwheel', channel=5, pitch=6617, time=3),
    Message('pitchwheel', channel=5, pitch=7453, time=6),
    Message('pitchwheel', channel=5, pitch=8191, time=3),
    Message('control_change', channel=11, control=64, value=0, time=8),
    Message('note_off', channel=5, note=74, velocity=0, time=1441),
    Message('note_off', channel=11, note=52, velocity=0, time=240),
    Message('note_off', channel=11, note=55, velocity=0, time=0),
    Message('note_off', channel=11, note=48, velocity=0, time=0),
    Message('note_off', channel=12, note=67, velocity=0, time=0),
    Message('note_off', channel=0, note=52, velocity=0, time=0),
    Message('note_off', channel=11, note=36, velocity=0, time=0),
    Message('note_off', channel=12, note=60, velocity=0, time=0),
    Message('note_off', channel=2, note=36, velocity=0, time=1),
    Message('note_off', channel=3, note=36, velocity=0, time=0),
    Message('note_off', channel=12, note=64, velocity=0, time=803),
    Message('note_off', channel=12, note=48, velocity=0, time=3),
    Message('pitchwheel', channel=5, pitch=6360, time=334),
    Message('pitchwheel', channel=5, pitch=2827, time=3),
    Message('pitchwheel', channel=5, pitch=0, time=6),
    MetaMessage('end_of_track', time=0)])
])
