MidiFile(type=1, ticks_per_beat=96, tracks=[
  MidiTrack([
    MetaMessage('set_tempo', tempo=500000, time=0),
    MetaMessage('time_signature', numerator=4, denominator=4, clocks_per_click=24, notated_32nd_notes_per_beat=8, time=0),
    MetaMessage('time_signature', numerator=4, denominator=4, clocks_per_click=24, notated_32nd_notes_per_beat=8, time=0),
    MetaMessage('key_signature', key='C', time=0),
    MetaMessage('set_tempo', tempo=821918, time=0),
    MetaMessage('set_tempo', tempo=465116, time=3456),
    MetaMessage('set_tempo', tempo=821918, time=35712),
    MetaMessage('end_of_track', time=0)]),
  MidiTrack([
    MetaMessage('midi_port', port=0, time=0),
    Message('program_change', channel=0, program=33, time=0),
    Message('control_change', channel=0, control=10, value=75, time=0),
    Message('control_change', channel=0, control=10, value=75, time=24),
    Message('control_change', channel=0, control=10, value=75, time=4),
    Message('control_change', channel=0, control=10, value=75, time=5),
    Message('control_change', channel=0, control=10, value=75, time=5),
    Message('control_change', channel=0, control=10, value=75, time=5),
    Message('control_change', channel=0, control=10, value=75, time=5),
    Message('control_change', channel=0, control=10, value=75, time=4),
    Message('control_change', channel=0, control=10, value=75, time=5),
    Message('control_change', channel=0, control=10, value=75, time=5),
    Message('control_change', channel=0, control=10, value=75, time=5),
    Message('control_change', channel=0, control=10, value=75, time=5),
    Message('control_change', channel=0, control=10, value=75, time=4),
    Message('control_change', channel=0, control=10, value=75, time=5),
    Message('control_change', channel=0, control=10, value=75, time=5),
    Message('control_change', channel=0, control=10, value=75, time=5),
    Message('control_change', channel=0, control=10, value=75, time=5),
    Message('control_change', channel=0, control=10, value=75, time=4),
    Message('control_change', channel=0, control=10, value=75, time=5),
    Message('control_change', channel=0, control=10, value=75, time=5),
    Message('control_change', channel=0, control=10, value=75, time=5),
    Message('control_change', channel=0, control=10, value=75, time=5),
    Message('control_change', channel=0, control=10, value=75, time=4),
    Message('control_change', channel=0, control=10, value=75, time=5),
    Message('control_change', channel=0, control=10, value=75, time=5),
    Message('control_change', channel=0, control=10, value=75, time=5),
    Message('control_change', channel=0, control=10, value=75, time=5),
    Message('note_on', channel=0, note=28, velocity=127, time=3696),
    Message('note_on', channel=0, note=28, velocity=0, time=104),
    Message('note_on', channel=0, note=28, velocity=127, time=40),
    Message('note_on', channel=0, note=28, velocity=0, time=22),
    Message('note_on', channel=0, note=28, velocity=127, time=26),
    Message('note_on', channel=0, note=28, velocity=0, time=166),
    Message('note_on', channel=0, note=31, velocity=127, time=26),
    Message('note_on', channel=0, note=31, velocity=0, time=114),
    Message('note_on', channel=0, note=31, velocity=127, time=30),
    Message('note_on', channel=0, note=31, velocity=0, time=19),
    Message('note_on', channel=0, note=31, velocity=127, time=29),
    Message('note_on', channel=0, note=43, velocity=127, time=96),
    Message('note_on', channel=0, note=31, velocity=0, time=2),
    Message('note_on', channel=0, note=43, velocity=0, time=45),
    Message('note_on', channel=0, note=31, velocity=127, time=1),
    Message('note_on', channel=0, note=38, velocity=127, time=48),
    Message('note_on', channel=0, note=31, velocity=0, time=2),
    Message('note_on', channel=0, note=38, velocity=0, time=105),
    Message('note_on', channel=0, note=38, velocity=127, time=37),
    Message('note_on', channel=0, note=38, velocity=0, time=18),
    Message('note_on', channel=0, note=38, velocity=127, time=30),
    Message('note_on', channel=0, note=38, velocity=0, time=192),
    Message('note_on', channel=0, note=33, velocity=127, time=0),
    Message('note_on', channel=0, note=33, velocity=0, time=116),
    Message('note_on', channel=0, note=33, velocity=127, time=28),
    Message('note_on', channel=0, note=33, velocity=0, time=17),
    Message('note_on', channel=0, note=33, velocity=127, time=31),
    Message('note_on', channel=0, note=33, velocity=0, time=132),
    Message('note_on', channel=0, note=28, velocity=127, time=60),
    Message('note_on', channel=0, note=28, velocity=0, time=104),
    Message('note_on', channel=0, note=28, velocity=127, time=40),
    Message('note_on', channel=0, note=28, velocity=0, time=22),
    Message('note_on', channel=0, note=28, velocity=127, time=26),
    Message('note_on', channel=0, note=28, velocity=0, time=166),
    Message('note_on', channel=0, note=31, velocity=127, time=26),
    Message('note_on', channel=0, note=31, velocity=0, time=114),
    Message('note_on', channel=0, note=31, velocity=127, time=30),
    Message('note_on', channel=0, note=31, velocity=0, time=19),
    Message('note_on', channel=0, note=31, velocity=127, time=29),
    Message('note_on', channel=0, note=43, velocity=127, time=96),
    Message('note_on', channel=0, note=31, velocity=0, time=2),
    Message('note_on', channel=0, note=43, velocity=0, time=45),
    Message('note_on', channel=0, note=31, velocity=127, time=1),
    Message('note_on', channel=0, note=38, velocity=127, time=48),
    Message('note_on', channel=0, note=31, velocity=0, time=2),
    Message('note_on', channel=0, note=38, velocity=0, time=105),
    Message('note_on', channel=0, note=38, velocity=127, time=37),
    Message('note_on', channel=0, note=38, velocity=0, time=18),
    Message('note_on', channel=0, note=38, velocity=127, time=30),
    Message('note_on', channel=0, note=38, velocity=0, time=192),
    Message('note_on', channel=0, note=33, velocity=127, time=0),
    Message('note_on', channel=0, note=33, velocity=0, time=116),
    Message('note_on', channel=0, note=33, velocity=127, time=28),
    Message('note_on', channel=0, note=33, velocity=0, time=17),
    Message('note_on', channel=0, note=33, velocity=127, time=31),
    Message('note_on', channel=0, note=33, velocity=0, time=132),
    Message('note_on', channel=0, note=28, velocity=127, time=60),
    Message('note_on', channel=0, note=28, velocity=0, time=104),
    Message('note_on', channel=0, note=28, velocity=127, time=40),
    Message('note_on', channel=0, note=28, velocity=0, time=22),
    Message('note_on', channel=0, note=28, velocity=127, time=26),
    Message('note_on', channel=0, note=28, velocity=0, time=166),
    Message('note_on', channel=0, note=31, velocity=127, time=26),
    Message('note_on', channel=0, note=31, velocity=0, time=114),
    Message('note_on', channel=0, note=31, velocity=127, time=30),
    Message('note_on', channel=0, note=31, velocity=0, time=19),
    Message('note_on', channel=0, note=31, velocity=127, time=29),
    Message('note_on', channel=0, note=43, velocity=127, time=96),
    Message('note_on', channel=0, note=31, velocity=0, time=2),
    Message('note_on', channel=0, note=43, velocity=0, time=45),
    Message('note_on', channel=0, note=31, velocity=127, time=1),
    Message('note_on', channel=0, note=38, velocity=127, time=48),
    Message('note_on', channel=0, note=31, velocity=0, time=2),
    Message('note_on', channel=0, note=38, velocity=0, time=105),
    Message('note_on', channel=0, note=38, velocity=127, time=37),
    Message('note_on', channel=0, note=38, velocity=0, time=18),
    Message('note_on', channel=0, note=38, velocity=127, time=30),
    Message('note_on', channel=0, note=38, velocity=0, time=192),
    Message('note_on', channel=0, note=33, velocity=127, time=0),
    Message('note_on', channel=0, note=33, velocity=0, time=116),
    Message('note_on', channel=0, note=33, velocity=127, time=28),
    Message('note_on', channel=0, note=33, velocity=0, time=17),
    Message('note_on', channel=0, note=33, velocity=127, time=31),
    Message('note_on', channel=0, note=33, velocity=0, time=132),
    Message('note_on', channel=0, note=28, velocity=127, time=60),
    Message('note_on', channel=0, note=28, velocity=0, time=104),
    Message('note_on', channel=0, note=28, velocity=127, time=40),
    Message('note_on', channel=0, note=28, velocity=0, time=22),
    Message('note_on', channel=0, note=28, velocity=127, time=26),
    Message('note_on', channel=0, note=28, velocity=0, time=166),
    Message('note_on', channel=0, note=31, velocity=127, time=26),
    Message('note_on', channel=0, note=31, velocity=0, time=114),
    Message('note_on', channel=0, note=31, velocity=127, time=30),
    Message('note_on', channel=0, note=31, velocity=0, time=19),
    Message('note_on', channel=0, note=31, velocity=127, time=29),
    Message('note_on', channel=0, note=43, velocity=127, time=96),
    Message('note_on', channel=0, note=31, velocity=0, time=2),
    Message('note_on', channel=0, note=43, velocity=0, time=45),
    Message('note_on', channel=0, note=31, velocity=127, time=1),
    Message('note_on', channel=0, note=38, velocity=127, time=48),
    Message('note_on', channel=0, note=31, velocity=0, time=2),
    Message('note_on', channel=0, note=38, velocity=0, time=105),
    Message('note_on', channel=0, note=38, velocity=127, time=37),
    Message('note_on', channel=0, note=38, velocity=0, time=18),
    Message('note_on', channel=0, note=38, velocity=127, time=30),
    Message('note_on', channel=0, note=38, velocity=0, time=192),
    Message('note_on', channel=0, note=33, velocity=127, time=0),
    Message('note_on', channel=0, note=33, velocity=0, time=116),
    Message('note_on', channel=0, note=33, velocity=127, time=28),
    Message('note_on', channel=0, note=33, velocity=0, time=17),
    Message('note_on', channel=0, note=33, velocity=127, time=31),
    Message('note_on', channel=0, note=33, velocity=0, time=132),
    Message('note_on', channel=0, note=28, velocity=127, time=60),
    Message('note_on', channel=0, note=28, velocity=0, time=104),
    Message('note_on', channel=0, note=28, velocity=127, time=40),
    Message('note_on', channel=0, note=28, velocity=0, time=22),
    Message('note_on', channel=0, note=28, velocity=127, time=26),
    Message('note_on', channel=0, note=28, velocity=0, time=166),
    Message('note_on', channel=0, note=31, velocity=127, time=26),
    Message('note_on', channel=0, note=31, velocity=0, time=114),
    Message('note_on', channel=0, note=31, velocity=127, time=30),
    Message('note_on', channel=0, note=31, velocity=0, time=19),
    Message('note_on', channel=0, note=31, velocity=127, time=29),
    Message('note_on', channel=0, note=43, velocity=127, time=96),
    Message('note_on', channel=0, note=31, velocity=0, time=2),
    Message('note_on', channel=0, note=43, velocity=0, time=45),
    Message('note_on', channel=0, note=31, velocity=127, time=1),
    Message('note_on', channel=0, note=38, velocity=127, time=48),
    Message('note_on', channel=0, note=31, velocity=0, time=2),
    Message('note_on', channel=0, note=38, velocity=0, time=105),
    Message('note_on', channel=0, note=38, velocity=127, time=37),
    Message('note_on', channel=0, note=38, velocity=0, time=18),
    Message('note_on', channel=0, note=38, velocity=127, time=30),
    Message('note_on', channel=0, note=38, velocity=0, time=192),
    Message('note_on', channel=0, note=33, velocity=127, time=0),
    Message('note_on', channel=0, note=33, velocity=0, time=116),
    Message('note_on', channel=0, note=33, velocity=127, time=28),
    Message('note_on', channel=0, note=33, velocity=0, time=17),
    Message('note_on', channel=0, note=33, velocity=127, time=31),
    Message('note_on', channel=0, note=33, velocity=0, time=132),
    Message('note_on', channel=0, note=28, velocity=127, time=60),
    Message('note_on', channel=0, note=28, velocity=0, time=104),
    Message('note_on', channel=0, note=28, velocity=127, time=40),
    Message('note_on', channel=0, note=28, velocity=0, time=22),
    Message('note_on', channel=0, note=28, velocity=127, time=26),
    Message('note_on', channel=0, note=28, velocity=0, time=166),
    Message('note_on', channel=0, note=31, velocity=127, time=26),
    Message('note_on', channel=0, note=31, velocity=0, time=114),
    Message('note_on', channel=0, note=31, velocity=127, time=30),
    Message('note_on', channel=0, note=31, velocity=0, time=19),
    Message('note_on', channel=0, note=31, velocity=127, time=29),
    Message('note_on', channel=0, note=43, velocity=127, time=96),
    Message('note_on', channel=0, note=31, velocity=0, time=2),
    Message('note_on', channel=0, note=43, velocity=0, time=45),
    Message('note_on', channel=0, note=31, velocity=127, time=1),
    Message('note_on', channel=0, note=38, velocity=127, time=48),
    Message('note_on', channel=0, note=31, velocity=0, time=2),
    Message('note_on', channel=0, note=38, velocity=0, time=105),
    Message('note_on', channel=0, note=38, velocity=127, time=37),
    Message('note_on', channel=0, note=38, velocity=0, time=18),
    Message('note_on', channel=0, note=38, velocity=127, time=30),
    Message('note_on', channel=0, note=38, velocity=0, time=192),
    Message('note_on', channel=0, note=33, velocity=127, time=0),
    Message('note_on', channel=0, note=33, velocity=0, time=116),
    Message('note_on', channel=0, note=33, velocity=127, time=28),
    Message('note_on', channel=0, note=33, velocity=0, time=17),
    Message('note_on', channel=0, note=33, velocity=127, time=31),
    Message('note_on', channel=0, note=33, velocity=0, time=132),
    Message('note_on', channel=0, note=28, velocity=127, time=60),
    Message('note_on', channel=0, note=28, velocity=0, time=104),
    Message('note_on', channel=0, note=28, velocity=127, time=40),
    Message('note_on', channel=0, note=28, velocity=0, time=22),
    Message('note_on', channel=0, note=28, velocity=127, time=26),
    Message('note_on', channel=0, note=28, velocity=0, time=166),
    Message('note_on', channel=0, note=31, velocity=127, time=26),
    Message('note_on', channel=0, note=31, velocity=0, time=114),
    Message('note_on', channel=0, note=31, velocity=127, time=30),
    Message('note_on', channel=0, note=31, velocity=0, time=19),
    Message('note_on', channel=0, note=31, velocity=127, time=29),
    Message('note_on', channel=0, note=43, velocity=127, time=96),
    Message('note_on', channel=0, note=31, velocity=0, time=2),
    Message('note_on', channel=0, note=43, velocity=0, time=45),
    Message('note_on', channel=0, note=31, velocity=127, time=1),
    Message('note_on', channel=0, note=38, velocity=127, time=48),
    Message('note_on', channel=0, note=31, velocity=0, time=2),
    Message('note_on', channel=0, note=38, velocity=0, time=105),
    Message('note_on', channel=0, note=38, velocity=127, time=37),
    Message('note_on', channel=0, note=38, velocity=0, time=18),
    Message('note_on', channel=0, note=38, velocity=127, time=30),
    Message('note_on', channel=0, note=38, velocity=0, time=192),
    Message('note_on', channel=0, note=33, velocity=127, time=0),
    Message('note_on', channel=0, note=33, velocity=0, time=116),
    Message('note_on', channel=0, note=33, velocity=127, time=28),
    Message('note_on', channel=0, note=33, velocity=0, time=17),
    Message('note_on', channel=0, note=33, velocity=127, time=31),
    Message('note_on', channel=0, note=33, velocity=0, time=132),
    Message('note_on', channel=0, note=28, velocity=127, time=60),
    Message('note_on', channel=0, note=28, velocity=0, time=104),
    Message('note_on', channel=0, note=28, velocity=127, time=40),
    Message('note_on', channel=0, note=28, velocity=0, time=22),
    Message('note_on', channel=0, note=28, velocity=127, time=26),
    Message('note_on', channel=0, note=28, velocity=0, time=166),
    Message('note_on', channel=0, note=31, velocity=127, time=26),
    Message('note_on', channel=0, note=31, velocity=0, time=114),
    Message('note_on', channel=0, note=31, velocity=127, time=30),
    Message('note_on', channel=0, note=31, velocity=0, time=19),
    Message('note_on', channel=0, note=31, velocity=127, time=29),
    Message('note_on', channel=0, note=43, velocity=127, time=96),
    Message('note_on', channel=0, note=31, velocity=0, time=2),
    Message('note_on', channel=0, note=43, velocity=0, time=45),
    Message('note_on', channel=0, note=31, velocity=127, time=1),
    Message('note_on', channel=0, note=38, velocity=127, time=48),
    Message('note_on', channel=0, note=31, velocity=0, time=2),
    Message('note_on', channel=0, note=38, velocity=0, time=105),
    Message('note_on', channel=0, note=38, velocity=127, time=37),
    Message('note_on', channel=0, note=38, velocity=0, time=18),
    Message('note_on', channel=0, note=38, velocity=127, time=30),
    Message('note_on', channel=0, note=38, velocity=0, time=192),
    Message('note_on', channel=0, note=33, velocity=127, time=0),
    Message('note_on', channel=0, note=33, velocity=0, time=116),
    Message('note_on', channel=0, note=33, velocity=127, time=28),
    Message('note_on', channel=0, note=33, velocity=0, time=17),
    Message('note_on', channel=0, note=33, velocity=127, time=31),
    Message('note_on', channel=0, note=33, velocity=0, time=132),
    Message('note_on', channel=0, note=28, velocity=127, time=60),
    Message('note_on', channel=0, note=28, velocity=0, time=104),
    Message('note_on', channel=0, note=28, velocity=127, time=40),
    Message('note_on', channel=0, note=28, velocity=0, time=22),
    Message('note_on', channel=0, note=28, velocity=127, time=26),
    Message('note_on', channel=0, note=28, velocity=0, time=166),
    Message('note_on', channel=0, note=31, velocity=127, time=26),
    Message('note_on', channel=0, note=31, velocity=0, time=114),
    Message('note_on', channel=0, note=31, velocity=127, time=30),
    Message('note_on', channel=0, note=31, velocity=0, time=19),
    Message('note_on', channel=0, note=31, velocity=127, time=29),
    Message('note_on', channel=0, note=43, velocity=127, time=96),
    Message('note_on', channel=0, note=31, velocity=0, time=2),
    Message('note_on', channel=0, note=43, velocity=0, time=45),
    Message('note_on', channel=0, note=31, velocity=127, time=1),
    Message('note_on', channel=0, note=38, velocity=127, time=48),
    Message('note_on', channel=0, note=31, velocity=0, time=2),
    Message('note_on', channel=0, note=38, velocity=0, time=105),
    Message('note_on', channel=0, note=38, velocity=127, time=37),
    Message('note_on', channel=0, note=38, velocity=0, time=18),
    Message('note_on', channel=0, note=38, velocity=127, time=30),
    Message('note_on', channel=0, note=38, velocity=0, time=192),
    Message('note_on', channel=0, note=33, velocity=127, time=0),
    Message('note_on', channel=0, note=33, velocity=0, time=116),
    Message('note_on', channel=0, note=33, velocity=127, time=28),
    Message('note_on', channel=0, note=33, velocity=0, time=17),
    Message('note_on', channel=0, note=33, velocity=127, time=31),
    Message('note_on', channel=0, note=33, velocity=0, time=132),
    Message('note_on', channel=0, note=28, velocity=127, time=60),
    Message('note_on', channel=0, note=28, velocity=0, time=104),
    Message('note_on', channel=0, note=28, velocity=127, time=40),
    Message('note_on', channel=0, note=28, velocity=0, time=22),
    Message('note_on', channel=0, note=28, velocity=127, time=26),
    Message('note_on', channel=0, note=28, velocity=0, time=166),
    Message('note_on', channel=0, note=31, velocity=127, time=26),
    Message('note_on', channel=0, note=31, velocity=0, time=114),
    Message('note_on', channel=0, note=31, velocity=127, time=30),
    Message('note_on', channel=0, note=31, velocity=0, time=19),
    Message('note_on', channel=0, note=31, velocity=127, time=29),
    Message('note_on', channel=0, note=43, velocity=127, time=96),
    Message('note_on', channel=0, note=31, velocity=0, time=2),
    Message('note_on', channel=0, note=43, velocity=0, time=45),
    Message('note_on', channel=0, note=31, velocity=127, time=1),
    Message('note_on', channel=0, note=38, velocity=127, time=48),
    Message('note_on', channel=0, note=31, velocity=0, time=2),
    Message('note_on', channel=0, note=38, velocity=0, time=105),
    Message('note_on', channel=0, note=38, velocity=127, time=37),
    Message('note_on', channel=0, note=38, velocity=0, time=18),
    Message('note_on', channel=0, note=38, velocity=127, time=30),
    Message('note_on', channel=0, note=38, velocity=0, time=192),
    Message('note_on', channel=0, note=33, velocity=127, time=0),
    Message('note_on', channel=0, note=33, velocity=0, time=116),
    Message('note_on', channel=0, note=33, velocity=127, time=28),
    Message('note_on', channel=0, note=33, velocity=0, time=17),
    Message('note_on', channel=0, note=33, velocity=127, time=31),
    Message('note_on', channel=0, note=33, velocity=0, time=132),
    Message('note_on', channel=0, note=28, velocity=127, time=60),
    Message('note_on', channel=0, note=28, velocity=0, time=104),
    Message('note_on', channel=0, note=28, velocity=127, time=40),
    Message('note_on', channel=0, note=28, velocity=0, time=22),
    Message('note_on', channel=0, note=28, velocity=127, time=26),
    Message('note_on', channel=0, note=28, velocity=0, time=166),
    Message('note_on', channel=0, note=31, velocity=127, time=26),
    Message('note_on', channel=0, note=31, velocity=0, time=114),
    Message('note_on', channel=0, note=31, velocity=127, time=30),
    Message('note_on', channel=0, note=31, velocity=0, time=19),
    Message('note_on', channel=0, note=31, velocity=127, time=29),
    Message('note_on', channel=0, note=43, velocity=127, time=96),
    Message('note_on', channel=0, note=31, velocity=0, time=2),
    Message('note_on', channel=0, note=43, velocity=0, time=45),
    Message('note_on', channel=0, note=31, velocity=127, time=1),
    Message('note_on', channel=0, note=38, velocity=127, time=48),
    Message('note_on', channel=0, note=31, velocity=0, time=2),
    Message('note_on', channel=0, note=38, velocity=0, time=105),
    Message('note_on', channel=0, note=38, velocity=127, time=37),
    Message('note_on', channel=0, note=38, velocity=0, time=18),
    Message('note_on', channel=0, note=38, velocity=127, time=30),
    Message('note_on', channel=0, note=38, velocity=0, time=192),
    Message('note_on', channel=0, note=33, velocity=127, time=0),
    Message('note_on', channel=0, note=33, velocity=0, time=116),
    Message('note_on', channel=0, note=33, velocity=127, time=28),
    Message('note_on', channel=0, note=33, velocity=0, time=17),
    Message('note_on', channel=0, note=33, velocity=127, time=31),
    Message('note_on', channel=0, note=33, velocity=0, time=132),
    Message('note_on', channel=0, note=28, velocity=127, time=60),
    Message('note_on', channel=0, note=28, velocity=0, time=104),
    Message('note_on', channel=0, note=28, velocity=127, time=40),
    Message('note_on', channel=0, note=28, velocity=0, time=22),
    Message('note_on', channel=0, note=28, velocity=127, time=26),
    Message('note_on', channel=0, note=28, velocity=0, time=166),
    Message('note_on', channel=0, note=31, velocity=127, time=26),
    Message('note_on', channel=0, note=31, velocity=0, time=114),
    Message('note_on', channel=0, note=31, velocity=127, time=30),
    Message('note_on', channel=0, note=31, velocity=0, time=19),
    Message('note_on', channel=0, note=31, velocity=127, time=29),
    Message('note_on', channel=0, note=43, velocity=127, time=96),
    Message('note_on', channel=0, note=31, velocity=0, time=2),
    Message('note_on', channel=0, note=43, velocity=0, time=45),
    Message('note_on', channel=0, note=31, velocity=127, time=1),
    Message('note_on', channel=0, note=38, velocity=127, time=48),
    Message('note_on', channel=0, note=31, velocity=0, time=2),
    Message('note_on', channel=0, note=38, velocity=0, time=105),
    Message('note_on', channel=0, note=38, velocity=127, time=37),
    Message('note_on', channel=0, note=38, velocity=0, time=18),
    Message('note_on', channel=0, note=38, velocity=127, time=30),
    Message('note_on', channel=0, note=38, velocity=0, time=192),
    Message('note_on', channel=0, note=33, velocity=127, time=0),
    Message('note_on', channel=0, note=33, velocity=0, time=116),
    Message('note_on', channel=0, note=33, velocity=127, time=28),
    Message('note_on', channel=0, note=33, velocity=0, time=17),
    Message('note_on', channel=0, note=33, velocity=127, time=31),
    Message('note_on', channel=0, note=33, velocity=0, time=132),
    Message('note_on', channel=0, note=28, velocity=127, time=60),
    Message('note_on', channel=0, note=28, velocity=0, time=104),
    Message('note_on', channel=0, note=28, velocity=127, time=40),
    Message('note_on', channel=0, note=28, velocity=0, time=22),
    Message('note_on', channel=0, note=28, velocity=127, time=26),
    Message('note_on', channel=0, note=28, velocity=0, time=166),
    Message('note_on', channel=0, note=31, velocity=127, time=26),
    Message('note_on', channel=0, note=31, velocity=0, time=114),
    Message('note_on', channel=0, note=31, velocity=127, time=30),
    Message('note_on', channel=0, note=31, velocity=0, time=19),
    Message('note_on', channel=0, note=31, velocity=127, time=29),
    Message('note_on', channel=0, note=43, velocity=127, time=96),
    Message('note_on', channel=0, note=31, velocity=0, time=2),
    Message('note_on', channel=0, note=43, velocity=0, time=45),
    Message('note_on', channel=0, note=31, velocity=127, time=1),
    Message('note_on', channel=0, note=38, velocity=127, time=48),
    Message('note_on', channel=0, note=31, velocity=0, time=2),
    Message('note_on', channel=0, note=38, velocity=0, time=105),
    Message('note_on', channel=0, note=38, velocity=127, time=37),
    Message('note_on', channel=0, note=38, velocity=0, time=18),
    Message('note_on', channel=0, note=38, velocity=127, time=30),
    Message('note_on', channel=0, note=38, velocity=0, time=192),
    Message('note_on', channel=0, note=33, velocity=127, time=0),
    Message('note_on', channel=0, note=33, velocity=0, time=116),
    Message('note_on', channel=0, note=33, velocity=127, time=28),
    Message('note_on', channel=0, note=33, velocity=0, time=17),
    Message('note_on', channel=0, note=33, velocity=127, time=31),
    Message('note_on', channel=0, note=33, velocity=0, time=132),
    Message('note_on', channel=0, note=28, velocity=127, time=60),
    Message('note_on', channel=0, note=28, velocity=0, time=104),
    Message('note_on', channel=0, note=28, velocity=127, time=40),
    Message('note_on', channel=0, note=28, velocity=0, time=22),
    Message('note_on', channel=0, note=28, velocity=127, time=26),
    Message('note_on', channel=0, note=28, velocity=0, time=166),
    Message('note_on', channel=0, note=31, velocity=127, time=26),
    Message('note_on', channel=0, note=31, velocity=0, time=114),
    Message('note_on', channel=0, note=31, velocity=127, time=30),
    Message('note_on', channel=0, note=31, velocity=0, time=19),
    Message('note_on', channel=0, note=31, velocity=127, time=29),
    Message('note_on', channel=0, note=43, velocity=127, time=96),
    Message('note_on', channel=0, note=31, velocity=0, time=2),
    Message('note_on', channel=0, note=43, velocity=0, time=45),
    Message('note_on', channel=0, note=31, velocity=127, time=1),
    Message('note_on', channel=0, note=38, velocity=127, time=48),
    Message('note_on', channel=0, note=31, velocity=0, time=2),
    Message('note_on', channel=0, note=38, velocity=0, time=105),
    Message('note_on', channel=0, note=38, velocity=127, time=37),
    Message('note_on', channel=0, note=38, velocity=0, time=18),
    Message('note_on', channel=0, note=38, velocity=127, time=30),
    Message('note_on', channel=0, note=38, velocity=0, time=192),
    Message('note_on', channel=0, note=33, velocity=127, time=0),
    Message('note_on', channel=0, note=33, velocity=0, time=116),
    Message('note_on', channel=0, note=33, velocity=127, time=28),
    Message('note_on', channel=0, note=33, velocity=0, time=17),
    Message('note_on', channel=0, note=33, velocity=127, time=31),
    Message('note_on', channel=0, note=33, velocity=0, time=132),
    Message('note_on', channel=0, note=28, velocity=127, time=60),
    Message('note_on', channel=0, note=28, velocity=0, time=104),
    Message('note_on', channel=0, note=28, velocity=127, time=40),
    Message('note_on', channel=0, note=28, velocity=0, time=22),
    Message('note_on', channel=0, note=28, velocity=127, time=26),
    Message('note_on', channel=0, note=28, velocity=0, time=166),
    Message('note_on', channel=0, note=31, velocity=127, time=26),
    Message('note_on', channel=0, note=31, velocity=0, time=114),
    Message('note_on', channel=0, note=31, velocity=127, time=30),
    Message('note_on', channel=0, note=31, velocity=0, time=19),
    Message('note_on', channel=0, note=31, velocity=127, time=29),
    Message('note_on', channel=0, note=43, velocity=127, time=96),
    Message('note_on', channel=0, note=31, velocity=0, time=2),
    Message('note_on', channel=0, note=43, velocity=0, time=45),
    Message('note_on', channel=0, note=31, velocity=127, time=1),
    Message('note_on', channel=0, note=38, velocity=127, time=48),
    Message('note_on', channel=0, note=31, velocity=0, time=2),
    Message('note_on', channel=0, note=38, velocity=0, time=105),
    Message('note_on', channel=0, note=38, velocity=127, time=37),
    Message('note_on', channel=0, note=38, velocity=0, time=18),
    Message('note_on', channel=0, note=38, velocity=127, time=30),
    Message('note_on', channel=0, note=38, velocity=0, time=192),
    Message('note_on', channel=0, note=33, velocity=127, time=0),
    Message('note_on', channel=0, note=33, velocity=0, time=116),
    Message('note_on', channel=0, note=33, velocity=127, time=28),
    Message('note_on', channel=0, note=33, velocity=0, time=17),
    Message('note_on', channel=0, note=33, velocity=127, time=31),
    Message('note_on', channel=0, note=33, velocity=0, time=132),
    Message('note_on', channel=0, note=28, velocity=127, time=60),
    Message('note_on', channel=0, note=28, velocity=0, time=104),
    Message('note_on', channel=0, note=28, velocity=127, time=40),
    Message('note_on', channel=0, note=28, velocity=0, time=22),
    Message('note_on', channel=0, note=28, velocity=127, time=26),
    Message('note_on', channel=0, note=28, velocity=0, time=166),
    Message('note_on', channel=0, note=31, velocity=127, time=26),
    Message('note_on', channel=0, note=31, velocity=0, time=114),
    Message('note_on', channel=0, note=31, velocity=127, time=30),
    Message('note_on', channel=0, note=31, velocity=0, time=19),
    Message('note_on', channel=0, note=31, velocity=127, time=29),
    Message('note_on', channel=0, note=43, velocity=127, time=96),
    Message('note_on', channel=0, note=31, velocity=0, time=2),
    Message('note_on', channel=0, note=43, velocity=0, time=45),
    Message('note_on', channel=0, note=31, velocity=127, time=1),
    Message('note_on', channel=0, note=38, velocity=127, time=48),
    Message('note_on', channel=0, note=31, velocity=0, time=2),
    Message('note_on', channel=0, note=38, velocity=0, time=105),
    Message('note_on', channel=0, note=38, velocity=127, time=37),
    Message('note_on', channel=0, note=38, velocity=0, time=18),
    Message('note_on', channel=0, note=38, velocity=127, time=30),
    Message('note_on', channel=0, note=38, velocity=0, time=192),
    Message('note_on', channel=0, note=33, velocity=127, time=0),
    Message('note_on', channel=0, note=33, velocity=0, time=116),
    Message('note_on', channel=0, note=33, velocity=127, time=28),
    Message('note_on', channel=0, note=33, velocity=0, time=17),
    Message('note_on', channel=0, note=33, velocity=127, time=31),
    Message('note_on', channel=0, note=33, velocity=0, time=132),
    Message('note_on', channel=0, note=28, velocity=127, time=60),
    Message('note_on', channel=0, note=28, velocity=0, time=104),
    Message('note_on', channel=0, note=28, velocity=127, time=40),
    Message('note_on', channel=0, note=28, velocity=0, time=22),
    Message('note_on', channel=0, note=28, velocity=127, time=26),
    Message('note_on', channel=0, note=28, velocity=0, time=166),
    Message('note_on', channel=0, note=31, velocity=127, time=26),
    Message('note_on', channel=0, note=31, velocity=0, time=114),
    Message('note_on', channel=0, note=31, velocity=127, time=30),
    Message('note_on', channel=0, note=31, velocity=0, time=19),
    Message('note_on', channel=0, note=31, velocity=127, time=29),
    Message('note_on', channel=0, note=43, velocity=127, time=96),
    Message('note_on', channel=0, note=31, velocity=0, time=2),
    Message('note_on', channel=0, note=43, velocity=0, time=45),
    Message('note_on', channel=0, note=31, velocity=127, time=1),
    Message('note_on', channel=0, note=38, velocity=127, time=48),
    Message('note_on', channel=0, note=31, velocity=0, time=2),
    Message('note_on', channel=0, note=38, velocity=0, time=105),
    Message('note_on', channel=0, note=38, velocity=127, time=37),
    Message('note_on', channel=0, note=38, velocity=0, time=18),
    Message('note_on', channel=0, note=38, velocity=127, time=30),
    Message('note_on', channel=0, note=38, velocity=0, time=192),
    Message('note_on', channel=0, note=33, velocity=127, time=0),
    Message('note_on', channel=0, note=33, velocity=0, time=116),
    Message('note_on', channel=0, note=33, velocity=127, time=28),
    Message('note_on', channel=0, note=33, velocity=0, time=17),
    Message('note_on', channel=0, note=33, velocity=127, time=31),
    Message('note_on', channel=0, note=33, velocity=0, time=132),
    Message('note_on', channel=0, note=28, velocity=127, time=60),
    Message('note_on', channel=0, note=28, velocity=0, time=104),
    Message('note_on', channel=0, note=28, velocity=127, time=40),
    Message('note_on', channel=0, note=28, velocity=0, time=22),
    Message('note_on', channel=0, note=28, velocity=127, time=26),
    Message('note_on', channel=0, note=28, velocity=0, time=166),
    Message('note_on', channel=0, note=31, velocity=127, time=26),
    Message('note_on', channel=0, note=31, velocity=0, time=114),
    Message('note_on', channel=0, note=31, velocity=127, time=30),
    Message('note_on', channel=0, note=31, velocity=0, time=19),
    Message('note_on', channel=0, note=31, velocity=127, time=29),
    Message('note_on', channel=0, note=43, velocity=127, time=96),
    Message('note_on', channel=0, note=31, velocity=0, time=2),
    Message('note_on', channel=0, note=43, velocity=0, time=45),
    Message('note_on', channel=0, note=31, velocity=127, time=1),
    Message('note_on', channel=0, note=38, velocity=127, time=48),
    Message('note_on', channel=0, note=31, velocity=0, time=2),
    Message('note_on', channel=0, note=38, velocity=0, time=105),
    Message('note_on', channel=0, note=38, velocity=127, time=37),
    Message('note_on', channel=0, note=38, velocity=0, time=18),
    Message('note_on', channel=0, note=38, velocity=127, time=30),
    Message('note_on', channel=0, note=38, velocity=0, time=192),
    Message('note_on', channel=0, note=33, velocity=127, time=0),
    Message('note_on', channel=0, note=33, velocity=0, time=116),
    Message('note_on', channel=0, note=33, velocity=127, time=28),
    Message('note_on', channel=0, note=33, velocity=0, time=17),
    Message('note_on', channel=0, note=33, velocity=127, time=31),
    Message('note_on', channel=0, note=33, velocity=0, time=132),
    Message('note_on', channel=0, note=28, velocity=127, time=60),
    Message('note_on', channel=0, note=28, velocity=0, time=104),
    Message('note_on', channel=0, note=28, velocity=127, time=40),
    Message('note_on', channel=0, note=28, velocity=0, time=22),
    Message('note_on', channel=0, note=28, velocity=127, time=26),
    Message('note_on', channel=0, note=28, velocity=0, time=166),
    Message('note_on', channel=0, note=31, velocity=127, time=26),
    Message('note_on', channel=0, note=31, velocity=0, time=114),
    Message('note_on', channel=0, note=31, velocity=127, time=30),
    Message('note_on', channel=0, note=31, velocity=0, time=19),
    Message('note_on', channel=0, note=31, velocity=127, time=29),
    Message('note_on', channel=0, note=43, velocity=127, time=96),
    Message('note_on', channel=0, note=31, velocity=0, time=2),
    Message('note_on', channel=0, note=43, velocity=0, time=45),
    Message('note_on', channel=0, note=31, velocity=127, time=1),
    Message('note_on', channel=0, note=38, velocity=127, time=48),
    Message('note_on', channel=0, note=31, velocity=0, time=2),
    Message('note_on', channel=0, note=38, velocity=0, time=105),
    Message('note_on', channel=0, note=38, velocity=127, time=37),
    Message('note_on', channel=0, note=38, velocity=0, time=18),
    Message('note_on', channel=0, note=38, velocity=127, time=30),
    Message('note_on', channel=0, note=38, velocity=0, time=192),
    Message('note_on', channel=0, note=33, velocity=127, time=0),
    Message('note_on', channel=0, note=33, velocity=0, time=116),
    Message('note_on', channel=0, note=33, velocity=127, time=28),
    Message('note_on', channel=0, note=33, velocity=0, time=17),
    Message('note_on', channel=0, note=33, velocity=127, time=31),
    Message('note_on', channel=0, note=33, velocity=0, time=132),
    Message('note_on', channel=0, note=28, velocity=127, time=60),
    Message('note_on', channel=0, note=28, velocity=0, time=104),
    Message('note_on', channel=0, note=28, velocity=127, time=40),
    Message('note_on', channel=0, note=28, velocity=0, time=22),
    Message('note_on', channel=0, note=28, velocity=127, time=26),
    Message('note_on', channel=0, note=28, velocity=0, time=166),
    Message('note_on', channel=0, note=31, velocity=127, time=26),
    Message('note_on', channel=0, note=31, velocity=0, time=114),
    Message('note_on', channel=0, note=31, velocity=127, time=30),
    Message('note_on', channel=0, note=31, velocity=0, time=19),
    Message('note_on', channel=0, note=31, velocity=127, time=29),
    Message('note_on', channel=0, note=43, velocity=127, time=96),
    Message('note_on', channel=0, note=31, velocity=0, time=2),
    Message('note_on', channel=0, note=43, velocity=0, time=45),
    Message('note_on', channel=0, note=31, velocity=127, time=1),
    Message('note_on', channel=0, note=38, velocity=127, time=48),
    Message('note_on', channel=0, note=31, velocity=0, time=2),
    Message('note_on', channel=0, note=38, velocity=0, time=105),
    Message('note_on', channel=0, note=38, velocity=127, time=37),
    Message('note_on', channel=0, note=38, velocity=0, time=18),
    Message('note_on', channel=0, note=38, velocity=127, time=30),
    Message('note_on', channel=0, note=38, velocity=0, time=192),
    Message('note_on', channel=0, note=33, velocity=127, time=0),
    Message('note_on', channel=0, note=33, velocity=0, time=116),
    Message('note_on', channel=0, note=33, velocity=127, time=28),
    Message('note_on', channel=0, note=33, velocity=0, time=17),
    Message('note_on', channel=0, note=33, velocity=127, time=31),
    Message('note_on', channel=0, note=33, velocity=0, time=132),
    Message('note_on', channel=0, note=28, velocity=127, time=60),
    Message('note_on', channel=0, note=28, velocity=0, time=104),
    Message('note_on', channel=0, note=28, velocity=127, time=40),
    Message('note_on', channel=0, note=28, velocity=0, time=22),
    Message('note_on', channel=0, note=28, velocity=127, time=26),
    Message('note_on', channel=0, note=28, velocity=0, time=166),
    Message('note_on', channel=0, note=31, velocity=127, time=26),
    Message('note_on', channel=0, note=31, velocity=0, time=114),
    Message('note_on', channel=0, note=31, velocity=127, time=30),
    Message('note_on', channel=0, note=31, velocity=0, time=19),
    Message('note_on', channel=0, note=31, velocity=127, time=29),
    Message('note_on', channel=0, note=43, velocity=127, time=96),
    Message('note_on', channel=0, note=31, velocity=0, time=2),
    Message('note_on', channel=0, note=43, velocity=0, time=45),
    Message('note_on', channel=0, note=31, velocity=127, time=1),
    Message('note_on', channel=0, note=38, velocity=127, time=48),
    Message('note_on', channel=0, note=31, velocity=0, time=2),
    Message('note_on', channel=0, note=38, velocity=0, time=105),
    Message('note_on', channel=0, note=38, velocity=127, time=37),
    Message('note_on', channel=0, note=38, velocity=0, time=18),
    Message('note_on', channel=0, note=38, velocity=127, time=30),
    Message('note_on', channel=0, note=38, velocity=0, time=192),
    Message('note_on', channel=0, note=33, velocity=127, time=0),
    Message('note_on', channel=0, note=33, velocity=0, time=116),
    Message('note_on', channel=0, note=33, velocity=127, time=28),
    Message('note_on', channel=0, note=33, velocity=0, time=17),
    Message('note_on', channel=0, note=33, velocity=127, time=31),
    Message('note_on', channel=0, note=33, velocity=0, time=132),
    Message('note_on', channel=0, note=28, velocity=127, time=60),
    Message('note_on', channel=0, note=28, velocity=0, time=104),
    Message('note_on', channel=0, note=28, velocity=127, time=40),
    Message('note_on', channel=0, note=28, velocity=0, time=22),
    Message('note_on', channel=0, note=28, velocity=127, time=26),
    Message('note_on', channel=0, note=28, velocity=0, time=166),
    Message('note_on', channel=0, note=31, velocity=127, time=26),
    Message('note_on', channel=0, note=31, velocity=0, time=114),
    Message('note_on', channel=0, note=31, velocity=127, time=30),
    Message('note_on', channel=0, note=31, velocity=0, time=19),
    Message('note_on', channel=0, note=31, velocity=127, time=29),
    Message('note_on', channel=0, note=43, velocity=127, time=96),
    Message('note_on', channel=0, note=31, velocity=0, time=2),
    Message('note_on', channel=0, note=43, velocity=0, time=45),
    Message('note_on', channel=0, note=31, velocity=127, time=1),
    Message('note_on', channel=0, note=38, velocity=127, time=48),
    Message('note_on', channel=0, note=31, velocity=0, time=2),
    Message('note_on', channel=0, note=38, velocity=0, time=105),
    Message('note_on', channel=0, note=38, velocity=127, time=37),
    Message('note_on', channel=0, note=38, velocity=0, time=18),
    Message('note_on', channel=0, note=38, velocity=127, time=30),
    Message('note_on', channel=0, note=38, velocity=0, time=192),
    Message('note_on', channel=0, note=33, velocity=127, time=0),
    Message('note_on', channel=0, note=33, velocity=0, time=116),
    Message('note_on', channel=0, note=33, velocity=127, time=28),
    Message('note_on', channel=0, note=33, velocity=0, time=17),
    Message('note_on', channel=0, note=33, velocity=127, time=31),
    Message('note_on', channel=0, note=33, velocity=0, time=132),
    Message('note_on', channel=0, note=28, velocity=127, time=60),
    Message('note_on', channel=0, note=28, velocity=0, time=104),
    Message('note_on', channel=0, note=28, velocity=127, time=40),
    Message('note_on', channel=0, note=28, velocity=0, time=22),
    Message('note_on', channel=0, note=28, velocity=127, time=26),
    Message('note_on', channel=0, note=28, velocity=0, time=166),
    Message('note_on', channel=0, note=31, velocity=127, time=26),
    Message('note_on', channel=0, note=31, velocity=0, time=114),
    Message('note_on', channel=0, note=31, velocity=127, time=30),
    Message('note_on', channel=0, note=31, velocity=0, time=19),
    Message('note_on', channel=0, note=31, velocity=127, time=29),
    Message('note_on', channel=0, note=43, velocity=127, time=96),
    Message('note_on', channel=0, note=31, velocity=0, time=2),
    Message('note_on', channel=0, note=43, velocity=0, time=45),
    Message('note_on', channel=0, note=31, velocity=127, time=1),
    Message('note_on', channel=0, note=38, velocity=127, time=48),
    Message('note_on', channel=0, note=31, velocity=0, time=2),
    Message('note_on', channel=0, note=38, velocity=0, time=105),
    Message('note_on', channel=0, note=38, velocity=127, time=37),
    Message('note_on', channel=0, note=38, velocity=0, time=18),
    Message('note_on', channel=0, note=38, velocity=127, time=30),
    Message('note_on', channel=0, note=38, velocity=0, time=192),
    Message('note_on', channel=0, note=33, velocity=127, time=0),
    Message('note_on', channel=0, note=33, velocity=0, time=116),
    Message('note_on', channel=0, note=33, velocity=127, time=28),
    Message('note_on', channel=0, note=33, velocity=0, time=17),
    Message('note_on', channel=0, note=33, velocity=127, time=31),
    Message('note_on', channel=0, note=33, velocity=0, time=132),
    Message('note_on', channel=0, note=28, velocity=127, time=60),
    Message('note_on', channel=0, note=28, velocity=0, time=741),
    MetaMessage('end_of_track', time=0)]),
  MidiTrack([
    MetaMessage('midi_port', port=0, time=0),
    Message('program_change', channel=1, program=1, time=0),
    Message('control_change', channel=1, control=10, value=107, time=0),
    Message('control_change', channel=1, control=10, value=107, time=19),
    Message('control_change', channel=1, control=10, value=107, time=5),
    Message('control_change', channel=1, control=10, value=107, time=4),
    Message('control_change', channel=1, control=10, value=107, time=5),
    Message('control_change', channel=1, control=10, value=107, time=5),
    Message('control_change', channel=1, control=10, value=107, time=5),
    Message('control_change', channel=1, control=10, value=107, time=5),
    Message('control_change', channel=1, control=10, value=107, time=4),
    Message('control_change', channel=1, control=10, value=107, time=5),
    Message('control_change', channel=1, control=10, value=107, time=5),
    Message('control_change', channel=1, control=10, value=107, time=5),
    Message('control_change', channel=1, control=10, value=107, time=5),
    Message('control_change', channel=1, control=10, value=107, time=4),
    Message('control_change', channel=1, control=10, value=107, time=5),
    Message('control_change', channel=1, control=10, value=107, time=5),
    Message('control_change', channel=1, control=10, value=107, time=5),
    Message('control_change', channel=1, control=10, value=107, time=5),
    Message('control_change', channel=1, control=10, value=107, time=4),
    Message('control_change', channel=1, control=10, value=107, time=5),
    Message('control_change', channel=1, control=10, value=107, time=5),
    Message('control_change', channel=1, control=10, value=107, time=5),
    Message('control_change', channel=1, control=10, value=107, time=5),
    Message('control_change', channel=1, control=10, value=107, time=4),
    Message('control_change', channel=1, control=10, value=107, time=5),
    Message('control_change', channel=1, control=10, value=107, time=5),
    Message('note_on', channel=1, note=40, velocity=127, time=221),
    Message('note_on', channel=1, note=47, velocity=127, time=12),
    Message('note_on', channel=1, note=52, velocity=127, time=11),
    Message('note_on', channel=1, note=71, velocity=127, time=6),
    Message('note_on', channel=1, note=67, velocity=127, time=0),
    Message('note_on', channel=1, note=64, velocity=127, time=1),
    Message('note_on', channel=1, note=52, velocity=0, time=37),
    Message('control_change', channel=1, control=64, value=127, time=2),
    Message('note_off', channel=1, note=71, velocity=0, time=28),
    Message('note_off', channel=1, note=67, velocity=0, time=5),
    Message('note_off', channel=1, note=64, velocity=0, time=2),
    Message('note_on', channel=1, note=59, velocity=127, time=23),
    Message('note_on', channel=1, note=59, velocity=0, time=27),
    Message('note_on', channel=1, note=40, velocity=0, time=5),
    Message('note_on', channel=1, note=47, velocity=0, time=5),
    Message('note_on', channel=1, note=64, velocity=127, time=10),
    Message('note_on', channel=1, note=64, velocity=0, time=10),
    Message('note_on', channel=1, note=40, velocity=127, time=37),
    Message('note_on', channel=1, note=67, velocity=127, time=0),
    Message('note_on', channel=1, note=71, velocity=127, time=1),
    Message('note_on', channel=1, note=64, velocity=127, time=0),
    Message('note_on', channel=1, note=40, velocity=0, time=89),
    Message('note_on', channel=1, note=67, velocity=0, time=4),
    Message('note_on', channel=1, note=64, velocity=0, time=0),
    Message('note_on', channel=1, note=71, velocity=0, time=2),
    Message('control_change', channel=1, control=64, value=0, time=54),
    Message('note_on', channel=1, note=71, velocity=127, time=39),
    Message('note_on', channel=1, note=62, velocity=127, time=0),
    Message('note_on', channel=1, note=43, velocity=127, time=0),
    Message('control_change', channel=1, control=64, value=127, time=19),
    Message('note_off', channel=1, note=62, velocity=0, time=10),
    Message('note_off', channel=1, note=71, velocity=0, time=1),
    Message('note_on', channel=1, note=69, velocity=127, time=20),
    Message('note_on', channel=1, note=60, velocity=127, time=1),
    Message('note_on', channel=1, note=50, velocity=127, time=0),
    Message('note_on', channel=1, note=60, velocity=0, time=11),
    Message('note_on', channel=1, note=69, velocity=0, time=2),
    Message('control_change', channel=1, control=64, value=0, time=30),
    Message('note_on', channel=1, note=67, velocity=127, time=3),
    Message('note_on', channel=1, note=59, velocity=127, time=1),
    Message('note_on', channel=1, note=55, velocity=127, time=3),
    Message('note_on', channel=1, note=59, velocity=0, time=25),
    Message('note_on', channel=1, note=67, velocity=0, time=3),
    Message('control_change', channel=1, control=64, value=127, time=0),
    Message('note_on', channel=1, note=57, velocity=127, time=17),
    Message('note_on', channel=1, note=69, velocity=127, time=0),
    Message('note_on', channel=1, note=60, velocity=127, time=1),
    Message('note_on', channel=1, note=60, velocity=0, time=13),
    Message('note_on', channel=1, note=69, velocity=0, time=3),
    Message('note_on', channel=1, note=59, velocity=127, time=32),
    Message('note_on', channel=1, note=71, velocity=127, time=1),
    Message('note_on', channel=1, note=62, velocity=127, time=1),
    Message('note_on', channel=1, note=57, velocity=0, time=2),
    Message('control_change', channel=1, control=64, value=0, time=3),
    Message('control_change', channel=1, control=64, value=127, time=36),
    Message('note_off', channel=1, note=62, velocity=0, time=44),
    Message('note_off', channel=1, note=71, velocity=0, time=2),
    Message('note_on', channel=1, note=67, velocity=127, time=7),
    Message('note_on', channel=1, note=67, velocity=0, time=34),
    Message('note_on', channel=1, note=64, velocity=127, time=13),
    Message('note_on', channel=1, note=50, velocity=0, time=13),
    Message('note_on', channel=1, note=64, velocity=0, time=2),
    Message('note_on', channel=1, note=43, velocity=0, time=1),
    Message('note_on', channel=1, note=55, velocity=0, time=2),
    Message('note_on', channel=1, note=59, velocity=0, time=2),
    Message('control_change', channel=1, control=64, value=0, time=19),
    Message('note_on', channel=1, note=66, velocity=127, time=10),
    Message('note_on', channel=1, note=62, velocity=127, time=0),
    Message('note_on', channel=1, note=69, velocity=82, time=1),
    Message('note_on', channel=1, note=38, velocity=127, time=1),
    Message('note_on', channel=1, note=45, velocity=127, time=45),
    Message('note_on', channel=1, note=50, velocity=127, time=49),
    Message('note_on', channel=1, note=52, velocity=127, time=51),
    Message('note_on', channel=1, note=50, velocity=0, time=10),
    Message('note_on', channel=1, note=66, velocity=0, time=19),
    Message('note_on', channel=1, note=62, velocity=0, time=8),
    Message('note_on', channel=1, note=69, velocity=0, time=0),
    Message('note_on', channel=1, note=54, velocity=127, time=12),
    Message('note_on', channel=1, note=52, velocity=0, time=4),
    Message('note_on', channel=1, note=69, velocity=127, time=3),
    Message('note_on', channel=1, note=62, velocity=127, time=1),
    Message('control_change', channel=1, control=64, value=127, time=77),
    Message('note_off', channel=1, note=62, velocity=0, time=6),
    Message('note_off', channel=1, note=69, velocity=0, time=5),
    Message('note_off', channel=1, note=38, velocity=0, time=29),
    Message('note_off', channel=1, note=45, velocity=0, time=5),
    Message('control_change', channel=1, control=64, value=0, time=8),
    Message('note_on', channel=1, note=64, velocity=127, time=1),
    Message('note_on', channel=1, note=69, velocity=127, time=0),
    Message('control_change', channel=1, control=64, value=127, time=15),
    Message('note_off', channel=1, note=64, velocity=0, time=4),
    Message('note_off', channel=1, note=69, velocity=0, time=3),
    Message('note_on', channel=1, note=66, velocity=127, time=1),
    Message('note_on', channel=1, note=71, velocity=127, time=2),
    Message('note_on', channel=1, note=54, velocity=0, time=6),
    Message('control_change', channel=1, control=64, value=0, time=4),
    Message('note_off', channel=1, note=66, velocity=0, time=1),
    Message('note_off', channel=1, note=71, velocity=0, time=7),
    Message('note_on', channel=1, note=64, velocity=127, time=6),
    Message('note_on', channel=1, note=69, velocity=127, time=1),
    Message('note_on', channel=1, note=45, velocity=127, time=3),
    Message('control_change', channel=1, control=64, value=127, time=19),
    Message('note_off', channel=1, note=69, velocity=0, time=12),
    Message('note_off', channel=1, note=64, velocity=0, time=1),
    Message('note_on', channel=1, note=62, velocity=127, time=13),
    Message('note_on', channel=1, note=67, velocity=127, time=1),
    Message('control_change', channel=1, control=64, value=0, time=1),
    Message('note_on', channel=1, note=52, velocity=127, time=4),
    Message('control_change', channel=1, control=64, value=127, time=17),
    Message('note_off', channel=1, note=62, velocity=0, time=11),
    Message('note_off', channel=1, note=67, velocity=0, time=2),
    Message('note_on', channel=1, note=59, velocity=127, time=17),
    Message('control_change', channel=1, control=64, value=0, time=0),
    Message('note_on', channel=1, note=64, velocity=127, time=4),
    Message('note_on', channel=1, note=57, velocity=127, time=0),
    Message('note_on', channel=1, note=52, velocity=0, time=11),
    Message('control_change', channel=1, control=64, value=127, time=7),
    Message('note_off', channel=1, note=64, velocity=0, time=15),
    Message('control_change', channel=1, control=64, value=0, time=14),
    Message('note_on', channel=1, note=52, velocity=127, time=1),
    Message('note_on', channel=1, note=59, velocity=0, time=1),
    Message('note_on', channel=1, note=62, velocity=127, time=0),
    Message('note_on', channel=1, note=57, velocity=127, time=2),
    Message('note_on', channel=1, note=57, velocity=0, time=5),
    Message('note_on', channel=1, note=62, velocity=0, time=44),
    Message('note_on', channel=1, note=57, velocity=0, time=0),
    Message('note_on', channel=1, note=64, velocity=127, time=3),
    Message('note_on', channel=1, note=59, velocity=127, time=1),
    Message('note_on', channel=1, note=57, velocity=117, time=0),
    Message('note_on', channel=1, note=64, velocity=0, time=140),
    Message('note_on', channel=1, note=52, velocity=0, time=3),
    Message('note_on', channel=1, note=57, velocity=0, time=11),
    Message('note_on', channel=1, note=45, velocity=0, time=4),
    Message('note_on', channel=1, note=59, velocity=0, time=2),
    Message('note_on', channel=1, note=40, velocity=127, time=30),
    Message('note_on', channel=1, note=47, velocity=127, time=47),
    Message('control_change', channel=1, control=64, value=127, time=1),
    Message('note_off', channel=1, note=47, velocity=0, time=23),
    Message('note_off', channel=1, note=40, velocity=0, time=5),
    Message('note_on', channel=1, note=59, velocity=127, time=18),
    Message('note_on', channel=1, note=55, velocity=127, time=0),
    Message('note_on', channel=1, note=55, velocity=0, time=10),
    Message('note_on', channel=1, note=59, velocity=0, time=4),
    Message('note_on', channel=1, note=52, velocity=127, time=30),
    Message('note_on', channel=1, note=64, velocity=127, time=1),
    Message('note_on', channel=1, note=64, velocity=0, time=14),
    Message('note_on', channel=1, note=59, velocity=127, time=30),
    Message('note_on', channel=1, note=59, velocity=0, time=33),
    Message('note_on', channel=1, note=52, velocity=0, time=4),
    Message('note_on', channel=1, note=71, velocity=127, time=4),
    Message('note_on', channel=1, note=71, velocity=0, time=9),
    Message('note_on', channel=1, note=76, velocity=127, time=41),
    Message('note_on', channel=1, note=76, velocity=0, time=12),
    Message('note_on', channel=1, note=59, velocity=127, time=78),
    Message('note_on', channel=1, note=62, velocity=127, time=0),
    Message('note_on', channel=1, note=55, velocity=126, time=1),
    Message('control_change', channel=1, control=64, value=0, time=3),
    Message('note_on', channel=1, note=43, velocity=127, time=1),
    Message('control_change', channel=1, control=64, value=127, time=17),
    Message('note_off', channel=1, note=55, velocity=0, time=11),
    Message('note_off', channel=1, note=59, velocity=0, time=3),
    Message('note_off', channel=1, note=62, velocity=0, time=3),
    Message('note_on', channel=1, note=50, velocity=127, time=10),
    Message('note_on', channel=1, note=50, velocity=0, time=15),
    Message('note_on', channel=1, note=74, velocity=127, time=30),
    Message('note_on', channel=1, note=69, velocity=127, time=1),
    Message('note_on', channel=1, note=43, velocity=0, time=6),
    Message('note_on', channel=1, note=69, velocity=0, time=20),
    Message('note_on', channel=1, note=74, velocity=0, time=7),
    Message('note_on', channel=1, note=71, velocity=127, time=17),
    Message('note_on', channel=1, note=67, velocity=127, time=1),
    Message('note_on', channel=1, note=74, velocity=127, time=1),
    Message('note_on', channel=1, note=67, velocity=0, time=10),
    Message('note_on', channel=1, note=71, velocity=0, time=2),
    Message('note_on', channel=1, note=74, velocity=0, time=2),
    Message('note_on', channel=1, note=50, velocity=127, time=40),
    Message('note_on', channel=1, note=50, velocity=0, time=31),
    Message('note_on', channel=1, note=81, velocity=127, time=17),
    Message('note_on', channel=1, note=86, velocity=127, time=0),
    Message('note_on', channel=1, note=83, velocity=127, time=23),
    Message('note_on', channel=1, note=81, velocity=0, time=3),
    Message('note_on', channel=1, note=83, velocity=0, time=22),
    Message('note_on', channel=1, note=86, velocity=0, time=1),
    Message('note_on', channel=1, note=79, velocity=127, time=0),
    Message('note_on', channel=1, note=79, velocity=0, time=16),
    Message('note_on', channel=1, note=62, velocity=127, time=82),
    Message('note_on', channel=1, note=69, velocity=127, time=0),
    Message('note_on', channel=1, note=66, velocity=127, time=0),
    Message('note_on', channel=1, note=50, velocity=127, time=0),
    Message('control_change', channel=1, control=64, value=0, time=6),
    Message('control_change', channel=1, control=64, value=127, time=30),
    Message('note_on', channel=1, note=57, velocity=127, time=12),
    Message('note_on', channel=1, note=62, velocity=0, time=10),
    Message('note_on', channel=1, note=69, velocity=0, time=12),
    Message('note_on', channel=1, note=57, velocity=0, time=10),
    Message('note_on', channel=1, note=66, velocity=0, time=3),
    Message('note_on', channel=1, note=50, velocity=0, time=7),
    Message('note_on', channel=1, note=62, velocity=127, time=5),
    Message('note_on', channel=1, note=62, velocity=0, time=30),
    Message('note_on', channel=1, note=66, velocity=127, time=11),
    Message('note_on', channel=1, note=66, velocity=0, time=38),
    Message('note_on', channel=1, note=38, velocity=127, time=9),
    Message('note_on', channel=1, note=69, velocity=127, time=0),
    Message('note_on', channel=1, note=38, velocity=0, time=30),
    Message('note_on', channel=1, note=69, velocity=0, time=15),
    Message('note_on', channel=1, note=62, velocity=127, time=5),
    Message('note_on', channel=1, note=62, velocity=0, time=41),
    Message('note_on', channel=1, note=64, velocity=127, time=9),
    Message('note_on', channel=1, note=64, velocity=0, time=17),
    Message('control_change', channel=1, control=64, value=0, time=73),
    Message('note_on', channel=1, note=45, velocity=127, time=2),
    Message('note_on', channel=1, note=69, velocity=127, time=0),
    Message('note_on', channel=1, note=64, velocity=127, time=0),
    Message('control_change', channel=1, control=64, value=127, time=9),
    Message('note_off', channel=1, note=64, velocity=0, time=16),
    Message('note_off', channel=1, note=69, velocity=0, time=0),
    Message('control_change', channel=1, control=64, value=0, time=22),
    Message('note_on', channel=1, note=67, velocity=127, time=7),
    Message('note_on', channel=1, note=62, velocity=127, time=0),
    Message('control_change', channel=1, control=64, value=127, time=13),
    Message('note_off', channel=1, note=67, velocity=0, time=11),
    Message('note_off', channel=1, note=62, velocity=0, time=2),
    Message('control_change', channel=1, control=64, value=0, time=21),
    Message('note_on', channel=1, note=64, velocity=127, time=4),
    Message('note_on', channel=1, note=59, velocity=127, time=0),
    Message('control_change', channel=1, control=64, value=127, time=14),
    Message('note_off', channel=1, note=64, velocity=0, time=15),
    Message('note_off', channel=1, note=59, velocity=0, time=2),
    Message('control_change', channel=1, control=64, value=0, time=17),
    Message('note_on', channel=1, note=62, velocity=127, time=4),
    Message('note_on', channel=1, note=57, velocity=127, time=2),
    Message('control_change', channel=1, control=64, value=127, time=13),
    Message('note_off', channel=1, note=57, velocity=0, time=13),
    Message('note_off', channel=1, note=62, velocity=0, time=1),
    Message('control_change', channel=1, control=64, value=0, time=17),
    Message('note_on', channel=1, note=59, velocity=127, time=6),
    Message('note_on', channel=1, note=64, velocity=127, time=0),
    Message('note_on', channel=1, note=59, velocity=0, time=406),
    Message('note_on', channel=1, note=45, velocity=0, time=30),
    Message('note_on', channel=1, note=64, velocity=0, time=11),
    Message('note_on', channel=1, note=52, velocity=127, time=113),
    Message('note_on', channel=1, note=40, velocity=127, time=0),
    Message('note_on', channel=1, note=59, velocity=127, time=0),
    Message('note_on', channel=1, note=55, velocity=127, time=0),
    Message('control_change', channel=1, control=64, value=127, time=80),
    Message('note_off', channel=1, note=40, velocity=0, time=32),
    Message('note_off', channel=1, note=52, velocity=0, time=29),
    Message('note_off', channel=1, note=59, velocity=0, time=2),
    Message('note_on', channel=1, note=40, velocity=127, time=1),
    Message('note_on', channel=1, note=55, velocity=0, time=7),
    Message('note_on', channel=1, note=40, velocity=0, time=24),
    Message('note_on', channel=1, note=52, velocity=127, time=17),
    Message('note_on', channel=1, note=52, velocity=0, time=26),
    Message('note_on', channel=1, note=59, velocity=127, time=22),
    Message('note_on', channel=1, note=55, velocity=127, time=0),
    Message('note_on', channel=1, note=55, velocity=0, time=32),
    Message('note_on', channel=1, note=59, velocity=0, time=2),
    Message('control_change', channel=1, control=64, value=0, time=102),
    Message('note_on', channel=1, note=55, velocity=127, time=8),
    Message('note_on', channel=1, note=43, velocity=127, time=0),
    Message('note_on', channel=1, note=62, velocity=127, time=0),
    Message('note_on', channel=1, note=59, velocity=127, time=0),
    Message('control_change', channel=1, control=64, value=127, time=26),
    Message('note_off', channel=1, note=55, velocity=0, time=16),
    Message('note_off', channel=1, note=59, velocity=0, time=8),
    Message('note_off', channel=1, note=62, velocity=0, time=4),
    Message('note_on', channel=1, note=50, velocity=127, time=42),
    Message('note_on', channel=1, note=50, velocity=0, time=18),
    Message('note_on', channel=1, note=43, velocity=0, time=17),
    Message('note_on', channel=1, note=74, velocity=127, time=13),
    Message('note_on', channel=1, note=71, velocity=127, time=0),
    Message('note_on', channel=1, note=67, velocity=127, time=0),
    Message('note_on', channel=1, note=74, velocity=0, time=16),
    Message('note_on', channel=1, note=71, velocity=0, time=2),
    Message('note_on', channel=1, note=67, velocity=0, time=6),
    Message('note_on', channel=1, note=55, velocity=127, time=72),
    Message('note_on', channel=1, note=55, velocity=0, time=38),
    Message('note_on', channel=1, note=55, velocity=127, time=10),
    Message('note_on', channel=1, note=62, velocity=127, time=0),
    Message('note_on', channel=1, note=59, velocity=127, time=0),
    Message('note_on', channel=1, note=55, velocity=0, time=16),
    Message('note_on', channel=1, note=59, velocity=0, time=2),
    Message('note_on', channel=1, note=62, velocity=0, time=6),
    Message('control_change', channel=1, control=64, value=0, time=67),
    Message('note_on', channel=1, note=69, velocity=127, time=5),
    Message('note_on', channel=1, note=57, velocity=127, time=0),
    Message('note_on', channel=1, note=66, velocity=127, time=0),
    Message('note_on', channel=1, note=62, velocity=127, time=0),
    Message('note_on', channel=1, note=50, velocity=127, time=0),
    Message('control_change', channel=1, control=64, value=127, time=39),
    Message('note_off', channel=1, note=57, velocity=0, time=61),
    Message('note_off', channel=1, note=62, velocity=0, time=10),
    Message('note_off', channel=1, note=69, velocity=0, time=9),
    Message('note_off', channel=1, note=66, velocity=0, time=2),
    Message('note_on', channel=1, note=69, velocity=123, time=23),
    Message('note_on', channel=1, note=62, velocity=127, time=0),
    Message('note_on', channel=1, note=69, velocity=0, time=16),
    Message('note_on', channel=1, note=57, velocity=127, time=32),
    Message('note_on', channel=1, note=62, velocity=0, time=17),
    Message('note_on', channel=1, note=57, velocity=0, time=8),
    Message('note_on', channel=1, note=50, velocity=0, time=8),
    Message('note_on', channel=1, note=64, velocity=127, time=15),
    Message('note_on', channel=1, note=69, velocity=127, time=0),
    Message('note_on', channel=1, note=69, velocity=0, time=32),
    Message('note_on', channel=1, note=64, velocity=0, time=2),
    Message('control_change', channel=1, control=64, value=0, time=108),
    Message('note_on', channel=1, note=45, velocity=127, time=2),
    Message('note_on', channel=1, note=55, velocity=127, time=0),
    Message('note_on', channel=1, note=64, velocity=127, time=0),
    Message('note_on', channel=1, note=60, velocity=127, time=0),
    Message('control_change', channel=1, control=64, value=127, time=42),
    Message('note_on', channel=1, note=52, velocity=127, time=54),
    Message('note_on', channel=1, note=52, velocity=0, time=17),
    Message('note_on', channel=1, note=55, velocity=0, time=2),
    Message('note_on', channel=1, note=64, velocity=0, time=4),
    Message('note_on', channel=1, note=60, velocity=0, time=1),
    Message('note_on', channel=1, note=55, velocity=127, time=24),
    Message('note_on', channel=1, note=64, velocity=127, time=0),
    Message('note_on', channel=1, note=60, velocity=127, time=0),
    Message('note_on', channel=1, note=64, velocity=0, time=35),
    Message('note_on', channel=1, note=60, velocity=0, time=4),
    Message('note_on', channel=1, note=55, velocity=0, time=1),
    Message('note_on', channel=1, note=52, velocity=127, time=56),
    Message('note_on', channel=1, note=52, velocity=0, time=24),
    Message('note_on', channel=1, note=45, velocity=0, time=2),
    Message('note_on', channel=1, note=60, velocity=127, time=22),
    Message('note_on', channel=1, note=55, velocity=127, time=0),
    Message('note_on', channel=1, note=64, velocity=127, time=0),
    Message('note_on', channel=1, note=60, velocity=0, time=17),
    Message('note_on', channel=1, note=55, velocity=0, time=1),
    Message('note_on', channel=1, note=64, velocity=0, time=4),
    Message('control_change', channel=1, control=64, value=0, time=3),
    Message('note_on', channel=1, note=52, velocity=127, time=71),
    Message('note_on', channel=1, note=40, velocity=127, time=0),
    Message('note_on', channel=1, note=59, velocity=127, time=0),
    Message('note_on', channel=1, note=55, velocity=127, time=0),
    Message('control_change', channel=1, control=64, value=127, time=80),
    Message('note_off', channel=1, note=40, velocity=0, time=32),
    Message('note_off', channel=1, note=52, velocity=0, time=29),
    Message('note_off', channel=1, note=59, velocity=0, time=2),
    Message('note_on', channel=1, note=40, velocity=127, time=1),
    Message('note_on', channel=1, note=55, velocity=0, time=7),
    Message('note_on', channel=1, note=40, velocity=0, time=24),
    Message('note_on', channel=1, note=52, velocity=127, time=17),
    Message('note_on', channel=1, note=52, velocity=0, time=26),
    Message('note_on', channel=1, note=59, velocity=127, time=22),
    Message('note_on', channel=1, note=55, velocity=127, time=0),
    Message('note_on', channel=1, note=55, velocity=0, time=32),
    Message('note_on', channel=1, note=59, velocity=0, time=2),
    Message('control_change', channel=1, control=64, value=0, time=102),
    Message('note_on', channel=1, note=55, velocity=127, time=8),
    Message('note_on', channel=1, note=43, velocity=127, time=0),
    Message('note_on', channel=1, note=62, velocity=127, time=0),
    Message('note_on', channel=1, note=59, velocity=127, time=0),
    Message('control_change', channel=1, control=64, value=127, time=26),
    Message('note_off', channel=1, note=55, velocity=0, time=16),
    Message('note_off', channel=1, note=59, velocity=0, time=8),
    Message('note_off', channel=1, note=62, velocity=0, time=4),
    Message('note_on', channel=1, note=50, velocity=127, time=42),
    Message('note_on', channel=1, note=50, velocity=0, time=18),
    Message('note_on', channel=1, note=43, velocity=0, time=17),
    Message('note_on', channel=1, note=74, velocity=127, time=13),
    Message('note_on', channel=1, note=71, velocity=127, time=0),
    Message('note_on', channel=1, note=67, velocity=127, time=0),
    Message('note_on', channel=1, note=74, velocity=0, time=16),
    Message('note_on', channel=1, note=71, velocity=0, time=2),
    Message('note_on', channel=1, note=67, velocity=0, time=6),
    Message('note_on', channel=1, note=55, velocity=127, time=72),
    Message('note_on', channel=1, note=55, velocity=0, time=38),
    Message('note_on', channel=1, note=55, velocity=127, time=10),
    Message('note_on', channel=1, note=62, velocity=127, time=0),
    Message('note_on', channel=1, note=59, velocity=127, time=0),
    Message('note_on', channel=1, note=55, velocity=0, time=16),
    Message('note_on', channel=1, note=59, velocity=0, time=2),
    Message('note_on', channel=1, note=62, velocity=0, time=6),
    Message('control_change', channel=1, control=64, value=0, time=67),
    Message('note_on', channel=1, note=69, velocity=127, time=5),
    Message('note_on', channel=1, note=57, velocity=127, time=0),
    Message('note_on', channel=1, note=66, velocity=127, time=0),
    Message('note_on', channel=1, note=62, velocity=127, time=0),
    Message('note_on', channel=1, note=50, velocity=127, time=0),
    Message('control_change', channel=1, control=64, value=127, time=39),
    Message('note_off', channel=1, note=57, velocity=0, time=61),
    Message('note_off', channel=1, note=62, velocity=0, time=10),
    Message('note_off', channel=1, note=69, velocity=0, time=9),
    Message('note_off', channel=1, note=66, velocity=0, time=2),
    Message('note_on', channel=1, note=69, velocity=123, time=23),
    Message('note_on', channel=1, note=62, velocity=127, time=0),
    Message('note_on', channel=1, note=69, velocity=0, time=16),
    Message('note_on', channel=1, note=57, velocity=127, time=32),
    Message('note_on', channel=1, note=62, velocity=0, time=17),
    Message('note_on', channel=1, note=57, velocity=0, time=8),
    Message('note_on', channel=1, note=50, velocity=0, time=8),
    Message('note_on', channel=1, note=64, velocity=127, time=15),
    Message('note_on', channel=1, note=69, velocity=127, time=0),
    Message('note_on', channel=1, note=69, velocity=0, time=32),
    Message('note_on', channel=1, note=64, velocity=0, time=2),
    Message('control_change', channel=1, control=64, value=0, time=108),
    Message('note_on', channel=1, note=45, velocity=127, time=2),
    Message('note_on', channel=1, note=55, velocity=127, time=0),
    Message('note_on', channel=1, note=64, velocity=127, time=0),
    Message('note_on', channel=1, note=60, velocity=127, time=0),
    Message('control_change', channel=1, control=64, value=127, time=42),
    Message('note_on', channel=1, note=52, velocity=127, time=54),
    Message('note_on', channel=1, note=52, velocity=0, time=17),
    Message('note_on', channel=1, note=55, velocity=0, time=2),
    Message('note_on', channel=1, note=64, velocity=0, time=4),
    Message('note_on', channel=1, note=60, velocity=0, time=1),
    Message('note_on', channel=1, note=55, velocity=127, time=24),
    Message('note_on', channel=1, note=64, velocity=127, time=0),
    Message('note_on', channel=1, note=60, velocity=127, time=0),
    Message('note_on', channel=1, note=64, velocity=0, time=35),
    Message('note_on', channel=1, note=60, velocity=0, time=4),
    Message('note_on', channel=1, note=55, velocity=0, time=1),
    Message('note_on', channel=1, note=52, velocity=127, time=56),
    Message('note_on', channel=1, note=52, velocity=0, time=24),
    Message('note_on', channel=1, note=45, velocity=0, time=2),
    Message('note_on', channel=1, note=60, velocity=127, time=22),
    Message('note_on', channel=1, note=55, velocity=127, time=0),
    Message('note_on', channel=1, note=64, velocity=127, time=0),
    Message('note_on', channel=1, note=60, velocity=0, time=17),
    Message('note_on', channel=1, note=55, velocity=0, time=1),
    Message('note_on', channel=1, note=64, velocity=0, time=4),
    Message('control_change', channel=1, control=64, value=0, time=3),
    Message('note_on', channel=1, note=52, velocity=127, time=71),
    Message('note_on', channel=1, note=55, velocity=127, time=0),
    Message('note_on', channel=1, note=40, velocity=127, time=0),
    Message('note_on', channel=1, note=59, velocity=127, time=0),
    Message('control_change', channel=1, control=64, value=127, time=86),
    Message('note_off', channel=1, note=52, velocity=0, time=20),
    Message('note_off', channel=1, note=59, velocity=0, time=2),
    Message('note_off', channel=1, note=55, velocity=0, time=1),
    Message('note_on', channel=1, note=52, velocity=127, time=35),
    Message('note_on', channel=1, note=59, velocity=127, time=0),
    Message('note_on', channel=1, note=55, velocity=127, time=0),
    Message('note_on', channel=1, note=52, velocity=0, time=18),
    Message('note_on', channel=1, note=55, velocity=0, time=2),
    Message('note_on', channel=1, note=59, velocity=0, time=2),
    Message('note_on', channel=1, note=52, velocity=127, time=74),
    Message('note_on', channel=1, note=40, velocity=0, time=16),
    Message('note_on', channel=1, note=52, velocity=0, time=6),
    Message('note_on', channel=1, note=55, velocity=127, time=26),
    Message('note_on', channel=1, note=52, velocity=127, time=0),
    Message('note_on', channel=1, note=59, velocity=127, time=0),
    Message('note_on', channel=1, note=55, velocity=0, time=14),
    Message('note_on', channel=1, note=52, velocity=0, time=1),
    Message('note_on', channel=1, note=59, velocity=0, time=6),
    Message('control_change', channel=1, control=64, value=0, time=60),
    Message('note_on', channel=1, note=62, velocity=127, time=15),
    Message('note_on', channel=1, note=59, velocity=127, time=0),
    Message('note_on', channel=1, note=55, velocity=127, time=0),
    Message('note_on', channel=1, note=43, velocity=127, time=0),
    Message('control_change', channel=1, control=64, value=127, time=42),
    Message('note_on', channel=1, note=50, velocity=127, time=54),
    Message('note_on', channel=1, note=55, velocity=0, time=1),
    Message('note_on', channel=1, note=59, velocity=0, time=9),
    Message('note_on', channel=1, note=62, velocity=0, time=2),
    Message('note_on', channel=1, note=50, velocity=0, time=6),
    Message('note_on', channel=1, note=62, velocity=127, time=30),
    Message('note_on', channel=1, note=55, velocity=127, time=0),
    Message('note_on', channel=1, note=50, velocity=127, time=48),
    Message('note_on', channel=1, note=62, velocity=0, time=1),
    Message('note_on', channel=1, note=55, velocity=0, time=4),
    Message('note_on', channel=1, note=50, velocity=0, time=27),
    Message('note_on', channel=1, note=43, velocity=0, time=7),
    Message('note_on', channel=1, note=59, velocity=127, time=9),
    Message('note_on', channel=1, note=62, velocity=127, time=0),
    Message('note_on', channel=1, note=59, velocity=0, time=20),
    Message('note_on', channel=1, note=62, velocity=0, time=6),
    Message('note_on', channel=1, note=57, velocity=127, time=118),
    Message('note_on', channel=1, note=50, velocity=127, time=0),
    Message('note_on', channel=1, note=62, velocity=127, time=0),
    Message('note_on', channel=1, note=66, velocity=127, time=0),
    Message('note_on', channel=1, note=69, velocity=127, time=0),
    Message('control_change', channel=1, control=64, value=0, time=1),
    Message('control_change', channel=1, control=64, value=127, time=51),
    Message('note_off', channel=1, note=62, velocity=0, time=23),
    Message('note_off', channel=1, note=57, velocity=0, time=19),
    Message('note_on', channel=1, note=62, velocity=127, time=2),
    Message('note_on', channel=1, note=66, velocity=0, time=43),
    Message('note_on', channel=1, note=69, velocity=0, time=1),
    Message('note_on', channel=1, note=57, velocity=127, time=4),
    Message('note_on', channel=1, note=62, velocity=0, time=1),
    Message('note_on', channel=1, note=57, velocity=0, time=35),
    Message('note_on', channel=1, note=66, velocity=127, time=12),
    Message('note_on', channel=1, note=69, velocity=126, time=0),
    Message('note_on', channel=1, note=62, velocity=127, time=0),
    Message('note_on', channel=1, note=50, velocity=0, time=12),
    Message('note_on', channel=1, note=66, velocity=0, time=14),
    Message('note_on', channel=1, note=62, velocity=0, time=1),
    Message('note_on', channel=1, note=69, velocity=0, time=1),
    Message('note_on', channel=1, note=66, velocity=127, time=20),
    Message('note_on', channel=1, note=69, velocity=127, time=0),
    Message('note_on', channel=1, note=62, velocity=127, time=0),
    Message('note_on', channel=1, note=66, velocity=0, time=30),
    Message('note_on', channel=1, note=69, velocity=0, time=2),
    Message('note_on', channel=1, note=62, velocity=0, time=1),
    Message('control_change', channel=1, control=64, value=0, time=103),
    Message('note_on', channel=1, note=45, velocity=127, time=8),
    Message('note_on', channel=1, note=61, velocity=127, time=0),
    Message('note_on', channel=1, note=52, velocity=127, time=0),
    Message('note_on', channel=1, note=64, velocity=127, time=0),
    Message('note_on', channel=1, note=57, velocity=127, time=0),
    Message('control_change', channel=1, control=64, value=127, time=49),
    Message('note_off', channel=1, note=57, velocity=0, time=19),
    Message('note_off', channel=1, note=61, velocity=0, time=0),
    Message('note_off', channel=1, note=64, velocity=0, time=0),
    Message('note_on', channel=1, note=64, velocity=127, time=28),
    Message('note_on', channel=1, note=61, velocity=127, time=0),
    Message('note_on', channel=1, note=57, velocity=127, time=0),
    Message('note_on', channel=1, note=61, velocity=0, time=13),
    Message('note_on', channel=1, note=64, velocity=0, time=0),
    Message('note_on', channel=1, note=52, velocity=0, time=0),
    Message('note_on', channel=1, note=57, velocity=0, time=4),
    Message('note_on', channel=1, note=61, velocity=127, time=31),
    Message('note_on', channel=1, note=64, velocity=127, time=0),
    Message('note_on', channel=1, note=57, velocity=127, time=0),
    Message('note_on', channel=1, note=61, velocity=0, time=44),
    Message('note_on', channel=1, note=57, velocity=0, time=1),
    Message('note_on', channel=1, note=64, velocity=0, time=3),
    Message('note_on', channel=1, note=52, velocity=127, time=0),
    Message('note_on', channel=1, note=61, velocity=127, time=48),
    Message('note_on', channel=1, note=55, velocity=127, time=0),
    Message('note_on', channel=1, note=64, velocity=127, time=0),
    Message('note_on', channel=1, note=52, velocity=0, time=6),
    Message('note_on', channel=1, note=45, velocity=0, time=25),
    Message('note_on', channel=1, note=61, velocity=0, time=15),
    Message('note_on', channel=1, note=52, velocity=127, time=2),
    Message('note_on', channel=1, note=64, velocity=0, time=3),
    Message('note_on', channel=1, note=55, velocity=0, time=2),
    Message('note_on', channel=1, note=52, velocity=0, time=18),
    Message('control_change', channel=1, control=64, value=0, time=67),
    Message('note_on', channel=1, note=55, velocity=127, time=6),
    Message('note_on', channel=1, note=59, velocity=127, time=0),
    Message('note_on', channel=1, note=52, velocity=127, time=0),
    Message('control_change', channel=1, control=64, value=127, time=36),
    Message('note_off', channel=1, note=52, velocity=0, time=33),
    Message('note_off', channel=1, note=59, velocity=0, time=1),
    Message('note_off', channel=1, note=55, velocity=0, time=0),
    Message('note_on', channel=1, note=52, velocity=127, time=26),
    Message('note_on', channel=1, note=52, velocity=0, time=34),
    Message('note_on', channel=1, note=40, velocity=127, time=14),
    Message('note_on', channel=1, note=40, velocity=0, time=38),
    Message('note_on', channel=1, note=52, velocity=127, time=10),
    Message('note_on', channel=1, note=52, velocity=0, time=36),
    Message('note_on', channel=1, note=55, velocity=127, time=12),
    Message('note_on', channel=1, note=55, velocity=0, time=34),
    Message('note_on', channel=1, note=59, velocity=127, time=14),
    Message('note_on', channel=1, note=59, velocity=0, time=28),
    Message('control_change', channel=1, control=64, value=0, time=66),
    Message('note_on', channel=1, note=43, velocity=127, time=2),
    Message('note_on', channel=1, note=55, velocity=127, time=0),
    Message('note_on', channel=1, note=59, velocity=127, time=0),
    Message('note_on', channel=1, note=62, velocity=127, time=0),
    Message('control_change', channel=1, control=64, value=127, time=50),
    Message('note_on', channel=1, note=50, velocity=127, time=46),
    Message('note_on', channel=1, note=55, velocity=0, time=4),
    Message('note_on', channel=1, note=62, velocity=0, time=6),
    Message('note_on', channel=1, note=59, velocity=0, time=1),
    Message('note_on', channel=1, note=50, velocity=0, time=12),
    Message('note_on', channel=1, note=59, velocity=127, time=25),
    Message('note_on', channel=1, note=62, velocity=127, time=0),
    Message('note_on', channel=1, note=55, velocity=127, time=0),
    Message('note_on', channel=1, note=59, velocity=0, time=18),
    Message('note_on', channel=1, note=55, velocity=0, time=2),
    Message('note_on', channel=1, note=62, velocity=0, time=3),
    Message('note_on', channel=1, note=59, velocity=127, time=73),
    Message('note_on', channel=1, note=55, velocity=127, time=0),
    Message('note_on', channel=1, note=62, velocity=127, time=0),
    Message('note_on', channel=1, note=59, velocity=0, time=17),
    Message('note_on', channel=1, note=55, velocity=0, time=1),
    Message('note_on', channel=1, note=62, velocity=0, time=3),
    Message('note_on', channel=1, note=43, velocity=0, time=16),
    Message('note_on', channel=1, note=62, velocity=127, time=59),
    Message('note_on', channel=1, note=59, velocity=127, time=0),
    Message('note_on', channel=1, note=55, velocity=127, time=0),
    Message('note_on', channel=1, note=59, velocity=0, time=15),
    Message('note_on', channel=1, note=55, velocity=0, time=2),
    Message('note_on', channel=1, note=62, velocity=0, time=3),
    Message('control_change', channel=1, control=64, value=0, time=20),
    Message('note_on', channel=1, note=57, velocity=127, time=8),
    Message('note_on', channel=1, note=50, velocity=127, time=0),
    Message('control_change', channel=1, control=64, value=127, time=38),
    Message('note_on', channel=1, note=66, velocity=127, time=34),
    Message('note_on', channel=1, note=62, velocity=127, time=0),
    Message('control_change', channel=1, control=64, value=0, time=1),
    Message('note_off', channel=1, note=57, velocity=0, time=9),
    Message('note_off', channel=1, note=66, velocity=0, time=6),
    Message('control_change', channel=1, control=64, value=127, time=0),
    Message('note_off', channel=1, note=62, velocity=0, time=2),
    Message('note_on', channel=1, note=69, velocity=127, time=6),
    Message('note_on', channel=1, note=69, velocity=0, time=15),
    Message('note_on', channel=1, note=66, velocity=127, time=33),
    Message('note_on', channel=1, note=69, velocity=127, time=0),
    Message('note_on', channel=1, note=62, velocity=127, time=0),
    Message('note_on', channel=1, note=57, velocity=127, time=48),
    Message('note_on', channel=1, note=62, velocity=0, time=1),
    Message('note_on', channel=1, note=69, velocity=0, time=0),
    Message('note_on', channel=1, note=66, velocity=0, time=1),
    Message('note_on', channel=1, note=57, velocity=0, time=21),
    Message('note_on', channel=1, note=50, velocity=0, time=13),
    Message('note_on', channel=1, note=69, velocity=127, time=12),
    Message('note_on', channel=1, note=66, velocity=127, time=0),
    Message('note_on', channel=1, note=62, velocity=127, time=0),
    Message('note_on', channel=1, note=62, velocity=0, time=28),
    Message('note_on', channel=1, note=69, velocity=0, time=3),
    Message('note_on', channel=1, note=66, velocity=0, time=4),
    Message('note_on', channel=1, note=62, velocity=127, time=13),
    Message('note_on', channel=1, note=62, velocity=0, time=20),
    Message('note_on', channel=1, note=45, velocity=127, time=28),
    Message('control_change', channel=1, control=64, value=0, time=32),
    Message('note_on', channel=1, note=57, velocity=127, time=16),
    Message('note_on', channel=1, note=61, velocity=127, time=0),
    Message('note_on', channel=1, note=64, velocity=127, time=0),
    Message('control_change', channel=1, control=64, value=127, time=40),
    Message('note_on', channel=1, note=52, velocity=127, time=8),
    Message('note_on', channel=1, note=61, velocity=0, time=7),
    Message('note_on', channel=1, note=57, velocity=0, time=0),
    Message('note_on', channel=1, note=64, velocity=0, time=2),
    Message('note_on', channel=1, note=52, velocity=0, time=20),
    Message('note_on', channel=1, note=61, velocity=126, time=19),
    Message('note_on', channel=1, note=64, velocity=127, time=0),
    Message('note_on', channel=1, note=57, velocity=127, time=0),
    Message('note_on', channel=1, note=61, velocity=0, time=8),
    Message('note_on', channel=1, note=64, velocity=0, time=5),
    Message('note_on', channel=1, note=57, velocity=0, time=1),
    Message('note_on', channel=1, note=64, velocity=127, time=34),
    Message('note_on', channel=1, note=61, velocity=127, time=0),
    Message('note_on', channel=1, note=57, velocity=127, time=0),
    Message('note_on', channel=1, note=61, velocity=0, time=20),
    Message('note_on', channel=1, note=57, velocity=0, time=2),
    Message('note_on', channel=1, note=64, velocity=0, time=0),
    Message('note_on', channel=1, note=52, velocity=127, time=26),
    Message('note_on', channel=1, note=52, velocity=0, time=34),
    Message('note_on', channel=1, note=61, velocity=127, time=14),
    Message('note_on', channel=1, note=57, velocity=127, time=0),
    Message('note_on', channel=1, note=64, velocity=127, time=0),
    Message('note_on', channel=1, note=61, velocity=0, time=15),
    Message('note_on', channel=1, note=64, velocity=0, time=3),
    Message('note_on', channel=1, note=57, velocity=0, time=1),
    Message('note_on', channel=1, note=61, velocity=127, time=29),
    Message('note_on', channel=1, note=64, velocity=127, time=0),
    Message('note_on', channel=1, note=57, velocity=127, time=0),
    Message('note_on', channel=1, note=61, velocity=0, time=18),
    Message('note_on', channel=1, note=57, velocity=0, time=1),
    Message('note_on', channel=1, note=64, velocity=0, time=1),
    Message('note_on', channel=1, note=45, velocity=0, time=7),
    Message('control_change', channel=1, control=64, value=0, time=20),
    Message('note_on', channel=1, note=52, velocity=127, time=49),
    Message('note_on', channel=1, note=55, velocity=127, time=0),
    Message('note_on', channel=1, note=40, velocity=127, time=0),
    Message('note_on', channel=1, note=59, velocity=127, time=0),
    Message('control_change', channel=1, control=64, value=127, time=86),
    Message('note_off', channel=1, note=52, velocity=0, time=20),
    Message('note_off', channel=1, note=59, velocity=0, time=2),
    Message('note_off', channel=1, note=55, velocity=0, time=1),
    Message('note_on', channel=1, note=52, velocity=127, time=35),
    Message('note_on', channel=1, note=59, velocity=127, time=0),
    Message('note_on', channel=1, note=55, velocity=127, time=0),
    Message('note_on', channel=1, note=52, velocity=0, time=18),
    Message('note_on', channel=1, note=55, velocity=0, time=2),
    Message('note_on', channel=1, note=59, velocity=0, time=2),
    Message('note_on', channel=1, note=52, velocity=127, time=74),
    Message('note_on', channel=1, note=40, velocity=0, time=16),
    Message('note_on', channel=1, note=52, velocity=0, time=6),
    Message('note_on', channel=1, note=55, velocity=127, time=26),
    Message('note_on', channel=1, note=52, velocity=127, time=0),
    Message('note_on', channel=1, note=59, velocity=127, time=0),
    Message('note_on', channel=1, note=55, velocity=0, time=14),
    Message('note_on', channel=1, note=52, velocity=0, time=1),
    Message('note_on', channel=1, note=59, velocity=0, time=6),
    Message('control_change', channel=1, control=64, value=0, time=60),
    Message('note_on', channel=1, note=62, velocity=127, time=15),
    Message('note_on', channel=1, note=59, velocity=127, time=0),
    Message('note_on', channel=1, note=55, velocity=127, time=0),
    Message('note_on', channel=1, note=43, velocity=127, time=0),
    Message('control_change', channel=1, control=64, value=127, time=42),
    Message('note_on', channel=1, note=50, velocity=127, time=54),
    Message('note_on', channel=1, note=55, velocity=0, time=1),
    Message('note_on', channel=1, note=59, velocity=0, time=9),
    Message('note_on', channel=1, note=62, velocity=0, time=2),
    Message('note_on', channel=1, note=50, velocity=0, time=6),
    Message('note_on', channel=1, note=62, velocity=127, time=30),
    Message('note_on', channel=1, note=55, velocity=127, time=0),
    Message('note_on', channel=1, note=50, velocity=127, time=48),
    Message('note_on', channel=1, note=62, velocity=0, time=1),
    Message('note_on', channel=1, note=55, velocity=0, time=4),
    Message('note_on', channel=1, note=50, velocity=0, time=27),
    Message('note_on', channel=1, note=43, velocity=0, time=7),
    Message('note_on', channel=1, note=59, velocity=127, time=9),
    Message('note_on', channel=1, note=62, velocity=127, time=0),
    Message('note_on', channel=1, note=59, velocity=0, time=20),
    Message('note_on', channel=1, note=62, velocity=0, time=6),
    Message('note_on', channel=1, note=57, velocity=127, time=118),
    Message('note_on', channel=1, note=50, velocity=127, time=0),
    Message('note_on', channel=1, note=62, velocity=127, time=0),
    Message('note_on', channel=1, note=66, velocity=127, time=0),
    Message('note_on', channel=1, note=69, velocity=127, time=0),
    Message('control_change', channel=1, control=64, value=0, time=1),
    Message('control_change', channel=1, control=64, value=127, time=51),
    Message('note_off', channel=1, note=62, velocity=0, time=23),
    Message('note_off', channel=1, note=57, velocity=0, time=19),
    Message('note_on', channel=1, note=62, velocity=127, time=2),
    Message('note_on', channel=1, note=66, velocity=0, time=43),
    Message('note_on', channel=1, note=69, velocity=0, time=1),
    Message('note_on', channel=1, note=57, velocity=127, time=4),
    Message('note_on', channel=1, note=62, velocity=0, time=1),
    Message('note_on', channel=1, note=57, velocity=0, time=35),
    Message('note_on', channel=1, note=66, velocity=127, time=12),
    Message('note_on', channel=1, note=69, velocity=126, time=0),
    Message('note_on', channel=1, note=62, velocity=127, time=0),
    Message('note_on', channel=1, note=50, velocity=0, time=12),
    Message('note_on', channel=1, note=66, velocity=0, time=14),
    Message('note_on', channel=1, note=62, velocity=0, time=1),
    Message('note_on', channel=1, note=69, velocity=0, time=1),
    Message('note_on', channel=1, note=66, velocity=127, time=20),
    Message('note_on', channel=1, note=69, velocity=127, time=0),
    Message('note_on', channel=1, note=62, velocity=127, time=0),
    Message('note_on', channel=1, note=66, velocity=0, time=30),
    Message('note_on', channel=1, note=69, velocity=0, time=2),
    Message('note_on', channel=1, note=62, velocity=0, time=1),
    Message('control_change', channel=1, control=64, value=0, time=103),
    Message('note_on', channel=1, note=45, velocity=127, time=8),
    Message('note_on', channel=1, note=61, velocity=127, time=0),
    Message('note_on', channel=1, note=52, velocity=127, time=0),
    Message('note_on', channel=1, note=64, velocity=127, time=0),
    Message('note_on', channel=1, note=57, velocity=127, time=0),
    Message('control_change', channel=1, control=64, value=127, time=49),
    Message('note_off', channel=1, note=57, velocity=0, time=19),
    Message('note_off', channel=1, note=61, velocity=0, time=0),
    Message('note_off', channel=1, note=64, velocity=0, time=0),
    Message('note_on', channel=1, note=64, velocity=127, time=28),
    Message('note_on', channel=1, note=61, velocity=127, time=0),
    Message('note_on', channel=1, note=57, velocity=127, time=0),
    Message('note_on', channel=1, note=61, velocity=0, time=13),
    Message('note_on', channel=1, note=64, velocity=0, time=0),
    Message('note_on', channel=1, note=52, velocity=0, time=0),
    Message('note_on', channel=1, note=57, velocity=0, time=4),
    Message('note_on', channel=1, note=61, velocity=127, time=31),
    Message('note_on', channel=1, note=64, velocity=127, time=0),
    Message('note_on', channel=1, note=57, velocity=127, time=0),
    Message('note_on', channel=1, note=61, velocity=0, time=44),
    Message('note_on', channel=1, note=57, velocity=0, time=1),
    Message('note_on', channel=1, note=64, velocity=0, time=3),
    Message('note_on', channel=1, note=52, velocity=127, time=0),
    Message('note_on', channel=1, note=61, velocity=127, time=48),
    Message('note_on', channel=1, note=55, velocity=127, time=0),
    Message('note_on', channel=1, note=64, velocity=127, time=0),
    Message('note_on', channel=1, note=52, velocity=0, time=6),
    Message('note_on', channel=1, note=45, velocity=0, time=25),
    Message('note_on', channel=1, note=61, velocity=0, time=15),
    Message('note_on', channel=1, note=52, velocity=127, time=2),
    Message('note_on', channel=1, note=64, velocity=0, time=3),
    Message('note_on', channel=1, note=55, velocity=0, time=2),
    Message('note_on', channel=1, note=52, velocity=0, time=18),
    Message('control_change', channel=1, control=64, value=0, time=67),
    Message('note_on', channel=1, note=55, velocity=127, time=6),
    Message('note_on', channel=1, note=59, velocity=127, time=0),
    Message('note_on', channel=1, note=52, velocity=127, time=0),
    Message('control_change', channel=1, control=64, value=127, time=36),
    Message('note_off', channel=1, note=52, velocity=0, time=33),
    Message('note_off', channel=1, note=59, velocity=0, time=1),
    Message('note_off', channel=1, note=55, velocity=0, time=0),
    Message('note_on', channel=1, note=52, velocity=127, time=26),
    Message('note_on', channel=1, note=52, velocity=0, time=34),
    Message('note_on', channel=1, note=40, velocity=127, time=14),
    Message('note_on', channel=1, note=40, velocity=0, time=38),
    Message('note_on', channel=1, note=52, velocity=127, time=10),
    Message('note_on', channel=1, note=52, velocity=0, time=36),
    Message('note_on', channel=1, note=55, velocity=127, time=12),
    Message('note_on', channel=1, note=55, velocity=0, time=34),
    Message('note_on', channel=1, note=59, velocity=127, time=14),
    Message('note_on', channel=1, note=59, velocity=0, time=28),
    Message('control_change', channel=1, control=64, value=0, time=66),
    Message('note_on', channel=1, note=43, velocity=127, time=2),
    Message('note_on', channel=1, note=55, velocity=127, time=0),
    Message('note_on', channel=1, note=59, velocity=127, time=0),
    Message('note_on', channel=1, note=62, velocity=127, time=0),
    Message('control_change', channel=1, control=64, value=127, time=50),
    Message('note_on', channel=1, note=50, velocity=127, time=46),
    Message('note_on', channel=1, note=55, velocity=0, time=4),
    Message('note_on', channel=1, note=62, velocity=0, time=6),
    Message('note_on', channel=1, note=59, velocity=0, time=1),
    Message('note_on', channel=1, note=50, velocity=0, time=12),
    Message('note_on', channel=1, note=59, velocity=127, time=25),
    Message('note_on', channel=1, note=62, velocity=127, time=0),
    Message('note_on', channel=1, note=55, velocity=127, time=0),
    Message('note_on', channel=1, note=59, velocity=0, time=18),
    Message('note_on', channel=1, note=55, velocity=0, time=2),
    Message('note_on', channel=1, note=62, velocity=0, time=3),
    Message('note_on', channel=1, note=59, velocity=127, time=73),
    Message('note_on', channel=1, note=55, velocity=127, time=0),
    Message('note_on', channel=1, note=62, velocity=127, time=0),
    Message('note_on', channel=1, note=59, velocity=0, time=17),
    Message('note_on', channel=1, note=55, velocity=0, time=1),
    Message('note_on', channel=1, note=62, velocity=0, time=3),
    Message('note_on', channel=1, note=43, velocity=0, time=16),
    Message('note_on', channel=1, note=62, velocity=127, time=59),
    Message('note_on', channel=1, note=59, velocity=127, time=0),
    Message('note_on', channel=1, note=55, velocity=127, time=0),
    Message('note_on', channel=1, note=59, velocity=0, time=15),
    Message('note_on', channel=1, note=55, velocity=0, time=2),
    Message('note_on', channel=1, note=62, velocity=0, time=3),
    Message('control_change', channel=1, control=64, value=0, time=20),
    Message('note_on', channel=1, note=57, velocity=127, time=8),
    Message('note_on', channel=1, note=50, velocity=127, time=0),
    Message('control_change', channel=1, control=64, value=127, time=38),
    Message('note_on', channel=1, note=66, velocity=127, time=34),
    Message('note_on', channel=1, note=62, velocity=127, time=0),
    Message('control_change', channel=1, control=64, value=0, time=1),
    Message('note_off', channel=1, note=57, velocity=0, time=9),
    Message('note_off', channel=1, note=66, velocity=0, time=6),
    Message('control_change', channel=1, control=64, value=127, time=0),
    Message('note_off', channel=1, note=62, velocity=0, time=2),
    Message('note_on', channel=1, note=69, velocity=127, time=6),
    Message('note_on', channel=1, note=69, velocity=0, time=15),
    Message('note_on', channel=1, note=66, velocity=127, time=33),
    Message('note_on', channel=1, note=69, velocity=127, time=0),
    Message('note_on', channel=1, note=62, velocity=127, time=0),
    Message('note_on', channel=1, note=57, velocity=127, time=48),
    Message('note_on', channel=1, note=62, velocity=0, time=1),
    Message('note_on', channel=1, note=69, velocity=0, time=0),
    Message('note_on', channel=1, note=66, velocity=0, time=1),
    Message('note_on', channel=1, note=57, velocity=0, time=21),
    Message('note_on', channel=1, note=50, velocity=0, time=13),
    Message('note_on', channel=1, note=69, velocity=127, time=12),
    Message('note_on', channel=1, note=66, velocity=127, time=0),
    Message('note_on', channel=1, note=62, velocity=127, time=0),
    Message('note_on', channel=1, note=62, velocity=0, time=28),
    Message('note_on', channel=1, note=69, velocity=0, time=3),
    Message('note_on', channel=1, note=66, velocity=0, time=4),
    Message('note_on', channel=1, note=62, velocity=127, time=13),
    Message('note_on', channel=1, note=62, velocity=0, time=20),
    Message('note_on', channel=1, note=45, velocity=127, time=28),
    Message('control_change', channel=1, control=64, value=0, time=32),
    Message('note_on', channel=1, note=57, velocity=127, time=16),
    Message('note_on', channel=1, note=61, velocity=127, time=0),
    Message('note_on', channel=1, note=64, velocity=127, time=0),
    Message('control_change', channel=1, control=64, value=127, time=40),
    Message('note_on', channel=1, note=52, velocity=127, time=8),
    Message('note_on', channel=1, note=61, velocity=0, time=7),
    Message('note_on', channel=1, note=57, velocity=0, time=0),
    Message('note_on', channel=1, note=64, velocity=0, time=2),
    Message('note_on', channel=1, note=52, velocity=0, time=20),
    Message('note_on', channel=1, note=61, velocity=126, time=19),
    Message('note_on', channel=1, note=64, velocity=127, time=0),
    Message('note_on', channel=1, note=57, velocity=127, time=0),
    Message('note_on', channel=1, note=61, velocity=0, time=8),
    Message('note_on', channel=1, note=64, velocity=0, time=5),
    Message('note_on', channel=1, note=57, velocity=0, time=1),
    Message('note_on', channel=1, note=64, velocity=127, time=34),
    Message('note_on', channel=1, note=61, velocity=127, time=0),
    Message('note_on', channel=1, note=57, velocity=127, time=0),
    Message('note_on', channel=1, note=61, velocity=0, time=20),
    Message('note_on', channel=1, note=57, velocity=0, time=2),
    Message('note_on', channel=1, note=64, velocity=0, time=0),
    Message('note_on', channel=1, note=52, velocity=127, time=26),
    Message('note_on', channel=1, note=52, velocity=0, time=34),
    Message('note_on', channel=1, note=61, velocity=127, time=14),
    Message('note_on', channel=1, note=57, velocity=127, time=0),
    Message('note_on', channel=1, note=64, velocity=127, time=0),
    Message('note_on', channel=1, note=61, velocity=0, time=15),
    Message('note_on', channel=1, note=64, velocity=0, time=3),
    Message('note_on', channel=1, note=57, velocity=0, time=1),
    Message('note_on', channel=1, note=61, velocity=127, time=29),
    Message('note_on', channel=1, note=64, velocity=127, time=0),
    Message('note_on', channel=1, note=57, velocity=127, time=0),
    Message('note_on', channel=1, note=61, velocity=0, time=18),
    Message('note_on', channel=1, note=57, velocity=0, time=1),
    Message('note_on', channel=1, note=64, velocity=0, time=1),
    Message('note_on', channel=1, note=45, velocity=0, time=7),
    Message('control_change', channel=1, control=64, value=0, time=20),
    Message('note_on', channel=1, note=52, velocity=127, time=49),
    Message('note_on', channel=1, note=55, velocity=127, time=0),
    Message('note_on', channel=1, note=40, velocity=127, time=0),
    Message('note_on', channel=1, note=59, velocity=127, time=0),
    Message('control_change', channel=1, control=64, value=127, time=86),
    Message('note_off', channel=1, note=52, velocity=0, time=20),
    Message('note_off', channel=1, note=59, velocity=0, time=2),
    Message('note_off', channel=1, note=55, velocity=0, time=1),
    Message('note_on', channel=1, note=52, velocity=127, time=35),
    Message('note_on', channel=1, note=59, velocity=127, time=0),
    Message('note_on', channel=1, note=55, velocity=127, time=0),
    Message('note_on', channel=1, note=52, velocity=0, time=18),
    Message('note_on', channel=1, note=55, velocity=0, time=2),
    Message('note_on', channel=1, note=59, velocity=0, time=2),
    Message('note_on', channel=1, note=52, velocity=127, time=74),
    Message('note_on', channel=1, note=40, velocity=0, time=16),
    Message('note_on', channel=1, note=52, velocity=0, time=6),
    Message('note_on', channel=1, note=55, velocity=127, time=26),
    Message('note_on', channel=1, note=52, velocity=127, time=0),
    Message('note_on', channel=1, note=59, velocity=127, time=0),
    Message('note_on', channel=1, note=55, velocity=0, time=14),
    Message('note_on', channel=1, note=52, velocity=0, time=1),
    Message('note_on', channel=1, note=59, velocity=0, time=6),
    Message('control_change', channel=1, control=64, value=0, time=60),
    Message('note_on', channel=1, note=62, velocity=127, time=15),
    Message('note_on', channel=1, note=59, velocity=127, time=0),
    Message('note_on', channel=1, note=55, velocity=127, time=0),
    Message('note_on', channel=1, note=43, velocity=127, time=0),
    Message('control_change', channel=1, control=64, value=127, time=42),
    Message('note_on', channel=1, note=50, velocity=127, time=54),
    Message('note_on', channel=1, note=55, velocity=0, time=1),
    Message('note_on', channel=1, note=59, velocity=0, time=9),
    Message('note_on', channel=1, note=62, velocity=0, time=2),
    Message('note_on', channel=1, note=50, velocity=0, time=6),
    Message('note_on', channel=1, note=62, velocity=127, time=30),
    Message('note_on', channel=1, note=55, velocity=127, time=0),
    Message('note_on', channel=1, note=50, velocity=127, time=48),
    Message('note_on', channel=1, note=62, velocity=0, time=1),
    Message('note_on', channel=1, note=55, velocity=0, time=4),
    Message('note_on', channel=1, note=50, velocity=0, time=27),
    Message('note_on', channel=1, note=43, velocity=0, time=7),
    Message('note_on', channel=1, note=59, velocity=127, time=9),
    Message('note_on', channel=1, note=62, velocity=127, time=0),
    Message('note_on', channel=1, note=59, velocity=0, time=20),
    Message('note_on', channel=1, note=62, velocity=0, time=6),
    Message('note_on', channel=1, note=57, velocity=127, time=118),
    Message('note_on', channel=1, note=50, velocity=127, time=0),
    Message('note_on', channel=1, note=62, velocity=127, time=0),
    Message('note_on', channel=1, note=66, velocity=127, time=0),
    Message('note_on', channel=1, note=69, velocity=127, time=0),
    Message('control_change', channel=1, control=64, value=0, time=1),
    Message('control_change', channel=1, control=64, value=127, time=51),
    Message('note_off', channel=1, note=62, velocity=0, time=23),
    Message('note_off', channel=1, note=57, velocity=0, time=19),
    Message('note_on', channel=1, note=62, velocity=127, time=2),
    Message('note_on', channel=1, note=66, velocity=0, time=43),
    Message('note_on', channel=1, note=69, velocity=0, time=1),
    Message('note_on', channel=1, note=57, velocity=127, time=4),
    Message('note_on', channel=1, note=62, velocity=0, time=1),
    Message('note_on', channel=1, note=57, velocity=0, time=35),
    Message('note_on', channel=1, note=66, velocity=127, time=12),
    Message('note_on', channel=1, note=69, velocity=126, time=0),
    Message('note_on', channel=1, note=62, velocity=127, time=0),
    Message('note_on', channel=1, note=50, velocity=0, time=12),
    Message('note_on', channel=1, note=66, velocity=0, time=14),
    Message('note_on', channel=1, note=62, velocity=0, time=1),
    Message('note_on', channel=1, note=69, velocity=0, time=1),
    Message('note_on', channel=1, note=66, velocity=127, time=20),
    Message('note_on', channel=1, note=69, velocity=127, time=0),
    Message('note_on', channel=1, note=62, velocity=127, time=0),
    Message('note_on', channel=1, note=66, velocity=0, time=30),
    Message('note_on', channel=1, note=69, velocity=0, time=2),
    Message('note_on', channel=1, note=62, velocity=0, time=1),
    Message('control_change', channel=1, control=64, value=0, time=103),
    Message('note_on', channel=1, note=45, velocity=127, time=8),
    Message('note_on', channel=1, note=61, velocity=127, time=0),
    Message('note_on', channel=1, note=52, velocity=127, time=0),
    Message('note_on', channel=1, note=64, velocity=127, time=0),
    Message('note_on', channel=1, note=57, velocity=127, time=0),
    Message('control_change', channel=1, control=64, value=127, time=49),
    Message('note_off', channel=1, note=57, velocity=0, time=19),
    Message('note_off', channel=1, note=61, velocity=0, time=0),
    Message('note_off', channel=1, note=64, velocity=0, time=0),
    Message('note_on', channel=1, note=64, velocity=127, time=28),
    Message('note_on', channel=1, note=61, velocity=127, time=0),
    Message('note_on', channel=1, note=57, velocity=127, time=0),
    Message('note_on', channel=1, note=61, velocity=0, time=13),
    Message('note_on', channel=1, note=64, velocity=0, time=0),
    Message('note_on', channel=1, note=52, velocity=0, time=0),
    Message('note_on', channel=1, note=57, velocity=0, time=4),
    Message('note_on', channel=1, note=61, velocity=127, time=31),
    Message('note_on', channel=1, note=64, velocity=127, time=0),
    Message('note_on', channel=1, note=57, velocity=127, time=0),
    Message('note_on', channel=1, note=61, velocity=0, time=44),
    Message('note_on', channel=1, note=57, velocity=0, time=1),
    Message('note_on', channel=1, note=64, velocity=0, time=3),
    Message('note_on', channel=1, note=52, velocity=127, time=0),
    Message('note_on', channel=1, note=61, velocity=127, time=48),
    Message('note_on', channel=1, note=55, velocity=127, time=0),
    Message('note_on', channel=1, note=64, velocity=127, time=0),
    Message('note_on', channel=1, note=52, velocity=0, time=6),
    Message('note_on', channel=1, note=45, velocity=0, time=25),
    Message('note_on', channel=1, note=61, velocity=0, time=15),
    Message('note_on', channel=1, note=52, velocity=127, time=2),
    Message('note_on', channel=1, note=64, velocity=0, time=3),
    Message('note_on', channel=1, note=55, velocity=0, time=2),
    Message('note_on', channel=1, note=52, velocity=0, time=18),
    Message('control_change', channel=1, control=64, value=0, time=67),
    Message('note_on', channel=1, note=55, velocity=127, time=6),
    Message('note_on', channel=1, note=59, velocity=127, time=0),
    Message('note_on', channel=1, note=52, velocity=127, time=0),
    Message('control_change', channel=1, control=64, value=127, time=36),
    Message('note_off', channel=1, note=52, velocity=0, time=33),
    Message('note_off', channel=1, note=59, velocity=0, time=1),
    Message('note_off', channel=1, note=55, velocity=0, time=0),
    Message('note_on', channel=1, note=52, velocity=127, time=26),
    Message('note_on', channel=1, note=52, velocity=0, time=34),
    Message('note_on', channel=1, note=40, velocity=127, time=14),
    Message('note_on', channel=1, note=40, velocity=0, time=38),
    Message('note_on', channel=1, note=52, velocity=127, time=10),
    Message('note_on', channel=1, note=52, velocity=0, time=36),
    Message('note_on', channel=1, note=55, velocity=127, time=12),
    Message('note_on', channel=1, note=55, velocity=0, time=34),
    Message('note_on', channel=1, note=59, velocity=127, time=14),
    Message('note_on', channel=1, note=59, velocity=0, time=28),
    Message('control_change', channel=1, control=64, value=0, time=66),
    Message('note_on', channel=1, note=43, velocity=127, time=2),
    Message('note_on', channel=1, note=55, velocity=127, time=0),
    Message('note_on', channel=1, note=59, velocity=127, time=0),
    Message('note_on', channel=1, note=62, velocity=127, time=0),
    Message('control_change', channel=1, control=64, value=127, time=50),
    Message('note_on', channel=1, note=50, velocity=127, time=46),
    Message('note_on', channel=1, note=55, velocity=0, time=4),
    Message('note_on', channel=1, note=62, velocity=0, time=6),
    Message('note_on', channel=1, note=59, velocity=0, time=1),
    Message('note_on', channel=1, note=50, velocity=0, time=12),
    Message('note_on', channel=1, note=59, velocity=127, time=25),
    Message('note_on', channel=1, note=62, velocity=127, time=0),
    Message('note_on', channel=1, note=55, velocity=127, time=0),
    Message('note_on', channel=1, note=59, velocity=0, time=18),
    Message('note_on', channel=1, note=55, velocity=0, time=2),
    Message('note_on', channel=1, note=62, velocity=0, time=3),
    Message('note_on', channel=1, note=59, velocity=127, time=73),
    Message('note_on', channel=1, note=55, velocity=127, time=0),
    Message('note_on', channel=1, note=62, velocity=127, time=0),
    Message('note_on', channel=1, note=59, velocity=0, time=17),
    Message('note_on', channel=1, note=55, velocity=0, time=1),
    Message('note_on', channel=1, note=62, velocity=0, time=3),
    Message('note_on', channel=1, note=43, velocity=0, time=16),
    Message('note_on', channel=1, note=62, velocity=127, time=59),
    Message('note_on', channel=1, note=59, velocity=127, time=0),
    Message('note_on', channel=1, note=55, velocity=127, time=0),
    Message('note_on', channel=1, note=59, velocity=0, time=15),
    Message('note_on', channel=1, note=55, velocity=0, time=2),
    Message('note_on', channel=1, note=62, velocity=0, time=3),
    Message('control_change', channel=1, control=64, value=0, time=20),
    Message('note_on', channel=1, note=57, velocity=127, time=8),
    Message('note_on', channel=1, note=50, velocity=127, time=0),
    Message('control_change', channel=1, control=64, value=127, time=38),
    Message('note_on', channel=1, note=66, velocity=127, time=34),
    Message('note_on', channel=1, note=62, velocity=127, time=0),
    Message('control_change', channel=1, control=64, value=0, time=1),
    Message('note_off', channel=1, note=57, velocity=0, time=9),
    Message('note_off', channel=1, note=66, velocity=0, time=6),
    Message('control_change', channel=1, control=64, value=127, time=0),
    Message('note_off', channel=1, note=62, velocity=0, time=2),
    Message('note_on', channel=1, note=69, velocity=127, time=6),
    Message('note_on', channel=1, note=69, velocity=0, time=15),
    Message('note_on', channel=1, note=66, velocity=127, time=33),
    Message('note_on', channel=1, note=69, velocity=127, time=0),
    Message('note_on', channel=1, note=62, velocity=127, time=0),
    Message('note_on', channel=1, note=57, velocity=127, time=48),
    Message('note_on', channel=1, note=62, velocity=0, time=1),
    Message('note_on', channel=1, note=69, velocity=0, time=0),
    Message('note_on', channel=1, note=66, velocity=0, time=1),
    Message('note_on', channel=1, note=57, velocity=0, time=21),
    Message('note_on', channel=1, note=50, velocity=0, time=13),
    Message('note_on', channel=1, note=69, velocity=127, time=12),
    Message('note_on', channel=1, note=66, velocity=127, time=0),
    Message('note_on', channel=1, note=62, velocity=127, time=0),
    Message('note_on', channel=1, note=62, velocity=0, time=28),
    Message('note_on', channel=1, note=69, velocity=0, time=3),
    Message('note_on', channel=1, note=66, velocity=0, time=4),
    Message('note_on', channel=1, note=62, velocity=127, time=13),
    Message('note_on', channel=1, note=62, velocity=0, time=20),
    Message('note_on', channel=1, note=45, velocity=127, time=28),
    Message('control_change', channel=1, control=64, value=0, time=32),
    Message('note_on', channel=1, note=57, velocity=127, time=16),
    Message('note_on', channel=1, note=61, velocity=127, time=0),
    Message('note_on', channel=1, note=64, velocity=127, time=0),
    Message('control_change', channel=1, control=64, value=127, time=40),
    Message('note_on', channel=1, note=52, velocity=127, time=8),
    Message('note_on', channel=1, note=61, velocity=0, time=7),
    Message('note_on', channel=1, note=57, velocity=0, time=0),
    Message('note_on', channel=1, note=64, velocity=0, time=2),
    Message('note_on', channel=1, note=52, velocity=0, time=20),
    Message('note_on', channel=1, note=61, velocity=126, time=19),
    Message('note_on', channel=1, note=64, velocity=127, time=0),
    Message('note_on', channel=1, note=57, velocity=127, time=0),
    Message('note_on', channel=1, note=61, velocity=0, time=8),
    Message('note_on', channel=1, note=64, velocity=0, time=5),
    Message('note_on', channel=1, note=57, velocity=0, time=1),
    Message('note_on', channel=1, note=64, velocity=127, time=34),
    Message('note_on', channel=1, note=61, velocity=127, time=0),
    Message('note_on', channel=1, note=57, velocity=127, time=0),
    Message('note_on', channel=1, note=61, velocity=0, time=20),
    Message('note_on', channel=1, note=57, velocity=0, time=2),
    Message('note_on', channel=1, note=64, velocity=0, time=0),
    Message('note_on', channel=1, note=52, velocity=127, time=26),
    Message('note_on', channel=1, note=52, velocity=0, time=34),
    Message('note_on', channel=1, note=61, velocity=127, time=14),
    Message('note_on', channel=1, note=57, velocity=127, time=0),
    Message('note_on', channel=1, note=64, velocity=127, time=0),
    Message('note_on', channel=1, note=61, velocity=0, time=15),
    Message('note_on', channel=1, note=64, velocity=0, time=3),
    Message('note_on', channel=1, note=57, velocity=0, time=1),
    Message('note_on', channel=1, note=61, velocity=127, time=29),
    Message('note_on', channel=1, note=64, velocity=127, time=0),
    Message('note_on', channel=1, note=57, velocity=127, time=0),
    Message('note_on', channel=1, note=61, velocity=0, time=18),
    Message('note_on', channel=1, note=57, velocity=0, time=1),
    Message('note_on', channel=1, note=64, velocity=0, time=1),
    Message('note_on', channel=1, note=45, velocity=0, time=7),
    Message('control_change', channel=1, control=64, value=0, time=20),
    Message('note_on', channel=1, note=52, velocity=127, time=49),
    Message('note_on', channel=1, note=55, velocity=127, time=0),
    Message('note_on', channel=1, note=40, velocity=127, time=0),
    Message('note_on', channel=1, note=59, velocity=127, time=0),
    Message('control_change', channel=1, control=64, value=127, time=86),
    Message('note_off', channel=1, note=52, velocity=0, time=20),
    Message('note_off', channel=1, note=59, velocity=0, time=2),
    Message('note_off', channel=1, note=55, velocity=0, time=1),
    Message('note_on', channel=1, note=52, velocity=127, time=35),
    Message('note_on', channel=1, note=59, velocity=127, time=0),
    Message('note_on', channel=1, note=55, velocity=127, time=0),
    Message('note_on', channel=1, note=52, velocity=0, time=18),
    Message('note_on', channel=1, note=55, velocity=0, time=2),
    Message('note_on', channel=1, note=59, velocity=0, time=2),
    Message('note_on', channel=1, note=52, velocity=127, time=74),
    Message('note_on', channel=1, note=40, velocity=0, time=16),
    Message('note_on', channel=1, note=52, velocity=0, time=6),
    Message('note_on', channel=1, note=55, velocity=127, time=26),
    Message('note_on', channel=1, note=52, velocity=127, time=0),
    Message('note_on', channel=1, note=59, velocity=127, time=0),
    Message('note_on', channel=1, note=55, velocity=0, time=14),
    Message('note_on', channel=1, note=52, velocity=0, time=1),
    Message('note_on', channel=1, note=59, velocity=0, time=6),
    Message('control_change', channel=1, control=64, value=0, time=60),
    Message('note_on', channel=1, note=62, velocity=127, time=15),
    Message('note_on', channel=1, note=59, velocity=127, time=0),
    Message('note_on', channel=1, note=55, velocity=127, time=0),
    Message('note_on', channel=1, note=43, velocity=127, time=0),
    Message('control_change', channel=1, control=64, value=127, time=42),
    Message('note_on', channel=1, note=50, velocity=127, time=54),
    Message('note_on', channel=1, note=55, velocity=0, time=1),
    Message('note_on', channel=1, note=59, velocity=0, time=9),
    Message('note_on', channel=1, note=62, velocity=0, time=2),
    Message('note_on', channel=1, note=50, velocity=0, time=6),
    Message('note_on', channel=1, note=62, velocity=127, time=30),
    Message('note_on', channel=1, note=55, velocity=127, time=0),
    Message('note_on', channel=1, note=50, velocity=127, time=48),
    Message('note_on', channel=1, note=62, velocity=0, time=1),
    Message('note_on', channel=1, note=55, velocity=0, time=4),
    Message('note_on', channel=1, note=50, velocity=0, time=27),
    Message('note_on', channel=1, note=43, velocity=0, time=7),
    Message('note_on', channel=1, note=59, velocity=127, time=9),
    Message('note_on', channel=1, note=62, velocity=127, time=0),
    Message('note_on', channel=1, note=59, velocity=0, time=20),
    Message('note_on', channel=1, note=62, velocity=0, time=6),
    Message('note_on', channel=1, note=57, velocity=127, time=118),
    Message('note_on', channel=1, note=50, velocity=127, time=0),
    Message('note_on', channel=1, note=62, velocity=127, time=0),
    Message('note_on', channel=1, note=66, velocity=127, time=0),
    Message('note_on', channel=1, note=69, velocity=127, time=0),
    Message('control_change', channel=1, control=64, value=0, time=1),
    Message('control_change', channel=1, control=64, value=127, time=51),
    Message('note_off', channel=1, note=62, velocity=0, time=23),
    Message('note_off', channel=1, note=57, velocity=0, time=19),
    Message('note_on', channel=1, note=62, velocity=127, time=2),
    Message('note_on', channel=1, note=66, velocity=0, time=43),
    Message('note_on', channel=1, note=69, velocity=0, time=1),
    Message('note_on', channel=1, note=57, velocity=127, time=4),
    Message('note_on', channel=1, note=62, velocity=0, time=1),
    Message('note_on', channel=1, note=57, velocity=0, time=35),
    Message('note_on', channel=1, note=66, velocity=127, time=12),
    Message('note_on', channel=1, note=69, velocity=126, time=0),
    Message('note_on', channel=1, note=62, velocity=127, time=0),
    Message('note_on', channel=1, note=50, velocity=0, time=12),
    Message('note_on', channel=1, note=66, velocity=0, time=14),
    Message('note_on', channel=1, note=62, velocity=0, time=1),
    Message('note_on', channel=1, note=69, velocity=0, time=1),
    Message('note_on', channel=1, note=66, velocity=127, time=20),
    Message('note_on', channel=1, note=69, velocity=127, time=0),
    Message('note_on', channel=1, note=62, velocity=127, time=0),
    Message('note_on', channel=1, note=66, velocity=0, time=30),
    Message('note_on', channel=1, note=69, velocity=0, time=2),
    Message('note_on', channel=1, note=62, velocity=0, time=1),
    Message('control_change', channel=1, control=64, value=0, time=103),
    Message('note_on', channel=1, note=45, velocity=127, time=8),
    Message('note_on', channel=1, note=61, velocity=127, time=0),
    Message('note_on', channel=1, note=52, velocity=127, time=0),
    Message('note_on', channel=1, note=64, velocity=127, time=0),
    Message('note_on', channel=1, note=57, velocity=127, time=0),
    Message('control_change', channel=1, control=64, value=127, time=49),
    Message('note_off', channel=1, note=57, velocity=0, time=19),
    Message('note_off', channel=1, note=61, velocity=0, time=0),
    Message('note_off', channel=1, note=64, velocity=0, time=0),
    Message('note_on', channel=1, note=64, velocity=127, time=28),
    Message('note_on', channel=1, note=61, velocity=127, time=0),
    Message('note_on', channel=1, note=57, velocity=127, time=0),
    Message('note_on', channel=1, note=61, velocity=0, time=13),
    Message('note_on', channel=1, note=64, velocity=0, time=0),
    Message('note_on', channel=1, note=52, velocity=0, time=0),
    Message('note_on', channel=1, note=57, velocity=0, time=4),
    Message('note_on', channel=1, note=61, velocity=127, time=31),
    Message('note_on', channel=1, note=64, velocity=127, time=0),
    Message('note_on', channel=1, note=57, velocity=127, time=0),
    Message('note_on', channel=1, note=61, velocity=0, time=44),
    Message('note_on', channel=1, note=57, velocity=0, time=1),
    Message('note_on', channel=1, note=64, velocity=0, time=3),
    Message('note_on', channel=1, note=52, velocity=127, time=0),
    Message('note_on', channel=1, note=61, velocity=127, time=48),
    Message('note_on', channel=1, note=55, velocity=127, time=0),
    Message('note_on', channel=1, note=64, velocity=127, time=0),
    Message('note_on', channel=1, note=52, velocity=0, time=6),
    Message('note_on', channel=1, note=45, velocity=0, time=25),
    Message('note_on', channel=1, note=61, velocity=0, time=15),
    Message('note_on', channel=1, note=52, velocity=127, time=2),
    Message('note_on', channel=1, note=64, velocity=0, time=3),
    Message('note_on', channel=1, note=55, velocity=0, time=2),
    Message('note_on', channel=1, note=52, velocity=0, time=18),
    Message('control_change', channel=1, control=64, value=0, time=67),
    Message('note_on', channel=1, note=55, velocity=127, time=6),
    Message('note_on', channel=1, note=59, velocity=127, time=0),
    Message('note_on', channel=1, note=52, velocity=127, time=0),
    Message('control_change', channel=1, control=64, value=127, time=36),
    Message('note_off', channel=1, note=52, velocity=0, time=33),
    Message('note_off', channel=1, note=59, velocity=0, time=1),
    Message('note_off', channel=1, note=55, velocity=0, time=0),
    Message('note_on', channel=1, note=52, velocity=127, time=26),
    Message('note_on', channel=1, note=52, velocity=0, time=34),
    Message('note_on', channel=1, note=40, velocity=127, time=14),
    Message('note_on', channel=1, note=40, velocity=0, time=38),
    Message('note_on', channel=1, note=52, velocity=127, time=10),
    Message('note_on', channel=1, note=52, velocity=0, time=36),
    Message('note_on', channel=1, note=55, velocity=127, time=12),
    Message('note_on', channel=1, note=55, velocity=0, time=34),
    Message('note_on', channel=1, note=59, velocity=127, time=14),
    Message('note_on', channel=1, note=59, velocity=0, time=28),
    Message('control_change', channel=1, control=64, value=0, time=66),
    Message('note_on', channel=1, note=43, velocity=127, time=2),
    Message('note_on', channel=1, note=55, velocity=127, time=0),
    Message('note_on', channel=1, note=59, velocity=127, time=0),
    Message('note_on', channel=1, note=62, velocity=127, time=0),
    Message('control_change', channel=1, control=64, value=127, time=50),
    Message('note_on', channel=1, note=50, velocity=127, time=46),
    Message('note_on', channel=1, note=55, velocity=0, time=4),
    Message('note_on', channel=1, note=62, velocity=0, time=6),
    Message('note_on', channel=1, note=59, velocity=0, time=1),
    Message('note_on', channel=1, note=50, velocity=0, time=12),
    Message('note_on', channel=1, note=59, velocity=127, time=25),
    Message('note_on', channel=1, note=62, velocity=127, time=0),
    Message('note_on', channel=1, note=55, velocity=127, time=0),
    Message('note_on', channel=1, note=59, velocity=0, time=18),
    Message('note_on', channel=1, note=55, velocity=0, time=2),
    Message('note_on', channel=1, note=62, velocity=0, time=3),
    Message('note_on', channel=1, note=59, velocity=127, time=73),
    Message('note_on', channel=1, note=55, velocity=127, time=0),
    Message('note_on', channel=1, note=62, velocity=127, time=0),
    Message('note_on', channel=1, note=59, velocity=0, time=17),
    Message('note_on', channel=1, note=55, velocity=0, time=1),
    Message('note_on', channel=1, note=62, velocity=0, time=3),
    Message('note_on', channel=1, note=43, velocity=0, time=16),
    Message('note_on', channel=1, note=62, velocity=127, time=59),
    Message('note_on', channel=1, note=59, velocity=127, time=0),
    Message('note_on', channel=1, note=55, velocity=127, time=0),
    Message('note_on', channel=1, note=59, velocity=0, time=15),
    Message('note_on', channel=1, note=55, velocity=0, time=2),
    Message('note_on', channel=1, note=62, velocity=0, time=3),
    Message('control_change', channel=1, control=64, value=0, time=20),
    Message('note_on', channel=1, note=57, velocity=127, time=8),
    Message('note_on', channel=1, note=50, velocity=127, time=0),
    Message('control_change', channel=1, control=64, value=127, time=38),
    Message('note_on', channel=1, note=66, velocity=127, time=34),
    Message('note_on', channel=1, note=62, velocity=127, time=0),
    Message('control_change', channel=1, control=64, value=0, time=1),
    Message('note_off', channel=1, note=57, velocity=0, time=9),
    Message('note_off', channel=1, note=66, velocity=0, time=6),
    Message('control_change', channel=1, control=64, value=127, time=0),
    Message('note_off', channel=1, note=62, velocity=0, time=2),
    Message('note_on', channel=1, note=69, velocity=127, time=6),
    Message('note_on', channel=1, note=69, velocity=0, time=15),
    Message('note_on', channel=1, note=66, velocity=127, time=33),
    Message('note_on', channel=1, note=69, velocity=127, time=0),
    Message('note_on', channel=1, note=62, velocity=127, time=0),
    Message('note_on', channel=1, note=57, velocity=127, time=48),
    Message('note_on', channel=1, note=62, velocity=0, time=1),
    Message('note_on', channel=1, note=69, velocity=0, time=0),
    Message('note_on', channel=1, note=66, velocity=0, time=1),
    Message('note_on', channel=1, note=57, velocity=0, time=21),
    Message('note_on', channel=1, note=50, velocity=0, time=13),
    Message('note_on', channel=1, note=69, velocity=127, time=12),
    Message('note_on', channel=1, note=66, velocity=127, time=0),
    Message('note_on', channel=1, note=62, velocity=127, time=0),
    Message('note_on', channel=1, note=62, velocity=0, time=28),
    Message('note_on', channel=1, note=69, velocity=0, time=3),
    Message('note_on', channel=1, note=66, velocity=0, time=4),
    Message('note_on', channel=1, note=62, velocity=127, time=13),
    Message('note_on', channel=1, note=62, velocity=0, time=20),
    Message('note_on', channel=1, note=45, velocity=127, time=28),
    Message('control_change', channel=1, control=64, value=0, time=32),
    Message('note_on', channel=1, note=57, velocity=127, time=16),
    Message('note_on', channel=1, note=61, velocity=127, time=0),
    Message('note_on', channel=1, note=64, velocity=127, time=0),
    Message('control_change', channel=1, control=64, value=127, time=40),
    Message('note_on', channel=1, note=52, velocity=127, time=8),
    Message('note_on', channel=1, note=61, velocity=0, time=7),
    Message('note_on', channel=1, note=57, velocity=0, time=0),
    Message('note_on', channel=1, note=64, velocity=0, time=2),
    Message('note_on', channel=1, note=52, velocity=0, time=20),
    Message('note_on', channel=1, note=61, velocity=126, time=19),
    Message('note_on', channel=1, note=64, velocity=127, time=0),
    Message('note_on', channel=1, note=57, velocity=127, time=0),
    Message('note_on', channel=1, note=61, velocity=0, time=8),
    Message('note_on', channel=1, note=64, velocity=0, time=5),
    Message('note_on', channel=1, note=57, velocity=0, time=1),
    Message('note_on', channel=1, note=64, velocity=127, time=34),
    Message('note_on', channel=1, note=61, velocity=127, time=0),
    Message('note_on', channel=1, note=57, velocity=127, time=0),
    Message('note_on', channel=1, note=61, velocity=0, time=20),
    Message('note_on', channel=1, note=57, velocity=0, time=2),
    Message('note_on', channel=1, note=64, velocity=0, time=0),
    Message('note_on', channel=1, note=52, velocity=127, time=26),
    Message('note_on', channel=1, note=52, velocity=0, time=34),
    Message('note_on', channel=1, note=61, velocity=127, time=14),
    Message('note_on', channel=1, note=57, velocity=127, time=0),
    Message('note_on', channel=1, note=64, velocity=127, time=0),
    Message('note_on', channel=1, note=61, velocity=0, time=15),
    Message('note_on', channel=1, note=64, velocity=0, time=3),
    Message('note_on', channel=1, note=57, velocity=0, time=1),
    Message('note_on', channel=1, note=61, velocity=127, time=29),
    Message('note_on', channel=1, note=64, velocity=127, time=0),
    Message('note_on', channel=1, note=57, velocity=127, time=0),
    Message('note_on', channel=1, note=61, velocity=0, time=18),
    Message('note_on', channel=1, note=57, velocity=0, time=1),
    Message('note_on', channel=1, note=64, velocity=0, time=1),
    Message('note_on', channel=1, note=45, velocity=0, time=7),
    Message('control_change', channel=1, control=64, value=0, time=20),
    Message('note_on', channel=1, note=52, velocity=127, time=49),
    Message('note_on', channel=1, note=55, velocity=127, time=0),
    Message('note_on', channel=1, note=40, velocity=127, time=0),
    Message('note_on', channel=1, note=59, velocity=127, time=0),
    Message('control_change', channel=1, control=64, value=127, time=86),
    Message('note_off', channel=1, note=52, velocity=0, time=20),
    Message('note_off', channel=1, note=59, velocity=0, time=2),
    Message('note_off', channel=1, note=55, velocity=0, time=1),
    Message('note_on', channel=1, note=52, velocity=127, time=35),
    Message('note_on', channel=1, note=59, velocity=127, time=0),
    Message('note_on', channel=1, note=55, velocity=127, time=0),
    Message('note_on', channel=1, note=52, velocity=0, time=18),
    Message('note_on', channel=1, note=55, velocity=0, time=2),
    Message('note_on', channel=1, note=59, velocity=0, time=2),
    Message('note_on', channel=1, note=52, velocity=127, time=74),
    Message('note_on', channel=1, note=40, velocity=0, time=16),
    Message('note_on', channel=1, note=52, velocity=0, time=6),
    Message('note_on', channel=1, note=55, velocity=127, time=26),
    Message('note_on', channel=1, note=52, velocity=127, time=0),
    Message('note_on', channel=1, note=59, velocity=127, time=0),
    Message('note_on', channel=1, note=55, velocity=0, time=14),
    Message('note_on', channel=1, note=52, velocity=0, time=1),
    Message('note_on', channel=1, note=59, velocity=0, time=6),
    Message('control_change', channel=1, control=64, value=0, time=60),
    Message('note_on', channel=1, note=62, velocity=127, time=15),
    Message('note_on', channel=1, note=59, velocity=127, time=0),
    Message('note_on', channel=1, note=55, velocity=127, time=0),
    Message('note_on', channel=1, note=43, velocity=127, time=0),
    Message('control_change', channel=1, control=64, value=127, time=42),
    Message('note_on', channel=1, note=50, velocity=127, time=54),
    Message('note_on', channel=1, note=55, velocity=0, time=1),
    Message('note_on', channel=1, note=59, velocity=0, time=9),
    Message('note_on', channel=1, note=62, velocity=0, time=2),
    Message('note_on', channel=1, note=50, velocity=0, time=6),
    Message('note_on', channel=1, note=62, velocity=127, time=30),
    Message('note_on', channel=1, note=55, velocity=127, time=0),
    Message('note_on', channel=1, note=50, velocity=127, time=48),
    Message('note_on', channel=1, note=62, velocity=0, time=1),
    Message('note_on', channel=1, note=55, velocity=0, time=4),
    Message('note_on', channel=1, note=50, velocity=0, time=27),
    Message('note_on', channel=1, note=43, velocity=0, time=7),
    Message('note_on', channel=1, note=59, velocity=127, time=9),
    Message('note_on', channel=1, note=62, velocity=127, time=0),
    Message('note_on', channel=1, note=59, velocity=0, time=20),
    Message('note_on', channel=1, note=62, velocity=0, time=6),
    Message('note_on', channel=1, note=57, velocity=127, time=118),
    Message('note_on', channel=1, note=50, velocity=127, time=0),
    Message('note_on', channel=1, note=62, velocity=127, time=0),
    Message('note_on', channel=1, note=66, velocity=127, time=0),
    Message('note_on', channel=1, note=69, velocity=127, time=0),
    Message('control_change', channel=1, control=64, value=0, time=1),
    Message('control_change', channel=1, control=64, value=127, time=51),
    Message('note_off', channel=1, note=62, velocity=0, time=23),
    Message('note_off', channel=1, note=57, velocity=0, time=19),
    Message('note_on', channel=1, note=62, velocity=127, time=2),
    Message('note_on', channel=1, note=66, velocity=0, time=43),
    Message('note_on', channel=1, note=69, velocity=0, time=1),
    Message('note_on', channel=1, note=57, velocity=127, time=4),
    Message('note_on', channel=1, note=62, velocity=0, time=1),
    Message('note_on', channel=1, note=57, velocity=0, time=35),
    Message('note_on', channel=1, note=66, velocity=127, time=12),
    Message('note_on', channel=1, note=69, velocity=126, time=0),
    Message('note_on', channel=1, note=62, velocity=127, time=0),
    Message('note_on', channel=1, note=50, velocity=0, time=12),
    Message('note_on', channel=1, note=66, velocity=0, time=14),
    Message('note_on', channel=1, note=62, velocity=0, time=1),
    Message('note_on', channel=1, note=69, velocity=0, time=1),
    Message('note_on', channel=1, note=66, velocity=127, time=20),
    Message('note_on', channel=1, note=69, velocity=127, time=0),
    Message('note_on', channel=1, note=62, velocity=127, time=0),
    Message('note_on', channel=1, note=66, velocity=0, time=30),
    Message('note_on', channel=1, note=69, velocity=0, time=2),
    Message('note_on', channel=1, note=62, velocity=0, time=1),
    Message('control_change', channel=1, control=64, value=0, time=103),
    Message('note_on', channel=1, note=45, velocity=127, time=8),
    Message('note_on', channel=1, note=61, velocity=127, time=0),
    Message('note_on', channel=1, note=52, velocity=127, time=0),
    Message('note_on', channel=1, note=64, velocity=127, time=0),
    Message('note_on', channel=1, note=57, velocity=127, time=0),
    Message('control_change', channel=1, control=64, value=127, time=49),
    Message('note_off', channel=1, note=57, velocity=0, time=19),
    Message('note_off', channel=1, note=61, velocity=0, time=0),
    Message('note_off', channel=1, note=64, velocity=0, time=0),
    Message('note_on', channel=1, note=64, velocity=127, time=28),
    Message('note_on', channel=1, note=61, velocity=127, time=0),
    Message('note_on', channel=1, note=57, velocity=127, time=0),
    Message('note_on', channel=1, note=61, velocity=0, time=13),
    Message('note_on', channel=1, note=64, velocity=0, time=0),
    Message('note_on', channel=1, note=52, velocity=0, time=0),
    Message('note_on', channel=1, note=57, velocity=0, time=4),
    Message('note_on', channel=1, note=61, velocity=127, time=31),
    Message('note_on', channel=1, note=64, velocity=127, time=0),
    Message('note_on', channel=1, note=57, velocity=127, time=0),
    Message('note_on', channel=1, note=61, velocity=0, time=44),
    Message('note_on', channel=1, note=57, velocity=0, time=1),
    Message('note_on', channel=1, note=64, velocity=0, time=3),
    Message('note_on', channel=1, note=52, velocity=127, time=0),
    Message('note_on', channel=1, note=61, velocity=127, time=48),
    Message('note_on', channel=1, note=55, velocity=127, time=0),
    Message('note_on', channel=1, note=64, velocity=127, time=0),
    Message('note_on', channel=1, note=52, velocity=0, time=6),
    Message('note_on', channel=1, note=45, velocity=0, time=25),
    Message('note_on', channel=1, note=61, velocity=0, time=15),
    Message('note_on', channel=1, note=52, velocity=127, time=2),
    Message('note_on', channel=1, note=64, velocity=0, time=3),
    Message('note_on', channel=1, note=55, velocity=0, time=2),
    Message('note_on', channel=1, note=52, velocity=0, time=18),
    Message('control_change', channel=1, control=64, value=0, time=67),
    Message('note_on', channel=1, note=55, velocity=127, time=6),
    Message('note_on', channel=1, note=59, velocity=127, time=0),
    Message('note_on', channel=1, note=52, velocity=127, time=0),
    Message('control_change', channel=1, control=64, value=127, time=36),
    Message('note_off', channel=1, note=52, velocity=0, time=33),
    Message('note_off', channel=1, note=59, velocity=0, time=1),
    Message('note_off', channel=1, note=55, velocity=0, time=0),
    Message('note_on', channel=1, note=52, velocity=127, time=26),
    Message('note_on', channel=1, note=52, velocity=0, time=34),
    Message('note_on', channel=1, note=40, velocity=127, time=14),
    Message('note_on', channel=1, note=40, velocity=0, time=38),
    Message('note_on', channel=1, note=52, velocity=127, time=10),
    Message('note_on', channel=1, note=52, velocity=0, time=36),
    Message('note_on', channel=1, note=55, velocity=127, time=12),
    Message('note_on', channel=1, note=55, velocity=0, time=34),
    Message('note_on', channel=1, note=59, velocity=127, time=14),
    Message('note_on', channel=1, note=59, velocity=0, time=28),
    Message('control_change', channel=1, control=64, value=0, time=66),
    Message('note_on', channel=1, note=43, velocity=127, time=2),
    Message('note_on', channel=1, note=55, velocity=127, time=0),
    Message('note_on', channel=1, note=59, velocity=127, time=0),
    Message('note_on', channel=1, note=62, velocity=127, time=0),
    Message('control_change', channel=1, control=64, value=127, time=50),
    Message('note_on', channel=1, note=50, velocity=127, time=46),
    Message('note_on', channel=1, note=55, velocity=0, time=4),
    Message('note_on', channel=1, note=62, velocity=0, time=6),
    Message('note_on', channel=1, note=59, velocity=0, time=1),
    Message('note_on', channel=1, note=50, velocity=0, time=12),
    Message('note_on', channel=1, note=59, velocity=127, time=25),
    Message('note_on', channel=1, note=62, velocity=127, time=0),
    Message('note_on', channel=1, note=55, velocity=127, time=0),
    Message('note_on', channel=1, note=59, velocity=0, time=18),
    Message('note_on', channel=1, note=55, velocity=0, time=2),
    Message('note_on', channel=1, note=62, velocity=0, time=3),
    Message('note_on', channel=1, note=59, velocity=127, time=73),
    Message('note_on', channel=1, note=55, velocity=127, time=0),
    Message('note_on', channel=1, note=62, velocity=127, time=0),
    Message('note_on', channel=1, note=59, velocity=0, time=17),
    Message('note_on', channel=1, note=55, velocity=0, time=1),
    Message('note_on', channel=1, note=62, velocity=0, time=3),
    Message('note_on', channel=1, note=43, velocity=0, time=16),
    Message('note_on', channel=1, note=62, velocity=127, time=59),
    Message('note_on', channel=1, note=59, velocity=127, time=0),
    Message('note_on', channel=1, note=55, velocity=127, time=0),
    Message('note_on', channel=1, note=59, velocity=0, time=15),
    Message('note_on', channel=1, note=55, velocity=0, time=2),
    Message('note_on', channel=1, note=62, velocity=0, time=3),
    Message('control_change', channel=1, control=64, value=0, time=20),
    Message('note_on', channel=1, note=57, velocity=127, time=8),
    Message('note_on', channel=1, note=50, velocity=127, time=0),
    Message('control_change', channel=1, control=64, value=127, time=38),
    Message('note_on', channel=1, note=66, velocity=127, time=34),
    Message('note_on', channel=1, note=62, velocity=127, time=0),
    Message('control_change', channel=1, control=64, value=0, time=1),
    Message('note_off', channel=1, note=57, velocity=0, time=9),
    Message('note_off', channel=1, note=66, velocity=0, time=6),
    Message('control_change', channel=1, control=64, value=127, time=0),
    Message('note_off', channel=1, note=62, velocity=0, time=2),
    Message('note_on', channel=1, note=69, velocity=127, time=6),
    Message('note_on', channel=1, note=69, velocity=0, time=15),
    Message('note_on', channel=1, note=66, velocity=127, time=33),
    Message('note_on', channel=1, note=69, velocity=127, time=0),
    Message('note_on', channel=1, note=62, velocity=127, time=0),
    Message('note_on', channel=1, note=57, velocity=127, time=48),
    Message('note_on', channel=1, note=62, velocity=0, time=1),
    Message('note_on', channel=1, note=69, velocity=0, time=0),
    Message('note_on', channel=1, note=66, velocity=0, time=1),
    Message('note_on', channel=1, note=57, velocity=0, time=21),
    Message('note_on', channel=1, note=50, velocity=0, time=13),
    Message('note_on', channel=1, note=69, velocity=127, time=12),
    Message('note_on', channel=1, note=66, velocity=127, time=0),
    Message('note_on', channel=1, note=62, velocity=127, time=0),
    Message('note_on', channel=1, note=62, velocity=0, time=28),
    Message('note_on', channel=1, note=69, velocity=0, time=3),
    Message('note_on', channel=1, note=66, velocity=0, time=4),
    Message('note_on', channel=1, note=62, velocity=127, time=13),
    Message('note_on', channel=1, note=62, velocity=0, time=20),
    Message('note_on', channel=1, note=45, velocity=127, time=28),
    Message('control_change', channel=1, control=64, value=0, time=32),
    Message('note_on', channel=1, note=57, velocity=127, time=16),
    Message('note_on', channel=1, note=61, velocity=127, time=0),
    Message('note_on', channel=1, note=64, velocity=127, time=0),
    Message('control_change', channel=1, control=64, value=127, time=40),
    Message('note_on', channel=1, note=52, velocity=127, time=8),
    Message('note_on', channel=1, note=61, velocity=0, time=7),
    Message('note_on', channel=1, note=57, velocity=0, time=0),
    Message('note_on', channel=1, note=64, velocity=0, time=2),
    Message('note_on', channel=1, note=52, velocity=0, time=20),
    Message('note_on', channel=1, note=61, velocity=126, time=19),
    Message('note_on', channel=1, note=64, velocity=127, time=0),
    Message('note_on', channel=1, note=57, velocity=127, time=0),
    Message('note_on', channel=1, note=61, velocity=0, time=8),
    Message('note_on', channel=1, note=64, velocity=0, time=5),
    Message('note_on', channel=1, note=57, velocity=0, time=1),
    Message('note_on', channel=1, note=64, velocity=127, time=34),
    Message('note_on', channel=1, note=61, velocity=127, time=0),
    Message('note_on', channel=1, note=57, velocity=127, time=0),
    Message('note_on', channel=1, note=61, velocity=0, time=20),
    Message('note_on', channel=1, note=57, velocity=0, time=2),
    Message('note_on', channel=1, note=64, velocity=0, time=0),
    Message('note_on', channel=1, note=52, velocity=127, time=26),
    Message('note_on', channel=1, note=52, velocity=0, time=34),
    Message('note_on', channel=1, note=61, velocity=127, time=14),
    Message('note_on', channel=1, note=57, velocity=127, time=0),
    Message('note_on', channel=1, note=64, velocity=127, time=0),
    Message('note_on', channel=1, note=61, velocity=0, time=15),
    Message('note_on', channel=1, note=64, velocity=0, time=3),
    Message('note_on', channel=1, note=57, velocity=0, time=1),
    Message('note_on', channel=1, note=61, velocity=127, time=29),
    Message('note_on', channel=1, note=64, velocity=127, time=0),
    Message('note_on', channel=1, note=57, velocity=127, time=0),
    Message('note_on', channel=1, note=61, velocity=0, time=18),
    Message('note_on', channel=1, note=57, velocity=0, time=1),
    Message('note_on', channel=1, note=64, velocity=0, time=1),
    Message('note_on', channel=1, note=45, velocity=0, time=7),
    Message('control_change', channel=1, control=64, value=0, time=20),
    Message('note_on', channel=1, note=52, velocity=127, time=49),
    Message('note_on', channel=1, note=55, velocity=127, time=0),
    Message('note_on', channel=1, note=40, velocity=127, time=0),
    Message('note_on', channel=1, note=59, velocity=127, time=0),
    Message('control_change', channel=1, control=64, value=127, time=86),
    Message('note_off', channel=1, note=52, velocity=0, time=20),
    Message('note_off', channel=1, note=59, velocity=0, time=2),
    Message('note_off', channel=1, note=55, velocity=0, time=1),
    Message('note_on', channel=1, note=52, velocity=127, time=35),
    Message('note_on', channel=1, note=59, velocity=127, time=0),
    Message('note_on', channel=1, note=55, velocity=127, time=0),
    Message('note_on', channel=1, note=52, velocity=0, time=18),
    Message('note_on', channel=1, note=55, velocity=0, time=2),
    Message('note_on', channel=1, note=59, velocity=0, time=2),
    Message('note_on', channel=1, note=52, velocity=127, time=74),
    Message('note_on', channel=1, note=40, velocity=0, time=16),
    Message('note_on', channel=1, note=52, velocity=0, time=6),
    Message('note_on', channel=1, note=55, velocity=127, time=26),
    Message('note_on', channel=1, note=52, velocity=127, time=0),
    Message('note_on', channel=1, note=59, velocity=127, time=0),
    Message('note_on', channel=1, note=55, velocity=0, time=14),
    Message('note_on', channel=1, note=52, velocity=0, time=1),
    Message('note_on', channel=1, note=59, velocity=0, time=6),
    Message('control_change', channel=1, control=64, value=0, time=60),
    Message('note_on', channel=1, note=62, velocity=127, time=15),
    Message('note_on', channel=1, note=59, velocity=127, time=0),
    Message('note_on', channel=1, note=55, velocity=127, time=0),
    Message('note_on', channel=1, note=43, velocity=127, time=0),
    Message('control_change', channel=1, control=64, value=127, time=42),
    Message('note_on', channel=1, note=50, velocity=127, time=54),
    Message('note_on', channel=1, note=55, velocity=0, time=1),
    Message('note_on', channel=1, note=59, velocity=0, time=9),
    Message('note_on', channel=1, note=62, velocity=0, time=2),
    Message('note_on', channel=1, note=50, velocity=0, time=6),
    Message('note_on', channel=1, note=62, velocity=127, time=30),
    Message('note_on', channel=1, note=55, velocity=127, time=0),
    Message('note_on', channel=1, note=50, velocity=127, time=48),
    Message('note_on', channel=1, note=62, velocity=0, time=1),
    Message('note_on', channel=1, note=55, velocity=0, time=4),
    Message('note_on', channel=1, note=50, velocity=0, time=27),
    Message('note_on', channel=1, note=43, velocity=0, time=7),
    Message('note_on', channel=1, note=59, velocity=127, time=9),
    Message('note_on', channel=1, note=62, velocity=127, time=0),
    Message('note_on', channel=1, note=59, velocity=0, time=20),
    Message('note_on', channel=1, note=62, velocity=0, time=6),
    Message('note_on', channel=1, note=57, velocity=127, time=118),
    Message('note_on', channel=1, note=50, velocity=127, time=0),
    Message('note_on', channel=1, note=62, velocity=127, time=0),
    Message('note_on', channel=1, note=66, velocity=127, time=0),
    Message('note_on', channel=1, note=69, velocity=127, time=0),
    Message('control_change', channel=1, control=64, value=0, time=1),
    Message('control_change', channel=1, control=64, value=127, time=51),
    Message('note_off', channel=1, note=62, velocity=0, time=23),
    Message('note_off', channel=1, note=57, velocity=0, time=19),
    Message('note_on', channel=1, note=62, velocity=127, time=2),
    Message('note_on', channel=1, note=66, velocity=0, time=43),
    Message('note_on', channel=1, note=69, velocity=0, time=1),
    Message('note_on', channel=1, note=57, velocity=127, time=4),
    Message('note_on', channel=1, note=62, velocity=0, time=1),
    Message('note_on', channel=1, note=57, velocity=0, time=35),
    Message('note_on', channel=1, note=66, velocity=127, time=12),
    Message('note_on', channel=1, note=69, velocity=126, time=0),
    Message('note_on', channel=1, note=62, velocity=127, time=0),
    Message('note_on', channel=1, note=50, velocity=0, time=12),
    Message('note_on', channel=1, note=66, velocity=0, time=14),
    Message('note_on', channel=1, note=62, velocity=0, time=1),
    Message('note_on', channel=1, note=69, velocity=0, time=1),
    Message('note_on', channel=1, note=66, velocity=127, time=20),
    Message('note_on', channel=1, note=69, velocity=127, time=0),
    Message('note_on', channel=1, note=62, velocity=127, time=0),
    Message('note_on', channel=1, note=66, velocity=0, time=30),
    Message('note_on', channel=1, note=69, velocity=0, time=2),
    Message('note_on', channel=1, note=62, velocity=0, time=1),
    Message('control_change', channel=1, control=64, value=0, time=103),
    Message('note_on', channel=1, note=45, velocity=127, time=8),
    Message('note_on', channel=1, note=61, velocity=127, time=0),
    Message('note_on', channel=1, note=52, velocity=127, time=0),
    Message('note_on', channel=1, note=64, velocity=127, time=0),
    Message('note_on', channel=1, note=57, velocity=127, time=0),
    Message('control_change', channel=1, control=64, value=127, time=49),
    Message('note_off', channel=1, note=57, velocity=0, time=19),
    Message('note_off', channel=1, note=61, velocity=0, time=0),
    Message('note_off', channel=1, note=64, velocity=0, time=0),
    Message('note_on', channel=1, note=64, velocity=127, time=28),
    Message('note_on', channel=1, note=61, velocity=127, time=0),
    Message('note_on', channel=1, note=57, velocity=127, time=0),
    Message('note_on', channel=1, note=61, velocity=0, time=13),
    Message('note_on', channel=1, note=64, velocity=0, time=0),
    Message('note_on', channel=1, note=52, velocity=0, time=0),
    Message('note_on', channel=1, note=57, velocity=0, time=4),
    Message('note_on', channel=1, note=61, velocity=127, time=31),
    Message('note_on', channel=1, note=64, velocity=127, time=0),
    Message('note_on', channel=1, note=57, velocity=127, time=0),
    Message('note_on', channel=1, note=61, velocity=0, time=44),
    Message('note_on', channel=1, note=57, velocity=0, time=1),
    Message('note_on', channel=1, note=64, velocity=0, time=3),
    Message('note_on', channel=1, note=52, velocity=127, time=0),
    Message('note_on', channel=1, note=61, velocity=127, time=48),
    Message('note_on', channel=1, note=55, velocity=127, time=0),
    Message('note_on', channel=1, note=64, velocity=127, time=0),
    Message('note_on', channel=1, note=52, velocity=0, time=6),
    Message('note_on', channel=1, note=45, velocity=0, time=25),
    Message('note_on', channel=1, note=61, velocity=0, time=15),
    Message('note_on', channel=1, note=52, velocity=127, time=2),
    Message('note_on', channel=1, note=64, velocity=0, time=3),
    Message('note_on', channel=1, note=55, velocity=0, time=2),
    Message('note_on', channel=1, note=52, velocity=0, time=18),
    Message('control_change', channel=1, control=64, value=0, time=67),
    Message('note_on', channel=1, note=55, velocity=127, time=6),
    Message('note_on', channel=1, note=59, velocity=127, time=0),
    Message('note_on', channel=1, note=52, velocity=127, time=0),
    Message('control_change', channel=1, control=64, value=127, time=36),
    Message('note_off', channel=1, note=52, velocity=0, time=33),
    Message('note_off', channel=1, note=59, velocity=0, time=1),
    Message('note_off', channel=1, note=55, velocity=0, time=0),
    Message('note_on', channel=1, note=52, velocity=127, time=26),
    Message('note_on', channel=1, note=52, velocity=0, time=34),
    Message('note_on', channel=1, note=40, velocity=127, time=14),
    Message('note_on', channel=1, note=40, velocity=0, time=38),
    Message('note_on', channel=1, note=52, velocity=127, time=10),
    Message('note_on', channel=1, note=52, velocity=0, time=36),
    Message('note_on', channel=1, note=55, velocity=127, time=12),
    Message('note_on', channel=1, note=55, velocity=0, time=34),
    Message('note_on', channel=1, note=59, velocity=127, time=14),
    Message('note_on', channel=1, note=59, velocity=0, time=28),
    Message('control_change', channel=1, control=64, value=0, time=66),
    Message('note_on', channel=1, note=43, velocity=127, time=2),
    Message('note_on', channel=1, note=55, velocity=127, time=0),
    Message('note_on', channel=1, note=59, velocity=127, time=0),
    Message('note_on', channel=1, note=62, velocity=127, time=0),
    Message('control_change', channel=1, control=64, value=127, time=50),
    Message('note_on', channel=1, note=50, velocity=127, time=46),
    Message('note_on', channel=1, note=55, velocity=0, time=4),
    Message('note_on', channel=1, note=62, velocity=0, time=6),
    Message('note_on', channel=1, note=59, velocity=0, time=1),
    Message('note_on', channel=1, note=50, velocity=0, time=12),
    Message('note_on', channel=1, note=59, velocity=127, time=25),
    Message('note_on', channel=1, note=62, velocity=127, time=0),
    Message('note_on', channel=1, note=55, velocity=127, time=0),
    Message('note_on', channel=1, note=59, velocity=0, time=18),
    Message('note_on', channel=1, note=55, velocity=0, time=2),
    Message('note_on', channel=1, note=62, velocity=0, time=3),
    Message('note_on', channel=1, note=59, velocity=127, time=73),
    Message('note_on', channel=1, note=55, velocity=127, time=0),
    Message('note_on', channel=1, note=62, velocity=127, time=0),
    Message('note_on', channel=1, note=59, velocity=0, time=17),
    Message('note_on', channel=1, note=55, velocity=0, time=1),
    Message('note_on', channel=1, note=62, velocity=0, time=3),
    Message('note_on', channel=1, note=43, velocity=0, time=16),
    Message('note_on', channel=1, note=62, velocity=127, time=59),
    Message('note_on', channel=1, note=59, velocity=127, time=0),
    Message('note_on', channel=1, note=55, velocity=127, time=0),
    Message('note_on', channel=1, note=59, velocity=0, time=15),
    Message('note_on', channel=1, note=55, velocity=0, time=2),
    Message('note_on', channel=1, note=62, velocity=0, time=3),
    Message('control_change', channel=1, control=64, value=0, time=20),
    Message('note_on', channel=1, note=57, velocity=127, time=8),
    Message('note_on', channel=1, note=50, velocity=127, time=0),
    Message('control_change', channel=1, control=64, value=127, time=38),
    Message('note_on', channel=1, note=66, velocity=127, time=34),
    Message('note_on', channel=1, note=62, velocity=127, time=0),
    Message('control_change', channel=1, control=64, value=0, time=1),
    Message('note_off', channel=1, note=57, velocity=0, time=9),
    Message('note_off', channel=1, note=66, velocity=0, time=6),
    Message('control_change', channel=1, control=64, value=127, time=0),
    Message('note_off', channel=1, note=62, velocity=0, time=2),
    Message('note_on', channel=1, note=69, velocity=127, time=6),
    Message('note_on', channel=1, note=69, velocity=0, time=15),
    Message('note_on', channel=1, note=66, velocity=127, time=33),
    Message('note_on', channel=1, note=69, velocity=127, time=0),
    Message('note_on', channel=1, note=62, velocity=127, time=0),
    Message('note_on', channel=1, note=57, velocity=127, time=48),
    Message('note_on', channel=1, note=62, velocity=0, time=1),
    Message('note_on', channel=1, note=69, velocity=0, time=0),
    Message('note_on', channel=1, note=66, velocity=0, time=1),
    Message('note_on', channel=1, note=57, velocity=0, time=21),
    Message('note_on', channel=1, note=50, velocity=0, time=13),
    Message('note_on', channel=1, note=69, velocity=127, time=12),
    Message('note_on', channel=1, note=66, velocity=127, time=0),
    Message('note_on', channel=1, note=62, velocity=127, time=0),
    Message('note_on', channel=1, note=62, velocity=0, time=28),
    Message('note_on', channel=1, note=69, velocity=0, time=3),
    Message('note_on', channel=1, note=66, velocity=0, time=4),
    Message('note_on', channel=1, note=62, velocity=127, time=13),
    Message('note_on', channel=1, note=62, velocity=0, time=20),
    Message('note_on', channel=1, note=45, velocity=127, time=28),
    Message('control_change', channel=1, control=64, value=0, time=32),
    Message('note_on', channel=1, note=57, velocity=127, time=16),
    Message('note_on', channel=1, note=61, velocity=127, time=0),
    Message('note_on', channel=1, note=64, velocity=127, time=0),
    Message('control_change', channel=1, control=64, value=127, time=40),
    Message('note_on', channel=1, note=52, velocity=127, time=8),
    Message('note_on', channel=1, note=61, velocity=0, time=7),
    Message('note_on', channel=1, note=57, velocity=0, time=0),
    Message('note_on', channel=1, note=64, velocity=0, time=2),
    Message('note_on', channel=1, note=52, velocity=0, time=20),
    Message('note_on', channel=1, note=61, velocity=126, time=19),
    Message('note_on', channel=1, note=64, velocity=127, time=0),
    Message('note_on', channel=1, note=57, velocity=127, time=0),
    Message('note_on', channel=1, note=61, velocity=0, time=8),
    Message('note_on', channel=1, note=64, velocity=0, time=5),
    Message('note_on', channel=1, note=57, velocity=0, time=1),
    Message('note_on', channel=1, note=64, velocity=127, time=34),
    Message('note_on', channel=1, note=61, velocity=127, time=0),
    Message('note_on', channel=1, note=57, velocity=127, time=0),
    Message('note_on', channel=1, note=61, velocity=0, time=20),
    Message('note_on', channel=1, note=57, velocity=0, time=2),
    Message('note_on', channel=1, note=64, velocity=0, time=0),
    Message('note_on', channel=1, note=52, velocity=127, time=26),
    Message('note_on', channel=1, note=52, velocity=0, time=34),
    Message('note_on', channel=1, note=61, velocity=127, time=14),
    Message('note_on', channel=1, note=57, velocity=127, time=0),
    Message('note_on', channel=1, note=64, velocity=127, time=0),
    Message('note_on', channel=1, note=61, velocity=0, time=15),
    Message('note_on', channel=1, note=64, velocity=0, time=3),
    Message('note_on', channel=1, note=57, velocity=0, time=1),
    Message('note_on', channel=1, note=61, velocity=127, time=29),
    Message('note_on', channel=1, note=64, velocity=127, time=0),
    Message('note_on', channel=1, note=57, velocity=127, time=0),
    Message('note_on', channel=1, note=61, velocity=0, time=18),
    Message('note_on', channel=1, note=57, velocity=0, time=1),
    Message('note_on', channel=1, note=64, velocity=0, time=1),
    Message('note_on', channel=1, note=45, velocity=0, time=7),
    Message('control_change', channel=1, control=64, value=0, time=20),
    Message('note_on', channel=1, note=52, velocity=127, time=49),
    Message('note_on', channel=1, note=55, velocity=127, time=0),
    Message('note_on', channel=1, note=40, velocity=127, time=0),
    Message('note_on', channel=1, note=59, velocity=127, time=0),
    Message('control_change', channel=1, control=64, value=127, time=86),
    Message('note_off', channel=1, note=52, velocity=0, time=20),
    Message('note_off', channel=1, note=59, velocity=0, time=2),
    Message('note_off', channel=1, note=55, velocity=0, time=1),
    Message('note_on', channel=1, note=52, velocity=127, time=35),
    Message('note_on', channel=1, note=59, velocity=127, time=0),
    Message('note_on', channel=1, note=55, velocity=127, time=0),
    Message('note_on', channel=1, note=52, velocity=0, time=18),
    Message('note_on', channel=1, note=55, velocity=0, time=2),
    Message('note_on', channel=1, note=59, velocity=0, time=2),
    Message('note_on', channel=1, note=52, velocity=127, time=74),
    Message('note_on', channel=1, note=40, velocity=0, time=16),
    Message('note_on', channel=1, note=52, velocity=0, time=6),
    Message('note_on', channel=1, note=55, velocity=127, time=26),
    Message('note_on', channel=1, note=52, velocity=127, time=0),
    Message('note_on', channel=1, note=59, velocity=127, time=0),
    Message('note_on', channel=1, note=55, velocity=0, time=14),
    Message('note_on', channel=1, note=52, velocity=0, time=1),
    Message('note_on', channel=1, note=59, velocity=0, time=6),
    Message('control_change', channel=1, control=64, value=0, time=60),
    Message('note_on', channel=1, note=62, velocity=127, time=15),
    Message('note_on', channel=1, note=59, velocity=127, time=0),
    Message('note_on', channel=1, note=55, velocity=127, time=0),
    Message('note_on', channel=1, note=43, velocity=127, time=0),
    Message('control_change', channel=1, control=64, value=127, time=42),
    Message('note_on', channel=1, note=50, velocity=127, time=54),
    Message('note_on', channel=1, note=55, velocity=0, time=1),
    Message('note_on', channel=1, note=59, velocity=0, time=9),
    Message('note_on', channel=1, note=62, velocity=0, time=2),
    Message('note_on', channel=1, note=50, velocity=0, time=6),
    Message('note_on', channel=1, note=62, velocity=127, time=30),
    Message('note_on', channel=1, note=55, velocity=127, time=0),
    Message('note_on', channel=1, note=50, velocity=127, time=48),
    Message('note_on', channel=1, note=62, velocity=0, time=1),
    Message('note_on', channel=1, note=55, velocity=0, time=4),
    Message('note_on', channel=1, note=50, velocity=0, time=27),
    Message('note_on', channel=1, note=43, velocity=0, time=7),
    Message('note_on', channel=1, note=59, velocity=127, time=9),
    Message('note_on', channel=1, note=62, velocity=127, time=0),
    Message('note_on', channel=1, note=59, velocity=0, time=20),
    Message('note_on', channel=1, note=62, velocity=0, time=6),
    Message('note_on', channel=1, note=57, velocity=127, time=118),
    Message('note_on', channel=1, note=50, velocity=127, time=0),
    Message('note_on', channel=1, note=62, velocity=127, time=0),
    Message('note_on', channel=1, note=66, velocity=127, time=0),
    Message('note_on', channel=1, note=69, velocity=127, time=0),
    Message('control_change', channel=1, control=64, value=0, time=1),
    Message('control_change', channel=1, control=64, value=127, time=51),
    Message('note_off', channel=1, note=62, velocity=0, time=23),
    Message('note_off', channel=1, note=57, velocity=0, time=19),
    Message('note_on', channel=1, note=62, velocity=127, time=2),
    Message('note_on', channel=1, note=66, velocity=0, time=43),
    Message('note_on', channel=1, note=69, velocity=0, time=1),
    Message('note_on', channel=1, note=57, velocity=127, time=4),
    Message('note_on', channel=1, note=62, velocity=0, time=1),
    Message('note_on', channel=1, note=57, velocity=0, time=35),
    Message('note_on', channel=1, note=66, velocity=127, time=12),
    Message('note_on', channel=1, note=69, velocity=126, time=0),
    Message('note_on', channel=1, note=62, velocity=127, time=0),
    Message('note_on', channel=1, note=50, velocity=0, time=12),
    Message('note_on', channel=1, note=66, velocity=0, time=14),
    Message('note_on', channel=1, note=62, velocity=0, time=1),
    Message('note_on', channel=1, note=69, velocity=0, time=1),
    Message('note_on', channel=1, note=66, velocity=127, time=20),
    Message('note_on', channel=1, note=69, velocity=127, time=0),
    Message('note_on', channel=1, note=62, velocity=127, time=0),
    Message('note_on', channel=1, note=66, velocity=0, time=30),
    Message('note_on', channel=1, note=69, velocity=0, time=2),
    Message('note_on', channel=1, note=62, velocity=0, time=1),
    Message('control_change', channel=1, control=64, value=0, time=103),
    Message('note_on', channel=1, note=45, velocity=127, time=8),
    Message('note_on', channel=1, note=61, velocity=127, time=0),
    Message('note_on', channel=1, note=52, velocity=127, time=0),
    Message('note_on', channel=1, note=64, velocity=127, time=0),
    Message('note_on', channel=1, note=57, velocity=127, time=0),
    Message('control_change', channel=1, control=64, value=127, time=49),
    Message('note_off', channel=1, note=57, velocity=0, time=19),
    Message('note_off', channel=1, note=61, velocity=0, time=0),
    Message('note_off', channel=1, note=64, velocity=0, time=0),
    Message('note_on', channel=1, note=64, velocity=127, time=28),
    Message('note_on', channel=1, note=61, velocity=127, time=0),
    Message('note_on', channel=1, note=57, velocity=127, time=0),
    Message('note_on', channel=1, note=61, velocity=0, time=13),
    Message('note_on', channel=1, note=64, velocity=0, time=0),
    Message('note_on', channel=1, note=52, velocity=0, time=0),
    Message('note_on', channel=1, note=57, velocity=0, time=4),
    Message('note_on', channel=1, note=61, velocity=127, time=31),
    Message('note_on', channel=1, note=64, velocity=127, time=0),
    Message('note_on', channel=1, note=57, velocity=127, time=0),
    Message('note_on', channel=1, note=61, velocity=0, time=44),
    Message('note_on', channel=1, note=57, velocity=0, time=1),
    Message('note_on', channel=1, note=64, velocity=0, time=3),
    Message('note_on', channel=1, note=52, velocity=127, time=0),
    Message('note_on', channel=1, note=61, velocity=127, time=48),
    Message('note_on', channel=1, note=55, velocity=127, time=0),
    Message('note_on', channel=1, note=64, velocity=127, time=0),
    Message('note_on', channel=1, note=52, velocity=0, time=6),
    Message('note_on', channel=1, note=45, velocity=0, time=25),
    Message('note_on', channel=1, note=61, velocity=0, time=15),
    Message('note_on', channel=1, note=52, velocity=127, time=2),
    Message('note_on', channel=1, note=64, velocity=0, time=3),
    Message('note_on', channel=1, note=55, velocity=0, time=2),
    Message('note_on', channel=1, note=52, velocity=0, time=18),
    Message('control_change', channel=1, control=64, value=0, time=67),
    Message('note_on', channel=1, note=55, velocity=127, time=6),
    Message('note_on', channel=1, note=59, velocity=127, time=0),
    Message('note_on', channel=1, note=52, velocity=127, time=0),
    Message('control_change', channel=1, control=64, value=127, time=36),
    Message('note_off', channel=1, note=52, velocity=0, time=33),
    Message('note_off', channel=1, note=59, velocity=0, time=1),
    Message('note_off', channel=1, note=55, velocity=0, time=0),
    Message('note_on', channel=1, note=52, velocity=127, time=26),
    Message('note_on', channel=1, note=52, velocity=0, time=34),
    Message('note_on', channel=1, note=40, velocity=127, time=14),
    Message('note_on', channel=1, note=40, velocity=0, time=38),
    Message('note_on', channel=1, note=52, velocity=127, time=10),
    Message('note_on', channel=1, note=52, velocity=0, time=36),
    Message('note_on', channel=1, note=55, velocity=127, time=12),
    Message('note_on', channel=1, note=55, velocity=0, time=34),
    Message('note_on', channel=1, note=59, velocity=127, time=14),
    Message('note_on', channel=1, note=59, velocity=0, time=28),
    Message('control_change', channel=1, control=64, value=0, time=66),
    Message('note_on', channel=1, note=43, velocity=127, time=2),
    Message('note_on', channel=1, note=55, velocity=127, time=0),
    Message('note_on', channel=1, note=59, velocity=127, time=0),
    Message('note_on', channel=1, note=62, velocity=127, time=0),
    Message('control_change', channel=1, control=64, value=127, time=50),
    Message('note_on', channel=1, note=50, velocity=127, time=46),
    Message('note_on', channel=1, note=55, velocity=0, time=4),
    Message('note_on', channel=1, note=62, velocity=0, time=6),
    Message('note_on', channel=1, note=59, velocity=0, time=1),
    Message('note_on', channel=1, note=50, velocity=0, time=12),
    Message('note_on', channel=1, note=59, velocity=127, time=25),
    Message('note_on', channel=1, note=62, velocity=127, time=0),
    Message('note_on', channel=1, note=55, velocity=127, time=0),
    Message('note_on', channel=1, note=59, velocity=0, time=18),
    Message('note_on', channel=1, note=55, velocity=0, time=2),
    Message('note_on', channel=1, note=62, velocity=0, time=3),
    Message('note_on', channel=1, note=59, velocity=127, time=73),
    Message('note_on', channel=1, note=55, velocity=127, time=0),
    Message('note_on', channel=1, note=62, velocity=127, time=0),
    Message('note_on', channel=1, note=59, velocity=0, time=17),
    Message('note_on', channel=1, note=55, velocity=0, time=1),
    Message('note_on', channel=1, note=62, velocity=0, time=3),
    Message('note_on', channel=1, note=43, velocity=0, time=16),
    Message('note_on', channel=1, note=62, velocity=127, time=59),
    Message('note_on', channel=1, note=59, velocity=127, time=0),
    Message('note_on', channel=1, note=55, velocity=127, time=0),
    Message('note_on', channel=1, note=59, velocity=0, time=15),
    Message('note_on', channel=1, note=55, velocity=0, time=2),
    Message('note_on', channel=1, note=62, velocity=0, time=3),
    Message('control_change', channel=1, control=64, value=0, time=20),
    Message('note_on', channel=1, note=57, velocity=127, time=8),
    Message('note_on', channel=1, note=50, velocity=127, time=0),
    Message('control_change', channel=1, control=64, value=127, time=38),
    Message('note_on', channel=1, note=66, velocity=127, time=34),
    Message('note_on', channel=1, note=62, velocity=127, time=0),
    Message('control_change', channel=1, control=64, value=0, time=1),
    Message('note_off', channel=1, note=57, velocity=0, time=9),
    Message('note_off', channel=1, note=66, velocity=0, time=6),
    Message('control_change', channel=1, control=64, value=127, time=0),
    Message('note_off', channel=1, note=62, velocity=0, time=2),
    Message('note_on', channel=1, note=69, velocity=127, time=6),
    Message('note_on', channel=1, note=69, velocity=0, time=15),
    Message('note_on', channel=1, note=66, velocity=127, time=33),
    Message('note_on', channel=1, note=69, velocity=127, time=0),
    Message('note_on', channel=1, note=62, velocity=127, time=0),
    Message('note_on', channel=1, note=57, velocity=127, time=48),
    Message('note_on', channel=1, note=62, velocity=0, time=1),
    Message('note_on', channel=1, note=69, velocity=0, time=0),
    Message('note_on', channel=1, note=66, velocity=0, time=1),
    Message('note_on', channel=1, note=57, velocity=0, time=21),
    Message('note_on', channel=1, note=50, velocity=0, time=13),
    Message('note_on', channel=1, note=69, velocity=127, time=12),
    Message('note_on', channel=1, note=66, velocity=127, time=0),
    Message('note_on', channel=1, note=62, velocity=127, time=0),
    Message('note_on', channel=1, note=62, velocity=0, time=28),
    Message('note_on', channel=1, note=69, velocity=0, time=3),
    Message('note_on', channel=1, note=66, velocity=0, time=4),
    Message('note_on', channel=1, note=62, velocity=127, time=13),
    Message('note_on', channel=1, note=62, velocity=0, time=20),
    Message('note_on', channel=1, note=45, velocity=127, time=28),
    Message('control_change', channel=1, control=64, value=0, time=32),
    Message('note_on', channel=1, note=57, velocity=127, time=16),
    Message('note_on', channel=1, note=61, velocity=127, time=0),
    Message('note_on', channel=1, note=64, velocity=127, time=0),
    Message('control_change', channel=1, control=64, value=127, time=40),
    Message('note_on', channel=1, note=52, velocity=127, time=8),
    Message('note_on', channel=1, note=61, velocity=0, time=7),
    Message('note_on', channel=1, note=57, velocity=0, time=0),
    Message('note_on', channel=1, note=64, velocity=0, time=2),
    Message('note_on', channel=1, note=52, velocity=0, time=20),
    Message('note_on', channel=1, note=61, velocity=126, time=19),
    Message('note_on', channel=1, note=64, velocity=127, time=0),
    Message('note_on', channel=1, note=57, velocity=127, time=0),
    Message('note_on', channel=1, note=61, velocity=0, time=8),
    Message('note_on', channel=1, note=64, velocity=0, time=5),
    Message('note_on', channel=1, note=57, velocity=0, time=1),
    Message('note_on', channel=1, note=64, velocity=127, time=34),
    Message('note_on', channel=1, note=61, velocity=127, time=0),
    Message('note_on', channel=1, note=57, velocity=127, time=0),
    Message('note_on', channel=1, note=61, velocity=0, time=20),
    Message('note_on', channel=1, note=57, velocity=0, time=2),
    Message('note_on', channel=1, note=64, velocity=0, time=0),
    Message('note_on', channel=1, note=52, velocity=127, time=26),
    Message('note_on', channel=1, note=52, velocity=0, time=34),
    Message('note_on', channel=1, note=61, velocity=127, time=14),
    Message('note_on', channel=1, note=57, velocity=127, time=0),
    Message('note_on', channel=1, note=64, velocity=127, time=0),
    Message('note_on', channel=1, note=61, velocity=0, time=15),
    Message('note_on', channel=1, note=64, velocity=0, time=3),
    Message('note_on', channel=1, note=57, velocity=0, time=1),
    Message('note_on', channel=1, note=61, velocity=127, time=29),
    Message('note_on', channel=1, note=64, velocity=127, time=0),
    Message('note_on', channel=1, note=57, velocity=127, time=0),
    Message('note_on', channel=1, note=61, velocity=0, time=18),
    Message('note_on', channel=1, note=57, velocity=0, time=1),
    Message('note_on', channel=1, note=64, velocity=0, time=1),
    Message('note_on', channel=1, note=45, velocity=0, time=7),
    Message('control_change', channel=1, control=64, value=0, time=20),
    Message('note_on', channel=1, note=52, velocity=127, time=49),
    Message('note_on', channel=1, note=55, velocity=127, time=0),
    Message('note_on', channel=1, note=40, velocity=127, time=0),
    Message('note_on', channel=1, note=59, velocity=127, time=0),
    Message('control_change', channel=1, control=64, value=127, time=86),
    Message('note_off', channel=1, note=52, velocity=0, time=20),
    Message('note_off', channel=1, note=59, velocity=0, time=2),
    Message('note_off', channel=1, note=55, velocity=0, time=1),
    Message('note_on', channel=1, note=52, velocity=127, time=35),
    Message('note_on', channel=1, note=59, velocity=127, time=0),
    Message('note_on', channel=1, note=55, velocity=127, time=0),
    Message('note_on', channel=1, note=52, velocity=0, time=18),
    Message('note_on', channel=1, note=55, velocity=0, time=2),
    Message('note_on', channel=1, note=59, velocity=0, time=2),
    Message('note_on', channel=1, note=52, velocity=127, time=74),
    Message('note_on', channel=1, note=40, velocity=0, time=16),
    Message('note_on', channel=1, note=52, velocity=0, time=6),
    Message('note_on', channel=1, note=55, velocity=127, time=26),
    Message('note_on', channel=1, note=52, velocity=127, time=0),
    Message('note_on', channel=1, note=59, velocity=127, time=0),
    Message('note_on', channel=1, note=55, velocity=0, time=14),
    Message('note_on', channel=1, note=52, velocity=0, time=1),
    Message('note_on', channel=1, note=59, velocity=0, time=6),
    Message('control_change', channel=1, control=64, value=0, time=60),
    Message('note_on', channel=1, note=62, velocity=127, time=15),
    Message('note_on', channel=1, note=59, velocity=127, time=0),
    Message('note_on', channel=1, note=55, velocity=127, time=0),
    Message('note_on', channel=1, note=43, velocity=127, time=0),
    Message('control_change', channel=1, control=64, value=127, time=42),
    Message('note_on', channel=1, note=50, velocity=127, time=54),
    Message('note_on', channel=1, note=55, velocity=0, time=1),
    Message('note_on', channel=1, note=59, velocity=0, time=9),
    Message('note_on', channel=1, note=62, velocity=0, time=2),
    Message('note_on', channel=1, note=50, velocity=0, time=6),
    Message('note_on', channel=1, note=62, velocity=127, time=30),
    Message('note_on', channel=1, note=55, velocity=127, time=0),
    Message('note_on', channel=1, note=50, velocity=127, time=48),
    Message('note_on', channel=1, note=62, velocity=0, time=1),
    Message('note_on', channel=1, note=55, velocity=0, time=4),
    Message('note_on', channel=1, note=50, velocity=0, time=27),
    Message('note_on', channel=1, note=43, velocity=0, time=7),
    Message('note_on', channel=1, note=59, velocity=127, time=9),
    Message('note_on', channel=1, note=62, velocity=127, time=0),
    Message('note_on', channel=1, note=59, velocity=0, time=20),
    Message('note_on', channel=1, note=62, velocity=0, time=6),
    Message('note_on', channel=1, note=57, velocity=127, time=118),
    Message('note_on', channel=1, note=50, velocity=127, time=0),
    Message('note_on', channel=1, note=62, velocity=127, time=0),
    Message('note_on', channel=1, note=66, velocity=127, time=0),
    Message('note_on', channel=1, note=69, velocity=127, time=0),
    Message('control_change', channel=1, control=64, value=0, time=1),
    Message('control_change', channel=1, control=64, value=127, time=51),
    Message('note_off', channel=1, note=62, velocity=0, time=23),
    Message('note_off', channel=1, note=57, velocity=0, time=19),
    Message('note_on', channel=1, note=62, velocity=127, time=2),
    Message('note_on', channel=1, note=66, velocity=0, time=43),
    Message('note_on', channel=1, note=69, velocity=0, time=1),
    Message('note_on', channel=1, note=57, velocity=127, time=4),
    Message('note_on', channel=1, note=62, velocity=0, time=1),
    Message('note_on', channel=1, note=57, velocity=0, time=35),
    Message('note_on', channel=1, note=66, velocity=127, time=12),
    Message('note_on', channel=1, note=69, velocity=126, time=0),
    Message('note_on', channel=1, note=62, velocity=127, time=0),
    Message('note_on', channel=1, note=50, velocity=0, time=12),
    Message('note_on', channel=1, note=66, velocity=0, time=14),
    Message('note_on', channel=1, note=62, velocity=0, time=1),
    Message('note_on', channel=1, note=69, velocity=0, time=1),
    Message('note_on', channel=1, note=66, velocity=127, time=20),
    Message('note_on', channel=1, note=69, velocity=127, time=0),
    Message('note_on', channel=1, note=62, velocity=127, time=0),
    Message('note_on', channel=1, note=66, velocity=0, time=30),
    Message('note_on', channel=1, note=69, velocity=0, time=2),
    Message('note_on', channel=1, note=62, velocity=0, time=1),
    Message('control_change', channel=1, control=64, value=0, time=103),
    Message('note_on', channel=1, note=45, velocity=127, time=8),
    Message('note_on', channel=1, note=61, velocity=127, time=0),
    Message('note_on', channel=1, note=52, velocity=127, time=0),
    Message('note_on', channel=1, note=64, velocity=127, time=0),
    Message('note_on', channel=1, note=57, velocity=127, time=0),
    Message('control_change', channel=1, control=64, value=127, time=49),
    Message('note_off', channel=1, note=57, velocity=0, time=19),
    Message('note_off', channel=1, note=61, velocity=0, time=0),
    Message('note_off', channel=1, note=64, velocity=0, time=0),
    Message('note_on', channel=1, note=64, velocity=127, time=28),
    Message('note_on', channel=1, note=61, velocity=127, time=0),
    Message('note_on', channel=1, note=57, velocity=127, time=0),
    Message('note_on', channel=1, note=61, velocity=0, time=13),
    Message('note_on', channel=1, note=64, velocity=0, time=0),
    Message('note_on', channel=1, note=52, velocity=0, time=0),
    Message('note_on', channel=1, note=57, velocity=0, time=4),
    Message('note_on', channel=1, note=61, velocity=127, time=31),
    Message('note_on', channel=1, note=64, velocity=127, time=0),
    Message('note_on', channel=1, note=57, velocity=127, time=0),
    Message('note_on', channel=1, note=61, velocity=0, time=44),
    Message('note_on', channel=1, note=57, velocity=0, time=1),
    Message('note_on', channel=1, note=64, velocity=0, time=3),
    Message('note_on', channel=1, note=52, velocity=127, time=0),
    Message('note_on', channel=1, note=61, velocity=127, time=48),
    Message('note_on', channel=1, note=55, velocity=127, time=0),
    Message('note_on', channel=1, note=64, velocity=127, time=0),
    Message('note_on', channel=1, note=52, velocity=0, time=6),
    Message('note_on', channel=1, note=45, velocity=0, time=25),
    Message('note_on', channel=1, note=61, velocity=0, time=15),
    Message('note_on', channel=1, note=52, velocity=127, time=2),
    Message('note_on', channel=1, note=64, velocity=0, time=3),
    Message('note_on', channel=1, note=55, velocity=0, time=2),
    Message('note_on', channel=1, note=52, velocity=0, time=18),
    Message('control_change', channel=1, control=64, value=0, time=67),
    Message('note_on', channel=1, note=55, velocity=127, time=6),
    Message('note_on', channel=1, note=59, velocity=127, time=0),
    Message('note_on', channel=1, note=52, velocity=127, time=0),
    Message('control_change', channel=1, control=64, value=127, time=36),
    Message('note_off', channel=1, note=52, velocity=0, time=33),
    Message('note_off', channel=1, note=59, velocity=0, time=1),
    Message('note_off', channel=1, note=55, velocity=0, time=0),
    Message('note_on', channel=1, note=52, velocity=127, time=26),
    Message('note_on', channel=1, note=52, velocity=0, time=34),
    Message('note_on', channel=1, note=40, velocity=127, time=14),
    Message('note_on', channel=1, note=40, velocity=0, time=38),
    Message('note_on', channel=1, note=52, velocity=127, time=10),
    Message('note_on', channel=1, note=52, velocity=0, time=36),
    Message('note_on', channel=1, note=55, velocity=127, time=12),
    Message('note_on', channel=1, note=55, velocity=0, time=34),
    Message('note_on', channel=1, note=59, velocity=127, time=14),
    Message('note_on', channel=1, note=59, velocity=0, time=28),
    Message('control_change', channel=1, control=64, value=0, time=66),
    Message('note_on', channel=1, note=43, velocity=127, time=2),
    Message('note_on', channel=1, note=55, velocity=127, time=0),
    Message('note_on', channel=1, note=59, velocity=127, time=0),
    Message('note_on', channel=1, note=62, velocity=127, time=0),
    Message('control_change', channel=1, control=64, value=127, time=50),
    Message('note_on', channel=1, note=50, velocity=127, time=46),
    Message('note_on', channel=1, note=55, velocity=0, time=4),
    Message('note_on', channel=1, note=62, velocity=0, time=6),
    Message('note_on', channel=1, note=59, velocity=0, time=1),
    Message('note_on', channel=1, note=50, velocity=0, time=12),
    Message('note_on', channel=1, note=59, velocity=127, time=25),
    Message('note_on', channel=1, note=62, velocity=127, time=0),
    Message('note_on', channel=1, note=55, velocity=127, time=0),
    Message('note_on', channel=1, note=59, velocity=0, time=18),
    Message('note_on', channel=1, note=55, velocity=0, time=2),
    Message('note_on', channel=1, note=62, velocity=0, time=3),
    Message('note_on', channel=1, note=59, velocity=127, time=73),
    Message('note_on', channel=1, note=55, velocity=127, time=0),
    Message('note_on', channel=1, note=62, velocity=127, time=0),
    Message('note_on', channel=1, note=59, velocity=0, time=17),
    Message('note_on', channel=1, note=55, velocity=0, time=1),
    Message('note_on', channel=1, note=62, velocity=0, time=3),
    Message('note_on', channel=1, note=43, velocity=0, time=16),
    Message('note_on', channel=1, note=62, velocity=127, time=59),
    Message('note_on', channel=1, note=59, velocity=127, time=0),
    Message('note_on', channel=1, note=55, velocity=127, time=0),
    Message('note_on', channel=1, note=59, velocity=0, time=15),
    Message('note_on', channel=1, note=55, velocity=0, time=2),
    Message('note_on', channel=1, note=62, velocity=0, time=3),
    Message('control_change', channel=1, control=64, value=0, time=20),
    Message('note_on', channel=1, note=57, velocity=127, time=8),
    Message('note_on', channel=1, note=50, velocity=127, time=0),
    Message('control_change', channel=1, control=64, value=127, time=38),
    Message('note_on', channel=1, note=66, velocity=127, time=34),
    Message('note_on', channel=1, note=62, velocity=127, time=0),
    Message('control_change', channel=1, control=64, value=0, time=1),
    Message('note_off', channel=1, note=57, velocity=0, time=9),
    Message('note_off', channel=1, note=66, velocity=0, time=6),
    Message('control_change', channel=1, control=64, value=127, time=0),
    Message('note_off', channel=1, note=62, velocity=0, time=2),
    Message('note_on', channel=1, note=69, velocity=127, time=6),
    Message('note_on', channel=1, note=69, velocity=0, time=15),
    Message('note_on', channel=1, note=66, velocity=127, time=33),
    Message('note_on', channel=1, note=69, velocity=127, time=0),
    Message('note_on', channel=1, note=62, velocity=127, time=0),
    Message('note_on', channel=1, note=57, velocity=127, time=48),
    Message('note_on', channel=1, note=62, velocity=0, time=1),
    Message('note_on', channel=1, note=69, velocity=0, time=0),
    Message('note_on', channel=1, note=66, velocity=0, time=1),
    Message('note_on', channel=1, note=57, velocity=0, time=21),
    Message('note_on', channel=1, note=50, velocity=0, time=13),
    Message('note_on', channel=1, note=69, velocity=127, time=12),
    Message('note_on', channel=1, note=66, velocity=127, time=0),
    Message('note_on', channel=1, note=62, velocity=127, time=0),
    Message('note_on', channel=1, note=62, velocity=0, time=28),
    Message('note_on', channel=1, note=69, velocity=0, time=3),
    Message('note_on', channel=1, note=66, velocity=0, time=4),
    Message('note_on', channel=1, note=62, velocity=127, time=13),
    Message('note_on', channel=1, note=62, velocity=0, time=20),
    Message('note_on', channel=1, note=45, velocity=127, time=28),
    Message('control_change', channel=1, control=64, value=0, time=32),
    Message('note_on', channel=1, note=57, velocity=127, time=16),
    Message('note_on', channel=1, note=61, velocity=127, time=0),
    Message('note_on', channel=1, note=64, velocity=127, time=0),
    Message('control_change', channel=1, control=64, value=127, time=40),
    Message('note_on', channel=1, note=52, velocity=127, time=8),
    Message('note_on', channel=1, note=61, velocity=0, time=7),
    Message('note_on', channel=1, note=57, velocity=0, time=0),
    Message('note_on', channel=1, note=64, velocity=0, time=2),
    Message('note_on', channel=1, note=52, velocity=0, time=20),
    Message('note_on', channel=1, note=61, velocity=126, time=19),
    Message('note_on', channel=1, note=64, velocity=127, time=0),
    Message('note_on', channel=1, note=57, velocity=127, time=0),
    Message('note_on', channel=1, note=61, velocity=0, time=8),
    Message('note_on', channel=1, note=64, velocity=0, time=5),
    Message('note_on', channel=1, note=57, velocity=0, time=1),
    Message('note_on', channel=1, note=64, velocity=127, time=34),
    Message('note_on', channel=1, note=61, velocity=127, time=0),
    Message('note_on', channel=1, note=57, velocity=127, time=0),
    Message('note_on', channel=1, note=61, velocity=0, time=20),
    Message('note_on', channel=1, note=57, velocity=0, time=2),
    Message('note_on', channel=1, note=64, velocity=0, time=0),
    Message('note_on', channel=1, note=52, velocity=127, time=26),
    Message('note_on', channel=1, note=52, velocity=0, time=34),
    Message('note_on', channel=1, note=61, velocity=127, time=14),
    Message('note_on', channel=1, note=57, velocity=127, time=0),
    Message('note_on', channel=1, note=64, velocity=127, time=0),
    Message('note_on', channel=1, note=61, velocity=0, time=15),
    Message('note_on', channel=1, note=64, velocity=0, time=3),
    Message('note_on', channel=1, note=57, velocity=0, time=1),
    Message('note_on', channel=1, note=61, velocity=127, time=29),
    Message('note_on', channel=1, note=64, velocity=127, time=0),
    Message('note_on', channel=1, note=57, velocity=127, time=0),
    Message('note_on', channel=1, note=61, velocity=0, time=18),
    Message('note_on', channel=1, note=57, velocity=0, time=1),
    Message('note_on', channel=1, note=64, velocity=0, time=1),
    Message('note_on', channel=1, note=45, velocity=0, time=7),
    Message('control_change', channel=1, control=64, value=0, time=20),
    Message('note_on', channel=1, note=52, velocity=127, time=49),
    Message('note_on', channel=1, note=55, velocity=127, time=0),
    Message('note_on', channel=1, note=40, velocity=127, time=0),
    Message('note_on', channel=1, note=59, velocity=127, time=0),
    Message('control_change', channel=1, control=64, value=127, time=86),
    Message('note_off', channel=1, note=52, velocity=0, time=20),
    Message('note_off', channel=1, note=59, velocity=0, time=2),
    Message('note_off', channel=1, note=55, velocity=0, time=1),
    Message('note_on', channel=1, note=52, velocity=127, time=35),
    Message('note_on', channel=1, note=59, velocity=127, time=0),
    Message('note_on', channel=1, note=55, velocity=127, time=0),
    Message('note_on', channel=1, note=52, velocity=0, time=18),
    Message('note_on', channel=1, note=55, velocity=0, time=2),
    Message('note_on', channel=1, note=59, velocity=0, time=2),
    Message('note_on', channel=1, note=52, velocity=127, time=74),
    Message('note_on', channel=1, note=40, velocity=0, time=16),
    Message('note_on', channel=1, note=52, velocity=0, time=6),
    Message('note_on', channel=1, note=55, velocity=127, time=26),
    Message('note_on', channel=1, note=52, velocity=127, time=0),
    Message('note_on', channel=1, note=59, velocity=127, time=0),
    Message('note_on', channel=1, note=55, velocity=0, time=14),
    Message('note_on', channel=1, note=52, velocity=0, time=1),
    Message('note_on', channel=1, note=59, velocity=0, time=6),
    Message('control_change', channel=1, control=64, value=0, time=60),
    Message('note_on', channel=1, note=62, velocity=127, time=15),
    Message('note_on', channel=1, note=59, velocity=127, time=0),
    Message('note_on', channel=1, note=55, velocity=127, time=0),
    Message('note_on', channel=1, note=43, velocity=127, time=0),
    Message('control_change', channel=1, control=64, value=127, time=42),
    Message('note_on', channel=1, note=50, velocity=127, time=54),
    Message('note_on', channel=1, note=55, velocity=0, time=1),
    Message('note_on', channel=1, note=59, velocity=0, time=9),
    Message('note_on', channel=1, note=62, velocity=0, time=2),
    Message('note_on', channel=1, note=50, velocity=0, time=6),
    Message('note_on', channel=1, note=62, velocity=127, time=30),
    Message('note_on', channel=1, note=55, velocity=127, time=0),
    Message('note_on', channel=1, note=50, velocity=127, time=48),
    Message('note_on', channel=1, note=62, velocity=0, time=1),
    Message('note_on', channel=1, note=55, velocity=0, time=4),
    Message('note_on', channel=1, note=50, velocity=0, time=27),
    Message('note_on', channel=1, note=43, velocity=0, time=7),
    Message('note_on', channel=1, note=59, velocity=127, time=9),
    Message('note_on', channel=1, note=62, velocity=127, time=0),
    Message('note_on', channel=1, note=59, velocity=0, time=20),
    Message('note_on', channel=1, note=62, velocity=0, time=6),
    Message('note_on', channel=1, note=57, velocity=127, time=118),
    Message('note_on', channel=1, note=50, velocity=127, time=0),
    Message('note_on', channel=1, note=62, velocity=127, time=0),
    Message('note_on', channel=1, note=66, velocity=127, time=0),
    Message('note_on', channel=1, note=69, velocity=127, time=0),
    Message('control_change', channel=1, control=64, value=0, time=1),
    Message('control_change', channel=1, control=64, value=127, time=51),
    Message('note_off', channel=1, note=62, velocity=0, time=23),
    Message('note_off', channel=1, note=57, velocity=0, time=19),
    Message('note_on', channel=1, note=62, velocity=127, time=2),
    Message('note_on', channel=1, note=66, velocity=0, time=43),
    Message('note_on', channel=1, note=69, velocity=0, time=1),
    Message('note_on', channel=1, note=57, velocity=127, time=4),
    Message('note_on', channel=1, note=62, velocity=0, time=1),
    Message('note_on', channel=1, note=57, velocity=0, time=35),
    Message('note_on', channel=1, note=66, velocity=127, time=12),
    Message('note_on', channel=1, note=69, velocity=126, time=0),
    Message('note_on', channel=1, note=62, velocity=127, time=0),
    Message('note_on', channel=1, note=50, velocity=0, time=12),
    Message('note_on', channel=1, note=66, velocity=0, time=14),
    Message('note_on', channel=1, note=62, velocity=0, time=1),
    Message('note_on', channel=1, note=69, velocity=0, time=1),
    Message('note_on', channel=1, note=66, velocity=127, time=20),
    Message('note_on', channel=1, note=69, velocity=127, time=0),
    Message('note_on', channel=1, note=62, velocity=127, time=0),
    Message('note_on', channel=1, note=66, velocity=0, time=30),
    Message('note_on', channel=1, note=69, velocity=0, time=2),
    Message('note_on', channel=1, note=62, velocity=0, time=1),
    Message('control_change', channel=1, control=64, value=0, time=103),
    Message('note_on', channel=1, note=45, velocity=127, time=8),
    Message('note_on', channel=1, note=61, velocity=127, time=0),
    Message('note_on', channel=1, note=52, velocity=127, time=0),
    Message('note_on', channel=1, note=64, velocity=127, time=0),
    Message('note_on', channel=1, note=57, velocity=127, time=0),
    Message('control_change', channel=1, control=64, value=127, time=49),
    Message('note_off', channel=1, note=57, velocity=0, time=19),
    Message('note_off', channel=1, note=61, velocity=0, time=0),
    Message('note_off', channel=1, note=64, velocity=0, time=0),
    Message('note_on', channel=1, note=64, velocity=127, time=28),
    Message('note_on', channel=1, note=61, velocity=127, time=0),
    Message('note_on', channel=1, note=57, velocity=127, time=0),
    Message('note_on', channel=1, note=61, velocity=0, time=13),
    Message('note_on', channel=1, note=64, velocity=0, time=0),
    Message('note_on', channel=1, note=52, velocity=0, time=0),
    Message('note_on', channel=1, note=57, velocity=0, time=4),
    Message('note_on', channel=1, note=61, velocity=127, time=31),
    Message('note_on', channel=1, note=64, velocity=127, time=0),
    Message('note_on', channel=1, note=57, velocity=127, time=0),
    Message('note_on', channel=1, note=61, velocity=0, time=44),
    Message('note_on', channel=1, note=57, velocity=0, time=1),
    Message('note_on', channel=1, note=64, velocity=0, time=3),
    Message('note_on', channel=1, note=52, velocity=127, time=0),
    Message('note_on', channel=1, note=61, velocity=127, time=48),
    Message('note_on', channel=1, note=55, velocity=127, time=0),
    Message('note_on', channel=1, note=64, velocity=127, time=0),
    Message('note_on', channel=1, note=52, velocity=0, time=6),
    Message('note_on', channel=1, note=45, velocity=0, time=25),
    Message('note_on', channel=1, note=61, velocity=0, time=15),
    Message('note_on', channel=1, note=52, velocity=127, time=2),
    Message('note_on', channel=1, note=64, velocity=0, time=3),
    Message('note_on', channel=1, note=55, velocity=0, time=2),
    Message('note_on', channel=1, note=52, velocity=0, time=18),
    Message('control_change', channel=1, control=64, value=0, time=67),
    Message('note_on', channel=1, note=55, velocity=127, time=6),
    Message('note_on', channel=1, note=59, velocity=127, time=0),
    Message('note_on', channel=1, note=52, velocity=127, time=0),
    Message('control_change', channel=1, control=64, value=127, time=36),
    Message('note_off', channel=1, note=52, velocity=0, time=33),
    Message('note_off', channel=1, note=59, velocity=0, time=1),
    Message('note_off', channel=1, note=55, velocity=0, time=0),
    Message('note_on', channel=1, note=52, velocity=127, time=26),
    Message('note_on', channel=1, note=52, velocity=0, time=34),
    Message('note_on', channel=1, note=40, velocity=127, time=14),
    Message('note_on', channel=1, note=40, velocity=0, time=38),
    Message('note_on', channel=1, note=52, velocity=127, time=10),
    Message('note_on', channel=1, note=52, velocity=0, time=36),
    Message('note_on', channel=1, note=55, velocity=127, time=12),
    Message('note_on', channel=1, note=55, velocity=0, time=34),
    Message('note_on', channel=1, note=59, velocity=127, time=14),
    Message('note_on', channel=1, note=59, velocity=0, time=28),
    Message('control_change', channel=1, control=64, value=0, time=66),
    Message('note_on', channel=1, note=43, velocity=127, time=2),
    Message('note_on', channel=1, note=55, velocity=127, time=0),
    Message('note_on', channel=1, note=59, velocity=127, time=0),
    Message('note_on', channel=1, note=62, velocity=127, time=0),
    Message('control_change', channel=1, control=64, value=127, time=50),
    Message('note_on', channel=1, note=50, velocity=127, time=46),
    Message('note_on', channel=1, note=55, velocity=0, time=4),
    Message('note_on', channel=1, note=62, velocity=0, time=6),
    Message('note_on', channel=1, note=59, velocity=0, time=1),
    Message('note_on', channel=1, note=50, velocity=0, time=12),
    Message('note_on', channel=1, note=59, velocity=127, time=25),
    Message('note_on', channel=1, note=62, velocity=127, time=0),
    Message('note_on', channel=1, note=55, velocity=127, time=0),
    Message('note_on', channel=1, note=59, velocity=0, time=18),
    Message('note_on', channel=1, note=55, velocity=0, time=2),
    Message('note_on', channel=1, note=62, velocity=0, time=3),
    Message('note_on', channel=1, note=59, velocity=127, time=73),
    Message('note_on', channel=1, note=55, velocity=127, time=0),
    Message('note_on', channel=1, note=62, velocity=127, time=0),
    Message('note_on', channel=1, note=59, velocity=0, time=17),
    Message('note_on', channel=1, note=55, velocity=0, time=1),
    Message('note_on', channel=1, note=62, velocity=0, time=3),
    Message('note_on', channel=1, note=43, velocity=0, time=16),
    Message('note_on', channel=1, note=62, velocity=127, time=59),
    Message('note_on', channel=1, note=59, velocity=127, time=0),
    Message('note_on', channel=1, note=55, velocity=127, time=0),
    Message('note_on', channel=1, note=59, velocity=0, time=15),
    Message('note_on', channel=1, note=55, velocity=0, time=2),
    Message('note_on', channel=1, note=62, velocity=0, time=3),
    Message('control_change', channel=1, control=64, value=0, time=20),
    Message('note_on', channel=1, note=57, velocity=127, time=8),
    Message('note_on', channel=1, note=50, velocity=127, time=0),
    Message('control_change', channel=1, control=64, value=127, time=38),
    Message('note_on', channel=1, note=66, velocity=127, time=34),
    Message('note_on', channel=1, note=62, velocity=127, time=0),
    Message('control_change', channel=1, control=64, value=0, time=1),
    Message('note_off', channel=1, note=57, velocity=0, time=9),
    Message('note_off', channel=1, note=66, velocity=0, time=6),
    Message('control_change', channel=1, control=64, value=127, time=0),
    Message('note_off', channel=1, note=62, velocity=0, time=2),
    Message('note_on', channel=1, note=69, velocity=127, time=6),
    Message('note_on', channel=1, note=69, velocity=0, time=15),
    Message('note_on', channel=1, note=66, velocity=127, time=33),
    Message('note_on', channel=1, note=69, velocity=127, time=0),
    Message('note_on', channel=1, note=62, velocity=127, time=0),
    Message('note_on', channel=1, note=57, velocity=127, time=48),
    Message('note_on', channel=1, note=62, velocity=0, time=1),
    Message('note_on', channel=1, note=69, velocity=0, time=0),
    Message('note_on', channel=1, note=66, velocity=0, time=1),
    Message('note_on', channel=1, note=57, velocity=0, time=21),
    Message('note_on', channel=1, note=50, velocity=0, time=13),
    Message('note_on', channel=1, note=69, velocity=127, time=12),
    Message('note_on', channel=1, note=66, velocity=127, time=0),
    Message('note_on', channel=1, note=62, velocity=127, time=0),
    Message('note_on', channel=1, note=62, velocity=0, time=28),
    Message('note_on', channel=1, note=69, velocity=0, time=3),
    Message('note_on', channel=1, note=66, velocity=0, time=4),
    Message('note_on', channel=1, note=62, velocity=127, time=13),
    Message('note_on', channel=1, note=62, velocity=0, time=20),
    Message('note_on', channel=1, note=45, velocity=127, time=28),
    Message('control_change', channel=1, control=64, value=0, time=32),
    Message('note_on', channel=1, note=57, velocity=127, time=16),
    Message('note_on', channel=1, note=61, velocity=127, time=0),
    Message('note_on', channel=1, note=64, velocity=127, time=0),
    Message('control_change', channel=1, control=64, value=127, time=40),
    Message('note_on', channel=1, note=52, velocity=127, time=8),
    Message('note_on', channel=1, note=61, velocity=0, time=7),
    Message('note_on', channel=1, note=57, velocity=0, time=0),
    Message('note_on', channel=1, note=64, velocity=0, time=2),
    Message('note_on', channel=1, note=52, velocity=0, time=20),
    Message('note_on', channel=1, note=61, velocity=126, time=19),
    Message('note_on', channel=1, note=64, velocity=127, time=0),
    Message('note_on', channel=1, note=57, velocity=127, time=0),
    Message('note_on', channel=1, note=61, velocity=0, time=8),
    Message('note_on', channel=1, note=64, velocity=0, time=5),
    Message('note_on', channel=1, note=57, velocity=0, time=1),
    Message('note_on', channel=1, note=64, velocity=127, time=34),
    Message('note_on', channel=1, note=61, velocity=127, time=0),
    Message('note_on', channel=1, note=57, velocity=127, time=0),
    Message('note_on', channel=1, note=61, velocity=0, time=20),
    Message('note_on', channel=1, note=57, velocity=0, time=2),
    Message('note_on', channel=1, note=64, velocity=0, time=0),
    Message('note_on', channel=1, note=52, velocity=127, time=26),
    Message('note_on', channel=1, note=52, velocity=0, time=34),
    Message('note_on', channel=1, note=61, velocity=127, time=14),
    Message('note_on', channel=1, note=57, velocity=127, time=0),
    Message('note_on', channel=1, note=64, velocity=127, time=0),
    Message('note_on', channel=1, note=61, velocity=0, time=15),
    Message('note_on', channel=1, note=64, velocity=0, time=3),
    Message('note_on', channel=1, note=57, velocity=0, time=1),
    Message('note_on', channel=1, note=61, velocity=127, time=29),
    Message('note_on', channel=1, note=64, velocity=127, time=0),
    Message('note_on', channel=1, note=57, velocity=127, time=0),
    Message('note_on', channel=1, note=61, velocity=0, time=18),
    Message('note_on', channel=1, note=57, velocity=0, time=1),
    Message('note_on', channel=1, note=64, velocity=0, time=1),
    Message('note_on', channel=1, note=45, velocity=0, time=7),
    Message('control_change', channel=1, control=64, value=0, time=20),
    Message('note_on', channel=1, note=52, velocity=127, time=49),
    Message('note_on', channel=1, note=55, velocity=127, time=0),
    Message('note_on', channel=1, note=40, velocity=127, time=0),
    Message('note_on', channel=1, note=59, velocity=127, time=0),
    Message('control_change', channel=1, control=64, value=127, time=86),
    Message('note_off', channel=1, note=52, velocity=0, time=20),
    Message('note_off', channel=1, note=59, velocity=0, time=2),
    Message('note_off', channel=1, note=55, velocity=0, time=1),
    Message('note_on', channel=1, note=52, velocity=127, time=35),
    Message('note_on', channel=1, note=59, velocity=127, time=0),
    Message('note_on', channel=1, note=55, velocity=127, time=0),
    Message('note_on', channel=1, note=52, velocity=0, time=18),
    Message('note_on', channel=1, note=55, velocity=0, time=2),
    Message('note_on', channel=1, note=59, velocity=0, time=2),
    Message('note_on', channel=1, note=52, velocity=127, time=74),
    Message('note_on', channel=1, note=40, velocity=0, time=16),
    Message('note_on', channel=1, note=52, velocity=0, time=6),
    Message('note_on', channel=1, note=55, velocity=127, time=26),
    Message('note_on', channel=1, note=52, velocity=127, time=0),
    Message('note_on', channel=1, note=59, velocity=127, time=0),
    Message('note_on', channel=1, note=55, velocity=0, time=14),
    Message('note_on', channel=1, note=52, velocity=0, time=1),
    Message('note_on', channel=1, note=59, velocity=0, time=6),
    Message('control_change', channel=1, control=64, value=0, time=60),
    Message('note_on', channel=1, note=62, velocity=127, time=15),
    Message('note_on', channel=1, note=59, velocity=127, time=0),
    Message('note_on', channel=1, note=55, velocity=127, time=0),
    Message('note_on', channel=1, note=43, velocity=127, time=0),
    Message('control_change', channel=1, control=64, value=127, time=42),
    Message('note_on', channel=1, note=50, velocity=127, time=54),
    Message('note_on', channel=1, note=55, velocity=0, time=1),
    Message('note_on', channel=1, note=59, velocity=0, time=9),
    Message('note_on', channel=1, note=62, velocity=0, time=2),
    Message('note_on', channel=1, note=50, velocity=0, time=6),
    Message('note_on', channel=1, note=62, velocity=127, time=30),
    Message('note_on', channel=1, note=55, velocity=127, time=0),
    Message('note_on', channel=1, note=50, velocity=127, time=48),
    Message('note_on', channel=1, note=62, velocity=0, time=1),
    Message('note_on', channel=1, note=55, velocity=0, time=4),
    Message('note_on', channel=1, note=50, velocity=0, time=27),
    Message('note_on', channel=1, note=43, velocity=0, time=7),
    Message('note_on', channel=1, note=59, velocity=127, time=9),
    Message('note_on', channel=1, note=62, velocity=127, time=0),
    Message('note_on', channel=1, note=59, velocity=0, time=20),
    Message('note_on', channel=1, note=62, velocity=0, time=6),
    Message('note_on', channel=1, note=57, velocity=127, time=118),
    Message('note_on', channel=1, note=50, velocity=127, time=0),
    Message('note_on', channel=1, note=62, velocity=127, time=0),
    Message('note_on', channel=1, note=66, velocity=127, time=0),
    Message('note_on', channel=1, note=69, velocity=127, time=0),
    Message('control_change', channel=1, control=64, value=0, time=1),
    Message('control_change', channel=1, control=64, value=127, time=51),
    Message('note_off', channel=1, note=62, velocity=0, time=23),
    Message('note_off', channel=1, note=57, velocity=0, time=19),
    Message('note_on', channel=1, note=62, velocity=127, time=2),
    Message('note_on', channel=1, note=66, velocity=0, time=43),
    Message('note_on', channel=1, note=69, velocity=0, time=1),
    Message('note_on', channel=1, note=57, velocity=127, time=4),
    Message('note_on', channel=1, note=62, velocity=0, time=1),
    Message('note_on', channel=1, note=57, velocity=0, time=35),
    Message('note_on', channel=1, note=66, velocity=127, time=12),
    Message('note_on', channel=1, note=69, velocity=126, time=0),
    Message('note_on', channel=1, note=62, velocity=127, time=0),
    Message('note_on', channel=1, note=50, velocity=0, time=12),
    Message('note_on', channel=1, note=66, velocity=0, time=14),
    Message('note_on', channel=1, note=62, velocity=0, time=1),
    Message('note_on', channel=1, note=69, velocity=0, time=1),
    Message('note_on', channel=1, note=66, velocity=127, time=20),
    Message('note_on', channel=1, note=69, velocity=127, time=0),
    Message('note_on', channel=1, note=62, velocity=127, time=0),
    Message('note_on', channel=1, note=66, velocity=0, time=30),
    Message('note_on', channel=1, note=69, velocity=0, time=2),
    Message('note_on', channel=1, note=62, velocity=0, time=1),
    Message('control_change', channel=1, control=64, value=0, time=103),
    Message('note_on', channel=1, note=45, velocity=127, time=8),
    Message('note_on', channel=1, note=61, velocity=127, time=0),
    Message('note_on', channel=1, note=52, velocity=127, time=0),
    Message('note_on', channel=1, note=64, velocity=127, time=0),
    Message('note_on', channel=1, note=57, velocity=127, time=0),
    Message('control_change', channel=1, control=64, value=127, time=49),
    Message('note_off', channel=1, note=57, velocity=0, time=19),
    Message('note_off', channel=1, note=61, velocity=0, time=0),
    Message('note_off', channel=1, note=64, velocity=0, time=0),
    Message('note_on', channel=1, note=64, velocity=127, time=28),
    Message('note_on', channel=1, note=61, velocity=127, time=0),
    Message('note_on', channel=1, note=57, velocity=127, time=0),
    Message('note_on', channel=1, note=61, velocity=0, time=13),
    Message('note_on', channel=1, note=64, velocity=0, time=0),
    Message('note_on', channel=1, note=52, velocity=0, time=0),
    Message('note_on', channel=1, note=57, velocity=0, time=4),
    Message('note_on', channel=1, note=61, velocity=127, time=31),
    Message('note_on', channel=1, note=64, velocity=127, time=0),
    Message('note_on', channel=1, note=57, velocity=127, time=0),
    Message('note_on', channel=1, note=61, velocity=0, time=44),
    Message('note_on', channel=1, note=57, velocity=0, time=1),
    Message('note_on', channel=1, note=64, velocity=0, time=3),
    Message('note_on', channel=1, note=52, velocity=127, time=0),
    Message('note_on', channel=1, note=61, velocity=127, time=48),
    Message('note_on', channel=1, note=55, velocity=127, time=0),
    Message('note_on', channel=1, note=64, velocity=127, time=0),
    Message('note_on', channel=1, note=52, velocity=0, time=6),
    Message('note_on', channel=1, note=45, velocity=0, time=25),
    Message('note_on', channel=1, note=61, velocity=0, time=15),
    Message('note_on', channel=1, note=52, velocity=127, time=2),
    Message('note_on', channel=1, note=64, velocity=0, time=3),
    Message('note_on', channel=1, note=55, velocity=0, time=2),
    Message('note_on', channel=1, note=52, velocity=0, time=18),
    Message('control_change', channel=1, control=64, value=0, time=67),
    Message('note_on', channel=1, note=55, velocity=127, time=6),
    Message('note_on', channel=1, note=59, velocity=127, time=0),
    Message('note_on', channel=1, note=52, velocity=127, time=0),
    Message('control_change', channel=1, control=64, value=127, time=36),
    Message('note_off', channel=1, note=52, velocity=0, time=33),
    Message('note_off', channel=1, note=59, velocity=0, time=1),
    Message('note_off', channel=1, note=55, velocity=0, time=0),
    Message('note_on', channel=1, note=52, velocity=127, time=26),
    Message('note_on', channel=1, note=52, velocity=0, time=34),
    Message('note_on', channel=1, note=40, velocity=127, time=14),
    Message('note_on', channel=1, note=40, velocity=0, time=38),
    Message('note_on', channel=1, note=52, velocity=127, time=10),
    Message('note_on', channel=1, note=52, velocity=0, time=36),
    Message('note_on', channel=1, note=55, velocity=127, time=12),
    Message('note_on', channel=1, note=55, velocity=0, time=34),
    Message('note_on', channel=1, note=59, velocity=127, time=14),
    Message('note_on', channel=1, note=59, velocity=0, time=28),
    Message('control_change', channel=1, control=64, value=0, time=66),
    Message('note_on', channel=1, note=43, velocity=127, time=2),
    Message('note_on', channel=1, note=55, velocity=127, time=0),
    Message('note_on', channel=1, note=59, velocity=127, time=0),
    Message('note_on', channel=1, note=62, velocity=127, time=0),
    Message('control_change', channel=1, control=64, value=127, time=50),
    Message('note_on', channel=1, note=50, velocity=127, time=46),
    Message('note_on', channel=1, note=55, velocity=0, time=4),
    Message('note_on', channel=1, note=62, velocity=0, time=6),
    Message('note_on', channel=1, note=59, velocity=0, time=1),
    Message('note_on', channel=1, note=50, velocity=0, time=12),
    Message('note_on', channel=1, note=59, velocity=127, time=25),
    Message('note_on', channel=1, note=62, velocity=127, time=0),
    Message('note_on', channel=1, note=55, velocity=127, time=0),
    Message('note_on', channel=1, note=59, velocity=0, time=18),
    Message('note_on', channel=1, note=55, velocity=0, time=2),
    Message('note_on', channel=1, note=62, velocity=0, time=3),
    Message('note_on', channel=1, note=59, velocity=127, time=73),
    Message('note_on', channel=1, note=55, velocity=127, time=0),
    Message('note_on', channel=1, note=62, velocity=127, time=0),
    Message('note_on', channel=1, note=59, velocity=0, time=17),
    Message('note_on', channel=1, note=55, velocity=0, time=1),
    Message('note_on', channel=1, note=62, velocity=0, time=3),
    Message('note_on', channel=1, note=43, velocity=0, time=16),
    Message('note_on', channel=1, note=62, velocity=127, time=59),
    Message('note_on', channel=1, note=59, velocity=127, time=0),
    Message('note_on', channel=1, note=55, velocity=127, time=0),
    Message('note_on', channel=1, note=59, velocity=0, time=15),
    Message('note_on', channel=1, note=55, velocity=0, time=2),
    Message('note_on', channel=1, note=62, velocity=0, time=3),
    Message('control_change', channel=1, control=64, value=0, time=20),
    Message('note_on', channel=1, note=57, velocity=127, time=8),
    Message('note_on', channel=1, note=50, velocity=127, time=0),
    Message('control_change', channel=1, control=64, value=127, time=38),
    Message('note_on', channel=1, note=66, velocity=127, time=34),
    Message('note_on', channel=1, note=62, velocity=127, time=0),
    Message('control_change', channel=1, control=64, value=0, time=1),
    Message('note_off', channel=1, note=57, velocity=0, time=9),
    Message('note_off', channel=1, note=66, velocity=0, time=6),
    Message('control_change', channel=1, control=64, value=127, time=0),
    Message('note_off', channel=1, note=62, velocity=0, time=2),
    Message('note_on', channel=1, note=69, velocity=127, time=6),
    Message('note_on', channel=1, note=69, velocity=0, time=15),
    Message('note_on', channel=1, note=66, velocity=127, time=33),
    Message('note_on', channel=1, note=69, velocity=127, time=0),
    Message('note_on', channel=1, note=62, velocity=127, time=0),
    Message('note_on', channel=1, note=57, velocity=127, time=48),
    Message('note_on', channel=1, note=62, velocity=0, time=1),
    Message('note_on', channel=1, note=69, velocity=0, time=0),
    Message('note_on', channel=1, note=66, velocity=0, time=1),
    Message('note_on', channel=1, note=57, velocity=0, time=21),
    Message('note_on', channel=1, note=50, velocity=0, time=13),
    Message('note_on', channel=1, note=69, velocity=127, time=12),
    Message('note_on', channel=1, note=66, velocity=127, time=0),
    Message('note_on', channel=1, note=62, velocity=127, time=0),
    Message('note_on', channel=1, note=62, velocity=0, time=28),
    Message('note_on', channel=1, note=69, velocity=0, time=3),
    Message('note_on', channel=1, note=66, velocity=0, time=4),
    Message('note_on', channel=1, note=62, velocity=127, time=13),
    Message('note_on', channel=1, note=62, velocity=0, time=20),
    Message('note_on', channel=1, note=45, velocity=127, time=28),
    Message('control_change', channel=1, control=64, value=0, time=32),
    Message('note_on', channel=1, note=57, velocity=127, time=16),
    Message('note_on', channel=1, note=61, velocity=127, time=0),
    Message('note_on', channel=1, note=64, velocity=127, time=0),
    Message('control_change', channel=1, control=64, value=127, time=40),
    Message('note_on', channel=1, note=52, velocity=127, time=8),
    Message('note_on', channel=1, note=61, velocity=0, time=7),
    Message('note_on', channel=1, note=57, velocity=0, time=0),
    Message('note_on', channel=1, note=64, velocity=0, time=2),
    Message('note_on', channel=1, note=52, velocity=0, time=20),
    Message('note_on', channel=1, note=61, velocity=126, time=19),
    Message('note_on', channel=1, note=64, velocity=127, time=0),
    Message('note_on', channel=1, note=57, velocity=127, time=0),
    Message('note_on', channel=1, note=61, velocity=0, time=8),
    Message('note_on', channel=1, note=64, velocity=0, time=5),
    Message('note_on', channel=1, note=57, velocity=0, time=1),
    Message('note_on', channel=1, note=64, velocity=127, time=34),
    Message('note_on', channel=1, note=61, velocity=127, time=0),
    Message('note_on', channel=1, note=57, velocity=127, time=0),
    Message('note_on', channel=1, note=61, velocity=0, time=20),
    Message('note_on', channel=1, note=57, velocity=0, time=2),
    Message('note_on', channel=1, note=64, velocity=0, time=0),
    Message('note_on', channel=1, note=52, velocity=127, time=26),
    Message('note_on', channel=1, note=52, velocity=0, time=34),
    Message('note_on', channel=1, note=61, velocity=127, time=14),
    Message('note_on', channel=1, note=57, velocity=127, time=0),
    Message('note_on', channel=1, note=64, velocity=127, time=0),
    Message('note_on', channel=1, note=61, velocity=0, time=15),
    Message('note_on', channel=1, note=64, velocity=0, time=3),
    Message('note_on', channel=1, note=57, velocity=0, time=1),
    Message('note_on', channel=1, note=61, velocity=127, time=29),
    Message('note_on', channel=1, note=64, velocity=127, time=0),
    Message('note_on', channel=1, note=57, velocity=127, time=0),
    Message('note_on', channel=1, note=61, velocity=0, time=18),
    Message('note_on', channel=1, note=57, velocity=0, time=1),
    Message('note_on', channel=1, note=64, velocity=0, time=1),
    Message('note_on', channel=1, note=45, velocity=0, time=7),
    Message('control_change', channel=1, control=64, value=0, time=20),
    Message('note_on', channel=1, note=52, velocity=127, time=49),
    Message('note_on', channel=1, note=55, velocity=127, time=0),
    Message('note_on', channel=1, note=40, velocity=127, time=0),
    Message('note_on', channel=1, note=59, velocity=127, time=0),
    Message('control_change', channel=1, control=64, value=127, time=86),
    Message('note_off', channel=1, note=52, velocity=0, time=20),
    Message('note_off', channel=1, note=59, velocity=0, time=2),
    Message('note_off', channel=1, note=55, velocity=0, time=1),
    Message('note_on', channel=1, note=52, velocity=127, time=35),
    Message('note_on', channel=1, note=59, velocity=127, time=0),
    Message('note_on', channel=1, note=55, velocity=127, time=0),
    Message('note_on', channel=1, note=52, velocity=0, time=18),
    Message('note_on', channel=1, note=55, velocity=0, time=2),
    Message('note_on', channel=1, note=59, velocity=0, time=2),
    Message('note_on', channel=1, note=52, velocity=127, time=74),
    Message('note_on', channel=1, note=40, velocity=0, time=16),
    Message('note_on', channel=1, note=52, velocity=0, time=6),
    Message('note_on', channel=1, note=55, velocity=127, time=26),
    Message('note_on', channel=1, note=52, velocity=127, time=0),
    Message('note_on', channel=1, note=59, velocity=127, time=0),
    Message('note_on', channel=1, note=55, velocity=0, time=14),
    Message('note_on', channel=1, note=52, velocity=0, time=1),
    Message('note_on', channel=1, note=59, velocity=0, time=6),
    Message('control_change', channel=1, control=64, value=0, time=60),
    Message('note_on', channel=1, note=62, velocity=127, time=15),
    Message('note_on', channel=1, note=59, velocity=127, time=0),
    Message('note_on', channel=1, note=55, velocity=127, time=0),
    Message('note_on', channel=1, note=43, velocity=127, time=0),
    Message('control_change', channel=1, control=64, value=127, time=42),
    Message('note_on', channel=1, note=50, velocity=127, time=54),
    Message('note_on', channel=1, note=55, velocity=0, time=1),
    Message('note_on', channel=1, note=59, velocity=0, time=9),
    Message('note_on', channel=1, note=62, velocity=0, time=2),
    Message('note_on', channel=1, note=50, velocity=0, time=6),
    Message('note_on', channel=1, note=62, velocity=127, time=30),
    Message('note_on', channel=1, note=55, velocity=127, time=0),
    Message('note_on', channel=1, note=50, velocity=127, time=48),
    Message('note_on', channel=1, note=62, velocity=0, time=1),
    Message('note_on', channel=1, note=55, velocity=0, time=4),
    Message('note_on', channel=1, note=50, velocity=0, time=27),
    Message('note_on', channel=1, note=43, velocity=0, time=7),
    Message('note_on', channel=1, note=59, velocity=127, time=9),
    Message('note_on', channel=1, note=62, velocity=127, time=0),
    Message('note_on', channel=1, note=59, velocity=0, time=20),
    Message('note_on', channel=1, note=62, velocity=0, time=6),
    Message('note_on', channel=1, note=57, velocity=127, time=118),
    Message('note_on', channel=1, note=50, velocity=127, time=0),
    Message('note_on', channel=1, note=62, velocity=127, time=0),
    Message('note_on', channel=1, note=66, velocity=127, time=0),
    Message('note_on', channel=1, note=69, velocity=127, time=0),
    Message('control_change', channel=1, control=64, value=0, time=1),
    Message('control_change', channel=1, control=64, value=127, time=51),
    Message('note_off', channel=1, note=62, velocity=0, time=23),
    Message('note_off', channel=1, note=57, velocity=0, time=19),
    Message('note_on', channel=1, note=62, velocity=127, time=2),
    Message('note_on', channel=1, note=66, velocity=0, time=43),
    Message('note_on', channel=1, note=69, velocity=0, time=1),
    Message('note_on', channel=1, note=57, velocity=127, time=4),
    Message('note_on', channel=1, note=62, velocity=0, time=1),
    Message('note_on', channel=1, note=57, velocity=0, time=35),
    Message('note_on', channel=1, note=66, velocity=127, time=12),
    Message('note_on', channel=1, note=69, velocity=126, time=0),
    Message('note_on', channel=1, note=62, velocity=127, time=0),
    Message('note_on', channel=1, note=50, velocity=0, time=12),
    Message('note_on', channel=1, note=66, velocity=0, time=14),
    Message('note_on', channel=1, note=62, velocity=0, time=1),
    Message('note_on', channel=1, note=69, velocity=0, time=1),
    Message('note_on', channel=1, note=66, velocity=127, time=20),
    Message('note_on', channel=1, note=69, velocity=127, time=0),
    Message('note_on', channel=1, note=62, velocity=127, time=0),
    Message('note_on', channel=1, note=66, velocity=0, time=30),
    Message('note_on', channel=1, note=69, velocity=0, time=2),
    Message('note_on', channel=1, note=62, velocity=0, time=1),
    Message('control_change', channel=1, control=64, value=0, time=103),
    Message('note_on', channel=1, note=45, velocity=127, time=8),
    Message('note_on', channel=1, note=61, velocity=127, time=0),
    Message('note_on', channel=1, note=52, velocity=127, time=0),
    Message('note_on', channel=1, note=64, velocity=127, time=0),
    Message('note_on', channel=1, note=57, velocity=127, time=0),
    Message('control_change', channel=1, control=64, value=127, time=49),
    Message('note_off', channel=1, note=57, velocity=0, time=19),
    Message('note_off', channel=1, note=61, velocity=0, time=0),
    Message('note_off', channel=1, note=64, velocity=0, time=0),
    Message('note_on', channel=1, note=64, velocity=127, time=28),
    Message('note_on', channel=1, note=61, velocity=127, time=0),
    Message('note_on', channel=1, note=57, velocity=127, time=0),
    Message('note_on', channel=1, note=61, velocity=0, time=13),
    Message('note_on', channel=1, note=64, velocity=0, time=0),
    Message('note_on', channel=1, note=52, velocity=0, time=0),
    Message('note_on', channel=1, note=57, velocity=0, time=4),
    Message('note_on', channel=1, note=61, velocity=127, time=31),
    Message('note_on', channel=1, note=64, velocity=127, time=0),
    Message('note_on', channel=1, note=57, velocity=127, time=0),
    Message('note_on', channel=1, note=61, velocity=0, time=44),
    Message('note_on', channel=1, note=57, velocity=0, time=1),
    Message('note_on', channel=1, note=64, velocity=0, time=3),
    Message('note_on', channel=1, note=52, velocity=127, time=0),
    Message('note_on', channel=1, note=61, velocity=127, time=48),
    Message('note_on', channel=1, note=55, velocity=127, time=0),
    Message('note_on', channel=1, note=64, velocity=127, time=0),
    Message('note_on', channel=1, note=52, velocity=0, time=6),
    Message('note_on', channel=1, note=45, velocity=0, time=25),
    Message('note_on', channel=1, note=61, velocity=0, time=15),
    Message('note_on', channel=1, note=52, velocity=127, time=2),
    Message('note_on', channel=1, note=64, velocity=0, time=3),
    Message('note_on', channel=1, note=55, velocity=0, time=2),
    Message('note_on', channel=1, note=52, velocity=0, time=18),
    Message('control_change', channel=1, control=64, value=0, time=67),
    Message('note_on', channel=1, note=40, velocity=127, time=6),
    Message('note_on', channel=1, note=47, velocity=127, time=48),
    Message('note_on', channel=1, note=52, velocity=127, time=48),
    Message('note_on', channel=1, note=55, velocity=127, time=48),
    Message('control_change', channel=1, control=64, value=127, time=8),
    Message('note_off', channel=1, note=52, velocity=0, time=1),
    Message('note_off', channel=1, note=47, velocity=0, time=13),
    Message('note_off', channel=1, note=40, velocity=0, time=7),
    Message('note_off', channel=1, note=55, velocity=0, time=13),
    Message('note_on', channel=1, note=59, velocity=127, time=6),
    Message('note_on', channel=1, note=59, velocity=0, time=15),
    Message('note_on', channel=1, note=59, velocity=127, time=33),
    Message('note_on', channel=1, note=52, velocity=127, time=0),
    Message('note_on', channel=1, note=59, velocity=0, time=23),
    Message('note_on', channel=1, note=67, velocity=127, time=25),
    Message('note_on', channel=1, note=64, velocity=127, time=0),
    Message('note_on', channel=1, note=67, velocity=0, time=18),
    Message('note_on', channel=1, note=64, velocity=0, time=6),
    Message('note_on', channel=1, note=52, velocity=0, time=1),
    Message('note_on', channel=1, note=71, velocity=127, time=23),
    Message('note_on', channel=1, note=71, velocity=0, time=12),
    Message('note_on', channel=1, note=55, velocity=126, time=36),
    Message('note_on', channel=1, note=43, velocity=127, time=0),
    Message('note_on', channel=1, note=59, velocity=127, time=0),
    Message('note_on', channel=1, note=62, velocity=127, time=0),
    Message('control_change', channel=1, control=64, value=0, time=1),
    Message('control_change', channel=1, control=64, value=127, time=21),
    Message('note_off', channel=1, note=55, velocity=0, time=18),
    Message('note_off', channel=1, note=59, velocity=0, time=7),
    Message('note_off', channel=1, note=62, velocity=0, time=1),
    Message('note_on', channel=1, note=50, velocity=127, time=0),
    Message('note_on', channel=1, note=50, velocity=0, time=40),
    Message('note_on', channel=1, note=67, velocity=127, time=8),
    Message('note_on', channel=1, note=43, velocity=0, time=13),
    Message('note_on', channel=1, note=67, velocity=0, time=26),
    Message('note_on', channel=1, note=69, velocity=127, time=57),
    Message('note_on', channel=1, note=74, velocity=127, time=0),
    Message('note_on', channel=1, note=69, velocity=0, time=36),
    Message('note_on', channel=1, note=74, velocity=0, time=6),
    Message('note_on', channel=1, note=55, velocity=127, time=6),
    Message('note_on', channel=1, note=74, velocity=127, time=0),
    Message('note_on', channel=1, note=71, velocity=127, time=0),
    Message('note_on', channel=1, note=74, velocity=0, time=23),
    Message('note_on', channel=1, note=71, velocity=0, time=7),
    Message('note_on', channel=1, note=62, velocity=127, time=18),
    Message('note_on', channel=1, note=55, velocity=0, time=12),
    Message('note_on', channel=1, note=62, velocity=0, time=5),
    Message('note_on', channel=1, note=67, velocity=127, time=31),
    Message('note_on', channel=1, note=67, velocity=0, time=12),
    Message('note_on', channel=1, note=62, velocity=127, time=36),
    Message('note_on', channel=1, note=69, velocity=127, time=0),
    Message('note_on', channel=1, note=66, velocity=127, time=0),
    Message('note_on', channel=1, note=50, velocity=127, time=0),
    Message('control_change', channel=1, control=64, value=0, time=4),
    Message('control_change', channel=1, control=64, value=127, time=24),
    Message('note_off', channel=1, note=62, velocity=0, time=9),
    Message('note_off', channel=1, note=69, velocity=0, time=3),
    Message('note_off', channel=1, note=66, velocity=0, time=4),
    Message('note_on', channel=1, note=57, velocity=127, time=4),
    Message('note_on', channel=1, note=66, velocity=127, time=48),
    Message('note_on', channel=1, note=66, velocity=0, time=25),
    Message('note_on', channel=1, note=69, velocity=127, time=23),
    Message('note_on', channel=1, note=57, velocity=0, time=16),
    Message('note_on', channel=1, note=69, velocity=0, time=15),
    Message('note_on', channel=1, note=74, velocity=127, time=17),
    Message('note_on', channel=1, note=74, velocity=0, time=14),
    Message('note_on', channel=1, note=78, velocity=127, time=34),
    Message('note_on', channel=1, note=78, velocity=0, time=8),
    Message('note_on', channel=1, note=86, velocity=127, time=40),
    Message('note_on', channel=1, note=86, velocity=0, time=10),
    Message('note_on', channel=1, note=57, velocity=127, time=38),
    Message('note_on', channel=1, note=50, velocity=0, time=8),
    Message('note_on', channel=1, note=57, velocity=0, time=8),
    Message('note_on', channel=1, note=57, velocity=118, time=32),
    Message('note_on', channel=1, note=61, velocity=127, time=0),
    Message('note_on', channel=1, note=64, velocity=127, time=0),
    Message('control_change', channel=1, control=64, value=0, time=1),
    Message('control_change', channel=1, control=64, value=127, time=23),
    Message('note_on', channel=1, note=45, velocity=126, time=24),
    Message('note_on', channel=1, note=57, velocity=0, time=21),
    Message('note_on', channel=1, note=61, velocity=0, time=8),
    Message('note_on', channel=1, note=64, velocity=0, time=5),
    Message('note_on', channel=1, note=52, velocity=127, time=14),
    Message('note_on', channel=1, note=55, velocity=127, time=48),
    Message('note_on', channel=1, note=55, velocity=0, time=36),
    Message('note_on', channel=1, note=61, velocity=127, time=12),
    Message('note_on', channel=1, note=64, velocity=127, time=0),
    Message('note_on', channel=1, note=52, velocity=0, time=11),
    Message('note_on', channel=1, note=52, velocity=127, time=37),
    Message('note_on', channel=1, note=64, velocity=0, time=10),
    Message('note_on', channel=1, note=61, velocity=0, time=26),
    Message('note_on', channel=1, note=57, velocity=127, time=12),
    Message('note_on', channel=1, note=57, velocity=0, time=30),
    Message('note_on', channel=1, note=52, velocity=0, time=4),
    Message('note_on', channel=1, note=45, velocity=0, time=3),
    Message('control_change', channel=1, control=64, value=0, time=28),
    Message('note_on', channel=1, note=40, velocity=127, time=2),
    Message('note_on', channel=1, note=47, velocity=127, time=12),
    Message('note_on', channel=1, note=52, velocity=127, time=11),
    Message('note_on', channel=1, note=71, velocity=127, time=6),
    Message('note_on', channel=1, note=67, velocity=127, time=0),
    Message('note_on', channel=1, note=64, velocity=127, time=1),
    Message('note_on', channel=1, note=52, velocity=0, time=37),
    Message('control_change', channel=1, control=64, value=127, time=2),
    Message('note_off', channel=1, note=71, velocity=0, time=28),
    Message('note_off', channel=1, note=67, velocity=0, time=5),
    Message('note_off', channel=1, note=64, velocity=0, time=2),
    Message('note_on', channel=1, note=59, velocity=127, time=23),
    Message('note_on', channel=1, note=59, velocity=0, time=27),
    Message('note_on', channel=1, note=40, velocity=0, time=5),
    Message('note_on', channel=1, note=47, velocity=0, time=5),
    Message('note_on', channel=1, note=64, velocity=127, time=10),
    Message('note_on', channel=1, note=64, velocity=0, time=10),
    Message('note_on', channel=1, note=40, velocity=127, time=37),
    Message('note_on', channel=1, note=67, velocity=127, time=0),
    Message('note_on', channel=1, note=71, velocity=127, time=1),
    Message('note_on', channel=1, note=64, velocity=127, time=0),
    Message('note_on', channel=1, note=40, velocity=0, time=89),
    Message('note_on', channel=1, note=67, velocity=0, time=4),
    Message('note_on', channel=1, note=64, velocity=0, time=0),
    Message('note_on', channel=1, note=71, velocity=0, time=2),
    Message('control_change', channel=1, control=64, value=0, time=54),
    Message('note_on', channel=1, note=71, velocity=127, time=39),
    Message('note_on', channel=1, note=62, velocity=127, time=0),
    Message('note_on', channel=1, note=43, velocity=127, time=0),
    Message('control_change', channel=1, control=64, value=127, time=19),
    Message('note_off', channel=1, note=62, velocity=0, time=10),
    Message('note_off', channel=1, note=71, velocity=0, time=1),
    Message('note_on', channel=1, note=69, velocity=127, time=20),
    Message('note_on', channel=1, note=60, velocity=127, time=1),
    Message('note_on', channel=1, note=50, velocity=127, time=0),
    Message('note_on', channel=1, note=60, velocity=0, time=11),
    Message('note_on', channel=1, note=69, velocity=0, time=2),
    Message('control_change', channel=1, control=64, value=0, time=30),
    Message('note_on', channel=1, note=67, velocity=127, time=3),
    Message('note_on', channel=1, note=59, velocity=127, time=1),
    Message('note_on', channel=1, note=55, velocity=127, time=3),
    Message('note_on', channel=1, note=59, velocity=0, time=25),
    Message('note_on', channel=1, note=67, velocity=0, time=3),
    Message('control_change', channel=1, control=64, value=127, time=0),
    Message('note_on', channel=1, note=57, velocity=127, time=17),
    Message('note_on', channel=1, note=69, velocity=127, time=0),
    Message('note_on', channel=1, note=60, velocity=127, time=1),
    Message('note_on', channel=1, note=60, velocity=0, time=13),
    Message('note_on', channel=1, note=69, velocity=0, time=3),
    Message('note_on', channel=1, note=59, velocity=127, time=32),
    Message('note_on', channel=1, note=71, velocity=127, time=1),
    Message('note_on', channel=1, note=62, velocity=127, time=1),
    Message('note_on', channel=1, note=57, velocity=0, time=2),
    Message('control_change', channel=1, control=64, value=0, time=3),
    Message('control_change', channel=1, control=64, value=127, time=36),
    Message('note_off', channel=1, note=62, velocity=0, time=44),
    Message('note_off', channel=1, note=71, velocity=0, time=2),
    Message('note_on', channel=1, note=67, velocity=127, time=7),
    Message('note_on', channel=1, note=67, velocity=0, time=34),
    Message('note_on', channel=1, note=64, velocity=127, time=13),
    Message('note_on', channel=1, note=50, velocity=0, time=13),
    Message('note_on', channel=1, note=64, velocity=0, time=2),
    Message('note_on', channel=1, note=43, velocity=0, time=1),
    Message('note_on', channel=1, note=55, velocity=0, time=2),
    Message('note_on', channel=1, note=59, velocity=0, time=2),
    Message('control_change', channel=1, control=64, value=0, time=19),
    Message('note_on', channel=1, note=66, velocity=127, time=10),
    Message('note_on', channel=1, note=62, velocity=127, time=0),
    Message('note_on', channel=1, note=69, velocity=82, time=1),
    Message('note_on', channel=1, note=38, velocity=127, time=1),
    Message('note_on', channel=1, note=45, velocity=127, time=45),
    Message('note_on', channel=1, note=50, velocity=127, time=49),
    Message('note_on', channel=1, note=52, velocity=127, time=51),
    Message('note_on', channel=1, note=50, velocity=0, time=10),
    Message('note_on', channel=1, note=66, velocity=0, time=19),
    Message('note_on', channel=1, note=62, velocity=0, time=8),
    Message('note_on', channel=1, note=69, velocity=0, time=0),
    Message('note_on', channel=1, note=54, velocity=127, time=12),
    Message('note_on', channel=1, note=52, velocity=0, time=4),
    Message('note_on', channel=1, note=69, velocity=127, time=3),
    Message('note_on', channel=1, note=62, velocity=127, time=1),
    Message('control_change', channel=1, control=64, value=127, time=77),
    Message('note_off', channel=1, note=62, velocity=0, time=6),
    Message('note_off', channel=1, note=69, velocity=0, time=5),
    Message('note_off', channel=1, note=38, velocity=0, time=29),
    Message('note_off', channel=1, note=45, velocity=0, time=5),
    Message('control_change', channel=1, control=64, value=0, time=8),
    Message('note_on', channel=1, note=64, velocity=127, time=1),
    Message('note_on', channel=1, note=69, velocity=127, time=0),
    Message('control_change', channel=1, control=64, value=127, time=15),
    Message('note_off', channel=1, note=64, velocity=0, time=4),
    Message('note_off', channel=1, note=69, velocity=0, time=3),
    Message('note_on', channel=1, note=66, velocity=127, time=1),
    Message('note_on', channel=1, note=71, velocity=127, time=2),
    Message('note_on', channel=1, note=54, velocity=0, time=6),
    Message('control_change', channel=1, control=64, value=0, time=4),
    Message('note_off', channel=1, note=66, velocity=0, time=1),
    Message('note_off', channel=1, note=71, velocity=0, time=7),
    Message('note_on', channel=1, note=64, velocity=127, time=6),
    Message('note_on', channel=1, note=69, velocity=127, time=1),
    Message('note_on', channel=1, note=45, velocity=127, time=3),
    Message('control_change', channel=1, control=64, value=127, time=19),
    Message('note_off', channel=1, note=69, velocity=0, time=12),
    Message('note_off', channel=1, note=64, velocity=0, time=1),
    Message('note_on', channel=1, note=62, velocity=127, time=13),
    Message('note_on', channel=1, note=67, velocity=127, time=1),
    Message('control_change', channel=1, control=64, value=0, time=1),
    Message('note_on', channel=1, note=52, velocity=127, time=4),
    Message('control_change', channel=1, control=64, value=127, time=17),
    Message('note_off', channel=1, note=62, velocity=0, time=11),
    Message('note_off', channel=1, note=67, velocity=0, time=2),
    Message('note_on', channel=1, note=59, velocity=127, time=17),
    Message('control_change', channel=1, control=64, value=0, time=0),
    Message('note_on', channel=1, note=64, velocity=127, time=4),
    Message('note_on', channel=1, note=57, velocity=127, time=0),
    Message('note_on', channel=1, note=52, velocity=0, time=11),
    Message('control_change', channel=1, control=64, value=127, time=7),
    Message('note_off', channel=1, note=64, velocity=0, time=15),
    Message('control_change', channel=1, control=64, value=0, time=14),
    Message('note_on', channel=1, note=52, velocity=127, time=1),
    Message('note_on', channel=1, note=59, velocity=0, time=1),
    Message('note_on', channel=1, note=62, velocity=127, time=0),
    Message('note_on', channel=1, note=57, velocity=127, time=2),
    Message('note_on', channel=1, note=57, velocity=0, time=5),
    Message('note_on', channel=1, note=62, velocity=0, time=44),
    Message('note_on', channel=1, note=57, velocity=0, time=0),
    Message('note_on', channel=1, note=64, velocity=127, time=3),
    Message('note_on', channel=1, note=64, velocity=127, time=1),
    Message('note_on', channel=1, note=59, velocity=127, time=0),
    Message('note_on', channel=1, note=57, velocity=117, time=0),
    Message('note_on', channel=1, note=59, velocity=127, time=1),
    Message('control_change', channel=1, control=64, value=127, time=12),
    Message('note_off', channel=1, note=59, velocity=0, time=27),
    Message('note_off', channel=1, note=64, velocity=0, time=0),
    Message('control_change', channel=1, control=64, value=0, time=22),
    Message('note_on', channel=1, note=62, velocity=127, time=2),
    Message('note_on', channel=1, note=57, velocity=127, time=0),
    Message('control_change', channel=1, control=64, value=127, time=34),
    Message('note_off', channel=1, note=57, velocity=0, time=9),
    Message('note_off', channel=1, note=62, velocity=0, time=3),
    Message('note_off', channel=1, note=64, velocity=0, time=30),
    Message('note_on', channel=1, note=52, velocity=127, time=0),
    Message('control_change', channel=1, control=64, value=0, time=0),
    Message('note_on', channel=1, note=59, velocity=127, time=1),
    Message('note_on', channel=1, note=52, velocity=0, time=3),
    Message('note_on', channel=1, note=57, velocity=0, time=10),
    Message('note_on', channel=1, note=45, velocity=0, time=4),
    Message('note_on', channel=1, note=59, velocity=0, time=1),
    Message('control_change', channel=1, control=64, value=127, time=15),
    Message('note_off', channel=1, note=52, velocity=0, time=24),
    Message('note_off', channel=1, note=59, velocity=0, time=2),
    Message('note_on', channel=1, note=50, velocity=127, time=30),
    Message('note_on', channel=1, note=57, velocity=127, time=0),
    Message('control_change', channel=1, control=64, value=0, time=2),
    Message('note_on', channel=1, note=40, velocity=127, time=116),
    Message('note_on', channel=1, note=52, velocity=127, time=17),
    Message('note_on', channel=1, note=50, velocity=0, time=17),
    Message('note_on', channel=1, note=59, velocity=127, time=0),
    Message('note_on', channel=1, note=55, velocity=127, time=0),
    Message('note_on', channel=1, note=57, velocity=0, time=7),
    Message('note_on', channel=1, note=52, velocity=0, time=901),
    Message('note_on', channel=1, note=55, velocity=0, time=4),
    Message('note_on', channel=1, note=59, velocity=0, time=12),
    Message('note_on', channel=1, note=40, velocity=0, time=4),
    MetaMessage('end_of_track', time=0)]),
  MidiTrack([
    MetaMessage('midi_port', port=0, time=0),
    Message('program_change', channel=4, program=27, time=0),
    Message('control_change', channel=4, control=10, value=11, time=0),
    Message('control_change', channel=4, control=10, value=11, time=14),
    Message('control_change', channel=4, control=10, value=11, time=5),
    Message('control_change', channel=4, control=10, value=11, time=5),
    Message('control_change', channel=4, control=10, value=11, time=4),
    Message('control_change', channel=4, control=10, value=11, time=5),
    Message('control_change', channel=4, control=10, value=12, time=5),
    Message('control_change', channel=4, control=10, value=12, time=5),
    Message('control_change', channel=4, control=10, value=12, time=5),
    Message('control_change', channel=4, control=10, value=12, time=4),
    Message('control_change', channel=4, control=10, value=12, time=5),
    Message('control_change', channel=4, control=10, value=12, time=5),
    Message('control_change', channel=4, control=10, value=13, time=5),
    Message('control_change', channel=4, control=10, value=13, time=5),
    Message('control_change', channel=4, control=10, value=13, time=4),
    Message('control_change', channel=4, control=10, value=13, time=5),
    Message('control_change', channel=4, control=10, value=13, time=5),
    Message('control_change', channel=4, control=10, value=14, time=5),
    Message('control_change', channel=4, control=10, value=14, time=5),
    Message('control_change', channel=4, control=10, value=14, time=4),
    Message('control_change', channel=4, control=10, value=14, time=5),
    Message('control_change', channel=4, control=10, value=14, time=5),
    Message('control_change', channel=4, control=10, value=14, time=5),
    Message('control_change', channel=4, control=10, value=14, time=5),
    Message('control_change', channel=4, control=10, value=14, time=4),
    Message('control_change', channel=4, control=10, value=14, time=5),
    Message('control_change', channel=4, control=10, value=15, time=5),
    Message('control_change', channel=4, control=10, value=15, time=5),
    Message('control_change', channel=4, control=10, value=15, time=5),
    Message('control_change', channel=4, control=10, value=15, time=4),
    Message('control_change', channel=4, control=10, value=15, time=5),
    Message('control_change', channel=4, control=10, value=15, time=5),
    Message('note_on', channel=4, note=74, velocity=95, time=3682),
    Message('note_on', channel=4, note=74, velocity=0, time=179),
    Message('note_on', channel=4, note=74, velocity=95, time=13),
    Message('note_on', channel=4, note=74, velocity=0, time=367),
    Message('note_on', channel=4, note=98, velocity=95, time=17),
    Message('note_on', channel=4, note=98, velocity=0, time=179),
    Message('note_on', channel=4, note=105, velocity=95, time=13),
    Message('note_on', channel=4, note=105, velocity=0, time=379),
    Message('note_on', channel=4, note=93, velocity=92, time=5),
    Message('note_on', channel=4, note=93, velocity=0, time=359),
    Message('note_on', channel=4, note=95, velocity=95, time=217),
    Message('note_on', channel=4, note=95, velocity=0, time=389),
    Message('note_on', channel=4, note=98, velocity=95, time=91),
    Message('pitchwheel', channel=4, pitch=287, time=31),
    Message('pitchwheel', channel=4, pitch=1007, time=3),
    Message('pitchwheel', channel=4, pitch=2014, time=3),
    Message('pitchwheel', channel=4, pitch=2877, time=3),
    Message('pitchwheel', channel=4, pitch=3812, time=3),
    Message('pitchwheel', channel=4, pitch=4603, time=3),
    Message('pitchwheel', channel=4, pitch=5178, time=2),
    Message('pitchwheel', channel=4, pitch=5682, time=4),
    Message('pitchwheel', channel=4, pitch=6257, time=3),
    Message('pitchwheel', channel=4, pitch=6689, time=3),
    Message('pitchwheel', channel=4, pitch=7192, time=3),
    Message('pitchwheel', channel=4, pitch=7696, time=3),
    Message('pitchwheel', channel=4, pitch=8056, time=3),
    Message('pitchwheel', channel=4, pitch=8191, time=3),
    Message('pitchwheel', channel=4, pitch=7912, time=30),
    Message('pitchwheel', channel=4, pitch=6977, time=3),
    Message('pitchwheel', channel=4, pitch=5898, time=3),
    Message('pitchwheel', channel=4, pitch=4171, time=3),
    Message('pitchwheel', channel=4, pitch=2517, time=3),
    Message('pitchwheel', channel=4, pitch=1078, time=3),
    Message('pitchwheel', channel=4, pitch=215, time=3),
    Message('pitchwheel', channel=4, pitch=0, time=3),
    Message('note_off', channel=4, note=98, velocity=0, time=319),
    Message('note_on', channel=4, note=98, velocity=95, time=40),
    Message('pitchwheel', channel=4, pitch=143, time=15),
    Message('pitchwheel', channel=4, pitch=359, time=6),
    Message('pitchwheel', channel=4, pitch=719, time=3),
    Message('pitchwheel', channel=4, pitch=1007, time=3),
    Message('pitchwheel', channel=4, pitch=1222, time=3),
    Message('pitchwheel', channel=4, pitch=1438, time=3),
    Message('pitchwheel', channel=4, pitch=1798, time=3),
    Message('pitchwheel', channel=4, pitch=2014, time=3),
    Message('pitchwheel', channel=4, pitch=2301, time=3),
    Message('pitchwheel', channel=4, pitch=2589, time=3),
    Message('pitchwheel', channel=4, pitch=2805, time=3),
    Message('pitchwheel', channel=4, pitch=3021, time=3),
    Message('pitchwheel', channel=4, pitch=3308, time=3),
    Message('pitchwheel', channel=4, pitch=3524, time=3),
    Message('pitchwheel', channel=4, pitch=3812, time=3),
    Message('pitchwheel', channel=4, pitch=4099, time=3),
    Message('pitchwheel', channel=4, pitch=4459, time=3),
    Message('pitchwheel', channel=4, pitch=4819, time=3),
    Message('pitchwheel', channel=4, pitch=5106, time=3),
    Message('pitchwheel', channel=4, pitch=5322, time=4),
    Message('pitchwheel', channel=4, pitch=5538, time=6),
    Message('pitchwheel', channel=4, pitch=5754, time=2),
    Message('pitchwheel', channel=4, pitch=6185, time=6),
    Message('pitchwheel', channel=4, pitch=6473, time=6),
    Message('pitchwheel', channel=4, pitch=6689, time=4),
    Message('pitchwheel', channel=4, pitch=6905, time=3),
    Message('pitchwheel', channel=4, pitch=7120, time=3),
    Message('pitchwheel', channel=4, pitch=7408, time=2),
    Message('pitchwheel', channel=4, pitch=7624, time=4),
    Message('pitchwheel', channel=4, pitch=7840, time=3),
    Message('pitchwheel', channel=4, pitch=8191, time=6),
    Message('note_off', channel=4, note=98, velocity=0, time=181),
    Message('pitchwheel', channel=4, pitch=5394, time=24),
    Message('pitchwheel', channel=4, pitch=1870, time=3),
    Message('pitchwheel', channel=4, pitch=0, time=3),
    Message('note_on', channel=4, note=71, velocity=95, time=3172),
    Message('note_on', channel=4, note=76, velocity=95, time=48),
    Message('note_on', channel=4, note=79, velocity=95, time=48),
    Message('control_change', channel=4, control=64, value=127, time=134),
    Message('note_off', channel=4, note=71, velocity=0, time=92),
    Message('note_off', channel=4, note=76, velocity=0, time=2),
    Message('note_off', channel=4, note=79, velocity=0, time=2),
    Message('control_change', channel=4, control=64, value=0, time=17),
    Message('control_change', channel=4, control=64, value=127, time=23),
    Message('note_on', channel=4, note=79, velocity=95, time=18),
    Message('note_on', channel=4, note=74, velocity=95, time=48),
    Message('note_on', channel=4, note=79, velocity=0, time=5),
    Message('note_on', channel=4, note=74, velocity=0, time=34),
    Message('control_change', channel=4, control=64, value=0, time=239),
    Message('note_on', channel=4, note=78, velocity=95, time=10),
    Message('control_change', channel=4, control=64, value=127, time=35),
    Message('note_off', channel=4, note=78, velocity=0, time=10),
    Message('note_on', channel=4, note=74, velocity=95, time=3),
    Message('note_on', channel=4, note=74, velocity=0, time=42),
    Message('note_on', channel=4, note=69, velocity=95, time=6),
    Message('note_on', channel=4, note=69, velocity=0, time=194),
    Message('control_change', channel=4, control=64, value=0, time=80),
    Message('note_on', channel=4, note=81, velocity=95, time=110),
    Message('pitchwheel', channel=4, pitch=215, time=12),
    Message('pitchwheel', channel=4, pitch=791, time=3),
    Message('pitchwheel', channel=4, pitch=1222, time=3),
    Message('pitchwheel', channel=4, pitch=1726, time=4),
    Message('pitchwheel', channel=4, pitch=2229, time=2),
    Message('pitchwheel', channel=4, pitch=2661, time=4),
    Message('pitchwheel', channel=4, pitch=3452, time=2),
    Message('pitchwheel', channel=4, pitch=4028, time=4),
    Message('pitchwheel', channel=4, pitch=4891, time=2),
    Message('pitchwheel', channel=4, pitch=5538, time=4),
    Message('pitchwheel', channel=4, pitch=6329, time=2),
    Message('pitchwheel', channel=4, pitch=6905, time=4),
    Message('pitchwheel', channel=4, pitch=7624, time=2),
    Message('pitchwheel', channel=4, pitch=8191, time=4),
    Message('control_change', channel=4, control=64, value=127, time=105),
    Message('note_off', channel=4, note=81, velocity=0, time=8),
    Message('pitchwheel', channel=4, pitch=6473, time=1),
    Message('pitchwheel', channel=4, pitch=3956, time=3),
    Message('pitchwheel', channel=4, pitch=1798, time=3),
    Message('pitchwheel', channel=4, pitch=71, time=3),
    Message('pitchwheel', channel=4, pitch=0, time=3),
    Message('note_on', channel=4, note=81, velocity=95, time=14),
    Message('note_on', channel=4, note=81, velocity=0, time=52),
    Message('control_change', channel=4, control=64, value=0, time=41),
    Message('note_on', channel=4, note=76, velocity=95, time=3),
    Message('control_change', channel=4, control=64, value=127, time=210),
    Message('note_off', channel=4, note=76, velocity=0, time=47),
    Message('control_change', channel=4, control=64, value=0, time=116),
    Message('control_change', channel=4, control=64, value=127, time=50),
    Message('note_on', channel=4, note=79, velocity=95, time=9),
    Message('note_on', channel=4, note=83, velocity=95, time=48),
    Message('note_on', channel=4, note=79, velocity=0, time=3),
    Message('note_on', channel=4, note=86, velocity=95, time=45),
    Message('note_on', channel=4, note=83, velocity=0, time=2),
    Message('note_on', channel=4, note=86, velocity=0, time=58),
    Message('control_change', channel=4, control=64, value=0, time=179),
    Message('note_on', channel=4, note=81, velocity=95, time=1),
    Message('control_change', channel=4, control=64, value=127, time=39),
    Message('note_off', channel=4, note=81, velocity=0, time=40),
    Message('note_on', channel=4, note=78, velocity=95, time=17),
    Message('note_on', channel=4, note=78, velocity=0, time=46),
    Message('note_on', channel=4, note=74, velocity=95, time=50),
    Message('note_on', channel=4, note=74, velocity=0, time=24),
    Message('control_change', channel=4, control=64, value=0, time=161),
    Message('note_on', channel=4, note=85, velocity=95, time=7),
    Message('control_change', channel=4, control=64, value=127, time=67),
    Message('note_off', channel=4, note=85, velocity=0, time=19),
    Message('note_on', channel=4, note=83, velocity=95, time=10),
    Message('note_on', channel=4, note=83, velocity=0, time=62),
    Message('control_change', channel=4, control=64, value=0, time=33),
    Message('note_on', channel=4, note=81, velocity=95, time=1),
    Message('note_on', channel=4, note=81, velocity=0, time=115),
    Message('note_on', channel=4, note=86, velocity=95, time=173),
    Message('pitchwheel', channel=4, pitch=287, time=7),
    Message('pitchwheel', channel=4, pitch=1007, time=3),
    Message('pitchwheel', channel=4, pitch=1798, time=3),
    Message('pitchwheel', channel=4, pitch=2517, time=3),
    Message('pitchwheel', channel=4, pitch=3524, time=4),
    Message('pitchwheel', channel=4, pitch=4675, time=2),
    Message('pitchwheel', channel=4, pitch=6185, time=4),
    Message('pitchwheel', channel=4, pitch=7624, time=2),
    Message('pitchwheel', channel=4, pitch=8191, time=4),
    Message('pitchwheel', channel=4, pitch=6977, time=27),
    Message('pitchwheel', channel=4, pitch=5178, time=3),
    Message('pitchwheel', channel=4, pitch=3380, time=3),
    Message('pitchwheel', channel=4, pitch=1438, time=3),
    Message('pitchwheel', channel=4, pitch=143, time=3),
    Message('pitchwheel', channel=4, pitch=0, time=3),
    Message('pitchwheel', channel=4, pitch=503, time=26),
    Message('pitchwheel', channel=4, pitch=1726, time=4),
    Message('pitchwheel', channel=4, pitch=3164, time=3),
    Message('pitchwheel', channel=4, pitch=4603, time=3),
    Message('pitchwheel', channel=4, pitch=6113, time=3),
    Message('pitchwheel', channel=4, pitch=7408, time=3),
    Message('pitchwheel', channel=4, pitch=8191, time=3),
    Message('pitchwheel', channel=4, pitch=8128, time=443),
    Message('pitchwheel', channel=4, pitch=7840, time=3),
    Message('pitchwheel', channel=4, pitch=7336, time=3),
    Message('pitchwheel', channel=4, pitch=6761, time=3),
    Message('pitchwheel', channel=4, pitch=6185, time=3),
    Message('pitchwheel', channel=4, pitch=5538, time=3),
    Message('pitchwheel', channel=4, pitch=5035, time=3),
    Message('pitchwheel', channel=4, pitch=4387, time=3),
    Message('pitchwheel', channel=4, pitch=4028, time=3),
    Message('pitchwheel', channel=4, pitch=3596, time=3),
    Message('pitchwheel', channel=4, pitch=3092, time=3),
    Message('pitchwheel', channel=4, pitch=2661, time=3),
    Message('pitchwheel', channel=4, pitch=2301, time=3),
    Message('pitchwheel', channel=4, pitch=2014, time=4),
    Message('pitchwheel', channel=4, pitch=1582, time=2),
    Message('pitchwheel', channel=4, pitch=1150, time=4),
    Message('pitchwheel', channel=4, pitch=719, time=2),
    Message('pitchwheel', channel=4, pitch=143, time=4),
    Message('pitchwheel', channel=4, pitch=0, time=6),
    Message('note_off', channel=4, note=86, velocity=0, time=40),
    Message('note_on', channel=4, note=85, velocity=95, time=492),
    Message('note_on', channel=4, note=85, velocity=0, time=96),
    Message('note_on', channel=4, note=88, velocity=95, time=0),
    Message('control_change', channel=4, control=64, value=127, time=20),
    Message('note_off', channel=4, note=88, velocity=0, time=50),
    Message('note_on', channel=4, note=93, velocity=95, time=26),
    Message('note_on', channel=4, note=93, velocity=0, time=32),
    Message('note_on', channel=4, note=95, velocity=95, time=64),
    Message('control_change', channel=4, control=64, value=0, time=7),
    Message('control_change', channel=4, control=64, value=127, time=305),
    Message('note_off', channel=4, note=95, velocity=0, time=19),
    Message('control_change', channel=4, control=64, value=0, time=65),
    Message('note_on', channel=4, note=86, velocity=95, time=372),
    Message('note_on', channel=4, note=90, velocity=95, time=0),
    Message('control_change', channel=4, control=64, value=127, time=250),
    Message('note_off', channel=4, note=90, velocity=0, time=22),
    Message('note_off', channel=4, note=86, velocity=0, time=5),
    Message('control_change', channel=4, control=64, value=0, time=100),
    Message('note_on', channel=4, note=85, velocity=95, time=7),
    Message('control_change', channel=4, control=64, value=127, time=43),
    Message('note_on', channel=4, note=88, velocity=95, time=5),
    Message('note_on', channel=4, note=85, velocity=0, time=10),
    Message('note_on', channel=4, note=88, velocity=0, time=38),
    Message('note_on', channel=4, note=93, velocity=95, time=0),
    Message('note_on', channel=4, note=93, velocity=0, time=33),
    Message('note_on', channel=4, note=97, velocity=95, time=63),
    Message('note_on', channel=4, note=97, velocity=0, time=21),
    Message('control_change', channel=4, control=64, value=0, time=146),
    Message('note_on', channel=4, note=86, velocity=95, time=121),
    Message('pitchwheel', channel=4, pitch=287, time=7),
    Message('pitchwheel', channel=4, pitch=1007, time=3),
    Message('pitchwheel', channel=4, pitch=1798, time=3),
    Message('pitchwheel', channel=4, pitch=2517, time=3),
    Message('pitchwheel', channel=4, pitch=3524, time=4),
    Message('pitchwheel', channel=4, pitch=4675, time=2),
    Message('pitchwheel', channel=4, pitch=6185, time=4),
    Message('pitchwheel', channel=4, pitch=7624, time=2),
    Message('pitchwheel', channel=4, pitch=8191, time=4),
    Message('pitchwheel', channel=4, pitch=6977, time=27),
    Message('pitchwheel', channel=4, pitch=5178, time=3),
    Message('pitchwheel', channel=4, pitch=3380, time=3),
    Message('pitchwheel', channel=4, pitch=1438, time=3),
    Message('pitchwheel', channel=4, pitch=143, time=3),
    Message('pitchwheel', channel=4, pitch=0, time=3),
    Message('pitchwheel', channel=4, pitch=503, time=26),
    Message('pitchwheel', channel=4, pitch=1726, time=4),
    Message('pitchwheel', channel=4, pitch=3164, time=3),
    Message('pitchwheel', channel=4, pitch=4603, time=3),
    Message('pitchwheel', channel=4, pitch=6113, time=3),
    Message('pitchwheel', channel=4, pitch=7408, time=3),
    Message('pitchwheel', channel=4, pitch=8191, time=3),
    Message('pitchwheel', channel=4, pitch=8128, time=443),
    Message('pitchwheel', channel=4, pitch=7840, time=3),
    Message('pitchwheel', channel=4, pitch=7336, time=3),
    Message('pitchwheel', channel=4, pitch=6761, time=3),
    Message('pitchwheel', channel=4, pitch=6185, time=3),
    Message('pitchwheel', channel=4, pitch=5538, time=3),
    Message('pitchwheel', channel=4, pitch=5035, time=3),
    Message('pitchwheel', channel=4, pitch=4387, time=3),
    Message('pitchwheel', channel=4, pitch=4028, time=3),
    Message('pitchwheel', channel=4, pitch=3596, time=3),
    Message('pitchwheel', channel=4, pitch=3092, time=3),
    Message('pitchwheel', channel=4, pitch=2661, time=3),
    Message('pitchwheel', channel=4, pitch=2301, time=3),
    Message('pitchwheel', channel=4, pitch=2014, time=4),
    Message('pitchwheel', channel=4, pitch=1582, time=2),
    Message('pitchwheel', channel=4, pitch=1150, time=4),
    Message('pitchwheel', channel=4, pitch=719, time=2),
    Message('pitchwheel', channel=4, pitch=143, time=4),
    Message('pitchwheel', channel=4, pitch=0, time=6),
    Message('note_off', channel=4, note=86, velocity=0, time=40),
    Message('note_on', channel=4, note=85, velocity=95, time=492),
    Message('note_on', channel=4, note=85, velocity=0, time=96),
    Message('note_on', channel=4, note=88, velocity=95, time=0),
    Message('control_change', channel=4, control=64, value=127, time=20),
    Message('note_off', channel=4, note=88, velocity=0, time=50),
    Message('note_on', channel=4, note=93, velocity=95, time=26),
    Message('note_on', channel=4, note=93, velocity=0, time=32),
    Message('note_on', channel=4, note=95, velocity=95, time=64),
    Message('control_change', channel=4, control=64, value=0, time=7),
    Message('control_change', channel=4, control=64, value=127, time=305),
    Message('note_off', channel=4, note=95, velocity=0, time=19),
    Message('control_change', channel=4, control=64, value=0, time=65),
    Message('note_on', channel=4, note=86, velocity=95, time=372),
    Message('note_on', channel=4, note=90, velocity=95, time=0),
    Message('control_change', channel=4, control=64, value=127, time=250),
    Message('note_off', channel=4, note=90, velocity=0, time=22),
    Message('note_off', channel=4, note=86, velocity=0, time=5),
    Message('control_change', channel=4, control=64, value=0, time=100),
    Message('note_on', channel=4, note=85, velocity=95, time=7),
    Message('control_change', channel=4, control=64, value=127, time=43),
    Message('note_on', channel=4, note=88, velocity=95, time=5),
    Message('note_on', channel=4, note=85, velocity=0, time=10),
    Message('note_on', channel=4, note=88, velocity=0, time=38),
    Message('note_on', channel=4, note=93, velocity=95, time=0),
    Message('note_on', channel=4, note=93, velocity=0, time=33),
    Message('note_on', channel=4, note=97, velocity=95, time=63),
    Message('note_on', channel=4, note=97, velocity=0, time=21),
    Message('control_change', channel=4, control=64, value=0, time=146),
    Message('note_on', channel=4, note=71, velocity=95, time=6217),
    Message('note_on', channel=4, note=76, velocity=95, time=48),
    Message('note_on', channel=4, note=79, velocity=95, time=48),
    Message('control_change', channel=4, control=64, value=127, time=134),
    Message('note_off', channel=4, note=71, velocity=0, time=92),
    Message('note_off', channel=4, note=76, velocity=0, time=2),
    Message('note_off', channel=4, note=79, velocity=0, time=2),
    Message('control_change', channel=4, control=64, value=0, time=17),
    Message('control_change', channel=4, control=64, value=127, time=23),
    Message('note_on', channel=4, note=79, velocity=95, time=18),
    Message('note_on', channel=4, note=74, velocity=95, time=48),
    Message('note_on', channel=4, note=79, velocity=0, time=5),
    Message('note_on', channel=4, note=74, velocity=0, time=34),
    Message('control_change', channel=4, control=64, value=0, time=239),
    Message('note_on', channel=4, note=78, velocity=95, time=10),
    Message('control_change', channel=4, control=64, value=127, time=35),
    Message('note_off', channel=4, note=78, velocity=0, time=10),
    Message('note_on', channel=4, note=74, velocity=95, time=3),
    Message('note_on', channel=4, note=74, velocity=0, time=42),
    Message('note_on', channel=4, note=69, velocity=95, time=6),
    Message('note_on', channel=4, note=69, velocity=0, time=194),
    Message('control_change', channel=4, control=64, value=0, time=80),
    Message('note_on', channel=4, note=81, velocity=95, time=110),
    Message('pitchwheel', channel=4, pitch=215, time=12),
    Message('pitchwheel', channel=4, pitch=791, time=3),
    Message('pitchwheel', channel=4, pitch=1222, time=3),
    Message('pitchwheel', channel=4, pitch=1726, time=4),
    Message('pitchwheel', channel=4, pitch=2229, time=2),
    Message('pitchwheel', channel=4, pitch=2661, time=4),
    Message('pitchwheel', channel=4, pitch=3452, time=2),
    Message('pitchwheel', channel=4, pitch=4028, time=4),
    Message('pitchwheel', channel=4, pitch=4891, time=2),
    Message('pitchwheel', channel=4, pitch=5538, time=4),
    Message('pitchwheel', channel=4, pitch=6329, time=2),
    Message('pitchwheel', channel=4, pitch=6905, time=4),
    Message('pitchwheel', channel=4, pitch=7624, time=2),
    Message('pitchwheel', channel=4, pitch=8191, time=4),
    Message('control_change', channel=4, control=64, value=127, time=105),
    Message('note_off', channel=4, note=81, velocity=0, time=8),
    Message('pitchwheel', channel=4, pitch=6473, time=1),
    Message('pitchwheel', channel=4, pitch=3956, time=3),
    Message('pitchwheel', channel=4, pitch=1798, time=3),
    Message('pitchwheel', channel=4, pitch=71, time=3),
    Message('pitchwheel', channel=4, pitch=0, time=3),
    Message('note_on', channel=4, note=81, velocity=95, time=14),
    Message('note_on', channel=4, note=81, velocity=0, time=52),
    Message('control_change', channel=4, control=64, value=0, time=41),
    Message('note_on', channel=4, note=76, velocity=95, time=3),
    Message('control_change', channel=4, control=64, value=127, time=210),
    Message('note_off', channel=4, note=76, velocity=0, time=47),
    Message('control_change', channel=4, control=64, value=0, time=116),
    Message('control_change', channel=4, control=64, value=127, time=50),
    Message('note_on', channel=4, note=79, velocity=95, time=9),
    Message('note_on', channel=4, note=83, velocity=95, time=48),
    Message('note_on', channel=4, note=79, velocity=0, time=3),
    Message('note_on', channel=4, note=86, velocity=95, time=45),
    Message('note_on', channel=4, note=83, velocity=0, time=2),
    Message('note_on', channel=4, note=86, velocity=0, time=58),
    Message('control_change', channel=4, control=64, value=0, time=179),
    Message('note_on', channel=4, note=81, velocity=95, time=1),
    Message('control_change', channel=4, control=64, value=127, time=39),
    Message('note_off', channel=4, note=81, velocity=0, time=40),
    Message('note_on', channel=4, note=78, velocity=95, time=17),
    Message('note_on', channel=4, note=78, velocity=0, time=46),
    Message('note_on', channel=4, note=74, velocity=95, time=50),
    Message('note_on', channel=4, note=74, velocity=0, time=24),
    Message('control_change', channel=4, control=64, value=0, time=161),
    Message('note_on', channel=4, note=85, velocity=95, time=7),
    Message('control_change', channel=4, control=64, value=127, time=67),
    Message('note_off', channel=4, note=85, velocity=0, time=19),
    Message('note_on', channel=4, note=83, velocity=95, time=10),
    Message('note_on', channel=4, note=83, velocity=0, time=62),
    Message('control_change', channel=4, control=64, value=0, time=33),
    Message('note_on', channel=4, note=81, velocity=95, time=1),
    Message('note_on', channel=4, note=81, velocity=0, time=115),
    Message('note_on', channel=4, note=86, velocity=95, time=173),
    Message('pitchwheel', channel=4, pitch=287, time=7),
    Message('pitchwheel', channel=4, pitch=1007, time=3),
    Message('pitchwheel', channel=4, pitch=1798, time=3),
    Message('pitchwheel', channel=4, pitch=2517, time=3),
    Message('pitchwheel', channel=4, pitch=3524, time=4),
    Message('pitchwheel', channel=4, pitch=4675, time=2),
    Message('pitchwheel', channel=4, pitch=6185, time=4),
    Message('pitchwheel', channel=4, pitch=7624, time=2),
    Message('pitchwheel', channel=4, pitch=8191, time=4),
    Message('pitchwheel', channel=4, pitch=6977, time=27),
    Message('pitchwheel', channel=4, pitch=5178, time=3),
    Message('pitchwheel', channel=4, pitch=3380, time=3),
    Message('pitchwheel', channel=4, pitch=1438, time=3),
    Message('pitchwheel', channel=4, pitch=143, time=3),
    Message('pitchwheel', channel=4, pitch=0, time=3),
    Message('pitchwheel', channel=4, pitch=503, time=26),
    Message('pitchwheel', channel=4, pitch=1726, time=4),
    Message('pitchwheel', channel=4, pitch=3164, time=3),
    Message('pitchwheel', channel=4, pitch=4603, time=3),
    Message('pitchwheel', channel=4, pitch=6113, time=3),
    Message('pitchwheel', channel=4, pitch=7408, time=3),
    Message('pitchwheel', channel=4, pitch=8191, time=3),
    Message('pitchwheel', channel=4, pitch=8128, time=443),
    Message('pitchwheel', channel=4, pitch=7840, time=3),
    Message('pitchwheel', channel=4, pitch=7336, time=3),
    Message('pitchwheel', channel=4, pitch=6761, time=3),
    Message('pitchwheel', channel=4, pitch=6185, time=3),
    Message('pitchwheel', channel=4, pitch=5538, time=3),
    Message('pitchwheel', channel=4, pitch=5035, time=3),
    Message('pitchwheel', channel=4, pitch=4387, time=3),
    Message('pitchwheel', channel=4, pitch=4028, time=3),
    Message('pitchwheel', channel=4, pitch=3596, time=3),
    Message('pitchwheel', channel=4, pitch=3092, time=3),
    Message('pitchwheel', channel=4, pitch=2661, time=3),
    Message('pitchwheel', channel=4, pitch=2301, time=3),
    Message('pitchwheel', channel=4, pitch=2014, time=4),
    Message('pitchwheel', channel=4, pitch=1582, time=2),
    Message('pitchwheel', channel=4, pitch=1150, time=4),
    Message('pitchwheel', channel=4, pitch=719, time=2),
    Message('pitchwheel', channel=4, pitch=143, time=4),
    Message('pitchwheel', channel=4, pitch=0, time=6),
    Message('note_off', channel=4, note=86, velocity=0, time=40),
    Message('note_on', channel=4, note=85, velocity=95, time=492),
    Message('note_on', channel=4, note=85, velocity=0, time=96),
    Message('note_on', channel=4, note=88, velocity=95, time=0),
    Message('control_change', channel=4, control=64, value=127, time=20),
    Message('note_off', channel=4, note=88, velocity=0, time=50),
    Message('note_on', channel=4, note=93, velocity=95, time=26),
    Message('note_on', channel=4, note=93, velocity=0, time=32),
    Message('note_on', channel=4, note=95, velocity=95, time=64),
    Message('control_change', channel=4, control=64, value=0, time=7),
    Message('control_change', channel=4, control=64, value=127, time=305),
    Message('note_off', channel=4, note=95, velocity=0, time=19),
    Message('control_change', channel=4, control=64, value=0, time=65),
    Message('note_on', channel=4, note=86, velocity=95, time=372),
    Message('note_on', channel=4, note=90, velocity=95, time=0),
    Message('control_change', channel=4, control=64, value=127, time=250),
    Message('note_off', channel=4, note=90, velocity=0, time=22),
    Message('note_off', channel=4, note=86, velocity=0, time=5),
    Message('control_change', channel=4, control=64, value=0, time=100),
    Message('note_on', channel=4, note=85, velocity=95, time=7),
    Message('control_change', channel=4, control=64, value=127, time=43),
    Message('note_on', channel=4, note=88, velocity=95, time=5),
    Message('note_on', channel=4, note=85, velocity=0, time=10),
    Message('note_on', channel=4, note=88, velocity=0, time=38),
    Message('note_on', channel=4, note=93, velocity=95, time=0),
    Message('note_on', channel=4, note=93, velocity=0, time=33),
    Message('note_on', channel=4, note=97, velocity=95, time=63),
    Message('note_on', channel=4, note=97, velocity=0, time=21),
    Message('control_change', channel=4, control=64, value=0, time=146),
    Message('note_on', channel=4, note=86, velocity=95, time=121),
    Message('pitchwheel', channel=4, pitch=287, time=7),
    Message('pitchwheel', channel=4, pitch=1007, time=3),
    Message('pitchwheel', channel=4, pitch=1798, time=3),
    Message('pitchwheel', channel=4, pitch=2517, time=3),
    Message('pitchwheel', channel=4, pitch=3524, time=4),
    Message('pitchwheel', channel=4, pitch=4675, time=2),
    Message('pitchwheel', channel=4, pitch=6185, time=4),
    Message('pitchwheel', channel=4, pitch=7624, time=2),
    Message('pitchwheel', channel=4, pitch=8191, time=4),
    Message('pitchwheel', channel=4, pitch=6977, time=27),
    Message('pitchwheel', channel=4, pitch=5178, time=3),
    Message('pitchwheel', channel=4, pitch=3380, time=3),
    Message('pitchwheel', channel=4, pitch=1438, time=3),
    Message('pitchwheel', channel=4, pitch=143, time=3),
    Message('pitchwheel', channel=4, pitch=0, time=3),
    Message('pitchwheel', channel=4, pitch=503, time=26),
    Message('pitchwheel', channel=4, pitch=1726, time=4),
    Message('pitchwheel', channel=4, pitch=3164, time=3),
    Message('pitchwheel', channel=4, pitch=4603, time=3),
    Message('pitchwheel', channel=4, pitch=6113, time=3),
    Message('pitchwheel', channel=4, pitch=7408, time=3),
    Message('pitchwheel', channel=4, pitch=8191, time=3),
    Message('pitchwheel', channel=4, pitch=8128, time=443),
    Message('pitchwheel', channel=4, pitch=7840, time=3),
    Message('pitchwheel', channel=4, pitch=7336, time=3),
    Message('pitchwheel', channel=4, pitch=6761, time=3),
    Message('pitchwheel', channel=4, pitch=6185, time=3),
    Message('pitchwheel', channel=4, pitch=5538, time=3),
    Message('pitchwheel', channel=4, pitch=5035, time=3),
    Message('pitchwheel', channel=4, pitch=4387, time=3),
    Message('pitchwheel', channel=4, pitch=4028, time=3),
    Message('pitchwheel', channel=4, pitch=3596, time=3),
    Message('pitchwheel', channel=4, pitch=3092, time=3),
    Message('pitchwheel', channel=4, pitch=2661, time=3),
    Message('pitchwheel', channel=4, pitch=2301, time=3),
    Message('pitchwheel', channel=4, pitch=2014, time=4),
    Message('pitchwheel', channel=4, pitch=1582, time=2),
    Message('pitchwheel', channel=4, pitch=1150, time=4),
    Message('pitchwheel', channel=4, pitch=719, time=2),
    Message('pitchwheel', channel=4, pitch=143, time=4),
    Message('pitchwheel', channel=4, pitch=0, time=6),
    Message('note_off', channel=4, note=86, velocity=0, time=40),
    Message('note_on', channel=4, note=85, velocity=95, time=492),
    Message('note_on', channel=4, note=85, velocity=0, time=96),
    Message('note_on', channel=4, note=88, velocity=95, time=0),
    Message('control_change', channel=4, control=64, value=127, time=20),
    Message('note_off', channel=4, note=88, velocity=0, time=50),
    Message('note_on', channel=4, note=93, velocity=95, time=26),
    Message('note_on', channel=4, note=93, velocity=0, time=32),
    Message('note_on', channel=4, note=95, velocity=95, time=64),
    Message('control_change', channel=4, control=64, value=0, time=7),
    Message('control_change', channel=4, control=64, value=127, time=305),
    Message('note_off', channel=4, note=95, velocity=0, time=19),
    Message('control_change', channel=4, control=64, value=0, time=65),
    Message('note_on', channel=4, note=86, velocity=95, time=372),
    Message('note_on', channel=4, note=90, velocity=95, time=0),
    Message('control_change', channel=4, control=64, value=127, time=250),
    Message('note_off', channel=4, note=90, velocity=0, time=22),
    Message('note_off', channel=4, note=86, velocity=0, time=5),
    Message('control_change', channel=4, control=64, value=0, time=100),
    Message('note_on', channel=4, note=85, velocity=95, time=7),
    Message('control_change', channel=4, control=64, value=127, time=43),
    Message('note_on', channel=4, note=88, velocity=95, time=5),
    Message('note_on', channel=4, note=85, velocity=0, time=10),
    Message('note_on', channel=4, note=88, velocity=0, time=38),
    Message('note_on', channel=4, note=93, velocity=95, time=0),
    Message('note_on', channel=4, note=93, velocity=0, time=33),
    Message('note_on', channel=4, note=97, velocity=95, time=63),
    Message('note_on', channel=4, note=97, velocity=0, time=21),
    Message('control_change', channel=4, control=64, value=0, time=146),
    Message('note_on', channel=4, note=83, velocity=95, time=25),
    Message('note_on', channel=4, note=79, velocity=95, time=0),
    Message('note_on', channel=4, note=76, velocity=95, time=0),
    Message('control_change', channel=4, control=64, value=127, time=8),
    Message('note_off', channel=4, note=76, velocity=0, time=32),
    Message('note_off', channel=4, note=79, velocity=0, time=2),
    Message('note_off', channel=4, note=83, velocity=0, time=7),
    Message('note_on', channel=4, note=88, velocity=95, time=143),
    Message('note_on', channel=4, note=88, velocity=0, time=58),
    Message('note_on', channel=4, note=91, velocity=95, time=38),
    Message('note_on', channel=4, note=91, velocity=0, time=19),
    Message('note_on', channel=4, note=95, velocity=95, time=77),
    Message('note_on', channel=4, note=91, velocity=95, time=0),
    Message('control_change', channel=4, control=64, value=0, time=2),
    Message('control_change', channel=4, control=64, value=127, time=44),
    Message('note_off', channel=4, note=91, velocity=0, time=92),
    Message('note_off', channel=4, note=95, velocity=0, time=9),
    Message('note_on', channel=4, note=98, velocity=95, time=45),
    Message('note_on', channel=4, note=98, velocity=0, time=20),
    Message('note_on', channel=4, note=103, velocity=95, time=76),
    Message('note_on', channel=4, note=103, velocity=0, time=22),
    Message('control_change', channel=4, control=64, value=0, time=69),
    Message('note_on', channel=4, note=102, velocity=95, time=5),
    Message('control_change', channel=4, control=64, value=127, time=62),
    Message('note_off', channel=4, note=102, velocity=0, time=27),
    Message('note_on', channel=4, note=98, velocity=95, time=7),
    Message('note_on', channel=4, note=98, velocity=0, time=27),
    Message('note_on', channel=4, note=85, velocity=95, time=261),
    Message('control_change', channel=4, control=64, value=0, time=8),
    Message('control_change', channel=4, control=64, value=127, time=39),
    Message('note_off', channel=4, note=85, velocity=0, time=41),
    Message('note_on', channel=4, note=81, velocity=95, time=8),
    Message('note_on', channel=4, note=81, velocity=0, time=31),
    Message('note_on', channel=4, note=88, velocity=95, time=65),
    Message('note_on', channel=4, note=88, velocity=0, time=29),
    Message('control_change', channel=4, control=64, value=0, time=144),
    Message('pitchwheel', channel=4, pitch=-152, time=3),
    Message('pitchwheel', channel=4, pitch=-1593, time=3),
    Message('pitchwheel', channel=4, pitch=-3414, time=3),
    Message('pitchwheel', channel=4, pitch=-4779, time=3),
    Message('pitchwheel', channel=4, pitch=-6448, time=3),
    Message('pitchwheel', channel=4, pitch=-7434, time=3),
    Message('note_on', channel=4, note=91, velocity=95, time=1),
    Message('note_on', channel=4, note=88, velocity=95, time=0),
    Message('pitchwheel', channel=4, pitch=-8041, time=1),
    Message('pitchwheel', channel=4, pitch=-8192, time=3),
    Message('pitchwheel', channel=4, pitch=-8117, time=10),
    Message('pitchwheel', channel=4, pitch=-7737, time=6),
    Message('pitchwheel', channel=4, pitch=-7358, time=3),
    Message('pitchwheel', channel=4, pitch=-6751, time=3),
    Message('pitchwheel', channel=4, pitch=-6372, time=3),
    Message('pitchwheel', channel=4, pitch=-5765, time=3),
    Message('pitchwheel', channel=4, pitch=-5083, time=3),
    Message('pitchwheel', channel=4, pitch=-4248, time=3),
    Message('pitchwheel', channel=4, pitch=-3566, time=3),
    Message('pitchwheel', channel=4, pitch=-3186, time=3),
    Message('pitchwheel', channel=4, pitch=-2579, time=3),
    Message('pitchwheel', channel=4, pitch=-2200, time=3),
    Message('pitchwheel', channel=4, pitch=-1745, time=3),
    Message('pitchwheel', channel=4, pitch=-1138, time=3),
    Message('pitchwheel', channel=4, pitch=-531, time=3),
    Message('pitchwheel', channel=4, pitch=0, time=3),
    Message('control_change', channel=4, control=64, value=127, time=65),
    Message('note_off', channel=4, note=88, velocity=0, time=52),
    Message('note_on', channel=4, note=95, velocity=95, time=13),
    Message('control_change', channel=4, control=64, value=0, time=0),
    Message('control_change', channel=4, control=64, value=127, time=55),
    Message('note_off', channel=4, note=95, velocity=0, time=41),
    Message('note_off', channel=4, note=91, velocity=0, time=2),
    Message('pitchwheel', channel=4, pitch=-456, time=71),
    Message('pitchwheel', channel=4, pitch=-1214, time=3),
    Message('pitchwheel', channel=4, pitch=-2124, time=3),
    Message('pitchwheel', channel=4, pitch=-2959, time=3),
    Message('pitchwheel', channel=4, pitch=-3641, time=3),
    Message('pitchwheel', channel=4, pitch=-4324, time=3),
    Message('control_change', channel=4, control=64, value=0, time=0),
    Message('pitchwheel', channel=4, pitch=-4703, time=3),
    Message('pitchwheel', channel=4, pitch=-4931, time=3),
    Message('note_on', channel=4, note=83, velocity=95, time=2),
    Message('note_on', channel=4, note=79, velocity=95, time=0),
    Message('pitchwheel', channel=4, pitch=-4703, time=4),
    Message('pitchwheel', channel=4, pitch=-4248, time=3),
    Message('pitchwheel', channel=4, pitch=-3641, time=3),
    Message('pitchwheel', channel=4, pitch=-3035, time=3),
    Message('pitchwheel', channel=4, pitch=-1973, time=3),
    Message('pitchwheel', channel=4, pitch=-911, time=3),
    Message('pitchwheel', channel=4, pitch=-76, time=3),
    Message('pitchwheel', channel=4, pitch=0, time=3),
    Message('control_change', channel=4, control=64, value=127, time=5),
    Message('note_off', channel=4, note=79, velocity=0, time=45),
    Message('note_off', channel=4, note=83, velocity=0, time=3),
    Message('pitchwheel', channel=4, pitch=-380, time=113),
    Message('note_on', channel=4, note=91, velocity=95, time=1),
    Message('note_on', channel=4, note=95, velocity=95, time=0),
    Message('control_change', channel=4, control=64, value=0, time=0),
    Message('pitchwheel', channel=4, pitch=-1138, time=2),
    Message('pitchwheel', channel=4, pitch=-1821, time=3),
    Message('pitchwheel', channel=4, pitch=-2276, time=3),
    Message('pitchwheel', channel=4, pitch=-2504, time=6),
    Message('pitchwheel', channel=4, pitch=-2276, time=9),
    Message('pitchwheel', channel=4, pitch=-2048, time=3),
    Message('pitchwheel', channel=4, pitch=-1366, time=3),
    Message('pitchwheel', channel=4, pitch=-759, time=3),
    Message('pitchwheel', channel=4, pitch=-304, time=3),
    Message('pitchwheel', channel=4, pitch=0, time=3),
    Message('control_change', channel=4, control=64, value=127, time=7),
    Message('note_off', channel=4, note=91, velocity=0, time=92),
    Message('note_off', channel=4, note=95, velocity=0, time=12),
    Message('control_change', channel=4, control=64, value=0, time=46),
    Message('note_on', channel=4, note=90, velocity=95, time=93),
    Message('control_change', channel=4, control=64, value=127, time=14),
    Message('note_off', channel=4, note=90, velocity=0, time=76),
    Message('note_on', channel=4, note=93, velocity=95, time=6),
    Message('note_on', channel=4, note=93, velocity=0, time=56),
    Message('note_on', channel=4, note=98, velocity=95, time=40),
    Message('note_on', channel=4, note=98, velocity=0, time=24),
    Message('note_on', channel=4, note=97, velocity=95, time=72),
    Message('control_change', channel=4, control=64, value=0, time=4),
    Message('control_change', channel=4, control=64, value=127, time=46),
    Message('note_off', channel=4, note=97, velocity=0, time=41),
    Message('note_on', channel=4, note=93, velocity=95, time=5),
    Message('note_on', channel=4, note=93, velocity=0, time=36),
    Message('control_change', channel=4, control=64, value=0, time=204),
    Message('note_on', channel=4, note=93, velocity=95, time=48),
    Message('pitchwheel', channel=4, pitch=143, time=22),
    Message('pitchwheel', channel=4, pitch=719, time=6),
    Message('pitchwheel', channel=4, pitch=935, time=3),
    Message('pitchwheel', channel=4, pitch=1366, time=6),
    Message('pitchwheel', channel=4, pitch=1582, time=3),
    Message('pitchwheel', channel=4, pitch=1942, time=3),
    Message('pitchwheel', channel=4, pitch=2157, time=3),
    Message('pitchwheel', channel=4, pitch=2373, time=3),
    Message('pitchwheel', channel=4, pitch=2661, time=3),
    Message('pitchwheel', channel=4, pitch=3021, time=3),
    Message('pitchwheel', channel=4, pitch=3452, time=3),
    Message('pitchwheel', channel=4, pitch=3812, time=6),
    Message('pitchwheel', channel=4, pitch=4171, time=6),
    Message('pitchwheel', channel=4, pitch=4459, time=3),
    Message('pitchwheel', channel=4, pitch=4675, time=3),
    Message('pitchwheel', channel=4, pitch=4963, time=3),
    Message('pitchwheel', channel=4, pitch=5394, time=6),
    Message('pitchwheel', channel=4, pitch=5754, time=6),
    Message('pitchwheel', channel=4, pitch=6042, time=3),
    Message('pitchwheel', channel=4, pitch=6329, time=6),
    Message('pitchwheel', channel=4, pitch=6617, time=6),
    Message('pitchwheel', channel=4, pitch=6833, time=6),
    Message('pitchwheel', channel=4, pitch=7192, time=6),
    Message('pitchwheel', channel=4, pitch=7408, time=3),
    Message('pitchwheel', channel=4, pitch=7624, time=3),
    Message('pitchwheel', channel=4, pitch=7912, time=6),
    Message('pitchwheel', channel=4, pitch=8191, time=6),
    Message('note_off', channel=4, note=93, velocity=0, time=198),
    Message('pitchwheel', channel=4, pitch=7624, time=4),
    Message('pitchwheel', channel=4, pitch=5394, time=4),
    Message('pitchwheel', channel=4, pitch=2589, time=2),
    Message('pitchwheel', channel=4, pitch=143, time=3),
    Message('pitchwheel', channel=4, pitch=0, time=3),
    Message('note_on', channel=4, note=100, velocity=95, time=34),
    Message('pitchwheel', channel=4, pitch=143, time=12),
    Message('pitchwheel', channel=4, pitch=791, time=3),
    Message('pitchwheel', channel=4, pitch=1366, time=3),
    Message('pitchwheel', channel=4, pitch=2301, time=3),
    Message('pitchwheel', channel=4, pitch=2877, time=3),
    Message('pitchwheel', channel=4, pitch=3596, time=3),
    Message('pitchwheel', channel=4, pitch=3956, time=3),
    Message('pitchwheel', channel=4, pitch=4531, time=3),
    Message('pitchwheel', channel=4, pitch=5250, time=3),
    Message('pitchwheel', channel=4, pitch=5682, time=3),
    Message('pitchwheel', channel=4, pitch=6257, time=3),
    Message('pitchwheel', channel=4, pitch=6617, time=3),
    Message('pitchwheel', channel=4, pitch=6905, time=3),
    Message('pitchwheel', channel=4, pitch=7408, time=3),
    Message('pitchwheel', channel=4, pitch=7768, time=3),
    Message('pitchwheel', channel=4, pitch=8128, time=3),
    Message('pitchwheel', channel=4, pitch=8191, time=3),
    Message('pitchwheel', channel=4, pitch=7624, time=226),
    Message('pitchwheel', channel=4, pitch=6617, time=4),
    Message('pitchwheel', channel=4, pitch=5466, time=2),
    Message('pitchwheel', channel=4, pitch=4315, time=3),
    Message('pitchwheel', channel=4, pitch=3380, time=3),
    Message('pitchwheel', channel=4, pitch=2157, time=3),
    Message('pitchwheel', channel=4, pitch=1007, time=3),
    Message('pitchwheel', channel=4, pitch=215, time=3),
    Message('pitchwheel', channel=4, pitch=0, time=7),
    Message('note_off', channel=4, note=100, velocity=0, time=70),
    Message('note_on', channel=4, note=98, velocity=95, time=0),
    Message('note_on', channel=4, note=102, velocity=95, time=96),
    Message('note_on', channel=4, note=98, velocity=0, time=8),
    Message('note_on', channel=4, note=105, velocity=95, time=88),
    Message('note_on', channel=4, note=102, velocity=0, time=1),
    Message('note_on', channel=4, note=105, velocity=0, time=181),
    Message('note_on', channel=4, note=97, velocity=95, time=10),
    Message('note_on', channel=4, note=93, velocity=95, time=192),
    Message('note_on', channel=4, note=97, velocity=0, time=10),
    Message('pitchwheel', channel=4, pitch=431, time=181),
    Message('pitchwheel', channel=4, pitch=935, time=2),
    Message('pitchwheel', channel=4, pitch=1294, time=5),
    Message('pitchwheel', channel=4, pitch=2014, time=2),
    Message('pitchwheel', channel=4, pitch=2589, time=4),
    Message('pitchwheel', channel=4, pitch=2805, time=3),
    Message('pitchwheel', channel=4, pitch=3164, time=3),
    Message('pitchwheel', channel=4, pitch=3452, time=2),
    Message('pitchwheel', channel=4, pitch=3884, time=6),
    Message('pitchwheel', channel=4, pitch=4099, time=4),
    Message('pitchwheel', channel=4, pitch=4315, time=2),
    Message('pitchwheel', channel=4, pitch=4675, time=7),
    Message('pitchwheel', channel=4, pitch=4963, time=3),
    Message('pitchwheel', channel=4, pitch=5250, time=3),
    Message('pitchwheel', channel=4, pitch=5610, time=6),
    Message('pitchwheel', channel=4, pitch=5898, time=3),
    Message('pitchwheel', channel=4, pitch=6185, time=6),
    Message('pitchwheel', channel=4, pitch=6545, time=9),
    Message('pitchwheel', channel=4, pitch=6761, time=6),
    Message('pitchwheel', channel=4, pitch=7120, time=6),
    Message('pitchwheel', channel=4, pitch=7408, time=6),
    Message('pitchwheel', channel=4, pitch=7624, time=3),
    Message('pitchwheel', channel=4, pitch=7840, time=6),
    Message('pitchwheel', channel=4, pitch=8056, time=9),
    Message('pitchwheel', channel=4, pitch=8191, time=9),
    Message('note_off', channel=4, note=93, velocity=0, time=224),
    Message('pitchwheel', channel=4, pitch=7049, time=120),
    Message('pitchwheel', channel=4, pitch=5106, time=3),
    Message('pitchwheel', channel=4, pitch=3092, time=3),
    Message('pitchwheel', channel=4, pitch=1150, time=3),
    Message('pitchwheel', channel=4, pitch=71, time=3),
    Message('pitchwheel', channel=4, pitch=0, time=6),
    MetaMessage('end_of_track', time=0)]),
  MidiTrack([
    MetaMessage('midi_port', port=0, time=0),
    Message('program_change', channel=3, program=25, time=0),
    Message('control_change', channel=3, control=10, value=29, time=0),
    Message('control_change', channel=3, control=10, value=29, time=28),
    Message('control_change', channel=3, control=10, value=29, time=5),
    Message('control_change', channel=3, control=10, value=29, time=5),
    Message('control_change', channel=3, control=10, value=29, time=5),
    Message('control_change', channel=3, control=10, value=29, time=5),
    Message('control_change', channel=3, control=10, value=29, time=4),
    Message('control_change', channel=3, control=10, value=29, time=5),
    Message('control_change', channel=3, control=10, value=29, time=5),
    Message('control_change', channel=3, control=10, value=29, time=5),
    Message('control_change', channel=3, control=10, value=29, time=5),
    Message('control_change', channel=3, control=10, value=29, time=4),
    Message('control_change', channel=3, control=10, value=29, time=5),
    Message('control_change', channel=3, control=10, value=29, time=5),
    Message('control_change', channel=3, control=10, value=29, time=5),
    Message('control_change', channel=3, control=10, value=29, time=5),
    Message('control_change', channel=3, control=10, value=29, time=4),
    Message('control_change', channel=3, control=10, value=29, time=5),
    Message('control_change', channel=3, control=10, value=29, time=5),
    Message('control_change', channel=3, control=10, value=29, time=5),
    Message('control_change', channel=3, control=10, value=29, time=5),
    Message('control_change', channel=3, control=10, value=29, time=4),
    Message('control_change', channel=3, control=10, value=29, time=5),
    Message('control_change', channel=3, control=10, value=29, time=5),
    Message('control_change', channel=3, control=10, value=29, time=5),
    Message('control_change', channel=3, control=10, value=29, time=5),
    Message('control_change', channel=3, control=10, value=29, time=4),
    Message('control_change', channel=3, control=10, value=29, time=5),
    Message('control_change', channel=3, control=10, value=29, time=5),
    Message('control_change', channel=3, control=10, value=29, time=5),
    Message('control_change', channel=3, control=10, value=29, time=5),
    Message('note_on', channel=3, note=40, velocity=95, time=1768),
    Message('note_on', channel=3, note=52, velocity=95, time=48),
    Message('note_on', channel=3, note=55, velocity=95, time=48),
    Message('note_on', channel=3, note=52, velocity=0, time=1),
    Message('control_change', channel=3, control=64, value=127, time=10),
    Message('note_off', channel=3, note=55, velocity=0, time=30),
    Message('note_on', channel=3, note=52, velocity=92, time=3),
    Message('note_on', channel=3, note=52, velocity=0, time=34),
    Message('note_on', channel=3, note=59, velocity=94, time=11),
    Message('note_on', channel=3, note=59, velocity=0, time=36),
    Message('note_on', channel=3, note=55, velocity=95, time=10),
    Message('note_on', channel=3, note=55, velocity=0, time=32),
    Message('note_on', channel=3, note=40, velocity=0, time=3),
    Message('note_on', channel=3, note=52, velocity=87, time=5),
    Message('note_on', channel=3, note=52, velocity=0, time=38),
    Message('note_on', channel=3, note=55, velocity=94, time=12),
    Message('note_on', channel=3, note=55, velocity=0, time=32),
    Message('note_on', channel=3, note=43, velocity=95, time=15),
    Message('control_change', channel=3, control=64, value=0, time=4),
    Message('note_on', channel=3, note=50, velocity=95, time=39),
    Message('control_change', channel=3, control=64, value=127, time=1),
    Message('note_off', channel=3, note=50, velocity=0, time=38),
    Message('note_on', channel=3, note=55, velocity=95, time=9),
    Message('note_on', channel=3, note=50, velocity=95, time=49),
    Message('note_on', channel=3, note=55, velocity=0, time=1),
    Message('note_on', channel=3, note=50, velocity=0, time=40),
    Message('note_on', channel=3, note=55, velocity=95, time=9),
    Message('note_on', channel=3, note=43, velocity=0, time=2),
    Message('note_on', channel=3, note=55, velocity=0, time=32),
    Message('note_on', channel=3, note=59, velocity=95, time=18),
    Message('note_on', channel=3, note=59, velocity=0, time=43),
    Message('note_on', channel=3, note=62, velocity=95, time=9),
    Message('note_on', channel=3, note=62, velocity=0, time=50),
    Message('note_on', channel=3, note=59, velocity=94, time=3),
    Message('note_on', channel=3, note=59, velocity=0, time=22),
    Message('note_on', channel=3, note=50, velocity=95, time=27),
    Message('control_change', channel=3, control=64, value=0, time=5),
    Message('control_change', channel=3, control=64, value=127, time=33),
    Message('note_on', channel=3, note=54, velocity=94, time=6),
    Message('note_on', channel=3, note=50, velocity=0, time=16),
    Message('note_on', channel=3, note=54, velocity=0, time=20),
    Message('note_on', channel=3, note=57, velocity=95, time=12),
    Message('note_on', channel=3, note=57, velocity=0, time=32),
    Message('note_on', channel=3, note=54, velocity=85, time=13),
    Message('note_on', channel=3, note=50, velocity=95, time=43),
    Message('note_on', channel=3, note=54, velocity=0, time=1),
    Message('note_on', channel=3, note=54, velocity=95, time=45),
    Message('note_on', channel=3, note=50, velocity=0, time=1),
    Message('note_on', channel=3, note=54, velocity=0, time=52),
    Message('note_on', channel=3, note=57, velocity=95, time=3),
    Message('note_on', channel=3, note=57, velocity=0, time=42),
    Message('note_on', channel=3, note=54, velocity=94, time=3),
    Message('note_on', channel=3, note=54, velocity=0, time=18),
    Message('note_on', channel=3, note=45, velocity=95, time=30),
    Message('control_change', channel=3, control=64, value=0, time=3),
    Message('note_off', channel=3, note=45, velocity=0, time=497),
    Message('note_on', channel=3, note=52, velocity=95, time=265),
    Message('note_on', channel=3, note=40, velocity=95, time=0),
    Message('note_on', channel=3, note=59, velocity=95, time=0),
    Message('note_on', channel=3, note=55, velocity=95, time=0),
    Message('control_change', channel=3, control=64, value=127, time=26),
    Message('note_off', channel=3, note=52, velocity=0, time=22),
    Message('note_off', channel=3, note=55, velocity=0, time=2),
    Message('note_off', channel=3, note=59, velocity=0, time=0),
    Message('note_off', channel=3, note=40, velocity=0, time=24),
    Message('note_on', channel=3, note=52, velocity=95, time=22),
    Message('note_on', channel=3, note=55, velocity=95, time=0),
    Message('note_on', channel=3, note=59, velocity=95, time=0),
    Message('note_on', channel=3, note=55, velocity=0, time=12),
    Message('note_on', channel=3, note=52, velocity=0, time=0),
    Message('note_on', channel=3, note=59, velocity=0, time=3),
    Message('note_on', channel=3, note=59, velocity=75, time=33),
    Message('note_on', channel=3, note=59, velocity=0, time=5),
    Message('note_on', channel=3, note=40, velocity=95, time=19),
    Message('note_on', channel=3, note=40, velocity=0, time=15),
    Message('note_on', channel=3, note=52, velocity=95, time=9),
    Message('note_on', channel=3, note=55, velocity=95, time=0),
    Message('note_on', channel=3, note=59, velocity=95, time=0),
    Message('note_on', channel=3, note=55, velocity=0, time=20),
    Message('note_on', channel=3, note=52, velocity=0, time=0),
    Message('note_on', channel=3, note=59, velocity=0, time=1),
    Message('note_on', channel=3, note=40, velocity=95, time=27),
    Message('note_on', channel=3, note=40, velocity=0, time=19),
    Message('note_on', channel=3, note=52, velocity=95, time=29),
    Message('note_on', channel=3, note=59, velocity=95, time=0),
    Message('note_on', channel=3, note=55, velocity=95, time=0),
    Message('note_on', channel=3, note=55, velocity=0, time=15),
    Message('note_on', channel=3, note=52, velocity=0, time=1),
    Message('note_on', channel=3, note=59, velocity=0, time=1),
    Message('note_on', channel=3, note=52, velocity=95, time=31),
    Message('note_on', channel=3, note=55, velocity=95, time=0),
    Message('note_on', channel=3, note=59, velocity=95, time=0),
    Message('note_on', channel=3, note=52, velocity=0, time=11),
    Message('note_on', channel=3, note=55, velocity=0, time=1),
    Message('note_on', channel=3, note=59, velocity=0, time=4),
    Message('control_change', channel=3, control=64, value=0, time=26),
    Message('note_on', channel=3, note=43, velocity=95, time=6),
    Message('control_change', channel=3, control=64, value=127, time=23),
    Message('note_off', channel=3, note=43, velocity=0, time=25),
    Message('note_on', channel=3, note=55, velocity=95, time=0),
    Message('note_on', channel=3, note=59, velocity=95, time=0),
    Message('note_on', channel=3, note=62, velocity=95, time=0),
    Message('note_on', channel=3, note=59, velocity=0, time=15),
    Message('note_on', channel=3, note=55, velocity=0, time=0),
    Message('note_on', channel=3, note=62, velocity=0, time=3),
    Message('note_on', channel=3, note=55, velocity=95, time=78),
    Message('note_on', channel=3, note=59, velocity=95, time=0),
    Message('note_on', channel=3, note=62, velocity=95, time=0),
    Message('note_on', channel=3, note=43, velocity=95, time=0),
    Message('note_on', channel=3, note=59, velocity=0, time=12),
    Message('note_on', channel=3, note=55, velocity=0, time=1),
    Message('note_on', channel=3, note=62, velocity=0, time=1),
    Message('note_on', channel=3, note=43, velocity=0, time=3),
    Message('note_on', channel=3, note=59, velocity=95, time=79),
    Message('note_on', channel=3, note=55, velocity=95, time=0),
    Message('note_on', channel=3, note=62, velocity=95, time=0),
    Message('note_on', channel=3, note=43, velocity=95, time=0),
    Message('note_on', channel=3, note=59, velocity=0, time=11),
    Message('note_on', channel=3, note=62, velocity=0, time=2),
    Message('note_on', channel=3, note=55, velocity=0, time=1),
    Message('note_on', channel=3, note=43, velocity=0, time=4),
    Message('note_on', channel=3, note=59, velocity=95, time=30),
    Message('note_on', channel=3, note=62, velocity=95, time=0),
    Message('note_on', channel=3, note=55, velocity=95, time=0),
    Message('note_on', channel=3, note=59, velocity=0, time=13),
    Message('note_on', channel=3, note=55, velocity=0, time=3),
    Message('note_on', channel=3, note=62, velocity=0, time=0),
    Message('note_on', channel=3, note=55, velocity=95, time=32),
    Message('note_on', channel=3, note=59, velocity=95, time=0),
    Message('note_on', channel=3, note=62, velocity=95, time=0),
    Message('note_on', channel=3, note=55, velocity=0, time=12),
    Message('note_on', channel=3, note=59, velocity=0, time=2),
    Message('note_on', channel=3, note=62, velocity=0, time=1),
    Message('control_change', channel=3, control=64, value=0, time=21),
    Message('note_on', channel=3, note=50, velocity=95, time=12),
    Message('control_change', channel=3, control=64, value=127, time=16),
    Message('note_off', channel=3, note=50, velocity=0, time=71),
    Message('note_on', channel=3, note=62, velocity=95, time=9),
    Message('note_on', channel=3, note=57, velocity=95, time=0),
    Message('note_on', channel=3, note=54, velocity=95, time=0),
    Message('note_on', channel=3, note=62, velocity=0, time=13),
    Message('note_on', channel=3, note=57, velocity=0, time=5),
    Message('note_on', channel=3, note=54, velocity=0, time=1),
    Message('note_on', channel=3, note=57, velocity=95, time=29),
    Message('note_on', channel=3, note=57, velocity=0, time=12),
    Message('note_on', channel=3, note=50, velocity=95, time=12),
    Message('note_on', channel=3, note=50, velocity=0, time=15),
    Message('note_on', channel=3, note=54, velocity=88, time=9),
    Message('note_on', channel=3, note=62, velocity=95, time=0),
    Message('note_on', channel=3, note=57, velocity=95, time=0),
    Message('note_on', channel=3, note=62, velocity=0, time=14),
    Message('note_on', channel=3, note=54, velocity=0, time=0),
    Message('note_on', channel=3, note=57, velocity=0, time=9),
    Message('note_on', channel=3, note=50, velocity=95, time=25),
    Message('note_on', channel=3, note=50, velocity=0, time=18),
    Message('note_on', channel=3, note=62, velocity=95, time=30),
    Message('note_on', channel=3, note=54, velocity=95, time=0),
    Message('note_on', channel=3, note=57, velocity=95, time=0),
    Message('note_on', channel=3, note=62, velocity=0, time=19),
    Message('note_on', channel=3, note=57, velocity=0, time=6),
    Message('note_on', channel=3, note=54, velocity=0, time=0),
    Message('note_on', channel=3, note=62, velocity=95, time=23),
    Message('note_on', channel=3, note=54, velocity=95, time=0),
    Message('note_on', channel=3, note=57, velocity=95, time=0),
    Message('note_on', channel=3, note=57, velocity=0, time=30),
    Message('note_on', channel=3, note=54, velocity=0, time=0),
    Message('note_on', channel=3, note=62, velocity=0, time=0),
    Message('control_change', channel=3, control=64, value=0, time=8),
    Message('control_change', channel=3, control=64, value=127, time=21),
    Message('note_on', channel=3, note=57, velocity=95, time=37),
    Message('note_on', channel=3, note=60, velocity=95, time=0),
    Message('note_on', channel=3, note=64, velocity=95, time=0),
    Message('note_on', channel=3, note=45, velocity=95, time=0),
    Message('note_on', channel=3, note=57, velocity=0, time=16),
    Message('note_on', channel=3, note=60, velocity=0, time=1),
    Message('note_on', channel=3, note=64, velocity=0, time=2),
    Message('note_on', channel=3, note=45, velocity=0, time=11),
    Message('note_on', channel=3, note=45, velocity=95, time=66),
    Message('note_on', channel=3, note=57, velocity=95, time=0),
    Message('note_on', channel=3, note=60, velocity=95, time=0),
    Message('note_on', channel=3, note=64, velocity=95, time=0),
    Message('note_on', channel=3, note=60, velocity=0, time=14),
    Message('note_on', channel=3, note=57, velocity=0, time=0),
    Message('note_on', channel=3, note=64, velocity=0, time=2),
    Message('note_on', channel=3, note=45, velocity=0, time=3),
    Message('note_on', channel=3, note=45, velocity=95, time=77),
    Message('note_on', channel=3, note=57, velocity=95, time=0),
    Message('note_on', channel=3, note=64, velocity=95, time=0),
    Message('note_on', channel=3, note=60, velocity=95, time=0),
    Message('note_on', channel=3, note=60, velocity=0, time=14),
    Message('note_on', channel=3, note=57, velocity=0, time=0),
    Message('note_on', channel=3, note=45, velocity=0, time=2),
    Message('note_on', channel=3, note=64, velocity=0, time=1),
    Message('control_change', channel=3, control=64, value=0, time=61),
    Message('note_on', channel=3, note=52, velocity=95, time=66),
    Message('note_on', channel=3, note=40, velocity=95, time=0),
    Message('note_on', channel=3, note=59, velocity=95, time=0),
    Message('note_on', channel=3, note=55, velocity=95, time=0),
    Message('control_change', channel=3, control=64, value=127, time=26),
    Message('note_off', channel=3, note=52, velocity=0, time=22),
    Message('note_off', channel=3, note=55, velocity=0, time=2),
    Message('note_off', channel=3, note=59, velocity=0, time=0),
    Message('note_off', channel=3, note=40, velocity=0, time=24),
    Message('note_on', channel=3, note=52, velocity=95, time=22),
    Message('note_on', channel=3, note=55, velocity=95, time=0),
    Message('note_on', channel=3, note=59, velocity=95, time=0),
    Message('note_on', channel=3, note=55, velocity=0, time=12),
    Message('note_on', channel=3, note=52, velocity=0, time=0),
    Message('note_on', channel=3, note=59, velocity=0, time=3),
    Message('note_on', channel=3, note=59, velocity=75, time=33),
    Message('note_on', channel=3, note=59, velocity=0, time=5),
    Message('note_on', channel=3, note=40, velocity=95, time=19),
    Message('note_on', channel=3, note=40, velocity=0, time=15),
    Message('note_on', channel=3, note=52, velocity=95, time=9),
    Message('note_on', channel=3, note=55, velocity=95, time=0),
    Message('note_on', channel=3, note=59, velocity=95, time=0),
    Message('note_on', channel=3, note=55, velocity=0, time=20),
    Message('note_on', channel=3, note=52, velocity=0, time=0),
    Message('note_on', channel=3, note=59, velocity=0, time=1),
    Message('note_on', channel=3, note=40, velocity=95, time=27),
    Message('note_on', channel=3, note=40, velocity=0, time=19),
    Message('note_on', channel=3, note=52, velocity=95, time=29),
    Message('note_on', channel=3, note=59, velocity=95, time=0),
    Message('note_on', channel=3, note=55, velocity=95, time=0),
    Message('note_on', channel=3, note=55, velocity=0, time=15),
    Message('note_on', channel=3, note=52, velocity=0, time=1),
    Message('note_on', channel=3, note=59, velocity=0, time=1),
    Message('note_on', channel=3, note=52, velocity=95, time=31),
    Message('note_on', channel=3, note=55, velocity=95, time=0),
    Message('note_on', channel=3, note=59, velocity=95, time=0),
    Message('note_on', channel=3, note=52, velocity=0, time=11),
    Message('note_on', channel=3, note=55, velocity=0, time=1),
    Message('note_on', channel=3, note=59, velocity=0, time=4),
    Message('control_change', channel=3, control=64, value=0, time=26),
    Message('note_on', channel=3, note=43, velocity=95, time=6),
    Message('control_change', channel=3, control=64, value=127, time=23),
    Message('note_off', channel=3, note=43, velocity=0, time=25),
    Message('note_on', channel=3, note=55, velocity=95, time=0),
    Message('note_on', channel=3, note=59, velocity=95, time=0),
    Message('note_on', channel=3, note=62, velocity=95, time=0),
    Message('note_on', channel=3, note=59, velocity=0, time=15),
    Message('note_on', channel=3, note=55, velocity=0, time=0),
    Message('note_on', channel=3, note=62, velocity=0, time=3),
    Message('note_on', channel=3, note=55, velocity=95, time=78),
    Message('note_on', channel=3, note=59, velocity=95, time=0),
    Message('note_on', channel=3, note=62, velocity=95, time=0),
    Message('note_on', channel=3, note=43, velocity=95, time=0),
    Message('note_on', channel=3, note=59, velocity=0, time=12),
    Message('note_on', channel=3, note=55, velocity=0, time=1),
    Message('note_on', channel=3, note=62, velocity=0, time=1),
    Message('note_on', channel=3, note=43, velocity=0, time=3),
    Message('note_on', channel=3, note=59, velocity=95, time=79),
    Message('note_on', channel=3, note=55, velocity=95, time=0),
    Message('note_on', channel=3, note=62, velocity=95, time=0),
    Message('note_on', channel=3, note=43, velocity=95, time=0),
    Message('note_on', channel=3, note=59, velocity=0, time=11),
    Message('note_on', channel=3, note=62, velocity=0, time=2),
    Message('note_on', channel=3, note=55, velocity=0, time=1),
    Message('note_on', channel=3, note=43, velocity=0, time=4),
    Message('note_on', channel=3, note=59, velocity=95, time=30),
    Message('note_on', channel=3, note=62, velocity=95, time=0),
    Message('note_on', channel=3, note=55, velocity=95, time=0),
    Message('note_on', channel=3, note=59, velocity=0, time=13),
    Message('note_on', channel=3, note=55, velocity=0, time=3),
    Message('note_on', channel=3, note=62, velocity=0, time=0),
    Message('note_on', channel=3, note=55, velocity=95, time=32),
    Message('note_on', channel=3, note=59, velocity=95, time=0),
    Message('note_on', channel=3, note=62, velocity=95, time=0),
    Message('note_on', channel=3, note=55, velocity=0, time=12),
    Message('note_on', channel=3, note=59, velocity=0, time=2),
    Message('note_on', channel=3, note=62, velocity=0, time=1),
    Message('control_change', channel=3, control=64, value=0, time=21),
    Message('note_on', channel=3, note=50, velocity=95, time=12),
    Message('control_change', channel=3, control=64, value=127, time=16),
    Message('note_off', channel=3, note=50, velocity=0, time=71),
    Message('note_on', channel=3, note=62, velocity=95, time=9),
    Message('note_on', channel=3, note=57, velocity=95, time=0),
    Message('note_on', channel=3, note=54, velocity=95, time=0),
    Message('note_on', channel=3, note=62, velocity=0, time=13),
    Message('note_on', channel=3, note=57, velocity=0, time=5),
    Message('note_on', channel=3, note=54, velocity=0, time=1),
    Message('note_on', channel=3, note=57, velocity=95, time=29),
    Message('note_on', channel=3, note=57, velocity=0, time=12),
    Message('note_on', channel=3, note=50, velocity=95, time=12),
    Message('note_on', channel=3, note=50, velocity=0, time=15),
    Message('note_on', channel=3, note=54, velocity=88, time=9),
    Message('note_on', channel=3, note=62, velocity=95, time=0),
    Message('note_on', channel=3, note=57, velocity=95, time=0),
    Message('note_on', channel=3, note=62, velocity=0, time=14),
    Message('note_on', channel=3, note=54, velocity=0, time=0),
    Message('note_on', channel=3, note=57, velocity=0, time=9),
    Message('note_on', channel=3, note=50, velocity=95, time=25),
    Message('note_on', channel=3, note=50, velocity=0, time=18),
    Message('note_on', channel=3, note=62, velocity=95, time=30),
    Message('note_on', channel=3, note=54, velocity=95, time=0),
    Message('note_on', channel=3, note=57, velocity=95, time=0),
    Message('note_on', channel=3, note=62, velocity=0, time=19),
    Message('note_on', channel=3, note=57, velocity=0, time=6),
    Message('note_on', channel=3, note=54, velocity=0, time=0),
    Message('note_on', channel=3, note=62, velocity=95, time=23),
    Message('note_on', channel=3, note=54, velocity=95, time=0),
    Message('note_on', channel=3, note=57, velocity=95, time=0),
    Message('note_on', channel=3, note=57, velocity=0, time=30),
    Message('note_on', channel=3, note=54, velocity=0, time=0),
    Message('note_on', channel=3, note=62, velocity=0, time=0),
    Message('control_change', channel=3, control=64, value=0, time=8),
    Message('control_change', channel=3, control=64, value=127, time=21),
    Message('note_on', channel=3, note=57, velocity=95, time=37),
    Message('note_on', channel=3, note=60, velocity=95, time=0),
    Message('note_on', channel=3, note=64, velocity=95, time=0),
    Message('note_on', channel=3, note=45, velocity=95, time=0),
    Message('note_on', channel=3, note=57, velocity=0, time=16),
    Message('note_on', channel=3, note=60, velocity=0, time=1),
    Message('note_on', channel=3, note=64, velocity=0, time=2),
    Message('note_on', channel=3, note=45, velocity=0, time=11),
    Message('note_on', channel=3, note=45, velocity=95, time=66),
    Message('note_on', channel=3, note=57, velocity=95, time=0),
    Message('note_on', channel=3, note=60, velocity=95, time=0),
    Message('note_on', channel=3, note=64, velocity=95, time=0),
    Message('note_on', channel=3, note=60, velocity=0, time=14),
    Message('note_on', channel=3, note=57, velocity=0, time=0),
    Message('note_on', channel=3, note=64, velocity=0, time=2),
    Message('note_on', channel=3, note=45, velocity=0, time=3),
    Message('note_on', channel=3, note=45, velocity=95, time=77),
    Message('note_on', channel=3, note=57, velocity=95, time=0),
    Message('note_on', channel=3, note=64, velocity=95, time=0),
    Message('note_on', channel=3, note=60, velocity=95, time=0),
    Message('note_on', channel=3, note=60, velocity=0, time=14),
    Message('note_on', channel=3, note=57, velocity=0, time=0),
    Message('note_on', channel=3, note=45, velocity=0, time=2),
    Message('note_on', channel=3, note=64, velocity=0, time=1),
    Message('control_change', channel=3, control=64, value=0, time=61),
    Message('note_on', channel=3, note=52, velocity=95, time=66),
    Message('note_on', channel=3, note=40, velocity=95, time=0),
    Message('note_on', channel=3, note=55, velocity=95, time=0),
    Message('note_on', channel=3, note=59, velocity=95, time=0),
    Message('note_on', channel=3, note=52, velocity=0, time=70),
    Message('note_on', channel=3, note=59, velocity=0, time=2),
    Message('note_on', channel=3, note=55, velocity=0, time=0),
    Message('control_change', channel=3, control=64, value=127, time=1),
    Message('note_off', channel=3, note=40, velocity=0, time=19),
    Message('note_on', channel=3, note=52, velocity=95, time=4),
    Message('note_on', channel=3, note=59, velocity=95, time=0),
    Message('note_on', channel=3, note=55, velocity=95, time=0),
    Message('note_on', channel=3, note=55, velocity=0, time=14),
    Message('note_on', channel=3, note=52, velocity=0, time=1),
    Message('note_on', channel=3, note=59, velocity=0, time=2),
    Message('note_on', channel=3, note=52, velocity=84, time=31),
    Message('note_on', channel=3, note=59, velocity=95, time=0),
    Message('note_on', channel=3, note=55, velocity=95, time=0),
    Message('note_on', channel=3, note=52, velocity=0, time=10),
    Message('note_on', channel=3, note=55, velocity=0, time=1),
    Message('note_on', channel=3, note=59, velocity=0, time=1),
    Message('note_on', channel=3, note=40, velocity=95, time=12),
    Message('note_on', channel=3, note=40, velocity=0, time=14),
    Message('note_on', channel=3, note=55, velocity=95, time=10),
    Message('note_on', channel=3, note=52, velocity=95, time=0),
    Message('note_on', channel=3, note=59, velocity=95, time=0),
    Message('note_on', channel=3, note=55, velocity=0, time=32),
    Message('note_on', channel=3, note=52, velocity=0, time=3),
    Message('note_on', channel=3, note=59, velocity=0, time=1),
    Message('note_on', channel=3, note=40, velocity=95, time=12),
    Message('note_on', channel=3, note=40, velocity=0, time=16),
    Message('note_on', channel=3, note=52, velocity=95, time=32),
    Message('note_on', channel=3, note=59, velocity=95, time=0),
    Message('note_on', channel=3, note=55, velocity=95, time=0),
    Message('note_on', channel=3, note=55, velocity=0, time=14),
    Message('note_on', channel=3, note=52, velocity=0, time=1),
    Message('note_on', channel=3, note=59, velocity=0, time=1),
    Message('note_on', channel=3, note=52, velocity=95, time=32),
    Message('note_on', channel=3, note=59, velocity=95, time=0),
    Message('note_on', channel=3, note=55, velocity=95, time=0),
    Message('note_on', channel=3, note=52, velocity=0, time=11),
    Message('note_on', channel=3, note=55, velocity=0, time=2),
    Message('note_on', channel=3, note=59, velocity=0, time=1),
    Message('note_on', channel=3, note=43, velocity=95, time=34),
    Message('control_change', channel=3, control=64, value=0, time=4),
    Message('control_change', channel=3, control=64, value=127, time=30),
    Message('note_on', channel=3, note=55, velocity=95, time=14),
    Message('note_on', channel=3, note=59, velocity=95, time=0),
    Message('note_on', channel=3, note=62, velocity=95, time=0),
    Message('note_on', channel=3, note=43, velocity=0, time=14),
    Message('note_on', channel=3, note=55, velocity=0, time=2),
    Message('note_on', channel=3, note=59, velocity=0, time=0),
    Message('note_on', channel=3, note=62, velocity=0, time=3),
    Message('note_on', channel=3, note=62, velocity=95, time=77),
    Message('note_on', channel=3, note=55, velocity=95, time=0),
    Message('note_on', channel=3, note=59, velocity=95, time=0),
    Message('note_on', channel=3, note=59, velocity=0, time=13),
    Message('note_on', channel=3, note=55, velocity=0, time=1),
    Message('note_on', channel=3, note=62, velocity=0, time=0),
    Message('note_on', channel=3, note=59, velocity=84, time=34),
    Message('note_on', channel=3, note=59, velocity=0, time=7),
    Message('note_on', channel=3, note=43, velocity=95, time=41),
    Message('note_on', channel=3, note=43, velocity=0, time=25),
    Message('note_on', channel=3, note=59, velocity=95, time=23),
    Message('note_on', channel=3, note=55, velocity=95, time=0),
    Message('note_on', channel=3, note=62, velocity=95, time=0),
    Message('note_on', channel=3, note=55, velocity=0, time=14),
    Message('note_on', channel=3, note=59, velocity=0, time=0),
    Message('note_on', channel=3, note=62, velocity=0, time=4),
    Message('control_change', channel=3, control=64, value=0, time=71),
    Message('note_on', channel=3, note=50, velocity=95, time=7),
    Message('note_on', channel=3, note=62, velocity=95, time=0),
    Message('note_on', channel=3, note=54, velocity=95, time=0),
    Message('note_on', channel=3, note=57, velocity=95, time=0),
    Message('control_change', channel=3, control=64, value=127, time=24),
    Message('note_off', channel=3, note=62, velocity=0, time=35),
    Message('note_off', channel=3, note=54, velocity=0, time=3),
    Message('note_off', channel=3, note=57, velocity=0, time=3),
    Message('note_off', channel=3, note=50, velocity=0, time=5),
    Message('note_on', channel=3, note=54, velocity=95, time=26),
    Message('note_on', channel=3, note=62, velocity=95, time=0),
    Message('note_on', channel=3, note=57, velocity=95, time=0),
    Message('note_on', channel=3, note=54, velocity=0, time=19),
    Message('note_on', channel=3, note=57, velocity=0, time=2),
    Message('note_on', channel=3, note=62, velocity=0, time=1),
    Message('note_on', channel=3, note=62, velocity=95, time=26),
    Message('note_on', channel=3, note=54, velocity=95, time=0),
    Message('note_on', channel=3, note=57, velocity=95, time=0),
    Message('note_on', channel=3, note=62, velocity=0, time=31),
    Message('note_on', channel=3, note=57, velocity=0, time=2),
    Message('note_on', channel=3, note=54, velocity=0, time=1),
    Message('note_on', channel=3, note=50, velocity=95, time=14),
    Message('note_on', channel=3, note=50, velocity=0, time=22),
    Message('note_on', channel=3, note=62, velocity=95, time=26),
    Message('note_on', channel=3, note=54, velocity=95, time=0),
    Message('note_on', channel=3, note=57, velocity=95, time=0),
    Message('note_on', channel=3, note=62, velocity=0, time=20),
    Message('note_on', channel=3, note=57, velocity=0, time=6),
    Message('note_on', channel=3, note=54, velocity=0, time=2),
    Message('note_on', channel=3, note=62, velocity=95, time=20),
    Message('note_on', channel=3, note=54, velocity=95, time=0),
    Message('note_on', channel=3, note=57, velocity=95, time=0),
    Message('note_on', channel=3, note=57, velocity=0, time=20),
    Message('note_on', channel=3, note=54, velocity=0, time=0),
    Message('note_on', channel=3, note=62, velocity=0, time=2),
    Message('note_on', channel=3, note=57, velocity=95, time=74),
    Message('note_on', channel=3, note=64, velocity=95, time=0),
    Message('note_on', channel=3, note=61, velocity=95, time=0),
    Message('note_on', channel=3, note=45, velocity=95, time=0),
    Message('control_change', channel=3, control=64, value=0, time=4),
    Message('note_off', channel=3, note=57, velocity=0, time=20),
    Message('note_off', channel=3, note=64, velocity=0, time=4),
    Message('note_off', channel=3, note=61, velocity=0, time=1),
    Message('control_change', channel=3, control=64, value=127, time=1),
    Message('note_on', channel=3, note=57, velocity=60, time=18),
    Message('note_on', channel=3, note=61, velocity=61, time=0),
    Message('note_on', channel=3, note=45, velocity=0, time=8),
    Message('note_on', channel=3, note=61, velocity=0, time=2),
    Message('note_on', channel=3, note=57, velocity=0, time=1),
    Message('note_on', channel=3, note=52, velocity=95, time=13),
    Message('note_on', channel=3, note=52, velocity=0, time=20),
    Message('note_on', channel=3, note=57, velocity=95, time=4),
    Message('note_on', channel=3, note=61, velocity=95, time=0),
    Message('note_on', channel=3, note=64, velocity=95, time=0),
    Message('note_on', channel=3, note=61, velocity=0, time=17),
    Message('note_on', channel=3, note=57, velocity=0, time=1),
    Message('note_on', channel=3, note=64, velocity=0, time=3),
    Message('note_on', channel=3, note=45, velocity=95, time=27),
    Message('note_on', channel=3, note=61, velocity=95, time=48),
    Message('note_on', channel=3, note=55, velocity=95, time=0),
    Message('note_on', channel=3, note=64, velocity=95, time=0),
    Message('note_on', channel=3, note=45, velocity=0, time=2),
    Message('note_on', channel=3, note=61, velocity=0, time=14),
    Message('note_on', channel=3, note=55, velocity=0, time=3),
    Message('note_on', channel=3, note=64, velocity=0, time=1),
    Message('note_on', channel=3, note=61, velocity=95, time=28),
    Message('note_on', channel=3, note=55, velocity=95, time=0),
    Message('note_on', channel=3, note=64, velocity=95, time=0),
    Message('note_on', channel=3, note=61, velocity=0, time=46),
    Message('note_on', channel=3, note=55, velocity=0, time=1),
    Message('note_on', channel=3, note=45, velocity=95, time=1),
    Message('note_on', channel=3, note=64, velocity=0, time=1),
    Message('note_on', channel=3, note=45, velocity=0, time=27),
    Message('note_on', channel=3, note=55, velocity=95, time=20),
    Message('note_on', channel=3, note=61, velocity=95, time=0),
    Message('note_on', channel=3, note=64, velocity=95, time=0),
    Message('note_on', channel=3, note=61, velocity=0, time=17),
    Message('note_on', channel=3, note=55, velocity=0, time=0),
    Message('note_on', channel=3, note=64, velocity=0, time=5),
    Message('control_change', channel=3, control=64, value=0, time=24),
    Message('note_on', channel=3, note=59, velocity=95, time=2),
    Message('note_on', channel=3, note=55, velocity=95, time=0),
    Message('note_on', channel=3, note=52, velocity=95, time=0),
    Message('control_change', channel=3, control=64, value=127, time=29),
    Message('note_off', channel=3, note=59, velocity=0, time=44),
    Message('note_off', channel=3, note=55, velocity=0, time=11),
    Message('note_off', channel=3, note=52, velocity=0, time=2),
    Message('note_on', channel=3, note=64, velocity=95, time=10),
    Message('note_on', channel=3, note=67, velocity=95, time=0),
    Message('note_on', channel=3, note=64, velocity=0, time=23),
    Message('note_on', channel=3, note=67, velocity=0, time=3),
    Message('note_on', channel=3, note=55, velocity=95, time=22),
    Message('note_on', channel=3, note=52, velocity=95, time=0),
    Message('note_on', channel=3, note=59, velocity=95, time=0),
    Message('note_on', channel=3, note=55, velocity=0, time=15),
    Message('note_on', channel=3, note=52, velocity=0, time=1),
    Message('note_on', channel=3, note=59, velocity=0, time=2),
    Message('note_on', channel=3, note=64, velocity=95, time=30),
    Message('note_on', channel=3, note=67, velocity=95, time=0),
    Message('note_on', channel=3, note=67, velocity=0, time=16),
    Message('note_on', channel=3, note=64, velocity=0, time=1),
    Message('note_on', channel=3, note=55, velocity=95, time=31),
    Message('note_on', channel=3, note=59, velocity=95, time=0),
    Message('note_on', channel=3, note=52, velocity=95, time=0),
    Message('note_on', channel=3, note=59, velocity=0, time=16),
    Message('note_on', channel=3, note=55, velocity=0, time=0),
    Message('note_on', channel=3, note=52, velocity=0, time=3),
    Message('note_on', channel=3, note=64, velocity=95, time=29),
    Message('note_on', channel=3, note=67, velocity=95, time=0),
    Message('note_on', channel=3, note=64, velocity=0, time=16),
    Message('note_on', channel=3, note=67, velocity=0, time=4),
    Message('note_on', channel=3, note=64, velocity=95, time=28),
    Message('note_on', channel=3, note=67, velocity=95, time=0),
    Message('note_on', channel=3, note=64, velocity=0, time=17),
    Message('note_on', channel=3, note=67, velocity=0, time=1),
    Message('note_on', channel=3, note=43, velocity=95, time=30),
    Message('control_change', channel=3, control=64, value=0, time=4),
    Message('control_change', channel=3, control=64, value=127, time=22),
    Message('note_on', channel=3, note=55, velocity=95, time=22),
    Message('note_on', channel=3, note=59, velocity=95, time=0),
    Message('note_on', channel=3, note=62, velocity=95, time=0),
    Message('note_on', channel=3, note=43, velocity=0, time=2),
    Message('note_on', channel=3, note=59, velocity=0, time=17),
    Message('note_on', channel=3, note=55, velocity=0, time=1),
    Message('note_on', channel=3, note=62, velocity=0, time=1),
    Message('note_on', channel=3, note=62, velocity=95, time=27),
    Message('note_on', channel=3, note=55, velocity=95, time=0),
    Message('note_on', channel=3, note=59, velocity=95, time=0),
    Message('note_on', channel=3, note=62, velocity=0, time=11),
    Message('note_on', channel=3, note=59, velocity=0, time=2),
    Message('note_on', channel=3, note=55, velocity=0, time=0),
    Message('note_on', channel=3, note=62, velocity=95, time=35),
    Message('note_on', channel=3, note=55, velocity=95, time=0),
    Message('note_on', channel=3, note=59, velocity=95, time=0),
    Message('note_on', channel=3, note=59, velocity=0, time=18),
    Message('note_on', channel=3, note=55, velocity=0, time=0),
    Message('note_on', channel=3, note=62, velocity=0, time=2),
    Message('note_on', channel=3, note=43, velocity=95, time=28),
    Message('note_on', channel=3, note=43, velocity=0, time=22),
    Message('note_on', channel=3, note=59, velocity=95, time=26),
    Message('note_on', channel=3, note=55, velocity=95, time=0),
    Message('note_on', channel=3, note=62, velocity=95, time=0),
    Message('note_on', channel=3, note=59, velocity=0, time=13),
    Message('note_on', channel=3, note=55, velocity=0, time=3),
    Message('note_on', channel=3, note=62, velocity=0, time=3),
    Message('note_on', channel=3, note=55, velocity=95, time=29),
    Message('note_on', channel=3, note=62, velocity=95, time=0),
    Message('note_on', channel=3, note=59, velocity=95, time=0),
    Message('note_on', channel=3, note=55, velocity=0, time=14),
    Message('note_on', channel=3, note=59, velocity=0, time=1),
    Message('note_on', channel=3, note=62, velocity=0, time=1),
    Message('note_on', channel=3, note=62, velocity=95, time=80),
    Message('note_on', channel=3, note=54, velocity=95, time=0),
    Message('note_on', channel=3, note=50, velocity=95, time=0),
    Message('note_on', channel=3, note=57, velocity=95, time=0),
    Message('control_change', channel=3, control=64, value=0, time=0),
    Message('control_change', channel=3, control=64, value=127, time=34),
    Message('note_off', channel=3, note=62, velocity=0, time=27),
    Message('note_off', channel=3, note=54, velocity=0, time=3),
    Message('note_off', channel=3, note=57, velocity=0, time=1),
    Message('note_off', channel=3, note=50, velocity=0, time=16),
    Message('note_on', channel=3, note=54, velocity=88, time=15),
    Message('note_on', channel=3, note=62, velocity=95, time=0),
    Message('note_on', channel=3, note=57, velocity=95, time=0),
    Message('note_on', channel=3, note=62, velocity=0, time=20),
    Message('note_on', channel=3, note=57, velocity=0, time=2),
    Message('note_on', channel=3, note=54, velocity=0, time=0),
    Message('note_on', channel=3, note=54, velocity=95, time=26),
    Message('note_on', channel=3, note=62, velocity=95, time=0),
    Message('note_on', channel=3, note=57, velocity=95, time=0),
    Message('note_on', channel=3, note=54, velocity=0, time=40),
    Message('note_on', channel=3, note=57, velocity=0, time=4),
    Message('note_on', channel=3, note=62, velocity=0, time=1),
    Message('note_on', channel=3, note=50, velocity=95, time=3),
    Message('note_on', channel=3, note=50, velocity=0, time=20),
    Message('note_on', channel=3, note=54, velocity=88, time=28),
    Message('note_on', channel=3, note=57, velocity=95, time=0),
    Message('note_on', channel=3, note=62, velocity=95, time=0),
    Message('note_on', channel=3, note=62, velocity=0, time=24),
    Message('note_on', channel=3, note=57, velocity=0, time=2),
    Message('note_on', channel=3, note=54, velocity=0, time=1),
    Message('note_on', channel=3, note=62, velocity=95, time=21),
    Message('note_on', channel=3, note=57, velocity=95, time=0),
    Message('note_on', channel=3, note=54, velocity=95, time=0),
    Message('note_on', channel=3, note=57, velocity=0, time=22),
    Message('note_on', channel=3, note=54, velocity=0, time=2),
    Message('note_on', channel=3, note=62, velocity=0, time=2),
    Message('control_change', channel=3, control=64, value=0, time=68),
    Message('note_on', channel=3, note=57, velocity=95, time=2),
    Message('note_on', channel=3, note=64, velocity=95, time=0),
    Message('note_on', channel=3, note=61, velocity=95, time=0),
    Message('note_on', channel=3, note=45, velocity=95, time=0),
    Message('note_on', channel=3, note=52, velocity=95, time=0),
    Message('note_on', channel=3, note=61, velocity=0, time=26),
    Message('note_on', channel=3, note=57, velocity=0, time=0),
    Message('note_on', channel=3, note=64, velocity=0, time=0),
    Message('control_change', channel=3, control=64, value=127, time=4),
    Message('note_off', channel=3, note=52, velocity=0, time=15),
    Message('note_off', channel=3, note=45, velocity=0, time=7),
    Message('note_on', channel=3, note=52, velocity=95, time=20),
    Message('note_on', channel=3, note=45, velocity=95, time=0),
    Message('note_on', channel=3, note=52, velocity=0, time=15),
    Message('note_on', channel=3, note=45, velocity=0, time=1),
    Message('note_on', channel=3, note=61, velocity=95, time=8),
    Message('note_on', channel=3, note=64, velocity=95, time=0),
    Message('note_on', channel=3, note=57, velocity=95, time=0),
    Message('note_on', channel=3, note=61, velocity=0, time=18),
    Message('note_on', channel=3, note=64, velocity=0, time=2),
    Message('note_on', channel=3, note=57, velocity=0, time=3),
    Message('note_on', channel=3, note=45, velocity=95, time=25),
    Message('note_on', channel=3, note=52, velocity=95, time=0),
    Message('note_on', channel=3, note=52, velocity=0, time=20),
    Message('note_on', channel=3, note=45, velocity=0, time=4),
    Message('note_on', channel=3, note=57, velocity=95, time=24),
    Message('note_on', channel=3, note=64, velocity=95, time=0),
    Message('note_on', channel=3, note=57, velocity=0, time=17),
    Message('note_on', channel=3, note=64, velocity=0, time=1),
    Message('note_on', channel=3, note=57, velocity=95, time=30),
    Message('note_on', channel=3, note=64, velocity=95, time=0),
    Message('note_on', channel=3, note=45, velocity=95, time=0),
    Message('note_on', channel=3, note=52, velocity=95, time=0),
    Message('note_on', channel=3, note=57, velocity=0, time=14),
    Message('note_on', channel=3, note=64, velocity=0, time=3),
    Message('note_on', channel=3, note=45, velocity=0, time=1),
    Message('note_on', channel=3, note=52, velocity=0, time=0),
    Message('note_on', channel=3, note=45, velocity=95, time=30),
    Message('note_on', channel=3, note=52, velocity=95, time=0),
    Message('note_on', channel=3, note=57, velocity=95, time=0),
    Message('note_on', channel=3, note=64, velocity=95, time=0),
    Message('note_on', channel=3, note=57, velocity=0, time=15),
    Message('note_on', channel=3, note=52, velocity=0, time=0),
    Message('note_on', channel=3, note=45, velocity=0, time=3),
    Message('note_on', channel=3, note=64, velocity=0, time=1),
    Message('note_on', channel=3, note=57, velocity=95, time=29),
    Message('note_on', channel=3, note=45, velocity=95, time=0),
    Message('note_on', channel=3, note=64, velocity=95, time=0),
    Message('note_on', channel=3, note=52, velocity=95, time=0),
    Message('note_on', channel=3, note=45, velocity=0, time=12),
    Message('note_on', channel=3, note=57, velocity=0, time=1),
    Message('note_on', channel=3, note=52, velocity=0, time=1),
    Message('note_on', channel=3, note=64, velocity=0, time=1),
    Message('control_change', channel=3, control=64, value=0, time=12),
    Message('note_on', channel=3, note=52, velocity=95, time=21),
    Message('note_on', channel=3, note=40, velocity=95, time=0),
    Message('note_on', channel=3, note=55, velocity=95, time=0),
    Message('note_on', channel=3, note=59, velocity=95, time=0),
    Message('note_on', channel=3, note=52, velocity=0, time=70),
    Message('note_on', channel=3, note=59, velocity=0, time=2),
    Message('note_on', channel=3, note=55, velocity=0, time=0),
    Message('control_change', channel=3, control=64, value=127, time=1),
    Message('note_off', channel=3, note=40, velocity=0, time=19),
    Message('note_on', channel=3, note=52, velocity=95, time=4),
    Message('note_on', channel=3, note=59, velocity=95, time=0),
    Message('note_on', channel=3, note=55, velocity=95, time=0),
    Message('note_on', channel=3, note=55, velocity=0, time=14),
    Message('note_on', channel=3, note=52, velocity=0, time=1),
    Message('note_on', channel=3, note=59, velocity=0, time=2),
    Message('note_on', channel=3, note=52, velocity=84, time=31),
    Message('note_on', channel=3, note=59, velocity=95, time=0),
    Message('note_on', channel=3, note=55, velocity=95, time=0),
    Message('note_on', channel=3, note=52, velocity=0, time=10),
    Message('note_on', channel=3, note=55, velocity=0, time=1),
    Message('note_on', channel=3, note=59, velocity=0, time=1),
    Message('note_on', channel=3, note=40, velocity=95, time=12),
    Message('note_on', channel=3, note=40, velocity=0, time=14),
    Message('note_on', channel=3, note=55, velocity=95, time=10),
    Message('note_on', channel=3, note=52, velocity=95, time=0),
    Message('note_on', channel=3, note=59, velocity=95, time=0),
    Message('note_on', channel=3, note=55, velocity=0, time=32),
    Message('note_on', channel=3, note=52, velocity=0, time=3),
    Message('note_on', channel=3, note=59, velocity=0, time=1),
    Message('note_on', channel=3, note=40, velocity=95, time=12),
    Message('note_on', channel=3, note=40, velocity=0, time=16),
    Message('note_on', channel=3, note=52, velocity=95, time=32),
    Message('note_on', channel=3, note=59, velocity=95, time=0),
    Message('note_on', channel=3, note=55, velocity=95, time=0),
    Message('note_on', channel=3, note=55, velocity=0, time=14),
    Message('note_on', channel=3, note=52, velocity=0, time=1),
    Message('note_on', channel=3, note=59, velocity=0, time=1),
    Message('note_on', channel=3, note=52, velocity=95, time=32),
    Message('note_on', channel=3, note=59, velocity=95, time=0),
    Message('note_on', channel=3, note=55, velocity=95, time=0),
    Message('note_on', channel=3, note=52, velocity=0, time=11),
    Message('note_on', channel=3, note=55, velocity=0, time=2),
    Message('note_on', channel=3, note=59, velocity=0, time=1),
    Message('note_on', channel=3, note=43, velocity=95, time=34),
    Message('control_change', channel=3, control=64, value=0, time=4),
    Message('control_change', channel=3, control=64, value=127, time=30),
    Message('note_on', channel=3, note=55, velocity=95, time=14),
    Message('note_on', channel=3, note=59, velocity=95, time=0),
    Message('note_on', channel=3, note=62, velocity=95, time=0),
    Message('note_on', channel=3, note=43, velocity=0, time=14),
    Message('note_on', channel=3, note=55, velocity=0, time=2),
    Message('note_on', channel=3, note=59, velocity=0, time=0),
    Message('note_on', channel=3, note=62, velocity=0, time=3),
    Message('note_on', channel=3, note=62, velocity=95, time=77),
    Message('note_on', channel=3, note=55, velocity=95, time=0),
    Message('note_on', channel=3, note=59, velocity=95, time=0),
    Message('note_on', channel=3, note=59, velocity=0, time=13),
    Message('note_on', channel=3, note=55, velocity=0, time=1),
    Message('note_on', channel=3, note=62, velocity=0, time=0),
    Message('note_on', channel=3, note=59, velocity=84, time=34),
    Message('note_on', channel=3, note=59, velocity=0, time=7),
    Message('note_on', channel=3, note=43, velocity=95, time=41),
    Message('note_on', channel=3, note=43, velocity=0, time=25),
    Message('note_on', channel=3, note=59, velocity=95, time=23),
    Message('note_on', channel=3, note=55, velocity=95, time=0),
    Message('note_on', channel=3, note=62, velocity=95, time=0),
    Message('note_on', channel=3, note=55, velocity=0, time=14),
    Message('note_on', channel=3, note=59, velocity=0, time=0),
    Message('note_on', channel=3, note=62, velocity=0, time=4),
    Message('control_change', channel=3, control=64, value=0, time=71),
    Message('note_on', channel=3, note=50, velocity=95, time=7),
    Message('note_on', channel=3, note=62, velocity=95, time=0),
    Message('note_on', channel=3, note=54, velocity=95, time=0),
    Message('note_on', channel=3, note=57, velocity=95, time=0),
    Message('control_change', channel=3, control=64, value=127, time=24),
    Message('note_off', channel=3, note=62, velocity=0, time=35),
    Message('note_off', channel=3, note=54, velocity=0, time=3),
    Message('note_off', channel=3, note=57, velocity=0, time=3),
    Message('note_off', channel=3, note=50, velocity=0, time=5),
    Message('note_on', channel=3, note=54, velocity=95, time=26),
    Message('note_on', channel=3, note=62, velocity=95, time=0),
    Message('note_on', channel=3, note=57, velocity=95, time=0),
    Message('note_on', channel=3, note=54, velocity=0, time=19),
    Message('note_on', channel=3, note=57, velocity=0, time=2),
    Message('note_on', channel=3, note=62, velocity=0, time=1),
    Message('note_on', channel=3, note=62, velocity=95, time=26),
    Message('note_on', channel=3, note=54, velocity=95, time=0),
    Message('note_on', channel=3, note=57, velocity=95, time=0),
    Message('note_on', channel=3, note=62, velocity=0, time=31),
    Message('note_on', channel=3, note=57, velocity=0, time=2),
    Message('note_on', channel=3, note=54, velocity=0, time=1),
    Message('note_on', channel=3, note=50, velocity=95, time=14),
    Message('note_on', channel=3, note=50, velocity=0, time=22),
    Message('note_on', channel=3, note=62, velocity=95, time=26),
    Message('note_on', channel=3, note=54, velocity=95, time=0),
    Message('note_on', channel=3, note=57, velocity=95, time=0),
    Message('note_on', channel=3, note=62, velocity=0, time=20),
    Message('note_on', channel=3, note=57, velocity=0, time=6),
    Message('note_on', channel=3, note=54, velocity=0, time=2),
    Message('note_on', channel=3, note=62, velocity=95, time=20),
    Message('note_on', channel=3, note=54, velocity=95, time=0),
    Message('note_on', channel=3, note=57, velocity=95, time=0),
    Message('note_on', channel=3, note=57, velocity=0, time=20),
    Message('note_on', channel=3, note=54, velocity=0, time=0),
    Message('note_on', channel=3, note=62, velocity=0, time=2),
    Message('note_on', channel=3, note=57, velocity=95, time=74),
    Message('note_on', channel=3, note=64, velocity=95, time=0),
    Message('note_on', channel=3, note=61, velocity=95, time=0),
    Message('note_on', channel=3, note=45, velocity=95, time=0),
    Message('control_change', channel=3, control=64, value=0, time=4),
    Message('note_off', channel=3, note=57, velocity=0, time=20),
    Message('note_off', channel=3, note=64, velocity=0, time=4),
    Message('note_off', channel=3, note=61, velocity=0, time=1),
    Message('control_change', channel=3, control=64, value=127, time=1),
    Message('note_on', channel=3, note=57, velocity=60, time=18),
    Message('note_on', channel=3, note=61, velocity=61, time=0),
    Message('note_on', channel=3, note=45, velocity=0, time=8),
    Message('note_on', channel=3, note=61, velocity=0, time=2),
    Message('note_on', channel=3, note=57, velocity=0, time=1),
    Message('note_on', channel=3, note=52, velocity=95, time=13),
    Message('note_on', channel=3, note=52, velocity=0, time=20),
    Message('note_on', channel=3, note=57, velocity=95, time=4),
    Message('note_on', channel=3, note=61, velocity=95, time=0),
    Message('note_on', channel=3, note=64, velocity=95, time=0),
    Message('note_on', channel=3, note=61, velocity=0, time=17),
    Message('note_on', channel=3, note=57, velocity=0, time=1),
    Message('note_on', channel=3, note=64, velocity=0, time=3),
    Message('note_on', channel=3, note=45, velocity=95, time=27),
    Message('note_on', channel=3, note=61, velocity=95, time=48),
    Message('note_on', channel=3, note=55, velocity=95, time=0),
    Message('note_on', channel=3, note=64, velocity=95, time=0),
    Message('note_on', channel=3, note=45, velocity=0, time=2),
    Message('note_on', channel=3, note=61, velocity=0, time=14),
    Message('note_on', channel=3, note=55, velocity=0, time=3),
    Message('note_on', channel=3, note=64, velocity=0, time=1),
    Message('note_on', channel=3, note=61, velocity=95, time=28),
    Message('note_on', channel=3, note=55, velocity=95, time=0),
    Message('note_on', channel=3, note=64, velocity=95, time=0),
    Message('note_on', channel=3, note=61, velocity=0, time=46),
    Message('note_on', channel=3, note=55, velocity=0, time=1),
    Message('note_on', channel=3, note=45, velocity=95, time=1),
    Message('note_on', channel=3, note=64, velocity=0, time=1),
    Message('note_on', channel=3, note=45, velocity=0, time=27),
    Message('note_on', channel=3, note=55, velocity=95, time=20),
    Message('note_on', channel=3, note=61, velocity=95, time=0),
    Message('note_on', channel=3, note=64, velocity=95, time=0),
    Message('note_on', channel=3, note=61, velocity=0, time=17),
    Message('note_on', channel=3, note=55, velocity=0, time=0),
    Message('note_on', channel=3, note=64, velocity=0, time=5),
    Message('control_change', channel=3, control=64, value=0, time=24),
    Message('note_on', channel=3, note=59, velocity=95, time=2),
    Message('note_on', channel=3, note=55, velocity=95, time=0),
    Message('note_on', channel=3, note=52, velocity=95, time=0),
    Message('control_change', channel=3, control=64, value=127, time=29),
    Message('note_off', channel=3, note=59, velocity=0, time=44),
    Message('note_off', channel=3, note=55, velocity=0, time=11),
    Message('note_off', channel=3, note=52, velocity=0, time=2),
    Message('note_on', channel=3, note=64, velocity=95, time=10),
    Message('note_on', channel=3, note=67, velocity=95, time=0),
    Message('note_on', channel=3, note=64, velocity=0, time=23),
    Message('note_on', channel=3, note=67, velocity=0, time=3),
    Message('note_on', channel=3, note=55, velocity=95, time=22),
    Message('note_on', channel=3, note=52, velocity=95, time=0),
    Message('note_on', channel=3, note=59, velocity=95, time=0),
    Message('note_on', channel=3, note=55, velocity=0, time=15),
    Message('note_on', channel=3, note=52, velocity=0, time=1),
    Message('note_on', channel=3, note=59, velocity=0, time=2),
    Message('note_on', channel=3, note=64, velocity=95, time=30),
    Message('note_on', channel=3, note=67, velocity=95, time=0),
    Message('note_on', channel=3, note=67, velocity=0, time=16),
    Message('note_on', channel=3, note=64, velocity=0, time=1),
    Message('note_on', channel=3, note=55, velocity=95, time=31),
    Message('note_on', channel=3, note=59, velocity=95, time=0),
    Message('note_on', channel=3, note=52, velocity=95, time=0),
    Message('note_on', channel=3, note=59, velocity=0, time=16),
    Message('note_on', channel=3, note=55, velocity=0, time=0),
    Message('note_on', channel=3, note=52, velocity=0, time=3),
    Message('note_on', channel=3, note=64, velocity=95, time=29),
    Message('note_on', channel=3, note=67, velocity=95, time=0),
    Message('note_on', channel=3, note=64, velocity=0, time=16),
    Message('note_on', channel=3, note=67, velocity=0, time=4),
    Message('note_on', channel=3, note=64, velocity=95, time=28),
    Message('note_on', channel=3, note=67, velocity=95, time=0),
    Message('note_on', channel=3, note=64, velocity=0, time=17),
    Message('note_on', channel=3, note=67, velocity=0, time=1),
    Message('note_on', channel=3, note=43, velocity=95, time=30),
    Message('control_change', channel=3, control=64, value=0, time=4),
    Message('control_change', channel=3, control=64, value=127, time=22),
    Message('note_on', channel=3, note=55, velocity=95, time=22),
    Message('note_on', channel=3, note=59, velocity=95, time=0),
    Message('note_on', channel=3, note=62, velocity=95, time=0),
    Message('note_on', channel=3, note=43, velocity=0, time=2),
    Message('note_on', channel=3, note=59, velocity=0, time=17),
    Message('note_on', channel=3, note=55, velocity=0, time=1),
    Message('note_on', channel=3, note=62, velocity=0, time=1),
    Message('note_on', channel=3, note=62, velocity=95, time=27),
    Message('note_on', channel=3, note=55, velocity=95, time=0),
    Message('note_on', channel=3, note=59, velocity=95, time=0),
    Message('note_on', channel=3, note=62, velocity=0, time=11),
    Message('note_on', channel=3, note=59, velocity=0, time=2),
    Message('note_on', channel=3, note=55, velocity=0, time=0),
    Message('note_on', channel=3, note=62, velocity=95, time=35),
    Message('note_on', channel=3, note=55, velocity=95, time=0),
    Message('note_on', channel=3, note=59, velocity=95, time=0),
    Message('note_on', channel=3, note=59, velocity=0, time=18),
    Message('note_on', channel=3, note=55, velocity=0, time=0),
    Message('note_on', channel=3, note=62, velocity=0, time=2),
    Message('note_on', channel=3, note=43, velocity=95, time=28),
    Message('note_on', channel=3, note=43, velocity=0, time=22),
    Message('note_on', channel=3, note=59, velocity=95, time=26),
    Message('note_on', channel=3, note=55, velocity=95, time=0),
    Message('note_on', channel=3, note=62, velocity=95, time=0),
    Message('note_on', channel=3, note=59, velocity=0, time=13),
    Message('note_on', channel=3, note=55, velocity=0, time=3),
    Message('note_on', channel=3, note=62, velocity=0, time=3),
    Message('note_on', channel=3, note=55, velocity=95, time=29),
    Message('note_on', channel=3, note=62, velocity=95, time=0),
    Message('note_on', channel=3, note=59, velocity=95, time=0),
    Message('note_on', channel=3, note=55, velocity=0, time=14),
    Message('note_on', channel=3, note=59, velocity=0, time=1),
    Message('note_on', channel=3, note=62, velocity=0, time=1),
    Message('note_on', channel=3, note=62, velocity=95, time=80),
    Message('note_on', channel=3, note=54, velocity=95, time=0),
    Message('note_on', channel=3, note=50, velocity=95, time=0),
    Message('note_on', channel=3, note=57, velocity=95, time=0),
    Message('control_change', channel=3, control=64, value=0, time=0),
    Message('control_change', channel=3, control=64, value=127, time=34),
    Message('note_off', channel=3, note=62, velocity=0, time=27),
    Message('note_off', channel=3, note=54, velocity=0, time=3),
    Message('note_off', channel=3, note=57, velocity=0, time=1),
    Message('note_off', channel=3, note=50, velocity=0, time=16),
    Message('note_on', channel=3, note=54, velocity=88, time=15),
    Message('note_on', channel=3, note=62, velocity=95, time=0),
    Message('note_on', channel=3, note=57, velocity=95, time=0),
    Message('note_on', channel=3, note=62, velocity=0, time=20),
    Message('note_on', channel=3, note=57, velocity=0, time=2),
    Message('note_on', channel=3, note=54, velocity=0, time=0),
    Message('note_on', channel=3, note=54, velocity=95, time=26),
    Message('note_on', channel=3, note=62, velocity=95, time=0),
    Message('note_on', channel=3, note=57, velocity=95, time=0),
    Message('note_on', channel=3, note=54, velocity=0, time=40),
    Message('note_on', channel=3, note=57, velocity=0, time=4),
    Message('note_on', channel=3, note=62, velocity=0, time=1),
    Message('note_on', channel=3, note=50, velocity=95, time=3),
    Message('note_on', channel=3, note=50, velocity=0, time=20),
    Message('note_on', channel=3, note=54, velocity=88, time=28),
    Message('note_on', channel=3, note=57, velocity=95, time=0),
    Message('note_on', channel=3, note=62, velocity=95, time=0),
    Message('note_on', channel=3, note=62, velocity=0, time=24),
    Message('note_on', channel=3, note=57, velocity=0, time=2),
    Message('note_on', channel=3, note=54, velocity=0, time=1),
    Message('note_on', channel=3, note=62, velocity=95, time=21),
    Message('note_on', channel=3, note=57, velocity=95, time=0),
    Message('note_on', channel=3, note=54, velocity=95, time=0),
    Message('note_on', channel=3, note=57, velocity=0, time=22),
    Message('note_on', channel=3, note=54, velocity=0, time=2),
    Message('note_on', channel=3, note=62, velocity=0, time=2),
    Message('control_change', channel=3, control=64, value=0, time=68),
    Message('note_on', channel=3, note=57, velocity=95, time=2),
    Message('note_on', channel=3, note=64, velocity=95, time=0),
    Message('note_on', channel=3, note=61, velocity=95, time=0),
    Message('note_on', channel=3, note=45, velocity=95, time=0),
    Message('note_on', channel=3, note=52, velocity=95, time=0),
    Message('note_on', channel=3, note=61, velocity=0, time=26),
    Message('note_on', channel=3, note=57, velocity=0, time=0),
    Message('note_on', channel=3, note=64, velocity=0, time=0),
    Message('control_change', channel=3, control=64, value=127, time=4),
    Message('note_off', channel=3, note=52, velocity=0, time=15),
    Message('note_off', channel=3, note=45, velocity=0, time=7),
    Message('note_on', channel=3, note=52, velocity=95, time=20),
    Message('note_on', channel=3, note=45, velocity=95, time=0),
    Message('note_on', channel=3, note=52, velocity=0, time=15),
    Message('note_on', channel=3, note=45, velocity=0, time=1),
    Message('note_on', channel=3, note=61, velocity=95, time=8),
    Message('note_on', channel=3, note=64, velocity=95, time=0),
    Message('note_on', channel=3, note=57, velocity=95, time=0),
    Message('note_on', channel=3, note=61, velocity=0, time=18),
    Message('note_on', channel=3, note=64, velocity=0, time=2),
    Message('note_on', channel=3, note=57, velocity=0, time=3),
    Message('note_on', channel=3, note=45, velocity=95, time=25),
    Message('note_on', channel=3, note=52, velocity=95, time=0),
    Message('note_on', channel=3, note=52, velocity=0, time=20),
    Message('note_on', channel=3, note=45, velocity=0, time=4),
    Message('note_on', channel=3, note=57, velocity=95, time=24),
    Message('note_on', channel=3, note=64, velocity=95, time=0),
    Message('note_on', channel=3, note=57, velocity=0, time=17),
    Message('note_on', channel=3, note=64, velocity=0, time=1),
    Message('note_on', channel=3, note=57, velocity=95, time=30),
    Message('note_on', channel=3, note=64, velocity=95, time=0),
    Message('note_on', channel=3, note=45, velocity=95, time=0),
    Message('note_on', channel=3, note=52, velocity=95, time=0),
    Message('note_on', channel=3, note=57, velocity=0, time=14),
    Message('note_on', channel=3, note=64, velocity=0, time=3),
    Message('note_on', channel=3, note=45, velocity=0, time=1),
    Message('note_on', channel=3, note=52, velocity=0, time=0),
    Message('note_on', channel=3, note=45, velocity=95, time=30),
    Message('note_on', channel=3, note=52, velocity=95, time=0),
    Message('note_on', channel=3, note=57, velocity=95, time=0),
    Message('note_on', channel=3, note=64, velocity=95, time=0),
    Message('note_on', channel=3, note=57, velocity=0, time=15),
    Message('note_on', channel=3, note=52, velocity=0, time=0),
    Message('note_on', channel=3, note=45, velocity=0, time=3),
    Message('note_on', channel=3, note=64, velocity=0, time=1),
    Message('note_on', channel=3, note=57, velocity=95, time=29),
    Message('note_on', channel=3, note=45, velocity=95, time=0),
    Message('note_on', channel=3, note=64, velocity=95, time=0),
    Message('note_on', channel=3, note=52, velocity=95, time=0),
    Message('note_on', channel=3, note=45, velocity=0, time=12),
    Message('note_on', channel=3, note=57, velocity=0, time=1),
    Message('note_on', channel=3, note=52, velocity=0, time=1),
    Message('note_on', channel=3, note=64, velocity=0, time=1),
    Message('control_change', channel=3, control=64, value=0, time=12),
    Message('note_on', channel=3, note=52, velocity=95, time=21),
    Message('note_on', channel=3, note=40, velocity=95, time=0),
    Message('note_on', channel=3, note=55, velocity=95, time=0),
    Message('note_on', channel=3, note=59, velocity=95, time=0),
    Message('note_on', channel=3, note=52, velocity=0, time=70),
    Message('note_on', channel=3, note=59, velocity=0, time=2),
    Message('note_on', channel=3, note=55, velocity=0, time=0),
    Message('control_change', channel=3, control=64, value=127, time=1),
    Message('note_off', channel=3, note=40, velocity=0, time=19),
    Message('note_on', channel=3, note=52, velocity=95, time=4),
    Message('note_on', channel=3, note=59, velocity=95, time=0),
    Message('note_on', channel=3, note=55, velocity=95, time=0),
    Message('note_on', channel=3, note=55, velocity=0, time=14),
    Message('note_on', channel=3, note=52, velocity=0, time=1),
    Message('note_on', channel=3, note=59, velocity=0, time=2),
    Message('note_on', channel=3, note=52, velocity=84, time=31),
    Message('note_on', channel=3, note=59, velocity=95, time=0),
    Message('note_on', channel=3, note=55, velocity=95, time=0),
    Message('note_on', channel=3, note=52, velocity=0, time=10),
    Message('note_on', channel=3, note=55, velocity=0, time=1),
    Message('note_on', channel=3, note=59, velocity=0, time=1),
    Message('note_on', channel=3, note=40, velocity=95, time=12),
    Message('note_on', channel=3, note=40, velocity=0, time=14),
    Message('note_on', channel=3, note=55, velocity=95, time=10),
    Message('note_on', channel=3, note=52, velocity=95, time=0),
    Message('note_on', channel=3, note=59, velocity=95, time=0),
    Message('note_on', channel=3, note=55, velocity=0, time=32),
    Message('note_on', channel=3, note=52, velocity=0, time=3),
    Message('note_on', channel=3, note=59, velocity=0, time=1),
    Message('note_on', channel=3, note=40, velocity=95, time=12),
    Message('note_on', channel=3, note=40, velocity=0, time=16),
    Message('note_on', channel=3, note=52, velocity=95, time=32),
    Message('note_on', channel=3, note=59, velocity=95, time=0),
    Message('note_on', channel=3, note=55, velocity=95, time=0),
    Message('note_on', channel=3, note=55, velocity=0, time=14),
    Message('note_on', channel=3, note=52, velocity=0, time=1),
    Message('note_on', channel=3, note=59, velocity=0, time=1),
    Message('note_on', channel=3, note=52, velocity=95, time=32),
    Message('note_on', channel=3, note=59, velocity=95, time=0),
    Message('note_on', channel=3, note=55, velocity=95, time=0),
    Message('note_on', channel=3, note=52, velocity=0, time=11),
    Message('note_on', channel=3, note=55, velocity=0, time=2),
    Message('note_on', channel=3, note=59, velocity=0, time=1),
    Message('note_on', channel=3, note=43, velocity=95, time=34),
    Message('control_change', channel=3, control=64, value=0, time=4),
    Message('control_change', channel=3, control=64, value=127, time=30),
    Message('note_on', channel=3, note=55, velocity=95, time=14),
    Message('note_on', channel=3, note=59, velocity=95, time=0),
    Message('note_on', channel=3, note=62, velocity=95, time=0),
    Message('note_on', channel=3, note=43, velocity=0, time=14),
    Message('note_on', channel=3, note=55, velocity=0, time=2),
    Message('note_on', channel=3, note=59, velocity=0, time=0),
    Message('note_on', channel=3, note=62, velocity=0, time=3),
    Message('note_on', channel=3, note=62, velocity=95, time=77),
    Message('note_on', channel=3, note=55, velocity=95, time=0),
    Message('note_on', channel=3, note=59, velocity=95, time=0),
    Message('note_on', channel=3, note=59, velocity=0, time=13),
    Message('note_on', channel=3, note=55, velocity=0, time=1),
    Message('note_on', channel=3, note=62, velocity=0, time=0),
    Message('note_on', channel=3, note=59, velocity=84, time=34),
    Message('note_on', channel=3, note=59, velocity=0, time=7),
    Message('note_on', channel=3, note=43, velocity=95, time=41),
    Message('note_on', channel=3, note=43, velocity=0, time=25),
    Message('note_on', channel=3, note=59, velocity=95, time=23),
    Message('note_on', channel=3, note=55, velocity=95, time=0),
    Message('note_on', channel=3, note=62, velocity=95, time=0),
    Message('note_on', channel=3, note=55, velocity=0, time=14),
    Message('note_on', channel=3, note=59, velocity=0, time=0),
    Message('note_on', channel=3, note=62, velocity=0, time=4),
    Message('control_change', channel=3, control=64, value=0, time=71),
    Message('note_on', channel=3, note=50, velocity=95, time=7),
    Message('note_on', channel=3, note=62, velocity=95, time=0),
    Message('note_on', channel=3, note=54, velocity=95, time=0),
    Message('note_on', channel=3, note=57, velocity=95, time=0),
    Message('control_change', channel=3, control=64, value=127, time=24),
    Message('note_off', channel=3, note=62, velocity=0, time=35),
    Message('note_off', channel=3, note=54, velocity=0, time=3),
    Message('note_off', channel=3, note=57, velocity=0, time=3),
    Message('note_off', channel=3, note=50, velocity=0, time=5),
    Message('note_on', channel=3, note=54, velocity=95, time=26),
    Message('note_on', channel=3, note=62, velocity=95, time=0),
    Message('note_on', channel=3, note=57, velocity=95, time=0),
    Message('note_on', channel=3, note=54, velocity=0, time=19),
    Message('note_on', channel=3, note=57, velocity=0, time=2),
    Message('note_on', channel=3, note=62, velocity=0, time=1),
    Message('note_on', channel=3, note=62, velocity=95, time=26),
    Message('note_on', channel=3, note=54, velocity=95, time=0),
    Message('note_on', channel=3, note=57, velocity=95, time=0),
    Message('note_on', channel=3, note=62, velocity=0, time=31),
    Message('note_on', channel=3, note=57, velocity=0, time=2),
    Message('note_on', channel=3, note=54, velocity=0, time=1),
    Message('note_on', channel=3, note=50, velocity=95, time=14),
    Message('note_on', channel=3, note=50, velocity=0, time=22),
    Message('note_on', channel=3, note=62, velocity=95, time=26),
    Message('note_on', channel=3, note=54, velocity=95, time=0),
    Message('note_on', channel=3, note=57, velocity=95, time=0),
    Message('note_on', channel=3, note=62, velocity=0, time=20),
    Message('note_on', channel=3, note=57, velocity=0, time=6),
    Message('note_on', channel=3, note=54, velocity=0, time=2),
    Message('note_on', channel=3, note=62, velocity=95, time=20),
    Message('note_on', channel=3, note=54, velocity=95, time=0),
    Message('note_on', channel=3, note=57, velocity=95, time=0),
    Message('note_on', channel=3, note=57, velocity=0, time=20),
    Message('note_on', channel=3, note=54, velocity=0, time=0),
    Message('note_on', channel=3, note=62, velocity=0, time=2),
    Message('note_on', channel=3, note=57, velocity=95, time=74),
    Message('note_on', channel=3, note=64, velocity=95, time=0),
    Message('note_on', channel=3, note=61, velocity=95, time=0),
    Message('note_on', channel=3, note=45, velocity=95, time=0),
    Message('control_change', channel=3, control=64, value=0, time=4),
    Message('note_off', channel=3, note=57, velocity=0, time=20),
    Message('note_off', channel=3, note=64, velocity=0, time=4),
    Message('note_off', channel=3, note=61, velocity=0, time=1),
    Message('control_change', channel=3, control=64, value=127, time=1),
    Message('note_on', channel=3, note=57, velocity=60, time=18),
    Message('note_on', channel=3, note=61, velocity=61, time=0),
    Message('note_on', channel=3, note=45, velocity=0, time=8),
    Message('note_on', channel=3, note=61, velocity=0, time=2),
    Message('note_on', channel=3, note=57, velocity=0, time=1),
    Message('note_on', channel=3, note=52, velocity=95, time=13),
    Message('note_on', channel=3, note=52, velocity=0, time=20),
    Message('note_on', channel=3, note=57, velocity=95, time=4),
    Message('note_on', channel=3, note=61, velocity=95, time=0),
    Message('note_on', channel=3, note=64, velocity=95, time=0),
    Message('note_on', channel=3, note=61, velocity=0, time=17),
    Message('note_on', channel=3, note=57, velocity=0, time=1),
    Message('note_on', channel=3, note=64, velocity=0, time=3),
    Message('note_on', channel=3, note=45, velocity=95, time=27),
    Message('note_on', channel=3, note=61, velocity=95, time=48),
    Message('note_on', channel=3, note=55, velocity=95, time=0),
    Message('note_on', channel=3, note=64, velocity=95, time=0),
    Message('note_on', channel=3, note=45, velocity=0, time=2),
    Message('note_on', channel=3, note=61, velocity=0, time=14),
    Message('note_on', channel=3, note=55, velocity=0, time=3),
    Message('note_on', channel=3, note=64, velocity=0, time=1),
    Message('note_on', channel=3, note=61, velocity=95, time=28),
    Message('note_on', channel=3, note=55, velocity=95, time=0),
    Message('note_on', channel=3, note=64, velocity=95, time=0),
    Message('note_on', channel=3, note=61, velocity=0, time=46),
    Message('note_on', channel=3, note=55, velocity=0, time=1),
    Message('note_on', channel=3, note=45, velocity=95, time=1),
    Message('note_on', channel=3, note=64, velocity=0, time=1),
    Message('note_on', channel=3, note=45, velocity=0, time=27),
    Message('note_on', channel=3, note=55, velocity=95, time=20),
    Message('note_on', channel=3, note=61, velocity=95, time=0),
    Message('note_on', channel=3, note=64, velocity=95, time=0),
    Message('note_on', channel=3, note=61, velocity=0, time=17),
    Message('note_on', channel=3, note=55, velocity=0, time=0),
    Message('note_on', channel=3, note=64, velocity=0, time=5),
    Message('control_change', channel=3, control=64, value=0, time=24),
    Message('note_on', channel=3, note=59, velocity=95, time=2),
    Message('note_on', channel=3, note=55, velocity=95, time=0),
    Message('note_on', channel=3, note=52, velocity=95, time=0),
    Message('control_change', channel=3, control=64, value=127, time=29),
    Message('note_off', channel=3, note=59, velocity=0, time=44),
    Message('note_off', channel=3, note=55, velocity=0, time=11),
    Message('note_off', channel=3, note=52, velocity=0, time=2),
    Message('note_on', channel=3, note=64, velocity=95, time=10),
    Message('note_on', channel=3, note=67, velocity=95, time=0),
    Message('note_on', channel=3, note=64, velocity=0, time=23),
    Message('note_on', channel=3, note=67, velocity=0, time=3),
    Message('note_on', channel=3, note=55, velocity=95, time=22),
    Message('note_on', channel=3, note=52, velocity=95, time=0),
    Message('note_on', channel=3, note=59, velocity=95, time=0),
    Message('note_on', channel=3, note=55, velocity=0, time=15),
    Message('note_on', channel=3, note=52, velocity=0, time=1),
    Message('note_on', channel=3, note=59, velocity=0, time=2),
    Message('note_on', channel=3, note=64, velocity=95, time=30),
    Message('note_on', channel=3, note=67, velocity=95, time=0),
    Message('note_on', channel=3, note=67, velocity=0, time=16),
    Message('note_on', channel=3, note=64, velocity=0, time=1),
    Message('note_on', channel=3, note=55, velocity=95, time=31),
    Message('note_on', channel=3, note=59, velocity=95, time=0),
    Message('note_on', channel=3, note=52, velocity=95, time=0),
    Message('note_on', channel=3, note=59, velocity=0, time=16),
    Message('note_on', channel=3, note=55, velocity=0, time=0),
    Message('note_on', channel=3, note=52, velocity=0, time=3),
    Message('note_on', channel=3, note=64, velocity=95, time=29),
    Message('note_on', channel=3, note=67, velocity=95, time=0),
    Message('note_on', channel=3, note=64, velocity=0, time=16),
    Message('note_on', channel=3, note=67, velocity=0, time=4),
    Message('note_on', channel=3, note=64, velocity=95, time=28),
    Message('note_on', channel=3, note=67, velocity=95, time=0),
    Message('note_on', channel=3, note=64, velocity=0, time=17),
    Message('note_on', channel=3, note=67, velocity=0, time=1),
    Message('note_on', channel=3, note=43, velocity=95, time=30),
    Message('control_change', channel=3, control=64, value=0, time=4),
    Message('control_change', channel=3, control=64, value=127, time=22),
    Message('note_on', channel=3, note=55, velocity=95, time=22),
    Message('note_on', channel=3, note=59, velocity=95, time=0),
    Message('note_on', channel=3, note=62, velocity=95, time=0),
    Message('note_on', channel=3, note=43, velocity=0, time=2),
    Message('note_on', channel=3, note=59, velocity=0, time=17),
    Message('note_on', channel=3, note=55, velocity=0, time=1),
    Message('note_on', channel=3, note=62, velocity=0, time=1),
    Message('note_on', channel=3, note=62, velocity=95, time=27),
    Message('note_on', channel=3, note=55, velocity=95, time=0),
    Message('note_on', channel=3, note=59, velocity=95, time=0),
    Message('note_on', channel=3, note=62, velocity=0, time=11),
    Message('note_on', channel=3, note=59, velocity=0, time=2),
    Message('note_on', channel=3, note=55, velocity=0, time=0),
    Message('note_on', channel=3, note=62, velocity=95, time=35),
    Message('note_on', channel=3, note=55, velocity=95, time=0),
    Message('note_on', channel=3, note=59, velocity=95, time=0),
    Message('note_on', channel=3, note=59, velocity=0, time=18),
    Message('note_on', channel=3, note=55, velocity=0, time=0),
    Message('note_on', channel=3, note=62, velocity=0, time=2),
    Message('note_on', channel=3, note=43, velocity=95, time=28),
    Message('note_on', channel=3, note=43, velocity=0, time=22),
    Message('note_on', channel=3, note=59, velocity=95, time=26),
    Message('note_on', channel=3, note=55, velocity=95, time=0),
    Message('note_on', channel=3, note=62, velocity=95, time=0),
    Message('note_on', channel=3, note=59, velocity=0, time=13),
    Message('note_on', channel=3, note=55, velocity=0, time=3),
    Message('note_on', channel=3, note=62, velocity=0, time=3),
    Message('note_on', channel=3, note=55, velocity=95, time=29),
    Message('note_on', channel=3, note=62, velocity=95, time=0),
    Message('note_on', channel=3, note=59, velocity=95, time=0),
    Message('note_on', channel=3, note=55, velocity=0, time=14),
    Message('note_on', channel=3, note=59, velocity=0, time=1),
    Message('note_on', channel=3, note=62, velocity=0, time=1),
    Message('note_on', channel=3, note=62, velocity=95, time=80),
    Message('note_on', channel=3, note=54, velocity=95, time=0),
    Message('note_on', channel=3, note=50, velocity=95, time=0),
    Message('note_on', channel=3, note=57, velocity=95, time=0),
    Message('control_change', channel=3, control=64, value=0, time=0),
    Message('control_change', channel=3, control=64, value=127, time=34),
    Message('note_off', channel=3, note=62, velocity=0, time=27),
    Message('note_off', channel=3, note=54, velocity=0, time=3),
    Message('note_off', channel=3, note=57, velocity=0, time=1),
    Message('note_off', channel=3, note=50, velocity=0, time=16),
    Message('note_on', channel=3, note=54, velocity=88, time=15),
    Message('note_on', channel=3, note=62, velocity=95, time=0),
    Message('note_on', channel=3, note=57, velocity=95, time=0),
    Message('note_on', channel=3, note=62, velocity=0, time=20),
    Message('note_on', channel=3, note=57, velocity=0, time=2),
    Message('note_on', channel=3, note=54, velocity=0, time=0),
    Message('note_on', channel=3, note=54, velocity=95, time=26),
    Message('note_on', channel=3, note=62, velocity=95, time=0),
    Message('note_on', channel=3, note=57, velocity=95, time=0),
    Message('note_on', channel=3, note=54, velocity=0, time=40),
    Message('note_on', channel=3, note=57, velocity=0, time=4),
    Message('note_on', channel=3, note=62, velocity=0, time=1),
    Message('note_on', channel=3, note=50, velocity=95, time=3),
    Message('note_on', channel=3, note=50, velocity=0, time=20),
    Message('note_on', channel=3, note=54, velocity=88, time=28),
    Message('note_on', channel=3, note=57, velocity=95, time=0),
    Message('note_on', channel=3, note=62, velocity=95, time=0),
    Message('note_on', channel=3, note=62, velocity=0, time=24),
    Message('note_on', channel=3, note=57, velocity=0, time=2),
    Message('note_on', channel=3, note=54, velocity=0, time=1),
    Message('note_on', channel=3, note=62, velocity=95, time=21),
    Message('note_on', channel=3, note=57, velocity=95, time=0),
    Message('note_on', channel=3, note=54, velocity=95, time=0),
    Message('note_on', channel=3, note=57, velocity=0, time=22),
    Message('note_on', channel=3, note=54, velocity=0, time=2),
    Message('note_on', channel=3, note=62, velocity=0, time=2),
    Message('control_change', channel=3, control=64, value=0, time=68),
    Message('note_on', channel=3, note=57, velocity=95, time=2),
    Message('note_on', channel=3, note=64, velocity=95, time=0),
    Message('note_on', channel=3, note=61, velocity=95, time=0),
    Message('note_on', channel=3, note=45, velocity=95, time=0),
    Message('note_on', channel=3, note=52, velocity=95, time=0),
    Message('note_on', channel=3, note=61, velocity=0, time=26),
    Message('note_on', channel=3, note=57, velocity=0, time=0),
    Message('note_on', channel=3, note=64, velocity=0, time=0),
    Message('control_change', channel=3, control=64, value=127, time=4),
    Message('note_off', channel=3, note=52, velocity=0, time=15),
    Message('note_off', channel=3, note=45, velocity=0, time=7),
    Message('note_on', channel=3, note=52, velocity=95, time=20),
    Message('note_on', channel=3, note=45, velocity=95, time=0),
    Message('note_on', channel=3, note=52, velocity=0, time=15),
    Message('note_on', channel=3, note=45, velocity=0, time=1),
    Message('note_on', channel=3, note=61, velocity=95, time=8),
    Message('note_on', channel=3, note=64, velocity=95, time=0),
    Message('note_on', channel=3, note=57, velocity=95, time=0),
    Message('note_on', channel=3, note=61, velocity=0, time=18),
    Message('note_on', channel=3, note=64, velocity=0, time=2),
    Message('note_on', channel=3, note=57, velocity=0, time=3),
    Message('note_on', channel=3, note=45, velocity=95, time=25),
    Message('note_on', channel=3, note=52, velocity=95, time=0),
    Message('note_on', channel=3, note=52, velocity=0, time=20),
    Message('note_on', channel=3, note=45, velocity=0, time=4),
    Message('note_on', channel=3, note=57, velocity=95, time=24),
    Message('note_on', channel=3, note=64, velocity=95, time=0),
    Message('note_on', channel=3, note=57, velocity=0, time=17),
    Message('note_on', channel=3, note=64, velocity=0, time=1),
    Message('note_on', channel=3, note=57, velocity=95, time=30),
    Message('note_on', channel=3, note=64, velocity=95, time=0),
    Message('note_on', channel=3, note=45, velocity=95, time=0),
    Message('note_on', channel=3, note=52, velocity=95, time=0),
    Message('note_on', channel=3, note=57, velocity=0, time=14),
    Message('note_on', channel=3, note=64, velocity=0, time=3),
    Message('note_on', channel=3, note=45, velocity=0, time=1),
    Message('note_on', channel=3, note=52, velocity=0, time=0),
    Message('note_on', channel=3, note=45, velocity=95, time=30),
    Message('note_on', channel=3, note=52, velocity=95, time=0),
    Message('note_on', channel=3, note=57, velocity=95, time=0),
    Message('note_on', channel=3, note=64, velocity=95, time=0),
    Message('note_on', channel=3, note=57, velocity=0, time=15),
    Message('note_on', channel=3, note=52, velocity=0, time=0),
    Message('note_on', channel=3, note=45, velocity=0, time=3),
    Message('note_on', channel=3, note=64, velocity=0, time=1),
    Message('note_on', channel=3, note=57, velocity=95, time=29),
    Message('note_on', channel=3, note=45, velocity=95, time=0),
    Message('note_on', channel=3, note=64, velocity=95, time=0),
    Message('note_on', channel=3, note=52, velocity=95, time=0),
    Message('note_on', channel=3, note=45, velocity=0, time=12),
    Message('note_on', channel=3, note=57, velocity=0, time=1),
    Message('note_on', channel=3, note=52, velocity=0, time=1),
    Message('note_on', channel=3, note=64, velocity=0, time=1),
    Message('control_change', channel=3, control=64, value=0, time=12),
    Message('note_on', channel=3, note=52, velocity=95, time=21),
    Message('note_on', channel=3, note=40, velocity=95, time=0),
    Message('note_on', channel=3, note=55, velocity=95, time=0),
    Message('note_on', channel=3, note=59, velocity=95, time=0),
    Message('note_on', channel=3, note=52, velocity=0, time=70),
    Message('note_on', channel=3, note=59, velocity=0, time=2),
    Message('note_on', channel=3, note=55, velocity=0, time=0),
    Message('control_change', channel=3, control=64, value=127, time=1),
    Message('note_off', channel=3, note=40, velocity=0, time=19),
    Message('note_on', channel=3, note=52, velocity=95, time=4),
    Message('note_on', channel=3, note=59, velocity=95, time=0),
    Message('note_on', channel=3, note=55, velocity=95, time=0),
    Message('note_on', channel=3, note=55, velocity=0, time=14),
    Message('note_on', channel=3, note=52, velocity=0, time=1),
    Message('note_on', channel=3, note=59, velocity=0, time=2),
    Message('note_on', channel=3, note=52, velocity=84, time=31),
    Message('note_on', channel=3, note=59, velocity=95, time=0),
    Message('note_on', channel=3, note=55, velocity=95, time=0),
    Message('note_on', channel=3, note=52, velocity=0, time=10),
    Message('note_on', channel=3, note=55, velocity=0, time=1),
    Message('note_on', channel=3, note=59, velocity=0, time=1),
    Message('note_on', channel=3, note=40, velocity=95, time=12),
    Message('note_on', channel=3, note=40, velocity=0, time=14),
    Message('note_on', channel=3, note=55, velocity=95, time=10),
    Message('note_on', channel=3, note=52, velocity=95, time=0),
    Message('note_on', channel=3, note=59, velocity=95, time=0),
    Message('note_on', channel=3, note=55, velocity=0, time=32),
    Message('note_on', channel=3, note=52, velocity=0, time=3),
    Message('note_on', channel=3, note=59, velocity=0, time=1),
    Message('note_on', channel=3, note=40, velocity=95, time=12),
    Message('note_on', channel=3, note=40, velocity=0, time=16),
    Message('note_on', channel=3, note=52, velocity=95, time=32),
    Message('note_on', channel=3, note=59, velocity=95, time=0),
    Message('note_on', channel=3, note=55, velocity=95, time=0),
    Message('note_on', channel=3, note=55, velocity=0, time=14),
    Message('note_on', channel=3, note=52, velocity=0, time=1),
    Message('note_on', channel=3, note=59, velocity=0, time=1),
    Message('note_on', channel=3, note=52, velocity=95, time=32),
    Message('note_on', channel=3, note=59, velocity=95, time=0),
    Message('note_on', channel=3, note=55, velocity=95, time=0),
    Message('note_on', channel=3, note=52, velocity=0, time=11),
    Message('note_on', channel=3, note=55, velocity=0, time=2),
    Message('note_on', channel=3, note=59, velocity=0, time=1),
    Message('note_on', channel=3, note=43, velocity=95, time=34),
    Message('control_change', channel=3, control=64, value=0, time=4),
    Message('control_change', channel=3, control=64, value=127, time=30),
    Message('note_on', channel=3, note=55, velocity=95, time=14),
    Message('note_on', channel=3, note=59, velocity=95, time=0),
    Message('note_on', channel=3, note=62, velocity=95, time=0),
    Message('note_on', channel=3, note=43, velocity=0, time=14),
    Message('note_on', channel=3, note=55, velocity=0, time=2),
    Message('note_on', channel=3, note=59, velocity=0, time=0),
    Message('note_on', channel=3, note=62, velocity=0, time=3),
    Message('note_on', channel=3, note=62, velocity=95, time=77),
    Message('note_on', channel=3, note=55, velocity=95, time=0),
    Message('note_on', channel=3, note=59, velocity=95, time=0),
    Message('note_on', channel=3, note=59, velocity=0, time=13),
    Message('note_on', channel=3, note=55, velocity=0, time=1),
    Message('note_on', channel=3, note=62, velocity=0, time=0),
    Message('note_on', channel=3, note=59, velocity=84, time=34),
    Message('note_on', channel=3, note=59, velocity=0, time=7),
    Message('note_on', channel=3, note=43, velocity=95, time=41),
    Message('note_on', channel=3, note=43, velocity=0, time=25),
    Message('note_on', channel=3, note=59, velocity=95, time=23),
    Message('note_on', channel=3, note=55, velocity=95, time=0),
    Message('note_on', channel=3, note=62, velocity=95, time=0),
    Message('note_on', channel=3, note=55, velocity=0, time=14),
    Message('note_on', channel=3, note=59, velocity=0, time=0),
    Message('note_on', channel=3, note=62, velocity=0, time=4),
    Message('control_change', channel=3, control=64, value=0, time=71),
    Message('note_on', channel=3, note=50, velocity=95, time=7),
    Message('note_on', channel=3, note=62, velocity=95, time=0),
    Message('note_on', channel=3, note=54, velocity=95, time=0),
    Message('note_on', channel=3, note=57, velocity=95, time=0),
    Message('control_change', channel=3, control=64, value=127, time=24),
    Message('note_off', channel=3, note=62, velocity=0, time=35),
    Message('note_off', channel=3, note=54, velocity=0, time=3),
    Message('note_off', channel=3, note=57, velocity=0, time=3),
    Message('note_off', channel=3, note=50, velocity=0, time=5),
    Message('note_on', channel=3, note=54, velocity=95, time=26),
    Message('note_on', channel=3, note=62, velocity=95, time=0),
    Message('note_on', channel=3, note=57, velocity=95, time=0),
    Message('note_on', channel=3, note=54, velocity=0, time=19),
    Message('note_on', channel=3, note=57, velocity=0, time=2),
    Message('note_on', channel=3, note=62, velocity=0, time=1),
    Message('note_on', channel=3, note=62, velocity=95, time=26),
    Message('note_on', channel=3, note=54, velocity=95, time=0),
    Message('note_on', channel=3, note=57, velocity=95, time=0),
    Message('note_on', channel=3, note=62, velocity=0, time=31),
    Message('note_on', channel=3, note=57, velocity=0, time=2),
    Message('note_on', channel=3, note=54, velocity=0, time=1),
    Message('note_on', channel=3, note=50, velocity=95, time=14),
    Message('note_on', channel=3, note=50, velocity=0, time=22),
    Message('note_on', channel=3, note=62, velocity=95, time=26),
    Message('note_on', channel=3, note=54, velocity=95, time=0),
    Message('note_on', channel=3, note=57, velocity=95, time=0),
    Message('note_on', channel=3, note=62, velocity=0, time=20),
    Message('note_on', channel=3, note=57, velocity=0, time=6),
    Message('note_on', channel=3, note=54, velocity=0, time=2),
    Message('note_on', channel=3, note=62, velocity=95, time=20),
    Message('note_on', channel=3, note=54, velocity=95, time=0),
    Message('note_on', channel=3, note=57, velocity=95, time=0),
    Message('note_on', channel=3, note=57, velocity=0, time=20),
    Message('note_on', channel=3, note=54, velocity=0, time=0),
    Message('note_on', channel=3, note=62, velocity=0, time=2),
    Message('note_on', channel=3, note=57, velocity=95, time=74),
    Message('note_on', channel=3, note=64, velocity=95, time=0),
    Message('note_on', channel=3, note=61, velocity=95, time=0),
    Message('note_on', channel=3, note=45, velocity=95, time=0),
    Message('control_change', channel=3, control=64, value=0, time=4),
    Message('note_off', channel=3, note=57, velocity=0, time=20),
    Message('note_off', channel=3, note=64, velocity=0, time=4),
    Message('note_off', channel=3, note=61, velocity=0, time=1),
    Message('control_change', channel=3, control=64, value=127, time=1),
    Message('note_on', channel=3, note=57, velocity=60, time=18),
    Message('note_on', channel=3, note=61, velocity=61, time=0),
    Message('note_on', channel=3, note=45, velocity=0, time=8),
    Message('note_on', channel=3, note=61, velocity=0, time=2),
    Message('note_on', channel=3, note=57, velocity=0, time=1),
    Message('note_on', channel=3, note=52, velocity=95, time=13),
    Message('note_on', channel=3, note=52, velocity=0, time=20),
    Message('note_on', channel=3, note=57, velocity=95, time=4),
    Message('note_on', channel=3, note=61, velocity=95, time=0),
    Message('note_on', channel=3, note=64, velocity=95, time=0),
    Message('note_on', channel=3, note=61, velocity=0, time=17),
    Message('note_on', channel=3, note=57, velocity=0, time=1),
    Message('note_on', channel=3, note=64, velocity=0, time=3),
    Message('note_on', channel=3, note=45, velocity=95, time=27),
    Message('note_on', channel=3, note=61, velocity=95, time=48),
    Message('note_on', channel=3, note=55, velocity=95, time=0),
    Message('note_on', channel=3, note=64, velocity=95, time=0),
    Message('note_on', channel=3, note=45, velocity=0, time=2),
    Message('note_on', channel=3, note=61, velocity=0, time=14),
    Message('note_on', channel=3, note=55, velocity=0, time=3),
    Message('note_on', channel=3, note=64, velocity=0, time=1),
    Message('note_on', channel=3, note=61, velocity=95, time=28),
    Message('note_on', channel=3, note=55, velocity=95, time=0),
    Message('note_on', channel=3, note=64, velocity=95, time=0),
    Message('note_on', channel=3, note=61, velocity=0, time=46),
    Message('note_on', channel=3, note=55, velocity=0, time=1),
    Message('note_on', channel=3, note=45, velocity=95, time=1),
    Message('note_on', channel=3, note=64, velocity=0, time=1),
    Message('note_on', channel=3, note=45, velocity=0, time=27),
    Message('note_on', channel=3, note=55, velocity=95, time=20),
    Message('note_on', channel=3, note=61, velocity=95, time=0),
    Message('note_on', channel=3, note=64, velocity=95, time=0),
    Message('note_on', channel=3, note=61, velocity=0, time=17),
    Message('note_on', channel=3, note=55, velocity=0, time=0),
    Message('note_on', channel=3, note=64, velocity=0, time=5),
    Message('control_change', channel=3, control=64, value=0, time=24),
    Message('note_on', channel=3, note=59, velocity=95, time=2),
    Message('note_on', channel=3, note=55, velocity=95, time=0),
    Message('note_on', channel=3, note=52, velocity=95, time=0),
    Message('control_change', channel=3, control=64, value=127, time=29),
    Message('note_off', channel=3, note=59, velocity=0, time=44),
    Message('note_off', channel=3, note=55, velocity=0, time=11),
    Message('note_off', channel=3, note=52, velocity=0, time=2),
    Message('note_on', channel=3, note=64, velocity=95, time=10),
    Message('note_on', channel=3, note=67, velocity=95, time=0),
    Message('note_on', channel=3, note=64, velocity=0, time=23),
    Message('note_on', channel=3, note=67, velocity=0, time=3),
    Message('note_on', channel=3, note=55, velocity=95, time=22),
    Message('note_on', channel=3, note=52, velocity=95, time=0),
    Message('note_on', channel=3, note=59, velocity=95, time=0),
    Message('note_on', channel=3, note=55, velocity=0, time=15),
    Message('note_on', channel=3, note=52, velocity=0, time=1),
    Message('note_on', channel=3, note=59, velocity=0, time=2),
    Message('note_on', channel=3, note=64, velocity=95, time=30),
    Message('note_on', channel=3, note=67, velocity=95, time=0),
    Message('note_on', channel=3, note=67, velocity=0, time=16),
    Message('note_on', channel=3, note=64, velocity=0, time=1),
    Message('note_on', channel=3, note=55, velocity=95, time=31),
    Message('note_on', channel=3, note=59, velocity=95, time=0),
    Message('note_on', channel=3, note=52, velocity=95, time=0),
    Message('note_on', channel=3, note=59, velocity=0, time=16),
    Message('note_on', channel=3, note=55, velocity=0, time=0),
    Message('note_on', channel=3, note=52, velocity=0, time=3),
    Message('note_on', channel=3, note=64, velocity=95, time=29),
    Message('note_on', channel=3, note=67, velocity=95, time=0),
    Message('note_on', channel=3, note=64, velocity=0, time=16),
    Message('note_on', channel=3, note=67, velocity=0, time=4),
    Message('note_on', channel=3, note=64, velocity=95, time=28),
    Message('note_on', channel=3, note=67, velocity=95, time=0),
    Message('note_on', channel=3, note=64, velocity=0, time=17),
    Message('note_on', channel=3, note=67, velocity=0, time=1),
    Message('note_on', channel=3, note=43, velocity=95, time=30),
    Message('control_change', channel=3, control=64, value=0, time=4),
    Message('control_change', channel=3, control=64, value=127, time=22),
    Message('note_on', channel=3, note=55, velocity=95, time=22),
    Message('note_on', channel=3, note=59, velocity=95, time=0),
    Message('note_on', channel=3, note=62, velocity=95, time=0),
    Message('note_on', channel=3, note=43, velocity=0, time=2),
    Message('note_on', channel=3, note=59, velocity=0, time=17),
    Message('note_on', channel=3, note=55, velocity=0, time=1),
    Message('note_on', channel=3, note=62, velocity=0, time=1),
    Message('note_on', channel=3, note=62, velocity=95, time=27),
    Message('note_on', channel=3, note=55, velocity=95, time=0),
    Message('note_on', channel=3, note=59, velocity=95, time=0),
    Message('note_on', channel=3, note=62, velocity=0, time=11),
    Message('note_on', channel=3, note=59, velocity=0, time=2),
    Message('note_on', channel=3, note=55, velocity=0, time=0),
    Message('note_on', channel=3, note=62, velocity=95, time=35),
    Message('note_on', channel=3, note=55, velocity=95, time=0),
    Message('note_on', channel=3, note=59, velocity=95, time=0),
    Message('note_on', channel=3, note=59, velocity=0, time=18),
    Message('note_on', channel=3, note=55, velocity=0, time=0),
    Message('note_on', channel=3, note=62, velocity=0, time=2),
    Message('note_on', channel=3, note=43, velocity=95, time=28),
    Message('note_on', channel=3, note=43, velocity=0, time=22),
    Message('note_on', channel=3, note=59, velocity=95, time=26),
    Message('note_on', channel=3, note=55, velocity=95, time=0),
    Message('note_on', channel=3, note=62, velocity=95, time=0),
    Message('note_on', channel=3, note=59, velocity=0, time=13),
    Message('note_on', channel=3, note=55, velocity=0, time=3),
    Message('note_on', channel=3, note=62, velocity=0, time=3),
    Message('note_on', channel=3, note=55, velocity=95, time=29),
    Message('note_on', channel=3, note=62, velocity=95, time=0),
    Message('note_on', channel=3, note=59, velocity=95, time=0),
    Message('note_on', channel=3, note=55, velocity=0, time=14),
    Message('note_on', channel=3, note=59, velocity=0, time=1),
    Message('note_on', channel=3, note=62, velocity=0, time=1),
    Message('note_on', channel=3, note=62, velocity=95, time=80),
    Message('note_on', channel=3, note=54, velocity=95, time=0),
    Message('note_on', channel=3, note=50, velocity=95, time=0),
    Message('note_on', channel=3, note=57, velocity=95, time=0),
    Message('control_change', channel=3, control=64, value=0, time=0),
    Message('control_change', channel=3, control=64, value=127, time=34),
    Message('note_off', channel=3, note=62, velocity=0, time=27),
    Message('note_off', channel=3, note=54, velocity=0, time=3),
    Message('note_off', channel=3, note=57, velocity=0, time=1),
    Message('note_off', channel=3, note=50, velocity=0, time=16),
    Message('note_on', channel=3, note=54, velocity=88, time=15),
    Message('note_on', channel=3, note=62, velocity=95, time=0),
    Message('note_on', channel=3, note=57, velocity=95, time=0),
    Message('note_on', channel=3, note=62, velocity=0, time=20),
    Message('note_on', channel=3, note=57, velocity=0, time=2),
    Message('note_on', channel=3, note=54, velocity=0, time=0),
    Message('note_on', channel=3, note=54, velocity=95, time=26),
    Message('note_on', channel=3, note=62, velocity=95, time=0),
    Message('note_on', channel=3, note=57, velocity=95, time=0),
    Message('note_on', channel=3, note=54, velocity=0, time=40),
    Message('note_on', channel=3, note=57, velocity=0, time=4),
    Message('note_on', channel=3, note=62, velocity=0, time=1),
    Message('note_on', channel=3, note=50, velocity=95, time=3),
    Message('note_on', channel=3, note=50, velocity=0, time=20),
    Message('note_on', channel=3, note=54, velocity=88, time=28),
    Message('note_on', channel=3, note=57, velocity=95, time=0),
    Message('note_on', channel=3, note=62, velocity=95, time=0),
    Message('note_on', channel=3, note=62, velocity=0, time=24),
    Message('note_on', channel=3, note=57, velocity=0, time=2),
    Message('note_on', channel=3, note=54, velocity=0, time=1),
    Message('note_on', channel=3, note=62, velocity=95, time=21),
    Message('note_on', channel=3, note=57, velocity=95, time=0),
    Message('note_on', channel=3, note=54, velocity=95, time=0),
    Message('note_on', channel=3, note=57, velocity=0, time=22),
    Message('note_on', channel=3, note=54, velocity=0, time=2),
    Message('note_on', channel=3, note=62, velocity=0, time=2),
    Message('control_change', channel=3, control=64, value=0, time=68),
    Message('note_on', channel=3, note=57, velocity=95, time=2),
    Message('note_on', channel=3, note=64, velocity=95, time=0),
    Message('note_on', channel=3, note=61, velocity=95, time=0),
    Message('note_on', channel=3, note=45, velocity=95, time=0),
    Message('note_on', channel=3, note=52, velocity=95, time=0),
    Message('note_on', channel=3, note=61, velocity=0, time=26),
    Message('note_on', channel=3, note=57, velocity=0, time=0),
    Message('note_on', channel=3, note=64, velocity=0, time=0),
    Message('control_change', channel=3, control=64, value=127, time=4),
    Message('note_off', channel=3, note=52, velocity=0, time=15),
    Message('note_off', channel=3, note=45, velocity=0, time=7),
    Message('note_on', channel=3, note=52, velocity=95, time=20),
    Message('note_on', channel=3, note=45, velocity=95, time=0),
    Message('note_on', channel=3, note=52, velocity=0, time=15),
    Message('note_on', channel=3, note=45, velocity=0, time=1),
    Message('note_on', channel=3, note=61, velocity=95, time=8),
    Message('note_on', channel=3, note=64, velocity=95, time=0),
    Message('note_on', channel=3, note=57, velocity=95, time=0),
    Message('note_on', channel=3, note=61, velocity=0, time=18),
    Message('note_on', channel=3, note=64, velocity=0, time=2),
    Message('note_on', channel=3, note=57, velocity=0, time=3),
    Message('note_on', channel=3, note=45, velocity=95, time=25),
    Message('note_on', channel=3, note=52, velocity=95, time=0),
    Message('note_on', channel=3, note=52, velocity=0, time=20),
    Message('note_on', channel=3, note=45, velocity=0, time=4),
    Message('note_on', channel=3, note=57, velocity=95, time=24),
    Message('note_on', channel=3, note=64, velocity=95, time=0),
    Message('note_on', channel=3, note=57, velocity=0, time=17),
    Message('note_on', channel=3, note=64, velocity=0, time=1),
    Message('note_on', channel=3, note=57, velocity=95, time=30),
    Message('note_on', channel=3, note=64, velocity=95, time=0),
    Message('note_on', channel=3, note=45, velocity=95, time=0),
    Message('note_on', channel=3, note=52, velocity=95, time=0),
    Message('note_on', channel=3, note=57, velocity=0, time=14),
    Message('note_on', channel=3, note=64, velocity=0, time=3),
    Message('note_on', channel=3, note=45, velocity=0, time=1),
    Message('note_on', channel=3, note=52, velocity=0, time=0),
    Message('note_on', channel=3, note=45, velocity=95, time=30),
    Message('note_on', channel=3, note=52, velocity=95, time=0),
    Message('note_on', channel=3, note=57, velocity=95, time=0),
    Message('note_on', channel=3, note=64, velocity=95, time=0),
    Message('note_on', channel=3, note=57, velocity=0, time=15),
    Message('note_on', channel=3, note=52, velocity=0, time=0),
    Message('note_on', channel=3, note=45, velocity=0, time=3),
    Message('note_on', channel=3, note=64, velocity=0, time=1),
    Message('note_on', channel=3, note=57, velocity=95, time=29),
    Message('note_on', channel=3, note=45, velocity=95, time=0),
    Message('note_on', channel=3, note=64, velocity=95, time=0),
    Message('note_on', channel=3, note=52, velocity=95, time=0),
    Message('note_on', channel=3, note=45, velocity=0, time=12),
    Message('note_on', channel=3, note=57, velocity=0, time=1),
    Message('note_on', channel=3, note=52, velocity=0, time=1),
    Message('note_on', channel=3, note=64, velocity=0, time=1),
    Message('control_change', channel=3, control=64, value=0, time=12),
    Message('note_on', channel=3, note=52, velocity=95, time=21),
    Message('note_on', channel=3, note=40, velocity=95, time=0),
    Message('note_on', channel=3, note=55, velocity=95, time=0),
    Message('note_on', channel=3, note=59, velocity=95, time=0),
    Message('note_on', channel=3, note=52, velocity=0, time=70),
    Message('note_on', channel=3, note=59, velocity=0, time=2),
    Message('note_on', channel=3, note=55, velocity=0, time=0),
    Message('control_change', channel=3, control=64, value=127, time=1),
    Message('note_off', channel=3, note=40, velocity=0, time=19),
    Message('note_on', channel=3, note=52, velocity=95, time=4),
    Message('note_on', channel=3, note=59, velocity=95, time=0),
    Message('note_on', channel=3, note=55, velocity=95, time=0),
    Message('note_on', channel=3, note=55, velocity=0, time=14),
    Message('note_on', channel=3, note=52, velocity=0, time=1),
    Message('note_on', channel=3, note=59, velocity=0, time=2),
    Message('note_on', channel=3, note=52, velocity=84, time=31),
    Message('note_on', channel=3, note=59, velocity=95, time=0),
    Message('note_on', channel=3, note=55, velocity=95, time=0),
    Message('note_on', channel=3, note=52, velocity=0, time=10),
    Message('note_on', channel=3, note=55, velocity=0, time=1),
    Message('note_on', channel=3, note=59, velocity=0, time=1),
    Message('note_on', channel=3, note=40, velocity=95, time=12),
    Message('note_on', channel=3, note=40, velocity=0, time=14),
    Message('note_on', channel=3, note=55, velocity=95, time=10),
    Message('note_on', channel=3, note=52, velocity=95, time=0),
    Message('note_on', channel=3, note=59, velocity=95, time=0),
    Message('note_on', channel=3, note=55, velocity=0, time=32),
    Message('note_on', channel=3, note=52, velocity=0, time=3),
    Message('note_on', channel=3, note=59, velocity=0, time=1),
    Message('note_on', channel=3, note=40, velocity=95, time=12),
    Message('note_on', channel=3, note=40, velocity=0, time=16),
    Message('note_on', channel=3, note=52, velocity=95, time=32),
    Message('note_on', channel=3, note=59, velocity=95, time=0),
    Message('note_on', channel=3, note=55, velocity=95, time=0),
    Message('note_on', channel=3, note=55, velocity=0, time=14),
    Message('note_on', channel=3, note=52, velocity=0, time=1),
    Message('note_on', channel=3, note=59, velocity=0, time=1),
    Message('note_on', channel=3, note=52, velocity=95, time=32),
    Message('note_on', channel=3, note=59, velocity=95, time=0),
    Message('note_on', channel=3, note=55, velocity=95, time=0),
    Message('note_on', channel=3, note=52, velocity=0, time=11),
    Message('note_on', channel=3, note=55, velocity=0, time=2),
    Message('note_on', channel=3, note=59, velocity=0, time=1),
    Message('note_on', channel=3, note=43, velocity=95, time=34),
    Message('control_change', channel=3, control=64, value=0, time=4),
    Message('control_change', channel=3, control=64, value=127, time=30),
    Message('note_on', channel=3, note=55, velocity=95, time=14),
    Message('note_on', channel=3, note=59, velocity=95, time=0),
    Message('note_on', channel=3, note=62, velocity=95, time=0),
    Message('note_on', channel=3, note=43, velocity=0, time=14),
    Message('note_on', channel=3, note=55, velocity=0, time=2),
    Message('note_on', channel=3, note=59, velocity=0, time=0),
    Message('note_on', channel=3, note=62, velocity=0, time=3),
    Message('note_on', channel=3, note=62, velocity=95, time=77),
    Message('note_on', channel=3, note=55, velocity=95, time=0),
    Message('note_on', channel=3, note=59, velocity=95, time=0),
    Message('note_on', channel=3, note=59, velocity=0, time=13),
    Message('note_on', channel=3, note=55, velocity=0, time=1),
    Message('note_on', channel=3, note=62, velocity=0, time=0),
    Message('note_on', channel=3, note=59, velocity=84, time=34),
    Message('note_on', channel=3, note=59, velocity=0, time=7),
    Message('note_on', channel=3, note=43, velocity=95, time=41),
    Message('note_on', channel=3, note=43, velocity=0, time=25),
    Message('note_on', channel=3, note=59, velocity=95, time=23),
    Message('note_on', channel=3, note=55, velocity=95, time=0),
    Message('note_on', channel=3, note=62, velocity=95, time=0),
    Message('note_on', channel=3, note=55, velocity=0, time=14),
    Message('note_on', channel=3, note=59, velocity=0, time=0),
    Message('note_on', channel=3, note=62, velocity=0, time=4),
    Message('control_change', channel=3, control=64, value=0, time=71),
    Message('note_on', channel=3, note=50, velocity=95, time=7),
    Message('note_on', channel=3, note=62, velocity=95, time=0),
    Message('note_on', channel=3, note=54, velocity=95, time=0),
    Message('note_on', channel=3, note=57, velocity=95, time=0),
    Message('control_change', channel=3, control=64, value=127, time=24),
    Message('note_off', channel=3, note=62, velocity=0, time=35),
    Message('note_off', channel=3, note=54, velocity=0, time=3),
    Message('note_off', channel=3, note=57, velocity=0, time=3),
    Message('note_off', channel=3, note=50, velocity=0, time=5),
    Message('note_on', channel=3, note=54, velocity=95, time=26),
    Message('note_on', channel=3, note=62, velocity=95, time=0),
    Message('note_on', channel=3, note=57, velocity=95, time=0),
    Message('note_on', channel=3, note=54, velocity=0, time=19),
    Message('note_on', channel=3, note=57, velocity=0, time=2),
    Message('note_on', channel=3, note=62, velocity=0, time=1),
    Message('note_on', channel=3, note=62, velocity=95, time=26),
    Message('note_on', channel=3, note=54, velocity=95, time=0),
    Message('note_on', channel=3, note=57, velocity=95, time=0),
    Message('note_on', channel=3, note=62, velocity=0, time=31),
    Message('note_on', channel=3, note=57, velocity=0, time=2),
    Message('note_on', channel=3, note=54, velocity=0, time=1),
    Message('note_on', channel=3, note=50, velocity=95, time=14),
    Message('note_on', channel=3, note=50, velocity=0, time=22),
    Message('note_on', channel=3, note=62, velocity=95, time=26),
    Message('note_on', channel=3, note=54, velocity=95, time=0),
    Message('note_on', channel=3, note=57, velocity=95, time=0),
    Message('note_on', channel=3, note=62, velocity=0, time=20),
    Message('note_on', channel=3, note=57, velocity=0, time=6),
    Message('note_on', channel=3, note=54, velocity=0, time=2),
    Message('note_on', channel=3, note=62, velocity=95, time=20),
    Message('note_on', channel=3, note=54, velocity=95, time=0),
    Message('note_on', channel=3, note=57, velocity=95, time=0),
    Message('note_on', channel=3, note=57, velocity=0, time=20),
    Message('note_on', channel=3, note=54, velocity=0, time=0),
    Message('note_on', channel=3, note=62, velocity=0, time=2),
    Message('note_on', channel=3, note=57, velocity=95, time=74),
    Message('note_on', channel=3, note=64, velocity=95, time=0),
    Message('note_on', channel=3, note=61, velocity=95, time=0),
    Message('note_on', channel=3, note=45, velocity=95, time=0),
    Message('control_change', channel=3, control=64, value=0, time=4),
    Message('note_off', channel=3, note=57, velocity=0, time=20),
    Message('note_off', channel=3, note=64, velocity=0, time=4),
    Message('note_off', channel=3, note=61, velocity=0, time=1),
    Message('control_change', channel=3, control=64, value=127, time=1),
    Message('note_on', channel=3, note=57, velocity=60, time=18),
    Message('note_on', channel=3, note=61, velocity=61, time=0),
    Message('note_on', channel=3, note=45, velocity=0, time=8),
    Message('note_on', channel=3, note=61, velocity=0, time=2),
    Message('note_on', channel=3, note=57, velocity=0, time=1),
    Message('note_on', channel=3, note=52, velocity=95, time=13),
    Message('note_on', channel=3, note=52, velocity=0, time=20),
    Message('note_on', channel=3, note=57, velocity=95, time=4),
    Message('note_on', channel=3, note=61, velocity=95, time=0),
    Message('note_on', channel=3, note=64, velocity=95, time=0),
    Message('note_on', channel=3, note=61, velocity=0, time=17),
    Message('note_on', channel=3, note=57, velocity=0, time=1),
    Message('note_on', channel=3, note=64, velocity=0, time=3),
    Message('note_on', channel=3, note=45, velocity=95, time=27),
    Message('note_on', channel=3, note=61, velocity=95, time=48),
    Message('note_on', channel=3, note=55, velocity=95, time=0),
    Message('note_on', channel=3, note=64, velocity=95, time=0),
    Message('note_on', channel=3, note=45, velocity=0, time=2),
    Message('note_on', channel=3, note=61, velocity=0, time=14),
    Message('note_on', channel=3, note=55, velocity=0, time=3),
    Message('note_on', channel=3, note=64, velocity=0, time=1),
    Message('note_on', channel=3, note=61, velocity=95, time=28),
    Message('note_on', channel=3, note=55, velocity=95, time=0),
    Message('note_on', channel=3, note=64, velocity=95, time=0),
    Message('note_on', channel=3, note=61, velocity=0, time=46),
    Message('note_on', channel=3, note=55, velocity=0, time=1),
    Message('note_on', channel=3, note=45, velocity=95, time=1),
    Message('note_on', channel=3, note=64, velocity=0, time=1),
    Message('note_on', channel=3, note=45, velocity=0, time=27),
    Message('note_on', channel=3, note=55, velocity=95, time=20),
    Message('note_on', channel=3, note=61, velocity=95, time=0),
    Message('note_on', channel=3, note=64, velocity=95, time=0),
    Message('note_on', channel=3, note=61, velocity=0, time=17),
    Message('note_on', channel=3, note=55, velocity=0, time=0),
    Message('note_on', channel=3, note=64, velocity=0, time=5),
    Message('control_change', channel=3, control=64, value=0, time=24),
    Message('note_on', channel=3, note=59, velocity=95, time=2),
    Message('note_on', channel=3, note=55, velocity=95, time=0),
    Message('note_on', channel=3, note=52, velocity=95, time=0),
    Message('control_change', channel=3, control=64, value=127, time=29),
    Message('note_off', channel=3, note=59, velocity=0, time=44),
    Message('note_off', channel=3, note=55, velocity=0, time=11),
    Message('note_off', channel=3, note=52, velocity=0, time=2),
    Message('note_on', channel=3, note=64, velocity=95, time=10),
    Message('note_on', channel=3, note=67, velocity=95, time=0),
    Message('note_on', channel=3, note=64, velocity=0, time=23),
    Message('note_on', channel=3, note=67, velocity=0, time=3),
    Message('note_on', channel=3, note=55, velocity=95, time=22),
    Message('note_on', channel=3, note=52, velocity=95, time=0),
    Message('note_on', channel=3, note=59, velocity=95, time=0),
    Message('note_on', channel=3, note=55, velocity=0, time=15),
    Message('note_on', channel=3, note=52, velocity=0, time=1),
    Message('note_on', channel=3, note=59, velocity=0, time=2),
    Message('note_on', channel=3, note=64, velocity=95, time=30),
    Message('note_on', channel=3, note=67, velocity=95, time=0),
    Message('note_on', channel=3, note=67, velocity=0, time=16),
    Message('note_on', channel=3, note=64, velocity=0, time=1),
    Message('note_on', channel=3, note=55, velocity=95, time=31),
    Message('note_on', channel=3, note=59, velocity=95, time=0),
    Message('note_on', channel=3, note=52, velocity=95, time=0),
    Message('note_on', channel=3, note=59, velocity=0, time=16),
    Message('note_on', channel=3, note=55, velocity=0, time=0),
    Message('note_on', channel=3, note=52, velocity=0, time=3),
    Message('note_on', channel=3, note=64, velocity=95, time=29),
    Message('note_on', channel=3, note=67, velocity=95, time=0),
    Message('note_on', channel=3, note=64, velocity=0, time=16),
    Message('note_on', channel=3, note=67, velocity=0, time=4),
    Message('note_on', channel=3, note=64, velocity=95, time=28),
    Message('note_on', channel=3, note=67, velocity=95, time=0),
    Message('note_on', channel=3, note=64, velocity=0, time=17),
    Message('note_on', channel=3, note=67, velocity=0, time=1),
    Message('note_on', channel=3, note=43, velocity=95, time=30),
    Message('control_change', channel=3, control=64, value=0, time=4),
    Message('control_change', channel=3, control=64, value=127, time=22),
    Message('note_on', channel=3, note=55, velocity=95, time=22),
    Message('note_on', channel=3, note=59, velocity=95, time=0),
    Message('note_on', channel=3, note=62, velocity=95, time=0),
    Message('note_on', channel=3, note=43, velocity=0, time=2),
    Message('note_on', channel=3, note=59, velocity=0, time=17),
    Message('note_on', channel=3, note=55, velocity=0, time=1),
    Message('note_on', channel=3, note=62, velocity=0, time=1),
    Message('note_on', channel=3, note=62, velocity=95, time=27),
    Message('note_on', channel=3, note=55, velocity=95, time=0),
    Message('note_on', channel=3, note=59, velocity=95, time=0),
    Message('note_on', channel=3, note=62, velocity=0, time=11),
    Message('note_on', channel=3, note=59, velocity=0, time=2),
    Message('note_on', channel=3, note=55, velocity=0, time=0),
    Message('note_on', channel=3, note=62, velocity=95, time=35),
    Message('note_on', channel=3, note=55, velocity=95, time=0),
    Message('note_on', channel=3, note=59, velocity=95, time=0),
    Message('note_on', channel=3, note=59, velocity=0, time=18),
    Message('note_on', channel=3, note=55, velocity=0, time=0),
    Message('note_on', channel=3, note=62, velocity=0, time=2),
    Message('note_on', channel=3, note=43, velocity=95, time=28),
    Message('note_on', channel=3, note=43, velocity=0, time=22),
    Message('note_on', channel=3, note=59, velocity=95, time=26),
    Message('note_on', channel=3, note=55, velocity=95, time=0),
    Message('note_on', channel=3, note=62, velocity=95, time=0),
    Message('note_on', channel=3, note=59, velocity=0, time=13),
    Message('note_on', channel=3, note=55, velocity=0, time=3),
    Message('note_on', channel=3, note=62, velocity=0, time=3),
    Message('note_on', channel=3, note=55, velocity=95, time=29),
    Message('note_on', channel=3, note=62, velocity=95, time=0),
    Message('note_on', channel=3, note=59, velocity=95, time=0),
    Message('note_on', channel=3, note=55, velocity=0, time=14),
    Message('note_on', channel=3, note=59, velocity=0, time=1),
    Message('note_on', channel=3, note=62, velocity=0, time=1),
    Message('note_on', channel=3, note=62, velocity=95, time=80),
    Message('note_on', channel=3, note=54, velocity=95, time=0),
    Message('note_on', channel=3, note=50, velocity=95, time=0),
    Message('note_on', channel=3, note=57, velocity=95, time=0),
    Message('control_change', channel=3, control=64, value=0, time=0),
    Message('control_change', channel=3, control=64, value=127, time=34),
    Message('note_off', channel=3, note=62, velocity=0, time=27),
    Message('note_off', channel=3, note=54, velocity=0, time=3),
    Message('note_off', channel=3, note=57, velocity=0, time=1),
    Message('note_off', channel=3, note=50, velocity=0, time=16),
    Message('note_on', channel=3, note=54, velocity=88, time=15),
    Message('note_on', channel=3, note=62, velocity=95, time=0),
    Message('note_on', channel=3, note=57, velocity=95, time=0),
    Message('note_on', channel=3, note=62, velocity=0, time=20),
    Message('note_on', channel=3, note=57, velocity=0, time=2),
    Message('note_on', channel=3, note=54, velocity=0, time=0),
    Message('note_on', channel=3, note=54, velocity=95, time=26),
    Message('note_on', channel=3, note=62, velocity=95, time=0),
    Message('note_on', channel=3, note=57, velocity=95, time=0),
    Message('note_on', channel=3, note=54, velocity=0, time=40),
    Message('note_on', channel=3, note=57, velocity=0, time=4),
    Message('note_on', channel=3, note=62, velocity=0, time=1),
    Message('note_on', channel=3, note=50, velocity=95, time=3),
    Message('note_on', channel=3, note=50, velocity=0, time=20),
    Message('note_on', channel=3, note=54, velocity=88, time=28),
    Message('note_on', channel=3, note=57, velocity=95, time=0),
    Message('note_on', channel=3, note=62, velocity=95, time=0),
    Message('note_on', channel=3, note=62, velocity=0, time=24),
    Message('note_on', channel=3, note=57, velocity=0, time=2),
    Message('note_on', channel=3, note=54, velocity=0, time=1),
    Message('note_on', channel=3, note=62, velocity=95, time=21),
    Message('note_on', channel=3, note=57, velocity=95, time=0),
    Message('note_on', channel=3, note=54, velocity=95, time=0),
    Message('note_on', channel=3, note=57, velocity=0, time=22),
    Message('note_on', channel=3, note=54, velocity=0, time=2),
    Message('note_on', channel=3, note=62, velocity=0, time=2),
    Message('control_change', channel=3, control=64, value=0, time=68),
    Message('note_on', channel=3, note=57, velocity=95, time=2),
    Message('note_on', channel=3, note=64, velocity=95, time=0),
    Message('note_on', channel=3, note=61, velocity=95, time=0),
    Message('note_on', channel=3, note=45, velocity=95, time=0),
    Message('note_on', channel=3, note=52, velocity=95, time=0),
    Message('note_on', channel=3, note=61, velocity=0, time=26),
    Message('note_on', channel=3, note=57, velocity=0, time=0),
    Message('note_on', channel=3, note=64, velocity=0, time=0),
    Message('control_change', channel=3, control=64, value=127, time=4),
    Message('note_off', channel=3, note=52, velocity=0, time=15),
    Message('note_off', channel=3, note=45, velocity=0, time=7),
    Message('note_on', channel=3, note=52, velocity=95, time=20),
    Message('note_on', channel=3, note=45, velocity=95, time=0),
    Message('note_on', channel=3, note=52, velocity=0, time=15),
    Message('note_on', channel=3, note=45, velocity=0, time=1),
    Message('note_on', channel=3, note=61, velocity=95, time=8),
    Message('note_on', channel=3, note=64, velocity=95, time=0),
    Message('note_on', channel=3, note=57, velocity=95, time=0),
    Message('note_on', channel=3, note=61, velocity=0, time=18),
    Message('note_on', channel=3, note=64, velocity=0, time=2),
    Message('note_on', channel=3, note=57, velocity=0, time=3),
    Message('note_on', channel=3, note=45, velocity=95, time=25),
    Message('note_on', channel=3, note=52, velocity=95, time=0),
    Message('note_on', channel=3, note=52, velocity=0, time=20),
    Message('note_on', channel=3, note=45, velocity=0, time=4),
    Message('note_on', channel=3, note=57, velocity=95, time=24),
    Message('note_on', channel=3, note=64, velocity=95, time=0),
    Message('note_on', channel=3, note=57, velocity=0, time=17),
    Message('note_on', channel=3, note=64, velocity=0, time=1),
    Message('note_on', channel=3, note=57, velocity=95, time=30),
    Message('note_on', channel=3, note=64, velocity=95, time=0),
    Message('note_on', channel=3, note=45, velocity=95, time=0),
    Message('note_on', channel=3, note=52, velocity=95, time=0),
    Message('note_on', channel=3, note=57, velocity=0, time=14),
    Message('note_on', channel=3, note=64, velocity=0, time=3),
    Message('note_on', channel=3, note=45, velocity=0, time=1),
    Message('note_on', channel=3, note=52, velocity=0, time=0),
    Message('note_on', channel=3, note=45, velocity=95, time=30),
    Message('note_on', channel=3, note=52, velocity=95, time=0),
    Message('note_on', channel=3, note=57, velocity=95, time=0),
    Message('note_on', channel=3, note=64, velocity=95, time=0),
    Message('note_on', channel=3, note=57, velocity=0, time=15),
    Message('note_on', channel=3, note=52, velocity=0, time=0),
    Message('note_on', channel=3, note=45, velocity=0, time=3),
    Message('note_on', channel=3, note=64, velocity=0, time=1),
    Message('note_on', channel=3, note=57, velocity=95, time=29),
    Message('note_on', channel=3, note=45, velocity=95, time=0),
    Message('note_on', channel=3, note=64, velocity=95, time=0),
    Message('note_on', channel=3, note=52, velocity=95, time=0),
    Message('note_on', channel=3, note=45, velocity=0, time=12),
    Message('note_on', channel=3, note=57, velocity=0, time=1),
    Message('note_on', channel=3, note=52, velocity=0, time=1),
    Message('note_on', channel=3, note=64, velocity=0, time=1),
    Message('control_change', channel=3, control=64, value=0, time=12),
    Message('note_on', channel=3, note=52, velocity=95, time=21),
    Message('note_on', channel=3, note=40, velocity=95, time=0),
    Message('note_on', channel=3, note=55, velocity=95, time=0),
    Message('note_on', channel=3, note=59, velocity=95, time=0),
    Message('note_on', channel=3, note=52, velocity=0, time=70),
    Message('note_on', channel=3, note=59, velocity=0, time=2),
    Message('note_on', channel=3, note=55, velocity=0, time=0),
    Message('control_change', channel=3, control=64, value=127, time=1),
    Message('note_off', channel=3, note=40, velocity=0, time=19),
    Message('note_on', channel=3, note=52, velocity=95, time=4),
    Message('note_on', channel=3, note=59, velocity=95, time=0),
    Message('note_on', channel=3, note=55, velocity=95, time=0),
    Message('note_on', channel=3, note=55, velocity=0, time=14),
    Message('note_on', channel=3, note=52, velocity=0, time=1),
    Message('note_on', channel=3, note=59, velocity=0, time=2),
    Message('note_on', channel=3, note=52, velocity=84, time=31),
    Message('note_on', channel=3, note=59, velocity=95, time=0),
    Message('note_on', channel=3, note=55, velocity=95, time=0),
    Message('note_on', channel=3, note=52, velocity=0, time=10),
    Message('note_on', channel=3, note=55, velocity=0, time=1),
    Message('note_on', channel=3, note=59, velocity=0, time=1),
    Message('note_on', channel=3, note=40, velocity=95, time=12),
    Message('note_on', channel=3, note=40, velocity=0, time=14),
    Message('note_on', channel=3, note=55, velocity=95, time=10),
    Message('note_on', channel=3, note=52, velocity=95, time=0),
    Message('note_on', channel=3, note=59, velocity=95, time=0),
    Message('note_on', channel=3, note=55, velocity=0, time=32),
    Message('note_on', channel=3, note=52, velocity=0, time=3),
    Message('note_on', channel=3, note=59, velocity=0, time=1),
    Message('note_on', channel=3, note=40, velocity=95, time=12),
    Message('note_on', channel=3, note=40, velocity=0, time=16),
    Message('note_on', channel=3, note=52, velocity=95, time=32),
    Message('note_on', channel=3, note=59, velocity=95, time=0),
    Message('note_on', channel=3, note=55, velocity=95, time=0),
    Message('note_on', channel=3, note=55, velocity=0, time=14),
    Message('note_on', channel=3, note=52, velocity=0, time=1),
    Message('note_on', channel=3, note=59, velocity=0, time=1),
    Message('note_on', channel=3, note=52, velocity=95, time=32),
    Message('note_on', channel=3, note=59, velocity=95, time=0),
    Message('note_on', channel=3, note=55, velocity=95, time=0),
    Message('note_on', channel=3, note=52, velocity=0, time=11),
    Message('note_on', channel=3, note=55, velocity=0, time=2),
    Message('note_on', channel=3, note=59, velocity=0, time=1),
    Message('note_on', channel=3, note=43, velocity=95, time=34),
    Message('control_change', channel=3, control=64, value=0, time=4),
    Message('control_change', channel=3, control=64, value=127, time=30),
    Message('note_on', channel=3, note=55, velocity=95, time=14),
    Message('note_on', channel=3, note=59, velocity=95, time=0),
    Message('note_on', channel=3, note=62, velocity=95, time=0),
    Message('note_on', channel=3, note=43, velocity=0, time=14),
    Message('note_on', channel=3, note=55, velocity=0, time=2),
    Message('note_on', channel=3, note=59, velocity=0, time=0),
    Message('note_on', channel=3, note=62, velocity=0, time=3),
    Message('note_on', channel=3, note=62, velocity=95, time=77),
    Message('note_on', channel=3, note=55, velocity=95, time=0),
    Message('note_on', channel=3, note=59, velocity=95, time=0),
    Message('note_on', channel=3, note=59, velocity=0, time=13),
    Message('note_on', channel=3, note=55, velocity=0, time=1),
    Message('note_on', channel=3, note=62, velocity=0, time=0),
    Message('note_on', channel=3, note=59, velocity=84, time=34),
    Message('note_on', channel=3, note=59, velocity=0, time=7),
    Message('note_on', channel=3, note=43, velocity=95, time=41),
    Message('note_on', channel=3, note=43, velocity=0, time=25),
    Message('note_on', channel=3, note=59, velocity=95, time=23),
    Message('note_on', channel=3, note=55, velocity=95, time=0),
    Message('note_on', channel=3, note=62, velocity=95, time=0),
    Message('note_on', channel=3, note=55, velocity=0, time=14),
    Message('note_on', channel=3, note=59, velocity=0, time=0),
    Message('note_on', channel=3, note=62, velocity=0, time=4),
    Message('control_change', channel=3, control=64, value=0, time=71),
    Message('note_on', channel=3, note=50, velocity=95, time=7),
    Message('note_on', channel=3, note=62, velocity=95, time=0),
    Message('note_on', channel=3, note=54, velocity=95, time=0),
    Message('note_on', channel=3, note=57, velocity=95, time=0),
    Message('control_change', channel=3, control=64, value=127, time=24),
    Message('note_off', channel=3, note=62, velocity=0, time=35),
    Message('note_off', channel=3, note=54, velocity=0, time=3),
    Message('note_off', channel=3, note=57, velocity=0, time=3),
    Message('note_off', channel=3, note=50, velocity=0, time=5),
    Message('note_on', channel=3, note=54, velocity=95, time=26),
    Message('note_on', channel=3, note=62, velocity=95, time=0),
    Message('note_on', channel=3, note=57, velocity=95, time=0),
    Message('note_on', channel=3, note=54, velocity=0, time=19),
    Message('note_on', channel=3, note=57, velocity=0, time=2),
    Message('note_on', channel=3, note=62, velocity=0, time=1),
    Message('note_on', channel=3, note=62, velocity=95, time=26),
    Message('note_on', channel=3, note=54, velocity=95, time=0),
    Message('note_on', channel=3, note=57, velocity=95, time=0),
    Message('note_on', channel=3, note=62, velocity=0, time=31),
    Message('note_on', channel=3, note=57, velocity=0, time=2),
    Message('note_on', channel=3, note=54, velocity=0, time=1),
    Message('note_on', channel=3, note=50, velocity=95, time=14),
    Message('note_on', channel=3, note=50, velocity=0, time=22),
    Message('note_on', channel=3, note=62, velocity=95, time=26),
    Message('note_on', channel=3, note=54, velocity=95, time=0),
    Message('note_on', channel=3, note=57, velocity=95, time=0),
    Message('note_on', channel=3, note=62, velocity=0, time=20),
    Message('note_on', channel=3, note=57, velocity=0, time=6),
    Message('note_on', channel=3, note=54, velocity=0, time=2),
    Message('note_on', channel=3, note=62, velocity=95, time=20),
    Message('note_on', channel=3, note=54, velocity=95, time=0),
    Message('note_on', channel=3, note=57, velocity=95, time=0),
    Message('note_on', channel=3, note=57, velocity=0, time=20),
    Message('note_on', channel=3, note=54, velocity=0, time=0),
    Message('note_on', channel=3, note=62, velocity=0, time=2),
    Message('note_on', channel=3, note=57, velocity=95, time=74),
    Message('note_on', channel=3, note=64, velocity=95, time=0),
    Message('note_on', channel=3, note=61, velocity=95, time=0),
    Message('note_on', channel=3, note=45, velocity=95, time=0),
    Message('control_change', channel=3, control=64, value=0, time=4),
    Message('note_off', channel=3, note=57, velocity=0, time=20),
    Message('note_off', channel=3, note=64, velocity=0, time=4),
    Message('note_off', channel=3, note=61, velocity=0, time=1),
    Message('control_change', channel=3, control=64, value=127, time=1),
    Message('note_on', channel=3, note=57, velocity=60, time=18),
    Message('note_on', channel=3, note=61, velocity=61, time=0),
    Message('note_on', channel=3, note=45, velocity=0, time=8),
    Message('note_on', channel=3, note=61, velocity=0, time=2),
    Message('note_on', channel=3, note=57, velocity=0, time=1),
    Message('note_on', channel=3, note=52, velocity=95, time=13),
    Message('note_on', channel=3, note=52, velocity=0, time=20),
    Message('note_on', channel=3, note=57, velocity=95, time=4),
    Message('note_on', channel=3, note=61, velocity=95, time=0),
    Message('note_on', channel=3, note=64, velocity=95, time=0),
    Message('note_on', channel=3, note=61, velocity=0, time=17),
    Message('note_on', channel=3, note=57, velocity=0, time=1),
    Message('note_on', channel=3, note=64, velocity=0, time=3),
    Message('note_on', channel=3, note=45, velocity=95, time=27),
    Message('note_on', channel=3, note=61, velocity=95, time=48),
    Message('note_on', channel=3, note=55, velocity=95, time=0),
    Message('note_on', channel=3, note=64, velocity=95, time=0),
    Message('note_on', channel=3, note=45, velocity=0, time=2),
    Message('note_on', channel=3, note=61, velocity=0, time=14),
    Message('note_on', channel=3, note=55, velocity=0, time=3),
    Message('note_on', channel=3, note=64, velocity=0, time=1),
    Message('note_on', channel=3, note=61, velocity=95, time=28),
    Message('note_on', channel=3, note=55, velocity=95, time=0),
    Message('note_on', channel=3, note=64, velocity=95, time=0),
    Message('note_on', channel=3, note=61, velocity=0, time=46),
    Message('note_on', channel=3, note=55, velocity=0, time=1),
    Message('note_on', channel=3, note=45, velocity=95, time=1),
    Message('note_on', channel=3, note=64, velocity=0, time=1),
    Message('note_on', channel=3, note=45, velocity=0, time=27),
    Message('note_on', channel=3, note=55, velocity=95, time=20),
    Message('note_on', channel=3, note=61, velocity=95, time=0),
    Message('note_on', channel=3, note=64, velocity=95, time=0),
    Message('note_on', channel=3, note=61, velocity=0, time=17),
    Message('note_on', channel=3, note=55, velocity=0, time=0),
    Message('note_on', channel=3, note=64, velocity=0, time=5),
    Message('control_change', channel=3, control=64, value=0, time=24),
    Message('note_on', channel=3, note=59, velocity=95, time=2),
    Message('note_on', channel=3, note=55, velocity=95, time=0),
    Message('note_on', channel=3, note=52, velocity=95, time=0),
    Message('control_change', channel=3, control=64, value=127, time=29),
    Message('note_off', channel=3, note=59, velocity=0, time=44),
    Message('note_off', channel=3, note=55, velocity=0, time=11),
    Message('note_off', channel=3, note=52, velocity=0, time=2),
    Message('note_on', channel=3, note=64, velocity=95, time=10),
    Message('note_on', channel=3, note=67, velocity=95, time=0),
    Message('note_on', channel=3, note=64, velocity=0, time=23),
    Message('note_on', channel=3, note=67, velocity=0, time=3),
    Message('note_on', channel=3, note=55, velocity=95, time=22),
    Message('note_on', channel=3, note=52, velocity=95, time=0),
    Message('note_on', channel=3, note=59, velocity=95, time=0),
    Message('note_on', channel=3, note=55, velocity=0, time=15),
    Message('note_on', channel=3, note=52, velocity=0, time=1),
    Message('note_on', channel=3, note=59, velocity=0, time=2),
    Message('note_on', channel=3, note=64, velocity=95, time=30),
    Message('note_on', channel=3, note=67, velocity=95, time=0),
    Message('note_on', channel=3, note=67, velocity=0, time=16),
    Message('note_on', channel=3, note=64, velocity=0, time=1),
    Message('note_on', channel=3, note=55, velocity=95, time=31),
    Message('note_on', channel=3, note=59, velocity=95, time=0),
    Message('note_on', channel=3, note=52, velocity=95, time=0),
    Message('note_on', channel=3, note=59, velocity=0, time=16),
    Message('note_on', channel=3, note=55, velocity=0, time=0),
    Message('note_on', channel=3, note=52, velocity=0, time=3),
    Message('note_on', channel=3, note=64, velocity=95, time=29),
    Message('note_on', channel=3, note=67, velocity=95, time=0),
    Message('note_on', channel=3, note=64, velocity=0, time=16),
    Message('note_on', channel=3, note=67, velocity=0, time=4),
    Message('note_on', channel=3, note=64, velocity=95, time=28),
    Message('note_on', channel=3, note=67, velocity=95, time=0),
    Message('note_on', channel=3, note=64, velocity=0, time=17),
    Message('note_on', channel=3, note=67, velocity=0, time=1),
    Message('note_on', channel=3, note=43, velocity=95, time=30),
    Message('control_change', channel=3, control=64, value=0, time=4),
    Message('control_change', channel=3, control=64, value=127, time=22),
    Message('note_on', channel=3, note=55, velocity=95, time=22),
    Message('note_on', channel=3, note=59, velocity=95, time=0),
    Message('note_on', channel=3, note=62, velocity=95, time=0),
    Message('note_on', channel=3, note=43, velocity=0, time=2),
    Message('note_on', channel=3, note=59, velocity=0, time=17),
    Message('note_on', channel=3, note=55, velocity=0, time=1),
    Message('note_on', channel=3, note=62, velocity=0, time=1),
    Message('note_on', channel=3, note=62, velocity=95, time=27),
    Message('note_on', channel=3, note=55, velocity=95, time=0),
    Message('note_on', channel=3, note=59, velocity=95, time=0),
    Message('note_on', channel=3, note=62, velocity=0, time=11),
    Message('note_on', channel=3, note=59, velocity=0, time=2),
    Message('note_on', channel=3, note=55, velocity=0, time=0),
    Message('note_on', channel=3, note=62, velocity=95, time=35),
    Message('note_on', channel=3, note=55, velocity=95, time=0),
    Message('note_on', channel=3, note=59, velocity=95, time=0),
    Message('note_on', channel=3, note=59, velocity=0, time=18),
    Message('note_on', channel=3, note=55, velocity=0, time=0),
    Message('note_on', channel=3, note=62, velocity=0, time=2),
    Message('note_on', channel=3, note=43, velocity=95, time=28),
    Message('note_on', channel=3, note=43, velocity=0, time=22),
    Message('note_on', channel=3, note=59, velocity=95, time=26),
    Message('note_on', channel=3, note=55, velocity=95, time=0),
    Message('note_on', channel=3, note=62, velocity=95, time=0),
    Message('note_on', channel=3, note=59, velocity=0, time=13),
    Message('note_on', channel=3, note=55, velocity=0, time=3),
    Message('note_on', channel=3, note=62, velocity=0, time=3),
    Message('note_on', channel=3, note=55, velocity=95, time=29),
    Message('note_on', channel=3, note=62, velocity=95, time=0),
    Message('note_on', channel=3, note=59, velocity=95, time=0),
    Message('note_on', channel=3, note=55, velocity=0, time=14),
    Message('note_on', channel=3, note=59, velocity=0, time=1),
    Message('note_on', channel=3, note=62, velocity=0, time=1),
    Message('note_on', channel=3, note=62, velocity=95, time=80),
    Message('note_on', channel=3, note=54, velocity=95, time=0),
    Message('note_on', channel=3, note=50, velocity=95, time=0),
    Message('note_on', channel=3, note=57, velocity=95, time=0),
    Message('control_change', channel=3, control=64, value=0, time=0),
    Message('control_change', channel=3, control=64, value=127, time=34),
    Message('note_off', channel=3, note=62, velocity=0, time=27),
    Message('note_off', channel=3, note=54, velocity=0, time=3),
    Message('note_off', channel=3, note=57, velocity=0, time=1),
    Message('note_off', channel=3, note=50, velocity=0, time=16),
    Message('note_on', channel=3, note=54, velocity=88, time=15),
    Message('note_on', channel=3, note=62, velocity=95, time=0),
    Message('note_on', channel=3, note=57, velocity=95, time=0),
    Message('note_on', channel=3, note=62, velocity=0, time=20),
    Message('note_on', channel=3, note=57, velocity=0, time=2),
    Message('note_on', channel=3, note=54, velocity=0, time=0),
    Message('note_on', channel=3, note=54, velocity=95, time=26),
    Message('note_on', channel=3, note=62, velocity=95, time=0),
    Message('note_on', channel=3, note=57, velocity=95, time=0),
    Message('note_on', channel=3, note=54, velocity=0, time=40),
    Message('note_on', channel=3, note=57, velocity=0, time=4),
    Message('note_on', channel=3, note=62, velocity=0, time=1),
    Message('note_on', channel=3, note=50, velocity=95, time=3),
    Message('note_on', channel=3, note=50, velocity=0, time=20),
    Message('note_on', channel=3, note=54, velocity=88, time=28),
    Message('note_on', channel=3, note=57, velocity=95, time=0),
    Message('note_on', channel=3, note=62, velocity=95, time=0),
    Message('note_on', channel=3, note=62, velocity=0, time=24),
    Message('note_on', channel=3, note=57, velocity=0, time=2),
    Message('note_on', channel=3, note=54, velocity=0, time=1),
    Message('note_on', channel=3, note=62, velocity=95, time=21),
    Message('note_on', channel=3, note=57, velocity=95, time=0),
    Message('note_on', channel=3, note=54, velocity=95, time=0),
    Message('note_on', channel=3, note=57, velocity=0, time=22),
    Message('note_on', channel=3, note=54, velocity=0, time=2),
    Message('note_on', channel=3, note=62, velocity=0, time=2),
    Message('control_change', channel=3, control=64, value=0, time=68),
    Message('note_on', channel=3, note=57, velocity=95, time=2),
    Message('note_on', channel=3, note=64, velocity=95, time=0),
    Message('note_on', channel=3, note=61, velocity=95, time=0),
    Message('note_on', channel=3, note=45, velocity=95, time=0),
    Message('note_on', channel=3, note=52, velocity=95, time=0),
    Message('note_on', channel=3, note=61, velocity=0, time=26),
    Message('note_on', channel=3, note=57, velocity=0, time=0),
    Message('note_on', channel=3, note=64, velocity=0, time=0),
    Message('control_change', channel=3, control=64, value=127, time=4),
    Message('note_off', channel=3, note=52, velocity=0, time=15),
    Message('note_off', channel=3, note=45, velocity=0, time=7),
    Message('note_on', channel=3, note=52, velocity=95, time=20),
    Message('note_on', channel=3, note=45, velocity=95, time=0),
    Message('note_on', channel=3, note=52, velocity=0, time=15),
    Message('note_on', channel=3, note=45, velocity=0, time=1),
    Message('note_on', channel=3, note=61, velocity=95, time=8),
    Message('note_on', channel=3, note=64, velocity=95, time=0),
    Message('note_on', channel=3, note=57, velocity=95, time=0),
    Message('note_on', channel=3, note=61, velocity=0, time=18),
    Message('note_on', channel=3, note=64, velocity=0, time=2),
    Message('note_on', channel=3, note=57, velocity=0, time=3),
    Message('note_on', channel=3, note=45, velocity=95, time=25),
    Message('note_on', channel=3, note=52, velocity=95, time=0),
    Message('note_on', channel=3, note=52, velocity=0, time=20),
    Message('note_on', channel=3, note=45, velocity=0, time=4),
    Message('note_on', channel=3, note=57, velocity=95, time=24),
    Message('note_on', channel=3, note=64, velocity=95, time=0),
    Message('note_on', channel=3, note=57, velocity=0, time=17),
    Message('note_on', channel=3, note=64, velocity=0, time=1),
    Message('note_on', channel=3, note=57, velocity=95, time=30),
    Message('note_on', channel=3, note=64, velocity=95, time=0),
    Message('note_on', channel=3, note=45, velocity=95, time=0),
    Message('note_on', channel=3, note=52, velocity=95, time=0),
    Message('note_on', channel=3, note=57, velocity=0, time=14),
    Message('note_on', channel=3, note=64, velocity=0, time=3),
    Message('note_on', channel=3, note=45, velocity=0, time=1),
    Message('note_on', channel=3, note=52, velocity=0, time=0),
    Message('note_on', channel=3, note=45, velocity=95, time=30),
    Message('note_on', channel=3, note=52, velocity=95, time=0),
    Message('note_on', channel=3, note=57, velocity=95, time=0),
    Message('note_on', channel=3, note=64, velocity=95, time=0),
    Message('note_on', channel=3, note=57, velocity=0, time=15),
    Message('note_on', channel=3, note=52, velocity=0, time=0),
    Message('note_on', channel=3, note=45, velocity=0, time=3),
    Message('note_on', channel=3, note=64, velocity=0, time=1),
    Message('note_on', channel=3, note=57, velocity=95, time=29),
    Message('note_on', channel=3, note=45, velocity=95, time=0),
    Message('note_on', channel=3, note=64, velocity=95, time=0),
    Message('note_on', channel=3, note=52, velocity=95, time=0),
    Message('note_on', channel=3, note=45, velocity=0, time=12),
    Message('note_on', channel=3, note=57, velocity=0, time=1),
    Message('note_on', channel=3, note=52, velocity=0, time=1),
    Message('note_on', channel=3, note=64, velocity=0, time=1),
    Message('control_change', channel=3, control=64, value=0, time=12),
    Message('note_on', channel=3, note=52, velocity=95, time=21),
    Message('note_on', channel=3, note=40, velocity=95, time=0),
    Message('note_on', channel=3, note=55, velocity=95, time=0),
    Message('note_on', channel=3, note=59, velocity=95, time=0),
    Message('note_on', channel=3, note=52, velocity=0, time=70),
    Message('note_on', channel=3, note=59, velocity=0, time=2),
    Message('note_on', channel=3, note=55, velocity=0, time=0),
    Message('control_change', channel=3, control=64, value=127, time=1),
    Message('note_off', channel=3, note=40, velocity=0, time=19),
    Message('note_on', channel=3, note=52, velocity=95, time=4),
    Message('note_on', channel=3, note=59, velocity=95, time=0),
    Message('note_on', channel=3, note=55, velocity=95, time=0),
    Message('note_on', channel=3, note=55, velocity=0, time=14),
    Message('note_on', channel=3, note=52, velocity=0, time=1),
    Message('note_on', channel=3, note=59, velocity=0, time=2),
    Message('note_on', channel=3, note=52, velocity=84, time=31),
    Message('note_on', channel=3, note=59, velocity=95, time=0),
    Message('note_on', channel=3, note=55, velocity=95, time=0),
    Message('note_on', channel=3, note=52, velocity=0, time=10),
    Message('note_on', channel=3, note=55, velocity=0, time=1),
    Message('note_on', channel=3, note=59, velocity=0, time=1),
    Message('note_on', channel=3, note=40, velocity=95, time=12),
    Message('note_on', channel=3, note=40, velocity=0, time=14),
    Message('note_on', channel=3, note=55, velocity=95, time=10),
    Message('note_on', channel=3, note=52, velocity=95, time=0),
    Message('note_on', channel=3, note=59, velocity=95, time=0),
    Message('note_on', channel=3, note=55, velocity=0, time=32),
    Message('note_on', channel=3, note=52, velocity=0, time=3),
    Message('note_on', channel=3, note=59, velocity=0, time=1),
    Message('note_on', channel=3, note=40, velocity=95, time=12),
    Message('note_on', channel=3, note=40, velocity=0, time=16),
    Message('note_on', channel=3, note=52, velocity=95, time=32),
    Message('note_on', channel=3, note=59, velocity=95, time=0),
    Message('note_on', channel=3, note=55, velocity=95, time=0),
    Message('note_on', channel=3, note=55, velocity=0, time=14),
    Message('note_on', channel=3, note=52, velocity=0, time=1),
    Message('note_on', channel=3, note=59, velocity=0, time=1),
    Message('note_on', channel=3, note=52, velocity=95, time=32),
    Message('note_on', channel=3, note=59, velocity=95, time=0),
    Message('note_on', channel=3, note=55, velocity=95, time=0),
    Message('note_on', channel=3, note=52, velocity=0, time=11),
    Message('note_on', channel=3, note=55, velocity=0, time=2),
    Message('note_on', channel=3, note=59, velocity=0, time=1),
    Message('note_on', channel=3, note=43, velocity=95, time=34),
    Message('control_change', channel=3, control=64, value=0, time=4),
    Message('control_change', channel=3, control=64, value=127, time=30),
    Message('note_on', channel=3, note=55, velocity=95, time=14),
    Message('note_on', channel=3, note=59, velocity=95, time=0),
    Message('note_on', channel=3, note=62, velocity=95, time=0),
    Message('note_on', channel=3, note=43, velocity=0, time=14),
    Message('note_on', channel=3, note=55, velocity=0, time=2),
    Message('note_on', channel=3, note=59, velocity=0, time=0),
    Message('note_on', channel=3, note=62, velocity=0, time=3),
    Message('note_on', channel=3, note=62, velocity=95, time=77),
    Message('note_on', channel=3, note=55, velocity=95, time=0),
    Message('note_on', channel=3, note=59, velocity=95, time=0),
    Message('note_on', channel=3, note=59, velocity=0, time=13),
    Message('note_on', channel=3, note=55, velocity=0, time=1),
    Message('note_on', channel=3, note=62, velocity=0, time=0),
    Message('note_on', channel=3, note=59, velocity=84, time=34),
    Message('note_on', channel=3, note=59, velocity=0, time=7),
    Message('note_on', channel=3, note=43, velocity=95, time=41),
    Message('note_on', channel=3, note=43, velocity=0, time=25),
    Message('note_on', channel=3, note=59, velocity=95, time=23),
    Message('note_on', channel=3, note=55, velocity=95, time=0),
    Message('note_on', channel=3, note=62, velocity=95, time=0),
    Message('note_on', channel=3, note=55, velocity=0, time=14),
    Message('note_on', channel=3, note=59, velocity=0, time=0),
    Message('note_on', channel=3, note=62, velocity=0, time=4),
    Message('control_change', channel=3, control=64, value=0, time=71),
    Message('note_on', channel=3, note=50, velocity=95, time=7),
    Message('note_on', channel=3, note=62, velocity=95, time=0),
    Message('note_on', channel=3, note=54, velocity=95, time=0),
    Message('note_on', channel=3, note=57, velocity=95, time=0),
    Message('control_change', channel=3, control=64, value=127, time=24),
    Message('note_off', channel=3, note=62, velocity=0, time=35),
    Message('note_off', channel=3, note=54, velocity=0, time=3),
    Message('note_off', channel=3, note=57, velocity=0, time=3),
    Message('note_off', channel=3, note=50, velocity=0, time=5),
    Message('note_on', channel=3, note=54, velocity=95, time=26),
    Message('note_on', channel=3, note=62, velocity=95, time=0),
    Message('note_on', channel=3, note=57, velocity=95, time=0),
    Message('note_on', channel=3, note=54, velocity=0, time=19),
    Message('note_on', channel=3, note=57, velocity=0, time=2),
    Message('note_on', channel=3, note=62, velocity=0, time=1),
    Message('note_on', channel=3, note=62, velocity=95, time=26),
    Message('note_on', channel=3, note=54, velocity=95, time=0),
    Message('note_on', channel=3, note=57, velocity=95, time=0),
    Message('note_on', channel=3, note=62, velocity=0, time=31),
    Message('note_on', channel=3, note=57, velocity=0, time=2),
    Message('note_on', channel=3, note=54, velocity=0, time=1),
    Message('note_on', channel=3, note=50, velocity=95, time=14),
    Message('note_on', channel=3, note=50, velocity=0, time=22),
    Message('note_on', channel=3, note=62, velocity=95, time=26),
    Message('note_on', channel=3, note=54, velocity=95, time=0),
    Message('note_on', channel=3, note=57, velocity=95, time=0),
    Message('note_on', channel=3, note=62, velocity=0, time=20),
    Message('note_on', channel=3, note=57, velocity=0, time=6),
    Message('note_on', channel=3, note=54, velocity=0, time=2),
    Message('note_on', channel=3, note=62, velocity=95, time=20),
    Message('note_on', channel=3, note=54, velocity=95, time=0),
    Message('note_on', channel=3, note=57, velocity=95, time=0),
    Message('note_on', channel=3, note=57, velocity=0, time=20),
    Message('note_on', channel=3, note=54, velocity=0, time=0),
    Message('note_on', channel=3, note=62, velocity=0, time=2),
    Message('note_on', channel=3, note=57, velocity=95, time=74),
    Message('note_on', channel=3, note=64, velocity=95, time=0),
    Message('note_on', channel=3, note=61, velocity=95, time=0),
    Message('note_on', channel=3, note=45, velocity=95, time=0),
    Message('control_change', channel=3, control=64, value=0, time=4),
    Message('note_off', channel=3, note=57, velocity=0, time=20),
    Message('note_off', channel=3, note=64, velocity=0, time=4),
    Message('note_off', channel=3, note=61, velocity=0, time=1),
    Message('control_change', channel=3, control=64, value=127, time=1),
    Message('note_on', channel=3, note=57, velocity=60, time=18),
    Message('note_on', channel=3, note=61, velocity=61, time=0),
    Message('note_on', channel=3, note=45, velocity=0, time=8),
    Message('note_on', channel=3, note=61, velocity=0, time=2),
    Message('note_on', channel=3, note=57, velocity=0, time=1),
    Message('note_on', channel=3, note=52, velocity=95, time=13),
    Message('note_on', channel=3, note=52, velocity=0, time=20),
    Message('note_on', channel=3, note=57, velocity=95, time=4),
    Message('note_on', channel=3, note=61, velocity=95, time=0),
    Message('note_on', channel=3, note=64, velocity=95, time=0),
    Message('note_on', channel=3, note=61, velocity=0, time=17),
    Message('note_on', channel=3, note=57, velocity=0, time=1),
    Message('note_on', channel=3, note=64, velocity=0, time=3),
    Message('note_on', channel=3, note=45, velocity=95, time=27),
    Message('note_on', channel=3, note=61, velocity=95, time=48),
    Message('note_on', channel=3, note=55, velocity=95, time=0),
    Message('note_on', channel=3, note=64, velocity=95, time=0),
    Message('note_on', channel=3, note=45, velocity=0, time=2),
    Message('note_on', channel=3, note=61, velocity=0, time=14),
    Message('note_on', channel=3, note=55, velocity=0, time=3),
    Message('note_on', channel=3, note=64, velocity=0, time=1),
    Message('note_on', channel=3, note=61, velocity=95, time=28),
    Message('note_on', channel=3, note=55, velocity=95, time=0),
    Message('note_on', channel=3, note=64, velocity=95, time=0),
    Message('note_on', channel=3, note=61, velocity=0, time=46),
    Message('note_on', channel=3, note=55, velocity=0, time=1),
    Message('note_on', channel=3, note=45, velocity=95, time=1),
    Message('note_on', channel=3, note=64, velocity=0, time=1),
    Message('note_on', channel=3, note=45, velocity=0, time=27),
    Message('note_on', channel=3, note=55, velocity=95, time=20),
    Message('note_on', channel=3, note=61, velocity=95, time=0),
    Message('note_on', channel=3, note=64, velocity=95, time=0),
    Message('note_on', channel=3, note=61, velocity=0, time=17),
    Message('note_on', channel=3, note=55, velocity=0, time=0),
    Message('note_on', channel=3, note=64, velocity=0, time=5),
    Message('control_change', channel=3, control=64, value=0, time=24),
    Message('note_on', channel=3, note=59, velocity=95, time=2),
    Message('note_on', channel=3, note=55, velocity=95, time=0),
    Message('note_on', channel=3, note=52, velocity=95, time=0),
    Message('control_change', channel=3, control=64, value=127, time=29),
    Message('note_off', channel=3, note=59, velocity=0, time=44),
    Message('note_off', channel=3, note=55, velocity=0, time=11),
    Message('note_off', channel=3, note=52, velocity=0, time=2),
    Message('note_on', channel=3, note=64, velocity=95, time=10),
    Message('note_on', channel=3, note=67, velocity=95, time=0),
    Message('note_on', channel=3, note=64, velocity=0, time=23),
    Message('note_on', channel=3, note=67, velocity=0, time=3),
    Message('note_on', channel=3, note=55, velocity=95, time=22),
    Message('note_on', channel=3, note=52, velocity=95, time=0),
    Message('note_on', channel=3, note=59, velocity=95, time=0),
    Message('note_on', channel=3, note=55, velocity=0, time=15),
    Message('note_on', channel=3, note=52, velocity=0, time=1),
    Message('note_on', channel=3, note=59, velocity=0, time=2),
    Message('note_on', channel=3, note=64, velocity=95, time=30),
    Message('note_on', channel=3, note=67, velocity=95, time=0),
    Message('note_on', channel=3, note=67, velocity=0, time=16),
    Message('note_on', channel=3, note=64, velocity=0, time=1),
    Message('note_on', channel=3, note=55, velocity=95, time=31),
    Message('note_on', channel=3, note=59, velocity=95, time=0),
    Message('note_on', channel=3, note=52, velocity=95, time=0),
    Message('note_on', channel=3, note=59, velocity=0, time=16),
    Message('note_on', channel=3, note=55, velocity=0, time=0),
    Message('note_on', channel=3, note=52, velocity=0, time=3),
    Message('note_on', channel=3, note=64, velocity=95, time=29),
    Message('note_on', channel=3, note=67, velocity=95, time=0),
    Message('note_on', channel=3, note=64, velocity=0, time=16),
    Message('note_on', channel=3, note=67, velocity=0, time=4),
    Message('note_on', channel=3, note=64, velocity=95, time=28),
    Message('note_on', channel=3, note=67, velocity=95, time=0),
    Message('note_on', channel=3, note=64, velocity=0, time=17),
    Message('note_on', channel=3, note=67, velocity=0, time=1),
    Message('note_on', channel=3, note=43, velocity=95, time=30),
    Message('control_change', channel=3, control=64, value=0, time=4),
    Message('control_change', channel=3, control=64, value=127, time=22),
    Message('note_on', channel=3, note=55, velocity=95, time=22),
    Message('note_on', channel=3, note=59, velocity=95, time=0),
    Message('note_on', channel=3, note=62, velocity=95, time=0),
    Message('note_on', channel=3, note=43, velocity=0, time=2),
    Message('note_on', channel=3, note=59, velocity=0, time=17),
    Message('note_on', channel=3, note=55, velocity=0, time=1),
    Message('note_on', channel=3, note=62, velocity=0, time=1),
    Message('note_on', channel=3, note=62, velocity=95, time=27),
    Message('note_on', channel=3, note=55, velocity=95, time=0),
    Message('note_on', channel=3, note=59, velocity=95, time=0),
    Message('note_on', channel=3, note=62, velocity=0, time=11),
    Message('note_on', channel=3, note=59, velocity=0, time=2),
    Message('note_on', channel=3, note=55, velocity=0, time=0),
    Message('note_on', channel=3, note=62, velocity=95, time=35),
    Message('note_on', channel=3, note=55, velocity=95, time=0),
    Message('note_on', channel=3, note=59, velocity=95, time=0),
    Message('note_on', channel=3, note=59, velocity=0, time=18),
    Message('note_on', channel=3, note=55, velocity=0, time=0),
    Message('note_on', channel=3, note=62, velocity=0, time=2),
    Message('note_on', channel=3, note=43, velocity=95, time=28),
    Message('note_on', channel=3, note=43, velocity=0, time=22),
    Message('note_on', channel=3, note=59, velocity=95, time=26),
    Message('note_on', channel=3, note=55, velocity=95, time=0),
    Message('note_on', channel=3, note=62, velocity=95, time=0),
    Message('note_on', channel=3, note=59, velocity=0, time=13),
    Message('note_on', channel=3, note=55, velocity=0, time=3),
    Message('note_on', channel=3, note=62, velocity=0, time=3),
    Message('note_on', channel=3, note=55, velocity=95, time=29),
    Message('note_on', channel=3, note=62, velocity=95, time=0),
    Message('note_on', channel=3, note=59, velocity=95, time=0),
    Message('note_on', channel=3, note=55, velocity=0, time=14),
    Message('note_on', channel=3, note=59, velocity=0, time=1),
    Message('note_on', channel=3, note=62, velocity=0, time=1),
    Message('note_on', channel=3, note=62, velocity=95, time=80),
    Message('note_on', channel=3, note=54, velocity=95, time=0),
    Message('note_on', channel=3, note=50, velocity=95, time=0),
    Message('note_on', channel=3, note=57, velocity=95, time=0),
    Message('control_change', channel=3, control=64, value=0, time=0),
    Message('control_change', channel=3, control=64, value=127, time=34),
    Message('note_off', channel=3, note=62, velocity=0, time=27),
    Message('note_off', channel=3, note=54, velocity=0, time=3),
    Message('note_off', channel=3, note=57, velocity=0, time=1),
    Message('note_off', channel=3, note=50, velocity=0, time=16),
    Message('note_on', channel=3, note=54, velocity=88, time=15),
    Message('note_on', channel=3, note=62, velocity=95, time=0),
    Message('note_on', channel=3, note=57, velocity=95, time=0),
    Message('note_on', channel=3, note=62, velocity=0, time=20),
    Message('note_on', channel=3, note=57, velocity=0, time=2),
    Message('note_on', channel=3, note=54, velocity=0, time=0),
    Message('note_on', channel=3, note=54, velocity=95, time=26),
    Message('note_on', channel=3, note=62, velocity=95, time=0),
    Message('note_on', channel=3, note=57, velocity=95, time=0),
    Message('note_on', channel=3, note=54, velocity=0, time=40),
    Message('note_on', channel=3, note=57, velocity=0, time=4),
    Message('note_on', channel=3, note=62, velocity=0, time=1),
    Message('note_on', channel=3, note=50, velocity=95, time=3),
    Message('note_on', channel=3, note=50, velocity=0, time=20),
    Message('note_on', channel=3, note=54, velocity=88, time=28),
    Message('note_on', channel=3, note=57, velocity=95, time=0),
    Message('note_on', channel=3, note=62, velocity=95, time=0),
    Message('note_on', channel=3, note=62, velocity=0, time=24),
    Message('note_on', channel=3, note=57, velocity=0, time=2),
    Message('note_on', channel=3, note=54, velocity=0, time=1),
    Message('note_on', channel=3, note=62, velocity=95, time=21),
    Message('note_on', channel=3, note=57, velocity=95, time=0),
    Message('note_on', channel=3, note=54, velocity=95, time=0),
    Message('note_on', channel=3, note=57, velocity=0, time=22),
    Message('note_on', channel=3, note=54, velocity=0, time=2),
    Message('note_on', channel=3, note=62, velocity=0, time=2),
    Message('control_change', channel=3, control=64, value=0, time=68),
    Message('note_on', channel=3, note=57, velocity=95, time=2),
    Message('note_on', channel=3, note=64, velocity=95, time=0),
    Message('note_on', channel=3, note=61, velocity=95, time=0),
    Message('note_on', channel=3, note=45, velocity=95, time=0),
    Message('note_on', channel=3, note=52, velocity=95, time=0),
    Message('note_on', channel=3, note=61, velocity=0, time=26),
    Message('note_on', channel=3, note=57, velocity=0, time=0),
    Message('note_on', channel=3, note=64, velocity=0, time=0),
    Message('control_change', channel=3, control=64, value=127, time=4),
    Message('note_off', channel=3, note=52, velocity=0, time=15),
    Message('note_off', channel=3, note=45, velocity=0, time=7),
    Message('note_on', channel=3, note=52, velocity=95, time=20),
    Message('note_on', channel=3, note=45, velocity=95, time=0),
    Message('note_on', channel=3, note=52, velocity=0, time=15),
    Message('note_on', channel=3, note=45, velocity=0, time=1),
    Message('note_on', channel=3, note=61, velocity=95, time=8),
    Message('note_on', channel=3, note=64, velocity=95, time=0),
    Message('note_on', channel=3, note=57, velocity=95, time=0),
    Message('note_on', channel=3, note=61, velocity=0, time=18),
    Message('note_on', channel=3, note=64, velocity=0, time=2),
    Message('note_on', channel=3, note=57, velocity=0, time=3),
    Message('note_on', channel=3, note=45, velocity=95, time=25),
    Message('note_on', channel=3, note=52, velocity=95, time=0),
    Message('note_on', channel=3, note=52, velocity=0, time=20),
    Message('note_on', channel=3, note=45, velocity=0, time=4),
    Message('note_on', channel=3, note=57, velocity=95, time=24),
    Message('note_on', channel=3, note=64, velocity=95, time=0),
    Message('note_on', channel=3, note=57, velocity=0, time=17),
    Message('note_on', channel=3, note=64, velocity=0, time=1),
    Message('note_on', channel=3, note=57, velocity=95, time=30),
    Message('note_on', channel=3, note=64, velocity=95, time=0),
    Message('note_on', channel=3, note=45, velocity=95, time=0),
    Message('note_on', channel=3, note=52, velocity=95, time=0),
    Message('note_on', channel=3, note=57, velocity=0, time=14),
    Message('note_on', channel=3, note=64, velocity=0, time=3),
    Message('note_on', channel=3, note=45, velocity=0, time=1),
    Message('note_on', channel=3, note=52, velocity=0, time=0),
    Message('note_on', channel=3, note=45, velocity=95, time=30),
    Message('note_on', channel=3, note=52, velocity=95, time=0),
    Message('note_on', channel=3, note=57, velocity=95, time=0),
    Message('note_on', channel=3, note=64, velocity=95, time=0),
    Message('note_on', channel=3, note=57, velocity=0, time=15),
    Message('note_on', channel=3, note=52, velocity=0, time=0),
    Message('note_on', channel=3, note=45, velocity=0, time=3),
    Message('note_on', channel=3, note=64, velocity=0, time=1),
    Message('note_on', channel=3, note=57, velocity=95, time=29),
    Message('note_on', channel=3, note=45, velocity=95, time=0),
    Message('note_on', channel=3, note=64, velocity=95, time=0),
    Message('note_on', channel=3, note=52, velocity=95, time=0),
    Message('note_on', channel=3, note=45, velocity=0, time=12),
    Message('note_on', channel=3, note=57, velocity=0, time=1),
    Message('note_on', channel=3, note=52, velocity=0, time=1),
    Message('note_on', channel=3, note=64, velocity=0, time=1),
    Message('control_change', channel=3, control=64, value=0, time=12),
    Message('note_on', channel=3, note=52, velocity=95, time=21),
    Message('note_on', channel=3, note=40, velocity=95, time=0),
    Message('note_on', channel=3, note=55, velocity=95, time=0),
    Message('note_on', channel=3, note=59, velocity=95, time=0),
    Message('note_on', channel=3, note=52, velocity=0, time=70),
    Message('note_on', channel=3, note=59, velocity=0, time=2),
    Message('note_on', channel=3, note=55, velocity=0, time=0),
    Message('control_change', channel=3, control=64, value=127, time=1),
    Message('note_off', channel=3, note=40, velocity=0, time=19),
    Message('note_on', channel=3, note=52, velocity=95, time=4),
    Message('note_on', channel=3, note=59, velocity=95, time=0),
    Message('note_on', channel=3, note=55, velocity=95, time=0),
    Message('note_on', channel=3, note=55, velocity=0, time=14),
    Message('note_on', channel=3, note=52, velocity=0, time=1),
    Message('note_on', channel=3, note=59, velocity=0, time=2),
    Message('note_on', channel=3, note=52, velocity=84, time=31),
    Message('note_on', channel=3, note=59, velocity=95, time=0),
    Message('note_on', channel=3, note=55, velocity=95, time=0),
    Message('note_on', channel=3, note=52, velocity=0, time=10),
    Message('note_on', channel=3, note=55, velocity=0, time=1),
    Message('note_on', channel=3, note=59, velocity=0, time=1),
    Message('note_on', channel=3, note=40, velocity=95, time=12),
    Message('note_on', channel=3, note=40, velocity=0, time=14),
    Message('note_on', channel=3, note=55, velocity=95, time=10),
    Message('note_on', channel=3, note=52, velocity=95, time=0),
    Message('note_on', channel=3, note=59, velocity=95, time=0),
    Message('note_on', channel=3, note=55, velocity=0, time=32),
    Message('note_on', channel=3, note=52, velocity=0, time=3),
    Message('note_on', channel=3, note=59, velocity=0, time=1),
    Message('note_on', channel=3, note=40, velocity=95, time=12),
    Message('note_on', channel=3, note=40, velocity=0, time=16),
    Message('note_on', channel=3, note=52, velocity=95, time=32),
    Message('note_on', channel=3, note=59, velocity=95, time=0),
    Message('note_on', channel=3, note=55, velocity=95, time=0),
    Message('note_on', channel=3, note=55, velocity=0, time=14),
    Message('note_on', channel=3, note=52, velocity=0, time=1),
    Message('note_on', channel=3, note=59, velocity=0, time=1),
    Message('note_on', channel=3, note=52, velocity=95, time=32),
    Message('note_on', channel=3, note=59, velocity=95, time=0),
    Message('note_on', channel=3, note=55, velocity=95, time=0),
    Message('note_on', channel=3, note=52, velocity=0, time=11),
    Message('note_on', channel=3, note=55, velocity=0, time=2),
    Message('note_on', channel=3, note=59, velocity=0, time=1),
    Message('note_on', channel=3, note=43, velocity=95, time=34),
    Message('control_change', channel=3, control=64, value=0, time=4),
    Message('control_change', channel=3, control=64, value=127, time=30),
    Message('note_on', channel=3, note=55, velocity=95, time=14),
    Message('note_on', channel=3, note=59, velocity=95, time=0),
    Message('note_on', channel=3, note=62, velocity=95, time=0),
    Message('note_on', channel=3, note=43, velocity=0, time=14),
    Message('note_on', channel=3, note=55, velocity=0, time=2),
    Message('note_on', channel=3, note=59, velocity=0, time=0),
    Message('note_on', channel=3, note=62, velocity=0, time=3),
    Message('note_on', channel=3, note=62, velocity=95, time=77),
    Message('note_on', channel=3, note=55, velocity=95, time=0),
    Message('note_on', channel=3, note=59, velocity=95, time=0),
    Message('note_on', channel=3, note=59, velocity=0, time=13),
    Message('note_on', channel=3, note=55, velocity=0, time=1),
    Message('note_on', channel=3, note=62, velocity=0, time=0),
    Message('note_on', channel=3, note=59, velocity=84, time=34),
    Message('note_on', channel=3, note=59, velocity=0, time=7),
    Message('note_on', channel=3, note=43, velocity=95, time=41),
    Message('note_on', channel=3, note=43, velocity=0, time=25),
    Message('note_on', channel=3, note=59, velocity=95, time=23),
    Message('note_on', channel=3, note=55, velocity=95, time=0),
    Message('note_on', channel=3, note=62, velocity=95, time=0),
    Message('note_on', channel=3, note=55, velocity=0, time=14),
    Message('note_on', channel=3, note=59, velocity=0, time=0),
    Message('note_on', channel=3, note=62, velocity=0, time=4),
    Message('control_change', channel=3, control=64, value=0, time=71),
    Message('note_on', channel=3, note=50, velocity=95, time=7),
    Message('note_on', channel=3, note=62, velocity=95, time=0),
    Message('note_on', channel=3, note=54, velocity=95, time=0),
    Message('note_on', channel=3, note=57, velocity=95, time=0),
    Message('control_change', channel=3, control=64, value=127, time=24),
    Message('note_off', channel=3, note=62, velocity=0, time=35),
    Message('note_off', channel=3, note=54, velocity=0, time=3),
    Message('note_off', channel=3, note=57, velocity=0, time=3),
    Message('note_off', channel=3, note=50, velocity=0, time=5),
    Message('note_on', channel=3, note=54, velocity=95, time=26),
    Message('note_on', channel=3, note=62, velocity=95, time=0),
    Message('note_on', channel=3, note=57, velocity=95, time=0),
    Message('note_on', channel=3, note=54, velocity=0, time=19),
    Message('note_on', channel=3, note=57, velocity=0, time=2),
    Message('note_on', channel=3, note=62, velocity=0, time=1),
    Message('note_on', channel=3, note=62, velocity=95, time=26),
    Message('note_on', channel=3, note=54, velocity=95, time=0),
    Message('note_on', channel=3, note=57, velocity=95, time=0),
    Message('note_on', channel=3, note=62, velocity=0, time=31),
    Message('note_on', channel=3, note=57, velocity=0, time=2),
    Message('note_on', channel=3, note=54, velocity=0, time=1),
    Message('note_on', channel=3, note=50, velocity=95, time=14),
    Message('note_on', channel=3, note=50, velocity=0, time=22),
    Message('note_on', channel=3, note=62, velocity=95, time=26),
    Message('note_on', channel=3, note=54, velocity=95, time=0),
    Message('note_on', channel=3, note=57, velocity=95, time=0),
    Message('note_on', channel=3, note=62, velocity=0, time=20),
    Message('note_on', channel=3, note=57, velocity=0, time=6),
    Message('note_on', channel=3, note=54, velocity=0, time=2),
    Message('note_on', channel=3, note=62, velocity=95, time=20),
    Message('note_on', channel=3, note=54, velocity=95, time=0),
    Message('note_on', channel=3, note=57, velocity=95, time=0),
    Message('note_on', channel=3, note=57, velocity=0, time=20),
    Message('note_on', channel=3, note=54, velocity=0, time=0),
    Message('note_on', channel=3, note=62, velocity=0, time=2),
    Message('note_on', channel=3, note=57, velocity=95, time=74),
    Message('note_on', channel=3, note=64, velocity=95, time=0),
    Message('note_on', channel=3, note=61, velocity=95, time=0),
    Message('note_on', channel=3, note=45, velocity=95, time=0),
    Message('control_change', channel=3, control=64, value=0, time=4),
    Message('note_off', channel=3, note=57, velocity=0, time=20),
    Message('note_off', channel=3, note=64, velocity=0, time=4),
    Message('note_off', channel=3, note=61, velocity=0, time=1),
    Message('control_change', channel=3, control=64, value=127, time=1),
    Message('note_on', channel=3, note=57, velocity=60, time=18),
    Message('note_on', channel=3, note=61, velocity=61, time=0),
    Message('note_on', channel=3, note=45, velocity=0, time=8),
    Message('note_on', channel=3, note=61, velocity=0, time=2),
    Message('note_on', channel=3, note=57, velocity=0, time=1),
    Message('note_on', channel=3, note=52, velocity=95, time=13),
    Message('note_on', channel=3, note=52, velocity=0, time=20),
    Message('note_on', channel=3, note=57, velocity=95, time=4),
    Message('note_on', channel=3, note=61, velocity=95, time=0),
    Message('note_on', channel=3, note=64, velocity=95, time=0),
    Message('note_on', channel=3, note=61, velocity=0, time=17),
    Message('note_on', channel=3, note=57, velocity=0, time=1),
    Message('note_on', channel=3, note=64, velocity=0, time=3),
    Message('note_on', channel=3, note=45, velocity=95, time=27),
    Message('note_on', channel=3, note=61, velocity=95, time=48),
    Message('note_on', channel=3, note=55, velocity=95, time=0),
    Message('note_on', channel=3, note=64, velocity=95, time=0),
    Message('note_on', channel=3, note=45, velocity=0, time=2),
    Message('note_on', channel=3, note=61, velocity=0, time=14),
    Message('note_on', channel=3, note=55, velocity=0, time=3),
    Message('note_on', channel=3, note=64, velocity=0, time=1),
    Message('note_on', channel=3, note=61, velocity=95, time=28),
    Message('note_on', channel=3, note=55, velocity=95, time=0),
    Message('note_on', channel=3, note=64, velocity=95, time=0),
    Message('note_on', channel=3, note=61, velocity=0, time=46),
    Message('note_on', channel=3, note=55, velocity=0, time=1),
    Message('note_on', channel=3, note=45, velocity=95, time=1),
    Message('note_on', channel=3, note=64, velocity=0, time=1),
    Message('note_on', channel=3, note=45, velocity=0, time=27),
    Message('note_on', channel=3, note=55, velocity=95, time=20),
    Message('note_on', channel=3, note=61, velocity=95, time=0),
    Message('note_on', channel=3, note=64, velocity=95, time=0),
    Message('note_on', channel=3, note=61, velocity=0, time=17),
    Message('note_on', channel=3, note=55, velocity=0, time=0),
    Message('note_on', channel=3, note=64, velocity=0, time=5),
    Message('control_change', channel=3, control=64, value=0, time=24),
    Message('note_on', channel=3, note=59, velocity=95, time=2),
    Message('note_on', channel=3, note=55, velocity=95, time=0),
    Message('note_on', channel=3, note=52, velocity=95, time=0),
    Message('control_change', channel=3, control=64, value=127, time=29),
    Message('note_off', channel=3, note=59, velocity=0, time=44),
    Message('note_off', channel=3, note=55, velocity=0, time=11),
    Message('note_off', channel=3, note=52, velocity=0, time=2),
    Message('note_on', channel=3, note=64, velocity=95, time=10),
    Message('note_on', channel=3, note=67, velocity=95, time=0),
    Message('note_on', channel=3, note=64, velocity=0, time=23),
    Message('note_on', channel=3, note=67, velocity=0, time=3),
    Message('note_on', channel=3, note=55, velocity=95, time=22),
    Message('note_on', channel=3, note=52, velocity=95, time=0),
    Message('note_on', channel=3, note=59, velocity=95, time=0),
    Message('note_on', channel=3, note=55, velocity=0, time=15),
    Message('note_on', channel=3, note=52, velocity=0, time=1),
    Message('note_on', channel=3, note=59, velocity=0, time=2),
    Message('note_on', channel=3, note=64, velocity=95, time=30),
    Message('note_on', channel=3, note=67, velocity=95, time=0),
    Message('note_on', channel=3, note=67, velocity=0, time=16),
    Message('note_on', channel=3, note=64, velocity=0, time=1),
    Message('note_on', channel=3, note=55, velocity=95, time=31),
    Message('note_on', channel=3, note=59, velocity=95, time=0),
    Message('note_on', channel=3, note=52, velocity=95, time=0),
    Message('note_on', channel=3, note=59, velocity=0, time=16),
    Message('note_on', channel=3, note=55, velocity=0, time=0),
    Message('note_on', channel=3, note=52, velocity=0, time=3),
    Message('note_on', channel=3, note=64, velocity=95, time=29),
    Message('note_on', channel=3, note=67, velocity=95, time=0),
    Message('note_on', channel=3, note=64, velocity=0, time=16),
    Message('note_on', channel=3, note=67, velocity=0, time=4),
    Message('note_on', channel=3, note=64, velocity=95, time=28),
    Message('note_on', channel=3, note=67, velocity=95, time=0),
    Message('note_on', channel=3, note=64, velocity=0, time=17),
    Message('note_on', channel=3, note=67, velocity=0, time=1),
    Message('note_on', channel=3, note=43, velocity=95, time=30),
    Message('control_change', channel=3, control=64, value=0, time=4),
    Message('control_change', channel=3, control=64, value=127, time=22),
    Message('note_on', channel=3, note=55, velocity=95, time=22),
    Message('note_on', channel=3, note=59, velocity=95, time=0),
    Message('note_on', channel=3, note=62, velocity=95, time=0),
    Message('note_on', channel=3, note=43, velocity=0, time=2),
    Message('note_on', channel=3, note=59, velocity=0, time=17),
    Message('note_on', channel=3, note=55, velocity=0, time=1),
    Message('note_on', channel=3, note=62, velocity=0, time=1),
    Message('note_on', channel=3, note=62, velocity=95, time=27),
    Message('note_on', channel=3, note=55, velocity=95, time=0),
    Message('note_on', channel=3, note=59, velocity=95, time=0),
    Message('note_on', channel=3, note=62, velocity=0, time=11),
    Message('note_on', channel=3, note=59, velocity=0, time=2),
    Message('note_on', channel=3, note=55, velocity=0, time=0),
    Message('note_on', channel=3, note=62, velocity=95, time=35),
    Message('note_on', channel=3, note=55, velocity=95, time=0),
    Message('note_on', channel=3, note=59, velocity=95, time=0),
    Message('note_on', channel=3, note=59, velocity=0, time=18),
    Message('note_on', channel=3, note=55, velocity=0, time=0),
    Message('note_on', channel=3, note=62, velocity=0, time=2),
    Message('note_on', channel=3, note=43, velocity=95, time=28),
    Message('note_on', channel=3, note=43, velocity=0, time=22),
    Message('note_on', channel=3, note=59, velocity=95, time=26),
    Message('note_on', channel=3, note=55, velocity=95, time=0),
    Message('note_on', channel=3, note=62, velocity=95, time=0),
    Message('note_on', channel=3, note=59, velocity=0, time=13),
    Message('note_on', channel=3, note=55, velocity=0, time=3),
    Message('note_on', channel=3, note=62, velocity=0, time=3),
    Message('note_on', channel=3, note=55, velocity=95, time=29),
    Message('note_on', channel=3, note=62, velocity=95, time=0),
    Message('note_on', channel=3, note=59, velocity=95, time=0),
    Message('note_on', channel=3, note=55, velocity=0, time=14),
    Message('note_on', channel=3, note=59, velocity=0, time=1),
    Message('note_on', channel=3, note=62, velocity=0, time=1),
    Message('note_on', channel=3, note=62, velocity=95, time=80),
    Message('note_on', channel=3, note=54, velocity=95, time=0),
    Message('note_on', channel=3, note=50, velocity=95, time=0),
    Message('note_on', channel=3, note=57, velocity=95, time=0),
    Message('control_change', channel=3, control=64, value=0, time=0),
    Message('control_change', channel=3, control=64, value=127, time=34),
    Message('note_off', channel=3, note=62, velocity=0, time=27),
    Message('note_off', channel=3, note=54, velocity=0, time=3),
    Message('note_off', channel=3, note=57, velocity=0, time=1),
    Message('note_off', channel=3, note=50, velocity=0, time=16),
    Message('note_on', channel=3, note=54, velocity=88, time=15),
    Message('note_on', channel=3, note=62, velocity=95, time=0),
    Message('note_on', channel=3, note=57, velocity=95, time=0),
    Message('note_on', channel=3, note=62, velocity=0, time=20),
    Message('note_on', channel=3, note=57, velocity=0, time=2),
    Message('note_on', channel=3, note=54, velocity=0, time=0),
    Message('note_on', channel=3, note=54, velocity=95, time=26),
    Message('note_on', channel=3, note=62, velocity=95, time=0),
    Message('note_on', channel=3, note=57, velocity=95, time=0),
    Message('note_on', channel=3, note=54, velocity=0, time=40),
    Message('note_on', channel=3, note=57, velocity=0, time=4),
    Message('note_on', channel=3, note=62, velocity=0, time=1),
    Message('note_on', channel=3, note=50, velocity=95, time=3),
    Message('note_on', channel=3, note=50, velocity=0, time=20),
    Message('note_on', channel=3, note=54, velocity=88, time=28),
    Message('note_on', channel=3, note=57, velocity=95, time=0),
    Message('note_on', channel=3, note=62, velocity=95, time=0),
    Message('note_on', channel=3, note=62, velocity=0, time=24),
    Message('note_on', channel=3, note=57, velocity=0, time=2),
    Message('note_on', channel=3, note=54, velocity=0, time=1),
    Message('note_on', channel=3, note=62, velocity=95, time=21),
    Message('note_on', channel=3, note=57, velocity=95, time=0),
    Message('note_on', channel=3, note=54, velocity=95, time=0),
    Message('note_on', channel=3, note=57, velocity=0, time=22),
    Message('note_on', channel=3, note=54, velocity=0, time=2),
    Message('note_on', channel=3, note=62, velocity=0, time=2),
    Message('control_change', channel=3, control=64, value=0, time=68),
    Message('note_on', channel=3, note=57, velocity=95, time=2),
    Message('note_on', channel=3, note=64, velocity=95, time=0),
    Message('note_on', channel=3, note=61, velocity=95, time=0),
    Message('note_on', channel=3, note=45, velocity=95, time=0),
    Message('note_on', channel=3, note=52, velocity=95, time=0),
    Message('note_on', channel=3, note=61, velocity=0, time=26),
    Message('note_on', channel=3, note=57, velocity=0, time=0),
    Message('note_on', channel=3, note=64, velocity=0, time=0),
    Message('control_change', channel=3, control=64, value=127, time=4),
    Message('note_off', channel=3, note=52, velocity=0, time=15),
    Message('note_off', channel=3, note=45, velocity=0, time=7),
    Message('note_on', channel=3, note=52, velocity=95, time=20),
    Message('note_on', channel=3, note=45, velocity=95, time=0),
    Message('note_on', channel=3, note=52, velocity=0, time=15),
    Message('note_on', channel=3, note=45, velocity=0, time=1),
    Message('note_on', channel=3, note=61, velocity=95, time=8),
    Message('note_on', channel=3, note=64, velocity=95, time=0),
    Message('note_on', channel=3, note=57, velocity=95, time=0),
    Message('note_on', channel=3, note=61, velocity=0, time=18),
    Message('note_on', channel=3, note=64, velocity=0, time=2),
    Message('note_on', channel=3, note=57, velocity=0, time=3),
    Message('note_on', channel=3, note=45, velocity=95, time=25),
    Message('note_on', channel=3, note=52, velocity=95, time=0),
    Message('note_on', channel=3, note=52, velocity=0, time=20),
    Message('note_on', channel=3, note=45, velocity=0, time=4),
    Message('note_on', channel=3, note=57, velocity=95, time=24),
    Message('note_on', channel=3, note=64, velocity=95, time=0),
    Message('note_on', channel=3, note=57, velocity=0, time=17),
    Message('note_on', channel=3, note=64, velocity=0, time=1),
    Message('note_on', channel=3, note=57, velocity=95, time=30),
    Message('note_on', channel=3, note=64, velocity=95, time=0),
    Message('note_on', channel=3, note=45, velocity=95, time=0),
    Message('note_on', channel=3, note=52, velocity=95, time=0),
    Message('note_on', channel=3, note=57, velocity=0, time=14),
    Message('note_on', channel=3, note=64, velocity=0, time=3),
    Message('note_on', channel=3, note=45, velocity=0, time=1),
    Message('note_on', channel=3, note=52, velocity=0, time=0),
    Message('note_on', channel=3, note=45, velocity=95, time=30),
    Message('note_on', channel=3, note=52, velocity=95, time=0),
    Message('note_on', channel=3, note=57, velocity=95, time=0),
    Message('note_on', channel=3, note=64, velocity=95, time=0),
    Message('note_on', channel=3, note=57, velocity=0, time=15),
    Message('note_on', channel=3, note=52, velocity=0, time=0),
    Message('note_on', channel=3, note=45, velocity=0, time=3),
    Message('note_on', channel=3, note=64, velocity=0, time=1),
    Message('note_on', channel=3, note=57, velocity=95, time=29),
    Message('note_on', channel=3, note=45, velocity=95, time=0),
    Message('note_on', channel=3, note=64, velocity=95, time=0),
    Message('note_on', channel=3, note=52, velocity=95, time=0),
    Message('note_on', channel=3, note=45, velocity=0, time=12),
    Message('note_on', channel=3, note=57, velocity=0, time=1),
    Message('note_on', channel=3, note=52, velocity=0, time=1),
    Message('note_on', channel=3, note=64, velocity=0, time=1),
    Message('control_change', channel=3, control=64, value=0, time=12),
    Message('note_on', channel=3, note=52, velocity=95, time=21),
    Message('note_on', channel=3, note=40, velocity=95, time=0),
    Message('note_on', channel=3, note=55, velocity=95, time=0),
    Message('note_on', channel=3, note=59, velocity=95, time=0),
    Message('note_on', channel=3, note=52, velocity=0, time=70),
    Message('note_on', channel=3, note=59, velocity=0, time=2),
    Message('note_on', channel=3, note=55, velocity=0, time=0),
    Message('control_change', channel=3, control=64, value=127, time=1),
    Message('note_off', channel=3, note=40, velocity=0, time=19),
    Message('note_on', channel=3, note=52, velocity=95, time=4),
    Message('note_on', channel=3, note=59, velocity=95, time=0),
    Message('note_on', channel=3, note=55, velocity=95, time=0),
    Message('note_on', channel=3, note=55, velocity=0, time=14),
    Message('note_on', channel=3, note=52, velocity=0, time=1),
    Message('note_on', channel=3, note=59, velocity=0, time=2),
    Message('note_on', channel=3, note=52, velocity=84, time=31),
    Message('note_on', channel=3, note=59, velocity=95, time=0),
    Message('note_on', channel=3, note=55, velocity=95, time=0),
    Message('note_on', channel=3, note=52, velocity=0, time=10),
    Message('note_on', channel=3, note=55, velocity=0, time=1),
    Message('note_on', channel=3, note=59, velocity=0, time=1),
    Message('note_on', channel=3, note=40, velocity=95, time=12),
    Message('note_on', channel=3, note=40, velocity=0, time=14),
    Message('note_on', channel=3, note=55, velocity=95, time=10),
    Message('note_on', channel=3, note=52, velocity=95, time=0),
    Message('note_on', channel=3, note=59, velocity=95, time=0),
    Message('note_on', channel=3, note=55, velocity=0, time=32),
    Message('note_on', channel=3, note=52, velocity=0, time=3),
    Message('note_on', channel=3, note=59, velocity=0, time=1),
    Message('note_on', channel=3, note=40, velocity=95, time=12),
    Message('note_on', channel=3, note=40, velocity=0, time=16),
    Message('note_on', channel=3, note=52, velocity=95, time=32),
    Message('note_on', channel=3, note=59, velocity=95, time=0),
    Message('note_on', channel=3, note=55, velocity=95, time=0),
    Message('note_on', channel=3, note=55, velocity=0, time=14),
    Message('note_on', channel=3, note=52, velocity=0, time=1),
    Message('note_on', channel=3, note=59, velocity=0, time=1),
    Message('note_on', channel=3, note=52, velocity=95, time=32),
    Message('note_on', channel=3, note=59, velocity=95, time=0),
    Message('note_on', channel=3, note=55, velocity=95, time=0),
    Message('note_on', channel=3, note=52, velocity=0, time=11),
    Message('note_on', channel=3, note=55, velocity=0, time=2),
    Message('note_on', channel=3, note=59, velocity=0, time=1),
    Message('note_on', channel=3, note=43, velocity=95, time=34),
    Message('control_change', channel=3, control=64, value=0, time=4),
    Message('control_change', channel=3, control=64, value=127, time=30),
    Message('note_on', channel=3, note=55, velocity=95, time=14),
    Message('note_on', channel=3, note=59, velocity=95, time=0),
    Message('note_on', channel=3, note=62, velocity=95, time=0),
    Message('note_on', channel=3, note=43, velocity=0, time=14),
    Message('note_on', channel=3, note=55, velocity=0, time=2),
    Message('note_on', channel=3, note=59, velocity=0, time=0),
    Message('note_on', channel=3, note=62, velocity=0, time=3),
    Message('note_on', channel=3, note=62, velocity=95, time=77),
    Message('note_on', channel=3, note=55, velocity=95, time=0),
    Message('note_on', channel=3, note=59, velocity=95, time=0),
    Message('note_on', channel=3, note=59, velocity=0, time=13),
    Message('note_on', channel=3, note=55, velocity=0, time=1),
    Message('note_on', channel=3, note=62, velocity=0, time=0),
    Message('note_on', channel=3, note=59, velocity=84, time=34),
    Message('note_on', channel=3, note=59, velocity=0, time=7),
    Message('note_on', channel=3, note=43, velocity=95, time=41),
    Message('note_on', channel=3, note=43, velocity=0, time=25),
    Message('note_on', channel=3, note=59, velocity=95, time=23),
    Message('note_on', channel=3, note=55, velocity=95, time=0),
    Message('note_on', channel=3, note=62, velocity=95, time=0),
    Message('note_on', channel=3, note=55, velocity=0, time=14),
    Message('note_on', channel=3, note=59, velocity=0, time=0),
    Message('note_on', channel=3, note=62, velocity=0, time=4),
    Message('control_change', channel=3, control=64, value=0, time=71),
    Message('note_on', channel=3, note=50, velocity=95, time=7),
    Message('note_on', channel=3, note=62, velocity=95, time=0),
    Message('note_on', channel=3, note=54, velocity=95, time=0),
    Message('note_on', channel=3, note=57, velocity=95, time=0),
    Message('control_change', channel=3, control=64, value=127, time=24),
    Message('note_off', channel=3, note=62, velocity=0, time=35),
    Message('note_off', channel=3, note=54, velocity=0, time=3),
    Message('note_off', channel=3, note=57, velocity=0, time=3),
    Message('note_off', channel=3, note=50, velocity=0, time=5),
    Message('note_on', channel=3, note=54, velocity=95, time=26),
    Message('note_on', channel=3, note=62, velocity=95, time=0),
    Message('note_on', channel=3, note=57, velocity=95, time=0),
    Message('note_on', channel=3, note=54, velocity=0, time=19),
    Message('note_on', channel=3, note=57, velocity=0, time=2),
    Message('note_on', channel=3, note=62, velocity=0, time=1),
    Message('note_on', channel=3, note=62, velocity=95, time=26),
    Message('note_on', channel=3, note=54, velocity=95, time=0),
    Message('note_on', channel=3, note=57, velocity=95, time=0),
    Message('note_on', channel=3, note=62, velocity=0, time=31),
    Message('note_on', channel=3, note=57, velocity=0, time=2),
    Message('note_on', channel=3, note=54, velocity=0, time=1),
    Message('note_on', channel=3, note=50, velocity=95, time=14),
    Message('note_on', channel=3, note=50, velocity=0, time=22),
    Message('note_on', channel=3, note=62, velocity=95, time=26),
    Message('note_on', channel=3, note=54, velocity=95, time=0),
    Message('note_on', channel=3, note=57, velocity=95, time=0),
    Message('note_on', channel=3, note=62, velocity=0, time=20),
    Message('note_on', channel=3, note=57, velocity=0, time=6),
    Message('note_on', channel=3, note=54, velocity=0, time=2),
    Message('note_on', channel=3, note=62, velocity=95, time=20),
    Message('note_on', channel=3, note=54, velocity=95, time=0),
    Message('note_on', channel=3, note=57, velocity=95, time=0),
    Message('note_on', channel=3, note=57, velocity=0, time=20),
    Message('note_on', channel=3, note=54, velocity=0, time=0),
    Message('note_on', channel=3, note=62, velocity=0, time=2),
    Message('note_on', channel=3, note=57, velocity=95, time=74),
    Message('note_on', channel=3, note=64, velocity=95, time=0),
    Message('note_on', channel=3, note=61, velocity=95, time=0),
    Message('note_on', channel=3, note=45, velocity=95, time=0),
    Message('control_change', channel=3, control=64, value=0, time=4),
    Message('note_off', channel=3, note=57, velocity=0, time=20),
    Message('note_off', channel=3, note=64, velocity=0, time=4),
    Message('note_off', channel=3, note=61, velocity=0, time=1),
    Message('control_change', channel=3, control=64, value=127, time=1),
    Message('note_on', channel=3, note=57, velocity=60, time=18),
    Message('note_on', channel=3, note=61, velocity=61, time=0),
    Message('note_on', channel=3, note=45, velocity=0, time=8),
    Message('note_on', channel=3, note=61, velocity=0, time=2),
    Message('note_on', channel=3, note=57, velocity=0, time=1),
    Message('note_on', channel=3, note=52, velocity=95, time=13),
    Message('note_on', channel=3, note=52, velocity=0, time=20),
    Message('note_on', channel=3, note=57, velocity=95, time=4),
    Message('note_on', channel=3, note=61, velocity=95, time=0),
    Message('note_on', channel=3, note=64, velocity=95, time=0),
    Message('note_on', channel=3, note=61, velocity=0, time=17),
    Message('note_on', channel=3, note=57, velocity=0, time=1),
    Message('note_on', channel=3, note=64, velocity=0, time=3),
    Message('note_on', channel=3, note=45, velocity=95, time=27),
    Message('note_on', channel=3, note=61, velocity=95, time=48),
    Message('note_on', channel=3, note=55, velocity=95, time=0),
    Message('note_on', channel=3, note=64, velocity=95, time=0),
    Message('note_on', channel=3, note=45, velocity=0, time=2),
    Message('note_on', channel=3, note=61, velocity=0, time=14),
    Message('note_on', channel=3, note=55, velocity=0, time=3),
    Message('note_on', channel=3, note=64, velocity=0, time=1),
    Message('note_on', channel=3, note=61, velocity=95, time=28),
    Message('note_on', channel=3, note=55, velocity=95, time=0),
    Message('note_on', channel=3, note=64, velocity=95, time=0),
    Message('note_on', channel=3, note=61, velocity=0, time=46),
    Message('note_on', channel=3, note=55, velocity=0, time=1),
    Message('note_on', channel=3, note=45, velocity=95, time=1),
    Message('note_on', channel=3, note=64, velocity=0, time=1),
    Message('note_on', channel=3, note=45, velocity=0, time=27),
    Message('note_on', channel=3, note=55, velocity=95, time=20),
    Message('note_on', channel=3, note=61, velocity=95, time=0),
    Message('note_on', channel=3, note=64, velocity=95, time=0),
    Message('note_on', channel=3, note=61, velocity=0, time=17),
    Message('note_on', channel=3, note=55, velocity=0, time=0),
    Message('note_on', channel=3, note=64, velocity=0, time=5),
    Message('control_change', channel=3, control=64, value=0, time=24),
    Message('note_on', channel=3, note=59, velocity=95, time=2),
    Message('note_on', channel=3, note=55, velocity=95, time=0),
    Message('note_on', channel=3, note=52, velocity=95, time=0),
    Message('control_change', channel=3, control=64, value=127, time=29),
    Message('note_off', channel=3, note=59, velocity=0, time=44),
    Message('note_off', channel=3, note=55, velocity=0, time=11),
    Message('note_off', channel=3, note=52, velocity=0, time=2),
    Message('note_on', channel=3, note=64, velocity=95, time=10),
    Message('note_on', channel=3, note=67, velocity=95, time=0),
    Message('note_on', channel=3, note=64, velocity=0, time=23),
    Message('note_on', channel=3, note=67, velocity=0, time=3),
    Message('note_on', channel=3, note=55, velocity=95, time=22),
    Message('note_on', channel=3, note=52, velocity=95, time=0),
    Message('note_on', channel=3, note=59, velocity=95, time=0),
    Message('note_on', channel=3, note=55, velocity=0, time=15),
    Message('note_on', channel=3, note=52, velocity=0, time=1),
    Message('note_on', channel=3, note=59, velocity=0, time=2),
    Message('note_on', channel=3, note=64, velocity=95, time=30),
    Message('note_on', channel=3, note=67, velocity=95, time=0),
    Message('note_on', channel=3, note=67, velocity=0, time=16),
    Message('note_on', channel=3, note=64, velocity=0, time=1),
    Message('note_on', channel=3, note=55, velocity=95, time=31),
    Message('note_on', channel=3, note=59, velocity=95, time=0),
    Message('note_on', channel=3, note=52, velocity=95, time=0),
    Message('note_on', channel=3, note=59, velocity=0, time=16),
    Message('note_on', channel=3, note=55, velocity=0, time=0),
    Message('note_on', channel=3, note=52, velocity=0, time=3),
    Message('note_on', channel=3, note=64, velocity=95, time=29),
    Message('note_on', channel=3, note=67, velocity=95, time=0),
    Message('note_on', channel=3, note=64, velocity=0, time=16),
    Message('note_on', channel=3, note=67, velocity=0, time=4),
    Message('note_on', channel=3, note=64, velocity=95, time=28),
    Message('note_on', channel=3, note=67, velocity=95, time=0),
    Message('note_on', channel=3, note=64, velocity=0, time=17),
    Message('note_on', channel=3, note=67, velocity=0, time=1),
    Message('note_on', channel=3, note=43, velocity=95, time=30),
    Message('control_change', channel=3, control=64, value=0, time=4),
    Message('control_change', channel=3, control=64, value=127, time=22),
    Message('note_on', channel=3, note=55, velocity=95, time=22),
    Message('note_on', channel=3, note=59, velocity=95, time=0),
    Message('note_on', channel=3, note=62, velocity=95, time=0),
    Message('note_on', channel=3, note=43, velocity=0, time=2),
    Message('note_on', channel=3, note=59, velocity=0, time=17),
    Message('note_on', channel=3, note=55, velocity=0, time=1),
    Message('note_on', channel=3, note=62, velocity=0, time=1),
    Message('note_on', channel=3, note=62, velocity=95, time=27),
    Message('note_on', channel=3, note=55, velocity=95, time=0),
    Message('note_on', channel=3, note=59, velocity=95, time=0),
    Message('note_on', channel=3, note=62, velocity=0, time=11),
    Message('note_on', channel=3, note=59, velocity=0, time=2),
    Message('note_on', channel=3, note=55, velocity=0, time=0),
    Message('note_on', channel=3, note=62, velocity=95, time=35),
    Message('note_on', channel=3, note=55, velocity=95, time=0),
    Message('note_on', channel=3, note=59, velocity=95, time=0),
    Message('note_on', channel=3, note=59, velocity=0, time=18),
    Message('note_on', channel=3, note=55, velocity=0, time=0),
    Message('note_on', channel=3, note=62, velocity=0, time=2),
    Message('note_on', channel=3, note=43, velocity=95, time=28),
    Message('note_on', channel=3, note=43, velocity=0, time=22),
    Message('note_on', channel=3, note=59, velocity=95, time=26),
    Message('note_on', channel=3, note=55, velocity=95, time=0),
    Message('note_on', channel=3, note=62, velocity=95, time=0),
    Message('note_on', channel=3, note=59, velocity=0, time=13),
    Message('note_on', channel=3, note=55, velocity=0, time=3),
    Message('note_on', channel=3, note=62, velocity=0, time=3),
    Message('note_on', channel=3, note=55, velocity=95, time=29),
    Message('note_on', channel=3, note=62, velocity=95, time=0),
    Message('note_on', channel=3, note=59, velocity=95, time=0),
    Message('note_on', channel=3, note=55, velocity=0, time=14),
    Message('note_on', channel=3, note=59, velocity=0, time=1),
    Message('note_on', channel=3, note=62, velocity=0, time=1),
    Message('note_on', channel=3, note=62, velocity=95, time=80),
    Message('note_on', channel=3, note=54, velocity=95, time=0),
    Message('note_on', channel=3, note=50, velocity=95, time=0),
    Message('note_on', channel=3, note=57, velocity=95, time=0),
    Message('control_change', channel=3, control=64, value=0, time=0),
    Message('control_change', channel=3, control=64, value=127, time=34),
    Message('note_off', channel=3, note=62, velocity=0, time=27),
    Message('note_off', channel=3, note=54, velocity=0, time=3),
    Message('note_off', channel=3, note=57, velocity=0, time=1),
    Message('note_off', channel=3, note=50, velocity=0, time=16),
    Message('note_on', channel=3, note=54, velocity=88, time=15),
    Message('note_on', channel=3, note=62, velocity=95, time=0),
    Message('note_on', channel=3, note=57, velocity=95, time=0),
    Message('note_on', channel=3, note=62, velocity=0, time=20),
    Message('note_on', channel=3, note=57, velocity=0, time=2),
    Message('note_on', channel=3, note=54, velocity=0, time=0),
    Message('note_on', channel=3, note=54, velocity=95, time=26),
    Message('note_on', channel=3, note=62, velocity=95, time=0),
    Message('note_on', channel=3, note=57, velocity=95, time=0),
    Message('note_on', channel=3, note=54, velocity=0, time=40),
    Message('note_on', channel=3, note=57, velocity=0, time=4),
    Message('note_on', channel=3, note=62, velocity=0, time=1),
    Message('note_on', channel=3, note=50, velocity=95, time=3),
    Message('note_on', channel=3, note=50, velocity=0, time=20),
    Message('note_on', channel=3, note=54, velocity=88, time=28),
    Message('note_on', channel=3, note=57, velocity=95, time=0),
    Message('note_on', channel=3, note=62, velocity=95, time=0),
    Message('note_on', channel=3, note=62, velocity=0, time=24),
    Message('note_on', channel=3, note=57, velocity=0, time=2),
    Message('note_on', channel=3, note=54, velocity=0, time=1),
    Message('note_on', channel=3, note=62, velocity=95, time=21),
    Message('note_on', channel=3, note=57, velocity=95, time=0),
    Message('note_on', channel=3, note=54, velocity=95, time=0),
    Message('note_on', channel=3, note=57, velocity=0, time=22),
    Message('note_on', channel=3, note=54, velocity=0, time=2),
    Message('note_on', channel=3, note=62, velocity=0, time=2),
    Message('control_change', channel=3, control=64, value=0, time=68),
    Message('note_on', channel=3, note=57, velocity=95, time=2),
    Message('note_on', channel=3, note=64, velocity=95, time=0),
    Message('note_on', channel=3, note=61, velocity=95, time=0),
    Message('note_on', channel=3, note=45, velocity=95, time=0),
    Message('note_on', channel=3, note=52, velocity=95, time=0),
    Message('note_on', channel=3, note=61, velocity=0, time=26),
    Message('note_on', channel=3, note=57, velocity=0, time=0),
    Message('note_on', channel=3, note=64, velocity=0, time=0),
    Message('control_change', channel=3, control=64, value=127, time=4),
    Message('note_off', channel=3, note=52, velocity=0, time=15),
    Message('note_off', channel=3, note=45, velocity=0, time=7),
    Message('note_on', channel=3, note=52, velocity=95, time=20),
    Message('note_on', channel=3, note=45, velocity=95, time=0),
    Message('note_on', channel=3, note=52, velocity=0, time=15),
    Message('note_on', channel=3, note=45, velocity=0, time=1),
    Message('note_on', channel=3, note=61, velocity=95, time=8),
    Message('note_on', channel=3, note=64, velocity=95, time=0),
    Message('note_on', channel=3, note=57, velocity=95, time=0),
    Message('note_on', channel=3, note=61, velocity=0, time=18),
    Message('note_on', channel=3, note=64, velocity=0, time=2),
    Message('note_on', channel=3, note=57, velocity=0, time=3),
    Message('note_on', channel=3, note=45, velocity=95, time=25),
    Message('note_on', channel=3, note=52, velocity=95, time=0),
    Message('note_on', channel=3, note=52, velocity=0, time=20),
    Message('note_on', channel=3, note=45, velocity=0, time=4),
    Message('note_on', channel=3, note=57, velocity=95, time=24),
    Message('note_on', channel=3, note=64, velocity=95, time=0),
    Message('note_on', channel=3, note=57, velocity=0, time=17),
    Message('note_on', channel=3, note=64, velocity=0, time=1),
    Message('note_on', channel=3, note=57, velocity=95, time=30),
    Message('note_on', channel=3, note=64, velocity=95, time=0),
    Message('note_on', channel=3, note=45, velocity=95, time=0),
    Message('note_on', channel=3, note=52, velocity=95, time=0),
    Message('note_on', channel=3, note=57, velocity=0, time=14),
    Message('note_on', channel=3, note=64, velocity=0, time=3),
    Message('note_on', channel=3, note=45, velocity=0, time=1),
    Message('note_on', channel=3, note=52, velocity=0, time=0),
    Message('note_on', channel=3, note=45, velocity=95, time=30),
    Message('note_on', channel=3, note=52, velocity=95, time=0),
    Message('note_on', channel=3, note=57, velocity=95, time=0),
    Message('note_on', channel=3, note=64, velocity=95, time=0),
    Message('note_on', channel=3, note=57, velocity=0, time=15),
    Message('note_on', channel=3, note=52, velocity=0, time=0),
    Message('note_on', channel=3, note=45, velocity=0, time=3),
    Message('note_on', channel=3, note=64, velocity=0, time=1),
    Message('note_on', channel=3, note=57, velocity=95, time=29),
    Message('note_on', channel=3, note=45, velocity=95, time=0),
    Message('note_on', channel=3, note=64, velocity=95, time=0),
    Message('note_on', channel=3, note=52, velocity=95, time=0),
    Message('note_on', channel=3, note=45, velocity=0, time=12),
    Message('note_on', channel=3, note=57, velocity=0, time=1),
    Message('note_on', channel=3, note=52, velocity=0, time=1),
    Message('note_on', channel=3, note=64, velocity=0, time=1),
    Message('control_change', channel=3, control=64, value=0, time=12),
    Message('note_on', channel=3, note=52, velocity=95, time=21),
    Message('note_on', channel=3, note=40, velocity=95, time=0),
    Message('note_on', channel=3, note=55, velocity=95, time=0),
    Message('note_on', channel=3, note=59, velocity=95, time=0),
    Message('note_on', channel=3, note=52, velocity=0, time=70),
    Message('note_on', channel=3, note=59, velocity=0, time=2),
    Message('note_on', channel=3, note=55, velocity=0, time=0),
    Message('control_change', channel=3, control=64, value=127, time=1),
    Message('note_off', channel=3, note=40, velocity=0, time=19),
    Message('note_on', channel=3, note=52, velocity=95, time=4),
    Message('note_on', channel=3, note=59, velocity=95, time=0),
    Message('note_on', channel=3, note=55, velocity=95, time=0),
    Message('note_on', channel=3, note=55, velocity=0, time=14),
    Message('note_on', channel=3, note=52, velocity=0, time=1),
    Message('note_on', channel=3, note=59, velocity=0, time=2),
    Message('note_on', channel=3, note=52, velocity=84, time=31),
    Message('note_on', channel=3, note=59, velocity=95, time=0),
    Message('note_on', channel=3, note=55, velocity=95, time=0),
    Message('note_on', channel=3, note=52, velocity=0, time=10),
    Message('note_on', channel=3, note=55, velocity=0, time=1),
    Message('note_on', channel=3, note=59, velocity=0, time=1),
    Message('note_on', channel=3, note=40, velocity=95, time=12),
    Message('note_on', channel=3, note=40, velocity=0, time=14),
    Message('note_on', channel=3, note=55, velocity=95, time=10),
    Message('note_on', channel=3, note=52, velocity=95, time=0),
    Message('note_on', channel=3, note=59, velocity=95, time=0),
    Message('note_on', channel=3, note=55, velocity=0, time=32),
    Message('note_on', channel=3, note=52, velocity=0, time=3),
    Message('note_on', channel=3, note=59, velocity=0, time=1),
    Message('note_on', channel=3, note=40, velocity=95, time=12),
    Message('note_on', channel=3, note=40, velocity=0, time=16),
    Message('note_on', channel=3, note=52, velocity=95, time=32),
    Message('note_on', channel=3, note=59, velocity=95, time=0),
    Message('note_on', channel=3, note=55, velocity=95, time=0),
    Message('note_on', channel=3, note=55, velocity=0, time=14),
    Message('note_on', channel=3, note=52, velocity=0, time=1),
    Message('note_on', channel=3, note=59, velocity=0, time=1),
    Message('note_on', channel=3, note=52, velocity=95, time=32),
    Message('note_on', channel=3, note=59, velocity=95, time=0),
    Message('note_on', channel=3, note=55, velocity=95, time=0),
    Message('note_on', channel=3, note=52, velocity=0, time=11),
    Message('note_on', channel=3, note=55, velocity=0, time=2),
    Message('note_on', channel=3, note=59, velocity=0, time=1),
    Message('note_on', channel=3, note=43, velocity=95, time=34),
    Message('control_change', channel=3, control=64, value=0, time=4),
    Message('control_change', channel=3, control=64, value=127, time=30),
    Message('note_on', channel=3, note=55, velocity=95, time=14),
    Message('note_on', channel=3, note=59, velocity=95, time=0),
    Message('note_on', channel=3, note=62, velocity=95, time=0),
    Message('note_on', channel=3, note=43, velocity=0, time=14),
    Message('note_on', channel=3, note=55, velocity=0, time=2),
    Message('note_on', channel=3, note=59, velocity=0, time=0),
    Message('note_on', channel=3, note=62, velocity=0, time=3),
    Message('note_on', channel=3, note=62, velocity=95, time=77),
    Message('note_on', channel=3, note=55, velocity=95, time=0),
    Message('note_on', channel=3, note=59, velocity=95, time=0),
    Message('note_on', channel=3, note=59, velocity=0, time=13),
    Message('note_on', channel=3, note=55, velocity=0, time=1),
    Message('note_on', channel=3, note=62, velocity=0, time=0),
    Message('note_on', channel=3, note=59, velocity=84, time=34),
    Message('note_on', channel=3, note=59, velocity=0, time=7),
    Message('note_on', channel=3, note=43, velocity=95, time=41),
    Message('note_on', channel=3, note=43, velocity=0, time=25),
    Message('note_on', channel=3, note=59, velocity=95, time=23),
    Message('note_on', channel=3, note=55, velocity=95, time=0),
    Message('note_on', channel=3, note=62, velocity=95, time=0),
    Message('note_on', channel=3, note=55, velocity=0, time=14),
    Message('note_on', channel=3, note=59, velocity=0, time=0),
    Message('note_on', channel=3, note=62, velocity=0, time=4),
    Message('control_change', channel=3, control=64, value=0, time=71),
    Message('note_on', channel=3, note=50, velocity=95, time=7),
    Message('note_on', channel=3, note=62, velocity=95, time=0),
    Message('note_on', channel=3, note=54, velocity=95, time=0),
    Message('note_on', channel=3, note=57, velocity=95, time=0),
    Message('control_change', channel=3, control=64, value=127, time=24),
    Message('note_off', channel=3, note=62, velocity=0, time=35),
    Message('note_off', channel=3, note=54, velocity=0, time=3),
    Message('note_off', channel=3, note=57, velocity=0, time=3),
    Message('note_off', channel=3, note=50, velocity=0, time=5),
    Message('note_on', channel=3, note=54, velocity=95, time=26),
    Message('note_on', channel=3, note=62, velocity=95, time=0),
    Message('note_on', channel=3, note=57, velocity=95, time=0),
    Message('note_on', channel=3, note=54, velocity=0, time=19),
    Message('note_on', channel=3, note=57, velocity=0, time=2),
    Message('note_on', channel=3, note=62, velocity=0, time=1),
    Message('note_on', channel=3, note=62, velocity=95, time=26),
    Message('note_on', channel=3, note=54, velocity=95, time=0),
    Message('note_on', channel=3, note=57, velocity=95, time=0),
    Message('note_on', channel=3, note=62, velocity=0, time=31),
    Message('note_on', channel=3, note=57, velocity=0, time=2),
    Message('note_on', channel=3, note=54, velocity=0, time=1),
    Message('note_on', channel=3, note=50, velocity=95, time=14),
    Message('note_on', channel=3, note=50, velocity=0, time=22),
    Message('note_on', channel=3, note=62, velocity=95, time=26),
    Message('note_on', channel=3, note=54, velocity=95, time=0),
    Message('note_on', channel=3, note=57, velocity=95, time=0),
    Message('note_on', channel=3, note=62, velocity=0, time=20),
    Message('note_on', channel=3, note=57, velocity=0, time=6),
    Message('note_on', channel=3, note=54, velocity=0, time=2),
    Message('note_on', channel=3, note=62, velocity=95, time=20),
    Message('note_on', channel=3, note=54, velocity=95, time=0),
    Message('note_on', channel=3, note=57, velocity=95, time=0),
    Message('note_on', channel=3, note=57, velocity=0, time=20),
    Message('note_on', channel=3, note=54, velocity=0, time=0),
    Message('note_on', channel=3, note=62, velocity=0, time=2),
    Message('note_on', channel=3, note=57, velocity=95, time=74),
    Message('note_on', channel=3, note=64, velocity=95, time=0),
    Message('note_on', channel=3, note=61, velocity=95, time=0),
    Message('note_on', channel=3, note=45, velocity=95, time=0),
    Message('control_change', channel=3, control=64, value=0, time=4),
    Message('note_off', channel=3, note=57, velocity=0, time=20),
    Message('note_off', channel=3, note=64, velocity=0, time=4),
    Message('note_off', channel=3, note=61, velocity=0, time=1),
    Message('control_change', channel=3, control=64, value=127, time=1),
    Message('note_on', channel=3, note=57, velocity=60, time=18),
    Message('note_on', channel=3, note=61, velocity=61, time=0),
    Message('note_on', channel=3, note=45, velocity=0, time=8),
    Message('note_on', channel=3, note=61, velocity=0, time=2),
    Message('note_on', channel=3, note=57, velocity=0, time=1),
    Message('note_on', channel=3, note=52, velocity=95, time=13),
    Message('note_on', channel=3, note=52, velocity=0, time=20),
    Message('note_on', channel=3, note=57, velocity=95, time=4),
    Message('note_on', channel=3, note=61, velocity=95, time=0),
    Message('note_on', channel=3, note=64, velocity=95, time=0),
    Message('note_on', channel=3, note=61, velocity=0, time=17),
    Message('note_on', channel=3, note=57, velocity=0, time=1),
    Message('note_on', channel=3, note=64, velocity=0, time=3),
    Message('note_on', channel=3, note=45, velocity=95, time=27),
    Message('note_on', channel=3, note=61, velocity=95, time=48),
    Message('note_on', channel=3, note=55, velocity=95, time=0),
    Message('note_on', channel=3, note=64, velocity=95, time=0),
    Message('note_on', channel=3, note=45, velocity=0, time=2),
    Message('note_on', channel=3, note=61, velocity=0, time=14),
    Message('note_on', channel=3, note=55, velocity=0, time=3),
    Message('note_on', channel=3, note=64, velocity=0, time=1),
    Message('note_on', channel=3, note=61, velocity=95, time=28),
    Message('note_on', channel=3, note=55, velocity=95, time=0),
    Message('note_on', channel=3, note=64, velocity=95, time=0),
    Message('note_on', channel=3, note=61, velocity=0, time=46),
    Message('note_on', channel=3, note=55, velocity=0, time=1),
    Message('note_on', channel=3, note=45, velocity=95, time=1),
    Message('note_on', channel=3, note=64, velocity=0, time=1),
    Message('note_on', channel=3, note=45, velocity=0, time=27),
    Message('note_on', channel=3, note=55, velocity=95, time=20),
    Message('note_on', channel=3, note=61, velocity=95, time=0),
    Message('note_on', channel=3, note=64, velocity=95, time=0),
    Message('note_on', channel=3, note=61, velocity=0, time=17),
    Message('note_on', channel=3, note=55, velocity=0, time=0),
    Message('note_on', channel=3, note=64, velocity=0, time=5),
    Message('control_change', channel=3, control=64, value=0, time=24),
    Message('note_on', channel=3, note=59, velocity=95, time=2),
    Message('note_on', channel=3, note=55, velocity=95, time=0),
    Message('note_on', channel=3, note=52, velocity=95, time=0),
    Message('control_change', channel=3, control=64, value=127, time=29),
    Message('note_off', channel=3, note=59, velocity=0, time=44),
    Message('note_off', channel=3, note=55, velocity=0, time=11),
    Message('note_off', channel=3, note=52, velocity=0, time=2),
    Message('note_on', channel=3, note=64, velocity=95, time=10),
    Message('note_on', channel=3, note=67, velocity=95, time=0),
    Message('note_on', channel=3, note=64, velocity=0, time=23),
    Message('note_on', channel=3, note=67, velocity=0, time=3),
    Message('note_on', channel=3, note=55, velocity=95, time=22),
    Message('note_on', channel=3, note=52, velocity=95, time=0),
    Message('note_on', channel=3, note=59, velocity=95, time=0),
    Message('note_on', channel=3, note=55, velocity=0, time=15),
    Message('note_on', channel=3, note=52, velocity=0, time=1),
    Message('note_on', channel=3, note=59, velocity=0, time=2),
    Message('note_on', channel=3, note=64, velocity=95, time=30),
    Message('note_on', channel=3, note=67, velocity=95, time=0),
    Message('note_on', channel=3, note=67, velocity=0, time=16),
    Message('note_on', channel=3, note=64, velocity=0, time=1),
    Message('note_on', channel=3, note=55, velocity=95, time=31),
    Message('note_on', channel=3, note=59, velocity=95, time=0),
    Message('note_on', channel=3, note=52, velocity=95, time=0),
    Message('note_on', channel=3, note=59, velocity=0, time=16),
    Message('note_on', channel=3, note=55, velocity=0, time=0),
    Message('note_on', channel=3, note=52, velocity=0, time=3),
    Message('note_on', channel=3, note=64, velocity=95, time=29),
    Message('note_on', channel=3, note=67, velocity=95, time=0),
    Message('note_on', channel=3, note=64, velocity=0, time=16),
    Message('note_on', channel=3, note=67, velocity=0, time=4),
    Message('note_on', channel=3, note=64, velocity=95, time=28),
    Message('note_on', channel=3, note=67, velocity=95, time=0),
    Message('note_on', channel=3, note=64, velocity=0, time=17),
    Message('note_on', channel=3, note=67, velocity=0, time=1),
    Message('note_on', channel=3, note=43, velocity=95, time=30),
    Message('control_change', channel=3, control=64, value=0, time=4),
    Message('control_change', channel=3, control=64, value=127, time=22),
    Message('note_on', channel=3, note=55, velocity=95, time=22),
    Message('note_on', channel=3, note=59, velocity=95, time=0),
    Message('note_on', channel=3, note=62, velocity=95, time=0),
    Message('note_on', channel=3, note=43, velocity=0, time=2),
    Message('note_on', channel=3, note=59, velocity=0, time=17),
    Message('note_on', channel=3, note=55, velocity=0, time=1),
    Message('note_on', channel=3, note=62, velocity=0, time=1),
    Message('note_on', channel=3, note=62, velocity=95, time=27),
    Message('note_on', channel=3, note=55, velocity=95, time=0),
    Message('note_on', channel=3, note=59, velocity=95, time=0),
    Message('note_on', channel=3, note=62, velocity=0, time=11),
    Message('note_on', channel=3, note=59, velocity=0, time=2),
    Message('note_on', channel=3, note=55, velocity=0, time=0),
    Message('note_on', channel=3, note=62, velocity=95, time=35),
    Message('note_on', channel=3, note=55, velocity=95, time=0),
    Message('note_on', channel=3, note=59, velocity=95, time=0),
    Message('note_on', channel=3, note=59, velocity=0, time=18),
    Message('note_on', channel=3, note=55, velocity=0, time=0),
    Message('note_on', channel=3, note=62, velocity=0, time=2),
    Message('note_on', channel=3, note=43, velocity=95, time=28),
    Message('note_on', channel=3, note=43, velocity=0, time=22),
    Message('note_on', channel=3, note=59, velocity=95, time=26),
    Message('note_on', channel=3, note=55, velocity=95, time=0),
    Message('note_on', channel=3, note=62, velocity=95, time=0),
    Message('note_on', channel=3, note=59, velocity=0, time=13),
    Message('note_on', channel=3, note=55, velocity=0, time=3),
    Message('note_on', channel=3, note=62, velocity=0, time=3),
    Message('note_on', channel=3, note=55, velocity=95, time=29),
    Message('note_on', channel=3, note=62, velocity=95, time=0),
    Message('note_on', channel=3, note=59, velocity=95, time=0),
    Message('note_on', channel=3, note=55, velocity=0, time=14),
    Message('note_on', channel=3, note=59, velocity=0, time=1),
    Message('note_on', channel=3, note=62, velocity=0, time=1),
    Message('note_on', channel=3, note=62, velocity=95, time=80),
    Message('note_on', channel=3, note=54, velocity=95, time=0),
    Message('note_on', channel=3, note=50, velocity=95, time=0),
    Message('note_on', channel=3, note=57, velocity=95, time=0),
    Message('control_change', channel=3, control=64, value=0, time=0),
    Message('control_change', channel=3, control=64, value=127, time=34),
    Message('note_off', channel=3, note=62, velocity=0, time=27),
    Message('note_off', channel=3, note=54, velocity=0, time=3),
    Message('note_off', channel=3, note=57, velocity=0, time=1),
    Message('note_off', channel=3, note=50, velocity=0, time=16),
    Message('note_on', channel=3, note=54, velocity=88, time=15),
    Message('note_on', channel=3, note=62, velocity=95, time=0),
    Message('note_on', channel=3, note=57, velocity=95, time=0),
    Message('note_on', channel=3, note=62, velocity=0, time=20),
    Message('note_on', channel=3, note=57, velocity=0, time=2),
    Message('note_on', channel=3, note=54, velocity=0, time=0),
    Message('note_on', channel=3, note=54, velocity=95, time=26),
    Message('note_on', channel=3, note=62, velocity=95, time=0),
    Message('note_on', channel=3, note=57, velocity=95, time=0),
    Message('note_on', channel=3, note=54, velocity=0, time=40),
    Message('note_on', channel=3, note=57, velocity=0, time=4),
    Message('note_on', channel=3, note=62, velocity=0, time=1),
    Message('note_on', channel=3, note=50, velocity=95, time=3),
    Message('note_on', channel=3, note=50, velocity=0, time=20),
    Message('note_on', channel=3, note=54, velocity=88, time=28),
    Message('note_on', channel=3, note=57, velocity=95, time=0),
    Message('note_on', channel=3, note=62, velocity=95, time=0),
    Message('note_on', channel=3, note=62, velocity=0, time=24),
    Message('note_on', channel=3, note=57, velocity=0, time=2),
    Message('note_on', channel=3, note=54, velocity=0, time=1),
    Message('note_on', channel=3, note=62, velocity=95, time=21),
    Message('note_on', channel=3, note=57, velocity=95, time=0),
    Message('note_on', channel=3, note=54, velocity=95, time=0),
    Message('note_on', channel=3, note=57, velocity=0, time=22),
    Message('note_on', channel=3, note=54, velocity=0, time=2),
    Message('note_on', channel=3, note=62, velocity=0, time=2),
    Message('control_change', channel=3, control=64, value=0, time=68),
    Message('note_on', channel=3, note=57, velocity=95, time=2),
    Message('note_on', channel=3, note=64, velocity=95, time=0),
    Message('note_on', channel=3, note=61, velocity=95, time=0),
    Message('note_on', channel=3, note=45, velocity=95, time=0),
    Message('note_on', channel=3, note=52, velocity=95, time=0),
    Message('note_on', channel=3, note=61, velocity=0, time=26),
    Message('note_on', channel=3, note=57, velocity=0, time=0),
    Message('note_on', channel=3, note=64, velocity=0, time=0),
    Message('control_change', channel=3, control=64, value=127, time=4),
    Message('note_off', channel=3, note=52, velocity=0, time=15),
    Message('note_off', channel=3, note=45, velocity=0, time=7),
    Message('note_on', channel=3, note=52, velocity=95, time=20),
    Message('note_on', channel=3, note=45, velocity=95, time=0),
    Message('note_on', channel=3, note=52, velocity=0, time=15),
    Message('note_on', channel=3, note=45, velocity=0, time=1),
    Message('note_on', channel=3, note=61, velocity=95, time=8),
    Message('note_on', channel=3, note=64, velocity=95, time=0),
    Message('note_on', channel=3, note=57, velocity=95, time=0),
    Message('note_on', channel=3, note=61, velocity=0, time=18),
    Message('note_on', channel=3, note=64, velocity=0, time=2),
    Message('note_on', channel=3, note=57, velocity=0, time=3),
    Message('note_on', channel=3, note=45, velocity=95, time=25),
    Message('note_on', channel=3, note=52, velocity=95, time=0),
    Message('note_on', channel=3, note=52, velocity=0, time=20),
    Message('note_on', channel=3, note=45, velocity=0, time=4),
    Message('note_on', channel=3, note=57, velocity=95, time=24),
    Message('note_on', channel=3, note=64, velocity=95, time=0),
    Message('note_on', channel=3, note=57, velocity=0, time=17),
    Message('note_on', channel=3, note=64, velocity=0, time=1),
    Message('note_on', channel=3, note=57, velocity=95, time=30),
    Message('note_on', channel=3, note=64, velocity=95, time=0),
    Message('note_on', channel=3, note=45, velocity=95, time=0),
    Message('note_on', channel=3, note=52, velocity=95, time=0),
    Message('note_on', channel=3, note=57, velocity=0, time=14),
    Message('note_on', channel=3, note=64, velocity=0, time=3),
    Message('note_on', channel=3, note=45, velocity=0, time=1),
    Message('note_on', channel=3, note=52, velocity=0, time=0),
    Message('note_on', channel=3, note=45, velocity=95, time=30),
    Message('note_on', channel=3, note=52, velocity=95, time=0),
    Message('note_on', channel=3, note=57, velocity=95, time=0),
    Message('note_on', channel=3, note=64, velocity=95, time=0),
    Message('note_on', channel=3, note=57, velocity=0, time=15),
    Message('note_on', channel=3, note=52, velocity=0, time=0),
    Message('note_on', channel=3, note=45, velocity=0, time=3),
    Message('note_on', channel=3, note=64, velocity=0, time=1),
    Message('note_on', channel=3, note=57, velocity=95, time=29),
    Message('note_on', channel=3, note=45, velocity=95, time=0),
    Message('note_on', channel=3, note=64, velocity=95, time=0),
    Message('note_on', channel=3, note=52, velocity=95, time=0),
    Message('note_on', channel=3, note=45, velocity=0, time=12),
    Message('note_on', channel=3, note=57, velocity=0, time=1),
    Message('note_on', channel=3, note=52, velocity=0, time=1),
    Message('note_on', channel=3, note=64, velocity=0, time=1),
    Message('control_change', channel=3, control=64, value=0, time=12),
    Message('note_on', channel=3, note=52, velocity=95, time=21),
    Message('note_on', channel=3, note=40, velocity=95, time=0),
    Message('note_on', channel=3, note=55, velocity=95, time=0),
    Message('note_on', channel=3, note=59, velocity=95, time=0),
    Message('note_on', channel=3, note=52, velocity=0, time=70),
    Message('note_on', channel=3, note=59, velocity=0, time=2),
    Message('note_on', channel=3, note=55, velocity=0, time=0),
    Message('control_change', channel=3, control=64, value=127, time=1),
    Message('note_off', channel=3, note=40, velocity=0, time=19),
    Message('note_on', channel=3, note=52, velocity=95, time=4),
    Message('note_on', channel=3, note=59, velocity=95, time=0),
    Message('note_on', channel=3, note=55, velocity=95, time=0),
    Message('note_on', channel=3, note=55, velocity=0, time=14),
    Message('note_on', channel=3, note=52, velocity=0, time=1),
    Message('note_on', channel=3, note=59, velocity=0, time=2),
    Message('note_on', channel=3, note=52, velocity=84, time=31),
    Message('note_on', channel=3, note=59, velocity=95, time=0),
    Message('note_on', channel=3, note=55, velocity=95, time=0),
    Message('note_on', channel=3, note=52, velocity=0, time=10),
    Message('note_on', channel=3, note=55, velocity=0, time=1),
    Message('note_on', channel=3, note=59, velocity=0, time=1),
    Message('note_on', channel=3, note=40, velocity=95, time=12),
    Message('note_on', channel=3, note=40, velocity=0, time=14),
    Message('note_on', channel=3, note=55, velocity=95, time=10),
    Message('note_on', channel=3, note=52, velocity=95, time=0),
    Message('note_on', channel=3, note=59, velocity=95, time=0),
    Message('note_on', channel=3, note=55, velocity=0, time=32),
    Message('note_on', channel=3, note=52, velocity=0, time=3),
    Message('note_on', channel=3, note=59, velocity=0, time=1),
    Message('note_on', channel=3, note=40, velocity=95, time=12),
    Message('note_on', channel=3, note=40, velocity=0, time=16),
    Message('note_on', channel=3, note=52, velocity=95, time=32),
    Message('note_on', channel=3, note=59, velocity=95, time=0),
    Message('note_on', channel=3, note=55, velocity=95, time=0),
    Message('note_on', channel=3, note=55, velocity=0, time=14),
    Message('note_on', channel=3, note=52, velocity=0, time=1),
    Message('note_on', channel=3, note=59, velocity=0, time=1),
    Message('note_on', channel=3, note=52, velocity=95, time=32),
    Message('note_on', channel=3, note=59, velocity=95, time=0),
    Message('note_on', channel=3, note=55, velocity=95, time=0),
    Message('note_on', channel=3, note=52, velocity=0, time=11),
    Message('note_on', channel=3, note=55, velocity=0, time=2),
    Message('note_on', channel=3, note=59, velocity=0, time=1),
    Message('note_on', channel=3, note=43, velocity=95, time=34),
    Message('control_change', channel=3, control=64, value=0, time=4),
    Message('control_change', channel=3, control=64, value=127, time=30),
    Message('note_on', channel=3, note=55, velocity=95, time=14),
    Message('note_on', channel=3, note=59, velocity=95, time=0),
    Message('note_on', channel=3, note=62, velocity=95, time=0),
    Message('note_on', channel=3, note=43, velocity=0, time=14),
    Message('note_on', channel=3, note=55, velocity=0, time=2),
    Message('note_on', channel=3, note=59, velocity=0, time=0),
    Message('note_on', channel=3, note=62, velocity=0, time=3),
    Message('note_on', channel=3, note=62, velocity=95, time=77),
    Message('note_on', channel=3, note=55, velocity=95, time=0),
    Message('note_on', channel=3, note=59, velocity=95, time=0),
    Message('note_on', channel=3, note=59, velocity=0, time=13),
    Message('note_on', channel=3, note=55, velocity=0, time=1),
    Message('note_on', channel=3, note=62, velocity=0, time=0),
    Message('note_on', channel=3, note=59, velocity=84, time=34),
    Message('note_on', channel=3, note=59, velocity=0, time=7),
    Message('note_on', channel=3, note=43, velocity=95, time=41),
    Message('note_on', channel=3, note=43, velocity=0, time=25),
    Message('note_on', channel=3, note=59, velocity=95, time=23),
    Message('note_on', channel=3, note=55, velocity=95, time=0),
    Message('note_on', channel=3, note=62, velocity=95, time=0),
    Message('note_on', channel=3, note=55, velocity=0, time=14),
    Message('note_on', channel=3, note=59, velocity=0, time=0),
    Message('note_on', channel=3, note=62, velocity=0, time=4),
    Message('control_change', channel=3, control=64, value=0, time=71),
    Message('note_on', channel=3, note=50, velocity=95, time=7),
    Message('note_on', channel=3, note=62, velocity=95, time=0),
    Message('note_on', channel=3, note=54, velocity=95, time=0),
    Message('note_on', channel=3, note=57, velocity=95, time=0),
    Message('control_change', channel=3, control=64, value=127, time=24),
    Message('note_off', channel=3, note=62, velocity=0, time=35),
    Message('note_off', channel=3, note=54, velocity=0, time=3),
    Message('note_off', channel=3, note=57, velocity=0, time=3),
    Message('note_off', channel=3, note=50, velocity=0, time=5),
    Message('note_on', channel=3, note=54, velocity=95, time=26),
    Message('note_on', channel=3, note=62, velocity=95, time=0),
    Message('note_on', channel=3, note=57, velocity=95, time=0),
    Message('note_on', channel=3, note=54, velocity=0, time=19),
    Message('note_on', channel=3, note=57, velocity=0, time=2),
    Message('note_on', channel=3, note=62, velocity=0, time=1),
    Message('note_on', channel=3, note=62, velocity=95, time=26),
    Message('note_on', channel=3, note=54, velocity=95, time=0),
    Message('note_on', channel=3, note=57, velocity=95, time=0),
    Message('note_on', channel=3, note=62, velocity=0, time=31),
    Message('note_on', channel=3, note=57, velocity=0, time=2),
    Message('note_on', channel=3, note=54, velocity=0, time=1),
    Message('note_on', channel=3, note=50, velocity=95, time=14),
    Message('note_on', channel=3, note=50, velocity=0, time=22),
    Message('note_on', channel=3, note=62, velocity=95, time=26),
    Message('note_on', channel=3, note=54, velocity=95, time=0),
    Message('note_on', channel=3, note=57, velocity=95, time=0),
    Message('note_on', channel=3, note=62, velocity=0, time=20),
    Message('note_on', channel=3, note=57, velocity=0, time=6),
    Message('note_on', channel=3, note=54, velocity=0, time=2),
    Message('note_on', channel=3, note=62, velocity=95, time=20),
    Message('note_on', channel=3, note=54, velocity=95, time=0),
    Message('note_on', channel=3, note=57, velocity=95, time=0),
    Message('note_on', channel=3, note=57, velocity=0, time=20),
    Message('note_on', channel=3, note=54, velocity=0, time=0),
    Message('note_on', channel=3, note=62, velocity=0, time=2),
    Message('note_on', channel=3, note=57, velocity=95, time=74),
    Message('note_on', channel=3, note=64, velocity=95, time=0),
    Message('note_on', channel=3, note=61, velocity=95, time=0),
    Message('note_on', channel=3, note=45, velocity=95, time=0),
    Message('control_change', channel=3, control=64, value=0, time=4),
    Message('note_off', channel=3, note=57, velocity=0, time=20),
    Message('note_off', channel=3, note=64, velocity=0, time=4),
    Message('note_off', channel=3, note=61, velocity=0, time=1),
    Message('control_change', channel=3, control=64, value=127, time=1),
    Message('note_on', channel=3, note=57, velocity=60, time=18),
    Message('note_on', channel=3, note=61, velocity=61, time=0),
    Message('note_on', channel=3, note=45, velocity=0, time=8),
    Message('note_on', channel=3, note=61, velocity=0, time=2),
    Message('note_on', channel=3, note=57, velocity=0, time=1),
    Message('note_on', channel=3, note=52, velocity=95, time=13),
    Message('note_on', channel=3, note=52, velocity=0, time=20),
    Message('note_on', channel=3, note=57, velocity=95, time=4),
    Message('note_on', channel=3, note=61, velocity=95, time=0),
    Message('note_on', channel=3, note=64, velocity=95, time=0),
    Message('note_on', channel=3, note=61, velocity=0, time=17),
    Message('note_on', channel=3, note=57, velocity=0, time=1),
    Message('note_on', channel=3, note=64, velocity=0, time=3),
    Message('note_on', channel=3, note=45, velocity=95, time=27),
    Message('note_on', channel=3, note=61, velocity=95, time=48),
    Message('note_on', channel=3, note=55, velocity=95, time=0),
    Message('note_on', channel=3, note=64, velocity=95, time=0),
    Message('note_on', channel=3, note=45, velocity=0, time=2),
    Message('note_on', channel=3, note=61, velocity=0, time=14),
    Message('note_on', channel=3, note=55, velocity=0, time=3),
    Message('note_on', channel=3, note=64, velocity=0, time=1),
    Message('note_on', channel=3, note=61, velocity=95, time=28),
    Message('note_on', channel=3, note=55, velocity=95, time=0),
    Message('note_on', channel=3, note=64, velocity=95, time=0),
    Message('note_on', channel=3, note=61, velocity=0, time=46),
    Message('note_on', channel=3, note=55, velocity=0, time=1),
    Message('note_on', channel=3, note=45, velocity=95, time=1),
    Message('note_on', channel=3, note=64, velocity=0, time=1),
    Message('note_on', channel=3, note=45, velocity=0, time=27),
    Message('note_on', channel=3, note=55, velocity=95, time=20),
    Message('note_on', channel=3, note=61, velocity=95, time=0),
    Message('note_on', channel=3, note=64, velocity=95, time=0),
    Message('note_on', channel=3, note=61, velocity=0, time=17),
    Message('note_on', channel=3, note=55, velocity=0, time=0),
    Message('note_on', channel=3, note=64, velocity=0, time=5),
    Message('control_change', channel=3, control=64, value=0, time=24),
    Message('note_on', channel=3, note=47, velocity=95, time=2),
    Message('note_on', channel=3, note=52, velocity=95, time=0),
    Message('note_on', channel=3, note=40, velocity=95, time=0),
    Message('note_on', channel=3, note=47, velocity=0, time=368),
    Message('note_on', channel=3, note=40, velocity=0, time=8),
    Message('note_on', channel=3, note=52, velocity=0, time=2),
    MetaMessage('end_of_track', time=0)]),
  MidiTrack([
    MetaMessage('midi_port', port=0, time=0),
    Message('program_change', channel=5, program=110, time=0),
    Message('control_change', channel=5, control=10, value=120, time=0),
    Message('control_change', channel=5, control=10, value=120, time=24),
    Message('control_change', channel=5, control=10, value=120, time=4),
    Message('control_change', channel=5, control=10, value=120, time=5),
    Message('control_change', channel=5, control=10, value=120, time=5),
    Message('control_change', channel=5, control=10, value=120, time=5),
    Message('control_change', channel=5, control=10, value=120, time=5),
    Message('control_change', channel=5, control=10, value=120, time=4),
    Message('control_change', channel=5, control=10, value=120, time=5),
    Message('control_change', channel=5, control=10, value=120, time=5),
    Message('control_change', channel=5, control=10, value=121, time=5),
    Message('control_change', channel=5, control=10, value=121, time=5),
    Message('control_change', channel=5, control=10, value=121, time=4),
    Message('control_change', channel=5, control=10, value=121, time=5),
    Message('control_change', channel=5, control=10, value=121, time=5),
    Message('control_change', channel=5, control=10, value=121, time=5),
    Message('control_change', channel=5, control=10, value=121, time=5),
    Message('control_change', channel=5, control=10, value=121, time=4),
    Message('control_change', channel=5, control=10, value=121, time=5),
    Message('control_change', channel=5, control=10, value=121, time=5),
    Message('control_change', channel=5, control=10, value=121, time=5),
    Message('control_change', channel=5, control=10, value=121, time=5),
    Message('control_change', channel=5, control=10, value=121, time=4),
    Message('control_change', channel=5, control=10, value=121, time=5),
    Message('control_change', channel=5, control=10, value=121, time=5),
    Message('control_change', channel=5, control=10, value=121, time=5),
    Message('control_change', channel=5, control=10, value=121, time=5),
    Message('control_change', channel=5, control=10, value=122, time=4),
    Message('control_change', channel=5, control=10, value=122, time=5),
    Message('note_on', channel=5, note=64, velocity=127, time=1587),
    Message('note_on', channel=5, note=64, velocity=0, time=53),
    Message('note_on', channel=5, note=66, velocity=127, time=1),
    Message('note_on', channel=5, note=66, velocity=0, time=46),
    Message('note_on', channel=5, note=67, velocity=127, time=1),
    Message('note_on', channel=5, note=69, velocity=127, time=49),
    Message('note_on', channel=5, note=67, velocity=0, time=1),
    Message('note_on', channel=5, note=69, velocity=0, time=41),
    Message('note_on', channel=5, note=71, velocity=127, time=6),
    Message('note_on', channel=5, note=71, velocity=0, time=345),
    Message('pitchwheel', channel=5, pitch=-380, time=3),
    Message('pitchwheel', channel=5, pitch=-1062, time=2),
    Message('pitchwheel', channel=5, pitch=-2048, time=2),
    Message('pitchwheel', channel=5, pitch=-2883, time=1),
    Message('pitchwheel', channel=5, pitch=-3490, time=2),
    Message('pitchwheel', channel=5, pitch=-3717, time=2),
    Message('pitchwheel', channel=5, pitch=-4096, time=1),
    Message('note_on', channel=5, note=71, velocity=127, time=2),
    Message('pitchwheel', channel=5, pitch=-4627, time=0),
    Message('pitchwheel', channel=5, pitch=-4096, time=5),
    Message('pitchwheel', channel=5, pitch=-3793, time=2),
    Message('pitchwheel', channel=5, pitch=-3414, time=2),
    Message('pitchwheel', channel=5, pitch=-2883, time=1),
    Message('pitchwheel', channel=5, pitch=-2276, time=2),
    Message('pitchwheel', channel=5, pitch=-1973, time=2),
    Message('pitchwheel', channel=5, pitch=-1593, time=2),
    Message('pitchwheel', channel=5, pitch=-1138, time=1),
    Message('pitchwheel', channel=5, pitch=-759, time=2),
    Message('pitchwheel', channel=5, pitch=-76, time=2),
    Message('pitchwheel', channel=5, pitch=0, time=1),
    Message('note_on', channel=5, note=69, velocity=127, time=30),
    Message('note_on', channel=5, note=71, velocity=0, time=2),
    Message('note_on', channel=5, note=69, velocity=0, time=43),
    Message('note_on', channel=5, note=67, velocity=127, time=2),
    Message('note_on', channel=5, note=67, velocity=0, time=47),
    Message('note_on', channel=5, note=69, velocity=127, time=4),
    Message('note_on', channel=5, note=69, velocity=0, time=38),
    Message('pitchwheel', channel=5, pitch=-759, time=8),
    Message('pitchwheel', channel=5, pitch=-2276, time=2),
    Message('note_on', channel=5, note=71, velocity=127, time=2),
    Message('pitchwheel', channel=5, pitch=-3414, time=0),
    Message('pitchwheel', channel=5, pitch=-4248, time=1),
    Message('pitchwheel', channel=5, pitch=-4703, time=2),
    Message('pitchwheel', channel=5, pitch=-4400, time=3),
    Message('pitchwheel', channel=5, pitch=-3945, time=2),
    Message('pitchwheel', channel=5, pitch=-3641, time=2),
    Message('pitchwheel', channel=5, pitch=-3262, time=2),
    Message('pitchwheel', channel=5, pitch=-2579, time=1),
    Message('pitchwheel', channel=5, pitch=-2124, time=2),
    Message('pitchwheel', channel=5, pitch=-1593, time=2),
    Message('pitchwheel', channel=5, pitch=-1290, time=1),
    Message('pitchwheel', channel=5, pitch=-1062, time=2),
    Message('pitchwheel', channel=5, pitch=-759, time=2),
    Message('pitchwheel', channel=5, pitch=-304, time=2),
    Message('pitchwheel', channel=5, pitch=0, time=1),
    Message('note_off', channel=5, note=71, velocity=0, time=158),
    Message('note_on', channel=5, note=69, velocity=127, time=10),
    Message('control_change', channel=5, control=1, value=1, time=124),
    Message('control_change', channel=5, control=1, value=6, time=24),
    Message('control_change', channel=5, control=1, value=11, time=13),
    Message('control_change', channel=5, control=1, value=6, time=14),
    Message('control_change', channel=5, control=1, value=1, time=39),
    Message('control_change', channel=5, control=1, value=0, time=4),
    Message('note_off', channel=5, note=69, velocity=0, time=91),
    Message('note_on', channel=5, note=69, velocity=127, time=23),
    Message('note_on', channel=5, note=69, velocity=0, time=18),
    Message('note_on', channel=5, note=71, velocity=127, time=3),
    Message('note_on', channel=5, note=71, velocity=0, time=19),
    Message('note_on', channel=5, note=69, velocity=127, time=7),
    Message('note_on', channel=5, note=69, velocity=0, time=51),
    Message('note_on', channel=5, note=67, velocity=127, time=2),
    Message('note_on', channel=5, note=64, velocity=127, time=50),
    Message('note_on', channel=5, note=67, velocity=0, time=1),
    Message('note_on', channel=5, note=64, velocity=0, time=52),
    Message('note_on', channel=5, note=62, velocity=127, time=1),
    Message('note_on', channel=5, note=62, velocity=0, time=45),
    Message('note_on', channel=5, note=64, velocity=127, time=3),
    Message('note_on', channel=5, note=64, velocity=0, time=350),
    Message('note_on', channel=5, note=71, velocity=127, time=215),
    Message('note_on', channel=5, note=71, velocity=0, time=168),
    Message('pitchwheel', channel=5, pitch=-1518, time=17),
    Message('pitchwheel', channel=5, pitch=-3641, time=3),
    Message('pitchwheel', channel=5, pitch=-5538, time=3),
    Message('pitchwheel', channel=5, pitch=-6979, time=3),
    Message('note_on', channel=5, note=71, velocity=127, time=2),
    Message('pitchwheel', channel=5, pitch=-7737, time=1),
    Message('pitchwheel', channel=5, pitch=-7206, time=9),
    Message('pitchwheel', channel=5, pitch=-6751, time=3),
    Message('pitchwheel', channel=5, pitch=-6372, time=3),
    Message('pitchwheel', channel=5, pitch=-5614, time=3),
    Message('pitchwheel', channel=5, pitch=-4703, time=3),
    Message('pitchwheel', channel=5, pitch=-3338, time=3),
    Message('pitchwheel', channel=5, pitch=-2276, time=3),
    Message('pitchwheel', channel=5, pitch=-1745, time=4),
    Message('pitchwheel', channel=5, pitch=-1062, time=2),
    Message('pitchwheel', channel=5, pitch=-759, time=4),
    Message('pitchwheel', channel=5, pitch=-456, time=3),
    Message('pitchwheel', channel=5, pitch=0, time=6),
    Message('note_off', channel=5, note=71, velocity=0, time=113),
    Message('note_on', channel=5, note=71, velocity=127, time=27),
    Message('note_on', channel=5, note=69, velocity=127, time=47),
    Message('note_on', channel=5, note=71, velocity=0, time=8),
    Message('note_on', channel=5, note=69, velocity=0, time=40),
    Message('note_on', channel=5, note=67, velocity=127, time=0),
    Message('note_on', channel=5, note=67, velocity=0, time=45),
    Message('note_on', channel=5, note=69, velocity=127, time=5),
    Message('note_on', channel=5, note=69, velocity=0, time=41),
    Message('note_on', channel=5, note=71, velocity=127, time=6),
    Message('note_on', channel=5, note=71, velocity=0, time=180),
    Message('note_on', channel=5, note=69, velocity=127, time=16),
    Message('note_on', channel=5, note=69, velocity=0, time=310),
    Message('note_on', channel=5, note=71, velocity=127, time=23),
    Message('note_on', channel=5, note=71, velocity=0, time=44),
    Message('note_on', channel=5, note=69, velocity=127, time=6),
    Message('note_on', channel=5, note=69, velocity=0, time=40),
    Message('note_on', channel=5, note=67, velocity=127, time=2),
    Message('note_on', channel=5, note=67, velocity=0, time=50),
    Message('note_on', channel=5, note=64, velocity=127, time=2),
    Message('note_on', channel=5, note=62, velocity=127, time=46),
    Message('note_on', channel=5, note=64, velocity=0, time=6),
    Message('note_on', channel=5, note=62, velocity=0, time=36),
    Message('note_on', channel=5, note=64, velocity=127, time=1),
    Message('note_on', channel=5, note=64, velocity=0, time=138),
    Message('note_on', channel=5, note=71, velocity=127, time=61),
    Message('note_on', channel=5, note=71, velocity=0, time=168),
    Message('pitchwheel', channel=5, pitch=-1518, time=17),
    Message('pitchwheel', channel=5, pitch=-3641, time=3),
    Message('pitchwheel', channel=5, pitch=-5538, time=3),
    Message('pitchwheel', channel=5, pitch=-6979, time=3),
    Message('note_on', channel=5, note=71, velocity=127, time=2),
    Message('pitchwheel', channel=5, pitch=-7737, time=1),
    Message('pitchwheel', channel=5, pitch=-7206, time=9),
    Message('pitchwheel', channel=5, pitch=-6751, time=3),
    Message('pitchwheel', channel=5, pitch=-6372, time=3),
    Message('pitchwheel', channel=5, pitch=-5614, time=3),
    Message('pitchwheel', channel=5, pitch=-4703, time=3),
    Message('pitchwheel', channel=5, pitch=-3338, time=3),
    Message('pitchwheel', channel=5, pitch=-2276, time=3),
    Message('pitchwheel', channel=5, pitch=-1745, time=4),
    Message('pitchwheel', channel=5, pitch=-1062, time=2),
    Message('pitchwheel', channel=5, pitch=-759, time=4),
    Message('pitchwheel', channel=5, pitch=-456, time=3),
    Message('pitchwheel', channel=5, pitch=0, time=6),
    Message('note_off', channel=5, note=71, velocity=0, time=113),
    Message('note_on', channel=5, note=71, velocity=127, time=27),
    Message('note_on', channel=5, note=69, velocity=127, time=47),
    Message('note_on', channel=5, note=71, velocity=0, time=8),
    Message('note_on', channel=5, note=69, velocity=0, time=40),
    Message('note_on', channel=5, note=67, velocity=127, time=0),
    Message('note_on', channel=5, note=67, velocity=0, time=45),
    Message('note_on', channel=5, note=69, velocity=127, time=5),
    Message('note_on', channel=5, note=69, velocity=0, time=41),
    Message('note_on', channel=5, note=71, velocity=127, time=6),
    Message('note_on', channel=5, note=71, velocity=0, time=180),
    Message('note_on', channel=5, note=69, velocity=127, time=16),
    Message('note_on', channel=5, note=69, velocity=0, time=310),
    Message('note_on', channel=5, note=71, velocity=127, time=23),
    Message('note_on', channel=5, note=71, velocity=0, time=44),
    Message('note_on', channel=5, note=69, velocity=127, time=6),
    Message('note_on', channel=5, note=69, velocity=0, time=40),
    Message('note_on', channel=5, note=67, velocity=127, time=2),
    Message('note_on', channel=5, note=67, velocity=0, time=50),
    Message('note_on', channel=5, note=64, velocity=127, time=2),
    Message('note_on', channel=5, note=62, velocity=127, time=46),
    Message('note_on', channel=5, note=64, velocity=0, time=6),
    Message('note_on', channel=5, note=62, velocity=0, time=36),
    Message('note_on', channel=5, note=64, velocity=127, time=1),
    Message('note_on', channel=5, note=64, velocity=0, time=138),
    Message('note_on', channel=5, note=76, velocity=127, time=6205),
    Message('note_on', channel=5, note=83, velocity=127, time=0),
    Message('note_on', channel=5, note=79, velocity=127, time=0),
    Message('control_change', channel=5, control=64, value=127, time=240),
    Message('note_off', channel=5, note=76, velocity=0, time=18),
    Message('note_off', channel=5, note=79, velocity=0, time=3),
    Message('note_off', channel=5, note=83, velocity=0, time=2),
    Message('control_change', channel=5, control=64, value=0, time=117),
    Message('note_on', channel=5, note=79, velocity=127, time=4),
    Message('note_on', channel=5, note=86, velocity=127, time=0),
    Message('note_on', channel=5, note=83, velocity=127, time=0),
    Message('control_change', channel=5, control=64, value=127, time=201),
    Message('note_off', channel=5, note=86, velocity=0, time=42),
    Message('note_off', channel=5, note=79, velocity=0, time=2),
    Message('note_off', channel=5, note=83, velocity=0, time=1),
    Message('note_on', channel=5, note=78, velocity=127, time=138),
    Message('note_on', channel=5, note=81, velocity=127, time=0),
    Message('note_on', channel=5, note=86, velocity=127, time=0),
    Message('control_change', channel=5, control=64, value=0, time=0),
    Message('control_change', channel=5, control=64, value=127, time=177),
    Message('note_off', channel=5, note=81, velocity=0, time=76),
    Message('note_off', channel=5, note=78, velocity=0, time=3),
    Message('note_off', channel=5, note=86, velocity=0, time=6),
    Message('control_change', channel=5, control=64, value=0, time=114),
    Message('note_on', channel=5, note=81, velocity=127, time=8),
    Message('note_on', channel=5, note=88, velocity=127, time=0),
    Message('note_on', channel=5, note=85, velocity=127, time=0),
    Message('control_change', channel=5, control=64, value=127, time=210),
    Message('note_off', channel=5, note=85, velocity=0, time=33),
    Message('note_off', channel=5, note=88, velocity=0, time=1),
    Message('note_off', channel=5, note=81, velocity=0, time=3),
    Message('control_change', channel=5, control=64, value=0, time=132),
    Message('note_on', channel=5, note=76, velocity=127, time=5),
    Message('note_on', channel=5, note=79, velocity=127, time=0),
    Message('note_on', channel=5, note=83, velocity=127, time=0),
    Message('control_change', channel=5, control=64, value=127, time=208),
    Message('note_off', channel=5, note=76, velocity=0, time=23),
    Message('note_off', channel=5, note=79, velocity=0, time=2),
    Message('note_off', channel=5, note=83, velocity=0, time=5),
    Message('control_change', channel=5, control=64, value=0, time=140),
    Message('note_on', channel=5, note=86, velocity=127, time=6),
    Message('note_on', channel=5, note=79, velocity=127, time=0),
    Message('note_on', channel=5, note=83, velocity=127, time=0),
    Message('control_change', channel=5, control=64, value=127, time=71),
    Message('note_off', channel=5, note=79, velocity=0, time=37),
    Message('note_off', channel=5, note=83, velocity=0, time=2),
    Message('note_off', channel=5, note=86, velocity=0, time=10),
    Message('control_change', channel=5, control=64, value=0, time=256),
    Message('note_on', channel=5, note=78, velocity=127, time=8),
    Message('note_on', channel=5, note=86, velocity=127, time=0),
    Message('note_on', channel=5, note=81, velocity=127, time=0),
    Message('control_change', channel=5, control=64, value=127, time=188),
    Message('note_off', channel=5, note=81, velocity=0, time=68),
    Message('note_off', channel=5, note=78, velocity=0, time=4),
    Message('note_off', channel=5, note=86, velocity=0, time=2),
    Message('control_change', channel=5, control=64, value=0, time=116),
    Message('note_on', channel=5, note=85, velocity=127, time=6),
    Message('note_on', channel=5, note=81, velocity=127, time=0),
    Message('note_on', channel=5, note=81, velocity=0, time=357),
    Message('note_on', channel=5, note=85, velocity=0, time=3),
    Message('note_on', channel=5, note=76, velocity=127, time=24),
    Message('note_on', channel=5, note=83, velocity=127, time=0),
    Message('note_on', channel=5, note=79, velocity=127, time=0),
    Message('control_change', channel=5, control=64, value=127, time=240),
    Message('note_off', channel=5, note=76, velocity=0, time=18),
    Message('note_off', channel=5, note=79, velocity=0, time=3),
    Message('note_off', channel=5, note=83, velocity=0, time=2),
    Message('control_change', channel=5, control=64, value=0, time=117),
    Message('note_on', channel=5, note=79, velocity=127, time=4),
    Message('note_on', channel=5, note=86, velocity=127, time=0),
    Message('note_on', channel=5, note=83, velocity=127, time=0),
    Message('control_change', channel=5, control=64, value=127, time=201),
    Message('note_off', channel=5, note=86, velocity=0, time=42),
    Message('note_off', channel=5, note=79, velocity=0, time=2),
    Message('note_off', channel=5, note=83, velocity=0, time=1),
    Message('note_on', channel=5, note=78, velocity=127, time=138),
    Message('note_on', channel=5, note=81, velocity=127, time=0),
    Message('note_on', channel=5, note=86, velocity=127, time=0),
    Message('control_change', channel=5, control=64, value=0, time=0),
    Message('control_change', channel=5, control=64, value=127, time=177),
    Message('note_off', channel=5, note=81, velocity=0, time=76),
    Message('note_off', channel=5, note=78, velocity=0, time=3),
    Message('note_off', channel=5, note=86, velocity=0, time=6),
    Message('control_change', channel=5, control=64, value=0, time=114),
    Message('note_on', channel=5, note=81, velocity=127, time=8),
    Message('note_on', channel=5, note=88, velocity=127, time=0),
    Message('note_on', channel=5, note=85, velocity=127, time=0),
    Message('control_change', channel=5, control=64, value=127, time=210),
    Message('note_off', channel=5, note=85, velocity=0, time=33),
    Message('note_off', channel=5, note=88, velocity=0, time=1),
    Message('note_off', channel=5, note=81, velocity=0, time=3),
    Message('control_change', channel=5, control=64, value=0, time=132),
    Message('note_on', channel=5, note=76, velocity=127, time=5),
    Message('note_on', channel=5, note=79, velocity=127, time=0),
    Message('note_on', channel=5, note=83, velocity=127, time=0),
    Message('control_change', channel=5, control=64, value=127, time=208),
    Message('note_off', channel=5, note=76, velocity=0, time=23),
    Message('note_off', channel=5, note=79, velocity=0, time=2),
    Message('note_off', channel=5, note=83, velocity=0, time=5),
    Message('control_change', channel=5, control=64, value=0, time=140),
    Message('note_on', channel=5, note=86, velocity=127, time=6),
    Message('note_on', channel=5, note=79, velocity=127, time=0),
    Message('note_on', channel=5, note=83, velocity=127, time=0),
    Message('control_change', channel=5, control=64, value=127, time=71),
    Message('note_off', channel=5, note=79, velocity=0, time=37),
    Message('note_off', channel=5, note=83, velocity=0, time=2),
    Message('note_off', channel=5, note=86, velocity=0, time=10),
    Message('control_change', channel=5, control=64, value=0, time=256),
    Message('note_on', channel=5, note=78, velocity=127, time=8),
    Message('note_on', channel=5, note=86, velocity=127, time=0),
    Message('note_on', channel=5, note=81, velocity=127, time=0),
    Message('control_change', channel=5, control=64, value=127, time=188),
    Message('note_off', channel=5, note=81, velocity=0, time=68),
    Message('note_off', channel=5, note=78, velocity=0, time=4),
    Message('note_off', channel=5, note=86, velocity=0, time=2),
    Message('control_change', channel=5, control=64, value=0, time=116),
    Message('note_on', channel=5, note=85, velocity=127, time=6),
    Message('note_on', channel=5, note=81, velocity=127, time=0),
    Message('note_on', channel=5, note=81, velocity=0, time=357),
    Message('note_on', channel=5, note=85, velocity=0, time=3),
    Message('note_on', channel=5, note=71, velocity=127, time=24),
    Message('note_on', channel=5, note=76, velocity=127, time=0),
    Message('note_on', channel=5, note=71, velocity=0, time=167),
    Message('note_on', channel=5, note=76, velocity=0, time=3),
    Message('pitchwheel', channel=5, pitch=-911, time=8),
    Message('pitchwheel', channel=5, pitch=-2579, time=3),
    Message('pitchwheel', channel=5, pitch=-3945, time=3),
    Message('pitchwheel', channel=5, pitch=-5386, time=3),
    Message('pitchwheel', channel=5, pitch=-6220, time=3),
    Message('note_on', channel=5, note=76, velocity=127, time=2),
    Message('note_on', channel=5, note=71, velocity=127, time=0),
    Message('pitchwheel', channel=5, pitch=-6524, time=2),
    Message('pitchwheel', channel=5, pitch=-6751, time=5),
    Message('pitchwheel', channel=5, pitch=-6448, time=6),
    Message('pitchwheel', channel=5, pitch=-6069, time=3),
    Message('pitchwheel', channel=5, pitch=-5386, time=3),
    Message('pitchwheel', channel=5, pitch=-4627, time=3),
    Message('pitchwheel', channel=5, pitch=-3641, time=3),
    Message('pitchwheel', channel=5, pitch=-2883, time=3),
    Message('pitchwheel', channel=5, pitch=-2276, time=3),
    Message('pitchwheel', channel=5, pitch=-1821, time=3),
    Message('pitchwheel', channel=5, pitch=-1442, time=3),
    Message('pitchwheel', channel=5, pitch=-1138, time=7),
    Message('pitchwheel', channel=5, pitch=-911, time=2),
    Message('pitchwheel', channel=5, pitch=-683, time=4),
    Message('pitchwheel', channel=5, pitch=-152, time=2),
    Message('pitchwheel', channel=5, pitch=0, time=4),
    Message('control_change', channel=5, control=64, value=127, time=44),
    Message('note_off', channel=5, note=76, velocity=0, time=22),
    Message('note_off', channel=5, note=71, velocity=0, time=23),
    Message('control_change', channel=5, control=64, value=0, time=45),
    Message('note_on', channel=5, note=71, velocity=127, time=2),
    Message('note_on', channel=5, note=71, velocity=0, time=48),
    Message('note_on', channel=5, note=69, velocity=127, time=0),
    Message('note_on', channel=5, note=69, velocity=0, time=45),
    Message('note_on', channel=5, note=67, velocity=127, time=3),
    Message('note_on', channel=5, note=69, velocity=127, time=48),
    Message('note_on', channel=5, note=67, velocity=0, time=1),
    Message('note_on', channel=5, note=69, velocity=0, time=29),
    Message('note_on', channel=5, note=71, velocity=127, time=18),
    Message('note_on', channel=5, note=71, velocity=0, time=136),
    Message('note_on', channel=5, note=74, velocity=127, time=8),
    Message('note_on', channel=5, note=74, velocity=0, time=29),
    Message('note_on', channel=5, note=71, velocity=127, time=19),
    Message('note_on', channel=5, note=71, velocity=0, time=92),
    Message('note_on', channel=5, note=69, velocity=127, time=4),
    Message('note_on', channel=5, note=69, velocity=0, time=41),
    Message('note_on', channel=5, note=71, velocity=127, time=7),
    Message('note_on', channel=5, note=71, velocity=0, time=44),
    Message('note_on', channel=5, note=69, velocity=127, time=4),
    Message('note_on', channel=5, note=69, velocity=0, time=43),
    Message('note_on', channel=5, note=67, velocity=127, time=5),
    Message('note_on', channel=5, note=69, velocity=127, time=96),
    Message('note_on', channel=5, note=67, velocity=0, time=9),
    Message('note_on', channel=5, note=69, velocity=0, time=13),
    Message('note_on', channel=5, note=69, velocity=127, time=26),
    Message('note_on', channel=5, note=67, velocity=127, time=48),
    Message('note_on', channel=5, note=69, velocity=0, time=3),
    Message('note_on', channel=5, note=67, velocity=0, time=19),
    Message('note_on', channel=5, note=66, velocity=127, time=26),
    Message('note_on', channel=5, note=66, velocity=0, time=47),
    Message('note_on', channel=5, note=64, velocity=127, time=1),
    Message('note_on', channel=5, note=64, velocity=0, time=187),
    Message('pitchwheel', channel=5, pitch=-152, time=106),
    Message('pitchwheel', channel=5, pitch=-759, time=3),
    Message('pitchwheel', channel=5, pitch=-1518, time=3),
    Message('pitchwheel', channel=5, pitch=-2352, time=3),
    Message('pitchwheel', channel=5, pitch=-2883, time=3),
    Message('pitchwheel', channel=5, pitch=-3490, time=3),
    Message('pitchwheel', channel=5, pitch=-3945, time=3),
    Message('pitchwheel', channel=5, pitch=-4400, time=3),
    Message('pitchwheel', channel=5, pitch=-4779, time=3),
    Message('pitchwheel', channel=5, pitch=-5083, time=3),
    Message('pitchwheel', channel=5, pitch=-5462, time=3),
    Message('pitchwheel', channel=5, pitch=-5689, time=3),
    Message('note_on', channel=5, note=76, velocity=127, time=10),
    Message('note_on', channel=5, note=71, velocity=127, time=0),
    Message('pitchwheel', channel=5, pitch=-5310, time=6),
    Message('pitchwheel', channel=5, pitch=-4248, time=2),
    Message('pitchwheel', channel=5, pitch=-2579, time=4),
    Message('pitchwheel', channel=5, pitch=-683, time=2),
    Message('pitchwheel', channel=5, pitch=0, time=4),
    Message('note_off', channel=5, note=71, velocity=0, time=60),
    Message('pitchwheel', channel=5, pitch=-76, time=0),
    Message('note_off', channel=5, note=76, velocity=0, time=3),
    Message('pitchwheel', channel=5, pitch=-2124, time=0),
    Message('pitchwheel', channel=5, pitch=-4021, time=3),
    Message('pitchwheel', channel=5, pitch=-4703, time=3),
    Message('note_on', channel=5, note=76, velocity=127, time=9),
    Message('note_on', channel=5, note=71, velocity=127, time=0),
    Message('pitchwheel', channel=5, pitch=-4476, time=0),
    Message('pitchwheel', channel=5, pitch=-3793, time=3),
    Message('pitchwheel', channel=5, pitch=-3262, time=3),
    Message('pitchwheel', channel=5, pitch=-2883, time=3),
    Message('pitchwheel', channel=5, pitch=-2428, time=3),
    Message('pitchwheel', channel=5, pitch=-2124, time=3),
    Message('pitchwheel', channel=5, pitch=-1593, time=3),
    Message('pitchwheel', channel=5, pitch=-835, time=3),
    Message('pitchwheel', channel=5, pitch=-228, time=3),
    Message('pitchwheel', channel=5, pitch=0, time=3),
    Message('note_off', channel=5, note=71, velocity=0, time=131),
    Message('note_off', channel=5, note=76, velocity=0, time=12),
    Message('note_on', channel=5, note=71, velocity=127, time=22),
    Message('note_on', channel=5, note=69, velocity=127, time=48),
    Message('note_on', channel=5, note=71, velocity=0, time=1),
    Message('note_on', channel=5, note=67, velocity=127, time=47),
    Message('note_on', channel=5, note=69, velocity=0, time=8),
    Message('note_on', channel=5, note=67, velocity=0, time=40),
    Message('note_on', channel=5, note=69, velocity=127, time=0),
    Message('note_on', channel=5, note=69, velocity=0, time=46),
    Message('note_on', channel=5, note=71, velocity=127, time=2),
    Message('note_on', channel=5, note=71, velocity=0, time=88),
    Message('note_on', channel=5, note=74, velocity=127, time=8),
    Message('note_on', channel=5, note=74, velocity=0, time=90),
    Message('note_on', channel=5, note=69, velocity=127, time=6),
    Message('note_on', channel=5, note=69, velocity=0, time=137),
    Message('note_on', channel=5, note=71, velocity=127, time=7),
    Message('note_on', channel=5, note=71, velocity=0, time=48),
    Message('note_on', channel=5, note=69, velocity=127, time=0),
    Message('note_on', channel=5, note=69, velocity=0, time=134),
    Message('note_on', channel=5, note=71, velocity=127, time=10),
    Message('note_on', channel=5, note=71, velocity=0, time=45),
    Message('note_on', channel=5, note=69, velocity=127, time=3),
    Message('note_on', channel=5, note=67, velocity=127, time=48),
    Message('note_on', channel=5, note=69, velocity=0, time=4),
    Message('note_on', channel=5, note=67, velocity=0, time=26),
    Message('note_on', channel=5, note=66, velocity=127, time=18),
    Message('note_on', channel=5, note=66, velocity=0, time=44),
    Message('note_on', channel=5, note=64, velocity=127, time=4),
    Message('note_on', channel=5, note=64, velocity=0, time=42),
    Message('note_on', channel=5, note=64, velocity=127, time=6),
    Message('note_on', channel=5, note=64, velocity=0, time=144),
    Message('note_on', channel=5, note=76, velocity=127, time=6192),
    Message('note_on', channel=5, note=83, velocity=127, time=0),
    Message('note_on', channel=5, note=79, velocity=127, time=0),
    Message('control_change', channel=5, control=64, value=127, time=240),
    Message('note_off', channel=5, note=76, velocity=0, time=18),
    Message('note_off', channel=5, note=79, velocity=0, time=3),
    Message('note_off', channel=5, note=83, velocity=0, time=2),
    Message('control_change', channel=5, control=64, value=0, time=117),
    Message('note_on', channel=5, note=79, velocity=127, time=4),
    Message('note_on', channel=5, note=86, velocity=127, time=0),
    Message('note_on', channel=5, note=83, velocity=127, time=0),
    Message('control_change', channel=5, control=64, value=127, time=201),
    Message('note_off', channel=5, note=86, velocity=0, time=42),
    Message('note_off', channel=5, note=79, velocity=0, time=2),
    Message('note_off', channel=5, note=83, velocity=0, time=1),
    Message('note_on', channel=5, note=78, velocity=127, time=138),
    Message('note_on', channel=5, note=81, velocity=127, time=0),
    Message('note_on', channel=5, note=86, velocity=127, time=0),
    Message('control_change', channel=5, control=64, value=0, time=0),
    Message('control_change', channel=5, control=64, value=127, time=177),
    Message('note_off', channel=5, note=81, velocity=0, time=76),
    Message('note_off', channel=5, note=78, velocity=0, time=3),
    Message('note_off', channel=5, note=86, velocity=0, time=6),
    Message('control_change', channel=5, control=64, value=0, time=114),
    Message('note_on', channel=5, note=81, velocity=127, time=8),
    Message('note_on', channel=5, note=88, velocity=127, time=0),
    Message('note_on', channel=5, note=85, velocity=127, time=0),
    Message('control_change', channel=5, control=64, value=127, time=210),
    Message('note_off', channel=5, note=85, velocity=0, time=33),
    Message('note_off', channel=5, note=88, velocity=0, time=1),
    Message('note_off', channel=5, note=81, velocity=0, time=3),
    Message('control_change', channel=5, control=64, value=0, time=132),
    Message('note_on', channel=5, note=76, velocity=127, time=5),
    Message('note_on', channel=5, note=79, velocity=127, time=0),
    Message('note_on', channel=5, note=83, velocity=127, time=0),
    Message('control_change', channel=5, control=64, value=127, time=208),
    Message('note_off', channel=5, note=76, velocity=0, time=23),
    Message('note_off', channel=5, note=79, velocity=0, time=2),
    Message('note_off', channel=5, note=83, velocity=0, time=5),
    Message('control_change', channel=5, control=64, value=0, time=140),
    Message('note_on', channel=5, note=86, velocity=127, time=6),
    Message('note_on', channel=5, note=79, velocity=127, time=0),
    Message('note_on', channel=5, note=83, velocity=127, time=0),
    Message('control_change', channel=5, control=64, value=127, time=71),
    Message('note_off', channel=5, note=79, velocity=0, time=37),
    Message('note_off', channel=5, note=83, velocity=0, time=2),
    Message('note_off', channel=5, note=86, velocity=0, time=10),
    Message('control_change', channel=5, control=64, value=0, time=256),
    Message('note_on', channel=5, note=78, velocity=127, time=8),
    Message('note_on', channel=5, note=86, velocity=127, time=0),
    Message('note_on', channel=5, note=81, velocity=127, time=0),
    Message('control_change', channel=5, control=64, value=127, time=188),
    Message('note_off', channel=5, note=81, velocity=0, time=68),
    Message('note_off', channel=5, note=78, velocity=0, time=4),
    Message('note_off', channel=5, note=86, velocity=0, time=2),
    Message('control_change', channel=5, control=64, value=0, time=116),
    Message('note_on', channel=5, note=85, velocity=127, time=6),
    Message('note_on', channel=5, note=81, velocity=127, time=0),
    Message('note_on', channel=5, note=81, velocity=0, time=357),
    Message('note_on', channel=5, note=85, velocity=0, time=3),
    Message('note_on', channel=5, note=76, velocity=127, time=24),
    Message('note_on', channel=5, note=83, velocity=127, time=0),
    Message('note_on', channel=5, note=79, velocity=127, time=0),
    Message('control_change', channel=5, control=64, value=127, time=240),
    Message('note_off', channel=5, note=76, velocity=0, time=18),
    Message('note_off', channel=5, note=79, velocity=0, time=3),
    Message('note_off', channel=5, note=83, velocity=0, time=2),
    Message('control_change', channel=5, control=64, value=0, time=117),
    Message('note_on', channel=5, note=79, velocity=127, time=4),
    Message('note_on', channel=5, note=86, velocity=127, time=0),
    Message('note_on', channel=5, note=83, velocity=127, time=0),
    Message('control_change', channel=5, control=64, value=127, time=201),
    Message('note_off', channel=5, note=86, velocity=0, time=42),
    Message('note_off', channel=5, note=79, velocity=0, time=2),
    Message('note_off', channel=5, note=83, velocity=0, time=1),
    Message('note_on', channel=5, note=78, velocity=127, time=138),
    Message('note_on', channel=5, note=81, velocity=127, time=0),
    Message('note_on', channel=5, note=86, velocity=127, time=0),
    Message('control_change', channel=5, control=64, value=0, time=0),
    Message('control_change', channel=5, control=64, value=127, time=177),
    Message('note_off', channel=5, note=81, velocity=0, time=76),
    Message('note_off', channel=5, note=78, velocity=0, time=3),
    Message('note_off', channel=5, note=86, velocity=0, time=6),
    Message('control_change', channel=5, control=64, value=0, time=114),
    Message('note_on', channel=5, note=81, velocity=127, time=8),
    Message('note_on', channel=5, note=88, velocity=127, time=0),
    Message('note_on', channel=5, note=85, velocity=127, time=0),
    Message('control_change', channel=5, control=64, value=127, time=210),
    Message('note_off', channel=5, note=85, velocity=0, time=33),
    Message('note_off', channel=5, note=88, velocity=0, time=1),
    Message('note_off', channel=5, note=81, velocity=0, time=3),
    Message('control_change', channel=5, control=64, value=0, time=132),
    Message('note_on', channel=5, note=76, velocity=127, time=5),
    Message('note_on', channel=5, note=79, velocity=127, time=0),
    Message('note_on', channel=5, note=83, velocity=127, time=0),
    Message('control_change', channel=5, control=64, value=127, time=208),
    Message('note_off', channel=5, note=76, velocity=0, time=23),
    Message('note_off', channel=5, note=79, velocity=0, time=2),
    Message('note_off', channel=5, note=83, velocity=0, time=5),
    Message('control_change', channel=5, control=64, value=0, time=140),
    Message('note_on', channel=5, note=86, velocity=127, time=6),
    Message('note_on', channel=5, note=79, velocity=127, time=0),
    Message('note_on', channel=5, note=83, velocity=127, time=0),
    Message('control_change', channel=5, control=64, value=127, time=71),
    Message('note_off', channel=5, note=79, velocity=0, time=37),
    Message('note_off', channel=5, note=83, velocity=0, time=2),
    Message('note_off', channel=5, note=86, velocity=0, time=10),
    Message('control_change', channel=5, control=64, value=0, time=256),
    Message('note_on', channel=5, note=78, velocity=127, time=8),
    Message('note_on', channel=5, note=86, velocity=127, time=0),
    Message('note_on', channel=5, note=81, velocity=127, time=0),
    Message('control_change', channel=5, control=64, value=127, time=188),
    Message('note_off', channel=5, note=81, velocity=0, time=68),
    Message('note_off', channel=5, note=78, velocity=0, time=4),
    Message('note_off', channel=5, note=86, velocity=0, time=2),
    Message('control_change', channel=5, control=64, value=0, time=116),
    Message('note_on', channel=5, note=85, velocity=127, time=6),
    Message('note_on', channel=5, note=81, velocity=127, time=0),
    Message('note_on', channel=5, note=81, velocity=0, time=357),
    Message('note_on', channel=5, note=85, velocity=0, time=3),
    Message('note_on', channel=5, note=71, velocity=127, time=24),
    Message('note_on', channel=5, note=76, velocity=127, time=0),
    Message('note_on', channel=5, note=71, velocity=0, time=167),
    Message('note_on', channel=5, note=76, velocity=0, time=3),
    Message('pitchwheel', channel=5, pitch=-911, time=8),
    Message('pitchwheel', channel=5, pitch=-2579, time=3),
    Message('pitchwheel', channel=5, pitch=-3945, time=3),
    Message('pitchwheel', channel=5, pitch=-5386, time=3),
    Message('pitchwheel', channel=5, pitch=-6220, time=3),
    Message('note_on', channel=5, note=76, velocity=127, time=2),
    Message('note_on', channel=5, note=71, velocity=127, time=0),
    Message('pitchwheel', channel=5, pitch=-6524, time=2),
    Message('pitchwheel', channel=5, pitch=-6751, time=5),
    Message('pitchwheel', channel=5, pitch=-6448, time=6),
    Message('pitchwheel', channel=5, pitch=-6069, time=3),
    Message('pitchwheel', channel=5, pitch=-5386, time=3),
    Message('pitchwheel', channel=5, pitch=-4627, time=3),
    Message('pitchwheel', channel=5, pitch=-3641, time=3),
    Message('pitchwheel', channel=5, pitch=-2883, time=3),
    Message('pitchwheel', channel=5, pitch=-2276, time=3),
    Message('pitchwheel', channel=5, pitch=-1821, time=3),
    Message('pitchwheel', channel=5, pitch=-1442, time=3),
    Message('pitchwheel', channel=5, pitch=-1138, time=7),
    Message('pitchwheel', channel=5, pitch=-911, time=2),
    Message('pitchwheel', channel=5, pitch=-683, time=4),
    Message('pitchwheel', channel=5, pitch=-152, time=2),
    Message('pitchwheel', channel=5, pitch=0, time=4),
    Message('control_change', channel=5, control=64, value=127, time=44),
    Message('note_off', channel=5, note=76, velocity=0, time=22),
    Message('note_off', channel=5, note=71, velocity=0, time=23),
    Message('control_change', channel=5, control=64, value=0, time=45),
    Message('note_on', channel=5, note=71, velocity=127, time=2),
    Message('note_on', channel=5, note=71, velocity=0, time=48),
    Message('note_on', channel=5, note=69, velocity=127, time=0),
    Message('note_on', channel=5, note=69, velocity=0, time=45),
    Message('note_on', channel=5, note=67, velocity=127, time=3),
    Message('note_on', channel=5, note=69, velocity=127, time=48),
    Message('note_on', channel=5, note=67, velocity=0, time=1),
    Message('note_on', channel=5, note=69, velocity=0, time=29),
    Message('note_on', channel=5, note=71, velocity=127, time=18),
    Message('note_on', channel=5, note=71, velocity=0, time=136),
    Message('note_on', channel=5, note=74, velocity=127, time=8),
    Message('note_on', channel=5, note=74, velocity=0, time=29),
    Message('note_on', channel=5, note=71, velocity=127, time=19),
    Message('note_on', channel=5, note=71, velocity=0, time=92),
    Message('note_on', channel=5, note=69, velocity=127, time=4),
    Message('note_on', channel=5, note=69, velocity=0, time=41),
    Message('note_on', channel=5, note=71, velocity=127, time=7),
    Message('note_on', channel=5, note=71, velocity=0, time=44),
    Message('note_on', channel=5, note=69, velocity=127, time=4),
    Message('note_on', channel=5, note=69, velocity=0, time=43),
    Message('note_on', channel=5, note=67, velocity=127, time=5),
    Message('note_on', channel=5, note=69, velocity=127, time=96),
    Message('note_on', channel=5, note=67, velocity=0, time=9),
    Message('note_on', channel=5, note=69, velocity=0, time=13),
    Message('note_on', channel=5, note=69, velocity=127, time=26),
    Message('note_on', channel=5, note=67, velocity=127, time=48),
    Message('note_on', channel=5, note=69, velocity=0, time=3),
    Message('note_on', channel=5, note=67, velocity=0, time=19),
    Message('note_on', channel=5, note=66, velocity=127, time=26),
    Message('note_on', channel=5, note=66, velocity=0, time=47),
    Message('note_on', channel=5, note=64, velocity=127, time=1),
    Message('note_on', channel=5, note=64, velocity=0, time=187),
    Message('pitchwheel', channel=5, pitch=-152, time=106),
    Message('pitchwheel', channel=5, pitch=-759, time=3),
    Message('pitchwheel', channel=5, pitch=-1518, time=3),
    Message('pitchwheel', channel=5, pitch=-2352, time=3),
    Message('pitchwheel', channel=5, pitch=-2883, time=3),
    Message('pitchwheel', channel=5, pitch=-3490, time=3),
    Message('pitchwheel', channel=5, pitch=-3945, time=3),
    Message('pitchwheel', channel=5, pitch=-4400, time=3),
    Message('pitchwheel', channel=5, pitch=-4779, time=3),
    Message('pitchwheel', channel=5, pitch=-5083, time=3),
    Message('pitchwheel', channel=5, pitch=-5462, time=3),
    Message('pitchwheel', channel=5, pitch=-5689, time=3),
    Message('note_on', channel=5, note=76, velocity=127, time=10),
    Message('note_on', channel=5, note=71, velocity=127, time=0),
    Message('pitchwheel', channel=5, pitch=-5310, time=6),
    Message('pitchwheel', channel=5, pitch=-4248, time=2),
    Message('pitchwheel', channel=5, pitch=-2579, time=4),
    Message('pitchwheel', channel=5, pitch=-683, time=2),
    Message('pitchwheel', channel=5, pitch=0, time=4),
    Message('note_off', channel=5, note=71, velocity=0, time=60),
    Message('pitchwheel', channel=5, pitch=-76, time=0),
    Message('note_off', channel=5, note=76, velocity=0, time=3),
    Message('pitchwheel', channel=5, pitch=-2124, time=0),
    Message('pitchwheel', channel=5, pitch=-4021, time=3),
    Message('pitchwheel', channel=5, pitch=-4703, time=3),
    Message('note_on', channel=5, note=76, velocity=127, time=9),
    Message('note_on', channel=5, note=71, velocity=127, time=0),
    Message('pitchwheel', channel=5, pitch=-4476, time=0),
    Message('pitchwheel', channel=5, pitch=-3793, time=3),
    Message('pitchwheel', channel=5, pitch=-3262, time=3),
    Message('pitchwheel', channel=5, pitch=-2883, time=3),
    Message('pitchwheel', channel=5, pitch=-2428, time=3),
    Message('pitchwheel', channel=5, pitch=-2124, time=3),
    Message('pitchwheel', channel=5, pitch=-1593, time=3),
    Message('pitchwheel', channel=5, pitch=-835, time=3),
    Message('pitchwheel', channel=5, pitch=-228, time=3),
    Message('pitchwheel', channel=5, pitch=0, time=3),
    Message('note_off', channel=5, note=71, velocity=0, time=131),
    Message('note_off', channel=5, note=76, velocity=0, time=12),
    Message('note_on', channel=5, note=71, velocity=127, time=22),
    Message('note_on', channel=5, note=69, velocity=127, time=48),
    Message('note_on', channel=5, note=71, velocity=0, time=1),
    Message('note_on', channel=5, note=67, velocity=127, time=47),
    Message('note_on', channel=5, note=69, velocity=0, time=8),
    Message('note_on', channel=5, note=67, velocity=0, time=40),
    Message('note_on', channel=5, note=69, velocity=127, time=0),
    Message('note_on', channel=5, note=69, velocity=0, time=46),
    Message('note_on', channel=5, note=71, velocity=127, time=2),
    Message('note_on', channel=5, note=71, velocity=0, time=88),
    Message('note_on', channel=5, note=74, velocity=127, time=8),
    Message('note_on', channel=5, note=74, velocity=0, time=90),
    Message('note_on', channel=5, note=69, velocity=127, time=6),
    Message('note_on', channel=5, note=69, velocity=0, time=137),
    Message('note_on', channel=5, note=71, velocity=127, time=7),
    Message('note_on', channel=5, note=71, velocity=0, time=48),
    Message('note_on', channel=5, note=69, velocity=127, time=0),
    Message('note_on', channel=5, note=69, velocity=0, time=134),
    Message('note_on', channel=5, note=71, velocity=127, time=10),
    Message('note_on', channel=5, note=71, velocity=0, time=45),
    Message('note_on', channel=5, note=69, velocity=127, time=3),
    Message('note_on', channel=5, note=67, velocity=127, time=48),
    Message('note_on', channel=5, note=69, velocity=0, time=4),
    Message('note_on', channel=5, note=67, velocity=0, time=26),
    Message('note_on', channel=5, note=66, velocity=127, time=18),
    Message('note_on', channel=5, note=66, velocity=0, time=44),
    Message('note_on', channel=5, note=64, velocity=127, time=4),
    Message('note_on', channel=5, note=64, velocity=0, time=42),
    Message('note_on', channel=5, note=64, velocity=127, time=6),
    Message('note_on', channel=5, note=64, velocity=0, time=144),
    Message('note_on', channel=5, note=71, velocity=127, time=48),
    Message('note_on', channel=5, note=76, velocity=127, time=0),
    Message('note_on', channel=5, note=71, velocity=0, time=167),
    Message('note_on', channel=5, note=76, velocity=0, time=3),
    Message('pitchwheel', channel=5, pitch=-911, time=8),
    Message('pitchwheel', channel=5, pitch=-2579, time=3),
    Message('pitchwheel', channel=5, pitch=-3945, time=3),
    Message('pitchwheel', channel=5, pitch=-5386, time=3),
    Message('pitchwheel', channel=5, pitch=-6220, time=3),
    Message('note_on', channel=5, note=76, velocity=127, time=2),
    Message('note_on', channel=5, note=71, velocity=127, time=0),
    Message('pitchwheel', channel=5, pitch=-6524, time=2),
    Message('pitchwheel', channel=5, pitch=-6751, time=5),
    Message('pitchwheel', channel=5, pitch=-6448, time=6),
    Message('pitchwheel', channel=5, pitch=-6069, time=3),
    Message('pitchwheel', channel=5, pitch=-5386, time=3),
    Message('pitchwheel', channel=5, pitch=-4627, time=3),
    Message('pitchwheel', channel=5, pitch=-3641, time=3),
    Message('pitchwheel', channel=5, pitch=-2883, time=3),
    Message('pitchwheel', channel=5, pitch=-2276, time=3),
    Message('pitchwheel', channel=5, pitch=-1821, time=3),
    Message('pitchwheel', channel=5, pitch=-1442, time=3),
    Message('pitchwheel', channel=5, pitch=-1138, time=7),
    Message('pitchwheel', channel=5, pitch=-911, time=2),
    Message('pitchwheel', channel=5, pitch=-683, time=4),
    Message('pitchwheel', channel=5, pitch=-152, time=2),
    Message('pitchwheel', channel=5, pitch=0, time=4),
    Message('control_change', channel=5, control=64, value=127, time=44),
    Message('note_off', channel=5, note=76, velocity=0, time=22),
    Message('note_off', channel=5, note=71, velocity=0, time=23),
    Message('control_change', channel=5, control=64, value=0, time=45),
    Message('note_on', channel=5, note=71, velocity=127, time=2),
    Message('note_on', channel=5, note=71, velocity=0, time=48),
    Message('note_on', channel=5, note=69, velocity=127, time=0),
    Message('note_on', channel=5, note=69, velocity=0, time=45),
    Message('note_on', channel=5, note=67, velocity=127, time=3),
    Message('note_on', channel=5, note=69, velocity=127, time=48),
    Message('note_on', channel=5, note=67, velocity=0, time=1),
    Message('note_on', channel=5, note=69, velocity=0, time=29),
    Message('note_on', channel=5, note=71, velocity=127, time=18),
    Message('note_on', channel=5, note=71, velocity=0, time=136),
    Message('note_on', channel=5, note=74, velocity=127, time=8),
    Message('note_on', channel=5, note=74, velocity=0, time=29),
    Message('note_on', channel=5, note=71, velocity=127, time=19),
    Message('note_on', channel=5, note=71, velocity=0, time=92),
    Message('note_on', channel=5, note=69, velocity=127, time=4),
    Message('note_on', channel=5, note=69, velocity=0, time=41),
    Message('note_on', channel=5, note=71, velocity=127, time=7),
    Message('note_on', channel=5, note=71, velocity=0, time=44),
    Message('note_on', channel=5, note=69, velocity=127, time=4),
    Message('note_on', channel=5, note=69, velocity=0, time=43),
    Message('note_on', channel=5, note=67, velocity=127, time=5),
    Message('note_on', channel=5, note=69, velocity=127, time=96),
    Message('note_on', channel=5, note=67, velocity=0, time=9),
    Message('note_on', channel=5, note=69, velocity=0, time=13),
    Message('note_on', channel=5, note=69, velocity=127, time=26),
    Message('note_on', channel=5, note=67, velocity=127, time=48),
    Message('note_on', channel=5, note=69, velocity=0, time=3),
    Message('note_on', channel=5, note=67, velocity=0, time=19),
    Message('note_on', channel=5, note=66, velocity=127, time=26),
    Message('note_on', channel=5, note=66, velocity=0, time=47),
    Message('note_on', channel=5, note=64, velocity=127, time=1),
    Message('note_on', channel=5, note=64, velocity=0, time=187),
    Message('note_on', channel=5, note=71, velocity=127, time=53),
    Message('pitchwheel', channel=5, pitch=-456, time=184),
    Message('pitchwheel', channel=5, pitch=-1821, time=1),
    Message('pitchwheel', channel=5, pitch=-3338, time=2),
    Message('pitchwheel', channel=5, pitch=-4627, time=2),
    Message('pitchwheel', channel=5, pitch=-5538, time=1),
    Message('pitchwheel', channel=5, pitch=-6296, time=2),
    Message('pitchwheel', channel=5, pitch=-6600, time=2),
    Message('pitchwheel', channel=5, pitch=-6220, time=7),
    Message('pitchwheel', channel=5, pitch=-5765, time=1),
    Message('pitchwheel', channel=5, pitch=-5310, time=2),
    Message('pitchwheel', channel=5, pitch=-4779, time=2),
    Message('pitchwheel', channel=5, pitch=-4248, time=2),
    Message('pitchwheel', channel=5, pitch=-3717, time=1),
    Message('pitchwheel', channel=5, pitch=-3338, time=2),
    Message('pitchwheel', channel=5, pitch=-2883, time=2),
    Message('pitchwheel', channel=5, pitch=-2504, time=1),
    Message('pitchwheel', channel=5, pitch=-2276, time=2),
    Message('pitchwheel', channel=5, pitch=-1897, time=5),
    Message('pitchwheel', channel=5, pitch=-1518, time=2),
    Message('pitchwheel', channel=5, pitch=-1290, time=1),
    Message('pitchwheel', channel=5, pitch=-1062, time=2),
    Message('pitchwheel', channel=5, pitch=-835, time=4),
    Message('pitchwheel', channel=5, pitch=-456, time=1),
    Message('pitchwheel', channel=5, pitch=-152, time=4),
    Message('pitchwheel', channel=5, pitch=0, time=1),
    Message('control_change', channel=5, control=64, value=127, time=96),
    Message('note_off', channel=5, note=71, velocity=0, time=20),
    Message('note_on', channel=5, note=71, velocity=127, time=8),
    Message('control_change', channel=5, control=64, value=0, time=0),
    Message('pitchwheel', channel=5, pitch=-304, time=3),
    Message('pitchwheel', channel=5, pitch=-1669, time=1),
    Message('pitchwheel', channel=5, pitch=-2959, time=2),
    Message('pitchwheel', channel=5, pitch=-3869, time=2),
    Message('pitchwheel', channel=5, pitch=-4703, time=2),
    Message('pitchwheel', channel=5, pitch=-5007, time=1),
    Message('pitchwheel', channel=5, pitch=-5234, time=2),
    Message('pitchwheel', channel=5, pitch=-4855, time=5),
    Message('pitchwheel', channel=5, pitch=-4324, time=4),
    Message('pitchwheel', channel=5, pitch=-3793, time=1),
    Message('pitchwheel', channel=5, pitch=-3490, time=2),
    Message('pitchwheel', channel=5, pitch=-2883, time=1),
    Message('pitchwheel', channel=5, pitch=-2276, time=2),
    Message('pitchwheel', channel=5, pitch=-1366, time=2),
    Message('pitchwheel', channel=5, pitch=-683, time=2),
    Message('pitchwheel', channel=5, pitch=-76, time=1),
    Message('pitchwheel', channel=5, pitch=0, time=2),
    Message('note_off', channel=5, note=71, velocity=0, time=14),
    Message('note_on', channel=5, note=69, velocity=127, time=23),
    Message('note_on', channel=5, note=69, velocity=0, time=45),
    Message('note_on', channel=5, note=67, velocity=127, time=3),
    Message('note_on', channel=5, note=67, velocity=0, time=46),
    Message('note_on', channel=5, note=69, velocity=127, time=2),
    Message('note_on', channel=5, note=71, velocity=127, time=48),
    Message('note_on', channel=5, note=69, velocity=0, time=2),
    Message('note_on', channel=5, note=71, velocity=0, time=189),
    Message('note_on', channel=5, note=69, velocity=127, time=1),
    Message('note_on', channel=5, note=69, velocity=0, time=173),
    Message('pitchwheel', channel=5, pitch=-1062, time=8),
    Message('pitchwheel', channel=5, pitch=-2807, time=2),
    Message('pitchwheel', channel=5, pitch=-4021, time=2),
    Message('pitchwheel', channel=5, pitch=-4855, time=1),
    Message('pitchwheel', channel=5, pitch=-5462, time=2),
    Message('pitchwheel', channel=5, pitch=-5765, time=2),
    Message('note_on', channel=5, note=69, velocity=127, time=2),
    Message('pitchwheel', channel=5, pitch=-5538, time=3),
    Message('pitchwheel', channel=5, pitch=-5007, time=1),
    Message('pitchwheel', channel=5, pitch=-4627, time=2),
    Message('pitchwheel', channel=5, pitch=-4021, time=2),
    Message('pitchwheel', channel=5, pitch=-3641, time=2),
    Message('pitchwheel', channel=5, pitch=-3262, time=1),
    Message('pitchwheel', channel=5, pitch=-2579, time=2),
    Message('pitchwheel', channel=5, pitch=-1973, time=2),
    Message('pitchwheel', channel=5, pitch=-1138, time=1),
    Message('pitchwheel', channel=5, pitch=-607, time=2),
    Message('pitchwheel', channel=5, pitch=-152, time=2),
    Message('pitchwheel', channel=5, pitch=0, time=2),
    Message('control_change', channel=5, control=64, value=127, time=88),
    Message('note_off', channel=5, note=69, velocity=0, time=14),
    Message('control_change', channel=5, control=64, value=0, time=10),
    Message('note_on', channel=5, note=71, velocity=127, time=10),
    Message('note_on', channel=5, note=71, velocity=0, time=43),
    Message('note_on', channel=5, note=69, velocity=127, time=5),
    Message('note_on', channel=5, note=69, velocity=0, time=48),
    Message('note_on', channel=5, note=67, velocity=127, time=0),
    Message('note_on', channel=5, note=67, velocity=0, time=43),
    Message('note_on', channel=5, note=64, velocity=127, time=5),
    Message('note_on', channel=5, note=62, velocity=127, time=48),
    Message('note_on', channel=5, note=64, velocity=0, time=1),
    Message('note_on', channel=5, note=62, velocity=0, time=45),
    Message('note_on', channel=5, note=64, velocity=127, time=2),
    Message('note_on', channel=5, note=64, velocity=0, time=190),
    MetaMessage('end_of_track', time=0)]),
  MidiTrack([
    MetaMessage('midi_port', port=0, time=0),
    Message('program_change', channel=5, program=105, time=0),
    Message('control_change', channel=5, control=10, value=57, time=0),
    Message('control_change', channel=5, control=10, value=57, time=19),
    Message('control_change', channel=5, control=10, value=57, time=5),
    Message('control_change', channel=5, control=10, value=57, time=4),
    Message('control_change', channel=5, control=10, value=57, time=5),
    Message('control_change', channel=5, control=10, value=57, time=5),
    Message('control_change', channel=5, control=10, value=57, time=5),
    Message('control_change', channel=5, control=10, value=57, time=5),
    Message('control_change', channel=5, control=10, value=57, time=4),
    Message('control_change', channel=5, control=10, value=57, time=5),
    Message('control_change', channel=5, control=10, value=58, time=5),
    Message('control_change', channel=5, control=10, value=58, time=5),
    Message('control_change', channel=5, control=10, value=58, time=5),
    Message('control_change', channel=5, control=10, value=58, time=4),
    Message('control_change', channel=5, control=10, value=58, time=5),
    Message('control_change', channel=5, control=10, value=58, time=5),
    Message('control_change', channel=5, control=10, value=58, time=5),
    Message('control_change', channel=5, control=10, value=58, time=5),
    Message('control_change', channel=5, control=10, value=58, time=4),
    Message('control_change', channel=5, control=10, value=58, time=5),
    Message('control_change', channel=5, control=10, value=58, time=5),
    Message('control_change', channel=5, control=10, value=59, time=5),
    Message('control_change', channel=5, control=10, value=59, time=5),
    Message('control_change', channel=5, control=10, value=59, time=4),
    Message('control_change', channel=5, control=10, value=59, time=5),
    Message('control_change', channel=5, control=10, value=59, time=5),
    Message('control_change', channel=5, control=10, value=59, time=5),
    Message('note_on', channel=5, note=52, velocity=127, time=9845),
    Message('note_on', channel=5, note=55, velocity=127, time=0),
    Message('note_on', channel=5, note=40, velocity=127, time=0),
    Message('note_on', channel=5, note=59, velocity=127, time=0),
    Message('note_on', channel=5, note=52, velocity=0, time=24),
    Message('note_on', channel=5, note=55, velocity=0, time=20),
    Message('control_change', channel=5, control=64, value=127, time=0),
    Message('note_on', channel=5, note=52, velocity=127, time=4),
    Message('note_on', channel=5, note=59, velocity=0, time=2),
    Message('note_on', channel=5, note=40, velocity=0, time=7),
    Message('note_on', channel=5, note=52, velocity=0, time=22),
    Message('note_on', channel=5, note=55, velocity=127, time=17),
    Message('note_on', channel=5, note=55, velocity=0, time=26),
    Message('note_on', channel=5, note=59, velocity=127, time=22),
    Message('note_on', channel=5, note=59, velocity=0, time=26),
    Message('note_on', channel=5, note=52, velocity=127, time=22),
    Message('control_change', channel=5, control=64, value=0, time=0),
    Message('note_on', channel=5, note=59, velocity=127, time=48),
    Message('control_change', channel=5, control=64, value=127, time=18),
    Message('note_off', channel=5, note=59, velocity=0, time=15),
    Message('control_change', channel=5, control=64, value=0, time=0),
    Message('note_on', channel=5, note=64, velocity=127, time=15),
    Message('note_on', channel=5, note=52, velocity=0, time=14),
    Message('control_change', channel=5, control=64, value=127, time=23),
    Message('note_on', channel=5, note=67, velocity=127, time=11),
    Message('note_on', channel=5, note=64, velocity=0, time=3),
    Message('note_on', channel=5, note=67, velocity=0, time=29),
    Message('control_change', channel=5, control=64, value=0, time=14),
    Message('note_on', channel=5, note=55, velocity=127, time=2),
    Message('note_on', channel=5, note=59, velocity=127, time=48),
    Message('note_on', channel=5, note=62, velocity=127, time=48),
    Message('note_on', channel=5, note=62, velocity=0, time=17),
    Message('note_on', channel=5, note=67, velocity=127, time=31),
    Message('control_change', channel=5, control=64, value=127, time=31),
    Message('note_on', channel=5, note=62, velocity=127, time=17),
    Message('note_on', channel=5, note=67, velocity=0, time=19),
    Message('note_on', channel=5, note=62, velocity=0, time=15),
    Message('note_on', channel=5, note=69, velocity=127, time=14),
    Message('control_change', channel=5, control=64, value=0, time=28),
    Message('note_on', channel=5, note=62, velocity=127, time=20),
    Message('control_change', channel=5, control=64, value=127, time=21),
    Message('note_off', channel=5, note=62, velocity=0, time=9),
    Message('note_off', channel=5, note=69, velocity=0, time=14),
    Message('note_off', channel=5, note=59, velocity=0, time=3),
    Message('note_on', channel=5, note=71, velocity=127, time=1),
    Message('note_on', channel=5, note=55, velocity=0, time=4),
    Message('note_on', channel=5, note=71, velocity=0, time=31),
    Message('note_on', channel=5, note=50, velocity=127, time=13),
    Message('control_change', channel=5, control=64, value=0, time=0),
    Message('note_on', channel=5, note=57, velocity=127, time=48),
    Message('note_on', channel=5, note=62, velocity=127, time=48),
    Message('note_on', channel=5, note=57, velocity=0, time=4),
    Message('control_change', channel=5, control=64, value=127, time=0),
    Message('note_on', channel=5, note=57, velocity=127, time=44),
    Message('note_on', channel=5, note=62, velocity=0, time=9),
    Message('control_change', channel=5, control=64, value=0, time=35),
    Message('note_on', channel=5, note=62, velocity=127, time=4),
    Message('note_on', channel=5, note=57, velocity=0, time=4),
    Message('note_on', channel=5, note=57, velocity=127, time=44),
    Message('control_change', channel=5, control=64, value=127, time=16),
    Message('note_off', channel=5, note=62, velocity=0, time=18),
    Message('note_off', channel=5, note=57, velocity=0, time=1),
    Message('note_on', channel=5, note=64, velocity=127, time=13),
    Message('note_on', channel=5, note=50, velocity=0, time=8),
    Message('control_change', channel=5, control=64, value=0, time=7),
    Message('control_change', channel=5, control=64, value=127, time=8),
    Message('note_off', channel=5, note=64, velocity=0, time=22),
    Message('note_on', channel=5, note=62, velocity=127, time=3),
    Message('note_on', channel=5, note=62, velocity=0, time=23),
    Message('control_change', channel=5, control=64, value=0, time=21),
    Message('note_on', channel=5, note=45, velocity=127, time=4),
    Message('note_on', channel=5, note=52, velocity=127, time=48),
    Message('note_on', channel=5, note=52, velocity=0, time=38),
    Message('note_on', channel=5, note=57, velocity=127, time=10),
    Message('note_on', channel=5, note=61, velocity=127, time=0),
    Message('control_change', channel=5, control=64, value=127, time=4),
    Message('note_off', channel=5, note=57, velocity=0, time=12),
    Message('note_on', channel=5, note=52, velocity=127, time=32),
    Message('note_on', channel=5, note=61, velocity=0, time=13),
    Message('control_change', channel=5, control=64, value=0, time=29),
    Message('note_off', channel=5, note=52, velocity=0, time=5),
    Message('note_on', channel=5, note=62, velocity=127, time=1),
    Message('control_change', channel=5, control=64, value=127, time=36),
    Message('note_off', channel=5, note=62, velocity=0, time=12),
    Message('note_on', channel=5, note=61, velocity=127, time=0),
    Message('control_change', channel=5, control=64, value=0, time=45),
    Message('note_off', channel=5, note=61, velocity=0, time=1),
    Message('note_on', channel=5, note=59, velocity=127, time=2),
    Message('control_change', channel=5, control=64, value=127, time=46),
    Message('note_on', channel=5, note=52, velocity=127, time=2),
    Message('note_on', channel=5, note=59, velocity=0, time=4),
    Message('note_on', channel=5, note=45, velocity=0, time=14),
    Message('note_on', channel=5, note=52, velocity=0, time=6),
    Message('control_change', channel=5, control=64, value=0, time=17),
    Message('note_on', channel=5, note=52, velocity=127, time=55),
    Message('note_on', channel=5, note=55, velocity=127, time=48),
    Message('control_change', channel=5, control=64, value=127, time=6),
    Message('note_on', channel=5, note=59, velocity=127, time=42),
    Message('note_on', channel=5, note=59, velocity=0, time=30),
    Message('control_change', channel=5, control=64, value=0, time=5),
    Message('note_on', channel=5, note=64, velocity=127, time=13),
    Message('note_on', channel=5, note=59, velocity=127, time=48),
    Message('note_on', channel=5, note=59, velocity=0, time=38),
    Message('note_on', channel=5, note=64, velocity=0, time=2),
    Message('control_change', channel=5, control=64, value=127, time=1),
    Message('note_on', channel=5, note=67, velocity=127, time=7),
    Message('note_on', channel=5, note=55, velocity=0, time=6),
    Message('note_on', channel=5, note=52, velocity=0, time=7),
    Message('note_on', channel=5, note=64, velocity=127, time=35),
    Message('note_on', channel=5, note=67, velocity=0, time=2),
    Message('note_on', channel=5, note=64, velocity=0, time=19),
    Message('control_change', channel=5, control=64, value=0, time=20),
    Message('note_on', channel=5, note=43, velocity=127, time=7),
    Message('note_on', channel=5, note=55, velocity=127, time=48),
    Message('note_on', channel=5, note=43, velocity=0, time=7),
    Message('control_change', channel=5, control=64, value=127, time=2),
    Message('note_off', channel=5, note=55, velocity=0, time=12),
    Message('note_on', channel=5, note=59, velocity=127, time=3),
    Message('control_change', channel=5, control=64, value=0, time=21),
    Message('note_on', channel=5, note=62, velocity=127, time=3),
    Message('note_on', channel=5, note=59, velocity=0, time=5),
    Message('control_change', channel=5, control=64, value=127, time=33),
    Message('note_on', channel=5, note=59, velocity=127, time=10),
    Message('note_on', channel=5, note=62, velocity=0, time=17),
    Message('note_on', channel=5, note=59, velocity=0, time=19),
    Message('note_on', channel=5, note=55, velocity=127, time=12),
    Message('control_change', channel=5, control=64, value=0, time=6),
    Message('control_change', channel=5, control=64, value=127, time=30),
    Message('note_off', channel=5, note=55, velocity=0, time=10),
    Message('note_on', channel=5, note=59, velocity=127, time=2),
    Message('note_on', channel=5, note=59, velocity=0, time=42),
    Message('note_on', channel=5, note=62, velocity=127, time=6),
    Message('note_on', channel=5, note=62, velocity=0, time=23),
    Message('note_on', channel=5, note=57, velocity=127, time=73),
    Message('control_change', channel=5, control=64, value=0, time=0),
    Message('control_change', channel=5, control=64, value=127, time=46),
    Message('note_on', channel=5, note=62, velocity=127, time=2),
    Message('note_on', channel=5, note=57, velocity=0, time=44),
    Message('note_on', channel=5, note=50, velocity=127, time=4),
    Message('control_change', channel=5, control=64, value=0, time=8),
    Message('note_off', channel=5, note=62, velocity=0, time=14),
    Message('control_change', channel=5, control=64, value=127, time=22),
    Message('note_on', channel=5, note=69, velocity=127, time=4),
    Message('note_on', channel=5, note=57, velocity=127, time=48),
    Message('note_on', channel=5, note=57, velocity=0, time=30),
    Message('note_on', channel=5, note=69, velocity=0, time=18),
    Message('note_on', channel=5, note=50, velocity=0, time=0),
    Message('note_on', channel=5, note=66, velocity=127, time=0),
    Message('note_on', channel=5, note=66, velocity=0, time=44),
    Message('note_on', channel=5, note=62, velocity=127, time=4),
    Message('control_change', channel=5, control=64, value=0, time=6),
    Message('control_change', channel=5, control=64, value=127, time=10),
    Message('note_off', channel=5, note=62, velocity=0, time=4),
    Message('note_on', channel=5, note=52, velocity=127, time=28),
    Message('note_on', channel=5, note=52, velocity=0, time=29),
    Message('control_change', channel=5, control=64, value=0, time=9),
    Message('note_on', channel=5, note=45, velocity=127, time=10),
    Message('note_on', channel=5, note=64, velocity=127, time=48),
    Message('control_change', channel=5, control=64, value=127, time=5),
    Message('note_on', channel=5, note=61, velocity=127, time=43),
    Message('note_on', channel=5, note=61, velocity=0, time=27),
    Message('note_on', channel=5, note=64, velocity=0, time=7),
    Message('note_on', channel=5, note=59, velocity=127, time=14),
    Message('note_on', channel=5, note=64, velocity=127, time=0),
    Message('control_change', channel=5, control=64, value=0, time=30),
    Message('control_change', channel=5, control=64, value=127, time=40),
    Message('note_off', channel=5, note=59, velocity=0, time=11),
    Message('note_off', channel=5, note=64, velocity=0, time=3),
    Message('note_on', channel=5, note=57, velocity=127, time=12),
    Message('note_on', channel=5, note=64, velocity=127, time=0),
    Message('control_change', channel=5, control=64, value=0, time=37),
    Message('note_off', channel=5, note=57, velocity=0, time=43),
    Message('note_off', channel=5, note=64, velocity=0, time=6),
    Message('note_off', channel=5, note=45, velocity=0, time=1),
    Message('note_on', channel=5, note=52, velocity=127, time=57),
    Message('note_on', channel=5, note=52, velocity=0, time=38),
    Message('control_change', channel=5, control=64, value=127, time=2),
    Message('note_on', channel=5, note=64, velocity=127, time=8),
    Message('note_on', channel=5, note=64, velocity=0, time=22),
    Message('note_on', channel=5, note=67, velocity=127, time=2),
    Message('note_on', channel=5, note=67, velocity=0, time=20),
    Message('note_on', channel=5, note=71, velocity=127, time=4),
    Message('note_on', channel=5, note=71, velocity=0, time=45),
    Message('note_on', channel=5, note=67, velocity=127, time=3),
    Message('note_on', channel=5, note=67, velocity=0, time=33),
    Message('note_on', channel=5, note=64, velocity=127, time=15),
    Message('note_on', channel=5, note=64, velocity=0, time=28),
    Message('note_on', channel=5, note=67, velocity=127, time=20),
    Message('note_on', channel=5, note=67, velocity=0, time=29),
    Message('note_on', channel=5, note=64, velocity=127, time=19),
    Message('note_on', channel=5, note=64, velocity=0, time=25),
    Message('note_on', channel=5, note=67, velocity=127, time=23),
    Message('note_on', channel=5, note=67, velocity=0, time=24),
    Message('control_change', channel=5, control=64, value=0, time=5),
    Message('note_on', channel=5, note=55, velocity=127, time=19),
    Message('note_on', channel=5, note=67, velocity=127, time=48),
    Message('note_on', channel=5, note=67, velocity=0, time=22),
    Message('note_on', channel=5, note=62, velocity=127, time=2),
    Message('control_change', channel=5, control=64, value=127, time=5),
    Message('note_off', channel=5, note=62, velocity=0, time=13),
    Message('note_on', channel=5, note=71, velocity=127, time=54),
    Message('note_on', channel=5, note=62, velocity=127, time=48),
    Message('note_on', channel=5, note=71, velocity=0, time=1),
    Message('note_on', channel=5, note=62, velocity=0, time=16),
    Message('note_on', channel=5, note=71, velocity=127, time=31),
    Message('note_on', channel=5, note=71, velocity=0, time=19),
    Message('note_on', channel=5, note=74, velocity=127, time=5),
    Message('note_on', channel=5, note=71, velocity=127, time=24),
    Message('note_on', channel=5, note=74, velocity=0, time=3),
    Message('note_on', channel=5, note=62, velocity=127, time=21),
    Message('note_on', channel=5, note=71, velocity=0, time=11),
    Message('note_on', channel=5, note=55, velocity=0, time=7),
    Message('note_on', channel=5, note=62, velocity=0, time=7),
    Message('note_on', channel=5, note=62, velocity=127, time=47),
    Message('control_change', channel=5, control=64, value=0, time=8),
    Message('control_change', channel=5, control=64, value=127, time=62),
    Message('note_on', channel=5, note=69, velocity=127, time=26),
    Message('note_on', channel=5, note=69, velocity=0, time=36),
    Message('note_on', channel=5, note=74, velocity=127, time=12),
    Message('note_on', channel=5, note=62, velocity=0, time=21),
    Message('note_on', channel=5, note=74, velocity=0, time=3),
    Message('note_on', channel=5, note=69, velocity=127, time=0),
    Message('note_on', channel=5, note=69, velocity=0, time=18),
    Message('note_on', channel=5, note=78, velocity=127, time=6),
    Message('note_on', channel=5, note=69, velocity=127, time=48),
    Message('note_on', channel=5, note=78, velocity=0, time=1),
    Message('note_on', channel=5, note=69, velocity=0, time=26),
    Message('note_on', channel=5, note=74, velocity=127, time=21),
    Message('note_on', channel=5, note=74, velocity=0, time=37),
    Message('note_on', channel=5, note=78, velocity=127, time=11),
    Message('note_on', channel=5, note=78, velocity=0, time=22),
    Message('control_change', channel=5, control=64, value=0, time=22),
    Message('note_on', channel=5, note=57, velocity=127, time=4),
    Message('control_change', channel=5, control=64, value=127, time=44),
    Message('note_on', channel=5, note=73, velocity=127, time=4),
    Message('note_on', channel=5, note=57, velocity=0, time=13),
    Message('note_on', channel=5, note=73, velocity=0, time=5),
    Message('note_on', channel=5, note=64, velocity=127, time=6),
    Message('note_on', channel=5, note=64, velocity=0, time=23),
    Message('note_on', channel=5, note=69, velocity=127, time=1),
    Message('note_on', channel=5, note=69, velocity=0, time=43),
    Message('note_on', channel=5, note=57, velocity=127, time=5),
    Message('note_on', channel=5, note=57, velocity=0, time=44),
    Message('note_on', channel=5, note=73, velocity=127, time=4),
    Message('note_on', channel=5, note=73, velocity=0, time=36),
    Message('note_on', channel=5, note=64, velocity=127, time=12),
    Message('note_on', channel=5, note=64, velocity=0, time=28),
    Message('note_on', channel=5, note=71, velocity=127, time=20),
    Message('note_on', channel=5, note=71, velocity=0, time=40),
    Message('note_on', channel=5, note=69, velocity=127, time=8),
    Message('note_on', channel=5, note=69, velocity=0, time=25),
    Message('control_change', channel=5, control=64, value=0, time=3),
    Message('note_on', channel=5, note=64, velocity=127, time=20),
    Message('note_on', channel=5, note=67, velocity=127, time=48),
    Message('control_change', channel=5, control=64, value=127, time=6),
    Message('note_on', channel=5, note=71, velocity=127, time=18),
    Message('note_on', channel=5, note=71, velocity=0, time=24),
    Message('note_on', channel=5, note=76, velocity=127, time=0),
    Message('note_on', channel=5, note=76, velocity=0, time=40),
    Message('note_on', channel=5, note=71, velocity=127, time=8),
    Message('note_on', channel=5, note=71, velocity=0, time=24),
    Message('note_on', channel=5, note=79, velocity=127, time=24),
    Message('note_on', channel=5, note=79, velocity=0, time=33),
    Message('note_on', channel=5, note=76, velocity=127, time=15),
    Message('note_on', channel=5, note=76, velocity=0, time=22),
    Message('note_on', channel=5, note=71, velocity=127, time=2),
    Message('note_on', channel=5, note=71, velocity=0, time=17),
    Message('note_on', channel=5, note=64, velocity=0, time=4),
    Message('note_on', channel=5, note=67, velocity=0, time=2),
    Message('note_on', channel=5, note=79, velocity=127, time=1),
    Message('note_on', channel=5, note=79, velocity=0, time=46),
    Message('note_on', channel=5, note=76, velocity=127, time=2),
    Message('note_on', channel=5, note=76, velocity=0, time=19),
    Message('control_change', channel=5, control=64, value=0, time=26),
    Message('note_on', channel=5, note=55, velocity=127, time=3),
    Message('control_change', channel=5, control=64, value=127, time=31),
    Message('note_on', channel=5, note=62, velocity=127, time=17),
    Message('note_on', channel=5, note=62, velocity=0, time=15),
    Message('note_on', channel=5, note=67, velocity=127, time=9),
    Message('note_on', channel=5, note=67, velocity=0, time=20),
    Message('note_on', channel=5, note=71, velocity=127, time=4),
    Message('note_on', channel=5, note=71, velocity=0, time=25),
    Message('note_on', channel=5, note=62, velocity=127, time=23),
    Message('note_on', channel=5, note=62, velocity=0, time=20),
    Message('note_on', channel=5, note=67, velocity=127, time=28),
    Message('note_on', channel=5, note=67, velocity=0, time=25),
    Message('note_on', channel=5, note=62, velocity=127, time=23),
    Message('note_on', channel=5, note=62, velocity=0, time=22),
    Message('note_on', channel=5, note=71, velocity=127, time=26),
    Message('note_on', channel=5, note=55, velocity=0, time=10),
    Message('note_on', channel=5, note=71, velocity=0, time=28),
    Message('note_on', channel=5, note=67, velocity=127, time=10),
    Message('note_on', channel=5, note=67, velocity=0, time=23),
    Message('control_change', channel=5, control=64, value=0, time=17),
    Message('control_change', channel=5, control=64, value=127, time=31),
    Message('note_on', channel=5, note=62, velocity=127, time=25),
    Message('note_on', channel=5, note=69, velocity=127, time=48),
    Message('note_on', channel=5, note=69, velocity=0, time=42),
    Message('note_on', channel=5, note=74, velocity=127, time=6),
    Message('note_on', channel=5, note=74, velocity=0, time=34),
    Message('note_on', channel=5, note=78, velocity=127, time=14),
    Message('note_on', channel=5, note=78, velocity=0, time=25),
    Message('note_on', channel=5, note=74, velocity=127, time=23),
    Message('note_on', channel=5, note=74, velocity=0, time=23),
    Message('note_on', channel=5, note=69, velocity=127, time=1),
    Message('note_on', channel=5, note=62, velocity=0, time=21),
    Message('note_on', channel=5, note=69, velocity=0, time=3),
    Message('note_on', channel=5, note=78, velocity=127, time=0),
    Message('note_on', channel=5, note=78, velocity=0, time=44),
    Message('note_on', channel=5, note=74, velocity=127, time=4),
    Message('note_on', channel=5, note=74, velocity=0, time=18),
    Message('control_change', channel=5, control=64, value=0, time=29),
    Message('note_on', channel=5, note=57, velocity=127, time=1),
    Message('control_change', channel=5, control=64, value=127, time=40),
    Message('note_on', channel=5, note=73, velocity=127, time=8),
    Message('note_on', channel=5, note=73, velocity=0, time=26),
    Message('note_on', channel=5, note=64, velocity=127, time=22),
    Message('note_on', channel=5, note=64, velocity=0, time=33),
    Message('note_on', channel=5, note=76, velocity=127, time=15),
    Message('note_on', channel=5, note=73, velocity=127, time=24),
    Message('note_on', channel=5, note=76, velocity=0, time=5),
    Message('note_on', channel=5, note=73, velocity=0, time=17),
    Message('note_on', channel=5, note=69, velocity=127, time=2),
    Message('note_on', channel=5, note=57, velocity=0, time=4),
    Message('note_on', channel=5, note=69, velocity=0, time=43),
    Message('note_on', channel=5, note=64, velocity=127, time=1),
    Message('note_on', channel=5, note=64, velocity=0, time=27),
    Message('note_on', channel=5, note=69, velocity=127, time=21),
    Message('note_on', channel=5, note=69, velocity=0, time=36),
    Message('note_on', channel=5, note=71, velocity=127, time=12),
    Message('control_change', channel=5, control=64, value=0, time=7),
    Message('note_off', channel=5, note=71, velocity=0, time=7),
    Message('note_on', channel=5, note=52, velocity=127, time=34),
    Message('note_on', channel=5, note=52, velocity=0, time=38),
    Message('control_change', channel=5, control=64, value=127, time=2),
    Message('note_on', channel=5, note=64, velocity=127, time=8),
    Message('note_on', channel=5, note=64, velocity=0, time=22),
    Message('note_on', channel=5, note=67, velocity=127, time=2),
    Message('note_on', channel=5, note=67, velocity=0, time=20),
    Message('note_on', channel=5, note=71, velocity=127, time=4),
    Message('note_on', channel=5, note=71, velocity=0, time=45),
    Message('note_on', channel=5, note=67, velocity=127, time=3),
    Message('note_on', channel=5, note=67, velocity=0, time=33),
    Message('note_on', channel=5, note=64, velocity=127, time=15),
    Message('note_on', channel=5, note=64, velocity=0, time=28),
    Message('note_on', channel=5, note=67, velocity=127, time=20),
    Message('note_on', channel=5, note=67, velocity=0, time=29),
    Message('note_on', channel=5, note=64, velocity=127, time=19),
    Message('note_on', channel=5, note=64, velocity=0, time=25),
    Message('note_on', channel=5, note=67, velocity=127, time=23),
    Message('note_on', channel=5, note=67, velocity=0, time=24),
    Message('control_change', channel=5, control=64, value=0, time=5),
    Message('note_on', channel=5, note=55, velocity=127, time=19),
    Message('note_on', channel=5, note=67, velocity=127, time=48),
    Message('note_on', channel=5, note=67, velocity=0, time=22),
    Message('note_on', channel=5, note=62, velocity=127, time=2),
    Message('control_change', channel=5, control=64, value=127, time=5),
    Message('note_off', channel=5, note=62, velocity=0, time=13),
    Message('note_on', channel=5, note=71, velocity=127, time=54),
    Message('note_on', channel=5, note=62, velocity=127, time=48),
    Message('note_on', channel=5, note=71, velocity=0, time=1),
    Message('note_on', channel=5, note=62, velocity=0, time=16),
    Message('note_on', channel=5, note=71, velocity=127, time=31),
    Message('note_on', channel=5, note=71, velocity=0, time=19),
    Message('note_on', channel=5, note=74, velocity=127, time=5),
    Message('note_on', channel=5, note=71, velocity=127, time=24),
    Message('note_on', channel=5, note=74, velocity=0, time=3),
    Message('note_on', channel=5, note=62, velocity=127, time=21),
    Message('note_on', channel=5, note=71, velocity=0, time=11),
    Message('note_on', channel=5, note=55, velocity=0, time=7),
    Message('note_on', channel=5, note=62, velocity=0, time=7),
    Message('note_on', channel=5, note=62, velocity=127, time=47),
    Message('control_change', channel=5, control=64, value=0, time=8),
    Message('control_change', channel=5, control=64, value=127, time=62),
    Message('note_on', channel=5, note=69, velocity=127, time=26),
    Message('note_on', channel=5, note=69, velocity=0, time=36),
    Message('note_on', channel=5, note=74, velocity=127, time=12),
    Message('note_on', channel=5, note=62, velocity=0, time=21),
    Message('note_on', channel=5, note=74, velocity=0, time=3),
    Message('note_on', channel=5, note=69, velocity=127, time=0),
    Message('note_on', channel=5, note=69, velocity=0, time=18),
    Message('note_on', channel=5, note=78, velocity=127, time=6),
    Message('note_on', channel=5, note=69, velocity=127, time=48),
    Message('note_on', channel=5, note=78, velocity=0, time=1),
    Message('note_on', channel=5, note=69, velocity=0, time=26),
    Message('note_on', channel=5, note=74, velocity=127, time=21),
    Message('note_on', channel=5, note=74, velocity=0, time=37),
    Message('note_on', channel=5, note=78, velocity=127, time=11),
    Message('note_on', channel=5, note=78, velocity=0, time=22),
    Message('control_change', channel=5, control=64, value=0, time=22),
    Message('note_on', channel=5, note=57, velocity=127, time=4),
    Message('control_change', channel=5, control=64, value=127, time=44),
    Message('note_on', channel=5, note=73, velocity=127, time=4),
    Message('note_on', channel=5, note=57, velocity=0, time=13),
    Message('note_on', channel=5, note=73, velocity=0, time=5),
    Message('note_on', channel=5, note=64, velocity=127, time=6),
    Message('note_on', channel=5, note=64, velocity=0, time=23),
    Message('note_on', channel=5, note=69, velocity=127, time=1),
    Message('note_on', channel=5, note=69, velocity=0, time=43),
    Message('note_on', channel=5, note=57, velocity=127, time=5),
    Message('note_on', channel=5, note=57, velocity=0, time=44),
    Message('note_on', channel=5, note=73, velocity=127, time=4),
    Message('note_on', channel=5, note=73, velocity=0, time=36),
    Message('note_on', channel=5, note=64, velocity=127, time=12),
    Message('note_on', channel=5, note=64, velocity=0, time=28),
    Message('note_on', channel=5, note=71, velocity=127, time=20),
    Message('note_on', channel=5, note=71, velocity=0, time=40),
    Message('note_on', channel=5, note=69, velocity=127, time=8),
    Message('note_on', channel=5, note=69, velocity=0, time=25),
    Message('control_change', channel=5, control=64, value=0, time=3),
    Message('note_on', channel=5, note=64, velocity=127, time=20),
    Message('note_on', channel=5, note=67, velocity=127, time=48),
    Message('control_change', channel=5, control=64, value=127, time=6),
    Message('note_on', channel=5, note=71, velocity=127, time=18),
    Message('note_on', channel=5, note=71, velocity=0, time=24),
    Message('note_on', channel=5, note=76, velocity=127, time=0),
    Message('note_on', channel=5, note=76, velocity=0, time=40),
    Message('note_on', channel=5, note=71, velocity=127, time=8),
    Message('note_on', channel=5, note=71, velocity=0, time=24),
    Message('note_on', channel=5, note=79, velocity=127, time=24),
    Message('note_on', channel=5, note=79, velocity=0, time=33),
    Message('note_on', channel=5, note=76, velocity=127, time=15),
    Message('note_on', channel=5, note=76, velocity=0, time=22),
    Message('note_on', channel=5, note=71, velocity=127, time=2),
    Message('note_on', channel=5, note=71, velocity=0, time=17),
    Message('note_on', channel=5, note=64, velocity=0, time=4),
    Message('note_on', channel=5, note=67, velocity=0, time=2),
    Message('note_on', channel=5, note=79, velocity=127, time=1),
    Message('note_on', channel=5, note=79, velocity=0, time=46),
    Message('note_on', channel=5, note=76, velocity=127, time=2),
    Message('note_on', channel=5, note=76, velocity=0, time=19),
    Message('control_change', channel=5, control=64, value=0, time=26),
    Message('note_on', channel=5, note=55, velocity=127, time=3),
    Message('control_change', channel=5, control=64, value=127, time=31),
    Message('note_on', channel=5, note=62, velocity=127, time=17),
    Message('note_on', channel=5, note=62, velocity=0, time=15),
    Message('note_on', channel=5, note=67, velocity=127, time=9),
    Message('note_on', channel=5, note=67, velocity=0, time=20),
    Message('note_on', channel=5, note=71, velocity=127, time=4),
    Message('note_on', channel=5, note=71, velocity=0, time=25),
    Message('note_on', channel=5, note=62, velocity=127, time=23),
    Message('note_on', channel=5, note=62, velocity=0, time=20),
    Message('note_on', channel=5, note=67, velocity=127, time=28),
    Message('note_on', channel=5, note=67, velocity=0, time=25),
    Message('note_on', channel=5, note=62, velocity=127, time=23),
    Message('note_on', channel=5, note=62, velocity=0, time=22),
    Message('note_on', channel=5, note=71, velocity=127, time=26),
    Message('note_on', channel=5, note=55, velocity=0, time=10),
    Message('note_on', channel=5, note=71, velocity=0, time=28),
    Message('note_on', channel=5, note=67, velocity=127, time=10),
    Message('note_on', channel=5, note=67, velocity=0, time=23),
    Message('control_change', channel=5, control=64, value=0, time=17),
    Message('control_change', channel=5, control=64, value=127, time=31),
    Message('note_on', channel=5, note=62, velocity=127, time=25),
    Message('note_on', channel=5, note=69, velocity=127, time=48),
    Message('note_on', channel=5, note=69, velocity=0, time=42),
    Message('note_on', channel=5, note=74, velocity=127, time=6),
    Message('note_on', channel=5, note=74, velocity=0, time=34),
    Message('note_on', channel=5, note=78, velocity=127, time=14),
    Message('note_on', channel=5, note=78, velocity=0, time=25),
    Message('note_on', channel=5, note=74, velocity=127, time=23),
    Message('note_on', channel=5, note=74, velocity=0, time=23),
    Message('note_on', channel=5, note=69, velocity=127, time=1),
    Message('note_on', channel=5, note=62, velocity=0, time=21),
    Message('note_on', channel=5, note=69, velocity=0, time=3),
    Message('note_on', channel=5, note=78, velocity=127, time=0),
    Message('note_on', channel=5, note=78, velocity=0, time=44),
    Message('note_on', channel=5, note=74, velocity=127, time=4),
    Message('note_on', channel=5, note=74, velocity=0, time=18),
    Message('control_change', channel=5, control=64, value=0, time=29),
    Message('note_on', channel=5, note=57, velocity=127, time=1),
    Message('control_change', channel=5, control=64, value=127, time=40),
    Message('note_on', channel=5, note=73, velocity=127, time=8),
    Message('note_on', channel=5, note=73, velocity=0, time=26),
    Message('note_on', channel=5, note=64, velocity=127, time=22),
    Message('note_on', channel=5, note=64, velocity=0, time=33),
    Message('note_on', channel=5, note=76, velocity=127, time=15),
    Message('note_on', channel=5, note=73, velocity=127, time=24),
    Message('note_on', channel=5, note=76, velocity=0, time=5),
    Message('note_on', channel=5, note=73, velocity=0, time=17),
    Message('note_on', channel=5, note=69, velocity=127, time=2),
    Message('note_on', channel=5, note=57, velocity=0, time=4),
    Message('note_on', channel=5, note=69, velocity=0, time=43),
    Message('note_on', channel=5, note=64, velocity=127, time=1),
    Message('note_on', channel=5, note=64, velocity=0, time=27),
    Message('note_on', channel=5, note=69, velocity=127, time=21),
    Message('note_on', channel=5, note=69, velocity=0, time=36),
    Message('note_on', channel=5, note=71, velocity=127, time=12),
    Message('control_change', channel=5, control=64, value=0, time=7),
    Message('note_off', channel=5, note=71, velocity=0, time=7),
    Message('note_on', channel=5, note=52, velocity=127, time=34),
    Message('note_on', channel=5, note=52, velocity=0, time=38),
    Message('control_change', channel=5, control=64, value=127, time=2),
    Message('note_on', channel=5, note=64, velocity=127, time=8),
    Message('note_on', channel=5, note=64, velocity=0, time=22),
    Message('note_on', channel=5, note=67, velocity=127, time=2),
    Message('note_on', channel=5, note=67, velocity=0, time=20),
    Message('note_on', channel=5, note=71, velocity=127, time=4),
    Message('note_on', channel=5, note=71, velocity=0, time=45),
    Message('note_on', channel=5, note=67, velocity=127, time=3),
    Message('note_on', channel=5, note=67, velocity=0, time=33),
    Message('note_on', channel=5, note=64, velocity=127, time=15),
    Message('note_on', channel=5, note=64, velocity=0, time=28),
    Message('note_on', channel=5, note=67, velocity=127, time=20),
    Message('note_on', channel=5, note=67, velocity=0, time=29),
    Message('note_on', channel=5, note=64, velocity=127, time=19),
    Message('note_on', channel=5, note=64, velocity=0, time=25),
    Message('note_on', channel=5, note=67, velocity=127, time=23),
    Message('note_on', channel=5, note=67, velocity=0, time=24),
    Message('control_change', channel=5, control=64, value=0, time=5),
    Message('note_on', channel=5, note=55, velocity=127, time=19),
    Message('note_on', channel=5, note=67, velocity=127, time=48),
    Message('note_on', channel=5, note=67, velocity=0, time=22),
    Message('note_on', channel=5, note=62, velocity=127, time=2),
    Message('control_change', channel=5, control=64, value=127, time=5),
    Message('note_off', channel=5, note=62, velocity=0, time=13),
    Message('note_on', channel=5, note=71, velocity=127, time=54),
    Message('note_on', channel=5, note=62, velocity=127, time=48),
    Message('note_on', channel=5, note=71, velocity=0, time=1),
    Message('note_on', channel=5, note=62, velocity=0, time=16),
    Message('note_on', channel=5, note=71, velocity=127, time=31),
    Message('note_on', channel=5, note=71, velocity=0, time=19),
    Message('note_on', channel=5, note=74, velocity=127, time=5),
    Message('note_on', channel=5, note=71, velocity=127, time=24),
    Message('note_on', channel=5, note=74, velocity=0, time=3),
    Message('note_on', channel=5, note=62, velocity=127, time=21),
    Message('note_on', channel=5, note=71, velocity=0, time=11),
    Message('note_on', channel=5, note=55, velocity=0, time=7),
    Message('note_on', channel=5, note=62, velocity=0, time=7),
    Message('note_on', channel=5, note=62, velocity=127, time=47),
    Message('control_change', channel=5, control=64, value=0, time=8),
    Message('control_change', channel=5, control=64, value=127, time=62),
    Message('note_on', channel=5, note=69, velocity=127, time=26),
    Message('note_on', channel=5, note=69, velocity=0, time=36),
    Message('note_on', channel=5, note=74, velocity=127, time=12),
    Message('note_on', channel=5, note=62, velocity=0, time=21),
    Message('note_on', channel=5, note=74, velocity=0, time=3),
    Message('note_on', channel=5, note=69, velocity=127, time=0),
    Message('note_on', channel=5, note=69, velocity=0, time=18),
    Message('note_on', channel=5, note=78, velocity=127, time=6),
    Message('note_on', channel=5, note=69, velocity=127, time=48),
    Message('note_on', channel=5, note=78, velocity=0, time=1),
    Message('note_on', channel=5, note=69, velocity=0, time=26),
    Message('note_on', channel=5, note=74, velocity=127, time=21),
    Message('note_on', channel=5, note=74, velocity=0, time=37),
    Message('note_on', channel=5, note=78, velocity=127, time=11),
    Message('note_on', channel=5, note=78, velocity=0, time=22),
    Message('control_change', channel=5, control=64, value=0, time=22),
    Message('note_on', channel=5, note=57, velocity=127, time=4),
    Message('control_change', channel=5, control=64, value=127, time=44),
    Message('note_on', channel=5, note=73, velocity=127, time=4),
    Message('note_on', channel=5, note=57, velocity=0, time=13),
    Message('note_on', channel=5, note=73, velocity=0, time=5),
    Message('note_on', channel=5, note=64, velocity=127, time=6),
    Message('note_on', channel=5, note=64, velocity=0, time=23),
    Message('note_on', channel=5, note=69, velocity=127, time=1),
    Message('note_on', channel=5, note=69, velocity=0, time=43),
    Message('note_on', channel=5, note=57, velocity=127, time=5),
    Message('note_on', channel=5, note=57, velocity=0, time=44),
    Message('note_on', channel=5, note=73, velocity=127, time=4),
    Message('note_on', channel=5, note=73, velocity=0, time=36),
    Message('note_on', channel=5, note=64, velocity=127, time=12),
    Message('note_on', channel=5, note=64, velocity=0, time=28),
    Message('note_on', channel=5, note=71, velocity=127, time=20),
    Message('note_on', channel=5, note=71, velocity=0, time=40),
    Message('note_on', channel=5, note=69, velocity=127, time=8),
    Message('note_on', channel=5, note=69, velocity=0, time=25),
    Message('control_change', channel=5, control=64, value=0, time=3),
    Message('note_on', channel=5, note=64, velocity=127, time=20),
    Message('note_on', channel=5, note=67, velocity=127, time=48),
    Message('control_change', channel=5, control=64, value=127, time=6),
    Message('note_on', channel=5, note=71, velocity=127, time=18),
    Message('note_on', channel=5, note=71, velocity=0, time=24),
    Message('note_on', channel=5, note=76, velocity=127, time=0),
    Message('note_on', channel=5, note=76, velocity=0, time=40),
    Message('note_on', channel=5, note=71, velocity=127, time=8),
    Message('note_on', channel=5, note=71, velocity=0, time=24),
    Message('note_on', channel=5, note=79, velocity=127, time=24),
    Message('note_on', channel=5, note=79, velocity=0, time=33),
    Message('note_on', channel=5, note=76, velocity=127, time=15),
    Message('note_on', channel=5, note=76, velocity=0, time=22),
    Message('note_on', channel=5, note=71, velocity=127, time=2),
    Message('note_on', channel=5, note=71, velocity=0, time=17),
    Message('note_on', channel=5, note=64, velocity=0, time=4),
    Message('note_on', channel=5, note=67, velocity=0, time=2),
    Message('note_on', channel=5, note=79, velocity=127, time=1),
    Message('note_on', channel=5, note=79, velocity=0, time=46),
    Message('note_on', channel=5, note=76, velocity=127, time=2),
    Message('note_on', channel=5, note=76, velocity=0, time=19),
    Message('control_change', channel=5, control=64, value=0, time=26),
    Message('note_on', channel=5, note=55, velocity=127, time=3),
    Message('control_change', channel=5, control=64, value=127, time=31),
    Message('note_on', channel=5, note=62, velocity=127, time=17),
    Message('note_on', channel=5, note=62, velocity=0, time=15),
    Message('note_on', channel=5, note=67, velocity=127, time=9),
    Message('note_on', channel=5, note=67, velocity=0, time=20),
    Message('note_on', channel=5, note=71, velocity=127, time=4),
    Message('note_on', channel=5, note=71, velocity=0, time=25),
    Message('note_on', channel=5, note=62, velocity=127, time=23),
    Message('note_on', channel=5, note=62, velocity=0, time=20),
    Message('note_on', channel=5, note=67, velocity=127, time=28),
    Message('note_on', channel=5, note=67, velocity=0, time=25),
    Message('note_on', channel=5, note=62, velocity=127, time=23),
    Message('note_on', channel=5, note=62, velocity=0, time=22),
    Message('note_on', channel=5, note=71, velocity=127, time=26),
    Message('note_on', channel=5, note=55, velocity=0, time=10),
    Message('note_on', channel=5, note=71, velocity=0, time=28),
    Message('note_on', channel=5, note=67, velocity=127, time=10),
    Message('note_on', channel=5, note=67, velocity=0, time=23),
    Message('control_change', channel=5, control=64, value=0, time=17),
    Message('control_change', channel=5, control=64, value=127, time=31),
    Message('note_on', channel=5, note=62, velocity=127, time=25),
    Message('note_on', channel=5, note=69, velocity=127, time=48),
    Message('note_on', channel=5, note=69, velocity=0, time=42),
    Message('note_on', channel=5, note=74, velocity=127, time=6),
    Message('note_on', channel=5, note=74, velocity=0, time=34),
    Message('note_on', channel=5, note=78, velocity=127, time=14),
    Message('note_on', channel=5, note=78, velocity=0, time=25),
    Message('note_on', channel=5, note=74, velocity=127, time=23),
    Message('note_on', channel=5, note=74, velocity=0, time=23),
    Message('note_on', channel=5, note=69, velocity=127, time=1),
    Message('note_on', channel=5, note=62, velocity=0, time=21),
    Message('note_on', channel=5, note=69, velocity=0, time=3),
    Message('note_on', channel=5, note=78, velocity=127, time=0),
    Message('note_on', channel=5, note=78, velocity=0, time=44),
    Message('note_on', channel=5, note=74, velocity=127, time=4),
    Message('note_on', channel=5, note=74, velocity=0, time=18),
    Message('control_change', channel=5, control=64, value=0, time=29),
    Message('note_on', channel=5, note=57, velocity=127, time=1),
    Message('control_change', channel=5, control=64, value=127, time=40),
    Message('note_on', channel=5, note=73, velocity=127, time=8),
    Message('note_on', channel=5, note=73, velocity=0, time=26),
    Message('note_on', channel=5, note=64, velocity=127, time=22),
    Message('note_on', channel=5, note=64, velocity=0, time=33),
    Message('note_on', channel=5, note=76, velocity=127, time=15),
    Message('note_on', channel=5, note=73, velocity=127, time=24),
    Message('note_on', channel=5, note=76, velocity=0, time=5),
    Message('note_on', channel=5, note=73, velocity=0, time=17),
    Message('note_on', channel=5, note=69, velocity=127, time=2),
    Message('note_on', channel=5, note=57, velocity=0, time=4),
    Message('note_on', channel=5, note=69, velocity=0, time=43),
    Message('note_on', channel=5, note=64, velocity=127, time=1),
    Message('note_on', channel=5, note=64, velocity=0, time=27),
    Message('note_on', channel=5, note=69, velocity=127, time=21),
    Message('note_on', channel=5, note=69, velocity=0, time=36),
    Message('note_on', channel=5, note=71, velocity=127, time=12),
    Message('control_change', channel=5, control=64, value=0, time=7),
    Message('note_off', channel=5, note=71, velocity=0, time=7),
    Message('note_on', channel=5, note=52, velocity=127, time=3106),
    Message('note_on', channel=5, note=55, velocity=127, time=0),
    Message('note_on', channel=5, note=40, velocity=127, time=0),
    Message('note_on', channel=5, note=59, velocity=127, time=0),
    Message('note_on', channel=5, note=52, velocity=0, time=24),
    Message('note_on', channel=5, note=55, velocity=0, time=20),
    Message('control_change', channel=5, control=64, value=127, time=0),
    Message('note_on', channel=5, note=52, velocity=127, time=4),
    Message('note_on', channel=5, note=59, velocity=0, time=2),
    Message('note_on', channel=5, note=40, velocity=0, time=7),
    Message('note_on', channel=5, note=52, velocity=0, time=22),
    Message('note_on', channel=5, note=55, velocity=127, time=17),
    Message('note_on', channel=5, note=55, velocity=0, time=26),
    Message('note_on', channel=5, note=59, velocity=127, time=22),
    Message('note_on', channel=5, note=59, velocity=0, time=26),
    Message('note_on', channel=5, note=52, velocity=127, time=22),
    Message('control_change', channel=5, control=64, value=0, time=0),
    Message('note_on', channel=5, note=59, velocity=127, time=48),
    Message('control_change', channel=5, control=64, value=127, time=18),
    Message('note_off', channel=5, note=59, velocity=0, time=15),
    Message('control_change', channel=5, control=64, value=0, time=0),
    Message('note_on', channel=5, note=64, velocity=127, time=15),
    Message('note_on', channel=5, note=52, velocity=0, time=14),
    Message('control_change', channel=5, control=64, value=127, time=23),
    Message('note_on', channel=5, note=67, velocity=127, time=11),
    Message('note_on', channel=5, note=64, velocity=0, time=3),
    Message('note_on', channel=5, note=67, velocity=0, time=29),
    Message('control_change', channel=5, control=64, value=0, time=14),
    Message('note_on', channel=5, note=55, velocity=127, time=2),
    Message('note_on', channel=5, note=59, velocity=127, time=48),
    Message('note_on', channel=5, note=62, velocity=127, time=48),
    Message('note_on', channel=5, note=62, velocity=0, time=17),
    Message('note_on', channel=5, note=67, velocity=127, time=31),
    Message('control_change', channel=5, control=64, value=127, time=31),
    Message('note_on', channel=5, note=62, velocity=127, time=17),
    Message('note_on', channel=5, note=67, velocity=0, time=19),
    Message('note_on', channel=5, note=62, velocity=0, time=15),
    Message('note_on', channel=5, note=69, velocity=127, time=14),
    Message('control_change', channel=5, control=64, value=0, time=28),
    Message('note_on', channel=5, note=62, velocity=127, time=20),
    Message('control_change', channel=5, control=64, value=127, time=21),
    Message('note_off', channel=5, note=62, velocity=0, time=9),
    Message('note_off', channel=5, note=69, velocity=0, time=14),
    Message('note_off', channel=5, note=59, velocity=0, time=3),
    Message('note_on', channel=5, note=71, velocity=127, time=1),
    Message('note_on', channel=5, note=55, velocity=0, time=4),
    Message('note_on', channel=5, note=71, velocity=0, time=31),
    Message('note_on', channel=5, note=50, velocity=127, time=13),
    Message('control_change', channel=5, control=64, value=0, time=0),
    Message('note_on', channel=5, note=57, velocity=127, time=48),
    Message('note_on', channel=5, note=62, velocity=127, time=48),
    Message('note_on', channel=5, note=57, velocity=0, time=4),
    Message('control_change', channel=5, control=64, value=127, time=0),
    Message('note_on', channel=5, note=57, velocity=127, time=44),
    Message('note_on', channel=5, note=62, velocity=0, time=9),
    Message('control_change', channel=5, control=64, value=0, time=35),
    Message('note_on', channel=5, note=62, velocity=127, time=4),
    Message('note_on', channel=5, note=57, velocity=0, time=4),
    Message('note_on', channel=5, note=57, velocity=127, time=44),
    Message('control_change', channel=5, control=64, value=127, time=16),
    Message('note_off', channel=5, note=62, velocity=0, time=18),
    Message('note_off', channel=5, note=57, velocity=0, time=1),
    Message('note_on', channel=5, note=64, velocity=127, time=13),
    Message('note_on', channel=5, note=50, velocity=0, time=8),
    Message('control_change', channel=5, control=64, value=0, time=7),
    Message('control_change', channel=5, control=64, value=127, time=8),
    Message('note_off', channel=5, note=64, velocity=0, time=22),
    Message('note_on', channel=5, note=62, velocity=127, time=3),
    Message('note_on', channel=5, note=62, velocity=0, time=23),
    Message('control_change', channel=5, control=64, value=0, time=21),
    Message('note_on', channel=5, note=45, velocity=127, time=4),
    Message('note_on', channel=5, note=52, velocity=127, time=48),
    Message('note_on', channel=5, note=52, velocity=0, time=38),
    Message('note_on', channel=5, note=57, velocity=127, time=10),
    Message('note_on', channel=5, note=61, velocity=127, time=0),
    Message('control_change', channel=5, control=64, value=127, time=4),
    Message('note_off', channel=5, note=57, velocity=0, time=12),
    Message('note_on', channel=5, note=52, velocity=127, time=32),
    Message('note_on', channel=5, note=61, velocity=0, time=13),
    Message('control_change', channel=5, control=64, value=0, time=29),
    Message('note_off', channel=5, note=52, velocity=0, time=5),
    Message('note_on', channel=5, note=62, velocity=127, time=1),
    Message('control_change', channel=5, control=64, value=127, time=36),
    Message('note_off', channel=5, note=62, velocity=0, time=12),
    Message('note_on', channel=5, note=61, velocity=127, time=0),
    Message('control_change', channel=5, control=64, value=0, time=45),
    Message('note_off', channel=5, note=61, velocity=0, time=1),
    Message('note_on', channel=5, note=59, velocity=127, time=2),
    Message('control_change', channel=5, control=64, value=127, time=46),
    Message('note_on', channel=5, note=52, velocity=127, time=2),
    Message('note_on', channel=5, note=59, velocity=0, time=4),
    Message('note_on', channel=5, note=45, velocity=0, time=14),
    Message('note_on', channel=5, note=52, velocity=0, time=6),
    Message('control_change', channel=5, control=64, value=0, time=17),
    Message('note_on', channel=5, note=52, velocity=127, time=55),
    Message('note_on', channel=5, note=55, velocity=127, time=48),
    Message('control_change', channel=5, control=64, value=127, time=6),
    Message('note_on', channel=5, note=59, velocity=127, time=42),
    Message('note_on', channel=5, note=59, velocity=0, time=30),
    Message('control_change', channel=5, control=64, value=0, time=5),
    Message('note_on', channel=5, note=64, velocity=127, time=13),
    Message('note_on', channel=5, note=59, velocity=127, time=48),
    Message('note_on', channel=5, note=59, velocity=0, time=38),
    Message('note_on', channel=5, note=64, velocity=0, time=2),
    Message('control_change', channel=5, control=64, value=127, time=1),
    Message('note_on', channel=5, note=67, velocity=127, time=7),
    Message('note_on', channel=5, note=55, velocity=0, time=6),
    Message('note_on', channel=5, note=52, velocity=0, time=7),
    Message('note_on', channel=5, note=64, velocity=127, time=35),
    Message('note_on', channel=5, note=67, velocity=0, time=2),
    Message('note_on', channel=5, note=64, velocity=0, time=19),
    Message('control_change', channel=5, control=64, value=0, time=20),
    Message('note_on', channel=5, note=43, velocity=127, time=7),
    Message('note_on', channel=5, note=55, velocity=127, time=48),
    Message('note_on', channel=5, note=43, velocity=0, time=7),
    Message('control_change', channel=5, control=64, value=127, time=2),
    Message('note_off', channel=5, note=55, velocity=0, time=12),
    Message('note_on', channel=5, note=59, velocity=127, time=3),
    Message('control_change', channel=5, control=64, value=0, time=21),
    Message('note_on', channel=5, note=62, velocity=127, time=3),
    Message('note_on', channel=5, note=59, velocity=0, time=5),
    Message('control_change', channel=5, control=64, value=127, time=33),
    Message('note_on', channel=5, note=59, velocity=127, time=10),
    Message('note_on', channel=5, note=62, velocity=0, time=17),
    Message('note_on', channel=5, note=59, velocity=0, time=19),
    Message('note_on', channel=5, note=55, velocity=127, time=12),
    Message('control_change', channel=5, control=64, value=0, time=6),
    Message('control_change', channel=5, control=64, value=127, time=30),
    Message('note_off', channel=5, note=55, velocity=0, time=10),
    Message('note_on', channel=5, note=59, velocity=127, time=2),
    Message('note_on', channel=5, note=59, velocity=0, time=42),
    Message('note_on', channel=5, note=62, velocity=127, time=6),
    Message('note_on', channel=5, note=62, velocity=0, time=23),
    Message('note_on', channel=5, note=57, velocity=127, time=73),
    Message('control_change', channel=5, control=64, value=0, time=0),
    Message('control_change', channel=5, control=64, value=127, time=46),
    Message('note_on', channel=5, note=62, velocity=127, time=2),
    Message('note_on', channel=5, note=57, velocity=0, time=44),
    Message('note_on', channel=5, note=50, velocity=127, time=4),
    Message('control_change', channel=5, control=64, value=0, time=8),
    Message('note_off', channel=5, note=62, velocity=0, time=14),
    Message('control_change', channel=5, control=64, value=127, time=22),
    Message('note_on', channel=5, note=69, velocity=127, time=4),
    Message('note_on', channel=5, note=57, velocity=127, time=48),
    Message('note_on', channel=5, note=57, velocity=0, time=30),
    Message('note_on', channel=5, note=69, velocity=0, time=18),
    Message('note_on', channel=5, note=50, velocity=0, time=0),
    Message('note_on', channel=5, note=66, velocity=127, time=0),
    Message('note_on', channel=5, note=66, velocity=0, time=44),
    Message('note_on', channel=5, note=62, velocity=127, time=4),
    Message('control_change', channel=5, control=64, value=0, time=6),
    Message('control_change', channel=5, control=64, value=127, time=10),
    Message('note_off', channel=5, note=62, velocity=0, time=4),
    Message('note_on', channel=5, note=52, velocity=127, time=28),
    Message('note_on', channel=5, note=52, velocity=0, time=29),
    Message('control_change', channel=5, control=64, value=0, time=9),
    Message('note_on', channel=5, note=45, velocity=127, time=10),
    Message('note_on', channel=5, note=64, velocity=127, time=48),
    Message('control_change', channel=5, control=64, value=127, time=5),
    Message('note_on', channel=5, note=61, velocity=127, time=43),
    Message('note_on', channel=5, note=61, velocity=0, time=27),
    Message('note_on', channel=5, note=64, velocity=0, time=7),
    Message('note_on', channel=5, note=59, velocity=127, time=14),
    Message('note_on', channel=5, note=64, velocity=127, time=0),
    Message('control_change', channel=5, control=64, value=0, time=30),
    Message('control_change', channel=5, control=64, value=127, time=40),
    Message('note_off', channel=5, note=59, velocity=0, time=11),
    Message('note_off', channel=5, note=64, velocity=0, time=3),
    Message('note_on', channel=5, note=57, velocity=127, time=12),
    Message('note_on', channel=5, note=64, velocity=127, time=0),
    Message('control_change', channel=5, control=64, value=0, time=37),
    Message('note_off', channel=5, note=57, velocity=0, time=43),
    Message('note_off', channel=5, note=64, velocity=0, time=6),
    Message('note_off', channel=5, note=45, velocity=0, time=1),
    Message('note_on', channel=5, note=52, velocity=127, time=57),
    Message('note_on', channel=5, note=52, velocity=0, time=38),
    Message('control_change', channel=5, control=64, value=127, time=2),
    Message('note_on', channel=5, note=64, velocity=127, time=8),
    Message('note_on', channel=5, note=64, velocity=0, time=22),
    Message('note_on', channel=5, note=67, velocity=127, time=2),
    Message('note_on', channel=5, note=67, velocity=0, time=20),
    Message('note_on', channel=5, note=71, velocity=127, time=4),
    Message('note_on', channel=5, note=71, velocity=0, time=45),
    Message('note_on', channel=5, note=67, velocity=127, time=3),
    Message('note_on', channel=5, note=67, velocity=0, time=33),
    Message('note_on', channel=5, note=64, velocity=127, time=15),
    Message('note_on', channel=5, note=64, velocity=0, time=28),
    Message('note_on', channel=5, note=67, velocity=127, time=20),
    Message('note_on', channel=5, note=67, velocity=0, time=29),
    Message('note_on', channel=5, note=64, velocity=127, time=19),
    Message('note_on', channel=5, note=64, velocity=0, time=25),
    Message('note_on', channel=5, note=67, velocity=127, time=23),
    Message('note_on', channel=5, note=67, velocity=0, time=24),
    Message('control_change', channel=5, control=64, value=0, time=5),
    Message('note_on', channel=5, note=55, velocity=127, time=19),
    Message('note_on', channel=5, note=67, velocity=127, time=48),
    Message('note_on', channel=5, note=67, velocity=0, time=22),
    Message('note_on', channel=5, note=62, velocity=127, time=2),
    Message('control_change', channel=5, control=64, value=127, time=5),
    Message('note_off', channel=5, note=62, velocity=0, time=13),
    Message('note_on', channel=5, note=71, velocity=127, time=54),
    Message('note_on', channel=5, note=62, velocity=127, time=48),
    Message('note_on', channel=5, note=71, velocity=0, time=1),
    Message('note_on', channel=5, note=62, velocity=0, time=16),
    Message('note_on', channel=5, note=71, velocity=127, time=31),
    Message('note_on', channel=5, note=71, velocity=0, time=19),
    Message('note_on', channel=5, note=74, velocity=127, time=5),
    Message('note_on', channel=5, note=71, velocity=127, time=24),
    Message('note_on', channel=5, note=74, velocity=0, time=3),
    Message('note_on', channel=5, note=62, velocity=127, time=21),
    Message('note_on', channel=5, note=71, velocity=0, time=11),
    Message('note_on', channel=5, note=55, velocity=0, time=7),
    Message('note_on', channel=5, note=62, velocity=0, time=7),
    Message('note_on', channel=5, note=62, velocity=127, time=47),
    Message('control_change', channel=5, control=64, value=0, time=8),
    Message('control_change', channel=5, control=64, value=127, time=62),
    Message('note_on', channel=5, note=69, velocity=127, time=26),
    Message('note_on', channel=5, note=69, velocity=0, time=36),
    Message('note_on', channel=5, note=74, velocity=127, time=12),
    Message('note_on', channel=5, note=62, velocity=0, time=21),
    Message('note_on', channel=5, note=74, velocity=0, time=3),
    Message('note_on', channel=5, note=69, velocity=127, time=0),
    Message('note_on', channel=5, note=69, velocity=0, time=18),
    Message('note_on', channel=5, note=78, velocity=127, time=6),
    Message('note_on', channel=5, note=69, velocity=127, time=48),
    Message('note_on', channel=5, note=78, velocity=0, time=1),
    Message('note_on', channel=5, note=69, velocity=0, time=26),
    Message('note_on', channel=5, note=74, velocity=127, time=21),
    Message('note_on', channel=5, note=74, velocity=0, time=37),
    Message('note_on', channel=5, note=78, velocity=127, time=11),
    Message('note_on', channel=5, note=78, velocity=0, time=22),
    Message('control_change', channel=5, control=64, value=0, time=22),
    Message('note_on', channel=5, note=57, velocity=127, time=4),
    Message('control_change', channel=5, control=64, value=127, time=44),
    Message('note_on', channel=5, note=73, velocity=127, time=4),
    Message('note_on', channel=5, note=57, velocity=0, time=13),
    Message('note_on', channel=5, note=73, velocity=0, time=5),
    Message('note_on', channel=5, note=64, velocity=127, time=6),
    Message('note_on', channel=5, note=64, velocity=0, time=23),
    Message('note_on', channel=5, note=69, velocity=127, time=1),
    Message('note_on', channel=5, note=69, velocity=0, time=43),
    Message('note_on', channel=5, note=57, velocity=127, time=5),
    Message('note_on', channel=5, note=57, velocity=0, time=44),
    Message('note_on', channel=5, note=73, velocity=127, time=4),
    Message('note_on', channel=5, note=73, velocity=0, time=36),
    Message('note_on', channel=5, note=64, velocity=127, time=12),
    Message('note_on', channel=5, note=64, velocity=0, time=28),
    Message('note_on', channel=5, note=71, velocity=127, time=20),
    Message('note_on', channel=5, note=71, velocity=0, time=40),
    Message('note_on', channel=5, note=69, velocity=127, time=8),
    Message('note_on', channel=5, note=69, velocity=0, time=25),
    Message('control_change', channel=5, control=64, value=0, time=3),
    Message('note_on', channel=5, note=64, velocity=127, time=20),
    Message('note_on', channel=5, note=67, velocity=127, time=48),
    Message('control_change', channel=5, control=64, value=127, time=6),
    Message('note_on', channel=5, note=71, velocity=127, time=18),
    Message('note_on', channel=5, note=71, velocity=0, time=24),
    Message('note_on', channel=5, note=76, velocity=127, time=0),
    Message('note_on', channel=5, note=76, velocity=0, time=40),
    Message('note_on', channel=5, note=71, velocity=127, time=8),
    Message('note_on', channel=5, note=71, velocity=0, time=24),
    Message('note_on', channel=5, note=79, velocity=127, time=24),
    Message('note_on', channel=5, note=79, velocity=0, time=33),
    Message('note_on', channel=5, note=76, velocity=127, time=15),
    Message('note_on', channel=5, note=76, velocity=0, time=22),
    Message('note_on', channel=5, note=71, velocity=127, time=2),
    Message('note_on', channel=5, note=71, velocity=0, time=17),
    Message('note_on', channel=5, note=64, velocity=0, time=4),
    Message('note_on', channel=5, note=67, velocity=0, time=2),
    Message('note_on', channel=5, note=79, velocity=127, time=1),
    Message('note_on', channel=5, note=79, velocity=0, time=46),
    Message('note_on', channel=5, note=76, velocity=127, time=2),
    Message('note_on', channel=5, note=76, velocity=0, time=19),
    Message('control_change', channel=5, control=64, value=0, time=26),
    Message('note_on', channel=5, note=55, velocity=127, time=3),
    Message('control_change', channel=5, control=64, value=127, time=31),
    Message('note_on', channel=5, note=62, velocity=127, time=17),
    Message('note_on', channel=5, note=62, velocity=0, time=15),
    Message('note_on', channel=5, note=67, velocity=127, time=9),
    Message('note_on', channel=5, note=67, velocity=0, time=20),
    Message('note_on', channel=5, note=71, velocity=127, time=4),
    Message('note_on', channel=5, note=71, velocity=0, time=25),
    Message('note_on', channel=5, note=62, velocity=127, time=23),
    Message('note_on', channel=5, note=62, velocity=0, time=20),
    Message('note_on', channel=5, note=67, velocity=127, time=28),
    Message('note_on', channel=5, note=67, velocity=0, time=25),
    Message('note_on', channel=5, note=62, velocity=127, time=23),
    Message('note_on', channel=5, note=62, velocity=0, time=22),
    Message('note_on', channel=5, note=71, velocity=127, time=26),
    Message('note_on', channel=5, note=55, velocity=0, time=10),
    Message('note_on', channel=5, note=71, velocity=0, time=28),
    Message('note_on', channel=5, note=67, velocity=127, time=10),
    Message('note_on', channel=5, note=67, velocity=0, time=23),
    Message('control_change', channel=5, control=64, value=0, time=17),
    Message('control_change', channel=5, control=64, value=127, time=31),
    Message('note_on', channel=5, note=62, velocity=127, time=25),
    Message('note_on', channel=5, note=69, velocity=127, time=48),
    Message('note_on', channel=5, note=69, velocity=0, time=42),
    Message('note_on', channel=5, note=74, velocity=127, time=6),
    Message('note_on', channel=5, note=74, velocity=0, time=34),
    Message('note_on', channel=5, note=78, velocity=127, time=14),
    Message('note_on', channel=5, note=78, velocity=0, time=25),
    Message('note_on', channel=5, note=74, velocity=127, time=23),
    Message('note_on', channel=5, note=74, velocity=0, time=23),
    Message('note_on', channel=5, note=69, velocity=127, time=1),
    Message('note_on', channel=5, note=62, velocity=0, time=21),
    Message('note_on', channel=5, note=69, velocity=0, time=3),
    Message('note_on', channel=5, note=78, velocity=127, time=0),
    Message('note_on', channel=5, note=78, velocity=0, time=44),
    Message('note_on', channel=5, note=74, velocity=127, time=4),
    Message('note_on', channel=5, note=74, velocity=0, time=18),
    Message('control_change', channel=5, control=64, value=0, time=29),
    Message('note_on', channel=5, note=57, velocity=127, time=1),
    Message('control_change', channel=5, control=64, value=127, time=40),
    Message('note_on', channel=5, note=73, velocity=127, time=8),
    Message('note_on', channel=5, note=73, velocity=0, time=26),
    Message('note_on', channel=5, note=64, velocity=127, time=22),
    Message('note_on', channel=5, note=64, velocity=0, time=33),
    Message('note_on', channel=5, note=76, velocity=127, time=15),
    Message('note_on', channel=5, note=73, velocity=127, time=24),
    Message('note_on', channel=5, note=76, velocity=0, time=5),
    Message('note_on', channel=5, note=73, velocity=0, time=17),
    Message('note_on', channel=5, note=69, velocity=127, time=2),
    Message('note_on', channel=5, note=57, velocity=0, time=4),
    Message('note_on', channel=5, note=69, velocity=0, time=43),
    Message('note_on', channel=5, note=64, velocity=127, time=1),
    Message('note_on', channel=5, note=64, velocity=0, time=27),
    Message('note_on', channel=5, note=69, velocity=127, time=21),
    Message('note_on', channel=5, note=69, velocity=0, time=36),
    Message('note_on', channel=5, note=71, velocity=127, time=12),
    Message('control_change', channel=5, control=64, value=0, time=7),
    Message('note_off', channel=5, note=71, velocity=0, time=7),
    Message('note_on', channel=5, note=52, velocity=127, time=34),
    Message('note_on', channel=5, note=52, velocity=0, time=38),
    Message('control_change', channel=5, control=64, value=127, time=2),
    Message('note_on', channel=5, note=64, velocity=127, time=8),
    Message('note_on', channel=5, note=64, velocity=0, time=22),
    Message('note_on', channel=5, note=67, velocity=127, time=2),
    Message('note_on', channel=5, note=67, velocity=0, time=20),
    Message('note_on', channel=5, note=71, velocity=127, time=4),
    Message('note_on', channel=5, note=71, velocity=0, time=45),
    Message('note_on', channel=5, note=67, velocity=127, time=3),
    Message('note_on', channel=5, note=67, velocity=0, time=33),
    Message('note_on', channel=5, note=64, velocity=127, time=15),
    Message('note_on', channel=5, note=64, velocity=0, time=28),
    Message('note_on', channel=5, note=67, velocity=127, time=20),
    Message('note_on', channel=5, note=67, velocity=0, time=29),
    Message('note_on', channel=5, note=64, velocity=127, time=19),
    Message('note_on', channel=5, note=64, velocity=0, time=25),
    Message('note_on', channel=5, note=67, velocity=127, time=23),
    Message('note_on', channel=5, note=67, velocity=0, time=24),
    Message('control_change', channel=5, control=64, value=0, time=5),
    Message('note_on', channel=5, note=55, velocity=127, time=19),
    Message('note_on', channel=5, note=67, velocity=127, time=48),
    Message('note_on', channel=5, note=67, velocity=0, time=22),
    Message('note_on', channel=5, note=62, velocity=127, time=2),
    Message('control_change', channel=5, control=64, value=127, time=5),
    Message('note_off', channel=5, note=62, velocity=0, time=13),
    Message('note_on', channel=5, note=71, velocity=127, time=54),
    Message('note_on', channel=5, note=62, velocity=127, time=48),
    Message('note_on', channel=5, note=71, velocity=0, time=1),
    Message('note_on', channel=5, note=62, velocity=0, time=16),
    Message('note_on', channel=5, note=71, velocity=127, time=31),
    Message('note_on', channel=5, note=71, velocity=0, time=19),
    Message('note_on', channel=5, note=74, velocity=127, time=5),
    Message('note_on', channel=5, note=71, velocity=127, time=24),
    Message('note_on', channel=5, note=74, velocity=0, time=3),
    Message('note_on', channel=5, note=62, velocity=127, time=21),
    Message('note_on', channel=5, note=71, velocity=0, time=11),
    Message('note_on', channel=5, note=55, velocity=0, time=7),
    Message('note_on', channel=5, note=62, velocity=0, time=7),
    Message('note_on', channel=5, note=62, velocity=127, time=47),
    Message('control_change', channel=5, control=64, value=0, time=8),
    Message('control_change', channel=5, control=64, value=127, time=62),
    Message('note_on', channel=5, note=69, velocity=127, time=26),
    Message('note_on', channel=5, note=69, velocity=0, time=36),
    Message('note_on', channel=5, note=74, velocity=127, time=12),
    Message('note_on', channel=5, note=62, velocity=0, time=21),
    Message('note_on', channel=5, note=74, velocity=0, time=3),
    Message('note_on', channel=5, note=69, velocity=127, time=0),
    Message('note_on', channel=5, note=69, velocity=0, time=18),
    Message('note_on', channel=5, note=78, velocity=127, time=6),
    Message('note_on', channel=5, note=69, velocity=127, time=48),
    Message('note_on', channel=5, note=78, velocity=0, time=1),
    Message('note_on', channel=5, note=69, velocity=0, time=26),
    Message('note_on', channel=5, note=74, velocity=127, time=21),
    Message('note_on', channel=5, note=74, velocity=0, time=37),
    Message('note_on', channel=5, note=78, velocity=127, time=11),
    Message('note_on', channel=5, note=78, velocity=0, time=22),
    Message('control_change', channel=5, control=64, value=0, time=22),
    Message('note_on', channel=5, note=57, velocity=127, time=4),
    Message('control_change', channel=5, control=64, value=127, time=44),
    Message('note_on', channel=5, note=73, velocity=127, time=4),
    Message('note_on', channel=5, note=57, velocity=0, time=13),
    Message('note_on', channel=5, note=73, velocity=0, time=5),
    Message('note_on', channel=5, note=64, velocity=127, time=6),
    Message('note_on', channel=5, note=64, velocity=0, time=23),
    Message('note_on', channel=5, note=69, velocity=127, time=1),
    Message('note_on', channel=5, note=69, velocity=0, time=43),
    Message('note_on', channel=5, note=57, velocity=127, time=5),
    Message('note_on', channel=5, note=57, velocity=0, time=44),
    Message('note_on', channel=5, note=73, velocity=127, time=4),
    Message('note_on', channel=5, note=73, velocity=0, time=36),
    Message('note_on', channel=5, note=64, velocity=127, time=12),
    Message('note_on', channel=5, note=64, velocity=0, time=28),
    Message('note_on', channel=5, note=71, velocity=127, time=20),
    Message('note_on', channel=5, note=71, velocity=0, time=40),
    Message('note_on', channel=5, note=69, velocity=127, time=8),
    Message('note_on', channel=5, note=69, velocity=0, time=25),
    Message('control_change', channel=5, control=64, value=0, time=3),
    Message('note_on', channel=5, note=64, velocity=127, time=20),
    Message('note_on', channel=5, note=67, velocity=127, time=48),
    Message('control_change', channel=5, control=64, value=127, time=6),
    Message('note_on', channel=5, note=71, velocity=127, time=18),
    Message('note_on', channel=5, note=71, velocity=0, time=24),
    Message('note_on', channel=5, note=76, velocity=127, time=0),
    Message('note_on', channel=5, note=76, velocity=0, time=40),
    Message('note_on', channel=5, note=71, velocity=127, time=8),
    Message('note_on', channel=5, note=71, velocity=0, time=24),
    Message('note_on', channel=5, note=79, velocity=127, time=24),
    Message('note_on', channel=5, note=79, velocity=0, time=33),
    Message('note_on', channel=5, note=76, velocity=127, time=15),
    Message('note_on', channel=5, note=76, velocity=0, time=22),
    Message('note_on', channel=5, note=71, velocity=127, time=2),
    Message('note_on', channel=5, note=71, velocity=0, time=17),
    Message('note_on', channel=5, note=64, velocity=0, time=4),
    Message('note_on', channel=5, note=67, velocity=0, time=2),
    Message('note_on', channel=5, note=79, velocity=127, time=1),
    Message('note_on', channel=5, note=79, velocity=0, time=46),
    Message('note_on', channel=5, note=76, velocity=127, time=2),
    Message('note_on', channel=5, note=76, velocity=0, time=19),
    Message('control_change', channel=5, control=64, value=0, time=26),
    Message('note_on', channel=5, note=55, velocity=127, time=3),
    Message('control_change', channel=5, control=64, value=127, time=31),
    Message('note_on', channel=5, note=62, velocity=127, time=17),
    Message('note_on', channel=5, note=62, velocity=0, time=15),
    Message('note_on', channel=5, note=67, velocity=127, time=9),
    Message('note_on', channel=5, note=67, velocity=0, time=20),
    Message('note_on', channel=5, note=71, velocity=127, time=4),
    Message('note_on', channel=5, note=71, velocity=0, time=25),
    Message('note_on', channel=5, note=62, velocity=127, time=23),
    Message('note_on', channel=5, note=62, velocity=0, time=20),
    Message('note_on', channel=5, note=67, velocity=127, time=28),
    Message('note_on', channel=5, note=67, velocity=0, time=25),
    Message('note_on', channel=5, note=62, velocity=127, time=23),
    Message('note_on', channel=5, note=62, velocity=0, time=22),
    Message('note_on', channel=5, note=71, velocity=127, time=26),
    Message('note_on', channel=5, note=55, velocity=0, time=10),
    Message('note_on', channel=5, note=71, velocity=0, time=28),
    Message('note_on', channel=5, note=67, velocity=127, time=10),
    Message('note_on', channel=5, note=67, velocity=0, time=23),
    Message('control_change', channel=5, control=64, value=0, time=17),
    Message('control_change', channel=5, control=64, value=127, time=31),
    Message('note_on', channel=5, note=62, velocity=127, time=25),
    Message('note_on', channel=5, note=69, velocity=127, time=48),
    Message('note_on', channel=5, note=69, velocity=0, time=42),
    Message('note_on', channel=5, note=74, velocity=127, time=6),
    Message('note_on', channel=5, note=74, velocity=0, time=34),
    Message('note_on', channel=5, note=78, velocity=127, time=14),
    Message('note_on', channel=5, note=78, velocity=0, time=25),
    Message('note_on', channel=5, note=74, velocity=127, time=23),
    Message('note_on', channel=5, note=74, velocity=0, time=23),
    Message('note_on', channel=5, note=69, velocity=127, time=1),
    Message('note_on', channel=5, note=62, velocity=0, time=21),
    Message('note_on', channel=5, note=69, velocity=0, time=3),
    Message('note_on', channel=5, note=78, velocity=127, time=0),
    Message('note_on', channel=5, note=78, velocity=0, time=44),
    Message('note_on', channel=5, note=74, velocity=127, time=4),
    Message('note_on', channel=5, note=74, velocity=0, time=18),
    Message('control_change', channel=5, control=64, value=0, time=29),
    Message('note_on', channel=5, note=57, velocity=127, time=1),
    Message('control_change', channel=5, control=64, value=127, time=40),
    Message('note_on', channel=5, note=73, velocity=127, time=8),
    Message('note_on', channel=5, note=73, velocity=0, time=26),
    Message('note_on', channel=5, note=64, velocity=127, time=22),
    Message('note_on', channel=5, note=64, velocity=0, time=33),
    Message('note_on', channel=5, note=76, velocity=127, time=15),
    Message('note_on', channel=5, note=73, velocity=127, time=24),
    Message('note_on', channel=5, note=76, velocity=0, time=5),
    Message('note_on', channel=5, note=73, velocity=0, time=17),
    Message('note_on', channel=5, note=69, velocity=127, time=2),
    Message('note_on', channel=5, note=57, velocity=0, time=4),
    Message('note_on', channel=5, note=69, velocity=0, time=43),
    Message('note_on', channel=5, note=64, velocity=127, time=1),
    Message('note_on', channel=5, note=64, velocity=0, time=27),
    Message('note_on', channel=5, note=69, velocity=127, time=21),
    Message('note_on', channel=5, note=69, velocity=0, time=36),
    Message('note_on', channel=5, note=71, velocity=127, time=12),
    Message('control_change', channel=5, control=64, value=0, time=7),
    Message('note_off', channel=5, note=71, velocity=0, time=7),
    Message('note_on', channel=5, note=52, velocity=127, time=34),
    Message('note_on', channel=5, note=52, velocity=0, time=38),
    Message('control_change', channel=5, control=64, value=127, time=2),
    Message('note_on', channel=5, note=64, velocity=127, time=8),
    Message('note_on', channel=5, note=64, velocity=0, time=22),
    Message('note_on', channel=5, note=67, velocity=127, time=2),
    Message('note_on', channel=5, note=67, velocity=0, time=20),
    Message('note_on', channel=5, note=71, velocity=127, time=4),
    Message('note_on', channel=5, note=71, velocity=0, time=45),
    Message('note_on', channel=5, note=67, velocity=127, time=3),
    Message('note_on', channel=5, note=67, velocity=0, time=33),
    Message('note_on', channel=5, note=64, velocity=127, time=15),
    Message('note_on', channel=5, note=64, velocity=0, time=28),
    Message('note_on', channel=5, note=67, velocity=127, time=20),
    Message('note_on', channel=5, note=67, velocity=0, time=29),
    Message('note_on', channel=5, note=64, velocity=127, time=19),
    Message('note_on', channel=5, note=64, velocity=0, time=25),
    Message('note_on', channel=5, note=67, velocity=127, time=23),
    Message('note_on', channel=5, note=67, velocity=0, time=24),
    Message('control_change', channel=5, control=64, value=0, time=5),
    Message('note_on', channel=5, note=55, velocity=127, time=19),
    Message('note_on', channel=5, note=67, velocity=127, time=48),
    Message('note_on', channel=5, note=67, velocity=0, time=22),
    Message('note_on', channel=5, note=62, velocity=127, time=2),
    Message('control_change', channel=5, control=64, value=127, time=5),
    Message('note_off', channel=5, note=62, velocity=0, time=13),
    Message('note_on', channel=5, note=71, velocity=127, time=54),
    Message('note_on', channel=5, note=62, velocity=127, time=48),
    Message('note_on', channel=5, note=71, velocity=0, time=1),
    Message('note_on', channel=5, note=62, velocity=0, time=16),
    Message('note_on', channel=5, note=71, velocity=127, time=31),
    Message('note_on', channel=5, note=71, velocity=0, time=19),
    Message('note_on', channel=5, note=74, velocity=127, time=5),
    Message('note_on', channel=5, note=71, velocity=127, time=24),
    Message('note_on', channel=5, note=74, velocity=0, time=3),
    Message('note_on', channel=5, note=62, velocity=127, time=21),
    Message('note_on', channel=5, note=71, velocity=0, time=11),
    Message('note_on', channel=5, note=55, velocity=0, time=7),
    Message('note_on', channel=5, note=62, velocity=0, time=7),
    Message('note_on', channel=5, note=62, velocity=127, time=47),
    Message('control_change', channel=5, control=64, value=0, time=8),
    Message('control_change', channel=5, control=64, value=127, time=62),
    Message('note_on', channel=5, note=69, velocity=127, time=26),
    Message('note_on', channel=5, note=69, velocity=0, time=36),
    Message('note_on', channel=5, note=74, velocity=127, time=12),
    Message('note_on', channel=5, note=62, velocity=0, time=21),
    Message('note_on', channel=5, note=74, velocity=0, time=3),
    Message('note_on', channel=5, note=69, velocity=127, time=0),
    Message('note_on', channel=5, note=69, velocity=0, time=18),
    Message('note_on', channel=5, note=78, velocity=127, time=6),
    Message('note_on', channel=5, note=69, velocity=127, time=48),
    Message('note_on', channel=5, note=78, velocity=0, time=1),
    Message('note_on', channel=5, note=69, velocity=0, time=26),
    Message('note_on', channel=5, note=74, velocity=127, time=21),
    Message('note_on', channel=5, note=74, velocity=0, time=37),
    Message('note_on', channel=5, note=78, velocity=127, time=11),
    Message('note_on', channel=5, note=78, velocity=0, time=22),
    Message('control_change', channel=5, control=64, value=0, time=22),
    Message('note_on', channel=5, note=57, velocity=127, time=4),
    Message('control_change', channel=5, control=64, value=127, time=44),
    Message('note_on', channel=5, note=73, velocity=127, time=4),
    Message('note_on', channel=5, note=57, velocity=0, time=13),
    Message('note_on', channel=5, note=73, velocity=0, time=5),
    Message('note_on', channel=5, note=64, velocity=127, time=6),
    Message('note_on', channel=5, note=64, velocity=0, time=23),
    Message('note_on', channel=5, note=69, velocity=127, time=1),
    Message('note_on', channel=5, note=69, velocity=0, time=43),
    Message('note_on', channel=5, note=57, velocity=127, time=5),
    Message('note_on', channel=5, note=57, velocity=0, time=44),
    Message('note_on', channel=5, note=73, velocity=127, time=4),
    Message('note_on', channel=5, note=73, velocity=0, time=36),
    Message('note_on', channel=5, note=64, velocity=127, time=12),
    Message('note_on', channel=5, note=64, velocity=0, time=28),
    Message('note_on', channel=5, note=71, velocity=127, time=20),
    Message('note_on', channel=5, note=71, velocity=0, time=40),
    Message('note_on', channel=5, note=69, velocity=127, time=8),
    Message('note_on', channel=5, note=69, velocity=0, time=25),
    Message('control_change', channel=5, control=64, value=0, time=3),
    Message('note_on', channel=5, note=64, velocity=127, time=20),
    Message('note_on', channel=5, note=67, velocity=127, time=48),
    Message('control_change', channel=5, control=64, value=127, time=6),
    Message('note_on', channel=5, note=71, velocity=127, time=18),
    Message('note_on', channel=5, note=71, velocity=0, time=24),
    Message('note_on', channel=5, note=76, velocity=127, time=0),
    Message('note_on', channel=5, note=76, velocity=0, time=40),
    Message('note_on', channel=5, note=71, velocity=127, time=8),
    Message('note_on', channel=5, note=71, velocity=0, time=24),
    Message('note_on', channel=5, note=79, velocity=127, time=24),
    Message('note_on', channel=5, note=79, velocity=0, time=33),
    Message('note_on', channel=5, note=76, velocity=127, time=15),
    Message('note_on', channel=5, note=76, velocity=0, time=22),
    Message('note_on', channel=5, note=71, velocity=127, time=2),
    Message('note_on', channel=5, note=71, velocity=0, time=17),
    Message('note_on', channel=5, note=64, velocity=0, time=4),
    Message('note_on', channel=5, note=67, velocity=0, time=2),
    Message('note_on', channel=5, note=79, velocity=127, time=1),
    Message('note_on', channel=5, note=79, velocity=0, time=46),
    Message('note_on', channel=5, note=76, velocity=127, time=2),
    Message('note_on', channel=5, note=76, velocity=0, time=19),
    Message('control_change', channel=5, control=64, value=0, time=26),
    Message('note_on', channel=5, note=55, velocity=127, time=3),
    Message('control_change', channel=5, control=64, value=127, time=31),
    Message('note_on', channel=5, note=62, velocity=127, time=17),
    Message('note_on', channel=5, note=62, velocity=0, time=15),
    Message('note_on', channel=5, note=67, velocity=127, time=9),
    Message('note_on', channel=5, note=67, velocity=0, time=20),
    Message('note_on', channel=5, note=71, velocity=127, time=4),
    Message('note_on', channel=5, note=71, velocity=0, time=25),
    Message('note_on', channel=5, note=62, velocity=127, time=23),
    Message('note_on', channel=5, note=62, velocity=0, time=20),
    Message('note_on', channel=5, note=67, velocity=127, time=28),
    Message('note_on', channel=5, note=67, velocity=0, time=25),
    Message('note_on', channel=5, note=62, velocity=127, time=23),
    Message('note_on', channel=5, note=62, velocity=0, time=22),
    Message('note_on', channel=5, note=71, velocity=127, time=26),
    Message('note_on', channel=5, note=55, velocity=0, time=10),
    Message('note_on', channel=5, note=71, velocity=0, time=28),
    Message('note_on', channel=5, note=67, velocity=127, time=10),
    Message('note_on', channel=5, note=67, velocity=0, time=23),
    Message('control_change', channel=5, control=64, value=0, time=17),
    Message('control_change', channel=5, control=64, value=127, time=31),
    Message('note_on', channel=5, note=62, velocity=127, time=25),
    Message('note_on', channel=5, note=69, velocity=127, time=48),
    Message('note_on', channel=5, note=69, velocity=0, time=42),
    Message('note_on', channel=5, note=74, velocity=127, time=6),
    Message('note_on', channel=5, note=74, velocity=0, time=34),
    Message('note_on', channel=5, note=78, velocity=127, time=14),
    Message('note_on', channel=5, note=78, velocity=0, time=25),
    Message('note_on', channel=5, note=74, velocity=127, time=23),
    Message('note_on', channel=5, note=74, velocity=0, time=23),
    Message('note_on', channel=5, note=69, velocity=127, time=1),
    Message('note_on', channel=5, note=62, velocity=0, time=21),
    Message('note_on', channel=5, note=69, velocity=0, time=3),
    Message('note_on', channel=5, note=78, velocity=127, time=0),
    Message('note_on', channel=5, note=78, velocity=0, time=44),
    Message('note_on', channel=5, note=74, velocity=127, time=4),
    Message('note_on', channel=5, note=74, velocity=0, time=18),
    Message('control_change', channel=5, control=64, value=0, time=29),
    Message('note_on', channel=5, note=57, velocity=127, time=1),
    Message('control_change', channel=5, control=64, value=127, time=40),
    Message('note_on', channel=5, note=73, velocity=127, time=8),
    Message('note_on', channel=5, note=73, velocity=0, time=26),
    Message('note_on', channel=5, note=64, velocity=127, time=22),
    Message('note_on', channel=5, note=64, velocity=0, time=33),
    Message('note_on', channel=5, note=76, velocity=127, time=15),
    Message('note_on', channel=5, note=73, velocity=127, time=24),
    Message('note_on', channel=5, note=76, velocity=0, time=5),
    Message('note_on', channel=5, note=73, velocity=0, time=17),
    Message('note_on', channel=5, note=69, velocity=127, time=2),
    Message('note_on', channel=5, note=57, velocity=0, time=4),
    Message('note_on', channel=5, note=69, velocity=0, time=43),
    Message('note_on', channel=5, note=64, velocity=127, time=1),
    Message('note_on', channel=5, note=64, velocity=0, time=27),
    Message('note_on', channel=5, note=69, velocity=127, time=21),
    Message('note_on', channel=5, note=69, velocity=0, time=36),
    Message('note_on', channel=5, note=71, velocity=127, time=12),
    Message('control_change', channel=5, control=64, value=0, time=7),
    Message('note_off', channel=5, note=71, velocity=0, time=7),
    Message('note_on', channel=5, note=52, velocity=127, time=34),
    Message('note_on', channel=5, note=52, velocity=0, time=38),
    Message('control_change', channel=5, control=64, value=127, time=2),
    Message('note_on', channel=5, note=64, velocity=127, time=8),
    Message('note_on', channel=5, note=64, velocity=0, time=22),
    Message('note_on', channel=5, note=67, velocity=127, time=2),
    Message('note_on', channel=5, note=67, velocity=0, time=20),
    Message('note_on', channel=5, note=71, velocity=127, time=4),
    Message('note_on', channel=5, note=71, velocity=0, time=45),
    Message('note_on', channel=5, note=67, velocity=127, time=3),
    Message('note_on', channel=5, note=67, velocity=0, time=33),
    Message('note_on', channel=5, note=64, velocity=127, time=15),
    Message('note_on', channel=5, note=64, velocity=0, time=28),
    Message('note_on', channel=5, note=67, velocity=127, time=20),
    Message('note_on', channel=5, note=67, velocity=0, time=29),
    Message('note_on', channel=5, note=64, velocity=127, time=19),
    Message('note_on', channel=5, note=64, velocity=0, time=25),
    Message('note_on', channel=5, note=67, velocity=127, time=23),
    Message('note_on', channel=5, note=67, velocity=0, time=24),
    Message('control_change', channel=5, control=64, value=0, time=5),
    Message('note_on', channel=5, note=55, velocity=127, time=19),
    Message('note_on', channel=5, note=67, velocity=127, time=48),
    Message('note_on', channel=5, note=67, velocity=0, time=22),
    Message('note_on', channel=5, note=62, velocity=127, time=2),
    Message('control_change', channel=5, control=64, value=127, time=5),
    Message('note_off', channel=5, note=62, velocity=0, time=13),
    Message('note_on', channel=5, note=71, velocity=127, time=54),
    Message('note_on', channel=5, note=62, velocity=127, time=48),
    Message('note_on', channel=5, note=71, velocity=0, time=1),
    Message('note_on', channel=5, note=62, velocity=0, time=16),
    Message('note_on', channel=5, note=71, velocity=127, time=31),
    Message('note_on', channel=5, note=71, velocity=0, time=19),
    Message('note_on', channel=5, note=74, velocity=127, time=5),
    Message('note_on', channel=5, note=71, velocity=127, time=24),
    Message('note_on', channel=5, note=74, velocity=0, time=3),
    Message('note_on', channel=5, note=62, velocity=127, time=21),
    Message('note_on', channel=5, note=71, velocity=0, time=11),
    Message('note_on', channel=5, note=55, velocity=0, time=7),
    Message('note_on', channel=5, note=62, velocity=0, time=7),
    Message('note_on', channel=5, note=62, velocity=127, time=47),
    Message('control_change', channel=5, control=64, value=0, time=8),
    Message('control_change', channel=5, control=64, value=127, time=62),
    Message('note_on', channel=5, note=69, velocity=127, time=26),
    Message('note_on', channel=5, note=69, velocity=0, time=36),
    Message('note_on', channel=5, note=74, velocity=127, time=12),
    Message('note_on', channel=5, note=62, velocity=0, time=21),
    Message('note_on', channel=5, note=74, velocity=0, time=3),
    Message('note_on', channel=5, note=69, velocity=127, time=0),
    Message('note_on', channel=5, note=69, velocity=0, time=18),
    Message('note_on', channel=5, note=78, velocity=127, time=6),
    Message('note_on', channel=5, note=69, velocity=127, time=48),
    Message('note_on', channel=5, note=78, velocity=0, time=1),
    Message('note_on', channel=5, note=69, velocity=0, time=26),
    Message('note_on', channel=5, note=74, velocity=127, time=21),
    Message('note_on', channel=5, note=74, velocity=0, time=37),
    Message('note_on', channel=5, note=78, velocity=127, time=11),
    Message('note_on', channel=5, note=78, velocity=0, time=22),
    Message('control_change', channel=5, control=64, value=0, time=22),
    Message('note_on', channel=5, note=52, velocity=127, time=388),
    Message('note_on', channel=5, note=64, velocity=127, time=0),
    Message('note_on', channel=5, note=67, velocity=127, time=0),
    Message('note_on', channel=5, note=71, velocity=127, time=0),
    Message('note_on', channel=5, note=64, velocity=0, time=367),
    Message('note_on', channel=5, note=67, velocity=0, time=10),
    Message('note_on', channel=5, note=52, velocity=0, time=2),
    Message('note_on', channel=5, note=71, velocity=0, time=9),
    MetaMessage('end_of_track', time=0)]),
  MidiTrack([
    MetaMessage('midi_port', port=0, time=0),
    Message('control_change', channel=15, control=10, value=74, time=0),
    Message('control_change', channel=15, control=10, value=74, time=28),
    Message('control_change', channel=15, control=10, value=74, time=5),
    Message('control_change', channel=15, control=10, value=74, time=5),
    Message('control_change', channel=15, control=10, value=74, time=5),
    Message('control_change', channel=15, control=10, value=74, time=5),
    Message('control_change', channel=15, control=10, value=74, time=4),
    Message('control_change', channel=15, control=10, value=74, time=5),
    Message('control_change', channel=15, control=10, value=74, time=5),
    Message('control_change', channel=15, control=10, value=74, time=5),
    Message('control_change', channel=15, control=10, value=74, time=5),
    Message('control_change', channel=15, control=10, value=75, time=4),
    Message('control_change', channel=15, control=10, value=75, time=5),
    Message('control_change', channel=15, control=10, value=75, time=5),
    Message('control_change', channel=15, control=10, value=75, time=5),
    Message('control_change', channel=15, control=10, value=75, time=5),
    Message('control_change', channel=15, control=10, value=75, time=4),
    Message('control_change', channel=15, control=10, value=75, time=5),
    Message('control_change', channel=15, control=10, value=75, time=5),
    Message('control_change', channel=15, control=10, value=75, time=5),
    Message('control_change', channel=15, control=10, value=75, time=5),
    Message('control_change', channel=15, control=10, value=75, time=4),
    Message('control_change', channel=15, control=10, value=75, time=5),
    Message('control_change', channel=15, control=10, value=75, time=5),
    Message('control_change', channel=15, control=10, value=75, time=5),
    Message('control_change', channel=15, control=10, value=75, time=5),
    Message('control_change', channel=15, control=10, value=75, time=4),
    Message('control_change', channel=15, control=10, value=75, time=5),
    Message('control_change', channel=15, control=10, value=75, time=5),
    Message('control_change', channel=15, control=10, value=75, time=5),
    Message('note_on', channel=15, note=71, velocity=127, time=6845),
    Message('note_on', channel=15, note=71, velocity=0, time=26),
    Message('note_on', channel=15, note=71, velocity=127, time=22),
    Message('note_on', channel=15, note=71, velocity=0, time=23),
    Message('note_on', channel=15, note=71, velocity=127, time=25),
    Message('note_on', channel=15, note=71, velocity=0, time=76),
    Message('note_on', channel=15, note=71, velocity=127, time=20),
    Message('note_on', channel=15, note=71, velocity=0, time=69),
    Message('note_on', channel=15, note=71, velocity=127, time=27),
    Message('note_on', channel=15, note=69, velocity=127, time=48),
    Message('note_on', channel=15, note=71, velocity=0, time=5),
    Message('note_on', channel=15, note=67, velocity=127, time=43),
    Message('note_on', channel=15, note=69, velocity=0, time=2),
    Message('note_on', channel=15, note=67, velocity=0, time=33),
    Message('note_on', channel=15, note=71, velocity=127, time=13),
    Message('note_on', channel=15, note=71, velocity=0, time=204),
    Message('note_on', channel=15, note=69, velocity=127, time=36),
    Message('note_on', channel=15, note=69, velocity=0, time=62),
    Message('note_on', channel=15, note=69, velocity=127, time=34),
    Message('note_on', channel=15, note=69, velocity=0, time=18),
    Message('note_on', channel=15, note=69, velocity=127, time=30),
    Message('note_on', channel=15, note=69, velocity=0, time=120),
    Message('note_on', channel=15, note=71, velocity=127, time=24),
    Message('note_on', channel=15, note=71, velocity=0, time=74),
    Message('note_on', channel=15, note=69, velocity=127, time=22),
    Message('note_on', channel=15, note=69, velocity=0, time=26),
    Message('note_on', channel=15, note=67, velocity=127, time=22),
    Message('note_on', channel=15, note=67, velocity=0, time=60),
    Message('note_on', channel=15, note=64, velocity=127, time=36),
    Message('note_on', channel=15, note=64, velocity=0, time=235),
    Message('note_on', channel=15, note=71, velocity=127, time=101),
    Message('note_on', channel=15, note=71, velocity=0, time=24),
    Message('note_on', channel=15, note=71, velocity=127, time=24),
    Message('note_on', channel=15, note=71, velocity=0, time=21),
    Message('note_on', channel=15, note=71, velocity=127, time=27),
    Message('note_on', channel=15, note=71, velocity=0, time=65),
    Message('note_on', channel=15, note=71, velocity=127, time=31),
    Message('note_on', channel=15, note=71, velocity=0, time=67),
    Message('note_on', channel=15, note=71, velocity=127, time=29),
    Message('note_on', channel=15, note=71, velocity=0, time=34),
    Message('note_on', channel=15, note=69, velocity=127, time=14),
    Message('note_on', channel=15, note=69, velocity=0, time=37),
    Message('note_on', channel=15, note=67, velocity=127, time=11),
    Message('note_on', channel=15, note=67, velocity=0, time=29),
    Message('note_on', channel=15, note=71, velocity=127, time=19),
    Message('note_on', channel=15, note=71, velocity=0, time=165),
    Message('note_on', channel=15, note=71, velocity=127, time=27),
    Message('note_on', channel=15, note=71, velocity=0, time=42),
    Message('note_on', channel=15, note=69, velocity=127, time=6),
    Message('note_on', channel=15, note=69, velocity=0, time=73),
    Message('note_on', channel=15, note=69, velocity=127, time=23),
    Message('note_on', channel=15, note=69, velocity=0, time=16),
    Message('note_on', channel=15, note=69, velocity=127, time=32),
    Message('note_on', channel=15, note=69, velocity=0, time=73),
    Message('note_on', channel=15, note=69, velocity=127, time=23),
    Message('note_on', channel=15, note=69, velocity=0, time=77),
    Message('note_on', channel=15, note=71, velocity=127, time=19),
    Message('note_on', channel=15, note=71, velocity=0, time=27),
    Message('note_on', channel=15, note=69, velocity=127, time=21),
    Message('note_on', channel=15, note=69, velocity=0, time=33),
    Message('note_on', channel=15, note=67, velocity=127, time=15),
    Message('note_on', channel=15, note=67, velocity=0, time=64),
    Message('note_on', channel=15, note=64, velocity=127, time=32),
    Message('note_on', channel=15, note=64, velocity=0, time=149),
    Message('note_on', channel=15, note=71, velocity=127, time=187),
    Message('note_on', channel=15, note=71, velocity=0, time=26),
    Message('note_on', channel=15, note=71, velocity=127, time=22),
    Message('note_on', channel=15, note=71, velocity=0, time=23),
    Message('note_on', channel=15, note=71, velocity=127, time=25),
    Message('note_on', channel=15, note=71, velocity=0, time=76),
    Message('note_on', channel=15, note=71, velocity=127, time=20),
    Message('note_on', channel=15, note=71, velocity=0, time=69),
    Message('note_on', channel=15, note=71, velocity=127, time=27),
    Message('note_on', channel=15, note=69, velocity=127, time=48),
    Message('note_on', channel=15, note=71, velocity=0, time=5),
    Message('note_on', channel=15, note=67, velocity=127, time=43),
    Message('note_on', channel=15, note=69, velocity=0, time=2),
    Message('note_on', channel=15, note=67, velocity=0, time=33),
    Message('note_on', channel=15, note=71, velocity=127, time=13),
    Message('note_on', channel=15, note=71, velocity=0, time=204),
    Message('note_on', channel=15, note=69, velocity=127, time=36),
    Message('note_on', channel=15, note=69, velocity=0, time=62),
    Message('note_on', channel=15, note=69, velocity=127, time=34),
    Message('note_on', channel=15, note=69, velocity=0, time=18),
    Message('note_on', channel=15, note=69, velocity=127, time=30),
    Message('note_on', channel=15, note=69, velocity=0, time=120),
    Message('note_on', channel=15, note=71, velocity=127, time=24),
    Message('note_on', channel=15, note=71, velocity=0, time=74),
    Message('note_on', channel=15, note=69, velocity=127, time=22),
    Message('note_on', channel=15, note=69, velocity=0, time=26),
    Message('note_on', channel=15, note=67, velocity=127, time=22),
    Message('note_on', channel=15, note=67, velocity=0, time=60),
    Message('note_on', channel=15, note=64, velocity=127, time=36),
    Message('note_on', channel=15, note=64, velocity=0, time=235),
    Message('note_on', channel=15, note=71, velocity=127, time=5),
    Message('note_on', channel=15, note=71, velocity=0, time=76),
    Message('note_on', channel=15, note=71, velocity=127, time=20),
    Message('note_on', channel=15, note=71, velocity=0, time=70),
    Message('control_change', channel=15, control=64, value=127, time=6),
    Message('control_change', channel=15, control=64, value=0, time=9),
    Message('note_on', channel=15, note=71, velocity=127, time=11),
    Message('control_change', channel=15, control=64, value=127, time=60),
    Message('note_off', channel=15, note=71, velocity=0, time=2),
    Message('control_change', channel=15, control=64, value=0, time=23),
    Message('note_on', channel=15, note=71, velocity=127, time=11),
    Message('note_on', channel=15, note=71, velocity=0, time=65),
    Message('note_on', channel=15, note=71, velocity=127, time=31),
    Message('control_change', channel=15, control=64, value=127, time=19),
    Message('note_off', channel=15, note=71, velocity=0, time=8),
    Message('note_on', channel=15, note=74, velocity=127, time=21),
    Message('control_change', channel=15, control=64, value=0, time=0),
    Message('note_off', channel=15, note=74, velocity=0, time=56),
    Message('note_on', channel=15, note=71, velocity=127, time=40),
    Message('control_change', channel=15, control=64, value=127, time=54),
    Message('control_change', channel=15, control=64, value=0, time=25),
    Message('note_off', channel=15, note=71, velocity=0, time=6),
    Message('note_on', channel=15, note=69, velocity=127, time=11),
    Message('note_on', channel=15, note=69, velocity=0, time=43),
    Message('note_on', channel=15, note=67, velocity=127, time=5),
    Message('note_on', channel=15, note=67, velocity=0, time=67),
    Message('note_on', channel=15, note=69, velocity=127, time=29),
    Message('note_on', channel=15, note=69, velocity=0, time=70),
    Message('note_on', channel=15, note=69, velocity=127, time=26),
    Message('note_on', channel=15, note=69, velocity=0, time=52),
    Message('note_on', channel=15, note=66, velocity=127, time=44),
    Message('note_on', channel=15, note=66, velocity=0, time=34),
    Message('note_on', channel=15, note=64, velocity=127, time=14),
    Message('note_on', channel=15, note=64, velocity=0, time=71),
    Message('note_on', channel=15, note=64, velocity=127, time=25),
    Message('note_on', channel=15, note=64, velocity=0, time=307),
    Message('note_on', channel=15, note=64, velocity=127, time=29),
    Message('note_on', channel=15, note=64, velocity=0, time=53),
    Message('note_on', channel=15, note=71, velocity=127, time=43),
    Message('note_on', channel=15, note=71, velocity=0, time=151),
    Message('note_on', channel=15, note=71, velocity=127, time=41),
    Message('note_on', channel=15, note=71, velocity=0, time=156),
    Message('note_on', channel=15, note=71, velocity=127, time=36),
    Message('note_on', channel=15, note=69, velocity=127, time=48),
    Message('note_on', channel=15, note=71, velocity=0, time=8),
    Message('note_on', channel=15, note=69, velocity=0, time=38),
    Message('note_on', channel=15, note=67, velocity=127, time=2),
    Message('note_on', channel=15, note=67, velocity=0, time=35),
    Message('note_on', channel=15, note=71, velocity=127, time=13),
    Message('note_on', channel=15, note=71, velocity=0, time=199),
    Message('note_on', channel=15, note=69, velocity=127, time=41),
    Message('note_on', channel=15, note=69, velocity=0, time=63),
    Message('note_on', channel=15, note=69, velocity=127, time=33),
    Message('note_on', channel=15, note=69, velocity=0, time=34),
    Message('note_on', channel=15, note=74, velocity=127, time=14),
    Message('note_on', channel=15, note=74, velocity=0, time=36),
    Message('note_on', channel=15, note=69, velocity=127, time=12),
    Message('note_on', channel=15, note=69, velocity=0, time=81),
    Message('note_on', channel=15, note=67, velocity=127, time=15),
    Message('note_on', channel=15, note=67, velocity=0, time=73),
    Message('note_on', channel=15, note=69, velocity=127, time=23),
    Message('note_on', channel=15, note=69, velocity=0, time=48),
    Message('note_on', channel=15, note=67, velocity=127, time=0),
    Message('note_on', channel=15, note=67, velocity=0, time=48),
    Message('note_on', channel=15, note=69, velocity=127, time=0),
    Message('note_on', channel=15, note=69, velocity=0, time=32),
    Message('note_on', channel=15, note=69, velocity=127, time=16),
    Message('note_on', channel=15, note=69, velocity=0, time=194),
    Message('note_on', channel=15, note=71, velocity=127, time=46),
    Message('note_on', channel=15, note=71, velocity=0, time=126),
    Message('note_on', channel=15, note=71, velocity=127, time=18),
    Message('note_on', channel=15, note=71, velocity=0, time=23),
    Message('note_on', channel=15, note=71, velocity=127, time=25),
    Message('note_on', channel=15, note=71, velocity=0, time=77),
    Message('note_on', channel=15, note=71, velocity=127, time=19),
    Message('note_on', channel=15, note=71, velocity=0, time=67),
    Message('note_on', channel=15, note=71, velocity=127, time=29),
    Message('note_on', channel=15, note=69, velocity=127, time=48),
    Message('note_on', channel=15, note=71, velocity=0, time=4),
    Message('note_on', channel=15, note=69, velocity=0, time=28),
    Message('note_on', channel=15, note=67, velocity=127, time=16),
    Message('note_on', channel=15, note=67, velocity=0, time=65),
    Message('note_on', channel=15, note=71, velocity=127, time=31),
    Message('note_on', channel=15, note=71, velocity=0, time=142),
    Message('note_on', channel=15, note=69, velocity=127, time=50),
    Message('note_on', channel=15, note=69, velocity=0, time=76),
    Message('note_on', channel=15, note=69, velocity=127, time=20),
    Message('note_on', channel=15, note=69, velocity=0, time=72),
    Message('note_on', channel=15, note=66, velocity=127, time=24),
    Message('note_on', channel=15, note=66, velocity=0, time=47),
    Message('note_on', channel=15, note=62, velocity=127, time=1),
    Message('note_on', channel=15, note=62, velocity=0, time=129),
    Message('note_on', channel=15, note=64, velocity=127, time=15),
    Message('note_on', channel=15, note=64, velocity=0, time=312),
    Message('note_on', channel=15, note=71, velocity=127, time=72),
    Message('note_on', channel=15, note=71, velocity=0, time=151),
    Message('note_on', channel=15, note=71, velocity=127, time=41),
    Message('note_on', channel=15, note=71, velocity=0, time=156),
    Message('note_on', channel=15, note=71, velocity=127, time=36),
    Message('note_on', channel=15, note=69, velocity=127, time=48),
    Message('note_on', channel=15, note=71, velocity=0, time=8),
    Message('note_on', channel=15, note=69, velocity=0, time=38),
    Message('note_on', channel=15, note=67, velocity=127, time=2),
    Message('note_on', channel=15, note=67, velocity=0, time=35),
    Message('note_on', channel=15, note=71, velocity=127, time=13),
    Message('note_on', channel=15, note=71, velocity=0, time=199),
    Message('note_on', channel=15, note=69, velocity=127, time=41),
    Message('note_on', channel=15, note=69, velocity=0, time=63),
    Message('note_on', channel=15, note=69, velocity=127, time=33),
    Message('note_on', channel=15, note=69, velocity=0, time=34),
    Message('note_on', channel=15, note=74, velocity=127, time=14),
    Message('note_on', channel=15, note=74, velocity=0, time=36),
    Message('note_on', channel=15, note=69, velocity=127, time=12),
    Message('note_on', channel=15, note=69, velocity=0, time=81),
    Message('note_on', channel=15, note=67, velocity=127, time=15),
    Message('note_on', channel=15, note=67, velocity=0, time=73),
    Message('note_on', channel=15, note=69, velocity=127, time=23),
    Message('note_on', channel=15, note=69, velocity=0, time=48),
    Message('note_on', channel=15, note=67, velocity=127, time=0),
    Message('note_on', channel=15, note=67, velocity=0, time=48),
    Message('note_on', channel=15, note=69, velocity=127, time=0),
    Message('note_on', channel=15, note=69, velocity=0, time=32),
    Message('note_on', channel=15, note=69, velocity=127, time=16),
    Message('note_on', channel=15, note=69, velocity=0, time=194),
    Message('note_on', channel=15, note=71, velocity=127, time=46),
    Message('note_on', channel=15, note=71, velocity=0, time=126),
    Message('note_on', channel=15, note=71, velocity=127, time=18),
    Message('note_on', channel=15, note=71, velocity=0, time=23),
    Message('note_on', channel=15, note=71, velocity=127, time=25),
    Message('note_on', channel=15, note=71, velocity=0, time=77),
    Message('note_on', channel=15, note=71, velocity=127, time=19),
    Message('note_on', channel=15, note=71, velocity=0, time=67),
    Message('note_on', channel=15, note=71, velocity=127, time=29),
    Message('note_on', channel=15, note=69, velocity=127, time=48),
    Message('note_on', channel=15, note=71, velocity=0, time=4),
    Message('note_on', channel=15, note=69, velocity=0, time=28),
    Message('note_on', channel=15, note=67, velocity=127, time=16),
    Message('note_on', channel=15, note=67, velocity=0, time=65),
    Message('note_on', channel=15, note=71, velocity=127, time=31),
    Message('note_on', channel=15, note=71, velocity=0, time=142),
    Message('note_on', channel=15, note=69, velocity=127, time=50),
    Message('note_on', channel=15, note=69, velocity=0, time=76),
    Message('note_on', channel=15, note=69, velocity=127, time=20),
    Message('note_on', channel=15, note=69, velocity=0, time=72),
    Message('note_on', channel=15, note=66, velocity=127, time=24),
    Message('note_on', channel=15, note=66, velocity=0, time=47),
    Message('note_on', channel=15, note=62, velocity=127, time=1),
    Message('note_on', channel=15, note=62, velocity=0, time=129),
    Message('note_on', channel=15, note=64, velocity=127, time=15),
    Message('note_on', channel=15, note=64, velocity=0, time=312),
    Message('note_on', channel=15, note=71, velocity=127, time=3240),
    Message('note_on', channel=15, note=71, velocity=0, time=26),
    Message('note_on', channel=15, note=71, velocity=127, time=22),
    Message('note_on', channel=15, note=71, velocity=0, time=23),
    Message('note_on', channel=15, note=71, velocity=127, time=25),
    Message('note_on', channel=15, note=71, velocity=0, time=76),
    Message('note_on', channel=15, note=71, velocity=127, time=20),
    Message('note_on', channel=15, note=71, velocity=0, time=69),
    Message('note_on', channel=15, note=71, velocity=127, time=27),
    Message('note_on', channel=15, note=69, velocity=127, time=48),
    Message('note_on', channel=15, note=71, velocity=0, time=5),
    Message('note_on', channel=15, note=67, velocity=127, time=43),
    Message('note_on', channel=15, note=69, velocity=0, time=2),
    Message('note_on', channel=15, note=67, velocity=0, time=33),
    Message('note_on', channel=15, note=71, velocity=127, time=13),
    Message('note_on', channel=15, note=71, velocity=0, time=204),
    Message('note_on', channel=15, note=69, velocity=127, time=36),
    Message('note_on', channel=15, note=69, velocity=0, time=62),
    Message('note_on', channel=15, note=69, velocity=127, time=34),
    Message('note_on', channel=15, note=69, velocity=0, time=18),
    Message('note_on', channel=15, note=69, velocity=127, time=30),
    Message('note_on', channel=15, note=69, velocity=0, time=120),
    Message('note_on', channel=15, note=71, velocity=127, time=24),
    Message('note_on', channel=15, note=71, velocity=0, time=74),
    Message('note_on', channel=15, note=69, velocity=127, time=22),
    Message('note_on', channel=15, note=69, velocity=0, time=26),
    Message('note_on', channel=15, note=67, velocity=127, time=22),
    Message('note_on', channel=15, note=67, velocity=0, time=60),
    Message('note_on', channel=15, note=64, velocity=127, time=36),
    Message('note_on', channel=15, note=64, velocity=0, time=235),
    Message('note_on', channel=15, note=71, velocity=127, time=101),
    Message('note_on', channel=15, note=71, velocity=0, time=24),
    Message('note_on', channel=15, note=71, velocity=127, time=24),
    Message('note_on', channel=15, note=71, velocity=0, time=21),
    Message('note_on', channel=15, note=71, velocity=127, time=27),
    Message('note_on', channel=15, note=71, velocity=0, time=65),
    Message('note_on', channel=15, note=71, velocity=127, time=31),
    Message('note_on', channel=15, note=71, velocity=0, time=67),
    Message('note_on', channel=15, note=71, velocity=127, time=29),
    Message('note_on', channel=15, note=71, velocity=0, time=34),
    Message('note_on', channel=15, note=69, velocity=127, time=14),
    Message('note_on', channel=15, note=69, velocity=0, time=37),
    Message('note_on', channel=15, note=67, velocity=127, time=11),
    Message('note_on', channel=15, note=67, velocity=0, time=29),
    Message('note_on', channel=15, note=71, velocity=127, time=19),
    Message('note_on', channel=15, note=71, velocity=0, time=165),
    Message('note_on', channel=15, note=71, velocity=127, time=27),
    Message('note_on', channel=15, note=71, velocity=0, time=42),
    Message('note_on', channel=15, note=69, velocity=127, time=6),
    Message('note_on', channel=15, note=69, velocity=0, time=73),
    Message('note_on', channel=15, note=69, velocity=127, time=23),
    Message('note_on', channel=15, note=69, velocity=0, time=16),
    Message('note_on', channel=15, note=69, velocity=127, time=32),
    Message('note_on', channel=15, note=69, velocity=0, time=73),
    Message('note_on', channel=15, note=69, velocity=127, time=23),
    Message('note_on', channel=15, note=69, velocity=0, time=77),
    Message('note_on', channel=15, note=71, velocity=127, time=19),
    Message('note_on', channel=15, note=71, velocity=0, time=27),
    Message('note_on', channel=15, note=69, velocity=127, time=21),
    Message('note_on', channel=15, note=69, velocity=0, time=33),
    Message('note_on', channel=15, note=67, velocity=127, time=15),
    Message('note_on', channel=15, note=67, velocity=0, time=64),
    Message('note_on', channel=15, note=64, velocity=127, time=32),
    Message('note_on', channel=15, note=64, velocity=0, time=149),
    Message('note_on', channel=15, note=71, velocity=127, time=187),
    Message('note_on', channel=15, note=71, velocity=0, time=26),
    Message('note_on', channel=15, note=71, velocity=127, time=22),
    Message('note_on', channel=15, note=71, velocity=0, time=23),
    Message('note_on', channel=15, note=71, velocity=127, time=25),
    Message('note_on', channel=15, note=71, velocity=0, time=76),
    Message('note_on', channel=15, note=71, velocity=127, time=20),
    Message('note_on', channel=15, note=71, velocity=0, time=69),
    Message('note_on', channel=15, note=71, velocity=127, time=27),
    Message('note_on', channel=15, note=69, velocity=127, time=48),
    Message('note_on', channel=15, note=71, velocity=0, time=5),
    Message('note_on', channel=15, note=67, velocity=127, time=43),
    Message('note_on', channel=15, note=69, velocity=0, time=2),
    Message('note_on', channel=15, note=67, velocity=0, time=33),
    Message('note_on', channel=15, note=71, velocity=127, time=13),
    Message('note_on', channel=15, note=71, velocity=0, time=204),
    Message('note_on', channel=15, note=69, velocity=127, time=36),
    Message('note_on', channel=15, note=69, velocity=0, time=62),
    Message('note_on', channel=15, note=69, velocity=127, time=34),
    Message('note_on', channel=15, note=69, velocity=0, time=18),
    Message('note_on', channel=15, note=69, velocity=127, time=30),
    Message('note_on', channel=15, note=69, velocity=0, time=120),
    Message('note_on', channel=15, note=71, velocity=127, time=24),
    Message('note_on', channel=15, note=71, velocity=0, time=74),
    Message('note_on', channel=15, note=69, velocity=127, time=22),
    Message('note_on', channel=15, note=69, velocity=0, time=26),
    Message('note_on', channel=15, note=67, velocity=127, time=22),
    Message('note_on', channel=15, note=67, velocity=0, time=60),
    Message('note_on', channel=15, note=64, velocity=127, time=36),
    Message('note_on', channel=15, note=64, velocity=0, time=235),
    Message('note_on', channel=15, note=71, velocity=127, time=5),
    Message('note_on', channel=15, note=71, velocity=0, time=76),
    Message('note_on', channel=15, note=71, velocity=127, time=20),
    Message('note_on', channel=15, note=71, velocity=0, time=70),
    Message('control_change', channel=15, control=64, value=127, time=6),
    Message('control_change', channel=15, control=64, value=0, time=9),
    Message('note_on', channel=15, note=71, velocity=127, time=11),
    Message('control_change', channel=15, control=64, value=127, time=60),
    Message('note_off', channel=15, note=71, velocity=0, time=2),
    Message('control_change', channel=15, control=64, value=0, time=23),
    Message('note_on', channel=15, note=71, velocity=127, time=11),
    Message('note_on', channel=15, note=71, velocity=0, time=65),
    Message('note_on', channel=15, note=71, velocity=127, time=31),
    Message('control_change', channel=15, control=64, value=127, time=19),
    Message('note_off', channel=15, note=71, velocity=0, time=8),
    Message('note_on', channel=15, note=74, velocity=127, time=21),
    Message('control_change', channel=15, control=64, value=0, time=0),
    Message('note_off', channel=15, note=74, velocity=0, time=56),
    Message('note_on', channel=15, note=71, velocity=127, time=40),
    Message('control_change', channel=15, control=64, value=127, time=54),
    Message('control_change', channel=15, control=64, value=0, time=25),
    Message('note_off', channel=15, note=71, velocity=0, time=6),
    Message('note_on', channel=15, note=69, velocity=127, time=11),
    Message('note_on', channel=15, note=69, velocity=0, time=43),
    Message('note_on', channel=15, note=67, velocity=127, time=5),
    Message('note_on', channel=15, note=67, velocity=0, time=67),
    Message('note_on', channel=15, note=69, velocity=127, time=29),
    Message('note_on', channel=15, note=69, velocity=0, time=70),
    Message('note_on', channel=15, note=69, velocity=127, time=26),
    Message('note_on', channel=15, note=69, velocity=0, time=52),
    Message('note_on', channel=15, note=66, velocity=127, time=44),
    Message('note_on', channel=15, note=66, velocity=0, time=34),
    Message('note_on', channel=15, note=64, velocity=127, time=14),
    Message('note_on', channel=15, note=64, velocity=0, time=71),
    Message('note_on', channel=15, note=64, velocity=127, time=25),
    Message('note_on', channel=15, note=64, velocity=0, time=307),
    Message('note_on', channel=15, note=64, velocity=127, time=29),
    Message('note_on', channel=15, note=64, velocity=0, time=53),
    Message('note_on', channel=15, note=71, velocity=127, time=43),
    Message('note_on', channel=15, note=71, velocity=0, time=151),
    Message('note_on', channel=15, note=71, velocity=127, time=41),
    Message('note_on', channel=15, note=71, velocity=0, time=156),
    Message('note_on', channel=15, note=71, velocity=127, time=36),
    Message('note_on', channel=15, note=69, velocity=127, time=48),
    Message('note_on', channel=15, note=71, velocity=0, time=8),
    Message('note_on', channel=15, note=69, velocity=0, time=38),
    Message('note_on', channel=15, note=67, velocity=127, time=2),
    Message('note_on', channel=15, note=67, velocity=0, time=35),
    Message('note_on', channel=15, note=71, velocity=127, time=13),
    Message('note_on', channel=15, note=71, velocity=0, time=199),
    Message('note_on', channel=15, note=69, velocity=127, time=41),
    Message('note_on', channel=15, note=69, velocity=0, time=63),
    Message('note_on', channel=15, note=69, velocity=127, time=33),
    Message('note_on', channel=15, note=69, velocity=0, time=34),
    Message('note_on', channel=15, note=74, velocity=127, time=14),
    Message('note_on', channel=15, note=74, velocity=0, time=36),
    Message('note_on', channel=15, note=69, velocity=127, time=12),
    Message('note_on', channel=15, note=69, velocity=0, time=81),
    Message('note_on', channel=15, note=67, velocity=127, time=15),
    Message('note_on', channel=15, note=67, velocity=0, time=73),
    Message('note_on', channel=15, note=69, velocity=127, time=23),
    Message('note_on', channel=15, note=69, velocity=0, time=48),
    Message('note_on', channel=15, note=67, velocity=127, time=0),
    Message('note_on', channel=15, note=67, velocity=0, time=48),
    Message('note_on', channel=15, note=69, velocity=127, time=0),
    Message('note_on', channel=15, note=69, velocity=0, time=32),
    Message('note_on', channel=15, note=69, velocity=127, time=16),
    Message('note_on', channel=15, note=69, velocity=0, time=194),
    Message('note_on', channel=15, note=71, velocity=127, time=46),
    Message('note_on', channel=15, note=71, velocity=0, time=126),
    Message('note_on', channel=15, note=71, velocity=127, time=18),
    Message('note_on', channel=15, note=71, velocity=0, time=23),
    Message('note_on', channel=15, note=71, velocity=127, time=25),
    Message('note_on', channel=15, note=71, velocity=0, time=77),
    Message('note_on', channel=15, note=71, velocity=127, time=19),
    Message('note_on', channel=15, note=71, velocity=0, time=67),
    Message('note_on', channel=15, note=71, velocity=127, time=29),
    Message('note_on', channel=15, note=69, velocity=127, time=48),
    Message('note_on', channel=15, note=71, velocity=0, time=4),
    Message('note_on', channel=15, note=69, velocity=0, time=28),
    Message('note_on', channel=15, note=67, velocity=127, time=16),
    Message('note_on', channel=15, note=67, velocity=0, time=65),
    Message('note_on', channel=15, note=71, velocity=127, time=31),
    Message('note_on', channel=15, note=71, velocity=0, time=142),
    Message('note_on', channel=15, note=69, velocity=127, time=50),
    Message('note_on', channel=15, note=69, velocity=0, time=76),
    Message('note_on', channel=15, note=69, velocity=127, time=20),
    Message('note_on', channel=15, note=69, velocity=0, time=72),
    Message('note_on', channel=15, note=66, velocity=127, time=24),
    Message('note_on', channel=15, note=66, velocity=0, time=47),
    Message('note_on', channel=15, note=62, velocity=127, time=1),
    Message('note_on', channel=15, note=62, velocity=0, time=129),
    Message('note_on', channel=15, note=64, velocity=127, time=15),
    Message('note_on', channel=15, note=64, velocity=0, time=312),
    Message('note_on', channel=15, note=71, velocity=127, time=72),
    Message('note_on', channel=15, note=71, velocity=0, time=151),
    Message('note_on', channel=15, note=71, velocity=127, time=41),
    Message('note_on', channel=15, note=71, velocity=0, time=156),
    Message('note_on', channel=15, note=71, velocity=127, time=36),
    Message('note_on', channel=15, note=69, velocity=127, time=48),
    Message('note_on', channel=15, note=71, velocity=0, time=8),
    Message('note_on', channel=15, note=69, velocity=0, time=38),
    Message('note_on', channel=15, note=67, velocity=127, time=2),
    Message('note_on', channel=15, note=67, velocity=0, time=35),
    Message('note_on', channel=15, note=71, velocity=127, time=13),
    Message('note_on', channel=15, note=71, velocity=0, time=199),
    Message('note_on', channel=15, note=69, velocity=127, time=41),
    Message('note_on', channel=15, note=69, velocity=0, time=63),
    Message('note_on', channel=15, note=69, velocity=127, time=33),
    Message('note_on', channel=15, note=69, velocity=0, time=34),
    Message('note_on', channel=15, note=74, velocity=127, time=14),
    Message('note_on', channel=15, note=74, velocity=0, time=36),
    Message('note_on', channel=15, note=69, velocity=127, time=12),
    Message('note_on', channel=15, note=69, velocity=0, time=81),
    Message('note_on', channel=15, note=67, velocity=127, time=15),
    Message('note_on', channel=15, note=67, velocity=0, time=73),
    Message('note_on', channel=15, note=69, velocity=127, time=23),
    Message('note_on', channel=15, note=69, velocity=0, time=48),
    Message('note_on', channel=15, note=67, velocity=127, time=0),
    Message('note_on', channel=15, note=67, velocity=0, time=48),
    Message('note_on', channel=15, note=69, velocity=127, time=0),
    Message('note_on', channel=15, note=69, velocity=0, time=32),
    Message('note_on', channel=15, note=69, velocity=127, time=16),
    Message('note_on', channel=15, note=69, velocity=0, time=194),
    Message('note_on', channel=15, note=71, velocity=127, time=46),
    Message('note_on', channel=15, note=71, velocity=0, time=126),
    Message('note_on', channel=15, note=71, velocity=127, time=18),
    Message('note_on', channel=15, note=71, velocity=0, time=23),
    Message('note_on', channel=15, note=71, velocity=127, time=25),
    Message('note_on', channel=15, note=71, velocity=0, time=77),
    Message('note_on', channel=15, note=71, velocity=127, time=19),
    Message('note_on', channel=15, note=71, velocity=0, time=67),
    Message('note_on', channel=15, note=71, velocity=127, time=29),
    Message('note_on', channel=15, note=69, velocity=127, time=48),
    Message('note_on', channel=15, note=71, velocity=0, time=4),
    Message('note_on', channel=15, note=69, velocity=0, time=28),
    Message('note_on', channel=15, note=67, velocity=127, time=16),
    Message('note_on', channel=15, note=67, velocity=0, time=65),
    Message('note_on', channel=15, note=71, velocity=127, time=31),
    Message('note_on', channel=15, note=71, velocity=0, time=142),
    Message('note_on', channel=15, note=69, velocity=127, time=50),
    Message('note_on', channel=15, note=69, velocity=0, time=76),
    Message('note_on', channel=15, note=69, velocity=127, time=20),
    Message('note_on', channel=15, note=69, velocity=0, time=72),
    Message('note_on', channel=15, note=66, velocity=127, time=24),
    Message('note_on', channel=15, note=66, velocity=0, time=47),
    Message('note_on', channel=15, note=62, velocity=127, time=1),
    Message('note_on', channel=15, note=62, velocity=0, time=129),
    Message('note_on', channel=15, note=64, velocity=127, time=15),
    Message('note_on', channel=15, note=64, velocity=0, time=312),
    MetaMessage('end_of_track', time=0)]),
  MidiTrack([
    MetaMessage('midi_port', port=0, time=0),
    Message('note_on', channel=9, note=36, velocity=127, time=3793),
    Message('note_on', channel=9, note=36, velocity=0, time=3),
    Message('note_on', channel=9, note=36, velocity=127, time=44),
    Message('note_on', channel=9, note=36, velocity=0, time=4),
    Message('note_on', channel=9, note=36, velocity=127, time=188),
    Message('note_on', channel=9, note=36, velocity=0, time=4),
    Message('note_on', channel=9, note=36, velocity=127, time=189),
    Message('note_on', channel=9, note=36, velocity=0, time=3),
    Message('note_on', channel=9, note=36, velocity=127, time=140),
    Message('note_on', channel=9, note=36, velocity=0, time=3),
    Message('note_on', channel=9, note=36, velocity=127, time=45),
    Message('note_on', channel=9, note=36, velocity=0, time=3),
    Message('note_on', channel=9, note=36, velocity=127, time=189),
    Message('note_on', channel=9, note=36, velocity=0, time=4),
    Message('note_on', channel=9, note=36, velocity=127, time=188),
    Message('note_on', channel=9, note=36, velocity=0, time=4),
    Message('note_on', channel=9, note=36, velocity=127, time=188),
    Message('note_on', channel=9, note=36, velocity=0, time=4),
    Message('note_on', channel=9, note=36, velocity=127, time=140),
    Message('note_on', channel=9, note=36, velocity=0, time=4),
    Message('note_on', channel=9, note=36, velocity=127, time=45),
    Message('note_on', channel=9, note=36, velocity=0, time=3),
    Message('note_on', channel=9, note=36, velocity=127, time=189),
    Message('note_on', channel=9, note=36, velocity=0, time=3),
    Message('note_on', channel=9, note=36, velocity=127, time=188),
    Message('note_on', channel=9, note=36, velocity=0, time=4),
    Message('note_on', channel=9, note=36, velocity=127, time=189),
    Message('note_on', channel=9, note=36, velocity=0, time=3),
    Message('note_on', channel=9, note=36, velocity=127, time=140),
    Message('note_on', channel=9, note=36, velocity=0, time=4),
    Message('note_on', channel=9, note=36, velocity=127, time=45),
    Message('note_on', channel=9, note=36, velocity=0, time=3),
    Message('note_on', channel=9, note=36, velocity=127, time=188),
    Message('note_on', channel=9, note=36, velocity=0, time=4),
    Message('note_on', channel=9, note=36, velocity=127, time=188),
    Message('note_on', channel=9, note=36, velocity=0, time=4),
    Message('note_on', channel=9, note=36, velocity=127, time=188),
    Message('note_on', channel=9, note=36, velocity=0, time=4),
    Message('note_on', channel=9, note=36, velocity=127, time=140),
    Message('note_on', channel=9, note=36, velocity=0, time=3),
    Message('note_on', channel=9, note=36, velocity=127, time=46),
    Message('note_on', channel=9, note=36, velocity=0, time=3),
    Message('note_on', channel=9, note=36, velocity=127, time=189),
    Message('note_on', channel=9, note=36, velocity=0, time=3),
    Message('note_on', channel=9, note=36, velocity=127, time=188),
    Message('note_on', channel=9, note=36, velocity=0, time=4),
    Message('note_on', channel=9, note=36, velocity=127, time=188),
    Message('note_on', channel=9, note=36, velocity=0, time=4),
    Message('note_on', channel=9, note=36, velocity=127, time=140),
    Message('note_on', channel=9, note=36, velocity=0, time=4),
    Message('note_on', channel=9, note=36, velocity=127, time=44),
    Message('note_on', channel=9, note=36, velocity=0, time=4),
    Message('note_on', channel=9, note=36, velocity=127, time=188),
    Message('note_on', channel=9, note=36, velocity=0, time=4),
    Message('note_on', channel=9, note=36, velocity=127, time=188),
    Message('note_on', channel=9, note=36, velocity=0, time=4),
    Message('note_on', channel=9, note=36, velocity=127, time=188),
    Message('note_on', channel=9, note=36, velocity=0, time=4),
    Message('note_on', channel=9, note=36, velocity=127, time=140),
    Message('note_on', channel=9, note=36, velocity=0, time=4),
    Message('note_on', channel=9, note=36, velocity=127, time=44),
    Message('note_on', channel=9, note=36, velocity=0, time=4),
    Message('note_on', channel=9, note=36, velocity=127, time=188),
    Message('note_on', channel=9, note=36, velocity=0, time=4),
    Message('note_on', channel=9, note=36, velocity=127, time=188),
    Message('note_on', channel=9, note=36, velocity=0, time=4),
    Message('note_on', channel=9, note=36, velocity=127, time=188),
    Message('note_on', channel=9, note=36, velocity=0, time=4),
    Message('note_on', channel=9, note=36, velocity=127, time=140),
    Message('note_on', channel=9, note=36, velocity=0, time=4),
    Message('note_on', channel=9, note=36, velocity=127, time=44),
    Message('note_on', channel=9, note=36, velocity=0, time=4),
    Message('note_on', channel=9, note=36, velocity=127, time=188),
    Message('note_on', channel=9, note=36, velocity=0, time=4),
    Message('note_on', channel=9, note=36, velocity=127, time=188),
    Message('note_on', channel=9, note=36, velocity=0, time=4),
    Message('note_on', channel=9, note=36, velocity=127, time=188),
    Message('note_on', channel=9, note=36, velocity=0, time=4),
    Message('note_on', channel=9, note=36, velocity=127, time=140),
    Message('note_on', channel=9, note=36, velocity=0, time=4),
    Message('note_on', channel=9, note=36, velocity=127, time=44),
    Message('note_on', channel=9, note=36, velocity=0, time=4),
    Message('note_on', channel=9, note=36, velocity=127, time=188),
    Message('note_on', channel=9, note=36, velocity=0, time=4),
    Message('note_on', channel=9, note=36, velocity=127, time=188),
    Message('note_on', channel=9, note=36, velocity=0, time=4),
    Message('note_on', channel=9, note=36, velocity=127, time=188),
    Message('note_on', channel=9, note=36, velocity=0, time=4),
    Message('note_on', channel=9, note=36, velocity=127, time=140),
    Message('note_on', channel=9, note=36, velocity=0, time=4),
    Message('note_on', channel=9, note=36, velocity=127, time=44),
    Message('note_on', channel=9, note=36, velocity=0, time=4),
    Message('note_on', channel=9, note=36, velocity=127, time=188),
    Message('note_on', channel=9, note=36, velocity=0, time=4),
    Message('note_on', channel=9, note=36, velocity=127, time=188),
    Message('note_on', channel=9, note=36, velocity=0, time=4),
    Message('note_on', channel=9, note=36, velocity=127, time=188),
    Message('note_on', channel=9, note=36, velocity=0, time=4),
    Message('note_on', channel=9, note=36, velocity=127, time=140),
    Message('note_on', channel=9, note=36, velocity=0, time=4),
    Message('note_on', channel=9, note=36, velocity=127, time=44),
    Message('note_on', channel=9, note=36, velocity=0, time=4),
    Message('note_on', channel=9, note=36, velocity=127, time=188),
    Message('note_on', channel=9, note=36, velocity=0, time=4),
    Message('note_on', channel=9, note=36, velocity=127, time=188),
    Message('note_on', channel=9, note=36, velocity=0, time=4),
    Message('note_on', channel=9, note=36, velocity=127, time=188),
    Message('note_on', channel=9, note=36, velocity=0, time=4),
    Message('note_on', channel=9, note=36, velocity=127, time=140),
    Message('note_on', channel=9, note=36, velocity=0, time=4),
    Message('note_on', channel=9, note=36, velocity=127, time=44),
    Message('note_on', channel=9, note=36, velocity=0, time=4),
    Message('note_on', channel=9, note=36, velocity=127, time=188),
    Message('note_on', channel=9, note=36, velocity=0, time=4),
    Message('note_on', channel=9, note=36, velocity=127, time=188),
    Message('note_on', channel=9, note=36, velocity=0, time=4),
    Message('note_on', channel=9, note=36, velocity=127, time=188),
    Message('note_on', channel=9, note=36, velocity=0, time=4),
    Message('note_on', channel=9, note=36, velocity=127, time=140),
    Message('note_on', channel=9, note=36, velocity=0, time=3),
    Message('note_on', channel=9, note=36, velocity=127, time=45),
    Message('note_on', channel=9, note=36, velocity=0, time=3),
    Message('note_on', channel=9, note=36, velocity=127, time=45),
    Message('note_on', channel=9, note=36, velocity=0, time=3),
    Message('note_on', channel=9, note=36, velocity=127, time=141),
    Message('note_on', channel=9, note=36, velocity=0, time=3),
    Message('note_on', channel=9, note=36, velocity=127, time=189),
    Message('note_on', channel=9, note=36, velocity=0, time=4),
    Message('note_on', channel=9, note=36, velocity=127, time=188),
    Message('note_on', channel=9, note=36, velocity=0, time=4),
    Message('note_on', channel=9, note=36, velocity=127, time=140),
    Message('note_on', channel=9, note=36, velocity=0, time=4),
    Message('note_on', channel=9, note=36, velocity=127, time=44),
    Message('note_on', channel=9, note=36, velocity=0, time=4),
    Message('note_on', channel=9, note=36, velocity=127, time=188),
    Message('note_on', channel=9, note=36, velocity=0, time=4),
    Message('note_on', channel=9, note=36, velocity=127, time=188),
    Message('note_on', channel=9, note=36, velocity=0, time=4),
    Message('note_on', channel=9, note=36, velocity=127, time=188),
    Message('note_on', channel=9, note=36, velocity=0, time=4),
    Message('note_on', channel=9, note=36, velocity=127, time=140),
    Message('note_on', channel=9, note=36, velocity=0, time=4),
    Message('note_on', channel=9, note=36, velocity=127, time=44),
    Message('note_on', channel=9, note=36, velocity=0, time=4),
    Message('note_on', channel=9, note=36, velocity=127, time=188),
    Message('note_on', channel=9, note=36, velocity=0, time=4),
    Message('note_on', channel=9, note=36, velocity=127, time=188),
    Message('note_on', channel=9, note=36, velocity=0, time=4),
    Message('note_on', channel=9, note=36, velocity=127, time=188),
    Message('note_on', channel=9, note=36, velocity=0, time=4),
    Message('note_on', channel=9, note=36, velocity=127, time=140),
    Message('note_on', channel=9, note=36, velocity=0, time=4),
    Message('note_on', channel=9, note=36, velocity=127, time=44),
    Message('note_on', channel=9, note=36, velocity=0, time=4),
    Message('note_on', channel=9, note=36, velocity=127, time=188),
    Message('note_on', channel=9, note=36, velocity=0, time=4),
    Message('note_on', channel=9, note=36, velocity=127, time=188),
    Message('note_on', channel=9, note=36, velocity=0, time=4),
    Message('note_on', channel=9, note=36, velocity=127, time=188),
    Message('note_on', channel=9, note=36, velocity=0, time=4),
    Message('note_on', channel=9, note=36, velocity=127, time=140),
    Message('note_on', channel=9, note=36, velocity=0, time=4),
    Message('note_on', channel=9, note=36, velocity=127, time=44),
    Message('note_on', channel=9, note=36, velocity=0, time=4),
    Message('note_on', channel=9, note=36, velocity=127, time=188),
    Message('note_on', channel=9, note=36, velocity=0, time=3),
    Message('note_on', channel=9, note=36, velocity=127, time=189),
    Message('note_on', channel=9, note=36, velocity=0, time=4),
    Message('note_on', channel=9, note=36, velocity=127, time=188),
    Message('note_on', channel=9, note=36, velocity=0, time=4),
    Message('note_on', channel=9, note=36, velocity=127, time=140),
    Message('note_on', channel=9, note=36, velocity=0, time=4),
    Message('note_on', channel=9, note=36, velocity=127, time=44),
    Message('note_on', channel=9, note=36, velocity=0, time=4),
    Message('note_on', channel=9, note=36, velocity=127, time=188),
    Message('note_on', channel=9, note=36, velocity=0, time=4),
    Message('note_on', channel=9, note=36, velocity=127, time=188),
    Message('note_on', channel=9, note=36, velocity=0, time=4),
    Message('note_on', channel=9, note=36, velocity=127, time=188),
    Message('note_on', channel=9, note=36, velocity=0, time=3),
    Message('note_on', channel=9, note=36, velocity=127, time=141),
    Message('note_on', channel=9, note=36, velocity=0, time=4),
    Message('note_on', channel=9, note=36, velocity=127, time=44),
    Message('note_on', channel=9, note=36, velocity=0, time=4),
    Message('note_on', channel=9, note=36, velocity=127, time=188),
    Message('note_on', channel=9, note=36, velocity=0, time=4),
    Message('note_on', channel=9, note=36, velocity=127, time=188),
    Message('note_on', channel=9, note=36, velocity=0, time=4),
    Message('note_on', channel=9, note=36, velocity=127, time=188),
    Message('note_on', channel=9, note=36, velocity=0, time=4),
    Message('note_on', channel=9, note=36, velocity=127, time=140),
    Message('note_on', channel=9, note=36, velocity=0, time=4),
    Message('note_on', channel=9, note=36, velocity=127, time=44),
    Message('note_on', channel=9, note=36, velocity=0, time=4),
    Message('note_on', channel=9, note=36, velocity=127, time=188),
    Message('note_on', channel=9, note=36, velocity=0, time=4),
    Message('note_on', channel=9, note=36, velocity=127, time=188),
    Message('note_on', channel=9, note=36, velocity=0, time=4),
    Message('note_on', channel=9, note=36, velocity=127, time=188),
    Message('note_on', channel=9, note=36, velocity=0, time=4),
    Message('note_on', channel=9, note=36, velocity=127, time=140),
    Message('note_on', channel=9, note=36, velocity=0, time=3),
    Message('note_on', channel=9, note=36, velocity=127, time=45),
    Message('note_on', channel=9, note=36, velocity=0, time=3),
    Message('note_on', channel=9, note=36, velocity=127, time=45),
    Message('note_on', channel=9, note=36, velocity=0, time=3),
    Message('note_on', channel=9, note=36, velocity=127, time=142),
    Message('note_on', channel=9, note=36, velocity=0, time=3),
    Message('note_on', channel=9, note=36, velocity=127, time=188),
    Message('note_on', channel=9, note=36, velocity=0, time=4),
    Message('note_on', channel=9, note=36, velocity=127, time=188),
    Message('note_on', channel=9, note=36, velocity=0, time=4),
    Message('note_on', channel=9, note=36, velocity=127, time=140),
    Message('note_on', channel=9, note=36, velocity=0, time=4),
    Message('note_on', channel=9, note=36, velocity=127, time=44),
    Message('note_on', channel=9, note=36, velocity=0, time=4),
    Message('note_on', channel=9, note=36, velocity=127, time=188),
    Message('note_on', channel=9, note=36, velocity=0, time=4),
    Message('note_on', channel=9, note=36, velocity=127, time=188),
    Message('note_on', channel=9, note=36, velocity=0, time=4),
    Message('note_on', channel=9, note=36, velocity=127, time=188),
    Message('note_on', channel=9, note=36, velocity=0, time=4),
    Message('note_on', channel=9, note=36, velocity=127, time=140),
    Message('note_on', channel=9, note=36, velocity=0, time=4),
    Message('note_on', channel=9, note=36, velocity=127, time=44),
    Message('note_on', channel=9, note=36, velocity=0, time=4),
    Message('note_on', channel=9, note=36, velocity=127, time=188),
    Message('note_on', channel=9, note=36, velocity=0, time=3),
    Message('note_on', channel=9, note=36, velocity=127, time=190),
    Message('note_on', channel=9, note=36, velocity=0, time=3),
    Message('note_on', channel=9, note=36, velocity=127, time=189),
    Message('note_on', channel=9, note=36, velocity=0, time=3),
    Message('note_on', channel=9, note=36, velocity=127, time=141),
    Message('note_on', channel=9, note=36, velocity=0, time=3),
    Message('note_on', channel=9, note=36, velocity=127, time=44),
    Message('note_on', channel=9, note=36, velocity=0, time=4),
    Message('note_on', channel=9, note=36, velocity=127, time=188),
    Message('note_on', channel=9, note=36, velocity=0, time=4),
    Message('note_on', channel=9, note=36, velocity=127, time=189),
    Message('note_on', channel=9, note=36, velocity=0, time=3),
    Message('note_on', channel=9, note=36, velocity=127, time=189),
    Message('note_on', channel=9, note=36, velocity=0, time=3),
    Message('note_on', channel=9, note=36, velocity=127, time=141),
    Message('note_on', channel=9, note=36, velocity=0, time=3),
    Message('note_on', channel=9, note=36, velocity=127, time=44),
    Message('note_on', channel=9, note=36, velocity=0, time=4),
    Message('note_on', channel=9, note=36, velocity=127, time=189),
    Message('note_on', channel=9, note=36, velocity=0, time=3),
    Message('note_on', channel=9, note=36, velocity=127, time=189),
    Message('note_on', channel=9, note=36, velocity=0, time=3),
    Message('note_on', channel=9, note=36, velocity=127, time=189),
    Message('note_on', channel=9, note=36, velocity=0, time=3),
    Message('note_on', channel=9, note=36, velocity=127, time=141),
    Message('note_on', channel=9, note=36, velocity=0, time=3),
    Message('note_on', channel=9, note=36, velocity=127, time=45),
    Message('note_on', channel=9, note=36, velocity=0, time=3),
    Message('note_on', channel=9, note=36, velocity=127, time=188),
    Message('note_on', channel=9, note=36, velocity=0, time=4),
    Message('note_on', channel=9, note=36, velocity=127, time=189),
    Message('note_on', channel=9, note=36, velocity=0, time=3),
    Message('note_on', channel=9, note=36, velocity=127, time=189),
    Message('note_on', channel=9, note=36, velocity=0, time=3),
    Message('note_on', channel=9, note=36, velocity=127, time=141),
    Message('note_on', channel=9, note=36, velocity=0, time=3),
    Message('note_on', channel=9, note=36, velocity=127, time=44),
    Message('note_on', channel=9, note=36, velocity=0, time=4),
    Message('note_on', channel=9, note=36, velocity=127, time=188),
    Message('note_on', channel=9, note=36, velocity=0, time=3),
    Message('note_on', channel=9, note=36, velocity=127, time=190),
    Message('note_on', channel=9, note=36, velocity=0, time=3),
    Message('note_on', channel=9, note=36, velocity=127, time=189),
    Message('note_on', channel=9, note=36, velocity=0, time=3),
    Message('note_on', channel=9, note=36, velocity=127, time=141),
    Message('note_on', channel=9, note=36, velocity=0, time=3),
    Message('note_on', channel=9, note=36, velocity=127, time=45),
    Message('note_on', channel=9, note=36, velocity=0, time=3),
    Message('note_on', channel=9, note=36, velocity=127, time=188),
    Message('note_on', channel=9, note=36, velocity=0, time=4),
    Message('note_on', channel=9, note=36, velocity=127, time=189),
    Message('note_on', channel=9, note=36, velocity=0, time=3),
    Message('note_on', channel=9, note=36, velocity=127, time=189),
    Message('note_on', channel=9, note=36, velocity=0, time=3),
    Message('note_on', channel=9, note=36, velocity=127, time=141),
    Message('note_on', channel=9, note=36, velocity=0, time=3),
    Message('note_on', channel=9, note=36, velocity=127, time=44),
    Message('note_on', channel=9, note=36, velocity=0, time=4),
    Message('note_on', channel=9, note=36, velocity=127, time=189),
    Message('note_on', channel=9, note=36, velocity=0, time=3),
    Message('note_on', channel=9, note=36, velocity=127, time=189),
    Message('note_on', channel=9, note=36, velocity=0, time=3),
    Message('note_on', channel=9, note=36, velocity=127, time=188),
    Message('note_on', channel=9, note=36, velocity=0, time=4),
    Message('note_on', channel=9, note=36, velocity=127, time=141),
    Message('note_on', channel=9, note=36, velocity=0, time=3),
    Message('note_on', channel=9, note=36, velocity=127, time=44),
    Message('note_on', channel=9, note=36, velocity=0, time=4),
    Message('note_on', channel=9, note=36, velocity=127, time=189),
    Message('note_on', channel=9, note=36, velocity=0, time=3),
    Message('note_on', channel=9, note=36, velocity=127, time=189),
    Message('note_on', channel=9, note=36, velocity=0, time=3),
    Message('note_on', channel=9, note=36, velocity=127, time=189),
    Message('note_on', channel=9, note=36, velocity=0, time=3),
    Message('note_on', channel=9, note=36, velocity=127, time=140),
    Message('note_on', channel=9, note=36, velocity=0, time=4),
    Message('note_on', channel=9, note=36, velocity=127, time=44),
    Message('note_on', channel=9, note=36, velocity=0, time=3),
    Message('note_on', channel=9, note=36, velocity=127, time=190),
    Message('note_on', channel=9, note=36, velocity=0, time=3),
    Message('note_on', channel=9, note=36, velocity=127, time=189),
    Message('note_on', channel=9, note=36, velocity=0, time=3),
    Message('note_on', channel=9, note=36, velocity=127, time=188),
    Message('note_on', channel=9, note=36, velocity=0, time=4),
    Message('note_on', channel=9, note=36, velocity=127, time=141),
    Message('note_on', channel=9, note=36, velocity=0, time=3),
    Message('note_on', channel=9, note=36, velocity=127, time=44),
    Message('note_on', channel=9, note=36, velocity=0, time=4),
    Message('note_on', channel=9, note=36, velocity=127, time=189),
    Message('note_on', channel=9, note=36, velocity=0, time=3),
    Message('note_on', channel=9, note=36, velocity=127, time=189),
    Message('note_on', channel=9, note=36, velocity=0, time=3),
    Message('note_on', channel=9, note=36, velocity=127, time=189),
    Message('note_on', channel=9, note=36, velocity=0, time=3),
    Message('note_on', channel=9, note=36, velocity=127, time=140),
    Message('note_on', channel=9, note=36, velocity=0, time=4),
    Message('note_on', channel=9, note=36, velocity=127, time=44),
    Message('note_on', channel=9, note=36, velocity=0, time=3),
    Message('note_on', channel=9, note=36, velocity=127, time=190),
    Message('note_on', channel=9, note=36, velocity=0, time=3),
    Message('note_on', channel=9, note=36, velocity=127, time=188),
    Message('note_on', channel=9, note=36, velocity=0, time=3),
    Message('note_on', channel=9, note=36, velocity=127, time=189),
    Message('note_on', channel=9, note=36, velocity=0, time=4),
    Message('note_on', channel=9, note=36, velocity=127, time=140),
    Message('note_on', channel=9, note=36, velocity=0, time=4),
    Message('note_on', channel=9, note=36, velocity=127, time=44),
    Message('note_on', channel=9, note=36, velocity=0, time=4),
    Message('note_on', channel=9, note=36, velocity=127, time=188),
    Message('note_on', channel=9, note=36, velocity=0, time=4),
    Message('note_on', channel=9, note=36, velocity=127, time=188),
    Message('note_on', channel=9, note=36, velocity=0, time=4),
    Message('note_on', channel=9, note=36, velocity=127, time=188),
    Message('note_on', channel=9, note=36, velocity=0, time=4),
    Message('note_on', channel=9, note=36, velocity=127, time=140),
    Message('note_on', channel=9, note=36, velocity=0, time=4),
    Message('note_on', channel=9, note=36, velocity=127, time=44),
    Message('note_on', channel=9, note=36, velocity=0, time=4),
    Message('note_on', channel=9, note=36, velocity=127, time=188),
    Message('note_on', channel=9, note=36, velocity=0, time=4),
    Message('note_on', channel=9, note=36, velocity=127, time=188),
    Message('note_on', channel=9, note=36, velocity=0, time=4),
    Message('note_on', channel=9, note=36, velocity=127, time=188),
    Message('note_on', channel=9, note=36, velocity=0, time=4),
    Message('note_on', channel=9, note=36, velocity=127, time=140),
    Message('note_on', channel=9, note=36, velocity=0, time=4),
    Message('note_on', channel=9, note=36, velocity=127, time=44),
    Message('note_on', channel=9, note=36, velocity=0, time=4),
    Message('note_on', channel=9, note=36, velocity=127, time=188),
    Message('note_on', channel=9, note=36, velocity=0, time=4),
    Message('note_on', channel=9, note=36, velocity=127, time=188),
    Message('note_on', channel=9, note=36, velocity=0, time=4),
    Message('note_on', channel=9, note=36, velocity=127, time=188),
    Message('note_on', channel=9, note=36, velocity=0, time=4),
    Message('note_on', channel=9, note=36, velocity=127, time=140),
    Message('note_on', channel=9, note=36, velocity=0, time=3),
    Message('note_on', channel=9, note=36, velocity=127, time=45),
    Message('note_on', channel=9, note=36, velocity=0, time=3),
    Message('note_on', channel=9, note=36, velocity=127, time=45),
    Message('note_on', channel=9, note=36, velocity=0, time=3),
    Message('note_on', channel=9, note=36, velocity=127, time=141),
    Message('note_on', channel=9, note=36, velocity=0, time=4),
    Message('note_on', channel=9, note=36, velocity=127, time=188),
    Message('note_on', channel=9, note=36, velocity=0, time=4),
    Message('note_on', channel=9, note=36, velocity=127, time=188),
    Message('note_on', channel=9, note=36, velocity=0, time=4),
    Message('note_on', channel=9, note=36, velocity=127, time=140),
    Message('note_on', channel=9, note=36, velocity=0, time=4),
    Message('note_on', channel=9, note=36, velocity=127, time=44),
    Message('note_on', channel=9, note=36, velocity=0, time=4),
    Message('note_on', channel=9, note=36, velocity=127, time=188),
    Message('note_on', channel=9, note=36, velocity=0, time=4),
    Message('note_on', channel=9, note=36, velocity=127, time=188),
    Message('note_on', channel=9, note=36, velocity=0, time=4),
    Message('note_on', channel=9, note=36, velocity=127, time=188),
    Message('note_on', channel=9, note=36, velocity=0, time=4),
    Message('note_on', channel=9, note=36, velocity=127, time=140),
    Message('note_on', channel=9, note=36, velocity=0, time=4),
    Message('note_on', channel=9, note=36, velocity=127, time=44),
    Message('note_on', channel=9, note=36, velocity=0, time=4),
    Message('note_on', channel=9, note=36, velocity=127, time=188),
    Message('note_on', channel=9, note=36, velocity=0, time=4),
    Message('note_on', channel=9, note=36, velocity=127, time=188),
    Message('note_on', channel=9, note=36, velocity=0, time=4),
    Message('note_on', channel=9, note=36, velocity=127, time=188),
    Message('note_on', channel=9, note=36, velocity=0, time=4),
    Message('note_on', channel=9, note=36, velocity=127, time=140),
    Message('note_on', channel=9, note=36, velocity=0, time=4),
    Message('note_on', channel=9, note=36, velocity=127, time=44),
    Message('note_on', channel=9, note=36, velocity=0, time=4),
    Message('note_on', channel=9, note=36, velocity=127, time=189),
    Message('note_on', channel=9, note=36, velocity=0, time=3),
    Message('note_on', channel=9, note=36, velocity=127, time=188),
    Message('note_on', channel=9, note=36, velocity=0, time=4),
    Message('note_on', channel=9, note=36, velocity=127, time=188),
    Message('note_on', channel=9, note=36, velocity=0, time=4),
    Message('note_on', channel=9, note=36, velocity=127, time=140),
    Message('note_on', channel=9, note=36, velocity=0, time=4),
    Message('note_on', channel=9, note=36, velocity=127, time=44),
    Message('note_on', channel=9, note=36, velocity=0, time=4),
    Message('note_on', channel=9, note=36, velocity=127, time=188),
    Message('note_on', channel=9, note=36, velocity=0, time=4),
    Message('note_on', channel=9, note=36, velocity=127, time=188),
    Message('note_on', channel=9, note=36, velocity=0, time=4),
    Message('note_on', channel=9, note=36, velocity=127, time=188),
    Message('note_on', channel=9, note=36, velocity=0, time=4),
    Message('note_on', channel=9, note=36, velocity=127, time=140),
    Message('note_on', channel=9, note=36, velocity=0, time=4),
    Message('note_on', channel=9, note=36, velocity=127, time=44),
    Message('note_on', channel=9, note=36, velocity=0, time=4),
    Message('note_on', channel=9, note=36, velocity=127, time=188),
    Message('note_on', channel=9, note=36, velocity=0, time=4),
    Message('note_on', channel=9, note=36, velocity=127, time=188),
    Message('note_on', channel=9, note=36, velocity=0, time=4),
    Message('note_on', channel=9, note=36, velocity=127, time=188),
    Message('note_on', channel=9, note=36, velocity=0, time=4),
    Message('note_on', channel=9, note=36, velocity=127, time=140),
    Message('note_on', channel=9, note=36, velocity=0, time=4),
    Message('note_on', channel=9, note=36, velocity=127, time=44),
    Message('note_on', channel=9, note=36, velocity=0, time=4),
    Message('note_on', channel=9, note=36, velocity=127, time=188),
    Message('note_on', channel=9, note=36, velocity=0, time=3),
    Message('note_on', channel=9, note=36, velocity=127, time=190),
    Message('note_on', channel=9, note=36, velocity=0, time=3),
    Message('note_on', channel=9, note=36, velocity=127, time=189),
    Message('note_on', channel=9, note=36, velocity=0, time=3),
    Message('note_on', channel=9, note=36, velocity=127, time=141),
    Message('note_on', channel=9, note=36, velocity=0, time=3),
    Message('note_on', channel=9, note=36, velocity=127, time=44),
    Message('note_on', channel=9, note=36, velocity=0, time=3),
    Message('note_on', channel=9, note=36, velocity=127, time=190),
    Message('note_on', channel=9, note=36, velocity=0, time=3),
    Message('note_on', channel=9, note=36, velocity=127, time=189),
    Message('note_on', channel=9, note=36, velocity=0, time=3),
    Message('note_on', channel=9, note=36, velocity=127, time=189),
    Message('note_on', channel=9, note=36, velocity=0, time=3),
    Message('note_on', channel=9, note=36, velocity=127, time=140),
    Message('note_on', channel=9, note=36, velocity=0, time=3),
    Message('note_on', channel=9, note=36, velocity=127, time=46),
    Message('note_on', channel=9, note=36, velocity=0, time=3),
    Message('note_on', channel=9, note=36, velocity=127, time=189),
    Message('note_on', channel=9, note=36, velocity=0, time=3),
    Message('note_on', channel=9, note=36, velocity=127, time=189),
    Message('note_on', channel=9, note=36, velocity=0, time=3),
    Message('note_on', channel=9, note=36, velocity=127, time=188),
    Message('note_on', channel=9, note=36, velocity=0, time=4),
    Message('note_on', channel=9, note=36, velocity=127, time=140),
    Message('note_on', channel=9, note=36, velocity=0, time=4),
    Message('note_on', channel=9, note=36, velocity=127, time=45),
    Message('note_on', channel=9, note=36, velocity=0, time=3),
    Message('note_on', channel=9, note=36, velocity=127, time=189),
    Message('note_on', channel=9, note=36, velocity=0, time=3),
    Message('note_on', channel=9, note=36, velocity=127, time=188),
    Message('note_on', channel=9, note=36, velocity=0, time=4),
    Message('note_on', channel=9, note=36, velocity=127, time=189),
    Message('note_on', channel=9, note=36, velocity=0, time=3),
    Message('note_on', channel=9, note=36, velocity=127, time=140),
    Message('note_on', channel=9, note=36, velocity=0, time=3),
    Message('note_on', channel=9, note=36, velocity=127, time=46),
    Message('note_on', channel=9, note=36, velocity=0, time=3),
    Message('note_on', channel=9, note=36, velocity=127, time=44),
    Message('note_on', channel=9, note=36, velocity=0, time=3),
    Message('note_on', channel=9, note=36, velocity=127, time=46),
    Message('note_on', channel=9, note=36, velocity=0, time=3),
    Message('note_on', channel=9, note=36, velocity=127, time=45),
    Message('note_on', channel=9, note=36, velocity=0, time=3),
    Message('note_on', channel=9, note=36, velocity=127, time=44),
    Message('note_on', channel=9, note=36, velocity=0, time=3),
    MetaMessage('end_of_track', time=0)]),
  MidiTrack([
    MetaMessage('midi_port', port=0, time=0),
    Message('note_on', channel=9, note=38, velocity=55, time=3457),
    Message('note_on', channel=9, note=38, velocity=0, time=3),
    Message('note_on', channel=9, note=38, velocity=55, time=44),
    Message('note_on', channel=9, note=38, velocity=0, time=4),
    Message('note_on', channel=9, note=38, velocity=96, time=45),
    Message('note_on', channel=9, note=38, velocity=0, time=3),
    Message('note_on', channel=9, note=38, velocity=127, time=44),
    Message('note_on', channel=9, note=38, velocity=0, time=4),
    Message('note_on', channel=9, note=38, velocity=127, time=45),
    Message('note_on', channel=9, note=38, velocity=0, time=3),
    Message('note_on', channel=9, note=38, velocity=55, time=45),
    Message('note_on', channel=9, note=38, velocity=0, time=3),
    Message('note_on', channel=9, note=38, velocity=127, time=45),
    Message('note_on', channel=9, note=38, velocity=0, time=3),
    Message('note_on', channel=9, note=38, velocity=127, time=188),
    Message('note_on', channel=9, note=38, velocity=0, time=4),
    Message('note_on', channel=9, note=38, velocity=127, time=189),
    Message('note_on', channel=9, note=38, velocity=0, time=3),
    Message('note_on', channel=9, note=38, velocity=127, time=189),
    Message('note_on', channel=9, note=38, velocity=0, time=3),
    Message('note_on', channel=9, note=38, velocity=127, time=188),
    Message('note_on', channel=9, note=38, velocity=0, time=4),
    Message('note_on', channel=9, note=38, velocity=127, time=188),
    Message('note_on', channel=9, note=38, velocity=0, time=4),
    Message('note_on', channel=9, note=38, velocity=127, time=188),
    Message('note_on', channel=9, note=38, velocity=0, time=4),
    Message('note_on', channel=9, note=38, velocity=127, time=189),
    Message('note_on', channel=9, note=38, velocity=0, time=3),
    Message('note_on', channel=9, note=38, velocity=127, time=189),
    Message('note_on', channel=9, note=38, velocity=0, time=3),
    Message('note_on', channel=9, note=38, velocity=127, time=188),
    Message('note_on', channel=9, note=38, velocity=0, time=4),
    Message('note_on', channel=9, note=38, velocity=127, time=189),
    Message('note_on', channel=9, note=38, velocity=0, time=3),
    Message('note_on', channel=9, note=38, velocity=127, time=189),
    Message('note_on', channel=9, note=38, velocity=0, time=3),
    Message('note_on', channel=9, note=38, velocity=127, time=189),
    Message('note_on', channel=9, note=38, velocity=0, time=3),
    Message('note_on', channel=9, note=38, velocity=127, time=188),
    Message('note_on', channel=9, note=38, velocity=0, time=4),
    Message('note_on', channel=9, note=38, velocity=127, time=188),
    Message('note_on', channel=9, note=38, velocity=0, time=4),
    Message('note_on', channel=9, note=38, velocity=55, time=140),
    Message('note_on', channel=9, note=38, velocity=0, time=4),
    Message('note_on', channel=9, note=38, velocity=55, time=44),
    Message('note_on', channel=9, note=38, velocity=0, time=4),
    Message('note_on', channel=9, note=38, velocity=55, time=45),
    Message('note_on', channel=9, note=38, velocity=0, time=3),
    Message('note_on', channel=9, note=38, velocity=55, time=45),
    Message('note_on', channel=9, note=38, velocity=0, time=3),
    Message('note_on', channel=9, note=38, velocity=96, time=45),
    Message('note_on', channel=9, note=38, velocity=0, time=3),
    Message('note_on', channel=9, note=38, velocity=127, time=45),
    Message('note_on', channel=9, note=38, velocity=0, time=3),
    Message('note_on', channel=9, note=38, velocity=127, time=45),
    Message('note_on', channel=9, note=38, velocity=0, time=3),
    Message('note_on', channel=9, note=38, velocity=127, time=140),
    Message('note_on', channel=9, note=38, velocity=0, time=4),
    Message('note_on', channel=9, note=38, velocity=127, time=188),
    Message('note_on', channel=9, note=38, velocity=0, time=3),
    Message('note_on', channel=9, note=38, velocity=127, time=189),
    Message('note_on', channel=9, note=38, velocity=0, time=4),
    Message('note_on', channel=9, note=38, velocity=127, time=188),
    Message('note_on', channel=9, note=38, velocity=0, time=4),
    Message('note_on', channel=9, note=38, velocity=127, time=188),
    Message('note_on', channel=9, note=38, velocity=0, time=4),
    Message('note_on', channel=9, note=38, velocity=127, time=188),
    Message('note_on', channel=9, note=38, velocity=0, time=4),
    Message('note_on', channel=9, note=38, velocity=127, time=188),
    Message('note_on', channel=9, note=38, velocity=0, time=4),
    Message('note_on', channel=9, note=38, velocity=127, time=188),
    Message('note_on', channel=9, note=38, velocity=0, time=4),
    Message('note_on', channel=9, note=38, velocity=127, time=188),
    Message('note_on', channel=9, note=38, velocity=0, time=4),
    Message('note_on', channel=9, note=38, velocity=127, time=188),
    Message('note_on', channel=9, note=38, velocity=0, time=4),
    Message('note_on', channel=9, note=38, velocity=127, time=188),
    Message('note_on', channel=9, note=38, velocity=0, time=4),
    Message('note_on', channel=9, note=38, velocity=127, time=188),
    Message('note_on', channel=9, note=38, velocity=0, time=4),
    Message('note_on', channel=9, note=38, velocity=127, time=188),
    Message('note_on', channel=9, note=38, velocity=0, time=4),
    Message('note_on', channel=9, note=38, velocity=127, time=188),
    Message('note_on', channel=9, note=38, velocity=0, time=4),
    Message('note_on', channel=9, note=38, velocity=127, time=188),
    Message('note_on', channel=9, note=38, velocity=0, time=4),
    Message('note_on', channel=9, note=38, velocity=127, time=188),
    Message('note_on', channel=9, note=38, velocity=0, time=4),
    Message('note_on', channel=9, note=38, velocity=127, time=188),
    Message('note_on', channel=9, note=38, velocity=0, time=4),
    Message('note_on', channel=9, note=38, velocity=127, time=188),
    Message('note_on', channel=9, note=38, velocity=0, time=4),
    Message('note_on', channel=9, note=38, velocity=127, time=188),
    Message('note_on', channel=9, note=38, velocity=0, time=4),
    Message('note_on', channel=9, note=38, velocity=127, time=188),
    Message('note_on', channel=9, note=38, velocity=0, time=4),
    Message('note_on', channel=9, note=38, velocity=127, time=188),
    Message('note_on', channel=9, note=38, velocity=0, time=3),
    Message('note_on', channel=9, note=38, velocity=127, time=189),
    Message('note_on', channel=9, note=38, velocity=0, time=4),
    Message('note_on', channel=9, note=38, velocity=127, time=188),
    Message('note_on', channel=9, note=38, velocity=0, time=4),
    Message('note_on', channel=9, note=38, velocity=127, time=188),
    Message('note_on', channel=9, note=38, velocity=0, time=4),
    Message('note_on', channel=9, note=38, velocity=127, time=188),
    Message('note_on', channel=9, note=38, velocity=0, time=4),
    Message('note_on', channel=9, note=38, velocity=127, time=188),
    Message('note_on', channel=9, note=38, velocity=0, time=4),
    Message('note_on', channel=9, note=38, velocity=127, time=188),
    Message('note_on', channel=9, note=38, velocity=0, time=4),
    Message('note_on', channel=9, note=38, velocity=127, time=188),
    Message('note_on', channel=9, note=38, velocity=0, time=4),
    Message('note_on', channel=9, note=38, velocity=127, time=188),
    Message('note_on', channel=9, note=38, velocity=0, time=4),
    Message('note_on', channel=9, note=38, velocity=127, time=188),
    Message('note_on', channel=9, note=38, velocity=0, time=4),
    Message('note_on', channel=9, note=38, velocity=127, time=188),
    Message('note_on', channel=9, note=38, velocity=0, time=4),
    Message('note_on', channel=9, note=38, velocity=55, time=188),
    Message('note_on', channel=9, note=38, velocity=0, time=3),
    Message('note_on', channel=9, note=38, velocity=55, time=21),
    Message('note_on', channel=9, note=38, velocity=0, time=3),
    Message('note_on', channel=9, note=38, velocity=127, time=21),
    Message('note_on', channel=9, note=38, velocity=0, time=3),
    Message('note_on', channel=9, note=38, velocity=127, time=21),
    Message('note_on', channel=9, note=38, velocity=0, time=4),
    Message('note_on', channel=9, note=38, velocity=127, time=116),
    Message('note_on', channel=9, note=38, velocity=0, time=4),
    Message('note_on', channel=9, note=38, velocity=127, time=188),
    Message('note_on', channel=9, note=38, velocity=0, time=4),
    Message('note_on', channel=9, note=38, velocity=127, time=188),
    Message('note_on', channel=9, note=38, velocity=0, time=4),
    Message('note_on', channel=9, note=38, velocity=127, time=188),
    Message('note_on', channel=9, note=38, velocity=0, time=3),
    Message('note_on', channel=9, note=38, velocity=127, time=189),
    Message('note_on', channel=9, note=38, velocity=0, time=4),
    Message('note_on', channel=9, note=38, velocity=127, time=188),
    Message('note_on', channel=9, note=38, velocity=0, time=4),
    Message('note_on', channel=9, note=38, velocity=127, time=188),
    Message('note_on', channel=9, note=38, velocity=0, time=4),
    Message('note_on', channel=9, note=38, velocity=127, time=188),
    Message('note_on', channel=9, note=38, velocity=0, time=4),
    Message('note_on', channel=9, note=38, velocity=127, time=188),
    Message('note_on', channel=9, note=38, velocity=0, time=4),
    Message('note_on', channel=9, note=38, velocity=127, time=188),
    Message('note_on', channel=9, note=38, velocity=0, time=4),
    Message('note_on', channel=9, note=38, velocity=127, time=188),
    Message('note_on', channel=9, note=38, velocity=0, time=4),
    Message('note_on', channel=9, note=38, velocity=127, time=188),
    Message('note_on', channel=9, note=38, velocity=0, time=4),
    Message('note_on', channel=9, note=38, velocity=127, time=188),
    Message('note_on', channel=9, note=38, velocity=0, time=4),
    Message('note_on', channel=9, note=38, velocity=127, time=188),
    Message('note_on', channel=9, note=38, velocity=0, time=4),
    Message('note_on', channel=9, note=38, velocity=127, time=188),
    Message('note_on', channel=9, note=38, velocity=0, time=4),
    Message('note_on', channel=9, note=38, velocity=127, time=188),
    Message('note_on', channel=9, note=38, velocity=0, time=4),
    Message('note_on', channel=9, note=38, velocity=127, time=44),
    Message('note_on', channel=9, note=38, velocity=0, time=3),
    Message('note_on', channel=9, note=38, velocity=127, time=21),
    Message('note_on', channel=9, note=38, velocity=0, time=4),
    Message('note_on', channel=9, note=38, velocity=127, time=116),
    Message('note_on', channel=9, note=38, velocity=0, time=4),
    Message('note_on', channel=9, note=38, velocity=127, time=188),
    Message('note_on', channel=9, note=38, velocity=0, time=4),
    Message('note_on', channel=9, note=38, velocity=127, time=188),
    Message('note_on', channel=9, note=38, velocity=0, time=4),
    Message('note_on', channel=9, note=38, velocity=127, time=188),
    Message('note_on', channel=9, note=38, velocity=0, time=4),
    Message('note_on', channel=9, note=38, velocity=127, time=188),
    Message('note_on', channel=9, note=38, velocity=0, time=4),
    Message('note_on', channel=9, note=38, velocity=127, time=188),
    Message('note_on', channel=9, note=38, velocity=0, time=4),
    Message('note_on', channel=9, note=38, velocity=127, time=188),
    Message('note_on', channel=9, note=38, velocity=0, time=3),
    Message('note_on', channel=9, note=38, velocity=127, time=189),
    Message('note_on', channel=9, note=38, velocity=0, time=4),
    Message('note_on', channel=9, note=38, velocity=127, time=188),
    Message('note_on', channel=9, note=38, velocity=0, time=4),
    Message('note_on', channel=9, note=38, velocity=127, time=188),
    Message('note_on', channel=9, note=38, velocity=0, time=4),
    Message('note_on', channel=9, note=38, velocity=127, time=188),
    Message('note_on', channel=9, note=38, velocity=0, time=4),
    Message('note_on', channel=9, note=38, velocity=127, time=188),
    Message('note_on', channel=9, note=38, velocity=0, time=4),
    Message('note_on', channel=9, note=38, velocity=127, time=188),
    Message('note_on', channel=9, note=38, velocity=0, time=4),
    Message('note_on', channel=9, note=38, velocity=127, time=188),
    Message('note_on', channel=9, note=38, velocity=0, time=4),
    Message('note_on', channel=9, note=38, velocity=127, time=188),
    Message('note_on', channel=9, note=38, velocity=0, time=4),
    Message('note_on', channel=9, note=38, velocity=55, time=188),
    Message('note_on', channel=9, note=38, velocity=0, time=3),
    Message('note_on', channel=9, note=38, velocity=55, time=21),
    Message('note_on', channel=9, note=38, velocity=0, time=4),
    Message('note_on', channel=9, note=38, velocity=127, time=20),
    Message('note_on', channel=9, note=38, velocity=0, time=3),
    Message('note_on', channel=9, note=38, velocity=127, time=21),
    Message('note_on', channel=9, note=38, velocity=0, time=4),
    Message('note_on', channel=9, note=38, velocity=127, time=116),
    Message('note_on', channel=9, note=38, velocity=0, time=4),
    Message('note_on', channel=9, note=38, velocity=127, time=188),
    Message('note_on', channel=9, note=38, velocity=0, time=4),
    Message('note_on', channel=9, note=38, velocity=127, time=188),
    Message('note_on', channel=9, note=38, velocity=0, time=4),
    Message('note_on', channel=9, note=38, velocity=127, time=188),
    Message('note_on', channel=9, note=38, velocity=0, time=4),
    Message('note_on', channel=9, note=38, velocity=127, time=188),
    Message('note_on', channel=9, note=38, velocity=0, time=4),
    Message('note_on', channel=9, note=38, velocity=127, time=188),
    Message('note_on', channel=9, note=38, velocity=0, time=4),
    Message('note_on', channel=9, note=38, velocity=127, time=188),
    Message('note_on', channel=9, note=38, velocity=0, time=4),
    Message('note_on', channel=9, note=38, velocity=127, time=188),
    Message('note_on', channel=9, note=38, velocity=0, time=4),
    Message('note_on', channel=9, note=38, velocity=127, time=189),
    Message('note_on', channel=9, note=38, velocity=0, time=3),
    Message('note_on', channel=9, note=38, velocity=127, time=188),
    Message('note_on', channel=9, note=38, velocity=0, time=3),
    Message('note_on', channel=9, note=38, velocity=127, time=190),
    Message('note_on', channel=9, note=38, velocity=0, time=3),
    Message('note_on', channel=9, note=38, velocity=127, time=189),
    Message('note_on', channel=9, note=38, velocity=0, time=3),
    Message('note_on', channel=9, note=38, velocity=127, time=189),
    Message('note_on', channel=9, note=38, velocity=0, time=3),
    Message('note_on', channel=9, note=38, velocity=127, time=188),
    Message('note_on', channel=9, note=38, velocity=0, time=4),
    Message('note_on', channel=9, note=38, velocity=127, time=189),
    Message('note_on', channel=9, note=38, velocity=0, time=3),
    Message('note_on', channel=9, note=38, velocity=127, time=189),
    Message('note_on', channel=9, note=38, velocity=0, time=3),
    Message('note_on', channel=9, note=38, velocity=127, time=44),
    Message('note_on', channel=9, note=38, velocity=0, time=3),
    Message('note_on', channel=9, note=38, velocity=127, time=22),
    Message('note_on', channel=9, note=38, velocity=0, time=3),
    Message('note_on', channel=9, note=38, velocity=127, time=5828),
    Message('note_on', channel=9, note=38, velocity=0, time=3),
    Message('note_on', channel=9, note=38, velocity=127, time=46),
    Message('note_on', channel=9, note=38, velocity=0, time=3),
    Message('note_on', channel=9, note=38, velocity=127, time=141),
    Message('note_on', channel=9, note=38, velocity=0, time=3),
    Message('note_on', channel=9, note=38, velocity=127, time=44),
    Message('note_on', channel=9, note=38, velocity=0, time=4),
    Message('note_on', channel=9, note=38, velocity=127, time=44),
    Message('note_on', channel=9, note=38, velocity=0, time=3),
    Message('note_on', channel=9, note=38, velocity=127, time=21),
    Message('note_on', channel=9, note=38, velocity=0, time=3),
    Message('note_on', channel=9, note=38, velocity=127, time=118),
    Message('note_on', channel=9, note=38, velocity=0, time=3),
    Message('note_on', channel=9, note=38, velocity=127, time=188),
    Message('note_on', channel=9, note=38, velocity=0, time=4),
    Message('note_on', channel=9, note=38, velocity=127, time=188),
    Message('note_on', channel=9, note=38, velocity=0, time=4),
    Message('note_on', channel=9, note=38, velocity=127, time=188),
    Message('note_on', channel=9, note=38, velocity=0, time=4),
    Message('note_on', channel=9, note=38, velocity=127, time=188),
    Message('note_on', channel=9, note=38, velocity=0, time=4),
    Message('note_on', channel=9, note=38, velocity=127, time=188),
    Message('note_on', channel=9, note=38, velocity=0, time=4),
    Message('note_on', channel=9, note=38, velocity=127, time=188),
    Message('note_on', channel=9, note=38, velocity=0, time=4),
    Message('note_on', channel=9, note=38, velocity=127, time=188),
    Message('note_on', channel=9, note=38, velocity=0, time=4),
    Message('note_on', channel=9, note=38, velocity=127, time=188),
    Message('note_on', channel=9, note=38, velocity=0, time=4),
    Message('note_on', channel=9, note=38, velocity=127, time=188),
    Message('note_on', channel=9, note=38, velocity=0, time=4),
    Message('note_on', channel=9, note=38, velocity=127, time=188),
    Message('note_on', channel=9, note=38, velocity=0, time=4),
    Message('note_on', channel=9, note=38, velocity=127, time=188),
    Message('note_on', channel=9, note=38, velocity=0, time=4),
    Message('note_on', channel=9, note=38, velocity=127, time=188),
    Message('note_on', channel=9, note=38, velocity=0, time=4),
    Message('note_on', channel=9, note=38, velocity=127, time=188),
    Message('note_on', channel=9, note=38, velocity=0, time=4),
    Message('note_on', channel=9, note=38, velocity=127, time=188),
    Message('note_on', channel=9, note=38, velocity=0, time=4),
    Message('note_on', channel=9, note=38, velocity=55, time=188),
    Message('note_on', channel=9, note=38, velocity=0, time=3),
    Message('note_on', channel=9, note=38, velocity=55, time=21),
    Message('note_on', channel=9, note=38, velocity=0, time=4),
    Message('note_on', channel=9, note=38, velocity=127, time=20),
    Message('note_on', channel=9, note=38, velocity=0, time=3),
    Message('note_on', channel=9, note=38, velocity=127, time=21),
    Message('note_on', channel=9, note=38, velocity=0, time=4),
    Message('note_on', channel=9, note=38, velocity=127, time=116),
    Message('note_on', channel=9, note=38, velocity=0, time=4),
    Message('note_on', channel=9, note=38, velocity=127, time=188),
    Message('note_on', channel=9, note=38, velocity=0, time=4),
    Message('note_on', channel=9, note=38, velocity=127, time=188),
    Message('note_on', channel=9, note=38, velocity=0, time=3),
    Message('note_on', channel=9, note=38, velocity=127, time=189),
    Message('note_on', channel=9, note=38, velocity=0, time=4),
    Message('note_on', channel=9, note=38, velocity=127, time=188),
    Message('note_on', channel=9, note=38, velocity=0, time=4),
    Message('note_on', channel=9, note=38, velocity=127, time=188),
    Message('note_on', channel=9, note=38, velocity=0, time=4),
    Message('note_on', channel=9, note=38, velocity=127, time=188),
    Message('note_on', channel=9, note=38, velocity=0, time=4),
    Message('note_on', channel=9, note=38, velocity=127, time=188),
    Message('note_on', channel=9, note=38, velocity=0, time=4),
    Message('note_on', channel=9, note=38, velocity=127, time=188),
    Message('note_on', channel=9, note=38, velocity=0, time=4),
    Message('note_on', channel=9, note=38, velocity=127, time=188),
    Message('note_on', channel=9, note=38, velocity=0, time=4),
    Message('note_on', channel=9, note=38, velocity=127, time=188),
    Message('note_on', channel=9, note=38, velocity=0, time=4),
    Message('note_on', channel=9, note=38, velocity=127, time=188),
    Message('note_on', channel=9, note=38, velocity=0, time=4),
    Message('note_on', channel=9, note=38, velocity=127, time=188),
    Message('note_on', channel=9, note=38, velocity=0, time=4),
    Message('note_on', channel=9, note=38, velocity=127, time=188),
    Message('note_on', channel=9, note=38, velocity=0, time=4),
    Message('note_on', channel=9, note=38, velocity=127, time=188),
    Message('note_on', channel=9, note=38, velocity=0, time=4),
    Message('note_on', channel=9, note=38, velocity=127, time=188),
    Message('note_on', channel=9, note=38, velocity=0, time=4),
    Message('note_on', channel=9, note=38, velocity=127, time=44),
    Message('note_on', channel=9, note=38, velocity=0, time=4),
    Message('note_on', channel=9, note=38, velocity=127, time=20),
    Message('note_on', channel=9, note=38, velocity=0, time=4),
    Message('note_on', channel=9, note=38, velocity=127, time=116),
    Message('note_on', channel=9, note=38, velocity=0, time=4),
    Message('note_on', channel=9, note=38, velocity=127, time=188),
    Message('note_on', channel=9, note=38, velocity=0, time=4),
    Message('note_on', channel=9, note=38, velocity=127, time=188),
    Message('note_on', channel=9, note=38, velocity=0, time=4),
    Message('note_on', channel=9, note=38, velocity=127, time=188),
    Message('note_on', channel=9, note=38, velocity=0, time=4),
    Message('note_on', channel=9, note=38, velocity=127, time=188),
    Message('note_on', channel=9, note=38, velocity=0, time=4),
    Message('note_on', channel=9, note=38, velocity=127, time=188),
    Message('note_on', channel=9, note=38, velocity=0, time=3),
    Message('note_on', channel=9, note=38, velocity=127, time=189),
    Message('note_on', channel=9, note=38, velocity=0, time=4),
    Message('note_on', channel=9, note=38, velocity=127, time=188),
    Message('note_on', channel=9, note=38, velocity=0, time=4),
    Message('note_on', channel=9, note=38, velocity=127, time=189),
    Message('note_on', channel=9, note=38, velocity=0, time=3),
    Message('note_on', channel=9, note=38, velocity=127, time=188),
    Message('note_on', channel=9, note=38, velocity=0, time=4),
    Message('note_on', channel=9, note=38, velocity=127, time=189),
    Message('note_on', channel=9, note=38, velocity=0, time=3),
    Message('note_on', channel=9, note=38, velocity=127, time=189),
    Message('note_on', channel=9, note=38, velocity=0, time=3),
    Message('note_on', channel=9, note=38, velocity=127, time=188),
    Message('note_on', channel=9, note=38, velocity=0, time=4),
    Message('note_on', channel=9, note=38, velocity=127, time=188),
    Message('note_on', channel=9, note=38, velocity=0, time=3),
    Message('note_on', channel=9, note=38, velocity=127, time=190),
    Message('note_on', channel=9, note=38, velocity=0, time=3),
    Message('note_on', channel=9, note=38, velocity=127, time=189),
    Message('note_on', channel=9, note=38, velocity=0, time=3),
    Message('note_on', channel=9, note=38, velocity=127, time=44),
    Message('note_on', channel=9, note=38, velocity=0, time=3),
    Message('note_on', channel=9, note=38, velocity=127, time=21),
    Message('note_on', channel=9, note=38, velocity=0, time=3),
    Message('note_on', channel=9, note=38, velocity=127, time=117),
    Message('note_on', channel=9, note=38, velocity=0, time=4),
    Message('note_on', channel=9, note=38, velocity=127, time=189),
    Message('note_on', channel=9, note=38, velocity=0, time=3),
    Message('note_on', channel=9, note=38, velocity=127, time=189),
    Message('note_on', channel=9, note=38, velocity=0, time=3),
    Message('note_on', channel=9, note=38, velocity=127, time=188),
    Message('note_on', channel=9, note=38, velocity=0, time=4),
    Message('note_on', channel=9, note=38, velocity=127, time=189),
    Message('note_on', channel=9, note=38, velocity=0, time=3),
    Message('note_on', channel=9, note=38, velocity=127, time=189),
    Message('note_on', channel=9, note=38, velocity=0, time=3),
    Message('note_on', channel=9, note=38, velocity=55, time=165),
    Message('note_on', channel=9, note=38, velocity=0, time=3),
    Message('note_on', channel=9, note=38, velocity=127, time=20),
    Message('note_on', channel=9, note=38, velocity=0, time=4),
    Message('note_on', channel=9, note=38, velocity=55, time=141),
    Message('note_on', channel=9, note=38, velocity=0, time=3),
    Message('note_on', channel=9, note=38, velocity=96, time=45),
    Message('note_on', channel=9, note=38, velocity=0, time=3),
    Message('note_on', channel=9, note=38, velocity=96, time=20),
    Message('note_on', channel=9, note=38, velocity=0, time=4),
    Message('note_on', channel=9, note=38, velocity=127, time=21),
    Message('note_on', channel=9, note=38, velocity=0, time=3),
    Message('note_on', channel=9, note=38, velocity=127, time=21),
    Message('note_on', channel=9, note=38, velocity=0, time=3),
    MetaMessage('end_of_track', time=0)]),
  MidiTrack([
    MetaMessage('midi_port', port=0, time=0),
    Message('note_on', channel=9, note=42, velocity=127, time=1),
    Message('note_on', channel=9, note=42, velocity=0, time=2),
    Message('note_on', channel=9, note=42, velocity=127, time=94),
    Message('note_on', channel=9, note=42, velocity=0, time=3),
    Message('note_on', channel=9, note=42, velocity=127, time=93),
    Message('note_on', channel=9, note=42, velocity=0, time=3),
    Message('note_on', channel=9, note=42, velocity=127, time=93),
    Message('note_on', channel=9, note=42, velocity=0, time=3),
    Message('note_on', channel=9, note=42, velocity=127, time=3357),
    Message('note_on', channel=9, note=42, velocity=0, time=3),
    Message('note_on', channel=9, note=42, velocity=96, time=20),
    Message('note_on', channel=9, note=42, velocity=0, time=3),
    Message('note_on', channel=9, note=42, velocity=127, time=22),
    Message('note_on', channel=9, note=42, velocity=0, time=3),
    Message('note_on', channel=9, note=42, velocity=96, time=21),
    Message('note_on', channel=9, note=42, velocity=0, time=3),
    Message('note_on', channel=9, note=42, velocity=127, time=117),
    Message('note_on', channel=9, note=42, velocity=0, time=3),
    Message('note_on', channel=9, note=42, velocity=96, time=45),
    Message('note_on', channel=9, note=42, velocity=0, time=3),
    Message('note_on', channel=9, note=42, velocity=127, time=45),
    Message('note_on', channel=9, note=42, velocity=0, time=3),
    Message('note_on', channel=9, note=42, velocity=96, time=45),
    Message('note_on', channel=9, note=42, velocity=0, time=3),
    Message('note_on', channel=9, note=42, velocity=127, time=45),
    Message('note_on', channel=9, note=42, velocity=0, time=3),
    Message('note_on', channel=9, note=42, velocity=96, time=44),
    Message('note_on', channel=9, note=42, velocity=0, time=3),
    Message('note_on', channel=9, note=42, velocity=127, time=46),
    Message('note_on', channel=9, note=42, velocity=0, time=3),
    Message('note_on', channel=9, note=42, velocity=96, time=44),
    Message('note_on', channel=9, note=42, velocity=0, time=3),
    Message('note_on', channel=9, note=42, velocity=127, time=46),
    Message('note_on', channel=9, note=42, velocity=0, time=3),
    Message('note_on', channel=9, note=42, velocity=96, time=44),
    Message('note_on', channel=9, note=42, velocity=0, time=3),
    Message('note_on', channel=9, note=42, velocity=127, time=46),
    Message('note_on', channel=9, note=42, velocity=0, time=3),
    Message('note_on', channel=9, note=42, velocity=96, time=45),
    Message('note_on', channel=9, note=42, velocity=0, time=3),
    Message('note_on', channel=9, note=42, velocity=127, time=45),
    Message('note_on', channel=9, note=42, velocity=0, time=3),
    Message('note_on', channel=9, note=42, velocity=96, time=45),
    Message('note_on', channel=9, note=42, velocity=0, time=3),
    Message('note_on', channel=9, note=42, velocity=127, time=45),
    Message('note_on', channel=9, note=42, velocity=0, time=3),
    Message('note_on', channel=9, note=42, velocity=96, time=45),
    Message('note_on', channel=9, note=42, velocity=0, time=3),
    Message('note_on', channel=9, note=42, velocity=127, time=45),
    Message('note_on', channel=9, note=42, velocity=0, time=3),
    Message('note_on', channel=9, note=42, velocity=96, time=45),
    Message('note_on', channel=9, note=42, velocity=0, time=3),
    Message('note_on', channel=9, note=42, velocity=127, time=45),
    Message('note_on', channel=9, note=42, velocity=0, time=3),
    Message('note_on', channel=9, note=42, velocity=96, time=45),
    Message('note_on', channel=9, note=42, velocity=0, time=3),
    Message('note_on', channel=9, note=42, velocity=127, time=45),
    Message('note_on', channel=9, note=42, velocity=0, time=3),
    Message('note_on', channel=9, note=42, velocity=96, time=45),
    Message('note_on', channel=9, note=42, velocity=0, time=3),
    Message('note_on', channel=9, note=42, velocity=127, time=45),
    Message('note_on', channel=9, note=42, velocity=0, time=3),
    Message('note_on', channel=9, note=42, velocity=96, time=45),
    Message('note_on', channel=9, note=42, velocity=0, time=3),
    Message('note_on', channel=9, note=42, velocity=127, time=45),
    Message('note_on', channel=9, note=42, velocity=0, time=3),
    Message('note_on', channel=9, note=42, velocity=96, time=45),
    Message('note_on', channel=9, note=42, velocity=0, time=3),
    Message('note_on', channel=9, note=42, velocity=127, time=45),
    Message('note_on', channel=9, note=42, velocity=0, time=3),
    Message('note_on', channel=9, note=42, velocity=96, time=45),
    Message('note_on', channel=9, note=42, velocity=0, time=3),
    Message('note_on', channel=9, note=42, velocity=127, time=45),
    Message('note_on', channel=9, note=42, velocity=0, time=3),
    Message('note_on', channel=9, note=42, velocity=96, time=44),
    Message('note_on', channel=9, note=42, velocity=0, time=4),
    Message('note_on', channel=9, note=42, velocity=127, time=45),
    Message('note_on', channel=9, note=42, velocity=0, time=3),
    Message('note_on', channel=9, note=42, velocity=96, time=45),
    Message('note_on', channel=9, note=42, velocity=0, time=3),
    Message('note_on', channel=9, note=42, velocity=127, time=45),
    Message('note_on', channel=9, note=42, velocity=0, time=3),
    Message('note_on', channel=9, note=42, velocity=96, time=45),
    Message('note_on', channel=9, note=42, velocity=0, time=3),
    Message('note_on', channel=9, note=42, velocity=127, time=45),
    Message('note_on', channel=9, note=42, velocity=0, time=3),
    Message('note_on', channel=9, note=42, velocity=96, time=45),
    Message('note_on', channel=9, note=42, velocity=0, time=3),
    Message('note_on', channel=9, note=42, velocity=127, time=45),
    Message('note_on', channel=9, note=42, velocity=0, time=3),
    Message('note_on', channel=9, note=42, velocity=96, time=45),
    Message('note_on', channel=9, note=42, velocity=0, time=3),
    Message('note_on', channel=9, note=42, velocity=127, time=45),
    Message('note_on', channel=9, note=42, velocity=0, time=3),
    Message('note_on', channel=9, note=42, velocity=96, time=45),
    Message('note_on', channel=9, note=42, velocity=0, time=3),
    Message('note_on', channel=9, note=42, velocity=127, time=45),
    Message('note_on', channel=9, note=42, velocity=0, time=3),
    Message('note_on', channel=9, note=42, velocity=96, time=44),
    Message('note_on', channel=9, note=42, velocity=0, time=3),
    Message('note_on', channel=9, note=42, velocity=127, time=46),
    Message('note_on', channel=9, note=42, velocity=0, time=3),
    Message('note_on', channel=9, note=42, velocity=96, time=45),
    Message('note_on', channel=9, note=42, velocity=0, time=3),
    Message('note_on', channel=9, note=42, velocity=127, time=45),
    Message('note_on', channel=9, note=42, velocity=0, time=3),
    Message('note_on', channel=9, note=42, velocity=96, time=45),
    Message('note_on', channel=9, note=42, velocity=0, time=3),
    Message('note_on', channel=9, note=42, velocity=127, time=45),
    Message('note_on', channel=9, note=42, velocity=0, time=3),
    Message('note_on', channel=9, note=42, velocity=96, time=45),
    Message('note_on', channel=9, note=42, velocity=0, time=3),
    Message('note_on', channel=9, note=42, velocity=127, time=45),
    Message('note_on', channel=9, note=42, velocity=0, time=3),
    Message('note_on', channel=9, note=42, velocity=96, time=44),
    Message('note_on', channel=9, note=42, velocity=0, time=4),
    Message('note_on', channel=9, note=42, velocity=127, time=45),
    Message('note_on', channel=9, note=42, velocity=0, time=3),
    Message('note_on', channel=9, note=42, velocity=96, time=44),
    Message('note_on', channel=9, note=42, velocity=0, time=4),
    Message('note_on', channel=9, note=42, velocity=127, time=45),
    Message('note_on', channel=9, note=42, velocity=0, time=3),
    Message('note_on', channel=9, note=42, velocity=96, time=44),
    Message('note_on', channel=9, note=42, velocity=0, time=4),
    Message('note_on', channel=9, note=42, velocity=127, time=45),
    Message('note_on', channel=9, note=42, velocity=0, time=3),
    Message('note_on', channel=9, note=42, velocity=127, time=93),
    Message('note_on', channel=9, note=42, velocity=0, time=3),
    Message('note_on', channel=9, note=42, velocity=96, time=45),
    Message('note_on', channel=9, note=42, velocity=0, time=3),
    Message('note_on', channel=9, note=42, velocity=127, time=45),
    Message('note_on', channel=9, note=42, velocity=0, time=3),
    Message('note_on', channel=9, note=42, velocity=96, time=45),
    Message('note_on', channel=9, note=42, velocity=0, time=3),
    Message('note_on', channel=9, note=42, velocity=127, time=45),
    Message('note_on', channel=9, note=42, velocity=0, time=3),
    Message('note_on', channel=9, note=42, velocity=96, time=45),
    Message('note_on', channel=9, note=42, velocity=0, time=3),
    Message('note_on', channel=9, note=42, velocity=127, time=45),
    Message('note_on', channel=9, note=42, velocity=0, time=3),
    Message('note_on', channel=9, note=42, velocity=96, time=45),
    Message('note_on', channel=9, note=42, velocity=0, time=3),
    Message('note_on', channel=9, note=42, velocity=127, time=45),
    Message('note_on', channel=9, note=42, velocity=0, time=3),
    Message('note_on', channel=9, note=42, velocity=96, time=44),
    Message('note_on', channel=9, note=42, velocity=0, time=4),
    Message('note_on', channel=9, note=42, velocity=127, time=45),
    Message('note_on', channel=9, note=42, velocity=0, time=3),
    Message('note_on', channel=9, note=42, velocity=96, time=44),
    Message('note_on', channel=9, note=42, velocity=0, time=4),
    Message('note_on', channel=9, note=42, velocity=127, time=44),
    Message('note_on', channel=9, note=42, velocity=0, time=4),
    Message('note_on', channel=9, note=42, velocity=96, time=44),
    Message('note_on', channel=9, note=42, velocity=0, time=4),
    Message('note_on', channel=9, note=42, velocity=127, time=45),
    Message('note_on', channel=9, note=42, velocity=0, time=3),
    Message('note_on', channel=9, note=42, velocity=96, time=44),
    Message('note_on', channel=9, note=42, velocity=0, time=4),
    Message('note_on', channel=9, note=42, velocity=127, time=45),
    Message('note_on', channel=9, note=42, velocity=0, time=3),
    Message('note_on', channel=9, note=42, velocity=96, time=44),
    Message('note_on', channel=9, note=42, velocity=0, time=4),
    Message('note_on', channel=9, note=42, velocity=127, time=45),
    Message('note_on', channel=9, note=42, velocity=0, time=3),
    Message('note_on', channel=9, note=42, velocity=96, time=45),
    Message('note_on', channel=9, note=42, velocity=0, time=3),
    Message('note_on', channel=9, note=42, velocity=127, time=45),
    Message('note_on', channel=9, note=42, velocity=0, time=3),
    Message('note_on', channel=9, note=42, velocity=96, time=44),
    Message('note_on', channel=9, note=42, velocity=0, time=3),
    Message('note_on', channel=9, note=42, velocity=127, time=46),
    Message('note_on', channel=9, note=42, velocity=0, time=3),
    Message('note_on', channel=9, note=42, velocity=96, time=44),
    Message('note_on', channel=9, note=42, velocity=0, time=4),
    Message('note_on', channel=9, note=42, velocity=127, time=45),
    Message('note_on', channel=9, note=42, velocity=0, time=3),
    Message('note_on', channel=9, note=42, velocity=96, time=44),
    Message('note_on', channel=9, note=42, velocity=0, time=3),
    Message('note_on', channel=9, note=42, velocity=127, time=46),
    Message('note_on', channel=9, note=42, velocity=0, time=3),
    Message('note_on', channel=9, note=42, velocity=96, time=44),
    Message('note_on', channel=9, note=42, velocity=0, time=3),
    Message('note_on', channel=9, note=42, velocity=127, time=46),
    Message('note_on', channel=9, note=42, velocity=0, time=3),
    Message('note_on', channel=9, note=42, velocity=96, time=44),
    Message('note_on', channel=9, note=42, velocity=0, time=3),
    Message('note_on', channel=9, note=42, velocity=127, time=46),
    Message('note_on', channel=9, note=42, velocity=0, time=3),
    Message('note_on', channel=9, note=42, velocity=96, time=44),
    Message('note_on', channel=9, note=42, velocity=0, time=3),
    Message('note_on', channel=9, note=42, velocity=127, time=46),
    Message('note_on', channel=9, note=42, velocity=0, time=3),
    Message('note_on', channel=9, note=42, velocity=96, time=44),
    Message('note_on', channel=9, note=42, velocity=0, time=4),
    Message('note_on', channel=9, note=42, velocity=127, time=45),
    Message('note_on', channel=9, note=42, velocity=0, time=3),
    Message('note_on', channel=9, note=42, velocity=96, time=45),
    Message('note_on', channel=9, note=42, velocity=0, time=3),
    Message('note_on', channel=9, note=42, velocity=127, time=45),
    Message('note_on', channel=9, note=42, velocity=0, time=3),
    Message('note_on', channel=9, note=42, velocity=96, time=44),
    Message('note_on', channel=9, note=42, velocity=0, time=4),
    Message('note_on', channel=9, note=42, velocity=127, time=45),
    Message('note_on', channel=9, note=42, velocity=0, time=3),
    Message('note_on', channel=9, note=42, velocity=96, time=44),
    Message('note_on', channel=9, note=42, velocity=0, time=4),
    Message('note_on', channel=9, note=42, velocity=127, time=45),
    Message('note_on', channel=9, note=42, velocity=0, time=3),
    Message('note_on', channel=9, note=42, velocity=96, time=44),
    Message('note_on', channel=9, note=42, velocity=0, time=3),
    Message('note_on', channel=9, note=42, velocity=127, time=46),
    Message('note_on', channel=9, note=42, velocity=0, time=3),
    Message('note_on', channel=9, note=42, velocity=96, time=44),
    Message('note_on', channel=9, note=42, velocity=0, time=4),
    Message('note_on', channel=9, note=42, velocity=127, time=45),
    Message('note_on', channel=9, note=42, velocity=0, time=3),
    Message('note_on', channel=9, note=42, velocity=96, time=44),
    Message('note_on', channel=9, note=42, velocity=0, time=3),
    Message('note_on', channel=9, note=42, velocity=127, time=45),
    Message('note_on', channel=9, note=42, velocity=0, time=4),
    Message('note_on', channel=9, note=42, velocity=96, time=44),
    Message('note_on', channel=9, note=42, velocity=0, time=4),
    Message('note_on', channel=9, note=42, velocity=127, time=45),
    Message('note_on', channel=9, note=42, velocity=0, time=3),
    Message('note_on', channel=9, note=42, velocity=96, time=44),
    Message('note_on', channel=9, note=42, velocity=0, time=4),
    Message('note_on', channel=9, note=42, velocity=127, time=45),
    Message('note_on', channel=9, note=42, velocity=0, time=3),
    Message('note_on', channel=9, note=42, velocity=96, time=45),
    Message('note_on', channel=9, note=42, velocity=0, time=3),
    Message('note_on', channel=9, note=42, velocity=127, time=45),
    Message('note_on', channel=9, note=42, velocity=0, time=3),
    Message('note_on', channel=9, note=42, velocity=96, time=44),
    Message('note_on', channel=9, note=42, velocity=0, time=4),
    Message('note_on', channel=9, note=42, velocity=127, time=45),
    Message('note_on', channel=9, note=42, velocity=0, time=3),
    Message('note_on', channel=9, note=42, velocity=96, time=44),
    Message('note_on', channel=9, note=42, velocity=0, time=4),
    Message('note_on', channel=9, note=42, velocity=127, time=45),
    Message('note_on', channel=9, note=42, velocity=0, time=3),
    Message('note_on', channel=9, note=42, velocity=96, time=44),
    Message('note_on', channel=9, note=42, velocity=0, time=4),
    Message('note_on', channel=9, note=42, velocity=127, time=45),
    Message('note_on', channel=9, note=42, velocity=0, time=3),
    Message('note_on', channel=9, note=42, velocity=96, time=44),
    Message('note_on', channel=9, note=42, velocity=0, time=4),
    Message('note_on', channel=9, note=42, velocity=127, time=45),
    Message('note_on', channel=9, note=42, velocity=0, time=3),
    Message('note_on', channel=9, note=42, velocity=96, time=44),
    Message('note_on', channel=9, note=42, velocity=0, time=3),
    Message('note_on', channel=9, note=42, velocity=127, time=46),
    Message('note_on', channel=9, note=42, velocity=0, time=3),
    Message('note_on', channel=9, note=42, velocity=96, time=44),
    Message('note_on', channel=9, note=42, velocity=0, time=3),
    Message('note_on', channel=9, note=42, velocity=127, time=46),
    Message('note_on', channel=9, note=42, velocity=0, time=3),
    Message('note_on', channel=9, note=42, velocity=96, time=44),
    Message('note_on', channel=9, note=42, velocity=0, time=3),
    Message('note_on', channel=9, note=42, velocity=127, time=46),
    Message('note_on', channel=9, note=42, velocity=0, time=3),
    Message('note_on', channel=9, note=42, velocity=96, time=44),
    Message('note_on', channel=9, note=42, velocity=0, time=4),
    Message('note_on', channel=9, note=42, velocity=127, time=45),
    Message('note_on', channel=9, note=42, velocity=0, time=3),
    Message('note_on', channel=9, note=42, velocity=96, time=44),
    Message('note_on', channel=9, note=42, velocity=0, time=3),
    Message('note_on', channel=9, note=42, velocity=127, time=46),
    Message('note_on', channel=9, note=42, velocity=0, time=3),
    Message('note_on', channel=9, note=42, velocity=96, time=44),
    Message('note_on', channel=9, note=42, velocity=0, time=3),
    Message('note_on', channel=9, note=42, velocity=127, time=46),
    Message('note_on', channel=9, note=42, velocity=0, time=3),
    Message('note_on', channel=9, note=42, velocity=96, time=44),
    Message('note_on', channel=9, note=42, velocity=0, time=3),
    Message('note_on', channel=9, note=42, velocity=127, time=46),
    Message('note_on', channel=9, note=42, velocity=0, time=3),
    Message('note_on', channel=9, note=42, velocity=96, time=44),
    Message('note_on', channel=9, note=42, velocity=0, time=4),
    Message('note_on', channel=9, note=42, velocity=127, time=45),
    Message('note_on', channel=9, note=42, velocity=0, time=3),
    Message('note_on', channel=9, note=42, velocity=96, time=44),
    Message('note_on', channel=9, note=42, velocity=0, time=3),
    Message('note_on', channel=9, note=42, velocity=127, time=46),
    Message('note_on', channel=9, note=42, velocity=0, time=3),
    Message('note_on', channel=9, note=42, velocity=96, time=44),
    Message('note_on', channel=9, note=42, velocity=0, time=4),
    Message('note_on', channel=9, note=42, velocity=127, time=45),
    Message('note_on', channel=9, note=42, velocity=0, time=3),
    Message('note_on', channel=9, note=42, velocity=96, time=44),
    Message('note_on', channel=9, note=42, velocity=0, time=3),
    Message('note_on', channel=9, note=42, velocity=127, time=46),
    Message('note_on', channel=9, note=42, velocity=0, time=3),
    Message('note_on', channel=9, note=42, velocity=96, time=45),
    Message('note_on', channel=9, note=42, velocity=0, time=3),
    Message('note_on', channel=9, note=42, velocity=127, time=45),
    Message('note_on', channel=9, note=42, velocity=0, time=3),
    Message('note_on', channel=9, note=42, velocity=96, time=44),
    Message('note_on', channel=9, note=42, velocity=0, time=4),
    Message('note_on', channel=9, note=42, velocity=127, time=45),
    Message('note_on', channel=9, note=42, velocity=0, time=3),
    Message('note_on', channel=9, note=42, velocity=96, time=44),
    Message('note_on', channel=9, note=42, velocity=0, time=4),
    Message('note_on', channel=9, note=42, velocity=127, time=44),
    Message('note_on', channel=9, note=42, velocity=0, time=4),
    Message('note_on', channel=9, note=42, velocity=96, time=44),
    Message('note_on', channel=9, note=42, velocity=0, time=3),
    Message('note_on', channel=9, note=42, velocity=127, time=46),
    Message('note_on', channel=9, note=42, velocity=0, time=3),
    Message('note_on', channel=9, note=42, velocity=96, time=44),
    Message('note_on', channel=9, note=42, velocity=0, time=4),
    Message('note_on', channel=9, note=42, velocity=127, time=45),
    Message('note_on', channel=9, note=42, velocity=0, time=3),
    Message('note_on', channel=9, note=42, velocity=96, time=44),
    Message('note_on', channel=9, note=42, velocity=0, time=4),
    Message('note_on', channel=9, note=42, velocity=127, time=45),
    Message('note_on', channel=9, note=42, velocity=0, time=3),
    Message('note_on', channel=9, note=42, velocity=96, time=44),
    Message('note_on', channel=9, note=42, velocity=0, time=4),
    Message('note_on', channel=9, note=42, velocity=127, time=45),
    Message('note_on', channel=9, note=42, velocity=0, time=3),
    Message('note_on', channel=9, note=42, velocity=96, time=44),
    Message('note_on', channel=9, note=42, velocity=0, time=4),
    Message('note_on', channel=9, note=42, velocity=127, time=45),
    Message('note_on', channel=9, note=42, velocity=0, time=3),
    Message('note_on', channel=9, note=42, velocity=96, time=45),
    Message('note_on', channel=9, note=42, velocity=0, time=3),
    Message('note_on', channel=9, note=42, velocity=127, time=45),
    Message('note_on', channel=9, note=42, velocity=0, time=3),
    Message('note_on', channel=9, note=42, velocity=96, time=44),
    Message('note_on', channel=9, note=42, velocity=0, time=4),
    Message('note_on', channel=9, note=42, velocity=127, time=45),
    Message('note_on', channel=9, note=42, velocity=0, time=3),
    Message('note_on', channel=9, note=42, velocity=96, time=44),
    Message('note_on', channel=9, note=42, velocity=0, time=4),
    Message('note_on', channel=9, note=42, velocity=127, time=45),
    Message('note_on', channel=9, note=42, velocity=0, time=3),
    Message('note_on', channel=9, note=42, velocity=96, time=44),
    Message('note_on', channel=9, note=42, velocity=0, time=3),
    Message('note_on', channel=9, note=42, velocity=127, time=46),
    Message('note_on', channel=9, note=42, velocity=0, time=3),
    Message('note_on', channel=9, note=42, velocity=96, time=44),
    Message('note_on', channel=9, note=42, velocity=0, time=3),
    Message('note_on', channel=9, note=42, velocity=127, time=46),
    Message('note_on', channel=9, note=42, velocity=0, time=3),
    Message('note_on', channel=9, note=42, velocity=96, time=44),
    Message('note_on', channel=9, note=42, velocity=0, time=3),
    Message('note_on', channel=9, note=42, velocity=127, time=46),
    Message('note_on', channel=9, note=42, velocity=0, time=3),
    Message('note_on', channel=9, note=42, velocity=96, time=44),
    Message('note_on', channel=9, note=42, velocity=0, time=3),
    Message('note_on', channel=9, note=42, velocity=127, time=46),
    Message('note_on', channel=9, note=42, velocity=0, time=3),
    Message('note_on', channel=9, note=42, velocity=96, time=44),
    Message('note_on', channel=9, note=42, velocity=0, time=4),
    Message('note_on', channel=9, note=42, velocity=127, time=45),
    Message('note_on', channel=9, note=42, velocity=0, time=3),
    Message('note_on', channel=9, note=42, velocity=96, time=45),
    Message('note_on', channel=9, note=42, velocity=0, time=3),
    Message('note_on', channel=9, note=42, velocity=127, time=45),
    Message('note_on', channel=9, note=42, velocity=0, time=3),
    Message('note_on', channel=9, note=42, velocity=96, time=44),
    Message('note_on', channel=9, note=42, velocity=0, time=4),
    Message('note_on', channel=9, note=42, velocity=127, time=45),
    Message('note_on', channel=9, note=42, velocity=0, time=3),
    Message('note_on', channel=9, note=42, velocity=96, time=44),
    Message('note_on', channel=9, note=42, velocity=0, time=4),
    Message('note_on', channel=9, note=42, velocity=127, time=45),
    Message('note_on', channel=9, note=42, velocity=0, time=3),
    Message('note_on', channel=9, note=42, velocity=96, time=44),
    Message('note_on', channel=9, note=42, velocity=0, time=3),
    Message('note_on', channel=9, note=42, velocity=127, time=46),
    Message('note_on', channel=9, note=42, velocity=0, time=3),
    Message('note_on', channel=9, note=42, velocity=96, time=44),
    Message('note_on', channel=9, note=42, velocity=0, time=3),
    Message('note_on', channel=9, note=42, velocity=127, time=46),
    Message('note_on', channel=9, note=42, velocity=0, time=3),
    Message('note_on', channel=9, note=42, velocity=96, time=44),
    Message('note_on', channel=9, note=42, velocity=0, time=3),
    Message('note_on', channel=9, note=42, velocity=127, time=46),
    Message('note_on', channel=9, note=42, velocity=0, time=3),
    Message('note_on', channel=9, note=42, velocity=127, time=93),
    Message('note_on', channel=9, note=42, velocity=0, time=3),
    Message('note_on', channel=9, note=42, velocity=96, time=44),
    Message('note_on', channel=9, note=42, velocity=0, time=4),
    Message('note_on', channel=9, note=42, velocity=127, time=45),
    Message('note_on', channel=9, note=42, velocity=0, time=3),
    Message('note_on', channel=9, note=42, velocity=96, time=44),
    Message('note_on', channel=9, note=42, velocity=0, time=4),
    Message('note_on', channel=9, note=42, velocity=127, time=45),
    Message('note_on', channel=9, note=42, velocity=0, time=3),
    Message('note_on', channel=9, note=42, velocity=96, time=45),
    Message('note_on', channel=9, note=42, velocity=0, time=3),
    Message('note_on', channel=9, note=42, velocity=127, time=45),
    Message('note_on', channel=9, note=42, velocity=0, time=3),
    Message('note_on', channel=9, note=42, velocity=96, time=45),
    Message('note_on', channel=9, note=42, velocity=0, time=3),
    Message('note_on', channel=9, note=42, velocity=127, time=45),
    Message('note_on', channel=9, note=42, velocity=0, time=3),
    Message('note_on', channel=9, note=42, velocity=96, time=44),
    Message('note_on', channel=9, note=42, velocity=0, time=3),
    Message('note_on', channel=9, note=42, velocity=127, time=46),
    Message('note_on', channel=9, note=42, velocity=0, time=3),
    Message('note_on', channel=9, note=42, velocity=96, time=44),
    Message('note_on', channel=9, note=42, velocity=0, time=4),
    Message('note_on', channel=9, note=42, velocity=127, time=45),
    Message('note_on', channel=9, note=42, velocity=0, time=3),
    Message('note_on', channel=9, note=42, velocity=96, time=44),
    Message('note_on', channel=9, note=42, velocity=0, time=4),
    Message('note_on', channel=9, note=42, velocity=127, time=45),
    Message('note_on', channel=9, note=42, velocity=0, time=3),
    Message('note_on', channel=9, note=42, velocity=96, time=44),
    Message('note_on', channel=9, note=42, velocity=0, time=4),
    Message('note_on', channel=9, note=42, velocity=127, time=45),
    Message('note_on', channel=9, note=42, velocity=0, time=3),
    Message('note_on', channel=9, note=42, velocity=96, time=44),
    Message('note_on', channel=9, note=42, velocity=0, time=3),
    Message('note_on', channel=9, note=42, velocity=127, time=46),
    Message('note_on', channel=9, note=42, velocity=0, time=3),
    Message('note_on', channel=9, note=42, velocity=96, time=45),
    Message('note_on', channel=9, note=42, velocity=0, time=3),
    Message('note_on', channel=9, note=42, velocity=127, time=44),
    Message('note_on', channel=9, note=42, velocity=0, time=4),
    Message('note_on', channel=9, note=42, velocity=96, time=44),
    Message('note_on', channel=9, note=42, velocity=0, time=4),
    Message('note_on', channel=9, note=42, velocity=127, time=45),
    Message('note_on', channel=9, note=42, velocity=0, time=3),
    Message('note_on', channel=9, note=42, velocity=96, time=44),
    Message('note_on', channel=9, note=42, velocity=0, time=4),
    Message('note_on', channel=9, note=42, velocity=127, time=45),
    Message('note_on', channel=9, note=42, velocity=0, time=3),
    Message('note_on', channel=9, note=42, velocity=96, time=44),
    Message('note_on', channel=9, note=42, velocity=0, time=4),
    Message('note_on', channel=9, note=42, velocity=127, time=45),
    Message('note_on', channel=9, note=42, velocity=0, time=3),
    Message('note_on', channel=9, note=42, velocity=96, time=44),
    Message('note_on', channel=9, note=42, velocity=0, time=4),
    Message('note_on', channel=9, note=42, velocity=127, time=45),
    Message('note_on', channel=9, note=42, velocity=0, time=3),
    Message('note_on', channel=9, note=42, velocity=96, time=44),
    Message('note_on', channel=9, note=42, velocity=0, time=4),
    Message('note_on', channel=9, note=42, velocity=127, time=45),
    Message('note_on', channel=9, note=42, velocity=0, time=3),
    Message('note_on', channel=9, note=42, velocity=96, time=44),
    Message('note_on', channel=9, note=42, velocity=0, time=4),
    Message('note_on', channel=9, note=42, velocity=127, time=45),
    Message('note_on', channel=9, note=42, velocity=0, time=3),
    Message('note_on', channel=9, note=42, velocity=96, time=44),
    Message('note_on', channel=9, note=42, velocity=0, time=4),
    Message('note_on', channel=9, note=42, velocity=127, time=45),
    Message('note_on', channel=9, note=42, velocity=0, time=3),
    Message('note_on', channel=9, note=42, velocity=96, time=45),
    Message('note_on', channel=9, note=42, velocity=0, time=3),
    Message('note_on', channel=9, note=42, velocity=127, time=45),
    Message('note_on', channel=9, note=42, velocity=0, time=3),
    Message('note_on', channel=9, note=42, velocity=96, time=44),
    Message('note_on', channel=9, note=42, velocity=0, time=3),
    Message('note_on', channel=9, note=42, velocity=127, time=46),
    Message('note_on', channel=9, note=42, velocity=0, time=3),
    Message('note_on', channel=9, note=42, velocity=96, time=44),
    Message('note_on', channel=9, note=42, velocity=0, time=4),
    Message('note_on', channel=9, note=42, velocity=127, time=45),
    Message('note_on', channel=9, note=42, velocity=0, time=3),
    Message('note_on', channel=9, note=42, velocity=96, time=44),
    Message('note_on', channel=9, note=42, velocity=0, time=3),
    Message('note_on', channel=9, note=42, velocity=127, time=46),
    Message('note_on', channel=9, note=42, velocity=0, time=3),
    Message('note_on', channel=9, note=42, velocity=96, time=44),
    Message('note_on', channel=9, note=42, velocity=0, time=4),
    Message('note_on', channel=9, note=42, velocity=127, time=45),
    Message('note_on', channel=9, note=42, velocity=0, time=3),
    Message('note_on', channel=9, note=42, velocity=96, time=44),
    Message('note_on', channel=9, note=42, velocity=0, time=4),
    Message('note_on', channel=9, note=42, velocity=127, time=45),
    Message('note_on', channel=9, note=42, velocity=0, time=3),
    Message('note_on', channel=9, note=42, velocity=96, time=44),
    Message('note_on', channel=9, note=42, velocity=0, time=3),
    Message('note_on', channel=9, note=42, velocity=127, time=46),
    Message('note_on', channel=9, note=42, velocity=0, time=3),
    Message('note_on', channel=9, note=42, velocity=96, time=44),
    Message('note_on', channel=9, note=42, velocity=0, time=4),
    Message('note_on', channel=9, note=42, velocity=127, time=45),
    Message('note_on', channel=9, note=42, velocity=0, time=3),
    Message('note_on', channel=9, note=42, velocity=96, time=45),
    Message('note_on', channel=9, note=42, velocity=0, time=3),
    Message('note_on', channel=9, note=42, velocity=127, time=45),
    Message('note_on', channel=9, note=42, velocity=0, time=3),
    Message('note_on', channel=9, note=42, velocity=96, time=44),
    Message('note_on', channel=9, note=42, velocity=0, time=4),
    Message('note_on', channel=9, note=42, velocity=127, time=44),
    Message('note_on', channel=9, note=42, velocity=0, time=4),
    Message('note_on', channel=9, note=42, velocity=96, time=44),
    Message('note_on', channel=9, note=42, velocity=0, time=4),
    Message('note_on', channel=9, note=42, velocity=127, time=45),
    Message('note_on', channel=9, note=42, velocity=0, time=3),
    Message('note_on', channel=9, note=42, velocity=96, time=44),
    Message('note_on', channel=9, note=42, velocity=0, time=3),
    Message('note_on', channel=9, note=42, velocity=127, time=46),
    Message('note_on', channel=9, note=42, velocity=0, time=3),
    Message('note_on', channel=9, note=42, velocity=96, time=44),
    Message('note_on', channel=9, note=42, velocity=0, time=4),
    Message('note_on', channel=9, note=42, velocity=127, time=45),
    Message('note_on', channel=9, note=42, velocity=0, time=3),
    Message('note_on', channel=9, note=42, velocity=96, time=44),
    Message('note_on', channel=9, note=42, velocity=0, time=4),
    Message('note_on', channel=9, note=42, velocity=127, time=44),
    Message('note_on', channel=9, note=42, velocity=0, time=4),
    Message('note_on', channel=9, note=42, velocity=96, time=44),
    Message('note_on', channel=9, note=42, velocity=0, time=4),
    Message('note_on', channel=9, note=42, velocity=127, time=45),
    Message('note_on', channel=9, note=42, velocity=0, time=3),
    Message('note_on', channel=9, note=42, velocity=96, time=44),
    Message('note_on', channel=9, note=42, velocity=0, time=4),
    Message('note_on', channel=9, note=42, velocity=127, time=45),
    Message('note_on', channel=9, note=42, velocity=0, time=3),
    Message('note_on', channel=9, note=42, velocity=96, time=45),
    Message('note_on', channel=9, note=42, velocity=0, time=3),
    Message('note_on', channel=9, note=42, velocity=127, time=45),
    Message('note_on', channel=9, note=42, velocity=0, time=3),
    Message('note_on', channel=9, note=42, velocity=96, time=44),
    Message('note_on', channel=9, note=42, velocity=0, time=4),
    Message('note_on', channel=9, note=42, velocity=127, time=45),
    Message('note_on', channel=9, note=42, velocity=0, time=3),
    Message('note_on', channel=9, note=42, velocity=96, time=45),
    Message('note_on', channel=9, note=42, velocity=0, time=3),
    Message('note_on', channel=9, note=42, velocity=127, time=45),
    Message('note_on', channel=9, note=42, velocity=0, time=3),
    Message('note_on', channel=9, note=42, velocity=96, time=44),
    Message('note_on', channel=9, note=42, velocity=0, time=4),
    Message('note_on', channel=9, note=42, velocity=127, time=45),
    Message('note_on', channel=9, note=42, velocity=0, time=3),
    Message('note_on', channel=9, note=42, velocity=96, time=44),
    Message('note_on', channel=9, note=42, velocity=0, time=4),
    Message('note_on', channel=9, note=42, velocity=127, time=45),
    Message('note_on', channel=9, note=42, velocity=0, time=3),
    Message('note_on', channel=9, note=42, velocity=96, time=44),
    Message('note_on', channel=9, note=42, velocity=0, time=4),
    Message('note_on', channel=9, note=42, velocity=127, time=45),
    Message('note_on', channel=9, note=42, velocity=0, time=3),
    Message('note_on', channel=9, note=42, velocity=96, time=44),
    Message('note_on', channel=9, note=42, velocity=0, time=4),
    Message('note_on', channel=9, note=42, velocity=127, time=45),
    Message('note_on', channel=9, note=42, velocity=0, time=3),
    Message('note_on', channel=9, note=42, velocity=96, time=44),
    Message('note_on', channel=9, note=42, velocity=0, time=4),
    Message('note_on', channel=9, note=42, velocity=127, time=45),
    Message('note_on', channel=9, note=42, velocity=0, time=3),
    Message('note_on', channel=9, note=42, velocity=96, time=45),
    Message('note_on', channel=9, note=42, velocity=0, time=3),
    Message('note_on', channel=9, note=42, velocity=127, time=45),
    Message('note_on', channel=9, note=42, velocity=0, time=3),
    Message('note_on', channel=9, note=42, velocity=96, time=44),
    Message('note_on', channel=9, note=42, velocity=0, time=4),
    Message('note_on', channel=9, note=42, velocity=127, time=45),
    Message('note_on', channel=9, note=42, velocity=0, time=3),
    Message('note_on', channel=9, note=42, velocity=96, time=44),
    Message('note_on', channel=9, note=42, velocity=0, time=4),
    Message('note_on', channel=9, note=42, velocity=127, time=45),
    Message('note_on', channel=9, note=42, velocity=0, time=3),
    Message('note_on', channel=9, note=42, velocity=96, time=44),
    Message('note_on', channel=9, note=42, velocity=0, time=4),
    Message('note_on', channel=9, note=42, velocity=127, time=45),
    Message('note_on', channel=9, note=42, velocity=0, time=3),
    Message('note_on', channel=9, note=42, velocity=96, time=44),
    Message('note_on', channel=9, note=42, velocity=0, time=4),
    Message('note_on', channel=9, note=42, velocity=127, time=45),
    Message('note_on', channel=9, note=42, velocity=0, time=3),
    Message('note_on', channel=9, note=42, velocity=96, time=44),
    Message('note_on', channel=9, note=42, velocity=0, time=4),
    Message('note_on', channel=9, note=42, velocity=127, time=45),
    Message('note_on', channel=9, note=42, velocity=0, time=3),
    Message('note_on', channel=9, note=42, velocity=96, time=44),
    Message('note_on', channel=9, note=42, velocity=0, time=4),
    Message('note_on', channel=9, note=42, velocity=127, time=44),
    Message('note_on', channel=9, note=42, velocity=0, time=3),
    Message('note_on', channel=9, note=42, velocity=96, time=45),
    Message('note_on', channel=9, note=42, velocity=0, time=4),
    Message('note_on', channel=9, note=42, velocity=127, time=45),
    Message('note_on', channel=9, note=42, velocity=0, time=3),
    Message('note_on', channel=9, note=42, velocity=96, time=45),
    Message('note_on', channel=9, note=42, velocity=0, time=3),
    Message('note_on', channel=9, note=42, velocity=127, time=45),
    Message('note_on', channel=9, note=42, velocity=0, time=3),
    Message('note_on', channel=9, note=42, velocity=96, time=44),
    Message('note_on', channel=9, note=42, velocity=0, time=4),
    Message('note_on', channel=9, note=42, velocity=127, time=44),
    Message('note_on', channel=9, note=42, velocity=0, time=4),
    Message('note_on', channel=9, note=42, velocity=96, time=44),
    Message('note_on', channel=9, note=42, velocity=0, time=4),
    Message('note_on', channel=9, note=42, velocity=127, time=45),
    Message('note_on', channel=9, note=42, velocity=0, time=3),
    Message('note_on', channel=9, note=42, velocity=96, time=44),
    Message('note_on', channel=9, note=42, velocity=0, time=4),
    Message('note_on', channel=9, note=42, velocity=127, time=45),
    Message('note_on', channel=9, note=42, velocity=0, time=3),
    Message('note_on', channel=9, note=42, velocity=96, time=44),
    Message('note_on', channel=9, note=42, velocity=0, time=4),
    Message('note_on', channel=9, note=42, velocity=127, time=45),
    Message('note_on', channel=9, note=42, velocity=0, time=3),
    Message('note_on', channel=9, note=42, velocity=96, time=44),
    Message('note_on', channel=9, note=42, velocity=0, time=4),
    Message('note_on', channel=9, note=42, velocity=127, time=45),
    Message('note_on', channel=9, note=42, velocity=0, time=3),
    Message('note_on', channel=9, note=42, velocity=96, time=44),
    Message('note_on', channel=9, note=42, velocity=0, time=4),
    Message('note_on', channel=9, note=42, velocity=127, time=45),
    Message('note_on', channel=9, note=42, velocity=0, time=3),
    Message('note_on', channel=9, note=42, velocity=96, time=44),
    Message('note_on', channel=9, note=42, velocity=0, time=4),
    Message('note_on', channel=9, note=42, velocity=127, time=45),
    Message('note_on', channel=9, note=42, velocity=0, time=3),
    Message('note_on', channel=9, note=42, velocity=96, time=45),
    Message('note_on', channel=9, note=42, velocity=0, time=3),
    Message('note_on', channel=9, note=42, velocity=127, time=45),
    Message('note_on', channel=9, note=42, velocity=0, time=3),
    Message('note_on', channel=9, note=42, velocity=96, time=44),
    Message('note_on', channel=9, note=42, velocity=0, time=4),
    Message('note_on', channel=9, note=42, velocity=127, time=45),
    Message('note_on', channel=9, note=42, velocity=0, time=3),
    Message('note_on', channel=9, note=42, velocity=96, time=44),
    Message('note_on', channel=9, note=42, velocity=0, time=4),
    Message('note_on', channel=9, note=42, velocity=127, time=45),
    Message('note_on', channel=9, note=42, velocity=0, time=3),
    Message('note_on', channel=9, note=42, velocity=96, time=44),
    Message('note_on', channel=9, note=42, velocity=0, time=4),
    Message('note_on', channel=9, note=42, velocity=127, time=45),
    Message('note_on', channel=9, note=42, velocity=0, time=3),
    Message('note_on', channel=9, note=42, velocity=96, time=44),
    Message('note_on', channel=9, note=42, velocity=0, time=4),
    Message('note_on', channel=9, note=42, velocity=127, time=45),
    Message('note_on', channel=9, note=42, velocity=0, time=3),
    Message('note_on', channel=9, note=42, velocity=96, time=44),
    Message('note_on', channel=9, note=42, velocity=0, time=4),
    Message('note_on', channel=9, note=42, velocity=127, time=45),
    Message('note_on', channel=9, note=42, velocity=0, time=3),
    Message('note_on', channel=9, note=42, velocity=127, time=93),
    Message('note_on', channel=9, note=42, velocity=0, time=3),
    Message('note_on', channel=9, note=42, velocity=96, time=44),
    Message('note_on', channel=9, note=42, velocity=0, time=4),
    Message('note_on', channel=9, note=42, velocity=127, time=44),
    Message('note_on', channel=9, note=42, velocity=0, time=4),
    Message('note_on', channel=9, note=42, velocity=96, time=45),
    Message('note_on', channel=9, note=42, velocity=0, time=3),
    Message('note_on', channel=9, note=42, velocity=127, time=45),
    Message('note_on', channel=9, note=42, velocity=0, time=3),
    Message('note_on', channel=9, note=42, velocity=96, time=45),
    Message('note_on', channel=9, note=42, velocity=0, time=3),
    Message('note_on', channel=9, note=42, velocity=127, time=45),
    Message('note_on', channel=9, note=42, velocity=0, time=3),
    Message('note_on', channel=9, note=42, velocity=96, time=45),
    Message('note_on', channel=9, note=42, velocity=0, time=3),
    Message('note_on', channel=9, note=42, velocity=127, time=45),
    Message('note_on', channel=9, note=42, velocity=0, time=3),
    Message('note_on', channel=9, note=42, velocity=96, time=44),
    Message('note_on', channel=9, note=42, velocity=0, time=3),
    Message('note_on', channel=9, note=42, velocity=127, time=46),
    Message('note_on', channel=9, note=42, velocity=0, time=3),
    Message('note_on', channel=9, note=42, velocity=96, time=44),
    Message('note_on', channel=9, note=42, velocity=0, time=4),
    Message('note_on', channel=9, note=42, velocity=127, time=45),
    Message('note_on', channel=9, note=42, velocity=0, time=3),
    Message('note_on', channel=9, note=42, velocity=96, time=44),
    Message('note_on', channel=9, note=42, velocity=0, time=3),
    Message('note_on', channel=9, note=42, velocity=127, time=46),
    Message('note_on', channel=9, note=42, velocity=0, time=3),
    Message('note_on', channel=9, note=42, velocity=96, time=44),
    Message('note_on', channel=9, note=42, velocity=0, time=4),
    Message('note_on', channel=9, note=42, velocity=127, time=45),
    Message('note_on', channel=9, note=42, velocity=0, time=3),
    Message('note_on', channel=9, note=42, velocity=96, time=44),
    Message('note_on', channel=9, note=42, velocity=0, time=4),
    Message('note_on', channel=9, note=42, velocity=127, time=45),
    Message('note_on', channel=9, note=42, velocity=0, time=3),
    Message('note_on', channel=9, note=42, velocity=96, time=45),
    Message('note_on', channel=9, note=42, velocity=0, time=3),
    Message('note_on', channel=9, note=42, velocity=127, time=45),
    Message('note_on', channel=9, note=42, velocity=0, time=3),
    Message('note_on', channel=9, note=42, velocity=96, time=44),
    Message('note_on', channel=9, note=42, velocity=0, time=4),
    Message('note_on', channel=9, note=42, velocity=127, time=45),
    Message('note_on', channel=9, note=42, velocity=0, time=3),
    Message('note_on', channel=9, note=42, velocity=96, time=44),
    Message('note_on', channel=9, note=42, velocity=0, time=4),
    Message('note_on', channel=9, note=42, velocity=127, time=45),
    Message('note_on', channel=9, note=42, velocity=0, time=3),
    Message('note_on', channel=9, note=42, velocity=96, time=44),
    Message('note_on', channel=9, note=42, velocity=0, time=3),
    Message('note_on', channel=9, note=42, velocity=127, time=46),
    Message('note_on', channel=9, note=42, velocity=0, time=3),
    Message('note_on', channel=9, note=42, velocity=96, time=44),
    Message('note_on', channel=9, note=42, velocity=0, time=3),
    Message('note_on', channel=9, note=42, velocity=127, time=46),
    Message('note_on', channel=9, note=42, velocity=0, time=3),
    Message('note_on', channel=9, note=42, velocity=96, time=44),
    Message('note_on', channel=9, note=42, velocity=0, time=3),
    Message('note_on', channel=9, note=42, velocity=127, time=46),
    Message('note_on', channel=9, note=42, velocity=0, time=3),
    Message('note_on', channel=9, note=42, velocity=96, time=44),
    Message('note_on', channel=9, note=42, velocity=0, time=3),
    Message('note_on', channel=9, note=42, velocity=127, time=46),
    Message('note_on', channel=9, note=42, velocity=0, time=3),
    Message('note_on', channel=9, note=42, velocity=96, time=44),
    Message('note_on', channel=9, note=42, velocity=0, time=3),
    Message('note_on', channel=9, note=42, velocity=127, time=46),
    Message('note_on', channel=9, note=42, velocity=0, time=3),
    Message('note_on', channel=9, note=42, velocity=96, time=45),
    Message('note_on', channel=9, note=42, velocity=0, time=3),
    Message('note_on', channel=9, note=42, velocity=127, time=45),
    Message('note_on', channel=9, note=42, velocity=0, time=3),
    Message('note_on', channel=9, note=42, velocity=96, time=44),
    Message('note_on', channel=9, note=42, velocity=0, time=3),
    Message('note_on', channel=9, note=42, velocity=127, time=46),
    Message('note_on', channel=9, note=42, velocity=0, time=3),
    Message('note_on', channel=9, note=42, velocity=96, time=44),
    Message('note_on', channel=9, note=42, velocity=0, time=3),
    Message('note_on', channel=9, note=42, velocity=127, time=46),
    Message('note_on', channel=9, note=42, velocity=0, time=3),
    Message('note_on', channel=9, note=42, velocity=96, time=45),
    Message('note_on', channel=9, note=42, velocity=0, time=3),
    Message('note_on', channel=9, note=42, velocity=127, time=45),
    Message('note_on', channel=9, note=42, velocity=0, time=3),
    Message('note_on', channel=9, note=42, velocity=96, time=44),
    Message('note_on', channel=9, note=42, velocity=0, time=4),
    Message('note_on', channel=9, note=42, velocity=127, time=45),
    Message('note_on', channel=9, note=42, velocity=0, time=3),
    Message('note_on', channel=9, note=42, velocity=96, time=45),
    Message('note_on', channel=9, note=42, velocity=0, time=3),
    Message('note_on', channel=9, note=42, velocity=127, time=45),
    Message('note_on', channel=9, note=42, velocity=0, time=3),
    Message('note_on', channel=9, note=42, velocity=96, time=45),
    Message('note_on', channel=9, note=42, velocity=0, time=3),
    Message('note_on', channel=9, note=42, velocity=127, time=45),
    Message('note_on', channel=9, note=42, velocity=0, time=3),
    Message('note_on', channel=9, note=42, velocity=96, time=44),
    Message('note_on', channel=9, note=42, velocity=0, time=3),
    Message('note_on', channel=9, note=42, velocity=127, time=46),
    Message('note_on', channel=9, note=42, velocity=0, time=3),
    Message('note_on', channel=9, note=42, velocity=96, time=45),
    Message('note_on', channel=9, note=42, velocity=0, time=3),
    Message('note_on', channel=9, note=42, velocity=127, time=45),
    Message('note_on', channel=9, note=42, velocity=0, time=3),
    Message('note_on', channel=9, note=42, velocity=96, time=44),
    Message('note_on', channel=9, note=42, velocity=0, time=4),
    Message('note_on', channel=9, note=42, velocity=127, time=45),
    Message('note_on', channel=9, note=42, velocity=0, time=3),
    Message('note_on', channel=9, note=42, velocity=96, time=45),
    Message('note_on', channel=9, note=42, velocity=0, time=3),
    Message('note_on', channel=9, note=42, velocity=127, time=45),
    Message('note_on', channel=9, note=42, velocity=0, time=3),
    Message('note_on', channel=9, note=42, velocity=96, time=45),
    Message('note_on', channel=9, note=42, velocity=0, time=3),
    Message('note_on', channel=9, note=42, velocity=127, time=45),
    Message('note_on', channel=9, note=42, velocity=0, time=3),
    Message('note_on', channel=9, note=42, velocity=96, time=44),
    Message('note_on', channel=9, note=42, velocity=0, time=4),
    Message('note_on', channel=9, note=42, velocity=127, time=45),
    Message('note_on', channel=9, note=42, velocity=0, time=3),
    Message('note_on', channel=9, note=42, velocity=96, time=45),
    Message('note_on', channel=9, note=42, velocity=0, time=3),
    Message('note_on', channel=9, note=42, velocity=127, time=45),
    Message('note_on', channel=9, note=42, velocity=0, time=3),
    Message('note_on', channel=9, note=42, velocity=96, time=44),
    Message('note_on', channel=9, note=42, velocity=0, time=4),
    Message('note_on', channel=9, note=42, velocity=127, time=45),
    Message('note_on', channel=9, note=42, velocity=0, time=3),
    Message('note_on', channel=9, note=42, velocity=96, time=44),
    Message('note_on', channel=9, note=42, velocity=0, time=3),
    Message('note_on', channel=9, note=42, velocity=127, time=46),
    Message('note_on', channel=9, note=42, velocity=0, time=3),
    Message('note_on', channel=9, note=42, velocity=96, time=45),
    Message('note_on', channel=9, note=42, velocity=0, time=3),
    Message('note_on', channel=9, note=42, velocity=127, time=45),
    Message('note_on', channel=9, note=42, velocity=0, time=3),
    Message('note_on', channel=9, note=42, velocity=96, time=45),
    Message('note_on', channel=9, note=42, velocity=0, time=3),
    Message('note_on', channel=9, note=42, velocity=127, time=45),
    Message('note_on', channel=9, note=42, velocity=0, time=3),
    Message('note_on', channel=9, note=42, velocity=96, time=45),
    Message('note_on', channel=9, note=42, velocity=0, time=3),
    Message('note_on', channel=9, note=42, velocity=127, time=45),
    Message('note_on', channel=9, note=42, velocity=0, time=3),
    Message('note_on', channel=9, note=42, velocity=96, time=45),
    Message('note_on', channel=9, note=42, velocity=0, time=3),
    Message('note_on', channel=9, note=42, velocity=127, time=45),
    Message('note_on', channel=9, note=42, velocity=0, time=3),
    Message('note_on', channel=9, note=42, velocity=96, time=44),
    Message('note_on', channel=9, note=42, velocity=0, time=4),
    Message('note_on', channel=9, note=42, velocity=127, time=45),
    Message('note_on', channel=9, note=42, velocity=0, time=3),
    Message('note_on', channel=9, note=42, velocity=96, time=45),
    Message('note_on', channel=9, note=42, velocity=0, time=3),
    Message('note_on', channel=9, note=42, velocity=127, time=44),
    Message('note_on', channel=9, note=42, velocity=0, time=4),
    Message('note_on', channel=9, note=42, velocity=96, time=45),
    Message('note_on', channel=9, note=42, velocity=0, time=3),
    Message('note_on', channel=9, note=42, velocity=127, time=45),
    Message('note_on', channel=9, note=42, velocity=0, time=3),
    Message('note_on', channel=9, note=42, velocity=96, time=44),
    Message('note_on', channel=9, note=42, velocity=0, time=4),
    Message('note_on', channel=9, note=42, velocity=127, time=45),
    Message('note_on', channel=9, note=42, velocity=0, time=3),
    Message('note_on', channel=9, note=42, velocity=96, time=45),
    Message('note_on', channel=9, note=42, velocity=0, time=3),
    Message('note_on', channel=9, note=42, velocity=127, time=45),
    Message('note_on', channel=9, note=42, velocity=0, time=3),
    Message('note_on', channel=9, note=42, velocity=96, time=44),
    Message('note_on', channel=9, note=42, velocity=0, time=4),
    Message('note_on', channel=9, note=42, velocity=127, time=45),
    Message('note_on', channel=9, note=42, velocity=0, time=3),
    Message('note_on', channel=9, note=42, velocity=96, time=44),
    Message('note_on', channel=9, note=42, velocity=0, time=3),
    Message('note_on', channel=9, note=42, velocity=127, time=46),
    Message('note_on', channel=9, note=42, velocity=0, time=3),
    Message('note_on', channel=9, note=42, velocity=96, time=45),
    Message('note_on', channel=9, note=42, velocity=0, time=3),
    Message('note_on', channel=9, note=42, velocity=127, time=45),
    Message('note_on', channel=9, note=42, velocity=0, time=3),
    Message('note_on', channel=9, note=42, velocity=96, time=44),
    Message('note_on', channel=9, note=42, velocity=0, time=4),
    Message('note_on', channel=9, note=42, velocity=127, time=45),
    Message('note_on', channel=9, note=42, velocity=0, time=3),
    Message('note_on', channel=9, note=42, velocity=96, time=45),
    Message('note_on', channel=9, note=42, velocity=0, time=3),
    Message('note_on', channel=9, note=42, velocity=127, time=45),
    Message('note_on', channel=9, note=42, velocity=0, time=3),
    Message('note_on', channel=9, note=42, velocity=96, time=45),
    Message('note_on', channel=9, note=42, velocity=0, time=3),
    Message('note_on', channel=9, note=42, velocity=127, time=45),
    Message('note_on', channel=9, note=42, velocity=0, time=3),
    Message('note_on', channel=9, note=42, velocity=96, time=44),
    Message('note_on', channel=9, note=42, velocity=0, time=3),
    Message('note_on', channel=9, note=42, velocity=127, time=46),
    Message('note_on', channel=9, note=42, velocity=0, time=3),
    Message('note_on', channel=9, note=42, velocity=96, time=45),
    Message('note_on', channel=9, note=42, velocity=0, time=3),
    Message('note_on', channel=9, note=42, velocity=127, time=45),
    Message('note_on', channel=9, note=42, velocity=0, time=3),
    Message('note_on', channel=9, note=42, velocity=96, time=44),
    Message('note_on', channel=9, note=42, velocity=0, time=4),
    Message('note_on', channel=9, note=42, velocity=127, time=45),
    Message('note_on', channel=9, note=42, velocity=0, time=3),
    Message('note_on', channel=9, note=42, velocity=96, time=45),
    Message('note_on', channel=9, note=42, velocity=0, time=3),
    Message('note_on', channel=9, note=42, velocity=127, time=45),
    Message('note_on', channel=9, note=42, velocity=0, time=3),
    Message('note_on', channel=9, note=42, velocity=96, time=45),
    Message('note_on', channel=9, note=42, velocity=0, time=3),
    Message('note_on', channel=9, note=42, velocity=127, time=45),
    Message('note_on', channel=9, note=42, velocity=0, time=3),
    Message('note_on', channel=9, note=42, velocity=96, time=44),
    Message('note_on', channel=9, note=42, velocity=0, time=4),
    Message('note_on', channel=9, note=42, velocity=127, time=45),
    Message('note_on', channel=9, note=42, velocity=0, time=3),
    Message('note_on', channel=9, note=42, velocity=96, time=45),
    Message('note_on', channel=9, note=42, velocity=0, time=3),
    Message('note_on', channel=9, note=42, velocity=127, time=45),
    Message('note_on', channel=9, note=42, velocity=0, time=3),
    Message('note_on', channel=9, note=42, velocity=96, time=44),
    Message('note_on', channel=9, note=42, velocity=0, time=4),
    Message('note_on', channel=9, note=42, velocity=127, time=45),
    Message('note_on', channel=9, note=42, velocity=0, time=3),
    Message('note_on', channel=9, note=42, velocity=96, time=45),
    Message('note_on', channel=9, note=42, velocity=0, time=3),
    Message('note_on', channel=9, note=42, velocity=127, time=45),
    Message('note_on', channel=9, note=42, velocity=0, time=3),
    Message('note_on', channel=9, note=42, velocity=96, time=45),
    Message('note_on', channel=9, note=42, velocity=0, time=3),
    Message('note_on', channel=9, note=42, velocity=127, time=45),
    Message('note_on', channel=9, note=42, velocity=0, time=3),
    Message('note_on', channel=9, note=42, velocity=96, time=44),
    Message('note_on', channel=9, note=42, velocity=0, time=4),
    Message('note_on', channel=9, note=42, velocity=127, time=45),
    Message('note_on', channel=9, note=42, velocity=0, time=3),
    Message('note_on', channel=9, note=42, velocity=96, time=45),
    Message('note_on', channel=9, note=42, velocity=0, time=3),
    Message('note_on', channel=9, note=42, velocity=127, time=44),
    Message('note_on', channel=9, note=42, velocity=0, time=4),
    Message('note_on', channel=9, note=42, velocity=96, time=45),
    Message('note_on', channel=9, note=42, velocity=0, time=3),
    Message('note_on', channel=9, note=42, velocity=127, time=45),
    Message('note_on', channel=9, note=42, velocity=0, time=3),
    Message('note_on', channel=9, note=42, velocity=96, time=44),
    Message('note_on', channel=9, note=42, velocity=0, time=4),
    Message('note_on', channel=9, note=42, velocity=127, time=45),
    Message('note_on', channel=9, note=42, velocity=0, time=3),
    Message('note_on', channel=9, note=42, velocity=96, time=45),
    Message('note_on', channel=9, note=42, velocity=0, time=3),
    Message('note_on', channel=9, note=42, velocity=127, time=45),
    Message('note_on', channel=9, note=42, velocity=0, time=3),
    Message('note_on', channel=9, note=42, velocity=96, time=45),
    Message('note_on', channel=9, note=42, velocity=0, time=3),
    Message('note_on', channel=9, note=42, velocity=127, time=45),
    Message('note_on', channel=9, note=42, velocity=0, time=3),
    Message('note_on', channel=9, note=42, velocity=96, time=44),
    Message('note_on', channel=9, note=42, velocity=0, time=4),
    Message('note_on', channel=9, note=42, velocity=127, time=45),
    Message('note_on', channel=9, note=42, velocity=0, time=3),
    Message('note_on', channel=9, note=42, velocity=96, time=45),
    Message('note_on', channel=9, note=42, velocity=0, time=3),
    Message('note_on', channel=9, note=42, velocity=127, time=45),
    Message('note_on', channel=9, note=42, velocity=0, time=3),
    Message('note_on', channel=9, note=42, velocity=96, time=45),
    Message('note_on', channel=9, note=42, velocity=0, time=3),
    Message('note_on', channel=9, note=42, velocity=127, time=45),
    Message('note_on', channel=9, note=42, velocity=0, time=3),
    Message('note_on', channel=9, note=42, velocity=96, time=44),
    Message('note_on', channel=9, note=42, velocity=0, time=4),
    Message('note_on', channel=9, note=42, velocity=127, time=45),
    Message('note_on', channel=9, note=42, velocity=0, time=3),
    Message('note_on', channel=9, note=42, velocity=96, time=45),
    Message('note_on', channel=9, note=42, velocity=0, time=3),
    Message('note_on', channel=9, note=42, velocity=127, time=45),
    Message('note_on', channel=9, note=42, velocity=0, time=3),
    Message('note_on', channel=9, note=42, velocity=96, time=44),
    Message('note_on', channel=9, note=42, velocity=0, time=4),
    Message('note_on', channel=9, note=42, velocity=127, time=45),
    Message('note_on', channel=9, note=42, velocity=0, time=3),
    Message('note_on', channel=9, note=42, velocity=96, time=44),
    Message('note_on', channel=9, note=42, velocity=0, time=3),
    Message('note_on', channel=9, note=42, velocity=127, time=46),
    Message('note_on', channel=9, note=42, velocity=0, time=3),
    Message('note_on', channel=9, note=42, velocity=96, time=45),
    Message('note_on', channel=9, note=42, velocity=0, time=3),
    Message('note_on', channel=9, note=42, velocity=127, time=45),
    Message('note_on', channel=9, note=42, velocity=0, time=3),
    Message('note_on', channel=9, note=42, velocity=96, time=44),
    Message('note_on', channel=9, note=42, velocity=0, time=3),
    Message('note_on', channel=9, note=42, velocity=127, time=46),
    Message('note_on', channel=9, note=42, velocity=0, time=3),
    Message('note_on', channel=9, note=42, velocity=96, time=45),
    Message('note_on', channel=9, note=42, velocity=0, time=3),
    Message('note_on', channel=9, note=42, velocity=127, time=45),
    Message('note_on', channel=9, note=42, velocity=0, time=3),
    Message('note_on', channel=9, note=42, velocity=96, time=45),
    Message('note_on', channel=9, note=42, velocity=0, time=3),
    Message('note_on', channel=9, note=42, velocity=127, time=45),
    Message('note_on', channel=9, note=42, velocity=0, time=3),
    Message('note_on', channel=9, note=42, velocity=96, time=44),
    Message('note_on', channel=9, note=42, velocity=0, time=3),
    Message('note_on', channel=9, note=42, velocity=127, time=46),
    Message('note_on', channel=9, note=42, velocity=0, time=3),
    Message('note_on', channel=9, note=42, velocity=96, time=45),
    Message('note_on', channel=9, note=42, velocity=0, time=3),
    Message('note_on', channel=9, note=42, velocity=127, time=45),
    Message('note_on', channel=9, note=42, velocity=0, time=3),
    Message('note_on', channel=9, note=42, velocity=96, time=44),
    Message('note_on', channel=9, note=42, velocity=0, time=4),
    Message('note_on', channel=9, note=42, velocity=127, time=45),
    Message('note_on', channel=9, note=42, velocity=0, time=3),
    Message('note_on', channel=9, note=42, velocity=96, time=45),
    Message('note_on', channel=9, note=42, velocity=0, time=3),
    Message('note_on', channel=9, note=42, velocity=127, time=45),
    Message('note_on', channel=9, note=42, velocity=0, time=3),
    Message('note_on', channel=9, note=42, velocity=96, time=45),
    Message('note_on', channel=9, note=42, velocity=0, time=3),
    Message('note_on', channel=9, note=42, velocity=127, time=45),
    Message('note_on', channel=9, note=42, velocity=0, time=3),
    Message('note_on', channel=9, note=42, velocity=96, time=44),
    Message('note_on', channel=9, note=42, velocity=0, time=4),
    Message('note_on', channel=9, note=42, velocity=127, time=45),
    Message('note_on', channel=9, note=42, velocity=0, time=3),
    Message('note_on', channel=9, note=42, velocity=96, time=45),
    Message('note_on', channel=9, note=42, velocity=0, time=3),
    Message('note_on', channel=9, note=42, velocity=127, time=45),
    Message('note_on', channel=9, note=42, velocity=0, time=3),
    Message('note_on', channel=9, note=42, velocity=96, time=45),
    Message('note_on', channel=9, note=42, velocity=0, time=3),
    Message('note_on', channel=9, note=42, velocity=127, time=45),
    Message('note_on', channel=9, note=42, velocity=0, time=3),
    Message('note_on', channel=9, note=42, velocity=96, time=44),
    Message('note_on', channel=9, note=42, velocity=0, time=4),
    Message('note_on', channel=9, note=42, velocity=127, time=45),
    Message('note_on', channel=9, note=42, velocity=0, time=3),
    Message('note_on', channel=9, note=42, velocity=96, time=45),
    Message('note_on', channel=9, note=42, velocity=0, time=3),
    Message('note_on', channel=9, note=42, velocity=127, time=44),
    Message('note_on', channel=9, note=42, velocity=0, time=4),
    Message('note_on', channel=9, note=42, velocity=96, time=45),
    Message('note_on', channel=9, note=42, velocity=0, time=3),
    Message('note_on', channel=9, note=42, velocity=127, time=45),
    Message('note_on', channel=9, note=42, velocity=0, time=3),
    Message('note_on', channel=9, note=42, velocity=96, time=44),
    Message('note_on', channel=9, note=42, velocity=0, time=4),
    Message('note_on', channel=9, note=42, velocity=127, time=45),
    Message('note_on', channel=9, note=42, velocity=0, time=3),
    Message('note_on', channel=9, note=42, velocity=96, time=44),
    Message('note_on', channel=9, note=42, velocity=0, time=3),
    Message('note_on', channel=9, note=42, velocity=127, time=46),
    Message('note_on', channel=9, note=42, velocity=0, time=3),
    Message('note_on', channel=9, note=42, velocity=96, time=44),
    Message('note_on', channel=9, note=42, velocity=0, time=4),
    Message('note_on', channel=9, note=42, velocity=127, time=45),
    Message('note_on', channel=9, note=42, velocity=0, time=3),
    Message('note_on', channel=9, note=42, velocity=96, time=45),
    Message('note_on', channel=9, note=42, velocity=0, time=3),
    Message('note_on', channel=9, note=42, velocity=127, time=45),
    Message('note_on', channel=9, note=42, velocity=0, time=3),
    Message('note_on', channel=9, note=42, velocity=96, time=45),
    Message('note_on', channel=9, note=42, velocity=0, time=3),
    Message('note_on', channel=9, note=42, velocity=127, time=45),
    Message('note_on', channel=9, note=42, velocity=0, time=3),
    Message('note_on', channel=9, note=42, velocity=96, time=44),
    Message('note_on', channel=9, note=42, velocity=0, time=4),
    Message('note_on', channel=9, note=42, velocity=127, time=45),
    Message('note_on', channel=9, note=42, velocity=0, time=3),
    Message('note_on', channel=9, note=42, velocity=96, time=45),
    Message('note_on', channel=9, note=42, velocity=0, time=3),
    Message('note_on', channel=9, note=42, velocity=127, time=45),
    Message('note_on', channel=9, note=42, velocity=0, time=3),
    Message('note_on', channel=9, note=42, velocity=96, time=44),
    Message('note_on', channel=9, note=42, velocity=0, time=4),
    Message('note_on', channel=9, note=42, velocity=127, time=45),
    Message('note_on', channel=9, note=42, velocity=0, time=3),
    Message('note_on', channel=9, note=42, velocity=96, time=45),
    Message('note_on', channel=9, note=42, velocity=0, time=3),
    Message('note_on', channel=9, note=42, velocity=127, time=45),
    Message('note_on', channel=9, note=42, velocity=0, time=3),
    Message('note_on', channel=9, note=42, velocity=127, time=93),
    Message('note_on', channel=9, note=42, velocity=0, time=3),
    Message('note_on', channel=9, note=42, velocity=96, time=45),
    Message('note_on', channel=9, note=42, velocity=0, time=3),
    Message('note_on', channel=9, note=42, velocity=127, time=45),
    Message('note_on', channel=9, note=42, velocity=0, time=3),
    Message('note_on', channel=9, note=42, velocity=96, time=45),
    Message('note_on', channel=9, note=42, velocity=0, time=3),
    Message('note_on', channel=9, note=42, velocity=127, time=45),
    Message('note_on', channel=9, note=42, velocity=0, time=3),
    Message('note_on', channel=9, note=42, velocity=96, time=45),
    Message('note_on', channel=9, note=42, velocity=0, time=3),
    Message('note_on', channel=9, note=42, velocity=127, time=45),
    Message('note_on', channel=9, note=42, velocity=0, time=3),
    Message('note_on', channel=9, note=42, velocity=96, time=45),
    Message('note_on', channel=9, note=42, velocity=0, time=3),
    Message('note_on', channel=9, note=42, velocity=127, time=45),
    Message('note_on', channel=9, note=42, velocity=0, time=3),
    Message('note_on', channel=9, note=42, velocity=96, time=45),
    Message('note_on', channel=9, note=42, velocity=0, time=3),
    Message('note_on', channel=9, note=42, velocity=127, time=45),
    Message('note_on', channel=9, note=42, velocity=0, time=3),
    Message('note_on', channel=9, note=42, velocity=96, time=44),
    Message('note_on', channel=9, note=42, velocity=0, time=4),
    Message('note_on', channel=9, note=42, velocity=127, time=45),
    Message('note_on', channel=9, note=42, velocity=0, time=3),
    Message('note_on', channel=9, note=42, velocity=96, time=44),
    Message('note_on', channel=9, note=42, velocity=0, time=4),
    Message('note_on', channel=9, note=42, velocity=127, time=45),
    Message('note_on', channel=9, note=42, velocity=0, time=3),
    Message('note_on', channel=9, note=42, velocity=96, time=44),
    Message('note_on', channel=9, note=42, velocity=0, time=4),
    Message('note_on', channel=9, note=42, velocity=127, time=45),
    Message('note_on', channel=9, note=42, velocity=0, time=3),
    Message('note_on', channel=9, note=42, velocity=96, time=44),
    Message('note_on', channel=9, note=42, velocity=0, time=4),
    Message('note_on', channel=9, note=42, velocity=127, time=44),
    Message('note_on', channel=9, note=42, velocity=0, time=4),
    Message('note_on', channel=9, note=42, velocity=96, time=45),
    Message('note_on', channel=9, note=42, velocity=0, time=3),
    Message('note_on', channel=9, note=42, velocity=127, time=45),
    Message('note_on', channel=9, note=42, velocity=0, time=3),
    Message('note_on', channel=9, note=42, velocity=96, time=44),
    Message('note_on', channel=9, note=42, velocity=0, time=4),
    Message('note_on', channel=9, note=42, velocity=127, time=45),
    Message('note_on', channel=9, note=42, velocity=0, time=3),
    Message('note_on', channel=9, note=42, velocity=96, time=44),
    Message('note_on', channel=9, note=42, velocity=0, time=4),
    Message('note_on', channel=9, note=42, velocity=127, time=45),
    Message('note_on', channel=9, note=42, velocity=0, time=3),
    Message('note_on', channel=9, note=42, velocity=96, time=44),
    Message('note_on', channel=9, note=42, velocity=0, time=4),
    Message('note_on', channel=9, note=42, velocity=127, time=45),
    Message('note_on', channel=9, note=42, velocity=0, time=3),
    Message('note_on', channel=9, note=42, velocity=96, time=44),
    Message('note_on', channel=9, note=42, velocity=0, time=4),
    Message('note_on', channel=9, note=42, velocity=127, time=45),
    Message('note_on', channel=9, note=42, velocity=0, time=3),
    Message('note_on', channel=9, note=42, velocity=96, time=44),
    Message('note_on', channel=9, note=42, velocity=0, time=4),
    Message('note_on', channel=9, note=42, velocity=127, time=45),
    Message('note_on', channel=9, note=42, velocity=0, time=3),
    Message('note_on', channel=9, note=42, velocity=96, time=44),
    Message('note_on', channel=9, note=42, velocity=0, time=4),
    Message('note_on', channel=9, note=42, velocity=127, time=45),
    Message('note_on', channel=9, note=42, velocity=0, time=3),
    Message('note_on', channel=9, note=42, velocity=96, time=44),
    Message('note_on', channel=9, note=42, velocity=0, time=3),
    Message('note_on', channel=9, note=42, velocity=127, time=46),
    Message('note_on', channel=9, note=42, velocity=0, time=3),
    Message('note_on', channel=9, note=42, velocity=96, time=45),
    Message('note_on', channel=9, note=42, velocity=0, time=3),
    Message('note_on', channel=9, note=42, velocity=127, time=45),
    Message('note_on', channel=9, note=42, velocity=0, time=3),
    Message('note_on', channel=9, note=42, velocity=96, time=44),
    Message('note_on', channel=9, note=42, velocity=0, time=4),
    Message('note_on', channel=9, note=42, velocity=127, time=44),
    Message('note_on', channel=9, note=42, velocity=0, time=4),
    Message('note_on', channel=9, note=42, velocity=96, time=44),
    Message('note_on', channel=9, note=42, velocity=0, time=4),
    Message('note_on', channel=9, note=42, velocity=127, time=45),
    Message('note_on', channel=9, note=42, velocity=0, time=3),
    Message('note_on', channel=9, note=42, velocity=96, time=44),
    Message('note_on', channel=9, note=42, velocity=0, time=3),
    Message('note_on', channel=9, note=42, velocity=127, time=46),
    Message('note_on', channel=9, note=42, velocity=0, time=3),
    Message('note_on', channel=9, note=42, velocity=96, time=44),
    Message('note_on', channel=9, note=42, velocity=0, time=4),
    Message('note_on', channel=9, note=42, velocity=127, time=45),
    Message('note_on', channel=9, note=42, velocity=0, time=3),
    Message('note_on', channel=9, note=42, velocity=96, time=44),
    Message('note_on', channel=9, note=42, velocity=0, time=4),
    Message('note_on', channel=9, note=42, velocity=127, time=45),
    Message('note_on', channel=9, note=42, velocity=0, time=3),
    Message('note_on', channel=9, note=42, velocity=96, time=44),
    Message('note_on', channel=9, note=42, velocity=0, time=4),
    Message('note_on', channel=9, note=42, velocity=127, time=45),
    Message('note_on', channel=9, note=42, velocity=0, time=3),
    Message('note_on', channel=9, note=42, velocity=96, time=44),
    Message('note_on', channel=9, note=42, velocity=0, time=4),
    Message('note_on', channel=9, note=42, velocity=127, time=45),
    Message('note_on', channel=9, note=42, velocity=0, time=3),
    Message('note_on', channel=9, note=42, velocity=96, time=45),
    Message('note_on', channel=9, note=42, velocity=0, time=3),
    Message('note_on', channel=9, note=42, velocity=127, time=45),
    Message('note_on', channel=9, note=42, velocity=0, time=3),
    Message('note_on', channel=9, note=42, velocity=96, time=44),
    Message('note_on', channel=9, note=42, velocity=0, time=4),
    Message('note_on', channel=9, note=42, velocity=127, time=45),
    Message('note_on', channel=9, note=42, velocity=0, time=3),
    Message('note_on', channel=9, note=42, velocity=96, time=44),
    Message('note_on', channel=9, note=42, velocity=0, time=4),
    Message('note_on', channel=9, note=42, velocity=127, time=45),
    Message('note_on', channel=9, note=42, velocity=0, time=3),
    Message('note_on', channel=9, note=42, velocity=96, time=44),
    Message('note_on', channel=9, note=42, velocity=0, time=3),
    Message('note_on', channel=9, note=42, velocity=127, time=45),
    Message('note_on', channel=9, note=42, velocity=0, time=4),
    Message('note_on', channel=9, note=42, velocity=96, time=44),
    Message('note_on', channel=9, note=42, velocity=0, time=3),
    Message('note_on', channel=9, note=42, velocity=127, time=46),
    Message('note_on', channel=9, note=42, velocity=0, time=3),
    Message('note_on', channel=9, note=42, velocity=96, time=44),
    Message('note_on', channel=9, note=42, velocity=0, time=4),
    Message('note_on', channel=9, note=42, velocity=127, time=45),
    Message('note_on', channel=9, note=42, velocity=0, time=3),
    Message('note_on', channel=9, note=42, velocity=127, time=93),
    Message('note_on', channel=9, note=42, velocity=0, time=3),
    Message('note_on', channel=9, note=42, velocity=96, time=44),
    Message('note_on', channel=9, note=42, velocity=0, time=4),
    Message('note_on', channel=9, note=42, velocity=127, time=45),
    Message('note_on', channel=9, note=42, velocity=0, time=3),
    Message('note_on', channel=9, note=42, velocity=96, time=45),
    Message('note_on', channel=9, note=42, velocity=0, time=3),
    Message('note_on', channel=9, note=42, velocity=127, time=45),
    Message('note_on', channel=9, note=42, velocity=0, time=3),
    Message('note_on', channel=9, note=42, velocity=96, time=45),
    Message('note_on', channel=9, note=42, velocity=0, time=3),
    Message('note_on', channel=9, note=42, velocity=127, time=45),
    Message('note_on', channel=9, note=42, velocity=0, time=3),
    Message('note_on', channel=9, note=42, velocity=96, time=45),
    Message('note_on', channel=9, note=42, velocity=0, time=3),
    Message('note_on', channel=9, note=42, velocity=127, time=45),
    Message('note_on', channel=9, note=42, velocity=0, time=3),
    Message('note_on', channel=9, note=42, velocity=96, time=44),
    Message('note_on', channel=9, note=42, velocity=0, time=3),
    Message('note_on', channel=9, note=42, velocity=127, time=46),
    Message('note_on', channel=9, note=42, velocity=0, time=3),
    Message('note_on', channel=9, note=42, velocity=96, time=44),
    Message('note_on', channel=9, note=42, velocity=0, time=3),
    Message('note_on', channel=9, note=42, velocity=127, time=46),
    Message('note_on', channel=9, note=42, velocity=0, time=3),
    Message('note_on', channel=9, note=42, velocity=96, time=44),
    Message('note_on', channel=9, note=42, velocity=0, time=3),
    Message('note_on', channel=9, note=42, velocity=127, time=46),
    Message('note_on', channel=9, note=42, velocity=0, time=3),
    Message('note_on', channel=9, note=42, velocity=96, time=44),
    Message('note_on', channel=9, note=42, velocity=0, time=3),
    Message('note_on', channel=9, note=42, velocity=127, time=45),
    Message('note_on', channel=9, note=42, velocity=0, time=4),
    Message('note_on', channel=9, note=42, velocity=96, time=44),
    Message('note_on', channel=9, note=42, velocity=0, time=4),
    Message('note_on', channel=9, note=42, velocity=127, time=45),
    Message('note_on', channel=9, note=42, velocity=0, time=3),
    Message('note_on', channel=9, note=42, velocity=96, time=45),
    Message('note_on', channel=9, note=42, velocity=0, time=3),
    Message('note_on', channel=9, note=42, velocity=127, time=45),
    Message('note_on', channel=9, note=42, velocity=0, time=3),
    Message('note_on', channel=9, note=42, velocity=96, time=44),
    Message('note_on', channel=9, note=42, velocity=0, time=4),
    Message('note_on', channel=9, note=42, velocity=127, time=45),
    Message('note_on', channel=9, note=42, velocity=0, time=3),
    Message('note_on', channel=9, note=42, velocity=96, time=44),
    Message('note_on', channel=9, note=42, velocity=0, time=4),
    Message('note_on', channel=9, note=42, velocity=127, time=45),
    Message('note_on', channel=9, note=42, velocity=0, time=3),
    Message('note_on', channel=9, note=42, velocity=96, time=44),
    Message('note_on', channel=9, note=42, velocity=0, time=3),
    Message('note_on', channel=9, note=42, velocity=127, time=46),
    Message('note_on', channel=9, note=42, velocity=0, time=3),
    Message('note_on', channel=9, note=42, velocity=96, time=44),
    Message('note_on', channel=9, note=42, velocity=0, time=4),
    Message('note_on', channel=9, note=42, velocity=127, time=45),
    Message('note_on', channel=9, note=42, velocity=0, time=3),
    Message('note_on', channel=9, note=42, velocity=96, time=44),
    Message('note_on', channel=9, note=42, velocity=0, time=3),
    Message('note_on', channel=9, note=42, velocity=127, time=46),
    Message('note_on', channel=9, note=42, velocity=0, time=3),
    Message('note_on', channel=9, note=42, velocity=96, time=44),
    Message('note_on', channel=9, note=42, velocity=0, time=4),
    Message('note_on', channel=9, note=42, velocity=127, time=45),
    Message('note_on', channel=9, note=42, velocity=0, time=3),
    Message('note_on', channel=9, note=42, velocity=96, time=44),
    Message('note_on', channel=9, note=42, velocity=0, time=4),
    Message('note_on', channel=9, note=42, velocity=127, time=45),
    Message('note_on', channel=9, note=42, velocity=0, time=3),
    Message('note_on', channel=9, note=42, velocity=96, time=45),
    Message('note_on', channel=9, note=42, velocity=0, time=3),
    Message('note_on', channel=9, note=42, velocity=127, time=45),
    Message('note_on', channel=9, note=42, velocity=0, time=3),
    Message('note_on', channel=9, note=42, velocity=96, time=44),
    Message('note_on', channel=9, note=42, velocity=0, time=4),
    Message('note_on', channel=9, note=42, velocity=127, time=45),
    Message('note_on', channel=9, note=42, velocity=0, time=3),
    Message('note_on', channel=9, note=42, velocity=96, time=44),
    Message('note_on', channel=9, note=42, velocity=0, time=3),
    Message('note_on', channel=9, note=42, velocity=127, time=46),
    Message('note_on', channel=9, note=42, velocity=0, time=3),
    Message('note_on', channel=9, note=42, velocity=96, time=44),
    Message('note_on', channel=9, note=42, velocity=0, time=3),
    Message('note_on', channel=9, note=42, velocity=127, time=46),
    Message('note_on', channel=9, note=42, velocity=0, time=3),
    Message('note_on', channel=9, note=42, velocity=96, time=44),
    Message('note_on', channel=9, note=42, velocity=0, time=4),
    Message('note_on', channel=9, note=42, velocity=127, time=45),
    Message('note_on', channel=9, note=42, velocity=0, time=3),
    Message('note_on', channel=9, note=42, velocity=96, time=44),
    Message('note_on', channel=9, note=42, velocity=0, time=4),
    Message('note_on', channel=9, note=42, velocity=127, time=45),
    Message('note_on', channel=9, note=42, velocity=0, time=3),
    Message('note_on', channel=9, note=42, velocity=96, time=44),
    Message('note_on', channel=9, note=42, velocity=0, time=4),
    Message('note_on', channel=9, note=42, velocity=127, time=45),
    Message('note_on', channel=9, note=42, velocity=0, time=3),
    Message('note_on', channel=9, note=42, velocity=96, time=44),
    Message('note_on', channel=9, note=42, velocity=0, time=4),
    Message('note_on', channel=9, note=42, velocity=127, time=44),
    Message('note_on', channel=9, note=42, velocity=0, time=4),
    Message('note_on', channel=9, note=42, velocity=96, time=45),
    Message('note_on', channel=9, note=42, velocity=0, time=3),
    Message('note_on', channel=9, note=42, velocity=127, time=45),
    Message('note_on', channel=9, note=42, velocity=0, time=3),
    Message('note_on', channel=9, note=42, velocity=96, time=44),
    Message('note_on', channel=9, note=42, velocity=0, time=4),
    Message('note_on', channel=9, note=42, velocity=127, time=45),
    Message('note_on', channel=9, note=42, velocity=0, time=3),
    Message('note_on', channel=9, note=42, velocity=96, time=44),
    Message('note_on', channel=9, note=42, velocity=0, time=4),
    Message('note_on', channel=9, note=42, velocity=127, time=45),
    Message('note_on', channel=9, note=42, velocity=0, time=3),
    Message('note_on', channel=9, note=42, velocity=96, time=44),
    Message('note_on', channel=9, note=42, velocity=0, time=3),
    Message('note_on', channel=9, note=42, velocity=127, time=46),
    Message('note_on', channel=9, note=42, velocity=0, time=3),
    Message('note_on', channel=9, note=42, velocity=96, time=44),
    Message('note_on', channel=9, note=42, velocity=0, time=4),
    Message('note_on', channel=9, note=42, velocity=127, time=45),
    Message('note_on', channel=9, note=42, velocity=0, time=3),
    Message('note_on', channel=9, note=42, velocity=96, time=44),
    Message('note_on', channel=9, note=42, velocity=0, time=4),
    Message('note_on', channel=9, note=42, velocity=127, time=45),
    Message('note_on', channel=9, note=42, velocity=0, time=3),
    Message('note_on', channel=9, note=42, velocity=96, time=44),
    Message('note_on', channel=9, note=42, velocity=0, time=4),
    Message('note_on', channel=9, note=42, velocity=127, time=45),
    Message('note_on', channel=9, note=42, velocity=0, time=3),
    Message('note_on', channel=9, note=42, velocity=96, time=44),
    Message('note_on', channel=9, note=42, velocity=0, time=4),
    Message('note_on', channel=9, note=42, velocity=127, time=45),
    Message('note_on', channel=9, note=42, velocity=0, time=3),
    Message('note_on', channel=9, note=42, velocity=96, time=45),
    Message('note_on', channel=9, note=42, velocity=0, time=3),
    Message('note_on', channel=9, note=42, velocity=127, time=45),
    Message('note_on', channel=9, note=42, velocity=0, time=3),
    Message('note_on', channel=9, note=42, velocity=96, time=44),
    Message('note_on', channel=9, note=42, velocity=0, time=4),
    Message('note_on', channel=9, note=42, velocity=127, time=45),
    Message('note_on', channel=9, note=42, velocity=0, time=3),
    Message('note_on', channel=9, note=42, velocity=96, time=44),
    Message('note_on', channel=9, note=42, velocity=0, time=4),
    Message('note_on', channel=9, note=42, velocity=127, time=44),
    Message('note_on', channel=9, note=42, velocity=0, time=4),
    Message('note_on', channel=9, note=42, velocity=96, time=44),
    Message('note_on', channel=9, note=42, velocity=0, time=4),
    Message('note_on', channel=9, note=42, velocity=127, time=45),
    Message('note_on', channel=9, note=42, velocity=0, time=3),
    Message('note_on', channel=9, note=42, velocity=96, time=44),
    Message('note_on', channel=9, note=42, velocity=0, time=4),
    Message('note_on', channel=9, note=42, velocity=127, time=45),
    Message('note_on', channel=9, note=42, velocity=0, time=3),
    Message('note_on', channel=9, note=42, velocity=96, time=44),
    Message('note_on', channel=9, note=42, velocity=0, time=4),
    Message('note_on', channel=9, note=42, velocity=127, time=45),
    Message('note_on', channel=9, note=42, velocity=0, time=3),
    Message('note_on', channel=9, note=42, velocity=96, time=44),
    Message('note_on', channel=9, note=42, velocity=0, time=4),
    Message('note_on', channel=9, note=42, velocity=127, time=45),
    Message('note_on', channel=9, note=42, velocity=0, time=3),
    Message('note_on', channel=9, note=42, velocity=96, time=44),
    Message('note_on', channel=9, note=42, velocity=0, time=4),
    Message('note_on', channel=9, note=42, velocity=127, time=45),
    Message('note_on', channel=9, note=42, velocity=0, time=3),
    Message('note_on', channel=9, note=42, velocity=96, time=45),
    Message('note_on', channel=9, note=42, velocity=0, time=3),
    Message('note_on', channel=9, note=42, velocity=127, time=45),
    Message('note_on', channel=9, note=42, velocity=0, time=3),
    Message('note_on', channel=9, note=42, velocity=96, time=44),
    Message('note_on', channel=9, note=42, velocity=0, time=4),
    Message('note_on', channel=9, note=42, velocity=127, time=45),
    Message('note_on', channel=9, note=42, velocity=0, time=3),
    Message('note_on', channel=9, note=42, velocity=96, time=44),
    Message('note_on', channel=9, note=42, velocity=0, time=4),
    Message('note_on', channel=9, note=42, velocity=127, time=45),
    Message('note_on', channel=9, note=42, velocity=0, time=3),
    Message('note_on', channel=9, note=42, velocity=96, time=44),
    Message('note_on', channel=9, note=42, velocity=0, time=4),
    Message('note_on', channel=9, note=42, velocity=127, time=45),
    Message('note_on', channel=9, note=42, velocity=0, time=3),
    Message('note_on', channel=9, note=42, velocity=96, time=44),
    Message('note_on', channel=9, note=42, velocity=0, time=4),
    Message('note_on', channel=9, note=42, velocity=127, time=44),
    Message('note_on', channel=9, note=42, velocity=0, time=4),
    Message('note_on', channel=9, note=42, velocity=96, time=44),
    Message('note_on', channel=9, note=42, velocity=0, time=4),
    Message('note_on', channel=9, note=42, velocity=127, time=45),
    Message('note_on', channel=9, note=42, velocity=0, time=3),
    Message('note_on', channel=9, note=42, velocity=96, time=44),
    Message('note_on', channel=9, note=42, velocity=0, time=4),
    Message('note_on', channel=9, note=42, velocity=127, time=45),
    Message('note_on', channel=9, note=42, velocity=0, time=3),
    Message('note_on', channel=9, note=42, velocity=96, time=44),
    Message('note_on', channel=9, note=42, velocity=0, time=4),
    Message('note_on', channel=9, note=42, velocity=127, time=45),
    Message('note_on', channel=9, note=42, velocity=0, time=3),
    Message('note_on', channel=9, note=42, velocity=96, time=45),
    Message('note_on', channel=9, note=42, velocity=0, time=3),
    Message('note_on', channel=9, note=42, velocity=127, time=45),
    Message('note_on', channel=9, note=42, velocity=0, time=3),
    Message('note_on', channel=9, note=42, velocity=96, time=44),
    Message('note_on', channel=9, note=42, velocity=0, time=4),
    Message('note_on', channel=9, note=42, velocity=127, time=45),
    Message('note_on', channel=9, note=42, velocity=0, time=3),
    Message('note_on', channel=9, note=42, velocity=96, time=44),
    Message('note_on', channel=9, note=42, velocity=0, time=4),
    Message('note_on', channel=9, note=42, velocity=127, time=45),
    Message('note_on', channel=9, note=42, velocity=0, time=3),
    Message('note_on', channel=9, note=42, velocity=96, time=45),
    Message('note_on', channel=9, note=42, velocity=0, time=3),
    Message('note_on', channel=9, note=42, velocity=127, time=45),
    Message('note_on', channel=9, note=42, velocity=0, time=3),
    Message('note_on', channel=9, note=42, velocity=96, time=44),
    Message('note_on', channel=9, note=42, velocity=0, time=4),
    Message('note_on', channel=9, note=42, velocity=127, time=45),
    Message('note_on', channel=9, note=42, velocity=0, time=3),
    Message('note_on', channel=9, note=42, velocity=96, time=45),
    Message('note_on', channel=9, note=42, velocity=0, time=3),
    Message('note_on', channel=9, note=42, velocity=127, time=45),
    Message('note_on', channel=9, note=42, velocity=0, time=3),
    Message('note_on', channel=9, note=42, velocity=96, time=45),
    Message('note_on', channel=9, note=42, velocity=0, time=3),
    Message('note_on', channel=9, note=42, velocity=127, time=45),
    Message('note_on', channel=9, note=42, velocity=0, time=3),
    Message('note_on', channel=9, note=42, velocity=96, time=44),
    Message('note_on', channel=9, note=42, velocity=0, time=4),
    Message('note_on', channel=9, note=42, velocity=127, time=45),
    Message('note_on', channel=9, note=42, velocity=0, time=3),
    Message('note_on', channel=9, note=42, velocity=96, time=45),
    Message('note_on', channel=9, note=42, velocity=0, time=3),
    Message('note_on', channel=9, note=42, velocity=127, time=45),
    Message('note_on', channel=9, note=42, velocity=0, time=3),
    Message('note_on', channel=9, note=42, velocity=96, time=45),
    Message('note_on', channel=9, note=42, velocity=0, time=3),
    Message('note_on', channel=9, note=42, velocity=127, time=45),
    Message('note_on', channel=9, note=42, velocity=0, time=3),
    Message('note_on', channel=9, note=42, velocity=96, time=44),
    Message('note_on', channel=9, note=42, velocity=0, time=4),
    Message('note_on', channel=9, note=42, velocity=127, time=45),
    Message('note_on', channel=9, note=42, velocity=0, time=3),
    Message('note_on', channel=9, note=42, velocity=96, time=45),
    Message('note_on', channel=9, note=42, velocity=0, time=3),
    Message('note_on', channel=9, note=42, velocity=127, time=45),
    Message('note_on', channel=9, note=42, velocity=0, time=3),
    Message('note_on', channel=9, note=42, velocity=96, time=44),
    Message('note_on', channel=9, note=42, velocity=0, time=4),
    Message('note_on', channel=9, note=42, velocity=127, time=45),
    Message('note_on', channel=9, note=42, velocity=0, time=3),
    Message('note_on', channel=9, note=42, velocity=96, time=45),
    Message('note_on', channel=9, note=42, velocity=0, time=3),
    Message('note_on', channel=9, note=42, velocity=127, time=44),
    Message('note_on', channel=9, note=42, velocity=0, time=4),
    Message('note_on', channel=9, note=42, velocity=96, time=45),
    Message('note_on', channel=9, note=42, velocity=0, time=3),
    Message('note_on', channel=9, note=42, velocity=127, time=45),
    Message('note_on', channel=9, note=42, velocity=0, time=3),
    Message('note_on', channel=9, note=42, velocity=96, time=44),
    Message('note_on', channel=9, note=42, velocity=0, time=4),
    Message('note_on', channel=9, note=42, velocity=127, time=45),
    Message('note_on', channel=9, note=42, velocity=0, time=3),
    Message('note_on', channel=9, note=42, velocity=96, time=45),
    Message('note_on', channel=9, note=42, velocity=0, time=3),
    Message('note_on', channel=9, note=42, velocity=127, time=45),
    Message('note_on', channel=9, note=42, velocity=0, time=3),
    Message('note_on', channel=9, note=42, velocity=96, time=45),
    Message('note_on', channel=9, note=42, velocity=0, time=3),
    Message('note_on', channel=9, note=42, velocity=127, time=45),
    Message('note_on', channel=9, note=42, velocity=0, time=3),
    Message('note_on', channel=9, note=42, velocity=96, time=45),
    Message('note_on', channel=9, note=42, velocity=0, time=3),
    Message('note_on', channel=9, note=42, velocity=127, time=45),
    Message('note_on', channel=9, note=42, velocity=0, time=3),
    Message('note_on', channel=9, note=42, velocity=96, time=45),
    Message('note_on', channel=9, note=42, velocity=0, time=3),
    Message('note_on', channel=9, note=42, velocity=127, time=45),
    Message('note_on', channel=9, note=42, velocity=0, time=3),
    Message('note_on', channel=9, note=42, velocity=96, time=45),
    Message('note_on', channel=9, note=42, velocity=0, time=3),
    Message('note_on', channel=9, note=42, velocity=127, time=45),
    Message('note_on', channel=9, note=42, velocity=0, time=3),
    Message('note_on', channel=9, note=42, velocity=96, time=44),
    Message('note_on', channel=9, note=42, velocity=0, time=4),
    Message('note_on', channel=9, note=42, velocity=127, time=45),
    Message('note_on', channel=9, note=42, velocity=0, time=3),
    Message('note_on', channel=9, note=42, velocity=96, time=45),
    Message('note_on', channel=9, note=42, velocity=0, time=3),
    Message('note_on', channel=9, note=42, velocity=127, time=45),
    Message('note_on', channel=9, note=42, velocity=0, time=3),
    Message('note_on', channel=9, note=42, velocity=96, time=45),
    Message('note_on', channel=9, note=42, velocity=0, time=3),
    Message('note_on', channel=9, note=42, velocity=127, time=45),
    Message('note_on', channel=9, note=42, velocity=0, time=3),
    Message('note_on', channel=9, note=42, velocity=96, time=44),
    Message('note_on', channel=9, note=42, velocity=0, time=4),
    Message('note_on', channel=9, note=42, velocity=127, time=45),
    Message('note_on', channel=9, note=42, velocity=0, time=3),
    Message('note_on', channel=9, note=42, velocity=96, time=45),
    Message('note_on', channel=9, note=42, velocity=0, time=3),
    Message('note_on', channel=9, note=42, velocity=127, time=45),
    Message('note_on', channel=9, note=42, velocity=0, time=3),
    Message('note_on', channel=9, note=42, velocity=96, time=45),
    Message('note_on', channel=9, note=42, velocity=0, time=3),
    Message('note_on', channel=9, note=42, velocity=127, time=45),
    Message('note_on', channel=9, note=42, velocity=0, time=3),
    Message('note_on', channel=9, note=42, velocity=96, time=44),
    Message('note_on', channel=9, note=42, velocity=0, time=3),
    Message('note_on', channel=9, note=42, velocity=127, time=46),
    Message('note_on', channel=9, note=42, velocity=0, time=3),
    Message('note_on', channel=9, note=42, velocity=96, time=45),
    Message('note_on', channel=9, note=42, velocity=0, time=3),
    Message('note_on', channel=9, note=42, velocity=127, time=45),
    Message('note_on', channel=9, note=42, velocity=0, time=3),
    Message('note_on', channel=9, note=42, velocity=96, time=45),
    Message('note_on', channel=9, note=42, velocity=0, time=3),
    Message('note_on', channel=9, note=42, velocity=127, time=45),
    Message('note_on', channel=9, note=42, velocity=0, time=3),
    Message('note_on', channel=9, note=42, velocity=127, time=93),
    Message('note_on', channel=9, note=42, velocity=0, time=3),
    Message('note_on', channel=9, note=42, velocity=96, time=45),
    Message('note_on', channel=9, note=42, velocity=0, time=3),
    Message('note_on', channel=9, note=42, velocity=127, time=45),
    Message('note_on', channel=9, note=42, velocity=0, time=3),
    Message('note_on', channel=9, note=42, velocity=96, time=45),
    Message('note_on', channel=9, note=42, velocity=0, time=3),
    Message('note_on', channel=9, note=42, velocity=127, time=45),
    Message('note_on', channel=9, note=42, velocity=0, time=3),
    Message('note_on', channel=9, note=42, velocity=96, time=45),
    Message('note_on', channel=9, note=42, velocity=0, time=3),
    Message('note_on', channel=9, note=42, velocity=127, time=45),
    Message('note_on', channel=9, note=42, velocity=0, time=3),
    Message('note_on', channel=9, note=42, velocity=96, time=45),
    Message('note_on', channel=9, note=42, velocity=0, time=3),
    MetaMessage('end_of_track', time=0)]),
  MidiTrack([
    MetaMessage('midi_port', port=0, time=0),
    Message('note_on', channel=9, note=49, velocity=127, time=3841),
    Message('note_on', channel=9, note=49, velocity=0, time=3),
    Message('note_on', channel=9, note=49, velocity=127, time=3069),
    Message('note_on', channel=9, note=49, velocity=0, time=3),
    Message('note_on', channel=9, note=49, velocity=127, time=6141),
    Message('note_on', channel=9, note=49, velocity=0, time=3),
    Message('note_on', channel=9, note=49, velocity=127, time=3069),
    Message('note_on', channel=9, note=49, velocity=0, time=3),
    Message('note_on', channel=9, note=49, velocity=127, time=3069),
    Message('note_on', channel=9, note=49, velocity=0, time=3),
    Message('note_on', channel=9, note=49, velocity=127, time=1533),
    Message('note_on', channel=9, note=49, velocity=0, time=3),
    Message('note_on', channel=9, note=49, velocity=127, time=1533),
    Message('note_on', channel=9, note=49, velocity=0, time=3),
    Message('note_on', channel=9, note=49, velocity=127, time=6141),
    Message('note_on', channel=9, note=49, velocity=0, time=3),
    Message('note_on', channel=9, note=49, velocity=127, time=3069),
    Message('note_on', channel=9, note=49, velocity=0, time=3),
    Message('note_on', channel=9, note=49, velocity=127, time=3069),
    Message('note_on', channel=9, note=49, velocity=0, time=3),
    Message('note_on', channel=9, note=49, velocity=127, time=1533),
    Message('note_on', channel=9, note=49, velocity=0, time=3),
    Message('note_on', channel=9, note=49, velocity=127, time=1533),
    Message('note_on', channel=9, note=49, velocity=0, time=3),
    Message('note_on', channel=9, note=49, velocity=127, time=1533),
    Message('note_on', channel=9, note=49, velocity=0, time=3),
    MetaMessage('end_of_track', time=0)]),
  MidiTrack([
    MetaMessage('midi_port', port=0, time=0),
    Message('note_on', channel=9, note=46, velocity=127, time=3745),
    Message('note_on', channel=9, note=46, velocity=0, time=3),
    Message('note_on', channel=9, note=46, velocity=127, time=2732),
    Message('note_on', channel=9, note=46, velocity=0, time=4),
    Message('note_on', channel=9, note=46, velocity=127, time=6140),
    Message('note_on', channel=9, note=46, velocity=0, time=4),
    Message('note_on', channel=9, note=46, velocity=127, time=6140),
    Message('note_on', channel=9, note=46, velocity=0, time=4),
    Message('note_on', channel=9, note=46, velocity=127, time=9213),
    Message('note_on', channel=9, note=46, velocity=0, time=3),
    Message('note_on', channel=9, note=46, velocity=127, time=3068),
    Message('note_on', channel=9, note=46, velocity=0, time=3),
    Message('note_on', channel=9, note=46, velocity=127, time=7677),
    Message('note_on', channel=9, note=46, velocity=0, time=4),
    Message('note_on', channel=9, note=46, velocity=127, time=428),
    Message('note_on', channel=9, note=46, velocity=0, time=3),
    MetaMessage('end_of_track', time=0)]),
  MidiTrack([
    MetaMessage('midi_port', port=0, time=0),
    Message('note_on', channel=9, note=48, velocity=127, time=3457),
    Message('note_on', channel=9, note=48, velocity=0, time=3),
    Message('note_on', channel=9, note=48, velocity=127, time=45),
    Message('note_on', channel=9, note=48, velocity=0, time=3),
    Message('note_on', channel=9, note=48, velocity=127, time=45),
    Message('note_on', channel=9, note=48, velocity=0, time=3),
    Message('note_on', channel=9, note=45, velocity=127, time=45),
    Message('note_on', channel=9, note=45, velocity=0, time=3),
    Message('note_on', channel=9, note=41, velocity=127, time=45),
    Message('note_on', channel=9, note=41, velocity=0, time=3),
    Message('note_on', channel=9, note=48, velocity=127, time=2973),
    Message('note_on', channel=9, note=48, velocity=0, time=3),
    Message('note_on', channel=9, note=48, velocity=127, time=45),
    Message('note_on', channel=9, note=48, velocity=0, time=3),
    Message('note_on', channel=9, note=48, velocity=127, time=45),
    Message('note_on', channel=9, note=48, velocity=0, time=3),
    Message('note_on', channel=9, note=45, velocity=127, time=45),
    Message('note_on', channel=9, note=45, velocity=0, time=3),
    Message('note_on', channel=9, note=41, velocity=127, time=45),
    Message('note_on', channel=9, note=41, velocity=0, time=3),
    Message('note_on', channel=9, note=48, velocity=127, time=5997),
    Message('note_on', channel=9, note=48, velocity=0, time=3),
    Message('note_on', channel=9, note=48, velocity=127, time=45),
    Message('note_on', channel=9, note=48, velocity=0, time=3),
    Message('note_on', channel=9, note=45, velocity=127, time=45),
    Message('note_on', channel=9, note=45, velocity=0, time=3),
    Message('note_on', channel=9, note=41, velocity=127, time=45),
    Message('note_on', channel=9, note=41, velocity=0, time=3),
    Message('note_on', channel=9, note=41, velocity=127, time=45),
    Message('note_on', channel=9, note=41, velocity=0, time=3),
    Message('note_on', channel=9, note=48, velocity=127, time=5949),
    Message('note_on', channel=9, note=48, velocity=0, time=3),
    Message('note_on', channel=9, note=48, velocity=127, time=45),
    Message('note_on', channel=9, note=48, velocity=0, time=3),
    Message('note_on', channel=9, note=45, velocity=127, time=45),
    Message('note_on', channel=9, note=45, velocity=0, time=3),
    Message('note_on', channel=9, note=41, velocity=127, time=45),
    Message('note_on', channel=9, note=41, velocity=0, time=3),
    Message('note_on', channel=9, note=41, velocity=127, time=45),
    Message('note_on', channel=9, note=41, velocity=0, time=3),
    Message('note_on', channel=9, note=48, velocity=127, time=12093),
    Message('note_on', channel=9, note=48, velocity=0, time=3),
    Message('note_on', channel=9, note=48, velocity=127, time=45),
    Message('note_on', channel=9, note=48, velocity=0, time=3),
    Message('note_on', channel=9, note=45, velocity=127, time=45),
    Message('note_on', channel=9, note=45, velocity=0, time=3),
    Message('note_on', channel=9, note=41, velocity=127, time=45),
    Message('note_on', channel=9, note=41, velocity=0, time=3),
    Message('note_on', channel=9, note=41, velocity=127, time=45),
    Message('note_on', channel=9, note=41, velocity=0, time=3),
    Message('note_on', channel=9, note=48, velocity=127, time=7389),
    Message('note_on', channel=9, note=48, velocity=0, time=3),
    Message('note_on', channel=9, note=41, velocity=127, time=45),
    Message('note_on', channel=9, note=41, velocity=0, time=3),
    Message('note_on', channel=9, note=48, velocity=127, time=45),
    Message('note_on', channel=9, note=48, velocity=0, time=3),
    Message('note_on', channel=9, note=41, velocity=127, time=45),
    Message('note_on', channel=9, note=41, velocity=0, time=3),
    MetaMessage('end_of_track', time=0)]),
  MidiTrack([
    MetaMessage('midi_port', port=0, time=0),
    Message('note_on', channel=9, note=37, velocity=127, time=22368),
    Message('note_on', channel=9, note=37, velocity=0, time=4),
    Message('note_on', channel=9, note=37, velocity=127, time=188),
    Message('note_on', channel=9, note=37, velocity=0, time=3),
    Message('note_on', channel=9, note=37, velocity=127, time=190),
    Message('note_on', channel=9, note=37, velocity=0, time=3),
    Message('note_on', channel=9, note=37, velocity=127, time=189),
    Message('note_on', channel=9, note=37, velocity=0, time=3),
    Message('note_on', channel=9, note=37, velocity=127, time=189),
    Message('note_on', channel=9, note=37, velocity=0, time=3),
    Message('note_on', channel=9, note=37, velocity=127, time=188),
    Message('note_on', channel=9, note=37, velocity=0, time=4),
    Message('note_on', channel=9, note=37, velocity=127, time=189),
    Message('note_on', channel=9, note=37, velocity=0, time=3),
    Message('note_on', channel=9, note=37, velocity=127, time=189),
    Message('note_on', channel=9, note=37, velocity=0, time=3),
    Message('note_on', channel=9, note=37, velocity=127, time=189),
    Message('note_on', channel=9, note=37, velocity=0, time=3),
    Message('note_on', channel=9, note=37, velocity=127, time=188),
    Message('note_on', channel=9, note=37, velocity=0, time=4),
    Message('note_on', channel=9, note=37, velocity=127, time=188),
    Message('note_on', channel=9, note=37, velocity=0, time=3),
    Message('note_on', channel=9, note=37, velocity=127, time=190),
    Message('note_on', channel=9, note=37, velocity=0, time=3),
    Message('note_on', channel=9, note=37, velocity=127, time=189),
    Message('note_on', channel=9, note=37, velocity=0, time=3),
    Message('note_on', channel=9, note=37, velocity=127, time=188),
    Message('note_on', channel=9, note=37, velocity=0, time=4),
    Message('note_on', channel=9, note=37, velocity=127, time=189),
    Message('note_on', channel=9, note=37, velocity=0, time=3),
    Message('note_on', channel=9, note=37, velocity=127, time=189),
    Message('note_on', channel=9, note=37, velocity=0, time=3),
    Message('note_on', channel=9, note=37, velocity=127, time=188),
    Message('note_on', channel=9, note=37, velocity=0, time=4),
    Message('note_on', channel=9, note=37, velocity=127, time=188),
    Message('note_on', channel=9, note=37, velocity=0, time=3),
    Message('note_on', channel=9, note=37, velocity=127, time=190),
    Message('note_on', channel=9, note=37, velocity=0, time=3),
    Message('note_on', channel=9, note=37, velocity=127, time=189),
    Message('note_on', channel=9, note=37, velocity=0, time=3),
    Message('note_on', channel=9, note=37, velocity=127, time=189),
    Message('note_on', channel=9, note=37, velocity=0, time=3),
    Message('note_on', channel=9, note=37, velocity=127, time=188),
    Message('note_on', channel=9, note=37, velocity=0, time=3),
    Message('note_on', channel=9, note=37, velocity=127, time=190),
    Message('note_on', channel=9, note=37, velocity=0, time=3),
    Message('note_on', channel=9, note=37, velocity=127, time=189),
    Message('note_on', channel=9, note=37, velocity=0, time=3),
    Message('note_on', channel=9, note=37, velocity=127, time=188),
    Message('note_on', channel=9, note=37, velocity=0, time=3),
    Message('note_on', channel=9, note=37, velocity=127, time=190),
    Message('note_on', channel=9, note=37, velocity=0, time=3),
    Message('note_on', channel=9, note=37, velocity=127, time=189),
    Message('note_on', channel=9, note=37, velocity=0, time=3),
    Message('note_on', channel=9, note=37, velocity=127, time=189),
    Message('note_on', channel=9, note=37, velocity=0, time=3),
    Message('note_on', channel=9, note=37, velocity=127, time=189),
    Message('note_on', channel=9, note=37, velocity=0, time=3),
    Message('note_on', channel=9, note=37, velocity=127, time=188),
    Message('note_on', channel=9, note=37, velocity=0, time=3),
    MetaMessage('end_of_track', time=0)])
])
