MidiFile(type=1, ticks_per_beat=480, tracks=[
  MidiTrack([
    MetaMessage('time_signature', numerator=4, denominator=4, clocks_per_click=24, notated_32nd_notes_per_beat=8, time=0),
    MetaMessage('key_signature', key='A', time=0),
    MetaMessage('set_tempo', tempo=461538, time=0),
    Message('control_change', channel=0, control=121, value=0, time=0),
    Message('program_change', channel=0, program=0, time=0),
    Message('control_change', channel=0, control=7, value=100, time=0),
    Message('control_change', channel=0, control=10, value=64, time=0),
    Message('control_change', channel=0, control=91, value=0, time=0),
    Message('control_change', channel=0, control=93, value=0, time=0),
    MetaMessage('midi_port', port=0, time=0),
    Message('note_on', channel=0, note=71, velocity=80, time=0),
    Message('note_on', channel=0, note=71, velocity=0, time=227),
    Message('note_on', channel=0, note=69, velocity=80, time=13),
    Message('note_on', channel=0, note=69, velocity=0, time=227),
    Message('note_on', channel=0, note=71, velocity=80, time=13),
    Message('note_on', channel=0, note=71, velocity=0, time=227),
    Message('note_on', channel=0, note=74, velocity=80, time=13),
    Message('note_on', channel=0, note=74, velocity=0, time=455),
    Message('note_on', channel=0, note=69, velocity=80, time=25),
    Message('note_on', channel=0, note=69, velocity=0, time=227),
    Message('note_on', channel=0, note=71, velocity=80, time=13),
    Message('note_on', channel=0, note=71, velocity=0, time=227),
    Message('note_on', channel=0, note=76, velocity=80, time=13),
    Message('note_on', channel=0, note=76, velocity=0, time=227),
    Message('note_on', channel=0, note=71, velocity=80, time=13),
    Message('note_on', channel=0, note=71, velocity=0, time=227),
    Message('note_on', channel=0, note=69, velocity=80, time=13),
    Message('note_on', channel=0, note=69, velocity=0, time=227),
    Message('note_on', channel=0, note=71, velocity=80, time=13),
    Message('note_on', channel=0, note=71, velocity=0, time=227),
    Message('note_on', channel=0, note=78, velocity=80, time=13),
    Message('note_on', channel=0, note=78, velocity=0, time=455),
    Message('note_on', channel=0, note=71, velocity=80, time=25),
    Message('note_on', channel=0, note=71, velocity=0, time=227),
    Message('note_on', channel=0, note=69, velocity=80, time=13),
    Message('note_on', channel=0, note=69, velocity=0, time=227),
    Message('note_on', channel=0, note=71, velocity=80, time=13),
    Message('note_on', channel=0, note=71, velocity=0, time=227),
    Message('note_on', channel=0, note=71, velocity=80, time=13),
    Message('note_on', channel=0, note=71, velocity=0, time=227),
    Message('note_on', channel=0, note=69, velocity=80, time=13),
    Message('note_on', channel=0, note=69, velocity=0, time=227),
    Message('note_on', channel=0, note=71, velocity=80, time=13),
    Message('note_on', channel=0, note=71, velocity=0, time=227),
    Message('note_on', channel=0, note=74, velocity=80, time=13),
    Message('note_on', channel=0, note=74, velocity=0, time=455),
    Message('note_on', channel=0, note=69, velocity=80, time=25),
    Message('note_on', channel=0, note=69, velocity=0, time=227),
    Message('note_on', channel=0, note=71, velocity=80, time=13),
    Message('note_on', channel=0, note=71, velocity=0, time=227),
    Message('note_on', channel=0, note=76, velocity=80, time=13),
    Message('note_on', channel=0, note=76, velocity=0, time=227),
    Message('note_on', channel=0, note=81, velocity=80, time=13),
    Message('note_on', channel=0, note=81, velocity=0, time=227),
    Message('note_on', channel=0, note=69, velocity=80, time=13),
    Message('note_on', channel=0, note=69, velocity=0, time=227),
    Message('note_on', channel=0, note=71, velocity=80, time=13),
    Message('note_on', channel=0, note=71, velocity=0, time=227),
    Message('note_on', channel=0, note=76, velocity=80, time=13),
    Message('note_on', channel=0, note=76, velocity=0, time=227),
    Message('note_on', channel=0, note=71, velocity=49, time=13),
    Message('note_on', channel=0, note=71, velocity=0, time=227),
    Message('note_on', channel=0, note=69, velocity=80, time=13),
    Message('note_on', channel=0, note=69, velocity=0, time=227),
    Message('note_on', channel=0, note=81, velocity=80, time=13),
    Message('note_on', channel=0, note=81, velocity=0, time=227),
    Message('note_on', channel=0, note=71, velocity=80, time=13),
    Message('note_on', channel=0, note=71, velocity=0, time=227),
    Message('note_on', channel=0, note=71, velocity=80, time=13),
    Message('note_on', channel=0, note=71, velocity=0, time=227),
    Message('note_on', channel=0, note=69, velocity=80, time=13),
    Message('note_on', channel=0, note=69, velocity=0, time=227),
    Message('note_on', channel=0, note=71, velocity=80, time=13),
    Message('note_on', channel=0, note=71, velocity=0, time=227),
    Message('note_on', channel=0, note=74, velocity=80, time=13),
    Message('note_on', channel=0, note=74, velocity=0, time=455),
    Message('note_on', channel=0, note=69, velocity=80, time=25),
    Message('note_on', channel=0, note=69, velocity=0, time=227),
    Message('note_on', channel=0, note=71, velocity=80, time=13),
    Message('note_on', channel=0, note=71, velocity=0, time=227),
    Message('note_on', channel=0, note=76, velocity=80, time=13),
    Message('note_on', channel=0, note=76, velocity=0, time=227),
    Message('note_on', channel=0, note=71, velocity=80, time=13),
    Message('note_on', channel=0, note=71, velocity=0, time=227),
    Message('note_on', channel=0, note=69, velocity=80, time=13),
    Message('note_on', channel=0, note=69, velocity=0, time=227),
    Message('note_on', channel=0, note=71, velocity=80, time=13),
    Message('note_on', channel=0, note=71, velocity=0, time=227),
    Message('note_on', channel=0, note=78, velocity=80, time=13),
    Message('note_on', channel=0, note=78, velocity=0, time=455),
    Message('note_on', channel=0, note=71, velocity=80, time=25),
    Message('note_on', channel=0, note=71, velocity=0, time=227),
    Message('note_on', channel=0, note=69, velocity=80, time=13),
    Message('note_on', channel=0, note=69, velocity=0, time=227),
    Message('note_on', channel=0, note=71, velocity=80, time=13),
    Message('note_on', channel=0, note=71, velocity=0, time=227),
    Message('note_on', channel=0, note=71, velocity=80, time=13),
    Message('note_on', channel=0, note=71, velocity=0, time=227),
    Message('note_on', channel=0, note=69, velocity=80, time=13),
    Message('note_on', channel=0, note=69, velocity=0, time=227),
    Message('note_on', channel=0, note=71, velocity=80, time=13),
    Message('note_on', channel=0, note=71, velocity=0, time=227),
    Message('note_on', channel=0, note=74, velocity=80, time=13),
    Message('note_on', channel=0, note=74, velocity=0, time=455),
    Message('note_on', channel=0, note=69, velocity=80, time=25),
    Message('note_on', channel=0, note=69, velocity=0, time=227),
    Message('note_on', channel=0, note=71, velocity=80, time=13),
    Message('note_on', channel=0, note=71, velocity=0, time=227),
    Message('note_on', channel=0, note=74, velocity=80, time=13),
    Message('note_on', channel=0, note=74, velocity=0, time=227),
    Message('note_on', channel=0, note=81, velocity=80, time=13),
    Message('note_on', channel=0, note=81, velocity=0, time=227),
    Message('note_on', channel=0, note=69, velocity=80, time=13),
    Message('note_on', channel=0, note=69, velocity=0, time=227),
    Message('note_on', channel=0, note=78, velocity=80, time=13),
    Message('note_on', channel=0, note=78, velocity=0, time=227),
    Message('note_on', channel=0, note=69, velocity=80, time=13),
    Message('note_on', channel=0, note=69, velocity=0, time=227),
    Message('note_on', channel=0, note=76, velocity=80, time=13),
    Message('note_on', channel=0, note=76, velocity=0, time=227),
    Message('note_on', channel=0, note=69, velocity=80, time=13),
    Message('note_on', channel=0, note=69, velocity=0, time=227),
    Message('note_on', channel=0, note=78, velocity=80, time=13),
    Message('note_on', channel=0, note=78, velocity=0, time=227),
    Message('note_on', channel=0, note=71, velocity=49, time=13),
    Message('note_on', channel=0, note=71, velocity=0, time=227),
    Message('note_on', channel=0, note=83, velocity=80, time=13),
    Message('note_on', channel=0, note=83, velocity=0, time=227),
    Message('note_on', channel=0, note=81, velocity=80, time=13),
    Message('note_on', channel=0, note=81, velocity=0, time=227),
    Message('note_on', channel=0, note=83, velocity=80, time=13),
    Message('note_on', channel=0, note=83, velocity=0, time=227),
    Message('note_on', channel=0, note=86, velocity=80, time=13),
    Message('note_on', channel=0, note=86, velocity=0, time=455),
    Message('note_on', channel=0, note=81, velocity=80, time=25),
    Message('note_on', channel=0, note=81, velocity=0, time=227),
    Message('note_on', channel=0, note=83, velocity=80, time=13),
    Message('note_on', channel=0, note=83, velocity=0, time=227),
    Message('note_on', channel=0, note=88, velocity=80, time=13),
    Message('note_on', channel=0, note=88, velocity=0, time=227),
    Message('note_on', channel=0, note=83, velocity=80, time=13),
    Message('note_on', channel=0, note=83, velocity=0, time=227),
    Message('note_on', channel=0, note=81, velocity=80, time=13),
    Message('note_on', channel=0, note=81, velocity=0, time=227),
    Message('note_on', channel=0, note=83, velocity=80, time=13),
    Message('note_on', channel=0, note=83, velocity=0, time=227),
    Message('note_on', channel=0, note=90, velocity=80, time=13),
    Message('note_on', channel=0, note=90, velocity=0, time=455),
    Message('note_on', channel=0, note=83, velocity=80, time=25),
    Message('note_on', channel=0, note=83, velocity=0, time=227),
    Message('note_on', channel=0, note=81, velocity=80, time=13),
    Message('note_on', channel=0, note=81, velocity=0, time=227),
    Message('note_on', channel=0, note=83, velocity=80, time=13),
    Message('note_on', channel=0, note=83, velocity=0, time=227),
    Message('note_on', channel=0, note=83, velocity=80, time=13),
    Message('note_on', channel=0, note=83, velocity=0, time=227),
    Message('note_on', channel=0, note=81, velocity=80, time=13),
    Message('note_on', channel=0, note=81, velocity=0, time=227),
    Message('note_on', channel=0, note=83, velocity=80, time=13),
    Message('note_on', channel=0, note=83, velocity=0, time=227),
    Message('note_on', channel=0, note=86, velocity=80, time=13),
    Message('note_on', channel=0, note=86, velocity=0, time=455),
    Message('note_on', channel=0, note=81, velocity=80, time=25),
    Message('note_on', channel=0, note=81, velocity=0, time=227),
    Message('note_on', channel=0, note=83, velocity=80, time=13),
    Message('note_on', channel=0, note=83, velocity=0, time=227),
    Message('note_on', channel=0, note=88, velocity=80, time=13),
    Message('note_on', channel=0, note=88, velocity=0, time=227),
    Message('note_on', channel=0, note=83, velocity=80, time=13),
    Message('note_on', channel=0, note=83, velocity=0, time=227),
    Message('note_on', channel=0, note=81, velocity=80, time=13),
    Message('note_on', channel=0, note=81, velocity=0, time=227),
    Message('note_on', channel=0, note=83, velocity=80, time=13),
    Message('note_on', channel=0, note=83, velocity=0, time=227),
    Message('note_on', channel=0, note=86, velocity=80, time=13),
    Message('note_on', channel=0, note=86, velocity=0, time=455),
    Message('note_on', channel=0, note=81, velocity=80, time=25),
    Message('note_on', channel=0, note=81, velocity=0, time=227),
    Message('note_on', channel=0, note=83, velocity=80, time=13),
    Message('note_on', channel=0, note=83, velocity=0, time=227),
    Message('note_on', channel=0, note=90, velocity=80, time=13),
    Message('note_on', channel=0, note=90, velocity=0, time=227),
    Message('note_on', channel=0, note=71, velocity=80, time=13),
    Message('note_on', channel=0, note=76, velocity=80, time=0),
    Message('note_on', channel=0, note=83, velocity=80, time=0),
    Message('note_on', channel=0, note=71, velocity=0, time=1823),
    Message('note_on', channel=0, note=76, velocity=0, time=0),
    Message('note_on', channel=0, note=83, velocity=0, time=0),
    Message('note_on', channel=0, note=73, velocity=80, time=1057),
    Message('note_on', channel=0, note=85, velocity=80, time=0),
    Message('note_on', channel=0, note=73, velocity=0, time=911),
    Message('note_on', channel=0, note=85, velocity=0, time=0),
    Message('note_on', channel=0, note=69, velocity=80, time=49),
    Message('note_on', channel=0, note=81, velocity=80, time=0),
    Message('note_on', channel=0, note=69, velocity=0, time=1823),
    Message('note_on', channel=0, note=81, velocity=0, time=0),
    Message('note_on', channel=0, note=69, velocity=80, time=1057),
    Message('note_on', channel=0, note=73, velocity=80, time=63),
    Message('note_on', channel=0, note=76, velocity=80, time=64),
    Message('note_on', channel=0, note=81, velocity=80, time=65),
    Message('note_on', channel=0, note=73, velocity=0, time=286),
    Message('note_on', channel=0, note=76, velocity=0, time=0),
    Message('note_on', channel=0, note=69, velocity=0, time=1),
    Message('note_on', channel=0, note=81, velocity=0, time=0),
    Message('note_on', channel=0, note=66, velocity=80, time=1),
    Message('note_on', channel=0, note=69, velocity=80, time=0),
    Message('note_on', channel=0, note=73, velocity=80, time=0),
    Message('note_on', channel=0, note=78, velocity=80, time=0),
    Message('note_on', channel=0, note=66, velocity=0, time=455),
    Message('note_on', channel=0, note=69, velocity=0, time=0),
    Message('note_on', channel=0, note=73, velocity=0, time=0),
    Message('note_on', channel=0, note=78, velocity=0, time=0),
    Message('note_on', channel=0, note=71, velocity=80, time=745),
    Message('note_on', channel=0, note=71, velocity=0, time=227),
    Message('note_on', channel=0, note=71, velocity=80, time=13),
    Message('note_on', channel=0, note=78, velocity=80, time=0),
    Message('note_on', channel=0, note=71, velocity=0, time=341),
    Message('note_on', channel=0, note=78, velocity=0, time=0),
    Message('note_on', channel=0, note=71, velocity=80, time=19),
    Message('note_on', channel=0, note=78, velocity=80, time=0),
    Message('note_on', channel=0, note=71, velocity=0, time=341),
    Message('note_on', channel=0, note=78, velocity=0, time=0),
    Message('note_on', channel=0, note=69, velocity=80, time=19),
    Message('note_on', channel=0, note=76, velocity=80, time=0),
    Message('note_on', channel=0, note=69, velocity=0, time=455),
    Message('note_on', channel=0, note=76, velocity=0, time=0),
    Message('note_on', channel=0, note=69, velocity=80, time=505),
    Message('note_on', channel=0, note=69, velocity=0, time=227),
    Message('note_on', channel=0, note=69, velocity=80, time=13),
    Message('note_on', channel=0, note=76, velocity=80, time=0),
    Message('note_on', channel=0, note=69, velocity=0, time=341),
    Message('note_on', channel=0, note=76, velocity=0, time=0),
    Message('note_on', channel=0, note=69, velocity=80, time=19),
    Message('note_on', channel=0, note=76, velocity=80, time=0),
    Message('note_on', channel=0, note=69, velocity=0, time=341),
    Message('note_on', channel=0, note=76, velocity=0, time=0),
    Message('note_on', channel=0, note=69, velocity=80, time=19),
    Message('note_on', channel=0, note=74, velocity=80, time=0),
    Message('note_on', channel=0, note=69, velocity=0, time=455),
    Message('note_on', channel=0, note=74, velocity=0, time=0),
    Message('note_on', channel=0, note=68, velocity=80, time=505),
    Message('note_on', channel=0, note=73, velocity=80, time=0),
    Message('note_on', channel=0, note=68, velocity=0, time=227),
    Message('note_on', channel=0, note=73, velocity=0, time=0),
    Message('note_on', channel=0, note=68, velocity=80, time=13),
    Message('note_on', channel=0, note=73, velocity=80, time=0),
    Message('note_on', channel=0, note=68, velocity=0, time=341),
    Message('note_on', channel=0, note=73, velocity=0, time=0),
    Message('note_on', channel=0, note=68, velocity=80, time=19),
    Message('note_on', channel=0, note=73, velocity=80, time=0),
    Message('note_on', channel=0, note=68, velocity=0, time=341),
    Message('note_on', channel=0, note=73, velocity=0, time=0),
    Message('note_on', channel=0, note=74, velocity=80, time=19),
    Message('note_on', channel=0, note=74, velocity=0, time=455),
    Message('note_on', channel=0, note=73, velocity=80, time=265),
    Message('note_on', channel=0, note=73, velocity=0, time=455),
    Message('note_on', channel=0, note=68, velocity=80, time=25),
    Message('note_on', channel=0, note=74, velocity=80, time=0),
    Message('note_on', channel=0, note=68, velocity=0, time=341),
    Message('note_on', channel=0, note=74, velocity=0, time=0),
    Message('note_on', channel=0, note=66, velocity=80, time=19),
    Message('note_on', channel=0, note=71, velocity=80, time=0),
    Message('note_on', channel=0, note=66, velocity=0, time=341),
    Message('note_on', channel=0, note=71, velocity=0, time=0),
    Message('note_on', channel=0, note=66, velocity=80, time=19),
    Message('note_on', channel=0, note=71, velocity=80, time=0),
    Message('note_on', channel=0, note=66, velocity=0, time=341),
    Message('note_on', channel=0, note=71, velocity=0, time=0),
    Message('note_on', channel=0, note=71, velocity=80, time=619),
    Message('note_on', channel=0, note=71, velocity=0, time=227),
    Message('note_on', channel=0, note=71, velocity=80, time=13),
    Message('note_on', channel=0, note=78, velocity=80, time=0),
    Message('note_on', channel=0, note=71, velocity=0, time=341),
    Message('note_on', channel=0, note=78, velocity=0, time=0),
    Message('note_on', channel=0, note=71, velocity=80, time=19),
    Message('note_on', channel=0, note=78, velocity=80, time=0),
    Message('note_on', channel=0, note=71, velocity=0, time=341),
    Message('note_on', channel=0, note=78, velocity=0, time=0),
    Message('note_on', channel=0, note=69, velocity=80, time=19),
    Message('note_on', channel=0, note=76, velocity=80, time=0),
    Message('note_on', channel=0, note=69, velocity=0, time=455),
    Message('note_on', channel=0, note=76, velocity=0, time=0),
    Message('note_on', channel=0, note=64, velocity=80, time=505),
    Message('note_on', channel=0, note=69, velocity=80, time=0),
    Message('note_on', channel=0, note=64, velocity=0, time=227),
    Message('note_on', channel=0, note=69, velocity=0, time=0),
    Message('note_on', channel=0, note=64, velocity=80, time=13),
    Message('note_on', channel=0, note=69, velocity=80, time=0),
    Message('note_on', channel=0, note=64, velocity=0, time=227),
    Message('note_on', channel=0, note=69, velocity=0, time=0),
    Message('note_on', channel=0, note=64, velocity=80, time=13),
    Message('note_on', channel=0, note=69, velocity=80, time=0),
    Message('note_on', channel=0, note=64, velocity=0, time=227),
    Message('note_on', channel=0, note=69, velocity=0, time=0),
    Message('note_on', channel=0, note=64, velocity=80, time=13),
    Message('note_on', channel=0, note=69, velocity=80, time=0),
    Message('note_on', channel=0, note=64, velocity=0, time=455),
    Message('note_on', channel=0, note=69, velocity=0, time=0),
    Message('note_on', channel=0, note=64, velocity=80, time=1225),
    Message('note_on', channel=0, note=64, velocity=0, time=227),
    Message('note_on', channel=0, note=68, velocity=80, time=13),
    Message('note_on', channel=0, note=73, velocity=80, time=0),
    Message('note_on', channel=0, note=68, velocity=0, time=227),
    Message('note_on', channel=0, note=73, velocity=0, time=0),
    Message('note_on', channel=0, note=71, velocity=80, time=13),
    Message('note_on', channel=0, note=71, velocity=0, time=455),
    Message('note_on', channel=0, note=71, velocity=80, time=2425),
    Message('note_on', channel=0, note=71, velocity=0, time=227),
    Message('note_on', channel=0, note=71, velocity=80, time=13),
    Message('note_on', channel=0, note=78, velocity=80, time=0),
    Message('note_on', channel=0, note=71, velocity=0, time=341),
    Message('note_on', channel=0, note=78, velocity=0, time=0),
    Message('note_on', channel=0, note=71, velocity=80, time=19),
    Message('note_on', channel=0, note=78, velocity=80, time=0),
    Message('note_on', channel=0, note=71, velocity=0, time=341),
    Message('note_on', channel=0, note=78, velocity=0, time=0),
    Message('note_on', channel=0, note=69, velocity=80, time=19),
    Message('note_on', channel=0, note=76, velocity=80, time=0),
    Message('note_on', channel=0, note=69, velocity=0, time=455),
    Message('note_on', channel=0, note=76, velocity=0, time=0),
    Message('note_on', channel=0, note=69, velocity=80, time=505),
    Message('note_on', channel=0, note=69, velocity=0, time=227),
    Message('note_on', channel=0, note=69, velocity=80, time=13),
    Message('note_on', channel=0, note=76, velocity=80, time=0),
    Message('note_on', channel=0, note=69, velocity=0, time=341),
    Message('note_on', channel=0, note=76, velocity=0, time=0),
    Message('note_on', channel=0, note=69, velocity=80, time=19),
    Message('note_on', channel=0, note=76, velocity=80, time=0),
    Message('note_on', channel=0, note=69, velocity=0, time=341),
    Message('note_on', channel=0, note=76, velocity=0, time=0),
    Message('note_on', channel=0, note=69, velocity=80, time=19),
    Message('note_on', channel=0, note=74, velocity=80, time=0),
    Message('note_on', channel=0, note=69, velocity=0, time=455),
    Message('note_on', channel=0, note=74, velocity=0, time=0),
    Message('note_on', channel=0, note=68, velocity=80, time=505),
    Message('note_on', channel=0, note=73, velocity=80, time=0),
    Message('note_on', channel=0, note=68, velocity=0, time=227),
    Message('note_on', channel=0, note=73, velocity=0, time=0),
    Message('note_on', channel=0, note=68, velocity=80, time=13),
    Message('note_on', channel=0, note=73, velocity=80, time=0),
    Message('note_on', channel=0, note=68, velocity=0, time=341),
    Message('note_on', channel=0, note=73, velocity=0, time=0),
    Message('note_on', channel=0, note=68, velocity=80, time=19),
    Message('note_on', channel=0, note=73, velocity=80, time=0),
    Message('note_on', channel=0, note=68, velocity=0, time=341),
    Message('note_on', channel=0, note=73, velocity=0, time=0),
    Message('note_on', channel=0, note=74, velocity=80, time=19),
    Message('note_on', channel=0, note=74, velocity=0, time=455),
    Message('note_on', channel=0, note=73, velocity=80, time=265),
    Message('note_on', channel=0, note=73, velocity=0, time=455),
    Message('note_on', channel=0, note=68, velocity=80, time=25),
    Message('note_on', channel=0, note=74, velocity=80, time=0),
    Message('note_on', channel=0, note=68, velocity=0, time=341),
    Message('note_on', channel=0, note=74, velocity=0, time=0),
    Message('note_on', channel=0, note=66, velocity=80, time=19),
    Message('note_on', channel=0, note=71, velocity=80, time=0),
    Message('note_on', channel=0, note=66, velocity=0, time=341),
    Message('note_on', channel=0, note=71, velocity=0, time=0),
    Message('note_on', channel=0, note=66, velocity=80, time=19),
    Message('note_on', channel=0, note=71, velocity=80, time=0),
    Message('note_on', channel=0, note=66, velocity=0, time=341),
    Message('note_on', channel=0, note=71, velocity=0, time=0),
    Message('note_on', channel=0, note=71, velocity=80, time=619),
    Message('note_on', channel=0, note=71, velocity=0, time=227),
    Message('note_on', channel=0, note=71, velocity=80, time=13),
    Message('note_on', channel=0, note=78, velocity=80, time=0),
    Message('note_on', channel=0, note=71, velocity=0, time=341),
    Message('note_on', channel=0, note=78, velocity=0, time=0),
    Message('note_on', channel=0, note=71, velocity=80, time=19),
    Message('note_on', channel=0, note=78, velocity=80, time=0),
    Message('note_on', channel=0, note=71, velocity=0, time=341),
    Message('note_on', channel=0, note=78, velocity=0, time=0),
    Message('note_on', channel=0, note=69, velocity=80, time=19),
    Message('note_on', channel=0, note=76, velocity=80, time=0),
    Message('note_on', channel=0, note=69, velocity=0, time=455),
    Message('note_on', channel=0, note=76, velocity=0, time=0),
    Message('note_on', channel=0, note=64, velocity=80, time=505),
    Message('note_on', channel=0, note=69, velocity=80, time=0),
    Message('note_on', channel=0, note=64, velocity=0, time=227),
    Message('note_on', channel=0, note=69, velocity=0, time=0),
    Message('note_on', channel=0, note=64, velocity=80, time=13),
    Message('note_on', channel=0, note=69, velocity=80, time=0),
    Message('note_on', channel=0, note=64, velocity=0, time=227),
    Message('note_on', channel=0, note=69, velocity=0, time=0),
    Message('note_on', channel=0, note=64, velocity=80, time=13),
    Message('note_on', channel=0, note=69, velocity=80, time=0),
    Message('note_on', channel=0, note=64, velocity=0, time=227),
    Message('note_on', channel=0, note=69, velocity=0, time=0),
    Message('note_on', channel=0, note=64, velocity=80, time=13),
    Message('note_on', channel=0, note=69, velocity=80, time=0),
    Message('note_on', channel=0, note=64, velocity=0, time=455),
    Message('note_on', channel=0, note=69, velocity=0, time=0),
    Message('note_on', channel=0, note=64, velocity=80, time=1225),
    Message('note_on', channel=0, note=64, velocity=0, time=227),
    Message('note_on', channel=0, note=68, velocity=80, time=13),
    Message('note_on', channel=0, note=73, velocity=80, time=0),
    Message('note_on', channel=0, note=68, velocity=0, time=227),
    Message('note_on', channel=0, note=73, velocity=0, time=0),
    Message('note_on', channel=0, note=71, velocity=80, time=13),
    Message('note_on', channel=0, note=71, velocity=0, time=455),
    Message('note_on', channel=0, note=59, velocity=80, time=265),
    Message('note_on', channel=0, note=71, velocity=80, time=0),
    Message('note_on', channel=0, note=59, velocity=0, time=455),
    Message('note_on', channel=0, note=71, velocity=0, time=0),
    Message('note_on', channel=0, note=59, velocity=80, time=25),
    Message('note_on', channel=0, note=71, velocity=80, time=0),
    Message('note_on', channel=0, note=59, velocity=0, time=455),
    Message('note_on', channel=0, note=71, velocity=0, time=0),
    Message('note_on', channel=0, note=59, velocity=80, time=25),
    Message('note_on', channel=0, note=71, velocity=80, time=0),
    Message('note_on', channel=0, note=59, velocity=0, time=455),
    Message('note_on', channel=0, note=71, velocity=0, time=0),
    Message('note_on', channel=0, note=59, velocity=96, time=25),
    Message('note_on', channel=0, note=62, velocity=96, time=0),
    Message('note_on', channel=0, note=66, velocity=96, time=0),
    Message('note_on', channel=0, note=71, velocity=96, time=0),
    Message('note_on', channel=0, note=59, velocity=0, time=455),
    Message('note_on', channel=0, note=62, velocity=0, time=0),
    Message('note_on', channel=0, note=66, velocity=0, time=0),
    Message('note_on', channel=0, note=71, velocity=0, time=0),
    Message('note_on', channel=0, note=71, velocity=96, time=25),
    Message('note_on', channel=0, note=74, velocity=96, time=0),
    Message('note_on', channel=0, note=78, velocity=96, time=0),
    Message('note_on', channel=0, note=83, velocity=96, time=0),
    Message('note_on', channel=0, note=71, velocity=0, time=455),
    Message('note_on', channel=0, note=74, velocity=0, time=0),
    Message('note_on', channel=0, note=78, velocity=0, time=0),
    Message('note_on', channel=0, note=83, velocity=0, time=0),
    Message('note_on', channel=0, note=71, velocity=96, time=25),
    Message('note_on', channel=0, note=74, velocity=96, time=0),
    Message('note_on', channel=0, note=78, velocity=96, time=0),
    Message('note_on', channel=0, note=83, velocity=96, time=0),
    Message('note_on', channel=0, note=71, velocity=0, time=455),
    Message('note_on', channel=0, note=74, velocity=0, time=0),
    Message('note_on', channel=0, note=78, velocity=0, time=0),
    Message('note_on', channel=0, note=83, velocity=0, time=0),
    Message('note_on', channel=0, note=71, velocity=96, time=25),
    Message('note_on', channel=0, note=74, velocity=96, time=0),
    Message('note_on', channel=0, note=78, velocity=96, time=0),
    Message('note_on', channel=0, note=83, velocity=96, time=0),
    Message('note_on', channel=0, note=71, velocity=0, time=455),
    Message('note_on', channel=0, note=74, velocity=0, time=0),
    Message('note_on', channel=0, note=78, velocity=0, time=0),
    Message('note_on', channel=0, note=83, velocity=0, time=0),
    Message('note_on', channel=0, note=69, velocity=96, time=25),
    Message('note_on', channel=0, note=74, velocity=96, time=0),
    Message('note_on', channel=0, note=78, velocity=96, time=0),
    Message('note_on', channel=0, note=81, velocity=96, time=0),
    Message('note_on', channel=0, note=69, velocity=0, time=455),
    Message('note_on', channel=0, note=74, velocity=0, time=0),
    Message('note_on', channel=0, note=78, velocity=0, time=0),
    Message('note_on', channel=0, note=81, velocity=0, time=0),
    Message('note_on', channel=0, note=69, velocity=96, time=25),
    Message('note_on', channel=0, note=74, velocity=96, time=0),
    Message('note_on', channel=0, note=78, velocity=96, time=0),
    Message('note_on', channel=0, note=81, velocity=96, time=0),
    Message('note_on', channel=0, note=69, velocity=0, time=455),
    Message('note_on', channel=0, note=74, velocity=0, time=0),
    Message('note_on', channel=0, note=78, velocity=0, time=0),
    Message('note_on', channel=0, note=81, velocity=0, time=0),
    Message('note_on', channel=0, note=66, velocity=96, time=25),
    Message('note_on', channel=0, note=69, velocity=96, time=0),
    Message('note_on', channel=0, note=74, velocity=96, time=0),
    Message('note_on', channel=0, note=78, velocity=96, time=0),
    Message('note_on', channel=0, note=66, velocity=0, time=911),
    Message('note_on', channel=0, note=69, velocity=0, time=0),
    Message('note_on', channel=0, note=74, velocity=0, time=0),
    Message('note_on', channel=0, note=78, velocity=0, time=0),
    Message('note_on', channel=0, note=57, velocity=96, time=49),
    Message('note_on', channel=0, note=61, velocity=96, time=0),
    Message('note_on', channel=0, note=64, velocity=96, time=0),
    Message('note_on', channel=0, note=69, velocity=96, time=0),
    Message('note_on', channel=0, note=57, velocity=0, time=455),
    Message('note_on', channel=0, note=61, velocity=0, time=0),
    Message('note_on', channel=0, note=64, velocity=0, time=0),
    Message('note_on', channel=0, note=69, velocity=0, time=0),
    Message('note_on', channel=0, note=69, velocity=96, time=25),
    Message('note_on', channel=0, note=73, velocity=96, time=0),
    Message('note_on', channel=0, note=76, velocity=96, time=0),
    Message('note_on', channel=0, note=81, velocity=96, time=0),
    Message('note_on', channel=0, note=69, velocity=0, time=455),
    Message('note_on', channel=0, note=73, velocity=0, time=0),
    Message('note_on', channel=0, note=76, velocity=0, time=0),
    Message('note_on', channel=0, note=81, velocity=0, time=0),
    Message('note_on', channel=0, note=69, velocity=96, time=25),
    Message('note_on', channel=0, note=73, velocity=96, time=0),
    Message('note_on', channel=0, note=76, velocity=96, time=0),
    Message('note_on', channel=0, note=81, velocity=96, time=0),
    Message('note_on', channel=0, note=69, velocity=0, time=455),
    Message('note_on', channel=0, note=73, velocity=0, time=0),
    Message('note_on', channel=0, note=76, velocity=0, time=0),
    Message('note_on', channel=0, note=81, velocity=0, time=0),
    Message('note_on', channel=0, note=69, velocity=96, time=25),
    Message('note_on', channel=0, note=73, velocity=96, time=0),
    Message('note_on', channel=0, note=76, velocity=96, time=0),
    Message('note_on', channel=0, note=81, velocity=96, time=0),
    Message('note_on', channel=0, note=69, velocity=0, time=455),
    Message('note_on', channel=0, note=73, velocity=0, time=0),
    Message('note_on', channel=0, note=76, velocity=0, time=0),
    Message('note_on', channel=0, note=81, velocity=0, time=0),
    Message('note_on', channel=0, note=68, velocity=96, time=25),
    Message('note_on', channel=0, note=71, velocity=96, time=0),
    Message('note_on', channel=0, note=76, velocity=96, time=0),
    Message('note_on', channel=0, note=80, velocity=96, time=0),
    Message('note_on', channel=0, note=68, velocity=0, time=455),
    Message('note_on', channel=0, note=71, velocity=0, time=0),
    Message('note_on', channel=0, note=76, velocity=0, time=0),
    Message('note_on', channel=0, note=80, velocity=0, time=0),
    Message('note_on', channel=0, note=68, velocity=96, time=25),
    Message('note_on', channel=0, note=71, velocity=96, time=0),
    Message('note_on', channel=0, note=76, velocity=96, time=0),
    Message('note_on', channel=0, note=80, velocity=96, time=0),
    Message('note_on', channel=0, note=68, velocity=0, time=455),
    Message('note_on', channel=0, note=71, velocity=0, time=0),
    Message('note_on', channel=0, note=76, velocity=0, time=0),
    Message('note_on', channel=0, note=80, velocity=0, time=0),
    Message('note_on', channel=0, note=64, velocity=96, time=25),
    Message('note_on', channel=0, note=68, velocity=96, time=0),
    Message('note_on', channel=0, note=71, velocity=96, time=0),
    Message('note_on', channel=0, note=76, velocity=96, time=0),
    Message('note_on', channel=0, note=64, velocity=0, time=455),
    Message('note_on', channel=0, note=68, velocity=0, time=0),
    Message('note_on', channel=0, note=71, velocity=0, time=0),
    Message('note_on', channel=0, note=76, velocity=0, time=0),
    Message('note_on', channel=0, note=66, velocity=96, time=505),
    Message('note_on', channel=0, note=71, velocity=96, time=0),
    Message('note_on', channel=0, note=78, velocity=96, time=0),
    Message('note_on', channel=0, note=66, velocity=0, time=227),
    Message('note_on', channel=0, note=71, velocity=0, time=0),
    Message('note_on', channel=0, note=78, velocity=0, time=0),
    Message('note_on', channel=0, note=64, velocity=96, time=13),
    Message('note_on', channel=0, note=76, velocity=96, time=0),
    Message('note_on', channel=0, note=64, velocity=0, time=227),
    Message('note_on', channel=0, note=76, velocity=0, time=0),
    Message('note_on', channel=0, note=64, velocity=96, time=13),
    Message('note_on', channel=0, note=71, velocity=96, time=0),
    Message('note_on', channel=0, note=76, velocity=96, time=0),
    Message('note_on', channel=0, note=64, velocity=0, time=227),
    Message('note_on', channel=0, note=71, velocity=0, time=0),
    Message('note_on', channel=0, note=76, velocity=0, time=0),
    Message('note_on', channel=0, note=62, velocity=96, time=13),
    Message('note_on', channel=0, note=71, velocity=96, time=0),
    Message('note_on', channel=0, note=74, velocity=96, time=0),
    Message('note_on', channel=0, note=62, velocity=0, time=227),
    Message('note_on', channel=0, note=71, velocity=0, time=0),
    Message('note_on', channel=0, note=74, velocity=0, time=0),
    Message('note_on', channel=0, note=64, velocity=96, time=13),
    Message('note_on', channel=0, note=71, velocity=96, time=0),
    Message('note_on', channel=0, note=76, velocity=96, time=0),
    Message('note_on', channel=0, note=64, velocity=0, time=455),
    Message('note_on', channel=0, note=71, velocity=0, time=0),
    Message('note_on', channel=0, note=76, velocity=0, time=0),
    Message('note_on', channel=0, note=59, velocity=96, time=25),
    Message('note_on', channel=0, note=62, velocity=96, time=0),
    Message('note_on', channel=0, note=71, velocity=96, time=0),
    Message('note_on', channel=0, note=59, velocity=0, time=455),
    Message('note_on', channel=0, note=62, velocity=0, time=0),
    Message('note_on', channel=0, note=71, velocity=0, time=0),
    Message('note_on', channel=0, note=64, velocity=96, time=505),
    Message('note_on', channel=0, note=71, velocity=96, time=0),
    Message('note_on', channel=0, note=76, velocity=96, time=0),
    Message('note_on', channel=0, note=64, velocity=0, time=227),
    Message('note_on', channel=0, note=71, velocity=0, time=0),
    Message('note_on', channel=0, note=76, velocity=0, time=0),
    Message('note_on', channel=0, note=62, velocity=96, time=13),
    Message('note_on', channel=0, note=71, velocity=96, time=0),
    Message('note_on', channel=0, note=74, velocity=96, time=0),
    Message('note_on', channel=0, note=62, velocity=0, time=227),
    Message('note_on', channel=0, note=71, velocity=0, time=0),
    Message('note_on', channel=0, note=74, velocity=0, time=0),
    Message('note_on', channel=0, note=64, velocity=96, time=13),
    Message('note_on', channel=0, note=71, velocity=96, time=0),
    Message('note_on', channel=0, note=76, velocity=96, time=0),
    Message('note_on', channel=0, note=64, velocity=0, time=455),
    Message('note_on', channel=0, note=71, velocity=0, time=0),
    Message('note_on', channel=0, note=76, velocity=0, time=0),
    Message('note_on', channel=0, note=59, velocity=96, time=25),
    Message('note_on', channel=0, note=62, velocity=96, time=0),
    Message('note_on', channel=0, note=71, velocity=96, time=0),
    Message('note_on', channel=0, note=59, velocity=0, time=455),
    Message('note_on', channel=0, note=62, velocity=0, time=0),
    Message('note_on', channel=0, note=71, velocity=0, time=0),
    Message('note_on', channel=0, note=64, velocity=96, time=505),
    Message('note_on', channel=0, note=69, velocity=96, time=0),
    Message('note_on', channel=0, note=76, velocity=96, time=0),
    Message('note_on', channel=0, note=64, velocity=0, time=227),
    Message('note_on', channel=0, note=69, velocity=0, time=0),
    Message('note_on', channel=0, note=76, velocity=0, time=0),
    Message('note_on', channel=0, note=62, velocity=96, time=13),
    Message('note_on', channel=0, note=69, velocity=96, time=0),
    Message('note_on', channel=0, note=74, velocity=96, time=0),
    Message('note_on', channel=0, note=62, velocity=0, time=227),
    Message('note_on', channel=0, note=69, velocity=0, time=0),
    Message('note_on', channel=0, note=74, velocity=0, time=0),
    Message('note_on', channel=0, note=64, velocity=96, time=13),
    Message('note_on', channel=0, note=69, velocity=96, time=0),
    Message('note_on', channel=0, note=76, velocity=96, time=0),
    Message('note_on', channel=0, note=64, velocity=0, time=455),
    Message('note_on', channel=0, note=69, velocity=0, time=0),
    Message('note_on', channel=0, note=76, velocity=0, time=0),
    Message('note_on', channel=0, note=59, velocity=96, time=25),
    Message('note_on', channel=0, note=62, velocity=96, time=0),
    Message('note_on', channel=0, note=71, velocity=96, time=0),
    Message('note_on', channel=0, note=59, velocity=0, time=455),
    Message('note_on', channel=0, note=62, velocity=0, time=0),
    Message('note_on', channel=0, note=71, velocity=0, time=0),
    Message('note_on', channel=0, note=71, velocity=96, time=505),
    Message('note_on', channel=0, note=83, velocity=96, time=0),
    Message('note_on', channel=0, note=71, velocity=0, time=227),
    Message('note_on', channel=0, note=83, velocity=0, time=0),
    Message('note_on', channel=0, note=71, velocity=96, time=13),
    Message('note_on', channel=0, note=83, velocity=96, time=0),
    Message('note_on', channel=0, note=71, velocity=0, time=227),
    Message('note_on', channel=0, note=83, velocity=0, time=0),
    Message('note_on', channel=0, note=71, velocity=96, time=13),
    Message('note_on', channel=0, note=83, velocity=96, time=0),
    Message('note_on', channel=0, note=71, velocity=0, time=455),
    Message('note_on', channel=0, note=83, velocity=0, time=0),
    Message('note_on', channel=0, note=74, velocity=96, time=25),
    Message('note_on', channel=0, note=86, velocity=96, time=0),
    Message('note_on', channel=0, note=74, velocity=0, time=455),
    Message('note_on', channel=0, note=86, velocity=0, time=0),
    Message('note_on', channel=0, note=66, velocity=96, time=265),
    Message('note_on', channel=0, note=71, velocity=96, time=0),
    Message('note_on', channel=0, note=74, velocity=96, time=0),
    Message('note_on', channel=0, note=78, velocity=96, time=0),
    Message('note_on', channel=0, note=66, velocity=0, time=227),
    Message('note_on', channel=0, note=71, velocity=0, time=0),
    Message('note_on', channel=0, note=74, velocity=0, time=0),
    Message('note_on', channel=0, note=78, velocity=0, time=0),
    Message('note_on', channel=0, note=64, velocity=96, time=13),
    Message('note_on', channel=0, note=76, velocity=96, time=0),
    Message('note_on', channel=0, note=64, velocity=0, time=227),
    Message('note_on', channel=0, note=76, velocity=0, time=0),
    Message('note_on', channel=0, note=62, velocity=96, time=13),
    Message('note_on', channel=0, note=74, velocity=96, time=0),
    Message('note_on', channel=0, note=62, velocity=0, time=227),
    Message('note_on', channel=0, note=74, velocity=0, time=0),
    Message('note_on', channel=0, note=64, velocity=96, time=13),
    Message('note_on', channel=0, note=71, velocity=96, time=0),
    Message('note_on', channel=0, note=74, velocity=96, time=0),
    Message('note_on', channel=0, note=76, velocity=96, time=0),
    Message('note_on', channel=0, note=64, velocity=0, time=455),
    Message('note_on', channel=0, note=71, velocity=0, time=0),
    Message('note_on', channel=0, note=74, velocity=0, time=0),
    Message('note_on', channel=0, note=76, velocity=0, time=0),
    Message('note_on', channel=0, note=59, velocity=96, time=25),
    Message('note_on', channel=0, note=62, velocity=96, time=0),
    Message('note_on', channel=0, note=66, velocity=96, time=0),
    Message('note_on', channel=0, note=71, velocity=96, time=0),
    Message('note_on', channel=0, note=59, velocity=0, time=455),
    Message('note_on', channel=0, note=62, velocity=0, time=0),
    Message('note_on', channel=0, note=66, velocity=0, time=0),
    Message('note_on', channel=0, note=71, velocity=0, time=0),
    Message('note_on', channel=0, note=66, velocity=96, time=265),
    Message('note_on', channel=0, note=69, velocity=96, time=0),
    Message('note_on', channel=0, note=74, velocity=96, time=0),
    Message('note_on', channel=0, note=78, velocity=96, time=0),
    Message('note_on', channel=0, note=66, velocity=0, time=227),
    Message('note_on', channel=0, note=69, velocity=0, time=0),
    Message('note_on', channel=0, note=74, velocity=0, time=0),
    Message('note_on', channel=0, note=78, velocity=0, time=0),
    Message('note_on', channel=0, note=64, velocity=96, time=13),
    Message('note_on', channel=0, note=76, velocity=96, time=0),
    Message('note_on', channel=0, note=64, velocity=0, time=227),
    Message('note_on', channel=0, note=76, velocity=0, time=0),
    Message('note_on', channel=0, note=62, velocity=96, time=13),
    Message('note_on', channel=0, note=74, velocity=96, time=0),
    Message('note_on', channel=0, note=62, velocity=0, time=227),
    Message('note_on', channel=0, note=74, velocity=0, time=0),
    Message('note_on', channel=0, note=64, velocity=96, time=13),
    Message('note_on', channel=0, note=69, velocity=96, time=0),
    Message('note_on', channel=0, note=74, velocity=96, time=0),
    Message('note_on', channel=0, note=76, velocity=96, time=0),
    Message('note_on', channel=0, note=64, velocity=0, time=455),
    Message('note_on', channel=0, note=69, velocity=0, time=0),
    Message('note_on', channel=0, note=74, velocity=0, time=0),
    Message('note_on', channel=0, note=76, velocity=0, time=0),
    Message('note_on', channel=0, note=57, velocity=96, time=25),
    Message('note_on', channel=0, note=61, velocity=96, time=0),
    Message('note_on', channel=0, note=64, velocity=96, time=0),
    Message('note_on', channel=0, note=69, velocity=96, time=0),
    Message('note_on', channel=0, note=57, velocity=0, time=455),
    Message('note_on', channel=0, note=61, velocity=0, time=0),
    Message('note_on', channel=0, note=64, velocity=0, time=0),
    Message('note_on', channel=0, note=69, velocity=0, time=0),
    Message('note_on', channel=0, note=69, velocity=96, time=265),
    Message('note_on', channel=0, note=73, velocity=96, time=0),
    Message('note_on', channel=0, note=76, velocity=96, time=0),
    Message('note_on', channel=0, note=81, velocity=96, time=0),
    Message('note_on', channel=0, note=69, velocity=0, time=227),
    Message('note_on', channel=0, note=73, velocity=0, time=0),
    Message('note_on', channel=0, note=76, velocity=0, time=0),
    Message('note_on', channel=0, note=81, velocity=0, time=0),
    Message('note_on', channel=0, note=69, velocity=96, time=13),
    Message('note_on', channel=0, note=73, velocity=96, time=0),
    Message('note_on', channel=0, note=76, velocity=96, time=0),
    Message('note_on', channel=0, note=81, velocity=96, time=0),
    Message('note_on', channel=0, note=69, velocity=0, time=227),
    Message('note_on', channel=0, note=73, velocity=0, time=0),
    Message('note_on', channel=0, note=76, velocity=0, time=0),
    Message('note_on', channel=0, note=81, velocity=0, time=0),
    Message('note_on', channel=0, note=69, velocity=96, time=13),
    Message('note_on', channel=0, note=73, velocity=96, time=0),
    Message('note_on', channel=0, note=76, velocity=96, time=0),
    Message('note_on', channel=0, note=81, velocity=96, time=0),
    Message('note_on', channel=0, note=69, velocity=0, time=227),
    Message('note_on', channel=0, note=73, velocity=0, time=0),
    Message('note_on', channel=0, note=76, velocity=0, time=0),
    Message('note_on', channel=0, note=81, velocity=0, time=0),
    Message('note_on', channel=0, note=69, velocity=96, time=13),
    Message('note_on', channel=0, note=73, velocity=96, time=0),
    Message('note_on', channel=0, note=76, velocity=96, time=0),
    Message('note_on', channel=0, note=81, velocity=96, time=0),
    Message('note_on', channel=0, note=69, velocity=0, time=455),
    Message('note_on', channel=0, note=73, velocity=0, time=0),
    Message('note_on', channel=0, note=76, velocity=0, time=0),
    Message('note_on', channel=0, note=81, velocity=0, time=0),
    Message('note_on', channel=0, note=68, velocity=96, time=25),
    Message('note_on', channel=0, note=71, velocity=96, time=0),
    Message('note_on', channel=0, note=76, velocity=96, time=0),
    Message('note_on', channel=0, note=80, velocity=96, time=0),
    Message('note_on', channel=0, note=68, velocity=0, time=455),
    Message('note_on', channel=0, note=71, velocity=0, time=0),
    Message('note_on', channel=0, note=76, velocity=0, time=0),
    Message('note_on', channel=0, note=80, velocity=0, time=0),
    Message('note_on', channel=0, note=68, velocity=96, time=265),
    Message('note_on', channel=0, note=71, velocity=96, time=0),
    Message('note_on', channel=0, note=76, velocity=96, time=0),
    Message('note_on', channel=0, note=80, velocity=96, time=0),
    Message('note_on', channel=0, note=68, velocity=0, time=227),
    Message('note_on', channel=0, note=71, velocity=0, time=0),
    Message('note_on', channel=0, note=76, velocity=0, time=0),
    Message('note_on', channel=0, note=80, velocity=0, time=0),
    Message('note_on', channel=0, note=68, velocity=96, time=13),
    Message('note_on', channel=0, note=71, velocity=96, time=0),
    Message('note_on', channel=0, note=76, velocity=96, time=0),
    Message('note_on', channel=0, note=80, velocity=96, time=0),
    Message('note_on', channel=0, note=68, velocity=0, time=227),
    Message('note_on', channel=0, note=71, velocity=0, time=0),
    Message('note_on', channel=0, note=76, velocity=0, time=0),
    Message('note_on', channel=0, note=80, velocity=0, time=0),
    Message('note_on', channel=0, note=68, velocity=96, time=13),
    Message('note_on', channel=0, note=71, velocity=96, time=0),
    Message('note_on', channel=0, note=76, velocity=96, time=0),
    Message('note_on', channel=0, note=80, velocity=96, time=0),
    Message('note_on', channel=0, note=68, velocity=0, time=227),
    Message('note_on', channel=0, note=71, velocity=0, time=0),
    Message('note_on', channel=0, note=76, velocity=0, time=0),
    Message('note_on', channel=0, note=80, velocity=0, time=0),
    Message('note_on', channel=0, note=68, velocity=96, time=13),
    Message('note_on', channel=0, note=71, velocity=96, time=0),
    Message('note_on', channel=0, note=76, velocity=96, time=0),
    Message('note_on', channel=0, note=80, velocity=96, time=0),
    Message('note_on', channel=0, note=68, velocity=0, time=455),
    Message('note_on', channel=0, note=71, velocity=0, time=0),
    Message('note_on', channel=0, note=76, velocity=0, time=0),
    Message('note_on', channel=0, note=80, velocity=0, time=0),
    Message('note_on', channel=0, note=66, velocity=96, time=25),
    Message('note_on', channel=0, note=71, velocity=96, time=0),
    Message('note_on', channel=0, note=74, velocity=96, time=0),
    Message('note_on', channel=0, note=78, velocity=96, time=0),
    Message('note_on', channel=0, note=66, velocity=0, time=455),
    Message('note_on', channel=0, note=71, velocity=0, time=0),
    Message('note_on', channel=0, note=74, velocity=0, time=0),
    Message('note_on', channel=0, note=78, velocity=0, time=0),
    Message('note_on', channel=0, note=66, velocity=96, time=265),
    Message('note_on', channel=0, note=71, velocity=96, time=0),
    Message('note_on', channel=0, note=74, velocity=96, time=0),
    Message('note_on', channel=0, note=78, velocity=96, time=0),
    Message('note_on', channel=0, note=66, velocity=0, time=227),
    Message('note_on', channel=0, note=71, velocity=0, time=0),
    Message('note_on', channel=0, note=74, velocity=0, time=0),
    Message('note_on', channel=0, note=78, velocity=0, time=0),
    Message('note_on', channel=0, note=64, velocity=96, time=13),
    Message('note_on', channel=0, note=76, velocity=96, time=0),
    Message('note_on', channel=0, note=64, velocity=0, time=227),
    Message('note_on', channel=0, note=76, velocity=0, time=0),
    Message('note_on', channel=0, note=62, velocity=96, time=13),
    Message('note_on', channel=0, note=74, velocity=96, time=0),
    Message('note_on', channel=0, note=62, velocity=0, time=227),
    Message('note_on', channel=0, note=74, velocity=0, time=0),
    Message('note_on', channel=0, note=64, velocity=96, time=13),
    Message('note_on', channel=0, note=71, velocity=96, time=0),
    Message('note_on', channel=0, note=74, velocity=96, time=0),
    Message('note_on', channel=0, note=76, velocity=96, time=0),
    Message('note_on', channel=0, note=64, velocity=0, time=455),
    Message('note_on', channel=0, note=71, velocity=0, time=0),
    Message('note_on', channel=0, note=74, velocity=0, time=0),
    Message('note_on', channel=0, note=76, velocity=0, time=0),
    Message('note_on', channel=0, note=59, velocity=96, time=25),
    Message('note_on', channel=0, note=62, velocity=96, time=0),
    Message('note_on', channel=0, note=66, velocity=96, time=0),
    Message('note_on', channel=0, note=71, velocity=96, time=0),
    Message('note_on', channel=0, note=59, velocity=0, time=455),
    Message('note_on', channel=0, note=62, velocity=0, time=0),
    Message('note_on', channel=0, note=66, velocity=0, time=0),
    Message('note_on', channel=0, note=71, velocity=0, time=0),
    Message('note_on', channel=0, note=66, velocity=96, time=265),
    Message('note_on', channel=0, note=69, velocity=96, time=0),
    Message('note_on', channel=0, note=74, velocity=96, time=0),
    Message('note_on', channel=0, note=78, velocity=96, time=0),
    Message('note_on', channel=0, note=66, velocity=0, time=227),
    Message('note_on', channel=0, note=69, velocity=0, time=0),
    Message('note_on', channel=0, note=74, velocity=0, time=0),
    Message('note_on', channel=0, note=78, velocity=0, time=0),
    Message('note_on', channel=0, note=64, velocity=96, time=13),
    Message('note_on', channel=0, note=76, velocity=96, time=0),
    Message('note_on', channel=0, note=64, velocity=0, time=227),
    Message('note_on', channel=0, note=76, velocity=0, time=0),
    Message('note_on', channel=0, note=62, velocity=96, time=13),
    Message('note_on', channel=0, note=74, velocity=96, time=0),
    Message('note_on', channel=0, note=62, velocity=0, time=227),
    Message('note_on', channel=0, note=74, velocity=0, time=0),
    Message('note_on', channel=0, note=64, velocity=96, time=13),
    Message('note_on', channel=0, note=69, velocity=96, time=0),
    Message('note_on', channel=0, note=74, velocity=96, time=0),
    Message('note_on', channel=0, note=76, velocity=96, time=0),
    Message('note_on', channel=0, note=64, velocity=0, time=455),
    Message('note_on', channel=0, note=69, velocity=0, time=0),
    Message('note_on', channel=0, note=74, velocity=0, time=0),
    Message('note_on', channel=0, note=76, velocity=0, time=0),
    Message('note_on', channel=0, note=57, velocity=96, time=25),
    Message('note_on', channel=0, note=61, velocity=96, time=0),
    Message('note_on', channel=0, note=64, velocity=96, time=0),
    Message('note_on', channel=0, note=69, velocity=96, time=0),
    Message('note_on', channel=0, note=57, velocity=0, time=455),
    Message('note_on', channel=0, note=61, velocity=0, time=0),
    Message('note_on', channel=0, note=64, velocity=0, time=0),
    Message('note_on', channel=0, note=69, velocity=0, time=0),
    Message('note_on', channel=0, note=69, velocity=96, time=265),
    Message('note_on', channel=0, note=73, velocity=96, time=0),
    Message('note_on', channel=0, note=76, velocity=96, time=0),
    Message('note_on', channel=0, note=81, velocity=96, time=0),
    Message('note_on', channel=0, note=69, velocity=0, time=227),
    Message('note_on', channel=0, note=73, velocity=0, time=0),
    Message('note_on', channel=0, note=76, velocity=0, time=0),
    Message('note_on', channel=0, note=81, velocity=0, time=0),
    Message('note_on', channel=0, note=69, velocity=96, time=13),
    Message('note_on', channel=0, note=73, velocity=96, time=0),
    Message('note_on', channel=0, note=76, velocity=96, time=0),
    Message('note_on', channel=0, note=81, velocity=96, time=0),
    Message('note_on', channel=0, note=69, velocity=0, time=227),
    Message('note_on', channel=0, note=73, velocity=0, time=0),
    Message('note_on', channel=0, note=76, velocity=0, time=0),
    Message('note_on', channel=0, note=81, velocity=0, time=0),
    Message('note_on', channel=0, note=69, velocity=96, time=13),
    Message('note_on', channel=0, note=73, velocity=96, time=0),
    Message('note_on', channel=0, note=76, velocity=96, time=0),
    Message('note_on', channel=0, note=81, velocity=96, time=0),
    Message('note_on', channel=0, note=69, velocity=0, time=227),
    Message('note_on', channel=0, note=73, velocity=0, time=0),
    Message('note_on', channel=0, note=76, velocity=0, time=0),
    Message('note_on', channel=0, note=81, velocity=0, time=0),
    Message('note_on', channel=0, note=69, velocity=96, time=13),
    Message('note_on', channel=0, note=73, velocity=96, time=0),
    Message('note_on', channel=0, note=76, velocity=96, time=0),
    Message('note_on', channel=0, note=81, velocity=96, time=0),
    Message('note_on', channel=0, note=69, velocity=0, time=455),
    Message('note_on', channel=0, note=73, velocity=0, time=0),
    Message('note_on', channel=0, note=76, velocity=0, time=0),
    Message('note_on', channel=0, note=81, velocity=0, time=0),
    Message('note_on', channel=0, note=68, velocity=96, time=25),
    Message('note_on', channel=0, note=71, velocity=96, time=0),
    Message('note_on', channel=0, note=76, velocity=96, time=0),
    Message('note_on', channel=0, note=80, velocity=96, time=0),
    Message('note_on', channel=0, note=68, velocity=0, time=455),
    Message('note_on', channel=0, note=71, velocity=0, time=0),
    Message('note_on', channel=0, note=76, velocity=0, time=0),
    Message('note_on', channel=0, note=80, velocity=0, time=0),
    Message('note_on', channel=0, note=68, velocity=96, time=265),
    Message('note_on', channel=0, note=71, velocity=96, time=0),
    Message('note_on', channel=0, note=76, velocity=96, time=0),
    Message('note_on', channel=0, note=80, velocity=96, time=0),
    Message('note_on', channel=0, note=68, velocity=0, time=227),
    Message('note_on', channel=0, note=71, velocity=0, time=0),
    Message('note_on', channel=0, note=76, velocity=0, time=0),
    Message('note_on', channel=0, note=80, velocity=0, time=0),
    Message('note_on', channel=0, note=68, velocity=96, time=13),
    Message('note_on', channel=0, note=71, velocity=96, time=0),
    Message('note_on', channel=0, note=76, velocity=96, time=0),
    Message('note_on', channel=0, note=80, velocity=96, time=0),
    Message('note_on', channel=0, note=68, velocity=0, time=227),
    Message('note_on', channel=0, note=71, velocity=0, time=0),
    Message('note_on', channel=0, note=76, velocity=0, time=0),
    Message('note_on', channel=0, note=80, velocity=0, time=0),
    Message('note_on', channel=0, note=68, velocity=96, time=13),
    Message('note_on', channel=0, note=71, velocity=96, time=0),
    Message('note_on', channel=0, note=76, velocity=96, time=0),
    Message('note_on', channel=0, note=80, velocity=96, time=0),
    Message('note_on', channel=0, note=68, velocity=0, time=227),
    Message('note_on', channel=0, note=71, velocity=0, time=0),
    Message('note_on', channel=0, note=76, velocity=0, time=0),
    Message('note_on', channel=0, note=80, velocity=0, time=0),
    Message('note_on', channel=0, note=68, velocity=96, time=13),
    Message('note_on', channel=0, note=71, velocity=96, time=0),
    Message('note_on', channel=0, note=76, velocity=96, time=0),
    Message('note_on', channel=0, note=80, velocity=96, time=0),
    Message('note_on', channel=0, note=68, velocity=0, time=455),
    Message('note_on', channel=0, note=71, velocity=0, time=0),
    Message('note_on', channel=0, note=76, velocity=0, time=0),
    Message('note_on', channel=0, note=80, velocity=0, time=0),
    Message('note_on', channel=0, note=66, velocity=96, time=25),
    Message('note_on', channel=0, note=71, velocity=96, time=0),
    Message('note_on', channel=0, note=74, velocity=96, time=0),
    Message('note_on', channel=0, note=78, velocity=96, time=0),
    Message('note_on', channel=0, note=66, velocity=0, time=455),
    Message('note_on', channel=0, note=71, velocity=0, time=0),
    Message('note_on', channel=0, note=74, velocity=0, time=0),
    Message('note_on', channel=0, note=78, velocity=0, time=0),
    Message('note_on', channel=0, note=71, velocity=80, time=745),
    Message('note_on', channel=0, note=71, velocity=0, time=227),
    Message('note_on', channel=0, note=71, velocity=80, time=13),
    Message('note_on', channel=0, note=78, velocity=80, time=0),
    Message('note_on', channel=0, note=71, velocity=0, time=341),
    Message('note_on', channel=0, note=78, velocity=0, time=0),
    Message('note_on', channel=0, note=71, velocity=80, time=19),
    Message('note_on', channel=0, note=78, velocity=80, time=0),
    Message('note_on', channel=0, note=71, velocity=0, time=341),
    Message('note_on', channel=0, note=78, velocity=0, time=0),
    Message('note_on', channel=0, note=69, velocity=80, time=19),
    Message('note_on', channel=0, note=76, velocity=80, time=0),
    Message('note_on', channel=0, note=69, velocity=0, time=455),
    Message('note_on', channel=0, note=76, velocity=0, time=0),
    Message('note_on', channel=0, note=69, velocity=80, time=505),
    Message('note_on', channel=0, note=69, velocity=0, time=227),
    Message('note_on', channel=0, note=69, velocity=80, time=13),
    Message('note_on', channel=0, note=76, velocity=80, time=0),
    Message('note_on', channel=0, note=69, velocity=0, time=341),
    Message('note_on', channel=0, note=76, velocity=0, time=0),
    Message('note_on', channel=0, note=69, velocity=80, time=19),
    Message('note_on', channel=0, note=76, velocity=80, time=0),
    Message('note_on', channel=0, note=69, velocity=0, time=341),
    Message('note_on', channel=0, note=76, velocity=0, time=0),
    Message('note_on', channel=0, note=69, velocity=80, time=19),
    Message('note_on', channel=0, note=74, velocity=80, time=0),
    Message('note_on', channel=0, note=69, velocity=0, time=455),
    Message('note_on', channel=0, note=74, velocity=0, time=0),
    Message('note_on', channel=0, note=68, velocity=80, time=505),
    Message('note_on', channel=0, note=73, velocity=80, time=0),
    Message('note_on', channel=0, note=68, velocity=0, time=227),
    Message('note_on', channel=0, note=73, velocity=0, time=0),
    Message('note_on', channel=0, note=68, velocity=80, time=13),
    Message('note_on', channel=0, note=73, velocity=80, time=0),
    Message('note_on', channel=0, note=68, velocity=0, time=341),
    Message('note_on', channel=0, note=73, velocity=0, time=0),
    Message('note_on', channel=0, note=68, velocity=80, time=19),
    Message('note_on', channel=0, note=73, velocity=80, time=0),
    Message('note_on', channel=0, note=68, velocity=0, time=341),
    Message('note_on', channel=0, note=73, velocity=0, time=0),
    Message('note_on', channel=0, note=74, velocity=80, time=19),
    Message('note_on', channel=0, note=74, velocity=0, time=455),
    Message('note_on', channel=0, note=73, velocity=80, time=265),
    Message('note_on', channel=0, note=73, velocity=0, time=455),
    Message('note_on', channel=0, note=68, velocity=80, time=25),
    Message('note_on', channel=0, note=74, velocity=80, time=0),
    Message('note_on', channel=0, note=68, velocity=0, time=341),
    Message('note_on', channel=0, note=74, velocity=0, time=0),
    Message('note_on', channel=0, note=66, velocity=80, time=19),
    Message('note_on', channel=0, note=71, velocity=80, time=0),
    Message('note_on', channel=0, note=66, velocity=0, time=341),
    Message('note_on', channel=0, note=71, velocity=0, time=0),
    Message('note_on', channel=0, note=66, velocity=80, time=19),
    Message('note_on', channel=0, note=71, velocity=80, time=0),
    Message('note_on', channel=0, note=66, velocity=0, time=341),
    Message('note_on', channel=0, note=71, velocity=0, time=0),
    Message('note_on', channel=0, note=71, velocity=80, time=619),
    Message('note_on', channel=0, note=71, velocity=0, time=227),
    Message('note_on', channel=0, note=71, velocity=80, time=13),
    Message('note_on', channel=0, note=78, velocity=80, time=0),
    Message('note_on', channel=0, note=71, velocity=0, time=341),
    Message('note_on', channel=0, note=78, velocity=0, time=0),
    Message('note_on', channel=0, note=71, velocity=80, time=19),
    Message('note_on', channel=0, note=78, velocity=80, time=0),
    Message('note_on', channel=0, note=71, velocity=0, time=341),
    Message('note_on', channel=0, note=78, velocity=0, time=0),
    Message('note_on', channel=0, note=69, velocity=80, time=19),
    Message('note_on', channel=0, note=76, velocity=80, time=0),
    Message('note_on', channel=0, note=69, velocity=0, time=455),
    Message('note_on', channel=0, note=76, velocity=0, time=0),
    Message('note_on', channel=0, note=64, velocity=80, time=505),
    Message('note_on', channel=0, note=69, velocity=80, time=0),
    Message('note_on', channel=0, note=64, velocity=0, time=227),
    Message('note_on', channel=0, note=69, velocity=0, time=0),
    Message('note_on', channel=0, note=64, velocity=80, time=13),
    Message('note_on', channel=0, note=69, velocity=80, time=0),
    Message('note_on', channel=0, note=64, velocity=0, time=227),
    Message('note_on', channel=0, note=69, velocity=0, time=0),
    Message('note_on', channel=0, note=64, velocity=80, time=13),
    Message('note_on', channel=0, note=69, velocity=80, time=0),
    Message('note_on', channel=0, note=64, velocity=0, time=227),
    Message('note_on', channel=0, note=69, velocity=0, time=0),
    Message('note_on', channel=0, note=64, velocity=80, time=13),
    Message('note_on', channel=0, note=69, velocity=80, time=0),
    Message('note_on', channel=0, note=64, velocity=0, time=455),
    Message('note_on', channel=0, note=69, velocity=0, time=0),
    Message('note_on', channel=0, note=64, velocity=80, time=1225),
    Message('note_on', channel=0, note=64, velocity=0, time=227),
    Message('note_on', channel=0, note=68, velocity=80, time=13),
    Message('note_on', channel=0, note=73, velocity=80, time=0),
    Message('note_on', channel=0, note=68, velocity=0, time=227),
    Message('note_on', channel=0, note=73, velocity=0, time=0),
    Message('note_on', channel=0, note=71, velocity=80, time=13),
    Message('note_on', channel=0, note=71, velocity=0, time=455),
    Message('note_on', channel=0, note=71, velocity=80, time=2425),
    Message('note_on', channel=0, note=71, velocity=0, time=227),
    Message('note_on', channel=0, note=71, velocity=80, time=13),
    Message('note_on', channel=0, note=78, velocity=80, time=0),
    Message('note_on', channel=0, note=71, velocity=0, time=341),
    Message('note_on', channel=0, note=78, velocity=0, time=0),
    Message('note_on', channel=0, note=71, velocity=80, time=19),
    Message('note_on', channel=0, note=78, velocity=80, time=0),
    Message('note_on', channel=0, note=71, velocity=0, time=341),
    Message('note_on', channel=0, note=78, velocity=0, time=0),
    Message('note_on', channel=0, note=69, velocity=80, time=19),
    Message('note_on', channel=0, note=76, velocity=80, time=0),
    Message('note_on', channel=0, note=69, velocity=0, time=455),
    Message('note_on', channel=0, note=76, velocity=0, time=0),
    Message('note_on', channel=0, note=69, velocity=80, time=505),
    Message('note_on', channel=0, note=69, velocity=0, time=227),
    Message('note_on', channel=0, note=69, velocity=80, time=13),
    Message('note_on', channel=0, note=76, velocity=80, time=0),
    Message('note_on', channel=0, note=69, velocity=0, time=341),
    Message('note_on', channel=0, note=76, velocity=0, time=0),
    Message('note_on', channel=0, note=69, velocity=80, time=19),
    Message('note_on', channel=0, note=76, velocity=80, time=0),
    Message('note_on', channel=0, note=69, velocity=0, time=341),
    Message('note_on', channel=0, note=76, velocity=0, time=0),
    Message('note_on', channel=0, note=69, velocity=80, time=19),
    Message('note_on', channel=0, note=74, velocity=80, time=0),
    Message('note_on', channel=0, note=69, velocity=0, time=455),
    Message('note_on', channel=0, note=74, velocity=0, time=0),
    Message('note_on', channel=0, note=68, velocity=80, time=505),
    Message('note_on', channel=0, note=73, velocity=80, time=0),
    Message('note_on', channel=0, note=68, velocity=0, time=227),
    Message('note_on', channel=0, note=73, velocity=0, time=0),
    Message('note_on', channel=0, note=68, velocity=80, time=13),
    Message('note_on', channel=0, note=73, velocity=80, time=0),
    Message('note_on', channel=0, note=68, velocity=0, time=341),
    Message('note_on', channel=0, note=73, velocity=0, time=0),
    Message('note_on', channel=0, note=68, velocity=80, time=19),
    Message('note_on', channel=0, note=73, velocity=80, time=0),
    Message('note_on', channel=0, note=68, velocity=0, time=341),
    Message('note_on', channel=0, note=73, velocity=0, time=0),
    Message('note_on', channel=0, note=74, velocity=80, time=19),
    Message('note_on', channel=0, note=74, velocity=0, time=455),
    Message('note_on', channel=0, note=73, velocity=80, time=265),
    Message('note_on', channel=0, note=73, velocity=0, time=455),
    Message('note_on', channel=0, note=68, velocity=80, time=25),
    Message('note_on', channel=0, note=74, velocity=80, time=0),
    Message('note_on', channel=0, note=68, velocity=0, time=341),
    Message('note_on', channel=0, note=74, velocity=0, time=0),
    Message('note_on', channel=0, note=66, velocity=80, time=19),
    Message('note_on', channel=0, note=71, velocity=80, time=0),
    Message('note_on', channel=0, note=66, velocity=0, time=341),
    Message('note_on', channel=0, note=71, velocity=0, time=0),
    Message('note_on', channel=0, note=66, velocity=80, time=19),
    Message('note_on', channel=0, note=71, velocity=80, time=0),
    Message('note_on', channel=0, note=66, velocity=0, time=341),
    Message('note_on', channel=0, note=71, velocity=0, time=0),
    Message('note_on', channel=0, note=71, velocity=80, time=619),
    Message('note_on', channel=0, note=71, velocity=0, time=227),
    Message('note_on', channel=0, note=71, velocity=80, time=13),
    Message('note_on', channel=0, note=78, velocity=80, time=0),
    Message('note_on', channel=0, note=71, velocity=0, time=341),
    Message('note_on', channel=0, note=78, velocity=0, time=0),
    Message('note_on', channel=0, note=71, velocity=80, time=19),
    Message('note_on', channel=0, note=78, velocity=80, time=0),
    Message('note_on', channel=0, note=71, velocity=0, time=341),
    Message('note_on', channel=0, note=78, velocity=0, time=0),
    Message('note_on', channel=0, note=69, velocity=80, time=19),
    Message('note_on', channel=0, note=76, velocity=80, time=0),
    Message('note_on', channel=0, note=69, velocity=0, time=455),
    Message('note_on', channel=0, note=76, velocity=0, time=0),
    Message('note_on', channel=0, note=64, velocity=80, time=505),
    Message('note_on', channel=0, note=69, velocity=80, time=0),
    Message('note_on', channel=0, note=64, velocity=0, time=227),
    Message('note_on', channel=0, note=69, velocity=0, time=0),
    Message('note_on', channel=0, note=64, velocity=80, time=13),
    Message('note_on', channel=0, note=69, velocity=80, time=0),
    Message('note_on', channel=0, note=64, velocity=0, time=227),
    Message('note_on', channel=0, note=69, velocity=0, time=0),
    Message('note_on', channel=0, note=64, velocity=80, time=13),
    Message('note_on', channel=0, note=69, velocity=80, time=0),
    Message('note_on', channel=0, note=64, velocity=0, time=227),
    Message('note_on', channel=0, note=69, velocity=0, time=0),
    Message('note_on', channel=0, note=64, velocity=80, time=13),
    Message('note_on', channel=0, note=69, velocity=80, time=0),
    Message('note_on', channel=0, note=64, velocity=0, time=455),
    Message('note_on', channel=0, note=69, velocity=0, time=0),
    Message('note_on', channel=0, note=64, velocity=80, time=1225),
    Message('note_on', channel=0, note=64, velocity=0, time=227),
    Message('note_on', channel=0, note=68, velocity=80, time=13),
    Message('note_on', channel=0, note=73, velocity=80, time=0),
    Message('note_on', channel=0, note=68, velocity=0, time=227),
    Message('note_on', channel=0, note=73, velocity=0, time=0),
    Message('note_on', channel=0, note=71, velocity=80, time=13),
    Message('note_on', channel=0, note=71, velocity=0, time=455),
    Message('note_on', channel=0, note=59, velocity=80, time=265),
    Message('note_on', channel=0, note=71, velocity=80, time=0),
    Message('note_on', channel=0, note=59, velocity=0, time=455),
    Message('note_on', channel=0, note=71, velocity=0, time=0),
    Message('note_on', channel=0, note=59, velocity=80, time=25),
    Message('note_on', channel=0, note=71, velocity=80, time=0),
    Message('note_on', channel=0, note=59, velocity=0, time=455),
    Message('note_on', channel=0, note=71, velocity=0, time=0),
    Message('note_on', channel=0, note=59, velocity=80, time=25),
    Message('note_on', channel=0, note=71, velocity=80, time=0),
    Message('note_on', channel=0, note=59, velocity=0, time=455),
    Message('note_on', channel=0, note=71, velocity=0, time=0),
    Message('note_on', channel=0, note=59, velocity=96, time=25),
    Message('note_on', channel=0, note=62, velocity=96, time=0),
    Message('note_on', channel=0, note=66, velocity=96, time=0),
    Message('note_on', channel=0, note=71, velocity=96, time=0),
    Message('note_on', channel=0, note=59, velocity=0, time=455),
    Message('note_on', channel=0, note=62, velocity=0, time=0),
    Message('note_on', channel=0, note=66, velocity=0, time=0),
    Message('note_on', channel=0, note=71, velocity=0, time=0),
    Message('note_on', channel=0, note=71, velocity=96, time=25),
    Message('note_on', channel=0, note=74, velocity=96, time=0),
    Message('note_on', channel=0, note=78, velocity=96, time=0),
    Message('note_on', channel=0, note=83, velocity=96, time=0),
    Message('note_on', channel=0, note=71, velocity=0, time=455),
    Message('note_on', channel=0, note=74, velocity=0, time=0),
    Message('note_on', channel=0, note=78, velocity=0, time=0),
    Message('note_on', channel=0, note=83, velocity=0, time=0),
    Message('note_on', channel=0, note=71, velocity=96, time=25),
    Message('note_on', channel=0, note=74, velocity=96, time=0),
    Message('note_on', channel=0, note=78, velocity=96, time=0),
    Message('note_on', channel=0, note=83, velocity=96, time=0),
    Message('note_on', channel=0, note=71, velocity=0, time=455),
    Message('note_on', channel=0, note=74, velocity=0, time=0),
    Message('note_on', channel=0, note=78, velocity=0, time=0),
    Message('note_on', channel=0, note=83, velocity=0, time=0),
    Message('note_on', channel=0, note=71, velocity=96, time=25),
    Message('note_on', channel=0, note=74, velocity=96, time=0),
    Message('note_on', channel=0, note=78, velocity=96, time=0),
    Message('note_on', channel=0, note=83, velocity=96, time=0),
    Message('note_on', channel=0, note=71, velocity=0, time=455),
    Message('note_on', channel=0, note=74, velocity=0, time=0),
    Message('note_on', channel=0, note=78, velocity=0, time=0),
    Message('note_on', channel=0, note=83, velocity=0, time=0),
    Message('note_on', channel=0, note=69, velocity=96, time=25),
    Message('note_on', channel=0, note=74, velocity=96, time=0),
    Message('note_on', channel=0, note=78, velocity=96, time=0),
    Message('note_on', channel=0, note=81, velocity=96, time=0),
    Message('note_on', channel=0, note=69, velocity=0, time=455),
    Message('note_on', channel=0, note=74, velocity=0, time=0),
    Message('note_on', channel=0, note=78, velocity=0, time=0),
    Message('note_on', channel=0, note=81, velocity=0, time=0),
    Message('note_on', channel=0, note=69, velocity=96, time=25),
    Message('note_on', channel=0, note=74, velocity=96, time=0),
    Message('note_on', channel=0, note=78, velocity=96, time=0),
    Message('note_on', channel=0, note=81, velocity=96, time=0),
    Message('note_on', channel=0, note=69, velocity=0, time=455),
    Message('note_on', channel=0, note=74, velocity=0, time=0),
    Message('note_on', channel=0, note=78, velocity=0, time=0),
    Message('note_on', channel=0, note=81, velocity=0, time=0),
    Message('note_on', channel=0, note=66, velocity=96, time=25),
    Message('note_on', channel=0, note=69, velocity=96, time=0),
    Message('note_on', channel=0, note=74, velocity=96, time=0),
    Message('note_on', channel=0, note=78, velocity=96, time=0),
    Message('note_on', channel=0, note=66, velocity=0, time=911),
    Message('note_on', channel=0, note=69, velocity=0, time=0),
    Message('note_on', channel=0, note=74, velocity=0, time=0),
    Message('note_on', channel=0, note=78, velocity=0, time=0),
    Message('note_on', channel=0, note=57, velocity=96, time=49),
    Message('note_on', channel=0, note=61, velocity=96, time=0),
    Message('note_on', channel=0, note=64, velocity=96, time=0),
    Message('note_on', channel=0, note=69, velocity=96, time=0),
    Message('note_on', channel=0, note=57, velocity=0, time=455),
    Message('note_on', channel=0, note=61, velocity=0, time=0),
    Message('note_on', channel=0, note=64, velocity=0, time=0),
    Message('note_on', channel=0, note=69, velocity=0, time=0),
    Message('note_on', channel=0, note=69, velocity=96, time=25),
    Message('note_on', channel=0, note=73, velocity=96, time=0),
    Message('note_on', channel=0, note=76, velocity=96, time=0),
    Message('note_on', channel=0, note=81, velocity=96, time=0),
    Message('note_on', channel=0, note=69, velocity=0, time=455),
    Message('note_on', channel=0, note=73, velocity=0, time=0),
    Message('note_on', channel=0, note=76, velocity=0, time=0),
    Message('note_on', channel=0, note=81, velocity=0, time=0),
    Message('note_on', channel=0, note=69, velocity=96, time=25),
    Message('note_on', channel=0, note=73, velocity=96, time=0),
    Message('note_on', channel=0, note=76, velocity=96, time=0),
    Message('note_on', channel=0, note=81, velocity=96, time=0),
    Message('note_on', channel=0, note=69, velocity=0, time=455),
    Message('note_on', channel=0, note=73, velocity=0, time=0),
    Message('note_on', channel=0, note=76, velocity=0, time=0),
    Message('note_on', channel=0, note=81, velocity=0, time=0),
    Message('note_on', channel=0, note=69, velocity=96, time=25),
    Message('note_on', channel=0, note=73, velocity=96, time=0),
    Message('note_on', channel=0, note=76, velocity=96, time=0),
    Message('note_on', channel=0, note=81, velocity=96, time=0),
    Message('note_on', channel=0, note=69, velocity=0, time=455),
    Message('note_on', channel=0, note=73, velocity=0, time=0),
    Message('note_on', channel=0, note=76, velocity=0, time=0),
    Message('note_on', channel=0, note=81, velocity=0, time=0),
    Message('note_on', channel=0, note=68, velocity=96, time=25),
    Message('note_on', channel=0, note=71, velocity=96, time=0),
    Message('note_on', channel=0, note=76, velocity=96, time=0),
    Message('note_on', channel=0, note=80, velocity=96, time=0),
    Message('note_on', channel=0, note=68, velocity=0, time=455),
    Message('note_on', channel=0, note=71, velocity=0, time=0),
    Message('note_on', channel=0, note=76, velocity=0, time=0),
    Message('note_on', channel=0, note=80, velocity=0, time=0),
    Message('note_on', channel=0, note=68, velocity=96, time=25),
    Message('note_on', channel=0, note=71, velocity=96, time=0),
    Message('note_on', channel=0, note=76, velocity=96, time=0),
    Message('note_on', channel=0, note=80, velocity=96, time=0),
    Message('note_on', channel=0, note=68, velocity=0, time=455),
    Message('note_on', channel=0, note=71, velocity=0, time=0),
    Message('note_on', channel=0, note=76, velocity=0, time=0),
    Message('note_on', channel=0, note=80, velocity=0, time=0),
    Message('note_on', channel=0, note=64, velocity=96, time=25),
    Message('note_on', channel=0, note=68, velocity=96, time=0),
    Message('note_on', channel=0, note=71, velocity=96, time=0),
    Message('note_on', channel=0, note=76, velocity=96, time=0),
    Message('note_on', channel=0, note=64, velocity=0, time=455),
    Message('note_on', channel=0, note=68, velocity=0, time=0),
    Message('note_on', channel=0, note=71, velocity=0, time=0),
    Message('note_on', channel=0, note=76, velocity=0, time=0),
    Message('note_on', channel=0, note=66, velocity=96, time=505),
    Message('note_on', channel=0, note=71, velocity=96, time=0),
    Message('note_on', channel=0, note=78, velocity=96, time=0),
    Message('note_on', channel=0, note=66, velocity=0, time=227),
    Message('note_on', channel=0, note=71, velocity=0, time=0),
    Message('note_on', channel=0, note=78, velocity=0, time=0),
    Message('note_on', channel=0, note=64, velocity=96, time=13),
    Message('note_on', channel=0, note=76, velocity=96, time=0),
    Message('note_on', channel=0, note=64, velocity=0, time=227),
    Message('note_on', channel=0, note=76, velocity=0, time=0),
    Message('note_on', channel=0, note=64, velocity=96, time=13),
    Message('note_on', channel=0, note=71, velocity=96, time=0),
    Message('note_on', channel=0, note=76, velocity=96, time=0),
    Message('note_on', channel=0, note=64, velocity=0, time=227),
    Message('note_on', channel=0, note=71, velocity=0, time=0),
    Message('note_on', channel=0, note=76, velocity=0, time=0),
    Message('note_on', channel=0, note=62, velocity=96, time=13),
    Message('note_on', channel=0, note=71, velocity=96, time=0),
    Message('note_on', channel=0, note=74, velocity=96, time=0),
    Message('note_on', channel=0, note=62, velocity=0, time=227),
    Message('note_on', channel=0, note=71, velocity=0, time=0),
    Message('note_on', channel=0, note=74, velocity=0, time=0),
    Message('note_on', channel=0, note=64, velocity=96, time=13),
    Message('note_on', channel=0, note=71, velocity=96, time=0),
    Message('note_on', channel=0, note=76, velocity=96, time=0),
    Message('note_on', channel=0, note=64, velocity=0, time=455),
    Message('note_on', channel=0, note=71, velocity=0, time=0),
    Message('note_on', channel=0, note=76, velocity=0, time=0),
    Message('note_on', channel=0, note=59, velocity=96, time=25),
    Message('note_on', channel=0, note=62, velocity=96, time=0),
    Message('note_on', channel=0, note=71, velocity=96, time=0),
    Message('note_on', channel=0, note=59, velocity=0, time=455),
    Message('note_on', channel=0, note=62, velocity=0, time=0),
    Message('note_on', channel=0, note=71, velocity=0, time=0),
    Message('note_on', channel=0, note=64, velocity=96, time=505),
    Message('note_on', channel=0, note=71, velocity=96, time=0),
    Message('note_on', channel=0, note=76, velocity=96, time=0),
    Message('note_on', channel=0, note=64, velocity=0, time=227),
    Message('note_on', channel=0, note=71, velocity=0, time=0),
    Message('note_on', channel=0, note=76, velocity=0, time=0),
    Message('note_on', channel=0, note=62, velocity=96, time=13),
    Message('note_on', channel=0, note=71, velocity=96, time=0),
    Message('note_on', channel=0, note=74, velocity=96, time=0),
    Message('note_on', channel=0, note=62, velocity=0, time=227),
    Message('note_on', channel=0, note=71, velocity=0, time=0),
    Message('note_on', channel=0, note=74, velocity=0, time=0),
    Message('note_on', channel=0, note=64, velocity=96, time=13),
    Message('note_on', channel=0, note=71, velocity=96, time=0),
    Message('note_on', channel=0, note=76, velocity=96, time=0),
    Message('note_on', channel=0, note=64, velocity=0, time=455),
    Message('note_on', channel=0, note=71, velocity=0, time=0),
    Message('note_on', channel=0, note=76, velocity=0, time=0),
    Message('note_on', channel=0, note=59, velocity=96, time=25),
    Message('note_on', channel=0, note=62, velocity=96, time=0),
    Message('note_on', channel=0, note=71, velocity=96, time=0),
    Message('note_on', channel=0, note=59, velocity=0, time=455),
    Message('note_on', channel=0, note=62, velocity=0, time=0),
    Message('note_on', channel=0, note=71, velocity=0, time=0),
    Message('note_on', channel=0, note=64, velocity=96, time=505),
    Message('note_on', channel=0, note=69, velocity=96, time=0),
    Message('note_on', channel=0, note=76, velocity=96, time=0),
    Message('note_on', channel=0, note=64, velocity=0, time=227),
    Message('note_on', channel=0, note=69, velocity=0, time=0),
    Message('note_on', channel=0, note=76, velocity=0, time=0),
    Message('note_on', channel=0, note=62, velocity=96, time=13),
    Message('note_on', channel=0, note=69, velocity=96, time=0),
    Message('note_on', channel=0, note=74, velocity=96, time=0),
    Message('note_on', channel=0, note=62, velocity=0, time=227),
    Message('note_on', channel=0, note=69, velocity=0, time=0),
    Message('note_on', channel=0, note=74, velocity=0, time=0),
    Message('note_on', channel=0, note=64, velocity=96, time=13),
    Message('note_on', channel=0, note=69, velocity=96, time=0),
    Message('note_on', channel=0, note=76, velocity=96, time=0),
    Message('note_on', channel=0, note=64, velocity=0, time=455),
    Message('note_on', channel=0, note=69, velocity=0, time=0),
    Message('note_on', channel=0, note=76, velocity=0, time=0),
    Message('note_on', channel=0, note=59, velocity=96, time=25),
    Message('note_on', channel=0, note=62, velocity=96, time=0),
    Message('note_on', channel=0, note=71, velocity=96, time=0),
    Message('note_on', channel=0, note=59, velocity=0, time=455),
    Message('note_on', channel=0, note=62, velocity=0, time=0),
    Message('note_on', channel=0, note=71, velocity=0, time=0),
    Message('note_on', channel=0, note=71, velocity=96, time=505),
    Message('note_on', channel=0, note=83, velocity=96, time=0),
    Message('note_on', channel=0, note=71, velocity=0, time=227),
    Message('note_on', channel=0, note=83, velocity=0, time=0),
    Message('note_on', channel=0, note=71, velocity=96, time=13),
    Message('note_on', channel=0, note=83, velocity=96, time=0),
    Message('note_on', channel=0, note=71, velocity=0, time=227),
    Message('note_on', channel=0, note=83, velocity=0, time=0),
    Message('note_on', channel=0, note=71, velocity=96, time=13),
    Message('note_on', channel=0, note=83, velocity=96, time=0),
    Message('note_on', channel=0, note=71, velocity=0, time=455),
    Message('note_on', channel=0, note=83, velocity=0, time=0),
    Message('note_on', channel=0, note=74, velocity=96, time=25),
    Message('note_on', channel=0, note=86, velocity=96, time=0),
    Message('note_on', channel=0, note=74, velocity=0, time=455),
    Message('note_on', channel=0, note=86, velocity=0, time=0),
    Message('note_on', channel=0, note=66, velocity=96, time=265),
    Message('note_on', channel=0, note=71, velocity=96, time=0),
    Message('note_on', channel=0, note=74, velocity=96, time=0),
    Message('note_on', channel=0, note=78, velocity=96, time=0),
    Message('note_on', channel=0, note=66, velocity=0, time=227),
    Message('note_on', channel=0, note=71, velocity=0, time=0),
    Message('note_on', channel=0, note=74, velocity=0, time=0),
    Message('note_on', channel=0, note=78, velocity=0, time=0),
    Message('note_on', channel=0, note=64, velocity=96, time=13),
    Message('note_on', channel=0, note=76, velocity=96, time=0),
    Message('note_on', channel=0, note=64, velocity=0, time=227),
    Message('note_on', channel=0, note=76, velocity=0, time=0),
    Message('note_on', channel=0, note=62, velocity=96, time=13),
    Message('note_on', channel=0, note=74, velocity=96, time=0),
    Message('note_on', channel=0, note=62, velocity=0, time=227),
    Message('note_on', channel=0, note=74, velocity=0, time=0),
    Message('note_on', channel=0, note=64, velocity=96, time=13),
    Message('note_on', channel=0, note=71, velocity=96, time=0),
    Message('note_on', channel=0, note=74, velocity=96, time=0),
    Message('note_on', channel=0, note=76, velocity=96, time=0),
    Message('note_on', channel=0, note=64, velocity=0, time=455),
    Message('note_on', channel=0, note=71, velocity=0, time=0),
    Message('note_on', channel=0, note=74, velocity=0, time=0),
    Message('note_on', channel=0, note=76, velocity=0, time=0),
    Message('note_on', channel=0, note=59, velocity=96, time=25),
    Message('note_on', channel=0, note=62, velocity=96, time=0),
    Message('note_on', channel=0, note=66, velocity=96, time=0),
    Message('note_on', channel=0, note=71, velocity=96, time=0),
    Message('note_on', channel=0, note=59, velocity=0, time=455),
    Message('note_on', channel=0, note=62, velocity=0, time=0),
    Message('note_on', channel=0, note=66, velocity=0, time=0),
    Message('note_on', channel=0, note=71, velocity=0, time=0),
    Message('note_on', channel=0, note=66, velocity=96, time=265),
    Message('note_on', channel=0, note=69, velocity=96, time=0),
    Message('note_on', channel=0, note=74, velocity=96, time=0),
    Message('note_on', channel=0, note=78, velocity=96, time=0),
    Message('note_on', channel=0, note=66, velocity=0, time=227),
    Message('note_on', channel=0, note=69, velocity=0, time=0),
    Message('note_on', channel=0, note=74, velocity=0, time=0),
    Message('note_on', channel=0, note=78, velocity=0, time=0),
    Message('note_on', channel=0, note=64, velocity=96, time=13),
    Message('note_on', channel=0, note=76, velocity=96, time=0),
    Message('note_on', channel=0, note=64, velocity=0, time=227),
    Message('note_on', channel=0, note=76, velocity=0, time=0),
    Message('note_on', channel=0, note=62, velocity=96, time=13),
    Message('note_on', channel=0, note=74, velocity=96, time=0),
    Message('note_on', channel=0, note=62, velocity=0, time=227),
    Message('note_on', channel=0, note=74, velocity=0, time=0),
    Message('note_on', channel=0, note=64, velocity=96, time=13),
    Message('note_on', channel=0, note=69, velocity=96, time=0),
    Message('note_on', channel=0, note=74, velocity=96, time=0),
    Message('note_on', channel=0, note=76, velocity=96, time=0),
    Message('note_on', channel=0, note=64, velocity=0, time=455),
    Message('note_on', channel=0, note=69, velocity=0, time=0),
    Message('note_on', channel=0, note=74, velocity=0, time=0),
    Message('note_on', channel=0, note=76, velocity=0, time=0),
    Message('note_on', channel=0, note=57, velocity=96, time=25),
    Message('note_on', channel=0, note=61, velocity=96, time=0),
    Message('note_on', channel=0, note=64, velocity=96, time=0),
    Message('note_on', channel=0, note=69, velocity=96, time=0),
    Message('note_on', channel=0, note=57, velocity=0, time=455),
    Message('note_on', channel=0, note=61, velocity=0, time=0),
    Message('note_on', channel=0, note=64, velocity=0, time=0),
    Message('note_on', channel=0, note=69, velocity=0, time=0),
    Message('note_on', channel=0, note=69, velocity=96, time=265),
    Message('note_on', channel=0, note=73, velocity=96, time=0),
    Message('note_on', channel=0, note=76, velocity=96, time=0),
    Message('note_on', channel=0, note=81, velocity=96, time=0),
    Message('note_on', channel=0, note=69, velocity=0, time=227),
    Message('note_on', channel=0, note=73, velocity=0, time=0),
    Message('note_on', channel=0, note=76, velocity=0, time=0),
    Message('note_on', channel=0, note=81, velocity=0, time=0),
    Message('note_on', channel=0, note=69, velocity=96, time=13),
    Message('note_on', channel=0, note=73, velocity=96, time=0),
    Message('note_on', channel=0, note=76, velocity=96, time=0),
    Message('note_on', channel=0, note=81, velocity=96, time=0),
    Message('note_on', channel=0, note=69, velocity=0, time=227),
    Message('note_on', channel=0, note=73, velocity=0, time=0),
    Message('note_on', channel=0, note=76, velocity=0, time=0),
    Message('note_on', channel=0, note=81, velocity=0, time=0),
    Message('note_on', channel=0, note=69, velocity=96, time=13),
    Message('note_on', channel=0, note=73, velocity=96, time=0),
    Message('note_on', channel=0, note=76, velocity=96, time=0),
    Message('note_on', channel=0, note=81, velocity=96, time=0),
    Message('note_on', channel=0, note=69, velocity=0, time=227),
    Message('note_on', channel=0, note=73, velocity=0, time=0),
    Message('note_on', channel=0, note=76, velocity=0, time=0),
    Message('note_on', channel=0, note=81, velocity=0, time=0),
    Message('note_on', channel=0, note=69, velocity=96, time=13),
    Message('note_on', channel=0, note=73, velocity=96, time=0),
    Message('note_on', channel=0, note=76, velocity=96, time=0),
    Message('note_on', channel=0, note=81, velocity=96, time=0),
    Message('note_on', channel=0, note=69, velocity=0, time=455),
    Message('note_on', channel=0, note=73, velocity=0, time=0),
    Message('note_on', channel=0, note=76, velocity=0, time=0),
    Message('note_on', channel=0, note=81, velocity=0, time=0),
    Message('note_on', channel=0, note=68, velocity=96, time=25),
    Message('note_on', channel=0, note=71, velocity=96, time=0),
    Message('note_on', channel=0, note=76, velocity=96, time=0),
    Message('note_on', channel=0, note=80, velocity=96, time=0),
    Message('note_on', channel=0, note=68, velocity=0, time=455),
    Message('note_on', channel=0, note=71, velocity=0, time=0),
    Message('note_on', channel=0, note=76, velocity=0, time=0),
    Message('note_on', channel=0, note=80, velocity=0, time=0),
    Message('note_on', channel=0, note=68, velocity=96, time=265),
    Message('note_on', channel=0, note=71, velocity=96, time=0),
    Message('note_on', channel=0, note=76, velocity=96, time=0),
    Message('note_on', channel=0, note=80, velocity=96, time=0),
    Message('note_on', channel=0, note=68, velocity=0, time=227),
    Message('note_on', channel=0, note=71, velocity=0, time=0),
    Message('note_on', channel=0, note=76, velocity=0, time=0),
    Message('note_on', channel=0, note=80, velocity=0, time=0),
    Message('note_on', channel=0, note=68, velocity=96, time=13),
    Message('note_on', channel=0, note=71, velocity=96, time=0),
    Message('note_on', channel=0, note=76, velocity=96, time=0),
    Message('note_on', channel=0, note=80, velocity=96, time=0),
    Message('note_on', channel=0, note=68, velocity=0, time=227),
    Message('note_on', channel=0, note=71, velocity=0, time=0),
    Message('note_on', channel=0, note=76, velocity=0, time=0),
    Message('note_on', channel=0, note=80, velocity=0, time=0),
    Message('note_on', channel=0, note=68, velocity=96, time=13),
    Message('note_on', channel=0, note=71, velocity=96, time=0),
    Message('note_on', channel=0, note=76, velocity=96, time=0),
    Message('note_on', channel=0, note=80, velocity=96, time=0),
    Message('note_on', channel=0, note=68, velocity=0, time=227),
    Message('note_on', channel=0, note=71, velocity=0, time=0),
    Message('note_on', channel=0, note=76, velocity=0, time=0),
    Message('note_on', channel=0, note=80, velocity=0, time=0),
    Message('note_on', channel=0, note=68, velocity=96, time=13),
    Message('note_on', channel=0, note=71, velocity=96, time=0),
    Message('note_on', channel=0, note=76, velocity=96, time=0),
    Message('note_on', channel=0, note=80, velocity=96, time=0),
    Message('note_on', channel=0, note=68, velocity=0, time=455),
    Message('note_on', channel=0, note=71, velocity=0, time=0),
    Message('note_on', channel=0, note=76, velocity=0, time=0),
    Message('note_on', channel=0, note=80, velocity=0, time=0),
    Message('note_on', channel=0, note=66, velocity=96, time=25),
    Message('note_on', channel=0, note=71, velocity=96, time=0),
    Message('note_on', channel=0, note=74, velocity=96, time=0),
    Message('note_on', channel=0, note=78, velocity=96, time=0),
    Message('note_on', channel=0, note=66, velocity=0, time=455),
    Message('note_on', channel=0, note=71, velocity=0, time=0),
    Message('note_on', channel=0, note=74, velocity=0, time=0),
    Message('note_on', channel=0, note=78, velocity=0, time=0),
    Message('note_on', channel=0, note=66, velocity=96, time=265),
    Message('note_on', channel=0, note=71, velocity=96, time=0),
    Message('note_on', channel=0, note=74, velocity=96, time=0),
    Message('note_on', channel=0, note=78, velocity=96, time=0),
    Message('note_on', channel=0, note=66, velocity=0, time=227),
    Message('note_on', channel=0, note=71, velocity=0, time=0),
    Message('note_on', channel=0, note=74, velocity=0, time=0),
    Message('note_on', channel=0, note=78, velocity=0, time=0),
    Message('note_on', channel=0, note=64, velocity=96, time=13),
    Message('note_on', channel=0, note=76, velocity=96, time=0),
    Message('note_on', channel=0, note=64, velocity=0, time=227),
    Message('note_on', channel=0, note=76, velocity=0, time=0),
    Message('note_on', channel=0, note=62, velocity=96, time=13),
    Message('note_on', channel=0, note=74, velocity=96, time=0),
    Message('note_on', channel=0, note=62, velocity=0, time=227),
    Message('note_on', channel=0, note=74, velocity=0, time=0),
    Message('note_on', channel=0, note=64, velocity=96, time=13),
    Message('note_on', channel=0, note=71, velocity=96, time=0),
    Message('note_on', channel=0, note=74, velocity=96, time=0),
    Message('note_on', channel=0, note=76, velocity=96, time=0),
    Message('note_on', channel=0, note=64, velocity=0, time=455),
    Message('note_on', channel=0, note=71, velocity=0, time=0),
    Message('note_on', channel=0, note=74, velocity=0, time=0),
    Message('note_on', channel=0, note=76, velocity=0, time=0),
    Message('note_on', channel=0, note=59, velocity=96, time=25),
    Message('note_on', channel=0, note=62, velocity=96, time=0),
    Message('note_on', channel=0, note=66, velocity=96, time=0),
    Message('note_on', channel=0, note=71, velocity=96, time=0),
    Message('note_on', channel=0, note=59, velocity=0, time=455),
    Message('note_on', channel=0, note=62, velocity=0, time=0),
    Message('note_on', channel=0, note=66, velocity=0, time=0),
    Message('note_on', channel=0, note=71, velocity=0, time=0),
    Message('note_on', channel=0, note=66, velocity=96, time=265),
    Message('note_on', channel=0, note=69, velocity=96, time=0),
    Message('note_on', channel=0, note=74, velocity=96, time=0),
    Message('note_on', channel=0, note=78, velocity=96, time=0),
    Message('note_on', channel=0, note=66, velocity=0, time=227),
    Message('note_on', channel=0, note=69, velocity=0, time=0),
    Message('note_on', channel=0, note=74, velocity=0, time=0),
    Message('note_on', channel=0, note=78, velocity=0, time=0),
    Message('note_on', channel=0, note=64, velocity=96, time=13),
    Message('note_on', channel=0, note=76, velocity=96, time=0),
    Message('note_on', channel=0, note=64, velocity=0, time=227),
    Message('note_on', channel=0, note=76, velocity=0, time=0),
    Message('note_on', channel=0, note=62, velocity=96, time=13),
    Message('note_on', channel=0, note=74, velocity=96, time=0),
    Message('note_on', channel=0, note=62, velocity=0, time=227),
    Message('note_on', channel=0, note=74, velocity=0, time=0),
    Message('note_on', channel=0, note=64, velocity=96, time=13),
    Message('note_on', channel=0, note=69, velocity=96, time=0),
    Message('note_on', channel=0, note=74, velocity=96, time=0),
    Message('note_on', channel=0, note=76, velocity=96, time=0),
    Message('note_on', channel=0, note=64, velocity=0, time=455),
    Message('note_on', channel=0, note=69, velocity=0, time=0),
    Message('note_on', channel=0, note=74, velocity=0, time=0),
    Message('note_on', channel=0, note=76, velocity=0, time=0),
    Message('note_on', channel=0, note=57, velocity=96, time=25),
    Message('note_on', channel=0, note=61, velocity=96, time=0),
    Message('note_on', channel=0, note=64, velocity=96, time=0),
    Message('note_on', channel=0, note=69, velocity=96, time=0),
    Message('note_on', channel=0, note=57, velocity=0, time=455),
    Message('note_on', channel=0, note=61, velocity=0, time=0),
    Message('note_on', channel=0, note=64, velocity=0, time=0),
    Message('note_on', channel=0, note=69, velocity=0, time=0),
    Message('note_on', channel=0, note=69, velocity=96, time=265),
    Message('note_on', channel=0, note=73, velocity=96, time=0),
    Message('note_on', channel=0, note=76, velocity=96, time=0),
    Message('note_on', channel=0, note=81, velocity=96, time=0),
    Message('note_on', channel=0, note=69, velocity=0, time=227),
    Message('note_on', channel=0, note=73, velocity=0, time=0),
    Message('note_on', channel=0, note=76, velocity=0, time=0),
    Message('note_on', channel=0, note=81, velocity=0, time=0),
    Message('note_on', channel=0, note=69, velocity=96, time=13),
    Message('note_on', channel=0, note=73, velocity=96, time=0),
    Message('note_on', channel=0, note=76, velocity=96, time=0),
    Message('note_on', channel=0, note=81, velocity=96, time=0),
    Message('note_on', channel=0, note=69, velocity=0, time=227),
    Message('note_on', channel=0, note=73, velocity=0, time=0),
    Message('note_on', channel=0, note=76, velocity=0, time=0),
    Message('note_on', channel=0, note=81, velocity=0, time=0),
    Message('note_on', channel=0, note=69, velocity=96, time=13),
    Message('note_on', channel=0, note=73, velocity=96, time=0),
    Message('note_on', channel=0, note=76, velocity=96, time=0),
    Message('note_on', channel=0, note=81, velocity=96, time=0),
    Message('note_on', channel=0, note=69, velocity=0, time=227),
    Message('note_on', channel=0, note=73, velocity=0, time=0),
    Message('note_on', channel=0, note=76, velocity=0, time=0),
    Message('note_on', channel=0, note=81, velocity=0, time=0),
    Message('note_on', channel=0, note=69, velocity=96, time=13),
    Message('note_on', channel=0, note=73, velocity=96, time=0),
    Message('note_on', channel=0, note=76, velocity=96, time=0),
    Message('note_on', channel=0, note=81, velocity=96, time=0),
    Message('note_on', channel=0, note=69, velocity=0, time=455),
    Message('note_on', channel=0, note=73, velocity=0, time=0),
    Message('note_on', channel=0, note=76, velocity=0, time=0),
    Message('note_on', channel=0, note=81, velocity=0, time=0),
    Message('note_on', channel=0, note=68, velocity=96, time=25),
    Message('note_on', channel=0, note=71, velocity=96, time=0),
    Message('note_on', channel=0, note=76, velocity=96, time=0),
    Message('note_on', channel=0, note=80, velocity=96, time=0),
    Message('note_on', channel=0, note=68, velocity=0, time=455),
    Message('note_on', channel=0, note=71, velocity=0, time=0),
    Message('note_on', channel=0, note=76, velocity=0, time=0),
    Message('note_on', channel=0, note=80, velocity=0, time=0),
    Message('note_on', channel=0, note=68, velocity=96, time=265),
    Message('note_on', channel=0, note=71, velocity=96, time=0),
    Message('note_on', channel=0, note=76, velocity=96, time=0),
    Message('note_on', channel=0, note=80, velocity=96, time=0),
    Message('note_on', channel=0, note=68, velocity=0, time=227),
    Message('note_on', channel=0, note=71, velocity=0, time=0),
    Message('note_on', channel=0, note=76, velocity=0, time=0),
    Message('note_on', channel=0, note=80, velocity=0, time=0),
    Message('note_on', channel=0, note=68, velocity=96, time=13),
    Message('note_on', channel=0, note=71, velocity=96, time=0),
    Message('note_on', channel=0, note=76, velocity=96, time=0),
    Message('note_on', channel=0, note=80, velocity=96, time=0),
    Message('note_on', channel=0, note=68, velocity=0, time=227),
    Message('note_on', channel=0, note=71, velocity=0, time=0),
    Message('note_on', channel=0, note=76, velocity=0, time=0),
    Message('note_on', channel=0, note=80, velocity=0, time=0),
    Message('note_on', channel=0, note=68, velocity=96, time=13),
    Message('note_on', channel=0, note=71, velocity=96, time=0),
    Message('note_on', channel=0, note=76, velocity=96, time=0),
    Message('note_on', channel=0, note=80, velocity=96, time=0),
    Message('note_on', channel=0, note=68, velocity=0, time=227),
    Message('note_on', channel=0, note=71, velocity=0, time=0),
    Message('note_on', channel=0, note=76, velocity=0, time=0),
    Message('note_on', channel=0, note=80, velocity=0, time=0),
    Message('note_on', channel=0, note=68, velocity=96, time=13),
    Message('note_on', channel=0, note=71, velocity=96, time=0),
    Message('note_on', channel=0, note=76, velocity=96, time=0),
    Message('note_on', channel=0, note=80, velocity=96, time=0),
    Message('note_on', channel=0, note=68, velocity=0, time=455),
    Message('note_on', channel=0, note=71, velocity=0, time=0),
    Message('note_on', channel=0, note=76, velocity=0, time=0),
    Message('note_on', channel=0, note=80, velocity=0, time=0),
    Message('note_on', channel=0, note=66, velocity=96, time=25),
    Message('note_on', channel=0, note=71, velocity=96, time=0),
    Message('note_on', channel=0, note=74, velocity=96, time=0),
    Message('note_on', channel=0, note=78, velocity=96, time=0),
    Message('note_on', channel=0, note=66, velocity=0, time=455),
    Message('note_on', channel=0, note=71, velocity=0, time=0),
    Message('note_on', channel=0, note=74, velocity=0, time=0),
    Message('note_on', channel=0, note=78, velocity=0, time=0),
    Message('note_on', channel=0, note=74, velocity=49, time=25),
    Message('note_on', channel=0, note=74, velocity=0, time=911),
    Message('note_on', channel=0, note=74, velocity=49, time=49),
    Message('note_on', channel=0, note=74, velocity=0, time=455),
    Message('note_on', channel=0, note=76, velocity=49, time=25),
    Message('note_on', channel=0, note=76, velocity=0, time=455),
    Message('note_on', channel=0, note=73, velocity=49, time=25),
    Message('note_on', channel=0, note=73, velocity=0, time=1823),
    Message('note_on', channel=0, note=73, velocity=49, time=97),
    Message('note_on', channel=0, note=73, velocity=0, time=911),
    Message('note_on', channel=0, note=73, velocity=49, time=49),
    Message('note_on', channel=0, note=73, velocity=0, time=455),
    Message('note_on', channel=0, note=71, velocity=49, time=25),
    Message('note_on', channel=0, note=71, velocity=0, time=455),
    Message('note_on', channel=0, note=71, velocity=49, time=25),
    Message('note_on', channel=0, note=71, velocity=0, time=1823),
    Message('note_on', channel=0, note=74, velocity=64, time=97),
    Message('note_on', channel=0, note=86, velocity=64, time=0),
    Message('note_on', channel=0, note=74, velocity=0, time=911),
    Message('note_on', channel=0, note=86, velocity=0, time=0),
    Message('note_on', channel=0, note=74, velocity=66, time=49),
    Message('note_on', channel=0, note=86, velocity=66, time=0),
    Message('note_on', channel=0, note=74, velocity=0, time=455),
    Message('note_on', channel=0, note=86, velocity=0, time=0),
    Message('note_on', channel=0, note=76, velocity=68, time=25),
    Message('note_on', channel=0, note=88, velocity=68, time=0),
    Message('note_on', channel=0, note=76, velocity=0, time=455),
    Message('note_on', channel=0, note=88, velocity=0, time=0),
    Message('note_on', channel=0, note=73, velocity=69, time=25),
    Message('note_on', channel=0, note=85, velocity=69, time=0),
    Message('note_on', channel=0, note=73, velocity=0, time=1823),
    Message('note_on', channel=0, note=85, velocity=0, time=0),
    Message('note_on', channel=0, note=73, velocity=74, time=97),
    Message('note_on', channel=0, note=85, velocity=74, time=0),
    Message('note_on', channel=0, note=73, velocity=0, time=911),
    Message('note_on', channel=0, note=85, velocity=0, time=0),
    Message('note_on', channel=0, note=73, velocity=77, time=49),
    Message('note_on', channel=0, note=85, velocity=77, time=0),
    Message('note_on', channel=0, note=73, velocity=0, time=455),
    Message('note_on', channel=0, note=85, velocity=0, time=0),
    Message('note_on', channel=0, note=71, velocity=78, time=25),
    Message('note_on', channel=0, note=83, velocity=78, time=0),
    Message('note_on', channel=0, note=71, velocity=0, time=455),
    Message('note_on', channel=0, note=83, velocity=0, time=0),
    Message('note_on', channel=0, note=71, velocity=80, time=25),
    Message('note_on', channel=0, note=76, velocity=80, time=0),
    Message('note_on', channel=0, note=80, velocity=80, time=0),
    Message('note_on', channel=0, note=83, velocity=80, time=0),
    Message('note_on', channel=0, note=71, velocity=0, time=455),
    Message('note_on', channel=0, note=76, velocity=0, time=0),
    Message('note_on', channel=0, note=80, velocity=0, time=0),
    Message('note_on', channel=0, note=83, velocity=0, time=0),
    Message('note_on', channel=0, note=71, velocity=80, time=25),
    Message('note_on', channel=0, note=83, velocity=80, time=0),
    Message('note_on', channel=0, note=71, velocity=0, time=455),
    Message('note_on', channel=0, note=83, velocity=0, time=0),
    Message('note_on', channel=0, note=71, velocity=80, time=25),
    Message('note_on', channel=0, note=83, velocity=80, time=0),
    Message('note_on', channel=0, note=71, velocity=0, time=455),
    Message('note_on', channel=0, note=83, velocity=0, time=0),
    Message('note_on', channel=0, note=71, velocity=80, time=25),
    Message('note_on', channel=0, note=83, velocity=80, time=0),
    Message('note_on', channel=0, note=71, velocity=0, time=455),
    Message('note_on', channel=0, note=83, velocity=0, time=0),
    Message('note_on', channel=0, note=59, velocity=96, time=25),
    Message('note_on', channel=0, note=62, velocity=96, time=0),
    Message('note_on', channel=0, note=66, velocity=96, time=0),
    Message('note_on', channel=0, note=71, velocity=96, time=0),
    Message('note_on', channel=0, note=59, velocity=0, time=455),
    Message('note_on', channel=0, note=62, velocity=0, time=0),
    Message('note_on', channel=0, note=66, velocity=0, time=0),
    Message('note_on', channel=0, note=71, velocity=0, time=0),
    Message('note_on', channel=0, note=71, velocity=96, time=25),
    Message('note_on', channel=0, note=74, velocity=96, time=0),
    Message('note_on', channel=0, note=78, velocity=96, time=0),
    Message('note_on', channel=0, note=83, velocity=96, time=0),
    Message('note_on', channel=0, note=71, velocity=0, time=455),
    Message('note_on', channel=0, note=74, velocity=0, time=0),
    Message('note_on', channel=0, note=78, velocity=0, time=0),
    Message('note_on', channel=0, note=83, velocity=0, time=0),
    Message('note_on', channel=0, note=71, velocity=96, time=25),
    Message('note_on', channel=0, note=74, velocity=96, time=0),
    Message('note_on', channel=0, note=78, velocity=96, time=0),
    Message('note_on', channel=0, note=83, velocity=96, time=0),
    Message('note_on', channel=0, note=71, velocity=0, time=455),
    Message('note_on', channel=0, note=74, velocity=0, time=0),
    Message('note_on', channel=0, note=78, velocity=0, time=0),
    Message('note_on', channel=0, note=83, velocity=0, time=0),
    Message('note_on', channel=0, note=71, velocity=96, time=25),
    Message('note_on', channel=0, note=74, velocity=96, time=0),
    Message('note_on', channel=0, note=78, velocity=96, time=0),
    Message('note_on', channel=0, note=83, velocity=96, time=0),
    Message('note_on', channel=0, note=71, velocity=0, time=455),
    Message('note_on', channel=0, note=74, velocity=0, time=0),
    Message('note_on', channel=0, note=78, velocity=0, time=0),
    Message('note_on', channel=0, note=83, velocity=0, time=0),
    Message('note_on', channel=0, note=69, velocity=96, time=25),
    Message('note_on', channel=0, note=74, velocity=96, time=0),
    Message('note_on', channel=0, note=78, velocity=96, time=0),
    Message('note_on', channel=0, note=81, velocity=96, time=0),
    Message('note_on', channel=0, note=69, velocity=0, time=455),
    Message('note_on', channel=0, note=74, velocity=0, time=0),
    Message('note_on', channel=0, note=78, velocity=0, time=0),
    Message('note_on', channel=0, note=81, velocity=0, time=0),
    Message('note_on', channel=0, note=69, velocity=96, time=25),
    Message('note_on', channel=0, note=74, velocity=96, time=0),
    Message('note_on', channel=0, note=78, velocity=96, time=0),
    Message('note_on', channel=0, note=81, velocity=96, time=0),
    Message('note_on', channel=0, note=69, velocity=0, time=455),
    Message('note_on', channel=0, note=74, velocity=0, time=0),
    Message('note_on', channel=0, note=78, velocity=0, time=0),
    Message('note_on', channel=0, note=81, velocity=0, time=0),
    Message('note_on', channel=0, note=66, velocity=96, time=25),
    Message('note_on', channel=0, note=69, velocity=96, time=0),
    Message('note_on', channel=0, note=74, velocity=96, time=0),
    Message('note_on', channel=0, note=78, velocity=96, time=0),
    Message('note_on', channel=0, note=66, velocity=0, time=911),
    Message('note_on', channel=0, note=69, velocity=0, time=0),
    Message('note_on', channel=0, note=74, velocity=0, time=0),
    Message('note_on', channel=0, note=78, velocity=0, time=0),
    Message('note_on', channel=0, note=57, velocity=96, time=49),
    Message('note_on', channel=0, note=61, velocity=96, time=0),
    Message('note_on', channel=0, note=64, velocity=96, time=0),
    Message('note_on', channel=0, note=69, velocity=96, time=0),
    Message('note_on', channel=0, note=57, velocity=0, time=455),
    Message('note_on', channel=0, note=61, velocity=0, time=0),
    Message('note_on', channel=0, note=64, velocity=0, time=0),
    Message('note_on', channel=0, note=69, velocity=0, time=0),
    Message('note_on', channel=0, note=69, velocity=96, time=25),
    Message('note_on', channel=0, note=73, velocity=96, time=0),
    Message('note_on', channel=0, note=76, velocity=96, time=0),
    Message('note_on', channel=0, note=81, velocity=96, time=0),
    Message('note_on', channel=0, note=69, velocity=0, time=455),
    Message('note_on', channel=0, note=73, velocity=0, time=0),
    Message('note_on', channel=0, note=76, velocity=0, time=0),
    Message('note_on', channel=0, note=81, velocity=0, time=0),
    Message('note_on', channel=0, note=69, velocity=96, time=25),
    Message('note_on', channel=0, note=73, velocity=96, time=0),
    Message('note_on', channel=0, note=76, velocity=96, time=0),
    Message('note_on', channel=0, note=81, velocity=96, time=0),
    Message('note_on', channel=0, note=69, velocity=0, time=455),
    Message('note_on', channel=0, note=73, velocity=0, time=0),
    Message('note_on', channel=0, note=76, velocity=0, time=0),
    Message('note_on', channel=0, note=81, velocity=0, time=0),
    Message('note_on', channel=0, note=69, velocity=96, time=25),
    Message('note_on', channel=0, note=73, velocity=96, time=0),
    Message('note_on', channel=0, note=76, velocity=96, time=0),
    Message('note_on', channel=0, note=81, velocity=96, time=0),
    Message('note_on', channel=0, note=69, velocity=0, time=455),
    Message('note_on', channel=0, note=73, velocity=0, time=0),
    Message('note_on', channel=0, note=76, velocity=0, time=0),
    Message('note_on', channel=0, note=81, velocity=0, time=0),
    Message('note_on', channel=0, note=68, velocity=96, time=25),
    Message('note_on', channel=0, note=71, velocity=96, time=0),
    Message('note_on', channel=0, note=76, velocity=96, time=0),
    Message('note_on', channel=0, note=80, velocity=96, time=0),
    Message('note_on', channel=0, note=68, velocity=0, time=455),
    Message('note_on', channel=0, note=71, velocity=0, time=0),
    Message('note_on', channel=0, note=76, velocity=0, time=0),
    Message('note_on', channel=0, note=80, velocity=0, time=0),
    Message('note_on', channel=0, note=68, velocity=96, time=25),
    Message('note_on', channel=0, note=71, velocity=96, time=0),
    Message('note_on', channel=0, note=76, velocity=96, time=0),
    Message('note_on', channel=0, note=80, velocity=96, time=0),
    Message('note_on', channel=0, note=68, velocity=0, time=455),
    Message('note_on', channel=0, note=71, velocity=0, time=0),
    Message('note_on', channel=0, note=76, velocity=0, time=0),
    Message('note_on', channel=0, note=80, velocity=0, time=0),
    Message('note_on', channel=0, note=64, velocity=96, time=25),
    Message('note_on', channel=0, note=68, velocity=96, time=0),
    Message('note_on', channel=0, note=71, velocity=96, time=0),
    Message('note_on', channel=0, note=76, velocity=96, time=0),
    Message('note_on', channel=0, note=64, velocity=0, time=455),
    Message('note_on', channel=0, note=68, velocity=0, time=0),
    Message('note_on', channel=0, note=71, velocity=0, time=0),
    Message('note_on', channel=0, note=76, velocity=0, time=0),
    Message('note_on', channel=0, note=66, velocity=96, time=505),
    Message('note_on', channel=0, note=71, velocity=96, time=0),
    Message('note_on', channel=0, note=78, velocity=96, time=0),
    Message('note_on', channel=0, note=66, velocity=0, time=227),
    Message('note_on', channel=0, note=71, velocity=0, time=0),
    Message('note_on', channel=0, note=78, velocity=0, time=0),
    Message('note_on', channel=0, note=64, velocity=96, time=13),
    Message('note_on', channel=0, note=76, velocity=96, time=0),
    Message('note_on', channel=0, note=64, velocity=0, time=227),
    Message('note_on', channel=0, note=76, velocity=0, time=0),
    Message('note_on', channel=0, note=64, velocity=96, time=13),
    Message('note_on', channel=0, note=71, velocity=96, time=0),
    Message('note_on', channel=0, note=76, velocity=96, time=0),
    Message('note_on', channel=0, note=64, velocity=0, time=227),
    Message('note_on', channel=0, note=71, velocity=0, time=0),
    Message('note_on', channel=0, note=76, velocity=0, time=0),
    Message('note_on', channel=0, note=62, velocity=96, time=13),
    Message('note_on', channel=0, note=71, velocity=96, time=0),
    Message('note_on', channel=0, note=74, velocity=96, time=0),
    Message('note_on', channel=0, note=62, velocity=0, time=227),
    Message('note_on', channel=0, note=71, velocity=0, time=0),
    Message('note_on', channel=0, note=74, velocity=0, time=0),
    Message('note_on', channel=0, note=64, velocity=96, time=13),
    Message('note_on', channel=0, note=71, velocity=96, time=0),
    Message('note_on', channel=0, note=76, velocity=96, time=0),
    Message('note_on', channel=0, note=64, velocity=0, time=455),
    Message('note_on', channel=0, note=71, velocity=0, time=0),
    Message('note_on', channel=0, note=76, velocity=0, time=0),
    Message('note_on', channel=0, note=59, velocity=96, time=25),
    Message('note_on', channel=0, note=62, velocity=96, time=0),
    Message('note_on', channel=0, note=71, velocity=96, time=0),
    Message('note_on', channel=0, note=59, velocity=0, time=455),
    Message('note_on', channel=0, note=62, velocity=0, time=0),
    Message('note_on', channel=0, note=71, velocity=0, time=0),
    Message('note_on', channel=0, note=64, velocity=96, time=505),
    Message('note_on', channel=0, note=71, velocity=96, time=0),
    Message('note_on', channel=0, note=76, velocity=96, time=0),
    Message('note_on', channel=0, note=64, velocity=0, time=227),
    Message('note_on', channel=0, note=71, velocity=0, time=0),
    Message('note_on', channel=0, note=76, velocity=0, time=0),
    Message('note_on', channel=0, note=62, velocity=96, time=13),
    Message('note_on', channel=0, note=71, velocity=96, time=0),
    Message('note_on', channel=0, note=74, velocity=96, time=0),
    Message('note_on', channel=0, note=62, velocity=0, time=227),
    Message('note_on', channel=0, note=71, velocity=0, time=0),
    Message('note_on', channel=0, note=74, velocity=0, time=0),
    Message('note_on', channel=0, note=64, velocity=96, time=13),
    Message('note_on', channel=0, note=71, velocity=96, time=0),
    Message('note_on', channel=0, note=76, velocity=96, time=0),
    Message('note_on', channel=0, note=64, velocity=0, time=455),
    Message('note_on', channel=0, note=71, velocity=0, time=0),
    Message('note_on', channel=0, note=76, velocity=0, time=0),
    Message('note_on', channel=0, note=59, velocity=96, time=25),
    Message('note_on', channel=0, note=62, velocity=96, time=0),
    Message('note_on', channel=0, note=71, velocity=96, time=0),
    Message('note_on', channel=0, note=59, velocity=0, time=455),
    Message('note_on', channel=0, note=62, velocity=0, time=0),
    Message('note_on', channel=0, note=71, velocity=0, time=0),
    Message('note_on', channel=0, note=64, velocity=96, time=505),
    Message('note_on', channel=0, note=69, velocity=96, time=0),
    Message('note_on', channel=0, note=76, velocity=96, time=0),
    Message('note_on', channel=0, note=64, velocity=0, time=227),
    Message('note_on', channel=0, note=69, velocity=0, time=0),
    Message('note_on', channel=0, note=76, velocity=0, time=0),
    Message('note_on', channel=0, note=62, velocity=96, time=13),
    Message('note_on', channel=0, note=69, velocity=96, time=0),
    Message('note_on', channel=0, note=74, velocity=96, time=0),
    Message('note_on', channel=0, note=62, velocity=0, time=227),
    Message('note_on', channel=0, note=69, velocity=0, time=0),
    Message('note_on', channel=0, note=74, velocity=0, time=0),
    Message('note_on', channel=0, note=64, velocity=96, time=13),
    Message('note_on', channel=0, note=69, velocity=96, time=0),
    Message('note_on', channel=0, note=76, velocity=96, time=0),
    Message('note_on', channel=0, note=64, velocity=0, time=455),
    Message('note_on', channel=0, note=69, velocity=0, time=0),
    Message('note_on', channel=0, note=76, velocity=0, time=0),
    Message('note_on', channel=0, note=59, velocity=96, time=25),
    Message('note_on', channel=0, note=62, velocity=96, time=0),
    Message('note_on', channel=0, note=71, velocity=96, time=0),
    Message('note_on', channel=0, note=59, velocity=0, time=455),
    Message('note_on', channel=0, note=62, velocity=0, time=0),
    Message('note_on', channel=0, note=71, velocity=0, time=0),
    Message('note_on', channel=0, note=83, velocity=96, time=505),
    Message('note_on', channel=0, note=83, velocity=0, time=227),
    Message('note_on', channel=0, note=83, velocity=96, time=13),
    Message('note_on', channel=0, note=83, velocity=0, time=227),
    Message('note_on', channel=0, note=83, velocity=96, time=13),
    Message('note_on', channel=0, note=83, velocity=0, time=455),
    Message('note_on', channel=0, note=86, velocity=96, time=25),
    Message('note_on', channel=0, note=86, velocity=0, time=455),
    Message('note_on', channel=0, note=66, velocity=96, time=265),
    Message('note_on', channel=0, note=71, velocity=96, time=0),
    Message('note_on', channel=0, note=74, velocity=96, time=0),
    Message('note_on', channel=0, note=78, velocity=96, time=0),
    Message('note_on', channel=0, note=66, velocity=0, time=227),
    Message('note_on', channel=0, note=71, velocity=0, time=0),
    Message('note_on', channel=0, note=74, velocity=0, time=0),
    Message('note_on', channel=0, note=78, velocity=0, time=0),
    Message('note_on', channel=0, note=64, velocity=96, time=13),
    Message('note_on', channel=0, note=76, velocity=96, time=0),
    Message('note_on', channel=0, note=64, velocity=0, time=227),
    Message('note_on', channel=0, note=76, velocity=0, time=0),
    Message('note_on', channel=0, note=62, velocity=96, time=13),
    Message('note_on', channel=0, note=74, velocity=96, time=0),
    Message('note_on', channel=0, note=62, velocity=0, time=227),
    Message('note_on', channel=0, note=74, velocity=0, time=0),
    Message('note_on', channel=0, note=64, velocity=96, time=13),
    Message('note_on', channel=0, note=71, velocity=96, time=0),
    Message('note_on', channel=0, note=74, velocity=96, time=0),
    Message('note_on', channel=0, note=76, velocity=96, time=0),
    Message('note_on', channel=0, note=64, velocity=0, time=455),
    Message('note_on', channel=0, note=71, velocity=0, time=0),
    Message('note_on', channel=0, note=74, velocity=0, time=0),
    Message('note_on', channel=0, note=76, velocity=0, time=0),
    Message('note_on', channel=0, note=59, velocity=96, time=25),
    Message('note_on', channel=0, note=62, velocity=96, time=0),
    Message('note_on', channel=0, note=66, velocity=96, time=0),
    Message('note_on', channel=0, note=71, velocity=96, time=0),
    Message('note_on', channel=0, note=59, velocity=0, time=455),
    Message('note_on', channel=0, note=62, velocity=0, time=0),
    Message('note_on', channel=0, note=66, velocity=0, time=0),
    Message('note_on', channel=0, note=71, velocity=0, time=0),
    Message('note_on', channel=0, note=66, velocity=96, time=265),
    Message('note_on', channel=0, note=69, velocity=96, time=0),
    Message('note_on', channel=0, note=74, velocity=96, time=0),
    Message('note_on', channel=0, note=78, velocity=96, time=0),
    Message('note_on', channel=0, note=66, velocity=0, time=227),
    Message('note_on', channel=0, note=69, velocity=0, time=0),
    Message('note_on', channel=0, note=74, velocity=0, time=0),
    Message('note_on', channel=0, note=78, velocity=0, time=0),
    Message('note_on', channel=0, note=64, velocity=96, time=13),
    Message('note_on', channel=0, note=76, velocity=96, time=0),
    Message('note_on', channel=0, note=64, velocity=0, time=227),
    Message('note_on', channel=0, note=76, velocity=0, time=0),
    Message('note_on', channel=0, note=62, velocity=96, time=13),
    Message('note_on', channel=0, note=74, velocity=96, time=0),
    Message('note_on', channel=0, note=62, velocity=0, time=227),
    Message('note_on', channel=0, note=74, velocity=0, time=0),
    Message('note_on', channel=0, note=64, velocity=96, time=13),
    Message('note_on', channel=0, note=69, velocity=96, time=0),
    Message('note_on', channel=0, note=74, velocity=96, time=0),
    Message('note_on', channel=0, note=76, velocity=96, time=0),
    Message('note_on', channel=0, note=64, velocity=0, time=455),
    Message('note_on', channel=0, note=69, velocity=0, time=0),
    Message('note_on', channel=0, note=74, velocity=0, time=0),
    Message('note_on', channel=0, note=76, velocity=0, time=0),
    Message('note_on', channel=0, note=57, velocity=96, time=25),
    Message('note_on', channel=0, note=61, velocity=96, time=0),
    Message('note_on', channel=0, note=64, velocity=96, time=0),
    Message('note_on', channel=0, note=69, velocity=96, time=0),
    Message('note_on', channel=0, note=57, velocity=0, time=455),
    Message('note_on', channel=0, note=61, velocity=0, time=0),
    Message('note_on', channel=0, note=64, velocity=0, time=0),
    Message('note_on', channel=0, note=69, velocity=0, time=0),
    Message('note_on', channel=0, note=69, velocity=96, time=265),
    Message('note_on', channel=0, note=73, velocity=96, time=0),
    Message('note_on', channel=0, note=76, velocity=96, time=0),
    Message('note_on', channel=0, note=81, velocity=96, time=0),
    Message('note_on', channel=0, note=69, velocity=0, time=227),
    Message('note_on', channel=0, note=73, velocity=0, time=0),
    Message('note_on', channel=0, note=76, velocity=0, time=0),
    Message('note_on', channel=0, note=81, velocity=0, time=0),
    Message('note_on', channel=0, note=69, velocity=96, time=13),
    Message('note_on', channel=0, note=73, velocity=96, time=0),
    Message('note_on', channel=0, note=76, velocity=96, time=0),
    Message('note_on', channel=0, note=81, velocity=96, time=0),
    Message('note_on', channel=0, note=69, velocity=0, time=227),
    Message('note_on', channel=0, note=73, velocity=0, time=0),
    Message('note_on', channel=0, note=76, velocity=0, time=0),
    Message('note_on', channel=0, note=81, velocity=0, time=0),
    Message('note_on', channel=0, note=69, velocity=96, time=13),
    Message('note_on', channel=0, note=73, velocity=96, time=0),
    Message('note_on', channel=0, note=76, velocity=96, time=0),
    Message('note_on', channel=0, note=81, velocity=96, time=0),
    Message('note_on', channel=0, note=69, velocity=0, time=227),
    Message('note_on', channel=0, note=73, velocity=0, time=0),
    Message('note_on', channel=0, note=76, velocity=0, time=0),
    Message('note_on', channel=0, note=81, velocity=0, time=0),
    Message('note_on', channel=0, note=69, velocity=96, time=13),
    Message('note_on', channel=0, note=73, velocity=96, time=0),
    Message('note_on', channel=0, note=76, velocity=96, time=0),
    Message('note_on', channel=0, note=81, velocity=96, time=0),
    Message('note_on', channel=0, note=69, velocity=0, time=455),
    Message('note_on', channel=0, note=73, velocity=0, time=0),
    Message('note_on', channel=0, note=76, velocity=0, time=0),
    Message('note_on', channel=0, note=81, velocity=0, time=0),
    Message('note_on', channel=0, note=68, velocity=96, time=25),
    Message('note_on', channel=0, note=71, velocity=96, time=0),
    Message('note_on', channel=0, note=76, velocity=96, time=0),
    Message('note_on', channel=0, note=80, velocity=96, time=0),
    Message('note_on', channel=0, note=68, velocity=0, time=455),
    Message('note_on', channel=0, note=71, velocity=0, time=0),
    Message('note_on', channel=0, note=76, velocity=0, time=0),
    Message('note_on', channel=0, note=80, velocity=0, time=0),
    Message('note_on', channel=0, note=68, velocity=96, time=265),
    Message('note_on', channel=0, note=71, velocity=96, time=0),
    Message('note_on', channel=0, note=76, velocity=96, time=0),
    Message('note_on', channel=0, note=80, velocity=96, time=0),
    Message('note_on', channel=0, note=68, velocity=0, time=227),
    Message('note_on', channel=0, note=71, velocity=0, time=0),
    Message('note_on', channel=0, note=76, velocity=0, time=0),
    Message('note_on', channel=0, note=80, velocity=0, time=0),
    Message('note_on', channel=0, note=68, velocity=96, time=13),
    Message('note_on', channel=0, note=71, velocity=96, time=0),
    Message('note_on', channel=0, note=76, velocity=96, time=0),
    Message('note_on', channel=0, note=80, velocity=96, time=0),
    Message('note_on', channel=0, note=68, velocity=0, time=227),
    Message('note_on', channel=0, note=71, velocity=0, time=0),
    Message('note_on', channel=0, note=76, velocity=0, time=0),
    Message('note_on', channel=0, note=80, velocity=0, time=0),
    Message('note_on', channel=0, note=68, velocity=96, time=13),
    Message('note_on', channel=0, note=71, velocity=96, time=0),
    Message('note_on', channel=0, note=76, velocity=96, time=0),
    Message('note_on', channel=0, note=80, velocity=96, time=0),
    Message('note_on', channel=0, note=68, velocity=0, time=227),
    Message('note_on', channel=0, note=71, velocity=0, time=0),
    Message('note_on', channel=0, note=76, velocity=0, time=0),
    Message('note_on', channel=0, note=80, velocity=0, time=0),
    Message('note_on', channel=0, note=68, velocity=96, time=13),
    Message('note_on', channel=0, note=71, velocity=96, time=0),
    Message('note_on', channel=0, note=76, velocity=96, time=0),
    Message('note_on', channel=0, note=80, velocity=96, time=0),
    Message('note_on', channel=0, note=68, velocity=0, time=455),
    Message('note_on', channel=0, note=71, velocity=0, time=0),
    Message('note_on', channel=0, note=76, velocity=0, time=0),
    Message('note_on', channel=0, note=80, velocity=0, time=0),
    Message('note_on', channel=0, note=66, velocity=96, time=25),
    Message('note_on', channel=0, note=71, velocity=96, time=0),
    Message('note_on', channel=0, note=74, velocity=96, time=0),
    Message('note_on', channel=0, note=78, velocity=96, time=0),
    Message('note_on', channel=0, note=66, velocity=0, time=455),
    Message('note_on', channel=0, note=71, velocity=0, time=0),
    Message('note_on', channel=0, note=74, velocity=0, time=0),
    Message('note_on', channel=0, note=78, velocity=0, time=0),
    Message('note_on', channel=0, note=66, velocity=96, time=265),
    Message('note_on', channel=0, note=71, velocity=96, time=0),
    Message('note_on', channel=0, note=74, velocity=96, time=0),
    Message('note_on', channel=0, note=78, velocity=96, time=0),
    Message('note_on', channel=0, note=66, velocity=0, time=227),
    Message('note_on', channel=0, note=71, velocity=0, time=0),
    Message('note_on', channel=0, note=74, velocity=0, time=0),
    Message('note_on', channel=0, note=78, velocity=0, time=0),
    Message('note_on', channel=0, note=64, velocity=96, time=13),
    Message('note_on', channel=0, note=76, velocity=96, time=0),
    Message('note_on', channel=0, note=64, velocity=0, time=227),
    Message('note_on', channel=0, note=76, velocity=0, time=0),
    Message('note_on', channel=0, note=62, velocity=96, time=13),
    Message('note_on', channel=0, note=74, velocity=96, time=0),
    Message('note_on', channel=0, note=62, velocity=0, time=227),
    Message('note_on', channel=0, note=74, velocity=0, time=0),
    Message('note_on', channel=0, note=64, velocity=96, time=13),
    Message('note_on', channel=0, note=71, velocity=96, time=0),
    Message('note_on', channel=0, note=74, velocity=96, time=0),
    Message('note_on', channel=0, note=76, velocity=96, time=0),
    Message('note_on', channel=0, note=64, velocity=0, time=455),
    Message('note_on', channel=0, note=71, velocity=0, time=0),
    Message('note_on', channel=0, note=74, velocity=0, time=0),
    Message('note_on', channel=0, note=76, velocity=0, time=0),
    Message('note_on', channel=0, note=59, velocity=96, time=25),
    Message('note_on', channel=0, note=62, velocity=96, time=0),
    Message('note_on', channel=0, note=66, velocity=96, time=0),
    Message('note_on', channel=0, note=71, velocity=96, time=0),
    Message('note_on', channel=0, note=59, velocity=0, time=455),
    Message('note_on', channel=0, note=62, velocity=0, time=0),
    Message('note_on', channel=0, note=66, velocity=0, time=0),
    Message('note_on', channel=0, note=71, velocity=0, time=0),
    Message('note_on', channel=0, note=66, velocity=96, time=265),
    Message('note_on', channel=0, note=69, velocity=96, time=0),
    Message('note_on', channel=0, note=74, velocity=96, time=0),
    Message('note_on', channel=0, note=78, velocity=96, time=0),
    Message('note_on', channel=0, note=66, velocity=0, time=227),
    Message('note_on', channel=0, note=69, velocity=0, time=0),
    Message('note_on', channel=0, note=74, velocity=0, time=0),
    Message('note_on', channel=0, note=78, velocity=0, time=0),
    Message('note_on', channel=0, note=64, velocity=96, time=13),
    Message('note_on', channel=0, note=76, velocity=96, time=0),
    Message('note_on', channel=0, note=64, velocity=0, time=227),
    Message('note_on', channel=0, note=76, velocity=0, time=0),
    Message('note_on', channel=0, note=62, velocity=96, time=13),
    Message('note_on', channel=0, note=74, velocity=96, time=0),
    Message('note_on', channel=0, note=62, velocity=0, time=227),
    Message('note_on', channel=0, note=74, velocity=0, time=0),
    Message('note_on', channel=0, note=64, velocity=96, time=13),
    Message('note_on', channel=0, note=69, velocity=96, time=0),
    Message('note_on', channel=0, note=74, velocity=96, time=0),
    Message('note_on', channel=0, note=76, velocity=96, time=0),
    Message('note_on', channel=0, note=64, velocity=0, time=455),
    Message('note_on', channel=0, note=69, velocity=0, time=0),
    Message('note_on', channel=0, note=74, velocity=0, time=0),
    Message('note_on', channel=0, note=76, velocity=0, time=0),
    Message('note_on', channel=0, note=57, velocity=96, time=25),
    Message('note_on', channel=0, note=61, velocity=96, time=0),
    Message('note_on', channel=0, note=64, velocity=96, time=0),
    Message('note_on', channel=0, note=69, velocity=96, time=0),
    Message('note_on', channel=0, note=57, velocity=0, time=455),
    Message('note_on', channel=0, note=61, velocity=0, time=0),
    Message('note_on', channel=0, note=64, velocity=0, time=0),
    Message('note_on', channel=0, note=69, velocity=0, time=0),
    Message('note_on', channel=0, note=69, velocity=96, time=265),
    Message('note_on', channel=0, note=73, velocity=96, time=0),
    Message('note_on', channel=0, note=76, velocity=96, time=0),
    Message('note_on', channel=0, note=81, velocity=96, time=0),
    Message('note_on', channel=0, note=69, velocity=0, time=227),
    Message('note_on', channel=0, note=73, velocity=0, time=0),
    Message('note_on', channel=0, note=76, velocity=0, time=0),
    Message('note_on', channel=0, note=81, velocity=0, time=0),
    Message('note_on', channel=0, note=69, velocity=96, time=13),
    Message('note_on', channel=0, note=73, velocity=96, time=0),
    Message('note_on', channel=0, note=76, velocity=96, time=0),
    Message('note_on', channel=0, note=81, velocity=96, time=0),
    Message('note_on', channel=0, note=69, velocity=0, time=227),
    Message('note_on', channel=0, note=73, velocity=0, time=0),
    Message('note_on', channel=0, note=76, velocity=0, time=0),
    Message('note_on', channel=0, note=81, velocity=0, time=0),
    Message('note_on', channel=0, note=69, velocity=96, time=13),
    Message('note_on', channel=0, note=73, velocity=96, time=0),
    Message('note_on', channel=0, note=76, velocity=96, time=0),
    Message('note_on', channel=0, note=81, velocity=96, time=0),
    Message('note_on', channel=0, note=69, velocity=0, time=227),
    Message('note_on', channel=0, note=73, velocity=0, time=0),
    Message('note_on', channel=0, note=76, velocity=0, time=0),
    Message('note_on', channel=0, note=81, velocity=0, time=0),
    Message('note_on', channel=0, note=69, velocity=96, time=13),
    Message('note_on', channel=0, note=73, velocity=96, time=0),
    Message('note_on', channel=0, note=76, velocity=96, time=0),
    Message('note_on', channel=0, note=81, velocity=96, time=0),
    Message('note_on', channel=0, note=69, velocity=0, time=455),
    Message('note_on', channel=0, note=73, velocity=0, time=0),
    Message('note_on', channel=0, note=76, velocity=0, time=0),
    Message('note_on', channel=0, note=81, velocity=0, time=0),
    Message('note_on', channel=0, note=68, velocity=96, time=25),
    Message('note_on', channel=0, note=71, velocity=96, time=0),
    Message('note_on', channel=0, note=76, velocity=96, time=0),
    Message('note_on', channel=0, note=80, velocity=96, time=0),
    Message('note_on', channel=0, note=68, velocity=0, time=455),
    Message('note_on', channel=0, note=71, velocity=0, time=0),
    Message('note_on', channel=0, note=76, velocity=0, time=0),
    Message('note_on', channel=0, note=80, velocity=0, time=0),
    Message('note_on', channel=0, note=71, velocity=96, time=265),
    Message('note_on', channel=0, note=74, velocity=96, time=0),
    Message('note_on', channel=0, note=78, velocity=96, time=0),
    Message('note_on', channel=0, note=83, velocity=96, time=0),
    Message('note_on', channel=0, note=71, velocity=0, time=227),
    Message('note_on', channel=0, note=74, velocity=0, time=0),
    Message('note_on', channel=0, note=78, velocity=0, time=0),
    Message('note_on', channel=0, note=83, velocity=0, time=0),
    Message('note_on', channel=0, note=71, velocity=96, time=13),
    Message('note_on', channel=0, note=74, velocity=96, time=0),
    Message('note_on', channel=0, note=78, velocity=96, time=0),
    Message('note_on', channel=0, note=83, velocity=96, time=0),
    Message('note_on', channel=0, note=71, velocity=0, time=227),
    Message('note_on', channel=0, note=74, velocity=0, time=0),
    Message('note_on', channel=0, note=78, velocity=0, time=0),
    Message('note_on', channel=0, note=83, velocity=0, time=0),
    Message('note_on', channel=0, note=71, velocity=96, time=13),
    Message('note_on', channel=0, note=74, velocity=96, time=0),
    Message('note_on', channel=0, note=78, velocity=96, time=0),
    Message('note_on', channel=0, note=83, velocity=96, time=0),
    Message('note_on', channel=0, note=71, velocity=0, time=227),
    Message('note_on', channel=0, note=74, velocity=0, time=0),
    Message('note_on', channel=0, note=78, velocity=0, time=0),
    Message('note_on', channel=0, note=83, velocity=0, time=0),
    Message('note_on', channel=0, note=71, velocity=96, time=13),
    Message('note_on', channel=0, note=74, velocity=96, time=0),
    Message('note_on', channel=0, note=78, velocity=96, time=0),
    Message('note_on', channel=0, note=83, velocity=96, time=0),
    Message('note_on', channel=0, note=71, velocity=0, time=455),
    Message('note_on', channel=0, note=74, velocity=0, time=0),
    Message('note_on', channel=0, note=78, velocity=0, time=0),
    Message('note_on', channel=0, note=83, velocity=0, time=0),
    Message('note_on', channel=0, note=74, velocity=96, time=25),
    Message('note_on', channel=0, note=78, velocity=96, time=0),
    Message('note_on', channel=0, note=83, velocity=96, time=0),
    Message('note_on', channel=0, note=86, velocity=96, time=0),
    Message('note_on', channel=0, note=74, velocity=0, time=455),
    Message('note_on', channel=0, note=78, velocity=0, time=0),
    Message('note_on', channel=0, note=83, velocity=0, time=0),
    Message('note_on', channel=0, note=86, velocity=0, time=0),
    Message('note_on', channel=0, note=66, velocity=96, time=265),
    Message('note_on', channel=0, note=71, velocity=96, time=0),
    Message('note_on', channel=0, note=74, velocity=96, time=0),
    Message('note_on', channel=0, note=78, velocity=96, time=0),
    Message('note_on', channel=0, note=66, velocity=0, time=227),
    Message('note_on', channel=0, note=71, velocity=0, time=0),
    Message('note_on', channel=0, note=74, velocity=0, time=0),
    Message('note_on', channel=0, note=78, velocity=0, time=0),
    Message('note_on', channel=0, note=64, velocity=96, time=13),
    Message('note_on', channel=0, note=76, velocity=96, time=0),
    Message('note_on', channel=0, note=64, velocity=0, time=227),
    Message('note_on', channel=0, note=76, velocity=0, time=0),
    Message('note_on', channel=0, note=62, velocity=96, time=13),
    Message('note_on', channel=0, note=74, velocity=96, time=0),
    Message('note_on', channel=0, note=62, velocity=0, time=227),
    Message('note_on', channel=0, note=74, velocity=0, time=0),
    Message('note_on', channel=0, note=64, velocity=96, time=13),
    Message('note_on', channel=0, note=71, velocity=96, time=0),
    Message('note_on', channel=0, note=74, velocity=96, time=0),
    Message('note_on', channel=0, note=76, velocity=96, time=0),
    Message('note_on', channel=0, note=64, velocity=0, time=455),
    Message('note_on', channel=0, note=71, velocity=0, time=0),
    Message('note_on', channel=0, note=74, velocity=0, time=0),
    Message('note_on', channel=0, note=76, velocity=0, time=0),
    Message('note_on', channel=0, note=59, velocity=96, time=25),
    Message('note_on', channel=0, note=62, velocity=96, time=0),
    Message('note_on', channel=0, note=66, velocity=96, time=0),
    Message('note_on', channel=0, note=71, velocity=96, time=0),
    Message('note_on', channel=0, note=59, velocity=0, time=455),
    Message('note_on', channel=0, note=62, velocity=0, time=0),
    Message('note_on', channel=0, note=66, velocity=0, time=0),
    Message('note_on', channel=0, note=71, velocity=0, time=0),
    Message('note_on', channel=0, note=66, velocity=96, time=265),
    Message('note_on', channel=0, note=69, velocity=96, time=0),
    Message('note_on', channel=0, note=74, velocity=96, time=0),
    Message('note_on', channel=0, note=78, velocity=96, time=0),
    Message('note_on', channel=0, note=66, velocity=0, time=227),
    Message('note_on', channel=0, note=69, velocity=0, time=0),
    Message('note_on', channel=0, note=74, velocity=0, time=0),
    Message('note_on', channel=0, note=78, velocity=0, time=0),
    Message('note_on', channel=0, note=64, velocity=96, time=13),
    Message('note_on', channel=0, note=76, velocity=96, time=0),
    Message('note_on', channel=0, note=64, velocity=0, time=227),
    Message('note_on', channel=0, note=76, velocity=0, time=0),
    Message('note_on', channel=0, note=62, velocity=96, time=13),
    Message('note_on', channel=0, note=74, velocity=96, time=0),
    Message('note_on', channel=0, note=62, velocity=0, time=227),
    Message('note_on', channel=0, note=74, velocity=0, time=0),
    Message('note_on', channel=0, note=64, velocity=96, time=13),
    Message('note_on', channel=0, note=69, velocity=96, time=0),
    Message('note_on', channel=0, note=74, velocity=96, time=0),
    Message('note_on', channel=0, note=76, velocity=96, time=0),
    Message('note_on', channel=0, note=64, velocity=0, time=455),
    Message('note_on', channel=0, note=69, velocity=0, time=0),
    Message('note_on', channel=0, note=74, velocity=0, time=0),
    Message('note_on', channel=0, note=76, velocity=0, time=0),
    Message('note_on', channel=0, note=57, velocity=96, time=25),
    Message('note_on', channel=0, note=61, velocity=96, time=0),
    Message('note_on', channel=0, note=64, velocity=96, time=0),
    Message('note_on', channel=0, note=69, velocity=96, time=0),
    Message('note_on', channel=0, note=57, velocity=0, time=455),
    Message('note_on', channel=0, note=61, velocity=0, time=0),
    Message('note_on', channel=0, note=64, velocity=0, time=0),
    Message('note_on', channel=0, note=69, velocity=0, time=0),
    Message('note_on', channel=0, note=69, velocity=96, time=265),
    Message('note_on', channel=0, note=73, velocity=96, time=0),
    Message('note_on', channel=0, note=76, velocity=96, time=0),
    Message('note_on', channel=0, note=81, velocity=96, time=0),
    Message('note_on', channel=0, note=69, velocity=0, time=227),
    Message('note_on', channel=0, note=73, velocity=0, time=0),
    Message('note_on', channel=0, note=76, velocity=0, time=0),
    Message('note_on', channel=0, note=81, velocity=0, time=0),
    Message('note_on', channel=0, note=69, velocity=96, time=13),
    Message('note_on', channel=0, note=73, velocity=96, time=0),
    Message('note_on', channel=0, note=76, velocity=96, time=0),
    Message('note_on', channel=0, note=81, velocity=96, time=0),
    Message('note_on', channel=0, note=69, velocity=0, time=227),
    Message('note_on', channel=0, note=73, velocity=0, time=0),
    Message('note_on', channel=0, note=76, velocity=0, time=0),
    Message('note_on', channel=0, note=81, velocity=0, time=0),
    Message('note_on', channel=0, note=69, velocity=96, time=13),
    Message('note_on', channel=0, note=73, velocity=96, time=0),
    Message('note_on', channel=0, note=76, velocity=96, time=0),
    Message('note_on', channel=0, note=81, velocity=96, time=0),
    Message('note_on', channel=0, note=69, velocity=0, time=227),
    Message('note_on', channel=0, note=73, velocity=0, time=0),
    Message('note_on', channel=0, note=76, velocity=0, time=0),
    Message('note_on', channel=0, note=81, velocity=0, time=0),
    Message('note_on', channel=0, note=69, velocity=96, time=13),
    Message('note_on', channel=0, note=73, velocity=96, time=0),
    Message('note_on', channel=0, note=76, velocity=96, time=0),
    Message('note_on', channel=0, note=81, velocity=96, time=0),
    Message('note_on', channel=0, note=69, velocity=0, time=455),
    Message('note_on', channel=0, note=73, velocity=0, time=0),
    Message('note_on', channel=0, note=76, velocity=0, time=0),
    Message('note_on', channel=0, note=81, velocity=0, time=0),
    Message('note_on', channel=0, note=68, velocity=96, time=25),
    Message('note_on', channel=0, note=71, velocity=96, time=0),
    Message('note_on', channel=0, note=76, velocity=96, time=0),
    Message('note_on', channel=0, note=80, velocity=96, time=0),
    Message('note_on', channel=0, note=68, velocity=0, time=455),
    Message('note_on', channel=0, note=71, velocity=0, time=0),
    Message('note_on', channel=0, note=76, velocity=0, time=0),
    Message('note_on', channel=0, note=80, velocity=0, time=0),
    Message('note_on', channel=0, note=68, velocity=96, time=265),
    Message('note_on', channel=0, note=71, velocity=96, time=0),
    Message('note_on', channel=0, note=76, velocity=96, time=0),
    Message('note_on', channel=0, note=80, velocity=96, time=0),
    Message('note_on', channel=0, note=68, velocity=0, time=227),
    Message('note_on', channel=0, note=71, velocity=0, time=0),
    Message('note_on', channel=0, note=76, velocity=0, time=0),
    Message('note_on', channel=0, note=80, velocity=0, time=0),
    Message('note_on', channel=0, note=68, velocity=96, time=13),
    Message('note_on', channel=0, note=71, velocity=96, time=0),
    Message('note_on', channel=0, note=76, velocity=96, time=0),
    Message('note_on', channel=0, note=80, velocity=96, time=0),
    Message('note_on', channel=0, note=68, velocity=0, time=227),
    Message('note_on', channel=0, note=71, velocity=0, time=0),
    Message('note_on', channel=0, note=76, velocity=0, time=0),
    Message('note_on', channel=0, note=80, velocity=0, time=0),
    Message('note_on', channel=0, note=68, velocity=96, time=13),
    Message('note_on', channel=0, note=71, velocity=96, time=0),
    Message('note_on', channel=0, note=76, velocity=96, time=0),
    Message('note_on', channel=0, note=80, velocity=96, time=0),
    Message('note_on', channel=0, note=68, velocity=0, time=227),
    Message('note_on', channel=0, note=71, velocity=0, time=0),
    Message('note_on', channel=0, note=76, velocity=0, time=0),
    Message('note_on', channel=0, note=80, velocity=0, time=0),
    Message('note_on', channel=0, note=68, velocity=96, time=13),
    Message('note_on', channel=0, note=71, velocity=96, time=0),
    Message('note_on', channel=0, note=76, velocity=96, time=0),
    Message('note_on', channel=0, note=80, velocity=96, time=0),
    Message('note_on', channel=0, note=68, velocity=0, time=455),
    Message('note_on', channel=0, note=71, velocity=0, time=0),
    Message('note_on', channel=0, note=76, velocity=0, time=0),
    Message('note_on', channel=0, note=80, velocity=0, time=0),
    Message('note_on', channel=0, note=66, velocity=96, time=25),
    Message('note_on', channel=0, note=71, velocity=96, time=0),
    Message('note_on', channel=0, note=74, velocity=96, time=0),
    Message('note_on', channel=0, note=78, velocity=96, time=0),
    Message('note_on', channel=0, note=66, velocity=0, time=455),
    Message('note_on', channel=0, note=71, velocity=0, time=0),
    Message('note_on', channel=0, note=74, velocity=0, time=0),
    Message('note_on', channel=0, note=78, velocity=0, time=0),
    Message('note_on', channel=0, note=66, velocity=96, time=265),
    Message('note_on', channel=0, note=71, velocity=96, time=0),
    Message('note_on', channel=0, note=74, velocity=96, time=0),
    Message('note_on', channel=0, note=78, velocity=96, time=0),
    Message('note_on', channel=0, note=66, velocity=0, time=227),
    Message('note_on', channel=0, note=71, velocity=0, time=0),
    Message('note_on', channel=0, note=74, velocity=0, time=0),
    Message('note_on', channel=0, note=78, velocity=0, time=0),
    Message('note_on', channel=0, note=64, velocity=96, time=13),
    Message('note_on', channel=0, note=76, velocity=96, time=0),
    Message('note_on', channel=0, note=64, velocity=0, time=227),
    Message('note_on', channel=0, note=76, velocity=0, time=0),
    Message('note_on', channel=0, note=62, velocity=96, time=13),
    Message('note_on', channel=0, note=74, velocity=96, time=0),
    Message('note_on', channel=0, note=62, velocity=0, time=227),
    Message('note_on', channel=0, note=74, velocity=0, time=0),
    Message('note_on', channel=0, note=64, velocity=96, time=13),
    Message('note_on', channel=0, note=71, velocity=96, time=0),
    Message('note_on', channel=0, note=74, velocity=96, time=0),
    Message('note_on', channel=0, note=76, velocity=96, time=0),
    Message('note_on', channel=0, note=64, velocity=0, time=455),
    Message('note_on', channel=0, note=71, velocity=0, time=0),
    Message('note_on', channel=0, note=74, velocity=0, time=0),
    Message('note_on', channel=0, note=76, velocity=0, time=0),
    Message('note_on', channel=0, note=59, velocity=96, time=25),
    Message('note_on', channel=0, note=62, velocity=96, time=0),
    Message('note_on', channel=0, note=66, velocity=96, time=0),
    Message('note_on', channel=0, note=71, velocity=96, time=0),
    Message('note_on', channel=0, note=59, velocity=0, time=455),
    Message('note_on', channel=0, note=62, velocity=0, time=0),
    Message('note_on', channel=0, note=66, velocity=0, time=0),
    Message('note_on', channel=0, note=71, velocity=0, time=0),
    Message('note_on', channel=0, note=66, velocity=96, time=265),
    Message('note_on', channel=0, note=69, velocity=96, time=0),
    Message('note_on', channel=0, note=74, velocity=96, time=0),
    Message('note_on', channel=0, note=78, velocity=96, time=0),
    Message('note_on', channel=0, note=66, velocity=0, time=227),
    Message('note_on', channel=0, note=69, velocity=0, time=0),
    Message('note_on', channel=0, note=74, velocity=0, time=0),
    Message('note_on', channel=0, note=78, velocity=0, time=0),
    Message('note_on', channel=0, note=64, velocity=96, time=13),
    Message('note_on', channel=0, note=76, velocity=96, time=0),
    Message('note_on', channel=0, note=64, velocity=0, time=227),
    Message('note_on', channel=0, note=76, velocity=0, time=0),
    Message('note_on', channel=0, note=62, velocity=96, time=13),
    Message('note_on', channel=0, note=74, velocity=96, time=0),
    Message('note_on', channel=0, note=62, velocity=0, time=227),
    Message('note_on', channel=0, note=74, velocity=0, time=0),
    Message('note_on', channel=0, note=64, velocity=96, time=13),
    Message('note_on', channel=0, note=69, velocity=96, time=0),
    Message('note_on', channel=0, note=74, velocity=96, time=0),
    Message('note_on', channel=0, note=76, velocity=96, time=0),
    Message('note_on', channel=0, note=64, velocity=0, time=455),
    Message('note_on', channel=0, note=69, velocity=0, time=0),
    Message('note_on', channel=0, note=74, velocity=0, time=0),
    Message('note_on', channel=0, note=76, velocity=0, time=0),
    Message('note_on', channel=0, note=57, velocity=96, time=25),
    Message('note_on', channel=0, note=61, velocity=96, time=0),
    Message('note_on', channel=0, note=64, velocity=96, time=0),
    Message('note_on', channel=0, note=69, velocity=96, time=0),
    Message('note_on', channel=0, note=57, velocity=0, time=455),
    Message('note_on', channel=0, note=61, velocity=0, time=0),
    Message('note_on', channel=0, note=64, velocity=0, time=0),
    Message('note_on', channel=0, note=69, velocity=0, time=0),
    Message('note_on', channel=0, note=69, velocity=96, time=265),
    Message('note_on', channel=0, note=73, velocity=96, time=0),
    Message('note_on', channel=0, note=76, velocity=96, time=0),
    Message('note_on', channel=0, note=81, velocity=96, time=0),
    Message('note_on', channel=0, note=69, velocity=0, time=227),
    Message('note_on', channel=0, note=73, velocity=0, time=0),
    Message('note_on', channel=0, note=76, velocity=0, time=0),
    Message('note_on', channel=0, note=81, velocity=0, time=0),
    Message('note_on', channel=0, note=69, velocity=96, time=13),
    Message('note_on', channel=0, note=73, velocity=96, time=0),
    Message('note_on', channel=0, note=76, velocity=96, time=0),
    Message('note_on', channel=0, note=81, velocity=96, time=0),
    Message('note_on', channel=0, note=69, velocity=0, time=227),
    Message('note_on', channel=0, note=73, velocity=0, time=0),
    Message('note_on', channel=0, note=76, velocity=0, time=0),
    Message('note_on', channel=0, note=81, velocity=0, time=0),
    Message('note_on', channel=0, note=69, velocity=96, time=13),
    Message('note_on', channel=0, note=73, velocity=96, time=0),
    Message('note_on', channel=0, note=76, velocity=96, time=0),
    Message('note_on', channel=0, note=81, velocity=96, time=0),
    Message('note_on', channel=0, note=69, velocity=0, time=227),
    Message('note_on', channel=0, note=73, velocity=0, time=0),
    Message('note_on', channel=0, note=76, velocity=0, time=0),
    Message('note_on', channel=0, note=81, velocity=0, time=0),
    Message('note_on', channel=0, note=69, velocity=96, time=13),
    Message('note_on', channel=0, note=73, velocity=96, time=0),
    Message('note_on', channel=0, note=76, velocity=96, time=0),
    Message('note_on', channel=0, note=81, velocity=96, time=0),
    Message('note_on', channel=0, note=69, velocity=0, time=455),
    Message('note_on', channel=0, note=73, velocity=0, time=0),
    Message('note_on', channel=0, note=76, velocity=0, time=0),
    Message('note_on', channel=0, note=81, velocity=0, time=0),
    Message('note_on', channel=0, note=68, velocity=96, time=25),
    Message('note_on', channel=0, note=71, velocity=96, time=0),
    Message('note_on', channel=0, note=76, velocity=96, time=0),
    Message('note_on', channel=0, note=80, velocity=96, time=0),
    Message('note_on', channel=0, note=68, velocity=0, time=455),
    Message('note_on', channel=0, note=71, velocity=0, time=0),
    Message('note_on', channel=0, note=76, velocity=0, time=0),
    Message('note_on', channel=0, note=80, velocity=0, time=0),
    Message('note_on', channel=0, note=68, velocity=96, time=265),
    Message('note_on', channel=0, note=71, velocity=96, time=0),
    Message('note_on', channel=0, note=76, velocity=96, time=0),
    Message('note_on', channel=0, note=80, velocity=96, time=0),
    Message('note_on', channel=0, note=68, velocity=0, time=227),
    Message('note_on', channel=0, note=71, velocity=0, time=0),
    Message('note_on', channel=0, note=76, velocity=0, time=0),
    Message('note_on', channel=0, note=80, velocity=0, time=0),
    Message('note_on', channel=0, note=68, velocity=96, time=13),
    Message('note_on', channel=0, note=71, velocity=96, time=0),
    Message('note_on', channel=0, note=76, velocity=96, time=0),
    Message('note_on', channel=0, note=80, velocity=96, time=0),
    Message('note_on', channel=0, note=68, velocity=0, time=227),
    Message('note_on', channel=0, note=71, velocity=0, time=0),
    Message('note_on', channel=0, note=76, velocity=0, time=0),
    Message('note_on', channel=0, note=80, velocity=0, time=0),
    Message('note_on', channel=0, note=68, velocity=96, time=13),
    Message('note_on', channel=0, note=71, velocity=96, time=0),
    Message('note_on', channel=0, note=76, velocity=96, time=0),
    Message('note_on', channel=0, note=80, velocity=96, time=0),
    Message('note_on', channel=0, note=68, velocity=0, time=227),
    Message('note_on', channel=0, note=71, velocity=0, time=0),
    Message('note_on', channel=0, note=76, velocity=0, time=0),
    Message('note_on', channel=0, note=80, velocity=0, time=0),
    Message('note_on', channel=0, note=68, velocity=96, time=13),
    Message('note_on', channel=0, note=71, velocity=96, time=0),
    Message('note_on', channel=0, note=76, velocity=96, time=0),
    Message('note_on', channel=0, note=80, velocity=96, time=0),
    Message('note_on', channel=0, note=68, velocity=0, time=455),
    Message('note_on', channel=0, note=71, velocity=0, time=0),
    Message('note_on', channel=0, note=76, velocity=0, time=0),
    Message('note_on', channel=0, note=80, velocity=0, time=0),
    Message('note_on', channel=0, note=66, velocity=96, time=25),
    Message('note_on', channel=0, note=71, velocity=96, time=0),
    Message('note_on', channel=0, note=74, velocity=96, time=0),
    Message('note_on', channel=0, note=78, velocity=96, time=0),
    Message('note_on', channel=0, note=66, velocity=0, time=455),
    Message('note_on', channel=0, note=71, velocity=0, time=0),
    Message('note_on', channel=0, note=74, velocity=0, time=0),
    Message('note_on', channel=0, note=78, velocity=0, time=0),
    Message('note_on', channel=0, note=71, velocity=96, time=25),
    Message('note_on', channel=0, note=74, velocity=96, time=0),
    Message('note_on', channel=0, note=78, velocity=96, time=0),
    Message('note_on', channel=0, note=83, velocity=96, time=0),
    Message('note_on', channel=0, note=71, velocity=0, time=1823),
    Message('note_on', channel=0, note=74, velocity=0, time=0),
    Message('note_on', channel=0, note=78, velocity=0, time=0),
    Message('note_on', channel=0, note=83, velocity=0, time=0),
    MetaMessage('end_of_track', time=1)]),
  MidiTrack([
    MetaMessage('key_signature', key='A', time=0),
    MetaMessage('midi_port', port=0, time=0),
    Message('note_on', channel=0, note=59, velocity=49, time=0),
    Message('control_change', channel=0, control=64, value=127, time=2),
    Message('control_change', channel=0, control=64, value=0, time=1919),
    Message('control_change', channel=0, control=64, value=127, time=1),
    Message('note_on', channel=0, note=59, velocity=0, time=813),
    Message('note_on', channel=0, note=61, velocity=49, time=145),
    Message('note_on', channel=0, note=61, velocity=0, time=911),
    Message('note_on', channel=0, note=57, velocity=49, time=49),
    Message('control_change', channel=0, control=64, value=0, time=1),
    Message('control_change', channel=0, control=64, value=127, time=1),
    Message('control_change', channel=0, control=64, value=0, time=1919),
    Message('control_change', channel=0, control=64, value=127, time=1),
    Message('note_on', channel=0, note=57, velocity=0, time=813),
    Message('note_on', channel=0, note=59, velocity=49, time=1105),
    Message('control_change', channel=0, control=64, value=0, time=1),
    Message('control_change', channel=0, control=64, value=127, time=1),
    Message('control_change', channel=0, control=64, value=0, time=1919),
    Message('control_change', channel=0, control=64, value=127, time=1),
    Message('note_on', channel=0, note=59, velocity=0, time=813),
    Message('note_on', channel=0, note=61, velocity=49, time=145),
    Message('note_on', channel=0, note=61, velocity=0, time=911),
    Message('note_on', channel=0, note=57, velocity=49, time=49),
    Message('control_change', channel=0, control=64, value=0, time=1),
    Message('control_change', channel=0, control=64, value=127, time=1),
    Message('control_change', channel=0, control=64, value=0, time=1919),
    Message('control_change', channel=0, control=64, value=127, time=1),
    Message('note_on', channel=0, note=57, velocity=0, time=813),
    Message('note_on', channel=0, note=35, velocity=80, time=1105),
    Message('note_on', channel=0, note=47, velocity=80, time=0),
    Message('control_change', channel=0, control=64, value=0, time=1),
    Message('control_change', channel=0, control=64, value=127, time=1),
    Message('note_on', channel=0, note=35, velocity=0, time=909),
    Message('note_on', channel=0, note=47, velocity=0, time=0),
    Message('note_on', channel=0, note=47, velocity=80, time=49),
    Message('note_on', channel=0, note=47, velocity=0, time=227),
    Message('note_on', channel=0, note=50, velocity=80, time=13),
    Message('note_on', channel=0, note=50, velocity=0, time=227),
    Message('note_on', channel=0, note=54, velocity=80, time=13),
    Message('note_on', channel=0, note=54, velocity=0, time=227),
    Message('note_on', channel=0, note=59, velocity=80, time=13),
    Message('note_on', channel=0, note=59, velocity=0, time=227),
    Message('note_on', channel=0, note=33, velocity=80, time=13),
    Message('note_on', channel=0, note=45, velocity=80, time=0),
    Message('control_change', channel=0, control=64, value=0, time=1),
    Message('control_change', channel=0, control=64, value=127, time=1),
    Message('note_on', channel=0, note=33, velocity=0, time=909),
    Message('note_on', channel=0, note=45, velocity=0, time=0),
    Message('note_on', channel=0, note=45, velocity=80, time=49),
    Message('note_on', channel=0, note=45, velocity=0, time=227),
    Message('note_on', channel=0, note=49, velocity=80, time=13),
    Message('note_on', channel=0, note=49, velocity=0, time=227),
    Message('note_on', channel=0, note=52, velocity=80, time=13),
    Message('note_on', channel=0, note=52, velocity=0, time=227),
    Message('note_on', channel=0, note=57, velocity=80, time=13),
    Message('note_on', channel=0, note=57, velocity=0, time=227),
    Message('note_on', channel=0, note=31, velocity=80, time=13),
    Message('note_on', channel=0, note=43, velocity=80, time=0),
    Message('control_change', channel=0, control=64, value=0, time=1),
    Message('control_change', channel=0, control=64, value=127, time=1),
    Message('note_on', channel=0, note=31, velocity=0, time=909),
    Message('note_on', channel=0, note=43, velocity=0, time=0),
    Message('note_on', channel=0, note=43, velocity=80, time=49),
    Message('note_on', channel=0, note=43, velocity=0, time=227),
    Message('note_on', channel=0, note=47, velocity=80, time=13),
    Message('note_on', channel=0, note=47, velocity=0, time=227),
    Message('note_on', channel=0, note=50, velocity=80, time=13),
    Message('note_on', channel=0, note=50, velocity=0, time=227),
    Message('note_on', channel=0, note=55, velocity=80, time=13),
    Message('note_on', channel=0, note=55, velocity=0, time=227),
    Message('note_on', channel=0, note=30, velocity=80, time=13),
    Message('note_on', channel=0, note=42, velocity=80, time=0),
    Message('control_change', channel=0, control=64, value=0, time=1),
    Message('control_change', channel=0, control=64, value=127, time=1),
    Message('note_on', channel=0, note=30, velocity=0, time=909),
    Message('note_on', channel=0, note=42, velocity=0, time=0),
    Message('note_on', channel=0, note=42, velocity=80, time=49),
    Message('note_on', channel=0, note=42, velocity=0, time=227),
    Message('note_on', channel=0, note=45, velocity=80, time=13),
    Message('note_on', channel=0, note=45, velocity=0, time=227),
    Message('note_on', channel=0, note=49, velocity=80, time=13),
    Message('note_on', channel=0, note=49, velocity=0, time=227),
    Message('note_on', channel=0, note=54, velocity=80, time=13),
    Message('note_on', channel=0, note=54, velocity=0, time=227),
    Message('note_on', channel=0, note=35, velocity=80, time=13),
    Message('note_on', channel=0, note=47, velocity=80, time=0),
    Message('control_change', channel=0, control=64, value=0, time=1),
    Message('control_change', channel=0, control=64, value=127, time=1),
    Message('note_on', channel=0, note=35, velocity=0, time=225),
    Message('note_on', channel=0, note=47, velocity=0, time=0),
    Message('note_on', channel=0, note=45, velocity=80, time=13),
    Message('note_on', channel=0, note=45, velocity=0, time=227),
    Message('note_on', channel=0, note=47, velocity=80, time=13),
    Message('note_on', channel=0, note=47, velocity=0, time=227),
    Message('note_on', channel=0, note=50, velocity=80, time=13),
    Message('note_on', channel=0, note=50, velocity=0, time=455),
    Message('note_on', channel=0, note=45, velocity=80, time=25),
    Message('note_on', channel=0, note=45, velocity=0, time=227),
    Message('note_on', channel=0, note=47, velocity=80, time=13),
    Message('note_on', channel=0, note=47, velocity=0, time=227),
    Message('note_on', channel=0, note=52, velocity=80, time=13),
    Message('note_on', channel=0, note=52, velocity=0, time=227),
    Message('note_on', channel=0, note=47, velocity=80, time=13),
    Message('control_change', channel=0, control=64, value=0, time=1),
    Message('control_change', channel=0, control=64, value=127, time=1),
    Message('note_on', channel=0, note=47, velocity=0, time=225),
    Message('note_on', channel=0, note=45, velocity=80, time=13),
    Message('note_on', channel=0, note=45, velocity=0, time=227),
    Message('note_on', channel=0, note=47, velocity=80, time=13),
    Message('note_on', channel=0, note=47, velocity=0, time=227),
    Message('note_on', channel=0, note=54, velocity=80, time=13),
    Message('note_on', channel=0, note=54, velocity=0, time=455),
    Message('note_on', channel=0, note=47, velocity=80, time=25),
    Message('note_on', channel=0, note=47, velocity=0, time=227),
    Message('note_on', channel=0, note=45, velocity=80, time=13),
    Message('note_on', channel=0, note=45, velocity=0, time=227),
    Message('note_on', channel=0, note=47, velocity=80, time=13),
    Message('note_on', channel=0, note=47, velocity=0, time=227),
    Message('note_on', channel=0, note=47, velocity=80, time=13),
    Message('control_change', channel=0, control=64, value=0, time=1),
    Message('control_change', channel=0, control=64, value=127, time=1),
    Message('note_on', channel=0, note=47, velocity=0, time=225),
    Message('note_on', channel=0, note=45, velocity=80, time=13),
    Message('note_on', channel=0, note=45, velocity=0, time=227),
    Message('note_on', channel=0, note=47, velocity=80, time=13),
    Message('note_on', channel=0, note=47, velocity=0, time=227),
    Message('note_on', channel=0, note=50, velocity=80, time=13),
    Message('note_on', channel=0, note=50, velocity=0, time=455),
    Message('note_on', channel=0, note=45, velocity=80, time=25),
    Message('note_on', channel=0, note=45, velocity=0, time=227),
    Message('note_on', channel=0, note=47, velocity=80, time=13),
    Message('note_on', channel=0, note=47, velocity=0, time=227),
    Message('note_on', channel=0, note=52, velocity=80, time=13),
    Message('note_on', channel=0, note=52, velocity=0, time=227),
    Message('note_on', channel=0, note=47, velocity=80, time=13),
    Message('control_change', channel=0, control=64, value=0, time=1),
    Message('control_change', channel=0, control=64, value=127, time=1),
    Message('note_on', channel=0, note=47, velocity=0, time=225),
    Message('note_on', channel=0, note=45, velocity=80, time=13),
    Message('note_on', channel=0, note=45, velocity=0, time=227),
    Message('note_on', channel=0, note=47, velocity=80, time=13),
    Message('note_on', channel=0, note=47, velocity=0, time=227),
    Message('note_on', channel=0, note=50, velocity=80, time=13),
    Message('note_on', channel=0, note=50, velocity=0, time=227),
    Message('note_on', channel=0, note=33, velocity=80, time=13),
    Message('note_on', channel=0, note=45, velocity=80, time=0),
    Message('note_on', channel=0, note=33, velocity=0, time=455),
    Message('note_on', channel=0, note=45, velocity=0, time=0),
    Message('note_on', channel=0, note=30, velocity=80, time=25),
    Message('note_on', channel=0, note=42, velocity=80, time=0),
    Message('note_on', channel=0, note=30, velocity=0, time=455),
    Message('note_on', channel=0, note=42, velocity=0, time=0),
    Message('note_on', channel=0, note=35, velocity=80, time=25),
    Message('note_on', channel=0, note=47, velocity=80, time=0),
    Message('control_change', channel=0, control=64, value=0, time=1),
    Message('control_change', channel=0, control=64, value=0, time=0),
    Message('control_change', channel=0, control=64, value=127, time=1),
    Message('control_change', channel=0, control=64, value=127, time=0),
    Message('note_on', channel=0, note=35, velocity=0, time=453),
    Message('note_on', channel=0, note=47, velocity=0, time=0),
    Message('note_on', channel=0, note=47, velocity=80, time=25),
    Message('note_on', channel=0, note=47, velocity=0, time=227),
    Message('note_on', channel=0, note=47, velocity=80, time=13),
    Message('note_on', channel=0, note=47, velocity=0, time=227),
    Message('note_on', channel=0, note=54, velocity=80, time=13),
    Message('note_on', channel=0, note=59, velocity=80, time=0),
    Message('note_on', channel=0, note=54, velocity=0, time=227),
    Message('note_on', channel=0, note=59, velocity=0, time=0),
    Message('note_on', channel=0, note=47, velocity=80, time=13),
    Message('note_on', channel=0, note=47, velocity=0, time=227),
    Message('note_on', channel=0, note=54, velocity=80, time=13),
    Message('note_on', channel=0, note=54, velocity=0, time=227),
    Message('note_on', channel=0, note=47, velocity=80, time=13),
    Message('note_on', channel=0, note=47, velocity=0, time=227),
    Message('note_on', channel=0, note=38, velocity=80, time=13),
    Message('note_on', channel=0, note=50, velocity=80, time=0),
    Message('control_change', channel=0, control=64, value=0, time=1),
    Message('control_change', channel=0, control=64, value=0, time=0),
    Message('control_change', channel=0, control=64, value=127, time=1),
    Message('control_change', channel=0, control=64, value=127, time=0),
    Message('note_on', channel=0, note=38, velocity=0, time=453),
    Message('note_on', channel=0, note=50, velocity=0, time=0),
    Message('note_on', channel=0, note=50, velocity=80, time=25),
    Message('note_on', channel=0, note=50, velocity=0, time=227),
    Message('note_on', channel=0, note=50, velocity=80, time=13),
    Message('note_on', channel=0, note=50, velocity=0, time=227),
    Message('note_on', channel=0, note=57, velocity=80, time=13),
    Message('note_on', channel=0, note=62, velocity=80, time=0),
    Message('note_on', channel=0, note=57, velocity=0, time=227),
    Message('note_on', channel=0, note=62, velocity=0, time=0),
    Message('note_on', channel=0, note=50, velocity=80, time=13),
    Message('note_on', channel=0, note=50, velocity=0, time=227),
    Message('note_on', channel=0, note=57, velocity=80, time=13),
    Message('note_on', channel=0, note=57, velocity=0, time=227),
    Message('note_on', channel=0, note=50, velocity=80, time=13),
    Message('note_on', channel=0, note=50, velocity=0, time=227),
    Message('note_on', channel=0, note=33, velocity=80, time=13),
    Message('note_on', channel=0, note=45, velocity=80, time=0),
    Message('control_change', channel=0, control=64, value=0, time=1),
    Message('control_change', channel=0, control=64, value=0, time=0),
    Message('control_change', channel=0, control=64, value=127, time=1),
    Message('control_change', channel=0, control=64, value=127, time=0),
    Message('note_on', channel=0, note=33, velocity=0, time=453),
    Message('note_on', channel=0, note=45, velocity=0, time=0),
    Message('note_on', channel=0, note=45, velocity=80, time=25),
    Message('note_on', channel=0, note=45, velocity=0, time=227),
    Message('note_on', channel=0, note=45, velocity=80, time=13),
    Message('note_on', channel=0, note=45, velocity=0, time=227),
    Message('note_on', channel=0, note=52, velocity=80, time=13),
    Message('note_on', channel=0, note=57, velocity=80, time=0),
    Message('note_on', channel=0, note=52, velocity=0, time=227),
    Message('note_on', channel=0, note=57, velocity=0, time=0),
    Message('note_on', channel=0, note=45, velocity=80, time=13),
    Message('note_on', channel=0, note=45, velocity=0, time=227),
    Message('note_on', channel=0, note=52, velocity=80, time=13),
    Message('note_on', channel=0, note=52, velocity=0, time=227),
    Message('note_on', channel=0, note=45, velocity=80, time=13),
    Message('note_on', channel=0, note=45, velocity=0, time=227),
    Message('note_on', channel=0, note=28, velocity=80, time=13),
    Message('note_on', channel=0, note=40, velocity=80, time=0),
    Message('control_change', channel=0, control=64, value=0, time=1),
    Message('control_change', channel=0, control=64, value=0, time=0),
    Message('control_change', channel=0, control=64, value=127, time=1),
    Message('control_change', channel=0, control=64, value=127, time=0),
    Message('note_on', channel=0, note=28, velocity=0, time=453),
    Message('note_on', channel=0, note=40, velocity=0, time=0),
    Message('note_on', channel=0, note=40, velocity=80, time=25),
    Message('note_on', channel=0, note=40, velocity=0, time=227),
    Message('note_on', channel=0, note=40, velocity=80, time=13),
    Message('note_on', channel=0, note=40, velocity=0, time=227),
    Message('note_on', channel=0, note=47, velocity=80, time=13),
    Message('note_on', channel=0, note=52, velocity=80, time=0),
    Message('note_on', channel=0, note=47, velocity=0, time=227),
    Message('note_on', channel=0, note=52, velocity=0, time=0),
    Message('note_on', channel=0, note=40, velocity=80, time=13),
    Message('note_on', channel=0, note=40, velocity=0, time=227),
    Message('note_on', channel=0, note=47, velocity=80, time=13),
    Message('note_on', channel=0, note=47, velocity=0, time=227),
    Message('note_on', channel=0, note=40, velocity=80, time=13),
    Message('note_on', channel=0, note=40, velocity=0, time=227),
    Message('note_on', channel=0, note=35, velocity=80, time=13),
    Message('note_on', channel=0, note=47, velocity=80, time=0),
    Message('control_change', channel=0, control=64, value=0, time=1),
    Message('control_change', channel=0, control=64, value=0, time=0),
    Message('control_change', channel=0, control=64, value=0, time=0),
    Message('control_change', channel=0, control=64, value=0, time=0),
    Message('control_change', channel=0, control=64, value=0, time=0),
    Message('control_change', channel=0, control=64, value=127, time=1),
    Message('control_change', channel=0, control=64, value=127, time=0),
    Message('control_change', channel=0, control=64, value=127, time=0),
    Message('control_change', channel=0, control=64, value=127, time=0),
    Message('control_change', channel=0, control=64, value=127, time=0),
    Message('note_on', channel=0, note=35, velocity=0, time=453),
    Message('note_on', channel=0, note=47, velocity=0, time=0),
    Message('note_on', channel=0, note=47, velocity=80, time=25),
    Message('note_on', channel=0, note=47, velocity=0, time=227),
    Message('note_on', channel=0, note=47, velocity=80, time=13),
    Message('note_on', channel=0, note=47, velocity=0, time=227),
    Message('note_on', channel=0, note=54, velocity=80, time=13),
    Message('note_on', channel=0, note=59, velocity=80, time=0),
    Message('note_on', channel=0, note=54, velocity=0, time=227),
    Message('note_on', channel=0, note=59, velocity=0, time=0),
    Message('note_on', channel=0, note=47, velocity=80, time=13),
    Message('note_on', channel=0, note=47, velocity=0, time=227),
    Message('note_on', channel=0, note=54, velocity=80, time=13),
    Message('note_on', channel=0, note=54, velocity=0, time=227),
    Message('note_on', channel=0, note=47, velocity=80, time=13),
    Message('note_on', channel=0, note=47, velocity=0, time=227),
    Message('note_on', channel=0, note=38, velocity=80, time=13),
    Message('note_on', channel=0, note=50, velocity=80, time=0),
    Message('control_change', channel=0, control=64, value=0, time=1),
    Message('control_change', channel=0, control=64, value=0, time=0),
    Message('control_change', channel=0, control=64, value=127, time=1),
    Message('control_change', channel=0, control=64, value=127, time=0),
    Message('note_on', channel=0, note=38, velocity=0, time=453),
    Message('note_on', channel=0, note=50, velocity=0, time=0),
    Message('note_on', channel=0, note=50, velocity=80, time=25),
    Message('note_on', channel=0, note=50, velocity=0, time=227),
    Message('note_on', channel=0, note=50, velocity=80, time=13),
    Message('note_on', channel=0, note=50, velocity=0, time=227),
    Message('note_on', channel=0, note=57, velocity=80, time=13),
    Message('note_on', channel=0, note=62, velocity=80, time=0),
    Message('note_on', channel=0, note=57, velocity=0, time=227),
    Message('note_on', channel=0, note=62, velocity=0, time=0),
    Message('note_on', channel=0, note=50, velocity=80, time=13),
    Message('note_on', channel=0, note=50, velocity=0, time=227),
    Message('note_on', channel=0, note=57, velocity=80, time=13),
    Message('note_on', channel=0, note=57, velocity=0, time=227),
    Message('note_on', channel=0, note=50, velocity=80, time=13),
    Message('note_on', channel=0, note=50, velocity=0, time=227),
    Message('note_on', channel=0, note=33, velocity=80, time=13),
    Message('note_on', channel=0, note=45, velocity=80, time=0),
    Message('control_change', channel=0, control=64, value=0, time=1),
    Message('control_change', channel=0, control=64, value=0, time=0),
    Message('control_change', channel=0, control=64, value=0, time=0),
    Message('control_change', channel=0, control=64, value=0, time=0),
    Message('control_change', channel=0, control=64, value=0, time=0),
    Message('control_change', channel=0, control=64, value=127, time=1),
    Message('control_change', channel=0, control=64, value=127, time=0),
    Message('control_change', channel=0, control=64, value=127, time=0),
    Message('control_change', channel=0, control=64, value=127, time=0),
    Message('control_change', channel=0, control=64, value=127, time=0),
    Message('note_on', channel=0, note=33, velocity=0, time=453),
    Message('note_on', channel=0, note=45, velocity=0, time=0),
    Message('note_on', channel=0, note=45, velocity=80, time=25),
    Message('note_on', channel=0, note=45, velocity=0, time=227),
    Message('note_on', channel=0, note=45, velocity=80, time=13),
    Message('note_on', channel=0, note=45, velocity=0, time=227),
    Message('note_on', channel=0, note=52, velocity=80, time=13),
    Message('note_on', channel=0, note=57, velocity=80, time=0),
    Message('note_on', channel=0, note=52, velocity=0, time=227),
    Message('note_on', channel=0, note=57, velocity=0, time=0),
    Message('note_on', channel=0, note=45, velocity=80, time=13),
    Message('note_on', channel=0, note=45, velocity=0, time=227),
    Message('note_on', channel=0, note=52, velocity=80, time=13),
    Message('note_on', channel=0, note=52, velocity=0, time=227),
    Message('note_on', channel=0, note=45, velocity=80, time=13),
    Message('note_on', channel=0, note=45, velocity=0, time=227),
    Message('note_on', channel=0, note=28, velocity=80, time=13),
    Message('note_on', channel=0, note=40, velocity=80, time=0),
    Message('control_change', channel=0, control=64, value=0, time=1),
    Message('control_change', channel=0, control=64, value=0, time=0),
    Message('control_change', channel=0, control=64, value=0, time=0),
    Message('control_change', channel=0, control=64, value=0, time=0),
    Message('control_change', channel=0, control=64, value=0, time=0),
    Message('control_change', channel=0, control=64, value=127, time=1),
    Message('control_change', channel=0, control=64, value=127, time=0),
    Message('control_change', channel=0, control=64, value=127, time=0),
    Message('control_change', channel=0, control=64, value=127, time=0),
    Message('control_change', channel=0, control=64, value=127, time=0),
    Message('note_on', channel=0, note=28, velocity=0, time=453),
    Message('note_on', channel=0, note=40, velocity=0, time=0),
    Message('note_on', channel=0, note=40, velocity=80, time=25),
    Message('note_on', channel=0, note=40, velocity=0, time=227),
    Message('note_on', channel=0, note=40, velocity=80, time=13),
    Message('note_on', channel=0, note=40, velocity=0, time=227),
    Message('note_on', channel=0, note=47, velocity=80, time=13),
    Message('note_on', channel=0, note=52, velocity=80, time=0),
    Message('note_on', channel=0, note=47, velocity=0, time=227),
    Message('note_on', channel=0, note=52, velocity=0, time=0),
    Message('note_on', channel=0, note=40, velocity=80, time=13),
    Message('note_on', channel=0, note=40, velocity=0, time=227),
    Message('note_on', channel=0, note=47, velocity=80, time=13),
    Message('note_on', channel=0, note=47, velocity=0, time=227),
    Message('note_on', channel=0, note=40, velocity=80, time=13),
    Message('note_on', channel=0, note=40, velocity=0, time=227),
    Message('note_on', channel=0, note=35, velocity=80, time=13),
    Message('note_on', channel=0, note=47, velocity=80, time=0),
    Message('control_change', channel=0, control=64, value=0, time=1),
    Message('control_change', channel=0, control=64, value=0, time=0),
    Message('control_change', channel=0, control=64, value=0, time=0),
    Message('control_change', channel=0, control=64, value=127, time=1),
    Message('control_change', channel=0, control=64, value=127, time=0),
    Message('note_on', channel=0, note=35, velocity=0, time=453),
    Message('note_on', channel=0, note=47, velocity=0, time=0),
    Message('note_on', channel=0, note=47, velocity=80, time=25),
    Message('note_on', channel=0, note=47, velocity=0, time=227),
    Message('note_on', channel=0, note=47, velocity=80, time=13),
    Message('note_on', channel=0, note=47, velocity=0, time=227),
    Message('note_on', channel=0, note=54, velocity=80, time=13),
    Message('note_on', channel=0, note=59, velocity=80, time=0),
    Message('note_on', channel=0, note=54, velocity=0, time=227),
    Message('note_on', channel=0, note=59, velocity=0, time=0),
    Message('note_on', channel=0, note=47, velocity=80, time=13),
    Message('note_on', channel=0, note=47, velocity=0, time=227),
    Message('note_on', channel=0, note=54, velocity=80, time=13),
    Message('note_on', channel=0, note=54, velocity=0, time=227),
    Message('note_on', channel=0, note=47, velocity=80, time=13),
    Message('note_on', channel=0, note=47, velocity=0, time=227),
    Message('note_on', channel=0, note=38, velocity=80, time=13),
    Message('note_on', channel=0, note=50, velocity=80, time=0),
    Message('control_change', channel=0, control=64, value=0, time=1),
    Message('control_change', channel=0, control=64, value=0, time=0),
    Message('control_change', channel=0, control=64, value=127, time=1),
    Message('control_change', channel=0, control=64, value=127, time=0),
    Message('note_on', channel=0, note=38, velocity=0, time=453),
    Message('note_on', channel=0, note=50, velocity=0, time=0),
    Message('note_on', channel=0, note=50, velocity=80, time=25),
    Message('note_on', channel=0, note=50, velocity=0, time=227),
    Message('note_on', channel=0, note=50, velocity=80, time=13),
    Message('note_on', channel=0, note=50, velocity=0, time=227),
    Message('note_on', channel=0, note=57, velocity=80, time=13),
    Message('note_on', channel=0, note=62, velocity=80, time=0),
    Message('note_on', channel=0, note=57, velocity=0, time=227),
    Message('note_on', channel=0, note=62, velocity=0, time=0),
    Message('note_on', channel=0, note=50, velocity=80, time=13),
    Message('note_on', channel=0, note=50, velocity=0, time=227),
    Message('note_on', channel=0, note=57, velocity=80, time=13),
    Message('note_on', channel=0, note=57, velocity=0, time=227),
    Message('note_on', channel=0, note=50, velocity=80, time=13),
    Message('note_on', channel=0, note=50, velocity=0, time=227),
    Message('note_on', channel=0, note=33, velocity=80, time=13),
    Message('note_on', channel=0, note=45, velocity=80, time=0),
    Message('control_change', channel=0, control=64, value=0, time=1),
    Message('control_change', channel=0, control=64, value=0, time=0),
    Message('control_change', channel=0, control=64, value=127, time=1),
    Message('control_change', channel=0, control=64, value=127, time=0),
    Message('note_on', channel=0, note=33, velocity=0, time=453),
    Message('note_on', channel=0, note=45, velocity=0, time=0),
    Message('note_on', channel=0, note=45, velocity=80, time=25),
    Message('note_on', channel=0, note=45, velocity=0, time=227),
    Message('note_on', channel=0, note=45, velocity=80, time=13),
    Message('note_on', channel=0, note=45, velocity=0, time=227),
    Message('note_on', channel=0, note=52, velocity=80, time=13),
    Message('note_on', channel=0, note=57, velocity=80, time=0),
    Message('note_on', channel=0, note=52, velocity=0, time=227),
    Message('note_on', channel=0, note=57, velocity=0, time=0),
    Message('note_on', channel=0, note=45, velocity=80, time=13),
    Message('note_on', channel=0, note=45, velocity=0, time=227),
    Message('note_on', channel=0, note=52, velocity=80, time=13),
    Message('note_on', channel=0, note=52, velocity=0, time=227),
    Message('note_on', channel=0, note=45, velocity=80, time=13),
    Message('note_on', channel=0, note=45, velocity=0, time=227),
    Message('note_on', channel=0, note=28, velocity=80, time=13),
    Message('note_on', channel=0, note=40, velocity=80, time=0),
    Message('control_change', channel=0, control=64, value=0, time=1),
    Message('control_change', channel=0, control=64, value=0, time=0),
    Message('control_change', channel=0, control=64, value=127, time=1),
    Message('control_change', channel=0, control=64, value=127, time=0),
    Message('note_on', channel=0, note=28, velocity=0, time=453),
    Message('note_on', channel=0, note=40, velocity=0, time=0),
    Message('note_on', channel=0, note=40, velocity=80, time=25),
    Message('note_on', channel=0, note=40, velocity=0, time=227),
    Message('note_on', channel=0, note=40, velocity=80, time=13),
    Message('note_on', channel=0, note=40, velocity=0, time=227),
    Message('note_on', channel=0, note=47, velocity=80, time=13),
    Message('note_on', channel=0, note=52, velocity=80, time=0),
    Message('note_on', channel=0, note=47, velocity=0, time=227),
    Message('note_on', channel=0, note=52, velocity=0, time=0),
    Message('note_on', channel=0, note=40, velocity=80, time=13),
    Message('note_on', channel=0, note=40, velocity=0, time=227),
    Message('note_on', channel=0, note=47, velocity=80, time=13),
    Message('note_on', channel=0, note=47, velocity=0, time=227),
    Message('note_on', channel=0, note=40, velocity=80, time=13),
    Message('note_on', channel=0, note=40, velocity=0, time=227),
    Message('note_on', channel=0, note=35, velocity=80, time=13),
    Message('note_on', channel=0, note=47, velocity=80, time=0),
    Message('control_change', channel=0, control=64, value=0, time=1),
    Message('control_change', channel=0, control=64, value=0, time=0),
    Message('control_change', channel=0, control=64, value=0, time=0),
    Message('control_change', channel=0, control=64, value=0, time=0),
    Message('control_change', channel=0, control=64, value=0, time=0),
    Message('control_change', channel=0, control=64, value=127, time=1),
    Message('control_change', channel=0, control=64, value=127, time=0),
    Message('control_change', channel=0, control=64, value=127, time=0),
    Message('control_change', channel=0, control=64, value=127, time=0),
    Message('control_change', channel=0, control=64, value=127, time=0),
    Message('note_on', channel=0, note=35, velocity=0, time=453),
    Message('note_on', channel=0, note=47, velocity=0, time=0),
    Message('note_on', channel=0, note=47, velocity=80, time=25),
    Message('note_on', channel=0, note=47, velocity=0, time=227),
    Message('note_on', channel=0, note=47, velocity=80, time=13),
    Message('note_on', channel=0, note=47, velocity=0, time=227),
    Message('note_on', channel=0, note=54, velocity=80, time=13),
    Message('note_on', channel=0, note=59, velocity=80, time=0),
    Message('note_on', channel=0, note=54, velocity=0, time=227),
    Message('note_on', channel=0, note=59, velocity=0, time=0),
    Message('note_on', channel=0, note=47, velocity=80, time=13),
    Message('note_on', channel=0, note=47, velocity=0, time=227),
    Message('note_on', channel=0, note=54, velocity=80, time=13),
    Message('note_on', channel=0, note=54, velocity=0, time=227),
    Message('note_on', channel=0, note=47, velocity=80, time=13),
    Message('note_on', channel=0, note=47, velocity=0, time=227),
    Message('note_on', channel=0, note=38, velocity=80, time=13),
    Message('note_on', channel=0, note=50, velocity=80, time=0),
    Message('control_change', channel=0, control=64, value=0, time=1),
    Message('control_change', channel=0, control=64, value=0, time=0),
    Message('control_change', channel=0, control=64, value=127, time=1),
    Message('control_change', channel=0, control=64, value=127, time=0),
    Message('note_on', channel=0, note=38, velocity=0, time=453),
    Message('note_on', channel=0, note=50, velocity=0, time=0),
    Message('note_on', channel=0, note=50, velocity=80, time=25),
    Message('note_on', channel=0, note=50, velocity=0, time=227),
    Message('note_on', channel=0, note=50, velocity=80, time=13),
    Message('note_on', channel=0, note=50, velocity=0, time=227),
    Message('note_on', channel=0, note=57, velocity=80, time=13),
    Message('note_on', channel=0, note=62, velocity=80, time=0),
    Message('note_on', channel=0, note=57, velocity=0, time=227),
    Message('note_on', channel=0, note=62, velocity=0, time=0),
    Message('note_on', channel=0, note=50, velocity=80, time=13),
    Message('note_on', channel=0, note=50, velocity=0, time=227),
    Message('note_on', channel=0, note=57, velocity=80, time=13),
    Message('note_on', channel=0, note=57, velocity=0, time=227),
    Message('note_on', channel=0, note=50, velocity=80, time=13),
    Message('note_on', channel=0, note=50, velocity=0, time=227),
    Message('note_on', channel=0, note=33, velocity=80, time=13),
    Message('note_on', channel=0, note=45, velocity=80, time=0),
    Message('control_change', channel=0, control=64, value=0, time=1),
    Message('control_change', channel=0, control=64, value=0, time=0),
    Message('control_change', channel=0, control=64, value=0, time=0),
    Message('control_change', channel=0, control=64, value=0, time=0),
    Message('control_change', channel=0, control=64, value=0, time=0),
    Message('control_change', channel=0, control=64, value=0, time=0),
    Message('control_change', channel=0, control=64, value=0, time=0),
    Message('control_change', channel=0, control=64, value=0, time=0),
    Message('control_change', channel=0, control=64, value=0, time=0),
    Message('control_change', channel=0, control=64, value=0, time=0),
    Message('control_change', channel=0, control=64, value=0, time=0),
    Message('control_change', channel=0, control=64, value=127, time=1),
    Message('control_change', channel=0, control=64, value=127, time=0),
    Message('control_change', channel=0, control=64, value=127, time=0),
    Message('control_change', channel=0, control=64, value=127, time=0),
    Message('control_change', channel=0, control=64, value=127, time=0),
    Message('control_change', channel=0, control=64, value=127, time=0),
    Message('note_on', channel=0, note=33, velocity=0, time=453),
    Message('note_on', channel=0, note=45, velocity=0, time=0),
    Message('note_on', channel=0, note=45, velocity=80, time=25),
    Message('note_on', channel=0, note=45, velocity=0, time=227),
    Message('note_on', channel=0, note=45, velocity=80, time=13),
    Message('note_on', channel=0, note=45, velocity=0, time=227),
    Message('note_on', channel=0, note=52, velocity=80, time=13),
    Message('note_on', channel=0, note=57, velocity=80, time=0),
    Message('note_on', channel=0, note=52, velocity=0, time=227),
    Message('note_on', channel=0, note=57, velocity=0, time=0),
    Message('note_on', channel=0, note=45, velocity=80, time=13),
    Message('note_on', channel=0, note=45, velocity=0, time=227),
    Message('note_on', channel=0, note=52, velocity=80, time=13),
    Message('note_on', channel=0, note=52, velocity=0, time=227),
    Message('note_on', channel=0, note=45, velocity=80, time=13),
    Message('note_on', channel=0, note=45, velocity=0, time=227),
    Message('note_on', channel=0, note=28, velocity=80, time=13),
    Message('note_on', channel=0, note=40, velocity=80, time=0),
    Message('control_change', channel=0, control=64, value=0, time=1),
    Message('control_change', channel=0, control=64, value=0, time=0),
    Message('control_change', channel=0, control=64, value=0, time=0),
    Message('control_change', channel=0, control=64, value=0, time=0),
    Message('control_change', channel=0, control=64, value=0, time=0),
    Message('control_change', channel=0, control=64, value=0, time=0),
    Message('control_change', channel=0, control=64, value=127, time=1),
    Message('control_change', channel=0, control=64, value=127, time=0),
    Message('control_change', channel=0, control=64, value=127, time=0),
    Message('control_change', channel=0, control=64, value=127, time=0),
    Message('control_change', channel=0, control=64, value=127, time=0),
    Message('control_change', channel=0, control=64, value=127, time=0),
    Message('note_on', channel=0, note=28, velocity=0, time=453),
    Message('note_on', channel=0, note=40, velocity=0, time=0),
    Message('note_on', channel=0, note=40, velocity=80, time=25),
    Message('note_on', channel=0, note=40, velocity=0, time=227),
    Message('note_on', channel=0, note=40, velocity=80, time=13),
    Message('note_on', channel=0, note=40, velocity=0, time=227),
    Message('note_on', channel=0, note=47, velocity=80, time=13),
    Message('note_on', channel=0, note=52, velocity=80, time=0),
    Message('note_on', channel=0, note=47, velocity=0, time=227),
    Message('note_on', channel=0, note=52, velocity=0, time=0),
    Message('note_on', channel=0, note=40, velocity=80, time=13),
    Message('note_on', channel=0, note=40, velocity=0, time=227),
    Message('note_on', channel=0, note=47, velocity=80, time=13),
    Message('note_on', channel=0, note=47, velocity=0, time=227),
    Message('note_on', channel=0, note=40, velocity=80, time=13),
    Message('note_on', channel=0, note=40, velocity=0, time=227),
    Message('note_on', channel=0, note=35, velocity=96, time=13),
    Message('note_on', channel=0, note=47, velocity=96, time=0),
    Message('control_change', channel=0, control=64, value=0, time=1),
    Message('control_change', channel=0, control=64, value=127, time=1),
    Message('note_on', channel=0, note=35, velocity=0, time=453),
    Message('note_on', channel=0, note=47, velocity=0, time=0),
    Message('note_on', channel=0, note=47, velocity=96, time=25),
    Message('note_on', channel=0, note=47, velocity=0, time=227),
    Message('note_on', channel=0, note=54, velocity=96, time=13),
    Message('note_on', channel=0, note=59, velocity=96, time=0),
    Message('note_on', channel=0, note=54, velocity=0, time=455),
    Message('note_on', channel=0, note=59, velocity=0, time=0),
    Message('note_on', channel=0, note=47, velocity=96, time=25),
    Message('note_on', channel=0, note=47, velocity=0, time=227),
    Message('note_on', channel=0, note=54, velocity=96, time=13),
    Message('note_on', channel=0, note=54, velocity=0, time=227),
    Message('note_on', channel=0, note=47, velocity=96, time=13),
    Message('note_on', channel=0, note=47, velocity=0, time=227),
    Message('note_on', channel=0, note=38, velocity=96, time=13),
    Message('note_on', channel=0, note=50, velocity=96, time=0),
    Message('control_change', channel=0, control=64, value=0, time=1),
    Message('control_change', channel=0, control=64, value=127, time=1),
    Message('note_on', channel=0, note=38, velocity=0, time=453),
    Message('note_on', channel=0, note=50, velocity=0, time=0),
    Message('note_on', channel=0, note=50, velocity=96, time=25),
    Message('note_on', channel=0, note=50, velocity=0, time=227),
    Message('note_on', channel=0, note=57, velocity=96, time=13),
    Message('note_on', channel=0, note=62, velocity=96, time=0),
    Message('note_on', channel=0, note=57, velocity=0, time=455),
    Message('note_on', channel=0, note=62, velocity=0, time=0),
    Message('note_on', channel=0, note=50, velocity=96, time=25),
    Message('note_on', channel=0, note=50, velocity=0, time=227),
    Message('note_on', channel=0, note=57, velocity=96, time=13),
    Message('note_on', channel=0, note=57, velocity=0, time=227),
    Message('note_on', channel=0, note=50, velocity=96, time=13),
    Message('note_on', channel=0, note=50, velocity=0, time=227),
    Message('note_on', channel=0, note=45, velocity=96, time=13),
    Message('note_on', channel=0, note=57, velocity=96, time=0),
    Message('control_change', channel=0, control=64, value=0, time=1),
    Message('control_change', channel=0, control=64, value=127, time=1),
    Message('note_on', channel=0, note=45, velocity=0, time=453),
    Message('note_on', channel=0, note=57, velocity=0, time=0),
    Message('note_on', channel=0, note=57, velocity=96, time=25),
    Message('note_on', channel=0, note=57, velocity=0, time=227),
    Message('note_on', channel=0, note=64, velocity=96, time=13),
    Message('note_on', channel=0, note=69, velocity=96, time=0),
    Message('note_on', channel=0, note=64, velocity=0, time=455),
    Message('note_on', channel=0, note=69, velocity=0, time=0),
    Message('note_on', channel=0, note=57, velocity=96, time=25),
    Message('note_on', channel=0, note=57, velocity=0, time=227),
    Message('note_on', channel=0, note=64, velocity=96, time=13),
    Message('note_on', channel=0, note=64, velocity=0, time=227),
    Message('note_on', channel=0, note=57, velocity=96, time=13),
    Message('note_on', channel=0, note=57, velocity=0, time=227),
    Message('note_on', channel=0, note=40, velocity=96, time=13),
    Message('note_on', channel=0, note=52, velocity=96, time=0),
    Message('control_change', channel=0, control=64, value=0, time=1),
    Message('control_change', channel=0, control=64, value=127, time=1),
    Message('note_on', channel=0, note=40, velocity=0, time=453),
    Message('note_on', channel=0, note=52, velocity=0, time=0),
    Message('note_on', channel=0, note=52, velocity=96, time=25),
    Message('note_on', channel=0, note=52, velocity=0, time=227),
    Message('note_on', channel=0, note=59, velocity=96, time=13),
    Message('note_on', channel=0, note=64, velocity=96, time=0),
    Message('note_on', channel=0, note=59, velocity=0, time=455),
    Message('note_on', channel=0, note=64, velocity=0, time=0),
    Message('note_on', channel=0, note=52, velocity=96, time=25),
    Message('note_on', channel=0, note=52, velocity=0, time=227),
    Message('note_on', channel=0, note=59, velocity=96, time=13),
    Message('note_on', channel=0, note=59, velocity=0, time=227),
    Message('note_on', channel=0, note=52, velocity=96, time=13),
    Message('note_on', channel=0, note=52, velocity=0, time=227),
    Message('note_on', channel=0, note=35, velocity=96, time=13),
    Message('note_on', channel=0, note=47, velocity=96, time=0),
    Message('control_change', channel=0, control=64, value=0, time=1),
    Message('control_change', channel=0, control=64, value=127, time=1),
    Message('note_on', channel=0, note=35, velocity=0, time=453),
    Message('note_on', channel=0, note=47, velocity=0, time=0),
    Message('note_on', channel=0, note=47, velocity=96, time=25),
    Message('note_on', channel=0, note=47, velocity=0, time=227),
    Message('note_on', channel=0, note=54, velocity=96, time=13),
    Message('note_on', channel=0, note=59, velocity=96, time=0),
    Message('note_on', channel=0, note=54, velocity=0, time=455),
    Message('note_on', channel=0, note=59, velocity=0, time=0),
    Message('note_on', channel=0, note=47, velocity=96, time=25),
    Message('note_on', channel=0, note=47, velocity=0, time=227),
    Message('note_on', channel=0, note=54, velocity=96, time=13),
    Message('note_on', channel=0, note=54, velocity=0, time=227),
    Message('note_on', channel=0, note=47, velocity=96, time=13),
    Message('note_on', channel=0, note=47, velocity=0, time=227),
    Message('note_on', channel=0, note=38, velocity=96, time=13),
    Message('note_on', channel=0, note=50, velocity=96, time=0),
    Message('control_change', channel=0, control=64, value=0, time=1),
    Message('control_change', channel=0, control=64, value=127, time=1),
    Message('note_on', channel=0, note=38, velocity=0, time=453),
    Message('note_on', channel=0, note=50, velocity=0, time=0),
    Message('note_on', channel=0, note=50, velocity=96, time=25),
    Message('note_on', channel=0, note=50, velocity=0, time=227),
    Message('note_on', channel=0, note=57, velocity=96, time=13),
    Message('note_on', channel=0, note=62, velocity=96, time=0),
    Message('note_on', channel=0, note=57, velocity=0, time=455),
    Message('note_on', channel=0, note=62, velocity=0, time=0),
    Message('note_on', channel=0, note=50, velocity=96, time=25),
    Message('note_on', channel=0, note=50, velocity=0, time=227),
    Message('note_on', channel=0, note=57, velocity=96, time=13),
    Message('note_on', channel=0, note=57, velocity=0, time=227),
    Message('note_on', channel=0, note=50, velocity=96, time=13),
    Message('note_on', channel=0, note=50, velocity=0, time=227),
    Message('note_on', channel=0, note=45, velocity=96, time=13),
    Message('note_on', channel=0, note=57, velocity=96, time=0),
    Message('control_change', channel=0, control=64, value=0, time=1),
    Message('control_change', channel=0, control=64, value=127, time=1),
    Message('note_on', channel=0, note=45, velocity=0, time=453),
    Message('note_on', channel=0, note=57, velocity=0, time=0),
    Message('note_on', channel=0, note=57, velocity=96, time=25),
    Message('note_on', channel=0, note=57, velocity=0, time=227),
    Message('note_on', channel=0, note=64, velocity=96, time=13),
    Message('note_on', channel=0, note=69, velocity=96, time=0),
    Message('note_on', channel=0, note=64, velocity=0, time=455),
    Message('note_on', channel=0, note=69, velocity=0, time=0),
    Message('note_on', channel=0, note=57, velocity=96, time=25),
    Message('note_on', channel=0, note=57, velocity=0, time=227),
    Message('note_on', channel=0, note=64, velocity=96, time=13),
    Message('note_on', channel=0, note=64, velocity=0, time=227),
    Message('note_on', channel=0, note=57, velocity=96, time=13),
    Message('note_on', channel=0, note=57, velocity=0, time=227),
    Message('note_on', channel=0, note=40, velocity=96, time=13),
    Message('note_on', channel=0, note=52, velocity=96, time=0),
    Message('control_change', channel=0, control=64, value=0, time=1),
    Message('control_change', channel=0, control=64, value=127, time=1),
    Message('note_on', channel=0, note=40, velocity=0, time=453),
    Message('note_on', channel=0, note=52, velocity=0, time=0),
    Message('note_on', channel=0, note=52, velocity=96, time=25),
    Message('note_on', channel=0, note=52, velocity=0, time=227),
    Message('note_on', channel=0, note=59, velocity=96, time=13),
    Message('note_on', channel=0, note=64, velocity=96, time=0),
    Message('note_on', channel=0, note=59, velocity=0, time=455),
    Message('note_on', channel=0, note=64, velocity=0, time=0),
    Message('note_on', channel=0, note=52, velocity=96, time=25),
    Message('note_on', channel=0, note=52, velocity=0, time=227),
    Message('note_on', channel=0, note=59, velocity=96, time=13),
    Message('note_on', channel=0, note=59, velocity=0, time=227),
    Message('note_on', channel=0, note=52, velocity=96, time=13),
    Message('note_on', channel=0, note=52, velocity=0, time=227),
    Message('note_on', channel=0, note=35, velocity=96, time=13),
    Message('note_on', channel=0, note=47, velocity=96, time=0),
    Message('control_change', channel=0, control=64, value=0, time=1),
    Message('control_change', channel=0, control=64, value=127, time=1),
    Message('note_on', channel=0, note=35, velocity=0, time=453),
    Message('note_on', channel=0, note=47, velocity=0, time=0),
    Message('note_on', channel=0, note=35, velocity=96, time=25),
    Message('note_on', channel=0, note=47, velocity=96, time=0),
    Message('note_on', channel=0, note=35, velocity=0, time=341),
    Message('note_on', channel=0, note=47, velocity=0, time=0),
    Message('note_on', channel=0, note=47, velocity=96, time=19),
    Message('note_on', channel=0, note=47, velocity=0, time=113),
    Message('note_on', channel=0, note=54, velocity=96, time=7),
    Message('note_on', channel=0, note=59, velocity=96, time=0),
    Message('note_on', channel=0, note=54, velocity=0, time=227),
    Message('note_on', channel=0, note=59, velocity=0, time=0),
    Message('note_on', channel=0, note=47, velocity=96, time=13),
    Message('note_on', channel=0, note=47, velocity=0, time=227),
    Message('note_on', channel=0, note=54, velocity=96, time=13),
    Message('note_on', channel=0, note=54, velocity=0, time=113),
    Message('note_on', channel=0, note=50, velocity=96, time=7),
    Message('note_on', channel=0, note=50, velocity=0, time=113),
    Message('note_on', channel=0, note=47, velocity=96, time=7),
    Message('note_on', channel=0, note=47, velocity=0, time=227),
    Message('note_on', channel=0, note=38, velocity=96, time=13),
    Message('note_on', channel=0, note=50, velocity=96, time=0),
    Message('control_change', channel=0, control=64, value=0, time=1),
    Message('control_change', channel=0, control=64, value=127, time=1),
    Message('note_on', channel=0, note=38, velocity=0, time=453),
    Message('note_on', channel=0, note=50, velocity=0, time=0),
    Message('note_on', channel=0, note=38, velocity=96, time=25),
    Message('note_on', channel=0, note=50, velocity=96, time=0),
    Message('note_on', channel=0, note=38, velocity=0, time=341),
    Message('note_on', channel=0, note=50, velocity=0, time=0),
    Message('note_on', channel=0, note=50, velocity=96, time=19),
    Message('note_on', channel=0, note=50, velocity=0, time=113),
    Message('note_on', channel=0, note=57, velocity=96, time=7),
    Message('note_on', channel=0, note=62, velocity=96, time=0),
    Message('note_on', channel=0, note=57, velocity=0, time=227),
    Message('note_on', channel=0, note=62, velocity=0, time=0),
    Message('note_on', channel=0, note=50, velocity=96, time=13),
    Message('note_on', channel=0, note=50, velocity=0, time=227),
    Message('note_on', channel=0, note=57, velocity=96, time=13),
    Message('note_on', channel=0, note=57, velocity=0, time=113),
    Message('note_on', channel=0, note=54, velocity=96, time=7),
    Message('note_on', channel=0, note=54, velocity=0, time=113),
    Message('note_on', channel=0, note=50, velocity=96, time=7),
    Message('note_on', channel=0, note=50, velocity=0, time=227),
    Message('note_on', channel=0, note=45, velocity=96, time=13),
    Message('note_on', channel=0, note=57, velocity=96, time=0),
    Message('control_change', channel=0, control=64, value=0, time=1),
    Message('control_change', channel=0, control=64, value=127, time=1),
    Message('note_on', channel=0, note=45, velocity=0, time=453),
    Message('note_on', channel=0, note=57, velocity=0, time=0),
    Message('note_on', channel=0, note=45, velocity=96, time=25),
    Message('note_on', channel=0, note=57, velocity=96, time=0),
    Message('note_on', channel=0, note=45, velocity=0, time=341),
    Message('note_on', channel=0, note=57, velocity=0, time=0),
    Message('note_on', channel=0, note=57, velocity=96, time=19),
    Message('note_on', channel=0, note=57, velocity=0, time=113),
    Message('note_on', channel=0, note=64, velocity=96, time=7),
    Message('note_on', channel=0, note=69, velocity=96, time=0),
    Message('note_on', channel=0, note=64, velocity=0, time=227),
    Message('note_on', channel=0, note=69, velocity=0, time=0),
    Message('note_on', channel=0, note=45, velocity=96, time=13),
    Message('note_on', channel=0, note=57, velocity=96, time=0),
    Message('note_on', channel=0, note=45, velocity=0, time=227),
    Message('note_on', channel=0, note=57, velocity=0, time=0),
    Message('note_on', channel=0, note=64, velocity=96, time=13),
    Message('note_on', channel=0, note=64, velocity=0, time=113),
    Message('note_on', channel=0, note=61, velocity=96, time=7),
    Message('note_on', channel=0, note=61, velocity=0, time=113),
    Message('note_on', channel=0, note=57, velocity=96, time=7),
    Message('note_on', channel=0, note=57, velocity=0, time=227),
    Message('note_on', channel=0, note=40, velocity=96, time=13),
    Message('note_on', channel=0, note=52, velocity=96, time=0),
    Message('control_change', channel=0, control=64, value=0, time=1),
    Message('control_change', channel=0, control=64, value=127, time=1),
    Message('note_on', channel=0, note=40, velocity=0, time=453),
    Message('note_on', channel=0, note=52, velocity=0, time=0),
    Message('note_on', channel=0, note=40, velocity=96, time=25),
    Message('note_on', channel=0, note=52, velocity=96, time=0),
    Message('note_on', channel=0, note=40, velocity=0, time=341),
    Message('note_on', channel=0, note=52, velocity=0, time=0),
    Message('note_on', channel=0, note=52, velocity=96, time=19),
    Message('note_on', channel=0, note=52, velocity=0, time=113),
    Message('note_on', channel=0, note=59, velocity=96, time=7),
    Message('note_on', channel=0, note=64, velocity=96, time=0),
    Message('note_on', channel=0, note=59, velocity=0, time=227),
    Message('note_on', channel=0, note=64, velocity=0, time=0),
    Message('note_on', channel=0, note=52, velocity=96, time=13),
    Message('note_on', channel=0, note=52, velocity=0, time=227),
    Message('note_on', channel=0, note=59, velocity=96, time=13),
    Message('note_on', channel=0, note=59, velocity=0, time=113),
    Message('note_on', channel=0, note=56, velocity=96, time=7),
    Message('note_on', channel=0, note=56, velocity=0, time=113),
    Message('note_on', channel=0, note=52, velocity=96, time=7),
    Message('note_on', channel=0, note=52, velocity=0, time=227),
    Message('note_on', channel=0, note=35, velocity=96, time=13),
    Message('note_on', channel=0, note=47, velocity=96, time=0),
    Message('control_change', channel=0, control=64, value=0, time=1),
    Message('control_change', channel=0, control=64, value=0, time=0),
    Message('control_change', channel=0, control=64, value=127, time=1),
    Message('note_on', channel=0, note=35, velocity=0, time=453),
    Message('note_on', channel=0, note=47, velocity=0, time=0),
    Message('note_on', channel=0, note=35, velocity=96, time=25),
    Message('note_on', channel=0, note=47, velocity=96, time=0),
    Message('note_on', channel=0, note=35, velocity=0, time=341),
    Message('note_on', channel=0, note=47, velocity=0, time=0),
    Message('note_on', channel=0, note=47, velocity=96, time=19),
    Message('note_on', channel=0, note=47, velocity=0, time=113),
    Message('note_on', channel=0, note=54, velocity=96, time=7),
    Message('note_on', channel=0, note=59, velocity=96, time=0),
    Message('note_on', channel=0, note=54, velocity=0, time=227),
    Message('note_on', channel=0, note=59, velocity=0, time=0),
    Message('note_on', channel=0, note=47, velocity=96, time=13),
    Message('note_on', channel=0, note=47, velocity=0, time=227),
    Message('note_on', channel=0, note=54, velocity=96, time=13),
    Message('note_on', channel=0, note=54, velocity=0, time=113),
    Message('note_on', channel=0, note=50, velocity=96, time=7),
    Message('note_on', channel=0, note=50, velocity=0, time=113),
    Message('note_on', channel=0, note=47, velocity=96, time=7),
    Message('note_on', channel=0, note=47, velocity=0, time=227),
    Message('note_on', channel=0, note=38, velocity=96, time=13),
    Message('note_on', channel=0, note=50, velocity=96, time=0),
    Message('control_change', channel=0, control=64, value=0, time=1),
    Message('control_change', channel=0, control=64, value=127, time=1),
    Message('note_on', channel=0, note=38, velocity=0, time=453),
    Message('note_on', channel=0, note=50, velocity=0, time=0),
    Message('note_on', channel=0, note=38, velocity=96, time=25),
    Message('note_on', channel=0, note=50, velocity=96, time=0),
    Message('note_on', channel=0, note=38, velocity=0, time=341),
    Message('note_on', channel=0, note=50, velocity=0, time=0),
    Message('note_on', channel=0, note=50, velocity=96, time=19),
    Message('note_on', channel=0, note=50, velocity=0, time=113),
    Message('note_on', channel=0, note=57, velocity=96, time=7),
    Message('note_on', channel=0, note=62, velocity=96, time=0),
    Message('note_on', channel=0, note=57, velocity=0, time=227),
    Message('note_on', channel=0, note=62, velocity=0, time=0),
    Message('note_on', channel=0, note=50, velocity=96, time=13),
    Message('note_on', channel=0, note=50, velocity=0, time=227),
    Message('note_on', channel=0, note=57, velocity=96, time=13),
    Message('note_on', channel=0, note=57, velocity=0, time=113),
    Message('note_on', channel=0, note=54, velocity=96, time=7),
    Message('note_on', channel=0, note=54, velocity=0, time=113),
    Message('note_on', channel=0, note=50, velocity=96, time=7),
    Message('note_on', channel=0, note=50, velocity=0, time=227),
    Message('note_on', channel=0, note=45, velocity=96, time=13),
    Message('note_on', channel=0, note=57, velocity=96, time=0),
    Message('control_change', channel=0, control=64, value=0, time=1),
    Message('control_change', channel=0, control=64, value=127, time=1),
    Message('note_on', channel=0, note=45, velocity=0, time=453),
    Message('note_on', channel=0, note=57, velocity=0, time=0),
    Message('note_on', channel=0, note=45, velocity=96, time=25),
    Message('note_on', channel=0, note=57, velocity=96, time=0),
    Message('note_on', channel=0, note=45, velocity=0, time=341),
    Message('note_on', channel=0, note=57, velocity=0, time=0),
    Message('note_on', channel=0, note=57, velocity=96, time=19),
    Message('note_on', channel=0, note=57, velocity=0, time=113),
    Message('note_on', channel=0, note=64, velocity=96, time=7),
    Message('note_on', channel=0, note=69, velocity=96, time=0),
    Message('note_on', channel=0, note=64, velocity=0, time=227),
    Message('note_on', channel=0, note=69, velocity=0, time=0),
    Message('note_on', channel=0, note=45, velocity=96, time=13),
    Message('note_on', channel=0, note=57, velocity=96, time=0),
    Message('note_on', channel=0, note=45, velocity=0, time=227),
    Message('note_on', channel=0, note=57, velocity=0, time=0),
    Message('note_on', channel=0, note=64, velocity=96, time=13),
    Message('note_on', channel=0, note=64, velocity=0, time=113),
    Message('note_on', channel=0, note=61, velocity=96, time=7),
    Message('note_on', channel=0, note=61, velocity=0, time=113),
    Message('note_on', channel=0, note=57, velocity=96, time=7),
    Message('note_on', channel=0, note=57, velocity=0, time=227),
    Message('note_on', channel=0, note=40, velocity=96, time=13),
    Message('note_on', channel=0, note=52, velocity=96, time=0),
    Message('control_change', channel=0, control=64, value=0, time=1),
    Message('control_change', channel=0, control=64, value=127, time=1),
    Message('note_on', channel=0, note=40, velocity=0, time=453),
    Message('note_on', channel=0, note=52, velocity=0, time=0),
    Message('note_on', channel=0, note=40, velocity=96, time=25),
    Message('note_on', channel=0, note=52, velocity=96, time=0),
    Message('note_on', channel=0, note=40, velocity=0, time=341),
    Message('note_on', channel=0, note=52, velocity=0, time=0),
    Message('note_on', channel=0, note=52, velocity=96, time=19),
    Message('note_on', channel=0, note=52, velocity=0, time=113),
    Message('note_on', channel=0, note=59, velocity=96, time=7),
    Message('note_on', channel=0, note=64, velocity=96, time=0),
    Message('note_on', channel=0, note=59, velocity=0, time=227),
    Message('note_on', channel=0, note=64, velocity=0, time=0),
    Message('note_on', channel=0, note=52, velocity=96, time=13),
    Message('note_on', channel=0, note=52, velocity=0, time=227),
    Message('note_on', channel=0, note=59, velocity=96, time=13),
    Message('note_on', channel=0, note=59, velocity=0, time=113),
    Message('note_on', channel=0, note=56, velocity=96, time=7),
    Message('note_on', channel=0, note=56, velocity=0, time=113),
    Message('note_on', channel=0, note=52, velocity=96, time=7),
    Message('note_on', channel=0, note=52, velocity=0, time=227),
    Message('note_on', channel=0, note=35, velocity=80, time=13),
    Message('note_on', channel=0, note=47, velocity=80, time=0),
    Message('control_change', channel=0, control=64, value=0, time=1),
    Message('control_change', channel=0, control=64, value=127, time=1),
    Message('note_on', channel=0, note=35, velocity=0, time=453),
    Message('note_on', channel=0, note=47, velocity=0, time=0),
    Message('note_on', channel=0, note=47, velocity=80, time=25),
    Message('note_on', channel=0, note=47, velocity=0, time=227),
    Message('note_on', channel=0, note=47, velocity=80, time=13),
    Message('note_on', channel=0, note=47, velocity=0, time=227),
    Message('note_on', channel=0, note=54, velocity=80, time=13),
    Message('note_on', channel=0, note=59, velocity=80, time=0),
    Message('note_on', channel=0, note=54, velocity=0, time=227),
    Message('note_on', channel=0, note=59, velocity=0, time=0),
    Message('note_on', channel=0, note=47, velocity=80, time=13),
    Message('note_on', channel=0, note=47, velocity=0, time=227),
    Message('note_on', channel=0, note=54, velocity=80, time=13),
    Message('note_on', channel=0, note=54, velocity=0, time=227),
    Message('note_on', channel=0, note=47, velocity=80, time=13),
    Message('note_on', channel=0, note=47, velocity=0, time=227),
    Message('note_on', channel=0, note=38, velocity=80, time=13),
    Message('note_on', channel=0, note=50, velocity=80, time=0),
    Message('control_change', channel=0, control=64, value=0, time=1),
    Message('control_change', channel=0, control=64, value=127, time=1),
    Message('note_on', channel=0, note=38, velocity=0, time=453),
    Message('note_on', channel=0, note=50, velocity=0, time=0),
    Message('note_on', channel=0, note=50, velocity=80, time=25),
    Message('note_on', channel=0, note=50, velocity=0, time=227),
    Message('note_on', channel=0, note=50, velocity=80, time=13),
    Message('note_on', channel=0, note=50, velocity=0, time=227),
    Message('note_on', channel=0, note=57, velocity=80, time=13),
    Message('note_on', channel=0, note=62, velocity=80, time=0),
    Message('note_on', channel=0, note=57, velocity=0, time=227),
    Message('note_on', channel=0, note=62, velocity=0, time=0),
    Message('note_on', channel=0, note=50, velocity=80, time=13),
    Message('note_on', channel=0, note=50, velocity=0, time=227),
    Message('note_on', channel=0, note=57, velocity=80, time=13),
    Message('note_on', channel=0, note=57, velocity=0, time=227),
    Message('note_on', channel=0, note=50, velocity=80, time=13),
    Message('note_on', channel=0, note=50, velocity=0, time=227),
    Message('note_on', channel=0, note=33, velocity=80, time=13),
    Message('note_on', channel=0, note=45, velocity=80, time=0),
    Message('control_change', channel=0, control=64, value=0, time=1),
    Message('control_change', channel=0, control=64, value=127, time=1),
    Message('note_on', channel=0, note=33, velocity=0, time=453),
    Message('note_on', channel=0, note=45, velocity=0, time=0),
    Message('note_on', channel=0, note=45, velocity=80, time=25),
    Message('note_on', channel=0, note=45, velocity=0, time=227),
    Message('note_on', channel=0, note=45, velocity=80, time=13),
    Message('note_on', channel=0, note=45, velocity=0, time=227),
    Message('note_on', channel=0, note=52, velocity=80, time=13),
    Message('note_on', channel=0, note=57, velocity=80, time=0),
    Message('note_on', channel=0, note=52, velocity=0, time=227),
    Message('note_on', channel=0, note=57, velocity=0, time=0),
    Message('note_on', channel=0, note=45, velocity=80, time=13),
    Message('note_on', channel=0, note=45, velocity=0, time=227),
    Message('note_on', channel=0, note=52, velocity=80, time=13),
    Message('note_on', channel=0, note=52, velocity=0, time=227),
    Message('note_on', channel=0, note=45, velocity=80, time=13),
    Message('note_on', channel=0, note=45, velocity=0, time=227),
    Message('note_on', channel=0, note=28, velocity=80, time=13),
    Message('note_on', channel=0, note=40, velocity=80, time=0),
    Message('control_change', channel=0, control=64, value=0, time=1),
    Message('control_change', channel=0, control=64, value=127, time=1),
    Message('note_on', channel=0, note=28, velocity=0, time=453),
    Message('note_on', channel=0, note=40, velocity=0, time=0),
    Message('note_on', channel=0, note=40, velocity=80, time=25),
    Message('note_on', channel=0, note=40, velocity=0, time=227),
    Message('note_on', channel=0, note=40, velocity=80, time=13),
    Message('note_on', channel=0, note=40, velocity=0, time=227),
    Message('note_on', channel=0, note=47, velocity=80, time=13),
    Message('note_on', channel=0, note=52, velocity=80, time=0),
    Message('note_on', channel=0, note=47, velocity=0, time=227),
    Message('note_on', channel=0, note=52, velocity=0, time=0),
    Message('note_on', channel=0, note=40, velocity=80, time=13),
    Message('note_on', channel=0, note=40, velocity=0, time=227),
    Message('note_on', channel=0, note=47, velocity=80, time=13),
    Message('note_on', channel=0, note=47, velocity=0, time=227),
    Message('note_on', channel=0, note=40, velocity=80, time=13),
    Message('note_on', channel=0, note=40, velocity=0, time=227),
    Message('note_on', channel=0, note=35, velocity=80, time=13),
    Message('note_on', channel=0, note=47, velocity=80, time=0),
    Message('control_change', channel=0, control=64, value=0, time=1),
    Message('control_change', channel=0, control=64, value=0, time=0),
    Message('control_change', channel=0, control=64, value=0, time=0),
    Message('control_change', channel=0, control=64, value=0, time=0),
    Message('control_change', channel=0, control=64, value=127, time=1),
    Message('control_change', channel=0, control=64, value=127, time=0),
    Message('control_change', channel=0, control=64, value=127, time=0),
    Message('control_change', channel=0, control=64, value=127, time=0),
    Message('note_on', channel=0, note=35, velocity=0, time=453),
    Message('note_on', channel=0, note=47, velocity=0, time=0),
    Message('note_on', channel=0, note=47, velocity=80, time=25),
    Message('note_on', channel=0, note=47, velocity=0, time=227),
    Message('note_on', channel=0, note=47, velocity=80, time=13),
    Message('note_on', channel=0, note=47, velocity=0, time=227),
    Message('note_on', channel=0, note=54, velocity=80, time=13),
    Message('note_on', channel=0, note=59, velocity=80, time=0),
    Message('note_on', channel=0, note=54, velocity=0, time=227),
    Message('note_on', channel=0, note=59, velocity=0, time=0),
    Message('note_on', channel=0, note=47, velocity=80, time=13),
    Message('note_on', channel=0, note=47, velocity=0, time=227),
    Message('note_on', channel=0, note=54, velocity=80, time=13),
    Message('note_on', channel=0, note=54, velocity=0, time=227),
    Message('note_on', channel=0, note=47, velocity=80, time=13),
    Message('note_on', channel=0, note=47, velocity=0, time=227),
    Message('note_on', channel=0, note=38, velocity=80, time=13),
    Message('note_on', channel=0, note=50, velocity=80, time=0),
    Message('control_change', channel=0, control=64, value=0, time=1),
    Message('control_change', channel=0, control=64, value=127, time=1),
    Message('note_on', channel=0, note=38, velocity=0, time=453),
    Message('note_on', channel=0, note=50, velocity=0, time=0),
    Message('note_on', channel=0, note=50, velocity=80, time=25),
    Message('note_on', channel=0, note=50, velocity=0, time=227),
    Message('note_on', channel=0, note=50, velocity=80, time=13),
    Message('note_on', channel=0, note=50, velocity=0, time=227),
    Message('note_on', channel=0, note=57, velocity=80, time=13),
    Message('note_on', channel=0, note=62, velocity=80, time=0),
    Message('note_on', channel=0, note=57, velocity=0, time=227),
    Message('note_on', channel=0, note=62, velocity=0, time=0),
    Message('note_on', channel=0, note=50, velocity=80, time=13),
    Message('note_on', channel=0, note=50, velocity=0, time=227),
    Message('note_on', channel=0, note=57, velocity=80, time=13),
    Message('note_on', channel=0, note=57, velocity=0, time=227),
    Message('note_on', channel=0, note=50, velocity=80, time=13),
    Message('note_on', channel=0, note=50, velocity=0, time=227),
    Message('note_on', channel=0, note=33, velocity=80, time=13),
    Message('note_on', channel=0, note=45, velocity=80, time=0),
    Message('control_change', channel=0, control=64, value=0, time=1),
    Message('control_change', channel=0, control=64, value=0, time=0),
    Message('control_change', channel=0, control=64, value=0, time=0),
    Message('control_change', channel=0, control=64, value=0, time=0),
    Message('control_change', channel=0, control=64, value=127, time=1),
    Message('control_change', channel=0, control=64, value=127, time=0),
    Message('control_change', channel=0, control=64, value=127, time=0),
    Message('control_change', channel=0, control=64, value=127, time=0),
    Message('note_on', channel=0, note=33, velocity=0, time=453),
    Message('note_on', channel=0, note=45, velocity=0, time=0),
    Message('note_on', channel=0, note=45, velocity=80, time=25),
    Message('note_on', channel=0, note=45, velocity=0, time=227),
    Message('note_on', channel=0, note=45, velocity=80, time=13),
    Message('note_on', channel=0, note=45, velocity=0, time=227),
    Message('note_on', channel=0, note=52, velocity=80, time=13),
    Message('note_on', channel=0, note=57, velocity=80, time=0),
    Message('note_on', channel=0, note=52, velocity=0, time=227),
    Message('note_on', channel=0, note=57, velocity=0, time=0),
    Message('note_on', channel=0, note=45, velocity=80, time=13),
    Message('note_on', channel=0, note=45, velocity=0, time=227),
    Message('note_on', channel=0, note=52, velocity=80, time=13),
    Message('note_on', channel=0, note=52, velocity=0, time=227),
    Message('note_on', channel=0, note=45, velocity=80, time=13),
    Message('note_on', channel=0, note=45, velocity=0, time=227),
    Message('note_on', channel=0, note=28, velocity=80, time=13),
    Message('note_on', channel=0, note=40, velocity=80, time=0),
    Message('control_change', channel=0, control=64, value=0, time=1),
    Message('control_change', channel=0, control=64, value=0, time=0),
    Message('control_change', channel=0, control=64, value=0, time=0),
    Message('control_change', channel=0, control=64, value=0, time=0),
    Message('control_change', channel=0, control=64, value=127, time=1),
    Message('control_change', channel=0, control=64, value=127, time=0),
    Message('control_change', channel=0, control=64, value=127, time=0),
    Message('control_change', channel=0, control=64, value=127, time=0),
    Message('note_on', channel=0, note=28, velocity=0, time=453),
    Message('note_on', channel=0, note=40, velocity=0, time=0),
    Message('note_on', channel=0, note=40, velocity=80, time=25),
    Message('note_on', channel=0, note=40, velocity=0, time=227),
    Message('note_on', channel=0, note=40, velocity=80, time=13),
    Message('note_on', channel=0, note=40, velocity=0, time=227),
    Message('note_on', channel=0, note=47, velocity=80, time=13),
    Message('note_on', channel=0, note=52, velocity=80, time=0),
    Message('note_on', channel=0, note=47, velocity=0, time=227),
    Message('note_on', channel=0, note=52, velocity=0, time=0),
    Message('note_on', channel=0, note=40, velocity=80, time=13),
    Message('note_on', channel=0, note=40, velocity=0, time=227),
    Message('note_on', channel=0, note=47, velocity=80, time=13),
    Message('note_on', channel=0, note=47, velocity=0, time=227),
    Message('note_on', channel=0, note=40, velocity=80, time=13),
    Message('note_on', channel=0, note=40, velocity=0, time=227),
    Message('note_on', channel=0, note=35, velocity=80, time=13),
    Message('note_on', channel=0, note=47, velocity=80, time=0),
    Message('control_change', channel=0, control=64, value=0, time=1),
    Message('control_change', channel=0, control=64, value=0, time=0),
    Message('control_change', channel=0, control=64, value=127, time=1),
    Message('note_on', channel=0, note=35, velocity=0, time=453),
    Message('note_on', channel=0, note=47, velocity=0, time=0),
    Message('note_on', channel=0, note=47, velocity=80, time=25),
    Message('note_on', channel=0, note=47, velocity=0, time=227),
    Message('note_on', channel=0, note=47, velocity=80, time=13),
    Message('note_on', channel=0, note=47, velocity=0, time=227),
    Message('note_on', channel=0, note=54, velocity=80, time=13),
    Message('note_on', channel=0, note=59, velocity=80, time=0),
    Message('note_on', channel=0, note=54, velocity=0, time=227),
    Message('note_on', channel=0, note=59, velocity=0, time=0),
    Message('note_on', channel=0, note=47, velocity=80, time=13),
    Message('note_on', channel=0, note=47, velocity=0, time=227),
    Message('note_on', channel=0, note=54, velocity=80, time=13),
    Message('note_on', channel=0, note=54, velocity=0, time=227),
    Message('note_on', channel=0, note=47, velocity=80, time=13),
    Message('note_on', channel=0, note=47, velocity=0, time=227),
    Message('note_on', channel=0, note=38, velocity=80, time=13),
    Message('note_on', channel=0, note=50, velocity=80, time=0),
    Message('control_change', channel=0, control=64, value=0, time=1),
    Message('control_change', channel=0, control=64, value=127, time=1),
    Message('note_on', channel=0, note=38, velocity=0, time=453),
    Message('note_on', channel=0, note=50, velocity=0, time=0),
    Message('note_on', channel=0, note=50, velocity=80, time=25),
    Message('note_on', channel=0, note=50, velocity=0, time=227),
    Message('note_on', channel=0, note=50, velocity=80, time=13),
    Message('note_on', channel=0, note=50, velocity=0, time=227),
    Message('note_on', channel=0, note=57, velocity=80, time=13),
    Message('note_on', channel=0, note=62, velocity=80, time=0),
    Message('note_on', channel=0, note=57, velocity=0, time=227),
    Message('note_on', channel=0, note=62, velocity=0, time=0),
    Message('note_on', channel=0, note=50, velocity=80, time=13),
    Message('note_on', channel=0, note=50, velocity=0, time=227),
    Message('note_on', channel=0, note=57, velocity=80, time=13),
    Message('note_on', channel=0, note=57, velocity=0, time=227),
    Message('note_on', channel=0, note=50, velocity=80, time=13),
    Message('note_on', channel=0, note=50, velocity=0, time=227),
    Message('note_on', channel=0, note=33, velocity=80, time=13),
    Message('note_on', channel=0, note=45, velocity=80, time=0),
    Message('control_change', channel=0, control=64, value=0, time=1),
    Message('control_change', channel=0, control=64, value=127, time=1),
    Message('note_on', channel=0, note=33, velocity=0, time=453),
    Message('note_on', channel=0, note=45, velocity=0, time=0),
    Message('note_on', channel=0, note=45, velocity=80, time=25),
    Message('note_on', channel=0, note=45, velocity=0, time=227),
    Message('note_on', channel=0, note=45, velocity=80, time=13),
    Message('note_on', channel=0, note=45, velocity=0, time=227),
    Message('note_on', channel=0, note=52, velocity=80, time=13),
    Message('note_on', channel=0, note=57, velocity=80, time=0),
    Message('note_on', channel=0, note=52, velocity=0, time=227),
    Message('note_on', channel=0, note=57, velocity=0, time=0),
    Message('note_on', channel=0, note=45, velocity=80, time=13),
    Message('note_on', channel=0, note=45, velocity=0, time=227),
    Message('note_on', channel=0, note=52, velocity=80, time=13),
    Message('note_on', channel=0, note=52, velocity=0, time=227),
    Message('note_on', channel=0, note=45, velocity=80, time=13),
    Message('note_on', channel=0, note=45, velocity=0, time=227),
    Message('note_on', channel=0, note=28, velocity=80, time=13),
    Message('note_on', channel=0, note=40, velocity=80, time=0),
    Message('control_change', channel=0, control=64, value=0, time=1),
    Message('control_change', channel=0, control=64, value=127, time=1),
    Message('note_on', channel=0, note=28, velocity=0, time=453),
    Message('note_on', channel=0, note=40, velocity=0, time=0),
    Message('note_on', channel=0, note=40, velocity=80, time=25),
    Message('note_on', channel=0, note=40, velocity=0, time=227),
    Message('note_on', channel=0, note=40, velocity=80, time=13),
    Message('note_on', channel=0, note=40, velocity=0, time=227),
    Message('note_on', channel=0, note=47, velocity=80, time=13),
    Message('note_on', channel=0, note=52, velocity=80, time=0),
    Message('note_on', channel=0, note=47, velocity=0, time=227),
    Message('note_on', channel=0, note=52, velocity=0, time=0),
    Message('note_on', channel=0, note=40, velocity=80, time=13),
    Message('note_on', channel=0, note=40, velocity=0, time=227),
    Message('note_on', channel=0, note=47, velocity=80, time=13),
    Message('note_on', channel=0, note=47, velocity=0, time=227),
    Message('note_on', channel=0, note=40, velocity=80, time=13),
    Message('note_on', channel=0, note=40, velocity=0, time=227),
    Message('note_on', channel=0, note=35, velocity=80, time=13),
    Message('note_on', channel=0, note=47, velocity=80, time=0),
    Message('control_change', channel=0, control=64, value=0, time=1),
    Message('control_change', channel=0, control=64, value=0, time=0),
    Message('control_change', channel=0, control=64, value=0, time=0),
    Message('control_change', channel=0, control=64, value=0, time=0),
    Message('control_change', channel=0, control=64, value=127, time=1),
    Message('control_change', channel=0, control=64, value=127, time=0),
    Message('control_change', channel=0, control=64, value=127, time=0),
    Message('control_change', channel=0, control=64, value=127, time=0),
    Message('note_on', channel=0, note=35, velocity=0, time=453),
    Message('note_on', channel=0, note=47, velocity=0, time=0),
    Message('note_on', channel=0, note=47, velocity=80, time=25),
    Message('note_on', channel=0, note=47, velocity=0, time=227),
    Message('note_on', channel=0, note=47, velocity=80, time=13),
    Message('note_on', channel=0, note=47, velocity=0, time=227),
    Message('note_on', channel=0, note=54, velocity=80, time=13),
    Message('note_on', channel=0, note=59, velocity=80, time=0),
    Message('note_on', channel=0, note=54, velocity=0, time=227),
    Message('note_on', channel=0, note=59, velocity=0, time=0),
    Message('note_on', channel=0, note=47, velocity=80, time=13),
    Message('note_on', channel=0, note=47, velocity=0, time=227),
    Message('note_on', channel=0, note=54, velocity=80, time=13),
    Message('note_on', channel=0, note=54, velocity=0, time=227),
    Message('note_on', channel=0, note=47, velocity=80, time=13),
    Message('note_on', channel=0, note=47, velocity=0, time=227),
    Message('note_on', channel=0, note=38, velocity=80, time=13),
    Message('note_on', channel=0, note=50, velocity=80, time=0),
    Message('control_change', channel=0, control=64, value=0, time=1),
    Message('control_change', channel=0, control=64, value=127, time=1),
    Message('note_on', channel=0, note=38, velocity=0, time=453),
    Message('note_on', channel=0, note=50, velocity=0, time=0),
    Message('note_on', channel=0, note=50, velocity=80, time=25),
    Message('note_on', channel=0, note=50, velocity=0, time=227),
    Message('note_on', channel=0, note=50, velocity=80, time=13),
    Message('note_on', channel=0, note=50, velocity=0, time=227),
    Message('note_on', channel=0, note=57, velocity=80, time=13),
    Message('note_on', channel=0, note=62, velocity=80, time=0),
    Message('note_on', channel=0, note=57, velocity=0, time=227),
    Message('note_on', channel=0, note=62, velocity=0, time=0),
    Message('note_on', channel=0, note=50, velocity=80, time=13),
    Message('note_on', channel=0, note=50, velocity=0, time=227),
    Message('note_on', channel=0, note=57, velocity=80, time=13),
    Message('note_on', channel=0, note=57, velocity=0, time=227),
    Message('note_on', channel=0, note=50, velocity=80, time=13),
    Message('note_on', channel=0, note=50, velocity=0, time=227),
    Message('note_on', channel=0, note=33, velocity=80, time=13),
    Message('note_on', channel=0, note=45, velocity=80, time=0),
    Message('control_change', channel=0, control=64, value=0, time=1),
    Message('control_change', channel=0, control=64, value=0, time=0),
    Message('control_change', channel=0, control=64, value=0, time=0),
    Message('control_change', channel=0, control=64, value=0, time=0),
    Message('control_change', channel=0, control=64, value=0, time=0),
    Message('control_change', channel=0, control=64, value=0, time=0),
    Message('control_change', channel=0, control=64, value=0, time=0),
    Message('control_change', channel=0, control=64, value=0, time=0),
    Message('control_change', channel=0, control=64, value=127, time=1),
    Message('control_change', channel=0, control=64, value=127, time=0),
    Message('control_change', channel=0, control=64, value=127, time=0),
    Message('control_change', channel=0, control=64, value=127, time=0),
    Message('note_on', channel=0, note=33, velocity=0, time=453),
    Message('note_on', channel=0, note=45, velocity=0, time=0),
    Message('note_on', channel=0, note=45, velocity=80, time=25),
    Message('note_on', channel=0, note=45, velocity=0, time=227),
    Message('note_on', channel=0, note=45, velocity=80, time=13),
    Message('note_on', channel=0, note=45, velocity=0, time=227),
    Message('note_on', channel=0, note=52, velocity=80, time=13),
    Message('note_on', channel=0, note=57, velocity=80, time=0),
    Message('note_on', channel=0, note=52, velocity=0, time=227),
    Message('note_on', channel=0, note=57, velocity=0, time=0),
    Message('note_on', channel=0, note=45, velocity=80, time=13),
    Message('note_on', channel=0, note=45, velocity=0, time=227),
    Message('note_on', channel=0, note=52, velocity=80, time=13),
    Message('note_on', channel=0, note=52, velocity=0, time=227),
    Message('note_on', channel=0, note=45, velocity=80, time=13),
    Message('note_on', channel=0, note=45, velocity=0, time=227),
    Message('note_on', channel=0, note=28, velocity=80, time=13),
    Message('note_on', channel=0, note=40, velocity=80, time=0),
    Message('control_change', channel=0, control=64, value=0, time=1),
    Message('control_change', channel=0, control=64, value=127, time=1),
    Message('note_on', channel=0, note=28, velocity=0, time=453),
    Message('note_on', channel=0, note=40, velocity=0, time=0),
    Message('note_on', channel=0, note=40, velocity=80, time=25),
    Message('note_on', channel=0, note=40, velocity=0, time=227),
    Message('note_on', channel=0, note=40, velocity=80, time=13),
    Message('note_on', channel=0, note=40, velocity=0, time=227),
    Message('note_on', channel=0, note=47, velocity=80, time=13),
    Message('note_on', channel=0, note=52, velocity=80, time=0),
    Message('note_on', channel=0, note=47, velocity=0, time=227),
    Message('note_on', channel=0, note=52, velocity=0, time=0),
    Message('note_on', channel=0, note=40, velocity=80, time=13),
    Message('note_on', channel=0, note=40, velocity=0, time=227),
    Message('note_on', channel=0, note=47, velocity=80, time=13),
    Message('note_on', channel=0, note=47, velocity=0, time=227),
    Message('note_on', channel=0, note=40, velocity=80, time=13),
    Message('note_on', channel=0, note=40, velocity=0, time=227),
    Message('note_on', channel=0, note=35, velocity=96, time=13),
    Message('note_on', channel=0, note=47, velocity=96, time=0),
    Message('control_change', channel=0, control=64, value=0, time=1),
    Message('control_change', channel=0, control=64, value=127, time=1),
    Message('note_on', channel=0, note=35, velocity=0, time=453),
    Message('note_on', channel=0, note=47, velocity=0, time=0),
    Message('note_on', channel=0, note=47, velocity=96, time=25),
    Message('note_on', channel=0, note=47, velocity=0, time=227),
    Message('note_on', channel=0, note=54, velocity=96, time=13),
    Message('note_on', channel=0, note=59, velocity=96, time=0),
    Message('note_on', channel=0, note=54, velocity=0, time=455),
    Message('note_on', channel=0, note=59, velocity=0, time=0),
    Message('note_on', channel=0, note=47, velocity=96, time=25),
    Message('note_on', channel=0, note=47, velocity=0, time=227),
    Message('note_on', channel=0, note=54, velocity=96, time=13),
    Message('note_on', channel=0, note=54, velocity=0, time=227),
    Message('note_on', channel=0, note=47, velocity=96, time=13),
    Message('note_on', channel=0, note=47, velocity=0, time=227),
    Message('note_on', channel=0, note=38, velocity=96, time=13),
    Message('note_on', channel=0, note=50, velocity=96, time=0),
    Message('control_change', channel=0, control=64, value=0, time=1),
    Message('control_change', channel=0, control=64, value=127, time=1),
    Message('note_on', channel=0, note=38, velocity=0, time=453),
    Message('note_on', channel=0, note=50, velocity=0, time=0),
    Message('note_on', channel=0, note=50, velocity=96, time=25),
    Message('note_on', channel=0, note=50, velocity=0, time=227),
    Message('note_on', channel=0, note=57, velocity=96, time=13),
    Message('note_on', channel=0, note=62, velocity=96, time=0),
    Message('note_on', channel=0, note=57, velocity=0, time=455),
    Message('note_on', channel=0, note=62, velocity=0, time=0),
    Message('note_on', channel=0, note=50, velocity=96, time=25),
    Message('note_on', channel=0, note=50, velocity=0, time=227),
    Message('note_on', channel=0, note=57, velocity=96, time=13),
    Message('note_on', channel=0, note=57, velocity=0, time=227),
    Message('note_on', channel=0, note=50, velocity=96, time=13),
    Message('note_on', channel=0, note=50, velocity=0, time=227),
    Message('note_on', channel=0, note=45, velocity=96, time=13),
    Message('note_on', channel=0, note=57, velocity=96, time=0),
    Message('control_change', channel=0, control=64, value=0, time=1),
    Message('control_change', channel=0, control=64, value=127, time=1),
    Message('note_on', channel=0, note=45, velocity=0, time=453),
    Message('note_on', channel=0, note=57, velocity=0, time=0),
    Message('note_on', channel=0, note=57, velocity=96, time=25),
    Message('note_on', channel=0, note=57, velocity=0, time=227),
    Message('note_on', channel=0, note=64, velocity=96, time=13),
    Message('note_on', channel=0, note=69, velocity=96, time=0),
    Message('note_on', channel=0, note=64, velocity=0, time=455),
    Message('note_on', channel=0, note=69, velocity=0, time=0),
    Message('note_on', channel=0, note=57, velocity=96, time=25),
    Message('note_on', channel=0, note=57, velocity=0, time=227),
    Message('note_on', channel=0, note=64, velocity=96, time=13),
    Message('note_on', channel=0, note=64, velocity=0, time=227),
    Message('note_on', channel=0, note=57, velocity=96, time=13),
    Message('note_on', channel=0, note=57, velocity=0, time=227),
    Message('note_on', channel=0, note=40, velocity=96, time=13),
    Message('note_on', channel=0, note=52, velocity=96, time=0),
    Message('control_change', channel=0, control=64, value=0, time=1),
    Message('control_change', channel=0, control=64, value=127, time=1),
    Message('note_on', channel=0, note=40, velocity=0, time=453),
    Message('note_on', channel=0, note=52, velocity=0, time=0),
    Message('note_on', channel=0, note=52, velocity=96, time=25),
    Message('note_on', channel=0, note=52, velocity=0, time=227),
    Message('note_on', channel=0, note=59, velocity=96, time=13),
    Message('note_on', channel=0, note=64, velocity=96, time=0),
    Message('note_on', channel=0, note=59, velocity=0, time=455),
    Message('note_on', channel=0, note=64, velocity=0, time=0),
    Message('note_on', channel=0, note=52, velocity=96, time=25),
    Message('note_on', channel=0, note=52, velocity=0, time=227),
    Message('note_on', channel=0, note=59, velocity=96, time=13),
    Message('note_on', channel=0, note=59, velocity=0, time=227),
    Message('note_on', channel=0, note=52, velocity=96, time=13),
    Message('note_on', channel=0, note=52, velocity=0, time=227),
    Message('note_on', channel=0, note=35, velocity=96, time=13),
    Message('note_on', channel=0, note=47, velocity=96, time=0),
    Message('control_change', channel=0, control=64, value=0, time=1),
    Message('control_change', channel=0, control=64, value=127, time=1),
    Message('note_on', channel=0, note=35, velocity=0, time=453),
    Message('note_on', channel=0, note=47, velocity=0, time=0),
    Message('note_on', channel=0, note=47, velocity=96, time=25),
    Message('note_on', channel=0, note=47, velocity=0, time=227),
    Message('note_on', channel=0, note=54, velocity=96, time=13),
    Message('note_on', channel=0, note=59, velocity=96, time=0),
    Message('note_on', channel=0, note=54, velocity=0, time=455),
    Message('note_on', channel=0, note=59, velocity=0, time=0),
    Message('note_on', channel=0, note=47, velocity=96, time=25),
    Message('note_on', channel=0, note=47, velocity=0, time=227),
    Message('note_on', channel=0, note=54, velocity=96, time=13),
    Message('note_on', channel=0, note=54, velocity=0, time=227),
    Message('note_on', channel=0, note=47, velocity=96, time=13),
    Message('note_on', channel=0, note=47, velocity=0, time=227),
    Message('note_on', channel=0, note=38, velocity=96, time=13),
    Message('note_on', channel=0, note=50, velocity=96, time=0),
    Message('control_change', channel=0, control=64, value=0, time=1),
    Message('control_change', channel=0, control=64, value=127, time=1),
    Message('note_on', channel=0, note=38, velocity=0, time=453),
    Message('note_on', channel=0, note=50, velocity=0, time=0),
    Message('note_on', channel=0, note=50, velocity=96, time=25),
    Message('note_on', channel=0, note=50, velocity=0, time=227),
    Message('note_on', channel=0, note=57, velocity=96, time=13),
    Message('note_on', channel=0, note=62, velocity=96, time=0),
    Message('note_on', channel=0, note=57, velocity=0, time=455),
    Message('note_on', channel=0, note=62, velocity=0, time=0),
    Message('note_on', channel=0, note=50, velocity=96, time=25),
    Message('note_on', channel=0, note=50, velocity=0, time=227),
    Message('note_on', channel=0, note=57, velocity=96, time=13),
    Message('note_on', channel=0, note=57, velocity=0, time=227),
    Message('note_on', channel=0, note=50, velocity=96, time=13),
    Message('note_on', channel=0, note=50, velocity=0, time=227),
    Message('note_on', channel=0, note=45, velocity=96, time=13),
    Message('note_on', channel=0, note=57, velocity=96, time=0),
    Message('control_change', channel=0, control=64, value=0, time=1),
    Message('control_change', channel=0, control=64, value=127, time=1),
    Message('note_on', channel=0, note=45, velocity=0, time=453),
    Message('note_on', channel=0, note=57, velocity=0, time=0),
    Message('note_on', channel=0, note=57, velocity=96, time=25),
    Message('note_on', channel=0, note=57, velocity=0, time=227),
    Message('note_on', channel=0, note=64, velocity=96, time=13),
    Message('note_on', channel=0, note=69, velocity=96, time=0),
    Message('note_on', channel=0, note=64, velocity=0, time=455),
    Message('note_on', channel=0, note=69, velocity=0, time=0),
    Message('note_on', channel=0, note=57, velocity=96, time=25),
    Message('note_on', channel=0, note=57, velocity=0, time=227),
    Message('note_on', channel=0, note=64, velocity=96, time=13),
    Message('note_on', channel=0, note=64, velocity=0, time=227),
    Message('note_on', channel=0, note=57, velocity=96, time=13),
    Message('note_on', channel=0, note=57, velocity=0, time=227),
    Message('note_on', channel=0, note=40, velocity=96, time=13),
    Message('note_on', channel=0, note=52, velocity=96, time=0),
    Message('control_change', channel=0, control=64, value=0, time=1),
    Message('control_change', channel=0, control=64, value=127, time=1),
    Message('note_on', channel=0, note=40, velocity=0, time=453),
    Message('note_on', channel=0, note=52, velocity=0, time=0),
    Message('note_on', channel=0, note=52, velocity=96, time=25),
    Message('note_on', channel=0, note=52, velocity=0, time=227),
    Message('note_on', channel=0, note=59, velocity=96, time=13),
    Message('note_on', channel=0, note=64, velocity=96, time=0),
    Message('note_on', channel=0, note=59, velocity=0, time=455),
    Message('note_on', channel=0, note=64, velocity=0, time=0),
    Message('note_on', channel=0, note=52, velocity=96, time=25),
    Message('note_on', channel=0, note=52, velocity=0, time=227),
    Message('note_on', channel=0, note=59, velocity=96, time=13),
    Message('note_on', channel=0, note=59, velocity=0, time=227),
    Message('note_on', channel=0, note=52, velocity=96, time=13),
    Message('note_on', channel=0, note=52, velocity=0, time=227),
    Message('note_on', channel=0, note=35, velocity=96, time=13),
    Message('note_on', channel=0, note=47, velocity=96, time=0),
    Message('control_change', channel=0, control=64, value=0, time=1),
    Message('control_change', channel=0, control=64, value=127, time=1),
    Message('note_on', channel=0, note=35, velocity=0, time=453),
    Message('note_on', channel=0, note=47, velocity=0, time=0),
    Message('note_on', channel=0, note=35, velocity=96, time=25),
    Message('note_on', channel=0, note=47, velocity=96, time=0),
    Message('note_on', channel=0, note=35, velocity=0, time=341),
    Message('note_on', channel=0, note=47, velocity=0, time=0),
    Message('note_on', channel=0, note=47, velocity=96, time=19),
    Message('note_on', channel=0, note=47, velocity=0, time=113),
    Message('note_on', channel=0, note=54, velocity=96, time=7),
    Message('note_on', channel=0, note=59, velocity=96, time=0),
    Message('note_on', channel=0, note=54, velocity=0, time=227),
    Message('note_on', channel=0, note=59, velocity=0, time=0),
    Message('note_on', channel=0, note=47, velocity=96, time=13),
    Message('note_on', channel=0, note=47, velocity=0, time=227),
    Message('note_on', channel=0, note=54, velocity=96, time=13),
    Message('note_on', channel=0, note=54, velocity=0, time=113),
    Message('note_on', channel=0, note=50, velocity=96, time=7),
    Message('note_on', channel=0, note=50, velocity=0, time=113),
    Message('note_on', channel=0, note=47, velocity=96, time=7),
    Message('note_on', channel=0, note=47, velocity=0, time=227),
    Message('note_on', channel=0, note=38, velocity=96, time=13),
    Message('note_on', channel=0, note=50, velocity=96, time=0),
    Message('control_change', channel=0, control=64, value=0, time=1),
    Message('control_change', channel=0, control=64, value=127, time=1),
    Message('note_on', channel=0, note=38, velocity=0, time=453),
    Message('note_on', channel=0, note=50, velocity=0, time=0),
    Message('note_on', channel=0, note=38, velocity=96, time=25),
    Message('note_on', channel=0, note=50, velocity=96, time=0),
    Message('note_on', channel=0, note=38, velocity=0, time=341),
    Message('note_on', channel=0, note=50, velocity=0, time=0),
    Message('note_on', channel=0, note=50, velocity=96, time=19),
    Message('note_on', channel=0, note=50, velocity=0, time=113),
    Message('note_on', channel=0, note=57, velocity=96, time=7),
    Message('note_on', channel=0, note=62, velocity=96, time=0),
    Message('note_on', channel=0, note=57, velocity=0, time=227),
    Message('note_on', channel=0, note=62, velocity=0, time=0),
    Message('note_on', channel=0, note=50, velocity=96, time=13),
    Message('note_on', channel=0, note=50, velocity=0, time=227),
    Message('note_on', channel=0, note=57, velocity=96, time=13),
    Message('note_on', channel=0, note=57, velocity=0, time=113),
    Message('note_on', channel=0, note=54, velocity=96, time=7),
    Message('note_on', channel=0, note=54, velocity=0, time=113),
    Message('note_on', channel=0, note=50, velocity=96, time=7),
    Message('note_on', channel=0, note=50, velocity=0, time=227),
    Message('note_on', channel=0, note=45, velocity=96, time=13),
    Message('note_on', channel=0, note=57, velocity=96, time=0),
    Message('control_change', channel=0, control=64, value=0, time=1),
    Message('control_change', channel=0, control=64, value=127, time=1),
    Message('note_on', channel=0, note=45, velocity=0, time=453),
    Message('note_on', channel=0, note=57, velocity=0, time=0),
    Message('note_on', channel=0, note=45, velocity=96, time=25),
    Message('note_on', channel=0, note=57, velocity=96, time=0),
    Message('note_on', channel=0, note=45, velocity=0, time=341),
    Message('note_on', channel=0, note=57, velocity=0, time=0),
    Message('note_on', channel=0, note=57, velocity=96, time=19),
    Message('note_on', channel=0, note=57, velocity=0, time=113),
    Message('note_on', channel=0, note=64, velocity=96, time=7),
    Message('note_on', channel=0, note=69, velocity=96, time=0),
    Message('note_on', channel=0, note=64, velocity=0, time=227),
    Message('note_on', channel=0, note=69, velocity=0, time=0),
    Message('note_on', channel=0, note=45, velocity=96, time=13),
    Message('note_on', channel=0, note=57, velocity=96, time=0),
    Message('note_on', channel=0, note=45, velocity=0, time=227),
    Message('note_on', channel=0, note=57, velocity=0, time=0),
    Message('note_on', channel=0, note=64, velocity=96, time=13),
    Message('note_on', channel=0, note=64, velocity=0, time=113),
    Message('note_on', channel=0, note=61, velocity=96, time=7),
    Message('note_on', channel=0, note=61, velocity=0, time=113),
    Message('note_on', channel=0, note=57, velocity=96, time=7),
    Message('note_on', channel=0, note=57, velocity=0, time=227),
    Message('note_on', channel=0, note=40, velocity=96, time=13),
    Message('note_on', channel=0, note=52, velocity=96, time=0),
    Message('control_change', channel=0, control=64, value=0, time=1),
    Message('control_change', channel=0, control=64, value=127, time=1),
    Message('note_on', channel=0, note=40, velocity=0, time=453),
    Message('note_on', channel=0, note=52, velocity=0, time=0),
    Message('note_on', channel=0, note=40, velocity=96, time=25),
    Message('note_on', channel=0, note=52, velocity=96, time=0),
    Message('note_on', channel=0, note=40, velocity=0, time=341),
    Message('note_on', channel=0, note=52, velocity=0, time=0),
    Message('note_on', channel=0, note=52, velocity=96, time=19),
    Message('note_on', channel=0, note=52, velocity=0, time=113),
    Message('note_on', channel=0, note=59, velocity=96, time=7),
    Message('note_on', channel=0, note=64, velocity=96, time=0),
    Message('note_on', channel=0, note=59, velocity=0, time=227),
    Message('note_on', channel=0, note=64, velocity=0, time=0),
    Message('note_on', channel=0, note=52, velocity=96, time=13),
    Message('note_on', channel=0, note=52, velocity=0, time=227),
    Message('note_on', channel=0, note=59, velocity=96, time=13),
    Message('note_on', channel=0, note=59, velocity=0, time=113),
    Message('note_on', channel=0, note=56, velocity=96, time=7),
    Message('note_on', channel=0, note=56, velocity=0, time=113),
    Message('note_on', channel=0, note=52, velocity=96, time=7),
    Message('note_on', channel=0, note=52, velocity=0, time=227),
    Message('note_on', channel=0, note=35, velocity=96, time=13),
    Message('note_on', channel=0, note=47, velocity=96, time=0),
    Message('control_change', channel=0, control=64, value=0, time=1),
    Message('control_change', channel=0, control=64, value=0, time=0),
    Message('control_change', channel=0, control=64, value=127, time=1),
    Message('note_on', channel=0, note=35, velocity=0, time=453),
    Message('note_on', channel=0, note=47, velocity=0, time=0),
    Message('note_on', channel=0, note=35, velocity=96, time=25),
    Message('note_on', channel=0, note=47, velocity=96, time=0),
    Message('note_on', channel=0, note=35, velocity=0, time=341),
    Message('note_on', channel=0, note=47, velocity=0, time=0),
    Message('note_on', channel=0, note=47, velocity=96, time=19),
    Message('note_on', channel=0, note=47, velocity=0, time=113),
    Message('note_on', channel=0, note=54, velocity=96, time=7),
    Message('note_on', channel=0, note=59, velocity=96, time=0),
    Message('note_on', channel=0, note=54, velocity=0, time=227),
    Message('note_on', channel=0, note=59, velocity=0, time=0),
    Message('note_on', channel=0, note=47, velocity=96, time=13),
    Message('note_on', channel=0, note=47, velocity=0, time=227),
    Message('note_on', channel=0, note=54, velocity=96, time=13),
    Message('note_on', channel=0, note=54, velocity=0, time=113),
    Message('note_on', channel=0, note=50, velocity=96, time=7),
    Message('note_on', channel=0, note=50, velocity=0, time=113),
    Message('note_on', channel=0, note=47, velocity=96, time=7),
    Message('note_on', channel=0, note=47, velocity=0, time=227),
    Message('note_on', channel=0, note=38, velocity=96, time=13),
    Message('note_on', channel=0, note=50, velocity=96, time=0),
    Message('control_change', channel=0, control=64, value=0, time=1),
    Message('control_change', channel=0, control=64, value=127, time=1),
    Message('note_on', channel=0, note=38, velocity=0, time=453),
    Message('note_on', channel=0, note=50, velocity=0, time=0),
    Message('note_on', channel=0, note=38, velocity=96, time=25),
    Message('note_on', channel=0, note=50, velocity=96, time=0),
    Message('note_on', channel=0, note=38, velocity=0, time=341),
    Message('note_on', channel=0, note=50, velocity=0, time=0),
    Message('note_on', channel=0, note=50, velocity=96, time=19),
    Message('note_on', channel=0, note=50, velocity=0, time=113),
    Message('note_on', channel=0, note=57, velocity=96, time=7),
    Message('note_on', channel=0, note=62, velocity=96, time=0),
    Message('note_on', channel=0, note=57, velocity=0, time=227),
    Message('note_on', channel=0, note=62, velocity=0, time=0),
    Message('note_on', channel=0, note=50, velocity=96, time=13),
    Message('note_on', channel=0, note=50, velocity=0, time=227),
    Message('note_on', channel=0, note=57, velocity=96, time=13),
    Message('note_on', channel=0, note=57, velocity=0, time=113),
    Message('note_on', channel=0, note=54, velocity=96, time=7),
    Message('note_on', channel=0, note=54, velocity=0, time=113),
    Message('note_on', channel=0, note=50, velocity=96, time=7),
    Message('note_on', channel=0, note=50, velocity=0, time=227),
    Message('note_on', channel=0, note=45, velocity=96, time=13),
    Message('note_on', channel=0, note=57, velocity=96, time=0),
    Message('control_change', channel=0, control=64, value=0, time=1),
    Message('control_change', channel=0, control=64, value=127, time=1),
    Message('note_on', channel=0, note=45, velocity=0, time=453),
    Message('note_on', channel=0, note=57, velocity=0, time=0),
    Message('note_on', channel=0, note=45, velocity=96, time=25),
    Message('note_on', channel=0, note=57, velocity=96, time=0),
    Message('note_on', channel=0, note=45, velocity=0, time=341),
    Message('note_on', channel=0, note=57, velocity=0, time=0),
    Message('note_on', channel=0, note=57, velocity=96, time=19),
    Message('note_on', channel=0, note=57, velocity=0, time=113),
    Message('note_on', channel=0, note=64, velocity=96, time=7),
    Message('note_on', channel=0, note=69, velocity=96, time=0),
    Message('note_on', channel=0, note=64, velocity=0, time=227),
    Message('note_on', channel=0, note=69, velocity=0, time=0),
    Message('note_on', channel=0, note=45, velocity=96, time=13),
    Message('note_on', channel=0, note=57, velocity=96, time=0),
    Message('note_on', channel=0, note=45, velocity=0, time=227),
    Message('note_on', channel=0, note=57, velocity=0, time=0),
    Message('note_on', channel=0, note=64, velocity=96, time=13),
    Message('note_on', channel=0, note=64, velocity=0, time=113),
    Message('note_on', channel=0, note=61, velocity=96, time=7),
    Message('note_on', channel=0, note=61, velocity=0, time=113),
    Message('note_on', channel=0, note=57, velocity=96, time=7),
    Message('note_on', channel=0, note=57, velocity=0, time=227),
    Message('note_on', channel=0, note=40, velocity=96, time=13),
    Message('note_on', channel=0, note=52, velocity=96, time=0),
    Message('control_change', channel=0, control=64, value=0, time=1),
    Message('control_change', channel=0, control=64, value=127, time=1),
    Message('note_on', channel=0, note=40, velocity=0, time=453),
    Message('note_on', channel=0, note=52, velocity=0, time=0),
    Message('note_on', channel=0, note=40, velocity=96, time=25),
    Message('note_on', channel=0, note=52, velocity=96, time=0),
    Message('note_on', channel=0, note=40, velocity=0, time=341),
    Message('note_on', channel=0, note=52, velocity=0, time=0),
    Message('note_on', channel=0, note=52, velocity=96, time=19),
    Message('note_on', channel=0, note=52, velocity=0, time=113),
    Message('note_on', channel=0, note=59, velocity=96, time=7),
    Message('note_on', channel=0, note=64, velocity=96, time=0),
    Message('note_on', channel=0, note=59, velocity=0, time=227),
    Message('note_on', channel=0, note=64, velocity=0, time=0),
    Message('note_on', channel=0, note=52, velocity=96, time=13),
    Message('note_on', channel=0, note=52, velocity=0, time=227),
    Message('note_on', channel=0, note=59, velocity=96, time=13),
    Message('note_on', channel=0, note=59, velocity=0, time=113),
    Message('note_on', channel=0, note=56, velocity=96, time=7),
    Message('note_on', channel=0, note=56, velocity=0, time=113),
    Message('note_on', channel=0, note=52, velocity=96, time=7),
    Message('note_on', channel=0, note=52, velocity=0, time=227),
    Message('note_on', channel=0, note=47, velocity=49, time=13),
    Message('control_change', channel=0, control=64, value=0, time=1),
    Message('control_change', channel=0, control=64, value=127, time=1),
    Message('note_on', channel=0, note=47, velocity=0, time=225),
    Message('note_on', channel=0, note=50, velocity=49, time=13),
    Message('note_on', channel=0, note=50, velocity=0, time=227),
    Message('note_on', channel=0, note=54, velocity=49, time=13),
    Message('note_on', channel=0, note=54, velocity=0, time=227),
    Message('note_on', channel=0, note=59, velocity=49, time=13),
    Message('note_on', channel=0, note=59, velocity=0, time=227),
    Message('note_on', channel=0, note=62, velocity=49, time=13),
    Message('note_on', channel=0, note=62, velocity=0, time=227),
    Message('note_on', channel=0, note=59, velocity=49, time=13),
    Message('note_on', channel=0, note=59, velocity=0, time=227),
    Message('note_on', channel=0, note=54, velocity=49, time=13),
    Message('note_on', channel=0, note=54, velocity=0, time=227),
    Message('note_on', channel=0, note=50, velocity=49, time=13),
    Message('note_on', channel=0, note=50, velocity=0, time=227),
    Message('note_on', channel=0, note=50, velocity=49, time=13),
    Message('control_change', channel=0, control=64, value=0, time=1),
    Message('control_change', channel=0, control=64, value=127, time=1),
    Message('note_on', channel=0, note=50, velocity=0, time=225),
    Message('note_on', channel=0, note=54, velocity=49, time=13),
    Message('note_on', channel=0, note=54, velocity=0, time=227),
    Message('note_on', channel=0, note=57, velocity=49, time=13),
    Message('note_on', channel=0, note=57, velocity=0, time=227),
    Message('note_on', channel=0, note=62, velocity=49, time=13),
    Message('note_on', channel=0, note=62, velocity=0, time=227),
    Message('note_on', channel=0, note=66, velocity=49, time=13),
    Message('note_on', channel=0, note=66, velocity=0, time=227),
    Message('note_on', channel=0, note=62, velocity=49, time=13),
    Message('note_on', channel=0, note=62, velocity=0, time=227),
    Message('note_on', channel=0, note=57, velocity=49, time=13),
    Message('note_on', channel=0, note=57, velocity=0, time=227),
    Message('note_on', channel=0, note=54, velocity=49, time=13),
    Message('note_on', channel=0, note=54, velocity=0, time=227),
    Message('note_on', channel=0, note=57, velocity=49, time=13),
    Message('control_change', channel=0, control=64, value=0, time=1),
    Message('control_change', channel=0, control=64, value=127, time=1),
    Message('note_on', channel=0, note=57, velocity=0, time=225),
    Message('note_on', channel=0, note=61, velocity=49, time=13),
    Message('note_on', channel=0, note=61, velocity=0, time=227),
    Message('note_on', channel=0, note=64, velocity=49, time=13),
    Message('note_on', channel=0, note=64, velocity=0, time=227),
    Message('note_on', channel=0, note=69, velocity=49, time=13),
    Message('note_on', channel=0, note=69, velocity=0, time=227),
    Message('note_on', channel=0, note=64, velocity=49, time=13),
    Message('note_on', channel=0, note=64, velocity=0, time=227),
    Message('note_on', channel=0, note=61, velocity=49, time=13),
    Message('note_on', channel=0, note=61, velocity=0, time=227),
    Message('note_on', channel=0, note=57, velocity=49, time=13),
    Message('note_on', channel=0, note=57, velocity=0, time=227),
    Message('note_on', channel=0, note=52, velocity=49, time=13),
    Message('note_on', channel=0, note=52, velocity=0, time=227),
    Message('note_on', channel=0, note=52, velocity=49, time=13),
    Message('control_change', channel=0, control=64, value=0, time=1),
    Message('control_change', channel=0, control=64, value=127, time=1),
    Message('note_on', channel=0, note=52, velocity=0, time=225),
    Message('note_on', channel=0, note=56, velocity=49, time=13),
    Message('note_on', channel=0, note=56, velocity=0, time=227),
    Message('note_on', channel=0, note=59, velocity=49, time=13),
    Message('note_on', channel=0, note=59, velocity=0, time=227),
    Message('note_on', channel=0, note=64, velocity=49, time=13),
    Message('note_on', channel=0, note=64, velocity=0, time=227),
    Message('note_on', channel=0, note=68, velocity=49, time=13),
    Message('note_on', channel=0, note=68, velocity=0, time=227),
    Message('note_on', channel=0, note=64, velocity=49, time=13),
    Message('note_on', channel=0, note=64, velocity=0, time=227),
    Message('note_on', channel=0, note=59, velocity=49, time=13),
    Message('note_on', channel=0, note=59, velocity=0, time=227),
    Message('note_on', channel=0, note=56, velocity=49, time=13),
    Message('note_on', channel=0, note=56, velocity=0, time=227),
    Message('note_on', channel=0, note=35, velocity=64, time=13),
    Message('control_change', channel=0, control=64, value=0, time=1),
    Message('control_change', channel=0, control=64, value=127, time=1),
    Message('note_on', channel=0, note=35, velocity=0, time=225),
    Message('note_on', channel=0, note=38, velocity=64, time=13),
    Message('note_on', channel=0, note=38, velocity=0, time=227),
    Message('note_on', channel=0, note=42, velocity=65, time=13),
    Message('note_on', channel=0, note=42, velocity=0, time=227),
    Message('note_on', channel=0, note=47, velocity=66, time=13),
    Message('note_on', channel=0, note=47, velocity=0, time=227),
    Message('note_on', channel=0, note=50, velocity=66, time=13),
    Message('note_on', channel=0, note=50, velocity=0, time=227),
    Message('note_on', channel=0, note=47, velocity=67, time=13),
    Message('note_on', channel=0, note=47, velocity=0, time=227),
    Message('note_on', channel=0, note=42, velocity=68, time=13),
    Message('note_on', channel=0, note=42, velocity=0, time=227),
    Message('note_on', channel=0, note=38, velocity=68, time=13),
    Message('note_on', channel=0, note=38, velocity=0, time=227),
    Message('note_on', channel=0, note=38, velocity=69, time=13),
    Message('control_change', channel=0, control=64, value=0, time=1),
    Message('control_change', channel=0, control=64, value=127, time=1),
    Message('note_on', channel=0, note=38, velocity=0, time=225),
    Message('note_on', channel=0, note=42, velocity=70, time=13),
    Message('note_on', channel=0, note=42, velocity=0, time=227),
    Message('note_on', channel=0, note=45, velocity=70, time=13),
    Message('note_on', channel=0, note=45, velocity=0, time=227),
    Message('note_on', channel=0, note=50, velocity=71, time=13),
    Message('note_on', channel=0, note=50, velocity=0, time=227),
    Message('note_on', channel=0, note=54, velocity=72, time=13),
    Message('note_on', channel=0, note=54, velocity=0, time=227),
    Message('note_on', channel=0, note=50, velocity=72, time=13),
    Message('note_on', channel=0, note=50, velocity=0, time=227),
    Message('note_on', channel=0, note=45, velocity=73, time=13),
    Message('note_on', channel=0, note=45, velocity=0, time=227),
    Message('note_on', channel=0, note=42, velocity=74, time=13),
    Message('note_on', channel=0, note=42, velocity=0, time=227),
    Message('note_on', channel=0, note=45, velocity=74, time=13),
    Message('control_change', channel=0, control=64, value=0, time=1),
    Message('control_change', channel=0, control=64, value=127, time=1),
    Message('note_on', channel=0, note=45, velocity=0, time=225),
    Message('note_on', channel=0, note=49, velocity=75, time=13),
    Message('note_on', channel=0, note=49, velocity=0, time=227),
    Message('note_on', channel=0, note=52, velocity=76, time=13),
    Message('note_on', channel=0, note=52, velocity=0, time=227),
    Message('note_on', channel=0, note=57, velocity=76, time=13),
    Message('note_on', channel=0, note=57, velocity=0, time=227),
    Message('note_on', channel=0, note=52, velocity=77, time=13),
    Message('note_on', channel=0, note=52, velocity=0, time=227),
    Message('note_on', channel=0, note=49, velocity=78, time=13),
    Message('note_on', channel=0, note=49, velocity=0, time=227),
    Message('note_on', channel=0, note=45, velocity=78, time=13),
    Message('note_on', channel=0, note=45, velocity=0, time=227),
    Message('note_on', channel=0, note=40, velocity=79, time=13),
    Message('note_on', channel=0, note=40, velocity=0, time=227),
    Message('note_on', channel=0, note=40, velocity=80, time=13),
    Message('note_on', channel=0, note=52, velocity=80, time=0),
    Message('control_change', channel=0, control=64, value=0, time=1),
    Message('note_on', channel=0, note=40, velocity=0, time=226),
    Message('note_on', channel=0, note=52, velocity=0, time=0),
    Message('note_on', channel=0, note=35, velocity=96, time=1693),
    Message('note_on', channel=0, note=47, velocity=96, time=0),
    Message('control_change', channel=0, control=64, value=127, time=2),
    Message('note_on', channel=0, note=35, velocity=0, time=225),
    Message('note_on', channel=0, note=47, velocity=0, time=0),
    Message('note_on', channel=0, note=47, velocity=96, time=13),
    Message('note_on', channel=0, note=47, velocity=0, time=227),
    Message('note_on', channel=0, note=54, velocity=96, time=13),
    Message('note_on', channel=0, note=59, velocity=96, time=0),
    Message('note_on', channel=0, note=54, velocity=0, time=227),
    Message('note_on', channel=0, note=59, velocity=0, time=0),
    Message('note_on', channel=0, note=54, velocity=96, time=13),
    Message('note_on', channel=0, note=59, velocity=96, time=0),
    Message('note_on', channel=0, note=54, velocity=0, time=455),
    Message('note_on', channel=0, note=59, velocity=0, time=0),
    Message('note_on', channel=0, note=47, velocity=96, time=25),
    Message('note_on', channel=0, note=47, velocity=0, time=227),
    Message('note_on', channel=0, note=54, velocity=96, time=13),
    Message('note_on', channel=0, note=54, velocity=0, time=227),
    Message('note_on', channel=0, note=47, velocity=96, time=13),
    Message('note_on', channel=0, note=47, velocity=0, time=227),
    Message('note_on', channel=0, note=38, velocity=96, time=13),
    Message('note_on', channel=0, note=50, velocity=96, time=0),
    Message('control_change', channel=0, control=64, value=0, time=1),
    Message('control_change', channel=0, control=64, value=0, time=0),
    Message('control_change', channel=0, control=64, value=127, time=1),
    Message('control_change', channel=0, control=64, value=127, time=0),
    Message('note_on', channel=0, note=38, velocity=0, time=225),
    Message('note_on', channel=0, note=50, velocity=0, time=0),
    Message('note_on', channel=0, note=50, velocity=96, time=13),
    Message('note_on', channel=0, note=50, velocity=0, time=227),
    Message('note_on', channel=0, note=57, velocity=96, time=13),
    Message('note_on', channel=0, note=62, velocity=96, time=0),
    Message('note_on', channel=0, note=57, velocity=0, time=227),
    Message('note_on', channel=0, note=62, velocity=0, time=0),
    Message('note_on', channel=0, note=57, velocity=96, time=13),
    Message('note_on', channel=0, note=62, velocity=96, time=0),
    Message('note_on', channel=0, note=57, velocity=0, time=455),
    Message('note_on', channel=0, note=62, velocity=0, time=0),
    Message('note_on', channel=0, note=50, velocity=96, time=25),
    Message('note_on', channel=0, note=50, velocity=0, time=227),
    Message('note_on', channel=0, note=57, velocity=96, time=13),
    Message('note_on', channel=0, note=57, velocity=0, time=227),
    Message('note_on', channel=0, note=50, velocity=96, time=13),
    Message('note_on', channel=0, note=50, velocity=0, time=227),
    Message('note_on', channel=0, note=45, velocity=96, time=13),
    Message('note_on', channel=0, note=57, velocity=96, time=0),
    Message('control_change', channel=0, control=64, value=0, time=1),
    Message('control_change', channel=0, control=64, value=0, time=0),
    Message('control_change', channel=0, control=64, value=127, time=1),
    Message('control_change', channel=0, control=64, value=127, time=0),
    Message('note_on', channel=0, note=45, velocity=0, time=225),
    Message('note_on', channel=0, note=57, velocity=0, time=0),
    Message('note_on', channel=0, note=57, velocity=96, time=13),
    Message('note_on', channel=0, note=57, velocity=0, time=227),
    Message('note_on', channel=0, note=64, velocity=96, time=13),
    Message('note_on', channel=0, note=69, velocity=96, time=0),
    Message('note_on', channel=0, note=64, velocity=0, time=227),
    Message('note_on', channel=0, note=69, velocity=0, time=0),
    Message('note_on', channel=0, note=64, velocity=96, time=13),
    Message('note_on', channel=0, note=69, velocity=96, time=0),
    Message('note_on', channel=0, note=64, velocity=0, time=455),
    Message('note_on', channel=0, note=69, velocity=0, time=0),
    Message('note_on', channel=0, note=57, velocity=96, time=25),
    Message('note_on', channel=0, note=57, velocity=0, time=227),
    Message('note_on', channel=0, note=64, velocity=96, time=13),
    Message('note_on', channel=0, note=64, velocity=0, time=227),
    Message('note_on', channel=0, note=57, velocity=96, time=13),
    Message('note_on', channel=0, note=57, velocity=0, time=227),
    Message('note_on', channel=0, note=40, velocity=96, time=13),
    Message('note_on', channel=0, note=52, velocity=96, time=0),
    Message('control_change', channel=0, control=64, value=0, time=1),
    Message('control_change', channel=0, control=64, value=0, time=0),
    Message('control_change', channel=0, control=64, value=127, time=1),
    Message('control_change', channel=0, control=64, value=127, time=0),
    Message('note_on', channel=0, note=40, velocity=0, time=225),
    Message('note_on', channel=0, note=52, velocity=0, time=0),
    Message('note_on', channel=0, note=52, velocity=96, time=13),
    Message('note_on', channel=0, note=52, velocity=0, time=227),
    Message('note_on', channel=0, note=59, velocity=96, time=13),
    Message('note_on', channel=0, note=64, velocity=96, time=0),
    Message('note_on', channel=0, note=59, velocity=0, time=227),
    Message('note_on', channel=0, note=64, velocity=0, time=0),
    Message('note_on', channel=0, note=59, velocity=96, time=13),
    Message('note_on', channel=0, note=64, velocity=96, time=0),
    Message('note_on', channel=0, note=59, velocity=0, time=455),
    Message('note_on', channel=0, note=64, velocity=0, time=0),
    Message('note_on', channel=0, note=52, velocity=96, time=25),
    Message('note_on', channel=0, note=52, velocity=0, time=227),
    Message('note_on', channel=0, note=59, velocity=96, time=13),
    Message('note_on', channel=0, note=59, velocity=0, time=227),
    Message('note_on', channel=0, note=52, velocity=96, time=13),
    Message('note_on', channel=0, note=52, velocity=0, time=227),
    Message('note_on', channel=0, note=35, velocity=96, time=13),
    Message('note_on', channel=0, note=47, velocity=96, time=0),
    Message('control_change', channel=0, control=64, value=0, time=1),
    Message('control_change', channel=0, control=64, value=127, time=1),
    Message('note_on', channel=0, note=35, velocity=0, time=225),
    Message('note_on', channel=0, note=47, velocity=0, time=0),
    Message('note_on', channel=0, note=47, velocity=96, time=13),
    Message('note_on', channel=0, note=47, velocity=0, time=227),
    Message('note_on', channel=0, note=54, velocity=96, time=13),
    Message('note_on', channel=0, note=59, velocity=96, time=0),
    Message('note_on', channel=0, note=54, velocity=0, time=227),
    Message('note_on', channel=0, note=59, velocity=0, time=0),
    Message('note_on', channel=0, note=54, velocity=96, time=13),
    Message('note_on', channel=0, note=59, velocity=96, time=0),
    Message('note_on', channel=0, note=54, velocity=0, time=455),
    Message('note_on', channel=0, note=59, velocity=0, time=0),
    Message('note_on', channel=0, note=47, velocity=96, time=25),
    Message('note_on', channel=0, note=47, velocity=0, time=227),
    Message('note_on', channel=0, note=54, velocity=96, time=13),
    Message('note_on', channel=0, note=54, velocity=0, time=227),
    Message('note_on', channel=0, note=47, velocity=96, time=13),
    Message('note_on', channel=0, note=47, velocity=0, time=227),
    Message('note_on', channel=0, note=38, velocity=96, time=13),
    Message('note_on', channel=0, note=50, velocity=96, time=0),
    Message('control_change', channel=0, control=64, value=0, time=1),
    Message('control_change', channel=0, control=64, value=127, time=1),
    Message('note_on', channel=0, note=38, velocity=0, time=225),
    Message('note_on', channel=0, note=50, velocity=0, time=0),
    Message('note_on', channel=0, note=50, velocity=96, time=13),
    Message('note_on', channel=0, note=50, velocity=0, time=227),
    Message('note_on', channel=0, note=57, velocity=96, time=13),
    Message('note_on', channel=0, note=62, velocity=96, time=0),
    Message('note_on', channel=0, note=57, velocity=0, time=227),
    Message('note_on', channel=0, note=62, velocity=0, time=0),
    Message('note_on', channel=0, note=57, velocity=96, time=13),
    Message('note_on', channel=0, note=62, velocity=96, time=0),
    Message('note_on', channel=0, note=57, velocity=0, time=455),
    Message('note_on', channel=0, note=62, velocity=0, time=0),
    Message('note_on', channel=0, note=50, velocity=96, time=25),
    Message('note_on', channel=0, note=50, velocity=0, time=227),
    Message('note_on', channel=0, note=57, velocity=96, time=13),
    Message('note_on', channel=0, note=57, velocity=0, time=227),
    Message('note_on', channel=0, note=50, velocity=96, time=13),
    Message('note_on', channel=0, note=50, velocity=0, time=227),
    Message('note_on', channel=0, note=45, velocity=96, time=13),
    Message('note_on', channel=0, note=57, velocity=96, time=0),
    Message('control_change', channel=0, control=64, value=0, time=1),
    Message('control_change', channel=0, control=64, value=127, time=1),
    Message('note_on', channel=0, note=45, velocity=0, time=225),
    Message('note_on', channel=0, note=57, velocity=0, time=0),
    Message('note_on', channel=0, note=57, velocity=96, time=13),
    Message('note_on', channel=0, note=57, velocity=0, time=227),
    Message('note_on', channel=0, note=64, velocity=96, time=13),
    Message('note_on', channel=0, note=69, velocity=96, time=0),
    Message('note_on', channel=0, note=64, velocity=0, time=227),
    Message('note_on', channel=0, note=69, velocity=0, time=0),
    Message('note_on', channel=0, note=64, velocity=96, time=13),
    Message('note_on', channel=0, note=69, velocity=96, time=0),
    Message('note_on', channel=0, note=64, velocity=0, time=455),
    Message('note_on', channel=0, note=69, velocity=0, time=0),
    Message('note_on', channel=0, note=57, velocity=96, time=25),
    Message('note_on', channel=0, note=57, velocity=0, time=227),
    Message('note_on', channel=0, note=64, velocity=96, time=13),
    Message('note_on', channel=0, note=64, velocity=0, time=227),
    Message('note_on', channel=0, note=57, velocity=96, time=13),
    Message('note_on', channel=0, note=57, velocity=0, time=227),
    Message('control_change', channel=0, control=64, value=0, time=14),
    Message('note_on', channel=0, note=35, velocity=96, time=1919),
    Message('note_on', channel=0, note=47, velocity=96, time=0),
    Message('control_change', channel=0, control=64, value=127, time=2),
    Message('note_on', channel=0, note=35, velocity=0, time=453),
    Message('note_on', channel=0, note=47, velocity=0, time=0),
    Message('note_on', channel=0, note=35, velocity=96, time=25),
    Message('note_on', channel=0, note=47, velocity=96, time=0),
    Message('note_on', channel=0, note=35, velocity=0, time=341),
    Message('note_on', channel=0, note=47, velocity=0, time=0),
    Message('note_on', channel=0, note=47, velocity=96, time=19),
    Message('note_on', channel=0, note=47, velocity=0, time=113),
    Message('note_on', channel=0, note=54, velocity=96, time=7),
    Message('note_on', channel=0, note=59, velocity=96, time=0),
    Message('note_on', channel=0, note=54, velocity=0, time=227),
    Message('note_on', channel=0, note=59, velocity=0, time=0),
    Message('note_on', channel=0, note=47, velocity=96, time=13),
    Message('note_on', channel=0, note=47, velocity=0, time=227),
    Message('note_on', channel=0, note=54, velocity=96, time=13),
    Message('note_on', channel=0, note=54, velocity=0, time=113),
    Message('note_on', channel=0, note=50, velocity=96, time=7),
    Message('note_on', channel=0, note=50, velocity=0, time=113),
    Message('note_on', channel=0, note=47, velocity=96, time=7),
    Message('note_on', channel=0, note=47, velocity=0, time=227),
    Message('note_on', channel=0, note=38, velocity=96, time=13),
    Message('note_on', channel=0, note=50, velocity=96, time=0),
    Message('control_change', channel=0, control=64, value=0, time=1),
    Message('control_change', channel=0, control=64, value=127, time=1),
    Message('note_on', channel=0, note=38, velocity=0, time=453),
    Message('note_on', channel=0, note=50, velocity=0, time=0),
    Message('note_on', channel=0, note=38, velocity=96, time=25),
    Message('note_on', channel=0, note=50, velocity=96, time=0),
    Message('note_on', channel=0, note=38, velocity=0, time=341),
    Message('note_on', channel=0, note=50, velocity=0, time=0),
    Message('note_on', channel=0, note=50, velocity=96, time=19),
    Message('note_on', channel=0, note=50, velocity=0, time=113),
    Message('note_on', channel=0, note=57, velocity=96, time=7),
    Message('note_on', channel=0, note=62, velocity=96, time=0),
    Message('note_on', channel=0, note=57, velocity=0, time=227),
    Message('note_on', channel=0, note=62, velocity=0, time=0),
    Message('note_on', channel=0, note=50, velocity=96, time=13),
    Message('note_on', channel=0, note=50, velocity=0, time=227),
    Message('note_on', channel=0, note=57, velocity=96, time=13),
    Message('note_on', channel=0, note=57, velocity=0, time=113),
    Message('note_on', channel=0, note=54, velocity=96, time=7),
    Message('note_on', channel=0, note=54, velocity=0, time=113),
    Message('note_on', channel=0, note=50, velocity=96, time=7),
    Message('note_on', channel=0, note=50, velocity=0, time=227),
    Message('note_on', channel=0, note=45, velocity=96, time=13),
    Message('note_on', channel=0, note=57, velocity=96, time=0),
    Message('control_change', channel=0, control=64, value=0, time=1),
    Message('control_change', channel=0, control=64, value=127, time=1),
    Message('note_on', channel=0, note=45, velocity=0, time=453),
    Message('note_on', channel=0, note=57, velocity=0, time=0),
    Message('note_on', channel=0, note=45, velocity=96, time=25),
    Message('note_on', channel=0, note=57, velocity=96, time=0),
    Message('note_on', channel=0, note=45, velocity=0, time=341),
    Message('note_on', channel=0, note=57, velocity=0, time=0),
    Message('note_on', channel=0, note=57, velocity=96, time=19),
    Message('note_on', channel=0, note=57, velocity=0, time=113),
    Message('note_on', channel=0, note=64, velocity=96, time=7),
    Message('note_on', channel=0, note=69, velocity=96, time=0),
    Message('note_on', channel=0, note=64, velocity=0, time=227),
    Message('note_on', channel=0, note=69, velocity=0, time=0),
    Message('note_on', channel=0, note=45, velocity=96, time=13),
    Message('note_on', channel=0, note=57, velocity=96, time=0),
    Message('note_on', channel=0, note=45, velocity=0, time=227),
    Message('note_on', channel=0, note=57, velocity=0, time=0),
    Message('note_on', channel=0, note=64, velocity=96, time=13),
    Message('note_on', channel=0, note=64, velocity=0, time=113),
    Message('note_on', channel=0, note=61, velocity=96, time=7),
    Message('note_on', channel=0, note=61, velocity=0, time=113),
    Message('note_on', channel=0, note=57, velocity=96, time=7),
    Message('note_on', channel=0, note=57, velocity=0, time=227),
    Message('note_on', channel=0, note=40, velocity=96, time=13),
    Message('note_on', channel=0, note=52, velocity=96, time=0),
    Message('control_change', channel=0, control=64, value=0, time=1),
    Message('control_change', channel=0, control=64, value=127, time=1),
    Message('note_on', channel=0, note=40, velocity=0, time=453),
    Message('note_on', channel=0, note=52, velocity=0, time=0),
    Message('note_on', channel=0, note=40, velocity=96, time=25),
    Message('note_on', channel=0, note=52, velocity=96, time=0),
    Message('note_on', channel=0, note=40, velocity=0, time=341),
    Message('note_on', channel=0, note=52, velocity=0, time=0),
    Message('note_on', channel=0, note=52, velocity=96, time=19),
    Message('note_on', channel=0, note=52, velocity=0, time=113),
    Message('note_on', channel=0, note=59, velocity=96, time=7),
    Message('note_on', channel=0, note=64, velocity=96, time=0),
    Message('note_on', channel=0, note=59, velocity=0, time=227),
    Message('note_on', channel=0, note=64, velocity=0, time=0),
    Message('note_on', channel=0, note=52, velocity=96, time=13),
    Message('note_on', channel=0, note=52, velocity=0, time=227),
    Message('note_on', channel=0, note=59, velocity=96, time=13),
    Message('note_on', channel=0, note=59, velocity=0, time=113),
    Message('note_on', channel=0, note=56, velocity=96, time=7),
    Message('note_on', channel=0, note=56, velocity=0, time=113),
    Message('note_on', channel=0, note=52, velocity=96, time=7),
    Message('note_on', channel=0, note=52, velocity=0, time=227),
    Message('note_on', channel=0, note=35, velocity=96, time=13),
    Message('note_on', channel=0, note=47, velocity=96, time=0),
    Message('control_change', channel=0, control=64, value=0, time=1),
    Message('control_change', channel=0, control=64, value=127, time=1),
    Message('note_on', channel=0, note=35, velocity=0, time=453),
    Message('note_on', channel=0, note=47, velocity=0, time=0),
    Message('note_on', channel=0, note=35, velocity=96, time=25),
    Message('note_on', channel=0, note=47, velocity=96, time=0),
    Message('note_on', channel=0, note=35, velocity=0, time=341),
    Message('note_on', channel=0, note=47, velocity=0, time=0),
    Message('note_on', channel=0, note=47, velocity=96, time=19),
    Message('note_on', channel=0, note=47, velocity=0, time=113),
    Message('note_on', channel=0, note=54, velocity=96, time=7),
    Message('note_on', channel=0, note=59, velocity=96, time=0),
    Message('note_on', channel=0, note=54, velocity=0, time=227),
    Message('note_on', channel=0, note=59, velocity=0, time=0),
    Message('note_on', channel=0, note=47, velocity=96, time=13),
    Message('note_on', channel=0, note=47, velocity=0, time=227),
    Message('note_on', channel=0, note=54, velocity=96, time=13),
    Message('note_on', channel=0, note=54, velocity=0, time=113),
    Message('note_on', channel=0, note=50, velocity=96, time=7),
    Message('note_on', channel=0, note=50, velocity=0, time=113),
    Message('note_on', channel=0, note=47, velocity=96, time=7),
    Message('note_on', channel=0, note=47, velocity=0, time=227),
    Message('note_on', channel=0, note=38, velocity=96, time=13),
    Message('note_on', channel=0, note=50, velocity=96, time=0),
    Message('control_change', channel=0, control=64, value=0, time=1),
    Message('control_change', channel=0, control=64, value=127, time=1),
    Message('note_on', channel=0, note=38, velocity=0, time=453),
    Message('note_on', channel=0, note=50, velocity=0, time=0),
    Message('note_on', channel=0, note=38, velocity=96, time=25),
    Message('note_on', channel=0, note=50, velocity=96, time=0),
    Message('note_on', channel=0, note=38, velocity=0, time=341),
    Message('note_on', channel=0, note=50, velocity=0, time=0),
    Message('note_on', channel=0, note=50, velocity=96, time=19),
    Message('note_on', channel=0, note=50, velocity=0, time=113),
    Message('note_on', channel=0, note=57, velocity=96, time=7),
    Message('note_on', channel=0, note=62, velocity=96, time=0),
    Message('note_on', channel=0, note=57, velocity=0, time=227),
    Message('note_on', channel=0, note=62, velocity=0, time=0),
    Message('note_on', channel=0, note=50, velocity=96, time=13),
    Message('note_on', channel=0, note=50, velocity=0, time=227),
    Message('note_on', channel=0, note=57, velocity=96, time=13),
    Message('note_on', channel=0, note=57, velocity=0, time=113),
    Message('note_on', channel=0, note=54, velocity=96, time=7),
    Message('note_on', channel=0, note=54, velocity=0, time=113),
    Message('note_on', channel=0, note=50, velocity=96, time=7),
    Message('note_on', channel=0, note=50, velocity=0, time=227),
    Message('note_on', channel=0, note=45, velocity=96, time=13),
    Message('note_on', channel=0, note=57, velocity=96, time=0),
    Message('control_change', channel=0, control=64, value=0, time=1),
    Message('control_change', channel=0, control=64, value=127, time=1),
    Message('note_on', channel=0, note=45, velocity=0, time=453),
    Message('note_on', channel=0, note=57, velocity=0, time=0),
    Message('note_on', channel=0, note=45, velocity=96, time=25),
    Message('note_on', channel=0, note=57, velocity=96, time=0),
    Message('note_on', channel=0, note=45, velocity=0, time=341),
    Message('note_on', channel=0, note=57, velocity=0, time=0),
    Message('note_on', channel=0, note=57, velocity=96, time=19),
    Message('note_on', channel=0, note=57, velocity=0, time=113),
    Message('note_on', channel=0, note=64, velocity=96, time=7),
    Message('note_on', channel=0, note=69, velocity=96, time=0),
    Message('note_on', channel=0, note=64, velocity=0, time=227),
    Message('note_on', channel=0, note=69, velocity=0, time=0),
    Message('note_on', channel=0, note=45, velocity=96, time=13),
    Message('note_on', channel=0, note=57, velocity=96, time=0),
    Message('note_on', channel=0, note=45, velocity=0, time=227),
    Message('note_on', channel=0, note=57, velocity=0, time=0),
    Message('note_on', channel=0, note=64, velocity=96, time=13),
    Message('note_on', channel=0, note=64, velocity=0, time=113),
    Message('note_on', channel=0, note=61, velocity=96, time=7),
    Message('note_on', channel=0, note=61, velocity=0, time=113),
    Message('note_on', channel=0, note=57, velocity=96, time=7),
    Message('note_on', channel=0, note=57, velocity=0, time=227),
    Message('note_on', channel=0, note=40, velocity=96, time=13),
    Message('note_on', channel=0, note=52, velocity=96, time=0),
    Message('control_change', channel=0, control=64, value=0, time=1),
    Message('control_change', channel=0, control=64, value=0, time=0),
    Message('control_change', channel=0, control=64, value=127, time=1),
    Message('note_on', channel=0, note=40, velocity=0, time=453),
    Message('note_on', channel=0, note=52, velocity=0, time=0),
    Message('note_on', channel=0, note=40, velocity=96, time=25),
    Message('note_on', channel=0, note=52, velocity=96, time=0),
    Message('note_on', channel=0, note=40, velocity=0, time=341),
    Message('note_on', channel=0, note=52, velocity=0, time=0),
    Message('note_on', channel=0, note=52, velocity=96, time=19),
    Message('note_on', channel=0, note=52, velocity=0, time=113),
    Message('note_on', channel=0, note=59, velocity=96, time=7),
    Message('note_on', channel=0, note=64, velocity=96, time=0),
    Message('note_on', channel=0, note=59, velocity=0, time=227),
    Message('note_on', channel=0, note=64, velocity=0, time=0),
    Message('note_on', channel=0, note=52, velocity=96, time=13),
    Message('note_on', channel=0, note=52, velocity=0, time=227),
    Message('note_on', channel=0, note=59, velocity=96, time=13),
    Message('note_on', channel=0, note=59, velocity=0, time=113),
    Message('note_on', channel=0, note=56, velocity=96, time=7),
    Message('note_on', channel=0, note=56, velocity=0, time=113),
    Message('note_on', channel=0, note=52, velocity=96, time=7),
    Message('note_on', channel=0, note=52, velocity=0, time=227),
    Message('note_on', channel=0, note=35, velocity=96, time=13),
    Message('note_on', channel=0, note=47, velocity=96, time=0),
    Message('control_change', channel=0, control=64, value=0, time=1),
    Message('control_change', channel=0, control=64, value=0, time=0),
    Message('control_change', channel=0, control=64, value=127, time=1),
    Message('control_change', channel=0, control=64, value=127, time=0),
    Message('note_on', channel=0, note=35, velocity=0, time=453),
    Message('note_on', channel=0, note=47, velocity=0, time=0),
    Message('note_on', channel=0, note=35, velocity=96, time=25),
    Message('note_on', channel=0, note=47, velocity=96, time=0),
    Message('note_on', channel=0, note=35, velocity=0, time=341),
    Message('note_on', channel=0, note=47, velocity=0, time=0),
    Message('note_on', channel=0, note=47, velocity=96, time=19),
    Message('note_on', channel=0, note=47, velocity=0, time=113),
    Message('note_on', channel=0, note=54, velocity=96, time=7),
    Message('note_on', channel=0, note=59, velocity=96, time=0),
    Message('note_on', channel=0, note=54, velocity=0, time=227),
    Message('note_on', channel=0, note=59, velocity=0, time=0),
    Message('note_on', channel=0, note=47, velocity=96, time=13),
    Message('note_on', channel=0, note=47, velocity=0, time=227),
    Message('note_on', channel=0, note=54, velocity=96, time=13),
    Message('note_on', channel=0, note=54, velocity=0, time=113),
    Message('note_on', channel=0, note=50, velocity=96, time=7),
    Message('note_on', channel=0, note=50, velocity=0, time=113),
    Message('note_on', channel=0, note=47, velocity=96, time=7),
    Message('note_on', channel=0, note=47, velocity=0, time=227),
    Message('note_on', channel=0, note=38, velocity=96, time=13),
    Message('note_on', channel=0, note=50, velocity=96, time=0),
    Message('control_change', channel=0, control=64, value=0, time=1),
    Message('control_change', channel=0, control=64, value=0, time=0),
    Message('control_change', channel=0, control=64, value=127, time=1),
    Message('control_change', channel=0, control=64, value=127, time=0),
    Message('note_on', channel=0, note=38, velocity=0, time=453),
    Message('note_on', channel=0, note=50, velocity=0, time=0),
    Message('note_on', channel=0, note=38, velocity=96, time=25),
    Message('note_on', channel=0, note=50, velocity=96, time=0),
    Message('note_on', channel=0, note=38, velocity=0, time=341),
    Message('note_on', channel=0, note=50, velocity=0, time=0),
    Message('note_on', channel=0, note=50, velocity=96, time=19),
    Message('note_on', channel=0, note=50, velocity=0, time=113),
    Message('note_on', channel=0, note=57, velocity=96, time=7),
    Message('note_on', channel=0, note=62, velocity=96, time=0),
    Message('note_on', channel=0, note=57, velocity=0, time=227),
    Message('note_on', channel=0, note=62, velocity=0, time=0),
    Message('note_on', channel=0, note=50, velocity=96, time=13),
    Message('note_on', channel=0, note=50, velocity=0, time=227),
    Message('note_on', channel=0, note=57, velocity=96, time=13),
    Message('note_on', channel=0, note=57, velocity=0, time=113),
    Message('note_on', channel=0, note=54, velocity=96, time=7),
    Message('note_on', channel=0, note=54, velocity=0, time=113),
    Message('note_on', channel=0, note=50, velocity=96, time=7),
    Message('note_on', channel=0, note=50, velocity=0, time=227),
    Message('note_on', channel=0, note=45, velocity=96, time=13),
    Message('note_on', channel=0, note=57, velocity=96, time=0),
    Message('control_change', channel=0, control=64, value=0, time=1),
    Message('control_change', channel=0, control=64, value=127, time=1),
    Message('note_on', channel=0, note=45, velocity=0, time=453),
    Message('note_on', channel=0, note=57, velocity=0, time=0),
    Message('note_on', channel=0, note=45, velocity=96, time=25),
    Message('note_on', channel=0, note=57, velocity=96, time=0),
    Message('note_on', channel=0, note=45, velocity=0, time=341),
    Message('note_on', channel=0, note=57, velocity=0, time=0),
    Message('note_on', channel=0, note=57, velocity=96, time=19),
    Message('note_on', channel=0, note=57, velocity=0, time=113),
    Message('note_on', channel=0, note=64, velocity=96, time=7),
    Message('note_on', channel=0, note=69, velocity=96, time=0),
    Message('note_on', channel=0, note=64, velocity=0, time=227),
    Message('note_on', channel=0, note=69, velocity=0, time=0),
    Message('note_on', channel=0, note=57, velocity=96, time=13),
    Message('note_on', channel=0, note=57, velocity=0, time=227),
    Message('note_on', channel=0, note=64, velocity=96, time=13),
    Message('note_on', channel=0, note=64, velocity=0, time=113),
    Message('note_on', channel=0, note=61, velocity=96, time=7),
    Message('note_on', channel=0, note=61, velocity=0, time=113),
    Message('note_on', channel=0, note=57, velocity=96, time=7),
    Message('note_on', channel=0, note=57, velocity=0, time=227),
    Message('note_on', channel=0, note=40, velocity=96, time=13),
    Message('note_on', channel=0, note=52, velocity=96, time=0),
    Message('control_change', channel=0, control=64, value=0, time=1),
    Message('control_change', channel=0, control=64, value=127, time=1),
    Message('note_on', channel=0, note=40, velocity=0, time=453),
    Message('note_on', channel=0, note=52, velocity=0, time=0),
    Message('note_on', channel=0, note=40, velocity=96, time=25),
    Message('note_on', channel=0, note=52, velocity=96, time=0),
    Message('note_on', channel=0, note=40, velocity=0, time=341),
    Message('note_on', channel=0, note=52, velocity=0, time=0),
    Message('note_on', channel=0, note=52, velocity=96, time=19),
    Message('note_on', channel=0, note=52, velocity=0, time=113),
    Message('note_on', channel=0, note=59, velocity=96, time=7),
    Message('note_on', channel=0, note=64, velocity=96, time=0),
    Message('note_on', channel=0, note=59, velocity=0, time=227),
    Message('note_on', channel=0, note=64, velocity=0, time=0),
    Message('note_on', channel=0, note=52, velocity=96, time=13),
    Message('note_on', channel=0, note=52, velocity=0, time=227),
    Message('note_on', channel=0, note=59, velocity=96, time=13),
    Message('note_on', channel=0, note=59, velocity=0, time=113),
    Message('note_on', channel=0, note=56, velocity=96, time=7),
    Message('note_on', channel=0, note=56, velocity=0, time=113),
    Message('note_on', channel=0, note=52, velocity=96, time=7),
    Message('note_on', channel=0, note=52, velocity=0, time=227),
    Message('note_on', channel=0, note=35, velocity=96, time=13),
    Message('note_on', channel=0, note=47, velocity=96, time=0),
    Message('control_change', channel=0, control=64, value=0, time=1),
    Message('control_change', channel=0, control=64, value=0, time=0),
    Message('control_change', channel=0, control=64, value=0, time=0),
    Message('control_change', channel=0, control=64, value=127, time=1),
    Message('control_change', channel=0, control=64, value=127, time=0),
    Message('note_on', channel=0, note=35, velocity=0, time=453),
    Message('note_on', channel=0, note=47, velocity=0, time=0),
    Message('note_on', channel=0, note=35, velocity=96, time=25),
    Message('note_on', channel=0, note=47, velocity=96, time=0),
    Message('note_on', channel=0, note=35, velocity=0, time=341),
    Message('note_on', channel=0, note=47, velocity=0, time=0),
    Message('note_on', channel=0, note=47, velocity=96, time=19),
    Message('note_on', channel=0, note=47, velocity=0, time=113),
    Message('note_on', channel=0, note=54, velocity=96, time=7),
    Message('note_on', channel=0, note=59, velocity=96, time=0),
    Message('note_on', channel=0, note=54, velocity=0, time=227),
    Message('note_on', channel=0, note=59, velocity=0, time=0),
    Message('note_on', channel=0, note=47, velocity=96, time=13),
    Message('note_on', channel=0, note=47, velocity=0, time=227),
    Message('note_on', channel=0, note=54, velocity=96, time=13),
    Message('note_on', channel=0, note=54, velocity=0, time=113),
    Message('note_on', channel=0, note=50, velocity=96, time=7),
    Message('note_on', channel=0, note=50, velocity=0, time=113),
    Message('note_on', channel=0, note=47, velocity=96, time=7),
    Message('note_on', channel=0, note=47, velocity=0, time=227),
    Message('note_on', channel=0, note=38, velocity=96, time=13),
    Message('note_on', channel=0, note=50, velocity=96, time=0),
    Message('control_change', channel=0, control=64, value=0, time=1),
    Message('control_change', channel=0, control=64, value=0, time=0),
    Message('control_change', channel=0, control=64, value=127, time=1),
    Message('control_change', channel=0, control=64, value=127, time=0),
    Message('note_on', channel=0, note=38, velocity=0, time=453),
    Message('note_on', channel=0, note=50, velocity=0, time=0),
    Message('note_on', channel=0, note=38, velocity=96, time=25),
    Message('note_on', channel=0, note=50, velocity=96, time=0),
    Message('note_on', channel=0, note=38, velocity=0, time=341),
    Message('note_on', channel=0, note=50, velocity=0, time=0),
    Message('note_on', channel=0, note=50, velocity=96, time=19),
    Message('note_on', channel=0, note=50, velocity=0, time=113),
    Message('note_on', channel=0, note=57, velocity=96, time=7),
    Message('note_on', channel=0, note=62, velocity=96, time=0),
    Message('note_on', channel=0, note=57, velocity=0, time=227),
    Message('note_on', channel=0, note=62, velocity=0, time=0),
    Message('note_on', channel=0, note=50, velocity=96, time=13),
    Message('note_on', channel=0, note=50, velocity=0, time=227),
    Message('note_on', channel=0, note=57, velocity=96, time=13),
    Message('note_on', channel=0, note=57, velocity=0, time=113),
    Message('note_on', channel=0, note=54, velocity=96, time=7),
    Message('note_on', channel=0, note=54, velocity=0, time=113),
    Message('note_on', channel=0, note=50, velocity=96, time=7),
    Message('note_on', channel=0, note=50, velocity=0, time=227),
    Message('note_on', channel=0, note=45, velocity=96, time=13),
    Message('note_on', channel=0, note=57, velocity=96, time=0),
    Message('control_change', channel=0, control=64, value=0, time=1),
    Message('control_change', channel=0, control=64, value=127, time=1),
    Message('note_on', channel=0, note=45, velocity=0, time=453),
    Message('note_on', channel=0, note=57, velocity=0, time=0),
    Message('note_on', channel=0, note=45, velocity=96, time=25),
    Message('note_on', channel=0, note=57, velocity=96, time=0),
    Message('note_on', channel=0, note=45, velocity=0, time=341),
    Message('note_on', channel=0, note=57, velocity=0, time=0),
    Message('note_on', channel=0, note=57, velocity=96, time=19),
    Message('note_on', channel=0, note=57, velocity=0, time=113),
    Message('note_on', channel=0, note=64, velocity=96, time=7),
    Message('note_on', channel=0, note=69, velocity=96, time=0),
    Message('note_on', channel=0, note=64, velocity=0, time=227),
    Message('note_on', channel=0, note=69, velocity=0, time=0),
    Message('note_on', channel=0, note=57, velocity=96, time=13),
    Message('note_on', channel=0, note=57, velocity=0, time=227),
    Message('note_on', channel=0, note=64, velocity=96, time=13),
    Message('note_on', channel=0, note=64, velocity=0, time=113),
    Message('note_on', channel=0, note=61, velocity=96, time=7),
    Message('note_on', channel=0, note=61, velocity=0, time=113),
    Message('note_on', channel=0, note=57, velocity=96, time=7),
    Message('note_on', channel=0, note=57, velocity=0, time=227),
    Message('note_on', channel=0, note=40, velocity=96, time=13),
    Message('note_on', channel=0, note=52, velocity=96, time=0),
    Message('control_change', channel=0, control=64, value=0, time=1),
    Message('control_change', channel=0, control=64, value=127, time=1),
    Message('note_on', channel=0, note=40, velocity=0, time=453),
    Message('note_on', channel=0, note=52, velocity=0, time=0),
    Message('note_on', channel=0, note=40, velocity=96, time=25),
    Message('note_on', channel=0, note=52, velocity=96, time=0),
    Message('note_on', channel=0, note=40, velocity=0, time=341),
    Message('note_on', channel=0, note=52, velocity=0, time=0),
    Message('note_on', channel=0, note=52, velocity=96, time=19),
    Message('note_on', channel=0, note=52, velocity=0, time=113),
    Message('note_on', channel=0, note=59, velocity=96, time=7),
    Message('note_on', channel=0, note=64, velocity=96, time=0),
    Message('note_on', channel=0, note=59, velocity=0, time=227),
    Message('note_on', channel=0, note=64, velocity=0, time=0),
    Message('note_on', channel=0, note=52, velocity=96, time=13),
    Message('note_on', channel=0, note=52, velocity=0, time=227),
    Message('note_on', channel=0, note=59, velocity=96, time=13),
    Message('note_on', channel=0, note=59, velocity=0, time=113),
    Message('note_on', channel=0, note=56, velocity=96, time=7),
    Message('note_on', channel=0, note=56, velocity=0, time=113),
    Message('note_on', channel=0, note=52, velocity=96, time=7),
    Message('note_on', channel=0, note=52, velocity=0, time=227),
    Message('note_on', channel=0, note=35, velocity=96, time=13),
    Message('note_on', channel=0, note=47, velocity=96, time=0),
    Message('control_change', channel=0, control=64, value=0, time=1),
    Message('note_on', channel=0, note=35, velocity=0, time=1822),
    Message('note_on', channel=0, note=47, velocity=0, time=0),
    MetaMessage('end_of_track', time=1)])
])
