MidiFile(type=1, ticks_per_beat=384, tracks=[
  MidiTrack([
    MetaMessage('set_tempo', tempo=487800, time=0),
    MetaMessage('time_signature', numerator=4, denominator=4, clocks_per_click=24, notated_32nd_notes_per_beat=8, time=0),
    MetaMessage('end_of_track', time=261120)]),
  MidiTrack([
    MetaMessage('track_name', name='Guitar1', time=0),
    Message('control_change', channel=0, control=7, value=127, time=0),
    Message('program_change', channel=0, program=27, time=0),
    Message('control_change', channel=0, control=7, value=127, time=4608),
    Message('program_change', channel=0, program=27, time=0),
    Message('note_on', channel=0, note=40, velocity=100, time=1344),
    Message('note_off', channel=0, note=40, velocity=64, time=384),
    Message('note_on', channel=0, note=52, velocity=100, time=0),
    Message('note_off', channel=0, note=52, velocity=64, time=192),
    Message('note_on', channel=0, note=55, velocity=100, time=0),
    Message('note_off', channel=0, note=55, velocity=64, time=192),
    Message('note_on', channel=0, note=46, velocity=100, time=0),
    Message('note_off', channel=0, note=46, velocity=64, time=192),
    Message('note_on', channel=0, note=45, velocity=100, time=0),
    Message('note_off', channel=0, note=45, velocity=64, time=384),
    Message('note_on', channel=0, note=52, velocity=100, time=0),
    Message('note_off', channel=0, note=52, velocity=64, time=192),
    Message('note_on', channel=0, note=40, velocity=100, time=0),
    Message('note_off', channel=0, note=40, velocity=64, time=384),
    Message('note_on', channel=0, note=52, velocity=100, time=0),
    Message('note_off', channel=0, note=52, velocity=64, time=192),
    Message('note_on', channel=0, note=55, velocity=100, time=0),
    Message('note_off', channel=0, note=55, velocity=64, time=192),
    Message('note_on', channel=0, note=46, velocity=100, time=0),
    Message('note_off', channel=0, note=46, velocity=64, time=192),
    Message('note_on', channel=0, note=45, velocity=100, time=0),
    Message('note_off', channel=0, note=45, velocity=64, time=384),
    Message('note_on', channel=0, note=52, velocity=100, time=0),
    Message('note_off', channel=0, note=52, velocity=64, time=192),
    Message('note_on', channel=0, note=40, velocity=100, time=0),
    Message('note_off', channel=0, note=40, velocity=64, time=384),
    Message('note_on', channel=0, note=52, velocity=100, time=0),
    Message('note_off', channel=0, note=52, velocity=64, time=192),
    Message('note_on', channel=0, note=55, velocity=100, time=0),
    Message('note_off', channel=0, note=55, velocity=64, time=192),
    Message('note_on', channel=0, note=46, velocity=100, time=0),
    Message('note_off', channel=0, note=46, velocity=64, time=192),
    Message('note_on', channel=0, note=45, velocity=100, time=0),
    Message('note_off', channel=0, note=45, velocity=64, time=384),
    Message('note_on', channel=0, note=52, velocity=100, time=0),
    Message('note_off', channel=0, note=52, velocity=64, time=192),
    Message('note_on', channel=0, note=40, velocity=100, time=0),
    Message('note_off', channel=0, note=40, velocity=64, time=384),
    Message('note_on', channel=0, note=52, velocity=100, time=0),
    Message('note_off', channel=0, note=52, velocity=64, time=192),
    Message('note_on', channel=0, note=55, velocity=100, time=0),
    Message('note_off', channel=0, note=55, velocity=64, time=192),
    Message('note_on', channel=0, note=46, velocity=100, time=0),
    Message('note_off', channel=0, note=46, velocity=64, time=192),
    Message('note_on', channel=0, note=45, velocity=100, time=0),
    Message('note_off', channel=0, note=45, velocity=64, time=384),
    Message('note_on', channel=0, note=52, velocity=100, time=0),
    Message('note_off', channel=0, note=52, velocity=64, time=192),
    Message('note_on', channel=0, note=40, velocity=100, time=0),
    Message('note_off', channel=0, note=40, velocity=64, time=384),
    Message('note_on', channel=0, note=52, velocity=100, time=0),
    Message('note_off', channel=0, note=52, velocity=64, time=192),
    Message('note_on', channel=0, note=55, velocity=100, time=0),
    Message('note_off', channel=0, note=55, velocity=64, time=192),
    Message('note_on', channel=0, note=46, velocity=100, time=0),
    Message('note_off', channel=0, note=46, velocity=64, time=192),
    Message('note_on', channel=0, note=45, velocity=100, time=0),
    Message('note_off', channel=0, note=45, velocity=64, time=384),
    Message('note_on', channel=0, note=52, velocity=100, time=0),
    Message('note_off', channel=0, note=52, velocity=64, time=192),
    Message('note_on', channel=0, note=40, velocity=100, time=0),
    Message('note_off', channel=0, note=40, velocity=64, time=384),
    Message('note_on', channel=0, note=52, velocity=100, time=0),
    Message('note_off', channel=0, note=52, velocity=64, time=192),
    Message('note_on', channel=0, note=55, velocity=100, time=0),
    Message('note_off', channel=0, note=55, velocity=64, time=192),
    Message('note_on', channel=0, note=46, velocity=100, time=0),
    Message('note_off', channel=0, note=46, velocity=64, time=192),
    Message('note_on', channel=0, note=45, velocity=100, time=0),
    Message('note_off', channel=0, note=45, velocity=64, time=384),
    Message('note_on', channel=0, note=52, velocity=100, time=0),
    Message('note_off', channel=0, note=52, velocity=64, time=192),
    Message('note_on', channel=0, note=40, velocity=100, time=0),
    Message('note_off', channel=0, note=40, velocity=64, time=384),
    Message('note_on', channel=0, note=52, velocity=100, time=0),
    Message('note_off', channel=0, note=52, velocity=64, time=192),
    Message('note_on', channel=0, note=55, velocity=100, time=0),
    Message('note_off', channel=0, note=55, velocity=64, time=192),
    Message('note_on', channel=0, note=46, velocity=100, time=0),
    Message('note_off', channel=0, note=46, velocity=64, time=192),
    Message('note_on', channel=0, note=45, velocity=100, time=0),
    Message('note_off', channel=0, note=45, velocity=64, time=384),
    Message('note_on', channel=0, note=52, velocity=100, time=0),
    Message('note_off', channel=0, note=52, velocity=64, time=192),
    Message('note_on', channel=0, note=40, velocity=100, time=0),
    Message('note_off', channel=0, note=40, velocity=64, time=384),
    Message('note_on', channel=0, note=52, velocity=100, time=0),
    Message('note_off', channel=0, note=52, velocity=64, time=192),
    Message('note_on', channel=0, note=55, velocity=100, time=0),
    Message('note_off', channel=0, note=55, velocity=64, time=192),
    Message('note_on', channel=0, note=46, velocity=100, time=0),
    Message('note_off', channel=0, note=46, velocity=64, time=192),
    Message('note_on', channel=0, note=45, velocity=100, time=0),
    Message('note_off', channel=0, note=45, velocity=64, time=384),
    Message('note_on', channel=0, note=52, velocity=100, time=0),
    Message('note_off', channel=0, note=52, velocity=64, time=192),
    Message('note_on', channel=0, note=40, velocity=100, time=0),
    Message('note_off', channel=0, note=40, velocity=64, time=384),
    Message('note_on', channel=0, note=52, velocity=100, time=0),
    Message('note_off', channel=0, note=52, velocity=64, time=192),
    Message('note_on', channel=0, note=55, velocity=100, time=0),
    Message('note_off', channel=0, note=55, velocity=64, time=192),
    Message('note_on', channel=0, note=46, velocity=100, time=0),
    Message('note_off', channel=0, note=46, velocity=64, time=192),
    Message('note_on', channel=0, note=45, velocity=100, time=0),
    Message('note_off', channel=0, note=45, velocity=64, time=384),
    Message('note_on', channel=0, note=52, velocity=100, time=0),
    Message('note_off', channel=0, note=52, velocity=64, time=192),
    Message('note_on', channel=0, note=40, velocity=100, time=0),
    Message('note_off', channel=0, note=40, velocity=64, time=384),
    Message('note_on', channel=0, note=52, velocity=100, time=0),
    Message('note_off', channel=0, note=52, velocity=64, time=192),
    Message('note_on', channel=0, note=55, velocity=100, time=0),
    Message('note_off', channel=0, note=55, velocity=64, time=192),
    Message('note_on', channel=0, note=46, velocity=100, time=0),
    Message('note_off', channel=0, note=46, velocity=64, time=192),
    Message('note_on', channel=0, note=45, velocity=100, time=0),
    Message('note_off', channel=0, note=45, velocity=64, time=384),
    Message('note_on', channel=0, note=52, velocity=100, time=0),
    Message('note_off', channel=0, note=52, velocity=64, time=192),
    Message('note_on', channel=0, note=40, velocity=100, time=0),
    Message('note_off', channel=0, note=40, velocity=64, time=384),
    Message('note_on', channel=0, note=52, velocity=100, time=0),
    Message('note_off', channel=0, note=52, velocity=64, time=192),
    Message('note_on', channel=0, note=55, velocity=100, time=0),
    Message('note_off', channel=0, note=55, velocity=64, time=192),
    Message('note_on', channel=0, note=46, velocity=100, time=0),
    Message('note_off', channel=0, note=46, velocity=64, time=192),
    Message('note_on', channel=0, note=45, velocity=100, time=0),
    Message('note_off', channel=0, note=45, velocity=64, time=384),
    Message('note_on', channel=0, note=52, velocity=100, time=0),
    Message('note_off', channel=0, note=52, velocity=64, time=192),
    Message('note_on', channel=0, note=40, velocity=100, time=0),
    Message('note_off', channel=0, note=40, velocity=64, time=384),
    Message('note_on', channel=0, note=52, velocity=100, time=0),
    Message('note_off', channel=0, note=52, velocity=64, time=192),
    Message('note_on', channel=0, note=55, velocity=100, time=0),
    Message('note_off', channel=0, note=55, velocity=64, time=192),
    Message('note_on', channel=0, note=46, velocity=100, time=0),
    Message('note_off', channel=0, note=46, velocity=64, time=192),
    Message('note_on', channel=0, note=45, velocity=100, time=0),
    Message('note_off', channel=0, note=45, velocity=64, time=384),
    Message('note_on', channel=0, note=52, velocity=100, time=0),
    Message('note_off', channel=0, note=52, velocity=64, time=191),
    Message('control_change', channel=0, control=7, value=127, time=143041),
    Message('program_change', channel=0, program=27, time=0),
    Message('note_on', channel=0, note=40, velocity=100, time=1344),
    Message('note_off', channel=0, note=40, velocity=64, time=384),
    Message('note_on', channel=0, note=52, velocity=100, time=0),
    Message('note_off', channel=0, note=52, velocity=64, time=192),
    Message('note_on', channel=0, note=55, velocity=100, time=0),
    Message('note_off', channel=0, note=55, velocity=64, time=192),
    Message('note_on', channel=0, note=46, velocity=100, time=0),
    Message('note_off', channel=0, note=46, velocity=64, time=192),
    Message('note_on', channel=0, note=45, velocity=100, time=0),
    Message('note_off', channel=0, note=45, velocity=64, time=384),
    Message('note_on', channel=0, note=52, velocity=100, time=0),
    Message('note_off', channel=0, note=52, velocity=64, time=192),
    Message('note_on', channel=0, note=40, velocity=100, time=0),
    Message('note_off', channel=0, note=40, velocity=64, time=384),
    Message('note_on', channel=0, note=52, velocity=100, time=0),
    Message('note_off', channel=0, note=52, velocity=64, time=192),
    Message('note_on', channel=0, note=55, velocity=100, time=0),
    Message('note_off', channel=0, note=55, velocity=64, time=192),
    Message('note_on', channel=0, note=46, velocity=100, time=0),
    Message('note_off', channel=0, note=46, velocity=64, time=192),
    Message('note_on', channel=0, note=45, velocity=100, time=0),
    Message('note_off', channel=0, note=45, velocity=64, time=384),
    Message('note_on', channel=0, note=52, velocity=100, time=0),
    Message('note_off', channel=0, note=52, velocity=64, time=192),
    Message('note_on', channel=0, note=40, velocity=100, time=0),
    Message('note_off', channel=0, note=40, velocity=64, time=384),
    Message('note_on', channel=0, note=52, velocity=100, time=0),
    Message('note_off', channel=0, note=52, velocity=64, time=192),
    Message('note_on', channel=0, note=55, velocity=100, time=0),
    Message('note_off', channel=0, note=55, velocity=64, time=192),
    Message('note_on', channel=0, note=46, velocity=100, time=0),
    Message('note_off', channel=0, note=46, velocity=64, time=192),
    Message('note_on', channel=0, note=45, velocity=100, time=0),
    Message('note_off', channel=0, note=45, velocity=64, time=384),
    Message('note_on', channel=0, note=52, velocity=100, time=0),
    Message('note_off', channel=0, note=52, velocity=64, time=192),
    Message('note_on', channel=0, note=40, velocity=100, time=0),
    Message('note_off', channel=0, note=40, velocity=64, time=384),
    Message('note_on', channel=0, note=52, velocity=100, time=0),
    Message('note_off', channel=0, note=52, velocity=64, time=192),
    Message('note_on', channel=0, note=55, velocity=100, time=0),
    Message('note_off', channel=0, note=55, velocity=64, time=192),
    Message('note_on', channel=0, note=46, velocity=100, time=0),
    Message('note_off', channel=0, note=46, velocity=64, time=192),
    Message('note_on', channel=0, note=45, velocity=100, time=0),
    Message('note_off', channel=0, note=45, velocity=64, time=384),
    Message('note_on', channel=0, note=52, velocity=100, time=0),
    Message('note_off', channel=0, note=52, velocity=64, time=192),
    Message('note_on', channel=0, note=40, velocity=100, time=0),
    Message('note_off', channel=0, note=40, velocity=64, time=384),
    Message('note_on', channel=0, note=52, velocity=100, time=0),
    Message('note_off', channel=0, note=52, velocity=64, time=192),
    Message('note_on', channel=0, note=55, velocity=100, time=0),
    Message('note_off', channel=0, note=55, velocity=64, time=192),
    Message('note_on', channel=0, note=46, velocity=100, time=0),
    Message('note_off', channel=0, note=46, velocity=64, time=192),
    Message('note_on', channel=0, note=45, velocity=100, time=0),
    Message('note_off', channel=0, note=45, velocity=64, time=384),
    Message('note_on', channel=0, note=52, velocity=100, time=0),
    Message('note_off', channel=0, note=52, velocity=64, time=192),
    Message('note_on', channel=0, note=40, velocity=100, time=0),
    Message('note_off', channel=0, note=40, velocity=64, time=384),
    Message('note_on', channel=0, note=52, velocity=100, time=0),
    Message('note_off', channel=0, note=52, velocity=64, time=192),
    Message('note_on', channel=0, note=55, velocity=100, time=0),
    Message('note_off', channel=0, note=55, velocity=64, time=192),
    Message('note_on', channel=0, note=46, velocity=100, time=0),
    Message('note_off', channel=0, note=46, velocity=64, time=192),
    Message('note_on', channel=0, note=45, velocity=100, time=0),
    Message('note_off', channel=0, note=45, velocity=64, time=384),
    Message('note_on', channel=0, note=52, velocity=100, time=0),
    Message('note_off', channel=0, note=52, velocity=64, time=192),
    Message('note_on', channel=0, note=40, velocity=100, time=0),
    Message('note_off', channel=0, note=40, velocity=64, time=384),
    Message('note_on', channel=0, note=52, velocity=100, time=0),
    Message('note_off', channel=0, note=52, velocity=64, time=192),
    Message('note_on', channel=0, note=55, velocity=100, time=0),
    Message('note_off', channel=0, note=55, velocity=64, time=192),
    Message('note_on', channel=0, note=46, velocity=100, time=0),
    Message('note_off', channel=0, note=46, velocity=64, time=192),
    Message('note_on', channel=0, note=45, velocity=100, time=0),
    Message('note_off', channel=0, note=45, velocity=64, time=384),
    Message('note_on', channel=0, note=52, velocity=100, time=0),
    Message('note_off', channel=0, note=52, velocity=64, time=192),
    Message('note_on', channel=0, note=40, velocity=100, time=0),
    Message('note_off', channel=0, note=40, velocity=64, time=384),
    Message('note_on', channel=0, note=52, velocity=100, time=0),
    Message('note_off', channel=0, note=52, velocity=64, time=192),
    Message('note_on', channel=0, note=55, velocity=100, time=0),
    Message('note_off', channel=0, note=55, velocity=64, time=192),
    Message('note_on', channel=0, note=46, velocity=100, time=0),
    Message('note_off', channel=0, note=46, velocity=64, time=192),
    Message('note_on', channel=0, note=45, velocity=100, time=0),
    Message('note_off', channel=0, note=45, velocity=64, time=384),
    Message('note_on', channel=0, note=52, velocity=100, time=0),
    Message('note_off', channel=0, note=52, velocity=64, time=192),
    Message('control_change', channel=0, control=7, value=127, time=44736),
    Message('program_change', channel=0, program=27, time=0),
    Message('note_on', channel=0, note=40, velocity=100, time=1344),
    Message('note_off', channel=0, note=40, velocity=64, time=384),
    Message('note_on', channel=0, note=52, velocity=100, time=0),
    Message('note_off', channel=0, note=52, velocity=64, time=192),
    Message('note_on', channel=0, note=55, velocity=100, time=0),
    Message('note_off', channel=0, note=55, velocity=64, time=192),
    Message('note_on', channel=0, note=46, velocity=100, time=0),
    Message('note_off', channel=0, note=46, velocity=64, time=192),
    Message('note_on', channel=0, note=45, velocity=100, time=0),
    Message('note_off', channel=0, note=45, velocity=64, time=384),
    Message('note_on', channel=0, note=52, velocity=100, time=0),
    Message('note_off', channel=0, note=52, velocity=64, time=192),
    Message('note_on', channel=0, note=40, velocity=100, time=0),
    Message('note_off', channel=0, note=40, velocity=64, time=384),
    Message('note_on', channel=0, note=52, velocity=100, time=0),
    Message('note_off', channel=0, note=52, velocity=64, time=192),
    Message('note_on', channel=0, note=55, velocity=100, time=0),
    Message('note_off', channel=0, note=55, velocity=64, time=192),
    Message('note_on', channel=0, note=46, velocity=100, time=0),
    Message('note_off', channel=0, note=46, velocity=64, time=192),
    Message('note_on', channel=0, note=45, velocity=100, time=0),
    Message('note_off', channel=0, note=45, velocity=64, time=384),
    Message('note_on', channel=0, note=52, velocity=100, time=0),
    Message('note_off', channel=0, note=52, velocity=64, time=192),
    Message('note_on', channel=0, note=40, velocity=100, time=0),
    Message('note_off', channel=0, note=40, velocity=64, time=384),
    Message('note_on', channel=0, note=52, velocity=100, time=0),
    Message('note_off', channel=0, note=52, velocity=64, time=192),
    Message('note_on', channel=0, note=55, velocity=100, time=0),
    Message('note_off', channel=0, note=55, velocity=64, time=192),
    Message('note_on', channel=0, note=46, velocity=100, time=0),
    Message('note_off', channel=0, note=46, velocity=64, time=192),
    Message('note_on', channel=0, note=45, velocity=100, time=0),
    Message('note_off', channel=0, note=45, velocity=64, time=384),
    Message('note_on', channel=0, note=52, velocity=100, time=0),
    Message('note_off', channel=0, note=52, velocity=64, time=192),
    Message('note_on', channel=0, note=40, velocity=100, time=0),
    Message('note_off', channel=0, note=40, velocity=64, time=384),
    Message('note_on', channel=0, note=52, velocity=100, time=0),
    Message('note_off', channel=0, note=52, velocity=64, time=192),
    Message('note_on', channel=0, note=55, velocity=100, time=0),
    Message('note_off', channel=0, note=55, velocity=64, time=192),
    Message('note_on', channel=0, note=46, velocity=100, time=0),
    Message('note_off', channel=0, note=46, velocity=64, time=192),
    Message('note_on', channel=0, note=45, velocity=100, time=0),
    Message('note_off', channel=0, note=45, velocity=64, time=384),
    Message('note_on', channel=0, note=52, velocity=100, time=0),
    Message('note_off', channel=0, note=52, velocity=64, time=192),
    Message('note_on', channel=0, note=40, velocity=100, time=0),
    Message('note_off', channel=0, note=40, velocity=64, time=384),
    Message('note_on', channel=0, note=52, velocity=100, time=0),
    Message('note_off', channel=0, note=52, velocity=64, time=192),
    Message('note_on', channel=0, note=55, velocity=100, time=0),
    Message('note_off', channel=0, note=55, velocity=64, time=192),
    Message('note_on', channel=0, note=46, velocity=100, time=0),
    Message('note_off', channel=0, note=46, velocity=64, time=192),
    Message('note_on', channel=0, note=45, velocity=100, time=0),
    Message('note_off', channel=0, note=45, velocity=64, time=384),
    Message('note_on', channel=0, note=52, velocity=100, time=0),
    Message('note_off', channel=0, note=52, velocity=64, time=192),
    Message('note_on', channel=0, note=40, velocity=100, time=0),
    Message('note_off', channel=0, note=40, velocity=64, time=384),
    Message('note_on', channel=0, note=52, velocity=100, time=0),
    Message('note_off', channel=0, note=52, velocity=64, time=192),
    Message('note_on', channel=0, note=55, velocity=100, time=0),
    Message('note_off', channel=0, note=55, velocity=64, time=192),
    Message('note_on', channel=0, note=46, velocity=100, time=0),
    Message('note_off', channel=0, note=46, velocity=64, time=192),
    Message('note_on', channel=0, note=45, velocity=100, time=0),
    Message('note_off', channel=0, note=45, velocity=64, time=384),
    Message('note_on', channel=0, note=52, velocity=100, time=0),
    Message('note_off', channel=0, note=52, velocity=64, time=192),
    Message('note_on', channel=0, note=40, velocity=100, time=0),
    Message('note_off', channel=0, note=40, velocity=64, time=384),
    Message('note_on', channel=0, note=52, velocity=100, time=0),
    Message('note_off', channel=0, note=52, velocity=64, time=192),
    Message('note_on', channel=0, note=55, velocity=100, time=0),
    Message('note_off', channel=0, note=55, velocity=64, time=192),
    Message('note_on', channel=0, note=46, velocity=100, time=0),
    Message('note_off', channel=0, note=46, velocity=64, time=192),
    Message('note_on', channel=0, note=45, velocity=100, time=0),
    Message('note_off', channel=0, note=45, velocity=64, time=384),
    Message('note_on', channel=0, note=52, velocity=100, time=0),
    Message('note_off', channel=0, note=52, velocity=64, time=192),
    Message('note_on', channel=0, note=40, velocity=100, time=0),
    Message('note_off', channel=0, note=40, velocity=64, time=384),
    Message('note_on', channel=0, note=52, velocity=100, time=0),
    Message('note_off', channel=0, note=52, velocity=64, time=192),
    Message('note_on', channel=0, note=55, velocity=100, time=0),
    Message('note_off', channel=0, note=55, velocity=64, time=192),
    Message('note_on', channel=0, note=46, velocity=100, time=0),
    Message('note_off', channel=0, note=46, velocity=64, time=192),
    Message('note_on', channel=0, note=45, velocity=100, time=0),
    Message('note_off', channel=0, note=45, velocity=64, time=384),
    Message('note_on', channel=0, note=52, velocity=100, time=0),
    Message('note_off', channel=0, note=52, velocity=64, time=192),
    Message('note_on', channel=0, note=40, velocity=100, time=0),
    Message('note_off', channel=0, note=40, velocity=64, time=384),
    Message('note_on', channel=0, note=52, velocity=100, time=0),
    Message('note_off', channel=0, note=52, velocity=64, time=192),
    Message('note_on', channel=0, note=55, velocity=100, time=0),
    Message('note_off', channel=0, note=55, velocity=64, time=192),
    Message('note_on', channel=0, note=46, velocity=100, time=0),
    Message('note_off', channel=0, note=46, velocity=64, time=192),
    Message('note_on', channel=0, note=45, velocity=100, time=0),
    Message('note_off', channel=0, note=45, velocity=64, time=384),
    Message('note_on', channel=0, note=52, velocity=100, time=0),
    Message('note_off', channel=0, note=52, velocity=64, time=192),
    Message('note_on', channel=0, note=40, velocity=100, time=0),
    Message('note_off', channel=0, note=40, velocity=64, time=384),
    Message('note_on', channel=0, note=52, velocity=100, time=0),
    Message('note_off', channel=0, note=52, velocity=64, time=192),
    Message('note_on', channel=0, note=55, velocity=100, time=0),
    Message('note_off', channel=0, note=55, velocity=64, time=192),
    Message('note_on', channel=0, note=46, velocity=100, time=0),
    Message('note_off', channel=0, note=46, velocity=64, time=192),
    Message('note_on', channel=0, note=45, velocity=100, time=0),
    Message('note_off', channel=0, note=45, velocity=64, time=384),
    Message('note_on', channel=0, note=52, velocity=100, time=0),
    Message('note_off', channel=0, note=52, velocity=64, time=192),
    Message('note_on', channel=0, note=40, velocity=100, time=0),
    Message('note_off', channel=0, note=40, velocity=64, time=384),
    Message('note_on', channel=0, note=52, velocity=100, time=0),
    Message('note_off', channel=0, note=52, velocity=64, time=192),
    Message('note_on', channel=0, note=55, velocity=100, time=0),
    Message('note_off', channel=0, note=55, velocity=64, time=192),
    Message('note_on', channel=0, note=46, velocity=100, time=0),
    Message('note_off', channel=0, note=46, velocity=64, time=192),
    Message('note_on', channel=0, note=45, velocity=100, time=0),
    Message('note_off', channel=0, note=45, velocity=64, time=384),
    Message('note_on', channel=0, note=52, velocity=100, time=0),
    Message('note_off', channel=0, note=52, velocity=64, time=192),
    Message('note_on', channel=0, note=40, velocity=100, time=0),
    Message('note_off', channel=0, note=40, velocity=64, time=384),
    Message('note_on', channel=0, note=52, velocity=100, time=0),
    Message('note_off', channel=0, note=52, velocity=64, time=192),
    Message('note_on', channel=0, note=55, velocity=100, time=0),
    Message('note_off', channel=0, note=55, velocity=64, time=192),
    Message('note_on', channel=0, note=46, velocity=100, time=0),
    Message('note_off', channel=0, note=46, velocity=64, time=192),
    Message('note_on', channel=0, note=45, velocity=100, time=0),
    Message('note_off', channel=0, note=45, velocity=64, time=384),
    Message('note_on', channel=0, note=52, velocity=100, time=0),
    Message('note_off', channel=0, note=52, velocity=64, time=191),
    Message('note_on', channel=0, note=40, velocity=100, time=1),
    Message('note_off', channel=0, note=40, velocity=64, time=384),
    Message('note_on', channel=0, note=52, velocity=100, time=0),
    Message('note_off', channel=0, note=52, velocity=64, time=192),
    Message('note_on', channel=0, note=55, velocity=100, time=0),
    Message('note_off', channel=0, note=55, velocity=64, time=192),
    Message('note_on', channel=0, note=46, velocity=100, time=0),
    Message('note_off', channel=0, note=46, velocity=64, time=192),
    Message('note_on', channel=0, note=45, velocity=100, time=0),
    Message('note_off', channel=0, note=45, velocity=64, time=384),
    Message('note_on', channel=0, note=52, velocity=100, time=0),
    Message('note_off', channel=0, note=52, velocity=64, time=191),
    Message('note_on', channel=0, note=40, velocity=100, time=1),
    Message('note_off', channel=0, note=40, velocity=64, time=384),
    Message('note_on', channel=0, note=52, velocity=100, time=0),
    Message('note_off', channel=0, note=52, velocity=64, time=192),
    Message('note_on', channel=0, note=55, velocity=100, time=0),
    Message('note_off', channel=0, note=55, velocity=64, time=192),
    Message('note_on', channel=0, note=46, velocity=100, time=0),
    Message('note_off', channel=0, note=46, velocity=64, time=192),
    Message('note_on', channel=0, note=45, velocity=100, time=0),
    Message('note_off', channel=0, note=45, velocity=64, time=384),
    Message('note_on', channel=0, note=52, velocity=100, time=0),
    Message('note_off', channel=0, note=52, velocity=64, time=192),
    Message('note_on', channel=0, note=40, velocity=100, time=0),
    Message('note_off', channel=0, note=40, velocity=64, time=384),
    Message('note_on', channel=0, note=52, velocity=95, time=0),
    Message('note_off', channel=0, note=52, velocity=64, time=192),
    Message('note_on', channel=0, note=55, velocity=94, time=0),
    Message('note_off', channel=0, note=55, velocity=64, time=192),
    Message('note_on', channel=0, note=46, velocity=92, time=0),
    Message('note_off', channel=0, note=46, velocity=64, time=192),
    Message('note_on', channel=0, note=45, velocity=90, time=0),
    Message('note_off', channel=0, note=45, velocity=64, time=384),
    Message('note_on', channel=0, note=52, velocity=87, time=0),
    Message('note_off', channel=0, note=52, velocity=64, time=192),
    Message('note_on', channel=0, note=40, velocity=86, time=0),
    Message('note_off', channel=0, note=40, velocity=64, time=384),
    Message('note_on', channel=0, note=52, velocity=83, time=0),
    Message('note_off', channel=0, note=52, velocity=64, time=192),
    Message('note_on', channel=0, note=55, velocity=81, time=0),
    Message('note_off', channel=0, note=55, velocity=64, time=192),
    Message('note_on', channel=0, note=46, velocity=80, time=0),
    Message('note_off', channel=0, note=46, velocity=64, time=192),
    Message('note_on', channel=0, note=45, velocity=78, time=0),
    Message('note_off', channel=0, note=45, velocity=64, time=384),
    Message('note_on', channel=0, note=52, velocity=75, time=0),
    Message('note_off', channel=0, note=52, velocity=64, time=192),
    Message('note_on', channel=0, note=40, velocity=74, time=0),
    Message('note_off', channel=0, note=40, velocity=64, time=384),
    Message('note_on', channel=0, note=52, velocity=71, time=0),
    Message('note_off', channel=0, note=52, velocity=64, time=192),
    Message('note_on', channel=0, note=55, velocity=69, time=0),
    Message('note_off', channel=0, note=55, velocity=64, time=192),
    Message('note_on', channel=0, note=46, velocity=68, time=0),
    Message('note_off', channel=0, note=46, velocity=64, time=192),
    Message('note_on', channel=0, note=45, velocity=66, time=0),
    Message('note_off', channel=0, note=45, velocity=64, time=384),
    Message('note_on', channel=0, note=52, velocity=63, time=0),
    Message('note_off', channel=0, note=52, velocity=64, time=192),
    Message('note_on', channel=0, note=40, velocity=62, time=0),
    Message('note_off', channel=0, note=40, velocity=64, time=384),
    Message('note_on', channel=0, note=52, velocity=59, time=0),
    Message('note_off', channel=0, note=52, velocity=64, time=192),
    Message('note_on', channel=0, note=55, velocity=57, time=0),
    Message('note_off', channel=0, note=55, velocity=64, time=192),
    Message('note_on', channel=0, note=46, velocity=56, time=0),
    Message('note_off', channel=0, note=46, velocity=64, time=192),
    Message('note_on', channel=0, note=45, velocity=54, time=0),
    Message('note_off', channel=0, note=45, velocity=64, time=384),
    Message('note_on', channel=0, note=52, velocity=51, time=0),
    Message('note_off', channel=0, note=52, velocity=64, time=192),
    Message('note_on', channel=0, note=40, velocity=50, time=0),
    Message('note_off', channel=0, note=40, velocity=64, time=384),
    Message('note_on', channel=0, note=52, velocity=47, time=0),
    Message('note_off', channel=0, note=52, velocity=64, time=192),
    Message('note_on', channel=0, note=55, velocity=45, time=0),
    Message('note_off', channel=0, note=55, velocity=64, time=192),
    Message('note_on', channel=0, note=46, velocity=43, time=0),
    Message('note_off', channel=0, note=46, velocity=64, time=192),
    Message('note_on', channel=0, note=45, velocity=42, time=0),
    Message('note_off', channel=0, note=45, velocity=64, time=384),
    Message('note_on', channel=0, note=52, velocity=39, time=0),
    Message('note_off', channel=0, note=52, velocity=64, time=192),
    Message('note_on', channel=0, note=40, velocity=37, time=0),
    Message('note_off', channel=0, note=40, velocity=64, time=384),
    Message('note_on', channel=0, note=52, velocity=34, time=0),
    Message('note_off', channel=0, note=52, velocity=64, time=192),
    Message('note_on', channel=0, note=55, velocity=33, time=0),
    Message('note_off', channel=0, note=55, velocity=64, time=192),
    Message('note_on', channel=0, note=46, velocity=31, time=0),
    Message('note_off', channel=0, note=46, velocity=64, time=192),
    Message('note_on', channel=0, note=45, velocity=30, time=0),
    Message('note_off', channel=0, note=45, velocity=64, time=384),
    Message('note_on', channel=0, note=52, velocity=27, time=0),
    Message('note_off', channel=0, note=52, velocity=64, time=192),
    Message('note_on', channel=0, note=40, velocity=25, time=0),
    Message('note_off', channel=0, note=40, velocity=64, time=384),
    Message('note_on', channel=0, note=52, velocity=22, time=0),
    Message('note_off', channel=0, note=52, velocity=64, time=192),
    Message('note_on', channel=0, note=55, velocity=21, time=0),
    Message('note_off', channel=0, note=55, velocity=64, time=192),
    Message('note_on', channel=0, note=46, velocity=19, time=0),
    Message('note_off', channel=0, note=46, velocity=64, time=192),
    Message('note_on', channel=0, note=45, velocity=18, time=0),
    Message('note_off', channel=0, note=45, velocity=64, time=384),
    Message('note_on', channel=0, note=52, velocity=15, time=0),
    Message('note_off', channel=0, note=52, velocity=64, time=192),
    Message('note_on', channel=0, note=40, velocity=13, time=0),
    Message('note_off', channel=0, note=40, velocity=64, time=384),
    Message('note_on', channel=0, note=52, velocity=10, time=0),
    Message('note_off', channel=0, note=52, velocity=64, time=192),
    Message('note_on', channel=0, note=55, velocity=9, time=0),
    Message('note_off', channel=0, note=55, velocity=64, time=192),
    Message('note_on', channel=0, note=46, velocity=7, time=0),
    Message('note_off', channel=0, note=46, velocity=64, time=192),
    Message('note_on', channel=0, note=45, velocity=6, time=0),
    Message('note_off', channel=0, note=45, velocity=64, time=384),
    Message('note_on', channel=0, note=52, velocity=3, time=0),
    Message('note_off', channel=0, note=52, velocity=64, time=192),
    Message('note_on', channel=0, note=40, velocity=1, time=0),
    Message('note_off', channel=0, note=40, velocity=64, time=384),
    MetaMessage('end_of_track', time=64)]),
  MidiTrack([
    MetaMessage('track_name', name='Guitar2', time=0),
    Message('control_change', channel=12, control=7, value=127, time=0),
    Message('program_change', channel=12, program=29, time=0),
    Message('control_change', channel=12, control=7, value=127, time=10752),
    Message('program_change', channel=12, program=29, time=0),
    Message('note_on', channel=12, note=52, velocity=100, time=1344),
    Message('note_on', channel=12, note=55, velocity=100, time=0),
    Message('note_on', channel=12, note=59, velocity=100, time=0),
    Message('note_on', channel=12, note=64, velocity=100, time=0),
    Message('note_off', channel=12, note=64, velocity=64, time=3264),
    Message('note_off', channel=12, note=59, velocity=64, time=0),
    Message('note_off', channel=12, note=55, velocity=64, time=0),
    Message('note_off', channel=12, note=52, velocity=64, time=0),
    Message('control_change', channel=12, control=7, value=127, time=1536),
    Message('program_change', channel=12, program=29, time=0),
    Message('note_on', channel=12, note=52, velocity=100, time=1344),
    Message('note_on', channel=12, note=55, velocity=100, time=0),
    Message('note_on', channel=12, note=59, velocity=100, time=0),
    Message('note_on', channel=12, note=64, velocity=100, time=0),
    Message('note_off', channel=12, note=64, velocity=64, time=3264),
    Message('note_off', channel=12, note=59, velocity=64, time=0),
    Message('note_off', channel=12, note=55, velocity=64, time=0),
    Message('note_off', channel=12, note=52, velocity=64, time=0),
    Message('control_change', channel=12, control=7, value=127, time=76800),
    Message('program_change', channel=12, program=29, time=0),
    Message('note_on', channel=12, note=71, velocity=100, time=1344),
    Message('note_on', channel=12, note=67, velocity=100, time=0),
    Message('note_off', channel=12, note=67, velocity=64, time=384),
    Message('note_off', channel=12, note=71, velocity=64, time=0),
    Message('note_on', channel=12, note=64, velocity=100, time=0),
    Message('note_off', channel=12, note=64, velocity=64, time=192),
    Message('note_on', channel=12, note=67, velocity=100, time=0),
    Message('note_off', channel=12, note=67, velocity=64, time=192),
    Message('note_on', channel=12, note=69, velocity=100, time=0),
    Message('note_off', channel=12, note=69, velocity=64, time=192),
    Message('note_on', channel=12, note=69, velocity=100, time=0),
    Message('note_off', channel=12, note=69, velocity=64, time=96),
    Message('note_on', channel=12, note=67, velocity=100, time=0),
    Message('note_off', channel=12, note=67, velocity=64, time=96),
    Message('note_on', channel=12, note=64, velocity=100, time=0),
    Message('note_off', channel=12, note=64, velocity=64, time=192),
    Message('note_on', channel=12, note=67, velocity=100, time=0),
    Message('note_off', channel=12, note=67, velocity=64, time=192),
    Message('note_on', channel=12, note=76, velocity=127, time=1536),
    Message('note_on', channel=12, note=71, velocity=127, time=0),
    Message('note_off', channel=12, note=71, velocity=64, time=576),
    Message('note_off', channel=12, note=76, velocity=64, time=0),
    Message('control_change', channel=12, control=7, value=127, time=4224),
    Message('program_change', channel=12, program=29, time=0),
    Message('note_on', channel=12, note=71, velocity=100, time=384),
    Message('note_on', channel=12, note=67, velocity=100, time=0),
    Message('note_off', channel=12, note=67, velocity=64, time=384),
    Message('note_off', channel=12, note=71, velocity=64, time=0),
    Message('note_on', channel=12, note=71, velocity=100, time=0),
    Message('note_on', channel=12, note=67, velocity=100, time=0),
    Message('note_off', channel=12, note=67, velocity=64, time=384),
    Message('note_off', channel=12, note=71, velocity=64, time=0),
    Message('note_on', channel=12, note=71, velocity=100, time=0),
    Message('note_on', channel=12, note=67, velocity=100, time=0),
    Message('note_off', channel=12, note=67, velocity=64, time=192),
    Message('note_off', channel=12, note=71, velocity=64, time=0),
    Message('note_on', channel=12, note=64, velocity=100, time=0),
    Message('note_off', channel=12, note=64, velocity=64, time=576),
    Message('control_change', channel=12, control=7, value=127, time=24192),
    Message('program_change', channel=12, program=29, time=0),
    Message('note_on', channel=12, note=74, velocity=100, time=0),
    Message('note_off', channel=12, note=74, velocity=64, time=192),
    Message('note_on', channel=12, note=74, velocity=100, time=0),
    Message('note_off', channel=12, note=74, velocity=64, time=192),
    Message('note_on', channel=12, note=74, velocity=100, time=0),
    Message('note_off', channel=12, note=74, velocity=64, time=192),
    Message('note_on', channel=12, note=71, velocity=100, time=0),
    Message('note_off', channel=12, note=71, velocity=64, time=192),
    Message('note_on', channel=12, note=71, velocity=100, time=192),
    Message('note_off', channel=12, note=71, velocity=64, time=384),
    Message('note_on', channel=12, note=71, velocity=100, time=384),
    Message('note_off', channel=12, note=71, velocity=64, time=192),
    Message('note_on', channel=12, note=71, velocity=100, time=0),
    Message('note_off', channel=12, note=71, velocity=64, time=192),
    Message('note_on', channel=12, note=69, velocity=100, time=0),
    Message('note_off', channel=12, note=69, velocity=64, time=192),
    Message('note_on', channel=12, note=74, velocity=100, time=0),
    Message('pitchwheel', channel=12, pitch=50, time=104),
    Message('pitchwheel', channel=12, pitch=150, time=1),
    Message('pitchwheel', channel=12, pitch=200, time=1),
    Message('pitchwheel', channel=12, pitch=416, time=4),
    Message('pitchwheel', channel=12, pitch=849, time=1),
    Message('pitchwheel', channel=12, pitch=1066, time=3),
    Message('pitchwheel', channel=12, pitch=1320, time=4),
    Message('pitchwheel', channel=12, pitch=1828, time=2),
    Message('pitchwheel', channel=12, pitch=2082, time=1),
    Message('pitchwheel', channel=12, pitch=2312, time=5),
    Message('pitchwheel', channel=12, pitch=2774, time=1),
    Message('pitchwheel', channel=12, pitch=3005, time=2),
    Message('pitchwheel', channel=12, pitch=3220, time=5),
    Message('pitchwheel', channel=12, pitch=3652, time=1),
    Message('pitchwheel', channel=12, pitch=3868, time=2),
    Message('pitchwheel', channel=12, pitch=4038, time=4),
    Message('pitchwheel', channel=12, pitch=4378, time=1),
    Message('pitchwheel', channel=12, pitch=4548, time=1),
    Message('pitchwheel', channel=12, pitch=4783, time=4),
    Message('pitchwheel', channel=12, pitch=5489, time=1),
    Message('pitchwheel', channel=12, pitch=5253, time=0),
    Message('pitchwheel', channel=12, pitch=5772, time=6),
    Message('pitchwheel', channel=12, pitch=6339, time=1),
    Message('pitchwheel', channel=12, pitch=6623, time=2),
    Message('pitchwheel', channel=12, pitch=6987, time=5),
    Message('pitchwheel', channel=12, pitch=7715, time=1),
    Message('pitchwheel', channel=12, pitch=8079, time=2),
    Message('pitchwheel', channel=12, pitch=8107, time=4),
    Message('pitchwheel', channel=12, pitch=8163, time=2),
    Message('pitchwheel', channel=12, pitch=8191, time=2),
    Message('note_off', channel=12, note=74, velocity=64, time=211),
    Message('pitchwheel', channel=12, pitch=7824, time=177),
    Message('pitchwheel', channel=12, pitch=7090, time=1),
    Message('pitchwheel', channel=12, pitch=6724, time=2),
    Message('pitchwheel', channel=12, pitch=6312, time=5),
    Message('pitchwheel', channel=12, pitch=5489, time=2),
    Message('pitchwheel', channel=12, pitch=5078, time=1),
    Message('pitchwheel', channel=12, pitch=4354, time=5),
    Message('pitchwheel', channel=12, pitch=2906, time=1),
    Message('pitchwheel', channel=12, pitch=2182, time=1),
    Message('pitchwheel', channel=12, pitch=1636, time=4),
    Message('pitchwheel', channel=12, pitch=545, time=1),
    Message('pitchwheel', channel=12, pitch=0, time=1),
    Message('note_on', channel=12, note=67, velocity=100, time=183),
    Message('note_off', channel=12, note=67, velocity=64, time=96),
    Message('note_on', channel=12, note=69, velocity=100, time=0),
    Message('note_off', channel=12, note=69, velocity=64, time=96),
    Message('note_on', channel=12, note=69, velocity=100, time=0),
    Message('note_off', channel=12, note=69, velocity=64, time=96),
    Message('note_on', channel=12, note=69, velocity=100, time=0),
    Message('note_off', channel=12, note=69, velocity=64, time=96),
    Message('note_on', channel=12, note=69, velocity=100, time=0),
    Message('note_off', channel=12, note=69, velocity=64, time=96),
    Message('note_on', channel=12, note=67, velocity=100, time=0),
    Message('note_off', channel=12, note=67, velocity=64, time=96),
    Message('note_on', channel=12, note=67, velocity=100, time=0),
    Message('note_off', channel=12, note=67, velocity=64, time=96),
    Message('note_on', channel=12, note=67, velocity=100, time=0),
    Message('note_off', channel=12, note=67, velocity=64, time=96),
    Message('note_on', channel=12, note=67, velocity=100, time=0),
    Message('note_off', channel=12, note=67, velocity=64, time=96),
    Message('note_on', channel=12, note=69, velocity=100, time=0),
    Message('note_off', channel=12, note=69, velocity=64, time=96),
    Message('note_on', channel=12, note=69, velocity=100, time=0),
    Message('note_off', channel=12, note=69, velocity=64, time=96),
    Message('note_on', channel=12, note=69, velocity=100, time=0),
    Message('note_off', channel=12, note=69, velocity=64, time=96),
    Message('note_on', channel=12, note=69, velocity=100, time=0),
    Message('note_off', channel=12, note=69, velocity=64, time=96),
    Message('note_on', channel=12, note=67, velocity=100, time=0),
    Message('note_off', channel=12, note=67, velocity=64, time=96),
    Message('note_on', channel=12, note=67, velocity=100, time=0),
    Message('note_off', channel=12, note=67, velocity=64, time=96),
    Message('note_on', channel=12, note=67, velocity=100, time=0),
    Message('note_off', channel=12, note=67, velocity=64, time=96),
    Message('note_on', channel=12, note=69, velocity=100, time=0),
    Message('note_off', channel=12, note=69, velocity=64, time=96),
    Message('note_on', channel=12, note=67, velocity=100, time=0),
    Message('note_off', channel=12, note=67, velocity=64, time=96),
    Message('note_on', channel=12, note=64, velocity=100, time=0),
    Message('note_off', channel=12, note=64, velocity=64, time=192),
    Message('note_on', channel=12, note=64, velocity=100, time=0),
    Message('note_off', channel=12, note=64, velocity=64, time=96),
    Message('note_on', channel=12, note=62, velocity=100, time=0),
    Message('note_off', channel=12, note=62, velocity=64, time=96),
    Message('note_on', channel=12, note=59, velocity=100, time=0),
    Message('note_off', channel=12, note=59, velocity=64, time=192),
    Message('note_on', channel=12, note=59, velocity=100, time=0),
    Message('note_off', channel=12, note=59, velocity=64, time=96),
    Message('note_on', channel=12, note=57, velocity=100, time=0),
    Message('note_off', channel=12, note=57, velocity=64, time=96),
    Message('note_on', channel=12, note=55, velocity=100, time=0),
    Message('note_off', channel=12, note=55, velocity=64, time=192),
    Message('note_on', channel=12, note=52, velocity=100, time=0),
    Message('control_change', channel=12, control=1, value=1, time=28),
    Message('control_change', channel=12, control=1, value=3, time=3),
    Message('control_change', channel=12, control=1, value=4, time=2),
    Message('control_change', channel=12, control=1, value=5, time=7),
    Message('control_change', channel=12, control=1, value=9, time=4),
    Message('control_change', channel=12, control=1, value=8, time=0),
    Message('control_change', channel=12, control=1, value=10, time=14),
    Message('control_change', channel=12, control=1, value=12, time=1),
    Message('control_change', channel=12, control=1, value=13, time=5),
    Message('control_change', channel=12, control=1, value=15, time=11),
    Message('control_change', channel=12, control=1, value=16, time=2),
    Message('control_change', channel=12, control=1, value=17, time=11),
    Message('control_change', channel=12, control=1, value=18, time=14),
    Message('control_change', channel=12, control=1, value=19, time=6),
    Message('control_change', channel=12, control=1, value=20, time=11),
    Message('control_change', channel=12, control=1, value=21, time=11),
    Message('control_change', channel=12, control=1, value=22, time=3),
    Message('control_change', channel=12, control=1, value=23, time=2),
    Message('control_change', channel=12, control=1, value=25, time=14),
    Message('control_change', channel=12, control=1, value=26, time=3),
    Message('control_change', channel=12, control=1, value=28, time=13),
    Message('control_change', channel=12, control=1, value=29, time=12),
    Message('control_change', channel=12, control=1, value=30, time=2),
    Message('control_change', channel=12, control=1, value=31, time=8),
    Message('note_off', channel=12, note=52, velocity=64, time=5),
    Message('note_on', channel=12, note=52, velocity=100, time=0),
    Message('control_change', channel=12, control=1, value=32, time=7),
    Message('control_change', channel=12, control=1, value=33, time=21),
    Message('control_change', channel=12, control=1, value=34, time=14),
    Message('control_change', channel=12, control=1, value=35, time=11),
    Message('control_change', channel=12, control=1, value=36, time=19),
    Message('control_change', channel=12, control=1, value=37, time=11),
    Message('control_change', channel=12, control=1, value=38, time=13),
    Message('control_change', channel=12, control=1, value=39, time=6),
    Message('control_change', channel=12, control=1, value=40, time=13),
    Message('control_change', channel=12, control=1, value=41, time=14),
    Message('control_change', channel=12, control=1, value=42, time=44),
    Message('note_off', channel=12, note=52, velocity=64, time=19),
    Message('control_change', channel=12, control=1, value=36, time=53),
    Message('control_change', channel=12, control=1, value=40, time=0),
    Message('control_change', channel=12, control=1, value=34, time=4),
    Message('control_change', channel=12, control=1, value=32, time=10),
    Message('control_change', channel=12, control=1, value=28, time=2),
    Message('control_change', channel=12, control=1, value=26, time=3),
    Message('control_change', channel=12, control=1, value=22, time=10),
    Message('control_change', channel=12, control=1, value=15, time=4),
    Message('control_change', channel=12, control=1, value=12, time=3),
    Message('note_on', channel=12, note=76, velocity=100, time=7),
    Message('control_change', channel=12, control=1, value=9, time=3),
    Message('control_change', channel=12, control=1, value=3, time=3),
    Message('control_change', channel=12, control=1, value=0, time=2),
    Message('note_off', channel=12, note=76, velocity=64, time=88),
    Message('note_on', channel=12, note=76, velocity=100, time=0),
    Message('note_off', channel=12, note=76, velocity=64, time=96),
    Message('note_on', channel=12, note=76, velocity=100, time=0),
    Message('note_off', channel=12, note=76, velocity=64, time=96),
    Message('note_on', channel=12, note=76, velocity=100, time=96),
    Message('note_off', channel=12, note=76, velocity=64, time=96),
    Message('note_on', channel=12, note=76, velocity=100, time=0),
    Message('note_off', channel=12, note=76, velocity=64, time=96),
    Message('note_on', channel=12, note=76, velocity=100, time=0),
    Message('note_off', channel=12, note=76, velocity=64, time=96),
    Message('note_on', channel=12, note=76, velocity=100, time=96),
    Message('note_off', channel=12, note=76, velocity=64, time=96),
    Message('note_on', channel=12, note=76, velocity=100, time=0),
    Message('note_off', channel=12, note=76, velocity=64, time=96),
    Message('note_on', channel=12, note=76, velocity=100, time=0),
    Message('note_off', channel=12, note=76, velocity=64, time=96),
    Message('note_on', channel=12, note=76, velocity=100, time=96),
    Message('note_off', channel=12, note=76, velocity=64, time=96),
    Message('note_on', channel=12, note=76, velocity=100, time=0),
    Message('note_off', channel=12, note=76, velocity=64, time=96),
    Message('note_on', channel=12, note=76, velocity=100, time=0),
    Message('note_off', channel=12, note=76, velocity=64, time=96),
    Message('note_on', channel=12, note=76, velocity=100, time=96),
    Message('note_off', channel=12, note=76, velocity=64, time=96),
    Message('note_on', channel=12, note=76, velocity=100, time=0),
    Message('note_off', channel=12, note=76, velocity=64, time=96),
    Message('note_on', channel=12, note=76, velocity=100, time=0),
    Message('note_off', channel=12, note=76, velocity=64, time=48),
    Message('note_on', channel=12, note=79, velocity=100, time=0),
    Message('note_off', channel=12, note=79, velocity=64, time=48),
    Message('note_on', channel=12, note=76, velocity=100, time=0),
    Message('note_off', channel=12, note=76, velocity=64, time=192),
    Message('note_on', channel=12, note=76, velocity=100, time=0),
    Message('note_off', channel=12, note=76, velocity=64, time=48),
    Message('note_on', channel=12, note=79, velocity=100, time=0),
    Message('note_off', channel=12, note=79, velocity=64, time=48),
    Message('note_on', channel=12, note=76, velocity=100, time=0),
    Message('note_off', channel=12, note=76, velocity=64, time=96),
    Message('note_on', channel=12, note=76, velocity=100, time=0),
    Message('note_off', channel=12, note=76, velocity=64, time=48),
    Message('note_on', channel=12, note=79, velocity=100, time=0),
    Message('note_off', channel=12, note=79, velocity=64, time=48),
    Message('note_on', channel=12, note=76, velocity=100, time=0),
    Message('note_off', channel=12, note=76, velocity=64, time=96),
    Message('note_on', channel=12, note=76, velocity=100, time=0),
    Message('note_off', channel=12, note=76, velocity=64, time=96),
    Message('note_on', channel=12, note=79, velocity=100, time=0),
    Message('note_off', channel=12, note=79, velocity=64, time=96),
    Message('note_on', channel=12, note=76, velocity=100, time=0),
    Message('note_off', channel=12, note=76, velocity=64, time=96),
    Message('note_on', channel=12, note=76, velocity=100, time=0),
    Message('note_off', channel=12, note=76, velocity=64, time=96),
    Message('note_on', channel=12, note=78, velocity=100, time=0),
    Message('note_off', channel=12, note=78, velocity=64, time=96),
    Message('note_on', channel=12, note=78, velocity=100, time=0),
    Message('note_off', channel=12, note=78, velocity=64, time=96),
    Message('note_on', channel=12, note=81, velocity=100, time=0),
    Message('note_off', channel=12, note=81, velocity=64, time=96),
    Message('note_on', channel=12, note=78, velocity=100, time=0),
    Message('note_off', channel=12, note=78, velocity=64, time=96),
    Message('note_on', channel=12, note=74, velocity=100, time=0),
    Message('note_off', channel=12, note=74, velocity=64, time=96),
    Message('note_on', channel=12, note=81, velocity=100, time=0),
    Message('note_off', channel=12, note=81, velocity=64, time=96),
    Message('note_on', channel=12, note=78, velocity=100, time=0),
    Message('note_off', channel=12, note=78, velocity=64, time=96),
    Message('note_on', channel=12, note=74, velocity=100, time=0),
    Message('note_off', channel=12, note=74, velocity=64, time=96),
    Message('note_on', channel=12, note=81, velocity=100, time=0),
    Message('note_off', channel=12, note=81, velocity=64, time=96),
    Message('note_on', channel=12, note=78, velocity=100, time=0),
    Message('note_off', channel=12, note=78, velocity=64, time=96),
    Message('note_on', channel=12, note=83, velocity=100, time=0),
    Message('note_off', channel=12, note=83, velocity=64, time=96),
    Message('note_on', channel=12, note=79, velocity=100, time=0),
    Message('note_off', channel=12, note=79, velocity=64, time=96),
    Message('note_on', channel=12, note=76, velocity=100, time=0),
    Message('note_off', channel=12, note=76, velocity=64, time=96),
    Message('note_on', channel=12, note=83, velocity=100, time=0),
    Message('note_off', channel=12, note=83, velocity=64, time=96),
    Message('note_on', channel=12, note=79, velocity=100, time=0),
    Message('note_off', channel=12, note=79, velocity=64, time=96),
    Message('note_on', channel=12, note=76, velocity=100, time=0),
    Message('note_off', channel=12, note=76, velocity=64, time=96),
    Message('note_on', channel=12, note=83, velocity=100, time=0),
    Message('note_off', channel=12, note=83, velocity=64, time=96),
    Message('note_on', channel=12, note=79, velocity=100, time=0),
    Message('note_off', channel=12, note=79, velocity=64, time=96),
    Message('note_on', channel=12, note=85, velocity=100, time=0),
    Message('note_off', channel=12, note=85, velocity=64, time=96),
    Message('note_on', channel=12, note=81, velocity=100, time=0),
    Message('note_off', channel=12, note=81, velocity=64, time=96),
    Message('note_on', channel=12, note=76, velocity=100, time=0),
    Message('note_off', channel=12, note=76, velocity=64, time=96),
    Message('note_on', channel=12, note=85, velocity=100, time=0),
    Message('note_off', channel=12, note=85, velocity=64, time=96),
    Message('note_on', channel=12, note=81, velocity=100, time=0),
    Message('note_off', channel=12, note=81, velocity=64, time=96),
    Message('note_on', channel=12, note=76, velocity=100, time=0),
    Message('note_off', channel=12, note=76, velocity=64, time=48),
    Message('note_on', channel=12, note=85, velocity=100, time=0),
    Message('note_off', channel=12, note=85, velocity=64, time=48),
    Message('note_on', channel=12, note=81, velocity=100, time=0),
    Message('note_off', channel=12, note=81, velocity=64, time=96),
    Message('note_on', channel=12, note=76, velocity=100, time=0),
    Message('note_off', channel=12, note=76, velocity=64, time=96),
    Message('note_on', channel=12, note=68, velocity=100, time=576),
    Message('note_off', channel=12, note=68, velocity=64, time=576),
    Message('note_on', channel=12, note=68, velocity=100, time=0),
    Message('note_off', channel=12, note=68, velocity=64, time=576),
    Message('note_on', channel=12, note=68, velocity=100, time=0),
    Message('note_off', channel=12, note=68, velocity=64, time=576),
    Message('note_on', channel=12, note=68, velocity=100, time=0),
    Message('note_off', channel=12, note=68, velocity=64, time=384),
    Message('note_on', channel=12, note=68, velocity=100, time=0),
    Message('note_off', channel=12, note=68, velocity=64, time=384),
    Message('note_on', channel=12, note=62, velocity=100, time=0),
    Message('note_off', channel=12, note=62, velocity=64, time=96),
    Message('note_on', channel=12, note=59, velocity=100, time=0),
    Message('note_off', channel=12, note=59, velocity=64, time=288),
    Message('note_on', channel=12, note=57, velocity=100, time=0),
    Message('note_off', channel=12, note=57, velocity=64, time=96),
    Message('note_on', channel=12, note=59, velocity=100, time=0),
    Message('note_off', channel=12, note=59, velocity=64, time=96),
    Message('note_on', channel=12, note=62, velocity=100, time=0),
    Message('note_off', channel=12, note=62, velocity=64, time=96),
    Message('note_on', channel=12, note=69, velocity=100, time=0),
    Message('note_off', channel=12, note=69, velocity=64, time=480),
    Message('note_on', channel=12, note=69, velocity=100, time=0),
    Message('note_off', channel=12, note=69, velocity=64, time=96),
    Message('note_on', channel=12, note=67, velocity=100, time=0),
    Message('note_off', channel=12, note=67, velocity=64, time=96),
    Message('note_on', channel=12, note=66, velocity=100, time=0),
    Message('note_off', channel=12, note=66, velocity=64, time=96),
    Message('note_on', channel=12, note=64, velocity=100, time=0),
    Message('note_off', channel=12, note=64, velocity=64, time=96),
    Message('note_on', channel=12, note=67, velocity=100, time=0),
    Message('note_off', channel=12, note=67, velocity=64, time=96),
    Message('note_on', channel=12, note=66, velocity=100, time=0),
    Message('note_off', channel=12, note=66, velocity=64, time=96),
    Message('note_on', channel=12, note=64, velocity=100, time=0),
    Message('note_off', channel=12, note=64, velocity=64, time=96),
    Message('note_on', channel=12, note=66, velocity=100, time=0),
    Message('note_off', channel=12, note=66, velocity=64, time=96),
    Message('note_on', channel=12, note=64, velocity=100, time=0),
    Message('note_off', channel=12, note=64, velocity=64, time=96),
    Message('note_on', channel=12, note=62, velocity=100, time=0),
    Message('note_off', channel=12, note=62, velocity=64, time=96),
    Message('note_on', channel=12, note=59, velocity=100, time=0),
    Message('note_off', channel=12, note=59, velocity=64, time=96),
    Message('note_on', channel=12, note=62, velocity=100, time=0),
    Message('note_off', channel=12, note=62, velocity=64, time=96),
    Message('note_on', channel=12, note=64, velocity=100, time=0),
    Message('note_off', channel=12, note=64, velocity=64, time=96),
    Message('note_on', channel=12, note=62, velocity=100, time=0),
    Message('note_off', channel=12, note=62, velocity=64, time=96),
    Message('note_on', channel=12, note=59, velocity=100, time=0),
    Message('note_off', channel=12, note=59, velocity=64, time=96),
    Message('note_on', channel=12, note=57, velocity=100, time=0),
    Message('note_off', channel=12, note=57, velocity=64, time=96),
    Message('note_on', channel=12, note=54, velocity=100, time=0),
    Message('note_off', channel=12, note=54, velocity=64, time=96),
    Message('note_on', channel=12, note=57, velocity=100, time=0),
    Message('note_off', channel=12, note=57, velocity=64, time=96),
    Message('note_on', channel=12, note=59, velocity=100, time=0),
    Message('note_off', channel=12, note=59, velocity=64, time=96),
    Message('note_on', channel=12, note=57, velocity=100, time=0),
    Message('note_off', channel=12, note=57, velocity=64, time=96),
    Message('note_on', channel=12, note=54, velocity=100, time=0),
    Message('note_off', channel=12, note=54, velocity=64, time=96),
    Message('note_on', channel=12, note=53, velocity=100, time=0),
    Message('note_off', channel=12, note=53, velocity=64, time=96),
    Message('note_on', channel=12, note=52, velocity=100, time=0),
    Message('note_off', channel=12, note=52, velocity=64, time=96),
    Message('note_on', channel=12, note=50, velocity=100, time=0),
    Message('note_off', channel=12, note=50, velocity=64, time=96),
    Message('note_on', channel=12, note=47, velocity=100, time=0),
    Message('note_off', channel=12, note=47, velocity=64, time=192),
    Message('note_on', channel=12, note=69, velocity=100, time=384),
    Message('note_off', channel=12, note=69, velocity=64, time=192),
    Message('note_on', channel=12, note=66, velocity=100, time=0),
    Message('note_off', channel=12, note=66, velocity=64, time=288),
    Message('note_on', channel=12, note=69, velocity=100, time=0),
    Message('note_off', channel=12, note=69, velocity=64, time=96),
    Message('note_on', channel=12, note=69, velocity=100, time=192),
    Message('note_off', channel=12, note=69, velocity=64, time=192),
    Message('note_on', channel=12, note=66, velocity=100, time=0),
    Message('control_change', channel=12, control=1, value=6, time=25),
    Message('control_change', channel=12, control=1, value=18, time=4),
    Message('control_change', channel=12, control=1, value=24, time=3),
    Message('control_change', channel=12, control=1, value=25, time=9),
    Message('control_change', channel=12, control=1, value=28, time=3),
    Message('control_change', channel=12, control=1, value=30, time=4),
    Message('control_change', channel=12, control=1, value=31, time=6),
    Message('control_change', channel=12, control=1, value=32, time=1),
    Message('control_change', channel=12, control=1, value=34, time=15),
    Message('control_change', channel=12, control=1, value=33, time=0),
    Message('control_change', channel=12, control=1, value=35, time=15),
    Message('control_change', channel=12, control=1, value=37, time=3),
    Message('control_change', channel=12, control=1, value=38, time=1),
    Message('control_change', channel=12, control=1, value=39, time=12),
    Message('control_change', channel=12, control=1, value=42, time=1),
    Message('control_change', channel=12, control=1, value=43, time=2),
    Message('control_change', channel=12, control=1, value=47, time=13),
    Message('control_change', channel=12, control=1, value=44, time=0),
    Message('control_change', channel=12, control=1, value=49, time=3),
    Message('control_change', channel=12, control=1, value=50, time=6),
    Message('control_change', channel=12, control=1, value=53, time=7),
    Message('control_change', channel=12, control=1, value=54, time=1),
    Message('control_change', channel=12, control=1, value=55, time=9),
    Message('control_change', channel=12, control=1, value=58, time=4),
    Message('control_change', channel=12, control=1, value=59, time=1),
    Message('control_change', channel=12, control=1, value=60, time=11),
    Message('control_change', channel=12, control=1, value=61, time=2),
    Message('control_change', channel=12, control=1, value=62, time=17),
    Message('note_off', channel=12, note=66, velocity=64, time=110),
    Message('note_on', channel=12, note=69, velocity=100, time=0),
    Message('control_change', channel=12, control=1, value=60, time=0),
    Message('control_change', channel=12, control=1, value=58, time=2),
    Message('control_change', channel=12, control=1, value=57, time=5),
    Message('control_change', channel=12, control=1, value=55, time=9),
    Message('control_change', channel=12, control=1, value=52, time=3),
    Message('control_change', channel=12, control=1, value=50, time=2),
    Message('control_change', channel=12, control=1, value=47, time=11),
    Message('control_change', channel=12, control=1, value=41, time=2),
    Message('control_change', channel=12, control=1, value=38, time=4),
    Message('control_change', channel=12, control=1, value=34, time=10),
    Message('control_change', channel=12, control=1, value=25, time=3),
    Message('control_change', channel=12, control=1, value=20, time=3),
    Message('control_change', channel=12, control=1, value=5, time=9),
    Message('control_change', channel=12, control=1, value=15, time=0),
    Message('control_change', channel=12, control=1, value=0, time=5),
    Message('note_off', channel=12, note=69, velocity=64, time=28),
    Message('note_on', channel=12, note=69, velocity=100, time=192),
    Message('note_off', channel=12, note=69, velocity=64, time=192),
    Message('note_on', channel=12, note=66, velocity=100, time=0),
    Message('note_off', channel=12, note=66, velocity=64, time=288),
    Message('note_on', channel=12, note=69, velocity=100, time=0),
    Message('note_off', channel=12, note=69, velocity=64, time=96),
    Message('note_on', channel=12, note=69, velocity=100, time=192),
    Message('note_off', channel=12, note=69, velocity=64, time=192),
    Message('note_on', channel=12, note=66, velocity=100, time=0),
    Message('note_off', channel=12, note=66, velocity=64, time=192),
    Message('note_on', channel=12, note=66, velocity=100, time=0),
    Message('note_off', channel=12, note=66, velocity=64, time=96),
    Message('note_on', channel=12, note=69, velocity=100, time=0),
    Message('note_off', channel=12, note=69, velocity=64, time=96),
    Message('note_on', channel=12, note=76, velocity=100, time=192),
    Message('note_off', channel=12, note=76, velocity=64, time=96),
    Message('note_on', channel=12, note=76, velocity=100, time=192),
    Message('note_off', channel=12, note=76, velocity=64, time=96),
    Message('note_on', channel=12, note=76, velocity=100, time=576),
    Message('note_off', channel=12, note=76, velocity=64, time=192),
    Message('control_change', channel=12, control=1, value=16, time=192),
    Message('control_change', channel=12, control=1, value=5, time=0),
    Message('control_change', channel=12, control=1, value=21, time=8),
    Message('control_change', channel=12, control=1, value=34, time=8),
    Message('control_change', channel=12, control=1, value=25, time=0),
    Message('control_change', channel=12, control=1, value=38, time=8),
    Message('control_change', channel=12, control=1, value=42, time=4),
    Message('control_change', channel=12, control=1, value=49, time=5),
    Message('control_change', channel=12, control=1, value=53, time=2),
    Message('control_change', channel=12, control=1, value=56, time=9),
    Message('control_change', channel=12, control=1, value=63, time=1),
    Message('control_change', channel=12, control=1, value=66, time=4),
    Message('control_change', channel=12, control=1, value=69, time=9),
    Message('control_change', channel=12, control=1, value=74, time=3),
    Message('control_change', channel=12, control=1, value=76, time=4),
    Message('control_change', channel=12, control=1, value=79, time=9),
    Message('control_change', channel=12, control=1, value=83, time=2),
    Message('control_change', channel=12, control=1, value=86, time=4),
    Message('control_change', channel=12, control=1, value=88, time=7),
    Message('control_change', channel=12, control=1, value=93, time=4),
    Message('control_change', channel=12, control=1, value=95, time=2),
    Message('control_change', channel=12, control=1, value=97, time=11),
    Message('control_change', channel=12, control=1, value=101, time=3),
    Message('control_change', channel=12, control=1, value=103, time=3),
    Message('control_change', channel=12, control=1, value=105, time=8),
    Message('control_change', channel=12, control=1, value=109, time=3),
    Message('control_change', channel=12, control=1, value=111, time=5),
    Message('control_change', channel=12, control=1, value=113, time=8),
    Message('control_change', channel=12, control=1, value=116, time=2),
    Message('control_change', channel=12, control=1, value=118, time=4),
    Message('control_change', channel=12, control=1, value=120, time=10),
    Message('control_change', channel=12, control=1, value=124, time=3),
    Message('control_change', channel=12, control=1, value=125, time=1),
    Message('control_change', channel=12, control=1, value=126, time=10),
    Message('control_change', channel=12, control=1, value=127, time=5),
    Message('control_change', channel=12, control=1, value=126, time=1102),
    Message('control_change', channel=12, control=1, value=125, time=12),
    Message('control_change', channel=12, control=1, value=122, time=3),
    Message('control_change', channel=12, control=1, value=121, time=4),
    Message('control_change', channel=12, control=1, value=120, time=4),
    Message('control_change', channel=12, control=1, value=118, time=5),
    Message('control_change', channel=12, control=1, value=117, time=3),
    Message('control_change', channel=12, control=1, value=125, time=70),
    Message('control_change', channel=12, control=1, value=119, time=0),
    Message('control_change', channel=12, control=1, value=127, time=4),
    Message('control_change', channel=12, control=1, value=126, time=44),
    Message('control_change', channel=12, control=1, value=124, time=13),
    Message('control_change', channel=12, control=1, value=119, time=3),
    Message('control_change', channel=12, control=1, value=117, time=1),
    Message('control_change', channel=12, control=1, value=113, time=8),
    Message('control_change', channel=12, control=1, value=101, time=4),
    Message('control_change', channel=12, control=1, value=105, time=0),
    Message('control_change', channel=12, control=1, value=96, time=12),
    Message('control_change', channel=12, control=1, value=85, time=3),
    Message('control_change', channel=12, control=1, value=80, time=1),
    Message('control_change', channel=12, control=1, value=72, time=9),
    Message('control_change', channel=12, control=1, value=57, time=6),
    Message('control_change', channel=12, control=1, value=50, time=1),
    Message('control_change', channel=12, control=1, value=41, time=10),
    Message('control_change', channel=12, control=1, value=22, time=3),
    Message('control_change', channel=12, control=1, value=13, time=3),
    Message('control_change', channel=12, control=1, value=9, time=10),
    Message('control_change', channel=12, control=1, value=3, time=1),
    Message('control_change', channel=12, control=1, value=0, time=5),
    Message('note_on', channel=12, note=85, velocity=100, time=23),
    Message('note_off', channel=12, note=85, velocity=64, time=96),
    Message('note_on', channel=12, note=81, velocity=100, time=0),
    Message('note_off', channel=12, note=81, velocity=64, time=96),
    Message('note_on', channel=12, note=76, velocity=100, time=0),
    Message('note_off', channel=12, note=76, velocity=64, time=96),
    Message('note_on', channel=12, note=85, velocity=100, time=0),
    Message('note_off', channel=12, note=85, velocity=64, time=96),
    Message('note_on', channel=12, note=81, velocity=100, time=0),
    Message('note_off', channel=12, note=81, velocity=64, time=96),
    Message('note_on', channel=12, note=76, velocity=100, time=0),
    Message('note_off', channel=12, note=76, velocity=64, time=96),
    Message('note_on', channel=12, note=85, velocity=100, time=0),
    Message('note_off', channel=12, note=85, velocity=64, time=48),
    Message('note_on', channel=12, note=81, velocity=100, time=0),
    Message('note_off', channel=12, note=81, velocity=64, time=48),
    Message('note_on', channel=12, note=76, velocity=100, time=0),
    Message('note_off', channel=12, note=76, velocity=64, time=96),
    Message('note_on', channel=12, note=85, velocity=100, time=0),
    Message('note_off', channel=12, note=85, velocity=64, time=96),
    Message('note_on', channel=12, note=81, velocity=100, time=0),
    Message('note_off', channel=12, note=81, velocity=64, time=96),
    Message('note_on', channel=12, note=76, velocity=100, time=0),
    Message('note_off', channel=12, note=76, velocity=64, time=96),
    Message('note_on', channel=12, note=85, velocity=100, time=0),
    Message('note_off', channel=12, note=85, velocity=64, time=96),
    Message('note_on', channel=12, note=81, velocity=100, time=0),
    Message('note_off', channel=12, note=81, velocity=64, time=96),
    Message('note_on', channel=12, note=76, velocity=100, time=0),
    Message('note_off', channel=12, note=76, velocity=64, time=96),
    Message('note_on', channel=12, note=85, velocity=100, time=0),
    Message('note_off', channel=12, note=85, velocity=64, time=48),
    Message('note_on', channel=12, note=81, velocity=100, time=0),
    Message('note_off', channel=12, note=81, velocity=64, time=48),
    Message('note_on', channel=12, note=76, velocity=100, time=0),
    Message('note_off', channel=12, note=76, velocity=64, time=96),
    Message('note_on', channel=12, note=86, velocity=100, time=192),
    Message('note_off', channel=12, note=86, velocity=64, time=96),
    Message('note_on', channel=12, note=86, velocity=100, time=0),
    Message('note_off', channel=12, note=86, velocity=64, time=96),
    Message('note_on', channel=12, note=86, velocity=100, time=192),
    Message('note_off', channel=12, note=86, velocity=64, time=96),
    Message('note_on', channel=12, note=86, velocity=100, time=0),
    Message('note_off', channel=12, note=86, velocity=64, time=96),
    Message('note_on', channel=12, note=69, velocity=100, time=960),
    Message('note_off', channel=12, note=69, velocity=64, time=64),
    Message('note_on', channel=12, note=67, velocity=100, time=0),
    Message('note_off', channel=12, note=67, velocity=64, time=64),
    Message('note_on', channel=12, note=66, velocity=100, time=0),
    Message('note_off', channel=12, note=66, velocity=64, time=64),
    Message('note_on', channel=12, note=64, velocity=100, time=0),
    Message('note_off', channel=12, note=64, velocity=64, time=192),
    Message('note_on', channel=12, note=64, velocity=100, time=0),
    Message('note_off', channel=12, note=64, velocity=64, time=96),
    Message('note_on', channel=12, note=62, velocity=100, time=0),
    Message('note_off', channel=12, note=62, velocity=64, time=96),
    Message('note_on', channel=12, note=59, velocity=100, time=0),
    Message('note_off', channel=12, note=59, velocity=64, time=192),
    Message('note_on', channel=12, note=59, velocity=100, time=0),
    Message('note_off', channel=12, note=59, velocity=64, time=96),
    Message('note_on', channel=12, note=57, velocity=100, time=0),
    Message('note_off', channel=12, note=57, velocity=64, time=96),
    Message('note_on', channel=12, note=55, velocity=100, time=0),
    Message('note_off', channel=12, note=55, velocity=64, time=192),
    Message('note_on', channel=12, note=55, velocity=100, time=192),
    Message('note_off', channel=12, note=55, velocity=64, time=96),
    Message('note_on', channel=12, note=52, velocity=100, time=0),
    Message('control_change', channel=12, control=1, value=1, time=184),
    Message('control_change', channel=12, control=1, value=7, time=6),
    Message('control_change', channel=12, control=1, value=5, time=0),
    Message('control_change', channel=12, control=1, value=10, time=11),
    Message('control_change', channel=12, control=1, value=15, time=3),
    Message('control_change', channel=12, control=1, value=17, time=3),
    Message('control_change', channel=12, control=1, value=20, time=10),
    Message('control_change', channel=12, control=1, value=26, time=3),
    Message('control_change', channel=12, control=1, value=28, time=3),
    Message('control_change', channel=12, control=1, value=31, time=9),
    Message('control_change', channel=12, control=1, value=36, time=1),
    Message('control_change', channel=12, control=1, value=38, time=2),
    Message('control_change', channel=12, control=1, value=40, time=10),
    Message('control_change', channel=12, control=1, value=43, time=1),
    Message('control_change', channel=12, control=1, value=45, time=2),
    Message('control_change', channel=12, control=1, value=46, time=11),
    Message('control_change', channel=12, control=1, value=49, time=2),
    Message('control_change', channel=12, control=1, value=51, time=5),
    Message('control_change', channel=12, control=1, value=52, time=9),
    Message('control_change', channel=12, control=1, value=54, time=3),
    Message('control_change', channel=12, control=1, value=53, time=0),
    Message('control_change', channel=12, control=1, value=55, time=16),
    Message('control_change', channel=12, control=1, value=56, time=3),
    Message('control_change', channel=12, control=1, value=57, time=13),
    Message('control_change', channel=12, control=1, value=58, time=9),
    Message('control_change', channel=12, control=1, value=60, time=3),
    Message('control_change', channel=12, control=1, value=62, time=13),
    Message('control_change', channel=12, control=1, value=64, time=1),
    Message('control_change', channel=12, control=1, value=65, time=5),
    Message('control_change', channel=12, control=1, value=66, time=8),
    Message('control_change', channel=12, control=1, value=69, time=5),
    Message('control_change', channel=12, control=1, value=70, time=1),
    Message('control_change', channel=12, control=1, value=72, time=10),
    Message('control_change', channel=12, control=1, value=76, time=3),
    Message('control_change', channel=12, control=1, value=77, time=1),
    Message('control_change', channel=12, control=1, value=79, time=10),
    Message('control_change', channel=12, control=1, value=83, time=2),
    Message('control_change', channel=12, control=1, value=85, time=6),
    Message('control_change', channel=12, control=1, value=86, time=5),
    Message('control_change', channel=12, control=1, value=88, time=4),
    Message('control_change', channel=12, control=1, value=90, time=3),
    Message('control_change', channel=12, control=1, value=91, time=10),
    Message('control_change', channel=12, control=1, value=92, time=3),
    Message('control_change', channel=12, control=1, value=93, time=3),
    Message('control_change', channel=12, control=1, value=94, time=13),
    Message('control_change', channel=12, control=1, value=93, time=53),
    Message('control_change', channel=12, control=1, value=90, time=5),
    Message('control_change', channel=12, control=1, value=88, time=2),
    Message('control_change', channel=12, control=1, value=87, time=42),
    Message('control_change', channel=12, control=1, value=85, time=2),
    Message('control_change', channel=12, control=1, value=84, time=4),
    Message('control_change', channel=12, control=1, value=85, time=81),
    Message('control_change', channel=12, control=1, value=87, time=3),
    Message('control_change', channel=12, control=1, value=88, time=3),
    Message('control_change', channel=12, control=1, value=89, time=13),
    Message('control_change', channel=12, control=1, value=90, time=29),
    Message('note_off', channel=12, note=52, velocity=64, time=583),
    Message('note_on', channel=12, note=50, velocity=100, time=0),
    Message('note_off', channel=12, note=50, velocity=64, time=96),
    Message('note_on', channel=12, note=52, velocity=100, time=0),
    Message('note_off', channel=12, note=52, velocity=64, time=96),
    Message('note_on', channel=12, note=49, velocity=100, time=0),
    Message('control_change', channel=12, control=1, value=91, time=1028),
    Message('control_change', channel=12, control=1, value=92, time=161),
    Message('note_off', channel=12, note=49, velocity=64, time=155),
    Message('note_on', channel=12, note=45, velocity=100, time=0),
    Message('note_off', channel=12, note=45, velocity=64, time=192),
    Message('note_on', channel=12, note=47, velocity=100, time=0),
    Message('control_change', channel=12, control=1, value=87, time=97),
    Message('control_change', channel=12, control=1, value=90, time=0),
    Message('control_change', channel=12, control=1, value=86, time=4),
    Message('control_change', channel=12, control=1, value=89, time=70),
    Message('control_change', channel=12, control=1, value=95, time=3),
    Message('control_change', channel=12, control=1, value=98, time=3),
    Message('control_change', channel=12, control=1, value=99, time=9),
    Message('control_change', channel=12, control=1, value=102, time=4),
    Message('control_change', channel=12, control=1, value=103, time=3),
    Message('control_change', channel=12, control=1, value=105, time=8),
    Message('control_change', channel=12, control=1, value=108, time=4),
    Message('control_change', channel=12, control=1, value=110, time=1),
    Message('control_change', channel=12, control=1, value=111, time=12),
    Message('control_change', channel=12, control=1, value=114, time=1),
    Message('control_change', channel=12, control=1, value=116, time=1),
    Message('control_change', channel=12, control=1, value=117, time=12),
    Message('control_change', channel=12, control=1, value=120, time=2),
    Message('control_change', channel=12, control=1, value=121, time=4),
    Message('control_change', channel=12, control=1, value=123, time=5),
    Message('control_change', channel=12, control=1, value=125, time=5),
    Message('control_change', channel=12, control=1, value=126, time=3),
    Message('control_change', channel=12, control=1, value=127, time=13),
    Message('control_change', channel=12, control=1, value=126, time=2588),
    Message('control_change', channel=12, control=1, value=125, time=1),
    Message('control_change', channel=12, control=1, value=124, time=27),
    Message('control_change', channel=12, control=1, value=121, time=4),
    Message('control_change', channel=12, control=1, value=120, time=3),
    Message('control_change', channel=12, control=1, value=119, time=25),
    Message('control_change', channel=12, control=1, value=118, time=27),
    Message('control_change', channel=12, control=1, value=116, time=3),
    Message('control_change', channel=12, control=1, value=115, time=4),
    Message('control_change', channel=12, control=1, value=114, time=38),
    Message('control_change', channel=12, control=1, value=111, time=5),
    Message('control_change', channel=12, control=1, value=110, time=3),
    Message('control_change', channel=12, control=1, value=109, time=6),
    Message('control_change', channel=12, control=1, value=106, time=3),
    Message('control_change', channel=12, control=1, value=104, time=4),
    Message('control_change', channel=12, control=1, value=102, time=9),
    Message('control_change', channel=12, control=1, value=98, time=2),
    Message('control_change', channel=12, control=1, value=96, time=4),
    Message('control_change', channel=12, control=1, value=93, time=8),
    Message('control_change', channel=12, control=1, value=88, time=5),
    Message('control_change', channel=12, control=1, value=86, time=1),
    Message('control_change', channel=12, control=1, value=77, time=12),
    Message('control_change', channel=12, control=1, value=83, time=0),
    Message('control_change', channel=12, control=1, value=74, time=2),
    Message('control_change', channel=12, control=1, value=71, time=11),
    Message('control_change', channel=12, control=1, value=64, time=1),
    Message('control_change', channel=12, control=1, value=61, time=4),
    Message('control_change', channel=12, control=1, value=58, time=9),
    Message('control_change', channel=12, control=1, value=50, time=1),
    Message('control_change', channel=12, control=1, value=46, time=5),
    Message('control_change', channel=12, control=1, value=42, time=9),
    Message('control_change', channel=12, control=1, value=34, time=3),
    Message('control_change', channel=12, control=1, value=30, time=3),
    Message('control_change', channel=12, control=1, value=26, time=10),
    Message('control_change', channel=12, control=1, value=19, time=3),
    Message('control_change', channel=12, control=1, value=15, time=3),
    Message('control_change', channel=12, control=1, value=11, time=10),
    Message('control_change', channel=12, control=1, value=4, time=3),
    Message('control_change', channel=12, control=1, value=0, time=3),
    Message('note_off', channel=12, note=47, velocity=64, time=1482),
    Message('note_on', channel=12, note=40, velocity=100, time=0),
    Message('note_off', channel=12, note=40, velocity=64, time=960),
    Message('note_on', channel=12, note=59, velocity=100, time=0),
    Message('note_off', channel=12, note=59, velocity=64, time=576),
    Message('control_change', channel=12, control=7, value=127, time=73728),
    Message('program_change', channel=12, program=29, time=0),
    Message('note_on', channel=12, note=67, velocity=100, time=960),
    Message('note_off', channel=12, note=67, velocity=64, time=192),
    Message('note_on', channel=12, note=66, velocity=100, time=0),
    Message('note_off', channel=12, note=66, velocity=64, time=64),
    Message('note_on', channel=12, note=67, velocity=100, time=0),
    Message('note_off', channel=12, note=67, velocity=64, time=64),
    Message('note_on', channel=12, note=66, velocity=100, time=0),
    Message('note_off', channel=12, note=66, velocity=64, time=64),
    Message('note_on', channel=12, note=62, velocity=100, time=0),
    Message('note_off', channel=12, note=62, velocity=64, time=192),
    Message('note_on', channel=12, note=62, velocity=100, time=0),
    Message('note_off', channel=12, note=62, velocity=64, time=64),
    Message('note_on', channel=12, note=64, velocity=100, time=0),
    Message('note_off', channel=12, note=64, velocity=64, time=64),
    Message('note_on', channel=12, note=62, velocity=100, time=0),
    Message('note_off', channel=12, note=62, velocity=64, time=64),
    Message('note_on', channel=12, note=59, velocity=100, time=0),
    Message('note_off', channel=12, note=59, velocity=64, time=192),
    Message('note_on', channel=12, note=57, velocity=100, time=0),
    Message('note_off', channel=12, note=57, velocity=64, time=192),
    Message('note_on', channel=12, note=54, velocity=100, time=0),
    Message('note_off', channel=12, note=54, velocity=64, time=192),
    Message('note_on', channel=12, note=57, velocity=100, time=0),
    Message('note_off', channel=12, note=57, velocity=64, time=192),
    Message('note_on', channel=12, note=62, velocity=100, time=0),
    Message('note_off', channel=12, note=62, velocity=64, time=191),
    Message('note_on', channel=12, note=64, velocity=100, time=193),
    Message('note_on', channel=12, note=59, velocity=100, time=0),
    Message('note_off', channel=12, note=59, velocity=64, time=2496),
    Message('note_off', channel=12, note=64, velocity=64, time=0),
    MetaMessage('end_of_track', time=768)]),
  MidiTrack([
    MetaMessage('track_name', name='', time=0),
    Message('control_change', channel=13, control=7, value=90, time=0),
    Message('program_change', channel=13, program=29, time=0),
    Message('control_change', channel=13, control=7, value=90, time=98304),
    Message('program_change', channel=13, program=29, time=0),
    Message('note_on', channel=13, note=73, velocity=100, time=2880),
    Message('note_on', channel=13, note=69, velocity=100, time=0),
    Message('pitchwheel', channel=13, pitch=10, time=359),
    Message('pitchwheel', channel=13, pitch=31, time=3),
    Message('pitchwheel', channel=13, pitch=42, time=3),
    Message('pitchwheel', channel=13, pitch=164, time=10),
    Message('pitchwheel', channel=13, pitch=82, time=0),
    Message('pitchwheel', channel=13, pitch=205, time=4),
    Message('pitchwheel', channel=13, pitch=225, time=11),
    Message('pitchwheel', channel=13, pitch=267, time=5),
    Message('pitchwheel', channel=13, pitch=288, time=5),
    Message('pitchwheel', channel=13, pitch=319, time=8),
    Message('pitchwheel', channel=13, pitch=381, time=4),
    Message('pitchwheel', channel=13, pitch=413, time=4),
    Message('pitchwheel', channel=13, pitch=445, time=7),
    Message('pitchwheel', channel=13, pitch=511, time=4),
    Message('pitchwheel', channel=13, pitch=544, time=4),
    Message('pitchwheel', channel=13, pitch=564, time=10),
    Message('pitchwheel', channel=13, pitch=604, time=1),
    Message('pitchwheel', channel=13, pitch=624, time=5),
    Message('pitchwheel', channel=13, pitch=675, time=9),
    Message('pitchwheel', channel=13, pitch=641, time=0),
    Message('pitchwheel', channel=13, pitch=692, time=5),
    Message('pitchwheel', channel=13, pitch=707, time=8),
    Message('pitchwheel', channel=13, pitch=739, time=5),
    Message('pitchwheel', channel=13, pitch=755, time=3),
    Message('pitchwheel', channel=13, pitch=776, time=6),
    Message('pitchwheel', channel=13, pitch=818, time=3),
    Message('pitchwheel', channel=13, pitch=840, time=4),
    Message('pitchwheel', channel=13, pitch=846, time=9),
    Message('pitchwheel', channel=13, pitch=858, time=3),
    Message('pitchwheel', channel=13, pitch=865, time=3),
    Message('pitchwheel', channel=13, pitch=882, time=10),
    Message('pitchwheel', channel=13, pitch=917, time=3),
    Message('pitchwheel', channel=13, pitch=935, time=3),
    Message('pitchwheel', channel=13, pitch=950, time=9),
    Message('pitchwheel', channel=13, pitch=980, time=2),
    Message('pitchwheel', channel=13, pitch=996, time=2),
    Message('pitchwheel', channel=13, pitch=1019, time=11),
    Message('pitchwheel', channel=13, pitch=1065, time=1),
    Message('pitchwheel', channel=13, pitch=1088, time=2),
    Message('pitchwheel', channel=13, pitch=1115, time=8),
    Message('pitchwheel', channel=13, pitch=1169, time=6),
    Message('pitchwheel', channel=13, pitch=1196, time=2),
    Message('pitchwheel', channel=13, pitch=1233, time=9),
    Message('pitchwheel', channel=13, pitch=1307, time=5),
    Message('pitchwheel', channel=13, pitch=1344, time=6),
    Message('pitchwheel', channel=13, pitch=1391, time=11),
    Message('pitchwheel', channel=13, pitch=1485, time=5),
    Message('pitchwheel', channel=13, pitch=1533, time=2),
    Message('pitchwheel', channel=13, pitch=1811, time=12),
    Message('pitchwheel', channel=13, pitch=1625, time=0),
    Message('pitchwheel', channel=13, pitch=1904, time=2),
    Message('pitchwheel', channel=13, pitch=2058, time=15),
    Message('pitchwheel', channel=13, pitch=2110, time=7),
    Message('pitchwheel', channel=13, pitch=2157, time=4),
    Message('pitchwheel', channel=13, pitch=2251, time=2),
    Message('pitchwheel', channel=13, pitch=2298, time=3),
    Message('pitchwheel', channel=13, pitch=2328, time=9),
    Message('pitchwheel', channel=13, pitch=2388, time=4),
    Message('pitchwheel', channel=13, pitch=2418, time=3),
    Message('pitchwheel', channel=13, pitch=2445, time=8),
    Message('pitchwheel', channel=13, pitch=2499, time=4),
    Message('pitchwheel', channel=13, pitch=2526, time=3),
    Message('pitchwheel', channel=13, pitch=2548, time=10),
    Message('pitchwheel', channel=13, pitch=2593, time=1),
    Message('pitchwheel', channel=13, pitch=2616, time=5),
    Message('pitchwheel', channel=13, pitch=2642, time=7),
    Message('pitchwheel', channel=13, pitch=2695, time=1),
    Message('pitchwheel', channel=13, pitch=2722, time=6),
    Message('pitchwheel', channel=13, pitch=2749, time=5),
    Message('pitchwheel', channel=13, pitch=2804, time=5),
    Message('pitchwheel', channel=13, pitch=2832, time=3),
    Message('pitchwheel', channel=13, pitch=2869, time=8),
    Message('pitchwheel', channel=13, pitch=2943, time=5),
    Message('pitchwheel', channel=13, pitch=2980, time=3),
    Message('pitchwheel', channel=13, pitch=3027, time=9),
    Message('pitchwheel', channel=13, pitch=3121, time=2),
    Message('pitchwheel', channel=13, pitch=3168, time=4),
    Message('pitchwheel', channel=13, pitch=3224, time=10),
    Message('pitchwheel', channel=13, pitch=3336, time=3),
    Message('pitchwheel', channel=13, pitch=3392, time=2),
    Message('pitchwheel', channel=13, pitch=3435, time=12),
    Message('pitchwheel', channel=13, pitch=3567, time=5),
    Message('pitchwheel', channel=13, pitch=3614, time=5),
    Message('pitchwheel', channel=13, pitch=3708, time=3),
    Message('pitchwheel', channel=13, pitch=3756, time=1),
    Message('pitchwheel', channel=13, pitch=3798, time=13),
    Message('pitchwheel', channel=13, pitch=3882, time=1),
    Message('pitchwheel', channel=13, pitch=3924, time=5),
    Message('pitchwheel', channel=13, pitch=3964, time=8),
    Message('pitchwheel', channel=13, pitch=4087, time=6),
    Message('pitchwheel', channel=13, pitch=4123, time=10),
    Message('pitchwheel', channel=13, pitch=4195, time=3),
    Message('pitchwheel', channel=13, pitch=4232, time=3),
    Message('pitchwheel', channel=13, pitch=4271, time=10),
    Message('pitchwheel', channel=13, pitch=4350, time=3),
    Message('pitchwheel', channel=13, pitch=4390, time=3),
    Message('pitchwheel', channel=13, pitch=4427, time=6),
    Message('pitchwheel', channel=13, pitch=4501, time=3),
    Message('pitchwheel', channel=13, pitch=4538, time=2),
    Message('pitchwheel', channel=13, pitch=4594, time=11),
    Message('pitchwheel', channel=13, pitch=4706, time=3),
    Message('pitchwheel', channel=13, pitch=4762, time=3),
    Message('pitchwheel', channel=13, pitch=4814, time=7),
    Message('pitchwheel', channel=13, pitch=4970, time=7),
    Message('pitchwheel', channel=13, pitch=4918, time=0),
    Message('pitchwheel', channel=13, pitch=5117, time=12),
    Message('pitchwheel', channel=13, pitch=5019, time=0),
    Message('pitchwheel', channel=13, pitch=5166, time=1),
    Message('pitchwheel', channel=13, pitch=5201, time=13),
    Message('pitchwheel', channel=13, pitch=5273, time=1),
    Message('pitchwheel', channel=13, pitch=5309, time=7),
    Message('pitchwheel', channel=13, pitch=5354, time=4),
    Message('pitchwheel', channel=13, pitch=5446, time=3),
    Message('pitchwheel', channel=13, pitch=5492, time=4),
    Message('pitchwheel', channel=13, pitch=5529, time=9),
    Message('pitchwheel', channel=13, pitch=5603, time=3),
    Message('pitchwheel', channel=13, pitch=5640, time=2),
    Message('pitchwheel', channel=13, pitch=5683, time=16),
    Message('pitchwheel', channel=13, pitch=5769, time=6),
    Message('pitchwheel', channel=13, pitch=5813, time=4),
    Message('pitchwheel', channel=13, pitch=5905, time=7),
    Message('pitchwheel', channel=13, pitch=6091, time=4),
    Message('pitchwheel', channel=13, pitch=6184, time=4),
    Message('pitchwheel', channel=13, pitch=6244, time=8),
    Message('pitchwheel', channel=13, pitch=6364, time=3),
    Message('pitchwheel', channel=13, pitch=6425, time=4),
    Message('pitchwheel', channel=13, pitch=6502, time=7),
    Message('pitchwheel', channel=13, pitch=6658, time=4),
    Message('pitchwheel', channel=13, pitch=6736, time=5),
    Message('pitchwheel', channel=13, pitch=6958, time=6),
    Message('pitchwheel', channel=13, pitch=6810, time=0),
    Message('pitchwheel', channel=13, pitch=7032, time=7),
    Message('pitchwheel', channel=13, pitch=7125, time=8),
    Message('pitchwheel', channel=13, pitch=7311, time=3),
    Message('pitchwheel', channel=13, pitch=7404, time=4),
    Message('pitchwheel', channel=13, pitch=7454, time=10),
    Message('pitchwheel', channel=13, pitch=7556, time=3),
    Message('pitchwheel', channel=13, pitch=7607, time=1),
    Message('pitchwheel', channel=13, pitch=7677, time=9),
    Message('pitchwheel', channel=13, pitch=7819, time=3),
    Message('pitchwheel', channel=13, pitch=7890, time=4),
    Message('pitchwheel', channel=13, pitch=7965, time=7),
    Message('pitchwheel', channel=13, pitch=8115, time=1),
    Message('pitchwheel', channel=13, pitch=8191, time=5),
    Message('note_off', channel=13, note=69, velocity=64, time=434),
    Message('note_off', channel=13, note=73, velocity=64, time=0),
    Message('pitchwheel', channel=13, pitch=7880, time=532),
    Message('pitchwheel', channel=13, pitch=7258, time=2),
    Message('pitchwheel', channel=13, pitch=6947, time=3),
    Message('pitchwheel', channel=13, pitch=6658, time=10),
    Message('pitchwheel', channel=13, pitch=6081, time=3),
    Message('pitchwheel', channel=13, pitch=5793, time=1),
    Message('pitchwheel', channel=13, pitch=5496, time=8),
    Message('pitchwheel', channel=13, pitch=4902, time=2),
    Message('pitchwheel', channel=13, pitch=4606, time=2),
    Message('pitchwheel', channel=13, pitch=4339, time=12),
    Message('pitchwheel', channel=13, pitch=3806, time=2),
    Message('pitchwheel', channel=13, pitch=3540, time=9),
    Message('pitchwheel', channel=13, pitch=2704, time=5),
    Message('pitchwheel', channel=13, pitch=2426, time=6),
    Message('pitchwheel', channel=13, pitch=1754, time=8),
    Message('pitchwheel', channel=13, pitch=2202, time=0),
    Message('pitchwheel', channel=13, pitch=1530, time=6),
    Message('pitchwheel', channel=13, pitch=1340, time=8),
    Message('pitchwheel', channel=13, pitch=960, time=5),
    Message('pitchwheel', channel=13, pitch=770, time=2),
    Message('pitchwheel', channel=13, pitch=246, time=11),
    Message('pitchwheel', channel=13, pitch=72, time=3),
    Message('pitchwheel', channel=13, pitch=54, time=9),
    Message('pitchwheel', channel=13, pitch=18, time=1),
    Message('pitchwheel', channel=13, pitch=0, time=5),
    Message('control_change', channel=13, control=7, value=90, time=30257),
    Message('program_change', channel=13, program=29, time=0),
    Message('note_on', channel=13, note=69, velocity=100, time=768),
    Message('pitchwheel', channel=13, pitch=17, time=92),
    Message('pitchwheel', channel=13, pitch=52, time=1),
    Message('pitchwheel', channel=13, pitch=70, time=1),
    Message('pitchwheel', channel=13, pitch=118, time=3),
    Message('pitchwheel', channel=13, pitch=216, time=1),
    Message('pitchwheel', channel=13, pitch=265, time=1),
    Message('pitchwheel', channel=13, pitch=334, time=3),
    Message('pitchwheel', channel=13, pitch=472, time=2),
    Message('pitchwheel', channel=13, pitch=541, time=1),
    Message('pitchwheel', channel=13, pitch=571, time=3),
    Message('pitchwheel', channel=13, pitch=631, time=1),
    Message('pitchwheel', channel=13, pitch=662, time=1),
    Message('pitchwheel', channel=13, pitch=785, time=4),
    Message('pitchwheel', channel=13, pitch=703, time=0),
    Message('pitchwheel', channel=13, pitch=827, time=2),
    Message('pitchwheel', channel=13, pitch=879, time=3),
    Message('pitchwheel', channel=13, pitch=985, time=1),
    Message('pitchwheel', channel=13, pitch=1038, time=1),
    Message('pitchwheel', channel=13, pitch=1078, time=3),
    Message('pitchwheel', channel=13, pitch=1199, time=1),
    Message('pitchwheel', channel=13, pitch=1158, time=0),
    Message('pitchwheel', channel=13, pitch=1246, time=4),
    Message('pitchwheel', channel=13, pitch=1340, time=2),
    Message('pitchwheel', channel=13, pitch=1387, time=1),
    Message('pitchwheel', channel=13, pitch=1434, time=3),
    Message('pitchwheel', channel=13, pitch=1528, time=1),
    Message('pitchwheel', channel=13, pitch=1575, time=2),
    Message('pitchwheel', channel=13, pitch=1644, time=3),
    Message('pitchwheel', channel=13, pitch=1782, time=1),
    Message('pitchwheel', channel=13, pitch=1851, time=1),
    Message('pitchwheel', channel=13, pitch=1899, time=4),
    Message('pitchwheel', channel=13, pitch=2044, time=1),
    Message('pitchwheel', channel=13, pitch=1995, time=0),
    Message('pitchwheel', channel=13, pitch=2081, time=3),
    Message('pitchwheel', channel=13, pitch=2155, time=1),
    Message('pitchwheel', channel=13, pitch=2192, time=1),
    Message('pitchwheel', channel=13, pitch=2252, time=4),
    Message('pitchwheel', channel=13, pitch=2212, time=0),
    Message('pitchwheel', channel=13, pitch=2273, time=2),
    Message('pitchwheel', channel=13, pitch=2274, time=3),
    Message('pitchwheel', channel=13, pitch=2276, time=1),
    Message('pitchwheel', channel=13, pitch=2278, time=2),
    Message('pitchwheel', channel=13, pitch=2279, time=2),
    Message('pitchwheel', channel=13, pitch=2281, time=1),
    Message('pitchwheel', channel=13, pitch=2283, time=2),
    Message('pitchwheel', channel=13, pitch=2284, time=5),
    Message('pitchwheel', channel=13, pitch=2285, time=1),
    Message('pitchwheel', channel=13, pitch=2268, time=13),
    Message('pitchwheel', channel=13, pitch=2234, time=2),
    Message('note_off', channel=13, note=69, velocity=64, time=1),
    Message('pitchwheel', channel=13, pitch=2217, time=0),
    Message('pitchwheel', channel=13, pitch=2216, time=3),
    Message('pitchwheel', channel=13, pitch=2215, time=1),
    Message('pitchwheel', channel=13, pitch=2212, time=5),
    Message('pitchwheel', channel=13, pitch=2214, time=0),
    Message('pitchwheel', channel=13, pitch=2211, time=5),
    Message('pitchwheel', channel=13, pitch=2210, time=1),
    Message('pitchwheel', channel=13, pitch=2194, time=4),
    Message('pitchwheel', channel=13, pitch=2162, time=1),
    Message('pitchwheel', channel=13, pitch=2147, time=2),
    Message('pitchwheel', channel=13, pitch=2146, time=14),
    Message('pitchwheel', channel=13, pitch=2145, time=1),
    Message('pitchwheel', channel=13, pitch=2142, time=4),
    Message('pitchwheel', channel=13, pitch=2144, time=0),
    Message('pitchwheel', channel=13, pitch=2141, time=5),
    Message('pitchwheel', channel=13, pitch=2140, time=1),
    Message('pitchwheel', channel=13, pitch=2139, time=5),
    Message('pitchwheel', channel=13, pitch=2137, time=1),
    Message('pitchwheel', channel=13, pitch=2136, time=5),
    Message('pitchwheel', channel=13, pitch=2135, time=1),
    Message('pitchwheel', channel=13, pitch=2134, time=5),
    Message('pitchwheel', channel=13, pitch=2132, time=1),
    Message('pitchwheel', channel=13, pitch=2131, time=3),
    Message('pitchwheel', channel=13, pitch=2130, time=1),
    Message('pitchwheel', channel=13, pitch=2129, time=4),
    Message('pitchwheel', channel=13, pitch=2127, time=1),
    Message('pitchwheel', channel=13, pitch=2126, time=5),
    Message('pitchwheel', channel=13, pitch=2125, time=1),
    Message('pitchwheel', channel=13, pitch=2124, time=4),
    Message('pitchwheel', channel=13, pitch=2122, time=1),
    Message('pitchwheel', channel=13, pitch=2121, time=6),
    Message('pitchwheel', channel=13, pitch=2120, time=1),
    Message('pitchwheel', channel=13, pitch=2119, time=3),
    Message('pitchwheel', channel=13, pitch=2117, time=1),
    Message('pitchwheel', channel=13, pitch=2042, time=5),
    Message('pitchwheel', channel=13, pitch=2092, time=0),
    Message('pitchwheel', channel=13, pitch=2017, time=2),
    Message('pitchwheel', channel=13, pitch=1998, time=3),
    Message('pitchwheel', channel=13, pitch=1960, time=2),
    Message('pitchwheel', channel=13, pitch=1941, time=1),
    Message('pitchwheel', channel=13, pitch=1907, time=3),
    Message('pitchwheel', channel=13, pitch=1839, time=1),
    Message('pitchwheel', channel=13, pitch=1806, time=1),
    Message('pitchwheel', channel=13, pitch=1602, time=4),
    Message('pitchwheel', channel=13, pitch=1738, time=0),
    Message('pitchwheel', channel=13, pitch=1535, time=2),
    Message('pitchwheel', channel=13, pitch=1462, time=2),
    Message('pitchwheel', channel=13, pitch=1316, time=1),
    Message('pitchwheel', channel=13, pitch=1244, time=2),
    Message('pitchwheel', channel=13, pitch=1133, time=3),
    Message('pitchwheel', channel=13, pitch=912, time=1),
    Message('pitchwheel', channel=13, pitch=802, time=1),
    Message('pitchwheel', channel=13, pitch=698, time=4),
    Message('pitchwheel', channel=13, pitch=490, time=1),
    Message('pitchwheel', channel=13, pitch=386, time=1),
    Message('pitchwheel', channel=13, pitch=348, time=4),
    Message('pitchwheel', channel=13, pitch=272, time=1),
    Message('pitchwheel', channel=13, pitch=235, time=1),
    Message('pitchwheel', channel=13, pitch=206, time=3),
    Message('pitchwheel', channel=13, pitch=120, time=1),
    Message('pitchwheel', channel=13, pitch=148, time=0),
    Message('pitchwheel', channel=13, pitch=90, time=3),
    Message('pitchwheel', channel=13, pitch=30, time=1),
    Message('pitchwheel', channel=13, pitch=0, time=2),
    Message('note_on', channel=13, note=69, velocity=100, time=232),
    Message('pitchwheel', channel=13, pitch=56, time=131),
    Message('pitchwheel', channel=13, pitch=168, time=1),
    Message('pitchwheel', channel=13, pitch=225, time=1),
    Message('pitchwheel', channel=13, pitch=631, time=4),
    Message('pitchwheel', channel=13, pitch=360, time=0),
    Message('pitchwheel', channel=13, pitch=767, time=1),
    Message('pitchwheel', channel=13, pitch=915, time=4),
    Message('pitchwheel', channel=13, pitch=1211, time=1),
    Message('pitchwheel', channel=13, pitch=1359, time=1),
    Message('pitchwheel', channel=13, pitch=1485, time=3),
    Message('pitchwheel', channel=13, pitch=1739, time=1),
    Message('pitchwheel', channel=13, pitch=1866, time=1),
    Message('pitchwheel', channel=13, pitch=2002, time=4),
    Message('pitchwheel', channel=13, pitch=2276, time=1),
    Message('pitchwheel', channel=13, pitch=2413, time=1),
    Message('pitchwheel', channel=13, pitch=2566, time=3),
    Message('pitchwheel', channel=13, pitch=2872, time=1),
    Message('pitchwheel', channel=13, pitch=3025, time=2),
    Message('pitchwheel', channel=13, pitch=3222, time=3),
    Message('pitchwheel', channel=13, pitch=3816, time=1),
    Message('pitchwheel', channel=13, pitch=3618, time=0),
    Message('pitchwheel', channel=13, pitch=3984, time=4),
    Message('pitchwheel', channel=13, pitch=4322, time=1),
    Message('pitchwheel', channel=13, pitch=4491, time=1),
    Message('pitchwheel', channel=13, pitch=5043, time=3),
    Message('pitchwheel', channel=13, pitch=4675, time=0),
    Message('pitchwheel', channel=13, pitch=5228, time=2),
    Message('pitchwheel', channel=13, pitch=5405, time=3),
    Message('pitchwheel', channel=13, pitch=5936, time=2),
    Message('pitchwheel', channel=13, pitch=5759, time=0),
    Message('pitchwheel', channel=13, pitch=6089, time=4),
    Message('pitchwheel', channel=13, pitch=6395, time=2),
    Message('pitchwheel', channel=13, pitch=6548, time=1),
    Message('pitchwheel', channel=13, pitch=6707, time=3),
    Message('pitchwheel', channel=13, pitch=7025, time=1),
    Message('pitchwheel', channel=13, pitch=7185, time=1),
    Message('pitchwheel', channel=13, pitch=7355, time=4),
    Message('pitchwheel', channel=13, pitch=7868, time=1),
    Message('pitchwheel', channel=13, pitch=7697, time=0),
    Message('pitchwheel', channel=13, pitch=7948, time=3),
    Message('pitchwheel', channel=13, pitch=8110, time=1),
    Message('pitchwheel', channel=13, pitch=8191, time=1),
    Message('pitchwheel', channel=13, pitch=8060, time=70),
    Message('pitchwheel', channel=13, pitch=7667, time=1),
    Message('pitchwheel', channel=13, pitch=7798, time=0),
    Message('pitchwheel', channel=13, pitch=7358, time=4),
    Message('pitchwheel', channel=13, pitch=6433, time=2),
    Message('pitchwheel', channel=13, pitch=6741, time=0),
    Message('pitchwheel', channel=13, pitch=6197, time=3),
    Message('pitchwheel', channel=13, pitch=5489, time=1),
    Message('pitchwheel', channel=13, pitch=5725, time=0),
    Message('pitchwheel', channel=13, pitch=5268, time=4),
    Message('pitchwheel', channel=13, pitch=4606, time=2),
    Message('pitchwheel', channel=13, pitch=4826, time=0),
    Message('pitchwheel', channel=13, pitch=4402, time=4),
    Message('pitchwheel', channel=13, pitch=3996, time=1),
    Message('pitchwheel', channel=13, pitch=3793, time=2),
    Message('pitchwheel', channel=13, pitch=3518, time=3),
    Message('pitchwheel', channel=13, pitch=2968, time=1),
    Message('pitchwheel', channel=13, pitch=2694, time=1),
    Message('pitchwheel', channel=13, pitch=2470, time=4),
    Message('pitchwheel', channel=13, pitch=1801, time=1),
    Message('pitchwheel', channel=13, pitch=2024, time=0),
    Message('pitchwheel', channel=13, pitch=1136, time=4),
    Message('pitchwheel', channel=13, pitch=1579, time=0),
    Message('pitchwheel', channel=13, pitch=915, time=1),
    Message('pitchwheel', channel=13, pitch=264, time=4),
    Message('pitchwheel', channel=13, pitch=698, time=0),
    Message('pitchwheel', channel=13, pitch=47, time=2),
    Message('pitchwheel', channel=13, pitch=35, time=3),
    Message('pitchwheel', channel=13, pitch=11, time=1),
    Message('pitchwheel', channel=13, pitch=0, time=1),
    Message('note_off', channel=13, note=69, velocity=64, time=61),
    Message('note_on', channel=13, note=74, velocity=100, time=960),
    Message('pitchwheel', channel=13, pitch=80, time=132),
    Message('pitchwheel', channel=13, pitch=240, time=1),
    Message('pitchwheel', channel=13, pitch=321, time=1),
    Message('pitchwheel', channel=13, pitch=442, time=2),
    Message('pitchwheel', channel=13, pitch=685, time=2),
    Message('pitchwheel', channel=13, pitch=807, time=1),
    Message('pitchwheel', channel=13, pitch=922, time=4),
    Message('pitchwheel', channel=13, pitch=1153, time=1),
    Message('pitchwheel', channel=13, pitch=1269, time=1),
    Message('pitchwheel', channel=13, pitch=1405, time=3),
    Message('pitchwheel', channel=13, pitch=1677, time=1),
    Message('pitchwheel', channel=13, pitch=1814, time=2),
    Message('pitchwheel', channel=13, pitch=2003, time=3),
    Message('pitchwheel', channel=13, pitch=2381, time=1),
    Message('pitchwheel', channel=13, pitch=2571, time=1),
    Message('pitchwheel', channel=13, pitch=2831, time=3),
    Message('pitchwheel', channel=13, pitch=3352, time=1),
    Message('pitchwheel', channel=13, pitch=3613, time=2),
    Message('pitchwheel', channel=13, pitch=3835, time=1),
    Message('pitchwheel', channel=13, pitch=4279, time=1),
    Message('pitchwheel', channel=13, pitch=4501, time=2),
    Message('pitchwheel', channel=13, pitch=4741, time=4),
    Message('pitchwheel', channel=13, pitch=5464, time=1),
    Message('pitchwheel', channel=13, pitch=5223, time=0),
    Message('pitchwheel', channel=13, pitch=5726, time=4),
    Message('pitchwheel', channel=13, pitch=6250, time=2),
    Message('pitchwheel', channel=13, pitch=6513, time=1),
    Message('pitchwheel', channel=13, pitch=6770, time=3),
    Message('pitchwheel', channel=13, pitch=7284, time=1),
    Message('pitchwheel', channel=13, pitch=7542, time=1),
    Message('pitchwheel', channel=13, pitch=7704, time=4),
    Message('pitchwheel', channel=13, pitch=8191, time=1),
    Message('pitchwheel', channel=13, pitch=8028, time=0),
    Message('pitchwheel', channel=13, pitch=8160, time=80),
    Message('pitchwheel', channel=13, pitch=8099, time=1),
    Message('pitchwheel', channel=13, pitch=8069, time=1),
    Message('pitchwheel', channel=13, pitch=7727, time=3),
    Message('pitchwheel', channel=13, pitch=7045, time=1),
    Message('pitchwheel', channel=13, pitch=6704, time=1),
    Message('pitchwheel', channel=13, pitch=6453, time=4),
    Message('pitchwheel', channel=13, pitch=5700, time=1),
    Message('pitchwheel', channel=13, pitch=5951, time=0),
    Message('pitchwheel', channel=13, pitch=5540, time=4),
    Message('pitchwheel', channel=13, pitch=5220, time=1),
    Message('pitchwheel', channel=13, pitch=5060, time=2),
    Message('pitchwheel', channel=13, pitch=4964, time=3),
    Message('pitchwheel', channel=13, pitch=4772, time=1),
    Message('pitchwheel', channel=13, pitch=4676, time=1),
    Message('pitchwheel', channel=13, pitch=4610, time=4),
    Message('pitchwheel', channel=13, pitch=4415, time=1),
    Message('pitchwheel', channel=13, pitch=4480, time=0),
    Message('pitchwheel', channel=13, pitch=4358, time=3),
    Message('pitchwheel', channel=13, pitch=4190, time=1),
    Message('pitchwheel', channel=13, pitch=4246, time=0),
    Message('pitchwheel', channel=13, pitch=3980, time=5),
    Message('pitchwheel', channel=13, pitch=4120, time=0),
    Message('pitchwheel', channel=13, pitch=3911, time=2),
    Message('pitchwheel', channel=13, pitch=3785, time=3),
    Message('pitchwheel', channel=13, pitch=3409, time=1),
    Message('pitchwheel', channel=13, pitch=3534, time=0),
    Message('pitchwheel', channel=13, pitch=3229, time=4),
    Message('pitchwheel', channel=13, pitch=2869, time=1),
    Message('pitchwheel', channel=13, pitch=2689, time=2),
    Message('pitchwheel', channel=13, pitch=2532, time=4),
    Message('pitchwheel', channel=13, pitch=2218, time=1),
    Message('pitchwheel', channel=13, pitch=2062, time=1),
    Message('pitchwheel', channel=13, pitch=1934, time=2),
    Message('pitchwheel', channel=13, pitch=1678, time=2),
    Message('pitchwheel', channel=13, pitch=1550, time=1),
    Message('pitchwheel', channel=13, pitch=1268, time=3),
    Message('pitchwheel', channel=13, pitch=1456, time=0),
    Message('pitchwheel', channel=13, pitch=1174, time=2),
    Message('pitchwheel', channel=13, pitch=1116, time=3),
    Message('pitchwheel', channel=13, pitch=1000, time=2),
    Message('pitchwheel', channel=13, pitch=943, time=1),
    Message('pitchwheel', channel=13, pitch=910, time=3),
    Message('pitchwheel', channel=13, pitch=844, time=1),
    Message('pitchwheel', channel=13, pitch=812, time=1),
    Message('pitchwheel', channel=13, pitch=769, time=3),
    Message('pitchwheel', channel=13, pitch=684, time=1),
    Message('pitchwheel', channel=13, pitch=642, time=2),
    Message('pitchwheel', channel=13, pitch=600, time=2),
    Message('pitchwheel', channel=13, pitch=517, time=2),
    Message('pitchwheel', channel=13, pitch=476, time=1),
    Message('pitchwheel', channel=13, pitch=424, time=3),
    Message('pitchwheel', channel=13, pitch=321, time=1),
    Message('pitchwheel', channel=13, pitch=270, time=2),
    Message('pitchwheel', channel=13, pitch=202, time=3),
    Message('pitchwheel', channel=13, pitch=67, time=1),
    Message('pitchwheel', channel=13, pitch=0, time=1),
    Message('note_off', channel=13, note=74, velocity=64, time=16),
    Message('note_on', channel=13, note=74, velocity=100, time=3072),
    Message('pitchwheel', channel=13, pitch=230, time=67),
    Message('pitchwheel', channel=13, pitch=692, time=2),
    Message('pitchwheel', channel=13, pitch=923, time=1),
    Message('pitchwheel', channel=13, pitch=1527, time=3),
    Message('pitchwheel', channel=13, pitch=2737, time=1),
    Message('pitchwheel', channel=13, pitch=3342, time=2),
    Message('pitchwheel', channel=13, pitch=3916, time=3),
    Message('pitchwheel', channel=13, pitch=5065, time=1),
    Message('pitchwheel', channel=13, pitch=5640, time=1),
    Message('pitchwheel', channel=13, pitch=6221, time=3),
    Message('pitchwheel', channel=13, pitch=7384, time=1),
    Message('pitchwheel', channel=13, pitch=7966, time=1),
    Message('pitchwheel', channel=13, pitch=8022, time=4),
    Message('pitchwheel', channel=13, pitch=8134, time=1),
    Message('pitchwheel', channel=13, pitch=8191, time=1),
    Message('note_off', channel=13, note=74, velocity=64, time=4),
    Message('pitchwheel', channel=13, pitch=7851, time=53),
    Message('pitchwheel', channel=13, pitch=7173, time=1),
    Message('pitchwheel', channel=13, pitch=6834, time=2),
    Message('pitchwheel', channel=13, pitch=6470, time=3),
    Message('pitchwheel', channel=13, pitch=5742, time=1),
    Message('pitchwheel', channel=13, pitch=5379, time=2),
    Message('pitchwheel', channel=13, pitch=4953, time=3),
    Message('pitchwheel', channel=13, pitch=4103, time=1),
    Message('pitchwheel', channel=13, pitch=3678, time=1),
    Message('pitchwheel', channel=13, pitch=3196, time=3),
    Message('pitchwheel', channel=13, pitch=2234, time=1),
    Message('pitchwheel', channel=13, pitch=1753, time=1),
    Message('pitchwheel', channel=13, pitch=1333, time=3),
    Message('pitchwheel', channel=13, pitch=494, time=1),
    Message('pitchwheel', channel=13, pitch=75, time=2),
    Message('pitchwheel', channel=13, pitch=56, time=3),
    Message('pitchwheel', channel=13, pitch=18, time=1),
    Message('pitchwheel', channel=13, pitch=0, time=1),
    Message('note_on', channel=13, note=74, velocity=100, time=205),
    Message('pitchwheel', channel=13, pitch=519, time=17),
    Message('pitchwheel', channel=13, pitch=173, time=0),
    Message('pitchwheel', channel=13, pitch=692, time=1),
    Message('pitchwheel', channel=13, pitch=1395, time=3),
    Message('pitchwheel', channel=13, pitch=2801, time=1),
    Message('pitchwheel', channel=13, pitch=3505, time=2),
    Message('pitchwheel', channel=13, pitch=4592, time=2),
    Message('pitchwheel', channel=13, pitch=6766, time=1),
    Message('pitchwheel', channel=13, pitch=7853, time=2),
    Message('pitchwheel', channel=13, pitch=7937, time=3),
    Message('pitchwheel', channel=13, pitch=8106, time=1),
    Message('pitchwheel', channel=13, pitch=8191, time=1),
    Message('note_off', channel=13, note=74, velocity=64, time=62),
    Message('pitchwheel', channel=13, pitch=7416, time=133),
    Message('pitchwheel', channel=13, pitch=5867, time=1),
    Message('pitchwheel', channel=13, pitch=5093, time=1),
    Message('pitchwheel', channel=13, pitch=4550, time=3),
    Message('pitchwheel', channel=13, pitch=3465, time=1),
    Message('pitchwheel', channel=13, pitch=2923, time=1),
    Message('pitchwheel', channel=13, pitch=2364, time=3),
    Message('pitchwheel', channel=13, pitch=687, time=2),
    Message('pitchwheel', channel=13, pitch=1246, time=0),
    Message('pitchwheel', channel=13, pitch=515, time=3),
    Message('pitchwheel', channel=13, pitch=171, time=1),
    Message('pitchwheel', channel=13, pitch=0, time=1),
    Message('note_on', channel=13, note=74, velocity=100, time=138),
    Message('pitchwheel', channel=13, pitch=246, time=46),
    Message('pitchwheel', channel=13, pitch=82, time=0),
    Message('pitchwheel', channel=13, pitch=328, time=2),
    Message('pitchwheel', channel=13, pitch=867, time=2),
    Message('pitchwheel', channel=13, pitch=1946, time=2),
    Message('pitchwheel', channel=13, pitch=2486, time=1),
    Message('pitchwheel', channel=13, pitch=3415, time=4),
    Message('pitchwheel', channel=13, pitch=5274, time=1),
    Message('pitchwheel', channel=13, pitch=6204, time=1),
    Message('pitchwheel', channel=13, pitch=6700, time=3),
    Message('pitchwheel', channel=13, pitch=7694, time=1),
    Message('pitchwheel', channel=13, pitch=8191, time=2),
    Message('note_off', channel=13, note=74, velocity=64, time=31),
    Message('pitchwheel', channel=13, pitch=7780, time=172),
    Message('pitchwheel', channel=13, pitch=6548, time=2),
    Message('pitchwheel', channel=13, pitch=6958, time=0),
    Message('pitchwheel', channel=13, pitch=5887, time=4),
    Message('pitchwheel', channel=13, pitch=4565, time=1),
    Message('pitchwheel', channel=13, pitch=3904, time=2),
    Message('pitchwheel', channel=13, pitch=3279, time=3),
    Message('pitchwheel', channel=13, pitch=2029, time=1),
    Message('pitchwheel', channel=13, pitch=1405, time=1),
    Message('pitchwheel', channel=13, pitch=1053, time=4),
    Message('pitchwheel', channel=13, pitch=351, time=1),
    Message('pitchwheel', channel=13, pitch=0, time=1),
    Message('note_on', channel=13, note=74, velocity=100, time=96),
    Message('pitchwheel', channel=13, pitch=90, time=38),
    Message('pitchwheel', channel=13, pitch=270, time=1),
    Message('pitchwheel', channel=13, pitch=361, time=1),
    Message('pitchwheel', channel=13, pitch=921, time=3),
    Message('pitchwheel', channel=13, pitch=2043, time=2),
    Message('pitchwheel', channel=13, pitch=2604, time=1),
    Message('pitchwheel', channel=13, pitch=3566, time=2),
    Message('pitchwheel', channel=13, pitch=5492, time=1),
    Message('pitchwheel', channel=13, pitch=6455, time=1),
    Message('pitchwheel', channel=13, pitch=7757, time=4),
    Message('pitchwheel', channel=13, pitch=6889, time=0),
    Message('pitchwheel', channel=13, pitch=8191, time=2),
    Message('note_off', channel=13, note=74, velocity=64, time=40),
    Message('pitchwheel', channel=13, pitch=6589, time=143),
    Message('pitchwheel', channel=13, pitch=7657, time=0),
    Message('pitchwheel', channel=13, pitch=6056, time=1),
    Message('pitchwheel', channel=13, pitch=4460, time=4),
    Message('pitchwheel', channel=13, pitch=5524, time=0),
    Message('pitchwheel', channel=13, pitch=3929, time=3),
    Message('pitchwheel', channel=13, pitch=3419, time=2),
    Message('pitchwheel', channel=13, pitch=2400, time=2),
    Message('pitchwheel', channel=13, pitch=1891, time=2),
    Message('pitchwheel', channel=13, pitch=1418, time=2),
    Message('pitchwheel', channel=13, pitch=472, time=1),
    Message('pitchwheel', channel=13, pitch=0, time=2),
    Message('note_on', channel=13, note=74, velocity=100, time=126),
    Message('pitchwheel', channel=13, pitch=205, time=29),
    Message('pitchwheel', channel=13, pitch=615, time=1),
    Message('pitchwheel', channel=13, pitch=820, time=2),
    Message('pitchwheel', channel=13, pitch=1296, time=3),
    Message('pitchwheel', channel=13, pitch=2248, time=1),
    Message('pitchwheel', channel=13, pitch=2724, time=1),
    Message('pitchwheel', channel=13, pitch=3465, time=4),
    Message('pitchwheel', channel=13, pitch=5690, time=1),
    Message('pitchwheel', channel=13, pitch=4948, time=0),
    Message('pitchwheel', channel=13, pitch=6315, time=3),
    Message('pitchwheel', channel=13, pitch=7565, time=1),
    Message('pitchwheel', channel=13, pitch=8191, time=1),
    Message('note_off', channel=13, note=74, velocity=64, time=49),
    Message('pitchwheel', channel=13, pitch=8028, time=167),
    Message('pitchwheel', channel=13, pitch=7702, time=1),
    Message('pitchwheel', channel=13, pitch=7539, time=1),
    Message('pitchwheel', channel=13, pitch=7097, time=3),
    Message('pitchwheel', channel=13, pitch=6214, time=1),
    Message('pitchwheel', channel=13, pitch=5773, time=2),
    Message('pitchwheel', channel=13, pitch=5345, time=2),
    Message('pitchwheel', channel=13, pitch=4491, time=2),
    Message('pitchwheel', channel=13, pitch=4064, time=1),
    Message('pitchwheel', channel=13, pitch=2889, time=4),
    Message('pitchwheel', channel=13, pitch=3672, time=0),
    Message('pitchwheel', channel=13, pitch=2498, time=2),
    Message('pitchwheel', channel=13, pitch=2184, time=3),
    Message('pitchwheel', channel=13, pitch=1557, time=2),
    Message('pitchwheel', channel=13, pitch=1244, time=1),
    Message('pitchwheel', channel=13, pitch=956, time=2),
    Message('pitchwheel', channel=13, pitch=382, time=1),
    Message('pitchwheel', channel=13, pitch=95, time=1),
    Message('pitchwheel', channel=13, pitch=71, time=3),
    Message('pitchwheel', channel=13, pitch=23, time=2),
    Message('pitchwheel', channel=13, pitch=0, time=1),
    Message('note_on', channel=13, note=86, velocity=100, time=3542),
    Message('pitchwheel', channel=13, pitch=171, time=104),
    Message('pitchwheel', channel=13, pitch=687, time=1),
    Message('pitchwheel', channel=13, pitch=515, time=0),
    Message('pitchwheel', channel=13, pitch=910, time=5),
    Message('pitchwheel', channel=13, pitch=1356, time=1),
    Message('pitchwheel', channel=13, pitch=1580, time=1),
    Message('pitchwheel', channel=13, pitch=1782, time=3),
    Message('pitchwheel', channel=13, pitch=2186, time=1),
    Message('pitchwheel', channel=13, pitch=2388, time=2),
    Message('pitchwheel', channel=13, pitch=2513, time=3),
    Message('pitchwheel', channel=13, pitch=2890, time=1),
    Message('pitchwheel', channel=13, pitch=2764, time=0),
    Message('pitchwheel', channel=13, pitch=3307, time=4),
    Message('pitchwheel', channel=13, pitch=3029, time=0),
    Message('pitchwheel', channel=13, pitch=3447, time=1),
    Message('pitchwheel', channel=13, pitch=3823, time=4),
    Message('pitchwheel', channel=13, pitch=3572, time=0),
    Message('pitchwheel', channel=13, pitch=3949, time=2),
    Message('pitchwheel', channel=13, pitch=4077, time=3),
    Message('pitchwheel', channel=13, pitch=4463, time=2),
    Message('pitchwheel', channel=13, pitch=4334, time=0),
    Message('control_change', channel=13, control=1, value=1, time=2),
    Message('pitchwheel', channel=13, pitch=4623, time=2),
    Message('pitchwheel', channel=13, pitch=4944, time=1),
    Message('pitchwheel', channel=13, pitch=5105, time=1),
    Message('control_change', channel=13, control=1, value=6, time=3),
    Message('control_change', channel=13, control=1, value=4, time=0),
    Message('pitchwheel', channel=13, pitch=5235, time=1),
    Message('pitchwheel', channel=13, pitch=5625, time=2),
    Message('pitchwheel', channel=13, pitch=5495, time=0),
    Message('pitchwheel', channel=13, pitch=5791, time=3),
    Message('pitchwheel', channel=13, pitch=6125, time=1),
    Message('pitchwheel', channel=13, pitch=6292, time=1),
    Message('control_change', channel=13, control=1, value=7, time=0),
    Message('control_change', channel=13, control=1, value=9, time=1),
    Message('pitchwheel', channel=13, pitch=6443, time=2),
    Message('pitchwheel', channel=13, pitch=6747, time=1),
    Message('pitchwheel', channel=13, pitch=6899, time=2),
    Message('control_change', channel=13, control=1, value=10, time=0),
    Message('pitchwheel', channel=13, pitch=7076, time=3),
    Message('pitchwheel', channel=13, pitch=7431, time=1),
    Message('pitchwheel', channel=13, pitch=7609, time=1),
    Message('pitchwheel', channel=13, pitch=7754, time=3),
    Message('control_change', channel=13, control=1, value=11, time=0),
    Message('pitchwheel', channel=13, pitch=8045, time=1),
    Message('pitchwheel', channel=13, pitch=8191, time=1),
    Message('control_change', channel=13, control=1, value=13, time=4),
    Message('control_change', channel=13, control=1, value=14, time=2),
    Message('control_change', channel=13, control=1, value=16, time=7),
    Message('control_change', channel=13, control=1, value=18, time=4),
    Message('control_change', channel=13, control=1, value=19, time=4),
    Message('control_change', channel=13, control=1, value=21, time=11),
    Message('control_change', channel=13, control=1, value=24, time=5),
    Message('control_change', channel=13, control=1, value=25, time=6),
    Message('control_change', channel=13, control=1, value=28, time=11),
    Message('control_change', channel=13, control=1, value=32, time=2),
    Message('control_change', channel=13, control=1, value=35, time=5),
    Message('control_change', channel=13, control=1, value=37, time=6),
    Message('control_change', channel=13, control=1, value=40, time=2),
    Message('control_change', channel=13, control=1, value=42, time=2),
    Message('control_change', channel=13, control=1, value=43, time=13),
    Message('control_change', channel=13, control=1, value=45, time=5),
    Message('control_change', channel=13, control=1, value=47, time=1),
    Message('control_change', channel=13, control=1, value=48, time=8),
    Message('control_change', channel=13, control=1, value=50, time=3),
    Message('control_change', channel=13, control=1, value=51, time=7),
    Message('control_change', channel=13, control=1, value=52, time=11),
    Message('control_change', channel=13, control=1, value=53, time=3),
    Message('control_change', channel=13, control=1, value=54, time=14),
    Message('control_change', channel=13, control=1, value=55, time=43),
    Message('pitchwheel', channel=13, pitch=7981, time=4),
    Message('pitchwheel', channel=13, pitch=7561, time=1),
    Message('pitchwheel', channel=13, pitch=7351, time=1),
    Message('pitchwheel', channel=13, pitch=6509, time=4),
    Message('pitchwheel', channel=13, pitch=7070, time=0),
    Message('pitchwheel', channel=13, pitch=6229, time=2),
    Message('control_change', channel=13, control=1, value=56, time=2),
    Message('pitchwheel', channel=13, pitch=5957, time=1),
    Message('pitchwheel', channel=13, pitch=5414, time=2),
    Message('pitchwheel', channel=13, pitch=5143, time=1),
    Message('pitchwheel', channel=13, pitch=4919, time=2),
    Message('pitchwheel', channel=13, pitch=4471, time=2),
    Message('pitchwheel', channel=13, pitch=4247, time=1),
    Message('pitchwheel', channel=13, pitch=4109, time=3),
    Message('pitchwheel', channel=13, pitch=3835, time=1),
    Message('control_change', channel=13, control=1, value=57, time=1),
    Message('pitchwheel', channel=13, pitch=3698, time=1),
    Message('pitchwheel', channel=13, pitch=3608, time=3),
    Message('pitchwheel', channel=13, pitch=3428, time=1),
    Message('pitchwheel', channel=13, pitch=3339, time=1),
    Message('pitchwheel', channel=13, pitch=3054, time=4),
    Message('pitchwheel', channel=13, pitch=3244, time=0),
    Message('pitchwheel', channel=13, pitch=2960, time=1),
    Message('pitchwheel', channel=13, pitch=2804, time=4),
    Message('pitchwheel', channel=13, pitch=2908, time=0),
    Message('control_change', channel=13, control=1, value=58, time=0),
    Message('pitchwheel', channel=13, pitch=2752, time=1),
    Message('pitchwheel', channel=13, pitch=2679, time=3),
    Message('pitchwheel', channel=13, pitch=2535, time=2),
    Message('pitchwheel', channel=13, pitch=2463, time=1),
    Message('pitchwheel', channel=13, pitch=2361, time=3),
    Message('pitchwheel', channel=13, pitch=2158, time=1),
    Message('pitchwheel', channel=13, pitch=2057, time=2),
    Message('pitchwheel', channel=13, pitch=1922, time=3),
    Message('pitchwheel', channel=13, pitch=1654, time=1),
    Message('pitchwheel', channel=13, pitch=1520, time=1),
    Message('control_change', channel=13, control=1, value=59, time=3),
    Message('pitchwheel', channel=13, pitch=1359, time=1),
    Message('control_change', channel=13, control=1, value=60, time=0),
    Message('pitchwheel', channel=13, pitch=1038, time=1),
    Message('pitchwheel', channel=13, pitch=878, time=1),
    Message('control_change', channel=13, control=1, value=61, time=2),
    Message('pitchwheel', channel=13, pitch=707, time=2),
    Message('pitchwheel', channel=13, pitch=195, time=1),
    Message('pitchwheel', channel=13, pitch=365, time=0),
    Message('pitchwheel', channel=13, pitch=146, time=3),
    Message('pitchwheel', channel=13, pitch=48, time=1),
    Message('pitchwheel', channel=13, pitch=0, time=1),
    Message('control_change', channel=13, control=1, value=62, time=1),
    Message('control_change', channel=13, control=1, value=63, time=5),
    Message('control_change', channel=13, control=1, value=64, time=13),
    Message('control_change', channel=13, control=1, value=65, time=1),
    Message('control_change', channel=13, control=1, value=66, time=11),
    Message('control_change', channel=13, control=1, value=67, time=7),
    Message('note_off', channel=13, note=86, velocity=64, time=111),
    Message('note_on', channel=13, note=64, velocity=100, time=0),
    Message('pitchwheel', channel=13, pitch=80, time=121),
    Message('pitchwheel', channel=13, pitch=240, time=1),
    Message('pitchwheel', channel=13, pitch=321, time=1),
    Message('pitchwheel', channel=13, pitch=400, time=4),
    Message('pitchwheel', channel=13, pitch=558, time=1),
    Message('pitchwheel', channel=13, pitch=637, time=1),
    Message('pitchwheel', channel=13, pitch=743, time=4),
    Message('pitchwheel', channel=13, pitch=956, time=1),
    Message('pitchwheel', channel=13, pitch=1063, time=1),
    Message('pitchwheel', channel=13, pitch=1191, time=3),
    Message('pitchwheel', channel=13, pitch=1447, time=1),
    Message('pitchwheel', channel=13, pitch=1575, time=1),
    Message('pitchwheel', channel=13, pitch=1767, time=3),
    Message('pitchwheel', channel=13, pitch=2345, time=2),
    Message('pitchwheel', channel=13, pitch=2152, time=0),
    Message('pitchwheel', channel=13, pitch=2614, time=3),
    Message('pitchwheel', channel=13, pitch=3152, time=1),
    Message('pitchwheel', channel=13, pitch=3422, time=1),
    Message('pitchwheel', channel=13, pitch=3657, time=3),
    Message('pitchwheel', channel=13, pitch=4127, time=2),
    Message('pitchwheel', channel=13, pitch=4363, time=1),
    Message('pitchwheel', channel=13, pitch=5065, time=4),
    Message('pitchwheel', channel=13, pitch=4597, time=0),
    Message('pitchwheel', channel=13, pitch=5299, time=2),
    Message('pitchwheel', channel=13, pitch=5531, time=3),
    Message('pitchwheel', channel=13, pitch=5996, time=2),
    Message('pitchwheel', channel=13, pitch=6229, time=1),
    Message('pitchwheel', channel=13, pitch=6428, time=3),
    Message('pitchwheel', channel=13, pitch=6826, time=1),
    Message('pitchwheel', channel=13, pitch=7025, time=1),
    Message('pitchwheel', channel=13, pitch=7265, time=3),
    Message('pitchwheel', channel=13, pitch=7988, time=1),
    Message('pitchwheel', channel=13, pitch=7747, time=0),
    Message('pitchwheel', channel=13, pitch=8038, time=4),
    Message('pitchwheel', channel=13, pitch=8140, time=1),
    Message('pitchwheel', channel=13, pitch=8191, time=1),
    Message('control_change', channel=13, control=1, value=65, time=107),
    Message('control_change', channel=13, control=1, value=62, time=5),
    Message('control_change', channel=13, control=1, value=60, time=3),
    Message('control_change', channel=13, control=1, value=57, time=9),
    Message('control_change', channel=13, control=1, value=53, time=4),
    Message('control_change', channel=13, control=1, value=51, time=1),
    Message('control_change', channel=13, control=1, value=47, time=11),
    Message('control_change', channel=13, control=1, value=39, time=3),
    Message('control_change', channel=13, control=1, value=35, time=1),
    Message('control_change', channel=13, control=1, value=30, time=12),
    Message('control_change', channel=13, control=1, value=19, time=1),
    Message('control_change', channel=13, control=1, value=14, time=1),
    Message('control_change', channel=13, control=1, value=10, time=9),
    Message('control_change', channel=13, control=1, value=0, time=6),
    Message('control_change', channel=13, control=1, value=3, time=0),
    Message('pitchwheel', channel=13, pitch=7701, time=103),
    Message('pitchwheel', channel=13, pitch=6721, time=1),
    Message('pitchwheel', channel=13, pitch=6232, time=1),
    Message('pitchwheel', channel=13, pitch=5648, time=4),
    Message('pitchwheel', channel=13, pitch=4482, time=1),
    Message('pitchwheel', channel=13, pitch=3899, time=1),
    Message('pitchwheel', channel=13, pitch=3283, time=4),
    Message('pitchwheel', channel=13, pitch=1435, time=1),
    Message('pitchwheel', channel=13, pitch=2051, time=0),
    Message('pitchwheel', channel=13, pitch=1076, time=3),
    Message('pitchwheel', channel=13, pitch=358, time=1),
    Message('pitchwheel', channel=13, pitch=0, time=1),
    Message('pitchwheel', channel=13, pitch=-115, time=9),
    Message('pitchwheel', channel=13, pitch=-344, time=1),
    Message('pitchwheel', channel=13, pitch=-458, time=1),
    Message('pitchwheel', channel=13, pitch=-493, time=3),
    Message('pitchwheel', channel=13, pitch=-561, time=2),
    Message('pitchwheel', channel=13, pitch=-595, time=1),
    Message('pitchwheel', channel=13, pitch=-208, time=14),
    Message('pitchwheel', channel=13, pitch=-466, time=0),
    Message('pitchwheel', channel=13, pitch=-78, time=2),
    Message('pitchwheel', channel=13, pitch=-59, time=3),
    Message('pitchwheel', channel=13, pitch=-20, time=2),
    Message('pitchwheel', channel=13, pitch=0, time=1),
    Message('note_off', channel=13, note=64, velocity=64, time=60),
    Message('note_on', channel=13, note=64, velocity=100, time=0),
    Message('pitchwheel', channel=13, pitch=45, time=188),
    Message('pitchwheel', channel=13, pitch=137, time=2),
    Message('pitchwheel', channel=13, pitch=183, time=1),
    Message('pitchwheel', channel=13, pitch=978, time=3),
    Message('pitchwheel', channel=13, pitch=448, time=0),
    Message('pitchwheel', channel=13, pitch=1244, time=1),
    Message('pitchwheel', channel=13, pitch=1575, time=3),
    Message('pitchwheel', channel=13, pitch=2239, time=1),
    Message('pitchwheel', channel=13, pitch=2571, time=1),
    Message('pitchwheel', channel=13, pitch=2994, time=3),
    Message('pitchwheel', channel=13, pitch=3841, time=1),
    Message('pitchwheel', channel=13, pitch=4265, time=2),
    Message('pitchwheel', channel=13, pitch=5378, time=4),
    Message('pitchwheel', channel=13, pitch=4636, time=0),
    Message('pitchwheel', channel=13, pitch=5750, time=1),
    Message('pitchwheel', channel=13, pitch=6084, time=4),
    Message('pitchwheel', channel=13, pitch=6753, time=2),
    Message('pitchwheel', channel=13, pitch=7088, time=1),
    Message('pitchwheel', channel=13, pitch=7363, time=3),
    Message('pitchwheel', channel=13, pitch=7915, time=1),
    Message('pitchwheel', channel=13, pitch=8191, time=2),
    Message('pitchwheel', channel=13, pitch=7814, time=328),
    Message('pitchwheel', channel=13, pitch=7060, time=2),
    Message('pitchwheel', channel=13, pitch=6684, time=1),
    Message('pitchwheel', channel=13, pitch=6322, time=3),
    Message('pitchwheel', channel=13, pitch=5599, time=1),
    Message('pitchwheel', channel=13, pitch=5238, time=2),
    Message('pitchwheel', channel=13, pitch=4809, time=2),
    Message('pitchwheel', channel=13, pitch=3953, time=2),
    Message('pitchwheel', channel=13, pitch=3525, time=1),
    Message('pitchwheel', channel=13, pitch=2157, time=4),
    Message('pitchwheel', channel=13, pitch=3069, time=0),
    Message('pitchwheel', channel=13, pitch=1701, time=1),
    Message('pitchwheel', channel=13, pitch=1305, time=4),
    Message('note_off', channel=13, note=64, velocity=64, time=1),
    Message('note_on', channel=13, note=64, velocity=100, time=0),
    Message('pitchwheel', channel=13, pitch=515, time=0),
    Message('pitchwheel', channel=13, pitch=120, time=1),
    Message('pitchwheel', channel=13, pitch=90, time=3),
    Message('pitchwheel', channel=13, pitch=30, time=1),
    Message('pitchwheel', channel=13, pitch=0, time=1),
    Message('note_off', channel=13, note=64, velocity=64, time=570),
    Message('note_on', channel=13, note=64, velocity=100, time=0),
    Message('pitchwheel', channel=13, pitch=50, time=147),
    Message('pitchwheel', channel=13, pitch=150, time=1),
    Message('pitchwheel', channel=13, pitch=200, time=1),
    Message('pitchwheel', channel=13, pitch=716, time=4),
    Message('pitchwheel', channel=13, pitch=372, time=0),
    Message('pitchwheel', channel=13, pitch=888, time=1),
    Message('pitchwheel', channel=13, pitch=1557, time=4),
    Message('pitchwheel', channel=13, pitch=1111, time=0),
    Message('pitchwheel', channel=13, pitch=1781, time=2),
    Message('pitchwheel', channel=13, pitch=2465, time=3),
    Message('pitchwheel', channel=13, pitch=2009, time=0),
    Message('pitchwheel', channel=13, pitch=2694, time=1),
    Message('pitchwheel', channel=13, pitch=2956, time=4),
    Message('pitchwheel', channel=13, pitch=3482, time=1),
    Message('pitchwheel', channel=13, pitch=3745, time=2),
    Message('pitchwheel', channel=13, pitch=3959, time=3),
    Message('pitchwheel', channel=13, pitch=4387, time=1),
    Message('pitchwheel', channel=13, pitch=4601, time=1),
    Message('pitchwheel', channel=13, pitch=4823, time=4),
    Message('pitchwheel', channel=13, pitch=5267, time=1),
    Message('pitchwheel', channel=13, pitch=5489, time=1),
    Message('pitchwheel', channel=13, pitch=5722, time=4),
    Message('pitchwheel', channel=13, pitch=6423, time=1),
    Message('pitchwheel', channel=13, pitch=6189, time=0),
    Message('pitchwheel', channel=13, pitch=7137, time=3),
    Message('pitchwheel', channel=13, pitch=6661, time=0),
    Message('pitchwheel', channel=13, pitch=7376, time=2),
    Message('pitchwheel', channel=13, pitch=7579, time=3),
    Message('pitchwheel', channel=13, pitch=7987, time=1),
    Message('pitchwheel', channel=13, pitch=8191, time=2),
    Message('pitchwheel', channel=13, pitch=7700, time=172),
    Message('pitchwheel', channel=13, pitch=6719, time=2),
    Message('pitchwheel', channel=13, pitch=6229, time=1),
    Message('pitchwheel', channel=13, pitch=5655, time=3),
    Message('pitchwheel', channel=13, pitch=3934, time=1),
    Message('pitchwheel', channel=13, pitch=4507, time=0),
    Message('pitchwheel', channel=13, pitch=3439, time=3),
    Message('pitchwheel', channel=13, pitch=2451, time=1),
    Message('pitchwheel', channel=13, pitch=1957, time=2),
    Message('note_off', channel=13, note=64, velocity=64, time=1),
    Message('note_on', channel=13, note=64, velocity=100, time=0),
    Message('pitchwheel', channel=13, pitch=1618, time=1),
    Message('pitchwheel', channel=13, pitch=940, time=2),
    Message('pitchwheel', channel=13, pitch=602, time=1),
    Message('pitchwheel', channel=13, pitch=451, time=4),
    Message('pitchwheel', channel=13, pitch=150, time=1),
    Message('pitchwheel', channel=13, pitch=0, time=1),
    Message('pitchwheel', channel=13, pitch=504, time=210),
    Message('pitchwheel', channel=13, pitch=168, time=0),
    Message('pitchwheel', channel=13, pitch=672, time=2),
    Message('pitchwheel', channel=13, pitch=994, time=3),
    Message('pitchwheel', channel=13, pitch=1962, time=2),
    Message('pitchwheel', channel=13, pitch=1639, time=0),
    Message('pitchwheel', channel=13, pitch=2383, time=4),
    Message('pitchwheel', channel=13, pitch=3226, time=1),
    Message('pitchwheel', channel=13, pitch=3648, time=2),
    Message('pitchwheel', channel=13, pitch=4039, time=3),
    Message('pitchwheel', channel=13, pitch=4821, time=1),
    Message('pitchwheel', channel=13, pitch=5213, time=1),
    Message('pitchwheel', channel=13, pitch=5608, time=3),
    Message('pitchwheel', channel=13, pitch=6398, time=1),
    Message('pitchwheel', channel=13, pitch=6794, time=1),
    Message('pitchwheel', channel=13, pitch=7841, time=4),
    Message('pitchwheel', channel=13, pitch=7143, time=0),
    Message('pitchwheel', channel=13, pitch=8191, time=2),
    Message('note_off', channel=13, note=64, velocity=64, time=134),
    Message('pitchwheel', channel=13, pitch=8158, time=53),
    Message('pitchwheel', channel=13, pitch=8093, time=1),
    Message('pitchwheel', channel=13, pitch=8061, time=2),
    Message('pitchwheel', channel=13, pitch=7569, time=3),
    Message('pitchwheel', channel=13, pitch=6587, time=1),
    Message('pitchwheel', channel=13, pitch=6096, time=1),
    Message('pitchwheel', channel=13, pitch=5632, time=4),
    Message('pitchwheel', channel=13, pitch=4705, time=1),
    Message('pitchwheel', channel=13, pitch=4242, time=1),
    Message('pitchwheel', channel=13, pitch=3826, time=4),
    Message('pitchwheel', channel=13, pitch=2996, time=1),
    Message('pitchwheel', channel=13, pitch=2581, time=1),
    Message('pitchwheel', channel=13, pitch=2271, time=2),
    Message('pitchwheel', channel=13, pitch=1651, time=1),
    Message('pitchwheel', channel=13, pitch=1342, time=2),
    Message('pitchwheel', channel=13, pitch=1047, time=3),
    Message('pitchwheel', channel=13, pitch=459, time=1),
    Message('pitchwheel', channel=13, pitch=165, time=1),
    Message('pitchwheel', channel=13, pitch=123, time=3),
    Message('pitchwheel', channel=13, pitch=41, time=2),
    Message('pitchwheel', channel=13, pitch=0, time=1),
    Message('note_on', channel=13, note=71, velocity=100, time=3751),
    Message('pitchwheel', channel=13, pitch=45, time=101),
    Message('pitchwheel', channel=13, pitch=135, time=1),
    Message('pitchwheel', channel=13, pitch=180, time=1),
    Message('pitchwheel', channel=13, pitch=345, time=3),
    Message('pitchwheel', channel=13, pitch=677, time=2),
    Message('pitchwheel', channel=13, pitch=843, time=1),
    Message('pitchwheel', channel=13, pitch=1012, time=3),
    Message('pitchwheel', channel=13, pitch=1350, time=1),
    Message('pitchwheel', channel=13, pitch=1520, time=2),
    Message('pitchwheel', channel=13, pitch=1669, time=3),
    Message('pitchwheel', channel=13, pitch=1967, time=1),
    Message('pitchwheel', channel=13, pitch=2117, time=1),
    Message('pitchwheel', channel=13, pitch=2602, time=4),
    Message('pitchwheel', channel=13, pitch=2278, time=0),
    Message('pitchwheel', channel=13, pitch=2764, time=1),
    Message('pitchwheel', channel=13, pitch=3460, time=4),
    Message('pitchwheel', channel=13, pitch=2996, time=0),
    Message('pitchwheel', channel=13, pitch=3693, time=1),
    Message('pitchwheel', channel=13, pitch=4383, time=4),
    Message('pitchwheel', channel=13, pitch=3923, time=0),
    Message('pitchwheel', channel=13, pitch=4614, time=3),
    Message('pitchwheel', channel=13, pitch=4841, time=2),
    Message('pitchwheel', channel=13, pitch=5524, time=2),
    Message('pitchwheel', channel=13, pitch=5296, time=0),
    Message('pitchwheel', channel=13, pitch=5767, time=4),
    Message('pitchwheel', channel=13, pitch=6254, time=1),
    Message('pitchwheel', channel=13, pitch=6498, time=1),
    Message('pitchwheel', channel=13, pitch=6724, time=4),
    Message('pitchwheel', channel=13, pitch=7177, time=1),
    Message('pitchwheel', channel=13, pitch=7404, time=1),
    Message('pitchwheel', channel=13, pitch=7600, time=3),
    Message('pitchwheel', channel=13, pitch=7994, time=1),
    Message('pitchwheel', channel=13, pitch=8191, time=1),
    Message('note_off', channel=13, note=71, velocity=64, time=34),
    Message('pitchwheel', channel=13, pitch=7889, time=111),
    Message('pitchwheel', channel=13, pitch=7286, time=1),
    Message('pitchwheel', channel=13, pitch=6985, time=1),
    Message('pitchwheel', channel=13, pitch=6519, time=4),
    Message('pitchwheel', channel=13, pitch=5588, time=1),
    Message('pitchwheel', channel=13, pitch=5123, time=1),
    Message('pitchwheel', channel=13, pitch=4726, time=4),
    Message('pitchwheel', channel=13, pitch=3535, time=1),
    Message('pitchwheel', channel=13, pitch=3932, time=0),
    Message('pitchwheel', channel=13, pitch=3198, time=3),
    Message('pitchwheel', channel=13, pitch=2190, time=1),
    Message('pitchwheel', channel=13, pitch=2526, time=0),
    Message('pitchwheel', channel=13, pitch=2007, time=4),
    Message('pitchwheel', channel=13, pitch=1642, time=2),
    Message('pitchwheel', channel=13, pitch=1460, time=1),
    Message('pitchwheel', channel=13, pitch=1323, time=3),
    Message('pitchwheel', channel=13, pitch=1049, time=1),
    Message('pitchwheel', channel=13, pitch=913, time=1),
    Message('pitchwheel', channel=13, pitch=817, time=3),
    Message('pitchwheel', channel=13, pitch=625, time=2),
    Message('pitchwheel', channel=13, pitch=529, time=1),
    Message('pitchwheel', channel=13, pitch=447, time=4),
    Message('pitchwheel', channel=13, pitch=203, time=1),
    Message('pitchwheel', channel=13, pitch=284, time=0),
    Message('pitchwheel', channel=13, pitch=152, time=3),
    Message('pitchwheel', channel=13, pitch=50, time=1),
    Message('pitchwheel', channel=13, pitch=0, time=1),
    Message('note_on', channel=13, note=71, velocity=100, time=420),
    Message('pitchwheel', channel=13, pitch=200, time=80),
    Message('pitchwheel', channel=13, pitch=800, time=1),
    Message('pitchwheel', channel=13, pitch=600, time=0),
    Message('pitchwheel', channel=13, pitch=1165, time=4),
    Message('pitchwheel', channel=13, pitch=1897, time=1),
    Message('pitchwheel', channel=13, pitch=2263, time=1),
    Message('pitchwheel', channel=13, pitch=2739, time=4),
    Message('pitchwheel', channel=13, pitch=3693, time=1),
    Message('pitchwheel', channel=13, pitch=4170, time=1),
    Message('pitchwheel', channel=13, pitch=4548, time=2),
    Message('pitchwheel', channel=13, pitch=5306, time=2),
    Message('pitchwheel', channel=13, pitch=5685, time=1),
    Message('pitchwheel', channel=13, pitch=5986, time=3),
    Message('pitchwheel', channel=13, pitch=6588, time=1),
    Message('pitchwheel', channel=13, pitch=6889, time=2),
    Message('pitchwheel', channel=13, pitch=7146, time=2),
    Message('pitchwheel', channel=13, pitch=7918, time=2),
    Message('pitchwheel', channel=13, pitch=7660, time=0),
    Message('pitchwheel', channel=13, pitch=7986, time=4),
    Message('pitchwheel', channel=13, pitch=8122, time=1),
    Message('pitchwheel', channel=13, pitch=8191, time=2),
    Message('note_off', channel=13, note=71, velocity=64, time=77),
    Message('pitchwheel', channel=13, pitch=7816, time=45),
    Message('pitchwheel', channel=13, pitch=7066, time=1),
    Message('pitchwheel', channel=13, pitch=6691, time=1),
    Message('pitchwheel', channel=13, pitch=6284, time=3),
    Message('pitchwheel', channel=13, pitch=5471, time=2),
    Message('pitchwheel', channel=13, pitch=5065, time=1),
    Message('pitchwheel', channel=13, pitch=4683, time=4),
    Message('pitchwheel', channel=13, pitch=3921, time=1),
    Message('pitchwheel', channel=13, pitch=3540, time=1),
    Message('pitchwheel', channel=13, pitch=3195, time=3),
    Message('pitchwheel', channel=13, pitch=2506, time=1),
    Message('pitchwheel', channel=13, pitch=2162, time=1),
    Message('pitchwheel', channel=13, pitch=1522, time=3),
    Message('pitchwheel', channel=13, pitch=1948, time=0),
    Message('pitchwheel', channel=13, pitch=1309, time=2),
    Message('pitchwheel', channel=13, pitch=805, time=4),
    Message('pitchwheel', channel=13, pitch=1141, time=0),
    Message('pitchwheel', channel=13, pitch=637, time=1),
    Message('pitchwheel', channel=13, pitch=525, time=4),
    Message('pitchwheel', channel=13, pitch=301, time=1),
    Message('pitchwheel', channel=13, pitch=190, time=1),
    Message('pitchwheel', channel=13, pitch=142, time=4),
    Message('pitchwheel', channel=13, pitch=47, time=1),
    Message('pitchwheel', channel=13, pitch=0, time=1),
    Message('note_on', channel=13, note=71, velocity=100, time=490),
    Message('pitchwheel', channel=13, pitch=57, time=85),
    Message('pitchwheel', channel=13, pitch=172, time=1),
    Message('pitchwheel', channel=13, pitch=230, time=1),
    Message('pitchwheel', channel=13, pitch=477, time=3),
    Message('pitchwheel', channel=13, pitch=971, time=1),
    Message('pitchwheel', channel=13, pitch=1219, time=1),
    Message('pitchwheel', channel=13, pitch=1535, time=3),
    Message('pitchwheel', channel=13, pitch=2167, time=1),
    Message('pitchwheel', channel=13, pitch=2483, time=2),
    Message('pitchwheel', channel=13, pitch=2880, time=3),
    Message('pitchwheel', channel=13, pitch=4074, time=2),
    Message('pitchwheel', channel=13, pitch=3676, time=0),
    Message('pitchwheel', channel=13, pitch=4440, time=4),
    Message('pitchwheel', channel=13, pitch=5172, time=1),
    Message('pitchwheel', channel=13, pitch=5539, time=1),
    Message('pitchwheel', channel=13, pitch=7321, time=4),
    Message('pitchwheel', channel=13, pitch=6875, time=0),
    Message('pitchwheel', channel=13, pitch=5984, time=0),
    Message('pitchwheel', channel=13, pitch=7538, time=4),
    Message('pitchwheel', channel=13, pitch=8191, time=1),
    Message('pitchwheel', channel=13, pitch=7973, time=0),
    Message('note_off', channel=13, note=71, velocity=64, time=74),
    Message('pitchwheel', channel=13, pitch=7836, time=44),
    Message('pitchwheel', channel=13, pitch=7128, time=2),
    Message('pitchwheel', channel=13, pitch=6774, time=1),
    Message('pitchwheel', channel=13, pitch=6351, time=3),
    Message('pitchwheel', channel=13, pitch=5505, time=2),
    Message('pitchwheel', channel=13, pitch=5083, time=1),
    Message('pitchwheel', channel=13, pitch=4668, time=4),
    Message('pitchwheel', channel=13, pitch=3838, time=1),
    Message('pitchwheel', channel=13, pitch=3424, time=1),
    Message('pitchwheel', channel=13, pitch=3053, time=2),
    Message('pitchwheel', channel=13, pitch=2311, time=1),
    Message('pitchwheel', channel=13, pitch=1941, time=1),
    Message('pitchwheel', channel=13, pitch=1278, time=4),
    Message('pitchwheel', channel=13, pitch=1720, time=0),
    Message('pitchwheel', channel=13, pitch=1058, time=2),
    Message('pitchwheel', channel=13, pitch=901, time=2),
    Message('pitchwheel', channel=13, pitch=587, time=2),
    Message('pitchwheel', channel=13, pitch=431, time=1),
    Message('pitchwheel', channel=13, pitch=107, time=4),
    Message('pitchwheel', channel=13, pitch=323, time=0),
    Message('pitchwheel', channel=13, pitch=0, time=1),
    Message('note_on', channel=13, note=71, velocity=100, time=497),
    Message('pitchwheel', channel=13, pitch=78, time=84),
    Message('pitchwheel', channel=13, pitch=26, time=0),
    Message('pitchwheel', channel=13, pitch=105, time=2),
    Message('pitchwheel', channel=13, pitch=456, time=3),
    Message('pitchwheel', channel=13, pitch=1158, time=2),
    Message('pitchwheel', channel=13, pitch=1510, time=1),
    Message('pitchwheel', channel=13, pitch=2098, time=3),
    Message('pitchwheel', channel=13, pitch=3863, time=1),
    Message('pitchwheel', channel=13, pitch=3274, time=0),
    Message('pitchwheel', channel=13, pitch=4518, time=5),
    Message('pitchwheel', channel=13, pitch=5828, time=1),
    Message('pitchwheel', channel=13, pitch=6483, time=1),
    Message('pitchwheel', channel=13, pitch=6910, time=4),
    Message('pitchwheel', channel=13, pitch=7764, time=1),
    Message('pitchwheel', channel=13, pitch=8191, time=1),
    Message('note_off', channel=13, note=71, velocity=64, time=83),
    Message('pitchwheel', channel=13, pitch=6932, time=34),
    Message('pitchwheel', channel=13, pitch=7771, time=0),
    Message('pitchwheel', channel=13, pitch=6513, time=2),
    Message('pitchwheel', channel=13, pitch=6090, time=3),
    Message('pitchwheel', channel=13, pitch=5244, time=2),
    Message('pitchwheel', channel=13, pitch=4822, time=1),
    Message('pitchwheel', channel=13, pitch=4424, time=3),
    Message('pitchwheel', channel=13, pitch=3231, time=1),
    Message('pitchwheel', channel=13, pitch=3628, time=0),
    Message('pitchwheel', channel=13, pitch=2824, time=4),
    Message('pitchwheel', channel=13, pitch=1603, time=2),
    Message('pitchwheel', channel=13, pitch=2010, time=0),
    Message('pitchwheel', channel=13, pitch=1272, time=3),
    Message('pitchwheel', channel=13, pitch=611, time=1),
    Message('pitchwheel', channel=13, pitch=281, time=1),
    Message('pitchwheel', channel=13, pitch=210, time=4),
    Message('pitchwheel', channel=13, pitch=70, time=1),
    Message('pitchwheel', channel=13, pitch=0, time=1),
    Message('note_on', channel=13, note=71, velocity=100, time=513),
    Message('pitchwheel', channel=13, pitch=23, time=62),
    Message('pitchwheel', channel=13, pitch=71, time=1),
    Message('pitchwheel', channel=13, pitch=95, time=1),
    Message('pitchwheel', channel=13, pitch=411, time=4),
    Message('pitchwheel', channel=13, pitch=1045, time=1),
    Message('pitchwheel', channel=13, pitch=1362, time=1),
    Message('pitchwheel', channel=13, pitch=1772, time=4),
    Message('pitchwheel', channel=13, pitch=2594, time=1),
    Message('pitchwheel', channel=13, pitch=3005, time=1),
    Message('pitchwheel', channel=13, pitch=3608, time=2),
    Message('pitchwheel', channel=13, pitch=4814, time=1),
    Message('pitchwheel', channel=13, pitch=5417, time=2),
    Message('pitchwheel', channel=13, pitch=6034, time=3),
    Message('pitchwheel', channel=13, pitch=7268, time=1),
    Message('pitchwheel', channel=13, pitch=7885, time=1),
    Message('pitchwheel', channel=13, pitch=7961, time=4),
    Message('pitchwheel', channel=13, pitch=8114, time=1),
    Message('pitchwheel', channel=13, pitch=8191, time=1),
    Message('pitchwheel', channel=13, pitch=7871, time=79),
    Message('pitchwheel', channel=13, pitch=6914, time=2),
    Message('pitchwheel', channel=13, pitch=7233, time=0),
    Message('pitchwheel', channel=13, pitch=5649, time=4),
    Message('pitchwheel', channel=13, pitch=6492, time=0),
    Message('pitchwheel', channel=13, pitch=5228, time=2),
    Message('pitchwheel', channel=13, pitch=4790, time=3),
    Message('pitchwheel', channel=13, pitch=3914, time=2),
    Message('pitchwheel', channel=13, pitch=3477, time=1),
    Message('pitchwheel', channel=13, pitch=3038, time=2),
    Message('pitchwheel', channel=13, pitch=2160, time=1),
    Message('pitchwheel', channel=13, pitch=1721, time=1),
    Message('note_off', channel=13, note=71, velocity=64, time=3),
    Message('pitchwheel', channel=13, pitch=1353, time=1),
    Message('pitchwheel', channel=13, pitch=617, time=1),
    Message('pitchwheel', channel=13, pitch=250, time=1),
    Message('pitchwheel', channel=13, pitch=187, time=4),
    Message('pitchwheel', channel=13, pitch=62, time=1),
    Message('pitchwheel', channel=13, pitch=0, time=1),
    Message('note_on', channel=13, note=71, velocity=100, time=87),
    Message('pitchwheel', channel=13, pitch=397, time=90),
    Message('pitchwheel', channel=13, pitch=1192, time=1),
    Message('pitchwheel', channel=13, pitch=1590, time=1),
    Message('pitchwheel', channel=13, pitch=2236, time=3),
    Message('pitchwheel', channel=13, pitch=3528, time=1),
    Message('pitchwheel', channel=13, pitch=4175, time=2),
    Message('pitchwheel', channel=13, pitch=4986, time=3),
    Message('pitchwheel', channel=13, pitch=6609, time=1),
    Message('pitchwheel', channel=13, pitch=7421, time=1),
    Message('pitchwheel', channel=13, pitch=7613, time=3),
    Message('pitchwheel', channel=13, pitch=8191, time=2),
    Message('pitchwheel', channel=13, pitch=7998, time=0),
    Message('note_off', channel=13, note=71, velocity=64, time=84),
    Message('pitchwheel', channel=13, pitch=7954, time=66),
    Message('pitchwheel', channel=13, pitch=7480, time=1),
    Message('pitchwheel', channel=13, pitch=7243, time=2),
    Message('pitchwheel', channel=13, pitch=6521, time=3),
    Message('pitchwheel', channel=13, pitch=5077, time=1),
    Message('pitchwheel', channel=13, pitch=4355, time=2),
    Message('pitchwheel', channel=13, pitch=3788, time=2),
    Message('pitchwheel', channel=13, pitch=2654, time=2),
    Message('pitchwheel', channel=13, pitch=2087, time=1),
    Message('pitchwheel', channel=13, pitch=1565, time=4),
    Message('pitchwheel', channel=13, pitch=521, time=1),
    Message('pitchwheel', channel=13, pitch=0, time=1),
    Message('note_on', channel=13, note=71, velocity=100, time=10),
    Message('pitchwheel', channel=13, pitch=294, time=91),
    Message('pitchwheel', channel=13, pitch=884, time=1),
    Message('pitchwheel', channel=13, pitch=1179, time=1),
    Message('pitchwheel', channel=13, pitch=1661, time=4),
    Message('pitchwheel', channel=13, pitch=2625, time=1),
    Message('pitchwheel', channel=13, pitch=3108, time=1),
    Message('pitchwheel', channel=13, pitch=3668, time=2),
    Message('pitchwheel', channel=13, pitch=4788, time=1),
    Message('pitchwheel', channel=13, pitch=5349, time=2),
    Message('pitchwheel', channel=13, pitch=6955, time=3),
    Message('pitchwheel', channel=13, pitch=5884, time=0),
    Message('pitchwheel', channel=13, pitch=7491, time=2),
    Message('pitchwheel', channel=13, pitch=7666, time=3),
    Message('pitchwheel', channel=13, pitch=8191, time=2),
    Message('pitchwheel', channel=13, pitch=8016, time=0),
    Message('pitchwheel', channel=13, pitch=7567, time=173),
    Message('pitchwheel', channel=13, pitch=6319, time=1),
    Message('pitchwheel', channel=13, pitch=5695, time=1),
    Message('pitchwheel', channel=13, pitch=5082, time=3),
    Message('pitchwheel', channel=13, pitch=3858, time=1),
    Message('pitchwheel', channel=13, pitch=3246, time=1),
    Message('pitchwheel', channel=13, pitch=2778, time=3),
    Message('pitchwheel', channel=13, pitch=1842, time=1),
    Message('pitchwheel', channel=13, pitch=1374, time=2),
    Message('pitchwheel', channel=13, pitch=1030, time=3),
    Message('pitchwheel', channel=13, pitch=0, time=1),
    Message('pitchwheel', channel=13, pitch=343, time=0),
    Message('note_off', channel=13, note=71, velocity=64, time=272),
    Message('note_on', channel=13, note=71, velocity=100, time=192),
    Message('pitchwheel', channel=13, pitch=8, time=188),
    Message('pitchwheel', channel=13, pitch=24, time=2),
    Message('pitchwheel', channel=13, pitch=32, time=1),
    Message('pitchwheel', channel=13, pitch=82, time=3),
    Message('pitchwheel', channel=13, pitch=235, time=1),
    Message('pitchwheel', channel=13, pitch=184, time=0),
    Message('pitchwheel', channel=13, pitch=297, time=5),
    Message('pitchwheel', channel=13, pitch=255, time=0),
    Message('pitchwheel', channel=13, pitch=318, time=2),
    Message('pitchwheel', channel=13, pitch=328, time=2),
    Message('pitchwheel', channel=13, pitch=361, time=2),
    Message('pitchwheel', channel=13, pitch=350, time=0),
    Message('pitchwheel', channel=13, pitch=374, time=3),
    Message('pitchwheel', channel=13, pitch=402, time=2),
    Message('pitchwheel', channel=13, pitch=416, time=1),
    Message('pitchwheel', channel=13, pitch=442, time=4),
    Message('pitchwheel', channel=13, pitch=494, time=1),
    Message('pitchwheel', channel=13, pitch=521, time=1),
    Message('pitchwheel', channel=13, pitch=543, time=3),
    Message('pitchwheel', channel=13, pitch=589, time=2),
    Message('pitchwheel', channel=13, pitch=612, time=1),
    Message('pitchwheel', channel=13, pitch=651, time=3),
    Message('pitchwheel', channel=13, pitch=625, time=0),
    Message('pitchwheel', channel=13, pitch=664, time=2),
    Message('pitchwheel', channel=13, pitch=676, time=2),
    Message('pitchwheel', channel=13, pitch=700, time=1),
    Message('pitchwheel', channel=13, pitch=712, time=1),
    Message('pitchwheel', channel=13, pitch=737, time=4),
    Message('pitchwheel', channel=13, pitch=787, time=1),
    Message('pitchwheel', channel=13, pitch=812, time=1),
    Message('pitchwheel', channel=13, pitch=838, time=4),
    Message('pitchwheel', channel=13, pitch=891, time=1),
    Message('pitchwheel', channel=13, pitch=918, time=1),
    Message('pitchwheel', channel=13, pitch=944, time=3),
    Message('pitchwheel', channel=13, pitch=996, time=2),
    Message('pitchwheel', channel=13, pitch=1023, time=1),
    Message('pitchwheel', channel=13, pitch=1040, time=3),
    Message('pitchwheel', channel=13, pitch=1075, time=1),
    Message('pitchwheel', channel=13, pitch=1093, time=2),
    Message('pitchwheel', channel=13, pitch=1107, time=2),
    Message('pitchwheel', channel=13, pitch=1135, time=1),
    Message('pitchwheel', channel=13, pitch=1149, time=1),
    Message('pitchwheel', channel=13, pitch=1195, time=4),
    Message('pitchwheel', channel=13, pitch=1164, time=0),
    Message('pitchwheel', channel=13, pitch=1211, time=2),
    Message('pitchwheel', channel=13, pitch=1216, time=3),
    Message('pitchwheel', channel=13, pitch=1226, time=1),
    Message('pitchwheel', channel=13, pitch=1231, time=1),
    Message('pitchwheel', channel=13, pitch=1159, time=13),
    Message('pitchwheel', channel=13, pitch=1015, time=2),
    Message('pitchwheel', channel=13, pitch=943, time=1),
    Message('pitchwheel', channel=13, pitch=850, time=4),
    Message('pitchwheel', channel=13, pitch=664, time=1),
    Message('pitchwheel', channel=13, pitch=572, time=1),
    Message('pitchwheel', channel=13, pitch=465, time=3),
    Message('pitchwheel', channel=13, pitch=251, time=2),
    Message('pitchwheel', channel=13, pitch=145, time=1),
    Message('pitchwheel', channel=13, pitch=108, time=3),
    Message('pitchwheel', channel=13, pitch=36, time=1),
    Message('pitchwheel', channel=13, pitch=0, time=1),
    Message('pitchwheel', channel=13, pitch=-78, time=117),
    Message('pitchwheel', channel=13, pitch=-26, time=0),
    Message('pitchwheel', channel=13, pitch=-104, time=2),
    Message('pitchwheel', channel=13, pitch=-167, time=4),
    Message('pitchwheel', channel=13, pitch=-293, time=1),
    Message('pitchwheel', channel=13, pitch=-355, time=1),
    Message('pitchwheel', channel=13, pitch=-382, time=3),
    Message('pitchwheel', channel=13, pitch=-436, time=2),
    Message('pitchwheel', channel=13, pitch=-462, time=1),
    Message('pitchwheel', channel=13, pitch=-463, time=3),
    Message('pitchwheel', channel=13, pitch=-465, time=1),
    Message('pitchwheel', channel=13, pitch=-501, time=5),
    Message('pitchwheel', channel=13, pitch=-606, time=1),
    Message('pitchwheel', channel=13, pitch=-571, time=0),
    Message('pitchwheel', channel=13, pitch=-708, time=4),
    Message('pitchwheel', channel=13, pitch=-640, time=0),
    Message('pitchwheel', channel=13, pitch=-742, time=1),
    Message('pitchwheel', channel=13, pitch=-745, time=4),
    Message('pitchwheel', channel=13, pitch=-743, time=0),
    Message('pitchwheel', channel=13, pitch=-746, time=2),
    Message('pitchwheel', channel=13, pitch=-780, time=3),
    Message('pitchwheel', channel=13, pitch=-846, time=1),
    Message('pitchwheel', channel=13, pitch=-879, time=2),
    Message('pitchwheel', channel=13, pitch=-880, time=3),
    Message('pitchwheel', channel=13, pitch=-882, time=1),
    Message('pitchwheel', channel=13, pitch=-883, time=5),
    Message('pitchwheel', channel=13, pitch=-885, time=1),
    Message('pitchwheel', channel=13, pitch=-886, time=1),
    Message('pitchwheel', channel=13, pitch=-928, time=3),
    Message('pitchwheel', channel=13, pitch=-1011, time=1),
    Message('pitchwheel', channel=13, pitch=-1052, time=1),
    Message('pitchwheel', channel=13, pitch=-1053, time=3),
    Message('pitchwheel', channel=13, pitch=-1055, time=1),
    Message('pitchwheel', channel=13, pitch=-1056, time=2),
    Message('pitchwheel', channel=13, pitch=-1113, time=3),
    Message('pitchwheel', channel=13, pitch=-1225, time=1),
    Message('pitchwheel', channel=13, pitch=-1281, time=1),
    Message('pitchwheel', channel=13, pitch=-1381, time=4),
    Message('pitchwheel', channel=13, pitch=-1356, time=0),
    Message('pitchwheel', channel=13, pitch=-1306, time=0),
    Message('pitchwheel', channel=13, pitch=-1382, time=5),
    Message('pitchwheel', channel=13, pitch=-1384, time=2),
    Message('pitchwheel', channel=13, pitch=-1525, time=3),
    Message('pitchwheel', channel=13, pitch=-1431, time=0),
    Message('pitchwheel', channel=13, pitch=-1572, time=2),
    Message('pitchwheel', channel=13, pitch=-1609, time=3),
    Message('pitchwheel', channel=13, pitch=-1683, time=2),
    Message('pitchwheel', channel=13, pitch=-1720, time=1),
    Message('pitchwheel', channel=13, pitch=-1763, time=3),
    Message('pitchwheel', channel=13, pitch=-1848, time=1),
    Message('pitchwheel', channel=13, pitch=-1890, time=2),
    Message('pitchwheel', channel=13, pitch=-1922, time=3),
    Message('pitchwheel', channel=13, pitch=-1984, time=1),
    Message('pitchwheel', channel=13, pitch=-2015, time=1),
    Message('pitchwheel', channel=13, pitch=-2016, time=3),
    Message('pitchwheel', channel=13, pitch=-2018, time=1),
    Message('pitchwheel', channel=13, pitch=-2019, time=1),
    Message('pitchwheel', channel=13, pitch=-2020, time=3),
    Message('pitchwheel', channel=13, pitch=-2023, time=1),
    Message('pitchwheel', channel=13, pitch=-2022, time=0),
    Message('pitchwheel', channel=13, pitch=-2058, time=4),
    Message('pitchwheel', channel=13, pitch=-2128, time=1),
    Message('pitchwheel', channel=13, pitch=-2163, time=1),
    Message('pitchwheel', channel=13, pitch=-2164, time=4),
    Message('pitchwheel', channel=13, pitch=-2166, time=1),
    Message('pitchwheel', channel=13, pitch=-2167, time=2),
    Message('pitchwheel', channel=13, pitch=-2196, time=3),
    Message('pitchwheel', channel=13, pitch=-2253, time=1),
    Message('pitchwheel', channel=13, pitch=-2281, time=1),
    Message('pitchwheel', channel=13, pitch=-2282, time=4),
    Message('pitchwheel', channel=13, pitch=-2284, time=1),
    Message('pitchwheel', channel=13, pitch=-2285, time=1),
    Message('pitchwheel', channel=13, pitch=-2316, time=2),
    Message('pitchwheel', channel=13, pitch=-2406, time=2),
    Message('pitchwheel', channel=13, pitch=-2376, time=0),
    Message('pitchwheel', channel=13, pitch=-2407, time=4),
    Message('pitchwheel', channel=13, pitch=-2409, time=1),
    Message('pitchwheel', channel=13, pitch=-2410, time=1),
    Message('pitchwheel', channel=13, pitch=-2411, time=3),
    Message('pitchwheel', channel=13, pitch=-2414, time=2),
    Message('pitchwheel', channel=13, pitch=-2413, time=0),
    Message('pitchwheel', channel=13, pitch=-2514, time=4),
    Message('pitchwheel', channel=13, pitch=-2448, time=0),
    Message('pitchwheel', channel=13, pitch=-2547, time=3),
    Message('pitchwheel', channel=13, pitch=-2573, time=3),
    Message('pitchwheel', channel=13, pitch=-2625, time=1),
    Message('pitchwheel', channel=13, pitch=-2650, time=1),
    Message('pitchwheel', channel=13, pitch=-2674, time=2),
    Message('pitchwheel', channel=13, pitch=-2722, time=2),
    Message('pitchwheel', channel=13, pitch=-2746, time=1),
    Message('pitchwheel', channel=13, pitch=-2747, time=3),
    Message('pitchwheel', channel=13, pitch=-2749, time=1),
    Message('pitchwheel', channel=13, pitch=-2750, time=2),
    Message('pitchwheel', channel=13, pitch=-2786, time=2),
    Message('pitchwheel', channel=13, pitch=-2858, time=2),
    Message('pitchwheel', channel=13, pitch=-2894, time=1),
    Message('pitchwheel', channel=13, pitch=-2897, time=4),
    Message('pitchwheel', channel=13, pitch=-2895, time=0),
    Message('pitchwheel', channel=13, pitch=-2928, time=4),
    Message('pitchwheel', channel=13, pitch=-2989, time=1),
    Message('pitchwheel', channel=13, pitch=-3019, time=2),
    Message('pitchwheel', channel=13, pitch=-3020, time=2),
    Message('pitchwheel', channel=13, pitch=-3022, time=2),
    Message('pitchwheel', channel=13, pitch=-3023, time=1),
    Message('pitchwheel', channel=13, pitch=-3046, time=3),
    Message('pitchwheel', channel=13, pitch=-3092, time=1),
    Message('pitchwheel', channel=13, pitch=-3115, time=2),
    Message('pitchwheel', channel=13, pitch=-3116, time=3),
    Message('pitchwheel', channel=13, pitch=-3118, time=1),
    Message('pitchwheel', channel=13, pitch=-3119, time=1),
    Message('pitchwheel', channel=13, pitch=-3157, time=4),
    Message('pitchwheel', channel=13, pitch=-3233, time=1),
    Message('pitchwheel', channel=13, pitch=-3270, time=1),
    Message('pitchwheel', channel=13, pitch=-3273, time=4),
    Message('pitchwheel', channel=13, pitch=-3271, time=0),
    Message('pitchwheel', channel=13, pitch=-3274, time=1),
    Message('pitchwheel', channel=13, pitch=-3297, time=2),
    Message('pitchwheel', channel=13, pitch=-3366, time=2),
    Message('pitchwheel', channel=13, pitch=-3343, time=0),
    Message('pitchwheel', channel=13, pitch=-3367, time=4),
    Message('pitchwheel', channel=13, pitch=-3369, time=1),
    Message('pitchwheel', channel=13, pitch=-3370, time=2),
    Message('pitchwheel', channel=13, pitch=-3410, time=3),
    Message('pitchwheel', channel=13, pitch=-3528, time=2),
    Message('pitchwheel', channel=13, pitch=-3489, time=0),
    Message('pitchwheel', channel=13, pitch=-3529, time=4),
    Message('pitchwheel', channel=13, pitch=-3531, time=1),
    Message('pitchwheel', channel=13, pitch=-3532, time=1),
    Message('pitchwheel', channel=13, pitch=-3561, time=4),
    Message('pitchwheel', channel=13, pitch=-3618, time=1),
    Message('pitchwheel', channel=13, pitch=-3646, time=1),
    Message('pitchwheel', channel=13, pitch=-3647, time=2),
    Message('pitchwheel', channel=13, pitch=-3649, time=1),
    Message('pitchwheel', channel=13, pitch=-3650, time=2),
    Message('pitchwheel', channel=13, pitch=-3761, time=3),
    Message('pitchwheel', channel=13, pitch=-3687, time=0),
    Message('pitchwheel', channel=13, pitch=-3798, time=2),
    Message('pitchwheel', channel=13, pitch=-3799, time=3),
    Message('pitchwheel', channel=13, pitch=-3801, time=1),
    Message('pitchwheel', channel=13, pitch=-3802, time=5),
    Message('pitchwheel', channel=13, pitch=-3804, time=1),
    Message('pitchwheel', channel=13, pitch=-3805, time=1),
    Message('pitchwheel', channel=13, pitch=-3844, time=3),
    Message('pitchwheel', channel=13, pitch=-3922, time=2),
    Message('pitchwheel', channel=13, pitch=-3960, time=1),
    Message('pitchwheel', channel=13, pitch=-3961, time=2),
    Message('pitchwheel', channel=13, pitch=-3963, time=1),
    Message('pitchwheel', channel=13, pitch=-3964, time=2),
    Message('pitchwheel', channel=13, pitch=-3965, time=3),
    Message('pitchwheel', channel=13, pitch=-3967, time=1),
    Message('pitchwheel', channel=13, pitch=-3996, time=5),
    Message('pitchwheel', channel=13, pitch=-4054, time=1),
    Message('pitchwheel', channel=13, pitch=-4082, time=1),
    Message('pitchwheel', channel=13, pitch=-4085, time=4),
    Message('pitchwheel', channel=13, pitch=-4083, time=0),
    Message('pitchwheel', channel=13, pitch=-4112, time=5),
    Message('pitchwheel', channel=13, pitch=-4166, time=1),
    Message('pitchwheel', channel=13, pitch=-4192, time=1),
    Message('pitchwheel', channel=13, pitch=-4219, time=2),
    Message('pitchwheel', channel=13, pitch=-4273, time=2),
    Message('pitchwheel', channel=13, pitch=-4299, time=1),
    Message('pitchwheel', channel=13, pitch=-4300, time=3),
    Message('pitchwheel', channel=13, pitch=-4302, time=1),
    Message('pitchwheel', channel=13, pitch=-4303, time=1),
    Message('pitchwheel', channel=13, pitch=-4326, time=4),
    Message('pitchwheel', channel=13, pitch=-4372, time=1),
    Message('pitchwheel', channel=13, pitch=-4395, time=1),
    Message('pitchwheel', channel=13, pitch=-4396, time=4),
    Message('pitchwheel', channel=13, pitch=-4398, time=1),
    Message('pitchwheel', channel=13, pitch=-4399, time=1),
    Message('pitchwheel', channel=13, pitch=-4438, time=3),
    Message('pitchwheel', channel=13, pitch=-4554, time=2),
    Message('pitchwheel', channel=13, pitch=-4516, time=0),
    Message('pitchwheel', channel=13, pitch=-4580, time=3),
    Message('pitchwheel', channel=13, pitch=-4657, time=1),
    Message('pitchwheel', channel=13, pitch=-4632, time=0),
    Message('pitchwheel', channel=13, pitch=-4658, time=4),
    Message('pitchwheel', channel=13, pitch=-4660, time=2),
    Message('pitchwheel', channel=13, pitch=-4661, time=1),
    Message('pitchwheel', channel=13, pitch=-4694, time=3),
    Message('pitchwheel', channel=13, pitch=-4758, time=1),
    Message('pitchwheel', channel=13, pitch=-4790, time=1),
    Message('pitchwheel', channel=13, pitch=-4791, time=4),
    Message('pitchwheel', channel=13, pitch=-4793, time=1),
    Message('pitchwheel', channel=13, pitch=-4794, time=1),
    Message('pitchwheel', channel=13, pitch=-4827, time=4),
    Message('pitchwheel', channel=13, pitch=-4891, time=1),
    Message('pitchwheel', channel=13, pitch=-4923, time=1),
    Message('pitchwheel', channel=13, pitch=-4947, time=2),
    Message('pitchwheel', channel=13, pitch=-4995, time=1),
    Message('pitchwheel', channel=13, pitch=-5019, time=1),
    Message('pitchwheel', channel=13, pitch=-5022, time=4),
    Message('pitchwheel', channel=13, pitch=-5020, time=0),
    Message('pitchwheel', channel=13, pitch=-5023, time=2),
    Message('pitchwheel', channel=13, pitch=-5056, time=3),
    Message('pitchwheel', channel=13, pitch=-5152, time=2),
    Message('pitchwheel', channel=13, pitch=-5120, time=0),
    Message('pitchwheel', channel=13, pitch=-5153, time=4),
    Message('pitchwheel', channel=13, pitch=-5155, time=1),
    Message('pitchwheel', channel=13, pitch=-5156, time=1),
    Message('pitchwheel', channel=13, pitch=-5180, time=4),
    Message('pitchwheel', channel=13, pitch=-5228, time=1),
    Message('pitchwheel', channel=13, pitch=-5251, time=1),
    Message('pitchwheel', channel=13, pitch=-5252, time=2),
    Message('pitchwheel', channel=13, pitch=-5254, time=1),
    Message('pitchwheel', channel=13, pitch=-5255, time=2),
    Message('pitchwheel', channel=13, pitch=-5285, time=3),
    Message('pitchwheel', channel=13, pitch=-5344, time=1),
    Message('pitchwheel', channel=13, pitch=-5373, time=1),
    Message('pitchwheel', channel=13, pitch=-5374, time=4),
    Message('pitchwheel', channel=13, pitch=-5376, time=1),
    Message('pitchwheel', channel=13, pitch=-5377, time=1),
    Message('pitchwheel', channel=13, pitch=-5378, time=3),
    Message('pitchwheel', channel=13, pitch=-5381, time=2),
    Message('pitchwheel', channel=13, pitch=-5380, time=0),
    Message('pitchwheel', channel=13, pitch=-5480, time=4),
    Message('pitchwheel', channel=13, pitch=-5414, time=0),
    Message('pitchwheel', channel=13, pitch=-5513, time=1),
    Message('pitchwheel', channel=13, pitch=-5516, time=3),
    Message('pitchwheel', channel=13, pitch=-5514, time=0),
    Message('pitchwheel', channel=13, pitch=-5517, time=3),
    Message('pitchwheel', channel=13, pitch=-5518, time=3),
    Message('pitchwheel', channel=13, pitch=-5520, time=1),
    Message('pitchwheel', channel=13, pitch=-5521, time=1),
    Message('pitchwheel', channel=13, pitch=-5626, time=4),
    Message('pitchwheel', channel=13, pitch=-5556, time=0),
    Message('pitchwheel', channel=13, pitch=-5661, time=2),
    Message('pitchwheel', channel=13, pitch=-5662, time=4),
    Message('pitchwheel', channel=13, pitch=-5664, time=1),
    Message('pitchwheel', channel=13, pitch=-5665, time=1),
    Message('pitchwheel', channel=13, pitch=-5666, time=3),
    Message('pitchwheel', channel=13, pitch=-5668, time=1),
    Message('pitchwheel', channel=13, pitch=-5671, time=4),
    Message('pitchwheel', channel=13, pitch=-5669, time=0),
    Message('pitchwheel', channel=13, pitch=-5672, time=1),
    Message('pitchwheel', channel=13, pitch=-5753, time=4),
    Message('pitchwheel', channel=13, pitch=-5699, time=0),
    Message('pitchwheel', channel=13, pitch=-5779, time=2),
    Message('pitchwheel', channel=13, pitch=-5780, time=3),
    Message('pitchwheel', channel=13, pitch=-5782, time=2),
    Message('pitchwheel', channel=13, pitch=-5783, time=1),
    Message('pitchwheel', channel=13, pitch=-5784, time=3),
    Message('pitchwheel', channel=13, pitch=-5787, time=2),
    Message('pitchwheel', channel=13, pitch=-5786, time=0),
    Message('pitchwheel', channel=13, pitch=-5816, time=4),
    Message('pitchwheel', channel=13, pitch=-5873, time=2),
    Message('pitchwheel', channel=13, pitch=-5901, time=1),
    Message('pitchwheel', channel=13, pitch=-5902, time=2),
    Message('pitchwheel', channel=13, pitch=-5904, time=1),
    Message('pitchwheel', channel=13, pitch=-5905, time=1),
    Message('pitchwheel', channel=13, pitch=-5994, time=4),
    Message('pitchwheel', channel=13, pitch=-5935, time=0),
    Message('pitchwheel', channel=13, pitch=-6023, time=2),
    Message('pitchwheel', channel=13, pitch=-6024, time=3),
    Message('pitchwheel', channel=13, pitch=-6026, time=2),
    Message('pitchwheel', channel=13, pitch=-6118, time=4),
    Message('pitchwheel', channel=13, pitch=-6057, time=0),
    Message('pitchwheel', channel=13, pitch=-6148, time=2),
    Message('pitchwheel', channel=13, pitch=-6171, time=3),
    Message('pitchwheel', channel=13, pitch=-6217, time=1),
    Message('pitchwheel', channel=13, pitch=-6240, time=2),
    Message('pitchwheel', channel=13, pitch=-6241, time=1),
    Message('pitchwheel', channel=13, pitch=-6243, time=2),
    Message('pitchwheel', channel=13, pitch=-6244, time=1),
    Message('pitchwheel', channel=13, pitch=-6267, time=4),
    Message('pitchwheel', channel=13, pitch=-6313, time=1),
    Message('pitchwheel', channel=13, pitch=-6336, time=1),
    Message('pitchwheel', channel=13, pitch=-6337, time=4),
    Message('pitchwheel', channel=13, pitch=-6339, time=1),
    Message('pitchwheel', channel=13, pitch=-6340, time=1),
    Message('pitchwheel', channel=13, pitch=-6341, time=3),
    Message('pitchwheel', channel=13, pitch=-6344, time=2),
    Message('pitchwheel', channel=13, pitch=-6343, time=0),
    Message('pitchwheel', channel=13, pitch=-6369, time=4),
    Message('pitchwheel', channel=13, pitch=-6443, time=1),
    Message('pitchwheel', channel=13, pitch=-6419, time=0),
    Message('pitchwheel', channel=13, pitch=-6444, time=3),
    Message('pitchwheel', channel=13, pitch=-6446, time=1),
    Message('pitchwheel', channel=13, pitch=-6447, time=1),
    Message('pitchwheel', channel=13, pitch=-6448, time=3),
    Message('pitchwheel', channel=13, pitch=-6450, time=2),
    Message('pitchwheel', channel=13, pitch=-6451, time=1),
    Message('pitchwheel', channel=13, pitch=-6526, time=4),
    Message('pitchwheel', channel=13, pitch=-6476, time=0),
    Message('pitchwheel', channel=13, pitch=-6550, time=1),
    Message('pitchwheel', channel=13, pitch=-6551, time=4),
    Message('pitchwheel', channel=13, pitch=-6553, time=2),
    Message('pitchwheel', channel=13, pitch=-6554, time=1),
    Message('pitchwheel', channel=13, pitch=-6580, time=3),
    Message('pitchwheel', channel=13, pitch=-6632, time=1),
    Message('pitchwheel', channel=13, pitch=-6657, time=1),
    Message('pitchwheel', channel=13, pitch=-6658, time=3),
    Message('pitchwheel', channel=13, pitch=-6661, time=2),
    Message('pitchwheel', channel=13, pitch=-6660, time=0),
    Message('pitchwheel', channel=13, pitch=-6664, time=3),
    Message('pitchwheel', channel=13, pitch=-6662, time=0),
    Message('pitchwheel', channel=13, pitch=-6665, time=2),
    Message('pitchwheel', channel=13, pitch=-6666, time=4),
    Message('pitchwheel', channel=13, pitch=-6668, time=1),
    Message('pitchwheel', channel=13, pitch=-6692, time=4),
    Message('pitchwheel', channel=13, pitch=-6738, time=1),
    Message('pitchwheel', channel=13, pitch=-6761, time=1),
    Message('pitchwheel', channel=13, pitch=-6762, time=4),
    Message('pitchwheel', channel=13, pitch=-6764, time=1),
    Message('pitchwheel', channel=13, pitch=-6765, time=4),
    Message('pitchwheel', channel=13, pitch=-6767, time=1),
    Message('pitchwheel', channel=13, pitch=-6768, time=1),
    Message('pitchwheel', channel=13, pitch=-6769, time=4),
    Message('pitchwheel', channel=13, pitch=-6771, time=1),
    Message('pitchwheel', channel=13, pitch=-6772, time=1),
    Message('pitchwheel', channel=13, pitch=-6773, time=3),
    Message('pitchwheel', channel=13, pitch=-6776, time=2),
    Message('pitchwheel', channel=13, pitch=-6775, time=0),
    Message('pitchwheel', channel=13, pitch=-6804, time=4),
    Message('pitchwheel', channel=13, pitch=-6859, time=1),
    Message('pitchwheel', channel=13, pitch=-6886, time=1),
    Message('pitchwheel', channel=13, pitch=-6887, time=3),
    Message('pitchwheel', channel=13, pitch=-6889, time=1),
    Message('pitchwheel', channel=13, pitch=-6890, time=2),
    Message('pitchwheel', channel=13, pitch=-6891, time=2),
    Message('pitchwheel', channel=13, pitch=-6893, time=1),
    Message('pitchwheel', channel=13, pitch=-6894, time=1),
    Message('pitchwheel', channel=13, pitch=-6895, time=4),
    Message('pitchwheel', channel=13, pitch=-6897, time=1),
    Message('pitchwheel', channel=13, pitch=-6898, time=4),
    Message('pitchwheel', channel=13, pitch=-6900, time=2),
    Message('pitchwheel', channel=13, pitch=-6901, time=1),
    Message('pitchwheel', channel=13, pitch=-6902, time=3),
    Message('pitchwheel', channel=13, pitch=-6904, time=1),
    Message('pitchwheel', channel=13, pitch=-6905, time=1),
    Message('pitchwheel', channel=13, pitch=-6988, time=4),
    Message('pitchwheel', channel=13, pitch=-6933, time=0),
    Message('pitchwheel', channel=13, pitch=-7015, time=2),
    Message('pitchwheel', channel=13, pitch=-7018, time=2),
    Message('pitchwheel', channel=13, pitch=-7016, time=0),
    Message('pitchwheel', channel=13, pitch=-7019, time=1),
    Message('pitchwheel', channel=13, pitch=-7020, time=4),
    Message('pitchwheel', channel=13, pitch=-7022, time=2),
    Message('pitchwheel', channel=13, pitch=-7023, time=1),
    Message('pitchwheel', channel=13, pitch=-7026, time=4),
    Message('pitchwheel', channel=13, pitch=-7024, time=0),
    Message('pitchwheel', channel=13, pitch=-7027, time=5),
    Message('pitchwheel', channel=13, pitch=-7029, time=1),
    Message('pitchwheel', channel=13, pitch=-7030, time=2),
    Message('pitchwheel', channel=13, pitch=-7055, time=3),
    Message('pitchwheel', channel=13, pitch=-7105, time=1),
    Message('pitchwheel', channel=13, pitch=-7130, time=1),
    Message('pitchwheel', channel=13, pitch=-7131, time=19),
    Message('pitchwheel', channel=13, pitch=-7133, time=2),
    Message('pitchwheel', channel=13, pitch=-7134, time=4),
    Message('pitchwheel', channel=13, pitch=-7136, time=1),
    Message('pitchwheel', channel=13, pitch=-7137, time=1),
    Message('pitchwheel', channel=13, pitch=-7162, time=3),
    Message('pitchwheel', channel=13, pitch=-7212, time=1),
    Message('pitchwheel', channel=13, pitch=-7237, time=1),
    Message('pitchwheel', channel=13, pitch=-7238, time=3),
    Message('pitchwheel', channel=13, pitch=-7240, time=2),
    Message('pitchwheel', channel=13, pitch=-7241, time=4),
    Message('pitchwheel', channel=13, pitch=-7243, time=1),
    Message('pitchwheel', channel=13, pitch=-7244, time=1),
    Message('pitchwheel', channel=13, pitch=-7247, time=4),
    Message('pitchwheel', channel=13, pitch=-7245, time=0),
    Message('pitchwheel', channel=13, pitch=-7248, time=2),
    Message('pitchwheel', channel=13, pitch=-7249, time=3),
    Message('pitchwheel', channel=13, pitch=-7252, time=2),
    Message('pitchwheel', channel=13, pitch=-7251, time=0),
    Message('pitchwheel', channel=13, pitch=-7255, time=3),
    Message('pitchwheel', channel=13, pitch=-7253, time=0),
    Message('pitchwheel', channel=13, pitch=-7281, time=6),
    Message('pitchwheel', channel=13, pitch=-7359, time=1),
    Message('pitchwheel', channel=13, pitch=-7333, time=0),
    Message('pitchwheel', channel=13, pitch=-7360, time=4),
    Message('pitchwheel', channel=13, pitch=-7362, time=1),
    Message('pitchwheel', channel=13, pitch=-7363, time=5),
    Message('pitchwheel', channel=13, pitch=-7365, time=1),
    Message('pitchwheel', channel=13, pitch=-7366, time=1),
    Message('pitchwheel', channel=13, pitch=-7369, time=4),
    Message('pitchwheel', channel=13, pitch=-7367, time=0),
    Message('pitchwheel', channel=13, pitch=-7370, time=1),
    Message('pitchwheel', channel=13, pitch=-7371, time=3),
    Message('pitchwheel', channel=13, pitch=-7373, time=1),
    Message('pitchwheel', channel=13, pitch=-7374, time=4),
    Message('pitchwheel', channel=13, pitch=-7376, time=2),
    Message('pitchwheel', channel=13, pitch=-7377, time=1),
    Message('pitchwheel', channel=13, pitch=-7378, time=3),
    Message('pitchwheel', channel=13, pitch=-7380, time=1),
    Message('pitchwheel', channel=13, pitch=-7381, time=2),
    Message('pitchwheel', channel=13, pitch=-7382, time=3),
    Message('pitchwheel', channel=13, pitch=-7384, time=1),
    Message('pitchwheel', channel=13, pitch=-7409, time=5),
    Message('pitchwheel', channel=13, pitch=-7459, time=1),
    Message('pitchwheel', channel=13, pitch=-7484, time=1),
    Message('pitchwheel', channel=13, pitch=-7485, time=3),
    Message('pitchwheel', channel=13, pitch=-7487, time=1),
    Message('pitchwheel', channel=13, pitch=-7488, time=1),
    Message('pitchwheel', channel=13, pitch=-7489, time=14),
    Message('pitchwheel', channel=13, pitch=-7491, time=1),
    Message('pitchwheel', channel=13, pitch=-7492, time=5),
    Message('pitchwheel', channel=13, pitch=-7494, time=1),
    Message('pitchwheel', channel=13, pitch=-7495, time=1),
    Message('pitchwheel', channel=13, pitch=-7496, time=3),
    Message('pitchwheel', channel=13, pitch=-7498, time=1),
    Message('pitchwheel', channel=13, pitch=-7499, time=1),
    Message('pitchwheel', channel=13, pitch=-7500, time=3),
    Message('pitchwheel', channel=13, pitch=-7502, time=2),
    Message('pitchwheel', channel=13, pitch=-7527, time=4),
    Message('pitchwheel', channel=13, pitch=-7577, time=1),
    Message('pitchwheel', channel=13, pitch=-7602, time=1),
    Message('pitchwheel', channel=13, pitch=-7603, time=4),
    Message('pitchwheel', channel=13, pitch=-7606, time=1),
    Message('pitchwheel', channel=13, pitch=-7605, time=0),
    Message('pitchwheel', channel=13, pitch=-7607, time=4),
    Message('pitchwheel', channel=13, pitch=-7609, time=1),
    Message('pitchwheel', channel=13, pitch=-7610, time=4),
    Message('pitchwheel', channel=13, pitch=-7612, time=1),
    Message('pitchwheel', channel=13, pitch=-7613, time=1),
    Message('pitchwheel', channel=13, pitch=-7614, time=3),
    Message('pitchwheel', channel=13, pitch=-7616, time=2),
    Message('pitchwheel', channel=13, pitch=-7617, time=1),
    Message('pitchwheel', channel=13, pitch=-7618, time=3),
    Message('pitchwheel', channel=13, pitch=-7620, time=1),
    Message('pitchwheel', channel=13, pitch=-7621, time=1),
    Message('pitchwheel', channel=13, pitch=-7622, time=4),
    Message('pitchwheel', channel=13, pitch=-7624, time=1),
    Message('pitchwheel', channel=13, pitch=-7625, time=5),
    Message('pitchwheel', channel=13, pitch=-7628, time=1),
    Message('pitchwheel', channel=13, pitch=-7627, time=0),
    Message('pitchwheel', channel=13, pitch=-7629, time=3),
    Message('pitchwheel', channel=13, pitch=-7631, time=1),
    Message('pitchwheel', channel=13, pitch=-7632, time=1),
    Message('pitchwheel', channel=13, pitch=-7657, time=3),
    Message('pitchwheel', channel=13, pitch=-7707, time=1),
    Message('pitchwheel', channel=13, pitch=-7731, time=2),
    Message('pitchwheel', channel=13, pitch=-7732, time=3),
    Message('pitchwheel', channel=13, pitch=-7734, time=1),
    Message('pitchwheel', channel=13, pitch=-7735, time=2),
    Message('pitchwheel', channel=13, pitch=-7736, time=2),
    Message('pitchwheel', channel=13, pitch=-7738, time=2),
    Message('pitchwheel', channel=13, pitch=-7739, time=1),
    Message('pitchwheel', channel=13, pitch=-7740, time=4),
    Message('pitchwheel', channel=13, pitch=-7742, time=1),
    Message('pitchwheel', channel=13, pitch=-7743, time=3),
    Message('pitchwheel', channel=13, pitch=-7745, time=2),
    Message('pitchwheel', channel=13, pitch=-7746, time=1),
    Message('pitchwheel', channel=13, pitch=-7749, time=3),
    Message('pitchwheel', channel=13, pitch=-7747, time=0),
    Message('pitchwheel', channel=13, pitch=-7750, time=2),
    Message('pitchwheel', channel=13, pitch=-7776, time=4),
    Message('pitchwheel', channel=13, pitch=-7853, time=1),
    Message('pitchwheel', channel=13, pitch=-7828, time=0),
    Message('pitchwheel', channel=13, pitch=-7854, time=4),
    Message('pitchwheel', channel=13, pitch=-7856, time=1),
    Message('pitchwheel', channel=13, pitch=-7857, time=2),
    Message('pitchwheel', channel=13, pitch=-7858, time=3),
    Message('pitchwheel', channel=13, pitch=-7860, time=1),
    Message('pitchwheel', channel=13, pitch=-7861, time=3),
    Message('pitchwheel', channel=13, pitch=-7863, time=2),
    Message('pitchwheel', channel=13, pitch=-7864, time=1),
    Message('pitchwheel', channel=13, pitch=-7899, time=3),
    Message('pitchwheel', channel=13, pitch=-7967, time=1),
    Message('pitchwheel', channel=13, pitch=-8001, time=1),
    Message('pitchwheel', channel=13, pitch=-8002, time=4),
    Message('pitchwheel', channel=13, pitch=-8004, time=1),
    Message('pitchwheel', channel=13, pitch=-8005, time=5),
    Message('pitchwheel', channel=13, pitch=-8008, time=1),
    Message('pitchwheel', channel=13, pitch=-8007, time=0),
    Message('pitchwheel', channel=13, pitch=-8009, time=4),
    Message('pitchwheel', channel=13, pitch=-8012, time=1),
    Message('pitchwheel', channel=13, pitch=-8011, time=0),
    Message('pitchwheel', channel=13, pitch=-8037, time=3),
    Message('pitchwheel', channel=13, pitch=-8087, time=1),
    Message('pitchwheel', channel=13, pitch=-8111, time=1),
    Message('pitchwheel', channel=13, pitch=-8112, time=4),
    Message('pitchwheel', channel=13, pitch=-8114, time=1),
    Message('pitchwheel', channel=13, pitch=-8115, time=1),
    Message('pitchwheel', channel=13, pitch=-8116, time=4),
    Message('pitchwheel', channel=13, pitch=-8118, time=1),
    Message('pitchwheel', channel=13, pitch=-8119, time=1),
    Message('pitchwheel', channel=13, pitch=-8120, time=4),
    Message('pitchwheel', channel=13, pitch=-8122, time=1),
    Message('pitchwheel', channel=13, pitch=-8123, time=5),
    Message('pitchwheel', channel=13, pitch=-8126, time=1),
    Message('pitchwheel', channel=13, pitch=-8125, time=0),
    Message('pitchwheel', channel=13, pitch=-8129, time=3),
    Message('pitchwheel', channel=13, pitch=-8127, time=0),
    Message('pitchwheel', channel=13, pitch=-8130, time=2),
    Message('pitchwheel', channel=13, pitch=-8131, time=3),
    Message('pitchwheel', channel=13, pitch=-8133, time=1),
    Message('pitchwheel', channel=13, pitch=-8134, time=5),
    Message('pitchwheel', channel=13, pitch=-8137, time=1),
    Message('pitchwheel', channel=13, pitch=-8136, time=0),
    Message('pitchwheel', channel=13, pitch=-8138, time=5),
    Message('pitchwheel', channel=13, pitch=-8140, time=1),
    Message('pitchwheel', channel=13, pitch=-8141, time=1),
    Message('pitchwheel', channel=13, pitch=-8154, time=4),
    Message('pitchwheel', channel=13, pitch=-8180, time=1),
    Message('pitchwheel', channel=13, pitch=-8192, time=1),
    Message('note_off', channel=13, note=71, velocity=64, time=328),
    Message('pitchwheel', channel=13, pitch=-8170, time=51),
    Message('pitchwheel', channel=13, pitch=-8104, time=1),
    Message('pitchwheel', channel=13, pitch=-8126, time=0),
    Message('pitchwheel', channel=13, pitch=-7952, time=4),
    Message('pitchwheel', channel=13, pitch=-8054, time=0),
    Message('pitchwheel', channel=13, pitch=-7901, time=1),
    Message('pitchwheel', channel=13, pitch=-7716, time=4),
    Message('pitchwheel', channel=13, pitch=-7840, time=0),
    Message('pitchwheel', channel=13, pitch=-7654, time=2),
    Message('pitchwheel', channel=13, pitch=-7162, time=4),
    Message('pitchwheel', channel=13, pitch=-7490, time=0),
    Message('pitchwheel', channel=13, pitch=-6997, time=2),
    Message('pitchwheel', channel=13, pitch=-6728, time=3),
    Message('pitchwheel', channel=13, pitch=-6189, time=1),
    Message('pitchwheel', channel=13, pitch=-5919, time=2),
    Message('pitchwheel', channel=13, pitch=-5549, time=3),
    Message('pitchwheel', channel=13, pitch=-4807, time=1),
    Message('pitchwheel', channel=13, pitch=-4436, time=1),
    Message('pitchwheel', channel=13, pitch=-4019, time=3),
    Message('pitchwheel', channel=13, pitch=-3185, time=1),
    Message('pitchwheel', channel=13, pitch=-2768, time=1),
    Message('pitchwheel', channel=13, pitch=-2301, time=3),
    Message('pitchwheel', channel=13, pitch=-1365, time=1),
    Message('pitchwheel', channel=13, pitch=-897, time=2),
    Message('pitchwheel', channel=13, pitch=-673, time=3),
    Message('pitchwheel', channel=13, pitch=-225, time=1),
    Message('pitchwheel', channel=13, pitch=0, time=1),
    Message('note_on', channel=13, note=86, velocity=100, time=1440),
    Message('control_change', channel=13, control=1, value=4, time=27),
    Message('control_change', channel=13, control=1, value=12, time=1),
    Message('control_change', channel=13, control=1, value=16, time=3),
    Message('control_change', channel=13, control=1, value=18, time=10),
    Message('control_change', channel=13, control=1, value=21, time=3),
    Message('control_change', channel=13, control=1, value=23, time=1),
    Message('control_change', channel=13, control=1, value=25, time=8),
    Message('control_change', channel=13, control=1, value=29, time=3),
    Message('control_change', channel=13, control=1, value=32, time=5),
    Message('control_change', channel=13, control=1, value=33, time=10),
    Message('control_change', channel=13, control=1, value=37, time=3),
    Message('control_change', channel=13, control=1, value=38, time=1),
    Message('control_change', channel=13, control=1, value=40, time=11),
    Message('control_change', channel=13, control=1, value=44, time=2),
    Message('control_change', channel=13, control=1, value=45, time=5),
    Message('control_change', channel=13, control=1, value=47, time=6),
    Message('control_change', channel=13, control=1, value=51, time=3),
    Message('control_change', channel=13, control=1, value=52, time=2),
    Message('control_change', channel=13, control=1, value=53, time=11),
    Message('control_change', channel=13, control=1, value=56, time=1),
    Message('control_change', channel=13, control=1, value=57, time=5),
    Message('control_change', channel=13, control=1, value=58, time=6),
    Message('control_change', channel=13, control=1, value=61, time=7),
    Message('control_change', channel=13, control=1, value=60, time=0),
    Message('pitchwheel', channel=13, pitch=78, time=3),
    Message('pitchwheel', channel=13, pitch=234, time=1),
    Message('pitchwheel', channel=13, pitch=313, time=1),
    Message('pitchwheel', channel=13, pitch=476, time=4),
    Message('pitchwheel', channel=13, pitch=965, time=1),
    Message('pitchwheel', channel=13, pitch=802, time=0),
    Message('control_change', channel=13, control=1, value=62, time=3),
    Message('pitchwheel', channel=13, pitch=1140, time=1),
    Message('pitchwheel', channel=13, pitch=1490, time=1),
    Message('pitchwheel', channel=13, pitch=1665, time=1),
    Message('pitchwheel', channel=13, pitch=1853, time=3),
    Message('pitchwheel', channel=13, pitch=2418, time=1),
    Message('pitchwheel', channel=13, pitch=2229, time=0),
    Message('pitchwheel', channel=13, pitch=2643, time=4),
    Message('pitchwheel', channel=13, pitch=3095, time=1),
    Message('pitchwheel', channel=13, pitch=3321, time=1),
    Message('control_change', channel=13, control=1, value=63, time=2),
    Message('pitchwheel', channel=13, pitch=3510, time=2),
    Message('pitchwheel', channel=13, pitch=3889, time=1),
    Message('pitchwheel', channel=13, pitch=4079, time=1),
    Message('pitchwheel', channel=13, pitch=4258, time=4),
    Message('pitchwheel', channel=13, pitch=4617, time=1),
    Message('pitchwheel', channel=13, pitch=4797, time=1),
    Message('control_change', channel=13, control=1, value=64, time=3),
    Message('pitchwheel', channel=13, pitch=5510, time=1),
    Message('pitchwheel', channel=13, pitch=5034, time=0),
    Message('pitchwheel', channel=13, pitch=5748, time=2),
    Message('control_change', channel=13, control=1, value=65, time=1),
    Message('pitchwheel', channel=13, pitch=6046, time=1),
    Message('pitchwheel', channel=13, pitch=6643, time=1),
    Message('pitchwheel', channel=13, pitch=6942, time=1),
    Message('pitchwheel', channel=13, pitch=7254, time=3),
    Message('pitchwheel', channel=13, pitch=7878, time=1),
    Message('pitchwheel', channel=13, pitch=8191, time=2),
    Message('note_off', channel=13, note=86, velocity=64, time=4),
    Message('control_change', channel=13, control=1, value=66, time=12),
    Message('control_change', channel=13, control=1, value=67, time=19),
    Message('control_change', channel=13, control=1, value=68, time=43),
    Message('pitchwheel', channel=13, pitch=8075, time=46),
    Message('pitchwheel', channel=13, pitch=7843, time=1),
    Message('pitchwheel', channel=13, pitch=7727, time=1),
    Message('pitchwheel', channel=13, pitch=7428, time=2),
    Message('pitchwheel', channel=13, pitch=6831, time=1),
    Message('pitchwheel', channel=13, pitch=6533, time=1),
    Message('pitchwheel', channel=13, pitch=6179, time=4),
    Message('pitchwheel', channel=13, pitch=5473, time=1),
    Message('pitchwheel', channel=13, pitch=5120, time=1),
    Message('pitchwheel', channel=13, pitch=4744, time=3),
    Message('pitchwheel', channel=13, pitch=3993, time=2),
    Message('pitchwheel', channel=13, pitch=3618, time=1),
    Message('pitchwheel', channel=13, pitch=2407, time=4),
    Message('pitchwheel', channel=13, pitch=3214, time=0),
    Message('pitchwheel', channel=13, pitch=2004, time=1),
    Message('pitchwheel', channel=13, pitch=993, time=4),
    Message('pitchwheel', channel=13, pitch=1667, time=0),
    Message('pitchwheel', channel=13, pitch=657, time=1),
    Message('pitchwheel', channel=13, pitch=492, time=3),
    Message('pitchwheel', channel=13, pitch=0, time=2),
    Message('pitchwheel', channel=13, pitch=164, time=0),
    Message('note_on', channel=13, note=86, velocity=100, time=39),
    Message('pitchwheel', channel=13, pitch=208, time=58),
    Message('pitchwheel', channel=13, pitch=624, time=1),
    Message('pitchwheel', channel=13, pitch=832, time=1),
    Message('pitchwheel', channel=13, pitch=1299, time=3),
    Message('pitchwheel', channel=13, pitch=2702, time=2),
    Message('pitchwheel', channel=13, pitch=2234, time=0),
    Message('pitchwheel', channel=13, pitch=4314, time=3),
    Message('pitchwheel', channel=13, pitch=3239, time=0),
    Message('pitchwheel', channel=13, pitch=4852, time=1),
    Message('pitchwheel', channel=13, pitch=5317, time=4),
    Message('pitchwheel', channel=13, pitch=6248, time=2),
    Message('pitchwheel', channel=13, pitch=6714, time=1),
    Message('pitchwheel', channel=13, pitch=7083, time=4),
    Message('pitchwheel', channel=13, pitch=7821, time=1),
    Message('pitchwheel', channel=13, pitch=8191, time=1),
    Message('pitchwheel', channel=13, pitch=8083, time=79),
    Message('pitchwheel', channel=13, pitch=7869, time=2),
    Message('pitchwheel', channel=13, pitch=7762, time=1),
    Message('pitchwheel', channel=13, pitch=7270, time=3),
    Message('pitchwheel', channel=13, pitch=6286, time=1),
    Message('pitchwheel', channel=13, pitch=5795, time=1),
    Message('pitchwheel', channel=13, pitch=5342, time=3),
    Message('pitchwheel', channel=13, pitch=4436, time=1),
    Message('pitchwheel', channel=13, pitch=3984, time=1),
    Message('pitchwheel', channel=13, pitch=2685, time=3),
    Message('pitchwheel', channel=13, pitch=3551, time=0),
    Message('pitchwheel', channel=13, pitch=2253, time=2),
    Message('control_change', channel=13, control=1, value=69, time=0),
    Message('pitchwheel', channel=13, pitch=1949, time=3),
    Message('pitchwheel', channel=13, pitch=1341, time=2),
    Message('pitchwheel', channel=13, pitch=1038, time=1),
    Message('pitchwheel', channel=13, pitch=822, time=3),
    Message('pitchwheel', channel=13, pitch=390, time=2),
    Message('pitchwheel', channel=13, pitch=175, time=1),
    Message('note_off', channel=13, note=86, velocity=64, time=1),
    Message('pitchwheel', channel=13, pitch=131, time=2),
    Message('pitchwheel', channel=13, pitch=43, time=1),
    Message('pitchwheel', channel=13, pitch=0, time=1),
    Message('control_change', channel=13, control=1, value=70, time=10),
    Message('note_on', channel=13, note=86, velocity=100, time=178),
    Message('pitchwheel', channel=13, pitch=80, time=34),
    Message('pitchwheel', channel=13, pitch=242, time=1),
    Message('pitchwheel', channel=13, pitch=323, time=1),
    Message('pitchwheel', channel=13, pitch=451, time=2),
    Message('pitchwheel', channel=13, pitch=709, time=1),
    Message('pitchwheel', channel=13, pitch=838, time=1),
    Message('pitchwheel', channel=13, pitch=1104, time=3),
    Message('pitchwheel', channel=13, pitch=1637, time=2),
    Message('pitchwheel', channel=13, pitch=1904, time=1),
    Message('pitchwheel', channel=13, pitch=2394, time=3),
    Message('pitchwheel', channel=13, pitch=3375, time=1),
    Message('pitchwheel', channel=13, pitch=3866, time=2),
    Message('pitchwheel', channel=13, pitch=4384, time=3),
    Message('pitchwheel', channel=13, pitch=5422, time=1),
    Message('pitchwheel', channel=13, pitch=5941, time=1),
    Message('pitchwheel', channel=13, pitch=6431, time=3),
    Message('pitchwheel', channel=13, pitch=7412, time=2),
    Message('pitchwheel', channel=13, pitch=7903, time=1),
    Message('pitchwheel', channel=13, pitch=7975, time=2),
    Message('pitchwheel', channel=13, pitch=8119, time=2),
    Message('pitchwheel', channel=13, pitch=8191, time=1),
    Message('control_change', channel=13, control=1, value=71, time=25),
    Message('control_change', channel=13, control=1, value=70, time=428),
    Message('control_change', channel=13, control=1, value=67, time=4),
    Message('control_change', channel=13, control=1, value=66, time=3),
    Message('control_change', channel=13, control=1, value=64, time=25),
    Message('control_change', channel=13, control=1, value=59, time=3),
    Message('control_change', channel=13, control=1, value=57, time=3),
    Message('control_change', channel=13, control=1, value=55, time=9),
    Message('control_change', channel=13, control=1, value=52, time=1),
    Message('pitchwheel', channel=13, pitch=8042, time=3),
    Message('pitchwheel', channel=13, pitch=7745, time=1),
    Message('control_change', channel=13, control=1, value=50, time=0),
    Message('pitchwheel', channel=13, pitch=7597, time=2),
    Message('pitchwheel', channel=13, pitch=7415, time=2),
    Message('pitchwheel', channel=13, pitch=7051, time=2),
    Message('pitchwheel', channel=13, pitch=6869, time=1),
    Message('pitchwheel', channel=13, pitch=6682, time=3),
    Message('pitchwheel', channel=13, pitch=6124, time=1),
    Message('pitchwheel', channel=13, pitch=6310, time=0),
    Message('control_change', channel=13, control=1, value=43, time=3),
    Message('pitchwheel', channel=13, pitch=5845, time=1),
    Message('control_change', channel=13, control=1, value=41, time=0),
    Message('pitchwheel', channel=13, pitch=5288, time=2),
    Message('pitchwheel', channel=13, pitch=5010, time=1),
    Message('pitchwheel', channel=13, pitch=4641, time=3),
    Message('control_change', channel=13, control=1, value=38, time=0),
    Message('pitchwheel', channel=13, pitch=3905, time=1),
    Message('pitchwheel', channel=13, pitch=3537, time=1),
    Message('control_change', channel=13, control=1, value=33, time=0),
    Message('control_change', channel=13, control=1, value=31, time=3),
    Message('pitchwheel', channel=13, pitch=3179, time=1),
    Message('pitchwheel', channel=13, pitch=2105, time=1),
    Message('pitchwheel', channel=13, pitch=2463, time=0),
    Message('pitchwheel', channel=13, pitch=1869, time=4),
    Message('pitchwheel', channel=13, pitch=1399, time=1),
    Message('pitchwheel', channel=13, pitch=1164, time=1),
    Message('pitchwheel', channel=13, pitch=736, time=3),
    Message('pitchwheel', channel=13, pitch=1021, time=0),
    Message('control_change', channel=13, control=1, value=28, time=1),
    Message('pitchwheel', channel=13, pitch=594, time=1),
    Message('control_change', channel=13, control=1, value=23, time=1),
    Message('pitchwheel', channel=13, pitch=513, time=2),
    Message('control_change', channel=13, control=1, value=20, time=1),
    Message('pitchwheel', channel=13, pitch=351, time=1),
    Message('pitchwheel', channel=13, pitch=270, time=1),
    Message('pitchwheel', channel=13, pitch=217, time=3),
    Message('pitchwheel', channel=13, pitch=112, time=1),
    Message('pitchwheel', channel=13, pitch=60, time=1),
    Message('pitchwheel', channel=13, pitch=45, time=4),
    Message('control_change', channel=13, control=1, value=18, time=0),
    Message('pitchwheel', channel=13, pitch=15, time=1),
    Message('pitchwheel', channel=13, pitch=0, time=1),
    Message('control_change', channel=13, control=1, value=13, time=0),
    Message('control_change', channel=13, control=1, value=10, time=4),
    Message('control_change', channel=13, control=1, value=8, time=9),
    Message('control_change', channel=13, control=1, value=3, time=4),
    Message('control_change', channel=13, control=1, value=0, time=3),
    Message('note_off', channel=13, note=86, velocity=64, time=118),
    Message('note_on', channel=13, note=57, velocity=100, time=1345),
    Message('pitchwheel', channel=13, pitch=71, time=115),
    Message('pitchwheel', channel=13, pitch=286, time=2),
    Message('pitchwheel', channel=13, pitch=214, time=0),
    Message('pitchwheel', channel=13, pitch=397, time=4),
    Message('pitchwheel', channel=13, pitch=620, time=1),
    Message('pitchwheel', channel=13, pitch=732, time=1),
    Message('pitchwheel', channel=13, pitch=1086, time=4),
    Message('pitchwheel', channel=13, pitch=850, time=0),
    Message('pitchwheel', channel=13, pitch=1204, time=2),
    Message('pitchwheel', channel=13, pitch=1316, time=2),
    Message('pitchwheel', channel=13, pitch=1540, time=1),
    Message('pitchwheel', channel=13, pitch=1653, time=2),
    Message('pitchwheel', channel=13, pitch=1800, time=3),
    Message('pitchwheel', channel=13, pitch=2095, time=1),
    Message('pitchwheel', channel=13, pitch=2243, time=1),
    Message('pitchwheel', channel=13, pitch=2429, time=4),
    Message('pitchwheel', channel=13, pitch=2803, time=1),
    Message('pitchwheel', channel=13, pitch=2990, time=1),
    Message('pitchwheel', channel=13, pitch=3223, time=3),
    Message('pitchwheel', channel=13, pitch=3690, time=2),
    Message('pitchwheel', channel=13, pitch=3924, time=1),
    Message('pitchwheel', channel=13, pitch=4556, time=4),
    Message('pitchwheel', channel=13, pitch=4398, time=0),
    Message('pitchwheel', channel=13, pitch=4082, time=0),
    Message('pitchwheel', channel=13, pitch=4693, time=3),
    Message('pitchwheel', channel=13, pitch=4967, time=2),
    Message('pitchwheel', channel=13, pitch=5105, time=1),
    Message('pitchwheel', channel=13, pitch=5208, time=3),
    Message('pitchwheel', channel=13, pitch=5414, time=1),
    Message('pitchwheel', channel=13, pitch=5517, time=1),
    Message('pitchwheel', channel=13, pitch=5927, time=4),
    Message('pitchwheel', channel=13, pitch=5653, time=0),
    Message('pitchwheel', channel=13, pitch=6064, time=2),
    Message('pitchwheel', channel=13, pitch=6202, time=4),
    Message('pitchwheel', channel=13, pitch=6479, time=1),
    Message('pitchwheel', channel=13, pitch=6618, time=1),
    Message('pitchwheel', channel=13, pitch=6782, time=3),
    Message('pitchwheel', channel=13, pitch=7111, time=1),
    Message('pitchwheel', channel=13, pitch=7276, time=1),
    Message('pitchwheel', channel=13, pitch=7415, time=3),
    Message('pitchwheel', channel=13, pitch=7835, time=1),
    Message('pitchwheel', channel=13, pitch=7695, time=0),
    Message('pitchwheel', channel=13, pitch=7924, time=4),
    Message('note_off', channel=13, note=57, velocity=64, time=1),
    Message('pitchwheel', channel=13, pitch=8102, time=0),
    Message('pitchwheel', channel=13, pitch=8191, time=1),
    Message('pitchwheel', channel=13, pitch=7939, time=276),
    Message('pitchwheel', channel=13, pitch=7436, time=1),
    Message('pitchwheel', channel=13, pitch=7185, time=2),
    Message('pitchwheel', channel=13, pitch=6908, time=3),
    Message('pitchwheel', channel=13, pitch=6355, time=1),
    Message('pitchwheel', channel=13, pitch=6079, time=1),
    Message('pitchwheel', channel=13, pitch=5789, time=4),
    Message('pitchwheel', channel=13, pitch=4920, time=1),
    Message('pitchwheel', channel=13, pitch=5209, time=0),
    Message('pitchwheel', channel=13, pitch=4648, time=3),
    Message('pitchwheel', channel=13, pitch=4104, time=1),
    Message('pitchwheel', channel=13, pitch=3833, time=1),
    Message('pitchwheel', channel=13, pitch=3071, time=4),
    Message('pitchwheel', channel=13, pitch=3579, time=0),
    Message('pitchwheel', channel=13, pitch=2817, time=2),
    Message('pitchwheel', channel=13, pitch=2665, time=3),
    Message('pitchwheel', channel=13, pitch=2363, time=1),
    Message('pitchwheel', channel=13, pitch=2212, time=1),
    Message('pitchwheel', channel=13, pitch=2094, time=4),
    Message('pitchwheel', channel=13, pitch=1858, time=1),
    Message('pitchwheel', channel=13, pitch=1741, time=1),
    Message('pitchwheel', channel=13, pitch=1614, time=4),
    Message('pitchwheel', channel=13, pitch=1362, time=1),
    Message('pitchwheel', channel=13, pitch=1236, time=1),
    Message('pitchwheel', channel=13, pitch=1092, time=3),
    Message('pitchwheel', channel=13, pitch=805, time=1),
    Message('pitchwheel', channel=13, pitch=662, time=1),
    Message('pitchwheel', channel=13, pitch=496, time=3),
    Message('pitchwheel', channel=13, pitch=165, time=1),
    Message('pitchwheel', channel=13, pitch=0, time=2),
    MetaMessage('end_of_track', time=8887)]),
  MidiTrack([
    MetaMessage('track_name', name='Guitar3', time=0),
    Message('control_change', channel=2, control=7, value=127, time=0),
    Message('program_change', channel=2, program=30, time=0),
    Message('control_change', channel=2, control=7, value=127, time=23040),
    Message('program_change', channel=2, program=30, time=0),
    Message('note_on', channel=2, note=52, velocity=100, time=1344),
    Message('note_on', channel=2, note=59, velocity=100, time=0),
    Message('note_off', channel=2, note=59, velocity=64, time=384),
    Message('note_off', channel=2, note=52, velocity=64, time=0),
    Message('note_on', channel=2, note=52, velocity=100, time=0),
    Message('note_off', channel=2, note=52, velocity=64, time=192),
    Message('note_on', channel=2, note=52, velocity=100, time=0),
    Message('note_off', channel=2, note=52, velocity=64, time=192),
    Message('note_on', channel=2, note=52, velocity=100, time=0),
    Message('note_off', channel=2, note=52, velocity=64, time=192),
    Message('note_on', channel=2, note=52, velocity=100, time=0),
    Message('note_off', channel=2, note=52, velocity=64, time=192),
    Message('note_on', channel=2, note=52, velocity=100, time=0),
    Message('note_off', channel=2, note=52, velocity=64, time=192),
    Message('note_on', channel=2, note=52, velocity=100, time=0),
    Message('note_off', channel=2, note=52, velocity=64, time=192),
    Message('note_on', channel=2, note=64, velocity=100, time=0),
    Message('note_off', channel=2, note=64, velocity=64, time=192),
    Message('note_on', channel=2, note=52, velocity=100, time=0),
    Message('note_off', channel=2, note=52, velocity=64, time=192),
    Message('note_on', channel=2, note=52, velocity=100, time=0),
    Message('note_off', channel=2, note=52, velocity=64, time=192),
    Message('note_on', channel=2, note=52, velocity=100, time=0),
    Message('note_off', channel=2, note=52, velocity=64, time=192),
    Message('note_on', channel=2, note=52, velocity=100, time=0),
    Message('note_off', channel=2, note=52, velocity=64, time=192),
    Message('note_on', channel=2, note=52, velocity=100, time=0),
    Message('note_off', channel=2, note=52, velocity=64, time=192),
    Message('note_on', channel=2, note=52, velocity=100, time=0),
    Message('note_off', channel=2, note=52, velocity=64, time=192),
    Message('note_on', channel=2, note=52, velocity=100, time=0),
    Message('note_off', channel=2, note=52, velocity=64, time=192),
    Message('note_on', channel=2, note=64, velocity=100, time=0),
    Message('note_off', channel=2, note=64, velocity=64, time=192),
    Message('note_on', channel=2, note=52, velocity=100, time=0),
    Message('note_off', channel=2, note=52, velocity=64, time=192),
    Message('note_on', channel=2, note=52, velocity=100, time=0),
    Message('note_off', channel=2, note=52, velocity=64, time=192),
    Message('note_on', channel=2, note=52, velocity=100, time=0),
    Message('note_off', channel=2, note=52, velocity=64, time=192),
    Message('note_on', channel=2, note=52, velocity=100, time=0),
    Message('note_off', channel=2, note=52, velocity=64, time=192),
    Message('note_on', channel=2, note=52, velocity=100, time=0),
    Message('note_off', channel=2, note=52, velocity=64, time=192),
    Message('note_on', channel=2, note=52, velocity=100, time=0),
    Message('note_off', channel=2, note=52, velocity=64, time=192),
    Message('note_on', channel=2, note=52, velocity=100, time=0),
    Message('note_off', channel=2, note=52, velocity=64, time=192),
    Message('note_on', channel=2, note=64, velocity=100, time=0),
    Message('note_off', channel=2, note=64, velocity=64, time=192),
    Message('note_on', channel=2, note=52, velocity=100, time=0),
    Message('note_off', channel=2, note=52, velocity=64, time=192),
    Message('note_on', channel=2, note=52, velocity=100, time=0),
    Message('note_off', channel=2, note=52, velocity=64, time=192),
    Message('note_on', channel=2, note=52, velocity=100, time=0),
    Message('note_off', channel=2, note=52, velocity=64, time=192),
    Message('note_on', channel=2, note=52, velocity=100, time=0),
    Message('note_off', channel=2, note=52, velocity=64, time=192),
    Message('note_on', channel=2, note=52, velocity=100, time=0),
    Message('note_off', channel=2, note=52, velocity=64, time=192),
    Message('note_on', channel=2, note=52, velocity=100, time=0),
    Message('note_off', channel=2, note=52, velocity=64, time=192),
    Message('note_on', channel=2, note=52, velocity=100, time=0),
    Message('note_off', channel=2, note=52, velocity=64, time=192),
    Message('note_on', channel=2, note=64, velocity=100, time=0),
    Message('note_off', channel=2, note=64, velocity=64, time=192),
    Message('note_on', channel=2, note=52, velocity=100, time=0),
    Message('note_off', channel=2, note=52, velocity=64, time=192),
    Message('note_on', channel=2, note=52, velocity=100, time=0),
    Message('note_off', channel=2, note=52, velocity=64, time=192),
    Message('note_on', channel=2, note=64, velocity=100, time=0),
    Message('note_off', channel=2, note=64, velocity=64, time=192),
    Message('note_on', channel=2, note=58, velocity=100, time=0),
    Message('note_off', channel=2, note=58, velocity=64, time=192),
    Message('note_on', channel=2, note=52, velocity=100, time=0),
    Message('note_off', channel=2, note=52, velocity=64, time=192),
    Message('note_on', channel=2, note=52, velocity=100, time=0),
    Message('note_off', channel=2, note=52, velocity=64, time=192),
    Message('note_on', channel=2, note=52, velocity=100, time=0),
    Message('note_off', channel=2, note=52, velocity=64, time=192),
    Message('note_on', channel=2, note=53, velocity=100, time=0),
    Message('note_on', channel=2, note=60, velocity=100, time=0),
    Message('note_off', channel=2, note=60, velocity=64, time=192),
    Message('note_off', channel=2, note=53, velocity=64, time=0),
    Message('note_on', channel=2, note=52, velocity=100, time=0),
    Message('note_off', channel=2, note=52, velocity=64, time=192),
    Message('note_on', channel=2, note=52, velocity=100, time=0),
    Message('note_off', channel=2, note=52, velocity=64, time=192),
    Message('note_on', channel=2, note=64, velocity=100, time=0),
    Message('note_off', channel=2, note=64, velocity=64, time=192),
    Message('note_on', channel=2, note=58, velocity=100, time=0),
    Message('note_off', channel=2, note=58, velocity=64, time=192),
    Message('note_on', channel=2, note=52, velocity=100, time=0),
    Message('note_off', channel=2, note=52, velocity=64, time=192),
    Message('note_on', channel=2, note=52, velocity=100, time=0),
    Message('note_off', channel=2, note=52, velocity=64, time=192),
    Message('note_on', channel=2, note=52, velocity=100, time=0),
    Message('note_off', channel=2, note=52, velocity=64, time=192),
    Message('note_on', channel=2, note=53, velocity=100, time=0),
    Message('note_on', channel=2, note=60, velocity=100, time=0),
    Message('note_off', channel=2, note=60, velocity=64, time=192),
    Message('note_off', channel=2, note=53, velocity=64, time=0),
    Message('note_on', channel=2, note=52, velocity=100, time=0),
    Message('note_off', channel=2, note=52, velocity=64, time=192),
    Message('note_on', channel=2, note=52, velocity=100, time=0),
    Message('note_off', channel=2, note=52, velocity=64, time=192),
    Message('note_on', channel=2, note=64, velocity=100, time=0),
    Message('note_off', channel=2, note=64, velocity=64, time=192),
    Message('note_on', channel=2, note=58, velocity=100, time=0),
    Message('note_off', channel=2, note=58, velocity=64, time=192),
    Message('note_on', channel=2, note=52, velocity=100, time=0),
    Message('note_off', channel=2, note=52, velocity=64, time=192),
    Message('note_on', channel=2, note=52, velocity=100, time=0),
    Message('note_off', channel=2, note=52, velocity=64, time=192),
    Message('note_on', channel=2, note=52, velocity=100, time=0),
    Message('note_off', channel=2, note=52, velocity=64, time=192),
    Message('note_on', channel=2, note=53, velocity=100, time=0),
    Message('note_on', channel=2, note=60, velocity=100, time=0),
    Message('note_off', channel=2, note=60, velocity=64, time=192),
    Message('note_off', channel=2, note=53, velocity=64, time=0),
    Message('note_on', channel=2, note=52, velocity=100, time=0),
    Message('note_off', channel=2, note=52, velocity=64, time=192),
    Message('note_on', channel=2, note=52, velocity=100, time=0),
    Message('note_off', channel=2, note=52, velocity=64, time=192),
    Message('note_on', channel=2, note=64, velocity=100, time=0),
    Message('note_off', channel=2, note=64, velocity=64, time=192),
    Message('note_on', channel=2, note=58, velocity=100, time=0),
    Message('note_off', channel=2, note=58, velocity=64, time=192),
    Message('note_on', channel=2, note=52, velocity=100, time=0),
    Message('note_off', channel=2, note=52, velocity=64, time=192),
    Message('note_on', channel=2, note=52, velocity=100, time=0),
    Message('note_off', channel=2, note=52, velocity=64, time=192),
    Message('note_on', channel=2, note=52, velocity=100, time=0),
    Message('note_off', channel=2, note=52, velocity=64, time=192),
    Message('note_on', channel=2, note=53, velocity=100, time=0),
    Message('note_on', channel=2, note=60, velocity=100, time=0),
    Message('note_off', channel=2, note=60, velocity=64, time=192),
    Message('note_off', channel=2, note=53, velocity=64, time=0),
    Message('note_on', channel=2, note=52, velocity=100, time=0),
    Message('note_off', channel=2, note=52, velocity=64, time=192),
    Message('note_on', channel=2, note=52, velocity=100, time=0),
    Message('note_off', channel=2, note=52, velocity=64, time=192),
    Message('note_on', channel=2, note=64, velocity=100, time=0),
    Message('note_off', channel=2, note=64, velocity=64, time=192),
    Message('note_on', channel=2, note=58, velocity=100, time=0),
    Message('note_off', channel=2, note=58, velocity=64, time=192),
    Message('note_on', channel=2, note=57, velocity=100, time=0),
    Message('note_off', channel=2, note=57, velocity=64, time=192),
    Message('note_on', channel=2, note=52, velocity=100, time=0),
    Message('note_off', channel=2, note=52, velocity=64, time=192),
    Message('note_on', channel=2, note=52, velocity=100, time=0),
    Message('note_off', channel=2, note=52, velocity=64, time=192),
    Message('note_on', channel=2, note=53, velocity=100, time=0),
    Message('note_on', channel=2, note=60, velocity=100, time=0),
    Message('note_off', channel=2, note=60, velocity=64, time=192),
    Message('note_off', channel=2, note=53, velocity=64, time=0),
    Message('note_on', channel=2, note=52, velocity=100, time=0),
    Message('note_off', channel=2, note=52, velocity=64, time=192),
    Message('note_on', channel=2, note=52, velocity=100, time=0),
    Message('note_off', channel=2, note=52, velocity=64, time=192),
    Message('note_on', channel=2, note=64, velocity=100, time=0),
    Message('note_off', channel=2, note=64, velocity=64, time=192),
    Message('note_on', channel=2, note=58, velocity=100, time=0),
    Message('note_off', channel=2, note=58, velocity=64, time=192),
    Message('note_on', channel=2, note=57, velocity=100, time=0),
    Message('note_off', channel=2, note=57, velocity=64, time=192),
    Message('note_on', channel=2, note=52, velocity=100, time=0),
    Message('note_off', channel=2, note=52, velocity=64, time=192),
    Message('note_on', channel=2, note=52, velocity=100, time=0),
    Message('note_off', channel=2, note=52, velocity=64, time=192),
    Message('note_on', channel=2, note=53, velocity=100, time=0),
    Message('note_on', channel=2, note=60, velocity=100, time=0),
    Message('note_off', channel=2, note=60, velocity=64, time=192),
    Message('note_off', channel=2, note=53, velocity=64, time=0),
    Message('note_on', channel=2, note=52, velocity=100, time=0),
    Message('note_off', channel=2, note=52, velocity=64, time=192),
    Message('note_on', channel=2, note=52, velocity=100, time=0),
    Message('note_off', channel=2, note=52, velocity=64, time=192),
    Message('note_on', channel=2, note=64, velocity=100, time=0),
    Message('note_off', channel=2, note=64, velocity=64, time=192),
    Message('note_on', channel=2, note=58, velocity=100, time=0),
    Message('note_off', channel=2, note=58, velocity=64, time=192),
    Message('note_on', channel=2, note=57, velocity=100, time=0),
    Message('note_off', channel=2, note=57, velocity=64, time=192),
    Message('note_on', channel=2, note=52, velocity=100, time=0),
    Message('note_off', channel=2, note=52, velocity=64, time=192),
    Message('note_on', channel=2, note=52, velocity=100, time=0),
    Message('note_off', channel=2, note=52, velocity=64, time=192),
    Message('note_on', channel=2, note=53, velocity=100, time=0),
    Message('note_on', channel=2, note=60, velocity=100, time=0),
    Message('note_off', channel=2, note=60, velocity=64, time=192),
    Message('note_off', channel=2, note=53, velocity=64, time=0),
    Message('note_on', channel=2, note=52, velocity=100, time=0),
    Message('note_off', channel=2, note=52, velocity=64, time=192),
    Message('note_on', channel=2, note=52, velocity=100, time=0),
    Message('note_off', channel=2, note=52, velocity=64, time=192),
    Message('note_on', channel=2, note=64, velocity=100, time=0),
    Message('note_off', channel=2, note=64, velocity=64, time=192),
    Message('note_on', channel=2, note=58, velocity=100, time=0),
    Message('note_off', channel=2, note=58, velocity=64, time=192),
    Message('note_on', channel=2, note=57, velocity=100, time=0),
    Message('note_off', channel=2, note=57, velocity=64, time=192),
    Message('note_on', channel=2, note=52, velocity=100, time=0),
    Message('note_off', channel=2, note=52, velocity=64, time=192),
    Message('note_on', channel=2, note=52, velocity=100, time=0),
    Message('note_off', channel=2, note=52, velocity=64, time=192),
    Message('note_on', channel=2, note=53, velocity=100, time=0),
    Message('note_on', channel=2, note=60, velocity=100, time=0),
    Message('note_off', channel=2, note=60, velocity=64, time=192),
    Message('note_off', channel=2, note=53, velocity=64, time=0),
    Message('note_on', channel=2, note=52, velocity=100, time=0),
    Message('note_off', channel=2, note=52, velocity=64, time=192),
    Message('note_on', channel=2, note=52, velocity=100, time=0),
    Message('note_off', channel=2, note=52, velocity=64, time=192),
    Message('note_on', channel=2, note=64, velocity=100, time=0),
    Message('note_off', channel=2, note=64, velocity=64, time=192),
    Message('note_on', channel=2, note=58, velocity=100, time=0),
    Message('note_off', channel=2, note=58, velocity=64, time=192),
    Message('note_on', channel=2, note=57, velocity=100, time=0),
    Message('note_off', channel=2, note=57, velocity=64, time=192),
    Message('note_on', channel=2, note=52, velocity=100, time=0),
    Message('note_off', channel=2, note=52, velocity=64, time=192),
    Message('note_on', channel=2, note=52, velocity=100, time=0),
    Message('note_off', channel=2, note=52, velocity=64, time=192),
    Message('note_on', channel=2, note=53, velocity=100, time=0),
    Message('note_on', channel=2, note=60, velocity=100, time=0),
    Message('note_off', channel=2, note=60, velocity=64, time=192),
    Message('note_off', channel=2, note=53, velocity=64, time=0),
    Message('note_on', channel=2, note=52, velocity=100, time=0),
    Message('note_off', channel=2, note=52, velocity=64, time=192),
    Message('note_on', channel=2, note=52, velocity=100, time=0),
    Message('note_off', channel=2, note=52, velocity=64, time=192),
    Message('note_on', channel=2, note=64, velocity=100, time=0),
    Message('note_off', channel=2, note=64, velocity=64, time=192),
    Message('note_on', channel=2, note=58, velocity=100, time=0),
    Message('note_off', channel=2, note=58, velocity=64, time=192),
    Message('note_on', channel=2, note=57, velocity=100, time=0),
    Message('note_off', channel=2, note=57, velocity=64, time=192),
    Message('note_on', channel=2, note=52, velocity=100, time=0),
    Message('note_off', channel=2, note=52, velocity=64, time=192),
    Message('note_on', channel=2, note=52, velocity=100, time=0),
    Message('note_off', channel=2, note=52, velocity=64, time=192),
    Message('note_on', channel=2, note=53, velocity=100, time=0),
    Message('note_on', channel=2, note=60, velocity=100, time=0),
    Message('note_off', channel=2, note=60, velocity=64, time=192),
    Message('note_off', channel=2, note=53, velocity=64, time=0),
    Message('note_on', channel=2, note=52, velocity=100, time=0),
    Message('note_off', channel=2, note=52, velocity=64, time=192),
    Message('note_on', channel=2, note=52, velocity=100, time=0),
    Message('note_off', channel=2, note=52, velocity=64, time=192),
    Message('note_on', channel=2, note=64, velocity=100, time=0),
    Message('note_off', channel=2, note=64, velocity=64, time=192),
    Message('note_on', channel=2, note=58, velocity=100, time=0),
    Message('note_off', channel=2, note=58, velocity=64, time=192),
    Message('note_on', channel=2, note=57, velocity=100, time=0),
    Message('note_off', channel=2, note=57, velocity=64, time=192),
    Message('note_on', channel=2, note=52, velocity=100, time=0),
    Message('note_off', channel=2, note=52, velocity=64, time=192),
    Message('note_on', channel=2, note=52, velocity=100, time=0),
    Message('note_off', channel=2, note=52, velocity=64, time=192),
    Message('note_on', channel=2, note=53, velocity=100, time=0),
    Message('note_on', channel=2, note=60, velocity=100, time=0),
    Message('note_off', channel=2, note=60, velocity=64, time=192),
    Message('note_off', channel=2, note=53, velocity=64, time=0),
    Message('note_on', channel=2, note=52, velocity=100, time=0),
    Message('note_off', channel=2, note=52, velocity=64, time=192),
    Message('note_on', channel=2, note=52, velocity=100, time=0),
    Message('note_off', channel=2, note=52, velocity=64, time=192),
    Message('note_on', channel=2, note=64, velocity=100, time=0),
    Message('note_off', channel=2, note=64, velocity=64, time=192),
    Message('note_on', channel=2, note=58, velocity=100, time=0),
    Message('note_off', channel=2, note=58, velocity=64, time=192),
    Message('note_on', channel=2, note=57, velocity=100, time=0),
    Message('note_off', channel=2, note=57, velocity=64, time=192),
    Message('note_on', channel=2, note=52, velocity=100, time=0),
    Message('note_off', channel=2, note=52, velocity=64, time=192),
    Message('note_on', channel=2, note=52, velocity=100, time=0),
    Message('note_off', channel=2, note=52, velocity=64, time=192),
    Message('note_on', channel=2, note=52, velocity=127, time=0),
    Message('note_on', channel=2, note=59, velocity=127, time=0),
    Message('note_off', channel=2, note=59, velocity=64, time=384),
    Message('note_off', channel=2, note=52, velocity=64, time=0),
    Message('note_on', channel=2, note=59, velocity=100, time=0),
    Message('note_on', channel=2, note=52, velocity=100, time=0),
    Message('note_off', channel=2, note=52, velocity=64, time=192),
    Message('note_off', channel=2, note=59, velocity=64, time=0),
    Message('note_on', channel=2, note=64, velocity=100, time=0),
    Message('note_off', channel=2, note=64, velocity=64, time=192),
    Message('note_on', channel=2, note=58, velocity=100, time=0),
    Message('note_off', channel=2, note=58, velocity=64, time=192),
    Message('note_on', channel=2, note=57, velocity=100, time=0),
    Message('note_off', channel=2, note=57, velocity=64, time=384),
    Message('note_on', channel=2, note=52, velocity=100, time=0),
    Message('note_off', channel=2, note=52, velocity=64, time=192),
    Message('note_on', channel=2, note=52, velocity=127, time=0),
    Message('note_on', channel=2, note=59, velocity=127, time=0),
    Message('note_off', channel=2, note=59, velocity=64, time=384),
    Message('note_off', channel=2, note=52, velocity=64, time=0),
    Message('note_on', channel=2, note=59, velocity=100, time=0),
    Message('note_on', channel=2, note=52, velocity=100, time=0),
    Message('note_off', channel=2, note=52, velocity=64, time=192),
    Message('note_off', channel=2, note=59, velocity=64, time=0),
    Message('note_on', channel=2, note=64, velocity=100, time=0),
    Message('note_off', channel=2, note=64, velocity=64, time=192),
    Message('note_on', channel=2, note=58, velocity=100, time=0),
    Message('note_off', channel=2, note=58, velocity=64, time=192),
    Message('note_on', channel=2, note=57, velocity=100, time=0),
    Message('note_off', channel=2, note=57, velocity=64, time=384),
    Message('note_on', channel=2, note=52, velocity=100, time=0),
    Message('note_off', channel=2, note=52, velocity=64, time=192),
    Message('note_on', channel=2, note=59, velocity=127, time=0),
    Message('note_on', channel=2, note=52, velocity=127, time=0),
    Message('note_off', channel=2, note=52, velocity=64, time=384),
    Message('note_off', channel=2, note=59, velocity=64, time=0),
    Message('note_on', channel=2, note=59, velocity=100, time=0),
    Message('note_on', channel=2, note=52, velocity=100, time=0),
    Message('note_off', channel=2, note=52, velocity=64, time=192),
    Message('note_off', channel=2, note=59, velocity=64, time=0),
    Message('note_on', channel=2, note=64, velocity=100, time=0),
    Message('note_off', channel=2, note=64, velocity=64, time=192),
    Message('note_on', channel=2, note=58, velocity=100, time=0),
    Message('note_off', channel=2, note=58, velocity=64, time=192),
    Message('note_on', channel=2, note=57, velocity=100, time=0),
    Message('note_off', channel=2, note=57, velocity=64, time=384),
    Message('note_on', channel=2, note=52, velocity=100, time=0),
    Message('note_off', channel=2, note=52, velocity=64, time=192),
    Message('note_on', channel=2, note=62, velocity=127, time=0),
    Message('note_on', channel=2, note=55, velocity=127, time=0),
    Message('note_off', channel=2, note=55, velocity=64, time=384),
    Message('note_off', channel=2, note=62, velocity=64, time=0),
    Message('note_on', channel=2, note=52, velocity=100, time=0),
    Message('note_off', channel=2, note=52, velocity=64, time=192),
    Message('note_on', channel=2, note=61, velocity=100, time=0),
    Message('note_on', channel=2, note=54, velocity=100, time=0),
    Message('note_off', channel=2, note=54, velocity=64, time=192),
    Message('note_off', channel=2, note=61, velocity=64, time=0),
    Message('note_on', channel=2, note=52, velocity=100, time=0),
    Message('note_off', channel=2, note=52, velocity=64, time=192),
    Message('note_on', channel=2, note=61, velocity=100, time=0),
    Message('note_on', channel=2, note=54, velocity=100, time=0),
    Message('note_off', channel=2, note=54, velocity=64, time=192),
    Message('note_off', channel=2, note=61, velocity=64, time=0),
    Message('note_on', channel=2, note=62, velocity=100, time=0),
    Message('note_on', channel=2, note=55, velocity=100, time=0),
    Message('note_off', channel=2, note=55, velocity=64, time=192),
    Message('note_off', channel=2, note=62, velocity=64, time=0),
    Message('note_on', channel=2, note=61, velocity=100, time=0),
    Message('note_on', channel=2, note=54, velocity=100, time=0),
    Message('note_off', channel=2, note=54, velocity=64, time=192),
    Message('note_off', channel=2, note=61, velocity=64, time=0),
    Message('note_on', channel=2, note=59, velocity=127, time=0),
    Message('note_on', channel=2, note=52, velocity=127, time=0),
    Message('note_off', channel=2, note=52, velocity=64, time=384),
    Message('note_off', channel=2, note=59, velocity=64, time=0),
    Message('note_on', channel=2, note=59, velocity=100, time=0),
    Message('note_on', channel=2, note=52, velocity=100, time=0),
    Message('note_off', channel=2, note=52, velocity=64, time=192),
    Message('note_off', channel=2, note=59, velocity=64, time=0),
    Message('note_on', channel=2, note=64, velocity=100, time=0),
    Message('note_off', channel=2, note=64, velocity=64, time=192),
    Message('note_on', channel=2, note=58, velocity=100, time=0),
    Message('note_off', channel=2, note=58, velocity=64, time=192),
    Message('note_on', channel=2, note=57, velocity=100, time=0),
    Message('note_off', channel=2, note=57, velocity=64, time=384),
    Message('note_on', channel=2, note=52, velocity=100, time=0),
    Message('note_off', channel=2, note=52, velocity=64, time=192),
    Message('note_on', channel=2, note=52, velocity=127, time=0),
    Message('note_on', channel=2, note=59, velocity=127, time=0),
    Message('note_off', channel=2, note=59, velocity=64, time=384),
    Message('note_off', channel=2, note=52, velocity=64, time=0),
    Message('note_on', channel=2, note=59, velocity=100, time=0),
    Message('note_on', channel=2, note=52, velocity=100, time=0),
    Message('note_off', channel=2, note=52, velocity=64, time=192),
    Message('note_off', channel=2, note=59, velocity=64, time=0),
    Message('note_on', channel=2, note=64, velocity=100, time=0),
    Message('note_off', channel=2, note=64, velocity=64, time=192),
    Message('note_on', channel=2, note=58, velocity=100, time=0),
    Message('note_off', channel=2, note=58, velocity=64, time=192),
    Message('note_on', channel=2, note=57, velocity=100, time=0),
    Message('note_off', channel=2, note=57, velocity=64, time=384),
    Message('note_on', channel=2, note=52, velocity=100, time=0),
    Message('note_off', channel=2, note=52, velocity=64, time=192),
    Message('note_on', channel=2, note=59, velocity=127, time=0),
    Message('note_on', channel=2, note=52, velocity=127, time=0),
    Message('note_off', channel=2, note=52, velocity=64, time=384),
    Message('note_off', channel=2, note=59, velocity=64, time=0),
    Message('note_on', channel=2, note=59, velocity=100, time=0),
    Message('note_on', channel=2, note=52, velocity=100, time=0),
    Message('note_off', channel=2, note=52, velocity=64, time=192),
    Message('note_off', channel=2, note=59, velocity=64, time=0),
    Message('note_on', channel=2, note=64, velocity=100, time=0),
    Message('note_off', channel=2, note=64, velocity=64, time=192),
    Message('note_on', channel=2, note=58, velocity=100, time=0),
    Message('note_off', channel=2, note=58, velocity=64, time=192),
    Message('note_on', channel=2, note=57, velocity=100, time=0),
    Message('note_off', channel=2, note=57, velocity=64, time=384),
    Message('note_on', channel=2, note=52, velocity=100, time=0),
    Message('note_off', channel=2, note=52, velocity=64, time=192),
    Message('note_on', channel=2, note=62, velocity=127, time=0),
    Message('note_on', channel=2, note=55, velocity=127, time=0),
    Message('note_off', channel=2, note=55, velocity=64, time=384),
    Message('note_off', channel=2, note=62, velocity=64, time=0),
    Message('note_on', channel=2, note=52, velocity=100, time=0),
    Message('note_off', channel=2, note=52, velocity=64, time=192),
    Message('note_on', channel=2, note=61, velocity=100, time=0),
    Message('note_on', channel=2, note=54, velocity=100, time=0),
    Message('note_off', channel=2, note=54, velocity=64, time=192),
    Message('note_off', channel=2, note=61, velocity=64, time=0),
    Message('note_on', channel=2, note=52, velocity=100, time=0),
    Message('note_off', channel=2, note=52, velocity=64, time=192),
    Message('note_on', channel=2, note=61, velocity=100, time=0),
    Message('note_on', channel=2, note=54, velocity=100, time=0),
    Message('note_off', channel=2, note=54, velocity=64, time=192),
    Message('note_off', channel=2, note=61, velocity=64, time=0),
    Message('note_on', channel=2, note=62, velocity=100, time=0),
    Message('note_on', channel=2, note=55, velocity=100, time=0),
    Message('note_off', channel=2, note=55, velocity=64, time=192),
    Message('note_off', channel=2, note=62, velocity=64, time=0),
    Message('note_on', channel=2, note=61, velocity=100, time=0),
    Message('note_on', channel=2, note=54, velocity=100, time=0),
    Message('note_off', channel=2, note=54, velocity=64, time=192),
    Message('note_off', channel=2, note=61, velocity=64, time=0),
    Message('note_on', channel=2, note=59, velocity=127, time=0),
    Message('note_on', channel=2, note=52, velocity=127, time=0),
    Message('note_off', channel=2, note=52, velocity=64, time=384),
    Message('note_off', channel=2, note=59, velocity=64, time=0),
    Message('note_on', channel=2, note=52, velocity=100, time=0),
    Message('note_off', channel=2, note=52, velocity=64, time=192),
    Message('note_on', channel=2, note=52, velocity=100, time=0),
    Message('note_off', channel=2, note=52, velocity=64, time=192),
    Message('note_on', channel=2, note=52, velocity=100, time=0),
    Message('note_off', channel=2, note=52, velocity=64, time=192),
    Message('note_on', channel=2, note=52, velocity=100, time=0),
    Message('note_off', channel=2, note=52, velocity=64, time=192),
    Message('note_on', channel=2, note=52, velocity=100, time=0),
    Message('note_off', channel=2, note=52, velocity=64, time=192),
    Message('note_on', channel=2, note=52, velocity=100, time=0),
    Message('note_off', channel=2, note=52, velocity=64, time=192),
    Message('note_on', channel=2, note=60, velocity=127, time=0),
    Message('note_on', channel=2, note=53, velocity=127, time=0),
    Message('note_off', channel=2, note=53, velocity=64, time=384),
    Message('note_off', channel=2, note=60, velocity=64, time=0),
    Message('note_on', channel=2, note=52, velocity=100, time=0),
    Message('note_off', channel=2, note=52, velocity=64, time=192),
    Message('note_on', channel=2, note=52, velocity=100, time=0),
    Message('note_off', channel=2, note=52, velocity=64, time=192),
    Message('note_on', channel=2, note=52, velocity=100, time=0),
    Message('note_off', channel=2, note=52, velocity=64, time=192),
    Message('note_on', channel=2, note=52, velocity=100, time=0),
    Message('note_off', channel=2, note=52, velocity=64, time=192),
    Message('note_on', channel=2, note=52, velocity=100, time=0),
    Message('note_off', channel=2, note=52, velocity=64, time=192),
    Message('note_on', channel=2, note=52, velocity=100, time=0),
    Message('note_off', channel=2, note=52, velocity=64, time=192),
    Message('note_on', channel=2, note=60, velocity=127, time=0),
    Message('note_on', channel=2, note=53, velocity=127, time=0),
    Message('note_off', channel=2, note=53, velocity=64, time=384),
    Message('note_off', channel=2, note=60, velocity=64, time=0),
    Message('note_on', channel=2, note=52, velocity=100, time=0),
    Message('note_off', channel=2, note=52, velocity=64, time=192),
    Message('note_on', channel=2, note=52, velocity=100, time=0),
    Message('note_off', channel=2, note=52, velocity=64, time=192),
    Message('note_on', channel=2, note=52, velocity=100, time=0),
    Message('note_off', channel=2, note=52, velocity=64, time=192),
    Message('note_on', channel=2, note=52, velocity=100, time=0),
    Message('note_off', channel=2, note=52, velocity=64, time=192),
    Message('note_on', channel=2, note=52, velocity=100, time=0),
    Message('note_off', channel=2, note=52, velocity=64, time=192),
    Message('note_on', channel=2, note=52, velocity=100, time=0),
    Message('note_off', channel=2, note=52, velocity=64, time=192),
    Message('note_on', channel=2, note=62, velocity=127, time=0),
    Message('note_on', channel=2, note=55, velocity=127, time=0),
    Message('note_off', channel=2, note=55, velocity=64, time=384),
    Message('note_off', channel=2, note=62, velocity=64, time=0),
    Message('note_on', channel=2, note=52, velocity=100, time=0),
    Message('note_off', channel=2, note=52, velocity=64, time=192),
    Message('note_on', channel=2, note=61, velocity=100, time=0),
    Message('note_on', channel=2, note=54, velocity=100, time=0),
    Message('note_off', channel=2, note=54, velocity=64, time=192),
    Message('note_off', channel=2, note=61, velocity=64, time=0),
    Message('note_on', channel=2, note=52, velocity=100, time=0),
    Message('note_off', channel=2, note=52, velocity=64, time=192),
    Message('note_on', channel=2, note=61, velocity=100, time=0),
    Message('note_on', channel=2, note=54, velocity=100, time=0),
    Message('note_off', channel=2, note=54, velocity=64, time=192),
    Message('note_off', channel=2, note=61, velocity=64, time=0),
    Message('note_on', channel=2, note=62, velocity=100, time=0),
    Message('note_on', channel=2, note=55, velocity=100, time=0),
    Message('note_off', channel=2, note=55, velocity=64, time=192),
    Message('note_off', channel=2, note=62, velocity=64, time=0),
    Message('note_on', channel=2, note=61, velocity=100, time=0),
    Message('note_on', channel=2, note=54, velocity=100, time=0),
    Message('note_off', channel=2, note=54, velocity=64, time=192),
    Message('note_off', channel=2, note=61, velocity=64, time=0),
    Message('note_on', channel=2, note=59, velocity=127, time=0),
    Message('note_on', channel=2, note=52, velocity=127, time=0),
    Message('note_off', channel=2, note=52, velocity=64, time=384),
    Message('note_off', channel=2, note=59, velocity=64, time=0),
    Message('note_on', channel=2, note=52, velocity=100, time=0),
    Message('note_off', channel=2, note=52, velocity=64, time=192),
    Message('note_on', channel=2, note=52, velocity=100, time=0),
    Message('note_off', channel=2, note=52, velocity=64, time=192),
    Message('note_on', channel=2, note=52, velocity=100, time=0),
    Message('note_off', channel=2, note=52, velocity=64, time=192),
    Message('note_on', channel=2, note=52, velocity=100, time=0),
    Message('note_off', channel=2, note=52, velocity=64, time=192),
    Message('note_on', channel=2, note=52, velocity=100, time=0),
    Message('note_off', channel=2, note=52, velocity=64, time=192),
    Message('note_on', channel=2, note=52, velocity=100, time=0),
    Message('note_off', channel=2, note=52, velocity=64, time=192),
    Message('note_on', channel=2, note=60, velocity=127, time=0),
    Message('note_on', channel=2, note=53, velocity=127, time=0),
    Message('note_off', channel=2, note=53, velocity=64, time=384),
    Message('note_off', channel=2, note=60, velocity=64, time=0),
    Message('note_on', channel=2, note=52, velocity=100, time=0),
    Message('note_off', channel=2, note=52, velocity=64, time=192),
    Message('note_on', channel=2, note=52, velocity=100, time=0),
    Message('note_off', channel=2, note=52, velocity=64, time=192),
    Message('note_on', channel=2, note=52, velocity=100, time=0),
    Message('note_off', channel=2, note=52, velocity=64, time=192),
    Message('note_on', channel=2, note=52, velocity=100, time=0),
    Message('note_off', channel=2, note=52, velocity=64, time=192),
    Message('note_on', channel=2, note=52, velocity=100, time=0),
    Message('note_off', channel=2, note=52, velocity=64, time=192),
    Message('note_on', channel=2, note=52, velocity=100, time=0),
    Message('note_off', channel=2, note=52, velocity=64, time=192),
    Message('note_on', channel=2, note=60, velocity=127, time=0),
    Message('note_on', channel=2, note=53, velocity=127, time=0),
    Message('note_off', channel=2, note=53, velocity=64, time=384),
    Message('note_off', channel=2, note=60, velocity=64, time=0),
    Message('note_on', channel=2, note=52, velocity=100, time=0),
    Message('note_off', channel=2, note=52, velocity=64, time=192),
    Message('note_on', channel=2, note=52, velocity=100, time=0),
    Message('note_off', channel=2, note=52, velocity=64, time=192),
    Message('note_on', channel=2, note=52, velocity=100, time=0),
    Message('note_off', channel=2, note=52, velocity=64, time=192),
    Message('note_on', channel=2, note=52, velocity=100, time=0),
    Message('note_off', channel=2, note=52, velocity=64, time=192),
    Message('note_on', channel=2, note=52, velocity=100, time=0),
    Message('note_off', channel=2, note=52, velocity=64, time=192),
    Message('note_on', channel=2, note=52, velocity=100, time=0),
    Message('note_off', channel=2, note=52, velocity=64, time=192),
    Message('note_on', channel=2, note=62, velocity=127, time=0),
    Message('note_on', channel=2, note=55, velocity=127, time=0),
    Message('note_off', channel=2, note=55, velocity=64, time=384),
    Message('note_off', channel=2, note=62, velocity=64, time=0),
    Message('note_on', channel=2, note=52, velocity=100, time=0),
    Message('note_off', channel=2, note=52, velocity=64, time=192),
    Message('note_on', channel=2, note=61, velocity=100, time=0),
    Message('note_on', channel=2, note=54, velocity=100, time=0),
    Message('note_off', channel=2, note=54, velocity=64, time=192),
    Message('note_off', channel=2, note=61, velocity=64, time=0),
    Message('note_on', channel=2, note=52, velocity=100, time=0),
    Message('note_off', channel=2, note=52, velocity=64, time=192),
    Message('note_on', channel=2, note=61, velocity=100, time=0),
    Message('note_on', channel=2, note=54, velocity=100, time=0),
    Message('note_off', channel=2, note=54, velocity=64, time=192),
    Message('note_off', channel=2, note=61, velocity=64, time=0),
    Message('note_on', channel=2, note=62, velocity=100, time=0),
    Message('note_on', channel=2, note=55, velocity=100, time=0),
    Message('note_off', channel=2, note=55, velocity=64, time=192),
    Message('note_off', channel=2, note=62, velocity=64, time=0),
    Message('note_on', channel=2, note=61, velocity=100, time=0),
    Message('note_on', channel=2, note=54, velocity=100, time=0),
    Message('note_off', channel=2, note=54, velocity=64, time=192),
    Message('note_off', channel=2, note=61, velocity=64, time=0),
    Message('note_on', channel=2, note=54, velocity=127, time=0),
    Message('note_off', channel=2, note=54, velocity=64, time=384),
    Message('note_on', channel=2, note=66, velocity=100, time=0),
    Message('note_off', channel=2, note=66, velocity=64, time=192),
    Message('note_on', channel=2, note=69, velocity=100, time=0),
    Message('note_off', channel=2, note=69, velocity=64, time=192),
    Message('note_on', channel=2, note=60, velocity=100, time=0),
    Message('note_off', channel=2, note=60, velocity=64, time=192),
    Message('note_on', channel=2, note=59, velocity=100, time=0),
    Message('note_off', channel=2, note=59, velocity=64, time=384),
    Message('note_on', channel=2, note=66, velocity=100, time=0),
    Message('note_off', channel=2, note=66, velocity=64, time=192),
    Message('note_on', channel=2, note=54, velocity=127, time=0),
    Message('note_off', channel=2, note=54, velocity=64, time=384),
    Message('note_on', channel=2, note=66, velocity=100, time=0),
    Message('note_off', channel=2, note=66, velocity=64, time=192),
    Message('note_on', channel=2, note=69, velocity=100, time=0),
    Message('note_off', channel=2, note=69, velocity=64, time=192),
    Message('note_on', channel=2, note=60, velocity=100, time=0),
    Message('note_off', channel=2, note=60, velocity=64, time=192),
    Message('note_on', channel=2, note=59, velocity=100, time=0),
    Message('note_off', channel=2, note=59, velocity=64, time=384),
    Message('note_on', channel=2, note=66, velocity=100, time=0),
    Message('note_off', channel=2, note=66, velocity=64, time=192),
    Message('note_on', channel=2, note=54, velocity=127, time=0),
    Message('note_off', channel=2, note=54, velocity=64, time=384),
    Message('note_on', channel=2, note=66, velocity=100, time=0),
    Message('note_off', channel=2, note=66, velocity=64, time=192),
    Message('note_on', channel=2, note=69, velocity=100, time=0),
    Message('note_off', channel=2, note=69, velocity=64, time=192),
    Message('note_on', channel=2, note=60, velocity=100, time=0),
    Message('note_off', channel=2, note=60, velocity=64, time=192),
    Message('note_on', channel=2, note=59, velocity=100, time=0),
    Message('note_off', channel=2, note=59, velocity=64, time=384),
    Message('note_on', channel=2, note=66, velocity=100, time=0),
    Message('note_off', channel=2, note=66, velocity=64, time=192),
    Message('note_on', channel=2, note=54, velocity=127, time=0),
    Message('note_off', channel=2, note=54, velocity=64, time=384),
    Message('note_on', channel=2, note=66, velocity=100, time=0),
    Message('note_off', channel=2, note=66, velocity=64, time=192),
    Message('note_on', channel=2, note=69, velocity=100, time=0),
    Message('note_off', channel=2, note=69, velocity=64, time=192),
    Message('note_on', channel=2, note=60, velocity=100, time=0),
    Message('note_off', channel=2, note=60, velocity=64, time=192),
    Message('note_on', channel=2, note=59, velocity=100, time=0),
    Message('note_off', channel=2, note=59, velocity=64, time=384),
    Message('note_on', channel=2, note=66, velocity=100, time=0),
    Message('note_off', channel=2, note=66, velocity=64, time=384),
    Message('note_on', channel=2, note=54, velocity=100, time=0),
    Message('note_on', channel=2, note=61, velocity=100, time=0),
    Message('note_off', channel=2, note=61, velocity=64, time=384),
    Message('note_off', channel=2, note=54, velocity=64, time=0),
    Message('note_on', channel=2, note=61, velocity=100, time=0),
    Message('note_off', channel=2, note=61, velocity=64, time=192),
    Message('note_on', channel=2, note=60, velocity=100, time=0),
    Message('note_off', channel=2, note=60, velocity=64, time=192),
    Message('note_on', channel=2, note=66, velocity=100, time=0),
    Message('note_on', channel=2, note=59, velocity=100, time=0),
    Message('note_off', channel=2, note=59, velocity=64, time=576),
    Message('note_off', channel=2, note=66, velocity=64, time=0),
    Message('note_on', channel=2, note=61, velocity=100, time=0),
    Message('note_on', channel=2, note=54, velocity=100, time=0),
    Message('note_off', channel=2, note=54, velocity=64, time=576),
    Message('note_off', channel=2, note=61, velocity=64, time=0),
    Message('note_on', channel=2, note=61, velocity=100, time=0),
    Message('note_off', channel=2, note=61, velocity=64, time=192),
    Message('note_on', channel=2, note=60, velocity=100, time=0),
    Message('note_off', channel=2, note=60, velocity=64, time=192),
    Message('note_on', channel=2, note=66, velocity=100, time=0),
    Message('note_on', channel=2, note=59, velocity=100, time=0),
    Message('note_off', channel=2, note=59, velocity=64, time=576),
    Message('note_off', channel=2, note=66, velocity=64, time=0),
    Message('note_on', channel=2, note=61, velocity=100, time=0),
    Message('note_on', channel=2, note=54, velocity=100, time=0),
    Message('note_off', channel=2, note=54, velocity=64, time=576),
    Message('note_off', channel=2, note=61, velocity=64, time=0),
    Message('note_on', channel=2, note=61, velocity=100, time=0),
    Message('note_off', channel=2, note=61, velocity=64, time=192),
    Message('note_on', channel=2, note=60, velocity=100, time=0),
    Message('note_off', channel=2, note=60, velocity=64, time=192),
    Message('note_on', channel=2, note=66, velocity=100, time=0),
    Message('note_on', channel=2, note=59, velocity=100, time=0),
    Message('note_off', channel=2, note=59, velocity=64, time=576),
    Message('note_off', channel=2, note=66, velocity=64, time=0),
    Message('note_on', channel=2, note=59, velocity=100, time=0),
    Message('note_on', channel=2, note=52, velocity=100, time=0),
    Message('note_off', channel=2, note=52, velocity=64, time=1728),
    Message('note_off', channel=2, note=59, velocity=64, time=0),
    Message('note_on', channel=2, note=61, velocity=100, time=0),
    Message('note_on', channel=2, note=54, velocity=100, time=0),
    Message('note_on', channel=2, note=61, velocity=100, time=384),
    Message('note_off', channel=2, note=61, velocity=64, time=192),
    Message('note_off', channel=2, note=54, velocity=64, time=0),
    Message('note_off', channel=2, note=61, velocity=64, time=0),
    Message('note_on', channel=2, note=60, velocity=100, time=0),
    Message('note_off', channel=2, note=60, velocity=64, time=192),
    Message('note_on', channel=2, note=66, velocity=100, time=0),
    Message('note_on', channel=2, note=59, velocity=100, time=0),
    Message('note_off', channel=2, note=59, velocity=64, time=576),
    Message('note_off', channel=2, note=66, velocity=64, time=0),
    Message('note_on', channel=2, note=59, velocity=100, time=0),
    Message('note_on', channel=2, note=52, velocity=100, time=0),
    Message('note_off', channel=2, note=52, velocity=64, time=1728),
    Message('note_off', channel=2, note=59, velocity=64, time=0),
    Message('note_on', channel=2, note=62, velocity=100, time=0),
    Message('note_on', channel=2, note=55, velocity=100, time=0),
    Message('note_off', channel=2, note=55, velocity=64, time=192),
    Message('note_off', channel=2, note=62, velocity=64, time=0),
    Message('note_on', channel=2, note=52, velocity=100, time=0),
    Message('note_off', channel=2, note=52, velocity=64, time=192),
    Message('note_on', channel=2, note=61, velocity=100, time=0),
    Message('note_on', channel=2, note=54, velocity=100, time=0),
    Message('note_off', channel=2, note=54, velocity=64, time=192),
    Message('note_off', channel=2, note=61, velocity=64, time=0),
    Message('note_on', channel=2, note=52, velocity=100, time=0),
    Message('note_off', channel=2, note=52, velocity=64, time=192),
    Message('note_on', channel=2, note=61, velocity=100, time=0),
    Message('note_on', channel=2, note=54, velocity=100, time=0),
    Message('note_off', channel=2, note=54, velocity=64, time=192),
    Message('note_off', channel=2, note=61, velocity=64, time=0),
    Message('note_on', channel=2, note=62, velocity=100, time=0),
    Message('note_on', channel=2, note=55, velocity=100, time=0),
    Message('note_off', channel=2, note=55, velocity=64, time=192),
    Message('note_off', channel=2, note=62, velocity=64, time=0),
    Message('note_on', channel=2, note=61, velocity=100, time=0),
    Message('note_on', channel=2, note=54, velocity=100, time=0),
    Message('note_off', channel=2, note=54, velocity=64, time=192),
    Message('note_off', channel=2, note=61, velocity=64, time=0),
    Message('note_on', channel=2, note=59, velocity=127, time=0),
    Message('note_on', channel=2, note=52, velocity=127, time=0),
    Message('note_off', channel=2, note=52, velocity=64, time=384),
    Message('note_off', channel=2, note=59, velocity=64, time=0),
    Message('note_on', channel=2, note=59, velocity=100, time=0),
    Message('note_on', channel=2, note=52, velocity=100, time=0),
    Message('note_off', channel=2, note=52, velocity=64, time=192),
    Message('note_off', channel=2, note=59, velocity=64, time=0),
    Message('note_on', channel=2, note=64, velocity=100, time=0),
    Message('note_off', channel=2, note=64, velocity=64, time=192),
    Message('note_on', channel=2, note=58, velocity=100, time=0),
    Message('note_off', channel=2, note=58, velocity=64, time=192),
    Message('note_on', channel=2, note=57, velocity=100, time=0),
    Message('note_off', channel=2, note=57, velocity=64, time=384),
    Message('note_on', channel=2, note=52, velocity=100, time=0),
    Message('note_off', channel=2, note=52, velocity=64, time=192),
    Message('note_on', channel=2, note=52, velocity=127, time=0),
    Message('note_on', channel=2, note=59, velocity=127, time=0),
    Message('note_off', channel=2, note=59, velocity=64, time=384),
    Message('note_off', channel=2, note=52, velocity=64, time=0),
    Message('note_on', channel=2, note=59, velocity=100, time=0),
    Message('note_on', channel=2, note=52, velocity=100, time=0),
    Message('note_off', channel=2, note=52, velocity=64, time=192),
    Message('note_off', channel=2, note=59, velocity=64, time=0),
    Message('note_on', channel=2, note=64, velocity=100, time=0),
    Message('note_off', channel=2, note=64, velocity=64, time=192),
    Message('note_on', channel=2, note=58, velocity=100, time=0),
    Message('note_off', channel=2, note=58, velocity=64, time=192),
    Message('note_on', channel=2, note=57, velocity=100, time=0),
    Message('note_off', channel=2, note=57, velocity=64, time=384),
    Message('note_on', channel=2, note=52, velocity=100, time=0),
    Message('note_off', channel=2, note=52, velocity=64, time=192),
    Message('note_on', channel=2, note=59, velocity=127, time=0),
    Message('note_on', channel=2, note=52, velocity=127, time=0),
    Message('note_off', channel=2, note=52, velocity=64, time=384),
    Message('note_off', channel=2, note=59, velocity=64, time=0),
    Message('note_on', channel=2, note=59, velocity=100, time=0),
    Message('note_on', channel=2, note=52, velocity=100, time=0),
    Message('note_off', channel=2, note=52, velocity=64, time=192),
    Message('note_off', channel=2, note=59, velocity=64, time=0),
    Message('note_on', channel=2, note=64, velocity=100, time=0),
    Message('note_off', channel=2, note=64, velocity=64, time=192),
    Message('note_on', channel=2, note=58, velocity=100, time=0),
    Message('note_off', channel=2, note=58, velocity=64, time=192),
    Message('note_on', channel=2, note=57, velocity=100, time=0),
    Message('note_off', channel=2, note=57, velocity=64, time=384),
    Message('note_on', channel=2, note=52, velocity=100, time=0),
    Message('note_off', channel=2, note=52, velocity=64, time=192),
    Message('note_on', channel=2, note=62, velocity=127, time=0),
    Message('note_on', channel=2, note=55, velocity=127, time=0),
    Message('note_off', channel=2, note=55, velocity=64, time=384),
    Message('note_off', channel=2, note=62, velocity=64, time=0),
    Message('note_on', channel=2, note=52, velocity=100, time=0),
    Message('note_off', channel=2, note=52, velocity=64, time=192),
    Message('note_on', channel=2, note=61, velocity=100, time=0),
    Message('note_on', channel=2, note=54, velocity=100, time=0),
    Message('note_off', channel=2, note=54, velocity=64, time=192),
    Message('note_off', channel=2, note=61, velocity=64, time=0),
    Message('note_on', channel=2, note=52, velocity=100, time=0),
    Message('note_off', channel=2, note=52, velocity=64, time=192),
    Message('note_on', channel=2, note=61, velocity=100, time=0),
    Message('note_on', channel=2, note=54, velocity=100, time=0),
    Message('note_off', channel=2, note=54, velocity=64, time=192),
    Message('note_off', channel=2, note=61, velocity=64, time=0),
    Message('note_on', channel=2, note=62, velocity=100, time=0),
    Message('note_on', channel=2, note=55, velocity=100, time=0),
    Message('note_off', channel=2, note=55, velocity=64, time=192),
    Message('note_off', channel=2, note=62, velocity=64, time=0),
    Message('note_on', channel=2, note=61, velocity=100, time=0),
    Message('note_on', channel=2, note=54, velocity=100, time=0),
    Message('note_off', channel=2, note=54, velocity=64, time=192),
    Message('note_off', channel=2, note=61, velocity=64, time=0),
    Message('note_on', channel=2, note=59, velocity=127, time=0),
    Message('note_on', channel=2, note=52, velocity=127, time=0),
    Message('note_off', channel=2, note=52, velocity=64, time=384),
    Message('note_off', channel=2, note=59, velocity=64, time=0),
    Message('note_on', channel=2, note=59, velocity=100, time=0),
    Message('note_on', channel=2, note=52, velocity=100, time=0),
    Message('note_off', channel=2, note=52, velocity=64, time=192),
    Message('note_off', channel=2, note=59, velocity=64, time=0),
    Message('note_on', channel=2, note=64, velocity=100, time=0),
    Message('note_off', channel=2, note=64, velocity=64, time=192),
    Message('note_on', channel=2, note=58, velocity=100, time=0),
    Message('note_off', channel=2, note=58, velocity=64, time=192),
    Message('note_on', channel=2, note=57, velocity=100, time=0),
    Message('note_off', channel=2, note=57, velocity=64, time=384),
    Message('note_on', channel=2, note=52, velocity=100, time=0),
    Message('note_off', channel=2, note=52, velocity=64, time=192),
    Message('note_on', channel=2, note=52, velocity=127, time=0),
    Message('note_on', channel=2, note=59, velocity=127, time=0),
    Message('note_off', channel=2, note=59, velocity=64, time=384),
    Message('note_off', channel=2, note=52, velocity=64, time=0),
    Message('note_on', channel=2, note=59, velocity=100, time=0),
    Message('note_on', channel=2, note=52, velocity=100, time=0),
    Message('note_off', channel=2, note=52, velocity=64, time=192),
    Message('note_off', channel=2, note=59, velocity=64, time=0),
    Message('note_on', channel=2, note=64, velocity=100, time=0),
    Message('note_off', channel=2, note=64, velocity=64, time=192),
    Message('note_on', channel=2, note=58, velocity=100, time=0),
    Message('note_off', channel=2, note=58, velocity=64, time=192),
    Message('note_on', channel=2, note=57, velocity=100, time=0),
    Message('note_off', channel=2, note=57, velocity=64, time=384),
    Message('note_on', channel=2, note=52, velocity=100, time=0),
    Message('note_off', channel=2, note=52, velocity=64, time=192),
    Message('note_on', channel=2, note=59, velocity=127, time=0),
    Message('note_on', channel=2, note=52, velocity=127, time=0),
    Message('note_off', channel=2, note=52, velocity=64, time=384),
    Message('note_off', channel=2, note=59, velocity=64, time=0),
    Message('note_on', channel=2, note=59, velocity=100, time=0),
    Message('note_on', channel=2, note=52, velocity=100, time=0),
    Message('note_off', channel=2, note=52, velocity=64, time=192),
    Message('note_off', channel=2, note=59, velocity=64, time=0),
    Message('note_on', channel=2, note=64, velocity=100, time=0),
    Message('note_off', channel=2, note=64, velocity=64, time=192),
    Message('note_on', channel=2, note=58, velocity=100, time=0),
    Message('note_off', channel=2, note=58, velocity=64, time=192),
    Message('note_on', channel=2, note=57, velocity=100, time=0),
    Message('note_off', channel=2, note=57, velocity=64, time=384),
    Message('note_on', channel=2, note=52, velocity=100, time=0),
    Message('note_off', channel=2, note=52, velocity=64, time=192),
    Message('note_on', channel=2, note=62, velocity=127, time=0),
    Message('note_on', channel=2, note=55, velocity=127, time=0),
    Message('note_off', channel=2, note=55, velocity=64, time=384),
    Message('note_off', channel=2, note=62, velocity=64, time=0),
    Message('note_on', channel=2, note=52, velocity=100, time=0),
    Message('note_off', channel=2, note=52, velocity=64, time=192),
    Message('note_on', channel=2, note=61, velocity=100, time=0),
    Message('note_on', channel=2, note=54, velocity=100, time=0),
    Message('note_off', channel=2, note=54, velocity=64, time=192),
    Message('note_off', channel=2, note=61, velocity=64, time=0),
    Message('note_on', channel=2, note=52, velocity=100, time=0),
    Message('note_off', channel=2, note=52, velocity=64, time=192),
    Message('note_on', channel=2, note=61, velocity=100, time=0),
    Message('note_on', channel=2, note=54, velocity=100, time=0),
    Message('note_off', channel=2, note=54, velocity=64, time=192),
    Message('note_off', channel=2, note=61, velocity=64, time=0),
    Message('note_on', channel=2, note=62, velocity=100, time=0),
    Message('note_on', channel=2, note=55, velocity=100, time=0),
    Message('note_off', channel=2, note=55, velocity=64, time=192),
    Message('note_off', channel=2, note=62, velocity=64, time=0),
    Message('note_on', channel=2, note=61, velocity=100, time=0),
    Message('note_on', channel=2, note=54, velocity=100, time=0),
    Message('note_off', channel=2, note=54, velocity=64, time=192),
    Message('note_off', channel=2, note=61, velocity=64, time=0),
    Message('note_on', channel=2, note=59, velocity=127, time=0),
    Message('note_on', channel=2, note=52, velocity=127, time=0),
    Message('note_off', channel=2, note=52, velocity=64, time=384),
    Message('note_off', channel=2, note=59, velocity=64, time=0),
    Message('note_on', channel=2, note=52, velocity=100, time=0),
    Message('note_off', channel=2, note=52, velocity=64, time=192),
    Message('note_on', channel=2, note=52, velocity=100, time=0),
    Message('note_off', channel=2, note=52, velocity=64, time=192),
    Message('note_on', channel=2, note=52, velocity=100, time=0),
    Message('note_off', channel=2, note=52, velocity=64, time=192),
    Message('note_on', channel=2, note=52, velocity=100, time=0),
    Message('note_off', channel=2, note=52, velocity=64, time=192),
    Message('note_on', channel=2, note=52, velocity=100, time=0),
    Message('note_off', channel=2, note=52, velocity=64, time=192),
    Message('note_on', channel=2, note=52, velocity=100, time=0),
    Message('note_off', channel=2, note=52, velocity=64, time=192),
    Message('note_on', channel=2, note=60, velocity=127, time=0),
    Message('note_on', channel=2, note=53, velocity=127, time=0),
    Message('note_off', channel=2, note=53, velocity=64, time=384),
    Message('note_off', channel=2, note=60, velocity=64, time=0),
    Message('note_on', channel=2, note=52, velocity=100, time=0),
    Message('note_off', channel=2, note=52, velocity=64, time=192),
    Message('note_on', channel=2, note=52, velocity=100, time=0),
    Message('note_off', channel=2, note=52, velocity=64, time=192),
    Message('note_on', channel=2, note=52, velocity=100, time=0),
    Message('note_off', channel=2, note=52, velocity=64, time=192),
    Message('note_on', channel=2, note=52, velocity=100, time=0),
    Message('note_off', channel=2, note=52, velocity=64, time=192),
    Message('note_on', channel=2, note=52, velocity=100, time=0),
    Message('note_off', channel=2, note=52, velocity=64, time=192),
    Message('note_on', channel=2, note=52, velocity=100, time=0),
    Message('note_off', channel=2, note=52, velocity=64, time=192),
    Message('note_on', channel=2, note=60, velocity=127, time=0),
    Message('note_on', channel=2, note=53, velocity=127, time=0),
    Message('note_off', channel=2, note=53, velocity=64, time=384),
    Message('note_off', channel=2, note=60, velocity=64, time=0),
    Message('note_on', channel=2, note=52, velocity=100, time=0),
    Message('note_off', channel=2, note=52, velocity=64, time=192),
    Message('note_on', channel=2, note=52, velocity=100, time=0),
    Message('note_off', channel=2, note=52, velocity=64, time=192),
    Message('note_on', channel=2, note=52, velocity=100, time=0),
    Message('note_off', channel=2, note=52, velocity=64, time=192),
    Message('note_on', channel=2, note=52, velocity=100, time=0),
    Message('note_off', channel=2, note=52, velocity=64, time=192),
    Message('note_on', channel=2, note=52, velocity=100, time=0),
    Message('note_off', channel=2, note=52, velocity=64, time=192),
    Message('note_on', channel=2, note=52, velocity=100, time=0),
    Message('note_off', channel=2, note=52, velocity=64, time=192),
    Message('note_on', channel=2, note=62, velocity=127, time=0),
    Message('note_on', channel=2, note=55, velocity=127, time=0),
    Message('note_off', channel=2, note=55, velocity=64, time=384),
    Message('note_off', channel=2, note=62, velocity=64, time=0),
    Message('note_on', channel=2, note=52, velocity=100, time=0),
    Message('note_off', channel=2, note=52, velocity=64, time=192),
    Message('note_on', channel=2, note=61, velocity=100, time=0),
    Message('note_on', channel=2, note=54, velocity=100, time=0),
    Message('note_off', channel=2, note=54, velocity=64, time=192),
    Message('note_off', channel=2, note=61, velocity=64, time=0),
    Message('note_on', channel=2, note=52, velocity=100, time=0),
    Message('note_off', channel=2, note=52, velocity=64, time=192),
    Message('note_on', channel=2, note=61, velocity=100, time=0),
    Message('note_on', channel=2, note=54, velocity=100, time=0),
    Message('note_off', channel=2, note=54, velocity=64, time=192),
    Message('note_off', channel=2, note=61, velocity=64, time=0),
    Message('note_on', channel=2, note=62, velocity=100, time=0),
    Message('note_on', channel=2, note=55, velocity=100, time=0),
    Message('note_off', channel=2, note=55, velocity=64, time=192),
    Message('note_off', channel=2, note=62, velocity=64, time=0),
    Message('note_on', channel=2, note=61, velocity=100, time=0),
    Message('note_on', channel=2, note=54, velocity=100, time=0),
    Message('note_off', channel=2, note=54, velocity=64, time=192),
    Message('note_off', channel=2, note=61, velocity=64, time=0),
    Message('note_on', channel=2, note=59, velocity=127, time=0),
    Message('note_on', channel=2, note=52, velocity=127, time=0),
    Message('note_off', channel=2, note=52, velocity=64, time=384),
    Message('note_off', channel=2, note=59, velocity=64, time=0),
    Message('note_on', channel=2, note=52, velocity=100, time=0),
    Message('note_off', channel=2, note=52, velocity=64, time=192),
    Message('note_on', channel=2, note=52, velocity=100, time=0),
    Message('note_off', channel=2, note=52, velocity=64, time=192),
    Message('note_on', channel=2, note=52, velocity=100, time=0),
    Message('note_off', channel=2, note=52, velocity=64, time=192),
    Message('note_on', channel=2, note=52, velocity=100, time=0),
    Message('note_off', channel=2, note=52, velocity=64, time=192),
    Message('note_on', channel=2, note=52, velocity=100, time=0),
    Message('note_off', channel=2, note=52, velocity=64, time=192),
    Message('note_on', channel=2, note=52, velocity=100, time=0),
    Message('note_off', channel=2, note=52, velocity=64, time=192),
    Message('note_on', channel=2, note=60, velocity=127, time=0),
    Message('note_on', channel=2, note=53, velocity=127, time=0),
    Message('note_off', channel=2, note=53, velocity=64, time=384),
    Message('note_off', channel=2, note=60, velocity=64, time=0),
    Message('note_on', channel=2, note=52, velocity=100, time=0),
    Message('note_off', channel=2, note=52, velocity=64, time=192),
    Message('note_on', channel=2, note=52, velocity=100, time=0),
    Message('note_off', channel=2, note=52, velocity=64, time=192),
    Message('note_on', channel=2, note=52, velocity=100, time=0),
    Message('note_off', channel=2, note=52, velocity=64, time=192),
    Message('note_on', channel=2, note=52, velocity=100, time=0),
    Message('note_off', channel=2, note=52, velocity=64, time=192),
    Message('note_on', channel=2, note=52, velocity=100, time=0),
    Message('note_off', channel=2, note=52, velocity=64, time=192),
    Message('note_on', channel=2, note=52, velocity=100, time=0),
    Message('note_off', channel=2, note=52, velocity=64, time=192),
    Message('note_on', channel=2, note=60, velocity=127, time=0),
    Message('note_on', channel=2, note=53, velocity=127, time=0),
    Message('note_off', channel=2, note=53, velocity=64, time=384),
    Message('note_off', channel=2, note=60, velocity=64, time=0),
    Message('note_on', channel=2, note=52, velocity=100, time=0),
    Message('note_off', channel=2, note=52, velocity=64, time=192),
    Message('note_on', channel=2, note=52, velocity=100, time=0),
    Message('note_off', channel=2, note=52, velocity=64, time=192),
    Message('note_on', channel=2, note=52, velocity=100, time=0),
    Message('note_off', channel=2, note=52, velocity=64, time=192),
    Message('note_on', channel=2, note=52, velocity=100, time=0),
    Message('note_off', channel=2, note=52, velocity=64, time=192),
    Message('note_on', channel=2, note=52, velocity=100, time=0),
    Message('note_off', channel=2, note=52, velocity=64, time=192),
    Message('note_on', channel=2, note=52, velocity=100, time=0),
    Message('note_off', channel=2, note=52, velocity=64, time=192),
    Message('note_on', channel=2, note=62, velocity=127, time=0),
    Message('note_on', channel=2, note=55, velocity=127, time=0),
    Message('note_off', channel=2, note=55, velocity=64, time=384),
    Message('note_off', channel=2, note=62, velocity=64, time=0),
    Message('note_on', channel=2, note=52, velocity=100, time=0),
    Message('note_off', channel=2, note=52, velocity=64, time=192),
    Message('note_on', channel=2, note=61, velocity=100, time=0),
    Message('note_on', channel=2, note=54, velocity=100, time=0),
    Message('note_off', channel=2, note=54, velocity=64, time=192),
    Message('note_off', channel=2, note=61, velocity=64, time=0),
    Message('note_on', channel=2, note=52, velocity=100, time=0),
    Message('note_off', channel=2, note=52, velocity=64, time=192),
    Message('note_on', channel=2, note=61, velocity=100, time=0),
    Message('note_on', channel=2, note=54, velocity=100, time=0),
    Message('note_off', channel=2, note=54, velocity=64, time=192),
    Message('note_off', channel=2, note=61, velocity=64, time=0),
    Message('note_on', channel=2, note=62, velocity=100, time=0),
    Message('note_on', channel=2, note=55, velocity=100, time=0),
    Message('note_off', channel=2, note=55, velocity=64, time=192),
    Message('note_off', channel=2, note=62, velocity=64, time=0),
    Message('note_on', channel=2, note=61, velocity=100, time=0),
    Message('note_on', channel=2, note=54, velocity=100, time=0),
    Message('note_off', channel=2, note=54, velocity=64, time=192),
    Message('note_off', channel=2, note=61, velocity=64, time=0),
    Message('note_on', channel=2, note=54, velocity=127, time=0),
    Message('note_off', channel=2, note=54, velocity=64, time=384),
    Message('note_on', channel=2, note=66, velocity=100, time=0),
    Message('note_off', channel=2, note=66, velocity=64, time=192),
    Message('note_on', channel=2, note=69, velocity=100, time=0),
    Message('note_off', channel=2, note=69, velocity=64, time=192),
    Message('note_on', channel=2, note=60, velocity=100, time=0),
    Message('note_off', channel=2, note=60, velocity=64, time=192),
    Message('note_on', channel=2, note=59, velocity=100, time=0),
    Message('note_off', channel=2, note=59, velocity=64, time=384),
    Message('note_on', channel=2, note=66, velocity=100, time=0),
    Message('note_off', channel=2, note=66, velocity=64, time=192),
    Message('note_on', channel=2, note=54, velocity=127, time=0),
    Message('note_off', channel=2, note=54, velocity=64, time=384),
    Message('note_on', channel=2, note=66, velocity=100, time=0),
    Message('note_off', channel=2, note=66, velocity=64, time=192),
    Message('note_on', channel=2, note=69, velocity=100, time=0),
    Message('note_off', channel=2, note=69, velocity=64, time=192),
    Message('note_on', channel=2, note=60, velocity=100, time=0),
    Message('note_off', channel=2, note=60, velocity=64, time=192),
    Message('note_on', channel=2, note=59, velocity=100, time=0),
    Message('note_off', channel=2, note=59, velocity=64, time=384),
    Message('note_on', channel=2, note=66, velocity=100, time=0),
    Message('note_off', channel=2, note=66, velocity=64, time=192),
    Message('note_on', channel=2, note=54, velocity=127, time=0),
    Message('note_off', channel=2, note=54, velocity=64, time=384),
    Message('note_on', channel=2, note=66, velocity=100, time=0),
    Message('note_off', channel=2, note=66, velocity=64, time=192),
    Message('note_on', channel=2, note=69, velocity=100, time=0),
    Message('note_off', channel=2, note=69, velocity=64, time=192),
    Message('note_on', channel=2, note=60, velocity=100, time=0),
    Message('note_off', channel=2, note=60, velocity=64, time=192),
    Message('note_on', channel=2, note=59, velocity=100, time=0),
    Message('note_off', channel=2, note=59, velocity=64, time=384),
    Message('note_on', channel=2, note=66, velocity=100, time=0),
    Message('note_off', channel=2, note=66, velocity=64, time=192),
    Message('note_on', channel=2, note=54, velocity=127, time=0),
    Message('note_off', channel=2, note=54, velocity=64, time=384),
    Message('note_on', channel=2, note=66, velocity=100, time=0),
    Message('note_off', channel=2, note=66, velocity=64, time=192),
    Message('note_on', channel=2, note=69, velocity=100, time=0),
    Message('note_off', channel=2, note=69, velocity=64, time=192),
    Message('note_on', channel=2, note=60, velocity=100, time=0),
    Message('note_off', channel=2, note=60, velocity=64, time=192),
    Message('note_on', channel=2, note=59, velocity=100, time=0),
    Message('note_off', channel=2, note=59, velocity=64, time=384),
    Message('note_on', channel=2, note=66, velocity=100, time=0),
    Message('note_off', channel=2, note=66, velocity=64, time=384),
    Message('note_on', channel=2, note=54, velocity=100, time=0),
    Message('note_on', channel=2, note=61, velocity=100, time=0),
    Message('note_off', channel=2, note=61, velocity=64, time=384),
    Message('note_off', channel=2, note=54, velocity=64, time=0),
    Message('note_on', channel=2, note=61, velocity=100, time=0),
    Message('note_off', channel=2, note=61, velocity=64, time=192),
    Message('note_on', channel=2, note=60, velocity=100, time=0),
    Message('note_off', channel=2, note=60, velocity=64, time=192),
    Message('note_on', channel=2, note=66, velocity=100, time=0),
    Message('note_on', channel=2, note=59, velocity=100, time=0),
    Message('note_off', channel=2, note=59, velocity=64, time=576),
    Message('note_off', channel=2, note=66, velocity=64, time=0),
    Message('note_on', channel=2, note=61, velocity=100, time=0),
    Message('note_on', channel=2, note=54, velocity=100, time=0),
    Message('note_off', channel=2, note=54, velocity=64, time=576),
    Message('note_off', channel=2, note=61, velocity=64, time=0),
    Message('note_on', channel=2, note=61, velocity=100, time=0),
    Message('note_off', channel=2, note=61, velocity=64, time=192),
    Message('note_on', channel=2, note=60, velocity=100, time=0),
    Message('note_off', channel=2, note=60, velocity=64, time=192),
    Message('note_on', channel=2, note=66, velocity=100, time=0),
    Message('note_on', channel=2, note=59, velocity=100, time=0),
    Message('note_off', channel=2, note=59, velocity=64, time=576),
    Message('note_off', channel=2, note=66, velocity=64, time=0),
    Message('note_on', channel=2, note=61, velocity=100, time=0),
    Message('note_on', channel=2, note=54, velocity=100, time=0),
    Message('note_off', channel=2, note=54, velocity=64, time=576),
    Message('note_off', channel=2, note=61, velocity=64, time=0),
    Message('note_on', channel=2, note=61, velocity=100, time=0),
    Message('note_off', channel=2, note=61, velocity=64, time=192),
    Message('note_on', channel=2, note=60, velocity=100, time=0),
    Message('note_off', channel=2, note=60, velocity=64, time=192),
    Message('note_on', channel=2, note=66, velocity=100, time=0),
    Message('note_on', channel=2, note=59, velocity=100, time=0),
    Message('note_off', channel=2, note=59, velocity=64, time=576),
    Message('note_off', channel=2, note=66, velocity=64, time=0),
    Message('note_on', channel=2, note=59, velocity=100, time=0),
    Message('note_on', channel=2, note=52, velocity=100, time=0),
    Message('note_off', channel=2, note=52, velocity=64, time=1728),
    Message('note_off', channel=2, note=59, velocity=64, time=0),
    Message('note_on', channel=2, note=61, velocity=100, time=0),
    Message('note_on', channel=2, note=54, velocity=100, time=0),
    Message('note_on', channel=2, note=61, velocity=100, time=384),
    Message('note_off', channel=2, note=61, velocity=64, time=192),
    Message('note_off', channel=2, note=54, velocity=64, time=0),
    Message('note_off', channel=2, note=61, velocity=64, time=0),
    Message('note_on', channel=2, note=60, velocity=100, time=0),
    Message('note_off', channel=2, note=60, velocity=64, time=192),
    Message('note_on', channel=2, note=66, velocity=100, time=0),
    Message('note_on', channel=2, note=59, velocity=100, time=0),
    Message('note_off', channel=2, note=59, velocity=64, time=576),
    Message('note_off', channel=2, note=66, velocity=64, time=0),
    Message('note_on', channel=2, note=59, velocity=100, time=0),
    Message('note_on', channel=2, note=52, velocity=100, time=0),
    Message('note_off', channel=2, note=52, velocity=64, time=1728),
    Message('note_off', channel=2, note=59, velocity=64, time=0),
    Message('note_on', channel=2, note=62, velocity=100, time=0),
    Message('note_on', channel=2, note=55, velocity=100, time=0),
    Message('note_off', channel=2, note=55, velocity=64, time=192),
    Message('note_off', channel=2, note=62, velocity=64, time=0),
    Message('note_on', channel=2, note=52, velocity=100, time=0),
    Message('note_off', channel=2, note=52, velocity=64, time=192),
    Message('note_on', channel=2, note=61, velocity=100, time=0),
    Message('note_on', channel=2, note=54, velocity=100, time=0),
    Message('note_off', channel=2, note=54, velocity=64, time=192),
    Message('note_off', channel=2, note=61, velocity=64, time=0),
    Message('note_on', channel=2, note=52, velocity=100, time=0),
    Message('note_off', channel=2, note=52, velocity=64, time=192),
    Message('note_on', channel=2, note=61, velocity=100, time=0),
    Message('note_on', channel=2, note=54, velocity=100, time=0),
    Message('note_off', channel=2, note=54, velocity=64, time=192),
    Message('note_off', channel=2, note=61, velocity=64, time=0),
    Message('note_on', channel=2, note=62, velocity=100, time=0),
    Message('note_on', channel=2, note=55, velocity=100, time=0),
    Message('note_off', channel=2, note=55, velocity=64, time=192),
    Message('note_off', channel=2, note=62, velocity=64, time=0),
    Message('note_on', channel=2, note=61, velocity=100, time=0),
    Message('note_on', channel=2, note=54, velocity=100, time=0),
    Message('note_off', channel=2, note=54, velocity=64, time=192),
    Message('note_off', channel=2, note=61, velocity=64, time=0),
    Message('note_on', channel=2, note=59, velocity=127, time=0),
    Message('note_on', channel=2, note=52, velocity=127, time=0),
    Message('note_off', channel=2, note=52, velocity=64, time=1536),
    Message('note_off', channel=2, note=59, velocity=64, time=0),
    Message('note_on', channel=2, note=59, velocity=127, time=0),
    Message('note_on', channel=2, note=52, velocity=127, time=0),
    Message('note_off', channel=2, note=52, velocity=64, time=384),
    Message('note_off', channel=2, note=59, velocity=64, time=0),
    Message('note_on', channel=2, note=59, velocity=100, time=0),
    Message('note_on', channel=2, note=52, velocity=100, time=0),
    Message('note_off', channel=2, note=52, velocity=64, time=192),
    Message('note_off', channel=2, note=59, velocity=64, time=0),
    Message('note_on', channel=2, note=64, velocity=100, time=0),
    Message('note_off', channel=2, note=64, velocity=64, time=192),
    Message('note_on', channel=2, note=58, velocity=100, time=0),
    Message('note_off', channel=2, note=58, velocity=64, time=192),
    Message('note_on', channel=2, note=57, velocity=100, time=0),
    Message('note_off', channel=2, note=57, velocity=64, time=384),
    Message('note_on', channel=2, note=52, velocity=100, time=0),
    Message('note_off', channel=2, note=52, velocity=64, time=192),
    Message('note_on', channel=2, note=52, velocity=127, time=0),
    Message('note_on', channel=2, note=59, velocity=127, time=0),
    Message('note_off', channel=2, note=59, velocity=64, time=384),
    Message('note_off', channel=2, note=52, velocity=64, time=0),
    Message('note_on', channel=2, note=59, velocity=100, time=0),
    Message('note_on', channel=2, note=52, velocity=100, time=0),
    Message('note_off', channel=2, note=52, velocity=64, time=192),
    Message('note_off', channel=2, note=59, velocity=64, time=0),
    Message('note_on', channel=2, note=64, velocity=100, time=0),
    Message('note_off', channel=2, note=64, velocity=64, time=192),
    Message('note_on', channel=2, note=58, velocity=100, time=0),
    Message('note_off', channel=2, note=58, velocity=64, time=192),
    Message('note_on', channel=2, note=57, velocity=100, time=0),
    Message('note_off', channel=2, note=57, velocity=64, time=384),
    Message('note_on', channel=2, note=52, velocity=100, time=0),
    Message('note_off', channel=2, note=52, velocity=64, time=192),
    Message('note_on', channel=2, note=59, velocity=127, time=0),
    Message('note_on', channel=2, note=52, velocity=127, time=0),
    Message('note_off', channel=2, note=52, velocity=64, time=384),
    Message('note_off', channel=2, note=59, velocity=64, time=0),
    Message('note_on', channel=2, note=59, velocity=100, time=0),
    Message('note_on', channel=2, note=52, velocity=100, time=0),
    Message('note_off', channel=2, note=52, velocity=64, time=192),
    Message('note_off', channel=2, note=59, velocity=64, time=0),
    Message('note_on', channel=2, note=64, velocity=100, time=0),
    Message('note_off', channel=2, note=64, velocity=64, time=192),
    Message('note_on', channel=2, note=58, velocity=100, time=0),
    Message('note_off', channel=2, note=58, velocity=64, time=192),
    Message('note_on', channel=2, note=57, velocity=100, time=0),
    Message('note_off', channel=2, note=57, velocity=64, time=384),
    Message('note_on', channel=2, note=52, velocity=100, time=0),
    Message('note_off', channel=2, note=52, velocity=64, time=192),
    Message('note_on', channel=2, note=62, velocity=127, time=0),
    Message('note_on', channel=2, note=55, velocity=127, time=0),
    Message('note_off', channel=2, note=55, velocity=64, time=384),
    Message('note_off', channel=2, note=62, velocity=64, time=0),
    Message('note_on', channel=2, note=52, velocity=100, time=0),
    Message('note_off', channel=2, note=52, velocity=64, time=192),
    Message('note_on', channel=2, note=61, velocity=100, time=0),
    Message('note_on', channel=2, note=54, velocity=100, time=0),
    Message('note_off', channel=2, note=54, velocity=64, time=192),
    Message('note_off', channel=2, note=61, velocity=64, time=0),
    Message('note_on', channel=2, note=52, velocity=100, time=0),
    Message('note_off', channel=2, note=52, velocity=64, time=192),
    Message('note_on', channel=2, note=61, velocity=100, time=0),
    Message('note_on', channel=2, note=54, velocity=100, time=0),
    Message('note_off', channel=2, note=54, velocity=64, time=192),
    Message('note_off', channel=2, note=61, velocity=64, time=0),
    Message('note_on', channel=2, note=62, velocity=100, time=0),
    Message('note_on', channel=2, note=55, velocity=100, time=0),
    Message('note_off', channel=2, note=55, velocity=64, time=192),
    Message('note_off', channel=2, note=62, velocity=64, time=0),
    Message('note_on', channel=2, note=61, velocity=100, time=0),
    Message('note_on', channel=2, note=54, velocity=100, time=0),
    Message('note_off', channel=2, note=54, velocity=64, time=192),
    Message('note_off', channel=2, note=61, velocity=64, time=0),
    Message('note_on', channel=2, note=59, velocity=127, time=0),
    Message('note_on', channel=2, note=52, velocity=127, time=0),
    Message('note_off', channel=2, note=52, velocity=64, time=384),
    Message('note_off', channel=2, note=59, velocity=64, time=0),
    Message('note_on', channel=2, note=59, velocity=100, time=0),
    Message('note_on', channel=2, note=52, velocity=100, time=0),
    Message('note_off', channel=2, note=52, velocity=64, time=192),
    Message('note_off', channel=2, note=59, velocity=64, time=0),
    Message('note_on', channel=2, note=64, velocity=100, time=0),
    Message('note_off', channel=2, note=64, velocity=64, time=192),
    Message('note_on', channel=2, note=58, velocity=100, time=0),
    Message('note_off', channel=2, note=58, velocity=64, time=192),
    Message('note_on', channel=2, note=57, velocity=100, time=0),
    Message('note_off', channel=2, note=57, velocity=64, time=384),
    Message('note_on', channel=2, note=52, velocity=100, time=0),
    Message('note_off', channel=2, note=52, velocity=64, time=192),
    Message('note_on', channel=2, note=52, velocity=127, time=0),
    Message('note_on', channel=2, note=59, velocity=127, time=0),
    Message('note_off', channel=2, note=59, velocity=64, time=384),
    Message('note_off', channel=2, note=52, velocity=64, time=0),
    Message('note_on', channel=2, note=59, velocity=100, time=0),
    Message('note_on', channel=2, note=52, velocity=100, time=0),
    Message('note_off', channel=2, note=52, velocity=64, time=192),
    Message('note_off', channel=2, note=59, velocity=64, time=0),
    Message('note_on', channel=2, note=64, velocity=100, time=0),
    Message('note_off', channel=2, note=64, velocity=64, time=192),
    Message('note_on', channel=2, note=58, velocity=100, time=0),
    Message('note_off', channel=2, note=58, velocity=64, time=192),
    Message('note_on', channel=2, note=57, velocity=100, time=0),
    Message('note_off', channel=2, note=57, velocity=64, time=384),
    Message('note_on', channel=2, note=52, velocity=100, time=0),
    Message('note_off', channel=2, note=52, velocity=64, time=192),
    Message('note_on', channel=2, note=59, velocity=127, time=0),
    Message('note_on', channel=2, note=52, velocity=127, time=0),
    Message('note_off', channel=2, note=52, velocity=64, time=384),
    Message('note_off', channel=2, note=59, velocity=64, time=0),
    Message('note_on', channel=2, note=59, velocity=100, time=0),
    Message('note_on', channel=2, note=52, velocity=100, time=0),
    Message('note_off', channel=2, note=52, velocity=64, time=192),
    Message('note_off', channel=2, note=59, velocity=64, time=0),
    Message('note_on', channel=2, note=64, velocity=100, time=0),
    Message('note_off', channel=2, note=64, velocity=64, time=192),
    Message('note_on', channel=2, note=58, velocity=100, time=0),
    Message('note_off', channel=2, note=58, velocity=64, time=192),
    Message('note_on', channel=2, note=57, velocity=100, time=0),
    Message('note_off', channel=2, note=57, velocity=64, time=384),
    Message('note_on', channel=2, note=52, velocity=100, time=0),
    Message('note_off', channel=2, note=52, velocity=64, time=192),
    Message('note_on', channel=2, note=62, velocity=127, time=0),
    Message('note_on', channel=2, note=55, velocity=127, time=0),
    Message('note_off', channel=2, note=55, velocity=64, time=384),
    Message('note_off', channel=2, note=62, velocity=64, time=0),
    Message('note_on', channel=2, note=52, velocity=100, time=0),
    Message('note_off', channel=2, note=52, velocity=64, time=192),
    Message('note_on', channel=2, note=61, velocity=100, time=0),
    Message('note_on', channel=2, note=54, velocity=100, time=0),
    Message('note_off', channel=2, note=54, velocity=64, time=192),
    Message('note_off', channel=2, note=61, velocity=64, time=0),
    Message('note_on', channel=2, note=52, velocity=100, time=0),
    Message('note_off', channel=2, note=52, velocity=64, time=192),
    Message('note_on', channel=2, note=61, velocity=100, time=0),
    Message('note_on', channel=2, note=54, velocity=100, time=0),
    Message('note_off', channel=2, note=54, velocity=64, time=192),
    Message('note_off', channel=2, note=61, velocity=64, time=0),
    Message('note_on', channel=2, note=62, velocity=100, time=0),
    Message('note_on', channel=2, note=55, velocity=100, time=0),
    Message('note_off', channel=2, note=55, velocity=64, time=192),
    Message('note_off', channel=2, note=62, velocity=64, time=0),
    Message('note_on', channel=2, note=61, velocity=100, time=0),
    Message('note_on', channel=2, note=54, velocity=100, time=0),
    Message('note_off', channel=2, note=54, velocity=64, time=192),
    Message('note_off', channel=2, note=61, velocity=64, time=0),
    Message('note_on', channel=2, note=54, velocity=127, time=0),
    Message('note_off', channel=2, note=54, velocity=64, time=384),
    Message('note_on', channel=2, note=66, velocity=100, time=0),
    Message('note_off', channel=2, note=66, velocity=64, time=192),
    Message('note_on', channel=2, note=69, velocity=100, time=0),
    Message('note_off', channel=2, note=69, velocity=64, time=192),
    Message('note_on', channel=2, note=60, velocity=100, time=0),
    Message('note_off', channel=2, note=60, velocity=64, time=192),
    Message('note_on', channel=2, note=59, velocity=100, time=0),
    Message('note_off', channel=2, note=59, velocity=64, time=384),
    Message('note_on', channel=2, note=66, velocity=100, time=0),
    Message('note_off', channel=2, note=66, velocity=64, time=192),
    Message('note_on', channel=2, note=54, velocity=127, time=0),
    Message('note_off', channel=2, note=54, velocity=64, time=384),
    Message('note_on', channel=2, note=66, velocity=100, time=0),
    Message('note_off', channel=2, note=66, velocity=64, time=192),
    Message('note_on', channel=2, note=69, velocity=100, time=0),
    Message('note_off', channel=2, note=69, velocity=64, time=192),
    Message('note_on', channel=2, note=60, velocity=100, time=0),
    Message('note_off', channel=2, note=60, velocity=64, time=192),
    Message('note_on', channel=2, note=59, velocity=100, time=0),
    Message('note_off', channel=2, note=59, velocity=64, time=384),
    Message('note_on', channel=2, note=66, velocity=100, time=0),
    Message('note_off', channel=2, note=66, velocity=64, time=192),
    Message('note_on', channel=2, note=54, velocity=127, time=0),
    Message('note_off', channel=2, note=54, velocity=64, time=384),
    Message('note_on', channel=2, note=66, velocity=100, time=0),
    Message('note_off', channel=2, note=66, velocity=64, time=192),
    Message('note_on', channel=2, note=69, velocity=100, time=0),
    Message('note_off', channel=2, note=69, velocity=64, time=192),
    Message('note_on', channel=2, note=60, velocity=100, time=0),
    Message('note_off', channel=2, note=60, velocity=64, time=192),
    Message('note_on', channel=2, note=59, velocity=100, time=0),
    Message('note_off', channel=2, note=59, velocity=64, time=384),
    Message('note_on', channel=2, note=66, velocity=100, time=0),
    Message('note_off', channel=2, note=66, velocity=64, time=192),
    Message('note_on', channel=2, note=54, velocity=127, time=0),
    Message('note_off', channel=2, note=54, velocity=64, time=384),
    Message('note_on', channel=2, note=66, velocity=100, time=0),
    Message('note_off', channel=2, note=66, velocity=64, time=192),
    Message('note_on', channel=2, note=69, velocity=100, time=0),
    Message('note_off', channel=2, note=69, velocity=64, time=192),
    Message('note_on', channel=2, note=60, velocity=100, time=0),
    Message('note_off', channel=2, note=60, velocity=64, time=192),
    Message('note_on', channel=2, note=59, velocity=100, time=0),
    Message('note_off', channel=2, note=59, velocity=64, time=384),
    Message('note_on', channel=2, note=66, velocity=100, time=0),
    Message('note_off', channel=2, note=66, velocity=64, time=384),
    Message('note_on', channel=2, note=54, velocity=100, time=0),
    Message('note_on', channel=2, note=61, velocity=100, time=0),
    Message('note_off', channel=2, note=61, velocity=64, time=384),
    Message('note_off', channel=2, note=54, velocity=64, time=0),
    Message('note_on', channel=2, note=61, velocity=100, time=0),
    Message('note_off', channel=2, note=61, velocity=64, time=192),
    Message('note_on', channel=2, note=60, velocity=100, time=0),
    Message('note_off', channel=2, note=60, velocity=64, time=192),
    Message('note_on', channel=2, note=66, velocity=100, time=0),
    Message('note_on', channel=2, note=59, velocity=100, time=0),
    Message('note_off', channel=2, note=59, velocity=64, time=576),
    Message('note_off', channel=2, note=66, velocity=64, time=0),
    Message('note_on', channel=2, note=61, velocity=100, time=0),
    Message('note_on', channel=2, note=54, velocity=100, time=0),
    Message('note_off', channel=2, note=54, velocity=64, time=576),
    Message('note_off', channel=2, note=61, velocity=64, time=0),
    Message('note_on', channel=2, note=61, velocity=100, time=0),
    Message('note_off', channel=2, note=61, velocity=64, time=192),
    Message('note_on', channel=2, note=60, velocity=100, time=0),
    Message('note_off', channel=2, note=60, velocity=64, time=192),
    Message('note_on', channel=2, note=66, velocity=100, time=0),
    Message('note_on', channel=2, note=59, velocity=100, time=0),
    Message('note_off', channel=2, note=59, velocity=64, time=576),
    Message('note_off', channel=2, note=66, velocity=64, time=0),
    Message('note_on', channel=2, note=61, velocity=100, time=0),
    Message('note_on', channel=2, note=54, velocity=100, time=0),
    Message('note_off', channel=2, note=54, velocity=64, time=576),
    Message('note_off', channel=2, note=61, velocity=64, time=0),
    Message('note_on', channel=2, note=61, velocity=100, time=0),
    Message('note_off', channel=2, note=61, velocity=64, time=192),
    Message('note_on', channel=2, note=60, velocity=100, time=0),
    Message('note_off', channel=2, note=60, velocity=64, time=192),
    Message('note_on', channel=2, note=66, velocity=100, time=0),
    Message('note_on', channel=2, note=59, velocity=100, time=0),
    Message('note_off', channel=2, note=59, velocity=64, time=576),
    Message('note_off', channel=2, note=66, velocity=64, time=0),
    Message('note_on', channel=2, note=59, velocity=100, time=0),
    Message('note_on', channel=2, note=52, velocity=100, time=0),
    Message('note_off', channel=2, note=52, velocity=64, time=1728),
    Message('note_off', channel=2, note=59, velocity=64, time=0),
    Message('note_on', channel=2, note=61, velocity=100, time=0),
    Message('note_on', channel=2, note=54, velocity=100, time=0),
    Message('note_on', channel=2, note=61, velocity=100, time=384),
    Message('note_off', channel=2, note=61, velocity=64, time=192),
    Message('note_off', channel=2, note=54, velocity=64, time=0),
    Message('note_off', channel=2, note=61, velocity=64, time=0),
    Message('note_on', channel=2, note=60, velocity=100, time=0),
    Message('note_off', channel=2, note=60, velocity=64, time=192),
    Message('note_on', channel=2, note=66, velocity=100, time=0),
    Message('note_on', channel=2, note=59, velocity=100, time=0),
    Message('note_off', channel=2, note=59, velocity=64, time=576),
    Message('note_off', channel=2, note=66, velocity=64, time=0),
    Message('note_on', channel=2, note=59, velocity=100, time=0),
    Message('note_on', channel=2, note=52, velocity=100, time=0),
    Message('note_off', channel=2, note=52, velocity=64, time=1728),
    Message('note_off', channel=2, note=59, velocity=64, time=0),
    Message('note_on', channel=2, note=59, velocity=100, time=0),
    Message('note_on', channel=2, note=52, velocity=100, time=0),
    Message('note_off', channel=2, note=52, velocity=64, time=192),
    Message('note_off', channel=2, note=59, velocity=64, time=0),
    Message('control_change', channel=2, control=7, value=127, time=18240),
    Message('program_change', channel=2, program=30, time=0),
    Message('note_on', channel=2, note=54, velocity=127, time=1344),
    Message('note_off', channel=2, note=54, velocity=64, time=384),
    Message('note_on', channel=2, note=66, velocity=100, time=0),
    Message('note_off', channel=2, note=66, velocity=64, time=192),
    Message('note_on', channel=2, note=69, velocity=100, time=0),
    Message('note_off', channel=2, note=69, velocity=64, time=192),
    Message('note_on', channel=2, note=60, velocity=100, time=0),
    Message('note_off', channel=2, note=60, velocity=64, time=192),
    Message('note_on', channel=2, note=59, velocity=100, time=0),
    Message('note_off', channel=2, note=59, velocity=64, time=384),
    Message('note_on', channel=2, note=66, velocity=100, time=0),
    Message('note_off', channel=2, note=66, velocity=64, time=192),
    Message('note_on', channel=2, note=54, velocity=127, time=0),
    Message('note_off', channel=2, note=54, velocity=64, time=384),
    Message('note_on', channel=2, note=66, velocity=100, time=0),
    Message('note_off', channel=2, note=66, velocity=64, time=192),
    Message('note_on', channel=2, note=69, velocity=100, time=0),
    Message('note_off', channel=2, note=69, velocity=64, time=192),
    Message('note_on', channel=2, note=60, velocity=100, time=0),
    Message('note_off', channel=2, note=60, velocity=64, time=192),
    Message('note_on', channel=2, note=59, velocity=100, time=0),
    Message('note_off', channel=2, note=59, velocity=64, time=384),
    Message('note_on', channel=2, note=66, velocity=100, time=0),
    Message('note_off', channel=2, note=66, velocity=64, time=192),
    Message('note_on', channel=2, note=54, velocity=127, time=0),
    Message('note_off', channel=2, note=54, velocity=64, time=384),
    Message('note_on', channel=2, note=66, velocity=100, time=0),
    Message('note_off', channel=2, note=66, velocity=64, time=192),
    Message('note_on', channel=2, note=69, velocity=100, time=0),
    Message('note_off', channel=2, note=69, velocity=64, time=192),
    Message('note_on', channel=2, note=60, velocity=100, time=0),
    Message('note_off', channel=2, note=60, velocity=64, time=192),
    Message('note_on', channel=2, note=59, velocity=100, time=0),
    Message('note_off', channel=2, note=59, velocity=64, time=384),
    Message('note_on', channel=2, note=66, velocity=100, time=0),
    Message('note_off', channel=2, note=66, velocity=64, time=192),
    Message('note_on', channel=2, note=54, velocity=127, time=0),
    Message('note_off', channel=2, note=54, velocity=64, time=384),
    Message('note_on', channel=2, note=66, velocity=100, time=0),
    Message('note_off', channel=2, note=66, velocity=64, time=192),
    Message('note_on', channel=2, note=69, velocity=100, time=0),
    Message('note_off', channel=2, note=69, velocity=64, time=192),
    Message('note_on', channel=2, note=60, velocity=100, time=0),
    Message('note_off', channel=2, note=60, velocity=64, time=192),
    Message('note_on', channel=2, note=59, velocity=100, time=0),
    Message('note_off', channel=2, note=59, velocity=64, time=384),
    Message('note_on', channel=2, note=66, velocity=100, time=0),
    Message('note_on', channel=2, note=54, velocity=127, time=192),
    Message('note_off', channel=2, note=66, velocity=64, time=192),
    Message('note_off', channel=2, note=54, velocity=64, time=192),
    Message('note_on', channel=2, note=66, velocity=100, time=0),
    Message('note_off', channel=2, note=66, velocity=64, time=192),
    Message('note_on', channel=2, note=69, velocity=100, time=0),
    Message('note_off', channel=2, note=69, velocity=64, time=192),
    Message('note_on', channel=2, note=60, velocity=100, time=0),
    Message('note_off', channel=2, note=60, velocity=64, time=192),
    Message('note_on', channel=2, note=59, velocity=100, time=0),
    Message('note_off', channel=2, note=59, velocity=64, time=384),
    Message('note_on', channel=2, note=66, velocity=100, time=0),
    Message('note_off', channel=2, note=66, velocity=64, time=192),
    Message('note_on', channel=2, note=54, velocity=127, time=0),
    Message('note_off', channel=2, note=54, velocity=64, time=384),
    Message('note_on', channel=2, note=66, velocity=100, time=0),
    Message('note_off', channel=2, note=66, velocity=64, time=192),
    Message('note_on', channel=2, note=69, velocity=100, time=0),
    Message('note_off', channel=2, note=69, velocity=64, time=192),
    Message('note_on', channel=2, note=60, velocity=100, time=0),
    Message('note_off', channel=2, note=60, velocity=64, time=192),
    Message('note_on', channel=2, note=59, velocity=100, time=0),
    Message('note_off', channel=2, note=59, velocity=64, time=384),
    Message('note_on', channel=2, note=66, velocity=100, time=0),
    Message('note_off', channel=2, note=66, velocity=64, time=192),
    Message('note_on', channel=2, note=54, velocity=127, time=0),
    Message('note_off', channel=2, note=54, velocity=64, time=384),
    Message('note_on', channel=2, note=66, velocity=100, time=0),
    Message('note_off', channel=2, note=66, velocity=64, time=192),
    Message('note_on', channel=2, note=69, velocity=100, time=0),
    Message('note_off', channel=2, note=69, velocity=64, time=192),
    Message('note_on', channel=2, note=60, velocity=100, time=0),
    Message('note_off', channel=2, note=60, velocity=64, time=192),
    Message('note_on', channel=2, note=59, velocity=100, time=0),
    Message('note_off', channel=2, note=59, velocity=64, time=384),
    Message('note_on', channel=2, note=66, velocity=100, time=0),
    Message('note_off', channel=2, note=66, velocity=64, time=192),
    Message('note_on', channel=2, note=54, velocity=127, time=0),
    Message('note_off', channel=2, note=54, velocity=64, time=384),
    Message('note_on', channel=2, note=66, velocity=100, time=0),
    Message('note_off', channel=2, note=66, velocity=64, time=192),
    Message('note_on', channel=2, note=69, velocity=100, time=0),
    Message('note_off', channel=2, note=69, velocity=64, time=192),
    Message('note_on', channel=2, note=60, velocity=100, time=0),
    Message('note_off', channel=2, note=60, velocity=64, time=192),
    Message('note_on', channel=2, note=59, velocity=100, time=0),
    Message('note_off', channel=2, note=59, velocity=64, time=384),
    Message('note_on', channel=2, note=66, velocity=100, time=0),
    Message('note_off', channel=2, note=66, velocity=64, time=384),
    Message('note_on', channel=2, note=54, velocity=100, time=0),
    Message('note_on', channel=2, note=61, velocity=100, time=0),
    Message('note_off', channel=2, note=61, velocity=64, time=384),
    Message('note_off', channel=2, note=54, velocity=64, time=0),
    Message('note_on', channel=2, note=61, velocity=100, time=0),
    Message('note_off', channel=2, note=61, velocity=64, time=192),
    Message('note_on', channel=2, note=60, velocity=100, time=0),
    Message('note_off', channel=2, note=60, velocity=64, time=192),
    Message('note_on', channel=2, note=66, velocity=100, time=0),
    Message('note_on', channel=2, note=59, velocity=100, time=0),
    Message('note_off', channel=2, note=59, velocity=64, time=576),
    Message('note_off', channel=2, note=66, velocity=64, time=0),
    Message('note_on', channel=2, note=61, velocity=100, time=0),
    Message('note_on', channel=2, note=54, velocity=100, time=0),
    Message('note_off', channel=2, note=54, velocity=64, time=576),
    Message('note_off', channel=2, note=61, velocity=64, time=0),
    Message('note_on', channel=2, note=61, velocity=100, time=0),
    Message('note_off', channel=2, note=61, velocity=64, time=192),
    Message('note_on', channel=2, note=60, velocity=100, time=0),
    Message('note_off', channel=2, note=60, velocity=64, time=192),
    Message('note_on', channel=2, note=66, velocity=100, time=0),
    Message('note_on', channel=2, note=59, velocity=100, time=0),
    Message('note_off', channel=2, note=59, velocity=64, time=576),
    Message('note_off', channel=2, note=66, velocity=64, time=0),
    Message('note_on', channel=2, note=61, velocity=100, time=0),
    Message('note_on', channel=2, note=54, velocity=100, time=0),
    Message('note_off', channel=2, note=54, velocity=64, time=576),
    Message('note_off', channel=2, note=61, velocity=64, time=0),
    Message('note_on', channel=2, note=61, velocity=100, time=0),
    Message('note_off', channel=2, note=61, velocity=64, time=192),
    Message('note_on', channel=2, note=60, velocity=100, time=0),
    Message('note_off', channel=2, note=60, velocity=64, time=192),
    Message('note_on', channel=2, note=66, velocity=100, time=0),
    Message('note_on', channel=2, note=59, velocity=100, time=0),
    Message('note_off', channel=2, note=59, velocity=64, time=576),
    Message('note_off', channel=2, note=66, velocity=64, time=0),
    Message('note_on', channel=2, note=59, velocity=100, time=0),
    Message('note_on', channel=2, note=52, velocity=100, time=0),
    Message('note_off', channel=2, note=52, velocity=64, time=1728),
    Message('note_off', channel=2, note=59, velocity=64, time=0),
    Message('note_on', channel=2, note=61, velocity=100, time=0),
    Message('note_on', channel=2, note=54, velocity=100, time=0),
    Message('note_on', channel=2, note=61, velocity=100, time=384),
    Message('note_off', channel=2, note=61, velocity=64, time=192),
    Message('note_off', channel=2, note=54, velocity=64, time=0),
    Message('note_off', channel=2, note=61, velocity=64, time=0),
    Message('note_on', channel=2, note=60, velocity=100, time=0),
    Message('note_off', channel=2, note=60, velocity=64, time=192),
    Message('note_on', channel=2, note=66, velocity=100, time=0),
    Message('note_on', channel=2, note=59, velocity=100, time=0),
    Message('note_off', channel=2, note=59, velocity=64, time=576),
    Message('note_off', channel=2, note=66, velocity=64, time=0),
    Message('note_on', channel=2, note=59, velocity=100, time=0),
    Message('note_on', channel=2, note=52, velocity=100, time=0),
    Message('note_off', channel=2, note=59, velocity=64, time=1244),
    Message('note_off', channel=2, note=52, velocity=64, time=100),
    Message('note_on', channel=2, note=52, velocity=100, time=0),
    Message('note_off', channel=2, note=52, velocity=64, time=192),
    Message('note_on', channel=2, note=52, velocity=100, time=0),
    Message('note_off', channel=2, note=52, velocity=64, time=192),
    Message('note_on', channel=2, note=54, velocity=100, time=0),
    Message('note_on', channel=2, note=61, velocity=100, time=0),
    Message('note_off', channel=2, note=61, velocity=64, time=384),
    Message('note_off', channel=2, note=54, velocity=64, time=0),
    Message('note_on', channel=2, note=61, velocity=100, time=0),
    Message('note_off', channel=2, note=61, velocity=64, time=192),
    Message('note_on', channel=2, note=60, velocity=100, time=0),
    Message('note_off', channel=2, note=60, velocity=64, time=192),
    Message('note_on', channel=2, note=66, velocity=100, time=0),
    Message('note_on', channel=2, note=59, velocity=100, time=0),
    Message('note_off', channel=2, note=59, velocity=64, time=576),
    Message('note_off', channel=2, note=66, velocity=64, time=0),
    Message('note_on', channel=2, note=61, velocity=100, time=0),
    Message('note_on', channel=2, note=54, velocity=100, time=0),
    Message('note_off', channel=2, note=54, velocity=64, time=576),
    Message('note_off', channel=2, note=61, velocity=64, time=0),
    Message('note_on', channel=2, note=61, velocity=100, time=0),
    Message('note_off', channel=2, note=61, velocity=64, time=192),
    Message('note_on', channel=2, note=60, velocity=100, time=0),
    Message('note_off', channel=2, note=60, velocity=64, time=192),
    Message('note_on', channel=2, note=66, velocity=100, time=0),
    Message('note_on', channel=2, note=59, velocity=100, time=0),
    Message('note_off', channel=2, note=59, velocity=64, time=576),
    Message('note_off', channel=2, note=66, velocity=64, time=0),
    Message('note_on', channel=2, note=61, velocity=100, time=0),
    Message('note_on', channel=2, note=54, velocity=100, time=0),
    Message('note_off', channel=2, note=54, velocity=64, time=576),
    Message('note_off', channel=2, note=61, velocity=64, time=0),
    Message('note_on', channel=2, note=61, velocity=100, time=0),
    Message('note_off', channel=2, note=61, velocity=64, time=192),
    Message('note_on', channel=2, note=60, velocity=100, time=0),
    Message('note_off', channel=2, note=60, velocity=64, time=192),
    Message('note_on', channel=2, note=66, velocity=100, time=0),
    Message('note_on', channel=2, note=59, velocity=100, time=0),
    Message('note_off', channel=2, note=59, velocity=64, time=576),
    Message('note_off', channel=2, note=66, velocity=64, time=0),
    Message('note_on', channel=2, note=59, velocity=100, time=0),
    Message('note_on', channel=2, note=52, velocity=100, time=0),
    Message('note_off', channel=2, note=52, velocity=64, time=1728),
    Message('note_off', channel=2, note=59, velocity=64, time=0),
    Message('note_on', channel=2, note=61, velocity=100, time=0),
    Message('note_on', channel=2, note=54, velocity=100, time=0),
    Message('note_off', channel=2, note=54, velocity=64, time=384),
    Message('note_off', channel=2, note=61, velocity=64, time=0),
    Message('note_on', channel=2, note=61, velocity=100, time=0),
    Message('note_off', channel=2, note=61, velocity=64, time=192),
    Message('note_on', channel=2, note=60, velocity=100, time=0),
    Message('note_off', channel=2, note=60, velocity=64, time=192),
    Message('note_on', channel=2, note=66, velocity=100, time=0),
    Message('note_on', channel=2, note=59, velocity=100, time=0),
    Message('note_off', channel=2, note=59, velocity=64, time=576),
    Message('note_off', channel=2, note=66, velocity=64, time=0),
    Message('note_on', channel=2, note=59, velocity=100, time=0),
    Message('note_on', channel=2, note=52, velocity=100, time=0),
    Message('note_off', channel=2, note=52, velocity=64, time=1728),
    Message('note_off', channel=2, note=59, velocity=64, time=0),
    Message('note_on', channel=2, note=55, velocity=100, time=0),
    Message('note_on', channel=2, note=62, velocity=100, time=0),
    Message('note_off', channel=2, note=62, velocity=64, time=192),
    Message('note_off', channel=2, note=55, velocity=64, time=0),
    Message('note_on', channel=2, note=52, velocity=100, time=0),
    Message('note_off', channel=2, note=52, velocity=64, time=192),
    Message('note_on', channel=2, note=61, velocity=100, time=0),
    Message('note_on', channel=2, note=54, velocity=100, time=0),
    Message('note_off', channel=2, note=54, velocity=64, time=192),
    Message('note_off', channel=2, note=61, velocity=64, time=0),
    Message('note_on', channel=2, note=52, velocity=100, time=0),
    Message('note_off', channel=2, note=52, velocity=64, time=192),
    Message('note_on', channel=2, note=54, velocity=100, time=0),
    Message('note_on', channel=2, note=61, velocity=100, time=0),
    Message('note_off', channel=2, note=61, velocity=64, time=192),
    Message('note_off', channel=2, note=54, velocity=64, time=0),
    Message('note_on', channel=2, note=62, velocity=100, time=0),
    Message('note_on', channel=2, note=55, velocity=100, time=0),
    Message('note_off', channel=2, note=55, velocity=64, time=192),
    Message('note_off', channel=2, note=62, velocity=64, time=0),
    Message('note_on', channel=2, note=62, velocity=100, time=0),
    Message('note_on', channel=2, note=55, velocity=100, time=0),
    Message('note_off', channel=2, note=55, velocity=64, time=192),
    Message('note_off', channel=2, note=62, velocity=64, time=0),
    Message('note_on', channel=2, note=59, velocity=99, time=0),
    Message('note_on', channel=2, note=52, velocity=127, time=0),
    Message('note_off', channel=2, note=52, velocity=64, time=1536),
    Message('note_off', channel=2, note=59, velocity=64, time=0),
    Message('note_on', channel=2, note=59, velocity=100, time=0),
    Message('note_on', channel=2, note=52, velocity=100, time=0),
    Message('note_off', channel=2, note=52, velocity=64, time=384),
    Message('note_off', channel=2, note=59, velocity=64, time=0),
    Message('note_on', channel=2, note=59, velocity=100, time=0),
    Message('note_on', channel=2, note=52, velocity=100, time=0),
    Message('note_off', channel=2, note=52, velocity=64, time=192),
    Message('note_off', channel=2, note=59, velocity=64, time=0),
    Message('note_on', channel=2, note=64, velocity=100, time=0),
    Message('note_off', channel=2, note=64, velocity=64, time=192),
    Message('note_on', channel=2, note=58, velocity=100, time=0),
    Message('note_off', channel=2, note=58, velocity=64, time=192),
    Message('note_on', channel=2, note=57, velocity=100, time=0),
    Message('note_off', channel=2, note=57, velocity=64, time=384),
    Message('note_on', channel=2, note=52, velocity=100, time=0),
    Message('note_off', channel=2, note=52, velocity=64, time=192),
    Message('note_on', channel=2, note=59, velocity=100, time=0),
    Message('note_on', channel=2, note=52, velocity=100, time=0),
    Message('note_off', channel=2, note=52, velocity=64, time=384),
    Message('note_off', channel=2, note=59, velocity=64, time=0),
    Message('note_on', channel=2, note=59, velocity=100, time=0),
    Message('note_on', channel=2, note=52, velocity=100, time=0),
    Message('note_off', channel=2, note=52, velocity=64, time=192),
    Message('note_off', channel=2, note=59, velocity=64, time=0),
    Message('note_on', channel=2, note=64, velocity=100, time=0),
    Message('note_off', channel=2, note=64, velocity=64, time=192),
    Message('note_on', channel=2, note=58, velocity=100, time=0),
    Message('note_off', channel=2, note=58, velocity=64, time=192),
    Message('note_on', channel=2, note=57, velocity=100, time=0),
    Message('note_off', channel=2, note=57, velocity=64, time=384),
    Message('note_on', channel=2, note=52, velocity=100, time=0),
    Message('note_off', channel=2, note=52, velocity=64, time=192),
    Message('note_on', channel=2, note=59, velocity=100, time=0),
    Message('note_on', channel=2, note=52, velocity=100, time=0),
    Message('note_off', channel=2, note=52, velocity=64, time=384),
    Message('note_off', channel=2, note=59, velocity=64, time=0),
    Message('note_on', channel=2, note=59, velocity=100, time=0),
    Message('note_on', channel=2, note=52, velocity=100, time=0),
    Message('note_off', channel=2, note=52, velocity=64, time=192),
    Message('note_off', channel=2, note=59, velocity=64, time=0),
    Message('note_on', channel=2, note=64, velocity=100, time=0),
    Message('note_off', channel=2, note=64, velocity=64, time=192),
    Message('note_on', channel=2, note=58, velocity=100, time=0),
    Message('note_off', channel=2, note=58, velocity=64, time=192),
    Message('note_on', channel=2, note=57, velocity=100, time=0),
    Message('note_off', channel=2, note=57, velocity=64, time=384),
    Message('note_on', channel=2, note=52, velocity=100, time=0),
    Message('note_off', channel=2, note=52, velocity=64, time=192),
    Message('note_on', channel=2, note=59, velocity=100, time=0),
    Message('note_on', channel=2, note=52, velocity=100, time=0),
    Message('note_off', channel=2, note=52, velocity=64, time=384),
    Message('note_off', channel=2, note=59, velocity=64, time=0),
    Message('note_on', channel=2, note=59, velocity=100, time=0),
    Message('note_on', channel=2, note=52, velocity=100, time=0),
    Message('note_off', channel=2, note=52, velocity=64, time=192),
    Message('note_off', channel=2, note=59, velocity=64, time=0),
    Message('note_on', channel=2, note=64, velocity=100, time=0),
    Message('note_off', channel=2, note=64, velocity=64, time=192),
    Message('note_on', channel=2, note=58, velocity=100, time=0),
    Message('note_off', channel=2, note=58, velocity=64, time=192),
    Message('note_on', channel=2, note=57, velocity=100, time=0),
    Message('note_off', channel=2, note=57, velocity=64, time=384),
    Message('note_on', channel=2, note=52, velocity=100, time=0),
    Message('note_off', channel=2, note=52, velocity=64, time=192),
    Message('note_on', channel=2, note=59, velocity=100, time=0),
    Message('note_on', channel=2, note=52, velocity=100, time=0),
    Message('note_off', channel=2, note=52, velocity=64, time=384),
    Message('note_off', channel=2, note=59, velocity=64, time=0),
    Message('note_on', channel=2, note=59, velocity=100, time=0),
    Message('note_on', channel=2, note=52, velocity=100, time=0),
    Message('note_off', channel=2, note=52, velocity=64, time=192),
    Message('note_off', channel=2, note=59, velocity=64, time=0),
    Message('note_on', channel=2, note=64, velocity=100, time=0),
    Message('note_off', channel=2, note=64, velocity=64, time=192),
    Message('note_on', channel=2, note=58, velocity=100, time=0),
    Message('note_off', channel=2, note=58, velocity=64, time=192),
    Message('note_on', channel=2, note=57, velocity=100, time=0),
    Message('note_off', channel=2, note=57, velocity=64, time=384),
    Message('note_on', channel=2, note=52, velocity=100, time=0),
    Message('note_off', channel=2, note=52, velocity=64, time=192),
    Message('note_on', channel=2, note=59, velocity=100, time=0),
    Message('note_on', channel=2, note=52, velocity=100, time=0),
    Message('note_off', channel=2, note=52, velocity=64, time=384),
    Message('note_off', channel=2, note=59, velocity=64, time=0),
    Message('note_on', channel=2, note=59, velocity=100, time=0),
    Message('note_on', channel=2, note=52, velocity=100, time=0),
    Message('note_off', channel=2, note=52, velocity=64, time=192),
    Message('note_off', channel=2, note=59, velocity=64, time=0),
    Message('note_on', channel=2, note=64, velocity=100, time=0),
    Message('note_off', channel=2, note=64, velocity=64, time=192),
    Message('note_on', channel=2, note=58, velocity=100, time=0),
    Message('note_off', channel=2, note=58, velocity=64, time=192),
    Message('note_on', channel=2, note=57, velocity=100, time=0),
    Message('note_off', channel=2, note=57, velocity=64, time=384),
    Message('note_on', channel=2, note=52, velocity=100, time=0),
    Message('note_off', channel=2, note=52, velocity=64, time=192),
    Message('note_on', channel=2, note=59, velocity=100, time=0),
    Message('note_on', channel=2, note=52, velocity=100, time=0),
    Message('note_off', channel=2, note=52, velocity=64, time=384),
    Message('note_off', channel=2, note=59, velocity=64, time=0),
    Message('note_on', channel=2, note=59, velocity=100, time=0),
    Message('note_on', channel=2, note=52, velocity=100, time=0),
    Message('note_off', channel=2, note=52, velocity=64, time=192),
    Message('note_off', channel=2, note=59, velocity=64, time=0),
    Message('note_on', channel=2, note=64, velocity=100, time=0),
    Message('note_off', channel=2, note=64, velocity=64, time=192),
    Message('note_on', channel=2, note=58, velocity=100, time=0),
    Message('note_off', channel=2, note=58, velocity=64, time=192),
    Message('note_on', channel=2, note=57, velocity=100, time=0),
    Message('note_off', channel=2, note=57, velocity=64, time=384),
    Message('note_on', channel=2, note=52, velocity=100, time=0),
    Message('note_off', channel=2, note=52, velocity=64, time=192),
    Message('note_on', channel=2, note=62, velocity=100, time=0),
    Message('note_on', channel=2, note=55, velocity=100, time=0),
    Message('note_off', channel=2, note=55, velocity=64, time=384),
    Message('note_off', channel=2, note=62, velocity=64, time=0),
    Message('note_on', channel=2, note=52, velocity=100, time=0),
    Message('note_off', channel=2, note=52, velocity=64, time=192),
    Message('note_on', channel=2, note=61, velocity=100, time=0),
    Message('note_on', channel=2, note=54, velocity=100, time=0),
    Message('note_off', channel=2, note=54, velocity=64, time=192),
    Message('note_off', channel=2, note=61, velocity=64, time=0),
    Message('note_on', channel=2, note=52, velocity=100, time=0),
    Message('note_off', channel=2, note=52, velocity=64, time=192),
    Message('note_on', channel=2, note=61, velocity=100, time=0),
    Message('note_on', channel=2, note=54, velocity=100, time=0),
    Message('note_off', channel=2, note=54, velocity=64, time=192),
    Message('note_off', channel=2, note=61, velocity=64, time=0),
    Message('note_on', channel=2, note=62, velocity=100, time=0),
    Message('note_on', channel=2, note=55, velocity=100, time=0),
    Message('note_off', channel=2, note=55, velocity=64, time=192),
    Message('note_off', channel=2, note=62, velocity=64, time=0),
    Message('note_on', channel=2, note=61, velocity=100, time=0),
    Message('note_on', channel=2, note=54, velocity=100, time=0),
    Message('note_off', channel=2, note=54, velocity=64, time=192),
    Message('note_off', channel=2, note=61, velocity=64, time=0),
    Message('note_on', channel=2, note=59, velocity=100, time=0),
    Message('note_on', channel=2, note=52, velocity=100, time=0),
    Message('note_off', channel=2, note=52, velocity=64, time=384),
    Message('note_off', channel=2, note=59, velocity=64, time=0),
    Message('note_on', channel=2, note=52, velocity=100, time=0),
    Message('note_off', channel=2, note=52, velocity=64, time=192),
    Message('note_on', channel=2, note=64, velocity=100, time=0),
    Message('note_off', channel=2, note=64, velocity=64, time=192),
    Message('note_on', channel=2, note=58, velocity=100, time=0),
    Message('note_off', channel=2, note=58, velocity=64, time=192),
    Message('note_on', channel=2, note=57, velocity=100, time=0),
    Message('note_off', channel=2, note=57, velocity=64, time=192),
    Message('note_on', channel=2, note=52, velocity=100, time=0),
    Message('note_off', channel=2, note=52, velocity=64, time=192),
    Message('note_on', channel=2, note=52, velocity=100, time=0),
    Message('note_off', channel=2, note=52, velocity=64, time=192),
    Message('note_on', channel=2, note=60, velocity=100, time=0),
    Message('note_on', channel=2, note=53, velocity=100, time=0),
    Message('note_off', channel=2, note=53, velocity=64, time=192),
    Message('note_off', channel=2, note=60, velocity=64, time=0),
    Message('note_on', channel=2, note=52, velocity=100, time=0),
    Message('note_off', channel=2, note=52, velocity=64, time=192),
    Message('note_on', channel=2, note=52, velocity=100, time=0),
    Message('note_off', channel=2, note=52, velocity=64, time=192),
    Message('note_on', channel=2, note=64, velocity=100, time=0),
    Message('note_off', channel=2, note=64, velocity=64, time=192),
    Message('note_on', channel=2, note=58, velocity=100, time=0),
    Message('note_off', channel=2, note=58, velocity=64, time=192),
    Message('note_on', channel=2, note=57, velocity=100, time=0),
    Message('note_off', channel=2, note=57, velocity=64, time=192),
    Message('note_on', channel=2, note=52, velocity=100, time=0),
    Message('note_off', channel=2, note=52, velocity=64, time=192),
    Message('note_on', channel=2, note=52, velocity=100, time=0),
    Message('note_off', channel=2, note=52, velocity=64, time=192),
    Message('note_on', channel=2, note=60, velocity=100, time=0),
    Message('note_on', channel=2, note=53, velocity=100, time=0),
    Message('note_off', channel=2, note=53, velocity=64, time=192),
    Message('note_off', channel=2, note=60, velocity=64, time=0),
    Message('note_on', channel=2, note=52, velocity=100, time=0),
    Message('note_off', channel=2, note=52, velocity=64, time=192),
    Message('note_on', channel=2, note=52, velocity=100, time=0),
    Message('note_off', channel=2, note=52, velocity=64, time=192),
    Message('note_on', channel=2, note=64, velocity=100, time=0),
    Message('note_off', channel=2, note=64, velocity=64, time=192),
    Message('note_on', channel=2, note=58, velocity=100, time=0),
    Message('note_off', channel=2, note=58, velocity=64, time=192),
    Message('note_on', channel=2, note=57, velocity=100, time=0),
    Message('note_off', channel=2, note=57, velocity=64, time=192),
    Message('note_on', channel=2, note=52, velocity=100, time=0),
    Message('note_off', channel=2, note=52, velocity=64, time=192),
    Message('note_on', channel=2, note=52, velocity=100, time=0),
    Message('note_off', channel=2, note=52, velocity=64, time=192),
    Message('note_on', channel=2, note=60, velocity=100, time=0),
    Message('note_on', channel=2, note=53, velocity=100, time=0),
    Message('note_off', channel=2, note=53, velocity=64, time=192),
    Message('note_off', channel=2, note=60, velocity=64, time=0),
    Message('note_on', channel=2, note=52, velocity=100, time=0),
    Message('note_off', channel=2, note=52, velocity=64, time=192),
    Message('note_on', channel=2, note=52, velocity=100, time=0),
    Message('note_off', channel=2, note=52, velocity=64, time=192),
    Message('note_on', channel=2, note=64, velocity=100, time=0),
    Message('note_off', channel=2, note=64, velocity=64, time=192),
    Message('note_on', channel=2, note=58, velocity=100, time=0),
    Message('note_off', channel=2, note=58, velocity=64, time=192),
    Message('note_on', channel=2, note=57, velocity=100, time=0),
    Message('note_off', channel=2, note=57, velocity=64, time=192),
    Message('note_on', channel=2, note=52, velocity=100, time=0),
    Message('note_off', channel=2, note=52, velocity=64, time=192),
    Message('note_on', channel=2, note=52, velocity=100, time=0),
    Message('note_off', channel=2, note=52, velocity=64, time=192),
    Message('note_on', channel=2, note=60, velocity=100, time=0),
    Message('note_on', channel=2, note=53, velocity=100, time=0),
    Message('note_off', channel=2, note=53, velocity=64, time=192),
    Message('note_off', channel=2, note=60, velocity=64, time=0),
    Message('note_on', channel=2, note=52, velocity=100, time=0),
    Message('note_off', channel=2, note=52, velocity=64, time=192),
    Message('note_on', channel=2, note=52, velocity=100, time=0),
    Message('note_off', channel=2, note=52, velocity=64, time=192),
    Message('note_on', channel=2, note=64, velocity=100, time=0),
    Message('note_off', channel=2, note=64, velocity=64, time=192),
    Message('note_on', channel=2, note=58, velocity=100, time=0),
    Message('note_off', channel=2, note=58, velocity=64, time=192),
    Message('note_on', channel=2, note=52, velocity=100, time=0),
    Message('note_off', channel=2, note=52, velocity=64, time=192),
    Message('note_on', channel=2, note=52, velocity=100, time=0),
    Message('note_off', channel=2, note=52, velocity=64, time=192),
    Message('note_on', channel=2, note=52, velocity=100, time=0),
    Message('note_off', channel=2, note=52, velocity=64, time=192),
    Message('note_on', channel=2, note=60, velocity=100, time=0),
    Message('note_on', channel=2, note=53, velocity=100, time=0),
    Message('note_off', channel=2, note=53, velocity=64, time=192),
    Message('note_off', channel=2, note=60, velocity=64, time=0),
    Message('note_on', channel=2, note=52, velocity=100, time=0),
    Message('note_off', channel=2, note=52, velocity=64, time=192),
    Message('note_on', channel=2, note=52, velocity=100, time=0),
    Message('note_off', channel=2, note=52, velocity=64, time=192),
    Message('note_on', channel=2, note=64, velocity=100, time=0),
    Message('note_off', channel=2, note=64, velocity=64, time=192),
    Message('note_on', channel=2, note=58, velocity=100, time=0),
    Message('note_off', channel=2, note=58, velocity=64, time=192),
    Message('note_on', channel=2, note=52, velocity=100, time=0),
    Message('note_off', channel=2, note=52, velocity=64, time=192),
    Message('note_on', channel=2, note=52, velocity=100, time=0),
    Message('note_off', channel=2, note=52, velocity=64, time=192),
    Message('note_on', channel=2, note=52, velocity=100, time=0),
    Message('note_off', channel=2, note=52, velocity=64, time=192),
    Message('note_on', channel=2, note=60, velocity=100, time=0),
    Message('note_on', channel=2, note=53, velocity=100, time=0),
    Message('note_off', channel=2, note=53, velocity=64, time=192),
    Message('note_off', channel=2, note=60, velocity=64, time=0),
    Message('note_on', channel=2, note=52, velocity=100, time=0),
    Message('note_off', channel=2, note=52, velocity=64, time=192),
    Message('note_on', channel=2, note=52, velocity=100, time=0),
    Message('note_off', channel=2, note=52, velocity=64, time=192),
    Message('note_on', channel=2, note=64, velocity=100, time=0),
    Message('note_off', channel=2, note=64, velocity=64, time=192),
    Message('note_on', channel=2, note=58, velocity=100, time=0),
    Message('note_off', channel=2, note=58, velocity=64, time=192),
    Message('note_on', channel=2, note=52, velocity=100, time=0),
    Message('note_off', channel=2, note=52, velocity=64, time=192),
    Message('note_on', channel=2, note=52, velocity=100, time=0),
    Message('note_off', channel=2, note=52, velocity=64, time=192),
    Message('note_on', channel=2, note=52, velocity=100, time=0),
    Message('note_off', channel=2, note=52, velocity=64, time=192),
    Message('note_on', channel=2, note=60, velocity=100, time=0),
    Message('note_on', channel=2, note=53, velocity=100, time=0),
    Message('note_off', channel=2, note=53, velocity=64, time=192),
    Message('note_off', channel=2, note=60, velocity=64, time=0),
    Message('note_on', channel=2, note=52, velocity=100, time=0),
    Message('note_off', channel=2, note=52, velocity=64, time=192),
    Message('note_on', channel=2, note=52, velocity=100, time=0),
    Message('note_off', channel=2, note=52, velocity=64, time=192),
    Message('note_on', channel=2, note=64, velocity=100, time=0),
    Message('note_off', channel=2, note=64, velocity=64, time=192),
    Message('note_on', channel=2, note=58, velocity=100, time=0),
    Message('note_off', channel=2, note=58, velocity=64, time=192),
    Message('note_on', channel=2, note=52, velocity=100, time=0),
    Message('note_off', channel=2, note=52, velocity=64, time=192),
    Message('note_on', channel=2, note=52, velocity=100, time=0),
    Message('note_off', channel=2, note=52, velocity=64, time=192),
    Message('note_on', channel=2, note=52, velocity=100, time=0),
    Message('note_off', channel=2, note=52, velocity=64, time=192),
    Message('note_on', channel=2, note=60, velocity=100, time=0),
    Message('note_on', channel=2, note=53, velocity=100, time=0),
    Message('note_off', channel=2, note=53, velocity=64, time=192),
    Message('note_off', channel=2, note=60, velocity=64, time=0),
    Message('note_on', channel=2, note=52, velocity=100, time=0),
    Message('note_off', channel=2, note=52, velocity=64, time=192),
    Message('note_on', channel=2, note=52, velocity=100, time=0),
    Message('note_off', channel=2, note=52, velocity=64, time=192),
    Message('note_on', channel=2, note=64, velocity=100, time=0),
    Message('note_off', channel=2, note=64, velocity=64, time=192),
    Message('note_on', channel=2, note=52, velocity=100, time=0),
    Message('note_off', channel=2, note=52, velocity=64, time=192),
    Message('note_on', channel=2, note=52, velocity=100, time=0),
    Message('note_off', channel=2, note=52, velocity=64, time=192),
    Message('note_on', channel=2, note=52, velocity=100, time=0),
    Message('note_off', channel=2, note=52, velocity=64, time=192),
    Message('note_on', channel=2, note=52, velocity=100, time=0),
    Message('note_off', channel=2, note=52, velocity=64, time=192),
    Message('note_on', channel=2, note=52, velocity=100, time=0),
    Message('note_off', channel=2, note=52, velocity=64, time=192),
    Message('note_on', channel=2, note=52, velocity=100, time=0),
    Message('note_off', channel=2, note=52, velocity=64, time=192),
    Message('note_on', channel=2, note=52, velocity=100, time=0),
    Message('note_off', channel=2, note=52, velocity=64, time=192),
    Message('note_on', channel=2, note=64, velocity=100, time=0),
    Message('note_off', channel=2, note=64, velocity=64, time=192),
    Message('note_on', channel=2, note=52, velocity=100, time=0),
    Message('note_off', channel=2, note=52, velocity=64, time=192),
    Message('note_on', channel=2, note=52, velocity=100, time=0),
    Message('note_off', channel=2, note=52, velocity=64, time=192),
    Message('note_on', channel=2, note=52, velocity=100, time=0),
    Message('note_off', channel=2, note=52, velocity=64, time=192),
    Message('note_on', channel=2, note=52, velocity=100, time=0),
    Message('note_off', channel=2, note=52, velocity=64, time=192),
    Message('note_on', channel=2, note=52, velocity=100, time=0),
    Message('note_off', channel=2, note=52, velocity=64, time=192),
    Message('note_on', channel=2, note=52, velocity=100, time=0),
    Message('note_off', channel=2, note=52, velocity=64, time=192),
    Message('note_on', channel=2, note=52, velocity=100, time=0),
    Message('note_off', channel=2, note=52, velocity=64, time=192),
    Message('note_on', channel=2, note=64, velocity=100, time=0),
    Message('note_off', channel=2, note=64, velocity=64, time=192),
    Message('note_on', channel=2, note=52, velocity=100, time=0),
    Message('note_off', channel=2, note=52, velocity=64, time=192),
    Message('note_on', channel=2, note=52, velocity=100, time=0),
    Message('note_off', channel=2, note=52, velocity=64, time=192),
    Message('note_on', channel=2, note=52, velocity=100, time=0),
    Message('note_off', channel=2, note=52, velocity=64, time=192),
    Message('note_on', channel=2, note=52, velocity=100, time=0),
    Message('note_off', channel=2, note=52, velocity=64, time=192),
    Message('note_on', channel=2, note=52, velocity=100, time=0),
    Message('note_off', channel=2, note=52, velocity=64, time=192),
    Message('note_on', channel=2, note=52, velocity=100, time=0),
    Message('note_off', channel=2, note=52, velocity=64, time=192),
    Message('note_on', channel=2, note=52, velocity=100, time=0),
    Message('note_off', channel=2, note=52, velocity=64, time=192),
    Message('note_on', channel=2, note=64, velocity=100, time=0),
    Message('note_off', channel=2, note=64, velocity=64, time=192),
    Message('note_on', channel=2, note=52, velocity=100, time=0),
    Message('note_off', channel=2, note=52, velocity=64, time=192),
    Message('note_on', channel=2, note=52, velocity=100, time=0),
    Message('note_off', channel=2, note=52, velocity=64, time=192),
    Message('note_on', channel=2, note=52, velocity=100, time=0),
    Message('note_off', channel=2, note=52, velocity=64, time=192),
    Message('note_on', channel=2, note=52, velocity=100, time=0),
    Message('note_off', channel=2, note=52, velocity=64, time=192),
    Message('note_on', channel=2, note=52, velocity=100, time=0),
    Message('note_off', channel=2, note=52, velocity=64, time=192),
    Message('note_on', channel=2, note=52, velocity=100, time=0),
    Message('note_off', channel=2, note=52, velocity=64, time=192),
    Message('note_on', channel=2, note=52, velocity=100, time=0),
    Message('note_off', channel=2, note=52, velocity=64, time=192),
    Message('note_on', channel=2, note=64, velocity=100, time=0),
    Message('note_off', channel=2, note=64, velocity=64, time=192),
    Message('note_on', channel=2, note=52, velocity=100, time=0),
    Message('note_off', channel=2, note=52, velocity=64, time=192),
    Message('note_on', channel=2, note=52, velocity=100, time=0),
    Message('note_off', channel=2, note=52, velocity=64, time=192),
    Message('note_on', channel=2, note=52, velocity=100, time=0),
    Message('note_off', channel=2, note=52, velocity=64, time=192),
    Message('note_on', channel=2, note=52, velocity=100, time=0),
    Message('note_off', channel=2, note=52, velocity=64, time=192),
    Message('note_on', channel=2, note=52, velocity=100, time=0),
    Message('note_off', channel=2, note=52, velocity=64, time=192),
    Message('note_on', channel=2, note=52, velocity=100, time=0),
    Message('note_off', channel=2, note=52, velocity=64, time=192),
    Message('note_on', channel=2, note=52, velocity=100, time=0),
    Message('note_off', channel=2, note=52, velocity=64, time=192),
    Message('note_on', channel=2, note=64, velocity=100, time=0),
    Message('note_off', channel=2, note=64, velocity=64, time=192),
    Message('note_on', channel=2, note=52, velocity=100, time=0),
    Message('note_off', channel=2, note=52, velocity=64, time=192),
    Message('note_on', channel=2, note=52, velocity=100, time=0),
    Message('note_off', channel=2, note=52, velocity=64, time=192),
    Message('note_on', channel=2, note=52, velocity=100, time=0),
    Message('note_off', channel=2, note=52, velocity=64, time=192),
    Message('note_on', channel=2, note=52, velocity=100, time=0),
    Message('note_off', channel=2, note=52, velocity=64, time=192),
    Message('note_on', channel=2, note=52, velocity=100, time=0),
    Message('note_off', channel=2, note=52, velocity=64, time=192),
    Message('note_on', channel=2, note=52, velocity=99, time=0),
    Message('note_off', channel=2, note=52, velocity=64, time=192),
    Message('note_on', channel=2, note=52, velocity=97, time=0),
    Message('note_off', channel=2, note=52, velocity=64, time=192),
    Message('note_on', channel=2, note=64, velocity=97, time=0),
    Message('note_off', channel=2, note=64, velocity=64, time=192),
    Message('note_on', channel=2, note=52, velocity=94, time=0),
    Message('note_off', channel=2, note=52, velocity=64, time=192),
    Message('note_on', channel=2, note=52, velocity=93, time=0),
    Message('note_off', channel=2, note=52, velocity=64, time=192),
    Message('note_on', channel=2, note=52, velocity=91, time=0),
    Message('note_off', channel=2, note=52, velocity=64, time=192),
    Message('note_on', channel=2, note=52, velocity=89, time=0),
    Message('note_off', channel=2, note=52, velocity=64, time=192),
    Message('note_on', channel=2, note=52, velocity=88, time=0),
    Message('note_off', channel=2, note=52, velocity=64, time=192),
    Message('note_on', channel=2, note=52, velocity=86, time=0),
    Message('note_off', channel=2, note=52, velocity=64, time=192),
    Message('note_on', channel=2, note=52, velocity=85, time=0),
    Message('note_off', channel=2, note=52, velocity=64, time=192),
    Message('note_on', channel=2, note=64, velocity=84, time=0),
    Message('note_off', channel=2, note=64, velocity=64, time=192),
    Message('note_on', channel=2, note=52, velocity=82, time=0),
    Message('note_off', channel=2, note=52, velocity=64, time=192),
    Message('note_on', channel=2, note=52, velocity=80, time=0),
    Message('note_off', channel=2, note=52, velocity=64, time=192),
    Message('note_on', channel=2, note=52, velocity=79, time=0),
    Message('note_off', channel=2, note=52, velocity=64, time=192),
    Message('note_on', channel=2, note=52, velocity=77, time=0),
    Message('note_off', channel=2, note=52, velocity=64, time=192),
    Message('note_on', channel=2, note=52, velocity=76, time=0),
    Message('note_off', channel=2, note=52, velocity=64, time=192),
    Message('note_on', channel=2, note=52, velocity=74, time=0),
    Message('note_off', channel=2, note=52, velocity=64, time=192),
    Message('note_on', channel=2, note=52, velocity=73, time=0),
    Message('note_off', channel=2, note=52, velocity=64, time=192),
    Message('note_on', channel=2, note=64, velocity=72, time=0),
    Message('note_off', channel=2, note=64, velocity=64, time=192),
    Message('note_on', channel=2, note=52, velocity=70, time=0),
    Message('note_off', channel=2, note=52, velocity=64, time=192),
    Message('note_on', channel=2, note=52, velocity=68, time=0),
    Message('note_off', channel=2, note=52, velocity=64, time=192),
    Message('note_on', channel=2, note=52, velocity=67, time=0),
    Message('note_off', channel=2, note=52, velocity=64, time=192),
    Message('note_on', channel=2, note=52, velocity=65, time=0),
    Message('note_off', channel=2, note=52, velocity=64, time=192),
    Message('note_on', channel=2, note=52, velocity=64, time=0),
    Message('note_off', channel=2, note=52, velocity=64, time=192),
    Message('note_on', channel=2, note=52, velocity=62, time=0),
    Message('note_off', channel=2, note=52, velocity=64, time=192),
    Message('note_on', channel=2, note=52, velocity=60, time=0),
    Message('note_off', channel=2, note=52, velocity=64, time=192),
    Message('note_on', channel=2, note=64, velocity=59, time=0),
    Message('note_off', channel=2, note=64, velocity=64, time=192),
    Message('note_on', channel=2, note=52, velocity=57, time=0),
    Message('note_off', channel=2, note=52, velocity=64, time=192),
    Message('note_on', channel=2, note=52, velocity=56, time=0),
    Message('note_off', channel=2, note=52, velocity=64, time=192),
    Message('note_on', channel=2, note=52, velocity=54, time=0),
    Message('note_off', channel=2, note=52, velocity=64, time=192),
    Message('note_on', channel=2, note=52, velocity=53, time=0),
    Message('note_off', channel=2, note=52, velocity=64, time=192),
    Message('note_on', channel=2, note=52, velocity=51, time=0),
    Message('note_off', channel=2, note=52, velocity=64, time=192),
    Message('note_on', channel=2, note=52, velocity=50, time=0),
    Message('note_off', channel=2, note=52, velocity=64, time=192),
    Message('note_on', channel=2, note=52, velocity=48, time=0),
    Message('note_off', channel=2, note=52, velocity=64, time=192),
    Message('note_on', channel=2, note=64, velocity=47, time=0),
    Message('note_off', channel=2, note=64, velocity=64, time=192),
    Message('note_on', channel=2, note=52, velocity=45, time=0),
    Message('note_off', channel=2, note=52, velocity=64, time=192),
    Message('note_on', channel=2, note=52, velocity=44, time=0),
    Message('note_off', channel=2, note=52, velocity=64, time=192),
    Message('note_on', channel=2, note=52, velocity=42, time=0),
    Message('note_off', channel=2, note=52, velocity=64, time=192),
    Message('note_on', channel=2, note=52, velocity=41, time=0),
    Message('note_off', channel=2, note=52, velocity=64, time=192),
    Message('note_on', channel=2, note=52, velocity=39, time=0),
    Message('note_off', channel=2, note=52, velocity=64, time=192),
    Message('note_on', channel=2, note=52, velocity=38, time=0),
    Message('note_off', channel=2, note=52, velocity=64, time=192),
    Message('note_on', channel=2, note=52, velocity=36, time=0),
    Message('note_off', channel=2, note=52, velocity=64, time=192),
    Message('note_on', channel=2, note=64, velocity=34, time=0),
    Message('note_off', channel=2, note=64, velocity=64, time=192),
    Message('note_on', channel=2, note=52, velocity=33, time=0),
    Message('note_off', channel=2, note=52, velocity=64, time=192),
    Message('note_on', channel=2, note=52, velocity=32, time=0),
    Message('note_off', channel=2, note=52, velocity=64, time=192),
    Message('note_on', channel=2, note=52, velocity=30, time=0),
    Message('note_off', channel=2, note=52, velocity=64, time=192),
    Message('note_on', channel=2, note=52, velocity=28, time=0),
    Message('note_off', channel=2, note=52, velocity=64, time=192),
    Message('note_on', channel=2, note=52, velocity=27, time=0),
    Message('note_off', channel=2, note=52, velocity=64, time=192),
    Message('note_on', channel=2, note=52, velocity=25, time=0),
    Message('note_off', channel=2, note=52, velocity=64, time=192),
    Message('note_on', channel=2, note=52, velocity=24, time=0),
    Message('note_off', channel=2, note=52, velocity=64, time=192),
    Message('note_on', channel=2, note=64, velocity=22, time=0),
    Message('note_off', channel=2, note=64, velocity=64, time=192),
    Message('note_on', channel=2, note=52, velocity=21, time=0),
    Message('note_off', channel=2, note=52, velocity=64, time=192),
    Message('note_on', channel=2, note=52, velocity=19, time=0),
    Message('note_off', channel=2, note=52, velocity=64, time=192),
    Message('note_on', channel=2, note=52, velocity=18, time=0),
    Message('note_off', channel=2, note=52, velocity=64, time=192),
    Message('note_on', channel=2, note=52, velocity=16, time=0),
    Message('note_off', channel=2, note=52, velocity=64, time=192),
    Message('note_on', channel=2, note=52, velocity=15, time=0),
    Message('note_off', channel=2, note=52, velocity=64, time=192),
    Message('note_on', channel=2, note=52, velocity=13, time=0),
    Message('note_off', channel=2, note=52, velocity=64, time=192),
    Message('note_on', channel=2, note=52, velocity=12, time=0),
    Message('note_off', channel=2, note=52, velocity=64, time=192),
    Message('note_on', channel=2, note=64, velocity=10, time=0),
    Message('note_off', channel=2, note=64, velocity=64, time=192),
    Message('note_on', channel=2, note=52, velocity=9, time=0),
    Message('note_off', channel=2, note=52, velocity=64, time=192),
    Message('note_on', channel=2, note=52, velocity=7, time=0),
    Message('note_off', channel=2, note=52, velocity=64, time=192),
    Message('note_on', channel=2, note=52, velocity=6, time=0),
    Message('note_off', channel=2, note=52, velocity=64, time=192),
    Message('note_on', channel=2, note=52, velocity=4, time=0),
    Message('note_off', channel=2, note=52, velocity=64, time=192),
    Message('note_on', channel=2, note=52, velocity=3, time=0),
    Message('note_off', channel=2, note=52, velocity=64, time=192),
    MetaMessage('end_of_track', time=0)]),
  MidiTrack([
    MetaMessage('track_name', name='Guitar4', time=0),
    Message('control_change', channel=4, control=7, value=127, time=0),
    Message('program_change', channel=4, program=30, time=0),
    Message('control_change', channel=4, control=7, value=127, time=23040),
    Message('program_change', channel=4, program=30, time=0),
    Message('note_on', channel=4, note=59, velocity=100, time=1344),
    Message('note_on', channel=4, note=52, velocity=100, time=0),
    Message('note_off', channel=4, note=52, velocity=64, time=5376),
    Message('note_off', channel=4, note=59, velocity=64, time=0),
    Message('note_on', channel=4, note=59, velocity=100, time=768),
    Message('note_on', channel=4, note=52, velocity=100, time=0),
    Message('note_off', channel=4, note=52, velocity=64, time=5376),
    Message('note_off', channel=4, note=59, velocity=64, time=0),
    Message('note_on', channel=4, note=69, velocity=100, time=0),
    Message('note_on', channel=4, note=64, velocity=100, time=0),
    Message('note_on', channel=4, note=57, velocity=100, time=0),
    Message('note_off', channel=4, note=57, velocity=64, time=384),
    Message('note_off', channel=4, note=64, velocity=64, time=0),
    Message('note_off', channel=4, note=69, velocity=64, time=0),
    Message('note_on', channel=4, note=69, velocity=100, time=0),
    Message('note_on', channel=4, note=64, velocity=100, time=0),
    Message('note_on', channel=4, note=57, velocity=100, time=0),
    Message('note_off', channel=4, note=57, velocity=64, time=384),
    Message('note_off', channel=4, note=64, velocity=64, time=0),
    Message('note_off', channel=4, note=69, velocity=64, time=0),
    Message('note_on', channel=4, note=59, velocity=100, time=0),
    Message('note_on', channel=4, note=52, velocity=100, time=0),
    Message('note_off', channel=4, note=52, velocity=64, time=1536),
    Message('note_off', channel=4, note=59, velocity=64, time=0),
    Message('note_on', channel=4, note=59, velocity=100, time=0),
    Message('note_on', channel=4, note=52, velocity=100, time=0),
    Message('note_off', channel=4, note=52, velocity=64, time=1536),
    Message('note_off', channel=4, note=59, velocity=64, time=0),
    Message('note_on', channel=4, note=59, velocity=100, time=0),
    Message('note_on', channel=4, note=52, velocity=100, time=0),
    Message('note_off', channel=4, note=52, velocity=64, time=1536),
    Message('note_off', channel=4, note=59, velocity=64, time=0),
    Message('note_on', channel=4, note=59, velocity=100, time=0),
    Message('note_on', channel=4, note=52, velocity=100, time=0),
    Message('note_off', channel=4, note=52, velocity=64, time=1536),
    Message('note_off', channel=4, note=59, velocity=64, time=0),
    Message('note_on', channel=4, note=59, velocity=100, time=0),
    Message('note_on', channel=4, note=52, velocity=100, time=0),
    Message('note_off', channel=4, note=52, velocity=64, time=1536),
    Message('note_off', channel=4, note=59, velocity=64, time=0),
    Message('note_on', channel=4, note=59, velocity=100, time=0),
    Message('note_on', channel=4, note=52, velocity=100, time=0),
    Message('note_off', channel=4, note=52, velocity=64, time=1536),
    Message('note_off', channel=4, note=59, velocity=64, time=0),
    Message('note_on', channel=4, note=59, velocity=100, time=0),
    Message('note_on', channel=4, note=52, velocity=100, time=0),
    Message('note_off', channel=4, note=52, velocity=64, time=1536),
    Message('note_off', channel=4, note=59, velocity=64, time=0),
    Message('note_on', channel=4, note=59, velocity=100, time=0),
    Message('note_on', channel=4, note=52, velocity=100, time=0),
    Message('note_off', channel=4, note=52, velocity=64, time=1536),
    Message('note_off', channel=4, note=59, velocity=64, time=0),
    Message('note_on', channel=4, note=59, velocity=100, time=0),
    Message('note_on', channel=4, note=52, velocity=100, time=0),
    Message('note_off', channel=4, note=52, velocity=64, time=384),
    Message('note_off', channel=4, note=59, velocity=64, time=0),
    Message('note_on', channel=4, note=59, velocity=100, time=0),
    Message('note_on', channel=4, note=52, velocity=100, time=0),
    Message('note_off', channel=4, note=52, velocity=64, time=192),
    Message('note_off', channel=4, note=59, velocity=64, time=0),
    Message('note_on', channel=4, note=64, velocity=100, time=0),
    Message('note_off', channel=4, note=64, velocity=64, time=192),
    Message('note_on', channel=4, note=58, velocity=100, time=0),
    Message('note_off', channel=4, note=58, velocity=64, time=192),
    Message('note_on', channel=4, note=57, velocity=100, time=0),
    Message('note_off', channel=4, note=57, velocity=64, time=384),
    Message('note_on', channel=4, note=52, velocity=100, time=0),
    Message('note_off', channel=4, note=52, velocity=64, time=192),
    Message('note_on', channel=4, note=52, velocity=127, time=0),
    Message('note_on', channel=4, note=59, velocity=127, time=0),
    Message('note_off', channel=4, note=59, velocity=64, time=384),
    Message('note_off', channel=4, note=52, velocity=64, time=0),
    Message('note_on', channel=4, note=59, velocity=100, time=0),
    Message('note_on', channel=4, note=52, velocity=100, time=0),
    Message('note_off', channel=4, note=52, velocity=64, time=192),
    Message('note_off', channel=4, note=59, velocity=64, time=0),
    Message('note_on', channel=4, note=64, velocity=100, time=0),
    Message('note_off', channel=4, note=64, velocity=64, time=192),
    Message('note_on', channel=4, note=58, velocity=100, time=0),
    Message('note_off', channel=4, note=58, velocity=64, time=192),
    Message('note_on', channel=4, note=57, velocity=100, time=0),
    Message('note_off', channel=4, note=57, velocity=64, time=384),
    Message('note_on', channel=4, note=52, velocity=100, time=0),
    Message('note_off', channel=4, note=52, velocity=64, time=192),
    Message('note_on', channel=4, note=59, velocity=127, time=0),
    Message('note_on', channel=4, note=52, velocity=127, time=0),
    Message('note_off', channel=4, note=52, velocity=64, time=384),
    Message('note_off', channel=4, note=59, velocity=64, time=0),
    Message('note_on', channel=4, note=59, velocity=100, time=0),
    Message('note_on', channel=4, note=52, velocity=100, time=0),
    Message('note_off', channel=4, note=52, velocity=64, time=192),
    Message('note_off', channel=4, note=59, velocity=64, time=0),
    Message('note_on', channel=4, note=64, velocity=100, time=0),
    Message('note_off', channel=4, note=64, velocity=64, time=192),
    Message('note_on', channel=4, note=58, velocity=100, time=0),
    Message('note_off', channel=4, note=58, velocity=64, time=192),
    Message('note_on', channel=4, note=57, velocity=100, time=0),
    Message('note_off', channel=4, note=57, velocity=64, time=384),
    Message('note_on', channel=4, note=52, velocity=100, time=0),
    Message('note_off', channel=4, note=52, velocity=64, time=192),
    Message('note_on', channel=4, note=62, velocity=127, time=0),
    Message('note_on', channel=4, note=55, velocity=127, time=0),
    Message('note_off', channel=4, note=55, velocity=64, time=384),
    Message('note_off', channel=4, note=62, velocity=64, time=0),
    Message('note_on', channel=4, note=52, velocity=100, time=0),
    Message('note_off', channel=4, note=52, velocity=64, time=192),
    Message('note_on', channel=4, note=61, velocity=100, time=0),
    Message('note_on', channel=4, note=54, velocity=100, time=0),
    Message('note_off', channel=4, note=54, velocity=64, time=192),
    Message('note_off', channel=4, note=61, velocity=64, time=0),
    Message('note_on', channel=4, note=52, velocity=100, time=0),
    Message('note_off', channel=4, note=52, velocity=64, time=192),
    Message('note_on', channel=4, note=61, velocity=100, time=0),
    Message('note_on', channel=4, note=54, velocity=100, time=0),
    Message('note_off', channel=4, note=54, velocity=64, time=192),
    Message('note_off', channel=4, note=61, velocity=64, time=0),
    Message('note_on', channel=4, note=62, velocity=100, time=0),
    Message('note_on', channel=4, note=55, velocity=100, time=0),
    Message('note_off', channel=4, note=55, velocity=64, time=192),
    Message('note_off', channel=4, note=62, velocity=64, time=0),
    Message('note_on', channel=4, note=61, velocity=100, time=0),
    Message('note_on', channel=4, note=54, velocity=100, time=0),
    Message('note_off', channel=4, note=54, velocity=64, time=192),
    Message('note_off', channel=4, note=61, velocity=64, time=0),
    Message('note_on', channel=4, note=59, velocity=127, time=0),
    Message('note_on', channel=4, note=52, velocity=127, time=0),
    Message('note_off', channel=4, note=52, velocity=64, time=384),
    Message('note_off', channel=4, note=59, velocity=64, time=0),
    Message('note_on', channel=4, note=59, velocity=100, time=0),
    Message('note_on', channel=4, note=52, velocity=100, time=0),
    Message('note_off', channel=4, note=52, velocity=64, time=192),
    Message('note_off', channel=4, note=59, velocity=64, time=0),
    Message('note_on', channel=4, note=64, velocity=100, time=0),
    Message('note_off', channel=4, note=64, velocity=64, time=192),
    Message('note_on', channel=4, note=58, velocity=100, time=0),
    Message('note_off', channel=4, note=58, velocity=64, time=192),
    Message('note_on', channel=4, note=57, velocity=100, time=0),
    Message('note_off', channel=4, note=57, velocity=64, time=384),
    Message('note_on', channel=4, note=52, velocity=100, time=0),
    Message('note_off', channel=4, note=52, velocity=64, time=192),
    Message('note_on', channel=4, note=52, velocity=127, time=0),
    Message('note_on', channel=4, note=59, velocity=127, time=0),
    Message('note_off', channel=4, note=59, velocity=64, time=384),
    Message('note_off', channel=4, note=52, velocity=64, time=0),
    Message('note_on', channel=4, note=59, velocity=100, time=0),
    Message('note_on', channel=4, note=52, velocity=100, time=0),
    Message('note_off', channel=4, note=52, velocity=64, time=192),
    Message('note_off', channel=4, note=59, velocity=64, time=0),
    Message('note_on', channel=4, note=64, velocity=100, time=0),
    Message('note_off', channel=4, note=64, velocity=64, time=192),
    Message('note_on', channel=4, note=58, velocity=100, time=0),
    Message('note_off', channel=4, note=58, velocity=64, time=192),
    Message('note_on', channel=4, note=57, velocity=100, time=0),
    Message('note_off', channel=4, note=57, velocity=64, time=384),
    Message('note_on', channel=4, note=52, velocity=100, time=0),
    Message('note_off', channel=4, note=52, velocity=64, time=192),
    Message('note_on', channel=4, note=59, velocity=127, time=0),
    Message('note_on', channel=4, note=52, velocity=127, time=0),
    Message('note_off', channel=4, note=52, velocity=64, time=384),
    Message('note_off', channel=4, note=59, velocity=64, time=0),
    Message('note_on', channel=4, note=59, velocity=100, time=0),
    Message('note_on', channel=4, note=52, velocity=100, time=0),
    Message('note_off', channel=4, note=52, velocity=64, time=192),
    Message('note_off', channel=4, note=59, velocity=64, time=0),
    Message('note_on', channel=4, note=64, velocity=100, time=0),
    Message('note_off', channel=4, note=64, velocity=64, time=192),
    Message('note_on', channel=4, note=58, velocity=100, time=0),
    Message('note_off', channel=4, note=58, velocity=64, time=192),
    Message('note_on', channel=4, note=57, velocity=100, time=0),
    Message('note_off', channel=4, note=57, velocity=64, time=384),
    Message('note_on', channel=4, note=52, velocity=100, time=0),
    Message('note_off', channel=4, note=52, velocity=64, time=192),
    Message('note_on', channel=4, note=62, velocity=127, time=0),
    Message('note_on', channel=4, note=55, velocity=127, time=0),
    Message('note_off', channel=4, note=55, velocity=64, time=384),
    Message('note_off', channel=4, note=62, velocity=64, time=0),
    Message('note_on', channel=4, note=52, velocity=100, time=0),
    Message('note_off', channel=4, note=52, velocity=64, time=192),
    Message('note_on', channel=4, note=61, velocity=100, time=0),
    Message('note_on', channel=4, note=54, velocity=100, time=0),
    Message('note_off', channel=4, note=54, velocity=64, time=192),
    Message('note_off', channel=4, note=61, velocity=64, time=0),
    Message('note_on', channel=4, note=52, velocity=100, time=0),
    Message('note_off', channel=4, note=52, velocity=64, time=192),
    Message('note_on', channel=4, note=61, velocity=100, time=0),
    Message('note_on', channel=4, note=54, velocity=100, time=0),
    Message('note_off', channel=4, note=54, velocity=64, time=192),
    Message('note_off', channel=4, note=61, velocity=64, time=0),
    Message('note_on', channel=4, note=62, velocity=100, time=0),
    Message('note_on', channel=4, note=55, velocity=100, time=0),
    Message('note_off', channel=4, note=55, velocity=64, time=192),
    Message('note_off', channel=4, note=62, velocity=64, time=0),
    Message('note_on', channel=4, note=61, velocity=100, time=0),
    Message('note_on', channel=4, note=54, velocity=100, time=0),
    Message('note_off', channel=4, note=54, velocity=64, time=192),
    Message('note_off', channel=4, note=61, velocity=64, time=0),
    Message('note_on', channel=4, note=59, velocity=127, time=0),
    Message('note_on', channel=4, note=52, velocity=127, time=0),
    Message('note_off', channel=4, note=52, velocity=64, time=384),
    Message('note_off', channel=4, note=59, velocity=64, time=0),
    Message('note_on', channel=4, note=52, velocity=100, time=0),
    Message('note_off', channel=4, note=52, velocity=64, time=192),
    Message('note_on', channel=4, note=52, velocity=100, time=0),
    Message('note_off', channel=4, note=52, velocity=64, time=192),
    Message('note_on', channel=4, note=52, velocity=100, time=0),
    Message('note_off', channel=4, note=52, velocity=64, time=192),
    Message('note_on', channel=4, note=52, velocity=100, time=0),
    Message('note_off', channel=4, note=52, velocity=64, time=192),
    Message('note_on', channel=4, note=52, velocity=100, time=0),
    Message('note_off', channel=4, note=52, velocity=64, time=192),
    Message('note_on', channel=4, note=52, velocity=100, time=0),
    Message('note_off', channel=4, note=52, velocity=64, time=192),
    Message('note_on', channel=4, note=60, velocity=127, time=0),
    Message('note_on', channel=4, note=53, velocity=127, time=0),
    Message('note_off', channel=4, note=53, velocity=64, time=384),
    Message('note_off', channel=4, note=60, velocity=64, time=0),
    Message('note_on', channel=4, note=52, velocity=100, time=0),
    Message('note_off', channel=4, note=52, velocity=64, time=192),
    Message('note_on', channel=4, note=52, velocity=100, time=0),
    Message('note_off', channel=4, note=52, velocity=64, time=192),
    Message('note_on', channel=4, note=52, velocity=100, time=0),
    Message('note_off', channel=4, note=52, velocity=64, time=192),
    Message('note_on', channel=4, note=52, velocity=100, time=0),
    Message('note_off', channel=4, note=52, velocity=64, time=192),
    Message('note_on', channel=4, note=52, velocity=100, time=0),
    Message('note_off', channel=4, note=52, velocity=64, time=192),
    Message('note_on', channel=4, note=52, velocity=100, time=0),
    Message('note_off', channel=4, note=52, velocity=64, time=192),
    Message('note_on', channel=4, note=60, velocity=127, time=0),
    Message('note_on', channel=4, note=53, velocity=127, time=0),
    Message('note_off', channel=4, note=53, velocity=64, time=384),
    Message('note_off', channel=4, note=60, velocity=64, time=0),
    Message('note_on', channel=4, note=52, velocity=100, time=0),
    Message('note_off', channel=4, note=52, velocity=64, time=192),
    Message('note_on', channel=4, note=52, velocity=100, time=0),
    Message('note_off', channel=4, note=52, velocity=64, time=192),
    Message('note_on', channel=4, note=52, velocity=100, time=0),
    Message('note_off', channel=4, note=52, velocity=64, time=192),
    Message('note_on', channel=4, note=52, velocity=100, time=0),
    Message('note_off', channel=4, note=52, velocity=64, time=192),
    Message('note_on', channel=4, note=52, velocity=100, time=0),
    Message('note_off', channel=4, note=52, velocity=64, time=192),
    Message('note_on', channel=4, note=52, velocity=100, time=0),
    Message('note_off', channel=4, note=52, velocity=64, time=192),
    Message('note_on', channel=4, note=62, velocity=127, time=0),
    Message('note_on', channel=4, note=55, velocity=127, time=0),
    Message('note_off', channel=4, note=55, velocity=64, time=384),
    Message('note_off', channel=4, note=62, velocity=64, time=0),
    Message('note_on', channel=4, note=52, velocity=100, time=0),
    Message('note_off', channel=4, note=52, velocity=64, time=192),
    Message('note_on', channel=4, note=61, velocity=100, time=0),
    Message('note_on', channel=4, note=54, velocity=100, time=0),
    Message('note_off', channel=4, note=54, velocity=64, time=192),
    Message('note_off', channel=4, note=61, velocity=64, time=0),
    Message('note_on', channel=4, note=52, velocity=100, time=0),
    Message('note_off', channel=4, note=52, velocity=64, time=192),
    Message('note_on', channel=4, note=61, velocity=100, time=0),
    Message('note_on', channel=4, note=54, velocity=100, time=0),
    Message('note_off', channel=4, note=54, velocity=64, time=192),
    Message('note_off', channel=4, note=61, velocity=64, time=0),
    Message('note_on', channel=4, note=62, velocity=100, time=0),
    Message('note_on', channel=4, note=55, velocity=100, time=0),
    Message('note_off', channel=4, note=55, velocity=64, time=192),
    Message('note_off', channel=4, note=62, velocity=64, time=0),
    Message('note_on', channel=4, note=61, velocity=100, time=0),
    Message('note_on', channel=4, note=54, velocity=100, time=0),
    Message('note_off', channel=4, note=54, velocity=64, time=192),
    Message('note_off', channel=4, note=61, velocity=64, time=0),
    Message('note_on', channel=4, note=59, velocity=127, time=0),
    Message('note_on', channel=4, note=52, velocity=127, time=0),
    Message('note_off', channel=4, note=52, velocity=64, time=384),
    Message('note_off', channel=4, note=59, velocity=64, time=0),
    Message('note_on', channel=4, note=52, velocity=100, time=0),
    Message('note_off', channel=4, note=52, velocity=64, time=192),
    Message('note_on', channel=4, note=52, velocity=100, time=0),
    Message('note_off', channel=4, note=52, velocity=64, time=192),
    Message('note_on', channel=4, note=52, velocity=100, time=0),
    Message('note_off', channel=4, note=52, velocity=64, time=192),
    Message('note_on', channel=4, note=52, velocity=100, time=0),
    Message('note_off', channel=4, note=52, velocity=64, time=192),
    Message('note_on', channel=4, note=52, velocity=100, time=0),
    Message('note_off', channel=4, note=52, velocity=64, time=192),
    Message('note_on', channel=4, note=52, velocity=100, time=0),
    Message('note_off', channel=4, note=52, velocity=64, time=192),
    Message('note_on', channel=4, note=60, velocity=127, time=0),
    Message('note_on', channel=4, note=53, velocity=127, time=0),
    Message('note_off', channel=4, note=53, velocity=64, time=384),
    Message('note_off', channel=4, note=60, velocity=64, time=0),
    Message('note_on', channel=4, note=52, velocity=100, time=0),
    Message('note_off', channel=4, note=52, velocity=64, time=192),
    Message('note_on', channel=4, note=52, velocity=100, time=0),
    Message('note_off', channel=4, note=52, velocity=64, time=192),
    Message('note_on', channel=4, note=52, velocity=100, time=0),
    Message('note_off', channel=4, note=52, velocity=64, time=192),
    Message('note_on', channel=4, note=52, velocity=100, time=0),
    Message('note_off', channel=4, note=52, velocity=64, time=192),
    Message('note_on', channel=4, note=52, velocity=100, time=0),
    Message('note_off', channel=4, note=52, velocity=64, time=192),
    Message('note_on', channel=4, note=52, velocity=100, time=0),
    Message('note_off', channel=4, note=52, velocity=64, time=192),
    Message('note_on', channel=4, note=60, velocity=127, time=0),
    Message('note_on', channel=4, note=53, velocity=127, time=0),
    Message('note_off', channel=4, note=53, velocity=64, time=384),
    Message('note_off', channel=4, note=60, velocity=64, time=0),
    Message('note_on', channel=4, note=52, velocity=100, time=0),
    Message('note_off', channel=4, note=52, velocity=64, time=192),
    Message('note_on', channel=4, note=52, velocity=100, time=0),
    Message('note_off', channel=4, note=52, velocity=64, time=192),
    Message('note_on', channel=4, note=52, velocity=100, time=0),
    Message('note_off', channel=4, note=52, velocity=64, time=192),
    Message('note_on', channel=4, note=52, velocity=100, time=0),
    Message('note_off', channel=4, note=52, velocity=64, time=192),
    Message('note_on', channel=4, note=52, velocity=100, time=0),
    Message('note_off', channel=4, note=52, velocity=64, time=192),
    Message('note_on', channel=4, note=52, velocity=100, time=0),
    Message('note_off', channel=4, note=52, velocity=64, time=192),
    Message('note_on', channel=4, note=62, velocity=127, time=0),
    Message('note_on', channel=4, note=55, velocity=127, time=0),
    Message('note_off', channel=4, note=55, velocity=64, time=384),
    Message('note_off', channel=4, note=62, velocity=64, time=0),
    Message('note_on', channel=4, note=52, velocity=100, time=0),
    Message('note_off', channel=4, note=52, velocity=64, time=192),
    Message('note_on', channel=4, note=61, velocity=100, time=0),
    Message('note_on', channel=4, note=54, velocity=100, time=0),
    Message('note_off', channel=4, note=54, velocity=64, time=192),
    Message('note_off', channel=4, note=61, velocity=64, time=0),
    Message('note_on', channel=4, note=52, velocity=100, time=0),
    Message('note_off', channel=4, note=52, velocity=64, time=192),
    Message('note_on', channel=4, note=61, velocity=100, time=0),
    Message('note_on', channel=4, note=54, velocity=100, time=0),
    Message('note_off', channel=4, note=54, velocity=64, time=192),
    Message('note_off', channel=4, note=61, velocity=64, time=0),
    Message('note_on', channel=4, note=62, velocity=100, time=0),
    Message('note_on', channel=4, note=55, velocity=100, time=0),
    Message('note_off', channel=4, note=55, velocity=64, time=192),
    Message('note_off', channel=4, note=62, velocity=64, time=0),
    Message('note_on', channel=4, note=61, velocity=100, time=0),
    Message('note_on', channel=4, note=54, velocity=100, time=0),
    Message('note_off', channel=4, note=54, velocity=64, time=192),
    Message('note_off', channel=4, note=61, velocity=64, time=0),
    Message('note_on', channel=4, note=54, velocity=127, time=0),
    Message('note_off', channel=4, note=54, velocity=64, time=384),
    Message('note_on', channel=4, note=66, velocity=100, time=0),
    Message('note_off', channel=4, note=66, velocity=64, time=192),
    Message('note_on', channel=4, note=69, velocity=100, time=0),
    Message('note_off', channel=4, note=69, velocity=64, time=192),
    Message('note_on', channel=4, note=60, velocity=100, time=0),
    Message('note_off', channel=4, note=60, velocity=64, time=192),
    Message('note_on', channel=4, note=59, velocity=100, time=0),
    Message('note_off', channel=4, note=59, velocity=64, time=384),
    Message('note_on', channel=4, note=66, velocity=100, time=0),
    Message('note_off', channel=4, note=66, velocity=64, time=192),
    Message('note_on', channel=4, note=54, velocity=127, time=0),
    Message('note_off', channel=4, note=54, velocity=64, time=384),
    Message('note_on', channel=4, note=66, velocity=100, time=0),
    Message('note_off', channel=4, note=66, velocity=64, time=192),
    Message('note_on', channel=4, note=69, velocity=100, time=0),
    Message('note_off', channel=4, note=69, velocity=64, time=192),
    Message('note_on', channel=4, note=60, velocity=100, time=0),
    Message('note_off', channel=4, note=60, velocity=64, time=192),
    Message('note_on', channel=4, note=59, velocity=100, time=0),
    Message('note_off', channel=4, note=59, velocity=64, time=384),
    Message('note_on', channel=4, note=66, velocity=100, time=0),
    Message('note_off', channel=4, note=66, velocity=64, time=192),
    Message('note_on', channel=4, note=54, velocity=127, time=0),
    Message('note_off', channel=4, note=54, velocity=64, time=384),
    Message('note_on', channel=4, note=66, velocity=100, time=0),
    Message('note_off', channel=4, note=66, velocity=64, time=192),
    Message('note_on', channel=4, note=69, velocity=100, time=0),
    Message('note_off', channel=4, note=69, velocity=64, time=192),
    Message('note_on', channel=4, note=60, velocity=100, time=0),
    Message('note_off', channel=4, note=60, velocity=64, time=192),
    Message('note_on', channel=4, note=59, velocity=100, time=0),
    Message('note_off', channel=4, note=59, velocity=64, time=384),
    Message('note_on', channel=4, note=66, velocity=100, time=0),
    Message('note_off', channel=4, note=66, velocity=64, time=192),
    Message('note_on', channel=4, note=54, velocity=127, time=0),
    Message('note_off', channel=4, note=54, velocity=64, time=384),
    Message('note_on', channel=4, note=66, velocity=100, time=0),
    Message('note_off', channel=4, note=66, velocity=64, time=192),
    Message('note_on', channel=4, note=69, velocity=100, time=0),
    Message('note_off', channel=4, note=69, velocity=64, time=192),
    Message('note_on', channel=4, note=60, velocity=100, time=0),
    Message('note_off', channel=4, note=60, velocity=64, time=192),
    Message('note_on', channel=4, note=59, velocity=100, time=0),
    Message('note_off', channel=4, note=59, velocity=64, time=384),
    Message('note_on', channel=4, note=66, velocity=100, time=0),
    Message('note_off', channel=4, note=66, velocity=64, time=384),
    Message('note_on', channel=4, note=54, velocity=100, time=0),
    Message('note_on', channel=4, note=61, velocity=100, time=0),
    Message('note_off', channel=4, note=61, velocity=64, time=384),
    Message('note_off', channel=4, note=54, velocity=64, time=0),
    Message('note_on', channel=4, note=61, velocity=100, time=0),
    Message('note_off', channel=4, note=61, velocity=64, time=192),
    Message('note_on', channel=4, note=60, velocity=100, time=0),
    Message('note_off', channel=4, note=60, velocity=64, time=192),
    Message('note_on', channel=4, note=66, velocity=100, time=0),
    Message('note_on', channel=4, note=59, velocity=100, time=0),
    Message('note_off', channel=4, note=59, velocity=64, time=576),
    Message('note_off', channel=4, note=66, velocity=64, time=0),
    Message('note_on', channel=4, note=61, velocity=100, time=0),
    Message('note_on', channel=4, note=54, velocity=100, time=0),
    Message('note_off', channel=4, note=54, velocity=64, time=576),
    Message('note_off', channel=4, note=61, velocity=64, time=0),
    Message('note_on', channel=4, note=61, velocity=100, time=0),
    Message('note_off', channel=4, note=61, velocity=64, time=192),
    Message('note_on', channel=4, note=60, velocity=100, time=0),
    Message('note_off', channel=4, note=60, velocity=64, time=192),
    Message('note_on', channel=4, note=66, velocity=100, time=0),
    Message('note_on', channel=4, note=59, velocity=100, time=0),
    Message('note_off', channel=4, note=59, velocity=64, time=576),
    Message('note_off', channel=4, note=66, velocity=64, time=0),
    Message('note_on', channel=4, note=61, velocity=100, time=0),
    Message('note_on', channel=4, note=54, velocity=100, time=0),
    Message('note_off', channel=4, note=54, velocity=64, time=576),
    Message('note_off', channel=4, note=61, velocity=64, time=0),
    Message('note_on', channel=4, note=61, velocity=100, time=0),
    Message('note_off', channel=4, note=61, velocity=64, time=192),
    Message('note_on', channel=4, note=60, velocity=100, time=0),
    Message('note_off', channel=4, note=60, velocity=64, time=192),
    Message('note_on', channel=4, note=66, velocity=100, time=0),
    Message('note_on', channel=4, note=59, velocity=100, time=0),
    Message('note_off', channel=4, note=59, velocity=64, time=576),
    Message('note_off', channel=4, note=66, velocity=64, time=0),
    Message('note_on', channel=4, note=59, velocity=100, time=0),
    Message('note_on', channel=4, note=52, velocity=100, time=0),
    Message('note_off', channel=4, note=52, velocity=64, time=576),
    Message('note_off', channel=4, note=59, velocity=64, time=0),
    Message('note_on', channel=4, note=67, velocity=100, time=0),
    Message('note_off', channel=4, note=67, velocity=64, time=192),
    Message('note_on', channel=4, note=64, velocity=100, time=0),
    Message('note_off', channel=4, note=64, velocity=64, time=192),
    Message('note_on', channel=4, note=69, velocity=100, time=0),
    Message('note_off', channel=4, note=69, velocity=64, time=192),
    Message('note_on', channel=4, note=64, velocity=100, time=0),
    Message('note_off', channel=4, note=64, velocity=64, time=192),
    Message('note_on', channel=4, note=71, velocity=100, time=0),
    Message('note_off', channel=4, note=71, velocity=64, time=192),
    Message('note_on', channel=4, note=68, velocity=100, time=0),
    Message('note_off', channel=4, note=68, velocity=64, time=192),
    Message('note_on', channel=4, note=61, velocity=100, time=0),
    Message('note_on', channel=4, note=54, velocity=100, time=0),
    Message('note_on', channel=4, note=61, velocity=100, time=384),
    Message('note_off', channel=4, note=61, velocity=64, time=192),
    Message('note_off', channel=4, note=54, velocity=64, time=0),
    Message('note_off', channel=4, note=61, velocity=64, time=0),
    Message('note_on', channel=4, note=60, velocity=100, time=0),
    Message('note_off', channel=4, note=60, velocity=64, time=192),
    Message('note_on', channel=4, note=66, velocity=100, time=0),
    Message('note_on', channel=4, note=59, velocity=100, time=0),
    Message('note_off', channel=4, note=59, velocity=64, time=576),
    Message('note_off', channel=4, note=66, velocity=64, time=0),
    Message('note_on', channel=4, note=59, velocity=100, time=0),
    Message('note_on', channel=4, note=52, velocity=100, time=0),
    Message('note_off', channel=4, note=52, velocity=64, time=384),
    Message('note_off', channel=4, note=59, velocity=64, time=0),
    Message('note_on', channel=4, note=67, velocity=100, time=192),
    Message('note_off', channel=4, note=67, velocity=64, time=192),
    Message('note_on', channel=4, note=64, velocity=100, time=0),
    Message('note_off', channel=4, note=64, velocity=64, time=192),
    Message('note_on', channel=4, note=67, velocity=100, time=0),
    Message('note_off', channel=4, note=67, velocity=64, time=192),
    Message('note_on', channel=4, note=64, velocity=100, time=0),
    Message('note_off', channel=4, note=64, velocity=64, time=192),
    Message('note_on', channel=4, note=69, velocity=100, time=0),
    Message('note_off', channel=4, note=69, velocity=64, time=192),
    Message('note_on', channel=4, note=64, velocity=100, time=0),
    Message('note_off', channel=4, note=64, velocity=64, time=192),
    Message('note_on', channel=4, note=62, velocity=100, time=0),
    Message('note_on', channel=4, note=55, velocity=100, time=0),
    Message('note_off', channel=4, note=55, velocity=64, time=192),
    Message('note_off', channel=4, note=62, velocity=64, time=0),
    Message('note_on', channel=4, note=52, velocity=100, time=0),
    Message('note_off', channel=4, note=52, velocity=64, time=192),
    Message('note_on', channel=4, note=61, velocity=100, time=0),
    Message('note_on', channel=4, note=54, velocity=100, time=0),
    Message('note_off', channel=4, note=54, velocity=64, time=192),
    Message('note_off', channel=4, note=61, velocity=64, time=0),
    Message('note_on', channel=4, note=52, velocity=100, time=0),
    Message('note_off', channel=4, note=52, velocity=64, time=192),
    Message('note_on', channel=4, note=61, velocity=100, time=0),
    Message('note_on', channel=4, note=54, velocity=100, time=0),
    Message('note_off', channel=4, note=54, velocity=64, time=192),
    Message('note_off', channel=4, note=61, velocity=64, time=0),
    Message('note_on', channel=4, note=62, velocity=100, time=0),
    Message('note_on', channel=4, note=55, velocity=100, time=0),
    Message('note_off', channel=4, note=55, velocity=64, time=192),
    Message('note_off', channel=4, note=62, velocity=64, time=0),
    Message('note_on', channel=4, note=61, velocity=100, time=0),
    Message('note_on', channel=4, note=54, velocity=100, time=0),
    Message('note_off', channel=4, note=54, velocity=64, time=192),
    Message('note_off', channel=4, note=61, velocity=64, time=0),
    Message('note_on', channel=4, note=59, velocity=127, time=0),
    Message('note_on', channel=4, note=52, velocity=127, time=0),
    Message('note_off', channel=4, note=52, velocity=64, time=384),
    Message('note_off', channel=4, note=59, velocity=64, time=0),
    Message('note_on', channel=4, note=59, velocity=100, time=0),
    Message('note_on', channel=4, note=52, velocity=100, time=0),
    Message('note_off', channel=4, note=52, velocity=64, time=192),
    Message('note_off', channel=4, note=59, velocity=64, time=0),
    Message('note_on', channel=4, note=64, velocity=100, time=0),
    Message('note_off', channel=4, note=64, velocity=64, time=192),
    Message('note_on', channel=4, note=58, velocity=100, time=0),
    Message('note_off', channel=4, note=58, velocity=64, time=192),
    Message('note_on', channel=4, note=57, velocity=100, time=0),
    Message('note_off', channel=4, note=57, velocity=64, time=384),
    Message('note_on', channel=4, note=52, velocity=100, time=0),
    Message('note_off', channel=4, note=52, velocity=64, time=192),
    Message('note_on', channel=4, note=52, velocity=127, time=0),
    Message('note_on', channel=4, note=59, velocity=127, time=0),
    Message('note_off', channel=4, note=59, velocity=64, time=384),
    Message('note_off', channel=4, note=52, velocity=64, time=0),
    Message('note_on', channel=4, note=59, velocity=100, time=0),
    Message('note_on', channel=4, note=52, velocity=100, time=0),
    Message('note_off', channel=4, note=52, velocity=64, time=192),
    Message('note_off', channel=4, note=59, velocity=64, time=0),
    Message('note_on', channel=4, note=64, velocity=100, time=0),
    Message('note_off', channel=4, note=64, velocity=64, time=192),
    Message('note_on', channel=4, note=58, velocity=100, time=0),
    Message('note_off', channel=4, note=58, velocity=64, time=192),
    Message('note_on', channel=4, note=57, velocity=100, time=0),
    Message('note_off', channel=4, note=57, velocity=64, time=384),
    Message('note_on', channel=4, note=52, velocity=100, time=0),
    Message('note_off', channel=4, note=52, velocity=64, time=192),
    Message('note_on', channel=4, note=59, velocity=127, time=0),
    Message('note_on', channel=4, note=52, velocity=127, time=0),
    Message('note_off', channel=4, note=52, velocity=64, time=384),
    Message('note_off', channel=4, note=59, velocity=64, time=0),
    Message('note_on', channel=4, note=59, velocity=100, time=0),
    Message('note_on', channel=4, note=52, velocity=100, time=0),
    Message('note_off', channel=4, note=52, velocity=64, time=192),
    Message('note_off', channel=4, note=59, velocity=64, time=0),
    Message('note_on', channel=4, note=64, velocity=100, time=0),
    Message('note_off', channel=4, note=64, velocity=64, time=192),
    Message('note_on', channel=4, note=58, velocity=100, time=0),
    Message('note_off', channel=4, note=58, velocity=64, time=192),
    Message('note_on', channel=4, note=57, velocity=100, time=0),
    Message('note_off', channel=4, note=57, velocity=64, time=384),
    Message('note_on', channel=4, note=52, velocity=100, time=0),
    Message('note_off', channel=4, note=52, velocity=64, time=192),
    Message('note_on', channel=4, note=62, velocity=127, time=0),
    Message('note_on', channel=4, note=55, velocity=127, time=0),
    Message('note_off', channel=4, note=55, velocity=64, time=384),
    Message('note_off', channel=4, note=62, velocity=64, time=0),
    Message('note_on', channel=4, note=52, velocity=100, time=0),
    Message('note_off', channel=4, note=52, velocity=64, time=192),
    Message('note_on', channel=4, note=61, velocity=100, time=0),
    Message('note_on', channel=4, note=54, velocity=100, time=0),
    Message('note_off', channel=4, note=54, velocity=64, time=192),
    Message('note_off', channel=4, note=61, velocity=64, time=0),
    Message('note_on', channel=4, note=52, velocity=100, time=0),
    Message('note_off', channel=4, note=52, velocity=64, time=192),
    Message('note_on', channel=4, note=61, velocity=100, time=0),
    Message('note_on', channel=4, note=54, velocity=100, time=0),
    Message('note_off', channel=4, note=54, velocity=64, time=192),
    Message('note_off', channel=4, note=61, velocity=64, time=0),
    Message('note_on', channel=4, note=62, velocity=100, time=0),
    Message('note_on', channel=4, note=55, velocity=100, time=0),
    Message('note_off', channel=4, note=55, velocity=64, time=192),
    Message('note_off', channel=4, note=62, velocity=64, time=0),
    Message('note_on', channel=4, note=61, velocity=100, time=0),
    Message('note_on', channel=4, note=54, velocity=100, time=0),
    Message('note_off', channel=4, note=54, velocity=64, time=192),
    Message('note_off', channel=4, note=61, velocity=64, time=0),
    Message('note_on', channel=4, note=59, velocity=127, time=0),
    Message('note_on', channel=4, note=52, velocity=127, time=0),
    Message('note_off', channel=4, note=52, velocity=64, time=384),
    Message('note_off', channel=4, note=59, velocity=64, time=0),
    Message('note_on', channel=4, note=59, velocity=100, time=0),
    Message('note_on', channel=4, note=52, velocity=100, time=0),
    Message('note_off', channel=4, note=52, velocity=64, time=192),
    Message('note_off', channel=4, note=59, velocity=64, time=0),
    Message('note_on', channel=4, note=64, velocity=100, time=0),
    Message('note_off', channel=4, note=64, velocity=64, time=192),
    Message('note_on', channel=4, note=58, velocity=100, time=0),
    Message('note_off', channel=4, note=58, velocity=64, time=192),
    Message('note_on', channel=4, note=57, velocity=100, time=0),
    Message('note_off', channel=4, note=57, velocity=64, time=384),
    Message('note_on', channel=4, note=52, velocity=100, time=0),
    Message('note_off', channel=4, note=52, velocity=64, time=192),
    Message('note_on', channel=4, note=52, velocity=127, time=0),
    Message('note_on', channel=4, note=59, velocity=127, time=0),
    Message('note_off', channel=4, note=59, velocity=64, time=384),
    Message('note_off', channel=4, note=52, velocity=64, time=0),
    Message('note_on', channel=4, note=59, velocity=100, time=0),
    Message('note_on', channel=4, note=52, velocity=100, time=0),
    Message('note_off', channel=4, note=52, velocity=64, time=192),
    Message('note_off', channel=4, note=59, velocity=64, time=0),
    Message('note_on', channel=4, note=64, velocity=100, time=0),
    Message('note_off', channel=4, note=64, velocity=64, time=192),
    Message('note_on', channel=4, note=58, velocity=100, time=0),
    Message('note_off', channel=4, note=58, velocity=64, time=192),
    Message('note_on', channel=4, note=57, velocity=100, time=0),
    Message('note_off', channel=4, note=57, velocity=64, time=384),
    Message('note_on', channel=4, note=52, velocity=100, time=0),
    Message('note_off', channel=4, note=52, velocity=64, time=192),
    Message('note_on', channel=4, note=59, velocity=127, time=0),
    Message('note_on', channel=4, note=52, velocity=127, time=0),
    Message('note_off', channel=4, note=52, velocity=64, time=384),
    Message('note_off', channel=4, note=59, velocity=64, time=0),
    Message('note_on', channel=4, note=59, velocity=100, time=0),
    Message('note_on', channel=4, note=52, velocity=100, time=0),
    Message('note_off', channel=4, note=52, velocity=64, time=192),
    Message('note_off', channel=4, note=59, velocity=64, time=0),
    Message('note_on', channel=4, note=64, velocity=100, time=0),
    Message('note_off', channel=4, note=64, velocity=64, time=192),
    Message('note_on', channel=4, note=58, velocity=100, time=0),
    Message('note_off', channel=4, note=58, velocity=64, time=192),
    Message('note_on', channel=4, note=57, velocity=100, time=0),
    Message('note_off', channel=4, note=57, velocity=64, time=384),
    Message('note_on', channel=4, note=52, velocity=100, time=0),
    Message('note_off', channel=4, note=52, velocity=64, time=192),
    Message('note_on', channel=4, note=62, velocity=127, time=0),
    Message('note_on', channel=4, note=55, velocity=127, time=0),
    Message('note_off', channel=4, note=55, velocity=64, time=384),
    Message('note_off', channel=4, note=62, velocity=64, time=0),
    Message('note_on', channel=4, note=52, velocity=100, time=0),
    Message('note_off', channel=4, note=52, velocity=64, time=192),
    Message('note_on', channel=4, note=61, velocity=100, time=0),
    Message('note_on', channel=4, note=54, velocity=100, time=0),
    Message('note_off', channel=4, note=54, velocity=64, time=192),
    Message('note_off', channel=4, note=61, velocity=64, time=0),
    Message('note_on', channel=4, note=52, velocity=100, time=0),
    Message('note_off', channel=4, note=52, velocity=64, time=192),
    Message('note_on', channel=4, note=61, velocity=100, time=0),
    Message('note_on', channel=4, note=54, velocity=100, time=0),
    Message('note_off', channel=4, note=54, velocity=64, time=192),
    Message('note_off', channel=4, note=61, velocity=64, time=0),
    Message('note_on', channel=4, note=62, velocity=100, time=0),
    Message('note_on', channel=4, note=55, velocity=100, time=0),
    Message('note_off', channel=4, note=55, velocity=64, time=192),
    Message('note_off', channel=4, note=62, velocity=64, time=0),
    Message('note_on', channel=4, note=61, velocity=100, time=0),
    Message('note_on', channel=4, note=54, velocity=100, time=0),
    Message('note_off', channel=4, note=54, velocity=64, time=192),
    Message('note_off', channel=4, note=61, velocity=64, time=0),
    Message('note_on', channel=4, note=59, velocity=127, time=0),
    Message('note_on', channel=4, note=52, velocity=127, time=0),
    Message('note_off', channel=4, note=52, velocity=64, time=384),
    Message('note_off', channel=4, note=59, velocity=64, time=0),
    Message('note_on', channel=4, note=52, velocity=100, time=0),
    Message('note_off', channel=4, note=52, velocity=64, time=192),
    Message('note_on', channel=4, note=52, velocity=100, time=0),
    Message('note_off', channel=4, note=52, velocity=64, time=192),
    Message('note_on', channel=4, note=52, velocity=100, time=0),
    Message('note_off', channel=4, note=52, velocity=64, time=192),
    Message('note_on', channel=4, note=52, velocity=100, time=0),
    Message('note_off', channel=4, note=52, velocity=64, time=192),
    Message('note_on', channel=4, note=52, velocity=100, time=0),
    Message('note_off', channel=4, note=52, velocity=64, time=192),
    Message('note_on', channel=4, note=52, velocity=100, time=0),
    Message('note_off', channel=4, note=52, velocity=64, time=192),
    Message('note_on', channel=4, note=60, velocity=127, time=0),
    Message('note_on', channel=4, note=53, velocity=127, time=0),
    Message('note_off', channel=4, note=53, velocity=64, time=384),
    Message('note_off', channel=4, note=60, velocity=64, time=0),
    Message('note_on', channel=4, note=52, velocity=100, time=0),
    Message('note_off', channel=4, note=52, velocity=64, time=192),
    Message('note_on', channel=4, note=52, velocity=100, time=0),
    Message('note_off', channel=4, note=52, velocity=64, time=192),
    Message('note_on', channel=4, note=52, velocity=100, time=0),
    Message('note_off', channel=4, note=52, velocity=64, time=192),
    Message('note_on', channel=4, note=52, velocity=100, time=0),
    Message('note_off', channel=4, note=52, velocity=64, time=192),
    Message('note_on', channel=4, note=52, velocity=100, time=0),
    Message('note_off', channel=4, note=52, velocity=64, time=192),
    Message('note_on', channel=4, note=52, velocity=100, time=0),
    Message('note_off', channel=4, note=52, velocity=64, time=192),
    Message('note_on', channel=4, note=60, velocity=127, time=0),
    Message('note_on', channel=4, note=53, velocity=127, time=0),
    Message('note_off', channel=4, note=53, velocity=64, time=384),
    Message('note_off', channel=4, note=60, velocity=64, time=0),
    Message('note_on', channel=4, note=52, velocity=100, time=0),
    Message('note_off', channel=4, note=52, velocity=64, time=192),
    Message('note_on', channel=4, note=52, velocity=100, time=0),
    Message('note_off', channel=4, note=52, velocity=64, time=192),
    Message('note_on', channel=4, note=52, velocity=100, time=0),
    Message('note_off', channel=4, note=52, velocity=64, time=192),
    Message('note_on', channel=4, note=52, velocity=100, time=0),
    Message('note_off', channel=4, note=52, velocity=64, time=192),
    Message('note_on', channel=4, note=52, velocity=100, time=0),
    Message('note_off', channel=4, note=52, velocity=64, time=192),
    Message('note_on', channel=4, note=52, velocity=100, time=0),
    Message('note_off', channel=4, note=52, velocity=64, time=192),
    Message('note_on', channel=4, note=62, velocity=127, time=0),
    Message('note_on', channel=4, note=55, velocity=127, time=0),
    Message('note_off', channel=4, note=55, velocity=64, time=384),
    Message('note_off', channel=4, note=62, velocity=64, time=0),
    Message('note_on', channel=4, note=52, velocity=100, time=0),
    Message('note_off', channel=4, note=52, velocity=64, time=192),
    Message('note_on', channel=4, note=61, velocity=100, time=0),
    Message('note_on', channel=4, note=54, velocity=100, time=0),
    Message('note_off', channel=4, note=54, velocity=64, time=192),
    Message('note_off', channel=4, note=61, velocity=64, time=0),
    Message('note_on', channel=4, note=52, velocity=100, time=0),
    Message('note_off', channel=4, note=52, velocity=64, time=192),
    Message('note_on', channel=4, note=61, velocity=100, time=0),
    Message('note_on', channel=4, note=54, velocity=100, time=0),
    Message('note_off', channel=4, note=54, velocity=64, time=192),
    Message('note_off', channel=4, note=61, velocity=64, time=0),
    Message('note_on', channel=4, note=62, velocity=100, time=0),
    Message('note_on', channel=4, note=55, velocity=100, time=0),
    Message('note_off', channel=4, note=55, velocity=64, time=192),
    Message('note_off', channel=4, note=62, velocity=64, time=0),
    Message('note_on', channel=4, note=61, velocity=100, time=0),
    Message('note_on', channel=4, note=54, velocity=100, time=0),
    Message('note_off', channel=4, note=54, velocity=64, time=192),
    Message('note_off', channel=4, note=61, velocity=64, time=0),
    Message('note_on', channel=4, note=59, velocity=127, time=0),
    Message('note_on', channel=4, note=52, velocity=127, time=0),
    Message('note_off', channel=4, note=52, velocity=64, time=384),
    Message('note_off', channel=4, note=59, velocity=64, time=0),
    Message('note_on', channel=4, note=52, velocity=100, time=0),
    Message('note_off', channel=4, note=52, velocity=64, time=192),
    Message('note_on', channel=4, note=52, velocity=100, time=0),
    Message('note_off', channel=4, note=52, velocity=64, time=192),
    Message('note_on', channel=4, note=52, velocity=100, time=0),
    Message('note_off', channel=4, note=52, velocity=64, time=192),
    Message('note_on', channel=4, note=52, velocity=100, time=0),
    Message('note_off', channel=4, note=52, velocity=64, time=192),
    Message('note_on', channel=4, note=52, velocity=100, time=0),
    Message('note_off', channel=4, note=52, velocity=64, time=192),
    Message('note_on', channel=4, note=52, velocity=100, time=0),
    Message('note_off', channel=4, note=52, velocity=64, time=192),
    Message('note_on', channel=4, note=60, velocity=127, time=0),
    Message('note_on', channel=4, note=53, velocity=127, time=0),
    Message('note_off', channel=4, note=53, velocity=64, time=384),
    Message('note_off', channel=4, note=60, velocity=64, time=0),
    Message('note_on', channel=4, note=52, velocity=100, time=0),
    Message('note_off', channel=4, note=52, velocity=64, time=192),
    Message('note_on', channel=4, note=52, velocity=100, time=0),
    Message('note_off', channel=4, note=52, velocity=64, time=192),
    Message('note_on', channel=4, note=52, velocity=100, time=0),
    Message('note_off', channel=4, note=52, velocity=64, time=192),
    Message('note_on', channel=4, note=52, velocity=100, time=0),
    Message('note_off', channel=4, note=52, velocity=64, time=192),
    Message('note_on', channel=4, note=52, velocity=100, time=0),
    Message('note_off', channel=4, note=52, velocity=64, time=192),
    Message('note_on', channel=4, note=52, velocity=100, time=0),
    Message('note_off', channel=4, note=52, velocity=64, time=192),
    Message('note_on', channel=4, note=60, velocity=127, time=0),
    Message('note_on', channel=4, note=53, velocity=127, time=0),
    Message('note_off', channel=4, note=53, velocity=64, time=384),
    Message('note_off', channel=4, note=60, velocity=64, time=0),
    Message('note_on', channel=4, note=52, velocity=100, time=0),
    Message('note_off', channel=4, note=52, velocity=64, time=192),
    Message('note_on', channel=4, note=52, velocity=100, time=0),
    Message('note_off', channel=4, note=52, velocity=64, time=192),
    Message('note_on', channel=4, note=52, velocity=100, time=0),
    Message('note_off', channel=4, note=52, velocity=64, time=192),
    Message('note_on', channel=4, note=52, velocity=100, time=0),
    Message('note_off', channel=4, note=52, velocity=64, time=192),
    Message('note_on', channel=4, note=52, velocity=100, time=0),
    Message('note_off', channel=4, note=52, velocity=64, time=192),
    Message('note_on', channel=4, note=52, velocity=100, time=0),
    Message('note_off', channel=4, note=52, velocity=64, time=192),
    Message('note_on', channel=4, note=62, velocity=127, time=0),
    Message('note_on', channel=4, note=55, velocity=127, time=0),
    Message('note_off', channel=4, note=55, velocity=64, time=384),
    Message('note_off', channel=4, note=62, velocity=64, time=0),
    Message('note_on', channel=4, note=52, velocity=100, time=0),
    Message('note_off', channel=4, note=52, velocity=64, time=192),
    Message('note_on', channel=4, note=61, velocity=100, time=0),
    Message('note_on', channel=4, note=54, velocity=100, time=0),
    Message('note_off', channel=4, note=54, velocity=64, time=192),
    Message('note_off', channel=4, note=61, velocity=64, time=0),
    Message('note_on', channel=4, note=52, velocity=100, time=0),
    Message('note_off', channel=4, note=52, velocity=64, time=192),
    Message('note_on', channel=4, note=61, velocity=100, time=0),
    Message('note_on', channel=4, note=54, velocity=100, time=0),
    Message('note_off', channel=4, note=54, velocity=64, time=192),
    Message('note_off', channel=4, note=61, velocity=64, time=0),
    Message('note_on', channel=4, note=62, velocity=100, time=0),
    Message('note_on', channel=4, note=55, velocity=100, time=0),
    Message('note_off', channel=4, note=55, velocity=64, time=192),
    Message('note_off', channel=4, note=62, velocity=64, time=0),
    Message('note_on', channel=4, note=61, velocity=100, time=0),
    Message('note_on', channel=4, note=54, velocity=100, time=0),
    Message('note_off', channel=4, note=54, velocity=64, time=192),
    Message('note_off', channel=4, note=61, velocity=64, time=0),
    Message('note_on', channel=4, note=54, velocity=127, time=0),
    Message('note_off', channel=4, note=54, velocity=64, time=384),
    Message('note_on', channel=4, note=66, velocity=100, time=0),
    Message('note_off', channel=4, note=66, velocity=64, time=192),
    Message('note_on', channel=4, note=69, velocity=100, time=0),
    Message('note_off', channel=4, note=69, velocity=64, time=192),
    Message('note_on', channel=4, note=60, velocity=100, time=0),
    Message('note_off', channel=4, note=60, velocity=64, time=192),
    Message('note_on', channel=4, note=59, velocity=100, time=0),
    Message('note_off', channel=4, note=59, velocity=64, time=384),
    Message('note_on', channel=4, note=66, velocity=100, time=0),
    Message('note_off', channel=4, note=66, velocity=64, time=192),
    Message('note_on', channel=4, note=54, velocity=127, time=0),
    Message('note_off', channel=4, note=54, velocity=64, time=384),
    Message('note_on', channel=4, note=66, velocity=100, time=0),
    Message('note_off', channel=4, note=66, velocity=64, time=192),
    Message('note_on', channel=4, note=69, velocity=100, time=0),
    Message('note_off', channel=4, note=69, velocity=64, time=192),
    Message('note_on', channel=4, note=60, velocity=100, time=0),
    Message('note_off', channel=4, note=60, velocity=64, time=192),
    Message('note_on', channel=4, note=59, velocity=100, time=0),
    Message('note_off', channel=4, note=59, velocity=64, time=384),
    Message('note_on', channel=4, note=66, velocity=100, time=0),
    Message('note_off', channel=4, note=66, velocity=64, time=192),
    Message('note_on', channel=4, note=54, velocity=127, time=0),
    Message('note_off', channel=4, note=54, velocity=64, time=384),
    Message('note_on', channel=4, note=66, velocity=100, time=0),
    Message('note_off', channel=4, note=66, velocity=64, time=192),
    Message('note_on', channel=4, note=69, velocity=100, time=0),
    Message('note_off', channel=4, note=69, velocity=64, time=192),
    Message('note_on', channel=4, note=60, velocity=100, time=0),
    Message('note_off', channel=4, note=60, velocity=64, time=192),
    Message('note_on', channel=4, note=59, velocity=100, time=0),
    Message('note_off', channel=4, note=59, velocity=64, time=384),
    Message('note_on', channel=4, note=66, velocity=100, time=0),
    Message('note_off', channel=4, note=66, velocity=64, time=192),
    Message('note_on', channel=4, note=54, velocity=127, time=0),
    Message('note_off', channel=4, note=54, velocity=64, time=384),
    Message('note_on', channel=4, note=66, velocity=100, time=0),
    Message('note_off', channel=4, note=66, velocity=64, time=192),
    Message('note_on', channel=4, note=69, velocity=100, time=0),
    Message('note_off', channel=4, note=69, velocity=64, time=192),
    Message('note_on', channel=4, note=60, velocity=100, time=0),
    Message('note_off', channel=4, note=60, velocity=64, time=192),
    Message('note_on', channel=4, note=59, velocity=100, time=0),
    Message('note_off', channel=4, note=59, velocity=64, time=384),
    Message('note_on', channel=4, note=66, velocity=100, time=0),
    Message('note_off', channel=4, note=66, velocity=64, time=384),
    Message('note_on', channel=4, note=54, velocity=100, time=0),
    Message('note_on', channel=4, note=61, velocity=100, time=0),
    Message('note_off', channel=4, note=61, velocity=64, time=384),
    Message('note_off', channel=4, note=54, velocity=64, time=0),
    Message('note_on', channel=4, note=61, velocity=100, time=0),
    Message('note_off', channel=4, note=61, velocity=64, time=192),
    Message('note_on', channel=4, note=60, velocity=100, time=0),
    Message('note_off', channel=4, note=60, velocity=64, time=192),
    Message('note_on', channel=4, note=66, velocity=100, time=0),
    Message('note_on', channel=4, note=59, velocity=100, time=0),
    Message('note_off', channel=4, note=59, velocity=64, time=576),
    Message('note_off', channel=4, note=66, velocity=64, time=0),
    Message('note_on', channel=4, note=61, velocity=100, time=0),
    Message('note_on', channel=4, note=54, velocity=100, time=0),
    Message('note_off', channel=4, note=54, velocity=64, time=576),
    Message('note_off', channel=4, note=61, velocity=64, time=0),
    Message('note_on', channel=4, note=61, velocity=100, time=0),
    Message('note_off', channel=4, note=61, velocity=64, time=192),
    Message('note_on', channel=4, note=60, velocity=100, time=0),
    Message('note_off', channel=4, note=60, velocity=64, time=192),
    Message('note_on', channel=4, note=66, velocity=100, time=0),
    Message('note_on', channel=4, note=59, velocity=100, time=0),
    Message('note_off', channel=4, note=59, velocity=64, time=576),
    Message('note_off', channel=4, note=66, velocity=64, time=0),
    Message('note_on', channel=4, note=61, velocity=100, time=0),
    Message('note_on', channel=4, note=54, velocity=100, time=0),
    Message('note_off', channel=4, note=54, velocity=64, time=576),
    Message('note_off', channel=4, note=61, velocity=64, time=0),
    Message('note_on', channel=4, note=61, velocity=100, time=0),
    Message('note_off', channel=4, note=61, velocity=64, time=192),
    Message('note_on', channel=4, note=60, velocity=100, time=0),
    Message('note_off', channel=4, note=60, velocity=64, time=192),
    Message('note_on', channel=4, note=66, velocity=100, time=0),
    Message('note_on', channel=4, note=59, velocity=100, time=0),
    Message('note_off', channel=4, note=59, velocity=64, time=576),
    Message('note_off', channel=4, note=66, velocity=64, time=0),
    Message('note_on', channel=4, note=59, velocity=100, time=0),
    Message('note_on', channel=4, note=52, velocity=100, time=0),
    Message('note_off', channel=4, note=52, velocity=64, time=384),
    Message('note_off', channel=4, note=59, velocity=64, time=0),
    Message('note_on', channel=4, note=67, velocity=100, time=192),
    Message('note_off', channel=4, note=67, velocity=64, time=192),
    Message('note_on', channel=4, note=64, velocity=100, time=0),
    Message('note_off', channel=4, note=64, velocity=64, time=192),
    Message('note_on', channel=4, note=69, velocity=100, time=0),
    Message('note_off', channel=4, note=69, velocity=64, time=192),
    Message('note_on', channel=4, note=64, velocity=100, time=0),
    Message('note_off', channel=4, note=64, velocity=64, time=192),
    Message('note_on', channel=4, note=71, velocity=100, time=0),
    Message('note_off', channel=4, note=71, velocity=64, time=192),
    Message('note_on', channel=4, note=68, velocity=100, time=0),
    Message('note_off', channel=4, note=68, velocity=64, time=192),
    Message('note_on', channel=4, note=61, velocity=100, time=0),
    Message('note_on', channel=4, note=54, velocity=100, time=0),
    Message('note_on', channel=4, note=61, velocity=100, time=384),
    Message('note_off', channel=4, note=61, velocity=64, time=192),
    Message('note_off', channel=4, note=54, velocity=64, time=0),
    Message('note_off', channel=4, note=61, velocity=64, time=0),
    Message('note_on', channel=4, note=60, velocity=100, time=0),
    Message('note_off', channel=4, note=60, velocity=64, time=192),
    Message('note_on', channel=4, note=66, velocity=100, time=0),
    Message('note_on', channel=4, note=59, velocity=100, time=0),
    Message('note_off', channel=4, note=59, velocity=64, time=576),
    Message('note_off', channel=4, note=66, velocity=64, time=0),
    Message('note_on', channel=4, note=59, velocity=100, time=0),
    Message('note_on', channel=4, note=52, velocity=100, time=0),
    Message('note_off', channel=4, note=52, velocity=64, time=384),
    Message('note_off', channel=4, note=59, velocity=64, time=0),
    Message('note_on', channel=4, note=67, velocity=100, time=192),
    Message('note_off', channel=4, note=67, velocity=64, time=192),
    Message('note_on', channel=4, note=64, velocity=100, time=0),
    Message('note_off', channel=4, note=64, velocity=64, time=192),
    Message('note_on', channel=4, note=67, velocity=100, time=0),
    Message('note_off', channel=4, note=67, velocity=64, time=192),
    Message('note_on', channel=4, note=64, velocity=100, time=0),
    Message('note_off', channel=4, note=64, velocity=64, time=192),
    Message('note_on', channel=4, note=69, velocity=100, time=0),
    Message('note_off', channel=4, note=69, velocity=64, time=192),
    Message('note_on', channel=4, note=64, velocity=100, time=0),
    Message('note_off', channel=4, note=64, velocity=64, time=192),
    Message('note_on', channel=4, note=62, velocity=100, time=0),
    Message('note_on', channel=4, note=55, velocity=100, time=0),
    Message('note_off', channel=4, note=55, velocity=64, time=192),
    Message('note_off', channel=4, note=62, velocity=64, time=0),
    Message('note_on', channel=4, note=52, velocity=100, time=0),
    Message('note_off', channel=4, note=52, velocity=64, time=192),
    Message('note_on', channel=4, note=61, velocity=100, time=0),
    Message('note_on', channel=4, note=54, velocity=100, time=0),
    Message('note_off', channel=4, note=54, velocity=64, time=192),
    Message('note_off', channel=4, note=61, velocity=64, time=0),
    Message('note_on', channel=4, note=52, velocity=100, time=0),
    Message('note_off', channel=4, note=52, velocity=64, time=192),
    Message('note_on', channel=4, note=61, velocity=100, time=0),
    Message('note_on', channel=4, note=54, velocity=100, time=0),
    Message('note_off', channel=4, note=54, velocity=64, time=192),
    Message('note_off', channel=4, note=61, velocity=64, time=0),
    Message('note_on', channel=4, note=62, velocity=100, time=0),
    Message('note_on', channel=4, note=55, velocity=100, time=0),
    Message('note_off', channel=4, note=55, velocity=64, time=192),
    Message('note_off', channel=4, note=62, velocity=64, time=0),
    Message('note_on', channel=4, note=61, velocity=100, time=0),
    Message('note_on', channel=4, note=54, velocity=100, time=0),
    Message('note_off', channel=4, note=54, velocity=64, time=192),
    Message('note_off', channel=4, note=61, velocity=64, time=0),
    Message('note_on', channel=4, note=59, velocity=127, time=0),
    Message('note_on', channel=4, note=52, velocity=127, time=0),
    Message('note_off', channel=4, note=52, velocity=64, time=1536),
    Message('note_off', channel=4, note=59, velocity=64, time=0),
    Message('note_on', channel=4, note=59, velocity=127, time=0),
    Message('note_on', channel=4, note=52, velocity=127, time=0),
    Message('note_off', channel=4, note=52, velocity=64, time=384),
    Message('note_off', channel=4, note=59, velocity=64, time=0),
    Message('note_on', channel=4, note=59, velocity=100, time=0),
    Message('note_on', channel=4, note=52, velocity=100, time=0),
    Message('note_off', channel=4, note=52, velocity=64, time=192),
    Message('note_off', channel=4, note=59, velocity=64, time=0),
    Message('note_on', channel=4, note=64, velocity=100, time=0),
    Message('note_off', channel=4, note=64, velocity=64, time=192),
    Message('note_on', channel=4, note=58, velocity=100, time=0),
    Message('note_off', channel=4, note=58, velocity=64, time=192),
    Message('note_on', channel=4, note=57, velocity=100, time=0),
    Message('note_off', channel=4, note=57, velocity=64, time=384),
    Message('note_on', channel=4, note=52, velocity=100, time=0),
    Message('note_off', channel=4, note=52, velocity=64, time=192),
    Message('note_on', channel=4, note=52, velocity=127, time=0),
    Message('note_on', channel=4, note=59, velocity=127, time=0),
    Message('note_off', channel=4, note=59, velocity=64, time=384),
    Message('note_off', channel=4, note=52, velocity=64, time=0),
    Message('note_on', channel=4, note=59, velocity=100, time=0),
    Message('note_on', channel=4, note=52, velocity=100, time=0),
    Message('note_off', channel=4, note=52, velocity=64, time=192),
    Message('note_off', channel=4, note=59, velocity=64, time=0),
    Message('note_on', channel=4, note=64, velocity=100, time=0),
    Message('note_off', channel=4, note=64, velocity=64, time=192),
    Message('note_on', channel=4, note=58, velocity=100, time=0),
    Message('note_off', channel=4, note=58, velocity=64, time=192),
    Message('note_on', channel=4, note=57, velocity=100, time=0),
    Message('note_off', channel=4, note=57, velocity=64, time=384),
    Message('note_on', channel=4, note=52, velocity=100, time=0),
    Message('note_off', channel=4, note=52, velocity=64, time=192),
    Message('note_on', channel=4, note=59, velocity=127, time=0),
    Message('note_on', channel=4, note=52, velocity=127, time=0),
    Message('note_off', channel=4, note=52, velocity=64, time=384),
    Message('note_off', channel=4, note=59, velocity=64, time=0),
    Message('note_on', channel=4, note=59, velocity=100, time=0),
    Message('note_on', channel=4, note=52, velocity=100, time=0),
    Message('note_off', channel=4, note=52, velocity=64, time=192),
    Message('note_off', channel=4, note=59, velocity=64, time=0),
    Message('note_on', channel=4, note=64, velocity=100, time=0),
    Message('note_off', channel=4, note=64, velocity=64, time=192),
    Message('note_on', channel=4, note=58, velocity=100, time=0),
    Message('note_off', channel=4, note=58, velocity=64, time=192),
    Message('note_on', channel=4, note=57, velocity=100, time=0),
    Message('note_off', channel=4, note=57, velocity=64, time=384),
    Message('note_on', channel=4, note=52, velocity=100, time=0),
    Message('note_off', channel=4, note=52, velocity=64, time=192),
    Message('note_on', channel=4, note=62, velocity=127, time=0),
    Message('note_on', channel=4, note=55, velocity=127, time=0),
    Message('note_off', channel=4, note=55, velocity=64, time=384),
    Message('note_off', channel=4, note=62, velocity=64, time=0),
    Message('note_on', channel=4, note=52, velocity=100, time=0),
    Message('note_off', channel=4, note=52, velocity=64, time=192),
    Message('note_on', channel=4, note=61, velocity=100, time=0),
    Message('note_on', channel=4, note=54, velocity=100, time=0),
    Message('note_off', channel=4, note=54, velocity=64, time=192),
    Message('note_off', channel=4, note=61, velocity=64, time=0),
    Message('note_on', channel=4, note=52, velocity=100, time=0),
    Message('note_off', channel=4, note=52, velocity=64, time=192),
    Message('note_on', channel=4, note=61, velocity=100, time=0),
    Message('note_on', channel=4, note=54, velocity=100, time=0),
    Message('note_off', channel=4, note=54, velocity=64, time=192),
    Message('note_off', channel=4, note=61, velocity=64, time=0),
    Message('note_on', channel=4, note=62, velocity=100, time=0),
    Message('note_on', channel=4, note=55, velocity=100, time=0),
    Message('note_off', channel=4, note=55, velocity=64, time=192),
    Message('note_off', channel=4, note=62, velocity=64, time=0),
    Message('note_on', channel=4, note=61, velocity=100, time=0),
    Message('note_on', channel=4, note=54, velocity=100, time=0),
    Message('note_off', channel=4, note=54, velocity=64, time=192),
    Message('note_off', channel=4, note=61, velocity=64, time=0),
    Message('note_on', channel=4, note=59, velocity=127, time=0),
    Message('note_on', channel=4, note=52, velocity=127, time=0),
    Message('note_off', channel=4, note=52, velocity=64, time=384),
    Message('note_off', channel=4, note=59, velocity=64, time=0),
    Message('note_on', channel=4, note=59, velocity=100, time=0),
    Message('note_on', channel=4, note=52, velocity=100, time=0),
    Message('note_off', channel=4, note=52, velocity=64, time=192),
    Message('note_off', channel=4, note=59, velocity=64, time=0),
    Message('note_on', channel=4, note=64, velocity=100, time=0),
    Message('note_off', channel=4, note=64, velocity=64, time=192),
    Message('note_on', channel=4, note=58, velocity=100, time=0),
    Message('note_off', channel=4, note=58, velocity=64, time=192),
    Message('note_on', channel=4, note=57, velocity=100, time=0),
    Message('note_off', channel=4, note=57, velocity=64, time=384),
    Message('note_on', channel=4, note=52, velocity=100, time=0),
    Message('note_off', channel=4, note=52, velocity=64, time=192),
    Message('note_on', channel=4, note=52, velocity=127, time=0),
    Message('note_on', channel=4, note=59, velocity=127, time=0),
    Message('note_off', channel=4, note=59, velocity=64, time=384),
    Message('note_off', channel=4, note=52, velocity=64, time=0),
    Message('note_on', channel=4, note=59, velocity=100, time=0),
    Message('note_on', channel=4, note=52, velocity=100, time=0),
    Message('note_off', channel=4, note=52, velocity=64, time=192),
    Message('note_off', channel=4, note=59, velocity=64, time=0),
    Message('note_on', channel=4, note=64, velocity=100, time=0),
    Message('note_off', channel=4, note=64, velocity=64, time=192),
    Message('note_on', channel=4, note=58, velocity=100, time=0),
    Message('note_off', channel=4, note=58, velocity=64, time=192),
    Message('note_on', channel=4, note=57, velocity=100, time=0),
    Message('note_off', channel=4, note=57, velocity=64, time=384),
    Message('note_on', channel=4, note=52, velocity=100, time=0),
    Message('note_off', channel=4, note=52, velocity=64, time=192),
    Message('note_on', channel=4, note=59, velocity=127, time=0),
    Message('note_on', channel=4, note=52, velocity=127, time=0),
    Message('note_off', channel=4, note=52, velocity=64, time=384),
    Message('note_off', channel=4, note=59, velocity=64, time=0),
    Message('note_on', channel=4, note=59, velocity=100, time=0),
    Message('note_on', channel=4, note=52, velocity=100, time=0),
    Message('note_off', channel=4, note=52, velocity=64, time=192),
    Message('note_off', channel=4, note=59, velocity=64, time=0),
    Message('note_on', channel=4, note=64, velocity=100, time=0),
    Message('note_off', channel=4, note=64, velocity=64, time=192),
    Message('note_on', channel=4, note=58, velocity=100, time=0),
    Message('note_off', channel=4, note=58, velocity=64, time=192),
    Message('note_on', channel=4, note=57, velocity=100, time=0),
    Message('note_off', channel=4, note=57, velocity=64, time=384),
    Message('note_on', channel=4, note=52, velocity=100, time=0),
    Message('note_off', channel=4, note=52, velocity=64, time=192),
    Message('note_on', channel=4, note=62, velocity=127, time=0),
    Message('note_on', channel=4, note=55, velocity=127, time=0),
    Message('note_off', channel=4, note=55, velocity=64, time=384),
    Message('note_off', channel=4, note=62, velocity=64, time=0),
    Message('note_on', channel=4, note=52, velocity=100, time=0),
    Message('note_off', channel=4, note=52, velocity=64, time=192),
    Message('note_on', channel=4, note=61, velocity=100, time=0),
    Message('note_on', channel=4, note=54, velocity=100, time=0),
    Message('note_off', channel=4, note=54, velocity=64, time=192),
    Message('note_off', channel=4, note=61, velocity=64, time=0),
    Message('note_on', channel=4, note=52, velocity=100, time=0),
    Message('note_off', channel=4, note=52, velocity=64, time=192),
    Message('note_on', channel=4, note=61, velocity=100, time=0),
    Message('note_on', channel=4, note=54, velocity=100, time=0),
    Message('note_off', channel=4, note=54, velocity=64, time=192),
    Message('note_off', channel=4, note=61, velocity=64, time=0),
    Message('note_on', channel=4, note=62, velocity=100, time=0),
    Message('note_on', channel=4, note=55, velocity=100, time=0),
    Message('note_off', channel=4, note=55, velocity=64, time=192),
    Message('note_off', channel=4, note=62, velocity=64, time=0),
    Message('note_on', channel=4, note=61, velocity=100, time=0),
    Message('note_on', channel=4, note=54, velocity=100, time=0),
    Message('note_off', channel=4, note=54, velocity=64, time=192),
    Message('note_off', channel=4, note=61, velocity=64, time=0),
    Message('note_on', channel=4, note=54, velocity=127, time=0),
    Message('note_off', channel=4, note=54, velocity=64, time=384),
    Message('note_on', channel=4, note=66, velocity=100, time=0),
    Message('note_off', channel=4, note=66, velocity=64, time=192),
    Message('note_on', channel=4, note=69, velocity=100, time=0),
    Message('note_off', channel=4, note=69, velocity=64, time=192),
    Message('note_on', channel=4, note=60, velocity=100, time=0),
    Message('note_off', channel=4, note=60, velocity=64, time=192),
    Message('note_on', channel=4, note=59, velocity=100, time=0),
    Message('note_off', channel=4, note=59, velocity=64, time=384),
    Message('note_on', channel=4, note=66, velocity=100, time=0),
    Message('note_off', channel=4, note=66, velocity=64, time=192),
    Message('note_on', channel=4, note=54, velocity=127, time=0),
    Message('note_off', channel=4, note=54, velocity=64, time=384),
    Message('note_on', channel=4, note=66, velocity=100, time=0),
    Message('note_off', channel=4, note=66, velocity=64, time=192),
    Message('note_on', channel=4, note=69, velocity=100, time=0),
    Message('note_off', channel=4, note=69, velocity=64, time=192),
    Message('note_on', channel=4, note=60, velocity=100, time=0),
    Message('note_off', channel=4, note=60, velocity=64, time=192),
    Message('note_on', channel=4, note=59, velocity=100, time=0),
    Message('note_off', channel=4, note=59, velocity=64, time=384),
    Message('note_on', channel=4, note=66, velocity=100, time=0),
    Message('note_off', channel=4, note=66, velocity=64, time=192),
    Message('note_on', channel=4, note=54, velocity=127, time=0),
    Message('note_off', channel=4, note=54, velocity=64, time=384),
    Message('note_on', channel=4, note=66, velocity=100, time=0),
    Message('note_off', channel=4, note=66, velocity=64, time=192),
    Message('note_on', channel=4, note=69, velocity=100, time=0),
    Message('note_off', channel=4, note=69, velocity=64, time=192),
    Message('note_on', channel=4, note=60, velocity=100, time=0),
    Message('note_off', channel=4, note=60, velocity=64, time=192),
    Message('note_on', channel=4, note=59, velocity=100, time=0),
    Message('note_off', channel=4, note=59, velocity=64, time=384),
    Message('note_on', channel=4, note=66, velocity=100, time=0),
    Message('note_off', channel=4, note=66, velocity=64, time=192),
    Message('note_on', channel=4, note=54, velocity=127, time=0),
    Message('note_off', channel=4, note=54, velocity=64, time=384),
    Message('note_on', channel=4, note=66, velocity=100, time=0),
    Message('note_off', channel=4, note=66, velocity=64, time=192),
    Message('note_on', channel=4, note=69, velocity=100, time=0),
    Message('note_off', channel=4, note=69, velocity=64, time=192),
    Message('note_on', channel=4, note=60, velocity=100, time=0),
    Message('note_off', channel=4, note=60, velocity=64, time=192),
    Message('note_on', channel=4, note=59, velocity=100, time=0),
    Message('note_off', channel=4, note=59, velocity=64, time=384),
    Message('note_on', channel=4, note=66, velocity=100, time=0),
    Message('note_off', channel=4, note=66, velocity=64, time=384),
    Message('note_on', channel=4, note=54, velocity=100, time=0),
    Message('note_on', channel=4, note=61, velocity=100, time=0),
    Message('note_off', channel=4, note=61, velocity=64, time=384),
    Message('note_off', channel=4, note=54, velocity=64, time=0),
    Message('note_on', channel=4, note=61, velocity=100, time=0),
    Message('note_off', channel=4, note=61, velocity=64, time=192),
    Message('note_on', channel=4, note=60, velocity=100, time=0),
    Message('note_off', channel=4, note=60, velocity=64, time=192),
    Message('note_on', channel=4, note=66, velocity=100, time=0),
    Message('note_on', channel=4, note=59, velocity=100, time=0),
    Message('note_off', channel=4, note=59, velocity=64, time=576),
    Message('note_off', channel=4, note=66, velocity=64, time=0),
    Message('note_on', channel=4, note=61, velocity=100, time=0),
    Message('note_on', channel=4, note=54, velocity=100, time=0),
    Message('note_off', channel=4, note=54, velocity=64, time=576),
    Message('note_off', channel=4, note=61, velocity=64, time=0),
    Message('note_on', channel=4, note=61, velocity=100, time=0),
    Message('note_off', channel=4, note=61, velocity=64, time=192),
    Message('note_on', channel=4, note=60, velocity=100, time=0),
    Message('note_off', channel=4, note=60, velocity=64, time=192),
    Message('note_on', channel=4, note=66, velocity=100, time=0),
    Message('note_on', channel=4, note=59, velocity=100, time=0),
    Message('note_off', channel=4, note=59, velocity=64, time=576),
    Message('note_off', channel=4, note=66, velocity=64, time=0),
    Message('note_on', channel=4, note=61, velocity=100, time=0),
    Message('note_on', channel=4, note=54, velocity=100, time=0),
    Message('note_off', channel=4, note=54, velocity=64, time=576),
    Message('note_off', channel=4, note=61, velocity=64, time=0),
    Message('note_on', channel=4, note=61, velocity=100, time=0),
    Message('note_off', channel=4, note=61, velocity=64, time=192),
    Message('note_on', channel=4, note=60, velocity=100, time=0),
    Message('note_off', channel=4, note=60, velocity=64, time=192),
    Message('note_on', channel=4, note=66, velocity=100, time=0),
    Message('note_on', channel=4, note=59, velocity=100, time=0),
    Message('note_off', channel=4, note=59, velocity=64, time=576),
    Message('note_off', channel=4, note=66, velocity=64, time=0),
    Message('note_on', channel=4, note=59, velocity=100, time=0),
    Message('note_on', channel=4, note=52, velocity=100, time=0),
    Message('note_off', channel=4, note=52, velocity=64, time=576),
    Message('note_off', channel=4, note=59, velocity=64, time=0),
    Message('note_on', channel=4, note=67, velocity=100, time=0),
    Message('note_off', channel=4, note=67, velocity=64, time=192),
    Message('note_on', channel=4, note=64, velocity=100, time=0),
    Message('note_off', channel=4, note=64, velocity=64, time=192),
    Message('note_on', channel=4, note=69, velocity=100, time=0),
    Message('note_off', channel=4, note=69, velocity=64, time=192),
    Message('note_on', channel=4, note=64, velocity=100, time=0),
    Message('note_off', channel=4, note=64, velocity=64, time=192),
    Message('note_on', channel=4, note=71, velocity=100, time=0),
    Message('note_off', channel=4, note=71, velocity=64, time=192),
    Message('note_on', channel=4, note=68, velocity=100, time=0),
    Message('note_off', channel=4, note=68, velocity=64, time=192),
    Message('note_on', channel=4, note=61, velocity=100, time=0),
    Message('note_on', channel=4, note=54, velocity=100, time=0),
    Message('note_on', channel=4, note=61, velocity=100, time=384),
    Message('note_off', channel=4, note=61, velocity=64, time=192),
    Message('note_off', channel=4, note=54, velocity=64, time=0),
    Message('note_off', channel=4, note=61, velocity=64, time=0),
    Message('note_on', channel=4, note=60, velocity=100, time=0),
    Message('note_off', channel=4, note=60, velocity=64, time=192),
    Message('note_on', channel=4, note=66, velocity=100, time=0),
    Message('note_on', channel=4, note=59, velocity=100, time=0),
    Message('note_off', channel=4, note=59, velocity=64, time=576),
    Message('note_off', channel=4, note=66, velocity=64, time=0),
    Message('note_on', channel=4, note=59, velocity=100, time=0),
    Message('note_on', channel=4, note=52, velocity=100, time=0),
    Message('note_off', channel=4, note=52, velocity=64, time=384),
    Message('note_off', channel=4, note=59, velocity=64, time=0),
    Message('note_on', channel=4, note=67, velocity=100, time=192),
    Message('note_off', channel=4, note=67, velocity=64, time=192),
    Message('note_on', channel=4, note=64, velocity=100, time=0),
    Message('note_off', channel=4, note=64, velocity=64, time=192),
    Message('note_on', channel=4, note=67, velocity=100, time=0),
    Message('note_off', channel=4, note=67, velocity=64, time=192),
    Message('note_on', channel=4, note=64, velocity=100, time=0),
    Message('note_off', channel=4, note=64, velocity=64, time=192),
    Message('note_on', channel=4, note=69, velocity=100, time=0),
    Message('note_off', channel=4, note=69, velocity=64, time=192),
    Message('note_on', channel=4, note=64, velocity=100, time=0),
    Message('note_off', channel=4, note=64, velocity=64, time=192),
    Message('note_on', channel=4, note=59, velocity=100, time=0),
    Message('note_on', channel=4, note=52, velocity=100, time=0),
    Message('note_off', channel=4, note=52, velocity=64, time=192),
    Message('note_off', channel=4, note=59, velocity=64, time=0),
    Message('control_change', channel=4, control=7, value=127, time=27456),
    Message('program_change', channel=4, program=30, time=0),
    Message('note_on', channel=4, note=54, velocity=100, time=1344),
    Message('note_off', channel=4, note=54, velocity=64, time=192),
    Message('note_on', channel=4, note=54, velocity=100, time=0),
    Message('note_off', channel=4, note=54, velocity=64, time=192),
    Message('note_on', channel=4, note=54, velocity=100, time=0),
    Message('note_off', channel=4, note=54, velocity=64, time=192),
    Message('note_on', channel=4, note=54, velocity=100, time=0),
    Message('note_off', channel=4, note=54, velocity=64, time=192),
    Message('note_on', channel=4, note=54, velocity=100, time=0),
    Message('note_off', channel=4, note=54, velocity=64, time=192),
    Message('note_on', channel=4, note=54, velocity=100, time=0),
    Message('note_off', channel=4, note=54, velocity=64, time=192),
    Message('note_on', channel=4, note=54, velocity=100, time=0),
    Message('note_off', channel=4, note=54, velocity=64, time=192),
    Message('note_on', channel=4, note=54, velocity=100, time=0),
    Message('note_off', channel=4, note=54, velocity=64, time=192),
    Message('note_on', channel=4, note=54, velocity=100, time=0),
    Message('note_off', channel=4, note=54, velocity=64, time=192),
    Message('note_on', channel=4, note=54, velocity=100, time=0),
    Message('note_off', channel=4, note=54, velocity=64, time=192),
    Message('note_on', channel=4, note=54, velocity=100, time=0),
    Message('note_off', channel=4, note=54, velocity=64, time=192),
    Message('note_on', channel=4, note=54, velocity=100, time=0),
    Message('note_off', channel=4, note=54, velocity=64, time=192),
    Message('note_on', channel=4, note=54, velocity=100, time=0),
    Message('note_off', channel=4, note=54, velocity=64, time=192),
    Message('note_on', channel=4, note=54, velocity=100, time=0),
    Message('note_off', channel=4, note=54, velocity=64, time=192),
    Message('note_on', channel=4, note=54, velocity=100, time=0),
    Message('note_off', channel=4, note=54, velocity=64, time=192),
    Message('note_on', channel=4, note=54, velocity=100, time=0),
    Message('note_off', channel=4, note=54, velocity=64, time=192),
    Message('note_on', channel=4, note=54, velocity=100, time=0),
    Message('note_off', channel=4, note=54, velocity=64, time=192),
    Message('note_on', channel=4, note=54, velocity=100, time=0),
    Message('note_on', channel=4, note=61, velocity=100, time=0),
    Message('note_off', channel=4, note=61, velocity=64, time=384),
    Message('note_off', channel=4, note=54, velocity=64, time=0),
    Message('note_on', channel=4, note=61, velocity=100, time=0),
    Message('note_off', channel=4, note=61, velocity=64, time=192),
    Message('note_on', channel=4, note=60, velocity=100, time=0),
    Message('note_off', channel=4, note=60, velocity=64, time=192),
    Message('note_on', channel=4, note=66, velocity=100, time=0),
    Message('note_on', channel=4, note=59, velocity=100, time=0),
    Message('note_off', channel=4, note=59, velocity=64, time=576),
    Message('note_off', channel=4, note=66, velocity=64, time=0),
    Message('note_on', channel=4, note=61, velocity=100, time=0),
    Message('note_on', channel=4, note=54, velocity=100, time=0),
    Message('note_off', channel=4, note=54, velocity=64, time=576),
    Message('note_off', channel=4, note=61, velocity=64, time=0),
    Message('note_on', channel=4, note=61, velocity=100, time=0),
    Message('note_off', channel=4, note=61, velocity=64, time=192),
    Message('note_on', channel=4, note=60, velocity=100, time=0),
    Message('note_off', channel=4, note=60, velocity=64, time=192),
    Message('note_on', channel=4, note=66, velocity=100, time=0),
    Message('note_on', channel=4, note=59, velocity=100, time=0),
    Message('note_off', channel=4, note=59, velocity=64, time=576),
    Message('note_off', channel=4, note=66, velocity=64, time=0),
    Message('note_on', channel=4, note=61, velocity=100, time=0),
    Message('note_on', channel=4, note=54, velocity=100, time=0),
    Message('note_off', channel=4, note=54, velocity=64, time=576),
    Message('note_off', channel=4, note=61, velocity=64, time=0),
    Message('note_on', channel=4, note=61, velocity=100, time=0),
    Message('note_off', channel=4, note=61, velocity=64, time=192),
    Message('note_on', channel=4, note=60, velocity=100, time=0),
    Message('note_off', channel=4, note=60, velocity=64, time=192),
    Message('note_on', channel=4, note=66, velocity=100, time=0),
    Message('note_on', channel=4, note=59, velocity=100, time=0),
    Message('note_off', channel=4, note=59, velocity=64, time=576),
    Message('note_off', channel=4, note=66, velocity=64, time=0),
    Message('note_on', channel=4, note=59, velocity=100, time=0),
    Message('note_on', channel=4, note=52, velocity=100, time=0),
    Message('note_off', channel=4, note=52, velocity=64, time=576),
    Message('note_off', channel=4, note=59, velocity=64, time=0),
    Message('note_on', channel=4, note=67, velocity=100, time=0),
    Message('note_off', channel=4, note=67, velocity=64, time=192),
    Message('note_on', channel=4, note=64, velocity=100, time=0),
    Message('note_off', channel=4, note=64, velocity=64, time=192),
    Message('note_on', channel=4, note=69, velocity=100, time=0),
    Message('note_off', channel=4, note=69, velocity=64, time=192),
    Message('note_on', channel=4, note=64, velocity=100, time=0),
    Message('note_off', channel=4, note=64, velocity=64, time=192),
    Message('note_on', channel=4, note=71, velocity=100, time=0),
    Message('note_off', channel=4, note=71, velocity=64, time=192),
    Message('note_on', channel=4, note=68, velocity=100, time=0),
    Message('note_off', channel=4, note=68, velocity=64, time=192),
    Message('note_on', channel=4, note=61, velocity=100, time=0),
    Message('note_on', channel=4, note=54, velocity=100, time=0),
    Message('note_on', channel=4, note=61, velocity=100, time=384),
    Message('note_off', channel=4, note=61, velocity=64, time=192),
    Message('note_off', channel=4, note=54, velocity=64, time=0),
    Message('note_off', channel=4, note=61, velocity=64, time=0),
    Message('note_on', channel=4, note=60, velocity=100, time=0),
    Message('note_off', channel=4, note=60, velocity=64, time=192),
    Message('note_on', channel=4, note=66, velocity=100, time=0),
    Message('note_on', channel=4, note=59, velocity=100, time=0),
    Message('note_off', channel=4, note=59, velocity=64, time=576),
    Message('note_off', channel=4, note=66, velocity=64, time=0),
    Message('note_on', channel=4, note=59, velocity=100, time=0),
    Message('note_on', channel=4, note=52, velocity=100, time=0),
    Message('note_off', channel=4, note=52, velocity=64, time=1344),
    Message('note_off', channel=4, note=59, velocity=64, time=0),
    Message('note_on', channel=4, note=52, velocity=100, time=0),
    Message('note_off', channel=4, note=52, velocity=64, time=192),
    Message('note_on', channel=4, note=52, velocity=100, time=0),
    Message('note_off', channel=4, note=52, velocity=64, time=192),
    Message('note_on', channel=4, note=54, velocity=100, time=0),
    Message('note_on', channel=4, note=61, velocity=100, time=0),
    Message('note_off', channel=4, note=61, velocity=64, time=384),
    Message('note_off', channel=4, note=54, velocity=64, time=0),
    Message('note_on', channel=4, note=61, velocity=100, time=0),
    Message('note_off', channel=4, note=61, velocity=64, time=192),
    Message('note_on', channel=4, note=60, velocity=100, time=0),
    Message('note_off', channel=4, note=60, velocity=64, time=192),
    Message('note_on', channel=4, note=66, velocity=100, time=0),
    Message('note_on', channel=4, note=59, velocity=100, time=0),
    Message('note_off', channel=4, note=59, velocity=64, time=576),
    Message('note_off', channel=4, note=66, velocity=64, time=0),
    Message('note_on', channel=4, note=61, velocity=100, time=0),
    Message('note_on', channel=4, note=54, velocity=100, time=0),
    Message('note_off', channel=4, note=54, velocity=64, time=576),
    Message('note_off', channel=4, note=61, velocity=64, time=0),
    Message('note_on', channel=4, note=61, velocity=100, time=0),
    Message('note_off', channel=4, note=61, velocity=64, time=192),
    Message('note_on', channel=4, note=60, velocity=100, time=0),
    Message('note_off', channel=4, note=60, velocity=64, time=192),
    Message('note_on', channel=4, note=66, velocity=100, time=0),
    Message('note_on', channel=4, note=59, velocity=100, time=0),
    Message('note_off', channel=4, note=59, velocity=64, time=576),
    Message('note_off', channel=4, note=66, velocity=64, time=0),
    Message('note_on', channel=4, note=61, velocity=100, time=0),
    Message('note_on', channel=4, note=54, velocity=100, time=0),
    Message('note_off', channel=4, note=54, velocity=64, time=576),
    Message('note_off', channel=4, note=61, velocity=64, time=0),
    Message('note_on', channel=4, note=61, velocity=100, time=0),
    Message('note_off', channel=4, note=61, velocity=64, time=192),
    Message('note_on', channel=4, note=60, velocity=100, time=0),
    Message('note_off', channel=4, note=60, velocity=64, time=192),
    Message('note_on', channel=4, note=66, velocity=100, time=0),
    Message('note_on', channel=4, note=59, velocity=100, time=0),
    Message('note_off', channel=4, note=59, velocity=64, time=576),
    Message('note_off', channel=4, note=66, velocity=64, time=0),
    Message('note_on', channel=4, note=59, velocity=100, time=0),
    Message('note_on', channel=4, note=52, velocity=100, time=0),
    Message('note_off', channel=4, note=52, velocity=64, time=576),
    Message('note_off', channel=4, note=59, velocity=64, time=0),
    Message('note_on', channel=4, note=67, velocity=100, time=0),
    Message('note_off', channel=4, note=67, velocity=64, time=192),
    Message('note_on', channel=4, note=64, velocity=100, time=0),
    Message('note_off', channel=4, note=64, velocity=64, time=192),
    Message('note_on', channel=4, note=69, velocity=100, time=0),
    Message('note_off', channel=4, note=69, velocity=64, time=192),
    Message('note_on', channel=4, note=64, velocity=100, time=0),
    Message('note_off', channel=4, note=64, velocity=64, time=192),
    Message('note_on', channel=4, note=71, velocity=100, time=0),
    Message('note_off', channel=4, note=71, velocity=64, time=192),
    Message('note_on', channel=4, note=68, velocity=100, time=0),
    Message('note_off', channel=4, note=68, velocity=64, time=192),
    Message('note_on', channel=4, note=61, velocity=100, time=0),
    Message('note_on', channel=4, note=54, velocity=100, time=0),
    Message('note_on', channel=4, note=61, velocity=100, time=384),
    Message('note_off', channel=4, note=61, velocity=64, time=192),
    Message('note_off', channel=4, note=54, velocity=64, time=0),
    Message('note_off', channel=4, note=61, velocity=64, time=0),
    Message('note_on', channel=4, note=60, velocity=100, time=0),
    Message('note_off', channel=4, note=60, velocity=64, time=192),
    Message('note_on', channel=4, note=66, velocity=100, time=0),
    Message('note_on', channel=4, note=59, velocity=100, time=0),
    Message('note_off', channel=4, note=59, velocity=64, time=576),
    Message('note_off', channel=4, note=66, velocity=64, time=0),
    Message('note_on', channel=4, note=59, velocity=100, time=0),
    Message('note_on', channel=4, note=52, velocity=100, time=0),
    Message('note_off', channel=4, note=52, velocity=64, time=384),
    Message('note_off', channel=4, note=59, velocity=64, time=0),
    Message('note_on', channel=4, note=67, velocity=100, time=192),
    Message('note_off', channel=4, note=67, velocity=64, time=192),
    Message('note_on', channel=4, note=64, velocity=100, time=0),
    Message('note_off', channel=4, note=64, velocity=64, time=192),
    Message('note_on', channel=4, note=67, velocity=100, time=0),
    Message('note_off', channel=4, note=67, velocity=64, time=192),
    Message('note_on', channel=4, note=64, velocity=100, time=0),
    Message('note_off', channel=4, note=64, velocity=64, time=192),
    Message('note_on', channel=4, note=69, velocity=100, time=0),
    Message('note_off', channel=4, note=69, velocity=64, time=192),
    Message('note_on', channel=4, note=64, velocity=100, time=0),
    Message('note_off', channel=4, note=64, velocity=64, time=192),
    Message('note_on', channel=4, note=59, velocity=100, time=1344),
    Message('note_on', channel=4, note=52, velocity=100, time=0),
    Message('note_off', channel=4, note=52, velocity=64, time=4608),
    Message('note_off', channel=4, note=59, velocity=64, time=0),
    Message('note_on', channel=4, note=59, velocity=100, time=0),
    Message('note_on', channel=4, note=52, velocity=100, time=0),
    Message('note_off', channel=4, note=52, velocity=64, time=384),
    Message('note_off', channel=4, note=59, velocity=64, time=0),
    Message('note_on', channel=4, note=59, velocity=100, time=0),
    Message('note_on', channel=4, note=52, velocity=100, time=0),
    Message('note_off', channel=4, note=52, velocity=64, time=192),
    Message('note_off', channel=4, note=59, velocity=64, time=0),
    Message('note_on', channel=4, note=64, velocity=100, time=0),
    Message('note_off', channel=4, note=64, velocity=64, time=192),
    Message('note_on', channel=4, note=58, velocity=100, time=0),
    Message('note_off', channel=4, note=58, velocity=64, time=192),
    Message('note_on', channel=4, note=57, velocity=100, time=0),
    Message('note_off', channel=4, note=57, velocity=64, time=384),
    Message('note_on', channel=4, note=52, velocity=100, time=0),
    Message('note_off', channel=4, note=52, velocity=64, time=192),
    Message('note_on', channel=4, note=59, velocity=100, time=0),
    Message('note_on', channel=4, note=52, velocity=100, time=0),
    Message('note_off', channel=4, note=52, velocity=64, time=384),
    Message('note_off', channel=4, note=59, velocity=64, time=0),
    Message('note_on', channel=4, note=59, velocity=100, time=0),
    Message('note_on', channel=4, note=52, velocity=100, time=0),
    Message('note_off', channel=4, note=52, velocity=64, time=192),
    Message('note_off', channel=4, note=59, velocity=64, time=0),
    Message('note_on', channel=4, note=64, velocity=100, time=0),
    Message('note_off', channel=4, note=64, velocity=64, time=192),
    Message('note_on', channel=4, note=58, velocity=100, time=0),
    Message('note_off', channel=4, note=58, velocity=64, time=192),
    Message('note_on', channel=4, note=57, velocity=100, time=0),
    Message('note_off', channel=4, note=57, velocity=64, time=384),
    Message('note_on', channel=4, note=52, velocity=100, time=0),
    Message('note_off', channel=4, note=52, velocity=64, time=192),
    Message('note_on', channel=4, note=59, velocity=100, time=0),
    Message('note_on', channel=4, note=52, velocity=100, time=0),
    Message('note_off', channel=4, note=52, velocity=64, time=384),
    Message('note_off', channel=4, note=59, velocity=64, time=0),
    Message('note_on', channel=4, note=59, velocity=100, time=0),
    Message('note_on', channel=4, note=52, velocity=100, time=0),
    Message('note_off', channel=4, note=52, velocity=64, time=192),
    Message('note_off', channel=4, note=59, velocity=64, time=0),
    Message('note_on', channel=4, note=64, velocity=100, time=0),
    Message('note_off', channel=4, note=64, velocity=64, time=192),
    Message('note_on', channel=4, note=58, velocity=100, time=0),
    Message('note_off', channel=4, note=58, velocity=64, time=192),
    Message('note_on', channel=4, note=57, velocity=100, time=0),
    Message('note_off', channel=4, note=57, velocity=64, time=384),
    Message('note_on', channel=4, note=52, velocity=100, time=0),
    Message('note_off', channel=4, note=52, velocity=64, time=192),
    Message('note_on', channel=4, note=59, velocity=100, time=0),
    Message('note_on', channel=4, note=52, velocity=100, time=0),
    Message('note_off', channel=4, note=52, velocity=64, time=384),
    Message('note_off', channel=4, note=59, velocity=64, time=0),
    Message('note_on', channel=4, note=59, velocity=100, time=0),
    Message('note_on', channel=4, note=52, velocity=100, time=0),
    Message('note_off', channel=4, note=52, velocity=64, time=192),
    Message('note_off', channel=4, note=59, velocity=64, time=0),
    Message('note_on', channel=4, note=64, velocity=100, time=0),
    Message('note_off', channel=4, note=64, velocity=64, time=192),
    Message('note_on', channel=4, note=58, velocity=100, time=0),
    Message('note_off', channel=4, note=58, velocity=64, time=192),
    Message('note_on', channel=4, note=57, velocity=100, time=0),
    Message('note_off', channel=4, note=57, velocity=64, time=384),
    Message('note_on', channel=4, note=52, velocity=100, time=0),
    Message('note_off', channel=4, note=52, velocity=64, time=192),
    Message('note_on', channel=4, note=59, velocity=100, time=0),
    Message('note_on', channel=4, note=52, velocity=100, time=0),
    Message('note_off', channel=4, note=52, velocity=64, time=384),
    Message('note_off', channel=4, note=59, velocity=64, time=0),
    Message('note_on', channel=4, note=59, velocity=100, time=0),
    Message('note_on', channel=4, note=52, velocity=100, time=0),
    Message('note_off', channel=4, note=52, velocity=64, time=192),
    Message('note_off', channel=4, note=59, velocity=64, time=0),
    Message('note_on', channel=4, note=64, velocity=100, time=0),
    Message('note_off', channel=4, note=64, velocity=64, time=192),
    Message('note_on', channel=4, note=58, velocity=100, time=0),
    Message('note_off', channel=4, note=58, velocity=64, time=192),
    Message('note_on', channel=4, note=57, velocity=100, time=0),
    Message('note_off', channel=4, note=57, velocity=64, time=384),
    Message('note_on', channel=4, note=52, velocity=100, time=0),
    Message('note_off', channel=4, note=52, velocity=64, time=192),
    Message('note_on', channel=4, note=62, velocity=100, time=0),
    Message('note_on', channel=4, note=55, velocity=100, time=0),
    Message('note_off', channel=4, note=55, velocity=64, time=384),
    Message('note_off', channel=4, note=62, velocity=64, time=0),
    Message('note_on', channel=4, note=52, velocity=100, time=0),
    Message('note_off', channel=4, note=52, velocity=64, time=192),
    Message('note_on', channel=4, note=61, velocity=100, time=0),
    Message('note_on', channel=4, note=54, velocity=100, time=0),
    Message('note_off', channel=4, note=54, velocity=64, time=192),
    Message('note_off', channel=4, note=61, velocity=64, time=0),
    Message('note_on', channel=4, note=52, velocity=100, time=0),
    Message('note_off', channel=4, note=52, velocity=64, time=192),
    Message('note_on', channel=4, note=61, velocity=100, time=0),
    Message('note_on', channel=4, note=54, velocity=100, time=0),
    Message('note_off', channel=4, note=54, velocity=64, time=192),
    Message('note_off', channel=4, note=61, velocity=64, time=0),
    Message('note_on', channel=4, note=62, velocity=100, time=0),
    Message('note_on', channel=4, note=55, velocity=100, time=0),
    Message('note_off', channel=4, note=55, velocity=64, time=192),
    Message('note_off', channel=4, note=62, velocity=64, time=0),
    Message('note_on', channel=4, note=61, velocity=100, time=0),
    Message('note_on', channel=4, note=54, velocity=100, time=0),
    Message('note_off', channel=4, note=54, velocity=64, time=192),
    Message('note_off', channel=4, note=61, velocity=64, time=0),
    Message('note_on', channel=4, note=59, velocity=100, time=0),
    Message('note_on', channel=4, note=52, velocity=100, time=0),
    Message('note_off', channel=4, note=52, velocity=64, time=384),
    Message('note_off', channel=4, note=59, velocity=64, time=0),
    Message('note_on', channel=4, note=52, velocity=100, time=0),
    Message('note_off', channel=4, note=52, velocity=64, time=192),
    Message('note_on', channel=4, note=64, velocity=100, time=0),
    Message('note_off', channel=4, note=64, velocity=64, time=192),
    Message('note_on', channel=4, note=58, velocity=100, time=0),
    Message('note_off', channel=4, note=58, velocity=64, time=192),
    Message('note_on', channel=4, note=57, velocity=100, time=0),
    Message('note_off', channel=4, note=57, velocity=64, time=192),
    Message('note_on', channel=4, note=52, velocity=100, time=0),
    Message('note_off', channel=4, note=52, velocity=64, time=192),
    Message('note_on', channel=4, note=52, velocity=100, time=0),
    Message('note_off', channel=4, note=52, velocity=64, time=192),
    Message('note_on', channel=4, note=60, velocity=100, time=0),
    Message('note_on', channel=4, note=53, velocity=100, time=0),
    Message('note_off', channel=4, note=53, velocity=64, time=192),
    Message('note_off', channel=4, note=60, velocity=64, time=0),
    Message('note_on', channel=4, note=52, velocity=100, time=0),
    Message('note_off', channel=4, note=52, velocity=64, time=192),
    Message('note_on', channel=4, note=52, velocity=100, time=0),
    Message('note_off', channel=4, note=52, velocity=64, time=192),
    Message('note_on', channel=4, note=64, velocity=100, time=0),
    Message('note_off', channel=4, note=64, velocity=64, time=192),
    Message('note_on', channel=4, note=58, velocity=100, time=0),
    Message('note_off', channel=4, note=58, velocity=64, time=192),
    Message('note_on', channel=4, note=57, velocity=100, time=0),
    Message('note_off', channel=4, note=57, velocity=64, time=192),
    Message('note_on', channel=4, note=52, velocity=100, time=0),
    Message('note_off', channel=4, note=52, velocity=64, time=192),
    Message('note_on', channel=4, note=52, velocity=100, time=0),
    Message('note_off', channel=4, note=52, velocity=64, time=192),
    Message('note_on', channel=4, note=60, velocity=100, time=0),
    Message('note_on', channel=4, note=53, velocity=100, time=0),
    Message('note_off', channel=4, note=53, velocity=64, time=192),
    Message('note_off', channel=4, note=60, velocity=64, time=0),
    Message('note_on', channel=4, note=52, velocity=100, time=0),
    Message('note_off', channel=4, note=52, velocity=64, time=192),
    Message('note_on', channel=4, note=52, velocity=100, time=0),
    Message('note_off', channel=4, note=52, velocity=64, time=192),
    Message('note_on', channel=4, note=64, velocity=100, time=0),
    Message('note_off', channel=4, note=64, velocity=64, time=192),
    Message('note_on', channel=4, note=58, velocity=100, time=0),
    Message('note_off', channel=4, note=58, velocity=64, time=192),
    Message('note_on', channel=4, note=57, velocity=100, time=0),
    Message('note_off', channel=4, note=57, velocity=64, time=192),
    Message('note_on', channel=4, note=52, velocity=100, time=0),
    Message('note_off', channel=4, note=52, velocity=64, time=192),
    Message('note_on', channel=4, note=52, velocity=100, time=0),
    Message('note_off', channel=4, note=52, velocity=64, time=192),
    Message('note_on', channel=4, note=60, velocity=100, time=0),
    Message('note_on', channel=4, note=53, velocity=100, time=0),
    Message('note_off', channel=4, note=53, velocity=64, time=192),
    Message('note_off', channel=4, note=60, velocity=64, time=0),
    Message('note_on', channel=4, note=52, velocity=100, time=0),
    Message('note_off', channel=4, note=52, velocity=64, time=192),
    Message('note_on', channel=4, note=52, velocity=100, time=0),
    Message('note_off', channel=4, note=52, velocity=64, time=192),
    Message('note_on', channel=4, note=64, velocity=100, time=0),
    Message('note_off', channel=4, note=64, velocity=64, time=192),
    Message('note_on', channel=4, note=58, velocity=100, time=0),
    Message('note_off', channel=4, note=58, velocity=64, time=192),
    Message('note_on', channel=4, note=57, velocity=100, time=0),
    Message('note_off', channel=4, note=57, velocity=64, time=192),
    Message('note_on', channel=4, note=52, velocity=100, time=0),
    Message('note_off', channel=4, note=52, velocity=64, time=192),
    Message('note_on', channel=4, note=52, velocity=100, time=0),
    Message('note_off', channel=4, note=52, velocity=64, time=192),
    Message('note_on', channel=4, note=60, velocity=100, time=0),
    Message('note_on', channel=4, note=53, velocity=100, time=0),
    Message('note_off', channel=4, note=53, velocity=64, time=192),
    Message('note_off', channel=4, note=60, velocity=64, time=0),
    Message('note_on', channel=4, note=52, velocity=100, time=0),
    Message('note_off', channel=4, note=52, velocity=64, time=192),
    Message('note_on', channel=4, note=52, velocity=100, time=0),
    Message('note_off', channel=4, note=52, velocity=64, time=192),
    Message('note_on', channel=4, note=64, velocity=100, time=0),
    Message('note_off', channel=4, note=64, velocity=64, time=192),
    Message('note_on', channel=4, note=58, velocity=100, time=0),
    Message('note_off', channel=4, note=58, velocity=64, time=192),
    Message('note_on', channel=4, note=52, velocity=100, time=0),
    Message('note_off', channel=4, note=52, velocity=64, time=192),
    Message('note_on', channel=4, note=52, velocity=100, time=0),
    Message('note_off', channel=4, note=52, velocity=64, time=192),
    Message('note_on', channel=4, note=52, velocity=100, time=0),
    Message('note_off', channel=4, note=52, velocity=64, time=192),
    Message('note_on', channel=4, note=60, velocity=100, time=0),
    Message('note_on', channel=4, note=53, velocity=100, time=0),
    Message('note_off', channel=4, note=53, velocity=64, time=192),
    Message('note_off', channel=4, note=60, velocity=64, time=0),
    Message('note_on', channel=4, note=52, velocity=100, time=0),
    Message('note_off', channel=4, note=52, velocity=64, time=192),
    Message('note_on', channel=4, note=52, velocity=100, time=0),
    Message('note_off', channel=4, note=52, velocity=64, time=192),
    Message('note_on', channel=4, note=64, velocity=100, time=0),
    Message('note_off', channel=4, note=64, velocity=64, time=192),
    Message('note_on', channel=4, note=58, velocity=100, time=0),
    Message('note_off', channel=4, note=58, velocity=64, time=192),
    Message('note_on', channel=4, note=52, velocity=100, time=0),
    Message('note_off', channel=4, note=52, velocity=64, time=192),
    Message('note_on', channel=4, note=52, velocity=100, time=0),
    Message('note_off', channel=4, note=52, velocity=64, time=192),
    Message('note_on', channel=4, note=52, velocity=100, time=0),
    Message('note_off', channel=4, note=52, velocity=64, time=192),
    Message('note_on', channel=4, note=60, velocity=100, time=0),
    Message('note_on', channel=4, note=53, velocity=100, time=0),
    Message('note_off', channel=4, note=53, velocity=64, time=192),
    Message('note_off', channel=4, note=60, velocity=64, time=0),
    Message('note_on', channel=4, note=52, velocity=100, time=0),
    Message('note_off', channel=4, note=52, velocity=64, time=192),
    Message('note_on', channel=4, note=52, velocity=100, time=0),
    Message('note_off', channel=4, note=52, velocity=64, time=192),
    Message('note_on', channel=4, note=64, velocity=100, time=0),
    Message('note_off', channel=4, note=64, velocity=64, time=192),
    Message('note_on', channel=4, note=58, velocity=100, time=0),
    Message('note_off', channel=4, note=58, velocity=64, time=192),
    Message('note_on', channel=4, note=52, velocity=100, time=0),
    Message('note_off', channel=4, note=52, velocity=64, time=192),
    Message('note_on', channel=4, note=52, velocity=100, time=0),
    Message('note_off', channel=4, note=52, velocity=64, time=192),
    Message('note_on', channel=4, note=52, velocity=100, time=0),
    Message('note_off', channel=4, note=52, velocity=64, time=192),
    Message('note_on', channel=4, note=60, velocity=100, time=0),
    Message('note_on', channel=4, note=53, velocity=100, time=0),
    Message('note_off', channel=4, note=53, velocity=64, time=192),
    Message('note_off', channel=4, note=60, velocity=64, time=0),
    Message('note_on', channel=4, note=52, velocity=100, time=0),
    Message('note_off', channel=4, note=52, velocity=64, time=192),
    Message('note_on', channel=4, note=52, velocity=100, time=0),
    Message('note_off', channel=4, note=52, velocity=64, time=192),
    Message('note_on', channel=4, note=64, velocity=100, time=0),
    Message('note_off', channel=4, note=64, velocity=64, time=192),
    Message('note_on', channel=4, note=58, velocity=100, time=0),
    Message('note_off', channel=4, note=58, velocity=64, time=192),
    Message('note_on', channel=4, note=52, velocity=100, time=0),
    Message('note_off', channel=4, note=52, velocity=64, time=192),
    Message('note_on', channel=4, note=52, velocity=100, time=0),
    Message('note_off', channel=4, note=52, velocity=64, time=192),
    Message('note_on', channel=4, note=52, velocity=100, time=0),
    Message('note_off', channel=4, note=52, velocity=64, time=192),
    Message('note_on', channel=4, note=60, velocity=100, time=0),
    Message('note_on', channel=4, note=53, velocity=100, time=0),
    Message('note_off', channel=4, note=53, velocity=64, time=192),
    Message('note_off', channel=4, note=60, velocity=64, time=0),
    Message('note_on', channel=4, note=52, velocity=100, time=0),
    Message('note_off', channel=4, note=52, velocity=64, time=192),
    Message('note_on', channel=4, note=52, velocity=100, time=0),
    Message('note_off', channel=4, note=52, velocity=64, time=192),
    Message('note_on', channel=4, note=64, velocity=100, time=0),
    Message('note_off', channel=4, note=64, velocity=64, time=192),
    Message('note_on', channel=4, note=52, velocity=100, time=0),
    Message('note_off', channel=4, note=52, velocity=64, time=192),
    Message('note_on', channel=4, note=52, velocity=100, time=0),
    Message('note_off', channel=4, note=52, velocity=64, time=192),
    Message('note_on', channel=4, note=52, velocity=100, time=0),
    Message('note_off', channel=4, note=52, velocity=64, time=192),
    Message('note_on', channel=4, note=52, velocity=100, time=0),
    Message('note_off', channel=4, note=52, velocity=64, time=192),
    Message('note_on', channel=4, note=52, velocity=100, time=0),
    Message('note_off', channel=4, note=52, velocity=64, time=192),
    Message('note_on', channel=4, note=52, velocity=100, time=0),
    Message('note_off', channel=4, note=52, velocity=64, time=192),
    Message('note_on', channel=4, note=52, velocity=100, time=0),
    Message('note_off', channel=4, note=52, velocity=64, time=192),
    Message('note_on', channel=4, note=64, velocity=100, time=0),
    Message('note_off', channel=4, note=64, velocity=64, time=192),
    Message('note_on', channel=4, note=52, velocity=100, time=0),
    Message('note_off', channel=4, note=52, velocity=64, time=192),
    Message('note_on', channel=4, note=52, velocity=100, time=0),
    Message('note_off', channel=4, note=52, velocity=64, time=192),
    Message('note_on', channel=4, note=52, velocity=100, time=0),
    Message('note_off', channel=4, note=52, velocity=64, time=192),
    Message('note_on', channel=4, note=52, velocity=100, time=0),
    Message('note_off', channel=4, note=52, velocity=64, time=192),
    Message('note_on', channel=4, note=52, velocity=100, time=0),
    Message('note_off', channel=4, note=52, velocity=64, time=192),
    Message('note_on', channel=4, note=52, velocity=100, time=0),
    Message('note_off', channel=4, note=52, velocity=64, time=192),
    Message('note_on', channel=4, note=52, velocity=100, time=0),
    Message('note_off', channel=4, note=52, velocity=64, time=192),
    Message('note_on', channel=4, note=64, velocity=100, time=0),
    Message('note_off', channel=4, note=64, velocity=64, time=192),
    Message('note_on', channel=4, note=52, velocity=100, time=0),
    Message('note_off', channel=4, note=52, velocity=64, time=192),
    Message('note_on', channel=4, note=52, velocity=100, time=0),
    Message('note_off', channel=4, note=52, velocity=64, time=192),
    Message('note_on', channel=4, note=52, velocity=100, time=0),
    Message('note_off', channel=4, note=52, velocity=64, time=192),
    Message('note_on', channel=4, note=52, velocity=100, time=0),
    Message('note_off', channel=4, note=52, velocity=64, time=192),
    Message('note_on', channel=4, note=52, velocity=100, time=0),
    Message('note_off', channel=4, note=52, velocity=64, time=192),
    Message('note_on', channel=4, note=52, velocity=100, time=0),
    Message('note_off', channel=4, note=52, velocity=64, time=192),
    Message('note_on', channel=4, note=52, velocity=100, time=0),
    Message('note_off', channel=4, note=52, velocity=64, time=192),
    Message('note_on', channel=4, note=64, velocity=100, time=0),
    Message('note_off', channel=4, note=64, velocity=64, time=192),
    Message('note_on', channel=4, note=52, velocity=100, time=0),
    Message('note_off', channel=4, note=52, velocity=64, time=192),
    Message('note_on', channel=4, note=52, velocity=100, time=0),
    Message('note_off', channel=4, note=52, velocity=64, time=192),
    Message('note_on', channel=4, note=52, velocity=100, time=0),
    Message('note_off', channel=4, note=52, velocity=64, time=192),
    Message('note_on', channel=4, note=52, velocity=100, time=0),
    Message('note_off', channel=4, note=52, velocity=64, time=192),
    Message('note_on', channel=4, note=52, velocity=100, time=0),
    Message('note_off', channel=4, note=52, velocity=64, time=192),
    Message('note_on', channel=4, note=52, velocity=100, time=0),
    Message('note_off', channel=4, note=52, velocity=64, time=192),
    Message('note_on', channel=4, note=52, velocity=100, time=0),
    Message('note_off', channel=4, note=52, velocity=64, time=192),
    Message('note_on', channel=4, note=64, velocity=100, time=0),
    Message('note_off', channel=4, note=64, velocity=64, time=192),
    Message('note_on', channel=4, note=52, velocity=100, time=0),
    Message('note_off', channel=4, note=52, velocity=64, time=192),
    Message('note_on', channel=4, note=52, velocity=100, time=0),
    Message('note_off', channel=4, note=52, velocity=64, time=192),
    Message('note_on', channel=4, note=52, velocity=100, time=0),
    Message('note_off', channel=4, note=52, velocity=64, time=192),
    Message('note_on', channel=4, note=52, velocity=100, time=0),
    Message('note_off', channel=4, note=52, velocity=64, time=192),
    Message('note_on', channel=4, note=52, velocity=100, time=0),
    Message('note_off', channel=4, note=52, velocity=64, time=192),
    Message('note_on', channel=4, note=52, velocity=100, time=0),
    Message('note_off', channel=4, note=52, velocity=64, time=192),
    Message('note_on', channel=4, note=52, velocity=100, time=0),
    Message('note_off', channel=4, note=52, velocity=64, time=192),
    Message('note_on', channel=4, note=64, velocity=100, time=0),
    Message('note_off', channel=4, note=64, velocity=64, time=192),
    Message('note_on', channel=4, note=52, velocity=100, time=0),
    Message('note_off', channel=4, note=52, velocity=64, time=192),
    Message('note_on', channel=4, note=52, velocity=100, time=0),
    Message('note_off', channel=4, note=52, velocity=64, time=192),
    Message('note_on', channel=4, note=52, velocity=100, time=0),
    Message('note_off', channel=4, note=52, velocity=64, time=192),
    Message('note_on', channel=4, note=52, velocity=100, time=0),
    Message('note_off', channel=4, note=52, velocity=64, time=192),
    Message('note_on', channel=4, note=52, velocity=100, time=0),
    Message('note_off', channel=4, note=52, velocity=64, time=192),
    Message('note_on', channel=4, note=52, velocity=100, time=0),
    Message('note_off', channel=4, note=52, velocity=64, time=192),
    Message('note_on', channel=4, note=52, velocity=98, time=0),
    Message('note_off', channel=4, note=52, velocity=64, time=192),
    Message('note_on', channel=4, note=64, velocity=97, time=0),
    Message('note_off', channel=4, note=64, velocity=64, time=192),
    Message('note_on', channel=4, note=52, velocity=95, time=0),
    Message('note_off', channel=4, note=52, velocity=64, time=192),
    Message('note_on', channel=4, note=52, velocity=93, time=0),
    Message('note_off', channel=4, note=52, velocity=64, time=192),
    Message('note_on', channel=4, note=52, velocity=92, time=0),
    Message('note_off', channel=4, note=52, velocity=64, time=192),
    Message('note_on', channel=4, note=52, velocity=90, time=0),
    Message('note_off', channel=4, note=52, velocity=64, time=192),
    Message('note_on', channel=4, note=52, velocity=89, time=0),
    Message('note_off', channel=4, note=52, velocity=64, time=192),
    Message('note_on', channel=4, note=52, velocity=87, time=0),
    Message('note_off', channel=4, note=52, velocity=64, time=192),
    Message('note_on', channel=4, note=52, velocity=86, time=0),
    Message('note_off', channel=4, note=52, velocity=64, time=192),
    Message('note_on', channel=4, note=64, velocity=84, time=0),
    Message('note_off', channel=4, note=64, velocity=64, time=192),
    Message('note_on', channel=4, note=52, velocity=83, time=0),
    Message('note_off', channel=4, note=52, velocity=64, time=192),
    Message('note_on', channel=4, note=52, velocity=81, time=0),
    Message('note_off', channel=4, note=52, velocity=64, time=192),
    Message('note_on', channel=4, note=52, velocity=80, time=0),
    Message('note_off', channel=4, note=52, velocity=64, time=192),
    Message('note_on', channel=4, note=52, velocity=78, time=0),
    Message('note_off', channel=4, note=52, velocity=64, time=192),
    Message('note_on', channel=4, note=52, velocity=77, time=0),
    Message('note_off', channel=4, note=52, velocity=64, time=192),
    Message('note_on', channel=4, note=52, velocity=75, time=0),
    Message('note_off', channel=4, note=52, velocity=64, time=192),
    Message('note_on', channel=4, note=52, velocity=73, time=0),
    Message('note_off', channel=4, note=52, velocity=64, time=192),
    Message('note_on', channel=4, note=64, velocity=72, time=0),
    Message('note_off', channel=4, note=64, velocity=64, time=192),
    Message('note_on', channel=4, note=52, velocity=70, time=0),
    Message('note_off', channel=4, note=52, velocity=64, time=192),
    Message('note_on', channel=4, note=52, velocity=69, time=0),
    Message('note_off', channel=4, note=52, velocity=64, time=192),
    Message('note_on', channel=4, note=52, velocity=67, time=0),
    Message('note_off', channel=4, note=52, velocity=64, time=192),
    Message('note_on', channel=4, note=52, velocity=66, time=0),
    Message('note_off', channel=4, note=52, velocity=64, time=192),
    Message('note_on', channel=4, note=52, velocity=64, time=0),
    Message('note_off', channel=4, note=52, velocity=64, time=192),
    Message('note_on', channel=4, note=52, velocity=63, time=0),
    Message('note_off', channel=4, note=52, velocity=64, time=192),
    Message('note_on', channel=4, note=52, velocity=61, time=0),
    Message('note_off', channel=4, note=52, velocity=64, time=192),
    Message('note_on', channel=4, note=64, velocity=59, time=0),
    Message('note_off', channel=4, note=64, velocity=64, time=192),
    Message('note_on', channel=4, note=52, velocity=58, time=0),
    Message('note_off', channel=4, note=52, velocity=64, time=192),
    Message('note_on', channel=4, note=52, velocity=56, time=0),
    Message('note_off', channel=4, note=52, velocity=64, time=192),
    Message('note_on', channel=4, note=52, velocity=55, time=0),
    Message('note_off', channel=4, note=52, velocity=64, time=192),
    Message('note_on', channel=4, note=52, velocity=53, time=0),
    Message('note_off', channel=4, note=52, velocity=64, time=192),
    Message('note_on', channel=4, note=52, velocity=52, time=0),
    Message('note_off', channel=4, note=52, velocity=64, time=192),
    Message('note_on', channel=4, note=52, velocity=50, time=0),
    Message('note_off', channel=4, note=52, velocity=64, time=192),
    Message('note_on', channel=4, note=52, velocity=49, time=0),
    Message('note_off', channel=4, note=52, velocity=64, time=192),
    Message('note_on', channel=4, note=64, velocity=47, time=0),
    Message('note_off', channel=4, note=64, velocity=64, time=192),
    Message('note_on', channel=4, note=52, velocity=46, time=0),
    Message('note_off', channel=4, note=52, velocity=64, time=192),
    Message('note_on', channel=4, note=52, velocity=44, time=0),
    Message('note_off', channel=4, note=52, velocity=64, time=192),
    Message('note_on', channel=4, note=52, velocity=43, time=0),
    Message('note_off', channel=4, note=52, velocity=64, time=192),
    Message('note_on', channel=4, note=52, velocity=41, time=0),
    Message('note_off', channel=4, note=52, velocity=64, time=192),
    Message('note_on', channel=4, note=52, velocity=40, time=0),
    Message('note_off', channel=4, note=52, velocity=64, time=192),
    Message('note_on', channel=4, note=52, velocity=38, time=0),
    Message('note_off', channel=4, note=52, velocity=64, time=192),
    Message('note_on', channel=4, note=52, velocity=36, time=0),
    Message('note_off', channel=4, note=52, velocity=64, time=192),
    Message('note_on', channel=4, note=64, velocity=34, time=0),
    Message('note_off', channel=4, note=64, velocity=64, time=192),
    Message('note_on', channel=4, note=52, velocity=33, time=0),
    Message('note_off', channel=4, note=52, velocity=64, time=192),
    Message('note_on', channel=4, note=52, velocity=32, time=0),
    Message('note_off', channel=4, note=52, velocity=64, time=192),
    Message('note_on', channel=4, note=52, velocity=30, time=0),
    Message('note_off', channel=4, note=52, velocity=64, time=192),
    Message('note_on', channel=4, note=52, velocity=29, time=0),
    Message('note_off', channel=4, note=52, velocity=64, time=192),
    Message('note_on', channel=4, note=52, velocity=27, time=0),
    Message('note_off', channel=4, note=52, velocity=64, time=192),
    Message('note_on', channel=4, note=52, velocity=26, time=0),
    Message('note_off', channel=4, note=52, velocity=64, time=192),
    Message('note_on', channel=4, note=52, velocity=24, time=0),
    Message('note_off', channel=4, note=52, velocity=64, time=192),
    Message('note_on', channel=4, note=64, velocity=22, time=0),
    Message('note_off', channel=4, note=64, velocity=64, time=192),
    Message('note_on', channel=4, note=52, velocity=21, time=0),
    Message('note_off', channel=4, note=52, velocity=64, time=192),
    Message('note_on', channel=4, note=52, velocity=20, time=0),
    Message('note_off', channel=4, note=52, velocity=64, time=192),
    Message('note_on', channel=4, note=52, velocity=18, time=0),
    Message('note_off', channel=4, note=52, velocity=64, time=192),
    Message('note_on', channel=4, note=52, velocity=16, time=0),
    Message('note_off', channel=4, note=52, velocity=64, time=192),
    Message('note_on', channel=4, note=52, velocity=15, time=0),
    Message('note_off', channel=4, note=52, velocity=64, time=192),
    Message('note_on', channel=4, note=52, velocity=13, time=0),
    Message('note_off', channel=4, note=52, velocity=64, time=192),
    Message('note_on', channel=4, note=52, velocity=12, time=0),
    Message('note_off', channel=4, note=52, velocity=64, time=192),
    Message('note_on', channel=4, note=64, velocity=10, time=0),
    Message('note_off', channel=4, note=64, velocity=64, time=192),
    Message('note_on', channel=4, note=52, velocity=9, time=0),
    Message('note_off', channel=4, note=52, velocity=64, time=192),
    Message('note_on', channel=4, note=52, velocity=7, time=0),
    Message('note_off', channel=4, note=52, velocity=64, time=192),
    Message('note_on', channel=4, note=52, velocity=6, time=0),
    Message('note_off', channel=4, note=52, velocity=64, time=192),
    Message('note_on', channel=4, note=52, velocity=4, time=0),
    Message('note_off', channel=4, note=52, velocity=64, time=192),
    Message('note_on', channel=4, note=52, velocity=3, time=0),
    Message('note_off', channel=4, note=52, velocity=64, time=192),
    MetaMessage('end_of_track', time=0)]),
  MidiTrack([
    MetaMessage('track_name', name='Bass', time=0),
    Message('control_change', channel=11, control=7, value=127, time=0),
    Message('program_change', channel=11, program=34, time=0),
    Message('control_change', channel=11, control=7, value=127, time=18432),
    Message('program_change', channel=11, program=34, time=0),
    Message('note_on', channel=11, note=28, velocity=100, time=0),
    Message('note_off', channel=11, note=28, velocity=64, time=192),
    Message('note_on', channel=11, note=28, velocity=100, time=0),
    Message('note_off', channel=11, note=28, velocity=64, time=192),
    Message('note_on', channel=11, note=28, velocity=100, time=0),
    Message('note_off', channel=11, note=28, velocity=64, time=192),
    Message('note_on', channel=11, note=28, velocity=100, time=0),
    Message('note_off', channel=11, note=28, velocity=64, time=192),
    Message('note_on', channel=11, note=28, velocity=100, time=0),
    Message('note_off', channel=11, note=28, velocity=64, time=192),
    Message('note_on', channel=11, note=28, velocity=100, time=0),
    Message('note_off', channel=11, note=28, velocity=64, time=192),
    Message('note_on', channel=11, note=28, velocity=100, time=0),
    Message('note_off', channel=11, note=28, velocity=64, time=192),
    Message('note_on', channel=11, note=28, velocity=100, time=0),
    Message('note_off', channel=11, note=28, velocity=64, time=192),
    Message('note_on', channel=11, note=28, velocity=100, time=0),
    Message('note_off', channel=11, note=28, velocity=64, time=192),
    Message('note_on', channel=11, note=28, velocity=100, time=0),
    Message('note_off', channel=11, note=28, velocity=64, time=192),
    Message('note_on', channel=11, note=28, velocity=100, time=0),
    Message('note_off', channel=11, note=28, velocity=64, time=192),
    Message('note_on', channel=11, note=28, velocity=100, time=0),
    Message('note_off', channel=11, note=28, velocity=64, time=192),
    Message('note_on', channel=11, note=28, velocity=100, time=0),
    Message('note_off', channel=11, note=28, velocity=64, time=192),
    Message('note_on', channel=11, note=28, velocity=100, time=0),
    Message('note_off', channel=11, note=28, velocity=64, time=192),
    Message('note_on', channel=11, note=28, velocity=100, time=0),
    Message('note_off', channel=11, note=28, velocity=64, time=192),
    Message('note_on', channel=11, note=28, velocity=100, time=0),
    Message('note_off', channel=11, note=28, velocity=64, time=192),
    Message('note_on', channel=11, note=28, velocity=100, time=0),
    Message('note_off', channel=11, note=28, velocity=64, time=192),
    Message('note_on', channel=11, note=28, velocity=100, time=0),
    Message('note_off', channel=11, note=28, velocity=64, time=192),
    Message('note_on', channel=11, note=28, velocity=100, time=0),
    Message('note_off', channel=11, note=28, velocity=64, time=192),
    Message('note_on', channel=11, note=28, velocity=100, time=0),
    Message('note_off', channel=11, note=28, velocity=64, time=192),
    Message('note_on', channel=11, note=28, velocity=100, time=0),
    Message('note_off', channel=11, note=28, velocity=64, time=192),
    Message('note_on', channel=11, note=28, velocity=100, time=0),
    Message('note_off', channel=11, note=28, velocity=64, time=192),
    Message('note_on', channel=11, note=28, velocity=100, time=0),
    Message('note_off', channel=11, note=28, velocity=64, time=192),
    Message('note_on', channel=11, note=28, velocity=100, time=0),
    Message('note_off', channel=11, note=28, velocity=64, time=192),
    Message('note_on', channel=11, note=28, velocity=100, time=0),
    Message('note_off', channel=11, note=28, velocity=64, time=192),
    Message('note_on', channel=11, note=28, velocity=100, time=0),
    Message('note_off', channel=11, note=28, velocity=64, time=192),
    Message('note_on', channel=11, note=28, velocity=100, time=0),
    Message('note_off', channel=11, note=28, velocity=64, time=192),
    Message('note_on', channel=11, note=28, velocity=100, time=0),
    Message('note_off', channel=11, note=28, velocity=64, time=192),
    Message('note_on', channel=11, note=28, velocity=100, time=0),
    Message('note_off', channel=11, note=28, velocity=64, time=192),
    Message('note_on', channel=11, note=28, velocity=100, time=0),
    Message('note_off', channel=11, note=28, velocity=64, time=192),
    Message('note_on', channel=11, note=28, velocity=100, time=0),
    Message('note_off', channel=11, note=28, velocity=64, time=192),
    Message('note_on', channel=11, note=28, velocity=127, time=0),
    Message('note_off', channel=11, note=28, velocity=64, time=192),
    Message('note_on', channel=11, note=28, velocity=120, time=0),
    Message('note_off', channel=11, note=28, velocity=64, time=192),
    Message('note_on', channel=11, note=28, velocity=120, time=0),
    Message('note_off', channel=11, note=28, velocity=64, time=192),
    Message('note_on', channel=11, note=28, velocity=120, time=0),
    Message('note_off', channel=11, note=28, velocity=64, time=192),
    Message('note_on', channel=11, note=28, velocity=120, time=0),
    Message('note_off', channel=11, note=28, velocity=64, time=192),
    Message('note_on', channel=11, note=28, velocity=120, time=0),
    Message('note_off', channel=11, note=28, velocity=64, time=192),
    Message('note_on', channel=11, note=28, velocity=120, time=0),
    Message('note_off', channel=11, note=28, velocity=64, time=192),
    Message('note_on', channel=11, note=28, velocity=120, time=0),
    Message('note_off', channel=11, note=28, velocity=64, time=192),
    Message('note_on', channel=11, note=29, velocity=120, time=0),
    Message('note_off', channel=11, note=29, velocity=64, time=192),
    Message('note_on', channel=11, note=28, velocity=120, time=0),
    Message('note_off', channel=11, note=28, velocity=64, time=192),
    Message('note_on', channel=11, note=28, velocity=120, time=0),
    Message('note_off', channel=11, note=28, velocity=64, time=192),
    Message('note_on', channel=11, note=28, velocity=120, time=0),
    Message('note_off', channel=11, note=28, velocity=64, time=192),
    Message('note_on', channel=11, note=28, velocity=120, time=0),
    Message('note_off', channel=11, note=28, velocity=64, time=192),
    Message('note_on', channel=11, note=28, velocity=120, time=0),
    Message('note_off', channel=11, note=28, velocity=64, time=192),
    Message('note_on', channel=11, note=28, velocity=120, time=0),
    Message('note_off', channel=11, note=28, velocity=64, time=192),
    Message('note_on', channel=11, note=28, velocity=120, time=0),
    Message('note_off', channel=11, note=28, velocity=64, time=192),
    Message('note_on', channel=11, note=29, velocity=120, time=0),
    Message('note_off', channel=11, note=29, velocity=64, time=192),
    Message('note_on', channel=11, note=28, velocity=120, time=0),
    Message('note_off', channel=11, note=28, velocity=64, time=192),
    Message('note_on', channel=11, note=28, velocity=120, time=0),
    Message('note_off', channel=11, note=28, velocity=64, time=192),
    Message('note_on', channel=11, note=28, velocity=120, time=0),
    Message('note_off', channel=11, note=28, velocity=64, time=192),
    Message('note_on', channel=11, note=28, velocity=120, time=0),
    Message('note_off', channel=11, note=28, velocity=64, time=192),
    Message('note_on', channel=11, note=28, velocity=120, time=0),
    Message('note_off', channel=11, note=28, velocity=64, time=192),
    Message('note_on', channel=11, note=28, velocity=120, time=0),
    Message('note_off', channel=11, note=28, velocity=64, time=192),
    Message('note_on', channel=11, note=28, velocity=120, time=0),
    Message('note_off', channel=11, note=28, velocity=64, time=192),
    Message('note_on', channel=11, note=29, velocity=120, time=0),
    Message('note_off', channel=11, note=29, velocity=64, time=192),
    Message('note_on', channel=11, note=28, velocity=120, time=0),
    Message('note_off', channel=11, note=28, velocity=64, time=192),
    Message('note_on', channel=11, note=28, velocity=120, time=0),
    Message('note_off', channel=11, note=28, velocity=64, time=192),
    Message('note_on', channel=11, note=28, velocity=120, time=0),
    Message('note_off', channel=11, note=28, velocity=64, time=192),
    Message('note_on', channel=11, note=29, velocity=127, time=0),
    Message('note_off', channel=11, note=29, velocity=64, time=192),
    Message('note_on', channel=11, note=28, velocity=120, time=0),
    Message('note_off', channel=11, note=28, velocity=64, time=192),
    Message('note_on', channel=11, note=28, velocity=120, time=0),
    Message('note_off', channel=11, note=28, velocity=64, time=192),
    Message('note_on', channel=11, note=28, velocity=120, time=0),
    Message('note_off', channel=11, note=28, velocity=64, time=192),
    Message('note_on', channel=11, note=29, velocity=127, time=0),
    Message('note_off', channel=11, note=29, velocity=64, time=192),
    Message('note_on', channel=11, note=28, velocity=120, time=0),
    Message('note_off', channel=11, note=28, velocity=64, time=192),
    Message('note_on', channel=11, note=28, velocity=120, time=0),
    Message('note_off', channel=11, note=28, velocity=64, time=192),
    Message('note_on', channel=11, note=28, velocity=120, time=0),
    Message('note_off', channel=11, note=28, velocity=64, time=192),
    Message('note_on', channel=11, note=28, velocity=120, time=0),
    Message('note_off', channel=11, note=28, velocity=64, time=192),
    Message('note_on', channel=11, note=28, velocity=120, time=0),
    Message('note_off', channel=11, note=28, velocity=64, time=192),
    Message('note_on', channel=11, note=28, velocity=120, time=0),
    Message('note_off', channel=11, note=28, velocity=64, time=192),
    Message('note_on', channel=11, note=28, velocity=120, time=0),
    Message('note_off', channel=11, note=28, velocity=64, time=192),
    Message('note_on', channel=11, note=29, velocity=120, time=0),
    Message('note_off', channel=11, note=29, velocity=64, time=192),
    Message('note_on', channel=11, note=28, velocity=120, time=0),
    Message('note_off', channel=11, note=28, velocity=64, time=192),
    Message('note_on', channel=11, note=28, velocity=120, time=0),
    Message('note_off', channel=11, note=28, velocity=64, time=192),
    Message('note_on', channel=11, note=28, velocity=120, time=0),
    Message('note_off', channel=11, note=28, velocity=64, time=192),
    Message('note_on', channel=11, note=28, velocity=120, time=0),
    Message('note_off', channel=11, note=28, velocity=64, time=192),
    Message('note_on', channel=11, note=28, velocity=120, time=0),
    Message('note_off', channel=11, note=28, velocity=64, time=192),
    Message('note_on', channel=11, note=28, velocity=120, time=0),
    Message('note_off', channel=11, note=28, velocity=64, time=192),
    Message('note_on', channel=11, note=28, velocity=120, time=0),
    Message('note_off', channel=11, note=28, velocity=64, time=192),
    Message('note_on', channel=11, note=29, velocity=120, time=0),
    Message('note_off', channel=11, note=29, velocity=64, time=192),
    Message('note_on', channel=11, note=28, velocity=120, time=0),
    Message('note_off', channel=11, note=28, velocity=64, time=192),
    Message('note_on', channel=11, note=28, velocity=120, time=0),
    Message('note_off', channel=11, note=28, velocity=64, time=192),
    Message('note_on', channel=11, note=28, velocity=120, time=0),
    Message('note_off', channel=11, note=28, velocity=64, time=192),
    Message('note_on', channel=11, note=28, velocity=120, time=0),
    Message('note_off', channel=11, note=28, velocity=64, time=192),
    Message('note_on', channel=11, note=28, velocity=120, time=0),
    Message('note_off', channel=11, note=28, velocity=64, time=192),
    Message('note_on', channel=11, note=28, velocity=120, time=0),
    Message('note_off', channel=11, note=28, velocity=64, time=192),
    Message('note_on', channel=11, note=28, velocity=120, time=0),
    Message('note_off', channel=11, note=28, velocity=64, time=192),
    Message('note_on', channel=11, note=29, velocity=120, time=0),
    Message('note_off', channel=11, note=29, velocity=64, time=192),
    Message('note_on', channel=11, note=28, velocity=120, time=0),
    Message('note_off', channel=11, note=28, velocity=64, time=192),
    Message('note_on', channel=11, note=28, velocity=120, time=0),
    Message('note_off', channel=11, note=28, velocity=64, time=192),
    Message('note_on', channel=11, note=28, velocity=120, time=0),
    Message('note_off', channel=11, note=28, velocity=64, time=192),
    Message('note_on', channel=11, note=33, velocity=127, time=0),
    Message('note_off', channel=11, note=33, velocity=64, time=384),
    Message('note_on', channel=11, note=33, velocity=127, time=0),
    Message('note_off', channel=11, note=33, velocity=64, time=384),
    Message('note_on', channel=11, note=29, velocity=120, time=0),
    Message('note_off', channel=11, note=29, velocity=64, time=192),
    Message('note_on', channel=11, note=28, velocity=120, time=0),
    Message('note_off', channel=11, note=28, velocity=64, time=192),
    Message('note_on', channel=11, note=28, velocity=120, time=0),
    Message('note_off', channel=11, note=28, velocity=64, time=192),
    Message('note_on', channel=11, note=28, velocity=120, time=0),
    Message('note_off', channel=11, note=28, velocity=64, time=192),
    Message('note_on', channel=11, note=28, velocity=120, time=0),
    Message('note_off', channel=11, note=28, velocity=64, time=192),
    Message('note_on', channel=11, note=28, velocity=120, time=0),
    Message('note_off', channel=11, note=28, velocity=64, time=192),
    Message('note_on', channel=11, note=28, velocity=120, time=0),
    Message('note_off', channel=11, note=28, velocity=64, time=192),
    Message('note_on', channel=11, note=28, velocity=120, time=0),
    Message('note_off', channel=11, note=28, velocity=64, time=192),
    Message('note_on', channel=11, note=29, velocity=120, time=0),
    Message('note_off', channel=11, note=29, velocity=64, time=192),
    Message('note_on', channel=11, note=28, velocity=120, time=0),
    Message('note_off', channel=11, note=28, velocity=64, time=192),
    Message('note_on', channel=11, note=28, velocity=120, time=0),
    Message('note_off', channel=11, note=28, velocity=64, time=192),
    Message('note_on', channel=11, note=28, velocity=120, time=0),
    Message('note_off', channel=11, note=28, velocity=64, time=192),
    Message('note_on', channel=11, note=28, velocity=120, time=0),
    Message('note_off', channel=11, note=28, velocity=64, time=192),
    Message('note_on', channel=11, note=28, velocity=120, time=0),
    Message('note_off', channel=11, note=28, velocity=64, time=192),
    Message('note_on', channel=11, note=28, velocity=120, time=0),
    Message('note_off', channel=11, note=28, velocity=64, time=192),
    Message('note_on', channel=11, note=28, velocity=120, time=0),
    Message('note_off', channel=11, note=28, velocity=64, time=192),
    Message('note_on', channel=11, note=29, velocity=120, time=0),
    Message('note_off', channel=11, note=29, velocity=64, time=192),
    Message('note_on', channel=11, note=28, velocity=120, time=0),
    Message('note_off', channel=11, note=28, velocity=64, time=192),
    Message('note_on', channel=11, note=28, velocity=120, time=0),
    Message('note_off', channel=11, note=28, velocity=64, time=192),
    Message('note_on', channel=11, note=28, velocity=120, time=0),
    Message('note_off', channel=11, note=28, velocity=64, time=192),
    Message('note_on', channel=11, note=28, velocity=120, time=0),
    Message('note_off', channel=11, note=28, velocity=64, time=192),
    Message('note_on', channel=11, note=28, velocity=120, time=0),
    Message('note_off', channel=11, note=28, velocity=64, time=192),
    Message('note_on', channel=11, note=28, velocity=120, time=0),
    Message('note_off', channel=11, note=28, velocity=64, time=192),
    Message('note_on', channel=11, note=28, velocity=120, time=0),
    Message('note_off', channel=11, note=28, velocity=64, time=192),
    Message('note_on', channel=11, note=29, velocity=120, time=0),
    Message('note_off', channel=11, note=29, velocity=64, time=192),
    Message('note_on', channel=11, note=28, velocity=120, time=0),
    Message('note_off', channel=11, note=28, velocity=64, time=192),
    Message('note_on', channel=11, note=28, velocity=120, time=0),
    Message('note_off', channel=11, note=28, velocity=64, time=192),
    Message('note_on', channel=11, note=28, velocity=120, time=0),
    Message('note_off', channel=11, note=28, velocity=64, time=192),
    Message('note_on', channel=11, note=28, velocity=120, time=0),
    Message('note_off', channel=11, note=28, velocity=64, time=192),
    Message('note_on', channel=11, note=28, velocity=120, time=0),
    Message('note_off', channel=11, note=28, velocity=64, time=192),
    Message('note_on', channel=11, note=28, velocity=120, time=0),
    Message('note_off', channel=11, note=28, velocity=64, time=192),
    Message('note_on', channel=11, note=28, velocity=120, time=0),
    Message('note_off', channel=11, note=28, velocity=64, time=192),
    Message('note_on', channel=11, note=29, velocity=127, time=0),
    Message('note_off', channel=11, note=29, velocity=64, time=192),
    Message('note_on', channel=11, note=28, velocity=120, time=0),
    Message('note_off', channel=11, note=28, velocity=64, time=192),
    Message('note_on', channel=11, note=28, velocity=120, time=0),
    Message('note_off', channel=11, note=28, velocity=64, time=192),
    Message('note_on', channel=11, note=28, velocity=120, time=0),
    Message('note_off', channel=11, note=28, velocity=64, time=192),
    Message('note_on', channel=11, note=28, velocity=120, time=0),
    Message('note_off', channel=11, note=28, velocity=64, time=192),
    Message('note_on', channel=11, note=28, velocity=120, time=0),
    Message('note_off', channel=11, note=28, velocity=64, time=192),
    Message('note_on', channel=11, note=28, velocity=120, time=0),
    Message('note_off', channel=11, note=28, velocity=64, time=192),
    Message('note_on', channel=11, note=28, velocity=120, time=0),
    Message('note_off', channel=11, note=28, velocity=64, time=192),
    Message('note_on', channel=11, note=29, velocity=120, time=0),
    Message('note_off', channel=11, note=29, velocity=64, time=192),
    Message('note_on', channel=11, note=28, velocity=120, time=0),
    Message('note_off', channel=11, note=28, velocity=64, time=192),
    Message('note_on', channel=11, note=28, velocity=120, time=0),
    Message('note_off', channel=11, note=28, velocity=64, time=192),
    Message('note_on', channel=11, note=28, velocity=120, time=0),
    Message('note_off', channel=11, note=28, velocity=64, time=192),
    Message('note_on', channel=11, note=28, velocity=120, time=0),
    Message('note_off', channel=11, note=28, velocity=64, time=192),
    Message('note_on', channel=11, note=28, velocity=120, time=0),
    Message('note_off', channel=11, note=28, velocity=64, time=192),
    Message('note_on', channel=11, note=28, velocity=120, time=0),
    Message('note_off', channel=11, note=28, velocity=64, time=192),
    Message('note_on', channel=11, note=28, velocity=120, time=0),
    Message('note_off', channel=11, note=28, velocity=64, time=192),
    Message('note_on', channel=11, note=29, velocity=120, time=0),
    Message('note_off', channel=11, note=29, velocity=64, time=192),
    Message('note_on', channel=11, note=28, velocity=120, time=0),
    Message('note_off', channel=11, note=28, velocity=64, time=192),
    Message('note_on', channel=11, note=28, velocity=120, time=0),
    Message('note_off', channel=11, note=28, velocity=64, time=192),
    Message('note_on', channel=11, note=28, velocity=120, time=0),
    Message('note_off', channel=11, note=28, velocity=64, time=192),
    Message('note_on', channel=11, note=28, velocity=120, time=0),
    Message('note_off', channel=11, note=28, velocity=64, time=192),
    Message('note_on', channel=11, note=28, velocity=120, time=0),
    Message('note_off', channel=11, note=28, velocity=64, time=192),
    Message('note_on', channel=11, note=28, velocity=120, time=0),
    Message('note_off', channel=11, note=28, velocity=64, time=192),
    Message('note_on', channel=11, note=28, velocity=120, time=0),
    Message('note_off', channel=11, note=28, velocity=64, time=192),
    Message('note_on', channel=11, note=29, velocity=120, time=0),
    Message('note_off', channel=11, note=29, velocity=64, time=192),
    Message('note_on', channel=11, note=28, velocity=120, time=0),
    Message('note_off', channel=11, note=28, velocity=64, time=192),
    Message('note_on', channel=11, note=28, velocity=120, time=0),
    Message('note_off', channel=11, note=28, velocity=64, time=192),
    Message('note_on', channel=11, note=28, velocity=120, time=0),
    Message('note_off', channel=11, note=28, velocity=64, time=192),
    Message('note_on', channel=11, note=28, velocity=120, time=0),
    Message('note_off', channel=11, note=28, velocity=64, time=192),
    Message('note_on', channel=11, note=28, velocity=120, time=0),
    Message('note_off', channel=11, note=28, velocity=64, time=192),
    Message('note_on', channel=11, note=28, velocity=120, time=0),
    Message('note_off', channel=11, note=28, velocity=64, time=192),
    Message('note_on', channel=11, note=28, velocity=120, time=0),
    Message('note_off', channel=11, note=28, velocity=64, time=192),
    Message('note_on', channel=11, note=28, velocity=127, time=0),
    Message('note_off', channel=11, note=28, velocity=64, time=384),
    Message('note_on', channel=11, note=28, velocity=120, time=0),
    Message('note_off', channel=11, note=28, velocity=64, time=192),
    Message('note_on', channel=11, note=28, velocity=120, time=0),
    Message('note_off', channel=11, note=28, velocity=64, time=192),
    Message('note_on', channel=11, note=34, velocity=120, time=0),
    Message('note_off', channel=11, note=34, velocity=64, time=192),
    Message('note_on', channel=11, note=33, velocity=127, time=0),
    Message('note_off', channel=11, note=33, velocity=64, time=192),
    Message('note_on', channel=11, note=33, velocity=120, time=0),
    Message('note_off', channel=11, note=33, velocity=64, time=192),
    Message('note_on', channel=11, note=28, velocity=120, time=0),
    Message('note_off', channel=11, note=28, velocity=64, time=192),
    Message('note_on', channel=11, note=28, velocity=127, time=0),
    Message('note_off', channel=11, note=28, velocity=64, time=384),
    Message('note_on', channel=11, note=28, velocity=120, time=0),
    Message('note_off', channel=11, note=28, velocity=64, time=192),
    Message('note_on', channel=11, note=28, velocity=120, time=0),
    Message('note_off', channel=11, note=28, velocity=64, time=192),
    Message('note_on', channel=11, note=34, velocity=120, time=0),
    Message('note_off', channel=11, note=34, velocity=64, time=192),
    Message('note_on', channel=11, note=33, velocity=127, time=0),
    Message('note_off', channel=11, note=33, velocity=64, time=192),
    Message('note_on', channel=11, note=33, velocity=120, time=0),
    Message('note_off', channel=11, note=33, velocity=64, time=192),
    Message('note_on', channel=11, note=28, velocity=120, time=0),
    Message('note_off', channel=11, note=28, velocity=64, time=192),
    Message('note_on', channel=11, note=28, velocity=127, time=0),
    Message('note_off', channel=11, note=28, velocity=64, time=384),
    Message('note_on', channel=11, note=28, velocity=120, time=0),
    Message('note_off', channel=11, note=28, velocity=64, time=192),
    Message('note_on', channel=11, note=28, velocity=120, time=0),
    Message('note_off', channel=11, note=28, velocity=64, time=192),
    Message('note_on', channel=11, note=34, velocity=120, time=0),
    Message('note_off', channel=11, note=34, velocity=64, time=192),
    Message('note_on', channel=11, note=33, velocity=127, time=0),
    Message('note_off', channel=11, note=33, velocity=64, time=384),
    Message('note_on', channel=11, note=28, velocity=120, time=0),
    Message('note_off', channel=11, note=28, velocity=64, time=192),
    Message('note_on', channel=11, note=31, velocity=127, time=0),
    Message('note_off', channel=11, note=31, velocity=64, time=384),
    Message('note_on', channel=11, note=28, velocity=120, time=0),
    Message('note_off', channel=11, note=28, velocity=64, time=192),
    Message('note_on', channel=11, note=30, velocity=120, time=0),
    Message('note_off', channel=11, note=30, velocity=64, time=192),
    Message('note_on', channel=11, note=28, velocity=120, time=0),
    Message('note_off', channel=11, note=28, velocity=64, time=192),
    Message('note_on', channel=11, note=30, velocity=120, time=0),
    Message('note_off', channel=11, note=30, velocity=64, time=192),
    Message('note_on', channel=11, note=31, velocity=120, time=0),
    Message('note_off', channel=11, note=31, velocity=64, time=192),
    Message('note_on', channel=11, note=30, velocity=120, time=0),
    Message('note_off', channel=11, note=30, velocity=64, time=192),
    Message('note_on', channel=11, note=28, velocity=127, time=0),
    Message('note_off', channel=11, note=28, velocity=64, time=384),
    Message('note_on', channel=11, note=28, velocity=120, time=0),
    Message('note_off', channel=11, note=28, velocity=64, time=192),
    Message('note_on', channel=11, note=28, velocity=120, time=0),
    Message('note_off', channel=11, note=28, velocity=64, time=192),
    Message('note_on', channel=11, note=34, velocity=120, time=0),
    Message('note_off', channel=11, note=34, velocity=64, time=192),
    Message('note_on', channel=11, note=33, velocity=127, time=0),
    Message('note_off', channel=11, note=33, velocity=64, time=192),
    Message('note_on', channel=11, note=33, velocity=120, time=0),
    Message('note_off', channel=11, note=33, velocity=64, time=192),
    Message('note_on', channel=11, note=28, velocity=120, time=0),
    Message('note_off', channel=11, note=28, velocity=64, time=192),
    Message('note_on', channel=11, note=28, velocity=127, time=0),
    Message('note_off', channel=11, note=28, velocity=64, time=384),
    Message('note_on', channel=11, note=28, velocity=120, time=0),
    Message('note_off', channel=11, note=28, velocity=64, time=192),
    Message('note_on', channel=11, note=28, velocity=120, time=0),
    Message('note_off', channel=11, note=28, velocity=64, time=192),
    Message('note_on', channel=11, note=34, velocity=120, time=0),
    Message('note_off', channel=11, note=34, velocity=64, time=192),
    Message('note_on', channel=11, note=33, velocity=127, time=0),
    Message('note_off', channel=11, note=33, velocity=64, time=192),
    Message('note_on', channel=11, note=33, velocity=120, time=0),
    Message('note_off', channel=11, note=33, velocity=64, time=192),
    Message('note_on', channel=11, note=28, velocity=120, time=0),
    Message('note_off', channel=11, note=28, velocity=64, time=192),
    Message('note_on', channel=11, note=28, velocity=127, time=0),
    Message('note_off', channel=11, note=28, velocity=64, time=384),
    Message('note_on', channel=11, note=28, velocity=120, time=0),
    Message('note_off', channel=11, note=28, velocity=64, time=192),
    Message('note_on', channel=11, note=28, velocity=120, time=0),
    Message('note_off', channel=11, note=28, velocity=64, time=192),
    Message('note_on', channel=11, note=34, velocity=120, time=0),
    Message('note_off', channel=11, note=34, velocity=64, time=192),
    Message('note_on', channel=11, note=33, velocity=127, time=0),
    Message('note_off', channel=11, note=33, velocity=64, time=384),
    Message('note_on', channel=11, note=28, velocity=120, time=0),
    Message('note_off', channel=11, note=28, velocity=64, time=192),
    Message('note_on', channel=11, note=31, velocity=127, time=0),
    Message('note_off', channel=11, note=31, velocity=64, time=384),
    Message('note_on', channel=11, note=28, velocity=120, time=0),
    Message('note_off', channel=11, note=28, velocity=64, time=192),
    Message('note_on', channel=11, note=30, velocity=120, time=0),
    Message('note_off', channel=11, note=30, velocity=64, time=192),
    Message('note_on', channel=11, note=28, velocity=120, time=0),
    Message('note_off', channel=11, note=28, velocity=64, time=192),
    Message('note_on', channel=11, note=30, velocity=120, time=0),
    Message('note_off', channel=11, note=30, velocity=64, time=192),
    Message('note_on', channel=11, note=31, velocity=120, time=0),
    Message('note_off', channel=11, note=31, velocity=64, time=192),
    Message('note_on', channel=11, note=30, velocity=120, time=0),
    Message('note_off', channel=11, note=30, velocity=64, time=192),
    Message('note_on', channel=11, note=28, velocity=127, time=0),
    Message('note_off', channel=11, note=28, velocity=64, time=384),
    Message('note_on', channel=11, note=28, velocity=120, time=0),
    Message('note_off', channel=11, note=28, velocity=64, time=192),
    Message('note_on', channel=11, note=28, velocity=120, time=0),
    Message('note_off', channel=11, note=28, velocity=64, time=192),
    Message('note_on', channel=11, note=28, velocity=120, time=0),
    Message('note_off', channel=11, note=28, velocity=64, time=192),
    Message('note_on', channel=11, note=28, velocity=120, time=0),
    Message('note_off', channel=11, note=28, velocity=64, time=192),
    Message('note_on', channel=11, note=28, velocity=120, time=0),
    Message('note_off', channel=11, note=28, velocity=64, time=192),
    Message('note_on', channel=11, note=28, velocity=120, time=0),
    Message('note_off', channel=11, note=28, velocity=64, time=192),
    Message('note_on', channel=11, note=29, velocity=120, time=0),
    Message('note_off', channel=11, note=29, velocity=64, time=192),
    Message('note_on', channel=11, note=28, velocity=120, time=0),
    Message('note_off', channel=11, note=28, velocity=64, time=192),
    Message('note_on', channel=11, note=28, velocity=120, time=0),
    Message('note_off', channel=11, note=28, velocity=64, time=192),
    Message('note_on', channel=11, note=28, velocity=120, time=0),
    Message('note_off', channel=11, note=28, velocity=64, time=192),
    Message('note_on', channel=11, note=28, velocity=120, time=0),
    Message('note_off', channel=11, note=28, velocity=64, time=192),
    Message('note_on', channel=11, note=28, velocity=120, time=0),
    Message('note_off', channel=11, note=28, velocity=64, time=192),
    Message('note_on', channel=11, note=28, velocity=120, time=0),
    Message('note_off', channel=11, note=28, velocity=64, time=192),
    Message('note_on', channel=11, note=28, velocity=120, time=0),
    Message('note_off', channel=11, note=28, velocity=64, time=192),
    Message('note_on', channel=11, note=29, velocity=120, time=0),
    Message('note_off', channel=11, note=29, velocity=64, time=192),
    Message('note_on', channel=11, note=28, velocity=120, time=0),
    Message('note_off', channel=11, note=28, velocity=64, time=192),
    Message('note_on', channel=11, note=28, velocity=120, time=0),
    Message('note_off', channel=11, note=28, velocity=64, time=192),
    Message('note_on', channel=11, note=28, velocity=120, time=0),
    Message('note_off', channel=11, note=28, velocity=64, time=192),
    Message('note_on', channel=11, note=28, velocity=120, time=0),
    Message('note_off', channel=11, note=28, velocity=64, time=192),
    Message('note_on', channel=11, note=28, velocity=120, time=0),
    Message('note_off', channel=11, note=28, velocity=64, time=192),
    Message('note_on', channel=11, note=28, velocity=120, time=0),
    Message('note_off', channel=11, note=28, velocity=64, time=192),
    Message('note_on', channel=11, note=28, velocity=120, time=0),
    Message('note_off', channel=11, note=28, velocity=64, time=192),
    Message('note_on', channel=11, note=31, velocity=127, time=0),
    Message('note_off', channel=11, note=31, velocity=64, time=384),
    Message('note_on', channel=11, note=28, velocity=120, time=0),
    Message('note_off', channel=11, note=28, velocity=64, time=192),
    Message('note_on', channel=11, note=30, velocity=120, time=0),
    Message('note_off', channel=11, note=30, velocity=64, time=192),
    Message('note_on', channel=11, note=28, velocity=120, time=0),
    Message('note_off', channel=11, note=28, velocity=64, time=192),
    Message('note_on', channel=11, note=30, velocity=120, time=0),
    Message('note_off', channel=11, note=30, velocity=64, time=192),
    Message('note_on', channel=11, note=31, velocity=120, time=0),
    Message('note_off', channel=11, note=31, velocity=64, time=192),
    Message('note_on', channel=11, note=30, velocity=120, time=0),
    Message('note_off', channel=11, note=30, velocity=64, time=192),
    Message('note_on', channel=11, note=28, velocity=127, time=0),
    Message('note_off', channel=11, note=28, velocity=64, time=384),
    Message('note_on', channel=11, note=28, velocity=120, time=0),
    Message('note_off', channel=11, note=28, velocity=64, time=192),
    Message('note_on', channel=11, note=28, velocity=120, time=0),
    Message('note_off', channel=11, note=28, velocity=64, time=192),
    Message('note_on', channel=11, note=28, velocity=120, time=0),
    Message('note_off', channel=11, note=28, velocity=64, time=192),
    Message('note_on', channel=11, note=28, velocity=120, time=0),
    Message('note_off', channel=11, note=28, velocity=64, time=192),
    Message('note_on', channel=11, note=28, velocity=120, time=0),
    Message('note_off', channel=11, note=28, velocity=64, time=192),
    Message('note_on', channel=11, note=28, velocity=120, time=0),
    Message('note_off', channel=11, note=28, velocity=64, time=192),
    Message('note_on', channel=11, note=29, velocity=120, time=0),
    Message('note_off', channel=11, note=29, velocity=64, time=192),
    Message('note_on', channel=11, note=28, velocity=120, time=0),
    Message('note_off', channel=11, note=28, velocity=64, time=192),
    Message('note_on', channel=11, note=28, velocity=120, time=0),
    Message('note_off', channel=11, note=28, velocity=64, time=192),
    Message('note_on', channel=11, note=28, velocity=120, time=0),
    Message('note_off', channel=11, note=28, velocity=64, time=192),
    Message('note_on', channel=11, note=28, velocity=120, time=0),
    Message('note_off', channel=11, note=28, velocity=64, time=192),
    Message('note_on', channel=11, note=28, velocity=120, time=0),
    Message('note_off', channel=11, note=28, velocity=64, time=192),
    Message('note_on', channel=11, note=31, velocity=120, time=0),
    Message('note_off', channel=11, note=31, velocity=64, time=192),
    Message('note_on', channel=11, note=28, velocity=120, time=0),
    Message('note_off', channel=11, note=28, velocity=64, time=192),
    Message('note_on', channel=11, note=29, velocity=120, time=0),
    Message('note_off', channel=11, note=29, velocity=64, time=192),
    Message('note_on', channel=11, note=28, velocity=120, time=0),
    Message('note_off', channel=11, note=28, velocity=64, time=192),
    Message('note_on', channel=11, note=28, velocity=120, time=0),
    Message('note_off', channel=11, note=28, velocity=64, time=192),
    Message('note_on', channel=11, note=28, velocity=120, time=0),
    Message('note_off', channel=11, note=28, velocity=64, time=192),
    Message('note_on', channel=11, note=28, velocity=120, time=0),
    Message('note_off', channel=11, note=28, velocity=64, time=192),
    Message('note_on', channel=11, note=28, velocity=120, time=0),
    Message('note_off', channel=11, note=28, velocity=64, time=192),
    Message('note_on', channel=11, note=28, velocity=120, time=0),
    Message('note_off', channel=11, note=28, velocity=64, time=192),
    Message('note_on', channel=11, note=28, velocity=120, time=0),
    Message('note_off', channel=11, note=28, velocity=64, time=192),
    Message('note_on', channel=11, note=31, velocity=127, time=0),
    Message('note_off', channel=11, note=31, velocity=64, time=384),
    Message('note_on', channel=11, note=28, velocity=120, time=0),
    Message('note_off', channel=11, note=28, velocity=64, time=192),
    Message('note_on', channel=11, note=30, velocity=120, time=0),
    Message('note_off', channel=11, note=30, velocity=64, time=192),
    Message('note_on', channel=11, note=28, velocity=120, time=0),
    Message('note_off', channel=11, note=28, velocity=64, time=192),
    Message('note_on', channel=11, note=30, velocity=120, time=0),
    Message('note_off', channel=11, note=30, velocity=64, time=192),
    Message('note_on', channel=11, note=31, velocity=120, time=0),
    Message('note_off', channel=11, note=31, velocity=64, time=192),
    Message('note_on', channel=11, note=28, velocity=120, time=0),
    Message('note_off', channel=11, note=28, velocity=64, time=192),
    Message('note_on', channel=11, note=30, velocity=120, time=0),
    Message('note_off', channel=11, note=30, velocity=64, time=960),
    Message('note_on', channel=11, note=35, velocity=120, time=0),
    Message('note_off', channel=11, note=35, velocity=64, time=576),
    Message('note_on', channel=11, note=30, velocity=120, time=0),
    Message('note_off', channel=11, note=30, velocity=64, time=960),
    Message('note_on', channel=11, note=35, velocity=120, time=0),
    Message('note_off', channel=11, note=35, velocity=64, time=576),
    Message('note_on', channel=11, note=30, velocity=120, time=0),
    Message('note_off', channel=11, note=30, velocity=64, time=960),
    Message('note_on', channel=11, note=35, velocity=120, time=0),
    Message('note_off', channel=11, note=35, velocity=64, time=576),
    Message('note_on', channel=11, note=30, velocity=120, time=0),
    Message('note_off', channel=11, note=30, velocity=64, time=192),
    Message('note_on', channel=11, note=30, velocity=120, time=0),
    Message('note_off', channel=11, note=30, velocity=64, time=192),
    Message('note_on', channel=11, note=30, velocity=120, time=0),
    Message('note_off', channel=11, note=30, velocity=64, time=192),
    Message('note_on', channel=11, note=30, velocity=120, time=0),
    Message('note_off', channel=11, note=30, velocity=64, time=192),
    Message('note_on', channel=11, note=30, velocity=120, time=0),
    Message('note_off', channel=11, note=30, velocity=64, time=192),
    Message('note_on', channel=11, note=30, velocity=120, time=0),
    Message('note_off', channel=11, note=30, velocity=64, time=192),
    Message('note_on', channel=11, note=28, velocity=120, time=0),
    Message('note_off', channel=11, note=28, velocity=64, time=192),
    Message('note_on', channel=11, note=28, velocity=120, time=0),
    Message('note_off', channel=11, note=28, velocity=64, time=192),
    Message('note_on', channel=11, note=29, velocity=120, time=0),
    Message('note_off', channel=11, note=29, velocity=64, time=192),
    Message('note_on', channel=11, note=30, velocity=120, time=0),
    Message('note_off', channel=11, note=30, velocity=64, time=192),
    Message('note_on', channel=11, note=30, velocity=120, time=0),
    Message('note_off', channel=11, note=30, velocity=64, time=192),
    Message('note_on', channel=11, note=30, velocity=120, time=0),
    Message('note_off', channel=11, note=30, velocity=64, time=192),
    Message('note_on', channel=11, note=36, velocity=120, time=0),
    Message('note_off', channel=11, note=36, velocity=64, time=192),
    Message('note_on', channel=11, note=35, velocity=120, time=0),
    Message('note_off', channel=11, note=35, velocity=64, time=192),
    Message('note_on', channel=11, note=35, velocity=120, time=0),
    Message('note_off', channel=11, note=35, velocity=64, time=192),
    Message('note_on', channel=11, note=35, velocity=120, time=0),
    Message('note_off', channel=11, note=35, velocity=64, time=192),
    Message('note_on', channel=11, note=30, velocity=120, time=0),
    Message('note_off', channel=11, note=30, velocity=64, time=384),
    Message('note_on', channel=11, note=30, velocity=120, time=0),
    Message('note_off', channel=11, note=30, velocity=64, time=192),
    Message('note_on', channel=11, note=30, velocity=120, time=0),
    Message('note_off', channel=11, note=30, velocity=64, time=192),
    Message('note_on', channel=11, note=36, velocity=120, time=0),
    Message('note_off', channel=11, note=36, velocity=64, time=192),
    Message('note_on', channel=11, note=35, velocity=120, time=0),
    Message('note_off', channel=11, note=35, velocity=64, time=192),
    Message('note_on', channel=11, note=35, velocity=120, time=0),
    Message('note_off', channel=11, note=35, velocity=64, time=192),
    Message('note_on', channel=11, note=35, velocity=120, time=0),
    Message('note_off', channel=11, note=35, velocity=64, time=192),
    Message('note_on', channel=11, note=30, velocity=120, time=0),
    Message('note_off', channel=11, note=30, velocity=64, time=192),
    Message('note_on', channel=11, note=30, velocity=120, time=0),
    Message('note_off', channel=11, note=30, velocity=64, time=192),
    Message('note_on', channel=11, note=30, velocity=120, time=0),
    Message('note_off', channel=11, note=30, velocity=64, time=192),
    Message('note_on', channel=11, note=30, velocity=120, time=0),
    Message('note_off', channel=11, note=30, velocity=64, time=192),
    Message('note_on', channel=11, note=36, velocity=120, time=0),
    Message('note_off', channel=11, note=36, velocity=64, time=192),
    Message('note_on', channel=11, note=35, velocity=120, time=0),
    Message('note_off', channel=11, note=35, velocity=64, time=192),
    Message('note_on', channel=11, note=35, velocity=120, time=0),
    Message('note_off', channel=11, note=35, velocity=64, time=192),
    Message('note_on', channel=11, note=35, velocity=120, time=0),
    Message('note_off', channel=11, note=35, velocity=64, time=192),
    Message('note_on', channel=11, note=28, velocity=127, time=0),
    Message('note_off', channel=11, note=28, velocity=64, time=384),
    Message('note_on', channel=11, note=33, velocity=120, time=0),
    Message('note_off', channel=11, note=33, velocity=64, time=96),
    Message('note_on', channel=11, note=35, velocity=120, time=0),
    Message('note_off', channel=11, note=35, velocity=64, time=96),
    Message('note_on', channel=11, note=38, velocity=120, time=0),
    Message('note_off', channel=11, note=38, velocity=64, time=192),
    Message('note_on', channel=11, note=35, velocity=120, time=0),
    Message('note_off', channel=11, note=35, velocity=64, time=192),
    Message('note_on', channel=11, note=40, velocity=120, time=0),
    Message('note_off', channel=11, note=40, velocity=64, time=192),
    Message('note_on', channel=11, note=38, velocity=120, time=0),
    Message('note_off', channel=11, note=38, velocity=64, time=192),
    Message('note_on', channel=11, note=35, velocity=120, time=0),
    Message('note_off', channel=11, note=35, velocity=64, time=192),
    Message('note_on', channel=11, note=31, velocity=120, time=0),
    Message('note_off', channel=11, note=31, velocity=64, time=192),
    Message('note_on', channel=11, note=30, velocity=127, time=0),
    Message('note_off', channel=11, note=30, velocity=64, time=384),
    Message('note_on', channel=11, note=30, velocity=120, time=0),
    Message('note_off', channel=11, note=30, velocity=64, time=192),
    Message('note_on', channel=11, note=36, velocity=120, time=0),
    Message('note_off', channel=11, note=36, velocity=64, time=192),
    Message('note_on', channel=11, note=35, velocity=120, time=0),
    Message('note_off', channel=11, note=35, velocity=64, time=192),
    Message('note_on', channel=11, note=35, velocity=120, time=0),
    Message('note_off', channel=11, note=35, velocity=64, time=192),
    Message('note_on', channel=11, note=35, velocity=120, time=0),
    Message('note_off', channel=11, note=35, velocity=64, time=192),
    Message('note_on', channel=11, note=28, velocity=127, time=0),
    Message('note_off', channel=11, note=28, velocity=64, time=192),
    Message('note_on', channel=11, note=28, velocity=120, time=0),
    Message('note_off', channel=11, note=28, velocity=64, time=192),
    Message('note_on', channel=11, note=28, velocity=120, time=0),
    Message('note_off', channel=11, note=28, velocity=64, time=192),
    Message('note_on', channel=11, note=30, velocity=120, time=0),
    Message('note_off', channel=11, note=30, velocity=64, time=192),
    Message('note_on', channel=11, note=28, velocity=120, time=0),
    Message('note_off', channel=11, note=28, velocity=64, time=192),
    Message('note_on', channel=11, note=31, velocity=120, time=0),
    Message('note_off', channel=11, note=31, velocity=64, time=192),
    Message('note_on', channel=11, note=28, velocity=120, time=0),
    Message('note_off', channel=11, note=28, velocity=64, time=192),
    Message('note_on', channel=11, note=33, velocity=120, time=0),
    Message('note_off', channel=11, note=33, velocity=64, time=192),
    Message('note_on', channel=11, note=28, velocity=120, time=0),
    Message('note_off', channel=11, note=28, velocity=64, time=192),
    Message('note_on', channel=11, note=31, velocity=120, time=0),
    Message('note_off', channel=11, note=31, velocity=64, time=191),
    Message('note_on', channel=11, note=28, velocity=127, time=1153),
    Message('note_off', channel=11, note=28, velocity=64, time=384),
    Message('note_on', channel=11, note=28, velocity=120, time=0),
    Message('note_off', channel=11, note=28, velocity=64, time=192),
    Message('note_on', channel=11, note=28, velocity=120, time=0),
    Message('note_off', channel=11, note=28, velocity=64, time=192),
    Message('note_on', channel=11, note=34, velocity=120, time=0),
    Message('note_off', channel=11, note=34, velocity=64, time=192),
    Message('note_on', channel=11, note=33, velocity=127, time=0),
    Message('note_off', channel=11, note=33, velocity=64, time=192),
    Message('note_on', channel=11, note=33, velocity=120, time=0),
    Message('note_off', channel=11, note=33, velocity=64, time=192),
    Message('note_on', channel=11, note=28, velocity=120, time=0),
    Message('note_off', channel=11, note=28, velocity=64, time=192),
    Message('note_on', channel=11, note=28, velocity=127, time=0),
    Message('note_off', channel=11, note=28, velocity=64, time=384),
    Message('note_on', channel=11, note=28, velocity=120, time=0),
    Message('note_off', channel=11, note=28, velocity=64, time=192),
    Message('note_on', channel=11, note=28, velocity=120, time=0),
    Message('note_off', channel=11, note=28, velocity=64, time=192),
    Message('note_on', channel=11, note=34, velocity=120, time=0),
    Message('note_off', channel=11, note=34, velocity=64, time=192),
    Message('note_on', channel=11, note=33, velocity=127, time=0),
    Message('note_off', channel=11, note=33, velocity=64, time=192),
    Message('note_on', channel=11, note=33, velocity=120, time=0),
    Message('note_off', channel=11, note=33, velocity=64, time=192),
    Message('note_on', channel=11, note=28, velocity=120, time=0),
    Message('note_off', channel=11, note=28, velocity=64, time=192),
    Message('note_on', channel=11, note=28, velocity=127, time=0),
    Message('note_off', channel=11, note=28, velocity=64, time=384),
    Message('note_on', channel=11, note=28, velocity=120, time=0),
    Message('note_off', channel=11, note=28, velocity=64, time=192),
    Message('note_on', channel=11, note=28, velocity=120, time=0),
    Message('note_off', channel=11, note=28, velocity=64, time=192),
    Message('note_on', channel=11, note=34, velocity=120, time=0),
    Message('note_off', channel=11, note=34, velocity=64, time=192),
    Message('note_on', channel=11, note=33, velocity=127, time=0),
    Message('note_off', channel=11, note=33, velocity=64, time=384),
    Message('note_on', channel=11, note=28, velocity=120, time=0),
    Message('note_off', channel=11, note=28, velocity=64, time=192),
    Message('note_on', channel=11, note=31, velocity=127, time=0),
    Message('note_off', channel=11, note=31, velocity=64, time=384),
    Message('note_on', channel=11, note=28, velocity=120, time=0),
    Message('note_off', channel=11, note=28, velocity=64, time=192),
    Message('note_on', channel=11, note=30, velocity=120, time=0),
    Message('note_off', channel=11, note=30, velocity=64, time=192),
    Message('note_on', channel=11, note=28, velocity=120, time=0),
    Message('note_off', channel=11, note=28, velocity=64, time=192),
    Message('note_on', channel=11, note=30, velocity=120, time=0),
    Message('note_off', channel=11, note=30, velocity=64, time=192),
    Message('note_on', channel=11, note=31, velocity=120, time=0),
    Message('note_off', channel=11, note=31, velocity=64, time=192),
    Message('note_on', channel=11, note=30, velocity=120, time=0),
    Message('note_off', channel=11, note=30, velocity=64, time=192),
    Message('note_on', channel=11, note=28, velocity=127, time=0),
    Message('note_off', channel=11, note=28, velocity=64, time=384),
    Message('note_on', channel=11, note=28, velocity=120, time=0),
    Message('note_off', channel=11, note=28, velocity=64, time=192),
    Message('note_on', channel=11, note=28, velocity=120, time=0),
    Message('note_off', channel=11, note=28, velocity=64, time=192),
    Message('note_on', channel=11, note=34, velocity=120, time=0),
    Message('note_off', channel=11, note=34, velocity=64, time=192),
    Message('note_on', channel=11, note=33, velocity=127, time=0),
    Message('note_off', channel=11, note=33, velocity=64, time=192),
    Message('note_on', channel=11, note=33, velocity=120, time=0),
    Message('note_off', channel=11, note=33, velocity=64, time=192),
    Message('note_on', channel=11, note=28, velocity=120, time=0),
    Message('note_off', channel=11, note=28, velocity=64, time=192),
    Message('note_on', channel=11, note=28, velocity=127, time=0),
    Message('note_off', channel=11, note=28, velocity=64, time=384),
    Message('note_on', channel=11, note=28, velocity=120, time=0),
    Message('note_off', channel=11, note=28, velocity=64, time=192),
    Message('note_on', channel=11, note=28, velocity=120, time=0),
    Message('note_off', channel=11, note=28, velocity=64, time=192),
    Message('note_on', channel=11, note=34, velocity=120, time=0),
    Message('note_off', channel=11, note=34, velocity=64, time=192),
    Message('note_on', channel=11, note=33, velocity=127, time=0),
    Message('note_off', channel=11, note=33, velocity=64, time=192),
    Message('note_on', channel=11, note=33, velocity=120, time=0),
    Message('note_off', channel=11, note=33, velocity=64, time=192),
    Message('note_on', channel=11, note=28, velocity=120, time=0),
    Message('note_off', channel=11, note=28, velocity=64, time=192),
    Message('note_on', channel=11, note=28, velocity=127, time=0),
    Message('note_off', channel=11, note=28, velocity=64, time=384),
    Message('note_on', channel=11, note=28, velocity=120, time=0),
    Message('note_off', channel=11, note=28, velocity=64, time=192),
    Message('note_on', channel=11, note=28, velocity=120, time=0),
    Message('note_off', channel=11, note=28, velocity=64, time=192),
    Message('note_on', channel=11, note=34, velocity=120, time=0),
    Message('note_off', channel=11, note=34, velocity=64, time=192),
    Message('note_on', channel=11, note=33, velocity=127, time=0),
    Message('note_off', channel=11, note=33, velocity=64, time=384),
    Message('note_on', channel=11, note=28, velocity=120, time=0),
    Message('note_off', channel=11, note=28, velocity=64, time=192),
    Message('note_on', channel=11, note=31, velocity=127, time=0),
    Message('note_off', channel=11, note=31, velocity=64, time=384),
    Message('note_on', channel=11, note=28, velocity=120, time=0),
    Message('note_off', channel=11, note=28, velocity=64, time=192),
    Message('note_on', channel=11, note=30, velocity=120, time=0),
    Message('note_off', channel=11, note=30, velocity=64, time=192),
    Message('note_on', channel=11, note=28, velocity=120, time=0),
    Message('note_off', channel=11, note=28, velocity=64, time=192),
    Message('note_on', channel=11, note=30, velocity=120, time=0),
    Message('note_off', channel=11, note=30, velocity=64, time=192),
    Message('note_on', channel=11, note=31, velocity=120, time=0),
    Message('note_off', channel=11, note=31, velocity=64, time=192),
    Message('note_on', channel=11, note=30, velocity=120, time=0),
    Message('note_off', channel=11, note=30, velocity=64, time=192),
    Message('note_on', channel=11, note=28, velocity=127, time=0),
    Message('note_off', channel=11, note=28, velocity=64, time=384),
    Message('note_on', channel=11, note=28, velocity=120, time=0),
    Message('note_off', channel=11, note=28, velocity=64, time=192),
    Message('note_on', channel=11, note=28, velocity=120, time=0),
    Message('note_off', channel=11, note=28, velocity=64, time=192),
    Message('note_on', channel=11, note=28, velocity=120, time=0),
    Message('note_off', channel=11, note=28, velocity=64, time=192),
    Message('note_on', channel=11, note=28, velocity=120, time=0),
    Message('note_off', channel=11, note=28, velocity=64, time=192),
    Message('note_on', channel=11, note=28, velocity=120, time=0),
    Message('note_off', channel=11, note=28, velocity=64, time=192),
    Message('note_on', channel=11, note=28, velocity=120, time=0),
    Message('note_off', channel=11, note=28, velocity=64, time=192),
    Message('note_on', channel=11, note=29, velocity=120, time=0),
    Message('note_off', channel=11, note=29, velocity=64, time=192),
    Message('note_on', channel=11, note=28, velocity=120, time=0),
    Message('note_off', channel=11, note=28, velocity=64, time=192),
    Message('note_on', channel=11, note=28, velocity=120, time=0),
    Message('note_off', channel=11, note=28, velocity=64, time=192),
    Message('note_on', channel=11, note=28, velocity=120, time=0),
    Message('note_off', channel=11, note=28, velocity=64, time=192),
    Message('note_on', channel=11, note=28, velocity=120, time=0),
    Message('note_off', channel=11, note=28, velocity=64, time=192),
    Message('note_on', channel=11, note=28, velocity=120, time=0),
    Message('note_off', channel=11, note=28, velocity=64, time=192),
    Message('note_on', channel=11, note=28, velocity=120, time=0),
    Message('note_off', channel=11, note=28, velocity=64, time=192),
    Message('note_on', channel=11, note=28, velocity=120, time=0),
    Message('note_off', channel=11, note=28, velocity=64, time=192),
    Message('note_on', channel=11, note=29, velocity=120, time=0),
    Message('note_off', channel=11, note=29, velocity=64, time=192),
    Message('note_on', channel=11, note=28, velocity=120, time=0),
    Message('note_off', channel=11, note=28, velocity=64, time=192),
    Message('note_on', channel=11, note=28, velocity=120, time=0),
    Message('note_off', channel=11, note=28, velocity=64, time=192),
    Message('note_on', channel=11, note=28, velocity=120, time=0),
    Message('note_off', channel=11, note=28, velocity=64, time=192),
    Message('note_on', channel=11, note=28, velocity=120, time=0),
    Message('note_off', channel=11, note=28, velocity=64, time=192),
    Message('note_on', channel=11, note=28, velocity=120, time=0),
    Message('note_off', channel=11, note=28, velocity=64, time=192),
    Message('note_on', channel=11, note=28, velocity=120, time=0),
    Message('note_off', channel=11, note=28, velocity=64, time=192),
    Message('note_on', channel=11, note=28, velocity=120, time=0),
    Message('note_off', channel=11, note=28, velocity=64, time=192),
    Message('note_on', channel=11, note=31, velocity=127, time=0),
    Message('note_off', channel=11, note=31, velocity=64, time=384),
    Message('note_on', channel=11, note=28, velocity=120, time=0),
    Message('note_off', channel=11, note=28, velocity=64, time=192),
    Message('note_on', channel=11, note=30, velocity=120, time=0),
    Message('note_off', channel=11, note=30, velocity=64, time=192),
    Message('note_on', channel=11, note=28, velocity=120, time=0),
    Message('note_off', channel=11, note=28, velocity=64, time=192),
    Message('note_on', channel=11, note=30, velocity=120, time=0),
    Message('note_off', channel=11, note=30, velocity=64, time=192),
    Message('note_on', channel=11, note=31, velocity=120, time=0),
    Message('note_off', channel=11, note=31, velocity=64, time=192),
    Message('note_on', channel=11, note=30, velocity=120, time=0),
    Message('note_off', channel=11, note=30, velocity=64, time=192),
    Message('note_on', channel=11, note=28, velocity=127, time=0),
    Message('note_off', channel=11, note=28, velocity=64, time=384),
    Message('note_on', channel=11, note=28, velocity=120, time=0),
    Message('note_off', channel=11, note=28, velocity=64, time=192),
    Message('note_on', channel=11, note=28, velocity=120, time=0),
    Message('note_off', channel=11, note=28, velocity=64, time=192),
    Message('note_on', channel=11, note=28, velocity=120, time=0),
    Message('note_off', channel=11, note=28, velocity=64, time=192),
    Message('note_on', channel=11, note=28, velocity=120, time=0),
    Message('note_off', channel=11, note=28, velocity=64, time=192),
    Message('note_on', channel=11, note=28, velocity=120, time=0),
    Message('note_off', channel=11, note=28, velocity=64, time=192),
    Message('note_on', channel=11, note=28, velocity=120, time=0),
    Message('note_off', channel=11, note=28, velocity=64, time=192),
    Message('note_on', channel=11, note=29, velocity=120, time=0),
    Message('note_off', channel=11, note=29, velocity=64, time=192),
    Message('note_on', channel=11, note=28, velocity=120, time=0),
    Message('note_off', channel=11, note=28, velocity=64, time=192),
    Message('note_on', channel=11, note=28, velocity=120, time=0),
    Message('note_off', channel=11, note=28, velocity=64, time=192),
    Message('note_on', channel=11, note=28, velocity=120, time=0),
    Message('note_off', channel=11, note=28, velocity=64, time=192),
    Message('note_on', channel=11, note=28, velocity=120, time=0),
    Message('note_off', channel=11, note=28, velocity=64, time=192),
    Message('note_on', channel=11, note=28, velocity=120, time=0),
    Message('note_off', channel=11, note=28, velocity=64, time=192),
    Message('note_on', channel=11, note=31, velocity=120, time=0),
    Message('note_off', channel=11, note=31, velocity=64, time=192),
    Message('note_on', channel=11, note=28, velocity=120, time=0),
    Message('note_off', channel=11, note=28, velocity=64, time=192),
    Message('note_on', channel=11, note=29, velocity=120, time=0),
    Message('note_off', channel=11, note=29, velocity=64, time=192),
    Message('note_on', channel=11, note=28, velocity=120, time=0),
    Message('note_off', channel=11, note=28, velocity=64, time=192),
    Message('note_on', channel=11, note=28, velocity=120, time=0),
    Message('note_off', channel=11, note=28, velocity=64, time=192),
    Message('note_on', channel=11, note=28, velocity=120, time=0),
    Message('note_off', channel=11, note=28, velocity=64, time=192),
    Message('note_on', channel=11, note=28, velocity=120, time=0),
    Message('note_off', channel=11, note=28, velocity=64, time=192),
    Message('note_on', channel=11, note=28, velocity=120, time=0),
    Message('note_off', channel=11, note=28, velocity=64, time=192),
    Message('note_on', channel=11, note=28, velocity=120, time=0),
    Message('note_off', channel=11, note=28, velocity=64, time=192),
    Message('note_on', channel=11, note=28, velocity=120, time=0),
    Message('note_off', channel=11, note=28, velocity=64, time=192),
    Message('note_on', channel=11, note=31, velocity=127, time=0),
    Message('note_off', channel=11, note=31, velocity=64, time=384),
    Message('note_on', channel=11, note=28, velocity=120, time=0),
    Message('note_off', channel=11, note=28, velocity=64, time=192),
    Message('note_on', channel=11, note=30, velocity=120, time=0),
    Message('note_off', channel=11, note=30, velocity=64, time=192),
    Message('note_on', channel=11, note=28, velocity=120, time=0),
    Message('note_off', channel=11, note=28, velocity=64, time=192),
    Message('note_on', channel=11, note=30, velocity=120, time=0),
    Message('note_off', channel=11, note=30, velocity=64, time=192),
    Message('note_on', channel=11, note=31, velocity=120, time=0),
    Message('note_off', channel=11, note=31, velocity=64, time=192),
    Message('note_on', channel=11, note=28, velocity=120, time=0),
    Message('note_off', channel=11, note=28, velocity=64, time=192),
    Message('note_on', channel=11, note=30, velocity=120, time=0),
    Message('note_off', channel=11, note=30, velocity=64, time=960),
    Message('note_on', channel=11, note=35, velocity=120, time=0),
    Message('note_off', channel=11, note=35, velocity=64, time=576),
    Message('note_on', channel=11, note=30, velocity=120, time=0),
    Message('note_off', channel=11, note=30, velocity=64, time=960),
    Message('note_on', channel=11, note=35, velocity=120, time=0),
    Message('note_off', channel=11, note=35, velocity=64, time=576),
    Message('note_on', channel=11, note=30, velocity=120, time=0),
    Message('note_off', channel=11, note=30, velocity=64, time=960),
    Message('note_on', channel=11, note=35, velocity=120, time=0),
    Message('note_off', channel=11, note=35, velocity=64, time=576),
    Message('note_on', channel=11, note=30, velocity=120, time=0),
    Message('note_off', channel=11, note=30, velocity=64, time=192),
    Message('note_on', channel=11, note=30, velocity=120, time=0),
    Message('note_off', channel=11, note=30, velocity=64, time=192),
    Message('note_on', channel=11, note=30, velocity=120, time=0),
    Message('note_off', channel=11, note=30, velocity=64, time=192),
    Message('note_on', channel=11, note=30, velocity=120, time=0),
    Message('note_off', channel=11, note=30, velocity=64, time=192),
    Message('note_on', channel=11, note=30, velocity=120, time=0),
    Message('note_off', channel=11, note=30, velocity=64, time=192),
    Message('note_on', channel=11, note=30, velocity=120, time=0),
    Message('note_off', channel=11, note=30, velocity=64, time=192),
    Message('note_on', channel=11, note=28, velocity=120, time=0),
    Message('note_off', channel=11, note=28, velocity=64, time=192),
    Message('note_on', channel=11, note=28, velocity=120, time=0),
    Message('note_off', channel=11, note=28, velocity=64, time=192),
    Message('note_on', channel=11, note=29, velocity=120, time=0),
    Message('note_off', channel=11, note=29, velocity=64, time=192),
    Message('note_on', channel=11, note=30, velocity=120, time=0),
    Message('note_off', channel=11, note=30, velocity=64, time=192),
    Message('note_on', channel=11, note=30, velocity=120, time=0),
    Message('note_off', channel=11, note=30, velocity=64, time=192),
    Message('note_on', channel=11, note=30, velocity=120, time=0),
    Message('note_off', channel=11, note=30, velocity=64, time=192),
    Message('note_on', channel=11, note=36, velocity=120, time=0),
    Message('note_off', channel=11, note=36, velocity=64, time=192),
    Message('note_on', channel=11, note=35, velocity=120, time=0),
    Message('note_off', channel=11, note=35, velocity=64, time=192),
    Message('note_on', channel=11, note=35, velocity=120, time=0),
    Message('note_off', channel=11, note=35, velocity=64, time=192),
    Message('note_on', channel=11, note=35, velocity=120, time=0),
    Message('note_off', channel=11, note=35, velocity=64, time=192),
    Message('note_on', channel=11, note=30, velocity=120, time=0),
    Message('note_off', channel=11, note=30, velocity=64, time=384),
    Message('note_on', channel=11, note=30, velocity=120, time=0),
    Message('note_off', channel=11, note=30, velocity=64, time=192),
    Message('note_on', channel=11, note=30, velocity=120, time=0),
    Message('note_off', channel=11, note=30, velocity=64, time=192),
    Message('note_on', channel=11, note=36, velocity=120, time=0),
    Message('note_off', channel=11, note=36, velocity=64, time=192),
    Message('note_on', channel=11, note=35, velocity=120, time=0),
    Message('note_off', channel=11, note=35, velocity=64, time=192),
    Message('note_on', channel=11, note=35, velocity=120, time=0),
    Message('note_off', channel=11, note=35, velocity=64, time=192),
    Message('note_on', channel=11, note=35, velocity=120, time=0),
    Message('note_off', channel=11, note=35, velocity=64, time=192),
    Message('note_on', channel=11, note=30, velocity=120, time=0),
    Message('note_off', channel=11, note=30, velocity=64, time=192),
    Message('note_on', channel=11, note=30, velocity=120, time=0),
    Message('note_off', channel=11, note=30, velocity=64, time=192),
    Message('note_on', channel=11, note=30, velocity=120, time=0),
    Message('note_off', channel=11, note=30, velocity=64, time=192),
    Message('note_on', channel=11, note=30, velocity=120, time=0),
    Message('note_off', channel=11, note=30, velocity=64, time=192),
    Message('note_on', channel=11, note=36, velocity=120, time=0),
    Message('note_off', channel=11, note=36, velocity=64, time=192),
    Message('note_on', channel=11, note=35, velocity=120, time=0),
    Message('note_off', channel=11, note=35, velocity=64, time=192),
    Message('note_on', channel=11, note=35, velocity=120, time=0),
    Message('note_off', channel=11, note=35, velocity=64, time=192),
    Message('note_on', channel=11, note=35, velocity=120, time=0),
    Message('note_off', channel=11, note=35, velocity=64, time=192),
    Message('note_on', channel=11, note=28, velocity=127, time=0),
    Message('note_off', channel=11, note=28, velocity=64, time=384),
    Message('note_on', channel=11, note=33, velocity=120, time=0),
    Message('note_off', channel=11, note=33, velocity=64, time=96),
    Message('note_on', channel=11, note=35, velocity=120, time=0),
    Message('note_off', channel=11, note=35, velocity=64, time=96),
    Message('note_on', channel=11, note=38, velocity=120, time=0),
    Message('note_off', channel=11, note=38, velocity=64, time=192),
    Message('note_on', channel=11, note=35, velocity=120, time=0),
    Message('note_off', channel=11, note=35, velocity=64, time=192),
    Message('note_on', channel=11, note=40, velocity=120, time=0),
    Message('note_off', channel=11, note=40, velocity=64, time=192),
    Message('note_on', channel=11, note=38, velocity=120, time=0),
    Message('note_off', channel=11, note=38, velocity=64, time=192),
    Message('note_on', channel=11, note=35, velocity=120, time=0),
    Message('note_off', channel=11, note=35, velocity=64, time=192),
    Message('note_on', channel=11, note=31, velocity=120, time=0),
    Message('note_off', channel=11, note=31, velocity=64, time=192),
    Message('note_on', channel=11, note=30, velocity=127, time=0),
    Message('note_off', channel=11, note=30, velocity=64, time=384),
    Message('note_on', channel=11, note=30, velocity=120, time=0),
    Message('note_off', channel=11, note=30, velocity=64, time=192),
    Message('note_on', channel=11, note=36, velocity=120, time=0),
    Message('note_off', channel=11, note=36, velocity=64, time=192),
    Message('note_on', channel=11, note=35, velocity=120, time=0),
    Message('note_off', channel=11, note=35, velocity=64, time=192),
    Message('note_on', channel=11, note=35, velocity=120, time=0),
    Message('note_off', channel=11, note=35, velocity=64, time=192),
    Message('note_on', channel=11, note=35, velocity=120, time=0),
    Message('note_off', channel=11, note=35, velocity=64, time=192),
    Message('note_on', channel=11, note=28, velocity=127, time=0),
    Message('note_off', channel=11, note=28, velocity=64, time=192),
    Message('note_on', channel=11, note=28, velocity=120, time=0),
    Message('note_off', channel=11, note=28, velocity=64, time=192),
    Message('note_on', channel=11, note=28, velocity=120, time=0),
    Message('note_off', channel=11, note=28, velocity=64, time=192),
    Message('note_on', channel=11, note=30, velocity=120, time=0),
    Message('note_off', channel=11, note=30, velocity=64, time=192),
    Message('note_on', channel=11, note=28, velocity=120, time=0),
    Message('note_off', channel=11, note=28, velocity=64, time=192),
    Message('note_on', channel=11, note=31, velocity=120, time=0),
    Message('note_off', channel=11, note=31, velocity=64, time=192),
    Message('note_on', channel=11, note=28, velocity=120, time=0),
    Message('note_off', channel=11, note=28, velocity=64, time=192),
    Message('note_on', channel=11, note=33, velocity=120, time=0),
    Message('note_off', channel=11, note=33, velocity=64, time=192),
    Message('note_on', channel=11, note=28, velocity=120, time=0),
    Message('note_off', channel=11, note=28, velocity=64, time=192),
    Message('note_on', channel=11, note=31, velocity=120, time=0),
    Message('note_off', channel=11, note=31, velocity=64, time=191),
    Message('note_on', channel=11, note=28, velocity=127, time=1153),
    Message('note_off', channel=11, note=28, velocity=64, time=384),
    Message('note_on', channel=11, note=28, velocity=120, time=0),
    Message('note_off', channel=11, note=28, velocity=64, time=192),
    Message('note_on', channel=11, note=28, velocity=120, time=0),
    Message('note_off', channel=11, note=28, velocity=64, time=192),
    Message('note_on', channel=11, note=28, velocity=120, time=0),
    Message('note_off', channel=11, note=28, velocity=64, time=192),
    Message('note_on', channel=11, note=28, velocity=120, time=0),
    Message('note_on', channel=11, note=40, velocity=120, time=9),
    Message('note_off', channel=11, note=28, velocity=64, time=183),
    Message('note_on', channel=11, note=28, velocity=120, time=0),
    Message('note_off', channel=11, note=40, velocity=64, time=9),
    Message('note_on', channel=11, note=40, velocity=120, time=0),
    Message('note_off', channel=11, note=28, velocity=64, time=183),
    Message('note_on', channel=11, note=28, velocity=120, time=0),
    Message('note_off', channel=11, note=40, velocity=64, time=9),
    Message('note_on', channel=11, note=40, velocity=120, time=0),
    Message('note_off', channel=11, note=28, velocity=64, time=183),
    Message('note_on', channel=11, note=28, velocity=127, time=0),
    Message('note_off', channel=11, note=40, velocity=64, time=9),
    Message('note_off', channel=11, note=28, velocity=64, time=375),
    Message('note_on', channel=11, note=28, velocity=120, time=0),
    Message('note_off', channel=11, note=28, velocity=64, time=192),
    Message('note_on', channel=11, note=28, velocity=120, time=0),
    Message('note_off', channel=11, note=28, velocity=64, time=192),
    Message('note_on', channel=11, note=34, velocity=120, time=0),
    Message('note_off', channel=11, note=34, velocity=64, time=192),
    Message('note_on', channel=11, note=33, velocity=127, time=0),
    Message('note_off', channel=11, note=33, velocity=64, time=192),
    Message('note_on', channel=11, note=33, velocity=120, time=0),
    Message('note_off', channel=11, note=33, velocity=64, time=192),
    Message('note_on', channel=11, note=28, velocity=120, time=0),
    Message('note_off', channel=11, note=28, velocity=64, time=192),
    Message('note_on', channel=11, note=28, velocity=127, time=0),
    Message('note_off', channel=11, note=28, velocity=64, time=384),
    Message('note_on', channel=11, note=28, velocity=120, time=0),
    Message('note_off', channel=11, note=28, velocity=64, time=192),
    Message('note_on', channel=11, note=28, velocity=120, time=0),
    Message('note_off', channel=11, note=28, velocity=64, time=192),
    Message('note_on', channel=11, note=34, velocity=120, time=0),
    Message('note_off', channel=11, note=34, velocity=64, time=192),
    Message('note_on', channel=11, note=33, velocity=127, time=0),
    Message('note_off', channel=11, note=33, velocity=64, time=192),
    Message('note_on', channel=11, note=33, velocity=120, time=0),
    Message('note_off', channel=11, note=33, velocity=64, time=192),
    Message('note_on', channel=11, note=28, velocity=120, time=0),
    Message('note_off', channel=11, note=28, velocity=64, time=192),
    Message('note_on', channel=11, note=28, velocity=127, time=0),
    Message('note_off', channel=11, note=28, velocity=64, time=384),
    Message('note_on', channel=11, note=28, velocity=120, time=0),
    Message('note_off', channel=11, note=28, velocity=64, time=192),
    Message('note_on', channel=11, note=28, velocity=120, time=0),
    Message('note_off', channel=11, note=28, velocity=64, time=192),
    Message('note_on', channel=11, note=34, velocity=120, time=0),
    Message('note_off', channel=11, note=34, velocity=64, time=192),
    Message('note_on', channel=11, note=33, velocity=127, time=0),
    Message('note_off', channel=11, note=33, velocity=64, time=384),
    Message('note_on', channel=11, note=28, velocity=120, time=0),
    Message('note_off', channel=11, note=28, velocity=64, time=192),
    Message('note_on', channel=11, note=31, velocity=127, time=0),
    Message('note_off', channel=11, note=31, velocity=64, time=384),
    Message('note_on', channel=11, note=28, velocity=120, time=0),
    Message('note_off', channel=11, note=28, velocity=64, time=192),
    Message('note_on', channel=11, note=30, velocity=120, time=0),
    Message('note_off', channel=11, note=30, velocity=64, time=192),
    Message('note_on', channel=11, note=28, velocity=120, time=0),
    Message('note_off', channel=11, note=28, velocity=64, time=192),
    Message('note_on', channel=11, note=30, velocity=120, time=0),
    Message('note_off', channel=11, note=30, velocity=64, time=192),
    Message('note_on', channel=11, note=31, velocity=120, time=0),
    Message('note_off', channel=11, note=31, velocity=64, time=192),
    Message('note_on', channel=11, note=30, velocity=120, time=0),
    Message('note_off', channel=11, note=30, velocity=64, time=192),
    Message('note_on', channel=11, note=28, velocity=127, time=0),
    Message('note_off', channel=11, note=28, velocity=64, time=384),
    Message('note_on', channel=11, note=28, velocity=120, time=0),
    Message('note_off', channel=11, note=28, velocity=64, time=192),
    Message('note_on', channel=11, note=28, velocity=120, time=0),
    Message('note_off', channel=11, note=28, velocity=64, time=192),
    Message('note_on', channel=11, note=34, velocity=120, time=0),
    Message('note_off', channel=11, note=34, velocity=64, time=192),
    Message('note_on', channel=11, note=33, velocity=127, time=0),
    Message('note_off', channel=11, note=33, velocity=64, time=192),
    Message('note_on', channel=11, note=33, velocity=120, time=0),
    Message('note_off', channel=11, note=33, velocity=64, time=192),
    Message('note_on', channel=11, note=28, velocity=120, time=0),
    Message('note_off', channel=11, note=28, velocity=64, time=192),
    Message('note_on', channel=11, note=28, velocity=127, time=0),
    Message('note_off', channel=11, note=28, velocity=64, time=384),
    Message('note_on', channel=11, note=28, velocity=120, time=0),
    Message('note_off', channel=11, note=28, velocity=64, time=192),
    Message('note_on', channel=11, note=28, velocity=120, time=0),
    Message('note_off', channel=11, note=28, velocity=64, time=192),
    Message('note_on', channel=11, note=34, velocity=120, time=0),
    Message('note_off', channel=11, note=34, velocity=64, time=192),
    Message('note_on', channel=11, note=33, velocity=127, time=0),
    Message('note_off', channel=11, note=33, velocity=64, time=192),
    Message('note_on', channel=11, note=33, velocity=120, time=0),
    Message('note_off', channel=11, note=33, velocity=64, time=192),
    Message('note_on', channel=11, note=28, velocity=120, time=0),
    Message('note_off', channel=11, note=28, velocity=64, time=192),
    Message('note_on', channel=11, note=28, velocity=127, time=0),
    Message('note_off', channel=11, note=28, velocity=64, time=384),
    Message('note_on', channel=11, note=28, velocity=120, time=0),
    Message('note_off', channel=11, note=28, velocity=64, time=192),
    Message('note_on', channel=11, note=28, velocity=120, time=0),
    Message('note_off', channel=11, note=28, velocity=64, time=192),
    Message('note_on', channel=11, note=34, velocity=120, time=0),
    Message('note_off', channel=11, note=34, velocity=64, time=192),
    Message('note_on', channel=11, note=33, velocity=127, time=0),
    Message('note_off', channel=11, note=33, velocity=64, time=384),
    Message('note_on', channel=11, note=28, velocity=120, time=0),
    Message('note_off', channel=11, note=28, velocity=64, time=192),
    Message('note_on', channel=11, note=31, velocity=127, time=0),
    Message('note_off', channel=11, note=31, velocity=64, time=384),
    Message('note_on', channel=11, note=28, velocity=120, time=0),
    Message('note_off', channel=11, note=28, velocity=64, time=192),
    Message('note_on', channel=11, note=30, velocity=120, time=0),
    Message('note_off', channel=11, note=30, velocity=64, time=192),
    Message('note_on', channel=11, note=28, velocity=120, time=0),
    Message('note_off', channel=11, note=28, velocity=64, time=192),
    Message('note_on', channel=11, note=30, velocity=120, time=0),
    Message('note_off', channel=11, note=30, velocity=64, time=192),
    Message('note_on', channel=11, note=31, velocity=120, time=0),
    Message('note_off', channel=11, note=31, velocity=64, time=192),
    Message('note_on', channel=11, note=28, velocity=120, time=0),
    Message('note_off', channel=11, note=28, velocity=64, time=192),
    Message('note_on', channel=11, note=30, velocity=120, time=0),
    Message('note_off', channel=11, note=30, velocity=64, time=960),
    Message('note_on', channel=11, note=35, velocity=120, time=0),
    Message('note_off', channel=11, note=35, velocity=64, time=576),
    Message('note_on', channel=11, note=30, velocity=120, time=0),
    Message('note_off', channel=11, note=30, velocity=64, time=960),
    Message('note_on', channel=11, note=35, velocity=120, time=0),
    Message('note_off', channel=11, note=35, velocity=64, time=576),
    Message('note_on', channel=11, note=30, velocity=120, time=0),
    Message('note_off', channel=11, note=30, velocity=64, time=960),
    Message('note_on', channel=11, note=35, velocity=120, time=0),
    Message('note_off', channel=11, note=35, velocity=64, time=576),
    Message('note_on', channel=11, note=30, velocity=120, time=0),
    Message('note_off', channel=11, note=30, velocity=64, time=192),
    Message('note_on', channel=11, note=30, velocity=120, time=0),
    Message('note_off', channel=11, note=30, velocity=64, time=192),
    Message('note_on', channel=11, note=30, velocity=120, time=0),
    Message('note_off', channel=11, note=30, velocity=64, time=192),
    Message('note_on', channel=11, note=30, velocity=120, time=0),
    Message('note_off', channel=11, note=30, velocity=64, time=192),
    Message('note_on', channel=11, note=30, velocity=120, time=0),
    Message('note_off', channel=11, note=30, velocity=64, time=192),
    Message('note_on', channel=11, note=30, velocity=120, time=0),
    Message('note_off', channel=11, note=30, velocity=64, time=192),
    Message('note_on', channel=11, note=28, velocity=120, time=0),
    Message('note_off', channel=11, note=28, velocity=64, time=192),
    Message('note_on', channel=11, note=28, velocity=120, time=0),
    Message('note_off', channel=11, note=28, velocity=64, time=192),
    Message('note_on', channel=11, note=29, velocity=120, time=0),
    Message('note_off', channel=11, note=29, velocity=64, time=192),
    Message('note_on', channel=11, note=30, velocity=120, time=0),
    Message('note_off', channel=11, note=30, velocity=64, time=192),
    Message('note_on', channel=11, note=30, velocity=120, time=0),
    Message('note_off', channel=11, note=30, velocity=64, time=192),
    Message('note_on', channel=11, note=30, velocity=120, time=0),
    Message('note_off', channel=11, note=30, velocity=64, time=192),
    Message('note_on', channel=11, note=36, velocity=120, time=0),
    Message('note_off', channel=11, note=36, velocity=64, time=192),
    Message('note_on', channel=11, note=35, velocity=120, time=0),
    Message('note_off', channel=11, note=35, velocity=64, time=192),
    Message('note_on', channel=11, note=35, velocity=120, time=0),
    Message('note_off', channel=11, note=35, velocity=64, time=192),
    Message('note_on', channel=11, note=35, velocity=120, time=0),
    Message('note_off', channel=11, note=35, velocity=64, time=192),
    Message('note_on', channel=11, note=30, velocity=120, time=0),
    Message('note_off', channel=11, note=30, velocity=64, time=384),
    Message('note_on', channel=11, note=30, velocity=120, time=0),
    Message('note_off', channel=11, note=30, velocity=64, time=192),
    Message('note_on', channel=11, note=30, velocity=120, time=0),
    Message('note_off', channel=11, note=30, velocity=64, time=192),
    Message('note_on', channel=11, note=36, velocity=120, time=0),
    Message('note_off', channel=11, note=36, velocity=64, time=192),
    Message('note_on', channel=11, note=35, velocity=120, time=0),
    Message('note_off', channel=11, note=35, velocity=64, time=192),
    Message('note_on', channel=11, note=35, velocity=120, time=0),
    Message('note_off', channel=11, note=35, velocity=64, time=192),
    Message('note_on', channel=11, note=35, velocity=120, time=0),
    Message('note_off', channel=11, note=35, velocity=64, time=192),
    Message('note_on', channel=11, note=30, velocity=120, time=0),
    Message('note_off', channel=11, note=30, velocity=64, time=192),
    Message('note_on', channel=11, note=30, velocity=120, time=0),
    Message('note_off', channel=11, note=30, velocity=64, time=192),
    Message('note_on', channel=11, note=30, velocity=120, time=0),
    Message('note_off', channel=11, note=30, velocity=64, time=192),
    Message('note_on', channel=11, note=30, velocity=120, time=0),
    Message('note_off', channel=11, note=30, velocity=64, time=192),
    Message('note_on', channel=11, note=36, velocity=120, time=0),
    Message('note_off', channel=11, note=36, velocity=64, time=192),
    Message('note_on', channel=11, note=35, velocity=120, time=0),
    Message('note_off', channel=11, note=35, velocity=64, time=192),
    Message('note_on', channel=11, note=35, velocity=120, time=0),
    Message('note_off', channel=11, note=35, velocity=64, time=192),
    Message('note_on', channel=11, note=35, velocity=120, time=0),
    Message('note_off', channel=11, note=35, velocity=64, time=192),
    Message('note_on', channel=11, note=28, velocity=127, time=0),
    Message('note_off', channel=11, note=28, velocity=64, time=384),
    Message('note_on', channel=11, note=40, velocity=120, time=0),
    Message('note_off', channel=11, note=40, velocity=64, time=192),
    Message('note_on', channel=11, note=38, velocity=120, time=0),
    Message('note_off', channel=11, note=38, velocity=64, time=384),
    Message('note_on', channel=11, note=36, velocity=120, time=0),
    Message('note_off', channel=11, note=36, velocity=64, time=192),
    Message('note_on', channel=11, note=35, velocity=120, time=0),
    Message('note_off', channel=11, note=35, velocity=64, time=192),
    Message('note_on', channel=11, note=33, velocity=120, time=0),
    Message('note_off', channel=11, note=33, velocity=64, time=192),
    Message('note_on', channel=11, note=31, velocity=120, time=0),
    Message('note_off', channel=11, note=31, velocity=64, time=192),
    Message('note_on', channel=11, note=30, velocity=127, time=0),
    Message('note_off', channel=11, note=30, velocity=64, time=384),
    Message('note_on', channel=11, note=30, velocity=120, time=0),
    Message('note_off', channel=11, note=30, velocity=64, time=192),
    Message('note_on', channel=11, note=36, velocity=120, time=0),
    Message('note_off', channel=11, note=36, velocity=64, time=192),
    Message('note_on', channel=11, note=35, velocity=120, time=0),
    Message('note_off', channel=11, note=35, velocity=64, time=192),
    Message('note_on', channel=11, note=35, velocity=120, time=0),
    Message('note_off', channel=11, note=35, velocity=64, time=192),
    Message('note_on', channel=11, note=35, velocity=120, time=0),
    Message('note_off', channel=11, note=35, velocity=64, time=192),
    Message('note_on', channel=11, note=28, velocity=127, time=0),
    Message('note_off', channel=11, note=28, velocity=64, time=192),
    Message('note_on', channel=11, note=28, velocity=120, time=0),
    Message('note_off', channel=11, note=28, velocity=64, time=192),
    Message('note_on', channel=11, note=28, velocity=120, time=0),
    Message('note_off', channel=11, note=28, velocity=64, time=192),
    Message('note_on', channel=11, note=30, velocity=120, time=0),
    Message('note_off', channel=11, note=30, velocity=64, time=192),
    Message('note_on', channel=11, note=28, velocity=120, time=0),
    Message('note_off', channel=11, note=28, velocity=64, time=192),
    Message('note_on', channel=11, note=31, velocity=120, time=0),
    Message('note_off', channel=11, note=31, velocity=64, time=192),
    Message('note_on', channel=11, note=28, velocity=120, time=0),
    Message('note_off', channel=11, note=28, velocity=64, time=192),
    Message('note_on', channel=11, note=33, velocity=120, time=0),
    Message('note_off', channel=11, note=33, velocity=64, time=192),
    Message('note_on', channel=11, note=28, velocity=120, time=0),
    Message('note_off', channel=11, note=28, velocity=64, time=192),
    Message('note_on', channel=11, note=33, velocity=120, time=0),
    Message('note_off', channel=11, note=33, velocity=64, time=191),
    Message('control_change', channel=11, control=7, value=127, time=18241),
    Message('program_change', channel=11, program=34, time=0),
    Message('note_on', channel=11, note=28, velocity=120, time=0),
    Message('note_off', channel=11, note=28, velocity=64, time=192),
    Message('note_on', channel=11, note=28, velocity=120, time=0),
    Message('note_off', channel=11, note=28, velocity=64, time=192),
    Message('note_on', channel=11, note=28, velocity=120, time=0),
    Message('note_off', channel=11, note=28, velocity=64, time=192),
    Message('note_on', channel=11, note=28, velocity=120, time=0),
    Message('note_off', channel=11, note=28, velocity=64, time=192),
    Message('note_on', channel=11, note=28, velocity=120, time=0),
    Message('note_off', channel=11, note=28, velocity=64, time=192),
    Message('note_on', channel=11, note=28, velocity=120, time=0),
    Message('note_off', channel=11, note=28, velocity=64, time=192),
    Message('note_on', channel=11, note=28, velocity=120, time=0),
    Message('note_off', channel=11, note=28, velocity=64, time=192),
    Message('note_on', channel=11, note=28, velocity=120, time=0),
    Message('note_off', channel=11, note=28, velocity=64, time=192),
    Message('note_on', channel=11, note=30, velocity=120, time=0),
    Message('note_off', channel=11, note=30, velocity=64, time=192),
    Message('note_on', channel=11, note=30, velocity=120, time=0),
    Message('note_off', channel=11, note=30, velocity=64, time=192),
    Message('note_on', channel=11, note=30, velocity=120, time=0),
    Message('note_off', channel=11, note=30, velocity=64, time=192),
    Message('note_on', channel=11, note=30, velocity=120, time=0),
    Message('note_off', channel=11, note=30, velocity=64, time=192),
    Message('note_on', channel=11, note=30, velocity=120, time=0),
    Message('note_off', channel=11, note=30, velocity=64, time=192),
    Message('note_on', channel=11, note=30, velocity=120, time=0),
    Message('note_off', channel=11, note=30, velocity=64, time=192),
    Message('note_on', channel=11, note=30, velocity=120, time=0),
    Message('note_off', channel=11, note=30, velocity=64, time=192),
    Message('note_on', channel=11, note=30, velocity=120, time=0),
    Message('note_off', channel=11, note=30, velocity=64, time=192),
    Message('note_on', channel=11, note=30, velocity=120, time=0),
    Message('note_off', channel=11, note=30, velocity=64, time=192),
    Message('note_on', channel=11, note=30, velocity=120, time=0),
    Message('note_off', channel=11, note=30, velocity=64, time=192),
    Message('note_on', channel=11, note=30, velocity=120, time=0),
    Message('note_off', channel=11, note=30, velocity=64, time=192),
    Message('note_on', channel=11, note=30, velocity=120, time=0),
    Message('note_off', channel=11, note=30, velocity=64, time=192),
    Message('note_on', channel=11, note=30, velocity=120, time=0),
    Message('note_off', channel=11, note=30, velocity=64, time=192),
    Message('note_on', channel=11, note=30, velocity=120, time=0),
    Message('note_off', channel=11, note=30, velocity=64, time=192),
    Message('note_on', channel=11, note=30, velocity=120, time=0),
    Message('note_off', channel=11, note=30, velocity=64, time=192),
    Message('note_on', channel=11, note=31, velocity=120, time=0),
    Message('note_off', channel=11, note=31, velocity=64, time=192),
    Message('note_on', channel=11, note=30, velocity=120, time=0),
    Message('note_off', channel=11, note=30, velocity=64, time=192),
    Message('note_on', channel=11, note=30, velocity=120, time=0),
    Message('note_off', channel=11, note=30, velocity=64, time=192),
    Message('note_on', channel=11, note=30, velocity=120, time=0),
    Message('note_off', channel=11, note=30, velocity=64, time=192),
    Message('note_on', channel=11, note=30, velocity=120, time=0),
    Message('note_off', channel=11, note=30, velocity=64, time=192),
    Message('note_on', channel=11, note=30, velocity=120, time=0),
    Message('note_off', channel=11, note=30, velocity=64, time=192),
    Message('note_on', channel=11, note=30, velocity=120, time=0),
    Message('note_off', channel=11, note=30, velocity=64, time=192),
    Message('note_on', channel=11, note=30, velocity=120, time=0),
    Message('note_off', channel=11, note=30, velocity=64, time=192),
    Message('note_on', channel=11, note=30, velocity=120, time=0),
    Message('note_off', channel=11, note=30, velocity=64, time=192),
    Message('note_on', channel=11, note=30, velocity=120, time=0),
    Message('note_off', channel=11, note=30, velocity=64, time=192),
    Message('note_on', channel=11, note=30, velocity=120, time=0),
    Message('note_off', channel=11, note=30, velocity=64, time=192),
    Message('note_on', channel=11, note=30, velocity=120, time=0),
    Message('note_off', channel=11, note=30, velocity=64, time=192),
    Message('note_on', channel=11, note=30, velocity=120, time=0),
    Message('note_off', channel=11, note=30, velocity=64, time=192),
    Message('note_on', channel=11, note=30, velocity=120, time=0),
    Message('note_off', channel=11, note=30, velocity=64, time=192),
    Message('note_on', channel=11, note=30, velocity=120, time=0),
    Message('note_off', channel=11, note=30, velocity=64, time=192),
    Message('note_on', channel=11, note=30, velocity=120, time=0),
    Message('note_off', channel=11, note=30, velocity=64, time=192),
    Message('note_on', channel=11, note=31, velocity=120, time=0),
    Message('note_off', channel=11, note=31, velocity=64, time=192),
    Message('note_on', channel=11, note=30, velocity=120, time=0),
    Message('note_off', channel=11, note=30, velocity=64, time=192),
    Message('note_on', channel=11, note=30, velocity=120, time=0),
    Message('note_off', channel=11, note=30, velocity=64, time=192),
    Message('note_on', channel=11, note=30, velocity=120, time=0),
    Message('note_off', channel=11, note=30, velocity=64, time=192),
    Message('note_on', channel=11, note=30, velocity=120, time=0),
    Message('note_off', channel=11, note=30, velocity=64, time=192),
    Message('note_on', channel=11, note=30, velocity=120, time=0),
    Message('note_off', channel=11, note=30, velocity=64, time=192),
    Message('note_on', channel=11, note=30, velocity=120, time=0),
    Message('note_off', channel=11, note=30, velocity=64, time=192),
    Message('note_on', channel=11, note=30, velocity=120, time=0),
    Message('note_off', channel=11, note=30, velocity=64, time=192),
    Message('note_on', channel=11, note=30, velocity=120, time=0),
    Message('note_off', channel=11, note=30, velocity=64, time=192),
    Message('note_on', channel=11, note=30, velocity=120, time=0),
    Message('note_off', channel=11, note=30, velocity=64, time=192),
    Message('note_on', channel=11, note=30, velocity=120, time=0),
    Message('note_off', channel=11, note=30, velocity=64, time=192),
    Message('note_on', channel=11, note=30, velocity=120, time=0),
    Message('note_off', channel=11, note=30, velocity=64, time=192),
    Message('note_on', channel=11, note=30, velocity=120, time=0),
    Message('note_off', channel=11, note=30, velocity=64, time=192),
    Message('note_on', channel=11, note=30, velocity=120, time=0),
    Message('note_off', channel=11, note=30, velocity=64, time=192),
    Message('note_on', channel=11, note=30, velocity=120, time=0),
    Message('note_off', channel=11, note=30, velocity=64, time=192),
    Message('note_on', channel=11, note=30, velocity=120, time=0),
    Message('note_off', channel=11, note=30, velocity=64, time=192),
    Message('note_on', channel=11, note=31, velocity=120, time=0),
    Message('note_off', channel=11, note=31, velocity=64, time=192),
    Message('note_on', channel=11, note=30, velocity=120, time=0),
    Message('note_off', channel=11, note=30, velocity=64, time=192),
    Message('note_on', channel=11, note=30, velocity=120, time=0),
    Message('note_off', channel=11, note=30, velocity=64, time=192),
    Message('note_on', channel=11, note=30, velocity=120, time=0),
    Message('note_off', channel=11, note=30, velocity=64, time=192),
    Message('note_on', channel=11, note=30, velocity=120, time=0),
    Message('note_off', channel=11, note=30, velocity=64, time=192),
    Message('note_on', channel=11, note=30, velocity=120, time=0),
    Message('note_off', channel=11, note=30, velocity=64, time=192),
    Message('note_on', channel=11, note=30, velocity=120, time=0),
    Message('note_off', channel=11, note=30, velocity=64, time=192),
    Message('note_on', channel=11, note=30, velocity=120, time=0),
    Message('note_off', channel=11, note=30, velocity=64, time=192),
    Message('note_on', channel=11, note=30, velocity=120, time=0),
    Message('note_off', channel=11, note=30, velocity=64, time=192),
    Message('note_on', channel=11, note=30, velocity=120, time=0),
    Message('note_off', channel=11, note=30, velocity=64, time=192),
    Message('note_on', channel=11, note=30, velocity=120, time=0),
    Message('note_off', channel=11, note=30, velocity=64, time=192),
    Message('note_on', channel=11, note=30, velocity=120, time=0),
    Message('note_off', channel=11, note=30, velocity=64, time=192),
    Message('note_on', channel=11, note=30, velocity=120, time=0),
    Message('note_off', channel=11, note=30, velocity=64, time=192),
    Message('note_on', channel=11, note=30, velocity=120, time=0),
    Message('note_off', channel=11, note=30, velocity=64, time=192),
    Message('note_on', channel=11, note=28, velocity=120, time=0),
    Message('note_off', channel=11, note=28, velocity=64, time=192),
    Message('note_on', channel=11, note=28, velocity=120, time=0),
    Message('note_off', channel=11, note=28, velocity=64, time=192),
    Message('note_on', channel=11, note=29, velocity=120, time=0),
    Message('note_off', channel=11, note=29, velocity=64, time=192),
    Message('note_on', channel=11, note=30, velocity=120, time=0),
    Message('note_off', channel=11, note=30, velocity=64, time=384),
    Message('note_on', channel=11, note=30, velocity=120, time=0),
    Message('note_off', channel=11, note=30, velocity=64, time=192),
    Message('note_on', channel=11, note=36, velocity=120, time=0),
    Message('note_off', channel=11, note=36, velocity=64, time=192),
    Message('note_on', channel=11, note=35, velocity=120, time=0),
    Message('note_off', channel=11, note=35, velocity=64, time=192),
    Message('note_on', channel=11, note=35, velocity=120, time=0),
    Message('note_off', channel=11, note=35, velocity=64, time=192),
    Message('note_on', channel=11, note=35, velocity=120, time=0),
    Message('note_off', channel=11, note=35, velocity=64, time=192),
    Message('note_on', channel=11, note=30, velocity=120, time=0),
    Message('note_off', channel=11, note=30, velocity=64, time=384),
    Message('note_on', channel=11, note=30, velocity=120, time=0),
    Message('note_off', channel=11, note=30, velocity=64, time=192),
    Message('note_on', channel=11, note=30, velocity=120, time=0),
    Message('note_off', channel=11, note=30, velocity=64, time=192),
    Message('note_on', channel=11, note=36, velocity=120, time=0),
    Message('note_off', channel=11, note=36, velocity=64, time=192),
    Message('note_on', channel=11, note=35, velocity=120, time=0),
    Message('note_off', channel=11, note=35, velocity=64, time=192),
    Message('note_on', channel=11, note=35, velocity=120, time=0),
    Message('note_off', channel=11, note=35, velocity=64, time=192),
    Message('note_on', channel=11, note=35, velocity=120, time=0),
    Message('note_off', channel=11, note=35, velocity=64, time=192),
    Message('note_on', channel=11, note=30, velocity=120, time=0),
    Message('note_off', channel=11, note=30, velocity=64, time=192),
    Message('note_on', channel=11, note=30, velocity=120, time=0),
    Message('note_off', channel=11, note=30, velocity=64, time=192),
    Message('note_on', channel=11, note=30, velocity=120, time=0),
    Message('note_off', channel=11, note=30, velocity=64, time=192),
    Message('note_on', channel=11, note=30, velocity=120, time=0),
    Message('note_off', channel=11, note=30, velocity=64, time=192),
    Message('note_on', channel=11, note=36, velocity=120, time=0),
    Message('note_off', channel=11, note=36, velocity=64, time=192),
    Message('note_on', channel=11, note=35, velocity=120, time=0),
    Message('note_off', channel=11, note=35, velocity=64, time=192),
    Message('note_on', channel=11, note=35, velocity=120, time=0),
    Message('note_off', channel=11, note=35, velocity=64, time=192),
    Message('note_on', channel=11, note=35, velocity=120, time=0),
    Message('note_off', channel=11, note=35, velocity=64, time=192),
    Message('note_on', channel=11, note=28, velocity=127, time=0),
    Message('note_off', channel=11, note=28, velocity=64, time=384),
    Message('note_on', channel=11, note=40, velocity=120, time=0),
    Message('note_off', channel=11, note=40, velocity=64, time=192),
    Message('note_on', channel=11, note=28, velocity=120, time=0),
    Message('note_off', channel=11, note=28, velocity=64, time=192),
    Message('note_on', channel=11, note=38, velocity=120, time=0),
    Message('note_off', channel=11, note=38, velocity=64, time=192),
    Message('note_on', channel=11, note=28, velocity=120, time=0),
    Message('note_off', channel=11, note=28, velocity=64, time=192),
    Message('note_on', channel=11, note=35, velocity=120, time=0),
    Message('note_off', channel=11, note=35, velocity=64, time=192),
    Message('note_on', channel=11, note=40, velocity=120, time=0),
    Message('note_off', channel=11, note=40, velocity=64, time=192),
    Message('note_on', channel=11, note=31, velocity=120, time=0),
    Message('note_off', channel=11, note=31, velocity=64, time=192),
    Message('note_on', channel=11, note=30, velocity=127, time=0),
    Message('note_off', channel=11, note=30, velocity=64, time=192),
    Message('note_on', channel=11, note=30, velocity=127, time=0),
    Message('note_off', channel=11, note=30, velocity=64, time=192),
    Message('note_on', channel=11, note=30, velocity=120, time=0),
    Message('note_off', channel=11, note=30, velocity=64, time=192),
    Message('note_on', channel=11, note=36, velocity=120, time=0),
    Message('note_off', channel=11, note=36, velocity=64, time=192),
    Message('note_on', channel=11, note=35, velocity=120, time=0),
    Message('note_off', channel=11, note=35, velocity=64, time=192),
    Message('note_on', channel=11, note=35, velocity=120, time=0),
    Message('note_off', channel=11, note=35, velocity=64, time=192),
    Message('note_on', channel=11, note=35, velocity=120, time=0),
    Message('note_off', channel=11, note=35, velocity=64, time=192),
    Message('note_on', channel=11, note=28, velocity=127, time=0),
    Message('note_off', channel=11, note=28, velocity=64, time=384),
    Message('note_on', channel=11, note=28, velocity=120, time=0),
    Message('note_off', channel=11, note=28, velocity=64, time=192),
    Message('note_on', channel=11, note=28, velocity=120, time=0),
    Message('note_off', channel=11, note=28, velocity=64, time=192),
    Message('note_on', channel=11, note=28, velocity=120, time=0),
    Message('note_off', channel=11, note=28, velocity=64, time=192),
    Message('note_on', channel=11, note=28, velocity=120, time=0),
    Message('note_off', channel=11, note=28, velocity=64, time=192),
    Message('note_on', channel=11, note=28, velocity=120, time=0),
    Message('note_off', channel=11, note=28, velocity=64, time=192),
    Message('note_on', channel=11, note=28, velocity=120, time=0),
    Message('note_off', channel=11, note=28, velocity=64, time=192),
    Message('note_on', channel=11, note=29, velocity=120, time=0),
    Message('note_off', channel=11, note=29, velocity=64, time=192),
    Message('note_on', channel=11, note=30, velocity=120, time=0),
    Message('note_off', channel=11, note=30, velocity=64, time=192),
    Message('note_on', channel=11, note=30, velocity=120, time=0),
    Message('note_off', channel=11, note=30, velocity=64, time=192),
    Message('note_on', channel=11, note=30, velocity=120, time=0),
    Message('note_off', channel=11, note=30, velocity=64, time=192),
    Message('note_on', channel=11, note=36, velocity=120, time=0),
    Message('note_off', channel=11, note=36, velocity=64, time=192),
    Message('note_on', channel=11, note=35, velocity=120, time=0),
    Message('note_off', channel=11, note=35, velocity=64, time=192),
    Message('note_on', channel=11, note=35, velocity=120, time=0),
    Message('note_off', channel=11, note=35, velocity=64, time=192),
    Message('note_on', channel=11, note=35, velocity=120, time=0),
    Message('note_off', channel=11, note=35, velocity=64, time=192),
    Message('note_on', channel=11, note=30, velocity=120, time=0),
    Message('note_off', channel=11, note=30, velocity=64, time=384),
    Message('note_on', channel=11, note=30, velocity=120, time=0),
    Message('note_off', channel=11, note=30, velocity=64, time=192),
    Message('note_on', channel=11, note=30, velocity=120, time=0),
    Message('note_off', channel=11, note=30, velocity=64, time=192),
    Message('note_on', channel=11, note=36, velocity=120, time=0),
    Message('note_off', channel=11, note=36, velocity=64, time=192),
    Message('note_on', channel=11, note=35, velocity=120, time=0),
    Message('note_off', channel=11, note=35, velocity=64, time=192),
    Message('note_on', channel=11, note=35, velocity=120, time=0),
    Message('note_off', channel=11, note=35, velocity=64, time=192),
    Message('note_on', channel=11, note=35, velocity=120, time=0),
    Message('note_off', channel=11, note=35, velocity=64, time=192),
    Message('note_on', channel=11, note=30, velocity=120, time=0),
    Message('note_off', channel=11, note=30, velocity=64, time=192),
    Message('note_on', channel=11, note=30, velocity=120, time=0),
    Message('note_off', channel=11, note=30, velocity=64, time=192),
    Message('note_on', channel=11, note=30, velocity=120, time=0),
    Message('note_off', channel=11, note=30, velocity=64, time=192),
    Message('note_on', channel=11, note=30, velocity=120, time=0),
    Message('note_off', channel=11, note=30, velocity=64, time=192),
    Message('note_on', channel=11, note=36, velocity=120, time=0),
    Message('note_off', channel=11, note=36, velocity=64, time=192),
    Message('note_on', channel=11, note=35, velocity=120, time=0),
    Message('note_off', channel=11, note=35, velocity=64, time=192),
    Message('note_on', channel=11, note=35, velocity=120, time=0),
    Message('note_off', channel=11, note=35, velocity=64, time=192),
    Message('note_on', channel=11, note=35, velocity=120, time=0),
    Message('note_off', channel=11, note=35, velocity=64, time=192),
    Message('note_on', channel=11, note=28, velocity=127, time=0),
    Message('note_off', channel=11, note=28, velocity=64, time=384),
    Message('note_on', channel=11, note=33, velocity=120, time=0),
    Message('note_off', channel=11, note=33, velocity=64, time=96),
    Message('note_on', channel=11, note=35, velocity=120, time=0),
    Message('note_off', channel=11, note=35, velocity=64, time=96),
    Message('note_on', channel=11, note=38, velocity=120, time=0),
    Message('note_off', channel=11, note=38, velocity=64, time=192),
    Message('note_on', channel=11, note=35, velocity=120, time=0),
    Message('note_off', channel=11, note=35, velocity=64, time=192),
    Message('note_on', channel=11, note=40, velocity=120, time=0),
    Message('note_off', channel=11, note=40, velocity=64, time=192),
    Message('note_on', channel=11, note=38, velocity=120, time=0),
    Message('note_off', channel=11, note=38, velocity=64, time=192),
    Message('note_on', channel=11, note=35, velocity=120, time=0),
    Message('note_off', channel=11, note=35, velocity=64, time=192),
    Message('note_on', channel=11, note=31, velocity=120, time=0),
    Message('note_off', channel=11, note=31, velocity=64, time=192),
    Message('note_on', channel=11, note=30, velocity=127, time=0),
    Message('note_off', channel=11, note=30, velocity=64, time=192),
    Message('note_on', channel=11, note=30, velocity=127, time=0),
    Message('note_off', channel=11, note=30, velocity=64, time=192),
    Message('note_on', channel=11, note=30, velocity=120, time=0),
    Message('note_off', channel=11, note=30, velocity=64, time=192),
    Message('note_on', channel=11, note=36, velocity=120, time=0),
    Message('note_off', channel=11, note=36, velocity=64, time=192),
    Message('note_on', channel=11, note=35, velocity=120, time=0),
    Message('note_off', channel=11, note=35, velocity=64, time=192),
    Message('note_on', channel=11, note=35, velocity=120, time=0),
    Message('note_off', channel=11, note=35, velocity=64, time=192),
    Message('note_on', channel=11, note=35, velocity=120, time=0),
    Message('note_off', channel=11, note=35, velocity=64, time=192),
    Message('note_on', channel=11, note=28, velocity=127, time=0),
    Message('note_off', channel=11, note=28, velocity=64, time=384),
    Message('note_on', channel=11, note=28, velocity=120, time=0),
    Message('note_off', channel=11, note=28, velocity=64, time=192),
    Message('note_on', channel=11, note=30, velocity=120, time=0),
    Message('note_off', channel=11, note=30, velocity=64, time=192),
    Message('note_on', channel=11, note=28, velocity=120, time=0),
    Message('note_off', channel=11, note=28, velocity=64, time=192),
    Message('note_on', channel=11, note=31, velocity=120, time=0),
    Message('note_off', channel=11, note=31, velocity=64, time=192),
    Message('note_on', channel=11, note=28, velocity=120, time=0),
    Message('note_off', channel=11, note=28, velocity=64, time=192),
    Message('note_on', channel=11, note=33, velocity=120, time=0),
    Message('note_off', channel=11, note=33, velocity=64, time=192),
    Message('note_on', channel=11, note=28, velocity=120, time=0),
    Message('note_off', channel=11, note=28, velocity=64, time=192),
    Message('note_on', channel=11, note=31, velocity=120, time=0),
    Message('note_off', channel=11, note=31, velocity=64, time=191),
    Message('note_on', channel=11, note=28, velocity=127, time=1153),
    Message('note_off', channel=11, note=28, velocity=64, time=4608),
    Message('note_on', channel=11, note=28, velocity=127, time=0),
    Message('note_off', channel=11, note=28, velocity=64, time=384),
    Message('note_on', channel=11, note=28, velocity=120, time=0),
    Message('note_off', channel=11, note=28, velocity=64, time=192),
    Message('note_on', channel=11, note=28, velocity=120, time=0),
    Message('note_off', channel=11, note=28, velocity=64, time=192),
    Message('note_on', channel=11, note=34, velocity=120, time=0),
    Message('note_off', channel=11, note=34, velocity=64, time=192),
    Message('note_on', channel=11, note=33, velocity=120, time=0),
    Message('note_off', channel=11, note=33, velocity=64, time=192),
    Message('note_on', channel=11, note=33, velocity=120, time=0),
    Message('note_off', channel=11, note=33, velocity=64, time=192),
    Message('note_on', channel=11, note=33, velocity=120, time=0),
    Message('note_off', channel=11, note=33, velocity=64, time=192),
    Message('note_on', channel=11, note=28, velocity=120, time=0),
    Message('note_off', channel=11, note=28, velocity=64, time=192),
    Message('note_on', channel=11, note=28, velocity=120, time=0),
    Message('note_off', channel=11, note=28, velocity=64, time=192),
    Message('note_on', channel=11, note=28, velocity=120, time=0),
    Message('note_off', channel=11, note=28, velocity=64, time=192),
    Message('note_on', channel=11, note=28, velocity=120, time=0),
    Message('note_off', channel=11, note=28, velocity=64, time=192),
    Message('note_on', channel=11, note=34, velocity=120, time=0),
    Message('note_off', channel=11, note=34, velocity=64, time=192),
    Message('note_on', channel=11, note=33, velocity=120, time=0),
    Message('note_off', channel=11, note=33, velocity=64, time=192),
    Message('note_on', channel=11, note=33, velocity=120, time=0),
    Message('note_off', channel=11, note=33, velocity=64, time=192),
    Message('note_on', channel=11, note=33, velocity=120, time=0),
    Message('note_off', channel=11, note=33, velocity=64, time=192),
    Message('note_on', channel=11, note=28, velocity=120, time=0),
    Message('note_off', channel=11, note=28, velocity=64, time=384),
    Message('note_on', channel=11, note=28, velocity=120, time=0),
    Message('note_off', channel=11, note=28, velocity=64, time=192),
    Message('note_on', channel=11, note=28, velocity=120, time=0),
    Message('note_off', channel=11, note=28, velocity=64, time=192),
    Message('note_on', channel=11, note=34, velocity=120, time=0),
    Message('note_off', channel=11, note=34, velocity=64, time=192),
    Message('note_on', channel=11, note=33, velocity=120, time=0),
    Message('note_off', channel=11, note=33, velocity=64, time=192),
    Message('note_on', channel=11, note=33, velocity=120, time=0),
    Message('note_off', channel=11, note=33, velocity=64, time=192),
    Message('note_on', channel=11, note=33, velocity=120, time=0),
    Message('note_off', channel=11, note=33, velocity=64, time=192),
    Message('note_on', channel=11, note=28, velocity=127, time=0),
    Message('note_off', channel=11, note=28, velocity=64, time=384),
    Message('note_on', channel=11, note=28, velocity=120, time=0),
    Message('note_off', channel=11, note=28, velocity=64, time=192),
    Message('note_on', channel=11, note=28, velocity=120, time=0),
    Message('note_off', channel=11, note=28, velocity=64, time=192),
    Message('note_on', channel=11, note=34, velocity=120, time=0),
    Message('note_off', channel=11, note=34, velocity=64, time=192),
    Message('note_on', channel=11, note=33, velocity=120, time=0),
    Message('note_off', channel=11, note=33, velocity=64, time=192),
    Message('note_on', channel=11, note=33, velocity=120, time=0),
    Message('note_off', channel=11, note=33, velocity=64, time=192),
    Message('note_on', channel=11, note=33, velocity=120, time=0),
    Message('note_off', channel=11, note=33, velocity=64, time=192),
    Message('note_on', channel=11, note=28, velocity=120, time=0),
    Message('note_off', channel=11, note=28, velocity=64, time=384),
    Message('note_on', channel=11, note=28, velocity=127, time=0),
    Message('note_off', channel=11, note=28, velocity=64, time=192),
    Message('note_on', channel=11, note=28, velocity=120, time=0),
    Message('note_off', channel=11, note=28, velocity=64, time=192),
    Message('note_on', channel=11, note=34, velocity=120, time=0),
    Message('note_off', channel=11, note=34, velocity=64, time=192),
    Message('note_on', channel=11, note=33, velocity=120, time=0),
    Message('note_off', channel=11, note=33, velocity=64, time=192),
    Message('note_on', channel=11, note=33, velocity=120, time=0),
    Message('note_off', channel=11, note=33, velocity=64, time=192),
    Message('note_on', channel=11, note=28, velocity=120, time=0),
    Message('note_off', channel=11, note=28, velocity=64, time=192),
    Message('note_on', channel=11, note=31, velocity=127, time=0),
    Message('note_off', channel=11, note=31, velocity=64, time=384),
    Message('note_on', channel=11, note=28, velocity=120, time=0),
    Message('note_off', channel=11, note=28, velocity=64, time=192),
    Message('note_on', channel=11, note=30, velocity=120, time=0),
    Message('note_off', channel=11, note=30, velocity=64, time=192),
    Message('note_on', channel=11, note=28, velocity=120, time=0),
    Message('note_off', channel=11, note=28, velocity=64, time=192),
    Message('note_on', channel=11, note=30, velocity=120, time=0),
    Message('note_off', channel=11, note=30, velocity=64, time=192),
    Message('note_on', channel=11, note=31, velocity=120, time=0),
    Message('note_off', channel=11, note=31, velocity=64, time=192),
    Message('note_on', channel=11, note=30, velocity=120, time=0),
    Message('note_off', channel=11, note=30, velocity=64, time=192),
    Message('note_on', channel=11, note=28, velocity=120, time=0),
    Message('note_off', channel=11, note=28, velocity=64, time=192),
    Message('note_on', channel=11, note=28, velocity=120, time=0),
    Message('note_off', channel=11, note=28, velocity=64, time=191),
    Message('note_on', channel=11, note=28, velocity=120, time=1),
    Message('note_off', channel=11, note=28, velocity=64, time=191),
    Message('note_on', channel=11, note=28, velocity=120, time=1),
    Message('note_off', channel=11, note=28, velocity=64, time=191),
    Message('note_on', channel=11, note=28, velocity=120, time=1),
    Message('note_off', channel=11, note=28, velocity=64, time=191),
    Message('note_on', channel=11, note=28, velocity=120, time=1),
    Message('note_off', channel=11, note=28, velocity=64, time=191),
    Message('note_on', channel=11, note=28, velocity=120, time=1),
    Message('note_off', channel=11, note=28, velocity=64, time=191),
    Message('note_on', channel=11, note=28, velocity=120, time=1),
    Message('note_off', channel=11, note=28, velocity=64, time=191),
    Message('note_on', channel=11, note=29, velocity=120, time=1),
    Message('note_off', channel=11, note=29, velocity=64, time=191),
    Message('note_on', channel=11, note=28, velocity=120, time=1),
    Message('note_off', channel=11, note=28, velocity=64, time=191),
    Message('note_on', channel=11, note=28, velocity=120, time=1),
    Message('note_off', channel=11, note=28, velocity=64, time=191),
    Message('note_on', channel=11, note=28, velocity=120, time=1),
    Message('note_off', channel=11, note=28, velocity=64, time=191),
    Message('note_on', channel=11, note=28, velocity=120, time=1),
    Message('note_off', channel=11, note=28, velocity=64, time=191),
    Message('note_on', channel=11, note=28, velocity=120, time=1),
    Message('note_off', channel=11, note=28, velocity=64, time=191),
    Message('note_on', channel=11, note=28, velocity=120, time=1),
    Message('note_off', channel=11, note=28, velocity=64, time=191),
    Message('note_on', channel=11, note=28, velocity=120, time=1),
    Message('note_off', channel=11, note=28, velocity=64, time=191),
    Message('note_on', channel=11, note=29, velocity=120, time=1),
    Message('note_off', channel=11, note=29, velocity=64, time=191),
    Message('note_on', channel=11, note=28, velocity=120, time=1),
    Message('note_off', channel=11, note=28, velocity=64, time=191),
    Message('note_on', channel=11, note=28, velocity=120, time=1),
    Message('note_off', channel=11, note=28, velocity=64, time=191),
    Message('note_on', channel=11, note=28, velocity=120, time=1),
    Message('note_off', channel=11, note=28, velocity=64, time=191),
    Message('note_on', channel=11, note=28, velocity=120, time=1),
    Message('note_off', channel=11, note=28, velocity=64, time=191),
    Message('note_on', channel=11, note=28, velocity=120, time=1),
    Message('note_off', channel=11, note=28, velocity=64, time=191),
    Message('note_on', channel=11, note=28, velocity=120, time=1),
    Message('note_off', channel=11, note=28, velocity=64, time=191),
    Message('note_on', channel=11, note=28, velocity=120, time=1),
    Message('note_off', channel=11, note=28, velocity=64, time=191),
    Message('note_on', channel=11, note=29, velocity=120, time=1),
    Message('note_off', channel=11, note=29, velocity=64, time=191),
    Message('note_on', channel=11, note=28, velocity=120, time=1),
    Message('note_off', channel=11, note=28, velocity=64, time=191),
    Message('note_on', channel=11, note=28, velocity=120, time=1),
    Message('note_off', channel=11, note=28, velocity=64, time=191),
    Message('note_on', channel=11, note=28, velocity=120, time=1),
    Message('note_off', channel=11, note=28, velocity=64, time=191),
    Message('note_on', channel=11, note=28, velocity=120, time=1),
    Message('note_off', channel=11, note=28, velocity=64, time=191),
    Message('note_on', channel=11, note=28, velocity=120, time=1),
    Message('note_off', channel=11, note=28, velocity=64, time=191),
    Message('note_on', channel=11, note=28, velocity=120, time=1),
    Message('note_off', channel=11, note=28, velocity=64, time=191),
    Message('note_on', channel=11, note=28, velocity=120, time=1),
    Message('note_off', channel=11, note=28, velocity=64, time=191),
    Message('note_on', channel=11, note=29, velocity=120, time=1),
    Message('note_off', channel=11, note=29, velocity=64, time=191),
    Message('note_on', channel=11, note=28, velocity=120, time=1),
    Message('note_off', channel=11, note=28, velocity=64, time=191),
    Message('note_on', channel=11, note=28, velocity=120, time=1),
    Message('note_off', channel=11, note=28, velocity=64, time=191),
    Message('note_on', channel=11, note=28, velocity=120, time=1),
    Message('note_off', channel=11, note=28, velocity=64, time=191),
    Message('note_on', channel=11, note=28, velocity=120, time=1),
    Message('note_off', channel=11, note=28, velocity=64, time=191),
    Message('note_on', channel=11, note=28, velocity=120, time=1),
    Message('note_off', channel=11, note=28, velocity=64, time=191),
    Message('note_on', channel=11, note=28, velocity=120, time=1),
    Message('note_off', channel=11, note=28, velocity=64, time=191),
    Message('note_on', channel=11, note=28, velocity=120, time=1),
    Message('note_off', channel=11, note=28, velocity=64, time=191),
    Message('note_on', channel=11, note=29, velocity=120, time=1),
    Message('note_off', channel=11, note=29, velocity=64, time=191),
    Message('note_on', channel=11, note=28, velocity=120, time=1),
    Message('note_off', channel=11, note=28, velocity=64, time=191),
    Message('note_on', channel=11, note=28, velocity=120, time=1),
    Message('note_off', channel=11, note=28, velocity=64, time=191),
    Message('note_on', channel=11, note=28, velocity=120, time=1),
    Message('note_off', channel=11, note=28, velocity=64, time=191),
    Message('note_on', channel=11, note=28, velocity=120, time=1),
    Message('note_off', channel=11, note=28, velocity=64, time=191),
    Message('note_on', channel=11, note=28, velocity=120, time=1),
    Message('note_off', channel=11, note=28, velocity=64, time=191),
    Message('note_on', channel=11, note=28, velocity=120, time=1),
    Message('note_off', channel=11, note=28, velocity=64, time=191),
    Message('note_on', channel=11, note=28, velocity=120, time=1),
    Message('note_off', channel=11, note=28, velocity=64, time=191),
    Message('note_on', channel=11, note=29, velocity=120, time=1),
    Message('note_off', channel=11, note=29, velocity=64, time=191),
    Message('note_on', channel=11, note=28, velocity=120, time=1),
    Message('note_off', channel=11, note=28, velocity=64, time=191),
    Message('note_on', channel=11, note=28, velocity=120, time=1),
    Message('note_off', channel=11, note=28, velocity=64, time=191),
    Message('note_on', channel=11, note=28, velocity=120, time=1),
    Message('note_off', channel=11, note=28, velocity=64, time=191),
    Message('note_on', channel=11, note=28, velocity=120, time=1),
    Message('note_off', channel=11, note=28, velocity=64, time=191),
    Message('note_on', channel=11, note=28, velocity=120, time=1),
    Message('note_off', channel=11, note=28, velocity=64, time=191),
    Message('note_on', channel=11, note=28, velocity=120, time=1),
    Message('note_off', channel=11, note=28, velocity=64, time=191),
    Message('note_on', channel=11, note=28, velocity=120, time=1),
    Message('note_off', channel=11, note=28, velocity=64, time=191),
    Message('note_on', channel=11, note=29, velocity=120, time=1),
    Message('note_off', channel=11, note=29, velocity=64, time=191),
    Message('note_on', channel=11, note=28, velocity=120, time=1),
    Message('note_off', channel=11, note=28, velocity=64, time=191),
    Message('note_on', channel=11, note=28, velocity=120, time=1),
    Message('note_off', channel=11, note=28, velocity=64, time=191),
    Message('note_on', channel=11, note=28, velocity=120, time=1),
    Message('note_off', channel=11, note=28, velocity=64, time=191),
    Message('note_on', channel=11, note=28, velocity=120, time=1),
    Message('note_off', channel=11, note=28, velocity=64, time=191),
    Message('note_on', channel=11, note=28, velocity=120, time=1),
    Message('note_off', channel=11, note=28, velocity=64, time=191),
    Message('note_on', channel=11, note=28, velocity=120, time=1),
    Message('note_off', channel=11, note=28, velocity=64, time=191),
    Message('note_on', channel=11, note=28, velocity=120, time=1),
    Message('note_off', channel=11, note=28, velocity=64, time=191),
    Message('note_on', channel=11, note=29, velocity=120, time=1),
    Message('note_off', channel=11, note=29, velocity=64, time=191),
    Message('note_on', channel=11, note=28, velocity=120, time=1),
    Message('note_off', channel=11, note=28, velocity=64, time=191),
    Message('note_on', channel=11, note=28, velocity=120, time=1),
    Message('note_off', channel=11, note=28, velocity=64, time=191),
    Message('note_on', channel=11, note=28, velocity=120, time=1),
    Message('note_off', channel=11, note=28, velocity=64, time=191),
    Message('note_on', channel=11, note=28, velocity=120, time=1),
    Message('note_off', channel=11, note=28, velocity=64, time=191),
    Message('note_on', channel=11, note=28, velocity=120, time=1),
    Message('note_off', channel=11, note=28, velocity=64, time=191),
    Message('note_on', channel=11, note=28, velocity=120, time=1),
    Message('note_off', channel=11, note=28, velocity=64, time=191),
    Message('note_on', channel=11, note=28, velocity=120, time=1),
    Message('note_off', channel=11, note=28, velocity=64, time=191),
    Message('note_on', channel=11, note=28, velocity=120, time=1),
    Message('note_off', channel=11, note=28, velocity=64, time=191),
    Message('note_on', channel=11, note=28, velocity=120, time=1),
    Message('note_off', channel=11, note=28, velocity=64, time=191),
    Message('note_on', channel=11, note=28, velocity=120, time=1),
    Message('note_off', channel=11, note=28, velocity=64, time=191),
    Message('note_on', channel=11, note=28, velocity=120, time=1),
    Message('note_off', channel=11, note=28, velocity=64, time=191),
    Message('note_on', channel=11, note=28, velocity=120, time=1),
    Message('note_off', channel=11, note=28, velocity=64, time=191),
    Message('note_on', channel=11, note=28, velocity=120, time=1),
    Message('note_off', channel=11, note=28, velocity=64, time=191),
    Message('note_on', channel=11, note=28, velocity=120, time=1),
    Message('note_off', channel=11, note=28, velocity=64, time=191),
    Message('note_on', channel=11, note=28, velocity=120, time=1),
    Message('note_off', channel=11, note=28, velocity=64, time=191),
    Message('note_on', channel=11, note=28, velocity=120, time=1),
    Message('note_off', channel=11, note=28, velocity=64, time=191),
    Message('note_on', channel=11, note=28, velocity=120, time=1),
    Message('note_off', channel=11, note=28, velocity=64, time=191),
    Message('note_on', channel=11, note=28, velocity=120, time=1),
    Message('note_off', channel=11, note=28, velocity=64, time=191),
    Message('note_on', channel=11, note=28, velocity=120, time=1),
    Message('note_off', channel=11, note=28, velocity=64, time=191),
    Message('note_on', channel=11, note=28, velocity=120, time=1),
    Message('note_off', channel=11, note=28, velocity=64, time=191),
    Message('note_on', channel=11, note=28, velocity=120, time=1),
    Message('note_off', channel=11, note=28, velocity=64, time=191),
    Message('note_on', channel=11, note=28, velocity=120, time=1),
    Message('note_off', channel=11, note=28, velocity=64, time=191),
    Message('note_on', channel=11, note=28, velocity=120, time=1),
    Message('note_off', channel=11, note=28, velocity=64, time=191),
    Message('note_on', channel=11, note=28, velocity=120, time=1),
    Message('note_off', channel=11, note=28, velocity=64, time=191),
    Message('note_on', channel=11, note=28, velocity=120, time=1),
    Message('note_off', channel=11, note=28, velocity=64, time=191),
    Message('note_on', channel=11, note=28, velocity=120, time=1),
    Message('note_off', channel=11, note=28, velocity=64, time=191),
    Message('note_on', channel=11, note=28, velocity=120, time=1),
    Message('note_off', channel=11, note=28, velocity=64, time=191),
    Message('note_on', channel=11, note=28, velocity=120, time=1),
    Message('note_off', channel=11, note=28, velocity=64, time=191),
    Message('note_on', channel=11, note=28, velocity=120, time=1),
    Message('note_off', channel=11, note=28, velocity=64, time=191),
    Message('note_on', channel=11, note=28, velocity=120, time=1),
    Message('note_off', channel=11, note=28, velocity=64, time=191),
    Message('note_on', channel=11, note=28, velocity=120, time=1),
    Message('note_off', channel=11, note=28, velocity=64, time=191),
    Message('note_on', channel=11, note=28, velocity=120, time=1),
    Message('note_off', channel=11, note=28, velocity=64, time=191),
    Message('note_on', channel=11, note=28, velocity=120, time=1),
    Message('note_off', channel=11, note=28, velocity=64, time=191),
    Message('note_on', channel=11, note=28, velocity=120, time=1),
    Message('note_off', channel=11, note=28, velocity=64, time=191),
    Message('note_on', channel=11, note=28, velocity=120, time=1),
    Message('note_off', channel=11, note=28, velocity=64, time=191),
    Message('note_on', channel=11, note=28, velocity=120, time=1),
    Message('note_off', channel=11, note=28, velocity=64, time=191),
    Message('note_on', channel=11, note=28, velocity=120, time=1),
    Message('note_off', channel=11, note=28, velocity=64, time=191),
    Message('note_on', channel=11, note=28, velocity=120, time=1),
    Message('note_off', channel=11, note=28, velocity=64, time=191),
    Message('note_on', channel=11, note=28, velocity=120, time=1),
    Message('note_off', channel=11, note=28, velocity=64, time=191),
    Message('note_on', channel=11, note=28, velocity=120, time=1),
    Message('note_off', channel=11, note=28, velocity=64, time=191),
    Message('note_on', channel=11, note=28, velocity=120, time=1),
    Message('note_off', channel=11, note=28, velocity=64, time=191),
    Message('note_on', channel=11, note=28, velocity=120, time=1),
    Message('note_off', channel=11, note=28, velocity=64, time=191),
    Message('note_on', channel=11, note=28, velocity=120, time=1),
    Message('note_off', channel=11, note=28, velocity=64, time=191),
    Message('note_on', channel=11, note=28, velocity=120, time=1),
    Message('note_off', channel=11, note=28, velocity=64, time=191),
    Message('note_on', channel=11, note=28, velocity=120, time=1),
    Message('note_off', channel=11, note=28, velocity=64, time=191),
    Message('note_on', channel=11, note=28, velocity=120, time=1),
    Message('note_off', channel=11, note=28, velocity=64, time=191),
    Message('note_on', channel=11, note=28, velocity=120, time=1),
    Message('note_off', channel=11, note=28, velocity=64, time=191),
    Message('note_on', channel=11, note=28, velocity=120, time=1),
    Message('note_off', channel=11, note=28, velocity=64, time=191),
    Message('note_on', channel=11, note=28, velocity=119, time=1),
    Message('note_off', channel=11, note=28, velocity=64, time=191),
    Message('note_on', channel=11, note=28, velocity=117, time=1),
    Message('note_off', channel=11, note=28, velocity=64, time=191),
    Message('note_on', channel=11, note=28, velocity=116, time=1),
    Message('note_off', channel=11, note=28, velocity=64, time=191),
    Message('note_on', channel=11, note=28, velocity=114, time=1),
    Message('note_off', channel=11, note=28, velocity=64, time=191),
    Message('note_on', channel=11, note=28, velocity=112, time=1),
    Message('note_off', channel=11, note=28, velocity=64, time=191),
    Message('note_on', channel=11, note=28, velocity=110, time=1),
    Message('note_off', channel=11, note=28, velocity=64, time=191),
    Message('note_on', channel=11, note=28, velocity=108, time=1),
    Message('note_off', channel=11, note=28, velocity=64, time=191),
    Message('note_on', channel=11, note=28, velocity=106, time=1),
    Message('note_off', channel=11, note=28, velocity=64, time=191),
    Message('note_on', channel=11, note=28, velocity=104, time=1),
    Message('note_off', channel=11, note=28, velocity=64, time=191),
    Message('note_on', channel=11, note=28, velocity=102, time=1),
    Message('note_off', channel=11, note=28, velocity=64, time=191),
    Message('note_on', channel=11, note=28, velocity=101, time=1),
    Message('note_off', channel=11, note=28, velocity=64, time=191),
    Message('note_on', channel=11, note=28, velocity=99, time=1),
    Message('note_off', channel=11, note=28, velocity=64, time=191),
    Message('note_on', channel=11, note=28, velocity=97, time=1),
    Message('note_off', channel=11, note=28, velocity=64, time=191),
    Message('note_on', channel=11, note=28, velocity=95, time=1),
    Message('note_off', channel=11, note=28, velocity=64, time=191),
    Message('note_on', channel=11, note=28, velocity=93, time=1),
    Message('note_off', channel=11, note=28, velocity=64, time=191),
    Message('note_on', channel=11, note=28, velocity=91, time=1),
    Message('note_off', channel=11, note=28, velocity=64, time=191),
    Message('note_on', channel=11, note=28, velocity=89, time=1),
    Message('note_off', channel=11, note=28, velocity=64, time=191),
    Message('note_on', channel=11, note=28, velocity=87, time=1),
    Message('note_off', channel=11, note=28, velocity=64, time=191),
    Message('note_on', channel=11, note=28, velocity=86, time=1),
    Message('note_off', channel=11, note=28, velocity=64, time=191),
    Message('note_on', channel=11, note=28, velocity=84, time=1),
    Message('note_off', channel=11, note=28, velocity=64, time=191),
    Message('note_on', channel=11, note=28, velocity=82, time=1),
    Message('note_off', channel=11, note=28, velocity=64, time=191),
    Message('note_on', channel=11, note=28, velocity=80, time=1),
    Message('note_off', channel=11, note=28, velocity=64, time=191),
    Message('note_on', channel=11, note=28, velocity=78, time=1),
    Message('note_off', channel=11, note=28, velocity=64, time=191),
    Message('note_on', channel=11, note=28, velocity=76, time=1),
    Message('note_off', channel=11, note=28, velocity=64, time=191),
    Message('note_on', channel=11, note=28, velocity=74, time=1),
    Message('note_off', channel=11, note=28, velocity=64, time=191),
    Message('note_on', channel=11, note=28, velocity=72, time=1),
    Message('note_off', channel=11, note=28, velocity=64, time=191),
    Message('note_on', channel=11, note=28, velocity=71, time=1),
    Message('note_off', channel=11, note=28, velocity=64, time=191),
    Message('note_on', channel=11, note=28, velocity=69, time=1),
    Message('note_off', channel=11, note=28, velocity=64, time=191),
    Message('note_on', channel=11, note=28, velocity=67, time=1),
    Message('note_off', channel=11, note=28, velocity=64, time=191),
    Message('note_on', channel=11, note=28, velocity=65, time=1),
    Message('note_off', channel=11, note=28, velocity=64, time=191),
    Message('note_on', channel=11, note=28, velocity=63, time=1),
    Message('note_off', channel=11, note=28, velocity=64, time=191),
    Message('note_on', channel=11, note=28, velocity=61, time=1),
    Message('note_off', channel=11, note=28, velocity=64, time=191),
    Message('note_on', channel=11, note=28, velocity=59, time=1),
    Message('note_off', channel=11, note=28, velocity=64, time=191),
    Message('note_on', channel=11, note=28, velocity=58, time=1),
    Message('note_off', channel=11, note=28, velocity=64, time=191),
    Message('note_on', channel=11, note=28, velocity=56, time=1),
    Message('note_off', channel=11, note=28, velocity=64, time=191),
    Message('note_on', channel=11, note=28, velocity=54, time=1),
    Message('note_off', channel=11, note=28, velocity=64, time=191),
    Message('note_on', channel=11, note=28, velocity=52, time=1),
    Message('note_off', channel=11, note=28, velocity=64, time=191),
    Message('note_on', channel=11, note=28, velocity=50, time=1),
    Message('note_off', channel=11, note=28, velocity=64, time=191),
    Message('note_on', channel=11, note=28, velocity=48, time=1),
    Message('note_off', channel=11, note=28, velocity=64, time=191),
    Message('note_on', channel=11, note=28, velocity=46, time=1),
    Message('note_off', channel=11, note=28, velocity=64, time=191),
    Message('note_on', channel=11, note=28, velocity=44, time=1),
    Message('note_off', channel=11, note=28, velocity=64, time=191),
    Message('note_on', channel=11, note=28, velocity=43, time=1),
    Message('note_off', channel=11, note=28, velocity=64, time=191),
    Message('note_on', channel=11, note=28, velocity=41, time=1),
    Message('note_off', channel=11, note=28, velocity=64, time=191),
    Message('note_on', channel=11, note=28, velocity=39, time=1),
    Message('note_off', channel=11, note=28, velocity=64, time=191),
    Message('note_on', channel=11, note=28, velocity=37, time=1),
    Message('note_off', channel=11, note=28, velocity=64, time=191),
    Message('note_on', channel=11, note=28, velocity=35, time=1),
    Message('note_off', channel=11, note=28, velocity=64, time=191),
    Message('note_on', channel=11, note=28, velocity=33, time=1),
    Message('note_off', channel=11, note=28, velocity=64, time=191),
    Message('note_on', channel=11, note=28, velocity=31, time=1),
    Message('note_off', channel=11, note=28, velocity=64, time=191),
    Message('note_on', channel=11, note=28, velocity=29, time=1),
    Message('note_off', channel=11, note=28, velocity=64, time=191),
    Message('note_on', channel=11, note=28, velocity=28, time=1),
    Message('note_off', channel=11, note=28, velocity=64, time=191),
    Message('note_on', channel=11, note=28, velocity=26, time=1),
    Message('note_off', channel=11, note=28, velocity=64, time=191),
    Message('note_on', channel=11, note=28, velocity=24, time=1),
    Message('note_off', channel=11, note=28, velocity=64, time=191),
    Message('note_on', channel=11, note=28, velocity=22, time=1),
    Message('note_off', channel=11, note=28, velocity=64, time=191),
    Message('note_on', channel=11, note=28, velocity=20, time=1),
    Message('note_off', channel=11, note=28, velocity=64, time=191),
    Message('note_on', channel=11, note=28, velocity=18, time=1),
    Message('note_off', channel=11, note=28, velocity=64, time=191),
    Message('note_on', channel=11, note=28, velocity=16, time=1),
    Message('note_off', channel=11, note=28, velocity=64, time=191),
    Message('note_on', channel=11, note=28, velocity=14, time=1),
    Message('note_off', channel=11, note=28, velocity=64, time=191),
    Message('note_on', channel=11, note=28, velocity=13, time=1),
    Message('note_off', channel=11, note=28, velocity=64, time=191),
    Message('note_on', channel=11, note=28, velocity=11, time=1),
    Message('note_off', channel=11, note=28, velocity=64, time=191),
    Message('note_on', channel=11, note=28, velocity=9, time=1),
    Message('note_off', channel=11, note=28, velocity=64, time=191),
    Message('note_on', channel=11, note=28, velocity=7, time=1),
    Message('note_off', channel=11, note=28, velocity=64, time=191),
    Message('note_on', channel=11, note=28, velocity=5, time=1),
    Message('note_off', channel=11, note=28, velocity=64, time=191),
    Message('note_on', channel=11, note=28, velocity=3, time=1),
    Message('note_off', channel=11, note=28, velocity=64, time=191),
    Message('note_on', channel=11, note=28, velocity=1, time=1),
    Message('note_off', channel=11, note=28, velocity=64, time=191),
    MetaMessage('end_of_track', time=1)]),
  MidiTrack([
    MetaMessage('track_name', name='Drums', time=0),
    Message('control_change', channel=9, control=7, value=100, time=0),
    Message('control_change', channel=9, control=7, value=100, time=4608),
    Message('note_on', channel=9, note=42, velocity=40, time=1920),
    Message('note_off', channel=9, note=42, velocity=64, time=383),
    Message('note_on', channel=9, note=42, velocity=40, time=385),
    Message('note_off', channel=9, note=42, velocity=64, time=383),
    Message('note_on', channel=9, note=42, velocity=40, time=385),
    Message('note_off', channel=9, note=42, velocity=64, time=383),
    Message('note_on', channel=9, note=42, velocity=40, time=385),
    Message('note_off', channel=9, note=42, velocity=64, time=383),
    Message('note_on', channel=9, note=42, velocity=40, time=385),
    Message('note_off', channel=9, note=42, velocity=64, time=383),
    Message('note_on', channel=9, note=42, velocity=40, time=385),
    Message('note_off', channel=9, note=42, velocity=64, time=383),
    Message('note_on', channel=9, note=42, velocity=40, time=385),
    Message('note_off', channel=9, note=42, velocity=64, time=383),
    Message('note_on', channel=9, note=42, velocity=40, time=193),
    Message('note_off', channel=9, note=42, velocity=64, time=64),
    Message('note_on', channel=9, note=42, velocity=40, time=0),
    Message('note_off', channel=9, note=42, velocity=64, time=64),
    Message('note_on', channel=9, note=42, velocity=40, time=0),
    Message('note_off', channel=9, note=42, velocity=64, time=64),
    Message('note_on', channel=9, note=42, velocity=40, time=0),
    Message('note_off', channel=9, note=42, velocity=64, time=383),
    Message('note_on', channel=9, note=42, velocity=40, time=385),
    Message('note_off', channel=9, note=42, velocity=64, time=383),
    Message('note_on', channel=9, note=42, velocity=40, time=385),
    Message('note_off', channel=9, note=42, velocity=64, time=383),
    Message('note_on', channel=9, note=42, velocity=40, time=385),
    Message('note_off', channel=9, note=42, velocity=64, time=383),
    Message('note_on', channel=9, note=42, velocity=40, time=385),
    Message('note_off', channel=9, note=42, velocity=64, time=383),
    Message('note_on', channel=9, note=42, velocity=40, time=385),
    Message('note_off', channel=9, note=42, velocity=64, time=383),
    Message('note_on', channel=9, note=42, velocity=40, time=385),
    Message('note_off', channel=9, note=42, velocity=64, time=383),
    Message('note_on', channel=9, note=42, velocity=40, time=1),
    Message('note_off', channel=9, note=42, velocity=64, time=383),
    Message('note_on', channel=9, note=42, velocity=40, time=1),
    Message('note_off', channel=9, note=42, velocity=64, time=383),
    Message('note_on', channel=9, note=42, velocity=40, time=1),
    Message('note_off', channel=9, note=42, velocity=64, time=383),
    Message('note_on', channel=9, note=42, velocity=40, time=1),
    Message('note_off', channel=9, note=42, velocity=64, time=383),
    Message('note_on', channel=9, note=41, velocity=120, time=1),
    Message('note_on', channel=9, note=36, velocity=120, time=0),
    Message('note_off', channel=9, note=41, velocity=64, time=192),
    Message('note_on', channel=9, note=41, velocity=120, time=0),
    Message('note_off', channel=9, note=36, velocity=64, time=191),
    Message('note_off', channel=9, note=41, velocity=64, time=1),
    Message('note_on', channel=9, note=45, velocity=120, time=0),
    Message('note_on', channel=9, note=41, velocity=120, time=0),
    Message('note_on', channel=9, note=36, velocity=120, time=0),
    Message('note_off', channel=9, note=41, velocity=64, time=192),
    Message('note_off', channel=9, note=45, velocity=64, time=0),
    Message('note_on', channel=9, note=41, velocity=120, time=0),
    Message('note_off', channel=9, note=36, velocity=64, time=191),
    Message('note_off', channel=9, note=41, velocity=64, time=1),
    Message('note_on', channel=9, note=41, velocity=120, time=0),
    Message('note_on', channel=9, note=36, velocity=120, time=0),
    Message('note_off', channel=9, note=41, velocity=64, time=192),
    Message('note_on', channel=9, note=41, velocity=120, time=0),
    Message('note_off', channel=9, note=36, velocity=64, time=191),
    Message('note_off', channel=9, note=41, velocity=64, time=1),
    Message('note_on', channel=9, note=45, velocity=120, time=0),
    Message('note_on', channel=9, note=41, velocity=120, time=0),
    Message('note_on', channel=9, note=36, velocity=120, time=0),
    Message('note_off', channel=9, note=41, velocity=64, time=192),
    Message('note_off', channel=9, note=45, velocity=64, time=0),
    Message('note_on', channel=9, note=43, velocity=120, time=0),
    Message('note_on', channel=9, note=41, velocity=120, time=0),
    Message('note_off', channel=9, note=36, velocity=64, time=191),
    Message('note_off', channel=9, note=41, velocity=64, time=1),
    Message('note_off', channel=9, note=43, velocity=64, time=0),
    Message('note_on', channel=9, note=41, velocity=120, time=0),
    Message('note_on', channel=9, note=36, velocity=120, time=0),
    Message('note_off', channel=9, note=41, velocity=64, time=192),
    Message('note_on', channel=9, note=41, velocity=120, time=0),
    Message('note_off', channel=9, note=36, velocity=64, time=191),
    Message('note_off', channel=9, note=41, velocity=64, time=1),
    Message('note_on', channel=9, note=45, velocity=120, time=0),
    Message('note_on', channel=9, note=41, velocity=120, time=0),
    Message('note_on', channel=9, note=36, velocity=120, time=0),
    Message('note_off', channel=9, note=41, velocity=64, time=192),
    Message('note_off', channel=9, note=45, velocity=64, time=0),
    Message('note_on', channel=9, note=41, velocity=120, time=0),
    Message('note_off', channel=9, note=36, velocity=64, time=191),
    Message('note_off', channel=9, note=41, velocity=64, time=1),
    Message('note_on', channel=9, note=41, velocity=120, time=0),
    Message('note_on', channel=9, note=36, velocity=120, time=0),
    Message('note_off', channel=9, note=41, velocity=64, time=192),
    Message('note_on', channel=9, note=41, velocity=120, time=0),
    Message('note_off', channel=9, note=36, velocity=64, time=191),
    Message('note_off', channel=9, note=41, velocity=64, time=1),
    Message('note_on', channel=9, note=45, velocity=120, time=0),
    Message('note_on', channel=9, note=41, velocity=120, time=0),
    Message('note_on', channel=9, note=36, velocity=120, time=0),
    Message('note_off', channel=9, note=41, velocity=64, time=192),
    Message('note_off', channel=9, note=45, velocity=64, time=0),
    Message('note_on', channel=9, note=43, velocity=120, time=0),
    Message('note_on', channel=9, note=41, velocity=120, time=0),
    Message('note_off', channel=9, note=36, velocity=64, time=191),
    Message('note_off', channel=9, note=41, velocity=64, time=1),
    Message('note_off', channel=9, note=43, velocity=64, time=0),
    Message('note_on', channel=9, note=41, velocity=120, time=0),
    Message('note_on', channel=9, note=36, velocity=120, time=0),
    Message('note_off', channel=9, note=41, velocity=64, time=192),
    Message('note_on', channel=9, note=41, velocity=120, time=0),
    Message('note_off', channel=9, note=36, velocity=64, time=191),
    Message('note_off', channel=9, note=41, velocity=64, time=1),
    Message('note_on', channel=9, note=45, velocity=120, time=0),
    Message('note_on', channel=9, note=41, velocity=120, time=0),
    Message('note_on', channel=9, note=36, velocity=120, time=0),
    Message('note_off', channel=9, note=41, velocity=64, time=192),
    Message('note_off', channel=9, note=45, velocity=64, time=0),
    Message('note_on', channel=9, note=41, velocity=120, time=0),
    Message('note_off', channel=9, note=36, velocity=64, time=191),
    Message('note_off', channel=9, note=41, velocity=64, time=1),
    Message('note_on', channel=9, note=41, velocity=120, time=0),
    Message('note_on', channel=9, note=36, velocity=120, time=0),
    Message('note_off', channel=9, note=41, velocity=64, time=192),
    Message('note_on', channel=9, note=41, velocity=120, time=0),
    Message('note_off', channel=9, note=36, velocity=64, time=191),
    Message('note_off', channel=9, note=41, velocity=64, time=1),
    Message('note_on', channel=9, note=45, velocity=120, time=0),
    Message('note_on', channel=9, note=41, velocity=120, time=0),
    Message('note_on', channel=9, note=36, velocity=120, time=0),
    Message('note_off', channel=9, note=41, velocity=64, time=192),
    Message('note_off', channel=9, note=45, velocity=64, time=0),
    Message('note_on', channel=9, note=43, velocity=120, time=0),
    Message('note_on', channel=9, note=41, velocity=120, time=0),
    Message('note_off', channel=9, note=36, velocity=64, time=191),
    Message('note_off', channel=9, note=41, velocity=64, time=1),
    Message('note_off', channel=9, note=43, velocity=64, time=0),
    Message('note_on', channel=9, note=41, velocity=120, time=0),
    Message('note_on', channel=9, note=36, velocity=120, time=0),
    Message('note_off', channel=9, note=41, velocity=64, time=192),
    Message('note_on', channel=9, note=41, velocity=120, time=0),
    Message('note_off', channel=9, note=36, velocity=64, time=191),
    Message('note_off', channel=9, note=41, velocity=64, time=1),
    Message('note_on', channel=9, note=45, velocity=120, time=0),
    Message('note_on', channel=9, note=41, velocity=120, time=0),
    Message('note_on', channel=9, note=36, velocity=120, time=0),
    Message('note_off', channel=9, note=41, velocity=64, time=192),
    Message('note_off', channel=9, note=45, velocity=64, time=0),
    Message('note_on', channel=9, note=41, velocity=120, time=0),
    Message('note_off', channel=9, note=36, velocity=64, time=191),
    Message('note_off', channel=9, note=41, velocity=64, time=1),
    Message('note_on', channel=9, note=41, velocity=120, time=0),
    Message('note_on', channel=9, note=36, velocity=120, time=0),
    Message('note_off', channel=9, note=41, velocity=64, time=192),
    Message('note_on', channel=9, note=41, velocity=120, time=0),
    Message('note_off', channel=9, note=36, velocity=64, time=191),
    Message('note_off', channel=9, note=41, velocity=64, time=1),
    Message('note_on', channel=9, note=45, velocity=120, time=0),
    Message('note_on', channel=9, note=41, velocity=120, time=0),
    Message('note_on', channel=9, note=36, velocity=120, time=0),
    Message('note_off', channel=9, note=41, velocity=64, time=192),
    Message('note_off', channel=9, note=45, velocity=64, time=0),
    Message('note_on', channel=9, note=49, velocity=60, time=0),
    Message('note_on', channel=9, note=38, velocity=120, time=0),
    Message('note_off', channel=9, note=36, velocity=64, time=191),
    Message('note_off', channel=9, note=38, velocity=64, time=1),
    Message('note_off', channel=9, note=49, velocity=64, time=0),
    Message('note_on', channel=9, note=41, velocity=120, time=0),
    Message('note_on', channel=9, note=36, velocity=120, time=0),
    Message('note_off', channel=9, note=41, velocity=64, time=192),
    Message('note_on', channel=9, note=41, velocity=120, time=0),
    Message('note_off', channel=9, note=36, velocity=64, time=191),
    Message('note_off', channel=9, note=41, velocity=64, time=1),
    Message('note_on', channel=9, note=45, velocity=120, time=0),
    Message('note_on', channel=9, note=41, velocity=120, time=0),
    Message('note_on', channel=9, note=36, velocity=120, time=0),
    Message('note_off', channel=9, note=41, velocity=64, time=192),
    Message('note_off', channel=9, note=45, velocity=64, time=0),
    Message('note_on', channel=9, note=41, velocity=120, time=0),
    Message('note_off', channel=9, note=36, velocity=64, time=191),
    Message('note_off', channel=9, note=41, velocity=64, time=1),
    Message('note_on', channel=9, note=41, velocity=120, time=0),
    Message('note_on', channel=9, note=36, velocity=120, time=0),
    Message('note_off', channel=9, note=41, velocity=64, time=192),
    Message('note_on', channel=9, note=41, velocity=120, time=0),
    Message('note_off', channel=9, note=36, velocity=64, time=191),
    Message('note_off', channel=9, note=41, velocity=64, time=1),
    Message('note_on', channel=9, note=45, velocity=120, time=0),
    Message('note_on', channel=9, note=41, velocity=120, time=0),
    Message('note_on', channel=9, note=36, velocity=120, time=0),
    Message('note_off', channel=9, note=41, velocity=64, time=192),
    Message('note_off', channel=9, note=45, velocity=64, time=0),
    Message('note_on', channel=9, note=43, velocity=120, time=0),
    Message('note_on', channel=9, note=41, velocity=120, time=0),
    Message('note_off', channel=9, note=36, velocity=64, time=191),
    Message('note_off', channel=9, note=41, velocity=64, time=1),
    Message('note_off', channel=9, note=43, velocity=64, time=0),
    Message('note_on', channel=9, note=41, velocity=120, time=0),
    Message('note_on', channel=9, note=36, velocity=120, time=0),
    Message('note_off', channel=9, note=41, velocity=64, time=192),
    Message('note_on', channel=9, note=41, velocity=120, time=0),
    Message('note_off', channel=9, note=36, velocity=64, time=191),
    Message('note_off', channel=9, note=41, velocity=64, time=1),
    Message('note_on', channel=9, note=45, velocity=120, time=0),
    Message('note_on', channel=9, note=41, velocity=120, time=0),
    Message('note_on', channel=9, note=36, velocity=120, time=0),
    Message('note_off', channel=9, note=41, velocity=64, time=192),
    Message('note_off', channel=9, note=45, velocity=64, time=0),
    Message('note_on', channel=9, note=41, velocity=120, time=0),
    Message('note_off', channel=9, note=36, velocity=64, time=191),
    Message('note_off', channel=9, note=41, velocity=64, time=1),
    Message('note_on', channel=9, note=41, velocity=120, time=0),
    Message('note_on', channel=9, note=36, velocity=120, time=0),
    Message('note_off', channel=9, note=41, velocity=64, time=192),
    Message('note_on', channel=9, note=41, velocity=120, time=0),
    Message('note_off', channel=9, note=36, velocity=64, time=191),
    Message('note_off', channel=9, note=41, velocity=64, time=1),
    Message('note_on', channel=9, note=45, velocity=120, time=0),
    Message('note_on', channel=9, note=41, velocity=120, time=0),
    Message('note_on', channel=9, note=36, velocity=120, time=0),
    Message('note_off', channel=9, note=41, velocity=64, time=192),
    Message('note_off', channel=9, note=45, velocity=64, time=0),
    Message('note_on', channel=9, note=43, velocity=120, time=0),
    Message('note_on', channel=9, note=41, velocity=120, time=0),
    Message('note_off', channel=9, note=36, velocity=64, time=191),
    Message('note_off', channel=9, note=41, velocity=64, time=1),
    Message('note_off', channel=9, note=43, velocity=64, time=0),
    Message('note_on', channel=9, note=41, velocity=120, time=0),
    Message('note_on', channel=9, note=36, velocity=120, time=0),
    Message('note_off', channel=9, note=41, velocity=64, time=192),
    Message('note_on', channel=9, note=41, velocity=120, time=0),
    Message('note_off', channel=9, note=36, velocity=64, time=191),
    Message('note_off', channel=9, note=41, velocity=64, time=1),
    Message('note_on', channel=9, note=45, velocity=120, time=0),
    Message('note_on', channel=9, note=41, velocity=120, time=0),
    Message('note_on', channel=9, note=36, velocity=120, time=0),
    Message('note_off', channel=9, note=41, velocity=64, time=192),
    Message('note_off', channel=9, note=45, velocity=64, time=0),
    Message('note_on', channel=9, note=41, velocity=120, time=0),
    Message('note_off', channel=9, note=36, velocity=64, time=191),
    Message('note_off', channel=9, note=41, velocity=64, time=1),
    Message('note_on', channel=9, note=41, velocity=120, time=0),
    Message('note_on', channel=9, note=36, velocity=120, time=0),
    Message('note_off', channel=9, note=41, velocity=64, time=192),
    Message('note_on', channel=9, note=41, velocity=120, time=0),
    Message('note_off', channel=9, note=36, velocity=64, time=191),
    Message('note_off', channel=9, note=41, velocity=64, time=1),
    Message('note_on', channel=9, note=45, velocity=120, time=0),
    Message('note_on', channel=9, note=41, velocity=120, time=0),
    Message('note_on', channel=9, note=36, velocity=120, time=0),
    Message('note_off', channel=9, note=41, velocity=64, time=192),
    Message('note_off', channel=9, note=45, velocity=64, time=0),
    Message('note_on', channel=9, note=43, velocity=120, time=0),
    Message('note_on', channel=9, note=41, velocity=120, time=0),
    Message('note_off', channel=9, note=36, velocity=64, time=191),
    Message('note_off', channel=9, note=41, velocity=64, time=1),
    Message('note_off', channel=9, note=43, velocity=64, time=0),
    Message('note_on', channel=9, note=41, velocity=120, time=0),
    Message('note_on', channel=9, note=36, velocity=120, time=0),
    Message('note_off', channel=9, note=41, velocity=64, time=192),
    Message('note_on', channel=9, note=41, velocity=120, time=0),
    Message('note_off', channel=9, note=36, velocity=64, time=191),
    Message('note_off', channel=9, note=41, velocity=64, time=1),
    Message('note_on', channel=9, note=45, velocity=120, time=0),
    Message('note_on', channel=9, note=41, velocity=120, time=0),
    Message('note_on', channel=9, note=36, velocity=120, time=0),
    Message('note_off', channel=9, note=41, velocity=64, time=192),
    Message('note_off', channel=9, note=45, velocity=64, time=0),
    Message('note_on', channel=9, note=49, velocity=60, time=0),
    Message('note_on', channel=9, note=38, velocity=120, time=0),
    Message('note_off', channel=9, note=36, velocity=64, time=191),
    Message('note_off', channel=9, note=38, velocity=64, time=1),
    Message('note_off', channel=9, note=49, velocity=64, time=0),
    Message('note_on', channel=9, note=41, velocity=120, time=0),
    Message('note_on', channel=9, note=36, velocity=120, time=0),
    Message('note_off', channel=9, note=41, velocity=64, time=192),
    Message('note_on', channel=9, note=41, velocity=120, time=0),
    Message('note_off', channel=9, note=36, velocity=64, time=191),
    Message('note_off', channel=9, note=41, velocity=64, time=1),
    Message('note_on', channel=9, note=45, velocity=120, time=0),
    Message('note_on', channel=9, note=41, velocity=120, time=0),
    Message('note_on', channel=9, note=36, velocity=120, time=0),
    Message('note_off', channel=9, note=41, velocity=64, time=192),
    Message('note_off', channel=9, note=45, velocity=64, time=0),
    Message('note_on', channel=9, note=49, velocity=60, time=0),
    Message('note_on', channel=9, note=38, velocity=120, time=0),
    Message('note_off', channel=9, note=36, velocity=64, time=191),
    Message('note_off', channel=9, note=38, velocity=64, time=1),
    Message('note_off', channel=9, note=49, velocity=64, time=0),
    Message('note_on', channel=9, note=41, velocity=120, time=0),
    Message('note_on', channel=9, note=36, velocity=120, time=0),
    Message('note_off', channel=9, note=41, velocity=64, time=192),
    Message('note_on', channel=9, note=41, velocity=120, time=0),
    Message('note_off', channel=9, note=36, velocity=64, time=191),
    Message('note_off', channel=9, note=41, velocity=64, time=1),
    Message('note_on', channel=9, note=45, velocity=120, time=0),
    Message('note_on', channel=9, note=41, velocity=120, time=0),
    Message('note_on', channel=9, note=36, velocity=120, time=0),
    Message('note_off', channel=9, note=41, velocity=64, time=192),
    Message('note_off', channel=9, note=45, velocity=64, time=0),
    Message('note_on', channel=9, note=41, velocity=120, time=0),
    Message('note_off', channel=9, note=36, velocity=64, time=191),
    Message('note_off', channel=9, note=41, velocity=64, time=1),
    Message('note_on', channel=9, note=41, velocity=120, time=0),
    Message('note_on', channel=9, note=36, velocity=120, time=0),
    Message('note_off', channel=9, note=41, velocity=64, time=192),
    Message('note_on', channel=9, note=41, velocity=120, time=0),
    Message('note_off', channel=9, note=36, velocity=64, time=191),
    Message('note_off', channel=9, note=41, velocity=64, time=1),
    Message('note_on', channel=9, note=45, velocity=120, time=0),
    Message('note_on', channel=9, note=41, velocity=120, time=0),
    Message('note_on', channel=9, note=36, velocity=120, time=0),
    Message('note_off', channel=9, note=41, velocity=64, time=192),
    Message('note_off', channel=9, note=45, velocity=64, time=0),
    Message('note_on', channel=9, note=43, velocity=120, time=0),
    Message('note_on', channel=9, note=41, velocity=120, time=0),
    Message('note_off', channel=9, note=36, velocity=64, time=191),
    Message('note_off', channel=9, note=41, velocity=64, time=1),
    Message('note_off', channel=9, note=43, velocity=64, time=0),
    Message('note_on', channel=9, note=41, velocity=120, time=0),
    Message('note_on', channel=9, note=36, velocity=120, time=0),
    Message('note_off', channel=9, note=41, velocity=64, time=192),
    Message('note_on', channel=9, note=41, velocity=120, time=0),
    Message('note_off', channel=9, note=36, velocity=64, time=191),
    Message('note_off', channel=9, note=41, velocity=64, time=1),
    Message('note_on', channel=9, note=45, velocity=120, time=0),
    Message('note_on', channel=9, note=41, velocity=120, time=0),
    Message('note_on', channel=9, note=36, velocity=120, time=0),
    Message('note_off', channel=9, note=41, velocity=64, time=192),
    Message('note_off', channel=9, note=45, velocity=64, time=0),
    Message('note_on', channel=9, note=41, velocity=120, time=0),
    Message('note_off', channel=9, note=36, velocity=64, time=191),
    Message('note_off', channel=9, note=41, velocity=64, time=1),
    Message('note_on', channel=9, note=41, velocity=120, time=0),
    Message('note_on', channel=9, note=36, velocity=120, time=0),
    Message('note_off', channel=9, note=41, velocity=64, time=192),
    Message('note_on', channel=9, note=41, velocity=120, time=0),
    Message('note_off', channel=9, note=36, velocity=64, time=191),
    Message('note_off', channel=9, note=41, velocity=64, time=1),
    Message('note_on', channel=9, note=45, velocity=120, time=0),
    Message('note_on', channel=9, note=41, velocity=120, time=0),
    Message('note_on', channel=9, note=36, velocity=120, time=0),
    Message('note_off', channel=9, note=41, velocity=64, time=192),
    Message('note_off', channel=9, note=45, velocity=64, time=0),
    Message('note_on', channel=9, note=43, velocity=120, time=0),
    Message('note_on', channel=9, note=41, velocity=120, time=0),
    Message('note_off', channel=9, note=36, velocity=64, time=191),
    Message('note_off', channel=9, note=41, velocity=64, time=1),
    Message('note_off', channel=9, note=43, velocity=64, time=0),
    Message('note_on', channel=9, note=41, velocity=120, time=0),
    Message('note_on', channel=9, note=36, velocity=120, time=0),
    Message('note_off', channel=9, note=41, velocity=64, time=192),
    Message('note_on', channel=9, note=41, velocity=120, time=0),
    Message('note_off', channel=9, note=36, velocity=64, time=191),
    Message('note_off', channel=9, note=41, velocity=64, time=1),
    Message('note_on', channel=9, note=45, velocity=120, time=0),
    Message('note_on', channel=9, note=41, velocity=120, time=0),
    Message('note_on', channel=9, note=36, velocity=120, time=0),
    Message('note_off', channel=9, note=41, velocity=64, time=192),
    Message('note_off', channel=9, note=45, velocity=64, time=0),
    Message('note_on', channel=9, note=41, velocity=120, time=0),
    Message('note_off', channel=9, note=36, velocity=64, time=191),
    Message('note_off', channel=9, note=41, velocity=64, time=1),
    Message('note_on', channel=9, note=41, velocity=120, time=0),
    Message('note_on', channel=9, note=36, velocity=120, time=0),
    Message('note_off', channel=9, note=41, velocity=64, time=192),
    Message('note_on', channel=9, note=41, velocity=120, time=0),
    Message('note_off', channel=9, note=36, velocity=64, time=191),
    Message('note_off', channel=9, note=41, velocity=64, time=1),
    Message('note_on', channel=9, note=45, velocity=120, time=0),
    Message('note_on', channel=9, note=41, velocity=120, time=0),
    Message('note_on', channel=9, note=36, velocity=120, time=0),
    Message('note_off', channel=9, note=41, velocity=64, time=192),
    Message('note_off', channel=9, note=45, velocity=64, time=0),
    Message('note_on', channel=9, note=43, velocity=120, time=0),
    Message('note_on', channel=9, note=41, velocity=120, time=0),
    Message('note_off', channel=9, note=36, velocity=64, time=191),
    Message('note_off', channel=9, note=41, velocity=64, time=1),
    Message('note_off', channel=9, note=43, velocity=64, time=0),
    Message('note_on', channel=9, note=41, velocity=120, time=0),
    Message('note_on', channel=9, note=36, velocity=120, time=0),
    Message('note_off', channel=9, note=41, velocity=64, time=192),
    Message('note_on', channel=9, note=41, velocity=120, time=0),
    Message('note_off', channel=9, note=36, velocity=64, time=191),
    Message('note_off', channel=9, note=41, velocity=64, time=1),
    Message('note_on', channel=9, note=45, velocity=120, time=0),
    Message('note_on', channel=9, note=41, velocity=120, time=0),
    Message('note_on', channel=9, note=36, velocity=120, time=0),
    Message('note_off', channel=9, note=41, velocity=64, time=192),
    Message('note_off', channel=9, note=45, velocity=64, time=0),
    Message('note_on', channel=9, note=49, velocity=60, time=0),
    Message('note_on', channel=9, note=38, velocity=120, time=0),
    Message('note_off', channel=9, note=38, velocity=64, time=191),
    Message('note_off', channel=9, note=49, velocity=64, time=0),
    Message('note_off', channel=9, note=36, velocity=64, time=0),
    Message('note_on', channel=9, note=36, velocity=120, time=1),
    Message('note_on', channel=9, note=49, velocity=60, time=192),
    Message('note_on', channel=9, note=38, velocity=120, time=0),
    Message('note_off', channel=9, note=38, velocity=64, time=191),
    Message('note_off', channel=9, note=49, velocity=64, time=0),
    Message('note_off', channel=9, note=36, velocity=64, time=0),
    Message('note_on', channel=9, note=36, velocity=120, time=1),
    Message('note_on', channel=9, note=49, velocity=60, time=192),
    Message('note_on', channel=9, note=38, velocity=120, time=0),
    Message('note_off', channel=9, note=36, velocity=64, time=191),
    Message('note_off', channel=9, note=38, velocity=64, time=1),
    Message('note_off', channel=9, note=49, velocity=64, time=0),
    Message('note_on', channel=9, note=41, velocity=120, time=0),
    Message('note_on', channel=9, note=36, velocity=120, time=0),
    Message('note_off', channel=9, note=41, velocity=64, time=192),
    Message('note_on', channel=9, note=41, velocity=120, time=0),
    Message('note_off', channel=9, note=36, velocity=64, time=191),
    Message('note_off', channel=9, note=41, velocity=64, time=1),
    Message('note_on', channel=9, note=45, velocity=120, time=0),
    Message('note_on', channel=9, note=41, velocity=120, time=0),
    Message('note_on', channel=9, note=36, velocity=120, time=0),
    Message('note_off', channel=9, note=41, velocity=64, time=192),
    Message('note_off', channel=9, note=45, velocity=64, time=0),
    Message('note_on', channel=9, note=41, velocity=120, time=0),
    Message('note_off', channel=9, note=36, velocity=64, time=191),
    Message('note_off', channel=9, note=41, velocity=64, time=1),
    Message('note_on', channel=9, note=41, velocity=120, time=0),
    Message('note_on', channel=9, note=36, velocity=120, time=0),
    Message('note_off', channel=9, note=41, velocity=64, time=192),
    Message('note_on', channel=9, note=41, velocity=120, time=0),
    Message('note_off', channel=9, note=36, velocity=64, time=191),
    Message('note_off', channel=9, note=41, velocity=64, time=1),
    Message('note_on', channel=9, note=45, velocity=120, time=0),
    Message('note_on', channel=9, note=41, velocity=120, time=0),
    Message('note_on', channel=9, note=36, velocity=120, time=0),
    Message('note_off', channel=9, note=41, velocity=64, time=192),
    Message('note_off', channel=9, note=45, velocity=64, time=0),
    Message('note_on', channel=9, note=38, velocity=120, time=0),
    Message('note_on', channel=9, note=41, velocity=120, time=0),
    Message('note_off', channel=9, note=36, velocity=64, time=191),
    Message('note_off', channel=9, note=41, velocity=64, time=1),
    Message('note_off', channel=9, note=38, velocity=64, time=0),
    Message('note_on', channel=9, note=41, velocity=120, time=0),
    Message('note_on', channel=9, note=36, velocity=120, time=0),
    Message('note_off', channel=9, note=41, velocity=64, time=192),
    Message('note_on', channel=9, note=41, velocity=120, time=0),
    Message('note_off', channel=9, note=36, velocity=64, time=191),
    Message('note_off', channel=9, note=41, velocity=64, time=1),
    Message('note_on', channel=9, note=45, velocity=120, time=0),
    Message('note_on', channel=9, note=41, velocity=120, time=0),
    Message('note_on', channel=9, note=36, velocity=120, time=0),
    Message('note_off', channel=9, note=41, velocity=64, time=192),
    Message('note_off', channel=9, note=45, velocity=64, time=0),
    Message('note_on', channel=9, note=41, velocity=120, time=0),
    Message('note_off', channel=9, note=36, velocity=64, time=191),
    Message('note_off', channel=9, note=41, velocity=64, time=1),
    Message('note_on', channel=9, note=41, velocity=120, time=0),
    Message('note_on', channel=9, note=36, velocity=120, time=0),
    Message('note_off', channel=9, note=41, velocity=64, time=192),
    Message('note_on', channel=9, note=41, velocity=120, time=0),
    Message('note_off', channel=9, note=36, velocity=64, time=191),
    Message('note_off', channel=9, note=41, velocity=64, time=1),
    Message('note_on', channel=9, note=45, velocity=120, time=0),
    Message('note_on', channel=9, note=41, velocity=120, time=0),
    Message('note_on', channel=9, note=36, velocity=120, time=0),
    Message('note_off', channel=9, note=41, velocity=64, time=192),
    Message('note_off', channel=9, note=45, velocity=64, time=0),
    Message('note_on', channel=9, note=38, velocity=120, time=0),
    Message('note_on', channel=9, note=41, velocity=120, time=0),
    Message('note_off', channel=9, note=36, velocity=64, time=191),
    Message('note_off', channel=9, note=41, velocity=64, time=1),
    Message('note_off', channel=9, note=38, velocity=64, time=0),
    Message('note_on', channel=9, note=41, velocity=120, time=0),
    Message('note_on', channel=9, note=36, velocity=120, time=0),
    Message('note_off', channel=9, note=41, velocity=64, time=192),
    Message('note_on', channel=9, note=41, velocity=120, time=0),
    Message('note_off', channel=9, note=36, velocity=64, time=191),
    Message('note_off', channel=9, note=41, velocity=64, time=1),
    Message('note_on', channel=9, note=45, velocity=120, time=0),
    Message('note_on', channel=9, note=41, velocity=120, time=0),
    Message('note_on', channel=9, note=36, velocity=120, time=0),
    Message('note_off', channel=9, note=41, velocity=64, time=192),
    Message('note_off', channel=9, note=45, velocity=64, time=0),
    Message('note_on', channel=9, note=41, velocity=120, time=0),
    Message('note_off', channel=9, note=36, velocity=64, time=191),
    Message('note_off', channel=9, note=41, velocity=64, time=1),
    Message('note_on', channel=9, note=41, velocity=120, time=0),
    Message('note_on', channel=9, note=36, velocity=120, time=0),
    Message('note_off', channel=9, note=41, velocity=64, time=192),
    Message('note_on', channel=9, note=41, velocity=120, time=0),
    Message('note_off', channel=9, note=36, velocity=64, time=191),
    Message('note_off', channel=9, note=41, velocity=64, time=1),
    Message('note_on', channel=9, note=45, velocity=120, time=0),
    Message('note_on', channel=9, note=41, velocity=120, time=0),
    Message('note_on', channel=9, note=36, velocity=120, time=0),
    Message('note_off', channel=9, note=41, velocity=64, time=192),
    Message('note_off', channel=9, note=45, velocity=64, time=0),
    Message('note_on', channel=9, note=38, velocity=120, time=0),
    Message('note_on', channel=9, note=41, velocity=120, time=0),
    Message('note_off', channel=9, note=36, velocity=64, time=191),
    Message('note_off', channel=9, note=41, velocity=64, time=1),
    Message('note_off', channel=9, note=38, velocity=64, time=0),
    Message('note_on', channel=9, note=41, velocity=120, time=0),
    Message('note_on', channel=9, note=36, velocity=120, time=0),
    Message('note_off', channel=9, note=41, velocity=64, time=192),
    Message('note_on', channel=9, note=41, velocity=120, time=0),
    Message('note_off', channel=9, note=36, velocity=64, time=191),
    Message('note_off', channel=9, note=41, velocity=64, time=1),
    Message('note_on', channel=9, note=45, velocity=120, time=0),
    Message('note_on', channel=9, note=41, velocity=120, time=0),
    Message('note_on', channel=9, note=36, velocity=120, time=0),
    Message('note_off', channel=9, note=41, velocity=64, time=192),
    Message('note_off', channel=9, note=45, velocity=64, time=0),
    Message('note_on', channel=9, note=41, velocity=120, time=0),
    Message('note_off', channel=9, note=36, velocity=64, time=191),
    Message('note_off', channel=9, note=41, velocity=64, time=1),
    Message('note_on', channel=9, note=41, velocity=120, time=0),
    Message('note_on', channel=9, note=36, velocity=120, time=0),
    Message('note_off', channel=9, note=41, velocity=64, time=192),
    Message('note_on', channel=9, note=41, velocity=120, time=0),
    Message('note_off', channel=9, note=36, velocity=64, time=191),
    Message('note_off', channel=9, note=41, velocity=64, time=1),
    Message('note_on', channel=9, note=41, velocity=120, time=0),
    Message('note_on', channel=9, note=36, velocity=120, time=0),
    Message('note_off', channel=9, note=41, velocity=64, time=192),
    Message('note_on', channel=9, note=49, velocity=60, time=0),
    Message('note_on', channel=9, note=38, velocity=120, time=0),
    Message('note_off', channel=9, note=36, velocity=64, time=191),
    Message('note_off', channel=9, note=38, velocity=64, time=1),
    Message('note_off', channel=9, note=49, velocity=64, time=0),
    Message('note_on', channel=9, note=41, velocity=120, time=0),
    Message('note_on', channel=9, note=36, velocity=120, time=0),
    Message('note_off', channel=9, note=41, velocity=64, time=192),
    Message('note_on', channel=9, note=41, velocity=120, time=0),
    Message('note_off', channel=9, note=36, velocity=64, time=191),
    Message('note_off', channel=9, note=41, velocity=64, time=1),
    Message('note_on', channel=9, note=45, velocity=120, time=0),
    Message('note_on', channel=9, note=41, velocity=120, time=0),
    Message('note_on', channel=9, note=36, velocity=120, time=0),
    Message('note_off', channel=9, note=41, velocity=64, time=192),
    Message('note_off', channel=9, note=45, velocity=64, time=0),
    Message('note_on', channel=9, note=41, velocity=120, time=0),
    Message('note_off', channel=9, note=36, velocity=64, time=191),
    Message('note_off', channel=9, note=41, velocity=64, time=1),
    Message('note_on', channel=9, note=41, velocity=120, time=0),
    Message('note_on', channel=9, note=36, velocity=120, time=0),
    Message('note_off', channel=9, note=41, velocity=64, time=192),
    Message('note_on', channel=9, note=41, velocity=120, time=0),
    Message('note_off', channel=9, note=36, velocity=64, time=191),
    Message('note_off', channel=9, note=41, velocity=64, time=1),
    Message('note_on', channel=9, note=45, velocity=120, time=0),
    Message('note_on', channel=9, note=41, velocity=120, time=0),
    Message('note_on', channel=9, note=36, velocity=120, time=0),
    Message('note_off', channel=9, note=41, velocity=64, time=192),
    Message('note_off', channel=9, note=45, velocity=64, time=0),
    Message('note_on', channel=9, note=38, velocity=120, time=0),
    Message('note_on', channel=9, note=41, velocity=120, time=0),
    Message('note_off', channel=9, note=36, velocity=64, time=191),
    Message('note_off', channel=9, note=41, velocity=64, time=1),
    Message('note_off', channel=9, note=38, velocity=64, time=0),
    Message('note_on', channel=9, note=41, velocity=120, time=0),
    Message('note_on', channel=9, note=36, velocity=120, time=0),
    Message('note_off', channel=9, note=41, velocity=64, time=192),
    Message('note_on', channel=9, note=41, velocity=120, time=0),
    Message('note_off', channel=9, note=36, velocity=64, time=191),
    Message('note_off', channel=9, note=41, velocity=64, time=1),
    Message('note_on', channel=9, note=45, velocity=120, time=0),
    Message('note_on', channel=9, note=41, velocity=120, time=0),
    Message('note_on', channel=9, note=36, velocity=120, time=0),
    Message('note_off', channel=9, note=41, velocity=64, time=192),
    Message('note_off', channel=9, note=45, velocity=64, time=0),
    Message('note_on', channel=9, note=41, velocity=120, time=0),
    Message('note_off', channel=9, note=36, velocity=64, time=191),
    Message('note_off', channel=9, note=41, velocity=64, time=1),
    Message('note_on', channel=9, note=41, velocity=120, time=0),
    Message('note_on', channel=9, note=36, velocity=120, time=0),
    Message('note_off', channel=9, note=41, velocity=64, time=192),
    Message('note_on', channel=9, note=41, velocity=120, time=0),
    Message('note_off', channel=9, note=36, velocity=64, time=191),
    Message('note_off', channel=9, note=41, velocity=64, time=1),
    Message('note_on', channel=9, note=45, velocity=120, time=0),
    Message('note_on', channel=9, note=41, velocity=120, time=0),
    Message('note_on', channel=9, note=36, velocity=120, time=0),
    Message('note_off', channel=9, note=41, velocity=64, time=192),
    Message('note_off', channel=9, note=45, velocity=64, time=0),
    Message('note_on', channel=9, note=38, velocity=120, time=0),
    Message('note_on', channel=9, note=41, velocity=120, time=0),
    Message('note_off', channel=9, note=36, velocity=64, time=191),
    Message('note_off', channel=9, note=41, velocity=64, time=1),
    Message('note_off', channel=9, note=38, velocity=64, time=0),
    Message('note_on', channel=9, note=38, velocity=120, time=0),
    Message('note_on', channel=9, note=43, velocity=120, time=0),
    Message('note_on', channel=9, note=36, velocity=120, time=0),
    Message('note_off', channel=9, note=43, velocity=64, time=192),
    Message('note_off', channel=9, note=38, velocity=64, time=0),
    Message('note_on', channel=9, note=38, velocity=120, time=0),
    Message('note_on', channel=9, note=43, velocity=120, time=0),
    Message('note_off', channel=9, note=36, velocity=64, time=191),
    Message('note_off', channel=9, note=43, velocity=64, time=1),
    Message('note_off', channel=9, note=38, velocity=64, time=0),
    Message('note_on', channel=9, note=43, velocity=120, time=0),
    Message('note_on', channel=9, note=38, velocity=120, time=0),
    Message('note_on', channel=9, note=36, velocity=120, time=0),
    Message('note_off', channel=9, note=38, velocity=64, time=192),
    Message('note_off', channel=9, note=43, velocity=64, time=0),
    Message('note_on', channel=9, note=38, velocity=120, time=0),
    Message('note_on', channel=9, note=43, velocity=120, time=0),
    Message('note_off', channel=9, note=36, velocity=64, time=191),
    Message('note_off', channel=9, note=43, velocity=64, time=1),
    Message('note_off', channel=9, note=38, velocity=64, time=0),
    Message('note_on', channel=9, note=38, velocity=120, time=0),
    Message('note_on', channel=9, note=43, velocity=120, time=0),
    Message('note_on', channel=9, note=36, velocity=120, time=0),
    Message('note_off', channel=9, note=43, velocity=64, time=192),
    Message('note_off', channel=9, note=38, velocity=64, time=0),
    Message('note_on', channel=9, note=38, velocity=120, time=0),
    Message('note_on', channel=9, note=43, velocity=120, time=0),
    Message('note_off', channel=9, note=36, velocity=64, time=191),
    Message('note_off', channel=9, note=43, velocity=64, time=1),
    Message('note_off', channel=9, note=38, velocity=64, time=0),
    Message('note_on', channel=9, note=43, velocity=120, time=0),
    Message('note_on', channel=9, note=38, velocity=120, time=0),
    Message('note_on', channel=9, note=36, velocity=120, time=0),
    Message('note_off', channel=9, note=38, velocity=64, time=192),
    Message('note_off', channel=9, note=43, velocity=64, time=0),
    Message('note_on', channel=9, note=43, velocity=120, time=0),
    Message('note_on', channel=9, note=38, velocity=120, time=0),
    Message('note_off', channel=9, note=36, velocity=64, time=191),
    Message('note_off', channel=9, note=38, velocity=64, time=1),
    Message('note_off', channel=9, note=43, velocity=64, time=0),
    Message('note_on', channel=9, note=38, velocity=120, time=0),
    Message('note_on', channel=9, note=43, velocity=120, time=0),
    Message('note_on', channel=9, note=36, velocity=120, time=0),
    Message('note_off', channel=9, note=43, velocity=64, time=192),
    Message('note_off', channel=9, note=38, velocity=64, time=0),
    Message('note_on', channel=9, note=38, velocity=120, time=0),
    Message('note_on', channel=9, note=43, velocity=120, time=0),
    Message('note_off', channel=9, note=36, velocity=64, time=191),
    Message('note_off', channel=9, note=43, velocity=64, time=1),
    Message('note_off', channel=9, note=38, velocity=64, time=0),
    Message('note_on', channel=9, note=43, velocity=120, time=0),
    Message('note_on', channel=9, note=38, velocity=120, time=0),
    Message('note_on', channel=9, note=36, velocity=120, time=0),
    Message('note_off', channel=9, note=38, velocity=64, time=192),
    Message('note_off', channel=9, note=43, velocity=64, time=0),
    Message('note_on', channel=9, note=38, velocity=120, time=0),
    Message('note_on', channel=9, note=43, velocity=120, time=0),
    Message('note_off', channel=9, note=36, velocity=64, time=191),
    Message('note_off', channel=9, note=43, velocity=64, time=1),
    Message('note_off', channel=9, note=38, velocity=64, time=0),
    Message('note_on', channel=9, note=38, velocity=120, time=0),
    Message('note_on', channel=9, note=43, velocity=120, time=0),
    Message('note_on', channel=9, note=36, velocity=120, time=0),
    Message('note_off', channel=9, note=43, velocity=64, time=192),
    Message('note_off', channel=9, note=38, velocity=64, time=0),
    Message('note_on', channel=9, note=38, velocity=120, time=0),
    Message('note_on', channel=9, note=43, velocity=120, time=0),
    Message('note_off', channel=9, note=36, velocity=64, time=191),
    Message('note_off', channel=9, note=43, velocity=64, time=1),
    Message('note_off', channel=9, note=38, velocity=64, time=0),
    Message('note_on', channel=9, note=43, velocity=120, time=0),
    Message('note_on', channel=9, note=38, velocity=120, time=0),
    Message('note_off', channel=9, note=38, velocity=64, time=192),
    Message('note_off', channel=9, note=43, velocity=64, time=0),
    Message('note_on', channel=9, note=49, velocity=60, time=0),
    Message('note_on', channel=9, note=36, velocity=120, time=0),
    Message('note_off', channel=9, note=36, velocity=64, time=192),
    Message('note_off', channel=9, note=49, velocity=64, time=0),
    Message('note_on', channel=9, note=42, velocity=40, time=0),
    Message('note_off', channel=9, note=42, velocity=64, time=192),
    Message('note_on', channel=9, note=42, velocity=40, time=0),
    Message('note_off', channel=9, note=42, velocity=64, time=192),
    Message('note_on', channel=9, note=42, velocity=40, time=0),
    Message('note_on', channel=9, note=38, velocity=120, time=0),
    Message('note_off', channel=9, note=38, velocity=64, time=192),
    Message('note_off', channel=9, note=42, velocity=64, time=0),
    Message('note_on', channel=9, note=42, velocity=40, time=0),
    Message('note_off', channel=9, note=42, velocity=64, time=192),
    Message('note_on', channel=9, note=36, velocity=120, time=0),
    Message('note_on', channel=9, note=42, velocity=40, time=0),
    Message('note_off', channel=9, note=42, velocity=64, time=192),
    Message('note_on', channel=9, note=42, velocity=40, time=0),
    Message('note_off', channel=9, note=36, velocity=64, time=191),
    Message('note_off', channel=9, note=42, velocity=64, time=1),
    Message('note_on', channel=9, note=42, velocity=40, time=0),
    Message('note_on', channel=9, note=38, velocity=120, time=0),
    Message('note_off', channel=9, note=38, velocity=64, time=192),
    Message('note_off', channel=9, note=42, velocity=64, time=0),
    Message('note_on', channel=9, note=42, velocity=40, time=0),
    Message('note_off', channel=9, note=42, velocity=64, time=192),
    Message('note_on', channel=9, note=36, velocity=120, time=0),
    Message('note_on', channel=9, note=42, velocity=40, time=0),
    Message('note_off', channel=9, note=42, velocity=64, time=192),
    Message('note_on', channel=9, note=42, velocity=40, time=0),
    Message('note_off', channel=9, note=36, velocity=64, time=191),
    Message('note_off', channel=9, note=42, velocity=64, time=1),
    Message('note_on', channel=9, note=42, velocity=40, time=0),
    Message('note_on', channel=9, note=38, velocity=120, time=0),
    Message('note_off', channel=9, note=38, velocity=64, time=192),
    Message('note_off', channel=9, note=42, velocity=64, time=0),
    Message('note_on', channel=9, note=42, velocity=40, time=0),
    Message('note_off', channel=9, note=42, velocity=64, time=192),
    Message('note_on', channel=9, note=36, velocity=120, time=0),
    Message('note_on', channel=9, note=42, velocity=40, time=0),
    Message('note_off', channel=9, note=42, velocity=64, time=192),
    Message('note_on', channel=9, note=42, velocity=40, time=0),
    Message('note_off', channel=9, note=36, velocity=64, time=191),
    Message('note_off', channel=9, note=42, velocity=64, time=1),
    Message('note_on', channel=9, note=42, velocity=40, time=0),
    Message('note_on', channel=9, note=38, velocity=120, time=0),
    Message('note_off', channel=9, note=38, velocity=64, time=192),
    Message('note_off', channel=9, note=42, velocity=64, time=0),
    Message('note_on', channel=9, note=42, velocity=40, time=0),
    Message('note_off', channel=9, note=42, velocity=64, time=192),
    Message('note_on', channel=9, note=36, velocity=120, time=0),
    Message('note_on', channel=9, note=42, velocity=40, time=0),
    Message('note_off', channel=9, note=42, velocity=64, time=192),
    Message('note_on', channel=9, note=42, velocity=40, time=0),
    Message('note_off', channel=9, note=36, velocity=64, time=191),
    Message('note_off', channel=9, note=42, velocity=64, time=1),
    Message('note_on', channel=9, note=42, velocity=40, time=0),
    Message('note_on', channel=9, note=38, velocity=120, time=0),
    Message('note_off', channel=9, note=38, velocity=64, time=192),
    Message('note_off', channel=9, note=42, velocity=64, time=0),
    Message('note_on', channel=9, note=42, velocity=40, time=0),
    Message('note_off', channel=9, note=42, velocity=64, time=192),
    Message('note_on', channel=9, note=36, velocity=120, time=0),
    Message('note_on', channel=9, note=42, velocity=40, time=0),
    Message('note_off', channel=9, note=42, velocity=64, time=192),
    Message('note_on', channel=9, note=42, velocity=40, time=0),
    Message('note_off', channel=9, note=36, velocity=64, time=191),
    Message('note_off', channel=9, note=42, velocity=64, time=1),
    Message('note_on', channel=9, note=42, velocity=40, time=0),
    Message('note_on', channel=9, note=38, velocity=120, time=0),
    Message('note_off', channel=9, note=38, velocity=64, time=192),
    Message('note_off', channel=9, note=42, velocity=64, time=0),
    Message('note_on', channel=9, note=42, velocity=40, time=0),
    Message('note_off', channel=9, note=42, velocity=64, time=192),
    Message('note_on', channel=9, note=36, velocity=120, time=0),
    Message('note_on', channel=9, note=42, velocity=40, time=0),
    Message('note_off', channel=9, note=42, velocity=64, time=192),
    Message('note_on', channel=9, note=42, velocity=40, time=0),
    Message('note_off', channel=9, note=36, velocity=64, time=191),
    Message('note_off', channel=9, note=42, velocity=64, time=1),
    Message('note_on', channel=9, note=42, velocity=40, time=0),
    Message('note_on', channel=9, note=38, velocity=120, time=0),
    Message('note_off', channel=9, note=38, velocity=64, time=192),
    Message('note_off', channel=9, note=42, velocity=64, time=0),
    Message('note_on', channel=9, note=42, velocity=40, time=0),
    Message('note_off', channel=9, note=42, velocity=64, time=192),
    Message('note_on', channel=9, note=36, velocity=120, time=0),
    Message('note_on', channel=9, note=42, velocity=40, time=0),
    Message('note_off', channel=9, note=42, velocity=64, time=192),
    Message('note_on', channel=9, note=42, velocity=40, time=0),
    Message('note_off', channel=9, note=36, velocity=64, time=191),
    Message('note_off', channel=9, note=42, velocity=64, time=1),
    Message('note_on', channel=9, note=42, velocity=40, time=0),
    Message('note_on', channel=9, note=38, velocity=120, time=0),
    Message('note_off', channel=9, note=38, velocity=64, time=192),
    Message('note_off', channel=9, note=42, velocity=64, time=0),
    Message('note_on', channel=9, note=49, velocity=60, time=0),
    Message('note_on', channel=9, note=36, velocity=120, time=0),
    Message('note_off', channel=9, note=36, velocity=64, time=191),
    Message('note_off', channel=9, note=49, velocity=64, time=1),
    Message('note_on', channel=9, note=42, velocity=40, time=0),
    Message('note_off', channel=9, note=42, velocity=64, time=192),
    Message('note_on', channel=9, note=42, velocity=40, time=0),
    Message('note_off', channel=9, note=42, velocity=64, time=192),
    Message('note_on', channel=9, note=42, velocity=40, time=0),
    Message('note_on', channel=9, note=38, velocity=120, time=0),
    Message('note_off', channel=9, note=38, velocity=64, time=192),
    Message('note_off', channel=9, note=42, velocity=64, time=0),
    Message('note_on', channel=9, note=42, velocity=40, time=0),
    Message('note_off', channel=9, note=42, velocity=64, time=192),
    Message('note_on', channel=9, note=36, velocity=120, time=0),
    Message('note_on', channel=9, note=42, velocity=40, time=0),
    Message('note_off', channel=9, note=42, velocity=64, time=192),
    Message('note_on', channel=9, note=42, velocity=40, time=0),
    Message('note_off', channel=9, note=36, velocity=64, time=191),
    Message('note_off', channel=9, note=42, velocity=64, time=1),
    Message('note_on', channel=9, note=42, velocity=40, time=0),
    Message('note_on', channel=9, note=38, velocity=120, time=0),
    Message('note_off', channel=9, note=38, velocity=64, time=192),
    Message('note_off', channel=9, note=42, velocity=64, time=0),
    Message('note_on', channel=9, note=42, velocity=40, time=0),
    Message('note_off', channel=9, note=42, velocity=64, time=192),
    Message('note_on', channel=9, note=36, velocity=120, time=0),
    Message('note_on', channel=9, note=42, velocity=40, time=0),
    Message('note_off', channel=9, note=42, velocity=64, time=192),
    Message('note_on', channel=9, note=42, velocity=40, time=0),
    Message('note_off', channel=9, note=36, velocity=64, time=191),
    Message('note_off', channel=9, note=42, velocity=64, time=1),
    Message('note_on', channel=9, note=42, velocity=40, time=0),
    Message('note_on', channel=9, note=38, velocity=120, time=0),
    Message('note_off', channel=9, note=38, velocity=64, time=192),
    Message('note_off', channel=9, note=42, velocity=64, time=0),
    Message('note_on', channel=9, note=42, velocity=40, time=0),
    Message('note_off', channel=9, note=42, velocity=64, time=192),
    Message('note_on', channel=9, note=36, velocity=120, time=0),
    Message('note_on', channel=9, note=42, velocity=40, time=0),
    Message('note_off', channel=9, note=42, velocity=64, time=192),
    Message('note_on', channel=9, note=42, velocity=40, time=0),
    Message('note_off', channel=9, note=36, velocity=64, time=191),
    Message('note_off', channel=9, note=42, velocity=64, time=1),
    Message('note_on', channel=9, note=42, velocity=40, time=0),
    Message('note_on', channel=9, note=38, velocity=120, time=0),
    Message('note_off', channel=9, note=38, velocity=64, time=192),
    Message('note_off', channel=9, note=42, velocity=64, time=0),
    Message('note_on', channel=9, note=42, velocity=40, time=0),
    Message('note_off', channel=9, note=42, velocity=64, time=192),
    Message('note_on', channel=9, note=36, velocity=120, time=0),
    Message('note_on', channel=9, note=42, velocity=40, time=0),
    Message('note_off', channel=9, note=42, velocity=64, time=192),
    Message('note_on', channel=9, note=42, velocity=40, time=0),
    Message('note_off', channel=9, note=36, velocity=64, time=191),
    Message('note_off', channel=9, note=42, velocity=64, time=1),
    Message('note_on', channel=9, note=42, velocity=40, time=0),
    Message('note_on', channel=9, note=38, velocity=120, time=0),
    Message('note_off', channel=9, note=38, velocity=64, time=192),
    Message('note_off', channel=9, note=42, velocity=64, time=0),
    Message('note_on', channel=9, note=42, velocity=40, time=0),
    Message('note_off', channel=9, note=42, velocity=64, time=192),
    Message('note_on', channel=9, note=36, velocity=120, time=0),
    Message('note_on', channel=9, note=42, velocity=40, time=0),
    Message('note_off', channel=9, note=42, velocity=64, time=192),
    Message('note_on', channel=9, note=42, velocity=40, time=0),
    Message('note_off', channel=9, note=36, velocity=64, time=191),
    Message('note_off', channel=9, note=42, velocity=64, time=1),
    Message('note_on', channel=9, note=42, velocity=40, time=0),
    Message('note_on', channel=9, note=38, velocity=120, time=0),
    Message('note_off', channel=9, note=38, velocity=64, time=192),
    Message('note_off', channel=9, note=42, velocity=64, time=0),
    Message('note_on', channel=9, note=42, velocity=40, time=0),
    Message('note_off', channel=9, note=42, velocity=64, time=192),
    Message('note_on', channel=9, note=36, velocity=120, time=0),
    Message('note_on', channel=9, note=42, velocity=40, time=0),
    Message('note_off', channel=9, note=42, velocity=64, time=192),
    Message('note_on', channel=9, note=42, velocity=40, time=0),
    Message('note_off', channel=9, note=36, velocity=64, time=191),
    Message('note_off', channel=9, note=42, velocity=64, time=1),
    Message('note_on', channel=9, note=42, velocity=40, time=0),
    Message('note_on', channel=9, note=38, velocity=120, time=0),
    Message('note_off', channel=9, note=38, velocity=64, time=192),
    Message('note_off', channel=9, note=42, velocity=64, time=0),
    Message('note_on', channel=9, note=42, velocity=40, time=0),
    Message('note_off', channel=9, note=42, velocity=64, time=192),
    Message('note_on', channel=9, note=36, velocity=120, time=0),
    Message('note_on', channel=9, note=42, velocity=40, time=0),
    Message('note_off', channel=9, note=42, velocity=64, time=192),
    Message('note_on', channel=9, note=42, velocity=40, time=0),
    Message('note_off', channel=9, note=36, velocity=64, time=191),
    Message('note_off', channel=9, note=42, velocity=64, time=1),
    Message('note_on', channel=9, note=42, velocity=40, time=0),
    Message('note_on', channel=9, note=38, velocity=120, time=0),
    Message('note_off', channel=9, note=38, velocity=64, time=192),
    Message('note_off', channel=9, note=42, velocity=64, time=0),
    Message('note_on', channel=9, note=49, velocity=60, time=0),
    Message('note_on', channel=9, note=36, velocity=120, time=0),
    Message('note_off', channel=9, note=36, velocity=64, time=191),
    Message('note_off', channel=9, note=49, velocity=64, time=1),
    Message('note_on', channel=9, note=42, velocity=40, time=0),
    Message('note_off', channel=9, note=42, velocity=64, time=192),
    Message('note_on', channel=9, note=42, velocity=40, time=0),
    Message('note_off', channel=9, note=42, velocity=64, time=192),
    Message('note_on', channel=9, note=42, velocity=40, time=0),
    Message('note_on', channel=9, note=38, velocity=120, time=0),
    Message('note_off', channel=9, note=38, velocity=64, time=192),
    Message('note_off', channel=9, note=42, velocity=64, time=0),
    Message('note_on', channel=9, note=42, velocity=40, time=0),
    Message('note_off', channel=9, note=42, velocity=64, time=192),
    Message('note_on', channel=9, note=36, velocity=120, time=0),
    Message('note_on', channel=9, note=42, velocity=40, time=0),
    Message('note_off', channel=9, note=42, velocity=64, time=192),
    Message('note_on', channel=9, note=42, velocity=40, time=0),
    Message('note_off', channel=9, note=36, velocity=64, time=191),
    Message('note_off', channel=9, note=42, velocity=64, time=1),
    Message('note_on', channel=9, note=42, velocity=40, time=0),
    Message('note_on', channel=9, note=38, velocity=120, time=0),
    Message('note_off', channel=9, note=38, velocity=64, time=192),
    Message('note_off', channel=9, note=42, velocity=64, time=0),
    Message('note_on', channel=9, note=42, velocity=40, time=0),
    Message('note_off', channel=9, note=42, velocity=64, time=192),
    Message('note_on', channel=9, note=36, velocity=120, time=0),
    Message('note_on', channel=9, note=42, velocity=40, time=0),
    Message('note_off', channel=9, note=42, velocity=64, time=192),
    Message('note_on', channel=9, note=42, velocity=40, time=0),
    Message('note_off', channel=9, note=36, velocity=64, time=191),
    Message('note_off', channel=9, note=42, velocity=64, time=1),
    Message('note_on', channel=9, note=42, velocity=40, time=0),
    Message('note_on', channel=9, note=38, velocity=120, time=0),
    Message('note_off', channel=9, note=38, velocity=64, time=192),
    Message('note_off', channel=9, note=42, velocity=64, time=0),
    Message('note_on', channel=9, note=42, velocity=40, time=0),
    Message('note_off', channel=9, note=42, velocity=64, time=192),
    Message('note_on', channel=9, note=36, velocity=120, time=0),
    Message('note_on', channel=9, note=42, velocity=40, time=0),
    Message('note_off', channel=9, note=42, velocity=64, time=192),
    Message('note_on', channel=9, note=42, velocity=40, time=0),
    Message('note_off', channel=9, note=36, velocity=64, time=191),
    Message('note_off', channel=9, note=42, velocity=64, time=1),
    Message('note_on', channel=9, note=42, velocity=40, time=0),
    Message('note_on', channel=9, note=38, velocity=120, time=0),
    Message('note_off', channel=9, note=38, velocity=64, time=192),
    Message('note_off', channel=9, note=42, velocity=64, time=0),
    Message('note_on', channel=9, note=42, velocity=40, time=0),
    Message('note_off', channel=9, note=42, velocity=64, time=192),
    Message('note_on', channel=9, note=36, velocity=120, time=0),
    Message('note_on', channel=9, note=42, velocity=40, time=0),
    Message('note_off', channel=9, note=42, velocity=64, time=192),
    Message('note_on', channel=9, note=42, velocity=40, time=0),
    Message('note_off', channel=9, note=36, velocity=64, time=191),
    Message('note_off', channel=9, note=42, velocity=64, time=1),
    Message('note_on', channel=9, note=42, velocity=40, time=0),
    Message('note_on', channel=9, note=38, velocity=120, time=0),
    Message('note_off', channel=9, note=38, velocity=64, time=192),
    Message('note_off', channel=9, note=42, velocity=64, time=0),
    Message('note_on', channel=9, note=42, velocity=40, time=0),
    Message('note_off', channel=9, note=42, velocity=64, time=192),
    Message('note_on', channel=9, note=36, velocity=120, time=0),
    Message('note_on', channel=9, note=42, velocity=40, time=0),
    Message('note_off', channel=9, note=42, velocity=64, time=192),
    Message('note_on', channel=9, note=42, velocity=40, time=0),
    Message('note_off', channel=9, note=36, velocity=64, time=191),
    Message('note_off', channel=9, note=42, velocity=64, time=1),
    Message('note_on', channel=9, note=42, velocity=40, time=0),
    Message('note_on', channel=9, note=38, velocity=120, time=0),
    Message('note_off', channel=9, note=38, velocity=64, time=192),
    Message('note_off', channel=9, note=42, velocity=64, time=0),
    Message('note_on', channel=9, note=42, velocity=40, time=0),
    Message('note_off', channel=9, note=42, velocity=64, time=192),
    Message('note_on', channel=9, note=36, velocity=120, time=0),
    Message('note_on', channel=9, note=42, velocity=40, time=0),
    Message('note_off', channel=9, note=42, velocity=64, time=192),
    Message('note_on', channel=9, note=42, velocity=40, time=0),
    Message('note_off', channel=9, note=36, velocity=64, time=191),
    Message('note_off', channel=9, note=42, velocity=64, time=1),
    Message('note_on', channel=9, note=42, velocity=40, time=0),
    Message('note_on', channel=9, note=38, velocity=120, time=0),
    Message('note_off', channel=9, note=38, velocity=64, time=192),
    Message('note_off', channel=9, note=42, velocity=64, time=0),
    Message('note_on', channel=9, note=42, velocity=40, time=0),
    Message('note_off', channel=9, note=42, velocity=64, time=192),
    Message('note_on', channel=9, note=36, velocity=120, time=0),
    Message('note_on', channel=9, note=42, velocity=40, time=0),
    Message('note_off', channel=9, note=42, velocity=64, time=192),
    Message('note_on', channel=9, note=42, velocity=40, time=0),
    Message('note_off', channel=9, note=36, velocity=64, time=191),
    Message('note_off', channel=9, note=42, velocity=64, time=1),
    Message('note_on', channel=9, note=42, velocity=40, time=0),
    Message('note_on', channel=9, note=38, velocity=120, time=0),
    Message('note_off', channel=9, note=38, velocity=64, time=192),
    Message('note_off', channel=9, note=42, velocity=64, time=0),
    Message('note_on', channel=9, note=49, velocity=60, time=0),
    Message('note_on', channel=9, note=36, velocity=120, time=0),
    Message('note_off', channel=9, note=36, velocity=64, time=191),
    Message('note_off', channel=9, note=49, velocity=64, time=1),
    Message('note_on', channel=9, note=42, velocity=40, time=0),
    Message('note_off', channel=9, note=42, velocity=64, time=192),
    Message('note_on', channel=9, note=42, velocity=40, time=0),
    Message('note_off', channel=9, note=42, velocity=64, time=192),
    Message('note_on', channel=9, note=42, velocity=40, time=0),
    Message('note_on', channel=9, note=38, velocity=120, time=0),
    Message('note_off', channel=9, note=38, velocity=64, time=192),
    Message('note_off', channel=9, note=42, velocity=64, time=0),
    Message('note_on', channel=9, note=42, velocity=40, time=0),
    Message('note_off', channel=9, note=42, velocity=64, time=192),
    Message('note_on', channel=9, note=36, velocity=120, time=0),
    Message('note_on', channel=9, note=42, velocity=40, time=0),
    Message('note_off', channel=9, note=42, velocity=64, time=192),
    Message('note_on', channel=9, note=42, velocity=40, time=0),
    Message('note_off', channel=9, note=36, velocity=64, time=191),
    Message('note_off', channel=9, note=42, velocity=64, time=1),
    Message('note_on', channel=9, note=42, velocity=40, time=0),
    Message('note_on', channel=9, note=38, velocity=120, time=0),
    Message('note_off', channel=9, note=38, velocity=64, time=192),
    Message('note_off', channel=9, note=42, velocity=64, time=0),
    Message('note_on', channel=9, note=42, velocity=40, time=0),
    Message('note_off', channel=9, note=42, velocity=64, time=192),
    Message('note_on', channel=9, note=36, velocity=120, time=0),
    Message('note_on', channel=9, note=42, velocity=40, time=0),
    Message('note_off', channel=9, note=42, velocity=64, time=192),
    Message('note_on', channel=9, note=42, velocity=40, time=0),
    Message('note_off', channel=9, note=36, velocity=64, time=191),
    Message('note_off', channel=9, note=42, velocity=64, time=1),
    Message('note_on', channel=9, note=42, velocity=40, time=0),
    Message('note_on', channel=9, note=38, velocity=120, time=0),
    Message('note_off', channel=9, note=38, velocity=64, time=192),
    Message('note_off', channel=9, note=42, velocity=64, time=0),
    Message('note_on', channel=9, note=42, velocity=40, time=0),
    Message('note_off', channel=9, note=42, velocity=64, time=192),
    Message('note_on', channel=9, note=36, velocity=120, time=0),
    Message('note_on', channel=9, note=42, velocity=40, time=0),
    Message('note_off', channel=9, note=42, velocity=64, time=192),
    Message('note_on', channel=9, note=42, velocity=40, time=0),
    Message('note_off', channel=9, note=36, velocity=64, time=191),
    Message('note_off', channel=9, note=42, velocity=64, time=1),
    Message('note_on', channel=9, note=42, velocity=40, time=0),
    Message('note_on', channel=9, note=38, velocity=120, time=0),
    Message('note_off', channel=9, note=38, velocity=64, time=192),
    Message('note_off', channel=9, note=42, velocity=64, time=0),
    Message('note_on', channel=9, note=42, velocity=40, time=0),
    Message('note_off', channel=9, note=42, velocity=64, time=192),
    Message('note_on', channel=9, note=36, velocity=120, time=0),
    Message('note_on', channel=9, note=42, velocity=40, time=0),
    Message('note_off', channel=9, note=42, velocity=64, time=192),
    Message('note_on', channel=9, note=42, velocity=40, time=0),
    Message('note_off', channel=9, note=36, velocity=64, time=191),
    Message('note_off', channel=9, note=42, velocity=64, time=1),
    Message('note_on', channel=9, note=42, velocity=40, time=0),
    Message('note_on', channel=9, note=38, velocity=120, time=0),
    Message('note_off', channel=9, note=38, velocity=64, time=192),
    Message('note_off', channel=9, note=42, velocity=64, time=0),
    Message('note_on', channel=9, note=42, velocity=40, time=0),
    Message('note_off', channel=9, note=42, velocity=64, time=192),
    Message('note_on', channel=9, note=36, velocity=120, time=0),
    Message('note_on', channel=9, note=42, velocity=40, time=0),
    Message('note_off', channel=9, note=42, velocity=64, time=192),
    Message('note_on', channel=9, note=42, velocity=40, time=0),
    Message('note_off', channel=9, note=36, velocity=64, time=191),
    Message('note_off', channel=9, note=42, velocity=64, time=1),
    Message('note_on', channel=9, note=42, velocity=40, time=0),
    Message('note_on', channel=9, note=38, velocity=120, time=0),
    Message('note_off', channel=9, note=38, velocity=64, time=192),
    Message('note_off', channel=9, note=42, velocity=64, time=0),
    Message('note_on', channel=9, note=42, velocity=40, time=0),
    Message('note_off', channel=9, note=42, velocity=64, time=192),
    Message('note_on', channel=9, note=36, velocity=120, time=0),
    Message('note_on', channel=9, note=42, velocity=40, time=0),
    Message('note_off', channel=9, note=42, velocity=64, time=192),
    Message('note_on', channel=9, note=42, velocity=40, time=0),
    Message('note_off', channel=9, note=36, velocity=64, time=191),
    Message('note_off', channel=9, note=42, velocity=64, time=1),
    Message('note_on', channel=9, note=42, velocity=40, time=0),
    Message('note_on', channel=9, note=38, velocity=120, time=0),
    Message('note_off', channel=9, note=38, velocity=64, time=192),
    Message('note_off', channel=9, note=42, velocity=64, time=0),
    Message('note_on', channel=9, note=42, velocity=40, time=0),
    Message('note_off', channel=9, note=42, velocity=64, time=192),
    Message('note_on', channel=9, note=36, velocity=120, time=0),
    Message('note_on', channel=9, note=42, velocity=40, time=0),
    Message('note_off', channel=9, note=42, velocity=64, time=192),
    Message('note_on', channel=9, note=42, velocity=40, time=0),
    Message('note_off', channel=9, note=36, velocity=64, time=191),
    Message('note_off', channel=9, note=42, velocity=64, time=1),
    Message('note_on', channel=9, note=42, velocity=40, time=0),
    Message('note_on', channel=9, note=38, velocity=120, time=0),
    Message('note_off', channel=9, note=38, velocity=64, time=192),
    Message('note_off', channel=9, note=42, velocity=64, time=0),
    Message('note_on', channel=9, note=49, velocity=60, time=0),
    Message('note_on', channel=9, note=36, velocity=120, time=0),
    Message('note_off', channel=9, note=36, velocity=64, time=191),
    Message('note_off', channel=9, note=49, velocity=64, time=1),
    Message('note_on', channel=9, note=42, velocity=40, time=192),
    Message('note_off', channel=9, note=42, velocity=64, time=192),
    Message('note_on', channel=9, note=42, velocity=40, time=0),
    Message('note_off', channel=9, note=42, velocity=64, time=192),
    Message('note_on', channel=9, note=42, velocity=40, time=0),
    Message('note_off', channel=9, note=42, velocity=64, time=192),
    Message('note_on', channel=9, note=38, velocity=120, time=0),
    Message('note_on', channel=9, note=42, velocity=40, time=0),
    Message('note_off', channel=9, note=42, velocity=64, time=192),
    Message('note_off', channel=9, note=38, velocity=64, time=0),
    Message('note_on', channel=9, note=42, velocity=40, time=0),
    Message('note_off', channel=9, note=42, velocity=64, time=192),
    Message('note_on', channel=9, note=42, velocity=40, time=0),
    Message('note_off', channel=9, note=42, velocity=64, time=192),
    Message('note_on', channel=9, note=49, velocity=60, time=0),
    Message('note_on', channel=9, note=36, velocity=120, time=0),
    Message('note_off', channel=9, note=36, velocity=64, time=191),
    Message('note_off', channel=9, note=49, velocity=64, time=1),
    Message('note_on', channel=9, note=42, velocity=40, time=0),
    Message('note_off', channel=9, note=42, velocity=64, time=192),
    Message('note_on', channel=9, note=42, velocity=40, time=0),
    Message('note_off', channel=9, note=42, velocity=64, time=192),
    Message('note_on', channel=9, note=42, velocity=40, time=0),
    Message('note_off', channel=9, note=42, velocity=64, time=192),
    Message('note_on', channel=9, note=42, velocity=40, time=0),
    Message('note_off', channel=9, note=42, velocity=64, time=192),
    Message('note_on', channel=9, note=38, velocity=120, time=0),
    Message('note_on', channel=9, note=42, velocity=40, time=0),
    Message('note_off', channel=9, note=42, velocity=64, time=192),
    Message('note_off', channel=9, note=38, velocity=64, time=0),
    Message('note_on', channel=9, note=42, velocity=40, time=0),
    Message('note_off', channel=9, note=42, velocity=64, time=192),
    Message('note_on', channel=9, note=42, velocity=40, time=0),
    Message('note_off', channel=9, note=42, velocity=64, time=192),
    Message('note_on', channel=9, note=49, velocity=60, time=0),
    Message('note_on', channel=9, note=36, velocity=120, time=0),
    Message('note_off', channel=9, note=36, velocity=64, time=191),
    Message('note_off', channel=9, note=49, velocity=64, time=1),
    Message('note_on', channel=9, note=42, velocity=40, time=0),
    Message('note_off', channel=9, note=42, velocity=64, time=192),
    Message('note_on', channel=9, note=42, velocity=40, time=0),
    Message('note_off', channel=9, note=42, velocity=64, time=192),
    Message('note_on', channel=9, note=42, velocity=40, time=0),
    Message('note_off', channel=9, note=42, velocity=64, time=192),
    Message('note_on', channel=9, note=42, velocity=40, time=0),
    Message('note_off', channel=9, note=42, velocity=64, time=192),
    Message('note_on', channel=9, note=38, velocity=120, time=0),
    Message('note_on', channel=9, note=42, velocity=40, time=0),
    Message('note_off', channel=9, note=42, velocity=64, time=192),
    Message('note_off', channel=9, note=38, velocity=64, time=0),
    Message('note_on', channel=9, note=42, velocity=40, time=0),
    Message('note_off', channel=9, note=42, velocity=64, time=192),
    Message('note_on', channel=9, note=42, velocity=40, time=0),
    Message('note_off', channel=9, note=42, velocity=64, time=192),
    Message('note_on', channel=9, note=42, velocity=40, time=0),
    Message('note_off', channel=9, note=42, velocity=64, time=192),
    Message('note_on', channel=9, note=38, velocity=120, time=0),
    Message('note_on', channel=9, note=43, velocity=120, time=0),
    Message('note_on', channel=9, note=36, velocity=120, time=0),
    Message('note_off', channel=9, note=43, velocity=64, time=191),
    Message('note_off', channel=9, note=38, velocity=64, time=0),
    Message('note_on', channel=9, note=38, velocity=120, time=1),
    Message('note_on', channel=9, note=43, velocity=120, time=0),
    Message('note_off', channel=9, note=43, velocity=64, time=191),
    Message('note_off', channel=9, note=38, velocity=64, time=0),
    Message('note_off', channel=9, note=36, velocity=64, time=0),
    Message('note_on', channel=9, note=38, velocity=120, time=1),
    Message('note_on', channel=9, note=43, velocity=120, time=0),
    Message('note_on', channel=9, note=36, velocity=120, time=0),
    Message('note_off', channel=9, note=43, velocity=64, time=191),
    Message('note_off', channel=9, note=38, velocity=64, time=0),
    Message('note_on', channel=9, note=38, velocity=120, time=1),
    Message('note_on', channel=9, note=43, velocity=120, time=0),
    Message('note_off', channel=9, note=43, velocity=64, time=191),
    Message('note_off', channel=9, note=38, velocity=64, time=0),
    Message('note_off', channel=9, note=36, velocity=64, time=0),
    Message('note_on', channel=9, note=38, velocity=120, time=1),
    Message('note_on', channel=9, note=43, velocity=120, time=0),
    Message('note_on', channel=9, note=36, velocity=120, time=0),
    Message('note_off', channel=9, note=43, velocity=64, time=191),
    Message('note_off', channel=9, note=38, velocity=64, time=0),
    Message('note_on', channel=9, note=38, velocity=120, time=1),
    Message('note_on', channel=9, note=43, velocity=120, time=0),
    Message('note_off', channel=9, note=43, velocity=64, time=191),
    Message('note_off', channel=9, note=38, velocity=64, time=0),
    Message('note_off', channel=9, note=36, velocity=64, time=0),
    Message('note_on', channel=9, note=38, velocity=120, time=1),
    Message('note_off', channel=9, note=38, velocity=64, time=191),
    Message('note_on', channel=9, note=49, velocity=60, time=1),
    Message('note_on', channel=9, note=38, velocity=120, time=0),
    Message('note_off', channel=9, note=38, velocity=64, time=191),
    Message('note_off', channel=9, note=49, velocity=64, time=1),
    Message('note_on', channel=9, note=36, velocity=120, time=0),
    Message('note_on', channel=9, note=49, velocity=60, time=0),
    Message('note_off', channel=9, note=36, velocity=64, time=383),
    Message('note_off', channel=9, note=49, velocity=64, time=1),
    Message('note_on', channel=9, note=38, velocity=120, time=0),
    Message('note_on', channel=9, note=42, velocity=40, time=0),
    Message('note_off', channel=9, note=38, velocity=64, time=191),
    Message('note_off', channel=9, note=42, velocity=64, time=1),
    Message('note_on', channel=9, note=42, velocity=40, time=0),
    Message('note_off', channel=9, note=42, velocity=64, time=192),
    Message('note_on', channel=9, note=36, velocity=120, time=0),
    Message('note_on', channel=9, note=42, velocity=40, time=0),
    Message('note_off', channel=9, note=42, velocity=64, time=192),
    Message('note_on', channel=9, note=42, velocity=40, time=0),
    Message('note_off', channel=9, note=36, velocity=64, time=191),
    Message('note_off', channel=9, note=42, velocity=64, time=1),
    Message('note_on', channel=9, note=38, velocity=120, time=0),
    Message('note_on', channel=9, note=42, velocity=40, time=0),
    Message('note_off', channel=9, note=38, velocity=64, time=191),
    Message('note_off', channel=9, note=42, velocity=64, time=1),
    Message('note_on', channel=9, note=42, velocity=40, time=0),
    Message('note_off', channel=9, note=42, velocity=64, time=192),
    Message('note_on', channel=9, note=42, velocity=40, time=0),
    Message('note_on', channel=9, note=36, velocity=120, time=0),
    Message('note_off', channel=9, note=42, velocity=64, time=192),
    Message('note_on', channel=9, note=42, velocity=40, time=0),
    Message('note_off', channel=9, note=36, velocity=64, time=191),
    Message('note_off', channel=9, note=42, velocity=64, time=1),
    Message('note_on', channel=9, note=42, velocity=40, time=0),
    Message('note_on', channel=9, note=38, velocity=120, time=0),
    Message('note_off', channel=9, note=38, velocity=64, time=191),
    Message('note_off', channel=9, note=42, velocity=64, time=1),
    Message('note_on', channel=9, note=42, velocity=40, time=0),
    Message('note_off', channel=9, note=42, velocity=64, time=192),
    Message('note_on', channel=9, note=42, velocity=40, time=0),
    Message('note_on', channel=9, note=36, velocity=120, time=0),
    Message('note_off', channel=9, note=36, velocity=64, time=191),
    Message('note_off', channel=9, note=42, velocity=64, time=1),
    Message('note_on', channel=9, note=42, velocity=40, time=0),
    Message('note_on', channel=9, note=36, velocity=120, time=0),
    Message('note_off', channel=9, note=36, velocity=64, time=191),
    Message('note_off', channel=9, note=42, velocity=64, time=1),
    Message('note_on', channel=9, note=42, velocity=40, time=0),
    Message('note_on', channel=9, note=38, velocity=120, time=0),
    Message('note_off', channel=9, note=38, velocity=64, time=191),
    Message('note_off', channel=9, note=42, velocity=64, time=1),
    Message('note_on', channel=9, note=42, velocity=40, time=0),
    Message('note_off', channel=9, note=42, velocity=64, time=192),
    Message('note_on', channel=9, note=42, velocity=40, time=0),
    Message('note_on', channel=9, note=36, velocity=120, time=0),
    Message('note_off', channel=9, note=42, velocity=64, time=192),
    Message('note_on', channel=9, note=42, velocity=40, time=0),
    Message('note_off', channel=9, note=36, velocity=64, time=191),
    Message('note_off', channel=9, note=42, velocity=64, time=1),
    Message('note_on', channel=9, note=38, velocity=120, time=0),
    Message('note_on', channel=9, note=42, velocity=40, time=0),
    Message('note_off', channel=9, note=38, velocity=64, time=191),
    Message('note_off', channel=9, note=42, velocity=64, time=1),
    Message('note_on', channel=9, note=42, velocity=40, time=0),
    Message('note_off', channel=9, note=42, velocity=64, time=192),
    Message('note_on', channel=9, note=36, velocity=120, time=0),
    Message('note_on', channel=9, note=42, velocity=40, time=0),
    Message('note_off', channel=9, note=42, velocity=64, time=192),
    Message('note_on', channel=9, note=42, velocity=40, time=0),
    Message('note_off', channel=9, note=36, velocity=64, time=191),
    Message('note_off', channel=9, note=42, velocity=64, time=1),
    Message('note_on', channel=9, note=36, velocity=120, time=0),
    Message('note_on', channel=9, note=42, velocity=40, time=0),
    Message('note_off', channel=9, note=42, velocity=64, time=192),
    Message('note_on', channel=9, note=38, velocity=120, time=0),
    Message('note_on', channel=9, note=49, velocity=60, time=0),
    Message('note_off', channel=9, note=38, velocity=64, time=191),
    Message('note_off', channel=9, note=36, velocity=64, time=0),
    Message('note_off', channel=9, note=49, velocity=64, time=1),
    Message('note_on', channel=9, note=42, velocity=40, time=0),
    Message('note_on', channel=9, note=36, velocity=120, time=0),
    Message('note_off', channel=9, note=42, velocity=64, time=192),
    Message('note_on', channel=9, note=42, velocity=40, time=0),
    Message('note_off', channel=9, note=36, velocity=64, time=191),
    Message('note_off', channel=9, note=42, velocity=64, time=1),
    Message('note_on', channel=9, note=42, velocity=40, time=0),
    Message('note_on', channel=9, note=38, velocity=120, time=0),
    Message('note_off', channel=9, note=38, velocity=64, time=191),
    Message('note_off', channel=9, note=42, velocity=64, time=1),
    Message('note_on', channel=9, note=42, velocity=40, time=0),
    Message('note_off', channel=9, note=42, velocity=64, time=192),
    Message('note_on', channel=9, note=42, velocity=40, time=0),
    Message('note_on', channel=9, note=36, velocity=120, time=0),
    Message('note_off', channel=9, note=36, velocity=64, time=191),
    Message('note_off', channel=9, note=42, velocity=64, time=1),
    Message('note_on', channel=9, note=42, velocity=40, time=0),
    Message('note_on', channel=9, note=36, velocity=120, time=0),
    Message('note_off', channel=9, note=36, velocity=64, time=191),
    Message('note_off', channel=9, note=42, velocity=64, time=1),
    Message('note_on', channel=9, note=42, velocity=40, time=0),
    Message('note_on', channel=9, note=38, velocity=120, time=0),
    Message('note_off', channel=9, note=38, velocity=64, time=191),
    Message('note_off', channel=9, note=42, velocity=64, time=1),
    Message('note_on', channel=9, note=36, velocity=120, time=0),
    Message('note_on', channel=9, note=42, velocity=40, time=0),
    Message('note_off', channel=9, note=36, velocity=64, time=191),
    Message('note_off', channel=9, note=42, velocity=64, time=1),
    Message('note_on', channel=9, note=49, velocity=60, time=0),
    Message('note_on', channel=9, note=36, velocity=120, time=0),
    Message('note_off', channel=9, note=49, velocity=64, time=192),
    Message('note_off', channel=9, note=36, velocity=64, time=191),
    Message('note_on', channel=9, note=38, velocity=120, time=1),
    Message('note_on', channel=9, note=42, velocity=40, time=0),
    Message('note_off', channel=9, note=38, velocity=64, time=191),
    Message('note_off', channel=9, note=42, velocity=64, time=1),
    Message('note_on', channel=9, note=42, velocity=40, time=0),
    Message('note_off', channel=9, note=42, velocity=64, time=192),
    Message('note_on', channel=9, note=36, velocity=120, time=0),
    Message('note_on', channel=9, note=42, velocity=40, time=0),
    Message('note_off', channel=9, note=42, velocity=64, time=192),
    Message('note_on', channel=9, note=42, velocity=40, time=0),
    Message('note_off', channel=9, note=36, velocity=64, time=191),
    Message('note_off', channel=9, note=42, velocity=64, time=1),
    Message('note_on', channel=9, note=36, velocity=120, time=0),
    Message('note_on', channel=9, note=42, velocity=40, time=0),
    Message('note_off', channel=9, note=42, velocity=64, time=192),
    Message('note_on', channel=9, note=38, velocity=120, time=0),
    Message('note_on', channel=9, note=49, velocity=60, time=0),
    Message('note_off', channel=9, note=38, velocity=64, time=191),
    Message('note_off', channel=9, note=36, velocity=64, time=0),
    Message('note_off', channel=9, note=49, velocity=64, time=1),
    Message('note_on', channel=9, note=42, velocity=40, time=0),
    Message('note_on', channel=9, note=36, velocity=120, time=0),
    Message('note_off', channel=9, note=42, velocity=64, time=192),
    Message('note_on', channel=9, note=42, velocity=40, time=0),
    Message('note_off', channel=9, note=36, velocity=64, time=191),
    Message('note_off', channel=9, note=42, velocity=64, time=1),
    Message('note_on', channel=9, note=42, velocity=40, time=0),
    Message('note_on', channel=9, note=38, velocity=120, time=0),
    Message('note_off', channel=9, note=38, velocity=64, time=191),
    Message('note_off', channel=9, note=42, velocity=64, time=1),
    Message('note_on', channel=9, note=42, velocity=40, time=0),
    Message('note_off', channel=9, note=42, velocity=64, time=192),
    Message('note_on', channel=9, note=42, velocity=40, time=0),
    Message('note_on', channel=9, note=36, velocity=120, time=0),
    Message('note_off', channel=9, note=36, velocity=64, time=191),
    Message('note_off', channel=9, note=42, velocity=64, time=1),
    Message('note_on', channel=9, note=42, velocity=40, time=0),
    Message('note_on', channel=9, note=36, velocity=120, time=0),
    Message('note_off', channel=9, note=36, velocity=64, time=191),
    Message('note_off', channel=9, note=42, velocity=64, time=1),
    Message('note_on', channel=9, note=42, velocity=40, time=0),
    Message('note_on', channel=9, note=38, velocity=120, time=0),
    Message('note_off', channel=9, note=38, velocity=64, time=191),
    Message('note_off', channel=9, note=42, velocity=64, time=1),
    Message('note_on', channel=9, note=36, velocity=120, time=0),
    Message('note_on', channel=9, note=42, velocity=40, time=0),
    Message('note_off', channel=9, note=36, velocity=64, time=191),
    Message('note_off', channel=9, note=42, velocity=64, time=1),
    Message('note_on', channel=9, note=49, velocity=60, time=0),
    Message('note_on', channel=9, note=36, velocity=120, time=0),
    Message('note_off', channel=9, note=49, velocity=64, time=192),
    Message('note_off', channel=9, note=36, velocity=64, time=191),
    Message('note_on', channel=9, note=49, velocity=60, time=961),
    Message('note_on', channel=9, note=36, velocity=120, time=0),
    Message('note_off', channel=9, note=36, velocity=64, time=191),
    Message('note_off', channel=9, note=49, velocity=64, time=1),
    Message('note_on', channel=9, note=42, velocity=40, time=0),
    Message('note_off', channel=9, note=42, velocity=64, time=192),
    Message('note_on', channel=9, note=42, velocity=40, time=0),
    Message('note_off', channel=9, note=42, velocity=64, time=192),
    Message('note_on', channel=9, note=42, velocity=40, time=0),
    Message('note_on', channel=9, note=38, velocity=120, time=0),
    Message('note_off', channel=9, note=38, velocity=64, time=192),
    Message('note_off', channel=9, note=42, velocity=64, time=0),
    Message('note_on', channel=9, note=42, velocity=40, time=0),
    Message('note_off', channel=9, note=42, velocity=64, time=192),
    Message('note_on', channel=9, note=36, velocity=120, time=0),
    Message('note_on', channel=9, note=42, velocity=40, time=0),
    Message('note_off', channel=9, note=42, velocity=64, time=192),
    Message('note_on', channel=9, note=42, velocity=40, time=0),
    Message('note_off', channel=9, note=36, velocity=64, time=191),
    Message('note_off', channel=9, note=42, velocity=64, time=1),
    Message('note_on', channel=9, note=42, velocity=40, time=0),
    Message('note_on', channel=9, note=38, velocity=120, time=0),
    Message('note_off', channel=9, note=38, velocity=64, time=192),
    Message('note_off', channel=9, note=42, velocity=64, time=0),
    Message('note_on', channel=9, note=42, velocity=40, time=0),
    Message('note_off', channel=9, note=42, velocity=64, time=192),
    Message('note_on', channel=9, note=36, velocity=120, time=0),
    Message('note_on', channel=9, note=42, velocity=40, time=0),
    Message('note_off', channel=9, note=42, velocity=64, time=192),
    Message('note_on', channel=9, note=42, velocity=40, time=0),
    Message('note_off', channel=9, note=36, velocity=64, time=191),
    Message('note_off', channel=9, note=42, velocity=64, time=1),
    Message('note_on', channel=9, note=42, velocity=40, time=0),
    Message('note_on', channel=9, note=38, velocity=120, time=0),
    Message('note_off', channel=9, note=38, velocity=64, time=192),
    Message('note_off', channel=9, note=42, velocity=64, time=0),
    Message('note_on', channel=9, note=42, velocity=40, time=0),
    Message('note_off', channel=9, note=42, velocity=64, time=192),
    Message('note_on', channel=9, note=36, velocity=120, time=0),
    Message('note_on', channel=9, note=42, velocity=40, time=0),
    Message('note_off', channel=9, note=42, velocity=64, time=192),
    Message('note_on', channel=9, note=42, velocity=40, time=0),
    Message('note_off', channel=9, note=36, velocity=64, time=191),
    Message('note_off', channel=9, note=42, velocity=64, time=1),
    Message('note_on', channel=9, note=42, velocity=40, time=0),
    Message('note_on', channel=9, note=38, velocity=120, time=0),
    Message('note_off', channel=9, note=38, velocity=64, time=192),
    Message('note_off', channel=9, note=42, velocity=64, time=0),
    Message('note_on', channel=9, note=42, velocity=40, time=0),
    Message('note_off', channel=9, note=42, velocity=64, time=192),
    Message('note_on', channel=9, note=36, velocity=120, time=0),
    Message('note_on', channel=9, note=42, velocity=40, time=0),
    Message('note_off', channel=9, note=42, velocity=64, time=192),
    Message('note_on', channel=9, note=42, velocity=40, time=0),
    Message('note_off', channel=9, note=36, velocity=64, time=191),
    Message('note_off', channel=9, note=42, velocity=64, time=1),
    Message('note_on', channel=9, note=42, velocity=40, time=0),
    Message('note_on', channel=9, note=38, velocity=120, time=0),
    Message('note_off', channel=9, note=38, velocity=64, time=192),
    Message('note_off', channel=9, note=42, velocity=64, time=0),
    Message('note_on', channel=9, note=42, velocity=40, time=0),
    Message('note_off', channel=9, note=42, velocity=64, time=192),
    Message('note_on', channel=9, note=36, velocity=120, time=0),
    Message('note_on', channel=9, note=42, velocity=40, time=0),
    Message('note_off', channel=9, note=42, velocity=64, time=192),
    Message('note_on', channel=9, note=42, velocity=40, time=0),
    Message('note_off', channel=9, note=36, velocity=64, time=191),
    Message('note_off', channel=9, note=42, velocity=64, time=1),
    Message('note_on', channel=9, note=42, velocity=40, time=0),
    Message('note_on', channel=9, note=38, velocity=120, time=0),
    Message('note_off', channel=9, note=38, velocity=64, time=192),
    Message('note_off', channel=9, note=42, velocity=64, time=0),
    Message('note_on', channel=9, note=42, velocity=40, time=0),
    Message('note_off', channel=9, note=42, velocity=64, time=192),
    Message('note_on', channel=9, note=38, velocity=120, time=0),
    Message('note_on', channel=9, note=42, velocity=40, time=0),
    Message('note_off', channel=9, note=42, velocity=64, time=192),
    Message('note_off', channel=9, note=38, velocity=64, time=0),
    Message('note_on', channel=9, note=36, velocity=120, time=0),
    Message('note_on', channel=9, note=42, velocity=40, time=0),
    Message('note_off', channel=9, note=36, velocity=64, time=191),
    Message('note_off', channel=9, note=42, velocity=64, time=1),
    Message('note_on', channel=9, note=42, velocity=40, time=0),
    Message('note_on', channel=9, note=38, velocity=120, time=0),
    Message('note_off', channel=9, note=38, velocity=64, time=192),
    Message('note_off', channel=9, note=42, velocity=64, time=0),
    Message('note_on', channel=9, note=42, velocity=40, time=0),
    Message('note_off', channel=9, note=42, velocity=64, time=192),
    Message('note_on', channel=9, note=38, velocity=120, time=0),
    Message('note_on', channel=9, note=42, velocity=40, time=0),
    Message('note_off', channel=9, note=42, velocity=64, time=192),
    Message('note_off', channel=9, note=38, velocity=64, time=0),
    Message('note_on', channel=9, note=36, velocity=120, time=0),
    Message('note_on', channel=9, note=42, velocity=40, time=0),
    Message('note_off', channel=9, note=36, velocity=64, time=191),
    Message('note_off', channel=9, note=42, velocity=64, time=1),
    Message('note_on', channel=9, note=42, velocity=40, time=0),
    Message('note_on', channel=9, note=38, velocity=120, time=0),
    Message('note_off', channel=9, note=38, velocity=64, time=192),
    Message('note_off', channel=9, note=42, velocity=64, time=0),
    Message('note_on', channel=9, note=49, velocity=60, time=0),
    Message('note_on', channel=9, note=36, velocity=120, time=0),
    Message('note_off', channel=9, note=36, velocity=64, time=191),
    Message('note_off', channel=9, note=49, velocity=64, time=1),
    Message('note_on', channel=9, note=42, velocity=40, time=0),
    Message('note_off', channel=9, note=42, velocity=64, time=192),
    Message('note_on', channel=9, note=42, velocity=40, time=0),
    Message('note_off', channel=9, note=42, velocity=64, time=192),
    Message('note_on', channel=9, note=42, velocity=40, time=0),
    Message('note_on', channel=9, note=38, velocity=120, time=0),
    Message('note_off', channel=9, note=38, velocity=64, time=192),
    Message('note_off', channel=9, note=42, velocity=64, time=0),
    Message('note_on', channel=9, note=42, velocity=40, time=0),
    Message('note_off', channel=9, note=42, velocity=64, time=192),
    Message('note_on', channel=9, note=36, velocity=120, time=0),
    Message('note_on', channel=9, note=42, velocity=40, time=0),
    Message('note_off', channel=9, note=42, velocity=64, time=192),
    Message('note_on', channel=9, note=42, velocity=40, time=0),
    Message('note_off', channel=9, note=36, velocity=64, time=191),
    Message('note_off', channel=9, note=42, velocity=64, time=1),
    Message('note_on', channel=9, note=42, velocity=40, time=0),
    Message('note_on', channel=9, note=38, velocity=120, time=0),
    Message('note_off', channel=9, note=38, velocity=64, time=192),
    Message('note_off', channel=9, note=42, velocity=64, time=0),
    Message('note_on', channel=9, note=42, velocity=40, time=0),
    Message('note_off', channel=9, note=42, velocity=64, time=192),
    Message('note_on', channel=9, note=36, velocity=120, time=0),
    Message('note_on', channel=9, note=42, velocity=40, time=0),
    Message('note_off', channel=9, note=42, velocity=64, time=192),
    Message('note_on', channel=9, note=42, velocity=40, time=0),
    Message('note_off', channel=9, note=36, velocity=64, time=191),
    Message('note_off', channel=9, note=42, velocity=64, time=1),
    Message('note_on', channel=9, note=42, velocity=40, time=0),
    Message('note_on', channel=9, note=38, velocity=120, time=0),
    Message('note_off', channel=9, note=38, velocity=64, time=192),
    Message('note_off', channel=9, note=42, velocity=64, time=0),
    Message('note_on', channel=9, note=42, velocity=40, time=0),
    Message('note_off', channel=9, note=42, velocity=64, time=192),
    Message('note_on', channel=9, note=36, velocity=120, time=0),
    Message('note_on', channel=9, note=42, velocity=40, time=0),
    Message('note_off', channel=9, note=42, velocity=64, time=192),
    Message('note_on', channel=9, note=42, velocity=40, time=0),
    Message('note_off', channel=9, note=36, velocity=64, time=191),
    Message('note_off', channel=9, note=42, velocity=64, time=1),
    Message('note_on', channel=9, note=42, velocity=40, time=0),
    Message('note_on', channel=9, note=38, velocity=120, time=0),
    Message('note_off', channel=9, note=38, velocity=64, time=192),
    Message('note_off', channel=9, note=42, velocity=64, time=0),
    Message('note_on', channel=9, note=42, velocity=40, time=0),
    Message('note_off', channel=9, note=42, velocity=64, time=192),
    Message('note_on', channel=9, note=36, velocity=120, time=0),
    Message('note_on', channel=9, note=42, velocity=40, time=0),
    Message('note_off', channel=9, note=42, velocity=64, time=192),
    Message('note_on', channel=9, note=42, velocity=40, time=0),
    Message('note_off', channel=9, note=36, velocity=64, time=191),
    Message('note_off', channel=9, note=42, velocity=64, time=1),
    Message('note_on', channel=9, note=42, velocity=40, time=0),
    Message('note_on', channel=9, note=38, velocity=120, time=0),
    Message('note_off', channel=9, note=38, velocity=64, time=192),
    Message('note_off', channel=9, note=42, velocity=64, time=0),
    Message('note_on', channel=9, note=42, velocity=40, time=0),
    Message('note_off', channel=9, note=42, velocity=64, time=192),
    Message('note_on', channel=9, note=36, velocity=120, time=0),
    Message('note_on', channel=9, note=42, velocity=40, time=0),
    Message('note_off', channel=9, note=42, velocity=64, time=192),
    Message('note_on', channel=9, note=42, velocity=40, time=0),
    Message('note_off', channel=9, note=36, velocity=64, time=191),
    Message('note_off', channel=9, note=42, velocity=64, time=1),
    Message('note_on', channel=9, note=42, velocity=40, time=0),
    Message('note_on', channel=9, note=38, velocity=120, time=0),
    Message('note_off', channel=9, note=38, velocity=64, time=192),
    Message('note_off', channel=9, note=42, velocity=64, time=0),
    Message('note_on', channel=9, note=42, velocity=40, time=0),
    Message('note_off', channel=9, note=42, velocity=64, time=192),
    Message('note_on', channel=9, note=38, velocity=120, time=0),
    Message('note_on', channel=9, note=49, velocity=60, time=0),
    Message('note_on', channel=9, note=36, velocity=120, time=0),
    Message('note_off', channel=9, note=49, velocity=64, time=192),
    Message('note_off', channel=9, note=38, velocity=64, time=0),
    Message('note_on', channel=9, note=45, velocity=120, time=0),
    Message('note_on', channel=9, note=47, velocity=120, time=0),
    Message('note_off', channel=9, note=36, velocity=64, time=191),
    Message('note_off', channel=9, note=47, velocity=64, time=1),
    Message('note_off', channel=9, note=45, velocity=64, time=0),
    Message('note_on', channel=9, note=47, velocity=120, time=0),
    Message('note_on', channel=9, note=45, velocity=120, time=0),
    Message('note_on', channel=9, note=36, velocity=120, time=0),
    Message('note_off', channel=9, note=45, velocity=64, time=192),
    Message('note_off', channel=9, note=47, velocity=64, time=0),
    Message('note_on', channel=9, note=47, velocity=120, time=0),
    Message('note_on', channel=9, note=45, velocity=120, time=0),
    Message('note_off', channel=9, note=45, velocity=64, time=192),
    Message('note_off', channel=9, note=47, velocity=64, time=0),
    Message('note_off', channel=9, note=36, velocity=64, time=0),
    Message('note_on', channel=9, note=47, velocity=120, time=0),
    Message('note_on', channel=9, note=45, velocity=120, time=0),
    Message('note_on', channel=9, note=36, velocity=120, time=0),
    Message('note_off', channel=9, note=45, velocity=64, time=192),
    Message('note_off', channel=9, note=47, velocity=64, time=0),
    Message('note_on', channel=9, note=47, velocity=120, time=0),
    Message('note_on', channel=9, note=45, velocity=120, time=0),
    Message('note_off', channel=9, note=36, velocity=64, time=191),
    Message('note_off', channel=9, note=45, velocity=64, time=1),
    Message('note_off', channel=9, note=47, velocity=64, time=0),
    Message('note_on', channel=9, note=47, velocity=120, time=0),
    Message('note_on', channel=9, note=45, velocity=120, time=0),
    Message('note_off', channel=9, note=45, velocity=64, time=192),
    Message('note_off', channel=9, note=47, velocity=64, time=0),
    Message('note_on', channel=9, note=36, velocity=120, time=0),
    Message('note_on', channel=9, note=49, velocity=60, time=0),
    Message('note_off', channel=9, note=36, velocity=64, time=191),
    Message('note_off', channel=9, note=49, velocity=64, time=1),
    Message('note_on', channel=9, note=42, velocity=40, time=0),
    Message('note_off', channel=9, note=42, velocity=64, time=192),
    Message('note_on', channel=9, note=42, velocity=40, time=0),
    Message('note_off', channel=9, note=42, velocity=64, time=192),
    Message('note_on', channel=9, note=42, velocity=40, time=0),
    Message('note_on', channel=9, note=38, velocity=120, time=0),
    Message('note_off', channel=9, note=38, velocity=64, time=192),
    Message('note_off', channel=9, note=42, velocity=64, time=0),
    Message('note_on', channel=9, note=42, velocity=40, time=0),
    Message('note_off', channel=9, note=42, velocity=64, time=192),
    Message('note_on', channel=9, note=36, velocity=120, time=0),
    Message('note_on', channel=9, note=42, velocity=40, time=0),
    Message('note_off', channel=9, note=42, velocity=64, time=192),
    Message('note_on', channel=9, note=42, velocity=40, time=0),
    Message('note_off', channel=9, note=36, velocity=64, time=191),
    Message('note_off', channel=9, note=42, velocity=64, time=1),
    Message('note_on', channel=9, note=42, velocity=40, time=0),
    Message('note_on', channel=9, note=38, velocity=120, time=0),
    Message('note_off', channel=9, note=38, velocity=64, time=192),
    Message('note_off', channel=9, note=42, velocity=64, time=0),
    Message('note_on', channel=9, note=42, velocity=40, time=0),
    Message('note_off', channel=9, note=42, velocity=64, time=192),
    Message('note_on', channel=9, note=36, velocity=120, time=0),
    Message('note_on', channel=9, note=42, velocity=40, time=0),
    Message('note_off', channel=9, note=42, velocity=64, time=192),
    Message('note_on', channel=9, note=42, velocity=40, time=0),
    Message('note_off', channel=9, note=36, velocity=64, time=191),
    Message('note_off', channel=9, note=42, velocity=64, time=1),
    Message('note_on', channel=9, note=42, velocity=40, time=0),
    Message('note_on', channel=9, note=38, velocity=120, time=0),
    Message('note_off', channel=9, note=38, velocity=64, time=192),
    Message('note_off', channel=9, note=42, velocity=64, time=0),
    Message('note_on', channel=9, note=42, velocity=40, time=0),
    Message('note_off', channel=9, note=42, velocity=64, time=192),
    Message('note_on', channel=9, note=36, velocity=120, time=0),
    Message('note_on', channel=9, note=42, velocity=40, time=0),
    Message('note_off', channel=9, note=42, velocity=64, time=192),
    Message('note_on', channel=9, note=42, velocity=40, time=0),
    Message('note_off', channel=9, note=36, velocity=64, time=191),
    Message('note_off', channel=9, note=42, velocity=64, time=1),
    Message('note_on', channel=9, note=42, velocity=40, time=0),
    Message('note_on', channel=9, note=38, velocity=120, time=0),
    Message('note_off', channel=9, note=38, velocity=64, time=192),
    Message('note_off', channel=9, note=42, velocity=64, time=0),
    Message('note_on', channel=9, note=42, velocity=40, time=0),
    Message('note_off', channel=9, note=42, velocity=64, time=192),
    Message('note_on', channel=9, note=36, velocity=120, time=0),
    Message('note_on', channel=9, note=42, velocity=40, time=0),
    Message('note_off', channel=9, note=42, velocity=64, time=192),
    Message('note_on', channel=9, note=42, velocity=40, time=0),
    Message('note_off', channel=9, note=36, velocity=64, time=191),
    Message('note_off', channel=9, note=42, velocity=64, time=1),
    Message('note_on', channel=9, note=42, velocity=40, time=0),
    Message('note_on', channel=9, note=38, velocity=120, time=0),
    Message('note_off', channel=9, note=38, velocity=64, time=192),
    Message('note_off', channel=9, note=42, velocity=64, time=0),
    Message('note_on', channel=9, note=42, velocity=40, time=0),
    Message('note_off', channel=9, note=42, velocity=64, time=192),
    Message('note_on', channel=9, note=36, velocity=120, time=0),
    Message('note_on', channel=9, note=42, velocity=40, time=0),
    Message('note_off', channel=9, note=42, velocity=64, time=192),
    Message('note_on', channel=9, note=42, velocity=40, time=0),
    Message('note_off', channel=9, note=36, velocity=64, time=191),
    Message('note_off', channel=9, note=42, velocity=64, time=1),
    Message('note_on', channel=9, note=42, velocity=40, time=0),
    Message('note_on', channel=9, note=38, velocity=120, time=0),
    Message('note_off', channel=9, note=38, velocity=64, time=192),
    Message('note_off', channel=9, note=42, velocity=64, time=0),
    Message('note_on', channel=9, note=42, velocity=40, time=0),
    Message('note_off', channel=9, note=42, velocity=64, time=192),
    Message('note_on', channel=9, note=36, velocity=120, time=0),
    Message('note_on', channel=9, note=42, velocity=40, time=0),
    Message('note_off', channel=9, note=42, velocity=64, time=192),
    Message('note_on', channel=9, note=42, velocity=40, time=0),
    Message('note_off', channel=9, note=36, velocity=64, time=191),
    Message('note_off', channel=9, note=42, velocity=64, time=1),
    Message('note_on', channel=9, note=42, velocity=40, time=0),
    Message('note_on', channel=9, note=38, velocity=120, time=0),
    Message('note_off', channel=9, note=38, velocity=64, time=192),
    Message('note_off', channel=9, note=42, velocity=64, time=0),
    Message('note_on', channel=9, note=42, velocity=40, time=0),
    Message('note_off', channel=9, note=42, velocity=64, time=192),
    Message('note_on', channel=9, note=36, velocity=120, time=0),
    Message('note_on', channel=9, note=42, velocity=40, time=0),
    Message('note_off', channel=9, note=42, velocity=64, time=192),
    Message('note_on', channel=9, note=42, velocity=40, time=0),
    Message('note_off', channel=9, note=36, velocity=64, time=191),
    Message('note_off', channel=9, note=42, velocity=64, time=1),
    Message('note_on', channel=9, note=42, velocity=40, time=0),
    Message('note_on', channel=9, note=38, velocity=120, time=0),
    Message('note_off', channel=9, note=38, velocity=64, time=192),
    Message('note_off', channel=9, note=42, velocity=64, time=0),
    Message('note_on', channel=9, note=49, velocity=60, time=0),
    Message('note_on', channel=9, note=36, velocity=120, time=0),
    Message('note_off', channel=9, note=36, velocity=64, time=191),
    Message('note_off', channel=9, note=49, velocity=64, time=1),
    Message('note_on', channel=9, note=42, velocity=40, time=0),
    Message('note_off', channel=9, note=42, velocity=64, time=192),
    Message('note_on', channel=9, note=42, velocity=40, time=0),
    Message('note_off', channel=9, note=42, velocity=64, time=192),
    Message('note_on', channel=9, note=42, velocity=40, time=0),
    Message('note_on', channel=9, note=38, velocity=120, time=0),
    Message('note_off', channel=9, note=38, velocity=64, time=192),
    Message('note_off', channel=9, note=42, velocity=64, time=0),
    Message('note_on', channel=9, note=42, velocity=40, time=0),
    Message('note_off', channel=9, note=42, velocity=64, time=192),
    Message('note_on', channel=9, note=36, velocity=120, time=0),
    Message('note_on', channel=9, note=42, velocity=40, time=0),
    Message('note_off', channel=9, note=42, velocity=64, time=192),
    Message('note_on', channel=9, note=42, velocity=40, time=0),
    Message('note_off', channel=9, note=36, velocity=64, time=191),
    Message('note_off', channel=9, note=42, velocity=64, time=1),
    Message('note_on', channel=9, note=42, velocity=40, time=0),
    Message('note_on', channel=9, note=38, velocity=120, time=0),
    Message('note_off', channel=9, note=38, velocity=64, time=192),
    Message('note_off', channel=9, note=42, velocity=64, time=0),
    Message('note_on', channel=9, note=42, velocity=40, time=0),
    Message('note_off', channel=9, note=42, velocity=64, time=192),
    Message('note_on', channel=9, note=36, velocity=120, time=0),
    Message('note_on', channel=9, note=42, velocity=40, time=0),
    Message('note_off', channel=9, note=42, velocity=64, time=192),
    Message('note_on', channel=9, note=42, velocity=40, time=0),
    Message('note_off', channel=9, note=36, velocity=64, time=191),
    Message('note_off', channel=9, note=42, velocity=64, time=1),
    Message('note_on', channel=9, note=42, velocity=40, time=0),
    Message('note_on', channel=9, note=38, velocity=120, time=0),
    Message('note_off', channel=9, note=38, velocity=64, time=192),
    Message('note_off', channel=9, note=42, velocity=64, time=0),
    Message('note_on', channel=9, note=42, velocity=40, time=0),
    Message('note_off', channel=9, note=42, velocity=64, time=192),
    Message('note_on', channel=9, note=36, velocity=120, time=0),
    Message('note_on', channel=9, note=42, velocity=40, time=0),
    Message('note_off', channel=9, note=42, velocity=64, time=192),
    Message('note_on', channel=9, note=42, velocity=40, time=0),
    Message('note_off', channel=9, note=36, velocity=64, time=191),
    Message('note_off', channel=9, note=42, velocity=64, time=1),
    Message('note_on', channel=9, note=42, velocity=40, time=0),
    Message('note_on', channel=9, note=38, velocity=120, time=0),
    Message('note_off', channel=9, note=38, velocity=64, time=192),
    Message('note_off', channel=9, note=42, velocity=64, time=0),
    Message('note_on', channel=9, note=42, velocity=40, time=0),
    Message('note_off', channel=9, note=42, velocity=64, time=192),
    Message('note_on', channel=9, note=36, velocity=120, time=0),
    Message('note_on', channel=9, note=42, velocity=40, time=0),
    Message('note_off', channel=9, note=42, velocity=64, time=192),
    Message('note_on', channel=9, note=42, velocity=40, time=0),
    Message('note_off', channel=9, note=36, velocity=64, time=191),
    Message('note_off', channel=9, note=42, velocity=64, time=1),
    Message('note_on', channel=9, note=42, velocity=40, time=0),
    Message('note_on', channel=9, note=38, velocity=120, time=0),
    Message('note_off', channel=9, note=38, velocity=64, time=192),
    Message('note_off', channel=9, note=42, velocity=64, time=0),
    Message('note_on', channel=9, note=42, velocity=40, time=0),
    Message('note_off', channel=9, note=42, velocity=64, time=192),
    Message('note_on', channel=9, note=36, velocity=120, time=0),
    Message('note_on', channel=9, note=42, velocity=40, time=0),
    Message('note_off', channel=9, note=42, velocity=64, time=192),
    Message('note_on', channel=9, note=42, velocity=40, time=0),
    Message('note_off', channel=9, note=36, velocity=64, time=191),
    Message('note_off', channel=9, note=42, velocity=64, time=1),
    Message('note_on', channel=9, note=42, velocity=40, time=0),
    Message('note_on', channel=9, note=38, velocity=120, time=0),
    Message('note_off', channel=9, note=38, velocity=64, time=192),
    Message('note_off', channel=9, note=42, velocity=64, time=0),
    Message('note_on', channel=9, note=42, velocity=40, time=0),
    Message('note_off', channel=9, note=42, velocity=64, time=192),
    Message('note_on', channel=9, note=36, velocity=120, time=0),
    Message('note_on', channel=9, note=42, velocity=40, time=0),
    Message('note_off', channel=9, note=42, velocity=64, time=192),
    Message('note_on', channel=9, note=42, velocity=40, time=0),
    Message('note_off', channel=9, note=36, velocity=64, time=191),
    Message('note_off', channel=9, note=42, velocity=64, time=1),
    Message('note_on', channel=9, note=42, velocity=40, time=0),
    Message('note_on', channel=9, note=38, velocity=120, time=0),
    Message('note_off', channel=9, note=38, velocity=64, time=192),
    Message('note_off', channel=9, note=42, velocity=64, time=0),
    Message('note_on', channel=9, note=42, velocity=40, time=0),
    Message('note_off', channel=9, note=42, velocity=64, time=192),
    Message('note_on', channel=9, note=36, velocity=120, time=0),
    Message('note_on', channel=9, note=42, velocity=40, time=0),
    Message('note_off', channel=9, note=42, velocity=64, time=192),
    Message('note_on', channel=9, note=42, velocity=40, time=0),
    Message('note_off', channel=9, note=36, velocity=64, time=191),
    Message('note_off', channel=9, note=42, velocity=64, time=1),
    Message('note_on', channel=9, note=42, velocity=40, time=0),
    Message('note_on', channel=9, note=38, velocity=120, time=0),
    Message('note_off', channel=9, note=38, velocity=64, time=192),
    Message('note_off', channel=9, note=42, velocity=64, time=0),
    Message('note_on', channel=9, note=49, velocity=60, time=0),
    Message('note_on', channel=9, note=36, velocity=120, time=0),
    Message('note_off', channel=9, note=36, velocity=64, time=191),
    Message('note_off', channel=9, note=49, velocity=64, time=1),
    Message('note_on', channel=9, note=42, velocity=40, time=192),
    Message('note_off', channel=9, note=42, velocity=64, time=192),
    Message('note_on', channel=9, note=42, velocity=40, time=0),
    Message('note_off', channel=9, note=42, velocity=64, time=192),
    Message('note_on', channel=9, note=42, velocity=40, time=0),
    Message('note_off', channel=9, note=42, velocity=64, time=192),
    Message('note_on', channel=9, note=38, velocity=120, time=0),
    Message('note_on', channel=9, note=42, velocity=40, time=0),
    Message('note_off', channel=9, note=42, velocity=64, time=192),
    Message('note_off', channel=9, note=38, velocity=64, time=0),
    Message('note_on', channel=9, note=42, velocity=40, time=0),
    Message('note_off', channel=9, note=42, velocity=64, time=192),
    Message('note_on', channel=9, note=42, velocity=40, time=0),
    Message('note_off', channel=9, note=42, velocity=64, time=192),
    Message('note_on', channel=9, note=49, velocity=60, time=0),
    Message('note_on', channel=9, note=36, velocity=120, time=0),
    Message('note_off', channel=9, note=36, velocity=64, time=191),
    Message('note_off', channel=9, note=49, velocity=64, time=1),
    Message('note_on', channel=9, note=42, velocity=40, time=0),
    Message('note_off', channel=9, note=42, velocity=64, time=192),
    Message('note_on', channel=9, note=42, velocity=40, time=0),
    Message('note_off', channel=9, note=42, velocity=64, time=192),
    Message('note_on', channel=9, note=42, velocity=40, time=0),
    Message('note_off', channel=9, note=42, velocity=64, time=192),
    Message('note_on', channel=9, note=42, velocity=40, time=0),
    Message('note_off', channel=9, note=42, velocity=64, time=192),
    Message('note_on', channel=9, note=38, velocity=120, time=0),
    Message('note_on', channel=9, note=42, velocity=40, time=0),
    Message('note_off', channel=9, note=42, velocity=64, time=192),
    Message('note_off', channel=9, note=38, velocity=64, time=0),
    Message('note_on', channel=9, note=42, velocity=40, time=0),
    Message('note_off', channel=9, note=42, velocity=64, time=192),
    Message('note_on', channel=9, note=42, velocity=40, time=0),
    Message('note_off', channel=9, note=42, velocity=64, time=192),
    Message('note_on', channel=9, note=49, velocity=60, time=0),
    Message('note_on', channel=9, note=36, velocity=120, time=0),
    Message('note_off', channel=9, note=36, velocity=64, time=191),
    Message('note_off', channel=9, note=49, velocity=64, time=1),
    Message('note_on', channel=9, note=42, velocity=40, time=0),
    Message('note_off', channel=9, note=42, velocity=64, time=192),
    Message('note_on', channel=9, note=42, velocity=40, time=0),
    Message('note_off', channel=9, note=42, velocity=64, time=192),
    Message('note_on', channel=9, note=42, velocity=40, time=0),
    Message('note_off', channel=9, note=42, velocity=64, time=192),
    Message('note_on', channel=9, note=42, velocity=40, time=0),
    Message('note_off', channel=9, note=42, velocity=64, time=192),
    Message('note_on', channel=9, note=38, velocity=120, time=0),
    Message('note_on', channel=9, note=42, velocity=40, time=0),
    Message('note_off', channel=9, note=42, velocity=64, time=192),
    Message('note_off', channel=9, note=38, velocity=64, time=0),
    Message('note_on', channel=9, note=42, velocity=40, time=0),
    Message('note_off', channel=9, note=42, velocity=64, time=192),
    Message('note_on', channel=9, note=42, velocity=40, time=0),
    Message('note_off', channel=9, note=42, velocity=64, time=192),
    Message('note_on', channel=9, note=42, velocity=40, time=0),
    Message('note_off', channel=9, note=42, velocity=64, time=192),
    Message('note_on', channel=9, note=38, velocity=120, time=0),
    Message('note_on', channel=9, note=43, velocity=120, time=0),
    Message('note_on', channel=9, note=36, velocity=120, time=0),
    Message('note_off', channel=9, note=43, velocity=64, time=191),
    Message('note_off', channel=9, note=38, velocity=64, time=0),
    Message('note_on', channel=9, note=38, velocity=120, time=1),
    Message('note_on', channel=9, note=43, velocity=120, time=0),
    Message('note_off', channel=9, note=43, velocity=64, time=191),
    Message('note_off', channel=9, note=38, velocity=64, time=0),
    Message('note_off', channel=9, note=36, velocity=64, time=0),
    Message('note_on', channel=9, note=38, velocity=120, time=1),
    Message('note_on', channel=9, note=43, velocity=120, time=0),
    Message('note_on', channel=9, note=36, velocity=120, time=0),
    Message('note_off', channel=9, note=43, velocity=64, time=191),
    Message('note_off', channel=9, note=38, velocity=64, time=0),
    Message('note_on', channel=9, note=38, velocity=120, time=1),
    Message('note_on', channel=9, note=43, velocity=120, time=0),
    Message('note_off', channel=9, note=43, velocity=64, time=191),
    Message('note_off', channel=9, note=38, velocity=64, time=0),
    Message('note_off', channel=9, note=36, velocity=64, time=0),
    Message('note_on', channel=9, note=38, velocity=120, time=1),
    Message('note_on', channel=9, note=43, velocity=120, time=0),
    Message('note_on', channel=9, note=36, velocity=120, time=0),
    Message('note_off', channel=9, note=43, velocity=64, time=191),
    Message('note_off', channel=9, note=38, velocity=64, time=0),
    Message('note_on', channel=9, note=38, velocity=120, time=1),
    Message('note_on', channel=9, note=43, velocity=120, time=0),
    Message('note_off', channel=9, note=43, velocity=64, time=191),
    Message('note_off', channel=9, note=38, velocity=64, time=0),
    Message('note_off', channel=9, note=36, velocity=64, time=0),
    Message('note_on', channel=9, note=38, velocity=120, time=1),
    Message('note_off', channel=9, note=38, velocity=64, time=191),
    Message('note_on', channel=9, note=49, velocity=60, time=1),
    Message('note_on', channel=9, note=38, velocity=120, time=0),
    Message('note_off', channel=9, note=38, velocity=64, time=191),
    Message('note_off', channel=9, note=49, velocity=64, time=1),
    Message('note_on', channel=9, note=36, velocity=120, time=0),
    Message('note_on', channel=9, note=49, velocity=60, time=0),
    Message('note_off', channel=9, note=36, velocity=64, time=383),
    Message('note_off', channel=9, note=49, velocity=64, time=1),
    Message('note_on', channel=9, note=38, velocity=120, time=0),
    Message('note_on', channel=9, note=42, velocity=40, time=0),
    Message('note_off', channel=9, note=38, velocity=64, time=191),
    Message('note_off', channel=9, note=42, velocity=64, time=1),
    Message('note_on', channel=9, note=42, velocity=40, time=0),
    Message('note_off', channel=9, note=42, velocity=64, time=192),
    Message('note_on', channel=9, note=36, velocity=120, time=0),
    Message('note_on', channel=9, note=42, velocity=40, time=0),
    Message('note_off', channel=9, note=42, velocity=64, time=192),
    Message('note_on', channel=9, note=42, velocity=40, time=0),
    Message('note_off', channel=9, note=36, velocity=64, time=191),
    Message('note_off', channel=9, note=42, velocity=64, time=1),
    Message('note_on', channel=9, note=38, velocity=120, time=0),
    Message('note_on', channel=9, note=42, velocity=40, time=0),
    Message('note_off', channel=9, note=38, velocity=64, time=191),
    Message('note_off', channel=9, note=42, velocity=64, time=1),
    Message('note_on', channel=9, note=42, velocity=40, time=0),
    Message('note_off', channel=9, note=42, velocity=64, time=192),
    Message('note_on', channel=9, note=42, velocity=40, time=0),
    Message('note_on', channel=9, note=36, velocity=120, time=0),
    Message('note_off', channel=9, note=42, velocity=64, time=192),
    Message('note_on', channel=9, note=42, velocity=40, time=0),
    Message('note_off', channel=9, note=36, velocity=64, time=191),
    Message('note_off', channel=9, note=42, velocity=64, time=1),
    Message('note_on', channel=9, note=42, velocity=40, time=0),
    Message('note_on', channel=9, note=38, velocity=120, time=0),
    Message('note_off', channel=9, note=38, velocity=64, time=191),
    Message('note_off', channel=9, note=42, velocity=64, time=1),
    Message('note_on', channel=9, note=42, velocity=40, time=0),
    Message('note_off', channel=9, note=42, velocity=64, time=192),
    Message('note_on', channel=9, note=42, velocity=40, time=0),
    Message('note_on', channel=9, note=36, velocity=120, time=0),
    Message('note_off', channel=9, note=36, velocity=64, time=191),
    Message('note_off', channel=9, note=42, velocity=64, time=1),
    Message('note_on', channel=9, note=42, velocity=40, time=0),
    Message('note_on', channel=9, note=36, velocity=120, time=0),
    Message('note_off', channel=9, note=36, velocity=64, time=191),
    Message('note_off', channel=9, note=42, velocity=64, time=1),
    Message('note_on', channel=9, note=42, velocity=40, time=0),
    Message('note_on', channel=9, note=38, velocity=120, time=0),
    Message('note_off', channel=9, note=38, velocity=64, time=191),
    Message('note_off', channel=9, note=42, velocity=64, time=1),
    Message('note_on', channel=9, note=42, velocity=40, time=0),
    Message('note_off', channel=9, note=42, velocity=64, time=192),
    Message('note_on', channel=9, note=42, velocity=40, time=0),
    Message('note_on', channel=9, note=36, velocity=120, time=0),
    Message('note_off', channel=9, note=42, velocity=64, time=192),
    Message('note_on', channel=9, note=42, velocity=40, time=0),
    Message('note_off', channel=9, note=36, velocity=64, time=191),
    Message('note_off', channel=9, note=42, velocity=64, time=1),
    Message('note_on', channel=9, note=38, velocity=120, time=0),
    Message('note_on', channel=9, note=42, velocity=40, time=0),
    Message('note_off', channel=9, note=38, velocity=64, time=191),
    Message('note_off', channel=9, note=42, velocity=64, time=1),
    Message('note_on', channel=9, note=42, velocity=40, time=0),
    Message('note_off', channel=9, note=42, velocity=64, time=192),
    Message('note_on', channel=9, note=36, velocity=120, time=0),
    Message('note_on', channel=9, note=42, velocity=40, time=0),
    Message('note_off', channel=9, note=42, velocity=64, time=192),
    Message('note_on', channel=9, note=42, velocity=40, time=0),
    Message('note_off', channel=9, note=36, velocity=64, time=191),
    Message('note_off', channel=9, note=42, velocity=64, time=1),
    Message('note_on', channel=9, note=36, velocity=120, time=0),
    Message('note_on', channel=9, note=42, velocity=40, time=0),
    Message('note_off', channel=9, note=42, velocity=64, time=192),
    Message('note_on', channel=9, note=38, velocity=120, time=0),
    Message('note_on', channel=9, note=49, velocity=60, time=0),
    Message('note_off', channel=9, note=38, velocity=64, time=191),
    Message('note_off', channel=9, note=36, velocity=64, time=0),
    Message('note_off', channel=9, note=49, velocity=64, time=1),
    Message('note_on', channel=9, note=42, velocity=40, time=0),
    Message('note_on', channel=9, note=36, velocity=120, time=0),
    Message('note_off', channel=9, note=42, velocity=64, time=192),
    Message('note_on', channel=9, note=42, velocity=40, time=0),
    Message('note_off', channel=9, note=36, velocity=64, time=191),
    Message('note_off', channel=9, note=42, velocity=64, time=1),
    Message('note_on', channel=9, note=42, velocity=40, time=0),
    Message('note_on', channel=9, note=38, velocity=120, time=0),
    Message('note_off', channel=9, note=38, velocity=64, time=191),
    Message('note_off', channel=9, note=42, velocity=64, time=1),
    Message('note_on', channel=9, note=42, velocity=40, time=0),
    Message('note_off', channel=9, note=42, velocity=64, time=192),
    Message('note_on', channel=9, note=42, velocity=40, time=0),
    Message('note_on', channel=9, note=36, velocity=120, time=0),
    Message('note_off', channel=9, note=36, velocity=64, time=191),
    Message('note_off', channel=9, note=42, velocity=64, time=1),
    Message('note_on', channel=9, note=42, velocity=40, time=0),
    Message('note_on', channel=9, note=36, velocity=120, time=0),
    Message('note_off', channel=9, note=36, velocity=64, time=191),
    Message('note_off', channel=9, note=42, velocity=64, time=1),
    Message('note_on', channel=9, note=42, velocity=40, time=0),
    Message('note_on', channel=9, note=38, velocity=120, time=0),
    Message('note_off', channel=9, note=38, velocity=64, time=191),
    Message('note_off', channel=9, note=42, velocity=64, time=1),
    Message('note_on', channel=9, note=36, velocity=120, time=0),
    Message('note_on', channel=9, note=42, velocity=40, time=0),
    Message('note_off', channel=9, note=36, velocity=64, time=191),
    Message('note_off', channel=9, note=42, velocity=64, time=1),
    Message('note_on', channel=9, note=49, velocity=60, time=0),
    Message('note_on', channel=9, note=36, velocity=120, time=0),
    Message('note_off', channel=9, note=49, velocity=64, time=192),
    Message('note_off', channel=9, note=36, velocity=64, time=191),
    Message('note_on', channel=9, note=38, velocity=120, time=1),
    Message('note_on', channel=9, note=42, velocity=40, time=0),
    Message('note_off', channel=9, note=38, velocity=64, time=191),
    Message('note_off', channel=9, note=42, velocity=64, time=1),
    Message('note_on', channel=9, note=42, velocity=40, time=0),
    Message('note_off', channel=9, note=42, velocity=64, time=192),
    Message('note_on', channel=9, note=36, velocity=120, time=0),
    Message('note_on', channel=9, note=42, velocity=40, time=0),
    Message('note_off', channel=9, note=42, velocity=64, time=192),
    Message('note_on', channel=9, note=42, velocity=40, time=0),
    Message('note_off', channel=9, note=36, velocity=64, time=191),
    Message('note_off', channel=9, note=42, velocity=64, time=1),
    Message('note_on', channel=9, note=36, velocity=120, time=0),
    Message('note_on', channel=9, note=42, velocity=40, time=0),
    Message('note_off', channel=9, note=42, velocity=64, time=192),
    Message('note_on', channel=9, note=38, velocity=120, time=0),
    Message('note_on', channel=9, note=49, velocity=60, time=0),
    Message('note_off', channel=9, note=38, velocity=64, time=191),
    Message('note_off', channel=9, note=36, velocity=64, time=0),
    Message('note_off', channel=9, note=49, velocity=64, time=1),
    Message('note_on', channel=9, note=42, velocity=40, time=0),
    Message('note_on', channel=9, note=36, velocity=120, time=0),
    Message('note_off', channel=9, note=42, velocity=64, time=192),
    Message('note_on', channel=9, note=42, velocity=40, time=0),
    Message('note_off', channel=9, note=36, velocity=64, time=191),
    Message('note_off', channel=9, note=42, velocity=64, time=1),
    Message('note_on', channel=9, note=42, velocity=40, time=0),
    Message('note_on', channel=9, note=38, velocity=120, time=0),
    Message('note_off', channel=9, note=38, velocity=64, time=191),
    Message('note_off', channel=9, note=42, velocity=64, time=1),
    Message('note_on', channel=9, note=42, velocity=40, time=0),
    Message('note_off', channel=9, note=42, velocity=64, time=192),
    Message('note_on', channel=9, note=42, velocity=40, time=0),
    Message('note_on', channel=9, note=36, velocity=120, time=0),
    Message('note_off', channel=9, note=36, velocity=64, time=191),
    Message('note_off', channel=9, note=42, velocity=64, time=1),
    Message('note_on', channel=9, note=42, velocity=40, time=0),
    Message('note_on', channel=9, note=36, velocity=120, time=0),
    Message('note_off', channel=9, note=36, velocity=64, time=191),
    Message('note_off', channel=9, note=42, velocity=64, time=1),
    Message('note_on', channel=9, note=42, velocity=40, time=0),
    Message('note_on', channel=9, note=38, velocity=120, time=0),
    Message('note_off', channel=9, note=38, velocity=64, time=191),
    Message('note_off', channel=9, note=42, velocity=64, time=1),
    Message('note_on', channel=9, note=36, velocity=120, time=0),
    Message('note_on', channel=9, note=42, velocity=40, time=0),
    Message('note_off', channel=9, note=36, velocity=64, time=191),
    Message('note_off', channel=9, note=42, velocity=64, time=1),
    Message('note_on', channel=9, note=49, velocity=60, time=0),
    Message('note_on', channel=9, note=36, velocity=120, time=0),
    Message('note_off', channel=9, note=49, velocity=64, time=192),
    Message('note_off', channel=9, note=36, velocity=64, time=191),
    Message('note_on', channel=9, note=49, velocity=60, time=961),
    Message('note_on', channel=9, note=36, velocity=120, time=0),
    Message('note_off', channel=9, note=36, velocity=64, time=191),
    Message('note_off', channel=9, note=49, velocity=64, time=1),
    Message('note_on', channel=9, note=36, velocity=120, time=192),
    Message('note_off', channel=9, note=36, velocity=64, time=191),
    Message('note_on', channel=9, note=38, velocity=120, time=1),
    Message('note_on', channel=9, note=38, velocity=120, time=9),
    Message('note_on', channel=9, note=36, velocity=120, time=183),
    Message('note_off', channel=9, note=36, velocity=64, time=191),
    Message('note_off', channel=9, note=38, velocity=64, time=0),
    Message('note_on', channel=9, note=38, velocity=120, time=1),
    Message('note_off', channel=9, note=38, velocity=64, time=8),
    Message('note_on', channel=9, note=38, velocity=120, time=1),
    Message('note_on', channel=9, note=36, velocity=120, time=183),
    Message('note_off', channel=9, note=36, velocity=64, time=191),
    Message('note_off', channel=9, note=38, velocity=64, time=0),
    Message('note_on', channel=9, note=38, velocity=120, time=1),
    Message('note_off', channel=9, note=38, velocity=64, time=8),
    Message('note_on', channel=9, note=38, velocity=120, time=1),
    Message('note_on', channel=9, note=49, velocity=60, time=183),
    Message('note_on', channel=9, note=36, velocity=120, time=0),
    Message('note_off', channel=9, note=36, velocity=64, time=191),
    Message('note_off', channel=9, note=38, velocity=64, time=0),
    Message('note_off', channel=9, note=49, velocity=64, time=1),
    Message('note_on', channel=9, note=42, velocity=40, time=0),
    Message('note_off', channel=9, note=38, velocity=64, time=8),
    Message('note_off', channel=9, note=42, velocity=64, time=184),
    Message('note_on', channel=9, note=42, velocity=40, time=0),
    Message('note_off', channel=9, note=42, velocity=64, time=192),
    Message('note_on', channel=9, note=42, velocity=40, time=0),
    Message('note_on', channel=9, note=38, velocity=120, time=0),
    Message('note_off', channel=9, note=38, velocity=64, time=192),
    Message('note_off', channel=9, note=42, velocity=64, time=0),
    Message('note_on', channel=9, note=42, velocity=40, time=0),
    Message('note_off', channel=9, note=42, velocity=64, time=192),
    Message('note_on', channel=9, note=36, velocity=120, time=0),
    Message('note_on', channel=9, note=42, velocity=40, time=0),
    Message('note_off', channel=9, note=42, velocity=64, time=192),
    Message('note_on', channel=9, note=42, velocity=40, time=0),
    Message('note_off', channel=9, note=36, velocity=64, time=191),
    Message('note_off', channel=9, note=42, velocity=64, time=1),
    Message('note_on', channel=9, note=42, velocity=40, time=0),
    Message('note_on', channel=9, note=38, velocity=120, time=0),
    Message('note_off', channel=9, note=38, velocity=64, time=192),
    Message('note_off', channel=9, note=42, velocity=64, time=0),
    Message('note_on', channel=9, note=42, velocity=40, time=0),
    Message('note_off', channel=9, note=42, velocity=64, time=192),
    Message('note_on', channel=9, note=36, velocity=120, time=0),
    Message('note_on', channel=9, note=42, velocity=40, time=0),
    Message('note_off', channel=9, note=42, velocity=64, time=192),
    Message('note_on', channel=9, note=42, velocity=40, time=0),
    Message('note_off', channel=9, note=36, velocity=64, time=191),
    Message('note_off', channel=9, note=42, velocity=64, time=1),
    Message('note_on', channel=9, note=42, velocity=40, time=0),
    Message('note_on', channel=9, note=38, velocity=120, time=0),
    Message('note_off', channel=9, note=38, velocity=64, time=192),
    Message('note_off', channel=9, note=42, velocity=64, time=0),
    Message('note_on', channel=9, note=42, velocity=40, time=0),
    Message('note_off', channel=9, note=42, velocity=64, time=192),
    Message('note_on', channel=9, note=36, velocity=120, time=0),
    Message('note_on', channel=9, note=42, velocity=40, time=0),
    Message('note_off', channel=9, note=42, velocity=64, time=192),
    Message('note_on', channel=9, note=42, velocity=40, time=0),
    Message('note_off', channel=9, note=36, velocity=64, time=191),
    Message('note_off', channel=9, note=42, velocity=64, time=1),
    Message('note_on', channel=9, note=42, velocity=40, time=0),
    Message('note_on', channel=9, note=38, velocity=120, time=0),
    Message('note_off', channel=9, note=38, velocity=64, time=192),
    Message('note_off', channel=9, note=42, velocity=64, time=0),
    Message('note_on', channel=9, note=42, velocity=40, time=0),
    Message('note_off', channel=9, note=42, velocity=64, time=192),
    Message('note_on', channel=9, note=36, velocity=120, time=0),
    Message('note_on', channel=9, note=42, velocity=40, time=0),
    Message('note_off', channel=9, note=42, velocity=64, time=192),
    Message('note_on', channel=9, note=42, velocity=40, time=0),
    Message('note_off', channel=9, note=36, velocity=64, time=191),
    Message('note_off', channel=9, note=42, velocity=64, time=1),
    Message('note_on', channel=9, note=42, velocity=40, time=0),
    Message('note_on', channel=9, note=38, velocity=120, time=0),
    Message('note_off', channel=9, note=38, velocity=64, time=192),
    Message('note_off', channel=9, note=42, velocity=64, time=0),
    Message('note_on', channel=9, note=42, velocity=40, time=0),
    Message('note_off', channel=9, note=42, velocity=64, time=192),
    Message('note_on', channel=9, note=36, velocity=120, time=0),
    Message('note_on', channel=9, note=42, velocity=40, time=0),
    Message('note_off', channel=9, note=42, velocity=64, time=192),
    Message('note_on', channel=9, note=42, velocity=40, time=0),
    Message('note_off', channel=9, note=36, velocity=64, time=191),
    Message('note_off', channel=9, note=42, velocity=64, time=1),
    Message('note_on', channel=9, note=42, velocity=40, time=0),
    Message('note_on', channel=9, note=38, velocity=120, time=0),
    Message('note_off', channel=9, note=38, velocity=64, time=192),
    Message('note_off', channel=9, note=42, velocity=64, time=0),
    Message('note_on', channel=9, note=42, velocity=40, time=0),
    Message('note_off', channel=9, note=42, velocity=64, time=192),
    Message('note_on', channel=9, note=36, velocity=120, time=0),
    Message('note_on', channel=9, note=42, velocity=40, time=0),
    Message('note_off', channel=9, note=42, velocity=64, time=192),
    Message('note_on', channel=9, note=42, velocity=40, time=0),
    Message('note_off', channel=9, note=36, velocity=64, time=191),
    Message('note_off', channel=9, note=42, velocity=64, time=1),
    Message('note_on', channel=9, note=42, velocity=40, time=0),
    Message('note_on', channel=9, note=38, velocity=120, time=0),
    Message('note_off', channel=9, note=38, velocity=64, time=192),
    Message('note_off', channel=9, note=42, velocity=64, time=0),
    Message('note_on', channel=9, note=36, velocity=120, time=0),
    Message('note_on', channel=9, note=42, velocity=40, time=0),
    Message('note_off', channel=9, note=36, velocity=64, time=191),
    Message('note_off', channel=9, note=42, velocity=64, time=1),
    Message('note_on', channel=9, note=42, velocity=40, time=0),
    Message('note_off', channel=9, note=42, velocity=64, time=192),
    Message('note_on', channel=9, note=36, velocity=120, time=0),
    Message('note_on', channel=9, note=42, velocity=40, time=0),
    Message('note_off', channel=9, note=36, velocity=64, time=191),
    Message('note_off', channel=9, note=42, velocity=64, time=1),
    Message('note_on', channel=9, note=42, velocity=40, time=0),
    Message('note_on', channel=9, note=38, velocity=120, time=0),
    Message('note_off', channel=9, note=38, velocity=64, time=192),
    Message('note_off', channel=9, note=42, velocity=64, time=0),
    Message('note_on', channel=9, note=49, velocity=60, time=0),
    Message('note_on', channel=9, note=36, velocity=120, time=0),
    Message('note_off', channel=9, note=36, velocity=64, time=191),
    Message('note_off', channel=9, note=49, velocity=64, time=1),
    Message('note_on', channel=9, note=42, velocity=40, time=0),
    Message('note_off', channel=9, note=42, velocity=64, time=192),
    Message('note_on', channel=9, note=42, velocity=40, time=0),
    Message('note_off', channel=9, note=42, velocity=64, time=192),
    Message('note_on', channel=9, note=42, velocity=40, time=0),
    Message('note_on', channel=9, note=38, velocity=120, time=0),
    Message('note_off', channel=9, note=38, velocity=64, time=192),
    Message('note_off', channel=9, note=42, velocity=64, time=0),
    Message('note_on', channel=9, note=42, velocity=40, time=0),
    Message('note_off', channel=9, note=42, velocity=64, time=192),
    Message('note_on', channel=9, note=36, velocity=120, time=0),
    Message('note_on', channel=9, note=42, velocity=40, time=0),
    Message('note_off', channel=9, note=42, velocity=64, time=192),
    Message('note_on', channel=9, note=42, velocity=40, time=0),
    Message('note_off', channel=9, note=36, velocity=64, time=191),
    Message('note_off', channel=9, note=42, velocity=64, time=1),
    Message('note_on', channel=9, note=42, velocity=40, time=0),
    Message('note_on', channel=9, note=38, velocity=120, time=0),
    Message('note_off', channel=9, note=38, velocity=64, time=192),
    Message('note_off', channel=9, note=42, velocity=64, time=0),
    Message('note_on', channel=9, note=42, velocity=40, time=0),
    Message('note_off', channel=9, note=42, velocity=64, time=192),
    Message('note_on', channel=9, note=36, velocity=120, time=0),
    Message('note_on', channel=9, note=42, velocity=40, time=0),
    Message('note_off', channel=9, note=42, velocity=64, time=192),
    Message('note_on', channel=9, note=42, velocity=40, time=0),
    Message('note_off', channel=9, note=36, velocity=64, time=191),
    Message('note_off', channel=9, note=42, velocity=64, time=1),
    Message('note_on', channel=9, note=42, velocity=40, time=0),
    Message('note_on', channel=9, note=38, velocity=120, time=0),
    Message('note_off', channel=9, note=38, velocity=64, time=192),
    Message('note_off', channel=9, note=42, velocity=64, time=0),
    Message('note_on', channel=9, note=42, velocity=40, time=0),
    Message('note_off', channel=9, note=42, velocity=64, time=192),
    Message('note_on', channel=9, note=36, velocity=120, time=0),
    Message('note_on', channel=9, note=42, velocity=40, time=0),
    Message('note_off', channel=9, note=42, velocity=64, time=192),
    Message('note_on', channel=9, note=42, velocity=40, time=0),
    Message('note_off', channel=9, note=36, velocity=64, time=191),
    Message('note_off', channel=9, note=42, velocity=64, time=1),
    Message('note_on', channel=9, note=42, velocity=40, time=0),
    Message('note_on', channel=9, note=38, velocity=120, time=0),
    Message('note_off', channel=9, note=38, velocity=64, time=192),
    Message('note_off', channel=9, note=42, velocity=64, time=0),
    Message('note_on', channel=9, note=42, velocity=40, time=0),
    Message('note_off', channel=9, note=42, velocity=64, time=192),
    Message('note_on', channel=9, note=36, velocity=120, time=0),
    Message('note_on', channel=9, note=42, velocity=40, time=0),
    Message('note_off', channel=9, note=42, velocity=64, time=192),
    Message('note_on', channel=9, note=42, velocity=40, time=0),
    Message('note_off', channel=9, note=36, velocity=64, time=191),
    Message('note_off', channel=9, note=42, velocity=64, time=1),
    Message('note_on', channel=9, note=42, velocity=40, time=0),
    Message('note_on', channel=9, note=38, velocity=120, time=0),
    Message('note_off', channel=9, note=38, velocity=64, time=192),
    Message('note_off', channel=9, note=42, velocity=64, time=0),
    Message('note_on', channel=9, note=42, velocity=40, time=0),
    Message('note_off', channel=9, note=42, velocity=64, time=192),
    Message('note_on', channel=9, note=36, velocity=120, time=0),
    Message('note_on', channel=9, note=42, velocity=40, time=0),
    Message('note_off', channel=9, note=42, velocity=64, time=192),
    Message('note_on', channel=9, note=38, velocity=120, time=0),
    Message('note_on', channel=9, note=42, velocity=40, time=0),
    Message('note_off', channel=9, note=36, velocity=64, time=191),
    Message('note_off', channel=9, note=42, velocity=64, time=1),
    Message('note_off', channel=9, note=38, velocity=64, time=0),
    Message('note_on', channel=9, note=48, velocity=120, time=0),
    Message('note_on', channel=9, note=42, velocity=40, time=0),
    Message('note_off', channel=9, note=42, velocity=64, time=192),
    Message('note_off', channel=9, note=48, velocity=64, time=0),
    Message('note_on', channel=9, note=36, velocity=120, time=0),
    Message('note_on', channel=9, note=42, velocity=40, time=0),
    Message('note_off', channel=9, note=36, velocity=64, time=191),
    Message('note_off', channel=9, note=42, velocity=64, time=1),
    Message('note_on', channel=9, note=38, velocity=120, time=0),
    Message('note_on', channel=9, note=42, velocity=40, time=0),
    Message('note_off', channel=9, note=42, velocity=64, time=192),
    Message('note_off', channel=9, note=38, velocity=64, time=0),
    Message('note_on', channel=9, note=38, velocity=120, time=0),
    Message('note_on', channel=9, note=42, velocity=40, time=0),
    Message('note_off', channel=9, note=42, velocity=64, time=192),
    Message('note_off', channel=9, note=38, velocity=64, time=0),
    Message('note_on', channel=9, note=36, velocity=120, time=0),
    Message('note_on', channel=9, note=42, velocity=40, time=0),
    Message('note_off', channel=9, note=36, velocity=64, time=191),
    Message('note_off', channel=9, note=42, velocity=64, time=1),
    Message('note_on', channel=9, note=36, velocity=120, time=0),
    Message('note_on', channel=9, note=42, velocity=40, time=0),
    Message('note_off', channel=9, note=36, velocity=64, time=191),
    Message('note_off', channel=9, note=42, velocity=64, time=1),
    Message('note_on', channel=9, note=36, velocity=120, time=0),
    Message('note_on', channel=9, note=42, velocity=40, time=0),
    Message('note_off', channel=9, note=36, velocity=64, time=191),
    Message('note_off', channel=9, note=42, velocity=64, time=1),
    Message('note_on', channel=9, note=36, velocity=120, time=0),
    Message('note_on', channel=9, note=42, velocity=40, time=0),
    Message('note_off', channel=9, note=36, velocity=64, time=191),
    Message('note_off', channel=9, note=42, velocity=64, time=1),
    Message('note_on', channel=9, note=42, velocity=40, time=0),
    Message('note_on', channel=9, note=38, velocity=120, time=0),
    Message('note_off', channel=9, note=38, velocity=64, time=192),
    Message('note_off', channel=9, note=42, velocity=64, time=0),
    Message('note_on', channel=9, note=49, velocity=60, time=0),
    Message('note_on', channel=9, note=36, velocity=120, time=0),
    Message('note_off', channel=9, note=36, velocity=64, time=191),
    Message('note_off', channel=9, note=49, velocity=64, time=0),
    Message('note_on', channel=9, note=42, velocity=40, time=1),
    Message('note_off', channel=9, note=42, velocity=64, time=192),
    Message('note_on', channel=9, note=42, velocity=40, time=0),
    Message('note_off', channel=9, note=42, velocity=64, time=192),
    Message('note_on', channel=9, note=42, velocity=40, time=0),
    Message('note_off', channel=9, note=42, velocity=64, time=192),
    Message('note_on', channel=9, note=42, velocity=40, time=0),
    Message('note_off', channel=9, note=42, velocity=64, time=192),
    Message('note_on', channel=9, note=38, velocity=120, time=0),
    Message('note_on', channel=9, note=42, velocity=40, time=0),
    Message('note_off', channel=9, note=42, velocity=64, time=192),
    Message('note_off', channel=9, note=38, velocity=64, time=0),
    Message('note_on', channel=9, note=42, velocity=40, time=0),
    Message('note_off', channel=9, note=42, velocity=64, time=192),
    Message('note_on', channel=9, note=42, velocity=40, time=0),
    Message('note_off', channel=9, note=42, velocity=64, time=192),
    Message('note_on', channel=9, note=49, velocity=60, time=0),
    Message('note_on', channel=9, note=36, velocity=120, time=0),
    Message('note_off', channel=9, note=36, velocity=64, time=191),
    Message('note_off', channel=9, note=49, velocity=64, time=1),
    Message('note_on', channel=9, note=42, velocity=40, time=0),
    Message('note_off', channel=9, note=42, velocity=64, time=192),
    Message('note_on', channel=9, note=42, velocity=40, time=0),
    Message('note_off', channel=9, note=42, velocity=64, time=192),
    Message('note_on', channel=9, note=42, velocity=40, time=0),
    Message('note_off', channel=9, note=42, velocity=64, time=192),
    Message('note_on', channel=9, note=42, velocity=40, time=0),
    Message('note_off', channel=9, note=42, velocity=64, time=192),
    Message('note_on', channel=9, note=38, velocity=120, time=0),
    Message('note_on', channel=9, note=42, velocity=40, time=0),
    Message('note_off', channel=9, note=42, velocity=64, time=192),
    Message('note_off', channel=9, note=38, velocity=64, time=0),
    Message('note_on', channel=9, note=42, velocity=40, time=0),
    Message('note_off', channel=9, note=42, velocity=64, time=192),
    Message('note_on', channel=9, note=42, velocity=40, time=0),
    Message('note_off', channel=9, note=42, velocity=64, time=192),
    Message('note_on', channel=9, note=49, velocity=60, time=0),
    Message('note_on', channel=9, note=36, velocity=120, time=0),
    Message('note_off', channel=9, note=36, velocity=64, time=191),
    Message('note_off', channel=9, note=49, velocity=64, time=1),
    Message('note_on', channel=9, note=42, velocity=40, time=0),
    Message('note_off', channel=9, note=42, velocity=64, time=192),
    Message('note_on', channel=9, note=42, velocity=40, time=0),
    Message('note_off', channel=9, note=42, velocity=64, time=192),
    Message('note_on', channel=9, note=42, velocity=40, time=0),
    Message('note_off', channel=9, note=42, velocity=64, time=192),
    Message('note_on', channel=9, note=42, velocity=40, time=0),
    Message('note_off', channel=9, note=42, velocity=64, time=192),
    Message('note_on', channel=9, note=38, velocity=120, time=0),
    Message('note_on', channel=9, note=42, velocity=40, time=0),
    Message('note_off', channel=9, note=42, velocity=64, time=192),
    Message('note_off', channel=9, note=38, velocity=64, time=0),
    Message('note_on', channel=9, note=42, velocity=40, time=0),
    Message('note_off', channel=9, note=42, velocity=64, time=192),
    Message('note_on', channel=9, note=42, velocity=40, time=0),
    Message('note_off', channel=9, note=42, velocity=64, time=192),
    Message('note_on', channel=9, note=42, velocity=40, time=0),
    Message('note_off', channel=9, note=42, velocity=64, time=192),
    Message('note_on', channel=9, note=38, velocity=120, time=0),
    Message('note_on', channel=9, note=43, velocity=120, time=0),
    Message('note_on', channel=9, note=36, velocity=120, time=0),
    Message('note_off', channel=9, note=43, velocity=64, time=191),
    Message('note_off', channel=9, note=38, velocity=64, time=0),
    Message('note_on', channel=9, note=38, velocity=120, time=1),
    Message('note_on', channel=9, note=43, velocity=120, time=0),
    Message('note_off', channel=9, note=43, velocity=64, time=191),
    Message('note_off', channel=9, note=38, velocity=64, time=0),
    Message('note_off', channel=9, note=36, velocity=64, time=0),
    Message('note_on', channel=9, note=38, velocity=120, time=1),
    Message('note_on', channel=9, note=43, velocity=120, time=0),
    Message('note_on', channel=9, note=36, velocity=120, time=0),
    Message('note_off', channel=9, note=43, velocity=64, time=191),
    Message('note_off', channel=9, note=38, velocity=64, time=0),
    Message('note_on', channel=9, note=38, velocity=120, time=1),
    Message('note_on', channel=9, note=43, velocity=120, time=0),
    Message('note_off', channel=9, note=43, velocity=64, time=191),
    Message('note_off', channel=9, note=38, velocity=64, time=0),
    Message('note_off', channel=9, note=36, velocity=64, time=0),
    Message('note_on', channel=9, note=38, velocity=120, time=1),
    Message('note_on', channel=9, note=43, velocity=120, time=0),
    Message('note_on', channel=9, note=36, velocity=120, time=0),
    Message('note_off', channel=9, note=43, velocity=64, time=191),
    Message('note_off', channel=9, note=38, velocity=64, time=0),
    Message('note_on', channel=9, note=38, velocity=120, time=1),
    Message('note_on', channel=9, note=43, velocity=120, time=0),
    Message('note_off', channel=9, note=43, velocity=64, time=191),
    Message('note_off', channel=9, note=38, velocity=64, time=0),
    Message('note_off', channel=9, note=36, velocity=64, time=0),
    Message('note_on', channel=9, note=49, velocity=60, time=1),
    Message('note_on', channel=9, note=38, velocity=120, time=0),
    Message('note_off', channel=9, note=38, velocity=64, time=383),
    Message('note_off', channel=9, note=49, velocity=64, time=0),
    Message('note_on', channel=9, note=36, velocity=120, time=1),
    Message('note_on', channel=9, note=49, velocity=60, time=0),
    Message('note_off', channel=9, note=36, velocity=64, time=383),
    Message('note_off', channel=9, note=49, velocity=64, time=1),
    Message('note_on', channel=9, note=38, velocity=120, time=0),
    Message('note_on', channel=9, note=42, velocity=40, time=0),
    Message('note_off', channel=9, note=38, velocity=64, time=191),
    Message('note_off', channel=9, note=42, velocity=64, time=1),
    Message('note_on', channel=9, note=42, velocity=40, time=0),
    Message('note_off', channel=9, note=42, velocity=64, time=192),
    Message('note_on', channel=9, note=36, velocity=120, time=0),
    Message('note_on', channel=9, note=42, velocity=40, time=0),
    Message('note_off', channel=9, note=42, velocity=64, time=192),
    Message('note_on', channel=9, note=42, velocity=40, time=0),
    Message('note_off', channel=9, note=36, velocity=64, time=191),
    Message('note_off', channel=9, note=42, velocity=64, time=1),
    Message('note_on', channel=9, note=38, velocity=120, time=0),
    Message('note_on', channel=9, note=42, velocity=40, time=0),
    Message('note_off', channel=9, note=38, velocity=64, time=191),
    Message('note_off', channel=9, note=42, velocity=64, time=1),
    Message('note_on', channel=9, note=42, velocity=40, time=0),
    Message('note_off', channel=9, note=42, velocity=64, time=192),
    Message('note_on', channel=9, note=42, velocity=40, time=0),
    Message('note_on', channel=9, note=36, velocity=120, time=0),
    Message('note_off', channel=9, note=42, velocity=64, time=192),
    Message('note_on', channel=9, note=42, velocity=40, time=0),
    Message('note_off', channel=9, note=36, velocity=64, time=191),
    Message('note_off', channel=9, note=42, velocity=64, time=1),
    Message('note_on', channel=9, note=42, velocity=40, time=0),
    Message('note_on', channel=9, note=38, velocity=120, time=0),
    Message('note_off', channel=9, note=38, velocity=64, time=191),
    Message('note_off', channel=9, note=42, velocity=64, time=1),
    Message('note_on', channel=9, note=42, velocity=40, time=0),
    Message('note_off', channel=9, note=42, velocity=64, time=192),
    Message('note_on', channel=9, note=42, velocity=40, time=0),
    Message('note_on', channel=9, note=36, velocity=120, time=0),
    Message('note_off', channel=9, note=36, velocity=64, time=191),
    Message('note_off', channel=9, note=42, velocity=64, time=1),
    Message('note_on', channel=9, note=42, velocity=40, time=0),
    Message('note_on', channel=9, note=36, velocity=120, time=0),
    Message('note_off', channel=9, note=36, velocity=64, time=191),
    Message('note_off', channel=9, note=42, velocity=64, time=1),
    Message('note_on', channel=9, note=42, velocity=40, time=0),
    Message('note_on', channel=9, note=38, velocity=120, time=0),
    Message('note_off', channel=9, note=38, velocity=64, time=191),
    Message('note_off', channel=9, note=42, velocity=64, time=1),
    Message('note_on', channel=9, note=42, velocity=40, time=0),
    Message('note_off', channel=9, note=42, velocity=64, time=192),
    Message('note_on', channel=9, note=42, velocity=40, time=0),
    Message('note_on', channel=9, note=36, velocity=120, time=0),
    Message('note_off', channel=9, note=42, velocity=64, time=192),
    Message('note_on', channel=9, note=42, velocity=40, time=0),
    Message('note_off', channel=9, note=36, velocity=64, time=191),
    Message('note_off', channel=9, note=42, velocity=64, time=1),
    Message('note_on', channel=9, note=38, velocity=120, time=0),
    Message('note_on', channel=9, note=42, velocity=40, time=0),
    Message('note_off', channel=9, note=38, velocity=64, time=191),
    Message('note_off', channel=9, note=42, velocity=64, time=1),
    Message('note_on', channel=9, note=42, velocity=40, time=0),
    Message('note_off', channel=9, note=42, velocity=64, time=192),
    Message('note_on', channel=9, note=36, velocity=120, time=0),
    Message('note_on', channel=9, note=42, velocity=40, time=0),
    Message('note_off', channel=9, note=42, velocity=64, time=192),
    Message('note_on', channel=9, note=42, velocity=40, time=0),
    Message('note_off', channel=9, note=36, velocity=64, time=191),
    Message('note_off', channel=9, note=42, velocity=64, time=1),
    Message('note_on', channel=9, note=36, velocity=120, time=0),
    Message('note_on', channel=9, note=42, velocity=40, time=0),
    Message('note_off', channel=9, note=42, velocity=64, time=192),
    Message('note_on', channel=9, note=38, velocity=120, time=0),
    Message('note_on', channel=9, note=49, velocity=60, time=0),
    Message('note_off', channel=9, note=38, velocity=64, time=191),
    Message('note_off', channel=9, note=36, velocity=64, time=0),
    Message('note_off', channel=9, note=49, velocity=64, time=1),
    Message('note_on', channel=9, note=42, velocity=40, time=0),
    Message('note_on', channel=9, note=36, velocity=120, time=0),
    Message('note_off', channel=9, note=42, velocity=64, time=192),
    Message('note_on', channel=9, note=42, velocity=40, time=0),
    Message('note_off', channel=9, note=36, velocity=64, time=191),
    Message('note_off', channel=9, note=42, velocity=64, time=1),
    Message('note_on', channel=9, note=42, velocity=40, time=0),
    Message('note_on', channel=9, note=38, velocity=120, time=0),
    Message('note_off', channel=9, note=38, velocity=64, time=191),
    Message('note_off', channel=9, note=42, velocity=64, time=1),
    Message('note_on', channel=9, note=42, velocity=40, time=0),
    Message('note_off', channel=9, note=42, velocity=64, time=192),
    Message('note_on', channel=9, note=42, velocity=40, time=0),
    Message('note_on', channel=9, note=36, velocity=120, time=0),
    Message('note_off', channel=9, note=36, velocity=64, time=191),
    Message('note_off', channel=9, note=42, velocity=64, time=1),
    Message('note_on', channel=9, note=42, velocity=40, time=0),
    Message('note_on', channel=9, note=36, velocity=120, time=0),
    Message('note_off', channel=9, note=36, velocity=64, time=191),
    Message('note_off', channel=9, note=42, velocity=64, time=1),
    Message('note_on', channel=9, note=42, velocity=40, time=0),
    Message('note_on', channel=9, note=38, velocity=120, time=0),
    Message('note_off', channel=9, note=38, velocity=64, time=191),
    Message('note_off', channel=9, note=42, velocity=64, time=1),
    Message('note_on', channel=9, note=36, velocity=120, time=0),
    Message('note_on', channel=9, note=42, velocity=40, time=0),
    Message('note_off', channel=9, note=36, velocity=64, time=191),
    Message('note_off', channel=9, note=42, velocity=64, time=1),
    Message('note_on', channel=9, note=49, velocity=60, time=0),
    Message('note_on', channel=9, note=36, velocity=120, time=0),
    Message('note_off', channel=9, note=49, velocity=64, time=192),
    Message('note_off', channel=9, note=36, velocity=64, time=191),
    Message('note_on', channel=9, note=38, velocity=120, time=1),
    Message('note_on', channel=9, note=42, velocity=40, time=0),
    Message('note_off', channel=9, note=38, velocity=64, time=191),
    Message('note_off', channel=9, note=42, velocity=64, time=1),
    Message('note_on', channel=9, note=42, velocity=40, time=0),
    Message('note_off', channel=9, note=42, velocity=64, time=192),
    Message('note_on', channel=9, note=36, velocity=120, time=0),
    Message('note_on', channel=9, note=42, velocity=40, time=0),
    Message('note_off', channel=9, note=42, velocity=64, time=192),
    Message('note_on', channel=9, note=42, velocity=40, time=0),
    Message('note_off', channel=9, note=36, velocity=64, time=191),
    Message('note_off', channel=9, note=42, velocity=64, time=1),
    Message('note_on', channel=9, note=36, velocity=120, time=0),
    Message('note_on', channel=9, note=42, velocity=40, time=0),
    Message('note_off', channel=9, note=42, velocity=64, time=192),
    Message('note_on', channel=9, note=38, velocity=120, time=0),
    Message('note_on', channel=9, note=49, velocity=60, time=0),
    Message('note_off', channel=9, note=38, velocity=64, time=191),
    Message('note_off', channel=9, note=36, velocity=64, time=0),
    Message('note_off', channel=9, note=49, velocity=64, time=1),
    Message('note_on', channel=9, note=42, velocity=40, time=0),
    Message('note_on', channel=9, note=36, velocity=120, time=0),
    Message('note_off', channel=9, note=42, velocity=64, time=192),
    Message('note_on', channel=9, note=42, velocity=40, time=0),
    Message('note_off', channel=9, note=36, velocity=64, time=191),
    Message('note_off', channel=9, note=42, velocity=64, time=1),
    Message('note_on', channel=9, note=42, velocity=40, time=0),
    Message('note_on', channel=9, note=38, velocity=120, time=0),
    Message('note_off', channel=9, note=38, velocity=64, time=191),
    Message('note_off', channel=9, note=42, velocity=64, time=1),
    Message('note_on', channel=9, note=42, velocity=40, time=0),
    Message('note_off', channel=9, note=42, velocity=64, time=192),
    Message('note_on', channel=9, note=42, velocity=40, time=0),
    Message('note_on', channel=9, note=36, velocity=120, time=0),
    Message('note_off', channel=9, note=36, velocity=64, time=191),
    Message('note_off', channel=9, note=42, velocity=64, time=1),
    Message('note_on', channel=9, note=42, velocity=40, time=0),
    Message('note_on', channel=9, note=36, velocity=120, time=0),
    Message('note_off', channel=9, note=36, velocity=64, time=191),
    Message('note_off', channel=9, note=42, velocity=64, time=1),
    Message('note_on', channel=9, note=42, velocity=40, time=0),
    Message('note_on', channel=9, note=38, velocity=120, time=0),
    Message('note_off', channel=9, note=38, velocity=64, time=191),
    Message('note_off', channel=9, note=42, velocity=64, time=1),
    Message('note_on', channel=9, note=36, velocity=120, time=0),
    Message('note_on', channel=9, note=42, velocity=40, time=0),
    Message('note_off', channel=9, note=36, velocity=64, time=191),
    Message('note_off', channel=9, note=42, velocity=64, time=1),
    Message('note_on', channel=9, note=49, velocity=60, time=0),
    Message('note_on', channel=9, note=36, velocity=120, time=0),
    Message('note_off', channel=9, note=36, velocity=64, time=383),
    Message('note_off', channel=9, note=49, velocity=64, time=1),
    Message('note_on', channel=9, note=41, velocity=120, time=1152),
    Message('note_on', channel=9, note=36, velocity=120, time=0),
    Message('note_off', channel=9, note=41, velocity=64, time=192),
    Message('note_on', channel=9, note=41, velocity=120, time=0),
    Message('note_off', channel=9, note=36, velocity=64, time=191),
    Message('note_off', channel=9, note=41, velocity=64, time=1),
    Message('note_on', channel=9, note=45, velocity=120, time=0),
    Message('note_on', channel=9, note=41, velocity=120, time=0),
    Message('note_on', channel=9, note=36, velocity=120, time=0),
    Message('note_off', channel=9, note=41, velocity=64, time=192),
    Message('note_off', channel=9, note=45, velocity=64, time=0),
    Message('note_on', channel=9, note=41, velocity=120, time=0),
    Message('note_off', channel=9, note=36, velocity=64, time=191),
    Message('note_off', channel=9, note=41, velocity=64, time=1),
    Message('note_on', channel=9, note=41, velocity=120, time=0),
    Message('note_on', channel=9, note=36, velocity=120, time=0),
    Message('note_off', channel=9, note=41, velocity=64, time=192),
    Message('note_on', channel=9, note=41, velocity=120, time=0),
    Message('note_off', channel=9, note=36, velocity=64, time=191),
    Message('note_off', channel=9, note=41, velocity=64, time=1),
    Message('note_on', channel=9, note=45, velocity=120, time=0),
    Message('note_on', channel=9, note=41, velocity=120, time=0),
    Message('note_on', channel=9, note=36, velocity=120, time=0),
    Message('note_off', channel=9, note=41, velocity=64, time=192),
    Message('note_off', channel=9, note=45, velocity=64, time=0),
    Message('note_on', channel=9, note=45, velocity=120, time=0),
    Message('note_on', channel=9, note=41, velocity=120, time=0),
    Message('note_off', channel=9, note=36, velocity=64, time=191),
    Message('note_off', channel=9, note=41, velocity=64, time=1),
    Message('note_off', channel=9, note=45, velocity=64, time=0),
    Message('note_on', channel=9, note=41, velocity=120, time=0),
    Message('note_on', channel=9, note=36, velocity=120, time=0),
    Message('note_off', channel=9, note=41, velocity=64, time=192),
    Message('note_on', channel=9, note=41, velocity=120, time=0),
    Message('note_off', channel=9, note=36, velocity=64, time=191),
    Message('note_off', channel=9, note=41, velocity=64, time=1),
    Message('note_on', channel=9, note=45, velocity=120, time=0),
    Message('note_on', channel=9, note=41, velocity=120, time=0),
    Message('note_on', channel=9, note=36, velocity=120, time=0),
    Message('note_off', channel=9, note=41, velocity=64, time=192),
    Message('note_off', channel=9, note=45, velocity=64, time=0),
    Message('note_on', channel=9, note=41, velocity=120, time=0),
    Message('note_off', channel=9, note=36, velocity=64, time=191),
    Message('note_off', channel=9, note=41, velocity=64, time=1),
    Message('note_on', channel=9, note=41, velocity=120, time=0),
    Message('note_on', channel=9, note=36, velocity=120, time=0),
    Message('note_off', channel=9, note=41, velocity=64, time=192),
    Message('note_on', channel=9, note=41, velocity=120, time=0),
    Message('note_off', channel=9, note=36, velocity=64, time=191),
    Message('note_off', channel=9, note=41, velocity=64, time=1),
    Message('note_on', channel=9, note=45, velocity=120, time=0),
    Message('note_on', channel=9, note=41, velocity=120, time=0),
    Message('note_on', channel=9, note=36, velocity=120, time=0),
    Message('note_off', channel=9, note=41, velocity=64, time=192),
    Message('note_off', channel=9, note=45, velocity=64, time=0),
    Message('note_on', channel=9, note=45, velocity=120, time=0),
    Message('note_on', channel=9, note=41, velocity=120, time=0),
    Message('note_off', channel=9, note=36, velocity=64, time=191),
    Message('note_off', channel=9, note=41, velocity=64, time=1),
    Message('note_off', channel=9, note=45, velocity=64, time=0),
    Message('note_on', channel=9, note=41, velocity=120, time=0),
    Message('note_on', channel=9, note=36, velocity=120, time=0),
    Message('note_off', channel=9, note=41, velocity=64, time=192),
    Message('note_on', channel=9, note=41, velocity=120, time=0),
    Message('note_off', channel=9, note=36, velocity=64, time=191),
    Message('note_off', channel=9, note=41, velocity=64, time=1),
    Message('note_on', channel=9, note=45, velocity=120, time=0),
    Message('note_on', channel=9, note=41, velocity=120, time=0),
    Message('note_on', channel=9, note=36, velocity=120, time=0),
    Message('note_off', channel=9, note=41, velocity=64, time=192),
    Message('note_off', channel=9, note=45, velocity=64, time=0),
    Message('note_on', channel=9, note=41, velocity=120, time=0),
    Message('note_off', channel=9, note=36, velocity=64, time=191),
    Message('note_off', channel=9, note=41, velocity=64, time=1),
    Message('note_on', channel=9, note=41, velocity=120, time=0),
    Message('note_on', channel=9, note=36, velocity=120, time=0),
    Message('note_off', channel=9, note=41, velocity=64, time=192),
    Message('note_on', channel=9, note=41, velocity=120, time=0),
    Message('note_off', channel=9, note=36, velocity=64, time=191),
    Message('note_off', channel=9, note=41, velocity=64, time=1),
    Message('note_on', channel=9, note=45, velocity=120, time=0),
    Message('note_on', channel=9, note=41, velocity=120, time=0),
    Message('note_on', channel=9, note=36, velocity=120, time=0),
    Message('note_off', channel=9, note=41, velocity=64, time=192),
    Message('note_off', channel=9, note=45, velocity=64, time=0),
    Message('note_on', channel=9, note=45, velocity=120, time=0),
    Message('note_on', channel=9, note=41, velocity=120, time=0),
    Message('note_off', channel=9, note=36, velocity=64, time=191),
    Message('note_off', channel=9, note=41, velocity=64, time=1),
    Message('note_off', channel=9, note=45, velocity=64, time=0),
    Message('note_on', channel=9, note=41, velocity=120, time=0),
    Message('note_on', channel=9, note=36, velocity=120, time=0),
    Message('note_off', channel=9, note=41, velocity=64, time=192),
    Message('note_on', channel=9, note=49, velocity=60, time=0),
    Message('note_on', channel=9, note=38, velocity=120, time=0),
    Message('note_off', channel=9, note=38, velocity=64, time=191),
    Message('note_off', channel=9, note=49, velocity=64, time=0),
    Message('note_off', channel=9, note=36, velocity=64, time=0),
    Message('note_on', channel=9, note=36, velocity=120, time=1),
    Message('note_on', channel=9, note=49, velocity=60, time=192),
    Message('note_on', channel=9, note=38, velocity=120, time=0),
    Message('note_off', channel=9, note=38, velocity=64, time=191),
    Message('note_off', channel=9, note=49, velocity=64, time=0),
    Message('note_off', channel=9, note=36, velocity=64, time=0),
    Message('note_on', channel=9, note=36, velocity=120, time=1),
    Message('note_on', channel=9, note=49, velocity=60, time=192),
    Message('note_on', channel=9, note=38, velocity=120, time=0),
    Message('note_off', channel=9, note=38, velocity=64, time=191),
    Message('note_off', channel=9, note=49, velocity=64, time=0),
    Message('note_off', channel=9, note=36, velocity=64, time=0),
    Message('note_on', channel=9, note=36, velocity=120, time=1),
    Message('note_on', channel=9, note=49, velocity=60, time=192),
    Message('note_on', channel=9, note=38, velocity=120, time=0),
    Message('note_off', channel=9, note=38, velocity=64, time=191),
    Message('note_off', channel=9, note=49, velocity=64, time=0),
    Message('note_off', channel=9, note=36, velocity=64, time=0),
    Message('note_on', channel=9, note=36, velocity=120, time=1),
    Message('note_on', channel=9, note=41, velocity=120, time=0),
    Message('note_off', channel=9, note=36, velocity=64, time=383),
    Message('note_off', channel=9, note=41, velocity=64, time=1),
    Message('note_on', channel=9, note=36, velocity=120, time=0),
    Message('note_on', channel=9, note=45, velocity=120, time=0),
    Message('note_on', channel=9, note=41, velocity=120, time=0),
    Message('note_off', channel=9, note=41, velocity=64, time=192),
    Message('note_off', channel=9, note=45, velocity=64, time=0),
    Message('note_on', channel=9, note=41, velocity=120, time=0),
    Message('note_off', channel=9, note=36, velocity=64, time=191),
    Message('note_off', channel=9, note=41, velocity=64, time=1),
    Message('note_on', channel=9, note=36, velocity=120, time=0),
    Message('note_on', channel=9, note=41, velocity=120, time=0),
    Message('note_off', channel=9, note=41, velocity=64, time=192),
    Message('note_on', channel=9, note=41, velocity=120, time=0),
    Message('note_off', channel=9, note=36, velocity=64, time=191),
    Message('note_off', channel=9, note=41, velocity=64, time=1),
    Message('note_on', channel=9, note=36, velocity=120, time=0),
    Message('note_on', channel=9, note=45, velocity=120, time=0),
    Message('note_on', channel=9, note=41, velocity=120, time=0),
    Message('note_off', channel=9, note=41, velocity=64, time=192),
    Message('note_off', channel=9, note=45, velocity=64, time=0),
    Message('note_on', channel=9, note=43, velocity=120, time=0),
    Message('note_on', channel=9, note=41, velocity=120, time=0),
    Message('note_off', channel=9, note=36, velocity=64, time=191),
    Message('note_off', channel=9, note=41, velocity=64, time=1),
    Message('note_off', channel=9, note=43, velocity=64, time=0),
    Message('note_on', channel=9, note=36, velocity=120, time=0),
    Message('note_on', channel=9, note=41, velocity=120, time=0),
    Message('note_off', channel=9, note=36, velocity=64, time=383),
    Message('note_off', channel=9, note=41, velocity=64, time=1),
    Message('note_on', channel=9, note=36, velocity=120, time=0),
    Message('note_on', channel=9, note=45, velocity=120, time=0),
    Message('note_on', channel=9, note=41, velocity=120, time=0),
    Message('note_off', channel=9, note=41, velocity=64, time=192),
    Message('note_off', channel=9, note=45, velocity=64, time=0),
    Message('note_on', channel=9, note=41, velocity=120, time=0),
    Message('note_off', channel=9, note=36, velocity=64, time=191),
    Message('note_off', channel=9, note=41, velocity=64, time=1),
    Message('note_on', channel=9, note=36, velocity=120, time=0),
    Message('note_on', channel=9, note=41, velocity=120, time=0),
    Message('note_off', channel=9, note=41, velocity=64, time=192),
    Message('note_on', channel=9, note=41, velocity=120, time=0),
    Message('note_off', channel=9, note=36, velocity=64, time=191),
    Message('note_off', channel=9, note=41, velocity=64, time=1),
    Message('note_on', channel=9, note=36, velocity=120, time=0),
    Message('note_on', channel=9, note=45, velocity=120, time=0),
    Message('note_on', channel=9, note=41, velocity=120, time=0),
    Message('note_off', channel=9, note=41, velocity=64, time=192),
    Message('note_off', channel=9, note=45, velocity=64, time=0),
    Message('note_on', channel=9, note=43, velocity=120, time=0),
    Message('note_on', channel=9, note=41, velocity=120, time=0),
    Message('note_off', channel=9, note=36, velocity=64, time=191),
    Message('note_off', channel=9, note=41, velocity=64, time=1),
    Message('note_off', channel=9, note=43, velocity=64, time=0),
    Message('note_on', channel=9, note=36, velocity=120, time=0),
    Message('note_on', channel=9, note=41, velocity=120, time=0),
    Message('note_off', channel=9, note=36, velocity=64, time=383),
    Message('note_off', channel=9, note=41, velocity=64, time=1),
    Message('note_on', channel=9, note=36, velocity=120, time=0),
    Message('note_on', channel=9, note=45, velocity=120, time=0),
    Message('note_on', channel=9, note=41, velocity=120, time=0),
    Message('note_off', channel=9, note=41, velocity=64, time=192),
    Message('note_off', channel=9, note=45, velocity=64, time=0),
    Message('note_on', channel=9, note=41, velocity=120, time=0),
    Message('note_off', channel=9, note=36, velocity=64, time=191),
    Message('note_off', channel=9, note=41, velocity=64, time=1),
    Message('note_on', channel=9, note=36, velocity=120, time=0),
    Message('note_on', channel=9, note=41, velocity=120, time=0),
    Message('note_off', channel=9, note=41, velocity=64, time=192),
    Message('note_on', channel=9, note=41, velocity=120, time=0),
    Message('note_off', channel=9, note=36, velocity=64, time=191),
    Message('note_off', channel=9, note=41, velocity=64, time=1),
    Message('note_on', channel=9, note=36, velocity=120, time=0),
    Message('note_on', channel=9, note=45, velocity=120, time=0),
    Message('note_on', channel=9, note=41, velocity=120, time=0),
    Message('note_off', channel=9, note=41, velocity=64, time=192),
    Message('note_off', channel=9, note=45, velocity=64, time=0),
    Message('note_on', channel=9, note=43, velocity=120, time=0),
    Message('note_on', channel=9, note=41, velocity=120, time=0),
    Message('note_off', channel=9, note=36, velocity=64, time=191),
    Message('note_off', channel=9, note=41, velocity=64, time=1),
    Message('note_off', channel=9, note=43, velocity=64, time=0),
    Message('note_on', channel=9, note=41, velocity=120, time=0),
    Message('note_on', channel=9, note=36, velocity=120, time=0),
    Message('note_off', channel=9, note=41, velocity=64, time=192),
    Message('note_on', channel=9, note=45, velocity=120, time=0),
    Message('note_on', channel=9, note=41, velocity=120, time=0),
    Message('note_off', channel=9, note=36, velocity=64, time=191),
    Message('note_off', channel=9, note=41, velocity=64, time=1),
    Message('note_off', channel=9, note=45, velocity=64, time=0),
    Message('note_on', channel=9, note=41, velocity=120, time=0),
    Message('note_on', channel=9, note=36, velocity=120, time=0),
    Message('note_off', channel=9, note=41, velocity=64, time=192),
    Message('note_on', channel=9, note=45, velocity=120, time=0),
    Message('note_on', channel=9, note=41, velocity=120, time=0),
    Message('note_off', channel=9, note=36, velocity=64, time=191),
    Message('note_off', channel=9, note=41, velocity=64, time=1),
    Message('note_off', channel=9, note=45, velocity=64, time=0),
    Message('note_on', channel=9, note=41, velocity=120, time=0),
    Message('note_on', channel=9, note=36, velocity=120, time=0),
    Message('note_off', channel=9, note=41, velocity=64, time=192),
    Message('note_on', channel=9, note=49, velocity=60, time=0),
    Message('note_on', channel=9, note=38, velocity=120, time=0),
    Message('note_off', channel=9, note=38, velocity=64, time=191),
    Message('note_off', channel=9, note=49, velocity=64, time=0),
    Message('note_off', channel=9, note=36, velocity=64, time=0),
    Message('note_on', channel=9, note=36, velocity=120, time=1),
    Message('note_on', channel=9, note=49, velocity=60, time=192),
    Message('note_on', channel=9, note=38, velocity=120, time=0),
    Message('note_off', channel=9, note=36, velocity=64, time=191),
    Message('note_off', channel=9, note=38, velocity=64, time=1),
    Message('note_off', channel=9, note=49, velocity=64, time=0),
    Message('note_on', channel=9, note=36, velocity=120, time=0),
    Message('note_on', channel=9, note=41, velocity=120, time=0),
    Message('note_off', channel=9, note=41, velocity=64, time=192),
    Message('note_on', channel=9, note=41, velocity=120, time=0),
    Message('note_off', channel=9, note=36, velocity=64, time=191),
    Message('note_off', channel=9, note=41, velocity=64, time=1),
    Message('note_on', channel=9, note=36, velocity=120, time=0),
    Message('note_on', channel=9, note=45, velocity=120, time=0),
    Message('note_on', channel=9, note=41, velocity=120, time=0),
    Message('note_off', channel=9, note=41, velocity=64, time=192),
    Message('note_off', channel=9, note=45, velocity=64, time=0),
    Message('note_on', channel=9, note=41, velocity=120, time=0),
    Message('note_off', channel=9, note=36, velocity=64, time=191),
    Message('note_off', channel=9, note=41, velocity=64, time=1),
    Message('note_on', channel=9, note=35, velocity=120, time=0),
    Message('note_on', channel=9, note=41, velocity=120, time=0),
    Message('note_off', channel=9, note=41, velocity=64, time=192),
    Message('note_on', channel=9, note=41, velocity=120, time=0),
    Message('note_off', channel=9, note=35, velocity=64, time=191),
    Message('note_off', channel=9, note=41, velocity=64, time=1),
    Message('note_on', channel=9, note=36, velocity=120, time=0),
    Message('note_on', channel=9, note=45, velocity=120, time=0),
    Message('note_on', channel=9, note=41, velocity=120, time=0),
    Message('note_off', channel=9, note=41, velocity=64, time=192),
    Message('note_off', channel=9, note=45, velocity=64, time=0),
    Message('note_on', channel=9, note=43, velocity=120, time=0),
    Message('note_on', channel=9, note=41, velocity=120, time=0),
    Message('note_off', channel=9, note=36, velocity=64, time=191),
    Message('note_off', channel=9, note=41, velocity=64, time=1),
    Message('note_off', channel=9, note=43, velocity=64, time=0),
    Message('note_on', channel=9, note=36, velocity=120, time=0),
    Message('note_on', channel=9, note=41, velocity=120, time=0),
    Message('note_off', channel=9, note=41, velocity=64, time=192),
    Message('note_on', channel=9, note=41, velocity=120, time=0),
    Message('note_off', channel=9, note=36, velocity=64, time=191),
    Message('note_off', channel=9, note=41, velocity=64, time=1),
    Message('note_on', channel=9, note=45, velocity=120, time=0),
    Message('note_on', channel=9, note=36, velocity=120, time=0),
    Message('note_on', channel=9, note=41, velocity=120, time=0),
    Message('note_off', channel=9, note=41, velocity=64, time=192),
    Message('note_off', channel=9, note=45, velocity=64, time=0),
    Message('note_on', channel=9, note=41, velocity=120, time=0),
    Message('note_off', channel=9, note=36, velocity=64, time=191),
    Message('note_off', channel=9, note=41, velocity=64, time=1),
    Message('note_on', channel=9, note=36, velocity=120, time=0),
    Message('note_on', channel=9, note=41, velocity=120, time=0),
    Message('note_off', channel=9, note=41, velocity=64, time=192),
    Message('note_on', channel=9, note=41, velocity=120, time=0),
    Message('note_off', channel=9, note=36, velocity=64, time=191),
    Message('note_off', channel=9, note=41, velocity=64, time=1),
    Message('note_on', channel=9, note=45, velocity=120, time=0),
    Message('note_on', channel=9, note=36, velocity=120, time=0),
    Message('note_on', channel=9, note=41, velocity=120, time=0),
    Message('note_off', channel=9, note=41, velocity=64, time=192),
    Message('note_off', channel=9, note=45, velocity=64, time=0),
    Message('note_on', channel=9, note=43, velocity=120, time=0),
    Message('note_on', channel=9, note=41, velocity=120, time=0),
    Message('note_off', channel=9, note=36, velocity=64, time=191),
    Message('note_off', channel=9, note=41, velocity=64, time=1),
    Message('note_off', channel=9, note=43, velocity=64, time=0),
    Message('note_on', channel=9, note=36, velocity=120, time=0),
    Message('note_on', channel=9, note=41, velocity=120, time=0),
    Message('note_off', channel=9, note=41, velocity=64, time=192),
    Message('note_on', channel=9, note=41, velocity=120, time=0),
    Message('note_off', channel=9, note=36, velocity=64, time=191),
    Message('note_off', channel=9, note=41, velocity=64, time=1),
    Message('note_on', channel=9, note=45, velocity=120, time=0),
    Message('note_on', channel=9, note=36, velocity=120, time=0),
    Message('note_on', channel=9, note=41, velocity=120, time=0),
    Message('note_off', channel=9, note=41, velocity=64, time=192),
    Message('note_off', channel=9, note=45, velocity=64, time=0),
    Message('note_on', channel=9, note=41, velocity=120, time=0),
    Message('note_off', channel=9, note=36, velocity=64, time=191),
    Message('note_off', channel=9, note=41, velocity=64, time=1),
    Message('note_on', channel=9, note=36, velocity=120, time=0),
    Message('note_on', channel=9, note=41, velocity=120, time=0),
    Message('note_off', channel=9, note=41, velocity=64, time=192),
    Message('note_on', channel=9, note=41, velocity=120, time=0),
    Message('note_off', channel=9, note=36, velocity=64, time=191),
    Message('note_off', channel=9, note=41, velocity=64, time=1),
    Message('note_on', channel=9, note=45, velocity=120, time=0),
    Message('note_on', channel=9, note=36, velocity=120, time=0),
    Message('note_on', channel=9, note=41, velocity=120, time=0),
    Message('note_off', channel=9, note=41, velocity=64, time=192),
    Message('note_off', channel=9, note=45, velocity=64, time=0),
    Message('note_on', channel=9, note=47, velocity=120, time=0),
    Message('note_off', channel=9, note=47, velocity=64, time=96),
    Message('note_on', channel=9, note=47, velocity=120, time=0),
    Message('note_off', channel=9, note=36, velocity=64, time=95),
    Message('note_off', channel=9, note=47, velocity=64, time=1),
    Message('note_on', channel=9, note=36, velocity=120, time=0),
    Message('note_on', channel=9, note=47, velocity=120, time=0),
    Message('note_off', channel=9, note=47, velocity=64, time=96),
    Message('note_on', channel=9, note=47, velocity=120, time=0),
    Message('note_off', channel=9, note=47, velocity=64, time=96),
    Message('note_on', channel=9, note=47, velocity=120, time=0),
    Message('note_off', channel=9, note=47, velocity=64, time=96),
    Message('note_on', channel=9, note=47, velocity=120, time=0),
    Message('note_off', channel=9, note=36, velocity=64, time=95),
    Message('note_off', channel=9, note=47, velocity=64, time=1),
    Message('note_on', channel=9, note=45, velocity=120, time=0),
    Message('note_on', channel=9, note=36, velocity=120, time=0),
    Message('note_off', channel=9, note=45, velocity=64, time=192),
    Message('note_on', channel=9, note=45, velocity=120, time=0),
    Message('note_off', channel=9, note=45, velocity=64, time=96),
    Message('note_on', channel=9, note=45, velocity=120, time=0),
    Message('note_off', channel=9, note=36, velocity=64, time=95),
    Message('note_off', channel=9, note=45, velocity=64, time=1),
    Message('note_on', channel=9, note=43, velocity=120, time=0),
    Message('note_on', channel=9, note=36, velocity=120, time=0),
    Message('note_off', channel=9, note=43, velocity=64, time=96),
    Message('note_on', channel=9, note=43, velocity=120, time=0),
    Message('note_off', channel=9, note=43, velocity=64, time=96),
    Message('note_on', channel=9, note=43, velocity=120, time=0),
    Message('note_off', channel=9, note=43, velocity=64, time=96),
    Message('note_on', channel=9, note=43, velocity=120, time=0),
    Message('note_off', channel=9, note=36, velocity=64, time=95),
    Message('note_off', channel=9, note=43, velocity=64, time=1),
    Message('note_on', channel=9, note=41, velocity=120, time=0),
    Message('note_on', channel=9, note=36, velocity=120, time=0),
    Message('note_off', channel=9, note=41, velocity=64, time=192),
    Message('note_on', channel=9, note=41, velocity=120, time=0),
    Message('note_off', channel=9, note=36, velocity=64, time=191),
    Message('note_off', channel=9, note=41, velocity=64, time=1),
    Message('note_on', channel=9, note=41, velocity=120, time=0),
    Message('note_on', channel=9, note=36, velocity=120, time=0),
    Message('note_off', channel=9, note=41, velocity=64, time=192),
    Message('note_on', channel=9, note=41, velocity=120, time=0),
    Message('note_off', channel=9, note=36, velocity=64, time=191),
    Message('note_off', channel=9, note=41, velocity=64, time=1),
    Message('note_on', channel=9, note=49, velocity=60, time=0),
    Message('note_on', channel=9, note=38, velocity=120, time=0),
    Message('note_on', channel=9, note=36, velocity=120, time=0),
    Message('note_off', channel=9, note=36, velocity=64, time=383),
    Message('note_off', channel=9, note=38, velocity=64, time=0),
    Message('note_off', channel=9, note=49, velocity=64, time=0),
    Message('note_on', channel=9, note=41, velocity=120, time=1),
    Message('note_on', channel=9, note=36, velocity=120, time=0),
    Message('note_off', channel=9, note=41, velocity=64, time=192),
    Message('note_on', channel=9, note=41, velocity=120, time=0),
    Message('note_off', channel=9, note=36, velocity=64, time=191),
    Message('note_off', channel=9, note=41, velocity=64, time=1),
    Message('note_on', channel=9, note=45, velocity=120, time=0),
    Message('note_on', channel=9, note=41, velocity=120, time=0),
    Message('note_on', channel=9, note=36, velocity=120, time=0),
    Message('note_off', channel=9, note=41, velocity=64, time=192),
    Message('note_off', channel=9, note=45, velocity=64, time=0),
    Message('note_on', channel=9, note=41, velocity=120, time=0),
    Message('note_off', channel=9, note=36, velocity=64, time=191),
    Message('note_off', channel=9, note=41, velocity=64, time=1),
    Message('note_on', channel=9, note=36, velocity=120, time=0),
    Message('note_on', channel=9, note=41, velocity=120, time=0),
    Message('note_off', channel=9, note=41, velocity=64, time=192),
    Message('note_on', channel=9, note=41, velocity=120, time=0),
    Message('note_off', channel=9, note=36, velocity=64, time=191),
    Message('note_off', channel=9, note=41, velocity=64, time=1),
    Message('note_on', channel=9, note=36, velocity=120, time=0),
    Message('note_on', channel=9, note=45, velocity=120, time=0),
    Message('note_on', channel=9, note=41, velocity=120, time=0),
    Message('note_off', channel=9, note=41, velocity=64, time=192),
    Message('note_off', channel=9, note=45, velocity=64, time=0),
    Message('note_on', channel=9, note=41, velocity=120, time=0),
    Message('note_off', channel=9, note=36, velocity=64, time=191),
    Message('note_off', channel=9, note=41, velocity=64, time=1),
    Message('note_on', channel=9, note=36, velocity=120, time=0),
    Message('note_on', channel=9, note=41, velocity=120, time=0),
    Message('note_off', channel=9, note=41, velocity=64, time=192),
    Message('note_on', channel=9, note=49, velocity=60, time=0),
    Message('note_on', channel=9, note=38, velocity=120, time=0),
    Message('note_off', channel=9, note=38, velocity=64, time=191),
    Message('note_off', channel=9, note=49, velocity=64, time=0),
    Message('note_off', channel=9, note=36, velocity=64, time=0),
    Message('note_on', channel=9, note=36, velocity=120, time=1),
    Message('note_on', channel=9, note=49, velocity=60, time=192),
    Message('note_on', channel=9, note=38, velocity=120, time=0),
    Message('note_off', channel=9, note=38, velocity=64, time=191),
    Message('note_off', channel=9, note=36, velocity=64, time=0),
    Message('note_off', channel=9, note=49, velocity=64, time=1),
    Message('note_on', channel=9, note=36, velocity=120, time=0),
    Message('note_on', channel=9, note=41, velocity=120, time=0),
    Message('note_off', channel=9, note=41, velocity=64, time=192),
    Message('note_on', channel=9, note=41, velocity=120, time=0),
    Message('note_off', channel=9, note=36, velocity=64, time=191),
    Message('note_off', channel=9, note=41, velocity=64, time=1),
    Message('note_on', channel=9, note=36, velocity=120, time=0),
    Message('note_on', channel=9, note=45, velocity=120, time=0),
    Message('note_on', channel=9, note=41, velocity=120, time=0),
    Message('note_off', channel=9, note=41, velocity=64, time=192),
    Message('note_off', channel=9, note=45, velocity=64, time=0),
    Message('note_on', channel=9, note=41, velocity=120, time=0),
    Message('note_off', channel=9, note=36, velocity=64, time=191),
    Message('note_off', channel=9, note=41, velocity=64, time=1),
    Message('note_on', channel=9, note=36, velocity=120, time=0),
    Message('note_on', channel=9, note=41, velocity=120, time=0),
    Message('note_off', channel=9, note=41, velocity=64, time=192),
    Message('note_on', channel=9, note=41, velocity=120, time=0),
    Message('note_off', channel=9, note=36, velocity=64, time=191),
    Message('note_off', channel=9, note=41, velocity=64, time=1),
    Message('note_on', channel=9, note=36, velocity=120, time=0),
    Message('note_on', channel=9, note=45, velocity=120, time=0),
    Message('note_on', channel=9, note=41, velocity=120, time=0),
    Message('note_off', channel=9, note=41, velocity=64, time=192),
    Message('note_off', channel=9, note=45, velocity=64, time=0),
    Message('note_on', channel=9, note=43, velocity=120, time=0),
    Message('note_on', channel=9, note=41, velocity=120, time=0),
    Message('note_off', channel=9, note=36, velocity=64, time=191),
    Message('note_off', channel=9, note=41, velocity=64, time=1),
    Message('note_off', channel=9, note=43, velocity=64, time=0),
    Message('note_on', channel=9, note=36, velocity=120, time=0),
    Message('note_on', channel=9, note=41, velocity=120, time=0),
    Message('note_off', channel=9, note=41, velocity=64, time=192),
    Message('note_on', channel=9, note=41, velocity=120, time=0),
    Message('note_off', channel=9, note=36, velocity=64, time=191),
    Message('note_off', channel=9, note=41, velocity=64, time=1),
    Message('note_on', channel=9, note=36, velocity=120, time=0),
    Message('note_on', channel=9, note=45, velocity=120, time=0),
    Message('note_on', channel=9, note=41, velocity=120, time=0),
    Message('note_off', channel=9, note=41, velocity=64, time=192),
    Message('note_off', channel=9, note=45, velocity=64, time=0),
    Message('note_on', channel=9, note=41, velocity=120, time=0),
    Message('note_off', channel=9, note=36, velocity=64, time=191),
    Message('note_off', channel=9, note=41, velocity=64, time=1),
    Message('note_on', channel=9, note=36, velocity=120, time=0),
    Message('note_on', channel=9, note=41, velocity=120, time=0),
    Message('note_off', channel=9, note=41, velocity=64, time=192),
    Message('note_on', channel=9, note=49, velocity=60, time=0),
    Message('note_on', channel=9, note=38, velocity=120, time=0),
    Message('note_off', channel=9, note=38, velocity=64, time=191),
    Message('note_off', channel=9, note=49, velocity=64, time=0),
    Message('note_off', channel=9, note=36, velocity=64, time=0),
    Message('note_on', channel=9, note=36, velocity=120, time=1),
    Message('note_on', channel=9, note=49, velocity=60, time=192),
    Message('note_on', channel=9, note=38, velocity=120, time=0),
    Message('note_off', channel=9, note=38, velocity=64, time=191),
    Message('note_off', channel=9, note=36, velocity=64, time=0),
    Message('note_off', channel=9, note=49, velocity=64, time=1),
    Message('note_on', channel=9, note=36, velocity=120, time=0),
    Message('note_on', channel=9, note=41, velocity=120, time=0),
    Message('note_off', channel=9, note=41, velocity=64, time=192),
    Message('note_on', channel=9, note=41, velocity=120, time=0),
    Message('note_off', channel=9, note=36, velocity=64, time=191),
    Message('note_off', channel=9, note=41, velocity=64, time=1),
    Message('note_on', channel=9, note=36, velocity=120, time=0),
    Message('note_on', channel=9, note=45, velocity=120, time=0),
    Message('note_on', channel=9, note=41, velocity=120, time=0),
    Message('note_off', channel=9, note=41, velocity=64, time=192),
    Message('note_off', channel=9, note=45, velocity=64, time=0),
    Message('note_on', channel=9, note=41, velocity=120, time=0),
    Message('note_off', channel=9, note=36, velocity=64, time=191),
    Message('note_off', channel=9, note=41, velocity=64, time=1),
    Message('note_on', channel=9, note=36, velocity=120, time=0),
    Message('note_on', channel=9, note=41, velocity=120, time=0),
    Message('note_off', channel=9, note=41, velocity=64, time=192),
    Message('note_on', channel=9, note=41, velocity=120, time=0),
    Message('note_off', channel=9, note=36, velocity=64, time=191),
    Message('note_off', channel=9, note=41, velocity=64, time=1),
    Message('note_on', channel=9, note=36, velocity=120, time=0),
    Message('note_on', channel=9, note=45, velocity=120, time=0),
    Message('note_on', channel=9, note=41, velocity=120, time=0),
    Message('note_off', channel=9, note=41, velocity=64, time=192),
    Message('note_off', channel=9, note=45, velocity=64, time=0),
    Message('note_on', channel=9, note=43, velocity=120, time=0),
    Message('note_on', channel=9, note=41, velocity=120, time=0),
    Message('note_off', channel=9, note=36, velocity=64, time=191),
    Message('note_off', channel=9, note=41, velocity=64, time=1),
    Message('note_off', channel=9, note=43, velocity=64, time=0),
    Message('note_on', channel=9, note=36, velocity=120, time=0),
    Message('note_on', channel=9, note=41, velocity=120, time=0),
    Message('note_off', channel=9, note=41, velocity=64, time=192),
    Message('note_on', channel=9, note=41, velocity=120, time=0),
    Message('note_off', channel=9, note=36, velocity=64, time=191),
    Message('note_off', channel=9, note=41, velocity=64, time=1),
    Message('note_on', channel=9, note=36, velocity=120, time=0),
    Message('note_on', channel=9, note=45, velocity=120, time=0),
    Message('note_on', channel=9, note=41, velocity=120, time=0),
    Message('note_off', channel=9, note=41, velocity=64, time=192),
    Message('note_off', channel=9, note=45, velocity=64, time=0),
    Message('note_on', channel=9, note=41, velocity=120, time=0),
    Message('note_off', channel=9, note=36, velocity=64, time=191),
    Message('note_off', channel=9, note=41, velocity=64, time=1),
    Message('note_on', channel=9, note=36, velocity=120, time=0),
    Message('note_on', channel=9, note=41, velocity=120, time=0),
    Message('note_off', channel=9, note=41, velocity=64, time=192),
    Message('note_on', channel=9, note=41, velocity=120, time=0),
    Message('note_off', channel=9, note=36, velocity=64, time=191),
    Message('note_off', channel=9, note=41, velocity=64, time=1),
    Message('note_on', channel=9, note=36, velocity=120, time=0),
    Message('note_on', channel=9, note=45, velocity=120, time=0),
    Message('note_on', channel=9, note=41, velocity=120, time=0),
    Message('note_off', channel=9, note=41, velocity=64, time=192),
    Message('note_off', channel=9, note=45, velocity=64, time=0),
    Message('note_on', channel=9, note=43, velocity=120, time=0),
    Message('note_on', channel=9, note=41, velocity=120, time=0),
    Message('note_off', channel=9, note=36, velocity=64, time=191),
    Message('note_off', channel=9, note=41, velocity=64, time=1),
    Message('note_off', channel=9, note=43, velocity=64, time=0),
    Message('note_on', channel=9, note=38, velocity=120, time=0),
    Message('note_on', channel=9, note=43, velocity=120, time=0),
    Message('note_on', channel=9, note=36, velocity=120, time=0),
    Message('note_off', channel=9, note=43, velocity=64, time=191),
    Message('note_off', channel=9, note=38, velocity=64, time=0),
    Message('note_on', channel=9, note=38, velocity=120, time=1),
    Message('note_on', channel=9, note=43, velocity=120, time=0),
    Message('note_off', channel=9, note=43, velocity=64, time=191),
    Message('note_off', channel=9, note=38, velocity=64, time=0),
    Message('note_off', channel=9, note=36, velocity=64, time=0),
    Message('note_on', channel=9, note=38, velocity=120, time=1),
    Message('note_on', channel=9, note=43, velocity=120, time=0),
    Message('note_on', channel=9, note=36, velocity=120, time=0),
    Message('note_off', channel=9, note=43, velocity=64, time=191),
    Message('note_off', channel=9, note=38, velocity=64, time=0),
    Message('note_on', channel=9, note=38, velocity=120, time=1),
    Message('note_on', channel=9, note=43, velocity=120, time=0),
    Message('note_off', channel=9, note=43, velocity=64, time=191),
    Message('note_off', channel=9, note=38, velocity=64, time=0),
    Message('note_off', channel=9, note=36, velocity=64, time=0),
    Message('note_on', channel=9, note=38, velocity=120, time=1),
    Message('note_on', channel=9, note=43, velocity=120, time=0),
    Message('note_on', channel=9, note=36, velocity=120, time=0),
    Message('note_off', channel=9, note=43, velocity=64, time=191),
    Message('note_off', channel=9, note=38, velocity=64, time=0),
    Message('note_on', channel=9, note=38, velocity=120, time=1),
    Message('note_on', channel=9, note=43, velocity=120, time=0),
    Message('note_off', channel=9, note=43, velocity=64, time=191),
    Message('note_off', channel=9, note=38, velocity=64, time=0),
    Message('note_off', channel=9, note=36, velocity=64, time=0),
    Message('note_on', channel=9, note=36, velocity=120, time=1),
    Message('note_on', channel=9, note=43, velocity=120, time=0),
    Message('note_on', channel=9, note=38, velocity=120, time=0),
    Message('note_off', channel=9, note=38, velocity=64, time=191),
    Message('note_off', channel=9, note=43, velocity=64, time=0),
    Message('note_on', channel=9, note=43, velocity=120, time=1),
    Message('note_on', channel=9, note=38, velocity=120, time=0),
    Message('note_off', channel=9, note=38, velocity=64, time=191),
    Message('note_off', channel=9, note=36, velocity=64, time=0),
    Message('note_off', channel=9, note=43, velocity=64, time=1),
    Message('note_on', channel=9, note=36, velocity=120, time=0),
    Message('note_on', channel=9, note=38, velocity=120, time=0),
    Message('note_on', channel=9, note=43, velocity=120, time=0),
    Message('note_off', channel=9, note=43, velocity=64, time=191),
    Message('note_off', channel=9, note=38, velocity=64, time=0),
    Message('note_on', channel=9, note=38, velocity=120, time=1),
    Message('note_on', channel=9, note=43, velocity=120, time=0),
    Message('note_off', channel=9, note=43, velocity=64, time=191),
    Message('note_off', channel=9, note=38, velocity=64, time=0),
    Message('note_off', channel=9, note=36, velocity=64, time=0),
    Message('note_on', channel=9, note=36, velocity=120, time=1),
    Message('note_on', channel=9, note=38, velocity=120, time=0),
    Message('note_on', channel=9, note=43, velocity=120, time=0),
    Message('note_off', channel=9, note=43, velocity=64, time=191),
    Message('note_off', channel=9, note=38, velocity=64, time=0),
    Message('note_on', channel=9, note=38, velocity=120, time=1),
    Message('note_on', channel=9, note=43, velocity=120, time=0),
    Message('note_off', channel=9, note=38, velocity=64, time=191),
    Message('note_off', channel=9, note=36, velocity=64, time=0),
    Message('note_off', channel=9, note=43, velocity=64, time=1),
    Message('note_on', channel=9, note=38, velocity=120, time=0),
    Message('note_on', channel=9, note=38, velocity=120, time=9),
    Message('note_on', channel=9, note=36, velocity=120, time=183),
    Message('note_off', channel=9, note=36, velocity=64, time=191),
    Message('note_off', channel=9, note=38, velocity=64, time=0),
    Message('note_on', channel=9, note=38, velocity=120, time=1),
    Message('note_off', channel=9, note=38, velocity=64, time=8),
    Message('note_on', channel=9, note=38, velocity=120, time=5),
    Message('note_on', channel=9, note=36, velocity=120, time=179),
    Message('note_off', channel=9, note=36, velocity=64, time=191),
    Message('note_off', channel=9, note=38, velocity=64, time=0),
    Message('note_on', channel=9, note=49, velocity=60, time=1),
    Message('note_on', channel=9, note=36, velocity=120, time=0),
    Message('note_off', channel=9, note=38, velocity=64, time=12),
    Message('note_off', channel=9, note=36, velocity=64, time=371),
    Message('note_off', channel=9, note=49, velocity=64, time=0),
    Message('note_on', channel=9, note=42, velocity=40, time=1),
    Message('note_on', channel=9, note=38, velocity=120, time=0),
    Message('note_off', channel=9, note=38, velocity=64, time=191),
    Message('note_off', channel=9, note=42, velocity=64, time=1),
    Message('note_on', channel=9, note=42, velocity=40, time=0),
    Message('note_off', channel=9, note=42, velocity=64, time=192),
    Message('note_on', channel=9, note=36, velocity=120, time=0),
    Message('note_on', channel=9, note=42, velocity=40, time=0),
    Message('note_off', channel=9, note=42, velocity=64, time=192),
    Message('note_on', channel=9, note=42, velocity=40, time=0),
    Message('note_off', channel=9, note=36, velocity=64, time=191),
    Message('note_off', channel=9, note=42, velocity=64, time=1),
    Message('note_on', channel=9, note=42, velocity=40, time=0),
    Message('note_on', channel=9, note=38, velocity=120, time=0),
    Message('note_off', channel=9, note=38, velocity=64, time=191),
    Message('note_off', channel=9, note=42, velocity=64, time=1),
    Message('note_on', channel=9, note=42, velocity=40, time=0),
    Message('note_off', channel=9, note=42, velocity=64, time=192),
    Message('note_on', channel=9, note=42, velocity=40, time=0),
    Message('note_on', channel=9, note=36, velocity=120, time=0),
    Message('note_off', channel=9, note=42, velocity=64, time=192),
    Message('note_on', channel=9, note=42, velocity=40, time=0),
    Message('note_off', channel=9, note=36, velocity=64, time=191),
    Message('note_off', channel=9, note=42, velocity=64, time=1),
    Message('note_on', channel=9, note=42, velocity=40, time=0),
    Message('note_on', channel=9, note=38, velocity=120, time=0),
    Message('note_off', channel=9, note=38, velocity=64, time=191),
    Message('note_off', channel=9, note=42, velocity=64, time=1),
    Message('note_on', channel=9, note=42, velocity=40, time=0),
    Message('note_off', channel=9, note=42, velocity=64, time=192),
    Message('note_on', channel=9, note=42, velocity=40, time=0),
    Message('note_on', channel=9, note=36, velocity=120, time=0),
    Message('note_off', channel=9, note=36, velocity=64, time=191),
    Message('note_off', channel=9, note=42, velocity=64, time=1),
    Message('note_on', channel=9, note=42, velocity=40, time=0),
    Message('note_on', channel=9, note=36, velocity=120, time=0),
    Message('note_off', channel=9, note=36, velocity=64, time=191),
    Message('note_off', channel=9, note=42, velocity=64, time=1),
    Message('note_on', channel=9, note=42, velocity=40, time=0),
    Message('note_on', channel=9, note=38, velocity=120, time=0),
    Message('note_off', channel=9, note=38, velocity=64, time=191),
    Message('note_off', channel=9, note=42, velocity=64, time=1),
    Message('note_on', channel=9, note=42, velocity=40, time=0),
    Message('note_off', channel=9, note=42, velocity=64, time=192),
    Message('note_on', channel=9, note=42, velocity=40, time=0),
    Message('note_on', channel=9, note=36, velocity=120, time=0),
    Message('note_off', channel=9, note=42, velocity=64, time=192),
    Message('note_on', channel=9, note=42, velocity=40, time=0),
    Message('note_off', channel=9, note=36, velocity=64, time=191),
    Message('note_off', channel=9, note=42, velocity=64, time=1),
    Message('note_on', channel=9, note=38, velocity=120, time=0),
    Message('note_on', channel=9, note=42, velocity=40, time=0),
    Message('note_off', channel=9, note=38, velocity=64, time=191),
    Message('note_off', channel=9, note=42, velocity=64, time=1),
    Message('note_on', channel=9, note=42, velocity=40, time=0),
    Message('note_off', channel=9, note=42, velocity=64, time=192),
    Message('note_on', channel=9, note=36, velocity=120, time=0),
    Message('note_on', channel=9, note=42, velocity=40, time=0),
    Message('note_off', channel=9, note=42, velocity=64, time=192),
    Message('note_on', channel=9, note=42, velocity=40, time=0),
    Message('note_off', channel=9, note=36, velocity=64, time=191),
    Message('note_off', channel=9, note=42, velocity=64, time=1),
    Message('note_on', channel=9, note=36, velocity=120, time=0),
    Message('note_on', channel=9, note=42, velocity=40, time=0),
    Message('note_off', channel=9, note=42, velocity=64, time=192),
    Message('note_on', channel=9, note=38, velocity=120, time=0),
    Message('note_on', channel=9, note=49, velocity=60, time=0),
    Message('note_off', channel=9, note=38, velocity=64, time=191),
    Message('note_off', channel=9, note=36, velocity=64, time=0),
    Message('note_off', channel=9, note=49, velocity=64, time=1),
    Message('note_on', channel=9, note=42, velocity=40, time=0),
    Message('note_on', channel=9, note=36, velocity=120, time=0),
    Message('note_off', channel=9, note=42, velocity=64, time=192),
    Message('note_on', channel=9, note=42, velocity=40, time=0),
    Message('note_off', channel=9, note=36, velocity=64, time=191),
    Message('note_off', channel=9, note=42, velocity=64, time=1),
    Message('note_on', channel=9, note=42, velocity=40, time=0),
    Message('note_on', channel=9, note=38, velocity=120, time=0),
    Message('note_off', channel=9, note=38, velocity=64, time=191),
    Message('note_off', channel=9, note=42, velocity=64, time=1),
    Message('note_on', channel=9, note=42, velocity=40, time=0),
    Message('note_off', channel=9, note=42, velocity=64, time=192),
    Message('note_on', channel=9, note=42, velocity=40, time=0),
    Message('note_on', channel=9, note=36, velocity=120, time=0),
    Message('note_off', channel=9, note=36, velocity=64, time=191),
    Message('note_off', channel=9, note=42, velocity=64, time=1),
    Message('note_on', channel=9, note=42, velocity=40, time=0),
    Message('note_on', channel=9, note=36, velocity=120, time=0),
    Message('note_off', channel=9, note=36, velocity=64, time=191),
    Message('note_off', channel=9, note=42, velocity=64, time=1),
    Message('note_on', channel=9, note=42, velocity=40, time=0),
    Message('note_on', channel=9, note=38, velocity=120, time=0),
    Message('note_off', channel=9, note=38, velocity=64, time=191),
    Message('note_off', channel=9, note=42, velocity=64, time=1),
    Message('note_on', channel=9, note=36, velocity=120, time=0),
    Message('note_on', channel=9, note=42, velocity=40, time=0),
    Message('note_off', channel=9, note=36, velocity=64, time=191),
    Message('note_off', channel=9, note=42, velocity=64, time=1),
    Message('note_on', channel=9, note=49, velocity=60, time=0),
    Message('note_on', channel=9, note=36, velocity=120, time=0),
    Message('note_off', channel=9, note=49, velocity=64, time=192),
    Message('note_off', channel=9, note=36, velocity=64, time=191),
    Message('note_on', channel=9, note=38, velocity=120, time=1),
    Message('note_on', channel=9, note=42, velocity=40, time=0),
    Message('note_off', channel=9, note=38, velocity=64, time=191),
    Message('note_off', channel=9, note=42, velocity=64, time=1),
    Message('note_on', channel=9, note=42, velocity=40, time=0),
    Message('note_off', channel=9, note=42, velocity=64, time=192),
    Message('note_on', channel=9, note=36, velocity=120, time=0),
    Message('note_on', channel=9, note=42, velocity=40, time=0),
    Message('note_off', channel=9, note=42, velocity=64, time=192),
    Message('note_on', channel=9, note=42, velocity=40, time=0),
    Message('note_off', channel=9, note=36, velocity=64, time=191),
    Message('note_off', channel=9, note=42, velocity=64, time=1),
    Message('note_on', channel=9, note=36, velocity=120, time=0),
    Message('note_on', channel=9, note=42, velocity=40, time=0),
    Message('note_off', channel=9, note=42, velocity=64, time=192),
    Message('note_on', channel=9, note=38, velocity=120, time=0),
    Message('note_on', channel=9, note=49, velocity=60, time=0),
    Message('note_off', channel=9, note=38, velocity=64, time=191),
    Message('note_off', channel=9, note=36, velocity=64, time=0),
    Message('note_off', channel=9, note=49, velocity=64, time=1),
    Message('note_on', channel=9, note=36, velocity=120, time=0),
    Message('note_on', channel=9, note=42, velocity=40, time=0),
    Message('note_off', channel=9, note=42, velocity=64, time=192),
    Message('note_on', channel=9, note=42, velocity=40, time=0),
    Message('note_off', channel=9, note=36, velocity=64, time=191),
    Message('note_off', channel=9, note=42, velocity=64, time=1),
    Message('note_on', channel=9, note=42, velocity=40, time=0),
    Message('note_on', channel=9, note=38, velocity=120, time=0),
    Message('note_off', channel=9, note=38, velocity=64, time=191),
    Message('note_off', channel=9, note=42, velocity=64, time=1),
    Message('note_on', channel=9, note=42, velocity=40, time=0),
    Message('note_off', channel=9, note=42, velocity=64, time=192),
    Message('note_on', channel=9, note=38, velocity=120, time=0),
    Message('note_on', channel=9, note=38, velocity=120, time=9),
    Message('note_on', channel=9, note=36, velocity=120, time=183),
    Message('note_off', channel=9, note=36, velocity=64, time=191),
    Message('note_off', channel=9, note=38, velocity=64, time=0),
    Message('note_on', channel=9, note=38, velocity=120, time=1),
    Message('note_off', channel=9, note=38, velocity=64, time=8),
    Message('note_on', channel=9, note=38, velocity=120, time=1),
    Message('note_on', channel=9, note=36, velocity=120, time=183),
    Message('note_off', channel=9, note=36, velocity=64, time=191),
    Message('note_off', channel=9, note=38, velocity=64, time=0),
    Message('note_on', channel=9, note=49, velocity=60, time=1),
    Message('note_on', channel=9, note=36, velocity=120, time=0),
    Message('note_off', channel=9, note=38, velocity=64, time=8),
    Message('note_off', channel=9, note=36, velocity=64, time=375),
    Message('note_off', channel=9, note=49, velocity=64, time=1),
    Message('note_on', channel=9, note=42, velocity=40, time=0),
    Message('note_on', channel=9, note=38, velocity=120, time=0),
    Message('note_off', channel=9, note=38, velocity=64, time=191),
    Message('note_off', channel=9, note=42, velocity=64, time=1),
    Message('note_on', channel=9, note=42, velocity=40, time=0),
    Message('note_off', channel=9, note=42, velocity=64, time=192),
    Message('note_on', channel=9, note=42, velocity=40, time=0),
    Message('note_on', channel=9, note=36, velocity=120, time=0),
    Message('note_off', channel=9, note=42, velocity=64, time=192),
    Message('note_on', channel=9, note=42, velocity=40, time=0),
    Message('note_off', channel=9, note=36, velocity=64, time=191),
    Message('note_off', channel=9, note=42, velocity=64, time=1),
    Message('note_on', channel=9, note=42, velocity=40, time=0),
    Message('note_on', channel=9, note=38, velocity=120, time=0),
    Message('note_off', channel=9, note=38, velocity=64, time=191),
    Message('note_off', channel=9, note=42, velocity=64, time=1),
    Message('note_on', channel=9, note=42, velocity=40, time=0),
    Message('note_off', channel=9, note=42, velocity=64, time=192),
    Message('note_on', channel=9, note=36, velocity=120, time=0),
    Message('note_on', channel=9, note=42, velocity=40, time=0),
    Message('note_off', channel=9, note=42, velocity=64, time=192),
    Message('note_on', channel=9, note=42, velocity=40, time=0),
    Message('note_off', channel=9, note=36, velocity=64, time=191),
    Message('note_off', channel=9, note=42, velocity=64, time=1),
    Message('note_on', channel=9, note=38, velocity=120, time=0),
    Message('note_on', channel=9, note=42, velocity=40, time=0),
    Message('note_off', channel=9, note=38, velocity=64, time=191),
    Message('note_off', channel=9, note=42, velocity=64, time=1),
    Message('note_on', channel=9, note=42, velocity=40, time=0),
    Message('note_off', channel=9, note=42, velocity=64, time=192),
    Message('note_on', channel=9, note=36, velocity=120, time=0),
    Message('note_on', channel=9, note=42, velocity=40, time=0),
    Message('note_off', channel=9, note=36, velocity=64, time=191),
    Message('note_off', channel=9, note=42, velocity=64, time=1),
    Message('note_on', channel=9, note=36, velocity=120, time=0),
    Message('note_on', channel=9, note=42, velocity=40, time=0),
    Message('note_off', channel=9, note=36, velocity=64, time=191),
    Message('note_off', channel=9, note=42, velocity=64, time=1),
    Message('note_on', channel=9, note=38, velocity=120, time=0),
    Message('note_on', channel=9, note=42, velocity=40, time=0),
    Message('note_off', channel=9, note=38, velocity=64, time=191),
    Message('note_off', channel=9, note=42, velocity=64, time=1),
    Message('note_on', channel=9, note=42, velocity=40, time=0),
    Message('note_off', channel=9, note=42, velocity=64, time=192),
    Message('note_on', channel=9, note=36, velocity=120, time=0),
    Message('note_on', channel=9, note=42, velocity=40, time=0),
    Message('note_off', channel=9, note=42, velocity=64, time=192),
    Message('note_on', channel=9, note=42, velocity=40, time=0),
    Message('note_off', channel=9, note=36, velocity=64, time=191),
    Message('note_off', channel=9, note=42, velocity=64, time=1),
    Message('note_on', channel=9, note=42, velocity=40, time=0),
    Message('note_on', channel=9, note=38, velocity=120, time=0),
    Message('note_off', channel=9, note=38, velocity=64, time=191),
    Message('note_off', channel=9, note=42, velocity=64, time=1),
    Message('note_on', channel=9, note=42, velocity=40, time=0),
    Message('note_off', channel=9, note=42, velocity=64, time=192),
    Message('note_on', channel=9, note=42, velocity=40, time=0),
    Message('note_on', channel=9, note=36, velocity=120, time=0),
    Message('note_off', channel=9, note=42, velocity=64, time=192),
    Message('note_on', channel=9, note=42, velocity=40, time=0),
    Message('note_off', channel=9, note=36, velocity=64, time=191),
    Message('note_off', channel=9, note=42, velocity=64, time=1),
    Message('note_on', channel=9, note=42, velocity=40, time=0),
    Message('note_on', channel=9, note=36, velocity=120, time=0),
    Message('note_off', channel=9, note=42, velocity=64, time=192),
    Message('note_on', channel=9, note=49, velocity=60, time=0),
    Message('note_on', channel=9, note=38, velocity=120, time=0),
    Message('note_off', channel=9, note=38, velocity=64, time=191),
    Message('note_off', channel=9, note=36, velocity=64, time=0),
    Message('note_off', channel=9, note=49, velocity=64, time=1),
    Message('note_on', channel=9, note=36, velocity=120, time=0),
    Message('note_on', channel=9, note=42, velocity=40, time=0),
    Message('note_off', channel=9, note=42, velocity=64, time=192),
    Message('note_on', channel=9, note=42, velocity=40, time=0),
    Message('note_off', channel=9, note=36, velocity=64, time=191),
    Message('note_off', channel=9, note=42, velocity=64, time=1),
    Message('note_on', channel=9, note=38, velocity=120, time=0),
    Message('note_on', channel=9, note=42, velocity=40, time=0),
    Message('note_off', channel=9, note=38, velocity=64, time=191),
    Message('note_off', channel=9, note=42, velocity=64, time=1),
    Message('note_on', channel=9, note=42, velocity=40, time=0),
    Message('note_off', channel=9, note=42, velocity=64, time=192),
    Message('note_on', channel=9, note=36, velocity=120, time=0),
    Message('note_on', channel=9, note=42, velocity=40, time=0),
    Message('note_off', channel=9, note=36, velocity=64, time=191),
    Message('note_off', channel=9, note=42, velocity=64, time=1),
    Message('note_on', channel=9, note=36, velocity=120, time=0),
    Message('note_on', channel=9, note=42, velocity=40, time=0),
    Message('note_off', channel=9, note=36, velocity=64, time=191),
    Message('note_off', channel=9, note=42, velocity=64, time=1),
    Message('note_on', channel=9, note=38, velocity=120, time=0),
    Message('note_on', channel=9, note=42, velocity=40, time=0),
    Message('note_off', channel=9, note=38, velocity=64, time=191),
    Message('note_off', channel=9, note=42, velocity=64, time=1),
    Message('note_on', channel=9, note=42, velocity=40, time=0),
    Message('note_on', channel=9, note=36, velocity=120, time=0),
    Message('note_off', channel=9, note=36, velocity=64, time=191),
    Message('note_off', channel=9, note=42, velocity=64, time=1),
    Message('note_on', channel=9, note=36, velocity=120, time=0),
    Message('note_on', channel=9, note=49, velocity=60, time=0),
    Message('note_off', channel=9, note=49, velocity=64, time=192),
    Message('note_off', channel=9, note=36, velocity=64, time=191),
    Message('note_on', channel=9, note=42, velocity=40, time=1),
    Message('note_on', channel=9, note=38, velocity=120, time=0),
    Message('note_off', channel=9, note=38, velocity=64, time=191),
    Message('note_off', channel=9, note=42, velocity=64, time=1),
    Message('note_on', channel=9, note=42, velocity=40, time=0),
    Message('note_off', channel=9, note=42, velocity=64, time=192),
    Message('note_on', channel=9, note=42, velocity=40, time=0),
    Message('note_on', channel=9, note=36, velocity=120, time=0),
    Message('note_off', channel=9, note=42, velocity=64, time=192),
    Message('note_on', channel=9, note=42, velocity=40, time=0),
    Message('note_off', channel=9, note=36, velocity=64, time=191),
    Message('note_off', channel=9, note=42, velocity=64, time=1),
    Message('note_on', channel=9, note=42, velocity=40, time=0),
    Message('note_on', channel=9, note=36, velocity=120, time=0),
    Message('note_off', channel=9, note=42, velocity=64, time=192),
    Message('note_on', channel=9, note=49, velocity=60, time=0),
    Message('note_on', channel=9, note=38, velocity=120, time=0),
    Message('note_off', channel=9, note=38, velocity=64, time=191),
    Message('note_off', channel=9, note=36, velocity=64, time=0),
    Message('note_off', channel=9, note=49, velocity=64, time=1),
    Message('note_on', channel=9, note=36, velocity=120, time=0),
    Message('note_on', channel=9, note=42, velocity=40, time=0),
    Message('note_off', channel=9, note=42, velocity=64, time=192),
    Message('note_on', channel=9, note=42, velocity=40, time=0),
    Message('note_off', channel=9, note=36, velocity=64, time=191),
    Message('note_off', channel=9, note=42, velocity=64, time=1),
    Message('note_on', channel=9, note=38, velocity=120, time=0),
    Message('note_on', channel=9, note=42, velocity=40, time=0),
    Message('note_off', channel=9, note=38, velocity=64, time=191),
    Message('note_off', channel=9, note=42, velocity=64, time=1),
    Message('note_on', channel=9, note=42, velocity=40, time=0),
    Message('note_off', channel=9, note=42, velocity=64, time=192),
    Message('note_on', channel=9, note=36, velocity=120, time=0),
    Message('note_on', channel=9, note=42, velocity=40, time=0),
    Message('note_off', channel=9, note=36, velocity=64, time=191),
    Message('note_off', channel=9, note=42, velocity=64, time=1),
    Message('note_on', channel=9, note=36, velocity=120, time=0),
    Message('note_on', channel=9, note=42, velocity=40, time=0),
    Message('note_off', channel=9, note=36, velocity=64, time=191),
    Message('note_off', channel=9, note=42, velocity=64, time=1),
    Message('note_on', channel=9, note=38, velocity=120, time=0),
    Message('note_on', channel=9, note=42, velocity=40, time=0),
    Message('note_off', channel=9, note=38, velocity=64, time=191),
    Message('note_off', channel=9, note=42, velocity=64, time=1),
    Message('note_on', channel=9, note=42, velocity=40, time=0),
    Message('note_on', channel=9, note=36, velocity=120, time=0),
    Message('note_off', channel=9, note=36, velocity=64, time=191),
    Message('note_off', channel=9, note=42, velocity=64, time=1),
    Message('note_on', channel=9, note=49, velocity=60, time=0),
    Message('note_on', channel=9, note=36, velocity=120, time=0),
    Message('note_off', channel=9, note=36, velocity=64, time=383),
    Message('note_off', channel=9, note=49, velocity=64, time=0),
    Message('note_on', channel=9, note=36, velocity=120, time=961),
    Message('note_on', channel=9, note=49, velocity=60, time=0),
    Message('note_off', channel=9, note=49, velocity=64, time=191),
    Message('note_off', channel=9, note=36, velocity=64, time=0),
    Message('control_change', channel=9, control=7, value=100, time=3073),
    Message('note_on', channel=9, note=38, velocity=120, time=1344),
    Message('note_on', channel=9, note=49, velocity=60, time=0),
    Message('note_off', channel=9, note=49, velocity=64, time=191),
    Message('note_off', channel=9, note=38, velocity=64, time=0),
    Message('note_on', channel=9, note=42, velocity=40, time=193),
    Message('note_off', channel=9, note=42, velocity=64, time=192),
    Message('note_on', channel=9, note=42, velocity=40, time=0),
    Message('note_on', channel=9, note=38, velocity=120, time=0),
    Message('note_off', channel=9, note=38, velocity=64, time=191),
    Message('note_off', channel=9, note=42, velocity=64, time=1),
    Message('note_on', channel=9, note=42, velocity=40, time=0),
    Message('note_off', channel=9, note=42, velocity=64, time=192),
    Message('note_on', channel=9, note=36, velocity=120, time=0),
    Message('note_on', channel=9, note=42, velocity=40, time=0),
    Message('note_off', channel=9, note=42, velocity=64, time=192),
    Message('note_on', channel=9, note=42, velocity=40, time=0),
    Message('note_off', channel=9, note=36, velocity=64, time=191),
    Message('note_off', channel=9, note=42, velocity=64, time=1),
    Message('note_on', channel=9, note=42, velocity=40, time=0),
    Message('note_on', channel=9, note=38, velocity=120, time=0),
    Message('note_off', channel=9, note=38, velocity=64, time=191),
    Message('note_off', channel=9, note=42, velocity=64, time=1),
    Message('note_on', channel=9, note=42, velocity=40, time=0),
    Message('note_off', channel=9, note=42, velocity=64, time=192),
    Message('note_on', channel=9, note=36, velocity=120, time=0),
    Message('note_on', channel=9, note=42, velocity=40, time=0),
    Message('note_off', channel=9, note=42, velocity=64, time=192),
    Message('note_on', channel=9, note=42, velocity=40, time=0),
    Message('note_off', channel=9, note=36, velocity=64, time=191),
    Message('note_off', channel=9, note=42, velocity=64, time=1),
    Message('note_on', channel=9, note=42, velocity=40, time=0),
    Message('note_on', channel=9, note=38, velocity=120, time=0),
    Message('note_off', channel=9, note=38, velocity=64, time=191),
    Message('note_off', channel=9, note=42, velocity=64, time=1),
    Message('note_on', channel=9, note=42, velocity=40, time=0),
    Message('note_off', channel=9, note=42, velocity=64, time=192),
    Message('note_on', channel=9, note=36, velocity=120, time=0),
    Message('note_on', channel=9, note=42, velocity=40, time=0),
    Message('note_off', channel=9, note=42, velocity=64, time=192),
    Message('note_on', channel=9, note=42, velocity=40, time=0),
    Message('note_off', channel=9, note=36, velocity=64, time=191),
    Message('note_off', channel=9, note=42, velocity=64, time=1),
    Message('note_on', channel=9, note=38, velocity=120, time=0),
    Message('note_on', channel=9, note=42, velocity=40, time=0),
    Message('note_off', channel=9, note=38, velocity=64, time=191),
    Message('note_off', channel=9, note=42, velocity=64, time=1),
    Message('note_on', channel=9, note=36, velocity=120, time=0),
    Message('note_on', channel=9, note=49, velocity=60, time=0),
    Message('note_off', channel=9, note=36, velocity=64, time=191),
    Message('note_off', channel=9, note=49, velocity=64, time=1),
    Message('note_on', channel=9, note=42, velocity=40, time=0),
    Message('note_off', channel=9, note=42, velocity=64, time=192),
    Message('note_on', channel=9, note=42, velocity=40, time=0),
    Message('note_off', channel=9, note=42, velocity=64, time=192),
    Message('note_on', channel=9, note=42, velocity=40, time=0),
    Message('note_on', channel=9, note=38, velocity=120, time=0),
    Message('note_off', channel=9, note=38, velocity=64, time=191),
    Message('note_off', channel=9, note=42, velocity=64, time=1),
    Message('note_on', channel=9, note=42, velocity=40, time=0),
    Message('note_off', channel=9, note=42, velocity=64, time=192),
    Message('note_on', channel=9, note=36, velocity=120, time=0),
    Message('note_on', channel=9, note=42, velocity=40, time=0),
    Message('note_off', channel=9, note=42, velocity=64, time=192),
    Message('note_on', channel=9, note=42, velocity=40, time=0),
    Message('note_off', channel=9, note=36, velocity=64, time=191),
    Message('note_off', channel=9, note=42, velocity=64, time=1),
    Message('note_on', channel=9, note=42, velocity=40, time=0),
    Message('note_on', channel=9, note=38, velocity=120, time=0),
    Message('note_off', channel=9, note=38, velocity=64, time=191),
    Message('note_off', channel=9, note=42, velocity=64, time=1),
    Message('note_on', channel=9, note=42, velocity=40, time=0),
    Message('note_off', channel=9, note=42, velocity=64, time=192),
    Message('note_on', channel=9, note=36, velocity=120, time=0),
    Message('note_on', channel=9, note=42, velocity=40, time=0),
    Message('note_off', channel=9, note=42, velocity=64, time=192),
    Message('note_on', channel=9, note=42, velocity=40, time=0),
    Message('note_off', channel=9, note=36, velocity=64, time=191),
    Message('note_off', channel=9, note=42, velocity=64, time=1),
    Message('note_on', channel=9, note=42, velocity=40, time=0),
    Message('note_on', channel=9, note=38, velocity=120, time=0),
    Message('note_off', channel=9, note=38, velocity=64, time=191),
    Message('note_off', channel=9, note=42, velocity=64, time=1),
    Message('note_on', channel=9, note=42, velocity=40, time=0),
    Message('note_off', channel=9, note=42, velocity=64, time=192),
    Message('note_on', channel=9, note=36, velocity=120, time=0),
    Message('note_on', channel=9, note=42, velocity=40, time=0),
    Message('note_off', channel=9, note=42, velocity=64, time=192),
    Message('note_on', channel=9, note=42, velocity=40, time=0),
    Message('note_off', channel=9, note=36, velocity=64, time=191),
    Message('note_off', channel=9, note=42, velocity=64, time=1),
    Message('note_on', channel=9, note=42, velocity=40, time=0),
    Message('note_on', channel=9, note=38, velocity=120, time=0),
    Message('note_off', channel=9, note=38, velocity=64, time=191),
    Message('note_off', channel=9, note=42, velocity=64, time=1),
    Message('note_on', channel=9, note=42, velocity=40, time=0),
    Message('note_off', channel=9, note=42, velocity=64, time=192),
    Message('note_on', channel=9, note=36, velocity=120, time=0),
    Message('note_on', channel=9, note=42, velocity=40, time=0),
    Message('note_off', channel=9, note=42, velocity=64, time=192),
    Message('note_on', channel=9, note=42, velocity=40, time=0),
    Message('note_off', channel=9, note=36, velocity=64, time=191),
    Message('note_off', channel=9, note=42, velocity=64, time=1),
    Message('note_on', channel=9, note=42, velocity=40, time=0),
    Message('note_on', channel=9, note=38, velocity=120, time=0),
    Message('note_off', channel=9, note=38, velocity=64, time=191),
    Message('note_off', channel=9, note=42, velocity=64, time=1),
    Message('note_on', channel=9, note=42, velocity=40, time=0),
    Message('note_off', channel=9, note=42, velocity=64, time=192),
    Message('note_on', channel=9, note=36, velocity=120, time=0),
    Message('note_on', channel=9, note=42, velocity=40, time=0),
    Message('note_off', channel=9, note=42, velocity=64, time=192),
    Message('note_on', channel=9, note=42, velocity=40, time=0),
    Message('note_off', channel=9, note=36, velocity=64, time=191),
    Message('note_off', channel=9, note=42, velocity=64, time=1),
    Message('note_on', channel=9, note=42, velocity=40, time=0),
    Message('note_on', channel=9, note=38, velocity=120, time=0),
    Message('note_off', channel=9, note=42, velocity=64, time=192),
    Message('note_on', channel=9, note=42, velocity=40, time=0),
    Message('note_off', channel=9, note=42, velocity=64, time=96),
    Message('note_off', channel=9, note=38, velocity=64, time=0),
    Message('note_on', channel=9, note=38, velocity=120, time=0),
    Message('note_off', channel=9, note=38, velocity=64, time=96),
    Message('note_on', channel=9, note=38, velocity=120, time=0),
    Message('note_off', channel=9, note=38, velocity=64, time=192),
    Message('note_on', channel=9, note=47, velocity=120, time=0),
    Message('note_off', channel=9, note=47, velocity=64, time=192),
    Message('note_on', channel=9, note=47, velocity=120, time=0),
    Message('note_off', channel=9, note=47, velocity=64, time=192),
    Message('note_on', channel=9, note=45, velocity=120, time=0),
    Message('note_off', channel=9, note=45, velocity=64, time=96),
    Message('note_on', channel=9, note=45, velocity=120, time=0),
    Message('note_off', channel=9, note=45, velocity=64, time=96),
    Message('note_on', channel=9, note=38, velocity=120, time=0),
    Message('note_off', channel=9, note=38, velocity=64, time=96),
    Message('note_on', channel=9, note=38, velocity=120, time=0),
    Message('note_off', channel=9, note=38, velocity=64, time=96),
    Message('note_on', channel=9, note=45, velocity=120, time=0),
    Message('note_off', channel=9, note=45, velocity=64, time=96),
    Message('note_on', channel=9, note=45, velocity=120, time=0),
    Message('note_off', channel=9, note=45, velocity=64, time=96),
    Message('note_on', channel=9, note=38, velocity=120, time=0),
    Message('note_off', channel=9, note=38, velocity=64, time=96),
    Message('note_on', channel=9, note=38, velocity=120, time=0),
    Message('note_off', channel=9, note=38, velocity=64, time=96),
    Message('note_on', channel=9, note=45, velocity=120, time=0),
    Message('note_off', channel=9, note=45, velocity=64, time=96),
    Message('note_on', channel=9, note=45, velocity=120, time=0),
    Message('note_off', channel=9, note=45, velocity=64, time=96),
    Message('note_on', channel=9, note=36, velocity=120, time=0),
    Message('note_on', channel=9, note=41, velocity=120, time=0),
    Message('note_off', channel=9, note=41, velocity=64, time=192),
    Message('note_on', channel=9, note=41, velocity=120, time=0),
    Message('note_off', channel=9, note=36, velocity=64, time=191),
    Message('note_off', channel=9, note=41, velocity=64, time=1),
    Message('note_on', channel=9, note=49, velocity=60, time=0),
    Message('note_on', channel=9, note=38, velocity=120, time=0),
    Message('note_on', channel=9, note=36, velocity=120, time=0),
    Message('note_off', channel=9, note=36, velocity=64, time=383),
    Message('note_off', channel=9, note=38, velocity=64, time=0),
    Message('note_off', channel=9, note=49, velocity=64, time=0),
    Message('note_on', channel=9, note=41, velocity=120, time=1),
    Message('note_on', channel=9, note=36, velocity=120, time=0),
    Message('note_off', channel=9, note=41, velocity=64, time=192),
    Message('note_on', channel=9, note=41, velocity=120, time=0),
    Message('note_off', channel=9, note=36, velocity=64, time=191),
    Message('note_off', channel=9, note=41, velocity=64, time=1),
    Message('note_on', channel=9, note=45, velocity=120, time=0),
    Message('note_on', channel=9, note=41, velocity=120, time=0),
    Message('note_on', channel=9, note=36, velocity=120, time=0),
    Message('note_off', channel=9, note=41, velocity=64, time=192),
    Message('note_off', channel=9, note=45, velocity=64, time=0),
    Message('note_on', channel=9, note=38, velocity=120, time=0),
    Message('note_on', channel=9, note=41, velocity=120, time=0),
    Message('note_off', channel=9, note=36, velocity=64, time=191),
    Message('note_off', channel=9, note=41, velocity=64, time=1),
    Message('note_off', channel=9, note=38, velocity=64, time=0),
    Message('note_on', channel=9, note=36, velocity=120, time=0),
    Message('note_on', channel=9, note=41, velocity=120, time=0),
    Message('note_off', channel=9, note=41, velocity=64, time=192),
    Message('note_on', channel=9, note=41, velocity=120, time=0),
    Message('note_off', channel=9, note=36, velocity=64, time=191),
    Message('note_off', channel=9, note=41, velocity=64, time=1),
    Message('note_on', channel=9, note=36, velocity=120, time=0),
    Message('note_on', channel=9, note=45, velocity=120, time=0),
    Message('note_on', channel=9, note=41, velocity=120, time=0),
    Message('note_off', channel=9, note=41, velocity=64, time=192),
    Message('note_off', channel=9, note=45, velocity=64, time=0),
    Message('note_on', channel=9, note=41, velocity=120, time=0),
    Message('note_off', channel=9, note=36, velocity=64, time=191),
    Message('note_off', channel=9, note=41, velocity=64, time=1),
    Message('note_on', channel=9, note=36, velocity=120, time=0),
    Message('note_on', channel=9, note=41, velocity=120, time=0),
    Message('note_off', channel=9, note=41, velocity=64, time=192),
    Message('note_on', channel=9, note=41, velocity=120, time=0),
    Message('note_off', channel=9, note=36, velocity=64, time=191),
    Message('note_off', channel=9, note=41, velocity=64, time=1),
    Message('note_on', channel=9, note=36, velocity=120, time=0),
    Message('note_on', channel=9, note=45, velocity=120, time=0),
    Message('note_on', channel=9, note=41, velocity=120, time=0),
    Message('note_off', channel=9, note=41, velocity=64, time=192),
    Message('note_off', channel=9, note=45, velocity=64, time=0),
    Message('note_on', channel=9, note=38, velocity=120, time=0),
    Message('note_on', channel=9, note=41, velocity=120, time=0),
    Message('note_off', channel=9, note=36, velocity=64, time=191),
    Message('note_off', channel=9, note=41, velocity=64, time=1),
    Message('note_off', channel=9, note=38, velocity=64, time=0),
    Message('note_on', channel=9, note=36, velocity=120, time=0),
    Message('note_on', channel=9, note=41, velocity=120, time=0),
    Message('note_off', channel=9, note=41, velocity=64, time=192),
    Message('note_on', channel=9, note=41, velocity=120, time=0),
    Message('note_off', channel=9, note=36, velocity=64, time=191),
    Message('note_off', channel=9, note=41, velocity=64, time=1),
    Message('note_on', channel=9, note=36, velocity=120, time=0),
    Message('note_on', channel=9, note=45, velocity=120, time=0),
    Message('note_on', channel=9, note=41, velocity=120, time=0),
    Message('note_off', channel=9, note=41, velocity=64, time=192),
    Message('note_off', channel=9, note=45, velocity=64, time=0),
    Message('note_on', channel=9, note=41, velocity=120, time=0),
    Message('note_off', channel=9, note=36, velocity=64, time=191),
    Message('note_off', channel=9, note=41, velocity=64, time=1),
    Message('note_on', channel=9, note=36, velocity=120, time=0),
    Message('note_on', channel=9, note=41, velocity=120, time=0),
    Message('note_off', channel=9, note=41, velocity=64, time=192),
    Message('note_on', channel=9, note=41, velocity=120, time=0),
    Message('note_off', channel=9, note=36, velocity=64, time=191),
    Message('note_off', channel=9, note=41, velocity=64, time=1),
    Message('note_on', channel=9, note=36, velocity=120, time=0),
    Message('note_on', channel=9, note=45, velocity=120, time=0),
    Message('note_on', channel=9, note=41, velocity=120, time=0),
    Message('note_off', channel=9, note=41, velocity=64, time=192),
    Message('note_off', channel=9, note=45, velocity=64, time=0),
    Message('note_on', channel=9, note=38, velocity=120, time=0),
    Message('note_on', channel=9, note=41, velocity=120, time=0),
    Message('note_off', channel=9, note=36, velocity=64, time=191),
    Message('note_off', channel=9, note=41, velocity=64, time=1),
    Message('note_off', channel=9, note=38, velocity=64, time=0),
    Message('note_on', channel=9, note=36, velocity=120, time=0),
    Message('note_on', channel=9, note=41, velocity=120, time=0),
    Message('note_off', channel=9, note=41, velocity=64, time=192),
    Message('note_on', channel=9, note=49, velocity=60, time=0),
    Message('note_on', channel=9, note=38, velocity=120, time=0),
    Message('note_off', channel=9, note=38, velocity=64, time=191),
    Message('note_off', channel=9, note=49, velocity=64, time=0),
    Message('note_off', channel=9, note=36, velocity=64, time=0),
    Message('note_on', channel=9, note=36, velocity=120, time=1),
    Message('note_on', channel=9, note=49, velocity=60, time=192),
    Message('note_on', channel=9, note=38, velocity=120, time=0),
    Message('note_off', channel=9, note=36, velocity=64, time=191),
    Message('note_off', channel=9, note=38, velocity=64, time=1),
    Message('note_off', channel=9, note=49, velocity=64, time=0),
    Message('note_on', channel=9, note=36, velocity=120, time=0),
    Message('note_on', channel=9, note=41, velocity=120, time=0),
    Message('note_off', channel=9, note=41, velocity=64, time=192),
    Message('note_on', channel=9, note=41, velocity=120, time=0),
    Message('note_off', channel=9, note=36, velocity=64, time=191),
    Message('note_off', channel=9, note=41, velocity=64, time=1),
    Message('note_on', channel=9, note=36, velocity=120, time=0),
    Message('note_on', channel=9, note=41, velocity=120, time=0),
    Message('note_off', channel=9, note=41, velocity=64, time=192),
    Message('note_on', channel=9, note=41, velocity=120, time=0),
    Message('note_off', channel=9, note=36, velocity=64, time=191),
    Message('note_off', channel=9, note=41, velocity=64, time=1),
    Message('note_on', channel=9, note=36, velocity=120, time=0),
    Message('note_on', channel=9, note=41, velocity=120, time=0),
    Message('note_off', channel=9, note=41, velocity=64, time=192),
    Message('note_on', channel=9, note=41, velocity=120, time=0),
    Message('note_off', channel=9, note=36, velocity=64, time=191),
    Message('note_off', channel=9, note=41, velocity=64, time=1),
    Message('note_on', channel=9, note=36, velocity=120, time=0),
    Message('note_on', channel=9, note=49, velocity=60, time=0),
    Message('note_on', channel=9, note=38, velocity=120, time=0),
    Message('note_off', channel=9, note=38, velocity=64, time=383),
    Message('note_off', channel=9, note=49, velocity=64, time=0),
    Message('note_off', channel=9, note=36, velocity=64, time=0),
    Message('note_on', channel=9, note=36, velocity=120, time=1),
    Message('note_on', channel=9, note=41, velocity=120, time=0),
    Message('note_off', channel=9, note=41, velocity=64, time=192),
    Message('note_on', channel=9, note=41, velocity=120, time=0),
    Message('note_off', channel=9, note=36, velocity=64, time=191),
    Message('note_off', channel=9, note=41, velocity=64, time=1),
    Message('note_on', channel=9, note=36, velocity=120, time=0),
    Message('note_on', channel=9, note=45, velocity=120, time=0),
    Message('note_on', channel=9, note=41, velocity=120, time=0),
    Message('note_off', channel=9, note=41, velocity=64, time=192),
    Message('note_off', channel=9, note=45, velocity=64, time=0),
    Message('note_on', channel=9, note=49, velocity=60, time=0),
    Message('note_on', channel=9, note=38, velocity=120, time=0),
    Message('note_off', channel=9, note=38, velocity=64, time=191),
    Message('note_off', channel=9, note=49, velocity=64, time=0),
    Message('note_off', channel=9, note=36, velocity=64, time=0),
    Message('note_on', channel=9, note=36, velocity=120, time=1),
    Message('note_on', channel=9, note=49, velocity=60, time=192),
    Message('note_on', channel=9, note=38, velocity=120, time=0),
    Message('note_off', channel=9, note=38, velocity=64, time=191),
    Message('note_off', channel=9, note=49, velocity=64, time=0),
    Message('note_off', channel=9, note=36, velocity=64, time=0),
    Message('note_on', channel=9, note=36, velocity=120, time=1),
    Message('note_off', channel=9, note=36, velocity=64, time=383),
    Message('note_on', channel=9, note=36, velocity=120, time=1),
    Message('note_on', channel=9, note=41, velocity=120, time=0),
    Message('note_off', channel=9, note=41, velocity=64, time=192),
    Message('note_on', channel=9, note=41, velocity=120, time=0),
    Message('note_off', channel=9, note=36, velocity=64, time=191),
    Message('note_off', channel=9, note=41, velocity=64, time=1),
    Message('note_on', channel=9, note=36, velocity=120, time=0),
    Message('note_on', channel=9, note=41, velocity=120, time=0),
    Message('note_off', channel=9, note=41, velocity=64, time=192),
    Message('note_on', channel=9, note=47, velocity=120, time=0),
    Message('note_on', channel=9, note=41, velocity=120, time=0),
    Message('note_off', channel=9, note=36, velocity=64, time=191),
    Message('note_off', channel=9, note=41, velocity=64, time=1),
    Message('note_off', channel=9, note=47, velocity=64, time=0),
    Message('note_on', channel=9, note=36, velocity=120, time=0),
    Message('note_on', channel=9, note=47, velocity=120, time=0),
    Message('note_on', channel=9, note=41, velocity=120, time=0),
    Message('note_off', channel=9, note=41, velocity=64, time=192),
    Message('note_off', channel=9, note=47, velocity=64, time=0),
    Message('note_on', channel=9, note=47, velocity=120, time=0),
    Message('note_on', channel=9, note=41, velocity=120, time=0),
    Message('note_off', channel=9, note=36, velocity=64, time=191),
    Message('note_off', channel=9, note=41, velocity=64, time=1),
    Message('note_off', channel=9, note=47, velocity=64, time=0),
    Message('note_on', channel=9, note=36, velocity=120, time=0),
    Message('note_on', channel=9, note=47, velocity=120, time=0),
    Message('note_on', channel=9, note=41, velocity=120, time=0),
    Message('note_off', channel=9, note=41, velocity=64, time=192),
    Message('note_off', channel=9, note=47, velocity=64, time=0),
    Message('note_on', channel=9, note=47, velocity=120, time=0),
    Message('note_on', channel=9, note=41, velocity=120, time=0),
    Message('note_off', channel=9, note=36, velocity=64, time=191),
    Message('note_off', channel=9, note=41, velocity=64, time=1),
    Message('note_off', channel=9, note=47, velocity=64, time=0),
    Message('note_on', channel=9, note=36, velocity=120, time=0),
    Message('note_on', channel=9, note=47, velocity=120, time=0),
    Message('note_on', channel=9, note=41, velocity=120, time=0),
    Message('note_off', channel=9, note=41, velocity=64, time=192),
    Message('note_off', channel=9, note=47, velocity=64, time=0),
    Message('note_on', channel=9, note=47, velocity=120, time=0),
    Message('note_on', channel=9, note=41, velocity=120, time=0),
    Message('note_off', channel=9, note=36, velocity=64, time=191),
    Message('note_off', channel=9, note=41, velocity=64, time=1),
    Message('note_off', channel=9, note=47, velocity=64, time=0),
    Message('note_on', channel=9, note=36, velocity=120, time=0),
    Message('note_on', channel=9, note=47, velocity=120, time=0),
    Message('note_on', channel=9, note=41, velocity=120, time=0),
    Message('note_off', channel=9, note=41, velocity=64, time=192),
    Message('note_off', channel=9, note=47, velocity=64, time=0),
    Message('note_on', channel=9, note=47, velocity=120, time=0),
    Message('note_on', channel=9, note=41, velocity=120, time=0),
    Message('note_off', channel=9, note=36, velocity=64, time=191),
    Message('note_off', channel=9, note=41, velocity=64, time=1),
    Message('note_off', channel=9, note=47, velocity=64, time=0),
    Message('note_on', channel=9, note=36, velocity=120, time=0),
    Message('note_on', channel=9, note=41, velocity=120, time=0),
    Message('note_off', channel=9, note=41, velocity=64, time=192),
    Message('note_on', channel=9, note=41, velocity=120, time=0),
    Message('note_off', channel=9, note=36, velocity=64, time=191),
    Message('note_off', channel=9, note=41, velocity=64, time=1),
    Message('note_on', channel=9, note=36, velocity=120, time=0),
    Message('note_on', channel=9, note=49, velocity=60, time=0),
    Message('note_on', channel=9, note=38, velocity=120, time=0),
    Message('note_off', channel=9, note=38, velocity=64, time=383),
    Message('note_off', channel=9, note=49, velocity=64, time=0),
    Message('note_off', channel=9, note=36, velocity=64, time=0),
    Message('note_on', channel=9, note=36, velocity=120, time=1),
    Message('note_on', channel=9, note=45, velocity=120, time=192),
    Message('note_on', channel=9, note=41, velocity=120, time=0),
    Message('note_off', channel=9, note=41, velocity=64, time=191),
    Message('note_off', channel=9, note=45, velocity=64, time=0),
    Message('note_off', channel=9, note=36, velocity=64, time=0),
    Message('note_on', channel=9, note=36, velocity=120, time=1),
    Message('note_on', channel=9, note=45, velocity=120, time=192),
    Message('note_on', channel=9, note=41, velocity=120, time=0),
    Message('note_off', channel=9, note=36, velocity=64, time=191),
    Message('note_off', channel=9, note=41, velocity=64, time=1),
    Message('note_off', channel=9, note=45, velocity=64, time=0),
    Message('note_on', channel=9, note=36, velocity=120, time=0),
    Message('note_on', channel=9, note=41, velocity=120, time=0),
    Message('note_off', channel=9, note=41, velocity=64, time=192),
    Message('note_on', channel=9, note=41, velocity=120, time=0),
    Message('note_off', channel=9, note=36, velocity=64, time=191),
    Message('note_off', channel=9, note=41, velocity=64, time=1),
    Message('note_on', channel=9, note=36, velocity=120, time=0),
    Message('note_on', channel=9, note=49, velocity=60, time=0),
    Message('note_on', channel=9, note=38, velocity=120, time=0),
    Message('note_off', channel=9, note=38, velocity=64, time=383),
    Message('note_off', channel=9, note=49, velocity=64, time=0),
    Message('note_off', channel=9, note=36, velocity=64, time=0),
    Message('note_on', channel=9, note=36, velocity=120, time=1),
    Message('note_on', channel=9, note=45, velocity=120, time=192),
    Message('note_on', channel=9, note=41, velocity=120, time=0),
    Message('note_off', channel=9, note=41, velocity=64, time=191),
    Message('note_off', channel=9, note=45, velocity=64, time=0),
    Message('note_off', channel=9, note=36, velocity=64, time=0),
    Message('note_on', channel=9, note=36, velocity=120, time=1),
    Message('note_on', channel=9, note=45, velocity=120, time=192),
    Message('note_on', channel=9, note=41, velocity=120, time=0),
    Message('note_off', channel=9, note=36, velocity=64, time=191),
    Message('note_off', channel=9, note=41, velocity=64, time=1),
    Message('note_off', channel=9, note=45, velocity=64, time=0),
    Message('note_on', channel=9, note=36, velocity=120, time=0),
    Message('note_on', channel=9, note=41, velocity=120, time=0),
    Message('note_off', channel=9, note=41, velocity=64, time=192),
    Message('note_on', channel=9, note=41, velocity=120, time=0),
    Message('note_off', channel=9, note=36, velocity=64, time=191),
    Message('note_off', channel=9, note=41, velocity=64, time=1),
    Message('note_on', channel=9, note=36, velocity=120, time=0),
    Message('note_on', channel=9, note=49, velocity=60, time=0),
    Message('note_on', channel=9, note=38, velocity=120, time=0),
    Message('note_off', channel=9, note=38, velocity=64, time=383),
    Message('note_off', channel=9, note=49, velocity=64, time=0),
    Message('note_off', channel=9, note=36, velocity=64, time=0),
    Message('note_on', channel=9, note=36, velocity=120, time=1),
    Message('note_on', channel=9, note=45, velocity=120, time=192),
    Message('note_on', channel=9, note=41, velocity=120, time=0),
    Message('note_off', channel=9, note=41, velocity=64, time=191),
    Message('note_off', channel=9, note=45, velocity=64, time=0),
    Message('note_off', channel=9, note=36, velocity=64, time=0),
    Message('note_on', channel=9, note=36, velocity=120, time=1),
    Message('note_on', channel=9, note=45, velocity=120, time=192),
    Message('note_on', channel=9, note=41, velocity=120, time=0),
    Message('note_off', channel=9, note=36, velocity=64, time=191),
    Message('note_off', channel=9, note=41, velocity=64, time=1),
    Message('note_off', channel=9, note=45, velocity=64, time=0),
    Message('note_on', channel=9, note=36, velocity=120, time=0),
    Message('note_on', channel=9, note=41, velocity=120, time=0),
    Message('note_off', channel=9, note=41, velocity=64, time=192),
    Message('note_on', channel=9, note=41, velocity=120, time=0),
    Message('note_off', channel=9, note=36, velocity=64, time=191),
    Message('note_off', channel=9, note=41, velocity=64, time=1),
    Message('note_on', channel=9, note=36, velocity=120, time=0),
    Message('note_on', channel=9, note=41, velocity=120, time=0),
    Message('note_off', channel=9, note=41, velocity=64, time=192),
    Message('note_on', channel=9, note=49, velocity=60, time=0),
    Message('note_on', channel=9, note=38, velocity=120, time=0),
    Message('note_off', channel=9, note=38, velocity=64, time=191),
    Message('note_off', channel=9, note=49, velocity=64, time=0),
    Message('note_off', channel=9, note=36, velocity=64, time=0),
    Message('note_on', channel=9, note=36, velocity=120, time=1),
    Message('note_on', channel=9, note=49, velocity=60, time=192),
    Message('note_on', channel=9, note=38, velocity=120, time=0),
    Message('note_off', channel=9, note=38, velocity=64, time=191),
    Message('note_off', channel=9, note=49, velocity=64, time=0),
    Message('note_off', channel=9, note=36, velocity=64, time=0),
    Message('note_on', channel=9, note=36, velocity=120, time=1),
    Message('note_on', channel=9, note=49, velocity=60, time=192),
    Message('note_on', channel=9, note=38, velocity=120, time=0),
    Message('note_off', channel=9, note=38, velocity=64, time=191),
    Message('note_off', channel=9, note=49, velocity=64, time=0),
    Message('note_off', channel=9, note=36, velocity=64, time=0),
    Message('note_on', channel=9, note=36, velocity=120, time=1),
    Message('note_on', channel=9, note=41, velocity=120, time=0),
    Message('note_off', channel=9, note=41, velocity=64, time=192),
    Message('note_on', channel=9, note=41, velocity=120, time=0),
    Message('note_off', channel=9, note=36, velocity=64, time=191),
    Message('note_off', channel=9, note=41, velocity=64, time=1),
    Message('note_on', channel=9, note=45, velocity=120, time=0),
    Message('note_on', channel=9, note=36, velocity=120, time=0),
    Message('note_on', channel=9, note=41, velocity=120, time=0),
    Message('note_off', channel=9, note=41, velocity=64, time=192),
    Message('note_off', channel=9, note=45, velocity=64, time=0),
    Message('note_on', channel=9, note=41, velocity=120, time=0),
    Message('note_off', channel=9, note=41, velocity=64, time=191),
    Message('note_off', channel=9, note=36, velocity=64, time=0),
    Message('note_on', channel=9, note=36, velocity=120, time=1),
    Message('note_on', channel=9, note=41, velocity=120, time=0),
    Message('note_off', channel=9, note=41, velocity=64, time=192),
    Message('note_on', channel=9, note=41, velocity=120, time=0),
    Message('note_off', channel=9, note=36, velocity=64, time=191),
    Message('note_off', channel=9, note=41, velocity=64, time=1),
    Message('note_on', channel=9, note=45, velocity=120, time=0),
    Message('note_on', channel=9, note=36, velocity=120, time=0),
    Message('note_on', channel=9, note=41, velocity=120, time=0),
    Message('note_off', channel=9, note=41, velocity=64, time=192),
    Message('note_off', channel=9, note=45, velocity=64, time=0),
    Message('note_on', channel=9, note=43, velocity=120, time=0),
    Message('note_on', channel=9, note=41, velocity=120, time=0),
    Message('note_off', channel=9, note=41, velocity=64, time=191),
    Message('note_off', channel=9, note=43, velocity=64, time=0),
    Message('note_off', channel=9, note=36, velocity=64, time=0),
    Message('note_on', channel=9, note=36, velocity=120, time=1),
    Message('note_on', channel=9, note=41, velocity=120, time=0),
    Message('note_off', channel=9, note=41, velocity=64, time=192),
    Message('note_on', channel=9, note=41, velocity=120, time=0),
    Message('note_off', channel=9, note=41, velocity=64, time=191),
    Message('note_off', channel=9, note=36, velocity=64, time=0),
    Message('note_on', channel=9, note=49, velocity=60, time=1),
    Message('note_on', channel=9, note=38, velocity=120, time=0),
    Message('note_on', channel=9, note=36, velocity=120, time=0),
    Message('note_off', channel=9, note=36, velocity=64, time=383),
    Message('note_off', channel=9, note=38, velocity=64, time=0),
    Message('note_off', channel=9, note=49, velocity=64, time=0),
    Message('note_on', channel=9, note=36, velocity=120, time=1),
    Message('note_on', channel=9, note=49, velocity=60, time=192),
    Message('note_on', channel=9, note=38, velocity=120, time=0),
    Message('note_off', channel=9, note=38, velocity=64, time=191),
    Message('note_off', channel=9, note=49, velocity=64, time=0),
    Message('note_off', channel=9, note=36, velocity=64, time=0),
    Message('note_on', channel=9, note=36, velocity=120, time=1),
    Message('note_on', channel=9, note=49, velocity=60, time=192),
    Message('note_on', channel=9, note=38, velocity=120, time=0),
    Message('note_off', channel=9, note=38, velocity=64, time=191),
    Message('note_off', channel=9, note=49, velocity=64, time=0),
    Message('note_off', channel=9, note=36, velocity=64, time=0),
    Message('note_on', channel=9, note=36, velocity=120, time=1),
    Message('note_on', channel=9, note=41, velocity=120, time=0),
    Message('note_off', channel=9, note=41, velocity=64, time=192),
    Message('note_on', channel=9, note=41, velocity=120, time=0),
    Message('note_off', channel=9, note=36, velocity=64, time=191),
    Message('note_off', channel=9, note=41, velocity=64, time=1),
    Message('note_on', channel=9, note=36, velocity=120, time=0),
    Message('note_on', channel=9, note=49, velocity=60, time=0),
    Message('note_on', channel=9, note=38, velocity=120, time=0),
    Message('note_off', channel=9, note=38, velocity=64, time=383),
    Message('note_off', channel=9, note=49, velocity=64, time=0),
    Message('note_off', channel=9, note=36, velocity=64, time=0),
    Message('note_on', channel=9, note=36, velocity=120, time=1),
    Message('note_on', channel=9, note=41, velocity=120, time=0),
    Message('note_off', channel=9, note=41, velocity=64, time=192),
    Message('note_on', channel=9, note=41, velocity=120, time=0),
    Message('note_off', channel=9, note=36, velocity=64, time=191),
    Message('note_off', channel=9, note=41, velocity=64, time=1),
    Message('note_on', channel=9, note=36, velocity=120, time=0),
    Message('note_on', channel=9, note=41, velocity=120, time=0),
    Message('note_off', channel=9, note=41, velocity=64, time=192),
    Message('note_on', channel=9, note=38, velocity=120, time=0),
    Message('note_on', channel=9, note=41, velocity=120, time=0),
    Message('note_off', channel=9, note=41, velocity=64, time=191),
    Message('note_off', channel=9, note=38, velocity=64, time=0),
    Message('note_off', channel=9, note=36, velocity=64, time=0),
    Message('note_on', channel=9, note=36, velocity=120, time=1),
    Message('note_on', channel=9, note=41, velocity=120, time=0),
    Message('note_off', channel=9, note=41, velocity=64, time=192),
    Message('note_on', channel=9, note=41, velocity=118, time=0),
    Message('note_off', channel=9, note=36, velocity=64, time=191),
    Message('note_off', channel=9, note=41, velocity=64, time=1),
    Message('note_on', channel=9, note=36, velocity=117, time=0),
    Message('note_on', channel=9, note=41, velocity=117, time=0),
    Message('note_off', channel=9, note=41, velocity=64, time=192),
    Message('note_on', channel=9, note=38, velocity=115, time=0),
    Message('note_on', channel=9, note=41, velocity=115, time=0),
    Message('note_off', channel=9, note=41, velocity=64, time=191),
    Message('note_off', channel=9, note=38, velocity=64, time=0),
    Message('note_off', channel=9, note=36, velocity=64, time=0),
    Message('note_on', channel=9, note=36, velocity=113, time=1),
    Message('note_on', channel=9, note=41, velocity=113, time=0),
    Message('note_off', channel=9, note=41, velocity=64, time=192),
    Message('note_on', channel=9, note=38, velocity=111, time=0),
    Message('note_on', channel=9, note=38, velocity=111, time=9),
    Message('note_off', channel=9, note=36, velocity=64, time=182),
    Message('note_off', channel=9, note=38, velocity=64, time=1),
    Message('note_on', channel=9, note=36, velocity=109, time=0),
    Message('note_on', channel=9, note=41, velocity=109, time=0),
    Message('note_off', channel=9, note=38, velocity=64, time=8),
    Message('note_off', channel=9, note=41, velocity=64, time=184),
    Message('note_on', channel=9, note=41, velocity=107, time=0),
    Message('note_off', channel=9, note=41, velocity=64, time=191),
    Message('note_off', channel=9, note=36, velocity=64, time=0),
    Message('note_on', channel=9, note=36, velocity=105, time=1),
    Message('note_on', channel=9, note=41, velocity=105, time=0),
    Message('note_off', channel=9, note=41, velocity=64, time=192),
    Message('note_on', channel=9, note=41, velocity=103, time=0),
    Message('note_off', channel=9, note=36, velocity=64, time=191),
    Message('note_off', channel=9, note=41, velocity=64, time=1),
    Message('note_on', channel=9, note=38, velocity=102, time=0),
    Message('note_on', channel=9, note=36, velocity=102, time=0),
    Message('note_on', channel=9, note=49, velocity=51, time=0),
    Message('note_off', channel=9, note=49, velocity=64, time=383),
    Message('note_off', channel=9, note=36, velocity=64, time=0),
    Message('note_off', channel=9, note=38, velocity=64, time=0),
    Message('note_on', channel=9, note=41, velocity=98, time=1),
    Message('note_on', channel=9, note=36, velocity=98, time=0),
    Message('note_off', channel=9, note=36, velocity=64, time=383),
    Message('note_off', channel=9, note=41, velocity=64, time=0),
    Message('note_on', channel=9, note=36, velocity=94, time=1),
    Message('note_on', channel=9, note=45, velocity=94, time=0),
    Message('note_on', channel=9, note=41, velocity=94, time=0),
    Message('note_off', channel=9, note=41, velocity=64, time=192),
    Message('note_off', channel=9, note=45, velocity=64, time=0),
    Message('note_on', channel=9, note=43, velocity=92, time=0),
    Message('note_on', channel=9, note=41, velocity=92, time=0),
    Message('note_off', channel=9, note=41, velocity=64, time=191),
    Message('note_off', channel=9, note=43, velocity=64, time=0),
    Message('note_off', channel=9, note=36, velocity=64, time=0),
    Message('note_on', channel=9, note=36, velocity=90, time=1),
    Message('note_on', channel=9, note=41, velocity=90, time=0),
    Message('note_off', channel=9, note=41, velocity=64, time=192),
    Message('note_on', channel=9, note=41, velocity=88, time=0),
    Message('note_off', channel=9, note=36, velocity=64, time=191),
    Message('note_off', channel=9, note=41, velocity=64, time=1),
    Message('note_on', channel=9, note=36, velocity=87, time=0),
    Message('note_on', channel=9, note=38, velocity=87, time=0),
    Message('note_on', channel=9, note=49, velocity=44, time=0),
    Message('note_off', channel=9, note=49, velocity=64, time=383),
    Message('note_off', channel=9, note=38, velocity=64, time=0),
    Message('note_off', channel=9, note=36, velocity=64, time=0),
    Message('note_on', channel=9, note=36, velocity=83, time=1),
    Message('note_on', channel=9, note=41, velocity=83, time=0),
    Message('note_off', channel=9, note=41, velocity=64, time=383),
    Message('note_off', channel=9, note=36, velocity=64, time=0),
    Message('note_on', channel=9, note=36, velocity=79, time=1),
    Message('note_on', channel=9, note=45, velocity=79, time=0),
    Message('note_on', channel=9, note=41, velocity=79, time=0),
    Message('note_off', channel=9, note=41, velocity=64, time=192),
    Message('note_off', channel=9, note=45, velocity=64, time=0),
    Message('note_on', channel=9, note=43, velocity=77, time=0),
    Message('note_on', channel=9, note=41, velocity=77, time=0),
    Message('note_off', channel=9, note=41, velocity=64, time=191),
    Message('note_off', channel=9, note=43, velocity=64, time=0),
    Message('note_off', channel=9, note=36, velocity=64, time=0),
    Message('note_on', channel=9, note=36, velocity=75, time=1),
    Message('note_on', channel=9, note=41, velocity=75, time=0),
    Message('note_off', channel=9, note=41, velocity=64, time=192),
    Message('note_on', channel=9, note=41, velocity=73, time=0),
    Message('note_off', channel=9, note=36, velocity=64, time=191),
    Message('note_off', channel=9, note=41, velocity=64, time=1),
    Message('note_on', channel=9, note=36, velocity=72, time=0),
    Message('note_on', channel=9, note=38, velocity=72, time=0),
    Message('note_on', channel=9, note=49, velocity=36, time=0),
    Message('note_off', channel=9, note=49, velocity=64, time=383),
    Message('note_off', channel=9, note=38, velocity=64, time=0),
    Message('note_off', channel=9, note=36, velocity=64, time=0),
    Message('note_on', channel=9, note=41, velocity=68, time=1),
    Message('note_on', channel=9, note=36, velocity=68, time=0),
    Message('note_off', channel=9, note=41, velocity=64, time=191),
    Message('note_on', channel=9, note=38, velocity=66, time=1),
    Message('note_on', channel=9, note=38, velocity=66, time=9),
    Message('note_off', channel=9, note=38, velocity=64, time=182),
    Message('note_off', channel=9, note=36, velocity=64, time=0),
    Message('note_on', channel=9, note=38, velocity=64, time=1),
    Message('note_on', channel=9, note=36, velocity=64, time=0),
    Message('note_off', channel=9, note=38, velocity=64, time=8),
    Message('note_on', channel=9, note=38, velocity=64, time=1),
    Message('note_off', channel=9, note=38, velocity=64, time=182),
    Message('note_on', channel=9, note=38, velocity=62, time=1),
    Message('note_off', channel=9, note=38, velocity=64, time=8),
    Message('note_on', channel=9, note=38, velocity=62, time=1),
    Message('note_off', channel=9, note=38, velocity=64, time=182),
    Message('note_off', channel=9, note=36, velocity=64, time=0),
    Message('note_on', channel=9, note=36, velocity=60, time=1),
    Message('note_on', channel=9, note=41, velocity=60, time=0),
    Message('note_off', channel=9, note=38, velocity=64, time=8),
    Message('note_off', channel=9, note=41, velocity=64, time=184),
    Message('note_on', channel=9, note=41, velocity=58, time=0),
    Message('note_off', channel=9, note=41, velocity=64, time=191),
    Message('note_off', channel=9, note=36, velocity=64, time=0),
    Message('note_on', channel=9, note=36, velocity=57, time=1),
    Message('note_on', channel=9, note=38, velocity=57, time=0),
    Message('note_on', channel=9, note=49, velocity=29, time=0),
    Message('note_off', channel=9, note=49, velocity=64, time=383),
    Message('note_off', channel=9, note=38, velocity=64, time=0),
    Message('note_off', channel=9, note=36, velocity=64, time=0),
    Message('note_on', channel=9, note=41, velocity=53, time=1),
    Message('note_on', channel=9, note=36, velocity=53, time=0),
    Message('note_off', channel=9, note=41, velocity=64, time=191),
    Message('note_on', channel=9, note=38, velocity=51, time=1),
    Message('note_on', channel=9, note=49, velocity=26, time=0),
    Message('note_off', channel=9, note=49, velocity=64, time=191),
    Message('note_off', channel=9, note=38, velocity=64, time=0),
    Message('note_off', channel=9, note=36, velocity=64, time=0),
    Message('note_on', channel=9, note=36, velocity=49, time=1),
    Message('note_on', channel=9, note=38, velocity=47, time=192),
    Message('note_on', channel=9, note=49, velocity=24, time=0),
    Message('note_off', channel=9, note=49, velocity=64, time=191),
    Message('note_off', channel=9, note=38, velocity=64, time=0),
    Message('note_off', channel=9, note=36, velocity=64, time=0),
    Message('note_on', channel=9, note=36, velocity=45, time=1),
    Message('note_on', channel=9, note=41, velocity=45, time=0),
    Message('note_off', channel=9, note=41, velocity=64, time=192),
    Message('note_on', channel=9, note=41, velocity=44, time=0),
    Message('note_off', channel=9, note=41, velocity=64, time=191),
    Message('note_off', channel=9, note=36, velocity=64, time=0),
    Message('note_on', channel=9, note=36, velocity=42, time=1),
    Message('note_on', channel=9, note=38, velocity=42, time=0),
    Message('note_on', channel=9, note=49, velocity=21, time=0),
    Message('note_off', channel=9, note=49, velocity=64, time=383),
    Message('note_off', channel=9, note=38, velocity=64, time=0),
    Message('note_off', channel=9, note=36, velocity=64, time=0),
    Message('note_on', channel=9, note=36, velocity=38, time=1),
    Message('note_on', channel=9, note=41, velocity=38, time=0),
    Message('note_off', channel=9, note=41, velocity=64, time=383),
    Message('note_off', channel=9, note=36, velocity=64, time=0),
    Message('note_on', channel=9, note=36, velocity=34, time=1),
    Message('note_on', channel=9, note=38, velocity=32, time=192),
    Message('note_on', channel=9, note=49, velocity=17, time=0),
    Message('note_off', channel=9, note=49, velocity=64, time=191),
    Message('note_off', channel=9, note=38, velocity=64, time=0),
    Message('note_off', channel=9, note=36, velocity=64, time=0),
    Message('note_on', channel=9, note=36, velocity=30, time=1),
    Message('note_on', channel=9, note=38, velocity=29, time=192),
    Message('note_on', channel=9, note=49, velocity=15, time=0),
    Message('note_off', channel=9, note=49, velocity=64, time=191),
    Message('note_off', channel=9, note=38, velocity=64, time=0),
    Message('note_off', channel=9, note=36, velocity=64, time=0),
    Message('note_on', channel=9, note=36, velocity=27, time=1),
    Message('note_on', channel=9, note=38, velocity=25, time=192),
    Message('note_on', channel=9, note=49, velocity=13, time=0),
    Message('note_off', channel=9, note=49, velocity=64, time=191),
    Message('note_off', channel=9, note=38, velocity=64, time=0),
    Message('note_off', channel=9, note=36, velocity=64, time=0),
    Message('note_on', channel=9, note=36, velocity=23, time=1),
    Message('note_on', channel=9, note=41, velocity=23, time=0),
    Message('note_off', channel=9, note=36, velocity=64, time=383),
    Message('note_off', channel=9, note=41, velocity=64, time=1),
    Message('note_on', channel=9, note=36, velocity=19, time=0),
    Message('note_on', channel=9, note=41, velocity=19, time=0),
    Message('note_off', channel=9, note=41, velocity=64, time=192),
    Message('note_on', channel=9, note=38, velocity=17, time=0),
    Message('note_on', channel=9, note=41, velocity=17, time=0),
    Message('note_off', channel=9, note=41, velocity=64, time=191),
    Message('note_off', channel=9, note=38, velocity=64, time=0),
    Message('note_off', channel=9, note=36, velocity=64, time=0),
    Message('note_on', channel=9, note=36, velocity=15, time=1),
    Message('note_on', channel=9, note=41, velocity=15, time=0),
    Message('note_off', channel=9, note=41, velocity=64, time=192),
    Message('note_on', channel=9, note=41, velocity=14, time=0),
    Message('note_off', channel=9, note=36, velocity=64, time=191),
    Message('note_off', channel=9, note=41, velocity=64, time=1),
    Message('note_on', channel=9, note=36, velocity=12, time=0),
    Message('note_on', channel=9, note=41, velocity=12, time=0),
    Message('note_off', channel=9, note=41, velocity=64, time=192),
    Message('note_on', channel=9, note=38, velocity=10, time=0),
    Message('note_on', channel=9, note=41, velocity=10, time=0),
    Message('note_off', channel=9, note=41, velocity=64, time=191),
    Message('note_off', channel=9, note=38, velocity=64, time=0),
    Message('note_off', channel=9, note=36, velocity=64, time=0),
    Message('note_on', channel=9, note=36, velocity=8, time=1),
    Message('note_on', channel=9, note=41, velocity=8, time=0),
    Message('note_off', channel=9, note=41, velocity=64, time=192),
    Message('note_on', channel=9, note=38, velocity=6, time=0),
    Message('note_off', channel=9, note=38, velocity=64, time=96),
    Message('note_on', channel=9, note=38, velocity=5, time=0),
    Message('note_off', channel=9, note=36, velocity=64, time=95),
    Message('note_off', channel=9, note=38, velocity=64, time=1),
    Message('note_on', channel=9, note=47, velocity=4, time=0),
    Message('note_on', channel=9, note=36, velocity=4, time=0),
    Message('note_off', channel=9, note=47, velocity=64, time=96),
    Message('note_on', channel=9, note=47, velocity=3, time=0),
    Message('note_off', channel=9, note=47, velocity=64, time=96),
    Message('note_on', channel=9, note=38, velocity=2, time=0),
    Message('note_off', channel=9, note=38, velocity=64, time=96),
    Message('note_on', channel=9, note=38, velocity=1, time=0),
    Message('note_off', channel=9, note=36, velocity=64, time=95),
    Message('note_off', channel=9, note=38, velocity=64, time=1),
    MetaMessage('end_of_track', time=0)])
])
