MidiFile(type=1, ticks_per_beat=192, tracks=[
  MidiTrack([
    MetaMessage('time_signature', numerator=4, denominator=4, clocks_per_click=24, notated_32nd_notes_per_beat=8, time=0),
    MetaMessage('set_tempo', tempo=461538, time=0),
    MetaMessage('key_signature', key='C', time=0),
    MetaMessage('text', text='Doc Was Here', time=0),
    MetaMessage('text', text=' ', time=0),
    MetaMessage('text', text=' ', time=0),
    MetaMessage('text', text=' ', time=0),
    MetaMessage('text', text=' ', time=0),
    MetaMessage('text', text=' ', time=0),
    MetaMessage('text', text=' ', time=0),
    MetaMessage('text', text=' ', time=0),
    MetaMessage('text', text=' ', time=0),
    MetaMessage('text', text=' ', time=0),
    MetaMessage('text', text=' ', time=0),
    MetaMessage('text', text=' ', time=0),
    MetaMessage('text', text=' ', time=0),
    MetaMessage('text', text=' ', time=0),
    MetaMessage('text', text=' ', time=0),
    MetaMessage('text', text=' ', time=0),
    MetaMessage('text', text=' ', time=0),
    MetaMessage('text', text=' ', time=0),
    MetaMessage('text', text=' ', time=0),
    MetaMessage('text', text=' ', time=0),
    MetaMessage('text', text=' ', time=0),
    MetaMessage('text', text=' ', time=0),
    MetaMessage('text', text=' ', time=0),
    MetaMessage('end_of_track', time=0)]),
  MidiTrack([
    MetaMessage('midi_port', port=0, time=0),
    MetaMessage('track_name', name='Bass                ', time=0),
    Message('program_change', channel=1, program=44, time=0),
    Message('control_change', channel=1, control=7, value=105, time=0),
    Message('control_change', channel=1, control=10, value=49, time=0),
    Message('control_change', channel=1, control=1, value=0, time=0),
    Message('control_change', channel=1, control=7, value=106, time=264),
    Message('control_change', channel=1, control=7, value=107, time=264),
    Message('control_change', channel=1, control=7, value=108, time=239),
    Message('note_on', channel=1, note=40, velocity=98, time=481),
    Message('note_off', channel=1, note=40, velocity=64, time=76),
    Message('note_on', channel=1, note=42, velocity=98, time=20),
    Message('note_off', channel=1, note=42, velocity=64, time=76),
    Message('note_on', channel=1, note=43, velocity=98, time=20),
    Message('note_off', channel=1, note=43, velocity=64, time=76),
    Message('note_on', channel=1, note=45, velocity=98, time=20),
    Message('note_off', channel=1, note=45, velocity=64, time=153),
    Message('note_on', channel=1, note=45, velocity=98, time=135),
    Message('note_off', channel=1, note=45, velocity=64, time=76),
    Message('note_on', channel=1, note=45, velocity=98, time=116),
    Message('note_off', channel=1, note=45, velocity=64, time=76),
    Message('note_on', channel=1, note=43, velocity=98, time=20),
    Message('note_off', channel=1, note=43, velocity=64, time=76),
    Message('note_on', channel=1, note=42, velocity=98, time=20),
    Message('note_off', channel=1, note=42, velocity=64, time=76),
    Message('note_on', channel=1, note=40, velocity=98, time=20),
    Message('note_off', channel=1, note=40, velocity=64, time=153),
    Message('note_on', channel=1, note=40, velocity=98, time=135),
    Message('note_off', channel=1, note=40, velocity=64, time=76),
    Message('note_on', channel=1, note=40, velocity=98, time=116),
    Message('note_off', channel=1, note=40, velocity=64, time=76),
    Message('note_on', channel=1, note=42, velocity=98, time=20),
    Message('note_off', channel=1, note=42, velocity=64, time=76),
    Message('note_on', channel=1, note=43, velocity=98, time=20),
    Message('note_off', channel=1, note=43, velocity=64, time=76),
    Message('note_on', channel=1, note=45, velocity=98, time=20),
    Message('note_off', channel=1, note=45, velocity=64, time=153),
    Message('note_on', channel=1, note=45, velocity=98, time=135),
    Message('note_off', channel=1, note=45, velocity=64, time=76),
    Message('note_on', channel=1, note=45, velocity=98, time=116),
    Message('note_off', channel=1, note=45, velocity=64, time=76),
    Message('note_on', channel=1, note=43, velocity=98, time=20),
    Message('note_off', channel=1, note=43, velocity=64, time=76),
    Message('note_on', channel=1, note=42, velocity=98, time=20),
    Message('note_off', channel=1, note=42, velocity=64, time=76),
    Message('note_on', channel=1, note=40, velocity=98, time=20),
    Message('note_off', channel=1, note=40, velocity=64, time=153),
    Message('note_on', channel=1, note=40, velocity=98, time=135),
    Message('note_off', channel=1, note=40, velocity=64, time=76),
    Message('note_on', channel=1, note=40, velocity=98, time=116),
    Message('note_off', channel=1, note=40, velocity=64, time=76),
    Message('note_on', channel=1, note=42, velocity=98, time=20),
    Message('note_off', channel=1, note=42, velocity=64, time=76),
    Message('note_on', channel=1, note=43, velocity=98, time=20),
    Message('note_off', channel=1, note=43, velocity=64, time=76),
    Message('note_on', channel=1, note=45, velocity=98, time=20),
    Message('note_off', channel=1, note=45, velocity=64, time=153),
    Message('note_on', channel=1, note=45, velocity=98, time=135),
    Message('note_off', channel=1, note=45, velocity=64, time=76),
    Message('note_on', channel=1, note=45, velocity=98, time=116),
    Message('note_off', channel=1, note=45, velocity=64, time=76),
    Message('note_on', channel=1, note=43, velocity=98, time=20),
    Message('note_off', channel=1, note=43, velocity=64, time=76),
    Message('note_on', channel=1, note=42, velocity=98, time=20),
    Message('note_off', channel=1, note=42, velocity=64, time=76),
    Message('note_on', channel=1, note=40, velocity=98, time=20),
    Message('note_off', channel=1, note=40, velocity=64, time=153),
    Message('note_on', channel=1, note=40, velocity=98, time=135),
    Message('note_off', channel=1, note=40, velocity=64, time=76),
    Message('note_on', channel=1, note=40, velocity=98, time=116),
    Message('note_off', channel=1, note=40, velocity=64, time=76),
    Message('note_on', channel=1, note=42, velocity=98, time=20),
    Message('note_off', channel=1, note=42, velocity=64, time=76),
    Message('note_on', channel=1, note=43, velocity=98, time=20),
    Message('note_off', channel=1, note=43, velocity=64, time=76),
    Message('note_on', channel=1, note=45, velocity=98, time=20),
    Message('note_off', channel=1, note=45, velocity=64, time=153),
    Message('note_on', channel=1, note=45, velocity=98, time=135),
    Message('note_off', channel=1, note=45, velocity=64, time=76),
    Message('note_on', channel=1, note=45, velocity=98, time=116),
    Message('note_off', channel=1, note=45, velocity=64, time=76),
    Message('note_on', channel=1, note=43, velocity=98, time=20),
    Message('note_off', channel=1, note=43, velocity=64, time=76),
    Message('note_on', channel=1, note=42, velocity=98, time=20),
    Message('note_off', channel=1, note=42, velocity=64, time=76),
    Message('note_on', channel=1, note=40, velocity=92, time=20),
    Message('note_off', channel=1, note=40, velocity=64, time=153),
    Message('note_on', channel=1, note=40, velocity=92, time=135),
    Message('note_off', channel=1, note=40, velocity=64, time=76),
    Message('note_on', channel=1, note=35, velocity=92, time=20),
    Message('note_off', channel=1, note=35, velocity=64, time=153),
    Message('note_on', channel=1, note=40, velocity=92, time=231),
    Message('note_off', channel=1, note=40, velocity=64, time=153),
    Message('note_on', channel=1, note=40, velocity=92, time=135),
    Message('note_off', channel=1, note=40, velocity=64, time=76),
    Message('note_on', channel=1, note=37, velocity=92, time=20),
    Message('note_off', channel=1, note=37, velocity=64, time=76),
    Message('note_on', channel=1, note=40, velocity=92, time=20),
    Message('note_off', channel=1, note=40, velocity=64, time=76),
    Message('note_on', channel=1, note=45, velocity=92, time=212),
    Message('note_off', channel=1, note=45, velocity=64, time=153),
    Message('note_on', channel=1, note=45, velocity=92, time=135),
    Message('note_off', channel=1, note=45, velocity=64, time=76),
    Message('note_on', channel=1, note=40, velocity=92, time=20),
    Message('note_off', channel=1, note=40, velocity=64, time=153),
    Message('note_on', channel=1, note=45, velocity=92, time=39),
    Message('note_off', channel=1, note=45, velocity=64, time=153),
    Message('note_on', channel=1, note=45, velocity=92, time=39),
    Message('note_off', channel=1, note=45, velocity=64, time=153),
    Message('note_on', channel=1, note=45, velocity=92, time=39),
    Message('note_off', channel=1, note=45, velocity=64, time=76),
    Message('note_on', channel=1, note=45, velocity=92, time=20),
    Message('note_off', channel=1, note=45, velocity=64, time=76),
    Message('note_on', channel=1, note=40, velocity=92, time=20),
    Message('note_off', channel=1, note=40, velocity=64, time=76),
    Message('note_on', channel=1, note=45, velocity=92, time=20),
    Message('note_off', channel=1, note=45, velocity=64, time=76),
    Message('note_on', channel=1, note=40, velocity=92, time=212),
    Message('note_off', channel=1, note=40, velocity=64, time=153),
    Message('note_on', channel=1, note=40, velocity=92, time=135),
    Message('note_off', channel=1, note=40, velocity=64, time=76),
    Message('note_on', channel=1, note=35, velocity=92, time=20),
    Message('note_off', channel=1, note=35, velocity=64, time=153),
    Message('note_on', channel=1, note=40, velocity=92, time=231),
    Message('note_off', channel=1, note=40, velocity=64, time=153),
    Message('note_on', channel=1, note=40, velocity=92, time=135),
    Message('note_off', channel=1, note=40, velocity=64, time=76),
    Message('note_on', channel=1, note=35, velocity=92, time=20),
    Message('note_off', channel=1, note=35, velocity=64, time=153),
    Message('note_on', channel=1, note=45, velocity=92, time=231),
    Message('note_off', channel=1, note=45, velocity=64, time=153),
    Message('note_on', channel=1, note=45, velocity=92, time=135),
    Message('note_off', channel=1, note=45, velocity=64, time=76),
    Message('note_on', channel=1, note=40, velocity=92, time=20),
    Message('note_off', channel=1, note=40, velocity=64, time=76),
    Message('note_on', channel=1, note=45, velocity=92, time=20),
    Message('note_off', channel=1, note=45, velocity=64, time=153),
    Message('note_on', channel=1, note=45, velocity=92, time=39),
    Message('note_off', channel=1, note=45, velocity=64, time=76),
    Message('note_on', channel=1, note=45, velocity=92, time=20),
    Message('note_off', channel=1, note=45, velocity=64, time=153),
    Message('note_on', channel=1, note=45, velocity=92, time=135),
    Message('note_off', channel=1, note=45, velocity=64, time=76),
    Message('note_on', channel=1, note=40, velocity=92, time=20),
    Message('note_off', channel=1, note=40, velocity=64, time=76),
    Message('note_on', channel=1, note=45, velocity=92, time=20),
    Message('note_off', channel=1, note=45, velocity=64, time=76),
    Message('note_on', channel=1, note=40, velocity=92, time=116),
    Message('note_off', channel=1, note=40, velocity=64, time=76),
    Message('note_on', channel=1, note=40, velocity=92, time=20),
    Message('note_off', channel=1, note=40, velocity=64, time=153),
    Message('note_on', channel=1, note=40, velocity=92, time=39),
    Message('note_off', channel=1, note=40, velocity=64, time=76),
    Message('note_on', channel=1, note=40, velocity=92, time=20),
    Message('note_off', channel=1, note=40, velocity=64, time=76),
    Message('note_on', channel=1, note=37, velocity=92, time=20),
    Message('note_off', channel=1, note=37, velocity=64, time=153),
    Message('note_on', channel=1, note=40, velocity=92, time=39),
    Message('note_off', channel=1, note=40, velocity=64, time=153),
    Message('note_on', channel=1, note=47, velocity=92, time=39),
    Message('note_off', channel=1, note=47, velocity=64, time=76),
    Message('note_on', channel=1, note=47, velocity=92, time=20),
    Message('note_off', channel=1, note=47, velocity=64, time=76),
    Message('note_on', channel=1, note=47, velocity=92, time=20),
    Message('note_off', channel=1, note=47, velocity=64, time=76),
    Message('note_on', channel=1, note=47, velocity=92, time=20),
    Message('note_off', channel=1, note=47, velocity=64, time=172),
    Message('note_on', channel=1, note=47, velocity=92, time=20),
    Message('note_off', channel=1, note=47, velocity=64, time=230),
    Message('note_on', channel=1, note=40, velocity=92, time=58),
    Message('note_off', channel=1, note=40, velocity=64, time=153),
    Message('note_on', channel=1, note=40, velocity=92, time=135),
    Message('note_off', channel=1, note=40, velocity=64, time=76),
    Message('note_on', channel=1, note=40, velocity=92, time=20),
    Message('note_off', channel=1, note=40, velocity=64, time=76),
    Message('note_on', channel=1, note=40, velocity=92, time=20),
    Message('note_off', channel=1, note=40, velocity=64, time=153),
    Message('note_on', channel=1, note=40, velocity=92, time=39),
    Message('note_off', channel=1, note=40, velocity=64, time=76),
    Message('note_on', channel=1, note=45, velocity=92, time=20),
    Message('note_off', channel=1, note=45, velocity=64, time=153),
    Message('note_on', channel=1, note=45, velocity=92, time=39),
    Message('note_off', channel=1, note=45, velocity=64, time=76),
    Message('note_on', channel=1, note=45, velocity=92, time=20),
    Message('note_off', channel=1, note=45, velocity=64, time=76),
    Message('note_on', channel=1, note=40, velocity=92, time=20),
    Message('note_off', channel=1, note=40, velocity=64, time=76),
    Message('note_on', channel=1, note=45, velocity=92, time=20),
    Message('note_off', channel=1, note=45, velocity=64, time=76),
    Message('note_on', channel=1, note=40, velocity=92, time=212),
    Message('note_off', channel=1, note=40, velocity=64, time=153),
    Message('note_on', channel=1, note=40, velocity=92, time=135),
    Message('note_off', channel=1, note=40, velocity=64, time=76),
    Message('note_on', channel=1, note=40, velocity=92, time=116),
    Message('note_off', channel=1, note=40, velocity=64, time=76),
    Message('note_on', channel=1, note=42, velocity=92, time=20),
    Message('note_off', channel=1, note=42, velocity=64, time=76),
    Message('note_on', channel=1, note=43, velocity=92, time=20),
    Message('note_off', channel=1, note=43, velocity=64, time=76),
    Message('note_on', channel=1, note=45, velocity=92, time=20),
    Message('note_off', channel=1, note=45, velocity=64, time=153),
    Message('note_on', channel=1, note=45, velocity=92, time=135),
    Message('note_off', channel=1, note=45, velocity=64, time=172),
    Message('note_on', channel=1, note=45, velocity=92, time=20),
    Message('note_off', channel=1, note=45, velocity=64, time=76),
    Message('note_on', channel=1, note=43, velocity=92, time=20),
    Message('note_off', channel=1, note=43, velocity=64, time=76),
    Message('note_on', channel=1, note=42, velocity=92, time=20),
    Message('note_off', channel=1, note=42, velocity=64, time=76),
    Message('note_on', channel=1, note=40, velocity=92, time=20),
    Message('note_off', channel=1, note=40, velocity=64, time=153),
    Message('note_on', channel=1, note=40, velocity=92, time=135),
    Message('note_off', channel=1, note=40, velocity=64, time=76),
    Message('note_on', channel=1, note=40, velocity=92, time=116),
    Message('note_off', channel=1, note=40, velocity=64, time=76),
    Message('note_on', channel=1, note=42, velocity=92, time=20),
    Message('note_off', channel=1, note=42, velocity=64, time=76),
    Message('note_on', channel=1, note=43, velocity=92, time=20),
    Message('note_off', channel=1, note=43, velocity=64, time=76),
    Message('note_on', channel=1, note=45, velocity=92, time=20),
    Message('note_off', channel=1, note=45, velocity=64, time=153),
    Message('note_on', channel=1, note=45, velocity=92, time=135),
    Message('note_off', channel=1, note=45, velocity=64, time=172),
    Message('note_on', channel=1, note=45, velocity=92, time=20),
    Message('note_off', channel=1, note=45, velocity=64, time=76),
    Message('note_on', channel=1, note=43, velocity=92, time=20),
    Message('note_off', channel=1, note=43, velocity=64, time=76),
    Message('note_on', channel=1, note=42, velocity=92, time=20),
    Message('note_off', channel=1, note=42, velocity=64, time=76),
    Message('note_on', channel=1, note=40, velocity=92, time=20),
    Message('note_off', channel=1, note=40, velocity=64, time=153),
    Message('note_on', channel=1, note=40, velocity=92, time=135),
    Message('note_off', channel=1, note=40, velocity=64, time=76),
    Message('note_on', channel=1, note=40, velocity=92, time=116),
    Message('note_off', channel=1, note=40, velocity=64, time=76),
    Message('note_on', channel=1, note=42, velocity=92, time=20),
    Message('note_off', channel=1, note=42, velocity=64, time=76),
    Message('note_on', channel=1, note=43, velocity=92, time=20),
    Message('note_off', channel=1, note=43, velocity=64, time=76),
    Message('note_on', channel=1, note=45, velocity=92, time=20),
    Message('note_off', channel=1, note=45, velocity=64, time=153),
    Message('note_on', channel=1, note=45, velocity=92, time=135),
    Message('note_off', channel=1, note=45, velocity=64, time=172),
    Message('note_on', channel=1, note=45, velocity=92, time=20),
    Message('note_off', channel=1, note=45, velocity=64, time=76),
    Message('note_on', channel=1, note=43, velocity=92, time=20),
    Message('note_off', channel=1, note=43, velocity=64, time=76),
    Message('note_on', channel=1, note=42, velocity=92, time=20),
    Message('note_off', channel=1, note=42, velocity=64, time=76),
    Message('note_on', channel=1, note=40, velocity=92, time=20),
    Message('note_off', channel=1, note=40, velocity=64, time=153),
    Message('note_on', channel=1, note=40, velocity=92, time=135),
    Message('note_off', channel=1, note=40, velocity=64, time=76),
    Message('note_on', channel=1, note=40, velocity=92, time=116),
    Message('note_off', channel=1, note=40, velocity=64, time=76),
    Message('note_on', channel=1, note=42, velocity=92, time=20),
    Message('note_off', channel=1, note=42, velocity=64, time=76),
    Message('note_on', channel=1, note=43, velocity=92, time=20),
    Message('note_off', channel=1, note=43, velocity=64, time=76),
    Message('note_on', channel=1, note=45, velocity=92, time=20),
    Message('note_off', channel=1, note=45, velocity=64, time=153),
    Message('note_on', channel=1, note=45, velocity=92, time=135),
    Message('note_off', channel=1, note=45, velocity=64, time=172),
    Message('note_on', channel=1, note=45, velocity=92, time=20),
    Message('note_off', channel=1, note=45, velocity=64, time=76),
    Message('note_on', channel=1, note=43, velocity=92, time=20),
    Message('note_off', channel=1, note=43, velocity=64, time=76),
    Message('note_on', channel=1, note=42, velocity=92, time=20),
    Message('note_off', channel=1, note=42, velocity=64, time=76),
    Message('note_on', channel=1, note=40, velocity=92, time=20),
    Message('note_off', channel=1, note=40, velocity=64, time=153),
    Message('note_on', channel=1, note=40, velocity=92, time=135),
    Message('note_off', channel=1, note=40, velocity=64, time=76),
    Message('note_on', channel=1, note=40, velocity=92, time=116),
    Message('note_off', channel=1, note=40, velocity=64, time=76),
    Message('note_on', channel=1, note=42, velocity=92, time=20),
    Message('note_off', channel=1, note=42, velocity=64, time=76),
    Message('note_on', channel=1, note=43, velocity=92, time=20),
    Message('note_off', channel=1, note=43, velocity=64, time=76),
    Message('note_on', channel=1, note=45, velocity=92, time=20),
    Message('note_off', channel=1, note=45, velocity=64, time=153),
    Message('note_on', channel=1, note=45, velocity=92, time=135),
    Message('note_off', channel=1, note=45, velocity=64, time=172),
    Message('note_on', channel=1, note=45, velocity=92, time=20),
    Message('note_off', channel=1, note=45, velocity=64, time=76),
    Message('note_on', channel=1, note=43, velocity=92, time=20),
    Message('note_off', channel=1, note=43, velocity=64, time=76),
    Message('note_on', channel=1, note=42, velocity=92, time=20),
    Message('note_off', channel=1, note=42, velocity=64, time=76),
    Message('note_on', channel=1, note=40, velocity=92, time=20),
    Message('note_off', channel=1, note=40, velocity=64, time=153),
    Message('note_on', channel=1, note=40, velocity=92, time=135),
    Message('note_off', channel=1, note=40, velocity=64, time=76),
    Message('note_on', channel=1, note=40, velocity=92, time=116),
    Message('note_off', channel=1, note=40, velocity=64, time=76),
    Message('note_on', channel=1, note=42, velocity=92, time=20),
    Message('note_off', channel=1, note=42, velocity=64, time=76),
    Message('note_on', channel=1, note=43, velocity=92, time=20),
    Message('note_off', channel=1, note=43, velocity=64, time=76),
    Message('note_on', channel=1, note=45, velocity=92, time=20),
    Message('note_off', channel=1, note=45, velocity=64, time=153),
    Message('note_on', channel=1, note=45, velocity=92, time=135),
    Message('note_off', channel=1, note=45, velocity=64, time=172),
    Message('note_on', channel=1, note=45, velocity=92, time=20),
    Message('note_off', channel=1, note=45, velocity=64, time=76),
    Message('note_on', channel=1, note=43, velocity=92, time=20),
    Message('note_off', channel=1, note=43, velocity=64, time=76),
    Message('note_on', channel=1, note=42, velocity=92, time=20),
    Message('note_off', channel=1, note=42, velocity=64, time=76),
    Message('note_on', channel=1, note=40, velocity=92, time=20),
    Message('note_off', channel=1, note=40, velocity=64, time=153),
    Message('note_on', channel=1, note=40, velocity=92, time=135),
    Message('note_off', channel=1, note=40, velocity=64, time=76),
    Message('note_on', channel=1, note=40, velocity=92, time=116),
    Message('note_off', channel=1, note=40, velocity=64, time=76),
    Message('note_on', channel=1, note=42, velocity=92, time=20),
    Message('note_off', channel=1, note=42, velocity=64, time=76),
    Message('note_on', channel=1, note=43, velocity=92, time=20),
    Message('note_off', channel=1, note=43, velocity=64, time=76),
    Message('note_on', channel=1, note=45, velocity=92, time=20),
    Message('note_off', channel=1, note=45, velocity=64, time=153),
    Message('note_on', channel=1, note=45, velocity=92, time=135),
    Message('note_off', channel=1, note=45, velocity=64, time=172),
    Message('note_on', channel=1, note=45, velocity=92, time=20),
    Message('note_off', channel=1, note=45, velocity=64, time=76),
    Message('note_on', channel=1, note=43, velocity=92, time=20),
    Message('note_off', channel=1, note=43, velocity=64, time=76),
    Message('note_on', channel=1, note=42, velocity=92, time=20),
    Message('note_off', channel=1, note=42, velocity=64, time=76),
    Message('note_on', channel=1, note=40, velocity=92, time=20),
    Message('note_off', channel=1, note=40, velocity=64, time=153),
    Message('note_on', channel=1, note=40, velocity=92, time=135),
    Message('note_off', channel=1, note=40, velocity=64, time=76),
    Message('note_on', channel=1, note=40, velocity=92, time=116),
    Message('note_off', channel=1, note=40, velocity=64, time=76),
    Message('note_on', channel=1, note=42, velocity=92, time=20),
    Message('note_off', channel=1, note=42, velocity=64, time=76),
    Message('note_on', channel=1, note=43, velocity=92, time=20),
    Message('note_off', channel=1, note=43, velocity=64, time=76),
    Message('note_on', channel=1, note=45, velocity=92, time=20),
    Message('note_off', channel=1, note=45, velocity=64, time=153),
    Message('note_on', channel=1, note=45, velocity=92, time=135),
    Message('note_off', channel=1, note=45, velocity=64, time=172),
    Message('note_on', channel=1, note=45, velocity=92, time=20),
    Message('note_off', channel=1, note=45, velocity=64, time=76),
    Message('note_on', channel=1, note=43, velocity=92, time=20),
    Message('note_off', channel=1, note=43, velocity=64, time=76),
    Message('note_on', channel=1, note=42, velocity=92, time=20),
    Message('note_off', channel=1, note=42, velocity=64, time=76),
    Message('note_on', channel=1, note=40, velocity=92, time=20),
    Message('note_off', channel=1, note=40, velocity=64, time=153),
    Message('note_on', channel=1, note=35, velocity=92, time=1095),
    Message('note_off', channel=1, note=35, velocity=64, time=76),
    Message('note_on', channel=1, note=37, velocity=92, time=20),
    Message('note_off', channel=1, note=37, velocity=64, time=76),
    Message('note_on', channel=1, note=38, velocity=92, time=20),
    Message('note_off', channel=1, note=38, velocity=64, time=76),
    Message('note_on', channel=1, note=40, velocity=92, time=20),
    Message('note_off', channel=1, note=40, velocity=64, time=153),
    Message('note_on', channel=1, note=40, velocity=92, time=135),
    Message('note_off', channel=1, note=40, velocity=64, time=76),
    Message('note_on', channel=1, note=40, velocity=92, time=116),
    Message('note_off', channel=1, note=40, velocity=64, time=76),
    Message('note_on', channel=1, note=42, velocity=92, time=20),
    Message('note_off', channel=1, note=42, velocity=64, time=76),
    Message('note_on', channel=1, note=43, velocity=92, time=20),
    Message('note_off', channel=1, note=43, velocity=64, time=76),
    Message('note_on', channel=1, note=45, velocity=92, time=20),
    Message('note_off', channel=1, note=45, velocity=64, time=153),
    Message('note_on', channel=1, note=45, velocity=92, time=135),
    Message('note_off', channel=1, note=45, velocity=64, time=172),
    Message('note_on', channel=1, note=45, velocity=92, time=20),
    Message('note_off', channel=1, note=45, velocity=64, time=76),
    Message('note_on', channel=1, note=43, velocity=92, time=20),
    Message('note_off', channel=1, note=43, velocity=64, time=76),
    Message('note_on', channel=1, note=42, velocity=92, time=20),
    Message('note_off', channel=1, note=42, velocity=64, time=76),
    Message('note_on', channel=1, note=40, velocity=92, time=20),
    Message('note_off', channel=1, note=40, velocity=64, time=153),
    Message('note_on', channel=1, note=40, velocity=92, time=135),
    Message('note_off', channel=1, note=40, velocity=64, time=76),
    Message('note_on', channel=1, note=40, velocity=92, time=116),
    Message('note_off', channel=1, note=40, velocity=64, time=76),
    Message('note_on', channel=1, note=42, velocity=92, time=20),
    Message('note_off', channel=1, note=42, velocity=64, time=76),
    Message('note_on', channel=1, note=43, velocity=92, time=20),
    Message('note_off', channel=1, note=43, velocity=64, time=76),
    Message('note_on', channel=1, note=45, velocity=92, time=20),
    Message('note_off', channel=1, note=45, velocity=64, time=153),
    Message('note_on', channel=1, note=45, velocity=92, time=135),
    Message('note_off', channel=1, note=45, velocity=64, time=172),
    Message('note_on', channel=1, note=45, velocity=92, time=20),
    Message('note_off', channel=1, note=45, velocity=64, time=76),
    Message('note_on', channel=1, note=43, velocity=92, time=20),
    Message('note_off', channel=1, note=43, velocity=64, time=76),
    Message('note_on', channel=1, note=42, velocity=92, time=20),
    Message('note_off', channel=1, note=42, velocity=64, time=76),
    Message('control_change', channel=1, control=7, value=115, time=20),
    Message('note_on', channel=1, note=40, velocity=92, time=0),
    Message('note_off', channel=1, note=40, velocity=64, time=153),
    Message('note_on', channel=1, note=40, velocity=92, time=135),
    Message('note_off', channel=1, note=40, velocity=64, time=76),
    Message('note_on', channel=1, note=35, velocity=92, time=20),
    Message('note_off', channel=1, note=35, velocity=64, time=153),
    Message('note_on', channel=1, note=40, velocity=92, time=231),
    Message('note_off', channel=1, note=40, velocity=64, time=153),
    Message('note_on', channel=1, note=40, velocity=92, time=135),
    Message('note_off', channel=1, note=40, velocity=64, time=76),
    Message('note_on', channel=1, note=37, velocity=92, time=20),
    Message('note_off', channel=1, note=37, velocity=64, time=76),
    Message('note_on', channel=1, note=40, velocity=92, time=20),
    Message('note_off', channel=1, note=40, velocity=64, time=76),
    Message('note_on', channel=1, note=45, velocity=92, time=212),
    Message('note_off', channel=1, note=45, velocity=64, time=153),
    Message('note_on', channel=1, note=45, velocity=92, time=135),
    Message('note_off', channel=1, note=45, velocity=64, time=76),
    Message('note_on', channel=1, note=40, velocity=92, time=20),
    Message('note_off', channel=1, note=40, velocity=64, time=153),
    Message('note_on', channel=1, note=45, velocity=92, time=39),
    Message('note_off', channel=1, note=45, velocity=64, time=153),
    Message('note_on', channel=1, note=45, velocity=92, time=39),
    Message('note_off', channel=1, note=45, velocity=64, time=153),
    Message('note_on', channel=1, note=45, velocity=92, time=39),
    Message('note_off', channel=1, note=45, velocity=64, time=76),
    Message('note_on', channel=1, note=45, velocity=92, time=20),
    Message('note_off', channel=1, note=45, velocity=64, time=76),
    Message('note_on', channel=1, note=40, velocity=92, time=20),
    Message('note_off', channel=1, note=40, velocity=64, time=76),
    Message('note_on', channel=1, note=45, velocity=92, time=20),
    Message('note_off', channel=1, note=45, velocity=64, time=76),
    Message('note_on', channel=1, note=40, velocity=92, time=212),
    Message('note_off', channel=1, note=40, velocity=64, time=153),
    Message('note_on', channel=1, note=40, velocity=92, time=135),
    Message('note_off', channel=1, note=40, velocity=64, time=76),
    Message('note_on', channel=1, note=35, velocity=92, time=20),
    Message('note_off', channel=1, note=35, velocity=64, time=153),
    Message('note_on', channel=1, note=40, velocity=92, time=231),
    Message('note_off', channel=1, note=40, velocity=64, time=153),
    Message('note_on', channel=1, note=40, velocity=92, time=135),
    Message('note_off', channel=1, note=40, velocity=64, time=76),
    Message('note_on', channel=1, note=35, velocity=92, time=20),
    Message('note_off', channel=1, note=35, velocity=64, time=153),
    Message('note_on', channel=1, note=45, velocity=92, time=231),
    Message('note_off', channel=1, note=45, velocity=64, time=153),
    Message('note_on', channel=1, note=45, velocity=92, time=135),
    Message('note_off', channel=1, note=45, velocity=64, time=76),
    Message('note_on', channel=1, note=40, velocity=92, time=20),
    Message('note_off', channel=1, note=40, velocity=64, time=76),
    Message('note_on', channel=1, note=45, velocity=92, time=20),
    Message('note_off', channel=1, note=45, velocity=64, time=153),
    Message('note_on', channel=1, note=45, velocity=92, time=39),
    Message('note_off', channel=1, note=45, velocity=64, time=76),
    Message('note_on', channel=1, note=45, velocity=92, time=20),
    Message('note_off', channel=1, note=45, velocity=64, time=153),
    Message('note_on', channel=1, note=45, velocity=92, time=135),
    Message('note_off', channel=1, note=45, velocity=64, time=76),
    Message('note_on', channel=1, note=40, velocity=92, time=20),
    Message('note_off', channel=1, note=40, velocity=64, time=76),
    Message('note_on', channel=1, note=45, velocity=92, time=20),
    Message('note_off', channel=1, note=45, velocity=64, time=76),
    Message('note_on', channel=1, note=40, velocity=92, time=116),
    Message('note_off', channel=1, note=40, velocity=64, time=76),
    Message('note_on', channel=1, note=40, velocity=92, time=20),
    Message('note_off', channel=1, note=40, velocity=64, time=153),
    Message('note_on', channel=1, note=40, velocity=92, time=39),
    Message('note_off', channel=1, note=40, velocity=64, time=76),
    Message('note_on', channel=1, note=40, velocity=92, time=20),
    Message('note_off', channel=1, note=40, velocity=64, time=76),
    Message('note_on', channel=1, note=37, velocity=92, time=20),
    Message('note_off', channel=1, note=37, velocity=64, time=153),
    Message('note_on', channel=1, note=40, velocity=92, time=39),
    Message('note_off', channel=1, note=40, velocity=64, time=153),
    Message('note_on', channel=1, note=47, velocity=92, time=39),
    Message('note_off', channel=1, note=47, velocity=64, time=76),
    Message('note_on', channel=1, note=47, velocity=92, time=20),
    Message('note_off', channel=1, note=47, velocity=64, time=76),
    Message('note_on', channel=1, note=47, velocity=92, time=20),
    Message('note_off', channel=1, note=47, velocity=64, time=76),
    Message('note_on', channel=1, note=47, velocity=92, time=20),
    Message('note_off', channel=1, note=47, velocity=64, time=172),
    Message('note_on', channel=1, note=47, velocity=92, time=20),
    Message('note_off', channel=1, note=47, velocity=64, time=230),
    Message('note_on', channel=1, note=40, velocity=92, time=58),
    Message('note_off', channel=1, note=40, velocity=64, time=153),
    Message('note_on', channel=1, note=40, velocity=92, time=135),
    Message('note_off', channel=1, note=40, velocity=64, time=76),
    Message('note_on', channel=1, note=40, velocity=92, time=20),
    Message('note_off', channel=1, note=40, velocity=64, time=76),
    Message('note_on', channel=1, note=40, velocity=92, time=20),
    Message('note_off', channel=1, note=40, velocity=64, time=153),
    Message('note_on', channel=1, note=40, velocity=92, time=39),
    Message('note_off', channel=1, note=40, velocity=64, time=76),
    Message('note_on', channel=1, note=45, velocity=92, time=20),
    Message('note_off', channel=1, note=45, velocity=64, time=153),
    Message('note_on', channel=1, note=45, velocity=92, time=39),
    Message('note_off', channel=1, note=45, velocity=64, time=76),
    Message('note_on', channel=1, note=45, velocity=92, time=20),
    Message('note_off', channel=1, note=45, velocity=64, time=76),
    Message('note_on', channel=1, note=40, velocity=92, time=20),
    Message('note_off', channel=1, note=40, velocity=64, time=76),
    Message('note_on', channel=1, note=45, velocity=92, time=20),
    Message('note_off', channel=1, note=45, velocity=64, time=76),
    Message('note_on', channel=1, note=40, velocity=92, time=212),
    Message('note_off', channel=1, note=40, velocity=64, time=153),
    Message('note_on', channel=1, note=40, velocity=92, time=135),
    Message('note_off', channel=1, note=40, velocity=64, time=76),
    Message('note_on', channel=1, note=40, velocity=92, time=116),
    Message('note_off', channel=1, note=40, velocity=64, time=76),
    Message('note_on', channel=1, note=42, velocity=92, time=20),
    Message('note_off', channel=1, note=42, velocity=64, time=76),
    Message('note_on', channel=1, note=43, velocity=92, time=20),
    Message('note_off', channel=1, note=43, velocity=64, time=76),
    Message('note_on', channel=1, note=45, velocity=92, time=20),
    Message('note_off', channel=1, note=45, velocity=64, time=153),
    Message('note_on', channel=1, note=45, velocity=92, time=135),
    Message('note_off', channel=1, note=45, velocity=64, time=172),
    Message('note_on', channel=1, note=45, velocity=92, time=20),
    Message('note_off', channel=1, note=45, velocity=64, time=76),
    Message('note_on', channel=1, note=43, velocity=92, time=20),
    Message('note_off', channel=1, note=43, velocity=64, time=76),
    Message('note_on', channel=1, note=42, velocity=92, time=20),
    Message('note_off', channel=1, note=42, velocity=64, time=76),
    Message('note_on', channel=1, note=40, velocity=92, time=20),
    Message('note_off', channel=1, note=40, velocity=64, time=153),
    Message('note_on', channel=1, note=40, velocity=92, time=135),
    Message('note_off', channel=1, note=40, velocity=64, time=76),
    Message('note_on', channel=1, note=40, velocity=92, time=116),
    Message('note_off', channel=1, note=40, velocity=64, time=76),
    Message('note_on', channel=1, note=42, velocity=92, time=20),
    Message('note_off', channel=1, note=42, velocity=64, time=76),
    Message('note_on', channel=1, note=43, velocity=92, time=20),
    Message('note_off', channel=1, note=43, velocity=64, time=76),
    Message('note_on', channel=1, note=45, velocity=92, time=20),
    Message('note_off', channel=1, note=45, velocity=64, time=153),
    Message('note_on', channel=1, note=45, velocity=92, time=135),
    Message('note_off', channel=1, note=45, velocity=64, time=172),
    Message('note_on', channel=1, note=45, velocity=92, time=20),
    Message('note_off', channel=1, note=45, velocity=64, time=76),
    Message('note_on', channel=1, note=43, velocity=92, time=20),
    Message('note_off', channel=1, note=43, velocity=64, time=76),
    Message('note_on', channel=1, note=42, velocity=92, time=20),
    Message('note_off', channel=1, note=42, velocity=64, time=76),
    Message('note_on', channel=1, note=40, velocity=97, time=20),
    Message('note_off', channel=1, note=40, velocity=64, time=153),
    Message('note_on', channel=1, note=40, velocity=97, time=135),
    Message('note_off', channel=1, note=40, velocity=64, time=76),
    Message('note_on', channel=1, note=40, velocity=97, time=116),
    Message('note_off', channel=1, note=40, velocity=64, time=76),
    Message('note_on', channel=1, note=42, velocity=97, time=20),
    Message('note_off', channel=1, note=42, velocity=64, time=76),
    Message('note_on', channel=1, note=43, velocity=97, time=20),
    Message('note_off', channel=1, note=43, velocity=64, time=76),
    Message('note_on', channel=1, note=45, velocity=97, time=20),
    Message('note_off', channel=1, note=45, velocity=64, time=153),
    Message('note_on', channel=1, note=45, velocity=97, time=135),
    Message('note_off', channel=1, note=45, velocity=64, time=172),
    Message('note_on', channel=1, note=45, velocity=97, time=20),
    Message('note_off', channel=1, note=45, velocity=64, time=76),
    Message('note_on', channel=1, note=43, velocity=97, time=20),
    Message('note_off', channel=1, note=43, velocity=64, time=76),
    Message('note_on', channel=1, note=42, velocity=97, time=20),
    Message('note_off', channel=1, note=42, velocity=64, time=76),
    Message('note_on', channel=1, note=40, velocity=97, time=20),
    Message('note_off', channel=1, note=40, velocity=64, time=153),
    Message('note_on', channel=1, note=40, velocity=97, time=135),
    Message('note_off', channel=1, note=40, velocity=64, time=76),
    Message('note_on', channel=1, note=40, velocity=97, time=116),
    Message('note_off', channel=1, note=40, velocity=64, time=76),
    Message('note_on', channel=1, note=42, velocity=97, time=20),
    Message('note_off', channel=1, note=42, velocity=64, time=76),
    Message('note_on', channel=1, note=43, velocity=97, time=20),
    Message('note_off', channel=1, note=43, velocity=64, time=76),
    Message('note_on', channel=1, note=45, velocity=97, time=20),
    Message('note_off', channel=1, note=45, velocity=64, time=153),
    Message('note_on', channel=1, note=45, velocity=97, time=135),
    Message('note_off', channel=1, note=45, velocity=64, time=172),
    Message('note_on', channel=1, note=45, velocity=97, time=20),
    Message('note_off', channel=1, note=45, velocity=64, time=76),
    Message('note_on', channel=1, note=43, velocity=97, time=20),
    Message('note_off', channel=1, note=43, velocity=64, time=76),
    Message('note_on', channel=1, note=42, velocity=97, time=20),
    Message('note_off', channel=1, note=42, velocity=64, time=76),
    Message('note_on', channel=1, note=40, velocity=97, time=20),
    Message('note_off', channel=1, note=40, velocity=64, time=153),
    Message('note_on', channel=1, note=40, velocity=97, time=135),
    Message('note_off', channel=1, note=40, velocity=64, time=76),
    Message('note_on', channel=1, note=40, velocity=97, time=116),
    Message('note_off', channel=1, note=40, velocity=64, time=76),
    Message('note_on', channel=1, note=42, velocity=97, time=20),
    Message('note_off', channel=1, note=42, velocity=64, time=76),
    Message('note_on', channel=1, note=43, velocity=97, time=20),
    Message('note_off', channel=1, note=43, velocity=64, time=76),
    Message('note_on', channel=1, note=45, velocity=97, time=20),
    Message('note_off', channel=1, note=45, velocity=64, time=153),
    Message('note_on', channel=1, note=45, velocity=97, time=135),
    Message('note_off', channel=1, note=45, velocity=64, time=172),
    Message('note_on', channel=1, note=45, velocity=97, time=20),
    Message('note_off', channel=1, note=45, velocity=64, time=76),
    Message('note_on', channel=1, note=43, velocity=97, time=20),
    Message('note_off', channel=1, note=43, velocity=64, time=76),
    Message('note_on', channel=1, note=42, velocity=97, time=20),
    Message('note_off', channel=1, note=42, velocity=64, time=76),
    Message('note_on', channel=1, note=40, velocity=97, time=20),
    Message('note_off', channel=1, note=40, velocity=64, time=153),
    Message('note_on', channel=1, note=40, velocity=97, time=135),
    Message('note_off', channel=1, note=40, velocity=64, time=76),
    Message('note_on', channel=1, note=40, velocity=97, time=116),
    Message('note_off', channel=1, note=40, velocity=64, time=76),
    Message('note_on', channel=1, note=42, velocity=97, time=20),
    Message('note_off', channel=1, note=42, velocity=64, time=76),
    Message('note_on', channel=1, note=43, velocity=97, time=20),
    Message('note_off', channel=1, note=43, velocity=64, time=76),
    Message('note_on', channel=1, note=45, velocity=97, time=20),
    Message('note_off', channel=1, note=45, velocity=64, time=153),
    Message('note_on', channel=1, note=45, velocity=97, time=135),
    Message('note_off', channel=1, note=45, velocity=64, time=172),
    Message('note_on', channel=1, note=45, velocity=97, time=20),
    Message('note_off', channel=1, note=45, velocity=64, time=76),
    Message('note_on', channel=1, note=43, velocity=97, time=20),
    Message('note_off', channel=1, note=43, velocity=64, time=76),
    Message('note_on', channel=1, note=42, velocity=97, time=20),
    Message('note_off', channel=1, note=42, velocity=64, time=76),
    Message('note_on', channel=1, note=40, velocity=97, time=20),
    Message('note_off', channel=1, note=40, velocity=64, time=153),
    Message('note_on', channel=1, note=40, velocity=97, time=135),
    Message('note_off', channel=1, note=40, velocity=64, time=76),
    Message('note_on', channel=1, note=40, velocity=97, time=116),
    Message('note_off', channel=1, note=40, velocity=64, time=76),
    Message('note_on', channel=1, note=42, velocity=97, time=20),
    Message('note_off', channel=1, note=42, velocity=64, time=76),
    Message('note_on', channel=1, note=43, velocity=97, time=20),
    Message('note_off', channel=1, note=43, velocity=64, time=76),
    Message('note_on', channel=1, note=45, velocity=97, time=20),
    Message('note_off', channel=1, note=45, velocity=64, time=153),
    Message('note_on', channel=1, note=45, velocity=97, time=135),
    Message('note_off', channel=1, note=45, velocity=64, time=172),
    Message('note_on', channel=1, note=45, velocity=97, time=20),
    Message('note_off', channel=1, note=45, velocity=64, time=76),
    Message('note_on', channel=1, note=43, velocity=97, time=20),
    Message('note_off', channel=1, note=43, velocity=64, time=76),
    Message('note_on', channel=1, note=42, velocity=97, time=20),
    Message('note_off', channel=1, note=42, velocity=64, time=76),
    Message('note_on', channel=1, note=40, velocity=97, time=20),
    Message('note_off', channel=1, note=40, velocity=64, time=153),
    Message('note_on', channel=1, note=40, velocity=97, time=135),
    Message('note_off', channel=1, note=40, velocity=64, time=76),
    Message('note_on', channel=1, note=40, velocity=97, time=116),
    Message('note_off', channel=1, note=40, velocity=64, time=76),
    Message('note_on', channel=1, note=42, velocity=97, time=20),
    Message('note_off', channel=1, note=42, velocity=64, time=76),
    Message('note_on', channel=1, note=43, velocity=97, time=20),
    Message('note_off', channel=1, note=43, velocity=64, time=76),
    Message('note_on', channel=1, note=45, velocity=97, time=20),
    Message('note_off', channel=1, note=45, velocity=64, time=153),
    Message('note_on', channel=1, note=45, velocity=97, time=135),
    Message('note_off', channel=1, note=45, velocity=64, time=172),
    Message('note_on', channel=1, note=45, velocity=97, time=20),
    Message('note_off', channel=1, note=45, velocity=64, time=76),
    Message('note_on', channel=1, note=43, velocity=97, time=20),
    Message('note_off', channel=1, note=43, velocity=64, time=76),
    Message('note_on', channel=1, note=42, velocity=97, time=20),
    Message('note_off', channel=1, note=42, velocity=64, time=76),
    Message('note_on', channel=1, note=40, velocity=97, time=20),
    Message('note_off', channel=1, note=40, velocity=64, time=153),
    Message('note_on', channel=1, note=35, velocity=97, time=1095),
    Message('note_off', channel=1, note=35, velocity=64, time=76),
    Message('note_on', channel=1, note=37, velocity=97, time=20),
    Message('note_off', channel=1, note=37, velocity=64, time=76),
    Message('note_on', channel=1, note=38, velocity=97, time=20),
    Message('note_off', channel=1, note=38, velocity=64, time=76),
    Message('note_on', channel=1, note=40, velocity=97, time=20),
    Message('note_off', channel=1, note=40, velocity=64, time=153),
    Message('note_on', channel=1, note=40, velocity=97, time=135),
    Message('note_off', channel=1, note=40, velocity=64, time=76),
    Message('note_on', channel=1, note=40, velocity=97, time=116),
    Message('note_off', channel=1, note=40, velocity=64, time=76),
    Message('note_on', channel=1, note=42, velocity=97, time=20),
    Message('note_off', channel=1, note=42, velocity=64, time=76),
    Message('note_on', channel=1, note=43, velocity=97, time=20),
    Message('note_off', channel=1, note=43, velocity=64, time=76),
    Message('note_on', channel=1, note=45, velocity=97, time=20),
    Message('note_off', channel=1, note=45, velocity=64, time=153),
    Message('note_on', channel=1, note=45, velocity=97, time=135),
    Message('note_off', channel=1, note=45, velocity=64, time=172),
    Message('note_on', channel=1, note=45, velocity=97, time=20),
    Message('note_off', channel=1, note=45, velocity=64, time=76),
    Message('note_on', channel=1, note=43, velocity=97, time=20),
    Message('note_off', channel=1, note=43, velocity=64, time=76),
    Message('note_on', channel=1, note=42, velocity=97, time=20),
    Message('note_off', channel=1, note=42, velocity=64, time=76),
    Message('note_on', channel=1, note=40, velocity=97, time=20),
    Message('note_off', channel=1, note=40, velocity=64, time=153),
    Message('note_on', channel=1, note=40, velocity=97, time=135),
    Message('note_off', channel=1, note=40, velocity=64, time=76),
    Message('note_on', channel=1, note=40, velocity=97, time=116),
    Message('note_off', channel=1, note=40, velocity=64, time=76),
    Message('note_on', channel=1, note=42, velocity=97, time=20),
    Message('note_off', channel=1, note=42, velocity=64, time=76),
    Message('note_on', channel=1, note=43, velocity=97, time=20),
    Message('note_off', channel=1, note=43, velocity=64, time=76),
    Message('note_on', channel=1, note=45, velocity=97, time=20),
    Message('note_off', channel=1, note=45, velocity=64, time=153),
    Message('note_on', channel=1, note=45, velocity=97, time=135),
    Message('note_off', channel=1, note=45, velocity=64, time=172),
    Message('note_on', channel=1, note=45, velocity=97, time=20),
    Message('note_off', channel=1, note=45, velocity=64, time=76),
    Message('note_on', channel=1, note=43, velocity=97, time=20),
    Message('note_off', channel=1, note=43, velocity=64, time=76),
    Message('note_on', channel=1, note=42, velocity=97, time=20),
    Message('note_off', channel=1, note=42, velocity=64, time=76),
    Message('note_on', channel=1, note=40, velocity=102, time=20),
    Message('note_off', channel=1, note=40, velocity=64, time=153),
    Message('note_on', channel=1, note=40, velocity=102, time=135),
    Message('note_off', channel=1, note=40, velocity=64, time=76),
    Message('note_on', channel=1, note=35, velocity=102, time=20),
    Message('note_off', channel=1, note=35, velocity=64, time=153),
    Message('note_on', channel=1, note=40, velocity=102, time=231),
    Message('note_off', channel=1, note=40, velocity=64, time=153),
    Message('note_on', channel=1, note=40, velocity=102, time=135),
    Message('note_off', channel=1, note=40, velocity=64, time=76),
    Message('note_on', channel=1, note=37, velocity=102, time=20),
    Message('note_off', channel=1, note=37, velocity=64, time=76),
    Message('note_on', channel=1, note=40, velocity=102, time=20),
    Message('note_off', channel=1, note=40, velocity=64, time=76),
    Message('note_on', channel=1, note=45, velocity=102, time=212),
    Message('note_off', channel=1, note=45, velocity=64, time=153),
    Message('note_on', channel=1, note=45, velocity=102, time=135),
    Message('note_off', channel=1, note=45, velocity=64, time=76),
    Message('note_on', channel=1, note=40, velocity=102, time=20),
    Message('note_off', channel=1, note=40, velocity=64, time=153),
    Message('note_on', channel=1, note=45, velocity=102, time=39),
    Message('note_off', channel=1, note=45, velocity=64, time=153),
    Message('note_on', channel=1, note=45, velocity=102, time=39),
    Message('note_off', channel=1, note=45, velocity=64, time=153),
    Message('note_on', channel=1, note=45, velocity=102, time=39),
    Message('note_off', channel=1, note=45, velocity=64, time=76),
    Message('note_on', channel=1, note=45, velocity=102, time=20),
    Message('note_off', channel=1, note=45, velocity=64, time=76),
    Message('note_on', channel=1, note=40, velocity=102, time=20),
    Message('note_off', channel=1, note=40, velocity=64, time=76),
    Message('note_on', channel=1, note=45, velocity=102, time=20),
    Message('note_off', channel=1, note=45, velocity=64, time=76),
    Message('note_on', channel=1, note=40, velocity=102, time=212),
    Message('note_off', channel=1, note=40, velocity=64, time=153),
    Message('note_on', channel=1, note=40, velocity=102, time=135),
    Message('note_off', channel=1, note=40, velocity=64, time=76),
    Message('note_on', channel=1, note=35, velocity=102, time=20),
    Message('note_off', channel=1, note=35, velocity=64, time=153),
    Message('note_on', channel=1, note=40, velocity=102, time=231),
    Message('note_off', channel=1, note=40, velocity=64, time=153),
    Message('note_on', channel=1, note=40, velocity=102, time=135),
    Message('note_off', channel=1, note=40, velocity=64, time=76),
    Message('note_on', channel=1, note=35, velocity=102, time=20),
    Message('note_off', channel=1, note=35, velocity=64, time=153),
    Message('note_on', channel=1, note=45, velocity=102, time=231),
    Message('note_off', channel=1, note=45, velocity=64, time=153),
    Message('note_on', channel=1, note=45, velocity=102, time=135),
    Message('note_off', channel=1, note=45, velocity=64, time=76),
    Message('note_on', channel=1, note=40, velocity=102, time=20),
    Message('note_off', channel=1, note=40, velocity=64, time=76),
    Message('note_on', channel=1, note=45, velocity=102, time=20),
    Message('note_off', channel=1, note=45, velocity=64, time=153),
    Message('note_on', channel=1, note=45, velocity=102, time=39),
    Message('note_off', channel=1, note=45, velocity=64, time=76),
    Message('note_on', channel=1, note=45, velocity=102, time=20),
    Message('note_off', channel=1, note=45, velocity=64, time=153),
    Message('note_on', channel=1, note=45, velocity=102, time=135),
    Message('note_off', channel=1, note=45, velocity=64, time=76),
    Message('note_on', channel=1, note=40, velocity=102, time=20),
    Message('note_off', channel=1, note=40, velocity=64, time=76),
    Message('note_on', channel=1, note=45, velocity=102, time=20),
    Message('note_off', channel=1, note=45, velocity=64, time=76),
    Message('note_on', channel=1, note=40, velocity=102, time=116),
    Message('note_off', channel=1, note=40, velocity=64, time=76),
    Message('note_on', channel=1, note=40, velocity=102, time=20),
    Message('note_off', channel=1, note=40, velocity=64, time=153),
    Message('note_on', channel=1, note=40, velocity=102, time=39),
    Message('note_off', channel=1, note=40, velocity=64, time=76),
    Message('note_on', channel=1, note=40, velocity=102, time=20),
    Message('note_off', channel=1, note=40, velocity=64, time=76),
    Message('note_on', channel=1, note=37, velocity=102, time=20),
    Message('note_off', channel=1, note=37, velocity=64, time=153),
    Message('note_on', channel=1, note=40, velocity=102, time=39),
    Message('note_off', channel=1, note=40, velocity=64, time=153),
    Message('note_on', channel=1, note=47, velocity=102, time=39),
    Message('note_off', channel=1, note=47, velocity=64, time=76),
    Message('note_on', channel=1, note=47, velocity=102, time=20),
    Message('note_off', channel=1, note=47, velocity=64, time=76),
    Message('note_on', channel=1, note=47, velocity=102, time=20),
    Message('note_off', channel=1, note=47, velocity=64, time=76),
    Message('note_on', channel=1, note=47, velocity=102, time=20),
    Message('note_off', channel=1, note=47, velocity=64, time=172),
    Message('note_on', channel=1, note=47, velocity=102, time=20),
    Message('note_off', channel=1, note=47, velocity=64, time=230),
    Message('note_on', channel=1, note=40, velocity=102, time=58),
    Message('note_off', channel=1, note=40, velocity=64, time=153),
    Message('note_on', channel=1, note=40, velocity=102, time=135),
    Message('note_off', channel=1, note=40, velocity=64, time=76),
    Message('note_on', channel=1, note=40, velocity=102, time=20),
    Message('note_off', channel=1, note=40, velocity=64, time=76),
    Message('note_on', channel=1, note=40, velocity=102, time=20),
    Message('note_off', channel=1, note=40, velocity=64, time=153),
    Message('note_on', channel=1, note=40, velocity=102, time=39),
    Message('note_off', channel=1, note=40, velocity=64, time=76),
    Message('note_on', channel=1, note=45, velocity=102, time=20),
    Message('note_off', channel=1, note=45, velocity=64, time=153),
    Message('note_on', channel=1, note=45, velocity=102, time=39),
    Message('note_off', channel=1, note=45, velocity=64, time=76),
    Message('note_on', channel=1, note=45, velocity=102, time=20),
    Message('note_off', channel=1, note=45, velocity=64, time=76),
    Message('note_on', channel=1, note=40, velocity=102, time=20),
    Message('note_off', channel=1, note=40, velocity=64, time=76),
    Message('note_on', channel=1, note=45, velocity=102, time=20),
    Message('note_off', channel=1, note=45, velocity=64, time=76),
    Message('note_on', channel=1, note=40, velocity=102, time=212),
    Message('note_off', channel=1, note=40, velocity=64, time=153),
    Message('note_on', channel=1, note=40, velocity=102, time=135),
    Message('note_off', channel=1, note=40, velocity=64, time=76),
    Message('note_on', channel=1, note=40, velocity=102, time=116),
    Message('note_off', channel=1, note=40, velocity=64, time=76),
    Message('note_on', channel=1, note=42, velocity=102, time=20),
    Message('note_off', channel=1, note=42, velocity=64, time=76),
    Message('note_on', channel=1, note=43, velocity=102, time=20),
    Message('note_off', channel=1, note=43, velocity=64, time=76),
    Message('note_on', channel=1, note=45, velocity=102, time=20),
    Message('note_off', channel=1, note=45, velocity=64, time=153),
    Message('note_on', channel=1, note=45, velocity=102, time=135),
    Message('note_off', channel=1, note=45, velocity=64, time=172),
    Message('note_on', channel=1, note=45, velocity=102, time=20),
    Message('note_off', channel=1, note=45, velocity=64, time=76),
    Message('note_on', channel=1, note=43, velocity=102, time=20),
    Message('note_off', channel=1, note=43, velocity=64, time=76),
    Message('note_on', channel=1, note=42, velocity=102, time=20),
    Message('note_off', channel=1, note=42, velocity=64, time=76),
    Message('note_on', channel=1, note=40, velocity=102, time=20),
    Message('note_off', channel=1, note=40, velocity=64, time=153),
    Message('note_on', channel=1, note=40, velocity=102, time=135),
    Message('note_off', channel=1, note=40, velocity=64, time=76),
    Message('note_on', channel=1, note=40, velocity=102, time=116),
    Message('note_off', channel=1, note=40, velocity=64, time=76),
    Message('note_on', channel=1, note=42, velocity=102, time=20),
    Message('note_off', channel=1, note=42, velocity=64, time=76),
    Message('note_on', channel=1, note=43, velocity=102, time=20),
    Message('note_off', channel=1, note=43, velocity=64, time=76),
    Message('note_on', channel=1, note=45, velocity=102, time=20),
    Message('note_off', channel=1, note=45, velocity=64, time=153),
    Message('note_on', channel=1, note=45, velocity=102, time=135),
    Message('note_off', channel=1, note=45, velocity=64, time=172),
    Message('note_on', channel=1, note=45, velocity=102, time=20),
    Message('note_off', channel=1, note=45, velocity=64, time=76),
    Message('note_on', channel=1, note=43, velocity=102, time=20),
    Message('note_off', channel=1, note=43, velocity=64, time=76),
    Message('note_on', channel=1, note=42, velocity=102, time=20),
    Message('note_off', channel=1, note=42, velocity=64, time=76),
    Message('note_on', channel=1, note=40, velocity=102, time=20),
    Message('note_off', channel=1, note=40, velocity=64, time=153),
    Message('note_on', channel=1, note=40, velocity=102, time=135),
    Message('note_off', channel=1, note=40, velocity=64, time=76),
    Message('note_on', channel=1, note=40, velocity=102, time=116),
    Message('note_off', channel=1, note=40, velocity=64, time=76),
    Message('note_on', channel=1, note=42, velocity=102, time=20),
    Message('note_off', channel=1, note=42, velocity=64, time=76),
    Message('note_on', channel=1, note=43, velocity=102, time=20),
    Message('note_off', channel=1, note=43, velocity=64, time=76),
    Message('note_on', channel=1, note=45, velocity=102, time=20),
    Message('note_off', channel=1, note=45, velocity=64, time=153),
    Message('note_on', channel=1, note=45, velocity=102, time=135),
    Message('note_off', channel=1, note=45, velocity=64, time=172),
    Message('note_on', channel=1, note=45, velocity=102, time=20),
    Message('note_off', channel=1, note=45, velocity=64, time=76),
    Message('note_on', channel=1, note=43, velocity=102, time=20),
    Message('note_off', channel=1, note=43, velocity=64, time=76),
    Message('note_on', channel=1, note=42, velocity=102, time=20),
    Message('note_off', channel=1, note=42, velocity=64, time=76),
    Message('note_on', channel=1, note=40, velocity=102, time=20),
    Message('note_off', channel=1, note=40, velocity=64, time=153),
    Message('note_on', channel=1, note=40, velocity=102, time=135),
    Message('note_off', channel=1, note=40, velocity=64, time=76),
    Message('note_on', channel=1, note=40, velocity=102, time=116),
    Message('note_off', channel=1, note=40, velocity=64, time=76),
    Message('note_on', channel=1, note=42, velocity=102, time=20),
    Message('note_off', channel=1, note=42, velocity=64, time=76),
    Message('note_on', channel=1, note=43, velocity=102, time=20),
    Message('note_off', channel=1, note=43, velocity=64, time=76),
    Message('note_on', channel=1, note=45, velocity=102, time=20),
    Message('note_off', channel=1, note=45, velocity=64, time=153),
    Message('note_on', channel=1, note=45, velocity=102, time=135),
    Message('note_off', channel=1, note=45, velocity=64, time=172),
    Message('note_on', channel=1, note=45, velocity=102, time=20),
    Message('note_off', channel=1, note=45, velocity=64, time=76),
    Message('note_on', channel=1, note=43, velocity=102, time=20),
    Message('note_off', channel=1, note=43, velocity=64, time=76),
    Message('note_on', channel=1, note=42, velocity=102, time=20),
    Message('note_off', channel=1, note=42, velocity=64, time=76),
    Message('note_on', channel=1, note=40, velocity=102, time=20),
    Message('note_off', channel=1, note=40, velocity=64, time=153),
    Message('note_on', channel=1, note=40, velocity=102, time=135),
    Message('note_off', channel=1, note=40, velocity=64, time=76),
    Message('note_on', channel=1, note=40, velocity=102, time=116),
    Message('note_off', channel=1, note=40, velocity=64, time=76),
    Message('note_on', channel=1, note=42, velocity=102, time=20),
    Message('note_off', channel=1, note=42, velocity=64, time=76),
    Message('note_on', channel=1, note=43, velocity=102, time=20),
    Message('note_off', channel=1, note=43, velocity=64, time=76),
    Message('note_on', channel=1, note=45, velocity=102, time=20),
    Message('note_off', channel=1, note=45, velocity=64, time=153),
    Message('note_on', channel=1, note=45, velocity=102, time=135),
    Message('note_off', channel=1, note=45, velocity=64, time=172),
    Message('note_on', channel=1, note=45, velocity=102, time=20),
    Message('note_off', channel=1, note=45, velocity=64, time=76),
    Message('note_on', channel=1, note=43, velocity=102, time=20),
    Message('note_off', channel=1, note=43, velocity=64, time=76),
    Message('note_on', channel=1, note=42, velocity=102, time=20),
    Message('note_off', channel=1, note=42, velocity=64, time=76),
    Message('note_on', channel=1, note=40, velocity=102, time=20),
    Message('note_off', channel=1, note=40, velocity=64, time=153),
    Message('note_on', channel=1, note=40, velocity=102, time=135),
    Message('note_off', channel=1, note=40, velocity=64, time=76),
    Message('note_on', channel=1, note=40, velocity=102, time=116),
    Message('note_off', channel=1, note=40, velocity=64, time=76),
    Message('note_on', channel=1, note=42, velocity=102, time=20),
    Message('note_off', channel=1, note=42, velocity=64, time=76),
    Message('note_on', channel=1, note=43, velocity=102, time=20),
    Message('note_off', channel=1, note=43, velocity=64, time=76),
    Message('note_on', channel=1, note=45, velocity=102, time=20),
    Message('note_off', channel=1, note=45, velocity=64, time=153),
    Message('note_on', channel=1, note=45, velocity=102, time=135),
    Message('note_off', channel=1, note=45, velocity=64, time=172),
    Message('note_on', channel=1, note=45, velocity=102, time=20),
    Message('note_off', channel=1, note=45, velocity=64, time=76),
    Message('note_on', channel=1, note=43, velocity=102, time=20),
    Message('note_off', channel=1, note=43, velocity=64, time=76),
    Message('note_on', channel=1, note=42, velocity=102, time=20),
    Message('note_off', channel=1, note=42, velocity=64, time=76),
    Message('note_on', channel=1, note=40, velocity=102, time=20),
    Message('note_off', channel=1, note=40, velocity=64, time=153),
    Message('note_on', channel=1, note=40, velocity=102, time=135),
    Message('note_off', channel=1, note=40, velocity=64, time=76),
    Message('note_on', channel=1, note=40, velocity=102, time=116),
    Message('note_off', channel=1, note=40, velocity=64, time=76),
    Message('note_on', channel=1, note=42, velocity=102, time=20),
    Message('note_off', channel=1, note=42, velocity=64, time=76),
    Message('note_on', channel=1, note=43, velocity=102, time=20),
    Message('note_off', channel=1, note=43, velocity=64, time=76),
    Message('note_on', channel=1, note=45, velocity=102, time=20),
    Message('note_off', channel=1, note=45, velocity=64, time=153),
    Message('note_on', channel=1, note=45, velocity=102, time=135),
    Message('note_off', channel=1, note=45, velocity=64, time=172),
    Message('note_on', channel=1, note=45, velocity=102, time=20),
    Message('note_off', channel=1, note=45, velocity=64, time=76),
    Message('note_on', channel=1, note=43, velocity=102, time=20),
    Message('note_off', channel=1, note=43, velocity=64, time=76),
    Message('note_on', channel=1, note=42, velocity=102, time=20),
    Message('note_off', channel=1, note=42, velocity=64, time=76),
    Message('note_on', channel=1, note=40, velocity=102, time=20),
    Message('note_off', channel=1, note=40, velocity=64, time=153),
    Message('note_on', channel=1, note=40, velocity=102, time=135),
    Message('note_off', channel=1, note=40, velocity=64, time=76),
    Message('note_on', channel=1, note=40, velocity=102, time=116),
    Message('note_off', channel=1, note=40, velocity=64, time=76),
    Message('note_on', channel=1, note=42, velocity=102, time=20),
    Message('note_off', channel=1, note=42, velocity=64, time=76),
    Message('note_on', channel=1, note=43, velocity=102, time=20),
    Message('note_off', channel=1, note=43, velocity=64, time=76),
    Message('note_on', channel=1, note=45, velocity=102, time=20),
    Message('note_off', channel=1, note=45, velocity=64, time=153),
    Message('note_on', channel=1, note=45, velocity=102, time=135),
    Message('note_off', channel=1, note=45, velocity=64, time=172),
    Message('note_on', channel=1, note=45, velocity=102, time=20),
    Message('note_off', channel=1, note=45, velocity=64, time=76),
    Message('note_on', channel=1, note=43, velocity=102, time=20),
    Message('note_off', channel=1, note=43, velocity=64, time=76),
    Message('note_on', channel=1, note=42, velocity=102, time=20),
    Message('note_off', channel=1, note=42, velocity=64, time=76),
    Message('note_on', channel=1, note=40, velocity=102, time=20),
    Message('note_off', channel=1, note=40, velocity=64, time=153),
    Message('note_on', channel=1, note=35, velocity=102, time=1095),
    Message('note_off', channel=1, note=35, velocity=64, time=76),
    Message('note_on', channel=1, note=37, velocity=102, time=20),
    Message('note_off', channel=1, note=37, velocity=64, time=76),
    Message('note_on', channel=1, note=38, velocity=102, time=20),
    Message('note_off', channel=1, note=38, velocity=64, time=76),
    Message('note_on', channel=1, note=40, velocity=102, time=20),
    Message('note_off', channel=1, note=40, velocity=64, time=153),
    Message('note_on', channel=1, note=40, velocity=102, time=135),
    Message('note_off', channel=1, note=40, velocity=64, time=76),
    Message('note_on', channel=1, note=40, velocity=102, time=116),
    Message('note_off', channel=1, note=40, velocity=64, time=76),
    Message('note_on', channel=1, note=42, velocity=102, time=20),
    Message('note_off', channel=1, note=42, velocity=64, time=76),
    Message('note_on', channel=1, note=43, velocity=102, time=20),
    Message('note_off', channel=1, note=43, velocity=64, time=76),
    Message('note_on', channel=1, note=45, velocity=102, time=20),
    Message('note_off', channel=1, note=45, velocity=64, time=153),
    Message('note_on', channel=1, note=45, velocity=102, time=135),
    Message('note_off', channel=1, note=45, velocity=64, time=172),
    Message('note_on', channel=1, note=45, velocity=102, time=20),
    Message('note_off', channel=1, note=45, velocity=64, time=76),
    Message('note_on', channel=1, note=43, velocity=102, time=20),
    Message('note_off', channel=1, note=43, velocity=64, time=76),
    Message('note_on', channel=1, note=42, velocity=102, time=20),
    Message('note_off', channel=1, note=42, velocity=64, time=76),
    Message('note_on', channel=1, note=40, velocity=102, time=20),
    Message('note_off', channel=1, note=40, velocity=64, time=153),
    Message('note_on', channel=1, note=40, velocity=102, time=135),
    Message('note_off', channel=1, note=40, velocity=64, time=76),
    Message('note_on', channel=1, note=40, velocity=102, time=116),
    Message('note_off', channel=1, note=40, velocity=64, time=76),
    Message('note_on', channel=1, note=42, velocity=102, time=20),
    Message('note_off', channel=1, note=42, velocity=64, time=76),
    Message('note_on', channel=1, note=43, velocity=102, time=20),
    Message('note_off', channel=1, note=43, velocity=64, time=76),
    Message('note_on', channel=1, note=45, velocity=102, time=20),
    Message('note_off', channel=1, note=45, velocity=64, time=153),
    Message('note_on', channel=1, note=45, velocity=102, time=135),
    Message('note_off', channel=1, note=45, velocity=64, time=172),
    Message('note_on', channel=1, note=45, velocity=102, time=20),
    Message('note_off', channel=1, note=45, velocity=64, time=76),
    Message('note_on', channel=1, note=43, velocity=102, time=20),
    Message('note_off', channel=1, note=43, velocity=64, time=76),
    Message('note_on', channel=1, note=42, velocity=102, time=20),
    Message('note_off', channel=1, note=42, velocity=64, time=76),
    Message('control_change', channel=1, control=7, value=115, time=20),
    Message('note_on', channel=1, note=40, velocity=107, time=0),
    Message('note_off', channel=1, note=40, velocity=64, time=153),
    Message('note_on', channel=1, note=40, velocity=107, time=135),
    Message('note_off', channel=1, note=40, velocity=64, time=76),
    Message('note_on', channel=1, note=35, velocity=107, time=20),
    Message('note_off', channel=1, note=35, velocity=64, time=153),
    Message('note_on', channel=1, note=40, velocity=107, time=231),
    Message('note_off', channel=1, note=40, velocity=64, time=153),
    Message('note_on', channel=1, note=40, velocity=107, time=135),
    Message('note_off', channel=1, note=40, velocity=64, time=76),
    Message('note_on', channel=1, note=37, velocity=107, time=20),
    Message('note_off', channel=1, note=37, velocity=64, time=76),
    Message('note_on', channel=1, note=40, velocity=107, time=20),
    Message('note_off', channel=1, note=40, velocity=64, time=76),
    Message('note_on', channel=1, note=45, velocity=107, time=212),
    Message('note_off', channel=1, note=45, velocity=64, time=153),
    Message('note_on', channel=1, note=45, velocity=107, time=135),
    Message('note_off', channel=1, note=45, velocity=64, time=76),
    Message('note_on', channel=1, note=40, velocity=107, time=20),
    Message('note_off', channel=1, note=40, velocity=64, time=153),
    Message('note_on', channel=1, note=45, velocity=107, time=39),
    Message('note_off', channel=1, note=45, velocity=64, time=153),
    Message('note_on', channel=1, note=45, velocity=107, time=39),
    Message('note_off', channel=1, note=45, velocity=64, time=153),
    Message('note_on', channel=1, note=45, velocity=107, time=39),
    Message('note_off', channel=1, note=45, velocity=64, time=76),
    Message('note_on', channel=1, note=45, velocity=107, time=20),
    Message('note_off', channel=1, note=45, velocity=64, time=76),
    Message('note_on', channel=1, note=40, velocity=107, time=20),
    Message('note_off', channel=1, note=40, velocity=64, time=76),
    Message('note_on', channel=1, note=45, velocity=107, time=20),
    Message('note_off', channel=1, note=45, velocity=64, time=76),
    Message('note_on', channel=1, note=40, velocity=107, time=212),
    Message('note_off', channel=1, note=40, velocity=64, time=153),
    Message('note_on', channel=1, note=40, velocity=107, time=135),
    Message('note_off', channel=1, note=40, velocity=64, time=76),
    Message('note_on', channel=1, note=35, velocity=107, time=20),
    Message('note_off', channel=1, note=35, velocity=64, time=153),
    Message('note_on', channel=1, note=40, velocity=107, time=231),
    Message('note_off', channel=1, note=40, velocity=64, time=153),
    Message('note_on', channel=1, note=40, velocity=107, time=135),
    Message('note_off', channel=1, note=40, velocity=64, time=76),
    Message('note_on', channel=1, note=35, velocity=107, time=20),
    Message('note_off', channel=1, note=35, velocity=64, time=153),
    Message('note_on', channel=1, note=45, velocity=107, time=231),
    Message('note_off', channel=1, note=45, velocity=64, time=153),
    Message('note_on', channel=1, note=45, velocity=107, time=135),
    Message('note_off', channel=1, note=45, velocity=64, time=76),
    Message('note_on', channel=1, note=40, velocity=107, time=20),
    Message('note_off', channel=1, note=40, velocity=64, time=76),
    Message('note_on', channel=1, note=45, velocity=107, time=20),
    Message('note_off', channel=1, note=45, velocity=64, time=153),
    Message('note_on', channel=1, note=45, velocity=107, time=39),
    Message('note_off', channel=1, note=45, velocity=64, time=76),
    Message('note_on', channel=1, note=45, velocity=107, time=20),
    Message('note_off', channel=1, note=45, velocity=64, time=153),
    Message('note_on', channel=1, note=45, velocity=107, time=135),
    Message('note_off', channel=1, note=45, velocity=64, time=76),
    Message('note_on', channel=1, note=40, velocity=107, time=20),
    Message('note_off', channel=1, note=40, velocity=64, time=76),
    Message('note_on', channel=1, note=45, velocity=107, time=20),
    Message('note_off', channel=1, note=45, velocity=64, time=76),
    Message('note_on', channel=1, note=40, velocity=107, time=116),
    Message('note_off', channel=1, note=40, velocity=64, time=76),
    Message('note_on', channel=1, note=40, velocity=107, time=20),
    Message('note_off', channel=1, note=40, velocity=64, time=153),
    Message('note_on', channel=1, note=40, velocity=107, time=39),
    Message('note_off', channel=1, note=40, velocity=64, time=76),
    Message('note_on', channel=1, note=40, velocity=107, time=20),
    Message('note_off', channel=1, note=40, velocity=64, time=76),
    Message('note_on', channel=1, note=37, velocity=107, time=20),
    Message('note_off', channel=1, note=37, velocity=64, time=153),
    Message('note_on', channel=1, note=40, velocity=107, time=39),
    Message('note_off', channel=1, note=40, velocity=64, time=153),
    Message('note_on', channel=1, note=47, velocity=107, time=39),
    Message('note_off', channel=1, note=47, velocity=64, time=76),
    Message('note_on', channel=1, note=47, velocity=107, time=20),
    Message('note_off', channel=1, note=47, velocity=64, time=76),
    Message('note_on', channel=1, note=47, velocity=107, time=20),
    Message('note_off', channel=1, note=47, velocity=64, time=76),
    Message('note_on', channel=1, note=47, velocity=107, time=20),
    Message('note_off', channel=1, note=47, velocity=64, time=172),
    Message('note_on', channel=1, note=47, velocity=107, time=20),
    Message('note_off', channel=1, note=47, velocity=64, time=230),
    Message('note_on', channel=1, note=40, velocity=107, time=58),
    Message('note_off', channel=1, note=40, velocity=64, time=153),
    Message('note_on', channel=1, note=40, velocity=107, time=135),
    Message('note_off', channel=1, note=40, velocity=64, time=76),
    Message('note_on', channel=1, note=40, velocity=107, time=20),
    Message('note_off', channel=1, note=40, velocity=64, time=76),
    Message('note_on', channel=1, note=40, velocity=107, time=20),
    Message('note_off', channel=1, note=40, velocity=64, time=153),
    Message('note_on', channel=1, note=40, velocity=107, time=39),
    Message('note_off', channel=1, note=40, velocity=64, time=76),
    Message('note_on', channel=1, note=45, velocity=107, time=20),
    Message('note_off', channel=1, note=45, velocity=64, time=153),
    Message('note_on', channel=1, note=45, velocity=107, time=39),
    Message('note_off', channel=1, note=45, velocity=64, time=76),
    Message('note_on', channel=1, note=45, velocity=107, time=20),
    Message('note_off', channel=1, note=45, velocity=64, time=76),
    Message('note_on', channel=1, note=40, velocity=107, time=20),
    Message('note_off', channel=1, note=40, velocity=64, time=76),
    Message('note_on', channel=1, note=45, velocity=107, time=20),
    Message('note_off', channel=1, note=45, velocity=64, time=76),
    Message('note_on', channel=1, note=40, velocity=107, time=212),
    Message('note_off', channel=1, note=40, velocity=64, time=153),
    Message('note_on', channel=1, note=40, velocity=107, time=135),
    Message('note_off', channel=1, note=40, velocity=64, time=76),
    Message('note_on', channel=1, note=40, velocity=107, time=116),
    Message('note_off', channel=1, note=40, velocity=64, time=76),
    Message('note_on', channel=1, note=42, velocity=107, time=20),
    Message('note_off', channel=1, note=42, velocity=64, time=76),
    Message('note_on', channel=1, note=43, velocity=107, time=20),
    Message('note_off', channel=1, note=43, velocity=64, time=76),
    Message('note_on', channel=1, note=45, velocity=107, time=20),
    Message('note_off', channel=1, note=45, velocity=64, time=153),
    Message('note_on', channel=1, note=45, velocity=107, time=135),
    Message('note_off', channel=1, note=45, velocity=64, time=172),
    Message('note_on', channel=1, note=45, velocity=107, time=20),
    Message('note_off', channel=1, note=45, velocity=64, time=76),
    Message('note_on', channel=1, note=43, velocity=107, time=20),
    Message('note_off', channel=1, note=43, velocity=64, time=76),
    Message('note_on', channel=1, note=42, velocity=107, time=20),
    Message('note_off', channel=1, note=42, velocity=64, time=76),
    Message('note_on', channel=1, note=40, velocity=107, time=20),
    Message('note_off', channel=1, note=40, velocity=64, time=153),
    Message('note_on', channel=1, note=40, velocity=107, time=39),
    Message('note_off', channel=1, note=40, velocity=64, time=153),
    Message('note_on', channel=1, note=40, velocity=107, time=135),
    Message('note_off', channel=1, note=40, velocity=64, time=76),
    Message('note_on', channel=1, note=42, velocity=107, time=20),
    Message('note_off', channel=1, note=42, velocity=64, time=76),
    Message('note_on', channel=1, note=43, velocity=107, time=20),
    Message('note_off', channel=1, note=43, velocity=64, time=76),
    Message('note_on', channel=1, note=45, velocity=107, time=20),
    Message('note_off', channel=1, note=45, velocity=64, time=153),
    Message('note_on', channel=1, note=45, velocity=107, time=135),
    Message('note_off', channel=1, note=45, velocity=64, time=172),
    Message('note_on', channel=1, note=45, velocity=107, time=20),
    Message('note_off', channel=1, note=45, velocity=64, time=76),
    Message('note_on', channel=1, note=43, velocity=107, time=20),
    Message('note_off', channel=1, note=43, velocity=64, time=76),
    Message('note_on', channel=1, note=42, velocity=107, time=20),
    Message('note_off', channel=1, note=42, velocity=64, time=76),
    Message('note_on', channel=1, note=40, velocity=107, time=20),
    Message('note_off', channel=1, note=40, velocity=64, time=153),
    Message('note_on', channel=1, note=40, velocity=107, time=39),
    Message('note_off', channel=1, note=40, velocity=64, time=153),
    Message('note_on', channel=1, note=40, velocity=107, time=135),
    Message('note_off', channel=1, note=40, velocity=64, time=76),
    Message('note_on', channel=1, note=42, velocity=107, time=20),
    Message('note_off', channel=1, note=42, velocity=64, time=76),
    Message('note_on', channel=1, note=43, velocity=107, time=20),
    Message('note_off', channel=1, note=43, velocity=64, time=76),
    Message('note_on', channel=1, note=45, velocity=107, time=20),
    Message('note_off', channel=1, note=45, velocity=64, time=153),
    Message('note_on', channel=1, note=45, velocity=107, time=135),
    Message('note_off', channel=1, note=45, velocity=64, time=172),
    Message('note_on', channel=1, note=45, velocity=107, time=20),
    Message('note_off', channel=1, note=45, velocity=64, time=76),
    Message('note_on', channel=1, note=43, velocity=107, time=20),
    Message('note_off', channel=1, note=43, velocity=64, time=76),
    Message('note_on', channel=1, note=42, velocity=107, time=20),
    Message('note_off', channel=1, note=42, velocity=64, time=76),
    Message('note_on', channel=1, note=40, velocity=102, time=20),
    Message('note_off', channel=1, note=40, velocity=64, time=153),
    Message('note_on', channel=1, note=40, velocity=102, time=39),
    Message('note_off', channel=1, note=40, velocity=64, time=153),
    Message('note_on', channel=1, note=40, velocity=102, time=135),
    Message('note_off', channel=1, note=40, velocity=64, time=76),
    Message('note_on', channel=1, note=42, velocity=102, time=20),
    Message('note_off', channel=1, note=42, velocity=64, time=76),
    Message('note_on', channel=1, note=43, velocity=102, time=20),
    Message('note_off', channel=1, note=43, velocity=64, time=76),
    Message('note_on', channel=1, note=45, velocity=107, time=20),
    Message('note_off', channel=1, note=45, velocity=64, time=153),
    Message('note_on', channel=1, note=45, velocity=107, time=135),
    Message('note_off', channel=1, note=45, velocity=64, time=172),
    Message('note_on', channel=1, note=45, velocity=107, time=20),
    Message('note_off', channel=1, note=45, velocity=64, time=76),
    Message('note_on', channel=1, note=43, velocity=107, time=20),
    Message('note_off', channel=1, note=43, velocity=64, time=76),
    Message('note_on', channel=1, note=42, velocity=107, time=20),
    Message('note_off', channel=1, note=42, velocity=64, time=76),
    Message('control_change', channel=1, control=7, value=114, time=20),
    Message('note_on', channel=1, note=40, velocity=107, time=0),
    Message('control_change', channel=1, control=7, value=113, time=48),
    Message('control_change', channel=1, control=7, value=112, time=48),
    Message('control_change', channel=1, control=7, value=111, time=48),
    Message('note_off', channel=1, note=40, velocity=64, time=9),
    Message('control_change', channel=1, control=7, value=110, time=15),
    Message('note_on', channel=1, note=40, velocity=107, time=24),
    Message('control_change', channel=1, control=7, value=109, time=24),
    Message('control_change', channel=1, control=7, value=108, time=48),
    Message('control_change', channel=1, control=7, value=107, time=24),
    Message('control_change', channel=1, control=7, value=106, time=48),
    Message('note_off', channel=1, note=40, velocity=64, time=9),
    Message('control_change', channel=1, control=7, value=105, time=39),
    Message('control_change', channel=1, control=7, value=104, time=24),
    Message('control_change', channel=1, control=7, value=103, time=48),
    Message('note_on', channel=1, note=40, velocity=107, time=24),
    Message('control_change', channel=1, control=7, value=102, time=24),
    Message('control_change', channel=1, control=7, value=101, time=24),
    Message('note_off', channel=1, note=40, velocity=64, time=28),
    Message('control_change', channel=1, control=7, value=100, time=20),
    Message('note_on', channel=1, note=42, velocity=107, time=0),
    Message('control_change', channel=1, control=7, value=99, time=48),
    Message('control_change', channel=1, control=7, value=98, time=24),
    Message('note_off', channel=1, note=42, velocity=64, time=4),
    Message('note_on', channel=1, note=43, velocity=107, time=20),
    Message('control_change', channel=1, control=7, value=97, time=24),
    Message('control_change', channel=1, control=7, value=96, time=48),
    Message('note_off', channel=1, note=43, velocity=64, time=4),
    Message('control_change', channel=1, control=7, value=95, time=20),
    Message('note_on', channel=1, note=45, velocity=107, time=0),
    Message('control_change', channel=1, control=7, value=94, time=48),
    Message('control_change', channel=1, control=7, value=93, time=48),
    Message('control_change', channel=1, control=7, value=92, time=48),
    Message('note_off', channel=1, note=45, velocity=64, time=9),
    Message('control_change', channel=1, control=7, value=91, time=15),
    Message('control_change', channel=1, control=7, value=90, time=48),
    Message('control_change', channel=1, control=7, value=89, time=48),
    Message('control_change', channel=1, control=7, value=88, time=24),
    Message('note_on', channel=1, note=45, velocity=107, time=0),
    Message('control_change', channel=1, control=7, value=87, time=48),
    Message('control_change', channel=1, control=7, value=86, time=48),
    Message('control_change', channel=1, control=7, value=85, time=24),
    Message('control_change', channel=1, control=7, value=84, time=48),
    Message('note_off', channel=1, note=45, velocity=64, time=4),
    Message('note_on', channel=1, note=45, velocity=107, time=20),
    Message('control_change', channel=1, control=7, value=83, time=24),
    Message('control_change', channel=1, control=7, value=82, time=24),
    Message('note_off', channel=1, note=45, velocity=64, time=28),
    Message('control_change', channel=1, control=7, value=81, time=20),
    Message('note_on', channel=1, note=43, velocity=107, time=0),
    Message('control_change', channel=1, control=7, value=80, time=48),
    Message('control_change', channel=1, control=7, value=79, time=24),
    Message('note_off', channel=1, note=43, velocity=64, time=4),
    Message('note_on', channel=1, note=42, velocity=107, time=20),
    Message('control_change', channel=1, control=7, value=78, time=24),
    Message('control_change', channel=1, control=7, value=77, time=48),
    Message('note_off', channel=1, note=42, velocity=64, time=4),
    Message('control_change', channel=1, control=7, value=76, time=20),
    Message('note_on', channel=1, note=40, velocity=107, time=0),
    Message('control_change', channel=1, control=7, value=75, time=48),
    Message('control_change', channel=1, control=7, value=74, time=48),
    Message('control_change', channel=1, control=7, value=73, time=48),
    Message('note_off', channel=1, note=40, velocity=64, time=9),
    Message('control_change', channel=1, control=7, value=72, time=15),
    Message('note_on', channel=1, note=40, velocity=107, time=24),
    Message('control_change', channel=1, control=7, value=71, time=24),
    Message('control_change', channel=1, control=7, value=70, time=48),
    Message('control_change', channel=1, control=7, value=69, time=24),
    Message('control_change', channel=1, control=7, value=68, time=48),
    Message('note_off', channel=1, note=40, velocity=64, time=9),
    Message('control_change', channel=1, control=7, value=67, time=39),
    Message('control_change', channel=1, control=7, value=66, time=24),
    Message('control_change', channel=1, control=7, value=65, time=48),
    Message('note_on', channel=1, note=40, velocity=107, time=24),
    Message('control_change', channel=1, control=7, value=64, time=24),
    Message('control_change', channel=1, control=7, value=63, time=24),
    Message('note_off', channel=1, note=40, velocity=64, time=28),
    Message('control_change', channel=1, control=7, value=62, time=20),
    Message('note_on', channel=1, note=42, velocity=107, time=0),
    Message('control_change', channel=1, control=7, value=61, time=48),
    Message('control_change', channel=1, control=7, value=60, time=24),
    Message('note_off', channel=1, note=42, velocity=64, time=4),
    Message('note_on', channel=1, note=43, velocity=107, time=20),
    Message('control_change', channel=1, control=7, value=59, time=24),
    Message('control_change', channel=1, control=7, value=58, time=48),
    Message('note_off', channel=1, note=43, velocity=64, time=4),
    Message('control_change', channel=1, control=7, value=57, time=20),
    Message('note_on', channel=1, note=45, velocity=107, time=0),
    Message('control_change', channel=1, control=7, value=56, time=48),
    Message('control_change', channel=1, control=7, value=55, time=48),
    Message('control_change', channel=1, control=7, value=54, time=48),
    Message('note_off', channel=1, note=45, velocity=64, time=9),
    Message('control_change', channel=1, control=7, value=53, time=15),
    Message('control_change', channel=1, control=7, value=52, time=48),
    Message('control_change', channel=1, control=7, value=51, time=48),
    Message('control_change', channel=1, control=7, value=50, time=24),
    Message('note_on', channel=1, note=45, velocity=107, time=0),
    Message('control_change', channel=1, control=7, value=49, time=48),
    Message('control_change', channel=1, control=7, value=48, time=48),
    Message('control_change', channel=1, control=7, value=47, time=24),
    Message('control_change', channel=1, control=7, value=46, time=48),
    Message('note_off', channel=1, note=45, velocity=64, time=4),
    Message('note_on', channel=1, note=45, velocity=107, time=20),
    Message('control_change', channel=1, control=7, value=45, time=24),
    Message('control_change', channel=1, control=7, value=44, time=24),
    Message('note_off', channel=1, note=45, velocity=64, time=28),
    Message('control_change', channel=1, control=7, value=43, time=20),
    Message('note_on', channel=1, note=43, velocity=107, time=0),
    Message('control_change', channel=1, control=7, value=42, time=48),
    Message('control_change', channel=1, control=7, value=41, time=24),
    Message('note_off', channel=1, note=43, velocity=64, time=4),
    Message('note_on', channel=1, note=42, velocity=107, time=20),
    Message('control_change', channel=1, control=7, value=40, time=24),
    Message('control_change', channel=1, control=7, value=39, time=48),
    Message('note_off', channel=1, note=42, velocity=64, time=4),
    Message('control_change', channel=1, control=7, value=38, time=20),
    Message('note_on', channel=1, note=40, velocity=107, time=0),
    Message('control_change', channel=1, control=7, value=37, time=48),
    Message('control_change', channel=1, control=7, value=36, time=48),
    Message('control_change', channel=1, control=7, value=35, time=48),
    Message('note_off', channel=1, note=40, velocity=64, time=9),
    Message('control_change', channel=1, control=7, value=34, time=15),
    Message('note_on', channel=1, note=40, velocity=107, time=24),
    Message('control_change', channel=1, control=7, value=33, time=24),
    Message('control_change', channel=1, control=7, value=32, time=48),
    Message('control_change', channel=1, control=7, value=31, time=24),
    Message('control_change', channel=1, control=7, value=30, time=48),
    Message('note_off', channel=1, note=40, velocity=64, time=9),
    Message('control_change', channel=1, control=7, value=29, time=39),
    Message('control_change', channel=1, control=7, value=28, time=24),
    Message('control_change', channel=1, control=7, value=27, time=48),
    Message('note_on', channel=1, note=40, velocity=107, time=24),
    Message('control_change', channel=1, control=7, value=26, time=24),
    Message('control_change', channel=1, control=7, value=25, time=24),
    Message('note_off', channel=1, note=40, velocity=64, time=28),
    Message('control_change', channel=1, control=7, value=24, time=20),
    Message('note_on', channel=1, note=42, velocity=107, time=0),
    Message('control_change', channel=1, control=7, value=23, time=48),
    Message('control_change', channel=1, control=7, value=22, time=24),
    Message('note_off', channel=1, note=42, velocity=64, time=4),
    Message('note_on', channel=1, note=43, velocity=107, time=20),
    Message('control_change', channel=1, control=7, value=21, time=24),
    Message('control_change', channel=1, control=7, value=20, time=48),
    Message('note_off', channel=1, note=43, velocity=64, time=4),
    Message('control_change', channel=1, control=7, value=19, time=20),
    Message('note_on', channel=1, note=45, velocity=107, time=0),
    Message('control_change', channel=1, control=7, value=18, time=96),
    Message('note_off', channel=1, note=45, velocity=64, time=57),
    Message('control_change', channel=1, control=7, value=17, time=15),
    Message('control_change', channel=1, control=7, value=16, time=72),
    Message('note_on', channel=1, note=45, velocity=107, time=48),
    Message('control_change', channel=1, control=7, value=15, time=24),
    Message('control_change', channel=1, control=7, value=14, time=72),
    Message('note_off', channel=1, note=45, velocity=64, time=76),
    Message('control_change', channel=1, control=7, value=13, time=20),
    Message('note_on', channel=1, note=45, velocity=107, time=0),
    Message('control_change', channel=1, control=7, value=12, time=72),
    Message('note_off', channel=1, note=45, velocity=64, time=4),
    Message('note_on', channel=1, note=43, velocity=107, time=20),
    Message('control_change', channel=1, control=7, value=11, time=48),
    Message('note_off', channel=1, note=43, velocity=64, time=28),
    Message('note_on', channel=1, note=42, velocity=107, time=20),
    Message('control_change', channel=1, control=7, value=10, time=24),
    Message('note_off', channel=1, note=42, velocity=64, time=52),
    Message('control_change', channel=1, control=7, value=9, time=20),
    Message('note_on', channel=1, note=40, velocity=107, time=0),
    Message('control_change', channel=1, control=7, value=8, time=96),
    Message('note_off', channel=1, note=40, velocity=64, time=57),
    Message('control_change', channel=1, control=7, value=7, time=15),
    Message('note_on', channel=1, note=40, velocity=107, time=24),
    Message('control_change', channel=1, control=7, value=6, time=48),
    Message('control_change', channel=1, control=7, value=5, time=72),
    Message('note_off', channel=1, note=40, velocity=64, time=33),
    Message('control_change', channel=1, control=7, value=4, time=39),
    Message('control_change', channel=1, control=7, value=3, time=96),
    Message('note_on', channel=1, note=40, velocity=107, time=0),
    Message('control_change', channel=1, control=7, value=2, time=72),
    Message('note_off', channel=1, note=40, velocity=64, time=4),
    Message('note_on', channel=1, note=42, velocity=107, time=20),
    Message('control_change', channel=1, control=7, value=1, time=48),
    Message('note_off', channel=1, note=42, velocity=64, time=28),
    Message('note_on', channel=1, note=43, velocity=107, time=20),
    Message('control_change', channel=1, control=7, value=0, time=24),
    Message('note_off', channel=1, note=43, velocity=64, time=52),
    Message('pitchwheel', channel=1, pitch=0, time=788),
    Message('polytouch', channel=1, note=64, value=0, time=0),
    Message('aftertouch', channel=1, value=0, time=0),
    Message('control_change', channel=1, control=1, value=0, time=0),
    Message('control_change', channel=1, control=2, value=0, time=0),
    Message('control_change', channel=1, control=4, value=0, time=0),
    Message('control_change', channel=1, control=7, value=100, time=0),
    Message('control_change', channel=1, control=8, value=0, time=0),
    Message('control_change', channel=1, control=10, value=63, time=0),
    Message('control_change', channel=1, control=64, value=0, time=0),
    Message('control_change', channel=1, control=65, value=0, time=0),
    Message('control_change', channel=1, control=66, value=0, time=0),
    Message('control_change', channel=1, control=67, value=0, time=0),
    Message('control_change', channel=1, control=68, value=0, time=0),
    MetaMessage('end_of_track', time=0)]),
  MidiTrack([
    MetaMessage('midi_port', port=0, time=0),
    MetaMessage('track_name', name='Bass 2              ', time=0),
    Message('program_change', channel=5, program=7, time=0),
    Message('control_change', channel=5, control=7, value=105, time=0),
    Message('control_change', channel=5, control=10, value=79, time=0),
    Message('control_change', channel=5, control=1, value=0, time=0),
    Message('pitchwheel', channel=5, pitch=45, time=0),
    Message('control_change', channel=5, control=7, value=106, time=264),
    Message('control_change', channel=5, control=7, value=107, time=264),
    Message('control_change', channel=5, control=7, value=108, time=239),
    Message('note_on', channel=5, note=40, velocity=103, time=481),
    Message('note_off', channel=5, note=40, velocity=64, time=76),
    Message('note_on', channel=5, note=42, velocity=103, time=20),
    Message('note_off', channel=5, note=42, velocity=64, time=76),
    Message('note_on', channel=5, note=43, velocity=103, time=20),
    Message('note_off', channel=5, note=43, velocity=64, time=76),
    Message('note_on', channel=5, note=45, velocity=103, time=20),
    Message('note_off', channel=5, note=45, velocity=64, time=153),
    Message('note_on', channel=5, note=45, velocity=103, time=135),
    Message('note_off', channel=5, note=45, velocity=64, time=76),
    Message('note_on', channel=5, note=45, velocity=103, time=116),
    Message('note_off', channel=5, note=45, velocity=64, time=76),
    Message('note_on', channel=5, note=43, velocity=103, time=20),
    Message('note_off', channel=5, note=43, velocity=64, time=76),
    Message('note_on', channel=5, note=42, velocity=103, time=20),
    Message('note_off', channel=5, note=42, velocity=64, time=76),
    Message('note_on', channel=5, note=40, velocity=103, time=20),
    Message('note_off', channel=5, note=40, velocity=64, time=153),
    Message('note_on', channel=5, note=40, velocity=103, time=135),
    Message('note_off', channel=5, note=40, velocity=64, time=76),
    Message('note_on', channel=5, note=40, velocity=103, time=116),
    Message('note_off', channel=5, note=40, velocity=64, time=76),
    Message('note_on', channel=5, note=42, velocity=103, time=20),
    Message('note_off', channel=5, note=42, velocity=64, time=76),
    Message('note_on', channel=5, note=43, velocity=103, time=20),
    Message('note_off', channel=5, note=43, velocity=64, time=76),
    Message('note_on', channel=5, note=45, velocity=103, time=20),
    Message('note_off', channel=5, note=45, velocity=64, time=153),
    Message('note_on', channel=5, note=45, velocity=103, time=135),
    Message('note_off', channel=5, note=45, velocity=64, time=76),
    Message('note_on', channel=5, note=45, velocity=103, time=116),
    Message('note_off', channel=5, note=45, velocity=64, time=76),
    Message('note_on', channel=5, note=43, velocity=103, time=20),
    Message('note_off', channel=5, note=43, velocity=64, time=76),
    Message('note_on', channel=5, note=42, velocity=103, time=20),
    Message('note_off', channel=5, note=42, velocity=64, time=76),
    Message('note_on', channel=5, note=40, velocity=103, time=20),
    Message('note_off', channel=5, note=40, velocity=64, time=153),
    Message('note_on', channel=5, note=40, velocity=103, time=135),
    Message('note_off', channel=5, note=40, velocity=64, time=76),
    Message('note_on', channel=5, note=40, velocity=103, time=116),
    Message('note_off', channel=5, note=40, velocity=64, time=76),
    Message('note_on', channel=5, note=42, velocity=103, time=20),
    Message('note_off', channel=5, note=42, velocity=64, time=76),
    Message('note_on', channel=5, note=43, velocity=103, time=20),
    Message('note_off', channel=5, note=43, velocity=64, time=76),
    Message('note_on', channel=5, note=45, velocity=103, time=20),
    Message('note_off', channel=5, note=45, velocity=64, time=153),
    Message('note_on', channel=5, note=45, velocity=103, time=135),
    Message('note_off', channel=5, note=45, velocity=64, time=76),
    Message('note_on', channel=5, note=45, velocity=103, time=116),
    Message('note_off', channel=5, note=45, velocity=64, time=76),
    Message('note_on', channel=5, note=43, velocity=103, time=20),
    Message('note_off', channel=5, note=43, velocity=64, time=76),
    Message('note_on', channel=5, note=42, velocity=103, time=20),
    Message('note_off', channel=5, note=42, velocity=64, time=76),
    Message('note_on', channel=5, note=40, velocity=103, time=20),
    Message('note_off', channel=5, note=40, velocity=64, time=153),
    Message('note_on', channel=5, note=40, velocity=103, time=135),
    Message('note_off', channel=5, note=40, velocity=64, time=76),
    Message('note_on', channel=5, note=40, velocity=103, time=116),
    Message('note_off', channel=5, note=40, velocity=64, time=76),
    Message('note_on', channel=5, note=42, velocity=103, time=20),
    Message('note_off', channel=5, note=42, velocity=64, time=76),
    Message('note_on', channel=5, note=43, velocity=103, time=20),
    Message('note_off', channel=5, note=43, velocity=64, time=76),
    Message('note_on', channel=5, note=45, velocity=103, time=20),
    Message('note_off', channel=5, note=45, velocity=64, time=153),
    Message('note_on', channel=5, note=45, velocity=103, time=135),
    Message('note_off', channel=5, note=45, velocity=64, time=76),
    Message('note_on', channel=5, note=45, velocity=103, time=116),
    Message('note_off', channel=5, note=45, velocity=64, time=76),
    Message('note_on', channel=5, note=43, velocity=103, time=20),
    Message('note_off', channel=5, note=43, velocity=64, time=76),
    Message('note_on', channel=5, note=42, velocity=103, time=20),
    Message('note_off', channel=5, note=42, velocity=64, time=76),
    Message('note_on', channel=5, note=40, velocity=97, time=20),
    Message('note_off', channel=5, note=40, velocity=64, time=153),
    Message('note_on', channel=5, note=40, velocity=97, time=135),
    Message('note_off', channel=5, note=40, velocity=64, time=76),
    Message('note_on', channel=5, note=35, velocity=97, time=20),
    Message('note_off', channel=5, note=35, velocity=64, time=153),
    Message('note_on', channel=5, note=40, velocity=97, time=231),
    Message('note_off', channel=5, note=40, velocity=64, time=153),
    Message('note_on', channel=5, note=40, velocity=97, time=135),
    Message('note_off', channel=5, note=40, velocity=64, time=76),
    Message('note_on', channel=5, note=37, velocity=97, time=20),
    Message('note_off', channel=5, note=37, velocity=64, time=76),
    Message('note_on', channel=5, note=40, velocity=97, time=20),
    Message('note_off', channel=5, note=40, velocity=64, time=76),
    Message('note_on', channel=5, note=45, velocity=97, time=212),
    Message('note_off', channel=5, note=45, velocity=64, time=153),
    Message('note_on', channel=5, note=45, velocity=97, time=135),
    Message('note_off', channel=5, note=45, velocity=64, time=76),
    Message('note_on', channel=5, note=40, velocity=97, time=20),
    Message('note_off', channel=5, note=40, velocity=64, time=153),
    Message('note_on', channel=5, note=45, velocity=97, time=39),
    Message('note_off', channel=5, note=45, velocity=64, time=153),
    Message('note_on', channel=5, note=45, velocity=97, time=39),
    Message('note_off', channel=5, note=45, velocity=64, time=153),
    Message('note_on', channel=5, note=45, velocity=97, time=39),
    Message('note_off', channel=5, note=45, velocity=64, time=76),
    Message('note_on', channel=5, note=45, velocity=97, time=20),
    Message('note_off', channel=5, note=45, velocity=64, time=76),
    Message('note_on', channel=5, note=40, velocity=97, time=20),
    Message('note_off', channel=5, note=40, velocity=64, time=76),
    Message('note_on', channel=5, note=45, velocity=97, time=20),
    Message('note_off', channel=5, note=45, velocity=64, time=76),
    Message('note_on', channel=5, note=40, velocity=97, time=212),
    Message('note_off', channel=5, note=40, velocity=64, time=153),
    Message('note_on', channel=5, note=40, velocity=97, time=135),
    Message('note_off', channel=5, note=40, velocity=64, time=76),
    Message('note_on', channel=5, note=35, velocity=97, time=20),
    Message('note_off', channel=5, note=35, velocity=64, time=153),
    Message('note_on', channel=5, note=40, velocity=97, time=231),
    Message('note_off', channel=5, note=40, velocity=64, time=153),
    Message('note_on', channel=5, note=40, velocity=97, time=135),
    Message('note_off', channel=5, note=40, velocity=64, time=76),
    Message('note_on', channel=5, note=35, velocity=97, time=20),
    Message('note_off', channel=5, note=35, velocity=64, time=153),
    Message('note_on', channel=5, note=45, velocity=97, time=231),
    Message('note_off', channel=5, note=45, velocity=64, time=153),
    Message('note_on', channel=5, note=45, velocity=97, time=135),
    Message('note_off', channel=5, note=45, velocity=64, time=76),
    Message('note_on', channel=5, note=40, velocity=97, time=20),
    Message('note_off', channel=5, note=40, velocity=64, time=76),
    Message('note_on', channel=5, note=45, velocity=97, time=20),
    Message('note_off', channel=5, note=45, velocity=64, time=153),
    Message('note_on', channel=5, note=45, velocity=97, time=39),
    Message('note_off', channel=5, note=45, velocity=64, time=76),
    Message('note_on', channel=5, note=45, velocity=97, time=20),
    Message('note_off', channel=5, note=45, velocity=64, time=153),
    Message('note_on', channel=5, note=45, velocity=97, time=135),
    Message('note_off', channel=5, note=45, velocity=64, time=76),
    Message('note_on', channel=5, note=40, velocity=97, time=20),
    Message('note_off', channel=5, note=40, velocity=64, time=76),
    Message('note_on', channel=5, note=45, velocity=97, time=20),
    Message('note_off', channel=5, note=45, velocity=64, time=76),
    Message('note_on', channel=5, note=40, velocity=97, time=116),
    Message('note_off', channel=5, note=40, velocity=64, time=76),
    Message('note_on', channel=5, note=40, velocity=97, time=20),
    Message('note_off', channel=5, note=40, velocity=64, time=153),
    Message('note_on', channel=5, note=40, velocity=97, time=39),
    Message('note_off', channel=5, note=40, velocity=64, time=76),
    Message('note_on', channel=5, note=40, velocity=97, time=20),
    Message('note_off', channel=5, note=40, velocity=64, time=76),
    Message('note_on', channel=5, note=37, velocity=97, time=20),
    Message('note_off', channel=5, note=37, velocity=64, time=153),
    Message('note_on', channel=5, note=40, velocity=97, time=39),
    Message('note_off', channel=5, note=40, velocity=64, time=153),
    Message('note_on', channel=5, note=47, velocity=97, time=39),
    Message('note_off', channel=5, note=47, velocity=64, time=76),
    Message('note_on', channel=5, note=47, velocity=97, time=20),
    Message('note_off', channel=5, note=47, velocity=64, time=76),
    Message('note_on', channel=5, note=47, velocity=97, time=20),
    Message('note_off', channel=5, note=47, velocity=64, time=76),
    Message('note_on', channel=5, note=47, velocity=97, time=20),
    Message('note_off', channel=5, note=47, velocity=64, time=172),
    Message('note_on', channel=5, note=47, velocity=97, time=20),
    Message('note_off', channel=5, note=47, velocity=64, time=230),
    Message('note_on', channel=5, note=40, velocity=97, time=58),
    Message('note_off', channel=5, note=40, velocity=64, time=153),
    Message('note_on', channel=5, note=40, velocity=97, time=135),
    Message('note_off', channel=5, note=40, velocity=64, time=76),
    Message('note_on', channel=5, note=40, velocity=97, time=20),
    Message('note_off', channel=5, note=40, velocity=64, time=76),
    Message('note_on', channel=5, note=40, velocity=97, time=20),
    Message('note_off', channel=5, note=40, velocity=64, time=153),
    Message('note_on', channel=5, note=40, velocity=97, time=39),
    Message('note_off', channel=5, note=40, velocity=64, time=76),
    Message('note_on', channel=5, note=45, velocity=97, time=20),
    Message('note_off', channel=5, note=45, velocity=64, time=153),
    Message('note_on', channel=5, note=45, velocity=97, time=39),
    Message('note_off', channel=5, note=45, velocity=64, time=76),
    Message('note_on', channel=5, note=45, velocity=97, time=20),
    Message('note_off', channel=5, note=45, velocity=64, time=76),
    Message('note_on', channel=5, note=40, velocity=97, time=20),
    Message('note_off', channel=5, note=40, velocity=64, time=76),
    Message('note_on', channel=5, note=45, velocity=97, time=20),
    Message('note_off', channel=5, note=45, velocity=64, time=76),
    Message('note_on', channel=5, note=40, velocity=97, time=212),
    Message('note_off', channel=5, note=40, velocity=64, time=153),
    Message('note_on', channel=5, note=40, velocity=97, time=135),
    Message('note_off', channel=5, note=40, velocity=64, time=76),
    Message('note_on', channel=5, note=40, velocity=97, time=116),
    Message('note_off', channel=5, note=40, velocity=64, time=76),
    Message('note_on', channel=5, note=42, velocity=97, time=20),
    Message('note_off', channel=5, note=42, velocity=64, time=76),
    Message('note_on', channel=5, note=43, velocity=97, time=20),
    Message('note_off', channel=5, note=43, velocity=64, time=76),
    Message('note_on', channel=5, note=45, velocity=97, time=20),
    Message('note_off', channel=5, note=45, velocity=64, time=153),
    Message('note_on', channel=5, note=45, velocity=97, time=135),
    Message('note_off', channel=5, note=45, velocity=64, time=172),
    Message('note_on', channel=5, note=45, velocity=97, time=20),
    Message('note_off', channel=5, note=45, velocity=64, time=76),
    Message('note_on', channel=5, note=43, velocity=97, time=20),
    Message('note_off', channel=5, note=43, velocity=64, time=76),
    Message('note_on', channel=5, note=42, velocity=97, time=20),
    Message('note_off', channel=5, note=42, velocity=64, time=76),
    Message('note_on', channel=5, note=40, velocity=97, time=20),
    Message('note_off', channel=5, note=40, velocity=64, time=153),
    Message('note_on', channel=5, note=40, velocity=97, time=135),
    Message('note_off', channel=5, note=40, velocity=64, time=76),
    Message('note_on', channel=5, note=40, velocity=97, time=116),
    Message('note_off', channel=5, note=40, velocity=64, time=76),
    Message('note_on', channel=5, note=42, velocity=97, time=20),
    Message('note_off', channel=5, note=42, velocity=64, time=76),
    Message('note_on', channel=5, note=43, velocity=97, time=20),
    Message('note_off', channel=5, note=43, velocity=64, time=76),
    Message('note_on', channel=5, note=45, velocity=97, time=20),
    Message('note_off', channel=5, note=45, velocity=64, time=153),
    Message('note_on', channel=5, note=45, velocity=97, time=135),
    Message('note_off', channel=5, note=45, velocity=64, time=172),
    Message('note_on', channel=5, note=45, velocity=97, time=20),
    Message('note_off', channel=5, note=45, velocity=64, time=76),
    Message('note_on', channel=5, note=43, velocity=97, time=20),
    Message('note_off', channel=5, note=43, velocity=64, time=76),
    Message('note_on', channel=5, note=42, velocity=97, time=20),
    Message('note_off', channel=5, note=42, velocity=64, time=76),
    Message('note_on', channel=5, note=40, velocity=97, time=20),
    Message('note_off', channel=5, note=40, velocity=64, time=153),
    Message('note_on', channel=5, note=40, velocity=97, time=135),
    Message('note_off', channel=5, note=40, velocity=64, time=76),
    Message('note_on', channel=5, note=40, velocity=97, time=116),
    Message('note_off', channel=5, note=40, velocity=64, time=76),
    Message('note_on', channel=5, note=42, velocity=97, time=20),
    Message('note_off', channel=5, note=42, velocity=64, time=76),
    Message('note_on', channel=5, note=43, velocity=97, time=20),
    Message('note_off', channel=5, note=43, velocity=64, time=76),
    Message('note_on', channel=5, note=45, velocity=97, time=20),
    Message('note_off', channel=5, note=45, velocity=64, time=153),
    Message('note_on', channel=5, note=45, velocity=97, time=135),
    Message('note_off', channel=5, note=45, velocity=64, time=172),
    Message('note_on', channel=5, note=45, velocity=97, time=20),
    Message('note_off', channel=5, note=45, velocity=64, time=76),
    Message('note_on', channel=5, note=43, velocity=97, time=20),
    Message('note_off', channel=5, note=43, velocity=64, time=76),
    Message('note_on', channel=5, note=42, velocity=97, time=20),
    Message('note_off', channel=5, note=42, velocity=64, time=76),
    Message('note_on', channel=5, note=40, velocity=97, time=20),
    Message('note_off', channel=5, note=40, velocity=64, time=153),
    Message('note_on', channel=5, note=40, velocity=97, time=135),
    Message('note_off', channel=5, note=40, velocity=64, time=76),
    Message('note_on', channel=5, note=40, velocity=97, time=116),
    Message('note_off', channel=5, note=40, velocity=64, time=76),
    Message('note_on', channel=5, note=42, velocity=97, time=20),
    Message('note_off', channel=5, note=42, velocity=64, time=76),
    Message('note_on', channel=5, note=43, velocity=97, time=20),
    Message('note_off', channel=5, note=43, velocity=64, time=76),
    Message('note_on', channel=5, note=45, velocity=97, time=20),
    Message('note_off', channel=5, note=45, velocity=64, time=153),
    Message('note_on', channel=5, note=45, velocity=97, time=135),
    Message('note_off', channel=5, note=45, velocity=64, time=172),
    Message('note_on', channel=5, note=45, velocity=97, time=20),
    Message('note_off', channel=5, note=45, velocity=64, time=76),
    Message('note_on', channel=5, note=43, velocity=97, time=20),
    Message('note_off', channel=5, note=43, velocity=64, time=76),
    Message('note_on', channel=5, note=42, velocity=97, time=20),
    Message('note_off', channel=5, note=42, velocity=64, time=76),
    Message('note_on', channel=5, note=40, velocity=97, time=20),
    Message('note_off', channel=5, note=40, velocity=64, time=153),
    Message('note_on', channel=5, note=40, velocity=97, time=135),
    Message('note_off', channel=5, note=40, velocity=64, time=76),
    Message('note_on', channel=5, note=40, velocity=97, time=116),
    Message('note_off', channel=5, note=40, velocity=64, time=76),
    Message('note_on', channel=5, note=42, velocity=97, time=20),
    Message('note_off', channel=5, note=42, velocity=64, time=76),
    Message('note_on', channel=5, note=43, velocity=97, time=20),
    Message('note_off', channel=5, note=43, velocity=64, time=76),
    Message('note_on', channel=5, note=45, velocity=97, time=20),
    Message('note_off', channel=5, note=45, velocity=64, time=153),
    Message('note_on', channel=5, note=45, velocity=97, time=135),
    Message('note_off', channel=5, note=45, velocity=64, time=172),
    Message('note_on', channel=5, note=45, velocity=97, time=20),
    Message('note_off', channel=5, note=45, velocity=64, time=76),
    Message('note_on', channel=5, note=43, velocity=97, time=20),
    Message('note_off', channel=5, note=43, velocity=64, time=76),
    Message('note_on', channel=5, note=42, velocity=97, time=20),
    Message('note_off', channel=5, note=42, velocity=64, time=76),
    Message('note_on', channel=5, note=40, velocity=97, time=20),
    Message('note_off', channel=5, note=40, velocity=64, time=153),
    Message('note_on', channel=5, note=40, velocity=97, time=135),
    Message('note_off', channel=5, note=40, velocity=64, time=76),
    Message('note_on', channel=5, note=40, velocity=97, time=116),
    Message('note_off', channel=5, note=40, velocity=64, time=76),
    Message('note_on', channel=5, note=42, velocity=97, time=20),
    Message('note_off', channel=5, note=42, velocity=64, time=76),
    Message('note_on', channel=5, note=43, velocity=97, time=20),
    Message('note_off', channel=5, note=43, velocity=64, time=76),
    Message('note_on', channel=5, note=45, velocity=97, time=20),
    Message('note_off', channel=5, note=45, velocity=64, time=153),
    Message('note_on', channel=5, note=45, velocity=97, time=135),
    Message('note_off', channel=5, note=45, velocity=64, time=172),
    Message('note_on', channel=5, note=45, velocity=97, time=20),
    Message('note_off', channel=5, note=45, velocity=64, time=76),
    Message('note_on', channel=5, note=43, velocity=97, time=20),
    Message('note_off', channel=5, note=43, velocity=64, time=76),
    Message('note_on', channel=5, note=42, velocity=97, time=20),
    Message('note_off', channel=5, note=42, velocity=64, time=76),
    Message('note_on', channel=5, note=40, velocity=97, time=20),
    Message('note_off', channel=5, note=40, velocity=64, time=153),
    Message('note_on', channel=5, note=40, velocity=97, time=135),
    Message('note_off', channel=5, note=40, velocity=64, time=76),
    Message('note_on', channel=5, note=40, velocity=97, time=116),
    Message('note_off', channel=5, note=40, velocity=64, time=76),
    Message('note_on', channel=5, note=42, velocity=97, time=20),
    Message('note_off', channel=5, note=42, velocity=64, time=76),
    Message('note_on', channel=5, note=43, velocity=97, time=20),
    Message('note_off', channel=5, note=43, velocity=64, time=76),
    Message('note_on', channel=5, note=45, velocity=97, time=20),
    Message('note_off', channel=5, note=45, velocity=64, time=153),
    Message('note_on', channel=5, note=45, velocity=97, time=135),
    Message('note_off', channel=5, note=45, velocity=64, time=172),
    Message('note_on', channel=5, note=45, velocity=97, time=20),
    Message('note_off', channel=5, note=45, velocity=64, time=76),
    Message('note_on', channel=5, note=43, velocity=97, time=20),
    Message('note_off', channel=5, note=43, velocity=64, time=76),
    Message('note_on', channel=5, note=42, velocity=97, time=20),
    Message('note_off', channel=5, note=42, velocity=64, time=76),
    Message('note_on', channel=5, note=40, velocity=97, time=20),
    Message('note_off', channel=5, note=40, velocity=64, time=153),
    Message('note_on', channel=5, note=40, velocity=97, time=135),
    Message('note_off', channel=5, note=40, velocity=64, time=76),
    Message('note_on', channel=5, note=40, velocity=97, time=116),
    Message('note_off', channel=5, note=40, velocity=64, time=76),
    Message('note_on', channel=5, note=42, velocity=97, time=20),
    Message('note_off', channel=5, note=42, velocity=64, time=76),
    Message('note_on', channel=5, note=43, velocity=97, time=20),
    Message('note_off', channel=5, note=43, velocity=64, time=76),
    Message('note_on', channel=5, note=45, velocity=97, time=20),
    Message('note_off', channel=5, note=45, velocity=64, time=153),
    Message('note_on', channel=5, note=45, velocity=97, time=135),
    Message('note_off', channel=5, note=45, velocity=64, time=172),
    Message('note_on', channel=5, note=45, velocity=97, time=20),
    Message('note_off', channel=5, note=45, velocity=64, time=76),
    Message('note_on', channel=5, note=43, velocity=97, time=20),
    Message('note_off', channel=5, note=43, velocity=64, time=76),
    Message('note_on', channel=5, note=42, velocity=97, time=20),
    Message('note_off', channel=5, note=42, velocity=64, time=76),
    Message('note_on', channel=5, note=40, velocity=97, time=20),
    Message('note_off', channel=5, note=40, velocity=64, time=153),
    Message('note_on', channel=5, note=35, velocity=97, time=1095),
    Message('note_off', channel=5, note=35, velocity=64, time=76),
    Message('note_on', channel=5, note=37, velocity=97, time=20),
    Message('note_off', channel=5, note=37, velocity=64, time=76),
    Message('note_on', channel=5, note=38, velocity=97, time=20),
    Message('note_off', channel=5, note=38, velocity=64, time=76),
    Message('note_on', channel=5, note=40, velocity=97, time=20),
    Message('note_off', channel=5, note=40, velocity=64, time=153),
    Message('note_on', channel=5, note=40, velocity=97, time=135),
    Message('note_off', channel=5, note=40, velocity=64, time=76),
    Message('note_on', channel=5, note=40, velocity=97, time=116),
    Message('note_off', channel=5, note=40, velocity=64, time=76),
    Message('note_on', channel=5, note=42, velocity=97, time=20),
    Message('note_off', channel=5, note=42, velocity=64, time=76),
    Message('note_on', channel=5, note=43, velocity=97, time=20),
    Message('note_off', channel=5, note=43, velocity=64, time=76),
    Message('note_on', channel=5, note=45, velocity=97, time=20),
    Message('note_off', channel=5, note=45, velocity=64, time=153),
    Message('note_on', channel=5, note=45, velocity=97, time=135),
    Message('note_off', channel=5, note=45, velocity=64, time=172),
    Message('note_on', channel=5, note=45, velocity=97, time=20),
    Message('note_off', channel=5, note=45, velocity=64, time=76),
    Message('note_on', channel=5, note=43, velocity=97, time=20),
    Message('note_off', channel=5, note=43, velocity=64, time=76),
    Message('note_on', channel=5, note=42, velocity=97, time=20),
    Message('note_off', channel=5, note=42, velocity=64, time=76),
    Message('note_on', channel=5, note=40, velocity=97, time=20),
    Message('note_off', channel=5, note=40, velocity=64, time=153),
    Message('note_on', channel=5, note=40, velocity=97, time=135),
    Message('note_off', channel=5, note=40, velocity=64, time=76),
    Message('note_on', channel=5, note=40, velocity=97, time=116),
    Message('note_off', channel=5, note=40, velocity=64, time=76),
    Message('note_on', channel=5, note=42, velocity=97, time=20),
    Message('note_off', channel=5, note=42, velocity=64, time=76),
    Message('note_on', channel=5, note=43, velocity=97, time=20),
    Message('note_off', channel=5, note=43, velocity=64, time=76),
    Message('note_on', channel=5, note=45, velocity=97, time=20),
    Message('note_off', channel=5, note=45, velocity=64, time=153),
    Message('note_on', channel=5, note=45, velocity=97, time=135),
    Message('note_off', channel=5, note=45, velocity=64, time=172),
    Message('note_on', channel=5, note=45, velocity=97, time=20),
    Message('note_off', channel=5, note=45, velocity=64, time=76),
    Message('note_on', channel=5, note=43, velocity=97, time=20),
    Message('note_off', channel=5, note=43, velocity=64, time=76),
    Message('note_on', channel=5, note=42, velocity=97, time=20),
    Message('note_off', channel=5, note=42, velocity=64, time=76),
    Message('control_change', channel=5, control=7, value=115, time=20),
    Message('note_on', channel=5, note=40, velocity=97, time=0),
    Message('note_off', channel=5, note=40, velocity=64, time=153),
    Message('note_on', channel=5, note=40, velocity=97, time=135),
    Message('note_off', channel=5, note=40, velocity=64, time=76),
    Message('note_on', channel=5, note=35, velocity=97, time=20),
    Message('note_off', channel=5, note=35, velocity=64, time=153),
    Message('note_on', channel=5, note=40, velocity=97, time=231),
    Message('note_off', channel=5, note=40, velocity=64, time=153),
    Message('note_on', channel=5, note=40, velocity=97, time=135),
    Message('note_off', channel=5, note=40, velocity=64, time=76),
    Message('note_on', channel=5, note=37, velocity=97, time=20),
    Message('note_off', channel=5, note=37, velocity=64, time=76),
    Message('note_on', channel=5, note=40, velocity=97, time=20),
    Message('note_off', channel=5, note=40, velocity=64, time=76),
    Message('note_on', channel=5, note=45, velocity=97, time=212),
    Message('note_off', channel=5, note=45, velocity=64, time=153),
    Message('note_on', channel=5, note=45, velocity=97, time=135),
    Message('note_off', channel=5, note=45, velocity=64, time=76),
    Message('note_on', channel=5, note=40, velocity=97, time=20),
    Message('note_off', channel=5, note=40, velocity=64, time=153),
    Message('note_on', channel=5, note=45, velocity=97, time=39),
    Message('note_off', channel=5, note=45, velocity=64, time=153),
    Message('note_on', channel=5, note=45, velocity=97, time=39),
    Message('note_off', channel=5, note=45, velocity=64, time=153),
    Message('note_on', channel=5, note=45, velocity=97, time=39),
    Message('note_off', channel=5, note=45, velocity=64, time=76),
    Message('note_on', channel=5, note=45, velocity=97, time=20),
    Message('note_off', channel=5, note=45, velocity=64, time=76),
    Message('note_on', channel=5, note=40, velocity=97, time=20),
    Message('note_off', channel=5, note=40, velocity=64, time=76),
    Message('note_on', channel=5, note=45, velocity=97, time=20),
    Message('note_off', channel=5, note=45, velocity=64, time=76),
    Message('note_on', channel=5, note=40, velocity=97, time=212),
    Message('note_off', channel=5, note=40, velocity=64, time=153),
    Message('note_on', channel=5, note=40, velocity=97, time=135),
    Message('note_off', channel=5, note=40, velocity=64, time=76),
    Message('note_on', channel=5, note=35, velocity=97, time=20),
    Message('note_off', channel=5, note=35, velocity=64, time=153),
    Message('note_on', channel=5, note=40, velocity=97, time=231),
    Message('note_off', channel=5, note=40, velocity=64, time=153),
    Message('note_on', channel=5, note=40, velocity=97, time=135),
    Message('note_off', channel=5, note=40, velocity=64, time=76),
    Message('note_on', channel=5, note=35, velocity=97, time=20),
    Message('note_off', channel=5, note=35, velocity=64, time=153),
    Message('note_on', channel=5, note=45, velocity=97, time=231),
    Message('note_off', channel=5, note=45, velocity=64, time=153),
    Message('note_on', channel=5, note=45, velocity=97, time=135),
    Message('note_off', channel=5, note=45, velocity=64, time=76),
    Message('note_on', channel=5, note=40, velocity=97, time=20),
    Message('note_off', channel=5, note=40, velocity=64, time=76),
    Message('note_on', channel=5, note=45, velocity=97, time=20),
    Message('note_off', channel=5, note=45, velocity=64, time=153),
    Message('note_on', channel=5, note=45, velocity=97, time=39),
    Message('note_off', channel=5, note=45, velocity=64, time=76),
    Message('note_on', channel=5, note=45, velocity=97, time=20),
    Message('note_off', channel=5, note=45, velocity=64, time=153),
    Message('note_on', channel=5, note=45, velocity=97, time=135),
    Message('note_off', channel=5, note=45, velocity=64, time=76),
    Message('note_on', channel=5, note=40, velocity=97, time=20),
    Message('note_off', channel=5, note=40, velocity=64, time=76),
    Message('note_on', channel=5, note=45, velocity=97, time=20),
    Message('note_off', channel=5, note=45, velocity=64, time=76),
    Message('note_on', channel=5, note=40, velocity=97, time=116),
    Message('note_off', channel=5, note=40, velocity=64, time=76),
    Message('note_on', channel=5, note=40, velocity=97, time=20),
    Message('note_off', channel=5, note=40, velocity=64, time=153),
    Message('note_on', channel=5, note=40, velocity=97, time=39),
    Message('note_off', channel=5, note=40, velocity=64, time=76),
    Message('note_on', channel=5, note=40, velocity=97, time=20),
    Message('note_off', channel=5, note=40, velocity=64, time=76),
    Message('note_on', channel=5, note=37, velocity=97, time=20),
    Message('note_off', channel=5, note=37, velocity=64, time=153),
    Message('note_on', channel=5, note=40, velocity=97, time=39),
    Message('note_off', channel=5, note=40, velocity=64, time=153),
    Message('note_on', channel=5, note=47, velocity=97, time=39),
    Message('note_off', channel=5, note=47, velocity=64, time=76),
    Message('note_on', channel=5, note=47, velocity=97, time=20),
    Message('note_off', channel=5, note=47, velocity=64, time=76),
    Message('note_on', channel=5, note=47, velocity=97, time=20),
    Message('note_off', channel=5, note=47, velocity=64, time=76),
    Message('note_on', channel=5, note=47, velocity=97, time=20),
    Message('note_off', channel=5, note=47, velocity=64, time=172),
    Message('note_on', channel=5, note=47, velocity=97, time=20),
    Message('note_off', channel=5, note=47, velocity=64, time=230),
    Message('note_on', channel=5, note=40, velocity=97, time=58),
    Message('note_off', channel=5, note=40, velocity=64, time=153),
    Message('note_on', channel=5, note=40, velocity=97, time=135),
    Message('note_off', channel=5, note=40, velocity=64, time=76),
    Message('note_on', channel=5, note=40, velocity=97, time=20),
    Message('note_off', channel=5, note=40, velocity=64, time=76),
    Message('note_on', channel=5, note=40, velocity=97, time=20),
    Message('note_off', channel=5, note=40, velocity=64, time=153),
    Message('note_on', channel=5, note=40, velocity=97, time=39),
    Message('note_off', channel=5, note=40, velocity=64, time=76),
    Message('note_on', channel=5, note=45, velocity=97, time=20),
    Message('note_off', channel=5, note=45, velocity=64, time=153),
    Message('note_on', channel=5, note=45, velocity=97, time=39),
    Message('note_off', channel=5, note=45, velocity=64, time=76),
    Message('note_on', channel=5, note=45, velocity=97, time=20),
    Message('note_off', channel=5, note=45, velocity=64, time=76),
    Message('note_on', channel=5, note=40, velocity=97, time=20),
    Message('note_off', channel=5, note=40, velocity=64, time=76),
    Message('note_on', channel=5, note=45, velocity=97, time=20),
    Message('note_off', channel=5, note=45, velocity=64, time=76),
    Message('note_on', channel=5, note=40, velocity=97, time=212),
    Message('note_off', channel=5, note=40, velocity=64, time=153),
    Message('note_on', channel=5, note=40, velocity=97, time=135),
    Message('note_off', channel=5, note=40, velocity=64, time=76),
    Message('note_on', channel=5, note=40, velocity=97, time=116),
    Message('note_off', channel=5, note=40, velocity=64, time=76),
    Message('note_on', channel=5, note=42, velocity=97, time=20),
    Message('note_off', channel=5, note=42, velocity=64, time=76),
    Message('note_on', channel=5, note=43, velocity=97, time=20),
    Message('note_off', channel=5, note=43, velocity=64, time=76),
    Message('note_on', channel=5, note=45, velocity=97, time=20),
    Message('note_off', channel=5, note=45, velocity=64, time=153),
    Message('note_on', channel=5, note=45, velocity=97, time=135),
    Message('note_off', channel=5, note=45, velocity=64, time=172),
    Message('note_on', channel=5, note=45, velocity=97, time=20),
    Message('note_off', channel=5, note=45, velocity=64, time=76),
    Message('note_on', channel=5, note=43, velocity=97, time=20),
    Message('note_off', channel=5, note=43, velocity=64, time=76),
    Message('note_on', channel=5, note=42, velocity=97, time=20),
    Message('note_off', channel=5, note=42, velocity=64, time=76),
    Message('note_on', channel=5, note=40, velocity=97, time=20),
    Message('note_off', channel=5, note=40, velocity=64, time=153),
    Message('note_on', channel=5, note=40, velocity=97, time=135),
    Message('note_off', channel=5, note=40, velocity=64, time=76),
    Message('note_on', channel=5, note=40, velocity=97, time=116),
    Message('note_off', channel=5, note=40, velocity=64, time=76),
    Message('note_on', channel=5, note=42, velocity=97, time=20),
    Message('note_off', channel=5, note=42, velocity=64, time=76),
    Message('note_on', channel=5, note=43, velocity=97, time=20),
    Message('note_off', channel=5, note=43, velocity=64, time=76),
    Message('note_on', channel=5, note=45, velocity=97, time=20),
    Message('note_off', channel=5, note=45, velocity=64, time=153),
    Message('note_on', channel=5, note=45, velocity=97, time=135),
    Message('note_off', channel=5, note=45, velocity=64, time=172),
    Message('note_on', channel=5, note=45, velocity=97, time=20),
    Message('note_off', channel=5, note=45, velocity=64, time=76),
    Message('note_on', channel=5, note=43, velocity=97, time=20),
    Message('note_off', channel=5, note=43, velocity=64, time=76),
    Message('note_on', channel=5, note=42, velocity=97, time=20),
    Message('note_off', channel=5, note=42, velocity=64, time=76),
    Message('note_on', channel=5, note=40, velocity=97, time=20),
    Message('note_off', channel=5, note=40, velocity=64, time=153),
    Message('note_on', channel=5, note=40, velocity=97, time=135),
    Message('note_off', channel=5, note=40, velocity=64, time=76),
    Message('note_on', channel=5, note=40, velocity=97, time=116),
    Message('note_off', channel=5, note=40, velocity=64, time=76),
    Message('note_on', channel=5, note=42, velocity=97, time=20),
    Message('note_off', channel=5, note=42, velocity=64, time=76),
    Message('note_on', channel=5, note=43, velocity=97, time=20),
    Message('note_off', channel=5, note=43, velocity=64, time=76),
    Message('note_on', channel=5, note=45, velocity=97, time=20),
    Message('note_off', channel=5, note=45, velocity=64, time=153),
    Message('note_on', channel=5, note=45, velocity=97, time=135),
    Message('note_off', channel=5, note=45, velocity=64, time=172),
    Message('note_on', channel=5, note=45, velocity=97, time=20),
    Message('note_off', channel=5, note=45, velocity=64, time=76),
    Message('note_on', channel=5, note=43, velocity=97, time=20),
    Message('note_off', channel=5, note=43, velocity=64, time=76),
    Message('note_on', channel=5, note=42, velocity=97, time=20),
    Message('note_off', channel=5, note=42, velocity=64, time=76),
    Message('note_on', channel=5, note=40, velocity=97, time=20),
    Message('note_off', channel=5, note=40, velocity=64, time=153),
    Message('note_on', channel=5, note=40, velocity=97, time=135),
    Message('note_off', channel=5, note=40, velocity=64, time=76),
    Message('note_on', channel=5, note=40, velocity=97, time=116),
    Message('note_off', channel=5, note=40, velocity=64, time=76),
    Message('note_on', channel=5, note=42, velocity=97, time=20),
    Message('note_off', channel=5, note=42, velocity=64, time=76),
    Message('note_on', channel=5, note=43, velocity=97, time=20),
    Message('note_off', channel=5, note=43, velocity=64, time=76),
    Message('note_on', channel=5, note=45, velocity=97, time=20),
    Message('note_off', channel=5, note=45, velocity=64, time=153),
    Message('note_on', channel=5, note=45, velocity=97, time=135),
    Message('note_off', channel=5, note=45, velocity=64, time=172),
    Message('note_on', channel=5, note=45, velocity=97, time=20),
    Message('note_off', channel=5, note=45, velocity=64, time=76),
    Message('note_on', channel=5, note=43, velocity=97, time=20),
    Message('note_off', channel=5, note=43, velocity=64, time=76),
    Message('note_on', channel=5, note=42, velocity=97, time=20),
    Message('note_off', channel=5, note=42, velocity=64, time=76),
    Message('note_on', channel=5, note=40, velocity=97, time=20),
    Message('note_off', channel=5, note=40, velocity=64, time=153),
    Message('note_on', channel=5, note=40, velocity=97, time=135),
    Message('note_off', channel=5, note=40, velocity=64, time=76),
    Message('note_on', channel=5, note=40, velocity=97, time=116),
    Message('note_off', channel=5, note=40, velocity=64, time=76),
    Message('note_on', channel=5, note=42, velocity=97, time=20),
    Message('note_off', channel=5, note=42, velocity=64, time=76),
    Message('note_on', channel=5, note=43, velocity=97, time=20),
    Message('note_off', channel=5, note=43, velocity=64, time=76),
    Message('note_on', channel=5, note=45, velocity=97, time=20),
    Message('note_off', channel=5, note=45, velocity=64, time=153),
    Message('note_on', channel=5, note=45, velocity=97, time=135),
    Message('note_off', channel=5, note=45, velocity=64, time=172),
    Message('note_on', channel=5, note=45, velocity=97, time=20),
    Message('note_off', channel=5, note=45, velocity=64, time=76),
    Message('note_on', channel=5, note=43, velocity=97, time=20),
    Message('note_off', channel=5, note=43, velocity=64, time=76),
    Message('note_on', channel=5, note=42, velocity=97, time=20),
    Message('note_off', channel=5, note=42, velocity=64, time=76),
    Message('note_on', channel=5, note=40, velocity=97, time=20),
    Message('note_off', channel=5, note=40, velocity=64, time=153),
    Message('note_on', channel=5, note=40, velocity=97, time=135),
    Message('note_off', channel=5, note=40, velocity=64, time=76),
    Message('note_on', channel=5, note=40, velocity=97, time=116),
    Message('note_off', channel=5, note=40, velocity=64, time=76),
    Message('note_on', channel=5, note=42, velocity=97, time=20),
    Message('note_off', channel=5, note=42, velocity=64, time=76),
    Message('note_on', channel=5, note=43, velocity=97, time=20),
    Message('note_off', channel=5, note=43, velocity=64, time=76),
    Message('note_on', channel=5, note=45, velocity=97, time=20),
    Message('note_off', channel=5, note=45, velocity=64, time=153),
    Message('note_on', channel=5, note=45, velocity=97, time=135),
    Message('note_off', channel=5, note=45, velocity=64, time=172),
    Message('note_on', channel=5, note=45, velocity=97, time=20),
    Message('note_off', channel=5, note=45, velocity=64, time=76),
    Message('note_on', channel=5, note=43, velocity=97, time=20),
    Message('note_off', channel=5, note=43, velocity=64, time=76),
    Message('note_on', channel=5, note=42, velocity=97, time=20),
    Message('note_off', channel=5, note=42, velocity=64, time=76),
    Message('note_on', channel=5, note=40, velocity=97, time=20),
    Message('note_off', channel=5, note=40, velocity=64, time=153),
    Message('note_on', channel=5, note=40, velocity=97, time=135),
    Message('note_off', channel=5, note=40, velocity=64, time=76),
    Message('note_on', channel=5, note=40, velocity=97, time=116),
    Message('note_off', channel=5, note=40, velocity=64, time=76),
    Message('note_on', channel=5, note=42, velocity=97, time=20),
    Message('note_off', channel=5, note=42, velocity=64, time=76),
    Message('note_on', channel=5, note=43, velocity=97, time=20),
    Message('note_off', channel=5, note=43, velocity=64, time=76),
    Message('note_on', channel=5, note=45, velocity=97, time=20),
    Message('note_off', channel=5, note=45, velocity=64, time=153),
    Message('note_on', channel=5, note=45, velocity=97, time=135),
    Message('note_off', channel=5, note=45, velocity=64, time=172),
    Message('note_on', channel=5, note=45, velocity=97, time=20),
    Message('note_off', channel=5, note=45, velocity=64, time=76),
    Message('note_on', channel=5, note=43, velocity=97, time=20),
    Message('note_off', channel=5, note=43, velocity=64, time=76),
    Message('note_on', channel=5, note=42, velocity=97, time=20),
    Message('note_off', channel=5, note=42, velocity=64, time=76),
    Message('note_on', channel=5, note=40, velocity=97, time=20),
    Message('note_off', channel=5, note=40, velocity=64, time=153),
    Message('note_on', channel=5, note=40, velocity=97, time=135),
    Message('note_off', channel=5, note=40, velocity=64, time=76),
    Message('note_on', channel=5, note=40, velocity=97, time=116),
    Message('note_off', channel=5, note=40, velocity=64, time=76),
    Message('note_on', channel=5, note=42, velocity=97, time=20),
    Message('note_off', channel=5, note=42, velocity=64, time=76),
    Message('note_on', channel=5, note=43, velocity=97, time=20),
    Message('note_off', channel=5, note=43, velocity=64, time=76),
    Message('note_on', channel=5, note=45, velocity=97, time=20),
    Message('note_off', channel=5, note=45, velocity=64, time=153),
    Message('note_on', channel=5, note=45, velocity=97, time=135),
    Message('note_off', channel=5, note=45, velocity=64, time=172),
    Message('note_on', channel=5, note=45, velocity=97, time=20),
    Message('note_off', channel=5, note=45, velocity=64, time=76),
    Message('note_on', channel=5, note=43, velocity=97, time=20),
    Message('note_off', channel=5, note=43, velocity=64, time=76),
    Message('note_on', channel=5, note=42, velocity=97, time=20),
    Message('note_off', channel=5, note=42, velocity=64, time=76),
    Message('note_on', channel=5, note=40, velocity=97, time=20),
    Message('note_off', channel=5, note=40, velocity=64, time=153),
    Message('note_on', channel=5, note=35, velocity=97, time=1095),
    Message('note_off', channel=5, note=35, velocity=64, time=76),
    Message('note_on', channel=5, note=37, velocity=97, time=20),
    Message('note_off', channel=5, note=37, velocity=64, time=76),
    Message('note_on', channel=5, note=38, velocity=97, time=20),
    Message('note_off', channel=5, note=38, velocity=64, time=76),
    Message('note_on', channel=5, note=40, velocity=97, time=20),
    Message('note_off', channel=5, note=40, velocity=64, time=153),
    Message('note_on', channel=5, note=40, velocity=97, time=135),
    Message('note_off', channel=5, note=40, velocity=64, time=76),
    Message('note_on', channel=5, note=40, velocity=97, time=116),
    Message('note_off', channel=5, note=40, velocity=64, time=76),
    Message('note_on', channel=5, note=42, velocity=97, time=20),
    Message('note_off', channel=5, note=42, velocity=64, time=76),
    Message('note_on', channel=5, note=43, velocity=97, time=20),
    Message('note_off', channel=5, note=43, velocity=64, time=76),
    Message('note_on', channel=5, note=45, velocity=97, time=20),
    Message('note_off', channel=5, note=45, velocity=64, time=153),
    Message('note_on', channel=5, note=45, velocity=97, time=135),
    Message('note_off', channel=5, note=45, velocity=64, time=172),
    Message('note_on', channel=5, note=45, velocity=97, time=20),
    Message('note_off', channel=5, note=45, velocity=64, time=76),
    Message('note_on', channel=5, note=43, velocity=97, time=20),
    Message('note_off', channel=5, note=43, velocity=64, time=76),
    Message('note_on', channel=5, note=42, velocity=97, time=20),
    Message('note_off', channel=5, note=42, velocity=64, time=76),
    Message('note_on', channel=5, note=40, velocity=97, time=20),
    Message('note_off', channel=5, note=40, velocity=64, time=153),
    Message('note_on', channel=5, note=40, velocity=97, time=135),
    Message('note_off', channel=5, note=40, velocity=64, time=76),
    Message('note_on', channel=5, note=40, velocity=97, time=116),
    Message('note_off', channel=5, note=40, velocity=64, time=76),
    Message('note_on', channel=5, note=42, velocity=97, time=20),
    Message('note_off', channel=5, note=42, velocity=64, time=76),
    Message('note_on', channel=5, note=43, velocity=97, time=20),
    Message('note_off', channel=5, note=43, velocity=64, time=76),
    Message('note_on', channel=5, note=45, velocity=97, time=20),
    Message('note_off', channel=5, note=45, velocity=64, time=153),
    Message('note_on', channel=5, note=45, velocity=97, time=135),
    Message('note_off', channel=5, note=45, velocity=64, time=172),
    Message('note_on', channel=5, note=45, velocity=97, time=20),
    Message('note_off', channel=5, note=45, velocity=64, time=76),
    Message('note_on', channel=5, note=43, velocity=97, time=20),
    Message('note_off', channel=5, note=43, velocity=64, time=76),
    Message('note_on', channel=5, note=42, velocity=97, time=20),
    Message('note_off', channel=5, note=42, velocity=64, time=76),
    Message('note_on', channel=5, note=40, velocity=102, time=20),
    Message('note_off', channel=5, note=40, velocity=64, time=153),
    Message('note_on', channel=5, note=40, velocity=102, time=135),
    Message('note_off', channel=5, note=40, velocity=64, time=76),
    Message('note_on', channel=5, note=35, velocity=102, time=20),
    Message('note_off', channel=5, note=35, velocity=64, time=153),
    Message('note_on', channel=5, note=40, velocity=102, time=231),
    Message('note_off', channel=5, note=40, velocity=64, time=153),
    Message('note_on', channel=5, note=40, velocity=102, time=135),
    Message('note_off', channel=5, note=40, velocity=64, time=76),
    Message('note_on', channel=5, note=37, velocity=102, time=20),
    Message('note_off', channel=5, note=37, velocity=64, time=76),
    Message('note_on', channel=5, note=40, velocity=102, time=20),
    Message('note_off', channel=5, note=40, velocity=64, time=76),
    Message('note_on', channel=5, note=45, velocity=102, time=212),
    Message('note_off', channel=5, note=45, velocity=64, time=153),
    Message('note_on', channel=5, note=45, velocity=102, time=135),
    Message('note_off', channel=5, note=45, velocity=64, time=76),
    Message('note_on', channel=5, note=40, velocity=102, time=20),
    Message('note_off', channel=5, note=40, velocity=64, time=153),
    Message('note_on', channel=5, note=45, velocity=102, time=39),
    Message('note_off', channel=5, note=45, velocity=64, time=153),
    Message('note_on', channel=5, note=45, velocity=102, time=39),
    Message('note_off', channel=5, note=45, velocity=64, time=153),
    Message('note_on', channel=5, note=45, velocity=102, time=39),
    Message('note_off', channel=5, note=45, velocity=64, time=76),
    Message('note_on', channel=5, note=45, velocity=102, time=20),
    Message('note_off', channel=5, note=45, velocity=64, time=76),
    Message('note_on', channel=5, note=40, velocity=102, time=20),
    Message('note_off', channel=5, note=40, velocity=64, time=76),
    Message('note_on', channel=5, note=45, velocity=102, time=20),
    Message('note_off', channel=5, note=45, velocity=64, time=76),
    Message('note_on', channel=5, note=40, velocity=102, time=212),
    Message('note_off', channel=5, note=40, velocity=64, time=153),
    Message('note_on', channel=5, note=40, velocity=102, time=135),
    Message('note_off', channel=5, note=40, velocity=64, time=76),
    Message('note_on', channel=5, note=35, velocity=102, time=20),
    Message('note_off', channel=5, note=35, velocity=64, time=153),
    Message('note_on', channel=5, note=40, velocity=102, time=231),
    Message('note_off', channel=5, note=40, velocity=64, time=153),
    Message('note_on', channel=5, note=40, velocity=102, time=135),
    Message('note_off', channel=5, note=40, velocity=64, time=76),
    Message('note_on', channel=5, note=35, velocity=102, time=20),
    Message('note_off', channel=5, note=35, velocity=64, time=153),
    Message('note_on', channel=5, note=45, velocity=102, time=231),
    Message('note_off', channel=5, note=45, velocity=64, time=153),
    Message('note_on', channel=5, note=45, velocity=102, time=135),
    Message('note_off', channel=5, note=45, velocity=64, time=76),
    Message('note_on', channel=5, note=40, velocity=102, time=20),
    Message('note_off', channel=5, note=40, velocity=64, time=76),
    Message('note_on', channel=5, note=45, velocity=102, time=20),
    Message('note_off', channel=5, note=45, velocity=64, time=153),
    Message('note_on', channel=5, note=45, velocity=102, time=39),
    Message('note_off', channel=5, note=45, velocity=64, time=76),
    Message('note_on', channel=5, note=45, velocity=102, time=20),
    Message('note_off', channel=5, note=45, velocity=64, time=153),
    Message('note_on', channel=5, note=45, velocity=102, time=135),
    Message('note_off', channel=5, note=45, velocity=64, time=76),
    Message('note_on', channel=5, note=40, velocity=102, time=20),
    Message('note_off', channel=5, note=40, velocity=64, time=76),
    Message('note_on', channel=5, note=45, velocity=102, time=20),
    Message('note_off', channel=5, note=45, velocity=64, time=76),
    Message('note_on', channel=5, note=40, velocity=102, time=116),
    Message('note_off', channel=5, note=40, velocity=64, time=76),
    Message('note_on', channel=5, note=40, velocity=102, time=20),
    Message('note_off', channel=5, note=40, velocity=64, time=153),
    Message('note_on', channel=5, note=40, velocity=102, time=39),
    Message('note_off', channel=5, note=40, velocity=64, time=76),
    Message('note_on', channel=5, note=40, velocity=102, time=20),
    Message('note_off', channel=5, note=40, velocity=64, time=76),
    Message('note_on', channel=5, note=37, velocity=102, time=20),
    Message('note_off', channel=5, note=37, velocity=64, time=153),
    Message('note_on', channel=5, note=40, velocity=102, time=39),
    Message('note_off', channel=5, note=40, velocity=64, time=153),
    Message('note_on', channel=5, note=47, velocity=102, time=39),
    Message('note_off', channel=5, note=47, velocity=64, time=76),
    Message('note_on', channel=5, note=47, velocity=102, time=20),
    Message('note_off', channel=5, note=47, velocity=64, time=76),
    Message('note_on', channel=5, note=47, velocity=102, time=20),
    Message('note_off', channel=5, note=47, velocity=64, time=76),
    Message('note_on', channel=5, note=47, velocity=102, time=20),
    Message('note_off', channel=5, note=47, velocity=64, time=172),
    Message('note_on', channel=5, note=47, velocity=102, time=20),
    Message('note_off', channel=5, note=47, velocity=64, time=230),
    Message('note_on', channel=5, note=40, velocity=102, time=58),
    Message('note_off', channel=5, note=40, velocity=64, time=153),
    Message('note_on', channel=5, note=40, velocity=102, time=135),
    Message('note_off', channel=5, note=40, velocity=64, time=76),
    Message('note_on', channel=5, note=40, velocity=102, time=20),
    Message('note_off', channel=5, note=40, velocity=64, time=76),
    Message('note_on', channel=5, note=40, velocity=102, time=20),
    Message('note_off', channel=5, note=40, velocity=64, time=153),
    Message('note_on', channel=5, note=40, velocity=102, time=39),
    Message('note_off', channel=5, note=40, velocity=64, time=76),
    Message('note_on', channel=5, note=45, velocity=102, time=20),
    Message('note_off', channel=5, note=45, velocity=64, time=153),
    Message('note_on', channel=5, note=45, velocity=102, time=39),
    Message('note_off', channel=5, note=45, velocity=64, time=76),
    Message('note_on', channel=5, note=45, velocity=102, time=20),
    Message('note_off', channel=5, note=45, velocity=64, time=76),
    Message('note_on', channel=5, note=40, velocity=102, time=20),
    Message('note_off', channel=5, note=40, velocity=64, time=76),
    Message('note_on', channel=5, note=45, velocity=102, time=20),
    Message('note_off', channel=5, note=45, velocity=64, time=76),
    Message('note_on', channel=5, note=40, velocity=102, time=212),
    Message('note_off', channel=5, note=40, velocity=64, time=153),
    Message('note_on', channel=5, note=40, velocity=102, time=135),
    Message('note_off', channel=5, note=40, velocity=64, time=76),
    Message('note_on', channel=5, note=40, velocity=102, time=116),
    Message('note_off', channel=5, note=40, velocity=64, time=76),
    Message('note_on', channel=5, note=42, velocity=102, time=20),
    Message('note_off', channel=5, note=42, velocity=64, time=76),
    Message('note_on', channel=5, note=43, velocity=102, time=20),
    Message('note_off', channel=5, note=43, velocity=64, time=76),
    Message('note_on', channel=5, note=45, velocity=102, time=20),
    Message('note_off', channel=5, note=45, velocity=64, time=153),
    Message('note_on', channel=5, note=45, velocity=102, time=135),
    Message('note_off', channel=5, note=45, velocity=64, time=172),
    Message('note_on', channel=5, note=45, velocity=102, time=20),
    Message('note_off', channel=5, note=45, velocity=64, time=76),
    Message('note_on', channel=5, note=43, velocity=102, time=20),
    Message('note_off', channel=5, note=43, velocity=64, time=76),
    Message('note_on', channel=5, note=42, velocity=102, time=20),
    Message('note_off', channel=5, note=42, velocity=64, time=76),
    Message('note_on', channel=5, note=40, velocity=102, time=20),
    Message('note_off', channel=5, note=40, velocity=64, time=153),
    Message('note_on', channel=5, note=40, velocity=102, time=135),
    Message('note_off', channel=5, note=40, velocity=64, time=76),
    Message('note_on', channel=5, note=40, velocity=102, time=116),
    Message('note_off', channel=5, note=40, velocity=64, time=76),
    Message('note_on', channel=5, note=42, velocity=102, time=20),
    Message('note_off', channel=5, note=42, velocity=64, time=76),
    Message('note_on', channel=5, note=43, velocity=102, time=20),
    Message('note_off', channel=5, note=43, velocity=64, time=76),
    Message('note_on', channel=5, note=45, velocity=102, time=20),
    Message('note_off', channel=5, note=45, velocity=64, time=153),
    Message('note_on', channel=5, note=45, velocity=102, time=135),
    Message('note_off', channel=5, note=45, velocity=64, time=172),
    Message('note_on', channel=5, note=45, velocity=102, time=20),
    Message('note_off', channel=5, note=45, velocity=64, time=76),
    Message('note_on', channel=5, note=43, velocity=102, time=20),
    Message('note_off', channel=5, note=43, velocity=64, time=76),
    Message('note_on', channel=5, note=42, velocity=102, time=20),
    Message('note_off', channel=5, note=42, velocity=64, time=76),
    Message('note_on', channel=5, note=40, velocity=102, time=20),
    Message('note_off', channel=5, note=40, velocity=64, time=153),
    Message('note_on', channel=5, note=40, velocity=102, time=135),
    Message('note_off', channel=5, note=40, velocity=64, time=76),
    Message('note_on', channel=5, note=40, velocity=102, time=116),
    Message('note_off', channel=5, note=40, velocity=64, time=76),
    Message('note_on', channel=5, note=42, velocity=102, time=20),
    Message('note_off', channel=5, note=42, velocity=64, time=76),
    Message('note_on', channel=5, note=43, velocity=102, time=20),
    Message('note_off', channel=5, note=43, velocity=64, time=76),
    Message('note_on', channel=5, note=45, velocity=102, time=20),
    Message('note_off', channel=5, note=45, velocity=64, time=153),
    Message('note_on', channel=5, note=45, velocity=102, time=135),
    Message('note_off', channel=5, note=45, velocity=64, time=172),
    Message('note_on', channel=5, note=45, velocity=102, time=20),
    Message('note_off', channel=5, note=45, velocity=64, time=76),
    Message('note_on', channel=5, note=43, velocity=102, time=20),
    Message('note_off', channel=5, note=43, velocity=64, time=76),
    Message('note_on', channel=5, note=42, velocity=102, time=20),
    Message('note_off', channel=5, note=42, velocity=64, time=76),
    Message('note_on', channel=5, note=40, velocity=102, time=20),
    Message('note_off', channel=5, note=40, velocity=64, time=153),
    Message('note_on', channel=5, note=40, velocity=102, time=135),
    Message('note_off', channel=5, note=40, velocity=64, time=76),
    Message('note_on', channel=5, note=40, velocity=102, time=116),
    Message('note_off', channel=5, note=40, velocity=64, time=76),
    Message('note_on', channel=5, note=42, velocity=102, time=20),
    Message('note_off', channel=5, note=42, velocity=64, time=76),
    Message('note_on', channel=5, note=43, velocity=102, time=20),
    Message('note_off', channel=5, note=43, velocity=64, time=76),
    Message('note_on', channel=5, note=45, velocity=102, time=20),
    Message('note_off', channel=5, note=45, velocity=64, time=153),
    Message('note_on', channel=5, note=45, velocity=102, time=135),
    Message('note_off', channel=5, note=45, velocity=64, time=172),
    Message('note_on', channel=5, note=45, velocity=102, time=20),
    Message('note_off', channel=5, note=45, velocity=64, time=76),
    Message('note_on', channel=5, note=43, velocity=102, time=20),
    Message('note_off', channel=5, note=43, velocity=64, time=76),
    Message('note_on', channel=5, note=42, velocity=102, time=20),
    Message('note_off', channel=5, note=42, velocity=64, time=76),
    Message('note_on', channel=5, note=40, velocity=102, time=20),
    Message('note_off', channel=5, note=40, velocity=64, time=153),
    Message('note_on', channel=5, note=40, velocity=102, time=135),
    Message('note_off', channel=5, note=40, velocity=64, time=76),
    Message('note_on', channel=5, note=40, velocity=102, time=116),
    Message('note_off', channel=5, note=40, velocity=64, time=76),
    Message('note_on', channel=5, note=42, velocity=102, time=20),
    Message('note_off', channel=5, note=42, velocity=64, time=76),
    Message('note_on', channel=5, note=43, velocity=102, time=20),
    Message('note_off', channel=5, note=43, velocity=64, time=76),
    Message('note_on', channel=5, note=45, velocity=102, time=20),
    Message('note_off', channel=5, note=45, velocity=64, time=153),
    Message('note_on', channel=5, note=45, velocity=102, time=135),
    Message('note_off', channel=5, note=45, velocity=64, time=172),
    Message('note_on', channel=5, note=45, velocity=102, time=20),
    Message('note_off', channel=5, note=45, velocity=64, time=76),
    Message('note_on', channel=5, note=43, velocity=102, time=20),
    Message('note_off', channel=5, note=43, velocity=64, time=76),
    Message('note_on', channel=5, note=42, velocity=102, time=20),
    Message('note_off', channel=5, note=42, velocity=64, time=76),
    Message('note_on', channel=5, note=40, velocity=102, time=20),
    Message('note_off', channel=5, note=40, velocity=64, time=153),
    Message('note_on', channel=5, note=40, velocity=102, time=135),
    Message('note_off', channel=5, note=40, velocity=64, time=76),
    Message('note_on', channel=5, note=40, velocity=102, time=116),
    Message('note_off', channel=5, note=40, velocity=64, time=76),
    Message('note_on', channel=5, note=42, velocity=102, time=20),
    Message('note_off', channel=5, note=42, velocity=64, time=76),
    Message('note_on', channel=5, note=43, velocity=102, time=20),
    Message('note_off', channel=5, note=43, velocity=64, time=76),
    Message('note_on', channel=5, note=45, velocity=102, time=20),
    Message('note_off', channel=5, note=45, velocity=64, time=153),
    Message('note_on', channel=5, note=45, velocity=102, time=135),
    Message('note_off', channel=5, note=45, velocity=64, time=172),
    Message('note_on', channel=5, note=45, velocity=102, time=20),
    Message('note_off', channel=5, note=45, velocity=64, time=76),
    Message('note_on', channel=5, note=43, velocity=102, time=20),
    Message('note_off', channel=5, note=43, velocity=64, time=76),
    Message('note_on', channel=5, note=42, velocity=102, time=20),
    Message('note_off', channel=5, note=42, velocity=64, time=76),
    Message('note_on', channel=5, note=40, velocity=102, time=20),
    Message('note_off', channel=5, note=40, velocity=64, time=153),
    Message('note_on', channel=5, note=40, velocity=102, time=135),
    Message('note_off', channel=5, note=40, velocity=64, time=76),
    Message('note_on', channel=5, note=40, velocity=102, time=116),
    Message('note_off', channel=5, note=40, velocity=64, time=76),
    Message('note_on', channel=5, note=42, velocity=102, time=20),
    Message('note_off', channel=5, note=42, velocity=64, time=76),
    Message('note_on', channel=5, note=43, velocity=102, time=20),
    Message('note_off', channel=5, note=43, velocity=64, time=76),
    Message('note_on', channel=5, note=45, velocity=102, time=20),
    Message('note_off', channel=5, note=45, velocity=64, time=153),
    Message('note_on', channel=5, note=45, velocity=102, time=135),
    Message('note_off', channel=5, note=45, velocity=64, time=172),
    Message('note_on', channel=5, note=45, velocity=102, time=20),
    Message('note_off', channel=5, note=45, velocity=64, time=76),
    Message('note_on', channel=5, note=43, velocity=102, time=20),
    Message('note_off', channel=5, note=43, velocity=64, time=76),
    Message('note_on', channel=5, note=42, velocity=102, time=20),
    Message('note_off', channel=5, note=42, velocity=64, time=76),
    Message('note_on', channel=5, note=40, velocity=102, time=20),
    Message('note_off', channel=5, note=40, velocity=64, time=153),
    Message('note_on', channel=5, note=40, velocity=102, time=135),
    Message('note_off', channel=5, note=40, velocity=64, time=76),
    Message('note_on', channel=5, note=40, velocity=102, time=116),
    Message('note_off', channel=5, note=40, velocity=64, time=76),
    Message('note_on', channel=5, note=42, velocity=102, time=20),
    Message('note_off', channel=5, note=42, velocity=64, time=76),
    Message('note_on', channel=5, note=43, velocity=102, time=20),
    Message('note_off', channel=5, note=43, velocity=64, time=76),
    Message('note_on', channel=5, note=45, velocity=102, time=20),
    Message('note_off', channel=5, note=45, velocity=64, time=153),
    Message('note_on', channel=5, note=45, velocity=102, time=135),
    Message('note_off', channel=5, note=45, velocity=64, time=172),
    Message('note_on', channel=5, note=45, velocity=102, time=20),
    Message('note_off', channel=5, note=45, velocity=64, time=76),
    Message('note_on', channel=5, note=43, velocity=102, time=20),
    Message('note_off', channel=5, note=43, velocity=64, time=76),
    Message('note_on', channel=5, note=42, velocity=102, time=20),
    Message('note_off', channel=5, note=42, velocity=64, time=76),
    Message('note_on', channel=5, note=40, velocity=102, time=20),
    Message('note_off', channel=5, note=40, velocity=64, time=153),
    Message('note_on', channel=5, note=35, velocity=102, time=1095),
    Message('note_off', channel=5, note=35, velocity=64, time=76),
    Message('note_on', channel=5, note=37, velocity=102, time=20),
    Message('note_off', channel=5, note=37, velocity=64, time=76),
    Message('note_on', channel=5, note=38, velocity=102, time=20),
    Message('note_off', channel=5, note=38, velocity=64, time=76),
    Message('note_on', channel=5, note=40, velocity=102, time=20),
    Message('note_off', channel=5, note=40, velocity=64, time=153),
    Message('note_on', channel=5, note=40, velocity=102, time=135),
    Message('note_off', channel=5, note=40, velocity=64, time=76),
    Message('note_on', channel=5, note=40, velocity=102, time=116),
    Message('note_off', channel=5, note=40, velocity=64, time=76),
    Message('note_on', channel=5, note=42, velocity=102, time=20),
    Message('note_off', channel=5, note=42, velocity=64, time=76),
    Message('note_on', channel=5, note=43, velocity=102, time=20),
    Message('note_off', channel=5, note=43, velocity=64, time=76),
    Message('note_on', channel=5, note=45, velocity=102, time=20),
    Message('note_off', channel=5, note=45, velocity=64, time=153),
    Message('note_on', channel=5, note=45, velocity=102, time=135),
    Message('note_off', channel=5, note=45, velocity=64, time=172),
    Message('note_on', channel=5, note=45, velocity=102, time=20),
    Message('note_off', channel=5, note=45, velocity=64, time=76),
    Message('note_on', channel=5, note=43, velocity=102, time=20),
    Message('note_off', channel=5, note=43, velocity=64, time=76),
    Message('note_on', channel=5, note=42, velocity=102, time=20),
    Message('note_off', channel=5, note=42, velocity=64, time=76),
    Message('note_on', channel=5, note=40, velocity=102, time=20),
    Message('note_off', channel=5, note=40, velocity=64, time=153),
    Message('note_on', channel=5, note=40, velocity=102, time=135),
    Message('note_off', channel=5, note=40, velocity=64, time=76),
    Message('note_on', channel=5, note=40, velocity=102, time=116),
    Message('note_off', channel=5, note=40, velocity=64, time=76),
    Message('note_on', channel=5, note=42, velocity=102, time=20),
    Message('note_off', channel=5, note=42, velocity=64, time=76),
    Message('note_on', channel=5, note=43, velocity=102, time=20),
    Message('note_off', channel=5, note=43, velocity=64, time=76),
    Message('note_on', channel=5, note=45, velocity=102, time=20),
    Message('note_off', channel=5, note=45, velocity=64, time=153),
    Message('note_on', channel=5, note=45, velocity=102, time=135),
    Message('note_off', channel=5, note=45, velocity=64, time=172),
    Message('note_on', channel=5, note=45, velocity=102, time=20),
    Message('note_off', channel=5, note=45, velocity=64, time=76),
    Message('note_on', channel=5, note=43, velocity=102, time=20),
    Message('note_off', channel=5, note=43, velocity=64, time=76),
    Message('note_on', channel=5, note=42, velocity=102, time=20),
    Message('note_off', channel=5, note=42, velocity=64, time=76),
    Message('control_change', channel=5, control=7, value=115, time=20),
    Message('note_on', channel=5, note=40, velocity=107, time=0),
    Message('note_off', channel=5, note=40, velocity=64, time=153),
    Message('note_on', channel=5, note=40, velocity=107, time=135),
    Message('note_off', channel=5, note=40, velocity=64, time=76),
    Message('note_on', channel=5, note=35, velocity=107, time=20),
    Message('note_off', channel=5, note=35, velocity=64, time=153),
    Message('note_on', channel=5, note=40, velocity=107, time=231),
    Message('note_off', channel=5, note=40, velocity=64, time=153),
    Message('note_on', channel=5, note=40, velocity=107, time=135),
    Message('note_off', channel=5, note=40, velocity=64, time=76),
    Message('note_on', channel=5, note=37, velocity=107, time=20),
    Message('note_off', channel=5, note=37, velocity=64, time=76),
    Message('note_on', channel=5, note=40, velocity=107, time=20),
    Message('note_off', channel=5, note=40, velocity=64, time=76),
    Message('note_on', channel=5, note=45, velocity=107, time=212),
    Message('note_off', channel=5, note=45, velocity=64, time=153),
    Message('note_on', channel=5, note=45, velocity=107, time=135),
    Message('note_off', channel=5, note=45, velocity=64, time=76),
    Message('note_on', channel=5, note=40, velocity=107, time=20),
    Message('note_off', channel=5, note=40, velocity=64, time=153),
    Message('note_on', channel=5, note=45, velocity=107, time=39),
    Message('note_off', channel=5, note=45, velocity=64, time=153),
    Message('note_on', channel=5, note=45, velocity=107, time=39),
    Message('note_off', channel=5, note=45, velocity=64, time=153),
    Message('note_on', channel=5, note=45, velocity=107, time=39),
    Message('note_off', channel=5, note=45, velocity=64, time=76),
    Message('note_on', channel=5, note=45, velocity=107, time=20),
    Message('note_off', channel=5, note=45, velocity=64, time=76),
    Message('note_on', channel=5, note=40, velocity=107, time=20),
    Message('note_off', channel=5, note=40, velocity=64, time=76),
    Message('note_on', channel=5, note=45, velocity=107, time=20),
    Message('note_off', channel=5, note=45, velocity=64, time=76),
    Message('note_on', channel=5, note=40, velocity=107, time=212),
    Message('note_off', channel=5, note=40, velocity=64, time=153),
    Message('note_on', channel=5, note=40, velocity=107, time=135),
    Message('note_off', channel=5, note=40, velocity=64, time=76),
    Message('note_on', channel=5, note=35, velocity=107, time=20),
    Message('note_off', channel=5, note=35, velocity=64, time=153),
    Message('note_on', channel=5, note=40, velocity=107, time=231),
    Message('note_off', channel=5, note=40, velocity=64, time=153),
    Message('note_on', channel=5, note=40, velocity=107, time=135),
    Message('note_off', channel=5, note=40, velocity=64, time=76),
    Message('note_on', channel=5, note=35, velocity=107, time=20),
    Message('note_off', channel=5, note=35, velocity=64, time=153),
    Message('note_on', channel=5, note=45, velocity=107, time=231),
    Message('note_off', channel=5, note=45, velocity=64, time=153),
    Message('note_on', channel=5, note=45, velocity=107, time=135),
    Message('note_off', channel=5, note=45, velocity=64, time=76),
    Message('note_on', channel=5, note=40, velocity=107, time=20),
    Message('note_off', channel=5, note=40, velocity=64, time=76),
    Message('note_on', channel=5, note=45, velocity=107, time=20),
    Message('note_off', channel=5, note=45, velocity=64, time=153),
    Message('note_on', channel=5, note=45, velocity=107, time=39),
    Message('note_off', channel=5, note=45, velocity=64, time=76),
    Message('note_on', channel=5, note=45, velocity=107, time=20),
    Message('note_off', channel=5, note=45, velocity=64, time=153),
    Message('note_on', channel=5, note=45, velocity=107, time=135),
    Message('note_off', channel=5, note=45, velocity=64, time=76),
    Message('note_on', channel=5, note=40, velocity=107, time=20),
    Message('note_off', channel=5, note=40, velocity=64, time=76),
    Message('note_on', channel=5, note=45, velocity=107, time=20),
    Message('note_off', channel=5, note=45, velocity=64, time=76),
    Message('note_on', channel=5, note=40, velocity=107, time=116),
    Message('note_off', channel=5, note=40, velocity=64, time=76),
    Message('note_on', channel=5, note=40, velocity=107, time=20),
    Message('note_off', channel=5, note=40, velocity=64, time=153),
    Message('note_on', channel=5, note=40, velocity=107, time=39),
    Message('note_off', channel=5, note=40, velocity=64, time=76),
    Message('note_on', channel=5, note=40, velocity=107, time=20),
    Message('note_off', channel=5, note=40, velocity=64, time=76),
    Message('note_on', channel=5, note=37, velocity=107, time=20),
    Message('note_off', channel=5, note=37, velocity=64, time=153),
    Message('note_on', channel=5, note=40, velocity=107, time=39),
    Message('note_off', channel=5, note=40, velocity=64, time=153),
    Message('note_on', channel=5, note=47, velocity=107, time=39),
    Message('note_off', channel=5, note=47, velocity=64, time=76),
    Message('note_on', channel=5, note=47, velocity=107, time=20),
    Message('note_off', channel=5, note=47, velocity=64, time=76),
    Message('note_on', channel=5, note=47, velocity=107, time=20),
    Message('note_off', channel=5, note=47, velocity=64, time=76),
    Message('note_on', channel=5, note=47, velocity=107, time=20),
    Message('note_off', channel=5, note=47, velocity=64, time=172),
    Message('note_on', channel=5, note=47, velocity=107, time=20),
    Message('note_off', channel=5, note=47, velocity=64, time=230),
    Message('note_on', channel=5, note=40, velocity=107, time=58),
    Message('note_off', channel=5, note=40, velocity=64, time=153),
    Message('note_on', channel=5, note=40, velocity=107, time=135),
    Message('note_off', channel=5, note=40, velocity=64, time=76),
    Message('note_on', channel=5, note=40, velocity=107, time=20),
    Message('note_off', channel=5, note=40, velocity=64, time=76),
    Message('note_on', channel=5, note=40, velocity=107, time=20),
    Message('note_off', channel=5, note=40, velocity=64, time=153),
    Message('note_on', channel=5, note=40, velocity=107, time=39),
    Message('note_off', channel=5, note=40, velocity=64, time=76),
    Message('note_on', channel=5, note=45, velocity=107, time=20),
    Message('note_off', channel=5, note=45, velocity=64, time=153),
    Message('note_on', channel=5, note=45, velocity=107, time=39),
    Message('note_off', channel=5, note=45, velocity=64, time=76),
    Message('note_on', channel=5, note=45, velocity=107, time=20),
    Message('note_off', channel=5, note=45, velocity=64, time=76),
    Message('note_on', channel=5, note=40, velocity=107, time=20),
    Message('note_off', channel=5, note=40, velocity=64, time=76),
    Message('note_on', channel=5, note=45, velocity=107, time=20),
    Message('note_off', channel=5, note=45, velocity=64, time=76),
    Message('note_on', channel=5, note=40, velocity=107, time=212),
    Message('note_off', channel=5, note=40, velocity=64, time=153),
    Message('note_on', channel=5, note=40, velocity=107, time=135),
    Message('note_off', channel=5, note=40, velocity=64, time=76),
    Message('note_on', channel=5, note=40, velocity=107, time=116),
    Message('note_off', channel=5, note=40, velocity=64, time=76),
    Message('note_on', channel=5, note=42, velocity=107, time=20),
    Message('note_off', channel=5, note=42, velocity=64, time=76),
    Message('note_on', channel=5, note=43, velocity=107, time=20),
    Message('note_off', channel=5, note=43, velocity=64, time=76),
    Message('note_on', channel=5, note=45, velocity=107, time=20),
    Message('note_off', channel=5, note=45, velocity=64, time=153),
    Message('note_on', channel=5, note=45, velocity=107, time=135),
    Message('note_off', channel=5, note=45, velocity=64, time=172),
    Message('note_on', channel=5, note=45, velocity=107, time=20),
    Message('note_off', channel=5, note=45, velocity=64, time=76),
    Message('note_on', channel=5, note=43, velocity=107, time=20),
    Message('note_off', channel=5, note=43, velocity=64, time=76),
    Message('note_on', channel=5, note=42, velocity=107, time=20),
    Message('note_off', channel=5, note=42, velocity=64, time=76),
    Message('note_on', channel=5, note=40, velocity=107, time=20),
    Message('note_off', channel=5, note=40, velocity=64, time=153),
    Message('note_on', channel=5, note=40, velocity=107, time=39),
    Message('note_off', channel=5, note=40, velocity=64, time=153),
    Message('note_on', channel=5, note=40, velocity=107, time=135),
    Message('note_off', channel=5, note=40, velocity=64, time=76),
    Message('note_on', channel=5, note=42, velocity=107, time=20),
    Message('note_off', channel=5, note=42, velocity=64, time=76),
    Message('note_on', channel=5, note=43, velocity=107, time=20),
    Message('note_off', channel=5, note=43, velocity=64, time=76),
    Message('note_on', channel=5, note=45, velocity=107, time=20),
    Message('note_off', channel=5, note=45, velocity=64, time=153),
    Message('note_on', channel=5, note=45, velocity=107, time=135),
    Message('note_off', channel=5, note=45, velocity=64, time=172),
    Message('note_on', channel=5, note=45, velocity=107, time=20),
    Message('note_off', channel=5, note=45, velocity=64, time=76),
    Message('note_on', channel=5, note=43, velocity=107, time=20),
    Message('note_off', channel=5, note=43, velocity=64, time=76),
    Message('note_on', channel=5, note=42, velocity=107, time=20),
    Message('note_off', channel=5, note=42, velocity=64, time=76),
    Message('note_on', channel=5, note=40, velocity=107, time=20),
    Message('note_off', channel=5, note=40, velocity=64, time=153),
    Message('note_on', channel=5, note=40, velocity=107, time=39),
    Message('note_off', channel=5, note=40, velocity=64, time=153),
    Message('note_on', channel=5, note=40, velocity=107, time=135),
    Message('note_off', channel=5, note=40, velocity=64, time=76),
    Message('note_on', channel=5, note=42, velocity=107, time=20),
    Message('note_off', channel=5, note=42, velocity=64, time=76),
    Message('note_on', channel=5, note=43, velocity=107, time=20),
    Message('note_off', channel=5, note=43, velocity=64, time=76),
    Message('note_on', channel=5, note=45, velocity=107, time=20),
    Message('note_off', channel=5, note=45, velocity=64, time=153),
    Message('note_on', channel=5, note=45, velocity=107, time=135),
    Message('note_off', channel=5, note=45, velocity=64, time=172),
    Message('note_on', channel=5, note=45, velocity=107, time=20),
    Message('note_off', channel=5, note=45, velocity=64, time=76),
    Message('note_on', channel=5, note=43, velocity=107, time=20),
    Message('note_off', channel=5, note=43, velocity=64, time=76),
    Message('note_on', channel=5, note=42, velocity=107, time=20),
    Message('note_off', channel=5, note=42, velocity=64, time=76),
    Message('note_on', channel=5, note=40, velocity=102, time=20),
    Message('note_off', channel=5, note=40, velocity=64, time=153),
    Message('note_on', channel=5, note=40, velocity=102, time=39),
    Message('note_off', channel=5, note=40, velocity=64, time=153),
    Message('note_on', channel=5, note=40, velocity=102, time=135),
    Message('note_off', channel=5, note=40, velocity=64, time=76),
    Message('note_on', channel=5, note=42, velocity=102, time=20),
    Message('note_off', channel=5, note=42, velocity=64, time=76),
    Message('note_on', channel=5, note=43, velocity=102, time=20),
    Message('note_off', channel=5, note=43, velocity=64, time=76),
    Message('note_on', channel=5, note=45, velocity=107, time=20),
    Message('note_off', channel=5, note=45, velocity=64, time=153),
    Message('note_on', channel=5, note=45, velocity=107, time=135),
    Message('note_off', channel=5, note=45, velocity=64, time=172),
    Message('note_on', channel=5, note=45, velocity=107, time=20),
    Message('note_off', channel=5, note=45, velocity=64, time=76),
    Message('note_on', channel=5, note=43, velocity=107, time=20),
    Message('note_off', channel=5, note=43, velocity=64, time=76),
    Message('note_on', channel=5, note=42, velocity=107, time=20),
    Message('note_off', channel=5, note=42, velocity=64, time=76),
    Message('control_change', channel=5, control=7, value=114, time=20),
    Message('note_on', channel=5, note=40, velocity=107, time=0),
    Message('control_change', channel=5, control=7, value=113, time=48),
    Message('control_change', channel=5, control=7, value=112, time=48),
    Message('control_change', channel=5, control=7, value=111, time=48),
    Message('note_off', channel=5, note=40, velocity=64, time=9),
    Message('control_change', channel=5, control=7, value=110, time=15),
    Message('note_on', channel=5, note=40, velocity=107, time=24),
    Message('control_change', channel=5, control=7, value=109, time=24),
    Message('control_change', channel=5, control=7, value=108, time=48),
    Message('control_change', channel=5, control=7, value=107, time=24),
    Message('control_change', channel=5, control=7, value=106, time=48),
    Message('note_off', channel=5, note=40, velocity=64, time=9),
    Message('control_change', channel=5, control=7, value=105, time=39),
    Message('control_change', channel=5, control=7, value=104, time=24),
    Message('control_change', channel=5, control=7, value=103, time=48),
    Message('note_on', channel=5, note=40, velocity=107, time=24),
    Message('control_change', channel=5, control=7, value=102, time=24),
    Message('control_change', channel=5, control=7, value=101, time=24),
    Message('note_off', channel=5, note=40, velocity=64, time=28),
    Message('control_change', channel=5, control=7, value=100, time=20),
    Message('note_on', channel=5, note=42, velocity=107, time=0),
    Message('control_change', channel=5, control=7, value=99, time=48),
    Message('control_change', channel=5, control=7, value=98, time=24),
    Message('note_off', channel=5, note=42, velocity=64, time=4),
    Message('note_on', channel=5, note=43, velocity=107, time=20),
    Message('control_change', channel=5, control=7, value=97, time=24),
    Message('control_change', channel=5, control=7, value=96, time=48),
    Message('note_off', channel=5, note=43, velocity=64, time=4),
    Message('control_change', channel=5, control=7, value=95, time=20),
    Message('note_on', channel=5, note=45, velocity=107, time=0),
    Message('control_change', channel=5, control=7, value=94, time=48),
    Message('control_change', channel=5, control=7, value=93, time=48),
    Message('control_change', channel=5, control=7, value=92, time=48),
    Message('note_off', channel=5, note=45, velocity=64, time=9),
    Message('control_change', channel=5, control=7, value=91, time=15),
    Message('control_change', channel=5, control=7, value=90, time=48),
    Message('control_change', channel=5, control=7, value=89, time=48),
    Message('control_change', channel=5, control=7, value=88, time=24),
    Message('note_on', channel=5, note=45, velocity=107, time=0),
    Message('control_change', channel=5, control=7, value=87, time=48),
    Message('control_change', channel=5, control=7, value=86, time=48),
    Message('control_change', channel=5, control=7, value=85, time=24),
    Message('control_change', channel=5, control=7, value=84, time=48),
    Message('note_off', channel=5, note=45, velocity=64, time=4),
    Message('note_on', channel=5, note=45, velocity=107, time=20),
    Message('control_change', channel=5, control=7, value=83, time=24),
    Message('control_change', channel=5, control=7, value=82, time=24),
    Message('note_off', channel=5, note=45, velocity=64, time=28),
    Message('control_change', channel=5, control=7, value=81, time=20),
    Message('note_on', channel=5, note=43, velocity=107, time=0),
    Message('control_change', channel=5, control=7, value=80, time=48),
    Message('control_change', channel=5, control=7, value=79, time=24),
    Message('note_off', channel=5, note=43, velocity=64, time=4),
    Message('note_on', channel=5, note=42, velocity=107, time=20),
    Message('control_change', channel=5, control=7, value=78, time=24),
    Message('control_change', channel=5, control=7, value=77, time=48),
    Message('note_off', channel=5, note=42, velocity=64, time=4),
    Message('control_change', channel=5, control=7, value=76, time=20),
    Message('note_on', channel=5, note=40, velocity=107, time=0),
    Message('control_change', channel=5, control=7, value=75, time=48),
    Message('control_change', channel=5, control=7, value=74, time=48),
    Message('control_change', channel=5, control=7, value=73, time=48),
    Message('note_off', channel=5, note=40, velocity=64, time=9),
    Message('control_change', channel=5, control=7, value=72, time=15),
    Message('note_on', channel=5, note=40, velocity=107, time=24),
    Message('control_change', channel=5, control=7, value=71, time=24),
    Message('control_change', channel=5, control=7, value=70, time=48),
    Message('control_change', channel=5, control=7, value=69, time=24),
    Message('control_change', channel=5, control=7, value=68, time=48),
    Message('note_off', channel=5, note=40, velocity=64, time=9),
    Message('control_change', channel=5, control=7, value=67, time=39),
    Message('control_change', channel=5, control=7, value=66, time=24),
    Message('control_change', channel=5, control=7, value=65, time=48),
    Message('note_on', channel=5, note=40, velocity=107, time=24),
    Message('control_change', channel=5, control=7, value=64, time=24),
    Message('control_change', channel=5, control=7, value=63, time=24),
    Message('note_off', channel=5, note=40, velocity=64, time=28),
    Message('control_change', channel=5, control=7, value=62, time=20),
    Message('note_on', channel=5, note=42, velocity=107, time=0),
    Message('control_change', channel=5, control=7, value=61, time=48),
    Message('control_change', channel=5, control=7, value=60, time=24),
    Message('note_off', channel=5, note=42, velocity=64, time=4),
    Message('note_on', channel=5, note=43, velocity=107, time=20),
    Message('control_change', channel=5, control=7, value=59, time=24),
    Message('control_change', channel=5, control=7, value=58, time=48),
    Message('note_off', channel=5, note=43, velocity=64, time=4),
    Message('control_change', channel=5, control=7, value=57, time=20),
    Message('note_on', channel=5, note=45, velocity=107, time=0),
    Message('control_change', channel=5, control=7, value=56, time=48),
    Message('control_change', channel=5, control=7, value=55, time=48),
    Message('control_change', channel=5, control=7, value=54, time=48),
    Message('note_off', channel=5, note=45, velocity=64, time=9),
    Message('control_change', channel=5, control=7, value=53, time=15),
    Message('control_change', channel=5, control=7, value=52, time=48),
    Message('control_change', channel=5, control=7, value=51, time=48),
    Message('control_change', channel=5, control=7, value=50, time=24),
    Message('note_on', channel=5, note=45, velocity=107, time=0),
    Message('control_change', channel=5, control=7, value=49, time=48),
    Message('control_change', channel=5, control=7, value=48, time=48),
    Message('control_change', channel=5, control=7, value=47, time=24),
    Message('control_change', channel=5, control=7, value=46, time=48),
    Message('note_off', channel=5, note=45, velocity=64, time=4),
    Message('note_on', channel=5, note=45, velocity=107, time=20),
    Message('control_change', channel=5, control=7, value=45, time=24),
    Message('control_change', channel=5, control=7, value=44, time=24),
    Message('note_off', channel=5, note=45, velocity=64, time=28),
    Message('control_change', channel=5, control=7, value=43, time=20),
    Message('note_on', channel=5, note=43, velocity=107, time=0),
    Message('control_change', channel=5, control=7, value=42, time=48),
    Message('control_change', channel=5, control=7, value=41, time=24),
    Message('note_off', channel=5, note=43, velocity=64, time=4),
    Message('note_on', channel=5, note=42, velocity=107, time=20),
    Message('control_change', channel=5, control=7, value=40, time=24),
    Message('control_change', channel=5, control=7, value=39, time=48),
    Message('note_off', channel=5, note=42, velocity=64, time=4),
    Message('control_change', channel=5, control=7, value=38, time=20),
    Message('note_on', channel=5, note=40, velocity=107, time=0),
    Message('control_change', channel=5, control=7, value=37, time=48),
    Message('control_change', channel=5, control=7, value=36, time=48),
    Message('control_change', channel=5, control=7, value=35, time=48),
    Message('note_off', channel=5, note=40, velocity=64, time=9),
    Message('control_change', channel=5, control=7, value=34, time=15),
    Message('note_on', channel=5, note=40, velocity=107, time=24),
    Message('control_change', channel=5, control=7, value=33, time=24),
    Message('control_change', channel=5, control=7, value=32, time=48),
    Message('control_change', channel=5, control=7, value=31, time=24),
    Message('control_change', channel=5, control=7, value=30, time=48),
    Message('note_off', channel=5, note=40, velocity=64, time=9),
    Message('control_change', channel=5, control=7, value=29, time=39),
    Message('control_change', channel=5, control=7, value=28, time=24),
    Message('control_change', channel=5, control=7, value=27, time=48),
    Message('note_on', channel=5, note=40, velocity=107, time=24),
    Message('control_change', channel=5, control=7, value=26, time=24),
    Message('control_change', channel=5, control=7, value=25, time=24),
    Message('note_off', channel=5, note=40, velocity=64, time=28),
    Message('control_change', channel=5, control=7, value=24, time=20),
    Message('note_on', channel=5, note=42, velocity=107, time=0),
    Message('control_change', channel=5, control=7, value=23, time=48),
    Message('control_change', channel=5, control=7, value=22, time=24),
    Message('note_off', channel=5, note=42, velocity=64, time=4),
    Message('note_on', channel=5, note=43, velocity=107, time=20),
    Message('control_change', channel=5, control=7, value=21, time=24),
    Message('control_change', channel=5, control=7, value=20, time=48),
    Message('note_off', channel=5, note=43, velocity=64, time=4),
    Message('control_change', channel=5, control=7, value=19, time=20),
    Message('note_on', channel=5, note=45, velocity=107, time=0),
    Message('control_change', channel=5, control=7, value=18, time=96),
    Message('note_off', channel=5, note=45, velocity=64, time=57),
    Message('control_change', channel=5, control=7, value=17, time=15),
    Message('control_change', channel=5, control=7, value=16, time=72),
    Message('note_on', channel=5, note=45, velocity=107, time=48),
    Message('control_change', channel=5, control=7, value=15, time=24),
    Message('control_change', channel=5, control=7, value=14, time=72),
    Message('note_off', channel=5, note=45, velocity=64, time=76),
    Message('control_change', channel=5, control=7, value=13, time=20),
    Message('note_on', channel=5, note=45, velocity=107, time=0),
    Message('control_change', channel=5, control=7, value=12, time=72),
    Message('note_off', channel=5, note=45, velocity=64, time=4),
    Message('note_on', channel=5, note=43, velocity=107, time=20),
    Message('control_change', channel=5, control=7, value=11, time=48),
    Message('note_off', channel=5, note=43, velocity=64, time=28),
    Message('note_on', channel=5, note=42, velocity=107, time=20),
    Message('control_change', channel=5, control=7, value=10, time=24),
    Message('note_off', channel=5, note=42, velocity=64, time=52),
    Message('control_change', channel=5, control=7, value=9, time=20),
    Message('note_on', channel=5, note=40, velocity=107, time=0),
    Message('control_change', channel=5, control=7, value=8, time=96),
    Message('note_off', channel=5, note=40, velocity=64, time=57),
    Message('control_change', channel=5, control=7, value=7, time=15),
    Message('note_on', channel=5, note=40, velocity=107, time=24),
    Message('control_change', channel=5, control=7, value=6, time=48),
    Message('control_change', channel=5, control=7, value=5, time=72),
    Message('note_off', channel=5, note=40, velocity=64, time=33),
    Message('control_change', channel=5, control=7, value=4, time=39),
    Message('control_change', channel=5, control=7, value=3, time=96),
    Message('note_on', channel=5, note=40, velocity=107, time=0),
    Message('control_change', channel=5, control=7, value=2, time=72),
    Message('note_off', channel=5, note=40, velocity=64, time=4),
    Message('note_on', channel=5, note=42, velocity=107, time=20),
    Message('control_change', channel=5, control=7, value=1, time=48),
    Message('note_off', channel=5, note=42, velocity=64, time=28),
    Message('note_on', channel=5, note=43, velocity=107, time=20),
    Message('control_change', channel=5, control=7, value=0, time=24),
    Message('note_off', channel=5, note=43, velocity=64, time=52),
    Message('pitchwheel', channel=5, pitch=0, time=788),
    Message('polytouch', channel=5, note=64, value=0, time=0),
    Message('aftertouch', channel=5, value=0, time=0),
    Message('control_change', channel=5, control=1, value=0, time=0),
    Message('control_change', channel=5, control=2, value=0, time=0),
    Message('control_change', channel=5, control=4, value=0, time=0),
    Message('control_change', channel=5, control=7, value=100, time=0),
    Message('control_change', channel=5, control=8, value=0, time=0),
    Message('control_change', channel=5, control=10, value=63, time=0),
    Message('control_change', channel=5, control=64, value=0, time=0),
    Message('control_change', channel=5, control=65, value=0, time=0),
    Message('control_change', channel=5, control=66, value=0, time=0),
    Message('control_change', channel=5, control=67, value=0, time=0),
    Message('control_change', channel=5, control=68, value=0, time=0),
    MetaMessage('end_of_track', time=0)]),
  MidiTrack([
    MetaMessage('midi_port', port=0, time=0),
    MetaMessage('track_name', name='Keyboard            ', time=0),
    Message('program_change', channel=4, program=31, time=0),
    Message('control_change', channel=4, control=7, value=105, time=0),
    Message('control_change', channel=4, control=10, value=74, time=0),
    Message('control_change', channel=4, control=7, value=106, time=264),
    Message('control_change', channel=4, control=7, value=107, time=264),
    Message('control_change', channel=4, control=7, value=108, time=239),
    Message('control_change', channel=4, control=1, value=127, time=18433),
    Message('note_on', channel=4, note=71, velocity=94, time=0),
    Message('note_off', channel=4, note=71, velocity=64, time=74),
    Message('note_on', channel=4, note=71, velocity=94, time=120),
    Message('note_off', channel=4, note=71, velocity=64, time=262),
    Message('note_on', channel=4, note=71, velocity=94, time=26),
    Message('note_off', channel=4, note=71, velocity=64, time=56),
    Message('note_on', channel=4, note=73, velocity=94, time=40),
    Message('note_off', channel=4, note=73, velocity=64, time=62),
    Message('note_on', channel=4, note=74, velocity=94, time=32),
    Message('note_off', channel=4, note=74, velocity=64, time=376),
    Message('note_on', channel=4, note=69, velocity=94, time=8),
    Message('note_on', channel=4, note=74, velocity=94, time=0),
    Message('note_off', channel=4, note=69, velocity=64, time=168),
    Message('note_off', channel=4, note=74, velocity=64, time=18),
    Message('note_on', channel=4, note=69, velocity=94, time=8),
    Message('note_on', channel=4, note=74, velocity=94, time=0),
    Message('note_off', channel=4, note=69, velocity=64, time=64),
    Message('note_off', channel=4, note=74, velocity=64, time=22),
    Message('note_on', channel=4, note=73, velocity=94, time=10),
    Message('note_on', channel=4, note=69, velocity=94, time=0),
    Message('note_off', channel=4, note=73, velocity=64, time=130),
    Message('note_off', channel=4, note=69, velocity=64, time=14),
    Message('note_on', channel=4, note=68, velocity=94, time=46),
    Message('note_on', channel=4, note=71, velocity=94, time=0),
    Message('note_off', channel=4, note=68, velocity=64, time=98),
    Message('note_off', channel=4, note=71, velocity=64, time=4),
    Message('note_on', channel=4, note=71, velocity=94, time=92),
    Message('note_on', channel=4, note=68, velocity=94, time=0),
    Message('note_off', channel=4, note=71, velocity=64, time=244),
    Message('note_off', channel=4, note=68, velocity=64, time=0),
    Message('note_on', channel=4, note=71, velocity=94, time=44),
    Message('note_on', channel=4, note=68, velocity=94, time=0),
    Message('note_off', channel=4, note=71, velocity=64, time=52),
    Message('note_on', channel=4, note=73, velocity=94, time=44),
    Message('note_off', channel=4, note=68, velocity=64, time=50),
    Message('note_off', channel=4, note=73, velocity=64, time=8),
    Message('note_on', channel=4, note=74, velocity=94, time=36),
    Message('note_on', channel=4, note=69, velocity=94, time=2),
    Message('note_off', channel=4, note=69, velocity=64, time=94),
    Message('note_off', channel=4, note=74, velocity=64, time=272),
    Message('note_on', channel=4, note=74, velocity=94, time=16),
    Message('note_off', channel=4, note=74, velocity=64, time=174),
    Message('note_on', channel=4, note=74, velocity=94, time=20),
    Message('note_off', channel=4, note=74, velocity=64, time=80),
    Message('note_on', channel=4, note=73, velocity=94, time=18),
    Message('note_off', channel=4, note=73, velocity=64, time=142),
    Message('note_on', channel=4, note=71, velocity=94, time=46),
    Message('note_on', channel=4, note=68, velocity=94, time=0),
    Message('note_off', channel=4, note=68, velocity=64, time=64),
    Message('note_off', channel=4, note=71, velocity=64, time=10),
    Message('note_on', channel=4, note=71, velocity=94, time=120),
    Message('note_on', channel=4, note=68, velocity=94, time=0),
    Message('note_off', channel=4, note=68, velocity=64, time=254),
    Message('note_off', channel=4, note=71, velocity=64, time=8),
    Message('note_on', channel=4, note=71, velocity=94, time=26),
    Message('note_on', channel=4, note=68, velocity=94, time=0),
    Message('note_off', channel=4, note=71, velocity=64, time=56),
    Message('note_on', channel=4, note=73, velocity=94, time=40),
    Message('note_off', channel=4, note=68, velocity=64, time=44),
    Message('note_off', channel=4, note=73, velocity=64, time=18),
    Message('note_on', channel=4, note=69, velocity=94, time=34),
    Message('note_on', channel=4, note=74, velocity=94, time=0),
    Message('note_off', channel=4, note=69, velocity=64, time=358),
    Message('note_off', channel=4, note=74, velocity=64, time=16),
    Message('note_on', channel=4, note=69, velocity=94, time=8),
    Message('note_on', channel=4, note=74, velocity=94, time=0),
    Message('note_off', channel=4, note=69, velocity=64, time=168),
    Message('note_off', channel=4, note=74, velocity=64, time=18),
    Message('note_on', channel=4, note=69, velocity=94, time=8),
    Message('note_on', channel=4, note=74, velocity=94, time=0),
    Message('note_off', channel=4, note=69, velocity=64, time=64),
    Message('note_off', channel=4, note=74, velocity=64, time=22),
    Message('note_on', channel=4, note=73, velocity=94, time=10),
    Message('note_on', channel=4, note=69, velocity=94, time=0),
    Message('note_off', channel=4, note=73, velocity=64, time=130),
    Message('note_off', channel=4, note=69, velocity=64, time=14),
    Message('note_on', channel=4, note=68, velocity=94, time=46),
    Message('note_on', channel=4, note=71, velocity=94, time=0),
    Message('note_off', channel=4, note=68, velocity=64, time=98),
    Message('note_off', channel=4, note=71, velocity=64, time=4),
    Message('note_on', channel=4, note=71, velocity=94, time=92),
    Message('note_on', channel=4, note=68, velocity=94, time=0),
    Message('note_off', channel=4, note=71, velocity=64, time=244),
    Message('note_off', channel=4, note=68, velocity=64, time=0),
    Message('note_on', channel=4, note=71, velocity=94, time=44),
    Message('note_on', channel=4, note=68, velocity=94, time=0),
    Message('note_off', channel=4, note=71, velocity=64, time=52),
    Message('note_on', channel=4, note=73, velocity=94, time=44),
    Message('note_off', channel=4, note=68, velocity=64, time=50),
    Message('note_off', channel=4, note=73, velocity=64, time=8),
    Message('note_on', channel=4, note=69, velocity=94, time=38),
    Message('note_on', channel=4, note=74, velocity=94, time=0),
    Message('note_off', channel=4, note=69, velocity=64, time=352),
    Message('note_off', channel=4, note=74, velocity=64, time=14),
    Message('note_on', channel=4, note=69, velocity=94, time=18),
    Message('note_on', channel=4, note=74, velocity=94, time=0),
    Message('note_off', channel=4, note=69, velocity=64, time=160),
    Message('note_off', channel=4, note=74, velocity=64, time=12),
    Message('note_on', channel=4, note=69, velocity=94, time=20),
    Message('note_on', channel=4, note=74, velocity=94, time=0),
    Message('note_off', channel=4, note=69, velocity=64, time=74),
    Message('note_off', channel=4, note=74, velocity=64, time=6),
    Message('note_on', channel=4, note=73, velocity=94, time=16),
    Message('note_on', channel=4, note=69, velocity=94, time=0),
    Message('note_off', channel=4, note=73, velocity=64, time=144),
    Message('note_off', channel=4, note=69, velocity=64, time=14),
    Message('note_on', channel=4, note=71, velocity=94, time=32),
    Message('note_on', channel=4, note=68, velocity=94, time=0),
    Message('note_off', channel=4, note=68, velocity=64, time=64),
    Message('note_off', channel=4, note=71, velocity=64, time=10),
    Message('note_on', channel=4, note=71, velocity=94, time=120),
    Message('note_on', channel=4, note=68, velocity=94, time=0),
    Message('note_off', channel=4, note=68, velocity=64, time=254),
    Message('note_off', channel=4, note=71, velocity=64, time=8),
    Message('note_on', channel=4, note=71, velocity=94, time=26),
    Message('note_on', channel=4, note=68, velocity=94, time=0),
    Message('note_off', channel=4, note=71, velocity=64, time=56),
    Message('note_on', channel=4, note=73, velocity=94, time=40),
    Message('note_off', channel=4, note=68, velocity=64, time=44),
    Message('note_off', channel=4, note=73, velocity=64, time=18),
    Message('note_on', channel=4, note=69, velocity=94, time=32),
    Message('note_on', channel=4, note=74, velocity=94, time=0),
    Message('note_off', channel=4, note=69, velocity=64, time=360),
    Message('note_off', channel=4, note=74, velocity=64, time=16),
    Message('note_on', channel=4, note=69, velocity=94, time=8),
    Message('note_on', channel=4, note=74, velocity=94, time=0),
    Message('note_off', channel=4, note=69, velocity=64, time=168),
    Message('note_off', channel=4, note=74, velocity=64, time=18),
    Message('note_on', channel=4, note=69, velocity=94, time=8),
    Message('note_on', channel=4, note=74, velocity=94, time=0),
    Message('note_off', channel=4, note=69, velocity=64, time=64),
    Message('note_off', channel=4, note=74, velocity=64, time=22),
    Message('note_on', channel=4, note=73, velocity=94, time=10),
    Message('note_on', channel=4, note=69, velocity=94, time=0),
    Message('note_off', channel=4, note=73, velocity=64, time=130),
    Message('note_off', channel=4, note=69, velocity=64, time=14),
    Message('note_on', channel=4, note=71, velocity=94, time=46),
    Message('note_off', channel=4, note=71, velocity=64, time=102),
    Message('note_on', channel=4, note=68, velocity=94, time=92),
    Message('note_off', channel=4, note=68, velocity=64, time=244),
    Message('note_on', channel=4, note=71, velocity=94, time=44),
    Message('note_on', channel=4, note=68, velocity=94, time=0),
    Message('note_off', channel=4, note=71, velocity=64, time=52),
    Message('note_on', channel=4, note=73, velocity=94, time=44),
    Message('note_off', channel=4, note=68, velocity=64, time=50),
    Message('note_off', channel=4, note=73, velocity=64, time=8),
    Message('note_on', channel=4, note=74, velocity=94, time=38),
    Message('note_off', channel=4, note=74, velocity=64, time=366),
    Message('note_on', channel=4, note=74, velocity=94, time=18),
    Message('note_off', channel=4, note=74, velocity=64, time=172),
    Message('note_on', channel=4, note=74, velocity=94, time=20),
    Message('note_off', channel=4, note=74, velocity=64, time=80),
    Message('note_on', channel=4, note=73, velocity=94, time=18),
    Message('note_off', channel=4, note=73, velocity=64, time=142),
    Message('note_on', channel=4, note=68, velocity=94, time=46),
    Message('note_off', channel=4, note=68, velocity=64, time=174),
    Message('note_on', channel=4, note=71, velocity=94, time=1362),
    Message('note_off', channel=4, note=71, velocity=64, time=74),
    Message('note_on', channel=4, note=71, velocity=94, time=120),
    Message('note_off', channel=4, note=71, velocity=64, time=260),
    Message('note_on', channel=4, note=71, velocity=94, time=28),
    Message('note_off', channel=4, note=71, velocity=64, time=56),
    Message('note_on', channel=4, note=73, velocity=94, time=40),
    Message('note_off', channel=4, note=73, velocity=64, time=62),
    Message('note_on', channel=4, note=74, velocity=94, time=34),
    Message('note_off', channel=4, note=74, velocity=64, time=374),
    Message('note_on', channel=4, note=74, velocity=94, time=8),
    Message('note_off', channel=4, note=74, velocity=64, time=186),
    Message('note_on', channel=4, note=74, velocity=94, time=8),
    Message('note_off', channel=4, note=74, velocity=64, time=86),
    Message('note_on', channel=4, note=73, velocity=94, time=10),
    Message('note_off', channel=4, note=73, velocity=64, time=130),
    Message('note_on', channel=4, note=71, velocity=94, time=60),
    Message('note_off', channel=4, note=71, velocity=64, time=100),
    Message('note_on', channel=4, note=71, velocity=94, time=94),
    Message('note_off', channel=4, note=71, velocity=64, time=244),
    Message('note_on', channel=4, note=71, velocity=94, time=44),
    Message('note_off', channel=4, note=71, velocity=64, time=52),
    Message('note_on', channel=4, note=73, velocity=94, time=44),
    Message('note_off', channel=4, note=73, velocity=64, time=58),
    Message('note_on', channel=4, note=74, velocity=94, time=36),
    Message('control_change', channel=4, control=7, value=108, time=96),
    Message('control_change', channel=4, control=7, value=109, time=192),
    Message('note_off', channel=4, note=74, velocity=64, time=80),
    Message('note_on', channel=4, note=74, velocity=94, time=16),
    Message('control_change', channel=4, control=7, value=110, time=96),
    Message('note_off', channel=4, note=74, velocity=64, time=78),
    Message('note_on', channel=4, note=74, velocity=94, time=20),
    Message('note_off', channel=4, note=74, velocity=64, time=80),
    Message('control_change', channel=4, control=7, value=111, time=14),
    Message('note_on', channel=4, note=73, velocity=94, time=4),
    Message('note_off', channel=4, note=73, velocity=64, time=142),
    Message('control_change', channel=4, control=7, value=123, time=46),
    Message('note_on', channel=4, note=68, velocity=94, time=0),
    Message('note_off', channel=4, note=68, velocity=64, time=106),
    Message('note_on', channel=4, note=68, velocity=94, time=88),
    Message('note_off', channel=4, note=68, velocity=64, time=244),
    Message('note_on', channel=4, note=68, velocity=94, time=44),
    Message('note_off', channel=4, note=68, velocity=64, time=248),
    Message('note_on', channel=4, note=68, velocity=94, time=38),
    Message('note_off', channel=4, note=68, velocity=64, time=252),
    Message('note_on', channel=4, note=68, velocity=94, time=36),
    Message('note_off', channel=4, note=68, velocity=64, time=178),
    Message('note_on', channel=4, note=68, velocity=94, time=14),
    Message('note_off', channel=4, note=68, velocity=64, time=74),
    Message('note_on', channel=4, note=68, velocity=94, time=26),
    Message('note_off', channel=4, note=68, velocity=64, time=56),
    Message('note_on', channel=4, note=68, velocity=94, time=38),
    Message('note_off', channel=4, note=68, velocity=64, time=38),
    Message('note_on', channel=4, note=68, velocity=94, time=1592),
    Message('note_off', channel=4, note=68, velocity=64, time=132),
    Message('note_on', channel=4, note=68, velocity=94, time=62),
    Message('note_off', channel=4, note=68, velocity=64, time=156),
    Message('note_on', channel=4, note=68, velocity=94, time=38),
    Message('note_off', channel=4, note=68, velocity=64, time=30),
    Message('note_on', channel=4, note=68, velocity=94, time=64),
    Message('note_off', channel=4, note=68, velocity=64, time=238),
    Message('note_on', channel=4, note=68, velocity=94, time=48),
    Message('note_off', channel=4, note=68, velocity=64, time=152),
    Message('note_on', channel=4, note=68, velocity=94, time=42),
    Message('note_off', channel=4, note=68, velocity=64, time=32),
    Message('note_on', channel=4, note=68, velocity=94, time=64),
    Message('note_off', channel=4, note=68, velocity=64, time=170),
    Message('note_on', channel=4, note=68, velocity=94, time=22),
    Message('note_off', channel=4, note=68, velocity=64, time=62),
    Message('note_on', channel=4, note=68, velocity=94, time=34),
    Message('note_off', channel=4, note=68, velocity=64, time=52),
    Message('note_on', channel=4, note=68, velocity=94, time=44),
    Message('note_off', channel=4, note=68, velocity=64, time=32),
    Message('note_on', channel=4, note=68, velocity=94, time=1598),
    Message('note_off', channel=4, note=68, velocity=64, time=138),
    Message('note_on', channel=4, note=68, velocity=94, time=56),
    Message('note_off', channel=4, note=68, velocity=64, time=154),
    Message('note_on', channel=4, note=68, velocity=94, time=38),
    Message('note_off', channel=4, note=68, velocity=64, time=42),
    Message('note_on', channel=4, note=68, velocity=94, time=54),
    Message('note_off', channel=4, note=68, velocity=64, time=64),
    Message('note_on', channel=4, note=68, velocity=94, time=32),
    Message('note_off', channel=4, note=68, velocity=64, time=52),
    Message('note_on', channel=4, note=66, velocity=94, time=44),
    Message('note_off', channel=4, note=66, velocity=64, time=254),
    Message('note_on', channel=4, note=66, velocity=94, time=34),
    Message('note_off', channel=4, note=66, velocity=64, time=160),
    Message('note_on', channel=4, note=66, velocity=94, time=34),
    Message('note_off', channel=4, note=66, velocity=64, time=50),
    Message('note_on', channel=4, note=66, velocity=94, time=44),
    Message('note_off', channel=4, note=66, velocity=64, time=48),
    Message('note_on', channel=4, note=66, velocity=94, time=50),
    Message('note_off', channel=4, note=66, velocity=64, time=42),
    Message('note_on', channel=4, note=68, velocity=94, time=52),
    Message('note_off', channel=4, note=68, velocity=64, time=238),
    Message('note_on', channel=4, note=68, velocity=94, time=50),
    Message('note_off', channel=4, note=68, velocity=64, time=152),
    Message('note_on', channel=4, note=68, velocity=94, time=42),
    Message('note_off', channel=4, note=68, velocity=64, time=50),
    Message('note_on', channel=4, note=68, velocity=94, time=44),
    Message('note_off', channel=4, note=68, velocity=64, time=64),
    Message('note_on', channel=4, note=68, velocity=94, time=32),
    Message('note_off', channel=4, note=68, velocity=64, time=38),
    Message('note_on', channel=4, note=71, velocity=94, time=920),
    Message('note_off', channel=4, note=71, velocity=64, time=74),
    Message('note_on', channel=4, note=71, velocity=94, time=120),
    Message('note_off', channel=4, note=71, velocity=64, time=262),
    Message('note_on', channel=4, note=71, velocity=94, time=26),
    Message('note_off', channel=4, note=71, velocity=64, time=56),
    Message('note_on', channel=4, note=73, velocity=94, time=40),
    Message('note_off', channel=4, note=73, velocity=64, time=62),
    Message('note_on', channel=4, note=74, velocity=94, time=34),
    Message('note_off', channel=4, note=74, velocity=64, time=374),
    Message('note_on', channel=4, note=74, velocity=94, time=10),
    Message('note_off', channel=4, note=74, velocity=64, time=184),
    Message('note_on', channel=4, note=74, velocity=94, time=8),
    Message('note_off', channel=4, note=74, velocity=64, time=86),
    Message('note_on', channel=4, note=73, velocity=94, time=12),
    Message('note_off', channel=4, note=73, velocity=64, time=128),
    Message('note_on', channel=4, note=71, velocity=94, time=60),
    Message('note_off', channel=4, note=71, velocity=64, time=102),
    Message('note_on', channel=4, note=71, velocity=94, time=92),
    Message('note_off', channel=4, note=71, velocity=64, time=244),
    Message('note_on', channel=4, note=71, velocity=94, time=44),
    Message('note_off', channel=4, note=71, velocity=64, time=52),
    Message('note_on', channel=4, note=73, velocity=94, time=46),
    Message('note_off', channel=4, note=73, velocity=64, time=56),
    Message('note_on', channel=4, note=74, velocity=94, time=38),
    Message('note_off', channel=4, note=74, velocity=64, time=366),
    Message('note_on', channel=4, note=74, velocity=94, time=18),
    Message('note_off', channel=4, note=74, velocity=64, time=172),
    Message('note_on', channel=4, note=74, velocity=94, time=20),
    Message('note_off', channel=4, note=74, velocity=64, time=80),
    Message('note_on', channel=4, note=73, velocity=94, time=18),
    Message('note_off', channel=4, note=73, velocity=64, time=142),
    Message('note_on', channel=4, note=71, velocity=94, time=46),
    Message('note_off', channel=4, note=71, velocity=64, time=74),
    Message('note_on', channel=4, note=71, velocity=94, time=120),
    Message('note_off', channel=4, note=71, velocity=64, time=262),
    Message('note_on', channel=4, note=71, velocity=94, time=26),
    Message('note_off', channel=4, note=71, velocity=64, time=56),
    Message('note_on', channel=4, note=73, velocity=94, time=42),
    Message('note_off', channel=4, note=73, velocity=64, time=60),
    Message('note_on', channel=4, note=74, velocity=94, time=32),
    Message('note_off', channel=4, note=74, velocity=64, time=376),
    Message('note_on', channel=4, note=74, velocity=94, time=10),
    Message('note_off', channel=4, note=74, velocity=64, time=184),
    Message('note_on', channel=4, note=74, velocity=94, time=8),
    Message('note_off', channel=4, note=74, velocity=64, time=86),
    Message('note_on', channel=4, note=73, velocity=94, time=10),
    Message('note_off', channel=4, note=73, velocity=64, time=130),
    Message('note_on', channel=4, note=71, velocity=94, time=60),
    Message('note_off', channel=4, note=71, velocity=64, time=102),
    Message('note_on', channel=4, note=71, velocity=94, time=92),
    Message('note_off', channel=4, note=71, velocity=64, time=244),
    Message('note_on', channel=4, note=71, velocity=94, time=44),
    Message('note_off', channel=4, note=71, velocity=64, time=52),
    Message('note_on', channel=4, note=73, velocity=94, time=44),
    Message('note_off', channel=4, note=73, velocity=64, time=58),
    Message('note_on', channel=4, note=74, velocity=94, time=38),
    Message('note_off', channel=4, note=74, velocity=64, time=366),
    Message('note_on', channel=4, note=74, velocity=94, time=18),
    Message('note_off', channel=4, note=74, velocity=64, time=172),
    Message('note_on', channel=4, note=74, velocity=94, time=20),
    Message('note_off', channel=4, note=74, velocity=64, time=80),
    Message('note_on', channel=4, note=73, velocity=94, time=18),
    Message('note_off', channel=4, note=73, velocity=64, time=142),
    Message('note_on', channel=4, note=71, velocity=94, time=46),
    Message('note_off', channel=4, note=71, velocity=64, time=74),
    Message('note_on', channel=4, note=71, velocity=94, time=120),
    Message('note_off', channel=4, note=71, velocity=64, time=262),
    Message('note_on', channel=4, note=71, velocity=94, time=26),
    Message('note_off', channel=4, note=71, velocity=64, time=56),
    Message('note_on', channel=4, note=73, velocity=94, time=40),
    Message('note_off', channel=4, note=73, velocity=64, time=62),
    Message('note_on', channel=4, note=74, velocity=94, time=34),
    Message('note_off', channel=4, note=74, velocity=64, time=374),
    Message('note_on', channel=4, note=74, velocity=94, time=10),
    Message('note_off', channel=4, note=74, velocity=64, time=184),
    Message('note_on', channel=4, note=74, velocity=94, time=8),
    Message('note_off', channel=4, note=74, velocity=64, time=86),
    Message('note_on', channel=4, note=73, velocity=94, time=10),
    Message('note_off', channel=4, note=73, velocity=64, time=130),
    Message('note_on', channel=4, note=71, velocity=94, time=60),
    Message('note_off', channel=4, note=71, velocity=64, time=100),
    Message('note_on', channel=4, note=71, velocity=94, time=94),
    Message('note_off', channel=4, note=71, velocity=64, time=244),
    Message('note_on', channel=4, note=71, velocity=94, time=44),
    Message('note_off', channel=4, note=71, velocity=64, time=52),
    Message('note_on', channel=4, note=73, velocity=94, time=44),
    Message('note_off', channel=4, note=73, velocity=64, time=58),
    Message('note_on', channel=4, note=74, velocity=94, time=38),
    Message('note_off', channel=4, note=74, velocity=64, time=366),
    Message('note_on', channel=4, note=74, velocity=94, time=16),
    Message('note_off', channel=4, note=74, velocity=64, time=174),
    Message('note_on', channel=4, note=74, velocity=94, time=20),
    Message('note_off', channel=4, note=74, velocity=64, time=80),
    Message('note_on', channel=4, note=73, velocity=94, time=18),
    Message('note_off', channel=4, note=73, velocity=64, time=142),
    Message('note_on', channel=4, note=71, velocity=94, time=46),
    Message('note_off', channel=4, note=71, velocity=64, time=74),
    Message('note_on', channel=4, note=71, velocity=94, time=120),
    Message('note_off', channel=4, note=71, velocity=64, time=260),
    Message('note_on', channel=4, note=71, velocity=94, time=28),
    Message('note_off', channel=4, note=71, velocity=64, time=56),
    Message('note_on', channel=4, note=73, velocity=94, time=40),
    Message('note_off', channel=4, note=73, velocity=64, time=62),
    Message('note_on', channel=4, note=74, velocity=94, time=34),
    Message('note_off', channel=4, note=74, velocity=64, time=374),
    Message('note_on', channel=4, note=74, velocity=94, time=10),
    Message('note_off', channel=4, note=74, velocity=64, time=184),
    Message('note_on', channel=4, note=74, velocity=94, time=8),
    Message('note_off', channel=4, note=74, velocity=64, time=86),
    Message('note_on', channel=4, note=73, velocity=94, time=10),
    Message('note_off', channel=4, note=73, velocity=64, time=130),
    Message('note_on', channel=4, note=71, velocity=94, time=60),
    Message('note_off', channel=4, note=71, velocity=64, time=100),
    Message('note_on', channel=4, note=71, velocity=94, time=94),
    Message('note_off', channel=4, note=71, velocity=64, time=244),
    Message('note_on', channel=4, note=71, velocity=94, time=44),
    Message('note_off', channel=4, note=71, velocity=64, time=52),
    Message('note_on', channel=4, note=73, velocity=94, time=44),
    Message('note_off', channel=4, note=73, velocity=64, time=58),
    Message('note_on', channel=4, note=69, velocity=94, time=38),
    Message('note_off', channel=4, note=69, velocity=64, time=352),
    Message('note_on', channel=4, note=69, velocity=94, time=32),
    Message('note_off', channel=4, note=69, velocity=64, time=160),
    Message('note_on', channel=4, note=74, velocity=94, time=32),
    Message('note_off', channel=4, note=74, velocity=64, time=80),
    Message('note_on', channel=4, note=73, velocity=94, time=18),
    Message('note_off', channel=4, note=73, velocity=64, time=142),
    Message('note_on', channel=4, note=68, velocity=94, time=46),
    Message('note_off', channel=4, note=68, velocity=64, time=174),
    Message('note_on', channel=4, note=66, velocity=94, time=980),
    Message('note_off', channel=4, note=66, velocity=64, time=76),
    Message('note_on', channel=4, note=71, velocity=94, time=306),
    Message('note_off', channel=4, note=71, velocity=64, time=74),
    Message('note_on', channel=4, note=71, velocity=94, time=120),
    Message('note_off', channel=4, note=71, velocity=64, time=262),
    Message('note_on', channel=4, note=71, velocity=94, time=26),
    Message('note_off', channel=4, note=71, velocity=64, time=56),
    Message('note_on', channel=4, note=73, velocity=94, time=40),
    Message('note_off', channel=4, note=73, velocity=64, time=62),
    Message('note_on', channel=4, note=74, velocity=94, time=34),
    Message('note_off', channel=4, note=74, velocity=64, time=374),
    Message('note_on', channel=4, note=74, velocity=94, time=8),
    Message('note_off', channel=4, note=74, velocity=64, time=186),
    Message('note_on', channel=4, note=74, velocity=94, time=8),
    Message('note_off', channel=4, note=74, velocity=64, time=86),
    Message('note_on', channel=4, note=73, velocity=94, time=12),
    Message('note_off', channel=4, note=73, velocity=64, time=128),
    Message('note_on', channel=4, note=71, velocity=94, time=60),
    Message('note_off', channel=4, note=71, velocity=64, time=102),
    Message('note_on', channel=4, note=71, velocity=94, time=92),
    Message('note_off', channel=4, note=71, velocity=64, time=244),
    Message('note_on', channel=4, note=71, velocity=94, time=44),
    Message('note_off', channel=4, note=71, velocity=64, time=52),
    Message('note_on', channel=4, note=73, velocity=94, time=44),
    Message('note_off', channel=4, note=73, velocity=64, time=58),
    Message('note_on', channel=4, note=74, velocity=94, time=38),
    Message('note_off', channel=4, note=74, velocity=64, time=366),
    Message('note_on', channel=4, note=74, velocity=94, time=18),
    Message('note_off', channel=4, note=74, velocity=64, time=172),
    Message('note_on', channel=4, note=74, velocity=94, time=20),
    Message('note_off', channel=4, note=74, velocity=64, time=80),
    Message('note_on', channel=4, note=73, velocity=94, time=18),
    Message('note_off', channel=4, note=73, velocity=64, time=142),
    Message('note_on', channel=4, note=68, velocity=94, time=46),
    Message('note_off', channel=4, note=68, velocity=64, time=108),
    Message('note_on', channel=4, note=68, velocity=94, time=86),
    Message('note_off', channel=4, note=68, velocity=64, time=244),
    Message('note_on', channel=4, note=68, velocity=94, time=44),
    Message('note_off', channel=4, note=68, velocity=64, time=248),
    Message('note_on', channel=4, note=68, velocity=94, time=38),
    Message('note_off', channel=4, note=68, velocity=64, time=252),
    Message('note_on', channel=4, note=68, velocity=94, time=38),
    Message('note_off', channel=4, note=68, velocity=64, time=176),
    Message('note_on', channel=4, note=68, velocity=94, time=16),
    Message('note_off', channel=4, note=68, velocity=64, time=72),
    Message('note_on', channel=4, note=68, velocity=94, time=26),
    Message('note_off', channel=4, note=68, velocity=64, time=56),
    Message('note_on', channel=4, note=68, velocity=94, time=38),
    Message('note_off', channel=4, note=68, velocity=64, time=38),
    Message('note_on', channel=4, note=68, velocity=94, time=1592),
    Message('note_off', channel=4, note=68, velocity=64, time=132),
    Message('note_on', channel=4, note=68, velocity=94, time=62),
    Message('note_off', channel=4, note=68, velocity=64, time=156),
    Message('note_on', channel=4, note=68, velocity=94, time=38),
    Message('note_off', channel=4, note=68, velocity=64, time=30),
    Message('note_on', channel=4, note=68, velocity=94, time=64),
    Message('note_off', channel=4, note=68, velocity=64, time=238),
    Message('note_on', channel=4, note=68, velocity=94, time=48),
    Message('note_off', channel=4, note=68, velocity=64, time=152),
    Message('note_on', channel=4, note=68, velocity=94, time=42),
    Message('note_off', channel=4, note=68, velocity=64, time=32),
    Message('note_on', channel=4, note=68, velocity=94, time=62),
    Message('note_off', channel=4, note=68, velocity=64, time=172),
    Message('note_on', channel=4, note=68, velocity=94, time=20),
    Message('note_off', channel=4, note=68, velocity=64, time=64),
    Message('note_on', channel=4, note=68, velocity=94, time=36),
    Message('note_off', channel=4, note=68, velocity=64, time=50),
    Message('note_on', channel=4, note=68, velocity=94, time=44),
    Message('note_off', channel=4, note=68, velocity=64, time=32),
    Message('note_on', channel=4, note=68, velocity=94, time=1598),
    Message('note_off', channel=4, note=68, velocity=64, time=138),
    Message('note_on', channel=4, note=68, velocity=94, time=56),
    Message('note_off', channel=4, note=68, velocity=64, time=156),
    Message('note_on', channel=4, note=68, velocity=94, time=36),
    Message('note_off', channel=4, note=68, velocity=64, time=42),
    Message('note_on', channel=4, note=68, velocity=94, time=54),
    Message('note_off', channel=4, note=68, velocity=64, time=64),
    Message('note_on', channel=4, note=68, velocity=94, time=32),
    Message('note_off', channel=4, note=68, velocity=64, time=52),
    Message('note_on', channel=4, note=66, velocity=94, time=44),
    Message('note_off', channel=4, note=66, velocity=64, time=254),
    Message('note_on', channel=4, note=66, velocity=94, time=34),
    Message('note_off', channel=4, note=66, velocity=64, time=160),
    Message('note_on', channel=4, note=66, velocity=94, time=32),
    Message('note_off', channel=4, note=66, velocity=64, time=52),
    Message('note_on', channel=4, note=66, velocity=94, time=44),
    Message('note_off', channel=4, note=66, velocity=64, time=48),
    Message('note_on', channel=4, note=66, velocity=94, time=50),
    Message('note_off', channel=4, note=66, velocity=64, time=42),
    Message('note_on', channel=4, note=68, velocity=94, time=52),
    Message('note_off', channel=4, note=68, velocity=64, time=238),
    Message('note_on', channel=4, note=68, velocity=94, time=50),
    Message('note_off', channel=4, note=68, velocity=64, time=152),
    Message('note_on', channel=4, note=68, velocity=94, time=40),
    Message('note_off', channel=4, note=68, velocity=64, time=52),
    Message('note_on', channel=4, note=68, velocity=94, time=44),
    Message('note_off', channel=4, note=68, velocity=64, time=64),
    Message('note_on', channel=4, note=68, velocity=94, time=32),
    Message('note_off', channel=4, note=68, velocity=64, time=38),
    Message('note_on', channel=4, note=71, velocity=94, time=920),
    Message('note_off', channel=4, note=71, velocity=64, time=74),
    Message('note_on', channel=4, note=71, velocity=94, time=120),
    Message('note_off', channel=4, note=71, velocity=64, time=262),
    Message('note_on', channel=4, note=71, velocity=94, time=26),
    Message('note_off', channel=4, note=71, velocity=64, time=56),
    Message('note_on', channel=4, note=73, velocity=94, time=40),
    Message('note_off', channel=4, note=73, velocity=64, time=62),
    Message('note_on', channel=4, note=74, velocity=94, time=32),
    Message('note_off', channel=4, note=74, velocity=64, time=376),
    Message('note_on', channel=4, note=74, velocity=94, time=8),
    Message('note_off', channel=4, note=74, velocity=64, time=186),
    Message('note_on', channel=4, note=74, velocity=94, time=8),
    Message('note_off', channel=4, note=74, velocity=64, time=86),
    Message('note_on', channel=4, note=73, velocity=94, time=12),
    Message('note_off', channel=4, note=73, velocity=64, time=128),
    Message('note_on', channel=4, note=71, velocity=94, time=60),
    Message('note_off', channel=4, note=71, velocity=64, time=102),
    Message('note_on', channel=4, note=71, velocity=94, time=92),
    Message('note_off', channel=4, note=71, velocity=64, time=244),
    Message('note_on', channel=4, note=71, velocity=94, time=44),
    Message('note_off', channel=4, note=71, velocity=64, time=52),
    Message('note_on', channel=4, note=73, velocity=94, time=44),
    Message('note_off', channel=4, note=73, velocity=64, time=58),
    Message('note_on', channel=4, note=74, velocity=94, time=36),
    Message('note_off', channel=4, note=74, velocity=64, time=368),
    Message('note_on', channel=4, note=74, velocity=94, time=16),
    Message('note_off', channel=4, note=74, velocity=64, time=174),
    Message('note_on', channel=4, note=74, velocity=94, time=20),
    Message('note_off', channel=4, note=74, velocity=64, time=80),
    Message('note_on', channel=4, note=73, velocity=94, time=14),
    Message('note_off', channel=4, note=73, velocity=64, time=146),
    Message('note_on', channel=4, note=71, velocity=94, time=46),
    Message('note_off', channel=4, note=71, velocity=64, time=74),
    Message('note_on', channel=4, note=71, velocity=94, time=120),
    Message('note_off', channel=4, note=71, velocity=64, time=262),
    Message('note_on', channel=4, note=71, velocity=94, time=26),
    Message('note_off', channel=4, note=71, velocity=64, time=56),
    Message('note_on', channel=4, note=73, velocity=94, time=42),
    Message('note_off', channel=4, note=73, velocity=64, time=60),
    Message('note_on', channel=4, note=74, velocity=94, time=34),
    Message('note_off', channel=4, note=74, velocity=64, time=374),
    Message('note_on', channel=4, note=74, velocity=94, time=8),
    Message('note_off', channel=4, note=74, velocity=64, time=186),
    Message('note_on', channel=4, note=74, velocity=94, time=8),
    Message('note_off', channel=4, note=74, velocity=64, time=86),
    Message('note_on', channel=4, note=73, velocity=94, time=10),
    Message('note_off', channel=4, note=73, velocity=64, time=130),
    Message('note_on', channel=4, note=71, velocity=94, time=60),
    Message('note_off', channel=4, note=71, velocity=64, time=102),
    Message('note_on', channel=4, note=71, velocity=94, time=92),
    Message('note_off', channel=4, note=71, velocity=64, time=244),
    Message('note_on', channel=4, note=71, velocity=94, time=44),
    Message('note_off', channel=4, note=71, velocity=64, time=52),
    Message('note_on', channel=4, note=73, velocity=94, time=46),
    Message('note_off', channel=4, note=73, velocity=64, time=56),
    Message('note_on', channel=4, note=74, velocity=94, time=38),
    Message('note_off', channel=4, note=74, velocity=64, time=366),
    Message('note_on', channel=4, note=74, velocity=94, time=16),
    Message('note_off', channel=4, note=74, velocity=64, time=174),
    Message('note_on', channel=4, note=74, velocity=94, time=20),
    Message('note_off', channel=4, note=74, velocity=64, time=80),
    Message('note_on', channel=4, note=73, velocity=94, time=18),
    Message('note_off', channel=4, note=73, velocity=64, time=142),
    Message('note_on', channel=4, note=71, velocity=94, time=46),
    Message('note_off', channel=4, note=71, velocity=64, time=74),
    Message('note_on', channel=4, note=71, velocity=94, time=120),
    Message('note_off', channel=4, note=71, velocity=64, time=262),
    Message('note_on', channel=4, note=71, velocity=94, time=26),
    Message('note_off', channel=4, note=71, velocity=64, time=56),
    Message('note_on', channel=4, note=73, velocity=94, time=40),
    Message('note_off', channel=4, note=73, velocity=64, time=62),
    Message('note_on', channel=4, note=74, velocity=94, time=34),
    Message('note_off', channel=4, note=74, velocity=64, time=374),
    Message('note_on', channel=4, note=74, velocity=94, time=8),
    Message('note_off', channel=4, note=74, velocity=64, time=186),
    Message('note_on', channel=4, note=74, velocity=94, time=8),
    Message('note_off', channel=4, note=74, velocity=64, time=86),
    Message('note_on', channel=4, note=73, velocity=94, time=10),
    Message('note_off', channel=4, note=73, velocity=64, time=130),
    Message('note_on', channel=4, note=71, velocity=94, time=60),
    Message('note_off', channel=4, note=71, velocity=64, time=102),
    Message('note_on', channel=4, note=71, velocity=94, time=92),
    Message('note_off', channel=4, note=71, velocity=64, time=244),
    Message('note_on', channel=4, note=71, velocity=94, time=44),
    Message('note_off', channel=4, note=71, velocity=64, time=52),
    Message('note_on', channel=4, note=73, velocity=94, time=44),
    Message('note_off', channel=4, note=73, velocity=64, time=58),
    Message('note_on', channel=4, note=74, velocity=94, time=36),
    Message('note_off', channel=4, note=74, velocity=64, time=368),
    Message('note_on', channel=4, note=74, velocity=94, time=18),
    Message('note_off', channel=4, note=74, velocity=64, time=172),
    Message('note_on', channel=4, note=74, velocity=94, time=20),
    Message('note_off', channel=4, note=74, velocity=64, time=80),
    Message('note_on', channel=4, note=73, velocity=94, time=16),
    Message('note_off', channel=4, note=73, velocity=64, time=144),
    Message('note_on', channel=4, note=71, velocity=94, time=46),
    Message('note_off', channel=4, note=71, velocity=64, time=72),
    Message('note_on', channel=4, note=71, velocity=94, time=122),
    Message('note_off', channel=4, note=71, velocity=64, time=262),
    Message('note_on', channel=4, note=71, velocity=94, time=26),
    Message('note_off', channel=4, note=71, velocity=64, time=56),
    Message('note_on', channel=4, note=73, velocity=94, time=42),
    Message('note_off', channel=4, note=73, velocity=64, time=60),
    Message('note_on', channel=4, note=74, velocity=94, time=34),
    Message('note_off', channel=4, note=74, velocity=64, time=374),
    Message('note_on', channel=4, note=74, velocity=94, time=8),
    Message('note_off', channel=4, note=74, velocity=64, time=186),
    Message('note_on', channel=4, note=74, velocity=94, time=8),
    Message('note_off', channel=4, note=74, velocity=64, time=86),
    Message('note_on', channel=4, note=73, velocity=94, time=12),
    Message('note_off', channel=4, note=73, velocity=64, time=128),
    Message('note_on', channel=4, note=71, velocity=94, time=60),
    Message('note_off', channel=4, note=71, velocity=64, time=102),
    Message('note_on', channel=4, note=71, velocity=94, time=92),
    Message('note_off', channel=4, note=71, velocity=64, time=244),
    Message('note_on', channel=4, note=71, velocity=94, time=44),
    Message('note_off', channel=4, note=71, velocity=64, time=52),
    Message('note_on', channel=4, note=73, velocity=94, time=44),
    Message('note_off', channel=4, note=73, velocity=64, time=58),
    Message('note_on', channel=4, note=74, velocity=94, time=36),
    Message('note_off', channel=4, note=74, velocity=64, time=368),
    Message('note_on', channel=4, note=74, velocity=94, time=18),
    Message('note_off', channel=4, note=74, velocity=64, time=172),
    Message('note_on', channel=4, note=74, velocity=94, time=20),
    Message('note_off', channel=4, note=74, velocity=64, time=80),
    Message('note_on', channel=4, note=73, velocity=94, time=18),
    Message('note_off', channel=4, note=73, velocity=64, time=142),
    Message('note_on', channel=4, note=68, velocity=94, time=46),
    Message('note_off', channel=4, note=68, velocity=64, time=174),
    Message('note_on', channel=4, note=66, velocity=94, time=982),
    Message('note_off', channel=4, note=66, velocity=64, time=74),
    Message('note_on', channel=4, note=71, velocity=94, time=306),
    Message('note_off', channel=4, note=71, velocity=64, time=74),
    Message('note_on', channel=4, note=71, velocity=94, time=120),
    Message('note_off', channel=4, note=71, velocity=64, time=260),
    Message('note_on', channel=4, note=71, velocity=94, time=28),
    Message('note_off', channel=4, note=71, velocity=64, time=56),
    Message('note_on', channel=4, note=73, velocity=94, time=40),
    Message('note_off', channel=4, note=73, velocity=64, time=62),
    Message('note_on', channel=4, note=74, velocity=94, time=34),
    Message('note_off', channel=4, note=74, velocity=64, time=374),
    Message('note_on', channel=4, note=74, velocity=94, time=8),
    Message('note_off', channel=4, note=74, velocity=64, time=186),
    Message('note_on', channel=4, note=74, velocity=94, time=8),
    Message('note_off', channel=4, note=74, velocity=64, time=86),
    Message('note_on', channel=4, note=73, velocity=94, time=12),
    Message('note_off', channel=4, note=73, velocity=64, time=128),
    Message('note_on', channel=4, note=71, velocity=94, time=60),
    Message('note_off', channel=4, note=71, velocity=64, time=102),
    Message('note_on', channel=4, note=71, velocity=94, time=92),
    Message('note_off', channel=4, note=71, velocity=64, time=244),
    Message('note_on', channel=4, note=71, velocity=94, time=44),
    Message('note_off', channel=4, note=71, velocity=64, time=52),
    Message('note_on', channel=4, note=73, velocity=94, time=46),
    Message('note_off', channel=4, note=73, velocity=64, time=56),
    Message('note_on', channel=4, note=74, velocity=94, time=38),
    Message('note_off', channel=4, note=74, velocity=64, time=364),
    Message('note_on', channel=4, note=74, velocity=94, time=18),
    Message('note_off', channel=4, note=74, velocity=64, time=174),
    Message('note_on', channel=4, note=74, velocity=94, time=20),
    Message('note_off', channel=4, note=74, velocity=64, time=80),
    Message('note_on', channel=4, note=73, velocity=94, time=18),
    Message('note_off', channel=4, note=73, velocity=64, time=142),
    Message('control_change', channel=4, control=7, value=127, time=46),
    Message('note_on', channel=4, note=68, velocity=114, time=0),
    Message('note_off', channel=4, note=68, velocity=64, time=108),
    Message('note_on', channel=4, note=68, velocity=114, time=86),
    Message('note_off', channel=4, note=68, velocity=64, time=244),
    Message('note_on', channel=4, note=68, velocity=114, time=44),
    Message('note_off', channel=4, note=68, velocity=64, time=248),
    Message('note_on', channel=4, note=68, velocity=114, time=38),
    Message('note_off', channel=4, note=68, velocity=64, time=252),
    Message('note_on', channel=4, note=68, velocity=114, time=38),
    Message('note_off', channel=4, note=68, velocity=64, time=176),
    Message('note_on', channel=4, note=68, velocity=114, time=16),
    Message('note_off', channel=4, note=68, velocity=64, time=72),
    Message('note_on', channel=4, note=68, velocity=114, time=120),
    Message('note_off', channel=4, note=68, velocity=64, time=38),
    Message('note_on', channel=4, note=68, velocity=114, time=1592),
    Message('note_off', channel=4, note=68, velocity=64, time=132),
    Message('note_on', channel=4, note=68, velocity=114, time=62),
    Message('note_off', channel=4, note=68, velocity=64, time=156),
    Message('note_on', channel=4, note=68, velocity=114, time=38),
    Message('note_off', channel=4, note=68, velocity=64, time=30),
    Message('note_on', channel=4, note=68, velocity=114, time=350),
    Message('note_off', channel=4, note=68, velocity=64, time=152),
    Message('note_on', channel=4, note=68, velocity=114, time=328),
    Message('note_off', channel=4, note=68, velocity=64, time=64),
    Message('note_on', channel=4, note=68, velocity=114, time=36),
    Message('note_off', channel=4, note=68, velocity=64, time=50),
    Message('note_on', channel=4, note=68, velocity=114, time=1674),
    Message('note_off', channel=4, note=68, velocity=64, time=138),
    Message('note_on', channel=4, note=68, velocity=114, time=248),
    Message('note_off', channel=4, note=68, velocity=64, time=42),
    Message('note_on', channel=4, note=68, velocity=114, time=150),
    Message('note_off', channel=4, note=68, velocity=64, time=52),
    Message('note_on', channel=4, note=66, velocity=114, time=44),
    Message('note_off', channel=4, note=66, velocity=64, time=94),
    Message('note_on', channel=4, note=68, velocity=114, time=768),
    Message('note_off', channel=4, note=68, velocity=64, time=144),
    Message('note_on', channel=4, note=68, velocity=114, time=50),
    Message('note_off', channel=4, note=68, velocity=64, time=152),
    Message('note_on', channel=4, note=68, velocity=114, time=40),
    Message('note_off', channel=4, note=68, velocity=64, time=52),
    Message('note_on', channel=4, note=68, velocity=114, time=44),
    Message('note_off', channel=4, note=68, velocity=64, time=64),
    Message('note_on', channel=4, note=68, velocity=114, time=32),
    Message('note_off', channel=4, note=68, velocity=64, time=38),
    Message('note_on', channel=4, note=71, velocity=114, time=920),
    Message('note_off', channel=4, note=71, velocity=64, time=74),
    Message('note_on', channel=4, note=71, velocity=114, time=120),
    Message('note_off', channel=4, note=71, velocity=64, time=262),
    Message('note_on', channel=4, note=71, velocity=114, time=26),
    Message('note_off', channel=4, note=71, velocity=64, time=56),
    Message('note_on', channel=4, note=73, velocity=114, time=40),
    Message('note_off', channel=4, note=73, velocity=64, time=62),
    Message('note_on', channel=4, note=74, velocity=114, time=32),
    Message('note_off', channel=4, note=74, velocity=64, time=376),
    Message('note_on', channel=4, note=74, velocity=114, time=8),
    Message('note_off', channel=4, note=74, velocity=64, time=186),
    Message('note_on', channel=4, note=74, velocity=114, time=8),
    Message('note_off', channel=4, note=74, velocity=64, time=86),
    Message('note_on', channel=4, note=73, velocity=114, time=12),
    Message('note_off', channel=4, note=73, velocity=64, time=128),
    Message('note_on', channel=4, note=71, velocity=114, time=60),
    Message('note_off', channel=4, note=71, velocity=64, time=102),
    Message('note_on', channel=4, note=71, velocity=114, time=92),
    Message('note_off', channel=4, note=71, velocity=64, time=244),
    Message('note_on', channel=4, note=71, velocity=114, time=44),
    Message('note_off', channel=4, note=71, velocity=64, time=52),
    Message('note_on', channel=4, note=73, velocity=114, time=44),
    Message('note_off', channel=4, note=73, velocity=64, time=58),
    Message('note_on', channel=4, note=74, velocity=114, time=36),
    Message('note_off', channel=4, note=74, velocity=64, time=368),
    Message('note_on', channel=4, note=74, velocity=114, time=16),
    Message('note_off', channel=4, note=74, velocity=64, time=174),
    Message('note_on', channel=4, note=74, velocity=114, time=20),
    Message('note_off', channel=4, note=74, velocity=64, time=80),
    Message('note_on', channel=4, note=73, velocity=114, time=14),
    Message('note_off', channel=4, note=73, velocity=64, time=146),
    Message('note_on', channel=4, note=71, velocity=114, time=46),
    Message('note_off', channel=4, note=71, velocity=64, time=74),
    Message('note_on', channel=4, note=71, velocity=114, time=120),
    Message('note_off', channel=4, note=71, velocity=64, time=262),
    Message('note_on', channel=4, note=71, velocity=114, time=26),
    Message('note_off', channel=4, note=71, velocity=64, time=56),
    Message('note_on', channel=4, note=73, velocity=114, time=42),
    Message('note_off', channel=4, note=73, velocity=64, time=60),
    Message('note_on', channel=4, note=74, velocity=114, time=34),
    Message('note_off', channel=4, note=74, velocity=64, time=374),
    Message('note_on', channel=4, note=74, velocity=114, time=8),
    Message('note_off', channel=4, note=74, velocity=64, time=186),
    Message('note_on', channel=4, note=74, velocity=114, time=8),
    Message('note_off', channel=4, note=74, velocity=64, time=86),
    Message('note_on', channel=4, note=73, velocity=114, time=10),
    Message('note_off', channel=4, note=73, velocity=64, time=130),
    Message('note_on', channel=4, note=71, velocity=109, time=60),
    Message('note_off', channel=4, note=71, velocity=64, time=102),
    Message('note_on', channel=4, note=71, velocity=109, time=92),
    Message('note_off', channel=4, note=71, velocity=64, time=244),
    Message('note_on', channel=4, note=71, velocity=109, time=44),
    Message('note_off', channel=4, note=71, velocity=64, time=52),
    Message('note_on', channel=4, note=73, velocity=109, time=46),
    Message('note_off', channel=4, note=73, velocity=64, time=56),
    Message('note_on', channel=4, note=74, velocity=109, time=38),
    Message('note_off', channel=4, note=74, velocity=64, time=366),
    Message('note_on', channel=4, note=74, velocity=114, time=16),
    Message('note_off', channel=4, note=74, velocity=64, time=174),
    Message('note_on', channel=4, note=74, velocity=114, time=20),
    Message('note_off', channel=4, note=74, velocity=64, time=80),
    Message('note_on', channel=4, note=73, velocity=114, time=18),
    Message('note_off', channel=4, note=73, velocity=64, time=142),
    Message('control_change', channel=4, control=7, value=126, time=46),
    Message('note_on', channel=4, note=71, velocity=114, time=0),
    Message('control_change', channel=4, control=7, value=125, time=48),
    Message('note_off', channel=4, note=71, velocity=64, time=26),
    Message('control_change', channel=4, control=7, value=124, time=22),
    Message('control_change', channel=4, control=7, value=123, time=24),
    Message('control_change', channel=4, control=7, value=122, time=48),
    Message('note_on', channel=4, note=71, velocity=114, time=26),
    Message('control_change', channel=4, control=7, value=121, time=22),
    Message('control_change', channel=4, control=7, value=120, time=24),
    Message('control_change', channel=4, control=7, value=119, time=48),
    Message('control_change', channel=4, control=7, value=118, time=24),
    Message('control_change', channel=4, control=7, value=117, time=48),
    Message('control_change', channel=4, control=7, value=116, time=48),
    Message('control_change', channel=4, control=7, value=115, time=24),
    Message('note_off', channel=4, note=71, velocity=64, time=24),
    Message('control_change', channel=4, control=7, value=114, time=24),
    Message('note_on', channel=4, note=71, velocity=114, time=2),
    Message('control_change', channel=4, control=7, value=113, time=46),
    Message('note_off', channel=4, note=71, velocity=64, time=10),
    Message('control_change', channel=4, control=7, value=112, time=14),
    Message('note_on', channel=4, note=73, velocity=114, time=26),
    Message('control_change', channel=4, control=7, value=111, time=22),
    Message('control_change', channel=4, control=7, value=110, time=24),
    Message('note_off', channel=4, note=73, velocity=64, time=16),
    Message('control_change', channel=4, control=7, value=109, time=32),
    Message('note_on', channel=4, note=74, velocity=114, time=2),
    Message('control_change', channel=4, control=7, value=108, time=46),
    Message('control_change', channel=4, control=7, value=107, time=24),
    Message('control_change', channel=4, control=7, value=106, time=48),
    Message('control_change', channel=4, control=7, value=105, time=24),
    Message('control_change', channel=4, control=7, value=104, time=48),
    Message('control_change', channel=4, control=7, value=103, time=48),
    Message('control_change', channel=4, control=7, value=102, time=24),
    Message('control_change', channel=4, control=7, value=101, time=48),
    Message('control_change', channel=4, control=7, value=100, time=48),
    Message('note_off', channel=4, note=74, velocity=64, time=16),
    Message('control_change', channel=4, control=7, value=99, time=8),
    Message('note_on', channel=4, note=74, velocity=114, time=0),
    Message('control_change', channel=4, control=7, value=98, time=48),
    Message('control_change', channel=4, control=7, value=97, time=24),
    Message('control_change', channel=4, control=7, value=96, time=48),
    Message('control_change', channel=4, control=7, value=95, time=48),
    Message('note_off', channel=4, note=74, velocity=64, time=18),
    Message('control_change', channel=4, control=7, value=94, time=6),
    Message('note_on', channel=4, note=74, velocity=114, time=2),
    Message('control_change', channel=4, control=7, value=93, time=46),
    Message('control_change', channel=4, control=7, value=92, time=24),
    Message('note_off', channel=4, note=74, velocity=64, time=16),
    Message('note_on', channel=4, note=73, velocity=114, time=10),
    Message('control_change', channel=4, control=7, value=91, time=22),
    Message('control_change', channel=4, control=7, value=90, time=48),
    Message('control_change', channel=4, control=7, value=89, time=24),
    Message('note_off', channel=4, note=73, velocity=64, time=36),
    Message('control_change', channel=4, control=7, value=88, time=12),
    Message('control_change', channel=4, control=7, value=87, time=48),
    Message('note_on', channel=4, note=71, velocity=114, time=0),
    Message('control_change', channel=4, control=7, value=86, time=24),
    Message('control_change', channel=4, control=7, value=85, time=48),
    Message('control_change', channel=4, control=7, value=84, time=24),
    Message('note_off', channel=4, note=71, velocity=64, time=6),
    Message('control_change', channel=4, control=7, value=83, time=42),
    Message('control_change', channel=4, control=7, value=82, time=48),
    Message('note_on', channel=4, note=71, velocity=114, time=2),
    Message('control_change', channel=4, control=7, value=81, time=22),
    Message('control_change', channel=4, control=7, value=80, time=48),
    Message('control_change', channel=4, control=7, value=79, time=24),
    Message('control_change', channel=4, control=7, value=78, time=48),
    Message('control_change', channel=4, control=7, value=77, time=48),
    Message('control_change', channel=4, control=7, value=76, time=24),
    Message('note_off', channel=4, note=71, velocity=64, time=30),
    Message('control_change', channel=4, control=7, value=75, time=18),
    Message('note_on', channel=4, note=71, velocity=114, time=26),
    Message('control_change', channel=4, control=7, value=74, time=22),
    Message('control_change', channel=4, control=7, value=73, time=24),
    Message('note_off', channel=4, note=71, velocity=64, time=6),
    Message('control_change', channel=4, control=7, value=72, time=42),
    Message('note_on', channel=4, note=73, velocity=114, time=2),
    Message('control_change', channel=4, control=7, value=71, time=22),
    Message('note_off', channel=4, note=73, velocity=64, time=36),
    Message('control_change', channel=4, control=7, value=70, time=12),
    Message('note_on', channel=4, note=74, velocity=114, time=24),
    Message('control_change', channel=4, control=7, value=69, time=24),
    Message('control_change', channel=4, control=7, value=68, time=24),
    Message('control_change', channel=4, control=7, value=67, time=48),
    Message('control_change', channel=4, control=7, value=66, time=24),
    Message('control_change', channel=4, control=7, value=65, time=48),
    Message('control_change', channel=4, control=7, value=64, time=48),
    Message('control_change', channel=4, control=7, value=63, time=24),
    Message('control_change', channel=4, control=7, value=62, time=48),
    Message('control_change', channel=4, control=7, value=61, time=48),
    Message('control_change', channel=4, control=7, value=60, time=24),
    Message('note_off', channel=4, note=74, velocity=64, time=8),
    Message('note_on', channel=4, note=74, velocity=114, time=18),
    Message('control_change', channel=4, control=7, value=59, time=22),
    Message('control_change', channel=4, control=7, value=58, time=24),
    Message('control_change', channel=4, control=7, value=57, time=48),
    Message('control_change', channel=4, control=7, value=56, time=48),
    Message('control_change', channel=4, control=7, value=55, time=24),
    Message('note_off', channel=4, note=74, velocity=64, time=6),
    Message('note_on', channel=4, note=74, velocity=114, time=20),
    Message('control_change', channel=4, control=7, value=54, time=22),
    Message('control_change', channel=4, control=7, value=53, time=24),
    Message('note_off', channel=4, note=74, velocity=64, time=34),
    Message('control_change', channel=4, control=7, value=52, time=14),
    Message('note_on', channel=4, note=73, velocity=114, time=2),
    Message('control_change', channel=4, control=7, value=51, time=46),
    Message('control_change', channel=4, control=7, value=50, time=24),
    Message('control_change', channel=4, control=7, value=49, time=48),
    Message('note_off', channel=4, note=73, velocity=64, time=26),
    Message('control_change', channel=4, control=7, value=48, time=22),
    Message('control_change', channel=4, control=7, value=47, time=24),
    Message('note_on', channel=4, note=71, velocity=114, time=0),
    Message('control_change', channel=4, control=7, value=46, time=48),
    Message('note_off', channel=4, note=71, velocity=64, time=24),
    Message('control_change', channel=4, control=7, value=45, time=0),
    Message('control_change', channel=4, control=7, value=44, time=48),
    Message('control_change', channel=4, control=7, value=43, time=48),
    Message('control_change', channel=4, control=7, value=42, time=24),
    Message('note_on', channel=4, note=71, velocity=114, time=2),
    Message('control_change', channel=4, control=7, value=41, time=46),
    Message('control_change', channel=4, control=7, value=40, time=24),
    Message('control_change', channel=4, control=7, value=39, time=48),
    Message('control_change', channel=4, control=7, value=38, time=48),
    Message('control_change', channel=4, control=7, value=37, time=24),
    Message('control_change', channel=4, control=7, value=36, time=48),
    Message('note_off', channel=4, note=71, velocity=64, time=24),
    Message('control_change', channel=4, control=7, value=35, time=24),
    Message('note_on', channel=4, note=71, velocity=114, time=2),
    Message('control_change', channel=4, control=7, value=34, time=22),
    Message('note_off', channel=4, note=71, velocity=64, time=34),
    Message('control_change', channel=4, control=7, value=33, time=14),
    Message('control_change', channel=4, control=7, value=32, time=24),
    Message('note_on', channel=4, note=73, velocity=114, time=4),
    Message('control_change', channel=4, control=7, value=31, time=44),
    Message('note_off', channel=4, note=73, velocity=64, time=16),
    Message('control_change', channel=4, control=7, value=30, time=32),
    Message('note_on', channel=4, note=74, velocity=114, time=2),
    Message('control_change', channel=4, control=7, value=29, time=22),
    Message('control_change', channel=4, control=7, value=28, time=48),
    Message('control_change', channel=4, control=7, value=19, time=24),
    Message('control_change', channel=4, control=7, value=18, time=96),
    Message('control_change', channel=4, control=7, value=17, time=72),
    Message('control_change', channel=4, control=7, value=16, time=72),
    Message('note_off', channel=4, note=74, velocity=64, time=40),
    Message('note_on', channel=4, note=74, velocity=114, time=8),
    Message('control_change', channel=4, control=7, value=15, time=24),
    Message('control_change', channel=4, control=7, value=14, time=72),
    Message('note_off', channel=4, note=74, velocity=64, time=90),
    Message('control_change', channel=4, control=7, value=13, time=6),
    Message('note_on', channel=4, note=74, velocity=114, time=2),
    Message('control_change', channel=4, control=7, value=12, time=70),
    Message('note_off', channel=4, note=74, velocity=64, time=16),
    Message('note_on', channel=4, note=73, velocity=114, time=12),
    Message('control_change', channel=4, control=7, value=11, time=44),
    Message('control_change', channel=4, control=7, value=10, time=72),
    Message('note_off', channel=4, note=73, velocity=64, time=12),
    Message('control_change', channel=4, control=7, value=9, time=60),
    Message('note_on', channel=4, note=71, velocity=114, time=0),
    Message('control_change', channel=4, control=7, value=8, time=96),
    Message('note_off', channel=4, note=71, velocity=64, time=6),
    Message('control_change', channel=4, control=7, value=7, time=66),
    Message('note_on', channel=4, note=71, velocity=114, time=26),
    Message('control_change', channel=4, control=7, value=6, time=46),
    Message('control_change', channel=4, control=7, value=5, time=72),
    Message('control_change', channel=4, control=7, value=4, time=72),
    Message('note_off', channel=4, note=71, velocity=64, time=54),
    Message('control_change', channel=4, control=7, value=3, time=42),
    Message('note_on', channel=4, note=71, velocity=114, time=2),
    Message('note_off', channel=4, note=71, velocity=64, time=52),
    Message('control_change', channel=4, control=7, value=2, time=18),
    Message('note_on', channel=4, note=73, velocity=114, time=26),
    Message('control_change', channel=4, control=7, value=1, time=46),
    Message('note_off', channel=4, note=73, velocity=64, time=12),
    Message('note_on', channel=4, note=74, velocity=114, time=36),
    Message('control_change', channel=4, control=7, value=0, time=24),
    Message('note_off', channel=4, note=74, velocity=64, time=72),
    Message('pitchwheel', channel=4, pitch=0, time=768),
    Message('polytouch', channel=4, note=64, value=0, time=0),
    Message('aftertouch', channel=4, value=0, time=0),
    Message('control_change', channel=4, control=1, value=0, time=0),
    Message('control_change', channel=4, control=2, value=0, time=0),
    Message('control_change', channel=4, control=4, value=0, time=0),
    Message('control_change', channel=4, control=7, value=100, time=0),
    Message('control_change', channel=4, control=8, value=0, time=0),
    Message('control_change', channel=4, control=10, value=63, time=0),
    Message('control_change', channel=4, control=64, value=0, time=0),
    Message('control_change', channel=4, control=65, value=0, time=0),
    Message('control_change', channel=4, control=66, value=0, time=0),
    Message('control_change', channel=4, control=67, value=0, time=0),
    Message('control_change', channel=4, control=68, value=0, time=0),
    MetaMessage('end_of_track', time=0)]),
  MidiTrack([
    MetaMessage('midi_port', port=0, time=0),
    MetaMessage('track_name', name='Rhythm              ', time=0),
    Message('program_change', channel=3, program=66, time=0),
    Message('control_change', channel=3, control=7, value=105, time=0),
    Message('control_change', channel=3, control=10, value=94, time=0),
    Message('control_change', channel=3, control=7, value=106, time=264),
    Message('control_change', channel=3, control=7, value=107, time=264),
    Message('control_change', channel=3, control=7, value=108, time=239),
    Message('note_on', channel=3, note=71, velocity=82, time=1),
    Message('note_off', channel=3, note=71, velocity=64, time=153),
    Message('note_on', channel=3, note=71, velocity=82, time=39),
    Message('note_off', channel=3, note=71, velocity=64, time=153),
    Message('note_on', channel=3, note=71, velocity=82, time=39),
    Message('note_off', channel=3, note=71, velocity=64, time=76),
    Message('note_on', channel=3, note=71, velocity=82, time=20),
    Message('note_off', channel=3, note=71, velocity=64, time=76),
    Message('note_on', channel=3, note=73, velocity=82, time=20),
    Message('note_off', channel=3, note=73, velocity=64, time=76),
    Message('note_on', channel=3, note=76, velocity=82, time=20),
    Message('note_off', channel=3, note=76, velocity=64, time=326),
    Message('note_on', channel=3, note=74, velocity=82, time=58),
    Message('note_off', channel=3, note=74, velocity=64, time=76),
    Message('note_on', channel=3, note=74, velocity=82, time=20),
    Message('note_off', channel=3, note=74, velocity=64, time=76),
    Message('note_on', channel=3, note=73, velocity=82, time=20),
    Message('note_off', channel=3, note=73, velocity=64, time=76),
    Message('note_on', channel=3, note=73, velocity=82, time=20),
    Message('note_off', channel=3, note=73, velocity=64, time=76),
    Message('note_on', channel=3, note=71, velocity=82, time=20),
    Message('note_off', channel=3, note=71, velocity=64, time=76),
    Message('note_on', channel=3, note=71, velocity=82, time=20),
    Message('note_off', channel=3, note=71, velocity=64, time=153),
    Message('note_on', channel=3, note=71, velocity=82, time=39),
    Message('note_off', channel=3, note=71, velocity=64, time=288),
    Message('note_on', channel=3, note=71, velocity=82, time=0),
    Message('note_on', channel=3, note=73, velocity=82, time=96),
    Message('note_off', channel=3, note=73, velocity=64, time=76),
    Message('note_on', channel=3, note=74, velocity=82, time=20),
    Message('note_off', channel=3, note=71, velocity=64, time=96),
    Message('note_off', channel=3, note=74, velocity=64, time=288),
    Message('note_on', channel=3, note=74, velocity=82, time=0),
    Message('note_off', channel=3, note=74, velocity=64, time=96),
    Message('note_on', channel=3, note=74, velocity=82, time=0),
    Message('note_on', channel=3, note=73, velocity=82, time=96),
    Message('note_off', channel=3, note=73, velocity=64, time=76),
    Message('note_on', channel=3, note=73, velocity=82, time=20),
    Message('note_off', channel=3, note=73, velocity=64, time=76),
    Message('note_on', channel=3, note=71, velocity=82, time=20),
    Message('note_off', channel=3, note=74, velocity=64, time=96),
    Message('note_on', channel=3, note=68, velocity=82, time=0),
    Message('note_off', channel=3, note=71, velocity=64, time=1),
    Message('note_off', channel=3, note=68, velocity=64, time=191),
    Message('note_on', channel=3, note=71, velocity=82, time=0),
    Message('note_off', channel=3, note=71, velocity=64, time=288),
    Message('note_on', channel=3, note=71, velocity=82, time=0),
    Message('note_on', channel=3, note=73, velocity=82, time=96),
    Message('note_off', channel=3, note=73, velocity=64, time=76),
    Message('note_on', channel=3, note=74, velocity=82, time=20),
    Message('note_off', channel=3, note=74, velocity=64, time=96),
    Message('note_off', channel=3, note=71, velocity=64, time=288),
    Message('note_on', channel=3, note=74, velocity=82, time=0),
    Message('note_off', channel=3, note=74, velocity=64, time=96),
    Message('note_on', channel=3, note=74, velocity=82, time=0),
    Message('note_on', channel=3, note=73, velocity=82, time=96),
    Message('note_off', channel=3, note=73, velocity=64, time=76),
    Message('note_on', channel=3, note=73, velocity=82, time=20),
    Message('note_off', channel=3, note=73, velocity=64, time=76),
    Message('note_on', channel=3, note=71, velocity=82, time=20),
    Message('note_off', channel=3, note=74, velocity=65, time=76),
    Message('note_off', channel=3, note=71, velocity=65, time=0),
    Message('note_on', channel=3, note=71, velocity=82, time=20),
    Message('note_off', channel=3, note=71, velocity=64, time=153),
    Message('note_on', channel=3, note=71, velocity=82, time=39),
    Message('note_off', channel=3, note=71, velocity=64, time=288),
    Message('note_on', channel=3, note=71, velocity=82, time=0),
    Message('note_on', channel=3, note=73, velocity=82, time=96),
    Message('note_off', channel=3, note=73, velocity=64, time=76),
    Message('note_on', channel=3, note=74, velocity=82, time=20),
    Message('note_off', channel=3, note=74, velocity=64, time=96),
    Message('note_off', channel=3, note=71, velocity=64, time=288),
    Message('note_on', channel=3, note=74, velocity=82, time=0),
    Message('note_off', channel=3, note=74, velocity=64, time=96),
    Message('note_on', channel=3, note=74, velocity=82, time=0),
    Message('note_on', channel=3, note=73, velocity=82, time=96),
    Message('note_off', channel=3, note=73, velocity=64, time=76),
    Message('note_on', channel=3, note=73, velocity=82, time=20),
    Message('note_off', channel=3, note=73, velocity=64, time=76),
    Message('note_on', channel=3, note=71, velocity=82, time=20),
    Message('note_off', channel=3, note=74, velocity=64, time=96),
    Message('note_off', channel=3, note=71, velocity=64, time=0),
    Message('control_change', channel=3, control=7, value=85, time=0),
    Message('note_on', channel=3, note=71, velocity=82, time=192),
    Message('note_on', channel=3, note=76, velocity=82, time=0),
    Message('control_change', channel=3, control=7, value=86, time=72),
    Message('control_change', channel=3, control=7, value=87, time=264),
    Message('control_change', channel=3, control=7, value=88, time=239),
    Message('note_off', channel=3, note=76, velocity=64, time=308),
    Message('note_off', channel=3, note=71, velocity=64, time=173),
    Message('note_on', channel=3, note=71, velocity=74, time=0),
    Message('note_on', channel=3, note=73, velocity=74, time=96),
    Message('note_off', channel=3, note=73, velocity=64, time=76),
    Message('note_off', channel=3, note=71, velocity=64, time=20),
    Message('note_on', channel=3, note=71, velocity=74, time=0),
    Message('note_off', channel=3, note=71, velocity=64, time=96),
    Message('note_on', channel=3, note=73, velocity=74, time=0),
    Message('note_on', channel=3, note=76, velocity=74, time=0),
    Message('note_off', channel=3, note=73, velocity=64, time=153),
    Message('note_off', channel=3, note=76, velocity=64, time=0),
    Message('note_on', channel=3, note=73, velocity=74, time=231),
    Message('note_on', channel=3, note=76, velocity=74, time=0),
    Message('note_off', channel=3, note=73, velocity=64, time=76),
    Message('note_off', channel=3, note=76, velocity=64, time=0),
    Message('note_on', channel=3, note=76, velocity=74, time=20),
    Message('note_on', channel=3, note=73, velocity=74, time=0),
    Message('note_off', channel=3, note=76, velocity=64, time=76),
    Message('note_off', channel=3, note=73, velocity=64, time=0),
    Message('note_on', channel=3, note=76, velocity=74, time=20),
    Message('note_on', channel=3, note=73, velocity=74, time=0),
    Message('note_off', channel=3, note=76, velocity=64, time=180),
    Message('note_off', channel=3, note=73, velocity=64, time=0),
    Message('note_on', channel=3, note=73, velocity=74, time=12),
    Message('note_on', channel=3, note=76, velocity=74, time=0),
    Message('note_off', channel=3, note=73, velocity=64, time=460),
    Message('note_off', channel=3, note=76, velocity=64, time=0),
    Message('note_on', channel=3, note=76, velocity=74, time=116),
    Message('note_off', channel=3, note=76, velocity=64, time=76),
    Message('note_on', channel=3, note=73, velocity=74, time=20),
    Message('note_off', channel=3, note=73, velocity=64, time=76),
    Message('note_on', channel=3, note=68, velocity=74, time=20),
    Message('note_on', channel=3, note=76, velocity=74, time=0),
    Message('note_off', channel=3, note=68, velocity=64, time=153),
    Message('note_off', channel=3, note=76, velocity=64, time=0),
    Message('note_on', channel=3, note=68, velocity=74, time=39),
    Message('note_on', channel=3, note=71, velocity=74, time=0),
    Message('note_off', channel=3, note=68, velocity=64, time=76),
    Message('note_off', channel=3, note=71, velocity=64, time=20),
    Message('note_on', channel=3, note=68, velocity=74, time=0),
    Message('note_on', channel=3, note=71, velocity=74, time=0),
    Message('note_off', channel=3, note=68, velocity=64, time=76),
    Message('note_on', channel=3, note=69, velocity=74, time=20),
    Message('note_off', channel=3, note=69, velocity=64, time=76),
    Message('note_off', channel=3, note=71, velocity=64, time=20),
    Message('note_on', channel=3, note=71, velocity=74, time=0),
    Message('note_off', channel=3, note=71, velocity=64, time=96),
    Message('note_on', channel=3, note=69, velocity=74, time=0),
    Message('note_off', channel=3, note=69, velocity=64, time=76),
    Message('note_on', channel=3, note=68, velocity=74, time=20),
    Message('note_off', channel=3, note=68, velocity=64, time=76),
    Message('note_on', channel=3, note=68, velocity=74, time=20),
    Message('note_off', channel=3, note=68, velocity=64, time=153),
    Message('note_on', channel=3, note=71, velocity=74, time=39),
    Message('note_on', channel=3, note=69, velocity=74, time=96),
    Message('note_off', channel=3, note=69, velocity=64, time=76),
    Message('note_off', channel=3, note=71, velocity=64, time=20),
    Message('note_on', channel=3, note=71, velocity=74, time=0),
    Message('note_off', channel=3, note=71, velocity=64, time=96),
    Message('note_on', channel=3, note=71, velocity=74, time=0),
    Message('note_on', channel=3, note=73, velocity=74, time=96),
    Message('note_off', channel=3, note=73, velocity=64, time=76),
    Message('note_off', channel=3, note=71, velocity=64, time=20),
    Message('note_on', channel=3, note=71, velocity=74, time=0),
    Message('note_off', channel=3, note=71, velocity=64, time=96),
    Message('note_on', channel=3, note=69, velocity=74, time=0),
    Message('note_off', channel=3, note=69, velocity=64, time=153),
    Message('note_on', channel=3, note=73, velocity=74, time=39),
    Message('note_on', channel=3, note=76, velocity=74, time=0),
    Message('note_off', channel=3, note=73, velocity=64, time=282),
    Message('note_off', channel=3, note=76, velocity=64, time=0),
    Message('note_on', channel=3, note=76, velocity=74, time=6),
    Message('note_on', channel=3, note=73, velocity=74, time=0),
    Message('note_off', channel=3, note=76, velocity=64, time=90),
    Message('note_off', channel=3, note=73, velocity=64, time=0),
    Message('note_on', channel=3, note=76, velocity=74, time=6),
    Message('note_on', channel=3, note=69, velocity=74, time=0),
    Message('note_off', channel=3, note=76, velocity=64, time=153),
    Message('note_off', channel=3, note=69, velocity=64, time=0),
    Message('note_on', channel=3, note=69, velocity=74, time=231),
    Message('note_on', channel=3, note=73, velocity=74, time=0),
    Message('note_off', channel=3, note=69, velocity=64, time=76),
    Message('note_off', channel=3, note=73, velocity=64, time=0),
    Message('note_on', channel=3, note=71, velocity=74, time=20),
    Message('note_on', channel=3, note=69, velocity=74, time=288),
    Message('note_on', channel=3, note=73, velocity=74, time=0),
    Message('note_off', channel=3, note=69, velocity=64, time=153),
    Message('note_off', channel=3, note=73, velocity=64, time=0),
    Message('note_off', channel=3, note=71, velocity=64, time=231),
    Message('note_on', channel=3, note=68, velocity=74, time=0),
    Message('note_on', channel=3, note=71, velocity=74, time=0),
    Message('note_off', channel=3, note=68, velocity=64, time=153),
    Message('note_off', channel=3, note=71, velocity=64, time=39),
    Message('note_on', channel=3, note=68, velocity=74, time=0),
    Message('note_on', channel=3, note=71, velocity=74, time=0),
    Message('note_off', channel=3, note=68, velocity=64, time=76),
    Message('note_off', channel=3, note=71, velocity=64, time=20),
    Message('note_on', channel=3, note=68, velocity=74, time=0),
    Message('note_on', channel=3, note=71, velocity=74, time=0),
    Message('note_off', channel=3, note=68, velocity=64, time=76),
    Message('note_off', channel=3, note=71, velocity=64, time=20),
    Message('note_on', channel=3, note=68, velocity=74, time=0),
    Message('note_on', channel=3, note=71, velocity=74, time=0),
    Message('note_off', channel=3, note=68, velocity=64, time=153),
    Message('note_off', channel=3, note=71, velocity=64, time=135),
    Message('note_on', channel=3, note=71, velocity=74, time=0),
    Message('note_on', channel=3, note=73, velocity=74, time=96),
    Message('note_off', channel=3, note=73, velocity=64, time=76),
    Message('note_on', channel=3, note=76, velocity=74, time=20),
    Message('note_off', channel=3, note=76, velocity=64, time=76),
    Message('note_on', channel=3, note=78, velocity=74, time=20),
    Message('note_off', channel=3, note=78, velocity=64, time=38),
    Message('note_on', channel=3, note=76, velocity=74, time=10),
    Message('note_off', channel=3, note=76, velocity=64, time=38),
    Message('note_on', channel=3, note=73, velocity=74, time=10),
    Message('note_off', channel=3, note=73, velocity=64, time=76),
    Message('note_on', channel=3, note=76, velocity=74, time=20),
    Message('note_off', channel=3, note=76, velocity=64, time=76),
    Message('note_on', channel=3, note=78, velocity=74, time=20),
    Message('note_off', channel=3, note=78, velocity=64, time=38),
    Message('note_on', channel=3, note=73, velocity=74, time=10),
    Message('note_off', channel=3, note=73, velocity=64, time=38),
    Message('note_on', channel=3, note=68, velocity=74, time=10),
    Message('note_on', channel=3, note=76, velocity=74, time=0),
    Message('note_off', channel=3, note=71, velocity=64, time=1),
    Message('note_off', channel=3, note=68, velocity=64, time=152),
    Message('note_off', channel=3, note=76, velocity=64, time=0),
    Message('note_on', channel=3, note=68, velocity=74, time=39),
    Message('note_on', channel=3, note=71, velocity=74, time=0),
    Message('note_off', channel=3, note=68, velocity=64, time=76),
    Message('note_on', channel=3, note=69, velocity=74, time=20),
    Message('note_off', channel=3, note=69, velocity=64, time=76),
    Message('note_on', channel=3, note=69, velocity=74, time=20),
    Message('note_off', channel=3, note=69, velocity=64, time=76),
    Message('note_off', channel=3, note=71, velocity=64, time=20),
    Message('note_on', channel=3, note=68, velocity=74, time=0),
    Message('note_on', channel=3, note=71, velocity=74, time=0),
    Message('note_off', channel=3, note=68, velocity=64, time=230),
    Message('note_off', channel=3, note=71, velocity=64, time=58),
    Message('note_on', channel=3, note=69, velocity=74, time=0),
    Message('note_on', channel=3, note=73, velocity=74, time=0),
    Message('note_off', channel=3, note=69, velocity=64, time=153),
    Message('note_off', channel=3, note=73, velocity=64, time=0),
    Message('note_on', channel=3, note=69, velocity=74, time=39),
    Message('note_on', channel=3, note=73, velocity=74, time=0),
    Message('note_off', channel=3, note=69, velocity=64, time=76),
    Message('note_off', channel=3, note=73, velocity=64, time=0),
    Message('note_on', channel=3, note=69, velocity=74, time=20),
    Message('note_on', channel=3, note=73, velocity=74, time=0),
    Message('note_off', channel=3, note=69, velocity=64, time=76),
    Message('note_off', channel=3, note=73, velocity=64, time=0),
    Message('note_on', channel=3, note=74, velocity=74, time=20),
    Message('note_off', channel=3, note=74, velocity=64, time=96),
    Message('note_on', channel=3, note=69, velocity=74, time=0),
    Message('note_on', channel=3, note=73, velocity=74, time=0),
    Message('note_off', channel=3, note=69, velocity=64, time=240),
    Message('note_off', channel=3, note=73, velocity=64, time=0),
    Message('note_on', channel=3, note=68, velocity=74, time=48),
    Message('note_off', channel=3, note=68, velocity=64, time=153),
    Message('note_on', channel=3, note=68, velocity=74, time=39),
    Message('note_on', channel=3, note=71, velocity=74, time=0),
    Message('note_off', channel=3, note=68, velocity=64, time=153),
    Message('note_off', channel=3, note=71, velocity=64, time=135),
    Message('note_on', channel=3, note=71, velocity=74, time=0),
    Message('note_on', channel=3, note=73, velocity=74, time=96),
    Message('note_off', channel=3, note=73, velocity=64, time=76),
    Message('note_on', channel=3, note=66, velocity=74, time=20),
    Message('note_on', channel=3, note=69, velocity=74, time=0),
    Message('note_on', channel=3, note=74, velocity=74, time=0),
    Message('note_off', channel=3, note=71, velocity=64, time=96),
    Message('note_off', channel=3, note=66, velocity=64, time=0),
    Message('note_off', channel=3, note=69, velocity=64, time=0),
    Message('note_off', channel=3, note=74, velocity=64, time=0),
    Message('note_on', channel=3, note=74, velocity=74, time=0),
    Message('note_on', channel=3, note=69, velocity=74, time=0),
    Message('note_on', channel=3, note=66, velocity=74, time=0),
    Message('note_off', channel=3, note=69, velocity=64, time=230),
    Message('note_off', channel=3, note=66, velocity=64, time=0),
    Message('note_off', channel=3, note=74, velocity=64, time=58),
    Message('note_on', channel=3, note=66, velocity=74, time=0),
    Message('note_on', channel=3, note=69, velocity=74, time=0),
    Message('note_on', channel=3, note=74, velocity=74, time=0),
    Message('note_off', channel=3, note=66, velocity=64, time=76),
    Message('note_off', channel=3, note=69, velocity=64, time=0),
    Message('note_off', channel=3, note=74, velocity=64, time=20),
    Message('note_on', channel=3, note=66, velocity=74, time=0),
    Message('note_on', channel=3, note=69, velocity=74, time=0),
    Message('note_on', channel=3, note=74, velocity=74, time=0),
    Message('note_off', channel=3, note=74, velocity=64, time=1),
    Message('note_off', channel=3, note=66, velocity=64, time=75),
    Message('note_off', channel=3, note=69, velocity=64, time=0),
    Message('note_on', channel=3, note=73, velocity=74, time=20),
    Message('note_off', channel=3, note=73, velocity=64, time=76),
    Message('note_on', channel=3, note=73, velocity=74, time=20),
    Message('note_off', channel=3, note=73, velocity=64, time=76),
    Message('note_on', channel=3, note=71, velocity=74, time=20),
    Message('note_off', channel=3, note=71, velocity=64, time=96),
    Message('note_on', channel=3, note=74, velocity=74, time=0),
    Message('note_on', channel=3, note=68, velocity=74, time=0),
    Message('note_off', channel=3, note=68, velocity=64, time=153),
    Message('note_off', channel=3, note=74, velocity=64, time=39),
    Message('note_on', channel=3, note=71, velocity=74, time=0),
    Message('note_on', channel=3, note=68, velocity=74, time=0),
    Message('note_off', channel=3, note=68, velocity=64, time=153),
    Message('note_off', channel=3, note=71, velocity=64, time=135),
    Message('note_on', channel=3, note=71, velocity=74, time=0),
    Message('note_on', channel=3, note=73, velocity=74, time=96),
    Message('note_off', channel=3, note=73, velocity=64, time=76),
    Message('note_on', channel=3, note=74, velocity=74, time=20),
    Message('note_on', channel=3, note=69, velocity=74, time=0),
    Message('note_on', channel=3, note=66, velocity=74, time=0),
    Message('note_off', channel=3, note=71, velocity=64, time=96),
    Message('note_off', channel=3, note=74, velocity=64, time=0),
    Message('note_off', channel=3, note=66, velocity=64, time=0),
    Message('note_off', channel=3, note=69, velocity=64, time=230),
    Message('note_on', channel=3, note=74, velocity=74, time=58),
    Message('note_on', channel=3, note=69, velocity=74, time=0),
    Message('note_off', channel=3, note=69, velocity=64, time=76),
    Message('note_off', channel=3, note=74, velocity=64, time=20),
    Message('note_on', channel=3, note=74, velocity=74, time=0),
    Message('note_on', channel=3, note=69, velocity=74, time=0),
    Message('note_off', channel=3, note=69, velocity=64, time=76),
    Message('note_on', channel=3, note=73, velocity=74, time=20),
    Message('note_off', channel=3, note=73, velocity=64, time=76),
    Message('note_on', channel=3, note=73, velocity=74, time=20),
    Message('note_off', channel=3, note=73, velocity=64, time=76),
    Message('note_on', channel=3, note=71, velocity=74, time=20),
    Message('note_off', channel=3, note=74, velocity=64, time=96),
    Message('note_off', channel=3, note=71, velocity=64, time=1),
    Message('note_on', channel=3, note=71, velocity=74, time=191),
    Message('note_off', channel=3, note=71, velocity=64, time=288),
    Message('note_on', channel=3, note=71, velocity=74, time=0),
    Message('note_off', channel=3, note=71, velocity=64, time=288),
    Message('note_on', channel=3, note=69, velocity=74, time=288),
    Message('note_on', channel=3, note=74, velocity=74, time=0),
    Message('note_off', channel=3, note=69, velocity=64, time=76),
    Message('note_off', channel=3, note=74, velocity=64, time=20),
    Message('note_on', channel=3, note=69, velocity=74, time=0),
    Message('note_on', channel=3, note=74, velocity=74, time=0),
    Message('note_off', channel=3, note=69, velocity=64, time=76),
    Message('note_on', channel=3, note=73, velocity=74, time=20),
    Message('note_off', channel=3, note=73, velocity=64, time=76),
    Message('note_on', channel=3, note=73, velocity=74, time=20),
    Message('note_off', channel=3, note=73, velocity=64, time=76),
    Message('note_on', channel=3, note=71, velocity=74, time=20),
    Message('note_off', channel=3, note=74, velocity=64, time=96),
    Message('note_on', channel=3, note=68, velocity=74, time=0),
    Message('note_off', channel=3, note=71, velocity=64, time=1),
    Message('note_off', channel=3, note=68, velocity=64, time=152),
    Message('note_on', channel=3, note=68, velocity=74, time=39),
    Message('note_on', channel=3, note=71, velocity=74, time=0),
    Message('note_off', channel=3, note=68, velocity=64, time=153),
    Message('note_off', channel=3, note=71, velocity=64, time=135),
    Message('note_on', channel=3, note=71, velocity=74, time=0),
    Message('note_on', channel=3, note=73, velocity=74, time=96),
    Message('note_off', channel=3, note=73, velocity=64, time=76),
    Message('note_on', channel=3, note=74, velocity=74, time=20),
    Message('note_off', channel=3, note=71, velocity=64, time=96),
    Message('note_off', channel=3, note=74, velocity=64, time=288),
    Message('note_on', channel=3, note=66, velocity=74, time=0),
    Message('note_on', channel=3, note=69, velocity=74, time=0),
    Message('note_on', channel=3, note=74, velocity=74, time=0),
    Message('note_off', channel=3, note=66, velocity=64, time=76),
    Message('note_off', channel=3, note=69, velocity=64, time=0),
    Message('note_off', channel=3, note=74, velocity=64, time=20),
    Message('note_on', channel=3, note=66, velocity=74, time=0),
    Message('note_on', channel=3, note=69, velocity=74, time=0),
    Message('note_on', channel=3, note=74, velocity=74, time=0),
    Message('note_off', channel=3, note=66, velocity=64, time=76),
    Message('note_off', channel=3, note=69, velocity=64, time=0),
    Message('note_off', channel=3, note=74, velocity=64, time=20),
    Message('note_on', channel=3, note=73, velocity=74, time=0),
    Message('note_off', channel=3, note=73, velocity=64, time=76),
    Message('note_on', channel=3, note=73, velocity=74, time=20),
    Message('note_off', channel=3, note=73, velocity=64, time=76),
    Message('note_on', channel=3, note=71, velocity=74, time=20),
    Message('note_on', channel=3, note=68, velocity=74, time=96),
    Message('note_off', channel=3, note=71, velocity=64, time=1),
    Message('note_off', channel=3, note=68, velocity=64, time=152),
    Message('note_on', channel=3, note=68, velocity=74, time=39),
    Message('note_on', channel=3, note=71, velocity=74, time=0),
    Message('note_off', channel=3, note=68, velocity=64, time=153),
    Message('note_off', channel=3, note=71, velocity=64, time=135),
    Message('note_on', channel=3, note=71, velocity=74, time=0),
    Message('note_on', channel=3, note=73, velocity=74, time=96),
    Message('note_off', channel=3, note=73, velocity=64, time=76),
    Message('note_on', channel=3, note=74, velocity=74, time=20),
    Message('note_off', channel=3, note=71, velocity=64, time=96),
    Message('note_off', channel=3, note=74, velocity=64, time=288),
    Message('note_on', channel=3, note=69, velocity=74, time=0),
    Message('note_on', channel=3, note=74, velocity=74, time=0),
    Message('note_off', channel=3, note=69, velocity=64, time=76),
    Message('note_off', channel=3, note=74, velocity=64, time=20),
    Message('note_on', channel=3, note=69, velocity=74, time=0),
    Message('note_on', channel=3, note=74, velocity=74, time=0),
    Message('note_off', channel=3, note=69, velocity=64, time=76),
    Message('note_on', channel=3, note=73, velocity=74, time=20),
    Message('note_off', channel=3, note=73, velocity=64, time=76),
    Message('note_on', channel=3, note=73, velocity=74, time=20),
    Message('note_off', channel=3, note=73, velocity=64, time=76),
    Message('note_on', channel=3, note=71, velocity=74, time=20),
    Message('note_on', channel=3, note=68, velocity=74, time=96),
    Message('note_off', channel=3, note=71, velocity=64, time=1),
    Message('note_off', channel=3, note=68, velocity=64, time=152),
    Message('note_on', channel=3, note=68, velocity=74, time=39),
    Message('note_on', channel=3, note=71, velocity=74, time=0),
    Message('note_off', channel=3, note=68, velocity=64, time=153),
    Message('note_off', channel=3, note=71, velocity=64, time=135),
    Message('note_on', channel=3, note=71, velocity=74, time=0),
    Message('note_on', channel=3, note=73, velocity=74, time=96),
    Message('note_off', channel=3, note=73, velocity=64, time=76),
    Message('note_off', channel=3, note=74, velocity=64, time=20),
    Message('note_on', channel=3, note=74, velocity=74, time=0),
    Message('note_off', channel=3, note=71, velocity=64, time=96),
    Message('note_off', channel=3, note=74, velocity=64, time=288),
    Message('note_on', channel=3, note=69, velocity=74, time=0),
    Message('note_on', channel=3, note=74, velocity=74, time=0),
    Message('note_off', channel=3, note=69, velocity=64, time=76),
    Message('note_off', channel=3, note=74, velocity=64, time=20),
    Message('note_on', channel=3, note=69, velocity=74, time=0),
    Message('note_on', channel=3, note=74, velocity=74, time=0),
    Message('note_off', channel=3, note=69, velocity=64, time=76),
    Message('note_off', channel=3, note=74, velocity=64, time=20),
    Message('note_on', channel=3, note=73, velocity=74, time=0),
    Message('note_off', channel=3, note=73, velocity=64, time=76),
    Message('note_on', channel=3, note=73, velocity=74, time=20),
    Message('note_off', channel=3, note=73, velocity=64, time=76),
    Message('note_on', channel=3, note=71, velocity=74, time=20),
    Message('note_on', channel=3, note=68, velocity=74, time=96),
    Message('note_off', channel=3, note=71, velocity=64, time=1),
    Message('note_off', channel=3, note=68, velocity=64, time=152),
    Message('note_on', channel=3, note=68, velocity=74, time=39),
    Message('note_on', channel=3, note=71, velocity=74, time=0),
    Message('note_off', channel=3, note=68, velocity=64, time=153),
    Message('note_off', channel=3, note=71, velocity=64, time=135),
    Message('note_on', channel=3, note=71, velocity=74, time=0),
    Message('note_on', channel=3, note=73, velocity=74, time=96),
    Message('note_off', channel=3, note=73, velocity=64, time=76),
    Message('note_on', channel=3, note=74, velocity=74, time=20),
    Message('note_off', channel=3, note=71, velocity=64, time=96),
    Message('note_off', channel=3, note=74, velocity=64, time=48),
    Message('note_on', channel=3, note=69, velocity=74, time=240),
    Message('note_on', channel=3, note=74, velocity=74, time=0),
    Message('note_off', channel=3, note=69, velocity=64, time=76),
    Message('note_off', channel=3, note=74, velocity=64, time=20),
    Message('note_on', channel=3, note=69, velocity=74, time=0),
    Message('note_on', channel=3, note=74, velocity=74, time=0),
    Message('note_off', channel=3, note=69, velocity=64, time=76),
    Message('note_on', channel=3, note=73, velocity=74, time=20),
    Message('note_off', channel=3, note=73, velocity=64, time=76),
    Message('note_on', channel=3, note=73, velocity=74, time=20),
    Message('note_off', channel=3, note=73, velocity=64, time=76),
    Message('note_on', channel=3, note=68, velocity=74, time=116),
    Message('note_off', channel=3, note=68, velocity=64, time=153),
    Message('note_on', channel=3, note=71, velocity=74, time=39),
    Message('note_off', channel=3, note=71, velocity=64, time=288),
    Message('note_on', channel=3, note=71, velocity=74, time=0),
    Message('note_on', channel=3, note=73, velocity=74, time=96),
    Message('note_off', channel=3, note=73, velocity=64, time=76),
    Message('note_off', channel=3, note=74, velocity=64, time=20),
    Message('note_on', channel=3, note=74, velocity=74, time=0),
    Message('note_off', channel=3, note=71, velocity=64, time=96),
    Message('note_off', channel=3, note=74, velocity=64, time=0),
    Message('note_on', channel=3, note=74, velocity=74, time=288),
    Message('note_off', channel=3, note=74, velocity=64, time=96),
    Message('note_on', channel=3, note=74, velocity=74, time=0),
    Message('note_on', channel=3, note=73, velocity=74, time=96),
    Message('note_off', channel=3, note=73, velocity=64, time=76),
    Message('note_on', channel=3, note=73, velocity=74, time=20),
    Message('note_off', channel=3, note=73, velocity=64, time=76),
    Message('note_on', channel=3, note=71, velocity=74, time=20),
    Message('note_off', channel=3, note=74, velocity=64, time=96),
    Message('note_on', channel=3, note=68, velocity=74, time=0),
    Message('note_off', channel=3, note=71, velocity=64, time=1),
    Message('note_off', channel=3, note=68, velocity=64, time=152),
    Message('note_on', channel=3, note=68, velocity=74, time=1383),
    Message('note_off', channel=3, note=68, velocity=64, time=153),
    Message('note_on', channel=3, note=68, velocity=74, time=39),
    Message('note_on', channel=3, note=71, velocity=74, time=0),
    Message('note_off', channel=3, note=68, velocity=64, time=153),
    Message('note_off', channel=3, note=71, velocity=64, time=135),
    Message('note_on', channel=3, note=71, velocity=74, time=0),
    Message('note_on', channel=3, note=73, velocity=74, time=96),
    Message('note_off', channel=3, note=73, velocity=64, time=76),
    Message('note_on', channel=3, note=74, velocity=74, time=20),
    Message('note_off', channel=3, note=71, velocity=64, time=96),
    Message('note_off', channel=3, note=74, velocity=64, time=0),
    Message('note_on', channel=3, note=74, velocity=74, time=288),
    Message('note_off', channel=3, note=74, velocity=64, time=96),
    Message('note_on', channel=3, note=74, velocity=74, time=0),
    Message('note_off', channel=3, note=74, velocity=64, time=96),
    Message('note_on', channel=3, note=73, velocity=74, time=0),
    Message('note_off', channel=3, note=73, velocity=64, time=76),
    Message('note_on', channel=3, note=73, velocity=74, time=20),
    Message('note_off', channel=3, note=73, velocity=64, time=76),
    Message('note_on', channel=3, note=71, velocity=74, time=20),
    Message('note_on', channel=3, note=68, velocity=74, time=96),
    Message('note_off', channel=3, note=71, velocity=64, time=1),
    Message('note_off', channel=3, note=68, velocity=64, time=152),
    Message('note_on', channel=3, note=68, velocity=74, time=39),
    Message('note_on', channel=3, note=71, velocity=74, time=0),
    Message('note_off', channel=3, note=68, velocity=64, time=153),
    Message('note_off', channel=3, note=71, velocity=64, time=135),
    Message('note_on', channel=3, note=71, velocity=74, time=0),
    Message('note_on', channel=3, note=73, velocity=74, time=96),
    Message('note_off', channel=3, note=73, velocity=64, time=76),
    Message('note_on', channel=3, note=74, velocity=74, time=20),
    Message('control_change', channel=3, control=7, value=88, time=96),
    Message('note_off', channel=3, note=71, velocity=64, time=1),
    Message('control_change', channel=3, control=7, value=89, time=191),
    Message('note_off', channel=3, note=74, velocity=64, time=96),
    Message('note_on', channel=3, note=74, velocity=74, time=0),
    Message('note_on', channel=3, note=69, velocity=74, time=0),
    Message('note_on', channel=3, note=66, velocity=74, time=0),
    Message('note_off', channel=3, note=69, velocity=64, time=76),
    Message('note_off', channel=3, note=66, velocity=64, time=0),
    Message('note_off', channel=3, note=74, velocity=64, time=20),
    Message('control_change', channel=3, control=7, value=90, time=0),
    Message('note_on', channel=3, note=74, velocity=74, time=0),
    Message('note_on', channel=3, note=69, velocity=74, time=0),
    Message('note_on', channel=3, note=66, velocity=74, time=0),
    Message('note_off', channel=3, note=69, velocity=64, time=76),
    Message('note_off', channel=3, note=66, velocity=64, time=0),
    Message('note_on', channel=3, note=73, velocity=74, time=20),
    Message('note_off', channel=3, note=73, velocity=64, time=76),
    Message('control_change', channel=3, control=7, value=91, time=20),
    Message('note_on', channel=3, note=73, velocity=74, time=0),
    Message('note_off', channel=3, note=73, velocity=64, time=76),
    Message('note_on', channel=3, note=71, velocity=74, time=20),
    Message('note_off', channel=3, note=74, velocity=65, time=76),
    Message('note_off', channel=3, note=71, velocity=65, time=0),
    Message('control_change', channel=3, control=7, value=103, time=20),
    Message('note_on', channel=3, note=71, velocity=74, time=192),
    Message('note_on', channel=3, note=76, velocity=74, time=0),
    Message('note_off', channel=3, note=76, velocity=64, time=883),
    Message('note_off', channel=3, note=71, velocity=64, time=173),
    Message('note_on', channel=3, note=71, velocity=74, time=0),
    Message('note_on', channel=3, note=73, velocity=74, time=96),
    Message('note_off', channel=3, note=73, velocity=64, time=76),
    Message('note_off', channel=3, note=71, velocity=64, time=20),
    Message('note_on', channel=3, note=71, velocity=74, time=0),
    Message('note_off', channel=3, note=71, velocity=64, time=96),
    Message('note_on', channel=3, note=73, velocity=74, time=0),
    Message('note_on', channel=3, note=76, velocity=74, time=0),
    Message('note_off', channel=3, note=73, velocity=64, time=153),
    Message('note_off', channel=3, note=76, velocity=64, time=0),
    Message('note_on', channel=3, note=73, velocity=74, time=231),
    Message('note_on', channel=3, note=76, velocity=74, time=0),
    Message('note_off', channel=3, note=73, velocity=64, time=76),
    Message('note_off', channel=3, note=76, velocity=64, time=0),
    Message('note_on', channel=3, note=76, velocity=74, time=20),
    Message('note_on', channel=3, note=73, velocity=74, time=0),
    Message('note_off', channel=3, note=76, velocity=64, time=76),
    Message('note_off', channel=3, note=73, velocity=64, time=0),
    Message('note_on', channel=3, note=76, velocity=74, time=20),
    Message('note_on', channel=3, note=73, velocity=74, time=0),
    Message('note_off', channel=3, note=76, velocity=64, time=180),
    Message('note_off', channel=3, note=73, velocity=64, time=0),
    Message('note_on', channel=3, note=73, velocity=74, time=12),
    Message('note_on', channel=3, note=76, velocity=74, time=0),
    Message('note_off', channel=3, note=73, velocity=64, time=460),
    Message('note_off', channel=3, note=76, velocity=64, time=0),
    Message('note_on', channel=3, note=76, velocity=74, time=116),
    Message('note_off', channel=3, note=76, velocity=64, time=76),
    Message('note_on', channel=3, note=73, velocity=74, time=20),
    Message('note_off', channel=3, note=73, velocity=64, time=76),
    Message('note_on', channel=3, note=68, velocity=74, time=20),
    Message('note_on', channel=3, note=76, velocity=74, time=0),
    Message('note_off', channel=3, note=68, velocity=64, time=153),
    Message('note_off', channel=3, note=76, velocity=64, time=0),
    Message('note_on', channel=3, note=68, velocity=74, time=39),
    Message('note_on', channel=3, note=71, velocity=74, time=0),
    Message('note_off', channel=3, note=68, velocity=64, time=76),
    Message('note_off', channel=3, note=71, velocity=64, time=20),
    Message('note_on', channel=3, note=68, velocity=74, time=0),
    Message('note_on', channel=3, note=71, velocity=74, time=0),
    Message('note_off', channel=3, note=68, velocity=64, time=76),
    Message('note_on', channel=3, note=69, velocity=74, time=20),
    Message('note_off', channel=3, note=69, velocity=64, time=76),
    Message('note_off', channel=3, note=71, velocity=64, time=20),
    Message('note_on', channel=3, note=71, velocity=74, time=0),
    Message('note_off', channel=3, note=71, velocity=64, time=96),
    Message('note_on', channel=3, note=69, velocity=74, time=0),
    Message('note_off', channel=3, note=69, velocity=64, time=76),
    Message('note_on', channel=3, note=68, velocity=74, time=20),
    Message('note_off', channel=3, note=68, velocity=64, time=76),
    Message('note_on', channel=3, note=68, velocity=74, time=20),
    Message('note_off', channel=3, note=68, velocity=64, time=153),
    Message('note_on', channel=3, note=71, velocity=74, time=39),
    Message('note_on', channel=3, note=69, velocity=74, time=96),
    Message('note_off', channel=3, note=69, velocity=64, time=76),
    Message('note_off', channel=3, note=71, velocity=64, time=20),
    Message('note_on', channel=3, note=71, velocity=74, time=0),
    Message('note_off', channel=3, note=71, velocity=64, time=96),
    Message('note_on', channel=3, note=71, velocity=74, time=0),
    Message('note_on', channel=3, note=73, velocity=74, time=96),
    Message('note_off', channel=3, note=73, velocity=64, time=76),
    Message('note_off', channel=3, note=71, velocity=64, time=20),
    Message('note_on', channel=3, note=71, velocity=74, time=0),
    Message('note_on', channel=3, note=70, velocity=74, time=48),
    Message('note_off', channel=3, note=70, velocity=64, time=38),
    Message('note_off', channel=3, note=71, velocity=64, time=10),
    Message('note_on', channel=3, note=69, velocity=74, time=0),
    Message('note_off', channel=3, note=69, velocity=64, time=153),
    Message('note_on', channel=3, note=73, velocity=74, time=39),
    Message('note_on', channel=3, note=76, velocity=74, time=0),
    Message('note_off', channel=3, note=73, velocity=64, time=282),
    Message('note_off', channel=3, note=76, velocity=64, time=0),
    Message('note_on', channel=3, note=76, velocity=74, time=6),
    Message('note_on', channel=3, note=73, velocity=74, time=0),
    Message('note_off', channel=3, note=76, velocity=64, time=90),
    Message('note_off', channel=3, note=73, velocity=64, time=0),
    Message('note_on', channel=3, note=76, velocity=74, time=6),
    Message('note_on', channel=3, note=73, velocity=74, time=0),
    Message('note_off', channel=3, note=76, velocity=64, time=153),
    Message('note_off', channel=3, note=73, velocity=64, time=0),
    Message('note_on', channel=3, note=69, velocity=74, time=231),
    Message('note_on', channel=3, note=73, velocity=74, time=0),
    Message('note_off', channel=3, note=69, velocity=64, time=76),
    Message('note_off', channel=3, note=73, velocity=64, time=0),
    Message('note_on', channel=3, note=71, velocity=74, time=20),
    Message('note_off', channel=3, note=71, velocity=64, time=672),
    Message('note_on', channel=3, note=68, velocity=74, time=0),
    Message('note_off', channel=3, note=68, velocity=64, time=153),
    Message('note_on', channel=3, note=71, velocity=74, time=39),
    Message('note_off', channel=3, note=71, velocity=64, time=96),
    Message('note_on', channel=3, note=68, velocity=74, time=0),
    Message('note_off', channel=3, note=68, velocity=64, time=76),
    Message('note_on', channel=3, note=71, velocity=74, time=20),
    Message('note_off', channel=3, note=71, velocity=64, time=288),
    Message('note_on', channel=3, note=73, velocity=74, time=96),
    Message('note_off', channel=3, note=73, velocity=64, time=76),
    Message('note_on', channel=3, note=76, velocity=74, time=20),
    Message('note_off', channel=3, note=76, velocity=64, time=76),
    Message('note_on', channel=3, note=78, velocity=74, time=20),
    Message('note_off', channel=3, note=78, velocity=64, time=38),
    Message('note_on', channel=3, note=76, velocity=74, time=10),
    Message('note_off', channel=3, note=76, velocity=64, time=38),
    Message('note_on', channel=3, note=73, velocity=74, time=10),
    Message('note_off', channel=3, note=73, velocity=64, time=76),
    Message('note_on', channel=3, note=76, velocity=74, time=20),
    Message('note_off', channel=3, note=76, velocity=64, time=76),
    Message('note_on', channel=3, note=78, velocity=74, time=20),
    Message('note_off', channel=3, note=78, velocity=64, time=38),
    Message('note_on', channel=3, note=73, velocity=74, time=10),
    Message('note_off', channel=3, note=73, velocity=64, time=38),
    Message('note_on', channel=3, note=76, velocity=74, time=10),
    Message('note_off', channel=3, note=76, velocity=64, time=153),
    Message('note_on', channel=3, note=68, velocity=74, time=39),
    Message('note_off', channel=3, note=68, velocity=64, time=76),
    Message('note_on', channel=3, note=69, velocity=74, time=20),
    Message('note_off', channel=3, note=69, velocity=64, time=76),
    Message('note_on', channel=3, note=69, velocity=74, time=20),
    Message('note_off', channel=3, note=69, velocity=64, time=76),
    Message('note_on', channel=3, note=68, velocity=74, time=20),
    Message('note_off', channel=3, note=68, velocity=64, time=230),
    Message('note_on', channel=3, note=73, velocity=74, time=58),
    Message('note_off', channel=3, note=73, velocity=64, time=153),
    Message('note_on', channel=3, note=73, velocity=74, time=39),
    Message('note_off', channel=3, note=73, velocity=64, time=76),
    Message('note_on', channel=3, note=73, velocity=74, time=20),
    Message('note_off', channel=3, note=73, velocity=64, time=76),
    Message('note_on', channel=3, note=74, velocity=74, time=20),
    Message('note_off', channel=3, note=74, velocity=64, time=96),
    Message('note_on', channel=3, note=73, velocity=74, time=0),
    Message('note_off', channel=3, note=73, velocity=64, time=240),
    Message('note_on', channel=3, note=68, velocity=74, time=48),
    Message('note_off', channel=3, note=68, velocity=64, time=153),
    Message('note_on', channel=3, note=71, velocity=74, time=39),
    Message('note_off', channel=3, note=71, velocity=64, time=288),
    Message('note_on', channel=3, note=71, velocity=74, time=0),
    Message('note_on', channel=3, note=73, velocity=74, time=96),
    Message('note_off', channel=3, note=73, velocity=64, time=76),
    Message('note_on', channel=3, note=74, velocity=74, time=20),
    Message('note_off', channel=3, note=71, velocity=64, time=96),
    Message('note_off', channel=3, note=74, velocity=64, time=0),
    Message('note_on', channel=3, note=74, velocity=74, time=0),
    Message('note_off', channel=3, note=74, velocity=64, time=288),
    Message('note_on', channel=3, note=66, velocity=74, time=0),
    Message('note_off', channel=3, note=66, velocity=64, time=76),
    Message('note_on', channel=3, note=69, velocity=74, time=20),
    Message('note_off', channel=3, note=69, velocity=64, time=76),
    Message('note_on', channel=3, note=73, velocity=74, time=20),
    Message('note_off', channel=3, note=73, velocity=64, time=76),
    Message('note_on', channel=3, note=73, velocity=74, time=20),
    Message('note_off', channel=3, note=73, velocity=64, time=76),
    Message('note_on', channel=3, note=71, velocity=74, time=20),
    Message('note_off', channel=3, note=71, velocity=64, time=96),
    Message('note_on', channel=3, note=74, velocity=74, time=0),
    Message('note_on', channel=3, note=68, velocity=74, time=0),
    Message('note_off', channel=3, note=68, velocity=64, time=153),
    Message('note_off', channel=3, note=74, velocity=64, time=39),
    Message('note_on', channel=3, note=71, velocity=74, time=0),
    Message('note_on', channel=3, note=68, velocity=74, time=0),
    Message('note_off', channel=3, note=68, velocity=64, time=153),
    Message('note_off', channel=3, note=71, velocity=64, time=135),
    Message('note_on', channel=3, note=71, velocity=74, time=0),
    Message('note_on', channel=3, note=73, velocity=74, time=96),
    Message('note_off', channel=3, note=73, velocity=64, time=76),
    Message('note_on', channel=3, note=74, velocity=74, time=20),
    Message('note_off', channel=3, note=71, velocity=64, time=96),
    Message('note_off', channel=3, note=74, velocity=64, time=0),
    Message('note_on', channel=3, note=74, velocity=74, time=288),
    Message('note_on', channel=3, note=69, velocity=74, time=0),
    Message('note_off', channel=3, note=69, velocity=64, time=76),
    Message('note_off', channel=3, note=74, velocity=64, time=20),
    Message('note_on', channel=3, note=74, velocity=74, time=0),
    Message('note_on', channel=3, note=69, velocity=74, time=0),
    Message('note_off', channel=3, note=69, velocity=64, time=76),
    Message('note_on', channel=3, note=73, velocity=74, time=20),
    Message('note_off', channel=3, note=73, velocity=64, time=76),
    Message('note_on', channel=3, note=73, velocity=74, time=20),
    Message('note_off', channel=3, note=73, velocity=64, time=76),
    Message('note_on', channel=3, note=71, velocity=74, time=20),
    Message('note_off', channel=3, note=74, velocity=64, time=96),
    Message('note_on', channel=3, note=68, velocity=74, time=0),
    Message('note_off', channel=3, note=71, velocity=64, time=1),
    Message('note_off', channel=3, note=68, velocity=64, time=152),
    Message('note_on', channel=3, note=71, velocity=74, time=39),
    Message('note_off', channel=3, note=71, velocity=64, time=288),
    Message('note_on', channel=3, note=71, velocity=74, time=0),
    Message('note_off', channel=3, note=71, velocity=64, time=96),
    Message('note_on', channel=3, note=73, velocity=74, time=0),
    Message('note_off', channel=3, note=73, velocity=64, time=76),
    Message('note_on', channel=3, note=74, velocity=74, time=20),
    Message('note_off', channel=3, note=74, velocity=64, time=96),
    Message('note_on', channel=3, note=74, velocity=74, time=288),
    Message('note_off', channel=3, note=74, velocity=64, time=96),
    Message('note_on', channel=3, note=74, velocity=74, time=0),
    Message('note_off', channel=3, note=74, velocity=64, time=384),
    Message('note_on', channel=3, note=68, velocity=74, time=0),
    Message('note_off', channel=3, note=68, velocity=64, time=153),
    Message('note_on', channel=3, note=68, velocity=74, time=39),
    Message('note_on', channel=3, note=71, velocity=74, time=0),
    Message('note_off', channel=3, note=68, velocity=64, time=153),
    Message('note_off', channel=3, note=71, velocity=64, time=135),
    Message('note_on', channel=3, note=71, velocity=74, time=0),
    Message('note_on', channel=3, note=73, velocity=74, time=96),
    Message('note_off', channel=3, note=73, velocity=64, time=76),
    Message('note_on', channel=3, note=74, velocity=74, time=20),
    Message('note_off', channel=3, note=71, velocity=64, time=96),
    Message('note_off', channel=3, note=74, velocity=64, time=288),
    Message('note_on', channel=3, note=66, velocity=74, time=0),
    Message('note_on', channel=3, note=69, velocity=74, time=0),
    Message('note_on', channel=3, note=74, velocity=74, time=0),
    Message('note_off', channel=3, note=66, velocity=64, time=76),
    Message('note_off', channel=3, note=69, velocity=64, time=0),
    Message('note_off', channel=3, note=74, velocity=64, time=20),
    Message('note_on', channel=3, note=66, velocity=74, time=0),
    Message('note_on', channel=3, note=69, velocity=74, time=0),
    Message('note_on', channel=3, note=74, velocity=74, time=0),
    Message('note_off', channel=3, note=66, velocity=64, time=76),
    Message('note_off', channel=3, note=69, velocity=64, time=0),
    Message('note_off', channel=3, note=74, velocity=64, time=20),
    Message('note_on', channel=3, note=73, velocity=74, time=0),
    Message('note_off', channel=3, note=73, velocity=64, time=76),
    Message('note_on', channel=3, note=73, velocity=74, time=20),
    Message('note_off', channel=3, note=73, velocity=64, time=76),
    Message('note_on', channel=3, note=71, velocity=74, time=20),
    Message('note_on', channel=3, note=68, velocity=74, time=96),
    Message('note_off', channel=3, note=71, velocity=64, time=1),
    Message('note_off', channel=3, note=68, velocity=64, time=152),
    Message('note_on', channel=3, note=71, velocity=74, time=39),
    Message('note_off', channel=3, note=71, velocity=64, time=288),
    Message('note_on', channel=3, note=73, velocity=74, time=96),
    Message('note_off', channel=3, note=73, velocity=64, time=76),
    Message('note_on', channel=3, note=74, velocity=74, time=20),
    Message('note_off', channel=3, note=74, velocity=64, time=384),
    Message('note_on', channel=3, note=69, velocity=74, time=0),
    Message('note_on', channel=3, note=74, velocity=74, time=0),
    Message('note_off', channel=3, note=69, velocity=64, time=76),
    Message('note_off', channel=3, note=74, velocity=64, time=20),
    Message('note_on', channel=3, note=69, velocity=74, time=0),
    Message('note_on', channel=3, note=74, velocity=74, time=0),
    Message('note_off', channel=3, note=69, velocity=64, time=76),
    Message('note_on', channel=3, note=73, velocity=74, time=20),
    Message('note_off', channel=3, note=73, velocity=64, time=76),
    Message('note_on', channel=3, note=73, velocity=74, time=20),
    Message('note_off', channel=3, note=73, velocity=64, time=76),
    Message('note_on', channel=3, note=71, velocity=74, time=20),
    Message('note_on', channel=3, note=68, velocity=74, time=96),
    Message('note_off', channel=3, note=71, velocity=64, time=1),
    Message('note_off', channel=3, note=68, velocity=64, time=152),
    Message('note_on', channel=3, note=68, velocity=74, time=39),
    Message('note_on', channel=3, note=71, velocity=74, time=0),
    Message('note_off', channel=3, note=68, velocity=64, time=153),
    Message('note_off', channel=3, note=71, velocity=64, time=135),
    Message('note_on', channel=3, note=71, velocity=74, time=0),
    Message('note_on', channel=3, note=73, velocity=74, time=96),
    Message('note_off', channel=3, note=73, velocity=64, time=76),
    Message('note_off', channel=3, note=74, velocity=64, time=20),
    Message('note_on', channel=3, note=74, velocity=74, time=0),
    Message('note_off', channel=3, note=71, velocity=64, time=96),
    Message('note_off', channel=3, note=74, velocity=64, time=288),
    Message('note_on', channel=3, note=69, velocity=74, time=0),
    Message('note_on', channel=3, note=74, velocity=74, time=0),
    Message('note_off', channel=3, note=69, velocity=64, time=76),
    Message('note_off', channel=3, note=74, velocity=64, time=20),
    Message('note_on', channel=3, note=69, velocity=74, time=0),
    Message('note_on', channel=3, note=74, velocity=74, time=0),
    Message('note_off', channel=3, note=69, velocity=64, time=76),
    Message('note_off', channel=3, note=74, velocity=64, time=20),
    Message('note_on', channel=3, note=73, velocity=74, time=0),
    Message('note_off', channel=3, note=73, velocity=64, time=76),
    Message('note_on', channel=3, note=73, velocity=74, time=20),
    Message('note_off', channel=3, note=73, velocity=64, time=76),
    Message('note_on', channel=3, note=71, velocity=74, time=20),
    Message('note_on', channel=3, note=68, velocity=74, time=96),
    Message('note_off', channel=3, note=71, velocity=64, time=1),
    Message('note_off', channel=3, note=68, velocity=64, time=152),
    Message('note_on', channel=3, note=68, velocity=74, time=39),
    Message('note_on', channel=3, note=71, velocity=74, time=0),
    Message('note_off', channel=3, note=68, velocity=64, time=153),
    Message('note_off', channel=3, note=71, velocity=64, time=135),
    Message('note_on', channel=3, note=71, velocity=74, time=0),
    Message('note_on', channel=3, note=73, velocity=74, time=96),
    Message('note_off', channel=3, note=73, velocity=64, time=76),
    Message('note_on', channel=3, note=74, velocity=74, time=20),
    Message('note_off', channel=3, note=71, velocity=64, time=96),
    Message('note_off', channel=3, note=74, velocity=64, time=48),
    Message('note_on', channel=3, note=66, velocity=74, time=240),
    Message('note_on', channel=3, note=69, velocity=74, time=0),
    Message('note_on', channel=3, note=74, velocity=74, time=0),
    Message('note_off', channel=3, note=66, velocity=64, time=76),
    Message('note_off', channel=3, note=69, velocity=64, time=0),
    Message('note_off', channel=3, note=74, velocity=64, time=20),
    Message('note_on', channel=3, note=66, velocity=74, time=0),
    Message('note_on', channel=3, note=69, velocity=74, time=0),
    Message('note_on', channel=3, note=74, velocity=74, time=0),
    Message('note_off', channel=3, note=66, velocity=64, time=76),
    Message('note_off', channel=3, note=69, velocity=64, time=0),
    Message('note_on', channel=3, note=73, velocity=74, time=20),
    Message('note_off', channel=3, note=73, velocity=64, time=76),
    Message('note_on', channel=3, note=73, velocity=74, time=20),
    Message('note_off', channel=3, note=73, velocity=64, time=76),
    Message('note_on', channel=3, note=71, velocity=74, time=20),
    Message('note_on', channel=3, note=68, velocity=74, time=96),
    Message('note_off', channel=3, note=71, velocity=64, time=1),
    Message('note_off', channel=3, note=68, velocity=64, time=152),
    Message('note_on', channel=3, note=68, velocity=74, time=39),
    Message('note_on', channel=3, note=71, velocity=74, time=0),
    Message('note_off', channel=3, note=68, velocity=64, time=153),
    Message('note_off', channel=3, note=71, velocity=64, time=135),
    Message('note_on', channel=3, note=71, velocity=74, time=0),
    Message('note_on', channel=3, note=73, velocity=74, time=96),
    Message('note_off', channel=3, note=73, velocity=64, time=76),
    Message('note_off', channel=3, note=74, velocity=64, time=20),
    Message('note_on', channel=3, note=66, velocity=74, time=0),
    Message('note_on', channel=3, note=69, velocity=74, time=0),
    Message('note_on', channel=3, note=74, velocity=74, time=0),
    Message('note_off', channel=3, note=71, velocity=64, time=96),
    Message('note_off', channel=3, note=74, velocity=64, time=0),
    Message('note_off', channel=3, note=69, velocity=64, time=230),
    Message('note_off', channel=3, note=66, velocity=64, time=0),
    Message('note_on', channel=3, note=66, velocity=74, time=58),
    Message('note_on', channel=3, note=69, velocity=74, time=0),
    Message('note_on', channel=3, note=74, velocity=74, time=0),
    Message('note_off', channel=3, note=66, velocity=64, time=76),
    Message('note_off', channel=3, note=69, velocity=64, time=0),
    Message('note_off', channel=3, note=74, velocity=64, time=20),
    Message('note_on', channel=3, note=66, velocity=74, time=0),
    Message('note_on', channel=3, note=69, velocity=74, time=0),
    Message('note_on', channel=3, note=74, velocity=74, time=0),
    Message('note_off', channel=3, note=66, velocity=64, time=76),
    Message('note_off', channel=3, note=69, velocity=64, time=0),
    Message('note_on', channel=3, note=73, velocity=74, time=20),
    Message('note_off', channel=3, note=73, velocity=64, time=76),
    Message('note_on', channel=3, note=73, velocity=74, time=20),
    Message('note_off', channel=3, note=73, velocity=64, time=76),
    Message('note_on', channel=3, note=71, velocity=74, time=20),
    Message('note_off', channel=3, note=74, velocity=64, time=96),
    Message('note_on', channel=3, note=68, velocity=74, time=0),
    Message('note_off', channel=3, note=71, velocity=64, time=1),
    Message('note_off', channel=3, note=68, velocity=64, time=152),
    Message('note_on', channel=3, note=68, velocity=74, time=1383),
    Message('note_off', channel=3, note=68, velocity=64, time=153),
    Message('note_on', channel=3, note=68, velocity=74, time=39),
    Message('note_on', channel=3, note=71, velocity=74, time=0),
    Message('note_off', channel=3, note=68, velocity=64, time=153),
    Message('note_off', channel=3, note=71, velocity=64, time=135),
    Message('note_on', channel=3, note=71, velocity=74, time=0),
    Message('note_on', channel=3, note=73, velocity=74, time=96),
    Message('note_off', channel=3, note=73, velocity=64, time=76),
    Message('note_on', channel=3, note=66, velocity=74, time=20),
    Message('note_on', channel=3, note=69, velocity=74, time=0),
    Message('note_on', channel=3, note=74, velocity=74, time=0),
    Message('note_off', channel=3, note=71, velocity=64, time=96),
    Message('note_off', channel=3, note=74, velocity=64, time=0),
    Message('note_off', channel=3, note=69, velocity=64, time=230),
    Message('note_off', channel=3, note=66, velocity=64, time=0),
    Message('note_on', channel=3, note=66, velocity=74, time=58),
    Message('note_on', channel=3, note=69, velocity=74, time=0),
    Message('note_on', channel=3, note=74, velocity=74, time=0),
    Message('note_off', channel=3, note=66, velocity=64, time=76),
    Message('note_off', channel=3, note=69, velocity=64, time=0),
    Message('note_off', channel=3, note=74, velocity=64, time=20),
    Message('note_on', channel=3, note=66, velocity=74, time=0),
    Message('note_on', channel=3, note=69, velocity=74, time=0),
    Message('note_on', channel=3, note=74, velocity=74, time=0),
    Message('note_off', channel=3, note=66, velocity=64, time=76),
    Message('note_off', channel=3, note=69, velocity=64, time=0),
    Message('note_off', channel=3, note=74, velocity=64, time=20),
    Message('note_on', channel=3, note=73, velocity=74, time=0),
    Message('note_off', channel=3, note=73, velocity=64, time=76),
    Message('note_on', channel=3, note=73, velocity=74, time=20),
    Message('note_off', channel=3, note=73, velocity=64, time=76),
    Message('note_on', channel=3, note=71, velocity=74, time=20),
    Message('note_on', channel=3, note=68, velocity=74, time=96),
    Message('note_off', channel=3, note=71, velocity=64, time=1),
    Message('note_off', channel=3, note=68, velocity=64, time=152),
    Message('note_on', channel=3, note=68, velocity=74, time=39),
    Message('note_on', channel=3, note=71, velocity=74, time=0),
    Message('note_off', channel=3, note=68, velocity=64, time=153),
    Message('note_off', channel=3, note=71, velocity=64, time=135),
    Message('note_on', channel=3, note=71, velocity=74, time=0),
    Message('note_on', channel=3, note=73, velocity=74, time=96),
    Message('note_off', channel=3, note=73, velocity=64, time=76),
    Message('note_on', channel=3, note=66, velocity=74, time=20),
    Message('note_on', channel=3, note=69, velocity=74, time=0),
    Message('note_on', channel=3, note=74, velocity=74, time=0),
    Message('note_off', channel=3, note=69, velocity=64, time=76),
    Message('note_off', channel=3, note=71, velocity=64, time=21),
    Message('note_off', channel=3, note=66, velocity=64, time=229),
    Message('note_off', channel=3, note=74, velocity=64, time=58),
    Message('note_on', channel=3, note=74, velocity=54, time=0),
    Message('note_on', channel=3, note=69, velocity=54, time=0),
    Message('note_on', channel=3, note=66, velocity=54, time=0),
    Message('note_off', channel=3, note=69, velocity=64, time=76),
    Message('note_off', channel=3, note=66, velocity=64, time=0),
    Message('note_off', channel=3, note=74, velocity=64, time=20),
    Message('note_on', channel=3, note=74, velocity=54, time=0),
    Message('note_on', channel=3, note=69, velocity=54, time=0),
    Message('note_on', channel=3, note=66, velocity=54, time=0),
    Message('note_off', channel=3, note=69, velocity=64, time=76),
    Message('note_off', channel=3, note=66, velocity=64, time=0),
    Message('note_on', channel=3, note=73, velocity=54, time=20),
    Message('note_off', channel=3, note=73, velocity=64, time=76),
    Message('note_on', channel=3, note=73, velocity=54, time=20),
    Message('note_off', channel=3, note=73, velocity=64, time=76),
    Message('note_on', channel=3, note=71, velocity=54, time=20),
    Message('note_off', channel=3, note=74, velocity=65, time=76),
    Message('note_off', channel=3, note=71, velocity=65, time=0),
    Message('note_on', channel=3, note=71, velocity=94, time=212),
    Message('note_on', channel=3, note=76, velocity=94, time=0),
    Message('note_off', channel=3, note=76, velocity=64, time=883),
    Message('note_off', channel=3, note=71, velocity=64, time=173),
    Message('note_on', channel=3, note=71, velocity=94, time=0),
    Message('note_on', channel=3, note=73, velocity=94, time=96),
    Message('note_off', channel=3, note=73, velocity=64, time=76),
    Message('note_off', channel=3, note=71, velocity=64, time=20),
    Message('note_on', channel=3, note=71, velocity=94, time=0),
    Message('note_off', channel=3, note=71, velocity=64, time=96),
    Message('note_on', channel=3, note=73, velocity=94, time=0),
    Message('note_on', channel=3, note=76, velocity=94, time=0),
    Message('note_off', channel=3, note=73, velocity=64, time=153),
    Message('note_off', channel=3, note=76, velocity=64, time=0),
    Message('note_on', channel=3, note=73, velocity=94, time=231),
    Message('note_on', channel=3, note=76, velocity=94, time=0),
    Message('note_off', channel=3, note=73, velocity=64, time=76),
    Message('note_off', channel=3, note=76, velocity=64, time=0),
    Message('note_on', channel=3, note=76, velocity=94, time=20),
    Message('note_on', channel=3, note=73, velocity=94, time=0),
    Message('note_off', channel=3, note=76, velocity=64, time=76),
    Message('note_off', channel=3, note=73, velocity=64, time=0),
    Message('note_on', channel=3, note=76, velocity=94, time=20),
    Message('note_on', channel=3, note=73, velocity=94, time=0),
    Message('note_off', channel=3, note=76, velocity=64, time=180),
    Message('note_off', channel=3, note=73, velocity=64, time=0),
    Message('note_on', channel=3, note=73, velocity=94, time=12),
    Message('note_on', channel=3, note=76, velocity=94, time=0),
    Message('note_off', channel=3, note=73, velocity=64, time=460),
    Message('note_off', channel=3, note=76, velocity=64, time=0),
    Message('note_on', channel=3, note=76, velocity=94, time=116),
    Message('note_off', channel=3, note=76, velocity=64, time=76),
    Message('note_on', channel=3, note=73, velocity=94, time=20),
    Message('note_off', channel=3, note=73, velocity=64, time=76),
    Message('note_on', channel=3, note=68, velocity=94, time=20),
    Message('note_on', channel=3, note=76, velocity=94, time=0),
    Message('note_off', channel=3, note=68, velocity=64, time=153),
    Message('note_off', channel=3, note=76, velocity=64, time=0),
    Message('note_on', channel=3, note=68, velocity=94, time=39),
    Message('note_on', channel=3, note=71, velocity=94, time=0),
    Message('note_off', channel=3, note=68, velocity=64, time=76),
    Message('note_off', channel=3, note=71, velocity=64, time=20),
    Message('note_on', channel=3, note=68, velocity=94, time=0),
    Message('note_on', channel=3, note=71, velocity=94, time=0),
    Message('note_off', channel=3, note=68, velocity=64, time=76),
    Message('note_on', channel=3, note=69, velocity=94, time=20),
    Message('note_off', channel=3, note=69, velocity=64, time=76),
    Message('note_off', channel=3, note=71, velocity=64, time=20),
    Message('note_on', channel=3, note=71, velocity=94, time=0),
    Message('note_off', channel=3, note=71, velocity=64, time=96),
    Message('note_on', channel=3, note=69, velocity=94, time=0),
    Message('note_off', channel=3, note=69, velocity=64, time=76),
    Message('note_on', channel=3, note=68, velocity=94, time=20),
    Message('note_off', channel=3, note=68, velocity=64, time=76),
    Message('note_on', channel=3, note=68, velocity=94, time=20),
    Message('note_off', channel=3, note=68, velocity=64, time=153),
    Message('note_on', channel=3, note=71, velocity=94, time=39),
    Message('note_on', channel=3, note=69, velocity=94, time=96),
    Message('note_off', channel=3, note=69, velocity=64, time=76),
    Message('note_off', channel=3, note=71, velocity=64, time=20),
    Message('note_on', channel=3, note=71, velocity=94, time=0),
    Message('note_off', channel=3, note=71, velocity=64, time=96),
    Message('note_on', channel=3, note=71, velocity=94, time=0),
    Message('note_on', channel=3, note=73, velocity=94, time=96),
    Message('note_off', channel=3, note=73, velocity=64, time=76),
    Message('note_off', channel=3, note=71, velocity=64, time=20),
    Message('note_on', channel=3, note=71, velocity=94, time=0),
    Message('note_on', channel=3, note=70, velocity=94, time=48),
    Message('note_off', channel=3, note=70, velocity=64, time=38),
    Message('note_off', channel=3, note=71, velocity=64, time=10),
    Message('note_on', channel=3, note=69, velocity=94, time=0),
    Message('note_off', channel=3, note=69, velocity=64, time=153),
    Message('note_on', channel=3, note=73, velocity=94, time=39),
    Message('note_on', channel=3, note=76, velocity=94, time=0),
    Message('note_off', channel=3, note=73, velocity=64, time=282),
    Message('note_off', channel=3, note=76, velocity=64, time=0),
    Message('note_on', channel=3, note=76, velocity=94, time=6),
    Message('note_on', channel=3, note=73, velocity=94, time=0),
    Message('note_off', channel=3, note=76, velocity=64, time=90),
    Message('note_off', channel=3, note=73, velocity=64, time=0),
    Message('note_on', channel=3, note=76, velocity=94, time=6),
    Message('note_on', channel=3, note=73, velocity=94, time=0),
    Message('note_off', channel=3, note=76, velocity=64, time=153),
    Message('note_off', channel=3, note=73, velocity=64, time=0),
    Message('note_on', channel=3, note=69, velocity=94, time=231),
    Message('note_on', channel=3, note=73, velocity=94, time=0),
    Message('note_off', channel=3, note=69, velocity=64, time=76),
    Message('note_off', channel=3, note=73, velocity=64, time=0),
    Message('note_on', channel=3, note=71, velocity=94, time=20),
    Message('note_on', channel=3, note=69, velocity=94, time=288),
    Message('note_off', channel=3, note=69, velocity=64, time=153),
    Message('note_off', channel=3, note=71, velocity=64, time=231),
    Message('note_on', channel=3, note=68, velocity=94, time=0),
    Message('note_on', channel=3, note=71, velocity=94, time=0),
    Message('note_off', channel=3, note=68, velocity=64, time=153),
    Message('note_off', channel=3, note=71, velocity=64, time=39),
    Message('note_on', channel=3, note=68, velocity=94, time=0),
    Message('note_on', channel=3, note=71, velocity=94, time=0),
    Message('note_off', channel=3, note=68, velocity=64, time=76),
    Message('note_off', channel=3, note=71, velocity=64, time=20),
    Message('note_on', channel=3, note=68, velocity=94, time=0),
    Message('note_on', channel=3, note=71, velocity=94, time=0),
    Message('note_off', channel=3, note=68, velocity=64, time=76),
    Message('note_off', channel=3, note=71, velocity=64, time=20),
    Message('note_on', channel=3, note=68, velocity=94, time=0),
    Message('note_on', channel=3, note=71, velocity=94, time=0),
    Message('note_off', channel=3, note=68, velocity=64, time=153),
    Message('note_off', channel=3, note=71, velocity=64, time=135),
    Message('note_on', channel=3, note=71, velocity=94, time=0),
    Message('note_on', channel=3, note=73, velocity=94, time=96),
    Message('note_off', channel=3, note=73, velocity=64, time=76),
    Message('note_on', channel=3, note=76, velocity=94, time=20),
    Message('note_off', channel=3, note=76, velocity=64, time=76),
    Message('note_on', channel=3, note=78, velocity=94, time=20),
    Message('note_off', channel=3, note=78, velocity=64, time=38),
    Message('note_on', channel=3, note=76, velocity=94, time=10),
    Message('note_off', channel=3, note=76, velocity=64, time=38),
    Message('note_on', channel=3, note=73, velocity=94, time=10),
    Message('note_off', channel=3, note=73, velocity=64, time=76),
    Message('note_on', channel=3, note=76, velocity=94, time=20),
    Message('note_off', channel=3, note=76, velocity=64, time=76),
    Message('note_on', channel=3, note=78, velocity=94, time=20),
    Message('note_off', channel=3, note=78, velocity=64, time=38),
    Message('note_on', channel=3, note=73, velocity=94, time=10),
    Message('note_off', channel=3, note=73, velocity=64, time=38),
    Message('note_on', channel=3, note=68, velocity=94, time=10),
    Message('note_on', channel=3, note=76, velocity=94, time=0),
    Message('note_off', channel=3, note=71, velocity=64, time=1),
    Message('note_off', channel=3, note=68, velocity=64, time=152),
    Message('note_off', channel=3, note=76, velocity=64, time=0),
    Message('note_on', channel=3, note=68, velocity=94, time=39),
    Message('note_on', channel=3, note=71, velocity=94, time=0),
    Message('note_off', channel=3, note=68, velocity=64, time=76),
    Message('note_on', channel=3, note=69, velocity=94, time=20),
    Message('note_off', channel=3, note=69, velocity=64, time=76),
    Message('note_on', channel=3, note=69, velocity=94, time=20),
    Message('note_off', channel=3, note=69, velocity=64, time=76),
    Message('note_off', channel=3, note=71, velocity=64, time=20),
    Message('note_on', channel=3, note=68, velocity=94, time=0),
    Message('note_on', channel=3, note=71, velocity=94, time=0),
    Message('note_off', channel=3, note=68, velocity=64, time=230),
    Message('note_off', channel=3, note=71, velocity=64, time=58),
    Message('note_on', channel=3, note=69, velocity=94, time=0),
    Message('note_on', channel=3, note=73, velocity=94, time=0),
    Message('note_off', channel=3, note=69, velocity=64, time=153),
    Message('note_off', channel=3, note=73, velocity=64, time=0),
    Message('note_on', channel=3, note=69, velocity=94, time=39),
    Message('note_on', channel=3, note=73, velocity=94, time=0),
    Message('note_off', channel=3, note=69, velocity=64, time=76),
    Message('note_off', channel=3, note=73, velocity=64, time=0),
    Message('note_on', channel=3, note=69, velocity=94, time=20),
    Message('note_on', channel=3, note=73, velocity=94, time=0),
    Message('note_off', channel=3, note=69, velocity=64, time=76),
    Message('note_off', channel=3, note=73, velocity=64, time=0),
    Message('note_on', channel=3, note=74, velocity=94, time=20),
    Message('note_off', channel=3, note=74, velocity=64, time=96),
    Message('note_on', channel=3, note=69, velocity=94, time=0),
    Message('note_on', channel=3, note=73, velocity=94, time=0),
    Message('note_off', channel=3, note=69, velocity=64, time=240),
    Message('note_off', channel=3, note=73, velocity=64, time=0),
    Message('note_on', channel=3, note=68, velocity=94, time=48),
    Message('note_off', channel=3, note=68, velocity=64, time=153),
    Message('note_on', channel=3, note=68, velocity=94, time=39),
    Message('note_on', channel=3, note=71, velocity=94, time=0),
    Message('note_off', channel=3, note=68, velocity=64, time=153),
    Message('note_off', channel=3, note=71, velocity=64, time=135),
    Message('note_on', channel=3, note=71, velocity=94, time=0),
    Message('note_on', channel=3, note=73, velocity=94, time=96),
    Message('note_off', channel=3, note=73, velocity=64, time=76),
    Message('note_on', channel=3, note=66, velocity=94, time=20),
    Message('note_on', channel=3, note=69, velocity=94, time=0),
    Message('note_on', channel=3, note=74, velocity=94, time=0),
    Message('note_off', channel=3, note=71, velocity=64, time=96),
    Message('note_off', channel=3, note=66, velocity=64, time=0),
    Message('note_off', channel=3, note=69, velocity=64, time=0),
    Message('note_off', channel=3, note=74, velocity=64, time=0),
    Message('note_on', channel=3, note=74, velocity=94, time=0),
    Message('note_on', channel=3, note=69, velocity=94, time=0),
    Message('note_on', channel=3, note=66, velocity=94, time=0),
    Message('note_off', channel=3, note=69, velocity=64, time=230),
    Message('note_off', channel=3, note=66, velocity=64, time=0),
    Message('note_off', channel=3, note=74, velocity=64, time=58),
    Message('note_on', channel=3, note=66, velocity=94, time=0),
    Message('note_on', channel=3, note=69, velocity=94, time=0),
    Message('note_on', channel=3, note=74, velocity=94, time=0),
    Message('note_off', channel=3, note=66, velocity=64, time=76),
    Message('note_off', channel=3, note=69, velocity=64, time=0),
    Message('note_off', channel=3, note=74, velocity=64, time=20),
    Message('note_on', channel=3, note=66, velocity=94, time=0),
    Message('note_on', channel=3, note=69, velocity=94, time=0),
    Message('note_on', channel=3, note=74, velocity=94, time=0),
    Message('note_off', channel=3, note=74, velocity=64, time=1),
    Message('note_off', channel=3, note=66, velocity=64, time=75),
    Message('note_off', channel=3, note=69, velocity=64, time=0),
    Message('note_on', channel=3, note=73, velocity=94, time=20),
    Message('note_off', channel=3, note=73, velocity=64, time=76),
    Message('note_on', channel=3, note=73, velocity=94, time=20),
    Message('note_off', channel=3, note=73, velocity=64, time=76),
    Message('note_on', channel=3, note=71, velocity=94, time=20),
    Message('note_off', channel=3, note=71, velocity=64, time=96),
    Message('note_on', channel=3, note=74, velocity=94, time=0),
    Message('note_on', channel=3, note=68, velocity=94, time=0),
    Message('note_off', channel=3, note=68, velocity=64, time=153),
    Message('note_off', channel=3, note=74, velocity=64, time=39),
    Message('note_on', channel=3, note=71, velocity=94, time=0),
    Message('note_on', channel=3, note=68, velocity=94, time=0),
    Message('note_off', channel=3, note=68, velocity=64, time=153),
    Message('note_off', channel=3, note=71, velocity=64, time=135),
    Message('note_on', channel=3, note=71, velocity=94, time=0),
    Message('note_on', channel=3, note=73, velocity=94, time=96),
    Message('note_off', channel=3, note=73, velocity=64, time=76),
    Message('note_on', channel=3, note=74, velocity=94, time=20),
    Message('note_on', channel=3, note=69, velocity=94, time=0),
    Message('note_on', channel=3, note=66, velocity=94, time=0),
    Message('note_off', channel=3, note=71, velocity=64, time=96),
    Message('note_off', channel=3, note=74, velocity=64, time=0),
    Message('note_off', channel=3, note=66, velocity=64, time=0),
    Message('note_off', channel=3, note=69, velocity=64, time=230),
    Message('note_on', channel=3, note=74, velocity=94, time=58),
    Message('note_on', channel=3, note=69, velocity=94, time=0),
    Message('note_off', channel=3, note=69, velocity=64, time=76),
    Message('note_off', channel=3, note=74, velocity=64, time=20),
    Message('note_on', channel=3, note=74, velocity=94, time=0),
    Message('note_on', channel=3, note=69, velocity=94, time=0),
    Message('note_off', channel=3, note=69, velocity=64, time=76),
    Message('note_on', channel=3, note=73, velocity=94, time=20),
    Message('note_off', channel=3, note=73, velocity=64, time=76),
    Message('note_on', channel=3, note=73, velocity=94, time=20),
    Message('note_off', channel=3, note=73, velocity=64, time=76),
    Message('note_on', channel=3, note=71, velocity=94, time=20),
    Message('note_off', channel=3, note=74, velocity=64, time=96),
    Message('note_on', channel=3, note=68, velocity=94, time=0),
    Message('note_off', channel=3, note=71, velocity=64, time=1),
    Message('note_off', channel=3, note=68, velocity=64, time=152),
    Message('note_on', channel=3, note=68, velocity=94, time=39),
    Message('note_on', channel=3, note=71, velocity=94, time=0),
    Message('note_off', channel=3, note=68, velocity=64, time=153),
    Message('note_off', channel=3, note=71, velocity=64, time=135),
    Message('note_on', channel=3, note=71, velocity=94, time=0),
    Message('note_on', channel=3, note=73, velocity=94, time=96),
    Message('note_off', channel=3, note=73, velocity=64, time=76),
    Message('note_on', channel=3, note=74, velocity=94, time=20),
    Message('note_off', channel=3, note=71, velocity=64, time=96),
    Message('note_off', channel=3, note=74, velocity=64, time=0),
    Message('note_on', channel=3, note=66, velocity=94, time=288),
    Message('note_on', channel=3, note=69, velocity=94, time=0),
    Message('note_on', channel=3, note=74, velocity=94, time=0),
    Message('note_off', channel=3, note=66, velocity=64, time=76),
    Message('note_off', channel=3, note=69, velocity=64, time=0),
    Message('note_off', channel=3, note=74, velocity=64, time=20),
    Message('note_on', channel=3, note=66, velocity=94, time=0),
    Message('note_on', channel=3, note=69, velocity=94, time=0),
    Message('note_on', channel=3, note=74, velocity=94, time=0),
    Message('note_off', channel=3, note=66, velocity=64, time=76),
    Message('note_off', channel=3, note=69, velocity=64, time=0),
    Message('note_on', channel=3, note=73, velocity=94, time=20),
    Message('note_off', channel=3, note=73, velocity=64, time=76),
    Message('note_on', channel=3, note=73, velocity=94, time=20),
    Message('note_off', channel=3, note=73, velocity=64, time=76),
    Message('note_on', channel=3, note=71, velocity=94, time=20),
    Message('note_off', channel=3, note=74, velocity=64, time=96),
    Message('note_on', channel=3, note=68, velocity=94, time=0),
    Message('note_off', channel=3, note=71, velocity=64, time=1),
    Message('note_off', channel=3, note=68, velocity=64, time=152),
    Message('note_on', channel=3, note=68, velocity=94, time=39),
    Message('note_on', channel=3, note=71, velocity=94, time=0),
    Message('note_off', channel=3, note=68, velocity=64, time=153),
    Message('note_off', channel=3, note=71, velocity=64, time=135),
    Message('note_on', channel=3, note=71, velocity=94, time=0),
    Message('note_on', channel=3, note=73, velocity=94, time=96),
    Message('note_off', channel=3, note=73, velocity=64, time=76),
    Message('note_on', channel=3, note=74, velocity=94, time=20),
    Message('note_off', channel=3, note=71, velocity=64, time=96),
    Message('note_off', channel=3, note=74, velocity=64, time=288),
    Message('note_on', channel=3, note=66, velocity=94, time=0),
    Message('note_on', channel=3, note=69, velocity=94, time=0),
    Message('note_on', channel=3, note=74, velocity=94, time=0),
    Message('note_off', channel=3, note=66, velocity=64, time=76),
    Message('note_off', channel=3, note=69, velocity=64, time=0),
    Message('note_off', channel=3, note=74, velocity=64, time=20),
    Message('note_on', channel=3, note=66, velocity=94, time=0),
    Message('note_on', channel=3, note=69, velocity=94, time=0),
    Message('note_on', channel=3, note=74, velocity=94, time=0),
    Message('note_off', channel=3, note=66, velocity=64, time=76),
    Message('note_off', channel=3, note=69, velocity=64, time=0),
    Message('note_off', channel=3, note=74, velocity=64, time=20),
    Message('note_on', channel=3, note=73, velocity=94, time=0),
    Message('note_off', channel=3, note=73, velocity=64, time=76),
    Message('note_on', channel=3, note=73, velocity=94, time=20),
    Message('note_off', channel=3, note=73, velocity=64, time=76),
    Message('note_on', channel=3, note=71, velocity=94, time=20),
    Message('note_on', channel=3, note=68, velocity=94, time=96),
    Message('note_off', channel=3, note=71, velocity=64, time=1),
    Message('note_off', channel=3, note=68, velocity=64, time=152),
    Message('note_on', channel=3, note=68, velocity=94, time=39),
    Message('note_on', channel=3, note=71, velocity=94, time=0),
    Message('note_off', channel=3, note=68, velocity=64, time=153),
    Message('note_off', channel=3, note=71, velocity=64, time=135),
    Message('note_on', channel=3, note=71, velocity=94, time=0),
    Message('note_on', channel=3, note=73, velocity=94, time=96),
    Message('note_off', channel=3, note=73, velocity=64, time=76),
    Message('note_on', channel=3, note=74, velocity=94, time=20),
    Message('note_off', channel=3, note=71, velocity=64, time=96),
    Message('note_off', channel=3, note=74, velocity=64, time=288),
    Message('note_on', channel=3, note=66, velocity=94, time=0),
    Message('note_on', channel=3, note=69, velocity=94, time=0),
    Message('note_on', channel=3, note=74, velocity=94, time=0),
    Message('note_off', channel=3, note=66, velocity=64, time=76),
    Message('note_off', channel=3, note=69, velocity=64, time=0),
    Message('note_off', channel=3, note=74, velocity=64, time=20),
    Message('note_on', channel=3, note=66, velocity=94, time=0),
    Message('note_on', channel=3, note=69, velocity=94, time=0),
    Message('note_on', channel=3, note=74, velocity=94, time=0),
    Message('note_off', channel=3, note=66, velocity=64, time=76),
    Message('note_off', channel=3, note=69, velocity=64, time=0),
    Message('note_on', channel=3, note=73, velocity=94, time=20),
    Message('note_off', channel=3, note=73, velocity=64, time=76),
    Message('note_on', channel=3, note=73, velocity=94, time=20),
    Message('note_off', channel=3, note=73, velocity=64, time=76),
    Message('note_on', channel=3, note=71, velocity=94, time=20),
    Message('note_on', channel=3, note=68, velocity=94, time=96),
    Message('note_off', channel=3, note=71, velocity=64, time=1),
    Message('note_off', channel=3, note=68, velocity=64, time=152),
    Message('note_on', channel=3, note=68, velocity=94, time=39),
    Message('note_on', channel=3, note=71, velocity=94, time=0),
    Message('note_off', channel=3, note=68, velocity=64, time=153),
    Message('note_off', channel=3, note=71, velocity=64, time=135),
    Message('note_on', channel=3, note=71, velocity=94, time=0),
    Message('note_on', channel=3, note=73, velocity=94, time=96),
    Message('note_off', channel=3, note=73, velocity=64, time=76),
    Message('note_off', channel=3, note=74, velocity=64, time=20),
    Message('note_on', channel=3, note=74, velocity=94, time=0),
    Message('note_off', channel=3, note=71, velocity=64, time=96),
    Message('note_off', channel=3, note=74, velocity=64, time=0),
    Message('note_on', channel=3, note=66, velocity=94, time=288),
    Message('note_on', channel=3, note=69, velocity=94, time=0),
    Message('note_on', channel=3, note=74, velocity=94, time=0),
    Message('note_off', channel=3, note=66, velocity=64, time=76),
    Message('note_off', channel=3, note=69, velocity=64, time=0),
    Message('note_off', channel=3, note=74, velocity=64, time=20),
    Message('note_on', channel=3, note=66, velocity=94, time=0),
    Message('note_on', channel=3, note=69, velocity=94, time=0),
    Message('note_on', channel=3, note=74, velocity=94, time=0),
    Message('note_off', channel=3, note=66, velocity=64, time=76),
    Message('note_off', channel=3, note=69, velocity=64, time=0),
    Message('note_off', channel=3, note=74, velocity=64, time=20),
    Message('note_on', channel=3, note=73, velocity=94, time=0),
    Message('note_off', channel=3, note=73, velocity=64, time=76),
    Message('note_on', channel=3, note=73, velocity=94, time=20),
    Message('note_off', channel=3, note=73, velocity=64, time=76),
    Message('note_on', channel=3, note=71, velocity=94, time=20),
    Message('note_on', channel=3, note=68, velocity=94, time=96),
    Message('note_off', channel=3, note=71, velocity=64, time=1),
    Message('note_off', channel=3, note=68, velocity=64, time=152),
    Message('note_on', channel=3, note=68, velocity=94, time=39),
    Message('note_on', channel=3, note=71, velocity=94, time=0),
    Message('note_off', channel=3, note=68, velocity=64, time=153),
    Message('note_off', channel=3, note=71, velocity=64, time=135),
    Message('note_on', channel=3, note=71, velocity=94, time=0),
    Message('note_on', channel=3, note=73, velocity=94, time=96),
    Message('note_off', channel=3, note=73, velocity=64, time=76),
    Message('note_on', channel=3, note=74, velocity=94, time=20),
    Message('note_off', channel=3, note=71, velocity=64, time=96),
    Message('note_off', channel=3, note=74, velocity=64, time=48),
    Message('note_on', channel=3, note=66, velocity=94, time=240),
    Message('note_on', channel=3, note=69, velocity=94, time=0),
    Message('note_on', channel=3, note=74, velocity=94, time=0),
    Message('note_off', channel=3, note=66, velocity=64, time=76),
    Message('note_off', channel=3, note=69, velocity=64, time=0),
    Message('note_off', channel=3, note=74, velocity=64, time=20),
    Message('note_on', channel=3, note=66, velocity=94, time=0),
    Message('note_on', channel=3, note=69, velocity=94, time=0),
    Message('note_on', channel=3, note=74, velocity=94, time=0),
    Message('note_off', channel=3, note=66, velocity=64, time=76),
    Message('note_off', channel=3, note=69, velocity=64, time=0),
    Message('note_on', channel=3, note=73, velocity=94, time=20),
    Message('note_off', channel=3, note=73, velocity=64, time=76),
    Message('note_on', channel=3, note=73, velocity=94, time=20),
    Message('note_off', channel=3, note=73, velocity=64, time=76),
    Message('note_on', channel=3, note=71, velocity=94, time=20),
    Message('note_off', channel=3, note=74, velocity=64, time=96),
    Message('note_on', channel=3, note=68, velocity=94, time=0),
    Message('note_off', channel=3, note=71, velocity=64, time=1),
    Message('note_off', channel=3, note=68, velocity=64, time=152),
    Message('note_on', channel=3, note=68, velocity=94, time=39),
    Message('note_on', channel=3, note=71, velocity=94, time=0),
    Message('note_off', channel=3, note=68, velocity=64, time=153),
    Message('note_off', channel=3, note=71, velocity=64, time=135),
    Message('note_on', channel=3, note=71, velocity=94, time=0),
    Message('note_on', channel=3, note=73, velocity=94, time=96),
    Message('note_off', channel=3, note=73, velocity=64, time=76),
    Message('note_on', channel=3, note=74, velocity=94, time=20),
    Message('note_off', channel=3, note=71, velocity=64, time=96),
    Message('note_off', channel=3, note=74, velocity=64, time=0),
    Message('note_on', channel=3, note=66, velocity=94, time=288),
    Message('note_on', channel=3, note=69, velocity=94, time=0),
    Message('note_on', channel=3, note=74, velocity=94, time=0),
    Message('note_off', channel=3, note=66, velocity=64, time=76),
    Message('note_off', channel=3, note=69, velocity=64, time=0),
    Message('note_off', channel=3, note=74, velocity=64, time=20),
    Message('note_on', channel=3, note=66, velocity=94, time=0),
    Message('note_on', channel=3, note=69, velocity=94, time=0),
    Message('note_on', channel=3, note=74, velocity=94, time=0),
    Message('note_off', channel=3, note=66, velocity=64, time=76),
    Message('note_off', channel=3, note=69, velocity=64, time=0),
    Message('note_on', channel=3, note=73, velocity=94, time=20),
    Message('note_off', channel=3, note=73, velocity=64, time=76),
    Message('note_on', channel=3, note=73, velocity=94, time=20),
    Message('note_off', channel=3, note=73, velocity=64, time=76),
    Message('note_on', channel=3, note=71, velocity=94, time=20),
    Message('note_off', channel=3, note=74, velocity=64, time=96),
    Message('note_on', channel=3, note=68, velocity=94, time=0),
    Message('note_off', channel=3, note=71, velocity=64, time=1),
    Message('note_off', channel=3, note=68, velocity=64, time=152),
    Message('note_on', channel=3, note=68, velocity=94, time=1383),
    Message('note_off', channel=3, note=68, velocity=64, time=153),
    Message('note_on', channel=3, note=68, velocity=94, time=39),
    Message('note_on', channel=3, note=71, velocity=94, time=0),
    Message('note_off', channel=3, note=68, velocity=64, time=153),
    Message('note_off', channel=3, note=71, velocity=64, time=135),
    Message('note_on', channel=3, note=71, velocity=94, time=0),
    Message('note_on', channel=3, note=73, velocity=94, time=96),
    Message('note_off', channel=3, note=73, velocity=64, time=76),
    Message('note_on', channel=3, note=66, velocity=94, time=20),
    Message('note_on', channel=3, note=69, velocity=94, time=0),
    Message('note_on', channel=3, note=74, velocity=94, time=0),
    Message('note_off', channel=3, note=71, velocity=64, time=96),
    Message('note_off', channel=3, note=74, velocity=64, time=0),
    Message('note_off', channel=3, note=69, velocity=64, time=230),
    Message('note_off', channel=3, note=66, velocity=64, time=0),
    Message('note_on', channel=3, note=66, velocity=94, time=58),
    Message('note_on', channel=3, note=69, velocity=94, time=0),
    Message('note_on', channel=3, note=74, velocity=94, time=0),
    Message('note_off', channel=3, note=66, velocity=64, time=76),
    Message('note_off', channel=3, note=69, velocity=64, time=0),
    Message('note_off', channel=3, note=74, velocity=64, time=20),
    Message('note_on', channel=3, note=66, velocity=94, time=0),
    Message('note_on', channel=3, note=69, velocity=94, time=0),
    Message('note_on', channel=3, note=74, velocity=94, time=0),
    Message('note_off', channel=3, note=66, velocity=64, time=76),
    Message('note_off', channel=3, note=69, velocity=64, time=0),
    Message('note_off', channel=3, note=74, velocity=64, time=20),
    Message('note_on', channel=3, note=73, velocity=94, time=0),
    Message('note_off', channel=3, note=73, velocity=64, time=76),
    Message('note_on', channel=3, note=73, velocity=94, time=20),
    Message('note_off', channel=3, note=73, velocity=64, time=76),
    Message('note_on', channel=3, note=71, velocity=94, time=20),
    Message('note_on', channel=3, note=68, velocity=94, time=96),
    Message('note_off', channel=3, note=71, velocity=64, time=1),
    Message('note_off', channel=3, note=68, velocity=64, time=152),
    Message('note_on', channel=3, note=68, velocity=94, time=39),
    Message('note_on', channel=3, note=71, velocity=94, time=0),
    Message('note_off', channel=3, note=68, velocity=64, time=153),
    Message('note_off', channel=3, note=71, velocity=64, time=135),
    Message('note_on', channel=3, note=71, velocity=94, time=0),
    Message('note_on', channel=3, note=73, velocity=94, time=96),
    Message('note_off', channel=3, note=73, velocity=64, time=76),
    Message('note_on', channel=3, note=66, velocity=94, time=20),
    Message('note_on', channel=3, note=69, velocity=94, time=0),
    Message('note_on', channel=3, note=74, velocity=94, time=0),
    Message('note_off', channel=3, note=69, velocity=64, time=76),
    Message('note_off', channel=3, note=71, velocity=64, time=21),
    Message('note_off', channel=3, note=66, velocity=64, time=229),
    Message('note_off', channel=3, note=74, velocity=64, time=58),
    Message('note_on', channel=3, note=74, velocity=94, time=0),
    Message('note_on', channel=3, note=69, velocity=94, time=0),
    Message('note_on', channel=3, note=66, velocity=94, time=0),
    Message('note_off', channel=3, note=69, velocity=64, time=76),
    Message('note_off', channel=3, note=66, velocity=64, time=0),
    Message('note_off', channel=3, note=74, velocity=64, time=20),
    Message('note_on', channel=3, note=74, velocity=94, time=0),
    Message('note_on', channel=3, note=69, velocity=94, time=0),
    Message('note_on', channel=3, note=66, velocity=94, time=0),
    Message('note_off', channel=3, note=69, velocity=64, time=76),
    Message('note_off', channel=3, note=66, velocity=64, time=0),
    Message('note_on', channel=3, note=73, velocity=94, time=20),
    Message('note_off', channel=3, note=73, velocity=64, time=76),
    Message('note_on', channel=3, note=73, velocity=94, time=20),
    Message('note_off', channel=3, note=73, velocity=64, time=76),
    Message('note_on', channel=3, note=71, velocity=94, time=20),
    Message('note_off', channel=3, note=74, velocity=65, time=76),
    Message('note_off', channel=3, note=71, velocity=65, time=0),
    Message('control_change', channel=3, control=7, value=107, time=20),
    Message('note_on', channel=3, note=76, velocity=94, time=192),
    Message('note_off', channel=3, note=76, velocity=64, time=883),
    Message('note_on', channel=3, note=71, velocity=94, time=173),
    Message('note_on', channel=3, note=73, velocity=94, time=96),
    Message('note_off', channel=3, note=73, velocity=64, time=76),
    Message('note_off', channel=3, note=71, velocity=64, time=20),
    Message('note_on', channel=3, note=71, velocity=94, time=0),
    Message('note_off', channel=3, note=71, velocity=64, time=96),
    Message('note_on', channel=3, note=76, velocity=94, time=0),
    Message('note_off', channel=3, note=76, velocity=64, time=153),
    Message('note_on', channel=3, note=76, velocity=94, time=231),
    Message('note_off', channel=3, note=76, velocity=64, time=76),
    Message('note_on', channel=3, note=76, velocity=94, time=20),
    Message('note_off', channel=3, note=76, velocity=64, time=76),
    Message('note_on', channel=3, note=76, velocity=94, time=20),
    Message('note_off', channel=3, note=76, velocity=64, time=180),
    Message('note_on', channel=3, note=76, velocity=94, time=12),
    Message('note_off', channel=3, note=76, velocity=64, time=460),
    Message('note_on', channel=3, note=76, velocity=94, time=116),
    Message('note_off', channel=3, note=76, velocity=64, time=76),
    Message('note_on', channel=3, note=73, velocity=94, time=20),
    Message('note_off', channel=3, note=73, velocity=64, time=76),
    Message('note_on', channel=3, note=76, velocity=94, time=20),
    Message('note_off', channel=3, note=76, velocity=64, time=153),
    Message('note_on', channel=3, note=71, velocity=94, time=39),
    Message('note_off', channel=3, note=71, velocity=64, time=96),
    Message('note_on', channel=3, note=71, velocity=94, time=0),
    Message('note_off', channel=3, note=71, velocity=64, time=192),
    Message('note_on', channel=3, note=71, velocity=94, time=0),
    Message('note_off', channel=3, note=71, velocity=64, time=96),
    Message('note_on', channel=3, note=71, velocity=94, time=384),
    Message('note_off', channel=3, note=71, velocity=64, time=192),
    Message('note_on', channel=3, note=71, velocity=94, time=0),
    Message('note_off', channel=3, note=71, velocity=64, time=96),
    Message('note_on', channel=3, note=71, velocity=94, time=0),
    Message('note_on', channel=3, note=73, velocity=94, time=96),
    Message('note_off', channel=3, note=73, velocity=64, time=76),
    Message('note_off', channel=3, note=71, velocity=64, time=20),
    Message('note_on', channel=3, note=71, velocity=94, time=0),
    Message('note_on', channel=3, note=70, velocity=94, time=48),
    Message('note_off', channel=3, note=70, velocity=64, time=38),
    Message('note_off', channel=3, note=71, velocity=64, time=10),
    Message('note_on', channel=3, note=73, velocity=94, time=192),
    Message('note_on', channel=3, note=76, velocity=94, time=0),
    Message('note_off', channel=3, note=73, velocity=64, time=282),
    Message('note_off', channel=3, note=76, velocity=64, time=0),
    Message('note_on', channel=3, note=76, velocity=94, time=6),
    Message('note_on', channel=3, note=73, velocity=94, time=0),
    Message('note_off', channel=3, note=76, velocity=64, time=90),
    Message('note_off', channel=3, note=73, velocity=64, time=0),
    Message('note_on', channel=3, note=76, velocity=94, time=6),
    Message('note_on', channel=3, note=73, velocity=94, time=0),
    Message('note_off', channel=3, note=76, velocity=64, time=153),
    Message('note_off', channel=3, note=73, velocity=64, time=0),
    Message('note_on', channel=3, note=73, velocity=94, time=231),
    Message('note_off', channel=3, note=73, velocity=64, time=76),
    Message('note_on', channel=3, note=71, velocity=94, time=20),
    Message('note_off', channel=3, note=71, velocity=64, time=672),
    Message('note_on', channel=3, note=71, velocity=94, time=0),
    Message('note_off', channel=3, note=71, velocity=64, time=192),
    Message('note_on', channel=3, note=71, velocity=94, time=0),
    Message('note_off', channel=3, note=71, velocity=64, time=96),
    Message('note_on', channel=3, note=71, velocity=94, time=0),
    Message('note_off', channel=3, note=71, velocity=64, time=96),
    Message('note_on', channel=3, note=71, velocity=94, time=0),
    Message('note_off', channel=3, note=71, velocity=64, time=288),
    Message('note_on', channel=3, note=73, velocity=94, time=96),
    Message('note_off', channel=3, note=73, velocity=64, time=76),
    Message('note_on', channel=3, note=76, velocity=94, time=20),
    Message('note_off', channel=3, note=76, velocity=64, time=76),
    Message('note_on', channel=3, note=78, velocity=94, time=20),
    Message('note_off', channel=3, note=78, velocity=64, time=38),
    Message('note_on', channel=3, note=76, velocity=94, time=10),
    Message('note_off', channel=3, note=76, velocity=64, time=38),
    Message('note_on', channel=3, note=73, velocity=94, time=10),
    Message('note_off', channel=3, note=73, velocity=64, time=76),
    Message('note_on', channel=3, note=76, velocity=94, time=20),
    Message('note_off', channel=3, note=76, velocity=64, time=76),
    Message('note_on', channel=3, note=78, velocity=94, time=20),
    Message('note_off', channel=3, note=78, velocity=64, time=38),
    Message('note_on', channel=3, note=73, velocity=94, time=10),
    Message('note_off', channel=3, note=73, velocity=64, time=38),
    Message('note_on', channel=3, note=76, velocity=94, time=10),
    Message('note_off', channel=3, note=76, velocity=64, time=153),
    Message('note_on', channel=3, note=71, velocity=94, time=39),
    Message('note_off', channel=3, note=71, velocity=64, time=288),
    Message('note_on', channel=3, note=71, velocity=94, time=0),
    Message('note_off', channel=3, note=71, velocity=64, time=288),
    Message('note_on', channel=3, note=73, velocity=94, time=0),
    Message('note_off', channel=3, note=73, velocity=64, time=153),
    Message('note_on', channel=3, note=73, velocity=94, time=39),
    Message('note_off', channel=3, note=73, velocity=64, time=76),
    Message('note_on', channel=3, note=73, velocity=94, time=20),
    Message('note_off', channel=3, note=73, velocity=64, time=76),
    Message('note_on', channel=3, note=74, velocity=94, time=20),
    Message('note_off', channel=3, note=74, velocity=64, time=96),
    Message('note_on', channel=3, note=73, velocity=94, time=0),
    Message('note_off', channel=3, note=73, velocity=64, time=240),
    Message('note_on', channel=3, note=71, velocity=94, time=240),
    Message('note_off', channel=3, note=71, velocity=64, time=288),
    Message('note_on', channel=3, note=71, velocity=94, time=0),
    Message('note_on', channel=3, note=73, velocity=94, time=96),
    Message('note_off', channel=3, note=73, velocity=64, time=76),
    Message('note_on', channel=3, note=74, velocity=94, time=20),
    Message('note_off', channel=3, note=71, velocity=64, time=96),
    Message('note_off', channel=3, note=74, velocity=64, time=0),
    Message('note_on', channel=3, note=71, velocity=94, time=0),
    Message('note_off', channel=3, note=71, velocity=64, time=230),
    Message('note_on', channel=3, note=74, velocity=94, time=58),
    Message('note_off', channel=3, note=74, velocity=64, time=96),
    Message('note_on', channel=3, note=74, velocity=94, time=0),
    Message('note_off', channel=3, note=74, velocity=64, time=96),
    Message('note_on', channel=3, note=73, velocity=94, time=0),
    Message('note_off', channel=3, note=73, velocity=64, time=76),
    Message('note_on', channel=3, note=73, velocity=94, time=20),
    Message('note_off', channel=3, note=73, velocity=64, time=76),
    Message('note_on', channel=3, note=71, velocity=94, time=20),
    Message('note_off', channel=3, note=71, velocity=64, time=76),
    Message('note_on', channel=3, note=71, velocity=94, time=20),
    Message('note_off', channel=3, note=71, velocity=64, time=153),
    Message('note_on', channel=3, note=71, velocity=94, time=39),
    Message('note_off', channel=3, note=71, velocity=64, time=153),
    Message('note_on', channel=3, note=71, velocity=94, time=135),
    Message('note_off', channel=3, note=71, velocity=64, time=76),
    Message('note_on', channel=3, note=73, velocity=94, time=20),
    Message('note_off', channel=3, note=73, velocity=64, time=76),
    Message('note_on', channel=3, note=74, velocity=94, time=20),
    Message('note_off', channel=3, note=74, velocity=64, time=96),
    Message('note_on', channel=3, note=71, velocity=94, time=0),
    Message('note_off', channel=3, note=71, velocity=64, time=230),
    Message('note_on', channel=3, note=74, velocity=94, time=58),
    Message('note_off', channel=3, note=74, velocity=64, time=96),
    Message('note_on', channel=3, note=74, velocity=94, time=0),
    Message('note_off', channel=3, note=74, velocity=64, time=96),
    Message('note_on', channel=3, note=73, velocity=94, time=0),
    Message('note_off', channel=3, note=73, velocity=64, time=76),
    Message('note_on', channel=3, note=73, velocity=94, time=20),
    Message('note_off', channel=3, note=73, velocity=64, time=76),
    Message('note_on', channel=3, note=71, velocity=94, time=20),
    Message('note_off', channel=3, note=71, velocity=64, time=76),
    Message('note_on', channel=3, note=71, velocity=94, time=20),
    Message('note_off', channel=3, note=71, velocity=64, time=153),
    Message('note_on', channel=3, note=71, velocity=94, time=39),
    Message('note_off', channel=3, note=71, velocity=64, time=153),
    Message('note_on', channel=3, note=71, velocity=94, time=135),
    Message('note_off', channel=3, note=71, velocity=64, time=76),
    Message('note_on', channel=3, note=73, velocity=94, time=20),
    Message('note_off', channel=3, note=73, velocity=64, time=76),
    Message('note_on', channel=3, note=74, velocity=94, time=20),
    Message('note_off', channel=3, note=74, velocity=64, time=96),
    Message('note_on', channel=3, note=71, velocity=94, time=0),
    Message('note_off', channel=3, note=71, velocity=64, time=230),
    Message('note_on', channel=3, note=74, velocity=94, time=58),
    Message('note_off', channel=3, note=74, velocity=64, time=96),
    Message('note_on', channel=3, note=74, velocity=94, time=0),
    Message('note_off', channel=3, note=74, velocity=64, time=96),
    Message('note_on', channel=3, note=73, velocity=94, time=0),
    Message('note_off', channel=3, note=73, velocity=64, time=76),
    Message('note_on', channel=3, note=73, velocity=94, time=20),
    Message('note_off', channel=3, note=73, velocity=64, time=76),
    Message('note_on', channel=3, note=71, velocity=94, time=20),
    Message('note_off', channel=3, note=71, velocity=64, time=76),
    Message('note_on', channel=3, note=71, velocity=89, time=20),
    Message('note_off', channel=3, note=71, velocity=64, time=153),
    Message('note_on', channel=3, note=71, velocity=89, time=39),
    Message('note_off', channel=3, note=71, velocity=64, time=153),
    Message('note_on', channel=3, note=71, velocity=89, time=135),
    Message('note_off', channel=3, note=71, velocity=64, time=76),
    Message('note_on', channel=3, note=73, velocity=89, time=20),
    Message('note_off', channel=3, note=73, velocity=64, time=76),
    Message('note_on', channel=3, note=74, velocity=89, time=20),
    Message('note_off', channel=3, note=74, velocity=64, time=96),
    Message('note_on', channel=3, note=71, velocity=94, time=0),
    Message('note_off', channel=3, note=71, velocity=64, time=230),
    Message('note_on', channel=3, note=74, velocity=94, time=58),
    Message('note_off', channel=3, note=74, velocity=64, time=96),
    Message('note_on', channel=3, note=74, velocity=94, time=0),
    Message('note_off', channel=3, note=74, velocity=64, time=96),
    Message('note_on', channel=3, note=73, velocity=94, time=0),
    Message('note_off', channel=3, note=73, velocity=64, time=76),
    Message('note_on', channel=3, note=73, velocity=94, time=20),
    Message('note_off', channel=3, note=73, velocity=64, time=76),
    Message('note_on', channel=3, note=71, velocity=94, time=20),
    Message('note_off', channel=3, note=71, velocity=64, time=76),
    Message('control_change', channel=3, control=7, value=106, time=20),
    Message('note_on', channel=3, note=71, velocity=94, time=0),
    Message('control_change', channel=3, control=7, value=105, time=48),
    Message('control_change', channel=3, control=7, value=104, time=48),
    Message('control_change', channel=3, control=7, value=103, time=24),
    Message('note_off', channel=3, note=71, velocity=64, time=33),
    Message('control_change', channel=3, control=7, value=102, time=15),
    Message('control_change', channel=3, control=7, value=101, time=48),
    Message('control_change', channel=3, control=7, value=100, time=24),
    Message('control_change', channel=3, control=7, value=99, time=48),
    Message('control_change', channel=3, control=7, value=98, time=24),
    Message('control_change', channel=3, control=7, value=97, time=48),
    Message('control_change', channel=3, control=7, value=96, time=48),
    Message('control_change', channel=3, control=7, value=95, time=24),
    Message('control_change', channel=3, control=7, value=94, time=48),
    Message('note_on', channel=3, note=71, velocity=94, time=0),
    Message('control_change', channel=3, control=7, value=93, time=48),
    Message('control_change', channel=3, control=7, value=92, time=24),
    Message('note_off', channel=3, note=71, velocity=64, time=4),
    Message('note_on', channel=3, note=73, velocity=94, time=20),
    Message('control_change', channel=3, control=7, value=91, time=24),
    Message('control_change', channel=3, control=7, value=90, time=24),
    Message('note_off', channel=3, note=73, velocity=64, time=28),
    Message('control_change', channel=3, control=7, value=89, time=20),
    Message('note_on', channel=3, note=74, velocity=94, time=0),
    Message('control_change', channel=3, control=7, value=88, time=48),
    Message('control_change', channel=3, control=7, value=87, time=24),
    Message('note_off', channel=3, note=74, velocity=64, time=24),
    Message('note_on', channel=3, note=71, velocity=94, time=0),
    Message('control_change', channel=3, control=7, value=86, time=24),
    Message('control_change', channel=3, control=7, value=85, time=24),
    Message('control_change', channel=3, control=7, value=84, time=48),
    Message('control_change', channel=3, control=7, value=83, time=48),
    Message('control_change', channel=3, control=7, value=82, time=24),
    Message('control_change', channel=3, control=7, value=81, time=48),
    Message('note_off', channel=3, note=71, velocity=64, time=14),
    Message('control_change', channel=3, control=7, value=80, time=34),
    Message('control_change', channel=3, control=7, value=79, time=24),
    Message('note_on', channel=3, note=74, velocity=94, time=0),
    Message('control_change', channel=3, control=7, value=78, time=48),
    Message('control_change', channel=3, control=7, value=77, time=24),
    Message('note_off', channel=3, note=74, velocity=64, time=24),
    Message('note_on', channel=3, note=74, velocity=94, time=0),
    Message('control_change', channel=3, control=7, value=76, time=24),
    Message('control_change', channel=3, control=7, value=75, time=48),
    Message('note_off', channel=3, note=74, velocity=64, time=24),
    Message('control_change', channel=3, control=7, value=74, time=0),
    Message('note_on', channel=3, note=73, velocity=94, time=0),
    Message('control_change', channel=3, control=7, value=73, time=48),
    Message('control_change', channel=3, control=7, value=72, time=24),
    Message('note_off', channel=3, note=73, velocity=64, time=4),
    Message('note_on', channel=3, note=73, velocity=94, time=20),
    Message('control_change', channel=3, control=7, value=71, time=24),
    Message('control_change', channel=3, control=7, value=70, time=48),
    Message('note_off', channel=3, note=73, velocity=64, time=4),
    Message('control_change', channel=3, control=7, value=69, time=20),
    Message('note_on', channel=3, note=71, velocity=94, time=0),
    Message('control_change', channel=3, control=7, value=68, time=48),
    Message('note_off', channel=3, note=71, velocity=64, time=28),
    Message('control_change', channel=3, control=7, value=67, time=20),
    Message('note_on', channel=3, note=71, velocity=94, time=0),
    Message('control_change', channel=3, control=7, value=66, time=24),
    Message('control_change', channel=3, control=7, value=65, time=48),
    Message('control_change', channel=3, control=7, value=64, time=24),
    Message('control_change', channel=3, control=7, value=63, time=48),
    Message('note_off', channel=3, note=71, velocity=64, time=9),
    Message('control_change', channel=3, control=7, value=62, time=39),
    Message('note_on', channel=3, note=71, velocity=94, time=0),
    Message('control_change', channel=3, control=7, value=61, time=24),
    Message('control_change', channel=3, control=7, value=60, time=48),
    Message('control_change', channel=3, control=7, value=59, time=24),
    Message('control_change', channel=3, control=7, value=58, time=48),
    Message('note_off', channel=3, note=71, velocity=64, time=9),
    Message('control_change', channel=3, control=7, value=57, time=39),
    Message('control_change', channel=3, control=7, value=56, time=24),
    Message('control_change', channel=3, control=7, value=55, time=48),
    Message('note_on', channel=3, note=71, velocity=94, time=24),
    Message('control_change', channel=3, control=7, value=54, time=24),
    Message('control_change', channel=3, control=7, value=53, time=24),
    Message('note_off', channel=3, note=71, velocity=64, time=28),
    Message('control_change', channel=3, control=7, value=52, time=20),
    Message('note_on', channel=3, note=73, velocity=94, time=0),
    Message('control_change', channel=3, control=7, value=51, time=24),
    Message('control_change', channel=3, control=7, value=50, time=48),
    Message('note_off', channel=3, note=73, velocity=64, time=4),
    Message('note_on', channel=3, note=74, velocity=94, time=20),
    Message('control_change', channel=3, control=7, value=49, time=24),
    Message('control_change', channel=3, control=7, value=48, time=24),
    Message('note_off', channel=3, note=74, velocity=64, time=48),
    Message('control_change', channel=3, control=7, value=47, time=0),
    Message('control_change', channel=3, control=7, value=46, time=24),
    Message('control_change', channel=3, control=7, value=45, time=48),
    Message('control_change', channel=3, control=7, value=44, time=48),
    Message('control_change', channel=3, control=7, value=43, time=24),
    Message('control_change', channel=3, control=7, value=42, time=48),
    Message('control_change', channel=3, control=7, value=41, time=48),
    Message('control_change', channel=3, control=7, value=40, time=24),
    Message('note_on', channel=3, note=74, velocity=94, time=24),
    Message('control_change', channel=3, control=7, value=39, time=24),
    Message('control_change', channel=3, control=7, value=38, time=24),
    Message('note_off', channel=3, note=74, velocity=64, time=48),
    Message('control_change', channel=3, control=7, value=37, time=0),
    Message('note_on', channel=3, note=74, velocity=94, time=0),
    Message('control_change', channel=3, control=7, value=36, time=48),
    Message('control_change', channel=3, control=7, value=35, time=24),
    Message('note_off', channel=3, note=74, velocity=64, time=24),
    Message('note_on', channel=3, note=73, velocity=94, time=0),
    Message('control_change', channel=3, control=7, value=34, time=24),
    Message('control_change', channel=3, control=7, value=33, time=24),
    Message('note_off', channel=3, note=73, velocity=64, time=28),
    Message('control_change', channel=3, control=7, value=32, time=20),
    Message('note_on', channel=3, note=73, velocity=94, time=0),
    Message('control_change', channel=3, control=7, value=31, time=48),
    Message('control_change', channel=3, control=7, value=30, time=24),
    Message('note_off', channel=3, note=73, velocity=64, time=4),
    Message('note_on', channel=3, note=71, velocity=94, time=20),
    Message('control_change', channel=3, control=7, value=29, time=24),
    Message('control_change', channel=3, control=7, value=28, time=48),
    Message('note_off', channel=3, note=71, velocity=64, time=4),
    Message('control_change', channel=3, control=7, value=27, time=20),
    Message('note_on', channel=3, note=71, velocity=94, time=0),
    Message('control_change', channel=3, control=7, value=26, time=48),
    Message('control_change', channel=3, control=7, value=25, time=24),
    Message('control_change', channel=3, control=7, value=24, time=48),
    Message('note_off', channel=3, note=71, velocity=64, time=33),
    Message('control_change', channel=3, control=7, value=23, time=15),
    Message('control_change', channel=3, control=7, value=22, time=24),
    Message('note_on', channel=3, note=71, velocity=94, time=0),
    Message('control_change', channel=3, control=7, value=21, time=48),
    Message('control_change', channel=3, control=7, value=20, time=24),
    Message('control_change', channel=3, control=7, value=19, time=48),
    Message('note_off', channel=3, note=71, velocity=64, time=33),
    Message('control_change', channel=3, control=7, value=18, time=15),
    Message('control_change', channel=3, control=7, value=17, time=24),
    Message('control_change', channel=3, control=7, value=16, time=48),
    Message('control_change', channel=3, control=7, value=15, time=48),
    Message('note_on', channel=3, note=71, velocity=94, time=0),
    Message('control_change', channel=3, control=7, value=14, time=24),
    Message('control_change', channel=3, control=7, value=13, time=48),
    Message('note_off', channel=3, note=71, velocity=64, time=4),
    Message('control_change', channel=3, control=7, value=12, time=20),
    Message('note_on', channel=3, note=73, velocity=94, time=0),
    Message('control_change', channel=3, control=7, value=11, time=48),
    Message('note_off', channel=3, note=73, velocity=64, time=28),
    Message('control_change', channel=3, control=7, value=10, time=20),
    Message('note_on', channel=3, note=74, velocity=94, time=0),
    Message('control_change', channel=3, control=7, value=9, time=24),
    Message('control_change', channel=3, control=7, value=8, time=48),
    Message('note_off', channel=3, note=74, velocity=64, time=24),
    Message('control_change', channel=3, control=7, value=0, time=0),
    Message('note_on', channel=3, note=71, velocity=94, time=0),
    Message('control_change', channel=3, control=7, value=0, time=96),
    Message('control_change', channel=3, control=7, value=0, time=72),
    Message('note_off', channel=3, note=71, velocity=64, time=62),
    Message('control_change', channel=3, control=7, value=0, time=10),
    Message('note_on', channel=3, note=74, velocity=94, time=48),
    Message('control_change', channel=3, control=7, value=0, time=24),
    Message('note_off', channel=3, note=74, velocity=64, time=72),
    Message('control_change', channel=3, control=7, value=0, time=0),
    Message('note_on', channel=3, note=74, velocity=94, time=0),
    Message('note_off', channel=3, note=74, velocity=64, time=96),
    Message('control_change', channel=3, control=7, value=0, time=0),
    Message('note_on', channel=3, note=73, velocity=94, time=0),
    Message('control_change', channel=3, control=7, value=0, time=72),
    Message('note_off', channel=3, note=73, velocity=64, time=4),
    Message('note_on', channel=3, note=73, velocity=94, time=20),
    Message('control_change', channel=3, control=7, value=0, time=48),
    Message('note_off', channel=3, note=73, velocity=64, time=28),
    Message('note_on', channel=3, note=71, velocity=94, time=20),
    Message('control_change', channel=3, control=7, value=0, time=24),
    Message('note_off', channel=3, note=71, velocity=64, time=52),
    Message('control_change', channel=3, control=7, value=0, time=20),
    Message('note_on', channel=3, note=71, velocity=94, time=0),
    Message('control_change', channel=3, control=7, value=0, time=96),
    Message('note_off', channel=3, note=71, velocity=64, time=57),
    Message('control_change', channel=3, control=7, value=0, time=15),
    Message('note_on', channel=3, note=71, velocity=94, time=24),
    Message('control_change', channel=3, control=7, value=0, time=48),
    Message('control_change', channel=3, control=7, value=0, time=72),
    Message('note_off', channel=3, note=71, velocity=64, time=33),
    Message('control_change', channel=3, control=7, value=0, time=39),
    Message('control_change', channel=3, control=7, value=0, time=96),
    Message('note_on', channel=3, note=71, velocity=94, time=0),
    Message('control_change', channel=3, control=7, value=0, time=72),
    Message('note_off', channel=3, note=71, velocity=64, time=4),
    Message('note_on', channel=3, note=73, velocity=94, time=20),
    Message('control_change', channel=3, control=7, value=0, time=48),
    Message('note_off', channel=3, note=73, velocity=64, time=28),
    Message('note_on', channel=3, note=74, velocity=94, time=20),
    Message('control_change', channel=3, control=7, value=0, time=24),
    Message('note_off', channel=3, note=74, velocity=64, time=72),
    Message('pitchwheel', channel=3, pitch=0, time=768),
    Message('polytouch', channel=3, note=64, value=0, time=0),
    Message('aftertouch', channel=3, value=0, time=0),
    Message('control_change', channel=3, control=1, value=0, time=0),
    Message('control_change', channel=3, control=2, value=0, time=0),
    Message('control_change', channel=3, control=4, value=0, time=0),
    Message('control_change', channel=3, control=7, value=100, time=0),
    Message('control_change', channel=3, control=8, value=0, time=0),
    Message('control_change', channel=3, control=10, value=63, time=0),
    Message('control_change', channel=3, control=64, value=0, time=0),
    Message('control_change', channel=3, control=65, value=0, time=0),
    Message('control_change', channel=3, control=66, value=0, time=0),
    Message('control_change', channel=3, control=67, value=0, time=0),
    Message('control_change', channel=3, control=68, value=0, time=0),
    MetaMessage('end_of_track', time=0)]),
  MidiTrack([
    MetaMessage('midi_port', port=0, time=0),
    MetaMessage('track_name', name='Guitar Comps        ', time=0),
    Message('program_change', channel=2, program=32, time=0),
    Message('control_change', channel=2, control=7, value=105, time=0),
    Message('control_change', channel=2, control=10, value=39, time=0),
    Message('control_change', channel=2, control=7, value=106, time=264),
    Message('control_change', channel=2, control=7, value=107, time=264),
    Message('control_change', channel=2, control=7, value=108, time=239),
    Message('note_on', channel=2, note=52, velocity=86, time=1),
    Message('note_off', channel=2, note=52, velocity=64, time=118),
    Message('note_on', channel=2, note=52, velocity=86, time=76),
    Message('note_off', channel=2, note=52, velocity=64, time=246),
    Message('note_on', channel=2, note=52, velocity=86, time=46),
    Message('note_off', channel=2, note=52, velocity=64, time=66),
    Message('note_on', channel=2, note=54, velocity=86, time=24),
    Message('note_off', channel=2, note=54, velocity=64, time=66),
    Message('note_on', channel=2, note=55, velocity=86, time=26),
    Message('note_off', channel=2, note=55, velocity=64, time=360),
    Message('note_on', channel=2, note=55, velocity=86, time=28),
    Message('note_off', channel=2, note=55, velocity=64, time=152),
    Message('note_on', channel=2, note=55, velocity=86, time=46),
    Message('note_off', channel=2, note=55, velocity=64, time=72),
    Message('note_on', channel=2, note=54, velocity=86, time=22),
    Message('note_off', channel=2, note=54, velocity=64, time=156),
    Message('note_on', channel=2, note=52, velocity=86, time=32),
    Message('note_off', channel=2, note=52, velocity=64, time=118),
    Message('note_on', channel=2, note=52, velocity=86, time=78),
    Message('note_off', channel=2, note=52, velocity=64, time=248),
    Message('note_on', channel=2, note=52, velocity=86, time=46),
    Message('note_off', channel=2, note=52, velocity=64, time=66),
    Message('note_on', channel=2, note=54, velocity=86, time=28),
    Message('note_off', channel=2, note=54, velocity=64, time=64),
    Message('note_on', channel=2, note=55, velocity=86, time=26),
    Message('note_off', channel=2, note=55, velocity=64, time=364),
    Message('note_on', channel=2, note=55, velocity=86, time=28),
    Message('note_off', channel=2, note=55, velocity=64, time=150),
    Message('note_on', channel=2, note=55, velocity=86, time=38),
    Message('note_off', channel=2, note=55, velocity=64, time=72),
    Message('note_on', channel=2, note=54, velocity=86, time=30),
    Message('note_off', channel=2, note=54, velocity=64, time=142),
    Message('note_on', channel=2, note=52, velocity=86, time=38),
    Message('note_off', channel=2, note=52, velocity=64, time=130),
    Message('note_on', channel=2, note=52, velocity=86, time=62),
    Message('note_off', channel=2, note=52, velocity=64, time=248),
    Message('note_on', channel=2, note=52, velocity=86, time=52),
    Message('note_off', channel=2, note=52, velocity=64, time=52),
    Message('note_on', channel=2, note=54, velocity=86, time=40),
    Message('note_off', channel=2, note=54, velocity=64, time=60),
    Message('note_on', channel=2, note=55, velocity=86, time=26),
    Message('note_off', channel=2, note=55, velocity=64, time=358),
    Message('note_on', channel=2, note=55, velocity=86, time=28),
    Message('note_off', channel=2, note=55, velocity=64, time=150),
    Message('note_on', channel=2, note=55, velocity=86, time=44),
    Message('note_off', channel=2, note=55, velocity=64, time=70),
    Message('note_on', channel=2, note=54, velocity=86, time=34),
    Message('note_off', channel=2, note=54, velocity=64, time=156),
    Message('note_on', channel=2, note=52, velocity=86, time=38),
    Message('note_off', channel=2, note=52, velocity=64, time=130),
    Message('note_on', channel=2, note=52, velocity=86, time=50),
    Message('note_off', channel=2, note=52, velocity=64, time=242),
    Message('note_on', channel=2, note=52, velocity=86, time=58),
    Message('note_off', channel=2, note=52, velocity=64, time=54),
    Message('note_on', channel=2, note=54, velocity=86, time=32),
    Message('note_off', channel=2, note=54, velocity=64, time=66),
    Message('note_on', channel=2, note=55, velocity=86, time=28),
    Message('note_off', channel=2, note=55, velocity=64, time=96),
    Message('note_on', channel=2, note=55, velocity=86, time=0),
    Message('note_off', channel=2, note=55, velocity=64, time=252),
    Message('note_on', channel=2, note=55, velocity=86, time=32),
    Message('note_off', channel=2, note=55, velocity=64, time=154),
    Message('note_on', channel=2, note=55, velocity=86, time=40),
    Message('note_off', channel=2, note=55, velocity=64, time=72),
    Message('note_on', channel=2, note=54, velocity=86, time=28),
    Message('note_off', channel=2, note=54, velocity=64, time=150),
    Message('note_on', channel=2, note=52, velocity=86, time=40),
    Message('note_off', channel=2, note=52, velocity=64, time=1482),
    Message('note_on', channel=2, note=52, velocity=98, time=52),
    Message('note_off', channel=2, note=52, velocity=64, time=1472),
    Message('note_on', channel=2, note=52, velocity=98, time=60),
    Message('note_off', channel=2, note=52, velocity=64, time=1482),
    Message('note_on', channel=2, note=52, velocity=98, time=72),
    Message('note_off', channel=2, note=52, velocity=64, time=1476),
    Message('note_on', channel=2, note=59, velocity=98, time=242),
    Message('note_on', channel=2, note=56, velocity=98, time=0),
    Message('note_on', channel=2, note=52, velocity=98, time=2),
    Message('note_off', channel=2, note=59, velocity=64, time=48),
    Message('note_off', channel=2, note=56, velocity=64, time=0),
    Message('note_off', channel=2, note=52, velocity=64, time=8),
    Message('note_on', channel=2, note=52, velocity=98, time=44),
    Message('note_on', channel=2, note=59, velocity=98, time=0),
    Message('note_on', channel=2, note=56, velocity=98, time=2),
    Message('note_off', channel=2, note=56, velocity=64, time=44),
    Message('note_off', channel=2, note=59, velocity=64, time=6),
    Message('note_off', channel=2, note=52, velocity=64, time=2),
    Message('note_on', channel=2, note=51, velocity=71, time=602),
    Message('note_on', channel=2, note=54, velocity=71, time=2),
    Message('note_on', channel=2, note=59, velocity=71, time=2),
    Message('note_off', channel=2, note=54, velocity=64, time=50),
    Message('note_off', channel=2, note=59, velocity=64, time=2),
    Message('note_off', channel=2, note=51, velocity=64, time=4),
    Message('note_on', channel=2, note=51, velocity=71, time=46),
    Message('note_on', channel=2, note=59, velocity=71, time=2),
    Message('note_on', channel=2, note=54, velocity=71, time=2),
    Message('note_off', channel=2, note=54, velocity=64, time=36),
    Message('note_off', channel=2, note=59, velocity=64, time=8),
    Message('note_off', channel=2, note=51, velocity=64, time=6),
    Message('note_on', channel=2, note=59, velocity=71, time=592),
    Message('note_on', channel=2, note=56, velocity=71, time=2),
    Message('note_on', channel=2, note=52, velocity=71, time=2),
    Message('note_off', channel=2, note=59, velocity=64, time=46),
    Message('note_off', channel=2, note=56, velocity=64, time=10),
    Message('note_off', channel=2, note=52, velocity=64, time=2),
    Message('note_on', channel=2, note=59, velocity=71, time=48),
    Message('note_on', channel=2, note=52, velocity=71, time=0),
    Message('note_on', channel=2, note=56, velocity=71, time=2),
    Message('note_off', channel=2, note=56, velocity=64, time=50),
    Message('note_off', channel=2, note=52, velocity=64, time=2),
    Message('note_off', channel=2, note=59, velocity=64, time=6),
    Message('note_on', channel=2, note=73, velocity=98, time=622),
    Message('note_on', channel=2, note=69, velocity=98, time=2),
    Message('note_on', channel=2, note=64, velocity=98, time=0),
    Message('note_off', channel=2, note=69, velocity=64, time=48),
    Message('note_off', channel=2, note=73, velocity=64, time=10),
    Message('note_off', channel=2, note=64, velocity=64, time=2),
    Message('note_on', channel=2, note=73, velocity=98, time=38),
    Message('note_on', channel=2, note=69, velocity=98, time=2),
    Message('note_on', channel=2, note=64, velocity=98, time=2),
    Message('note_off', channel=2, note=69, velocity=64, time=46),
    Message('note_off', channel=2, note=73, velocity=64, time=18),
    Message('note_off', channel=2, note=64, velocity=64, time=0),
    Message('note_on', channel=2, note=52, velocity=98, time=408),
    Message('note_off', channel=2, note=52, velocity=64, time=130),
    Message('note_on', channel=2, note=52, velocity=98, time=62),
    Message('note_off', channel=2, note=52, velocity=64, time=248),
    Message('note_on', channel=2, note=52, velocity=98, time=52),
    Message('note_off', channel=2, note=52, velocity=64, time=52),
    Message('note_on', channel=2, note=54, velocity=98, time=40),
    Message('note_off', channel=2, note=54, velocity=64, time=60),
    Message('note_on', channel=2, note=55, velocity=98, time=26),
    Message('note_off', channel=2, note=55, velocity=64, time=358),
    Message('note_on', channel=2, note=55, velocity=98, time=28),
    Message('note_off', channel=2, note=55, velocity=64, time=150),
    Message('note_on', channel=2, note=55, velocity=98, time=44),
    Message('note_off', channel=2, note=55, velocity=64, time=70),
    Message('note_on', channel=2, note=54, velocity=98, time=34),
    Message('note_off', channel=2, note=54, velocity=64, time=156),
    Message('control_change', channel=2, control=7, value=85, time=38),
    Message('note_on', channel=2, note=52, velocity=88, time=0),
    Message('note_off', channel=2, note=52, velocity=64, time=130),
    Message('note_on', channel=2, note=52, velocity=88, time=50),
    Message('note_off', channel=2, note=52, velocity=64, time=242),
    Message('note_on', channel=2, note=52, velocity=88, time=58),
    Message('note_off', channel=2, note=52, velocity=64, time=54),
    Message('note_on', channel=2, note=54, velocity=88, time=32),
    Message('note_off', channel=2, note=54, velocity=64, time=66),
    Message('note_on', channel=2, note=55, velocity=88, time=28),
    Message('note_off', channel=2, note=55, velocity=64, time=348),
    Message('note_on', channel=2, note=55, velocity=88, time=32),
    Message('note_off', channel=2, note=55, velocity=64, time=154),
    Message('note_on', channel=2, note=55, velocity=88, time=40),
    Message('note_off', channel=2, note=55, velocity=64, time=72),
    Message('note_on', channel=2, note=54, velocity=88, time=28),
    Message('note_off', channel=2, note=54, velocity=64, time=150),
    Message('note_on', channel=2, note=52, velocity=99, time=40),
    Message('note_off', channel=2, note=52, velocity=64, time=130),
    Message('note_on', channel=2, note=52, velocity=99, time=62),
    Message('note_off', channel=2, note=52, velocity=64, time=248),
    Message('note_on', channel=2, note=52, velocity=99, time=52),
    Message('note_off', channel=2, note=52, velocity=64, time=52),
    Message('note_on', channel=2, note=54, velocity=99, time=40),
    Message('note_off', channel=2, note=54, velocity=64, time=60),
    Message('note_on', channel=2, note=55, velocity=99, time=26),
    Message('note_off', channel=2, note=55, velocity=64, time=358),
    Message('note_on', channel=2, note=55, velocity=99, time=28),
    Message('note_off', channel=2, note=55, velocity=64, time=150),
    Message('note_on', channel=2, note=55, velocity=99, time=44),
    Message('note_off', channel=2, note=55, velocity=64, time=70),
    Message('note_on', channel=2, note=54, velocity=99, time=34),
    Message('note_off', channel=2, note=54, velocity=64, time=156),
    Message('note_on', channel=2, note=52, velocity=99, time=38),
    Message('note_off', channel=2, note=52, velocity=64, time=130),
    Message('note_on', channel=2, note=52, velocity=99, time=50),
    Message('note_off', channel=2, note=52, velocity=64, time=242),
    Message('note_on', channel=2, note=52, velocity=99, time=58),
    Message('note_off', channel=2, note=52, velocity=64, time=54),
    Message('note_on', channel=2, note=54, velocity=99, time=32),
    Message('note_off', channel=2, note=54, velocity=64, time=66),
    Message('note_on', channel=2, note=55, velocity=99, time=28),
    Message('note_off', channel=2, note=55, velocity=64, time=348),
    Message('note_on', channel=2, note=55, velocity=99, time=32),
    Message('note_off', channel=2, note=55, velocity=64, time=154),
    Message('note_on', channel=2, note=55, velocity=99, time=40),
    Message('note_off', channel=2, note=55, velocity=64, time=72),
    Message('note_on', channel=2, note=54, velocity=99, time=28),
    Message('note_off', channel=2, note=54, velocity=64, time=150),
    Message('note_on', channel=2, note=52, velocity=99, time=40),
    Message('note_off', channel=2, note=52, velocity=64, time=130),
    Message('note_on', channel=2, note=52, velocity=99, time=62),
    Message('note_off', channel=2, note=52, velocity=64, time=248),
    Message('note_on', channel=2, note=52, velocity=99, time=52),
    Message('note_off', channel=2, note=52, velocity=64, time=52),
    Message('note_on', channel=2, note=54, velocity=99, time=40),
    Message('note_off', channel=2, note=54, velocity=64, time=60),
    Message('note_on', channel=2, note=55, velocity=99, time=26),
    Message('note_off', channel=2, note=55, velocity=64, time=358),
    Message('note_on', channel=2, note=55, velocity=99, time=28),
    Message('note_off', channel=2, note=55, velocity=64, time=150),
    Message('note_on', channel=2, note=55, velocity=99, time=44),
    Message('note_off', channel=2, note=55, velocity=64, time=70),
    Message('note_on', channel=2, note=54, velocity=99, time=34),
    Message('note_off', channel=2, note=54, velocity=64, time=156),
    Message('note_on', channel=2, note=52, velocity=99, time=38),
    Message('note_off', channel=2, note=52, velocity=64, time=130),
    Message('note_on', channel=2, note=52, velocity=99, time=50),
    Message('note_off', channel=2, note=52, velocity=64, time=242),
    Message('note_on', channel=2, note=52, velocity=99, time=58),
    Message('note_off', channel=2, note=52, velocity=64, time=54),
    Message('note_on', channel=2, note=54, velocity=99, time=32),
    Message('note_off', channel=2, note=54, velocity=64, time=66),
    Message('note_on', channel=2, note=55, velocity=99, time=28),
    Message('note_off', channel=2, note=55, velocity=64, time=348),
    Message('note_on', channel=2, note=55, velocity=99, time=32),
    Message('note_off', channel=2, note=55, velocity=64, time=154),
    Message('note_on', channel=2, note=55, velocity=99, time=40),
    Message('note_off', channel=2, note=55, velocity=64, time=72),
    Message('note_on', channel=2, note=54, velocity=99, time=28),
    Message('note_off', channel=2, note=54, velocity=64, time=150),
    Message('note_on', channel=2, note=52, velocity=99, time=40),
    Message('note_off', channel=2, note=52, velocity=64, time=130),
    Message('note_on', channel=2, note=52, velocity=99, time=62),
    Message('note_off', channel=2, note=52, velocity=64, time=248),
    Message('note_on', channel=2, note=52, velocity=99, time=52),
    Message('note_off', channel=2, note=52, velocity=64, time=52),
    Message('note_on', channel=2, note=54, velocity=99, time=40),
    Message('note_off', channel=2, note=54, velocity=64, time=60),
    Message('note_on', channel=2, note=55, velocity=99, time=26),
    Message('note_off', channel=2, note=55, velocity=64, time=358),
    Message('note_on', channel=2, note=55, velocity=99, time=28),
    Message('note_off', channel=2, note=55, velocity=64, time=150),
    Message('note_on', channel=2, note=55, velocity=99, time=44),
    Message('note_off', channel=2, note=55, velocity=64, time=70),
    Message('note_on', channel=2, note=54, velocity=99, time=34),
    Message('note_off', channel=2, note=54, velocity=64, time=156),
    Message('note_on', channel=2, note=52, velocity=99, time=38),
    Message('note_off', channel=2, note=52, velocity=64, time=130),
    Message('note_on', channel=2, note=52, velocity=99, time=50),
    Message('note_off', channel=2, note=52, velocity=64, time=242),
    Message('note_on', channel=2, note=52, velocity=99, time=58),
    Message('note_off', channel=2, note=52, velocity=64, time=54),
    Message('note_on', channel=2, note=54, velocity=99, time=32),
    Message('note_off', channel=2, note=54, velocity=64, time=66),
    Message('note_on', channel=2, note=55, velocity=99, time=28),
    Message('note_off', channel=2, note=55, velocity=64, time=348),
    Message('note_on', channel=2, note=55, velocity=99, time=32),
    Message('note_off', channel=2, note=55, velocity=64, time=154),
    Message('note_on', channel=2, note=55, velocity=99, time=40),
    Message('note_off', channel=2, note=55, velocity=64, time=72),
    Message('note_on', channel=2, note=54, velocity=99, time=28),
    Message('note_off', channel=2, note=54, velocity=64, time=150),
    Message('note_on', channel=2, note=52, velocity=99, time=1588),
    Message('note_off', channel=2, note=52, velocity=64, time=130),
    Message('note_on', channel=2, note=52, velocity=99, time=50),
    Message('note_off', channel=2, note=52, velocity=64, time=242),
    Message('note_on', channel=2, note=52, velocity=99, time=58),
    Message('note_off', channel=2, note=52, velocity=64, time=54),
    Message('note_on', channel=2, note=54, velocity=99, time=32),
    Message('note_off', channel=2, note=54, velocity=64, time=66),
    Message('note_on', channel=2, note=55, velocity=99, time=28),
    Message('note_off', channel=2, note=55, velocity=64, time=348),
    Message('note_on', channel=2, note=55, velocity=99, time=32),
    Message('note_off', channel=2, note=55, velocity=64, time=154),
    Message('note_on', channel=2, note=55, velocity=99, time=40),
    Message('note_off', channel=2, note=55, velocity=64, time=72),
    Message('note_on', channel=2, note=54, velocity=99, time=28),
    Message('note_off', channel=2, note=54, velocity=64, time=150),
    Message('note_on', channel=2, note=52, velocity=99, time=40),
    Message('note_off', channel=2, note=52, velocity=64, time=130),
    Message('note_on', channel=2, note=52, velocity=99, time=62),
    Message('note_off', channel=2, note=52, velocity=64, time=248),
    Message('note_on', channel=2, note=52, velocity=99, time=52),
    Message('note_off', channel=2, note=52, velocity=64, time=52),
    Message('note_on', channel=2, note=54, velocity=99, time=40),
    Message('note_off', channel=2, note=54, velocity=64, time=60),
    Message('note_on', channel=2, note=55, velocity=99, time=26),
    Message('note_off', channel=2, note=55, velocity=64, time=358),
    Message('note_on', channel=2, note=55, velocity=99, time=28),
    Message('note_off', channel=2, note=55, velocity=64, time=150),
    Message('note_on', channel=2, note=55, velocity=99, time=44),
    Message('note_off', channel=2, note=55, velocity=64, time=70),
    Message('note_on', channel=2, note=54, velocity=99, time=34),
    Message('note_off', channel=2, note=54, velocity=64, time=156),
    Message('control_change', channel=2, control=64, value=0, time=26),
    Message('control_change', channel=2, control=7, value=75, time=0),
    Message('note_on', channel=2, note=71, velocity=99, time=96),
    Message('note_on', channel=2, note=64, velocity=99, time=0),
    Message('note_off', channel=2, note=64, velocity=64, time=52),
    Message('note_off', channel=2, note=71, velocity=64, time=12),
    Message('note_on', channel=2, note=71, velocity=99, time=224),
    Message('note_on', channel=2, note=64, velocity=99, time=0),
    Message('note_off', channel=2, note=64, velocity=64, time=124),
    Message('note_off', channel=2, note=71, velocity=64, time=68),
    Message('note_on', channel=2, note=64, velocity=99, time=0),
    Message('note_on', channel=2, note=71, velocity=99, time=96),
    Message('note_off', channel=2, note=71, velocity=64, time=52),
    Message('note_off', channel=2, note=64, velocity=64, time=28),
    Message('note_on', channel=2, note=69, velocity=109, time=112),
    Message('note_off', channel=2, note=69, velocity=64, time=64),
    Message('note_on', channel=2, note=69, velocity=109, time=224),
    Message('note_off', channel=2, note=69, velocity=64, time=192),
    Message('note_on', channel=2, note=69, velocity=109, time=96),
    Message('note_off', channel=2, note=69, velocity=64, time=52),
    Message('note_on', channel=2, note=76, velocity=119, time=44),
    Message('note_on', channel=2, note=71, velocity=119, time=0),
    Message('note_on', channel=2, note=64, velocity=119, time=0),
    Message('note_off', channel=2, note=71, velocity=64, time=75),
    Message('note_off', channel=2, note=76, velocity=64, time=5),
    Message('note_off', channel=2, note=64, velocity=64, time=0),
    Message('note_on', channel=2, note=71, velocity=119, time=208),
    Message('note_on', channel=2, note=76, velocity=119, time=0),
    Message('note_on', channel=2, note=64, velocity=119, time=0),
    Message('note_off', channel=2, note=71, velocity=64, time=83),
    Message('note_off', channel=2, note=76, velocity=64, time=0),
    Message('note_off', channel=2, note=64, velocity=64, time=0),
    Message('note_on', channel=2, note=71, velocity=119, time=109),
    Message('note_on', channel=2, note=76, velocity=119, time=0),
    Message('note_on', channel=2, note=64, velocity=119, time=0),
    Message('note_off', channel=2, note=76, velocity=64, time=76),
    Message('note_off', channel=2, note=71, velocity=64, time=7),
    Message('note_off', channel=2, note=64, velocity=64, time=21),
    Message('note_on', channel=2, note=71, velocity=119, time=88),
    Message('note_on', channel=2, note=64, velocity=119, time=0),
    Message('note_on', channel=2, note=76, velocity=119, time=0),
    Message('note_off', channel=2, note=64, velocity=64, time=204),
    Message('note_off', channel=2, note=71, velocity=64, time=0),
    Message('note_off', channel=2, note=76, velocity=64, time=5),
    Message('note_on', channel=2, note=64, velocity=119, time=79),
    Message('note_off', channel=2, note=64, velocity=64, time=108),
    Message('note_on', channel=2, note=76, velocity=119, time=84),
    Message('note_on', channel=2, note=64, velocity=119, time=0),
    Message('note_on', channel=2, note=71, velocity=119, time=0),
    Message('note_off', channel=2, note=71, velocity=64, time=96),
    Message('note_off', channel=2, note=76, velocity=64, time=3),
    Message('note_off', channel=2, note=64, velocity=64, time=5),
    Message('note_on', channel=2, note=64, velocity=119, time=88),
    Message('note_on', channel=2, note=71, velocity=119, time=96),
    Message('note_off', channel=2, note=71, velocity=64, time=51),
    Message('note_off', channel=2, note=64, velocity=64, time=17),
    Message('note_on', channel=2, note=69, velocity=119, time=28),
    Message('note_on', channel=2, note=64, velocity=119, time=0),
    Message('note_off', channel=2, note=64, velocity=64, time=75),
    Message('note_off', channel=2, note=69, velocity=64, time=5),
    Message('note_on', channel=2, note=64, velocity=119, time=208),
    Message('note_on', channel=2, note=69, velocity=119, time=0),
    Message('note_off', channel=2, note=64, velocity=64, time=83),
    Message('note_off', channel=2, note=69, velocity=64, time=0),
    Message('note_on', channel=2, note=64, velocity=119, time=109),
    Message('note_on', channel=2, note=69, velocity=119, time=0),
    Message('note_off', channel=2, note=69, velocity=64, time=76),
    Message('note_off', channel=2, note=64, velocity=64, time=7),
    Message('note_on', channel=2, note=64, velocity=119, time=109),
    Message('note_on', channel=2, note=69, velocity=119, time=0),
    Message('note_off', channel=2, note=64, velocity=64, time=204),
    Message('note_off', channel=2, note=69, velocity=64, time=5),
    Message('note_on', channel=2, note=69, velocity=119, time=271),
    Message('note_on', channel=2, note=64, velocity=119, time=0),
    Message('note_off', channel=2, note=64, velocity=64, time=96),
    Message('note_off', channel=2, note=69, velocity=64, time=3),
    Message('note_on', channel=2, note=64, velocity=119, time=189),
    Message('note_off', channel=2, note=64, velocity=64, time=51),
    Message('note_on', channel=2, note=71, velocity=119, time=237),
    Message('note_on', channel=2, note=64, velocity=119, time=0),
    Message('note_off', channel=2, note=71, velocity=64, time=81),
    Message('note_off', channel=2, note=64, velocity=64, time=3),
    Message('note_on', channel=2, note=64, velocity=119, time=204),
    Message('note_on', channel=2, note=71, velocity=119, time=0),
    Message('note_off', channel=2, note=71, velocity=64, time=96),
    Message('note_off', channel=2, note=64, velocity=64, time=11),
    Message('note_on', channel=2, note=71, velocity=119, time=85),
    Message('note_on', channel=2, note=64, velocity=119, time=0),
    Message('note_off', channel=2, note=64, velocity=64, time=142),
    Message('note_on', channel=2, note=64, velocity=119, time=50),
    Message('note_off', channel=2, note=71, velocity=64, time=24),
    Message('note_on', channel=2, note=71, velocity=119, time=72),
    Message('note_off', channel=2, note=64, velocity=64, time=48),
    Message('note_on', channel=2, note=64, velocity=119, time=48),
    Message('note_on', channel=2, note=76, velocity=119, time=96),
    Message('note_off', channel=2, note=71, velocity=64, time=20),
    Message('note_off', channel=2, note=64, velocity=64, time=34),
    Message('note_on', channel=2, note=64, velocity=119, time=42),
    Message('note_on', channel=2, note=71, velocity=119, time=96),
    Message('note_off', channel=2, note=76, velocity=64, time=32),
    Message('note_off', channel=2, note=64, velocity=64, time=8),
    Message('note_on', channel=2, note=64, velocity=119, time=56),
    Message('note_off', channel=2, note=71, velocity=64, time=22),
    Message('note_off', channel=2, note=64, velocity=64, time=27),
    Message('note_on', channel=2, note=64, velocity=119, time=239),
    Message('note_off', channel=2, note=64, velocity=64, time=105),
    Message('note_on', channel=2, note=64, velocity=119, time=183),
    Message('note_off', channel=2, note=64, velocity=64, time=86),
    Message('note_on', channel=2, note=64, velocity=119, time=106),
    Message('note_off', channel=2, note=64, velocity=64, time=171),
    Message('note_on', channel=2, note=69, velocity=119, time=21),
    Message('note_on', channel=2, note=64, velocity=119, time=96),
    Message('note_off', channel=2, note=69, velocity=64, time=148),
    Message('note_off', channel=2, note=64, velocity=64, time=21),
    Message('note_on', channel=2, note=69, velocity=119, time=23),
    Message('note_on', channel=2, note=64, velocity=119, time=96),
    Message('note_off', channel=2, note=69, velocity=64, time=147),
    Message('note_off', channel=2, note=64, velocity=64, time=3),
    Message('note_on', channel=2, note=64, velocity=119, time=42),
    Message('note_off', channel=2, note=64, velocity=64, time=73),
    Message('note_on', channel=2, note=71, velocity=119, time=215),
    Message('note_on', channel=2, note=64, velocity=119, time=0),
    Message('note_off', channel=2, note=71, velocity=64, time=108),
    Message('note_off', channel=2, note=64, velocity=64, time=0),
    Message('note_on', channel=2, note=71, velocity=119, time=180),
    Message('note_on', channel=2, note=64, velocity=119, time=0),
    Message('note_off', channel=2, note=64, velocity=64, time=113),
    Message('note_off', channel=2, note=71, velocity=64, time=8),
    Message('note_on', channel=2, note=64, velocity=119, time=71),
    Message('note_on', channel=2, note=71, velocity=119, time=0),
    Message('note_off', channel=2, note=64, velocity=64, time=115),
    Message('note_off', channel=2, note=71, velocity=64, time=8),
    Message('note_on', channel=2, note=71, velocity=119, time=69),
    Message('note_on', channel=2, note=64, velocity=119, time=0),
    Message('note_off', channel=2, note=71, velocity=64, time=137),
    Message('note_off', channel=2, note=64, velocity=64, time=0),
    Message('note_on', channel=2, note=71, velocity=119, time=151),
    Message('note_on', channel=2, note=64, velocity=119, time=0),
    Message('note_off', channel=2, note=64, velocity=64, time=131),
    Message('note_off', channel=2, note=71, velocity=64, time=21),
    Message('note_on', channel=2, note=64, velocity=119, time=40),
    Message('note_on', channel=2, note=71, velocity=119, time=96),
    Message('note_off', channel=2, note=71, velocity=64, time=62),
    Message('note_off', channel=2, note=64, velocity=64, time=19),
    Message('note_on', channel=2, note=71, velocity=119, time=111),
    Message('note_on', channel=2, note=64, velocity=119, time=0),
    Message('note_off', channel=2, note=71, velocity=64, time=62),
    Message('note_off', channel=2, note=64, velocity=64, time=5),
    Message('note_on', channel=2, note=64, velocity=119, time=221),
    Message('note_on', channel=2, note=76, velocity=119, time=0),
    Message('note_on', channel=2, note=71, velocity=119, time=96),
    Message('note_off', channel=2, note=64, velocity=64, time=30),
    Message('note_on', channel=2, note=64, velocity=119, time=66),
    Message('note_off', channel=2, note=71, velocity=64, time=33),
    Message('note_on', channel=2, note=71, velocity=119, time=63),
    Message('note_off', channel=2, note=76, velocity=64, time=8),
    Message('note_off', channel=2, note=71, velocity=64, time=64),
    Message('note_off', channel=2, note=64, velocity=64, time=16),
    Message('note_on', channel=2, note=64, velocity=119, time=104),
    Message('note_off', channel=2, note=64, velocity=64, time=54),
    Message('note_on', channel=2, note=64, velocity=119, time=234),
    Message('note_off', channel=2, note=64, velocity=64, time=296),
    Message('note_on', channel=2, note=64, velocity=119, time=184),
    Message('note_on', channel=2, note=71, velocity=119, time=0),
    Message('note_off', channel=2, note=71, velocity=64, time=73),
    Message('note_off', channel=2, note=64, velocity=64, time=5),
    Message('note_on', channel=2, note=64, velocity=119, time=210),
    Message('note_on', channel=2, note=71, velocity=119, time=0),
    Message('note_off', channel=2, note=71, velocity=64, time=323),
    Message('note_off', channel=2, note=64, velocity=64, time=8),
    Message('note_on', channel=2, note=69, velocity=119, time=53),
    Message('note_off', channel=2, note=69, velocity=64, time=521),
    Message('note_on', channel=2, note=69, velocity=119, time=151),
    Message('note_off', channel=2, note=69, velocity=64, time=60),
    Message('note_on', channel=2, note=71, velocity=119, time=132),
    Message('note_on', channel=2, note=64, velocity=119, time=0),
    Message('note_off', channel=2, note=64, velocity=64, time=41),
    Message('note_off', channel=2, note=71, velocity=64, time=13),
    Message('note_on', channel=2, note=64, velocity=119, time=234),
    Message('note_on', channel=2, note=71, velocity=119, time=0),
    Message('note_off', channel=2, note=71, velocity=64, time=296),
    Message('note_off', channel=2, note=64, velocity=64, time=3),
    Message('note_on', channel=2, note=69, velocity=119, time=181),
    Message('note_off', channel=2, note=69, velocity=64, time=73),
    Message('note_on', channel=2, note=69, velocity=119, time=215),
    Message('note_off', channel=2, note=69, velocity=64, time=323),
    Message('note_on', channel=2, note=71, velocity=119, time=61),
    Message('note_on', channel=2, note=64, velocity=119, time=0),
    Message('note_off', channel=2, note=64, velocity=64, time=500),
    Message('note_off', channel=2, note=71, velocity=64, time=21),
    Message('note_on', channel=2, note=64, velocity=119, time=55),
    Message('note_on', channel=2, note=71, velocity=119, time=96),
    Message('note_off', channel=2, note=64, velocity=64, time=52),
    Message('note_off', channel=2, note=71, velocity=64, time=8),
    Message('note_on', channel=2, note=69, velocity=119, time=36),
    Message('note_off', channel=2, note=69, velocity=64, time=521),
    Message('note_on', channel=2, note=69, velocity=119, time=151),
    Message('note_off', channel=2, note=69, velocity=64, time=60),
    Message('note_on', channel=2, note=71, velocity=119, time=132),
    Message('note_off', channel=2, note=71, velocity=64, time=73),
    Message('note_on', channel=2, note=71, velocity=119, time=215),
    Message('note_off', channel=2, note=71, velocity=64, time=323),
    Message('note_on', channel=2, note=69, velocity=119, time=157),
    Message('note_off', channel=2, note=69, velocity=64, time=64),
    Message('note_on', channel=2, note=69, velocity=119, time=224),
    Message('note_off', channel=2, note=69, velocity=64, time=192),
    Message('note_on', channel=2, note=69, velocity=119, time=96),
    Message('note_off', channel=2, note=69, velocity=64, time=52),
    Message('note_on', channel=2, note=71, velocity=119, time=140),
    Message('note_on', channel=2, note=64, velocity=119, time=0),
    Message('note_off', channel=2, note=64, velocity=64, time=41),
    Message('note_off', channel=2, note=71, velocity=64, time=13),
    Message('note_on', channel=2, note=64, velocity=119, time=234),
    Message('note_on', channel=2, note=71, velocity=119, time=0),
    Message('note_off', channel=2, note=71, velocity=64, time=296),
    Message('note_off', channel=2, note=64, velocity=64, time=3),
    Message('note_on', channel=2, note=69, velocity=119, time=181),
    Message('note_off', channel=2, note=69, velocity=64, time=62),
    Message('note_on', channel=2, note=74, velocity=119, time=226),
    Message('note_on', channel=2, note=69, velocity=119, time=96),
    Message('note_off', channel=2, note=69, velocity=64, time=129),
    Message('note_on', channel=2, note=69, velocity=119, time=63),
    Message('note_off', channel=2, note=74, velocity=64, time=8),
    Message('note_off', channel=2, note=69, velocity=64, time=64),
    Message('note_on', channel=2, note=71, velocity=119, time=120),
    Message('note_off', channel=2, note=71, velocity=64, time=73),
    Message('note_on', channel=2, note=71, velocity=119, time=215),
    Message('note_off', channel=2, note=71, velocity=64, time=323),
    Message('note_on', channel=2, note=69, velocity=119, time=157),
    Message('note_off', channel=2, note=69, velocity=64, time=54),
    Message('note_on', channel=2, note=69, velocity=119, time=234),
    Message('note_off', channel=2, note=69, velocity=64, time=296),
    Message('note_on', channel=2, note=71, velocity=119, time=184),
    Message('note_on', channel=2, note=64, velocity=119, time=0),
    Message('note_off', channel=2, note=71, velocity=64, time=62),
    Message('note_off', channel=2, note=64, velocity=64, time=5),
    Message('note_on', channel=2, note=64, velocity=119, time=221),
    Message('note_on', channel=2, note=76, velocity=119, time=0),
    Message('note_on', channel=2, note=71, velocity=119, time=96),
    Message('note_off', channel=2, note=64, velocity=64, time=30),
    Message('note_on', channel=2, note=64, velocity=119, time=66),
    Message('note_off', channel=2, note=71, velocity=64, time=33),
    Message('note_on', channel=2, note=71, velocity=119, time=63),
    Message('note_off', channel=2, note=76, velocity=64, time=8),
    Message('note_off', channel=2, note=71, velocity=64, time=64),
    Message('note_off', channel=2, note=64, velocity=64, time=16),
    Message('note_on', channel=2, note=69, velocity=119, time=104),
    Message('note_off', channel=2, note=69, velocity=64, time=54),
    Message('note_on', channel=2, note=69, velocity=119, time=234),
    Message('note_off', channel=2, note=69, velocity=64, time=296),
    Message('control_change', channel=2, control=7, value=105, time=1720),
    Message('note_on', channel=2, note=71, velocity=104, time=96),
    Message('note_on', channel=2, note=64, velocity=104, time=0),
    Message('note_off', channel=2, note=71, velocity=64, time=108),
    Message('note_off', channel=2, note=64, velocity=64, time=0),
    Message('note_on', channel=2, note=71, velocity=104, time=180),
    Message('note_on', channel=2, note=64, velocity=104, time=0),
    Message('note_off', channel=2, note=64, velocity=64, time=113),
    Message('note_off', channel=2, note=71, velocity=64, time=8),
    Message('note_on', channel=2, note=64, velocity=104, time=71),
    Message('note_on', channel=2, note=71, velocity=104, time=0),
    Message('note_off', channel=2, note=64, velocity=64, time=115),
    Message('note_off', channel=2, note=71, velocity=64, time=8),
    Message('note_on', channel=2, note=71, velocity=104, time=69),
    Message('note_on', channel=2, note=64, velocity=104, time=0),
    Message('note_off', channel=2, note=71, velocity=64, time=137),
    Message('note_off', channel=2, note=64, velocity=64, time=0),
    Message('note_on', channel=2, note=71, velocity=104, time=151),
    Message('note_on', channel=2, note=64, velocity=104, time=0),
    Message('note_off', channel=2, note=64, velocity=64, time=131),
    Message('note_off', channel=2, note=71, velocity=64, time=21),
    Message('note_on', channel=2, note=64, velocity=104, time=40),
    Message('note_on', channel=2, note=71, velocity=104, time=96),
    Message('note_off', channel=2, note=71, velocity=64, time=62),
    Message('note_off', channel=2, note=64, velocity=64, time=19),
    Message('note_on', channel=2, note=71, velocity=104, time=111),
    Message('note_on', channel=2, note=64, velocity=104, time=0),
    Message('note_off', channel=2, note=64, velocity=64, time=52),
    Message('note_off', channel=2, note=71, velocity=64, time=12),
    Message('note_on', channel=2, note=71, velocity=104, time=224),
    Message('note_on', channel=2, note=64, velocity=104, time=0),
    Message('note_off', channel=2, note=64, velocity=64, time=124),
    Message('note_off', channel=2, note=71, velocity=64, time=68),
    Message('note_on', channel=2, note=64, velocity=104, time=0),
    Message('note_on', channel=2, note=71, velocity=104, time=96),
    Message('note_off', channel=2, note=71, velocity=64, time=52),
    Message('note_off', channel=2, note=64, velocity=64, time=28),
    Message('note_on', channel=2, note=69, velocity=101, time=112),
    Message('note_off', channel=2, note=69, velocity=64, time=64),
    Message('note_on', channel=2, note=69, velocity=101, time=224),
    Message('note_off', channel=2, note=69, velocity=64, time=192),
    Message('note_on', channel=2, note=69, velocity=101, time=96),
    Message('note_off', channel=2, note=69, velocity=64, time=52),
    Message('control_change', channel=2, control=64, value=0, time=44),
    Message('note_on', channel=2, note=76, velocity=104, time=96),
    Message('note_on', channel=2, note=71, velocity=104, time=0),
    Message('note_on', channel=2, note=64, velocity=104, time=0),
    Message('note_off', channel=2, note=64, velocity=64, time=33),
    Message('note_off', channel=2, note=71, velocity=64, time=8),
    Message('note_off', channel=2, note=76, velocity=64, time=3),
    Message('note_on', channel=2, note=64, velocity=104, time=244),
    Message('note_on', channel=2, note=76, velocity=104, time=0),
    Message('note_on', channel=2, note=71, velocity=104, time=0),
    Message('note_off', channel=2, note=64, velocity=64, time=110),
    Message('note_off', channel=2, note=71, velocity=64, time=3),
    Message('note_off', channel=2, note=76, velocity=64, time=10),
    Message('note_on', channel=2, note=76, velocity=104, time=165),
    Message('note_on', channel=2, note=71, velocity=104, time=0),
    Message('note_on', channel=2, note=64, velocity=104, time=0),
    Message('note_off', channel=2, note=71, velocity=64, time=73),
    Message('note_off', channel=2, note=64, velocity=64, time=0),
    Message('note_off', channel=2, note=76, velocity=64, time=2),
    Message('note_on', channel=2, note=69, velocity=104, time=117),
    Message('note_off', channel=2, note=69, velocity=64, time=174),
    Message('note_on', channel=2, note=74, velocity=104, time=402),
    Message('note_on', channel=2, note=69, velocity=104, time=0),
    Message('note_off', channel=2, note=69, velocity=64, time=65),
    Message('note_off', channel=2, note=74, velocity=64, time=16),
    Message('note_on', channel=2, note=71, velocity=104, time=15),
    Message('note_on', channel=2, note=64, velocity=104, time=0),
    Message('note_off', channel=2, note=71, velocity=64, time=100),
    Message('note_off', channel=2, note=64, velocity=64, time=5),
    Message('note_on', channel=2, note=71, velocity=104, time=87),
    Message('note_on', channel=2, note=64, velocity=104, time=0),
    Message('note_off', channel=2, note=64, velocity=64, time=24),
    Message('note_off', channel=2, note=71, velocity=64, time=1),
    Message('note_on', channel=2, note=64, velocity=104, time=71),
    Message('note_on', channel=2, note=71, velocity=104, time=0),
    Message('note_off', channel=2, note=64, velocity=64, time=244),
    Message('note_off', channel=2, note=71, velocity=64, time=10),
    Message('note_on', channel=2, note=71, velocity=104, time=130),
    Message('note_on', channel=2, note=64, velocity=104, time=0),
    Message('note_off', channel=2, note=71, velocity=64, time=204),
    Message('note_off', channel=2, note=64, velocity=64, time=4),
    Message('note_on', channel=2, note=64, velocity=104, time=80),
    Message('note_on', channel=2, note=71, velocity=104, time=0),
    Message('note_off', channel=2, note=64, velocity=64, time=35),
    Message('note_off', channel=2, note=71, velocity=64, time=0),
    Message('note_on', channel=2, note=64, velocity=104, time=61),
    Message('note_on', channel=2, note=71, velocity=104, time=0),
    Message('note_off', channel=2, note=64, velocity=64, time=36),
    Message('note_off', channel=2, note=71, velocity=64, time=0),
    Message('note_on', channel=2, note=64, velocity=104, time=60),
    Message('note_on', channel=2, note=71, velocity=104, time=0),
    Message('note_off', channel=2, note=64, velocity=64, time=33),
    Message('note_off', channel=2, note=71, velocity=64, time=0),
    Message('note_on', channel=2, note=64, velocity=104, time=63),
    Message('note_on', channel=2, note=71, velocity=104, time=0),
    Message('note_off', channel=2, note=64, velocity=64, time=32),
    Message('note_off', channel=2, note=71, velocity=64, time=4),
    Message('note_on', channel=2, note=64, velocity=104, time=60),
    Message('note_on', channel=2, note=71, velocity=104, time=0),
    Message('note_off', channel=2, note=64, velocity=64, time=44),
    Message('note_off', channel=2, note=71, velocity=64, time=0),
    Message('note_on', channel=2, note=71, velocity=104, time=52),
    Message('note_on', channel=2, note=64, velocity=104, time=0),
    Message('note_off', channel=2, note=64, velocity=64, time=43),
    Message('note_off', channel=2, note=71, velocity=64, time=1),
    Message('note_on', channel=2, note=64, velocity=104, time=436),
    Message('note_off', channel=2, note=64, velocity=64, time=228),
    Message('note_on', channel=2, note=64, velocity=104, time=60),
    Message('note_off', channel=2, note=64, velocity=64, time=155),
    Message('note_on', channel=2, note=69, velocity=104, time=37),
    Message('note_on', channel=2, note=64, velocity=104, time=0),
    Message('note_off', channel=2, note=64, velocity=64, time=57),
    Message('note_off', channel=2, note=69, velocity=64, time=7),
    Message('note_on', channel=2, note=64, velocity=104, time=224),
    Message('note_off', channel=2, note=64, velocity=64, time=177),
    Message('note_on', channel=2, note=69, velocity=104, time=15),
    Message('note_off', channel=2, note=69, velocity=64, time=136),
    Message('note_on', channel=2, note=71, velocity=104, time=152),
    Message('note_on', channel=2, note=64, velocity=104, time=0),
    Message('note_off', channel=2, note=64, velocity=64, time=43),
    Message('note_off', channel=2, note=71, velocity=64, time=11),
    Message('note_on', channel=2, note=64, velocity=104, time=234),
    Message('note_on', channel=2, note=71, velocity=104, time=0),
    Message('note_off', channel=2, note=71, velocity=64, time=217),
    Message('note_off', channel=2, note=64, velocity=64, time=13),
    Message('note_on', channel=2, note=71, velocity=104, time=58),
    Message('note_on', channel=2, note=64, velocity=104, time=0),
    Message('note_off', channel=2, note=64, velocity=64, time=240),
    Message('note_off', channel=2, note=71, velocity=64, time=35),
    Message('note_on', channel=2, note=64, velocity=104, time=13),
    Message('note_on', channel=2, note=71, velocity=104, time=192),
    Message('note_off', channel=2, note=64, velocity=64, time=118),
    Message('note_on', channel=2, note=64, velocity=104, time=74),
    Message('note_off', channel=2, note=71, velocity=64, time=41),
    Message('note_on', channel=2, note=71, velocity=104, time=55),
    Message('note_off', channel=2, note=71, velocity=64, time=80),
    Message('note_off', channel=2, note=64, velocity=64, time=16),
    Message('note_on', channel=2, note=64, velocity=104, time=96),
    Message('note_off', channel=2, note=64, velocity=64, time=83),
    Message('note_on', channel=2, note=64, velocity=104, time=205),
    Message('note_off', channel=2, note=64, velocity=64, time=244),
    Message('note_on', channel=2, note=64, velocity=104, time=44),
    Message('note_off', channel=2, note=64, velocity=64, time=115),
    Message('note_on', channel=2, note=69, velocity=104, time=29),
    Message('note_on', channel=2, note=64, velocity=104, time=48),
    Message('note_off', channel=2, note=69, velocity=64, time=22),
    Message('note_off', channel=2, note=64, velocity=64, time=48),
    Message('note_on', channel=2, note=69, velocity=104, time=26),
    Message('note_on', channel=2, note=64, velocity=104, time=48),
    Message('note_off', channel=2, note=69, velocity=64, time=35),
    Message('note_off', channel=2, note=64, velocity=64, time=24),
    Message('note_on', channel=2, note=69, velocity=104, time=37),
    Message('note_on', channel=2, note=64, velocity=104, time=48),
    Message('note_off', channel=2, note=69, velocity=64, time=25),
    Message('note_off', channel=2, note=64, velocity=64, time=51),
    Message('note_on', channel=2, note=69, velocity=104, time=20),
    Message('note_on', channel=2, note=64, velocity=104, time=48),
    Message('note_off', channel=2, note=69, velocity=64, time=35),
    Message('note_off', channel=2, note=64, velocity=64, time=30),
    Message('note_on', channel=2, note=69, velocity=104, time=31),
    Message('note_on', channel=2, note=64, velocity=104, time=48),
    Message('note_off', channel=2, note=69, velocity=64, time=11),
    Message('note_off', channel=2, note=64, velocity=64, time=78),
    Message('note_on', channel=2, note=71, velocity=104, time=103),
    Message('note_on', channel=2, note=64, velocity=104, time=0),
    Message('note_off', channel=2, note=64, velocity=64, time=38),
    Message('note_off', channel=2, note=71, velocity=64, time=6),
    Message('note_on', channel=2, note=64, velocity=104, time=52),
    Message('note_on', channel=2, note=71, velocity=104, time=0),
    Message('note_off', channel=2, note=71, velocity=64, time=116),
    Message('note_off', channel=2, note=64, velocity=64, time=16),
    Message('note_on', channel=2, note=71, velocity=104, time=60),
    Message('note_on', channel=2, note=64, velocity=104, time=0),
    Message('note_off', channel=2, note=64, velocity=64, time=28),
    Message('note_off', channel=2, note=71, velocity=64, time=2),
    Message('note_on', channel=2, note=64, velocity=104, time=66),
    Message('note_on', channel=2, note=71, velocity=104, time=0),
    Message('note_off', channel=2, note=71, velocity=64, time=118),
    Message('note_off', channel=2, note=64, velocity=64, time=2),
    Message('note_on', channel=2, note=71, velocity=104, time=72),
    Message('note_on', channel=2, note=64, velocity=104, time=0),
    Message('note_off', channel=2, note=64, velocity=64, time=224),
    Message('note_off', channel=2, note=71, velocity=64, time=28),
    Message('note_on', channel=2, note=64, velocity=104, time=36),
    Message('note_on', channel=2, note=71, velocity=104, time=96),
    Message('note_off', channel=2, note=64, velocity=64, time=70),
    Message('note_off', channel=2, note=71, velocity=64, time=26),
    Message('note_on', channel=2, note=76, velocity=104, time=0),
    Message('note_on', channel=2, note=64, velocity=104, time=96),
    Message('note_on', channel=2, note=71, velocity=104, time=96),
    Message('note_off', channel=2, note=76, velocity=64, time=11),
    Message('note_off', channel=2, note=64, velocity=64, time=37),
    Message('note_on', channel=2, note=64, velocity=104, time=48),
    Message('note_off', channel=2, note=71, velocity=64, time=33),
    Message('note_off', channel=2, note=64, velocity=64, time=29),
    Message('note_on', channel=2, note=64, velocity=104, time=130),
    Message('note_on', channel=2, note=71, velocity=104, time=0),
    Message('note_off', channel=2, note=71, velocity=64, time=32),
    Message('note_off', channel=2, note=64, velocity=64, time=1),
    Message('note_on', channel=2, note=64, velocity=104, time=63),
    Message('note_on', channel=2, note=71, velocity=104, time=0),
    Message('note_off', channel=2, note=71, velocity=64, time=128),
    Message('note_off', channel=2, note=64, velocity=64, time=12),
    Message('note_on', channel=2, note=64, velocity=104, time=52),
    Message('note_on', channel=2, note=71, velocity=104, time=0),
    Message('note_off', channel=2, note=64, velocity=64, time=134),
    Message('note_off', channel=2, note=71, velocity=64, time=56),
    Message('note_on', channel=2, note=64, velocity=104, time=2),
    Message('note_on', channel=2, note=71, velocity=104, time=96),
    Message('note_off', channel=2, note=64, velocity=64, time=38),
    Message('note_off', channel=2, note=71, velocity=64, time=13),
    Message('note_on', channel=2, note=64, velocity=104, time=141),
    Message('note_on', channel=2, note=69, velocity=104, time=0),
    Message('note_off', channel=2, note=64, velocity=64, time=33),
    Message('note_off', channel=2, note=69, velocity=64, time=0),
    Message('note_on', channel=2, note=69, velocity=104, time=63),
    Message('note_on', channel=2, note=64, velocity=104, time=0),
    Message('note_off', channel=2, note=64, velocity=64, time=108),
    Message('note_off', channel=2, note=69, velocity=64, time=7),
    Message('note_on', channel=2, note=64, velocity=104, time=77),
    Message('note_on', channel=2, note=69, velocity=104, time=0),
    Message('note_off', channel=2, note=69, velocity=64, time=28),
    Message('note_off', channel=2, note=64, velocity=64, time=4),
    Message('note_on', channel=2, note=64, velocity=104, time=64),
    Message('note_on', channel=2, note=69, velocity=104, time=0),
    Message('note_off', channel=2, note=64, velocity=64, time=38),
    Message('note_off', channel=2, note=69, velocity=64, time=0),
    Message('note_on', channel=2, note=64, velocity=104, time=58),
    Message('note_on', channel=2, note=69, velocity=104, time=0),
    Message('note_off', channel=2, note=64, velocity=64, time=32),
    Message('note_off', channel=2, note=69, velocity=64, time=0),
    Message('note_on', channel=2, note=69, velocity=104, time=64),
    Message('note_on', channel=2, note=64, velocity=104, time=0),
    Message('note_off', channel=2, note=69, velocity=64, time=65),
    Message('note_off', channel=2, note=64, velocity=64, time=0),
    Message('note_on', channel=2, note=64, velocity=104, time=127),
    Message('note_on', channel=2, note=71, velocity=104, time=0),
    Message('note_off', channel=2, note=71, velocity=64, time=32),
    Message('note_off', channel=2, note=64, velocity=64, time=1),
    Message('note_on', channel=2, note=64, velocity=104, time=63),
    Message('note_on', channel=2, note=71, velocity=104, time=0),
    Message('note_off', channel=2, note=71, velocity=64, time=128),
    Message('note_off', channel=2, note=64, velocity=64, time=12),
    Message('note_on', channel=2, note=64, velocity=104, time=52),
    Message('note_on', channel=2, note=71, velocity=104, time=0),
    Message('note_off', channel=2, note=64, velocity=64, time=134),
    Message('note_off', channel=2, note=71, velocity=64, time=56),
    Message('note_on', channel=2, note=64, velocity=104, time=2),
    Message('note_on', channel=2, note=71, velocity=104, time=96),
    Message('note_off', channel=2, note=64, velocity=64, time=38),
    Message('note_off', channel=2, note=71, velocity=64, time=13),
    Message('note_on', channel=2, note=69, velocity=104, time=141),
    Message('note_off', channel=2, note=69, velocity=64, time=32),
    Message('note_on', channel=2, note=69, velocity=104, time=64),
    Message('note_off', channel=2, note=69, velocity=64, time=128),
    Message('note_on', channel=2, note=69, velocity=104, time=64),
    Message('note_off', channel=2, note=69, velocity=64, time=190),
    Message('note_on', channel=2, note=69, velocity=104, time=98),
    Message('note_off', channel=2, note=69, velocity=64, time=51),
    Message('note_on', channel=2, note=76, velocity=104, time=141),
    Message('note_off', channel=2, note=76, velocity=64, time=14),
    Message('note_on', channel=2, note=71, velocity=104, time=82),
    Message('note_on', channel=2, note=64, velocity=104, time=96),
    Message('note_off', channel=2, note=71, velocity=64, time=20),
    Message('note_on', channel=2, note=76, velocity=104, time=76),
    Message('note_off', channel=2, note=64, velocity=64, time=30),
    Message('note_on', channel=2, note=71, velocity=104, time=18),
    Message('note_off', channel=2, note=76, velocity=64, time=16),
    Message('note_on', channel=2, note=64, velocity=104, time=32),
    Message('note_off', channel=2, note=71, velocity=64, time=27),
    Message('note_on', channel=2, note=76, velocity=104, time=21),
    Message('note_off', channel=2, note=64, velocity=64, time=25),
    Message('note_on', channel=2, note=71, velocity=104, time=23),
    Message('note_off', channel=2, note=76, velocity=64, time=11),
    Message('note_on', channel=2, note=64, velocity=104, time=37),
    Message('note_off', channel=2, note=71, velocity=64, time=27),
    Message('note_on', channel=2, note=76, velocity=104, time=21),
    Message('note_off', channel=2, note=64, velocity=64, time=24),
    Message('note_on', channel=2, note=71, velocity=104, time=24),
    Message('note_off', channel=2, note=76, velocity=64, time=3),
    Message('note_off', channel=2, note=71, velocity=64, time=45),
    Message('note_on', channel=2, note=69, velocity=104, time=192),
    Message('note_off', channel=2, note=69, velocity=64, time=116),
    Message('note_on', channel=2, note=74, velocity=104, time=76),
    Message('note_on', channel=2, note=69, velocity=104, time=48),
    Message('note_off', channel=2, note=74, velocity=64, time=16),
    Message('note_off', channel=2, note=69, velocity=64, time=59),
    Message('note_on', channel=2, note=74, velocity=104, time=21),
    Message('note_on', channel=2, note=69, velocity=104, time=48),
    Message('note_off', channel=2, note=74, velocity=64, time=11),
    Message('note_off', channel=2, note=69, velocity=64, time=64),
    Message('note_on', channel=2, note=74, velocity=104, time=21),
    Message('note_on', channel=2, note=69, velocity=104, time=48),
    Message('note_off', channel=2, note=74, velocity=64, time=3),
    Message('note_off', channel=2, note=69, velocity=64, time=45),
    Message('note_on', channel=2, note=76, velocity=104, time=96),
    Message('note_off', channel=2, note=76, velocity=64, time=14),
    Message('note_on', channel=2, note=71, velocity=104, time=82),
    Message('note_on', channel=2, note=64, velocity=104, time=96),
    Message('note_off', channel=2, note=71, velocity=64, time=20),
    Message('note_on', channel=2, note=76, velocity=104, time=76),
    Message('note_off', channel=2, note=64, velocity=64, time=30),
    Message('note_on', channel=2, note=71, velocity=104, time=18),
    Message('note_off', channel=2, note=76, velocity=64, time=16),
    Message('note_on', channel=2, note=64, velocity=104, time=32),
    Message('note_off', channel=2, note=71, velocity=64, time=27),
    Message('note_on', channel=2, note=76, velocity=104, time=21),
    Message('note_off', channel=2, note=64, velocity=64, time=25),
    Message('note_on', channel=2, note=71, velocity=104, time=23),
    Message('note_off', channel=2, note=76, velocity=64, time=11),
    Message('note_on', channel=2, note=64, velocity=104, time=37),
    Message('note_off', channel=2, note=71, velocity=64, time=27),
    Message('note_on', channel=2, note=76, velocity=104, time=21),
    Message('note_off', channel=2, note=64, velocity=64, time=24),
    Message('note_on', channel=2, note=71, velocity=104, time=24),
    Message('note_off', channel=2, note=76, velocity=64, time=3),
    Message('note_off', channel=2, note=71, velocity=64, time=45),
    Message('note_on', channel=2, note=69, velocity=104, time=96),
    Message('note_off', channel=2, note=69, velocity=64, time=32),
    Message('note_on', channel=2, note=69, velocity=104, time=64),
    Message('note_off', channel=2, note=69, velocity=64, time=128),
    Message('note_on', channel=2, note=69, velocity=104, time=64),
    Message('note_off', channel=2, note=69, velocity=64, time=190),
    Message('note_on', channel=2, note=69, velocity=104, time=98),
    Message('note_off', channel=2, note=69, velocity=64, time=51),
    Message('note_on', channel=2, note=64, velocity=104, time=141),
    Message('note_on', channel=2, note=71, velocity=104, time=0),
    Message('note_off', channel=2, note=71, velocity=64, time=32),
    Message('note_off', channel=2, note=64, velocity=64, time=1),
    Message('note_on', channel=2, note=64, velocity=104, time=63),
    Message('note_on', channel=2, note=71, velocity=104, time=0),
    Message('note_off', channel=2, note=71, velocity=64, time=128),
    Message('note_off', channel=2, note=64, velocity=64, time=12),
    Message('note_on', channel=2, note=64, velocity=104, time=52),
    Message('note_on', channel=2, note=71, velocity=104, time=0),
    Message('note_off', channel=2, note=64, velocity=64, time=134),
    Message('note_off', channel=2, note=71, velocity=64, time=56),
    Message('note_on', channel=2, note=64, velocity=104, time=2),
    Message('note_on', channel=2, note=71, velocity=104, time=96),
    Message('note_off', channel=2, note=64, velocity=64, time=38),
    Message('note_off', channel=2, note=71, velocity=64, time=13),
    Message('note_on', channel=2, note=74, velocity=104, time=141),
    Message('note_off', channel=2, note=74, velocity=64, time=14),
    Message('note_on', channel=2, note=69, velocity=104, time=82),
    Message('note_off', channel=2, note=69, velocity=64, time=116),
    Message('note_on', channel=2, note=74, velocity=104, time=76),
    Message('note_on', channel=2, note=69, velocity=104, time=48),
    Message('note_off', channel=2, note=74, velocity=64, time=16),
    Message('note_off', channel=2, note=69, velocity=64, time=59),
    Message('note_on', channel=2, note=74, velocity=104, time=21),
    Message('note_on', channel=2, note=69, velocity=104, time=48),
    Message('note_off', channel=2, note=74, velocity=64, time=11),
    Message('note_off', channel=2, note=69, velocity=64, time=64),
    Message('note_on', channel=2, note=74, velocity=104, time=21),
    Message('note_on', channel=2, note=69, velocity=104, time=48),
    Message('note_off', channel=2, note=74, velocity=64, time=3),
    Message('note_off', channel=2, note=69, velocity=64, time=45),
    Message('note_on', channel=2, note=64, velocity=104, time=96),
    Message('note_on', channel=2, note=71, velocity=104, time=96),
    Message('note_off', channel=2, note=71, velocity=64, time=76),
    Message('note_off', channel=2, note=64, velocity=64, time=12),
    Message('note_on', channel=2, note=71, velocity=104, time=8),
    Message('note_on', channel=2, note=76, velocity=104, time=0),
    Message('note_on', channel=2, note=64, velocity=104, time=0),
    Message('note_off', channel=2, note=64, velocity=64, time=222),
    Message('note_on', channel=2, note=64, velocity=104, time=66),
    Message('note_off', channel=2, note=76, velocity=64, time=24),
    Message('note_off', channel=2, note=71, velocity=64, time=6),
    Message('note_on', channel=2, note=71, velocity=104, time=66),
    Message('note_off', channel=2, note=71, velocity=64, time=80),
    Message('note_off', channel=2, note=64, velocity=64, time=1),
    Message('note_on', channel=2, note=69, velocity=104, time=111),
    Message('note_on', channel=2, note=74, velocity=104, time=0),
    Message('note_off', channel=2, note=69, velocity=64, time=33),
    Message('note_off', channel=2, note=74, velocity=64, time=0),
    Message('note_on', channel=2, note=74, velocity=104, time=63),
    Message('note_on', channel=2, note=69, velocity=104, time=0),
    Message('note_off', channel=2, note=69, velocity=64, time=108),
    Message('note_off', channel=2, note=74, velocity=64, time=7),
    Message('note_on', channel=2, note=69, velocity=104, time=77),
    Message('note_on', channel=2, note=74, velocity=104, time=0),
    Message('note_off', channel=2, note=74, velocity=64, time=28),
    Message('note_off', channel=2, note=69, velocity=64, time=4),
    Message('note_on', channel=2, note=69, velocity=104, time=64),
    Message('note_on', channel=2, note=74, velocity=104, time=0),
    Message('note_off', channel=2, note=69, velocity=64, time=38),
    Message('note_off', channel=2, note=74, velocity=64, time=0),
    Message('note_on', channel=2, note=69, velocity=104, time=58),
    Message('note_on', channel=2, note=74, velocity=104, time=0),
    Message('note_off', channel=2, note=69, velocity=64, time=32),
    Message('note_off', channel=2, note=74, velocity=64, time=0),
    Message('note_on', channel=2, note=74, velocity=104, time=64),
    Message('note_on', channel=2, note=69, velocity=104, time=0),
    Message('note_off', channel=2, note=74, velocity=64, time=65),
    Message('note_off', channel=2, note=69, velocity=64, time=0),
    Message('note_on', channel=2, note=76, velocity=104, time=127),
    Message('note_on', channel=2, note=71, velocity=104, time=0),
    Message('note_on', channel=2, note=64, velocity=104, time=0),
    Message('note_off', channel=2, note=64, velocity=64, time=33),
    Message('note_off', channel=2, note=71, velocity=64, time=8),
    Message('note_off', channel=2, note=76, velocity=64, time=3),
    Message('note_on', channel=2, note=64, velocity=104, time=244),
    Message('note_on', channel=2, note=76, velocity=104, time=0),
    Message('note_on', channel=2, note=71, velocity=104, time=0),
    Message('note_off', channel=2, note=64, velocity=64, time=110),
    Message('note_off', channel=2, note=71, velocity=64, time=3),
    Message('note_off', channel=2, note=76, velocity=64, time=10),
    Message('note_on', channel=2, note=76, velocity=104, time=165),
    Message('note_on', channel=2, note=71, velocity=104, time=0),
    Message('note_on', channel=2, note=64, velocity=104, time=0),
    Message('note_off', channel=2, note=71, velocity=64, time=73),
    Message('note_off', channel=2, note=64, velocity=64, time=0),
    Message('note_off', channel=2, note=76, velocity=64, time=2),
    Message('note_on', channel=2, note=69, velocity=104, time=213),
    Message('note_off', channel=2, note=69, velocity=64, time=76),
    Message('note_on', channel=2, note=69, velocity=104, time=20),
    Message('note_on', channel=2, note=74, velocity=104, time=0),
    Message('note_off', channel=2, note=74, velocity=64, time=312),
    Message('note_off', channel=2, note=69, velocity=64, time=6),
    Message('note_on', channel=2, note=69, velocity=104, time=66),
    Message('note_off', channel=2, note=69, velocity=64, time=80),
    Message('note_on', channel=2, note=64, velocity=104, time=112),
    Message('note_on', channel=2, note=71, velocity=104, time=0),
    Message('note_off', channel=2, note=71, velocity=64, time=32),
    Message('note_off', channel=2, note=64, velocity=64, time=1),
    Message('note_on', channel=2, note=64, velocity=104, time=63),
    Message('note_on', channel=2, note=71, velocity=104, time=0),
    Message('note_off', channel=2, note=71, velocity=64, time=128),
    Message('note_off', channel=2, note=64, velocity=64, time=12),
    Message('note_on', channel=2, note=64, velocity=104, time=52),
    Message('note_on', channel=2, note=71, velocity=104, time=0),
    Message('note_off', channel=2, note=64, velocity=64, time=134),
    Message('note_off', channel=2, note=71, velocity=64, time=56),
    Message('note_on', channel=2, note=64, velocity=104, time=2),
    Message('note_on', channel=2, note=71, velocity=104, time=96),
    Message('note_off', channel=2, note=64, velocity=64, time=38),
    Message('note_off', channel=2, note=71, velocity=64, time=13),
    Message('note_on', channel=2, note=74, velocity=104, time=141),
    Message('note_on', channel=2, note=69, velocity=104, time=0),
    Message('note_off', channel=2, note=69, velocity=64, time=41),
    Message('note_off', channel=2, note=74, velocity=64, time=3),
    Message('note_on', channel=2, note=74, velocity=104, time=244),
    Message('note_on', channel=2, note=69, velocity=104, time=0),
    Message('note_off', channel=2, note=69, velocity=64, time=113),
    Message('note_off', channel=2, note=74, velocity=64, time=10),
    Message('note_on', channel=2, note=74, velocity=104, time=165),
    Message('note_on', channel=2, note=69, velocity=104, time=0),
    Message('note_off', channel=2, note=69, velocity=64, time=73),
    Message('note_off', channel=2, note=74, velocity=64, time=2),
    Message('note_on', channel=2, note=76, velocity=104, time=117),
    Message('note_on', channel=2, note=71, velocity=104, time=0),
    Message('note_on', channel=2, note=64, velocity=104, time=0),
    Message('note_off', channel=2, note=64, velocity=64, time=33),
    Message('note_off', channel=2, note=71, velocity=64, time=8),
    Message('note_off', channel=2, note=76, velocity=64, time=3),
    Message('note_on', channel=2, note=64, velocity=104, time=244),
    Message('note_on', channel=2, note=76, velocity=104, time=0),
    Message('note_on', channel=2, note=71, velocity=104, time=0),
    Message('note_off', channel=2, note=64, velocity=64, time=110),
    Message('note_off', channel=2, note=71, velocity=64, time=3),
    Message('note_off', channel=2, note=76, velocity=64, time=10),
    Message('note_on', channel=2, note=76, velocity=104, time=165),
    Message('note_on', channel=2, note=71, velocity=104, time=0),
    Message('note_on', channel=2, note=64, velocity=104, time=0),
    Message('note_off', channel=2, note=71, velocity=64, time=73),
    Message('note_off', channel=2, note=64, velocity=64, time=0),
    Message('note_off', channel=2, note=76, velocity=64, time=2),
    Message('note_on', channel=2, note=69, velocity=104, time=117),
    Message('note_on', channel=2, note=74, velocity=104, time=0),
    Message('note_off', channel=2, note=69, velocity=64, time=33),
    Message('note_off', channel=2, note=74, velocity=64, time=0),
    Message('note_on', channel=2, note=74, velocity=104, time=63),
    Message('note_on', channel=2, note=69, velocity=104, time=0),
    Message('note_off', channel=2, note=69, velocity=64, time=108),
    Message('note_off', channel=2, note=74, velocity=64, time=7),
    Message('note_on', channel=2, note=69, velocity=104, time=77),
    Message('note_on', channel=2, note=74, velocity=104, time=0),
    Message('note_off', channel=2, note=74, velocity=64, time=28),
    Message('note_off', channel=2, note=69, velocity=64, time=4),
    Message('note_on', channel=2, note=69, velocity=104, time=64),
    Message('note_on', channel=2, note=74, velocity=104, time=0),
    Message('note_off', channel=2, note=69, velocity=64, time=38),
    Message('note_off', channel=2, note=74, velocity=64, time=0),
    Message('note_on', channel=2, note=69, velocity=104, time=58),
    Message('note_on', channel=2, note=74, velocity=104, time=0),
    Message('note_off', channel=2, note=69, velocity=64, time=32),
    Message('note_off', channel=2, note=74, velocity=64, time=0),
    Message('note_on', channel=2, note=74, velocity=104, time=64),
    Message('note_on', channel=2, note=69, velocity=104, time=0),
    Message('note_off', channel=2, note=74, velocity=64, time=65),
    Message('note_off', channel=2, note=69, velocity=64, time=0),
    Message('note_on', channel=2, note=71, velocity=104, time=127),
    Message('note_on', channel=2, note=64, velocity=104, time=0),
    Message('note_off', channel=2, note=64, velocity=64, time=38),
    Message('note_off', channel=2, note=71, velocity=64, time=6),
    Message('note_on', channel=2, note=64, velocity=104, time=52),
    Message('note_on', channel=2, note=71, velocity=104, time=0),
    Message('note_off', channel=2, note=71, velocity=64, time=116),
    Message('note_off', channel=2, note=64, velocity=64, time=16),
    Message('note_on', channel=2, note=71, velocity=104, time=60),
    Message('note_on', channel=2, note=64, velocity=104, time=0),
    Message('note_off', channel=2, note=64, velocity=64, time=28),
    Message('note_off', channel=2, note=71, velocity=64, time=2),
    Message('note_on', channel=2, note=64, velocity=104, time=66),
    Message('note_on', channel=2, note=71, velocity=104, time=0),
    Message('note_off', channel=2, note=71, velocity=64, time=118),
    Message('note_off', channel=2, note=64, velocity=64, time=2),
    Message('note_on', channel=2, note=71, velocity=104, time=72),
    Message('note_on', channel=2, note=64, velocity=104, time=0),
    Message('note_off', channel=2, note=64, velocity=64, time=224),
    Message('note_off', channel=2, note=71, velocity=64, time=28),
    Message('note_on', channel=2, note=64, velocity=104, time=36),
    Message('note_on', channel=2, note=71, velocity=104, time=96),
    Message('note_off', channel=2, note=64, velocity=64, time=70),
    Message('note_off', channel=2, note=71, velocity=64, time=26),
    Message('note_on', channel=2, note=76, velocity=104, time=0),
    Message('note_on', channel=2, note=64, velocity=104, time=96),
    Message('note_on', channel=2, note=71, velocity=104, time=96),
    Message('note_off', channel=2, note=76, velocity=64, time=11),
    Message('note_off', channel=2, note=64, velocity=64, time=37),
    Message('note_on', channel=2, note=64, velocity=104, time=48),
    Message('note_off', channel=2, note=71, velocity=64, time=33),
    Message('note_off', channel=2, note=64, velocity=64, time=29),
    Message('note_on', channel=2, note=64, velocity=104, time=130),
    Message('note_on', channel=2, note=71, velocity=104, time=0),
    Message('note_off', channel=2, note=71, velocity=64, time=32),
    Message('note_off', channel=2, note=64, velocity=64, time=1),
    Message('note_on', channel=2, note=64, velocity=104, time=63),
    Message('note_on', channel=2, note=71, velocity=104, time=0),
    Message('note_off', channel=2, note=71, velocity=64, time=128),
    Message('note_off', channel=2, note=64, velocity=64, time=12),
    Message('note_on', channel=2, note=64, velocity=104, time=52),
    Message('note_on', channel=2, note=71, velocity=104, time=0),
    Message('note_off', channel=2, note=64, velocity=64, time=134),
    Message('note_off', channel=2, note=71, velocity=64, time=56),
    Message('note_on', channel=2, note=64, velocity=104, time=2),
    Message('note_on', channel=2, note=71, velocity=104, time=96),
    Message('note_off', channel=2, note=64, velocity=64, time=38),
    Message('note_off', channel=2, note=71, velocity=64, time=13),
    Message('note_on', channel=2, note=74, velocity=104, time=141),
    Message('note_on', channel=2, note=69, velocity=104, time=0),
    Message('note_off', channel=2, note=69, velocity=64, time=41),
    Message('note_off', channel=2, note=74, velocity=64, time=3),
    Message('note_on', channel=2, note=74, velocity=104, time=244),
    Message('note_on', channel=2, note=69, velocity=104, time=0),
    Message('note_off', channel=2, note=69, velocity=64, time=113),
    Message('note_off', channel=2, note=74, velocity=64, time=10),
    Message('note_on', channel=2, note=74, velocity=104, time=165),
    Message('note_on', channel=2, note=69, velocity=104, time=0),
    Message('note_off', channel=2, note=69, velocity=64, time=73),
    Message('note_off', channel=2, note=74, velocity=64, time=2),
    Message('control_change', channel=2, control=64, value=0, time=21),
    Message('control_change', channel=2, control=7, value=100, time=0),
    Message('note_on', channel=2, note=76, velocity=104, time=96),
    Message('note_on', channel=2, note=71, velocity=104, time=0),
    Message('note_on', channel=2, note=64, velocity=104, time=0),
    Message('note_off', channel=2, note=64, velocity=64, time=33),
    Message('note_off', channel=2, note=71, velocity=64, time=8),
    Message('note_off', channel=2, note=76, velocity=64, time=3),
    Message('note_on', channel=2, note=64, velocity=104, time=244),
    Message('note_on', channel=2, note=76, velocity=104, time=0),
    Message('note_on', channel=2, note=71, velocity=104, time=0),
    Message('note_off', channel=2, note=64, velocity=64, time=110),
    Message('note_off', channel=2, note=71, velocity=64, time=3),
    Message('note_off', channel=2, note=76, velocity=64, time=10),
    Message('note_on', channel=2, note=76, velocity=104, time=165),
    Message('note_on', channel=2, note=71, velocity=104, time=0),
    Message('note_on', channel=2, note=64, velocity=104, time=0),
    Message('note_off', channel=2, note=71, velocity=64, time=73),
    Message('note_off', channel=2, note=64, velocity=64, time=0),
    Message('note_off', channel=2, note=76, velocity=64, time=2),
    Message('note_on', channel=2, note=69, velocity=104, time=117),
    Message('note_off', channel=2, note=69, velocity=64, time=174),
    Message('note_on', channel=2, note=74, velocity=104, time=402),
    Message('note_on', channel=2, note=69, velocity=104, time=0),
    Message('note_off', channel=2, note=69, velocity=64, time=65),
    Message('note_off', channel=2, note=74, velocity=64, time=16),
    Message('note_on', channel=2, note=71, velocity=104, time=15),
    Message('note_on', channel=2, note=64, velocity=104, time=0),
    Message('note_off', channel=2, note=71, velocity=64, time=100),
    Message('note_off', channel=2, note=64, velocity=64, time=5),
    Message('note_on', channel=2, note=71, velocity=104, time=87),
    Message('note_on', channel=2, note=64, velocity=104, time=0),
    Message('note_off', channel=2, note=64, velocity=64, time=24),
    Message('note_off', channel=2, note=71, velocity=64, time=1),
    Message('note_on', channel=2, note=64, velocity=104, time=71),
    Message('note_on', channel=2, note=71, velocity=104, time=0),
    Message('note_off', channel=2, note=64, velocity=64, time=244),
    Message('note_off', channel=2, note=71, velocity=64, time=10),
    Message('note_on', channel=2, note=71, velocity=104, time=130),
    Message('note_on', channel=2, note=64, velocity=104, time=0),
    Message('note_off', channel=2, note=71, velocity=64, time=204),
    Message('note_off', channel=2, note=64, velocity=64, time=4),
    Message('note_on', channel=2, note=64, velocity=104, time=80),
    Message('note_on', channel=2, note=71, velocity=104, time=0),
    Message('note_off', channel=2, note=64, velocity=64, time=35),
    Message('note_off', channel=2, note=71, velocity=64, time=0),
    Message('note_on', channel=2, note=64, velocity=104, time=61),
    Message('note_on', channel=2, note=71, velocity=104, time=0),
    Message('note_off', channel=2, note=64, velocity=64, time=36),
    Message('note_off', channel=2, note=71, velocity=64, time=0),
    Message('note_on', channel=2, note=64, velocity=104, time=60),
    Message('note_on', channel=2, note=71, velocity=104, time=0),
    Message('note_off', channel=2, note=64, velocity=64, time=33),
    Message('note_off', channel=2, note=71, velocity=64, time=0),
    Message('note_on', channel=2, note=64, velocity=104, time=63),
    Message('note_on', channel=2, note=71, velocity=104, time=0),
    Message('note_off', channel=2, note=64, velocity=64, time=32),
    Message('note_off', channel=2, note=71, velocity=64, time=4),
    Message('note_on', channel=2, note=64, velocity=104, time=60),
    Message('note_on', channel=2, note=71, velocity=104, time=0),
    Message('note_off', channel=2, note=64, velocity=64, time=44),
    Message('note_off', channel=2, note=71, velocity=64, time=0),
    Message('note_on', channel=2, note=71, velocity=104, time=52),
    Message('note_on', channel=2, note=64, velocity=104, time=0),
    Message('note_off', channel=2, note=64, velocity=64, time=43),
    Message('note_off', channel=2, note=71, velocity=64, time=1),
    Message('note_on', channel=2, note=64, velocity=104, time=436),
    Message('note_off', channel=2, note=64, velocity=64, time=228),
    Message('note_on', channel=2, note=64, velocity=104, time=60),
    Message('note_off', channel=2, note=64, velocity=64, time=155),
    Message('note_on', channel=2, note=69, velocity=104, time=37),
    Message('note_on', channel=2, note=64, velocity=104, time=0),
    Message('note_off', channel=2, note=64, velocity=64, time=57),
    Message('note_off', channel=2, note=69, velocity=64, time=7),
    Message('note_on', channel=2, note=64, velocity=104, time=224),
    Message('note_off', channel=2, note=64, velocity=64, time=177),
    Message('note_on', channel=2, note=69, velocity=104, time=15),
    Message('note_off', channel=2, note=69, velocity=64, time=136),
    Message('note_on', channel=2, note=71, velocity=104, time=152),
    Message('note_on', channel=2, note=64, velocity=104, time=0),
    Message('note_off', channel=2, note=64, velocity=64, time=43),
    Message('note_off', channel=2, note=71, velocity=64, time=11),
    Message('note_on', channel=2, note=64, velocity=104, time=234),
    Message('note_on', channel=2, note=71, velocity=104, time=0),
    Message('note_off', channel=2, note=71, velocity=64, time=217),
    Message('note_off', channel=2, note=64, velocity=64, time=13),
    Message('note_on', channel=2, note=71, velocity=104, time=58),
    Message('note_on', channel=2, note=64, velocity=104, time=0),
    Message('note_off', channel=2, note=64, velocity=64, time=240),
    Message('note_off', channel=2, note=71, velocity=64, time=35),
    Message('note_on', channel=2, note=64, velocity=104, time=13),
    Message('note_on', channel=2, note=71, velocity=104, time=192),
    Message('note_off', channel=2, note=64, velocity=64, time=118),
    Message('note_on', channel=2, note=64, velocity=104, time=74),
    Message('note_off', channel=2, note=71, velocity=64, time=41),
    Message('note_on', channel=2, note=71, velocity=104, time=55),
    Message('note_off', channel=2, note=71, velocity=64, time=80),
    Message('note_off', channel=2, note=64, velocity=64, time=16),
    Message('note_on', channel=2, note=64, velocity=104, time=96),
    Message('note_off', channel=2, note=64, velocity=64, time=83),
    Message('note_on', channel=2, note=64, velocity=104, time=205),
    Message('note_off', channel=2, note=64, velocity=64, time=244),
    Message('note_on', channel=2, note=64, velocity=104, time=44),
    Message('note_off', channel=2, note=64, velocity=64, time=96),
    Message('note_on', channel=2, note=69, velocity=104, time=48),
    Message('note_off', channel=2, note=69, velocity=64, time=70),
    Message('note_on', channel=2, note=69, velocity=104, time=74),
    Message('note_off', channel=2, note=69, velocity=64, time=83),
    Message('note_on', channel=2, note=69, velocity=104, time=61),
    Message('note_off', channel=2, note=69, velocity=64, time=73),
    Message('note_on', channel=2, note=64, velocity=104, time=119),
    Message('note_off', channel=2, note=64, velocity=64, time=65),
    Message('note_on', channel=2, note=69, velocity=104, time=31),
    Message('note_off', channel=2, note=69, velocity=64, time=59),
    Message('note_on', channel=2, note=71, velocity=104, time=181),
    Message('note_off', channel=2, note=71, velocity=64, time=44),
    Message('note_on', channel=2, note=71, velocity=104, time=52),
    Message('note_off', channel=2, note=71, velocity=64, time=116),
    Message('note_on', channel=2, note=71, velocity=104, time=76),
    Message('note_off', channel=2, note=71, velocity=64, time=30),
    Message('note_on', channel=2, note=71, velocity=104, time=66),
    Message('note_off', channel=2, note=71, velocity=64, time=118),
    Message('note_on', channel=2, note=71, velocity=104, time=74),
    Message('note_off', channel=2, note=71, velocity=64, time=252),
    Message('note_on', channel=2, note=64, velocity=104, time=36),
    Message('note_on', channel=2, note=71, velocity=104, time=96),
    Message('note_off', channel=2, note=64, velocity=64, time=70),
    Message('note_off', channel=2, note=71, velocity=64, time=26),
    Message('note_on', channel=2, note=76, velocity=104, time=0),
    Message('note_on', channel=2, note=64, velocity=104, time=96),
    Message('note_on', channel=2, note=71, velocity=104, time=96),
    Message('note_off', channel=2, note=76, velocity=64, time=11),
    Message('note_off', channel=2, note=64, velocity=64, time=37),
    Message('note_on', channel=2, note=64, velocity=104, time=48),
    Message('note_off', channel=2, note=71, velocity=64, time=33),
    Message('note_off', channel=2, note=64, velocity=64, time=29),
    Message('note_on', channel=2, note=71, velocity=104, time=130),
    Message('note_off', channel=2, note=71, velocity=64, time=32),
    Message('note_on', channel=2, note=71, velocity=104, time=64),
    Message('note_off', channel=2, note=71, velocity=64, time=128),
    Message('note_on', channel=2, note=71, velocity=104, time=64),
    Message('note_off', channel=2, note=71, velocity=64, time=190),
    Message('note_on', channel=2, note=71, velocity=104, time=98),
    Message('note_off', channel=2, note=71, velocity=64, time=51),
    Message('note_on', channel=2, note=69, velocity=104, time=141),
    Message('note_off', channel=2, note=69, velocity=64, time=33),
    Message('note_on', channel=2, note=69, velocity=104, time=63),
    Message('note_off', channel=2, note=69, velocity=64, time=115),
    Message('note_on', channel=2, note=64, velocity=104, time=77),
    Message('note_on', channel=2, note=69, velocity=104, time=0),
    Message('note_off', channel=2, note=69, velocity=64, time=28),
    Message('note_off', channel=2, note=64, velocity=64, time=4),
    Message('note_on', channel=2, note=69, velocity=104, time=64),
    Message('note_off', channel=2, note=69, velocity=64, time=38),
    Message('note_on', channel=2, note=64, velocity=104, time=58),
    Message('note_off', channel=2, note=64, velocity=64, time=32),
    Message('note_on', channel=2, note=64, velocity=104, time=64),
    Message('note_off', channel=2, note=64, velocity=64, time=65),
    Message('note_on', channel=2, note=71, velocity=104, time=127),
    Message('note_off', channel=2, note=71, velocity=64, time=32),
    Message('note_on', channel=2, note=64, velocity=104, time=64),
    Message('note_off', channel=2, note=64, velocity=64, time=140),
    Message('note_on', channel=2, note=71, velocity=104, time=52),
    Message('note_off', channel=2, note=71, velocity=64, time=190),
    Message('note_on', channel=2, note=64, velocity=104, time=2),
    Message('note_on', channel=2, note=71, velocity=104, time=96),
    Message('note_off', channel=2, note=64, velocity=64, time=38),
    Message('note_off', channel=2, note=71, velocity=64, time=13),
    Message('note_on', channel=2, note=69, velocity=104, time=141),
    Message('note_off', channel=2, note=69, velocity=64, time=32),
    Message('note_on', channel=2, note=69, velocity=104, time=64),
    Message('note_off', channel=2, note=69, velocity=64, time=128),
    Message('note_on', channel=2, note=69, velocity=104, time=64),
    Message('note_off', channel=2, note=69, velocity=64, time=190),
    Message('note_on', channel=2, note=69, velocity=104, time=50),
    Message('note_off', channel=2, note=69, velocity=64, time=17),
    Message('note_on', channel=2, note=69, velocity=104, time=31),
    Message('note_off', channel=2, note=69, velocity=64, time=51),
    Message('note_on', channel=2, note=76, velocity=104, time=141),
    Message('note_off', channel=2, note=76, velocity=64, time=14),
    Message('note_on', channel=2, note=71, velocity=104, time=82),
    Message('note_on', channel=2, note=64, velocity=104, time=96),
    Message('note_off', channel=2, note=71, velocity=64, time=20),
    Message('note_on', channel=2, note=76, velocity=104, time=76),
    Message('note_off', channel=2, note=64, velocity=64, time=30),
    Message('note_on', channel=2, note=71, velocity=104, time=18),
    Message('note_off', channel=2, note=76, velocity=64, time=16),
    Message('note_on', channel=2, note=64, velocity=104, time=32),
    Message('note_off', channel=2, note=71, velocity=64, time=27),
    Message('note_on', channel=2, note=76, velocity=104, time=21),
    Message('note_off', channel=2, note=64, velocity=64, time=25),
    Message('note_on', channel=2, note=71, velocity=104, time=23),
    Message('note_off', channel=2, note=76, velocity=64, time=11),
    Message('note_on', channel=2, note=64, velocity=104, time=37),
    Message('note_off', channel=2, note=71, velocity=64, time=27),
    Message('note_on', channel=2, note=76, velocity=104, time=21),
    Message('note_off', channel=2, note=64, velocity=64, time=24),
    Message('note_on', channel=2, note=71, velocity=104, time=24),
    Message('note_off', channel=2, note=76, velocity=64, time=3),
    Message('note_off', channel=2, note=71, velocity=64, time=45),
    Message('note_on', channel=2, note=74, velocity=104, time=96),
    Message('note_off', channel=2, note=74, velocity=64, time=14),
    Message('note_on', channel=2, note=69, velocity=104, time=82),
    Message('note_off', channel=2, note=69, velocity=64, time=116),
    Message('note_on', channel=2, note=74, velocity=104, time=76),
    Message('note_on', channel=2, note=69, velocity=104, time=48),
    Message('note_off', channel=2, note=74, velocity=64, time=16),
    Message('note_off', channel=2, note=69, velocity=64, time=59),
    Message('note_on', channel=2, note=74, velocity=104, time=21),
    Message('note_on', channel=2, note=69, velocity=104, time=48),
    Message('note_off', channel=2, note=74, velocity=64, time=11),
    Message('note_off', channel=2, note=69, velocity=64, time=64),
    Message('note_on', channel=2, note=74, velocity=104, time=21),
    Message('note_on', channel=2, note=69, velocity=104, time=48),
    Message('note_off', channel=2, note=74, velocity=64, time=3),
    Message('note_off', channel=2, note=69, velocity=64, time=45),
    Message('note_on', channel=2, note=76, velocity=99, time=96),
    Message('note_off', channel=2, note=76, velocity=64, time=14),
    Message('note_on', channel=2, note=71, velocity=99, time=82),
    Message('note_on', channel=2, note=64, velocity=99, time=96),
    Message('note_off', channel=2, note=71, velocity=64, time=20),
    Message('note_on', channel=2, note=76, velocity=99, time=76),
    Message('note_off', channel=2, note=64, velocity=64, time=30),
    Message('note_on', channel=2, note=71, velocity=99, time=18),
    Message('note_off', channel=2, note=76, velocity=64, time=16),
    Message('note_on', channel=2, note=64, velocity=99, time=32),
    Message('note_off', channel=2, note=71, velocity=64, time=27),
    Message('note_on', channel=2, note=76, velocity=99, time=21),
    Message('note_off', channel=2, note=64, velocity=64, time=25),
    Message('note_on', channel=2, note=71, velocity=99, time=23),
    Message('note_off', channel=2, note=76, velocity=64, time=11),
    Message('note_on', channel=2, note=64, velocity=99, time=37),
    Message('note_off', channel=2, note=71, velocity=64, time=27),
    Message('note_on', channel=2, note=76, velocity=99, time=21),
    Message('note_off', channel=2, note=64, velocity=64, time=24),
    Message('note_on', channel=2, note=71, velocity=99, time=24),
    Message('note_off', channel=2, note=76, velocity=64, time=3),
    Message('note_off', channel=2, note=71, velocity=64, time=45),
    Message('note_on', channel=2, note=69, velocity=104, time=96),
    Message('note_off', channel=2, note=69, velocity=64, time=32),
    Message('note_on', channel=2, note=69, velocity=104, time=64),
    Message('note_off', channel=2, note=69, velocity=64, time=128),
    Message('note_on', channel=2, note=69, velocity=104, time=64),
    Message('note_off', channel=2, note=69, velocity=64, time=190),
    Message('note_on', channel=2, note=69, velocity=104, time=98),
    Message('note_off', channel=2, note=69, velocity=64, time=51),
    Message('control_change', channel=2, control=7, value=99, time=45),
    Message('control_change', channel=2, control=7, value=98, time=72),
    Message('note_on', channel=2, note=64, velocity=104, time=24),
    Message('note_on', channel=2, note=71, velocity=104, time=0),
    Message('control_change', channel=2, control=7, value=97, time=24),
    Message('note_off', channel=2, note=71, velocity=64, time=8),
    Message('note_off', channel=2, note=64, velocity=64, time=1),
    Message('control_change', channel=2, control=7, value=96, time=39),
    Message('note_on', channel=2, note=64, velocity=104, time=24),
    Message('note_on', channel=2, note=71, velocity=104, time=0),
    Message('control_change', channel=2, control=7, value=95, time=24),
    Message('control_change', channel=2, control=7, value=94, time=72),
    Message('note_off', channel=2, note=71, velocity=64, time=32),
    Message('note_off', channel=2, note=64, velocity=64, time=12),
    Message('control_change', channel=2, control=7, value=93, time=4),
    Message('control_change', channel=2, control=7, value=92, time=48),
    Message('note_on', channel=2, note=64, velocity=104, time=0),
    Message('note_on', channel=2, note=71, velocity=104, time=0),
    Message('control_change', channel=2, control=7, value=91, time=48),
    Message('control_change', channel=2, control=7, value=90, time=72),
    Message('note_off', channel=2, note=64, velocity=64, time=14),
    Message('control_change', channel=2, control=7, value=89, time=34),
    Message('note_off', channel=2, note=71, velocity=64, time=22),
    Message('note_on', channel=2, note=64, velocity=104, time=2),
    Message('control_change', channel=2, control=7, value=88, time=24),
    Message('control_change', channel=2, control=7, value=87, time=48),
    Message('note_on', channel=2, note=71, velocity=104, time=24),
    Message('note_off', channel=2, note=64, velocity=64, time=38),
    Message('control_change', channel=2, control=7, value=86, time=10),
    Message('note_off', channel=2, note=71, velocity=64, time=3),
    Message('control_change', channel=2, control=7, value=85, time=45),
    Message('control_change', channel=2, control=7, value=84, time=48),
    Message('control_change', channel=2, control=7, value=83, time=48),
    Message('note_on', channel=2, note=74, velocity=104, time=0),
    Message('note_off', channel=2, note=74, velocity=64, time=14),
    Message('control_change', channel=2, control=7, value=82, time=58),
    Message('note_on', channel=2, note=69, velocity=104, time=24),
    Message('control_change', channel=2, control=7, value=81, time=24),
    Message('control_change', channel=2, control=7, value=80, time=48),
    Message('note_off', channel=2, note=69, velocity=64, time=44),
    Message('control_change', channel=2, control=7, value=79, time=4),
    Message('control_change', channel=2, control=7, value=78, time=72),
    Message('note_on', channel=2, note=74, velocity=104, time=0),
    Message('control_change', channel=2, control=7, value=77, time=48),
    Message('note_on', channel=2, note=69, velocity=104, time=0),
    Message('note_off', channel=2, note=74, velocity=64, time=16),
    Message('control_change', channel=2, control=7, value=76, time=32),
    Message('note_off', channel=2, note=69, velocity=64, time=27),
    Message('control_change', channel=2, control=7, value=75, time=21),
    Message('note_on', channel=2, note=74, velocity=104, time=0),
    Message('control_change', channel=2, control=7, value=74, time=48),
    Message('note_on', channel=2, note=69, velocity=104, time=0),
    Message('note_off', channel=2, note=74, velocity=64, time=11),
    Message('control_change', channel=2, control=7, value=73, time=61),
    Message('note_off', channel=2, note=69, velocity=64, time=3),
    Message('note_on', channel=2, note=74, velocity=104, time=21),
    Message('control_change', channel=2, control=7, value=72, time=24),
    Message('note_on', channel=2, note=69, velocity=104, time=24),
    Message('note_off', channel=2, note=74, velocity=64, time=3),
    Message('control_change', channel=2, control=7, value=71, time=21),
    Message('note_off', channel=2, note=69, velocity=64, time=24),
    Message('control_change', channel=2, control=7, value=70, time=24),
    Message('control_change', channel=2, control=7, value=69, time=72),
    Message('note_on', channel=2, note=64, velocity=104, time=0),
    Message('control_change', channel=2, control=7, value=68, time=48),
    Message('control_change', channel=2, control=7, value=67, time=48),
    Message('note_on', channel=2, note=71, velocity=104, time=0),
    Message('control_change', channel=2, control=7, value=66, time=48),
    Message('note_off', channel=2, note=71, velocity=64, time=28),
    Message('note_off', channel=2, note=64, velocity=64, time=12),
    Message('note_on', channel=2, note=71, velocity=104, time=8),
    Message('note_on', channel=2, note=76, velocity=104, time=0),
    Message('note_on', channel=2, note=64, velocity=104, time=0),
    Message('control_change', channel=2, control=7, value=65, time=24),
    Message('control_change', channel=2, control=7, value=64, time=48),
    Message('control_change', channel=2, control=7, value=63, time=48),
    Message('control_change', channel=2, control=7, value=62, time=48),
    Message('note_off', channel=2, note=64, velocity=64, time=54),
    Message('control_change', channel=2, control=7, value=61, time=18),
    Message('control_change', channel=2, control=7, value=60, time=48),
    Message('note_on', channel=2, note=64, velocity=104, time=0),
    Message('note_off', channel=2, note=76, velocity=64, time=24),
    Message('note_off', channel=2, note=71, velocity=64, time=6),
    Message('control_change', channel=2, control=7, value=59, time=18),
    Message('control_change', channel=2, control=7, value=58, time=48),
    Message('note_on', channel=2, note=71, velocity=104, time=0),
    Message('control_change', channel=2, control=7, value=57, time=72),
    Message('note_off', channel=2, note=71, velocity=64, time=8),
    Message('note_off', channel=2, note=64, velocity=64, time=1),
    Message('control_change', channel=2, control=7, value=56, time=39),
    Message('control_change', channel=2, control=7, value=55, time=48),
    Message('note_on', channel=2, note=69, velocity=104, time=24),
    Message('note_on', channel=2, note=74, velocity=104, time=0),
    Message('control_change', channel=2, control=7, value=54, time=24),
    Message('note_off', channel=2, note=69, velocity=64, time=9),
    Message('note_off', channel=2, note=74, velocity=64, time=0),
    Message('control_change', channel=2, control=7, value=53, time=63),
    Message('note_on', channel=2, note=74, velocity=104, time=0),
    Message('note_on', channel=2, note=69, velocity=104, time=0),
    Message('control_change', channel=2, control=7, value=52, time=48),
    Message('control_change', channel=2, control=7, value=51, time=48),
    Message('note_off', channel=2, note=69, velocity=64, time=12),
    Message('note_off', channel=2, note=74, velocity=64, time=7),
    Message('control_change', channel=2, control=7, value=50, time=29),
    Message('control_change', channel=2, control=7, value=49, time=48),
    Message('note_on', channel=2, note=69, velocity=104, time=0),
    Message('note_on', channel=2, note=74, velocity=104, time=0),
    Message('note_off', channel=2, note=74, velocity=64, time=28),
    Message('note_off', channel=2, note=69, velocity=64, time=4),
    Message('control_change', channel=2, control=7, value=48, time=40),
    Message('note_on', channel=2, note=69, velocity=104, time=24),
    Message('note_on', channel=2, note=74, velocity=104, time=0),
    Message('control_change', channel=2, control=7, value=47, time=24),
    Message('note_off', channel=2, note=69, velocity=64, time=14),
    Message('note_off', channel=2, note=74, velocity=64, time=0),
    Message('control_change', channel=2, control=7, value=46, time=34),
    Message('note_on', channel=2, note=69, velocity=104, time=24),
    Message('note_on', channel=2, note=74, velocity=104, time=0),
    Message('control_change', channel=2, control=7, value=45, time=24),
    Message('note_off', channel=2, note=69, velocity=64, time=8),
    Message('note_off', channel=2, note=74, velocity=64, time=0),
    Message('control_change', channel=2, control=7, value=44, time=64),
    Message('note_on', channel=2, note=74, velocity=104, time=0),
    Message('note_on', channel=2, note=69, velocity=104, time=0),
    Message('control_change', channel=2, control=7, value=43, time=48),
    Message('note_off', channel=2, note=74, velocity=64, time=17),
    Message('note_off', channel=2, note=69, velocity=64, time=0),
    Message('control_change', channel=2, control=7, value=42, time=31),
    Message('control_change', channel=2, control=7, value=41, time=48),
    Message('note_on', channel=2, note=76, velocity=104, time=48),
    Message('note_on', channel=2, note=71, velocity=104, time=0),
    Message('note_on', channel=2, note=64, velocity=104, time=0),
    Message('control_change', channel=2, control=7, value=40, time=24),
    Message('note_off', channel=2, note=64, velocity=64, time=9),
    Message('note_off', channel=2, note=71, velocity=64, time=8),
    Message('note_off', channel=2, note=76, velocity=64, time=3),
    Message('control_change', channel=2, control=7, value=39, time=28),
    Message('control_change', channel=2, control=7, value=38, time=48),
    Message('control_change', channel=2, control=7, value=37, time=48),
    Message('control_change', channel=2, control=7, value=36, time=72),
    Message('control_change', channel=2, control=7, value=35, time=48),
    Message('note_on', channel=2, note=64, velocity=104, time=0),
    Message('note_on', channel=2, note=76, velocity=104, time=0),
    Message('note_on', channel=2, note=71, velocity=104, time=0),
    Message('control_change', channel=2, control=7, value=34, time=48),
    Message('control_change', channel=2, control=7, value=33, time=48),
    Message('note_off', channel=2, note=64, velocity=64, time=14),
    Message('note_off', channel=2, note=71, velocity=64, time=3),
    Message('note_off', channel=2, note=76, velocity=64, time=10),
    Message('control_change', channel=2, control=7, value=32, time=45),
    Message('control_change', channel=2, control=7, value=31, time=48),
    Message('control_change', channel=2, control=7, value=30, time=48),
    Message('note_on', channel=2, note=76, velocity=104, time=24),
    Message('note_on', channel=2, note=71, velocity=104, time=0),
    Message('note_on', channel=2, note=64, velocity=104, time=0),
    Message('control_change', channel=2, control=7, value=29, time=24),
    Message('note_off', channel=2, note=71, velocity=64, time=49),
    Message('note_off', channel=2, note=64, velocity=64, time=0),
    Message('note_off', channel=2, note=76, velocity=64, time=2),
    Message('control_change', channel=2, control=7, value=19, time=21),
    Message('control_change', channel=2, control=7, value=18, time=96),
    Message('control_change', channel=2, control=7, value=17, time=72),
    Message('note_on', channel=2, note=69, velocity=104, time=24),
    Message('control_change', channel=2, control=7, value=16, time=48),
    Message('note_off', channel=2, note=69, velocity=64, time=28),
    Message('note_on', channel=2, note=69, velocity=104, time=20),
    Message('note_on', channel=2, note=74, velocity=104, time=0),
    Message('control_change', channel=2, control=7, value=15, time=24),
    Message('control_change', channel=2, control=7, value=14, time=72),
    Message('control_change', channel=2, control=7, value=13, time=96),
    Message('control_change', channel=2, control=7, value=12, time=72),
    Message('note_off', channel=2, note=74, velocity=64, time=48),
    Message('note_off', channel=2, note=69, velocity=64, time=6),
    Message('control_change', channel=2, control=7, value=11, time=18),
    Message('note_on', channel=2, note=69, velocity=104, time=48),
    Message('control_change', channel=2, control=7, value=10, time=24),
    Message('note_off', channel=2, note=69, velocity=64, time=56),
    Message('control_change', channel=2, control=7, value=9, time=16),
    Message('control_change', channel=2, control=7, value=8, time=96),
    Message('note_on', channel=2, note=64, velocity=104, time=0),
    Message('note_on', channel=2, note=71, velocity=104, time=0),
    Message('note_off', channel=2, note=71, velocity=64, time=32),
    Message('note_off', channel=2, note=64, velocity=64, time=1),
    Message('control_change', channel=2, control=7, value=7, time=39),
    Message('note_on', channel=2, note=64, velocity=104, time=24),
    Message('note_on', channel=2, note=71, velocity=104, time=0),
    Message('control_change', channel=2, control=7, value=6, time=48),
    Message('control_change', channel=2, control=7, value=5, time=72),
    Message('note_off', channel=2, note=71, velocity=64, time=8),
    Message('note_off', channel=2, note=64, velocity=64, time=12),
    Message('control_change', channel=2, control=7, value=4, time=52),
    Message('note_on', channel=2, note=64, velocity=104, time=0),
    Message('note_on', channel=2, note=71, velocity=104, time=0),
    Message('control_change', channel=2, control=7, value=3, time=96),
    Message('note_off', channel=2, note=64, velocity=64, time=38),
    Message('control_change', channel=2, control=7, value=2, time=34),
    Message('note_off', channel=2, note=71, velocity=64, time=22),
    Message('note_on', channel=2, note=64, velocity=104, time=2),
    Message('control_change', channel=2, control=7, value=1, time=48),
    Message('note_on', channel=2, note=71, velocity=104, time=48),
    Message('control_change', channel=2, control=7, value=0, time=24),
    Message('note_off', channel=2, note=64, velocity=64, time=14),
    Message('note_off', channel=2, note=71, velocity=64, time=13),
    Message('pitchwheel', channel=2, pitch=0, time=813),
    Message('polytouch', channel=2, note=64, value=0, time=0),
    Message('aftertouch', channel=2, value=0, time=0),
    Message('control_change', channel=2, control=1, value=0, time=0),
    Message('control_change', channel=2, control=2, value=0, time=0),
    Message('control_change', channel=2, control=4, value=0, time=0),
    Message('control_change', channel=2, control=7, value=100, time=0),
    Message('control_change', channel=2, control=8, value=0, time=0),
    Message('control_change', channel=2, control=10, value=63, time=0),
    Message('control_change', channel=2, control=64, value=0, time=0),
    Message('control_change', channel=2, control=65, value=0, time=0),
    Message('control_change', channel=2, control=66, value=0, time=0),
    Message('control_change', channel=2, control=67, value=0, time=0),
    Message('control_change', channel=2, control=68, value=0, time=0),
    MetaMessage('end_of_track', time=0)]),
  MidiTrack([
    MetaMessage('midi_port', port=0, time=0),
    MetaMessage('track_name', name='Main Melody         ', time=0),
    Message('program_change', channel=6, program=14, time=0),
    Message('control_change', channel=6, control=7, value=105, time=0),
    Message('control_change', channel=6, control=10, value=64, time=0),
    Message('control_change', channel=6, control=7, value=106, time=264),
    Message('control_change', channel=6, control=7, value=107, time=264),
    Message('control_change', channel=6, control=7, value=108, time=239),
    Message('note_on', channel=6, note=56, velocity=106, time=6357),
    Message('note_off', channel=6, note=56, velocity=64, time=153),
    Message('note_on', channel=6, note=59, velocity=106, time=135),
    Message('note_off', channel=6, note=59, velocity=64, time=230),
    Message('note_on', channel=6, note=62, velocity=106, time=58),
    Message('note_off', channel=6, note=62, velocity=64, time=153),
    Message('note_on', channel=6, note=59, velocity=106, time=135),
    Message('note_off', channel=6, note=59, velocity=64, time=234),
    Message('note_on', channel=6, note=61, velocity=106, time=54),
    Message('note_off', channel=6, note=61, velocity=64, time=76),
    Message('note_on', channel=6, note=49, velocity=106, time=308),
    Message('note_off', channel=6, note=49, velocity=64, time=268),
    Message('note_on', channel=6, note=52, velocity=106, time=20),
    Message('note_off', channel=6, note=52, velocity=64, time=230),
    Message('note_on', channel=6, note=55, velocity=106, time=58),
    Message('note_off', channel=6, note=55, velocity=64, time=153),
    Message('note_on', channel=6, note=52, velocity=106, time=231),
    Message('note_off', channel=6, note=52, velocity=64, time=268),
    Message('note_on', channel=6, note=56, velocity=106, time=308),
    Message('note_off', channel=6, note=56, velocity=64, time=153),
    Message('note_on', channel=6, note=59, velocity=106, time=135),
    Message('note_off', channel=6, note=59, velocity=64, time=230),
    Message('note_on', channel=6, note=62, velocity=106, time=58),
    Message('note_off', channel=6, note=62, velocity=64, time=153),
    Message('note_on', channel=6, note=59, velocity=106, time=135),
    Message('note_off', channel=6, note=59, velocity=64, time=76),
    Message('note_on', channel=6, note=61, velocity=106, time=20),
    Message('note_off', channel=6, note=61, velocity=64, time=153),
    Message('note_on', channel=6, note=49, velocity=106, time=423),
    Message('note_off', channel=6, note=49, velocity=64, time=268),
    Message('note_on', channel=6, note=52, velocity=106, time=20),
    Message('note_off', channel=6, note=52, velocity=64, time=230),
    Message('note_on', channel=6, note=55, velocity=106, time=58),
    Message('note_off', channel=6, note=55, velocity=64, time=153),
    Message('note_on', channel=6, note=52, velocity=106, time=135),
    Message('note_off', channel=6, note=52, velocity=64, time=172),
    Message('note_on', channel=6, note=61, velocity=106, time=20),
    Message('note_on', channel=6, note=52, velocity=106, time=0),
    Message('note_off', channel=6, note=61, velocity=64, time=76),
    Message('note_off', channel=6, note=52, velocity=64, time=0),
    Message('note_on', channel=6, note=61, velocity=106, time=20),
    Message('note_on', channel=6, note=52, velocity=106, time=0),
    Message('note_off', channel=6, note=61, velocity=64, time=76),
    Message('note_off', channel=6, note=52, velocity=64, time=0),
    Message('note_on', channel=6, note=59, velocity=106, time=20),
    Message('note_on', channel=6, note=56, velocity=106, time=0),
    Message('note_off', channel=6, note=56, velocity=64, time=249),
    Message('note_off', channel=6, note=59, velocity=64, time=0),
    Message('note_on', channel=6, note=54, velocity=106, time=327),
    Message('note_off', channel=6, note=54, velocity=64, time=76),
    Message('note_on', channel=6, note=56, velocity=106, time=20),
    Message('note_off', channel=6, note=56, velocity=64, time=76),
    Message('note_on', channel=6, note=61, velocity=106, time=20),
    Message('note_on', channel=6, note=57, velocity=106, time=0),
    Message('note_off', channel=6, note=57, velocity=64, time=249),
    Message('note_off', channel=6, note=61, velocity=64, time=0),
    Message('note_on', channel=6, note=64, velocity=106, time=327),
    Message('note_on', channel=6, note=56, velocity=106, time=0),
    Message('note_off', channel=6, note=64, velocity=64, time=76),
    Message('note_off', channel=6, note=56, velocity=64, time=0),
    Message('note_on', channel=6, note=64, velocity=106, time=20),
    Message('note_on', channel=6, note=57, velocity=106, time=0),
    Message('note_off', channel=6, note=64, velocity=64, time=76),
    Message('note_off', channel=6, note=57, velocity=64, time=0),
    Message('note_on', channel=6, note=64, velocity=106, time=20),
    Message('note_on', channel=6, note=59, velocity=106, time=0),
    Message('note_off', channel=6, note=59, velocity=64, time=249),
    Message('note_off', channel=6, note=64, velocity=64, time=0),
    Message('note_on', channel=6, note=64, velocity=106, time=327),
    Message('note_on', channel=6, note=57, velocity=106, time=0),
    Message('note_off', channel=6, note=64, velocity=64, time=76),
    Message('note_off', channel=6, note=57, velocity=64, time=0),
    Message('note_on', channel=6, note=64, velocity=106, time=20),
    Message('note_on', channel=6, note=57, velocity=106, time=0),
    Message('note_off', channel=6, note=64, velocity=64, time=76),
    Message('note_off', channel=6, note=57, velocity=64, time=0),
    Message('note_on', channel=6, note=64, velocity=106, time=20),
    Message('note_on', channel=6, note=61, velocity=106, time=0),
    Message('note_off', channel=6, note=61, velocity=64, time=38),
    Message('note_on', channel=6, note=59, velocity=106, time=10),
    Message('note_off', channel=6, note=59, velocity=64, time=201),
    Message('note_off', channel=6, note=64, velocity=64, time=0),
    Message('note_on', channel=6, note=61, velocity=106, time=327),
    Message('note_off', channel=6, note=61, velocity=64, time=76),
    Message('note_on', channel=6, note=64, velocity=106, time=20),
    Message('note_off', channel=6, note=64, velocity=64, time=153),
    Message('note_on', channel=6, note=67, velocity=106, time=39),
    Message('note_off', channel=6, note=67, velocity=64, time=153),
    Message('note_on', channel=6, note=64, velocity=106, time=39),
    Message('note_off', channel=6, note=64, velocity=64, time=153),
    Message('note_on', channel=6, note=61, velocity=106, time=807),
    Message('note_off', channel=6, note=61, velocity=64, time=76),
    Message('note_on', channel=6, note=64, velocity=106, time=20),
    Message('note_off', channel=6, note=64, velocity=64, time=230),
    Message('note_on', channel=6, note=67, velocity=106, time=58),
    Message('note_off', channel=6, note=67, velocity=64, time=153),
    Message('note_on', channel=6, note=64, velocity=106, time=39),
    Message('note_off', channel=6, note=64, velocity=64, time=153),
    Message('note_on', channel=6, note=62, velocity=106, time=807),
    Message('note_off', channel=6, note=62, velocity=64, time=76),
    Message('note_on', channel=6, note=64, velocity=106, time=20),
    Message('note_off', channel=6, note=64, velocity=64, time=76),
    Message('note_on', channel=6, note=64, velocity=106, time=212),
    Message('note_off', channel=6, note=64, velocity=64, time=153),
    Message('note_on', channel=6, note=62, velocity=106, time=39),
    Message('note_off', channel=6, note=62, velocity=64, time=153),
    Message('note_on', channel=6, note=64, velocity=106, time=39),
    Message('note_off', channel=6, note=64, velocity=64, time=76),
    Message('note_on', channel=6, note=64, velocity=106, time=20),
    Message('note_off', channel=6, note=64, velocity=64, time=76),
    Message('note_on', channel=6, note=62, velocity=106, time=20),
    Message('note_off', channel=6, note=62, velocity=64, time=76),
    Message('note_on', channel=6, note=64, velocity=106, time=20),
    Message('note_off', channel=6, note=64, velocity=64, time=249),
    Message('note_on', channel=6, note=64, velocity=106, time=231),
    Message('note_off', channel=6, note=64, velocity=64, time=76),
    Message('note_on', channel=6, note=64, velocity=106, time=20),
    Message('note_off', channel=6, note=64, velocity=64, time=76),
    Message('note_on', channel=6, note=64, velocity=106, time=212),
    Message('note_off', channel=6, note=64, velocity=64, time=153),
    Message('note_on', channel=6, note=64, velocity=106, time=39),
    Message('note_off', channel=6, note=64, velocity=64, time=76),
    Message('note_on', channel=6, note=62, velocity=106, time=20),
    Message('note_off', channel=6, note=62, velocity=64, time=76),
    Message('note_on', channel=6, note=64, velocity=106, time=20),
    Message('note_off', channel=6, note=64, velocity=64, time=153),
    Message('note_on', channel=6, note=62, velocity=106, time=39),
    Message('note_off', channel=6, note=62, velocity=64, time=76),
    Message('note_on', channel=6, note=64, velocity=106, time=20),
    Message('note_off', channel=6, note=64, velocity=64, time=249),
    Message('note_on', channel=6, note=62, velocity=106, time=39),
    Message('note_off', channel=6, note=62, velocity=64, time=76),
    Message('note_on', channel=6, note=64, velocity=106, time=20),
    Message('note_off', channel=6, note=64, velocity=64, time=249),
    Message('note_on', channel=6, note=64, velocity=106, time=39),
    Message('note_off', channel=6, note=64, velocity=64, time=76),
    Message('note_on', channel=6, note=62, velocity=106, time=20),
    Message('note_off', channel=6, note=62, velocity=64, time=76),
    Message('note_on', channel=6, note=64, velocity=106, time=20),
    Message('note_off', channel=6, note=64, velocity=64, time=76),
    Message('note_on', channel=6, note=62, velocity=106, time=20),
    Message('note_off', channel=6, note=62, velocity=64, time=76),
    Message('note_on', channel=6, note=64, velocity=106, time=20),
    Message('note_off', channel=6, note=64, velocity=64, time=153),
    Message('note_on', channel=6, note=64, velocity=106, time=39),
    Message('note_off', channel=6, note=64, velocity=64, time=153),
    Message('note_on', channel=6, note=62, velocity=106, time=39),
    Message('note_off', channel=6, note=62, velocity=64, time=76),
    Message('note_on', channel=6, note=64, velocity=106, time=20),
    Message('note_off', channel=6, note=64, velocity=64, time=249),
    Message('note_on', channel=6, note=61, velocity=106, time=135),
    Message('note_off', channel=6, note=61, velocity=64, time=76),
    Message('note_on', channel=6, note=62, velocity=106, time=20),
    Message('note_off', channel=6, note=62, velocity=64, time=153),
    Message('note_on', channel=6, note=64, velocity=106, time=39),
    Message('note_off', channel=6, note=64, velocity=64, time=76),
    Message('note_on', channel=6, note=62, velocity=106, time=20),
    Message('note_off', channel=6, note=62, velocity=64, time=76),
    Message('note_on', channel=6, note=64, velocity=106, time=20),
    Message('note_off', channel=6, note=64, velocity=64, time=153),
    Message('note_on', channel=6, note=64, velocity=106, time=39),
    Message('note_off', channel=6, note=64, velocity=64, time=153),
    Message('note_on', channel=6, note=64, velocity=106, time=39),
    Message('note_off', channel=6, note=64, velocity=64, time=153),
    Message('note_on', channel=6, note=62, velocity=106, time=39),
    Message('note_off', channel=6, note=62, velocity=64, time=76),
    Message('note_on', channel=6, note=64, velocity=106, time=20),
    Message('note_off', channel=6, note=64, velocity=64, time=172),
    Message('note_on', channel=6, note=62, velocity=106, time=20),
    Message('note_off', channel=6, note=62, velocity=64, time=76),
    Message('note_on', channel=6, note=62, velocity=106, time=116),
    Message('note_off', channel=6, note=62, velocity=64, time=76),
    Message('note_on', channel=6, note=64, velocity=106, time=20),
    Message('note_off', channel=6, note=64, velocity=64, time=153),
    Message('note_on', channel=6, note=62, velocity=106, time=39),
    Message('note_off', channel=6, note=62, velocity=64, time=153),
    Message('note_on', channel=6, note=64, velocity=106, time=39),
    Message('note_off', channel=6, note=64, velocity=64, time=153),
    Message('note_on', channel=6, note=64, velocity=106, time=39),
    Message('note_off', channel=6, note=64, velocity=64, time=76),
    Message('note_on', channel=6, note=62, velocity=106, time=20),
    Message('note_off', channel=6, note=62, velocity=64, time=76),
    Message('note_on', channel=6, note=64, velocity=106, time=20),
    Message('note_off', channel=6, note=64, velocity=64, time=153),
    Message('note_on', channel=6, note=62, velocity=106, time=39),
    Message('note_off', channel=6, note=62, velocity=64, time=76),
    Message('note_on', channel=6, note=64, velocity=106, time=20),
    Message('note_off', channel=6, note=64, velocity=64, time=172),
    Message('note_on', channel=6, note=62, velocity=106, time=20),
    Message('note_off', channel=6, note=62, velocity=64, time=76),
    Message('note_on', channel=6, note=62, velocity=106, time=212),
    Message('note_off', channel=6, note=62, velocity=64, time=76),
    Message('note_on', channel=6, note=64, velocity=106, time=20),
    Message('note_off', channel=6, note=64, velocity=64, time=230),
    Message('note_on', channel=6, note=68, velocity=106, time=58),
    Message('note_off', channel=6, note=68, velocity=64, time=153),
    Message('note_on', channel=6, note=64, velocity=106, time=39),
    Message('note_off', channel=6, note=64, velocity=64, time=153),
    Message('note_on', channel=6, note=59, velocity=106, time=711),
    Message('note_off', channel=6, note=59, velocity=64, time=76),
    Message('note_on', channel=6, note=62, velocity=106, time=20),
    Message('note_off', channel=6, note=62, velocity=64, time=76),
    Message('note_on', channel=6, note=64, velocity=106, time=20),
    Message('note_off', channel=6, note=64, velocity=64, time=230),
    Message('note_on', channel=6, note=64, velocity=106, time=58),
    Message('note_off', channel=6, note=64, velocity=64, time=153),
    Message('note_on', channel=6, note=66, velocity=106, time=999),
    Message('note_off', channel=6, note=66, velocity=64, time=76),
    Message('note_on', channel=6, note=64, velocity=106, time=20),
    Message('note_off', channel=6, note=64, velocity=64, time=153),
    Message('note_on', channel=6, note=62, velocity=106, time=39),
    Message('note_off', channel=6, note=62, velocity=64, time=124),
    Message('note_on', channel=6, note=64, velocity=106, time=20),
    Message('note_off', channel=6, note=64, velocity=64, time=38),
    Message('note_on', channel=6, note=63, velocity=106, time=10),
    Message('note_off', channel=6, note=63, velocity=64, time=38),
    Message('note_on', channel=6, note=59, velocity=106, time=10),
    Message('note_off', channel=6, note=59, velocity=64, time=201),
    Message('note_on', channel=6, note=64, velocity=106, time=615),
    Message('note_on', channel=6, note=67, velocity=106, time=0),
    Message('note_off', channel=6, note=64, velocity=64, time=153),
    Message('note_off', channel=6, note=67, velocity=64, time=0),
    Message('note_on', channel=6, note=64, velocity=106, time=39),
    Message('note_on', channel=6, note=67, velocity=106, time=0),
    Message('note_off', channel=6, note=64, velocity=64, time=76),
    Message('note_off', channel=6, note=67, velocity=64, time=0),
    Message('note_on', channel=6, note=64, velocity=106, time=20),
    Message('note_off', channel=6, note=64, velocity=64, time=153),
    Message('note_on', channel=6, note=62, velocity=106, time=39),
    Message('note_on', channel=6, note=64, velocity=106, time=0),
    Message('note_on', channel=6, note=59, velocity=106, time=96),
    Message('note_off', channel=6, note=64, velocity=64, time=153),
    Message('note_off', channel=6, note=62, velocity=65, time=0),
    Message('note_off', channel=6, note=59, velocity=64, time=0),
    Message('control_change', channel=6, control=7, value=108, time=1363),
    Message('control_change', channel=6, control=1, value=110, time=144),
    Message('pitchwheel', channel=6, pitch=0, time=48),
    Message('program_change', channel=6, program=66, time=0),
    Message('note_on', channel=6, note=80, velocity=101, time=20),
    Message('note_off', channel=6, note=80, velocity=64, time=153),
    Message('note_on', channel=6, note=83, velocity=101, time=135),
    Message('note_off', channel=6, note=83, velocity=64, time=230),
    Message('note_on', channel=6, note=86, velocity=101, time=58),
    Message('note_off', channel=6, note=86, velocity=64, time=153),
    Message('note_on', channel=6, note=83, velocity=101, time=135),
    Message('note_off', channel=6, note=83, velocity=64, time=234),
    Message('note_on', channel=6, note=85, velocity=101, time=54),
    Message('note_off', channel=6, note=85, velocity=64, time=76),
    Message('note_on', channel=6, note=73, velocity=101, time=308),
    Message('note_off', channel=6, note=73, velocity=64, time=268),
    Message('note_on', channel=6, note=76, velocity=101, time=20),
    Message('note_off', channel=6, note=76, velocity=64, time=230),
    Message('note_on', channel=6, note=79, velocity=101, time=58),
    Message('note_off', channel=6, note=79, velocity=64, time=153),
    Message('note_on', channel=6, note=76, velocity=101, time=231),
    Message('note_off', channel=6, note=76, velocity=64, time=268),
    Message('note_on', channel=6, note=80, velocity=101, time=308),
    Message('note_off', channel=6, note=80, velocity=64, time=153),
    Message('note_on', channel=6, note=83, velocity=101, time=135),
    Message('note_off', channel=6, note=83, velocity=64, time=230),
    Message('note_on', channel=6, note=86, velocity=101, time=58),
    Message('note_off', channel=6, note=86, velocity=64, time=153),
    Message('note_on', channel=6, note=83, velocity=101, time=135),
    Message('note_off', channel=6, note=83, velocity=64, time=76),
    Message('note_on', channel=6, note=85, velocity=101, time=20),
    Message('note_off', channel=6, note=85, velocity=64, time=153),
    Message('note_on', channel=6, note=73, velocity=101, time=423),
    Message('note_off', channel=6, note=73, velocity=64, time=268),
    Message('note_on', channel=6, note=76, velocity=101, time=20),
    Message('note_off', channel=6, note=76, velocity=64, time=230),
    Message('note_on', channel=6, note=79, velocity=101, time=58),
    Message('note_off', channel=6, note=79, velocity=64, time=153),
    Message('note_on', channel=6, note=76, velocity=101, time=135),
    Message('note_off', channel=6, note=76, velocity=64, time=172),
    Message('note_on', channel=6, note=85, velocity=101, time=20),
    Message('note_on', channel=6, note=76, velocity=101, time=0),
    Message('note_off', channel=6, note=85, velocity=64, time=76),
    Message('note_off', channel=6, note=76, velocity=64, time=0),
    Message('note_on', channel=6, note=85, velocity=101, time=20),
    Message('note_on', channel=6, note=76, velocity=101, time=0),
    Message('note_off', channel=6, note=85, velocity=64, time=76),
    Message('note_off', channel=6, note=76, velocity=64, time=0),
    Message('note_on', channel=6, note=83, velocity=101, time=20),
    Message('note_on', channel=6, note=80, velocity=101, time=0),
    Message('note_off', channel=6, note=80, velocity=64, time=249),
    Message('note_off', channel=6, note=83, velocity=64, time=0),
    Message('note_on', channel=6, note=78, velocity=101, time=327),
    Message('note_off', channel=6, note=78, velocity=64, time=76),
    Message('note_on', channel=6, note=80, velocity=101, time=20),
    Message('note_off', channel=6, note=80, velocity=64, time=76),
    Message('note_on', channel=6, note=85, velocity=101, time=20),
    Message('note_on', channel=6, note=81, velocity=101, time=0),
    Message('note_off', channel=6, note=81, velocity=64, time=249),
    Message('note_off', channel=6, note=85, velocity=64, time=0),
    Message('note_on', channel=6, note=88, velocity=101, time=327),
    Message('note_on', channel=6, note=80, velocity=101, time=0),
    Message('note_off', channel=6, note=88, velocity=64, time=76),
    Message('note_off', channel=6, note=80, velocity=64, time=0),
    Message('note_on', channel=6, note=88, velocity=101, time=20),
    Message('note_on', channel=6, note=81, velocity=101, time=0),
    Message('note_off', channel=6, note=88, velocity=64, time=76),
    Message('note_off', channel=6, note=81, velocity=64, time=0),
    Message('note_on', channel=6, note=88, velocity=101, time=20),
    Message('note_on', channel=6, note=83, velocity=101, time=0),
    Message('note_off', channel=6, note=83, velocity=64, time=249),
    Message('note_off', channel=6, note=88, velocity=64, time=0),
    Message('note_on', channel=6, note=88, velocity=101, time=327),
    Message('note_on', channel=6, note=81, velocity=101, time=0),
    Message('note_off', channel=6, note=88, velocity=64, time=76),
    Message('note_off', channel=6, note=81, velocity=64, time=0),
    Message('note_on', channel=6, note=88, velocity=101, time=20),
    Message('note_on', channel=6, note=81, velocity=101, time=0),
    Message('note_off', channel=6, note=88, velocity=64, time=76),
    Message('note_off', channel=6, note=81, velocity=64, time=0),
    Message('note_on', channel=6, note=88, velocity=101, time=20),
    Message('note_on', channel=6, note=85, velocity=101, time=0),
    Message('note_off', channel=6, note=85, velocity=64, time=38),
    Message('note_on', channel=6, note=83, velocity=101, time=10),
    Message('note_off', channel=6, note=83, velocity=64, time=201),
    Message('note_off', channel=6, note=88, velocity=64, time=0),
    Message('note_on', channel=6, note=85, velocity=101, time=327),
    Message('note_off', channel=6, note=85, velocity=64, time=76),
    Message('note_on', channel=6, note=88, velocity=101, time=20),
    Message('note_off', channel=6, note=88, velocity=64, time=153),
    Message('note_on', channel=6, note=91, velocity=101, time=39),
    Message('note_off', channel=6, note=91, velocity=64, time=153),
    Message('note_on', channel=6, note=88, velocity=101, time=39),
    Message('note_off', channel=6, note=88, velocity=64, time=153),
    Message('note_on', channel=6, note=85, velocity=101, time=807),
    Message('note_off', channel=6, note=85, velocity=64, time=76),
    Message('note_on', channel=6, note=88, velocity=101, time=20),
    Message('note_off', channel=6, note=88, velocity=64, time=230),
    Message('note_on', channel=6, note=91, velocity=101, time=58),
    Message('note_off', channel=6, note=91, velocity=64, time=153),
    Message('note_on', channel=6, note=88, velocity=101, time=39),
    Message('note_off', channel=6, note=88, velocity=64, time=153),
    Message('control_change', channel=6, control=1, value=127, time=787),
    Message('note_on', channel=6, note=86, velocity=101, time=20),
    Message('note_off', channel=6, note=86, velocity=64, time=76),
    Message('note_on', channel=6, note=88, velocity=101, time=20),
    Message('note_off', channel=6, note=88, velocity=64, time=76),
    Message('note_on', channel=6, note=88, velocity=101, time=212),
    Message('note_off', channel=6, note=88, velocity=64, time=153),
    Message('note_on', channel=6, note=86, velocity=101, time=39),
    Message('note_off', channel=6, note=86, velocity=64, time=153),
    Message('note_on', channel=6, note=88, velocity=101, time=39),
    Message('note_off', channel=6, note=88, velocity=64, time=76),
    Message('note_on', channel=6, note=88, velocity=101, time=20),
    Message('note_off', channel=6, note=88, velocity=64, time=76),
    Message('note_on', channel=6, note=86, velocity=101, time=20),
    Message('note_off', channel=6, note=86, velocity=64, time=76),
    Message('note_on', channel=6, note=88, velocity=101, time=20),
    Message('note_off', channel=6, note=88, velocity=64, time=432),
    Message('note_on', channel=6, note=88, velocity=101, time=48),
    Message('note_off', channel=6, note=88, velocity=64, time=76),
    Message('note_on', channel=6, note=88, velocity=101, time=20),
    Message('note_off', channel=6, note=88, velocity=64, time=76),
    Message('note_on', channel=6, note=88, velocity=101, time=212),
    Message('note_off', channel=6, note=88, velocity=64, time=153),
    Message('note_on', channel=6, note=88, velocity=101, time=39),
    Message('note_off', channel=6, note=88, velocity=64, time=76),
    Message('note_on', channel=6, note=86, velocity=101, time=20),
    Message('note_off', channel=6, note=86, velocity=64, time=76),
    Message('note_on', channel=6, note=88, velocity=101, time=20),
    Message('note_off', channel=6, note=88, velocity=64, time=153),
    Message('note_on', channel=6, note=86, velocity=101, time=39),
    Message('note_off', channel=6, note=86, velocity=64, time=76),
    Message('note_on', channel=6, note=88, velocity=101, time=20),
    Message('note_off', channel=6, note=88, velocity=64, time=249),
    Message('note_on', channel=6, note=86, velocity=101, time=39),
    Message('note_off', channel=6, note=86, velocity=64, time=76),
    Message('note_on', channel=6, note=88, velocity=101, time=20),
    Message('note_off', channel=6, note=88, velocity=64, time=249),
    Message('note_on', channel=6, note=88, velocity=101, time=39),
    Message('note_off', channel=6, note=88, velocity=64, time=76),
    Message('note_on', channel=6, note=86, velocity=101, time=20),
    Message('note_off', channel=6, note=86, velocity=64, time=76),
    Message('note_on', channel=6, note=88, velocity=101, time=20),
    Message('note_off', channel=6, note=88, velocity=64, time=76),
    Message('note_on', channel=6, note=86, velocity=101, time=20),
    Message('note_off', channel=6, note=86, velocity=64, time=76),
    Message('note_on', channel=6, note=88, velocity=101, time=20),
    Message('note_off', channel=6, note=88, velocity=64, time=153),
    Message('note_on', channel=6, note=88, velocity=101, time=39),
    Message('note_off', channel=6, note=88, velocity=64, time=153),
    Message('note_on', channel=6, note=86, velocity=101, time=39),
    Message('note_off', channel=6, note=86, velocity=64, time=76),
    Message('note_on', channel=6, note=88, velocity=101, time=20),
    Message('note_off', channel=6, note=88, velocity=64, time=316),
    Message('note_on', channel=6, note=85, velocity=101, time=68),
    Message('note_off', channel=6, note=85, velocity=64, time=76),
    Message('note_on', channel=6, note=86, velocity=101, time=20),
    Message('note_off', channel=6, note=86, velocity=64, time=153),
    Message('note_on', channel=6, note=88, velocity=101, time=39),
    Message('note_off', channel=6, note=88, velocity=64, time=76),
    Message('note_on', channel=6, note=86, velocity=101, time=20),
    Message('note_off', channel=6, note=86, velocity=64, time=76),
    Message('note_on', channel=6, note=88, velocity=101, time=20),
    Message('note_off', channel=6, note=88, velocity=64, time=153),
    Message('note_on', channel=6, note=88, velocity=101, time=39),
    Message('note_off', channel=6, note=88, velocity=64, time=153),
    Message('note_on', channel=6, note=88, velocity=101, time=39),
    Message('note_off', channel=6, note=88, velocity=64, time=153),
    Message('note_on', channel=6, note=86, velocity=101, time=39),
    Message('note_off', channel=6, note=86, velocity=64, time=76),
    Message('note_on', channel=6, note=88, velocity=101, time=20),
    Message('note_off', channel=6, note=88, velocity=64, time=172),
    Message('note_on', channel=6, note=86, velocity=101, time=20),
    Message('note_off', channel=6, note=86, velocity=64, time=76),
    Message('note_on', channel=6, note=86, velocity=101, time=116),
    Message('note_off', channel=6, note=86, velocity=64, time=76),
    Message('note_on', channel=6, note=88, velocity=101, time=20),
    Message('note_off', channel=6, note=88, velocity=64, time=153),
    Message('note_on', channel=6, note=86, velocity=101, time=39),
    Message('note_off', channel=6, note=86, velocity=64, time=153),
    Message('note_on', channel=6, note=88, velocity=101, time=39),
    Message('note_off', channel=6, note=88, velocity=64, time=153),
    Message('note_on', channel=6, note=88, velocity=101, time=39),
    Message('note_off', channel=6, note=88, velocity=64, time=76),
    Message('note_on', channel=6, note=86, velocity=101, time=20),
    Message('note_off', channel=6, note=86, velocity=64, time=76),
    Message('note_on', channel=6, note=88, velocity=101, time=20),
    Message('note_off', channel=6, note=88, velocity=64, time=153),
    Message('note_on', channel=6, note=86, velocity=101, time=39),
    Message('note_off', channel=6, note=86, velocity=64, time=76),
    Message('note_on', channel=6, note=88, velocity=101, time=20),
    Message('note_off', channel=6, note=88, velocity=64, time=172),
    Message('note_on', channel=6, note=86, velocity=101, time=20),
    Message('note_off', channel=6, note=86, velocity=64, time=288),
    Message('note_on', channel=6, note=86, velocity=101, time=0),
    Message('note_off', channel=6, note=86, velocity=64, time=76),
    Message('note_on', channel=6, note=88, velocity=101, time=20),
    Message('note_off', channel=6, note=88, velocity=64, time=230),
    Message('note_on', channel=6, note=92, velocity=101, time=58),
    Message('note_off', channel=6, note=92, velocity=64, time=153),
    Message('note_on', channel=6, note=88, velocity=101, time=39),
    Message('note_off', channel=6, note=88, velocity=64, time=336),
    Message('note_on', channel=6, note=83, velocity=101, time=528),
    Message('note_off', channel=6, note=83, velocity=64, time=76),
    Message('note_on', channel=6, note=86, velocity=101, time=20),
    Message('note_off', channel=6, note=86, velocity=64, time=76),
    Message('note_on', channel=6, note=88, velocity=101, time=20),
    Message('note_off', channel=6, note=88, velocity=64, time=230),
    Message('note_on', channel=6, note=88, velocity=101, time=58),
    Message('note_off', channel=6, note=88, velocity=64, time=153),
    Message('note_on', channel=6, note=90, velocity=101, time=999),
    Message('note_off', channel=6, note=90, velocity=64, time=76),
    Message('note_on', channel=6, note=88, velocity=101, time=20),
    Message('note_off', channel=6, note=88, velocity=64, time=153),
    Message('note_on', channel=6, note=86, velocity=101, time=39),
    Message('note_off', channel=6, note=86, velocity=64, time=76),
    Message('note_on', channel=6, note=88, velocity=101, time=68),
    Message('note_off', channel=6, note=88, velocity=64, time=38),
    Message('note_on', channel=6, note=87, velocity=101, time=10),
    Message('note_off', channel=6, note=87, velocity=64, time=38),
    Message('note_on', channel=6, note=83, velocity=101, time=10),
    Message('note_off', channel=6, note=83, velocity=64, time=201),
    Message('note_on', channel=6, note=88, velocity=101, time=615),
    Message('note_on', channel=6, note=91, velocity=101, time=0),
    Message('note_off', channel=6, note=88, velocity=64, time=153),
    Message('note_off', channel=6, note=91, velocity=64, time=0),
    Message('note_on', channel=6, note=88, velocity=101, time=39),
    Message('note_on', channel=6, note=91, velocity=101, time=0),
    Message('note_off', channel=6, note=88, velocity=64, time=76),
    Message('note_off', channel=6, note=91, velocity=64, time=0),
    Message('note_on', channel=6, note=88, velocity=101, time=20),
    Message('note_off', channel=6, note=88, velocity=64, time=153),
    Message('note_on', channel=6, note=86, velocity=101, time=39),
    Message('note_on', channel=6, note=88, velocity=101, time=0),
    Message('note_off', channel=6, note=86, velocity=65, time=76),
    Message('note_off', channel=6, note=88, velocity=64, time=0),
    Message('control_change', channel=6, control=7, value=99, time=43008),
    Message('control_change', channel=6, control=7, value=98, time=72),
    Message('control_change', channel=6, control=7, value=97, time=48),
    Message('control_change', channel=6, control=7, value=96, time=48),
    Message('control_change', channel=6, control=7, value=95, time=48),
    Message('control_change', channel=6, control=7, value=94, time=72),
    Message('control_change', channel=6, control=7, value=93, time=48),
    Message('control_change', channel=6, control=7, value=92, time=48),
    Message('control_change', channel=6, control=7, value=91, time=48),
    Message('control_change', channel=6, control=7, value=90, time=72),
    Message('control_change', channel=6, control=7, value=89, time=48),
    Message('control_change', channel=6, control=7, value=88, time=48),
    Message('control_change', channel=6, control=7, value=87, time=48),
    Message('control_change', channel=6, control=7, value=86, time=72),
    Message('control_change', channel=6, control=7, value=85, time=48),
    Message('control_change', channel=6, control=7, value=84, time=48),
    Message('control_change', channel=6, control=7, value=83, time=48),
    Message('control_change', channel=6, control=7, value=82, time=72),
    Message('control_change', channel=6, control=7, value=81, time=48),
    Message('control_change', channel=6, control=7, value=80, time=48),
    Message('control_change', channel=6, control=7, value=79, time=48),
    Message('control_change', channel=6, control=7, value=78, time=72),
    Message('control_change', channel=6, control=7, value=77, time=48),
    Message('control_change', channel=6, control=7, value=76, time=48),
    Message('control_change', channel=6, control=7, value=75, time=48),
    Message('control_change', channel=6, control=7, value=74, time=48),
    Message('control_change', channel=6, control=7, value=73, time=72),
    Message('control_change', channel=6, control=7, value=72, time=48),
    Message('control_change', channel=6, control=7, value=71, time=48),
    Message('control_change', channel=6, control=7, value=70, time=48),
    Message('control_change', channel=6, control=7, value=69, time=72),
    Message('control_change', channel=6, control=7, value=68, time=48),
    Message('control_change', channel=6, control=7, value=67, time=48),
    Message('control_change', channel=6, control=7, value=66, time=48),
    Message('control_change', channel=6, control=7, value=65, time=72),
    Message('control_change', channel=6, control=7, value=64, time=48),
    Message('control_change', channel=6, control=7, value=63, time=48),
    Message('control_change', channel=6, control=7, value=62, time=48),
    Message('control_change', channel=6, control=7, value=61, time=72),
    Message('control_change', channel=6, control=7, value=60, time=48),
    Message('control_change', channel=6, control=7, value=59, time=48),
    Message('control_change', channel=6, control=7, value=58, time=48),
    Message('control_change', channel=6, control=7, value=57, time=72),
    Message('control_change', channel=6, control=7, value=56, time=48),
    Message('control_change', channel=6, control=7, value=55, time=48),
    Message('control_change', channel=6, control=7, value=54, time=48),
    Message('control_change', channel=6, control=7, value=53, time=72),
    Message('control_change', channel=6, control=7, value=52, time=48),
    Message('control_change', channel=6, control=7, value=51, time=48),
    Message('control_change', channel=6, control=7, value=50, time=48),
    Message('control_change', channel=6, control=7, value=49, time=48),
    Message('control_change', channel=6, control=7, value=48, time=72),
    Message('control_change', channel=6, control=7, value=47, time=48),
    Message('control_change', channel=6, control=7, value=46, time=48),
    Message('control_change', channel=6, control=7, value=45, time=48),
    Message('control_change', channel=6, control=7, value=44, time=72),
    Message('control_change', channel=6, control=7, value=43, time=48),
    Message('control_change', channel=6, control=7, value=42, time=48),
    Message('control_change', channel=6, control=7, value=41, time=48),
    Message('control_change', channel=6, control=7, value=40, time=72),
    Message('control_change', channel=6, control=7, value=39, time=48),
    Message('control_change', channel=6, control=7, value=38, time=48),
    Message('control_change', channel=6, control=7, value=37, time=48),
    Message('control_change', channel=6, control=7, value=36, time=72),
    Message('control_change', channel=6, control=7, value=35, time=48),
    Message('control_change', channel=6, control=7, value=34, time=48),
    Message('control_change', channel=6, control=7, value=33, time=48),
    Message('control_change', channel=6, control=7, value=32, time=72),
    Message('control_change', channel=6, control=7, value=31, time=48),
    Message('control_change', channel=6, control=7, value=30, time=48),
    Message('control_change', channel=6, control=7, value=29, time=48),
    Message('control_change', channel=6, control=7, value=19, time=72),
    Message('control_change', channel=6, control=7, value=18, time=96),
    Message('control_change', channel=6, control=7, value=17, time=72),
    Message('control_change', channel=6, control=7, value=16, time=72),
    Message('control_change', channel=6, control=7, value=15, time=72),
    Message('control_change', channel=6, control=7, value=14, time=72),
    Message('control_change', channel=6, control=7, value=13, time=96),
    Message('control_change', channel=6, control=7, value=12, time=72),
    Message('control_change', channel=6, control=7, value=11, time=72),
    Message('control_change', channel=6, control=7, value=10, time=72),
    Message('control_change', channel=6, control=7, value=9, time=72),
    Message('control_change', channel=6, control=7, value=8, time=96),
    Message('control_change', channel=6, control=7, value=7, time=72),
    Message('control_change', channel=6, control=7, value=6, time=72),
    Message('control_change', channel=6, control=7, value=5, time=72),
    Message('control_change', channel=6, control=7, value=4, time=72),
    Message('control_change', channel=6, control=7, value=3, time=96),
    Message('control_change', channel=6, control=7, value=2, time=72),
    Message('control_change', channel=6, control=7, value=1, time=72),
    Message('control_change', channel=6, control=7, value=0, time=72),
    Message('pitchwheel', channel=6, pitch=0, time=840),
    Message('polytouch', channel=6, note=64, value=0, time=0),
    Message('aftertouch', channel=6, value=0, time=0),
    Message('control_change', channel=6, control=1, value=0, time=0),
    Message('control_change', channel=6, control=2, value=0, time=0),
    Message('control_change', channel=6, control=4, value=0, time=0),
    Message('control_change', channel=6, control=7, value=100, time=0),
    Message('control_change', channel=6, control=8, value=0, time=0),
    Message('control_change', channel=6, control=10, value=63, time=0),
    Message('control_change', channel=6, control=64, value=0, time=0),
    Message('control_change', channel=6, control=65, value=0, time=0),
    Message('control_change', channel=6, control=66, value=0, time=0),
    Message('control_change', channel=6, control=67, value=0, time=0),
    Message('control_change', channel=6, control=68, value=0, time=0),
    MetaMessage('end_of_track', time=0)]),
  MidiTrack([
    MetaMessage('midi_port', port=0, time=0),
    MetaMessage('track_name', name='Lead                ', time=0),
    Message('program_change', channel=7, program=14, time=0),
    Message('control_change', channel=7, control=7, value=105, time=0),
    Message('control_change', channel=7, control=10, value=89, time=0),
    Message('pitchwheel', channel=7, pitch=25, time=0),
    Message('control_change', channel=7, control=7, value=106, time=264),
    Message('control_change', channel=7, control=7, value=107, time=264),
    Message('control_change', channel=7, control=7, value=108, time=239),
    Message('note_on', channel=7, note=68, velocity=109, time=6343),
    Message('note_off', channel=7, note=68, velocity=64, time=153),
    Message('note_on', channel=7, note=71, velocity=109, time=135),
    Message('note_off', channel=7, note=71, velocity=64, time=230),
    Message('note_on', channel=7, note=74, velocity=109, time=58),
    Message('note_off', channel=7, note=74, velocity=64, time=153),
    Message('note_on', channel=7, note=71, velocity=109, time=135),
    Message('note_off', channel=7, note=71, velocity=64, time=234),
    Message('note_on', channel=7, note=73, velocity=109, time=54),
    Message('note_off', channel=7, note=73, velocity=64, time=76),
    Message('note_on', channel=7, note=61, velocity=109, time=308),
    Message('note_off', channel=7, note=61, velocity=64, time=268),
    Message('note_on', channel=7, note=64, velocity=109, time=20),
    Message('note_off', channel=7, note=64, velocity=64, time=230),
    Message('note_on', channel=7, note=67, velocity=109, time=58),
    Message('note_off', channel=7, note=67, velocity=64, time=153),
    Message('note_on', channel=7, note=64, velocity=109, time=231),
    Message('note_off', channel=7, note=64, velocity=64, time=268),
    Message('note_on', channel=7, note=68, velocity=109, time=308),
    Message('note_off', channel=7, note=68, velocity=64, time=153),
    Message('note_on', channel=7, note=71, velocity=109, time=135),
    Message('note_off', channel=7, note=71, velocity=64, time=230),
    Message('note_on', channel=7, note=74, velocity=109, time=58),
    Message('note_off', channel=7, note=74, velocity=64, time=153),
    Message('note_on', channel=7, note=71, velocity=109, time=135),
    Message('note_off', channel=7, note=71, velocity=64, time=76),
    Message('note_on', channel=7, note=73, velocity=109, time=20),
    Message('note_off', channel=7, note=73, velocity=64, time=153),
    Message('note_on', channel=7, note=61, velocity=109, time=423),
    Message('note_off', channel=7, note=61, velocity=64, time=268),
    Message('note_on', channel=7, note=64, velocity=109, time=20),
    Message('note_off', channel=7, note=64, velocity=64, time=230),
    Message('note_on', channel=7, note=67, velocity=109, time=58),
    Message('note_off', channel=7, note=67, velocity=64, time=153),
    Message('note_on', channel=7, note=64, velocity=109, time=135),
    Message('note_off', channel=7, note=64, velocity=64, time=172),
    Message('note_on', channel=7, note=73, velocity=109, time=20),
    Message('note_on', channel=7, note=64, velocity=109, time=0),
    Message('note_off', channel=7, note=73, velocity=64, time=76),
    Message('note_off', channel=7, note=64, velocity=64, time=0),
    Message('note_on', channel=7, note=73, velocity=109, time=20),
    Message('note_on', channel=7, note=64, velocity=109, time=0),
    Message('note_off', channel=7, note=73, velocity=64, time=76),
    Message('note_off', channel=7, note=64, velocity=64, time=0),
    Message('note_on', channel=7, note=71, velocity=109, time=20),
    Message('note_on', channel=7, note=68, velocity=109, time=0),
    Message('note_off', channel=7, note=68, velocity=64, time=249),
    Message('note_off', channel=7, note=71, velocity=64, time=0),
    Message('note_on', channel=7, note=66, velocity=109, time=327),
    Message('note_off', channel=7, note=66, velocity=64, time=76),
    Message('note_on', channel=7, note=68, velocity=109, time=20),
    Message('note_off', channel=7, note=68, velocity=64, time=76),
    Message('note_on', channel=7, note=73, velocity=109, time=20),
    Message('note_on', channel=7, note=69, velocity=109, time=0),
    Message('note_off', channel=7, note=69, velocity=64, time=249),
    Message('note_off', channel=7, note=73, velocity=64, time=0),
    Message('note_on', channel=7, note=76, velocity=109, time=327),
    Message('note_on', channel=7, note=68, velocity=109, time=0),
    Message('note_off', channel=7, note=76, velocity=64, time=76),
    Message('note_off', channel=7, note=68, velocity=64, time=0),
    Message('note_on', channel=7, note=76, velocity=109, time=20),
    Message('note_on', channel=7, note=69, velocity=109, time=0),
    Message('note_off', channel=7, note=76, velocity=64, time=76),
    Message('note_off', channel=7, note=69, velocity=64, time=0),
    Message('note_on', channel=7, note=76, velocity=109, time=20),
    Message('note_on', channel=7, note=71, velocity=109, time=0),
    Message('note_off', channel=7, note=71, velocity=64, time=249),
    Message('note_off', channel=7, note=76, velocity=64, time=0),
    Message('note_on', channel=7, note=76, velocity=109, time=327),
    Message('note_on', channel=7, note=69, velocity=109, time=0),
    Message('note_off', channel=7, note=76, velocity=64, time=76),
    Message('note_off', channel=7, note=69, velocity=64, time=0),
    Message('note_on', channel=7, note=76, velocity=109, time=20),
    Message('note_on', channel=7, note=69, velocity=109, time=0),
    Message('note_off', channel=7, note=76, velocity=64, time=76),
    Message('note_off', channel=7, note=69, velocity=64, time=0),
    Message('note_on', channel=7, note=76, velocity=109, time=20),
    Message('note_on', channel=7, note=73, velocity=109, time=0),
    Message('note_off', channel=7, note=73, velocity=64, time=38),
    Message('note_on', channel=7, note=71, velocity=109, time=10),
    Message('note_off', channel=7, note=71, velocity=64, time=201),
    Message('note_off', channel=7, note=76, velocity=64, time=0),
    Message('note_on', channel=7, note=73, velocity=109, time=327),
    Message('note_off', channel=7, note=73, velocity=64, time=76),
    Message('note_on', channel=7, note=76, velocity=109, time=20),
    Message('note_off', channel=7, note=76, velocity=64, time=153),
    Message('note_on', channel=7, note=79, velocity=109, time=39),
    Message('note_off', channel=7, note=79, velocity=64, time=153),
    Message('note_on', channel=7, note=76, velocity=109, time=39),
    Message('note_off', channel=7, note=76, velocity=64, time=153),
    Message('note_on', channel=7, note=73, velocity=109, time=807),
    Message('note_off', channel=7, note=73, velocity=64, time=76),
    Message('note_on', channel=7, note=76, velocity=109, time=20),
    Message('note_off', channel=7, note=76, velocity=64, time=230),
    Message('note_on', channel=7, note=79, velocity=109, time=58),
    Message('note_off', channel=7, note=79, velocity=64, time=153),
    Message('note_on', channel=7, note=76, velocity=109, time=39),
    Message('note_off', channel=7, note=76, velocity=64, time=153),
    Message('note_on', channel=7, note=74, velocity=109, time=807),
    Message('note_off', channel=7, note=74, velocity=64, time=76),
    Message('note_on', channel=7, note=76, velocity=109, time=20),
    Message('note_off', channel=7, note=76, velocity=64, time=76),
    Message('note_on', channel=7, note=76, velocity=109, time=212),
    Message('note_off', channel=7, note=76, velocity=64, time=153),
    Message('note_on', channel=7, note=74, velocity=109, time=39),
    Message('note_off', channel=7, note=74, velocity=64, time=153),
    Message('note_on', channel=7, note=76, velocity=109, time=39),
    Message('note_off', channel=7, note=76, velocity=64, time=76),
    Message('note_on', channel=7, note=76, velocity=109, time=20),
    Message('note_off', channel=7, note=76, velocity=64, time=76),
    Message('note_on', channel=7, note=74, velocity=109, time=20),
    Message('note_off', channel=7, note=74, velocity=64, time=76),
    Message('note_on', channel=7, note=76, velocity=109, time=20),
    Message('note_off', channel=7, note=76, velocity=64, time=249),
    Message('note_on', channel=7, note=76, velocity=109, time=231),
    Message('note_off', channel=7, note=76, velocity=64, time=76),
    Message('note_on', channel=7, note=76, velocity=109, time=20),
    Message('note_off', channel=7, note=76, velocity=64, time=76),
    Message('note_on', channel=7, note=76, velocity=109, time=212),
    Message('note_off', channel=7, note=76, velocity=64, time=153),
    Message('note_on', channel=7, note=76, velocity=109, time=39),
    Message('note_off', channel=7, note=76, velocity=64, time=76),
    Message('note_on', channel=7, note=74, velocity=109, time=20),
    Message('note_off', channel=7, note=74, velocity=64, time=76),
    Message('note_on', channel=7, note=76, velocity=109, time=20),
    Message('note_off', channel=7, note=76, velocity=64, time=153),
    Message('note_on', channel=7, note=74, velocity=109, time=39),
    Message('note_off', channel=7, note=74, velocity=64, time=76),
    Message('note_on', channel=7, note=76, velocity=109, time=20),
    Message('note_off', channel=7, note=76, velocity=64, time=249),
    Message('note_on', channel=7, note=74, velocity=109, time=39),
    Message('note_off', channel=7, note=74, velocity=64, time=76),
    Message('note_on', channel=7, note=76, velocity=109, time=20),
    Message('note_off', channel=7, note=76, velocity=64, time=249),
    Message('note_on', channel=7, note=76, velocity=109, time=39),
    Message('note_off', channel=7, note=76, velocity=64, time=76),
    Message('note_on', channel=7, note=74, velocity=109, time=20),
    Message('note_off', channel=7, note=74, velocity=64, time=76),
    Message('note_on', channel=7, note=76, velocity=109, time=20),
    Message('note_off', channel=7, note=76, velocity=64, time=76),
    Message('note_on', channel=7, note=74, velocity=109, time=20),
    Message('note_off', channel=7, note=74, velocity=64, time=76),
    Message('note_on', channel=7, note=76, velocity=109, time=20),
    Message('note_off', channel=7, note=76, velocity=64, time=153),
    Message('note_on', channel=7, note=76, velocity=109, time=39),
    Message('note_off', channel=7, note=76, velocity=64, time=153),
    Message('note_on', channel=7, note=74, velocity=109, time=39),
    Message('note_off', channel=7, note=74, velocity=64, time=76),
    Message('note_on', channel=7, note=76, velocity=109, time=20),
    Message('note_off', channel=7, note=76, velocity=64, time=249),
    Message('note_on', channel=7, note=73, velocity=109, time=135),
    Message('note_off', channel=7, note=73, velocity=64, time=76),
    Message('note_on', channel=7, note=74, velocity=109, time=20),
    Message('note_off', channel=7, note=74, velocity=64, time=153),
    Message('note_on', channel=7, note=76, velocity=109, time=39),
    Message('note_off', channel=7, note=76, velocity=64, time=76),
    Message('note_on', channel=7, note=74, velocity=109, time=20),
    Message('note_off', channel=7, note=74, velocity=64, time=76),
    Message('note_on', channel=7, note=76, velocity=109, time=20),
    Message('note_off', channel=7, note=76, velocity=64, time=153),
    Message('note_on', channel=7, note=76, velocity=109, time=39),
    Message('note_off', channel=7, note=76, velocity=64, time=153),
    Message('note_on', channel=7, note=76, velocity=109, time=39),
    Message('note_off', channel=7, note=76, velocity=64, time=153),
    Message('note_on', channel=7, note=74, velocity=109, time=39),
    Message('note_off', channel=7, note=74, velocity=64, time=76),
    Message('note_on', channel=7, note=76, velocity=109, time=20),
    Message('note_off', channel=7, note=76, velocity=64, time=172),
    Message('note_on', channel=7, note=74, velocity=109, time=20),
    Message('note_off', channel=7, note=74, velocity=64, time=76),
    Message('note_on', channel=7, note=74, velocity=109, time=116),
    Message('note_off', channel=7, note=74, velocity=64, time=76),
    Message('note_on', channel=7, note=76, velocity=109, time=20),
    Message('note_off', channel=7, note=76, velocity=64, time=153),
    Message('note_on', channel=7, note=74, velocity=109, time=39),
    Message('note_off', channel=7, note=74, velocity=64, time=153),
    Message('note_on', channel=7, note=76, velocity=109, time=39),
    Message('note_off', channel=7, note=76, velocity=64, time=153),
    Message('note_on', channel=7, note=76, velocity=109, time=39),
    Message('note_off', channel=7, note=76, velocity=64, time=76),
    Message('note_on', channel=7, note=74, velocity=109, time=20),
    Message('note_off', channel=7, note=74, velocity=64, time=76),
    Message('note_on', channel=7, note=76, velocity=109, time=20),
    Message('note_off', channel=7, note=76, velocity=64, time=153),
    Message('note_on', channel=7, note=74, velocity=109, time=39),
    Message('note_off', channel=7, note=74, velocity=64, time=76),
    Message('note_on', channel=7, note=76, velocity=109, time=20),
    Message('note_off', channel=7, note=76, velocity=64, time=172),
    Message('note_on', channel=7, note=74, velocity=109, time=20),
    Message('note_off', channel=7, note=74, velocity=64, time=76),
    Message('note_on', channel=7, note=74, velocity=109, time=212),
    Message('note_off', channel=7, note=74, velocity=64, time=76),
    Message('note_on', channel=7, note=76, velocity=109, time=20),
    Message('note_off', channel=7, note=76, velocity=64, time=230),
    Message('note_on', channel=7, note=80, velocity=109, time=58),
    Message('note_off', channel=7, note=80, velocity=64, time=153),
    Message('note_on', channel=7, note=76, velocity=109, time=39),
    Message('note_off', channel=7, note=76, velocity=64, time=153),
    Message('note_on', channel=7, note=71, velocity=109, time=711),
    Message('note_off', channel=7, note=71, velocity=64, time=76),
    Message('note_on', channel=7, note=74, velocity=109, time=20),
    Message('note_off', channel=7, note=74, velocity=64, time=76),
    Message('note_on', channel=7, note=76, velocity=109, time=20),
    Message('note_off', channel=7, note=76, velocity=64, time=230),
    Message('note_on', channel=7, note=76, velocity=109, time=58),
    Message('note_off', channel=7, note=76, velocity=64, time=153),
    Message('note_on', channel=7, note=78, velocity=109, time=999),
    Message('note_off', channel=7, note=78, velocity=64, time=76),
    Message('note_on', channel=7, note=76, velocity=109, time=20),
    Message('note_off', channel=7, note=76, velocity=64, time=153),
    Message('note_on', channel=7, note=74, velocity=109, time=39),
    Message('note_off', channel=7, note=74, velocity=64, time=90),
    Message('note_on', channel=7, note=76, velocity=109, time=54),
    Message('note_off', channel=7, note=76, velocity=64, time=38),
    Message('note_on', channel=7, note=75, velocity=109, time=10),
    Message('note_off', channel=7, note=75, velocity=64, time=38),
    Message('note_on', channel=7, note=71, velocity=109, time=10),
    Message('note_off', channel=7, note=71, velocity=64, time=201),
    Message('note_on', channel=7, note=76, velocity=109, time=615),
    Message('note_on', channel=7, note=79, velocity=109, time=0),
    Message('note_off', channel=7, note=76, velocity=64, time=153),
    Message('note_off', channel=7, note=79, velocity=64, time=0),
    Message('note_on', channel=7, note=76, velocity=109, time=39),
    Message('note_on', channel=7, note=79, velocity=109, time=0),
    Message('note_off', channel=7, note=76, velocity=64, time=76),
    Message('note_off', channel=7, note=79, velocity=64, time=0),
    Message('note_on', channel=7, note=76, velocity=109, time=20),
    Message('note_off', channel=7, note=76, velocity=64, time=153),
    Message('note_on', channel=7, note=74, velocity=109, time=39),
    Message('note_on', channel=7, note=76, velocity=109, time=0),
    Message('note_on', channel=7, note=71, velocity=109, time=96),
    Message('note_off', channel=7, note=76, velocity=64, time=153),
    Message('note_off', channel=7, note=74, velocity=65, time=0),
    Message('note_off', channel=7, note=71, velocity=64, time=0),
    Message('control_change', channel=7, control=7, value=113, time=1363),
    Message('control_change', channel=7, control=7, value=127, time=14),
    Message('control_change', channel=7, control=1, value=110, time=130),
    Message('program_change', channel=7, program=78, time=48),
    Message('pitchwheel', channel=7, pitch=45, time=0),
    Message('note_on', channel=7, note=68, velocity=127, time=20),
    Message('note_off', channel=7, note=68, velocity=1, time=153),
    Message('note_on', channel=7, note=71, velocity=127, time=135),
    Message('note_off', channel=7, note=71, velocity=1, time=230),
    Message('note_on', channel=7, note=74, velocity=127, time=58),
    Message('note_off', channel=7, note=74, velocity=1, time=153),
    Message('note_on', channel=7, note=71, velocity=127, time=135),
    Message('note_off', channel=7, note=71, velocity=1, time=234),
    Message('note_on', channel=7, note=73, velocity=127, time=54),
    Message('note_off', channel=7, note=73, velocity=1, time=378),
    Message('note_on', channel=7, note=61, velocity=127, time=6),
    Message('note_off', channel=7, note=61, velocity=1, time=268),
    Message('note_on', channel=7, note=64, velocity=127, time=20),
    Message('note_off', channel=7, note=64, velocity=1, time=230),
    Message('note_on', channel=7, note=67, velocity=127, time=58),
    Message('note_off', channel=7, note=67, velocity=1, time=153),
    Message('note_on', channel=7, note=64, velocity=127, time=231),
    Message('note_off', channel=7, note=64, velocity=1, time=570),
    Message('note_on', channel=7, note=68, velocity=127, time=6),
    Message('note_off', channel=7, note=68, velocity=1, time=153),
    Message('note_on', channel=7, note=71, velocity=127, time=135),
    Message('note_off', channel=7, note=71, velocity=1, time=230),
    Message('note_on', channel=7, note=74, velocity=127, time=58),
    Message('note_off', channel=7, note=74, velocity=1, time=153),
    Message('note_on', channel=7, note=71, velocity=127, time=135),
    Message('note_off', channel=7, note=71, velocity=1, time=76),
    Message('note_on', channel=7, note=73, velocity=127, time=20),
    Message('note_off', channel=7, note=73, velocity=1, time=570),
    Message('note_on', channel=7, note=61, velocity=127, time=6),
    Message('note_off', channel=7, note=61, velocity=1, time=268),
    Message('note_on', channel=7, note=64, velocity=127, time=20),
    Message('note_off', channel=7, note=64, velocity=1, time=230),
    Message('note_on', channel=7, note=67, velocity=127, time=58),
    Message('note_off', channel=7, note=67, velocity=1, time=153),
    Message('note_on', channel=7, note=64, velocity=127, time=135),
    Message('note_off', channel=7, note=64, velocity=1, time=172),
    Message('note_on', channel=7, note=73, velocity=127, time=20),
    Message('note_on', channel=7, note=64, velocity=127, time=0),
    Message('note_off', channel=7, note=73, velocity=1, time=76),
    Message('note_off', channel=7, note=64, velocity=1, time=0),
    Message('note_on', channel=7, note=73, velocity=127, time=20),
    Message('note_on', channel=7, note=64, velocity=127, time=0),
    Message('note_off', channel=7, note=73, velocity=1, time=76),
    Message('note_off', channel=7, note=64, velocity=1, time=0),
    Message('note_on', channel=7, note=71, velocity=127, time=20),
    Message('note_on', channel=7, note=68, velocity=127, time=0),
    Message('note_off', channel=7, note=68, velocity=1, time=474),
    Message('note_off', channel=7, note=71, velocity=1, time=0),
    Message('note_on', channel=7, note=66, velocity=127, time=102),
    Message('note_off', channel=7, note=66, velocity=1, time=76),
    Message('note_on', channel=7, note=68, velocity=127, time=20),
    Message('note_off', channel=7, note=68, velocity=1, time=76),
    Message('note_on', channel=7, note=73, velocity=127, time=20),
    Message('note_on', channel=7, note=69, velocity=127, time=0),
    Message('note_off', channel=7, note=69, velocity=1, time=474),
    Message('note_off', channel=7, note=73, velocity=1, time=0),
    Message('note_on', channel=7, note=76, velocity=127, time=102),
    Message('note_on', channel=7, note=68, velocity=127, time=0),
    Message('note_off', channel=7, note=76, velocity=1, time=76),
    Message('note_off', channel=7, note=68, velocity=1, time=0),
    Message('note_on', channel=7, note=76, velocity=127, time=20),
    Message('note_on', channel=7, note=69, velocity=127, time=0),
    Message('note_off', channel=7, note=76, velocity=1, time=76),
    Message('note_off', channel=7, note=69, velocity=1, time=0),
    Message('note_on', channel=7, note=76, velocity=127, time=20),
    Message('note_on', channel=7, note=71, velocity=127, time=0),
    Message('note_off', channel=7, note=71, velocity=1, time=426),
    Message('note_off', channel=7, note=76, velocity=1, time=0),
    Message('note_on', channel=7, note=76, velocity=127, time=150),
    Message('note_on', channel=7, note=69, velocity=127, time=0),
    Message('note_off', channel=7, note=76, velocity=1, time=76),
    Message('note_off', channel=7, note=69, velocity=1, time=0),
    Message('note_on', channel=7, note=76, velocity=127, time=20),
    Message('note_on', channel=7, note=69, velocity=127, time=0),
    Message('note_off', channel=7, note=76, velocity=1, time=76),
    Message('note_off', channel=7, note=69, velocity=1, time=0),
    Message('note_on', channel=7, note=76, velocity=127, time=20),
    Message('note_on', channel=7, note=73, velocity=127, time=0),
    Message('note_off', channel=7, note=73, velocity=1, time=38),
    Message('note_on', channel=7, note=71, velocity=127, time=10),
    Message('note_off', channel=7, note=71, velocity=1, time=474),
    Message('note_off', channel=7, note=76, velocity=1, time=0),
    Message('note_on', channel=7, note=73, velocity=127, time=54),
    Message('note_off', channel=7, note=73, velocity=1, time=76),
    Message('note_on', channel=7, note=76, velocity=127, time=20),
    Message('note_off', channel=7, note=76, velocity=1, time=153),
    Message('note_on', channel=7, note=79, velocity=127, time=39),
    Message('note_off', channel=7, note=79, velocity=1, time=153),
    Message('note_on', channel=7, note=76, velocity=127, time=39),
    Message('note_off', channel=7, note=76, velocity=1, time=906),
    Message('note_on', channel=7, note=73, velocity=127, time=54),
    Message('note_off', channel=7, note=73, velocity=1, time=76),
    Message('note_on', channel=7, note=76, velocity=127, time=20),
    Message('note_off', channel=7, note=76, velocity=1, time=230),
    Message('note_on', channel=7, note=79, velocity=127, time=58),
    Message('note_off', channel=7, note=79, velocity=1, time=153),
    Message('note_on', channel=7, note=76, velocity=127, time=39),
    Message('note_off', channel=7, note=76, velocity=1, time=912),
    Message('control_change', channel=7, control=1, value=127, time=28),
    Message('note_on', channel=7, note=74, velocity=127, time=20),
    Message('note_off', channel=7, note=74, velocity=1, time=76),
    Message('note_on', channel=7, note=76, velocity=127, time=20),
    Message('note_off', channel=7, note=76, velocity=1, time=76),
    Message('note_on', channel=7, note=76, velocity=127, time=212),
    Message('note_off', channel=7, note=76, velocity=1, time=153),
    Message('note_on', channel=7, note=74, velocity=127, time=39),
    Message('note_off', channel=7, note=74, velocity=1, time=153),
    Message('note_on', channel=7, note=76, velocity=127, time=39),
    Message('note_off', channel=7, note=76, velocity=1, time=76),
    Message('note_on', channel=7, note=76, velocity=127, time=20),
    Message('note_off', channel=7, note=76, velocity=1, time=76),
    Message('note_on', channel=7, note=74, velocity=127, time=20),
    Message('note_off', channel=7, note=74, velocity=1, time=76),
    Message('note_on', channel=7, note=76, velocity=127, time=20),
    Message('note_off', channel=7, note=76, velocity=1, time=480),
    Message('note_on', channel=7, note=76, velocity=127, time=0),
    Message('note_off', channel=7, note=76, velocity=1, time=76),
    Message('note_on', channel=7, note=76, velocity=127, time=20),
    Message('note_off', channel=7, note=76, velocity=1, time=76),
    Message('note_on', channel=7, note=76, velocity=127, time=212),
    Message('note_off', channel=7, note=76, velocity=1, time=153),
    Message('note_on', channel=7, note=76, velocity=127, time=39),
    Message('note_off', channel=7, note=76, velocity=1, time=76),
    Message('note_on', channel=7, note=74, velocity=127, time=20),
    Message('note_off', channel=7, note=74, velocity=1, time=76),
    Message('note_on', channel=7, note=76, velocity=127, time=20),
    Message('note_off', channel=7, note=76, velocity=1, time=153),
    Message('note_on', channel=7, note=74, velocity=127, time=39),
    Message('note_off', channel=7, note=74, velocity=1, time=76),
    Message('note_on', channel=7, note=76, velocity=127, time=20),
    Message('note_off', channel=7, note=76, velocity=1, time=249),
    Message('note_on', channel=7, note=74, velocity=127, time=39),
    Message('note_off', channel=7, note=74, velocity=1, time=76),
    Message('note_on', channel=7, note=76, velocity=127, time=20),
    Message('note_off', channel=7, note=76, velocity=1, time=249),
    Message('note_on', channel=7, note=76, velocity=127, time=39),
    Message('note_off', channel=7, note=76, velocity=1, time=76),
    Message('note_on', channel=7, note=74, velocity=127, time=20),
    Message('note_off', channel=7, note=74, velocity=1, time=76),
    Message('note_on', channel=7, note=76, velocity=127, time=20),
    Message('note_off', channel=7, note=76, velocity=1, time=76),
    Message('note_on', channel=7, note=74, velocity=127, time=20),
    Message('note_off', channel=7, note=74, velocity=1, time=76),
    Message('note_on', channel=7, note=76, velocity=127, time=20),
    Message('note_off', channel=7, note=76, velocity=1, time=153),
    Message('note_on', channel=7, note=76, velocity=127, time=39),
    Message('note_off', channel=7, note=76, velocity=1, time=153),
    Message('note_on', channel=7, note=74, velocity=127, time=39),
    Message('note_off', channel=7, note=74, velocity=1, time=76),
    Message('note_on', channel=7, note=76, velocity=127, time=20),
    Message('note_off', channel=7, note=76, velocity=1, time=316),
    Message('note_on', channel=7, note=73, velocity=127, time=68),
    Message('note_off', channel=7, note=73, velocity=1, time=76),
    Message('note_on', channel=7, note=74, velocity=127, time=20),
    Message('note_off', channel=7, note=74, velocity=1, time=153),
    Message('note_on', channel=7, note=76, velocity=127, time=39),
    Message('note_off', channel=7, note=76, velocity=1, time=76),
    Message('note_on', channel=7, note=74, velocity=127, time=20),
    Message('note_off', channel=7, note=74, velocity=1, time=76),
    Message('note_on', channel=7, note=76, velocity=127, time=20),
    Message('note_off', channel=7, note=76, velocity=1, time=153),
    Message('note_on', channel=7, note=76, velocity=127, time=39),
    Message('note_off', channel=7, note=76, velocity=1, time=153),
    Message('note_on', channel=7, note=76, velocity=127, time=39),
    Message('note_off', channel=7, note=76, velocity=1, time=153),
    Message('note_on', channel=7, note=74, velocity=127, time=39),
    Message('note_off', channel=7, note=74, velocity=1, time=76),
    Message('note_on', channel=7, note=76, velocity=127, time=20),
    Message('note_off', channel=7, note=76, velocity=1, time=172),
    Message('note_on', channel=7, note=74, velocity=127, time=20),
    Message('note_off', channel=7, note=74, velocity=1, time=76),
    Message('note_on', channel=7, note=74, velocity=127, time=116),
    Message('note_off', channel=7, note=74, velocity=1, time=76),
    Message('note_on', channel=7, note=76, velocity=127, time=20),
    Message('note_off', channel=7, note=76, velocity=1, time=153),
    Message('note_on', channel=7, note=74, velocity=127, time=39),
    Message('note_off', channel=7, note=74, velocity=1, time=153),
    Message('note_on', channel=7, note=76, velocity=127, time=39),
    Message('note_off', channel=7, note=76, velocity=1, time=153),
    Message('note_on', channel=7, note=76, velocity=127, time=39),
    Message('note_off', channel=7, note=76, velocity=1, time=76),
    Message('note_on', channel=7, note=74, velocity=127, time=20),
    Message('note_off', channel=7, note=74, velocity=1, time=76),
    Message('note_on', channel=7, note=76, velocity=127, time=20),
    Message('note_off', channel=7, note=76, velocity=1, time=153),
    Message('note_on', channel=7, note=74, velocity=127, time=39),
    Message('note_off', channel=7, note=74, velocity=1, time=76),
    Message('note_on', channel=7, note=76, velocity=127, time=20),
    Message('note_off', channel=7, note=76, velocity=1, time=172),
    Message('note_on', channel=7, note=74, velocity=127, time=20),
    Message('note_off', channel=7, note=74, velocity=1, time=288),
    Message('note_on', channel=7, note=74, velocity=127, time=0),
    Message('note_off', channel=7, note=74, velocity=1, time=76),
    Message('note_on', channel=7, note=76, velocity=127, time=20),
    Message('note_off', channel=7, note=76, velocity=1, time=230),
    Message('note_on', channel=7, note=80, velocity=127, time=58),
    Message('note_off', channel=7, note=80, velocity=1, time=153),
    Message('note_on', channel=7, note=76, velocity=127, time=39),
    Message('note_off', channel=7, note=76, velocity=1, time=748),
    Message('note_on', channel=7, note=71, velocity=127, time=116),
    Message('note_off', channel=7, note=71, velocity=1, time=76),
    Message('note_on', channel=7, note=74, velocity=127, time=20),
    Message('note_off', channel=7, note=74, velocity=1, time=76),
    Message('note_on', channel=7, note=76, velocity=127, time=20),
    Message('note_off', channel=7, note=76, velocity=1, time=230),
    Message('note_on', channel=7, note=76, velocity=127, time=58),
    Message('note_off', channel=7, note=76, velocity=1, time=1146),
    Message('note_on', channel=7, note=78, velocity=127, time=6),
    Message('note_off', channel=7, note=78, velocity=1, time=76),
    Message('note_on', channel=7, note=76, velocity=127, time=20),
    Message('note_off', channel=7, note=76, velocity=1, time=153),
    Message('note_on', channel=7, note=74, velocity=127, time=39),
    Message('note_off', channel=7, note=74, velocity=1, time=138),
    Message('note_on', channel=7, note=76, velocity=127, time=6),
    Message('note_off', channel=7, note=76, velocity=1, time=38),
    Message('note_on', channel=7, note=75, velocity=127, time=10),
    Message('note_off', channel=7, note=75, velocity=1, time=38),
    Message('note_on', channel=7, note=71, velocity=127, time=10),
    Message('note_off', channel=7, note=71, velocity=1, time=1194),
    Message('note_on', channel=7, note=74, velocity=127, time=102),
    Message('note_off', channel=7, note=74, velocity=1, time=90),
    Message('note_on', channel=7, note=74, velocity=127, time=0),
    Message('note_on', channel=7, note=76, velocity=127, time=0),
    Message('note_on', channel=7, note=71, velocity=127, time=6),
    Message('note_off', channel=7, note=71, velocity=1, time=1530),
    Message('note_off', channel=7, note=76, velocity=1, time=0),
    Message('note_off', channel=7, note=74, velocity=1, time=0),
    Message('control_change', channel=7, control=7, value=110, time=0),
    Message('control_change', channel=7, control=8, value=60, time=82),
    Message('control_change', channel=7, control=1, value=127, time=0),
    Message('control_change', channel=7, control=2, value=20, time=0),
    Message('pitchwheel', channel=7, pitch=0, time=0),
    Message('control_change', channel=7, control=4, value=0, time=0),
    Message('program_change', channel=7, program=107, time=0),
    Message('note_on', channel=7, note=64, velocity=127, time=0),
    Message('note_off', channel=7, note=64, velocity=64, time=96),
    Message('note_on', channel=7, note=68, velocity=127, time=0),
    Message('note_off', channel=7, note=68, velocity=64, time=160),
    Message('note_on', channel=7, note=71, velocity=127, time=144),
    Message('note_off', channel=7, note=71, velocity=64, time=304),
    Message('note_on', channel=7, note=74, velocity=127, time=0),
    Message('note_off', channel=7, note=74, velocity=64, time=128),
    Message('note_on', channel=7, note=71, velocity=127, time=144),
    Message('note_off', channel=7, note=71, velocity=64, time=288),
    Message('note_on', channel=7, note=73, velocity=127, time=0),
    Message('note_off', channel=7, note=73, velocity=64, time=80),
    Message('note_on', channel=7, note=74, velocity=127, time=0),
    Message('note_off', channel=7, note=74, velocity=64, time=80),
    Message('note_on', channel=7, note=76, velocity=127, time=16),
    Message('note_off', channel=7, note=76, velocity=64, time=384),
    Message('note_on', channel=7, note=71, velocity=127, time=384),
    Message('note_off', channel=7, note=71, velocity=64, time=96),
    Message('note_on', channel=7, note=67, velocity=127, time=0),
    Message('note_off', channel=7, note=67, velocity=64, time=96),
    Message('note_on', channel=7, note=64, velocity=127, time=0),
    Message('note_off', channel=7, note=64, velocity=64, time=96),
    Message('note_on', channel=7, note=71, velocity=127, time=0),
    Message('note_on', channel=7, note=67, velocity=127, time=96),
    Message('note_off', channel=7, note=71, velocity=64, time=32),
    Message('note_off', channel=7, note=67, velocity=64, time=352),
    Message('note_on', channel=7, note=68, velocity=127, time=192),
    Message('note_off', channel=7, note=68, velocity=64, time=288),
    Message('note_on', channel=7, note=71, velocity=127, time=0),
    Message('note_off', channel=7, note=71, velocity=64, time=96),
    Message('note_on', channel=7, note=69, velocity=127, time=0),
    Message('note_off', channel=7, note=69, velocity=64, time=48),
    Message('note_on', channel=7, note=68, velocity=127, time=48),
    Message('note_off', channel=7, note=68, velocity=64, time=64),
    Message('note_on', channel=7, note=68, velocity=127, time=32),
    Message('note_off', channel=7, note=68, velocity=64, time=48),
    Message('note_on', channel=7, note=71, velocity=127, time=0),
    Message('note_off', channel=7, note=71, velocity=64, time=384),
    Message('note_on', channel=7, note=71, velocity=127, time=224),
    Message('note_off', channel=7, note=71, velocity=64, time=256),
    Message('note_on', channel=7, note=69, velocity=127, time=48),
    Message('note_off', channel=7, note=69, velocity=64, time=128),
    Message('note_on', channel=7, note=73, velocity=127, time=64),
    Message('note_off', channel=7, note=73, velocity=64, time=384),
    Message('note_on', channel=7, note=67, velocity=127, time=16),
    Message('note_off', channel=7, note=67, velocity=64, time=144),
    Message('note_on', channel=7, note=69, velocity=127, time=32),
    Message('note_off', channel=7, note=69, velocity=64, time=672),
    Message('note_on', channel=7, note=73, velocity=127, time=592),
    Message('note_off', channel=7, note=73, velocity=64, time=80),
    Message('note_on', channel=7, note=76, velocity=127, time=108),
    Message('note_off', channel=7, note=76, velocity=64, time=64),
    Message('note_on', channel=7, note=73, velocity=127, time=20),
    Message('note_off', channel=7, note=73, velocity=64, time=64),
    Message('note_on', channel=7, note=76, velocity=127, time=32),
    Message('note_off', channel=7, note=76, velocity=64, time=64),
    Message('note_on', channel=7, note=78, velocity=127, time=32),
    Message('note_off', channel=7, note=78, velocity=64, time=32),
    Message('note_on', channel=7, note=76, velocity=127, time=16),
    Message('note_off', channel=7, note=76, velocity=64, time=32),
    Message('note_on', channel=7, note=76, velocity=127, time=32),
    Message('note_off', channel=7, note=76, velocity=64, time=80),
    Message('note_on', channel=7, note=76, velocity=127, time=16),
    Message('note_off', channel=7, note=76, velocity=64, time=80),
    Message('note_on', channel=7, note=76, velocity=127, time=16),
    Message('note_off', channel=7, note=76, velocity=64, time=240),
    Message('note_on', channel=7, note=71, velocity=127, time=32),
    Message('note_off', channel=7, note=71, velocity=64, time=80),
    Message('note_on', channel=7, note=69, velocity=127, time=16),
    Message('note_off', channel=7, note=69, velocity=64, time=64),
    Message('note_on', channel=7, note=64, velocity=127, time=32),
    Message('note_off', channel=7, note=64, velocity=64, time=64),
    Message('note_on', channel=7, note=76, velocity=127, time=48),
    Message('note_off', channel=7, note=76, velocity=64, time=80),
    Message('note_on', channel=7, note=76, velocity=127, time=0),
    Message('note_off', channel=7, note=76, velocity=64, time=576),
    Message('note_on', channel=7, note=76, velocity=127, time=0),
    Message('note_off', channel=7, note=76, velocity=64, time=96),
    Message('note_on', channel=7, note=73, velocity=127, time=16),
    Message('note_off', channel=7, note=73, velocity=64, time=80),
    Message('note_on', channel=7, note=76, velocity=127, time=16),
    Message('note_off', channel=7, note=76, velocity=64, time=80),
    Message('note_on', channel=7, note=69, velocity=127, time=0),
    Message('note_off', channel=7, note=69, velocity=64, time=96),
    Message('note_on', channel=7, note=68, velocity=127, time=0),
    Message('note_off', channel=7, note=68, velocity=64, time=64),
    Message('note_on', channel=7, note=79, velocity=127, time=0),
    Message('note_off', channel=7, note=79, velocity=64, time=32),
    Message('note_on', channel=7, note=71, velocity=127, time=0),
    Message('note_on', channel=7, note=79, velocity=127, time=32),
    Message('note_off', channel=7, note=71, velocity=64, time=16),
    Message('note_off', channel=7, note=79, velocity=64, time=16),
    Message('note_on', channel=7, note=76, velocity=127, time=48),
    Message('note_off', channel=7, note=76, velocity=64, time=862),
    Message('note_on', channel=7, note=74, velocity=123, time=34),
    Message('note_off', channel=7, note=74, velocity=64, time=48),
    Message('note_on', channel=7, note=73, velocity=123, time=16),
    Message('note_off', channel=7, note=73, velocity=64, time=80),
    Message('note_on', channel=7, note=76, velocity=123, time=32),
    Message('note_on', channel=7, note=69, velocity=123, time=4),
    Message('note_off', channel=7, note=69, velocity=64, time=132),
    Message('note_on', channel=7, note=69, velocity=123, time=0),
    Message('note_off', channel=7, note=76, velocity=64, time=8),
    Message('note_on', channel=7, note=76, velocity=123, time=0),
    Message('note_on', channel=7, note=79, velocity=127, time=128),
    Message('note_off', channel=7, note=69, velocity=64, time=56),
    Message('note_off', channel=7, note=76, velocity=64, time=8),
    Message('note_off', channel=7, note=79, velocity=64, time=16),
    Message('note_on', channel=7, note=71, velocity=127, time=0),
    Message('note_off', channel=7, note=71, velocity=64, time=32),
    Message('note_on', channel=7, note=79, velocity=127, time=0),
    Message('note_off', channel=7, note=79, velocity=64, time=32),
    Message('note_on', channel=7, note=71, velocity=127, time=32),
    Message('note_off', channel=7, note=71, velocity=64, time=80),
    Message('note_on', channel=7, note=68, velocity=127, time=0),
    Message('note_off', channel=7, note=68, velocity=64, time=112),
    Message('note_on', channel=7, note=64, velocity=127, time=0),
    Message('note_off', channel=7, note=64, velocity=64, time=96),
    Message('note_on', channel=7, note=71, velocity=127, time=0),
    Message('note_off', channel=7, note=71, velocity=64, time=96),
    Message('note_on', channel=7, note=73, velocity=127, time=0),
    Message('note_off', channel=7, note=73, velocity=64, time=64),
    Message('note_on', channel=7, note=74, velocity=127, time=32),
    Message('note_off', channel=7, note=74, velocity=64, time=96),
    Message('note_on', channel=7, note=69, velocity=127, time=0),
    Message('note_off', channel=7, note=69, velocity=64, time=96),
    Message('note_on', channel=7, note=69, velocity=127, time=0),
    Message('note_off', channel=7, note=69, velocity=64, time=96),
    Message('note_on', channel=7, note=74, velocity=127, time=0),
    Message('note_off', channel=7, note=74, velocity=64, time=96),
    Message('note_on', channel=7, note=69, velocity=127, time=0),
    Message('note_off', channel=7, note=69, velocity=64, time=96),
    Message('note_on', channel=7, note=74, velocity=127, time=16),
    Message('note_off', channel=7, note=74, velocity=64, time=80),
    Message('note_on', channel=7, note=76, velocity=127, time=16),
    Message('note_off', channel=7, note=76, velocity=64, time=80),
    Message('note_on', channel=7, note=73, velocity=127, time=0),
    Message('note_off', channel=7, note=73, velocity=64, time=64),
    Message('note_on', channel=7, note=69, velocity=127, time=32),
    Message('note_off', channel=7, note=69, velocity=64, time=48),
    Message('note_on', channel=7, note=74, velocity=127, time=0),
    Message('note_off', channel=7, note=74, velocity=64, time=48),
    Message('note_on', channel=7, note=76, velocity=127, time=16),
    Message('note_off', channel=7, note=76, velocity=64, time=144),
    Message('note_on', channel=7, note=74, velocity=127, time=48),
    Message('note_off', channel=7, note=74, velocity=64, time=384),
    Message('note_on', channel=7, note=69, velocity=127, time=368),
    Message('note_off', channel=7, note=69, velocity=64, time=96),
    Message('note_on', channel=7, note=76, velocity=127, time=208),
    Message('note_off', channel=7, note=76, velocity=64, time=48),
    Message('note_on', channel=7, note=74, velocity=127, time=0),
    Message('note_off', channel=7, note=74, velocity=64, time=32),
    Message('note_on', channel=7, note=69, velocity=127, time=0),
    Message('note_off', channel=7, note=69, velocity=64, time=64),
    Message('note_on', channel=7, note=74, velocity=127, time=32),
    Message('note_off', channel=7, note=74, velocity=64, time=48),
    Message('note_on', channel=7, note=69, velocity=127, time=0),
    Message('note_off', channel=7, note=69, velocity=64, time=48),
    Message('note_on', channel=7, note=76, velocity=127, time=16),
    Message('note_off', channel=7, note=76, velocity=64, time=176),
    Message('note_on', channel=7, note=71, velocity=127, time=0),
    Message('note_off', channel=7, note=71, velocity=64, time=96),
    Message('note_on', channel=7, note=64, velocity=127, time=0),
    Message('note_off', channel=7, note=64, velocity=64, time=288),
    Message('note_on', channel=7, note=76, velocity=127, time=192),
    Message('note_off', channel=7, note=76, velocity=64, time=176),
    Message('note_on', channel=7, note=74, velocity=127, time=32),
    Message('note_off', channel=7, note=74, velocity=64, time=80),
    Message('note_on', channel=7, note=76, velocity=127, time=16),
    Message('note_off', channel=7, note=76, velocity=64, time=240),
    Message('note_on', channel=7, note=76, velocity=127, time=240),
    Message('note_off', channel=7, note=76, velocity=64, time=80),
    Message('note_on', channel=7, note=71, velocity=127, time=0),
    Message('note_off', channel=7, note=71, velocity=64, time=32),
    Message('note_on', channel=7, note=74, velocity=127, time=0),
    Message('note_off', channel=7, note=74, velocity=64, time=64),
    Message('note_on', channel=7, note=76, velocity=127, time=16),
    Message('note_off', channel=7, note=76, velocity=64, time=144),
    Message('note_on', channel=7, note=76, velocity=127, time=48),
    Message('note_off', channel=7, note=76, velocity=64, time=144),
    Message('note_on', channel=7, note=74, velocity=127, time=48),
    Message('note_off', channel=7, note=74, velocity=64, time=80),
    Message('note_on', channel=7, note=71, velocity=127, time=0),
    Message('note_off', channel=7, note=71, velocity=64, time=48),
    Message('note_on', channel=7, note=76, velocity=127, time=0),
    Message('note_off', channel=7, note=76, velocity=64, time=208),
    Message('note_on', channel=7, note=69, velocity=127, time=32),
    Message('note_off', channel=7, note=69, velocity=64, time=112),
    Message('note_on', channel=7, note=73, velocity=127, time=0),
    Message('note_off', channel=7, note=73, velocity=64, time=80),
    Message('note_on', channel=7, note=74, velocity=127, time=112),
    Message('note_off', channel=7, note=74, velocity=64, time=80),
    Message('note_on', channel=7, note=76, velocity=127, time=16),
    Message('note_off', channel=7, note=76, velocity=64, time=80),
    Message('note_on', channel=7, note=74, velocity=127, time=16),
    Message('note_off', channel=7, note=74, velocity=64, time=80),
    Message('note_on', channel=7, note=76, velocity=127, time=16),
    Message('note_off', channel=7, note=76, velocity=64, time=1726),
    Message('note_on', channel=7, note=74, velocity=127, time=98),
    Message('note_off', channel=7, note=74, velocity=64, time=80),
    Message('note_on', channel=7, note=76, velocity=127, time=16),
    Message('note_off', channel=7, note=76, velocity=64, time=144),
    Message('note_on', channel=7, note=74, velocity=127, time=48),
    Message('note_off', channel=7, note=74, velocity=64, time=80),
    Message('note_on', channel=7, note=76, velocity=127, time=16),
    Message('note_off', channel=7, note=76, velocity=64, time=176),
    Message('note_on', channel=7, note=74, velocity=127, time=16),
    Message('note_on', channel=7, note=69, velocity=127, time=80),
    Message('note_off', channel=7, note=74, velocity=64, time=16),
    Message('note_off', channel=7, note=69, velocity=64, time=48),
    Message('note_on', channel=7, note=66, velocity=127, time=32),
    Message('note_off', channel=7, note=66, velocity=64, time=64),
    Message('note_on', channel=7, note=80, velocity=127, time=432),
    Message('note_off', channel=7, note=80, velocity=64, time=144),
    Message('note_on', channel=7, note=76, velocity=127, time=48),
    Message('note_off', channel=7, note=76, velocity=64, time=528),
    Message('note_on', channel=7, note=74, velocity=127, time=224),
    Message('note_off', channel=7, note=74, velocity=64, time=96),
    Message('note_on', channel=7, note=71, velocity=127, time=16),
    Message('note_off', channel=7, note=71, velocity=64, time=80),
    Message('note_on', channel=7, note=74, velocity=127, time=16),
    Message('note_off', channel=7, note=74, velocity=64, time=80),
    Message('note_on', channel=7, note=76, velocity=127, time=16),
    Message('note_off', channel=7, note=76, velocity=64, time=288),
    Message('note_on', channel=7, note=76, velocity=127, time=0),
    Message('note_off', channel=7, note=76, velocity=64, time=144),
    Message('note_on', channel=7, note=76, velocity=127, time=416),
    Message('note_off', channel=7, note=76, velocity=64, time=80),
    Message('note_on', channel=7, note=76, velocity=127, time=16),
    Message('note_off', channel=7, note=76, velocity=64, time=96),
    Message('note_on', channel=7, note=74, velocity=127, time=96),
    Message('note_off', channel=7, note=74, velocity=64, time=96),
    Message('note_on', channel=7, note=69, velocity=127, time=0),
    Message('note_off', channel=7, note=69, velocity=64, time=96),
    Message('note_on', channel=7, note=74, velocity=127, time=16),
    Message('note_off', channel=7, note=74, velocity=64, time=80),
    Message('note_on', channel=7, note=78, velocity=127, time=16),
    Message('note_off', channel=7, note=78, velocity=64, time=80),
    Message('note_on', channel=7, note=76, velocity=127, time=16),
    Message('note_off', channel=7, note=76, velocity=64, time=144),
    Message('note_on', channel=7, note=74, velocity=127, time=48),
    Message('note_off', channel=7, note=74, velocity=64, time=80),
    Message('note_on', channel=7, note=68, velocity=127, time=0),
    Message('note_off', channel=7, note=68, velocity=64, time=96),
    Message('note_on', channel=7, note=71, velocity=127, time=96),
    Message('note_off', channel=7, note=71, velocity=64, time=144),
    Message('note_on', channel=7, note=74, velocity=127, time=0),
    Message('note_off', channel=7, note=74, velocity=64, time=432),
    Message('note_on', channel=7, note=71, velocity=123, time=0),
    Message('note_off', channel=7, note=71, velocity=64, time=144),
    Message('note_on', channel=7, note=81, velocity=123, time=144),
    Message('note_off', channel=7, note=81, velocity=64, time=64),
    Message('note_on', channel=7, note=74, velocity=123, time=0),
    Message('note_on', channel=7, note=78, velocity=123, time=44),
    Message('note_off', channel=7, note=74, velocity=64, time=52),
    Message('note_off', channel=7, note=78, velocity=64, time=12),
    Message('note_on', channel=7, note=74, velocity=123, time=228),
    Message('note_off', channel=7, note=74, velocity=64, time=848),
    Message('control_change', channel=7, control=7, value=127, time=788),
    Message('program_change', channel=7, program=66, time=172),
    Message('control_change', channel=7, control=1, value=127, time=0),
    Message('note_on', channel=7, note=68, velocity=94, time=20),
    Message('note_off', channel=7, note=68, velocity=64, time=288),
    Message('note_on', channel=7, note=71, velocity=94, time=0),
    Message('note_off', channel=7, note=71, velocity=64, time=268),
    Message('note_on', channel=7, note=74, velocity=94, time=20),
    Message('note_off', channel=7, note=74, velocity=64, time=288),
    Message('note_on', channel=7, note=71, velocity=94, time=0),
    Message('note_off', channel=7, note=71, velocity=64, time=240),
    Message('note_on', channel=7, note=73, velocity=94, time=48),
    Message('note_off', channel=7, note=73, velocity=64, time=364),
    Message('note_on', channel=7, note=61, velocity=90, time=20),
    Message('note_off', channel=7, note=61, velocity=64, time=268),
    Message('note_on', channel=7, note=64, velocity=90, time=20),
    Message('note_off', channel=7, note=64, velocity=64, time=268),
    Message('note_on', channel=7, note=67, velocity=94, time=20),
    Message('note_off', channel=7, note=67, velocity=64, time=336),
    Message('note_on', channel=7, note=64, velocity=94, time=48),
    Message('note_off', channel=7, note=64, velocity=64, time=556),
    Message('note_on', channel=7, note=68, velocity=94, time=20),
    Message('note_off', channel=7, note=68, velocity=64, time=288),
    Message('note_on', channel=7, note=71, velocity=94, time=0),
    Message('note_off', channel=7, note=71, velocity=64, time=268),
    Message('note_on', channel=7, note=74, velocity=94, time=20),
    Message('note_off', channel=7, note=74, velocity=64, time=288),
    Message('note_on', channel=7, note=71, velocity=94, time=0),
    Message('note_off', channel=7, note=71, velocity=64, time=76),
    Message('note_on', channel=7, note=73, velocity=94, time=20),
    Message('note_off', channel=7, note=73, velocity=64, time=556),
    Message('note_on', channel=7, note=61, velocity=90, time=20),
    Message('note_off', channel=7, note=61, velocity=64, time=268),
    Message('note_on', channel=7, note=64, velocity=90, time=20),
    Message('note_off', channel=7, note=64, velocity=64, time=268),
    Message('note_on', channel=7, note=67, velocity=94, time=20),
    Message('note_off', channel=7, note=67, velocity=64, time=288),
    Message('note_on', channel=7, note=64, velocity=94, time=6),
    Message('note_off', channel=7, note=64, velocity=64, time=172),
    Message('note_on', channel=7, note=73, velocity=94, time=14),
    Message('note_off', channel=7, note=73, velocity=64, time=76),
    Message('note_on', channel=7, note=73, velocity=94, time=20),
    Message('note_off', channel=7, note=73, velocity=64, time=76),
    Message('note_on', channel=7, note=71, velocity=94, time=20),
    Message('note_off', channel=7, note=71, velocity=64, time=460),
    Message('note_on', channel=7, note=66, velocity=94, time=116),
    Message('note_off', channel=7, note=66, velocity=64, time=76),
    Message('note_on', channel=7, note=68, velocity=94, time=20),
    Message('note_off', channel=7, note=68, velocity=64, time=76),
    Message('note_on', channel=7, note=73, velocity=94, time=20),
    Message('note_off', channel=7, note=73, velocity=64, time=460),
    Message('note_on', channel=7, note=76, velocity=90, time=116),
    Message('note_off', channel=7, note=76, velocity=64, time=76),
    Message('note_on', channel=7, note=76, velocity=90, time=20),
    Message('note_off', channel=7, note=76, velocity=64, time=76),
    Message('note_on', channel=7, note=76, velocity=90, time=20),
    Message('note_off', channel=7, note=76, velocity=64, time=460),
    Message('note_on', channel=7, note=76, velocity=94, time=116),
    Message('note_off', channel=7, note=76, velocity=64, time=96),
    Message('note_on', channel=7, note=76, velocity=94, time=0),
    Message('note_off', channel=7, note=76, velocity=64, time=76),
    Message('note_on', channel=7, note=76, velocity=94, time=20),
    Message('note_on', channel=7, note=73, velocity=94, time=0),
    Message('note_off', channel=7, note=73, velocity=64, time=38),
    Message('note_off', channel=7, note=76, velocity=64, time=422),
    Message('note_on', channel=7, note=73, velocity=94, time=116),
    Message('note_off', channel=7, note=73, velocity=64, time=76),
    Message('note_on', channel=7, note=76, velocity=94, time=20),
    Message('note_off', channel=7, note=76, velocity=64, time=172),
    Message('note_on', channel=7, note=79, velocity=94, time=20),
    Message('note_off', channel=7, note=79, velocity=64, time=153),
    Message('note_on', channel=7, note=76, velocity=94, time=39),
    Message('note_off', channel=7, note=76, velocity=64, time=940),
    Message('note_on', channel=7, note=79, velocity=94, time=20),
    Message('note_off', channel=7, note=79, velocity=64, time=76),
    Message('note_on', channel=7, note=76, velocity=94, time=20),
    Message('note_off', channel=7, note=76, velocity=64, time=268),
    Message('note_on', channel=7, note=80, velocity=94, time=20),
    Message('note_off', channel=7, note=80, velocity=64, time=153),
    Message('note_on', channel=7, note=76, velocity=94, time=39),
    Message('note_off', channel=7, note=76, velocity=64, time=940),
    Message('note_on', channel=7, note=79, velocity=94, time=20),
    Message('note_off', channel=7, note=79, velocity=64, time=76),
    Message('note_on', channel=7, note=76, velocity=94, time=20),
    Message('note_off', channel=7, note=76, velocity=64, time=268),
    Message('note_on', channel=7, note=80, velocity=94, time=20),
    Message('note_off', channel=7, note=80, velocity=64, time=153),
    Message('note_on', channel=7, note=76, velocity=94, time=39),
    Message('note_off', channel=7, note=76, velocity=64, time=940),
    Message('note_on', channel=7, note=79, velocity=94, time=20),
    Message('note_off', channel=7, note=79, velocity=64, time=76),
    Message('note_on', channel=7, note=76, velocity=94, time=20),
    Message('note_off', channel=7, note=76, velocity=64, time=268),
    Message('note_on', channel=7, note=80, velocity=94, time=20),
    Message('note_off', channel=7, note=80, velocity=64, time=153),
    Message('note_on', channel=7, note=76, velocity=94, time=39),
    Message('note_off', channel=7, note=76, velocity=64, time=940),
    Message('note_on', channel=7, note=79, velocity=94, time=20),
    Message('note_off', channel=7, note=79, velocity=64, time=76),
    Message('note_on', channel=7, note=76, velocity=94, time=20),
    Message('note_off', channel=7, note=76, velocity=64, time=268),
    Message('control_change', channel=7, control=7, value=126, time=14),
    Message('note_on', channel=7, note=80, velocity=94, time=6),
    Message('control_change', channel=7, control=7, value=125, time=42),
    Message('control_change', channel=7, control=7, value=124, time=48),
    Message('control_change', channel=7, control=7, value=123, time=24),
    Message('note_off', channel=7, note=80, velocity=64, time=39),
    Message('control_change', channel=7, control=7, value=122, time=9),
    Message('note_on', channel=7, note=76, velocity=94, time=30),
    Message('control_change', channel=7, control=7, value=121, time=18),
    Message('control_change', channel=7, control=7, value=120, time=24),
    Message('control_change', channel=7, control=7, value=119, time=48),
    Message('control_change', channel=7, control=7, value=118, time=24),
    Message('control_change', channel=7, control=7, value=117, time=48),
    Message('control_change', channel=7, control=7, value=116, time=48),
    Message('control_change', channel=7, control=7, value=115, time=24),
    Message('control_change', channel=7, control=7, value=114, time=48),
    Message('control_change', channel=7, control=7, value=113, time=48),
    Message('control_change', channel=7, control=7, value=112, time=24),
    Message('control_change', channel=7, control=7, value=111, time=48),
    Message('control_change', channel=7, control=7, value=110, time=24),
    Message('control_change', channel=7, control=7, value=109, time=48),
    Message('control_change', channel=7, control=7, value=108, time=48),
    Message('control_change', channel=7, control=7, value=107, time=24),
    Message('control_change', channel=7, control=7, value=106, time=48),
    Message('control_change', channel=7, control=7, value=105, time=24),
    Message('control_change', channel=7, control=7, value=104, time=48),
    Message('control_change', channel=7, control=7, value=103, time=48),
    Message('control_change', channel=7, control=7, value=102, time=24),
    Message('control_change', channel=7, control=7, value=101, time=48),
    Message('control_change', channel=7, control=7, value=100, time=48),
    Message('control_change', channel=7, control=7, value=99, time=24),
    Message('control_change', channel=7, control=7, value=98, time=48),
    Message('control_change', channel=7, control=7, value=97, time=24),
    Message('note_off', channel=7, note=76, velocity=64, time=10),
    Message('note_on', channel=7, note=79, velocity=94, time=20),
    Message('control_change', channel=7, control=7, value=96, time=18),
    Message('control_change', channel=7, control=7, value=95, time=48),
    Message('note_off', channel=7, note=79, velocity=64, time=10),
    Message('control_change', channel=7, control=7, value=94, time=14),
    Message('note_on', channel=7, note=76, velocity=94, time=6),
    Message('control_change', channel=7, control=7, value=93, time=42),
    Message('control_change', channel=7, control=7, value=92, time=24),
    Message('control_change', channel=7, control=7, value=91, time=48),
    Message('control_change', channel=7, control=7, value=90, time=48),
    Message('control_change', channel=7, control=7, value=89, time=24),
    Message('control_change', channel=7, control=7, value=88, time=48),
    Message('note_off', channel=7, note=76, velocity=64, time=34),
    Message('control_change', channel=7, control=7, value=87, time=14),
    Message('note_on', channel=7, note=80, velocity=94, time=6),
    Message('control_change', channel=7, control=7, value=86, time=18),
    Message('control_change', channel=7, control=7, value=85, time=48),
    Message('control_change', channel=7, control=7, value=84, time=24),
    Message('control_change', channel=7, control=7, value=83, time=48),
    Message('note_off', channel=7, note=80, velocity=64, time=15),
    Message('control_change', channel=7, control=7, value=82, time=33),
    Message('note_on', channel=7, note=76, velocity=94, time=6),
    Message('control_change', channel=7, control=7, value=81, time=18),
    Message('control_change', channel=7, control=7, value=80, time=48),
    Message('control_change', channel=7, control=7, value=79, time=24),
    Message('control_change', channel=7, control=7, value=78, time=48),
    Message('control_change', channel=7, control=7, value=77, time=48),
    Message('control_change', channel=7, control=7, value=76, time=24),
    Message('control_change', channel=7, control=7, value=75, time=48),
    Message('control_change', channel=7, control=7, value=74, time=48),
    Message('control_change', channel=7, control=7, value=73, time=24),
    Message('control_change', channel=7, control=7, value=72, time=48),
    Message('control_change', channel=7, control=7, value=71, time=24),
    Message('control_change', channel=7, control=7, value=70, time=48),
    Message('control_change', channel=7, control=7, value=69, time=48),
    Message('control_change', channel=7, control=7, value=68, time=24),
    Message('control_change', channel=7, control=7, value=67, time=48),
    Message('control_change', channel=7, control=7, value=66, time=24),
    Message('control_change', channel=7, control=7, value=65, time=48),
    Message('control_change', channel=7, control=7, value=64, time=48),
    Message('control_change', channel=7, control=7, value=63, time=24),
    Message('control_change', channel=7, control=7, value=62, time=48),
    Message('control_change', channel=7, control=7, value=61, time=48),
    Message('control_change', channel=7, control=7, value=60, time=24),
    Message('control_change', channel=7, control=7, value=59, time=48),
    Message('control_change', channel=7, control=7, value=58, time=24),
    Message('note_off', channel=7, note=76, velocity=64, time=34),
    Message('control_change', channel=7, control=7, value=57, time=14),
    Message('note_on', channel=7, note=79, velocity=94, time=6),
    Message('control_change', channel=7, control=7, value=56, time=42),
    Message('control_change', channel=7, control=7, value=55, time=24),
    Message('note_off', channel=7, note=79, velocity=64, time=10),
    Message('note_on', channel=7, note=76, velocity=94, time=20),
    Message('control_change', channel=7, control=7, value=54, time=18),
    Message('control_change', channel=7, control=7, value=53, time=24),
    Message('control_change', channel=7, control=7, value=52, time=48),
    Message('control_change', channel=7, control=7, value=51, time=48),
    Message('control_change', channel=7, control=7, value=50, time=24),
    Message('control_change', channel=7, control=7, value=49, time=48),
    Message('control_change', channel=7, control=7, value=48, time=48),
    Message('note_off', channel=7, note=76, velocity=64, time=10),
    Message('control_change', channel=7, control=7, value=47, time=14),
    Message('note_on', channel=7, note=80, velocity=94, time=6),
    Message('control_change', channel=7, control=7, value=46, time=42),
    Message('control_change', channel=7, control=7, value=45, time=24),
    Message('control_change', channel=7, control=7, value=44, time=48),
    Message('note_off', channel=7, note=80, velocity=64, time=39),
    Message('control_change', channel=7, control=7, value=43, time=9),
    Message('control_change', channel=7, control=7, value=42, time=24),
    Message('note_on', channel=7, note=76, velocity=94, time=6),
    Message('control_change', channel=7, control=7, value=41, time=42),
    Message('control_change', channel=7, control=7, value=40, time=24),
    Message('control_change', channel=7, control=7, value=39, time=48),
    Message('control_change', channel=7, control=7, value=38, time=48),
    Message('control_change', channel=7, control=7, value=37, time=24),
    Message('control_change', channel=7, control=7, value=36, time=48),
    Message('control_change', channel=7, control=7, value=35, time=48),
    Message('control_change', channel=7, control=7, value=34, time=24),
    Message('control_change', channel=7, control=7, value=33, time=48),
    Message('control_change', channel=7, control=7, value=32, time=24),
    Message('control_change', channel=7, control=7, value=31, time=48),
    Message('control_change', channel=7, control=7, value=30, time=48),
    Message('control_change', channel=7, control=7, value=29, time=24),
    Message('control_change', channel=7, control=7, value=28, time=48),
    Message('control_change', channel=7, control=7, value=19, time=24),
    Message('control_change', channel=7, control=7, value=18, time=96),
    Message('control_change', channel=7, control=7, value=17, time=72),
    Message('control_change', channel=7, control=7, value=16, time=72),
    Message('control_change', channel=7, control=7, value=15, time=72),
    Message('note_off', channel=7, note=76, velocity=64, time=58),
    Message('control_change', channel=7, control=7, value=14, time=14),
    Message('note_on', channel=7, note=79, velocity=94, time=6),
    Message('note_off', channel=7, note=79, velocity=64, time=76),
    Message('control_change', channel=7, control=7, value=13, time=14),
    Message('note_on', channel=7, note=76, velocity=94, time=6),
    Message('control_change', channel=7, control=7, value=12, time=66),
    Message('control_change', channel=7, control=7, value=11, time=72),
    Message('control_change', channel=7, control=7, value=10, time=72),
    Message('note_off', channel=7, note=76, velocity=64, time=58),
    Message('control_change', channel=7, control=7, value=9, time=14),
    Message('note_on', channel=7, note=80, velocity=94, time=6),
    Message('control_change', channel=7, control=7, value=8, time=90),
    Message('note_off', channel=7, note=80, velocity=64, time=63),
    Message('control_change', channel=7, control=7, value=7, time=9),
    Message('note_on', channel=7, note=76, velocity=94, time=30),
    Message('control_change', channel=7, control=7, value=6, time=42),
    Message('control_change', channel=7, control=7, value=5, time=72),
    Message('control_change', channel=7, control=7, value=4, time=72),
    Message('control_change', channel=7, control=7, value=3, time=96),
    Message('control_change', channel=7, control=7, value=2, time=72),
    Message('control_change', channel=7, control=7, value=1, time=72),
    Message('control_change', channel=7, control=7, value=0, time=72),
    Message('note_off', channel=7, note=76, velocity=64, time=58),
    Message('pitchwheel', channel=7, pitch=0, time=782),
    Message('polytouch', channel=7, note=64, value=0, time=0),
    Message('aftertouch', channel=7, value=0, time=0),
    Message('control_change', channel=7, control=1, value=0, time=0),
    Message('control_change', channel=7, control=2, value=0, time=0),
    Message('control_change', channel=7, control=4, value=0, time=0),
    Message('control_change', channel=7, control=7, value=100, time=0),
    Message('control_change', channel=7, control=8, value=0, time=0),
    Message('control_change', channel=7, control=10, value=63, time=0),
    Message('control_change', channel=7, control=64, value=0, time=0),
    Message('control_change', channel=7, control=65, value=0, time=0),
    Message('control_change', channel=7, control=66, value=0, time=0),
    Message('control_change', channel=7, control=67, value=0, time=0),
    Message('control_change', channel=7, control=68, value=0, time=0),
    MetaMessage('end_of_track', time=0)]),
  MidiTrack([
    MetaMessage('midi_port', port=0, time=0),
    MetaMessage('track_name', name='Lead                ', time=0),
    Message('program_change', channel=8, program=14, time=0),
    Message('control_change', channel=8, control=7, value=105, time=0),
    Message('control_change', channel=8, control=10, value=39, time=0),
    Message('pitchwheel', channel=8, pitch=-25, time=0),
    Message('control_change', channel=8, control=7, value=106, time=264),
    Message('control_change', channel=8, control=7, value=107, time=264),
    Message('control_change', channel=8, control=7, value=108, time=239),
    Message('note_on', channel=8, note=68, velocity=109, time=6337),
    Message('note_off', channel=8, note=68, velocity=64, time=153),
    Message('note_on', channel=8, note=71, velocity=109, time=135),
    Message('note_off', channel=8, note=71, velocity=64, time=230),
    Message('note_on', channel=8, note=74, velocity=109, time=58),
    Message('note_off', channel=8, note=74, velocity=64, time=153),
    Message('note_on', channel=8, note=71, velocity=109, time=135),
    Message('note_off', channel=8, note=71, velocity=64, time=234),
    Message('note_on', channel=8, note=73, velocity=109, time=54),
    Message('note_off', channel=8, note=73, velocity=64, time=76),
    Message('note_on', channel=8, note=61, velocity=109, time=308),
    Message('note_off', channel=8, note=61, velocity=64, time=268),
    Message('note_on', channel=8, note=64, velocity=109, time=20),
    Message('note_off', channel=8, note=64, velocity=64, time=230),
    Message('note_on', channel=8, note=67, velocity=109, time=58),
    Message('note_off', channel=8, note=67, velocity=64, time=153),
    Message('note_on', channel=8, note=64, velocity=109, time=231),
    Message('note_off', channel=8, note=64, velocity=64, time=268),
    Message('note_on', channel=8, note=68, velocity=109, time=308),
    Message('note_off', channel=8, note=68, velocity=64, time=153),
    Message('note_on', channel=8, note=71, velocity=109, time=135),
    Message('note_off', channel=8, note=71, velocity=64, time=230),
    Message('note_on', channel=8, note=74, velocity=109, time=58),
    Message('note_off', channel=8, note=74, velocity=64, time=153),
    Message('note_on', channel=8, note=71, velocity=109, time=135),
    Message('note_off', channel=8, note=71, velocity=64, time=76),
    Message('note_on', channel=8, note=73, velocity=109, time=20),
    Message('note_off', channel=8, note=73, velocity=64, time=153),
    Message('note_on', channel=8, note=61, velocity=109, time=423),
    Message('note_off', channel=8, note=61, velocity=64, time=268),
    Message('note_on', channel=8, note=64, velocity=109, time=20),
    Message('note_off', channel=8, note=64, velocity=64, time=230),
    Message('note_on', channel=8, note=67, velocity=109, time=58),
    Message('note_off', channel=8, note=67, velocity=64, time=153),
    Message('note_on', channel=8, note=64, velocity=109, time=135),
    Message('note_off', channel=8, note=64, velocity=64, time=172),
    Message('note_on', channel=8, note=73, velocity=109, time=20),
    Message('note_on', channel=8, note=64, velocity=109, time=0),
    Message('note_off', channel=8, note=73, velocity=64, time=76),
    Message('note_off', channel=8, note=64, velocity=64, time=0),
    Message('note_on', channel=8, note=73, velocity=109, time=20),
    Message('note_on', channel=8, note=64, velocity=109, time=0),
    Message('note_off', channel=8, note=73, velocity=64, time=76),
    Message('note_off', channel=8, note=64, velocity=64, time=0),
    Message('note_on', channel=8, note=71, velocity=109, time=20),
    Message('note_on', channel=8, note=68, velocity=109, time=0),
    Message('note_off', channel=8, note=68, velocity=64, time=249),
    Message('note_off', channel=8, note=71, velocity=64, time=0),
    Message('note_on', channel=8, note=66, velocity=109, time=327),
    Message('note_off', channel=8, note=66, velocity=64, time=76),
    Message('note_on', channel=8, note=68, velocity=109, time=20),
    Message('note_off', channel=8, note=68, velocity=64, time=76),
    Message('note_on', channel=8, note=73, velocity=109, time=20),
    Message('note_on', channel=8, note=69, velocity=109, time=0),
    Message('note_off', channel=8, note=69, velocity=64, time=249),
    Message('note_off', channel=8, note=73, velocity=64, time=0),
    Message('note_on', channel=8, note=76, velocity=109, time=327),
    Message('note_on', channel=8, note=68, velocity=109, time=0),
    Message('note_off', channel=8, note=76, velocity=64, time=76),
    Message('note_off', channel=8, note=68, velocity=64, time=0),
    Message('note_on', channel=8, note=76, velocity=109, time=20),
    Message('note_on', channel=8, note=69, velocity=109, time=0),
    Message('note_off', channel=8, note=76, velocity=64, time=76),
    Message('note_off', channel=8, note=69, velocity=64, time=0),
    Message('note_on', channel=8, note=76, velocity=109, time=20),
    Message('note_on', channel=8, note=71, velocity=109, time=0),
    Message('note_off', channel=8, note=71, velocity=64, time=249),
    Message('note_off', channel=8, note=76, velocity=64, time=0),
    Message('note_on', channel=8, note=76, velocity=109, time=327),
    Message('note_on', channel=8, note=69, velocity=109, time=0),
    Message('note_off', channel=8, note=76, velocity=64, time=76),
    Message('note_off', channel=8, note=69, velocity=64, time=0),
    Message('note_on', channel=8, note=76, velocity=109, time=20),
    Message('note_on', channel=8, note=69, velocity=109, time=0),
    Message('note_off', channel=8, note=76, velocity=64, time=76),
    Message('note_off', channel=8, note=69, velocity=64, time=0),
    Message('note_on', channel=8, note=76, velocity=109, time=20),
    Message('note_on', channel=8, note=73, velocity=109, time=0),
    Message('note_off', channel=8, note=73, velocity=64, time=38),
    Message('note_on', channel=8, note=71, velocity=109, time=10),
    Message('note_off', channel=8, note=71, velocity=64, time=201),
    Message('note_off', channel=8, note=76, velocity=64, time=0),
    Message('note_on', channel=8, note=73, velocity=109, time=327),
    Message('note_off', channel=8, note=73, velocity=64, time=76),
    Message('note_on', channel=8, note=76, velocity=109, time=20),
    Message('note_off', channel=8, note=76, velocity=64, time=153),
    Message('note_on', channel=8, note=79, velocity=109, time=39),
    Message('note_off', channel=8, note=79, velocity=64, time=153),
    Message('note_on', channel=8, note=76, velocity=109, time=39),
    Message('note_off', channel=8, note=76, velocity=64, time=153),
    Message('note_on', channel=8, note=73, velocity=109, time=807),
    Message('note_off', channel=8, note=73, velocity=64, time=76),
    Message('note_on', channel=8, note=76, velocity=109, time=20),
    Message('note_off', channel=8, note=76, velocity=64, time=230),
    Message('note_on', channel=8, note=79, velocity=109, time=58),
    Message('note_off', channel=8, note=79, velocity=64, time=153),
    Message('note_on', channel=8, note=76, velocity=109, time=39),
    Message('note_off', channel=8, note=76, velocity=64, time=153),
    Message('note_on', channel=8, note=74, velocity=109, time=807),
    Message('note_off', channel=8, note=74, velocity=64, time=76),
    Message('note_on', channel=8, note=76, velocity=109, time=20),
    Message('note_off', channel=8, note=76, velocity=64, time=76),
    Message('note_on', channel=8, note=76, velocity=109, time=212),
    Message('note_off', channel=8, note=76, velocity=64, time=153),
    Message('note_on', channel=8, note=74, velocity=109, time=39),
    Message('note_off', channel=8, note=74, velocity=64, time=153),
    Message('note_on', channel=8, note=76, velocity=109, time=39),
    Message('note_off', channel=8, note=76, velocity=64, time=76),
    Message('note_on', channel=8, note=76, velocity=109, time=20),
    Message('note_off', channel=8, note=76, velocity=64, time=76),
    Message('note_on', channel=8, note=74, velocity=109, time=20),
    Message('note_off', channel=8, note=74, velocity=64, time=76),
    Message('note_on', channel=8, note=76, velocity=109, time=20),
    Message('note_off', channel=8, note=76, velocity=64, time=249),
    Message('note_on', channel=8, note=76, velocity=109, time=231),
    Message('note_off', channel=8, note=76, velocity=64, time=76),
    Message('note_on', channel=8, note=76, velocity=109, time=20),
    Message('note_off', channel=8, note=76, velocity=64, time=76),
    Message('note_on', channel=8, note=76, velocity=109, time=212),
    Message('note_off', channel=8, note=76, velocity=64, time=153),
    Message('note_on', channel=8, note=76, velocity=109, time=39),
    Message('note_off', channel=8, note=76, velocity=64, time=76),
    Message('note_on', channel=8, note=74, velocity=109, time=20),
    Message('note_off', channel=8, note=74, velocity=64, time=76),
    Message('note_on', channel=8, note=76, velocity=109, time=20),
    Message('note_off', channel=8, note=76, velocity=64, time=153),
    Message('note_on', channel=8, note=74, velocity=109, time=39),
    Message('note_off', channel=8, note=74, velocity=64, time=76),
    Message('note_on', channel=8, note=76, velocity=109, time=20),
    Message('note_off', channel=8, note=76, velocity=64, time=249),
    Message('note_on', channel=8, note=74, velocity=109, time=39),
    Message('note_off', channel=8, note=74, velocity=64, time=76),
    Message('note_on', channel=8, note=76, velocity=109, time=20),
    Message('note_off', channel=8, note=76, velocity=64, time=249),
    Message('note_on', channel=8, note=76, velocity=109, time=39),
    Message('note_off', channel=8, note=76, velocity=64, time=76),
    Message('note_on', channel=8, note=74, velocity=109, time=20),
    Message('note_off', channel=8, note=74, velocity=64, time=76),
    Message('note_on', channel=8, note=76, velocity=109, time=20),
    Message('note_off', channel=8, note=76, velocity=64, time=76),
    Message('note_on', channel=8, note=74, velocity=109, time=20),
    Message('note_off', channel=8, note=74, velocity=64, time=76),
    Message('note_on', channel=8, note=76, velocity=109, time=20),
    Message('note_off', channel=8, note=76, velocity=64, time=153),
    Message('note_on', channel=8, note=76, velocity=109, time=39),
    Message('note_off', channel=8, note=76, velocity=64, time=153),
    Message('note_on', channel=8, note=74, velocity=109, time=39),
    Message('note_off', channel=8, note=74, velocity=64, time=76),
    Message('note_on', channel=8, note=76, velocity=109, time=20),
    Message('note_off', channel=8, note=76, velocity=64, time=249),
    Message('note_on', channel=8, note=73, velocity=109, time=135),
    Message('note_off', channel=8, note=73, velocity=64, time=76),
    Message('note_on', channel=8, note=74, velocity=109, time=20),
    Message('note_off', channel=8, note=74, velocity=64, time=153),
    Message('note_on', channel=8, note=76, velocity=109, time=39),
    Message('note_off', channel=8, note=76, velocity=64, time=76),
    Message('note_on', channel=8, note=74, velocity=109, time=20),
    Message('note_off', channel=8, note=74, velocity=64, time=76),
    Message('note_on', channel=8, note=76, velocity=109, time=20),
    Message('note_off', channel=8, note=76, velocity=64, time=153),
    Message('note_on', channel=8, note=76, velocity=109, time=39),
    Message('note_off', channel=8, note=76, velocity=64, time=153),
    Message('note_on', channel=8, note=76, velocity=109, time=39),
    Message('note_off', channel=8, note=76, velocity=64, time=153),
    Message('note_on', channel=8, note=74, velocity=109, time=39),
    Message('note_off', channel=8, note=74, velocity=64, time=76),
    Message('note_on', channel=8, note=76, velocity=109, time=20),
    Message('note_off', channel=8, note=76, velocity=64, time=172),
    Message('note_on', channel=8, note=74, velocity=109, time=20),
    Message('note_off', channel=8, note=74, velocity=64, time=76),
    Message('note_on', channel=8, note=74, velocity=109, time=116),
    Message('note_off', channel=8, note=74, velocity=64, time=76),
    Message('note_on', channel=8, note=76, velocity=109, time=20),
    Message('note_off', channel=8, note=76, velocity=64, time=153),
    Message('note_on', channel=8, note=74, velocity=109, time=39),
    Message('note_off', channel=8, note=74, velocity=64, time=153),
    Message('note_on', channel=8, note=76, velocity=109, time=39),
    Message('note_off', channel=8, note=76, velocity=64, time=153),
    Message('note_on', channel=8, note=76, velocity=109, time=39),
    Message('note_off', channel=8, note=76, velocity=64, time=76),
    Message('note_on', channel=8, note=74, velocity=109, time=20),
    Message('note_off', channel=8, note=74, velocity=64, time=76),
    Message('note_on', channel=8, note=76, velocity=109, time=20),
    Message('note_off', channel=8, note=76, velocity=64, time=153),
    Message('note_on', channel=8, note=74, velocity=109, time=39),
    Message('note_off', channel=8, note=74, velocity=64, time=76),
    Message('note_on', channel=8, note=76, velocity=109, time=20),
    Message('note_off', channel=8, note=76, velocity=64, time=172),
    Message('note_on', channel=8, note=74, velocity=109, time=20),
    Message('note_off', channel=8, note=74, velocity=64, time=76),
    Message('note_on', channel=8, note=74, velocity=109, time=212),
    Message('note_off', channel=8, note=74, velocity=64, time=76),
    Message('note_on', channel=8, note=76, velocity=109, time=20),
    Message('note_off', channel=8, note=76, velocity=64, time=230),
    Message('note_on', channel=8, note=80, velocity=109, time=58),
    Message('note_off', channel=8, note=80, velocity=64, time=153),
    Message('note_on', channel=8, note=76, velocity=109, time=39),
    Message('note_off', channel=8, note=76, velocity=64, time=153),
    Message('note_on', channel=8, note=71, velocity=109, time=711),
    Message('note_off', channel=8, note=71, velocity=64, time=76),
    Message('note_on', channel=8, note=74, velocity=109, time=20),
    Message('note_off', channel=8, note=74, velocity=64, time=76),
    Message('note_on', channel=8, note=76, velocity=109, time=20),
    Message('note_off', channel=8, note=76, velocity=64, time=230),
    Message('note_on', channel=8, note=76, velocity=109, time=58),
    Message('note_off', channel=8, note=76, velocity=64, time=153),
    Message('note_on', channel=8, note=78, velocity=109, time=999),
    Message('note_off', channel=8, note=78, velocity=64, time=76),
    Message('note_on', channel=8, note=76, velocity=109, time=20),
    Message('note_off', channel=8, note=76, velocity=64, time=153),
    Message('note_on', channel=8, note=74, velocity=109, time=39),
    Message('note_off', channel=8, note=74, velocity=64, time=96),
    Message('note_on', channel=8, note=76, velocity=109, time=48),
    Message('note_off', channel=8, note=76, velocity=64, time=38),
    Message('note_on', channel=8, note=75, velocity=109, time=10),
    Message('note_off', channel=8, note=75, velocity=64, time=38),
    Message('note_on', channel=8, note=71, velocity=109, time=10),
    Message('note_off', channel=8, note=71, velocity=64, time=201),
    Message('note_on', channel=8, note=76, velocity=109, time=615),
    Message('note_on', channel=8, note=79, velocity=109, time=0),
    Message('note_off', channel=8, note=76, velocity=64, time=153),
    Message('note_off', channel=8, note=79, velocity=64, time=0),
    Message('note_on', channel=8, note=76, velocity=109, time=39),
    Message('note_on', channel=8, note=79, velocity=109, time=0),
    Message('note_off', channel=8, note=76, velocity=64, time=76),
    Message('note_off', channel=8, note=79, velocity=64, time=0),
    Message('note_on', channel=8, note=76, velocity=109, time=20),
    Message('note_off', channel=8, note=76, velocity=64, time=153),
    Message('note_on', channel=8, note=74, velocity=109, time=39),
    Message('note_on', channel=8, note=76, velocity=109, time=0),
    Message('note_on', channel=8, note=71, velocity=109, time=96),
    Message('note_off', channel=8, note=76, velocity=64, time=153),
    Message('note_off', channel=8, note=74, velocity=65, time=0),
    Message('note_off', channel=8, note=71, velocity=64, time=0),
    Message('control_change', channel=8, control=7, value=127, time=1383),
    Message('control_change', channel=8, control=1, value=110, time=96),
    Message('program_change', channel=8, program=78, time=0),
    Message('pitchwheel', channel=8, pitch=-45, time=0),
    Message('note_on', channel=8, note=68, velocity=127, time=96),
    Message('note_off', channel=8, note=68, velocity=1, time=153),
    Message('note_on', channel=8, note=71, velocity=127, time=135),
    Message('note_off', channel=8, note=71, velocity=1, time=230),
    Message('note_on', channel=8, note=74, velocity=127, time=58),
    Message('note_off', channel=8, note=74, velocity=1, time=153),
    Message('note_on', channel=8, note=71, velocity=127, time=135),
    Message('note_off', channel=8, note=71, velocity=1, time=234),
    Message('note_on', channel=8, note=73, velocity=127, time=54),
    Message('note_off', channel=8, note=73, velocity=1, time=336),
    Message('note_on', channel=8, note=61, velocity=127, time=48),
    Message('note_off', channel=8, note=61, velocity=1, time=268),
    Message('note_on', channel=8, note=64, velocity=127, time=20),
    Message('note_off', channel=8, note=64, velocity=1, time=230),
    Message('note_on', channel=8, note=67, velocity=127, time=58),
    Message('note_off', channel=8, note=67, velocity=1, time=153),
    Message('note_on', channel=8, note=64, velocity=127, time=231),
    Message('note_off', channel=8, note=64, velocity=1, time=576),
    Message('note_on', channel=8, note=68, velocity=127, time=0),
    Message('note_off', channel=8, note=68, velocity=1, time=153),
    Message('note_on', channel=8, note=71, velocity=127, time=135),
    Message('note_off', channel=8, note=71, velocity=1, time=230),
    Message('note_on', channel=8, note=74, velocity=127, time=58),
    Message('note_off', channel=8, note=74, velocity=1, time=153),
    Message('note_on', channel=8, note=71, velocity=127, time=135),
    Message('note_off', channel=8, note=71, velocity=1, time=76),
    Message('note_on', channel=8, note=73, velocity=127, time=20),
    Message('note_off', channel=8, note=73, velocity=1, time=576),
    Message('note_on', channel=8, note=61, velocity=127, time=0),
    Message('note_off', channel=8, note=61, velocity=1, time=268),
    Message('note_on', channel=8, note=64, velocity=127, time=20),
    Message('note_off', channel=8, note=64, velocity=1, time=230),
    Message('note_on', channel=8, note=67, velocity=127, time=58),
    Message('note_off', channel=8, note=67, velocity=1, time=153),
    Message('note_on', channel=8, note=64, velocity=127, time=135),
    Message('note_off', channel=8, note=64, velocity=1, time=172),
    Message('note_on', channel=8, note=73, velocity=127, time=20),
    Message('note_on', channel=8, note=64, velocity=127, time=0),
    Message('note_off', channel=8, note=73, velocity=1, time=76),
    Message('note_off', channel=8, note=64, velocity=1, time=0),
    Message('note_on', channel=8, note=73, velocity=127, time=20),
    Message('note_on', channel=8, note=64, velocity=127, time=0),
    Message('note_off', channel=8, note=73, velocity=1, time=76),
    Message('note_off', channel=8, note=64, velocity=1, time=0),
    Message('note_on', channel=8, note=71, velocity=127, time=20),
    Message('note_on', channel=8, note=68, velocity=127, time=0),
    Message('note_off', channel=8, note=68, velocity=1, time=480),
    Message('note_off', channel=8, note=71, velocity=1, time=0),
    Message('note_on', channel=8, note=66, velocity=127, time=96),
    Message('note_off', channel=8, note=66, velocity=1, time=76),
    Message('note_on', channel=8, note=68, velocity=127, time=20),
    Message('note_off', channel=8, note=68, velocity=1, time=76),
    Message('note_on', channel=8, note=73, velocity=127, time=20),
    Message('note_on', channel=8, note=69, velocity=127, time=0),
    Message('note_off', channel=8, note=69, velocity=1, time=480),
    Message('note_off', channel=8, note=73, velocity=1, time=0),
    Message('note_on', channel=8, note=76, velocity=127, time=96),
    Message('note_on', channel=8, note=68, velocity=127, time=0),
    Message('note_off', channel=8, note=76, velocity=1, time=76),
    Message('note_off', channel=8, note=68, velocity=1, time=0),
    Message('note_on', channel=8, note=76, velocity=127, time=20),
    Message('note_on', channel=8, note=69, velocity=127, time=0),
    Message('note_off', channel=8, note=76, velocity=1, time=76),
    Message('note_off', channel=8, note=69, velocity=1, time=0),
    Message('note_on', channel=8, note=76, velocity=127, time=20),
    Message('note_on', channel=8, note=71, velocity=127, time=0),
    Message('note_off', channel=8, note=71, velocity=1, time=432),
    Message('note_off', channel=8, note=76, velocity=1, time=0),
    Message('note_on', channel=8, note=76, velocity=127, time=144),
    Message('note_on', channel=8, note=69, velocity=127, time=0),
    Message('note_off', channel=8, note=76, velocity=1, time=76),
    Message('note_off', channel=8, note=69, velocity=1, time=0),
    Message('note_on', channel=8, note=76, velocity=127, time=20),
    Message('note_on', channel=8, note=69, velocity=127, time=0),
    Message('note_off', channel=8, note=76, velocity=1, time=76),
    Message('note_off', channel=8, note=69, velocity=1, time=0),
    Message('note_on', channel=8, note=76, velocity=127, time=20),
    Message('note_on', channel=8, note=73, velocity=127, time=0),
    Message('note_off', channel=8, note=73, velocity=1, time=38),
    Message('note_on', channel=8, note=71, velocity=127, time=10),
    Message('note_off', channel=8, note=71, velocity=1, time=480),
    Message('note_off', channel=8, note=76, velocity=1, time=0),
    Message('note_on', channel=8, note=73, velocity=127, time=48),
    Message('note_off', channel=8, note=73, velocity=1, time=76),
    Message('note_on', channel=8, note=76, velocity=127, time=20),
    Message('note_off', channel=8, note=76, velocity=1, time=153),
    Message('note_on', channel=8, note=79, velocity=127, time=39),
    Message('note_off', channel=8, note=79, velocity=1, time=153),
    Message('note_on', channel=8, note=76, velocity=127, time=39),
    Message('note_off', channel=8, note=76, velocity=1, time=912),
    Message('note_on', channel=8, note=73, velocity=127, time=48),
    Message('note_off', channel=8, note=73, velocity=1, time=76),
    Message('note_on', channel=8, note=76, velocity=127, time=20),
    Message('note_off', channel=8, note=76, velocity=1, time=230),
    Message('note_on', channel=8, note=79, velocity=127, time=58),
    Message('note_off', channel=8, note=79, velocity=1, time=153),
    Message('note_on', channel=8, note=76, velocity=127, time=39),
    Message('note_off', channel=8, note=76, velocity=1, time=912),
    Message('control_change', channel=8, control=1, value=127, time=48),
    Message('note_on', channel=8, note=74, velocity=127, time=0),
    Message('note_off', channel=8, note=74, velocity=1, time=76),
    Message('note_on', channel=8, note=76, velocity=127, time=20),
    Message('note_off', channel=8, note=76, velocity=1, time=76),
    Message('note_on', channel=8, note=76, velocity=127, time=212),
    Message('note_off', channel=8, note=76, velocity=1, time=153),
    Message('note_on', channel=8, note=74, velocity=127, time=39),
    Message('note_off', channel=8, note=74, velocity=1, time=153),
    Message('note_on', channel=8, note=76, velocity=127, time=39),
    Message('note_off', channel=8, note=76, velocity=1, time=76),
    Message('note_on', channel=8, note=76, velocity=127, time=20),
    Message('note_off', channel=8, note=76, velocity=1, time=76),
    Message('note_on', channel=8, note=74, velocity=127, time=20),
    Message('note_off', channel=8, note=74, velocity=1, time=76),
    Message('note_on', channel=8, note=76, velocity=127, time=20),
    Message('note_off', channel=8, note=76, velocity=1, time=480),
    Message('note_on', channel=8, note=76, velocity=127, time=0),
    Message('note_off', channel=8, note=76, velocity=1, time=76),
    Message('note_on', channel=8, note=76, velocity=127, time=20),
    Message('note_off', channel=8, note=76, velocity=1, time=76),
    Message('note_on', channel=8, note=76, velocity=127, time=212),
    Message('note_off', channel=8, note=76, velocity=1, time=153),
    Message('note_on', channel=8, note=76, velocity=127, time=39),
    Message('note_off', channel=8, note=76, velocity=1, time=76),
    Message('note_on', channel=8, note=74, velocity=127, time=20),
    Message('note_off', channel=8, note=74, velocity=1, time=76),
    Message('note_on', channel=8, note=76, velocity=127, time=20),
    Message('note_off', channel=8, note=76, velocity=1, time=153),
    Message('note_on', channel=8, note=74, velocity=127, time=39),
    Message('note_off', channel=8, note=74, velocity=1, time=76),
    Message('note_on', channel=8, note=76, velocity=127, time=20),
    Message('note_off', channel=8, note=76, velocity=1, time=249),
    Message('note_on', channel=8, note=74, velocity=127, time=39),
    Message('note_off', channel=8, note=74, velocity=1, time=76),
    Message('note_on', channel=8, note=76, velocity=127, time=20),
    Message('note_off', channel=8, note=76, velocity=1, time=249),
    Message('note_on', channel=8, note=76, velocity=127, time=39),
    Message('note_off', channel=8, note=76, velocity=1, time=76),
    Message('note_on', channel=8, note=74, velocity=127, time=20),
    Message('note_off', channel=8, note=74, velocity=1, time=76),
    Message('note_on', channel=8, note=76, velocity=127, time=20),
    Message('note_off', channel=8, note=76, velocity=1, time=76),
    Message('note_on', channel=8, note=74, velocity=127, time=20),
    Message('note_off', channel=8, note=74, velocity=1, time=76),
    Message('note_on', channel=8, note=76, velocity=127, time=20),
    Message('note_off', channel=8, note=76, velocity=1, time=153),
    Message('note_on', channel=8, note=76, velocity=127, time=39),
    Message('note_off', channel=8, note=76, velocity=1, time=153),
    Message('note_on', channel=8, note=74, velocity=127, time=39),
    Message('note_off', channel=8, note=74, velocity=1, time=76),
    Message('note_on', channel=8, note=76, velocity=127, time=20),
    Message('note_off', channel=8, note=76, velocity=1, time=336),
    Message('note_on', channel=8, note=73, velocity=127, time=48),
    Message('note_off', channel=8, note=73, velocity=1, time=76),
    Message('note_on', channel=8, note=74, velocity=127, time=20),
    Message('note_off', channel=8, note=74, velocity=1, time=153),
    Message('note_on', channel=8, note=76, velocity=127, time=39),
    Message('note_off', channel=8, note=76, velocity=1, time=76),
    Message('note_on', channel=8, note=74, velocity=127, time=20),
    Message('note_off', channel=8, note=74, velocity=1, time=76),
    Message('note_on', channel=8, note=76, velocity=127, time=20),
    Message('note_off', channel=8, note=76, velocity=1, time=153),
    Message('note_on', channel=8, note=76, velocity=127, time=39),
    Message('note_off', channel=8, note=76, velocity=1, time=153),
    Message('note_on', channel=8, note=76, velocity=127, time=39),
    Message('note_off', channel=8, note=76, velocity=1, time=153),
    Message('note_on', channel=8, note=74, velocity=127, time=39),
    Message('note_off', channel=8, note=74, velocity=1, time=76),
    Message('note_on', channel=8, note=76, velocity=127, time=20),
    Message('note_off', channel=8, note=76, velocity=1, time=172),
    Message('note_on', channel=8, note=74, velocity=127, time=20),
    Message('note_off', channel=8, note=74, velocity=1, time=76),
    Message('note_on', channel=8, note=74, velocity=127, time=116),
    Message('note_off', channel=8, note=74, velocity=1, time=76),
    Message('note_on', channel=8, note=76, velocity=127, time=20),
    Message('note_off', channel=8, note=76, velocity=1, time=153),
    Message('note_on', channel=8, note=74, velocity=127, time=39),
    Message('note_off', channel=8, note=74, velocity=1, time=153),
    Message('note_on', channel=8, note=76, velocity=127, time=39),
    Message('note_off', channel=8, note=76, velocity=1, time=153),
    Message('note_on', channel=8, note=76, velocity=127, time=39),
    Message('note_off', channel=8, note=76, velocity=1, time=76),
    Message('note_on', channel=8, note=74, velocity=127, time=20),
    Message('note_off', channel=8, note=74, velocity=1, time=76),
    Message('note_on', channel=8, note=76, velocity=127, time=20),
    Message('note_off', channel=8, note=76, velocity=1, time=153),
    Message('note_on', channel=8, note=74, velocity=127, time=39),
    Message('note_off', channel=8, note=74, velocity=1, time=76),
    Message('note_on', channel=8, note=76, velocity=127, time=20),
    Message('note_off', channel=8, note=76, velocity=1, time=172),
    Message('note_on', channel=8, note=74, velocity=127, time=20),
    Message('note_off', channel=8, note=74, velocity=1, time=288),
    Message('note_on', channel=8, note=74, velocity=127, time=0),
    Message('note_off', channel=8, note=74, velocity=1, time=76),
    Message('note_on', channel=8, note=76, velocity=127, time=20),
    Message('note_off', channel=8, note=76, velocity=1, time=230),
    Message('note_on', channel=8, note=80, velocity=127, time=58),
    Message('note_off', channel=8, note=80, velocity=1, time=153),
    Message('note_on', channel=8, note=76, velocity=127, time=39),
    Message('note_off', channel=8, note=76, velocity=1, time=768),
    Message('note_on', channel=8, note=71, velocity=127, time=96),
    Message('note_off', channel=8, note=71, velocity=1, time=76),
    Message('note_on', channel=8, note=74, velocity=127, time=20),
    Message('note_off', channel=8, note=74, velocity=1, time=76),
    Message('note_on', channel=8, note=76, velocity=127, time=20),
    Message('note_off', channel=8, note=76, velocity=1, time=230),
    Message('note_on', channel=8, note=76, velocity=127, time=64),
    Message('note_off', channel=8, note=76, velocity=1, time=1146),
    Message('note_on', channel=8, note=78, velocity=127, time=6),
    Message('note_off', channel=8, note=78, velocity=1, time=76),
    Message('note_on', channel=8, note=76, velocity=127, time=20),
    Message('note_off', channel=8, note=76, velocity=1, time=153),
    Message('note_on', channel=8, note=74, velocity=127, time=39),
    Message('note_off', channel=8, note=74, velocity=1, time=138),
    Message('note_on', channel=8, note=76, velocity=127, time=6),
    Message('note_off', channel=8, note=76, velocity=1, time=38),
    Message('note_on', channel=8, note=75, velocity=127, time=10),
    Message('note_off', channel=8, note=75, velocity=1, time=38),
    Message('note_on', channel=8, note=71, velocity=127, time=10),
    Message('note_off', channel=8, note=71, velocity=1, time=1194),
    Message('note_on', channel=8, note=74, velocity=127, time=102),
    Message('note_off', channel=8, note=74, velocity=1, time=90),
    Message('note_on', channel=8, note=74, velocity=127, time=0),
    Message('note_on', channel=8, note=76, velocity=127, time=0),
    Message('note_on', channel=8, note=71, velocity=127, time=6),
    Message('note_off', channel=8, note=71, velocity=1, time=1530),
    Message('note_off', channel=8, note=76, velocity=1, time=0),
    Message('note_off', channel=8, note=74, velocity=1, time=0),
    Message('control_change', channel=8, control=7, value=110, time=0),
    Message('control_change', channel=8, control=8, value=60, time=121),
    Message('pitchwheel', channel=8, pitch=0, time=0),
    Message('control_change', channel=8, control=1, value=127, time=0),
    Message('control_change', channel=8, control=2, value=20, time=0),
    Message('control_change', channel=8, control=4, value=0, time=0),
    Message('program_change', channel=8, program=107, time=0),
    Message('note_on', channel=8, note=64, velocity=127, time=0),
    Message('note_off', channel=8, note=64, velocity=64, time=96),
    Message('note_on', channel=8, note=68, velocity=127, time=0),
    Message('note_off', channel=8, note=68, velocity=64, time=160),
    Message('note_on', channel=8, note=71, velocity=127, time=144),
    Message('note_off', channel=8, note=71, velocity=64, time=304),
    Message('note_on', channel=8, note=74, velocity=127, time=0),
    Message('note_off', channel=8, note=74, velocity=64, time=128),
    Message('note_on', channel=8, note=71, velocity=127, time=144),
    Message('note_off', channel=8, note=71, velocity=64, time=288),
    Message('note_on', channel=8, note=73, velocity=127, time=0),
    Message('note_off', channel=8, note=73, velocity=64, time=80),
    Message('note_on', channel=8, note=74, velocity=127, time=0),
    Message('note_off', channel=8, note=74, velocity=64, time=80),
    Message('note_on', channel=8, note=76, velocity=127, time=16),
    Message('note_off', channel=8, note=76, velocity=64, time=384),
    Message('note_on', channel=8, note=71, velocity=127, time=384),
    Message('note_off', channel=8, note=71, velocity=64, time=96),
    Message('note_on', channel=8, note=67, velocity=127, time=0),
    Message('note_off', channel=8, note=67, velocity=64, time=96),
    Message('note_on', channel=8, note=64, velocity=127, time=0),
    Message('note_off', channel=8, note=64, velocity=64, time=96),
    Message('note_on', channel=8, note=71, velocity=127, time=0),
    Message('note_on', channel=8, note=67, velocity=127, time=96),
    Message('note_off', channel=8, note=71, velocity=64, time=32),
    Message('note_off', channel=8, note=67, velocity=64, time=352),
    Message('note_on', channel=8, note=68, velocity=127, time=192),
    Message('note_off', channel=8, note=68, velocity=64, time=288),
    Message('note_on', channel=8, note=71, velocity=127, time=0),
    Message('note_off', channel=8, note=71, velocity=64, time=96),
    Message('note_on', channel=8, note=69, velocity=127, time=0),
    Message('note_off', channel=8, note=69, velocity=64, time=48),
    Message('note_on', channel=8, note=68, velocity=127, time=48),
    Message('note_off', channel=8, note=68, velocity=64, time=64),
    Message('note_on', channel=8, note=68, velocity=127, time=32),
    Message('note_off', channel=8, note=68, velocity=64, time=48),
    Message('note_on', channel=8, note=71, velocity=127, time=0),
    Message('note_off', channel=8, note=71, velocity=64, time=384),
    Message('note_on', channel=8, note=74, velocity=127, time=32),
    Message('note_off', channel=8, note=74, velocity=64, time=192),
    Message('note_on', channel=8, note=71, velocity=127, time=0),
    Message('note_off', channel=8, note=71, velocity=64, time=256),
    Message('note_on', channel=8, note=69, velocity=127, time=48),
    Message('note_off', channel=8, note=69, velocity=64, time=128),
    Message('note_on', channel=8, note=73, velocity=127, time=64),
    Message('note_off', channel=8, note=73, velocity=64, time=336),
    Message('note_on', channel=8, note=67, velocity=127, time=64),
    Message('note_off', channel=8, note=67, velocity=64, time=144),
    Message('note_on', channel=8, note=69, velocity=127, time=32),
    Message('note_off', channel=8, note=69, velocity=64, time=480),
    Message('note_on', channel=8, note=73, velocity=127, time=784),
    Message('note_off', channel=8, note=73, velocity=64, time=128),
    Message('note_on', channel=8, note=76, velocity=127, time=60),
    Message('note_off', channel=8, note=76, velocity=64, time=64),
    Message('note_on', channel=8, note=73, velocity=127, time=20),
    Message('note_off', channel=8, note=73, velocity=64, time=64),
    Message('note_on', channel=8, note=76, velocity=127, time=32),
    Message('note_off', channel=8, note=76, velocity=64, time=64),
    Message('note_on', channel=8, note=78, velocity=127, time=32),
    Message('note_off', channel=8, note=78, velocity=64, time=32),
    Message('note_on', channel=8, note=76, velocity=127, time=16),
    Message('note_off', channel=8, note=76, velocity=64, time=32),
    Message('note_on', channel=8, note=76, velocity=127, time=32),
    Message('note_off', channel=8, note=76, velocity=64, time=80),
    Message('note_on', channel=8, note=76, velocity=127, time=16),
    Message('note_off', channel=8, note=76, velocity=64, time=80),
    Message('note_on', channel=8, note=76, velocity=127, time=16),
    Message('note_off', channel=8, note=76, velocity=64, time=240),
    Message('note_on', channel=8, note=71, velocity=127, time=32),
    Message('note_off', channel=8, note=71, velocity=64, time=80),
    Message('note_on', channel=8, note=69, velocity=127, time=16),
    Message('note_off', channel=8, note=69, velocity=64, time=64),
    Message('note_on', channel=8, note=64, velocity=127, time=32),
    Message('note_off', channel=8, note=64, velocity=64, time=64),
    Message('note_on', channel=8, note=76, velocity=127, time=48),
    Message('note_off', channel=8, note=76, velocity=64, time=80),
    Message('note_on', channel=8, note=76, velocity=127, time=16),
    Message('note_off', channel=8, note=76, velocity=64, time=560),
    Message('note_on', channel=8, note=76, velocity=127, time=0),
    Message('note_off', channel=8, note=76, velocity=64, time=96),
    Message('note_on', channel=8, note=73, velocity=127, time=16),
    Message('note_off', channel=8, note=73, velocity=64, time=80),
    Message('note_on', channel=8, note=76, velocity=127, time=16),
    Message('note_off', channel=8, note=76, velocity=64, time=80),
    Message('note_on', channel=8, note=69, velocity=127, time=0),
    Message('note_off', channel=8, note=69, velocity=64, time=96),
    Message('note_on', channel=8, note=68, velocity=127, time=0),
    Message('note_off', channel=8, note=68, velocity=64, time=64),
    Message('note_on', channel=8, note=79, velocity=127, time=0),
    Message('note_off', channel=8, note=79, velocity=64, time=32),
    Message('note_on', channel=8, note=71, velocity=127, time=0),
    Message('note_on', channel=8, note=79, velocity=127, time=32),
    Message('note_off', channel=8, note=71, velocity=64, time=16),
    Message('note_off', channel=8, note=79, velocity=64, time=16),
    Message('note_on', channel=8, note=76, velocity=127, time=48),
    Message('note_on', channel=8, note=74, velocity=123, time=896),
    Message('note_off', channel=8, note=76, velocity=64, time=16),
    Message('note_off', channel=8, note=74, velocity=64, time=32),
    Message('note_on', channel=8, note=73, velocity=123, time=16),
    Message('note_off', channel=8, note=73, velocity=64, time=80),
    Message('note_on', channel=8, note=76, velocity=123, time=32),
    Message('note_on', channel=8, note=69, velocity=123, time=4),
    Message('note_off', channel=8, note=69, velocity=64, time=132),
    Message('note_on', channel=8, note=69, velocity=123, time=0),
    Message('note_off', channel=8, note=76, velocity=64, time=8),
    Message('note_on', channel=8, note=76, velocity=123, time=0),
    Message('note_off', channel=8, note=76, velocity=64, time=279),
    Message('note_off', channel=8, note=69, velocity=64, time=0),
    Message('note_on', channel=8, note=71, velocity=127, time=25),
    Message('note_off', channel=8, note=71, velocity=64, time=80),
    Message('note_on', channel=8, note=68, velocity=127, time=0),
    Message('note_off', channel=8, note=68, velocity=64, time=112),
    Message('note_on', channel=8, note=64, velocity=127, time=0),
    Message('note_off', channel=8, note=64, velocity=64, time=96),
    Message('note_on', channel=8, note=71, velocity=127, time=0),
    Message('note_off', channel=8, note=71, velocity=64, time=96),
    Message('note_on', channel=8, note=73, velocity=127, time=0),
    Message('note_off', channel=8, note=73, velocity=64, time=64),
    Message('note_on', channel=8, note=74, velocity=127, time=32),
    Message('note_off', channel=8, note=74, velocity=64, time=96),
    Message('note_on', channel=8, note=69, velocity=127, time=0),
    Message('note_off', channel=8, note=69, velocity=64, time=96),
    Message('note_on', channel=8, note=69, velocity=127, time=0),
    Message('note_off', channel=8, note=69, velocity=64, time=96),
    Message('note_on', channel=8, note=74, velocity=127, time=0),
    Message('note_off', channel=8, note=74, velocity=64, time=96),
    Message('note_on', channel=8, note=69, velocity=127, time=0),
    Message('note_off', channel=8, note=69, velocity=64, time=96),
    Message('note_on', channel=8, note=74, velocity=127, time=16),
    Message('note_off', channel=8, note=74, velocity=64, time=80),
    Message('note_on', channel=8, note=76, velocity=127, time=16),
    Message('note_off', channel=8, note=76, velocity=64, time=80),
    Message('note_on', channel=8, note=73, velocity=127, time=0),
    Message('note_off', channel=8, note=73, velocity=64, time=64),
    Message('note_on', channel=8, note=69, velocity=127, time=32),
    Message('note_off', channel=8, note=69, velocity=64, time=48),
    Message('note_on', channel=8, note=74, velocity=127, time=0),
    Message('note_off', channel=8, note=74, velocity=64, time=48),
    Message('note_on', channel=8, note=76, velocity=127, time=16),
    Message('note_off', channel=8, note=76, velocity=64, time=144),
    Message('note_on', channel=8, note=74, velocity=127, time=48),
    Message('note_off', channel=8, note=74, velocity=64, time=384),
    Message('note_on', channel=8, note=69, velocity=127, time=368),
    Message('note_off', channel=8, note=69, velocity=64, time=96),
    Message('note_on', channel=8, note=76, velocity=127, time=208),
    Message('note_off', channel=8, note=76, velocity=64, time=48),
    Message('note_on', channel=8, note=74, velocity=127, time=0),
    Message('note_off', channel=8, note=74, velocity=64, time=32),
    Message('note_on', channel=8, note=69, velocity=127, time=0),
    Message('note_off', channel=8, note=69, velocity=64, time=64),
    Message('note_on', channel=8, note=74, velocity=127, time=32),
    Message('note_off', channel=8, note=74, velocity=64, time=48),
    Message('note_on', channel=8, note=69, velocity=127, time=0),
    Message('note_off', channel=8, note=69, velocity=64, time=48),
    Message('note_on', channel=8, note=76, velocity=127, time=16),
    Message('note_off', channel=8, note=76, velocity=64, time=176),
    Message('note_on', channel=8, note=71, velocity=127, time=0),
    Message('note_off', channel=8, note=71, velocity=64, time=96),
    Message('note_on', channel=8, note=64, velocity=127, time=0),
    Message('note_off', channel=8, note=64, velocity=64, time=288),
    Message('note_on', channel=8, note=76, velocity=127, time=192),
    Message('note_off', channel=8, note=76, velocity=64, time=176),
    Message('note_on', channel=8, note=74, velocity=127, time=32),
    Message('note_off', channel=8, note=74, velocity=64, time=80),
    Message('note_on', channel=8, note=76, velocity=127, time=16),
    Message('note_off', channel=8, note=76, velocity=64, time=240),
    Message('note_on', channel=8, note=76, velocity=127, time=240),
    Message('note_off', channel=8, note=76, velocity=64, time=80),
    Message('note_on', channel=8, note=71, velocity=127, time=0),
    Message('note_off', channel=8, note=71, velocity=64, time=32),
    Message('note_on', channel=8, note=74, velocity=127, time=0),
    Message('note_off', channel=8, note=74, velocity=64, time=64),
    Message('note_on', channel=8, note=76, velocity=127, time=16),
    Message('note_off', channel=8, note=76, velocity=64, time=144),
    Message('note_on', channel=8, note=76, velocity=127, time=48),
    Message('note_off', channel=8, note=76, velocity=64, time=144),
    Message('note_on', channel=8, note=74, velocity=127, time=48),
    Message('note_off', channel=8, note=74, velocity=64, time=80),
    Message('note_on', channel=8, note=71, velocity=127, time=0),
    Message('note_off', channel=8, note=71, velocity=64, time=48),
    Message('note_on', channel=8, note=76, velocity=127, time=0),
    Message('note_off', channel=8, note=76, velocity=64, time=208),
    Message('note_on', channel=8, note=69, velocity=127, time=32),
    Message('note_off', channel=8, note=69, velocity=64, time=112),
    Message('note_on', channel=8, note=73, velocity=127, time=0),
    Message('note_off', channel=8, note=73, velocity=64, time=80),
    Message('note_on', channel=8, note=74, velocity=127, time=112),
    Message('note_off', channel=8, note=74, velocity=64, time=80),
    Message('note_on', channel=8, note=76, velocity=127, time=16),
    Message('note_off', channel=8, note=76, velocity=64, time=80),
    Message('note_on', channel=8, note=74, velocity=127, time=16),
    Message('note_off', channel=8, note=74, velocity=64, time=80),
    Message('note_on', channel=8, note=76, velocity=127, time=16),
    Message('note_off', channel=8, note=76, velocity=64, time=1783),
    Message('note_on', channel=8, note=74, velocity=127, time=41),
    Message('note_off', channel=8, note=74, velocity=64, time=80),
    Message('note_on', channel=8, note=76, velocity=127, time=16),
    Message('note_off', channel=8, note=76, velocity=64, time=144),
    Message('note_on', channel=8, note=74, velocity=127, time=48),
    Message('note_off', channel=8, note=74, velocity=64, time=80),
    Message('note_on', channel=8, note=76, velocity=127, time=16),
    Message('note_off', channel=8, note=76, velocity=64, time=176),
    Message('note_on', channel=8, note=74, velocity=127, time=16),
    Message('note_on', channel=8, note=69, velocity=127, time=80),
    Message('note_off', channel=8, note=74, velocity=64, time=16),
    Message('note_off', channel=8, note=69, velocity=64, time=48),
    Message('note_on', channel=8, note=66, velocity=127, time=32),
    Message('note_off', channel=8, note=66, velocity=64, time=64),
    Message('note_on', channel=8, note=80, velocity=127, time=432),
    Message('note_off', channel=8, note=80, velocity=64, time=144),
    Message('note_on', channel=8, note=76, velocity=127, time=48),
    Message('note_off', channel=8, note=76, velocity=64, time=528),
    Message('note_on', channel=8, note=74, velocity=127, time=224),
    Message('note_off', channel=8, note=74, velocity=64, time=96),
    Message('note_on', channel=8, note=71, velocity=127, time=16),
    Message('note_off', channel=8, note=71, velocity=64, time=80),
    Message('note_on', channel=8, note=74, velocity=127, time=16),
    Message('note_off', channel=8, note=74, velocity=64, time=80),
    Message('note_on', channel=8, note=76, velocity=127, time=16),
    Message('note_off', channel=8, note=76, velocity=64, time=288),
    Message('note_on', channel=8, note=76, velocity=127, time=0),
    Message('note_off', channel=8, note=76, velocity=64, time=144),
    Message('note_on', channel=8, note=76, velocity=127, time=416),
    Message('note_off', channel=8, note=76, velocity=64, time=80),
    Message('note_on', channel=8, note=76, velocity=127, time=16),
    Message('note_off', channel=8, note=76, velocity=64, time=96),
    Message('note_on', channel=8, note=74, velocity=127, time=96),
    Message('note_off', channel=8, note=74, velocity=64, time=96),
    Message('note_on', channel=8, note=69, velocity=127, time=0),
    Message('note_off', channel=8, note=69, velocity=64, time=96),
    Message('note_on', channel=8, note=74, velocity=127, time=16),
    Message('note_off', channel=8, note=74, velocity=64, time=80),
    Message('note_on', channel=8, note=78, velocity=127, time=16),
    Message('note_off', channel=8, note=78, velocity=64, time=80),
    Message('note_on', channel=8, note=76, velocity=127, time=16),
    Message('note_off', channel=8, note=76, velocity=64, time=144),
    Message('note_on', channel=8, note=74, velocity=127, time=48),
    Message('note_off', channel=8, note=74, velocity=64, time=80),
    Message('note_on', channel=8, note=68, velocity=127, time=0),
    Message('note_off', channel=8, note=68, velocity=64, time=96),
    Message('note_on', channel=8, note=71, velocity=127, time=96),
    Message('note_off', channel=8, note=71, velocity=64, time=144),
    Message('note_on', channel=8, note=74, velocity=127, time=0),
    Message('note_off', channel=8, note=74, velocity=64, time=407),
    Message('note_on', channel=8, note=71, velocity=123, time=25),
    Message('note_off', channel=8, note=71, velocity=64, time=144),
    Message('note_on', channel=8, note=81, velocity=123, time=144),
    Message('note_off', channel=8, note=81, velocity=64, time=64),
    Message('note_on', channel=8, note=74, velocity=123, time=0),
    Message('note_on', channel=8, note=78, velocity=123, time=44),
    Message('note_off', channel=8, note=74, velocity=64, time=52),
    Message('note_off', channel=8, note=78, velocity=64, time=12),
    Message('note_on', channel=8, note=74, velocity=123, time=228),
    Message('note_off', channel=8, note=74, velocity=64, time=848),
    Message('control_change', channel=8, control=7, value=127, time=743),
    Message('pitchwheel', channel=8, pitch=45, time=144),
    Message('program_change', channel=8, program=66, time=0),
    Message('control_change', channel=8, control=1, value=127, time=0),
    Message('note_on', channel=8, note=68, velocity=94, time=48),
    Message('note_off', channel=8, note=68, velocity=64, time=153),
    Message('note_on', channel=8, note=71, velocity=94, time=135),
    Message('note_off', channel=8, note=71, velocity=64, time=576),
    Message('note_on', channel=8, note=71, velocity=94, time=0),
    Message('note_off', channel=8, note=71, velocity=64, time=234),
    Message('note_on', channel=8, note=73, velocity=94, time=54),
    Message('note_off', channel=8, note=73, velocity=64, time=384),
    Message('note_on', channel=8, note=61, velocity=90, time=0),
    Message('note_off', channel=8, note=61, velocity=64, time=268),
    Message('note_on', channel=8, note=64, velocity=90, time=20),
    Message('note_off', channel=8, note=64, velocity=64, time=672),
    Message('note_on', channel=8, note=64, velocity=94, time=0),
    Message('note_off', channel=8, note=64, velocity=64, time=576),
    Message('note_on', channel=8, note=68, velocity=94, time=0),
    Message('note_off', channel=8, note=68, velocity=64, time=288),
    Message('note_on', channel=8, note=71, velocity=94, time=0),
    Message('note_off', channel=8, note=71, velocity=64, time=288),
    Message('note_on', channel=8, note=74, velocity=94, time=0),
    Message('note_off', channel=8, note=74, velocity=64, time=288),
    Message('note_on', channel=8, note=71, velocity=94, time=0),
    Message('note_off', channel=8, note=71, velocity=64, time=76),
    Message('note_on', channel=8, note=73, velocity=94, time=20),
    Message('note_off', channel=8, note=73, velocity=64, time=576),
    Message('note_on', channel=8, note=61, velocity=90, time=0),
    Message('note_off', channel=8, note=61, velocity=64, time=268),
    Message('note_on', channel=8, note=64, velocity=90, time=20),
    Message('note_off', channel=8, note=64, velocity=64, time=230),
    Message('note_on', channel=8, note=67, velocity=94, time=58),
    Message('note_off', channel=8, note=67, velocity=64, time=153),
    Message('note_on', channel=8, note=64, velocity=94, time=135),
    Message('note_off', channel=8, note=64, velocity=64, time=172),
    Message('note_on', channel=8, note=64, velocity=94, time=20),
    Message('note_off', channel=8, note=64, velocity=64, time=76),
    Message('note_on', channel=8, note=64, velocity=94, time=20),
    Message('note_off', channel=8, note=64, velocity=64, time=76),
    Message('note_on', channel=8, note=68, velocity=94, time=20),
    Message('note_off', channel=8, note=68, velocity=64, time=249),
    Message('note_on', channel=8, note=66, velocity=94, time=327),
    Message('note_off', channel=8, note=66, velocity=64, time=76),
    Message('note_on', channel=8, note=68, velocity=94, time=20),
    Message('note_off', channel=8, note=68, velocity=64, time=76),
    Message('note_on', channel=8, note=69, velocity=94, time=20),
    Message('note_off', channel=8, note=69, velocity=64, time=249),
    Message('note_on', channel=8, note=68, velocity=90, time=327),
    Message('note_off', channel=8, note=68, velocity=64, time=76),
    Message('note_on', channel=8, note=69, velocity=90, time=20),
    Message('note_off', channel=8, note=69, velocity=64, time=76),
    Message('note_on', channel=8, note=71, velocity=90, time=20),
    Message('note_off', channel=8, note=71, velocity=64, time=249),
    Message('note_on', channel=8, note=69, velocity=94, time=327),
    Message('note_off', channel=8, note=69, velocity=64, time=76),
    Message('note_on', channel=8, note=69, velocity=94, time=20),
    Message('note_off', channel=8, note=69, velocity=64, time=76),
    Message('note_on', channel=8, note=73, velocity=94, time=20),
    Message('note_off', channel=8, note=73, velocity=64, time=38),
    Message('note_on', channel=8, note=71, velocity=94, time=10),
    Message('note_off', channel=8, note=71, velocity=64, time=201),
    Message('note_on', channel=8, note=73, velocity=94, time=327),
    Message('note_off', channel=8, note=73, velocity=64, time=76),
    Message('note_on', channel=8, note=76, velocity=94, time=20),
    Message('note_off', channel=8, note=76, velocity=64, time=153),
    Message('note_on', channel=8, note=79, velocity=94, time=39),
    Message('note_off', channel=8, note=79, velocity=64, time=153),
    Message('note_on', channel=8, note=76, velocity=94, time=39),
    Message('note_off', channel=8, note=76, velocity=64, time=153),
    Message('note_on', channel=8, note=79, velocity=94, time=807),
    Message('note_off', channel=8, note=79, velocity=64, time=76),
    Message('note_on', channel=8, note=76, velocity=94, time=20),
    Message('note_off', channel=8, note=76, velocity=64, time=230),
    Message('note_on', channel=8, note=80, velocity=94, time=58),
    Message('note_off', channel=8, note=80, velocity=64, time=153),
    Message('note_on', channel=8, note=76, velocity=94, time=39),
    Message('note_off', channel=8, note=76, velocity=64, time=153),
    Message('note_on', channel=8, note=79, velocity=94, time=807),
    Message('note_off', channel=8, note=79, velocity=64, time=76),
    Message('note_on', channel=8, note=76, velocity=94, time=20),
    Message('note_off', channel=8, note=76, velocity=64, time=230),
    Message('note_on', channel=8, note=80, velocity=94, time=58),
    Message('note_off', channel=8, note=80, velocity=64, time=153),
    Message('note_on', channel=8, note=76, velocity=94, time=39),
    Message('note_off', channel=8, note=76, velocity=64, time=153),
    Message('note_on', channel=8, note=79, velocity=94, time=807),
    Message('note_off', channel=8, note=79, velocity=64, time=76),
    Message('note_on', channel=8, note=76, velocity=94, time=20),
    Message('note_off', channel=8, note=76, velocity=64, time=230),
    Message('note_on', channel=8, note=80, velocity=94, time=58),
    Message('note_off', channel=8, note=80, velocity=64, time=153),
    Message('note_on', channel=8, note=76, velocity=94, time=39),
    Message('note_off', channel=8, note=76, velocity=64, time=153),
    Message('note_on', channel=8, note=79, velocity=94, time=807),
    Message('note_off', channel=8, note=79, velocity=64, time=76),
    Message('note_on', channel=8, note=76, velocity=94, time=20),
    Message('note_off', channel=8, note=76, velocity=64, time=230),
    Message('control_change', channel=8, control=7, value=126, time=58),
    Message('note_on', channel=8, note=80, velocity=94, time=0),
    Message('control_change', channel=8, control=7, value=125, time=48),
    Message('control_change', channel=8, control=7, value=124, time=48),
    Message('control_change', channel=8, control=7, value=123, time=24),
    Message('note_off', channel=8, note=80, velocity=64, time=33),
    Message('control_change', channel=8, control=7, value=122, time=15),
    Message('note_on', channel=8, note=76, velocity=94, time=24),
    Message('control_change', channel=8, control=7, value=121, time=24),
    Message('control_change', channel=8, control=7, value=120, time=24),
    Message('control_change', channel=8, control=7, value=119, time=48),
    Message('control_change', channel=8, control=7, value=118, time=24),
    Message('note_off', channel=8, note=76, velocity=64, time=33),
    Message('control_change', channel=8, control=7, value=117, time=15),
    Message('control_change', channel=8, control=7, value=116, time=48),
    Message('control_change', channel=8, control=7, value=115, time=24),
    Message('control_change', channel=8, control=7, value=114, time=48),
    Message('control_change', channel=8, control=7, value=113, time=48),
    Message('control_change', channel=8, control=7, value=112, time=24),
    Message('control_change', channel=8, control=7, value=111, time=48),
    Message('control_change', channel=8, control=7, value=110, time=24),
    Message('control_change', channel=8, control=7, value=109, time=48),
    Message('control_change', channel=8, control=7, value=108, time=48),
    Message('control_change', channel=8, control=7, value=107, time=24),
    Message('control_change', channel=8, control=7, value=106, time=48),
    Message('control_change', channel=8, control=7, value=105, time=24),
    Message('control_change', channel=8, control=7, value=104, time=48),
    Message('control_change', channel=8, control=7, value=103, time=48),
    Message('control_change', channel=8, control=7, value=102, time=24),
    Message('control_change', channel=8, control=7, value=101, time=48),
    Message('control_change', channel=8, control=7, value=100, time=48),
    Message('control_change', channel=8, control=7, value=99, time=24),
    Message('control_change', channel=8, control=7, value=98, time=48),
    Message('control_change', channel=8, control=7, value=97, time=24),
    Message('note_on', channel=8, note=79, velocity=94, time=24),
    Message('control_change', channel=8, control=7, value=96, time=24),
    Message('control_change', channel=8, control=7, value=95, time=48),
    Message('note_off', channel=8, note=79, velocity=64, time=4),
    Message('control_change', channel=8, control=7, value=94, time=20),
    Message('note_on', channel=8, note=76, velocity=94, time=0),
    Message('control_change', channel=8, control=7, value=93, time=48),
    Message('control_change', channel=8, control=7, value=92, time=24),
    Message('control_change', channel=8, control=7, value=91, time=48),
    Message('control_change', channel=8, control=7, value=90, time=48),
    Message('control_change', channel=8, control=7, value=89, time=24),
    Message('note_off', channel=8, note=76, velocity=64, time=38),
    Message('control_change', channel=8, control=7, value=88, time=10),
    Message('control_change', channel=8, control=7, value=87, time=48),
    Message('note_on', channel=8, note=80, velocity=94, time=0),
    Message('control_change', channel=8, control=7, value=86, time=24),
    Message('control_change', channel=8, control=7, value=85, time=48),
    Message('control_change', channel=8, control=7, value=84, time=24),
    Message('control_change', channel=8, control=7, value=83, time=48),
    Message('note_off', channel=8, note=80, velocity=64, time=9),
    Message('control_change', channel=8, control=7, value=82, time=39),
    Message('note_on', channel=8, note=76, velocity=94, time=0),
    Message('control_change', channel=8, control=7, value=81, time=24),
    Message('control_change', channel=8, control=7, value=80, time=48),
    Message('control_change', channel=8, control=7, value=79, time=24),
    Message('control_change', channel=8, control=7, value=78, time=48),
    Message('note_off', channel=8, note=76, velocity=64, time=9),
    Message('control_change', channel=8, control=7, value=77, time=39),
    Message('control_change', channel=8, control=7, value=76, time=24),
    Message('control_change', channel=8, control=7, value=75, time=48),
    Message('control_change', channel=8, control=7, value=74, time=48),
    Message('control_change', channel=8, control=7, value=73, time=24),
    Message('control_change', channel=8, control=7, value=72, time=48),
    Message('control_change', channel=8, control=7, value=71, time=24),
    Message('control_change', channel=8, control=7, value=70, time=48),
    Message('control_change', channel=8, control=7, value=69, time=48),
    Message('control_change', channel=8, control=7, value=68, time=24),
    Message('control_change', channel=8, control=7, value=67, time=48),
    Message('control_change', channel=8, control=7, value=66, time=24),
    Message('control_change', channel=8, control=7, value=65, time=48),
    Message('control_change', channel=8, control=7, value=64, time=48),
    Message('control_change', channel=8, control=7, value=63, time=24),
    Message('control_change', channel=8, control=7, value=62, time=48),
    Message('control_change', channel=8, control=7, value=61, time=48),
    Message('control_change', channel=8, control=7, value=60, time=24),
    Message('control_change', channel=8, control=7, value=59, time=48),
    Message('control_change', channel=8, control=7, value=58, time=24),
    Message('control_change', channel=8, control=7, value=57, time=48),
    Message('note_on', channel=8, note=79, velocity=94, time=0),
    Message('control_change', channel=8, control=7, value=56, time=48),
    Message('control_change', channel=8, control=7, value=55, time=24),
    Message('note_off', channel=8, note=79, velocity=64, time=4),
    Message('note_on', channel=8, note=76, velocity=94, time=20),
    Message('control_change', channel=8, control=7, value=54, time=24),
    Message('control_change', channel=8, control=7, value=53, time=24),
    Message('control_change', channel=8, control=7, value=52, time=48),
    Message('control_change', channel=8, control=7, value=51, time=48),
    Message('control_change', channel=8, control=7, value=50, time=24),
    Message('control_change', channel=8, control=7, value=49, time=48),
    Message('note_off', channel=8, note=76, velocity=64, time=14),
    Message('control_change', channel=8, control=7, value=48, time=34),
    Message('control_change', channel=8, control=7, value=47, time=24),
    Message('note_on', channel=8, note=80, velocity=94, time=0),
    Message('control_change', channel=8, control=7, value=46, time=48),
    Message('control_change', channel=8, control=7, value=45, time=24),
    Message('control_change', channel=8, control=7, value=44, time=48),
    Message('note_off', channel=8, note=80, velocity=64, time=33),
    Message('control_change', channel=8, control=7, value=43, time=15),
    Message('control_change', channel=8, control=7, value=42, time=24),
    Message('note_on', channel=8, note=76, velocity=94, time=0),
    Message('control_change', channel=8, control=7, value=41, time=48),
    Message('control_change', channel=8, control=7, value=40, time=24),
    Message('control_change', channel=8, control=7, value=39, time=48),
    Message('note_off', channel=8, note=76, velocity=64, time=33),
    Message('control_change', channel=8, control=7, value=38, time=15),
    Message('control_change', channel=8, control=7, value=37, time=24),
    Message('control_change', channel=8, control=7, value=36, time=48),
    Message('control_change', channel=8, control=7, value=35, time=48),
    Message('control_change', channel=8, control=7, value=34, time=24),
    Message('control_change', channel=8, control=7, value=33, time=48),
    Message('control_change', channel=8, control=7, value=32, time=24),
    Message('control_change', channel=8, control=7, value=31, time=48),
    Message('control_change', channel=8, control=7, value=30, time=48),
    Message('control_change', channel=8, control=7, value=29, time=24),
    Message('control_change', channel=8, control=7, value=28, time=48),
    Message('control_change', channel=8, control=7, value=19, time=24),
    Message('control_change', channel=8, control=7, value=18, time=96),
    Message('control_change', channel=8, control=7, value=17, time=72),
    Message('control_change', channel=8, control=7, value=16, time=72),
    Message('control_change', channel=8, control=7, value=15, time=72),
    Message('control_change', channel=8, control=7, value=14, time=72),
    Message('note_on', channel=8, note=79, velocity=94, time=0),
    Message('note_off', channel=8, note=79, velocity=64, time=76),
    Message('control_change', channel=8, control=7, value=13, time=20),
    Message('note_on', channel=8, note=76, velocity=94, time=0),
    Message('control_change', channel=8, control=7, value=12, time=72),
    Message('control_change', channel=8, control=7, value=11, time=72),
    Message('control_change', channel=8, control=7, value=10, time=72),
    Message('note_off', channel=8, note=76, velocity=64, time=14),
    Message('control_change', channel=8, control=7, value=9, time=58),
    Message('note_on', channel=8, note=80, velocity=94, time=0),
    Message('control_change', channel=8, control=7, value=8, time=96),
    Message('note_off', channel=8, note=80, velocity=64, time=57),
    Message('control_change', channel=8, control=7, value=7, time=15),
    Message('note_on', channel=8, note=76, velocity=94, time=24),
    Message('control_change', channel=8, control=7, value=6, time=48),
    Message('control_change', channel=8, control=7, value=5, time=72),
    Message('note_off', channel=8, note=76, velocity=64, time=33),
    Message('control_change', channel=8, control=7, value=4, time=39),
    Message('control_change', channel=8, control=7, value=3, time=96),
    Message('control_change', channel=8, control=7, value=2, time=72),
    Message('control_change', channel=8, control=7, value=1, time=72),
    Message('control_change', channel=8, control=7, value=0, time=72),
    Message('pitchwheel', channel=8, pitch=0, time=840),
    Message('polytouch', channel=8, note=64, value=0, time=0),
    Message('aftertouch', channel=8, value=0, time=0),
    Message('control_change', channel=8, control=1, value=0, time=0),
    Message('control_change', channel=8, control=2, value=0, time=0),
    Message('control_change', channel=8, control=4, value=0, time=0),
    Message('control_change', channel=8, control=7, value=100, time=0),
    Message('control_change', channel=8, control=8, value=0, time=0),
    Message('control_change', channel=8, control=10, value=63, time=0),
    Message('control_change', channel=8, control=64, value=0, time=0),
    Message('control_change', channel=8, control=65, value=0, time=0),
    Message('control_change', channel=8, control=66, value=0, time=0),
    Message('control_change', channel=8, control=67, value=0, time=0),
    Message('control_change', channel=8, control=68, value=0, time=0),
    MetaMessage('end_of_track', time=0)]),
  MidiTrack([
    MetaMessage('midi_port', port=0, time=0),
    MetaMessage('track_name', name='Bass Drum           ', time=0),
    Message('control_change', channel=9, control=7, value=111, time=0),
    Message('note_on', channel=9, note=35, velocity=127, time=0),
    Message('pitchwheel', channel=9, pitch=200, time=0),
    Message('note_off', channel=9, note=35, velocity=1, time=96),
    Message('note_on', channel=9, note=35, velocity=127, time=0),
    Message('control_change', channel=9, control=7, value=112, time=168),
    Message('note_off', channel=9, note=35, velocity=1, time=24),
    Message('note_on', channel=9, note=35, velocity=127, time=0),
    Message('note_off', channel=9, note=35, velocity=1, time=96),
    Message('note_on', channel=9, note=35, velocity=127, time=0),
    Message('note_off', channel=9, note=35, velocity=1, time=96),
    Message('note_on', channel=9, note=35, velocity=127, time=0),
    Message('control_change', channel=9, control=7, value=113, time=48),
    Message('note_off', channel=9, note=35, velocity=1, time=144),
    Message('note_on', channel=9, note=35, velocity=127, time=0),
    Message('control_change', channel=9, control=7, value=114, time=95),
    Message('note_off', channel=9, note=35, velocity=1, time=1),
    Message('note_on', channel=9, note=35, velocity=127, time=0),
    Message('note_off', channel=9, note=35, velocity=1, time=96),
    Message('note_on', channel=9, note=35, velocity=127, time=0),
    Message('note_off', channel=9, note=35, velocity=1, time=192),
    Message('note_on', channel=9, note=35, velocity=127, time=0),
    Message('note_off', channel=9, note=35, velocity=1, time=96),
    Message('note_on', channel=9, note=35, velocity=127, time=0),
    Message('note_off', channel=9, note=35, velocity=1, time=96),
    Message('note_on', channel=9, note=35, velocity=127, time=0),
    Message('note_off', channel=9, note=35, velocity=1, time=192),
    Message('note_on', channel=9, note=35, velocity=127, time=0),
    Message('note_off', channel=9, note=35, velocity=1, time=48),
    Message('note_on', channel=9, note=35, velocity=127, time=0),
    Message('note_off', channel=9, note=35, velocity=1, time=48),
    Message('note_on', channel=9, note=35, velocity=127, time=0),
    Message('note_off', channel=9, note=35, velocity=1, time=96),
    Message('note_on', channel=9, note=35, velocity=127, time=0),
    Message('note_off', channel=9, note=35, velocity=1, time=192),
    Message('note_on', channel=9, note=35, velocity=127, time=0),
    Message('note_off', channel=9, note=35, velocity=1, time=96),
    Message('note_on', channel=9, note=35, velocity=127, time=0),
    Message('note_off', channel=9, note=35, velocity=1, time=96),
    Message('note_on', channel=9, note=35, velocity=127, time=0),
    Message('note_off', channel=9, note=35, velocity=1, time=192),
    Message('note_on', channel=9, note=35, velocity=127, time=0),
    Message('note_off', channel=9, note=35, velocity=1, time=96),
    Message('note_on', channel=9, note=35, velocity=127, time=0),
    Message('note_off', channel=9, note=35, velocity=1, time=96),
    Message('note_on', channel=9, note=35, velocity=127, time=0),
    Message('note_off', channel=9, note=35, velocity=1, time=192),
    Message('note_on', channel=9, note=35, velocity=127, time=0),
    Message('note_off', channel=9, note=35, velocity=1, time=96),
    Message('note_on', channel=9, note=35, velocity=127, time=0),
    Message('note_off', channel=9, note=35, velocity=1, time=96),
    Message('note_on', channel=9, note=35, velocity=127, time=0),
    Message('note_off', channel=9, note=35, velocity=1, time=192),
    Message('note_on', channel=9, note=35, velocity=127, time=0),
    Message('note_off', channel=9, note=35, velocity=1, time=96),
    Message('note_on', channel=9, note=35, velocity=127, time=0),
    Message('note_off', channel=9, note=35, velocity=1, time=96),
    Message('note_on', channel=9, note=35, velocity=127, time=0),
    Message('note_off', channel=9, note=35, velocity=1, time=192),
    Message('note_on', channel=9, note=35, velocity=127, time=0),
    Message('note_off', channel=9, note=35, velocity=1, time=96),
    Message('note_on', channel=9, note=35, velocity=127, time=0),
    Message('note_off', channel=9, note=35, velocity=1, time=96),
    Message('note_on', channel=9, note=35, velocity=127, time=0),
    Message('note_off', channel=9, note=35, velocity=1, time=192),
    Message('note_on', channel=9, note=35, velocity=127, time=0),
    Message('note_off', channel=9, note=35, velocity=1, time=48),
    Message('note_on', channel=9, note=35, velocity=127, time=0),
    Message('note_off', channel=9, note=35, velocity=1, time=48),
    Message('note_on', channel=9, note=35, velocity=127, time=0),
    Message('note_off', channel=9, note=35, velocity=1, time=96),
    Message('note_on', channel=9, note=35, velocity=127, time=0),
    Message('note_off', channel=9, note=35, velocity=1, time=192),
    Message('note_on', channel=9, note=35, velocity=127, time=0),
    Message('note_off', channel=9, note=35, velocity=1, time=96),
    Message('note_on', channel=9, note=35, velocity=127, time=0),
    Message('note_off', channel=9, note=35, velocity=1, time=96),
    Message('note_on', channel=9, note=35, velocity=127, time=0),
    Message('note_off', channel=9, note=35, velocity=1, time=192),
    Message('note_on', channel=9, note=35, velocity=127, time=0),
    Message('note_off', channel=9, note=35, velocity=1, time=96),
    Message('note_on', channel=9, note=35, velocity=127, time=0),
    Message('note_off', channel=9, note=35, velocity=1, time=96),
    Message('note_on', channel=9, note=35, velocity=127, time=0),
    Message('note_off', channel=9, note=35, velocity=1, time=192),
    Message('note_on', channel=9, note=35, velocity=127, time=0),
    Message('note_off', channel=9, note=35, velocity=1, time=96),
    Message('note_on', channel=9, note=35, velocity=127, time=0),
    Message('note_off', channel=9, note=35, velocity=1, time=96),
    Message('note_on', channel=9, note=35, velocity=127, time=0),
    Message('note_off', channel=9, note=35, velocity=1, time=192),
    Message('note_on', channel=9, note=35, velocity=127, time=0),
    Message('note_off', channel=9, note=35, velocity=1, time=96),
    Message('note_on', channel=9, note=35, velocity=127, time=0),
    Message('note_off', channel=9, note=35, velocity=1, time=96),
    Message('note_on', channel=9, note=35, velocity=127, time=0),
    Message('note_off', channel=9, note=35, velocity=1, time=192),
    Message('note_on', channel=9, note=35, velocity=127, time=0),
    Message('note_off', channel=9, note=35, velocity=1, time=96),
    Message('note_on', channel=9, note=35, velocity=127, time=0),
    Message('note_off', channel=9, note=35, velocity=1, time=96),
    Message('note_on', channel=9, note=35, velocity=127, time=0),
    Message('note_off', channel=9, note=35, velocity=1, time=192),
    Message('note_on', channel=9, note=35, velocity=127, time=0),
    Message('note_off', channel=9, note=35, velocity=1, time=48),
    Message('note_on', channel=9, note=35, velocity=127, time=0),
    Message('note_off', channel=9, note=35, velocity=1, time=48),
    Message('note_on', channel=9, note=35, velocity=127, time=0),
    Message('note_off', channel=9, note=35, velocity=1, time=96),
    Message('note_on', channel=9, note=35, velocity=127, time=0),
    Message('note_off', channel=9, note=35, velocity=1, time=192),
    Message('note_on', channel=9, note=35, velocity=127, time=0),
    Message('note_off', channel=9, note=35, velocity=1, time=96),
    Message('note_on', channel=9, note=35, velocity=127, time=0),
    Message('note_off', channel=9, note=35, velocity=1, time=96),
    Message('note_on', channel=9, note=35, velocity=127, time=0),
    Message('note_off', channel=9, note=35, velocity=1, time=192),
    Message('note_on', channel=9, note=35, velocity=127, time=0),
    Message('control_change', channel=9, control=7, value=114, time=96),
    Message('note_off', channel=9, note=35, velocity=1, time=96),
    Message('note_on', channel=9, note=35, velocity=127, time=0),
    Message('note_off', channel=9, note=35, velocity=1, time=96),
    Message('note_on', channel=9, note=35, velocity=127, time=0),
    Message('note_off', channel=9, note=35, velocity=1, time=192),
    Message('note_on', channel=9, note=35, velocity=127, time=0),
    Message('note_off', channel=9, note=35, velocity=1, time=96),
    Message('note_on', channel=9, note=35, velocity=127, time=0),
    Message('note_off', channel=9, note=35, velocity=1, time=192),
    Message('note_on', channel=9, note=35, velocity=127, time=96),
    Message('note_off', channel=9, note=35, velocity=1, time=192),
    Message('note_on', channel=9, note=35, velocity=127, time=96),
    Message('note_off', channel=9, note=35, velocity=1, time=96),
    Message('note_on', channel=9, note=35, velocity=127, time=0),
    Message('note_off', channel=9, note=35, velocity=1, time=192),
    Message('note_on', channel=9, note=35, velocity=127, time=96),
    Message('note_off', channel=9, note=35, velocity=1, time=48),
    Message('note_on', channel=9, note=35, velocity=127, time=0),
    Message('note_off', channel=9, note=35, velocity=1, time=192),
    Message('note_on', channel=9, note=35, velocity=127, time=48),
    Message('note_off', channel=9, note=35, velocity=1, time=192),
    Message('note_on', channel=9, note=35, velocity=127, time=96),
    Message('note_off', channel=9, note=35, velocity=1, time=48),
    Message('note_on', channel=9, note=35, velocity=127, time=0),
    Message('note_off', channel=9, note=35, velocity=1, time=48),
    Message('note_on', channel=9, note=35, velocity=127, time=0),
    Message('note_off', channel=9, note=35, velocity=1, time=192),
    Message('note_on', channel=9, note=35, velocity=127, time=0),
    Message('note_off', channel=9, note=35, velocity=1, time=96),
    Message('note_on', channel=9, note=35, velocity=127, time=0),
    Message('note_off', channel=9, note=35, velocity=1, time=192),
    Message('note_on', channel=9, note=35, velocity=127, time=0),
    Message('note_off', channel=9, note=35, velocity=1, time=96),
    Message('note_on', channel=9, note=35, velocity=127, time=0),
    Message('note_off', channel=9, note=35, velocity=1, time=96),
    Message('note_on', channel=9, note=35, velocity=127, time=0),
    Message('note_off', channel=9, note=35, velocity=1, time=192),
    Message('note_on', channel=9, note=35, velocity=127, time=0),
    Message('note_off', channel=9, note=35, velocity=1, time=96),
    Message('note_on', channel=9, note=35, velocity=127, time=0),
    Message('note_off', channel=9, note=35, velocity=1, time=96),
    Message('note_on', channel=9, note=35, velocity=127, time=0),
    Message('note_off', channel=9, note=35, velocity=1, time=192),
    Message('note_on', channel=9, note=35, velocity=127, time=0),
    Message('note_off', channel=9, note=35, velocity=1, time=96),
    Message('note_on', channel=9, note=35, velocity=127, time=0),
    Message('note_off', channel=9, note=35, velocity=1, time=96),
    Message('note_on', channel=9, note=35, velocity=127, time=0),
    Message('note_off', channel=9, note=35, velocity=1, time=192),
    Message('note_on', channel=9, note=35, velocity=127, time=0),
    Message('note_off', channel=9, note=35, velocity=1, time=48),
    Message('note_on', channel=9, note=35, velocity=127, time=0),
    Message('note_off', channel=9, note=35, velocity=1, time=48),
    Message('note_on', channel=9, note=35, velocity=127, time=0),
    Message('note_off', channel=9, note=35, velocity=1, time=96),
    Message('note_on', channel=9, note=35, velocity=127, time=0),
    Message('note_off', channel=9, note=35, velocity=1, time=192),
    Message('note_on', channel=9, note=35, velocity=127, time=0),
    Message('note_off', channel=9, note=35, velocity=1, time=96),
    Message('note_on', channel=9, note=35, velocity=127, time=0),
    Message('note_off', channel=9, note=35, velocity=1, time=96),
    Message('note_on', channel=9, note=35, velocity=127, time=0),
    Message('note_off', channel=9, note=35, velocity=1, time=192),
    Message('note_on', channel=9, note=35, velocity=127, time=0),
    Message('note_off', channel=9, note=35, velocity=1, time=96),
    Message('note_on', channel=9, note=35, velocity=127, time=0),
    Message('note_off', channel=9, note=35, velocity=1, time=96),
    Message('note_on', channel=9, note=35, velocity=127, time=0),
    Message('note_off', channel=9, note=35, velocity=1, time=192),
    Message('note_on', channel=9, note=35, velocity=127, time=0),
    Message('note_off', channel=9, note=35, velocity=1, time=96),
    Message('note_on', channel=9, note=35, velocity=127, time=0),
    Message('note_off', channel=9, note=35, velocity=1, time=96),
    Message('note_on', channel=9, note=35, velocity=127, time=0),
    Message('note_off', channel=9, note=35, velocity=1, time=192),
    Message('note_on', channel=9, note=35, velocity=127, time=0),
    Message('note_off', channel=9, note=35, velocity=1, time=48),
    Message('note_on', channel=9, note=35, velocity=127, time=0),
    Message('note_off', channel=9, note=35, velocity=1, time=144),
    Message('note_on', channel=9, note=35, velocity=127, time=0),
    Message('note_off', channel=9, note=35, velocity=1, time=96),
    Message('note_on', channel=9, note=35, velocity=127, time=0),
    Message('note_off', channel=9, note=35, velocity=1, time=192),
    Message('note_on', channel=9, note=35, velocity=127, time=0),
    Message('note_off', channel=9, note=35, velocity=1, time=96),
    Message('note_on', channel=9, note=35, velocity=127, time=0),
    Message('note_off', channel=9, note=35, velocity=1, time=192),
    Message('note_on', channel=9, note=35, velocity=127, time=96),
    Message('note_off', channel=9, note=35, velocity=1, time=192),
    Message('note_on', channel=9, note=35, velocity=127, time=96),
    Message('note_off', channel=9, note=35, velocity=1, time=96),
    Message('note_on', channel=9, note=35, velocity=127, time=0),
    Message('note_off', channel=9, note=35, velocity=1, time=192),
    Message('note_on', channel=9, note=35, velocity=127, time=96),
    Message('note_off', channel=9, note=35, velocity=1, time=48),
    Message('note_on', channel=9, note=35, velocity=127, time=0),
    Message('note_off', channel=9, note=35, velocity=1, time=192),
    Message('note_on', channel=9, note=35, velocity=127, time=48),
    Message('note_off', channel=9, note=35, velocity=1, time=192),
    Message('note_on', channel=9, note=35, velocity=127, time=96),
    Message('note_off', channel=9, note=35, velocity=1, time=48),
    Message('note_on', channel=9, note=35, velocity=127, time=0),
    Message('note_off', channel=9, note=35, velocity=1, time=48),
    Message('note_on', channel=9, note=35, velocity=127, time=0),
    Message('note_off', channel=9, note=35, velocity=1, time=192),
    Message('note_on', channel=9, note=35, velocity=127, time=0),
    Message('note_off', channel=9, note=35, velocity=1, time=96),
    Message('note_on', channel=9, note=35, velocity=127, time=0),
    Message('note_off', channel=9, note=35, velocity=1, time=192),
    Message('note_on', channel=9, note=35, velocity=127, time=0),
    Message('note_off', channel=9, note=35, velocity=1, time=96),
    Message('note_on', channel=9, note=35, velocity=127, time=0),
    Message('note_off', channel=9, note=35, velocity=1, time=96),
    Message('note_on', channel=9, note=35, velocity=127, time=0),
    Message('note_off', channel=9, note=35, velocity=1, time=192),
    Message('note_on', channel=9, note=35, velocity=127, time=0),
    Message('note_off', channel=9, note=35, velocity=1, time=48),
    Message('note_on', channel=9, note=35, velocity=127, time=0),
    Message('note_off', channel=9, note=35, velocity=1, time=144),
    Message('note_on', channel=9, note=35, velocity=127, time=0),
    Message('note_off', channel=9, note=35, velocity=1, time=48),
    Message('note_on', channel=9, note=35, velocity=127, time=0),
    Message('note_off', channel=9, note=35, velocity=1, time=144),
    Message('note_on', channel=9, note=35, velocity=127, time=0),
    Message('note_off', channel=9, note=35, velocity=1, time=48),
    Message('note_on', channel=9, note=35, velocity=127, time=0),
    Message('note_off', channel=9, note=35, velocity=1, time=144),
    Message('note_on', channel=9, note=35, velocity=127, time=0),
    Message('note_off', channel=9, note=35, velocity=1, time=48),
    Message('note_on', channel=9, note=35, velocity=127, time=0),
    Message('note_off', channel=9, note=35, velocity=1, time=192),
    Message('note_on', channel=9, note=35, velocity=127, time=144),
    Message('note_off', channel=9, note=35, velocity=1, time=96),
    Message('note_on', channel=9, note=35, velocity=127, time=0),
    Message('note_off', channel=9, note=35, velocity=1, time=192),
    Message('note_on', channel=9, note=35, velocity=127, time=0),
    Message('note_off', channel=9, note=35, velocity=1, time=96),
    Message('note_on', channel=9, note=35, velocity=127, time=0),
    Message('note_off', channel=9, note=35, velocity=1, time=192),
    Message('note_on', channel=9, note=35, velocity=127, time=96),
    Message('note_off', channel=9, note=35, velocity=1, time=192),
    Message('note_on', channel=9, note=35, velocity=127, time=96),
    Message('note_off', channel=9, note=35, velocity=1, time=96),
    Message('note_on', channel=9, note=35, velocity=127, time=0),
    Message('note_off', channel=9, note=35, velocity=1, time=192),
    Message('note_on', channel=9, note=35, velocity=127, time=96),
    Message('note_off', channel=9, note=35, velocity=1, time=48),
    Message('note_on', channel=9, note=35, velocity=127, time=0),
    Message('note_off', channel=9, note=35, velocity=1, time=192),
    Message('note_on', channel=9, note=35, velocity=127, time=48),
    Message('note_off', channel=9, note=35, velocity=1, time=192),
    Message('note_on', channel=9, note=35, velocity=127, time=96),
    Message('note_off', channel=9, note=35, velocity=1, time=48),
    Message('note_on', channel=9, note=35, velocity=127, time=0),
    Message('note_off', channel=9, note=35, velocity=1, time=48),
    Message('note_on', channel=9, note=35, velocity=127, time=0),
    Message('note_off', channel=9, note=35, velocity=1, time=192),
    Message('note_on', channel=9, note=35, velocity=127, time=96),
    Message('note_off', channel=9, note=35, velocity=1, time=48),
    Message('note_on', channel=9, note=35, velocity=127, time=0),
    Message('note_off', channel=9, note=35, velocity=1, time=144),
    Message('note_on', channel=9, note=35, velocity=127, time=0),
    Message('note_off', channel=9, note=35, velocity=1, time=48),
    Message('note_on', channel=9, note=35, velocity=127, time=0),
    Message('note_off', channel=9, note=35, velocity=1, time=144),
    Message('note_on', channel=9, note=35, velocity=127, time=0),
    Message('note_off', channel=9, note=35, velocity=1, time=48),
    Message('note_on', channel=9, note=35, velocity=127, time=0),
    Message('note_off', channel=9, note=35, velocity=1, time=192),
    Message('note_on', channel=9, note=35, velocity=127, time=48),
    Message('note_off', channel=9, note=35, velocity=1, time=96),
    Message('note_on', channel=9, note=35, velocity=127, time=0),
    Message('note_off', channel=9, note=35, velocity=1, time=192),
    Message('note_on', channel=9, note=35, velocity=127, time=0),
    Message('note_off', channel=9, note=35, velocity=1, time=96),
    Message('note_on', channel=9, note=35, velocity=127, time=0),
    Message('note_off', channel=9, note=35, velocity=1, time=96),
    Message('note_on', channel=9, note=35, velocity=127, time=0),
    Message('note_off', channel=9, note=35, velocity=1, time=192),
    Message('note_on', channel=9, note=35, velocity=127, time=0),
    Message('note_off', channel=9, note=35, velocity=1, time=96),
    Message('note_on', channel=9, note=35, velocity=127, time=0),
    Message('note_off', channel=9, note=35, velocity=1, time=96),
    Message('note_on', channel=9, note=35, velocity=127, time=0),
    Message('note_off', channel=9, note=35, velocity=1, time=192),
    Message('note_on', channel=9, note=35, velocity=127, time=0),
    Message('note_off', channel=9, note=35, velocity=1, time=96),
    Message('note_on', channel=9, note=35, velocity=127, time=0),
    Message('note_off', channel=9, note=35, velocity=1, time=96),
    Message('note_on', channel=9, note=35, velocity=127, time=0),
    Message('note_off', channel=9, note=35, velocity=1, time=192),
    Message('note_on', channel=9, note=35, velocity=127, time=0),
    Message('note_off', channel=9, note=35, velocity=1, time=48),
    Message('note_on', channel=9, note=35, velocity=127, time=0),
    Message('note_off', channel=9, note=35, velocity=1, time=48),
    Message('note_on', channel=9, note=35, velocity=127, time=0),
    Message('note_off', channel=9, note=35, velocity=1, time=96),
    Message('note_on', channel=9, note=35, velocity=127, time=0),
    Message('note_off', channel=9, note=35, velocity=1, time=192),
    Message('note_on', channel=9, note=35, velocity=127, time=0),
    Message('note_off', channel=9, note=35, velocity=1, time=96),
    Message('note_on', channel=9, note=35, velocity=127, time=0),
    Message('note_off', channel=9, note=35, velocity=1, time=96),
    Message('note_on', channel=9, note=35, velocity=127, time=0),
    Message('note_off', channel=9, note=35, velocity=1, time=192),
    Message('note_on', channel=9, note=35, velocity=127, time=0),
    Message('note_off', channel=9, note=35, velocity=1, time=96),
    Message('note_on', channel=9, note=35, velocity=127, time=0),
    Message('note_off', channel=9, note=35, velocity=1, time=96),
    Message('note_on', channel=9, note=35, velocity=127, time=0),
    Message('note_off', channel=9, note=35, velocity=1, time=192),
    Message('note_on', channel=9, note=35, velocity=127, time=0),
    Message('note_off', channel=9, note=35, velocity=1, time=96),
    Message('note_on', channel=9, note=35, velocity=127, time=0),
    Message('note_off', channel=9, note=35, velocity=1, time=96),
    Message('note_on', channel=9, note=35, velocity=127, time=0),
    Message('note_off', channel=9, note=35, velocity=1, time=192),
    Message('note_on', channel=9, note=35, velocity=127, time=0),
    Message('note_off', channel=9, note=35, velocity=1, time=48),
    Message('note_on', channel=9, note=35, velocity=127, time=0),
    Message('note_off', channel=9, note=35, velocity=1, time=48),
    Message('note_on', channel=9, note=35, velocity=127, time=0),
    Message('note_off', channel=9, note=35, velocity=1, time=96),
    Message('note_on', channel=9, note=35, velocity=127, time=0),
    Message('note_off', channel=9, note=35, velocity=1, time=192),
    Message('note_on', channel=9, note=35, velocity=127, time=0),
    Message('note_off', channel=9, note=35, velocity=1, time=96),
    Message('note_on', channel=9, note=35, velocity=127, time=0),
    Message('note_off', channel=9, note=35, velocity=1, time=96),
    Message('note_on', channel=9, note=35, velocity=127, time=0),
    Message('note_off', channel=9, note=35, velocity=1, time=192),
    Message('note_on', channel=9, note=35, velocity=127, time=0),
    Message('note_off', channel=9, note=35, velocity=1, time=96),
    Message('note_on', channel=9, note=35, velocity=127, time=0),
    Message('note_off', channel=9, note=35, velocity=1, time=96),
    Message('note_on', channel=9, note=35, velocity=127, time=0),
    Message('note_off', channel=9, note=35, velocity=1, time=192),
    Message('note_on', channel=9, note=35, velocity=127, time=0),
    Message('note_off', channel=9, note=35, velocity=1, time=96),
    Message('note_on', channel=9, note=35, velocity=127, time=0),
    Message('note_off', channel=9, note=35, velocity=1, time=96),
    Message('note_on', channel=9, note=35, velocity=127, time=0),
    Message('note_off', channel=9, note=35, velocity=1, time=192),
    Message('note_on', channel=9, note=35, velocity=127, time=0),
    Message('note_off', channel=9, note=35, velocity=1, time=96),
    Message('note_on', channel=9, note=35, velocity=127, time=0),
    Message('note_off', channel=9, note=35, velocity=1, time=96),
    Message('note_on', channel=9, note=35, velocity=127, time=0),
    Message('note_off', channel=9, note=35, velocity=1, time=192),
    Message('note_on', channel=9, note=35, velocity=127, time=0),
    Message('note_off', channel=9, note=35, velocity=1, time=96),
    Message('note_on', channel=9, note=35, velocity=127, time=0),
    Message('note_off', channel=9, note=35, velocity=1, time=96),
    Message('note_on', channel=9, note=35, velocity=127, time=0),
    Message('note_off', channel=9, note=35, velocity=1, time=192),
    Message('note_on', channel=9, note=35, velocity=127, time=0),
    Message('note_off', channel=9, note=35, velocity=1, time=96),
    Message('note_on', channel=9, note=35, velocity=127, time=0),
    Message('note_off', channel=9, note=35, velocity=1, time=96),
    Message('note_on', channel=9, note=35, velocity=127, time=0),
    Message('note_off', channel=9, note=35, velocity=1, time=192),
    Message('note_on', channel=9, note=35, velocity=127, time=0),
    Message('note_off', channel=9, note=35, velocity=1, time=96),
    Message('note_on', channel=9, note=35, velocity=127, time=0),
    Message('note_off', channel=9, note=35, velocity=1, time=96),
    Message('note_on', channel=9, note=35, velocity=127, time=0),
    Message('note_off', channel=9, note=35, velocity=1, time=192),
    Message('note_on', channel=9, note=35, velocity=127, time=0),
    Message('note_off', channel=9, note=35, velocity=1, time=96),
    Message('note_on', channel=9, note=35, velocity=127, time=0),
    Message('note_off', channel=9, note=35, velocity=1, time=96),
    Message('note_on', channel=9, note=35, velocity=127, time=0),
    Message('note_off', channel=9, note=35, velocity=1, time=192),
    Message('note_on', channel=9, note=35, velocity=127, time=0),
    Message('note_off', channel=9, note=35, velocity=1, time=96),
    Message('note_on', channel=9, note=35, velocity=127, time=0),
    Message('note_off', channel=9, note=35, velocity=1, time=96),
    Message('note_on', channel=9, note=35, velocity=127, time=0),
    Message('note_off', channel=9, note=35, velocity=1, time=192),
    Message('note_on', channel=9, note=35, velocity=127, time=0),
    Message('note_off', channel=9, note=35, velocity=1, time=96),
    Message('note_on', channel=9, note=35, velocity=127, time=0),
    Message('note_off', channel=9, note=35, velocity=1, time=96),
    Message('note_on', channel=9, note=35, velocity=127, time=0),
    Message('note_off', channel=9, note=35, velocity=1, time=192),
    Message('note_on', channel=9, note=35, velocity=127, time=0),
    Message('note_off', channel=9, note=35, velocity=1, time=96),
    Message('note_on', channel=9, note=35, velocity=127, time=0),
    Message('note_off', channel=9, note=35, velocity=1, time=96),
    Message('note_on', channel=9, note=35, velocity=127, time=0),
    Message('note_off', channel=9, note=35, velocity=1, time=192),
    Message('note_on', channel=9, note=35, velocity=127, time=0),
    Message('note_off', channel=9, note=35, velocity=1, time=96),
    Message('note_on', channel=9, note=35, velocity=127, time=0),
    Message('note_off', channel=9, note=35, velocity=1, time=96),
    Message('note_on', channel=9, note=35, velocity=127, time=0),
    Message('note_off', channel=9, note=35, velocity=1, time=192),
    Message('note_on', channel=9, note=35, velocity=127, time=0),
    Message('note_off', channel=9, note=35, velocity=1, time=96),
    Message('note_on', channel=9, note=35, velocity=127, time=0),
    Message('note_off', channel=9, note=35, velocity=1, time=96),
    Message('note_on', channel=9, note=35, velocity=127, time=0),
    Message('note_off', channel=9, note=35, velocity=1, time=192),
    Message('note_on', channel=9, note=35, velocity=127, time=0),
    Message('note_off', channel=9, note=35, velocity=1, time=96),
    Message('note_on', channel=9, note=35, velocity=127, time=0),
    Message('note_off', channel=9, note=35, velocity=1, time=96),
    Message('note_on', channel=9, note=35, velocity=127, time=0),
    Message('note_off', channel=9, note=35, velocity=1, time=192),
    Message('note_on', channel=9, note=35, velocity=127, time=0),
    Message('note_off', channel=9, note=35, velocity=1, time=96),
    Message('note_on', channel=9, note=35, velocity=127, time=0),
    Message('note_off', channel=9, note=35, velocity=1, time=96),
    Message('note_on', channel=9, note=35, velocity=127, time=0),
    Message('note_off', channel=9, note=35, velocity=1, time=192),
    Message('note_on', channel=9, note=35, velocity=127, time=0),
    Message('note_off', channel=9, note=35, velocity=1, time=96),
    Message('note_on', channel=9, note=35, velocity=127, time=0),
    Message('note_off', channel=9, note=35, velocity=1, time=96),
    Message('note_on', channel=9, note=35, velocity=127, time=0),
    Message('note_off', channel=9, note=35, velocity=1, time=192),
    Message('note_on', channel=9, note=35, velocity=127, time=0),
    Message('note_off', channel=9, note=35, velocity=1, time=96),
    Message('note_on', channel=9, note=35, velocity=127, time=0),
    Message('note_off', channel=9, note=35, velocity=1, time=96),
    Message('note_on', channel=9, note=35, velocity=127, time=0),
    Message('note_off', channel=9, note=35, velocity=1, time=192),
    Message('note_on', channel=9, note=35, velocity=127, time=0),
    Message('note_off', channel=9, note=35, velocity=1, time=96),
    Message('note_on', channel=9, note=35, velocity=127, time=0),
    Message('note_off', channel=9, note=35, velocity=1, time=96),
    Message('note_on', channel=9, note=35, velocity=127, time=0),
    Message('note_off', channel=9, note=35, velocity=1, time=96),
    Message('note_on', channel=9, note=35, velocity=127, time=0),
    Message('note_off', channel=9, note=35, velocity=1, time=192),
    Message('note_on', channel=9, note=35, velocity=127, time=0),
    Message('note_off', channel=9, note=35, velocity=1, time=96),
    Message('note_on', channel=9, note=35, velocity=127, time=0),
    Message('note_off', channel=9, note=35, velocity=1, time=192),
    Message('note_on', channel=9, note=35, velocity=127, time=96),
    Message('note_off', channel=9, note=35, velocity=1, time=96),
    Message('note_on', channel=9, note=35, velocity=127, time=0),
    Message('note_off', channel=9, note=35, velocity=1, time=96),
    Message('note_on', channel=9, note=35, velocity=127, time=0),
    Message('note_off', channel=9, note=35, velocity=1, time=192),
    Message('note_on', channel=9, note=35, velocity=127, time=0),
    Message('note_off', channel=9, note=35, velocity=1, time=96),
    Message('note_on', channel=9, note=35, velocity=127, time=0),
    Message('note_off', channel=9, note=35, velocity=1, time=192),
    Message('note_on', channel=9, note=35, velocity=127, time=96),
    Message('note_off', channel=9, note=35, velocity=1, time=192),
    Message('note_on', channel=9, note=35, velocity=127, time=96),
    Message('note_off', channel=9, note=35, velocity=1, time=96),
    Message('note_on', channel=9, note=35, velocity=127, time=0),
    Message('note_off', channel=9, note=35, velocity=1, time=192),
    Message('note_on', channel=9, note=35, velocity=127, time=96),
    Message('note_off', channel=9, note=35, velocity=1, time=48),
    Message('note_on', channel=9, note=35, velocity=127, time=0),
    Message('note_off', channel=9, note=35, velocity=1, time=192),
    Message('note_on', channel=9, note=35, velocity=127, time=48),
    Message('note_off', channel=9, note=35, velocity=1, time=192),
    Message('note_on', channel=9, note=35, velocity=127, time=96),
    Message('note_off', channel=9, note=35, velocity=1, time=48),
    Message('note_on', channel=9, note=35, velocity=127, time=0),
    Message('note_off', channel=9, note=35, velocity=1, time=48),
    Message('note_on', channel=9, note=35, velocity=127, time=0),
    Message('note_off', channel=9, note=35, velocity=1, time=192),
    Message('note_on', channel=9, note=35, velocity=127, time=0),
    Message('note_off', channel=9, note=35, velocity=1, time=96),
    Message('note_on', channel=9, note=35, velocity=127, time=0),
    Message('note_off', channel=9, note=35, velocity=1, time=192),
    Message('note_on', channel=9, note=35, velocity=127, time=0),
    Message('note_off', channel=9, note=35, velocity=1, time=96),
    Message('note_on', channel=9, note=35, velocity=127, time=0),
    Message('note_off', channel=9, note=35, velocity=1, time=96),
    Message('note_on', channel=9, note=35, velocity=127, time=0),
    Message('note_off', channel=9, note=35, velocity=1, time=192),
    Message('note_on', channel=9, note=35, velocity=127, time=0),
    Message('note_off', channel=9, note=35, velocity=1, time=96),
    Message('note_on', channel=9, note=35, velocity=127, time=0),
    Message('note_off', channel=9, note=35, velocity=1, time=96),
    Message('note_on', channel=9, note=35, velocity=127, time=0),
    Message('note_off', channel=9, note=35, velocity=1, time=192),
    Message('note_on', channel=9, note=35, velocity=127, time=0),
    Message('note_off', channel=9, note=35, velocity=1, time=96),
    Message('note_on', channel=9, note=35, velocity=127, time=0),
    Message('note_off', channel=9, note=35, velocity=1, time=96),
    Message('note_on', channel=9, note=35, velocity=127, time=0),
    Message('note_off', channel=9, note=35, velocity=1, time=192),
    Message('note_on', channel=9, note=35, velocity=127, time=0),
    Message('note_off', channel=9, note=35, velocity=1, time=48),
    Message('note_on', channel=9, note=35, velocity=127, time=0),
    Message('note_off', channel=9, note=35, velocity=1, time=48),
    Message('note_on', channel=9, note=35, velocity=127, time=0),
    Message('note_off', channel=9, note=35, velocity=1, time=96),
    Message('note_on', channel=9, note=35, velocity=127, time=0),
    Message('note_off', channel=9, note=35, velocity=1, time=192),
    Message('note_on', channel=9, note=35, velocity=127, time=0),
    Message('note_off', channel=9, note=35, velocity=1, time=96),
    Message('note_on', channel=9, note=35, velocity=127, time=0),
    Message('note_off', channel=9, note=35, velocity=1, time=96),
    Message('note_on', channel=9, note=35, velocity=127, time=0),
    Message('note_off', channel=9, note=35, velocity=1, time=192),
    Message('note_on', channel=9, note=35, velocity=127, time=0),
    Message('note_off', channel=9, note=35, velocity=1, time=96),
    Message('note_on', channel=9, note=35, velocity=127, time=0),
    Message('note_off', channel=9, note=35, velocity=1, time=96),
    Message('note_on', channel=9, note=35, velocity=127, time=0),
    Message('note_off', channel=9, note=35, velocity=1, time=192),
    Message('note_on', channel=9, note=35, velocity=127, time=0),
    Message('note_off', channel=9, note=35, velocity=1, time=96),
    Message('note_on', channel=9, note=35, velocity=127, time=0),
    Message('note_off', channel=9, note=35, velocity=1, time=96),
    Message('note_on', channel=9, note=35, velocity=127, time=0),
    Message('note_off', channel=9, note=35, velocity=1, time=192),
    Message('note_on', channel=9, note=35, velocity=127, time=0),
    Message('note_off', channel=9, note=35, velocity=1, time=48),
    Message('note_on', channel=9, note=35, velocity=127, time=0),
    Message('note_off', channel=9, note=35, velocity=1, time=48),
    Message('note_on', channel=9, note=35, velocity=127, time=0),
    Message('note_off', channel=9, note=35, velocity=1, time=96),
    Message('note_on', channel=9, note=35, velocity=127, time=0),
    Message('note_off', channel=9, note=35, velocity=1, time=192),
    Message('note_on', channel=9, note=35, velocity=127, time=0),
    Message('note_off', channel=9, note=35, velocity=1, time=96),
    Message('note_on', channel=9, note=35, velocity=127, time=0),
    Message('note_off', channel=9, note=35, velocity=1, time=96),
    Message('note_on', channel=9, note=35, velocity=127, time=0),
    Message('note_off', channel=9, note=35, velocity=1, time=192),
    Message('note_on', channel=9, note=35, velocity=127, time=0),
    Message('note_off', channel=9, note=35, velocity=1, time=96),
    Message('note_on', channel=9, note=35, velocity=127, time=0),
    Message('note_off', channel=9, note=35, velocity=1, time=96),
    Message('note_on', channel=9, note=35, velocity=127, time=0),
    Message('note_off', channel=9, note=35, velocity=1, time=192),
    Message('note_on', channel=9, note=35, velocity=127, time=0),
    Message('note_off', channel=9, note=35, velocity=1, time=96),
    Message('note_on', channel=9, note=35, velocity=127, time=0),
    Message('note_off', channel=9, note=35, velocity=1, time=96),
    Message('note_on', channel=9, note=35, velocity=127, time=0),
    Message('note_off', channel=9, note=35, velocity=1, time=192),
    Message('note_on', channel=9, note=35, velocity=127, time=0),
    Message('note_off', channel=9, note=35, velocity=1, time=48),
    Message('note_on', channel=9, note=35, velocity=127, time=0),
    Message('note_off', channel=9, note=35, velocity=1, time=48),
    Message('note_on', channel=9, note=35, velocity=127, time=0),
    Message('note_off', channel=9, note=35, velocity=1, time=96),
    Message('note_on', channel=9, note=35, velocity=127, time=0),
    Message('note_off', channel=9, note=35, velocity=1, time=192),
    Message('note_on', channel=9, note=35, velocity=127, time=0),
    Message('note_off', channel=9, note=35, velocity=1, time=96),
    Message('note_on', channel=9, note=35, velocity=127, time=0),
    Message('note_off', channel=9, note=35, velocity=1, time=96),
    Message('note_on', channel=9, note=35, velocity=127, time=0),
    Message('note_off', channel=9, note=35, velocity=1, time=192),
    Message('note_on', channel=9, note=35, velocity=127, time=0),
    Message('note_off', channel=9, note=35, velocity=1, time=96),
    Message('note_on', channel=9, note=35, velocity=127, time=0),
    Message('note_off', channel=9, note=35, velocity=1, time=96),
    Message('note_on', channel=9, note=35, velocity=127, time=0),
    Message('note_off', channel=9, note=35, velocity=1, time=192),
    Message('note_on', channel=9, note=35, velocity=127, time=0),
    Message('note_off', channel=9, note=35, velocity=1, time=96),
    Message('note_on', channel=9, note=35, velocity=127, time=0),
    Message('note_off', channel=9, note=35, velocity=1, time=96),
    Message('note_on', channel=9, note=35, velocity=127, time=0),
    Message('note_off', channel=9, note=35, velocity=1, time=192),
    Message('note_on', channel=9, note=35, velocity=127, time=0),
    Message('note_off', channel=9, note=35, velocity=1, time=48),
    Message('note_on', channel=9, note=35, velocity=127, time=0),
    Message('note_off', channel=9, note=35, velocity=1, time=48),
    Message('note_on', channel=9, note=35, velocity=127, time=0),
    Message('note_off', channel=9, note=35, velocity=1, time=96),
    Message('note_on', channel=9, note=35, velocity=127, time=0),
    Message('note_off', channel=9, note=35, velocity=1, time=192),
    Message('note_on', channel=9, note=35, velocity=127, time=0),
    Message('note_off', channel=9, note=35, velocity=1, time=96),
    Message('note_on', channel=9, note=35, velocity=127, time=0),
    Message('note_off', channel=9, note=35, velocity=1, time=96),
    Message('note_on', channel=9, note=35, velocity=127, time=0),
    Message('note_off', channel=9, note=35, velocity=1, time=192),
    Message('note_on', channel=9, note=35, velocity=127, time=0),
    Message('note_off', channel=9, note=35, velocity=1, time=192),
    Message('note_on', channel=9, note=35, velocity=127, time=0),
    Message('note_off', channel=9, note=35, velocity=1, time=48),
    Message('note_on', channel=9, note=35, velocity=127, time=0),
    Message('note_off', channel=9, note=35, velocity=1, time=192),
    Message('note_on', channel=9, note=35, velocity=127, time=48),
    Message('note_off', channel=9, note=35, velocity=1, time=48),
    Message('note_on', channel=9, note=35, velocity=127, time=0),
    Message('note_off', channel=9, note=35, velocity=1, time=192),
    Message('note_on', channel=9, note=35, velocity=127, time=48),
    Message('note_off', channel=9, note=35, velocity=1, time=96),
    Message('note_on', channel=9, note=35, velocity=127, time=0),
    Message('note_off', channel=9, note=35, velocity=1, time=192),
    Message('note_on', channel=9, note=35, velocity=127, time=96),
    Message('note_off', channel=9, note=35, velocity=1, time=96),
    Message('note_on', channel=9, note=35, velocity=127, time=0),
    Message('note_off', channel=9, note=35, velocity=1, time=192),
    Message('note_on', channel=9, note=35, velocity=127, time=96),
    Message('note_off', channel=9, note=35, velocity=1, time=48),
    Message('note_on', channel=9, note=35, velocity=127, time=0),
    Message('note_off', channel=9, note=35, velocity=1, time=192),
    Message('note_on', channel=9, note=35, velocity=127, time=48),
    Message('note_off', channel=9, note=35, velocity=1, time=192),
    Message('note_on', channel=9, note=35, velocity=127, time=96),
    Message('note_off', channel=9, note=35, velocity=1, time=48),
    Message('note_on', channel=9, note=35, velocity=127, time=0),
    Message('note_off', channel=9, note=35, velocity=1, time=48),
    Message('note_on', channel=9, note=35, velocity=127, time=0),
    Message('note_off', channel=9, note=35, velocity=1, time=192),
    Message('note_on', channel=9, note=35, velocity=127, time=0),
    Message('note_off', channel=9, note=35, velocity=1, time=96),
    Message('note_on', channel=9, note=35, velocity=127, time=0),
    Message('note_off', channel=9, note=35, velocity=1, time=192),
    Message('note_on', channel=9, note=35, velocity=127, time=0),
    Message('note_off', channel=9, note=35, velocity=1, time=96),
    Message('note_on', channel=9, note=35, velocity=127, time=0),
    Message('note_off', channel=9, note=35, velocity=1, time=96),
    Message('note_on', channel=9, note=35, velocity=127, time=0),
    Message('note_off', channel=9, note=35, velocity=1, time=192),
    Message('note_on', channel=9, note=35, velocity=127, time=0),
    Message('note_off', channel=9, note=35, velocity=1, time=48),
    Message('note_on', channel=9, note=35, velocity=127, time=0),
    Message('note_off', channel=9, note=35, velocity=1, time=144),
    Message('note_on', channel=9, note=35, velocity=127, time=0),
    Message('note_off', channel=9, note=35, velocity=1, time=48),
    Message('note_on', channel=9, note=35, velocity=127, time=0),
    Message('note_off', channel=9, note=35, velocity=1, time=144),
    Message('note_on', channel=9, note=35, velocity=127, time=0),
    Message('note_off', channel=9, note=35, velocity=1, time=48),
    Message('note_on', channel=9, note=35, velocity=127, time=0),
    Message('note_off', channel=9, note=35, velocity=1, time=144),
    Message('note_on', channel=9, note=35, velocity=127, time=0),
    Message('note_off', channel=9, note=35, velocity=1, time=48),
    Message('note_on', channel=9, note=35, velocity=127, time=0),
    Message('note_off', channel=9, note=35, velocity=1, time=192),
    Message('note_on', channel=9, note=35, velocity=127, time=144),
    Message('note_off', channel=9, note=35, velocity=1, time=48),
    Message('note_on', channel=9, note=35, velocity=127, time=0),
    Message('note_off', channel=9, note=35, velocity=1, time=192),
    Message('note_on', channel=9, note=35, velocity=127, time=48),
    Message('note_off', channel=9, note=35, velocity=1, time=48),
    Message('note_on', channel=9, note=35, velocity=127, time=0),
    Message('note_off', channel=9, note=35, velocity=1, time=192),
    Message('note_on', channel=9, note=35, velocity=127, time=48),
    Message('note_off', channel=9, note=35, velocity=1, time=96),
    Message('note_on', channel=9, note=35, velocity=127, time=0),
    Message('note_off', channel=9, note=35, velocity=1, time=192),
    Message('note_on', channel=9, note=35, velocity=127, time=96),
    Message('note_off', channel=9, note=35, velocity=1, time=96),
    Message('note_on', channel=9, note=35, velocity=127, time=0),
    Message('note_off', channel=9, note=35, velocity=1, time=96),
    Message('note_on', channel=9, note=35, velocity=127, time=0),
    Message('note_off', channel=9, note=35, velocity=1, time=192),
    Message('note_on', channel=9, note=35, velocity=127, time=0),
    Message('note_off', channel=9, note=35, velocity=1, time=192),
    Message('note_on', channel=9, note=35, velocity=127, time=384),
    Message('note_off', channel=9, note=35, velocity=1, time=48),
    Message('note_on', channel=9, note=35, velocity=127, time=0),
    Message('note_off', channel=9, note=35, velocity=1, time=192),
    Message('note_on', channel=9, note=35, velocity=127, time=48),
    Message('note_off', channel=9, note=35, velocity=1, time=96),
    Message('note_on', channel=9, note=35, velocity=127, time=0),
    Message('note_off', channel=9, note=35, velocity=1, time=192),
    Message('note_on', channel=9, note=35, velocity=127, time=0),
    Message('note_off', channel=9, note=35, velocity=1, time=96),
    Message('note_on', channel=9, note=35, velocity=127, time=0),
    Message('note_off', channel=9, note=35, velocity=1, time=96),
    Message('note_on', channel=9, note=35, velocity=127, time=0),
    Message('note_off', channel=9, note=35, velocity=1, time=192),
    Message('note_on', channel=9, note=35, velocity=127, time=0),
    Message('note_off', channel=9, note=35, velocity=1, time=96),
    Message('note_on', channel=9, note=35, velocity=127, time=0),
    Message('note_off', channel=9, note=35, velocity=1, time=96),
    Message('note_on', channel=9, note=35, velocity=127, time=0),
    Message('note_off', channel=9, note=35, velocity=1, time=192),
    Message('note_on', channel=9, note=35, velocity=127, time=0),
    Message('note_off', channel=9, note=35, velocity=1, time=96),
    Message('note_on', channel=9, note=35, velocity=127, time=0),
    Message('note_off', channel=9, note=35, velocity=1, time=96),
    Message('note_on', channel=9, note=35, velocity=127, time=0),
    Message('note_off', channel=9, note=35, velocity=1, time=192),
    Message('note_on', channel=9, note=35, velocity=127, time=0),
    Message('note_off', channel=9, note=35, velocity=1, time=48),
    Message('note_on', channel=9, note=35, velocity=127, time=0),
    Message('note_off', channel=9, note=35, velocity=1, time=48),
    Message('note_on', channel=9, note=35, velocity=127, time=0),
    Message('note_off', channel=9, note=35, velocity=1, time=96),
    Message('note_on', channel=9, note=35, velocity=127, time=0),
    Message('note_off', channel=9, note=35, velocity=1, time=192),
    Message('note_on', channel=9, note=35, velocity=127, time=0),
    Message('note_off', channel=9, note=35, velocity=1, time=96),
    Message('note_on', channel=9, note=35, velocity=127, time=0),
    Message('note_off', channel=9, note=35, velocity=1, time=96),
    Message('note_on', channel=9, note=35, velocity=127, time=0),
    Message('note_off', channel=9, note=35, velocity=1, time=192),
    Message('note_on', channel=9, note=35, velocity=127, time=0),
    Message('note_off', channel=9, note=35, velocity=1, time=96),
    Message('note_on', channel=9, note=35, velocity=127, time=0),
    Message('note_off', channel=9, note=35, velocity=1, time=96),
    Message('note_on', channel=9, note=35, velocity=127, time=0),
    Message('note_off', channel=9, note=35, velocity=1, time=192),
    Message('note_on', channel=9, note=35, velocity=127, time=0),
    Message('note_off', channel=9, note=35, velocity=1, time=96),
    Message('note_on', channel=9, note=35, velocity=127, time=0),
    Message('note_off', channel=9, note=35, velocity=1, time=96),
    Message('note_on', channel=9, note=35, velocity=127, time=0),
    Message('note_off', channel=9, note=35, velocity=1, time=192),
    Message('note_on', channel=9, note=35, velocity=127, time=0),
    Message('note_off', channel=9, note=35, velocity=1, time=48),
    Message('note_on', channel=9, note=35, velocity=127, time=0),
    Message('note_off', channel=9, note=35, velocity=1, time=48),
    Message('note_on', channel=9, note=35, velocity=127, time=0),
    Message('note_off', channel=9, note=35, velocity=1, time=96),
    Message('note_on', channel=9, note=35, velocity=127, time=0),
    Message('note_off', channel=9, note=35, velocity=1, time=192),
    Message('note_on', channel=9, note=35, velocity=127, time=0),
    Message('note_off', channel=9, note=35, velocity=1, time=96),
    Message('note_on', channel=9, note=35, velocity=127, time=0),
    Message('note_off', channel=9, note=35, velocity=1, time=96),
    Message('note_on', channel=9, note=35, velocity=127, time=0),
    Message('note_off', channel=9, note=35, velocity=1, time=192),
    Message('note_on', channel=9, note=35, velocity=127, time=0),
    Message('note_off', channel=9, note=35, velocity=1, time=96),
    Message('note_on', channel=9, note=35, velocity=127, time=0),
    Message('note_off', channel=9, note=35, velocity=1, time=96),
    Message('note_on', channel=9, note=35, velocity=127, time=0),
    Message('note_off', channel=9, note=35, velocity=1, time=192),
    Message('note_on', channel=9, note=35, velocity=127, time=0),
    Message('note_off', channel=9, note=35, velocity=1, time=96),
    Message('note_on', channel=9, note=35, velocity=127, time=0),
    Message('note_off', channel=9, note=35, velocity=1, time=96),
    Message('note_on', channel=9, note=35, velocity=127, time=0),
    Message('note_off', channel=9, note=35, velocity=1, time=192),
    Message('note_on', channel=9, note=35, velocity=127, time=0),
    Message('note_off', channel=9, note=35, velocity=1, time=48),
    Message('note_on', channel=9, note=35, velocity=127, time=0),
    Message('note_off', channel=9, note=35, velocity=1, time=48),
    Message('note_on', channel=9, note=35, velocity=127, time=0),
    Message('note_off', channel=9, note=35, velocity=1, time=96),
    Message('note_on', channel=9, note=35, velocity=127, time=0),
    Message('note_off', channel=9, note=35, velocity=1, time=192),
    Message('note_on', channel=9, note=35, velocity=127, time=0),
    Message('note_off', channel=9, note=35, velocity=1, time=96),
    Message('note_on', channel=9, note=35, velocity=127, time=0),
    Message('note_off', channel=9, note=35, velocity=1, time=96),
    Message('note_on', channel=9, note=35, velocity=127, time=0),
    Message('note_off', channel=9, note=35, velocity=1, time=192),
    Message('note_on', channel=9, note=35, velocity=127, time=0),
    Message('note_off', channel=9, note=35, velocity=1, time=96),
    Message('note_on', channel=9, note=35, velocity=127, time=0),
    Message('note_off', channel=9, note=35, velocity=1, time=96),
    Message('note_on', channel=9, note=35, velocity=127, time=0),
    Message('note_off', channel=9, note=35, velocity=1, time=192),
    Message('note_on', channel=9, note=35, velocity=127, time=0),
    Message('note_off', channel=9, note=35, velocity=1, time=96),
    Message('note_on', channel=9, note=35, velocity=127, time=0),
    Message('note_off', channel=9, note=35, velocity=1, time=96),
    Message('note_on', channel=9, note=35, velocity=127, time=0),
    Message('note_off', channel=9, note=35, velocity=1, time=192),
    Message('note_on', channel=9, note=35, velocity=127, time=0),
    Message('note_off', channel=9, note=35, velocity=1, time=48),
    Message('note_on', channel=9, note=35, velocity=127, time=0),
    Message('note_off', channel=9, note=35, velocity=1, time=48),
    Message('note_on', channel=9, note=35, velocity=127, time=0),
    Message('note_off', channel=9, note=35, velocity=1, time=96),
    Message('note_on', channel=9, note=35, velocity=127, time=0),
    Message('note_off', channel=9, note=35, velocity=1, time=192),
    Message('note_on', channel=9, note=35, velocity=127, time=0),
    Message('note_off', channel=9, note=35, velocity=1, time=96),
    Message('note_on', channel=9, note=35, velocity=127, time=0),
    Message('note_off', channel=9, note=35, velocity=1, time=96),
    Message('note_on', channel=9, note=35, velocity=127, time=0),
    Message('note_off', channel=9, note=35, velocity=1, time=192),
    Message('note_on', channel=9, note=35, velocity=127, time=0),
    Message('note_off', channel=9, note=35, velocity=1, time=96),
    Message('note_on', channel=9, note=35, velocity=127, time=0),
    Message('note_off', channel=9, note=35, velocity=1, time=96),
    Message('note_on', channel=9, note=35, velocity=127, time=0),
    Message('note_off', channel=9, note=35, velocity=1, time=192),
    Message('note_on', channel=9, note=35, velocity=127, time=0),
    Message('note_off', channel=9, note=35, velocity=1, time=96),
    Message('note_on', channel=9, note=35, velocity=127, time=0),
    Message('note_off', channel=9, note=35, velocity=1, time=96),
    Message('note_on', channel=9, note=35, velocity=127, time=0),
    Message('note_off', channel=9, note=35, velocity=1, time=192),
    Message('note_on', channel=9, note=35, velocity=127, time=0),
    Message('note_off', channel=9, note=35, velocity=1, time=48),
    Message('note_on', channel=9, note=35, velocity=127, time=0),
    Message('note_off', channel=9, note=35, velocity=1, time=48),
    Message('note_on', channel=9, note=35, velocity=127, time=0),
    Message('note_off', channel=9, note=35, velocity=1, time=96),
    Message('note_on', channel=9, note=35, velocity=127, time=0),
    Message('note_off', channel=9, note=35, velocity=1, time=192),
    Message('note_on', channel=9, note=35, velocity=127, time=0),
    Message('note_off', channel=9, note=35, velocity=1, time=96),
    Message('note_on', channel=9, note=35, velocity=127, time=0),
    Message('note_off', channel=9, note=35, velocity=1, time=96),
    Message('note_on', channel=9, note=35, velocity=127, time=0),
    Message('note_off', channel=9, note=35, velocity=1, time=192),
    Message('note_on', channel=9, note=35, velocity=127, time=0),
    Message('note_off', channel=9, note=35, velocity=1, time=96),
    Message('note_on', channel=9, note=35, velocity=127, time=0),
    Message('note_off', channel=9, note=35, velocity=1, time=96),
    Message('note_on', channel=9, note=35, velocity=127, time=0),
    Message('note_off', channel=9, note=35, velocity=1, time=192),
    Message('note_on', channel=9, note=35, velocity=127, time=0),
    Message('note_off', channel=9, note=35, velocity=1, time=96),
    Message('note_on', channel=9, note=35, velocity=127, time=0),
    Message('note_off', channel=9, note=35, velocity=1, time=96),
    Message('note_on', channel=9, note=35, velocity=127, time=0),
    Message('note_off', channel=9, note=35, velocity=1, time=192),
    Message('note_on', channel=9, note=35, velocity=127, time=0),
    Message('note_off', channel=9, note=35, velocity=1, time=48),
    Message('note_on', channel=9, note=35, velocity=127, time=0),
    Message('note_off', channel=9, note=35, velocity=1, time=144),
    Message('note_on', channel=9, note=35, velocity=127, time=0),
    Message('note_off', channel=9, note=35, velocity=1, time=96),
    Message('note_on', channel=9, note=35, velocity=127, time=0),
    Message('note_off', channel=9, note=35, velocity=1, time=192),
    Message('note_on', channel=9, note=35, velocity=127, time=0),
    Message('note_off', channel=9, note=35, velocity=1, time=96),
    Message('note_on', channel=9, note=35, velocity=127, time=0),
    Message('note_off', channel=9, note=35, velocity=1, time=192),
    Message('note_on', channel=9, note=35, velocity=127, time=288),
    Message('note_off', channel=9, note=35, velocity=1, time=192),
    Message('note_on', channel=9, note=35, velocity=127, time=96),
    Message('note_off', channel=9, note=35, velocity=1, time=48),
    Message('note_on', channel=9, note=35, velocity=127, time=0),
    Message('note_off', channel=9, note=35, velocity=1, time=48),
    Message('note_on', channel=9, note=35, velocity=127, time=0),
    Message('note_off', channel=9, note=35, velocity=1, time=192),
    Message('note_on', channel=9, note=35, velocity=127, time=0),
    Message('note_off', channel=9, note=35, velocity=1, time=96),
    Message('note_on', channel=9, note=35, velocity=127, time=0),
    Message('note_off', channel=9, note=35, velocity=1, time=192),
    Message('note_on', channel=9, note=35, velocity=127, time=0),
    Message('note_off', channel=9, note=35, velocity=1, time=96),
    Message('note_on', channel=9, note=35, velocity=127, time=0),
    Message('note_off', channel=9, note=35, velocity=1, time=96),
    Message('note_on', channel=9, note=35, velocity=127, time=0),
    Message('note_off', channel=9, note=35, velocity=1, time=192),
    Message('note_on', channel=9, note=35, velocity=127, time=0),
    Message('note_off', channel=9, note=35, velocity=1, time=96),
    Message('note_on', channel=9, note=35, velocity=127, time=0),
    Message('note_off', channel=9, note=35, velocity=1, time=96),
    Message('note_on', channel=9, note=35, velocity=127, time=0),
    Message('note_off', channel=9, note=35, velocity=1, time=192),
    Message('note_on', channel=9, note=35, velocity=127, time=0),
    Message('note_off', channel=9, note=35, velocity=1, time=96),
    Message('note_on', channel=9, note=35, velocity=127, time=0),
    Message('note_off', channel=9, note=35, velocity=1, time=96),
    Message('note_on', channel=9, note=35, velocity=127, time=0),
    Message('note_off', channel=9, note=35, velocity=1, time=192),
    Message('note_on', channel=9, note=35, velocity=127, time=0),
    Message('note_off', channel=9, note=35, velocity=1, time=48),
    Message('note_on', channel=9, note=35, velocity=127, time=0),
    Message('note_off', channel=9, note=35, velocity=1, time=48),
    Message('note_on', channel=9, note=35, velocity=127, time=0),
    Message('note_off', channel=9, note=35, velocity=1, time=96),
    Message('note_on', channel=9, note=35, velocity=127, time=0),
    Message('note_off', channel=9, note=35, velocity=1, time=192),
    Message('note_on', channel=9, note=35, velocity=127, time=0),
    Message('note_off', channel=9, note=35, velocity=1, time=96),
    Message('note_on', channel=9, note=35, velocity=127, time=0),
    Message('note_off', channel=9, note=35, velocity=1, time=96),
    Message('note_on', channel=9, note=35, velocity=127, time=0),
    Message('note_off', channel=9, note=35, velocity=1, time=192),
    Message('note_on', channel=9, note=35, velocity=127, time=0),
    Message('note_off', channel=9, note=35, velocity=1, time=192),
    Message('note_on', channel=9, note=35, velocity=127, time=0),
    Message('note_off', channel=9, note=35, velocity=1, time=96),
    Message('note_on', channel=9, note=35, velocity=127, time=0),
    Message('note_off', channel=9, note=35, velocity=1, time=192),
    Message('note_on', channel=9, note=35, velocity=127, time=0),
    Message('note_off', channel=9, note=35, velocity=1, time=96),
    Message('note_on', channel=9, note=35, velocity=127, time=0),
    Message('note_off', channel=9, note=35, velocity=1, time=192),
    Message('control_change', channel=9, control=7, value=113, time=96),
    Message('note_on', channel=9, note=35, velocity=127, time=0),
    Message('note_off', channel=9, note=35, velocity=1, time=192),
    Message('note_on', channel=9, note=35, velocity=127, time=96),
    Message('note_off', channel=9, note=35, velocity=1, time=96),
    Message('note_on', channel=9, note=35, velocity=127, time=0),
    Message('note_off', channel=9, note=35, velocity=1, time=192),
    Message('note_on', channel=9, note=35, velocity=127, time=96),
    Message('note_off', channel=9, note=35, velocity=1, time=48),
    Message('note_on', channel=9, note=35, velocity=127, time=0),
    Message('note_off', channel=9, note=35, velocity=1, time=48),
    Message('note_on', channel=9, note=35, velocity=127, time=0),
    Message('note_off', channel=9, note=35, velocity=1, time=96),
    Message('note_on', channel=9, note=35, velocity=127, time=0),
    Message('note_off', channel=9, note=35, velocity=1, time=192),
    Message('note_on', channel=9, note=35, velocity=127, time=0),
    Message('note_off', channel=9, note=35, velocity=1, time=96),
    Message('note_on', channel=9, note=35, velocity=127, time=0),
    Message('note_off', channel=9, note=35, velocity=1, time=96),
    Message('note_on', channel=9, note=35, velocity=127, time=0),
    Message('note_off', channel=9, note=35, velocity=1, time=192),
    Message('note_on', channel=9, note=35, velocity=127, time=0),
    Message('note_off', channel=9, note=35, velocity=1, time=96),
    Message('note_on', channel=9, note=35, velocity=127, time=0),
    Message('note_off', channel=9, note=35, velocity=1, time=192),
    Message('note_on', channel=9, note=35, velocity=127, time=96),
    Message('note_off', channel=9, note=35, velocity=1, time=192),
    Message('note_on', channel=9, note=35, velocity=127, time=0),
    Message('note_off', channel=9, note=35, velocity=1, time=192),
    Message('note_on', channel=9, note=35, velocity=127, time=0),
    Message('note_off', channel=9, note=35, velocity=1, time=192),
    Message('note_on', channel=9, note=35, velocity=127, time=0),
    Message('note_off', channel=9, note=35, velocity=1, time=96),
    Message('note_on', channel=9, note=35, velocity=127, time=0),
    Message('note_off', channel=9, note=35, velocity=1, time=192),
    Message('note_on', channel=9, note=35, velocity=127, time=0),
    Message('note_off', channel=9, note=35, velocity=1, time=96),
    Message('note_on', channel=9, note=35, velocity=127, time=0),
    Message('note_off', channel=9, note=35, velocity=1, time=192),
    Message('control_change', channel=9, control=7, value=123, time=96),
    Message('note_on', channel=9, note=35, velocity=127, time=0),
    Message('note_off', channel=9, note=35, velocity=1, time=192),
    Message('note_on', channel=9, note=35, velocity=127, time=96),
    Message('note_off', channel=9, note=35, velocity=1, time=96),
    Message('note_on', channel=9, note=35, velocity=127, time=0),
    Message('note_off', channel=9, note=35, velocity=1, time=192),
    Message('note_on', channel=9, note=35, velocity=127, time=96),
    Message('note_off', channel=9, note=35, velocity=1, time=48),
    Message('note_on', channel=9, note=35, velocity=127, time=0),
    Message('note_off', channel=9, note=35, velocity=1, time=48),
    Message('note_on', channel=9, note=35, velocity=127, time=0),
    Message('note_off', channel=9, note=35, velocity=1, time=96),
    Message('note_on', channel=9, note=35, velocity=127, time=0),
    Message('note_off', channel=9, note=35, velocity=1, time=192),
    Message('note_on', channel=9, note=35, velocity=127, time=0),
    Message('note_off', channel=9, note=35, velocity=1, time=96),
    Message('note_on', channel=9, note=35, velocity=127, time=0),
    Message('note_off', channel=9, note=35, velocity=1, time=96),
    Message('note_on', channel=9, note=35, velocity=127, time=0),
    Message('note_off', channel=9, note=35, velocity=1, time=192),
    Message('note_on', channel=9, note=35, velocity=127, time=0),
    Message('note_off', channel=9, note=35, velocity=1, time=96),
    Message('note_on', channel=9, note=35, velocity=127, time=0),
    Message('note_off', channel=9, note=35, velocity=1, time=96),
    Message('note_on', channel=9, note=35, velocity=127, time=0),
    Message('note_off', channel=9, note=35, velocity=1, time=192),
    Message('note_on', channel=9, note=35, velocity=127, time=0),
    Message('note_off', channel=9, note=35, velocity=1, time=96),
    Message('note_on', channel=9, note=35, velocity=127, time=0),
    Message('note_off', channel=9, note=35, velocity=1, time=96),
    Message('note_on', channel=9, note=35, velocity=127, time=0),
    Message('note_off', channel=9, note=35, velocity=1, time=192),
    Message('note_on', channel=9, note=35, velocity=127, time=0),
    Message('note_off', channel=9, note=35, velocity=1, time=96),
    Message('note_on', channel=9, note=35, velocity=127, time=0),
    Message('note_off', channel=9, note=35, velocity=1, time=96),
    Message('note_on', channel=9, note=35, velocity=127, time=0),
    Message('note_off', channel=9, note=35, velocity=1, time=192),
    Message('note_on', channel=9, note=35, velocity=127, time=0),
    Message('note_off', channel=9, note=35, velocity=1, time=96),
    Message('note_on', channel=9, note=35, velocity=127, time=0),
    Message('note_off', channel=9, note=35, velocity=1, time=96),
    Message('note_on', channel=9, note=35, velocity=127, time=0),
    Message('note_off', channel=9, note=35, velocity=1, time=192),
    Message('note_on', channel=9, note=35, velocity=127, time=0),
    Message('note_off', channel=9, note=35, velocity=1, time=192),
    Message('note_on', channel=9, note=35, velocity=127, time=0),
    Message('note_off', channel=9, note=35, velocity=1, time=48),
    Message('note_on', channel=9, note=35, velocity=127, time=0),
    Message('note_off', channel=9, note=35, velocity=1, time=192),
    Message('note_on', channel=9, note=35, velocity=127, time=48),
    Message('note_off', channel=9, note=35, velocity=1, time=48),
    Message('note_on', channel=9, note=35, velocity=127, time=0),
    Message('note_off', channel=9, note=35, velocity=1, time=192),
    Message('note_on', channel=9, note=35, velocity=127, time=48),
    Message('note_off', channel=9, note=35, velocity=1, time=192),
    Message('note_on', channel=9, note=35, velocity=127, time=0),
    Message('note_off', channel=9, note=35, velocity=1, time=96),
    Message('note_on', channel=9, note=35, velocity=127, time=0),
    Message('note_off', channel=9, note=35, velocity=1, time=192),
    Message('note_on', channel=9, note=35, velocity=127, time=0),
    Message('note_off', channel=9, note=35, velocity=1, time=96),
    Message('note_on', channel=9, note=35, velocity=127, time=0),
    Message('note_off', channel=9, note=35, velocity=1, time=192),
    Message('note_on', channel=9, note=35, velocity=127, time=192),
    Message('note_off', channel=9, note=35, velocity=1, time=48),
    Message('note_on', channel=9, note=35, velocity=127, time=0),
    Message('note_off', channel=9, note=35, velocity=1, time=192),
    Message('note_on', channel=9, note=35, velocity=127, time=48),
    Message('note_off', channel=9, note=35, velocity=1, time=48),
    Message('note_on', channel=9, note=35, velocity=127, time=0),
    Message('note_off', channel=9, note=35, velocity=1, time=192),
    Message('note_on', channel=9, note=35, velocity=127, time=48),
    Message('note_off', channel=9, note=35, velocity=1, time=96),
    Message('note_on', channel=9, note=35, velocity=127, time=0),
    Message('note_off', channel=9, note=35, velocity=1, time=96),
    Message('note_on', channel=9, note=35, velocity=127, time=0),
    Message('note_off', channel=9, note=35, velocity=1, time=192),
    Message('note_on', channel=9, note=35, velocity=127, time=0),
    Message('note_off', channel=9, note=35, velocity=1, time=96),
    Message('note_on', channel=9, note=35, velocity=127, time=0),
    Message('note_off', channel=9, note=35, velocity=1, time=96),
    Message('note_on', channel=9, note=35, velocity=127, time=0),
    Message('note_off', channel=9, note=35, velocity=1, time=192),
    Message('note_on', channel=9, note=35, velocity=127, time=0),
    Message('note_off', channel=9, note=35, velocity=1, time=48),
    Message('note_on', channel=9, note=35, velocity=127, time=0),
    Message('note_off', channel=9, note=35, velocity=1, time=144),
    Message('note_on', channel=9, note=35, velocity=127, time=0),
    Message('note_off', channel=9, note=35, velocity=1, time=96),
    Message('note_on', channel=9, note=35, velocity=127, time=0),
    Message('note_off', channel=9, note=35, velocity=1, time=192),
    Message('note_on', channel=9, note=35, velocity=127, time=0),
    Message('note_off', channel=9, note=35, velocity=1, time=96),
    Message('note_on', channel=9, note=35, velocity=127, time=0),
    Message('note_off', channel=9, note=35, velocity=1, time=192),
    Message('note_on', channel=9, note=35, velocity=127, time=96),
    Message('note_off', channel=9, note=35, velocity=1, time=192),
    Message('note_on', channel=9, note=35, velocity=127, time=96),
    Message('note_off', channel=9, note=35, velocity=1, time=96),
    Message('note_on', channel=9, note=35, velocity=127, time=0),
    Message('note_off', channel=9, note=35, velocity=1, time=192),
    Message('note_on', channel=9, note=35, velocity=127, time=96),
    Message('note_off', channel=9, note=35, velocity=1, time=48),
    Message('note_on', channel=9, note=35, velocity=127, time=0),
    Message('note_off', channel=9, note=35, velocity=1, time=144),
    Message('note_on', channel=9, note=35, velocity=127, time=0),
    Message('note_off', channel=9, note=35, velocity=1, time=96),
    Message('note_on', channel=9, note=35, velocity=127, time=0),
    Message('note_off', channel=9, note=35, velocity=1, time=192),
    Message('note_on', channel=9, note=35, velocity=127, time=0),
    Message('note_off', channel=9, note=35, velocity=1, time=96),
    Message('note_on', channel=9, note=35, velocity=127, time=0),
    Message('note_off', channel=9, note=35, velocity=1, time=192),
    Message('note_on', channel=9, note=35, velocity=127, time=96),
    Message('note_off', channel=9, note=35, velocity=1, time=192),
    Message('note_on', channel=9, note=35, velocity=127, time=96),
    Message('note_off', channel=9, note=35, velocity=1, time=96),
    Message('note_on', channel=9, note=35, velocity=127, time=0),
    Message('note_off', channel=9, note=35, velocity=1, time=192),
    Message('note_on', channel=9, note=35, velocity=127, time=96),
    Message('note_off', channel=9, note=35, velocity=1, time=48),
    Message('note_on', channel=9, note=35, velocity=127, time=0),
    Message('note_off', channel=9, note=35, velocity=1, time=48),
    Message('note_on', channel=9, note=35, velocity=127, time=0),
    Message('note_off', channel=9, note=35, velocity=1, time=96),
    Message('note_on', channel=9, note=35, velocity=127, time=0),
    Message('note_off', channel=9, note=35, velocity=1, time=192),
    Message('note_on', channel=9, note=35, velocity=127, time=0),
    Message('note_off', channel=9, note=35, velocity=1, time=96),
    Message('note_on', channel=9, note=35, velocity=127, time=0),
    Message('note_off', channel=9, note=35, velocity=1, time=96),
    Message('note_on', channel=9, note=35, velocity=127, time=0),
    Message('note_off', channel=9, note=35, velocity=1, time=192),
    Message('note_on', channel=9, note=35, velocity=127, time=0),
    Message('note_off', channel=9, note=35, velocity=1, time=96),
    Message('note_on', channel=9, note=35, velocity=127, time=0),
    Message('note_off', channel=9, note=35, velocity=1, time=96),
    Message('note_on', channel=9, note=35, velocity=127, time=0),
    Message('note_off', channel=9, note=35, velocity=1, time=192),
    Message('note_on', channel=9, note=35, velocity=127, time=0),
    Message('note_off', channel=9, note=35, velocity=1, time=96),
    Message('note_on', channel=9, note=35, velocity=127, time=0),
    Message('note_off', channel=9, note=35, velocity=1, time=96),
    Message('note_on', channel=9, note=35, velocity=127, time=0),
    Message('note_off', channel=9, note=35, velocity=1, time=192),
    Message('note_on', channel=9, note=35, velocity=127, time=0),
    Message('note_off', channel=9, note=35, velocity=1, time=96),
    Message('note_on', channel=9, note=35, velocity=127, time=0),
    Message('note_off', channel=9, note=35, velocity=1, time=96),
    Message('note_on', channel=9, note=35, velocity=127, time=0),
    Message('note_off', channel=9, note=35, velocity=1, time=192),
    Message('note_on', channel=9, note=35, velocity=127, time=0),
    Message('note_off', channel=9, note=35, velocity=1, time=96),
    Message('note_on', channel=9, note=35, velocity=127, time=0),
    Message('note_off', channel=9, note=35, velocity=1, time=96),
    Message('note_on', channel=9, note=35, velocity=127, time=0),
    Message('note_off', channel=9, note=35, velocity=1, time=192),
    Message('note_on', channel=9, note=35, velocity=127, time=0),
    Message('note_off', channel=9, note=35, velocity=1, time=192),
    Message('note_on', channel=9, note=35, velocity=127, time=0),
    Message('note_off', channel=9, note=35, velocity=1, time=96),
    Message('note_on', channel=9, note=35, velocity=127, time=0),
    Message('note_off', channel=9, note=35, velocity=1, time=192),
    Message('note_on', channel=9, note=35, velocity=127, time=0),
    Message('note_off', channel=9, note=35, velocity=1, time=96),
    Message('note_on', channel=9, note=35, velocity=127, time=0),
    Message('note_off', channel=9, note=35, velocity=1, time=192),
    Message('note_on', channel=9, note=35, velocity=127, time=96),
    Message('note_off', channel=9, note=35, velocity=1, time=96),
    Message('note_on', channel=9, note=35, velocity=127, time=0),
    Message('note_off', channel=9, note=35, velocity=1, time=192),
    Message('note_on', channel=9, note=35, velocity=127, time=0),
    Message('note_off', channel=9, note=35, velocity=1, time=96),
    Message('note_on', channel=9, note=35, velocity=127, time=0),
    Message('note_off', channel=9, note=35, velocity=1, time=96),
    Message('note_on', channel=9, note=35, velocity=127, time=0),
    Message('note_off', channel=9, note=35, velocity=1, time=192),
    Message('note_on', channel=9, note=35, velocity=127, time=0),
    Message('note_off', channel=9, note=35, velocity=1, time=96),
    Message('note_on', channel=9, note=35, velocity=127, time=0),
    Message('note_off', channel=9, note=35, velocity=1, time=96),
    Message('note_on', channel=9, note=35, velocity=127, time=0),
    Message('note_off', channel=9, note=35, velocity=1, time=192),
    Message('note_on', channel=9, note=35, velocity=127, time=0),
    Message('note_off', channel=9, note=35, velocity=1, time=96),
    Message('note_on', channel=9, note=35, velocity=127, time=0),
    Message('note_off', channel=9, note=35, velocity=1, time=96),
    Message('note_on', channel=9, note=35, velocity=127, time=0),
    Message('note_off', channel=9, note=35, velocity=1, time=192),
    Message('note_on', channel=9, note=35, velocity=127, time=0),
    Message('note_off', channel=9, note=35, velocity=1, time=96),
    Message('note_on', channel=9, note=35, velocity=127, time=0),
    Message('note_off', channel=9, note=35, velocity=1, time=96),
    Message('note_on', channel=9, note=35, velocity=127, time=0),
    Message('note_off', channel=9, note=35, velocity=1, time=192),
    Message('note_on', channel=9, note=35, velocity=127, time=0),
    Message('note_off', channel=9, note=35, velocity=1, time=96),
    Message('note_on', channel=9, note=35, velocity=127, time=0),
    Message('note_off', channel=9, note=35, velocity=1, time=96),
    Message('note_on', channel=9, note=35, velocity=127, time=0),
    Message('note_off', channel=9, note=35, velocity=1, time=192),
    Message('note_on', channel=9, note=35, velocity=127, time=0),
    Message('note_off', channel=9, note=35, velocity=1, time=192),
    Message('note_on', channel=9, note=35, velocity=127, time=0),
    Message('note_off', channel=9, note=35, velocity=1, time=96),
    Message('note_on', channel=9, note=35, velocity=127, time=0),
    Message('note_off', channel=9, note=35, velocity=1, time=192),
    Message('note_on', channel=9, note=35, velocity=127, time=0),
    Message('note_off', channel=9, note=35, velocity=1, time=96),
    Message('note_on', channel=9, note=35, velocity=127, time=0),
    Message('note_off', channel=9, note=35, velocity=1, time=192),
    Message('note_on', channel=9, note=35, velocity=127, time=192),
    Message('note_off', channel=9, note=35, velocity=1, time=96),
    Message('note_on', channel=9, note=35, velocity=127, time=0),
    Message('note_off', channel=9, note=35, velocity=1, time=192),
    Message('note_on', channel=9, note=35, velocity=127, time=0),
    Message('note_off', channel=9, note=35, velocity=1, time=96),
    Message('note_on', channel=9, note=35, velocity=127, time=0),
    Message('note_off', channel=9, note=35, velocity=1, time=192),
    Message('note_on', channel=9, note=35, velocity=127, time=96),
    Message('note_off', channel=9, note=35, velocity=1, time=192),
    Message('note_on', channel=9, note=35, velocity=127, time=96),
    Message('note_off', channel=9, note=35, velocity=1, time=96),
    Message('note_on', channel=9, note=35, velocity=127, time=0),
    Message('note_off', channel=9, note=35, velocity=1, time=192),
    Message('note_on', channel=9, note=35, velocity=127, time=96),
    Message('note_off', channel=9, note=35, velocity=1, time=48),
    Message('note_on', channel=9, note=35, velocity=127, time=0),
    Message('note_off', channel=9, note=35, velocity=1, time=144),
    Message('note_on', channel=9, note=35, velocity=127, time=0),
    Message('note_off', channel=9, note=35, velocity=1, time=96),
    Message('note_on', channel=9, note=35, velocity=127, time=0),
    Message('note_off', channel=9, note=35, velocity=1, time=192),
    Message('note_on', channel=9, note=35, velocity=127, time=0),
    Message('note_off', channel=9, note=35, velocity=1, time=96),
    Message('note_on', channel=9, note=35, velocity=127, time=0),
    Message('note_off', channel=9, note=35, velocity=1, time=192),
    Message('note_on', channel=9, note=35, velocity=127, time=96),
    Message('note_off', channel=9, note=35, velocity=1, time=192),
    Message('note_on', channel=9, note=35, velocity=127, time=96),
    Message('note_off', channel=9, note=35, velocity=1, time=96),
    Message('note_on', channel=9, note=35, velocity=127, time=0),
    Message('note_off', channel=9, note=35, velocity=1, time=192),
    Message('note_on', channel=9, note=35, velocity=127, time=96),
    Message('note_off', channel=9, note=35, velocity=1, time=48),
    Message('note_on', channel=9, note=35, velocity=127, time=0),
    Message('note_off', channel=9, note=35, velocity=1, time=144),
    Message('note_on', channel=9, note=35, velocity=127, time=0),
    Message('note_off', channel=9, note=35, velocity=1, time=48),
    Message('note_on', channel=9, note=35, velocity=127, time=0),
    Message('note_off', channel=9, note=35, velocity=1, time=192),
    Message('note_on', channel=9, note=35, velocity=127, time=48),
    Message('note_off', channel=9, note=35, velocity=1, time=48),
    Message('note_on', channel=9, note=35, velocity=127, time=0),
    Message('note_off', channel=9, note=35, velocity=1, time=192),
    Message('note_on', channel=9, note=35, velocity=127, time=48),
    Message('note_off', channel=9, note=35, velocity=1, time=192),
    Message('note_on', channel=9, note=35, velocity=127, time=0),
    Message('note_off', channel=9, note=35, velocity=1, time=96),
    Message('note_on', channel=9, note=35, velocity=127, time=0),
    Message('note_off', channel=9, note=35, velocity=1, time=192),
    Message('note_on', channel=9, note=35, velocity=127, time=0),
    Message('note_off', channel=9, note=35, velocity=1, time=96),
    Message('note_on', channel=9, note=35, velocity=127, time=0),
    Message('note_off', channel=9, note=35, velocity=1, time=192),
    Message('note_on', channel=9, note=35, velocity=127, time=96),
    Message('note_off', channel=9, note=35, velocity=1, time=192),
    Message('note_on', channel=9, note=35, velocity=127, time=96),
    Message('note_off', channel=9, note=35, velocity=1, time=96),
    Message('note_on', channel=9, note=35, velocity=127, time=0),
    Message('note_off', channel=9, note=35, velocity=1, time=192),
    Message('note_on', channel=9, note=35, velocity=127, time=96),
    Message('note_off', channel=9, note=35, velocity=1, time=48),
    Message('note_on', channel=9, note=35, velocity=127, time=0),
    Message('note_off', channel=9, note=35, velocity=1, time=144),
    Message('note_on', channel=9, note=35, velocity=127, time=0),
    Message('note_off', channel=9, note=35, velocity=1, time=96),
    Message('note_on', channel=9, note=35, velocity=127, time=0),
    Message('note_off', channel=9, note=35, velocity=1, time=192),
    Message('note_on', channel=9, note=35, velocity=127, time=0),
    Message('note_off', channel=9, note=35, velocity=1, time=96),
    Message('note_on', channel=9, note=35, velocity=127, time=0),
    Message('note_off', channel=9, note=35, velocity=1, time=192),
    Message('note_on', channel=9, note=35, velocity=127, time=96),
    Message('note_off', channel=9, note=35, velocity=1, time=192),
    Message('note_on', channel=9, note=35, velocity=127, time=96),
    Message('note_off', channel=9, note=35, velocity=1, time=96),
    Message('note_on', channel=9, note=35, velocity=127, time=0),
    Message('note_off', channel=9, note=35, velocity=1, time=192),
    Message('note_on', channel=9, note=35, velocity=127, time=96),
    Message('note_off', channel=9, note=35, velocity=1, time=48),
    Message('note_on', channel=9, note=35, velocity=127, time=0),
    Message('note_off', channel=9, note=35, velocity=1, time=144),
    Message('note_on', channel=9, note=35, velocity=127, time=0),
    Message('note_off', channel=9, note=35, velocity=1, time=96),
    Message('note_on', channel=9, note=35, velocity=127, time=0),
    Message('note_off', channel=9, note=35, velocity=1, time=192),
    Message('note_on', channel=9, note=35, velocity=127, time=0),
    Message('note_off', channel=9, note=35, velocity=1, time=96),
    Message('note_on', channel=9, note=35, velocity=127, time=0),
    Message('note_off', channel=9, note=35, velocity=1, time=192),
    Message('control_change', channel=9, control=7, value=120, time=96),
    Message('note_on', channel=9, note=35, velocity=127, time=0),
    Message('note_off', channel=9, note=35, velocity=1, time=192),
    Message('note_on', channel=9, note=35, velocity=127, time=96),
    Message('note_off', channel=9, note=35, velocity=1, time=96),
    Message('note_on', channel=9, note=35, velocity=127, time=0),
    Message('note_off', channel=9, note=35, velocity=1, time=192),
    Message('note_on', channel=9, note=35, velocity=127, time=96),
    Message('note_off', channel=9, note=35, velocity=1, time=48),
    Message('note_on', channel=9, note=35, velocity=127, time=0),
    Message('note_off', channel=9, note=35, velocity=1, time=144),
    Message('note_on', channel=9, note=35, velocity=127, time=0),
    Message('note_off', channel=9, note=35, velocity=1, time=96),
    Message('note_on', channel=9, note=35, velocity=127, time=0),
    Message('note_off', channel=9, note=35, velocity=1, time=192),
    Message('note_on', channel=9, note=35, velocity=127, time=0),
    Message('note_off', channel=9, note=35, velocity=1, time=96),
    Message('note_on', channel=9, note=35, velocity=127, time=0),
    Message('note_off', channel=9, note=35, velocity=1, time=192),
    Message('note_on', channel=9, note=35, velocity=127, time=96),
    Message('note_off', channel=9, note=35, velocity=1, time=192),
    Message('note_on', channel=9, note=35, velocity=127, time=96),
    Message('note_off', channel=9, note=35, velocity=1, time=96),
    Message('note_on', channel=9, note=35, velocity=127, time=0),
    Message('note_off', channel=9, note=35, velocity=1, time=192),
    Message('note_on', channel=9, note=35, velocity=127, time=96),
    Message('note_off', channel=9, note=35, velocity=1, time=48),
    Message('note_on', channel=9, note=35, velocity=127, time=0),
    Message('note_off', channel=9, note=35, velocity=1, time=192),
    Message('note_on', channel=9, note=35, velocity=127, time=48),
    Message('note_off', channel=9, note=35, velocity=1, time=192),
    Message('note_on', channel=9, note=35, velocity=127, time=96),
    Message('note_off', channel=9, note=35, velocity=1, time=48),
    Message('note_on', channel=9, note=35, velocity=127, time=0),
    Message('note_off', channel=9, note=35, velocity=1, time=48),
    Message('note_on', channel=9, note=35, velocity=127, time=0),
    Message('note_off', channel=9, note=35, velocity=1, time=192),
    Message('note_on', channel=9, note=35, velocity=127, time=0),
    Message('note_off', channel=9, note=35, velocity=1, time=96),
    Message('note_on', channel=9, note=35, velocity=127, time=0),
    Message('note_off', channel=9, note=35, velocity=1, time=192),
    Message('note_on', channel=9, note=35, velocity=127, time=0),
    Message('note_off', channel=9, note=35, velocity=1, time=96),
    Message('note_on', channel=9, note=35, velocity=127, time=0),
    Message('note_off', channel=9, note=35, velocity=1, time=96),
    Message('note_on', channel=9, note=35, velocity=127, time=0),
    Message('note_off', channel=9, note=35, velocity=1, time=192),
    Message('note_on', channel=9, note=35, velocity=127, time=0),
    Message('note_off', channel=9, note=35, velocity=1, time=96),
    Message('note_on', channel=9, note=35, velocity=127, time=0),
    Message('note_off', channel=9, note=35, velocity=1, time=96),
    Message('note_on', channel=9, note=35, velocity=127, time=0),
    Message('note_off', channel=9, note=35, velocity=1, time=192),
    Message('note_on', channel=9, note=35, velocity=127, time=0),
    Message('note_off', channel=9, note=35, velocity=1, time=96),
    Message('note_on', channel=9, note=35, velocity=127, time=0),
    Message('note_off', channel=9, note=35, velocity=1, time=96),
    Message('note_on', channel=9, note=35, velocity=127, time=0),
    Message('note_off', channel=9, note=35, velocity=1, time=192),
    Message('note_on', channel=9, note=35, velocity=127, time=0),
    Message('note_off', channel=9, note=35, velocity=1, time=48),
    Message('note_on', channel=9, note=35, velocity=127, time=0),
    Message('note_off', channel=9, note=35, velocity=1, time=144),
    Message('note_on', channel=9, note=35, velocity=127, time=0),
    Message('note_off', channel=9, note=35, velocity=1, time=96),
    Message('note_on', channel=9, note=35, velocity=127, time=0),
    Message('note_off', channel=9, note=35, velocity=1, time=192),
    Message('note_on', channel=9, note=35, velocity=127, time=0),
    Message('note_off', channel=9, note=35, velocity=1, time=96),
    Message('note_on', channel=9, note=35, velocity=127, time=0),
    Message('note_off', channel=9, note=35, velocity=1, time=192),
    Message('note_on', channel=9, note=35, velocity=127, time=96),
    Message('note_off', channel=9, note=35, velocity=1, time=192),
    Message('note_on', channel=9, note=35, velocity=127, time=96),
    Message('note_off', channel=9, note=35, velocity=1, time=96),
    Message('note_on', channel=9, note=35, velocity=127, time=0),
    Message('note_off', channel=9, note=35, velocity=1, time=192),
    Message('note_on', channel=9, note=35, velocity=127, time=96),
    Message('note_off', channel=9, note=35, velocity=1, time=48),
    Message('note_on', channel=9, note=35, velocity=127, time=0),
    Message('note_off', channel=9, note=35, velocity=1, time=144),
    Message('note_on', channel=9, note=35, velocity=127, time=0),
    Message('note_off', channel=9, note=35, velocity=1, time=48),
    Message('note_on', channel=9, note=35, velocity=127, time=0),
    Message('note_off', channel=9, note=35, velocity=1, time=192),
    Message('note_on', channel=9, note=35, velocity=127, time=48),
    Message('note_off', channel=9, note=35, velocity=1, time=48),
    Message('note_on', channel=9, note=35, velocity=127, time=0),
    Message('note_off', channel=9, note=35, velocity=1, time=192),
    Message('note_on', channel=9, note=35, velocity=127, time=48),
    Message('note_off', channel=9, note=35, velocity=1, time=192),
    Message('note_on', channel=9, note=35, velocity=127, time=0),
    Message('note_off', channel=9, note=35, velocity=1, time=48),
    Message('note_on', channel=9, note=35, velocity=127, time=0),
    Message('note_off', channel=9, note=35, velocity=1, time=192),
    Message('note_on', channel=9, note=35, velocity=127, time=48),
    Message('note_off', channel=9, note=35, velocity=1, time=48),
    Message('note_on', channel=9, note=35, velocity=127, time=0),
    Message('note_off', channel=9, note=35, velocity=1, time=192),
    Message('note_on', channel=9, note=35, velocity=127, time=48),
    Message('note_off', channel=9, note=35, velocity=1, time=192),
    Message('note_on', channel=9, note=35, velocity=127, time=96),
    Message('note_off', channel=9, note=35, velocity=1, time=192),
    Message('note_on', channel=9, note=35, velocity=127, time=96),
    Message('note_off', channel=9, note=35, velocity=1, time=48),
    Message('note_on', channel=9, note=35, velocity=127, time=0),
    Message('note_off', channel=9, note=35, velocity=1, time=48),
    Message('note_on', channel=9, note=35, velocity=127, time=0),
    Message('note_off', channel=9, note=35, velocity=1, time=192),
    Message('note_on', channel=9, note=35, velocity=127, time=0),
    Message('note_off', channel=9, note=35, velocity=1, time=96),
    Message('note_on', channel=9, note=35, velocity=127, time=0),
    Message('note_off', channel=9, note=35, velocity=1, time=192),
    Message('note_on', channel=9, note=35, velocity=127, time=0),
    Message('note_off', channel=9, note=35, velocity=1, time=96),
    Message('note_on', channel=9, note=35, velocity=127, time=0),
    Message('note_off', channel=9, note=35, velocity=1, time=96),
    Message('note_on', channel=9, note=35, velocity=127, time=0),
    Message('note_off', channel=9, note=35, velocity=1, time=192),
    Message('note_on', channel=9, note=35, velocity=127, time=0),
    Message('note_off', channel=9, note=35, velocity=1, time=96),
    Message('note_on', channel=9, note=35, velocity=127, time=0),
    Message('note_off', channel=9, note=35, velocity=1, time=96),
    Message('note_on', channel=9, note=35, velocity=127, time=0),
    Message('note_off', channel=9, note=35, velocity=1, time=192),
    Message('note_on', channel=9, note=35, velocity=127, time=0),
    Message('note_off', channel=9, note=35, velocity=1, time=96),
    Message('note_on', channel=9, note=35, velocity=127, time=0),
    Message('note_off', channel=9, note=35, velocity=1, time=96),
    Message('note_on', channel=9, note=35, velocity=127, time=0),
    Message('note_off', channel=9, note=35, velocity=1, time=192),
    Message('note_on', channel=9, note=35, velocity=127, time=0),
    Message('note_off', channel=9, note=35, velocity=1, time=48),
    Message('note_on', channel=9, note=35, velocity=127, time=0),
    Message('note_off', channel=9, note=35, velocity=1, time=48),
    Message('note_on', channel=9, note=35, velocity=127, time=0),
    Message('note_off', channel=9, note=35, velocity=1, time=96),
    Message('note_on', channel=9, note=35, velocity=127, time=0),
    Message('note_off', channel=9, note=35, velocity=1, time=192),
    Message('note_on', channel=9, note=35, velocity=127, time=0),
    Message('note_off', channel=9, note=35, velocity=1, time=96),
    Message('note_on', channel=9, note=35, velocity=127, time=0),
    Message('note_off', channel=9, note=35, velocity=1, time=96),
    Message('note_on', channel=9, note=35, velocity=127, time=0),
    Message('note_off', channel=9, note=35, velocity=1, time=192),
    Message('note_on', channel=9, note=35, velocity=127, time=0),
    Message('note_off', channel=9, note=35, velocity=1, time=96),
    Message('note_on', channel=9, note=35, velocity=127, time=0),
    Message('note_off', channel=9, note=35, velocity=1, time=96),
    Message('note_on', channel=9, note=35, velocity=127, time=0),
    Message('note_off', channel=9, note=35, velocity=1, time=192),
    Message('note_on', channel=9, note=35, velocity=127, time=0),
    Message('note_off', channel=9, note=35, velocity=1, time=96),
    Message('note_on', channel=9, note=35, velocity=127, time=0),
    Message('note_off', channel=9, note=35, velocity=1, time=96),
    Message('note_on', channel=9, note=35, velocity=127, time=0),
    Message('note_off', channel=9, note=35, velocity=1, time=192),
    Message('note_on', channel=9, note=35, velocity=127, time=0),
    Message('note_off', channel=9, note=35, velocity=1, time=48),
    Message('note_on', channel=9, note=35, velocity=127, time=0),
    Message('note_off', channel=9, note=35, velocity=1, time=48),
    Message('note_on', channel=9, note=35, velocity=127, time=0),
    Message('note_off', channel=9, note=35, velocity=1, time=96),
    Message('note_on', channel=9, note=35, velocity=127, time=0),
    Message('note_off', channel=9, note=35, velocity=1, time=192),
    Message('note_on', channel=9, note=35, velocity=127, time=0),
    Message('note_off', channel=9, note=35, velocity=1, time=96),
    Message('note_on', channel=9, note=35, velocity=127, time=0),
    Message('note_off', channel=9, note=35, velocity=1, time=96),
    Message('note_on', channel=9, note=35, velocity=127, time=0),
    Message('note_off', channel=9, note=35, velocity=1, time=192),
    Message('note_on', channel=9, note=35, velocity=127, time=0),
    Message('note_off', channel=9, note=35, velocity=1, time=96),
    Message('note_on', channel=9, note=35, velocity=127, time=0),
    Message('note_off', channel=9, note=35, velocity=1, time=96),
    Message('note_on', channel=9, note=35, velocity=127, time=0),
    Message('note_off', channel=9, note=35, velocity=1, time=192),
    Message('note_on', channel=9, note=35, velocity=127, time=0),
    Message('note_off', channel=9, note=35, velocity=1, time=96),
    Message('note_on', channel=9, note=35, velocity=127, time=0),
    Message('note_off', channel=9, note=35, velocity=1, time=96),
    Message('note_on', channel=9, note=35, velocity=127, time=0),
    Message('note_off', channel=9, note=35, velocity=1, time=192),
    Message('note_on', channel=9, note=35, velocity=127, time=0),
    Message('note_off', channel=9, note=35, velocity=1, time=48),
    Message('note_on', channel=9, note=35, velocity=127, time=0),
    Message('note_off', channel=9, note=35, velocity=1, time=48),
    Message('note_on', channel=9, note=35, velocity=127, time=0),
    Message('note_off', channel=9, note=35, velocity=1, time=96),
    Message('note_on', channel=9, note=35, velocity=127, time=0),
    Message('note_off', channel=9, note=35, velocity=1, time=192),
    Message('note_on', channel=9, note=35, velocity=127, time=0),
    Message('note_off', channel=9, note=35, velocity=1, time=96),
    Message('note_on', channel=9, note=35, velocity=127, time=0),
    Message('note_off', channel=9, note=35, velocity=1, time=96),
    Message('note_on', channel=9, note=35, velocity=127, time=0),
    Message('note_off', channel=9, note=35, velocity=1, time=192),
    Message('note_on', channel=9, note=35, velocity=127, time=0),
    Message('note_off', channel=9, note=35, velocity=1, time=192),
    Message('note_on', channel=9, note=35, velocity=127, time=0),
    Message('note_off', channel=9, note=35, velocity=1, time=96),
    Message('note_on', channel=9, note=35, velocity=127, time=0),
    Message('note_off', channel=9, note=35, velocity=1, time=192),
    Message('note_on', channel=9, note=35, velocity=127, time=0),
    Message('note_off', channel=9, note=35, velocity=1, time=96),
    Message('note_on', channel=9, note=35, velocity=127, time=0),
    Message('note_off', channel=9, note=35, velocity=1, time=192),
    Message('note_on', channel=9, note=35, velocity=127, time=288),
    Message('note_off', channel=9, note=35, velocity=1, time=192),
    Message('note_on', channel=9, note=35, velocity=127, time=96),
    Message('note_off', channel=9, note=35, velocity=1, time=48),
    Message('note_on', channel=9, note=35, velocity=127, time=0),
    Message('note_off', channel=9, note=35, velocity=1, time=48),
    Message('note_on', channel=9, note=35, velocity=127, time=0),
    Message('note_off', channel=9, note=35, velocity=1, time=192),
    Message('control_change', channel=9, control=7, value=119, time=0),
    Message('note_on', channel=9, note=35, velocity=127, time=0),
    Message('control_change', channel=9, control=7, value=118, time=48),
    Message('note_off', channel=9, note=35, velocity=1, time=48),
    Message('control_change', channel=9, control=7, value=117, time=0),
    Message('note_on', channel=9, note=35, velocity=127, time=0),
    Message('control_change', channel=9, control=7, value=116, time=48),
    Message('control_change', channel=9, control=7, value=115, time=24),
    Message('control_change', channel=9, control=7, value=114, time=48),
    Message('control_change', channel=9, control=7, value=113, time=48),
    Message('note_off', channel=9, note=35, velocity=1, time=24),
    Message('control_change', channel=9, control=7, value=112, time=0),
    Message('note_on', channel=9, note=35, velocity=127, time=0),
    Message('control_change', channel=9, control=7, value=111, time=48),
    Message('note_off', channel=9, note=35, velocity=1, time=48),
    Message('control_change', channel=9, control=7, value=110, time=0),
    Message('note_on', channel=9, note=35, velocity=127, time=0),
    Message('control_change', channel=9, control=7, value=109, time=24),
    Message('control_change', channel=9, control=7, value=108, time=48),
    Message('note_off', channel=9, note=35, velocity=1, time=24),
    Message('note_on', channel=9, note=35, velocity=127, time=0),
    Message('control_change', channel=9, control=7, value=107, time=24),
    Message('control_change', channel=9, control=7, value=106, time=24),
    Message('control_change', channel=9, control=7, value=105, time=48),
    Message('control_change', channel=9, control=7, value=104, time=48),
    Message('control_change', channel=9, control=7, value=103, time=24),
    Message('note_off', channel=9, note=35, velocity=1, time=24),
    Message('note_on', channel=9, note=35, velocity=127, time=0),
    Message('control_change', channel=9, control=7, value=102, time=24),
    Message('control_change', channel=9, control=7, value=101, time=48),
    Message('note_off', channel=9, note=35, velocity=1, time=24),
    Message('control_change', channel=9, control=7, value=100, time=0),
    Message('note_on', channel=9, note=35, velocity=127, time=0),
    Message('control_change', channel=9, control=7, value=99, time=48),
    Message('note_off', channel=9, note=35, velocity=1, time=48),
    Message('control_change', channel=9, control=7, value=98, time=0),
    Message('note_on', channel=9, note=35, velocity=127, time=0),
    Message('control_change', channel=9, control=7, value=97, time=48),
    Message('control_change', channel=9, control=7, value=96, time=24),
    Message('control_change', channel=9, control=7, value=95, time=48),
    Message('control_change', channel=9, control=7, value=94, time=48),
    Message('note_off', channel=9, note=35, velocity=1, time=24),
    Message('control_change', channel=9, control=7, value=93, time=0),
    Message('note_on', channel=9, note=35, velocity=127, time=0),
    Message('control_change', channel=9, control=7, value=92, time=48),
    Message('note_off', channel=9, note=35, velocity=1, time=48),
    Message('control_change', channel=9, control=7, value=91, time=0),
    Message('note_on', channel=9, note=35, velocity=127, time=0),
    Message('control_change', channel=9, control=7, value=90, time=24),
    Message('control_change', channel=9, control=7, value=89, time=48),
    Message('note_off', channel=9, note=35, velocity=1, time=24),
    Message('note_on', channel=9, note=35, velocity=127, time=0),
    Message('control_change', channel=9, control=7, value=88, time=24),
    Message('control_change', channel=9, control=7, value=87, time=24),
    Message('control_change', channel=9, control=7, value=86, time=48),
    Message('control_change', channel=9, control=7, value=85, time=48),
    Message('control_change', channel=9, control=7, value=84, time=24),
    Message('note_off', channel=9, note=35, velocity=1, time=24),
    Message('note_on', channel=9, note=35, velocity=127, time=0),
    Message('control_change', channel=9, control=7, value=83, time=24),
    Message('note_off', channel=9, note=35, velocity=1, time=24),
    Message('note_on', channel=9, note=35, velocity=127, time=0),
    Message('control_change', channel=9, control=7, value=82, time=24),
    Message('note_off', channel=9, note=35, velocity=1, time=24),
    Message('control_change', channel=9, control=7, value=81, time=0),
    Message('note_on', channel=9, note=35, velocity=127, time=0),
    Message('control_change', channel=9, control=7, value=80, time=48),
    Message('note_off', channel=9, note=35, velocity=1, time=48),
    Message('control_change', channel=9, control=7, value=79, time=0),
    Message('note_on', channel=9, note=35, velocity=127, time=0),
    Message('control_change', channel=9, control=7, value=78, time=48),
    Message('control_change', channel=9, control=7, value=77, time=24),
    Message('control_change', channel=9, control=7, value=76, time=48),
    Message('control_change', channel=9, control=7, value=75, time=48),
    Message('note_off', channel=9, note=35, velocity=1, time=24),
    Message('control_change', channel=9, control=7, value=74, time=0),
    Message('note_on', channel=9, note=35, velocity=127, time=0),
    Message('control_change', channel=9, control=7, value=73, time=48),
    Message('note_off', channel=9, note=35, velocity=1, time=48),
    Message('control_change', channel=9, control=7, value=72, time=0),
    Message('note_on', channel=9, note=35, velocity=127, time=0),
    Message('control_change', channel=9, control=7, value=71, time=24),
    Message('control_change', channel=9, control=7, value=70, time=48),
    Message('note_off', channel=9, note=35, velocity=1, time=24),
    Message('note_on', channel=9, note=35, velocity=127, time=0),
    Message('control_change', channel=9, control=7, value=69, time=24),
    Message('control_change', channel=9, control=7, value=68, time=24),
    Message('control_change', channel=9, control=7, value=67, time=48),
    Message('control_change', channel=9, control=7, value=66, time=48),
    Message('control_change', channel=9, control=7, value=65, time=24),
    Message('note_off', channel=9, note=35, velocity=1, time=24),
    Message('note_on', channel=9, note=35, velocity=127, time=0),
    Message('control_change', channel=9, control=7, value=64, time=24),
    Message('control_change', channel=9, control=7, value=63, time=48),
    Message('note_off', channel=9, note=35, velocity=1, time=24),
    Message('control_change', channel=9, control=7, value=62, time=0),
    Message('note_on', channel=9, note=35, velocity=127, time=0),
    Message('control_change', channel=9, control=7, value=61, time=48),
    Message('note_off', channel=9, note=35, velocity=1, time=48),
    Message('control_change', channel=9, control=7, value=60, time=0),
    Message('note_on', channel=9, note=35, velocity=127, time=0),
    Message('control_change', channel=9, control=7, value=59, time=48),
    Message('control_change', channel=9, control=7, value=58, time=24),
    Message('control_change', channel=9, control=7, value=57, time=48),
    Message('control_change', channel=9, control=7, value=56, time=48),
    Message('note_off', channel=9, note=35, velocity=1, time=24),
    Message('control_change', channel=9, control=7, value=55, time=0),
    Message('note_on', channel=9, note=35, velocity=127, time=0),
    Message('control_change', channel=9, control=7, value=54, time=48),
    Message('note_off', channel=9, note=35, velocity=1, time=48),
    Message('control_change', channel=9, control=7, value=53, time=0),
    Message('note_on', channel=9, note=35, velocity=127, time=0),
    Message('control_change', channel=9, control=7, value=52, time=24),
    Message('control_change', channel=9, control=7, value=51, time=48),
    Message('note_off', channel=9, note=35, velocity=1, time=24),
    Message('note_on', channel=9, note=35, velocity=127, time=0),
    Message('control_change', channel=9, control=7, value=50, time=24),
    Message('control_change', channel=9, control=7, value=49, time=24),
    Message('control_change', channel=9, control=7, value=48, time=48),
    Message('control_change', channel=9, control=7, value=47, time=48),
    Message('control_change', channel=9, control=7, value=46, time=24),
    Message('note_off', channel=9, note=35, velocity=1, time=24),
    Message('note_on', channel=9, note=35, velocity=127, time=0),
    Message('control_change', channel=9, control=7, value=45, time=24),
    Message('note_off', channel=9, note=35, velocity=1, time=24),
    Message('note_on', channel=9, note=35, velocity=127, time=0),
    Message('control_change', channel=9, control=7, value=44, time=24),
    Message('note_off', channel=9, note=35, velocity=1, time=24),
    Message('control_change', channel=9, control=7, value=43, time=0),
    Message('note_on', channel=9, note=35, velocity=127, time=0),
    Message('control_change', channel=9, control=7, value=42, time=48),
    Message('note_off', channel=9, note=35, velocity=1, time=48),
    Message('control_change', channel=9, control=7, value=41, time=0),
    Message('note_on', channel=9, note=35, velocity=127, time=0),
    Message('control_change', channel=9, control=7, value=40, time=48),
    Message('control_change', channel=9, control=7, value=39, time=24),
    Message('control_change', channel=9, control=7, value=38, time=48),
    Message('control_change', channel=9, control=7, value=37, time=48),
    Message('note_off', channel=9, note=35, velocity=1, time=24),
    Message('control_change', channel=9, control=7, value=36, time=0),
    Message('note_on', channel=9, note=35, velocity=127, time=0),
    Message('control_change', channel=9, control=7, value=35, time=48),
    Message('note_off', channel=9, note=35, velocity=1, time=48),
    Message('control_change', channel=9, control=7, value=34, time=0),
    Message('note_on', channel=9, note=35, velocity=127, time=0),
    Message('control_change', channel=9, control=7, value=33, time=24),
    Message('control_change', channel=9, control=7, value=32, time=48),
    Message('note_off', channel=9, note=35, velocity=1, time=24),
    Message('note_on', channel=9, note=35, velocity=127, time=0),
    Message('control_change', channel=9, control=7, value=31, time=24),
    Message('control_change', channel=9, control=7, value=30, time=24),
    Message('control_change', channel=9, control=7, value=29, time=48),
    Message('control_change', channel=9, control=7, value=28, time=48),
    Message('control_change', channel=9, control=7, value=27, time=24),
    Message('note_off', channel=9, note=35, velocity=1, time=24),
    Message('note_on', channel=9, note=35, velocity=127, time=0),
    Message('control_change', channel=9, control=7, value=26, time=24),
    Message('control_change', channel=9, control=7, value=25, time=48),
    Message('note_off', channel=9, note=35, velocity=1, time=24),
    Message('control_change', channel=9, control=7, value=19, time=0),
    Message('note_on', channel=9, note=35, velocity=127, time=0),
    Message('note_off', channel=9, note=35, velocity=1, time=96),
    Message('control_change', channel=9, control=7, value=18, time=0),
    Message('note_on', channel=9, note=35, velocity=127, time=0),
    Message('control_change', channel=9, control=7, value=17, time=72),
    Message('control_change', channel=9, control=7, value=16, time=72),
    Message('note_off', channel=9, note=35, velocity=1, time=48),
    Message('note_on', channel=9, note=35, velocity=127, time=0),
    Message('control_change', channel=9, control=7, value=15, time=24),
    Message('note_off', channel=9, note=35, velocity=1, time=72),
    Message('control_change', channel=9, control=7, value=14, time=0),
    Message('note_on', channel=9, note=35, velocity=127, time=0),
    Message('note_off', channel=9, note=35, velocity=1, time=96),
    Message('control_change', channel=9, control=7, value=13, time=0),
    Message('note_on', channel=9, note=35, velocity=127, time=0),
    Message('control_change', channel=9, control=7, value=12, time=72),
    Message('control_change', channel=9, control=7, value=11, time=72),
    Message('note_off', channel=9, note=35, velocity=1, time=48),
    Message('note_on', channel=9, note=35, velocity=127, time=0),
    Message('control_change', channel=9, control=7, value=10, time=24),
    Message('note_off', channel=9, note=35, velocity=1, time=24),
    Message('note_on', channel=9, note=35, velocity=127, time=0),
    Message('note_off', channel=9, note=35, velocity=1, time=48),
    Message('control_change', channel=9, control=7, value=9, time=0),
    Message('note_on', channel=9, note=35, velocity=127, time=0),
    Message('note_off', channel=9, note=35, velocity=1, time=96),
    Message('control_change', channel=9, control=7, value=8, time=0),
    Message('note_on', channel=9, note=35, velocity=127, time=0),
    Message('control_change', channel=9, control=7, value=7, time=72),
    Message('control_change', channel=9, control=7, value=6, time=72),
    Message('note_off', channel=9, note=35, velocity=1, time=48),
    Message('note_on', channel=9, note=35, velocity=127, time=0),
    Message('control_change', channel=9, control=7, value=5, time=24),
    Message('note_off', channel=9, note=35, velocity=1, time=72),
    Message('control_change', channel=9, control=7, value=4, time=0),
    Message('note_on', channel=9, note=35, velocity=127, time=0),
    Message('note_off', channel=9, note=35, velocity=1, time=96),
    Message('control_change', channel=9, control=7, value=3, time=0),
    Message('note_on', channel=9, note=35, velocity=127, time=0),
    Message('control_change', channel=9, control=7, value=2, time=72),
    Message('control_change', channel=9, control=7, value=1, time=72),
    Message('note_off', channel=9, note=35, velocity=1, time=48),
    Message('note_on', channel=9, note=35, velocity=127, time=0),
    Message('control_change', channel=9, control=7, value=0, time=24),
    Message('note_off', channel=9, note=35, velocity=1, time=24),
    Message('note_on', channel=9, note=35, velocity=127, time=0),
    Message('note_off', channel=9, note=35, velocity=1, time=48),
    Message('pitchwheel', channel=9, pitch=0, time=768),
    Message('polytouch', channel=9, note=64, value=0, time=0),
    Message('aftertouch', channel=9, value=0, time=0),
    Message('control_change', channel=9, control=1, value=0, time=0),
    Message('control_change', channel=9, control=2, value=0, time=0),
    Message('control_change', channel=9, control=4, value=0, time=0),
    Message('control_change', channel=9, control=7, value=100, time=0),
    Message('control_change', channel=9, control=8, value=0, time=0),
    Message('control_change', channel=9, control=10, value=63, time=0),
    Message('control_change', channel=9, control=64, value=0, time=0),
    Message('control_change', channel=9, control=65, value=0, time=0),
    Message('control_change', channel=9, control=66, value=0, time=0),
    Message('control_change', channel=9, control=67, value=0, time=0),
    Message('control_change', channel=9, control=68, value=0, time=0),
    MetaMessage('end_of_track', time=0)]),
  MidiTrack([
    MetaMessage('midi_port', port=0, time=0),
    MetaMessage('track_name', name='Snares              ', time=0),
    Message('control_change', channel=9, control=7, value=111, time=0),
    Message('note_on', channel=9, note=38, velocity=127, time=192),
    Message('control_change', channel=9, control=7, value=112, time=72),
    Message('note_off', channel=9, note=38, velocity=1, time=120),
    Message('control_change', channel=9, control=7, value=113, time=144),
    Message('note_on', channel=9, note=38, velocity=127, time=48),
    Message('control_change', channel=9, control=7, value=114, time=191),
    Message('note_off', channel=9, note=38, velocity=1, time=1),
    Message('note_on', channel=9, note=38, velocity=127, time=192),
    Message('note_off', channel=9, note=38, velocity=1, time=192),
    Message('note_on', channel=9, note=38, velocity=127, time=192),
    Message('note_off', channel=9, note=38, velocity=1, time=192),
    Message('note_on', channel=9, note=38, velocity=127, time=192),
    Message('note_off', channel=9, note=38, velocity=1, time=192),
    Message('note_on', channel=9, note=38, velocity=127, time=192),
    Message('note_off', channel=9, note=38, velocity=1, time=192),
    Message('note_on', channel=9, note=38, velocity=127, time=192),
    Message('note_off', channel=9, note=38, velocity=1, time=192),
    Message('note_on', channel=9, note=38, velocity=127, time=192),
    Message('note_off', channel=9, note=38, velocity=1, time=192),
    Message('note_on', channel=9, note=38, velocity=127, time=192),
    Message('note_off', channel=9, note=38, velocity=1, time=192),
    Message('note_on', channel=9, note=38, velocity=127, time=192),
    Message('note_off', channel=9, note=38, velocity=1, time=192),
    Message('note_on', channel=9, note=38, velocity=127, time=192),
    Message('note_off', channel=9, note=38, velocity=1, time=192),
    Message('note_on', channel=9, note=38, velocity=127, time=192),
    Message('note_off', channel=9, note=38, velocity=1, time=192),
    Message('note_on', channel=9, note=38, velocity=127, time=192),
    Message('note_off', channel=9, note=38, velocity=1, time=192),
    Message('note_on', channel=9, note=38, velocity=127, time=192),
    Message('note_off', channel=9, note=38, velocity=1, time=192),
    Message('note_on', channel=9, note=38, velocity=127, time=192),
    Message('note_off', channel=9, note=38, velocity=1, time=192),
    Message('note_on', channel=9, note=38, velocity=127, time=192),
    Message('note_off', channel=9, note=38, velocity=1, time=192),
    Message('note_on', channel=9, note=38, velocity=127, time=192),
    Message('note_off', channel=9, note=38, velocity=1, time=192),
    Message('note_on', channel=9, note=38, velocity=127, time=192),
    Message('note_off', channel=9, note=38, velocity=1, time=192),
    Message('control_change', channel=9, control=7, value=114, time=0),
    Message('note_on', channel=9, note=38, velocity=127, time=0),
    Message('note_off', channel=9, note=38, velocity=1, time=192),
    Message('note_on', channel=9, note=38, velocity=127, time=96),
    Message('note_off', channel=9, note=38, velocity=1, time=192),
    Message('note_on', channel=9, note=38, velocity=127, time=96),
    Message('note_off', channel=9, note=38, velocity=1, time=192),
    Message('note_on', channel=9, note=38, velocity=127, time=192),
    Message('note_off', channel=9, note=38, velocity=1, time=192),
    Message('note_on', channel=9, note=38, velocity=127, time=192),
    Message('note_off', channel=9, note=38, velocity=1, time=192),
    Message('note_on', channel=9, note=38, velocity=127, time=0),
    Message('note_off', channel=9, note=38, velocity=1, time=192),
    Message('note_on', channel=9, note=38, velocity=127, time=96),
    Message('note_off', channel=9, note=38, velocity=1, time=192),
    Message('note_on', channel=9, note=38, velocity=127, time=96),
    Message('note_off', channel=9, note=38, velocity=1, time=192),
    Message('note_on', channel=9, note=38, velocity=127, time=192),
    Message('note_off', channel=9, note=38, velocity=1, time=192),
    Message('note_on', channel=9, note=38, velocity=127, time=192),
    Message('note_off', channel=9, note=38, velocity=1, time=192),
    Message('note_on', channel=9, note=38, velocity=127, time=192),
    Message('note_off', channel=9, note=38, velocity=1, time=192),
    Message('note_on', channel=9, note=38, velocity=127, time=192),
    Message('note_off', channel=9, note=38, velocity=1, time=192),
    Message('note_on', channel=9, note=38, velocity=127, time=192),
    Message('note_off', channel=9, note=38, velocity=1, time=192),
    Message('note_on', channel=9, note=38, velocity=127, time=192),
    Message('note_off', channel=9, note=38, velocity=1, time=192),
    Message('note_on', channel=9, note=38, velocity=127, time=192),
    Message('note_off', channel=9, note=38, velocity=1, time=192),
    Message('note_on', channel=9, note=38, velocity=127, time=192),
    Message('note_off', channel=9, note=38, velocity=1, time=192),
    Message('note_on', channel=9, note=38, velocity=127, time=0),
    Message('note_off', channel=9, note=38, velocity=1, time=192),
    Message('note_on', channel=9, note=38, velocity=127, time=96),
    Message('note_off', channel=9, note=38, velocity=1, time=192),
    Message('note_on', channel=9, note=38, velocity=127, time=96),
    Message('note_off', channel=9, note=38, velocity=1, time=192),
    Message('note_on', channel=9, note=38, velocity=127, time=192),
    Message('note_off', channel=9, note=38, velocity=1, time=192),
    Message('note_on', channel=9, note=38, velocity=127, time=192),
    Message('note_off', channel=9, note=38, velocity=1, time=192),
    Message('note_on', channel=9, note=38, velocity=127, time=0),
    Message('note_off', channel=9, note=38, velocity=1, time=192),
    Message('note_on', channel=9, note=38, velocity=127, time=96),
    Message('note_off', channel=9, note=38, velocity=1, time=192),
    Message('note_on', channel=9, note=38, velocity=127, time=96),
    Message('note_off', channel=9, note=38, velocity=1, time=192),
    Message('note_on', channel=9, note=38, velocity=127, time=192),
    Message('note_off', channel=9, note=38, velocity=1, time=192),
    Message('note_on', channel=9, note=38, velocity=127, time=192),
    Message('note_off', channel=9, note=38, velocity=1, time=192),
    Message('note_on', channel=9, note=38, velocity=127, time=0),
    Message('note_off', channel=9, note=38, velocity=1, time=48),
    Message('note_on', channel=9, note=38, velocity=127, time=0),
    Message('note_off', channel=9, note=38, velocity=1, time=192),
    Message('note_on', channel=9, note=38, velocity=127, time=528),
    Message('note_off', channel=9, note=38, velocity=1, time=192),
    Message('note_on', channel=9, note=38, velocity=127, time=96),
    Message('note_off', channel=9, note=38, velocity=1, time=192),
    Message('note_on', channel=9, note=38, velocity=127, time=96),
    Message('note_off', channel=9, note=38, velocity=1, time=192),
    Message('note_on', channel=9, note=38, velocity=127, time=192),
    Message('note_off', channel=9, note=38, velocity=1, time=192),
    Message('note_on', channel=9, note=38, velocity=127, time=192),
    Message('note_off', channel=9, note=38, velocity=1, time=192),
    Message('note_on', channel=9, note=38, velocity=127, time=0),
    Message('note_off', channel=9, note=38, velocity=1, time=192),
    Message('note_on', channel=9, note=38, velocity=127, time=96),
    Message('note_off', channel=9, note=38, velocity=1, time=192),
    Message('note_on', channel=9, note=38, velocity=127, time=96),
    Message('note_off', channel=9, note=38, velocity=1, time=192),
    Message('note_on', channel=9, note=38, velocity=127, time=0),
    Message('note_off', channel=9, note=38, velocity=1, time=48),
    Message('note_on', channel=9, note=38, velocity=127, time=0),
    Message('note_off', channel=9, note=38, velocity=1, time=192),
    Message('note_on', channel=9, note=38, velocity=127, time=720),
    Message('note_off', channel=9, note=38, velocity=1, time=192),
    Message('note_on', channel=9, note=38, velocity=127, time=192),
    Message('note_off', channel=9, note=38, velocity=1, time=192),
    Message('note_on', channel=9, note=38, velocity=127, time=192),
    Message('note_off', channel=9, note=38, velocity=1, time=192),
    Message('note_on', channel=9, note=38, velocity=127, time=192),
    Message('note_off', channel=9, note=38, velocity=1, time=192),
    Message('note_on', channel=9, note=38, velocity=127, time=192),
    Message('note_off', channel=9, note=38, velocity=1, time=192),
    Message('note_on', channel=9, note=38, velocity=127, time=192),
    Message('note_off', channel=9, note=38, velocity=1, time=192),
    Message('note_on', channel=9, note=38, velocity=127, time=192),
    Message('note_off', channel=9, note=38, velocity=1, time=192),
    Message('note_on', channel=9, note=38, velocity=127, time=192),
    Message('note_off', channel=9, note=38, velocity=1, time=192),
    Message('note_on', channel=9, note=38, velocity=127, time=192),
    Message('note_off', channel=9, note=38, velocity=1, time=192),
    Message('note_on', channel=9, note=38, velocity=127, time=192),
    Message('note_off', channel=9, note=38, velocity=1, time=192),
    Message('note_on', channel=9, note=38, velocity=127, time=192),
    Message('note_off', channel=9, note=38, velocity=1, time=192),
    Message('note_on', channel=9, note=38, velocity=127, time=192),
    Message('note_off', channel=9, note=38, velocity=1, time=192),
    Message('note_on', channel=9, note=38, velocity=127, time=192),
    Message('note_off', channel=9, note=38, velocity=1, time=192),
    Message('note_on', channel=9, note=38, velocity=127, time=192),
    Message('note_off', channel=9, note=38, velocity=1, time=192),
    Message('note_on', channel=9, note=38, velocity=127, time=192),
    Message('note_off', channel=9, note=38, velocity=1, time=192),
    Message('note_on', channel=9, note=38, velocity=127, time=192),
    Message('note_off', channel=9, note=38, velocity=1, time=192),
    Message('note_on', channel=9, note=38, velocity=127, time=192),
    Message('note_off', channel=9, note=38, velocity=1, time=192),
    Message('note_on', channel=9, note=38, velocity=127, time=192),
    Message('note_off', channel=9, note=38, velocity=1, time=192),
    Message('note_on', channel=9, note=38, velocity=127, time=192),
    Message('note_off', channel=9, note=38, velocity=1, time=192),
    Message('note_on', channel=9, note=38, velocity=127, time=192),
    Message('note_off', channel=9, note=38, velocity=1, time=192),
    Message('note_on', channel=9, note=38, velocity=127, time=192),
    Message('note_off', channel=9, note=38, velocity=1, time=192),
    Message('note_on', channel=9, note=38, velocity=127, time=192),
    Message('note_off', channel=9, note=38, velocity=1, time=192),
    Message('note_on', channel=9, note=38, velocity=127, time=192),
    Message('note_off', channel=9, note=38, velocity=1, time=192),
    Message('note_on', channel=9, note=38, velocity=127, time=192),
    Message('note_off', channel=9, note=38, velocity=1, time=192),
    Message('note_on', channel=9, note=38, velocity=127, time=192),
    Message('note_off', channel=9, note=38, velocity=1, time=192),
    Message('note_on', channel=9, note=38, velocity=127, time=192),
    Message('note_off', channel=9, note=38, velocity=1, time=192),
    Message('note_on', channel=9, note=38, velocity=127, time=0),
    Message('note_off', channel=9, note=38, velocity=1, time=192),
    Message('note_on', channel=9, note=38, velocity=127, time=96),
    Message('note_off', channel=9, note=38, velocity=1, time=192),
    Message('note_on', channel=9, note=38, velocity=127, time=96),
    Message('note_off', channel=9, note=38, velocity=1, time=192),
    Message('note_on', channel=9, note=38, velocity=127, time=0),
    Message('note_off', channel=9, note=38, velocity=1, time=192),
    Message('note_on', channel=9, note=38, velocity=127, time=96),
    Message('note_off', channel=9, note=38, velocity=1, time=192),
    Message('note_on', channel=9, note=38, velocity=127, time=96),
    Message('note_off', channel=9, note=38, velocity=1, time=192),
    Message('note_on', channel=9, note=38, velocity=127, time=192),
    Message('note_off', channel=9, note=38, velocity=1, time=192),
    Message('note_on', channel=9, note=38, velocity=127, time=192),
    Message('note_off', channel=9, note=38, velocity=1, time=192),
    Message('note_on', channel=9, note=38, velocity=127, time=0),
    Message('note_off', channel=9, note=38, velocity=1, time=192),
    Message('note_on', channel=9, note=38, velocity=127, time=96),
    Message('note_off', channel=9, note=38, velocity=1, time=192),
    Message('note_on', channel=9, note=38, velocity=127, time=96),
    Message('note_off', channel=9, note=38, velocity=1, time=192),
    Message('note_on', channel=9, note=38, velocity=127, time=192),
    Message('note_off', channel=9, note=38, velocity=1, time=192),
    Message('note_on', channel=9, note=38, velocity=127, time=192),
    Message('note_off', channel=9, note=38, velocity=1, time=192),
    Message('note_on', channel=9, note=38, velocity=127, time=192),
    Message('note_off', channel=9, note=38, velocity=1, time=192),
    Message('note_on', channel=9, note=38, velocity=127, time=192),
    Message('note_off', channel=9, note=38, velocity=1, time=192),
    Message('note_on', channel=9, note=38, velocity=127, time=192),
    Message('note_off', channel=9, note=38, velocity=1, time=192),
    Message('note_on', channel=9, note=38, velocity=127, time=192),
    Message('note_off', channel=9, note=38, velocity=1, time=192),
    Message('note_on', channel=9, note=38, velocity=127, time=192),
    Message('note_off', channel=9, note=38, velocity=1, time=192),
    Message('note_on', channel=9, note=38, velocity=127, time=192),
    Message('note_off', channel=9, note=38, velocity=1, time=192),
    Message('note_on', channel=9, note=38, velocity=127, time=192),
    Message('note_off', channel=9, note=38, velocity=1, time=192),
    Message('note_on', channel=9, note=38, velocity=127, time=192),
    Message('note_off', channel=9, note=38, velocity=1, time=192),
    Message('note_on', channel=9, note=38, velocity=127, time=192),
    Message('note_off', channel=9, note=38, velocity=1, time=144),
    Message('note_on', channel=9, note=38, velocity=127, time=0),
    Message('note_off', channel=9, note=38, velocity=1, time=192),
    Message('note_on', channel=9, note=38, velocity=127, time=48),
    Message('note_off', channel=9, note=38, velocity=1, time=192),
    Message('note_on', channel=9, note=38, velocity=127, time=192),
    Message('note_off', channel=9, note=38, velocity=1, time=192),
    Message('note_on', channel=9, note=38, velocity=127, time=192),
    Message('note_off', channel=9, note=38, velocity=1, time=192),
    Message('note_on', channel=9, note=38, velocity=127, time=192),
    Message('note_off', channel=9, note=38, velocity=1, time=192),
    Message('note_on', channel=9, note=38, velocity=127, time=192),
    Message('note_off', channel=9, note=38, velocity=1, time=192),
    Message('note_on', channel=9, note=38, velocity=127, time=192),
    Message('note_off', channel=9, note=38, velocity=1, time=192),
    Message('note_on', channel=9, note=38, velocity=127, time=192),
    Message('note_off', channel=9, note=38, velocity=1, time=192),
    Message('note_on', channel=9, note=38, velocity=127, time=0),
    Message('note_off', channel=9, note=38, velocity=1, time=48),
    Message('note_on', channel=9, note=38, velocity=127, time=0),
    Message('note_off', channel=9, note=38, velocity=1, time=144),
    Message('note_on', channel=9, note=38, velocity=127, time=0),
    Message('note_off', channel=9, note=38, velocity=1, time=48),
    Message('note_on', channel=9, note=38, velocity=127, time=0),
    Message('note_off', channel=9, note=38, velocity=1, time=48),
    Message('note_on', channel=9, note=38, velocity=127, time=0),
    Message('note_off', channel=9, note=38, velocity=1, time=48),
    Message('note_on', channel=9, note=38, velocity=127, time=0),
    Message('note_off', channel=9, note=38, velocity=1, time=144),
    Message('note_on', channel=9, note=38, velocity=127, time=0),
    Message('note_off', channel=9, note=38, velocity=1, time=48),
    Message('note_on', channel=9, note=38, velocity=127, time=0),
    Message('note_off', channel=9, note=38, velocity=1, time=48),
    Message('note_on', channel=9, note=38, velocity=127, time=0),
    Message('note_off', channel=9, note=38, velocity=1, time=48),
    Message('note_on', channel=9, note=38, velocity=127, time=0),
    Message('note_off', channel=9, note=38, velocity=1, time=96),
    Message('note_on', channel=9, note=38, velocity=127, time=0),
    Message('note_off', channel=9, note=38, velocity=1, time=192),
    Message('note_on', channel=9, note=38, velocity=127, time=48),
    Message('note_off', channel=9, note=38, velocity=1, time=192),
    Message('note_on', channel=9, note=38, velocity=127, time=192),
    Message('note_off', channel=9, note=38, velocity=1, time=192),
    Message('note_on', channel=9, note=38, velocity=127, time=0),
    Message('note_off', channel=9, note=38, velocity=1, time=192),
    Message('note_on', channel=9, note=38, velocity=127, time=96),
    Message('note_off', channel=9, note=38, velocity=1, time=192),
    Message('note_on', channel=9, note=38, velocity=127, time=96),
    Message('note_off', channel=9, note=38, velocity=1, time=192),
    Message('note_on', channel=9, note=38, velocity=127, time=192),
    Message('note_off', channel=9, note=38, velocity=1, time=192),
    Message('note_on', channel=9, note=38, velocity=127, time=192),
    Message('note_off', channel=9, note=38, velocity=1, time=192),
    Message('note_on', channel=9, note=38, velocity=127, time=0),
    Message('note_off', channel=9, note=38, velocity=1, time=48),
    Message('note_on', channel=9, note=38, velocity=127, time=0),
    Message('note_off', channel=9, note=38, velocity=1, time=192),
    Message('note_on', channel=9, note=38, velocity=127, time=528),
    Message('note_off', channel=9, note=38, velocity=1, time=48),
    Message('note_on', channel=9, note=38, velocity=127, time=0),
    Message('note_off', channel=9, note=38, velocity=1, time=144),
    Message('note_on', channel=9, note=38, velocity=127, time=0),
    Message('note_off', channel=9, note=38, velocity=1, time=48),
    Message('note_on', channel=9, note=38, velocity=127, time=0),
    Message('note_off', channel=9, note=38, velocity=1, time=48),
    Message('note_on', channel=9, note=38, velocity=127, time=0),
    Message('note_off', channel=9, note=38, velocity=1, time=48),
    Message('note_on', channel=9, note=38, velocity=127, time=0),
    Message('note_off', channel=9, note=38, velocity=1, time=144),
    Message('note_on', channel=9, note=38, velocity=127, time=0),
    Message('note_off', channel=9, note=38, velocity=1, time=48),
    Message('note_on', channel=9, note=38, velocity=127, time=0),
    Message('note_off', channel=9, note=38, velocity=1, time=48),
    Message('note_on', channel=9, note=38, velocity=127, time=0),
    Message('note_off', channel=9, note=38, velocity=1, time=48),
    Message('note_on', channel=9, note=38, velocity=127, time=0),
    Message('note_off', channel=9, note=38, velocity=1, time=96),
    Message('note_on', channel=9, note=38, velocity=127, time=0),
    Message('note_off', channel=9, note=38, velocity=1, time=192),
    Message('note_on', channel=9, note=38, velocity=127, time=48),
    Message('note_off', channel=9, note=38, velocity=1, time=192),
    Message('note_on', channel=9, note=38, velocity=127, time=192),
    Message('note_off', channel=9, note=38, velocity=1, time=192),
    Message('note_on', channel=9, note=38, velocity=127, time=0),
    Message('note_off', channel=9, note=38, velocity=1, time=192),
    Message('note_on', channel=9, note=38, velocity=127, time=96),
    Message('note_off', channel=9, note=38, velocity=1, time=192),
    Message('note_on', channel=9, note=38, velocity=127, time=96),
    Message('note_off', channel=9, note=38, velocity=1, time=192),
    Message('note_on', channel=9, note=38, velocity=127, time=192),
    Message('note_off', channel=9, note=38, velocity=1, time=192),
    Message('note_on', channel=9, note=38, velocity=127, time=192),
    Message('note_off', channel=9, note=38, velocity=1, time=192),
    Message('note_on', channel=9, note=38, velocity=127, time=192),
    Message('note_off', channel=9, note=38, velocity=1, time=192),
    Message('note_on', channel=9, note=38, velocity=127, time=192),
    Message('note_off', channel=9, note=38, velocity=1, time=192),
    Message('note_on', channel=9, note=38, velocity=127, time=192),
    Message('note_off', channel=9, note=38, velocity=1, time=192),
    Message('note_on', channel=9, note=38, velocity=127, time=192),
    Message('note_off', channel=9, note=38, velocity=1, time=192),
    Message('note_on', channel=9, note=38, velocity=127, time=192),
    Message('note_off', channel=9, note=38, velocity=1, time=192),
    Message('note_on', channel=9, note=38, velocity=127, time=192),
    Message('note_off', channel=9, note=38, velocity=1, time=192),
    Message('note_on', channel=9, note=38, velocity=127, time=192),
    Message('note_off', channel=9, note=38, velocity=1, time=192),
    Message('note_on', channel=9, note=38, velocity=127, time=192),
    Message('note_off', channel=9, note=38, velocity=1, time=192),
    Message('note_on', channel=9, note=38, velocity=127, time=192),
    Message('note_off', channel=9, note=38, velocity=1, time=144),
    Message('note_on', channel=9, note=38, velocity=127, time=0),
    Message('note_off', channel=9, note=38, velocity=1, time=192),
    Message('note_on', channel=9, note=38, velocity=127, time=48),
    Message('note_off', channel=9, note=38, velocity=1, time=192),
    Message('note_on', channel=9, note=38, velocity=127, time=192),
    Message('note_off', channel=9, note=38, velocity=1, time=192),
    Message('note_on', channel=9, note=38, velocity=127, time=192),
    Message('note_off', channel=9, note=38, velocity=1, time=192),
    Message('note_on', channel=9, note=38, velocity=127, time=192),
    Message('note_off', channel=9, note=38, velocity=1, time=192),
    Message('note_on', channel=9, note=38, velocity=127, time=192),
    Message('note_off', channel=9, note=38, velocity=1, time=192),
    Message('note_on', channel=9, note=38, velocity=127, time=192),
    Message('note_off', channel=9, note=38, velocity=1, time=192),
    Message('note_on', channel=9, note=38, velocity=127, time=192),
    Message('note_off', channel=9, note=38, velocity=1, time=192),
    Message('note_on', channel=9, note=38, velocity=127, time=192),
    Message('note_off', channel=9, note=38, velocity=1, time=192),
    Message('note_on', channel=9, note=38, velocity=127, time=192),
    Message('note_off', channel=9, note=38, velocity=1, time=192),
    Message('note_on', channel=9, note=38, velocity=127, time=192),
    Message('note_off', channel=9, note=38, velocity=1, time=192),
    Message('note_on', channel=9, note=38, velocity=127, time=192),
    Message('note_off', channel=9, note=38, velocity=1, time=192),
    Message('note_on', channel=9, note=38, velocity=127, time=192),
    Message('note_off', channel=9, note=38, velocity=1, time=144),
    Message('note_on', channel=9, note=38, velocity=127, time=0),
    Message('note_off', channel=9, note=38, velocity=1, time=192),
    Message('note_on', channel=9, note=38, velocity=127, time=48),
    Message('note_off', channel=9, note=38, velocity=1, time=192),
    Message('note_on', channel=9, note=38, velocity=127, time=0),
    Message('note_off', channel=9, note=38, velocity=1, time=192),
    Message('note_on', channel=9, note=38, velocity=127, time=96),
    Message('note_off', channel=9, note=38, velocity=1, time=192),
    Message('note_on', channel=9, note=38, velocity=127, time=96),
    Message('note_off', channel=9, note=38, velocity=1, time=192),
    Message('note_on', channel=9, note=38, velocity=127, time=0),
    Message('note_off', channel=9, note=38, velocity=1, time=192),
    Message('note_on', channel=9, note=38, velocity=127, time=96),
    Message('note_off', channel=9, note=38, velocity=1, time=192),
    Message('note_on', channel=9, note=38, velocity=127, time=96),
    Message('note_off', channel=9, note=38, velocity=1, time=192),
    Message('note_on', channel=9, note=38, velocity=127, time=192),
    Message('note_off', channel=9, note=38, velocity=1, time=192),
    Message('note_on', channel=9, note=38, velocity=127, time=192),
    Message('note_off', channel=9, note=38, velocity=1, time=192),
    Message('note_on', channel=9, note=38, velocity=127, time=192),
    Message('note_off', channel=9, note=38, velocity=1, time=192),
    Message('note_on', channel=9, note=38, velocity=127, time=192),
    Message('note_off', channel=9, note=38, velocity=1, time=192),
    Message('note_on', channel=9, note=38, velocity=127, time=192),
    Message('note_off', channel=9, note=38, velocity=1, time=192),
    Message('note_on', channel=9, note=38, velocity=127, time=192),
    Message('note_off', channel=9, note=38, velocity=1, time=192),
    Message('note_on', channel=9, note=38, velocity=127, time=0),
    Message('note_off', channel=9, note=38, velocity=1, time=192),
    Message('note_on', channel=9, note=38, velocity=127, time=96),
    Message('note_off', channel=9, note=38, velocity=1, time=192),
    Message('note_on', channel=9, note=38, velocity=127, time=96),
    Message('note_off', channel=9, note=38, velocity=1, time=192),
    Message('control_change', channel=9, control=7, value=113, time=0),
    Message('note_on', channel=9, note=38, velocity=127, time=192),
    Message('note_off', channel=9, note=38, velocity=1, time=192),
    Message('note_on', channel=9, note=38, velocity=127, time=192),
    Message('note_off', channel=9, note=38, velocity=1, time=192),
    Message('note_on', channel=9, note=38, velocity=127, time=192),
    Message('note_off', channel=9, note=38, velocity=1, time=192),
    Message('note_on', channel=9, note=38, velocity=127, time=192),
    Message('note_off', channel=9, note=38, velocity=1, time=192),
    Message('note_on', channel=9, note=38, velocity=127, time=192),
    Message('note_off', channel=9, note=38, velocity=1, time=192),
    Message('note_on', channel=9, note=38, velocity=127, time=192),
    Message('note_off', channel=9, note=38, velocity=1, time=192),
    Message('note_on', channel=9, note=38, velocity=127, time=0),
    Message('note_off', channel=9, note=38, velocity=1, time=192),
    Message('note_on', channel=9, note=38, velocity=127, time=96),
    Message('note_off', channel=9, note=38, velocity=1, time=192),
    Message('note_on', channel=9, note=38, velocity=127, time=96),
    Message('note_off', channel=9, note=38, velocity=1, time=192),
    Message('control_change', channel=9, control=7, value=123, time=0),
    Message('note_on', channel=9, note=38, velocity=127, time=192),
    Message('note_off', channel=9, note=38, velocity=1, time=192),
    Message('note_on', channel=9, note=38, velocity=127, time=192),
    Message('note_off', channel=9, note=38, velocity=1, time=192),
    Message('note_on', channel=9, note=38, velocity=127, time=192),
    Message('note_off', channel=9, note=38, velocity=1, time=192),
    Message('note_on', channel=9, note=38, velocity=127, time=192),
    Message('note_off', channel=9, note=38, velocity=1, time=192),
    Message('note_on', channel=9, note=38, velocity=127, time=192),
    Message('note_off', channel=9, note=38, velocity=1, time=192),
    Message('note_on', channel=9, note=38, velocity=127, time=192),
    Message('note_off', channel=9, note=38, velocity=1, time=192),
    Message('note_on', channel=9, note=38, velocity=127, time=192),
    Message('note_off', channel=9, note=38, velocity=1, time=192),
    Message('note_on', channel=9, note=38, velocity=127, time=192),
    Message('note_off', channel=9, note=38, velocity=1, time=192),
    Message('note_on', channel=9, note=38, velocity=127, time=0),
    Message('note_off', channel=9, note=38, velocity=1, time=48),
    Message('note_on', channel=9, note=38, velocity=127, time=0),
    Message('note_off', channel=9, note=38, velocity=1, time=144),
    Message('note_on', channel=9, note=38, velocity=127, time=0),
    Message('note_off', channel=9, note=38, velocity=1, time=48),
    Message('note_on', channel=9, note=38, velocity=127, time=0),
    Message('note_off', channel=9, note=38, velocity=1, time=48),
    Message('note_on', channel=9, note=38, velocity=127, time=0),
    Message('note_off', channel=9, note=38, velocity=1, time=48),
    Message('note_on', channel=9, note=38, velocity=127, time=0),
    Message('note_off', channel=9, note=38, velocity=1, time=144),
    Message('note_on', channel=9, note=38, velocity=127, time=0),
    Message('note_off', channel=9, note=38, velocity=1, time=48),
    Message('note_on', channel=9, note=38, velocity=127, time=0),
    Message('note_off', channel=9, note=38, velocity=1, time=48),
    Message('note_on', channel=9, note=38, velocity=127, time=0),
    Message('note_off', channel=9, note=38, velocity=1, time=48),
    Message('note_on', channel=9, note=38, velocity=127, time=0),
    Message('note_off', channel=9, note=38, velocity=1, time=96),
    Message('note_on', channel=9, note=38, velocity=127, time=0),
    Message('note_off', channel=9, note=38, velocity=1, time=48),
    Message('note_on', channel=9, note=38, velocity=127, time=0),
    Message('note_off', channel=9, note=38, velocity=1, time=192),
    Message('note_on', channel=9, note=38, velocity=127, time=96),
    Message('note_off', channel=9, note=38, velocity=1, time=192),
    Message('note_on', channel=9, note=38, velocity=127, time=96),
    Message('note_off', channel=9, note=38, velocity=1, time=192),
    Message('note_on', channel=9, note=38, velocity=127, time=0),
    Message('note_off', channel=9, note=38, velocity=1, time=48),
    Message('note_on', channel=9, note=38, velocity=127, time=0),
    Message('note_off', channel=9, note=38, velocity=1, time=144),
    Message('note_on', channel=9, note=38, velocity=127, time=0),
    Message('note_off', channel=9, note=38, velocity=1, time=48),
    Message('note_on', channel=9, note=38, velocity=127, time=0),
    Message('note_off', channel=9, note=38, velocity=1, time=48),
    Message('note_on', channel=9, note=38, velocity=127, time=0),
    Message('note_off', channel=9, note=38, velocity=1, time=48),
    Message('note_on', channel=9, note=38, velocity=127, time=0),
    Message('note_off', channel=9, note=38, velocity=1, time=144),
    Message('note_on', channel=9, note=38, velocity=127, time=0),
    Message('note_off', channel=9, note=38, velocity=1, time=48),
    Message('note_on', channel=9, note=38, velocity=127, time=0),
    Message('note_off', channel=9, note=38, velocity=1, time=48),
    Message('note_on', channel=9, note=38, velocity=127, time=0),
    Message('note_off', channel=9, note=38, velocity=1, time=48),
    Message('note_on', channel=9, note=38, velocity=127, time=0),
    Message('note_off', channel=9, note=38, velocity=1, time=96),
    Message('note_on', channel=9, note=38, velocity=127, time=0),
    Message('note_off', channel=9, note=38, velocity=1, time=192),
    Message('note_on', channel=9, note=38, velocity=127, time=48),
    Message('note_off', channel=9, note=38, velocity=1, time=192),
    Message('note_on', channel=9, note=38, velocity=127, time=192),
    Message('note_off', channel=9, note=38, velocity=1, time=192),
    Message('note_on', channel=9, note=38, velocity=127, time=0),
    Message('note_off', channel=9, note=38, velocity=1, time=192),
    Message('note_on', channel=9, note=38, velocity=127, time=96),
    Message('note_off', channel=9, note=38, velocity=1, time=192),
    Message('note_on', channel=9, note=38, velocity=127, time=96),
    Message('note_off', channel=9, note=38, velocity=1, time=192),
    Message('note_on', channel=9, note=38, velocity=127, time=192),
    Message('note_off', channel=9, note=38, velocity=1, time=192),
    Message('note_on', channel=9, note=38, velocity=127, time=192),
    Message('note_off', channel=9, note=38, velocity=1, time=192),
    Message('note_on', channel=9, note=38, velocity=127, time=0),
    Message('note_off', channel=9, note=38, velocity=1, time=192),
    Message('note_on', channel=9, note=38, velocity=127, time=96),
    Message('note_off', channel=9, note=38, velocity=1, time=192),
    Message('note_on', channel=9, note=38, velocity=127, time=96),
    Message('note_off', channel=9, note=38, velocity=1, time=192),
    Message('note_on', channel=9, note=38, velocity=127, time=192),
    Message('note_off', channel=9, note=38, velocity=1, time=192),
    Message('note_on', channel=9, note=38, velocity=127, time=192),
    Message('note_off', channel=9, note=38, velocity=1, time=192),
    Message('note_on', channel=9, note=38, velocity=127, time=192),
    Message('note_off', channel=9, note=38, velocity=1, time=192),
    Message('note_on', channel=9, note=38, velocity=127, time=192),
    Message('note_off', channel=9, note=38, velocity=1, time=192),
    Message('note_on', channel=9, note=38, velocity=127, time=192),
    Message('note_off', channel=9, note=38, velocity=1, time=192),
    Message('note_on', channel=9, note=38, velocity=127, time=192),
    Message('note_off', channel=9, note=38, velocity=1, time=192),
    Message('note_on', channel=9, note=38, velocity=127, time=192),
    Message('note_off', channel=9, note=38, velocity=1, time=192),
    Message('note_on', channel=9, note=38, velocity=127, time=192),
    Message('note_off', channel=9, note=38, velocity=1, time=192),
    Message('note_on', channel=9, note=38, velocity=127, time=0),
    Message('note_off', channel=9, note=38, velocity=1, time=192),
    Message('note_on', channel=9, note=38, velocity=127, time=96),
    Message('note_off', channel=9, note=38, velocity=1, time=192),
    Message('note_on', channel=9, note=38, velocity=127, time=192),
    Message('note_off', channel=9, note=38, velocity=1, time=48),
    Message('note_on', channel=9, note=38, velocity=127, time=0),
    Message('note_off', channel=9, note=38, velocity=1, time=192),
    Message('note_on', channel=9, note=38, velocity=127, time=48),
    Message('note_off', channel=9, note=38, velocity=1, time=192),
    Message('note_on', channel=9, note=38, velocity=127, time=192),
    Message('note_off', channel=9, note=38, velocity=1, time=192),
    Message('note_on', channel=9, note=38, velocity=127, time=192),
    Message('note_off', channel=9, note=38, velocity=1, time=192),
    Message('note_on', channel=9, note=38, velocity=127, time=192),
    Message('note_off', channel=9, note=38, velocity=1, time=192),
    Message('note_on', channel=9, note=38, velocity=127, time=192),
    Message('note_off', channel=9, note=38, velocity=1, time=192),
    Message('note_on', channel=9, note=38, velocity=127, time=192),
    Message('note_off', channel=9, note=38, velocity=1, time=192),
    Message('note_on', channel=9, note=38, velocity=127, time=0),
    Message('note_off', channel=9, note=38, velocity=1, time=192),
    Message('note_on', channel=9, note=38, velocity=127, time=96),
    Message('note_off', channel=9, note=38, velocity=1, time=192),
    Message('note_on', channel=9, note=38, velocity=127, time=192),
    Message('note_off', channel=9, note=38, velocity=1, time=48),
    Message('note_on', channel=9, note=38, velocity=127, time=0),
    Message('note_off', channel=9, note=38, velocity=1, time=48),
    Message('note_on', channel=9, note=38, velocity=127, time=0),
    Message('note_off', channel=9, note=38, velocity=1, time=192),
    Message('note_on', channel=9, note=38, velocity=127, time=96),
    Message('note_off', channel=9, note=38, velocity=1, time=192),
    Message('note_on', channel=9, note=38, velocity=127, time=96),
    Message('note_off', channel=9, note=38, velocity=1, time=192),
    Message('note_on', channel=9, note=38, velocity=127, time=192),
    Message('note_off', channel=9, note=38, velocity=1, time=192),
    Message('note_on', channel=9, note=38, velocity=127, time=192),
    Message('note_off', channel=9, note=38, velocity=1, time=192),
    Message('note_on', channel=9, note=38, velocity=127, time=0),
    Message('note_off', channel=9, note=38, velocity=1, time=192),
    Message('note_on', channel=9, note=38, velocity=127, time=96),
    Message('note_off', channel=9, note=38, velocity=1, time=192),
    Message('note_on', channel=9, note=38, velocity=127, time=96),
    Message('note_off', channel=9, note=38, velocity=1, time=192),
    Message('note_on', channel=9, note=38, velocity=127, time=192),
    Message('note_off', channel=9, note=38, velocity=1, time=192),
    Message('note_on', channel=9, note=38, velocity=127, time=192),
    Message('note_off', channel=9, note=38, velocity=1, time=192),
    Message('note_on', channel=9, note=38, velocity=127, time=0),
    Message('note_off', channel=9, note=38, velocity=1, time=48),
    Message('note_on', channel=9, note=38, velocity=127, time=0),
    Message('note_off', channel=9, note=38, velocity=1, time=144),
    Message('note_on', channel=9, note=38, velocity=127, time=0),
    Message('note_off', channel=9, note=38, velocity=1, time=48),
    Message('note_on', channel=9, note=38, velocity=127, time=0),
    Message('note_off', channel=9, note=38, velocity=1, time=48),
    Message('note_on', channel=9, note=38, velocity=127, time=0),
    Message('note_off', channel=9, note=38, velocity=1, time=48),
    Message('note_on', channel=9, note=38, velocity=127, time=0),
    Message('note_off', channel=9, note=38, velocity=1, time=144),
    Message('note_on', channel=9, note=38, velocity=127, time=0),
    Message('note_off', channel=9, note=38, velocity=1, time=48),
    Message('note_on', channel=9, note=38, velocity=127, time=0),
    Message('note_off', channel=9, note=38, velocity=1, time=48),
    Message('note_on', channel=9, note=38, velocity=127, time=0),
    Message('note_off', channel=9, note=38, velocity=1, time=48),
    Message('note_on', channel=9, note=38, velocity=127, time=0),
    Message('note_off', channel=9, note=38, velocity=1, time=96),
    Message('note_on', channel=9, note=38, velocity=127, time=0),
    Message('note_off', channel=9, note=38, velocity=1, time=48),
    Message('note_on', channel=9, note=38, velocity=127, time=0),
    Message('note_off', channel=9, note=38, velocity=1, time=192),
    Message('note_on', channel=9, note=38, velocity=127, time=96),
    Message('note_off', channel=9, note=38, velocity=1, time=192),
    Message('note_on', channel=9, note=38, velocity=127, time=96),
    Message('note_off', channel=9, note=38, velocity=1, time=192),
    Message('note_on', channel=9, note=38, velocity=127, time=192),
    Message('note_off', channel=9, note=38, velocity=1, time=192),
    Message('note_on', channel=9, note=38, velocity=127, time=192),
    Message('note_off', channel=9, note=38, velocity=1, time=192),
    Message('note_on', channel=9, note=38, velocity=127, time=0),
    Message('note_off', channel=9, note=38, velocity=1, time=192),
    Message('note_on', channel=9, note=38, velocity=127, time=96),
    Message('note_off', channel=9, note=38, velocity=1, time=192),
    Message('note_on', channel=9, note=38, velocity=127, time=96),
    Message('note_off', channel=9, note=38, velocity=1, time=192),
    Message('note_on', channel=9, note=38, velocity=127, time=192),
    Message('note_off', channel=9, note=38, velocity=1, time=192),
    Message('note_on', channel=9, note=38, velocity=127, time=192),
    Message('note_off', channel=9, note=38, velocity=1, time=192),
    Message('note_on', channel=9, note=38, velocity=127, time=0),
    Message('note_off', channel=9, note=38, velocity=1, time=192),
    Message('note_on', channel=9, note=38, velocity=127, time=96),
    Message('note_off', channel=9, note=38, velocity=1, time=192),
    Message('note_on', channel=9, note=38, velocity=127, time=96),
    Message('note_off', channel=9, note=38, velocity=1, time=192),
    Message('control_change', channel=9, control=7, value=120, time=0),
    Message('note_on', channel=9, note=38, velocity=127, time=192),
    Message('note_off', channel=9, note=38, velocity=1, time=192),
    Message('note_on', channel=9, note=38, velocity=127, time=192),
    Message('note_off', channel=9, note=38, velocity=1, time=192),
    Message('note_on', channel=9, note=38, velocity=127, time=0),
    Message('note_off', channel=9, note=38, velocity=1, time=192),
    Message('note_on', channel=9, note=38, velocity=127, time=96),
    Message('note_off', channel=9, note=38, velocity=1, time=192),
    Message('note_on', channel=9, note=38, velocity=127, time=96),
    Message('note_off', channel=9, note=38, velocity=1, time=192),
    Message('note_on', channel=9, note=38, velocity=127, time=192),
    Message('note_off', channel=9, note=38, velocity=1, time=192),
    Message('note_on', channel=9, note=38, velocity=127, time=192),
    Message('note_off', channel=9, note=38, velocity=1, time=192),
    Message('note_on', channel=9, note=38, velocity=127, time=0),
    Message('note_off', channel=9, note=38, velocity=1, time=192),
    Message('note_on', channel=9, note=38, velocity=127, time=96),
    Message('note_off', channel=9, note=38, velocity=1, time=192),
    Message('note_on', channel=9, note=38, velocity=127, time=96),
    Message('note_off', channel=9, note=38, velocity=1, time=192),
    Message('note_on', channel=9, note=38, velocity=127, time=192),
    Message('note_off', channel=9, note=38, velocity=1, time=192),
    Message('note_on', channel=9, note=38, velocity=127, time=192),
    Message('note_off', channel=9, note=38, velocity=1, time=192),
    Message('note_on', channel=9, note=38, velocity=127, time=192),
    Message('note_off', channel=9, note=38, velocity=1, time=192),
    Message('note_on', channel=9, note=38, velocity=127, time=192),
    Message('note_off', channel=9, note=38, velocity=1, time=192),
    Message('note_on', channel=9, note=38, velocity=127, time=0),
    Message('note_off', channel=9, note=38, velocity=1, time=192),
    Message('note_on', channel=9, note=38, velocity=127, time=96),
    Message('note_off', channel=9, note=38, velocity=1, time=192),
    Message('note_on', channel=9, note=38, velocity=127, time=96),
    Message('note_off', channel=9, note=38, velocity=1, time=192),
    Message('note_on', channel=9, note=38, velocity=127, time=192),
    Message('note_off', channel=9, note=38, velocity=1, time=192),
    Message('note_on', channel=9, note=38, velocity=127, time=192),
    Message('note_off', channel=9, note=38, velocity=1, time=192),
    Message('note_on', channel=9, note=38, velocity=127, time=0),
    Message('note_off', channel=9, note=38, velocity=1, time=48),
    Message('note_on', channel=9, note=38, velocity=127, time=0),
    Message('note_off', channel=9, note=38, velocity=1, time=144),
    Message('note_on', channel=9, note=38, velocity=127, time=0),
    Message('note_off', channel=9, note=38, velocity=1, time=48),
    Message('note_on', channel=9, note=38, velocity=127, time=0),
    Message('note_off', channel=9, note=38, velocity=1, time=48),
    Message('note_on', channel=9, note=38, velocity=127, time=0),
    Message('note_off', channel=9, note=38, velocity=1, time=48),
    Message('note_on', channel=9, note=38, velocity=127, time=0),
    Message('note_off', channel=9, note=38, velocity=1, time=144),
    Message('note_on', channel=9, note=38, velocity=127, time=0),
    Message('note_off', channel=9, note=38, velocity=1, time=48),
    Message('note_on', channel=9, note=38, velocity=127, time=0),
    Message('note_off', channel=9, note=38, velocity=1, time=48),
    Message('note_on', channel=9, note=38, velocity=127, time=0),
    Message('note_off', channel=9, note=38, velocity=1, time=48),
    Message('note_on', channel=9, note=38, velocity=127, time=0),
    Message('note_off', channel=9, note=38, velocity=1, time=96),
    Message('note_on', channel=9, note=38, velocity=127, time=0),
    Message('note_off', channel=9, note=38, velocity=1, time=48),
    Message('note_on', channel=9, note=38, velocity=127, time=0),
    Message('note_off', channel=9, note=38, velocity=1, time=48),
    Message('note_on', channel=9, note=38, velocity=127, time=0),
    Message('note_off', channel=9, note=38, velocity=1, time=144),
    Message('note_on', channel=9, note=38, velocity=127, time=0),
    Message('note_off', channel=9, note=38, velocity=1, time=48),
    Message('note_on', channel=9, note=38, velocity=127, time=0),
    Message('note_off', channel=9, note=38, velocity=1, time=48),
    Message('note_on', channel=9, note=38, velocity=127, time=0),
    Message('note_off', channel=9, note=38, velocity=1, time=48),
    Message('note_on', channel=9, note=38, velocity=127, time=0),
    Message('note_off', channel=9, note=38, velocity=1, time=144),
    Message('note_on', channel=9, note=38, velocity=127, time=0),
    Message('note_off', channel=9, note=38, velocity=1, time=48),
    Message('note_on', channel=9, note=38, velocity=127, time=0),
    Message('note_off', channel=9, note=38, velocity=1, time=48),
    Message('note_on', channel=9, note=38, velocity=127, time=0),
    Message('note_off', channel=9, note=38, velocity=1, time=48),
    Message('note_on', channel=9, note=38, velocity=127, time=0),
    Message('note_off', channel=9, note=38, velocity=1, time=96),
    Message('note_on', channel=9, note=38, velocity=127, time=0),
    Message('note_off', channel=9, note=38, velocity=1, time=48),
    Message('note_on', channel=9, note=38, velocity=127, time=0),
    Message('note_off', channel=9, note=38, velocity=1, time=192),
    Message('note_on', channel=9, note=38, velocity=127, time=96),
    Message('note_off', channel=9, note=38, velocity=1, time=192),
    Message('note_on', channel=9, note=38, velocity=127, time=96),
    Message('note_off', channel=9, note=38, velocity=1, time=192),
    Message('note_on', channel=9, note=38, velocity=127, time=192),
    Message('note_off', channel=9, note=38, velocity=1, time=192),
    Message('note_on', channel=9, note=38, velocity=127, time=192),
    Message('note_off', channel=9, note=38, velocity=1, time=192),
    Message('note_on', channel=9, note=38, velocity=127, time=192),
    Message('note_off', channel=9, note=38, velocity=1, time=192),
    Message('note_on', channel=9, note=38, velocity=127, time=192),
    Message('note_off', channel=9, note=38, velocity=1, time=192),
    Message('note_on', channel=9, note=38, velocity=127, time=192),
    Message('note_off', channel=9, note=38, velocity=1, time=192),
    Message('note_on', channel=9, note=38, velocity=127, time=192),
    Message('note_off', channel=9, note=38, velocity=1, time=192),
    Message('note_on', channel=9, note=38, velocity=127, time=192),
    Message('note_off', channel=9, note=38, velocity=1, time=192),
    Message('note_on', channel=9, note=38, velocity=127, time=192),
    Message('note_off', channel=9, note=38, velocity=1, time=192),
    Message('note_on', channel=9, note=38, velocity=127, time=192),
    Message('note_off', channel=9, note=38, velocity=1, time=192),
    Message('note_on', channel=9, note=38, velocity=127, time=192),
    Message('note_off', channel=9, note=38, velocity=1, time=192),
    Message('note_on', channel=9, note=38, velocity=127, time=192),
    Message('note_off', channel=9, note=38, velocity=1, time=144),
    Message('note_on', channel=9, note=38, velocity=127, time=0),
    Message('note_off', channel=9, note=38, velocity=1, time=192),
    Message('note_on', channel=9, note=38, velocity=127, time=48),
    Message('note_off', channel=9, note=38, velocity=1, time=192),
    Message('note_on', channel=9, note=38, velocity=127, time=192),
    Message('note_off', channel=9, note=38, velocity=1, time=192),
    Message('note_on', channel=9, note=38, velocity=127, time=192),
    Message('note_off', channel=9, note=38, velocity=1, time=192),
    Message('note_on', channel=9, note=38, velocity=127, time=0),
    Message('note_off', channel=9, note=38, velocity=1, time=192),
    Message('note_on', channel=9, note=38, velocity=127, time=96),
    Message('note_off', channel=9, note=38, velocity=1, time=192),
    Message('note_on', channel=9, note=38, velocity=127, time=96),
    Message('note_off', channel=9, note=38, velocity=1, time=192),
    Message('note_on', channel=9, note=38, velocity=127, time=0),
    Message('note_off', channel=9, note=38, velocity=1, time=192),
    Message('note_on', channel=9, note=38, velocity=127, time=96),
    Message('note_off', channel=9, note=38, velocity=1, time=192),
    Message('note_on', channel=9, note=38, velocity=127, time=96),
    Message('note_off', channel=9, note=38, velocity=1, time=192),
    Message('control_change', channel=9, control=7, value=119, time=0),
    Message('control_change', channel=9, control=7, value=118, time=48),
    Message('control_change', channel=9, control=7, value=117, time=48),
    Message('control_change', channel=9, control=7, value=116, time=48),
    Message('control_change', channel=9, control=7, value=115, time=24),
    Message('note_on', channel=9, note=38, velocity=127, time=24),
    Message('control_change', channel=9, control=7, value=114, time=24),
    Message('control_change', channel=9, control=7, value=113, time=48),
    Message('control_change', channel=9, control=7, value=112, time=24),
    Message('control_change', channel=9, control=7, value=111, time=48),
    Message('note_off', channel=9, note=38, velocity=1, time=48),
    Message('control_change', channel=9, control=7, value=110, time=0),
    Message('control_change', channel=9, control=7, value=109, time=24),
    Message('control_change', channel=9, control=7, value=108, time=48),
    Message('control_change', channel=9, control=7, value=107, time=48),
    Message('control_change', channel=9, control=7, value=106, time=24),
    Message('control_change', channel=9, control=7, value=105, time=48),
    Message('note_on', channel=9, note=38, velocity=127, time=0),
    Message('control_change', channel=9, control=7, value=104, time=48),
    Message('control_change', channel=9, control=7, value=103, time=24),
    Message('control_change', channel=9, control=7, value=102, time=48),
    Message('control_change', channel=9, control=7, value=101, time=48),
    Message('note_off', channel=9, note=38, velocity=1, time=24),
    Message('control_change', channel=9, control=7, value=100, time=0),
    Message('control_change', channel=9, control=7, value=99, time=48),
    Message('control_change', channel=9, control=7, value=98, time=48),
    Message('control_change', channel=9, control=7, value=97, time=48),
    Message('control_change', channel=9, control=7, value=96, time=24),
    Message('note_on', channel=9, note=38, velocity=127, time=24),
    Message('control_change', channel=9, control=7, value=95, time=24),
    Message('control_change', channel=9, control=7, value=94, time=48),
    Message('control_change', channel=9, control=7, value=93, time=24),
    Message('control_change', channel=9, control=7, value=92, time=48),
    Message('note_off', channel=9, note=38, velocity=1, time=48),
    Message('control_change', channel=9, control=7, value=91, time=0),
    Message('control_change', channel=9, control=7, value=90, time=24),
    Message('control_change', channel=9, control=7, value=89, time=48),
    Message('control_change', channel=9, control=7, value=88, time=48),
    Message('control_change', channel=9, control=7, value=87, time=24),
    Message('control_change', channel=9, control=7, value=86, time=48),
    Message('note_on', channel=9, note=38, velocity=127, time=0),
    Message('control_change', channel=9, control=7, value=85, time=48),
    Message('control_change', channel=9, control=7, value=84, time=24),
    Message('control_change', channel=9, control=7, value=83, time=48),
    Message('control_change', channel=9, control=7, value=82, time=48),
    Message('note_off', channel=9, note=38, velocity=1, time=24),
    Message('control_change', channel=9, control=7, value=81, time=0),
    Message('control_change', channel=9, control=7, value=80, time=48),
    Message('control_change', channel=9, control=7, value=79, time=48),
    Message('control_change', channel=9, control=7, value=78, time=48),
    Message('control_change', channel=9, control=7, value=77, time=24),
    Message('note_on', channel=9, note=38, velocity=127, time=24),
    Message('control_change', channel=9, control=7, value=76, time=24),
    Message('control_change', channel=9, control=7, value=75, time=48),
    Message('control_change', channel=9, control=7, value=74, time=24),
    Message('control_change', channel=9, control=7, value=73, time=48),
    Message('note_off', channel=9, note=38, velocity=1, time=48),
    Message('control_change', channel=9, control=7, value=72, time=0),
    Message('control_change', channel=9, control=7, value=71, time=24),
    Message('control_change', channel=9, control=7, value=70, time=48),
    Message('control_change', channel=9, control=7, value=69, time=48),
    Message('control_change', channel=9, control=7, value=68, time=24),
    Message('control_change', channel=9, control=7, value=67, time=48),
    Message('note_on', channel=9, note=38, velocity=127, time=0),
    Message('control_change', channel=9, control=7, value=66, time=48),
    Message('control_change', channel=9, control=7, value=65, time=24),
    Message('control_change', channel=9, control=7, value=64, time=48),
    Message('control_change', channel=9, control=7, value=63, time=48),
    Message('note_off', channel=9, note=38, velocity=1, time=24),
    Message('control_change', channel=9, control=7, value=62, time=0),
    Message('control_change', channel=9, control=7, value=61, time=48),
    Message('control_change', channel=9, control=7, value=60, time=48),
    Message('control_change', channel=9, control=7, value=59, time=48),
    Message('control_change', channel=9, control=7, value=58, time=24),
    Message('note_on', channel=9, note=38, velocity=127, time=24),
    Message('control_change', channel=9, control=7, value=57, time=24),
    Message('control_change', channel=9, control=7, value=56, time=48),
    Message('control_change', channel=9, control=7, value=55, time=24),
    Message('control_change', channel=9, control=7, value=54, time=48),
    Message('note_off', channel=9, note=38, velocity=1, time=48),
    Message('control_change', channel=9, control=7, value=53, time=0),
    Message('control_change', channel=9, control=7, value=52, time=24),
    Message('control_change', channel=9, control=7, value=51, time=48),
    Message('control_change', channel=9, control=7, value=50, time=48),
    Message('control_change', channel=9, control=7, value=49, time=24),
    Message('control_change', channel=9, control=7, value=48, time=48),
    Message('note_on', channel=9, note=38, velocity=127, time=0),
    Message('control_change', channel=9, control=7, value=47, time=48),
    Message('control_change', channel=9, control=7, value=46, time=24),
    Message('control_change', channel=9, control=7, value=45, time=48),
    Message('control_change', channel=9, control=7, value=44, time=48),
    Message('note_off', channel=9, note=38, velocity=1, time=24),
    Message('control_change', channel=9, control=7, value=43, time=0),
    Message('control_change', channel=9, control=7, value=42, time=48),
    Message('control_change', channel=9, control=7, value=41, time=48),
    Message('control_change', channel=9, control=7, value=40, time=48),
    Message('control_change', channel=9, control=7, value=39, time=24),
    Message('note_on', channel=9, note=38, velocity=127, time=24),
    Message('control_change', channel=9, control=7, value=38, time=24),
    Message('control_change', channel=9, control=7, value=37, time=48),
    Message('control_change', channel=9, control=7, value=36, time=24),
    Message('control_change', channel=9, control=7, value=35, time=48),
    Message('note_off', channel=9, note=38, velocity=1, time=48),
    Message('control_change', channel=9, control=7, value=34, time=0),
    Message('control_change', channel=9, control=7, value=33, time=24),
    Message('control_change', channel=9, control=7, value=32, time=48),
    Message('control_change', channel=9, control=7, value=31, time=48),
    Message('control_change', channel=9, control=7, value=30, time=24),
    Message('control_change', channel=9, control=7, value=29, time=48),
    Message('note_on', channel=9, note=38, velocity=127, time=0),
    Message('control_change', channel=9, control=7, value=28, time=48),
    Message('control_change', channel=9, control=7, value=27, time=24),
    Message('control_change', channel=9, control=7, value=26, time=48),
    Message('control_change', channel=9, control=7, value=25, time=48),
    Message('note_off', channel=9, note=38, velocity=1, time=24),
    Message('control_change', channel=9, control=7, value=19, time=0),
    Message('control_change', channel=9, control=7, value=18, time=96),
    Message('control_change', channel=9, control=7, value=17, time=72),
    Message('note_on', channel=9, note=38, velocity=127, time=24),
    Message('control_change', channel=9, control=7, value=16, time=48),
    Message('control_change', channel=9, control=7, value=15, time=72),
    Message('note_off', channel=9, note=38, velocity=1, time=24),
    Message('note_on', channel=9, note=38, velocity=127, time=0),
    Message('control_change', channel=9, control=7, value=14, time=48),
    Message('control_change', channel=9, control=7, value=13, time=96),
    Message('note_off', channel=9, note=38, velocity=1, time=48),
    Message('control_change', channel=9, control=7, value=12, time=24),
    Message('note_on', channel=9, note=38, velocity=127, time=24),
    Message('control_change', channel=9, control=7, value=11, time=48),
    Message('control_change', channel=9, control=7, value=10, time=72),
    Message('note_off', channel=9, note=38, velocity=1, time=72),
    Message('control_change', channel=9, control=7, value=9, time=0),
    Message('control_change', channel=9, control=7, value=8, time=96),
    Message('control_change', channel=9, control=7, value=7, time=72),
    Message('note_on', channel=9, note=38, velocity=127, time=24),
    Message('control_change', channel=9, control=7, value=6, time=48),
    Message('control_change', channel=9, control=7, value=5, time=72),
    Message('note_off', channel=9, note=38, velocity=1, time=72),
    Message('control_change', channel=9, control=7, value=4, time=0),
    Message('control_change', channel=9, control=7, value=3, time=96),
    Message('control_change', channel=9, control=7, value=2, time=72),
    Message('note_on', channel=9, note=38, velocity=127, time=24),
    Message('control_change', channel=9, control=7, value=1, time=48),
    Message('control_change', channel=9, control=7, value=0, time=72),
    Message('note_off', channel=9, note=38, velocity=1, time=72),
    Message('pitchwheel', channel=9, pitch=0, time=768),
    Message('polytouch', channel=9, note=64, value=0, time=0),
    Message('aftertouch', channel=9, value=0, time=0),
    Message('control_change', channel=9, control=1, value=0, time=0),
    Message('control_change', channel=9, control=2, value=0, time=0),
    Message('control_change', channel=9, control=4, value=0, time=0),
    Message('control_change', channel=9, control=7, value=100, time=0),
    Message('control_change', channel=9, control=8, value=0, time=0),
    Message('control_change', channel=9, control=10, value=63, time=0),
    Message('control_change', channel=9, control=64, value=0, time=0),
    Message('control_change', channel=9, control=65, value=0, time=0),
    Message('control_change', channel=9, control=66, value=0, time=0),
    Message('control_change', channel=9, control=67, value=0, time=0),
    Message('control_change', channel=9, control=68, value=0, time=0),
    MetaMessage('end_of_track', time=0)]),
  MidiTrack([
    MetaMessage('midi_port', port=0, time=0),
    MetaMessage('track_name', name='Elec Snares         ', time=0),
    Message('control_change', channel=9, control=7, value=111, time=0),
    Message('control_change', channel=9, control=7, value=112, time=264),
    Message('control_change', channel=9, control=7, value=113, time=264),
    Message('control_change', channel=9, control=7, value=114, time=239),
    Message('control_change', channel=9, control=7, value=114, time=1531),
    Message('control_change', channel=9, control=7, value=114, time=2304),
    Message('control_change', channel=9, control=7, value=114, time=2304),
    Message('control_change', channel=9, control=7, value=113, time=52224),
    Message('note_on', channel=9, note=40, velocity=127, time=192),
    Message('note_off', channel=9, note=40, velocity=1, time=192),
    Message('note_on', channel=9, note=40, velocity=127, time=192),
    Message('note_off', channel=9, note=40, velocity=1, time=192),
    Message('note_on', channel=9, note=40, velocity=127, time=192),
    Message('note_off', channel=9, note=40, velocity=1, time=192),
    Message('note_on', channel=9, note=40, velocity=127, time=192),
    Message('note_off', channel=9, note=40, velocity=1, time=192),
    Message('note_on', channel=9, note=40, velocity=127, time=192),
    Message('note_off', channel=9, note=40, velocity=1, time=192),
    Message('note_on', channel=9, note=40, velocity=127, time=192),
    Message('note_off', channel=9, note=40, velocity=1, time=192),
    Message('note_on', channel=9, note=40, velocity=127, time=0),
    Message('note_off', channel=9, note=40, velocity=1, time=192),
    Message('note_on', channel=9, note=40, velocity=127, time=96),
    Message('note_off', channel=9, note=40, velocity=1, time=192),
    Message('note_on', channel=9, note=40, velocity=127, time=96),
    Message('note_off', channel=9, note=40, velocity=1, time=192),
    Message('control_change', channel=9, control=7, value=123, time=0),
    Message('note_on', channel=9, note=40, velocity=127, time=192),
    Message('note_off', channel=9, note=40, velocity=1, time=192),
    Message('note_on', channel=9, note=40, velocity=127, time=192),
    Message('note_off', channel=9, note=40, velocity=1, time=192),
    Message('note_on', channel=9, note=40, velocity=127, time=192),
    Message('note_off', channel=9, note=40, velocity=1, time=192),
    Message('note_on', channel=9, note=40, velocity=127, time=192),
    Message('note_off', channel=9, note=40, velocity=1, time=192),
    Message('note_on', channel=9, note=40, velocity=127, time=192),
    Message('note_off', channel=9, note=40, velocity=1, time=192),
    Message('note_on', channel=9, note=40, velocity=127, time=192),
    Message('note_off', channel=9, note=40, velocity=1, time=192),
    Message('note_on', channel=9, note=40, velocity=127, time=192),
    Message('note_off', channel=9, note=40, velocity=1, time=192),
    Message('note_on', channel=9, note=40, velocity=127, time=192),
    Message('note_off', channel=9, note=40, velocity=1, time=192),
    Message('note_on', channel=9, note=40, velocity=127, time=0),
    Message('note_off', channel=9, note=40, velocity=1, time=48),
    Message('note_on', channel=9, note=40, velocity=127, time=0),
    Message('note_off', channel=9, note=40, velocity=1, time=144),
    Message('note_on', channel=9, note=40, velocity=127, time=0),
    Message('note_off', channel=9, note=40, velocity=1, time=48),
    Message('note_on', channel=9, note=40, velocity=127, time=0),
    Message('note_off', channel=9, note=40, velocity=1, time=48),
    Message('note_on', channel=9, note=40, velocity=127, time=0),
    Message('note_off', channel=9, note=40, velocity=1, time=48),
    Message('note_on', channel=9, note=40, velocity=127, time=0),
    Message('note_off', channel=9, note=40, velocity=1, time=144),
    Message('note_on', channel=9, note=40, velocity=127, time=0),
    Message('note_off', channel=9, note=40, velocity=1, time=48),
    Message('note_on', channel=9, note=40, velocity=127, time=0),
    Message('note_off', channel=9, note=40, velocity=1, time=48),
    Message('note_on', channel=9, note=40, velocity=127, time=0),
    Message('note_off', channel=9, note=40, velocity=1, time=48),
    Message('note_on', channel=9, note=40, velocity=127, time=0),
    Message('note_off', channel=9, note=40, velocity=1, time=96),
    Message('note_on', channel=9, note=40, velocity=127, time=0),
    Message('note_off', channel=9, note=40, velocity=1, time=48),
    Message('note_on', channel=9, note=40, velocity=127, time=0),
    Message('note_off', channel=9, note=40, velocity=1, time=192),
    Message('note_on', channel=9, note=40, velocity=127, time=96),
    Message('note_off', channel=9, note=40, velocity=1, time=192),
    Message('note_on', channel=9, note=40, velocity=127, time=96),
    Message('note_off', channel=9, note=40, velocity=1, time=192),
    Message('note_on', channel=9, note=40, velocity=127, time=0),
    Message('note_off', channel=9, note=40, velocity=1, time=48),
    Message('note_on', channel=9, note=40, velocity=127, time=0),
    Message('note_off', channel=9, note=40, velocity=1, time=144),
    Message('note_on', channel=9, note=40, velocity=127, time=0),
    Message('note_off', channel=9, note=40, velocity=1, time=48),
    Message('note_on', channel=9, note=40, velocity=127, time=0),
    Message('note_off', channel=9, note=40, velocity=1, time=48),
    Message('note_on', channel=9, note=40, velocity=127, time=0),
    Message('note_off', channel=9, note=40, velocity=1, time=48),
    Message('note_on', channel=9, note=40, velocity=127, time=0),
    Message('note_off', channel=9, note=40, velocity=1, time=144),
    Message('note_on', channel=9, note=40, velocity=127, time=0),
    Message('note_off', channel=9, note=40, velocity=1, time=48),
    Message('note_on', channel=9, note=40, velocity=127, time=0),
    Message('note_off', channel=9, note=40, velocity=1, time=48),
    Message('note_on', channel=9, note=40, velocity=127, time=0),
    Message('note_off', channel=9, note=40, velocity=1, time=48),
    Message('note_on', channel=9, note=40, velocity=127, time=0),
    Message('note_off', channel=9, note=40, velocity=1, time=96),
    Message('note_on', channel=9, note=40, velocity=127, time=0),
    Message('note_off', channel=9, note=40, velocity=1, time=192),
    Message('note_on', channel=9, note=40, velocity=127, time=48),
    Message('note_off', channel=9, note=40, velocity=1, time=192),
    Message('note_on', channel=9, note=40, velocity=127, time=192),
    Message('note_off', channel=9, note=40, velocity=1, time=192),
    Message('note_on', channel=9, note=40, velocity=127, time=0),
    Message('note_off', channel=9, note=40, velocity=1, time=192),
    Message('note_on', channel=9, note=40, velocity=127, time=96),
    Message('note_off', channel=9, note=40, velocity=1, time=192),
    Message('note_on', channel=9, note=40, velocity=127, time=96),
    Message('note_off', channel=9, note=40, velocity=1, time=192),
    Message('note_on', channel=9, note=40, velocity=127, time=192),
    Message('note_off', channel=9, note=40, velocity=1, time=192),
    Message('note_on', channel=9, note=40, velocity=127, time=192),
    Message('note_off', channel=9, note=40, velocity=1, time=192),
    Message('note_on', channel=9, note=40, velocity=127, time=0),
    Message('note_off', channel=9, note=40, velocity=1, time=192),
    Message('note_on', channel=9, note=40, velocity=127, time=96),
    Message('note_off', channel=9, note=40, velocity=1, time=192),
    Message('note_on', channel=9, note=40, velocity=127, time=96),
    Message('note_off', channel=9, note=40, velocity=1, time=192),
    Message('note_on', channel=9, note=40, velocity=127, time=192),
    Message('note_off', channel=9, note=40, velocity=1, time=192),
    Message('note_on', channel=9, note=40, velocity=127, time=192),
    Message('note_off', channel=9, note=40, velocity=1, time=192),
    Message('note_on', channel=9, note=40, velocity=127, time=192),
    Message('note_off', channel=9, note=40, velocity=1, time=192),
    Message('note_on', channel=9, note=40, velocity=127, time=192),
    Message('note_off', channel=9, note=40, velocity=1, time=192),
    Message('note_on', channel=9, note=40, velocity=127, time=192),
    Message('note_off', channel=9, note=40, velocity=1, time=192),
    Message('note_on', channel=9, note=40, velocity=127, time=192),
    Message('note_off', channel=9, note=40, velocity=1, time=192),
    Message('note_on', channel=9, note=40, velocity=127, time=192),
    Message('note_off', channel=9, note=40, velocity=1, time=192),
    Message('note_on', channel=9, note=40, velocity=127, time=192),
    Message('note_off', channel=9, note=40, velocity=1, time=192),
    Message('note_on', channel=9, note=40, velocity=127, time=0),
    Message('note_off', channel=9, note=40, velocity=1, time=192),
    Message('note_on', channel=9, note=40, velocity=127, time=96),
    Message('note_off', channel=9, note=40, velocity=1, time=192),
    Message('note_on', channel=9, note=40, velocity=127, time=192),
    Message('note_off', channel=9, note=40, velocity=1, time=48),
    Message('note_on', channel=9, note=40, velocity=127, time=0),
    Message('note_off', channel=9, note=40, velocity=1, time=192),
    Message('note_on', channel=9, note=40, velocity=127, time=48),
    Message('note_off', channel=9, note=40, velocity=1, time=192),
    Message('note_on', channel=9, note=40, velocity=127, time=192),
    Message('note_off', channel=9, note=40, velocity=1, time=192),
    Message('note_on', channel=9, note=40, velocity=127, time=192),
    Message('note_off', channel=9, note=40, velocity=1, time=192),
    Message('note_on', channel=9, note=40, velocity=127, time=192),
    Message('note_off', channel=9, note=40, velocity=1, time=192),
    Message('note_on', channel=9, note=40, velocity=127, time=192),
    Message('note_off', channel=9, note=40, velocity=1, time=192),
    Message('note_on', channel=9, note=40, velocity=127, time=192),
    Message('note_off', channel=9, note=40, velocity=1, time=192),
    Message('note_on', channel=9, note=40, velocity=127, time=0),
    Message('note_off', channel=9, note=40, velocity=1, time=192),
    Message('note_on', channel=9, note=40, velocity=127, time=96),
    Message('note_off', channel=9, note=40, velocity=1, time=192),
    Message('note_on', channel=9, note=40, velocity=127, time=192),
    Message('note_off', channel=9, note=40, velocity=1, time=48),
    Message('note_on', channel=9, note=40, velocity=127, time=0),
    Message('note_off', channel=9, note=40, velocity=1, time=48),
    Message('note_on', channel=9, note=40, velocity=127, time=0),
    Message('note_off', channel=9, note=40, velocity=1, time=192),
    Message('note_on', channel=9, note=40, velocity=127, time=96),
    Message('note_off', channel=9, note=40, velocity=1, time=192),
    Message('note_on', channel=9, note=40, velocity=127, time=96),
    Message('note_off', channel=9, note=40, velocity=1, time=192),
    Message('note_on', channel=9, note=40, velocity=127, time=192),
    Message('note_off', channel=9, note=40, velocity=1, time=192),
    Message('note_on', channel=9, note=40, velocity=127, time=192),
    Message('note_off', channel=9, note=40, velocity=1, time=192),
    Message('note_on', channel=9, note=40, velocity=127, time=0),
    Message('note_off', channel=9, note=40, velocity=1, time=192),
    Message('note_on', channel=9, note=40, velocity=127, time=96),
    Message('note_off', channel=9, note=40, velocity=1, time=192),
    Message('note_on', channel=9, note=40, velocity=127, time=96),
    Message('note_off', channel=9, note=40, velocity=1, time=192),
    Message('note_on', channel=9, note=40, velocity=127, time=192),
    Message('note_off', channel=9, note=40, velocity=1, time=192),
    Message('note_on', channel=9, note=40, velocity=127, time=192),
    Message('note_off', channel=9, note=40, velocity=1, time=192),
    Message('note_on', channel=9, note=40, velocity=127, time=0),
    Message('note_off', channel=9, note=40, velocity=1, time=48),
    Message('note_on', channel=9, note=40, velocity=127, time=0),
    Message('note_off', channel=9, note=40, velocity=1, time=144),
    Message('note_on', channel=9, note=40, velocity=127, time=0),
    Message('note_off', channel=9, note=40, velocity=1, time=48),
    Message('note_on', channel=9, note=40, velocity=127, time=0),
    Message('note_off', channel=9, note=40, velocity=1, time=48),
    Message('note_on', channel=9, note=40, velocity=127, time=0),
    Message('note_off', channel=9, note=40, velocity=1, time=48),
    Message('note_on', channel=9, note=40, velocity=127, time=0),
    Message('note_off', channel=9, note=40, velocity=1, time=144),
    Message('note_on', channel=9, note=40, velocity=127, time=0),
    Message('note_off', channel=9, note=40, velocity=1, time=48),
    Message('note_on', channel=9, note=40, velocity=127, time=0),
    Message('note_off', channel=9, note=40, velocity=1, time=48),
    Message('note_on', channel=9, note=40, velocity=127, time=0),
    Message('note_off', channel=9, note=40, velocity=1, time=48),
    Message('note_on', channel=9, note=40, velocity=127, time=0),
    Message('note_off', channel=9, note=40, velocity=1, time=96),
    Message('note_on', channel=9, note=40, velocity=127, time=0),
    Message('note_off', channel=9, note=40, velocity=1, time=48),
    Message('note_on', channel=9, note=40, velocity=127, time=0),
    Message('note_off', channel=9, note=40, velocity=1, time=192),
    Message('note_on', channel=9, note=40, velocity=127, time=96),
    Message('note_off', channel=9, note=40, velocity=1, time=192),
    Message('note_on', channel=9, note=40, velocity=127, time=96),
    Message('note_off', channel=9, note=40, velocity=1, time=192),
    Message('note_on', channel=9, note=40, velocity=127, time=192),
    Message('note_off', channel=9, note=40, velocity=1, time=192),
    Message('note_on', channel=9, note=40, velocity=127, time=192),
    Message('note_off', channel=9, note=40, velocity=1, time=192),
    Message('note_on', channel=9, note=40, velocity=127, time=0),
    Message('note_off', channel=9, note=40, velocity=1, time=192),
    Message('note_on', channel=9, note=40, velocity=127, time=96),
    Message('note_off', channel=9, note=40, velocity=1, time=192),
    Message('note_on', channel=9, note=40, velocity=127, time=96),
    Message('note_off', channel=9, note=40, velocity=1, time=192),
    Message('note_on', channel=9, note=40, velocity=127, time=192),
    Message('note_off', channel=9, note=40, velocity=1, time=192),
    Message('note_on', channel=9, note=40, velocity=127, time=192),
    Message('note_off', channel=9, note=40, velocity=1, time=192),
    Message('note_on', channel=9, note=40, velocity=127, time=0),
    Message('note_off', channel=9, note=40, velocity=1, time=192),
    Message('note_on', channel=9, note=40, velocity=127, time=96),
    Message('note_off', channel=9, note=40, velocity=1, time=192),
    Message('note_on', channel=9, note=40, velocity=127, time=96),
    Message('note_off', channel=9, note=40, velocity=1, time=192),
    Message('control_change', channel=9, control=7, value=125, time=0),
    Message('note_on', channel=9, note=40, velocity=127, time=192),
    Message('note_off', channel=9, note=40, velocity=1, time=192),
    Message('note_on', channel=9, note=40, velocity=127, time=192),
    Message('note_off', channel=9, note=40, velocity=1, time=192),
    Message('note_on', channel=9, note=40, velocity=127, time=0),
    Message('note_off', channel=9, note=40, velocity=1, time=192),
    Message('note_on', channel=9, note=40, velocity=127, time=96),
    Message('note_off', channel=9, note=40, velocity=1, time=192),
    Message('note_on', channel=9, note=40, velocity=127, time=96),
    Message('note_off', channel=9, note=40, velocity=1, time=192),
    Message('note_on', channel=9, note=40, velocity=127, time=192),
    Message('note_off', channel=9, note=40, velocity=1, time=192),
    Message('note_on', channel=9, note=40, velocity=127, time=192),
    Message('note_off', channel=9, note=40, velocity=1, time=192),
    Message('note_on', channel=9, note=40, velocity=127, time=0),
    Message('note_off', channel=9, note=40, velocity=1, time=192),
    Message('note_on', channel=9, note=40, velocity=127, time=96),
    Message('note_off', channel=9, note=40, velocity=1, time=192),
    Message('note_on', channel=9, note=40, velocity=127, time=96),
    Message('note_off', channel=9, note=40, velocity=1, time=192),
    Message('note_on', channel=9, note=40, velocity=127, time=192),
    Message('note_off', channel=9, note=40, velocity=1, time=192),
    Message('note_on', channel=9, note=40, velocity=127, time=192),
    Message('note_off', channel=9, note=40, velocity=1, time=192),
    Message('note_on', channel=9, note=40, velocity=127, time=192),
    Message('note_off', channel=9, note=40, velocity=1, time=192),
    Message('note_on', channel=9, note=40, velocity=127, time=192),
    Message('note_off', channel=9, note=40, velocity=1, time=192),
    Message('note_on', channel=9, note=40, velocity=127, time=0),
    Message('note_off', channel=9, note=40, velocity=1, time=192),
    Message('note_on', channel=9, note=40, velocity=127, time=96),
    Message('note_off', channel=9, note=40, velocity=1, time=192),
    Message('note_on', channel=9, note=40, velocity=127, time=96),
    Message('note_off', channel=9, note=40, velocity=1, time=192),
    Message('note_on', channel=9, note=40, velocity=127, time=192),
    Message('note_off', channel=9, note=40, velocity=1, time=192),
    Message('note_on', channel=9, note=40, velocity=127, time=192),
    Message('note_off', channel=9, note=40, velocity=1, time=192),
    Message('note_on', channel=9, note=40, velocity=127, time=6),
    Message('note_off', channel=9, note=40, velocity=1, time=42),
    Message('note_on', channel=9, note=40, velocity=127, time=0),
    Message('note_off', channel=9, note=40, velocity=1, time=144),
    Message('note_on', channel=9, note=40, velocity=127, time=0),
    Message('note_off', channel=9, note=40, velocity=1, time=48),
    Message('note_on', channel=9, note=40, velocity=127, time=0),
    Message('note_off', channel=9, note=40, velocity=1, time=48),
    Message('note_on', channel=9, note=40, velocity=127, time=0),
    Message('note_off', channel=9, note=40, velocity=1, time=48),
    Message('note_on', channel=9, note=40, velocity=127, time=0),
    Message('note_off', channel=9, note=40, velocity=1, time=144),
    Message('note_on', channel=9, note=40, velocity=127, time=0),
    Message('note_off', channel=9, note=40, velocity=1, time=48),
    Message('note_on', channel=9, note=40, velocity=127, time=0),
    Message('note_off', channel=9, note=40, velocity=1, time=48),
    Message('note_on', channel=9, note=40, velocity=127, time=0),
    Message('note_off', channel=9, note=40, velocity=1, time=48),
    Message('note_on', channel=9, note=40, velocity=127, time=0),
    Message('note_off', channel=9, note=40, velocity=1, time=96),
    Message('note_on', channel=9, note=40, velocity=127, time=0),
    Message('note_off', channel=9, note=40, velocity=1, time=48),
    Message('note_on', channel=9, note=40, velocity=127, time=6),
    Message('note_off', channel=9, note=40, velocity=1, time=42),
    Message('note_on', channel=9, note=40, velocity=127, time=0),
    Message('note_off', channel=9, note=40, velocity=1, time=144),
    Message('note_on', channel=9, note=40, velocity=127, time=0),
    Message('note_off', channel=9, note=40, velocity=1, time=48),
    Message('note_on', channel=9, note=40, velocity=127, time=0),
    Message('note_off', channel=9, note=40, velocity=1, time=48),
    Message('note_on', channel=9, note=40, velocity=127, time=0),
    Message('note_off', channel=9, note=40, velocity=1, time=48),
    Message('note_on', channel=9, note=40, velocity=127, time=0),
    Message('note_off', channel=9, note=40, velocity=1, time=144),
    Message('note_on', channel=9, note=40, velocity=127, time=0),
    Message('note_off', channel=9, note=40, velocity=1, time=48),
    Message('note_on', channel=9, note=40, velocity=127, time=0),
    Message('note_off', channel=9, note=40, velocity=1, time=48),
    Message('note_on', channel=9, note=40, velocity=127, time=0),
    Message('note_off', channel=9, note=40, velocity=1, time=48),
    Message('note_on', channel=9, note=40, velocity=127, time=0),
    Message('note_off', channel=9, note=40, velocity=1, time=96),
    Message('note_on', channel=9, note=40, velocity=127, time=0),
    Message('note_off', channel=9, note=40, velocity=1, time=48),
    Message('note_on', channel=9, note=40, velocity=127, time=6),
    Message('note_off', channel=9, note=40, velocity=1, time=186),
    Message('note_on', channel=9, note=40, velocity=127, time=96),
    Message('note_off', channel=9, note=40, velocity=1, time=192),
    Message('note_on', channel=9, note=40, velocity=127, time=96),
    Message('note_off', channel=9, note=40, velocity=1, time=192),
    Message('note_on', channel=9, note=40, velocity=127, time=192),
    Message('note_off', channel=9, note=40, velocity=1, time=192),
    Message('note_on', channel=9, note=40, velocity=127, time=192),
    Message('note_off', channel=9, note=40, velocity=1, time=192),
    Message('note_on', channel=9, note=40, velocity=127, time=192),
    Message('note_off', channel=9, note=40, velocity=1, time=192),
    Message('note_on', channel=9, note=40, velocity=127, time=192),
    Message('note_off', channel=9, note=40, velocity=1, time=192),
    Message('note_on', channel=9, note=40, velocity=127, time=192),
    Message('note_off', channel=9, note=40, velocity=1, time=192),
    Message('note_on', channel=9, note=40, velocity=127, time=192),
    Message('note_off', channel=9, note=40, velocity=1, time=192),
    Message('note_on', channel=9, note=40, velocity=127, time=192),
    Message('note_off', channel=9, note=40, velocity=1, time=192),
    Message('note_on', channel=9, note=40, velocity=127, time=192),
    Message('note_off', channel=9, note=40, velocity=1, time=192),
    Message('note_on', channel=9, note=40, velocity=127, time=192),
    Message('note_off', channel=9, note=40, velocity=1, time=192),
    Message('note_on', channel=9, note=40, velocity=127, time=192),
    Message('note_off', channel=9, note=40, velocity=1, time=192),
    Message('note_on', channel=9, note=40, velocity=127, time=192),
    Message('note_off', channel=9, note=40, velocity=1, time=144),
    Message('note_on', channel=9, note=40, velocity=127, time=0),
    Message('note_off', channel=9, note=40, velocity=1, time=192),
    Message('note_on', channel=9, note=40, velocity=127, time=48),
    Message('note_off', channel=9, note=40, velocity=1, time=192),
    Message('note_on', channel=9, note=40, velocity=127, time=192),
    Message('note_off', channel=9, note=40, velocity=1, time=192),
    Message('note_on', channel=9, note=40, velocity=127, time=192),
    Message('note_off', channel=9, note=40, velocity=1, time=192),
    Message('note_on', channel=9, note=40, velocity=127, time=0),
    Message('note_off', channel=9, note=40, velocity=1, time=192),
    Message('note_on', channel=9, note=40, velocity=127, time=96),
    Message('note_off', channel=9, note=40, velocity=1, time=192),
    Message('note_on', channel=9, note=40, velocity=127, time=96),
    Message('note_off', channel=9, note=40, velocity=1, time=192),
    Message('note_on', channel=9, note=40, velocity=127, time=0),
    Message('note_off', channel=9, note=40, velocity=1, time=192),
    Message('note_on', channel=9, note=40, velocity=127, time=96),
    Message('note_off', channel=9, note=40, velocity=1, time=192),
    Message('note_on', channel=9, note=40, velocity=127, time=96),
    Message('note_off', channel=9, note=40, velocity=1, time=192),
    Message('control_change', channel=9, control=7, value=119, time=6),
    Message('control_change', channel=9, control=7, value=118, time=48),
    Message('control_change', channel=9, control=7, value=117, time=48),
    Message('control_change', channel=9, control=7, value=116, time=48),
    Message('control_change', channel=9, control=7, value=115, time=24),
    Message('note_on', channel=9, note=40, velocity=127, time=18),
    Message('control_change', channel=9, control=7, value=114, time=30),
    Message('control_change', channel=9, control=7, value=113, time=48),
    Message('control_change', channel=9, control=7, value=112, time=24),
    Message('control_change', channel=9, control=7, value=111, time=48),
    Message('note_off', channel=9, note=40, velocity=1, time=42),
    Message('control_change', channel=9, control=7, value=110, time=6),
    Message('control_change', channel=9, control=7, value=109, time=24),
    Message('control_change', channel=9, control=7, value=108, time=48),
    Message('control_change', channel=9, control=7, value=107, time=48),
    Message('control_change', channel=9, control=7, value=106, time=24),
    Message('note_on', channel=9, note=40, velocity=127, time=42),
    Message('control_change', channel=9, control=7, value=105, time=6),
    Message('control_change', channel=9, control=7, value=104, time=48),
    Message('control_change', channel=9, control=7, value=103, time=24),
    Message('control_change', channel=9, control=7, value=102, time=48),
    Message('control_change', channel=9, control=7, value=101, time=48),
    Message('note_off', channel=9, note=40, velocity=1, time=18),
    Message('control_change', channel=9, control=7, value=100, time=6),
    Message('control_change', channel=9, control=7, value=99, time=48),
    Message('control_change', channel=9, control=7, value=98, time=48),
    Message('control_change', channel=9, control=7, value=97, time=48),
    Message('control_change', channel=9, control=7, value=96, time=24),
    Message('note_on', channel=9, note=40, velocity=127, time=18),
    Message('control_change', channel=9, control=7, value=95, time=30),
    Message('control_change', channel=9, control=7, value=94, time=48),
    Message('control_change', channel=9, control=7, value=93, time=24),
    Message('control_change', channel=9, control=7, value=92, time=48),
    Message('note_off', channel=9, note=40, velocity=1, time=42),
    Message('control_change', channel=9, control=7, value=91, time=6),
    Message('control_change', channel=9, control=7, value=90, time=24),
    Message('control_change', channel=9, control=7, value=89, time=48),
    Message('control_change', channel=9, control=7, value=88, time=48),
    Message('control_change', channel=9, control=7, value=87, time=24),
    Message('note_on', channel=9, note=40, velocity=127, time=42),
    Message('control_change', channel=9, control=7, value=86, time=6),
    Message('control_change', channel=9, control=7, value=85, time=48),
    Message('control_change', channel=9, control=7, value=84, time=24),
    Message('control_change', channel=9, control=7, value=83, time=48),
    Message('control_change', channel=9, control=7, value=82, time=48),
    Message('note_off', channel=9, note=40, velocity=1, time=18),
    Message('control_change', channel=9, control=7, value=81, time=6),
    Message('control_change', channel=9, control=7, value=80, time=48),
    Message('control_change', channel=9, control=7, value=79, time=48),
    Message('control_change', channel=9, control=7, value=78, time=48),
    Message('control_change', channel=9, control=7, value=77, time=24),
    Message('note_on', channel=9, note=40, velocity=127, time=18),
    Message('control_change', channel=9, control=7, value=76, time=30),
    Message('control_change', channel=9, control=7, value=75, time=48),
    Message('control_change', channel=9, control=7, value=74, time=24),
    Message('control_change', channel=9, control=7, value=73, time=48),
    Message('note_off', channel=9, note=40, velocity=1, time=42),
    Message('control_change', channel=9, control=7, value=72, time=6),
    Message('control_change', channel=9, control=7, value=71, time=24),
    Message('control_change', channel=9, control=7, value=70, time=48),
    Message('control_change', channel=9, control=7, value=69, time=48),
    Message('control_change', channel=9, control=7, value=68, time=24),
    Message('note_on', channel=9, note=40, velocity=127, time=42),
    Message('control_change', channel=9, control=7, value=67, time=6),
    Message('control_change', channel=9, control=7, value=66, time=48),
    Message('control_change', channel=9, control=7, value=65, time=24),
    Message('control_change', channel=9, control=7, value=64, time=48),
    Message('control_change', channel=9, control=7, value=63, time=48),
    Message('note_off', channel=9, note=40, velocity=1, time=18),
    Message('control_change', channel=9, control=7, value=62, time=6),
    Message('control_change', channel=9, control=7, value=61, time=48),
    Message('control_change', channel=9, control=7, value=60, time=48),
    Message('control_change', channel=9, control=7, value=59, time=48),
    Message('control_change', channel=9, control=7, value=58, time=24),
    Message('note_on', channel=9, note=40, velocity=127, time=18),
    Message('control_change', channel=9, control=7, value=57, time=30),
    Message('control_change', channel=9, control=7, value=56, time=48),
    Message('control_change', channel=9, control=7, value=55, time=24),
    Message('control_change', channel=9, control=7, value=54, time=48),
    Message('note_off', channel=9, note=40, velocity=1, time=42),
    Message('control_change', channel=9, control=7, value=53, time=6),
    Message('control_change', channel=9, control=7, value=52, time=24),
    Message('control_change', channel=9, control=7, value=51, time=48),
    Message('control_change', channel=9, control=7, value=50, time=48),
    Message('control_change', channel=9, control=7, value=49, time=24),
    Message('note_on', channel=9, note=40, velocity=127, time=42),
    Message('control_change', channel=9, control=7, value=48, time=6),
    Message('control_change', channel=9, control=7, value=47, time=48),
    Message('control_change', channel=9, control=7, value=46, time=24),
    Message('control_change', channel=9, control=7, value=45, time=48),
    Message('control_change', channel=9, control=7, value=44, time=48),
    Message('note_off', channel=9, note=40, velocity=1, time=18),
    Message('control_change', channel=9, control=7, value=43, time=6),
    Message('control_change', channel=9, control=7, value=42, time=48),
    Message('control_change', channel=9, control=7, value=41, time=48),
    Message('control_change', channel=9, control=7, value=40, time=48),
    Message('control_change', channel=9, control=7, value=39, time=24),
    Message('note_on', channel=9, note=40, velocity=127, time=18),
    Message('control_change', channel=9, control=7, value=38, time=30),
    Message('control_change', channel=9, control=7, value=37, time=48),
    Message('control_change', channel=9, control=7, value=36, time=24),
    Message('control_change', channel=9, control=7, value=35, time=48),
    Message('note_off', channel=9, note=40, velocity=1, time=42),
    Message('control_change', channel=9, control=7, value=34, time=6),
    Message('control_change', channel=9, control=7, value=33, time=24),
    Message('control_change', channel=9, control=7, value=32, time=48),
    Message('control_change', channel=9, control=7, value=31, time=48),
    Message('control_change', channel=9, control=7, value=30, time=24),
    Message('note_on', channel=9, note=40, velocity=127, time=42),
    Message('control_change', channel=9, control=7, value=29, time=6),
    Message('control_change', channel=9, control=7, value=28, time=48),
    Message('control_change', channel=9, control=7, value=27, time=24),
    Message('control_change', channel=9, control=7, value=26, time=48),
    Message('control_change', channel=9, control=7, value=25, time=48),
    Message('note_off', channel=9, note=40, velocity=1, time=18),
    Message('control_change', channel=9, control=7, value=19, time=6),
    Message('control_change', channel=9, control=7, value=18, time=96),
    Message('control_change', channel=9, control=7, value=17, time=72),
    Message('note_on', channel=9, note=40, velocity=127, time=18),
    Message('control_change', channel=9, control=7, value=16, time=54),
    Message('control_change', channel=9, control=7, value=15, time=72),
    Message('note_off', channel=9, note=40, velocity=1, time=18),
    Message('note_on', channel=9, note=40, velocity=127, time=0),
    Message('control_change', channel=9, control=7, value=14, time=54),
    Message('control_change', channel=9, control=7, value=13, time=96),
    Message('note_off', channel=9, note=40, velocity=1, time=42),
    Message('control_change', channel=9, control=7, value=12, time=30),
    Message('note_on', channel=9, note=40, velocity=127, time=18),
    Message('control_change', channel=9, control=7, value=11, time=54),
    Message('control_change', channel=9, control=7, value=10, time=72),
    Message('note_off', channel=9, note=40, velocity=1, time=66),
    Message('control_change', channel=9, control=7, value=9, time=6),
    Message('control_change', channel=9, control=7, value=8, time=96),
    Message('control_change', channel=9, control=7, value=7, time=72),
    Message('note_on', channel=9, note=40, velocity=127, time=18),
    Message('control_change', channel=9, control=7, value=6, time=54),
    Message('control_change', channel=9, control=7, value=5, time=72),
    Message('note_off', channel=9, note=40, velocity=1, time=66),
    Message('control_change', channel=9, control=7, value=4, time=6),
    Message('control_change', channel=9, control=7, value=3, time=96),
    Message('control_change', channel=9, control=7, value=2, time=72),
    Message('note_on', channel=9, note=40, velocity=127, time=18),
    Message('control_change', channel=9, control=7, value=1, time=54),
    Message('control_change', channel=9, control=7, value=0, time=72),
    Message('note_off', channel=9, note=40, velocity=1, time=66),
    Message('pitchwheel', channel=9, pitch=0, time=774),
    Message('polytouch', channel=9, note=64, value=0, time=0),
    Message('aftertouch', channel=9, value=0, time=0),
    Message('control_change', channel=9, control=1, value=0, time=0),
    Message('control_change', channel=9, control=2, value=0, time=0),
    Message('control_change', channel=9, control=4, value=0, time=0),
    Message('control_change', channel=9, control=7, value=100, time=0),
    Message('control_change', channel=9, control=8, value=0, time=0),
    Message('control_change', channel=9, control=10, value=63, time=0),
    Message('control_change', channel=9, control=64, value=0, time=0),
    Message('control_change', channel=9, control=65, value=0, time=0),
    Message('control_change', channel=9, control=66, value=0, time=0),
    Message('control_change', channel=9, control=67, value=0, time=0),
    Message('control_change', channel=9, control=68, value=0, time=0),
    MetaMessage('end_of_track', time=0)]),
  MidiTrack([
    MetaMessage('midi_port', port=0, time=0),
    MetaMessage('track_name', name='Toms                ', time=0),
    Message('control_change', channel=9, control=7, value=111, time=0),
    Message('control_change', channel=9, control=7, value=112, time=264),
    Message('control_change', channel=9, control=7, value=113, time=264),
    Message('control_change', channel=9, control=7, value=114, time=239),
    Message('control_change', channel=9, control=7, value=114, time=6145),
    Message('note_on', channel=9, note=48, velocity=127, time=0),
    Message('note_off', channel=9, note=48, velocity=1, time=48),
    Message('note_on', channel=9, note=45, velocity=127, time=240),
    Message('note_off', channel=9, note=45, velocity=1, time=48),
    Message('note_on', channel=9, note=41, velocity=127, time=240),
    Message('note_off', channel=9, note=41, velocity=1, time=48),
    Message('note_on', channel=9, note=48, velocity=127, time=1008),
    Message('note_off', channel=9, note=48, velocity=1, time=48),
    Message('note_on', channel=9, note=45, velocity=127, time=0),
    Message('note_off', channel=9, note=45, velocity=1, time=48),
    Message('note_on', channel=9, note=48, velocity=127, time=3648),
    Message('note_off', channel=9, note=48, velocity=1, time=48),
    Message('note_on', channel=9, note=45, velocity=127, time=240),
    Message('note_off', channel=9, note=45, velocity=1, time=48),
    Message('note_on', channel=9, note=41, velocity=127, time=240),
    Message('note_off', channel=9, note=41, velocity=1, time=48),
    Message('note_on', channel=9, note=48, velocity=127, time=1008),
    Message('note_off', channel=9, note=48, velocity=1, time=48),
    Message('note_on', channel=9, note=45, velocity=127, time=0),
    Message('note_off', channel=9, note=45, velocity=1, time=48),
    Message('note_on', channel=9, note=50, velocity=127, time=1536),
    Message('note_off', channel=9, note=50, velocity=1, time=48),
    Message('note_on', channel=9, note=50, velocity=127, time=0),
    Message('note_off', channel=9, note=50, velocity=1, time=48),
    Message('note_on', channel=9, note=47, velocity=127, time=96),
    Message('note_off', channel=9, note=47, velocity=1, time=48),
    Message('note_on', channel=9, note=47, velocity=127, time=0),
    Message('note_off', channel=9, note=47, velocity=1, time=48),
    Message('note_on', channel=9, note=41, velocity=127, time=96),
    Message('note_off', channel=9, note=41, velocity=1, time=48),
    Message('note_on', channel=9, note=41, velocity=127, time=0),
    Message('note_off', channel=9, note=41, velocity=1, time=48),
    Message('note_on', channel=9, note=41, velocity=127, time=0),
    Message('note_off', channel=9, note=41, velocity=1, time=48),
    Message('note_on', channel=9, note=41, velocity=127, time=0),
    Message('note_off', channel=9, note=41, velocity=1, time=48),
    Message('note_on', channel=9, note=48, velocity=127, time=0),
    Message('note_off', channel=9, note=48, velocity=1, time=48),
    Message('note_on', channel=9, note=45, velocity=127, time=240),
    Message('note_off', channel=9, note=45, velocity=1, time=48),
    Message('note_on', channel=9, note=41, velocity=127, time=240),
    Message('note_off', channel=9, note=41, velocity=1, time=48),
    Message('note_on', channel=9, note=48, velocity=127, time=1008),
    Message('note_off', channel=9, note=48, velocity=1, time=48),
    Message('note_on', channel=9, note=45, velocity=127, time=0),
    Message('note_off', channel=9, note=45, velocity=1, time=48),
    Message('note_on', channel=9, note=50, velocity=127, time=768),
    Message('note_off', channel=9, note=50, velocity=1, time=48),
    Message('note_on', channel=9, note=50, velocity=127, time=0),
    Message('note_off', channel=9, note=50, velocity=1, time=48),
    Message('note_on', channel=9, note=47, velocity=127, time=96),
    Message('note_off', channel=9, note=47, velocity=1, time=48),
    Message('note_on', channel=9, note=47, velocity=127, time=0),
    Message('note_off', channel=9, note=47, velocity=1, time=48),
    Message('note_on', channel=9, note=41, velocity=127, time=96),
    Message('note_off', channel=9, note=41, velocity=1, time=48),
    Message('note_on', channel=9, note=41, velocity=127, time=0),
    Message('note_off', channel=9, note=41, velocity=1, time=48),
    Message('note_on', channel=9, note=41, velocity=127, time=0),
    Message('note_off', channel=9, note=41, velocity=1, time=48),
    Message('note_on', channel=9, note=41, velocity=127, time=0),
    Message('note_off', channel=9, note=41, velocity=1, time=48),
    Message('note_on', channel=9, note=48, velocity=127, time=9984),
    Message('note_off', channel=9, note=48, velocity=1, time=48),
    Message('note_on', channel=9, note=45, velocity=127, time=240),
    Message('note_off', channel=9, note=45, velocity=1, time=48),
    Message('note_on', channel=9, note=41, velocity=127, time=240),
    Message('note_off', channel=9, note=41, velocity=1, time=48),
    Message('note_on', channel=9, note=48, velocity=127, time=144),
    Message('note_off', channel=9, note=48, velocity=1, time=48),
    Message('note_on', channel=9, note=45, velocity=127, time=240),
    Message('note_off', channel=9, note=45, velocity=1, time=48),
    Message('note_on', channel=9, note=41, velocity=127, time=240),
    Message('note_off', channel=9, note=41, velocity=1, time=48),
    Message('note_on', channel=9, note=48, velocity=127, time=1008),
    Message('note_off', channel=9, note=48, velocity=1, time=48),
    Message('note_on', channel=9, note=45, velocity=127, time=0),
    Message('note_off', channel=9, note=45, velocity=1, time=48),
    Message('note_on', channel=9, note=48, velocity=127, time=9120),
    Message('note_off', channel=9, note=48, velocity=1, time=48),
    Message('note_on', channel=9, note=45, velocity=127, time=0),
    Message('note_off', channel=9, note=45, velocity=1, time=48),
    Message('note_on', channel=9, note=50, velocity=127, time=1536),
    Message('note_off', channel=9, note=50, velocity=1, time=48),
    Message('note_on', channel=9, note=50, velocity=127, time=0),
    Message('note_off', channel=9, note=50, velocity=1, time=48),
    Message('note_on', channel=9, note=47, velocity=127, time=96),
    Message('note_off', channel=9, note=47, velocity=1, time=48),
    Message('note_on', channel=9, note=47, velocity=127, time=0),
    Message('note_off', channel=9, note=47, velocity=1, time=48),
    Message('note_on', channel=9, note=41, velocity=127, time=96),
    Message('note_off', channel=9, note=41, velocity=1, time=48),
    Message('note_on', channel=9, note=41, velocity=127, time=0),
    Message('note_off', channel=9, note=41, velocity=1, time=48),
    Message('note_on', channel=9, note=41, velocity=127, time=0),
    Message('note_off', channel=9, note=41, velocity=1, time=48),
    Message('note_on', channel=9, note=41, velocity=127, time=0),
    Message('note_off', channel=9, note=41, velocity=1, time=48),
    Message('note_on', channel=9, note=45, velocity=127, time=1632),
    Message('note_off', channel=9, note=45, velocity=1, time=48),
    Message('note_on', channel=9, note=41, velocity=127, time=48),
    Message('note_off', channel=9, note=41, velocity=1, time=48),
    Message('note_on', channel=9, note=48, velocity=127, time=9744),
    Message('note_off', channel=9, note=48, velocity=1, time=48),
    Message('note_on', channel=9, note=45, velocity=127, time=240),
    Message('note_off', channel=9, note=45, velocity=1, time=48),
    Message('note_on', channel=9, note=41, velocity=127, time=240),
    Message('note_off', channel=9, note=41, velocity=1, time=48),
    Message('note_on', channel=9, note=48, velocity=127, time=240),
    Message('note_off', channel=9, note=48, velocity=1, time=48),
    Message('note_on', channel=9, note=45, velocity=127, time=0),
    Message('note_off', channel=9, note=45, velocity=1, time=48),
    Message('note_on', channel=9, note=48, velocity=127, time=2880),
    Message('note_off', channel=9, note=48, velocity=1, time=48),
    Message('note_on', channel=9, note=45, velocity=127, time=240),
    Message('note_off', channel=9, note=45, velocity=1, time=48),
    Message('note_on', channel=9, note=41, velocity=127, time=240),
    Message('note_off', channel=9, note=41, velocity=1, time=48),
    Message('control_change', channel=9, control=7, value=113, time=144),
    Message('note_on', channel=9, note=48, velocity=127, time=2304),
    Message('note_off', channel=9, note=48, velocity=1, time=48),
    Message('note_on', channel=9, note=45, velocity=127, time=240),
    Message('note_off', channel=9, note=45, velocity=1, time=48),
    Message('note_on', channel=9, note=41, velocity=127, time=240),
    Message('note_off', channel=9, note=41, velocity=1, time=48),
    Message('control_change', channel=9, control=7, value=123, time=144),
    Message('note_on', channel=9, note=48, velocity=127, time=3840),
    Message('note_off', channel=9, note=48, velocity=1, time=48),
    Message('note_on', channel=9, note=45, velocity=127, time=240),
    Message('note_off', channel=9, note=45, velocity=1, time=48),
    Message('note_on', channel=9, note=41, velocity=127, time=240),
    Message('note_off', channel=9, note=41, velocity=1, time=48),
    Message('note_on', channel=9, note=48, velocity=127, time=1680),
    Message('note_off', channel=9, note=48, velocity=1, time=48),
    Message('note_on', channel=9, note=45, velocity=127, time=240),
    Message('note_off', channel=9, note=45, velocity=1, time=48),
    Message('note_on', channel=9, note=41, velocity=127, time=240),
    Message('note_off', channel=9, note=41, velocity=1, time=48),
    Message('note_on', channel=9, note=48, velocity=127, time=912),
    Message('note_off', channel=9, note=48, velocity=1, time=48),
    Message('note_on', channel=9, note=45, velocity=127, time=240),
    Message('note_off', channel=9, note=45, velocity=1, time=48),
    Message('note_on', channel=9, note=41, velocity=127, time=240),
    Message('note_off', channel=9, note=41, velocity=1, time=48),
    Message('note_on', channel=9, note=48, velocity=127, time=3216),
    Message('note_off', channel=9, note=48, velocity=1, time=48),
    Message('note_on', channel=9, note=45, velocity=127, time=240),
    Message('note_off', channel=9, note=45, velocity=1, time=48),
    Message('note_on', channel=9, note=41, velocity=127, time=240),
    Message('note_on', channel=9, note=45, velocity=127, time=0),
    Message('note_off', channel=9, note=41, velocity=1, time=48),
    Message('note_off', channel=9, note=45, velocity=1, time=0),
    Message('note_on', channel=9, note=48, velocity=127, time=2448),
    Message('note_off', channel=9, note=48, velocity=1, time=48),
    Message('note_on', channel=9, note=45, velocity=127, time=240),
    Message('note_off', channel=9, note=45, velocity=1, time=48),
    Message('note_on', channel=9, note=41, velocity=127, time=240),
    Message('note_on', channel=9, note=45, velocity=127, time=0),
    Message('note_off', channel=9, note=41, velocity=1, time=48),
    Message('note_off', channel=9, note=45, velocity=1, time=0),
    Message('note_on', channel=9, note=48, velocity=127, time=144),
    Message('note_off', channel=9, note=48, velocity=1, time=48),
    Message('note_on', channel=9, note=45, velocity=127, time=240),
    Message('note_off', channel=9, note=45, velocity=1, time=48),
    Message('note_on', channel=9, note=41, velocity=127, time=240),
    Message('note_off', channel=9, note=41, velocity=1, time=48),
    Message('note_on', channel=9, note=48, velocity=127, time=912),
    Message('note_off', channel=9, note=48, velocity=1, time=48),
    Message('note_on', channel=9, note=45, velocity=127, time=240),
    Message('note_off', channel=9, note=45, velocity=1, time=48),
    Message('note_on', channel=9, note=41, velocity=127, time=240),
    Message('note_off', channel=9, note=41, velocity=1, time=48),
    Message('note_on', channel=9, note=48, velocity=127, time=1680),
    Message('note_off', channel=9, note=48, velocity=1, time=48),
    Message('note_on', channel=9, note=45, velocity=127, time=240),
    Message('note_off', channel=9, note=45, velocity=1, time=48),
    Message('note_on', channel=9, note=41, velocity=127, time=240),
    Message('note_off', channel=9, note=41, velocity=1, time=48),
    Message('note_on', channel=9, note=48, velocity=127, time=912),
    Message('note_off', channel=9, note=48, velocity=1, time=48),
    Message('note_on', channel=9, note=45, velocity=127, time=240),
    Message('note_off', channel=9, note=45, velocity=1, time=48),
    Message('note_on', channel=9, note=41, velocity=127, time=240),
    Message('note_off', channel=9, note=41, velocity=1, time=48),
    Message('note_on', channel=9, note=48, velocity=127, time=912),
    Message('note_off', channel=9, note=48, velocity=1, time=48),
    Message('note_on', channel=9, note=45, velocity=127, time=240),
    Message('note_off', channel=9, note=45, velocity=1, time=48),
    Message('note_on', channel=9, note=41, velocity=127, time=240),
    Message('note_off', channel=9, note=41, velocity=1, time=48),
    Message('control_change', channel=9, control=7, value=120, time=144),
    Message('note_on', channel=9, note=48, velocity=127, time=768),
    Message('note_off', channel=9, note=48, velocity=1, time=48),
    Message('note_on', channel=9, note=45, velocity=127, time=240),
    Message('note_off', channel=9, note=45, velocity=1, time=48),
    Message('note_on', channel=9, note=41, velocity=127, time=240),
    Message('note_off', channel=9, note=41, velocity=1, time=48),
    Message('note_on', channel=9, note=48, velocity=127, time=1008),
    Message('note_off', channel=9, note=48, velocity=1, time=48),
    Message('note_on', channel=9, note=45, velocity=127, time=0),
    Message('note_off', channel=9, note=45, velocity=1, time=48),
    Message('note_on', channel=9, note=48, velocity=127, time=2112),
    Message('note_off', channel=9, note=48, velocity=1, time=48),
    Message('note_on', channel=9, note=45, velocity=127, time=240),
    Message('note_off', channel=9, note=45, velocity=1, time=48),
    Message('note_on', channel=9, note=41, velocity=127, time=240),
    Message('note_off', channel=9, note=41, velocity=1, time=48),
    Message('note_on', channel=9, note=48, velocity=127, time=2544),
    Message('note_off', channel=9, note=48, velocity=1, time=48),
    Message('note_on', channel=9, note=45, velocity=127, time=0),
    Message('note_off', channel=9, note=45, velocity=1, time=48),
    Message('note_on', channel=9, note=48, velocity=127, time=5952),
    Message('note_off', channel=9, note=48, velocity=1, time=48),
    Message('note_on', channel=9, note=45, velocity=127, time=240),
    Message('note_off', channel=9, note=45, velocity=1, time=48),
    Message('note_on', channel=9, note=41, velocity=127, time=240),
    Message('note_off', channel=9, note=41, velocity=1, time=48),
    Message('note_on', channel=9, note=48, velocity=127, time=240),
    Message('note_off', channel=9, note=48, velocity=1, time=48),
    Message('note_on', channel=9, note=45, velocity=127, time=0),
    Message('note_off', channel=9, note=45, velocity=1, time=48),
    Message('control_change', channel=9, control=7, value=119, time=576),
    Message('control_change', channel=9, control=7, value=118, time=48),
    Message('control_change', channel=9, control=7, value=117, time=48),
    Message('control_change', channel=9, control=7, value=116, time=48),
    Message('control_change', channel=9, control=7, value=115, time=24),
    Message('control_change', channel=9, control=7, value=114, time=48),
    Message('control_change', channel=9, control=7, value=113, time=48),
    Message('control_change', channel=9, control=7, value=112, time=24),
    Message('control_change', channel=9, control=7, value=111, time=48),
    Message('control_change', channel=9, control=7, value=110, time=48),
    Message('control_change', channel=9, control=7, value=109, time=24),
    Message('control_change', channel=9, control=7, value=108, time=48),
    Message('control_change', channel=9, control=7, value=107, time=48),
    Message('control_change', channel=9, control=7, value=106, time=24),
    Message('control_change', channel=9, control=7, value=105, time=48),
    Message('control_change', channel=9, control=7, value=104, time=48),
    Message('control_change', channel=9, control=7, value=103, time=24),
    Message('control_change', channel=9, control=7, value=102, time=48),
    Message('control_change', channel=9, control=7, value=101, time=48),
    Message('control_change', channel=9, control=7, value=100, time=24),
    Message('control_change', channel=9, control=7, value=99, time=48),
    Message('control_change', channel=9, control=7, value=98, time=48),
    Message('control_change', channel=9, control=7, value=97, time=48),
    Message('control_change', channel=9, control=7, value=96, time=24),
    Message('control_change', channel=9, control=7, value=95, time=48),
    Message('control_change', channel=9, control=7, value=94, time=48),
    Message('control_change', channel=9, control=7, value=93, time=24),
    Message('control_change', channel=9, control=7, value=92, time=48),
    Message('control_change', channel=9, control=7, value=91, time=48),
    Message('control_change', channel=9, control=7, value=90, time=24),
    Message('control_change', channel=9, control=7, value=89, time=48),
    Message('control_change', channel=9, control=7, value=88, time=48),
    Message('control_change', channel=9, control=7, value=87, time=24),
    Message('control_change', channel=9, control=7, value=86, time=48),
    Message('control_change', channel=9, control=7, value=85, time=48),
    Message('control_change', channel=9, control=7, value=84, time=24),
    Message('control_change', channel=9, control=7, value=83, time=48),
    Message('control_change', channel=9, control=7, value=82, time=48),
    Message('control_change', channel=9, control=7, value=81, time=24),
    Message('control_change', channel=9, control=7, value=80, time=48),
    Message('control_change', channel=9, control=7, value=79, time=48),
    Message('control_change', channel=9, control=7, value=78, time=48),
    Message('control_change', channel=9, control=7, value=77, time=24),
    Message('control_change', channel=9, control=7, value=76, time=48),
    Message('control_change', channel=9, control=7, value=75, time=48),
    Message('control_change', channel=9, control=7, value=74, time=24),
    Message('control_change', channel=9, control=7, value=73, time=48),
    Message('control_change', channel=9, control=7, value=72, time=48),
    Message('control_change', channel=9, control=7, value=71, time=24),
    Message('control_change', channel=9, control=7, value=70, time=48),
    Message('control_change', channel=9, control=7, value=69, time=48),
    Message('control_change', channel=9, control=7, value=68, time=24),
    Message('control_change', channel=9, control=7, value=67, time=48),
    Message('control_change', channel=9, control=7, value=66, time=48),
    Message('control_change', channel=9, control=7, value=65, time=24),
    Message('control_change', channel=9, control=7, value=64, time=48),
    Message('control_change', channel=9, control=7, value=63, time=48),
    Message('control_change', channel=9, control=7, value=62, time=24),
    Message('control_change', channel=9, control=7, value=61, time=48),
    Message('control_change', channel=9, control=7, value=60, time=48),
    Message('control_change', channel=9, control=7, value=59, time=48),
    Message('control_change', channel=9, control=7, value=58, time=24),
    Message('control_change', channel=9, control=7, value=57, time=48),
    Message('control_change', channel=9, control=7, value=56, time=48),
    Message('control_change', channel=9, control=7, value=55, time=24),
    Message('control_change', channel=9, control=7, value=54, time=48),
    Message('control_change', channel=9, control=7, value=53, time=48),
    Message('control_change', channel=9, control=7, value=52, time=24),
    Message('control_change', channel=9, control=7, value=51, time=48),
    Message('control_change', channel=9, control=7, value=50, time=48),
    Message('control_change', channel=9, control=7, value=49, time=24),
    Message('control_change', channel=9, control=7, value=48, time=48),
    Message('control_change', channel=9, control=7, value=47, time=48),
    Message('control_change', channel=9, control=7, value=46, time=24),
    Message('control_change', channel=9, control=7, value=45, time=48),
    Message('control_change', channel=9, control=7, value=44, time=48),
    Message('control_change', channel=9, control=7, value=43, time=24),
    Message('control_change', channel=9, control=7, value=42, time=48),
    Message('control_change', channel=9, control=7, value=41, time=48),
    Message('control_change', channel=9, control=7, value=40, time=48),
    Message('control_change', channel=9, control=7, value=39, time=24),
    Message('control_change', channel=9, control=7, value=38, time=48),
    Message('control_change', channel=9, control=7, value=37, time=48),
    Message('control_change', channel=9, control=7, value=36, time=24),
    Message('control_change', channel=9, control=7, value=35, time=48),
    Message('control_change', channel=9, control=7, value=34, time=48),
    Message('control_change', channel=9, control=7, value=33, time=24),
    Message('control_change', channel=9, control=7, value=32, time=48),
    Message('control_change', channel=9, control=7, value=31, time=48),
    Message('control_change', channel=9, control=7, value=30, time=24),
    Message('control_change', channel=9, control=7, value=29, time=48),
    Message('control_change', channel=9, control=7, value=28, time=48),
    Message('control_change', channel=9, control=7, value=27, time=24),
    Message('control_change', channel=9, control=7, value=26, time=48),
    Message('control_change', channel=9, control=7, value=25, time=48),
    Message('control_change', channel=9, control=7, value=19, time=24),
    Message('control_change', channel=9, control=7, value=18, time=96),
    Message('control_change', channel=9, control=7, value=17, time=72),
    Message('control_change', channel=9, control=7, value=16, time=72),
    Message('control_change', channel=9, control=7, value=15, time=72),
    Message('control_change', channel=9, control=7, value=14, time=72),
    Message('control_change', channel=9, control=7, value=13, time=96),
    Message('control_change', channel=9, control=7, value=12, time=72),
    Message('control_change', channel=9, control=7, value=11, time=72),
    Message('control_change', channel=9, control=7, value=10, time=72),
    Message('control_change', channel=9, control=7, value=9, time=72),
    Message('control_change', channel=9, control=7, value=8, time=96),
    Message('control_change', channel=9, control=7, value=7, time=72),
    Message('control_change', channel=9, control=7, value=6, time=72),
    Message('control_change', channel=9, control=7, value=5, time=72),
    Message('control_change', channel=9, control=7, value=4, time=72),
    Message('control_change', channel=9, control=7, value=3, time=96),
    Message('control_change', channel=9, control=7, value=2, time=72),
    Message('control_change', channel=9, control=7, value=1, time=72),
    Message('control_change', channel=9, control=7, value=0, time=72),
    Message('pitchwheel', channel=9, pitch=0, time=840),
    Message('polytouch', channel=9, note=64, value=0, time=0),
    Message('aftertouch', channel=9, value=0, time=0),
    Message('control_change', channel=9, control=1, value=0, time=0),
    Message('control_change', channel=9, control=2, value=0, time=0),
    Message('control_change', channel=9, control=4, value=0, time=0),
    Message('control_change', channel=9, control=7, value=100, time=0),
    Message('control_change', channel=9, control=8, value=0, time=0),
    Message('control_change', channel=9, control=10, value=63, time=0),
    Message('control_change', channel=9, control=64, value=0, time=0),
    Message('control_change', channel=9, control=65, value=0, time=0),
    Message('control_change', channel=9, control=66, value=0, time=0),
    Message('control_change', channel=9, control=67, value=0, time=0),
    Message('control_change', channel=9, control=68, value=0, time=0),
    MetaMessage('end_of_track', time=0)]),
  MidiTrack([
    MetaMessage('midi_port', port=0, time=0),
    MetaMessage('track_name', name='Closed Hi Hat       ', time=0),
    Message('control_change', channel=9, control=7, value=111, time=0),
    Message('note_on', channel=9, note=42, velocity=127, time=0),
    Message('note_off', channel=9, note=42, velocity=1, time=96),
    Message('note_on', channel=9, note=42, velocity=120, time=0),
    Message('note_off', channel=9, note=42, velocity=1, time=96),
    Message('note_on', channel=9, note=42, velocity=127, time=0),
    Message('control_change', channel=9, control=7, value=112, time=72),
    Message('note_off', channel=9, note=42, velocity=1, time=24),
    Message('note_on', channel=9, note=42, velocity=120, time=0),
    Message('note_off', channel=9, note=42, velocity=1, time=96),
    Message('note_on', channel=9, note=42, velocity=127, time=0),
    Message('note_off', channel=9, note=42, velocity=1, time=96),
    Message('note_on', channel=9, note=42, velocity=120, time=0),
    Message('control_change', channel=9, control=7, value=113, time=48),
    Message('note_off', channel=9, note=42, velocity=1, time=48),
    Message('note_on', channel=9, note=42, velocity=127, time=0),
    Message('note_off', channel=9, note=42, velocity=1, time=96),
    Message('note_on', channel=9, note=42, velocity=120, time=0),
    Message('control_change', channel=9, control=7, value=114, time=95),
    Message('note_off', channel=9, note=42, velocity=1, time=1),
    Message('note_on', channel=9, note=42, velocity=127, time=0),
    Message('note_off', channel=9, note=42, velocity=1, time=96),
    Message('note_on', channel=9, note=42, velocity=120, time=0),
    Message('note_off', channel=9, note=42, velocity=1, time=96),
    Message('note_on', channel=9, note=42, velocity=127, time=0),
    Message('note_off', channel=9, note=42, velocity=1, time=96),
    Message('note_on', channel=9, note=42, velocity=120, time=0),
    Message('note_off', channel=9, note=42, velocity=1, time=96),
    Message('note_on', channel=9, note=42, velocity=127, time=0),
    Message('note_off', channel=9, note=42, velocity=1, time=96),
    Message('note_on', channel=9, note=42, velocity=110, time=0),
    Message('note_off', channel=9, note=42, velocity=1, time=96),
    Message('note_on', channel=9, note=42, velocity=127, time=0),
    Message('note_off', channel=9, note=42, velocity=1, time=96),
    Message('note_on', channel=9, note=42, velocity=110, time=0),
    Message('note_off', channel=9, note=42, velocity=1, time=96),
    Message('note_on', channel=9, note=42, velocity=127, time=0),
    Message('note_off', channel=9, note=42, velocity=1, time=96),
    Message('note_on', channel=9, note=42, velocity=110, time=0),
    Message('note_off', channel=9, note=42, velocity=1, time=96),
    Message('note_on', channel=9, note=42, velocity=127, time=0),
    Message('note_off', channel=9, note=42, velocity=1, time=96),
    Message('note_on', channel=9, note=42, velocity=110, time=0),
    Message('note_off', channel=9, note=42, velocity=1, time=96),
    Message('note_on', channel=9, note=42, velocity=127, time=0),
    Message('note_off', channel=9, note=42, velocity=1, time=96),
    Message('note_on', channel=9, note=42, velocity=120, time=0),
    Message('note_off', channel=9, note=42, velocity=1, time=96),
    Message('note_on', channel=9, note=42, velocity=127, time=0),
    Message('note_off', channel=9, note=42, velocity=1, time=96),
    Message('note_on', channel=9, note=42, velocity=120, time=0),
    Message('note_off', channel=9, note=42, velocity=1, time=96),
    Message('note_on', channel=9, note=42, velocity=127, time=0),
    Message('note_off', channel=9, note=42, velocity=1, time=96),
    Message('note_on', channel=9, note=42, velocity=120, time=0),
    Message('note_off', channel=9, note=42, velocity=1, time=96),
    Message('note_on', channel=9, note=42, velocity=127, time=0),
    Message('note_off', channel=9, note=42, velocity=1, time=96),
    Message('note_on', channel=9, note=42, velocity=120, time=0),
    Message('note_off', channel=9, note=42, velocity=1, time=96),
    Message('note_on', channel=9, note=42, velocity=127, time=0),
    Message('note_off', channel=9, note=42, velocity=1, time=96),
    Message('note_on', channel=9, note=42, velocity=120, time=0),
    Message('note_off', channel=9, note=42, velocity=1, time=96),
    Message('note_on', channel=9, note=42, velocity=127, time=0),
    Message('note_off', channel=9, note=42, velocity=1, time=96),
    Message('note_on', channel=9, note=42, velocity=120, time=0),
    Message('note_off', channel=9, note=42, velocity=1, time=96),
    Message('note_on', channel=9, note=42, velocity=127, time=0),
    Message('note_off', channel=9, note=42, velocity=1, time=96),
    Message('note_on', channel=9, note=42, velocity=120, time=0),
    Message('note_off', channel=9, note=42, velocity=1, time=96),
    Message('note_on', channel=9, note=42, velocity=127, time=0),
    Message('note_off', channel=9, note=42, velocity=1, time=96),
    Message('note_on', channel=9, note=42, velocity=120, time=0),
    Message('note_off', channel=9, note=42, velocity=1, time=96),
    Message('note_on', channel=9, note=42, velocity=127, time=0),
    Message('note_off', channel=9, note=42, velocity=1, time=96),
    Message('note_on', channel=9, note=42, velocity=110, time=0),
    Message('note_off', channel=9, note=42, velocity=1, time=96),
    Message('note_on', channel=9, note=42, velocity=127, time=0),
    Message('note_off', channel=9, note=42, velocity=1, time=96),
    Message('note_on', channel=9, note=42, velocity=110, time=0),
    Message('note_off', channel=9, note=42, velocity=1, time=96),
    Message('note_on', channel=9, note=42, velocity=127, time=0),
    Message('note_off', channel=9, note=42, velocity=1, time=96),
    Message('note_on', channel=9, note=42, velocity=110, time=0),
    Message('note_off', channel=9, note=42, velocity=1, time=96),
    Message('note_on', channel=9, note=42, velocity=127, time=0),
    Message('note_off', channel=9, note=42, velocity=1, time=96),
    Message('note_on', channel=9, note=42, velocity=110, time=0),
    Message('note_off', channel=9, note=42, velocity=1, time=96),
    Message('note_on', channel=9, note=42, velocity=127, time=0),
    Message('note_off', channel=9, note=42, velocity=1, time=96),
    Message('note_on', channel=9, note=42, velocity=120, time=0),
    Message('note_off', channel=9, note=42, velocity=1, time=96),
    Message('note_on', channel=9, note=42, velocity=127, time=0),
    Message('note_off', channel=9, note=42, velocity=1, time=96),
    Message('note_on', channel=9, note=42, velocity=120, time=0),
    Message('note_off', channel=9, note=42, velocity=1, time=96),
    Message('note_on', channel=9, note=42, velocity=127, time=0),
    Message('note_off', channel=9, note=42, velocity=1, time=96),
    Message('note_on', channel=9, note=42, velocity=120, time=0),
    Message('note_off', channel=9, note=42, velocity=1, time=96),
    Message('note_on', channel=9, note=42, velocity=127, time=0),
    Message('note_off', channel=9, note=42, velocity=1, time=96),
    Message('note_on', channel=9, note=42, velocity=120, time=0),
    Message('note_off', channel=9, note=42, velocity=1, time=96),
    Message('note_on', channel=9, note=42, velocity=127, time=0),
    Message('note_off', channel=9, note=42, velocity=1, time=96),
    Message('note_on', channel=9, note=42, velocity=120, time=0),
    Message('note_off', channel=9, note=42, velocity=1, time=96),
    Message('note_on', channel=9, note=42, velocity=127, time=0),
    Message('note_off', channel=9, note=42, velocity=1, time=96),
    Message('note_on', channel=9, note=42, velocity=120, time=0),
    Message('note_off', channel=9, note=42, velocity=1, time=96),
    Message('note_on', channel=9, note=42, velocity=127, time=0),
    Message('note_off', channel=9, note=42, velocity=1, time=96),
    Message('note_on', channel=9, note=42, velocity=120, time=0),
    Message('note_off', channel=9, note=42, velocity=1, time=96),
    Message('note_on', channel=9, note=42, velocity=127, time=0),
    Message('note_off', channel=9, note=42, velocity=1, time=96),
    Message('note_on', channel=9, note=42, velocity=120, time=0),
    Message('note_off', channel=9, note=42, velocity=1, time=96),
    Message('note_on', channel=9, note=42, velocity=127, time=0),
    Message('note_off', channel=9, note=42, velocity=1, time=96),
    Message('note_on', channel=9, note=42, velocity=110, time=0),
    Message('note_off', channel=9, note=42, velocity=1, time=96),
    Message('note_on', channel=9, note=42, velocity=127, time=0),
    Message('note_off', channel=9, note=42, velocity=1, time=96),
    Message('note_on', channel=9, note=42, velocity=110, time=0),
    Message('note_off', channel=9, note=42, velocity=1, time=96),
    Message('note_on', channel=9, note=42, velocity=127, time=0),
    Message('note_off', channel=9, note=42, velocity=1, time=96),
    Message('note_on', channel=9, note=42, velocity=110, time=0),
    Message('note_off', channel=9, note=42, velocity=1, time=96),
    Message('note_on', channel=9, note=42, velocity=127, time=0),
    Message('note_off', channel=9, note=42, velocity=1, time=96),
    Message('note_on', channel=9, note=42, velocity=110, time=0),
    Message('note_off', channel=9, note=42, velocity=1, time=96),
    Message('note_on', channel=9, note=42, velocity=127, time=0),
    Message('note_off', channel=9, note=42, velocity=1, time=96),
    Message('note_on', channel=9, note=42, velocity=120, time=0),
    Message('note_off', channel=9, note=42, velocity=1, time=96),
    Message('note_on', channel=9, note=42, velocity=127, time=0),
    Message('note_off', channel=9, note=42, velocity=1, time=96),
    Message('note_on', channel=9, note=42, velocity=120, time=0),
    Message('control_change', channel=9, control=7, value=114, time=96),
    Message('note_off', channel=9, note=42, velocity=1, time=96),
    Message('note_on', channel=9, note=42, velocity=127, time=2208),
    Message('note_off', channel=9, note=42, velocity=1, time=96),
    Message('note_on', channel=9, note=42, velocity=120, time=0),
    Message('note_off', channel=9, note=42, velocity=1, time=96),
    Message('note_on', channel=9, note=42, velocity=127, time=0),
    Message('note_off', channel=9, note=42, velocity=1, time=96),
    Message('note_on', channel=9, note=42, velocity=120, time=0),
    Message('note_off', channel=9, note=42, velocity=1, time=96),
    Message('note_on', channel=9, note=42, velocity=127, time=0),
    Message('note_off', channel=9, note=42, velocity=1, time=96),
    Message('note_on', channel=9, note=42, velocity=120, time=0),
    Message('note_off', channel=9, note=42, velocity=1, time=96),
    Message('note_on', channel=9, note=42, velocity=127, time=0),
    Message('note_off', channel=9, note=42, velocity=1, time=96),
    Message('note_on', channel=9, note=42, velocity=120, time=0),
    Message('note_off', channel=9, note=42, velocity=1, time=96),
    Message('note_on', channel=9, note=42, velocity=127, time=0),
    Message('note_off', channel=9, note=42, velocity=1, time=96),
    Message('note_on', channel=9, note=42, velocity=120, time=0),
    Message('note_off', channel=9, note=42, velocity=1, time=96),
    Message('note_on', channel=9, note=42, velocity=127, time=0),
    Message('note_off', channel=9, note=42, velocity=1, time=96),
    Message('note_on', channel=9, note=42, velocity=120, time=0),
    Message('note_off', channel=9, note=42, velocity=1, time=96),
    Message('note_on', channel=9, note=42, velocity=127, time=0),
    Message('note_off', channel=9, note=42, velocity=1, time=96),
    Message('note_on', channel=9, note=42, velocity=110, time=0),
    Message('note_off', channel=9, note=42, velocity=1, time=96),
    Message('note_on', channel=9, note=42, velocity=127, time=0),
    Message('note_off', channel=9, note=42, velocity=1, time=96),
    Message('note_on', channel=9, note=42, velocity=110, time=0),
    Message('note_off', channel=9, note=42, velocity=1, time=96),
    Message('note_on', channel=9, note=42, velocity=127, time=0),
    Message('note_off', channel=9, note=42, velocity=1, time=96),
    Message('note_on', channel=9, note=42, velocity=110, time=0),
    Message('note_off', channel=9, note=42, velocity=1, time=96),
    Message('note_on', channel=9, note=42, velocity=127, time=0),
    Message('note_off', channel=9, note=42, velocity=1, time=96),
    Message('note_on', channel=9, note=42, velocity=110, time=0),
    Message('note_off', channel=9, note=42, velocity=1, time=96),
    Message('note_on', channel=9, note=42, velocity=127, time=0),
    Message('note_off', channel=9, note=42, velocity=1, time=96),
    Message('note_on', channel=9, note=42, velocity=120, time=0),
    Message('note_off', channel=9, note=42, velocity=1, time=96),
    Message('note_on', channel=9, note=42, velocity=127, time=0),
    Message('note_off', channel=9, note=42, velocity=1, time=96),
    Message('note_on', channel=9, note=42, velocity=120, time=0),
    Message('note_off', channel=9, note=42, velocity=1, time=96),
    Message('note_on', channel=9, note=42, velocity=127, time=0),
    Message('note_off', channel=9, note=42, velocity=1, time=96),
    Message('note_on', channel=9, note=42, velocity=120, time=0),
    Message('note_off', channel=9, note=42, velocity=1, time=96),
    Message('note_on', channel=9, note=42, velocity=127, time=0),
    Message('note_off', channel=9, note=42, velocity=1, time=96),
    Message('note_on', channel=9, note=42, velocity=120, time=0),
    Message('note_off', channel=9, note=42, velocity=1, time=96),
    Message('note_on', channel=9, note=42, velocity=127, time=0),
    Message('note_off', channel=9, note=42, velocity=1, time=96),
    Message('note_on', channel=9, note=42, velocity=110, time=0),
    Message('note_off', channel=9, note=42, velocity=1, time=96),
    Message('note_on', channel=9, note=42, velocity=127, time=0),
    Message('note_off', channel=9, note=42, velocity=1, time=96),
    Message('note_on', channel=9, note=42, velocity=110, time=0),
    Message('note_off', channel=9, note=42, velocity=1, time=192),
    Message('note_on', channel=9, note=42, velocity=127, time=2208),
    Message('note_off', channel=9, note=42, velocity=1, time=96),
    Message('note_on', channel=9, note=42, velocity=120, time=0),
    Message('note_off', channel=9, note=42, velocity=1, time=96),
    Message('note_on', channel=9, note=42, velocity=127, time=0),
    Message('note_off', channel=9, note=42, velocity=1, time=96),
    Message('note_on', channel=9, note=42, velocity=120, time=0),
    Message('note_off', channel=9, note=42, velocity=1, time=96),
    Message('note_on', channel=9, note=42, velocity=127, time=0),
    Message('note_off', channel=9, note=42, velocity=1, time=96),
    Message('note_on', channel=9, note=42, velocity=110, time=0),
    Message('note_off', channel=9, note=42, velocity=1, time=96),
    Message('note_on', channel=9, note=42, velocity=127, time=0),
    Message('note_off', channel=9, note=42, velocity=1, time=96),
    Message('note_on', channel=9, note=42, velocity=110, time=0),
    Message('note_off', channel=9, note=42, velocity=1, time=192),
    Message('note_on', channel=9, note=42, velocity=127, time=3744),
    Message('note_off', channel=9, note=42, velocity=1, time=96),
    Message('note_on', channel=9, note=42, velocity=120, time=0),
    Message('note_off', channel=9, note=42, velocity=1, time=96),
    Message('note_on', channel=9, note=42, velocity=127, time=0),
    Message('note_off', channel=9, note=42, velocity=1, time=96),
    Message('note_on', channel=9, note=42, velocity=120, time=0),
    Message('note_off', channel=9, note=42, velocity=1, time=96),
    Message('note_on', channel=9, note=42, velocity=127, time=0),
    Message('note_off', channel=9, note=42, velocity=1, time=96),
    Message('note_on', channel=9, note=42, velocity=120, time=0),
    Message('note_off', channel=9, note=42, velocity=1, time=96),
    Message('note_on', channel=9, note=42, velocity=127, time=0),
    Message('note_off', channel=9, note=42, velocity=1, time=96),
    Message('note_on', channel=9, note=42, velocity=120, time=0),
    Message('note_off', channel=9, note=42, velocity=1, time=96),
    Message('note_on', channel=9, note=42, velocity=127, time=0),
    Message('note_off', channel=9, note=42, velocity=1, time=96),
    Message('note_on', channel=9, note=42, velocity=120, time=0),
    Message('note_off', channel=9, note=42, velocity=1, time=96),
    Message('note_on', channel=9, note=42, velocity=127, time=0),
    Message('note_off', channel=9, note=42, velocity=1, time=96),
    Message('note_on', channel=9, note=42, velocity=120, time=0),
    Message('note_off', channel=9, note=42, velocity=1, time=96),
    Message('note_on', channel=9, note=42, velocity=127, time=0),
    Message('note_off', channel=9, note=42, velocity=1, time=96),
    Message('note_on', channel=9, note=42, velocity=110, time=0),
    Message('note_off', channel=9, note=42, velocity=1, time=96),
    Message('note_on', channel=9, note=42, velocity=127, time=0),
    Message('note_off', channel=9, note=42, velocity=1, time=96),
    Message('note_on', channel=9, note=42, velocity=110, time=0),
    Message('note_off', channel=9, note=42, velocity=1, time=96),
    Message('note_on', channel=9, note=42, velocity=127, time=0),
    Message('note_off', channel=9, note=42, velocity=1, time=96),
    Message('note_on', channel=9, note=42, velocity=110, time=0),
    Message('note_off', channel=9, note=42, velocity=1, time=96),
    Message('note_on', channel=9, note=42, velocity=127, time=0),
    Message('note_off', channel=9, note=42, velocity=1, time=96),
    Message('note_on', channel=9, note=42, velocity=110, time=0),
    Message('note_off', channel=9, note=42, velocity=1, time=96),
    Message('note_on', channel=9, note=42, velocity=127, time=0),
    Message('note_off', channel=9, note=42, velocity=1, time=96),
    Message('note_on', channel=9, note=42, velocity=120, time=0),
    Message('note_off', channel=9, note=42, velocity=1, time=96),
    Message('note_on', channel=9, note=42, velocity=127, time=0),
    Message('note_off', channel=9, note=42, velocity=1, time=96),
    Message('note_on', channel=9, note=42, velocity=120, time=0),
    Message('note_off', channel=9, note=42, velocity=1, time=96),
    Message('note_on', channel=9, note=42, velocity=127, time=0),
    Message('note_off', channel=9, note=42, velocity=1, time=96),
    Message('note_on', channel=9, note=42, velocity=120, time=0),
    Message('note_off', channel=9, note=42, velocity=1, time=96),
    Message('note_on', channel=9, note=42, velocity=127, time=0),
    Message('note_off', channel=9, note=42, velocity=1, time=96),
    Message('note_on', channel=9, note=42, velocity=120, time=0),
    Message('note_off', channel=9, note=42, velocity=1, time=96),
    Message('note_on', channel=9, note=42, velocity=127, time=0),
    Message('note_off', channel=9, note=42, velocity=1, time=96),
    Message('note_on', channel=9, note=42, velocity=110, time=0),
    Message('note_off', channel=9, note=42, velocity=1, time=96),
    Message('note_on', channel=9, note=42, velocity=127, time=0),
    Message('note_off', channel=9, note=42, velocity=1, time=96),
    Message('note_on', channel=9, note=42, velocity=110, time=0),
    Message('note_off', channel=9, note=42, velocity=1, time=96),
    Message('note_on', channel=9, note=42, velocity=127, time=0),
    Message('note_off', channel=9, note=42, velocity=1, time=96),
    Message('note_on', channel=9, note=42, velocity=120, time=0),
    Message('note_off', channel=9, note=42, velocity=1, time=96),
    Message('note_on', channel=9, note=42, velocity=120, time=0),
    Message('note_off', channel=9, note=42, velocity=1, time=96),
    Message('note_on', channel=9, note=42, velocity=90, time=0),
    Message('note_off', channel=9, note=42, velocity=1, time=96),
    Message('note_on', channel=9, note=42, velocity=127, time=0),
    Message('note_off', channel=9, note=42, velocity=1, time=96),
    Message('note_on', channel=9, note=42, velocity=110, time=0),
    Message('note_off', channel=9, note=42, velocity=1, time=96),
    Message('note_on', channel=9, note=42, velocity=120, time=0),
    Message('note_off', channel=9, note=42, velocity=1, time=96),
    Message('note_on', channel=9, note=42, velocity=120, time=0),
    Message('note_off', channel=9, note=42, velocity=1, time=96),
    Message('note_on', channel=9, note=42, velocity=127, time=0),
    Message('note_off', channel=9, note=42, velocity=1, time=96),
    Message('note_on', channel=9, note=42, velocity=120, time=0),
    Message('note_off', channel=9, note=42, velocity=1, time=96),
    Message('note_on', channel=9, note=42, velocity=127, time=0),
    Message('note_off', channel=9, note=42, velocity=1, time=96),
    Message('note_on', channel=9, note=42, velocity=120, time=0),
    Message('note_off', channel=9, note=42, velocity=1, time=96),
    Message('note_on', channel=9, note=42, velocity=127, time=0),
    Message('note_off', channel=9, note=42, velocity=1, time=96),
    Message('note_on', channel=9, note=42, velocity=120, time=0),
    Message('note_off', channel=9, note=42, velocity=1, time=96),
    Message('note_on', channel=9, note=42, velocity=127, time=0),
    Message('note_off', channel=9, note=42, velocity=1, time=96),
    Message('note_on', channel=9, note=42, velocity=110, time=0),
    Message('note_off', channel=9, note=42, velocity=1, time=96),
    Message('note_on', channel=9, note=42, velocity=127, time=0),
    Message('note_off', channel=9, note=42, velocity=1, time=96),
    Message('note_on', channel=9, note=42, velocity=120, time=0),
    Message('note_off', channel=9, note=42, velocity=1, time=96),
    Message('note_on', channel=9, note=42, velocity=127, time=0),
    Message('note_off', channel=9, note=42, velocity=1, time=96),
    Message('note_on', channel=9, note=42, velocity=120, time=0),
    Message('note_off', channel=9, note=42, velocity=1, time=96),
    Message('note_on', channel=9, note=42, velocity=127, time=0),
    Message('note_off', channel=9, note=42, velocity=1, time=96),
    Message('note_on', channel=9, note=42, velocity=120, time=0),
    Message('note_off', channel=9, note=42, velocity=1, time=96),
    Message('note_on', channel=9, note=42, velocity=127, time=0),
    Message('note_off', channel=9, note=42, velocity=1, time=96),
    Message('note_on', channel=9, note=42, velocity=120, time=0),
    Message('note_off', channel=9, note=42, velocity=1, time=96),
    Message('note_on', channel=9, note=42, velocity=127, time=0),
    Message('note_off', channel=9, note=42, velocity=1, time=96),
    Message('note_on', channel=9, note=42, velocity=120, time=0),
    Message('note_off', channel=9, note=42, velocity=1, time=96),
    Message('note_on', channel=9, note=42, velocity=127, time=0),
    Message('note_off', channel=9, note=42, velocity=1, time=96),
    Message('note_on', channel=9, note=42, velocity=120, time=0),
    Message('note_off', channel=9, note=42, velocity=1, time=96),
    Message('note_on', channel=9, note=42, velocity=127, time=0),
    Message('note_off', channel=9, note=42, velocity=1, time=96),
    Message('note_on', channel=9, note=42, velocity=120, time=0),
    Message('note_off', channel=9, note=42, velocity=1, time=96),
    Message('note_on', channel=9, note=42, velocity=127, time=0),
    Message('note_off', channel=9, note=42, velocity=1, time=96),
    Message('note_on', channel=9, note=42, velocity=120, time=0),
    Message('note_off', channel=9, note=42, velocity=1, time=96),
    Message('note_on', channel=9, note=42, velocity=127, time=0),
    Message('note_off', channel=9, note=42, velocity=1, time=96),
    Message('note_on', channel=9, note=42, velocity=120, time=0),
    Message('note_off', channel=9, note=42, velocity=1, time=96),
    Message('note_on', channel=9, note=42, velocity=127, time=0),
    Message('note_off', channel=9, note=42, velocity=1, time=96),
    Message('note_on', channel=9, note=42, velocity=120, time=0),
    Message('note_off', channel=9, note=42, velocity=1, time=96),
    Message('note_on', channel=9, note=42, velocity=127, time=0),
    Message('note_off', channel=9, note=42, velocity=1, time=96),
    Message('note_on', channel=9, note=42, velocity=120, time=0),
    Message('note_off', channel=9, note=42, velocity=1, time=96),
    Message('note_on', channel=9, note=42, velocity=127, time=0),
    Message('note_off', channel=9, note=42, velocity=1, time=96),
    Message('note_on', channel=9, note=42, velocity=120, time=0),
    Message('note_off', channel=9, note=42, velocity=1, time=96),
    Message('note_on', channel=9, note=42, velocity=127, time=0),
    Message('note_off', channel=9, note=42, velocity=1, time=96),
    Message('note_on', channel=9, note=42, velocity=120, time=0),
    Message('note_off', channel=9, note=42, velocity=1, time=96),
    Message('note_on', channel=9, note=42, velocity=120, time=0),
    Message('note_off', channel=9, note=42, velocity=1, time=96),
    Message('note_on', channel=9, note=42, velocity=90, time=0),
    Message('note_off', channel=9, note=42, velocity=1, time=96),
    Message('note_on', channel=9, note=42, velocity=127, time=0),
    Message('note_off', channel=9, note=42, velocity=1, time=96),
    Message('note_on', channel=9, note=42, velocity=110, time=0),
    Message('note_off', channel=9, note=42, velocity=1, time=96),
    Message('note_on', channel=9, note=42, velocity=120, time=0),
    Message('note_off', channel=9, note=42, velocity=1, time=96),
    Message('note_on', channel=9, note=42, velocity=120, time=0),
    Message('note_off', channel=9, note=42, velocity=1, time=96),
    Message('note_on', channel=9, note=42, velocity=127, time=0),
    Message('note_off', channel=9, note=42, velocity=1, time=96),
    Message('note_on', channel=9, note=42, velocity=120, time=0),
    Message('note_off', channel=9, note=42, velocity=1, time=96),
    Message('note_on', channel=9, note=42, velocity=127, time=0),
    Message('note_off', channel=9, note=42, velocity=1, time=96),
    Message('note_on', channel=9, note=42, velocity=120, time=0),
    Message('note_off', channel=9, note=42, velocity=1, time=96),
    Message('note_on', channel=9, note=42, velocity=127, time=0),
    Message('note_off', channel=9, note=42, velocity=1, time=96),
    Message('note_on', channel=9, note=42, velocity=120, time=0),
    Message('note_off', channel=9, note=42, velocity=1, time=96),
    Message('note_on', channel=9, note=42, velocity=127, time=0),
    Message('note_off', channel=9, note=42, velocity=1, time=96),
    Message('note_on', channel=9, note=42, velocity=110, time=0),
    Message('note_off', channel=9, note=42, velocity=1, time=96),
    Message('note_on', channel=9, note=42, velocity=127, time=0),
    Message('note_off', channel=9, note=42, velocity=1, time=96),
    Message('note_on', channel=9, note=42, velocity=120, time=0),
    Message('note_off', channel=9, note=42, velocity=1, time=96),
    Message('note_on', channel=9, note=42, velocity=127, time=0),
    Message('note_off', channel=9, note=42, velocity=1, time=96),
    Message('note_on', channel=9, note=42, velocity=120, time=0),
    Message('note_off', channel=9, note=42, velocity=1, time=96),
    Message('note_on', channel=9, note=42, velocity=127, time=0),
    Message('note_off', channel=9, note=42, velocity=1, time=96),
    Message('note_on', channel=9, note=42, velocity=120, time=0),
    Message('note_off', channel=9, note=42, velocity=1, time=96),
    Message('note_on', channel=9, note=42, velocity=127, time=0),
    Message('note_off', channel=9, note=42, velocity=1, time=96),
    Message('note_on', channel=9, note=42, velocity=120, time=0),
    Message('note_off', channel=9, note=42, velocity=1, time=96),
    Message('note_on', channel=9, note=42, velocity=127, time=0),
    Message('note_off', channel=9, note=42, velocity=1, time=96),
    Message('note_on', channel=9, note=42, velocity=120, time=0),
    Message('note_off', channel=9, note=42, velocity=1, time=96),
    Message('note_on', channel=9, note=42, velocity=127, time=0),
    Message('note_off', channel=9, note=42, velocity=1, time=96),
    Message('note_on', channel=9, note=42, velocity=120, time=0),
    Message('note_off', channel=9, note=42, velocity=1, time=96),
    Message('note_on', channel=9, note=42, velocity=127, time=0),
    Message('note_off', channel=9, note=42, velocity=1, time=96),
    Message('note_on', channel=9, note=42, velocity=120, time=0),
    Message('note_off', channel=9, note=42, velocity=1, time=96),
    Message('note_on', channel=9, note=42, velocity=127, time=0),
    Message('note_off', channel=9, note=42, velocity=1, time=96),
    Message('note_on', channel=9, note=42, velocity=120, time=0),
    Message('note_off', channel=9, note=42, velocity=1, time=96),
    Message('note_on', channel=9, note=42, velocity=110, time=0),
    Message('note_off', channel=9, note=42, velocity=1, time=96),
    Message('note_on', channel=9, note=42, velocity=110, time=672),
    Message('note_off', channel=9, note=42, velocity=1, time=96),
    Message('note_on', channel=9, note=42, velocity=127, time=2208),
    Message('note_off', channel=9, note=42, velocity=1, time=96),
    Message('note_on', channel=9, note=42, velocity=120, time=0),
    Message('note_off', channel=9, note=42, velocity=1, time=96),
    Message('note_on', channel=9, note=42, velocity=127, time=0),
    Message('note_off', channel=9, note=42, velocity=1, time=96),
    Message('note_on', channel=9, note=42, velocity=120, time=0),
    Message('note_off', channel=9, note=42, velocity=1, time=96),
    Message('note_on', channel=9, note=42, velocity=127, time=0),
    Message('note_off', channel=9, note=42, velocity=1, time=96),
    Message('note_on', channel=9, note=42, velocity=120, time=0),
    Message('note_off', channel=9, note=42, velocity=1, time=96),
    Message('note_on', channel=9, note=42, velocity=127, time=0),
    Message('note_off', channel=9, note=42, velocity=1, time=96),
    Message('note_on', channel=9, note=42, velocity=120, time=0),
    Message('note_off', channel=9, note=42, velocity=1, time=96),
    Message('note_on', channel=9, note=42, velocity=127, time=0),
    Message('note_off', channel=9, note=42, velocity=1, time=96),
    Message('note_on', channel=9, note=42, velocity=120, time=0),
    Message('note_off', channel=9, note=42, velocity=1, time=96),
    Message('note_on', channel=9, note=42, velocity=127, time=0),
    Message('note_off', channel=9, note=42, velocity=1, time=96),
    Message('note_on', channel=9, note=42, velocity=120, time=0),
    Message('note_off', channel=9, note=42, velocity=1, time=96),
    Message('note_on', channel=9, note=42, velocity=127, time=0),
    Message('note_off', channel=9, note=42, velocity=1, time=96),
    Message('note_on', channel=9, note=42, velocity=110, time=0),
    Message('note_off', channel=9, note=42, velocity=1, time=96),
    Message('note_on', channel=9, note=42, velocity=127, time=0),
    Message('note_off', channel=9, note=42, velocity=1, time=96),
    Message('note_on', channel=9, note=42, velocity=110, time=0),
    Message('note_off', channel=9, note=42, velocity=1, time=96),
    Message('note_on', channel=9, note=42, velocity=127, time=0),
    Message('note_off', channel=9, note=42, velocity=1, time=96),
    Message('note_on', channel=9, note=42, velocity=110, time=0),
    Message('note_off', channel=9, note=42, velocity=1, time=96),
    Message('note_on', channel=9, note=42, velocity=127, time=0),
    Message('note_off', channel=9, note=42, velocity=1, time=96),
    Message('note_on', channel=9, note=42, velocity=110, time=0),
    Message('note_off', channel=9, note=42, velocity=1, time=96),
    Message('note_on', channel=9, note=42, velocity=127, time=0),
    Message('note_off', channel=9, note=42, velocity=1, time=96),
    Message('note_on', channel=9, note=42, velocity=120, time=0),
    Message('note_off', channel=9, note=42, velocity=1, time=96),
    Message('note_on', channel=9, note=42, velocity=127, time=0),
    Message('note_off', channel=9, note=42, velocity=1, time=96),
    Message('note_on', channel=9, note=42, velocity=120, time=0),
    Message('note_off', channel=9, note=42, velocity=1, time=96),
    Message('note_on', channel=9, note=42, velocity=127, time=0),
    Message('note_off', channel=9, note=42, velocity=1, time=96),
    Message('note_on', channel=9, note=42, velocity=120, time=0),
    Message('note_off', channel=9, note=42, velocity=1, time=96),
    Message('note_on', channel=9, note=42, velocity=127, time=0),
    Message('note_off', channel=9, note=42, velocity=1, time=96),
    Message('note_on', channel=9, note=42, velocity=120, time=0),
    Message('note_off', channel=9, note=42, velocity=1, time=96),
    Message('note_on', channel=9, note=42, velocity=127, time=0),
    Message('note_off', channel=9, note=42, velocity=1, time=96),
    Message('note_on', channel=9, note=42, velocity=110, time=0),
    Message('note_off', channel=9, note=42, velocity=1, time=96),
    Message('note_on', channel=9, note=42, velocity=127, time=0),
    Message('note_off', channel=9, note=42, velocity=1, time=96),
    Message('note_on', channel=9, note=42, velocity=110, time=0),
    Message('note_off', channel=9, note=42, velocity=1, time=96),
    Message('note_on', channel=9, note=42, velocity=127, time=0),
    Message('note_off', channel=9, note=42, velocity=1, time=96),
    Message('note_on', channel=9, note=42, velocity=120, time=0),
    Message('note_off', channel=9, note=42, velocity=1, time=96),
    Message('note_on', channel=9, note=42, velocity=127, time=0),
    Message('note_off', channel=9, note=42, velocity=1, time=96),
    Message('note_on', channel=9, note=42, velocity=120, time=0),
    Message('note_off', channel=9, note=42, velocity=1, time=96),
    Message('note_on', channel=9, note=42, velocity=127, time=0),
    Message('note_off', channel=9, note=42, velocity=1, time=96),
    Message('note_on', channel=9, note=42, velocity=120, time=0),
    Message('note_off', channel=9, note=42, velocity=1, time=96),
    Message('note_on', channel=9, note=42, velocity=127, time=0),
    Message('note_off', channel=9, note=42, velocity=1, time=96),
    Message('note_on', channel=9, note=42, velocity=100, time=0),
    Message('note_off', channel=9, note=42, velocity=1, time=96),
    Message('note_on', channel=9, note=42, velocity=127, time=0),
    Message('note_off', channel=9, note=42, velocity=1, time=96),
    Message('note_on', channel=9, note=42, velocity=120, time=0),
    Message('note_off', channel=9, note=42, velocity=1, time=96),
    Message('note_on', channel=9, note=42, velocity=127, time=0),
    Message('note_off', channel=9, note=42, velocity=1, time=96),
    Message('note_on', channel=9, note=42, velocity=120, time=0),
    Message('note_off', channel=9, note=42, velocity=1, time=96),
    Message('note_on', channel=9, note=42, velocity=127, time=0),
    Message('note_off', channel=9, note=42, velocity=1, time=96),
    Message('note_on', channel=9, note=42, velocity=110, time=0),
    Message('note_off', channel=9, note=42, velocity=1, time=96),
    Message('note_on', channel=9, note=42, velocity=127, time=0),
    Message('note_off', channel=9, note=42, velocity=1, time=96),
    Message('note_on', channel=9, note=42, velocity=110, time=0),
    Message('note_off', channel=9, note=42, velocity=1, time=96),
    Message('note_on', channel=9, note=42, velocity=127, time=0),
    Message('note_off', channel=9, note=42, velocity=1, time=96),
    Message('note_on', channel=9, note=42, velocity=120, time=0),
    Message('note_off', channel=9, note=42, velocity=1, time=96),
    Message('note_on', channel=9, note=42, velocity=127, time=0),
    Message('note_off', channel=9, note=42, velocity=1, time=96),
    Message('note_on', channel=9, note=42, velocity=120, time=0),
    Message('note_off', channel=9, note=42, velocity=1, time=96),
    Message('note_on', channel=9, note=42, velocity=127, time=0),
    Message('note_off', channel=9, note=42, velocity=1, time=96),
    Message('note_on', channel=9, note=42, velocity=120, time=0),
    Message('note_off', channel=9, note=42, velocity=1, time=96),
    Message('note_on', channel=9, note=42, velocity=127, time=0),
    Message('note_off', channel=9, note=42, velocity=1, time=96),
    Message('note_on', channel=9, note=42, velocity=120, time=0),
    Message('note_off', channel=9, note=42, velocity=1, time=96),
    Message('note_on', channel=9, note=42, velocity=127, time=0),
    Message('note_off', channel=9, note=42, velocity=1, time=96),
    Message('note_on', channel=9, note=42, velocity=120, time=0),
    Message('note_off', channel=9, note=42, velocity=1, time=96),
    Message('note_on', channel=9, note=42, velocity=127, time=0),
    Message('note_off', channel=9, note=42, velocity=1, time=96),
    Message('note_on', channel=9, note=42, velocity=120, time=0),
    Message('note_off', channel=9, note=42, velocity=1, time=96),
    Message('note_on', channel=9, note=42, velocity=127, time=0),
    Message('note_off', channel=9, note=42, velocity=1, time=96),
    Message('note_on', channel=9, note=42, velocity=110, time=0),
    Message('note_off', channel=9, note=42, velocity=1, time=96),
    Message('note_on', channel=9, note=42, velocity=127, time=0),
    Message('note_off', channel=9, note=42, velocity=1, time=96),
    Message('note_on', channel=9, note=42, velocity=110, time=0),
    Message('note_off', channel=9, note=42, velocity=1, time=96),
    Message('note_on', channel=9, note=42, velocity=127, time=0),
    Message('note_off', channel=9, note=42, velocity=1, time=96),
    Message('note_on', channel=9, note=42, velocity=110, time=0),
    Message('note_off', channel=9, note=42, velocity=1, time=96),
    Message('note_on', channel=9, note=42, velocity=127, time=0),
    Message('note_off', channel=9, note=42, velocity=1, time=96),
    Message('note_on', channel=9, note=42, velocity=110, time=0),
    Message('note_off', channel=9, note=42, velocity=1, time=96),
    Message('note_on', channel=9, note=42, velocity=127, time=0),
    Message('note_off', channel=9, note=42, velocity=1, time=96),
    Message('note_on', channel=9, note=42, velocity=120, time=0),
    Message('note_off', channel=9, note=42, velocity=1, time=96),
    Message('note_on', channel=9, note=42, velocity=127, time=0),
    Message('note_off', channel=9, note=42, velocity=1, time=96),
    Message('note_on', channel=9, note=42, velocity=120, time=0),
    Message('note_off', channel=9, note=42, velocity=1, time=192),
    Message('note_on', channel=9, note=42, velocity=127, time=2208),
    Message('note_off', channel=9, note=42, velocity=1, time=96),
    Message('note_on', channel=9, note=42, velocity=120, time=0),
    Message('note_off', channel=9, note=42, velocity=1, time=96),
    Message('note_on', channel=9, note=42, velocity=127, time=0),
    Message('note_off', channel=9, note=42, velocity=1, time=96),
    Message('note_on', channel=9, note=42, velocity=120, time=0),
    Message('note_off', channel=9, note=42, velocity=1, time=96),
    Message('note_on', channel=9, note=42, velocity=127, time=0),
    Message('note_off', channel=9, note=42, velocity=1, time=96),
    Message('note_on', channel=9, note=42, velocity=110, time=0),
    Message('note_off', channel=9, note=42, velocity=1, time=96),
    Message('note_on', channel=9, note=42, velocity=127, time=0),
    Message('note_off', channel=9, note=42, velocity=1, time=96),
    Message('note_on', channel=9, note=42, velocity=110, time=0),
    Message('note_off', channel=9, note=42, velocity=1, time=192),
    Message('note_on', channel=9, note=42, velocity=127, time=1440),
    Message('note_off', channel=9, note=42, velocity=1, time=96),
    Message('note_on', channel=9, note=42, velocity=120, time=0),
    Message('note_off', channel=9, note=42, velocity=1, time=96),
    Message('note_on', channel=9, note=42, velocity=127, time=0),
    Message('note_off', channel=9, note=42, velocity=1, time=96),
    Message('note_on', channel=9, note=42, velocity=120, time=0),
    Message('note_off', channel=9, note=42, velocity=1, time=96),
    Message('note_on', channel=9, note=42, velocity=127, time=0),
    Message('note_off', channel=9, note=42, velocity=1, time=96),
    Message('note_on', channel=9, note=42, velocity=120, time=0),
    Message('note_off', channel=9, note=42, velocity=1, time=96),
    Message('note_on', channel=9, note=42, velocity=127, time=0),
    Message('note_off', channel=9, note=42, velocity=1, time=96),
    Message('note_on', channel=9, note=42, velocity=120, time=0),
    Message('note_off', channel=9, note=42, velocity=1, time=192),
    Message('note_on', channel=9, note=42, velocity=127, time=672),
    Message('note_off', channel=9, note=42, velocity=1, time=96),
    Message('note_on', channel=9, note=42, velocity=120, time=0),
    Message('note_off', channel=9, note=42, velocity=1, time=96),
    Message('note_on', channel=9, note=42, velocity=127, time=0),
    Message('note_off', channel=9, note=42, velocity=1, time=96),
    Message('note_on', channel=9, note=42, velocity=120, time=0),
    Message('note_off', channel=9, note=42, velocity=1, time=96),
    Message('note_on', channel=9, note=42, velocity=127, time=0),
    Message('note_off', channel=9, note=42, velocity=1, time=96),
    Message('note_on', channel=9, note=42, velocity=120, time=0),
    Message('note_off', channel=9, note=42, velocity=1, time=96),
    Message('note_on', channel=9, note=42, velocity=127, time=0),
    Message('note_off', channel=9, note=42, velocity=1, time=96),
    Message('note_on', channel=9, note=42, velocity=120, time=0),
    Message('note_off', channel=9, note=42, velocity=1, time=96),
    Message('note_on', channel=9, note=42, velocity=127, time=0),
    Message('note_off', channel=9, note=42, velocity=1, time=96),
    Message('note_on', channel=9, note=42, velocity=120, time=0),
    Message('note_off', channel=9, note=42, velocity=1, time=96),
    Message('note_on', channel=9, note=42, velocity=127, time=0),
    Message('note_off', channel=9, note=42, velocity=1, time=96),
    Message('note_on', channel=9, note=42, velocity=120, time=0),
    Message('note_off', channel=9, note=42, velocity=1, time=96),
    Message('note_on', channel=9, note=42, velocity=127, time=0),
    Message('note_off', channel=9, note=42, velocity=1, time=96),
    Message('note_on', channel=9, note=42, velocity=110, time=0),
    Message('note_off', channel=9, note=42, velocity=1, time=96),
    Message('note_on', channel=9, note=42, velocity=127, time=0),
    Message('note_off', channel=9, note=42, velocity=1, time=96),
    Message('note_on', channel=9, note=42, velocity=110, time=0),
    Message('note_off', channel=9, note=42, velocity=1, time=96),
    Message('note_on', channel=9, note=42, velocity=127, time=0),
    Message('note_off', channel=9, note=42, velocity=1, time=96),
    Message('note_on', channel=9, note=42, velocity=110, time=0),
    Message('note_off', channel=9, note=42, velocity=1, time=96),
    Message('note_on', channel=9, note=42, velocity=127, time=0),
    Message('note_off', channel=9, note=42, velocity=1, time=96),
    Message('note_on', channel=9, note=42, velocity=110, time=0),
    Message('note_off', channel=9, note=42, velocity=1, time=96),
    Message('note_on', channel=9, note=42, velocity=127, time=0),
    Message('note_off', channel=9, note=42, velocity=1, time=96),
    Message('note_on', channel=9, note=42, velocity=120, time=0),
    Message('note_off', channel=9, note=42, velocity=1, time=96),
    Message('note_on', channel=9, note=42, velocity=127, time=0),
    Message('note_off', channel=9, note=42, velocity=1, time=96),
    Message('note_on', channel=9, note=42, velocity=120, time=0),
    Message('note_off', channel=9, note=42, velocity=1, time=96),
    Message('note_on', channel=9, note=42, velocity=127, time=0),
    Message('note_off', channel=9, note=42, velocity=1, time=96),
    Message('note_on', channel=9, note=42, velocity=120, time=0),
    Message('note_off', channel=9, note=42, velocity=1, time=96),
    Message('note_on', channel=9, note=42, velocity=127, time=0),
    Message('note_off', channel=9, note=42, velocity=1, time=96),
    Message('note_on', channel=9, note=42, velocity=120, time=0),
    Message('note_off', channel=9, note=42, velocity=1, time=96),
    Message('note_on', channel=9, note=42, velocity=127, time=0),
    Message('note_off', channel=9, note=42, velocity=1, time=96),
    Message('note_on', channel=9, note=42, velocity=110, time=0),
    Message('note_off', channel=9, note=42, velocity=1, time=96),
    Message('note_on', channel=9, note=42, velocity=127, time=0),
    Message('note_off', channel=9, note=42, velocity=1, time=96),
    Message('note_on', channel=9, note=42, velocity=110, time=0),
    Message('note_off', channel=9, note=42, velocity=1, time=96),
    Message('note_on', channel=9, note=42, velocity=127, time=0),
    Message('note_off', channel=9, note=42, velocity=1, time=96),
    Message('note_on', channel=9, note=42, velocity=120, time=0),
    Message('note_off', channel=9, note=42, velocity=1, time=96),
    Message('note_on', channel=9, note=42, velocity=127, time=0),
    Message('note_off', channel=9, note=42, velocity=1, time=96),
    Message('note_on', channel=9, note=42, velocity=120, time=0),
    Message('note_off', channel=9, note=42, velocity=1, time=96),
    Message('note_on', channel=9, note=42, velocity=127, time=0),
    Message('note_off', channel=9, note=42, velocity=1, time=96),
    Message('note_on', channel=9, note=42, velocity=120, time=0),
    Message('note_off', channel=9, note=42, velocity=1, time=96),
    Message('note_on', channel=9, note=42, velocity=127, time=0),
    Message('note_off', channel=9, note=42, velocity=1, time=96),
    Message('note_on', channel=9, note=42, velocity=100, time=0),
    Message('note_off', channel=9, note=42, velocity=1, time=96),
    Message('note_on', channel=9, note=42, velocity=127, time=0),
    Message('note_off', channel=9, note=42, velocity=1, time=96),
    Message('note_on', channel=9, note=42, velocity=120, time=0),
    Message('note_off', channel=9, note=42, velocity=1, time=96),
    Message('note_on', channel=9, note=42, velocity=127, time=0),
    Message('note_off', channel=9, note=42, velocity=1, time=96),
    Message('note_on', channel=9, note=42, velocity=120, time=0),
    Message('note_off', channel=9, note=42, velocity=1, time=96),
    Message('note_on', channel=9, note=42, velocity=127, time=0),
    Message('note_off', channel=9, note=42, velocity=1, time=96),
    Message('note_on', channel=9, note=42, velocity=110, time=0),
    Message('note_off', channel=9, note=42, velocity=1, time=96),
    Message('note_on', channel=9, note=42, velocity=127, time=0),
    Message('note_off', channel=9, note=42, velocity=1, time=96),
    Message('note_on', channel=9, note=42, velocity=110, time=0),
    Message('note_off', channel=9, note=42, velocity=1, time=96),
    Message('note_on', channel=9, note=42, velocity=127, time=0),
    Message('note_off', channel=9, note=42, velocity=1, time=96),
    Message('note_on', channel=9, note=42, velocity=120, time=0),
    Message('note_off', channel=9, note=42, velocity=1, time=96),
    Message('note_on', channel=9, note=42, velocity=127, time=0),
    Message('note_off', channel=9, note=42, velocity=1, time=96),
    Message('note_on', channel=9, note=42, velocity=120, time=0),
    Message('note_off', channel=9, note=42, velocity=1, time=96),
    Message('note_on', channel=9, note=42, velocity=127, time=0),
    Message('note_off', channel=9, note=42, velocity=1, time=96),
    Message('note_on', channel=9, note=42, velocity=120, time=0),
    Message('note_off', channel=9, note=42, velocity=1, time=96),
    Message('note_on', channel=9, note=42, velocity=127, time=0),
    Message('note_off', channel=9, note=42, velocity=1, time=96),
    Message('note_on', channel=9, note=42, velocity=120, time=0),
    Message('note_off', channel=9, note=42, velocity=1, time=96),
    Message('note_on', channel=9, note=42, velocity=127, time=0),
    Message('note_off', channel=9, note=42, velocity=1, time=96),
    Message('note_on', channel=9, note=42, velocity=120, time=0),
    Message('note_off', channel=9, note=42, velocity=1, time=96),
    Message('note_on', channel=9, note=42, velocity=127, time=0),
    Message('note_off', channel=9, note=42, velocity=1, time=96),
    Message('note_on', channel=9, note=42, velocity=120, time=0),
    Message('note_off', channel=9, note=42, velocity=1, time=96),
    Message('note_on', channel=9, note=42, velocity=127, time=0),
    Message('note_off', channel=9, note=42, velocity=1, time=96),
    Message('note_on', channel=9, note=42, velocity=110, time=0),
    Message('note_off', channel=9, note=42, velocity=1, time=96),
    Message('note_on', channel=9, note=42, velocity=127, time=0),
    Message('note_off', channel=9, note=42, velocity=1, time=96),
    Message('note_on', channel=9, note=42, velocity=110, time=0),
    Message('note_off', channel=9, note=42, velocity=1, time=96),
    Message('note_on', channel=9, note=42, velocity=127, time=0),
    Message('note_off', channel=9, note=42, velocity=1, time=96),
    Message('note_on', channel=9, note=42, velocity=110, time=0),
    Message('note_off', channel=9, note=42, velocity=1, time=96),
    Message('note_on', channel=9, note=42, velocity=127, time=0),
    Message('note_off', channel=9, note=42, velocity=1, time=96),
    Message('note_on', channel=9, note=42, velocity=110, time=0),
    Message('note_off', channel=9, note=42, velocity=1, time=96),
    Message('note_on', channel=9, note=42, velocity=127, time=0),
    Message('note_off', channel=9, note=42, velocity=1, time=96),
    Message('note_on', channel=9, note=42, velocity=120, time=0),
    Message('note_off', channel=9, note=42, velocity=1, time=96),
    Message('note_on', channel=9, note=42, velocity=127, time=0),
    Message('note_off', channel=9, note=42, velocity=1, time=96),
    Message('note_on', channel=9, note=42, velocity=120, time=0),
    Message('note_off', channel=9, note=42, velocity=1, time=96),
    Message('note_on', channel=9, note=42, velocity=127, time=0),
    Message('note_off', channel=9, note=42, velocity=1, time=96),
    Message('note_on', channel=9, note=42, velocity=120, time=0),
    Message('note_off', channel=9, note=42, velocity=1, time=96),
    Message('note_on', channel=9, note=42, velocity=127, time=0),
    Message('note_off', channel=9, note=42, velocity=1, time=96),
    Message('note_on', channel=9, note=42, velocity=120, time=0),
    Message('note_off', channel=9, note=42, velocity=1, time=96),
    Message('note_on', channel=9, note=42, velocity=127, time=0),
    Message('note_off', channel=9, note=42, velocity=1, time=96),
    Message('note_on', channel=9, note=42, velocity=110, time=0),
    Message('note_off', channel=9, note=42, velocity=1, time=96),
    Message('note_on', channel=9, note=42, velocity=127, time=0),
    Message('note_off', channel=9, note=42, velocity=1, time=96),
    Message('note_on', channel=9, note=42, velocity=110, time=0),
    Message('note_off', channel=9, note=42, velocity=1, time=96),
    Message('note_on', channel=9, note=42, velocity=127, time=0),
    Message('note_off', channel=9, note=42, velocity=1, time=96),
    Message('note_on', channel=9, note=42, velocity=120, time=0),
    Message('note_off', channel=9, note=42, velocity=1, time=96),
    Message('note_on', channel=9, note=42, velocity=127, time=0),
    Message('note_off', channel=9, note=42, velocity=1, time=96),
    Message('note_on', channel=9, note=42, velocity=120, time=0),
    Message('note_off', channel=9, note=42, velocity=1, time=96),
    Message('note_on', channel=9, note=42, velocity=127, time=0),
    Message('note_off', channel=9, note=42, velocity=1, time=96),
    Message('note_on', channel=9, note=42, velocity=120, time=0),
    Message('note_off', channel=9, note=42, velocity=1, time=96),
    Message('note_on', channel=9, note=42, velocity=127, time=0),
    Message('note_off', channel=9, note=42, velocity=1, time=96),
    Message('note_on', channel=9, note=42, velocity=100, time=0),
    Message('note_off', channel=9, note=42, velocity=1, time=96),
    Message('note_on', channel=9, note=42, velocity=127, time=0),
    Message('note_off', channel=9, note=42, velocity=1, time=96),
    Message('note_on', channel=9, note=42, velocity=120, time=0),
    Message('note_off', channel=9, note=42, velocity=1, time=96),
    Message('note_on', channel=9, note=42, velocity=127, time=0),
    Message('note_off', channel=9, note=42, velocity=1, time=96),
    Message('note_on', channel=9, note=42, velocity=120, time=0),
    Message('note_off', channel=9, note=42, velocity=1, time=96),
    Message('note_on', channel=9, note=42, velocity=127, time=0),
    Message('note_off', channel=9, note=42, velocity=1, time=96),
    Message('note_on', channel=9, note=42, velocity=110, time=0),
    Message('note_off', channel=9, note=42, velocity=1, time=96),
    Message('note_on', channel=9, note=42, velocity=127, time=0),
    Message('note_off', channel=9, note=42, velocity=1, time=96),
    Message('note_on', channel=9, note=42, velocity=110, time=0),
    Message('note_off', channel=9, note=42, velocity=1, time=192),
    Message('note_on', channel=9, note=42, velocity=127, time=1440),
    Message('note_off', channel=9, note=42, velocity=1, time=96),
    Message('note_on', channel=9, note=42, velocity=120, time=0),
    Message('note_off', channel=9, note=42, velocity=1, time=96),
    Message('note_on', channel=9, note=42, velocity=127, time=0),
    Message('note_off', channel=9, note=42, velocity=1, time=96),
    Message('note_on', channel=9, note=42, velocity=120, time=0),
    Message('note_off', channel=9, note=42, velocity=1, time=96),
    Message('note_on', channel=9, note=42, velocity=127, time=0),
    Message('note_off', channel=9, note=42, velocity=1, time=96),
    Message('note_on', channel=9, note=42, velocity=120, time=0),
    Message('note_off', channel=9, note=42, velocity=1, time=96),
    Message('note_on', channel=9, note=42, velocity=127, time=0),
    Message('note_off', channel=9, note=42, velocity=1, time=96),
    Message('note_on', channel=9, note=42, velocity=120, time=0),
    Message('note_off', channel=9, note=42, velocity=1, time=96),
    Message('note_on', channel=9, note=42, velocity=127, time=0),
    Message('note_off', channel=9, note=42, velocity=1, time=96),
    Message('note_on', channel=9, note=42, velocity=120, time=0),
    Message('note_off', channel=9, note=42, velocity=1, time=96),
    Message('note_on', channel=9, note=42, velocity=127, time=0),
    Message('note_off', channel=9, note=42, velocity=1, time=96),
    Message('note_on', channel=9, note=42, velocity=120, time=0),
    Message('note_off', channel=9, note=42, velocity=1, time=96),
    Message('note_on', channel=9, note=42, velocity=127, time=0),
    Message('note_off', channel=9, note=42, velocity=1, time=96),
    Message('note_on', channel=9, note=42, velocity=110, time=0),
    Message('note_off', channel=9, note=42, velocity=1, time=96),
    Message('note_on', channel=9, note=42, velocity=127, time=0),
    Message('note_off', channel=9, note=42, velocity=1, time=96),
    Message('note_on', channel=9, note=42, velocity=110, time=0),
    Message('note_off', channel=9, note=42, velocity=1, time=96),
    Message('note_on', channel=9, note=42, velocity=127, time=0),
    Message('note_off', channel=9, note=42, velocity=1, time=96),
    Message('note_on', channel=9, note=42, velocity=110, time=0),
    Message('note_off', channel=9, note=42, velocity=1, time=96),
    Message('note_on', channel=9, note=42, velocity=127, time=0),
    Message('note_off', channel=9, note=42, velocity=1, time=96),
    Message('note_on', channel=9, note=42, velocity=110, time=0),
    Message('note_off', channel=9, note=42, velocity=1, time=96),
    Message('note_on', channel=9, note=42, velocity=127, time=0),
    Message('note_off', channel=9, note=42, velocity=1, time=96),
    Message('note_on', channel=9, note=42, velocity=120, time=0),
    Message('note_off', channel=9, note=42, velocity=1, time=96),
    Message('note_on', channel=9, note=42, velocity=127, time=0),
    Message('note_off', channel=9, note=42, velocity=1, time=96),
    Message('note_on', channel=9, note=42, velocity=120, time=0),
    Message('note_off', channel=9, note=42, velocity=1, time=192),
    Message('control_change', channel=9, control=7, value=113, time=672),
    Message('note_on', channel=9, note=42, velocity=127, time=768),
    Message('note_off', channel=9, note=42, velocity=1, time=96),
    Message('note_on', channel=9, note=42, velocity=120, time=0),
    Message('note_off', channel=9, note=42, velocity=1, time=96),
    Message('note_on', channel=9, note=42, velocity=127, time=0),
    Message('note_off', channel=9, note=42, velocity=1, time=96),
    Message('note_on', channel=9, note=42, velocity=120, time=0),
    Message('note_off', channel=9, note=42, velocity=1, time=96),
    Message('note_on', channel=9, note=42, velocity=127, time=0),
    Message('note_off', channel=9, note=42, velocity=1, time=96),
    Message('note_on', channel=9, note=42, velocity=120, time=0),
    Message('note_off', channel=9, note=42, velocity=1, time=96),
    Message('note_on', channel=9, note=42, velocity=127, time=0),
    Message('note_off', channel=9, note=42, velocity=1, time=96),
    Message('note_on', channel=9, note=42, velocity=120, time=0),
    Message('note_off', channel=9, note=42, velocity=1, time=192),
    Message('control_change', channel=9, control=7, value=123, time=1440),
    Message('note_on', channel=9, note=42, velocity=127, time=768),
    Message('note_off', channel=9, note=42, velocity=1, time=96),
    Message('note_on', channel=9, note=42, velocity=120, time=0),
    Message('note_off', channel=9, note=42, velocity=1, time=96),
    Message('note_on', channel=9, note=42, velocity=127, time=0),
    Message('note_off', channel=9, note=42, velocity=1, time=96),
    Message('note_on', channel=9, note=42, velocity=120, time=0),
    Message('note_off', channel=9, note=42, velocity=1, time=96),
    Message('note_on', channel=9, note=42, velocity=127, time=0),
    Message('note_off', channel=9, note=42, velocity=1, time=96),
    Message('note_on', channel=9, note=42, velocity=120, time=0),
    Message('note_off', channel=9, note=42, velocity=1, time=96),
    Message('note_on', channel=9, note=42, velocity=127, time=0),
    Message('note_off', channel=9, note=42, velocity=1, time=96),
    Message('note_on', channel=9, note=42, velocity=120, time=0),
    Message('note_off', channel=9, note=42, velocity=1, time=96),
    Message('note_on', channel=9, note=42, velocity=127, time=0),
    Message('note_off', channel=9, note=42, velocity=1, time=96),
    Message('note_on', channel=9, note=42, velocity=90, time=0),
    Message('note_off', channel=9, note=42, velocity=1, time=96),
    Message('note_on', channel=9, note=42, velocity=120, time=0),
    Message('note_off', channel=9, note=42, velocity=1, time=96),
    Message('note_on', channel=9, note=42, velocity=110, time=0),
    Message('note_off', channel=9, note=42, velocity=1, time=96),
    Message('note_on', channel=9, note=42, velocity=127, time=0),
    Message('note_off', channel=9, note=42, velocity=1, time=96),
    Message('note_on', channel=9, note=42, velocity=110, time=0),
    Message('note_off', channel=9, note=42, velocity=1, time=96),
    Message('note_on', channel=9, note=42, velocity=127, time=0),
    Message('note_off', channel=9, note=42, velocity=1, time=96),
    Message('note_on', channel=9, note=42, velocity=110, time=0),
    Message('note_off', channel=9, note=42, velocity=1, time=96),
    Message('note_on', channel=9, note=42, velocity=127, time=0),
    Message('note_off', channel=9, note=42, velocity=1, time=96),
    Message('note_on', channel=9, note=42, velocity=120, time=0),
    Message('note_off', channel=9, note=42, velocity=1, time=96),
    Message('note_on', channel=9, note=42, velocity=127, time=0),
    Message('note_off', channel=9, note=42, velocity=1, time=96),
    Message('note_on', channel=9, note=42, velocity=120, time=0),
    Message('note_off', channel=9, note=42, velocity=1, time=96),
    Message('note_on', channel=9, note=42, velocity=127, time=0),
    Message('note_off', channel=9, note=42, velocity=1, time=96),
    Message('note_on', channel=9, note=42, velocity=120, time=0),
    Message('note_off', channel=9, note=42, velocity=1, time=96),
    Message('note_on', channel=9, note=42, velocity=127, time=0),
    Message('note_off', channel=9, note=42, velocity=1, time=96),
    Message('note_on', channel=9, note=42, velocity=100, time=0),
    Message('note_off', channel=9, note=42, velocity=1, time=192),
    Message('note_on', channel=9, note=42, velocity=127, time=2208),
    Message('note_off', channel=9, note=42, velocity=1, time=96),
    Message('note_on', channel=9, note=42, velocity=120, time=0),
    Message('note_off', channel=9, note=42, velocity=1, time=96),
    Message('note_on', channel=9, note=42, velocity=127, time=0),
    Message('note_off', channel=9, note=42, velocity=1, time=96),
    Message('note_on', channel=9, note=42, velocity=120, time=0),
    Message('note_off', channel=9, note=42, velocity=1, time=96),
    Message('note_on', channel=9, note=42, velocity=127, time=0),
    Message('note_off', channel=9, note=42, velocity=1, time=96),
    Message('note_on', channel=9, note=42, velocity=110, time=0),
    Message('note_off', channel=9, note=42, velocity=1, time=96),
    Message('note_on', channel=9, note=42, velocity=127, time=0),
    Message('note_off', channel=9, note=42, velocity=1, time=96),
    Message('note_on', channel=9, note=42, velocity=110, time=0),
    Message('note_off', channel=9, note=42, velocity=1, time=192),
    Message('note_on', channel=9, note=42, velocity=127, time=2976),
    Message('note_off', channel=9, note=42, velocity=1, time=96),
    Message('note_on', channel=9, note=42, velocity=120, time=0),
    Message('note_off', channel=9, note=42, velocity=1, time=96),
    Message('note_on', channel=9, note=42, velocity=127, time=0),
    Message('note_off', channel=9, note=42, velocity=1, time=96),
    Message('note_on', channel=9, note=42, velocity=120, time=0),
    Message('note_off', channel=9, note=42, velocity=1, time=96),
    Message('note_on', channel=9, note=42, velocity=127, time=0),
    Message('note_off', channel=9, note=42, velocity=1, time=96),
    Message('note_on', channel=9, note=42, velocity=120, time=0),
    Message('note_off', channel=9, note=42, velocity=1, time=96),
    Message('note_on', channel=9, note=42, velocity=127, time=0),
    Message('note_off', channel=9, note=42, velocity=1, time=96),
    Message('note_on', channel=9, note=42, velocity=120, time=0),
    Message('note_off', channel=9, note=42, velocity=1, time=96),
    Message('note_on', channel=9, note=42, velocity=127, time=0),
    Message('note_off', channel=9, note=42, velocity=1, time=96),
    Message('note_on', channel=9, note=42, velocity=120, time=0),
    Message('note_off', channel=9, note=42, velocity=1, time=96),
    Message('note_on', channel=9, note=42, velocity=127, time=0),
    Message('note_off', channel=9, note=42, velocity=1, time=96),
    Message('note_on', channel=9, note=42, velocity=110, time=0),
    Message('note_off', channel=9, note=42, velocity=1, time=96),
    Message('note_on', channel=9, note=42, velocity=127, time=0),
    Message('note_off', channel=9, note=42, velocity=1, time=96),
    Message('note_on', channel=9, note=42, velocity=120, time=0),
    Message('note_off', channel=9, note=42, velocity=1, time=96),
    Message('note_on', channel=9, note=42, velocity=127, time=0),
    Message('note_off', channel=9, note=42, velocity=1, time=96),
    Message('note_on', channel=9, note=42, velocity=110, time=0),
    Message('note_off', channel=9, note=42, velocity=1, time=96),
    Message('note_on', channel=9, note=42, velocity=127, time=0),
    Message('note_off', channel=9, note=42, velocity=1, time=96),
    Message('note_on', channel=9, note=42, velocity=120, time=0),
    Message('note_off', channel=9, note=42, velocity=1, time=96),
    Message('note_on', channel=9, note=42, velocity=127, time=0),
    Message('note_off', channel=9, note=42, velocity=1, time=96),
    Message('note_on', channel=9, note=42, velocity=120, time=0),
    Message('note_off', channel=9, note=42, velocity=1, time=96),
    Message('note_on', channel=9, note=42, velocity=127, time=0),
    Message('note_off', channel=9, note=42, velocity=1, time=96),
    Message('note_on', channel=9, note=42, velocity=120, time=0),
    Message('note_off', channel=9, note=42, velocity=1, time=96),
    Message('note_on', channel=9, note=42, velocity=127, time=0),
    Message('note_off', channel=9, note=42, velocity=1, time=96),
    Message('note_on', channel=9, note=42, velocity=120, time=0),
    Message('note_off', channel=9, note=42, velocity=1, time=192),
    Message('note_on', channel=9, note=42, velocity=127, time=672),
    Message('note_off', channel=9, note=42, velocity=1, time=96),
    Message('note_on', channel=9, note=42, velocity=120, time=0),
    Message('note_off', channel=9, note=42, velocity=1, time=96),
    Message('note_on', channel=9, note=42, velocity=127, time=0),
    Message('note_off', channel=9, note=42, velocity=1, time=96),
    Message('note_on', channel=9, note=42, velocity=120, time=0),
    Message('note_off', channel=9, note=42, velocity=1, time=96),
    Message('note_on', channel=9, note=42, velocity=127, time=0),
    Message('note_off', channel=9, note=42, velocity=1, time=96),
    Message('note_on', channel=9, note=42, velocity=120, time=0),
    Message('note_off', channel=9, note=42, velocity=1, time=96),
    Message('note_on', channel=9, note=42, velocity=127, time=0),
    Message('note_off', channel=9, note=42, velocity=1, time=96),
    Message('note_on', channel=9, note=42, velocity=120, time=0),
    Message('note_off', channel=9, note=42, velocity=1, time=96),
    Message('note_on', channel=9, note=42, velocity=127, time=0),
    Message('note_off', channel=9, note=42, velocity=1, time=96),
    Message('note_on', channel=9, note=42, velocity=120, time=0),
    Message('note_off', channel=9, note=42, velocity=1, time=96),
    Message('note_on', channel=9, note=42, velocity=127, time=0),
    Message('note_off', channel=9, note=42, velocity=1, time=96),
    Message('note_on', channel=9, note=42, velocity=110, time=0),
    Message('note_off', channel=9, note=42, velocity=1, time=96),
    Message('note_on', channel=9, note=42, velocity=127, time=0),
    Message('note_off', channel=9, note=42, velocity=1, time=96),
    Message('note_on', channel=9, note=42, velocity=120, time=0),
    Message('note_off', channel=9, note=42, velocity=1, time=96),
    Message('note_on', channel=9, note=42, velocity=127, time=0),
    Message('note_off', channel=9, note=42, velocity=1, time=96),
    Message('note_on', channel=9, note=42, velocity=110, time=0),
    Message('note_off', channel=9, note=42, velocity=1, time=96),
    Message('note_on', channel=9, note=42, velocity=127, time=0),
    Message('note_off', channel=9, note=42, velocity=1, time=96),
    Message('note_on', channel=9, note=42, velocity=120, time=0),
    Message('note_off', channel=9, note=42, velocity=1, time=96),
    Message('note_on', channel=9, note=42, velocity=127, time=0),
    Message('note_off', channel=9, note=42, velocity=1, time=96),
    Message('note_on', channel=9, note=42, velocity=120, time=0),
    Message('note_off', channel=9, note=42, velocity=1, time=96),
    Message('note_on', channel=9, note=42, velocity=127, time=0),
    Message('note_off', channel=9, note=42, velocity=1, time=96),
    Message('note_on', channel=9, note=42, velocity=120, time=0),
    Message('note_off', channel=9, note=42, velocity=1, time=96),
    Message('note_on', channel=9, note=42, velocity=127, time=0),
    Message('note_off', channel=9, note=42, velocity=1, time=96),
    Message('note_on', channel=9, note=42, velocity=120, time=0),
    Message('note_off', channel=9, note=42, velocity=1, time=192),
    Message('control_change', channel=9, control=7, value=120, time=8352),
    Message('note_on', channel=9, note=42, velocity=127, time=3072),
    Message('note_off', channel=9, note=42, velocity=1, time=96),
    Message('note_on', channel=9, note=42, velocity=115, time=0),
    Message('note_off', channel=9, note=42, velocity=1, time=96),
    Message('note_on', channel=9, note=42, velocity=127, time=0),
    Message('note_off', channel=9, note=42, velocity=1, time=96),
    Message('note_on', channel=9, note=42, velocity=115, time=0),
    Message('note_off', channel=9, note=42, velocity=1, time=96),
    Message('note_on', channel=9, note=42, velocity=127, time=0),
    Message('note_off', channel=9, note=42, velocity=1, time=96),
    Message('note_on', channel=9, note=42, velocity=115, time=0),
    Message('note_off', channel=9, note=42, velocity=1, time=96),
    Message('note_on', channel=9, note=42, velocity=127, time=0),
    Message('note_off', channel=9, note=42, velocity=1, time=96),
    Message('note_on', channel=9, note=42, velocity=115, time=0),
    Message('note_off', channel=9, note=42, velocity=1, time=96),
    Message('note_on', channel=9, note=42, velocity=127, time=0),
    Message('note_off', channel=9, note=42, velocity=1, time=96),
    Message('note_on', channel=9, note=42, velocity=115, time=0),
    Message('note_off', channel=9, note=42, velocity=1, time=96),
    Message('note_on', channel=9, note=42, velocity=127, time=0),
    Message('note_off', channel=9, note=42, velocity=1, time=96),
    Message('note_on', channel=9, note=42, velocity=115, time=0),
    Message('note_off', channel=9, note=42, velocity=1, time=96),
    Message('note_on', channel=9, note=42, velocity=127, time=0),
    Message('note_off', channel=9, note=42, velocity=1, time=96),
    Message('note_on', channel=9, note=42, velocity=105, time=0),
    Message('note_off', channel=9, note=42, velocity=1, time=96),
    Message('note_on', channel=9, note=42, velocity=127, time=0),
    Message('note_off', channel=9, note=42, velocity=1, time=96),
    Message('note_on', channel=9, note=42, velocity=105, time=0),
    Message('note_off', channel=9, note=42, velocity=1, time=192),
    Message('note_on', channel=9, note=42, velocity=127, time=3744),
    Message('note_off', channel=9, note=42, velocity=1, time=96),
    Message('note_on', channel=9, note=42, velocity=115, time=0),
    Message('note_off', channel=9, note=42, velocity=1, time=96),
    Message('note_on', channel=9, note=42, velocity=127, time=0),
    Message('note_off', channel=9, note=42, velocity=1, time=96),
    Message('note_on', channel=9, note=42, velocity=115, time=0),
    Message('note_off', channel=9, note=42, velocity=1, time=96),
    Message('note_on', channel=9, note=42, velocity=127, time=0),
    Message('note_off', channel=9, note=42, velocity=1, time=96),
    Message('note_on', channel=9, note=42, velocity=115, time=0),
    Message('note_off', channel=9, note=42, velocity=1, time=96),
    Message('note_on', channel=9, note=42, velocity=127, time=0),
    Message('note_off', channel=9, note=42, velocity=1, time=96),
    Message('note_on', channel=9, note=42, velocity=115, time=0),
    Message('note_off', channel=9, note=42, velocity=1, time=96),
    Message('note_on', channel=9, note=42, velocity=127, time=0),
    Message('note_off', channel=9, note=42, velocity=1, time=96),
    Message('note_on', channel=9, note=42, velocity=115, time=0),
    Message('note_off', channel=9, note=42, velocity=1, time=96),
    Message('note_on', channel=9, note=42, velocity=127, time=0),
    Message('note_off', channel=9, note=42, velocity=1, time=96),
    Message('note_on', channel=9, note=42, velocity=115, time=0),
    Message('note_off', channel=9, note=42, velocity=1, time=96),
    Message('note_on', channel=9, note=42, velocity=127, time=0),
    Message('note_off', channel=9, note=42, velocity=1, time=96),
    Message('note_on', channel=9, note=42, velocity=105, time=0),
    Message('note_off', channel=9, note=42, velocity=1, time=96),
    Message('note_on', channel=9, note=42, velocity=127, time=0),
    Message('note_off', channel=9, note=42, velocity=1, time=96),
    Message('note_on', channel=9, note=42, velocity=105, time=0),
    Message('note_off', channel=9, note=42, velocity=1, time=96),
    Message('note_on', channel=9, note=42, velocity=127, time=0),
    Message('note_off', channel=9, note=42, velocity=1, time=96),
    Message('note_on', channel=9, note=42, velocity=105, time=0),
    Message('note_off', channel=9, note=42, velocity=1, time=96),
    Message('note_on', channel=9, note=42, velocity=127, time=0),
    Message('note_off', channel=9, note=42, velocity=1, time=96),
    Message('note_on', channel=9, note=42, velocity=105, time=0),
    Message('note_off', channel=9, note=42, velocity=1, time=96),
    Message('note_on', channel=9, note=42, velocity=127, time=0),
    Message('note_off', channel=9, note=42, velocity=1, time=96),
    Message('note_on', channel=9, note=42, velocity=115, time=0),
    Message('note_off', channel=9, note=42, velocity=1, time=96),
    Message('note_on', channel=9, note=42, velocity=127, time=0),
    Message('note_off', channel=9, note=42, velocity=1, time=96),
    Message('note_on', channel=9, note=42, velocity=115, time=0),
    Message('note_off', channel=9, note=42, velocity=1, time=96),
    Message('note_on', channel=9, note=42, velocity=127, time=0),
    Message('note_off', channel=9, note=42, velocity=1, time=96),
    Message('note_on', channel=9, note=42, velocity=115, time=0),
    Message('note_off', channel=9, note=42, velocity=1, time=96),
    Message('note_on', channel=9, note=42, velocity=127, time=0),
    Message('note_off', channel=9, note=42, velocity=1, time=96),
    Message('note_on', channel=9, note=42, velocity=115, time=0),
    Message('note_off', channel=9, note=42, velocity=1, time=96),
    Message('note_on', channel=9, note=42, velocity=127, time=0),
    Message('note_off', channel=9, note=42, velocity=1, time=96),
    Message('note_on', channel=9, note=42, velocity=105, time=0),
    Message('note_off', channel=9, note=42, velocity=1, time=96),
    Message('note_on', channel=9, note=42, velocity=127, time=0),
    Message('note_off', channel=9, note=42, velocity=1, time=96),
    Message('note_on', channel=9, note=42, velocity=105, time=0),
    Message('note_off', channel=9, note=42, velocity=1, time=96),
    Message('note_on', channel=9, note=42, velocity=127, time=0),
    Message('note_off', channel=9, note=42, velocity=1, time=96),
    Message('note_on', channel=9, note=42, velocity=115, time=0),
    Message('note_off', channel=9, note=42, velocity=1, time=96),
    Message('note_on', channel=9, note=42, velocity=127, time=0),
    Message('note_off', channel=9, note=42, velocity=1, time=96),
    Message('note_on', channel=9, note=42, velocity=115, time=0),
    Message('note_off', channel=9, note=42, velocity=1, time=96),
    Message('note_on', channel=9, note=42, velocity=127, time=0),
    Message('note_off', channel=9, note=42, velocity=1, time=96),
    Message('note_on', channel=9, note=42, velocity=115, time=0),
    Message('note_off', channel=9, note=42, velocity=1, time=96),
    Message('note_on', channel=9, note=42, velocity=127, time=0),
    Message('note_off', channel=9, note=42, velocity=1, time=96),
    Message('note_on', channel=9, note=42, velocity=95, time=0),
    Message('note_off', channel=9, note=42, velocity=1, time=96),
    Message('note_on', channel=9, note=42, velocity=127, time=0),
    Message('note_off', channel=9, note=42, velocity=1, time=96),
    Message('note_on', channel=9, note=42, velocity=115, time=0),
    Message('note_off', channel=9, note=42, velocity=1, time=96),
    Message('note_on', channel=9, note=42, velocity=127, time=0),
    Message('note_off', channel=9, note=42, velocity=1, time=96),
    Message('note_on', channel=9, note=42, velocity=115, time=0),
    Message('note_off', channel=9, note=42, velocity=1, time=96),
    Message('note_on', channel=9, note=42, velocity=127, time=0),
    Message('note_off', channel=9, note=42, velocity=1, time=96),
    Message('note_on', channel=9, note=42, velocity=105, time=0),
    Message('note_off', channel=9, note=42, velocity=1, time=96),
    Message('note_on', channel=9, note=42, velocity=127, time=0),
    Message('note_off', channel=9, note=42, velocity=1, time=96),
    Message('note_on', channel=9, note=42, velocity=105, time=0),
    Message('note_off', channel=9, note=42, velocity=1, time=96),
    Message('note_on', channel=9, note=42, velocity=127, time=0),
    Message('note_off', channel=9, note=42, velocity=1, time=96),
    Message('note_on', channel=9, note=42, velocity=115, time=0),
    Message('note_off', channel=9, note=42, velocity=1, time=96),
    Message('note_on', channel=9, note=42, velocity=127, time=0),
    Message('note_off', channel=9, note=42, velocity=1, time=96),
    Message('note_on', channel=9, note=42, velocity=115, time=0),
    Message('note_off', channel=9, note=42, velocity=1, time=96),
    Message('note_on', channel=9, note=42, velocity=127, time=0),
    Message('note_off', channel=9, note=42, velocity=1, time=96),
    Message('note_on', channel=9, note=42, velocity=115, time=0),
    Message('note_off', channel=9, note=42, velocity=1, time=96),
    Message('note_on', channel=9, note=42, velocity=127, time=0),
    Message('note_off', channel=9, note=42, velocity=1, time=96),
    Message('note_on', channel=9, note=42, velocity=115, time=0),
    Message('note_off', channel=9, note=42, velocity=1, time=192),
    Message('control_change', channel=9, control=7, value=119, time=1440),
    Message('note_on', channel=9, note=42, velocity=127, time=0),
    Message('control_change', channel=9, control=7, value=118, time=48),
    Message('note_off', channel=9, note=42, velocity=1, time=48),
    Message('control_change', channel=9, control=7, value=117, time=0),
    Message('note_on', channel=9, note=42, velocity=115, time=0),
    Message('control_change', channel=9, control=7, value=116, time=48),
    Message('control_change', channel=9, control=7, value=115, time=24),
    Message('note_off', channel=9, note=42, velocity=1, time=24),
    Message('note_on', channel=9, note=42, velocity=127, time=0),
    Message('control_change', channel=9, control=7, value=114, time=24),
    Message('control_change', channel=9, control=7, value=113, time=48),
    Message('note_off', channel=9, note=42, velocity=1, time=24),
    Message('control_change', channel=9, control=7, value=112, time=0),
    Message('note_on', channel=9, note=42, velocity=115, time=0),
    Message('control_change', channel=9, control=7, value=111, time=48),
    Message('note_off', channel=9, note=42, velocity=1, time=48),
    Message('control_change', channel=9, control=7, value=110, time=0),
    Message('note_on', channel=9, note=42, velocity=127, time=0),
    Message('control_change', channel=9, control=7, value=109, time=24),
    Message('control_change', channel=9, control=7, value=108, time=48),
    Message('note_off', channel=9, note=42, velocity=1, time=24),
    Message('note_on', channel=9, note=42, velocity=115, time=0),
    Message('control_change', channel=9, control=7, value=107, time=24),
    Message('control_change', channel=9, control=7, value=106, time=24),
    Message('note_off', channel=9, note=42, velocity=1, time=48),
    Message('control_change', channel=9, control=7, value=105, time=0),
    Message('note_on', channel=9, note=42, velocity=127, time=0),
    Message('control_change', channel=9, control=7, value=104, time=48),
    Message('control_change', channel=9, control=7, value=103, time=24),
    Message('note_off', channel=9, note=42, velocity=1, time=24),
    Message('note_on', channel=9, note=42, velocity=115, time=0),
    Message('control_change', channel=9, control=7, value=102, time=24),
    Message('control_change', channel=9, control=7, value=101, time=48),
    Message('note_off', channel=9, note=42, velocity=1, time=24),
    Message('control_change', channel=9, control=7, value=100, time=0),
    Message('note_on', channel=9, note=42, velocity=127, time=0),
    Message('control_change', channel=9, control=7, value=99, time=48),
    Message('note_off', channel=9, note=42, velocity=1, time=48),
    Message('control_change', channel=9, control=7, value=98, time=0),
    Message('note_on', channel=9, note=42, velocity=115, time=0),
    Message('control_change', channel=9, control=7, value=97, time=48),
    Message('control_change', channel=9, control=7, value=96, time=24),
    Message('note_off', channel=9, note=42, velocity=1, time=24),
    Message('note_on', channel=9, note=42, velocity=127, time=0),
    Message('control_change', channel=9, control=7, value=95, time=24),
    Message('control_change', channel=9, control=7, value=94, time=48),
    Message('note_off', channel=9, note=42, velocity=1, time=24),
    Message('control_change', channel=9, control=7, value=93, time=0),
    Message('note_on', channel=9, note=42, velocity=115, time=0),
    Message('control_change', channel=9, control=7, value=92, time=48),
    Message('note_off', channel=9, note=42, velocity=1, time=48),
    Message('control_change', channel=9, control=7, value=91, time=0),
    Message('note_on', channel=9, note=42, velocity=127, time=0),
    Message('control_change', channel=9, control=7, value=90, time=24),
    Message('control_change', channel=9, control=7, value=89, time=48),
    Message('note_off', channel=9, note=42, velocity=1, time=24),
    Message('note_on', channel=9, note=42, velocity=105, time=0),
    Message('control_change', channel=9, control=7, value=88, time=24),
    Message('control_change', channel=9, control=7, value=87, time=24),
    Message('note_off', channel=9, note=42, velocity=1, time=48),
    Message('control_change', channel=9, control=7, value=86, time=0),
    Message('note_on', channel=9, note=42, velocity=127, time=0),
    Message('control_change', channel=9, control=7, value=85, time=48),
    Message('control_change', channel=9, control=7, value=84, time=24),
    Message('note_off', channel=9, note=42, velocity=1, time=24),
    Message('note_on', channel=9, note=42, velocity=105, time=0),
    Message('control_change', channel=9, control=7, value=83, time=24),
    Message('control_change', channel=9, control=7, value=82, time=48),
    Message('note_off', channel=9, note=42, velocity=1, time=24),
    Message('control_change', channel=9, control=7, value=81, time=0),
    Message('note_on', channel=9, note=42, velocity=127, time=0),
    Message('control_change', channel=9, control=7, value=80, time=48),
    Message('note_off', channel=9, note=42, velocity=1, time=48),
    Message('control_change', channel=9, control=7, value=79, time=0),
    Message('note_on', channel=9, note=42, velocity=105, time=0),
    Message('control_change', channel=9, control=7, value=78, time=48),
    Message('control_change', channel=9, control=7, value=77, time=24),
    Message('note_off', channel=9, note=42, velocity=1, time=24),
    Message('note_on', channel=9, note=42, velocity=127, time=0),
    Message('control_change', channel=9, control=7, value=76, time=24),
    Message('control_change', channel=9, control=7, value=75, time=48),
    Message('note_off', channel=9, note=42, velocity=1, time=24),
    Message('control_change', channel=9, control=7, value=74, time=0),
    Message('note_on', channel=9, note=42, velocity=105, time=0),
    Message('control_change', channel=9, control=7, value=73, time=48),
    Message('note_off', channel=9, note=42, velocity=1, time=48),
    Message('control_change', channel=9, control=7, value=72, time=0),
    Message('note_on', channel=9, note=42, velocity=127, time=0),
    Message('control_change', channel=9, control=7, value=71, time=24),
    Message('control_change', channel=9, control=7, value=70, time=48),
    Message('note_off', channel=9, note=42, velocity=1, time=24),
    Message('note_on', channel=9, note=42, velocity=115, time=0),
    Message('control_change', channel=9, control=7, value=69, time=24),
    Message('control_change', channel=9, control=7, value=68, time=24),
    Message('note_off', channel=9, note=42, velocity=1, time=48),
    Message('control_change', channel=9, control=7, value=67, time=0),
    Message('note_on', channel=9, note=42, velocity=127, time=0),
    Message('control_change', channel=9, control=7, value=66, time=48),
    Message('control_change', channel=9, control=7, value=65, time=24),
    Message('note_off', channel=9, note=42, velocity=1, time=24),
    Message('note_on', channel=9, note=42, velocity=115, time=0),
    Message('control_change', channel=9, control=7, value=64, time=24),
    Message('control_change', channel=9, control=7, value=63, time=48),
    Message('note_off', channel=9, note=42, velocity=1, time=24),
    Message('control_change', channel=9, control=7, value=62, time=0),
    Message('note_on', channel=9, note=42, velocity=127, time=0),
    Message('control_change', channel=9, control=7, value=61, time=48),
    Message('note_off', channel=9, note=42, velocity=1, time=48),
    Message('control_change', channel=9, control=7, value=60, time=0),
    Message('note_on', channel=9, note=42, velocity=115, time=0),
    Message('control_change', channel=9, control=7, value=59, time=48),
    Message('control_change', channel=9, control=7, value=58, time=24),
    Message('note_off', channel=9, note=42, velocity=1, time=24),
    Message('note_on', channel=9, note=42, velocity=127, time=0),
    Message('control_change', channel=9, control=7, value=57, time=24),
    Message('control_change', channel=9, control=7, value=56, time=48),
    Message('note_off', channel=9, note=42, velocity=1, time=24),
    Message('control_change', channel=9, control=7, value=55, time=0),
    Message('note_on', channel=9, note=42, velocity=115, time=0),
    Message('control_change', channel=9, control=7, value=54, time=48),
    Message('note_off', channel=9, note=42, velocity=1, time=48),
    Message('control_change', channel=9, control=7, value=53, time=0),
    Message('note_on', channel=9, note=42, velocity=127, time=0),
    Message('control_change', channel=9, control=7, value=52, time=24),
    Message('control_change', channel=9, control=7, value=51, time=48),
    Message('note_off', channel=9, note=42, velocity=1, time=24),
    Message('note_on', channel=9, note=42, velocity=105, time=0),
    Message('control_change', channel=9, control=7, value=50, time=24),
    Message('control_change', channel=9, control=7, value=49, time=24),
    Message('note_off', channel=9, note=42, velocity=1, time=48),
    Message('control_change', channel=9, control=7, value=48, time=0),
    Message('note_on', channel=9, note=42, velocity=127, time=0),
    Message('control_change', channel=9, control=7, value=47, time=48),
    Message('control_change', channel=9, control=7, value=46, time=24),
    Message('note_off', channel=9, note=42, velocity=1, time=24),
    Message('note_on', channel=9, note=42, velocity=105, time=0),
    Message('control_change', channel=9, control=7, value=45, time=24),
    Message('control_change', channel=9, control=7, value=44, time=48),
    Message('note_off', channel=9, note=42, velocity=1, time=24),
    Message('control_change', channel=9, control=7, value=43, time=0),
    Message('note_on', channel=9, note=42, velocity=127, time=0),
    Message('control_change', channel=9, control=7, value=42, time=48),
    Message('note_off', channel=9, note=42, velocity=1, time=48),
    Message('control_change', channel=9, control=7, value=41, time=0),
    Message('note_on', channel=9, note=42, velocity=115, time=0),
    Message('control_change', channel=9, control=7, value=40, time=48),
    Message('control_change', channel=9, control=7, value=39, time=24),
    Message('note_off', channel=9, note=42, velocity=1, time=24),
    Message('note_on', channel=9, note=42, velocity=127, time=0),
    Message('control_change', channel=9, control=7, value=38, time=24),
    Message('control_change', channel=9, control=7, value=37, time=48),
    Message('note_off', channel=9, note=42, velocity=1, time=24),
    Message('control_change', channel=9, control=7, value=36, time=0),
    Message('note_on', channel=9, note=42, velocity=115, time=0),
    Message('control_change', channel=9, control=7, value=35, time=48),
    Message('note_off', channel=9, note=42, velocity=1, time=48),
    Message('control_change', channel=9, control=7, value=34, time=0),
    Message('note_on', channel=9, note=42, velocity=127, time=0),
    Message('control_change', channel=9, control=7, value=33, time=24),
    Message('control_change', channel=9, control=7, value=32, time=48),
    Message('note_off', channel=9, note=42, velocity=1, time=24),
    Message('note_on', channel=9, note=42, velocity=115, time=0),
    Message('control_change', channel=9, control=7, value=31, time=24),
    Message('control_change', channel=9, control=7, value=30, time=24),
    Message('note_off', channel=9, note=42, velocity=1, time=48),
    Message('control_change', channel=9, control=7, value=29, time=0),
    Message('note_on', channel=9, note=42, velocity=127, time=0),
    Message('control_change', channel=9, control=7, value=28, time=48),
    Message('control_change', channel=9, control=7, value=27, time=24),
    Message('note_off', channel=9, note=42, velocity=1, time=24),
    Message('note_on', channel=9, note=42, velocity=95, time=0),
    Message('control_change', channel=9, control=7, value=26, time=24),
    Message('control_change', channel=9, control=7, value=25, time=48),
    Message('note_off', channel=9, note=42, velocity=1, time=24),
    Message('control_change', channel=9, control=7, value=19, time=0),
    Message('note_on', channel=9, note=42, velocity=127, time=0),
    Message('note_off', channel=9, note=42, velocity=1, time=96),
    Message('control_change', channel=9, control=7, value=18, time=0),
    Message('note_on', channel=9, note=42, velocity=115, time=0),
    Message('control_change', channel=9, control=7, value=17, time=72),
    Message('note_off', channel=9, note=42, velocity=1, time=24),
    Message('note_on', channel=9, note=42, velocity=127, time=0),
    Message('control_change', channel=9, control=7, value=16, time=48),
    Message('note_off', channel=9, note=42, velocity=1, time=48),
    Message('note_on', channel=9, note=42, velocity=115, time=0),
    Message('control_change', channel=9, control=7, value=15, time=24),
    Message('note_off', channel=9, note=42, velocity=1, time=72),
    Message('control_change', channel=9, control=7, value=14, time=0),
    Message('note_on', channel=9, note=42, velocity=127, time=0),
    Message('note_off', channel=9, note=42, velocity=1, time=96),
    Message('control_change', channel=9, control=7, value=13, time=0),
    Message('note_on', channel=9, note=42, velocity=105, time=0),
    Message('control_change', channel=9, control=7, value=12, time=72),
    Message('note_off', channel=9, note=42, velocity=1, time=24),
    Message('note_on', channel=9, note=42, velocity=127, time=0),
    Message('control_change', channel=9, control=7, value=11, time=48),
    Message('note_off', channel=9, note=42, velocity=1, time=48),
    Message('note_on', channel=9, note=42, velocity=105, time=0),
    Message('control_change', channel=9, control=7, value=10, time=24),
    Message('note_off', channel=9, note=42, velocity=1, time=72),
    Message('control_change', channel=9, control=7, value=9, time=0),
    Message('note_on', channel=9, note=42, velocity=127, time=0),
    Message('note_off', channel=9, note=42, velocity=1, time=96),
    Message('control_change', channel=9, control=7, value=8, time=0),
    Message('note_on', channel=9, note=42, velocity=115, time=0),
    Message('control_change', channel=9, control=7, value=7, time=72),
    Message('note_off', channel=9, note=42, velocity=1, time=24),
    Message('note_on', channel=9, note=42, velocity=127, time=0),
    Message('control_change', channel=9, control=7, value=6, time=48),
    Message('note_off', channel=9, note=42, velocity=1, time=48),
    Message('note_on', channel=9, note=42, velocity=115, time=0),
    Message('control_change', channel=9, control=7, value=5, time=24),
    Message('note_off', channel=9, note=42, velocity=1, time=72),
    Message('control_change', channel=9, control=7, value=4, time=0),
    Message('note_on', channel=9, note=42, velocity=127, time=0),
    Message('note_off', channel=9, note=42, velocity=1, time=96),
    Message('control_change', channel=9, control=7, value=3, time=0),
    Message('note_on', channel=9, note=42, velocity=105, time=0),
    Message('control_change', channel=9, control=7, value=2, time=72),
    Message('note_off', channel=9, note=42, velocity=1, time=24),
    Message('note_on', channel=9, note=42, velocity=127, time=0),
    Message('control_change', channel=9, control=7, value=1, time=48),
    Message('note_off', channel=9, note=42, velocity=1, time=48),
    Message('note_on', channel=9, note=42, velocity=105, time=0),
    Message('control_change', channel=9, control=7, value=0, time=24),
    Message('note_off', channel=9, note=42, velocity=1, time=72),
    Message('pitchwheel', channel=9, pitch=0, time=768),
    Message('polytouch', channel=9, note=64, value=0, time=0),
    Message('aftertouch', channel=9, value=0, time=0),
    Message('control_change', channel=9, control=1, value=0, time=0),
    Message('control_change', channel=9, control=2, value=0, time=0),
    Message('control_change', channel=9, control=4, value=0, time=0),
    Message('control_change', channel=9, control=7, value=100, time=0),
    Message('control_change', channel=9, control=8, value=0, time=0),
    Message('control_change', channel=9, control=10, value=63, time=0),
    Message('control_change', channel=9, control=64, value=0, time=0),
    Message('control_change', channel=9, control=65, value=0, time=0),
    Message('control_change', channel=9, control=66, value=0, time=0),
    Message('control_change', channel=9, control=67, value=0, time=0),
    Message('control_change', channel=9, control=68, value=0, time=0),
    MetaMessage('end_of_track', time=0)]),
  MidiTrack([
    MetaMessage('midi_port', port=0, time=0),
    MetaMessage('track_name', name='Open Hi Hat         ', time=0),
    Message('control_change', channel=9, control=7, value=111, time=0),
    Message('control_change', channel=9, control=7, value=112, time=264),
    Message('control_change', channel=9, control=7, value=113, time=264),
    Message('control_change', channel=9, control=7, value=114, time=239),
    Message('control_change', channel=9, control=7, value=114, time=6145),
    Message('note_on', channel=9, note=46, velocity=100, time=768),
    Message('note_off', channel=9, note=46, velocity=1, time=192),
    Message('note_on', channel=9, note=46, velocity=100, time=0),
    Message('note_off', channel=9, note=46, velocity=1, time=192),
    Message('note_on', channel=9, note=46, velocity=100, time=0),
    Message('note_off', channel=9, note=46, velocity=1, time=192),
    Message('note_on', channel=9, note=46, velocity=100, time=0),
    Message('note_off', channel=9, note=46, velocity=1, time=192),
    Message('note_on', channel=9, note=46, velocity=100, time=4608),
    Message('note_off', channel=9, note=46, velocity=1, time=192),
    Message('note_on', channel=9, note=46, velocity=100, time=0),
    Message('note_off', channel=9, note=46, velocity=1, time=192),
    Message('note_on', channel=9, note=46, velocity=100, time=0),
    Message('note_off', channel=9, note=46, velocity=1, time=192),
    Message('note_on', channel=9, note=46, velocity=100, time=0),
    Message('note_off', channel=9, note=46, velocity=1, time=192),
    Message('note_on', channel=9, note=46, velocity=100, time=3072),
    Message('note_off', channel=9, note=46, velocity=1, time=192),
    Message('note_on', channel=9, note=46, velocity=100, time=0),
    Message('note_off', channel=9, note=46, velocity=1, time=192),
    Message('note_on', channel=9, note=46, velocity=100, time=0),
    Message('note_off', channel=9, note=46, velocity=1, time=192),
    Message('note_on', channel=9, note=46, velocity=100, time=0),
    Message('note_off', channel=9, note=46, velocity=1, time=192),
    Message('note_on', channel=9, note=46, velocity=100, time=6864),
    Message('note_off', channel=9, note=46, velocity=1, time=192),
    Message('note_on', channel=9, note=46, velocity=100, time=576),
    Message('note_off', channel=9, note=46, velocity=1, time=192),
    Message('note_on', channel=9, note=46, velocity=100, time=2880),
    Message('note_off', channel=9, note=46, velocity=1, time=192),
    Message('note_on', channel=9, note=46, velocity=100, time=2160),
    Message('note_off', channel=9, note=46, velocity=1, time=192),
    Message('note_on', channel=9, note=46, velocity=100, time=0),
    Message('note_off', channel=9, note=46, velocity=1, time=192),
    Message('note_on', channel=9, note=46, velocity=100, time=0),
    Message('note_off', channel=9, note=46, velocity=1, time=192),
    Message('note_on', channel=9, note=46, velocity=100, time=0),
    Message('note_off', channel=9, note=46, velocity=1, time=192),
    Message('note_on', channel=9, note=46, velocity=100, time=7680),
    Message('note_off', channel=9, note=46, velocity=1, time=192),
    Message('note_on', channel=9, note=46, velocity=100, time=576),
    Message('note_off', channel=9, note=46, velocity=1, time=192),
    Message('note_on', channel=9, note=46, velocity=100, time=0),
    Message('note_off', channel=9, note=46, velocity=1, time=192),
    Message('note_on', channel=9, note=46, velocity=100, time=0),
    Message('note_off', channel=9, note=46, velocity=1, time=192),
    Message('note_on', channel=9, note=46, velocity=100, time=0),
    Message('note_off', channel=9, note=46, velocity=1, time=192),
    Message('note_on', channel=9, note=46, velocity=100, time=2304),
    Message('note_off', channel=9, note=46, velocity=1, time=192),
    Message('control_change', channel=9, control=7, value=113, time=15936),
    Message('note_on', channel=9, note=46, velocity=100, time=0),
    Message('note_off', channel=9, note=46, velocity=1, time=192),
    Message('note_on', channel=9, note=46, velocity=100, time=0),
    Message('note_off', channel=9, note=46, velocity=1, time=192),
    Message('note_on', channel=9, note=46, velocity=100, time=0),
    Message('note_off', channel=9, note=46, velocity=1, time=192),
    Message('note_on', channel=9, note=46, velocity=100, time=0),
    Message('note_off', channel=9, note=46, velocity=1, time=192),
    Message('note_on', channel=9, note=46, velocity=100, time=768),
    Message('note_off', channel=9, note=46, velocity=1, time=192),
    Message('note_on', channel=9, note=46, velocity=100, time=0),
    Message('note_off', channel=9, note=46, velocity=1, time=192),
    Message('note_on', channel=9, note=46, velocity=100, time=0),
    Message('note_off', channel=9, note=46, velocity=1, time=192),
    Message('note_on', channel=9, note=46, velocity=100, time=0),
    Message('note_off', channel=9, note=46, velocity=1, time=192),
    Message('control_change', channel=9, control=7, value=123, time=768),
    Message('note_on', channel=9, note=46, velocity=100, time=0),
    Message('note_off', channel=9, note=46, velocity=1, time=192),
    Message('note_on', channel=9, note=46, velocity=100, time=0),
    Message('note_off', channel=9, note=46, velocity=1, time=192),
    Message('note_on', channel=9, note=46, velocity=100, time=0),
    Message('note_off', channel=9, note=46, velocity=1, time=192),
    Message('note_on', channel=9, note=46, velocity=100, time=0),
    Message('note_off', channel=9, note=46, velocity=1, time=192),
    Message('note_on', channel=9, note=46, velocity=100, time=1488),
    Message('note_off', channel=9, note=46, velocity=1, time=192),
    Message('note_on', channel=9, note=46, velocity=100, time=624),
    Message('note_off', channel=9, note=46, velocity=1, time=192),
    Message('note_on', channel=9, note=46, velocity=100, time=576),
    Message('note_off', channel=9, note=46, velocity=1, time=192),
    Message('note_on', channel=9, note=46, velocity=100, time=576),
    Message('note_off', channel=9, note=46, velocity=1, time=192),
    Message('note_on', channel=9, note=46, velocity=100, time=576),
    Message('note_off', channel=9, note=46, velocity=1, time=192),
    Message('note_on', channel=9, note=46, velocity=100, time=576),
    Message('note_off', channel=9, note=46, velocity=1, time=192),
    Message('note_on', channel=9, note=46, velocity=100, time=576),
    Message('note_off', channel=9, note=46, velocity=1, time=192),
    Message('note_on', channel=9, note=46, velocity=100, time=576),
    Message('note_off', channel=9, note=46, velocity=1, time=192),
    Message('note_on', channel=9, note=46, velocity=100, time=576),
    Message('note_off', channel=9, note=46, velocity=1, time=192),
    Message('note_on', channel=9, note=46, velocity=100, time=576),
    Message('note_off', channel=9, note=46, velocity=1, time=192),
    Message('note_on', channel=9, note=46, velocity=100, time=576),
    Message('note_off', channel=9, note=46, velocity=1, time=192),
    Message('note_on', channel=9, note=46, velocity=100, time=576),
    Message('note_off', channel=9, note=46, velocity=1, time=192),
    Message('note_on', channel=9, note=46, velocity=100, time=576),
    Message('note_off', channel=9, note=46, velocity=1, time=192),
    Message('note_on', channel=9, note=46, velocity=100, time=576),
    Message('note_off', channel=9, note=46, velocity=1, time=192),
    Message('note_on', channel=9, note=46, velocity=100, time=576),
    Message('note_off', channel=9, note=46, velocity=1, time=192),
    Message('note_on', channel=9, note=46, velocity=100, time=576),
    Message('note_off', channel=9, note=46, velocity=1, time=192),
    Message('note_on', channel=9, note=46, velocity=100, time=576),
    Message('note_off', channel=9, note=46, velocity=1, time=192),
    Message('note_on', channel=9, note=46, velocity=100, time=576),
    Message('note_off', channel=9, note=46, velocity=1, time=192),
    Message('note_on', channel=9, note=46, velocity=100, time=576),
    Message('note_off', channel=9, note=46, velocity=1, time=192),
    Message('note_on', channel=9, note=46, velocity=100, time=576),
    Message('note_off', channel=9, note=46, velocity=1, time=192),
    Message('note_on', channel=9, note=46, velocity=100, time=576),
    Message('note_off', channel=9, note=46, velocity=1, time=192),
    Message('note_on', channel=9, note=46, velocity=100, time=576),
    Message('note_off', channel=9, note=46, velocity=1, time=192),
    Message('note_on', channel=9, note=46, velocity=100, time=576),
    Message('note_off', channel=9, note=46, velocity=1, time=192),
    Message('note_on', channel=9, note=46, velocity=100, time=576),
    Message('note_off', channel=9, note=46, velocity=1, time=192),
    Message('note_on', channel=9, note=46, velocity=100, time=576),
    Message('note_off', channel=9, note=46, velocity=1, time=192),
    Message('note_on', channel=9, note=46, velocity=100, time=576),
    Message('note_off', channel=9, note=46, velocity=1, time=192),
    Message('control_change', channel=9, control=7, value=120, time=1344),
    Message('note_on', channel=9, note=46, velocity=95, time=0),
    Message('note_off', channel=9, note=46, velocity=1, time=192),
    Message('note_on', channel=9, note=46, velocity=95, time=0),
    Message('note_off', channel=9, note=46, velocity=1, time=192),
    Message('note_on', channel=9, note=46, velocity=95, time=0),
    Message('note_off', channel=9, note=46, velocity=1, time=192),
    Message('note_on', channel=9, note=46, velocity=95, time=0),
    Message('note_off', channel=9, note=46, velocity=1, time=192),
    Message('note_on', channel=9, note=46, velocity=95, time=768),
    Message('note_off', channel=9, note=46, velocity=1, time=192),
    Message('note_on', channel=9, note=46, velocity=95, time=0),
    Message('note_off', channel=9, note=46, velocity=1, time=192),
    Message('note_on', channel=9, note=46, velocity=95, time=0),
    Message('note_off', channel=9, note=46, velocity=1, time=192),
    Message('note_on', channel=9, note=46, velocity=95, time=0),
    Message('note_off', channel=9, note=46, velocity=1, time=192),
    Message('note_on', channel=9, note=46, velocity=95, time=3072),
    Message('note_off', channel=9, note=46, velocity=1, time=192),
    Message('note_on', channel=9, note=46, velocity=95, time=0),
    Message('note_off', channel=9, note=46, velocity=1, time=192),
    Message('note_on', channel=9, note=46, velocity=95, time=0),
    Message('note_off', channel=9, note=46, velocity=1, time=192),
    Message('note_on', channel=9, note=46, velocity=95, time=0),
    Message('note_off', channel=9, note=46, velocity=1, time=192),
    Message('note_on', channel=9, note=46, velocity=95, time=0),
    Message('note_off', channel=9, note=46, velocity=1, time=192),
    Message('note_on', channel=9, note=46, velocity=95, time=576),
    Message('note_off', channel=9, note=46, velocity=1, time=192),
    Message('control_change', channel=9, control=7, value=119, time=8256),
    Message('control_change', channel=9, control=7, value=118, time=48),
    Message('control_change', channel=9, control=7, value=117, time=48),
    Message('control_change', channel=9, control=7, value=116, time=48),
    Message('control_change', channel=9, control=7, value=115, time=24),
    Message('control_change', channel=9, control=7, value=114, time=48),
    Message('control_change', channel=9, control=7, value=113, time=48),
    Message('control_change', channel=9, control=7, value=112, time=24),
    Message('control_change', channel=9, control=7, value=111, time=48),
    Message('control_change', channel=9, control=7, value=110, time=48),
    Message('control_change', channel=9, control=7, value=109, time=24),
    Message('control_change', channel=9, control=7, value=108, time=48),
    Message('control_change', channel=9, control=7, value=107, time=48),
    Message('control_change', channel=9, control=7, value=106, time=24),
    Message('control_change', channel=9, control=7, value=105, time=48),
    Message('control_change', channel=9, control=7, value=104, time=48),
    Message('control_change', channel=9, control=7, value=103, time=24),
    Message('control_change', channel=9, control=7, value=102, time=48),
    Message('control_change', channel=9, control=7, value=101, time=48),
    Message('control_change', channel=9, control=7, value=100, time=24),
    Message('control_change', channel=9, control=7, value=99, time=48),
    Message('control_change', channel=9, control=7, value=98, time=48),
    Message('control_change', channel=9, control=7, value=97, time=48),
    Message('control_change', channel=9, control=7, value=96, time=24),
    Message('control_change', channel=9, control=7, value=95, time=48),
    Message('control_change', channel=9, control=7, value=94, time=48),
    Message('control_change', channel=9, control=7, value=93, time=24),
    Message('control_change', channel=9, control=7, value=92, time=48),
    Message('control_change', channel=9, control=7, value=91, time=48),
    Message('control_change', channel=9, control=7, value=90, time=24),
    Message('control_change', channel=9, control=7, value=89, time=48),
    Message('control_change', channel=9, control=7, value=88, time=48),
    Message('control_change', channel=9, control=7, value=87, time=24),
    Message('control_change', channel=9, control=7, value=86, time=48),
    Message('control_change', channel=9, control=7, value=85, time=48),
    Message('control_change', channel=9, control=7, value=84, time=24),
    Message('control_change', channel=9, control=7, value=83, time=48),
    Message('control_change', channel=9, control=7, value=82, time=48),
    Message('control_change', channel=9, control=7, value=81, time=24),
    Message('control_change', channel=9, control=7, value=80, time=48),
    Message('control_change', channel=9, control=7, value=79, time=48),
    Message('control_change', channel=9, control=7, value=78, time=48),
    Message('control_change', channel=9, control=7, value=77, time=24),
    Message('control_change', channel=9, control=7, value=76, time=48),
    Message('control_change', channel=9, control=7, value=75, time=48),
    Message('control_change', channel=9, control=7, value=74, time=24),
    Message('control_change', channel=9, control=7, value=73, time=48),
    Message('control_change', channel=9, control=7, value=72, time=48),
    Message('control_change', channel=9, control=7, value=71, time=24),
    Message('control_change', channel=9, control=7, value=70, time=48),
    Message('control_change', channel=9, control=7, value=69, time=48),
    Message('control_change', channel=9, control=7, value=68, time=24),
    Message('control_change', channel=9, control=7, value=67, time=48),
    Message('control_change', channel=9, control=7, value=66, time=48),
    Message('control_change', channel=9, control=7, value=65, time=24),
    Message('control_change', channel=9, control=7, value=64, time=48),
    Message('control_change', channel=9, control=7, value=63, time=48),
    Message('control_change', channel=9, control=7, value=62, time=24),
    Message('control_change', channel=9, control=7, value=61, time=48),
    Message('control_change', channel=9, control=7, value=60, time=48),
    Message('control_change', channel=9, control=7, value=59, time=48),
    Message('control_change', channel=9, control=7, value=58, time=24),
    Message('control_change', channel=9, control=7, value=57, time=48),
    Message('control_change', channel=9, control=7, value=56, time=48),
    Message('control_change', channel=9, control=7, value=55, time=24),
    Message('control_change', channel=9, control=7, value=54, time=48),
    Message('control_change', channel=9, control=7, value=53, time=48),
    Message('control_change', channel=9, control=7, value=52, time=24),
    Message('control_change', channel=9, control=7, value=51, time=48),
    Message('control_change', channel=9, control=7, value=50, time=48),
    Message('control_change', channel=9, control=7, value=49, time=24),
    Message('control_change', channel=9, control=7, value=48, time=48),
    Message('control_change', channel=9, control=7, value=47, time=48),
    Message('control_change', channel=9, control=7, value=46, time=24),
    Message('control_change', channel=9, control=7, value=45, time=48),
    Message('control_change', channel=9, control=7, value=44, time=48),
    Message('control_change', channel=9, control=7, value=43, time=24),
    Message('control_change', channel=9, control=7, value=42, time=48),
    Message('control_change', channel=9, control=7, value=41, time=48),
    Message('control_change', channel=9, control=7, value=40, time=48),
    Message('control_change', channel=9, control=7, value=39, time=24),
    Message('control_change', channel=9, control=7, value=38, time=48),
    Message('control_change', channel=9, control=7, value=37, time=48),
    Message('control_change', channel=9, control=7, value=36, time=24),
    Message('control_change', channel=9, control=7, value=35, time=48),
    Message('control_change', channel=9, control=7, value=34, time=48),
    Message('control_change', channel=9, control=7, value=33, time=24),
    Message('control_change', channel=9, control=7, value=32, time=48),
    Message('control_change', channel=9, control=7, value=31, time=48),
    Message('control_change', channel=9, control=7, value=30, time=24),
    Message('control_change', channel=9, control=7, value=29, time=48),
    Message('control_change', channel=9, control=7, value=28, time=48),
    Message('control_change', channel=9, control=7, value=27, time=24),
    Message('control_change', channel=9, control=7, value=26, time=48),
    Message('control_change', channel=9, control=7, value=25, time=48),
    Message('control_change', channel=9, control=7, value=19, time=24),
    Message('control_change', channel=9, control=7, value=18, time=96),
    Message('control_change', channel=9, control=7, value=17, time=72),
    Message('control_change', channel=9, control=7, value=16, time=72),
    Message('control_change', channel=9, control=7, value=15, time=72),
    Message('control_change', channel=9, control=7, value=14, time=72),
    Message('control_change', channel=9, control=7, value=13, time=96),
    Message('control_change', channel=9, control=7, value=12, time=72),
    Message('control_change', channel=9, control=7, value=11, time=72),
    Message('control_change', channel=9, control=7, value=10, time=72),
    Message('control_change', channel=9, control=7, value=9, time=72),
    Message('control_change', channel=9, control=7, value=8, time=96),
    Message('control_change', channel=9, control=7, value=7, time=72),
    Message('control_change', channel=9, control=7, value=6, time=72),
    Message('control_change', channel=9, control=7, value=5, time=72),
    Message('control_change', channel=9, control=7, value=4, time=72),
    Message('control_change', channel=9, control=7, value=3, time=96),
    Message('control_change', channel=9, control=7, value=2, time=72),
    Message('control_change', channel=9, control=7, value=1, time=72),
    Message('control_change', channel=9, control=7, value=0, time=72),
    Message('pitchwheel', channel=9, pitch=0, time=840),
    Message('polytouch', channel=9, note=64, value=0, time=0),
    Message('aftertouch', channel=9, value=0, time=0),
    Message('control_change', channel=9, control=1, value=0, time=0),
    Message('control_change', channel=9, control=2, value=0, time=0),
    Message('control_change', channel=9, control=4, value=0, time=0),
    Message('control_change', channel=9, control=7, value=100, time=0),
    Message('control_change', channel=9, control=8, value=0, time=0),
    Message('control_change', channel=9, control=10, value=63, time=0),
    Message('control_change', channel=9, control=64, value=0, time=0),
    Message('control_change', channel=9, control=65, value=0, time=0),
    Message('control_change', channel=9, control=66, value=0, time=0),
    Message('control_change', channel=9, control=67, value=0, time=0),
    Message('control_change', channel=9, control=68, value=0, time=0),
    MetaMessage('end_of_track', time=0)]),
  MidiTrack([
    MetaMessage('midi_port', port=0, time=0),
    MetaMessage('track_name', name='Tambourines         ', time=0),
    Message('control_change', channel=9, control=7, value=111, time=0),
    Message('note_on', channel=9, note=54, velocity=105, time=0),
    Message('note_off', channel=9, note=54, velocity=1, time=192),
    Message('note_on', channel=9, note=54, velocity=127, time=0),
    Message('control_change', channel=9, control=7, value=112, time=72),
    Message('note_off', channel=9, note=54, velocity=1, time=120),
    Message('note_on', channel=9, note=54, velocity=105, time=0),
    Message('control_change', channel=9, control=7, value=113, time=144),
    Message('note_off', channel=9, note=54, velocity=1, time=48),
    Message('note_on', channel=9, note=54, velocity=127, time=0),
    Message('control_change', channel=9, control=7, value=114, time=191),
    Message('note_off', channel=9, note=54, velocity=1, time=1),
    Message('note_on', channel=9, note=54, velocity=105, time=0),
    Message('note_off', channel=9, note=54, velocity=1, time=192),
    Message('note_on', channel=9, note=54, velocity=127, time=0),
    Message('note_off', channel=9, note=54, velocity=1, time=192),
    Message('note_on', channel=9, note=54, velocity=105, time=0),
    Message('note_off', channel=9, note=54, velocity=1, time=192),
    Message('note_on', channel=9, note=54, velocity=127, time=0),
    Message('note_off', channel=9, note=54, velocity=1, time=192),
    Message('note_on', channel=9, note=54, velocity=105, time=0),
    Message('note_off', channel=9, note=54, velocity=1, time=192),
    Message('note_on', channel=9, note=54, velocity=127, time=0),
    Message('note_off', channel=9, note=54, velocity=1, time=192),
    Message('note_on', channel=9, note=54, velocity=105, time=0),
    Message('note_off', channel=9, note=54, velocity=1, time=192),
    Message('note_on', channel=9, note=54, velocity=127, time=0),
    Message('note_off', channel=9, note=54, velocity=1, time=192),
    Message('note_on', channel=9, note=54, velocity=105, time=0),
    Message('note_off', channel=9, note=54, velocity=1, time=192),
    Message('note_on', channel=9, note=54, velocity=127, time=0),
    Message('note_off', channel=9, note=54, velocity=1, time=192),
    Message('note_on', channel=9, note=54, velocity=105, time=0),
    Message('note_off', channel=9, note=54, velocity=1, time=192),
    Message('note_on', channel=9, note=54, velocity=127, time=0),
    Message('note_off', channel=9, note=54, velocity=1, time=192),
    Message('note_on', channel=9, note=54, velocity=105, time=0),
    Message('note_off', channel=9, note=54, velocity=1, time=192),
    Message('note_on', channel=9, note=54, velocity=127, time=0),
    Message('note_off', channel=9, note=54, velocity=1, time=192),
    Message('note_on', channel=9, note=54, velocity=105, time=0),
    Message('note_off', channel=9, note=54, velocity=1, time=192),
    Message('note_on', channel=9, note=54, velocity=127, time=0),
    Message('note_off', channel=9, note=54, velocity=1, time=192),
    Message('note_on', channel=9, note=54, velocity=105, time=0),
    Message('note_off', channel=9, note=54, velocity=1, time=192),
    Message('note_on', channel=9, note=54, velocity=127, time=0),
    Message('note_off', channel=9, note=54, velocity=1, time=192),
    Message('note_on', channel=9, note=54, velocity=105, time=0),
    Message('note_off', channel=9, note=54, velocity=1, time=192),
    Message('note_on', channel=9, note=54, velocity=127, time=0),
    Message('note_off', channel=9, note=54, velocity=1, time=192),
    Message('note_on', channel=9, note=54, velocity=105, time=0),
    Message('note_off', channel=9, note=54, velocity=1, time=192),
    Message('note_on', channel=9, note=54, velocity=127, time=0),
    Message('note_off', channel=9, note=54, velocity=1, time=192),
    Message('note_on', channel=9, note=54, velocity=105, time=0),
    Message('note_off', channel=9, note=54, velocity=1, time=192),
    Message('note_on', channel=9, note=54, velocity=127, time=0),
    Message('note_off', channel=9, note=54, velocity=1, time=192),
    Message('note_on', channel=9, note=54, velocity=105, time=0),
    Message('note_off', channel=9, note=54, velocity=1, time=192),
    Message('note_on', channel=9, note=54, velocity=127, time=0),
    Message('note_off', channel=9, note=54, velocity=1, time=192),
    Message('note_on', channel=9, note=54, velocity=105, time=0),
    Message('note_off', channel=9, note=54, velocity=1, time=192),
    Message('note_on', channel=9, note=54, velocity=127, time=0),
    Message('note_off', channel=9, note=54, velocity=1, time=192),
    Message('note_on', channel=9, note=54, velocity=105, time=0),
    Message('note_off', channel=9, note=54, velocity=1, time=192),
    Message('note_on', channel=9, note=54, velocity=127, time=0),
    Message('note_off', channel=9, note=54, velocity=1, time=192),
    Message('note_on', channel=9, note=54, velocity=105, time=0),
    Message('note_off', channel=9, note=54, velocity=1, time=192),
    Message('note_on', channel=9, note=54, velocity=127, time=0),
    Message('note_off', channel=9, note=54, velocity=1, time=192),
    Message('control_change', channel=9, control=7, value=114, time=0),
    Message('note_on', channel=9, note=54, velocity=105, time=2304),
    Message('note_off', channel=9, note=54, velocity=1, time=192),
    Message('note_on', channel=9, note=54, velocity=127, time=0),
    Message('note_off', channel=9, note=54, velocity=1, time=192),
    Message('note_on', channel=9, note=54, velocity=105, time=0),
    Message('note_off', channel=9, note=54, velocity=1, time=192),
    Message('note_on', channel=9, note=54, velocity=127, time=0),
    Message('note_off', channel=9, note=54, velocity=1, time=192),
    Message('note_on', channel=9, note=54, velocity=105, time=0),
    Message('note_off', channel=9, note=54, velocity=1, time=192),
    Message('note_on', channel=9, note=54, velocity=127, time=0),
    Message('note_off', channel=9, note=54, velocity=1, time=192),
    Message('note_on', channel=9, note=54, velocity=105, time=0),
    Message('note_off', channel=9, note=54, velocity=1, time=192),
    Message('note_on', channel=9, note=54, velocity=127, time=0),
    Message('note_off', channel=9, note=54, velocity=1, time=192),
    Message('note_on', channel=9, note=54, velocity=105, time=0),
    Message('note_off', channel=9, note=54, velocity=1, time=192),
    Message('note_on', channel=9, note=54, velocity=127, time=0),
    Message('note_off', channel=9, note=54, velocity=1, time=192),
    Message('note_on', channel=9, note=54, velocity=105, time=0),
    Message('note_off', channel=9, note=54, velocity=1, time=192),
    Message('note_on', channel=9, note=54, velocity=127, time=0),
    Message('note_off', channel=9, note=54, velocity=1, time=192),
    Message('note_on', channel=9, note=54, velocity=105, time=0),
    Message('note_off', channel=9, note=54, velocity=1, time=192),
    Message('note_on', channel=9, note=54, velocity=127, time=0),
    Message('note_off', channel=9, note=54, velocity=1, time=192),
    Message('note_on', channel=9, note=54, velocity=105, time=0),
    Message('note_off', channel=9, note=54, velocity=1, time=192),
    Message('note_on', channel=9, note=54, velocity=127, time=0),
    Message('note_off', channel=9, note=54, velocity=1, time=192),
    Message('note_on', channel=9, note=54, velocity=105, time=2304),
    Message('note_off', channel=9, note=54, velocity=1, time=192),
    Message('note_on', channel=9, note=54, velocity=127, time=0),
    Message('note_off', channel=9, note=54, velocity=1, time=192),
    Message('note_on', channel=9, note=54, velocity=105, time=0),
    Message('note_off', channel=9, note=54, velocity=1, time=192),
    Message('note_on', channel=9, note=54, velocity=127, time=0),
    Message('note_off', channel=9, note=54, velocity=1, time=192),
    Message('note_on', channel=9, note=54, velocity=120, time=0),
    Message('note_off', channel=9, note=54, velocity=1, time=96),
    Message('note_on', channel=9, note=54, velocity=105, time=0),
    Message('note_off', channel=9, note=54, velocity=1, time=96),
    Message('note_on', channel=9, note=54, velocity=127, time=0),
    Message('note_off', channel=9, note=54, velocity=1, time=96),
    Message('note_on', channel=9, note=54, velocity=105, time=0),
    Message('note_off', channel=9, note=54, velocity=1, time=96),
    Message('note_on', channel=9, note=54, velocity=120, time=0),
    Message('note_off', channel=9, note=54, velocity=1, time=96),
    Message('note_on', channel=9, note=54, velocity=105, time=0),
    Message('note_off', channel=9, note=54, velocity=1, time=96),
    Message('note_on', channel=9, note=54, velocity=127, time=0),
    Message('note_off', channel=9, note=54, velocity=1, time=96),
    Message('note_on', channel=9, note=54, velocity=105, time=0),
    Message('note_off', channel=9, note=54, velocity=1, time=192),
    Message('note_on', channel=9, note=54, velocity=120, time=2208),
    Message('note_off', channel=9, note=54, velocity=1, time=96),
    Message('note_on', channel=9, note=54, velocity=105, time=0),
    Message('note_off', channel=9, note=54, velocity=1, time=96),
    Message('note_on', channel=9, note=54, velocity=127, time=0),
    Message('note_off', channel=9, note=54, velocity=1, time=96),
    Message('note_on', channel=9, note=54, velocity=105, time=0),
    Message('note_off', channel=9, note=54, velocity=1, time=96),
    Message('note_on', channel=9, note=54, velocity=120, time=0),
    Message('note_off', channel=9, note=54, velocity=1, time=96),
    Message('note_on', channel=9, note=54, velocity=105, time=0),
    Message('note_off', channel=9, note=54, velocity=1, time=96),
    Message('note_on', channel=9, note=54, velocity=127, time=0),
    Message('note_off', channel=9, note=54, velocity=1, time=96),
    Message('note_on', channel=9, note=54, velocity=105, time=0),
    Message('note_off', channel=9, note=54, velocity=1, time=96),
    Message('note_on', channel=9, note=54, velocity=105, time=0),
    Message('note_off', channel=9, note=54, velocity=1, time=192),
    Message('note_on', channel=9, note=54, velocity=127, time=0),
    Message('note_off', channel=9, note=54, velocity=1, time=192),
    Message('note_on', channel=9, note=54, velocity=105, time=0),
    Message('note_off', channel=9, note=54, velocity=1, time=192),
    Message('note_on', channel=9, note=54, velocity=127, time=0),
    Message('note_off', channel=9, note=54, velocity=1, time=192),
    Message('note_on', channel=9, note=54, velocity=105, time=0),
    Message('note_off', channel=9, note=54, velocity=1, time=192),
    Message('note_on', channel=9, note=54, velocity=127, time=0),
    Message('note_off', channel=9, note=54, velocity=1, time=192),
    Message('note_on', channel=9, note=54, velocity=105, time=0),
    Message('note_off', channel=9, note=54, velocity=1, time=192),
    Message('note_on', channel=9, note=54, velocity=127, time=0),
    Message('note_off', channel=9, note=54, velocity=1, time=192),
    Message('note_on', channel=9, note=54, velocity=105, time=0),
    Message('note_off', channel=9, note=54, velocity=1, time=192),
    Message('note_on', channel=9, note=54, velocity=127, time=0),
    Message('note_off', channel=9, note=54, velocity=1, time=192),
    Message('note_on', channel=9, note=54, velocity=105, time=0),
    Message('note_off', channel=9, note=54, velocity=1, time=192),
    Message('note_on', channel=9, note=54, velocity=127, time=0),
    Message('note_off', channel=9, note=54, velocity=1, time=192),
    Message('note_on', channel=9, note=54, velocity=105, time=0),
    Message('note_off', channel=9, note=54, velocity=1, time=192),
    Message('note_on', channel=9, note=54, velocity=127, time=0),
    Message('note_off', channel=9, note=54, velocity=1, time=192),
    Message('note_on', channel=9, note=54, velocity=105, time=0),
    Message('note_off', channel=9, note=54, velocity=1, time=192),
    Message('note_on', channel=9, note=54, velocity=127, time=0),
    Message('note_off', channel=9, note=54, velocity=1, time=192),
    Message('note_on', channel=9, note=54, velocity=105, time=0),
    Message('note_off', channel=9, note=54, velocity=1, time=96),
    Message('note_on', channel=9, note=54, velocity=75, time=0),
    Message('note_off', channel=9, note=54, velocity=1, time=96),
    Message('note_on', channel=9, note=54, velocity=127, time=0),
    Message('note_off', channel=9, note=54, velocity=1, time=96),
    Message('note_on', channel=9, note=54, velocity=95, time=0),
    Message('note_off', channel=9, note=54, velocity=1, time=96),
    Message('note_on', channel=9, note=54, velocity=105, time=0),
    Message('note_off', channel=9, note=54, velocity=1, time=96),
    Message('note_on', channel=9, note=54, velocity=75, time=0),
    Message('note_off', channel=9, note=54, velocity=1, time=96),
    Message('note_on', channel=9, note=54, velocity=127, time=0),
    Message('note_off', channel=9, note=54, velocity=1, time=96),
    Message('note_on', channel=9, note=54, velocity=95, time=0),
    Message('note_off', channel=9, note=54, velocity=1, time=96),
    Message('note_on', channel=9, note=54, velocity=105, time=0),
    Message('note_off', channel=9, note=54, velocity=1, time=96),
    Message('note_on', channel=9, note=54, velocity=75, time=0),
    Message('note_off', channel=9, note=54, velocity=1, time=96),
    Message('note_on', channel=9, note=54, velocity=127, time=0),
    Message('note_off', channel=9, note=54, velocity=1, time=96),
    Message('note_on', channel=9, note=54, velocity=95, time=0),
    Message('note_off', channel=9, note=54, velocity=1, time=96),
    Message('note_on', channel=9, note=54, velocity=105, time=0),
    Message('note_off', channel=9, note=54, velocity=1, time=96),
    Message('note_on', channel=9, note=54, velocity=75, time=0),
    Message('note_off', channel=9, note=54, velocity=1, time=96),
    Message('note_on', channel=9, note=54, velocity=127, time=0),
    Message('note_off', channel=9, note=54, velocity=1, time=96),
    Message('note_on', channel=9, note=54, velocity=95, time=0),
    Message('note_off', channel=9, note=54, velocity=1, time=96),
    Message('note_on', channel=9, note=54, velocity=105, time=0),
    Message('note_off', channel=9, note=54, velocity=1, time=96),
    Message('note_on', channel=9, note=54, velocity=75, time=0),
    Message('note_off', channel=9, note=54, velocity=1, time=96),
    Message('note_on', channel=9, note=54, velocity=127, time=0),
    Message('note_off', channel=9, note=54, velocity=1, time=96),
    Message('note_on', channel=9, note=54, velocity=95, time=0),
    Message('note_off', channel=9, note=54, velocity=1, time=96),
    Message('note_on', channel=9, note=54, velocity=105, time=0),
    Message('note_off', channel=9, note=54, velocity=1, time=96),
    Message('note_on', channel=9, note=54, velocity=75, time=0),
    Message('note_off', channel=9, note=54, velocity=1, time=96),
    Message('note_on', channel=9, note=54, velocity=127, time=0),
    Message('note_off', channel=9, note=54, velocity=1, time=96),
    Message('note_on', channel=9, note=54, velocity=95, time=0),
    Message('note_off', channel=9, note=54, velocity=1, time=96),
    Message('note_on', channel=9, note=54, velocity=105, time=0),
    Message('note_off', channel=9, note=54, velocity=1, time=96),
    Message('note_on', channel=9, note=54, velocity=75, time=0),
    Message('note_off', channel=9, note=54, velocity=1, time=96),
    Message('note_on', channel=9, note=54, velocity=127, time=0),
    Message('note_off', channel=9, note=54, velocity=1, time=96),
    Message('note_on', channel=9, note=54, velocity=95, time=0),
    Message('note_off', channel=9, note=54, velocity=1, time=96),
    Message('note_on', channel=9, note=54, velocity=105, time=0),
    Message('note_off', channel=9, note=54, velocity=1, time=96),
    Message('note_on', channel=9, note=54, velocity=75, time=0),
    Message('note_off', channel=9, note=54, velocity=1, time=96),
    Message('note_on', channel=9, note=54, velocity=127, time=0),
    Message('note_off', channel=9, note=54, velocity=1, time=96),
    Message('note_on', channel=9, note=54, velocity=95, time=0),
    Message('note_off', channel=9, note=54, velocity=1, time=96),
    Message('note_on', channel=9, note=54, velocity=105, time=0),
    Message('note_off', channel=9, note=54, velocity=1, time=96),
    Message('note_on', channel=9, note=54, velocity=75, time=0),
    Message('note_off', channel=9, note=54, velocity=1, time=96),
    Message('note_on', channel=9, note=54, velocity=127, time=0),
    Message('note_off', channel=9, note=54, velocity=1, time=96),
    Message('note_on', channel=9, note=54, velocity=95, time=0),
    Message('note_off', channel=9, note=54, velocity=1, time=96),
    Message('note_on', channel=9, note=54, velocity=105, time=0),
    Message('note_off', channel=9, note=54, velocity=1, time=96),
    Message('note_on', channel=9, note=54, velocity=75, time=0),
    Message('note_off', channel=9, note=54, velocity=1, time=96),
    Message('note_on', channel=9, note=54, velocity=127, time=0),
    Message('note_off', channel=9, note=54, velocity=1, time=96),
    Message('note_on', channel=9, note=54, velocity=95, time=0),
    Message('note_off', channel=9, note=54, velocity=1, time=96),
    Message('note_on', channel=9, note=54, velocity=105, time=0),
    Message('note_off', channel=9, note=54, velocity=1, time=96),
    Message('note_on', channel=9, note=54, velocity=75, time=0),
    Message('note_off', channel=9, note=54, velocity=1, time=96),
    Message('note_on', channel=9, note=54, velocity=127, time=0),
    Message('note_off', channel=9, note=54, velocity=1, time=96),
    Message('note_on', channel=9, note=54, velocity=95, time=0),
    Message('note_off', channel=9, note=54, velocity=1, time=96),
    Message('note_on', channel=9, note=54, velocity=105, time=0),
    Message('note_off', channel=9, note=54, velocity=1, time=96),
    Message('note_on', channel=9, note=54, velocity=75, time=0),
    Message('note_off', channel=9, note=54, velocity=1, time=96),
    Message('note_on', channel=9, note=54, velocity=127, time=0),
    Message('note_off', channel=9, note=54, velocity=1, time=96),
    Message('note_on', channel=9, note=54, velocity=95, time=0),
    Message('note_off', channel=9, note=54, velocity=1, time=96),
    Message('note_on', channel=9, note=54, velocity=105, time=0),
    Message('note_off', channel=9, note=54, velocity=1, time=96),
    Message('note_on', channel=9, note=54, velocity=75, time=0),
    Message('note_off', channel=9, note=54, velocity=1, time=96),
    Message('note_on', channel=9, note=54, velocity=127, time=0),
    Message('note_off', channel=9, note=54, velocity=1, time=96),
    Message('note_on', channel=9, note=54, velocity=95, time=0),
    Message('note_off', channel=9, note=54, velocity=1, time=96),
    Message('note_on', channel=9, note=54, velocity=105, time=0),
    Message('note_off', channel=9, note=54, velocity=1, time=96),
    Message('note_on', channel=9, note=54, velocity=75, time=0),
    Message('note_off', channel=9, note=54, velocity=1, time=96),
    Message('note_on', channel=9, note=54, velocity=127, time=0),
    Message('note_off', channel=9, note=54, velocity=1, time=96),
    Message('note_on', channel=9, note=54, velocity=95, time=0),
    Message('note_off', channel=9, note=54, velocity=1, time=96),
    Message('note_on', channel=9, note=54, velocity=105, time=0),
    Message('note_off', channel=9, note=54, velocity=1, time=96),
    Message('note_on', channel=9, note=54, velocity=75, time=0),
    Message('note_off', channel=9, note=54, velocity=1, time=96),
    Message('note_on', channel=9, note=54, velocity=127, time=0),
    Message('note_off', channel=9, note=54, velocity=1, time=96),
    Message('note_on', channel=9, note=54, velocity=95, time=0),
    Message('note_off', channel=9, note=54, velocity=1, time=96),
    Message('note_on', channel=9, note=54, velocity=105, time=0),
    Message('note_off', channel=9, note=54, velocity=1, time=96),
    Message('note_on', channel=9, note=54, velocity=75, time=0),
    Message('note_off', channel=9, note=54, velocity=1, time=96),
    Message('note_on', channel=9, note=54, velocity=127, time=0),
    Message('note_off', channel=9, note=54, velocity=1, time=96),
    Message('note_on', channel=9, note=54, velocity=95, time=0),
    Message('note_off', channel=9, note=54, velocity=1, time=96),
    Message('note_on', channel=9, note=54, velocity=105, time=0),
    Message('note_off', channel=9, note=54, velocity=1, time=192),
    Message('note_on', channel=9, note=54, velocity=127, time=0),
    Message('note_off', channel=9, note=54, velocity=1, time=192),
    Message('note_on', channel=9, note=54, velocity=105, time=0),
    Message('note_off', channel=9, note=54, velocity=1, time=192),
    Message('note_on', channel=9, note=54, velocity=127, time=0),
    Message('note_off', channel=9, note=54, velocity=1, time=192),
    Message('note_on', channel=9, note=54, velocity=105, time=3072),
    Message('note_off', channel=9, note=54, velocity=1, time=192),
    Message('note_on', channel=9, note=54, velocity=127, time=0),
    Message('note_off', channel=9, note=54, velocity=1, time=192),
    Message('note_on', channel=9, note=54, velocity=105, time=0),
    Message('note_off', channel=9, note=54, velocity=1, time=192),
    Message('note_on', channel=9, note=54, velocity=127, time=0),
    Message('note_off', channel=9, note=54, velocity=1, time=192),
    Message('note_on', channel=9, note=54, velocity=105, time=0),
    Message('note_off', channel=9, note=54, velocity=1, time=192),
    Message('note_on', channel=9, note=54, velocity=127, time=0),
    Message('note_off', channel=9, note=54, velocity=1, time=192),
    Message('note_on', channel=9, note=54, velocity=105, time=0),
    Message('note_off', channel=9, note=54, velocity=1, time=192),
    Message('note_on', channel=9, note=54, velocity=127, time=0),
    Message('note_off', channel=9, note=54, velocity=1, time=192),
    Message('note_on', channel=9, note=54, velocity=105, time=0),
    Message('note_off', channel=9, note=54, velocity=1, time=192),
    Message('note_on', channel=9, note=54, velocity=127, time=0),
    Message('note_off', channel=9, note=54, velocity=1, time=192),
    Message('note_on', channel=9, note=54, velocity=105, time=0),
    Message('note_off', channel=9, note=54, velocity=1, time=192),
    Message('note_on', channel=9, note=54, velocity=127, time=0),
    Message('note_off', channel=9, note=54, velocity=1, time=192),
    Message('note_on', channel=9, note=54, velocity=105, time=0),
    Message('note_off', channel=9, note=54, velocity=1, time=192),
    Message('note_on', channel=9, note=54, velocity=127, time=0),
    Message('note_off', channel=9, note=54, velocity=1, time=192),
    Message('note_on', channel=9, note=54, velocity=105, time=0),
    Message('note_off', channel=9, note=54, velocity=1, time=192),
    Message('note_on', channel=9, note=54, velocity=127, time=0),
    Message('note_off', channel=9, note=54, velocity=1, time=192),
    Message('note_on', channel=9, note=54, velocity=105, time=0),
    Message('note_off', channel=9, note=54, velocity=1, time=192),
    Message('note_on', channel=9, note=54, velocity=127, time=0),
    Message('note_off', channel=9, note=54, velocity=1, time=192),
    Message('note_on', channel=9, note=54, velocity=105, time=0),
    Message('note_off', channel=9, note=54, velocity=1, time=192),
    Message('note_on', channel=9, note=54, velocity=127, time=0),
    Message('note_off', channel=9, note=54, velocity=1, time=192),
    Message('note_on', channel=9, note=54, velocity=105, time=0),
    Message('note_off', channel=9, note=54, velocity=1, time=192),
    Message('note_on', channel=9, note=54, velocity=127, time=0),
    Message('note_off', channel=9, note=54, velocity=1, time=192),
    Message('note_on', channel=9, note=54, velocity=105, time=0),
    Message('note_off', channel=9, note=54, velocity=1, time=192),
    Message('note_on', channel=9, note=54, velocity=127, time=0),
    Message('note_off', channel=9, note=54, velocity=1, time=192),
    Message('note_on', channel=9, note=54, velocity=105, time=0),
    Message('note_off', channel=9, note=54, velocity=1, time=192),
    Message('note_on', channel=9, note=54, velocity=127, time=0),
    Message('note_off', channel=9, note=54, velocity=1, time=192),
    Message('note_on', channel=9, note=54, velocity=105, time=0),
    Message('note_off', channel=9, note=54, velocity=1, time=192),
    Message('note_on', channel=9, note=54, velocity=127, time=0),
    Message('note_off', channel=9, note=54, velocity=1, time=192),
    Message('note_on', channel=9, note=54, velocity=105, time=0),
    Message('note_off', channel=9, note=54, velocity=1, time=192),
    Message('note_on', channel=9, note=54, velocity=127, time=0),
    Message('note_off', channel=9, note=54, velocity=1, time=192),
    Message('note_on', channel=9, note=54, velocity=105, time=0),
    Message('note_off', channel=9, note=54, velocity=1, time=192),
    Message('note_on', channel=9, note=54, velocity=127, time=0),
    Message('note_off', channel=9, note=54, velocity=1, time=192),
    Message('note_on', channel=9, note=54, velocity=105, time=0),
    Message('note_off', channel=9, note=54, velocity=1, time=192),
    Message('note_on', channel=9, note=54, velocity=127, time=0),
    Message('note_off', channel=9, note=54, velocity=1, time=192),
    Message('note_on', channel=9, note=54, velocity=105, time=0),
    Message('note_off', channel=9, note=54, velocity=1, time=192),
    Message('note_on', channel=9, note=54, velocity=127, time=0),
    Message('note_off', channel=9, note=54, velocity=1, time=192),
    Message('note_on', channel=9, note=54, velocity=105, time=0),
    Message('note_off', channel=9, note=54, velocity=1, time=96),
    Message('note_on', channel=9, note=54, velocity=75, time=0),
    Message('note_off', channel=9, note=54, velocity=1, time=96),
    Message('note_on', channel=9, note=54, velocity=127, time=0),
    Message('note_off', channel=9, note=54, velocity=1, time=96),
    Message('note_on', channel=9, note=54, velocity=75, time=0),
    Message('note_off', channel=9, note=54, velocity=1, time=96),
    Message('note_on', channel=9, note=54, velocity=105, time=0),
    Message('note_off', channel=9, note=54, velocity=1, time=96),
    Message('note_on', channel=9, note=54, velocity=75, time=0),
    Message('note_off', channel=9, note=54, velocity=1, time=96),
    Message('note_on', channel=9, note=54, velocity=127, time=0),
    Message('note_off', channel=9, note=54, velocity=1, time=96),
    Message('note_on', channel=9, note=54, velocity=75, time=0),
    Message('note_off', channel=9, note=54, velocity=1, time=192),
    Message('note_on', channel=9, note=54, velocity=105, time=1440),
    Message('note_off', channel=9, note=54, velocity=1, time=192),
    Message('note_on', channel=9, note=54, velocity=127, time=0),
    Message('note_off', channel=9, note=54, velocity=1, time=192),
    Message('note_on', channel=9, note=54, velocity=105, time=0),
    Message('note_off', channel=9, note=54, velocity=1, time=192),
    Message('note_on', channel=9, note=54, velocity=127, time=0),
    Message('note_off', channel=9, note=54, velocity=1, time=192),
    Message('note_on', channel=9, note=54, velocity=120, time=0),
    Message('note_off', channel=9, note=54, velocity=1, time=96),
    Message('note_on', channel=9, note=54, velocity=105, time=0),
    Message('note_off', channel=9, note=54, velocity=1, time=96),
    Message('note_on', channel=9, note=54, velocity=127, time=0),
    Message('note_off', channel=9, note=54, velocity=1, time=96),
    Message('note_on', channel=9, note=54, velocity=105, time=0),
    Message('note_off', channel=9, note=54, velocity=1, time=96),
    Message('note_on', channel=9, note=54, velocity=120, time=0),
    Message('note_off', channel=9, note=54, velocity=1, time=96),
    Message('note_on', channel=9, note=54, velocity=105, time=0),
    Message('note_off', channel=9, note=54, velocity=1, time=96),
    Message('note_on', channel=9, note=54, velocity=127, time=0),
    Message('note_off', channel=9, note=54, velocity=1, time=96),
    Message('note_on', channel=9, note=54, velocity=105, time=0),
    Message('note_off', channel=9, note=54, velocity=1, time=96),
    Message('note_on', channel=9, note=54, velocity=105, time=0),
    Message('note_off', channel=9, note=54, velocity=1, time=96),
    Message('note_on', channel=9, note=54, velocity=75, time=0),
    Message('note_off', channel=9, note=54, velocity=1, time=96),
    Message('note_on', channel=9, note=54, velocity=127, time=0),
    Message('note_off', channel=9, note=54, velocity=1, time=96),
    Message('note_on', channel=9, note=54, velocity=75, time=0),
    Message('note_off', channel=9, note=54, velocity=1, time=96),
    Message('note_on', channel=9, note=54, velocity=105, time=0),
    Message('note_off', channel=9, note=54, velocity=1, time=96),
    Message('note_on', channel=9, note=54, velocity=75, time=0),
    Message('note_off', channel=9, note=54, velocity=1, time=96),
    Message('note_on', channel=9, note=54, velocity=127, time=0),
    Message('note_off', channel=9, note=54, velocity=1, time=96),
    Message('note_on', channel=9, note=54, velocity=75, time=0),
    Message('note_off', channel=9, note=54, velocity=1, time=96),
    Message('note_on', channel=9, note=54, velocity=105, time=0),
    Message('note_off', channel=9, note=54, velocity=1, time=192),
    Message('note_on', channel=9, note=54, velocity=127, time=0),
    Message('note_off', channel=9, note=54, velocity=1, time=192),
    Message('note_on', channel=9, note=54, velocity=105, time=0),
    Message('note_off', channel=9, note=54, velocity=1, time=192),
    Message('note_on', channel=9, note=54, velocity=127, time=0),
    Message('note_off', channel=9, note=54, velocity=1, time=192),
    Message('note_on', channel=9, note=54, velocity=105, time=0),
    Message('note_off', channel=9, note=54, velocity=1, time=192),
    Message('note_on', channel=9, note=54, velocity=127, time=0),
    Message('note_off', channel=9, note=54, velocity=1, time=192),
    Message('note_on', channel=9, note=54, velocity=105, time=0),
    Message('note_off', channel=9, note=54, velocity=1, time=192),
    Message('note_on', channel=9, note=54, velocity=105, time=192),
    Message('note_off', channel=9, note=54, velocity=1, time=192),
    Message('note_on', channel=9, note=54, velocity=127, time=0),
    Message('note_off', channel=9, note=54, velocity=1, time=192),
    Message('note_on', channel=9, note=54, velocity=105, time=0),
    Message('note_off', channel=9, note=54, velocity=1, time=192),
    Message('note_on', channel=9, note=54, velocity=127, time=0),
    Message('note_off', channel=9, note=54, velocity=1, time=192),
    Message('note_on', channel=9, note=54, velocity=105, time=0),
    Message('note_off', channel=9, note=54, velocity=1, time=192),
    Message('note_on', channel=9, note=54, velocity=127, time=0),
    Message('note_off', channel=9, note=54, velocity=1, time=192),
    Message('note_on', channel=9, note=54, velocity=105, time=0),
    Message('note_off', channel=9, note=54, velocity=1, time=192),
    Message('note_on', channel=9, note=54, velocity=127, time=0),
    Message('note_off', channel=9, note=54, velocity=1, time=192),
    Message('note_on', channel=9, note=54, velocity=105, time=0),
    Message('note_off', channel=9, note=54, velocity=1, time=192),
    Message('note_on', channel=9, note=54, velocity=127, time=0),
    Message('note_off', channel=9, note=54, velocity=1, time=192),
    Message('note_on', channel=9, note=54, velocity=105, time=0),
    Message('note_off', channel=9, note=54, velocity=1, time=192),
    Message('note_on', channel=9, note=54, velocity=127, time=0),
    Message('note_off', channel=9, note=54, velocity=1, time=192),
    Message('note_on', channel=9, note=54, velocity=105, time=0),
    Message('note_off', channel=9, note=54, velocity=1, time=192),
    Message('note_on', channel=9, note=54, velocity=127, time=0),
    Message('note_off', channel=9, note=54, velocity=1, time=192),
    Message('note_on', channel=9, note=54, velocity=105, time=0),
    Message('note_off', channel=9, note=54, velocity=1, time=192),
    Message('note_on', channel=9, note=54, velocity=127, time=0),
    Message('note_off', channel=9, note=54, velocity=1, time=192),
    Message('note_on', channel=9, note=54, velocity=105, time=0),
    Message('note_off', channel=9, note=54, velocity=1, time=192),
    Message('note_on', channel=9, note=54, velocity=127, time=0),
    Message('note_off', channel=9, note=54, velocity=1, time=192),
    Message('note_on', channel=9, note=54, velocity=105, time=0),
    Message('note_off', channel=9, note=54, velocity=1, time=192),
    Message('note_on', channel=9, note=54, velocity=127, time=0),
    Message('note_off', channel=9, note=54, velocity=1, time=192),
    Message('note_on', channel=9, note=54, velocity=105, time=0),
    Message('note_off', channel=9, note=54, velocity=1, time=192),
    Message('note_on', channel=9, note=54, velocity=127, time=0),
    Message('note_off', channel=9, note=54, velocity=1, time=192),
    Message('note_on', channel=9, note=54, velocity=105, time=0),
    Message('note_off', channel=9, note=54, velocity=1, time=192),
    Message('note_on', channel=9, note=54, velocity=127, time=0),
    Message('note_off', channel=9, note=54, velocity=1, time=192),
    Message('note_on', channel=9, note=54, velocity=105, time=0),
    Message('note_off', channel=9, note=54, velocity=1, time=192),
    Message('note_on', channel=9, note=54, velocity=127, time=0),
    Message('note_off', channel=9, note=54, velocity=1, time=192),
    Message('note_on', channel=9, note=54, velocity=105, time=0),
    Message('note_off', channel=9, note=54, velocity=1, time=192),
    Message('note_on', channel=9, note=54, velocity=127, time=0),
    Message('note_off', channel=9, note=54, velocity=1, time=192),
    Message('note_on', channel=9, note=54, velocity=105, time=0),
    Message('note_off', channel=9, note=54, velocity=1, time=192),
    Message('note_on', channel=9, note=54, velocity=127, time=0),
    Message('note_off', channel=9, note=54, velocity=1, time=192),
    Message('note_on', channel=9, note=54, velocity=105, time=0),
    Message('note_off', channel=9, note=54, velocity=1, time=192),
    Message('note_on', channel=9, note=54, velocity=127, time=0),
    Message('note_off', channel=9, note=54, velocity=1, time=192),
    Message('note_on', channel=9, note=54, velocity=105, time=0),
    Message('note_off', channel=9, note=54, velocity=1, time=192),
    Message('note_on', channel=9, note=54, velocity=127, time=0),
    Message('note_off', channel=9, note=54, velocity=1, time=192),
    Message('note_on', channel=9, note=54, velocity=105, time=0),
    Message('note_off', channel=9, note=54, velocity=1, time=192),
    Message('note_on', channel=9, note=54, velocity=127, time=0),
    Message('note_off', channel=9, note=54, velocity=1, time=192),
    Message('note_on', channel=9, note=54, velocity=105, time=0),
    Message('note_off', channel=9, note=54, velocity=1, time=192),
    Message('note_on', channel=9, note=54, velocity=127, time=0),
    Message('note_off', channel=9, note=54, velocity=1, time=192),
    Message('note_on', channel=9, note=54, velocity=105, time=0),
    Message('note_off', channel=9, note=54, velocity=1, time=192),
    Message('note_on', channel=9, note=54, velocity=127, time=0),
    Message('note_off', channel=9, note=54, velocity=1, time=192),
    Message('note_on', channel=9, note=54, velocity=105, time=0),
    Message('note_off', channel=9, note=54, velocity=1, time=192),
    Message('note_on', channel=9, note=54, velocity=127, time=0),
    Message('note_off', channel=9, note=54, velocity=1, time=192),
    Message('note_on', channel=9, note=54, velocity=105, time=0),
    Message('note_off', channel=9, note=54, velocity=1, time=192),
    Message('note_on', channel=9, note=54, velocity=127, time=0),
    Message('note_off', channel=9, note=54, velocity=1, time=192),
    Message('note_on', channel=9, note=54, velocity=105, time=0),
    Message('note_off', channel=9, note=54, velocity=1, time=192),
    Message('note_on', channel=9, note=54, velocity=127, time=0),
    Message('note_off', channel=9, note=54, velocity=1, time=192),
    Message('note_on', channel=9, note=54, velocity=105, time=0),
    Message('note_off', channel=9, note=54, velocity=1, time=192),
    Message('note_on', channel=9, note=54, velocity=127, time=0),
    Message('note_off', channel=9, note=54, velocity=1, time=192),
    Message('note_on', channel=9, note=54, velocity=105, time=1536),
    Message('note_off', channel=9, note=54, velocity=1, time=192),
    Message('note_on', channel=9, note=54, velocity=127, time=0),
    Message('note_off', channel=9, note=54, velocity=1, time=192),
    Message('note_on', channel=9, note=54, velocity=105, time=0),
    Message('note_off', channel=9, note=54, velocity=1, time=192),
    Message('note_on', channel=9, note=54, velocity=127, time=0),
    Message('note_off', channel=9, note=54, velocity=1, time=192),
    Message('note_on', channel=9, note=54, velocity=105, time=0),
    Message('note_off', channel=9, note=54, velocity=1, time=192),
    Message('note_on', channel=9, note=54, velocity=127, time=0),
    Message('note_off', channel=9, note=54, velocity=1, time=192),
    Message('note_on', channel=9, note=54, velocity=105, time=0),
    Message('note_off', channel=9, note=54, velocity=1, time=192),
    Message('note_on', channel=9, note=54, velocity=127, time=0),
    Message('note_off', channel=9, note=54, velocity=1, time=192),
    Message('note_on', channel=9, note=54, velocity=105, time=0),
    Message('note_off', channel=9, note=54, velocity=1, time=192),
    Message('note_on', channel=9, note=54, velocity=127, time=0),
    Message('note_off', channel=9, note=54, velocity=1, time=192),
    Message('note_on', channel=9, note=54, velocity=105, time=0),
    Message('note_off', channel=9, note=54, velocity=1, time=192),
    Message('note_on', channel=9, note=54, velocity=127, time=0),
    Message('note_off', channel=9, note=54, velocity=1, time=192),
    Message('control_change', channel=9, control=7, value=113, time=768),
    Message('note_on', channel=9, note=54, velocity=105, time=768),
    Message('note_off', channel=9, note=54, velocity=1, time=192),
    Message('note_on', channel=9, note=54, velocity=127, time=0),
    Message('note_off', channel=9, note=54, velocity=1, time=192),
    Message('note_on', channel=9, note=54, velocity=105, time=0),
    Message('note_off', channel=9, note=54, velocity=1, time=192),
    Message('note_on', channel=9, note=54, velocity=127, time=0),
    Message('note_off', channel=9, note=54, velocity=1, time=192),
    Message('control_change', channel=9, control=7, value=123, time=1536),
    Message('note_on', channel=9, note=54, velocity=105, time=768),
    Message('note_off', channel=9, note=54, velocity=1, time=192),
    Message('note_on', channel=9, note=54, velocity=127, time=0),
    Message('note_off', channel=9, note=54, velocity=1, time=192),
    Message('note_on', channel=9, note=54, velocity=105, time=0),
    Message('note_off', channel=9, note=54, velocity=1, time=192),
    Message('note_on', channel=9, note=54, velocity=127, time=0),
    Message('note_off', channel=9, note=54, velocity=1, time=192),
    Message('note_on', channel=9, note=54, velocity=105, time=0),
    Message('note_off', channel=9, note=54, velocity=1, time=192),
    Message('note_on', channel=9, note=54, velocity=127, time=0),
    Message('note_off', channel=9, note=54, velocity=1, time=192),
    Message('note_on', channel=9, note=54, velocity=105, time=0),
    Message('note_off', channel=9, note=54, velocity=1, time=192),
    Message('note_on', channel=9, note=54, velocity=127, time=0),
    Message('note_off', channel=9, note=54, velocity=1, time=192),
    Message('note_on', channel=9, note=54, velocity=105, time=0),
    Message('note_off', channel=9, note=54, velocity=1, time=96),
    Message('note_on', channel=9, note=54, velocity=75, time=0),
    Message('note_off', channel=9, note=54, velocity=1, time=96),
    Message('note_on', channel=9, note=54, velocity=127, time=0),
    Message('note_off', channel=9, note=54, velocity=1, time=96),
    Message('note_on', channel=9, note=54, velocity=75, time=0),
    Message('note_off', channel=9, note=54, velocity=1, time=96),
    Message('note_on', channel=9, note=54, velocity=105, time=0),
    Message('note_off', channel=9, note=54, velocity=1, time=96),
    Message('note_on', channel=9, note=54, velocity=75, time=0),
    Message('note_off', channel=9, note=54, velocity=1, time=96),
    Message('note_on', channel=9, note=54, velocity=127, time=0),
    Message('note_off', channel=9, note=54, velocity=1, time=96),
    Message('note_on', channel=9, note=54, velocity=75, time=0),
    Message('note_off', channel=9, note=54, velocity=1, time=96),
    Message('note_on', channel=9, note=54, velocity=105, time=0),
    Message('note_off', channel=9, note=54, velocity=1, time=96),
    Message('note_on', channel=9, note=54, velocity=75, time=0),
    Message('note_off', channel=9, note=54, velocity=1, time=96),
    Message('note_on', channel=9, note=54, velocity=127, time=0),
    Message('note_off', channel=9, note=54, velocity=1, time=96),
    Message('note_on', channel=9, note=54, velocity=75, time=0),
    Message('note_off', channel=9, note=54, velocity=1, time=96),
    Message('note_on', channel=9, note=54, velocity=105, time=0),
    Message('note_off', channel=9, note=54, velocity=1, time=96),
    Message('note_on', channel=9, note=54, velocity=75, time=0),
    Message('note_off', channel=9, note=54, velocity=1, time=96),
    Message('note_on', channel=9, note=54, velocity=127, time=0),
    Message('note_off', channel=9, note=54, velocity=1, time=96),
    Message('note_on', channel=9, note=54, velocity=75, time=0),
    Message('note_off', channel=9, note=54, velocity=1, time=96),
    Message('note_on', channel=9, note=54, velocity=105, time=0),
    Message('note_off', channel=9, note=54, velocity=1, time=96),
    Message('note_on', channel=9, note=54, velocity=75, time=0),
    Message('note_off', channel=9, note=54, velocity=1, time=96),
    Message('note_on', channel=9, note=54, velocity=127, time=0),
    Message('note_off', channel=9, note=54, velocity=1, time=96),
    Message('note_on', channel=9, note=54, velocity=75, time=0),
    Message('note_off', channel=9, note=54, velocity=1, time=96),
    Message('note_on', channel=9, note=54, velocity=105, time=0),
    Message('note_off', channel=9, note=54, velocity=1, time=96),
    Message('note_on', channel=9, note=54, velocity=75, time=0),
    Message('note_off', channel=9, note=54, velocity=1, time=96),
    Message('note_on', channel=9, note=54, velocity=127, time=0),
    Message('note_off', channel=9, note=54, velocity=1, time=96),
    Message('note_on', channel=9, note=54, velocity=75, time=0),
    Message('note_off', channel=9, note=54, velocity=1, time=96),
    Message('note_on', channel=9, note=54, velocity=105, time=0),
    Message('note_off', channel=9, note=54, velocity=1, time=96),
    Message('note_on', channel=9, note=54, velocity=75, time=0),
    Message('note_off', channel=9, note=54, velocity=1, time=96),
    Message('note_on', channel=9, note=54, velocity=127, time=0),
    Message('note_off', channel=9, note=54, velocity=1, time=96),
    Message('note_on', channel=9, note=54, velocity=75, time=0),
    Message('note_off', channel=9, note=54, velocity=1, time=96),
    Message('note_on', channel=9, note=54, velocity=105, time=0),
    Message('note_off', channel=9, note=54, velocity=1, time=96),
    Message('note_on', channel=9, note=54, velocity=75, time=0),
    Message('note_off', channel=9, note=54, velocity=1, time=96),
    Message('note_on', channel=9, note=54, velocity=127, time=0),
    Message('note_off', channel=9, note=54, velocity=1, time=96),
    Message('note_on', channel=9, note=54, velocity=75, time=0),
    Message('note_off', channel=9, note=54, velocity=1, time=96),
    Message('note_on', channel=9, note=54, velocity=105, time=0),
    Message('note_off', channel=9, note=54, velocity=1, time=96),
    Message('note_on', channel=9, note=54, velocity=75, time=0),
    Message('note_off', channel=9, note=54, velocity=1, time=96),
    Message('note_on', channel=9, note=54, velocity=127, time=0),
    Message('note_off', channel=9, note=54, velocity=1, time=96),
    Message('note_on', channel=9, note=54, velocity=75, time=0),
    Message('note_off', channel=9, note=54, velocity=1, time=96),
    Message('note_on', channel=9, note=54, velocity=105, time=0),
    Message('note_off', channel=9, note=54, velocity=1, time=96),
    Message('note_on', channel=9, note=54, velocity=75, time=0),
    Message('note_off', channel=9, note=54, velocity=1, time=96),
    Message('note_on', channel=9, note=54, velocity=127, time=0),
    Message('note_off', channel=9, note=54, velocity=1, time=96),
    Message('note_on', channel=9, note=54, velocity=75, time=0),
    Message('note_off', channel=9, note=54, velocity=1, time=96),
    Message('note_on', channel=9, note=54, velocity=105, time=0),
    Message('note_off', channel=9, note=54, velocity=1, time=96),
    Message('note_on', channel=9, note=54, velocity=75, time=0),
    Message('note_off', channel=9, note=54, velocity=1, time=96),
    Message('note_on', channel=9, note=54, velocity=127, time=0),
    Message('note_off', channel=9, note=54, velocity=1, time=96),
    Message('note_on', channel=9, note=54, velocity=75, time=0),
    Message('note_off', channel=9, note=54, velocity=1, time=96),
    Message('note_on', channel=9, note=54, velocity=105, time=0),
    Message('note_off', channel=9, note=54, velocity=1, time=96),
    Message('note_on', channel=9, note=54, velocity=75, time=0),
    Message('note_off', channel=9, note=54, velocity=1, time=96),
    Message('note_on', channel=9, note=54, velocity=127, time=0),
    Message('note_off', channel=9, note=54, velocity=1, time=96),
    Message('note_on', channel=9, note=54, velocity=75, time=0),
    Message('note_off', channel=9, note=54, velocity=1, time=96),
    Message('note_on', channel=9, note=54, velocity=105, time=0),
    Message('note_off', channel=9, note=54, velocity=1, time=96),
    Message('note_on', channel=9, note=54, velocity=75, time=0),
    Message('note_off', channel=9, note=54, velocity=1, time=96),
    Message('note_on', channel=9, note=54, velocity=127, time=0),
    Message('note_off', channel=9, note=54, velocity=1, time=96),
    Message('note_on', channel=9, note=54, velocity=75, time=0),
    Message('note_off', channel=9, note=54, velocity=1, time=96),
    Message('note_on', channel=9, note=54, velocity=105, time=0),
    Message('note_off', channel=9, note=54, velocity=1, time=96),
    Message('note_on', channel=9, note=54, velocity=75, time=0),
    Message('note_off', channel=9, note=54, velocity=1, time=96),
    Message('note_on', channel=9, note=54, velocity=127, time=0),
    Message('note_off', channel=9, note=54, velocity=1, time=96),
    Message('note_on', channel=9, note=54, velocity=75, time=0),
    Message('note_off', channel=9, note=54, velocity=1, time=96),
    Message('note_on', channel=9, note=54, velocity=105, time=0),
    Message('note_off', channel=9, note=54, velocity=1, time=96),
    Message('note_on', channel=9, note=54, velocity=75, time=0),
    Message('note_off', channel=9, note=54, velocity=1, time=96),
    Message('note_on', channel=9, note=54, velocity=127, time=0),
    Message('note_off', channel=9, note=54, velocity=1, time=96),
    Message('note_on', channel=9, note=54, velocity=75, time=0),
    Message('note_off', channel=9, note=54, velocity=1, time=96),
    Message('note_on', channel=9, note=54, velocity=105, time=0),
    Message('note_off', channel=9, note=54, velocity=1, time=96),
    Message('note_on', channel=9, note=54, velocity=75, time=0),
    Message('note_off', channel=9, note=54, velocity=1, time=96),
    Message('note_on', channel=9, note=54, velocity=127, time=0),
    Message('note_off', channel=9, note=54, velocity=1, time=96),
    Message('note_on', channel=9, note=54, velocity=75, time=0),
    Message('note_off', channel=9, note=54, velocity=1, time=96),
    Message('note_on', channel=9, note=54, velocity=105, time=0),
    Message('note_off', channel=9, note=54, velocity=1, time=96),
    Message('note_on', channel=9, note=54, velocity=75, time=0),
    Message('note_off', channel=9, note=54, velocity=1, time=96),
    Message('note_on', channel=9, note=54, velocity=127, time=0),
    Message('note_off', channel=9, note=54, velocity=1, time=96),
    Message('note_on', channel=9, note=54, velocity=75, time=0),
    Message('note_off', channel=9, note=54, velocity=1, time=96),
    Message('note_on', channel=9, note=54, velocity=105, time=0),
    Message('note_off', channel=9, note=54, velocity=1, time=96),
    Message('note_on', channel=9, note=54, velocity=75, time=0),
    Message('note_off', channel=9, note=54, velocity=1, time=96),
    Message('note_on', channel=9, note=54, velocity=127, time=0),
    Message('note_off', channel=9, note=54, velocity=1, time=96),
    Message('note_on', channel=9, note=54, velocity=75, time=0),
    Message('note_off', channel=9, note=54, velocity=1, time=96),
    Message('note_on', channel=9, note=54, velocity=105, time=0),
    Message('note_off', channel=9, note=54, velocity=1, time=96),
    Message('note_on', channel=9, note=54, velocity=75, time=0),
    Message('note_off', channel=9, note=54, velocity=1, time=96),
    Message('note_on', channel=9, note=54, velocity=127, time=0),
    Message('note_off', channel=9, note=54, velocity=1, time=96),
    Message('note_on', channel=9, note=54, velocity=75, time=0),
    Message('note_off', channel=9, note=54, velocity=1, time=96),
    Message('note_on', channel=9, note=54, velocity=105, time=0),
    Message('note_off', channel=9, note=54, velocity=1, time=96),
    Message('note_on', channel=9, note=54, velocity=75, time=0),
    Message('note_off', channel=9, note=54, velocity=1, time=96),
    Message('note_on', channel=9, note=54, velocity=127, time=0),
    Message('note_off', channel=9, note=54, velocity=1, time=96),
    Message('note_on', channel=9, note=54, velocity=75, time=0),
    Message('note_off', channel=9, note=54, velocity=1, time=96),
    Message('note_on', channel=9, note=54, velocity=105, time=0),
    Message('note_off', channel=9, note=54, velocity=1, time=96),
    Message('note_on', channel=9, note=54, velocity=75, time=0),
    Message('note_off', channel=9, note=54, velocity=1, time=96),
    Message('note_on', channel=9, note=54, velocity=127, time=0),
    Message('note_off', channel=9, note=54, velocity=1, time=96),
    Message('note_on', channel=9, note=54, velocity=75, time=0),
    Message('note_off', channel=9, note=54, velocity=1, time=96),
    Message('note_on', channel=9, note=54, velocity=105, time=0),
    Message('note_off', channel=9, note=54, velocity=1, time=96),
    Message('note_on', channel=9, note=54, velocity=75, time=0),
    Message('note_off', channel=9, note=54, velocity=1, time=96),
    Message('note_on', channel=9, note=54, velocity=127, time=0),
    Message('note_off', channel=9, note=54, velocity=1, time=96),
    Message('note_on', channel=9, note=54, velocity=75, time=0),
    Message('note_off', channel=9, note=54, velocity=1, time=96),
    Message('note_on', channel=9, note=54, velocity=105, time=0),
    Message('note_off', channel=9, note=54, velocity=1, time=96),
    Message('note_on', channel=9, note=54, velocity=75, time=0),
    Message('note_off', channel=9, note=54, velocity=1, time=96),
    Message('note_on', channel=9, note=54, velocity=127, time=0),
    Message('note_off', channel=9, note=54, velocity=1, time=96),
    Message('note_on', channel=9, note=54, velocity=75, time=0),
    Message('note_off', channel=9, note=54, velocity=1, time=96),
    Message('note_on', channel=9, note=54, velocity=105, time=0),
    Message('note_off', channel=9, note=54, velocity=1, time=96),
    Message('note_on', channel=9, note=54, velocity=75, time=0),
    Message('note_off', channel=9, note=54, velocity=1, time=96),
    Message('note_on', channel=9, note=54, velocity=127, time=0),
    Message('note_off', channel=9, note=54, velocity=1, time=96),
    Message('note_on', channel=9, note=54, velocity=75, time=0),
    Message('note_off', channel=9, note=54, velocity=1, time=96),
    Message('note_on', channel=9, note=54, velocity=105, time=0),
    Message('note_off', channel=9, note=54, velocity=1, time=96),
    Message('note_on', channel=9, note=54, velocity=75, time=0),
    Message('note_off', channel=9, note=54, velocity=1, time=96),
    Message('note_on', channel=9, note=54, velocity=127, time=0),
    Message('note_off', channel=9, note=54, velocity=1, time=96),
    Message('note_on', channel=9, note=54, velocity=75, time=0),
    Message('note_off', channel=9, note=54, velocity=1, time=96),
    Message('note_on', channel=9, note=54, velocity=105, time=0),
    Message('note_off', channel=9, note=54, velocity=1, time=96),
    Message('note_on', channel=9, note=54, velocity=75, time=0),
    Message('note_off', channel=9, note=54, velocity=1, time=96),
    Message('note_on', channel=9, note=54, velocity=127, time=0),
    Message('note_off', channel=9, note=54, velocity=1, time=96),
    Message('note_on', channel=9, note=54, velocity=75, time=0),
    Message('note_off', channel=9, note=54, velocity=1, time=96),
    Message('note_on', channel=9, note=54, velocity=105, time=0),
    Message('note_off', channel=9, note=54, velocity=1, time=96),
    Message('note_on', channel=9, note=54, velocity=75, time=0),
    Message('note_off', channel=9, note=54, velocity=1, time=96),
    Message('note_on', channel=9, note=54, velocity=127, time=0),
    Message('note_off', channel=9, note=54, velocity=1, time=96),
    Message('note_on', channel=9, note=54, velocity=75, time=0),
    Message('note_off', channel=9, note=54, velocity=1, time=96),
    Message('note_on', channel=9, note=54, velocity=105, time=0),
    Message('note_off', channel=9, note=54, velocity=1, time=96),
    Message('note_on', channel=9, note=54, velocity=75, time=0),
    Message('note_off', channel=9, note=54, velocity=1, time=96),
    Message('note_on', channel=9, note=54, velocity=127, time=0),
    Message('note_off', channel=9, note=54, velocity=1, time=96),
    Message('note_on', channel=9, note=54, velocity=75, time=0),
    Message('note_off', channel=9, note=54, velocity=1, time=96),
    Message('note_on', channel=9, note=54, velocity=105, time=0),
    Message('note_off', channel=9, note=54, velocity=1, time=96),
    Message('note_on', channel=9, note=54, velocity=75, time=0),
    Message('note_off', channel=9, note=54, velocity=1, time=96),
    Message('note_on', channel=9, note=54, velocity=127, time=0),
    Message('note_off', channel=9, note=54, velocity=1, time=96),
    Message('note_on', channel=9, note=54, velocity=75, time=0),
    Message('note_off', channel=9, note=54, velocity=1, time=96),
    Message('note_on', channel=9, note=54, velocity=105, time=0),
    Message('note_off', channel=9, note=54, velocity=1, time=96),
    Message('note_on', channel=9, note=54, velocity=75, time=0),
    Message('note_off', channel=9, note=54, velocity=1, time=96),
    Message('note_on', channel=9, note=54, velocity=127, time=0),
    Message('note_off', channel=9, note=54, velocity=1, time=96),
    Message('note_on', channel=9, note=54, velocity=75, time=0),
    Message('note_off', channel=9, note=54, velocity=1, time=96),
    Message('note_on', channel=9, note=54, velocity=105, time=0),
    Message('note_off', channel=9, note=54, velocity=1, time=96),
    Message('note_on', channel=9, note=54, velocity=75, time=0),
    Message('note_off', channel=9, note=54, velocity=1, time=96),
    Message('note_on', channel=9, note=54, velocity=127, time=0),
    Message('note_off', channel=9, note=54, velocity=1, time=96),
    Message('note_on', channel=9, note=54, velocity=75, time=0),
    Message('note_off', channel=9, note=54, velocity=1, time=96),
    Message('note_on', channel=9, note=54, velocity=105, time=0),
    Message('note_off', channel=9, note=54, velocity=1, time=96),
    Message('note_on', channel=9, note=54, velocity=75, time=0),
    Message('note_off', channel=9, note=54, velocity=1, time=96),
    Message('note_on', channel=9, note=54, velocity=127, time=0),
    Message('note_off', channel=9, note=54, velocity=1, time=96),
    Message('note_on', channel=9, note=54, velocity=75, time=0),
    Message('note_off', channel=9, note=54, velocity=1, time=96),
    Message('note_on', channel=9, note=54, velocity=105, time=0),
    Message('note_off', channel=9, note=54, velocity=1, time=96),
    Message('note_on', channel=9, note=54, velocity=75, time=0),
    Message('note_off', channel=9, note=54, velocity=1, time=96),
    Message('note_on', channel=9, note=54, velocity=127, time=0),
    Message('note_off', channel=9, note=54, velocity=1, time=96),
    Message('note_on', channel=9, note=54, velocity=75, time=0),
    Message('note_off', channel=9, note=54, velocity=1, time=96),
    Message('note_on', channel=9, note=54, velocity=105, time=0),
    Message('note_off', channel=9, note=54, velocity=1, time=96),
    Message('note_on', channel=9, note=54, velocity=75, time=0),
    Message('note_off', channel=9, note=54, velocity=1, time=96),
    Message('note_on', channel=9, note=54, velocity=127, time=0),
    Message('note_off', channel=9, note=54, velocity=1, time=96),
    Message('note_on', channel=9, note=54, velocity=75, time=0),
    Message('note_off', channel=9, note=54, velocity=1, time=96),
    Message('note_on', channel=9, note=54, velocity=105, time=0),
    Message('note_off', channel=9, note=54, velocity=1, time=96),
    Message('note_on', channel=9, note=54, velocity=75, time=0),
    Message('note_off', channel=9, note=54, velocity=1, time=96),
    Message('note_on', channel=9, note=54, velocity=127, time=0),
    Message('note_off', channel=9, note=54, velocity=1, time=96),
    Message('note_on', channel=9, note=54, velocity=75, time=0),
    Message('note_off', channel=9, note=54, velocity=1, time=96),
    Message('note_on', channel=9, note=54, velocity=105, time=0),
    Message('note_off', channel=9, note=54, velocity=1, time=96),
    Message('note_on', channel=9, note=54, velocity=75, time=0),
    Message('note_off', channel=9, note=54, velocity=1, time=96),
    Message('note_on', channel=9, note=54, velocity=127, time=0),
    Message('note_off', channel=9, note=54, velocity=1, time=96),
    Message('note_on', channel=9, note=54, velocity=75, time=0),
    Message('note_off', channel=9, note=54, velocity=1, time=96),
    Message('note_on', channel=9, note=54, velocity=105, time=0),
    Message('note_off', channel=9, note=54, velocity=1, time=96),
    Message('note_on', channel=9, note=54, velocity=75, time=0),
    Message('note_off', channel=9, note=54, velocity=1, time=96),
    Message('note_on', channel=9, note=54, velocity=127, time=0),
    Message('note_off', channel=9, note=54, velocity=1, time=96),
    Message('note_on', channel=9, note=54, velocity=75, time=0),
    Message('note_off', channel=9, note=54, velocity=1, time=96),
    Message('note_on', channel=9, note=54, velocity=105, time=0),
    Message('note_off', channel=9, note=54, velocity=1, time=96),
    Message('note_on', channel=9, note=54, velocity=75, time=0),
    Message('note_off', channel=9, note=54, velocity=1, time=96),
    Message('note_on', channel=9, note=54, velocity=127, time=0),
    Message('note_off', channel=9, note=54, velocity=1, time=96),
    Message('note_on', channel=9, note=54, velocity=75, time=0),
    Message('note_off', channel=9, note=54, velocity=1, time=96),
    Message('note_on', channel=9, note=54, velocity=105, time=0),
    Message('note_off', channel=9, note=54, velocity=1, time=96),
    Message('note_on', channel=9, note=54, velocity=75, time=0),
    Message('note_off', channel=9, note=54, velocity=1, time=96),
    Message('note_on', channel=9, note=54, velocity=127, time=0),
    Message('note_off', channel=9, note=54, velocity=1, time=96),
    Message('note_on', channel=9, note=54, velocity=75, time=0),
    Message('note_off', channel=9, note=54, velocity=1, time=96),
    Message('note_on', channel=9, note=54, velocity=105, time=0),
    Message('note_off', channel=9, note=54, velocity=1, time=96),
    Message('note_on', channel=9, note=54, velocity=75, time=0),
    Message('note_off', channel=9, note=54, velocity=1, time=96),
    Message('note_on', channel=9, note=54, velocity=127, time=0),
    Message('note_off', channel=9, note=54, velocity=1, time=96),
    Message('note_on', channel=9, note=54, velocity=75, time=0),
    Message('note_off', channel=9, note=54, velocity=1, time=96),
    Message('note_on', channel=9, note=54, velocity=105, time=0),
    Message('note_off', channel=9, note=54, velocity=1, time=96),
    Message('note_on', channel=9, note=54, velocity=75, time=0),
    Message('note_off', channel=9, note=54, velocity=1, time=96),
    Message('note_on', channel=9, note=54, velocity=127, time=0),
    Message('note_off', channel=9, note=54, velocity=1, time=96),
    Message('note_on', channel=9, note=54, velocity=75, time=0),
    Message('note_off', channel=9, note=54, velocity=1, time=96),
    Message('note_on', channel=9, note=54, velocity=105, time=0),
    Message('note_off', channel=9, note=54, velocity=1, time=96),
    Message('note_on', channel=9, note=54, velocity=75, time=0),
    Message('note_off', channel=9, note=54, velocity=1, time=96),
    Message('note_on', channel=9, note=54, velocity=127, time=0),
    Message('note_off', channel=9, note=54, velocity=1, time=96),
    Message('note_on', channel=9, note=54, velocity=75, time=0),
    Message('note_off', channel=9, note=54, velocity=1, time=96),
    Message('note_on', channel=9, note=54, velocity=105, time=0),
    Message('note_off', channel=9, note=54, velocity=1, time=96),
    Message('note_on', channel=9, note=54, velocity=75, time=0),
    Message('note_off', channel=9, note=54, velocity=1, time=96),
    Message('note_on', channel=9, note=54, velocity=127, time=0),
    Message('note_off', channel=9, note=54, velocity=1, time=96),
    Message('note_on', channel=9, note=54, velocity=75, time=0),
    Message('note_off', channel=9, note=54, velocity=1, time=96),
    Message('note_on', channel=9, note=54, velocity=105, time=0),
    Message('note_off', channel=9, note=54, velocity=1, time=96),
    Message('note_on', channel=9, note=54, velocity=75, time=0),
    Message('note_off', channel=9, note=54, velocity=1, time=96),
    Message('note_on', channel=9, note=54, velocity=127, time=0),
    Message('note_off', channel=9, note=54, velocity=1, time=96),
    Message('note_on', channel=9, note=54, velocity=75, time=0),
    Message('note_off', channel=9, note=54, velocity=1, time=96),
    Message('note_on', channel=9, note=54, velocity=105, time=0),
    Message('note_off', channel=9, note=54, velocity=1, time=96),
    Message('note_on', channel=9, note=54, velocity=75, time=0),
    Message('note_off', channel=9, note=54, velocity=1, time=96),
    Message('note_on', channel=9, note=54, velocity=127, time=0),
    Message('note_off', channel=9, note=54, velocity=1, time=96),
    Message('note_on', channel=9, note=54, velocity=75, time=0),
    Message('note_off', channel=9, note=54, velocity=1, time=96),
    Message('note_on', channel=9, note=54, velocity=105, time=0),
    Message('note_off', channel=9, note=54, velocity=1, time=96),
    Message('note_on', channel=9, note=54, velocity=75, time=0),
    Message('note_off', channel=9, note=54, velocity=1, time=96),
    Message('note_on', channel=9, note=54, velocity=127, time=0),
    Message('note_off', channel=9, note=54, velocity=1, time=96),
    Message('note_on', channel=9, note=54, velocity=75, time=0),
    Message('note_off', channel=9, note=54, velocity=1, time=96),
    Message('note_on', channel=9, note=54, velocity=105, time=0),
    Message('note_off', channel=9, note=54, velocity=1, time=96),
    Message('note_on', channel=9, note=54, velocity=75, time=0),
    Message('note_off', channel=9, note=54, velocity=1, time=96),
    Message('note_on', channel=9, note=54, velocity=127, time=0),
    Message('note_off', channel=9, note=54, velocity=1, time=96),
    Message('note_on', channel=9, note=54, velocity=75, time=0),
    Message('note_off', channel=9, note=54, velocity=1, time=96),
    Message('note_on', channel=9, note=54, velocity=105, time=0),
    Message('note_off', channel=9, note=54, velocity=1, time=96),
    Message('note_on', channel=9, note=54, velocity=75, time=0),
    Message('note_off', channel=9, note=54, velocity=1, time=96),
    Message('note_on', channel=9, note=54, velocity=127, time=0),
    Message('note_off', channel=9, note=54, velocity=1, time=96),
    Message('note_on', channel=9, note=54, velocity=75, time=0),
    Message('note_off', channel=9, note=54, velocity=1, time=96),
    Message('note_on', channel=9, note=54, velocity=105, time=0),
    Message('note_off', channel=9, note=54, velocity=1, time=96),
    Message('note_on', channel=9, note=54, velocity=75, time=0),
    Message('note_off', channel=9, note=54, velocity=1, time=96),
    Message('note_on', channel=9, note=54, velocity=127, time=0),
    Message('note_off', channel=9, note=54, velocity=1, time=96),
    Message('note_on', channel=9, note=54, velocity=75, time=0),
    Message('note_off', channel=9, note=54, velocity=1, time=96),
    Message('note_on', channel=9, note=54, velocity=105, time=0),
    Message('note_off', channel=9, note=54, velocity=1, time=96),
    Message('note_on', channel=9, note=54, velocity=75, time=0),
    Message('note_off', channel=9, note=54, velocity=1, time=96),
    Message('note_on', channel=9, note=54, velocity=127, time=0),
    Message('note_off', channel=9, note=54, velocity=1, time=96),
    Message('note_on', channel=9, note=54, velocity=75, time=0),
    Message('note_off', channel=9, note=54, velocity=1, time=96),
    Message('note_on', channel=9, note=54, velocity=105, time=0),
    Message('note_off', channel=9, note=54, velocity=1, time=96),
    Message('note_on', channel=9, note=54, velocity=75, time=0),
    Message('note_off', channel=9, note=54, velocity=1, time=96),
    Message('note_on', channel=9, note=54, velocity=127, time=0),
    Message('note_off', channel=9, note=54, velocity=1, time=96),
    Message('note_on', channel=9, note=54, velocity=75, time=0),
    Message('note_off', channel=9, note=54, velocity=1, time=96),
    Message('note_on', channel=9, note=54, velocity=105, time=0),
    Message('note_off', channel=9, note=54, velocity=1, time=96),
    Message('note_on', channel=9, note=54, velocity=75, time=0),
    Message('note_off', channel=9, note=54, velocity=1, time=96),
    Message('note_on', channel=9, note=54, velocity=127, time=0),
    Message('note_off', channel=9, note=54, velocity=1, time=96),
    Message('note_on', channel=9, note=54, velocity=75, time=0),
    Message('note_off', channel=9, note=54, velocity=1, time=96),
    Message('control_change', channel=9, control=7, value=120, time=768),
    Message('note_on', channel=9, note=54, velocity=100, time=0),
    Message('note_off', channel=9, note=54, velocity=1, time=96),
    Message('note_on', channel=9, note=54, velocity=70, time=0),
    Message('note_off', channel=9, note=54, velocity=1, time=96),
    Message('note_on', channel=9, note=54, velocity=127, time=0),
    Message('note_off', channel=9, note=54, velocity=1, time=96),
    Message('note_on', channel=9, note=54, velocity=70, time=0),
    Message('note_off', channel=9, note=54, velocity=1, time=96),
    Message('note_on', channel=9, note=54, velocity=100, time=0),
    Message('note_off', channel=9, note=54, velocity=1, time=96),
    Message('note_on', channel=9, note=54, velocity=70, time=0),
    Message('note_off', channel=9, note=54, velocity=1, time=96),
    Message('note_on', channel=9, note=54, velocity=127, time=0),
    Message('note_off', channel=9, note=54, velocity=1, time=96),
    Message('note_on', channel=9, note=54, velocity=70, time=0),
    Message('note_off', channel=9, note=54, velocity=1, time=96),
    Message('note_on', channel=9, note=54, velocity=100, time=2304),
    Message('note_off', channel=9, note=54, velocity=1, time=192),
    Message('note_on', channel=9, note=54, velocity=127, time=0),
    Message('note_off', channel=9, note=54, velocity=1, time=192),
    Message('note_on', channel=9, note=54, velocity=100, time=0),
    Message('note_off', channel=9, note=54, velocity=1, time=192),
    Message('note_on', channel=9, note=54, velocity=127, time=0),
    Message('note_off', channel=9, note=54, velocity=1, time=192),
    Message('note_on', channel=9, note=54, velocity=100, time=0),
    Message('note_off', channel=9, note=54, velocity=1, time=192),
    Message('note_on', channel=9, note=54, velocity=127, time=0),
    Message('note_off', channel=9, note=54, velocity=1, time=192),
    Message('note_on', channel=9, note=54, velocity=100, time=0),
    Message('note_off', channel=9, note=54, velocity=1, time=192),
    Message('note_on', channel=9, note=54, velocity=127, time=0),
    Message('note_off', channel=9, note=54, velocity=1, time=192),
    Message('note_on', channel=9, note=54, velocity=100, time=1536),
    Message('note_off', channel=9, note=54, velocity=1, time=96),
    Message('note_on', channel=9, note=54, velocity=70, time=0),
    Message('note_off', channel=9, note=54, velocity=1, time=96),
    Message('note_on', channel=9, note=54, velocity=127, time=0),
    Message('note_off', channel=9, note=54, velocity=1, time=96),
    Message('note_on', channel=9, note=54, velocity=70, time=0),
    Message('note_off', channel=9, note=54, velocity=1, time=96),
    Message('note_on', channel=9, note=54, velocity=100, time=0),
    Message('note_off', channel=9, note=54, velocity=1, time=96),
    Message('note_on', channel=9, note=54, velocity=70, time=0),
    Message('note_off', channel=9, note=54, velocity=1, time=96),
    Message('note_on', channel=9, note=54, velocity=127, time=0),
    Message('note_off', channel=9, note=54, velocity=1, time=96),
    Message('note_on', channel=9, note=54, velocity=70, time=0),
    Message('note_off', channel=9, note=54, velocity=1, time=96),
    Message('note_on', channel=9, note=54, velocity=100, time=0),
    Message('note_off', channel=9, note=54, velocity=1, time=96),
    Message('note_on', channel=9, note=54, velocity=70, time=0),
    Message('note_off', channel=9, note=54, velocity=1, time=96),
    Message('note_on', channel=9, note=54, velocity=127, time=0),
    Message('note_off', channel=9, note=54, velocity=1, time=96),
    Message('note_on', channel=9, note=54, velocity=70, time=0),
    Message('note_off', channel=9, note=54, velocity=1, time=96),
    Message('note_on', channel=9, note=54, velocity=100, time=0),
    Message('note_off', channel=9, note=54, velocity=1, time=96),
    Message('note_on', channel=9, note=54, velocity=70, time=0),
    Message('note_off', channel=9, note=54, velocity=1, time=96),
    Message('note_on', channel=9, note=54, velocity=127, time=0),
    Message('note_off', channel=9, note=54, velocity=1, time=96),
    Message('note_on', channel=9, note=54, velocity=70, time=0),
    Message('note_off', channel=9, note=54, velocity=1, time=192),
    Message('note_on', channel=9, note=54, velocity=100, time=672),
    Message('note_off', channel=9, note=54, velocity=1, time=192),
    Message('note_on', channel=9, note=54, velocity=127, time=0),
    Message('note_off', channel=9, note=54, velocity=1, time=192),
    Message('note_on', channel=9, note=54, velocity=100, time=0),
    Message('note_off', channel=9, note=54, velocity=1, time=192),
    Message('note_on', channel=9, note=54, velocity=127, time=0),
    Message('note_off', channel=9, note=54, velocity=1, time=192),
    Message('note_on', channel=9, note=54, velocity=100, time=0),
    Message('note_off', channel=9, note=54, velocity=1, time=192),
    Message('note_on', channel=9, note=54, velocity=127, time=0),
    Message('note_off', channel=9, note=54, velocity=1, time=192),
    Message('note_on', channel=9, note=54, velocity=100, time=0),
    Message('note_off', channel=9, note=54, velocity=1, time=192),
    Message('note_on', channel=9, note=54, velocity=127, time=0),
    Message('note_off', channel=9, note=54, velocity=1, time=192),
    Message('note_on', channel=9, note=54, velocity=100, time=0),
    Message('note_off', channel=9, note=54, velocity=1, time=192),
    Message('note_on', channel=9, note=54, velocity=127, time=0),
    Message('note_off', channel=9, note=54, velocity=1, time=192),
    Message('note_on', channel=9, note=54, velocity=100, time=0),
    Message('note_off', channel=9, note=54, velocity=1, time=192),
    Message('note_on', channel=9, note=54, velocity=127, time=0),
    Message('note_off', channel=9, note=54, velocity=1, time=192),
    Message('note_on', channel=9, note=54, velocity=100, time=0),
    Message('note_off', channel=9, note=54, velocity=1, time=192),
    Message('note_on', channel=9, note=54, velocity=127, time=0),
    Message('note_off', channel=9, note=54, velocity=1, time=192),
    Message('note_on', channel=9, note=54, velocity=100, time=0),
    Message('note_off', channel=9, note=54, velocity=1, time=192),
    Message('note_on', channel=9, note=54, velocity=127, time=0),
    Message('note_off', channel=9, note=54, velocity=1, time=192),
    Message('note_on', channel=9, note=54, velocity=100, time=0),
    Message('note_off', channel=9, note=54, velocity=1, time=192),
    Message('note_on', channel=9, note=54, velocity=127, time=0),
    Message('note_off', channel=9, note=54, velocity=1, time=192),
    Message('note_on', channel=9, note=54, velocity=100, time=0),
    Message('note_off', channel=9, note=54, velocity=1, time=192),
    Message('note_on', channel=9, note=54, velocity=127, time=0),
    Message('note_off', channel=9, note=54, velocity=1, time=192),
    Message('note_on', channel=9, note=54, velocity=100, time=0),
    Message('note_off', channel=9, note=54, velocity=1, time=192),
    Message('note_on', channel=9, note=54, velocity=127, time=0),
    Message('note_off', channel=9, note=54, velocity=1, time=192),
    Message('note_on', channel=9, note=54, velocity=100, time=0),
    Message('note_off', channel=9, note=54, velocity=1, time=192),
    Message('note_on', channel=9, note=54, velocity=127, time=0),
    Message('note_off', channel=9, note=54, velocity=1, time=192),
    Message('note_on', channel=9, note=54, velocity=100, time=0),
    Message('note_off', channel=9, note=54, velocity=1, time=192),
    Message('note_on', channel=9, note=54, velocity=127, time=0),
    Message('note_off', channel=9, note=54, velocity=1, time=192),
    Message('note_on', channel=9, note=54, velocity=100, time=0),
    Message('note_off', channel=9, note=54, velocity=1, time=192),
    Message('note_on', channel=9, note=54, velocity=127, time=0),
    Message('note_off', channel=9, note=54, velocity=1, time=192),
    Message('control_change', channel=9, control=7, value=119, time=1536),
    Message('note_on', channel=9, note=54, velocity=100, time=0),
    Message('control_change', channel=9, control=7, value=118, time=48),
    Message('control_change', channel=9, control=7, value=117, time=48),
    Message('control_change', channel=9, control=7, value=116, time=48),
    Message('control_change', channel=9, control=7, value=115, time=24),
    Message('note_off', channel=9, note=54, velocity=1, time=24),
    Message('note_on', channel=9, note=54, velocity=127, time=0),
    Message('control_change', channel=9, control=7, value=114, time=24),
    Message('control_change', channel=9, control=7, value=113, time=48),
    Message('control_change', channel=9, control=7, value=112, time=24),
    Message('control_change', channel=9, control=7, value=111, time=48),
    Message('note_off', channel=9, note=54, velocity=1, time=48),
    Message('control_change', channel=9, control=7, value=110, time=0),
    Message('note_on', channel=9, note=54, velocity=100, time=0),
    Message('control_change', channel=9, control=7, value=109, time=24),
    Message('control_change', channel=9, control=7, value=108, time=48),
    Message('control_change', channel=9, control=7, value=107, time=48),
    Message('control_change', channel=9, control=7, value=106, time=24),
    Message('note_off', channel=9, note=54, velocity=1, time=48),
    Message('control_change', channel=9, control=7, value=105, time=0),
    Message('note_on', channel=9, note=54, velocity=127, time=0),
    Message('control_change', channel=9, control=7, value=104, time=48),
    Message('control_change', channel=9, control=7, value=103, time=24),
    Message('control_change', channel=9, control=7, value=102, time=48),
    Message('control_change', channel=9, control=7, value=101, time=48),
    Message('note_off', channel=9, note=54, velocity=1, time=24),
    Message('control_change', channel=9, control=7, value=100, time=0),
    Message('note_on', channel=9, note=54, velocity=100, time=0),
    Message('control_change', channel=9, control=7, value=99, time=48),
    Message('control_change', channel=9, control=7, value=98, time=48),
    Message('control_change', channel=9, control=7, value=97, time=48),
    Message('control_change', channel=9, control=7, value=96, time=24),
    Message('note_off', channel=9, note=54, velocity=1, time=24),
    Message('note_on', channel=9, note=54, velocity=127, time=0),
    Message('control_change', channel=9, control=7, value=95, time=24),
    Message('control_change', channel=9, control=7, value=94, time=48),
    Message('control_change', channel=9, control=7, value=93, time=24),
    Message('control_change', channel=9, control=7, value=92, time=48),
    Message('note_off', channel=9, note=54, velocity=1, time=48),
    Message('control_change', channel=9, control=7, value=91, time=0),
    Message('note_on', channel=9, note=54, velocity=100, time=0),
    Message('control_change', channel=9, control=7, value=90, time=24),
    Message('control_change', channel=9, control=7, value=89, time=48),
    Message('control_change', channel=9, control=7, value=88, time=48),
    Message('control_change', channel=9, control=7, value=87, time=24),
    Message('note_off', channel=9, note=54, velocity=1, time=48),
    Message('control_change', channel=9, control=7, value=86, time=0),
    Message('note_on', channel=9, note=54, velocity=127, time=0),
    Message('control_change', channel=9, control=7, value=85, time=48),
    Message('control_change', channel=9, control=7, value=84, time=24),
    Message('control_change', channel=9, control=7, value=83, time=48),
    Message('control_change', channel=9, control=7, value=82, time=48),
    Message('note_off', channel=9, note=54, velocity=1, time=24),
    Message('control_change', channel=9, control=7, value=81, time=0),
    Message('note_on', channel=9, note=54, velocity=100, time=0),
    Message('control_change', channel=9, control=7, value=80, time=48),
    Message('control_change', channel=9, control=7, value=79, time=48),
    Message('control_change', channel=9, control=7, value=78, time=48),
    Message('control_change', channel=9, control=7, value=77, time=24),
    Message('note_off', channel=9, note=54, velocity=1, time=24),
    Message('note_on', channel=9, note=54, velocity=127, time=0),
    Message('control_change', channel=9, control=7, value=76, time=24),
    Message('control_change', channel=9, control=7, value=75, time=48),
    Message('control_change', channel=9, control=7, value=74, time=24),
    Message('control_change', channel=9, control=7, value=73, time=48),
    Message('note_off', channel=9, note=54, velocity=1, time=48),
    Message('control_change', channel=9, control=7, value=72, time=0),
    Message('note_on', channel=9, note=54, velocity=100, time=0),
    Message('control_change', channel=9, control=7, value=71, time=24),
    Message('control_change', channel=9, control=7, value=70, time=48),
    Message('control_change', channel=9, control=7, value=69, time=48),
    Message('control_change', channel=9, control=7, value=68, time=24),
    Message('note_off', channel=9, note=54, velocity=1, time=48),
    Message('control_change', channel=9, control=7, value=67, time=0),
    Message('note_on', channel=9, note=54, velocity=127, time=0),
    Message('control_change', channel=9, control=7, value=66, time=48),
    Message('control_change', channel=9, control=7, value=65, time=24),
    Message('control_change', channel=9, control=7, value=64, time=48),
    Message('control_change', channel=9, control=7, value=63, time=48),
    Message('note_off', channel=9, note=54, velocity=1, time=24),
    Message('control_change', channel=9, control=7, value=62, time=0),
    Message('note_on', channel=9, note=54, velocity=100, time=0),
    Message('control_change', channel=9, control=7, value=61, time=48),
    Message('control_change', channel=9, control=7, value=60, time=48),
    Message('control_change', channel=9, control=7, value=59, time=48),
    Message('control_change', channel=9, control=7, value=58, time=24),
    Message('note_off', channel=9, note=54, velocity=1, time=24),
    Message('note_on', channel=9, note=54, velocity=127, time=0),
    Message('control_change', channel=9, control=7, value=57, time=24),
    Message('control_change', channel=9, control=7, value=56, time=48),
    Message('control_change', channel=9, control=7, value=55, time=24),
    Message('control_change', channel=9, control=7, value=54, time=48),
    Message('note_off', channel=9, note=54, velocity=1, time=48),
    Message('control_change', channel=9, control=7, value=53, time=0),
    Message('note_on', channel=9, note=54, velocity=100, time=0),
    Message('control_change', channel=9, control=7, value=52, time=24),
    Message('control_change', channel=9, control=7, value=51, time=48),
    Message('control_change', channel=9, control=7, value=50, time=48),
    Message('control_change', channel=9, control=7, value=49, time=24),
    Message('note_off', channel=9, note=54, velocity=1, time=48),
    Message('control_change', channel=9, control=7, value=48, time=0),
    Message('note_on', channel=9, note=54, velocity=127, time=0),
    Message('control_change', channel=9, control=7, value=47, time=48),
    Message('control_change', channel=9, control=7, value=46, time=24),
    Message('control_change', channel=9, control=7, value=45, time=48),
    Message('control_change', channel=9, control=7, value=44, time=48),
    Message('note_off', channel=9, note=54, velocity=1, time=24),
    Message('control_change', channel=9, control=7, value=43, time=0),
    Message('note_on', channel=9, note=54, velocity=100, time=0),
    Message('control_change', channel=9, control=7, value=42, time=48),
    Message('control_change', channel=9, control=7, value=41, time=48),
    Message('control_change', channel=9, control=7, value=40, time=48),
    Message('control_change', channel=9, control=7, value=39, time=24),
    Message('note_off', channel=9, note=54, velocity=1, time=24),
    Message('note_on', channel=9, note=54, velocity=127, time=0),
    Message('control_change', channel=9, control=7, value=38, time=24),
    Message('control_change', channel=9, control=7, value=37, time=48),
    Message('control_change', channel=9, control=7, value=36, time=24),
    Message('control_change', channel=9, control=7, value=35, time=48),
    Message('note_off', channel=9, note=54, velocity=1, time=48),
    Message('control_change', channel=9, control=7, value=34, time=0),
    Message('note_on', channel=9, note=54, velocity=100, time=0),
    Message('control_change', channel=9, control=7, value=33, time=24),
    Message('control_change', channel=9, control=7, value=32, time=48),
    Message('control_change', channel=9, control=7, value=31, time=48),
    Message('control_change', channel=9, control=7, value=30, time=24),
    Message('note_off', channel=9, note=54, velocity=1, time=48),
    Message('control_change', channel=9, control=7, value=29, time=0),
    Message('note_on', channel=9, note=54, velocity=127, time=0),
    Message('control_change', channel=9, control=7, value=28, time=48),
    Message('control_change', channel=9, control=7, value=27, time=24),
    Message('control_change', channel=9, control=7, value=26, time=48),
    Message('control_change', channel=9, control=7, value=25, time=48),
    Message('note_off', channel=9, note=54, velocity=1, time=24),
    Message('control_change', channel=9, control=7, value=19, time=0),
    Message('note_on', channel=9, note=54, velocity=100, time=0),
    Message('control_change', channel=9, control=7, value=18, time=96),
    Message('control_change', channel=9, control=7, value=17, time=72),
    Message('note_off', channel=9, note=54, velocity=1, time=24),
    Message('note_on', channel=9, note=54, velocity=127, time=0),
    Message('control_change', channel=9, control=7, value=16, time=48),
    Message('control_change', channel=9, control=7, value=15, time=72),
    Message('note_off', channel=9, note=54, velocity=1, time=72),
    Message('control_change', channel=9, control=7, value=14, time=0),
    Message('note_on', channel=9, note=54, velocity=100, time=0),
    Message('control_change', channel=9, control=7, value=13, time=96),
    Message('control_change', channel=9, control=7, value=12, time=72),
    Message('note_off', channel=9, note=54, velocity=1, time=24),
    Message('note_on', channel=9, note=54, velocity=127, time=0),
    Message('control_change', channel=9, control=7, value=11, time=48),
    Message('control_change', channel=9, control=7, value=10, time=72),
    Message('note_off', channel=9, note=54, velocity=1, time=72),
    Message('control_change', channel=9, control=7, value=9, time=0),
    Message('note_on', channel=9, note=54, velocity=100, time=0),
    Message('control_change', channel=9, control=7, value=8, time=96),
    Message('control_change', channel=9, control=7, value=7, time=72),
    Message('note_off', channel=9, note=54, velocity=1, time=24),
    Message('note_on', channel=9, note=54, velocity=127, time=0),
    Message('control_change', channel=9, control=7, value=6, time=48),
    Message('control_change', channel=9, control=7, value=5, time=72),
    Message('note_off', channel=9, note=54, velocity=1, time=72),
    Message('control_change', channel=9, control=7, value=4, time=0),
    Message('note_on', channel=9, note=54, velocity=100, time=0),
    Message('control_change', channel=9, control=7, value=3, time=96),
    Message('control_change', channel=9, control=7, value=2, time=72),
    Message('note_off', channel=9, note=54, velocity=1, time=24),
    Message('note_on', channel=9, note=54, velocity=127, time=0),
    Message('control_change', channel=9, control=7, value=1, time=48),
    Message('control_change', channel=9, control=7, value=0, time=72),
    Message('note_off', channel=9, note=54, velocity=1, time=72),
    Message('pitchwheel', channel=9, pitch=0, time=768),
    Message('polytouch', channel=9, note=64, value=0, time=0),
    Message('aftertouch', channel=9, value=0, time=0),
    Message('control_change', channel=9, control=1, value=0, time=0),
    Message('control_change', channel=9, control=2, value=0, time=0),
    Message('control_change', channel=9, control=4, value=0, time=0),
    Message('control_change', channel=9, control=7, value=100, time=0),
    Message('control_change', channel=9, control=8, value=0, time=0),
    Message('control_change', channel=9, control=10, value=63, time=0),
    Message('control_change', channel=9, control=64, value=0, time=0),
    Message('control_change', channel=9, control=65, value=0, time=0),
    Message('control_change', channel=9, control=66, value=0, time=0),
    Message('control_change', channel=9, control=67, value=0, time=0),
    Message('control_change', channel=9, control=68, value=0, time=0),
    MetaMessage('end_of_track', time=0)]),
  MidiTrack([
    MetaMessage('midi_port', port=0, time=0),
    MetaMessage('track_name', name='Cabasa              ', time=0),
    Message('control_change', channel=9, control=7, value=111, time=0),
    Message('note_on', channel=9, note=69, velocity=105, time=0),
    Message('note_off', channel=9, note=69, velocity=1, time=96),
    Message('note_on', channel=9, note=69, velocity=65, time=0),
    Message('note_off', channel=9, note=69, velocity=1, time=96),
    Message('note_on', channel=9, note=69, velocity=105, time=0),
    Message('control_change', channel=9, control=7, value=112, time=72),
    Message('note_off', channel=9, note=69, velocity=1, time=24),
    Message('note_on', channel=9, note=69, velocity=65, time=0),
    Message('note_off', channel=9, note=69, velocity=1, time=96),
    Message('note_on', channel=9, note=69, velocity=105, time=0),
    Message('note_off', channel=9, note=69, velocity=1, time=96),
    Message('note_on', channel=9, note=69, velocity=65, time=0),
    Message('control_change', channel=9, control=7, value=113, time=48),
    Message('note_off', channel=9, note=69, velocity=1, time=48),
    Message('note_on', channel=9, note=69, velocity=105, time=0),
    Message('note_off', channel=9, note=69, velocity=1, time=96),
    Message('note_on', channel=9, note=69, velocity=65, time=0),
    Message('control_change', channel=9, control=7, value=114, time=95),
    Message('note_off', channel=9, note=69, velocity=1, time=1),
    Message('note_on', channel=9, note=69, velocity=105, time=0),
    Message('note_off', channel=9, note=69, velocity=1, time=96),
    Message('note_on', channel=9, note=69, velocity=65, time=0),
    Message('note_off', channel=9, note=69, velocity=1, time=96),
    Message('note_on', channel=9, note=69, velocity=105, time=0),
    Message('note_off', channel=9, note=69, velocity=1, time=96),
    Message('note_on', channel=9, note=69, velocity=65, time=0),
    Message('note_off', channel=9, note=69, velocity=1, time=96),
    Message('note_on', channel=9, note=69, velocity=105, time=0),
    Message('note_off', channel=9, note=69, velocity=1, time=96),
    Message('note_on', channel=9, note=69, velocity=65, time=0),
    Message('note_off', channel=9, note=69, velocity=1, time=96),
    Message('note_on', channel=9, note=69, velocity=105, time=0),
    Message('note_off', channel=9, note=69, velocity=1, time=96),
    Message('note_on', channel=9, note=69, velocity=65, time=0),
    Message('note_off', channel=9, note=69, velocity=1, time=96),
    Message('note_on', channel=9, note=69, velocity=105, time=0),
    Message('note_off', channel=9, note=69, velocity=1, time=96),
    Message('note_on', channel=9, note=69, velocity=65, time=0),
    Message('note_off', channel=9, note=69, velocity=1, time=96),
    Message('note_on', channel=9, note=69, velocity=105, time=0),
    Message('note_off', channel=9, note=69, velocity=1, time=96),
    Message('note_on', channel=9, note=69, velocity=65, time=0),
    Message('note_off', channel=9, note=69, velocity=1, time=96),
    Message('note_on', channel=9, note=69, velocity=105, time=0),
    Message('note_off', channel=9, note=69, velocity=1, time=96),
    Message('note_on', channel=9, note=69, velocity=65, time=0),
    Message('note_off', channel=9, note=69, velocity=1, time=96),
    Message('note_on', channel=9, note=69, velocity=105, time=0),
    Message('note_off', channel=9, note=69, velocity=1, time=96),
    Message('note_on', channel=9, note=69, velocity=65, time=0),
    Message('note_off', channel=9, note=69, velocity=1, time=96),
    Message('note_on', channel=9, note=69, velocity=105, time=0),
    Message('note_off', channel=9, note=69, velocity=1, time=96),
    Message('note_on', channel=9, note=69, velocity=65, time=0),
    Message('note_off', channel=9, note=69, velocity=1, time=96),
    Message('note_on', channel=9, note=69, velocity=105, time=0),
    Message('note_off', channel=9, note=69, velocity=1, time=96),
    Message('note_on', channel=9, note=69, velocity=65, time=0),
    Message('note_off', channel=9, note=69, velocity=1, time=96),
    Message('note_on', channel=9, note=69, velocity=105, time=0),
    Message('note_off', channel=9, note=69, velocity=1, time=96),
    Message('note_on', channel=9, note=69, velocity=65, time=0),
    Message('note_off', channel=9, note=69, velocity=1, time=96),
    Message('note_on', channel=9, note=69, velocity=105, time=0),
    Message('note_off', channel=9, note=69, velocity=1, time=96),
    Message('note_on', channel=9, note=69, velocity=65, time=0),
    Message('note_off', channel=9, note=69, velocity=1, time=96),
    Message('note_on', channel=9, note=69, velocity=105, time=0),
    Message('note_off', channel=9, note=69, velocity=1, time=96),
    Message('note_on', channel=9, note=69, velocity=65, time=0),
    Message('note_off', channel=9, note=69, velocity=1, time=96),
    Message('note_on', channel=9, note=69, velocity=105, time=0),
    Message('note_off', channel=9, note=69, velocity=1, time=96),
    Message('note_on', channel=9, note=69, velocity=65, time=0),
    Message('note_off', channel=9, note=69, velocity=1, time=96),
    Message('note_on', channel=9, note=69, velocity=105, time=0),
    Message('note_off', channel=9, note=69, velocity=1, time=96),
    Message('note_on', channel=9, note=69, velocity=65, time=0),
    Message('note_off', channel=9, note=69, velocity=1, time=96),
    Message('note_on', channel=9, note=69, velocity=105, time=0),
    Message('note_off', channel=9, note=69, velocity=1, time=96),
    Message('note_on', channel=9, note=69, velocity=65, time=0),
    Message('note_off', channel=9, note=69, velocity=1, time=96),
    Message('note_on', channel=9, note=69, velocity=105, time=0),
    Message('note_off', channel=9, note=69, velocity=1, time=96),
    Message('note_on', channel=9, note=69, velocity=65, time=0),
    Message('note_off', channel=9, note=69, velocity=1, time=96),
    Message('note_on', channel=9, note=69, velocity=105, time=0),
    Message('note_off', channel=9, note=69, velocity=1, time=96),
    Message('note_on', channel=9, note=69, velocity=65, time=0),
    Message('note_off', channel=9, note=69, velocity=1, time=96),
    Message('note_on', channel=9, note=69, velocity=105, time=0),
    Message('note_off', channel=9, note=69, velocity=1, time=96),
    Message('note_on', channel=9, note=69, velocity=65, time=0),
    Message('note_off', channel=9, note=69, velocity=1, time=96),
    Message('note_on', channel=9, note=69, velocity=105, time=0),
    Message('note_off', channel=9, note=69, velocity=1, time=96),
    Message('note_on', channel=9, note=69, velocity=65, time=0),
    Message('note_off', channel=9, note=69, velocity=1, time=96),
    Message('note_on', channel=9, note=69, velocity=105, time=0),
    Message('note_off', channel=9, note=69, velocity=1, time=96),
    Message('note_on', channel=9, note=69, velocity=65, time=0),
    Message('note_off', channel=9, note=69, velocity=1, time=96),
    Message('note_on', channel=9, note=69, velocity=105, time=0),
    Message('note_off', channel=9, note=69, velocity=1, time=96),
    Message('note_on', channel=9, note=69, velocity=65, time=0),
    Message('note_off', channel=9, note=69, velocity=1, time=96),
    Message('note_on', channel=9, note=69, velocity=105, time=0),
    Message('note_off', channel=9, note=69, velocity=1, time=96),
    Message('note_on', channel=9, note=69, velocity=65, time=0),
    Message('note_off', channel=9, note=69, velocity=1, time=96),
    Message('note_on', channel=9, note=69, velocity=105, time=0),
    Message('note_off', channel=9, note=69, velocity=1, time=96),
    Message('note_on', channel=9, note=69, velocity=65, time=0),
    Message('note_off', channel=9, note=69, velocity=1, time=96),
    Message('note_on', channel=9, note=69, velocity=105, time=0),
    Message('note_off', channel=9, note=69, velocity=1, time=96),
    Message('note_on', channel=9, note=69, velocity=65, time=0),
    Message('note_off', channel=9, note=69, velocity=1, time=96),
    Message('note_on', channel=9, note=69, velocity=105, time=0),
    Message('note_off', channel=9, note=69, velocity=1, time=96),
    Message('note_on', channel=9, note=69, velocity=65, time=0),
    Message('note_off', channel=9, note=69, velocity=1, time=96),
    Message('note_on', channel=9, note=69, velocity=105, time=0),
    Message('note_off', channel=9, note=69, velocity=1, time=96),
    Message('note_on', channel=9, note=69, velocity=65, time=0),
    Message('note_off', channel=9, note=69, velocity=1, time=96),
    Message('note_on', channel=9, note=69, velocity=105, time=0),
    Message('note_off', channel=9, note=69, velocity=1, time=96),
    Message('note_on', channel=9, note=69, velocity=65, time=0),
    Message('note_off', channel=9, note=69, velocity=1, time=96),
    Message('note_on', channel=9, note=69, velocity=105, time=0),
    Message('note_off', channel=9, note=69, velocity=1, time=96),
    Message('note_on', channel=9, note=69, velocity=65, time=0),
    Message('note_off', channel=9, note=69, velocity=1, time=96),
    Message('note_on', channel=9, note=69, velocity=105, time=0),
    Message('note_off', channel=9, note=69, velocity=1, time=96),
    Message('note_on', channel=9, note=69, velocity=65, time=0),
    Message('note_off', channel=9, note=69, velocity=1, time=96),
    Message('note_on', channel=9, note=69, velocity=105, time=0),
    Message('note_off', channel=9, note=69, velocity=1, time=96),
    Message('note_on', channel=9, note=69, velocity=65, time=0),
    Message('note_off', channel=9, note=69, velocity=1, time=96),
    Message('note_on', channel=9, note=69, velocity=105, time=0),
    Message('note_off', channel=9, note=69, velocity=1, time=96),
    Message('note_on', channel=9, note=69, velocity=65, time=0),
    Message('control_change', channel=9, control=7, value=114, time=96),
    Message('note_off', channel=9, note=69, velocity=1, time=96),
    Message('note_on', channel=9, note=69, velocity=105, time=2208),
    Message('note_off', channel=9, note=69, velocity=1, time=96),
    Message('note_on', channel=9, note=69, velocity=65, time=0),
    Message('note_off', channel=9, note=69, velocity=1, time=96),
    Message('note_on', channel=9, note=69, velocity=105, time=0),
    Message('note_off', channel=9, note=69, velocity=1, time=96),
    Message('note_on', channel=9, note=69, velocity=65, time=0),
    Message('note_off', channel=9, note=69, velocity=1, time=96),
    Message('note_on', channel=9, note=69, velocity=105, time=0),
    Message('note_off', channel=9, note=69, velocity=1, time=96),
    Message('note_on', channel=9, note=69, velocity=65, time=0),
    Message('note_off', channel=9, note=69, velocity=1, time=96),
    Message('note_on', channel=9, note=69, velocity=105, time=0),
    Message('note_off', channel=9, note=69, velocity=1, time=96),
    Message('note_on', channel=9, note=69, velocity=65, time=0),
    Message('note_off', channel=9, note=69, velocity=1, time=96),
    Message('note_on', channel=9, note=69, velocity=105, time=0),
    Message('note_off', channel=9, note=69, velocity=1, time=96),
    Message('note_on', channel=9, note=69, velocity=65, time=0),
    Message('note_off', channel=9, note=69, velocity=1, time=96),
    Message('note_on', channel=9, note=69, velocity=105, time=0),
    Message('note_off', channel=9, note=69, velocity=1, time=96),
    Message('note_on', channel=9, note=69, velocity=65, time=0),
    Message('note_off', channel=9, note=69, velocity=1, time=96),
    Message('note_on', channel=9, note=69, velocity=105, time=0),
    Message('note_off', channel=9, note=69, velocity=1, time=96),
    Message('note_on', channel=9, note=69, velocity=65, time=0),
    Message('note_off', channel=9, note=69, velocity=1, time=96),
    Message('note_on', channel=9, note=69, velocity=105, time=0),
    Message('note_off', channel=9, note=69, velocity=1, time=96),
    Message('note_on', channel=9, note=69, velocity=65, time=0),
    Message('note_off', channel=9, note=69, velocity=1, time=96),
    Message('note_on', channel=9, note=69, velocity=105, time=0),
    Message('note_off', channel=9, note=69, velocity=1, time=96),
    Message('note_on', channel=9, note=69, velocity=65, time=0),
    Message('note_off', channel=9, note=69, velocity=1, time=96),
    Message('note_on', channel=9, note=69, velocity=105, time=0),
    Message('note_off', channel=9, note=69, velocity=1, time=96),
    Message('note_on', channel=9, note=69, velocity=65, time=0),
    Message('note_off', channel=9, note=69, velocity=1, time=96),
    Message('note_on', channel=9, note=69, velocity=105, time=0),
    Message('note_off', channel=9, note=69, velocity=1, time=96),
    Message('note_on', channel=9, note=69, velocity=65, time=0),
    Message('note_off', channel=9, note=69, velocity=1, time=96),
    Message('note_on', channel=9, note=69, velocity=105, time=0),
    Message('note_off', channel=9, note=69, velocity=1, time=96),
    Message('note_on', channel=9, note=69, velocity=65, time=0),
    Message('note_off', channel=9, note=69, velocity=1, time=96),
    Message('note_on', channel=9, note=69, velocity=105, time=0),
    Message('note_off', channel=9, note=69, velocity=1, time=96),
    Message('note_on', channel=9, note=69, velocity=65, time=0),
    Message('note_off', channel=9, note=69, velocity=1, time=96),
    Message('note_on', channel=9, note=69, velocity=105, time=0),
    Message('note_off', channel=9, note=69, velocity=1, time=96),
    Message('note_on', channel=9, note=69, velocity=65, time=0),
    Message('note_off', channel=9, note=69, velocity=1, time=96),
    Message('note_on', channel=9, note=69, velocity=105, time=0),
    Message('note_off', channel=9, note=69, velocity=1, time=96),
    Message('note_on', channel=9, note=69, velocity=65, time=0),
    Message('note_off', channel=9, note=69, velocity=1, time=96),
    Message('note_on', channel=9, note=69, velocity=105, time=0),
    Message('note_off', channel=9, note=69, velocity=1, time=96),
    Message('note_on', channel=9, note=69, velocity=65, time=0),
    Message('note_off', channel=9, note=69, velocity=1, time=192),
    Message('note_on', channel=9, note=69, velocity=105, time=2208),
    Message('note_off', channel=9, note=69, velocity=1, time=96),
    Message('note_on', channel=9, note=69, velocity=65, time=0),
    Message('note_off', channel=9, note=69, velocity=1, time=96),
    Message('note_on', channel=9, note=69, velocity=105, time=0),
    Message('note_off', channel=9, note=69, velocity=1, time=96),
    Message('note_on', channel=9, note=69, velocity=65, time=0),
    Message('note_off', channel=9, note=69, velocity=1, time=96),
    Message('note_on', channel=9, note=69, velocity=105, time=0),
    Message('note_off', channel=9, note=69, velocity=1, time=96),
    Message('note_on', channel=9, note=69, velocity=65, time=0),
    Message('note_off', channel=9, note=69, velocity=1, time=96),
    Message('note_on', channel=9, note=69, velocity=105, time=0),
    Message('note_off', channel=9, note=69, velocity=1, time=96),
    Message('note_on', channel=9, note=69, velocity=65, time=0),
    Message('note_off', channel=9, note=69, velocity=1, time=96),
    Message('note_on', channel=9, note=69, velocity=105, time=0),
    Message('note_off', channel=9, note=69, velocity=1, time=96),
    Message('note_on', channel=9, note=69, velocity=65, time=0),
    Message('note_off', channel=9, note=69, velocity=1, time=96),
    Message('note_on', channel=9, note=69, velocity=105, time=0),
    Message('note_off', channel=9, note=69, velocity=1, time=96),
    Message('note_on', channel=9, note=69, velocity=65, time=0),
    Message('note_off', channel=9, note=69, velocity=1, time=96),
    Message('note_on', channel=9, note=69, velocity=105, time=0),
    Message('note_off', channel=9, note=69, velocity=1, time=96),
    Message('note_on', channel=9, note=69, velocity=65, time=0),
    Message('note_off', channel=9, note=69, velocity=1, time=96),
    Message('note_on', channel=9, note=69, velocity=105, time=0),
    Message('note_off', channel=9, note=69, velocity=1, time=96),
    Message('note_on', channel=9, note=69, velocity=65, time=0),
    Message('note_off', channel=9, note=69, velocity=1, time=192),
    Message('note_on', channel=9, note=69, velocity=105, time=2208),
    Message('note_off', channel=9, note=69, velocity=1, time=96),
    Message('note_on', channel=9, note=69, velocity=65, time=0),
    Message('note_off', channel=9, note=69, velocity=1, time=96),
    Message('note_on', channel=9, note=69, velocity=105, time=0),
    Message('note_off', channel=9, note=69, velocity=1, time=96),
    Message('note_on', channel=9, note=69, velocity=65, time=0),
    Message('note_off', channel=9, note=69, velocity=1, time=96),
    Message('note_on', channel=9, note=69, velocity=105, time=0),
    Message('note_off', channel=9, note=69, velocity=1, time=96),
    Message('note_on', channel=9, note=69, velocity=65, time=0),
    Message('note_off', channel=9, note=69, velocity=1, time=96),
    Message('note_on', channel=9, note=69, velocity=105, time=0),
    Message('note_off', channel=9, note=69, velocity=1, time=96),
    Message('note_on', channel=9, note=69, velocity=65, time=0),
    Message('note_off', channel=9, note=69, velocity=1, time=96),
    Message('note_on', channel=9, note=69, velocity=105, time=0),
    Message('note_off', channel=9, note=69, velocity=1, time=96),
    Message('note_on', channel=9, note=69, velocity=65, time=0),
    Message('note_off', channel=9, note=69, velocity=1, time=96),
    Message('note_on', channel=9, note=69, velocity=105, time=0),
    Message('note_off', channel=9, note=69, velocity=1, time=96),
    Message('note_on', channel=9, note=69, velocity=65, time=0),
    Message('note_off', channel=9, note=69, velocity=1, time=96),
    Message('note_on', channel=9, note=69, velocity=105, time=0),
    Message('note_off', channel=9, note=69, velocity=1, time=96),
    Message('note_on', channel=9, note=69, velocity=65, time=0),
    Message('note_off', channel=9, note=69, velocity=1, time=96),
    Message('note_on', channel=9, note=69, velocity=105, time=0),
    Message('note_off', channel=9, note=69, velocity=1, time=96),
    Message('note_on', channel=9, note=69, velocity=65, time=0),
    Message('note_off', channel=9, note=69, velocity=1, time=96),
    Message('note_on', channel=9, note=69, velocity=105, time=0),
    Message('note_off', channel=9, note=69, velocity=1, time=96),
    Message('note_on', channel=9, note=69, velocity=65, time=0),
    Message('note_off', channel=9, note=69, velocity=1, time=96),
    Message('note_on', channel=9, note=69, velocity=105, time=0),
    Message('note_off', channel=9, note=69, velocity=1, time=96),
    Message('note_on', channel=9, note=69, velocity=65, time=0),
    Message('note_off', channel=9, note=69, velocity=1, time=96),
    Message('note_on', channel=9, note=69, velocity=105, time=0),
    Message('note_off', channel=9, note=69, velocity=1, time=96),
    Message('note_on', channel=9, note=69, velocity=65, time=0),
    Message('note_off', channel=9, note=69, velocity=1, time=96),
    Message('note_on', channel=9, note=69, velocity=105, time=0),
    Message('note_off', channel=9, note=69, velocity=1, time=96),
    Message('note_on', channel=9, note=69, velocity=65, time=0),
    Message('note_off', channel=9, note=69, velocity=1, time=96),
    Message('note_on', channel=9, note=69, velocity=105, time=0),
    Message('note_off', channel=9, note=69, velocity=1, time=96),
    Message('note_on', channel=9, note=69, velocity=65, time=0),
    Message('note_off', channel=9, note=69, velocity=1, time=96),
    Message('note_on', channel=9, note=69, velocity=105, time=0),
    Message('note_off', channel=9, note=69, velocity=1, time=96),
    Message('note_on', channel=9, note=69, velocity=65, time=0),
    Message('note_off', channel=9, note=69, velocity=1, time=96),
    Message('note_on', channel=9, note=69, velocity=105, time=0),
    Message('note_off', channel=9, note=69, velocity=1, time=96),
    Message('note_on', channel=9, note=69, velocity=65, time=0),
    Message('note_off', channel=9, note=69, velocity=1, time=96),
    Message('note_on', channel=9, note=69, velocity=105, time=0),
    Message('note_off', channel=9, note=69, velocity=1, time=96),
    Message('note_on', channel=9, note=69, velocity=65, time=0),
    Message('note_off', channel=9, note=69, velocity=1, time=96),
    Message('note_on', channel=9, note=69, velocity=105, time=0),
    Message('note_off', channel=9, note=69, velocity=1, time=96),
    Message('note_on', channel=9, note=69, velocity=65, time=0),
    Message('note_off', channel=9, note=69, velocity=1, time=96),
    Message('note_on', channel=9, note=69, velocity=105, time=0),
    Message('note_off', channel=9, note=69, velocity=1, time=96),
    Message('note_on', channel=9, note=69, velocity=65, time=0),
    Message('note_off', channel=9, note=69, velocity=1, time=96),
    Message('note_on', channel=9, note=69, velocity=105, time=0),
    Message('note_off', channel=9, note=69, velocity=1, time=96),
    Message('note_on', channel=9, note=69, velocity=65, time=0),
    Message('note_off', channel=9, note=69, velocity=1, time=96),
    Message('note_on', channel=9, note=69, velocity=105, time=0),
    Message('note_off', channel=9, note=69, velocity=1, time=96),
    Message('note_on', channel=9, note=69, velocity=65, time=0),
    Message('note_off', channel=9, note=69, velocity=1, time=96),
    Message('note_on', channel=9, note=69, velocity=120, time=0),
    Message('note_off', channel=9, note=69, velocity=1, time=96),
    Message('note_on', channel=9, note=69, velocity=85, time=0),
    Message('note_off', channel=9, note=69, velocity=1, time=96),
    Message('note_on', channel=9, note=69, velocity=120, time=0),
    Message('note_off', channel=9, note=69, velocity=1, time=96),
    Message('note_on', channel=9, note=69, velocity=85, time=0),
    Message('note_off', channel=9, note=69, velocity=1, time=96),
    Message('note_on', channel=9, note=69, velocity=120, time=0),
    Message('note_off', channel=9, note=69, velocity=1, time=96),
    Message('note_on', channel=9, note=69, velocity=85, time=0),
    Message('note_off', channel=9, note=69, velocity=1, time=96),
    Message('note_on', channel=9, note=69, velocity=120, time=0),
    Message('note_off', channel=9, note=69, velocity=1, time=96),
    Message('note_on', channel=9, note=69, velocity=85, time=0),
    Message('note_off', channel=9, note=69, velocity=1, time=96),
    Message('note_on', channel=9, note=69, velocity=120, time=0),
    Message('note_off', channel=9, note=69, velocity=1, time=96),
    Message('note_on', channel=9, note=69, velocity=85, time=0),
    Message('note_off', channel=9, note=69, velocity=1, time=96),
    Message('note_on', channel=9, note=69, velocity=120, time=0),
    Message('note_off', channel=9, note=69, velocity=1, time=96),
    Message('note_on', channel=9, note=69, velocity=85, time=0),
    Message('note_off', channel=9, note=69, velocity=1, time=96),
    Message('note_on', channel=9, note=69, velocity=120, time=0),
    Message('note_off', channel=9, note=69, velocity=1, time=96),
    Message('note_on', channel=9, note=69, velocity=85, time=0),
    Message('note_off', channel=9, note=69, velocity=1, time=96),
    Message('note_on', channel=9, note=69, velocity=120, time=0),
    Message('note_off', channel=9, note=69, velocity=1, time=96),
    Message('note_on', channel=9, note=69, velocity=85, time=0),
    Message('note_off', channel=9, note=69, velocity=1, time=96),
    Message('note_on', channel=9, note=69, velocity=120, time=0),
    Message('note_off', channel=9, note=69, velocity=1, time=96),
    Message('note_on', channel=9, note=69, velocity=85, time=0),
    Message('note_off', channel=9, note=69, velocity=1, time=96),
    Message('note_on', channel=9, note=69, velocity=120, time=0),
    Message('note_off', channel=9, note=69, velocity=1, time=96),
    Message('note_on', channel=9, note=69, velocity=85, time=0),
    Message('note_off', channel=9, note=69, velocity=1, time=96),
    Message('note_on', channel=9, note=69, velocity=120, time=0),
    Message('note_off', channel=9, note=69, velocity=1, time=96),
    Message('note_on', channel=9, note=69, velocity=85, time=0),
    Message('note_off', channel=9, note=69, velocity=1, time=96),
    Message('note_on', channel=9, note=69, velocity=120, time=0),
    Message('note_off', channel=9, note=69, velocity=1, time=96),
    Message('note_on', channel=9, note=69, velocity=85, time=0),
    Message('note_off', channel=9, note=69, velocity=1, time=96),
    Message('note_on', channel=9, note=69, velocity=120, time=0),
    Message('note_off', channel=9, note=69, velocity=1, time=96),
    Message('note_on', channel=9, note=69, velocity=85, time=0),
    Message('note_off', channel=9, note=69, velocity=1, time=96),
    Message('note_on', channel=9, note=69, velocity=120, time=0),
    Message('note_off', channel=9, note=69, velocity=1, time=96),
    Message('note_on', channel=9, note=69, velocity=85, time=0),
    Message('note_off', channel=9, note=69, velocity=1, time=96),
    Message('note_on', channel=9, note=69, velocity=120, time=0),
    Message('note_off', channel=9, note=69, velocity=1, time=96),
    Message('note_on', channel=9, note=69, velocity=85, time=0),
    Message('note_off', channel=9, note=69, velocity=1, time=96),
    Message('note_on', channel=9, note=69, velocity=120, time=0),
    Message('note_off', channel=9, note=69, velocity=1, time=96),
    Message('note_on', channel=9, note=69, velocity=85, time=0),
    Message('note_off', channel=9, note=69, velocity=1, time=96),
    Message('note_on', channel=9, note=69, velocity=120, time=0),
    Message('note_off', channel=9, note=69, velocity=1, time=96),
    Message('note_on', channel=9, note=69, velocity=85, time=0),
    Message('note_off', channel=9, note=69, velocity=1, time=96),
    Message('note_on', channel=9, note=69, velocity=120, time=0),
    Message('note_off', channel=9, note=69, velocity=1, time=96),
    Message('note_on', channel=9, note=69, velocity=85, time=0),
    Message('note_off', channel=9, note=69, velocity=1, time=96),
    Message('note_on', channel=9, note=69, velocity=120, time=0),
    Message('note_off', channel=9, note=69, velocity=1, time=96),
    Message('note_on', channel=9, note=69, velocity=85, time=0),
    Message('note_off', channel=9, note=69, velocity=1, time=96),
    Message('note_on', channel=9, note=69, velocity=120, time=0),
    Message('note_off', channel=9, note=69, velocity=1, time=96),
    Message('note_on', channel=9, note=69, velocity=85, time=0),
    Message('note_off', channel=9, note=69, velocity=1, time=96),
    Message('note_on', channel=9, note=69, velocity=120, time=0),
    Message('note_off', channel=9, note=69, velocity=1, time=96),
    Message('note_on', channel=9, note=69, velocity=85, time=0),
    Message('note_off', channel=9, note=69, velocity=1, time=96),
    Message('note_on', channel=9, note=69, velocity=120, time=0),
    Message('note_off', channel=9, note=69, velocity=1, time=96),
    Message('note_on', channel=9, note=69, velocity=85, time=0),
    Message('note_off', channel=9, note=69, velocity=1, time=96),
    Message('note_on', channel=9, note=69, velocity=120, time=0),
    Message('note_off', channel=9, note=69, velocity=1, time=96),
    Message('note_on', channel=9, note=69, velocity=85, time=0),
    Message('note_off', channel=9, note=69, velocity=1, time=96),
    Message('note_on', channel=9, note=69, velocity=120, time=0),
    Message('note_off', channel=9, note=69, velocity=1, time=96),
    Message('note_on', channel=9, note=69, velocity=85, time=0),
    Message('note_off', channel=9, note=69, velocity=1, time=96),
    Message('note_on', channel=9, note=69, velocity=120, time=0),
    Message('note_off', channel=9, note=69, velocity=1, time=96),
    Message('note_on', channel=9, note=69, velocity=85, time=0),
    Message('note_off', channel=9, note=69, velocity=1, time=96),
    Message('note_on', channel=9, note=69, velocity=120, time=0),
    Message('note_off', channel=9, note=69, velocity=1, time=96),
    Message('note_on', channel=9, note=69, velocity=85, time=0),
    Message('note_off', channel=9, note=69, velocity=1, time=96),
    Message('note_on', channel=9, note=69, velocity=120, time=0),
    Message('note_off', channel=9, note=69, velocity=1, time=96),
    Message('note_on', channel=9, note=69, velocity=85, time=0),
    Message('note_off', channel=9, note=69, velocity=1, time=96),
    Message('note_on', channel=9, note=69, velocity=120, time=0),
    Message('note_off', channel=9, note=69, velocity=1, time=96),
    Message('note_on', channel=9, note=69, velocity=85, time=0),
    Message('note_off', channel=9, note=69, velocity=1, time=96),
    Message('note_on', channel=9, note=69, velocity=120, time=0),
    Message('note_off', channel=9, note=69, velocity=1, time=96),
    Message('note_on', channel=9, note=69, velocity=85, time=0),
    Message('note_off', channel=9, note=69, velocity=1, time=96),
    Message('note_on', channel=9, note=69, velocity=120, time=0),
    Message('note_off', channel=9, note=69, velocity=1, time=96),
    Message('note_on', channel=9, note=69, velocity=85, time=0),
    Message('note_off', channel=9, note=69, velocity=1, time=96),
    Message('note_on', channel=9, note=69, velocity=120, time=0),
    Message('note_off', channel=9, note=69, velocity=1, time=96),
    Message('note_on', channel=9, note=69, velocity=85, time=0),
    Message('note_off', channel=9, note=69, velocity=1, time=96),
    Message('note_on', channel=9, note=69, velocity=120, time=0),
    Message('note_off', channel=9, note=69, velocity=1, time=96),
    Message('note_on', channel=9, note=69, velocity=85, time=0),
    Message('note_off', channel=9, note=69, velocity=1, time=96),
    Message('note_on', channel=9, note=69, velocity=105, time=0),
    Message('note_off', channel=9, note=69, velocity=1, time=96),
    Message('note_on', channel=9, note=69, velocity=65, time=0),
    Message('note_off', channel=9, note=69, velocity=1, time=96),
    Message('note_on', channel=9, note=69, velocity=105, time=0),
    Message('note_off', channel=9, note=69, velocity=1, time=96),
    Message('note_on', channel=9, note=69, velocity=65, time=0),
    Message('note_off', channel=9, note=69, velocity=1, time=96),
    Message('note_on', channel=9, note=69, velocity=105, time=0),
    Message('note_off', channel=9, note=69, velocity=1, time=96),
    Message('note_on', channel=9, note=69, velocity=65, time=0),
    Message('note_off', channel=9, note=69, velocity=1, time=96),
    Message('note_on', channel=9, note=69, velocity=105, time=0),
    Message('note_off', channel=9, note=69, velocity=1, time=96),
    Message('note_on', channel=9, note=69, velocity=65, time=0),
    Message('note_off', channel=9, note=69, velocity=1, time=96),
    Message('note_on', channel=9, note=69, velocity=65, time=0),
    Message('note_off', channel=9, note=69, velocity=1, time=96),
    Message('note_on', channel=9, note=69, velocity=65, time=672),
    Message('note_off', channel=9, note=69, velocity=1, time=96),
    Message('note_on', channel=9, note=69, velocity=105, time=2208),
    Message('note_off', channel=9, note=69, velocity=1, time=96),
    Message('note_on', channel=9, note=69, velocity=65, time=0),
    Message('note_off', channel=9, note=69, velocity=1, time=96),
    Message('note_on', channel=9, note=69, velocity=105, time=0),
    Message('note_off', channel=9, note=69, velocity=1, time=96),
    Message('note_on', channel=9, note=69, velocity=65, time=0),
    Message('note_off', channel=9, note=69, velocity=1, time=96),
    Message('note_on', channel=9, note=69, velocity=105, time=0),
    Message('note_off', channel=9, note=69, velocity=1, time=96),
    Message('note_on', channel=9, note=69, velocity=65, time=0),
    Message('note_off', channel=9, note=69, velocity=1, time=96),
    Message('note_on', channel=9, note=69, velocity=105, time=0),
    Message('note_off', channel=9, note=69, velocity=1, time=96),
    Message('note_on', channel=9, note=69, velocity=65, time=0),
    Message('note_off', channel=9, note=69, velocity=1, time=96),
    Message('note_on', channel=9, note=69, velocity=105, time=0),
    Message('note_off', channel=9, note=69, velocity=1, time=96),
    Message('note_on', channel=9, note=69, velocity=65, time=0),
    Message('note_off', channel=9, note=69, velocity=1, time=96),
    Message('note_on', channel=9, note=69, velocity=105, time=0),
    Message('note_off', channel=9, note=69, velocity=1, time=96),
    Message('note_on', channel=9, note=69, velocity=65, time=0),
    Message('note_off', channel=9, note=69, velocity=1, time=96),
    Message('note_on', channel=9, note=69, velocity=105, time=0),
    Message('note_off', channel=9, note=69, velocity=1, time=96),
    Message('note_on', channel=9, note=69, velocity=65, time=0),
    Message('note_off', channel=9, note=69, velocity=1, time=96),
    Message('note_on', channel=9, note=69, velocity=105, time=0),
    Message('note_off', channel=9, note=69, velocity=1, time=96),
    Message('note_on', channel=9, note=69, velocity=65, time=0),
    Message('note_off', channel=9, note=69, velocity=1, time=96),
    Message('note_on', channel=9, note=69, velocity=105, time=0),
    Message('note_off', channel=9, note=69, velocity=1, time=96),
    Message('note_on', channel=9, note=69, velocity=65, time=0),
    Message('note_off', channel=9, note=69, velocity=1, time=96),
    Message('note_on', channel=9, note=69, velocity=105, time=0),
    Message('note_off', channel=9, note=69, velocity=1, time=96),
    Message('note_on', channel=9, note=69, velocity=65, time=0),
    Message('note_off', channel=9, note=69, velocity=1, time=96),
    Message('note_on', channel=9, note=69, velocity=105, time=0),
    Message('note_off', channel=9, note=69, velocity=1, time=96),
    Message('note_on', channel=9, note=69, velocity=65, time=0),
    Message('note_off', channel=9, note=69, velocity=1, time=96),
    Message('note_on', channel=9, note=69, velocity=105, time=0),
    Message('note_off', channel=9, note=69, velocity=1, time=96),
    Message('note_on', channel=9, note=69, velocity=65, time=0),
    Message('note_off', channel=9, note=69, velocity=1, time=96),
    Message('note_on', channel=9, note=69, velocity=105, time=0),
    Message('note_off', channel=9, note=69, velocity=1, time=96),
    Message('note_on', channel=9, note=69, velocity=65, time=0),
    Message('note_off', channel=9, note=69, velocity=1, time=96),
    Message('note_on', channel=9, note=69, velocity=105, time=0),
    Message('note_off', channel=9, note=69, velocity=1, time=96),
    Message('note_on', channel=9, note=69, velocity=65, time=0),
    Message('note_off', channel=9, note=69, velocity=1, time=96),
    Message('note_on', channel=9, note=69, velocity=105, time=0),
    Message('note_off', channel=9, note=69, velocity=1, time=96),
    Message('note_on', channel=9, note=69, velocity=65, time=0),
    Message('note_off', channel=9, note=69, velocity=1, time=96),
    Message('note_on', channel=9, note=69, velocity=105, time=0),
    Message('note_off', channel=9, note=69, velocity=1, time=96),
    Message('note_on', channel=9, note=69, velocity=65, time=0),
    Message('note_off', channel=9, note=69, velocity=1, time=96),
    Message('note_on', channel=9, note=69, velocity=105, time=0),
    Message('note_off', channel=9, note=69, velocity=1, time=96),
    Message('note_on', channel=9, note=69, velocity=65, time=0),
    Message('note_off', channel=9, note=69, velocity=1, time=96),
    Message('note_on', channel=9, note=69, velocity=105, time=0),
    Message('note_off', channel=9, note=69, velocity=1, time=96),
    Message('note_on', channel=9, note=69, velocity=65, time=0),
    Message('note_off', channel=9, note=69, velocity=1, time=96),
    Message('note_on', channel=9, note=69, velocity=105, time=0),
    Message('note_off', channel=9, note=69, velocity=1, time=96),
    Message('note_on', channel=9, note=69, velocity=65, time=0),
    Message('note_off', channel=9, note=69, velocity=1, time=96),
    Message('note_on', channel=9, note=69, velocity=105, time=0),
    Message('note_off', channel=9, note=69, velocity=1, time=96),
    Message('note_on', channel=9, note=69, velocity=65, time=0),
    Message('note_off', channel=9, note=69, velocity=1, time=96),
    Message('note_on', channel=9, note=69, velocity=105, time=0),
    Message('note_off', channel=9, note=69, velocity=1, time=96),
    Message('note_on', channel=9, note=69, velocity=65, time=0),
    Message('note_off', channel=9, note=69, velocity=1, time=96),
    Message('note_on', channel=9, note=69, velocity=105, time=0),
    Message('note_off', channel=9, note=69, velocity=1, time=96),
    Message('note_on', channel=9, note=69, velocity=65, time=0),
    Message('note_off', channel=9, note=69, velocity=1, time=96),
    Message('note_on', channel=9, note=69, velocity=105, time=0),
    Message('note_off', channel=9, note=69, velocity=1, time=96),
    Message('note_on', channel=9, note=69, velocity=65, time=0),
    Message('note_off', channel=9, note=69, velocity=1, time=96),
    Message('note_on', channel=9, note=69, velocity=105, time=0),
    Message('note_off', channel=9, note=69, velocity=1, time=96),
    Message('note_on', channel=9, note=69, velocity=65, time=0),
    Message('note_off', channel=9, note=69, velocity=1, time=96),
    Message('note_on', channel=9, note=69, velocity=105, time=0),
    Message('note_off', channel=9, note=69, velocity=1, time=96),
    Message('note_on', channel=9, note=69, velocity=65, time=0),
    Message('note_off', channel=9, note=69, velocity=1, time=96),
    Message('note_on', channel=9, note=69, velocity=105, time=0),
    Message('note_off', channel=9, note=69, velocity=1, time=96),
    Message('note_on', channel=9, note=69, velocity=65, time=0),
    Message('note_off', channel=9, note=69, velocity=1, time=96),
    Message('note_on', channel=9, note=69, velocity=105, time=0),
    Message('note_off', channel=9, note=69, velocity=1, time=96),
    Message('note_on', channel=9, note=69, velocity=65, time=0),
    Message('note_off', channel=9, note=69, velocity=1, time=96),
    Message('note_on', channel=9, note=69, velocity=105, time=0),
    Message('note_off', channel=9, note=69, velocity=1, time=96),
    Message('note_on', channel=9, note=69, velocity=65, time=0),
    Message('note_off', channel=9, note=69, velocity=1, time=96),
    Message('note_on', channel=9, note=69, velocity=105, time=0),
    Message('note_off', channel=9, note=69, velocity=1, time=96),
    Message('note_on', channel=9, note=69, velocity=65, time=0),
    Message('note_off', channel=9, note=69, velocity=1, time=96),
    Message('note_on', channel=9, note=69, velocity=105, time=0),
    Message('note_off', channel=9, note=69, velocity=1, time=96),
    Message('note_on', channel=9, note=69, velocity=65, time=0),
    Message('note_off', channel=9, note=69, velocity=1, time=96),
    Message('note_on', channel=9, note=69, velocity=105, time=0),
    Message('note_off', channel=9, note=69, velocity=1, time=96),
    Message('note_on', channel=9, note=69, velocity=65, time=0),
    Message('note_off', channel=9, note=69, velocity=1, time=96),
    Message('note_on', channel=9, note=69, velocity=105, time=0),
    Message('note_off', channel=9, note=69, velocity=1, time=96),
    Message('note_on', channel=9, note=69, velocity=65, time=0),
    Message('note_off', channel=9, note=69, velocity=1, time=96),
    Message('note_on', channel=9, note=69, velocity=105, time=0),
    Message('note_off', channel=9, note=69, velocity=1, time=96),
    Message('note_on', channel=9, note=69, velocity=65, time=0),
    Message('note_off', channel=9, note=69, velocity=1, time=96),
    Message('note_on', channel=9, note=69, velocity=105, time=0),
    Message('note_off', channel=9, note=69, velocity=1, time=96),
    Message('note_on', channel=9, note=69, velocity=65, time=0),
    Message('note_off', channel=9, note=69, velocity=1, time=96),
    Message('note_on', channel=9, note=69, velocity=105, time=0),
    Message('note_off', channel=9, note=69, velocity=1, time=96),
    Message('note_on', channel=9, note=69, velocity=65, time=0),
    Message('note_off', channel=9, note=69, velocity=1, time=96),
    Message('note_on', channel=9, note=69, velocity=105, time=0),
    Message('note_off', channel=9, note=69, velocity=1, time=96),
    Message('note_on', channel=9, note=69, velocity=65, time=0),
    Message('note_off', channel=9, note=69, velocity=1, time=96),
    Message('note_on', channel=9, note=69, velocity=105, time=0),
    Message('note_off', channel=9, note=69, velocity=1, time=96),
    Message('note_on', channel=9, note=69, velocity=65, time=0),
    Message('note_off', channel=9, note=69, velocity=1, time=96),
    Message('note_on', channel=9, note=69, velocity=105, time=0),
    Message('note_off', channel=9, note=69, velocity=1, time=96),
    Message('note_on', channel=9, note=69, velocity=65, time=0),
    Message('note_off', channel=9, note=69, velocity=1, time=96),
    Message('note_on', channel=9, note=69, velocity=105, time=0),
    Message('note_off', channel=9, note=69, velocity=1, time=96),
    Message('note_on', channel=9, note=69, velocity=65, time=0),
    Message('note_off', channel=9, note=69, velocity=1, time=96),
    Message('note_on', channel=9, note=69, velocity=105, time=0),
    Message('note_off', channel=9, note=69, velocity=1, time=96),
    Message('note_on', channel=9, note=69, velocity=65, time=0),
    Message('note_off', channel=9, note=69, velocity=1, time=192),
    Message('note_on', channel=9, note=69, velocity=105, time=1440),
    Message('note_off', channel=9, note=69, velocity=1, time=96),
    Message('note_on', channel=9, note=69, velocity=65, time=0),
    Message('note_off', channel=9, note=69, velocity=1, time=96),
    Message('note_on', channel=9, note=69, velocity=105, time=0),
    Message('note_off', channel=9, note=69, velocity=1, time=96),
    Message('note_on', channel=9, note=69, velocity=65, time=0),
    Message('note_off', channel=9, note=69, velocity=1, time=96),
    Message('note_on', channel=9, note=69, velocity=105, time=0),
    Message('note_off', channel=9, note=69, velocity=1, time=96),
    Message('note_on', channel=9, note=69, velocity=65, time=0),
    Message('note_off', channel=9, note=69, velocity=1, time=96),
    Message('note_on', channel=9, note=69, velocity=105, time=0),
    Message('note_off', channel=9, note=69, velocity=1, time=96),
    Message('note_on', channel=9, note=69, velocity=65, time=0),
    Message('note_off', channel=9, note=69, velocity=1, time=96),
    Message('note_on', channel=9, note=69, velocity=105, time=0),
    Message('note_off', channel=9, note=69, velocity=1, time=96),
    Message('note_on', channel=9, note=69, velocity=65, time=0),
    Message('note_off', channel=9, note=69, velocity=1, time=96),
    Message('note_on', channel=9, note=69, velocity=105, time=0),
    Message('note_off', channel=9, note=69, velocity=1, time=96),
    Message('note_on', channel=9, note=69, velocity=65, time=0),
    Message('note_off', channel=9, note=69, velocity=1, time=96),
    Message('note_on', channel=9, note=69, velocity=105, time=0),
    Message('note_off', channel=9, note=69, velocity=1, time=96),
    Message('note_on', channel=9, note=69, velocity=65, time=0),
    Message('note_off', channel=9, note=69, velocity=1, time=96),
    Message('note_on', channel=9, note=69, velocity=105, time=0),
    Message('note_off', channel=9, note=69, velocity=1, time=96),
    Message('note_on', channel=9, note=69, velocity=65, time=0),
    Message('note_off', channel=9, note=69, velocity=1, time=96),
    Message('note_on', channel=9, note=69, velocity=105, time=0),
    Message('note_off', channel=9, note=69, velocity=1, time=96),
    Message('note_on', channel=9, note=69, velocity=65, time=0),
    Message('note_off', channel=9, note=69, velocity=1, time=96),
    Message('note_on', channel=9, note=69, velocity=105, time=0),
    Message('note_off', channel=9, note=69, velocity=1, time=96),
    Message('note_on', channel=9, note=69, velocity=65, time=0),
    Message('note_off', channel=9, note=69, velocity=1, time=96),
    Message('note_on', channel=9, note=69, velocity=105, time=0),
    Message('note_off', channel=9, note=69, velocity=1, time=96),
    Message('note_on', channel=9, note=69, velocity=65, time=0),
    Message('note_off', channel=9, note=69, velocity=1, time=96),
    Message('note_on', channel=9, note=69, velocity=105, time=0),
    Message('note_off', channel=9, note=69, velocity=1, time=96),
    Message('note_on', channel=9, note=69, velocity=65, time=0),
    Message('note_off', channel=9, note=69, velocity=1, time=96),
    Message('note_on', channel=9, note=69, velocity=105, time=0),
    Message('note_off', channel=9, note=69, velocity=1, time=96),
    Message('note_on', channel=9, note=69, velocity=65, time=0),
    Message('note_off', channel=9, note=69, velocity=1, time=96),
    Message('note_on', channel=9, note=69, velocity=105, time=0),
    Message('note_off', channel=9, note=69, velocity=1, time=96),
    Message('note_on', channel=9, note=69, velocity=65, time=0),
    Message('note_off', channel=9, note=69, velocity=1, time=96),
    Message('note_on', channel=9, note=69, velocity=105, time=0),
    Message('note_off', channel=9, note=69, velocity=1, time=96),
    Message('note_on', channel=9, note=69, velocity=65, time=0),
    Message('note_off', channel=9, note=69, velocity=1, time=96),
    Message('note_on', channel=9, note=69, velocity=105, time=0),
    Message('note_off', channel=9, note=69, velocity=1, time=96),
    Message('note_on', channel=9, note=69, velocity=65, time=0),
    Message('note_off', channel=9, note=69, velocity=1, time=96),
    Message('note_on', channel=9, note=69, velocity=105, time=0),
    Message('note_off', channel=9, note=69, velocity=1, time=96),
    Message('note_on', channel=9, note=69, velocity=65, time=0),
    Message('note_off', channel=9, note=69, velocity=1, time=96),
    Message('note_on', channel=9, note=69, velocity=105, time=0),
    Message('note_off', channel=9, note=69, velocity=1, time=96),
    Message('note_on', channel=9, note=69, velocity=65, time=0),
    Message('note_off', channel=9, note=69, velocity=1, time=96),
    Message('note_on', channel=9, note=69, velocity=105, time=0),
    Message('note_off', channel=9, note=69, velocity=1, time=192),
    Message('note_on', channel=9, note=69, velocity=105, time=192),
    Message('note_off', channel=9, note=69, velocity=1, time=96),
    Message('note_on', channel=9, note=69, velocity=65, time=0),
    Message('note_off', channel=9, note=69, velocity=1, time=96),
    Message('note_on', channel=9, note=69, velocity=105, time=0),
    Message('note_off', channel=9, note=69, velocity=1, time=96),
    Message('note_on', channel=9, note=69, velocity=65, time=0),
    Message('note_off', channel=9, note=69, velocity=1, time=96),
    Message('note_on', channel=9, note=69, velocity=105, time=0),
    Message('note_off', channel=9, note=69, velocity=1, time=96),
    Message('note_on', channel=9, note=69, velocity=65, time=0),
    Message('note_off', channel=9, note=69, velocity=1, time=96),
    Message('note_on', channel=9, note=69, velocity=105, time=0),
    Message('note_off', channel=9, note=69, velocity=1, time=96),
    Message('note_on', channel=9, note=69, velocity=65, time=0),
    Message('note_off', channel=9, note=69, velocity=1, time=96),
    Message('note_on', channel=9, note=69, velocity=105, time=0),
    Message('note_off', channel=9, note=69, velocity=1, time=96),
    Message('note_on', channel=9, note=69, velocity=65, time=0),
    Message('note_off', channel=9, note=69, velocity=1, time=96),
    Message('note_on', channel=9, note=69, velocity=105, time=0),
    Message('note_off', channel=9, note=69, velocity=1, time=96),
    Message('note_on', channel=9, note=69, velocity=65, time=0),
    Message('note_off', channel=9, note=69, velocity=1, time=96),
    Message('note_on', channel=9, note=69, velocity=105, time=0),
    Message('note_off', channel=9, note=69, velocity=1, time=96),
    Message('note_on', channel=9, note=69, velocity=65, time=0),
    Message('note_off', channel=9, note=69, velocity=1, time=96),
    Message('note_on', channel=9, note=69, velocity=105, time=0),
    Message('note_off', channel=9, note=69, velocity=1, time=96),
    Message('note_on', channel=9, note=69, velocity=65, time=0),
    Message('note_off', channel=9, note=69, velocity=1, time=96),
    Message('note_on', channel=9, note=69, velocity=105, time=0),
    Message('note_off', channel=9, note=69, velocity=1, time=96),
    Message('note_on', channel=9, note=69, velocity=65, time=0),
    Message('note_off', channel=9, note=69, velocity=1, time=96),
    Message('note_on', channel=9, note=69, velocity=105, time=0),
    Message('note_off', channel=9, note=69, velocity=1, time=96),
    Message('note_on', channel=9, note=69, velocity=65, time=0),
    Message('note_off', channel=9, note=69, velocity=1, time=96),
    Message('note_on', channel=9, note=69, velocity=105, time=0),
    Message('note_off', channel=9, note=69, velocity=1, time=96),
    Message('note_on', channel=9, note=69, velocity=65, time=0),
    Message('note_off', channel=9, note=69, velocity=1, time=96),
    Message('note_on', channel=9, note=69, velocity=105, time=0),
    Message('note_off', channel=9, note=69, velocity=1, time=96),
    Message('note_on', channel=9, note=69, velocity=65, time=0),
    Message('note_off', channel=9, note=69, velocity=1, time=96),
    Message('note_on', channel=9, note=69, velocity=105, time=0),
    Message('note_off', channel=9, note=69, velocity=1, time=96),
    Message('note_on', channel=9, note=69, velocity=65, time=0),
    Message('note_off', channel=9, note=69, velocity=1, time=96),
    Message('note_on', channel=9, note=69, velocity=105, time=0),
    Message('note_off', channel=9, note=69, velocity=1, time=96),
    Message('note_on', channel=9, note=69, velocity=65, time=0),
    Message('note_off', channel=9, note=69, velocity=1, time=96),
    Message('note_on', channel=9, note=69, velocity=105, time=0),
    Message('note_off', channel=9, note=69, velocity=1, time=96),
    Message('note_on', channel=9, note=69, velocity=65, time=0),
    Message('note_off', channel=9, note=69, velocity=1, time=96),
    Message('note_on', channel=9, note=69, velocity=105, time=0),
    Message('note_off', channel=9, note=69, velocity=1, time=96),
    Message('note_on', channel=9, note=69, velocity=65, time=0),
    Message('note_off', channel=9, note=69, velocity=1, time=96),
    Message('note_on', channel=9, note=69, velocity=105, time=0),
    Message('note_off', channel=9, note=69, velocity=1, time=96),
    Message('note_on', channel=9, note=69, velocity=65, time=0),
    Message('note_off', channel=9, note=69, velocity=1, time=96),
    Message('note_on', channel=9, note=69, velocity=105, time=0),
    Message('note_off', channel=9, note=69, velocity=1, time=96),
    Message('note_on', channel=9, note=69, velocity=65, time=0),
    Message('note_off', channel=9, note=69, velocity=1, time=96),
    Message('note_on', channel=9, note=69, velocity=105, time=0),
    Message('note_off', channel=9, note=69, velocity=1, time=96),
    Message('note_on', channel=9, note=69, velocity=65, time=0),
    Message('note_off', channel=9, note=69, velocity=1, time=96),
    Message('note_on', channel=9, note=69, velocity=105, time=0),
    Message('note_off', channel=9, note=69, velocity=1, time=96),
    Message('note_on', channel=9, note=69, velocity=65, time=0),
    Message('note_off', channel=9, note=69, velocity=1, time=96),
    Message('note_on', channel=9, note=69, velocity=105, time=0),
    Message('note_off', channel=9, note=69, velocity=1, time=96),
    Message('note_on', channel=9, note=69, velocity=65, time=0),
    Message('note_off', channel=9, note=69, velocity=1, time=96),
    Message('note_on', channel=9, note=69, velocity=105, time=0),
    Message('note_off', channel=9, note=69, velocity=1, time=96),
    Message('note_on', channel=9, note=69, velocity=65, time=0),
    Message('note_off', channel=9, note=69, velocity=1, time=96),
    Message('note_on', channel=9, note=69, velocity=105, time=0),
    Message('note_off', channel=9, note=69, velocity=1, time=96),
    Message('note_on', channel=9, note=69, velocity=65, time=0),
    Message('note_off', channel=9, note=69, velocity=1, time=96),
    Message('note_on', channel=9, note=69, velocity=105, time=0),
    Message('note_off', channel=9, note=69, velocity=1, time=96),
    Message('note_on', channel=9, note=69, velocity=65, time=0),
    Message('note_off', channel=9, note=69, velocity=1, time=96),
    Message('note_on', channel=9, note=69, velocity=105, time=0),
    Message('note_off', channel=9, note=69, velocity=1, time=96),
    Message('note_on', channel=9, note=69, velocity=65, time=0),
    Message('note_off', channel=9, note=69, velocity=1, time=96),
    Message('note_on', channel=9, note=69, velocity=105, time=0),
    Message('note_off', channel=9, note=69, velocity=1, time=96),
    Message('note_on', channel=9, note=69, velocity=65, time=0),
    Message('note_off', channel=9, note=69, velocity=1, time=96),
    Message('note_on', channel=9, note=69, velocity=105, time=0),
    Message('note_off', channel=9, note=69, velocity=1, time=96),
    Message('note_on', channel=9, note=69, velocity=65, time=0),
    Message('note_off', channel=9, note=69, velocity=1, time=96),
    Message('note_on', channel=9, note=69, velocity=105, time=0),
    Message('note_off', channel=9, note=69, velocity=1, time=96),
    Message('note_on', channel=9, note=69, velocity=65, time=0),
    Message('note_off', channel=9, note=69, velocity=1, time=96),
    Message('note_on', channel=9, note=69, velocity=105, time=0),
    Message('note_off', channel=9, note=69, velocity=1, time=96),
    Message('note_on', channel=9, note=69, velocity=65, time=0),
    Message('note_off', channel=9, note=69, velocity=1, time=96),
    Message('note_on', channel=9, note=69, velocity=105, time=0),
    Message('note_off', channel=9, note=69, velocity=1, time=96),
    Message('note_on', channel=9, note=69, velocity=65, time=0),
    Message('note_off', channel=9, note=69, velocity=1, time=96),
    Message('note_on', channel=9, note=69, velocity=105, time=0),
    Message('note_off', channel=9, note=69, velocity=1, time=96),
    Message('note_on', channel=9, note=69, velocity=65, time=0),
    Message('note_off', channel=9, note=69, velocity=1, time=96),
    Message('note_on', channel=9, note=69, velocity=105, time=0),
    Message('note_off', channel=9, note=69, velocity=1, time=96),
    Message('note_on', channel=9, note=69, velocity=65, time=0),
    Message('note_off', channel=9, note=69, velocity=1, time=96),
    Message('note_on', channel=9, note=69, velocity=105, time=0),
    Message('note_off', channel=9, note=69, velocity=1, time=96),
    Message('note_on', channel=9, note=69, velocity=65, time=0),
    Message('note_off', channel=9, note=69, velocity=1, time=96),
    Message('note_on', channel=9, note=69, velocity=105, time=0),
    Message('note_off', channel=9, note=69, velocity=1, time=96),
    Message('note_on', channel=9, note=69, velocity=65, time=0),
    Message('note_off', channel=9, note=69, velocity=1, time=96),
    Message('note_on', channel=9, note=69, velocity=105, time=0),
    Message('note_off', channel=9, note=69, velocity=1, time=96),
    Message('note_on', channel=9, note=69, velocity=65, time=0),
    Message('note_off', channel=9, note=69, velocity=1, time=96),
    Message('note_on', channel=9, note=69, velocity=105, time=0),
    Message('note_off', channel=9, note=69, velocity=1, time=96),
    Message('note_on', channel=9, note=69, velocity=65, time=0),
    Message('note_off', channel=9, note=69, velocity=1, time=96),
    Message('note_on', channel=9, note=69, velocity=105, time=0),
    Message('note_off', channel=9, note=69, velocity=1, time=96),
    Message('note_on', channel=9, note=69, velocity=65, time=0),
    Message('note_off', channel=9, note=69, velocity=1, time=96),
    Message('note_on', channel=9, note=69, velocity=105, time=0),
    Message('note_off', channel=9, note=69, velocity=1, time=96),
    Message('note_on', channel=9, note=69, velocity=65, time=0),
    Message('note_off', channel=9, note=69, velocity=1, time=96),
    Message('note_on', channel=9, note=69, velocity=105, time=0),
    Message('note_off', channel=9, note=69, velocity=1, time=96),
    Message('note_on', channel=9, note=69, velocity=65, time=0),
    Message('note_off', channel=9, note=69, velocity=1, time=96),
    Message('note_on', channel=9, note=69, velocity=105, time=0),
    Message('note_off', channel=9, note=69, velocity=1, time=96),
    Message('note_on', channel=9, note=69, velocity=65, time=0),
    Message('note_off', channel=9, note=69, velocity=1, time=96),
    Message('note_on', channel=9, note=69, velocity=105, time=0),
    Message('note_off', channel=9, note=69, velocity=1, time=96),
    Message('note_on', channel=9, note=69, velocity=65, time=0),
    Message('note_off', channel=9, note=69, velocity=1, time=96),
    Message('note_on', channel=9, note=69, velocity=105, time=0),
    Message('note_off', channel=9, note=69, velocity=1, time=96),
    Message('note_on', channel=9, note=69, velocity=65, time=0),
    Message('note_off', channel=9, note=69, velocity=1, time=96),
    Message('note_on', channel=9, note=69, velocity=105, time=0),
    Message('note_off', channel=9, note=69, velocity=1, time=96),
    Message('note_on', channel=9, note=69, velocity=65, time=0),
    Message('note_off', channel=9, note=69, velocity=1, time=96),
    Message('note_on', channel=9, note=69, velocity=105, time=0),
    Message('note_off', channel=9, note=69, velocity=1, time=96),
    Message('note_on', channel=9, note=69, velocity=65, time=0),
    Message('note_off', channel=9, note=69, velocity=1, time=96),
    Message('note_on', channel=9, note=69, velocity=105, time=0),
    Message('note_off', channel=9, note=69, velocity=1, time=96),
    Message('note_on', channel=9, note=69, velocity=65, time=0),
    Message('note_off', channel=9, note=69, velocity=1, time=96),
    Message('note_on', channel=9, note=69, velocity=105, time=0),
    Message('note_off', channel=9, note=69, velocity=1, time=96),
    Message('note_on', channel=9, note=69, velocity=65, time=0),
    Message('note_off', channel=9, note=69, velocity=1, time=96),
    Message('note_on', channel=9, note=69, velocity=105, time=0),
    Message('note_off', channel=9, note=69, velocity=1, time=96),
    Message('note_on', channel=9, note=69, velocity=65, time=0),
    Message('note_off', channel=9, note=69, velocity=1, time=96),
    Message('note_on', channel=9, note=69, velocity=105, time=0),
    Message('note_off', channel=9, note=69, velocity=1, time=96),
    Message('note_on', channel=9, note=69, velocity=65, time=0),
    Message('note_off', channel=9, note=69, velocity=1, time=192),
    Message('note_on', channel=9, note=69, velocity=105, time=1440),
    Message('note_off', channel=9, note=69, velocity=1, time=96),
    Message('note_on', channel=9, note=69, velocity=65, time=0),
    Message('note_off', channel=9, note=69, velocity=1, time=96),
    Message('note_on', channel=9, note=69, velocity=105, time=0),
    Message('note_off', channel=9, note=69, velocity=1, time=96),
    Message('note_on', channel=9, note=69, velocity=65, time=0),
    Message('note_off', channel=9, note=69, velocity=1, time=96),
    Message('note_on', channel=9, note=69, velocity=105, time=0),
    Message('note_off', channel=9, note=69, velocity=1, time=96),
    Message('note_on', channel=9, note=69, velocity=65, time=0),
    Message('note_off', channel=9, note=69, velocity=1, time=96),
    Message('note_on', channel=9, note=69, velocity=105, time=0),
    Message('note_off', channel=9, note=69, velocity=1, time=96),
    Message('note_on', channel=9, note=69, velocity=65, time=0),
    Message('note_off', channel=9, note=69, velocity=1, time=96),
    Message('note_on', channel=9, note=69, velocity=105, time=0),
    Message('note_off', channel=9, note=69, velocity=1, time=96),
    Message('note_on', channel=9, note=69, velocity=65, time=0),
    Message('note_off', channel=9, note=69, velocity=1, time=96),
    Message('note_on', channel=9, note=69, velocity=105, time=0),
    Message('note_off', channel=9, note=69, velocity=1, time=96),
    Message('note_on', channel=9, note=69, velocity=65, time=0),
    Message('note_off', channel=9, note=69, velocity=1, time=96),
    Message('note_on', channel=9, note=69, velocity=105, time=0),
    Message('note_off', channel=9, note=69, velocity=1, time=96),
    Message('note_on', channel=9, note=69, velocity=65, time=0),
    Message('note_off', channel=9, note=69, velocity=1, time=96),
    Message('note_on', channel=9, note=69, velocity=105, time=0),
    Message('note_off', channel=9, note=69, velocity=1, time=96),
    Message('note_on', channel=9, note=69, velocity=65, time=0),
    Message('note_off', channel=9, note=69, velocity=1, time=96),
    Message('note_on', channel=9, note=69, velocity=105, time=0),
    Message('note_off', channel=9, note=69, velocity=1, time=96),
    Message('note_on', channel=9, note=69, velocity=65, time=0),
    Message('note_off', channel=9, note=69, velocity=1, time=96),
    Message('note_on', channel=9, note=69, velocity=105, time=0),
    Message('note_off', channel=9, note=69, velocity=1, time=96),
    Message('note_on', channel=9, note=69, velocity=65, time=0),
    Message('note_off', channel=9, note=69, velocity=1, time=96),
    Message('note_on', channel=9, note=69, velocity=105, time=0),
    Message('note_off', channel=9, note=69, velocity=1, time=96),
    Message('note_on', channel=9, note=69, velocity=65, time=0),
    Message('note_off', channel=9, note=69, velocity=1, time=96),
    Message('note_on', channel=9, note=69, velocity=105, time=0),
    Message('note_off', channel=9, note=69, velocity=1, time=96),
    Message('note_on', channel=9, note=69, velocity=65, time=0),
    Message('note_off', channel=9, note=69, velocity=1, time=192),
    Message('control_change', channel=9, control=7, value=113, time=672),
    Message('note_on', channel=9, note=69, velocity=105, time=768),
    Message('note_off', channel=9, note=69, velocity=1, time=96),
    Message('note_on', channel=9, note=69, velocity=65, time=0),
    Message('note_off', channel=9, note=69, velocity=1, time=96),
    Message('note_on', channel=9, note=69, velocity=105, time=0),
    Message('note_off', channel=9, note=69, velocity=1, time=96),
    Message('note_on', channel=9, note=69, velocity=65, time=0),
    Message('note_off', channel=9, note=69, velocity=1, time=96),
    Message('note_on', channel=9, note=69, velocity=105, time=0),
    Message('note_off', channel=9, note=69, velocity=1, time=96),
    Message('note_on', channel=9, note=69, velocity=65, time=0),
    Message('note_off', channel=9, note=69, velocity=1, time=96),
    Message('note_on', channel=9, note=69, velocity=105, time=0),
    Message('note_off', channel=9, note=69, velocity=1, time=96),
    Message('note_on', channel=9, note=69, velocity=65, time=0),
    Message('note_off', channel=9, note=69, velocity=1, time=192),
    Message('control_change', channel=9, control=7, value=123, time=1440),
    Message('note_on', channel=9, note=69, velocity=105, time=768),
    Message('note_off', channel=9, note=69, velocity=1, time=96),
    Message('note_on', channel=9, note=69, velocity=65, time=0),
    Message('note_off', channel=9, note=69, velocity=1, time=96),
    Message('note_on', channel=9, note=69, velocity=105, time=0),
    Message('note_off', channel=9, note=69, velocity=1, time=96),
    Message('note_on', channel=9, note=69, velocity=65, time=0),
    Message('note_off', channel=9, note=69, velocity=1, time=96),
    Message('note_on', channel=9, note=69, velocity=105, time=0),
    Message('note_off', channel=9, note=69, velocity=1, time=96),
    Message('note_on', channel=9, note=69, velocity=65, time=0),
    Message('note_off', channel=9, note=69, velocity=1, time=96),
    Message('note_on', channel=9, note=69, velocity=105, time=0),
    Message('note_off', channel=9, note=69, velocity=1, time=96),
    Message('note_on', channel=9, note=69, velocity=65, time=0),
    Message('note_off', channel=9, note=69, velocity=1, time=96),
    Message('note_on', channel=9, note=69, velocity=105, time=0),
    Message('note_off', channel=9, note=69, velocity=1, time=96),
    Message('note_on', channel=9, note=69, velocity=65, time=0),
    Message('note_off', channel=9, note=69, velocity=1, time=96),
    Message('note_on', channel=9, note=69, velocity=105, time=0),
    Message('note_off', channel=9, note=69, velocity=1, time=96),
    Message('note_on', channel=9, note=69, velocity=65, time=0),
    Message('note_off', channel=9, note=69, velocity=1, time=96),
    Message('note_on', channel=9, note=69, velocity=105, time=0),
    Message('note_off', channel=9, note=69, velocity=1, time=96),
    Message('note_on', channel=9, note=69, velocity=65, time=0),
    Message('note_off', channel=9, note=69, velocity=1, time=96),
    Message('note_on', channel=9, note=69, velocity=105, time=0),
    Message('note_off', channel=9, note=69, velocity=1, time=96),
    Message('note_on', channel=9, note=69, velocity=65, time=0),
    Message('note_off', channel=9, note=69, velocity=1, time=96),
    Message('note_on', channel=9, note=69, velocity=105, time=0),
    Message('note_off', channel=9, note=69, velocity=1, time=96),
    Message('note_on', channel=9, note=69, velocity=65, time=0),
    Message('note_off', channel=9, note=69, velocity=1, time=96),
    Message('note_on', channel=9, note=69, velocity=105, time=0),
    Message('note_off', channel=9, note=69, velocity=1, time=96),
    Message('note_on', channel=9, note=69, velocity=65, time=0),
    Message('note_off', channel=9, note=69, velocity=1, time=96),
    Message('note_on', channel=9, note=69, velocity=105, time=0),
    Message('note_off', channel=9, note=69, velocity=1, time=96),
    Message('note_on', channel=9, note=69, velocity=65, time=0),
    Message('note_off', channel=9, note=69, velocity=1, time=96),
    Message('note_on', channel=9, note=69, velocity=105, time=0),
    Message('note_off', channel=9, note=69, velocity=1, time=96),
    Message('note_on', channel=9, note=69, velocity=65, time=0),
    Message('note_off', channel=9, note=69, velocity=1, time=96),
    Message('note_on', channel=9, note=69, velocity=105, time=0),
    Message('note_off', channel=9, note=69, velocity=1, time=96),
    Message('note_on', channel=9, note=69, velocity=65, time=0),
    Message('note_off', channel=9, note=69, velocity=1, time=96),
    Message('note_on', channel=9, note=69, velocity=105, time=0),
    Message('note_off', channel=9, note=69, velocity=1, time=96),
    Message('note_on', channel=9, note=69, velocity=65, time=0),
    Message('note_off', channel=9, note=69, velocity=1, time=96),
    Message('note_on', channel=9, note=69, velocity=105, time=0),
    Message('note_off', channel=9, note=69, velocity=1, time=96),
    Message('note_on', channel=9, note=69, velocity=65, time=0),
    Message('note_off', channel=9, note=69, velocity=1, time=96),
    Message('note_on', channel=9, note=69, velocity=105, time=0),
    Message('note_off', channel=9, note=69, velocity=1, time=96),
    Message('note_on', channel=9, note=69, velocity=65, time=0),
    Message('note_off', channel=9, note=69, velocity=1, time=192),
    Message('note_on', channel=9, note=69, velocity=105, time=672),
    Message('note_off', channel=9, note=69, velocity=1, time=96),
    Message('note_on', channel=9, note=69, velocity=65, time=0),
    Message('note_off', channel=9, note=69, velocity=1, time=96),
    Message('note_on', channel=9, note=69, velocity=105, time=0),
    Message('note_off', channel=9, note=69, velocity=1, time=96),
    Message('note_on', channel=9, note=69, velocity=65, time=0),
    Message('note_off', channel=9, note=69, velocity=1, time=96),
    Message('note_on', channel=9, note=69, velocity=105, time=0),
    Message('note_off', channel=9, note=69, velocity=1, time=96),
    Message('note_on', channel=9, note=69, velocity=65, time=0),
    Message('note_off', channel=9, note=69, velocity=1, time=96),
    Message('note_on', channel=9, note=69, velocity=105, time=0),
    Message('note_off', channel=9, note=69, velocity=1, time=96),
    Message('note_on', channel=9, note=69, velocity=65, time=0),
    Message('note_off', channel=9, note=69, velocity=1, time=96),
    Message('note_on', channel=9, note=69, velocity=105, time=0),
    Message('note_off', channel=9, note=69, velocity=1, time=96),
    Message('note_on', channel=9, note=69, velocity=65, time=0),
    Message('note_off', channel=9, note=69, velocity=1, time=96),
    Message('note_on', channel=9, note=69, velocity=105, time=0),
    Message('note_off', channel=9, note=69, velocity=1, time=96),
    Message('note_on', channel=9, note=69, velocity=65, time=0),
    Message('note_off', channel=9, note=69, velocity=1, time=96),
    Message('note_on', channel=9, note=69, velocity=105, time=0),
    Message('note_off', channel=9, note=69, velocity=1, time=96),
    Message('note_on', channel=9, note=69, velocity=65, time=0),
    Message('note_off', channel=9, note=69, velocity=1, time=96),
    Message('note_on', channel=9, note=69, velocity=105, time=0),
    Message('note_off', channel=9, note=69, velocity=1, time=96),
    Message('note_on', channel=9, note=69, velocity=65, time=0),
    Message('note_off', channel=9, note=69, velocity=1, time=96),
    Message('note_on', channel=9, note=69, velocity=105, time=0),
    Message('note_off', channel=9, note=69, velocity=1, time=96),
    Message('note_on', channel=9, note=69, velocity=65, time=0),
    Message('note_off', channel=9, note=69, velocity=1, time=96),
    Message('note_on', channel=9, note=69, velocity=105, time=0),
    Message('note_off', channel=9, note=69, velocity=1, time=96),
    Message('note_on', channel=9, note=69, velocity=65, time=0),
    Message('note_off', channel=9, note=69, velocity=1, time=96),
    Message('note_on', channel=9, note=69, velocity=105, time=0),
    Message('note_off', channel=9, note=69, velocity=1, time=96),
    Message('note_on', channel=9, note=69, velocity=65, time=0),
    Message('note_off', channel=9, note=69, velocity=1, time=96),
    Message('note_on', channel=9, note=69, velocity=105, time=0),
    Message('note_off', channel=9, note=69, velocity=1, time=96),
    Message('note_on', channel=9, note=69, velocity=65, time=0),
    Message('note_off', channel=9, note=69, velocity=1, time=96),
    Message('note_on', channel=9, note=69, velocity=105, time=0),
    Message('note_off', channel=9, note=69, velocity=1, time=96),
    Message('note_on', channel=9, note=69, velocity=65, time=0),
    Message('note_off', channel=9, note=69, velocity=1, time=96),
    Message('note_on', channel=9, note=69, velocity=105, time=0),
    Message('note_off', channel=9, note=69, velocity=1, time=96),
    Message('note_on', channel=9, note=69, velocity=65, time=0),
    Message('note_off', channel=9, note=69, velocity=1, time=96),
    Message('note_on', channel=9, note=69, velocity=105, time=0),
    Message('note_off', channel=9, note=69, velocity=1, time=96),
    Message('note_on', channel=9, note=69, velocity=65, time=0),
    Message('note_off', channel=9, note=69, velocity=1, time=96),
    Message('note_on', channel=9, note=69, velocity=105, time=0),
    Message('note_off', channel=9, note=69, velocity=1, time=96),
    Message('note_on', channel=9, note=69, velocity=65, time=0),
    Message('note_off', channel=9, note=69, velocity=1, time=96),
    Message('note_on', channel=9, note=69, velocity=105, time=0),
    Message('note_off', channel=9, note=69, velocity=1, time=96),
    Message('note_on', channel=9, note=69, velocity=65, time=0),
    Message('note_off', channel=9, note=69, velocity=1, time=96),
    Message('note_on', channel=9, note=69, velocity=105, time=0),
    Message('note_off', channel=9, note=69, velocity=1, time=96),
    Message('note_on', channel=9, note=69, velocity=65, time=0),
    Message('note_off', channel=9, note=69, velocity=1, time=96),
    Message('note_on', channel=9, note=69, velocity=105, time=0),
    Message('note_off', channel=9, note=69, velocity=1, time=96),
    Message('note_on', channel=9, note=69, velocity=65, time=0),
    Message('note_off', channel=9, note=69, velocity=1, time=96),
    Message('note_on', channel=9, note=69, velocity=105, time=0),
    Message('note_off', channel=9, note=69, velocity=1, time=96),
    Message('note_on', channel=9, note=69, velocity=65, time=0),
    Message('note_off', channel=9, note=69, velocity=1, time=96),
    Message('note_on', channel=9, note=69, velocity=105, time=0),
    Message('note_off', channel=9, note=69, velocity=1, time=96),
    Message('note_on', channel=9, note=69, velocity=65, time=0),
    Message('note_off', channel=9, note=69, velocity=1, time=96),
    Message('note_on', channel=9, note=69, velocity=105, time=0),
    Message('note_off', channel=9, note=69, velocity=1, time=96),
    Message('note_on', channel=9, note=69, velocity=65, time=0),
    Message('note_off', channel=9, note=69, velocity=1, time=96),
    Message('note_on', channel=9, note=69, velocity=105, time=0),
    Message('note_off', channel=9, note=69, velocity=1, time=96),
    Message('note_on', channel=9, note=69, velocity=65, time=0),
    Message('note_off', channel=9, note=69, velocity=1, time=96),
    Message('note_on', channel=9, note=69, velocity=105, time=0),
    Message('note_off', channel=9, note=69, velocity=1, time=96),
    Message('note_on', channel=9, note=69, velocity=65, time=0),
    Message('note_off', channel=9, note=69, velocity=1, time=96),
    Message('note_on', channel=9, note=69, velocity=105, time=0),
    Message('note_off', channel=9, note=69, velocity=1, time=96),
    Message('note_on', channel=9, note=69, velocity=65, time=0),
    Message('note_off', channel=9, note=69, velocity=1, time=96),
    Message('note_on', channel=9, note=69, velocity=105, time=0),
    Message('note_off', channel=9, note=69, velocity=1, time=96),
    Message('note_on', channel=9, note=69, velocity=65, time=0),
    Message('note_off', channel=9, note=69, velocity=1, time=96),
    Message('note_on', channel=9, note=69, velocity=105, time=0),
    Message('note_off', channel=9, note=69, velocity=1, time=96),
    Message('note_on', channel=9, note=69, velocity=65, time=0),
    Message('note_off', channel=9, note=69, velocity=1, time=96),
    Message('note_on', channel=9, note=69, velocity=105, time=0),
    Message('note_off', channel=9, note=69, velocity=1, time=96),
    Message('note_on', channel=9, note=69, velocity=65, time=0),
    Message('note_off', channel=9, note=69, velocity=1, time=96),
    Message('note_on', channel=9, note=69, velocity=105, time=0),
    Message('note_off', channel=9, note=69, velocity=1, time=96),
    Message('note_on', channel=9, note=69, velocity=65, time=0),
    Message('note_off', channel=9, note=69, velocity=1, time=96),
    Message('note_on', channel=9, note=69, velocity=105, time=0),
    Message('note_off', channel=9, note=69, velocity=1, time=96),
    Message('note_on', channel=9, note=69, velocity=65, time=0),
    Message('note_off', channel=9, note=69, velocity=1, time=96),
    Message('note_on', channel=9, note=69, velocity=105, time=0),
    Message('note_off', channel=9, note=69, velocity=1, time=96),
    Message('note_on', channel=9, note=69, velocity=65, time=0),
    Message('note_off', channel=9, note=69, velocity=1, time=96),
    Message('note_on', channel=9, note=69, velocity=105, time=0),
    Message('note_off', channel=9, note=69, velocity=1, time=96),
    Message('note_on', channel=9, note=69, velocity=65, time=0),
    Message('note_off', channel=9, note=69, velocity=1, time=96),
    Message('note_on', channel=9, note=69, velocity=105, time=0),
    Message('note_off', channel=9, note=69, velocity=1, time=96),
    Message('note_on', channel=9, note=69, velocity=65, time=0),
    Message('note_off', channel=9, note=69, velocity=1, time=96),
    Message('note_on', channel=9, note=69, velocity=105, time=0),
    Message('note_off', channel=9, note=69, velocity=1, time=96),
    Message('note_on', channel=9, note=69, velocity=65, time=0),
    Message('note_off', channel=9, note=69, velocity=1, time=96),
    Message('note_on', channel=9, note=69, velocity=105, time=0),
    Message('note_off', channel=9, note=69, velocity=1, time=96),
    Message('note_on', channel=9, note=69, velocity=65, time=0),
    Message('note_off', channel=9, note=69, velocity=1, time=96),
    Message('note_on', channel=9, note=69, velocity=105, time=0),
    Message('note_off', channel=9, note=69, velocity=1, time=96),
    Message('note_on', channel=9, note=69, velocity=65, time=0),
    Message('note_off', channel=9, note=69, velocity=1, time=96),
    Message('note_on', channel=9, note=69, velocity=105, time=0),
    Message('note_off', channel=9, note=69, velocity=1, time=96),
    Message('note_on', channel=9, note=69, velocity=65, time=0),
    Message('note_off', channel=9, note=69, velocity=1, time=96),
    Message('note_on', channel=9, note=69, velocity=105, time=0),
    Message('note_off', channel=9, note=69, velocity=1, time=96),
    Message('note_on', channel=9, note=69, velocity=65, time=0),
    Message('note_off', channel=9, note=69, velocity=1, time=96),
    Message('note_on', channel=9, note=69, velocity=105, time=0),
    Message('note_off', channel=9, note=69, velocity=1, time=96),
    Message('note_on', channel=9, note=69, velocity=65, time=0),
    Message('note_off', channel=9, note=69, velocity=1, time=96),
    Message('note_on', channel=9, note=69, velocity=105, time=0),
    Message('note_off', channel=9, note=69, velocity=1, time=96),
    Message('note_on', channel=9, note=69, velocity=65, time=0),
    Message('note_off', channel=9, note=69, velocity=1, time=96),
    Message('note_on', channel=9, note=69, velocity=105, time=0),
    Message('note_off', channel=9, note=69, velocity=1, time=96),
    Message('note_on', channel=9, note=69, velocity=65, time=0),
    Message('note_off', channel=9, note=69, velocity=1, time=96),
    Message('note_on', channel=9, note=69, velocity=105, time=0),
    Message('note_off', channel=9, note=69, velocity=1, time=96),
    Message('note_on', channel=9, note=69, velocity=65, time=0),
    Message('note_off', channel=9, note=69, velocity=1, time=96),
    Message('note_on', channel=9, note=69, velocity=105, time=0),
    Message('note_off', channel=9, note=69, velocity=1, time=96),
    Message('note_on', channel=9, note=69, velocity=65, time=0),
    Message('note_off', channel=9, note=69, velocity=1, time=96),
    Message('note_on', channel=9, note=69, velocity=105, time=0),
    Message('note_off', channel=9, note=69, velocity=1, time=96),
    Message('note_on', channel=9, note=69, velocity=65, time=0),
    Message('note_off', channel=9, note=69, velocity=1, time=96),
    Message('note_on', channel=9, note=69, velocity=105, time=0),
    Message('note_off', channel=9, note=69, velocity=1, time=96),
    Message('note_on', channel=9, note=69, velocity=65, time=0),
    Message('note_off', channel=9, note=69, velocity=1, time=96),
    Message('note_on', channel=9, note=69, velocity=105, time=0),
    Message('note_off', channel=9, note=69, velocity=1, time=96),
    Message('note_on', channel=9, note=69, velocity=65, time=0),
    Message('note_off', channel=9, note=69, velocity=1, time=96),
    Message('note_on', channel=9, note=69, velocity=105, time=0),
    Message('note_off', channel=9, note=69, velocity=1, time=96),
    Message('note_on', channel=9, note=69, velocity=65, time=0),
    Message('note_off', channel=9, note=69, velocity=1, time=96),
    Message('note_on', channel=9, note=69, velocity=105, time=0),
    Message('note_off', channel=9, note=69, velocity=1, time=96),
    Message('note_on', channel=9, note=69, velocity=65, time=0),
    Message('note_off', channel=9, note=69, velocity=1, time=96),
    Message('note_on', channel=9, note=69, velocity=105, time=0),
    Message('note_off', channel=9, note=69, velocity=1, time=96),
    Message('note_on', channel=9, note=69, velocity=65, time=0),
    Message('note_off', channel=9, note=69, velocity=1, time=96),
    Message('note_on', channel=9, note=69, velocity=105, time=0),
    Message('note_off', channel=9, note=69, velocity=1, time=96),
    Message('note_on', channel=9, note=69, velocity=65, time=0),
    Message('note_off', channel=9, note=69, velocity=1, time=96),
    Message('note_on', channel=9, note=69, velocity=105, time=0),
    Message('note_off', channel=9, note=69, velocity=1, time=96),
    Message('note_on', channel=9, note=69, velocity=65, time=0),
    Message('note_off', channel=9, note=69, velocity=1, time=96),
    Message('note_on', channel=9, note=69, velocity=105, time=0),
    Message('note_off', channel=9, note=69, velocity=1, time=96),
    Message('note_on', channel=9, note=69, velocity=65, time=0),
    Message('note_off', channel=9, note=69, velocity=1, time=96),
    Message('note_on', channel=9, note=69, velocity=105, time=0),
    Message('note_off', channel=9, note=69, velocity=1, time=96),
    Message('note_on', channel=9, note=69, velocity=65, time=0),
    Message('note_off', channel=9, note=69, velocity=1, time=96),
    Message('note_on', channel=9, note=69, velocity=105, time=0),
    Message('note_off', channel=9, note=69, velocity=1, time=96),
    Message('note_on', channel=9, note=69, velocity=65, time=0),
    Message('note_off', channel=9, note=69, velocity=1, time=96),
    Message('note_on', channel=9, note=69, velocity=105, time=0),
    Message('note_off', channel=9, note=69, velocity=1, time=96),
    Message('note_on', channel=9, note=69, velocity=65, time=0),
    Message('note_off', channel=9, note=69, velocity=1, time=96),
    Message('note_on', channel=9, note=69, velocity=105, time=0),
    Message('note_off', channel=9, note=69, velocity=1, time=96),
    Message('note_on', channel=9, note=69, velocity=65, time=0),
    Message('note_off', channel=9, note=69, velocity=1, time=96),
    Message('note_on', channel=9, note=69, velocity=105, time=0),
    Message('note_off', channel=9, note=69, velocity=1, time=96),
    Message('note_on', channel=9, note=69, velocity=65, time=0),
    Message('note_off', channel=9, note=69, velocity=1, time=96),
    Message('note_on', channel=9, note=69, velocity=105, time=0),
    Message('note_off', channel=9, note=69, velocity=1, time=96),
    Message('note_on', channel=9, note=69, velocity=65, time=0),
    Message('note_off', channel=9, note=69, velocity=1, time=96),
    Message('note_on', channel=9, note=69, velocity=105, time=0),
    Message('note_off', channel=9, note=69, velocity=1, time=96),
    Message('note_on', channel=9, note=69, velocity=65, time=0),
    Message('note_off', channel=9, note=69, velocity=1, time=96),
    Message('note_on', channel=9, note=69, velocity=105, time=0),
    Message('note_off', channel=9, note=69, velocity=1, time=96),
    Message('note_on', channel=9, note=69, velocity=65, time=0),
    Message('note_off', channel=9, note=69, velocity=1, time=96),
    Message('note_on', channel=9, note=69, velocity=105, time=0),
    Message('note_off', channel=9, note=69, velocity=1, time=96),
    Message('note_on', channel=9, note=69, velocity=65, time=0),
    Message('note_off', channel=9, note=69, velocity=1, time=96),
    Message('note_on', channel=9, note=69, velocity=105, time=0),
    Message('note_off', channel=9, note=69, velocity=1, time=96),
    Message('note_on', channel=9, note=69, velocity=65, time=0),
    Message('note_off', channel=9, note=69, velocity=1, time=96),
    Message('note_on', channel=9, note=69, velocity=105, time=0),
    Message('note_off', channel=9, note=69, velocity=1, time=96),
    Message('note_on', channel=9, note=69, velocity=65, time=0),
    Message('note_off', channel=9, note=69, velocity=1, time=96),
    Message('note_on', channel=9, note=69, velocity=105, time=0),
    Message('note_off', channel=9, note=69, velocity=1, time=96),
    Message('note_on', channel=9, note=69, velocity=65, time=0),
    Message('note_off', channel=9, note=69, velocity=1, time=96),
    Message('note_on', channel=9, note=69, velocity=105, time=0),
    Message('note_off', channel=9, note=69, velocity=1, time=96),
    Message('note_on', channel=9, note=69, velocity=65, time=0),
    Message('note_off', channel=9, note=69, velocity=1, time=96),
    Message('note_on', channel=9, note=69, velocity=105, time=0),
    Message('note_off', channel=9, note=69, velocity=1, time=96),
    Message('note_on', channel=9, note=69, velocity=65, time=0),
    Message('note_off', channel=9, note=69, velocity=1, time=96),
    Message('note_on', channel=9, note=69, velocity=105, time=0),
    Message('note_off', channel=9, note=69, velocity=1, time=96),
    Message('note_on', channel=9, note=69, velocity=65, time=0),
    Message('note_off', channel=9, note=69, velocity=1, time=96),
    Message('note_on', channel=9, note=69, velocity=105, time=0),
    Message('note_off', channel=9, note=69, velocity=1, time=96),
    Message('note_on', channel=9, note=69, velocity=65, time=0),
    Message('note_off', channel=9, note=69, velocity=1, time=96),
    Message('note_on', channel=9, note=69, velocity=105, time=0),
    Message('note_off', channel=9, note=69, velocity=1, time=96),
    Message('note_on', channel=9, note=69, velocity=65, time=0),
    Message('note_off', channel=9, note=69, velocity=1, time=96),
    Message('note_on', channel=9, note=69, velocity=105, time=0),
    Message('note_off', channel=9, note=69, velocity=1, time=96),
    Message('note_on', channel=9, note=69, velocity=65, time=0),
    Message('note_off', channel=9, note=69, velocity=1, time=96),
    Message('note_on', channel=9, note=69, velocity=105, time=0),
    Message('note_off', channel=9, note=69, velocity=1, time=96),
    Message('note_on', channel=9, note=69, velocity=65, time=0),
    Message('note_off', channel=9, note=69, velocity=1, time=96),
    Message('note_on', channel=9, note=69, velocity=105, time=0),
    Message('note_off', channel=9, note=69, velocity=1, time=96),
    Message('note_on', channel=9, note=69, velocity=65, time=0),
    Message('note_off', channel=9, note=69, velocity=1, time=96),
    Message('note_on', channel=9, note=69, velocity=105, time=0),
    Message('note_off', channel=9, note=69, velocity=1, time=96),
    Message('note_on', channel=9, note=69, velocity=65, time=0),
    Message('note_off', channel=9, note=69, velocity=1, time=96),
    Message('note_on', channel=9, note=69, velocity=105, time=0),
    Message('note_off', channel=9, note=69, velocity=1, time=96),
    Message('note_on', channel=9, note=69, velocity=65, time=0),
    Message('note_off', channel=9, note=69, velocity=1, time=96),
    Message('note_on', channel=9, note=69, velocity=105, time=0),
    Message('note_off', channel=9, note=69, velocity=1, time=96),
    Message('note_on', channel=9, note=69, velocity=65, time=0),
    Message('note_off', channel=9, note=69, velocity=1, time=96),
    Message('note_on', channel=9, note=69, velocity=105, time=0),
    Message('note_off', channel=9, note=69, velocity=1, time=96),
    Message('note_on', channel=9, note=69, velocity=65, time=0),
    Message('note_off', channel=9, note=69, velocity=1, time=96),
    Message('note_on', channel=9, note=69, velocity=105, time=0),
    Message('note_off', channel=9, note=69, velocity=1, time=96),
    Message('note_on', channel=9, note=69, velocity=65, time=0),
    Message('note_off', channel=9, note=69, velocity=1, time=96),
    Message('note_on', channel=9, note=69, velocity=105, time=0),
    Message('note_off', channel=9, note=69, velocity=1, time=96),
    Message('note_on', channel=9, note=69, velocity=65, time=0),
    Message('note_off', channel=9, note=69, velocity=1, time=96),
    Message('note_on', channel=9, note=69, velocity=105, time=0),
    Message('note_off', channel=9, note=69, velocity=1, time=96),
    Message('note_on', channel=9, note=69, velocity=65, time=0),
    Message('note_off', channel=9, note=69, velocity=1, time=96),
    Message('note_on', channel=9, note=69, velocity=105, time=0),
    Message('note_off', channel=9, note=69, velocity=1, time=96),
    Message('note_on', channel=9, note=69, velocity=65, time=0),
    Message('note_off', channel=9, note=69, velocity=1, time=96),
    Message('note_on', channel=9, note=69, velocity=105, time=0),
    Message('note_off', channel=9, note=69, velocity=1, time=96),
    Message('note_on', channel=9, note=69, velocity=65, time=0),
    Message('note_off', channel=9, note=69, velocity=1, time=96),
    Message('note_on', channel=9, note=69, velocity=105, time=0),
    Message('note_off', channel=9, note=69, velocity=1, time=96),
    Message('note_on', channel=9, note=69, velocity=65, time=0),
    Message('note_off', channel=9, note=69, velocity=1, time=96),
    Message('note_on', channel=9, note=69, velocity=105, time=0),
    Message('note_off', channel=9, note=69, velocity=1, time=96),
    Message('note_on', channel=9, note=69, velocity=65, time=0),
    Message('note_off', channel=9, note=69, velocity=1, time=96),
    Message('note_on', channel=9, note=69, velocity=105, time=0),
    Message('note_off', channel=9, note=69, velocity=1, time=96),
    Message('note_on', channel=9, note=69, velocity=65, time=0),
    Message('note_off', channel=9, note=69, velocity=1, time=96),
    Message('note_on', channel=9, note=69, velocity=105, time=0),
    Message('note_off', channel=9, note=69, velocity=1, time=96),
    Message('note_on', channel=9, note=69, velocity=65, time=0),
    Message('note_off', channel=9, note=69, velocity=1, time=96),
    Message('note_on', channel=9, note=69, velocity=105, time=0),
    Message('note_off', channel=9, note=69, velocity=1, time=96),
    Message('note_on', channel=9, note=69, velocity=65, time=0),
    Message('note_off', channel=9, note=69, velocity=1, time=96),
    Message('note_on', channel=9, note=69, velocity=105, time=0),
    Message('note_off', channel=9, note=69, velocity=1, time=96),
    Message('note_on', channel=9, note=69, velocity=65, time=0),
    Message('note_off', channel=9, note=69, velocity=1, time=96),
    Message('note_on', channel=9, note=69, velocity=105, time=0),
    Message('note_off', channel=9, note=69, velocity=1, time=96),
    Message('note_on', channel=9, note=69, velocity=65, time=0),
    Message('note_off', channel=9, note=69, velocity=1, time=96),
    Message('note_on', channel=9, note=69, velocity=105, time=0),
    Message('note_off', channel=9, note=69, velocity=1, time=96),
    Message('note_on', channel=9, note=69, velocity=65, time=0),
    Message('note_off', channel=9, note=69, velocity=1, time=96),
    Message('note_on', channel=9, note=69, velocity=105, time=0),
    Message('note_off', channel=9, note=69, velocity=1, time=96),
    Message('note_on', channel=9, note=69, velocity=65, time=0),
    Message('note_off', channel=9, note=69, velocity=1, time=96),
    Message('note_on', channel=9, note=69, velocity=105, time=0),
    Message('note_off', channel=9, note=69, velocity=1, time=96),
    Message('note_on', channel=9, note=69, velocity=65, time=0),
    Message('note_off', channel=9, note=69, velocity=1, time=96),
    Message('note_on', channel=9, note=69, velocity=105, time=0),
    Message('note_off', channel=9, note=69, velocity=1, time=96),
    Message('note_on', channel=9, note=69, velocity=65, time=0),
    Message('note_off', channel=9, note=69, velocity=1, time=96),
    Message('control_change', channel=9, control=7, value=120, time=768),
    Message('note_on', channel=9, note=69, velocity=100, time=3072),
    Message('note_off', channel=9, note=69, velocity=1, time=96),
    Message('note_on', channel=9, note=69, velocity=60, time=0),
    Message('note_off', channel=9, note=69, velocity=1, time=96),
    Message('note_on', channel=9, note=69, velocity=100, time=0),
    Message('note_off', channel=9, note=69, velocity=1, time=96),
    Message('note_on', channel=9, note=69, velocity=60, time=0),
    Message('note_off', channel=9, note=69, velocity=1, time=96),
    Message('note_on', channel=9, note=69, velocity=100, time=0),
    Message('note_off', channel=9, note=69, velocity=1, time=96),
    Message('note_on', channel=9, note=69, velocity=60, time=0),
    Message('note_off', channel=9, note=69, velocity=1, time=96),
    Message('note_on', channel=9, note=69, velocity=100, time=0),
    Message('note_off', channel=9, note=69, velocity=1, time=96),
    Message('note_on', channel=9, note=69, velocity=60, time=0),
    Message('note_off', channel=9, note=69, velocity=1, time=96),
    Message('note_on', channel=9, note=69, velocity=100, time=0),
    Message('note_off', channel=9, note=69, velocity=1, time=96),
    Message('note_on', channel=9, note=69, velocity=60, time=0),
    Message('note_off', channel=9, note=69, velocity=1, time=96),
    Message('note_on', channel=9, note=69, velocity=100, time=0),
    Message('note_off', channel=9, note=69, velocity=1, time=96),
    Message('note_on', channel=9, note=69, velocity=60, time=0),
    Message('note_off', channel=9, note=69, velocity=1, time=96),
    Message('note_on', channel=9, note=69, velocity=100, time=0),
    Message('note_off', channel=9, note=69, velocity=1, time=96),
    Message('note_on', channel=9, note=69, velocity=60, time=0),
    Message('note_off', channel=9, note=69, velocity=1, time=96),
    Message('note_on', channel=9, note=69, velocity=100, time=0),
    Message('note_off', channel=9, note=69, velocity=1, time=96),
    Message('note_on', channel=9, note=69, velocity=60, time=0),
    Message('note_off', channel=9, note=69, velocity=1, time=192),
    Message('note_on', channel=9, note=69, velocity=100, time=1440),
    Message('note_off', channel=9, note=69, velocity=1, time=96),
    Message('note_on', channel=9, note=69, velocity=60, time=0),
    Message('note_off', channel=9, note=69, velocity=1, time=96),
    Message('note_on', channel=9, note=69, velocity=100, time=0),
    Message('note_off', channel=9, note=69, velocity=1, time=96),
    Message('note_on', channel=9, note=69, velocity=60, time=0),
    Message('note_off', channel=9, note=69, velocity=1, time=96),
    Message('note_on', channel=9, note=69, velocity=100, time=0),
    Message('note_off', channel=9, note=69, velocity=1, time=96),
    Message('note_on', channel=9, note=69, velocity=60, time=0),
    Message('note_off', channel=9, note=69, velocity=1, time=96),
    Message('note_on', channel=9, note=69, velocity=100, time=0),
    Message('note_off', channel=9, note=69, velocity=1, time=96),
    Message('note_on', channel=9, note=69, velocity=60, time=0),
    Message('note_off', channel=9, note=69, velocity=1, time=96),
    Message('note_on', channel=9, note=69, velocity=100, time=0),
    Message('note_off', channel=9, note=69, velocity=1, time=96),
    Message('note_on', channel=9, note=69, velocity=60, time=0),
    Message('note_off', channel=9, note=69, velocity=1, time=96),
    Message('note_on', channel=9, note=69, velocity=100, time=0),
    Message('note_off', channel=9, note=69, velocity=1, time=96),
    Message('note_on', channel=9, note=69, velocity=60, time=0),
    Message('note_off', channel=9, note=69, velocity=1, time=96),
    Message('note_on', channel=9, note=69, velocity=100, time=0),
    Message('note_off', channel=9, note=69, velocity=1, time=96),
    Message('note_on', channel=9, note=69, velocity=60, time=0),
    Message('note_off', channel=9, note=69, velocity=1, time=96),
    Message('note_on', channel=9, note=69, velocity=100, time=0),
    Message('note_off', channel=9, note=69, velocity=1, time=96),
    Message('note_on', channel=9, note=69, velocity=60, time=0),
    Message('note_off', channel=9, note=69, velocity=1, time=192),
    Message('note_on', channel=9, note=69, velocity=100, time=672),
    Message('note_off', channel=9, note=69, velocity=1, time=96),
    Message('note_on', channel=9, note=69, velocity=60, time=0),
    Message('note_off', channel=9, note=69, velocity=1, time=96),
    Message('note_on', channel=9, note=69, velocity=100, time=0),
    Message('note_off', channel=9, note=69, velocity=1, time=96),
    Message('note_on', channel=9, note=69, velocity=60, time=0),
    Message('note_off', channel=9, note=69, velocity=1, time=96),
    Message('note_on', channel=9, note=69, velocity=100, time=0),
    Message('note_off', channel=9, note=69, velocity=1, time=96),
    Message('note_on', channel=9, note=69, velocity=60, time=0),
    Message('note_off', channel=9, note=69, velocity=1, time=96),
    Message('note_on', channel=9, note=69, velocity=100, time=0),
    Message('note_off', channel=9, note=69, velocity=1, time=96),
    Message('note_on', channel=9, note=69, velocity=60, time=0),
    Message('note_off', channel=9, note=69, velocity=1, time=96),
    Message('note_on', channel=9, note=69, velocity=100, time=0),
    Message('note_off', channel=9, note=69, velocity=1, time=96),
    Message('note_on', channel=9, note=69, velocity=60, time=0),
    Message('note_off', channel=9, note=69, velocity=1, time=96),
    Message('note_on', channel=9, note=69, velocity=100, time=0),
    Message('note_off', channel=9, note=69, velocity=1, time=96),
    Message('note_on', channel=9, note=69, velocity=60, time=0),
    Message('note_off', channel=9, note=69, velocity=1, time=96),
    Message('note_on', channel=9, note=69, velocity=100, time=0),
    Message('note_off', channel=9, note=69, velocity=1, time=96),
    Message('note_on', channel=9, note=69, velocity=60, time=0),
    Message('note_off', channel=9, note=69, velocity=1, time=96),
    Message('note_on', channel=9, note=69, velocity=100, time=0),
    Message('note_off', channel=9, note=69, velocity=1, time=96),
    Message('note_on', channel=9, note=69, velocity=60, time=0),
    Message('note_off', channel=9, note=69, velocity=1, time=96),
    Message('note_on', channel=9, note=69, velocity=100, time=0),
    Message('note_off', channel=9, note=69, velocity=1, time=96),
    Message('note_on', channel=9, note=69, velocity=60, time=0),
    Message('note_off', channel=9, note=69, velocity=1, time=96),
    Message('note_on', channel=9, note=69, velocity=100, time=0),
    Message('note_off', channel=9, note=69, velocity=1, time=96),
    Message('note_on', channel=9, note=69, velocity=60, time=0),
    Message('note_off', channel=9, note=69, velocity=1, time=96),
    Message('note_on', channel=9, note=69, velocity=100, time=0),
    Message('note_off', channel=9, note=69, velocity=1, time=96),
    Message('note_on', channel=9, note=69, velocity=60, time=0),
    Message('note_off', channel=9, note=69, velocity=1, time=96),
    Message('note_on', channel=9, note=69, velocity=100, time=0),
    Message('note_off', channel=9, note=69, velocity=1, time=96),
    Message('note_on', channel=9, note=69, velocity=60, time=0),
    Message('note_off', channel=9, note=69, velocity=1, time=96),
    Message('note_on', channel=9, note=69, velocity=100, time=0),
    Message('note_off', channel=9, note=69, velocity=1, time=96),
    Message('note_on', channel=9, note=69, velocity=60, time=0),
    Message('note_off', channel=9, note=69, velocity=1, time=96),
    Message('note_on', channel=9, note=69, velocity=100, time=0),
    Message('note_off', channel=9, note=69, velocity=1, time=96),
    Message('note_on', channel=9, note=69, velocity=60, time=0),
    Message('note_off', channel=9, note=69, velocity=1, time=96),
    Message('note_on', channel=9, note=69, velocity=100, time=0),
    Message('note_off', channel=9, note=69, velocity=1, time=96),
    Message('note_on', channel=9, note=69, velocity=60, time=0),
    Message('note_off', channel=9, note=69, velocity=1, time=96),
    Message('note_on', channel=9, note=69, velocity=100, time=0),
    Message('note_off', channel=9, note=69, velocity=1, time=96),
    Message('note_on', channel=9, note=69, velocity=60, time=0),
    Message('note_off', channel=9, note=69, velocity=1, time=96),
    Message('note_on', channel=9, note=69, velocity=100, time=0),
    Message('note_off', channel=9, note=69, velocity=1, time=96),
    Message('note_on', channel=9, note=69, velocity=60, time=0),
    Message('note_off', channel=9, note=69, velocity=1, time=96),
    Message('note_on', channel=9, note=69, velocity=100, time=0),
    Message('note_off', channel=9, note=69, velocity=1, time=96),
    Message('note_on', channel=9, note=69, velocity=60, time=0),
    Message('note_off', channel=9, note=69, velocity=1, time=96),
    Message('note_on', channel=9, note=69, velocity=100, time=0),
    Message('note_off', channel=9, note=69, velocity=1, time=96),
    Message('note_on', channel=9, note=69, velocity=60, time=0),
    Message('note_off', channel=9, note=69, velocity=1, time=96),
    Message('note_on', channel=9, note=69, velocity=100, time=0),
    Message('note_off', channel=9, note=69, velocity=1, time=96),
    Message('note_on', channel=9, note=69, velocity=60, time=0),
    Message('note_off', channel=9, note=69, velocity=1, time=96),
    Message('note_on', channel=9, note=69, velocity=100, time=0),
    Message('note_off', channel=9, note=69, velocity=1, time=96),
    Message('note_on', channel=9, note=69, velocity=60, time=0),
    Message('note_off', channel=9, note=69, velocity=1, time=96),
    Message('note_on', channel=9, note=69, velocity=100, time=0),
    Message('note_off', channel=9, note=69, velocity=1, time=96),
    Message('note_on', channel=9, note=69, velocity=60, time=0),
    Message('note_off', channel=9, note=69, velocity=1, time=96),
    Message('note_on', channel=9, note=69, velocity=100, time=0),
    Message('note_off', channel=9, note=69, velocity=1, time=96),
    Message('note_on', channel=9, note=69, velocity=60, time=0),
    Message('note_off', channel=9, note=69, velocity=1, time=96),
    Message('note_on', channel=9, note=69, velocity=100, time=0),
    Message('note_off', channel=9, note=69, velocity=1, time=96),
    Message('note_on', channel=9, note=69, velocity=60, time=0),
    Message('note_off', channel=9, note=69, velocity=1, time=96),
    Message('note_on', channel=9, note=69, velocity=100, time=0),
    Message('note_off', channel=9, note=69, velocity=1, time=96),
    Message('note_on', channel=9, note=69, velocity=60, time=0),
    Message('note_off', channel=9, note=69, velocity=1, time=96),
    Message('note_on', channel=9, note=69, velocity=100, time=0),
    Message('note_off', channel=9, note=69, velocity=1, time=96),
    Message('note_on', channel=9, note=69, velocity=60, time=0),
    Message('note_off', channel=9, note=69, velocity=1, time=96),
    Message('note_on', channel=9, note=69, velocity=100, time=0),
    Message('note_off', channel=9, note=69, velocity=1, time=96),
    Message('note_on', channel=9, note=69, velocity=60, time=0),
    Message('note_off', channel=9, note=69, velocity=1, time=96),
    Message('note_on', channel=9, note=69, velocity=100, time=0),
    Message('note_off', channel=9, note=69, velocity=1, time=96),
    Message('note_on', channel=9, note=69, velocity=60, time=0),
    Message('note_off', channel=9, note=69, velocity=1, time=192),
    Message('control_change', channel=9, control=7, value=119, time=1440),
    Message('note_on', channel=9, note=69, velocity=100, time=0),
    Message('control_change', channel=9, control=7, value=118, time=48),
    Message('note_off', channel=9, note=69, velocity=1, time=48),
    Message('control_change', channel=9, control=7, value=117, time=0),
    Message('note_on', channel=9, note=69, velocity=60, time=0),
    Message('control_change', channel=9, control=7, value=116, time=48),
    Message('control_change', channel=9, control=7, value=115, time=24),
    Message('note_off', channel=9, note=69, velocity=1, time=24),
    Message('note_on', channel=9, note=69, velocity=100, time=0),
    Message('control_change', channel=9, control=7, value=114, time=24),
    Message('control_change', channel=9, control=7, value=113, time=48),
    Message('note_off', channel=9, note=69, velocity=1, time=24),
    Message('control_change', channel=9, control=7, value=112, time=0),
    Message('note_on', channel=9, note=69, velocity=60, time=0),
    Message('control_change', channel=9, control=7, value=111, time=48),
    Message('note_off', channel=9, note=69, velocity=1, time=48),
    Message('control_change', channel=9, control=7, value=110, time=0),
    Message('note_on', channel=9, note=69, velocity=100, time=0),
    Message('control_change', channel=9, control=7, value=109, time=24),
    Message('control_change', channel=9, control=7, value=108, time=48),
    Message('note_off', channel=9, note=69, velocity=1, time=24),
    Message('note_on', channel=9, note=69, velocity=60, time=0),
    Message('control_change', channel=9, control=7, value=107, time=24),
    Message('control_change', channel=9, control=7, value=106, time=24),
    Message('note_off', channel=9, note=69, velocity=1, time=48),
    Message('control_change', channel=9, control=7, value=105, time=0),
    Message('note_on', channel=9, note=69, velocity=100, time=0),
    Message('control_change', channel=9, control=7, value=104, time=48),
    Message('control_change', channel=9, control=7, value=103, time=24),
    Message('note_off', channel=9, note=69, velocity=1, time=24),
    Message('note_on', channel=9, note=69, velocity=60, time=0),
    Message('control_change', channel=9, control=7, value=102, time=24),
    Message('control_change', channel=9, control=7, value=101, time=48),
    Message('note_off', channel=9, note=69, velocity=1, time=24),
    Message('control_change', channel=9, control=7, value=100, time=0),
    Message('note_on', channel=9, note=69, velocity=100, time=0),
    Message('control_change', channel=9, control=7, value=99, time=48),
    Message('note_off', channel=9, note=69, velocity=1, time=48),
    Message('control_change', channel=9, control=7, value=98, time=0),
    Message('note_on', channel=9, note=69, velocity=60, time=0),
    Message('control_change', channel=9, control=7, value=97, time=48),
    Message('control_change', channel=9, control=7, value=96, time=24),
    Message('note_off', channel=9, note=69, velocity=1, time=24),
    Message('note_on', channel=9, note=69, velocity=100, time=0),
    Message('control_change', channel=9, control=7, value=95, time=24),
    Message('control_change', channel=9, control=7, value=94, time=48),
    Message('note_off', channel=9, note=69, velocity=1, time=24),
    Message('control_change', channel=9, control=7, value=93, time=0),
    Message('note_on', channel=9, note=69, velocity=60, time=0),
    Message('control_change', channel=9, control=7, value=92, time=48),
    Message('note_off', channel=9, note=69, velocity=1, time=48),
    Message('control_change', channel=9, control=7, value=91, time=0),
    Message('note_on', channel=9, note=69, velocity=100, time=0),
    Message('control_change', channel=9, control=7, value=90, time=24),
    Message('control_change', channel=9, control=7, value=89, time=48),
    Message('note_off', channel=9, note=69, velocity=1, time=24),
    Message('note_on', channel=9, note=69, velocity=60, time=0),
    Message('control_change', channel=9, control=7, value=88, time=24),
    Message('control_change', channel=9, control=7, value=87, time=24),
    Message('note_off', channel=9, note=69, velocity=1, time=48),
    Message('control_change', channel=9, control=7, value=86, time=0),
    Message('note_on', channel=9, note=69, velocity=100, time=0),
    Message('control_change', channel=9, control=7, value=85, time=48),
    Message('control_change', channel=9, control=7, value=84, time=24),
    Message('note_off', channel=9, note=69, velocity=1, time=24),
    Message('note_on', channel=9, note=69, velocity=60, time=0),
    Message('control_change', channel=9, control=7, value=83, time=24),
    Message('control_change', channel=9, control=7, value=82, time=48),
    Message('note_off', channel=9, note=69, velocity=1, time=24),
    Message('control_change', channel=9, control=7, value=81, time=0),
    Message('note_on', channel=9, note=69, velocity=100, time=0),
    Message('control_change', channel=9, control=7, value=80, time=48),
    Message('note_off', channel=9, note=69, velocity=1, time=48),
    Message('control_change', channel=9, control=7, value=79, time=0),
    Message('note_on', channel=9, note=69, velocity=60, time=0),
    Message('control_change', channel=9, control=7, value=78, time=48),
    Message('control_change', channel=9, control=7, value=77, time=24),
    Message('note_off', channel=9, note=69, velocity=1, time=24),
    Message('note_on', channel=9, note=69, velocity=100, time=0),
    Message('control_change', channel=9, control=7, value=76, time=24),
    Message('control_change', channel=9, control=7, value=75, time=48),
    Message('note_off', channel=9, note=69, velocity=1, time=24),
    Message('control_change', channel=9, control=7, value=74, time=0),
    Message('note_on', channel=9, note=69, velocity=60, time=0),
    Message('control_change', channel=9, control=7, value=73, time=48),
    Message('note_off', channel=9, note=69, velocity=1, time=48),
    Message('control_change', channel=9, control=7, value=72, time=0),
    Message('note_on', channel=9, note=69, velocity=100, time=0),
    Message('control_change', channel=9, control=7, value=71, time=24),
    Message('control_change', channel=9, control=7, value=70, time=48),
    Message('note_off', channel=9, note=69, velocity=1, time=24),
    Message('note_on', channel=9, note=69, velocity=60, time=0),
    Message('control_change', channel=9, control=7, value=69, time=24),
    Message('control_change', channel=9, control=7, value=68, time=24),
    Message('note_off', channel=9, note=69, velocity=1, time=48),
    Message('control_change', channel=9, control=7, value=67, time=0),
    Message('note_on', channel=9, note=69, velocity=100, time=0),
    Message('control_change', channel=9, control=7, value=66, time=48),
    Message('control_change', channel=9, control=7, value=65, time=24),
    Message('note_off', channel=9, note=69, velocity=1, time=24),
    Message('note_on', channel=9, note=69, velocity=60, time=0),
    Message('control_change', channel=9, control=7, value=64, time=24),
    Message('control_change', channel=9, control=7, value=63, time=48),
    Message('note_off', channel=9, note=69, velocity=1, time=24),
    Message('control_change', channel=9, control=7, value=62, time=0),
    Message('note_on', channel=9, note=69, velocity=100, time=0),
    Message('control_change', channel=9, control=7, value=61, time=48),
    Message('note_off', channel=9, note=69, velocity=1, time=48),
    Message('control_change', channel=9, control=7, value=60, time=0),
    Message('note_on', channel=9, note=69, velocity=60, time=0),
    Message('control_change', channel=9, control=7, value=59, time=48),
    Message('control_change', channel=9, control=7, value=58, time=24),
    Message('note_off', channel=9, note=69, velocity=1, time=24),
    Message('note_on', channel=9, note=69, velocity=100, time=0),
    Message('control_change', channel=9, control=7, value=57, time=24),
    Message('control_change', channel=9, control=7, value=56, time=48),
    Message('note_off', channel=9, note=69, velocity=1, time=24),
    Message('control_change', channel=9, control=7, value=55, time=0),
    Message('note_on', channel=9, note=69, velocity=60, time=0),
    Message('control_change', channel=9, control=7, value=54, time=48),
    Message('note_off', channel=9, note=69, velocity=1, time=48),
    Message('control_change', channel=9, control=7, value=53, time=0),
    Message('note_on', channel=9, note=69, velocity=100, time=0),
    Message('control_change', channel=9, control=7, value=52, time=24),
    Message('control_change', channel=9, control=7, value=51, time=48),
    Message('note_off', channel=9, note=69, velocity=1, time=24),
    Message('note_on', channel=9, note=69, velocity=60, time=0),
    Message('control_change', channel=9, control=7, value=50, time=24),
    Message('control_change', channel=9, control=7, value=49, time=24),
    Message('note_off', channel=9, note=69, velocity=1, time=48),
    Message('control_change', channel=9, control=7, value=48, time=0),
    Message('note_on', channel=9, note=69, velocity=100, time=0),
    Message('control_change', channel=9, control=7, value=47, time=48),
    Message('control_change', channel=9, control=7, value=46, time=24),
    Message('note_off', channel=9, note=69, velocity=1, time=24),
    Message('note_on', channel=9, note=69, velocity=60, time=0),
    Message('control_change', channel=9, control=7, value=45, time=24),
    Message('control_change', channel=9, control=7, value=44, time=48),
    Message('note_off', channel=9, note=69, velocity=1, time=24),
    Message('control_change', channel=9, control=7, value=43, time=0),
    Message('note_on', channel=9, note=69, velocity=100, time=0),
    Message('control_change', channel=9, control=7, value=42, time=48),
    Message('note_off', channel=9, note=69, velocity=1, time=48),
    Message('control_change', channel=9, control=7, value=41, time=0),
    Message('note_on', channel=9, note=69, velocity=60, time=0),
    Message('control_change', channel=9, control=7, value=40, time=48),
    Message('control_change', channel=9, control=7, value=39, time=24),
    Message('note_off', channel=9, note=69, velocity=1, time=24),
    Message('note_on', channel=9, note=69, velocity=100, time=0),
    Message('control_change', channel=9, control=7, value=38, time=24),
    Message('control_change', channel=9, control=7, value=37, time=48),
    Message('note_off', channel=9, note=69, velocity=1, time=24),
    Message('control_change', channel=9, control=7, value=36, time=0),
    Message('note_on', channel=9, note=69, velocity=60, time=0),
    Message('control_change', channel=9, control=7, value=35, time=48),
    Message('note_off', channel=9, note=69, velocity=1, time=48),
    Message('control_change', channel=9, control=7, value=34, time=0),
    Message('note_on', channel=9, note=69, velocity=100, time=0),
    Message('control_change', channel=9, control=7, value=33, time=24),
    Message('control_change', channel=9, control=7, value=32, time=48),
    Message('note_off', channel=9, note=69, velocity=1, time=24),
    Message('note_on', channel=9, note=69, velocity=60, time=0),
    Message('control_change', channel=9, control=7, value=31, time=24),
    Message('control_change', channel=9, control=7, value=30, time=24),
    Message('note_off', channel=9, note=69, velocity=1, time=48),
    Message('control_change', channel=9, control=7, value=29, time=0),
    Message('note_on', channel=9, note=69, velocity=100, time=0),
    Message('control_change', channel=9, control=7, value=28, time=48),
    Message('control_change', channel=9, control=7, value=27, time=24),
    Message('note_off', channel=9, note=69, velocity=1, time=24),
    Message('note_on', channel=9, note=69, velocity=60, time=0),
    Message('control_change', channel=9, control=7, value=26, time=24),
    Message('control_change', channel=9, control=7, value=25, time=48),
    Message('note_off', channel=9, note=69, velocity=1, time=24),
    Message('control_change', channel=9, control=7, value=19, time=0),
    Message('note_on', channel=9, note=69, velocity=100, time=0),
    Message('note_off', channel=9, note=69, velocity=1, time=96),
    Message('control_change', channel=9, control=7, value=18, time=0),
    Message('note_on', channel=9, note=69, velocity=60, time=0),
    Message('control_change', channel=9, control=7, value=17, time=72),
    Message('note_off', channel=9, note=69, velocity=1, time=24),
    Message('note_on', channel=9, note=69, velocity=100, time=0),
    Message('control_change', channel=9, control=7, value=16, time=48),
    Message('note_off', channel=9, note=69, velocity=1, time=48),
    Message('note_on', channel=9, note=69, velocity=60, time=0),
    Message('control_change', channel=9, control=7, value=15, time=24),
    Message('note_off', channel=9, note=69, velocity=1, time=72),
    Message('control_change', channel=9, control=7, value=14, time=0),
    Message('note_on', channel=9, note=69, velocity=100, time=0),
    Message('note_off', channel=9, note=69, velocity=1, time=96),
    Message('control_change', channel=9, control=7, value=13, time=0),
    Message('note_on', channel=9, note=69, velocity=60, time=0),
    Message('control_change', channel=9, control=7, value=12, time=72),
    Message('note_off', channel=9, note=69, velocity=1, time=24),
    Message('note_on', channel=9, note=69, velocity=100, time=0),
    Message('control_change', channel=9, control=7, value=11, time=48),
    Message('note_off', channel=9, note=69, velocity=1, time=48),
    Message('note_on', channel=9, note=69, velocity=60, time=0),
    Message('control_change', channel=9, control=7, value=10, time=24),
    Message('note_off', channel=9, note=69, velocity=1, time=72),
    Message('control_change', channel=9, control=7, value=9, time=0),
    Message('note_on', channel=9, note=69, velocity=100, time=0),
    Message('note_off', channel=9, note=69, velocity=1, time=96),
    Message('control_change', channel=9, control=7, value=8, time=0),
    Message('note_on', channel=9, note=69, velocity=60, time=0),
    Message('control_change', channel=9, control=7, value=7, time=72),
    Message('note_off', channel=9, note=69, velocity=1, time=24),
    Message('note_on', channel=9, note=69, velocity=100, time=0),
    Message('control_change', channel=9, control=7, value=6, time=48),
    Message('note_off', channel=9, note=69, velocity=1, time=48),
    Message('note_on', channel=9, note=69, velocity=60, time=0),
    Message('control_change', channel=9, control=7, value=5, time=24),
    Message('note_off', channel=9, note=69, velocity=1, time=72),
    Message('control_change', channel=9, control=7, value=4, time=0),
    Message('note_on', channel=9, note=69, velocity=100, time=0),
    Message('note_off', channel=9, note=69, velocity=1, time=96),
    Message('control_change', channel=9, control=7, value=3, time=0),
    Message('note_on', channel=9, note=69, velocity=60, time=0),
    Message('control_change', channel=9, control=7, value=2, time=72),
    Message('note_off', channel=9, note=69, velocity=1, time=24),
    Message('note_on', channel=9, note=69, velocity=100, time=0),
    Message('control_change', channel=9, control=7, value=1, time=48),
    Message('note_off', channel=9, note=69, velocity=1, time=48),
    Message('note_on', channel=9, note=69, velocity=60, time=0),
    Message('control_change', channel=9, control=7, value=0, time=24),
    Message('note_off', channel=9, note=69, velocity=1, time=72),
    Message('pitchwheel', channel=9, pitch=0, time=768),
    Message('polytouch', channel=9, note=64, value=0, time=0),
    Message('aftertouch', channel=9, value=0, time=0),
    Message('control_change', channel=9, control=1, value=0, time=0),
    Message('control_change', channel=9, control=2, value=0, time=0),
    Message('control_change', channel=9, control=4, value=0, time=0),
    Message('control_change', channel=9, control=7, value=100, time=0),
    Message('control_change', channel=9, control=8, value=0, time=0),
    Message('control_change', channel=9, control=10, value=63, time=0),
    Message('control_change', channel=9, control=64, value=0, time=0),
    Message('control_change', channel=9, control=65, value=0, time=0),
    Message('control_change', channel=9, control=66, value=0, time=0),
    Message('control_change', channel=9, control=67, value=0, time=0),
    Message('control_change', channel=9, control=68, value=0, time=0),
    MetaMessage('end_of_track', time=0)]),
  MidiTrack([
    MetaMessage('midi_port', port=0, time=0),
    MetaMessage('track_name', name='Maracas             ', time=0),
    Message('control_change', channel=9, control=7, value=111, time=0),
    Message('note_on', channel=9, note=70, velocity=105, time=0),
    Message('note_off', channel=9, note=70, velocity=1, time=192),
    Message('note_on', channel=9, note=70, velocity=105, time=0),
    Message('control_change', channel=9, control=7, value=112, time=72),
    Message('note_off', channel=9, note=70, velocity=1, time=120),
    Message('note_on', channel=9, note=70, velocity=105, time=0),
    Message('control_change', channel=9, control=7, value=113, time=144),
    Message('note_off', channel=9, note=70, velocity=1, time=48),
    Message('note_on', channel=9, note=70, velocity=105, time=0),
    Message('control_change', channel=9, control=7, value=114, time=191),
    Message('note_off', channel=9, note=70, velocity=1, time=1),
    Message('note_on', channel=9, note=70, velocity=105, time=0),
    Message('note_off', channel=9, note=70, velocity=1, time=192),
    Message('note_on', channel=9, note=70, velocity=105, time=0),
    Message('note_off', channel=9, note=70, velocity=1, time=192),
    Message('note_on', channel=9, note=70, velocity=105, time=0),
    Message('note_off', channel=9, note=70, velocity=1, time=192),
    Message('note_on', channel=9, note=70, velocity=105, time=0),
    Message('note_off', channel=9, note=70, velocity=1, time=192),
    Message('note_on', channel=9, note=70, velocity=105, time=0),
    Message('note_off', channel=9, note=70, velocity=1, time=192),
    Message('note_on', channel=9, note=70, velocity=105, time=0),
    Message('note_off', channel=9, note=70, velocity=1, time=192),
    Message('note_on', channel=9, note=70, velocity=105, time=0),
    Message('note_off', channel=9, note=70, velocity=1, time=192),
    Message('note_on', channel=9, note=70, velocity=105, time=0),
    Message('note_off', channel=9, note=70, velocity=1, time=192),
    Message('note_on', channel=9, note=70, velocity=105, time=0),
    Message('note_off', channel=9, note=70, velocity=1, time=192),
    Message('note_on', channel=9, note=70, velocity=105, time=0),
    Message('note_off', channel=9, note=70, velocity=1, time=192),
    Message('note_on', channel=9, note=70, velocity=105, time=0),
    Message('note_off', channel=9, note=70, velocity=1, time=192),
    Message('note_on', channel=9, note=70, velocity=105, time=0),
    Message('note_off', channel=9, note=70, velocity=1, time=192),
    Message('note_on', channel=9, note=70, velocity=105, time=0),
    Message('note_off', channel=9, note=70, velocity=1, time=192),
    Message('note_on', channel=9, note=70, velocity=105, time=0),
    Message('note_off', channel=9, note=70, velocity=1, time=192),
    Message('note_on', channel=9, note=70, velocity=105, time=0),
    Message('note_off', channel=9, note=70, velocity=1, time=192),
    Message('note_on', channel=9, note=70, velocity=105, time=0),
    Message('note_off', channel=9, note=70, velocity=1, time=192),
    Message('note_on', channel=9, note=70, velocity=105, time=0),
    Message('note_off', channel=9, note=70, velocity=1, time=192),
    Message('note_on', channel=9, note=70, velocity=105, time=0),
    Message('note_off', channel=9, note=70, velocity=1, time=192),
    Message('note_on', channel=9, note=70, velocity=105, time=0),
    Message('note_off', channel=9, note=70, velocity=1, time=192),
    Message('note_on', channel=9, note=70, velocity=105, time=0),
    Message('note_off', channel=9, note=70, velocity=1, time=192),
    Message('note_on', channel=9, note=70, velocity=105, time=0),
    Message('note_off', channel=9, note=70, velocity=1, time=192),
    Message('note_on', channel=9, note=70, velocity=105, time=0),
    Message('note_off', channel=9, note=70, velocity=1, time=192),
    Message('note_on', channel=9, note=70, velocity=105, time=0),
    Message('note_off', channel=9, note=70, velocity=1, time=192),
    Message('note_on', channel=9, note=70, velocity=105, time=0),
    Message('note_off', channel=9, note=70, velocity=1, time=192),
    Message('note_on', channel=9, note=70, velocity=105, time=0),
    Message('note_off', channel=9, note=70, velocity=1, time=192),
    Message('note_on', channel=9, note=70, velocity=105, time=0),
    Message('note_off', channel=9, note=70, velocity=1, time=192),
    Message('note_on', channel=9, note=70, velocity=105, time=0),
    Message('note_off', channel=9, note=70, velocity=1, time=192),
    Message('note_on', channel=9, note=70, velocity=105, time=0),
    Message('note_off', channel=9, note=70, velocity=1, time=192),
    Message('note_on', channel=9, note=70, velocity=105, time=0),
    Message('note_off', channel=9, note=70, velocity=1, time=192),
    Message('note_on', channel=9, note=70, velocity=105, time=0),
    Message('note_off', channel=9, note=70, velocity=1, time=192),
    Message('note_on', channel=9, note=70, velocity=105, time=0),
    Message('note_off', channel=9, note=70, velocity=1, time=192),
    Message('note_on', channel=9, note=70, velocity=105, time=0),
    Message('note_off', channel=9, note=70, velocity=1, time=192),
    Message('control_change', channel=9, control=7, value=114, time=0),
    Message('note_on', channel=9, note=70, velocity=105, time=2304),
    Message('note_off', channel=9, note=70, velocity=1, time=192),
    Message('note_on', channel=9, note=70, velocity=105, time=0),
    Message('note_off', channel=9, note=70, velocity=1, time=192),
    Message('note_on', channel=9, note=70, velocity=105, time=0),
    Message('note_off', channel=9, note=70, velocity=1, time=192),
    Message('note_on', channel=9, note=70, velocity=105, time=0),
    Message('note_off', channel=9, note=70, velocity=1, time=192),
    Message('note_on', channel=9, note=70, velocity=105, time=0),
    Message('note_off', channel=9, note=70, velocity=1, time=192),
    Message('note_on', channel=9, note=70, velocity=105, time=0),
    Message('note_off', channel=9, note=70, velocity=1, time=192),
    Message('note_on', channel=9, note=70, velocity=105, time=0),
    Message('note_off', channel=9, note=70, velocity=1, time=192),
    Message('note_on', channel=9, note=70, velocity=105, time=0),
    Message('note_off', channel=9, note=70, velocity=1, time=192),
    Message('note_on', channel=9, note=70, velocity=105, time=0),
    Message('note_off', channel=9, note=70, velocity=1, time=192),
    Message('note_on', channel=9, note=70, velocity=105, time=0),
    Message('note_off', channel=9, note=70, velocity=1, time=192),
    Message('note_on', channel=9, note=70, velocity=105, time=0),
    Message('note_off', channel=9, note=70, velocity=1, time=192),
    Message('note_on', channel=9, note=70, velocity=105, time=0),
    Message('note_off', channel=9, note=70, velocity=1, time=192),
    Message('note_on', channel=9, note=70, velocity=105, time=0),
    Message('note_off', channel=9, note=70, velocity=1, time=192),
    Message('note_on', channel=9, note=70, velocity=105, time=0),
    Message('note_off', channel=9, note=70, velocity=1, time=192),
    Message('note_on', channel=9, note=70, velocity=105, time=0),
    Message('note_off', channel=9, note=70, velocity=1, time=192),
    Message('note_on', channel=9, note=70, velocity=105, time=0),
    Message('note_off', channel=9, note=70, velocity=1, time=192),
    Message('note_on', channel=9, note=70, velocity=105, time=2304),
    Message('note_off', channel=9, note=70, velocity=1, time=192),
    Message('note_on', channel=9, note=70, velocity=105, time=0),
    Message('note_off', channel=9, note=70, velocity=1, time=192),
    Message('note_on', channel=9, note=70, velocity=105, time=0),
    Message('note_off', channel=9, note=70, velocity=1, time=192),
    Message('note_on', channel=9, note=70, velocity=105, time=0),
    Message('note_off', channel=9, note=70, velocity=1, time=192),
    Message('note_on', channel=9, note=70, velocity=105, time=0),
    Message('note_off', channel=9, note=70, velocity=1, time=192),
    Message('note_on', channel=9, note=70, velocity=105, time=0),
    Message('note_off', channel=9, note=70, velocity=1, time=192),
    Message('note_on', channel=9, note=70, velocity=105, time=0),
    Message('note_off', channel=9, note=70, velocity=1, time=192),
    Message('note_on', channel=9, note=70, velocity=105, time=0),
    Message('note_off', channel=9, note=70, velocity=1, time=192),
    Message('note_on', channel=9, note=70, velocity=105, time=2304),
    Message('note_off', channel=9, note=70, velocity=1, time=192),
    Message('note_on', channel=9, note=70, velocity=105, time=0),
    Message('note_off', channel=9, note=70, velocity=1, time=192),
    Message('note_on', channel=9, note=70, velocity=105, time=0),
    Message('note_off', channel=9, note=70, velocity=1, time=192),
    Message('note_on', channel=9, note=70, velocity=105, time=0),
    Message('note_off', channel=9, note=70, velocity=1, time=192),
    Message('note_on', channel=9, note=70, velocity=105, time=0),
    Message('note_off', channel=9, note=70, velocity=1, time=192),
    Message('note_on', channel=9, note=70, velocity=105, time=0),
    Message('note_off', channel=9, note=70, velocity=1, time=192),
    Message('note_on', channel=9, note=70, velocity=105, time=0),
    Message('note_off', channel=9, note=70, velocity=1, time=192),
    Message('note_on', channel=9, note=70, velocity=105, time=0),
    Message('note_off', channel=9, note=70, velocity=1, time=192),
    Message('note_on', channel=9, note=70, velocity=105, time=0),
    Message('note_off', channel=9, note=70, velocity=1, time=192),
    Message('note_on', channel=9, note=70, velocity=105, time=0),
    Message('note_off', channel=9, note=70, velocity=1, time=192),
    Message('note_on', channel=9, note=70, velocity=105, time=0),
    Message('note_off', channel=9, note=70, velocity=1, time=192),
    Message('note_on', channel=9, note=70, velocity=105, time=0),
    Message('note_off', channel=9, note=70, velocity=1, time=192),
    Message('note_on', channel=9, note=70, velocity=105, time=0),
    Message('note_off', channel=9, note=70, velocity=1, time=192),
    Message('note_on', channel=9, note=70, velocity=105, time=0),
    Message('note_off', channel=9, note=70, velocity=1, time=192),
    Message('note_on', channel=9, note=70, velocity=105, time=0),
    Message('note_off', channel=9, note=70, velocity=1, time=192),
    Message('note_on', channel=9, note=70, velocity=105, time=0),
    Message('note_off', channel=9, note=70, velocity=1, time=192),
    Message('note_on', channel=9, note=70, velocity=105, time=0),
    Message('note_off', channel=9, note=70, velocity=1, time=192),
    Message('note_on', channel=9, note=70, velocity=105, time=0),
    Message('note_off', channel=9, note=70, velocity=1, time=192),
    Message('note_on', channel=9, note=70, velocity=105, time=0),
    Message('note_off', channel=9, note=70, velocity=1, time=192),
    Message('note_on', channel=9, note=70, velocity=105, time=0),
    Message('note_off', channel=9, note=70, velocity=1, time=192),
    Message('note_on', channel=9, note=70, velocity=105, time=0),
    Message('note_off', channel=9, note=70, velocity=1, time=192),
    Message('note_on', channel=9, note=70, velocity=105, time=0),
    Message('note_off', channel=9, note=70, velocity=1, time=192),
    Message('note_on', channel=9, note=70, velocity=105, time=0),
    Message('note_off', channel=9, note=70, velocity=1, time=192),
    Message('note_on', channel=9, note=70, velocity=105, time=0),
    Message('note_off', channel=9, note=70, velocity=1, time=192),
    Message('note_on', channel=9, note=70, velocity=105, time=0),
    Message('note_off', channel=9, note=70, velocity=1, time=192),
    Message('note_on', channel=9, note=70, velocity=105, time=0),
    Message('note_off', channel=9, note=70, velocity=1, time=192),
    Message('note_on', channel=9, note=70, velocity=105, time=0),
    Message('note_off', channel=9, note=70, velocity=1, time=192),
    Message('note_on', channel=9, note=70, velocity=105, time=0),
    Message('note_off', channel=9, note=70, velocity=1, time=192),
    Message('note_on', channel=9, note=70, velocity=105, time=0),
    Message('note_off', channel=9, note=70, velocity=1, time=192),
    Message('note_on', channel=9, note=70, velocity=105, time=0),
    Message('note_off', channel=9, note=70, velocity=1, time=192),
    Message('note_on', channel=9, note=70, velocity=105, time=0),
    Message('note_off', channel=9, note=70, velocity=1, time=192),
    Message('note_on', channel=9, note=70, velocity=105, time=0),
    Message('note_off', channel=9, note=70, velocity=1, time=192),
    Message('note_on', channel=9, note=70, velocity=105, time=0),
    Message('note_off', channel=9, note=70, velocity=1, time=192),
    Message('note_on', channel=9, note=70, velocity=105, time=0),
    Message('note_off', channel=9, note=70, velocity=1, time=192),
    Message('note_on', channel=9, note=70, velocity=105, time=0),
    Message('note_off', channel=9, note=70, velocity=1, time=192),
    Message('note_on', channel=9, note=70, velocity=105, time=0),
    Message('note_off', channel=9, note=70, velocity=1, time=192),
    Message('note_on', channel=9, note=70, velocity=105, time=0),
    Message('note_off', channel=9, note=70, velocity=1, time=192),
    Message('note_on', channel=9, note=70, velocity=105, time=0),
    Message('note_off', channel=9, note=70, velocity=1, time=192),
    Message('note_on', channel=9, note=70, velocity=105, time=0),
    Message('note_off', channel=9, note=70, velocity=1, time=192),
    Message('note_on', channel=9, note=70, velocity=105, time=0),
    Message('note_off', channel=9, note=70, velocity=1, time=192),
    Message('note_on', channel=9, note=70, velocity=105, time=0),
    Message('note_off', channel=9, note=70, velocity=1, time=192),
    Message('note_on', channel=9, note=70, velocity=105, time=0),
    Message('note_off', channel=9, note=70, velocity=1, time=192),
    Message('note_on', channel=9, note=70, velocity=105, time=0),
    Message('note_off', channel=9, note=70, velocity=1, time=192),
    Message('note_on', channel=9, note=70, velocity=105, time=0),
    Message('note_off', channel=9, note=70, velocity=1, time=192),
    Message('note_on', channel=9, note=70, velocity=105, time=0),
    Message('note_off', channel=9, note=70, velocity=1, time=192),
    Message('note_on', channel=9, note=70, velocity=105, time=0),
    Message('note_off', channel=9, note=70, velocity=1, time=192),
    Message('note_on', channel=9, note=70, velocity=105, time=0),
    Message('note_off', channel=9, note=70, velocity=1, time=192),
    Message('note_on', channel=9, note=70, velocity=105, time=0),
    Message('note_off', channel=9, note=70, velocity=1, time=192),
    Message('note_on', channel=9, note=70, velocity=105, time=0),
    Message('note_off', channel=9, note=70, velocity=1, time=192),
    Message('note_on', channel=9, note=70, velocity=105, time=0),
    Message('note_off', channel=9, note=70, velocity=1, time=192),
    Message('note_on', channel=9, note=70, velocity=105, time=0),
    Message('note_off', channel=9, note=70, velocity=1, time=192),
    Message('note_on', channel=9, note=70, velocity=105, time=0),
    Message('note_off', channel=9, note=70, velocity=1, time=192),
    Message('note_on', channel=9, note=70, velocity=105, time=0),
    Message('note_off', channel=9, note=70, velocity=1, time=192),
    Message('note_on', channel=9, note=70, velocity=105, time=0),
    Message('note_off', channel=9, note=70, velocity=1, time=192),
    Message('note_on', channel=9, note=70, velocity=105, time=0),
    Message('note_off', channel=9, note=70, velocity=1, time=192),
    Message('note_on', channel=9, note=70, velocity=105, time=0),
    Message('note_off', channel=9, note=70, velocity=1, time=192),
    Message('note_on', channel=9, note=70, velocity=105, time=3072),
    Message('note_off', channel=9, note=70, velocity=1, time=192),
    Message('note_on', channel=9, note=70, velocity=105, time=0),
    Message('note_off', channel=9, note=70, velocity=1, time=192),
    Message('note_on', channel=9, note=70, velocity=105, time=0),
    Message('note_off', channel=9, note=70, velocity=1, time=192),
    Message('note_on', channel=9, note=70, velocity=105, time=0),
    Message('note_off', channel=9, note=70, velocity=1, time=192),
    Message('note_on', channel=9, note=70, velocity=105, time=0),
    Message('note_off', channel=9, note=70, velocity=1, time=192),
    Message('note_on', channel=9, note=70, velocity=105, time=0),
    Message('note_off', channel=9, note=70, velocity=1, time=192),
    Message('note_on', channel=9, note=70, velocity=105, time=0),
    Message('note_off', channel=9, note=70, velocity=1, time=192),
    Message('note_on', channel=9, note=70, velocity=105, time=0),
    Message('note_off', channel=9, note=70, velocity=1, time=192),
    Message('note_on', channel=9, note=70, velocity=105, time=0),
    Message('note_off', channel=9, note=70, velocity=1, time=192),
    Message('note_on', channel=9, note=70, velocity=105, time=0),
    Message('note_off', channel=9, note=70, velocity=1, time=192),
    Message('note_on', channel=9, note=70, velocity=105, time=0),
    Message('note_off', channel=9, note=70, velocity=1, time=192),
    Message('note_on', channel=9, note=70, velocity=105, time=0),
    Message('note_off', channel=9, note=70, velocity=1, time=192),
    Message('note_on', channel=9, note=70, velocity=105, time=0),
    Message('note_off', channel=9, note=70, velocity=1, time=192),
    Message('note_on', channel=9, note=70, velocity=105, time=0),
    Message('note_off', channel=9, note=70, velocity=1, time=192),
    Message('note_on', channel=9, note=70, velocity=105, time=0),
    Message('note_off', channel=9, note=70, velocity=1, time=192),
    Message('note_on', channel=9, note=70, velocity=105, time=0),
    Message('note_off', channel=9, note=70, velocity=1, time=192),
    Message('note_on', channel=9, note=70, velocity=105, time=0),
    Message('note_off', channel=9, note=70, velocity=1, time=192),
    Message('note_on', channel=9, note=70, velocity=105, time=0),
    Message('note_off', channel=9, note=70, velocity=1, time=192),
    Message('note_on', channel=9, note=70, velocity=105, time=0),
    Message('note_off', channel=9, note=70, velocity=1, time=192),
    Message('note_on', channel=9, note=70, velocity=105, time=0),
    Message('note_off', channel=9, note=70, velocity=1, time=192),
    Message('note_on', channel=9, note=70, velocity=105, time=0),
    Message('note_off', channel=9, note=70, velocity=1, time=192),
    Message('note_on', channel=9, note=70, velocity=105, time=0),
    Message('note_off', channel=9, note=70, velocity=1, time=192),
    Message('note_on', channel=9, note=70, velocity=105, time=0),
    Message('note_off', channel=9, note=70, velocity=1, time=192),
    Message('note_on', channel=9, note=70, velocity=105, time=0),
    Message('note_off', channel=9, note=70, velocity=1, time=192),
    Message('note_on', channel=9, note=70, velocity=105, time=0),
    Message('note_off', channel=9, note=70, velocity=1, time=192),
    Message('note_on', channel=9, note=70, velocity=105, time=0),
    Message('note_off', channel=9, note=70, velocity=1, time=192),
    Message('note_on', channel=9, note=70, velocity=105, time=0),
    Message('note_off', channel=9, note=70, velocity=1, time=192),
    Message('note_on', channel=9, note=70, velocity=105, time=0),
    Message('note_off', channel=9, note=70, velocity=1, time=192),
    Message('note_on', channel=9, note=70, velocity=105, time=0),
    Message('note_off', channel=9, note=70, velocity=1, time=192),
    Message('note_on', channel=9, note=70, velocity=105, time=0),
    Message('note_off', channel=9, note=70, velocity=1, time=192),
    Message('note_on', channel=9, note=70, velocity=105, time=0),
    Message('note_off', channel=9, note=70, velocity=1, time=192),
    Message('note_on', channel=9, note=70, velocity=105, time=0),
    Message('note_off', channel=9, note=70, velocity=1, time=192),
    Message('note_on', channel=9, note=70, velocity=105, time=0),
    Message('note_off', channel=9, note=70, velocity=1, time=192),
    Message('note_on', channel=9, note=70, velocity=105, time=0),
    Message('note_off', channel=9, note=70, velocity=1, time=192),
    Message('note_on', channel=9, note=70, velocity=105, time=0),
    Message('note_off', channel=9, note=70, velocity=1, time=192),
    Message('note_on', channel=9, note=70, velocity=105, time=0),
    Message('note_off', channel=9, note=70, velocity=1, time=192),
    Message('note_on', channel=9, note=70, velocity=105, time=0),
    Message('note_off', channel=9, note=70, velocity=1, time=192),
    Message('note_on', channel=9, note=70, velocity=105, time=0),
    Message('note_off', channel=9, note=70, velocity=1, time=192),
    Message('note_on', channel=9, note=70, velocity=105, time=0),
    Message('note_off', channel=9, note=70, velocity=1, time=192),
    Message('note_on', channel=9, note=70, velocity=105, time=0),
    Message('note_off', channel=9, note=70, velocity=1, time=192),
    Message('note_on', channel=9, note=70, velocity=105, time=1536),
    Message('note_off', channel=9, note=70, velocity=1, time=192),
    Message('note_on', channel=9, note=70, velocity=105, time=0),
    Message('note_off', channel=9, note=70, velocity=1, time=192),
    Message('note_on', channel=9, note=70, velocity=105, time=0),
    Message('note_off', channel=9, note=70, velocity=1, time=192),
    Message('note_on', channel=9, note=70, velocity=105, time=0),
    Message('note_off', channel=9, note=70, velocity=1, time=192),
    Message('note_on', channel=9, note=70, velocity=105, time=0),
    Message('note_off', channel=9, note=70, velocity=1, time=192),
    Message('note_on', channel=9, note=70, velocity=105, time=0),
    Message('note_off', channel=9, note=70, velocity=1, time=192),
    Message('note_on', channel=9, note=70, velocity=105, time=0),
    Message('note_off', channel=9, note=70, velocity=1, time=192),
    Message('note_on', channel=9, note=70, velocity=105, time=0),
    Message('note_off', channel=9, note=70, velocity=1, time=192),
    Message('note_on', channel=9, note=70, velocity=105, time=0),
    Message('note_off', channel=9, note=70, velocity=1, time=192),
    Message('note_on', channel=9, note=70, velocity=105, time=0),
    Message('note_off', channel=9, note=70, velocity=1, time=192),
    Message('note_on', channel=9, note=70, velocity=105, time=0),
    Message('note_off', channel=9, note=70, velocity=1, time=192),
    Message('note_on', channel=9, note=70, velocity=105, time=0),
    Message('note_off', channel=9, note=70, velocity=1, time=192),
    Message('note_on', channel=9, note=70, velocity=105, time=0),
    Message('note_off', channel=9, note=70, velocity=1, time=192),
    Message('note_on', channel=9, note=70, velocity=105, time=0),
    Message('note_off', channel=9, note=70, velocity=1, time=192),
    Message('note_on', channel=9, note=70, velocity=105, time=0),
    Message('note_off', channel=9, note=70, velocity=1, time=192),
    Message('note_on', channel=9, note=70, velocity=105, time=0),
    Message('note_off', channel=9, note=70, velocity=1, time=192),
    Message('note_on', channel=9, note=70, velocity=105, time=0),
    Message('note_off', channel=9, note=70, velocity=1, time=192),
    Message('note_on', channel=9, note=70, velocity=105, time=0),
    Message('note_off', channel=9, note=70, velocity=1, time=192),
    Message('note_on', channel=9, note=70, velocity=105, time=0),
    Message('note_off', channel=9, note=70, velocity=1, time=192),
    Message('note_on', channel=9, note=70, velocity=105, time=192),
    Message('note_off', channel=9, note=70, velocity=1, time=192),
    Message('note_on', channel=9, note=70, velocity=105, time=0),
    Message('note_off', channel=9, note=70, velocity=1, time=192),
    Message('note_on', channel=9, note=70, velocity=105, time=0),
    Message('note_off', channel=9, note=70, velocity=1, time=192),
    Message('note_on', channel=9, note=70, velocity=105, time=0),
    Message('note_off', channel=9, note=70, velocity=1, time=192),
    Message('note_on', channel=9, note=70, velocity=105, time=0),
    Message('note_off', channel=9, note=70, velocity=1, time=192),
    Message('note_on', channel=9, note=70, velocity=105, time=0),
    Message('note_off', channel=9, note=70, velocity=1, time=192),
    Message('note_on', channel=9, note=70, velocity=105, time=0),
    Message('note_off', channel=9, note=70, velocity=1, time=192),
    Message('note_on', channel=9, note=70, velocity=105, time=0),
    Message('note_off', channel=9, note=70, velocity=1, time=192),
    Message('note_on', channel=9, note=70, velocity=105, time=0),
    Message('note_off', channel=9, note=70, velocity=1, time=192),
    Message('note_on', channel=9, note=70, velocity=105, time=0),
    Message('note_off', channel=9, note=70, velocity=1, time=192),
    Message('note_on', channel=9, note=70, velocity=105, time=0),
    Message('note_off', channel=9, note=70, velocity=1, time=192),
    Message('note_on', channel=9, note=70, velocity=105, time=0),
    Message('note_off', channel=9, note=70, velocity=1, time=192),
    Message('note_on', channel=9, note=70, velocity=105, time=0),
    Message('note_off', channel=9, note=70, velocity=1, time=192),
    Message('note_on', channel=9, note=70, velocity=105, time=0),
    Message('note_off', channel=9, note=70, velocity=1, time=192),
    Message('note_on', channel=9, note=70, velocity=105, time=0),
    Message('note_off', channel=9, note=70, velocity=1, time=192),
    Message('note_on', channel=9, note=70, velocity=105, time=0),
    Message('note_off', channel=9, note=70, velocity=1, time=192),
    Message('note_on', channel=9, note=70, velocity=105, time=0),
    Message('note_off', channel=9, note=70, velocity=1, time=192),
    Message('note_on', channel=9, note=70, velocity=105, time=0),
    Message('note_off', channel=9, note=70, velocity=1, time=192),
    Message('note_on', channel=9, note=70, velocity=105, time=0),
    Message('note_off', channel=9, note=70, velocity=1, time=192),
    Message('note_on', channel=9, note=70, velocity=105, time=0),
    Message('note_off', channel=9, note=70, velocity=1, time=192),
    Message('note_on', channel=9, note=70, velocity=105, time=0),
    Message('note_off', channel=9, note=70, velocity=1, time=192),
    Message('note_on', channel=9, note=70, velocity=105, time=0),
    Message('note_off', channel=9, note=70, velocity=1, time=192),
    Message('note_on', channel=9, note=70, velocity=105, time=0),
    Message('note_off', channel=9, note=70, velocity=1, time=192),
    Message('note_on', channel=9, note=70, velocity=105, time=0),
    Message('note_off', channel=9, note=70, velocity=1, time=192),
    Message('note_on', channel=9, note=70, velocity=105, time=0),
    Message('note_off', channel=9, note=70, velocity=1, time=192),
    Message('note_on', channel=9, note=70, velocity=105, time=0),
    Message('note_off', channel=9, note=70, velocity=1, time=192),
    Message('note_on', channel=9, note=70, velocity=105, time=0),
    Message('note_off', channel=9, note=70, velocity=1, time=192),
    Message('note_on', channel=9, note=70, velocity=105, time=0),
    Message('note_off', channel=9, note=70, velocity=1, time=192),
    Message('note_on', channel=9, note=70, velocity=105, time=0),
    Message('note_off', channel=9, note=70, velocity=1, time=192),
    Message('note_on', channel=9, note=70, velocity=105, time=0),
    Message('note_off', channel=9, note=70, velocity=1, time=192),
    Message('note_on', channel=9, note=70, velocity=105, time=0),
    Message('note_off', channel=9, note=70, velocity=1, time=192),
    Message('note_on', channel=9, note=70, velocity=105, time=0),
    Message('note_off', channel=9, note=70, velocity=1, time=192),
    Message('note_on', channel=9, note=70, velocity=105, time=0),
    Message('note_off', channel=9, note=70, velocity=1, time=192),
    Message('note_on', channel=9, note=70, velocity=105, time=0),
    Message('note_off', channel=9, note=70, velocity=1, time=192),
    Message('note_on', channel=9, note=70, velocity=105, time=0),
    Message('note_off', channel=9, note=70, velocity=1, time=192),
    Message('note_on', channel=9, note=70, velocity=105, time=0),
    Message('note_off', channel=9, note=70, velocity=1, time=192),
    Message('note_on', channel=9, note=70, velocity=105, time=0),
    Message('note_off', channel=9, note=70, velocity=1, time=192),
    Message('note_on', channel=9, note=70, velocity=105, time=0),
    Message('note_off', channel=9, note=70, velocity=1, time=192),
    Message('note_on', channel=9, note=70, velocity=105, time=0),
    Message('note_off', channel=9, note=70, velocity=1, time=192),
    Message('note_on', channel=9, note=70, velocity=105, time=0),
    Message('note_off', channel=9, note=70, velocity=1, time=192),
    Message('note_on', channel=9, note=70, velocity=105, time=0),
    Message('note_off', channel=9, note=70, velocity=1, time=192),
    Message('note_on', channel=9, note=70, velocity=105, time=0),
    Message('note_off', channel=9, note=70, velocity=1, time=192),
    Message('note_on', channel=9, note=70, velocity=105, time=0),
    Message('note_off', channel=9, note=70, velocity=1, time=192),
    Message('note_on', channel=9, note=70, velocity=105, time=0),
    Message('note_off', channel=9, note=70, velocity=1, time=192),
    Message('note_on', channel=9, note=70, velocity=105, time=0),
    Message('note_off', channel=9, note=70, velocity=1, time=192),
    Message('note_on', channel=9, note=70, velocity=105, time=0),
    Message('note_off', channel=9, note=70, velocity=1, time=192),
    Message('note_on', channel=9, note=70, velocity=105, time=0),
    Message('note_off', channel=9, note=70, velocity=1, time=192),
    Message('note_on', channel=9, note=70, velocity=105, time=0),
    Message('note_off', channel=9, note=70, velocity=1, time=192),
    Message('note_on', channel=9, note=70, velocity=105, time=1536),
    Message('note_off', channel=9, note=70, velocity=1, time=192),
    Message('note_on', channel=9, note=70, velocity=105, time=0),
    Message('note_off', channel=9, note=70, velocity=1, time=192),
    Message('note_on', channel=9, note=70, velocity=105, time=0),
    Message('note_off', channel=9, note=70, velocity=1, time=192),
    Message('note_on', channel=9, note=70, velocity=105, time=0),
    Message('note_off', channel=9, note=70, velocity=1, time=192),
    Message('note_on', channel=9, note=70, velocity=105, time=0),
    Message('note_off', channel=9, note=70, velocity=1, time=192),
    Message('note_on', channel=9, note=70, velocity=105, time=0),
    Message('note_off', channel=9, note=70, velocity=1, time=192),
    Message('note_on', channel=9, note=70, velocity=105, time=0),
    Message('note_off', channel=9, note=70, velocity=1, time=192),
    Message('note_on', channel=9, note=70, velocity=105, time=0),
    Message('note_off', channel=9, note=70, velocity=1, time=192),
    Message('note_on', channel=9, note=70, velocity=105, time=0),
    Message('note_off', channel=9, note=70, velocity=1, time=192),
    Message('note_on', channel=9, note=70, velocity=105, time=0),
    Message('note_off', channel=9, note=70, velocity=1, time=192),
    Message('note_on', channel=9, note=70, velocity=105, time=0),
    Message('note_off', channel=9, note=70, velocity=1, time=192),
    Message('note_on', channel=9, note=70, velocity=105, time=0),
    Message('note_off', channel=9, note=70, velocity=1, time=192),
    Message('control_change', channel=9, control=7, value=113, time=768),
    Message('note_on', channel=9, note=70, velocity=105, time=768),
    Message('note_off', channel=9, note=70, velocity=1, time=192),
    Message('note_on', channel=9, note=70, velocity=105, time=0),
    Message('note_off', channel=9, note=70, velocity=1, time=192),
    Message('note_on', channel=9, note=70, velocity=105, time=0),
    Message('note_off', channel=9, note=70, velocity=1, time=192),
    Message('note_on', channel=9, note=70, velocity=105, time=0),
    Message('note_off', channel=9, note=70, velocity=1, time=192),
    Message('control_change', channel=9, control=7, value=123, time=1536),
    Message('note_on', channel=9, note=70, velocity=105, time=768),
    Message('note_off', channel=9, note=70, velocity=1, time=192),
    Message('note_on', channel=9, note=70, velocity=105, time=0),
    Message('note_off', channel=9, note=70, velocity=1, time=192),
    Message('note_on', channel=9, note=70, velocity=105, time=0),
    Message('note_off', channel=9, note=70, velocity=1, time=192),
    Message('note_on', channel=9, note=70, velocity=105, time=0),
    Message('note_off', channel=9, note=70, velocity=1, time=192),
    Message('note_on', channel=9, note=70, velocity=105, time=0),
    Message('note_off', channel=9, note=70, velocity=1, time=192),
    Message('note_on', channel=9, note=70, velocity=105, time=0),
    Message('note_off', channel=9, note=70, velocity=1, time=192),
    Message('note_on', channel=9, note=70, velocity=105, time=0),
    Message('note_off', channel=9, note=70, velocity=1, time=192),
    Message('note_on', channel=9, note=70, velocity=105, time=0),
    Message('note_off', channel=9, note=70, velocity=1, time=192),
    Message('note_on', channel=9, note=70, velocity=105, time=0),
    Message('note_off', channel=9, note=70, velocity=1, time=192),
    Message('note_on', channel=9, note=70, velocity=105, time=0),
    Message('note_off', channel=9, note=70, velocity=1, time=192),
    Message('note_on', channel=9, note=70, velocity=105, time=0),
    Message('note_off', channel=9, note=70, velocity=1, time=192),
    Message('note_on', channel=9, note=70, velocity=105, time=0),
    Message('note_off', channel=9, note=70, velocity=1, time=192),
    Message('note_on', channel=9, note=70, velocity=105, time=0),
    Message('note_off', channel=9, note=70, velocity=1, time=192),
    Message('note_on', channel=9, note=70, velocity=105, time=0),
    Message('note_off', channel=9, note=70, velocity=1, time=192),
    Message('note_on', channel=9, note=70, velocity=105, time=0),
    Message('note_off', channel=9, note=70, velocity=1, time=192),
    Message('note_on', channel=9, note=70, velocity=105, time=0),
    Message('note_off', channel=9, note=70, velocity=1, time=192),
    Message('note_on', channel=9, note=70, velocity=105, time=0),
    Message('note_off', channel=9, note=70, velocity=1, time=192),
    Message('note_on', channel=9, note=70, velocity=105, time=0),
    Message('note_off', channel=9, note=70, velocity=1, time=192),
    Message('note_on', channel=9, note=70, velocity=105, time=0),
    Message('note_off', channel=9, note=70, velocity=1, time=192),
    Message('note_on', channel=9, note=70, velocity=105, time=0),
    Message('note_off', channel=9, note=70, velocity=1, time=192),
    Message('note_on', channel=9, note=70, velocity=105, time=0),
    Message('note_off', channel=9, note=70, velocity=1, time=192),
    Message('note_on', channel=9, note=70, velocity=105, time=0),
    Message('note_off', channel=9, note=70, velocity=1, time=192),
    Message('note_on', channel=9, note=70, velocity=105, time=0),
    Message('note_off', channel=9, note=70, velocity=1, time=192),
    Message('note_on', channel=9, note=70, velocity=105, time=0),
    Message('note_off', channel=9, note=70, velocity=1, time=192),
    Message('note_on', channel=9, note=70, velocity=105, time=0),
    Message('note_off', channel=9, note=70, velocity=1, time=192),
    Message('note_on', channel=9, note=70, velocity=105, time=0),
    Message('note_off', channel=9, note=70, velocity=1, time=192),
    Message('note_on', channel=9, note=70, velocity=105, time=0),
    Message('note_off', channel=9, note=70, velocity=1, time=192),
    Message('note_on', channel=9, note=70, velocity=105, time=0),
    Message('note_off', channel=9, note=70, velocity=1, time=192),
    Message('note_on', channel=9, note=70, velocity=105, time=0),
    Message('note_off', channel=9, note=70, velocity=1, time=192),
    Message('note_on', channel=9, note=70, velocity=105, time=0),
    Message('note_off', channel=9, note=70, velocity=1, time=192),
    Message('note_on', channel=9, note=70, velocity=105, time=0),
    Message('note_off', channel=9, note=70, velocity=1, time=192),
    Message('note_on', channel=9, note=70, velocity=105, time=0),
    Message('note_off', channel=9, note=70, velocity=1, time=192),
    Message('note_on', channel=9, note=70, velocity=105, time=0),
    Message('note_off', channel=9, note=70, velocity=1, time=192),
    Message('note_on', channel=9, note=70, velocity=105, time=0),
    Message('note_off', channel=9, note=70, velocity=1, time=192),
    Message('note_on', channel=9, note=70, velocity=105, time=0),
    Message('note_off', channel=9, note=70, velocity=1, time=192),
    Message('note_on', channel=9, note=70, velocity=105, time=0),
    Message('note_off', channel=9, note=70, velocity=1, time=192),
    Message('note_on', channel=9, note=70, velocity=105, time=0),
    Message('note_off', channel=9, note=70, velocity=1, time=192),
    Message('note_on', channel=9, note=70, velocity=105, time=0),
    Message('note_off', channel=9, note=70, velocity=1, time=192),
    Message('note_on', channel=9, note=70, velocity=105, time=0),
    Message('note_off', channel=9, note=70, velocity=1, time=192),
    Message('note_on', channel=9, note=70, velocity=105, time=0),
    Message('note_off', channel=9, note=70, velocity=1, time=192),
    Message('note_on', channel=9, note=70, velocity=105, time=0),
    Message('note_off', channel=9, note=70, velocity=1, time=192),
    Message('note_on', channel=9, note=70, velocity=105, time=0),
    Message('note_off', channel=9, note=70, velocity=1, time=192),
    Message('note_on', channel=9, note=70, velocity=105, time=0),
    Message('note_off', channel=9, note=70, velocity=1, time=192),
    Message('note_on', channel=9, note=70, velocity=105, time=0),
    Message('note_off', channel=9, note=70, velocity=1, time=192),
    Message('note_on', channel=9, note=70, velocity=105, time=0),
    Message('note_off', channel=9, note=70, velocity=1, time=192),
    Message('note_on', channel=9, note=70, velocity=105, time=0),
    Message('note_off', channel=9, note=70, velocity=1, time=192),
    Message('note_on', channel=9, note=70, velocity=105, time=0),
    Message('note_off', channel=9, note=70, velocity=1, time=192),
    Message('note_on', channel=9, note=70, velocity=105, time=0),
    Message('note_off', channel=9, note=70, velocity=1, time=192),
    Message('note_on', channel=9, note=70, velocity=105, time=0),
    Message('note_off', channel=9, note=70, velocity=1, time=192),
    Message('note_on', channel=9, note=70, velocity=105, time=0),
    Message('note_off', channel=9, note=70, velocity=1, time=192),
    Message('note_on', channel=9, note=70, velocity=105, time=0),
    Message('note_off', channel=9, note=70, velocity=1, time=192),
    Message('note_on', channel=9, note=70, velocity=105, time=0),
    Message('note_off', channel=9, note=70, velocity=1, time=192),
    Message('note_on', channel=9, note=70, velocity=105, time=0),
    Message('note_off', channel=9, note=70, velocity=1, time=192),
    Message('note_on', channel=9, note=70, velocity=105, time=0),
    Message('note_off', channel=9, note=70, velocity=1, time=192),
    Message('note_on', channel=9, note=70, velocity=105, time=0),
    Message('note_off', channel=9, note=70, velocity=1, time=192),
    Message('note_on', channel=9, note=70, velocity=105, time=0),
    Message('note_off', channel=9, note=70, velocity=1, time=192),
    Message('note_on', channel=9, note=70, velocity=105, time=0),
    Message('note_off', channel=9, note=70, velocity=1, time=192),
    Message('note_on', channel=9, note=70, velocity=105, time=0),
    Message('note_off', channel=9, note=70, velocity=1, time=192),
    Message('note_on', channel=9, note=70, velocity=105, time=0),
    Message('note_off', channel=9, note=70, velocity=1, time=192),
    Message('note_on', channel=9, note=70, velocity=105, time=0),
    Message('note_off', channel=9, note=70, velocity=1, time=192),
    Message('note_on', channel=9, note=70, velocity=105, time=0),
    Message('note_off', channel=9, note=70, velocity=1, time=192),
    Message('note_on', channel=9, note=70, velocity=105, time=0),
    Message('note_off', channel=9, note=70, velocity=1, time=192),
    Message('note_on', channel=9, note=70, velocity=105, time=0),
    Message('note_off', channel=9, note=70, velocity=1, time=192),
    Message('note_on', channel=9, note=70, velocity=105, time=0),
    Message('note_off', channel=9, note=70, velocity=1, time=192),
    Message('note_on', channel=9, note=70, velocity=105, time=0),
    Message('note_off', channel=9, note=70, velocity=1, time=192),
    Message('note_on', channel=9, note=70, velocity=105, time=0),
    Message('note_off', channel=9, note=70, velocity=1, time=192),
    Message('note_on', channel=9, note=70, velocity=105, time=0),
    Message('note_off', channel=9, note=70, velocity=1, time=192),
    Message('note_on', channel=9, note=70, velocity=105, time=0),
    Message('note_off', channel=9, note=70, velocity=1, time=192),
    Message('note_on', channel=9, note=70, velocity=105, time=0),
    Message('note_off', channel=9, note=70, velocity=1, time=192),
    Message('note_on', channel=9, note=70, velocity=105, time=0),
    Message('note_off', channel=9, note=70, velocity=1, time=192),
    Message('note_on', channel=9, note=70, velocity=105, time=0),
    Message('note_off', channel=9, note=70, velocity=1, time=192),
    Message('note_on', channel=9, note=70, velocity=105, time=0),
    Message('note_off', channel=9, note=70, velocity=1, time=192),
    Message('note_on', channel=9, note=70, velocity=105, time=0),
    Message('note_off', channel=9, note=70, velocity=1, time=192),
    Message('note_on', channel=9, note=70, velocity=105, time=0),
    Message('note_off', channel=9, note=70, velocity=1, time=192),
    Message('note_on', channel=9, note=70, velocity=105, time=0),
    Message('note_off', channel=9, note=70, velocity=1, time=192),
    Message('note_on', channel=9, note=70, velocity=105, time=0),
    Message('note_off', channel=9, note=70, velocity=1, time=192),
    Message('note_on', channel=9, note=70, velocity=105, time=0),
    Message('note_off', channel=9, note=70, velocity=1, time=192),
    Message('note_on', channel=9, note=70, velocity=105, time=0),
    Message('note_off', channel=9, note=70, velocity=1, time=192),
    Message('note_on', channel=9, note=70, velocity=105, time=0),
    Message('note_off', channel=9, note=70, velocity=1, time=192),
    Message('note_on', channel=9, note=70, velocity=105, time=0),
    Message('note_off', channel=9, note=70, velocity=1, time=192),
    Message('note_on', channel=9, note=70, velocity=105, time=0),
    Message('note_off', channel=9, note=70, velocity=1, time=192),
    Message('note_on', channel=9, note=70, velocity=105, time=0),
    Message('note_off', channel=9, note=70, velocity=1, time=192),
    Message('note_on', channel=9, note=70, velocity=105, time=0),
    Message('note_off', channel=9, note=70, velocity=1, time=192),
    Message('note_on', channel=9, note=70, velocity=105, time=0),
    Message('note_off', channel=9, note=70, velocity=1, time=192),
    Message('note_on', channel=9, note=70, velocity=105, time=0),
    Message('note_off', channel=9, note=70, velocity=1, time=192),
    Message('note_on', channel=9, note=70, velocity=105, time=0),
    Message('note_off', channel=9, note=70, velocity=1, time=192),
    Message('note_on', channel=9, note=70, velocity=105, time=0),
    Message('note_off', channel=9, note=70, velocity=1, time=192),
    Message('note_on', channel=9, note=70, velocity=105, time=0),
    Message('note_off', channel=9, note=70, velocity=1, time=192),
    Message('note_on', channel=9, note=70, velocity=105, time=0),
    Message('note_off', channel=9, note=70, velocity=1, time=192),
    Message('note_on', channel=9, note=70, velocity=105, time=0),
    Message('note_off', channel=9, note=70, velocity=1, time=192),
    Message('note_on', channel=9, note=70, velocity=105, time=0),
    Message('note_off', channel=9, note=70, velocity=1, time=192),
    Message('note_on', channel=9, note=70, velocity=105, time=0),
    Message('note_off', channel=9, note=70, velocity=1, time=192),
    Message('note_on', channel=9, note=70, velocity=105, time=0),
    Message('note_off', channel=9, note=70, velocity=1, time=192),
    Message('note_on', channel=9, note=70, velocity=105, time=0),
    Message('note_off', channel=9, note=70, velocity=1, time=192),
    Message('note_on', channel=9, note=70, velocity=105, time=0),
    Message('note_off', channel=9, note=70, velocity=1, time=192),
    Message('note_on', channel=9, note=70, velocity=105, time=0),
    Message('note_off', channel=9, note=70, velocity=1, time=192),
    Message('note_on', channel=9, note=70, velocity=105, time=0),
    Message('note_off', channel=9, note=70, velocity=1, time=192),
    Message('note_on', channel=9, note=70, velocity=105, time=0),
    Message('note_off', channel=9, note=70, velocity=1, time=192),
    Message('note_on', channel=9, note=70, velocity=105, time=0),
    Message('note_off', channel=9, note=70, velocity=1, time=192),
    Message('note_on', channel=9, note=70, velocity=105, time=0),
    Message('note_off', channel=9, note=70, velocity=1, time=192),
    Message('note_on', channel=9, note=70, velocity=105, time=0),
    Message('note_off', channel=9, note=70, velocity=1, time=192),
    Message('note_on', channel=9, note=70, velocity=105, time=0),
    Message('note_off', channel=9, note=70, velocity=1, time=192),
    Message('note_on', channel=9, note=70, velocity=105, time=0),
    Message('note_off', channel=9, note=70, velocity=1, time=192),
    Message('note_on', channel=9, note=70, velocity=105, time=0),
    Message('note_off', channel=9, note=70, velocity=1, time=192),
    Message('note_on', channel=9, note=70, velocity=105, time=0),
    Message('note_off', channel=9, note=70, velocity=1, time=192),
    Message('note_on', channel=9, note=70, velocity=105, time=0),
    Message('note_off', channel=9, note=70, velocity=1, time=192),
    Message('note_on', channel=9, note=70, velocity=105, time=0),
    Message('note_off', channel=9, note=70, velocity=1, time=192),
    Message('note_on', channel=9, note=70, velocity=105, time=0),
    Message('note_off', channel=9, note=70, velocity=1, time=192),
    Message('note_on', channel=9, note=70, velocity=105, time=0),
    Message('note_off', channel=9, note=70, velocity=1, time=192),
    Message('note_on', channel=9, note=70, velocity=105, time=0),
    Message('note_off', channel=9, note=70, velocity=1, time=192),
    Message('note_on', channel=9, note=70, velocity=105, time=0),
    Message('note_off', channel=9, note=70, velocity=1, time=192),
    Message('note_on', channel=9, note=70, velocity=105, time=0),
    Message('note_off', channel=9, note=70, velocity=1, time=192),
    Message('control_change', channel=9, control=7, value=120, time=768),
    Message('note_on', channel=9, note=70, velocity=100, time=3072),
    Message('note_off', channel=9, note=70, velocity=1, time=192),
    Message('note_on', channel=9, note=70, velocity=100, time=0),
    Message('note_off', channel=9, note=70, velocity=1, time=192),
    Message('note_on', channel=9, note=70, velocity=100, time=0),
    Message('note_off', channel=9, note=70, velocity=1, time=192),
    Message('note_on', channel=9, note=70, velocity=100, time=0),
    Message('note_off', channel=9, note=70, velocity=1, time=192),
    Message('note_on', channel=9, note=70, velocity=100, time=0),
    Message('note_off', channel=9, note=70, velocity=1, time=192),
    Message('note_on', channel=9, note=70, velocity=100, time=0),
    Message('note_off', channel=9, note=70, velocity=1, time=192),
    Message('note_on', channel=9, note=70, velocity=100, time=0),
    Message('note_off', channel=9, note=70, velocity=1, time=192),
    Message('note_on', channel=9, note=70, velocity=100, time=0),
    Message('note_off', channel=9, note=70, velocity=1, time=192),
    Message('note_on', channel=9, note=70, velocity=100, time=1536),
    Message('note_off', channel=9, note=70, velocity=1, time=192),
    Message('note_on', channel=9, note=70, velocity=100, time=0),
    Message('note_off', channel=9, note=70, velocity=1, time=192),
    Message('note_on', channel=9, note=70, velocity=100, time=0),
    Message('note_off', channel=9, note=70, velocity=1, time=192),
    Message('note_on', channel=9, note=70, velocity=100, time=0),
    Message('note_off', channel=9, note=70, velocity=1, time=192),
    Message('note_on', channel=9, note=70, velocity=100, time=0),
    Message('note_off', channel=9, note=70, velocity=1, time=192),
    Message('note_on', channel=9, note=70, velocity=100, time=0),
    Message('note_off', channel=9, note=70, velocity=1, time=192),
    Message('note_on', channel=9, note=70, velocity=100, time=0),
    Message('note_off', channel=9, note=70, velocity=1, time=192),
    Message('note_on', channel=9, note=70, velocity=100, time=0),
    Message('note_off', channel=9, note=70, velocity=1, time=192),
    Message('note_on', channel=9, note=70, velocity=100, time=768),
    Message('note_off', channel=9, note=70, velocity=1, time=192),
    Message('note_on', channel=9, note=70, velocity=100, time=0),
    Message('note_off', channel=9, note=70, velocity=1, time=192),
    Message('note_on', channel=9, note=70, velocity=100, time=0),
    Message('note_off', channel=9, note=70, velocity=1, time=192),
    Message('note_on', channel=9, note=70, velocity=100, time=0),
    Message('note_off', channel=9, note=70, velocity=1, time=192),
    Message('note_on', channel=9, note=70, velocity=100, time=0),
    Message('note_off', channel=9, note=70, velocity=1, time=192),
    Message('note_on', channel=9, note=70, velocity=100, time=0),
    Message('note_off', channel=9, note=70, velocity=1, time=192),
    Message('note_on', channel=9, note=70, velocity=100, time=0),
    Message('note_off', channel=9, note=70, velocity=1, time=192),
    Message('note_on', channel=9, note=70, velocity=100, time=0),
    Message('note_off', channel=9, note=70, velocity=1, time=192),
    Message('note_on', channel=9, note=70, velocity=100, time=0),
    Message('note_off', channel=9, note=70, velocity=1, time=192),
    Message('note_on', channel=9, note=70, velocity=100, time=0),
    Message('note_off', channel=9, note=70, velocity=1, time=192),
    Message('note_on', channel=9, note=70, velocity=100, time=0),
    Message('note_off', channel=9, note=70, velocity=1, time=192),
    Message('note_on', channel=9, note=70, velocity=100, time=0),
    Message('note_off', channel=9, note=70, velocity=1, time=192),
    Message('note_on', channel=9, note=70, velocity=100, time=0),
    Message('note_off', channel=9, note=70, velocity=1, time=192),
    Message('note_on', channel=9, note=70, velocity=100, time=0),
    Message('note_off', channel=9, note=70, velocity=1, time=192),
    Message('note_on', channel=9, note=70, velocity=100, time=0),
    Message('note_off', channel=9, note=70, velocity=1, time=192),
    Message('note_on', channel=9, note=70, velocity=100, time=0),
    Message('note_off', channel=9, note=70, velocity=1, time=192),
    Message('note_on', channel=9, note=70, velocity=100, time=0),
    Message('note_off', channel=9, note=70, velocity=1, time=192),
    Message('note_on', channel=9, note=70, velocity=100, time=0),
    Message('note_off', channel=9, note=70, velocity=1, time=192),
    Message('note_on', channel=9, note=70, velocity=100, time=0),
    Message('note_off', channel=9, note=70, velocity=1, time=192),
    Message('note_on', channel=9, note=70, velocity=100, time=0),
    Message('note_off', channel=9, note=70, velocity=1, time=192),
    Message('note_on', channel=9, note=70, velocity=100, time=0),
    Message('note_off', channel=9, note=70, velocity=1, time=192),
    Message('note_on', channel=9, note=70, velocity=100, time=0),
    Message('note_off', channel=9, note=70, velocity=1, time=192),
    Message('note_on', channel=9, note=70, velocity=100, time=0),
    Message('note_off', channel=9, note=70, velocity=1, time=192),
    Message('note_on', channel=9, note=70, velocity=100, time=0),
    Message('note_off', channel=9, note=70, velocity=1, time=192),
    Message('note_on', channel=9, note=70, velocity=100, time=0),
    Message('note_off', channel=9, note=70, velocity=1, time=192),
    Message('note_on', channel=9, note=70, velocity=100, time=0),
    Message('note_off', channel=9, note=70, velocity=1, time=192),
    Message('note_on', channel=9, note=70, velocity=100, time=0),
    Message('note_off', channel=9, note=70, velocity=1, time=192),
    Message('note_on', channel=9, note=70, velocity=100, time=0),
    Message('note_off', channel=9, note=70, velocity=1, time=192),
    Message('control_change', channel=9, control=7, value=119, time=1536),
    Message('note_on', channel=9, note=70, velocity=100, time=0),
    Message('control_change', channel=9, control=7, value=118, time=48),
    Message('control_change', channel=9, control=7, value=117, time=48),
    Message('control_change', channel=9, control=7, value=116, time=48),
    Message('control_change', channel=9, control=7, value=115, time=24),
    Message('note_off', channel=9, note=70, velocity=1, time=24),
    Message('note_on', channel=9, note=70, velocity=100, time=0),
    Message('control_change', channel=9, control=7, value=114, time=24),
    Message('control_change', channel=9, control=7, value=113, time=48),
    Message('control_change', channel=9, control=7, value=112, time=24),
    Message('control_change', channel=9, control=7, value=111, time=48),
    Message('note_off', channel=9, note=70, velocity=1, time=48),
    Message('control_change', channel=9, control=7, value=110, time=0),
    Message('note_on', channel=9, note=70, velocity=100, time=0),
    Message('control_change', channel=9, control=7, value=109, time=24),
    Message('control_change', channel=9, control=7, value=108, time=48),
    Message('control_change', channel=9, control=7, value=107, time=48),
    Message('control_change', channel=9, control=7, value=106, time=24),
    Message('note_off', channel=9, note=70, velocity=1, time=48),
    Message('control_change', channel=9, control=7, value=105, time=0),
    Message('note_on', channel=9, note=70, velocity=100, time=0),
    Message('control_change', channel=9, control=7, value=104, time=48),
    Message('control_change', channel=9, control=7, value=103, time=24),
    Message('control_change', channel=9, control=7, value=102, time=48),
    Message('control_change', channel=9, control=7, value=101, time=48),
    Message('note_off', channel=9, note=70, velocity=1, time=24),
    Message('control_change', channel=9, control=7, value=100, time=0),
    Message('note_on', channel=9, note=70, velocity=100, time=0),
    Message('control_change', channel=9, control=7, value=99, time=48),
    Message('control_change', channel=9, control=7, value=98, time=48),
    Message('control_change', channel=9, control=7, value=97, time=48),
    Message('control_change', channel=9, control=7, value=96, time=24),
    Message('note_off', channel=9, note=70, velocity=1, time=24),
    Message('note_on', channel=9, note=70, velocity=100, time=0),
    Message('control_change', channel=9, control=7, value=95, time=24),
    Message('control_change', channel=9, control=7, value=94, time=48),
    Message('control_change', channel=9, control=7, value=93, time=24),
    Message('control_change', channel=9, control=7, value=92, time=48),
    Message('note_off', channel=9, note=70, velocity=1, time=48),
    Message('control_change', channel=9, control=7, value=91, time=0),
    Message('note_on', channel=9, note=70, velocity=100, time=0),
    Message('control_change', channel=9, control=7, value=90, time=24),
    Message('control_change', channel=9, control=7, value=89, time=48),
    Message('control_change', channel=9, control=7, value=88, time=48),
    Message('control_change', channel=9, control=7, value=87, time=24),
    Message('note_off', channel=9, note=70, velocity=1, time=48),
    Message('control_change', channel=9, control=7, value=86, time=0),
    Message('note_on', channel=9, note=70, velocity=100, time=0),
    Message('control_change', channel=9, control=7, value=85, time=48),
    Message('control_change', channel=9, control=7, value=84, time=24),
    Message('control_change', channel=9, control=7, value=83, time=48),
    Message('control_change', channel=9, control=7, value=82, time=48),
    Message('note_off', channel=9, note=70, velocity=1, time=24),
    Message('control_change', channel=9, control=7, value=81, time=0),
    Message('note_on', channel=9, note=70, velocity=100, time=0),
    Message('control_change', channel=9, control=7, value=80, time=48),
    Message('control_change', channel=9, control=7, value=79, time=48),
    Message('control_change', channel=9, control=7, value=78, time=48),
    Message('control_change', channel=9, control=7, value=77, time=24),
    Message('note_off', channel=9, note=70, velocity=1, time=24),
    Message('note_on', channel=9, note=70, velocity=100, time=0),
    Message('control_change', channel=9, control=7, value=76, time=24),
    Message('control_change', channel=9, control=7, value=75, time=48),
    Message('control_change', channel=9, control=7, value=74, time=24),
    Message('control_change', channel=9, control=7, value=73, time=48),
    Message('note_off', channel=9, note=70, velocity=1, time=48),
    Message('control_change', channel=9, control=7, value=72, time=0),
    Message('note_on', channel=9, note=70, velocity=100, time=0),
    Message('control_change', channel=9, control=7, value=71, time=24),
    Message('control_change', channel=9, control=7, value=70, time=48),
    Message('control_change', channel=9, control=7, value=69, time=48),
    Message('control_change', channel=9, control=7, value=68, time=24),
    Message('note_off', channel=9, note=70, velocity=1, time=48),
    Message('control_change', channel=9, control=7, value=67, time=0),
    Message('note_on', channel=9, note=70, velocity=100, time=0),
    Message('control_change', channel=9, control=7, value=66, time=48),
    Message('control_change', channel=9, control=7, value=65, time=24),
    Message('control_change', channel=9, control=7, value=64, time=48),
    Message('control_change', channel=9, control=7, value=63, time=48),
    Message('note_off', channel=9, note=70, velocity=1, time=24),
    Message('control_change', channel=9, control=7, value=62, time=0),
    Message('note_on', channel=9, note=70, velocity=100, time=0),
    Message('control_change', channel=9, control=7, value=61, time=48),
    Message('control_change', channel=9, control=7, value=60, time=48),
    Message('control_change', channel=9, control=7, value=59, time=48),
    Message('control_change', channel=9, control=7, value=58, time=24),
    Message('note_off', channel=9, note=70, velocity=1, time=24),
    Message('note_on', channel=9, note=70, velocity=100, time=0),
    Message('control_change', channel=9, control=7, value=57, time=24),
    Message('control_change', channel=9, control=7, value=56, time=48),
    Message('control_change', channel=9, control=7, value=55, time=24),
    Message('control_change', channel=9, control=7, value=54, time=48),
    Message('note_off', channel=9, note=70, velocity=1, time=48),
    Message('control_change', channel=9, control=7, value=53, time=0),
    Message('note_on', channel=9, note=70, velocity=100, time=0),
    Message('control_change', channel=9, control=7, value=52, time=24),
    Message('control_change', channel=9, control=7, value=51, time=48),
    Message('control_change', channel=9, control=7, value=50, time=48),
    Message('control_change', channel=9, control=7, value=49, time=24),
    Message('note_off', channel=9, note=70, velocity=1, time=48),
    Message('control_change', channel=9, control=7, value=48, time=0),
    Message('note_on', channel=9, note=70, velocity=100, time=0),
    Message('control_change', channel=9, control=7, value=47, time=48),
    Message('control_change', channel=9, control=7, value=46, time=24),
    Message('control_change', channel=9, control=7, value=45, time=48),
    Message('control_change', channel=9, control=7, value=44, time=48),
    Message('note_off', channel=9, note=70, velocity=1, time=24),
    Message('control_change', channel=9, control=7, value=43, time=0),
    Message('note_on', channel=9, note=70, velocity=100, time=0),
    Message('control_change', channel=9, control=7, value=42, time=48),
    Message('control_change', channel=9, control=7, value=41, time=48),
    Message('control_change', channel=9, control=7, value=40, time=48),
    Message('control_change', channel=9, control=7, value=39, time=24),
    Message('note_off', channel=9, note=70, velocity=1, time=24),
    Message('note_on', channel=9, note=70, velocity=100, time=0),
    Message('control_change', channel=9, control=7, value=38, time=24),
    Message('control_change', channel=9, control=7, value=37, time=48),
    Message('control_change', channel=9, control=7, value=36, time=24),
    Message('control_change', channel=9, control=7, value=35, time=48),
    Message('note_off', channel=9, note=70, velocity=1, time=48),
    Message('control_change', channel=9, control=7, value=34, time=0),
    Message('note_on', channel=9, note=70, velocity=100, time=0),
    Message('control_change', channel=9, control=7, value=33, time=24),
    Message('control_change', channel=9, control=7, value=32, time=48),
    Message('control_change', channel=9, control=7, value=31, time=48),
    Message('control_change', channel=9, control=7, value=30, time=24),
    Message('note_off', channel=9, note=70, velocity=1, time=48),
    Message('control_change', channel=9, control=7, value=29, time=0),
    Message('note_on', channel=9, note=70, velocity=100, time=0),
    Message('control_change', channel=9, control=7, value=28, time=48),
    Message('control_change', channel=9, control=7, value=27, time=24),
    Message('control_change', channel=9, control=7, value=26, time=48),
    Message('control_change', channel=9, control=7, value=25, time=48),
    Message('note_off', channel=9, note=70, velocity=1, time=24),
    Message('control_change', channel=9, control=7, value=19, time=0),
    Message('note_on', channel=9, note=70, velocity=100, time=0),
    Message('control_change', channel=9, control=7, value=18, time=96),
    Message('control_change', channel=9, control=7, value=17, time=72),
    Message('note_off', channel=9, note=70, velocity=1, time=24),
    Message('note_on', channel=9, note=70, velocity=100, time=0),
    Message('control_change', channel=9, control=7, value=16, time=48),
    Message('control_change', channel=9, control=7, value=15, time=72),
    Message('note_off', channel=9, note=70, velocity=1, time=72),
    Message('control_change', channel=9, control=7, value=14, time=0),
    Message('note_on', channel=9, note=70, velocity=100, time=0),
    Message('control_change', channel=9, control=7, value=13, time=96),
    Message('control_change', channel=9, control=7, value=12, time=72),
    Message('note_off', channel=9, note=70, velocity=1, time=24),
    Message('note_on', channel=9, note=70, velocity=100, time=0),
    Message('control_change', channel=9, control=7, value=11, time=48),
    Message('control_change', channel=9, control=7, value=10, time=72),
    Message('note_off', channel=9, note=70, velocity=1, time=72),
    Message('control_change', channel=9, control=7, value=9, time=0),
    Message('note_on', channel=9, note=70, velocity=100, time=0),
    Message('control_change', channel=9, control=7, value=8, time=96),
    Message('control_change', channel=9, control=7, value=7, time=72),
    Message('note_off', channel=9, note=70, velocity=1, time=24),
    Message('note_on', channel=9, note=70, velocity=100, time=0),
    Message('control_change', channel=9, control=7, value=6, time=48),
    Message('control_change', channel=9, control=7, value=5, time=72),
    Message('note_off', channel=9, note=70, velocity=1, time=72),
    Message('control_change', channel=9, control=7, value=4, time=0),
    Message('note_on', channel=9, note=70, velocity=100, time=0),
    Message('control_change', channel=9, control=7, value=3, time=96),
    Message('control_change', channel=9, control=7, value=2, time=72),
    Message('note_off', channel=9, note=70, velocity=1, time=24),
    Message('note_on', channel=9, note=70, velocity=100, time=0),
    Message('control_change', channel=9, control=7, value=1, time=48),
    Message('control_change', channel=9, control=7, value=0, time=72),
    Message('note_off', channel=9, note=70, velocity=1, time=72),
    Message('pitchwheel', channel=9, pitch=0, time=768),
    Message('polytouch', channel=9, note=64, value=0, time=0),
    Message('aftertouch', channel=9, value=0, time=0),
    Message('control_change', channel=9, control=1, value=0, time=0),
    Message('control_change', channel=9, control=2, value=0, time=0),
    Message('control_change', channel=9, control=4, value=0, time=0),
    Message('control_change', channel=9, control=7, value=100, time=0),
    Message('control_change', channel=9, control=8, value=0, time=0),
    Message('control_change', channel=9, control=10, value=63, time=0),
    Message('control_change', channel=9, control=64, value=0, time=0),
    Message('control_change', channel=9, control=65, value=0, time=0),
    Message('control_change', channel=9, control=66, value=0, time=0),
    Message('control_change', channel=9, control=67, value=0, time=0),
    Message('control_change', channel=9, control=68, value=0, time=0),
    MetaMessage('end_of_track', time=0)]),
  MidiTrack([
    MetaMessage('midi_port', port=0, time=0),
    MetaMessage('track_name', name='Cymbals             ', time=0),
    Message('control_change', channel=9, control=7, value=111, time=0),
    Message('note_on', channel=9, note=49, velocity=107, time=0),
    Message('control_change', channel=9, control=7, value=112, time=264),
    Message('control_change', channel=9, control=7, value=113, time=264),
    Message('note_off', channel=9, note=49, velocity=1, time=49),
    Message('control_change', channel=9, control=7, value=114, time=190),
    Message('note_on', channel=9, note=49, velocity=107, time=1537),
    Message('note_off', channel=9, note=49, velocity=1, time=577),
    Message('note_on', channel=9, note=49, velocity=107, time=1727),
    Message('note_off', channel=9, note=49, velocity=1, time=577),
    Message('control_change', channel=9, control=7, value=114, time=1727),
    Message('note_on', channel=9, note=49, velocity=107, time=768),
    Message('note_off', channel=9, note=49, velocity=1, time=577),
    Message('note_on', channel=9, note=49, velocity=107, time=767),
    Message('note_off', channel=9, note=49, velocity=1, time=192),
    Message('control_change', channel=9, control=7, value=110, time=0),
    Message('note_on', channel=9, note=49, velocity=107, time=0),
    Message('control_change', channel=9, control=7, value=111, time=264),
    Message('control_change', channel=9, control=7, value=112, time=264),
    Message('note_off', channel=9, note=49, velocity=1, time=49),
    Message('control_change', channel=9, control=7, value=113, time=190),
    Message('note_on', channel=9, note=49, velocity=107, time=3073),
    Message('note_off', channel=9, note=49, velocity=1, time=577),
    Message('control_change', channel=9, control=7, value=110, time=191),
    Message('note_on', channel=9, note=49, velocity=107, time=0),
    Message('control_change', channel=9, control=7, value=111, time=264),
    Message('control_change', channel=9, control=7, value=112, time=264),
    Message('note_off', channel=9, note=49, velocity=1, time=49),
    Message('control_change', channel=9, control=7, value=113, time=190),
    Message('control_change', channel=9, control=7, value=110, time=1),
    Message('note_on', channel=9, note=49, velocity=107, time=0),
    Message('control_change', channel=9, control=7, value=111, time=264),
    Message('control_change', channel=9, control=7, value=112, time=264),
    Message('note_off', channel=9, note=49, velocity=1, time=49),
    Message('control_change', channel=9, control=7, value=113, time=190),
    Message('note_on', channel=9, note=49, velocity=107, time=1537),
    Message('note_off', channel=9, note=49, velocity=1, time=577),
    Message('note_on', channel=9, note=49, velocity=107, time=767),
    Message('note_off', channel=9, note=49, velocity=1, time=577),
    Message('note_on', channel=9, note=49, velocity=107, time=383),
    Message('note_off', channel=9, note=49, velocity=1, time=577),
    Message('control_change', channel=9, control=7, value=110, time=7103),
    Message('note_on', channel=9, note=49, velocity=107, time=0),
    Message('control_change', channel=9, control=7, value=111, time=264),
    Message('control_change', channel=9, control=7, value=112, time=264),
    Message('note_off', channel=9, note=49, velocity=1, time=49),
    Message('control_change', channel=9, control=7, value=113, time=190),
    Message('note_on', channel=9, note=49, velocity=107, time=769),
    Message('note_off', channel=9, note=49, velocity=1, time=577),
    Message('control_change', channel=9, control=7, value=110, time=191),
    Message('note_on', channel=9, note=49, velocity=107, time=0),
    Message('control_change', channel=9, control=7, value=111, time=264),
    Message('control_change', channel=9, control=7, value=112, time=264),
    Message('note_off', channel=9, note=49, velocity=1, time=49),
    Message('control_change', channel=9, control=7, value=113, time=190),
    Message('control_change', channel=9, control=7, value=110, time=1),
    Message('note_on', channel=9, note=49, velocity=107, time=0),
    Message('control_change', channel=9, control=7, value=111, time=264),
    Message('control_change', channel=9, control=7, value=112, time=264),
    Message('note_off', channel=9, note=49, velocity=1, time=49),
    Message('control_change', channel=9, control=7, value=113, time=190),
    Message('note_on', channel=9, note=49, velocity=107, time=1),
    Message('note_off', channel=9, note=49, velocity=1, time=577),
    Message('note_on', channel=9, note=49, velocity=107, time=767),
    Message('note_off', channel=9, note=49, velocity=1, time=192),
    Message('note_on', channel=9, note=49, velocity=107, time=0),
    Message('note_off', channel=9, note=49, velocity=1, time=577),
    Message('control_change', channel=9, control=7, value=110, time=191),
    Message('note_on', channel=9, note=49, velocity=107, time=0),
    Message('control_change', channel=9, control=7, value=111, time=264),
    Message('control_change', channel=9, control=7, value=112, time=264),
    Message('note_off', channel=9, note=49, velocity=1, time=49),
    Message('control_change', channel=9, control=7, value=113, time=190),
    Message('control_change', channel=9, control=7, value=110, time=769),
    Message('note_on', channel=9, note=49, velocity=107, time=0),
    Message('control_change', channel=9, control=7, value=111, time=264),
    Message('control_change', channel=9, control=7, value=112, time=264),
    Message('note_off', channel=9, note=49, velocity=1, time=49),
    Message('control_change', channel=9, control=7, value=113, time=190),
    Message('note_on', channel=9, note=49, velocity=107, time=1537),
    Message('note_off', channel=9, note=49, velocity=1, time=577),
    Message('control_change', channel=9, control=7, value=110, time=1727),
    Message('note_on', channel=9, note=49, velocity=107, time=0),
    Message('control_change', channel=9, control=7, value=111, time=264),
    Message('control_change', channel=9, control=7, value=112, time=264),
    Message('note_off', channel=9, note=49, velocity=1, time=49),
    Message('control_change', channel=9, control=7, value=113, time=190),
    Message('note_on', channel=9, note=49, velocity=107, time=1),
    Message('note_off', channel=9, note=49, velocity=1, time=577),
    Message('control_change', channel=9, control=7, value=110, time=191),
    Message('note_on', channel=9, note=49, velocity=107, time=0),
    Message('control_change', channel=9, control=7, value=111, time=264),
    Message('control_change', channel=9, control=7, value=112, time=264),
    Message('note_off', channel=9, note=49, velocity=1, time=49),
    Message('control_change', channel=9, control=7, value=113, time=190),
    Message('control_change', channel=9, control=7, value=110, time=1),
    Message('note_on', channel=9, note=49, velocity=107, time=0),
    Message('control_change', channel=9, control=7, value=111, time=264),
    Message('control_change', channel=9, control=7, value=112, time=264),
    Message('note_off', channel=9, note=49, velocity=1, time=49),
    Message('control_change', channel=9, control=7, value=113, time=190),
    Message('control_change', channel=9, control=7, value=110, time=769),
    Message('note_on', channel=9, note=49, velocity=107, time=0),
    Message('control_change', channel=9, control=7, value=111, time=264),
    Message('control_change', channel=9, control=7, value=112, time=264),
    Message('note_off', channel=9, note=49, velocity=1, time=49),
    Message('control_change', channel=9, control=7, value=113, time=190),
    Message('note_on', channel=9, note=49, velocity=107, time=1),
    Message('note_off', channel=9, note=49, velocity=1, time=577),
    Message('note_on', channel=9, note=49, velocity=107, time=767),
    Message('note_off', channel=9, note=49, velocity=1, time=192),
    Message('control_change', channel=9, control=7, value=110, time=0),
    Message('note_on', channel=9, note=49, velocity=107, time=0),
    Message('control_change', channel=9, control=7, value=111, time=264),
    Message('control_change', channel=9, control=7, value=112, time=264),
    Message('note_off', channel=9, note=49, velocity=1, time=49),
    Message('control_change', channel=9, control=7, value=113, time=190),
    Message('control_change', channel=9, control=7, value=110, time=3073),
    Message('note_on', channel=9, note=49, velocity=107, time=0),
    Message('control_change', channel=9, control=7, value=111, time=264),
    Message('control_change', channel=9, control=7, value=112, time=264),
    Message('note_off', channel=9, note=49, velocity=1, time=49),
    Message('control_change', channel=9, control=7, value=113, time=190),
    Message('note_on', channel=9, note=49, velocity=107, time=1),
    Message('note_off', channel=9, note=49, velocity=1, time=577),
    Message('control_change', channel=9, control=7, value=110, time=3263),
    Message('note_on', channel=9, note=49, velocity=107, time=0),
    Message('control_change', channel=9, control=7, value=111, time=264),
    Message('control_change', channel=9, control=7, value=112, time=264),
    Message('note_off', channel=9, note=49, velocity=1, time=49),
    Message('control_change', channel=9, control=7, value=113, time=190),
    Message('note_on', channel=9, note=49, velocity=107, time=1345),
    Message('note_off', channel=9, note=49, velocity=1, time=192),
    Message('note_on', channel=9, note=49, velocity=107, time=0),
    Message('note_off', channel=9, note=49, velocity=1, time=577),
    Message('control_change', channel=9, control=7, value=110, time=191),
    Message('note_on', channel=9, note=49, velocity=107, time=0),
    Message('control_change', channel=9, control=7, value=111, time=264),
    Message('control_change', channel=9, control=7, value=112, time=264),
    Message('note_off', channel=9, note=49, velocity=1, time=49),
    Message('control_change', channel=9, control=7, value=113, time=190),
    Message('control_change', channel=9, control=7, value=110, time=1),
    Message('note_on', channel=9, note=49, velocity=107, time=0),
    Message('control_change', channel=9, control=7, value=111, time=264),
    Message('control_change', channel=9, control=7, value=112, time=264),
    Message('note_off', channel=9, note=49, velocity=1, time=49),
    Message('control_change', channel=9, control=7, value=113, time=190),
    Message('control_change', channel=9, control=7, value=113, time=769),
    Message('note_on', channel=9, note=49, velocity=107, time=0),
    Message('note_off', channel=9, note=49, velocity=1, time=577),
    Message('control_change', channel=9, control=7, value=110, time=191),
    Message('note_on', channel=9, note=49, velocity=107, time=0),
    Message('control_change', channel=9, control=7, value=111, time=264),
    Message('control_change', channel=9, control=7, value=112, time=264),
    Message('note_off', channel=9, note=49, velocity=1, time=49),
    Message('control_change', channel=9, control=7, value=113, time=190),
    Message('control_change', channel=9, control=7, value=123, time=1537),
    Message('note_on', channel=9, note=49, velocity=107, time=0),
    Message('note_off', channel=9, note=49, velocity=1, time=577),
    Message('control_change', channel=9, control=7, value=110, time=191),
    Message('note_on', channel=9, note=49, velocity=107, time=0),
    Message('control_change', channel=9, control=7, value=111, time=264),
    Message('control_change', channel=9, control=7, value=112, time=264),
    Message('note_off', channel=9, note=49, velocity=1, time=49),
    Message('control_change', channel=9, control=7, value=113, time=190),
    Message('control_change', channel=9, control=7, value=110, time=769),
    Message('note_on', channel=9, note=49, velocity=107, time=0),
    Message('control_change', channel=9, control=7, value=111, time=264),
    Message('control_change', channel=9, control=7, value=112, time=264),
    Message('note_off', channel=9, note=49, velocity=1, time=49),
    Message('control_change', channel=9, control=7, value=113, time=190),
    Message('control_change', channel=9, control=7, value=110, time=1),
    Message('note_on', channel=9, note=49, velocity=107, time=0),
    Message('control_change', channel=9, control=7, value=111, time=264),
    Message('control_change', channel=9, control=7, value=112, time=264),
    Message('note_off', channel=9, note=49, velocity=1, time=49),
    Message('control_change', channel=9, control=7, value=113, time=190),
    Message('control_change', channel=9, control=7, value=110, time=1),
    Message('note_on', channel=9, note=49, velocity=107, time=0),
    Message('control_change', channel=9, control=7, value=111, time=264),
    Message('control_change', channel=9, control=7, value=112, time=264),
    Message('note_off', channel=9, note=49, velocity=1, time=49),
    Message('control_change', channel=9, control=7, value=113, time=190),
    Message('control_change', channel=9, control=7, value=110, time=1),
    Message('note_on', channel=9, note=49, velocity=107, time=0),
    Message('control_change', channel=9, control=7, value=111, time=264),
    Message('control_change', channel=9, control=7, value=112, time=264),
    Message('note_off', channel=9, note=49, velocity=1, time=49),
    Message('control_change', channel=9, control=7, value=113, time=190),
    Message('control_change', channel=9, control=7, value=110, time=1),
    Message('note_on', channel=9, note=49, velocity=107, time=0),
    Message('control_change', channel=9, control=7, value=111, time=264),
    Message('control_change', channel=9, control=7, value=112, time=264),
    Message('note_off', channel=9, note=49, velocity=1, time=49),
    Message('control_change', channel=9, control=7, value=113, time=190),
    Message('control_change', channel=9, control=7, value=110, time=1),
    Message('note_on', channel=9, note=49, velocity=107, time=0),
    Message('control_change', channel=9, control=7, value=111, time=264),
    Message('control_change', channel=9, control=7, value=112, time=264),
    Message('note_off', channel=9, note=49, velocity=1, time=49),
    Message('control_change', channel=9, control=7, value=113, time=190),
    Message('note_on', channel=9, note=49, velocity=107, time=1),
    Message('note_off', channel=9, note=49, velocity=1, time=577),
    Message('control_change', channel=9, control=7, value=110, time=191),
    Message('note_on', channel=9, note=49, velocity=107, time=0),
    Message('control_change', channel=9, control=7, value=111, time=264),
    Message('control_change', channel=9, control=7, value=112, time=264),
    Message('note_off', channel=9, note=49, velocity=1, time=49),
    Message('control_change', channel=9, control=7, value=113, time=190),
    Message('note_on', channel=9, note=49, velocity=107, time=1),
    Message('note_off', channel=9, note=49, velocity=1, time=577),
    Message('control_change', channel=9, control=7, value=110, time=959),
    Message('note_on', channel=9, note=49, velocity=107, time=0),
    Message('control_change', channel=9, control=7, value=111, time=264),
    Message('control_change', channel=9, control=7, value=112, time=264),
    Message('note_off', channel=9, note=49, velocity=1, time=49),
    Message('control_change', channel=9, control=7, value=113, time=190),
    Message('control_change', channel=9, control=7, value=110, time=769),
    Message('note_on', channel=9, note=49, velocity=107, time=0),
    Message('control_change', channel=9, control=7, value=111, time=264),
    Message('control_change', channel=9, control=7, value=112, time=264),
    Message('note_off', channel=9, note=49, velocity=1, time=49),
    Message('control_change', channel=9, control=7, value=113, time=190),
    Message('control_change', channel=9, control=7, value=110, time=769),
    Message('note_on', channel=9, note=49, velocity=107, time=0),
    Message('control_change', channel=9, control=7, value=111, time=264),
    Message('control_change', channel=9, control=7, value=112, time=264),
    Message('note_off', channel=9, note=49, velocity=1, time=49),
    Message('control_change', channel=9, control=7, value=113, time=190),
    Message('control_change', channel=9, control=7, value=110, time=769),
    Message('note_on', channel=9, note=49, velocity=107, time=0),
    Message('control_change', channel=9, control=7, value=111, time=264),
    Message('control_change', channel=9, control=7, value=112, time=264),
    Message('note_off', channel=9, note=49, velocity=1, time=49),
    Message('control_change', channel=9, control=7, value=113, time=190),
    Message('note_on', channel=9, note=49, velocity=107, time=769),
    Message('note_off', channel=9, note=49, velocity=1, time=577),
    Message('note_on', channel=9, note=49, velocity=107, time=959),
    Message('note_off', channel=9, note=49, velocity=1, time=577),
    Message('control_change', channel=9, control=7, value=110, time=191),
    Message('note_on', channel=9, note=49, velocity=107, time=0),
    Message('control_change', channel=9, control=7, value=111, time=264),
    Message('control_change', channel=9, control=7, value=112, time=264),
    Message('note_off', channel=9, note=49, velocity=1, time=49),
    Message('control_change', channel=9, control=7, value=113, time=190),
    Message('control_change', channel=9, control=7, value=110, time=1),
    Message('note_on', channel=9, note=49, velocity=107, time=0),
    Message('control_change', channel=9, control=7, value=111, time=264),
    Message('control_change', channel=9, control=7, value=112, time=264),
    Message('note_off', channel=9, note=49, velocity=1, time=49),
    Message('control_change', channel=9, control=7, value=113, time=190),
    Message('note_on', channel=9, note=49, velocity=107, time=1),
    Message('note_off', channel=9, note=49, velocity=1, time=577),
    Message('control_change', channel=9, control=7, value=110, time=191),
    Message('note_on', channel=9, note=49, velocity=107, time=0),
    Message('control_change', channel=9, control=7, value=111, time=264),
    Message('control_change', channel=9, control=7, value=112, time=264),
    Message('note_off', channel=9, note=49, velocity=1, time=49),
    Message('control_change', channel=9, control=7, value=113, time=190),
    Message('note_on', channel=9, note=49, velocity=107, time=1),
    Message('note_off', channel=9, note=49, velocity=1, time=577),
    Message('control_change', channel=9, control=7, value=120, time=959),
    Message('note_on', channel=9, note=49, velocity=102, time=0),
    Message('note_off', channel=9, note=49, velocity=1, time=577),
    Message('note_on', channel=9, note=49, velocity=102, time=959),
    Message('note_off', channel=9, note=49, velocity=1, time=577),
    Message('note_on', channel=9, note=49, velocity=102, time=767),
    Message('note_off', channel=9, note=49, velocity=1, time=192),
    Message('note_on', channel=9, note=49, velocity=102, time=0),
    Message('note_off', channel=9, note=49, velocity=1, time=577),
    Message('note_on', channel=9, note=49, velocity=127, time=1727),
    Message('note_off', channel=9, note=49, velocity=1, time=577),
    Message('note_on', channel=9, note=49, velocity=127, time=191),
    Message('note_off', channel=9, note=49, velocity=1, time=577),
    Message('note_on', channel=9, note=49, velocity=127, time=191),
    Message('note_off', channel=9, note=49, velocity=1, time=577),
    Message('note_on', channel=9, note=49, velocity=127, time=191),
    Message('note_off', channel=9, note=49, velocity=1, time=576),
    Message('note_on', channel=9, note=49, velocity=127, time=0),
    Message('note_off', channel=9, note=49, velocity=1, time=192),
    Message('note_on', channel=9, note=49, velocity=127, time=0),
    Message('note_off', channel=9, note=49, velocity=1, time=577),
    Message('note_on', channel=9, note=49, velocity=127, time=4031),
    Message('note_off', channel=9, note=49, velocity=1, time=577),
    Message('note_on', channel=9, note=49, velocity=127, time=1535),
    Message('note_off', channel=9, note=49, velocity=1, time=192),
    Message('control_change', channel=9, control=7, value=119, time=0),
    Message('note_on', channel=9, note=49, velocity=127, time=0),
    Message('control_change', channel=9, control=7, value=118, time=48),
    Message('control_change', channel=9, control=7, value=117, time=48),
    Message('control_change', channel=9, control=7, value=116, time=48),
    Message('control_change', channel=9, control=7, value=115, time=24),
    Message('control_change', channel=9, control=7, value=114, time=48),
    Message('control_change', channel=9, control=7, value=113, time=48),
    Message('control_change', channel=9, control=7, value=112, time=24),
    Message('control_change', channel=9, control=7, value=111, time=48),
    Message('control_change', channel=9, control=7, value=110, time=48),
    Message('control_change', channel=9, control=7, value=109, time=24),
    Message('control_change', channel=9, control=7, value=108, time=48),
    Message('control_change', channel=9, control=7, value=107, time=48),
    Message('control_change', channel=9, control=7, value=106, time=24),
    Message('control_change', channel=9, control=7, value=105, time=48),
    Message('note_off', channel=9, note=49, velocity=1, time=1),
    Message('control_change', channel=9, control=7, value=104, time=47),
    Message('control_change', channel=9, control=7, value=103, time=24),
    Message('control_change', channel=9, control=7, value=102, time=48),
    Message('control_change', channel=9, control=7, value=101, time=48),
    Message('control_change', channel=9, control=7, value=100, time=24),
    Message('control_change', channel=9, control=7, value=99, time=48),
    Message('control_change', channel=9, control=7, value=98, time=48),
    Message('control_change', channel=9, control=7, value=97, time=48),
    Message('control_change', channel=9, control=7, value=96, time=24),
    Message('control_change', channel=9, control=7, value=95, time=48),
    Message('control_change', channel=9, control=7, value=94, time=48),
    Message('control_change', channel=9, control=7, value=93, time=24),
    Message('control_change', channel=9, control=7, value=92, time=48),
    Message('control_change', channel=9, control=7, value=91, time=48),
    Message('control_change', channel=9, control=7, value=90, time=24),
    Message('control_change', channel=9, control=7, value=89, time=48),
    Message('control_change', channel=9, control=7, value=88, time=48),
    Message('control_change', channel=9, control=7, value=87, time=24),
    Message('control_change', channel=9, control=7, value=86, time=48),
    Message('control_change', channel=9, control=7, value=85, time=48),
    Message('control_change', channel=9, control=7, value=84, time=24),
    Message('control_change', channel=9, control=7, value=83, time=48),
    Message('control_change', channel=9, control=7, value=82, time=48),
    Message('control_change', channel=9, control=7, value=81, time=24),
    Message('control_change', channel=9, control=7, value=80, time=48),
    Message('control_change', channel=9, control=7, value=79, time=48),
    Message('control_change', channel=9, control=7, value=78, time=48),
    Message('control_change', channel=9, control=7, value=77, time=24),
    Message('control_change', channel=9, control=7, value=76, time=48),
    Message('control_change', channel=9, control=7, value=75, time=48),
    Message('control_change', channel=9, control=7, value=74, time=24),
    Message('control_change', channel=9, control=7, value=73, time=48),
    Message('control_change', channel=9, control=7, value=72, time=48),
    Message('control_change', channel=9, control=7, value=71, time=24),
    Message('control_change', channel=9, control=7, value=70, time=48),
    Message('control_change', channel=9, control=7, value=69, time=48),
    Message('control_change', channel=9, control=7, value=68, time=24),
    Message('control_change', channel=9, control=7, value=67, time=48),
    Message('control_change', channel=9, control=7, value=66, time=48),
    Message('control_change', channel=9, control=7, value=65, time=24),
    Message('control_change', channel=9, control=7, value=64, time=48),
    Message('control_change', channel=9, control=7, value=63, time=48),
    Message('control_change', channel=9, control=7, value=62, time=24),
    Message('control_change', channel=9, control=7, value=61, time=48),
    Message('control_change', channel=9, control=7, value=60, time=48),
    Message('control_change', channel=9, control=7, value=59, time=48),
    Message('control_change', channel=9, control=7, value=58, time=24),
    Message('control_change', channel=9, control=7, value=57, time=48),
    Message('control_change', channel=9, control=7, value=56, time=48),
    Message('control_change', channel=9, control=7, value=55, time=24),
    Message('control_change', channel=9, control=7, value=54, time=48),
    Message('control_change', channel=9, control=7, value=53, time=48),
    Message('control_change', channel=9, control=7, value=52, time=24),
    Message('control_change', channel=9, control=7, value=51, time=48),
    Message('control_change', channel=9, control=7, value=50, time=48),
    Message('control_change', channel=9, control=7, value=49, time=24),
    Message('control_change', channel=9, control=7, value=48, time=48),
    Message('control_change', channel=9, control=7, value=47, time=48),
    Message('control_change', channel=9, control=7, value=46, time=24),
    Message('control_change', channel=9, control=7, value=45, time=48),
    Message('control_change', channel=9, control=7, value=44, time=48),
    Message('control_change', channel=9, control=7, value=43, time=24),
    Message('control_change', channel=9, control=7, value=42, time=48),
    Message('control_change', channel=9, control=7, value=41, time=48),
    Message('control_change', channel=9, control=7, value=40, time=48),
    Message('control_change', channel=9, control=7, value=39, time=24),
    Message('control_change', channel=9, control=7, value=38, time=48),
    Message('control_change', channel=9, control=7, value=37, time=48),
    Message('control_change', channel=9, control=7, value=36, time=24),
    Message('control_change', channel=9, control=7, value=35, time=48),
    Message('control_change', channel=9, control=7, value=34, time=48),
    Message('control_change', channel=9, control=7, value=33, time=24),
    Message('control_change', channel=9, control=7, value=32, time=48),
    Message('control_change', channel=9, control=7, value=31, time=48),
    Message('control_change', channel=9, control=7, value=30, time=24),
    Message('control_change', channel=9, control=7, value=29, time=48),
    Message('control_change', channel=9, control=7, value=28, time=48),
    Message('control_change', channel=9, control=7, value=27, time=24),
    Message('control_change', channel=9, control=7, value=26, time=48),
    Message('control_change', channel=9, control=7, value=25, time=48),
    Message('control_change', channel=9, control=7, value=19, time=24),
    Message('control_change', channel=9, control=7, value=18, time=96),
    Message('control_change', channel=9, control=7, value=17, time=72),
    Message('control_change', channel=9, control=7, value=16, time=72),
    Message('control_change', channel=9, control=7, value=15, time=72),
    Message('control_change', channel=9, control=7, value=14, time=72),
    Message('control_change', channel=9, control=7, value=13, time=96),
    Message('control_change', channel=9, control=7, value=12, time=72),
    Message('control_change', channel=9, control=7, value=11, time=72),
    Message('control_change', channel=9, control=7, value=10, time=72),
    Message('control_change', channel=9, control=7, value=9, time=72),
    Message('control_change', channel=9, control=7, value=8, time=96),
    Message('control_change', channel=9, control=7, value=7, time=72),
    Message('control_change', channel=9, control=7, value=6, time=72),
    Message('control_change', channel=9, control=7, value=5, time=72),
    Message('control_change', channel=9, control=7, value=4, time=72),
    Message('control_change', channel=9, control=7, value=3, time=96),
    Message('control_change', channel=9, control=7, value=2, time=72),
    Message('control_change', channel=9, control=7, value=1, time=72),
    Message('control_change', channel=9, control=7, value=0, time=72),
    Message('pitchwheel', channel=9, pitch=0, time=840),
    Message('polytouch', channel=9, note=64, value=0, time=0),
    Message('aftertouch', channel=9, value=0, time=0),
    Message('control_change', channel=9, control=1, value=0, time=0),
    Message('control_change', channel=9, control=2, value=0, time=0),
    Message('control_change', channel=9, control=4, value=0, time=0),
    Message('control_change', channel=9, control=7, value=100, time=0),
    Message('control_change', channel=9, control=8, value=0, time=0),
    Message('control_change', channel=9, control=10, value=63, time=0),
    Message('control_change', channel=9, control=64, value=0, time=0),
    Message('control_change', channel=9, control=65, value=0, time=0),
    Message('control_change', channel=9, control=66, value=0, time=0),
    Message('control_change', channel=9, control=67, value=0, time=0),
    Message('control_change', channel=9, control=68, value=0, time=0),
    MetaMessage('end_of_track', time=0)]),
  MidiTrack([
    MetaMessage('midi_port', port=0, time=0),
    MetaMessage('track_name', name='Cymbals 2           ', time=0),
    Message('control_change', channel=9, control=7, value=111, time=0),
    Message('note_on', channel=9, note=52, velocity=107, time=20),
    Message('control_change', channel=9, control=7, value=112, time=244),
    Message('control_change', channel=9, control=7, value=113, time=264),
    Message('note_off', channel=9, note=52, velocity=1, time=69),
    Message('control_change', channel=9, control=7, value=114, time=170),
    Message('note_on', channel=9, note=52, velocity=107, time=1557),
    Message('note_off', channel=9, note=52, velocity=1, time=577),
    Message('note_on', channel=9, note=52, velocity=107, time=1727),
    Message('note_off', channel=9, note=52, velocity=1, time=577),
    Message('control_change', channel=9, control=7, value=114, time=1727),
    Message('note_on', channel=9, note=52, velocity=107, time=768),
    Message('note_off', channel=9, note=52, velocity=1, time=577),
    Message('note_on', channel=9, note=52, velocity=107, time=767),
    Message('note_off', channel=9, note=52, velocity=1, time=192),
    Message('control_change', channel=9, control=7, value=110, time=0),
    Message('note_on', channel=9, note=52, velocity=107, time=0),
    Message('control_change', channel=9, control=7, value=111, time=264),
    Message('control_change', channel=9, control=7, value=112, time=264),
    Message('note_off', channel=9, note=52, velocity=1, time=49),
    Message('control_change', channel=9, control=7, value=113, time=190),
    Message('note_on', channel=9, note=52, velocity=107, time=3073),
    Message('note_off', channel=9, note=52, velocity=1, time=577),
    Message('control_change', channel=9, control=7, value=110, time=191),
    Message('note_on', channel=9, note=52, velocity=107, time=0),
    Message('control_change', channel=9, control=7, value=111, time=264),
    Message('control_change', channel=9, control=7, value=112, time=264),
    Message('note_off', channel=9, note=52, velocity=1, time=49),
    Message('control_change', channel=9, control=7, value=113, time=190),
    Message('control_change', channel=9, control=7, value=110, time=1),
    Message('note_on', channel=9, note=52, velocity=107, time=0),
    Message('control_change', channel=9, control=7, value=111, time=264),
    Message('control_change', channel=9, control=7, value=112, time=264),
    Message('note_off', channel=9, note=52, velocity=1, time=49),
    Message('control_change', channel=9, control=7, value=113, time=190),
    Message('note_on', channel=9, note=52, velocity=107, time=1537),
    Message('note_off', channel=9, note=52, velocity=1, time=577),
    Message('note_on', channel=9, note=52, velocity=107, time=767),
    Message('note_off', channel=9, note=52, velocity=1, time=577),
    Message('note_on', channel=9, note=52, velocity=107, time=383),
    Message('note_off', channel=9, note=52, velocity=1, time=577),
    Message('control_change', channel=9, control=7, value=110, time=7103),
    Message('note_on', channel=9, note=52, velocity=107, time=0),
    Message('control_change', channel=9, control=7, value=111, time=264),
    Message('control_change', channel=9, control=7, value=112, time=264),
    Message('note_off', channel=9, note=52, velocity=1, time=49),
    Message('control_change', channel=9, control=7, value=113, time=190),
    Message('note_on', channel=9, note=52, velocity=107, time=769),
    Message('note_off', channel=9, note=52, velocity=1, time=577),
    Message('control_change', channel=9, control=7, value=110, time=191),
    Message('note_on', channel=9, note=52, velocity=107, time=0),
    Message('control_change', channel=9, control=7, value=111, time=264),
    Message('control_change', channel=9, control=7, value=112, time=264),
    Message('note_off', channel=9, note=52, velocity=1, time=49),
    Message('control_change', channel=9, control=7, value=110, time=191),
    Message('note_on', channel=9, note=52, velocity=107, time=0),
    Message('control_change', channel=9, control=7, value=111, time=264),
    Message('control_change', channel=9, control=7, value=112, time=264),
    Message('note_off', channel=9, note=52, velocity=1, time=49),
    Message('control_change', channel=9, control=7, value=113, time=190),
    Message('note_on', channel=9, note=52, velocity=107, time=1),
    Message('note_off', channel=9, note=52, velocity=1, time=577),
    Message('note_on', channel=9, note=52, velocity=107, time=767),
    Message('note_off', channel=9, note=52, velocity=1, time=192),
    Message('note_on', channel=9, note=52, velocity=107, time=0),
    Message('note_off', channel=9, note=52, velocity=1, time=577),
    Message('control_change', channel=9, control=7, value=110, time=191),
    Message('note_on', channel=9, note=52, velocity=107, time=0),
    Message('control_change', channel=9, control=7, value=111, time=264),
    Message('control_change', channel=9, control=7, value=112, time=264),
    Message('note_off', channel=9, note=52, velocity=1, time=49),
    Message('control_change', channel=9, control=7, value=113, time=190),
    Message('control_change', channel=9, control=7, value=110, time=769),
    Message('note_on', channel=9, note=52, velocity=107, time=0),
    Message('control_change', channel=9, control=7, value=111, time=264),
    Message('control_change', channel=9, control=7, value=112, time=264),
    Message('note_off', channel=9, note=52, velocity=1, time=49),
    Message('control_change', channel=9, control=7, value=113, time=190),
    Message('note_on', channel=9, note=52, velocity=107, time=1537),
    Message('note_off', channel=9, note=52, velocity=1, time=577),
    Message('control_change', channel=9, control=7, value=110, time=1727),
    Message('note_on', channel=9, note=52, velocity=107, time=0),
    Message('control_change', channel=9, control=7, value=111, time=264),
    Message('control_change', channel=9, control=7, value=112, time=264),
    Message('note_off', channel=9, note=52, velocity=1, time=49),
    Message('control_change', channel=9, control=7, value=113, time=190),
    Message('note_on', channel=9, note=52, velocity=107, time=1),
    Message('note_off', channel=9, note=52, velocity=1, time=577),
    Message('control_change', channel=9, control=7, value=110, time=191),
    Message('note_on', channel=9, note=52, velocity=107, time=0),
    Message('control_change', channel=9, control=7, value=111, time=264),
    Message('control_change', channel=9, control=7, value=112, time=264),
    Message('note_off', channel=9, note=52, velocity=1, time=49),
    Message('control_change', channel=9, control=7, value=113, time=190),
    Message('control_change', channel=9, control=7, value=110, time=1),
    Message('note_on', channel=9, note=52, velocity=107, time=0),
    Message('control_change', channel=9, control=7, value=111, time=264),
    Message('control_change', channel=9, control=7, value=112, time=264),
    Message('note_off', channel=9, note=52, velocity=1, time=49),
    Message('control_change', channel=9, control=7, value=113, time=190),
    Message('control_change', channel=9, control=7, value=110, time=769),
    Message('note_on', channel=9, note=52, velocity=107, time=0),
    Message('control_change', channel=9, control=7, value=111, time=264),
    Message('control_change', channel=9, control=7, value=112, time=264),
    Message('note_off', channel=9, note=52, velocity=1, time=49),
    Message('control_change', channel=9, control=7, value=113, time=190),
    Message('note_on', channel=9, note=52, velocity=107, time=1),
    Message('note_off', channel=9, note=52, velocity=1, time=577),
    Message('note_on', channel=9, note=52, velocity=107, time=767),
    Message('note_off', channel=9, note=52, velocity=1, time=192),
    Message('control_change', channel=9, control=7, value=110, time=0),
    Message('note_on', channel=9, note=52, velocity=107, time=0),
    Message('control_change', channel=9, control=7, value=111, time=264),
    Message('control_change', channel=9, control=7, value=112, time=264),
    Message('note_off', channel=9, note=52, velocity=1, time=49),
    Message('control_change', channel=9, control=7, value=113, time=190),
    Message('control_change', channel=9, control=7, value=110, time=3073),
    Message('note_on', channel=9, note=52, velocity=107, time=0),
    Message('control_change', channel=9, control=7, value=111, time=264),
    Message('control_change', channel=9, control=7, value=112, time=264),
    Message('note_off', channel=9, note=52, velocity=1, time=49),
    Message('control_change', channel=9, control=7, value=113, time=190),
    Message('note_on', channel=9, note=52, velocity=107, time=1),
    Message('note_off', channel=9, note=52, velocity=1, time=577),
    Message('control_change', channel=9, control=7, value=110, time=3263),
    Message('note_on', channel=9, note=52, velocity=107, time=0),
    Message('control_change', channel=9, control=7, value=111, time=264),
    Message('control_change', channel=9, control=7, value=112, time=264),
    Message('note_off', channel=9, note=52, velocity=1, time=49),
    Message('control_change', channel=9, control=7, value=113, time=190),
    Message('note_on', channel=9, note=52, velocity=107, time=1345),
    Message('note_off', channel=9, note=52, velocity=1, time=192),
    Message('note_on', channel=9, note=52, velocity=107, time=0),
    Message('note_off', channel=9, note=52, velocity=1, time=577),
    Message('control_change', channel=9, control=7, value=110, time=191),
    Message('note_on', channel=9, note=52, velocity=107, time=0),
    Message('control_change', channel=9, control=7, value=111, time=264),
    Message('control_change', channel=9, control=7, value=112, time=264),
    Message('note_off', channel=9, note=52, velocity=1, time=49),
    Message('control_change', channel=9, control=7, value=113, time=190),
    Message('control_change', channel=9, control=7, value=110, time=1),
    Message('note_on', channel=9, note=52, velocity=107, time=0),
    Message('control_change', channel=9, control=7, value=111, time=264),
    Message('control_change', channel=9, control=7, value=112, time=264),
    Message('note_off', channel=9, note=52, velocity=1, time=49),
    Message('control_change', channel=9, control=7, value=113, time=190),
    Message('control_change', channel=9, control=7, value=113, time=769),
    Message('note_on', channel=9, note=52, velocity=107, time=0),
    Message('note_off', channel=9, note=52, velocity=1, time=577),
    Message('control_change', channel=9, control=7, value=110, time=191),
    Message('note_on', channel=9, note=52, velocity=107, time=0),
    Message('control_change', channel=9, control=7, value=111, time=264),
    Message('control_change', channel=9, control=7, value=112, time=264),
    Message('note_off', channel=9, note=52, velocity=1, time=49),
    Message('control_change', channel=9, control=7, value=113, time=190),
    Message('control_change', channel=9, control=7, value=123, time=1537),
    Message('note_on', channel=9, note=52, velocity=107, time=0),
    Message('note_off', channel=9, note=52, velocity=1, time=577),
    Message('control_change', channel=9, control=7, value=110, time=191),
    Message('note_on', channel=9, note=52, velocity=107, time=0),
    Message('control_change', channel=9, control=7, value=111, time=264),
    Message('control_change', channel=9, control=7, value=112, time=264),
    Message('note_off', channel=9, note=52, velocity=1, time=49),
    Message('control_change', channel=9, control=7, value=113, time=190),
    Message('control_change', channel=9, control=7, value=110, time=769),
    Message('note_on', channel=9, note=52, velocity=107, time=0),
    Message('control_change', channel=9, control=7, value=111, time=264),
    Message('control_change', channel=9, control=7, value=112, time=264),
    Message('note_off', channel=9, note=52, velocity=1, time=49),
    Message('control_change', channel=9, control=7, value=113, time=190),
    Message('control_change', channel=9, control=7, value=110, time=1),
    Message('note_on', channel=9, note=52, velocity=107, time=0),
    Message('control_change', channel=9, control=7, value=111, time=264),
    Message('control_change', channel=9, control=7, value=112, time=264),
    Message('note_off', channel=9, note=52, velocity=1, time=49),
    Message('control_change', channel=9, control=7, value=113, time=190),
    Message('control_change', channel=9, control=7, value=110, time=1),
    Message('note_on', channel=9, note=52, velocity=107, time=0),
    Message('control_change', channel=9, control=7, value=111, time=264),
    Message('control_change', channel=9, control=7, value=112, time=264),
    Message('note_off', channel=9, note=52, velocity=1, time=49),
    Message('control_change', channel=9, control=7, value=113, time=190),
    Message('control_change', channel=9, control=7, value=110, time=1),
    Message('note_on', channel=9, note=52, velocity=107, time=0),
    Message('control_change', channel=9, control=7, value=111, time=264),
    Message('control_change', channel=9, control=7, value=112, time=264),
    Message('note_off', channel=9, note=52, velocity=1, time=49),
    Message('control_change', channel=9, control=7, value=113, time=190),
    Message('control_change', channel=9, control=7, value=110, time=1),
    Message('note_on', channel=9, note=52, velocity=107, time=0),
    Message('control_change', channel=9, control=7, value=111, time=264),
    Message('control_change', channel=9, control=7, value=112, time=264),
    Message('note_off', channel=9, note=52, velocity=1, time=49),
    Message('control_change', channel=9, control=7, value=113, time=190),
    Message('control_change', channel=9, control=7, value=110, time=1),
    Message('note_on', channel=9, note=52, velocity=107, time=0),
    Message('control_change', channel=9, control=7, value=111, time=264),
    Message('control_change', channel=9, control=7, value=112, time=264),
    Message('note_off', channel=9, note=52, velocity=1, time=49),
    Message('control_change', channel=9, control=7, value=113, time=190),
    Message('note_on', channel=9, note=52, velocity=107, time=1),
    Message('note_off', channel=9, note=52, velocity=1, time=577),
    Message('control_change', channel=9, control=7, value=110, time=191),
    Message('note_on', channel=9, note=52, velocity=107, time=0),
    Message('control_change', channel=9, control=7, value=111, time=264),
    Message('control_change', channel=9, control=7, value=112, time=264),
    Message('note_off', channel=9, note=52, velocity=1, time=49),
    Message('control_change', channel=9, control=7, value=113, time=190),
    Message('note_on', channel=9, note=52, velocity=107, time=1),
    Message('note_off', channel=9, note=52, velocity=1, time=577),
    Message('control_change', channel=9, control=7, value=110, time=959),
    Message('note_on', channel=9, note=52, velocity=107, time=0),
    Message('control_change', channel=9, control=7, value=111, time=264),
    Message('control_change', channel=9, control=7, value=112, time=264),
    Message('note_off', channel=9, note=52, velocity=1, time=49),
    Message('control_change', channel=9, control=7, value=113, time=190),
    Message('control_change', channel=9, control=7, value=110, time=769),
    Message('note_on', channel=9, note=52, velocity=107, time=0),
    Message('control_change', channel=9, control=7, value=111, time=264),
    Message('control_change', channel=9, control=7, value=112, time=264),
    Message('note_off', channel=9, note=52, velocity=1, time=49),
    Message('control_change', channel=9, control=7, value=113, time=190),
    Message('control_change', channel=9, control=7, value=110, time=769),
    Message('note_on', channel=9, note=52, velocity=107, time=0),
    Message('control_change', channel=9, control=7, value=111, time=264),
    Message('control_change', channel=9, control=7, value=112, time=264),
    Message('note_off', channel=9, note=52, velocity=1, time=49),
    Message('control_change', channel=9, control=7, value=113, time=190),
    Message('control_change', channel=9, control=7, value=110, time=769),
    Message('note_on', channel=9, note=52, velocity=107, time=0),
    Message('control_change', channel=9, control=7, value=111, time=264),
    Message('control_change', channel=9, control=7, value=112, time=264),
    Message('note_off', channel=9, note=52, velocity=1, time=49),
    Message('control_change', channel=9, control=7, value=113, time=190),
    Message('note_on', channel=9, note=52, velocity=107, time=769),
    Message('note_off', channel=9, note=52, velocity=1, time=577),
    Message('note_on', channel=9, note=52, velocity=107, time=959),
    Message('note_off', channel=9, note=52, velocity=1, time=577),
    Message('control_change', channel=9, control=7, value=110, time=191),
    Message('note_on', channel=9, note=52, velocity=107, time=0),
    Message('control_change', channel=9, control=7, value=111, time=264),
    Message('control_change', channel=9, control=7, value=112, time=264),
    Message('note_off', channel=9, note=52, velocity=1, time=49),
    Message('control_change', channel=9, control=7, value=113, time=190),
    Message('control_change', channel=9, control=7, value=110, time=1),
    Message('note_on', channel=9, note=52, velocity=107, time=0),
    Message('control_change', channel=9, control=7, value=111, time=264),
    Message('control_change', channel=9, control=7, value=112, time=264),
    Message('note_off', channel=9, note=52, velocity=1, time=49),
    Message('control_change', channel=9, control=7, value=113, time=190),
    Message('note_on', channel=9, note=52, velocity=107, time=1),
    Message('note_off', channel=9, note=52, velocity=1, time=577),
    Message('control_change', channel=9, control=7, value=110, time=191),
    Message('note_on', channel=9, note=52, velocity=107, time=0),
    Message('control_change', channel=9, control=7, value=111, time=264),
    Message('control_change', channel=9, control=7, value=112, time=264),
    Message('note_off', channel=9, note=52, velocity=1, time=49),
    Message('control_change', channel=9, control=7, value=113, time=190),
    Message('note_on', channel=9, note=52, velocity=107, time=1),
    Message('note_off', channel=9, note=52, velocity=1, time=577),
    Message('control_change', channel=9, control=7, value=120, time=959),
    Message('note_on', channel=9, note=52, velocity=102, time=0),
    Message('note_off', channel=9, note=52, velocity=1, time=577),
    Message('note_on', channel=9, note=52, velocity=102, time=959),
    Message('note_off', channel=9, note=52, velocity=1, time=577),
    Message('note_on', channel=9, note=52, velocity=102, time=767),
    Message('note_off', channel=9, note=52, velocity=1, time=192),
    Message('note_on', channel=9, note=52, velocity=102, time=0),
    Message('note_off', channel=9, note=52, velocity=1, time=577),
    Message('note_on', channel=9, note=52, velocity=127, time=1727),
    Message('note_off', channel=9, note=52, velocity=1, time=577),
    Message('note_on', channel=9, note=52, velocity=127, time=191),
    Message('note_off', channel=9, note=52, velocity=1, time=577),
    Message('note_on', channel=9, note=52, velocity=127, time=191),
    Message('note_off', channel=9, note=52, velocity=1, time=577),
    Message('note_on', channel=9, note=52, velocity=127, time=179),
    Message('note_off', channel=9, note=52, velocity=1, time=576),
    Message('note_on', channel=9, note=52, velocity=127, time=12),
    Message('note_off', channel=9, note=52, velocity=1, time=192),
    Message('note_on', channel=9, note=52, velocity=127, time=0),
    Message('note_off', channel=9, note=52, velocity=1, time=577),
    Message('note_on', channel=9, note=52, velocity=127, time=4031),
    Message('note_off', channel=9, note=52, velocity=1, time=577),
    Message('note_on', channel=9, note=52, velocity=127, time=1535),
    Message('control_change', channel=9, control=7, value=119, time=172),
    Message('note_off', channel=9, note=52, velocity=1, time=20),
    Message('note_on', channel=9, note=52, velocity=127, time=0),
    Message('control_change', channel=9, control=7, value=118, time=28),
    Message('control_change', channel=9, control=7, value=117, time=48),
    Message('control_change', channel=9, control=7, value=116, time=48),
    Message('control_change', channel=9, control=7, value=115, time=24),
    Message('control_change', channel=9, control=7, value=114, time=48),
    Message('control_change', channel=9, control=7, value=113, time=48),
    Message('control_change', channel=9, control=7, value=112, time=24),
    Message('control_change', channel=9, control=7, value=111, time=48),
    Message('control_change', channel=9, control=7, value=110, time=48),
    Message('control_change', channel=9, control=7, value=109, time=24),
    Message('control_change', channel=9, control=7, value=108, time=48),
    Message('control_change', channel=9, control=7, value=107, time=48),
    Message('control_change', channel=9, control=7, value=106, time=24),
    Message('control_change', channel=9, control=7, value=105, time=48),
    Message('note_off', channel=9, note=52, velocity=1, time=21),
    Message('control_change', channel=9, control=7, value=104, time=27),
    Message('control_change', channel=9, control=7, value=103, time=24),
    Message('control_change', channel=9, control=7, value=102, time=48),
    Message('control_change', channel=9, control=7, value=101, time=48),
    Message('control_change', channel=9, control=7, value=100, time=24),
    Message('control_change', channel=9, control=7, value=99, time=48),
    Message('control_change', channel=9, control=7, value=98, time=48),
    Message('control_change', channel=9, control=7, value=97, time=48),
    Message('control_change', channel=9, control=7, value=96, time=24),
    Message('control_change', channel=9, control=7, value=95, time=48),
    Message('control_change', channel=9, control=7, value=94, time=48),
    Message('control_change', channel=9, control=7, value=93, time=24),
    Message('control_change', channel=9, control=7, value=92, time=48),
    Message('control_change', channel=9, control=7, value=91, time=48),
    Message('control_change', channel=9, control=7, value=90, time=24),
    Message('control_change', channel=9, control=7, value=89, time=48),
    Message('control_change', channel=9, control=7, value=88, time=48),
    Message('control_change', channel=9, control=7, value=87, time=24),
    Message('control_change', channel=9, control=7, value=86, time=48),
    Message('control_change', channel=9, control=7, value=85, time=48),
    Message('control_change', channel=9, control=7, value=84, time=24),
    Message('control_change', channel=9, control=7, value=83, time=48),
    Message('control_change', channel=9, control=7, value=82, time=48),
    Message('control_change', channel=9, control=7, value=81, time=24),
    Message('control_change', channel=9, control=7, value=80, time=48),
    Message('control_change', channel=9, control=7, value=79, time=48),
    Message('control_change', channel=9, control=7, value=78, time=48),
    Message('control_change', channel=9, control=7, value=77, time=24),
    Message('control_change', channel=9, control=7, value=76, time=48),
    Message('control_change', channel=9, control=7, value=75, time=48),
    Message('control_change', channel=9, control=7, value=74, time=24),
    Message('control_change', channel=9, control=7, value=73, time=48),
    Message('control_change', channel=9, control=7, value=72, time=48),
    Message('control_change', channel=9, control=7, value=71, time=24),
    Message('control_change', channel=9, control=7, value=70, time=48),
    Message('control_change', channel=9, control=7, value=69, time=48),
    Message('control_change', channel=9, control=7, value=68, time=24),
    Message('control_change', channel=9, control=7, value=67, time=48),
    Message('control_change', channel=9, control=7, value=66, time=48),
    Message('control_change', channel=9, control=7, value=65, time=24),
    Message('control_change', channel=9, control=7, value=64, time=48),
    Message('control_change', channel=9, control=7, value=63, time=48),
    Message('control_change', channel=9, control=7, value=62, time=24),
    Message('control_change', channel=9, control=7, value=61, time=48),
    Message('control_change', channel=9, control=7, value=60, time=48),
    Message('control_change', channel=9, control=7, value=59, time=48),
    Message('control_change', channel=9, control=7, value=58, time=24),
    Message('control_change', channel=9, control=7, value=57, time=48),
    Message('control_change', channel=9, control=7, value=56, time=48),
    Message('control_change', channel=9, control=7, value=55, time=24),
    Message('control_change', channel=9, control=7, value=54, time=48),
    Message('control_change', channel=9, control=7, value=53, time=48),
    Message('control_change', channel=9, control=7, value=52, time=24),
    Message('control_change', channel=9, control=7, value=51, time=48),
    Message('control_change', channel=9, control=7, value=50, time=48),
    Message('control_change', channel=9, control=7, value=49, time=24),
    Message('control_change', channel=9, control=7, value=48, time=48),
    Message('control_change', channel=9, control=7, value=47, time=48),
    Message('control_change', channel=9, control=7, value=46, time=24),
    Message('control_change', channel=9, control=7, value=45, time=48),
    Message('control_change', channel=9, control=7, value=44, time=48),
    Message('control_change', channel=9, control=7, value=43, time=24),
    Message('control_change', channel=9, control=7, value=42, time=48),
    Message('control_change', channel=9, control=7, value=41, time=48),
    Message('control_change', channel=9, control=7, value=40, time=48),
    Message('control_change', channel=9, control=7, value=39, time=24),
    Message('control_change', channel=9, control=7, value=38, time=48),
    Message('control_change', channel=9, control=7, value=37, time=48),
    Message('control_change', channel=9, control=7, value=36, time=24),
    Message('control_change', channel=9, control=7, value=35, time=48),
    Message('control_change', channel=9, control=7, value=34, time=48),
    Message('control_change', channel=9, control=7, value=33, time=24),
    Message('control_change', channel=9, control=7, value=32, time=48),
    Message('control_change', channel=9, control=7, value=31, time=48),
    Message('control_change', channel=9, control=7, value=30, time=24),
    Message('control_change', channel=9, control=7, value=29, time=48),
    Message('control_change', channel=9, control=7, value=28, time=48),
    Message('control_change', channel=9, control=7, value=27, time=24),
    Message('control_change', channel=9, control=7, value=26, time=48),
    Message('control_change', channel=9, control=7, value=25, time=48),
    Message('control_change', channel=9, control=7, value=19, time=24),
    Message('control_change', channel=9, control=7, value=18, time=96),
    Message('control_change', channel=9, control=7, value=17, time=72),
    Message('control_change', channel=9, control=7, value=16, time=72),
    Message('control_change', channel=9, control=7, value=15, time=72),
    Message('control_change', channel=9, control=7, value=14, time=72),
    Message('control_change', channel=9, control=7, value=13, time=96),
    Message('control_change', channel=9, control=7, value=12, time=72),
    Message('control_change', channel=9, control=7, value=11, time=72),
    Message('control_change', channel=9, control=7, value=10, time=72),
    Message('control_change', channel=9, control=7, value=9, time=72),
    Message('control_change', channel=9, control=7, value=8, time=96),
    Message('control_change', channel=9, control=7, value=7, time=72),
    Message('control_change', channel=9, control=7, value=6, time=72),
    Message('control_change', channel=9, control=7, value=5, time=72),
    Message('control_change', channel=9, control=7, value=4, time=72),
    Message('control_change', channel=9, control=7, value=3, time=96),
    Message('control_change', channel=9, control=7, value=2, time=72),
    Message('control_change', channel=9, control=7, value=1, time=72),
    Message('control_change', channel=9, control=7, value=0, time=72),
    Message('pitchwheel', channel=9, pitch=0, time=860),
    Message('polytouch', channel=9, note=64, value=0, time=0),
    Message('aftertouch', channel=9, value=0, time=0),
    Message('control_change', channel=9, control=1, value=0, time=0),
    Message('control_change', channel=9, control=2, value=0, time=0),
    Message('control_change', channel=9, control=4, value=0, time=0),
    Message('control_change', channel=9, control=7, value=100, time=0),
    Message('control_change', channel=9, control=8, value=0, time=0),
    Message('control_change', channel=9, control=10, value=63, time=0),
    Message('control_change', channel=9, control=64, value=0, time=0),
    Message('control_change', channel=9, control=65, value=0, time=0),
    Message('control_change', channel=9, control=66, value=0, time=0),
    Message('control_change', channel=9, control=67, value=0, time=0),
    Message('control_change', channel=9, control=68, value=0, time=0),
    MetaMessage('end_of_track', time=0)])
])
