MidiFile(type=1, ticks_per_beat=384, tracks=[
  MidiTrack([
    MetaMessage('time_signature', numerator=4, denominator=4, clocks_per_click=96, notated_32nd_notes_per_beat=8, time=0),
    MetaMessage('sequencer_specific', data=(0, 0, 65), time=0),
    MetaMessage('sequencer_specific', data=(0, 0, 119, 14, 0), time=0),
    MetaMessage('set_tempo', tempo=625000, time=0),
    MetaMessage('set_tempo', tempo=312500, time=6144),
    MetaMessage('set_tempo', tempo=3000000, time=211968),
    MetaMessage('set_tempo', tempo=625000, time=1536),
    MetaMessage('set_tempo', tempo=312500, time=24576),
    MetaMessage('end_of_track', time=0)]),
  MidiTrack([
    MetaMessage('track_name', name='JUDAS PRIEST', time=0),
    Message('control_change', channel=2, control=0, value=0, time=0),
    Message('program_change', channel=2, program=56, time=0),
    Message('control_change', channel=2, control=7, value=117, time=0),
    Message('control_change', channel=2, control=91, value=127, time=0),
    Message('control_change', channel=2, control=93, value=127, time=0),
    MetaMessage('key_signature', key='D', time=0),
    Message('note_on', channel=2, note=78, velocity=100, time=18432),
    Message('note_off', channel=2, note=78, velocity=100, time=760),
    Message('note_on', channel=2, note=79, velocity=100, time=8),
    Message('note_off', channel=2, note=79, velocity=100, time=760),
    Message('note_on', channel=2, note=78, velocity=100, time=8),
    Message('note_off', channel=2, note=78, velocity=100, time=376),
    Message('note_on', channel=2, note=76, velocity=100, time=8),
    Message('note_off', channel=2, note=76, velocity=100, time=376),
    Message('note_on', channel=2, note=76, velocity=100, time=8),
    Message('note_off', channel=2, note=76, velocity=100, time=760),
    Message('note_on', channel=2, note=78, velocity=100, time=8),
    Message('note_off', channel=2, note=78, velocity=100, time=760),
    Message('note_on', channel=2, note=71, velocity=100, time=8),
    Message('note_off', channel=2, note=71, velocity=100, time=760),
    Message('note_on', channel=2, note=74, velocity=100, time=8),
    Message('note_off', channel=2, note=74, velocity=100, time=376),
    Message('note_on', channel=2, note=71, velocity=100, time=8),
    Message('note_off', channel=2, note=71, velocity=100, time=376),
    Message('note_on', channel=2, note=73, velocity=100, time=776),
    Message('note_off', channel=2, note=73, velocity=100, time=760),
    Message('note_on', channel=2, note=74, velocity=100, time=8),
    Message('note_off', channel=2, note=74, velocity=100, time=760),
    Message('note_on', channel=2, note=76, velocity=100, time=8),
    Message('note_off', channel=2, note=76, velocity=100, time=760),
    Message('note_on', channel=2, note=73, velocity=100, time=8),
    Message('note_off', channel=2, note=73, velocity=100, time=760),
    Message('note_on', channel=2, note=74, velocity=100, time=8),
    Message('note_off', channel=2, note=74, velocity=100, time=184),
    Message('note_on', channel=2, note=73, velocity=100, time=8),
    Message('note_off', channel=2, note=73, velocity=100, time=184),
    Message('note_on', channel=2, note=71, velocity=100, time=8),
    Message('note_off', channel=2, note=71, velocity=100, time=376),
    Message('note_on', channel=2, note=78, velocity=100, time=2312),
    Message('note_off', channel=2, note=78, velocity=100, time=760),
    Message('note_on', channel=2, note=79, velocity=100, time=8),
    Message('note_off', channel=2, note=79, velocity=100, time=760),
    Message('note_on', channel=2, note=78, velocity=100, time=8),
    Message('note_off', channel=2, note=78, velocity=100, time=760),
    Message('note_on', channel=2, note=76, velocity=100, time=8),
    Message('note_off', channel=2, note=76, velocity=100, time=760),
    Message('note_on', channel=2, note=78, velocity=100, time=8),
    Message('note_off', channel=2, note=78, velocity=100, time=760),
    Message('note_on', channel=2, note=71, velocity=100, time=8),
    Message('note_off', channel=2, note=71, velocity=100, time=760),
    Message('note_on', channel=2, note=74, velocity=100, time=8),
    Message('note_off', channel=2, note=74, velocity=100, time=376),
    Message('note_on', channel=2, note=71, velocity=100, time=8),
    Message('note_off', channel=2, note=71, velocity=100, time=376),
    Message('note_on', channel=2, note=73, velocity=100, time=776),
    Message('note_off', channel=2, note=73, velocity=100, time=760),
    Message('note_on', channel=2, note=74, velocity=100, time=8),
    Message('note_off', channel=2, note=74, velocity=100, time=760),
    Message('note_on', channel=2, note=76, velocity=100, time=8),
    Message('note_off', channel=2, note=76, velocity=100, time=760),
    Message('note_on', channel=2, note=73, velocity=100, time=8),
    Message('note_off', channel=2, note=73, velocity=100, time=760),
    Message('note_on', channel=2, note=74, velocity=100, time=8),
    Message('note_off', channel=2, note=74, velocity=100, time=184),
    Message('note_on', channel=2, note=73, velocity=100, time=8),
    Message('note_off', channel=2, note=73, velocity=100, time=184),
    Message('note_on', channel=2, note=71, velocity=100, time=8),
    Message('note_off', channel=2, note=71, velocity=100, time=1144),
    Message('note_on', channel=2, note=78, velocity=100, time=1928),
    Message('note_off', channel=2, note=78, velocity=100, time=376),
    Message('note_on', channel=2, note=78, velocity=100, time=8),
    Message('note_off', channel=2, note=78, velocity=100, time=376),
    Message('note_on', channel=2, note=76, velocity=100, time=8),
    Message('note_off', channel=2, note=76, velocity=100, time=184),
    Message('note_on', channel=2, note=78, velocity=100, time=8),
    Message('note_off', channel=2, note=78, velocity=100, time=376),
    Message('note_on', channel=2, note=74, velocity=100, time=8),
    Message('note_off', channel=2, note=74, velocity=100, time=184),
    Message('note_on', channel=2, note=71, velocity=100, time=8),
    Message('note_off', channel=2, note=71, velocity=100, time=376),
    Message('note_on', channel=2, note=73, velocity=100, time=1160),
    Message('note_off', channel=2, note=73, velocity=100, time=376),
    Message('note_on', channel=2, note=74, velocity=100, time=8),
    Message('note_off', channel=2, note=74, velocity=100, time=376),
    Message('note_on', channel=2, note=71, velocity=100, time=8),
    Message('note_off', channel=2, note=71, velocity=100, time=184),
    Message('note_on', channel=2, note=73, velocity=100, time=8),
    Message('note_off', channel=2, note=73, velocity=100, time=952),
    Message('note_on', channel=2, note=78, velocity=100, time=1160),
    Message('note_off', channel=2, note=78, velocity=100, time=376),
    Message('note_on', channel=2, note=78, velocity=100, time=8),
    Message('note_off', channel=2, note=78, velocity=100, time=376),
    Message('note_on', channel=2, note=78, velocity=100, time=8),
    Message('note_off', channel=2, note=78, velocity=100, time=376),
    Message('note_on', channel=2, note=79, velocity=100, time=8),
    Message('note_off', channel=2, note=79, velocity=100, time=760),
    Message('note_on', channel=2, note=78, velocity=100, time=8),
    Message('note_off', channel=2, note=78, velocity=100, time=760),
    Message('note_on', channel=2, note=73, velocity=100, time=8),
    Message('note_off', channel=2, note=73, velocity=100, time=376),
    Message('note_on', channel=2, note=73, velocity=100, time=8),
    Message('note_off', channel=2, note=73, velocity=100, time=376),
    Message('note_on', channel=2, note=73, velocity=100, time=8),
    Message('note_off', channel=2, note=73, velocity=100, time=376),
    Message('note_on', channel=2, note=74, velocity=100, time=8),
    Message('note_off', channel=2, note=74, velocity=100, time=376),
    Message('note_on', channel=2, note=73, velocity=100, time=8),
    Message('note_off', channel=2, note=73, velocity=100, time=376),
    Message('note_on', channel=2, note=71, velocity=100, time=8),
    Message('note_off', channel=2, note=71, velocity=100, time=184),
    Message('note_on', channel=2, note=73, velocity=100, time=8),
    Message('note_off', channel=2, note=73, velocity=100, time=184),
    Message('note_on', channel=2, note=74, velocity=100, time=8),
    Message('note_off', channel=2, note=74, velocity=100, time=760),
    Message('note_on', channel=2, note=73, velocity=100, time=8),
    Message('note_off', channel=2, note=73, velocity=100, time=376),
    Message('note_on', channel=2, note=71, velocity=100, time=8),
    Message('note_off', channel=2, note=71, velocity=100, time=376),
    Message('note_on', channel=2, note=74, velocity=100, time=1928),
    Message('note_off', channel=2, note=74, velocity=100, time=184),
    Message('note_on', channel=2, note=76, velocity=100, time=8),
    Message('note_off', channel=2, note=76, velocity=100, time=568),
    Message('note_on', channel=2, note=73, velocity=100, time=8),
    Message('note_off', channel=2, note=73, velocity=100, time=184),
    Message('note_on', channel=2, note=73, velocity=100, time=8),
    Message('note_off', channel=2, note=73, velocity=100, time=376),
    Message('note_on', channel=2, note=73, velocity=100, time=8),
    Message('note_off', channel=2, note=73, velocity=100, time=376),
    Message('note_on', channel=2, note=73, velocity=100, time=8),
    Message('note_off', channel=2, note=73, velocity=100, time=184),
    Message('note_on', channel=2, note=66, velocity=100, time=8),
    Message('note_off', channel=2, note=66, velocity=100, time=376),
    Message('note_on', channel=2, note=73, velocity=100, time=392),
    Message('note_off', channel=2, note=73, velocity=100, time=184),
    Message('note_on', channel=2, note=74, velocity=100, time=8),
    Message('note_off', channel=2, note=74, velocity=100, time=568),
    Message('note_on', channel=2, note=73, velocity=100, time=8),
    Message('note_off', channel=2, note=73, velocity=100, time=376),
    Message('note_on', channel=2, note=71, velocity=100, time=8),
    Message('note_off', channel=2, note=71, velocity=100, time=376),
    Message('note_on', channel=2, note=74, velocity=100, time=1928),
    Message('note_off', channel=2, note=74, velocity=100, time=376),
    Message('note_on', channel=2, note=76, velocity=100, time=8),
    Message('note_off', channel=2, note=76, velocity=100, time=376),
    Message('note_on', channel=2, note=73, velocity=100, time=8),
    Message('note_off', channel=2, note=73, velocity=100, time=376),
    Message('note_on', channel=2, note=73, velocity=100, time=8),
    Message('note_off', channel=2, note=73, velocity=100, time=184),
    Message('note_on', channel=2, note=73, velocity=100, time=8),
    Message('note_off', channel=2, note=73, velocity=100, time=376),
    Message('note_on', channel=2, note=66, velocity=100, time=8),
    Message('note_off', channel=2, note=66, velocity=100, time=568),
    Message('note_on', channel=2, note=74, velocity=100, time=392),
    Message('note_off', channel=2, note=74, velocity=100, time=184),
    Message('note_on', channel=2, note=73, velocity=100, time=8),
    Message('note_off', channel=2, note=73, velocity=100, time=184),
    Message('note_on', channel=2, note=74, velocity=100, time=8),
    Message('note_off', channel=2, note=74, velocity=100, time=376),
    Message('note_on', channel=2, note=73, velocity=100, time=8),
    Message('note_off', channel=2, note=73, velocity=100, time=376),
    Message('note_on', channel=2, note=71, velocity=100, time=8),
    Message('note_off', channel=2, note=71, velocity=100, time=5752),
    Message('note_on', channel=2, note=78, velocity=100, time=6152),
    Message('note_off', channel=2, note=78, velocity=100, time=760),
    Message('note_on', channel=2, note=79, velocity=100, time=8),
    Message('note_off', channel=2, note=79, velocity=100, time=760),
    Message('note_on', channel=2, note=78, velocity=100, time=8),
    Message('note_off', channel=2, note=78, velocity=100, time=376),
    Message('note_on', channel=2, note=76, velocity=100, time=8),
    Message('note_off', channel=2, note=76, velocity=100, time=376),
    Message('note_on', channel=2, note=76, velocity=100, time=8),
    Message('note_off', channel=2, note=76, velocity=100, time=760),
    Message('note_on', channel=2, note=78, velocity=100, time=8),
    Message('note_off', channel=2, note=78, velocity=100, time=760),
    Message('note_on', channel=2, note=71, velocity=100, time=8),
    Message('note_off', channel=2, note=71, velocity=100, time=760),
    Message('note_on', channel=2, note=74, velocity=100, time=8),
    Message('note_off', channel=2, note=74, velocity=100, time=376),
    Message('note_on', channel=2, note=73, velocity=100, time=1160),
    Message('note_on', channel=2, note=76, velocity=60, time=0),
    Message('note_off', channel=2, note=73, velocity=100, time=760),
    Message('note_off', channel=2, note=76, velocity=100, time=0),
    Message('note_on', channel=2, note=78, velocity=60, time=8),
    Message('note_on', channel=2, note=74, velocity=100, time=0),
    Message('note_off', channel=2, note=78, velocity=100, time=760),
    Message('note_off', channel=2, note=74, velocity=100, time=0),
    Message('note_on', channel=2, note=76, velocity=100, time=8),
    Message('note_on', channel=2, note=79, velocity=60, time=0),
    Message('note_off', channel=2, note=76, velocity=100, time=760),
    Message('note_off', channel=2, note=79, velocity=100, time=0),
    Message('note_on', channel=2, note=73, velocity=100, time=8),
    Message('note_on', channel=2, note=76, velocity=60, time=0),
    Message('note_off', channel=2, note=73, velocity=100, time=760),
    Message('note_off', channel=2, note=76, velocity=100, time=0),
    Message('note_on', channel=2, note=74, velocity=100, time=8),
    Message('note_off', channel=2, note=74, velocity=100, time=184),
    Message('note_on', channel=2, note=73, velocity=100, time=8),
    Message('note_off', channel=2, note=73, velocity=100, time=184),
    Message('note_on', channel=2, note=71, velocity=100, time=8),
    Message('note_off', channel=2, note=71, velocity=100, time=376),
    Message('note_on', channel=2, note=78, velocity=100, time=2312),
    Message('note_off', channel=2, note=78, velocity=100, time=760),
    Message('note_on', channel=2, note=79, velocity=100, time=8),
    Message('note_off', channel=2, note=79, velocity=100, time=760),
    Message('note_on', channel=2, note=78, velocity=100, time=8),
    Message('note_off', channel=2, note=78, velocity=100, time=760),
    Message('note_on', channel=2, note=76, velocity=100, time=8),
    Message('note_off', channel=2, note=76, velocity=100, time=760),
    Message('note_on', channel=2, note=78, velocity=100, time=8),
    Message('note_off', channel=2, note=78, velocity=100, time=760),
    Message('note_on', channel=2, note=71, velocity=100, time=8),
    Message('note_off', channel=2, note=71, velocity=100, time=760),
    Message('note_on', channel=2, note=74, velocity=100, time=8),
    Message('note_off', channel=2, note=74, velocity=100, time=376),
    Message('note_on', channel=2, note=73, velocity=100, time=1160),
    Message('note_off', channel=2, note=73, velocity=100, time=760),
    Message('note_on', channel=2, note=74, velocity=100, time=8),
    Message('note_off', channel=2, note=74, velocity=100, time=760),
    Message('note_on', channel=2, note=76, velocity=100, time=8),
    Message('note_off', channel=2, note=76, velocity=100, time=760),
    Message('note_on', channel=2, note=73, velocity=100, time=8),
    Message('note_off', channel=2, note=73, velocity=100, time=760),
    Message('note_on', channel=2, note=74, velocity=100, time=8),
    Message('note_off', channel=2, note=74, velocity=100, time=184),
    Message('note_on', channel=2, note=73, velocity=100, time=8),
    Message('note_off', channel=2, note=73, velocity=100, time=184),
    Message('note_on', channel=2, note=71, velocity=100, time=8),
    Message('note_off', channel=2, note=71, velocity=100, time=1144),
    Message('note_on', channel=2, note=78, velocity=100, time=1928),
    Message('note_off', channel=2, note=78, velocity=100, time=376),
    Message('note_on', channel=2, note=78, velocity=100, time=8),
    Message('note_off', channel=2, note=78, velocity=100, time=376),
    Message('note_on', channel=2, note=76, velocity=100, time=8),
    Message('note_off', channel=2, note=76, velocity=100, time=184),
    Message('note_on', channel=2, note=78, velocity=100, time=8),
    Message('note_off', channel=2, note=78, velocity=100, time=376),
    Message('note_on', channel=2, note=74, velocity=100, time=8),
    Message('note_off', channel=2, note=74, velocity=100, time=184),
    Message('note_on', channel=2, note=71, velocity=100, time=8),
    Message('note_off', channel=2, note=71, velocity=100, time=376),
    Message('note_on', channel=2, note=73, velocity=100, time=1160),
    Message('note_off', channel=2, note=73, velocity=100, time=376),
    Message('note_on', channel=2, note=74, velocity=100, time=8),
    Message('note_off', channel=2, note=74, velocity=100, time=376),
    Message('note_on', channel=2, note=71, velocity=100, time=8),
    Message('note_off', channel=2, note=71, velocity=100, time=184),
    Message('note_on', channel=2, note=73, velocity=100, time=8),
    Message('note_off', channel=2, note=73, velocity=100, time=952),
    Message('note_on', channel=2, note=78, velocity=100, time=1160),
    Message('note_off', channel=2, note=78, velocity=100, time=376),
    Message('note_on', channel=2, note=78, velocity=100, time=8),
    Message('note_off', channel=2, note=78, velocity=100, time=376),
    Message('note_on', channel=2, note=78, velocity=100, time=8),
    Message('note_off', channel=2, note=78, velocity=100, time=376),
    Message('note_on', channel=2, note=79, velocity=100, time=8),
    Message('note_off', channel=2, note=79, velocity=100, time=760),
    Message('note_on', channel=2, note=78, velocity=100, time=8),
    Message('note_off', channel=2, note=78, velocity=100, time=760),
    Message('note_on', channel=2, note=73, velocity=100, time=8),
    Message('note_off', channel=2, note=73, velocity=100, time=376),
    Message('note_on', channel=2, note=73, velocity=100, time=8),
    Message('note_off', channel=2, note=73, velocity=100, time=376),
    Message('note_on', channel=2, note=73, velocity=100, time=8),
    Message('note_off', channel=2, note=73, velocity=100, time=376),
    Message('note_on', channel=2, note=74, velocity=100, time=8),
    Message('note_off', channel=2, note=74, velocity=100, time=376),
    Message('note_on', channel=2, note=73, velocity=100, time=8),
    Message('note_off', channel=2, note=73, velocity=100, time=376),
    Message('note_on', channel=2, note=71, velocity=100, time=8),
    Message('note_off', channel=2, note=71, velocity=100, time=184),
    Message('note_on', channel=2, note=73, velocity=100, time=8),
    Message('note_off', channel=2, note=73, velocity=100, time=184),
    Message('note_on', channel=2, note=74, velocity=100, time=8),
    Message('note_off', channel=2, note=74, velocity=100, time=760),
    Message('note_on', channel=2, note=73, velocity=100, time=8),
    Message('note_off', channel=2, note=73, velocity=100, time=376),
    Message('note_on', channel=2, note=71, velocity=100, time=8),
    Message('note_off', channel=2, note=71, velocity=100, time=376),
    Message('note_on', channel=2, note=74, velocity=100, time=1928),
    Message('note_off', channel=2, note=74, velocity=100, time=184),
    Message('note_on', channel=2, note=76, velocity=100, time=8),
    Message('note_off', channel=2, note=76, velocity=100, time=568),
    Message('note_on', channel=2, note=73, velocity=100, time=8),
    Message('note_off', channel=2, note=73, velocity=100, time=184),
    Message('note_on', channel=2, note=73, velocity=100, time=8),
    Message('note_off', channel=2, note=73, velocity=100, time=376),
    Message('note_on', channel=2, note=73, velocity=100, time=8),
    Message('note_off', channel=2, note=73, velocity=100, time=376),
    Message('note_on', channel=2, note=73, velocity=100, time=8),
    Message('note_off', channel=2, note=73, velocity=100, time=184),
    Message('note_on', channel=2, note=66, velocity=100, time=8),
    Message('note_off', channel=2, note=66, velocity=100, time=376),
    Message('note_on', channel=2, note=73, velocity=100, time=392),
    Message('note_off', channel=2, note=73, velocity=100, time=184),
    Message('note_on', channel=2, note=74, velocity=100, time=8),
    Message('note_off', channel=2, note=74, velocity=100, time=568),
    Message('note_on', channel=2, note=73, velocity=100, time=8),
    Message('note_off', channel=2, note=73, velocity=100, time=376),
    Message('note_on', channel=2, note=71, velocity=100, time=8),
    Message('note_off', channel=2, note=71, velocity=100, time=376),
    Message('note_on', channel=2, note=74, velocity=100, time=1928),
    Message('note_off', channel=2, note=74, velocity=100, time=376),
    Message('note_on', channel=2, note=76, velocity=100, time=8),
    Message('note_off', channel=2, note=76, velocity=100, time=376),
    Message('note_on', channel=2, note=73, velocity=100, time=8),
    Message('note_off', channel=2, note=73, velocity=100, time=376),
    Message('note_on', channel=2, note=73, velocity=100, time=8),
    Message('note_off', channel=2, note=73, velocity=100, time=184),
    Message('note_on', channel=2, note=73, velocity=100, time=8),
    Message('note_off', channel=2, note=73, velocity=100, time=376),
    Message('note_on', channel=2, note=66, velocity=100, time=8),
    Message('note_off', channel=2, note=66, velocity=100, time=568),
    Message('note_on', channel=2, note=74, velocity=100, time=392),
    Message('note_off', channel=2, note=74, velocity=100, time=184),
    Message('note_on', channel=2, note=73, velocity=100, time=8),
    Message('note_off', channel=2, note=73, velocity=100, time=184),
    Message('note_on', channel=2, note=74, velocity=100, time=8),
    Message('note_off', channel=2, note=74, velocity=100, time=376),
    Message('note_on', channel=2, note=73, velocity=100, time=8),
    Message('note_off', channel=2, note=73, velocity=100, time=376),
    Message('note_on', channel=2, note=71, velocity=100, time=8),
    Message('note_off', channel=2, note=71, velocity=100, time=5752),
    Message('note_on', channel=2, note=78, velocity=100, time=34568),
    Message('note_off', channel=2, note=78, velocity=100, time=760),
    Message('note_on', channel=2, note=85, velocity=100, time=8),
    Message('note_off', channel=2, note=85, velocity=100, time=760),
    Message('note_on', channel=2, note=86, velocity=100, time=8),
    Message('note_off', channel=2, note=86, velocity=100, time=760),
    Message('note_on', channel=2, note=85, velocity=100, time=8),
    Message('note_off', channel=2, note=85, velocity=100, time=1144),
    Message('note_on', channel=2, note=83, velocity=100, time=8),
    Message('note_off', channel=2, note=83, velocity=100, time=376),
    Message('note_on', channel=2, note=83, velocity=100, time=8),
    Message('note_off', channel=2, note=83, velocity=100, time=1528),
    Message('note_on', channel=2, note=86, velocity=100, time=2312),
    Message('note_off', channel=2, note=86, velocity=100, time=760),
    Message('note_on', channel=2, note=88, velocity=100, time=8),
    Message('note_off', channel=2, note=88, velocity=100, time=760),
    Message('note_on', channel=2, note=86, velocity=100, time=8),
    Message('note_off', channel=2, note=86, velocity=100, time=760),
    Message('note_on', channel=2, note=85, velocity=100, time=8),
    Message('note_off', channel=2, note=85, velocity=100, time=760),
    Message('note_on', channel=2, note=86, velocity=100, time=8),
    Message('note_off', channel=2, note=86, velocity=100, time=760),
    Message('note_on', channel=2, note=86, velocity=100, time=8),
    Message('note_off', channel=2, note=86, velocity=100, time=760),
    Message('note_on', channel=2, note=86, velocity=100, time=1544),
    Message('note_off', channel=2, note=86, velocity=100, time=760),
    Message('note_on', channel=2, note=88, velocity=100, time=8),
    Message('note_off', channel=2, note=88, velocity=100, time=184),
    Message('note_on', channel=2, note=86, velocity=100, time=8),
    Message('note_off', channel=2, note=86, velocity=100, time=568),
    Message('note_on', channel=2, note=86, velocity=100, time=1544),
    Message('note_off', channel=2, note=86, velocity=100, time=760),
    Message('note_on', channel=2, note=88, velocity=100, time=8),
    Message('note_off', channel=2, note=88, velocity=100, time=760),
    Message('note_on', channel=2, note=86, velocity=100, time=8),
    Message('note_off', channel=2, note=86, velocity=100, time=760),
    Message('note_on', channel=2, note=85, velocity=100, time=8),
    Message('note_off', channel=2, note=85, velocity=100, time=760),
    Message('note_on', channel=2, note=86, velocity=100, time=8),
    Message('note_off', channel=2, note=86, velocity=100, time=760),
    Message('note_on', channel=2, note=85, velocity=100, time=8),
    Message('note_off', channel=2, note=85, velocity=100, time=760),
    Message('note_on', channel=2, note=85, velocity=100, time=8),
    Message('note_off', channel=2, note=85, velocity=100, time=760),
    Message('note_on', channel=2, note=85, velocity=100, time=8),
    Message('note_off', channel=2, note=85, velocity=100, time=4984),
    Message('note_on', channel=2, note=64, velocity=100, time=22664),
    Message('note_off', channel=2, note=64, velocity=100, time=184),
    Message('note_on', channel=2, note=64, velocity=100, time=8),
    Message('note_off', channel=2, note=64, velocity=100, time=184),
    Message('note_on', channel=2, note=64, velocity=100, time=8),
    Message('note_off', channel=2, note=64, velocity=100, time=184),
    Message('note_on', channel=2, note=62, velocity=100, time=8),
    Message('note_off', channel=2, note=62, velocity=100, time=184),
    Message('note_on', channel=2, note=64, velocity=100, time=8),
    Message('note_off', channel=2, note=64, velocity=100, time=184),
    Message('note_on', channel=2, note=59, velocity=100, time=8),
    Message('note_off', channel=2, note=59, velocity=100, time=376),
    Message('note_on', channel=2, note=64, velocity=100, time=8),
    Message('note_off', channel=2, note=64, velocity=100, time=376),
    Message('note_on', channel=2, note=59, velocity=100, time=8),
    Message('note_off', channel=2, note=59, velocity=100, time=184),
    Message('note_on', channel=2, note=59, velocity=100, time=8),
    Message('note_off', channel=2, note=59, velocity=100, time=184),
    Message('note_on', channel=2, note=59, velocity=100, time=8),
    Message('note_off', channel=2, note=59, velocity=100, time=184),
    Message('note_on', channel=2, note=62, velocity=100, time=8),
    Message('note_off', channel=2, note=62, velocity=100, time=760),
    Message('note_on', channel=2, note=64, velocity=100, time=8),
    Message('note_off', channel=2, note=64, velocity=100, time=184),
    Message('note_on', channel=2, note=59, velocity=100, time=8),
    Message('note_off', channel=2, note=59, velocity=100, time=184),
    Message('note_on', channel=2, note=64, velocity=100, time=8),
    Message('note_off', channel=2, note=64, velocity=100, time=184),
    Message('note_on', channel=2, note=62, velocity=100, time=8),
    Message('note_off', channel=2, note=62, velocity=100, time=184),
    Message('note_on', channel=2, note=64, velocity=100, time=8),
    Message('note_off', channel=2, note=64, velocity=100, time=88),
    Message('note_on', channel=2, note=62, velocity=100, time=8),
    Message('note_off', channel=2, note=62, velocity=100, time=184),
    Message('note_on', channel=2, note=64, velocity=100, time=8),
    Message('note_off', channel=2, note=64, velocity=100, time=472),
    Message('note_on', channel=2, note=59, velocity=100, time=8),
    Message('note_off', channel=2, note=59, velocity=100, time=184),
    Message('note_on', channel=2, note=59, velocity=100, time=8),
    Message('note_off', channel=2, note=59, velocity=100, time=184),
    Message('note_on', channel=2, note=59, velocity=100, time=8),
    Message('note_off', channel=2, note=59, velocity=100, time=88),
    Message('note_on', channel=2, note=59, velocity=100, time=8),
    Message('note_off', channel=2, note=59, velocity=100, time=184),
    Message('note_on', channel=2, note=59, velocity=100, time=8),
    Message('note_off', channel=2, note=59, velocity=100, time=472),
    Message('note_on', channel=2, note=64, velocity=100, time=392),
    Message('note_off', channel=2, note=64, velocity=100, time=184),
    Message('note_on', channel=2, note=62, velocity=100, time=8),
    Message('note_off', channel=2, note=62, velocity=100, time=88),
    Message('note_on', channel=2, note=64, velocity=100, time=8),
    Message('note_off', channel=2, note=64, velocity=100, time=280),
    Message('note_on', channel=2, note=62, velocity=100, time=8),
    Message('note_off', channel=2, note=62, velocity=100, time=184),
    Message('note_on', channel=2, note=64, velocity=100, time=8),
    Message('note_off', channel=2, note=64, velocity=100, time=184),
    Message('note_on', channel=2, note=59, velocity=100, time=8),
    Message('note_off', channel=2, note=59, velocity=100, time=568),
    Message('note_on', channel=2, note=64, velocity=100, time=8),
    Message('note_off', channel=2, note=64, velocity=100, time=184),
    Message('note_on', channel=2, note=62, velocity=100, time=8),
    Message('note_off', channel=2, note=62, velocity=100, time=88),
    Message('note_on', channel=2, note=64, velocity=100, time=8),
    Message('note_off', channel=2, note=64, velocity=100, time=280),
    Message('note_on', channel=2, note=64, velocity=100, time=8),
    Message('note_off', channel=2, note=64, velocity=100, time=184),
    Message('note_on', channel=2, note=64, velocity=100, time=8),
    Message('note_off', channel=2, note=64, velocity=100, time=376),
    Message('note_on', channel=2, note=59, velocity=100, time=8),
    Message('note_off', channel=2, note=59, velocity=100, time=376),
    Message('note_on', channel=2, note=64, velocity=100, time=8),
    Message('note_off', channel=2, note=64, velocity=100, time=184),
    Message('note_on', channel=2, note=59, velocity=100, time=8),
    Message('note_off', channel=2, note=59, velocity=100, time=184),
    Message('note_on', channel=2, note=64, velocity=100, time=8),
    Message('note_off', channel=2, note=64, velocity=100, time=280),
    Message('note_on', channel=2, note=59, velocity=100, time=8),
    Message('note_off', channel=2, note=59, velocity=100, time=88),
    Message('note_on', channel=2, note=64, velocity=100, time=8),
    Message('note_off', channel=2, note=64, velocity=100, time=184),
    Message('note_on', channel=2, note=59, velocity=100, time=8),
    Message('note_off', channel=2, note=59, velocity=100, time=568),
    Message('note_on', channel=2, note=64, velocity=100, time=8),
    Message('note_off', channel=2, note=64, velocity=100, time=184),
    Message('note_on', channel=2, note=62, velocity=100, time=8),
    Message('note_off', channel=2, note=62, velocity=100, time=88),
    Message('note_on', channel=2, note=64, velocity=100, time=8),
    Message('note_off', channel=2, note=64, velocity=100, time=280),
    Message('note_on', channel=2, note=59, velocity=100, time=8),
    Message('note_off', channel=2, note=59, velocity=100, time=184),
    Message('note_on', channel=2, note=59, velocity=100, time=8),
    Message('note_off', channel=2, note=59, velocity=100, time=760),
    Message('note_on', channel=2, note=64, velocity=100, time=8),
    Message('note_off', channel=2, note=64, velocity=100, time=184),
    Message('note_on', channel=2, note=62, velocity=100, time=8),
    Message('note_off', channel=2, note=62, velocity=100, time=184),
    Message('note_on', channel=2, note=64, velocity=100, time=8),
    Message('note_off', channel=2, note=64, velocity=100, time=280),
    Message('note_on', channel=2, note=62, velocity=100, time=8),
    Message('note_off', channel=2, note=62, velocity=100, time=88),
    Message('note_on', channel=2, note=64, velocity=100, time=8),
    Message('note_off', channel=2, note=64, velocity=100, time=184),
    Message('note_on', channel=2, note=62, velocity=100, time=8),
    Message('note_off', channel=2, note=62, velocity=100, time=184),
    Message('note_on', channel=2, note=62, velocity=100, time=200),
    Message('note_off', channel=2, note=62, velocity=100, time=88),
    Message('note_on', channel=2, note=64, velocity=100, time=8),
    Message('note_off', channel=2, note=64, velocity=100, time=88),
    Message('note_on', channel=2, note=64, velocity=100, time=8),
    Message('note_off', channel=2, note=64, velocity=100, time=280),
    Message('note_on', channel=2, note=62, velocity=100, time=8),
    Message('note_off', channel=2, note=62, velocity=100, time=88),
    Message('note_on', channel=2, note=64, velocity=100, time=8),
    Message('note_off', channel=2, note=64, velocity=100, time=280),
    Message('note_on', channel=2, note=62, velocity=100, time=8),
    Message('note_off', channel=2, note=62, velocity=100, time=88),
    Message('note_on', channel=2, note=59, velocity=100, time=8),
    Message('note_off', channel=2, note=59, velocity=100, time=760),
    Message('note_on', channel=2, note=64, velocity=100, time=8),
    Message('note_off', channel=2, note=64, velocity=100, time=280),
    Message('note_on', channel=2, note=64, velocity=100, time=8),
    Message('note_off', channel=2, note=64, velocity=100, time=88),
    Message('note_on', channel=2, note=64, velocity=100, time=8),
    Message('note_off', channel=2, note=64, velocity=100, time=88),
    Message('note_on', channel=2, note=62, velocity=100, time=8),
    Message('note_off', channel=2, note=62, velocity=100, time=88),
    Message('note_on', channel=2, note=64, velocity=100, time=8),
    Message('note_off', channel=2, note=64, velocity=100, time=184),
    Message('note_on', channel=2, note=64, velocity=100, time=8),
    Message('note_off', channel=2, note=64, velocity=100, time=376),
    Message('note_on', channel=2, note=64, velocity=100, time=8),
    Message('note_off', channel=2, note=64, velocity=100, time=184),
    Message('note_on', channel=2, note=62, velocity=100, time=8),
    Message('note_off', channel=2, note=62, velocity=100, time=184),
    Message('note_on', channel=2, note=64, velocity=100, time=8),
    Message('note_off', channel=2, note=64, velocity=100, time=88),
    Message('note_on', channel=2, note=64, velocity=100, time=8),
    Message('note_off', channel=2, note=64, velocity=100, time=280),
    Message('note_on', channel=2, note=64, velocity=100, time=8),
    Message('note_off', channel=2, note=64, velocity=100, time=88),
    Message('note_on', channel=2, note=62, velocity=100, time=8),
    Message('note_off', channel=2, note=62, velocity=100, time=280),
    Message('note_on', channel=2, note=59, velocity=100, time=8),
    Message('note_off', channel=2, note=59, velocity=100, time=760),
    Message('note_on', channel=2, note=64, velocity=100, time=8),
    Message('note_off', channel=2, note=64, velocity=100, time=376),
    Message('note_on', channel=2, note=64, velocity=100, time=8),
    Message('note_off', channel=2, note=64, velocity=100, time=184),
    Message('note_on', channel=2, note=64, velocity=100, time=8),
    Message('note_off', channel=2, note=64, velocity=100, time=88),
    Message('note_on', channel=2, note=62, velocity=100, time=8),
    Message('note_off', channel=2, note=62, velocity=100, time=88),
    Message('note_on', channel=2, note=64, velocity=100, time=8),
    Message('note_off', channel=2, note=64, velocity=100, time=184),
    Message('note_on', channel=2, note=59, velocity=100, time=8),
    Message('note_off', channel=2, note=59, velocity=100, time=184),
    Message('note_on', channel=2, note=64, velocity=100, time=392),
    Message('note_off', channel=2, note=64, velocity=100, time=184),
    Message('note_on', channel=2, note=64, velocity=100, time=8),
    Message('note_off', channel=2, note=64, velocity=100, time=184),
    Message('note_on', channel=2, note=59, velocity=100, time=8),
    Message('note_off', channel=2, note=59, velocity=100, time=88),
    Message('note_on', channel=2, note=64, velocity=100, time=8),
    Message('note_off', channel=2, note=64, velocity=100, time=184),
    Message('note_on', channel=2, note=62, velocity=100, time=8),
    Message('note_off', channel=2, note=62, velocity=100, time=88),
    Message('note_on', channel=2, note=62, velocity=100, time=8),
    Message('note_off', channel=2, note=62, velocity=100, time=568),
    Message('note_on', channel=2, note=62, velocity=100, time=8),
    Message('note_off', channel=2, note=62, velocity=100, time=184),
    Message('note_on', channel=2, note=64, velocity=100, time=8),
    Message('note_off', channel=2, note=64, velocity=100, time=184),
    Message('note_on', channel=2, note=64, velocity=100, time=8),
    Message('note_off', channel=2, note=64, velocity=100, time=184),
    Message('note_on', channel=2, note=64, velocity=100, time=8),
    Message('note_off', channel=2, note=64, velocity=100, time=184),
    Message('note_on', channel=2, note=62, velocity=100, time=8),
    Message('note_off', channel=2, note=62, velocity=100, time=184),
    Message('note_on', channel=2, note=64, velocity=100, time=8),
    Message('note_off', channel=2, note=64, velocity=100, time=88),
    Message('note_on', channel=2, note=59, velocity=100, time=8),
    Message('note_off', channel=2, note=59, velocity=100, time=280),
    Message('note_on', channel=2, note=64, velocity=100, time=8),
    Message('note_off', channel=2, note=64, velocity=100, time=184),
    Message('note_on', channel=2, note=76, velocity=100, time=8),
    Message('note_off', channel=2, note=76, velocity=100, time=184),
    Message('note_on', channel=2, note=64, velocity=100, time=8),
    Message('note_off', channel=2, note=64, velocity=100, time=280),
    Message('note_on', channel=2, note=59, velocity=100, time=8),
    Message('note_off', channel=2, note=59, velocity=100, time=88),
    Message('note_on', channel=2, note=64, velocity=100, time=8),
    Message('note_off', channel=2, note=64, velocity=100, time=280),
    Message('note_on', channel=2, note=62, velocity=100, time=8),
    Message('note_off', channel=2, note=62, velocity=100, time=88),
    Message('note_on', channel=2, note=64, velocity=100, time=8),
    Message('note_off', channel=2, note=64, velocity=100, time=760),
    Message('note_on', channel=2, note=78, velocity=100, time=12680),
    Message('note_off', channel=2, note=78, velocity=100, time=376),
    Message('note_on', channel=2, note=78, velocity=100, time=8),
    Message('note_off', channel=2, note=78, velocity=100, time=376),
    Message('note_on', channel=2, note=76, velocity=100, time=8),
    Message('note_off', channel=2, note=76, velocity=100, time=184),
    Message('note_on', channel=2, note=78, velocity=100, time=8),
    Message('note_off', channel=2, note=78, velocity=100, time=376),
    Message('note_on', channel=2, note=74, velocity=100, time=8),
    Message('note_off', channel=2, note=74, velocity=100, time=184),
    Message('note_on', channel=2, note=71, velocity=100, time=8),
    Message('note_off', channel=2, note=71, velocity=100, time=376),
    Message('note_on', channel=2, note=73, velocity=100, time=1160),
    Message('note_off', channel=2, note=73, velocity=100, time=376),
    Message('note_on', channel=2, note=74, velocity=100, time=8),
    Message('note_off', channel=2, note=74, velocity=100, time=376),
    Message('note_on', channel=2, note=71, velocity=100, time=8),
    Message('note_off', channel=2, note=71, velocity=100, time=184),
    Message('note_on', channel=2, note=73, velocity=100, time=8),
    Message('note_off', channel=2, note=73, velocity=100, time=952),
    Message('note_on', channel=2, note=78, velocity=100, time=1160),
    Message('note_off', channel=2, note=78, velocity=100, time=376),
    Message('note_on', channel=2, note=78, velocity=100, time=8),
    Message('note_off', channel=2, note=78, velocity=100, time=376),
    Message('note_on', channel=2, note=78, velocity=100, time=8),
    Message('note_off', channel=2, note=78, velocity=100, time=376),
    Message('note_on', channel=2, note=79, velocity=100, time=8),
    Message('note_off', channel=2, note=79, velocity=100, time=760),
    Message('note_on', channel=2, note=78, velocity=100, time=8),
    Message('note_off', channel=2, note=78, velocity=100, time=760),
    Message('note_on', channel=2, note=73, velocity=100, time=8),
    Message('note_off', channel=2, note=73, velocity=100, time=376),
    Message('note_on', channel=2, note=73, velocity=100, time=8),
    Message('note_off', channel=2, note=73, velocity=100, time=376),
    Message('note_on', channel=2, note=73, velocity=100, time=8),
    Message('note_off', channel=2, note=73, velocity=100, time=376),
    Message('note_on', channel=2, note=74, velocity=100, time=8),
    Message('note_off', channel=2, note=74, velocity=100, time=376),
    Message('note_on', channel=2, note=73, velocity=100, time=8),
    Message('note_off', channel=2, note=73, velocity=100, time=376),
    Message('note_on', channel=2, note=71, velocity=100, time=8),
    Message('note_off', channel=2, note=71, velocity=100, time=184),
    Message('note_on', channel=2, note=73, velocity=100, time=8),
    Message('note_off', channel=2, note=73, velocity=100, time=184),
    Message('note_on', channel=2, note=74, velocity=100, time=8),
    Message('note_off', channel=2, note=74, velocity=100, time=760),
    Message('note_on', channel=2, note=73, velocity=100, time=8),
    Message('note_off', channel=2, note=73, velocity=100, time=376),
    Message('note_on', channel=2, note=71, velocity=100, time=8),
    Message('note_off', channel=2, note=71, velocity=100, time=376),
    Message('note_on', channel=2, note=74, velocity=100, time=1928),
    Message('note_off', channel=2, note=74, velocity=100, time=184),
    Message('note_on', channel=2, note=76, velocity=100, time=8),
    Message('note_off', channel=2, note=76, velocity=100, time=568),
    Message('note_on', channel=2, note=73, velocity=100, time=8),
    Message('note_off', channel=2, note=73, velocity=100, time=184),
    Message('note_on', channel=2, note=73, velocity=100, time=8),
    Message('note_off', channel=2, note=73, velocity=100, time=376),
    Message('note_on', channel=2, note=73, velocity=100, time=8),
    Message('note_off', channel=2, note=73, velocity=100, time=376),
    Message('note_on', channel=2, note=73, velocity=100, time=8),
    Message('note_off', channel=2, note=73, velocity=100, time=184),
    Message('note_on', channel=2, note=66, velocity=100, time=8),
    Message('note_off', channel=2, note=66, velocity=100, time=376),
    Message('note_on', channel=2, note=73, velocity=100, time=392),
    Message('note_off', channel=2, note=73, velocity=100, time=184),
    Message('note_on', channel=2, note=74, velocity=100, time=8),
    Message('note_off', channel=2, note=74, velocity=100, time=568),
    Message('note_on', channel=2, note=73, velocity=100, time=8),
    Message('note_off', channel=2, note=73, velocity=100, time=376),
    Message('note_on', channel=2, note=71, velocity=100, time=8),
    Message('note_off', channel=2, note=71, velocity=100, time=376),
    Message('note_on', channel=2, note=74, velocity=100, time=1928),
    Message('note_off', channel=2, note=74, velocity=100, time=376),
    Message('note_on', channel=2, note=76, velocity=100, time=8),
    Message('note_off', channel=2, note=76, velocity=100, time=376),
    Message('note_on', channel=2, note=73, velocity=100, time=8),
    Message('note_off', channel=2, note=73, velocity=100, time=376),
    Message('note_on', channel=2, note=73, velocity=100, time=8),
    Message('note_off', channel=2, note=73, velocity=100, time=184),
    Message('note_on', channel=2, note=73, velocity=100, time=8),
    Message('note_off', channel=2, note=73, velocity=100, time=376),
    Message('note_on', channel=2, note=66, velocity=100, time=8),
    Message('note_off', channel=2, note=66, velocity=100, time=568),
    Message('note_on', channel=2, note=74, velocity=100, time=392),
    Message('note_off', channel=2, note=74, velocity=100, time=184),
    Message('note_on', channel=2, note=73, velocity=100, time=8),
    Message('note_off', channel=2, note=73, velocity=100, time=184),
    Message('note_on', channel=2, note=74, velocity=100, time=8),
    Message('note_off', channel=2, note=74, velocity=100, time=376),
    Message('note_on', channel=2, note=73, velocity=100, time=8),
    Message('note_off', channel=2, note=73, velocity=100, time=376),
    Message('note_on', channel=2, note=71, velocity=100, time=8),
    Message('note_off', channel=2, note=71, velocity=100, time=376),
    Message('note_on', channel=2, note=74, velocity=100, time=1928),
    Message('note_off', channel=2, note=74, velocity=100, time=376),
    Message('note_on', channel=2, note=76, velocity=100, time=8),
    Message('note_off', channel=2, note=76, velocity=100, time=376),
    Message('note_on', channel=2, note=73, velocity=100, time=8),
    Message('note_off', channel=2, note=73, velocity=100, time=184),
    Message('note_on', channel=2, note=73, velocity=100, time=8),
    Message('note_off', channel=2, note=73, velocity=100, time=376),
    Message('note_on', channel=2, note=69, velocity=100, time=8),
    Message('note_off', channel=2, note=69, velocity=100, time=376),
    Message('note_on', channel=2, note=66, velocity=100, time=8),
    Message('note_off', channel=2, note=66, velocity=100, time=568),
    Message('note_on', channel=2, note=74, velocity=100, time=392),
    Message('note_off', channel=2, note=74, velocity=100, time=184),
    Message('note_on', channel=2, note=73, velocity=100, time=8),
    Message('note_off', channel=2, note=73, velocity=100, time=184),
    Message('note_on', channel=2, note=74, velocity=100, time=8),
    Message('note_off', channel=2, note=74, velocity=100, time=376),
    Message('note_on', channel=2, note=71, velocity=100, time=8),
    Message('note_off', channel=2, note=71, velocity=100, time=376),
    Message('note_on', channel=2, note=71, velocity=100, time=8),
    Message('note_off', channel=2, note=71, velocity=100, time=376),
    Message('note_on', channel=2, note=74, velocity=100, time=1928),
    Message('note_off', channel=2, note=74, velocity=100, time=376),
    Message('note_on', channel=2, note=76, velocity=100, time=8),
    Message('note_off', channel=2, note=76, velocity=100, time=92),
    Message('note_on', channel=2, note=71, velocity=100, time=4),
    Message('note_off', channel=2, note=71, velocity=100, time=284),
    Message('note_on', channel=2, note=73, velocity=100, time=4),
    Message('note_off', channel=2, note=73, velocity=100, time=376),
    Message('note_on', channel=2, note=73, velocity=100, time=8),
    Message('note_off', channel=2, note=73, velocity=100, time=184),
    Message('note_on', channel=2, note=74, velocity=100, time=8),
    Message('note_off', channel=2, note=74, velocity=100, time=376),
    Message('note_on', channel=2, note=74, velocity=100, time=8),
    Message('note_off', channel=2, note=74, velocity=100, time=188),
    Message('note_on', channel=2, note=66, velocity=100, time=4),
    Message('note_off', channel=2, note=66, velocity=64, time=384),
    Message('note_on', channel=2, note=74, velocity=100, time=384),
    Message('note_off', channel=2, note=74, velocity=100, time=184),
    Message('note_on', channel=2, note=73, velocity=100, time=8),
    Message('note_off', channel=2, note=73, velocity=100, time=184),
    Message('note_on', channel=2, note=74, velocity=100, time=8),
    Message('note_off', channel=2, note=74, velocity=100, time=376),
    Message('note_on', channel=2, note=73, velocity=100, time=8),
    Message('note_off', channel=2, note=73, velocity=100, time=188),
    Message('note_on', channel=2, note=71, velocity=100, time=4),
    Message('note_off', channel=2, note=71, velocity=100, time=572),
    Message('note_on', channel=2, note=71, velocity=100, time=4),
    Message('note_off', channel=2, note=71, velocity=100, time=5372),
    Message('note_on', channel=2, note=83, velocity=100, time=4804),
    Message('note_off', channel=2, note=83, velocity=100, time=188),
    Message('note_on', channel=2, note=85, velocity=100, time=4),
    Message('note_off', channel=2, note=85, velocity=100, time=188),
    Message('note_on', channel=2, note=83, velocity=100, time=4),
    Message('note_off', channel=2, note=83, velocity=100, time=188),
    Message('note_on', channel=2, note=85, velocity=100, time=4),
    Message('note_off', channel=2, note=85, velocity=100, time=188),
    Message('note_on', channel=2, note=86, velocity=100, time=4),
    Message('note_off', channel=2, note=86, velocity=100, time=572),
    Message('note_on', channel=2, note=86, velocity=100, time=4996),
    Message('note_off', channel=2, note=86, velocity=100, time=188),
    Message('note_on', channel=2, note=86, velocity=100, time=4),
    Message('note_off', channel=2, note=86, velocity=100, time=572),
    Message('note_on', channel=2, note=86, velocity=100, time=4),
    Message('note_off', channel=2, note=86, velocity=100, time=188),
    Message('note_on', channel=2, note=86, velocity=100, time=4),
    Message('note_off', channel=2, note=86, velocity=100, time=572),
    Message('note_on', channel=2, note=86, velocity=100, time=4996),
    Message('note_off', channel=2, note=86, velocity=100, time=188),
    Message('note_on', channel=2, note=85, velocity=100, time=4),
    Message('note_off', channel=2, note=85, velocity=100, time=188),
    Message('note_on', channel=2, note=86, velocity=100, time=4),
    Message('note_off', channel=2, note=86, velocity=100, time=380),
    Message('note_on', channel=2, note=85, velocity=100, time=4),
    Message('note_off', channel=2, note=85, velocity=100, time=380),
    Message('note_on', channel=2, note=83, velocity=100, time=4),
    Message('note_off', channel=2, note=83, velocity=100, time=1148),
    Message('note_on', channel=2, note=86, velocity=84, time=3844),
    Message('note_off', channel=2, note=86, velocity=100, time=188),
    Message('note_on', channel=2, note=85, velocity=84, time=4),
    Message('note_off', channel=2, note=85, velocity=100, time=188),
    Message('note_on', channel=2, note=86, velocity=84, time=4),
    Message('note_off', channel=2, note=86, velocity=100, time=380),
    Message('note_on', channel=2, note=85, velocity=78, time=4),
    Message('note_off', channel=2, note=85, velocity=100, time=380),
    Message('note_on', channel=2, note=83, velocity=78, time=4),
    Message('note_off', channel=2, note=83, velocity=100, time=1148),
    Message('note_on', channel=2, note=86, velocity=61, time=3844),
    Message('note_off', channel=2, note=86, velocity=100, time=188),
    Message('note_on', channel=2, note=85, velocity=61, time=4),
    Message('note_off', channel=2, note=85, velocity=100, time=188),
    Message('note_on', channel=2, note=86, velocity=61, time=4),
    Message('note_off', channel=2, note=86, velocity=100, time=380),
    Message('note_on', channel=2, note=85, velocity=56, time=4),
    Message('note_off', channel=2, note=85, velocity=100, time=380),
    Message('note_on', channel=2, note=83, velocity=56, time=4),
    Message('note_off', channel=2, note=83, velocity=100, time=1148),
    Message('note_on', channel=2, note=86, velocity=39, time=3844),
    Message('note_off', channel=2, note=86, velocity=100, time=188),
    Message('note_on', channel=2, note=85, velocity=39, time=4),
    Message('note_off', channel=2, note=85, velocity=100, time=188),
    Message('note_on', channel=2, note=86, velocity=39, time=4),
    Message('note_off', channel=2, note=86, velocity=100, time=380),
    Message('note_on', channel=2, note=85, velocity=30, time=4),
    Message('note_off', channel=2, note=85, velocity=100, time=380),
    Message('note_on', channel=2, note=83, velocity=30, time=4),
    Message('note_off', channel=2, note=83, velocity=100, time=1148),
    Message('note_on', channel=2, note=86, velocity=17, time=3844),
    Message('note_off', channel=2, note=86, velocity=100, time=188),
    Message('note_on', channel=2, note=85, velocity=17, time=4),
    Message('note_off', channel=2, note=85, velocity=100, time=188),
    Message('note_on', channel=2, note=86, velocity=17, time=4),
    Message('note_off', channel=2, note=86, velocity=100, time=380),
    Message('note_on', channel=2, note=85, velocity=11, time=4),
    Message('note_off', channel=2, note=85, velocity=100, time=380),
    Message('note_on', channel=2, note=83, velocity=11, time=4),
    Message('note_off', channel=2, note=83, velocity=100, time=1148),
    Message('note_on', channel=2, note=86, velocity=1, time=3844),
    Message('note_off', channel=2, note=86, velocity=100, time=188),
    Message('note_on', channel=2, note=85, velocity=1, time=4),
    Message('note_off', channel=2, note=85, velocity=100, time=188),
    Message('note_on', channel=2, note=86, velocity=1, time=4),
    Message('note_off', channel=2, note=86, velocity=100, time=380),
    Message('note_on', channel=2, note=85, velocity=1, time=4),
    Message('note_off', channel=2, note=85, velocity=100, time=380),
    Message('note_on', channel=2, note=83, velocity=1, time=4),
    Message('note_off', channel=2, note=83, velocity=100, time=1148),
    MetaMessage('end_of_track', time=0)]),
  MidiTrack([
    MetaMessage('track_name', name='"NIGHT CRAWLER"', time=0),
    Message('control_change', channel=0, control=0, value=0, time=0),
    Message('program_change', channel=0, program=27, time=0),
    Message('control_change', channel=0, control=7, value=88, time=0),
    Message('control_change', channel=0, control=10, value=64, time=0),
    Message('control_change', channel=0, control=91, value=124, time=0),
    Message('control_change', channel=0, control=93, value=127, time=0),
    MetaMessage('key_signature', key='D', time=0),
    Message('note_on', channel=0, note=52, velocity=100, time=0),
    Message('note_off', channel=0, note=52, velocity=100, time=184),
    Message('note_on', channel=0, note=59, velocity=100, time=8),
    Message('note_off', channel=0, note=59, velocity=100, time=184),
    Message('note_on', channel=0, note=64, velocity=100, time=8),
    Message('note_off', channel=0, note=64, velocity=100, time=184),
    Message('note_on', channel=0, note=53, velocity=100, time=8),
    Message('note_off', channel=0, note=53, velocity=100, time=184),
    Message('note_on', channel=0, note=52, velocity=100, time=8),
    Message('note_off', channel=0, note=52, velocity=100, time=184),
    Message('note_on', channel=0, note=59, velocity=100, time=8),
    Message('note_off', channel=0, note=59, velocity=100, time=184),
    Message('note_on', channel=0, note=64, velocity=100, time=8),
    Message('note_off', channel=0, note=64, velocity=100, time=184),
    Message('note_on', channel=0, note=50, velocity=100, time=8),
    Message('note_off', channel=0, note=50, velocity=100, time=184),
    Message('note_on', channel=0, note=52, velocity=100, time=8),
    Message('note_off', channel=0, note=52, velocity=100, time=184),
    Message('note_on', channel=0, note=59, velocity=100, time=8),
    Message('note_off', channel=0, note=59, velocity=100, time=184),
    Message('note_on', channel=0, note=47, velocity=100, time=8),
    Message('note_off', channel=0, note=47, velocity=100, time=184),
    Message('note_on', channel=0, note=54, velocity=100, time=8),
    Message('note_off', channel=0, note=54, velocity=100, time=184),
    Message('note_on', channel=0, note=50, velocity=100, time=8),
    Message('note_off', channel=0, note=50, velocity=100, time=184),
    Message('note_on', channel=0, note=57, velocity=100, time=8),
    Message('note_off', channel=0, note=57, velocity=100, time=184),
    Message('note_on', channel=0, note=62, velocity=100, time=8),
    Message('note_off', channel=0, note=62, velocity=100, time=184),
    Message('note_on', channel=0, note=50, velocity=100, time=8),
    Message('note_off', channel=0, note=50, velocity=100, time=184),
    Message('note_on', channel=0, note=52, velocity=100, time=8),
    Message('note_off', channel=0, note=52, velocity=100, time=184),
    Message('note_on', channel=0, note=59, velocity=100, time=8),
    Message('note_off', channel=0, note=59, velocity=100, time=184),
    Message('note_on', channel=0, note=64, velocity=100, time=8),
    Message('note_off', channel=0, note=64, velocity=100, time=184),
    Message('note_on', channel=0, note=53, velocity=100, time=8),
    Message('note_off', channel=0, note=53, velocity=100, time=184),
    Message('note_on', channel=0, note=52, velocity=100, time=8),
    Message('note_off', channel=0, note=52, velocity=100, time=184),
    Message('note_on', channel=0, note=59, velocity=100, time=8),
    Message('note_off', channel=0, note=59, velocity=100, time=184),
    Message('note_on', channel=0, note=64, velocity=100, time=8),
    Message('note_off', channel=0, note=64, velocity=100, time=184),
    Message('note_on', channel=0, note=50, velocity=100, time=8),
    Message('note_off', channel=0, note=50, velocity=100, time=184),
    Message('note_on', channel=0, note=52, velocity=100, time=8),
    Message('note_off', channel=0, note=52, velocity=100, time=184),
    Message('note_on', channel=0, note=59, velocity=100, time=8),
    Message('note_off', channel=0, note=59, velocity=100, time=184),
    Message('note_on', channel=0, note=47, velocity=100, time=8),
    Message('note_off', channel=0, note=47, velocity=100, time=184),
    Message('note_on', channel=0, note=54, velocity=100, time=8),
    Message('note_off', channel=0, note=54, velocity=100, time=184),
    Message('note_on', channel=0, note=50, velocity=100, time=8),
    Message('note_off', channel=0, note=50, velocity=100, time=184),
    Message('note_on', channel=0, note=57, velocity=100, time=8),
    Message('note_off', channel=0, note=57, velocity=100, time=184),
    Message('note_on', channel=0, note=62, velocity=100, time=8),
    Message('note_off', channel=0, note=62, velocity=100, time=184),
    Message('note_on', channel=0, note=50, velocity=100, time=8),
    Message('note_off', channel=0, note=50, velocity=100, time=184),
    Message('program_change', channel=0, program=30, time=8),
    Message('program_change', channel=0, program=30, time=0),
    Message('note_on', channel=0, note=52, velocity=100, time=0),
    Message('note_on', channel=0, note=59, velocity=100, time=0),
    Message('note_on', channel=0, note=64, velocity=100, time=0),
    Message('note_off', channel=0, note=52, velocity=100, time=376),
    Message('note_off', channel=0, note=59, velocity=100, time=0),
    Message('note_off', channel=0, note=64, velocity=100, time=0),
    Message('note_on', channel=0, note=40, velocity=100, time=8),
    Message('note_off', channel=0, note=40, velocity=100, time=184),
    Message('note_on', channel=0, note=40, velocity=100, time=8),
    Message('note_off', channel=0, note=40, velocity=100, time=184),
    Message('note_on', channel=0, note=40, velocity=100, time=8),
    Message('note_off', channel=0, note=40, velocity=100, time=184),
    Message('note_on', channel=0, note=40, velocity=100, time=8),
    Message('note_off', channel=0, note=40, velocity=100, time=184),
    Message('note_on', channel=0, note=53, velocity=100, time=8),
    Message('note_on', channel=0, note=60, velocity=100, time=0),
    Message('note_on', channel=0, note=65, velocity=100, time=0),
    Message('note_off', channel=0, note=53, velocity=100, time=376),
    Message('note_off', channel=0, note=60, velocity=100, time=0),
    Message('note_off', channel=0, note=65, velocity=100, time=0),
    Message('program_change', channel=0, program=30, time=8),
    Message('program_change', channel=0, program=30, time=0),
    Message('note_on', channel=0, note=52, velocity=100, time=0),
    Message('note_on', channel=0, note=59, velocity=100, time=0),
    Message('note_on', channel=0, note=64, velocity=100, time=0),
    Message('note_off', channel=0, note=52, velocity=100, time=376),
    Message('note_off', channel=0, note=59, velocity=100, time=0),
    Message('note_off', channel=0, note=64, velocity=100, time=0),
    Message('note_on', channel=0, note=40, velocity=100, time=8),
    Message('note_off', channel=0, note=40, velocity=100, time=184),
    Message('note_on', channel=0, note=40, velocity=100, time=8),
    Message('note_off', channel=0, note=40, velocity=100, time=184),
    Message('note_on', channel=0, note=40, velocity=100, time=8),
    Message('note_off', channel=0, note=40, velocity=100, time=184),
    Message('note_on', channel=0, note=40, velocity=100, time=8),
    Message('note_off', channel=0, note=40, velocity=100, time=184),
    Message('note_on', channel=0, note=62, velocity=100, time=8),
    Message('note_on', channel=0, note=57, velocity=100, time=0),
    Message('note_on', channel=0, note=50, velocity=100, time=0),
    Message('note_off', channel=0, note=62, velocity=100, time=376),
    Message('note_off', channel=0, note=57, velocity=100, time=0),
    Message('note_off', channel=0, note=50, velocity=100, time=0),
    Message('program_change', channel=0, program=30, time=8),
    Message('program_change', channel=0, program=30, time=0),
    Message('note_on', channel=0, note=52, velocity=100, time=0),
    Message('note_on', channel=0, note=59, velocity=100, time=0),
    Message('note_on', channel=0, note=64, velocity=100, time=0),
    Message('note_off', channel=0, note=52, velocity=100, time=376),
    Message('note_off', channel=0, note=59, velocity=100, time=0),
    Message('note_off', channel=0, note=64, velocity=100, time=0),
    Message('note_on', channel=0, note=40, velocity=100, time=8),
    Message('note_off', channel=0, note=40, velocity=100, time=184),
    Message('note_on', channel=0, note=40, velocity=100, time=8),
    Message('note_off', channel=0, note=40, velocity=100, time=184),
    Message('note_on', channel=0, note=47, velocity=100, time=8),
    Message('program_change', channel=0, program=30, time=0),
    Message('program_change', channel=0, program=30, time=0),
    Message('note_on', channel=0, note=54, velocity=100, time=0),
    Message('note_on', channel=0, note=59, velocity=100, time=0),
    Message('note_off', channel=0, note=47, velocity=100, time=376),
    Message('note_off', channel=0, note=54, velocity=100, time=0),
    Message('note_off', channel=0, note=59, velocity=100, time=0),
    Message('note_on', channel=0, note=40, velocity=100, time=8),
    Message('note_off', channel=0, note=40, velocity=100, time=184),
    Message('note_on', channel=0, note=40, velocity=100, time=8),
    Message('note_off', channel=0, note=40, velocity=100, time=184),
    Message('note_on', channel=0, note=62, velocity=100, time=8),
    Message('note_on', channel=0, note=57, velocity=100, time=0),
    Message('note_on', channel=0, note=50, velocity=100, time=0),
    Message('note_off', channel=0, note=62, velocity=100, time=376),
    Message('note_off', channel=0, note=57, velocity=100, time=0),
    Message('note_off', channel=0, note=50, velocity=100, time=0),
    Message('note_on', channel=0, note=40, velocity=100, time=8),
    Message('note_off', channel=0, note=40, velocity=100, time=184),
    Message('note_on', channel=0, note=40, velocity=100, time=8),
    Message('note_off', channel=0, note=40, velocity=100, time=184),
    Message('note_on', channel=0, note=40, velocity=100, time=8),
    Message('note_off', channel=0, note=40, velocity=100, time=184),
    Message('note_on', channel=0, note=40, velocity=100, time=8),
    Message('note_off', channel=0, note=40, velocity=100, time=184),
    Message('note_on', channel=0, note=40, velocity=100, time=8),
    Message('note_off', channel=0, note=40, velocity=100, time=184),
    Message('note_on', channel=0, note=40, velocity=100, time=8),
    Message('note_off', channel=0, note=40, velocity=100, time=184),
    Message('program_change', channel=0, program=30, time=8),
    Message('program_change', channel=0, program=30, time=0),
    Message('note_on', channel=0, note=52, velocity=100, time=0),
    Message('note_on', channel=0, note=59, velocity=100, time=0),
    Message('note_on', channel=0, note=64, velocity=100, time=0),
    Message('note_off', channel=0, note=52, velocity=100, time=376),
    Message('note_off', channel=0, note=59, velocity=100, time=0),
    Message('note_off', channel=0, note=64, velocity=100, time=0),
    Message('note_on', channel=0, note=40, velocity=100, time=8),
    Message('note_off', channel=0, note=40, velocity=100, time=184),
    Message('note_on', channel=0, note=40, velocity=100, time=8),
    Message('note_off', channel=0, note=40, velocity=100, time=184),
    Message('note_on', channel=0, note=40, velocity=100, time=8),
    Message('note_off', channel=0, note=40, velocity=100, time=184),
    Message('note_on', channel=0, note=40, velocity=100, time=8),
    Message('note_off', channel=0, note=40, velocity=100, time=184),
    Message('note_on', channel=0, note=53, velocity=100, time=8),
    Message('note_on', channel=0, note=60, velocity=100, time=0),
    Message('note_on', channel=0, note=65, velocity=100, time=0),
    Message('note_off', channel=0, note=53, velocity=100, time=376),
    Message('note_off', channel=0, note=60, velocity=100, time=0),
    Message('note_off', channel=0, note=65, velocity=100, time=0),
    Message('program_change', channel=0, program=30, time=8),
    Message('program_change', channel=0, program=30, time=0),
    Message('note_on', channel=0, note=52, velocity=100, time=0),
    Message('note_on', channel=0, note=59, velocity=100, time=0),
    Message('note_on', channel=0, note=64, velocity=100, time=0),
    Message('note_off', channel=0, note=52, velocity=100, time=376),
    Message('note_off', channel=0, note=59, velocity=100, time=0),
    Message('note_off', channel=0, note=64, velocity=100, time=0),
    Message('note_on', channel=0, note=40, velocity=100, time=8),
    Message('note_off', channel=0, note=40, velocity=100, time=184),
    Message('note_on', channel=0, note=40, velocity=100, time=8),
    Message('note_off', channel=0, note=40, velocity=100, time=184),
    Message('note_on', channel=0, note=40, velocity=100, time=8),
    Message('note_off', channel=0, note=40, velocity=100, time=184),
    Message('note_on', channel=0, note=40, velocity=100, time=8),
    Message('note_off', channel=0, note=40, velocity=100, time=184),
    Message('note_on', channel=0, note=62, velocity=100, time=8),
    Message('note_on', channel=0, note=57, velocity=100, time=0),
    Message('note_on', channel=0, note=50, velocity=100, time=0),
    Message('note_off', channel=0, note=62, velocity=100, time=376),
    Message('note_off', channel=0, note=57, velocity=100, time=0),
    Message('note_off', channel=0, note=50, velocity=100, time=0),
    Message('program_change', channel=0, program=30, time=8),
    Message('program_change', channel=0, program=30, time=0),
    Message('note_on', channel=0, note=52, velocity=100, time=0),
    Message('note_on', channel=0, note=59, velocity=100, time=0),
    Message('note_on', channel=0, note=64, velocity=100, time=0),
    Message('note_off', channel=0, note=52, velocity=100, time=376),
    Message('note_off', channel=0, note=59, velocity=100, time=0),
    Message('note_off', channel=0, note=64, velocity=100, time=0),
    Message('note_on', channel=0, note=40, velocity=100, time=8),
    Message('note_off', channel=0, note=40, velocity=100, time=184),
    Message('note_on', channel=0, note=40, velocity=100, time=8),
    Message('note_off', channel=0, note=40, velocity=100, time=184),
    Message('note_on', channel=0, note=47, velocity=100, time=8),
    Message('program_change', channel=0, program=30, time=0),
    Message('program_change', channel=0, program=30, time=0),
    Message('note_on', channel=0, note=54, velocity=100, time=0),
    Message('note_on', channel=0, note=59, velocity=100, time=0),
    Message('note_off', channel=0, note=47, velocity=100, time=376),
    Message('note_off', channel=0, note=54, velocity=100, time=0),
    Message('note_off', channel=0, note=59, velocity=100, time=0),
    Message('note_on', channel=0, note=40, velocity=100, time=8),
    Message('note_off', channel=0, note=40, velocity=100, time=184),
    Message('note_on', channel=0, note=40, velocity=100, time=8),
    Message('note_off', channel=0, note=40, velocity=100, time=184),
    Message('note_on', channel=0, note=47, velocity=100, time=8),
    Message('note_off', channel=0, note=47, velocity=100, time=184),
    Message('note_on', channel=0, note=47, velocity=100, time=8),
    Message('note_off', channel=0, note=47, velocity=100, time=184),
    Message('note_on', channel=0, note=57, velocity=100, time=8),
    Message('note_on', channel=0, note=62, velocity=100, time=0),
    Message('note_on', channel=0, note=66, velocity=100, time=0),
    Message('note_off', channel=0, note=57, velocity=100, time=376),
    Message('note_off', channel=0, note=62, velocity=100, time=0),
    Message('note_off', channel=0, note=66, velocity=100, time=0),
    Message('note_on', channel=0, note=47, velocity=100, time=8),
    Message('note_off', channel=0, note=47, velocity=100, time=184),
    Message('note_on', channel=0, note=47, velocity=100, time=8),
    Message('note_off', channel=0, note=47, velocity=100, time=184),
    Message('note_on', channel=0, note=66, velocity=100, time=8),
    Message('note_on', channel=0, note=62, velocity=100, time=0),
    Message('note_on', channel=0, note=57, velocity=100, time=0),
    Message('note_off', channel=0, note=66, velocity=100, time=376),
    Message('note_off', channel=0, note=62, velocity=100, time=0),
    Message('note_off', channel=0, note=57, velocity=100, time=0),
    Message('note_on', channel=0, note=47, velocity=100, time=8),
    Message('note_off', channel=0, note=47, velocity=100, time=184),
    Message('note_on', channel=0, note=47, velocity=100, time=8),
    Message('note_off', channel=0, note=47, velocity=100, time=184),
    Message('note_on', channel=0, note=47, velocity=100, time=8),
    Message('note_off', channel=0, note=47, velocity=100, time=184),
    Message('note_on', channel=0, note=47, velocity=100, time=8),
    Message('note_off', channel=0, note=47, velocity=100, time=184),
    Message('note_on', channel=0, note=47, velocity=100, time=8),
    Message('note_off', channel=0, note=47, velocity=100, time=184),
    Message('note_on', channel=0, note=47, velocity=100, time=8),
    Message('note_off', channel=0, note=47, velocity=100, time=184),
    Message('note_on', channel=0, note=47, velocity=100, time=8),
    Message('note_off', channel=0, note=47, velocity=100, time=184),
    Message('note_on', channel=0, note=47, velocity=100, time=8),
    Message('note_off', channel=0, note=47, velocity=100, time=184),
    Message('note_on', channel=0, note=47, velocity=100, time=8),
    Message('note_off', channel=0, note=47, velocity=100, time=184),
    Message('note_on', channel=0, note=47, velocity=100, time=8),
    Message('note_off', channel=0, note=47, velocity=100, time=184),
    Message('note_on', channel=0, note=47, velocity=100, time=8),
    Message('note_off', channel=0, note=47, velocity=100, time=184),
    Message('note_on', channel=0, note=47, velocity=100, time=8),
    Message('note_off', channel=0, note=47, velocity=100, time=184),
    Message('note_on', channel=0, note=47, velocity=100, time=8),
    Message('note_off', channel=0, note=47, velocity=100, time=184),
    Message('note_on', channel=0, note=47, velocity=100, time=8),
    Message('note_off', channel=0, note=47, velocity=100, time=184),
    Message('note_on', channel=0, note=47, velocity=100, time=8),
    Message('note_off', channel=0, note=47, velocity=100, time=184),
    Message('note_on', channel=0, note=47, velocity=100, time=8),
    Message('note_off', channel=0, note=47, velocity=100, time=184),
    Message('note_on', channel=0, note=47, velocity=100, time=8),
    Message('note_off', channel=0, note=47, velocity=100, time=184),
    Message('note_on', channel=0, note=47, velocity=100, time=8),
    Message('note_off', channel=0, note=47, velocity=100, time=184),
    Message('note_on', channel=0, note=47, velocity=100, time=8),
    Message('note_off', channel=0, note=47, velocity=100, time=184),
    Message('note_on', channel=0, note=47, velocity=100, time=8),
    Message('note_off', channel=0, note=47, velocity=100, time=184),
    Message('note_on', channel=0, note=47, velocity=100, time=8),
    Message('note_off', channel=0, note=47, velocity=100, time=184),
    Message('note_on', channel=0, note=47, velocity=100, time=8),
    Message('note_off', channel=0, note=47, velocity=100, time=184),
    Message('note_on', channel=0, note=47, velocity=100, time=8),
    Message('note_off', channel=0, note=47, velocity=100, time=184),
    Message('note_on', channel=0, note=47, velocity=100, time=8),
    Message('note_off', channel=0, note=47, velocity=100, time=184),
    Message('note_on', channel=0, note=47, velocity=100, time=8),
    Message('note_off', channel=0, note=47, velocity=100, time=184),
    Message('note_on', channel=0, note=47, velocity=100, time=8),
    Message('note_off', channel=0, note=47, velocity=100, time=184),
    Message('note_on', channel=0, note=47, velocity=100, time=8),
    Message('note_off', channel=0, note=47, velocity=100, time=184),
    Message('note_on', channel=0, note=47, velocity=100, time=8),
    Message('note_off', channel=0, note=47, velocity=100, time=184),
    Message('note_on', channel=0, note=47, velocity=100, time=8),
    Message('note_off', channel=0, note=47, velocity=100, time=184),
    Message('note_on', channel=0, note=47, velocity=100, time=8),
    Message('note_off', channel=0, note=47, velocity=100, time=184),
    Message('note_on', channel=0, note=47, velocity=100, time=8),
    Message('note_off', channel=0, note=47, velocity=100, time=184),
    Message('note_on', channel=0, note=47, velocity=100, time=8),
    Message('note_off', channel=0, note=47, velocity=100, time=184),
    Message('note_on', channel=0, note=45, velocity=100, time=8),
    Message('note_off', channel=0, note=45, velocity=100, time=184),
    Message('note_on', channel=0, note=45, velocity=100, time=8),
    Message('note_off', channel=0, note=45, velocity=100, time=184),
    Message('note_on', channel=0, note=45, velocity=100, time=8),
    Message('note_off', channel=0, note=45, velocity=100, time=184),
    Message('note_on', channel=0, note=45, velocity=100, time=8),
    Message('note_off', channel=0, note=45, velocity=100, time=184),
    Message('note_on', channel=0, note=45, velocity=100, time=8),
    Message('note_off', channel=0, note=45, velocity=100, time=184),
    Message('note_on', channel=0, note=45, velocity=100, time=8),
    Message('note_off', channel=0, note=45, velocity=100, time=184),
    Message('note_on', channel=0, note=45, velocity=100, time=8),
    Message('note_off', channel=0, note=45, velocity=100, time=184),
    Message('note_on', channel=0, note=45, velocity=100, time=8),
    Message('note_off', channel=0, note=45, velocity=100, time=184),
    Message('note_on', channel=0, note=45, velocity=100, time=8),
    Message('note_off', channel=0, note=45, velocity=100, time=184),
    Message('note_on', channel=0, note=45, velocity=100, time=8),
    Message('note_off', channel=0, note=45, velocity=100, time=184),
    Message('note_on', channel=0, note=45, velocity=100, time=8),
    Message('note_off', channel=0, note=45, velocity=100, time=184),
    Message('note_on', channel=0, note=45, velocity=100, time=8),
    Message('note_off', channel=0, note=45, velocity=100, time=184),
    Message('note_on', channel=0, note=45, velocity=100, time=8),
    Message('note_off', channel=0, note=45, velocity=100, time=184),
    Message('note_on', channel=0, note=45, velocity=100, time=8),
    Message('note_off', channel=0, note=45, velocity=100, time=184),
    Message('note_on', channel=0, note=45, velocity=100, time=8),
    Message('note_off', channel=0, note=45, velocity=100, time=184),
    Message('note_on', channel=0, note=45, velocity=100, time=8),
    Message('note_off', channel=0, note=45, velocity=100, time=184),
    Message('note_on', channel=0, note=50, velocity=100, time=8),
    Message('note_off', channel=0, note=50, velocity=100, time=184),
    Message('note_on', channel=0, note=49, velocity=100, time=8),
    Message('note_off', channel=0, note=49, velocity=100, time=184),
    Message('note_on', channel=0, note=47, velocity=100, time=8),
    Message('note_off', channel=0, note=47, velocity=100, time=376),
    Message('note_on', channel=0, note=47, velocity=100, time=8),
    Message('note_off', channel=0, note=47, velocity=100, time=184),
    Message('note_on', channel=0, note=47, velocity=100, time=8),
    Message('note_off', channel=0, note=47, velocity=100, time=184),
    Message('note_on', channel=0, note=62, velocity=100, time=8),
    Message('note_on', channel=0, note=57, velocity=100, time=0),
    Message('note_on', channel=0, note=50, velocity=100, time=0),
    Message('note_off', channel=0, note=62, velocity=100, time=376),
    Message('note_off', channel=0, note=57, velocity=100, time=0),
    Message('note_off', channel=0, note=50, velocity=100, time=0),
    Message('note_on', channel=0, note=47, velocity=100, time=8),
    Message('note_off', channel=0, note=47, velocity=100, time=184),
    Message('note_on', channel=0, note=47, velocity=100, time=8),
    Message('note_off', channel=0, note=47, velocity=100, time=184),
    Message('note_on', channel=0, note=47, velocity=100, time=8),
    Message('note_off', channel=0, note=47, velocity=100, time=184),
    Message('note_on', channel=0, note=47, velocity=100, time=8),
    Message('note_off', channel=0, note=47, velocity=100, time=184),
    Message('note_on', channel=0, note=64, velocity=100, time=8),
    Message('note_on', channel=0, note=59, velocity=100, time=0),
    Message('note_on', channel=0, note=52, velocity=100, time=0),
    Message('note_off', channel=0, note=64, velocity=100, time=376),
    Message('note_off', channel=0, note=59, velocity=100, time=0),
    Message('note_off', channel=0, note=52, velocity=100, time=0),
    Message('note_on', channel=0, note=52, velocity=100, time=8),
    Message('note_on', channel=0, note=59, velocity=100, time=0),
    Message('note_on', channel=0, note=64, velocity=100, time=0),
    Message('note_off', channel=0, note=52, velocity=100, time=376),
    Message('note_off', channel=0, note=59, velocity=100, time=0),
    Message('note_off', channel=0, note=64, velocity=100, time=0),
    Message('note_on', channel=0, note=47, velocity=100, time=8),
    Message('note_off', channel=0, note=47, velocity=100, time=184),
    Message('note_on', channel=0, note=47, velocity=100, time=8),
    Message('note_off', channel=0, note=47, velocity=100, time=184),
    Message('note_on', channel=0, note=47, velocity=100, time=8),
    Message('note_off', channel=0, note=47, velocity=100, time=184),
    Message('note_on', channel=0, note=47, velocity=100, time=8),
    Message('note_off', channel=0, note=47, velocity=100, time=184),
    Message('note_on', channel=0, note=47, velocity=100, time=8),
    Message('note_off', channel=0, note=47, velocity=100, time=184),
    Message('note_on', channel=0, note=47, velocity=100, time=8),
    Message('note_off', channel=0, note=47, velocity=100, time=184),
    Message('note_on', channel=0, note=47, velocity=100, time=8),
    Message('note_off', channel=0, note=47, velocity=100, time=184),
    Message('note_on', channel=0, note=47, velocity=100, time=8),
    Message('note_off', channel=0, note=47, velocity=100, time=184),
    Message('note_on', channel=0, note=47, velocity=100, time=8),
    Message('note_off', channel=0, note=47, velocity=100, time=184),
    Message('note_on', channel=0, note=47, velocity=100, time=8),
    Message('note_off', channel=0, note=47, velocity=100, time=184),
    Message('note_on', channel=0, note=47, velocity=100, time=8),
    Message('note_off', channel=0, note=47, velocity=100, time=184),
    Message('note_on', channel=0, note=47, velocity=100, time=8),
    Message('note_off', channel=0, note=47, velocity=100, time=184),
    Message('note_on', channel=0, note=47, velocity=100, time=8),
    Message('note_off', channel=0, note=47, velocity=100, time=184),
    Message('note_on', channel=0, note=47, velocity=100, time=8),
    Message('note_off', channel=0, note=47, velocity=100, time=184),
    Message('note_on', channel=0, note=47, velocity=100, time=8),
    Message('note_off', channel=0, note=47, velocity=100, time=184),
    Message('note_on', channel=0, note=47, velocity=100, time=8),
    Message('note_off', channel=0, note=47, velocity=100, time=184),
    Message('note_on', channel=0, note=47, velocity=100, time=8),
    Message('note_off', channel=0, note=47, velocity=100, time=184),
    Message('note_on', channel=0, note=47, velocity=100, time=8),
    Message('note_off', channel=0, note=47, velocity=100, time=184),
    Message('note_on', channel=0, note=47, velocity=100, time=8),
    Message('note_off', channel=0, note=47, velocity=100, time=184),
    Message('note_on', channel=0, note=47, velocity=100, time=8),
    Message('note_off', channel=0, note=47, velocity=100, time=184),
    Message('note_on', channel=0, note=47, velocity=100, time=8),
    Message('note_off', channel=0, note=47, velocity=100, time=184),
    Message('note_on', channel=0, note=47, velocity=100, time=8),
    Message('note_off', channel=0, note=47, velocity=100, time=184),
    Message('note_on', channel=0, note=47, velocity=100, time=8),
    Message('note_off', channel=0, note=47, velocity=100, time=184),
    Message('note_on', channel=0, note=47, velocity=100, time=8),
    Message('note_off', channel=0, note=47, velocity=100, time=184),
    Message('note_on', channel=0, note=47, velocity=100, time=8),
    Message('note_off', channel=0, note=47, velocity=100, time=184),
    Message('note_on', channel=0, note=47, velocity=100, time=8),
    Message('note_off', channel=0, note=47, velocity=100, time=184),
    Message('note_on', channel=0, note=47, velocity=100, time=8),
    Message('note_off', channel=0, note=47, velocity=100, time=184),
    Message('note_on', channel=0, note=47, velocity=100, time=8),
    Message('note_off', channel=0, note=47, velocity=100, time=184),
    Message('note_on', channel=0, note=47, velocity=100, time=8),
    Message('note_off', channel=0, note=47, velocity=100, time=184),
    Message('note_on', channel=0, note=47, velocity=100, time=8),
    Message('note_off', channel=0, note=47, velocity=100, time=184),
    Message('note_on', channel=0, note=47, velocity=100, time=8),
    Message('note_off', channel=0, note=47, velocity=100, time=184),
    Message('note_on', channel=0, note=47, velocity=100, time=8),
    Message('note_off', channel=0, note=47, velocity=100, time=184),
    Message('note_on', channel=0, note=45, velocity=100, time=8),
    Message('note_off', channel=0, note=45, velocity=100, time=184),
    Message('note_on', channel=0, note=45, velocity=100, time=8),
    Message('note_off', channel=0, note=45, velocity=100, time=184),
    Message('note_on', channel=0, note=45, velocity=100, time=8),
    Message('note_off', channel=0, note=45, velocity=100, time=184),
    Message('note_on', channel=0, note=45, velocity=100, time=8),
    Message('note_off', channel=0, note=45, velocity=100, time=184),
    Message('note_on', channel=0, note=45, velocity=100, time=8),
    Message('note_off', channel=0, note=45, velocity=100, time=184),
    Message('note_on', channel=0, note=45, velocity=100, time=8),
    Message('note_off', channel=0, note=45, velocity=100, time=184),
    Message('note_on', channel=0, note=45, velocity=100, time=8),
    Message('note_off', channel=0, note=45, velocity=100, time=184),
    Message('note_on', channel=0, note=45, velocity=100, time=8),
    Message('note_off', channel=0, note=45, velocity=100, time=184),
    Message('note_on', channel=0, note=45, velocity=100, time=8),
    Message('note_off', channel=0, note=45, velocity=100, time=184),
    Message('note_on', channel=0, note=45, velocity=100, time=8),
    Message('note_off', channel=0, note=45, velocity=100, time=184),
    Message('note_on', channel=0, note=45, velocity=100, time=8),
    Message('note_off', channel=0, note=45, velocity=100, time=184),
    Message('note_on', channel=0, note=45, velocity=100, time=8),
    Message('note_off', channel=0, note=45, velocity=100, time=184),
    Message('note_on', channel=0, note=45, velocity=100, time=8),
    Message('note_off', channel=0, note=45, velocity=100, time=184),
    Message('note_on', channel=0, note=45, velocity=100, time=8),
    Message('note_off', channel=0, note=45, velocity=100, time=184),
    Message('note_on', channel=0, note=45, velocity=100, time=8),
    Message('note_off', channel=0, note=45, velocity=100, time=184),
    Message('note_on', channel=0, note=45, velocity=100, time=8),
    Message('note_off', channel=0, note=45, velocity=100, time=184),
    Message('note_on', channel=0, note=50, velocity=100, time=8),
    Message('note_off', channel=0, note=50, velocity=100, time=184),
    Message('note_on', channel=0, note=49, velocity=100, time=8),
    Message('note_off', channel=0, note=49, velocity=100, time=184),
    Message('note_on', channel=0, note=47, velocity=100, time=8),
    Message('note_off', channel=0, note=47, velocity=100, time=376),
    Message('note_on', channel=0, note=47, velocity=100, time=8),
    Message('note_off', channel=0, note=47, velocity=100, time=184),
    Message('note_on', channel=0, note=47, velocity=100, time=8),
    Message('note_off', channel=0, note=47, velocity=100, time=184),
    Message('note_on', channel=0, note=62, velocity=100, time=8),
    Message('note_on', channel=0, note=57, velocity=100, time=0),
    Message('note_on', channel=0, note=50, velocity=100, time=0),
    Message('note_off', channel=0, note=62, velocity=100, time=376),
    Message('note_off', channel=0, note=57, velocity=100, time=0),
    Message('note_off', channel=0, note=50, velocity=100, time=0),
    Message('note_on', channel=0, note=47, velocity=100, time=8),
    Message('note_off', channel=0, note=47, velocity=100, time=184),
    Message('note_on', channel=0, note=47, velocity=100, time=8),
    Message('note_off', channel=0, note=47, velocity=100, time=184),
    Message('note_on', channel=0, note=47, velocity=100, time=8),
    Message('note_off', channel=0, note=47, velocity=100, time=184),
    Message('note_on', channel=0, note=47, velocity=100, time=8),
    Message('note_off', channel=0, note=47, velocity=100, time=184),
    Message('note_on', channel=0, note=64, velocity=100, time=8),
    Message('note_on', channel=0, note=59, velocity=100, time=0),
    Message('note_on', channel=0, note=52, velocity=100, time=0),
    Message('note_off', channel=0, note=64, velocity=100, time=376),
    Message('note_off', channel=0, note=59, velocity=100, time=0),
    Message('note_off', channel=0, note=52, velocity=100, time=0),
    Message('note_on', channel=0, note=52, velocity=100, time=8),
    Message('note_on', channel=0, note=59, velocity=100, time=0),
    Message('note_on', channel=0, note=64, velocity=100, time=0),
    Message('note_off', channel=0, note=52, velocity=100, time=376),
    Message('note_off', channel=0, note=59, velocity=100, time=0),
    Message('note_off', channel=0, note=64, velocity=100, time=0),
    Message('note_on', channel=0, note=42, velocity=100, time=8),
    Message('note_on', channel=0, note=49, velocity=100, time=0),
    Message('note_on', channel=0, note=54, velocity=100, time=0),
    Message('note_off', channel=0, note=42, velocity=100, time=376),
    Message('note_off', channel=0, note=49, velocity=100, time=0),
    Message('note_off', channel=0, note=54, velocity=100, time=0),
    Message('note_on', channel=0, note=40, velocity=100, time=8),
    Message('note_off', channel=0, note=40, velocity=100, time=184),
    Message('note_on', channel=0, note=40, velocity=100, time=8),
    Message('note_off', channel=0, note=40, velocity=100, time=184),
    Message('note_on', channel=0, note=42, velocity=100, time=8),
    Message('note_on', channel=0, note=49, velocity=100, time=0),
    Message('note_on', channel=0, note=54, velocity=100, time=0),
    Message('note_off', channel=0, note=42, velocity=100, time=376),
    Message('note_off', channel=0, note=49, velocity=100, time=0),
    Message('note_off', channel=0, note=54, velocity=100, time=0),
    Message('note_on', channel=0, note=40, velocity=100, time=8),
    Message('note_off', channel=0, note=40, velocity=100, time=184),
    Message('note_on', channel=0, note=40, velocity=100, time=8),
    Message('note_off', channel=0, note=40, velocity=100, time=184),
    Message('note_on', channel=0, note=49, velocity=100, time=8),
    Message('note_on', channel=0, note=54, velocity=100, time=0),
    Message('note_on', channel=0, note=42, velocity=100, time=0),
    Message('note_off', channel=0, note=49, velocity=100, time=376),
    Message('note_off', channel=0, note=54, velocity=100, time=0),
    Message('note_off', channel=0, note=42, velocity=100, time=0),
    Message('note_on', channel=0, note=40, velocity=100, time=8),
    Message('note_off', channel=0, note=40, velocity=100, time=184),
    Message('note_on', channel=0, note=40, velocity=100, time=8),
    Message('note_off', channel=0, note=40, velocity=100, time=184),
    Message('note_on', channel=0, note=40, velocity=100, time=8),
    Message('note_off', channel=0, note=40, velocity=100, time=184),
    Message('note_on', channel=0, note=42, velocity=100, time=8),
    Message('note_off', channel=0, note=42, velocity=100, time=184),
    Message('note_on', channel=0, note=55, velocity=100, time=8),
    Message('note_on', channel=0, note=50, velocity=100, time=0),
    Message('note_on', channel=0, note=43, velocity=100, time=0),
    Message('note_off', channel=0, note=55, velocity=100, time=376),
    Message('note_off', channel=0, note=50, velocity=100, time=0),
    Message('note_off', channel=0, note=43, velocity=100, time=0),
    Message('note_on', channel=0, note=42, velocity=100, time=8),
    Message('note_on', channel=0, note=49, velocity=100, time=0),
    Message('note_on', channel=0, note=54, velocity=100, time=0),
    Message('note_off', channel=0, note=42, velocity=100, time=376),
    Message('note_off', channel=0, note=49, velocity=100, time=0),
    Message('note_off', channel=0, note=54, velocity=100, time=0),
    Message('note_on', channel=0, note=40, velocity=100, time=8),
    Message('note_off', channel=0, note=40, velocity=100, time=184),
    Message('note_on', channel=0, note=40, velocity=100, time=8),
    Message('note_off', channel=0, note=40, velocity=100, time=184),
    Message('note_on', channel=0, note=42, velocity=100, time=8),
    Message('note_on', channel=0, note=49, velocity=100, time=0),
    Message('note_on', channel=0, note=54, velocity=100, time=0),
    Message('note_off', channel=0, note=42, velocity=100, time=376),
    Message('note_off', channel=0, note=49, velocity=100, time=0),
    Message('note_off', channel=0, note=54, velocity=100, time=0),
    Message('note_on', channel=0, note=40, velocity=100, time=8),
    Message('note_off', channel=0, note=40, velocity=100, time=184),
    Message('note_on', channel=0, note=40, velocity=100, time=8),
    Message('note_off', channel=0, note=40, velocity=100, time=184),
    Message('note_on', channel=0, note=43, velocity=100, time=8),
    Message('note_on', channel=0, note=50, velocity=100, time=0),
    Message('note_off', channel=0, note=43, velocity=100, time=184),
    Message('note_off', channel=0, note=50, velocity=100, time=0),
    Message('note_on', channel=0, note=49, velocity=100, time=8),
    Message('note_on', channel=0, note=42, velocity=100, time=0),
    Message('note_off', channel=0, note=49, velocity=100, time=184),
    Message('note_off', channel=0, note=42, velocity=100, time=0),
    Message('note_on', channel=0, note=40, velocity=100, time=8),
    Message('note_off', channel=0, note=40, velocity=100, time=376),
    Message('note_on', channel=0, note=48, velocity=100, time=8),
    Message('note_on', channel=0, note=55, velocity=100, time=0),
    Message('note_on', channel=0, note=60, velocity=100, time=0),
    Message('note_off', channel=0, note=48, velocity=100, time=760),
    Message('note_off', channel=0, note=55, velocity=100, time=0),
    Message('note_off', channel=0, note=60, velocity=100, time=0),
    Message('note_on', channel=0, note=54, velocity=100, time=8),
    Message('note_on', channel=0, note=42, velocity=100, time=0),
    Message('note_on', channel=0, note=49, velocity=100, time=0),
    Message('note_off', channel=0, note=54, velocity=100, time=376),
    Message('note_off', channel=0, note=42, velocity=100, time=0),
    Message('note_off', channel=0, note=49, velocity=100, time=0),
    Message('note_on', channel=0, note=40, velocity=100, time=8),
    Message('note_off', channel=0, note=40, velocity=100, time=184),
    Message('note_on', channel=0, note=40, velocity=100, time=8),
    Message('note_off', channel=0, note=40, velocity=100, time=184),
    Message('note_on', channel=0, note=42, velocity=100, time=8),
    Message('note_on', channel=0, note=49, velocity=100, time=0),
    Message('note_on', channel=0, note=54, velocity=100, time=0),
    Message('note_off', channel=0, note=42, velocity=100, time=376),
    Message('note_off', channel=0, note=49, velocity=100, time=0),
    Message('note_off', channel=0, note=54, velocity=100, time=0),
    Message('note_on', channel=0, note=40, velocity=100, time=8),
    Message('note_off', channel=0, note=40, velocity=100, time=184),
    Message('note_on', channel=0, note=40, velocity=100, time=8),
    Message('note_off', channel=0, note=40, velocity=100, time=184),
    Message('note_on', channel=0, note=54, velocity=100, time=8),
    Message('note_on', channel=0, note=42, velocity=100, time=0),
    Message('note_on', channel=0, note=49, velocity=100, time=0),
    Message('note_off', channel=0, note=54, velocity=100, time=376),
    Message('note_off', channel=0, note=42, velocity=100, time=0),
    Message('note_off', channel=0, note=49, velocity=100, time=0),
    Message('note_on', channel=0, note=40, velocity=100, time=8),
    Message('note_off', channel=0, note=40, velocity=100, time=184),
    Message('note_on', channel=0, note=40, velocity=100, time=8),
    Message('note_off', channel=0, note=40, velocity=100, time=184),
    Message('note_on', channel=0, note=40, velocity=100, time=8),
    Message('note_off', channel=0, note=40, velocity=100, time=184),
    Message('note_on', channel=0, note=42, velocity=100, time=8),
    Message('note_off', channel=0, note=42, velocity=100, time=184),
    Message('note_on', channel=0, note=55, velocity=100, time=8),
    Message('note_on', channel=0, note=50, velocity=100, time=0),
    Message('note_on', channel=0, note=43, velocity=100, time=0),
    Message('note_off', channel=0, note=55, velocity=100, time=376),
    Message('note_off', channel=0, note=50, velocity=100, time=0),
    Message('note_off', channel=0, note=43, velocity=100, time=0),
    Message('note_on', channel=0, note=54, velocity=100, time=8),
    Message('note_on', channel=0, note=42, velocity=100, time=0),
    Message('note_on', channel=0, note=49, velocity=100, time=0),
    Message('note_off', channel=0, note=54, velocity=100, time=376),
    Message('note_off', channel=0, note=42, velocity=100, time=0),
    Message('note_off', channel=0, note=49, velocity=100, time=0),
    Message('note_on', channel=0, note=40, velocity=100, time=8),
    Message('note_off', channel=0, note=40, velocity=100, time=184),
    Message('note_on', channel=0, note=40, velocity=100, time=8),
    Message('note_off', channel=0, note=40, velocity=100, time=184),
    Message('note_on', channel=0, note=42, velocity=100, time=8),
    Message('note_on', channel=0, note=49, velocity=100, time=0),
    Message('note_on', channel=0, note=54, velocity=100, time=0),
    Message('note_off', channel=0, note=42, velocity=100, time=376),
    Message('note_off', channel=0, note=49, velocity=100, time=0),
    Message('note_off', channel=0, note=54, velocity=100, time=0),
    Message('note_on', channel=0, note=40, velocity=100, time=8),
    Message('note_off', channel=0, note=40, velocity=100, time=184),
    Message('note_on', channel=0, note=40, velocity=100, time=8),
    Message('note_off', channel=0, note=40, velocity=100, time=184),
    Message('note_on', channel=0, note=42, velocity=100, time=8),
    Message('note_off', channel=0, note=42, velocity=100, time=184),
    Message('note_on', channel=0, note=42, velocity=100, time=8),
    Message('note_off', channel=0, note=42, velocity=100, time=184),
    Message('note_on', channel=0, note=42, velocity=100, time=8),
    Message('note_off', channel=0, note=42, velocity=100, time=184),
    Message('note_on', channel=0, note=42, velocity=100, time=8),
    Message('note_off', channel=0, note=42, velocity=100, time=184),
    Message('note_on', channel=0, note=49, velocity=100, time=8),
    Message('note_off', channel=0, note=49, velocity=100, time=184),
    Message('note_on', channel=0, note=47, velocity=100, time=8),
    Message('note_off', channel=0, note=47, velocity=100, time=184),
    Message('note_on', channel=0, note=45, velocity=100, time=8),
    Message('note_off', channel=0, note=45, velocity=100, time=376),
    Message('note_on', channel=0, note=47, velocity=100, time=8),
    Message('note_off', channel=0, note=47, velocity=100, time=184),
    Message('note_on', channel=0, note=47, velocity=100, time=8),
    Message('note_off', channel=0, note=47, velocity=100, time=184),
    Message('note_on', channel=0, note=54, velocity=100, time=8),
    Message('note_off', channel=0, note=54, velocity=100, time=184),
    Message('note_on', channel=0, note=47, velocity=100, time=8),
    Message('note_off', channel=0, note=47, velocity=100, time=184),
    Message('note_on', channel=0, note=47, velocity=100, time=8),
    Message('note_off', channel=0, note=47, velocity=100, time=184),
    Message('note_on', channel=0, note=55, velocity=100, time=8),
    Message('note_off', channel=0, note=55, velocity=100, time=184),
    Message('note_on', channel=0, note=47, velocity=100, time=8),
    Message('note_off', channel=0, note=47, velocity=100, time=184),
    Message('note_on', channel=0, note=47, velocity=100, time=8),
    Message('note_off', channel=0, note=47, velocity=100, time=184),
    Message('note_on', channel=0, note=54, velocity=100, time=8),
    Message('note_off', channel=0, note=54, velocity=100, time=184),
    Message('note_on', channel=0, note=47, velocity=100, time=8),
    Message('note_off', channel=0, note=47, velocity=100, time=184),
    Message('note_on', channel=0, note=47, velocity=100, time=8),
    Message('note_off', channel=0, note=47, velocity=100, time=184),
    Message('note_on', channel=0, note=52, velocity=100, time=8),
    Message('note_off', channel=0, note=52, velocity=100, time=184),
    Message('note_on', channel=0, note=47, velocity=100, time=8),
    Message('note_off', channel=0, note=47, velocity=100, time=184),
    Message('note_on', channel=0, note=47, velocity=100, time=8),
    Message('note_off', channel=0, note=47, velocity=100, time=184),
    Message('note_on', channel=0, note=54, velocity=100, time=8),
    Message('note_off', channel=0, note=54, velocity=100, time=184),
    Message('note_on', channel=0, note=47, velocity=100, time=8),
    Message('note_off', channel=0, note=47, velocity=100, time=184),
    Message('note_on', channel=0, note=45, velocity=100, time=8),
    Message('note_off', channel=0, note=45, velocity=100, time=184),
    Message('note_on', channel=0, note=45, velocity=100, time=8),
    Message('note_off', channel=0, note=45, velocity=100, time=184),
    Message('note_on', channel=0, note=52, velocity=100, time=8),
    Message('note_off', channel=0, note=52, velocity=100, time=184),
    Message('note_on', channel=0, note=45, velocity=100, time=8),
    Message('note_off', channel=0, note=45, velocity=100, time=184),
    Message('note_on', channel=0, note=45, velocity=100, time=8),
    Message('note_off', channel=0, note=45, velocity=100, time=184),
    Message('note_on', channel=0, note=49, velocity=100, time=8),
    Message('note_off', channel=0, note=49, velocity=100, time=184),
    Message('note_on', channel=0, note=42, velocity=100, time=8),
    Message('note_off', channel=0, note=42, velocity=100, time=184),
    Message('note_on', channel=0, note=42, velocity=100, time=8),
    Message('note_off', channel=0, note=42, velocity=100, time=184),
    Message('note_on', channel=0, note=42, velocity=100, time=8),
    Message('note_off', channel=0, note=42, velocity=100, time=184),
    Message('note_on', channel=0, note=42, velocity=100, time=8),
    Message('note_off', channel=0, note=42, velocity=100, time=184),
    Message('note_on', channel=0, note=49, velocity=100, time=8),
    Message('note_off', channel=0, note=49, velocity=100, time=184),
    Message('note_on', channel=0, note=42, velocity=100, time=8),
    Message('note_off', channel=0, note=42, velocity=100, time=184),
    Message('note_on', channel=0, note=50, velocity=100, time=8),
    Message('note_off', channel=0, note=50, velocity=100, time=184),
    Message('note_on', channel=0, note=42, velocity=100, time=8),
    Message('note_off', channel=0, note=42, velocity=100, time=184),
    Message('note_on', channel=0, note=49, velocity=100, time=8),
    Message('note_off', channel=0, note=49, velocity=100, time=184),
    Message('note_on', channel=0, note=42, velocity=100, time=8),
    Message('note_off', channel=0, note=42, velocity=100, time=184),
    Message('note_on', channel=0, note=47, velocity=100, time=8),
    Message('note_off', channel=0, note=47, velocity=100, time=184),
    Message('note_on', channel=0, note=47, velocity=100, time=8),
    Message('note_off', channel=0, note=47, velocity=100, time=184),
    Message('note_on', channel=0, note=54, velocity=100, time=8),
    Message('note_off', channel=0, note=54, velocity=100, time=184),
    Message('note_on', channel=0, note=47, velocity=100, time=8),
    Message('note_off', channel=0, note=47, velocity=100, time=184),
    Message('note_on', channel=0, note=47, velocity=100, time=8),
    Message('note_off', channel=0, note=47, velocity=100, time=184),
    Message('note_on', channel=0, note=55, velocity=100, time=8),
    Message('note_off', channel=0, note=55, velocity=100, time=184),
    Message('note_on', channel=0, note=47, velocity=100, time=8),
    Message('note_off', channel=0, note=47, velocity=100, time=184),
    Message('note_on', channel=0, note=47, velocity=100, time=8),
    Message('note_off', channel=0, note=47, velocity=100, time=184),
    Message('note_on', channel=0, note=54, velocity=100, time=8),
    Message('note_off', channel=0, note=54, velocity=100, time=184),
    Message('note_on', channel=0, note=47, velocity=100, time=8),
    Message('note_off', channel=0, note=47, velocity=100, time=184),
    Message('note_on', channel=0, note=47, velocity=100, time=8),
    Message('note_off', channel=0, note=47, velocity=100, time=184),
    Message('note_on', channel=0, note=52, velocity=100, time=8),
    Message('note_off', channel=0, note=52, velocity=100, time=184),
    Message('note_on', channel=0, note=47, velocity=100, time=8),
    Message('note_off', channel=0, note=47, velocity=100, time=184),
    Message('note_on', channel=0, note=47, velocity=100, time=8),
    Message('note_off', channel=0, note=47, velocity=100, time=184),
    Message('note_on', channel=0, note=54, velocity=100, time=8),
    Message('note_off', channel=0, note=54, velocity=100, time=184),
    Message('note_on', channel=0, note=47, velocity=100, time=8),
    Message('note_off', channel=0, note=47, velocity=100, time=184),
    Message('note_on', channel=0, note=45, velocity=100, time=8),
    Message('note_off', channel=0, note=45, velocity=100, time=184),
    Message('note_on', channel=0, note=45, velocity=100, time=8),
    Message('note_off', channel=0, note=45, velocity=100, time=184),
    Message('note_on', channel=0, note=52, velocity=100, time=8),
    Message('note_off', channel=0, note=52, velocity=100, time=184),
    Message('note_on', channel=0, note=52, velocity=100, time=8),
    Message('note_off', channel=0, note=52, velocity=100, time=184),
    Message('note_on', channel=0, note=52, velocity=100, time=8),
    Message('note_off', channel=0, note=52, velocity=100, time=184),
    Message('note_on', channel=0, note=49, velocity=100, time=8),
    Message('note_off', channel=0, note=49, velocity=100, time=568),
    Message('note_on', channel=0, note=42, velocity=100, time=8),
    Message('note_off', channel=0, note=42, velocity=100, time=184),
    Message('note_on', channel=0, note=42, velocity=100, time=8),
    Message('note_off', channel=0, note=42, velocity=100, time=184),
    Message('note_on', channel=0, note=49, velocity=100, time=8),
    Message('note_off', channel=0, note=49, velocity=100, time=184),
    Message('note_on', channel=0, note=42, velocity=100, time=8),
    Message('note_off', channel=0, note=42, velocity=100, time=184),
    Message('note_on', channel=0, note=50, velocity=100, time=8),
    Message('note_off', channel=0, note=50, velocity=100, time=184),
    Message('note_on', channel=0, note=49, velocity=100, time=8),
    Message('note_off', channel=0, note=49, velocity=100, time=568),
    Message('note_on', channel=0, note=64, velocity=100, time=8),
    Message('note_on', channel=0, note=59, velocity=100, time=0),
    Message('note_on', channel=0, note=52, velocity=100, time=0),
    Message('note_off', channel=0, note=64, velocity=100, time=376),
    Message('note_off', channel=0, note=59, velocity=100, time=0),
    Message('note_off', channel=0, note=52, velocity=100, time=0),
    Message('note_on', channel=0, note=40, velocity=100, time=8),
    Message('note_off', channel=0, note=40, velocity=100, time=184),
    Message('note_on', channel=0, note=40, velocity=100, time=8),
    Message('note_off', channel=0, note=40, velocity=100, time=184),
    Message('note_on', channel=0, note=53, velocity=100, time=8),
    Message('note_on', channel=0, note=60, velocity=100, time=0),
    Message('note_on', channel=0, note=65, velocity=100, time=0),
    Message('note_off', channel=0, note=53, velocity=100, time=760),
    Message('note_off', channel=0, note=60, velocity=100, time=0),
    Message('note_off', channel=0, note=65, velocity=100, time=0),
    Message('note_on', channel=0, note=64, velocity=100, time=8),
    Message('note_on', channel=0, note=59, velocity=100, time=0),
    Message('note_on', channel=0, note=52, velocity=100, time=0),
    Message('note_off', channel=0, note=64, velocity=100, time=376),
    Message('note_off', channel=0, note=59, velocity=100, time=0),
    Message('note_off', channel=0, note=52, velocity=100, time=0),
    Message('note_on', channel=0, note=40, velocity=100, time=8),
    Message('note_off', channel=0, note=40, velocity=100, time=184),
    Message('note_on', channel=0, note=40, velocity=100, time=8),
    Message('note_off', channel=0, note=40, velocity=100, time=184),
    Message('note_on', channel=0, note=62, velocity=100, time=8),
    Message('note_on', channel=0, note=57, velocity=100, time=0),
    Message('note_on', channel=0, note=50, velocity=100, time=0),
    Message('note_off', channel=0, note=62, velocity=100, time=760),
    Message('note_off', channel=0, note=57, velocity=100, time=0),
    Message('note_off', channel=0, note=50, velocity=100, time=0),
    Message('note_on', channel=0, note=64, velocity=100, time=8),
    Message('note_on', channel=0, note=59, velocity=100, time=0),
    Message('note_on', channel=0, note=52, velocity=100, time=0),
    Message('note_off', channel=0, note=64, velocity=100, time=376),
    Message('note_off', channel=0, note=59, velocity=100, time=0),
    Message('note_off', channel=0, note=52, velocity=100, time=0),
    Message('note_on', channel=0, note=40, velocity=100, time=8),
    Message('note_off', channel=0, note=40, velocity=100, time=184),
    Message('note_on', channel=0, note=40, velocity=100, time=8),
    Message('note_off', channel=0, note=40, velocity=100, time=184),
    Message('note_on', channel=0, note=59, velocity=100, time=8),
    Message('note_on', channel=0, note=54, velocity=100, time=0),
    Message('note_off', channel=0, note=59, velocity=100, time=760),
    Message('note_off', channel=0, note=54, velocity=100, time=0),
    Message('note_on', channel=0, note=50, velocity=100, time=8),
    Message('note_on', channel=0, note=57, velocity=100, time=0),
    Message('note_on', channel=0, note=62, velocity=100, time=0),
    Message('note_off', channel=0, note=50, velocity=100, time=1528),
    Message('note_off', channel=0, note=57, velocity=100, time=0),
    Message('note_off', channel=0, note=62, velocity=100, time=0),
    Message('note_on', channel=0, note=64, velocity=100, time=8),
    Message('note_on', channel=0, note=59, velocity=100, time=0),
    Message('note_on', channel=0, note=52, velocity=100, time=0),
    Message('note_off', channel=0, note=64, velocity=100, time=376),
    Message('note_off', channel=0, note=59, velocity=100, time=0),
    Message('note_off', channel=0, note=52, velocity=100, time=0),
    Message('note_on', channel=0, note=40, velocity=100, time=8),
    Message('note_off', channel=0, note=40, velocity=100, time=184),
    Message('note_on', channel=0, note=40, velocity=100, time=8),
    Message('note_off', channel=0, note=40, velocity=100, time=184),
    Message('note_on', channel=0, note=53, velocity=100, time=8),
    Message('note_on', channel=0, note=60, velocity=100, time=0),
    Message('note_on', channel=0, note=65, velocity=100, time=0),
    Message('note_off', channel=0, note=53, velocity=100, time=760),
    Message('note_off', channel=0, note=60, velocity=100, time=0),
    Message('note_off', channel=0, note=65, velocity=100, time=0),
    Message('note_on', channel=0, note=64, velocity=100, time=8),
    Message('note_on', channel=0, note=59, velocity=100, time=0),
    Message('note_on', channel=0, note=52, velocity=100, time=0),
    Message('note_off', channel=0, note=64, velocity=100, time=376),
    Message('note_off', channel=0, note=59, velocity=100, time=0),
    Message('note_off', channel=0, note=52, velocity=100, time=0),
    Message('note_on', channel=0, note=40, velocity=100, time=8),
    Message('note_off', channel=0, note=40, velocity=100, time=184),
    Message('note_on', channel=0, note=40, velocity=100, time=8),
    Message('note_off', channel=0, note=40, velocity=100, time=184),
    Message('note_on', channel=0, note=62, velocity=100, time=8),
    Message('note_on', channel=0, note=57, velocity=100, time=0),
    Message('note_on', channel=0, note=50, velocity=100, time=0),
    Message('note_off', channel=0, note=62, velocity=100, time=760),
    Message('note_off', channel=0, note=57, velocity=100, time=0),
    Message('note_off', channel=0, note=50, velocity=100, time=0),
    Message('note_on', channel=0, note=64, velocity=100, time=8),
    Message('note_on', channel=0, note=59, velocity=100, time=0),
    Message('note_on', channel=0, note=52, velocity=100, time=0),
    Message('note_off', channel=0, note=64, velocity=100, time=376),
    Message('note_off', channel=0, note=59, velocity=100, time=0),
    Message('note_off', channel=0, note=52, velocity=100, time=0),
    Message('note_on', channel=0, note=40, velocity=100, time=8),
    Message('note_off', channel=0, note=40, velocity=100, time=184),
    Message('note_on', channel=0, note=40, velocity=100, time=8),
    Message('note_off', channel=0, note=40, velocity=100, time=184),
    Message('note_on', channel=0, note=47, velocity=100, time=8),
    Message('note_on', channel=0, note=59, velocity=100, time=0),
    Message('note_on', channel=0, note=54, velocity=100, time=0),
    Message('note_off', channel=0, note=47, velocity=100, time=760),
    Message('note_off', channel=0, note=59, velocity=100, time=0),
    Message('note_off', channel=0, note=54, velocity=100, time=0),
    Message('note_on', channel=0, note=47, velocity=100, time=8),
    Message('note_off', channel=0, note=47, velocity=100, time=184),
    Message('note_on', channel=0, note=47, velocity=100, time=8),
    Message('note_off', channel=0, note=47, velocity=100, time=184),
    Message('note_on', channel=0, note=57, velocity=100, time=8),
    Message('note_on', channel=0, note=62, velocity=100, time=0),
    Message('note_on', channel=0, note=66, velocity=100, time=0),
    Message('note_off', channel=0, note=57, velocity=100, time=376),
    Message('note_off', channel=0, note=62, velocity=100, time=0),
    Message('note_off', channel=0, note=66, velocity=100, time=0),
    Message('note_on', channel=0, note=47, velocity=100, time=8),
    Message('note_off', channel=0, note=47, velocity=100, time=184),
    Message('note_on', channel=0, note=47, velocity=100, time=8),
    Message('note_off', channel=0, note=47, velocity=100, time=184),
    Message('note_on', channel=0, note=66, velocity=100, time=8),
    Message('note_on', channel=0, note=62, velocity=100, time=0),
    Message('note_on', channel=0, note=57, velocity=100, time=0),
    Message('note_off', channel=0, note=66, velocity=100, time=376),
    Message('note_off', channel=0, note=62, velocity=100, time=0),
    Message('note_off', channel=0, note=57, velocity=100, time=0),
    Message('note_on', channel=0, note=47, velocity=100, time=8),
    Message('note_off', channel=0, note=47, velocity=100, time=184),
    Message('note_on', channel=0, note=47, velocity=100, time=8),
    Message('note_off', channel=0, note=47, velocity=100, time=184),
    Message('note_on', channel=0, note=47, velocity=100, time=8),
    Message('note_off', channel=0, note=47, velocity=100, time=184),
    Message('note_on', channel=0, note=47, velocity=100, time=8),
    Message('note_off', channel=0, note=47, velocity=100, time=184),
    Message('note_on', channel=0, note=47, velocity=100, time=8),
    Message('note_off', channel=0, note=47, velocity=100, time=184),
    Message('note_on', channel=0, note=47, velocity=100, time=8),
    Message('note_off', channel=0, note=47, velocity=100, time=184),
    Message('note_on', channel=0, note=47, velocity=100, time=8),
    Message('note_off', channel=0, note=47, velocity=100, time=184),
    Message('note_on', channel=0, note=47, velocity=100, time=8),
    Message('note_off', channel=0, note=47, velocity=100, time=184),
    Message('note_on', channel=0, note=47, velocity=100, time=8),
    Message('note_off', channel=0, note=47, velocity=100, time=184),
    Message('note_on', channel=0, note=47, velocity=100, time=8),
    Message('note_off', channel=0, note=47, velocity=100, time=184),
    Message('note_on', channel=0, note=47, velocity=100, time=8),
    Message('note_off', channel=0, note=47, velocity=100, time=184),
    Message('note_on', channel=0, note=47, velocity=100, time=8),
    Message('note_off', channel=0, note=47, velocity=100, time=184),
    Message('note_on', channel=0, note=47, velocity=100, time=8),
    Message('note_off', channel=0, note=47, velocity=100, time=184),
    Message('note_on', channel=0, note=47, velocity=100, time=8),
    Message('note_off', channel=0, note=47, velocity=100, time=184),
    Message('note_on', channel=0, note=47, velocity=100, time=8),
    Message('note_off', channel=0, note=47, velocity=100, time=184),
    Message('note_on', channel=0, note=47, velocity=100, time=8),
    Message('note_off', channel=0, note=47, velocity=100, time=184),
    Message('note_on', channel=0, note=47, velocity=100, time=8),
    Message('note_off', channel=0, note=47, velocity=100, time=184),
    Message('note_on', channel=0, note=47, velocity=100, time=8),
    Message('note_off', channel=0, note=47, velocity=100, time=184),
    Message('note_on', channel=0, note=47, velocity=100, time=8),
    Message('note_off', channel=0, note=47, velocity=100, time=184),
    Message('note_on', channel=0, note=47, velocity=100, time=8),
    Message('note_off', channel=0, note=47, velocity=100, time=184),
    Message('note_on', channel=0, note=47, velocity=100, time=8),
    Message('note_off', channel=0, note=47, velocity=100, time=184),
    Message('note_on', channel=0, note=47, velocity=100, time=8),
    Message('note_off', channel=0, note=47, velocity=100, time=184),
    Message('note_on', channel=0, note=47, velocity=100, time=8),
    Message('note_off', channel=0, note=47, velocity=100, time=184),
    Message('note_on', channel=0, note=47, velocity=100, time=8),
    Message('note_off', channel=0, note=47, velocity=100, time=184),
    Message('note_on', channel=0, note=47, velocity=100, time=8),
    Message('note_off', channel=0, note=47, velocity=100, time=184),
    Message('note_on', channel=0, note=47, velocity=100, time=8),
    Message('note_off', channel=0, note=47, velocity=100, time=184),
    Message('note_on', channel=0, note=47, velocity=100, time=8),
    Message('note_off', channel=0, note=47, velocity=100, time=184),
    Message('note_on', channel=0, note=47, velocity=100, time=8),
    Message('note_off', channel=0, note=47, velocity=100, time=184),
    Message('note_on', channel=0, note=47, velocity=100, time=8),
    Message('note_off', channel=0, note=47, velocity=100, time=184),
    Message('note_on', channel=0, note=47, velocity=100, time=8),
    Message('note_off', channel=0, note=47, velocity=100, time=184),
    Message('note_on', channel=0, note=47, velocity=100, time=8),
    Message('note_off', channel=0, note=47, velocity=100, time=184),
    Message('note_on', channel=0, note=47, velocity=100, time=8),
    Message('note_off', channel=0, note=47, velocity=100, time=184),
    Message('note_on', channel=0, note=45, velocity=100, time=8),
    Message('note_off', channel=0, note=45, velocity=100, time=184),
    Message('note_on', channel=0, note=45, velocity=100, time=8),
    Message('note_off', channel=0, note=45, velocity=100, time=184),
    Message('note_on', channel=0, note=45, velocity=100, time=8),
    Message('note_off', channel=0, note=45, velocity=100, time=184),
    Message('note_on', channel=0, note=45, velocity=100, time=8),
    Message('note_off', channel=0, note=45, velocity=100, time=184),
    Message('note_on', channel=0, note=45, velocity=100, time=8),
    Message('note_off', channel=0, note=45, velocity=100, time=184),
    Message('note_on', channel=0, note=45, velocity=100, time=8),
    Message('note_off', channel=0, note=45, velocity=100, time=184),
    Message('note_on', channel=0, note=45, velocity=100, time=8),
    Message('note_off', channel=0, note=45, velocity=100, time=184),
    Message('note_on', channel=0, note=45, velocity=100, time=8),
    Message('note_off', channel=0, note=45, velocity=100, time=184),
    Message('note_on', channel=0, note=45, velocity=100, time=8),
    Message('note_off', channel=0, note=45, velocity=100, time=184),
    Message('note_on', channel=0, note=45, velocity=100, time=8),
    Message('note_off', channel=0, note=45, velocity=100, time=184),
    Message('note_on', channel=0, note=45, velocity=100, time=8),
    Message('note_off', channel=0, note=45, velocity=100, time=184),
    Message('note_on', channel=0, note=45, velocity=100, time=8),
    Message('note_off', channel=0, note=45, velocity=100, time=184),
    Message('note_on', channel=0, note=45, velocity=100, time=8),
    Message('note_off', channel=0, note=45, velocity=100, time=184),
    Message('note_on', channel=0, note=45, velocity=100, time=8),
    Message('note_off', channel=0, note=45, velocity=100, time=184),
    Message('note_on', channel=0, note=45, velocity=100, time=8),
    Message('note_off', channel=0, note=45, velocity=100, time=184),
    Message('note_on', channel=0, note=45, velocity=100, time=8),
    Message('note_off', channel=0, note=45, velocity=100, time=184),
    Message('note_on', channel=0, note=50, velocity=100, time=8),
    Message('note_off', channel=0, note=50, velocity=100, time=184),
    Message('note_on', channel=0, note=49, velocity=100, time=8),
    Message('note_off', channel=0, note=49, velocity=100, time=184),
    Message('note_on', channel=0, note=47, velocity=100, time=8),
    Message('note_off', channel=0, note=47, velocity=100, time=376),
    Message('note_on', channel=0, note=47, velocity=100, time=8),
    Message('note_off', channel=0, note=47, velocity=100, time=184),
    Message('note_on', channel=0, note=47, velocity=100, time=8),
    Message('note_off', channel=0, note=47, velocity=100, time=184),
    Message('note_on', channel=0, note=62, velocity=100, time=8),
    Message('note_on', channel=0, note=57, velocity=100, time=0),
    Message('note_on', channel=0, note=50, velocity=100, time=0),
    Message('note_off', channel=0, note=62, velocity=100, time=376),
    Message('note_off', channel=0, note=57, velocity=100, time=0),
    Message('note_off', channel=0, note=50, velocity=100, time=0),
    Message('note_on', channel=0, note=47, velocity=100, time=8),
    Message('note_off', channel=0, note=47, velocity=100, time=184),
    Message('note_on', channel=0, note=47, velocity=100, time=8),
    Message('note_off', channel=0, note=47, velocity=100, time=184),
    Message('note_on', channel=0, note=47, velocity=100, time=8),
    Message('note_off', channel=0, note=47, velocity=100, time=184),
    Message('note_on', channel=0, note=47, velocity=100, time=8),
    Message('note_off', channel=0, note=47, velocity=100, time=184),
    Message('note_on', channel=0, note=64, velocity=100, time=8),
    Message('note_on', channel=0, note=59, velocity=100, time=0),
    Message('note_on', channel=0, note=52, velocity=100, time=0),
    Message('note_off', channel=0, note=64, velocity=100, time=376),
    Message('note_off', channel=0, note=59, velocity=100, time=0),
    Message('note_off', channel=0, note=52, velocity=100, time=0),
    Message('note_on', channel=0, note=52, velocity=100, time=8),
    Message('note_on', channel=0, note=59, velocity=100, time=0),
    Message('note_on', channel=0, note=64, velocity=100, time=0),
    Message('note_off', channel=0, note=52, velocity=100, time=376),
    Message('note_off', channel=0, note=59, velocity=100, time=0),
    Message('note_off', channel=0, note=64, velocity=100, time=0),
    Message('note_on', channel=0, note=47, velocity=100, time=8),
    Message('note_off', channel=0, note=47, velocity=100, time=184),
    Message('note_on', channel=0, note=47, velocity=100, time=8),
    Message('note_off', channel=0, note=47, velocity=100, time=184),
    Message('note_on', channel=0, note=47, velocity=100, time=8),
    Message('note_off', channel=0, note=47, velocity=100, time=184),
    Message('note_on', channel=0, note=47, velocity=100, time=8),
    Message('note_off', channel=0, note=47, velocity=100, time=184),
    Message('note_on', channel=0, note=47, velocity=100, time=8),
    Message('note_off', channel=0, note=47, velocity=100, time=184),
    Message('note_on', channel=0, note=47, velocity=100, time=8),
    Message('note_off', channel=0, note=47, velocity=100, time=184),
    Message('note_on', channel=0, note=47, velocity=100, time=8),
    Message('note_off', channel=0, note=47, velocity=100, time=184),
    Message('note_on', channel=0, note=47, velocity=100, time=8),
    Message('note_off', channel=0, note=47, velocity=100, time=184),
    Message('note_on', channel=0, note=47, velocity=100, time=8),
    Message('note_off', channel=0, note=47, velocity=100, time=184),
    Message('note_on', channel=0, note=47, velocity=100, time=8),
    Message('note_off', channel=0, note=47, velocity=100, time=184),
    Message('note_on', channel=0, note=47, velocity=100, time=8),
    Message('note_off', channel=0, note=47, velocity=100, time=184),
    Message('note_on', channel=0, note=47, velocity=100, time=8),
    Message('note_off', channel=0, note=47, velocity=100, time=184),
    Message('note_on', channel=0, note=47, velocity=100, time=8),
    Message('note_off', channel=0, note=47, velocity=100, time=184),
    Message('note_on', channel=0, note=47, velocity=100, time=8),
    Message('note_off', channel=0, note=47, velocity=100, time=184),
    Message('note_on', channel=0, note=47, velocity=100, time=8),
    Message('note_off', channel=0, note=47, velocity=100, time=184),
    Message('note_on', channel=0, note=47, velocity=100, time=8),
    Message('note_off', channel=0, note=47, velocity=100, time=184),
    Message('note_on', channel=0, note=47, velocity=100, time=8),
    Message('note_off', channel=0, note=47, velocity=100, time=184),
    Message('note_on', channel=0, note=47, velocity=100, time=8),
    Message('note_off', channel=0, note=47, velocity=100, time=184),
    Message('note_on', channel=0, note=47, velocity=100, time=8),
    Message('note_off', channel=0, note=47, velocity=100, time=184),
    Message('note_on', channel=0, note=47, velocity=100, time=8),
    Message('note_off', channel=0, note=47, velocity=100, time=184),
    Message('note_on', channel=0, note=47, velocity=100, time=8),
    Message('note_off', channel=0, note=47, velocity=100, time=184),
    Message('note_on', channel=0, note=47, velocity=100, time=8),
    Message('note_off', channel=0, note=47, velocity=100, time=184),
    Message('note_on', channel=0, note=47, velocity=100, time=8),
    Message('note_off', channel=0, note=47, velocity=100, time=184),
    Message('note_on', channel=0, note=47, velocity=100, time=8),
    Message('note_off', channel=0, note=47, velocity=100, time=184),
    Message('note_on', channel=0, note=47, velocity=100, time=8),
    Message('note_off', channel=0, note=47, velocity=100, time=184),
    Message('note_on', channel=0, note=47, velocity=100, time=8),
    Message('note_off', channel=0, note=47, velocity=100, time=184),
    Message('note_on', channel=0, note=47, velocity=100, time=8),
    Message('note_off', channel=0, note=47, velocity=100, time=184),
    Message('note_on', channel=0, note=47, velocity=100, time=8),
    Message('note_off', channel=0, note=47, velocity=100, time=184),
    Message('note_on', channel=0, note=62, velocity=100, time=8),
    Message('note_on', channel=0, note=57, velocity=100, time=0),
    Message('note_on', channel=0, note=50, velocity=100, time=0),
    Message('note_off', channel=0, note=62, velocity=100, time=184),
    Message('note_off', channel=0, note=57, velocity=100, time=0),
    Message('note_off', channel=0, note=50, velocity=100, time=0),
    Message('note_on', channel=0, note=62, velocity=100, time=8),
    Message('note_on', channel=0, note=57, velocity=100, time=0),
    Message('note_on', channel=0, note=50, velocity=100, time=0),
    Message('note_off', channel=0, note=62, velocity=100, time=568),
    Message('note_off', channel=0, note=57, velocity=100, time=0),
    Message('note_off', channel=0, note=50, velocity=100, time=0),
    Message('note_on', channel=0, note=45, velocity=100, time=8),
    Message('note_off', channel=0, note=45, velocity=100, time=184),
    Message('note_on', channel=0, note=45, velocity=100, time=8),
    Message('note_off', channel=0, note=45, velocity=100, time=184),
    Message('note_on', channel=0, note=45, velocity=100, time=8),
    Message('note_off', channel=0, note=45, velocity=100, time=184),
    Message('note_on', channel=0, note=45, velocity=100, time=8),
    Message('note_off', channel=0, note=45, velocity=100, time=184),
    Message('note_on', channel=0, note=45, velocity=100, time=8),
    Message('note_off', channel=0, note=45, velocity=100, time=184),
    Message('note_on', channel=0, note=45, velocity=100, time=8),
    Message('note_off', channel=0, note=45, velocity=100, time=184),
    Message('note_on', channel=0, note=45, velocity=100, time=8),
    Message('note_off', channel=0, note=45, velocity=100, time=184),
    Message('note_on', channel=0, note=45, velocity=100, time=8),
    Message('note_off', channel=0, note=45, velocity=100, time=184),
    Message('note_on', channel=0, note=45, velocity=100, time=8),
    Message('note_off', channel=0, note=45, velocity=100, time=184),
    Message('note_on', channel=0, note=45, velocity=100, time=8),
    Message('note_off', channel=0, note=45, velocity=100, time=184),
    Message('note_on', channel=0, note=45, velocity=100, time=8),
    Message('note_off', channel=0, note=45, velocity=100, time=184),
    Message('note_on', channel=0, note=45, velocity=100, time=8),
    Message('note_off', channel=0, note=45, velocity=100, time=184),
    Message('note_on', channel=0, note=45, velocity=100, time=8),
    Message('note_off', channel=0, note=45, velocity=100, time=184),
    Message('note_on', channel=0, note=45, velocity=100, time=8),
    Message('note_off', channel=0, note=45, velocity=100, time=184),
    Message('note_on', channel=0, note=45, velocity=100, time=8),
    Message('note_off', channel=0, note=45, velocity=100, time=184),
    Message('note_on', channel=0, note=45, velocity=100, time=8),
    Message('note_off', channel=0, note=45, velocity=100, time=184),
    Message('note_on', channel=0, note=50, velocity=100, time=8),
    Message('note_off', channel=0, note=50, velocity=100, time=184),
    Message('note_on', channel=0, note=49, velocity=100, time=8),
    Message('note_off', channel=0, note=49, velocity=100, time=184),
    Message('note_on', channel=0, note=47, velocity=100, time=8),
    Message('note_off', channel=0, note=47, velocity=100, time=376),
    Message('note_on', channel=0, note=47, velocity=100, time=8),
    Message('note_off', channel=0, note=47, velocity=100, time=184),
    Message('note_on', channel=0, note=47, velocity=100, time=8),
    Message('note_off', channel=0, note=47, velocity=100, time=184),
    Message('note_on', channel=0, note=50, velocity=100, time=8),
    Message('note_on', channel=0, note=62, velocity=100, time=0),
    Message('note_on', channel=0, note=57, velocity=100, time=0),
    Message('note_off', channel=0, note=50, velocity=100, time=376),
    Message('note_off', channel=0, note=62, velocity=100, time=0),
    Message('note_off', channel=0, note=57, velocity=100, time=0),
    Message('note_on', channel=0, note=47, velocity=100, time=8),
    Message('note_off', channel=0, note=47, velocity=100, time=184),
    Message('note_on', channel=0, note=47, velocity=100, time=8),
    Message('note_off', channel=0, note=47, velocity=100, time=184),
    Message('note_on', channel=0, note=47, velocity=100, time=8),
    Message('note_off', channel=0, note=47, velocity=100, time=184),
    Message('note_on', channel=0, note=47, velocity=100, time=8),
    Message('note_off', channel=0, note=47, velocity=100, time=184),
    Message('note_on', channel=0, note=64, velocity=100, time=8),
    Message('note_on', channel=0, note=59, velocity=100, time=0),
    Message('note_on', channel=0, note=52, velocity=100, time=0),
    Message('note_off', channel=0, note=64, velocity=100, time=376),
    Message('note_off', channel=0, note=59, velocity=100, time=0),
    Message('note_off', channel=0, note=52, velocity=100, time=0),
    Message('note_on', channel=0, note=52, velocity=100, time=8),
    Message('note_on', channel=0, note=59, velocity=100, time=0),
    Message('note_on', channel=0, note=64, velocity=100, time=0),
    Message('note_off', channel=0, note=52, velocity=100, time=376),
    Message('note_off', channel=0, note=59, velocity=100, time=0),
    Message('note_off', channel=0, note=64, velocity=100, time=0),
    Message('note_on', channel=0, note=42, velocity=100, time=8),
    Message('note_on', channel=0, note=49, velocity=100, time=0),
    Message('note_on', channel=0, note=54, velocity=100, time=0),
    Message('note_off', channel=0, note=42, velocity=100, time=376),
    Message('note_off', channel=0, note=49, velocity=100, time=0),
    Message('note_off', channel=0, note=54, velocity=100, time=0),
    Message('note_on', channel=0, note=40, velocity=100, time=8),
    Message('note_off', channel=0, note=40, velocity=100, time=184),
    Message('note_on', channel=0, note=40, velocity=100, time=8),
    Message('note_off', channel=0, note=40, velocity=100, time=184),
    Message('note_on', channel=0, note=42, velocity=100, time=8),
    Message('note_on', channel=0, note=49, velocity=100, time=0),
    Message('note_on', channel=0, note=54, velocity=100, time=0),
    Message('note_off', channel=0, note=42, velocity=100, time=376),
    Message('note_off', channel=0, note=49, velocity=100, time=0),
    Message('note_off', channel=0, note=54, velocity=100, time=0),
    Message('note_on', channel=0, note=40, velocity=100, time=8),
    Message('note_off', channel=0, note=40, velocity=100, time=184),
    Message('note_on', channel=0, note=40, velocity=100, time=8),
    Message('note_off', channel=0, note=40, velocity=100, time=184),
    Message('note_on', channel=0, note=49, velocity=100, time=8),
    Message('note_on', channel=0, note=54, velocity=100, time=0),
    Message('note_on', channel=0, note=42, velocity=100, time=0),
    Message('note_off', channel=0, note=49, velocity=100, time=376),
    Message('note_off', channel=0, note=54, velocity=100, time=0),
    Message('note_off', channel=0, note=42, velocity=100, time=0),
    Message('note_on', channel=0, note=40, velocity=100, time=8),
    Message('note_off', channel=0, note=40, velocity=100, time=184),
    Message('note_on', channel=0, note=40, velocity=100, time=8),
    Message('note_off', channel=0, note=40, velocity=100, time=184),
    Message('note_on', channel=0, note=40, velocity=100, time=8),
    Message('note_off', channel=0, note=40, velocity=100, time=184),
    Message('note_on', channel=0, note=42, velocity=100, time=8),
    Message('note_off', channel=0, note=42, velocity=100, time=184),
    Message('note_on', channel=0, note=55, velocity=100, time=8),
    Message('note_on', channel=0, note=50, velocity=100, time=0),
    Message('note_on', channel=0, note=43, velocity=100, time=0),
    Message('note_off', channel=0, note=55, velocity=100, time=376),
    Message('note_off', channel=0, note=50, velocity=100, time=0),
    Message('note_off', channel=0, note=43, velocity=100, time=0),
    Message('note_on', channel=0, note=42, velocity=100, time=8),
    Message('note_on', channel=0, note=49, velocity=100, time=0),
    Message('note_on', channel=0, note=54, velocity=100, time=0),
    Message('note_off', channel=0, note=42, velocity=100, time=376),
    Message('note_off', channel=0, note=49, velocity=100, time=0),
    Message('note_off', channel=0, note=54, velocity=100, time=0),
    Message('note_on', channel=0, note=40, velocity=100, time=8),
    Message('note_off', channel=0, note=40, velocity=100, time=184),
    Message('note_on', channel=0, note=40, velocity=100, time=8),
    Message('note_off', channel=0, note=40, velocity=100, time=184),
    Message('note_on', channel=0, note=42, velocity=100, time=8),
    Message('note_on', channel=0, note=49, velocity=100, time=0),
    Message('note_on', channel=0, note=54, velocity=100, time=0),
    Message('note_off', channel=0, note=42, velocity=100, time=376),
    Message('note_off', channel=0, note=49, velocity=100, time=0),
    Message('note_off', channel=0, note=54, velocity=100, time=0),
    Message('note_on', channel=0, note=40, velocity=100, time=8),
    Message('note_off', channel=0, note=40, velocity=100, time=184),
    Message('note_on', channel=0, note=40, velocity=100, time=8),
    Message('note_off', channel=0, note=40, velocity=100, time=184),
    Message('note_on', channel=0, note=43, velocity=100, time=8),
    Message('note_on', channel=0, note=50, velocity=100, time=0),
    Message('note_off', channel=0, note=43, velocity=100, time=184),
    Message('note_off', channel=0, note=50, velocity=100, time=0),
    Message('note_on', channel=0, note=49, velocity=100, time=8),
    Message('note_on', channel=0, note=42, velocity=100, time=0),
    Message('note_off', channel=0, note=49, velocity=100, time=184),
    Message('note_off', channel=0, note=42, velocity=100, time=0),
    Message('note_on', channel=0, note=40, velocity=100, time=8),
    Message('note_off', channel=0, note=40, velocity=100, time=376),
    Message('note_on', channel=0, note=48, velocity=100, time=8),
    Message('note_on', channel=0, note=55, velocity=100, time=0),
    Message('note_on', channel=0, note=60, velocity=100, time=0),
    Message('note_off', channel=0, note=48, velocity=100, time=760),
    Message('note_off', channel=0, note=55, velocity=100, time=0),
    Message('note_off', channel=0, note=60, velocity=100, time=0),
    Message('note_on', channel=0, note=54, velocity=100, time=8),
    Message('note_on', channel=0, note=42, velocity=100, time=0),
    Message('note_on', channel=0, note=49, velocity=100, time=0),
    Message('note_off', channel=0, note=54, velocity=100, time=376),
    Message('note_off', channel=0, note=42, velocity=100, time=0),
    Message('note_off', channel=0, note=49, velocity=100, time=0),
    Message('note_on', channel=0, note=40, velocity=100, time=8),
    Message('note_off', channel=0, note=40, velocity=100, time=184),
    Message('note_on', channel=0, note=40, velocity=100, time=8),
    Message('note_off', channel=0, note=40, velocity=100, time=184),
    Message('note_on', channel=0, note=42, velocity=100, time=8),
    Message('note_on', channel=0, note=49, velocity=100, time=0),
    Message('note_on', channel=0, note=54, velocity=100, time=0),
    Message('note_off', channel=0, note=42, velocity=100, time=376),
    Message('note_off', channel=0, note=49, velocity=100, time=0),
    Message('note_off', channel=0, note=54, velocity=100, time=0),
    Message('note_on', channel=0, note=40, velocity=100, time=8),
    Message('note_off', channel=0, note=40, velocity=100, time=184),
    Message('note_on', channel=0, note=40, velocity=100, time=8),
    Message('note_off', channel=0, note=40, velocity=100, time=184),
    Message('note_on', channel=0, note=54, velocity=100, time=8),
    Message('note_on', channel=0, note=42, velocity=100, time=0),
    Message('note_on', channel=0, note=49, velocity=100, time=0),
    Message('note_off', channel=0, note=54, velocity=100, time=376),
    Message('note_off', channel=0, note=42, velocity=100, time=0),
    Message('note_off', channel=0, note=49, velocity=100, time=0),
    Message('note_on', channel=0, note=40, velocity=100, time=8),
    Message('note_off', channel=0, note=40, velocity=100, time=184),
    Message('note_on', channel=0, note=40, velocity=100, time=8),
    Message('note_off', channel=0, note=40, velocity=100, time=184),
    Message('note_on', channel=0, note=40, velocity=100, time=8),
    Message('note_off', channel=0, note=40, velocity=100, time=184),
    Message('note_on', channel=0, note=42, velocity=100, time=8),
    Message('note_off', channel=0, note=42, velocity=100, time=184),
    Message('note_on', channel=0, note=55, velocity=100, time=8),
    Message('note_on', channel=0, note=50, velocity=100, time=0),
    Message('note_on', channel=0, note=43, velocity=100, time=0),
    Message('note_off', channel=0, note=55, velocity=100, time=376),
    Message('note_off', channel=0, note=50, velocity=100, time=0),
    Message('note_off', channel=0, note=43, velocity=100, time=0),
    Message('note_on', channel=0, note=54, velocity=100, time=8),
    Message('note_on', channel=0, note=42, velocity=100, time=0),
    Message('note_on', channel=0, note=49, velocity=100, time=0),
    Message('note_off', channel=0, note=54, velocity=100, time=376),
    Message('note_off', channel=0, note=42, velocity=100, time=0),
    Message('note_off', channel=0, note=49, velocity=100, time=0),
    Message('note_on', channel=0, note=40, velocity=100, time=8),
    Message('note_off', channel=0, note=40, velocity=100, time=184),
    Message('note_on', channel=0, note=40, velocity=100, time=8),
    Message('note_off', channel=0, note=40, velocity=100, time=184),
    Message('note_on', channel=0, note=42, velocity=100, time=8),
    Message('note_on', channel=0, note=49, velocity=100, time=0),
    Message('note_on', channel=0, note=54, velocity=100, time=0),
    Message('note_off', channel=0, note=42, velocity=100, time=376),
    Message('note_off', channel=0, note=49, velocity=100, time=0),
    Message('note_off', channel=0, note=54, velocity=100, time=0),
    Message('note_on', channel=0, note=40, velocity=100, time=8),
    Message('note_off', channel=0, note=40, velocity=100, time=184),
    Message('note_on', channel=0, note=40, velocity=100, time=8),
    Message('note_off', channel=0, note=40, velocity=100, time=184),
    Message('note_on', channel=0, note=42, velocity=100, time=8),
    Message('note_off', channel=0, note=42, velocity=100, time=184),
    Message('note_on', channel=0, note=42, velocity=100, time=8),
    Message('note_off', channel=0, note=42, velocity=100, time=184),
    Message('note_on', channel=0, note=42, velocity=100, time=8),
    Message('note_off', channel=0, note=42, velocity=100, time=184),
    Message('note_on', channel=0, note=42, velocity=100, time=8),
    Message('note_off', channel=0, note=42, velocity=100, time=184),
    Message('note_on', channel=0, note=49, velocity=100, time=8),
    Message('note_off', channel=0, note=49, velocity=100, time=184),
    Message('note_on', channel=0, note=47, velocity=100, time=8),
    Message('note_off', channel=0, note=47, velocity=100, time=184),
    Message('note_on', channel=0, note=45, velocity=100, time=8),
    Message('note_off', channel=0, note=45, velocity=100, time=376),
    Message('note_on', channel=0, note=47, velocity=100, time=8),
    Message('note_off', channel=0, note=47, velocity=100, time=184),
    Message('note_on', channel=0, note=47, velocity=100, time=8),
    Message('note_off', channel=0, note=47, velocity=100, time=184),
    Message('note_on', channel=0, note=54, velocity=100, time=8),
    Message('note_off', channel=0, note=54, velocity=100, time=184),
    Message('note_on', channel=0, note=47, velocity=100, time=8),
    Message('note_off', channel=0, note=47, velocity=100, time=184),
    Message('note_on', channel=0, note=47, velocity=100, time=8),
    Message('note_off', channel=0, note=47, velocity=100, time=184),
    Message('note_on', channel=0, note=55, velocity=100, time=8),
    Message('note_off', channel=0, note=55, velocity=100, time=184),
    Message('note_on', channel=0, note=47, velocity=100, time=8),
    Message('note_off', channel=0, note=47, velocity=100, time=184),
    Message('note_on', channel=0, note=47, velocity=100, time=8),
    Message('note_off', channel=0, note=47, velocity=100, time=184),
    Message('note_on', channel=0, note=54, velocity=100, time=8),
    Message('note_off', channel=0, note=54, velocity=100, time=184),
    Message('note_on', channel=0, note=47, velocity=100, time=8),
    Message('note_off', channel=0, note=47, velocity=100, time=184),
    Message('note_on', channel=0, note=47, velocity=100, time=8),
    Message('note_off', channel=0, note=47, velocity=100, time=184),
    Message('note_on', channel=0, note=52, velocity=100, time=8),
    Message('note_off', channel=0, note=52, velocity=100, time=184),
    Message('note_on', channel=0, note=47, velocity=100, time=8),
    Message('note_off', channel=0, note=47, velocity=100, time=184),
    Message('note_on', channel=0, note=47, velocity=100, time=8),
    Message('note_off', channel=0, note=47, velocity=100, time=184),
    Message('note_on', channel=0, note=54, velocity=100, time=8),
    Message('note_off', channel=0, note=54, velocity=100, time=184),
    Message('note_on', channel=0, note=47, velocity=100, time=8),
    Message('note_off', channel=0, note=47, velocity=100, time=184),
    Message('note_on', channel=0, note=45, velocity=100, time=8),
    Message('note_off', channel=0, note=45, velocity=100, time=184),
    Message('note_on', channel=0, note=45, velocity=100, time=8),
    Message('note_off', channel=0, note=45, velocity=100, time=184),
    Message('note_on', channel=0, note=52, velocity=100, time=8),
    Message('note_off', channel=0, note=52, velocity=100, time=184),
    Message('note_on', channel=0, note=45, velocity=100, time=8),
    Message('note_off', channel=0, note=45, velocity=100, time=184),
    Message('note_on', channel=0, note=45, velocity=100, time=8),
    Message('note_off', channel=0, note=45, velocity=100, time=184),
    Message('note_on', channel=0, note=49, velocity=100, time=8),
    Message('note_off', channel=0, note=49, velocity=100, time=184),
    Message('note_on', channel=0, note=42, velocity=100, time=8),
    Message('note_off', channel=0, note=42, velocity=100, time=184),
    Message('note_on', channel=0, note=42, velocity=100, time=8),
    Message('note_off', channel=0, note=42, velocity=100, time=184),
    Message('note_on', channel=0, note=42, velocity=100, time=8),
    Message('note_off', channel=0, note=42, velocity=100, time=184),
    Message('note_on', channel=0, note=42, velocity=100, time=8),
    Message('note_off', channel=0, note=42, velocity=100, time=184),
    Message('note_on', channel=0, note=49, velocity=100, time=8),
    Message('note_off', channel=0, note=49, velocity=100, time=184),
    Message('note_on', channel=0, note=42, velocity=100, time=8),
    Message('note_off', channel=0, note=42, velocity=100, time=184),
    Message('note_on', channel=0, note=50, velocity=100, time=8),
    Message('note_off', channel=0, note=50, velocity=100, time=184),
    Message('note_on', channel=0, note=42, velocity=100, time=8),
    Message('note_off', channel=0, note=42, velocity=100, time=184),
    Message('note_on', channel=0, note=49, velocity=100, time=8),
    Message('note_off', channel=0, note=49, velocity=100, time=184),
    Message('note_on', channel=0, note=42, velocity=100, time=8),
    Message('note_off', channel=0, note=42, velocity=100, time=184),
    Message('note_on', channel=0, note=47, velocity=100, time=8),
    Message('note_off', channel=0, note=47, velocity=100, time=184),
    Message('note_on', channel=0, note=47, velocity=100, time=8),
    Message('note_off', channel=0, note=47, velocity=100, time=184),
    Message('note_on', channel=0, note=54, velocity=100, time=8),
    Message('note_off', channel=0, note=54, velocity=100, time=184),
    Message('note_on', channel=0, note=47, velocity=100, time=8),
    Message('note_off', channel=0, note=47, velocity=100, time=184),
    Message('note_on', channel=0, note=47, velocity=100, time=8),
    Message('note_off', channel=0, note=47, velocity=100, time=184),
    Message('note_on', channel=0, note=55, velocity=100, time=8),
    Message('note_off', channel=0, note=55, velocity=100, time=184),
    Message('note_on', channel=0, note=47, velocity=100, time=8),
    Message('note_off', channel=0, note=47, velocity=100, time=184),
    Message('note_on', channel=0, note=47, velocity=100, time=8),
    Message('note_off', channel=0, note=47, velocity=100, time=184),
    Message('note_on', channel=0, note=54, velocity=100, time=8),
    Message('note_off', channel=0, note=54, velocity=100, time=184),
    Message('note_on', channel=0, note=47, velocity=100, time=8),
    Message('note_off', channel=0, note=47, velocity=100, time=184),
    Message('note_on', channel=0, note=47, velocity=100, time=8),
    Message('note_off', channel=0, note=47, velocity=100, time=184),
    Message('note_on', channel=0, note=52, velocity=100, time=8),
    Message('note_off', channel=0, note=52, velocity=100, time=184),
    Message('note_on', channel=0, note=47, velocity=100, time=8),
    Message('note_off', channel=0, note=47, velocity=100, time=184),
    Message('note_on', channel=0, note=47, velocity=100, time=8),
    Message('note_off', channel=0, note=47, velocity=100, time=184),
    Message('note_on', channel=0, note=54, velocity=100, time=8),
    Message('note_off', channel=0, note=54, velocity=100, time=184),
    Message('note_on', channel=0, note=47, velocity=100, time=8),
    Message('note_off', channel=0, note=47, velocity=100, time=184),
    Message('note_on', channel=0, note=45, velocity=100, time=8),
    Message('note_off', channel=0, note=45, velocity=100, time=184),
    Message('note_on', channel=0, note=45, velocity=100, time=8),
    Message('note_off', channel=0, note=45, velocity=100, time=184),
    Message('note_on', channel=0, note=52, velocity=100, time=8),
    Message('note_off', channel=0, note=52, velocity=100, time=184),
    Message('note_on', channel=0, note=52, velocity=100, time=8),
    Message('note_off', channel=0, note=52, velocity=100, time=184),
    Message('note_on', channel=0, note=52, velocity=100, time=8),
    Message('note_off', channel=0, note=52, velocity=100, time=184),
    Message('note_on', channel=0, note=49, velocity=100, time=8),
    Message('note_off', channel=0, note=49, velocity=100, time=568),
    Message('note_on', channel=0, note=42, velocity=100, time=8),
    Message('note_off', channel=0, note=42, velocity=100, time=184),
    Message('note_on', channel=0, note=42, velocity=100, time=8),
    Message('note_off', channel=0, note=42, velocity=100, time=184),
    Message('note_on', channel=0, note=49, velocity=100, time=8),
    Message('note_off', channel=0, note=49, velocity=100, time=184),
    Message('note_on', channel=0, note=42, velocity=100, time=8),
    Message('note_off', channel=0, note=42, velocity=100, time=184),
    Message('note_on', channel=0, note=50, velocity=100, time=8),
    Message('note_off', channel=0, note=50, velocity=100, time=184),
    Message('note_on', channel=0, note=49, velocity=100, time=8),
    Message('note_off', channel=0, note=49, velocity=100, time=568),
    Message('note_on', channel=0, note=64, velocity=100, time=8),
    Message('note_on', channel=0, note=59, velocity=100, time=0),
    Message('note_on', channel=0, note=52, velocity=100, time=0),
    Message('note_off', channel=0, note=64, velocity=100, time=376),
    Message('note_off', channel=0, note=59, velocity=100, time=0),
    Message('note_off', channel=0, note=52, velocity=100, time=0),
    Message('note_on', channel=0, note=40, velocity=100, time=8),
    Message('note_off', channel=0, note=40, velocity=100, time=184),
    Message('note_on', channel=0, note=40, velocity=100, time=8),
    Message('note_off', channel=0, note=40, velocity=100, time=184),
    Message('note_on', channel=0, note=53, velocity=100, time=8),
    Message('note_on', channel=0, note=60, velocity=100, time=0),
    Message('note_on', channel=0, note=65, velocity=100, time=0),
    Message('note_off', channel=0, note=53, velocity=100, time=760),
    Message('note_off', channel=0, note=60, velocity=100, time=0),
    Message('note_off', channel=0, note=65, velocity=100, time=0),
    Message('note_on', channel=0, note=64, velocity=100, time=8),
    Message('note_on', channel=0, note=59, velocity=100, time=0),
    Message('note_on', channel=0, note=52, velocity=100, time=0),
    Message('note_off', channel=0, note=64, velocity=100, time=376),
    Message('note_off', channel=0, note=59, velocity=100, time=0),
    Message('note_off', channel=0, note=52, velocity=100, time=0),
    Message('note_on', channel=0, note=40, velocity=100, time=8),
    Message('note_off', channel=0, note=40, velocity=100, time=184),
    Message('note_on', channel=0, note=40, velocity=100, time=8),
    Message('note_off', channel=0, note=40, velocity=100, time=184),
    Message('note_on', channel=0, note=62, velocity=100, time=8),
    Message('note_on', channel=0, note=57, velocity=100, time=0),
    Message('note_on', channel=0, note=50, velocity=100, time=0),
    Message('note_off', channel=0, note=62, velocity=100, time=760),
    Message('note_off', channel=0, note=57, velocity=100, time=0),
    Message('note_off', channel=0, note=50, velocity=100, time=0),
    Message('note_on', channel=0, note=64, velocity=100, time=8),
    Message('note_on', channel=0, note=59, velocity=100, time=0),
    Message('note_on', channel=0, note=52, velocity=100, time=0),
    Message('note_off', channel=0, note=64, velocity=100, time=376),
    Message('note_off', channel=0, note=59, velocity=100, time=0),
    Message('note_off', channel=0, note=52, velocity=100, time=0),
    Message('note_on', channel=0, note=40, velocity=100, time=8),
    Message('note_off', channel=0, note=40, velocity=100, time=184),
    Message('note_on', channel=0, note=40, velocity=100, time=8),
    Message('note_off', channel=0, note=40, velocity=100, time=184),
    Message('note_on', channel=0, note=59, velocity=100, time=8),
    Message('note_on', channel=0, note=54, velocity=100, time=0),
    Message('note_off', channel=0, note=59, velocity=100, time=760),
    Message('note_off', channel=0, note=54, velocity=100, time=0),
    Message('note_on', channel=0, note=50, velocity=100, time=8),
    Message('note_on', channel=0, note=57, velocity=100, time=0),
    Message('note_on', channel=0, note=62, velocity=100, time=0),
    Message('note_off', channel=0, note=50, velocity=100, time=1528),
    Message('note_off', channel=0, note=57, velocity=100, time=0),
    Message('note_off', channel=0, note=62, velocity=100, time=0),
    Message('note_on', channel=0, note=64, velocity=100, time=8),
    Message('note_on', channel=0, note=59, velocity=100, time=0),
    Message('note_on', channel=0, note=52, velocity=100, time=0),
    Message('note_off', channel=0, note=64, velocity=100, time=376),
    Message('note_off', channel=0, note=59, velocity=100, time=0),
    Message('note_off', channel=0, note=52, velocity=100, time=0),
    Message('note_on', channel=0, note=40, velocity=100, time=8),
    Message('note_off', channel=0, note=40, velocity=100, time=184),
    Message('note_on', channel=0, note=40, velocity=100, time=8),
    Message('note_off', channel=0, note=40, velocity=100, time=184),
    Message('note_on', channel=0, note=53, velocity=100, time=8),
    Message('note_on', channel=0, note=60, velocity=100, time=0),
    Message('note_on', channel=0, note=65, velocity=100, time=0),
    Message('note_off', channel=0, note=53, velocity=100, time=760),
    Message('note_off', channel=0, note=60, velocity=100, time=0),
    Message('note_off', channel=0, note=65, velocity=100, time=0),
    Message('note_on', channel=0, note=64, velocity=100, time=8),
    Message('note_on', channel=0, note=59, velocity=100, time=0),
    Message('note_on', channel=0, note=52, velocity=100, time=0),
    Message('note_off', channel=0, note=64, velocity=100, time=376),
    Message('note_off', channel=0, note=59, velocity=100, time=0),
    Message('note_off', channel=0, note=52, velocity=100, time=0),
    Message('note_on', channel=0, note=40, velocity=100, time=8),
    Message('note_off', channel=0, note=40, velocity=100, time=184),
    Message('note_on', channel=0, note=40, velocity=100, time=8),
    Message('note_off', channel=0, note=40, velocity=100, time=184),
    Message('note_on', channel=0, note=62, velocity=100, time=8),
    Message('note_on', channel=0, note=57, velocity=100, time=0),
    Message('note_on', channel=0, note=50, velocity=100, time=0),
    Message('note_off', channel=0, note=62, velocity=100, time=760),
    Message('note_off', channel=0, note=57, velocity=100, time=0),
    Message('note_off', channel=0, note=50, velocity=100, time=0),
    Message('note_on', channel=0, note=64, velocity=100, time=8),
    Message('note_on', channel=0, note=59, velocity=100, time=0),
    Message('note_on', channel=0, note=52, velocity=100, time=0),
    Message('note_off', channel=0, note=64, velocity=100, time=760),
    Message('note_off', channel=0, note=59, velocity=100, time=0),
    Message('note_off', channel=0, note=52, velocity=100, time=0),
    Message('note_on', channel=0, note=47, velocity=100, time=8),
    Message('note_on', channel=0, note=59, velocity=100, time=0),
    Message('note_on', channel=0, note=54, velocity=100, time=0),
    Message('note_off', channel=0, note=47, velocity=100, time=760),
    Message('note_off', channel=0, note=59, velocity=100, time=0),
    Message('note_off', channel=0, note=54, velocity=100, time=0),
    Message('note_on', channel=0, note=60, velocity=100, time=8),
    Message('note_on', channel=0, note=55, velocity=100, time=0),
    Message('note_on', channel=0, note=48, velocity=100, time=0),
    Message('note_off', channel=0, note=60, velocity=100, time=760),
    Message('note_off', channel=0, note=55, velocity=100, time=0),
    Message('note_off', channel=0, note=48, velocity=100, time=0),
    Message('note_on', channel=0, note=43, velocity=100, time=8),
    Message('note_on', channel=0, note=55, velocity=100, time=0),
    Message('note_on', channel=0, note=50, velocity=100, time=0),
    Message('note_off', channel=0, note=43, velocity=100, time=760),
    Message('note_off', channel=0, note=55, velocity=100, time=0),
    Message('note_off', channel=0, note=50, velocity=100, time=0),
    Message('note_on', channel=0, note=52, velocity=100, time=8),
    Message('note_off', channel=0, note=52, velocity=100, time=88),
    Message('note_on', channel=0, note=52, velocity=100, time=8),
    Message('note_off', channel=0, note=52, velocity=100, time=88),
    Message('note_on', channel=0, note=52, velocity=100, time=8),
    Message('note_off', channel=0, note=52, velocity=100, time=88),
    Message('note_on', channel=0, note=52, velocity=100, time=8),
    Message('note_off', channel=0, note=52, velocity=100, time=88),
    Message('note_on', channel=0, note=54, velocity=100, time=8),
    Message('note_off', channel=0, note=54, velocity=100, time=88),
    Message('note_on', channel=0, note=54, velocity=100, time=8),
    Message('note_off', channel=0, note=54, velocity=100, time=88),
    Message('note_on', channel=0, note=54, velocity=100, time=8),
    Message('note_off', channel=0, note=54, velocity=100, time=88),
    Message('note_on', channel=0, note=54, velocity=100, time=8),
    Message('note_off', channel=0, note=54, velocity=100, time=88),
    Message('note_on', channel=0, note=55, velocity=100, time=8),
    Message('note_off', channel=0, note=55, velocity=100, time=88),
    Message('note_on', channel=0, note=55, velocity=100, time=8),
    Message('note_off', channel=0, note=55, velocity=100, time=88),
    Message('note_on', channel=0, note=55, velocity=100, time=8),
    Message('note_off', channel=0, note=55, velocity=100, time=88),
    Message('note_on', channel=0, note=55, velocity=100, time=8),
    Message('note_off', channel=0, note=55, velocity=100, time=88),
    Message('note_on', channel=0, note=57, velocity=100, time=8),
    Message('note_off', channel=0, note=57, velocity=100, time=88),
    Message('note_on', channel=0, note=57, velocity=100, time=8),
    Message('note_off', channel=0, note=57, velocity=100, time=88),
    Message('note_on', channel=0, note=57, velocity=100, time=8),
    Message('note_off', channel=0, note=57, velocity=100, time=88),
    Message('note_on', channel=0, note=57, velocity=100, time=8),
    Message('note_off', channel=0, note=57, velocity=100, time=88),
    Message('note_on', channel=0, note=59, velocity=100, time=8),
    Message('note_off', channel=0, note=59, velocity=100, time=88),
    Message('note_on', channel=0, note=59, velocity=100, time=8),
    Message('note_off', channel=0, note=59, velocity=100, time=88),
    Message('note_on', channel=0, note=59, velocity=100, time=8),
    Message('note_off', channel=0, note=59, velocity=100, time=88),
    Message('note_on', channel=0, note=59, velocity=100, time=8),
    Message('note_off', channel=0, note=59, velocity=100, time=88),
    Message('note_on', channel=0, note=61, velocity=100, time=8),
    Message('note_off', channel=0, note=61, velocity=100, time=88),
    Message('note_on', channel=0, note=61, velocity=100, time=8),
    Message('note_off', channel=0, note=61, velocity=100, time=88),
    Message('note_on', channel=0, note=61, velocity=100, time=8),
    Message('note_off', channel=0, note=61, velocity=100, time=88),
    Message('note_on', channel=0, note=61, velocity=100, time=8),
    Message('note_off', channel=0, note=61, velocity=100, time=88),
    Message('note_on', channel=0, note=62, velocity=100, time=8),
    Message('note_off', channel=0, note=62, velocity=100, time=88),
    Message('note_on', channel=0, note=62, velocity=100, time=8),
    Message('note_off', channel=0, note=62, velocity=100, time=88),
    Message('note_on', channel=0, note=62, velocity=100, time=8),
    Message('note_off', channel=0, note=62, velocity=100, time=88),
    Message('note_on', channel=0, note=62, velocity=100, time=8),
    Message('note_off', channel=0, note=62, velocity=100, time=88),
    Message('note_on', channel=0, note=64, velocity=100, time=8),
    Message('note_off', channel=0, note=64, velocity=100, time=88),
    Message('note_on', channel=0, note=64, velocity=100, time=8),
    Message('note_off', channel=0, note=64, velocity=100, time=88),
    Message('note_on', channel=0, note=64, velocity=100, time=8),
    Message('note_off', channel=0, note=64, velocity=100, time=88),
    Message('note_on', channel=0, note=64, velocity=100, time=8),
    Message('note_off', channel=0, note=64, velocity=100, time=88),
    Message('note_on', channel=0, note=66, velocity=100, time=8),
    Message('note_on', channel=0, note=54, velocity=100, time=0),
    Message('note_off', channel=0, note=66, velocity=100, time=760),
    Message('note_off', channel=0, note=54, velocity=100, time=0),
    Message('note_on', channel=0, note=67, velocity=100, time=8),
    Message('note_on', channel=0, note=55, velocity=100, time=0),
    Message('note_off', channel=0, note=67, velocity=100, time=760),
    Message('note_off', channel=0, note=55, velocity=100, time=0),
    Message('note_on', channel=0, note=66, velocity=100, time=8),
    Message('note_on', channel=0, note=54, velocity=100, time=0),
    Message('note_off', channel=0, note=66, velocity=100, time=760),
    Message('note_off', channel=0, note=54, velocity=100, time=0),
    Message('note_on', channel=0, note=64, velocity=100, time=8),
    Message('note_on', channel=0, note=52, velocity=100, time=0),
    Message('note_off', channel=0, note=64, velocity=100, time=760),
    Message('note_off', channel=0, note=52, velocity=100, time=0),
    Message('note_on', channel=0, note=66, velocity=100, time=8),
    Message('note_on', channel=0, note=54, velocity=100, time=0),
    Message('note_off', channel=0, note=66, velocity=100, time=760),
    Message('note_off', channel=0, note=54, velocity=100, time=0),
    Message('note_on', channel=0, note=47, velocity=100, time=8),
    Message('note_on', channel=0, note=59, velocity=100, time=0),
    Message('note_off', channel=0, note=47, velocity=100, time=760),
    Message('note_off', channel=0, note=59, velocity=100, time=0),
    Message('note_on', channel=0, note=62, velocity=100, time=8),
    Message('note_on', channel=0, note=50, velocity=100, time=0),
    Message('note_off', channel=0, note=62, velocity=100, time=1528),
    Message('note_off', channel=0, note=50, velocity=100, time=0),
    Message('note_on', channel=0, note=61, velocity=100, time=8),
    Message('note_on', channel=0, note=49, velocity=100, time=0),
    Message('note_off', channel=0, note=61, velocity=100, time=760),
    Message('note_off', channel=0, note=49, velocity=100, time=0),
    Message('note_on', channel=0, note=62, velocity=100, time=8),
    Message('note_on', channel=0, note=50, velocity=100, time=0),
    Message('note_off', channel=0, note=62, velocity=100, time=760),
    Message('note_off', channel=0, note=50, velocity=100, time=0),
    Message('note_on', channel=0, note=64, velocity=100, time=8),
    Message('note_on', channel=0, note=52, velocity=100, time=0),
    Message('note_off', channel=0, note=64, velocity=100, time=760),
    Message('note_off', channel=0, note=52, velocity=100, time=0),
    Message('note_on', channel=0, note=61, velocity=100, time=8),
    Message('note_on', channel=0, note=49, velocity=100, time=0),
    Message('note_off', channel=0, note=61, velocity=100, time=760),
    Message('note_off', channel=0, note=49, velocity=100, time=0),
    Message('note_on', channel=0, note=50, velocity=100, time=8),
    Message('note_on', channel=0, note=62, velocity=100, time=0),
    Message('note_off', channel=0, note=50, velocity=100, time=184),
    Message('note_off', channel=0, note=62, velocity=100, time=0),
    Message('note_on', channel=0, note=61, velocity=100, time=8),
    Message('note_on', channel=0, note=49, velocity=100, time=0),
    Message('note_off', channel=0, note=61, velocity=100, time=184),
    Message('note_off', channel=0, note=49, velocity=100, time=0),
    Message('note_on', channel=0, note=47, velocity=100, time=8),
    Message('note_on', channel=0, note=59, velocity=100, time=0),
    Message('note_off', channel=0, note=47, velocity=100, time=2688),
    Message('note_off', channel=0, note=59, velocity=100, time=0),
    Message('note_on', channel=0, note=66, velocity=100, time=0),
    Message('note_on', channel=0, note=54, velocity=100, time=0),
    Message('note_off', channel=0, note=66, velocity=100, time=760),
    Message('note_off', channel=0, note=54, velocity=100, time=0),
    Message('note_on', channel=0, note=67, velocity=100, time=8),
    Message('note_on', channel=0, note=55, velocity=100, time=0),
    Message('note_off', channel=0, note=67, velocity=100, time=760),
    Message('note_off', channel=0, note=55, velocity=100, time=0),
    Message('note_on', channel=0, note=66, velocity=100, time=8),
    Message('note_on', channel=0, note=54, velocity=100, time=0),
    Message('note_off', channel=0, note=66, velocity=100, time=760),
    Message('note_off', channel=0, note=54, velocity=100, time=0),
    Message('note_on', channel=0, note=64, velocity=100, time=8),
    Message('note_on', channel=0, note=52, velocity=100, time=0),
    Message('note_off', channel=0, note=64, velocity=100, time=760),
    Message('note_off', channel=0, note=52, velocity=100, time=0),
    Message('note_on', channel=0, note=66, velocity=100, time=8),
    Message('note_on', channel=0, note=54, velocity=100, time=0),
    Message('note_off', channel=0, note=66, velocity=100, time=760),
    Message('note_off', channel=0, note=54, velocity=100, time=0),
    Message('note_on', channel=0, note=59, velocity=100, time=8),
    Message('note_on', channel=0, note=47, velocity=100, time=0),
    Message('note_off', channel=0, note=59, velocity=100, time=760),
    Message('note_off', channel=0, note=47, velocity=100, time=0),
    Message('note_on', channel=0, note=62, velocity=100, time=8),
    Message('note_on', channel=0, note=50, velocity=100, time=0),
    Message('note_off', channel=0, note=62, velocity=100, time=1528),
    Message('note_off', channel=0, note=50, velocity=100, time=0),
    Message('note_on', channel=0, note=61, velocity=100, time=8),
    Message('note_on', channel=0, note=49, velocity=100, time=0),
    Message('note_off', channel=0, note=61, velocity=100, time=760),
    Message('note_off', channel=0, note=49, velocity=100, time=0),
    Message('note_on', channel=0, note=62, velocity=100, time=8),
    Message('note_on', channel=0, note=50, velocity=100, time=0),
    Message('note_off', channel=0, note=62, velocity=100, time=760),
    Message('note_off', channel=0, note=50, velocity=100, time=0),
    Message('note_on', channel=0, note=64, velocity=100, time=8),
    Message('note_on', channel=0, note=52, velocity=100, time=0),
    Message('note_off', channel=0, note=64, velocity=100, time=760),
    Message('note_off', channel=0, note=52, velocity=100, time=0),
    Message('note_on', channel=0, note=61, velocity=100, time=8),
    Message('note_on', channel=0, note=49, velocity=100, time=0),
    Message('note_off', channel=0, note=61, velocity=100, time=760),
    Message('note_off', channel=0, note=49, velocity=100, time=0),
    Message('note_on', channel=0, note=50, velocity=100, time=8),
    Message('note_on', channel=0, note=62, velocity=100, time=0),
    Message('note_off', channel=0, note=50, velocity=100, time=184),
    Message('note_off', channel=0, note=62, velocity=100, time=0),
    Message('note_on', channel=0, note=49, velocity=100, time=8),
    Message('note_on', channel=0, note=61, velocity=100, time=0),
    Message('note_off', channel=0, note=49, velocity=100, time=184),
    Message('note_off', channel=0, note=61, velocity=100, time=0),
    Message('note_on', channel=0, note=47, velocity=100, time=8),
    Message('note_on', channel=0, note=59, velocity=100, time=0),
    Message('note_off', channel=0, note=47, velocity=100, time=1144),
    Message('note_off', channel=0, note=59, velocity=100, time=0),
    Message('note_on', channel=0, note=50, velocity=100, time=8),
    Message('note_on', channel=0, note=62, velocity=100, time=0),
    Message('note_off', channel=0, note=50, velocity=100, time=184),
    Message('note_off', channel=0, note=62, velocity=100, time=0),
    Message('note_on', channel=0, note=49, velocity=100, time=8),
    Message('note_on', channel=0, note=61, velocity=100, time=0),
    Message('note_off', channel=0, note=49, velocity=100, time=184),
    Message('note_off', channel=0, note=61, velocity=100, time=0),
    Message('note_on', channel=0, note=47, velocity=100, time=8),
    Message('note_on', channel=0, note=59, velocity=100, time=0),
    Message('note_off', channel=0, note=47, velocity=100, time=1144),
    Message('note_off', channel=0, note=59, velocity=100, time=0),
    Message('note_on', channel=0, note=61, velocity=100, time=8),
    Message('note_on', channel=0, note=49, velocity=100, time=0),
    Message('note_off', channel=0, note=61, velocity=100, time=760),
    Message('note_off', channel=0, note=49, velocity=100, time=0),
    Message('note_on', channel=0, note=66, velocity=100, time=8),
    Message('note_on', channel=0, note=54, velocity=100, time=0),
    Message('note_off', channel=0, note=66, velocity=100, time=760),
    Message('note_off', channel=0, note=54, velocity=100, time=0),
    Message('note_on', channel=0, note=61, velocity=100, time=8),
    Message('note_on', channel=0, note=49, velocity=100, time=0),
    Message('note_off', channel=0, note=61, velocity=100, time=760),
    Message('note_off', channel=0, note=49, velocity=100, time=0),
    Message('note_on', channel=0, note=59, velocity=100, time=8),
    Message('note_on', channel=0, note=47, velocity=100, time=0),
    Message('note_off', channel=0, note=59, velocity=100, time=760),
    Message('note_off', channel=0, note=47, velocity=100, time=0),
    Message('note_on', channel=0, note=62, velocity=100, time=8),
    Message('note_on', channel=0, note=50, velocity=100, time=0),
    Message('note_off', channel=0, note=62, velocity=100, time=760),
    Message('note_off', channel=0, note=50, velocity=100, time=0),
    Message('note_on', channel=0, note=61, velocity=100, time=8),
    Message('note_on', channel=0, note=49, velocity=100, time=0),
    Message('note_off', channel=0, note=61, velocity=100, time=760),
    Message('note_off', channel=0, note=49, velocity=100, time=0),
    Message('note_on', channel=0, note=59, velocity=100, time=8),
    Message('note_on', channel=0, note=47, velocity=100, time=0),
    Message('note_off', channel=0, note=59, velocity=100, time=760),
    Message('note_off', channel=0, note=47, velocity=100, time=0),
    Message('note_on', channel=0, note=61, velocity=100, time=8),
    Message('note_on', channel=0, note=49, velocity=100, time=0),
    Message('note_off', channel=0, note=61, velocity=100, time=760),
    Message('note_off', channel=0, note=49, velocity=100, time=0),
    Message('note_on', channel=0, note=59, velocity=100, time=8),
    Message('note_on', channel=0, note=47, velocity=100, time=0),
    Message('note_off', channel=0, note=59, velocity=100, time=760),
    Message('note_off', channel=0, note=47, velocity=100, time=0),
    Message('note_on', channel=0, note=62, velocity=100, time=8),
    Message('note_on', channel=0, note=50, velocity=100, time=0),
    Message('note_off', channel=0, note=62, velocity=100, time=760),
    Message('note_off', channel=0, note=50, velocity=100, time=0),
    Message('note_on', channel=0, note=61, velocity=100, time=8),
    Message('note_on', channel=0, note=49, velocity=100, time=0),
    Message('note_off', channel=0, note=61, velocity=100, time=760),
    Message('note_off', channel=0, note=49, velocity=100, time=0),
    Message('note_on', channel=0, note=62, velocity=100, time=8),
    Message('note_on', channel=0, note=50, velocity=100, time=0),
    Message('note_off', channel=0, note=62, velocity=100, time=760),
    Message('note_off', channel=0, note=50, velocity=100, time=0),
    Message('note_on', channel=0, note=59, velocity=100, time=8),
    Message('note_on', channel=0, note=47, velocity=100, time=0),
    Message('note_off', channel=0, note=59, velocity=100, time=760),
    Message('note_off', channel=0, note=47, velocity=100, time=0),
    Message('note_on', channel=0, note=62, velocity=100, time=8),
    Message('note_on', channel=0, note=50, velocity=100, time=0),
    Message('note_off', channel=0, note=62, velocity=100, time=760),
    Message('note_off', channel=0, note=50, velocity=100, time=0),
    Message('note_on', channel=0, note=61, velocity=100, time=8),
    Message('note_on', channel=0, note=49, velocity=100, time=0),
    Message('note_off', channel=0, note=61, velocity=100, time=760),
    Message('note_off', channel=0, note=49, velocity=100, time=0),
    Message('note_on', channel=0, note=61, velocity=100, time=8),
    Message('note_on', channel=0, note=49, velocity=100, time=0),
    Message('note_off', channel=0, note=61, velocity=100, time=760),
    Message('note_off', channel=0, note=49, velocity=100, time=0),
    Message('note_on', channel=0, note=59, velocity=100, time=8),
    Message('note_on', channel=0, note=47, velocity=100, time=0),
    Message('note_off', channel=0, note=59, velocity=100, time=760),
    Message('note_off', channel=0, note=47, velocity=100, time=0),
    Message('note_on', channel=0, note=62, velocity=100, time=8),
    Message('note_on', channel=0, note=50, velocity=100, time=0),
    Message('note_off', channel=0, note=62, velocity=100, time=760),
    Message('note_off', channel=0, note=50, velocity=100, time=0),
    Message('note_on', channel=0, note=61, velocity=100, time=8),
    Message('note_on', channel=0, note=49, velocity=100, time=0),
    Message('note_off', channel=0, note=61, velocity=100, time=760),
    Message('note_off', channel=0, note=49, velocity=100, time=0),
    Message('note_on', channel=0, note=59, velocity=100, time=8),
    Message('note_on', channel=0, note=47, velocity=100, time=0),
    Message('note_off', channel=0, note=59, velocity=100, time=760),
    Message('note_off', channel=0, note=47, velocity=100, time=0),
    Message('note_on', channel=0, note=59, velocity=100, time=8),
    Message('note_on', channel=0, note=47, velocity=100, time=0),
    Message('note_off', channel=0, note=59, velocity=100, time=760),
    Message('note_off', channel=0, note=47, velocity=100, time=0),
    Message('note_on', channel=0, note=62, velocity=100, time=8),
    Message('note_on', channel=0, note=50, velocity=100, time=0),
    Message('note_off', channel=0, note=62, velocity=100, time=760),
    Message('note_off', channel=0, note=50, velocity=100, time=0),
    Message('note_on', channel=0, note=61, velocity=100, time=8),
    Message('note_on', channel=0, note=49, velocity=100, time=0),
    Message('note_off', channel=0, note=61, velocity=100, time=760),
    Message('note_off', channel=0, note=49, velocity=100, time=0),
    Message('note_on', channel=0, note=59, velocity=100, time=8),
    Message('note_on', channel=0, note=47, velocity=100, time=0),
    Message('note_off', channel=0, note=59, velocity=100, time=760),
    Message('note_off', channel=0, note=47, velocity=100, time=0),
    Message('note_on', channel=0, note=66, velocity=100, time=8),
    Message('note_on', channel=0, note=54, velocity=100, time=0),
    Message('note_off', channel=0, note=66, velocity=100, time=760),
    Message('note_off', channel=0, note=54, velocity=100, time=0),
    Message('note_on', channel=0, note=69, velocity=100, time=8),
    Message('note_on', channel=0, note=57, velocity=100, time=0),
    Message('note_off', channel=0, note=69, velocity=100, time=760),
    Message('note_off', channel=0, note=57, velocity=100, time=0),
    Message('note_on', channel=0, note=66, velocity=100, time=8),
    Message('note_on', channel=0, note=54, velocity=100, time=0),
    Message('note_off', channel=0, note=66, velocity=100, time=760),
    Message('note_off', channel=0, note=54, velocity=100, time=0),
    Message('note_on', channel=0, note=67, velocity=100, time=8),
    Message('note_on', channel=0, note=55, velocity=100, time=0),
    Message('note_off', channel=0, note=67, velocity=100, time=760),
    Message('note_off', channel=0, note=55, velocity=100, time=0),
    Message('note_on', channel=0, note=58, velocity=100, time=8),
    Message('note_on', channel=0, note=46, velocity=100, time=0),
    Message('note_off', channel=0, note=58, velocity=100, time=760),
    Message('note_off', channel=0, note=46, velocity=100, time=0),
    Message('note_on', channel=0, note=61, velocity=100, time=8),
    Message('note_on', channel=0, note=49, velocity=100, time=0),
    Message('note_off', channel=0, note=61, velocity=100, time=760),
    Message('note_off', channel=0, note=49, velocity=100, time=0),
    Message('note_on', channel=0, note=66, velocity=100, time=8),
    Message('note_on', channel=0, note=54, velocity=100, time=0),
    Message('note_off', channel=0, note=66, velocity=100, time=1528),
    Message('note_off', channel=0, note=54, velocity=100, time=0),
    Message('note_on', channel=0, note=42, velocity=100, time=6152),
    Message('note_on', channel=0, note=49, velocity=100, time=0),
    Message('note_on', channel=0, note=54, velocity=100, time=0),
    Message('note_off', channel=0, note=42, velocity=100, time=376),
    Message('note_off', channel=0, note=49, velocity=100, time=0),
    Message('note_off', channel=0, note=54, velocity=100, time=0),
    Message('note_on', channel=0, note=40, velocity=100, time=8),
    Message('note_off', channel=0, note=40, velocity=100, time=184),
    Message('note_on', channel=0, note=40, velocity=100, time=8),
    Message('note_off', channel=0, note=40, velocity=100, time=184),
    Message('note_on', channel=0, note=42, velocity=100, time=8),
    Message('note_on', channel=0, note=49, velocity=100, time=0),
    Message('note_on', channel=0, note=54, velocity=100, time=0),
    Message('note_off', channel=0, note=42, velocity=100, time=376),
    Message('note_off', channel=0, note=49, velocity=100, time=0),
    Message('note_off', channel=0, note=54, velocity=100, time=0),
    Message('note_on', channel=0, note=40, velocity=100, time=8),
    Message('note_off', channel=0, note=40, velocity=100, time=184),
    Message('note_on', channel=0, note=40, velocity=100, time=8),
    Message('note_off', channel=0, note=40, velocity=100, time=184),
    Message('note_on', channel=0, note=42, velocity=100, time=8),
    Message('note_on', channel=0, note=49, velocity=100, time=0),
    Message('note_on', channel=0, note=54, velocity=100, time=0),
    Message('note_off', channel=0, note=42, velocity=100, time=376),
    Message('note_off', channel=0, note=49, velocity=100, time=0),
    Message('note_off', channel=0, note=54, velocity=100, time=0),
    Message('note_on', channel=0, note=40, velocity=100, time=8),
    Message('note_off', channel=0, note=40, velocity=100, time=184),
    Message('note_on', channel=0, note=40, velocity=100, time=8),
    Message('note_off', channel=0, note=40, velocity=100, time=184),
    Message('note_on', channel=0, note=40, velocity=100, time=8),
    Message('note_off', channel=0, note=40, velocity=100, time=184),
    Message('note_on', channel=0, note=42, velocity=100, time=8),
    Message('note_off', channel=0, note=42, velocity=100, time=184),
    Message('note_on', channel=0, note=55, velocity=100, time=8),
    Message('note_on', channel=0, note=50, velocity=100, time=0),
    Message('note_on', channel=0, note=43, velocity=100, time=0),
    Message('note_off', channel=0, note=55, velocity=100, time=376),
    Message('note_off', channel=0, note=50, velocity=100, time=0),
    Message('note_off', channel=0, note=43, velocity=100, time=0),
    Message('note_on', channel=0, note=42, velocity=100, time=8),
    Message('note_on', channel=0, note=49, velocity=100, time=0),
    Message('note_on', channel=0, note=54, velocity=100, time=0),
    Message('note_off', channel=0, note=42, velocity=100, time=376),
    Message('note_off', channel=0, note=49, velocity=100, time=0),
    Message('note_off', channel=0, note=54, velocity=100, time=0),
    Message('note_on', channel=0, note=40, velocity=100, time=8),
    Message('note_off', channel=0, note=40, velocity=100, time=184),
    Message('note_on', channel=0, note=40, velocity=100, time=8),
    Message('note_off', channel=0, note=40, velocity=100, time=184),
    Message('note_on', channel=0, note=42, velocity=100, time=8),
    Message('note_on', channel=0, note=49, velocity=100, time=0),
    Message('note_on', channel=0, note=54, velocity=100, time=0),
    Message('note_off', channel=0, note=42, velocity=100, time=376),
    Message('note_off', channel=0, note=49, velocity=100, time=0),
    Message('note_off', channel=0, note=54, velocity=100, time=0),
    Message('note_on', channel=0, note=40, velocity=100, time=8),
    Message('note_off', channel=0, note=40, velocity=100, time=184),
    Message('note_on', channel=0, note=40, velocity=100, time=8),
    Message('note_off', channel=0, note=40, velocity=100, time=184),
    Message('note_on', channel=0, note=43, velocity=100, time=8),
    Message('note_on', channel=0, note=50, velocity=100, time=0),
    Message('note_off', channel=0, note=43, velocity=100, time=184),
    Message('note_off', channel=0, note=50, velocity=100, time=0),
    Message('note_on', channel=0, note=42, velocity=100, time=8),
    Message('note_off', channel=0, note=42, velocity=100, time=184),
    Message('note_on', channel=0, note=40, velocity=100, time=8),
    Message('note_off', channel=0, note=40, velocity=100, time=184),
    Message('note_on', channel=0, note=40, velocity=100, time=8),
    Message('note_off', channel=0, note=40, velocity=100, time=184),
    Message('note_on', channel=0, note=48, velocity=100, time=8),
    Message('note_on', channel=0, note=55, velocity=100, time=0),
    Message('note_on', channel=0, note=60, velocity=100, time=0),
    Message('note_off', channel=0, note=48, velocity=100, time=760),
    Message('note_off', channel=0, note=55, velocity=100, time=0),
    Message('note_off', channel=0, note=60, velocity=100, time=0),
    Message('note_on', channel=0, note=49, velocity=100, time=8),
    Message('note_on', channel=0, note=54, velocity=100, time=0),
    Message('note_on', channel=0, note=42, velocity=100, time=0),
    Message('note_off', channel=0, note=49, velocity=100, time=376),
    Message('note_off', channel=0, note=54, velocity=100, time=0),
    Message('note_off', channel=0, note=42, velocity=100, time=0),
    Message('note_on', channel=0, note=40, velocity=100, time=8),
    Message('note_off', channel=0, note=40, velocity=100, time=184),
    Message('note_on', channel=0, note=40, velocity=100, time=8),
    Message('note_off', channel=0, note=40, velocity=100, time=184),
    Message('note_on', channel=0, note=42, velocity=100, time=8),
    Message('note_on', channel=0, note=49, velocity=100, time=0),
    Message('note_on', channel=0, note=54, velocity=100, time=0),
    Message('note_off', channel=0, note=42, velocity=100, time=376),
    Message('note_off', channel=0, note=49, velocity=100, time=0),
    Message('note_off', channel=0, note=54, velocity=100, time=0),
    Message('note_on', channel=0, note=40, velocity=100, time=8),
    Message('note_off', channel=0, note=40, velocity=100, time=184),
    Message('note_on', channel=0, note=40, velocity=100, time=8),
    Message('note_off', channel=0, note=40, velocity=100, time=184),
    Message('note_on', channel=0, note=49, velocity=100, time=8),
    Message('note_on', channel=0, note=54, velocity=100, time=0),
    Message('note_on', channel=0, note=42, velocity=100, time=0),
    Message('note_off', channel=0, note=49, velocity=100, time=376),
    Message('note_off', channel=0, note=54, velocity=100, time=0),
    Message('note_off', channel=0, note=42, velocity=100, time=0),
    Message('note_on', channel=0, note=40, velocity=100, time=8),
    Message('note_off', channel=0, note=40, velocity=100, time=184),
    Message('note_on', channel=0, note=40, velocity=100, time=8),
    Message('note_off', channel=0, note=40, velocity=100, time=184),
    Message('note_on', channel=0, note=40, velocity=100, time=8),
    Message('note_off', channel=0, note=40, velocity=100, time=184),
    Message('note_on', channel=0, note=42, velocity=100, time=8),
    Message('note_off', channel=0, note=42, velocity=100, time=184),
    Message('note_on', channel=0, note=55, velocity=100, time=8),
    Message('note_on', channel=0, note=50, velocity=100, time=0),
    Message('note_on', channel=0, note=43, velocity=100, time=0),
    Message('note_off', channel=0, note=55, velocity=100, time=376),
    Message('note_off', channel=0, note=50, velocity=100, time=0),
    Message('note_off', channel=0, note=43, velocity=100, time=0),
    Message('note_on', channel=0, note=49, velocity=100, time=8),
    Message('note_on', channel=0, note=54, velocity=100, time=0),
    Message('note_on', channel=0, note=42, velocity=100, time=0),
    Message('note_off', channel=0, note=49, velocity=100, time=376),
    Message('note_off', channel=0, note=54, velocity=100, time=0),
    Message('note_off', channel=0, note=42, velocity=100, time=0),
    Message('note_on', channel=0, note=40, velocity=100, time=8),
    Message('note_off', channel=0, note=40, velocity=100, time=184),
    Message('note_on', channel=0, note=40, velocity=100, time=8),
    Message('note_off', channel=0, note=40, velocity=100, time=184),
    Message('note_on', channel=0, note=42, velocity=100, time=8),
    Message('note_on', channel=0, note=49, velocity=100, time=0),
    Message('note_on', channel=0, note=54, velocity=100, time=0),
    Message('note_off', channel=0, note=42, velocity=100, time=376),
    Message('note_off', channel=0, note=49, velocity=100, time=0),
    Message('note_off', channel=0, note=54, velocity=100, time=0),
    Message('note_on', channel=0, note=40, velocity=100, time=8),
    Message('note_off', channel=0, note=40, velocity=100, time=184),
    Message('note_on', channel=0, note=40, velocity=100, time=8),
    Message('note_off', channel=0, note=40, velocity=100, time=184),
    Message('note_on', channel=0, note=43, velocity=100, time=8),
    Message('note_on', channel=0, note=50, velocity=100, time=0),
    Message('note_off', channel=0, note=43, velocity=100, time=184),
    Message('note_off', channel=0, note=50, velocity=100, time=0),
    Message('note_on', channel=0, note=42, velocity=100, time=8),
    Message('note_off', channel=0, note=42, velocity=100, time=184),
    Message('note_on', channel=0, note=40, velocity=100, time=8),
    Message('note_off', channel=0, note=40, velocity=100, time=184),
    Message('note_on', channel=0, note=40, velocity=100, time=8),
    Message('note_off', channel=0, note=40, velocity=100, time=184),
    Message('note_on', channel=0, note=48, velocity=100, time=8),
    Message('note_on', channel=0, note=55, velocity=100, time=0),
    Message('note_on', channel=0, note=60, velocity=100, time=0),
    Message('note_off', channel=0, note=48, velocity=100, time=760),
    Message('note_off', channel=0, note=55, velocity=100, time=0),
    Message('note_off', channel=0, note=60, velocity=100, time=0),
    Message('note_on', channel=0, note=49, velocity=100, time=8),
    Message('note_on', channel=0, note=54, velocity=100, time=0),
    Message('note_on', channel=0, note=42, velocity=100, time=0),
    Message('note_off', channel=0, note=49, velocity=100, time=376),
    Message('note_off', channel=0, note=54, velocity=100, time=0),
    Message('note_off', channel=0, note=42, velocity=100, time=0),
    Message('note_on', channel=0, note=40, velocity=100, time=8),
    Message('note_off', channel=0, note=40, velocity=100, time=184),
    Message('note_on', channel=0, note=40, velocity=100, time=8),
    Message('note_off', channel=0, note=40, velocity=100, time=184),
    Message('note_on', channel=0, note=42, velocity=100, time=8),
    Message('note_on', channel=0, note=49, velocity=100, time=0),
    Message('note_on', channel=0, note=54, velocity=100, time=0),
    Message('note_off', channel=0, note=42, velocity=100, time=376),
    Message('note_off', channel=0, note=49, velocity=100, time=0),
    Message('note_off', channel=0, note=54, velocity=100, time=0),
    Message('note_on', channel=0, note=40, velocity=100, time=8),
    Message('note_off', channel=0, note=40, velocity=100, time=184),
    Message('note_on', channel=0, note=40, velocity=100, time=8),
    Message('note_off', channel=0, note=40, velocity=100, time=184),
    Message('note_on', channel=0, note=49, velocity=100, time=8),
    Message('note_on', channel=0, note=54, velocity=100, time=0),
    Message('note_on', channel=0, note=42, velocity=100, time=0),
    Message('note_off', channel=0, note=49, velocity=100, time=376),
    Message('note_off', channel=0, note=54, velocity=100, time=0),
    Message('note_off', channel=0, note=42, velocity=100, time=0),
    Message('note_on', channel=0, note=40, velocity=100, time=8),
    Message('note_off', channel=0, note=40, velocity=100, time=184),
    Message('note_on', channel=0, note=40, velocity=100, time=8),
    Message('note_off', channel=0, note=40, velocity=100, time=184),
    Message('note_on', channel=0, note=40, velocity=100, time=8),
    Message('note_off', channel=0, note=40, velocity=100, time=184),
    Message('note_on', channel=0, note=42, velocity=100, time=8),
    Message('note_off', channel=0, note=42, velocity=100, time=184),
    Message('note_on', channel=0, note=55, velocity=100, time=8),
    Message('note_on', channel=0, note=50, velocity=100, time=0),
    Message('note_on', channel=0, note=43, velocity=100, time=0),
    Message('note_off', channel=0, note=55, velocity=100, time=376),
    Message('note_off', channel=0, note=50, velocity=100, time=0),
    Message('note_off', channel=0, note=43, velocity=100, time=0),
    Message('note_on', channel=0, note=49, velocity=100, time=8),
    Message('note_on', channel=0, note=54, velocity=100, time=0),
    Message('note_on', channel=0, note=42, velocity=100, time=0),
    Message('note_off', channel=0, note=49, velocity=100, time=376),
    Message('note_off', channel=0, note=54, velocity=100, time=0),
    Message('note_off', channel=0, note=42, velocity=100, time=0),
    Message('note_on', channel=0, note=40, velocity=100, time=8),
    Message('note_off', channel=0, note=40, velocity=100, time=184),
    Message('note_on', channel=0, note=40, velocity=100, time=8),
    Message('note_off', channel=0, note=40, velocity=100, time=184),
    Message('note_on', channel=0, note=42, velocity=100, time=8),
    Message('note_on', channel=0, note=49, velocity=100, time=0),
    Message('note_on', channel=0, note=54, velocity=100, time=0),
    Message('note_off', channel=0, note=42, velocity=100, time=376),
    Message('note_off', channel=0, note=49, velocity=100, time=0),
    Message('note_off', channel=0, note=54, velocity=100, time=0),
    Message('note_on', channel=0, note=40, velocity=100, time=8),
    Message('note_off', channel=0, note=40, velocity=100, time=184),
    Message('note_on', channel=0, note=40, velocity=100, time=8),
    Message('note_off', channel=0, note=40, velocity=100, time=184),
    Message('note_on', channel=0, note=50, velocity=100, time=8),
    Message('note_on', channel=0, note=43, velocity=100, time=0),
    Message('note_off', channel=0, note=50, velocity=100, time=184),
    Message('note_off', channel=0, note=43, velocity=100, time=0),
    Message('note_on', channel=0, note=42, velocity=100, time=8),
    Message('note_off', channel=0, note=42, velocity=100, time=184),
    Message('note_on', channel=0, note=40, velocity=100, time=8),
    Message('note_off', channel=0, note=40, velocity=100, time=376),
    Message('note_on', channel=0, note=48, velocity=100, time=8),
    Message('note_off', channel=0, note=48, velocity=100, time=184),
    Message('note_on', channel=0, note=47, velocity=100, time=8),
    Message('note_off', channel=0, note=47, velocity=100, time=184),
    Message('note_on', channel=0, note=45, velocity=100, time=8),
    Message('note_off', channel=0, note=45, velocity=100, time=376),
    Message('note_on', channel=0, note=59, velocity=100, time=8),
    Message('note_on', channel=0, note=54, velocity=100, time=0),
    Message('note_on', channel=0, note=47, velocity=100, time=0),
    Message('note_off', channel=0, note=59, velocity=100, time=1528),
    Message('note_off', channel=0, note=54, velocity=100, time=0),
    Message('note_off', channel=0, note=47, velocity=100, time=0),
    Message('program_change', channel=0, program=27, time=8),
    Message('note_on', channel=0, note=52, velocity=100, time=0),
    Message('note_off', channel=0, note=52, velocity=100, time=184),
    Message('note_on', channel=0, note=59, velocity=100, time=8),
    Message('note_off', channel=0, note=59, velocity=100, time=184),
    Message('note_on', channel=0, note=64, velocity=100, time=8),
    Message('note_off', channel=0, note=64, velocity=100, time=184),
    Message('note_on', channel=0, note=53, velocity=100, time=8),
    Message('note_off', channel=0, note=53, velocity=100, time=184),
    Message('note_on', channel=0, note=52, velocity=100, time=8),
    Message('note_off', channel=0, note=52, velocity=100, time=184),
    Message('note_on', channel=0, note=59, velocity=100, time=8),
    Message('note_off', channel=0, note=59, velocity=100, time=184),
    Message('note_on', channel=0, note=64, velocity=100, time=8),
    Message('note_off', channel=0, note=64, velocity=100, time=184),
    Message('note_on', channel=0, note=50, velocity=100, time=8),
    Message('note_off', channel=0, note=50, velocity=100, time=184),
    Message('note_on', channel=0, note=52, velocity=100, time=8),
    Message('note_off', channel=0, note=52, velocity=100, time=184),
    Message('note_on', channel=0, note=59, velocity=100, time=8),
    Message('note_off', channel=0, note=59, velocity=100, time=184),
    Message('note_on', channel=0, note=47, velocity=100, time=8),
    Message('note_off', channel=0, note=47, velocity=100, time=184),
    Message('note_on', channel=0, note=54, velocity=100, time=8),
    Message('note_off', channel=0, note=54, velocity=100, time=184),
    Message('note_on', channel=0, note=50, velocity=100, time=8),
    Message('note_off', channel=0, note=50, velocity=100, time=184),
    Message('note_on', channel=0, note=57, velocity=100, time=8),
    Message('note_off', channel=0, note=57, velocity=100, time=184),
    Message('note_on', channel=0, note=62, velocity=100, time=8),
    Message('note_off', channel=0, note=62, velocity=100, time=184),
    Message('note_on', channel=0, note=50, velocity=100, time=8),
    Message('note_off', channel=0, note=50, velocity=100, time=184),
    Message('program_change', channel=0, program=27, time=8),
    Message('note_on', channel=0, note=52, velocity=100, time=0),
    Message('note_off', channel=0, note=52, velocity=100, time=184),
    Message('note_on', channel=0, note=59, velocity=100, time=8),
    Message('note_off', channel=0, note=59, velocity=100, time=184),
    Message('note_on', channel=0, note=64, velocity=100, time=8),
    Message('note_off', channel=0, note=64, velocity=100, time=184),
    Message('note_on', channel=0, note=53, velocity=100, time=8),
    Message('note_off', channel=0, note=53, velocity=100, time=184),
    Message('note_on', channel=0, note=52, velocity=100, time=8),
    Message('note_off', channel=0, note=52, velocity=100, time=184),
    Message('note_on', channel=0, note=59, velocity=100, time=8),
    Message('note_off', channel=0, note=59, velocity=100, time=184),
    Message('note_on', channel=0, note=64, velocity=100, time=8),
    Message('note_off', channel=0, note=64, velocity=100, time=184),
    Message('note_on', channel=0, note=50, velocity=100, time=8),
    Message('note_off', channel=0, note=50, velocity=100, time=184),
    Message('note_on', channel=0, note=52, velocity=100, time=8),
    Message('note_off', channel=0, note=52, velocity=100, time=184),
    Message('note_on', channel=0, note=59, velocity=100, time=8),
    Message('note_off', channel=0, note=59, velocity=100, time=184),
    Message('note_on', channel=0, note=47, velocity=100, time=8),
    Message('note_off', channel=0, note=47, velocity=100, time=184),
    Message('note_on', channel=0, note=54, velocity=100, time=8),
    Message('note_off', channel=0, note=54, velocity=100, time=184),
    Message('note_on', channel=0, note=50, velocity=100, time=8),
    Message('note_off', channel=0, note=50, velocity=100, time=184),
    Message('note_on', channel=0, note=57, velocity=100, time=8),
    Message('note_off', channel=0, note=57, velocity=100, time=184),
    Message('note_on', channel=0, note=62, velocity=100, time=8),
    Message('note_off', channel=0, note=62, velocity=100, time=184),
    Message('note_on', channel=0, note=50, velocity=100, time=8),
    Message('note_off', channel=0, note=50, velocity=100, time=184),
    Message('program_change', channel=0, program=27, time=8),
    Message('note_on', channel=0, note=52, velocity=100, time=0),
    Message('note_off', channel=0, note=52, velocity=100, time=184),
    Message('note_on', channel=0, note=59, velocity=100, time=8),
    Message('note_off', channel=0, note=59, velocity=100, time=184),
    Message('note_on', channel=0, note=64, velocity=100, time=8),
    Message('note_off', channel=0, note=64, velocity=100, time=184),
    Message('note_on', channel=0, note=53, velocity=100, time=8),
    Message('note_off', channel=0, note=53, velocity=100, time=184),
    Message('note_on', channel=0, note=52, velocity=100, time=8),
    Message('note_off', channel=0, note=52, velocity=100, time=184),
    Message('note_on', channel=0, note=59, velocity=100, time=8),
    Message('note_off', channel=0, note=59, velocity=100, time=184),
    Message('note_on', channel=0, note=64, velocity=100, time=8),
    Message('note_off', channel=0, note=64, velocity=100, time=184),
    Message('note_on', channel=0, note=50, velocity=100, time=8),
    Message('note_off', channel=0, note=50, velocity=100, time=184),
    Message('note_on', channel=0, note=52, velocity=100, time=8),
    Message('note_off', channel=0, note=52, velocity=100, time=184),
    Message('note_on', channel=0, note=59, velocity=100, time=8),
    Message('note_off', channel=0, note=59, velocity=100, time=184),
    Message('note_on', channel=0, note=47, velocity=100, time=8),
    Message('note_off', channel=0, note=47, velocity=100, time=184),
    Message('note_on', channel=0, note=54, velocity=100, time=8),
    Message('note_off', channel=0, note=54, velocity=100, time=184),
    Message('note_on', channel=0, note=50, velocity=100, time=8),
    Message('note_off', channel=0, note=50, velocity=100, time=184),
    Message('note_on', channel=0, note=57, velocity=100, time=8),
    Message('note_off', channel=0, note=57, velocity=100, time=184),
    Message('note_on', channel=0, note=62, velocity=100, time=8),
    Message('note_off', channel=0, note=62, velocity=100, time=184),
    Message('note_on', channel=0, note=50, velocity=100, time=8),
    Message('note_off', channel=0, note=50, velocity=100, time=184),
    Message('program_change', channel=0, program=27, time=8),
    Message('note_on', channel=0, note=52, velocity=100, time=0),
    Message('note_off', channel=0, note=52, velocity=100, time=184),
    Message('note_on', channel=0, note=59, velocity=100, time=8),
    Message('note_off', channel=0, note=59, velocity=100, time=184),
    Message('note_on', channel=0, note=64, velocity=100, time=8),
    Message('note_off', channel=0, note=64, velocity=100, time=184),
    Message('note_on', channel=0, note=53, velocity=100, time=8),
    Message('note_off', channel=0, note=53, velocity=100, time=184),
    Message('note_on', channel=0, note=52, velocity=100, time=8),
    Message('note_off', channel=0, note=52, velocity=100, time=184),
    Message('note_on', channel=0, note=59, velocity=100, time=8),
    Message('note_off', channel=0, note=59, velocity=100, time=184),
    Message('note_on', channel=0, note=64, velocity=100, time=8),
    Message('note_off', channel=0, note=64, velocity=100, time=184),
    Message('note_on', channel=0, note=50, velocity=100, time=8),
    Message('note_off', channel=0, note=50, velocity=100, time=184),
    Message('note_on', channel=0, note=52, velocity=100, time=8),
    Message('note_off', channel=0, note=52, velocity=100, time=184),
    Message('note_on', channel=0, note=59, velocity=100, time=8),
    Message('note_off', channel=0, note=59, velocity=100, time=184),
    Message('note_on', channel=0, note=47, velocity=100, time=8),
    Message('note_off', channel=0, note=47, velocity=100, time=184),
    Message('note_on', channel=0, note=54, velocity=100, time=8),
    Message('note_off', channel=0, note=54, velocity=100, time=184),
    Message('note_on', channel=0, note=50, velocity=100, time=8),
    Message('note_off', channel=0, note=50, velocity=100, time=184),
    Message('note_on', channel=0, note=57, velocity=100, time=8),
    Message('note_off', channel=0, note=57, velocity=100, time=184),
    Message('note_on', channel=0, note=62, velocity=100, time=8),
    Message('note_off', channel=0, note=62, velocity=100, time=184),
    Message('note_on', channel=0, note=50, velocity=100, time=8),
    Message('note_off', channel=0, note=50, velocity=100, time=184),
    Message('program_change', channel=0, program=27, time=8),
    Message('note_on', channel=0, note=52, velocity=100, time=0),
    Message('note_off', channel=0, note=52, velocity=100, time=184),
    Message('note_on', channel=0, note=59, velocity=100, time=8),
    Message('note_off', channel=0, note=59, velocity=100, time=184),
    Message('note_on', channel=0, note=64, velocity=100, time=8),
    Message('note_off', channel=0, note=64, velocity=100, time=184),
    Message('note_on', channel=0, note=53, velocity=100, time=8),
    Message('note_off', channel=0, note=53, velocity=100, time=184),
    Message('note_on', channel=0, note=52, velocity=100, time=8),
    Message('note_off', channel=0, note=52, velocity=100, time=184),
    Message('note_on', channel=0, note=59, velocity=100, time=8),
    Message('note_off', channel=0, note=59, velocity=100, time=184),
    Message('note_on', channel=0, note=64, velocity=100, time=8),
    Message('note_off', channel=0, note=64, velocity=100, time=184),
    Message('note_on', channel=0, note=50, velocity=100, time=8),
    Message('note_off', channel=0, note=50, velocity=100, time=184),
    Message('note_on', channel=0, note=52, velocity=100, time=8),
    Message('note_off', channel=0, note=52, velocity=100, time=184),
    Message('note_on', channel=0, note=59, velocity=100, time=8),
    Message('note_off', channel=0, note=59, velocity=100, time=184),
    Message('note_on', channel=0, note=47, velocity=100, time=8),
    Message('note_off', channel=0, note=47, velocity=100, time=184),
    Message('note_on', channel=0, note=54, velocity=100, time=8),
    Message('note_off', channel=0, note=54, velocity=100, time=184),
    Message('note_on', channel=0, note=50, velocity=100, time=8),
    Message('note_off', channel=0, note=50, velocity=100, time=184),
    Message('note_on', channel=0, note=57, velocity=100, time=8),
    Message('note_off', channel=0, note=57, velocity=100, time=184),
    Message('note_on', channel=0, note=62, velocity=100, time=8),
    Message('note_off', channel=0, note=62, velocity=100, time=184),
    Message('note_on', channel=0, note=50, velocity=100, time=8),
    Message('note_off', channel=0, note=50, velocity=100, time=184),
    Message('program_change', channel=0, program=27, time=8),
    Message('note_on', channel=0, note=52, velocity=100, time=0),
    Message('note_off', channel=0, note=52, velocity=100, time=184),
    Message('note_on', channel=0, note=59, velocity=100, time=8),
    Message('note_off', channel=0, note=59, velocity=100, time=184),
    Message('note_on', channel=0, note=64, velocity=100, time=8),
    Message('note_off', channel=0, note=64, velocity=100, time=184),
    Message('note_on', channel=0, note=53, velocity=100, time=8),
    Message('note_off', channel=0, note=53, velocity=100, time=184),
    Message('note_on', channel=0, note=52, velocity=100, time=8),
    Message('note_off', channel=0, note=52, velocity=100, time=184),
    Message('note_on', channel=0, note=59, velocity=100, time=8),
    Message('note_off', channel=0, note=59, velocity=100, time=184),
    Message('note_on', channel=0, note=64, velocity=100, time=8),
    Message('note_off', channel=0, note=64, velocity=100, time=184),
    Message('note_on', channel=0, note=50, velocity=100, time=8),
    Message('note_off', channel=0, note=50, velocity=100, time=184),
    Message('note_on', channel=0, note=52, velocity=100, time=8),
    Message('note_off', channel=0, note=52, velocity=100, time=184),
    Message('note_on', channel=0, note=59, velocity=100, time=8),
    Message('note_off', channel=0, note=59, velocity=100, time=184),
    Message('note_on', channel=0, note=47, velocity=100, time=8),
    Message('note_off', channel=0, note=47, velocity=100, time=184),
    Message('note_on', channel=0, note=54, velocity=100, time=8),
    Message('note_off', channel=0, note=54, velocity=100, time=184),
    Message('note_on', channel=0, note=50, velocity=100, time=8),
    Message('note_off', channel=0, note=50, velocity=100, time=184),
    Message('note_on', channel=0, note=57, velocity=100, time=8),
    Message('note_off', channel=0, note=57, velocity=100, time=184),
    Message('note_on', channel=0, note=62, velocity=100, time=8),
    Message('note_off', channel=0, note=62, velocity=100, time=184),
    Message('note_on', channel=0, note=50, velocity=100, time=8),
    Message('note_off', channel=0, note=50, velocity=100, time=184),
    Message('program_change', channel=0, program=27, time=8),
    Message('note_on', channel=0, note=52, velocity=100, time=0),
    Message('note_off', channel=0, note=52, velocity=100, time=184),
    Message('note_on', channel=0, note=59, velocity=100, time=8),
    Message('note_off', channel=0, note=59, velocity=100, time=184),
    Message('note_on', channel=0, note=64, velocity=100, time=8),
    Message('note_off', channel=0, note=64, velocity=100, time=184),
    Message('note_on', channel=0, note=53, velocity=100, time=8),
    Message('note_off', channel=0, note=53, velocity=100, time=184),
    Message('note_on', channel=0, note=52, velocity=100, time=8),
    Message('note_off', channel=0, note=52, velocity=100, time=184),
    Message('note_on', channel=0, note=59, velocity=100, time=8),
    Message('note_off', channel=0, note=59, velocity=100, time=184),
    Message('note_on', channel=0, note=64, velocity=100, time=8),
    Message('note_off', channel=0, note=64, velocity=100, time=184),
    Message('note_on', channel=0, note=50, velocity=100, time=8),
    Message('note_off', channel=0, note=50, velocity=100, time=184),
    Message('note_on', channel=0, note=52, velocity=100, time=8),
    Message('note_off', channel=0, note=52, velocity=100, time=184),
    Message('note_on', channel=0, note=59, velocity=100, time=8),
    Message('note_off', channel=0, note=59, velocity=100, time=184),
    Message('note_on', channel=0, note=47, velocity=100, time=8),
    Message('note_off', channel=0, note=47, velocity=100, time=184),
    Message('note_on', channel=0, note=54, velocity=100, time=8),
    Message('note_off', channel=0, note=54, velocity=100, time=184),
    Message('note_on', channel=0, note=50, velocity=100, time=8),
    Message('note_off', channel=0, note=50, velocity=100, time=184),
    Message('note_on', channel=0, note=57, velocity=100, time=8),
    Message('note_off', channel=0, note=57, velocity=100, time=184),
    Message('note_on', channel=0, note=62, velocity=100, time=8),
    Message('note_off', channel=0, note=62, velocity=100, time=184),
    Message('note_on', channel=0, note=50, velocity=100, time=8),
    Message('note_off', channel=0, note=50, velocity=100, time=184),
    Message('program_change', channel=0, program=27, time=8),
    Message('note_on', channel=0, note=52, velocity=100, time=0),
    Message('note_off', channel=0, note=52, velocity=100, time=184),
    Message('note_on', channel=0, note=59, velocity=100, time=8),
    Message('note_off', channel=0, note=59, velocity=100, time=184),
    Message('note_on', channel=0, note=64, velocity=100, time=8),
    Message('note_off', channel=0, note=64, velocity=100, time=184),
    Message('note_on', channel=0, note=53, velocity=100, time=8),
    Message('note_off', channel=0, note=53, velocity=100, time=184),
    Message('note_on', channel=0, note=52, velocity=100, time=8),
    Message('note_off', channel=0, note=52, velocity=100, time=184),
    Message('note_on', channel=0, note=59, velocity=100, time=8),
    Message('note_off', channel=0, note=59, velocity=100, time=184),
    Message('note_on', channel=0, note=64, velocity=100, time=8),
    Message('note_off', channel=0, note=64, velocity=100, time=184),
    Message('note_on', channel=0, note=50, velocity=100, time=8),
    Message('note_off', channel=0, note=50, velocity=100, time=184),
    Message('note_on', channel=0, note=52, velocity=100, time=8),
    Message('note_off', channel=0, note=52, velocity=100, time=184),
    Message('note_on', channel=0, note=59, velocity=100, time=8),
    Message('note_off', channel=0, note=59, velocity=100, time=184),
    Message('note_on', channel=0, note=47, velocity=100, time=8),
    Message('note_off', channel=0, note=47, velocity=100, time=184),
    Message('note_on', channel=0, note=54, velocity=100, time=8),
    Message('note_off', channel=0, note=54, velocity=100, time=184),
    Message('note_on', channel=0, note=50, velocity=100, time=8),
    Message('note_off', channel=0, note=50, velocity=100, time=184),
    Message('note_on', channel=0, note=57, velocity=100, time=8),
    Message('note_off', channel=0, note=57, velocity=100, time=184),
    Message('note_on', channel=0, note=62, velocity=100, time=8),
    Message('note_off', channel=0, note=62, velocity=100, time=184),
    Message('note_on', channel=0, note=50, velocity=100, time=8),
    Message('note_off', channel=0, note=50, velocity=100, time=184),
    Message('program_change', channel=0, program=30, time=8),
    Message('program_change', channel=0, program=30, time=0),
    Message('note_on', channel=0, note=52, velocity=100, time=0),
    Message('note_on', channel=0, note=59, velocity=100, time=0),
    Message('note_on', channel=0, note=64, velocity=100, time=0),
    Message('note_off', channel=0, note=52, velocity=100, time=376),
    Message('note_off', channel=0, note=59, velocity=100, time=0),
    Message('note_off', channel=0, note=64, velocity=100, time=0),
    Message('note_on', channel=0, note=40, velocity=100, time=8),
    Message('note_off', channel=0, note=40, velocity=100, time=184),
    Message('note_on', channel=0, note=40, velocity=100, time=8),
    Message('note_off', channel=0, note=40, velocity=100, time=184),
    Message('note_on', channel=0, note=40, velocity=100, time=8),
    Message('note_off', channel=0, note=40, velocity=100, time=184),
    Message('note_on', channel=0, note=40, velocity=100, time=8),
    Message('note_off', channel=0, note=40, velocity=100, time=184),
    Message('note_on', channel=0, note=53, velocity=100, time=8),
    Message('note_on', channel=0, note=60, velocity=100, time=0),
    Message('note_on', channel=0, note=65, velocity=100, time=0),
    Message('note_off', channel=0, note=53, velocity=100, time=376),
    Message('note_off', channel=0, note=60, velocity=100, time=0),
    Message('note_off', channel=0, note=65, velocity=100, time=0),
    Message('program_change', channel=0, program=30, time=8),
    Message('program_change', channel=0, program=30, time=0),
    Message('note_on', channel=0, note=52, velocity=100, time=0),
    Message('note_on', channel=0, note=59, velocity=100, time=0),
    Message('note_on', channel=0, note=64, velocity=100, time=0),
    Message('note_off', channel=0, note=52, velocity=100, time=376),
    Message('note_off', channel=0, note=59, velocity=100, time=0),
    Message('note_off', channel=0, note=64, velocity=100, time=0),
    Message('note_on', channel=0, note=40, velocity=100, time=8),
    Message('note_off', channel=0, note=40, velocity=100, time=184),
    Message('note_on', channel=0, note=40, velocity=100, time=8),
    Message('note_off', channel=0, note=40, velocity=100, time=184),
    Message('note_on', channel=0, note=40, velocity=100, time=8),
    Message('note_off', channel=0, note=40, velocity=100, time=184),
    Message('note_on', channel=0, note=40, velocity=100, time=8),
    Message('note_off', channel=0, note=40, velocity=100, time=184),
    Message('note_on', channel=0, note=62, velocity=100, time=8),
    Message('note_on', channel=0, note=57, velocity=100, time=0),
    Message('note_on', channel=0, note=50, velocity=100, time=0),
    Message('note_off', channel=0, note=62, velocity=100, time=376),
    Message('note_off', channel=0, note=57, velocity=100, time=0),
    Message('note_off', channel=0, note=50, velocity=100, time=0),
    Message('program_change', channel=0, program=30, time=8),
    Message('program_change', channel=0, program=30, time=0),
    Message('note_on', channel=0, note=52, velocity=100, time=0),
    Message('note_on', channel=0, note=59, velocity=100, time=0),
    Message('note_on', channel=0, note=64, velocity=100, time=0),
    Message('note_off', channel=0, note=52, velocity=100, time=376),
    Message('note_off', channel=0, note=59, velocity=100, time=0),
    Message('note_off', channel=0, note=64, velocity=100, time=0),
    Message('note_on', channel=0, note=40, velocity=100, time=8),
    Message('note_off', channel=0, note=40, velocity=100, time=184),
    Message('note_on', channel=0, note=40, velocity=100, time=8),
    Message('note_off', channel=0, note=40, velocity=100, time=184),
    Message('program_change', channel=0, program=30, time=8),
    Message('program_change', channel=0, program=30, time=0),
    Message('note_on', channel=0, note=47, velocity=100, time=0),
    Message('note_on', channel=0, note=54, velocity=100, time=0),
    Message('note_on', channel=0, note=59, velocity=100, time=0),
    Message('note_off', channel=0, note=47, velocity=100, time=376),
    Message('note_off', channel=0, note=54, velocity=100, time=0),
    Message('note_off', channel=0, note=59, velocity=100, time=0),
    Message('note_on', channel=0, note=40, velocity=100, time=8),
    Message('note_off', channel=0, note=40, velocity=100, time=184),
    Message('note_on', channel=0, note=40, velocity=100, time=8),
    Message('note_off', channel=0, note=40, velocity=100, time=184),
    Message('note_on', channel=0, note=62, velocity=100, time=8),
    Message('note_on', channel=0, note=57, velocity=100, time=0),
    Message('note_on', channel=0, note=50, velocity=100, time=0),
    Message('note_off', channel=0, note=62, velocity=100, time=1528),
    Message('note_off', channel=0, note=57, velocity=100, time=0),
    Message('note_off', channel=0, note=50, velocity=100, time=0),
    Message('program_change', channel=0, program=30, time=8),
    Message('program_change', channel=0, program=30, time=0),
    Message('note_on', channel=0, note=52, velocity=100, time=0),
    Message('note_on', channel=0, note=59, velocity=100, time=0),
    Message('note_on', channel=0, note=64, velocity=100, time=0),
    Message('note_off', channel=0, note=52, velocity=100, time=376),
    Message('note_off', channel=0, note=59, velocity=100, time=0),
    Message('note_off', channel=0, note=64, velocity=100, time=0),
    Message('note_on', channel=0, note=40, velocity=100, time=8),
    Message('note_off', channel=0, note=40, velocity=100, time=184),
    Message('note_on', channel=0, note=40, velocity=100, time=8),
    Message('note_off', channel=0, note=40, velocity=100, time=184),
    Message('note_on', channel=0, note=40, velocity=100, time=8),
    Message('note_off', channel=0, note=40, velocity=100, time=184),
    Message('note_on', channel=0, note=40, velocity=100, time=8),
    Message('note_off', channel=0, note=40, velocity=100, time=184),
    Message('note_on', channel=0, note=53, velocity=100, time=8),
    Message('note_on', channel=0, note=60, velocity=100, time=0),
    Message('note_on', channel=0, note=65, velocity=100, time=0),
    Message('note_off', channel=0, note=53, velocity=100, time=376),
    Message('note_off', channel=0, note=60, velocity=100, time=0),
    Message('note_off', channel=0, note=65, velocity=100, time=0),
    Message('program_change', channel=0, program=30, time=8),
    Message('program_change', channel=0, program=30, time=0),
    Message('note_on', channel=0, note=52, velocity=100, time=0),
    Message('note_on', channel=0, note=59, velocity=100, time=0),
    Message('note_on', channel=0, note=64, velocity=100, time=0),
    Message('note_off', channel=0, note=52, velocity=100, time=376),
    Message('note_off', channel=0, note=59, velocity=100, time=0),
    Message('note_off', channel=0, note=64, velocity=100, time=0),
    Message('note_on', channel=0, note=40, velocity=100, time=8),
    Message('note_off', channel=0, note=40, velocity=100, time=184),
    Message('note_on', channel=0, note=40, velocity=100, time=8),
    Message('note_off', channel=0, note=40, velocity=100, time=184),
    Message('note_on', channel=0, note=40, velocity=100, time=8),
    Message('note_off', channel=0, note=40, velocity=100, time=184),
    Message('note_on', channel=0, note=40, velocity=100, time=8),
    Message('note_off', channel=0, note=40, velocity=100, time=184),
    Message('note_on', channel=0, note=62, velocity=100, time=8),
    Message('note_on', channel=0, note=57, velocity=100, time=0),
    Message('note_on', channel=0, note=50, velocity=100, time=0),
    Message('note_off', channel=0, note=62, velocity=100, time=376),
    Message('note_off', channel=0, note=57, velocity=100, time=0),
    Message('note_off', channel=0, note=50, velocity=100, time=0),
    Message('program_change', channel=0, program=30, time=8),
    Message('program_change', channel=0, program=30, time=0),
    Message('note_on', channel=0, note=52, velocity=100, time=0),
    Message('note_on', channel=0, note=59, velocity=100, time=0),
    Message('note_on', channel=0, note=64, velocity=100, time=0),
    Message('note_off', channel=0, note=52, velocity=100, time=376),
    Message('note_off', channel=0, note=59, velocity=100, time=0),
    Message('note_off', channel=0, note=64, velocity=100, time=0),
    Message('note_on', channel=0, note=40, velocity=100, time=8),
    Message('note_off', channel=0, note=40, velocity=100, time=184),
    Message('note_on', channel=0, note=40, velocity=100, time=8),
    Message('note_off', channel=0, note=40, velocity=100, time=184),
    Message('program_change', channel=0, program=30, time=8),
    Message('program_change', channel=0, program=30, time=0),
    Message('note_on', channel=0, note=47, velocity=100, time=0),
    Message('note_on', channel=0, note=54, velocity=100, time=0),
    Message('note_on', channel=0, note=59, velocity=100, time=0),
    Message('note_off', channel=0, note=47, velocity=100, time=376),
    Message('note_off', channel=0, note=54, velocity=100, time=0),
    Message('note_off', channel=0, note=59, velocity=100, time=0),
    Message('note_on', channel=0, note=40, velocity=100, time=8),
    Message('note_off', channel=0, note=40, velocity=100, time=184),
    Message('note_on', channel=0, note=40, velocity=100, time=8),
    Message('note_off', channel=0, note=40, velocity=100, time=184),
    Message('note_on', channel=0, note=62, velocity=100, time=8),
    Message('note_off', channel=0, note=62, velocity=100, time=1528),
    Message('note_on', channel=0, note=42, velocity=100, time=8),
    Message('note_on', channel=0, note=49, velocity=100, time=0),
    Message('note_on', channel=0, note=54, velocity=100, time=0),
    Message('note_off', channel=0, note=42, velocity=100, time=376),
    Message('note_off', channel=0, note=49, velocity=100, time=0),
    Message('note_off', channel=0, note=54, velocity=100, time=0),
    Message('note_on', channel=0, note=40, velocity=100, time=8),
    Message('note_off', channel=0, note=40, velocity=100, time=184),
    Message('note_on', channel=0, note=40, velocity=100, time=8),
    Message('note_off', channel=0, note=40, velocity=100, time=184),
    Message('note_on', channel=0, note=42, velocity=100, time=8),
    Message('note_on', channel=0, note=49, velocity=100, time=0),
    Message('note_on', channel=0, note=54, velocity=100, time=0),
    Message('note_off', channel=0, note=42, velocity=100, time=376),
    Message('note_off', channel=0, note=49, velocity=100, time=0),
    Message('note_off', channel=0, note=54, velocity=100, time=0),
    Message('note_on', channel=0, note=40, velocity=100, time=8),
    Message('note_off', channel=0, note=40, velocity=100, time=184),
    Message('note_on', channel=0, note=40, velocity=100, time=8),
    Message('note_off', channel=0, note=40, velocity=100, time=184),
    Message('note_on', channel=0, note=49, velocity=100, time=8),
    Message('note_on', channel=0, note=54, velocity=100, time=0),
    Message('note_on', channel=0, note=42, velocity=100, time=0),
    Message('note_off', channel=0, note=49, velocity=100, time=376),
    Message('note_off', channel=0, note=54, velocity=100, time=0),
    Message('note_off', channel=0, note=42, velocity=100, time=0),
    Message('note_on', channel=0, note=40, velocity=100, time=8),
    Message('note_off', channel=0, note=40, velocity=100, time=184),
    Message('note_on', channel=0, note=40, velocity=100, time=8),
    Message('note_off', channel=0, note=40, velocity=100, time=184),
    Message('note_on', channel=0, note=40, velocity=100, time=8),
    Message('note_off', channel=0, note=40, velocity=100, time=184),
    Message('note_on', channel=0, note=42, velocity=100, time=8),
    Message('note_off', channel=0, note=42, velocity=100, time=184),
    Message('note_on', channel=0, note=55, velocity=100, time=8),
    Message('note_on', channel=0, note=50, velocity=100, time=0),
    Message('note_on', channel=0, note=43, velocity=100, time=0),
    Message('note_off', channel=0, note=55, velocity=100, time=376),
    Message('note_off', channel=0, note=50, velocity=100, time=0),
    Message('note_off', channel=0, note=43, velocity=100, time=0),
    Message('note_on', channel=0, note=42, velocity=100, time=8),
    Message('note_on', channel=0, note=49, velocity=100, time=0),
    Message('note_on', channel=0, note=54, velocity=100, time=0),
    Message('note_off', channel=0, note=42, velocity=100, time=376),
    Message('note_off', channel=0, note=49, velocity=100, time=0),
    Message('note_off', channel=0, note=54, velocity=100, time=0),
    Message('note_on', channel=0, note=40, velocity=100, time=8),
    Message('note_off', channel=0, note=40, velocity=100, time=184),
    Message('note_on', channel=0, note=40, velocity=100, time=8),
    Message('note_off', channel=0, note=40, velocity=100, time=184),
    Message('note_on', channel=0, note=42, velocity=100, time=8),
    Message('note_on', channel=0, note=49, velocity=100, time=0),
    Message('note_on', channel=0, note=54, velocity=100, time=0),
    Message('note_off', channel=0, note=42, velocity=100, time=376),
    Message('note_off', channel=0, note=49, velocity=100, time=0),
    Message('note_off', channel=0, note=54, velocity=100, time=0),
    Message('note_on', channel=0, note=40, velocity=100, time=8),
    Message('note_off', channel=0, note=40, velocity=100, time=184),
    Message('note_on', channel=0, note=40, velocity=100, time=8),
    Message('note_off', channel=0, note=40, velocity=100, time=184),
    Message('note_on', channel=0, note=43, velocity=100, time=8),
    Message('note_on', channel=0, note=50, velocity=100, time=0),
    Message('note_off', channel=0, note=43, velocity=100, time=184),
    Message('note_off', channel=0, note=50, velocity=100, time=0),
    Message('note_on', channel=0, note=49, velocity=100, time=8),
    Message('note_on', channel=0, note=42, velocity=100, time=0),
    Message('note_off', channel=0, note=49, velocity=100, time=184),
    Message('note_off', channel=0, note=42, velocity=100, time=0),
    Message('note_on', channel=0, note=40, velocity=100, time=8),
    Message('note_off', channel=0, note=40, velocity=100, time=376),
    Message('note_on', channel=0, note=48, velocity=100, time=8),
    Message('note_on', channel=0, note=55, velocity=100, time=0),
    Message('note_on', channel=0, note=60, velocity=100, time=0),
    Message('note_off', channel=0, note=48, velocity=100, time=760),
    Message('note_off', channel=0, note=55, velocity=100, time=0),
    Message('note_off', channel=0, note=60, velocity=100, time=0),
    Message('note_on', channel=0, note=54, velocity=100, time=8),
    Message('note_on', channel=0, note=42, velocity=100, time=0),
    Message('note_on', channel=0, note=49, velocity=100, time=0),
    Message('note_off', channel=0, note=54, velocity=100, time=376),
    Message('note_off', channel=0, note=42, velocity=100, time=0),
    Message('note_off', channel=0, note=49, velocity=100, time=0),
    Message('note_on', channel=0, note=40, velocity=100, time=8),
    Message('note_off', channel=0, note=40, velocity=100, time=184),
    Message('note_on', channel=0, note=40, velocity=100, time=8),
    Message('note_off', channel=0, note=40, velocity=100, time=184),
    Message('note_on', channel=0, note=42, velocity=100, time=8),
    Message('note_on', channel=0, note=49, velocity=100, time=0),
    Message('note_on', channel=0, note=54, velocity=100, time=0),
    Message('note_off', channel=0, note=42, velocity=100, time=376),
    Message('note_off', channel=0, note=49, velocity=100, time=0),
    Message('note_off', channel=0, note=54, velocity=100, time=0),
    Message('note_on', channel=0, note=40, velocity=100, time=8),
    Message('note_off', channel=0, note=40, velocity=100, time=184),
    Message('note_on', channel=0, note=40, velocity=100, time=8),
    Message('note_off', channel=0, note=40, velocity=100, time=184),
    Message('note_on', channel=0, note=54, velocity=100, time=8),
    Message('note_on', channel=0, note=42, velocity=100, time=0),
    Message('note_on', channel=0, note=49, velocity=100, time=0),
    Message('note_off', channel=0, note=54, velocity=100, time=376),
    Message('note_off', channel=0, note=42, velocity=100, time=0),
    Message('note_off', channel=0, note=49, velocity=100, time=0),
    Message('note_on', channel=0, note=40, velocity=100, time=8),
    Message('note_off', channel=0, note=40, velocity=100, time=184),
    Message('note_on', channel=0, note=40, velocity=100, time=8),
    Message('note_off', channel=0, note=40, velocity=100, time=184),
    Message('note_on', channel=0, note=40, velocity=100, time=8),
    Message('note_off', channel=0, note=40, velocity=100, time=184),
    Message('note_on', channel=0, note=42, velocity=100, time=8),
    Message('note_off', channel=0, note=42, velocity=100, time=184),
    Message('note_on', channel=0, note=55, velocity=100, time=8),
    Message('note_on', channel=0, note=50, velocity=100, time=0),
    Message('note_on', channel=0, note=43, velocity=100, time=0),
    Message('note_off', channel=0, note=55, velocity=100, time=376),
    Message('note_off', channel=0, note=50, velocity=100, time=0),
    Message('note_off', channel=0, note=43, velocity=100, time=0),
    Message('note_on', channel=0, note=54, velocity=100, time=8),
    Message('note_on', channel=0, note=42, velocity=100, time=0),
    Message('note_on', channel=0, note=49, velocity=100, time=0),
    Message('note_off', channel=0, note=54, velocity=100, time=376),
    Message('note_off', channel=0, note=42, velocity=100, time=0),
    Message('note_off', channel=0, note=49, velocity=100, time=0),
    Message('note_on', channel=0, note=40, velocity=100, time=8),
    Message('note_off', channel=0, note=40, velocity=100, time=184),
    Message('note_on', channel=0, note=40, velocity=100, time=8),
    Message('note_off', channel=0, note=40, velocity=100, time=184),
    Message('note_on', channel=0, note=42, velocity=100, time=8),
    Message('note_on', channel=0, note=49, velocity=100, time=0),
    Message('note_on', channel=0, note=54, velocity=100, time=0),
    Message('note_off', channel=0, note=42, velocity=100, time=376),
    Message('note_off', channel=0, note=49, velocity=100, time=0),
    Message('note_off', channel=0, note=54, velocity=100, time=0),
    Message('note_on', channel=0, note=40, velocity=100, time=8),
    Message('note_off', channel=0, note=40, velocity=100, time=184),
    Message('note_on', channel=0, note=40, velocity=100, time=8),
    Message('note_off', channel=0, note=40, velocity=100, time=184),
    Message('note_on', channel=0, note=42, velocity=100, time=8),
    Message('note_off', channel=0, note=42, velocity=100, time=184),
    Message('note_on', channel=0, note=42, velocity=100, time=8),
    Message('note_off', channel=0, note=42, velocity=100, time=184),
    Message('note_on', channel=0, note=42, velocity=100, time=8),
    Message('note_off', channel=0, note=42, velocity=100, time=184),
    Message('note_on', channel=0, note=42, velocity=100, time=8),
    Message('note_off', channel=0, note=42, velocity=100, time=184),
    Message('note_on', channel=0, note=49, velocity=100, time=8),
    Message('note_off', channel=0, note=49, velocity=100, time=184),
    Message('note_on', channel=0, note=47, velocity=100, time=8),
    Message('note_off', channel=0, note=47, velocity=100, time=184),
    Message('note_on', channel=0, note=45, velocity=100, time=8),
    Message('note_off', channel=0, note=45, velocity=100, time=376),
    Message('note_on', channel=0, note=47, velocity=100, time=8),
    Message('note_off', channel=0, note=47, velocity=100, time=184),
    Message('note_on', channel=0, note=47, velocity=100, time=8),
    Message('note_off', channel=0, note=47, velocity=100, time=184),
    Message('note_on', channel=0, note=54, velocity=100, time=8),
    Message('note_off', channel=0, note=54, velocity=100, time=184),
    Message('note_on', channel=0, note=47, velocity=100, time=8),
    Message('note_off', channel=0, note=47, velocity=100, time=184),
    Message('note_on', channel=0, note=47, velocity=100, time=8),
    Message('note_off', channel=0, note=47, velocity=100, time=184),
    Message('note_on', channel=0, note=55, velocity=100, time=8),
    Message('note_off', channel=0, note=55, velocity=100, time=184),
    Message('note_on', channel=0, note=47, velocity=100, time=8),
    Message('note_off', channel=0, note=47, velocity=100, time=184),
    Message('note_on', channel=0, note=47, velocity=100, time=8),
    Message('note_off', channel=0, note=47, velocity=100, time=184),
    Message('note_on', channel=0, note=54, velocity=100, time=8),
    Message('note_off', channel=0, note=54, velocity=100, time=184),
    Message('note_on', channel=0, note=47, velocity=100, time=8),
    Message('note_off', channel=0, note=47, velocity=100, time=184),
    Message('note_on', channel=0, note=47, velocity=100, time=8),
    Message('note_off', channel=0, note=47, velocity=100, time=184),
    Message('note_on', channel=0, note=52, velocity=100, time=8),
    Message('note_off', channel=0, note=52, velocity=100, time=184),
    Message('note_on', channel=0, note=47, velocity=100, time=8),
    Message('note_off', channel=0, note=47, velocity=100, time=184),
    Message('note_on', channel=0, note=47, velocity=100, time=8),
    Message('note_off', channel=0, note=47, velocity=100, time=184),
    Message('note_on', channel=0, note=54, velocity=100, time=8),
    Message('note_off', channel=0, note=54, velocity=100, time=184),
    Message('note_on', channel=0, note=47, velocity=100, time=8),
    Message('note_off', channel=0, note=47, velocity=100, time=184),
    Message('note_on', channel=0, note=45, velocity=100, time=8),
    Message('note_off', channel=0, note=45, velocity=100, time=184),
    Message('note_on', channel=0, note=45, velocity=100, time=8),
    Message('note_off', channel=0, note=45, velocity=100, time=184),
    Message('note_on', channel=0, note=52, velocity=100, time=8),
    Message('note_off', channel=0, note=52, velocity=100, time=184),
    Message('note_on', channel=0, note=45, velocity=100, time=8),
    Message('note_off', channel=0, note=45, velocity=100, time=184),
    Message('note_on', channel=0, note=45, velocity=100, time=8),
    Message('note_off', channel=0, note=45, velocity=100, time=184),
    Message('note_on', channel=0, note=49, velocity=100, time=8),
    Message('note_off', channel=0, note=49, velocity=100, time=184),
    Message('note_on', channel=0, note=42, velocity=100, time=8),
    Message('note_off', channel=0, note=42, velocity=100, time=184),
    Message('note_on', channel=0, note=42, velocity=100, time=8),
    Message('note_off', channel=0, note=42, velocity=100, time=184),
    Message('note_on', channel=0, note=42, velocity=100, time=8),
    Message('note_off', channel=0, note=42, velocity=100, time=184),
    Message('note_on', channel=0, note=42, velocity=100, time=8),
    Message('note_off', channel=0, note=42, velocity=100, time=184),
    Message('note_on', channel=0, note=49, velocity=100, time=8),
    Message('note_off', channel=0, note=49, velocity=100, time=184),
    Message('note_on', channel=0, note=42, velocity=100, time=8),
    Message('note_off', channel=0, note=42, velocity=100, time=184),
    Message('note_on', channel=0, note=50, velocity=100, time=8),
    Message('note_off', channel=0, note=50, velocity=100, time=184),
    Message('note_on', channel=0, note=42, velocity=100, time=8),
    Message('note_off', channel=0, note=42, velocity=100, time=184),
    Message('note_on', channel=0, note=49, velocity=100, time=8),
    Message('note_off', channel=0, note=49, velocity=100, time=184),
    Message('note_on', channel=0, note=42, velocity=100, time=8),
    Message('note_off', channel=0, note=42, velocity=100, time=184),
    Message('note_on', channel=0, note=47, velocity=100, time=8),
    Message('note_off', channel=0, note=47, velocity=100, time=184),
    Message('note_on', channel=0, note=47, velocity=100, time=8),
    Message('note_off', channel=0, note=47, velocity=100, time=184),
    Message('note_on', channel=0, note=54, velocity=100, time=8),
    Message('note_off', channel=0, note=54, velocity=100, time=184),
    Message('note_on', channel=0, note=47, velocity=100, time=8),
    Message('note_off', channel=0, note=47, velocity=100, time=184),
    Message('note_on', channel=0, note=47, velocity=100, time=8),
    Message('note_off', channel=0, note=47, velocity=100, time=184),
    Message('note_on', channel=0, note=55, velocity=100, time=8),
    Message('note_off', channel=0, note=55, velocity=100, time=184),
    Message('note_on', channel=0, note=47, velocity=100, time=8),
    Message('note_off', channel=0, note=47, velocity=100, time=184),
    Message('note_on', channel=0, note=47, velocity=100, time=8),
    Message('note_off', channel=0, note=47, velocity=100, time=184),
    Message('note_on', channel=0, note=54, velocity=100, time=8),
    Message('note_off', channel=0, note=54, velocity=100, time=184),
    Message('note_on', channel=0, note=47, velocity=100, time=8),
    Message('note_off', channel=0, note=47, velocity=100, time=184),
    Message('note_on', channel=0, note=47, velocity=100, time=8),
    Message('note_off', channel=0, note=47, velocity=100, time=184),
    Message('note_on', channel=0, note=52, velocity=100, time=8),
    Message('note_off', channel=0, note=52, velocity=100, time=184),
    Message('note_on', channel=0, note=47, velocity=100, time=8),
    Message('note_off', channel=0, note=47, velocity=100, time=184),
    Message('note_on', channel=0, note=47, velocity=100, time=8),
    Message('note_off', channel=0, note=47, velocity=100, time=184),
    Message('note_on', channel=0, note=54, velocity=100, time=8),
    Message('note_off', channel=0, note=54, velocity=100, time=184),
    Message('note_on', channel=0, note=47, velocity=100, time=8),
    Message('note_off', channel=0, note=47, velocity=100, time=184),
    Message('note_on', channel=0, note=45, velocity=100, time=8),
    Message('note_off', channel=0, note=45, velocity=100, time=184),
    Message('note_on', channel=0, note=45, velocity=100, time=8),
    Message('note_off', channel=0, note=45, velocity=100, time=184),
    Message('note_on', channel=0, note=52, velocity=100, time=8),
    Message('note_off', channel=0, note=52, velocity=100, time=184),
    Message('note_on', channel=0, note=52, velocity=100, time=8),
    Message('note_off', channel=0, note=52, velocity=100, time=184),
    Message('note_on', channel=0, note=52, velocity=100, time=8),
    Message('note_off', channel=0, note=52, velocity=100, time=184),
    Message('note_on', channel=0, note=49, velocity=100, time=8),
    Message('note_off', channel=0, note=49, velocity=100, time=568),
    Message('note_on', channel=0, note=42, velocity=100, time=8),
    Message('note_off', channel=0, note=42, velocity=100, time=184),
    Message('note_on', channel=0, note=42, velocity=100, time=8),
    Message('note_off', channel=0, note=42, velocity=100, time=184),
    Message('note_on', channel=0, note=49, velocity=100, time=8),
    Message('note_off', channel=0, note=49, velocity=100, time=184),
    Message('note_on', channel=0, note=42, velocity=100, time=8),
    Message('note_off', channel=0, note=42, velocity=100, time=184),
    Message('note_on', channel=0, note=50, velocity=100, time=8),
    Message('note_off', channel=0, note=50, velocity=100, time=184),
    Message('note_on', channel=0, note=49, velocity=100, time=8),
    Message('note_off', channel=0, note=49, velocity=100, time=568),
    Message('note_on', channel=0, note=47, velocity=100, time=8),
    Message('note_off', channel=0, note=47, velocity=100, time=184),
    Message('note_on', channel=0, note=47, velocity=100, time=8),
    Message('note_off', channel=0, note=47, velocity=100, time=184),
    Message('note_on', channel=0, note=54, velocity=100, time=8),
    Message('note_off', channel=0, note=54, velocity=100, time=184),
    Message('note_on', channel=0, note=47, velocity=100, time=8),
    Message('note_off', channel=0, note=47, velocity=100, time=184),
    Message('note_on', channel=0, note=47, velocity=100, time=8),
    Message('note_off', channel=0, note=47, velocity=100, time=184),
    Message('note_on', channel=0, note=55, velocity=100, time=8),
    Message('note_off', channel=0, note=55, velocity=100, time=184),
    Message('note_on', channel=0, note=47, velocity=100, time=8),
    Message('note_off', channel=0, note=47, velocity=100, time=184),
    Message('note_on', channel=0, note=47, velocity=100, time=8),
    Message('note_off', channel=0, note=47, velocity=100, time=184),
    Message('note_on', channel=0, note=54, velocity=100, time=8),
    Message('note_off', channel=0, note=54, velocity=100, time=184),
    Message('note_on', channel=0, note=47, velocity=100, time=8),
    Message('note_off', channel=0, note=47, velocity=100, time=184),
    Message('note_on', channel=0, note=47, velocity=100, time=8),
    Message('note_off', channel=0, note=47, velocity=100, time=184),
    Message('note_on', channel=0, note=52, velocity=100, time=8),
    Message('note_off', channel=0, note=52, velocity=100, time=184),
    Message('note_on', channel=0, note=47, velocity=100, time=8),
    Message('note_off', channel=0, note=47, velocity=100, time=184),
    Message('note_on', channel=0, note=47, velocity=100, time=8),
    Message('note_off', channel=0, note=47, velocity=100, time=184),
    Message('note_on', channel=0, note=54, velocity=100, time=8),
    Message('note_off', channel=0, note=54, velocity=100, time=184),
    Message('note_on', channel=0, note=47, velocity=100, time=8),
    Message('note_off', channel=0, note=47, velocity=100, time=184),
    Message('note_on', channel=0, note=45, velocity=100, time=8),
    Message('note_off', channel=0, note=45, velocity=100, time=184),
    Message('note_on', channel=0, note=45, velocity=100, time=8),
    Message('note_off', channel=0, note=45, velocity=100, time=184),
    Message('note_on', channel=0, note=52, velocity=100, time=8),
    Message('note_off', channel=0, note=52, velocity=100, time=184),
    Message('note_on', channel=0, note=45, velocity=100, time=8),
    Message('note_off', channel=0, note=45, velocity=100, time=184),
    Message('note_on', channel=0, note=45, velocity=100, time=8),
    Message('note_off', channel=0, note=45, velocity=100, time=184),
    Message('note_on', channel=0, note=49, velocity=100, time=8),
    Message('note_off', channel=0, note=49, velocity=100, time=184),
    Message('note_on', channel=0, note=42, velocity=100, time=8),
    Message('note_off', channel=0, note=42, velocity=100, time=184),
    Message('note_on', channel=0, note=42, velocity=100, time=8),
    Message('note_off', channel=0, note=42, velocity=100, time=184),
    Message('note_on', channel=0, note=42, velocity=100, time=8),
    Message('note_off', channel=0, note=42, velocity=100, time=184),
    Message('note_on', channel=0, note=42, velocity=100, time=8),
    Message('note_off', channel=0, note=42, velocity=100, time=184),
    Message('note_on', channel=0, note=49, velocity=100, time=8),
    Message('note_off', channel=0, note=49, velocity=100, time=184),
    Message('note_on', channel=0, note=42, velocity=100, time=8),
    Message('note_off', channel=0, note=42, velocity=100, time=184),
    Message('note_on', channel=0, note=50, velocity=100, time=8),
    Message('note_off', channel=0, note=50, velocity=100, time=184),
    Message('note_on', channel=0, note=42, velocity=100, time=8),
    Message('note_off', channel=0, note=42, velocity=100, time=184),
    Message('note_on', channel=0, note=49, velocity=100, time=8),
    Message('note_off', channel=0, note=49, velocity=100, time=184),
    Message('note_on', channel=0, note=42, velocity=100, time=8),
    Message('note_off', channel=0, note=42, velocity=100, time=184),
    Message('note_on', channel=0, note=47, velocity=100, time=8),
    Message('note_off', channel=0, note=47, velocity=100, time=184),
    Message('note_on', channel=0, note=47, velocity=100, time=8),
    Message('note_off', channel=0, note=47, velocity=100, time=184),
    Message('note_on', channel=0, note=54, velocity=100, time=8),
    Message('note_off', channel=0, note=54, velocity=100, time=184),
    Message('note_on', channel=0, note=47, velocity=100, time=8),
    Message('note_off', channel=0, note=47, velocity=100, time=184),
    Message('note_on', channel=0, note=47, velocity=100, time=8),
    Message('note_off', channel=0, note=47, velocity=100, time=184),
    Message('note_on', channel=0, note=55, velocity=100, time=8),
    Message('note_off', channel=0, note=55, velocity=100, time=184),
    Message('note_on', channel=0, note=47, velocity=100, time=8),
    Message('note_off', channel=0, note=47, velocity=100, time=184),
    Message('note_on', channel=0, note=47, velocity=100, time=8),
    Message('note_off', channel=0, note=47, velocity=100, time=184),
    Message('note_on', channel=0, note=54, velocity=100, time=8),
    Message('note_off', channel=0, note=54, velocity=100, time=184),
    Message('note_on', channel=0, note=47, velocity=100, time=8),
    Message('note_off', channel=0, note=47, velocity=100, time=184),
    Message('note_on', channel=0, note=47, velocity=100, time=8),
    Message('note_off', channel=0, note=47, velocity=100, time=184),
    Message('note_on', channel=0, note=52, velocity=100, time=8),
    Message('note_off', channel=0, note=52, velocity=100, time=184),
    Message('note_on', channel=0, note=47, velocity=100, time=8),
    Message('note_off', channel=0, note=47, velocity=100, time=184),
    Message('note_on', channel=0, note=47, velocity=100, time=8),
    Message('note_off', channel=0, note=47, velocity=100, time=184),
    Message('note_on', channel=0, note=54, velocity=100, time=8),
    Message('note_off', channel=0, note=54, velocity=100, time=184),
    Message('note_on', channel=0, note=47, velocity=100, time=8),
    Message('note_off', channel=0, note=47, velocity=100, time=184),
    Message('note_on', channel=0, note=45, velocity=100, time=8),
    Message('note_off', channel=0, note=45, velocity=100, time=184),
    Message('note_on', channel=0, note=45, velocity=100, time=8),
    Message('note_off', channel=0, note=45, velocity=100, time=184),
    Message('note_on', channel=0, note=52, velocity=100, time=8),
    Message('note_off', channel=0, note=52, velocity=100, time=184),
    Message('note_on', channel=0, note=52, velocity=100, time=8),
    Message('note_off', channel=0, note=52, velocity=100, time=184),
    Message('note_on', channel=0, note=52, velocity=100, time=8),
    Message('note_off', channel=0, note=52, velocity=100, time=184),
    Message('note_on', channel=0, note=49, velocity=100, time=8),
    Message('note_off', channel=0, note=49, velocity=100, time=568),
    Message('note_on', channel=0, note=42, velocity=100, time=8),
    Message('note_off', channel=0, note=42, velocity=100, time=184),
    Message('note_on', channel=0, note=42, velocity=100, time=8),
    Message('note_off', channel=0, note=42, velocity=100, time=184),
    Message('note_on', channel=0, note=49, velocity=100, time=8),
    Message('note_off', channel=0, note=49, velocity=100, time=184),
    Message('note_on', channel=0, note=42, velocity=100, time=8),
    Message('note_off', channel=0, note=42, velocity=100, time=184),
    Message('note_on', channel=0, note=50, velocity=100, time=8),
    Message('note_off', channel=0, note=50, velocity=100, time=184),
    Message('note_on', channel=0, note=49, velocity=100, time=8),
    Message('note_off', channel=0, note=49, velocity=100, time=568),
    Message('note_on', channel=0, note=64, velocity=100, time=8),
    Message('note_on', channel=0, note=59, velocity=100, time=0),
    Message('note_on', channel=0, note=52, velocity=100, time=0),
    Message('note_off', channel=0, note=64, velocity=100, time=376),
    Message('note_off', channel=0, note=59, velocity=100, time=0),
    Message('note_off', channel=0, note=52, velocity=100, time=0),
    Message('note_on', channel=0, note=40, velocity=100, time=8),
    Message('note_off', channel=0, note=40, velocity=100, time=184),
    Message('note_on', channel=0, note=40, velocity=100, time=8),
    Message('note_off', channel=0, note=40, velocity=100, time=184),
    Message('note_on', channel=0, note=53, velocity=100, time=8),
    Message('note_on', channel=0, note=60, velocity=100, time=0),
    Message('note_on', channel=0, note=65, velocity=100, time=0),
    Message('note_off', channel=0, note=53, velocity=100, time=760),
    Message('note_off', channel=0, note=60, velocity=100, time=0),
    Message('note_off', channel=0, note=65, velocity=100, time=0),
    Message('note_on', channel=0, note=64, velocity=100, time=8),
    Message('note_on', channel=0, note=59, velocity=100, time=0),
    Message('note_on', channel=0, note=52, velocity=100, time=0),
    Message('note_off', channel=0, note=64, velocity=100, time=376),
    Message('note_off', channel=0, note=59, velocity=100, time=0),
    Message('note_off', channel=0, note=52, velocity=100, time=0),
    Message('note_on', channel=0, note=40, velocity=100, time=8),
    Message('note_off', channel=0, note=40, velocity=100, time=184),
    Message('note_on', channel=0, note=40, velocity=100, time=8),
    Message('note_off', channel=0, note=40, velocity=100, time=184),
    Message('note_on', channel=0, note=62, velocity=100, time=8),
    Message('note_on', channel=0, note=57, velocity=100, time=0),
    Message('note_on', channel=0, note=50, velocity=100, time=0),
    Message('note_off', channel=0, note=62, velocity=100, time=760),
    Message('note_off', channel=0, note=57, velocity=100, time=0),
    Message('note_off', channel=0, note=50, velocity=100, time=0),
    Message('note_on', channel=0, note=64, velocity=100, time=8),
    Message('note_on', channel=0, note=59, velocity=100, time=0),
    Message('note_on', channel=0, note=52, velocity=100, time=0),
    Message('note_off', channel=0, note=64, velocity=100, time=376),
    Message('note_off', channel=0, note=59, velocity=100, time=0),
    Message('note_off', channel=0, note=52, velocity=100, time=0),
    Message('note_on', channel=0, note=40, velocity=100, time=8),
    Message('note_off', channel=0, note=40, velocity=100, time=184),
    Message('note_on', channel=0, note=40, velocity=100, time=8),
    Message('note_off', channel=0, note=40, velocity=100, time=184),
    Message('note_on', channel=0, note=59, velocity=100, time=8),
    Message('note_on', channel=0, note=54, velocity=100, time=0),
    Message('note_off', channel=0, note=59, velocity=100, time=760),
    Message('note_off', channel=0, note=54, velocity=100, time=0),
    Message('note_on', channel=0, note=50, velocity=100, time=8),
    Message('note_on', channel=0, note=57, velocity=100, time=0),
    Message('note_on', channel=0, note=62, velocity=100, time=0),
    Message('note_off', channel=0, note=50, velocity=100, time=1528),
    Message('note_off', channel=0, note=57, velocity=100, time=0),
    Message('note_off', channel=0, note=62, velocity=100, time=0),
    Message('note_on', channel=0, note=64, velocity=100, time=8),
    Message('note_on', channel=0, note=59, velocity=100, time=0),
    Message('note_on', channel=0, note=52, velocity=100, time=0),
    Message('note_off', channel=0, note=64, velocity=100, time=376),
    Message('note_off', channel=0, note=59, velocity=100, time=0),
    Message('note_off', channel=0, note=52, velocity=100, time=0),
    Message('note_on', channel=0, note=40, velocity=100, time=8),
    Message('note_off', channel=0, note=40, velocity=100, time=184),
    Message('note_on', channel=0, note=40, velocity=100, time=8),
    Message('note_off', channel=0, note=40, velocity=100, time=184),
    Message('note_on', channel=0, note=53, velocity=100, time=8),
    Message('note_on', channel=0, note=60, velocity=100, time=0),
    Message('note_on', channel=0, note=65, velocity=100, time=0),
    Message('note_off', channel=0, note=53, velocity=100, time=760),
    Message('note_off', channel=0, note=60, velocity=100, time=0),
    Message('note_off', channel=0, note=65, velocity=100, time=0),
    Message('note_on', channel=0, note=64, velocity=100, time=8),
    Message('note_on', channel=0, note=59, velocity=100, time=0),
    Message('note_on', channel=0, note=52, velocity=100, time=0),
    Message('note_off', channel=0, note=64, velocity=100, time=376),
    Message('note_off', channel=0, note=59, velocity=100, time=0),
    Message('note_off', channel=0, note=52, velocity=100, time=0),
    Message('note_on', channel=0, note=40, velocity=100, time=8),
    Message('note_off', channel=0, note=40, velocity=100, time=184),
    Message('note_on', channel=0, note=40, velocity=100, time=8),
    Message('note_off', channel=0, note=40, velocity=100, time=184),
    Message('note_on', channel=0, note=62, velocity=100, time=8),
    Message('note_on', channel=0, note=57, velocity=100, time=0),
    Message('note_on', channel=0, note=50, velocity=100, time=0),
    Message('note_off', channel=0, note=62, velocity=100, time=760),
    Message('note_off', channel=0, note=57, velocity=100, time=0),
    Message('note_off', channel=0, note=50, velocity=100, time=0),
    Message('note_on', channel=0, note=64, velocity=100, time=8),
    Message('note_on', channel=0, note=59, velocity=100, time=0),
    Message('note_on', channel=0, note=52, velocity=100, time=0),
    Message('note_off', channel=0, note=64, velocity=100, time=376),
    Message('note_off', channel=0, note=59, velocity=100, time=0),
    Message('note_off', channel=0, note=52, velocity=100, time=0),
    Message('note_on', channel=0, note=40, velocity=100, time=8),
    Message('note_off', channel=0, note=40, velocity=100, time=184),
    Message('note_on', channel=0, note=40, velocity=100, time=8),
    Message('note_off', channel=0, note=40, velocity=100, time=184),
    Message('note_on', channel=0, note=59, velocity=100, time=8),
    Message('note_on', channel=0, note=54, velocity=100, time=0),
    Message('note_off', channel=0, note=59, velocity=100, time=760),
    Message('note_off', channel=0, note=54, velocity=100, time=0),
    Message('note_on', channel=0, note=50, velocity=100, time=8),
    Message('note_on', channel=0, note=57, velocity=100, time=0),
    Message('note_on', channel=0, note=62, velocity=100, time=0),
    Message('note_off', channel=0, note=50, velocity=100, time=1528),
    Message('note_off', channel=0, note=57, velocity=100, time=0),
    Message('note_off', channel=0, note=62, velocity=100, time=0),
    Message('note_on', channel=0, note=64, velocity=100, time=8),
    Message('note_on', channel=0, note=59, velocity=100, time=0),
    Message('note_on', channel=0, note=52, velocity=100, time=0),
    Message('note_off', channel=0, note=64, velocity=100, time=376),
    Message('note_off', channel=0, note=59, velocity=100, time=0),
    Message('note_off', channel=0, note=52, velocity=100, time=0),
    Message('note_on', channel=0, note=40, velocity=100, time=8),
    Message('note_off', channel=0, note=40, velocity=100, time=184),
    Message('note_on', channel=0, note=40, velocity=100, time=8),
    Message('note_off', channel=0, note=40, velocity=100, time=184),
    Message('note_on', channel=0, note=53, velocity=100, time=8),
    Message('note_on', channel=0, note=60, velocity=100, time=0),
    Message('note_on', channel=0, note=65, velocity=100, time=0),
    Message('note_off', channel=0, note=53, velocity=100, time=760),
    Message('note_off', channel=0, note=60, velocity=100, time=0),
    Message('note_off', channel=0, note=65, velocity=100, time=0),
    Message('note_on', channel=0, note=64, velocity=100, time=8),
    Message('note_on', channel=0, note=59, velocity=100, time=0),
    Message('note_on', channel=0, note=52, velocity=100, time=0),
    Message('note_off', channel=0, note=64, velocity=100, time=376),
    Message('note_off', channel=0, note=59, velocity=100, time=0),
    Message('note_off', channel=0, note=52, velocity=100, time=0),
    Message('note_on', channel=0, note=40, velocity=100, time=8),
    Message('note_off', channel=0, note=40, velocity=100, time=184),
    Message('note_on', channel=0, note=40, velocity=100, time=8),
    Message('note_off', channel=0, note=40, velocity=100, time=184),
    Message('note_on', channel=0, note=62, velocity=100, time=8),
    Message('note_on', channel=0, note=57, velocity=100, time=0),
    Message('note_on', channel=0, note=50, velocity=100, time=0),
    Message('note_off', channel=0, note=62, velocity=100, time=760),
    Message('note_off', channel=0, note=57, velocity=100, time=0),
    Message('note_off', channel=0, note=50, velocity=100, time=0),
    Message('note_on', channel=0, note=64, velocity=100, time=8),
    Message('note_on', channel=0, note=59, velocity=100, time=0),
    Message('note_on', channel=0, note=52, velocity=100, time=0),
    Message('note_off', channel=0, note=64, velocity=100, time=376),
    Message('note_off', channel=0, note=59, velocity=100, time=0),
    Message('note_off', channel=0, note=52, velocity=100, time=0),
    Message('note_on', channel=0, note=40, velocity=100, time=8),
    Message('note_off', channel=0, note=40, velocity=100, time=184),
    Message('note_on', channel=0, note=40, velocity=100, time=8),
    Message('note_off', channel=0, note=40, velocity=100, time=184),
    Message('note_on', channel=0, note=59, velocity=100, time=8),
    Message('note_on', channel=0, note=54, velocity=100, time=0),
    Message('note_off', channel=0, note=59, velocity=100, time=760),
    Message('note_off', channel=0, note=54, velocity=100, time=0),
    Message('note_on', channel=0, note=50, velocity=100, time=8),
    Message('note_on', channel=0, note=57, velocity=100, time=0),
    Message('note_on', channel=0, note=62, velocity=100, time=0),
    Message('note_off', channel=0, note=50, velocity=100, time=1528),
    Message('note_off', channel=0, note=57, velocity=100, time=0),
    Message('note_off', channel=0, note=62, velocity=100, time=0),
    Message('note_on', channel=0, note=64, velocity=100, time=8),
    Message('note_on', channel=0, note=59, velocity=100, time=0),
    Message('note_on', channel=0, note=52, velocity=100, time=0),
    Message('note_off', channel=0, note=64, velocity=100, time=376),
    Message('note_off', channel=0, note=59, velocity=100, time=0),
    Message('note_off', channel=0, note=52, velocity=100, time=0),
    Message('note_on', channel=0, note=40, velocity=100, time=8),
    Message('note_off', channel=0, note=40, velocity=100, time=184),
    Message('note_on', channel=0, note=40, velocity=100, time=8),
    Message('note_off', channel=0, note=40, velocity=100, time=184),
    Message('note_on', channel=0, note=53, velocity=100, time=8),
    Message('note_on', channel=0, note=60, velocity=100, time=0),
    Message('note_on', channel=0, note=65, velocity=100, time=0),
    Message('note_off', channel=0, note=53, velocity=100, time=760),
    Message('note_off', channel=0, note=60, velocity=100, time=0),
    Message('note_off', channel=0, note=65, velocity=100, time=0),
    Message('note_on', channel=0, note=64, velocity=100, time=8),
    Message('note_on', channel=0, note=59, velocity=100, time=0),
    Message('note_on', channel=0, note=52, velocity=100, time=0),
    Message('note_off', channel=0, note=64, velocity=100, time=376),
    Message('note_off', channel=0, note=59, velocity=100, time=0),
    Message('note_off', channel=0, note=52, velocity=100, time=0),
    Message('note_on', channel=0, note=40, velocity=100, time=8),
    Message('note_off', channel=0, note=40, velocity=100, time=184),
    Message('note_on', channel=0, note=40, velocity=100, time=8),
    Message('note_off', channel=0, note=40, velocity=100, time=184),
    Message('note_on', channel=0, note=62, velocity=100, time=8),
    Message('note_on', channel=0, note=57, velocity=100, time=0),
    Message('note_on', channel=0, note=50, velocity=100, time=0),
    Message('note_off', channel=0, note=62, velocity=100, time=760),
    Message('note_off', channel=0, note=57, velocity=100, time=0),
    Message('note_off', channel=0, note=50, velocity=100, time=0),
    Message('note_on', channel=0, note=64, velocity=100, time=8),
    Message('note_on', channel=0, note=59, velocity=100, time=0),
    Message('note_on', channel=0, note=52, velocity=100, time=0),
    Message('note_off', channel=0, note=64, velocity=100, time=376),
    Message('note_off', channel=0, note=59, velocity=100, time=0),
    Message('note_off', channel=0, note=52, velocity=100, time=0),
    Message('note_on', channel=0, note=40, velocity=100, time=8),
    Message('note_off', channel=0, note=40, velocity=100, time=184),
    Message('note_on', channel=0, note=40, velocity=100, time=8),
    Message('note_off', channel=0, note=40, velocity=100, time=184),
    Message('note_on', channel=0, note=59, velocity=100, time=8),
    Message('note_on', channel=0, note=54, velocity=100, time=0),
    Message('note_off', channel=0, note=59, velocity=100, time=760),
    Message('note_off', channel=0, note=54, velocity=100, time=0),
    Message('note_on', channel=0, note=50, velocity=100, time=8),
    Message('note_on', channel=0, note=57, velocity=100, time=0),
    Message('note_on', channel=0, note=62, velocity=100, time=0),
    Message('note_off', channel=0, note=50, velocity=100, time=1528),
    Message('note_off', channel=0, note=57, velocity=100, time=0),
    Message('note_off', channel=0, note=62, velocity=100, time=0),
    Message('note_on', channel=0, note=64, velocity=100, time=8),
    Message('note_on', channel=0, note=59, velocity=100, time=0),
    Message('note_on', channel=0, note=52, velocity=100, time=0),
    Message('note_off', channel=0, note=64, velocity=100, time=376),
    Message('note_off', channel=0, note=59, velocity=100, time=0),
    Message('note_off', channel=0, note=52, velocity=100, time=0),
    Message('note_on', channel=0, note=40, velocity=99, time=8),
    Message('note_off', channel=0, note=40, velocity=100, time=184),
    Message('note_on', channel=0, note=40, velocity=98, time=8),
    Message('note_off', channel=0, note=40, velocity=100, time=184),
    Message('note_on', channel=0, note=53, velocity=98, time=8),
    Message('note_on', channel=0, note=60, velocity=98, time=0),
    Message('note_on', channel=0, note=65, velocity=98, time=0),
    Message('note_off', channel=0, note=53, velocity=100, time=760),
    Message('note_off', channel=0, note=60, velocity=100, time=0),
    Message('note_off', channel=0, note=65, velocity=100, time=0),
    Message('note_on', channel=0, note=64, velocity=95, time=8),
    Message('note_on', channel=0, note=59, velocity=95, time=0),
    Message('note_on', channel=0, note=52, velocity=95, time=0),
    Message('note_off', channel=0, note=64, velocity=100, time=376),
    Message('note_off', channel=0, note=59, velocity=100, time=0),
    Message('note_off', channel=0, note=52, velocity=100, time=0),
    Message('note_on', channel=0, note=40, velocity=94, time=8),
    Message('note_off', channel=0, note=40, velocity=100, time=184),
    Message('note_on', channel=0, note=40, velocity=93, time=8),
    Message('note_off', channel=0, note=40, velocity=100, time=184),
    Message('note_on', channel=0, note=62, velocity=92, time=8),
    Message('note_on', channel=0, note=57, velocity=92, time=0),
    Message('note_on', channel=0, note=50, velocity=92, time=0),
    Message('note_off', channel=0, note=62, velocity=100, time=760),
    Message('note_off', channel=0, note=57, velocity=100, time=0),
    Message('note_off', channel=0, note=50, velocity=100, time=0),
    Message('note_on', channel=0, note=64, velocity=89, time=8),
    Message('note_on', channel=0, note=59, velocity=89, time=0),
    Message('note_on', channel=0, note=52, velocity=89, time=0),
    Message('note_off', channel=0, note=64, velocity=100, time=376),
    Message('note_off', channel=0, note=59, velocity=100, time=0),
    Message('note_off', channel=0, note=52, velocity=100, time=0),
    Message('note_on', channel=0, note=40, velocity=88, time=8),
    Message('note_off', channel=0, note=40, velocity=100, time=184),
    Message('note_on', channel=0, note=40, velocity=87, time=8),
    Message('note_off', channel=0, note=40, velocity=100, time=184),
    Message('note_on', channel=0, note=59, velocity=87, time=8),
    Message('note_on', channel=0, note=54, velocity=87, time=0),
    Message('note_off', channel=0, note=59, velocity=100, time=760),
    Message('note_off', channel=0, note=54, velocity=100, time=0),
    Message('note_on', channel=0, note=50, velocity=84, time=8),
    Message('note_on', channel=0, note=57, velocity=84, time=0),
    Message('note_on', channel=0, note=62, velocity=84, time=0),
    Message('note_off', channel=0, note=50, velocity=100, time=1528),
    Message('note_off', channel=0, note=57, velocity=100, time=0),
    Message('note_off', channel=0, note=62, velocity=100, time=0),
    Message('note_on', channel=0, note=64, velocity=78, time=8),
    Message('note_on', channel=0, note=59, velocity=78, time=0),
    Message('note_on', channel=0, note=52, velocity=78, time=0),
    Message('note_off', channel=0, note=64, velocity=100, time=376),
    Message('note_off', channel=0, note=59, velocity=100, time=0),
    Message('note_off', channel=0, note=52, velocity=100, time=0),
    Message('note_on', channel=0, note=40, velocity=77, time=8),
    Message('note_off', channel=0, note=40, velocity=100, time=184),
    Message('note_on', channel=0, note=40, velocity=76, time=8),
    Message('note_off', channel=0, note=40, velocity=100, time=184),
    Message('note_on', channel=0, note=53, velocity=75, time=8),
    Message('note_on', channel=0, note=60, velocity=75, time=0),
    Message('note_on', channel=0, note=65, velocity=75, time=0),
    Message('note_off', channel=0, note=53, velocity=100, time=760),
    Message('note_off', channel=0, note=60, velocity=100, time=0),
    Message('note_off', channel=0, note=65, velocity=100, time=0),
    Message('note_on', channel=0, note=64, velocity=73, time=8),
    Message('note_on', channel=0, note=59, velocity=73, time=0),
    Message('note_on', channel=0, note=52, velocity=73, time=0),
    Message('note_off', channel=0, note=64, velocity=100, time=376),
    Message('note_off', channel=0, note=59, velocity=100, time=0),
    Message('note_off', channel=0, note=52, velocity=100, time=0),
    Message('note_on', channel=0, note=40, velocity=71, time=8),
    Message('note_off', channel=0, note=40, velocity=100, time=184),
    Message('note_on', channel=0, note=40, velocity=70, time=8),
    Message('note_off', channel=0, note=40, velocity=100, time=184),
    Message('note_on', channel=0, note=62, velocity=70, time=8),
    Message('note_on', channel=0, note=57, velocity=70, time=0),
    Message('note_on', channel=0, note=50, velocity=70, time=0),
    Message('note_off', channel=0, note=62, velocity=100, time=760),
    Message('note_off', channel=0, note=57, velocity=100, time=0),
    Message('note_off', channel=0, note=50, velocity=100, time=0),
    Message('note_on', channel=0, note=64, velocity=67, time=8),
    Message('note_on', channel=0, note=59, velocity=67, time=0),
    Message('note_on', channel=0, note=52, velocity=67, time=0),
    Message('note_off', channel=0, note=64, velocity=100, time=376),
    Message('note_off', channel=0, note=59, velocity=100, time=0),
    Message('note_off', channel=0, note=52, velocity=100, time=0),
    Message('note_on', channel=0, note=40, velocity=66, time=8),
    Message('note_off', channel=0, note=40, velocity=100, time=184),
    Message('note_on', channel=0, note=40, velocity=65, time=8),
    Message('note_off', channel=0, note=40, velocity=100, time=184),
    Message('note_on', channel=0, note=59, velocity=64, time=8),
    Message('note_on', channel=0, note=54, velocity=64, time=0),
    Message('note_off', channel=0, note=59, velocity=100, time=760),
    Message('note_off', channel=0, note=54, velocity=100, time=0),
    Message('note_on', channel=0, note=50, velocity=61, time=8),
    Message('note_on', channel=0, note=57, velocity=61, time=0),
    Message('note_on', channel=0, note=62, velocity=61, time=0),
    Message('note_off', channel=0, note=50, velocity=100, time=1528),
    Message('note_off', channel=0, note=57, velocity=100, time=0),
    Message('note_off', channel=0, note=62, velocity=100, time=0),
    Message('note_on', channel=0, note=64, velocity=56, time=8),
    Message('note_on', channel=0, note=59, velocity=56, time=0),
    Message('note_on', channel=0, note=52, velocity=56, time=0),
    Message('note_off', channel=0, note=64, velocity=100, time=376),
    Message('note_off', channel=0, note=59, velocity=100, time=0),
    Message('note_off', channel=0, note=52, velocity=100, time=0),
    Message('note_on', channel=0, note=40, velocity=54, time=8),
    Message('note_off', channel=0, note=40, velocity=100, time=184),
    Message('note_on', channel=0, note=40, velocity=54, time=8),
    Message('note_off', channel=0, note=40, velocity=100, time=184),
    Message('note_on', channel=0, note=53, velocity=53, time=8),
    Message('note_on', channel=0, note=60, velocity=53, time=0),
    Message('note_on', channel=0, note=65, velocity=53, time=0),
    Message('note_off', channel=0, note=53, velocity=100, time=760),
    Message('note_off', channel=0, note=60, velocity=100, time=0),
    Message('note_off', channel=0, note=65, velocity=100, time=0),
    Message('note_on', channel=0, note=64, velocity=50, time=8),
    Message('note_on', channel=0, note=59, velocity=50, time=0),
    Message('note_on', channel=0, note=52, velocity=50, time=0),
    Message('note_off', channel=0, note=64, velocity=100, time=376),
    Message('note_off', channel=0, note=59, velocity=100, time=0),
    Message('note_off', channel=0, note=52, velocity=100, time=0),
    Message('note_on', channel=0, note=40, velocity=49, time=8),
    Message('note_off', channel=0, note=40, velocity=100, time=184),
    Message('note_on', channel=0, note=40, velocity=48, time=8),
    Message('note_off', channel=0, note=40, velocity=100, time=184),
    Message('note_on', channel=0, note=62, velocity=47, time=8),
    Message('note_on', channel=0, note=57, velocity=47, time=0),
    Message('note_on', channel=0, note=50, velocity=47, time=0),
    Message('note_off', channel=0, note=62, velocity=100, time=760),
    Message('note_off', channel=0, note=57, velocity=100, time=0),
    Message('note_off', channel=0, note=50, velocity=100, time=0),
    Message('note_on', channel=0, note=64, velocity=45, time=8),
    Message('note_on', channel=0, note=59, velocity=45, time=0),
    Message('note_on', channel=0, note=52, velocity=45, time=0),
    Message('note_off', channel=0, note=64, velocity=100, time=376),
    Message('note_off', channel=0, note=59, velocity=100, time=0),
    Message('note_off', channel=0, note=52, velocity=100, time=0),
    Message('note_on', channel=0, note=40, velocity=43, time=8),
    Message('note_off', channel=0, note=40, velocity=100, time=184),
    Message('note_on', channel=0, note=40, velocity=42, time=8),
    Message('note_off', channel=0, note=40, velocity=100, time=184),
    Message('note_on', channel=0, note=59, velocity=42, time=8),
    Message('note_on', channel=0, note=54, velocity=42, time=0),
    Message('note_off', channel=0, note=59, velocity=100, time=760),
    Message('note_off', channel=0, note=54, velocity=100, time=0),
    Message('note_on', channel=0, note=50, velocity=39, time=8),
    Message('note_on', channel=0, note=57, velocity=39, time=0),
    Message('note_on', channel=0, note=62, velocity=39, time=0),
    Message('note_off', channel=0, note=50, velocity=100, time=1528),
    Message('note_off', channel=0, note=57, velocity=100, time=0),
    Message('note_off', channel=0, note=62, velocity=100, time=0),
    Message('note_on', channel=0, note=64, velocity=33, time=8),
    Message('note_on', channel=0, note=59, velocity=33, time=0),
    Message('note_on', channel=0, note=52, velocity=33, time=0),
    Message('note_off', channel=0, note=64, velocity=100, time=376),
    Message('note_off', channel=0, note=59, velocity=100, time=0),
    Message('note_off', channel=0, note=52, velocity=100, time=0),
    Message('note_on', channel=0, note=40, velocity=32, time=8),
    Message('note_off', channel=0, note=40, velocity=100, time=184),
    Message('note_on', channel=0, note=40, velocity=31, time=8),
    Message('note_off', channel=0, note=40, velocity=100, time=184),
    Message('note_on', channel=0, note=53, velocity=31, time=8),
    Message('note_on', channel=0, note=60, velocity=31, time=0),
    Message('note_on', channel=0, note=65, velocity=31, time=0),
    Message('note_off', channel=0, note=53, velocity=100, time=760),
    Message('note_off', channel=0, note=60, velocity=100, time=0),
    Message('note_off', channel=0, note=65, velocity=100, time=0),
    Message('note_on', channel=0, note=64, velocity=28, time=8),
    Message('note_on', channel=0, note=59, velocity=28, time=0),
    Message('note_on', channel=0, note=52, velocity=28, time=0),
    Message('note_off', channel=0, note=64, velocity=100, time=376),
    Message('note_off', channel=0, note=59, velocity=100, time=0),
    Message('note_off', channel=0, note=52, velocity=100, time=0),
    Message('note_on', channel=0, note=40, velocity=26, time=8),
    Message('note_off', channel=0, note=40, velocity=100, time=184),
    Message('note_on', channel=0, note=40, velocity=26, time=8),
    Message('note_off', channel=0, note=40, velocity=100, time=184),
    Message('note_on', channel=0, note=62, velocity=25, time=8),
    Message('note_on', channel=0, note=57, velocity=25, time=0),
    Message('note_on', channel=0, note=50, velocity=25, time=0),
    Message('note_off', channel=0, note=62, velocity=100, time=760),
    Message('note_off', channel=0, note=57, velocity=100, time=0),
    Message('note_off', channel=0, note=50, velocity=100, time=0),
    Message('note_on', channel=0, note=64, velocity=22, time=8),
    Message('note_on', channel=0, note=59, velocity=22, time=0),
    Message('note_on', channel=0, note=52, velocity=22, time=0),
    Message('note_off', channel=0, note=64, velocity=100, time=376),
    Message('note_off', channel=0, note=59, velocity=100, time=0),
    Message('note_off', channel=0, note=52, velocity=100, time=0),
    Message('note_on', channel=0, note=40, velocity=21, time=8),
    Message('note_off', channel=0, note=40, velocity=100, time=184),
    Message('note_on', channel=0, note=40, velocity=20, time=8),
    Message('note_off', channel=0, note=40, velocity=100, time=184),
    Message('note_on', channel=0, note=59, velocity=19, time=8),
    Message('note_on', channel=0, note=54, velocity=19, time=0),
    Message('note_off', channel=0, note=59, velocity=100, time=760),
    Message('note_off', channel=0, note=54, velocity=100, time=0),
    Message('note_on', channel=0, note=50, velocity=17, time=8),
    Message('note_on', channel=0, note=57, velocity=17, time=0),
    Message('note_on', channel=0, note=62, velocity=17, time=0),
    Message('note_off', channel=0, note=50, velocity=100, time=1528),
    Message('note_off', channel=0, note=57, velocity=100, time=0),
    Message('note_off', channel=0, note=62, velocity=100, time=0),
    Message('note_on', channel=0, note=64, velocity=11, time=8),
    Message('note_on', channel=0, note=59, velocity=11, time=0),
    Message('note_on', channel=0, note=52, velocity=11, time=0),
    Message('note_off', channel=0, note=64, velocity=100, time=376),
    Message('note_off', channel=0, note=59, velocity=100, time=0),
    Message('note_off', channel=0, note=52, velocity=100, time=0),
    Message('note_on', channel=0, note=40, velocity=10, time=8),
    Message('note_off', channel=0, note=40, velocity=100, time=184),
    Message('note_on', channel=0, note=40, velocity=9, time=8),
    Message('note_off', channel=0, note=40, velocity=100, time=184),
    Message('note_on', channel=0, note=53, velocity=8, time=8),
    Message('note_on', channel=0, note=60, velocity=8, time=0),
    Message('note_on', channel=0, note=65, velocity=8, time=0),
    Message('note_off', channel=0, note=53, velocity=100, time=760),
    Message('note_off', channel=0, note=60, velocity=100, time=0),
    Message('note_off', channel=0, note=65, velocity=100, time=0),
    Message('note_on', channel=0, note=64, velocity=5, time=8),
    Message('note_on', channel=0, note=59, velocity=5, time=0),
    Message('note_on', channel=0, note=52, velocity=5, time=0),
    Message('note_off', channel=0, note=64, velocity=100, time=376),
    Message('note_off', channel=0, note=59, velocity=100, time=0),
    Message('note_off', channel=0, note=52, velocity=100, time=0),
    Message('note_on', channel=0, note=40, velocity=4, time=8),
    Message('note_off', channel=0, note=40, velocity=100, time=184),
    Message('note_on', channel=0, note=40, velocity=3, time=8),
    Message('note_off', channel=0, note=40, velocity=100, time=184),
    Message('note_on', channel=0, note=62, velocity=3, time=8),
    Message('note_on', channel=0, note=57, velocity=3, time=0),
    Message('note_on', channel=0, note=50, velocity=3, time=0),
    Message('note_off', channel=0, note=62, velocity=100, time=760),
    Message('note_off', channel=0, note=57, velocity=100, time=0),
    Message('note_off', channel=0, note=50, velocity=100, time=0),
    Message('note_on', channel=0, note=64, velocity=1, time=8),
    Message('note_on', channel=0, note=59, velocity=1, time=0),
    Message('note_on', channel=0, note=52, velocity=1, time=0),
    Message('note_off', channel=0, note=64, velocity=100, time=376),
    Message('note_off', channel=0, note=59, velocity=100, time=0),
    Message('note_off', channel=0, note=52, velocity=100, time=0),
    Message('note_on', channel=0, note=40, velocity=1, time=8),
    Message('note_off', channel=0, note=40, velocity=100, time=184),
    Message('note_on', channel=0, note=40, velocity=1, time=8),
    Message('note_off', channel=0, note=40, velocity=100, time=184),
    Message('note_on', channel=0, note=59, velocity=1, time=8),
    Message('note_on', channel=0, note=54, velocity=1, time=0),
    Message('note_off', channel=0, note=59, velocity=100, time=760),
    Message('note_off', channel=0, note=54, velocity=100, time=0),
    Message('note_on', channel=0, note=50, velocity=1, time=8),
    Message('note_on', channel=0, note=57, velocity=1, time=0),
    Message('note_on', channel=0, note=62, velocity=1, time=0),
    Message('note_off', channel=0, note=50, velocity=100, time=1528),
    Message('note_off', channel=0, note=57, velocity=100, time=0),
    Message('note_off', channel=0, note=62, velocity=100, time=0),
    Message('note_on', channel=0, note=52, velocity=1, time=8),
    Message('note_on', channel=0, note=47, velocity=1, time=0),
    Message('note_on', channel=0, note=40, velocity=1, time=0),
    Message('note_off', channel=0, note=40, velocity=100, time=12288),
    Message('note_off', channel=0, note=47, velocity=100, time=0),
    Message('note_off', channel=0, note=52, velocity=100, time=0),
    MetaMessage('end_of_track', time=0)]),
  MidiTrack([
    MetaMessage('track_name', name='sequenced by', time=0),
    Message('control_change', channel=1, control=0, value=0, time=0),
    Message('program_change', channel=1, program=30, time=0),
    Message('control_change', channel=1, control=7, value=90, time=0),
    Message('control_change', channel=1, control=10, value=67, time=0),
    Message('control_change', channel=1, control=91, value=127, time=0),
    Message('control_change', channel=1, control=93, value=127, time=0),
    MetaMessage('key_signature', key='D', time=0),
    Message('control_change', channel=1, control=7, value=0, time=5376),
    Message('note_on', channel=1, note=50, velocity=100, time=0),
    Message('note_on', channel=1, note=57, velocity=100, time=0),
    Message('note_on', channel=1, note=62, velocity=100, time=0),
    Message('control_change', channel=1, control=7, value=1, time=8),
    Message('control_change', channel=1, control=7, value=2, time=8),
    Message('control_change', channel=1, control=7, value=3, time=8),
    Message('control_change', channel=1, control=7, value=4, time=8),
    Message('control_change', channel=1, control=7, value=5, time=8),
    Message('control_change', channel=1, control=7, value=6, time=8),
    Message('control_change', channel=1, control=7, value=7, time=8),
    Message('control_change', channel=1, control=7, value=8, time=8),
    Message('control_change', channel=1, control=7, value=9, time=8),
    Message('control_change', channel=1, control=7, value=10, time=8),
    Message('control_change', channel=1, control=7, value=11, time=8),
    Message('control_change', channel=1, control=7, value=12, time=8),
    Message('control_change', channel=1, control=7, value=13, time=8),
    Message('control_change', channel=1, control=7, value=14, time=8),
    Message('control_change', channel=1, control=7, value=15, time=8),
    Message('control_change', channel=1, control=7, value=16, time=8),
    Message('control_change', channel=1, control=7, value=17, time=8),
    Message('control_change', channel=1, control=7, value=18, time=8),
    Message('control_change', channel=1, control=7, value=19, time=8),
    Message('control_change', channel=1, control=7, value=20, time=8),
    Message('control_change', channel=1, control=7, value=21, time=8),
    Message('control_change', channel=1, control=7, value=22, time=8),
    Message('control_change', channel=1, control=7, value=23, time=8),
    Message('control_change', channel=1, control=7, value=24, time=8),
    Message('control_change', channel=1, control=7, value=25, time=8),
    Message('control_change', channel=1, control=7, value=26, time=8),
    Message('control_change', channel=1, control=7, value=27, time=8),
    Message('control_change', channel=1, control=7, value=28, time=8),
    Message('control_change', channel=1, control=7, value=29, time=8),
    Message('control_change', channel=1, control=7, value=30, time=8),
    Message('control_change', channel=1, control=7, value=31, time=8),
    Message('control_change', channel=1, control=7, value=32, time=8),
    Message('control_change', channel=1, control=7, value=36, time=32),
    Message('control_change', channel=1, control=7, value=40, time=32),
    Message('control_change', channel=1, control=7, value=44, time=32),
    Message('control_change', channel=1, control=7, value=48, time=32),
    Message('control_change', channel=1, control=7, value=52, time=16),
    Message('control_change', channel=1, control=7, value=56, time=16),
    Message('control_change', channel=1, control=7, value=60, time=32),
    Message('control_change', channel=1, control=7, value=64, time=32),
    Message('control_change', channel=1, control=7, value=68, time=32),
    Message('control_change', channel=1, control=7, value=72, time=32),
    Message('control_change', channel=1, control=7, value=76, time=32),
    Message('control_change', channel=1, control=7, value=80, time=32),
    Message('control_change', channel=1, control=7, value=84, time=32),
    Message('control_change', channel=1, control=7, value=88, time=32),
    Message('control_change', channel=1, control=7, value=92, time=32),
    Message('control_change', channel=1, control=7, value=96, time=32),
    Message('note_off', channel=1, note=50, velocity=100, time=24),
    Message('note_off', channel=1, note=57, velocity=100, time=0),
    Message('note_off', channel=1, note=62, velocity=100, time=0),
    Message('pitchwheel', channel=1, pitch=0, time=8),
    Message('control_change', channel=1, control=7, value=100, time=0),
    Message('note_on', channel=1, note=74, velocity=100, time=0),
    Message('pitchwheel', channel=1, pitch=2088, time=16),
    Message('pitchwheel', channel=1, pitch=4096, time=24),
    Message('pitchwheel', channel=1, pitch=6144, time=16),
    Message('pitchwheel', channel=1, pitch=8191, time=24),
    Message('note_off', channel=1, note=74, velocity=100, time=1064),
    Message('pitchwheel', channel=1, pitch=0, time=8),
    Message('note_on', channel=1, note=75, velocity=100, time=0),
    Message('pitchwheel', channel=1, pitch=2088, time=16),
    Message('pitchwheel', channel=1, pitch=4096, time=24),
    Message('pitchwheel', channel=1, pitch=6144, time=16),
    Message('pitchwheel', channel=1, pitch=8191, time=24),
    Message('note_off', channel=1, note=75, velocity=100, time=296),
    Message('pitchwheel', channel=1, pitch=0, time=8),
    Message('note_on', channel=1, note=74, velocity=100, time=0),
    Message('pitchwheel', channel=1, pitch=2088, time=16),
    Message('pitchwheel', channel=1, pitch=4096, time=24),
    Message('pitchwheel', channel=1, pitch=6144, time=16),
    Message('pitchwheel', channel=1, pitch=8191, time=24),
    Message('note_off', channel=1, note=74, velocity=100, time=1064),
    Message('pitchwheel', channel=1, pitch=0, time=8),
    Message('note_on', channel=1, note=72, velocity=100, time=0),
    Message('pitchwheel', channel=1, pitch=2088, time=16),
    Message('pitchwheel', channel=1, pitch=4096, time=24),
    Message('pitchwheel', channel=1, pitch=6144, time=16),
    Message('pitchwheel', channel=1, pitch=8191, time=24),
    Message('note_off', channel=1, note=72, velocity=100, time=296),
    Message('pitchwheel', channel=1, pitch=0, time=8),
    Message('note_on', channel=1, note=74, velocity=100, time=0),
    Message('pitchwheel', channel=1, pitch=2088, time=16),
    Message('pitchwheel', channel=1, pitch=4096, time=24),
    Message('pitchwheel', channel=1, pitch=6144, time=16),
    Message('pitchwheel', channel=1, pitch=8191, time=24),
    Message('note_off', channel=1, note=74, velocity=100, time=680),
    Message('pitchwheel', channel=1, pitch=0, time=8),
    Message('note_on', channel=1, note=69, velocity=100, time=0),
    Message('pitchwheel', channel=1, pitch=2088, time=16),
    Message('pitchwheel', channel=1, pitch=4096, time=24),
    Message('pitchwheel', channel=1, pitch=6144, time=16),
    Message('pitchwheel', channel=1, pitch=8191, time=24),
    Message('note_off', channel=1, note=69, velocity=100, time=680),
    Message('pitchwheel', channel=1, pitch=0, time=8),
    Message('note_on', channel=1, note=73, velocity=100, time=0),
    Message('pitchwheel', channel=1, pitch=2088, time=16),
    Message('pitchwheel', channel=1, pitch=4096, time=24),
    Message('note_off', channel=1, note=73, velocity=100, time=1488),
    Message('pitchwheel', channel=1, pitch=0, time=8),
    Message('note_on', channel=1, note=74, velocity=100, time=0),
    Message('pitchwheel', channel=1, pitch=2088, time=16),
    Message('pitchwheel', channel=1, pitch=4096, time=24),
    Message('pitchwheel', channel=1, pitch=6144, time=16),
    Message('pitchwheel', channel=1, pitch=8191, time=24),
    Message('note_off', channel=1, note=74, velocity=100, time=1064),
    Message('pitchwheel', channel=1, pitch=0, time=8),
    Message('note_on', channel=1, note=75, velocity=100, time=0),
    Message('pitchwheel', channel=1, pitch=2088, time=16),
    Message('pitchwheel', channel=1, pitch=4096, time=24),
    Message('pitchwheel', channel=1, pitch=6144, time=16),
    Message('pitchwheel', channel=1, pitch=8191, time=24),
    Message('note_off', channel=1, note=75, velocity=100, time=296),
    Message('pitchwheel', channel=1, pitch=0, time=8),
    Message('note_on', channel=1, note=74, velocity=100, time=0),
    Message('pitchwheel', channel=1, pitch=2088, time=16),
    Message('pitchwheel', channel=1, pitch=4096, time=24),
    Message('pitchwheel', channel=1, pitch=6144, time=16),
    Message('pitchwheel', channel=1, pitch=8191, time=24),
    Message('note_off', channel=1, note=74, velocity=100, time=1064),
    Message('pitchwheel', channel=1, pitch=0, time=8),
    Message('note_on', channel=1, note=72, velocity=100, time=0),
    Message('pitchwheel', channel=1, pitch=2088, time=16),
    Message('pitchwheel', channel=1, pitch=4096, time=24),
    Message('pitchwheel', channel=1, pitch=6144, time=16),
    Message('pitchwheel', channel=1, pitch=8191, time=24),
    Message('note_off', channel=1, note=72, velocity=100, time=296),
    Message('pitchwheel', channel=1, pitch=0, time=8),
    Message('note_on', channel=1, note=74, velocity=100, time=0),
    Message('pitchwheel', channel=1, pitch=2088, time=16),
    Message('pitchwheel', channel=1, pitch=4096, time=24),
    Message('pitchwheel', channel=1, pitch=6144, time=16),
    Message('pitchwheel', channel=1, pitch=8191, time=24),
    Message('note_off', channel=1, note=74, velocity=100, time=680),
    Message('pitchwheel', channel=1, pitch=0, time=8),
    Message('note_on', channel=1, note=69, velocity=100, time=0),
    Message('pitchwheel', channel=1, pitch=2088, time=16),
    Message('pitchwheel', channel=1, pitch=4096, time=24),
    Message('pitchwheel', channel=1, pitch=6144, time=16),
    Message('pitchwheel', channel=1, pitch=8191, time=24),
    Message('note_off', channel=1, note=69, velocity=100, time=680),
    Message('pitchwheel', channel=1, pitch=0, time=8),
    Message('note_on', channel=1, note=73, velocity=100, time=0),
    Message('pitchwheel', channel=1, pitch=2088, time=16),
    Message('pitchwheel', channel=1, pitch=4096, time=24),
    Message('note_off', channel=1, note=73, velocity=100, time=1488),
    Message('pitchwheel', channel=1, pitch=0, time=8),
    Message('note_on', channel=1, note=47, velocity=100, time=0),
    Message('note_off', channel=1, note=47, velocity=100, time=184),
    Message('note_on', channel=1, note=47, velocity=100, time=8),
    Message('note_off', channel=1, note=47, velocity=100, time=184),
    Message('note_on', channel=1, note=47, velocity=100, time=8),
    Message('note_off', channel=1, note=47, velocity=100, time=184),
    Message('note_on', channel=1, note=47, velocity=100, time=8),
    Message('note_off', channel=1, note=47, velocity=100, time=184),
    Message('note_on', channel=1, note=47, velocity=100, time=8),
    Message('note_off', channel=1, note=47, velocity=100, time=184),
    Message('note_on', channel=1, note=47, velocity=100, time=8),
    Message('note_off', channel=1, note=47, velocity=100, time=184),
    Message('note_on', channel=1, note=47, velocity=100, time=8),
    Message('note_off', channel=1, note=47, velocity=100, time=184),
    Message('note_on', channel=1, note=47, velocity=100, time=8),
    Message('note_off', channel=1, note=47, velocity=100, time=184),
    Message('note_on', channel=1, note=47, velocity=100, time=8),
    Message('note_off', channel=1, note=47, velocity=100, time=184),
    Message('note_on', channel=1, note=47, velocity=100, time=8),
    Message('note_off', channel=1, note=47, velocity=100, time=184),
    Message('note_on', channel=1, note=47, velocity=100, time=8),
    Message('note_off', channel=1, note=47, velocity=100, time=184),
    Message('note_on', channel=1, note=47, velocity=100, time=8),
    Message('note_off', channel=1, note=47, velocity=100, time=184),
    Message('note_on', channel=1, note=47, velocity=100, time=8),
    Message('note_off', channel=1, note=47, velocity=100, time=184),
    Message('note_on', channel=1, note=47, velocity=100, time=8),
    Message('note_off', channel=1, note=47, velocity=100, time=184),
    Message('note_on', channel=1, note=47, velocity=100, time=8),
    Message('note_off', channel=1, note=47, velocity=100, time=184),
    Message('note_on', channel=1, note=47, velocity=100, time=8),
    Message('note_off', channel=1, note=47, velocity=100, time=184),
    Message('note_on', channel=1, note=47, velocity=100, time=8),
    Message('note_off', channel=1, note=47, velocity=100, time=184),
    Message('note_on', channel=1, note=47, velocity=100, time=8),
    Message('note_off', channel=1, note=47, velocity=100, time=184),
    Message('note_on', channel=1, note=47, velocity=100, time=8),
    Message('note_off', channel=1, note=47, velocity=100, time=184),
    Message('note_on', channel=1, note=47, velocity=100, time=8),
    Message('note_off', channel=1, note=47, velocity=100, time=184),
    Message('note_on', channel=1, note=47, velocity=100, time=8),
    Message('note_off', channel=1, note=47, velocity=100, time=184),
    Message('note_on', channel=1, note=47, velocity=100, time=8),
    Message('note_off', channel=1, note=47, velocity=100, time=184),
    Message('note_on', channel=1, note=47, velocity=100, time=8),
    Message('note_off', channel=1, note=47, velocity=100, time=184),
    Message('note_on', channel=1, note=47, velocity=100, time=8),
    Message('note_off', channel=1, note=47, velocity=100, time=184),
    Message('note_on', channel=1, note=47, velocity=100, time=8),
    Message('note_off', channel=1, note=47, velocity=100, time=184),
    Message('note_on', channel=1, note=47, velocity=100, time=8),
    Message('note_off', channel=1, note=47, velocity=100, time=184),
    Message('note_on', channel=1, note=47, velocity=100, time=8),
    Message('note_off', channel=1, note=47, velocity=100, time=184),
    Message('note_on', channel=1, note=47, velocity=100, time=8),
    Message('note_off', channel=1, note=47, velocity=100, time=184),
    Message('note_on', channel=1, note=47, velocity=100, time=8),
    Message('note_off', channel=1, note=47, velocity=100, time=184),
    Message('note_on', channel=1, note=47, velocity=100, time=8),
    Message('note_off', channel=1, note=47, velocity=100, time=184),
    Message('note_on', channel=1, note=47, velocity=100, time=8),
    Message('note_off', channel=1, note=47, velocity=100, time=184),
    Message('note_on', channel=1, note=47, velocity=100, time=8),
    Message('note_off', channel=1, note=47, velocity=100, time=184),
    Message('note_on', channel=1, note=45, velocity=100, time=8),
    Message('note_off', channel=1, note=45, velocity=100, time=184),
    Message('note_on', channel=1, note=45, velocity=100, time=8),
    Message('note_off', channel=1, note=45, velocity=100, time=184),
    Message('note_on', channel=1, note=45, velocity=100, time=8),
    Message('note_off', channel=1, note=45, velocity=100, time=184),
    Message('note_on', channel=1, note=45, velocity=100, time=8),
    Message('note_off', channel=1, note=45, velocity=100, time=184),
    Message('note_on', channel=1, note=45, velocity=100, time=8),
    Message('note_off', channel=1, note=45, velocity=100, time=184),
    Message('note_on', channel=1, note=45, velocity=100, time=8),
    Message('note_off', channel=1, note=45, velocity=100, time=184),
    Message('note_on', channel=1, note=45, velocity=100, time=8),
    Message('note_off', channel=1, note=45, velocity=100, time=184),
    Message('note_on', channel=1, note=45, velocity=100, time=8),
    Message('note_off', channel=1, note=45, velocity=100, time=184),
    Message('note_on', channel=1, note=45, velocity=100, time=8),
    Message('note_off', channel=1, note=45, velocity=100, time=184),
    Message('note_on', channel=1, note=45, velocity=100, time=8),
    Message('note_off', channel=1, note=45, velocity=100, time=184),
    Message('note_on', channel=1, note=45, velocity=100, time=8),
    Message('note_off', channel=1, note=45, velocity=100, time=184),
    Message('note_on', channel=1, note=45, velocity=100, time=8),
    Message('note_off', channel=1, note=45, velocity=100, time=184),
    Message('note_on', channel=1, note=45, velocity=100, time=8),
    Message('note_off', channel=1, note=45, velocity=100, time=184),
    Message('note_on', channel=1, note=45, velocity=100, time=8),
    Message('note_off', channel=1, note=45, velocity=100, time=184),
    Message('note_on', channel=1, note=45, velocity=100, time=8),
    Message('note_off', channel=1, note=45, velocity=100, time=184),
    Message('note_on', channel=1, note=45, velocity=100, time=8),
    Message('note_off', channel=1, note=45, velocity=100, time=184),
    Message('note_on', channel=1, note=50, velocity=100, time=8),
    Message('note_off', channel=1, note=50, velocity=100, time=184),
    Message('note_on', channel=1, note=49, velocity=100, time=8),
    Message('note_off', channel=1, note=49, velocity=100, time=184),
    Message('note_on', channel=1, note=47, velocity=100, time=8),
    Message('note_off', channel=1, note=47, velocity=100, time=376),
    Message('note_on', channel=1, note=47, velocity=100, time=8),
    Message('note_off', channel=1, note=47, velocity=100, time=184),
    Message('note_on', channel=1, note=47, velocity=100, time=8),
    Message('note_off', channel=1, note=47, velocity=100, time=184),
    Message('note_on', channel=1, note=62, velocity=100, time=8),
    Message('note_on', channel=1, note=57, velocity=100, time=0),
    Message('note_on', channel=1, note=50, velocity=100, time=0),
    Message('note_off', channel=1, note=62, velocity=100, time=376),
    Message('note_off', channel=1, note=57, velocity=100, time=0),
    Message('note_off', channel=1, note=50, velocity=100, time=0),
    Message('note_on', channel=1, note=47, velocity=100, time=8),
    Message('note_off', channel=1, note=47, velocity=100, time=184),
    Message('note_on', channel=1, note=47, velocity=100, time=8),
    Message('note_off', channel=1, note=47, velocity=100, time=184),
    Message('note_on', channel=1, note=47, velocity=100, time=8),
    Message('note_off', channel=1, note=47, velocity=100, time=184),
    Message('note_on', channel=1, note=47, velocity=100, time=8),
    Message('note_off', channel=1, note=47, velocity=100, time=184),
    Message('note_on', channel=1, note=64, velocity=100, time=8),
    Message('note_on', channel=1, note=59, velocity=100, time=0),
    Message('note_on', channel=1, note=52, velocity=100, time=0),
    Message('note_off', channel=1, note=64, velocity=100, time=376),
    Message('note_off', channel=1, note=59, velocity=100, time=0),
    Message('note_off', channel=1, note=52, velocity=100, time=0),
    Message('note_on', channel=1, note=52, velocity=100, time=8),
    Message('note_on', channel=1, note=59, velocity=100, time=0),
    Message('note_on', channel=1, note=64, velocity=100, time=0),
    Message('note_off', channel=1, note=52, velocity=100, time=376),
    Message('note_off', channel=1, note=59, velocity=100, time=0),
    Message('note_off', channel=1, note=64, velocity=100, time=0),
    Message('pitchwheel', channel=1, pitch=0, time=8),
    Message('note_on', channel=1, note=47, velocity=100, time=0),
    Message('note_off', channel=1, note=47, velocity=100, time=184),
    Message('note_on', channel=1, note=47, velocity=100, time=8),
    Message('note_off', channel=1, note=47, velocity=100, time=184),
    Message('note_on', channel=1, note=47, velocity=100, time=8),
    Message('note_off', channel=1, note=47, velocity=100, time=184),
    Message('note_on', channel=1, note=47, velocity=100, time=8),
    Message('note_off', channel=1, note=47, velocity=100, time=184),
    Message('note_on', channel=1, note=47, velocity=100, time=8),
    Message('note_off', channel=1, note=47, velocity=100, time=184),
    Message('note_on', channel=1, note=47, velocity=100, time=8),
    Message('note_off', channel=1, note=47, velocity=100, time=184),
    Message('note_on', channel=1, note=47, velocity=100, time=8),
    Message('note_off', channel=1, note=47, velocity=100, time=184),
    Message('note_on', channel=1, note=47, velocity=100, time=8),
    Message('note_off', channel=1, note=47, velocity=100, time=184),
    Message('note_on', channel=1, note=47, velocity=100, time=8),
    Message('note_off', channel=1, note=47, velocity=100, time=184),
    Message('note_on', channel=1, note=47, velocity=100, time=8),
    Message('note_off', channel=1, note=47, velocity=100, time=184),
    Message('note_on', channel=1, note=47, velocity=100, time=8),
    Message('note_off', channel=1, note=47, velocity=100, time=184),
    Message('note_on', channel=1, note=47, velocity=100, time=8),
    Message('note_off', channel=1, note=47, velocity=100, time=184),
    Message('note_on', channel=1, note=47, velocity=100, time=8),
    Message('note_off', channel=1, note=47, velocity=100, time=184),
    Message('note_on', channel=1, note=47, velocity=100, time=8),
    Message('note_off', channel=1, note=47, velocity=100, time=184),
    Message('note_on', channel=1, note=47, velocity=100, time=8),
    Message('note_off', channel=1, note=47, velocity=100, time=184),
    Message('note_on', channel=1, note=47, velocity=100, time=8),
    Message('note_off', channel=1, note=47, velocity=100, time=184),
    Message('note_on', channel=1, note=47, velocity=100, time=8),
    Message('note_off', channel=1, note=47, velocity=100, time=184),
    Message('note_on', channel=1, note=47, velocity=100, time=8),
    Message('note_off', channel=1, note=47, velocity=100, time=184),
    Message('note_on', channel=1, note=47, velocity=100, time=8),
    Message('note_off', channel=1, note=47, velocity=100, time=184),
    Message('note_on', channel=1, note=47, velocity=100, time=8),
    Message('note_off', channel=1, note=47, velocity=100, time=184),
    Message('note_on', channel=1, note=47, velocity=100, time=8),
    Message('note_off', channel=1, note=47, velocity=100, time=184),
    Message('note_on', channel=1, note=47, velocity=100, time=8),
    Message('note_off', channel=1, note=47, velocity=100, time=184),
    Message('note_on', channel=1, note=47, velocity=100, time=8),
    Message('note_off', channel=1, note=47, velocity=100, time=184),
    Message('note_on', channel=1, note=47, velocity=100, time=8),
    Message('note_off', channel=1, note=47, velocity=100, time=184),
    Message('note_on', channel=1, note=47, velocity=100, time=8),
    Message('note_off', channel=1, note=47, velocity=100, time=184),
    Message('note_on', channel=1, note=47, velocity=100, time=8),
    Message('note_off', channel=1, note=47, velocity=100, time=184),
    Message('note_on', channel=1, note=47, velocity=100, time=8),
    Message('note_off', channel=1, note=47, velocity=100, time=184),
    Message('note_on', channel=1, note=47, velocity=100, time=8),
    Message('note_off', channel=1, note=47, velocity=100, time=184),
    Message('note_on', channel=1, note=47, velocity=100, time=8),
    Message('note_off', channel=1, note=47, velocity=100, time=184),
    Message('note_on', channel=1, note=47, velocity=100, time=8),
    Message('note_off', channel=1, note=47, velocity=100, time=184),
    Message('note_on', channel=1, note=47, velocity=100, time=8),
    Message('note_off', channel=1, note=47, velocity=100, time=184),
    Message('note_on', channel=1, note=47, velocity=100, time=8),
    Message('note_off', channel=1, note=47, velocity=100, time=184),
    Message('note_on', channel=1, note=45, velocity=100, time=8),
    Message('note_off', channel=1, note=45, velocity=100, time=184),
    Message('note_on', channel=1, note=45, velocity=100, time=8),
    Message('note_off', channel=1, note=45, velocity=100, time=184),
    Message('note_on', channel=1, note=45, velocity=100, time=8),
    Message('note_off', channel=1, note=45, velocity=100, time=184),
    Message('note_on', channel=1, note=45, velocity=100, time=8),
    Message('note_off', channel=1, note=45, velocity=100, time=184),
    Message('note_on', channel=1, note=45, velocity=100, time=8),
    Message('note_off', channel=1, note=45, velocity=100, time=184),
    Message('note_on', channel=1, note=45, velocity=100, time=8),
    Message('note_off', channel=1, note=45, velocity=100, time=184),
    Message('note_on', channel=1, note=45, velocity=100, time=8),
    Message('note_off', channel=1, note=45, velocity=100, time=184),
    Message('note_on', channel=1, note=45, velocity=100, time=8),
    Message('note_off', channel=1, note=45, velocity=100, time=184),
    Message('note_on', channel=1, note=45, velocity=100, time=8),
    Message('note_off', channel=1, note=45, velocity=100, time=184),
    Message('note_on', channel=1, note=45, velocity=100, time=8),
    Message('note_off', channel=1, note=45, velocity=100, time=184),
    Message('note_on', channel=1, note=45, velocity=100, time=8),
    Message('note_off', channel=1, note=45, velocity=100, time=184),
    Message('note_on', channel=1, note=45, velocity=100, time=8),
    Message('note_off', channel=1, note=45, velocity=100, time=184),
    Message('note_on', channel=1, note=45, velocity=100, time=8),
    Message('note_off', channel=1, note=45, velocity=100, time=184),
    Message('note_on', channel=1, note=45, velocity=100, time=8),
    Message('note_off', channel=1, note=45, velocity=100, time=184),
    Message('note_on', channel=1, note=45, velocity=100, time=8),
    Message('note_off', channel=1, note=45, velocity=100, time=184),
    Message('note_on', channel=1, note=45, velocity=100, time=8),
    Message('note_off', channel=1, note=45, velocity=100, time=184),
    Message('note_on', channel=1, note=50, velocity=100, time=8),
    Message('note_off', channel=1, note=50, velocity=100, time=184),
    Message('note_on', channel=1, note=49, velocity=100, time=8),
    Message('note_off', channel=1, note=49, velocity=100, time=184),
    Message('note_on', channel=1, note=47, velocity=100, time=8),
    Message('note_off', channel=1, note=47, velocity=100, time=376),
    Message('note_on', channel=1, note=47, velocity=100, time=8),
    Message('note_off', channel=1, note=47, velocity=100, time=184),
    Message('note_on', channel=1, note=47, velocity=100, time=8),
    Message('note_off', channel=1, note=47, velocity=100, time=184),
    Message('note_on', channel=1, note=62, velocity=100, time=8),
    Message('note_on', channel=1, note=57, velocity=100, time=0),
    Message('note_on', channel=1, note=50, velocity=100, time=0),
    Message('note_off', channel=1, note=62, velocity=100, time=376),
    Message('note_off', channel=1, note=57, velocity=100, time=0),
    Message('note_off', channel=1, note=50, velocity=100, time=0),
    Message('note_on', channel=1, note=47, velocity=100, time=8),
    Message('note_off', channel=1, note=47, velocity=100, time=184),
    Message('note_on', channel=1, note=47, velocity=100, time=8),
    Message('note_off', channel=1, note=47, velocity=100, time=184),
    Message('note_on', channel=1, note=47, velocity=100, time=8),
    Message('note_off', channel=1, note=47, velocity=100, time=184),
    Message('note_on', channel=1, note=47, velocity=100, time=8),
    Message('note_off', channel=1, note=47, velocity=100, time=184),
    Message('note_on', channel=1, note=64, velocity=100, time=8),
    Message('note_on', channel=1, note=59, velocity=100, time=0),
    Message('note_on', channel=1, note=52, velocity=100, time=0),
    Message('note_off', channel=1, note=64, velocity=100, time=376),
    Message('note_off', channel=1, note=59, velocity=100, time=0),
    Message('note_off', channel=1, note=52, velocity=100, time=0),
    Message('note_on', channel=1, note=52, velocity=100, time=8),
    Message('note_on', channel=1, note=59, velocity=100, time=0),
    Message('note_on', channel=1, note=64, velocity=100, time=0),
    Message('note_off', channel=1, note=52, velocity=100, time=376),
    Message('note_off', channel=1, note=59, velocity=100, time=0),
    Message('note_off', channel=1, note=64, velocity=100, time=0),
    Message('note_on', channel=1, note=49, velocity=100, time=8),
    Message('note_on', channel=1, note=54, velocity=100, time=0),
    Message('note_on', channel=1, note=42, velocity=100, time=0),
    Message('note_off', channel=1, note=49, velocity=100, time=376),
    Message('note_off', channel=1, note=54, velocity=100, time=0),
    Message('note_off', channel=1, note=42, velocity=100, time=0),
    Message('note_on', channel=1, note=40, velocity=100, time=8),
    Message('note_off', channel=1, note=40, velocity=100, time=184),
    Message('note_on', channel=1, note=40, velocity=100, time=8),
    Message('note_off', channel=1, note=40, velocity=100, time=184),
    Message('note_on', channel=1, note=42, velocity=100, time=8),
    Message('note_on', channel=1, note=49, velocity=100, time=0),
    Message('note_on', channel=1, note=54, velocity=100, time=0),
    Message('note_off', channel=1, note=42, velocity=100, time=376),
    Message('note_off', channel=1, note=49, velocity=100, time=0),
    Message('note_off', channel=1, note=54, velocity=100, time=0),
    Message('note_on', channel=1, note=40, velocity=100, time=8),
    Message('note_off', channel=1, note=40, velocity=100, time=184),
    Message('note_on', channel=1, note=40, velocity=100, time=8),
    Message('note_off', channel=1, note=40, velocity=100, time=184),
    Message('note_on', channel=1, note=42, velocity=100, time=8),
    Message('note_on', channel=1, note=49, velocity=100, time=0),
    Message('note_on', channel=1, note=54, velocity=100, time=0),
    Message('note_off', channel=1, note=42, velocity=100, time=376),
    Message('note_off', channel=1, note=49, velocity=100, time=0),
    Message('note_off', channel=1, note=54, velocity=100, time=0),
    Message('note_on', channel=1, note=40, velocity=100, time=8),
    Message('note_off', channel=1, note=40, velocity=100, time=184),
    Message('note_on', channel=1, note=40, velocity=100, time=8),
    Message('note_off', channel=1, note=40, velocity=100, time=184),
    Message('note_on', channel=1, note=40, velocity=100, time=8),
    Message('note_off', channel=1, note=40, velocity=100, time=184),
    Message('note_on', channel=1, note=42, velocity=100, time=8),
    Message('note_off', channel=1, note=42, velocity=100, time=184),
    Message('note_on', channel=1, note=55, velocity=100, time=8),
    Message('note_on', channel=1, note=50, velocity=100, time=0),
    Message('note_on', channel=1, note=43, velocity=100, time=0),
    Message('note_off', channel=1, note=55, velocity=100, time=376),
    Message('note_off', channel=1, note=50, velocity=100, time=0),
    Message('note_off', channel=1, note=43, velocity=100, time=0),
    Message('note_on', channel=1, note=42, velocity=100, time=8),
    Message('note_on', channel=1, note=49, velocity=100, time=0),
    Message('note_on', channel=1, note=54, velocity=100, time=0),
    Message('note_off', channel=1, note=42, velocity=100, time=376),
    Message('note_off', channel=1, note=49, velocity=100, time=0),
    Message('note_off', channel=1, note=54, velocity=100, time=0),
    Message('note_on', channel=1, note=40, velocity=100, time=8),
    Message('note_off', channel=1, note=40, velocity=100, time=184),
    Message('note_on', channel=1, note=40, velocity=100, time=8),
    Message('note_off', channel=1, note=40, velocity=100, time=184),
    Message('note_on', channel=1, note=42, velocity=100, time=8),
    Message('note_on', channel=1, note=54, velocity=100, time=0),
    Message('note_on', channel=1, note=49, velocity=100, time=0),
    Message('note_off', channel=1, note=42, velocity=100, time=376),
    Message('note_off', channel=1, note=54, velocity=100, time=0),
    Message('note_off', channel=1, note=49, velocity=100, time=0),
    Message('note_on', channel=1, note=40, velocity=100, time=8),
    Message('note_off', channel=1, note=40, velocity=100, time=184),
    Message('note_on', channel=1, note=40, velocity=100, time=8),
    Message('note_off', channel=1, note=40, velocity=100, time=184),
    Message('note_on', channel=1, note=43, velocity=100, time=8),
    Message('note_on', channel=1, note=50, velocity=100, time=0),
    Message('note_off', channel=1, note=43, velocity=100, time=184),
    Message('note_off', channel=1, note=50, velocity=100, time=0),
    Message('note_on', channel=1, note=42, velocity=100, time=8),
    Message('note_on', channel=1, note=49, velocity=100, time=0),
    Message('note_off', channel=1, note=42, velocity=100, time=184),
    Message('note_off', channel=1, note=49, velocity=100, time=0),
    Message('note_on', channel=1, note=40, velocity=100, time=8),
    Message('note_off', channel=1, note=40, velocity=100, time=376),
    Message('note_on', channel=1, note=48, velocity=100, time=8),
    Message('note_on', channel=1, note=55, velocity=100, time=0),
    Message('note_on', channel=1, note=60, velocity=100, time=0),
    Message('note_off', channel=1, note=48, velocity=100, time=760),
    Message('note_off', channel=1, note=55, velocity=100, time=0),
    Message('note_off', channel=1, note=60, velocity=100, time=0),
    Message('note_on', channel=1, note=42, velocity=100, time=8),
    Message('note_on', channel=1, note=49, velocity=100, time=0),
    Message('note_on', channel=1, note=54, velocity=100, time=0),
    Message('note_off', channel=1, note=42, velocity=100, time=376),
    Message('note_off', channel=1, note=49, velocity=100, time=0),
    Message('note_off', channel=1, note=54, velocity=100, time=0),
    Message('note_on', channel=1, note=40, velocity=100, time=8),
    Message('note_off', channel=1, note=40, velocity=100, time=184),
    Message('note_on', channel=1, note=40, velocity=100, time=8),
    Message('note_off', channel=1, note=40, velocity=100, time=184),
    Message('note_on', channel=1, note=54, velocity=100, time=8),
    Message('note_on', channel=1, note=49, velocity=100, time=0),
    Message('note_on', channel=1, note=42, velocity=100, time=0),
    Message('note_off', channel=1, note=54, velocity=100, time=376),
    Message('note_off', channel=1, note=49, velocity=100, time=0),
    Message('note_off', channel=1, note=42, velocity=100, time=0),
    Message('note_on', channel=1, note=40, velocity=100, time=8),
    Message('note_off', channel=1, note=40, velocity=100, time=184),
    Message('note_on', channel=1, note=40, velocity=100, time=8),
    Message('note_off', channel=1, note=40, velocity=100, time=184),
    Message('note_on', channel=1, note=42, velocity=100, time=8),
    Message('note_on', channel=1, note=49, velocity=100, time=0),
    Message('note_on', channel=1, note=54, velocity=100, time=0),
    Message('note_off', channel=1, note=42, velocity=100, time=376),
    Message('note_off', channel=1, note=49, velocity=100, time=0),
    Message('note_off', channel=1, note=54, velocity=100, time=0),
    Message('note_on', channel=1, note=40, velocity=100, time=8),
    Message('note_off', channel=1, note=40, velocity=100, time=184),
    Message('note_on', channel=1, note=40, velocity=100, time=8),
    Message('note_off', channel=1, note=40, velocity=100, time=184),
    Message('note_on', channel=1, note=40, velocity=100, time=8),
    Message('note_off', channel=1, note=40, velocity=100, time=184),
    Message('note_on', channel=1, note=42, velocity=100, time=8),
    Message('note_off', channel=1, note=42, velocity=100, time=184),
    Message('note_on', channel=1, note=55, velocity=100, time=8),
    Message('note_on', channel=1, note=50, velocity=100, time=0),
    Message('note_on', channel=1, note=43, velocity=100, time=0),
    Message('note_off', channel=1, note=55, velocity=100, time=376),
    Message('note_off', channel=1, note=50, velocity=100, time=0),
    Message('note_off', channel=1, note=43, velocity=100, time=0),
    Message('note_on', channel=1, note=42, velocity=100, time=8),
    Message('note_on', channel=1, note=49, velocity=100, time=0),
    Message('note_on', channel=1, note=54, velocity=100, time=0),
    Message('note_off', channel=1, note=42, velocity=100, time=376),
    Message('note_off', channel=1, note=49, velocity=100, time=0),
    Message('note_off', channel=1, note=54, velocity=100, time=0),
    Message('note_on', channel=1, note=40, velocity=100, time=8),
    Message('note_off', channel=1, note=40, velocity=100, time=184),
    Message('note_on', channel=1, note=40, velocity=100, time=8),
    Message('note_off', channel=1, note=40, velocity=100, time=184),
    Message('note_on', channel=1, note=54, velocity=100, time=8),
    Message('note_on', channel=1, note=49, velocity=100, time=0),
    Message('note_on', channel=1, note=42, velocity=100, time=0),
    Message('note_off', channel=1, note=54, velocity=100, time=376),
    Message('note_off', channel=1, note=49, velocity=100, time=0),
    Message('note_off', channel=1, note=42, velocity=100, time=0),
    Message('note_on', channel=1, note=40, velocity=100, time=8),
    Message('note_off', channel=1, note=40, velocity=100, time=184),
    Message('note_on', channel=1, note=40, velocity=100, time=8),
    Message('note_off', channel=1, note=40, velocity=100, time=184),
    Message('note_on', channel=1, note=42, velocity=100, time=8),
    Message('note_off', channel=1, note=42, velocity=100, time=184),
    Message('note_on', channel=1, note=42, velocity=100, time=8),
    Message('note_off', channel=1, note=42, velocity=100, time=184),
    Message('note_on', channel=1, note=42, velocity=100, time=8),
    Message('note_off', channel=1, note=42, velocity=100, time=184),
    Message('note_on', channel=1, note=42, velocity=100, time=8),
    Message('note_off', channel=1, note=42, velocity=100, time=184),
    Message('note_on', channel=1, note=49, velocity=100, time=8),
    Message('note_off', channel=1, note=49, velocity=100, time=184),
    Message('note_on', channel=1, note=47, velocity=100, time=8),
    Message('note_off', channel=1, note=47, velocity=100, time=184),
    Message('note_on', channel=1, note=45, velocity=100, time=8),
    Message('note_off', channel=1, note=45, velocity=100, time=376),
    Message('note_on', channel=1, note=47, velocity=100, time=8),
    Message('note_off', channel=1, note=47, velocity=100, time=184),
    Message('note_on', channel=1, note=47, velocity=100, time=8),
    Message('note_off', channel=1, note=47, velocity=100, time=184),
    Message('note_on', channel=1, note=54, velocity=100, time=8),
    Message('note_off', channel=1, note=54, velocity=100, time=184),
    Message('note_on', channel=1, note=47, velocity=100, time=8),
    Message('note_off', channel=1, note=47, velocity=100, time=184),
    Message('note_on', channel=1, note=47, velocity=100, time=8),
    Message('note_off', channel=1, note=47, velocity=100, time=184),
    Message('note_on', channel=1, note=55, velocity=100, time=8),
    Message('note_off', channel=1, note=55, velocity=100, time=184),
    Message('note_on', channel=1, note=47, velocity=100, time=8),
    Message('note_off', channel=1, note=47, velocity=100, time=184),
    Message('note_on', channel=1, note=47, velocity=100, time=8),
    Message('note_off', channel=1, note=47, velocity=100, time=184),
    Message('note_on', channel=1, note=54, velocity=100, time=8),
    Message('note_off', channel=1, note=54, velocity=100, time=184),
    Message('note_on', channel=1, note=47, velocity=100, time=8),
    Message('note_off', channel=1, note=47, velocity=100, time=184),
    Message('note_on', channel=1, note=47, velocity=100, time=8),
    Message('note_off', channel=1, note=47, velocity=100, time=184),
    Message('note_on', channel=1, note=52, velocity=100, time=8),
    Message('note_off', channel=1, note=52, velocity=100, time=184),
    Message('note_on', channel=1, note=47, velocity=100, time=8),
    Message('note_off', channel=1, note=47, velocity=100, time=184),
    Message('note_on', channel=1, note=47, velocity=100, time=8),
    Message('note_off', channel=1, note=47, velocity=100, time=184),
    Message('note_on', channel=1, note=54, velocity=100, time=8),
    Message('note_off', channel=1, note=54, velocity=100, time=184),
    Message('note_on', channel=1, note=47, velocity=100, time=8),
    Message('note_off', channel=1, note=47, velocity=100, time=184),
    Message('note_on', channel=1, note=45, velocity=100, time=8),
    Message('note_off', channel=1, note=45, velocity=100, time=184),
    Message('note_on', channel=1, note=45, velocity=100, time=8),
    Message('note_off', channel=1, note=45, velocity=100, time=184),
    Message('note_on', channel=1, note=52, velocity=100, time=8),
    Message('note_off', channel=1, note=52, velocity=100, time=184),
    Message('note_on', channel=1, note=45, velocity=100, time=8),
    Message('note_off', channel=1, note=45, velocity=100, time=184),
    Message('note_on', channel=1, note=45, velocity=100, time=8),
    Message('note_off', channel=1, note=45, velocity=100, time=184),
    Message('note_on', channel=1, note=49, velocity=100, time=8),
    Message('note_off', channel=1, note=49, velocity=100, time=184),
    Message('note_on', channel=1, note=42, velocity=100, time=8),
    Message('note_off', channel=1, note=42, velocity=100, time=184),
    Message('note_on', channel=1, note=42, velocity=100, time=8),
    Message('note_off', channel=1, note=42, velocity=100, time=184),
    Message('note_on', channel=1, note=42, velocity=100, time=8),
    Message('note_off', channel=1, note=42, velocity=100, time=184),
    Message('note_on', channel=1, note=42, velocity=100, time=8),
    Message('note_off', channel=1, note=42, velocity=100, time=184),
    Message('note_on', channel=1, note=49, velocity=100, time=8),
    Message('note_off', channel=1, note=49, velocity=100, time=184),
    Message('note_on', channel=1, note=42, velocity=100, time=8),
    Message('note_off', channel=1, note=42, velocity=100, time=184),
    Message('note_on', channel=1, note=50, velocity=100, time=8),
    Message('note_off', channel=1, note=50, velocity=100, time=184),
    Message('note_on', channel=1, note=42, velocity=100, time=8),
    Message('note_off', channel=1, note=42, velocity=100, time=184),
    Message('note_on', channel=1, note=49, velocity=100, time=8),
    Message('note_off', channel=1, note=49, velocity=100, time=184),
    Message('note_on', channel=1, note=42, velocity=100, time=8),
    Message('note_off', channel=1, note=42, velocity=100, time=184),
    Message('note_on', channel=1, note=47, velocity=100, time=8),
    Message('note_off', channel=1, note=47, velocity=100, time=184),
    Message('note_on', channel=1, note=47, velocity=100, time=8),
    Message('note_off', channel=1, note=47, velocity=100, time=184),
    Message('note_on', channel=1, note=54, velocity=100, time=8),
    Message('note_off', channel=1, note=54, velocity=100, time=184),
    Message('note_on', channel=1, note=47, velocity=100, time=8),
    Message('note_off', channel=1, note=47, velocity=100, time=184),
    Message('note_on', channel=1, note=47, velocity=100, time=8),
    Message('note_off', channel=1, note=47, velocity=100, time=184),
    Message('note_on', channel=1, note=55, velocity=100, time=8),
    Message('note_off', channel=1, note=55, velocity=100, time=184),
    Message('note_on', channel=1, note=47, velocity=100, time=8),
    Message('note_off', channel=1, note=47, velocity=100, time=184),
    Message('note_on', channel=1, note=47, velocity=100, time=8),
    Message('note_off', channel=1, note=47, velocity=100, time=184),
    Message('note_on', channel=1, note=54, velocity=100, time=8),
    Message('note_off', channel=1, note=54, velocity=100, time=184),
    Message('note_on', channel=1, note=47, velocity=100, time=8),
    Message('note_off', channel=1, note=47, velocity=100, time=184),
    Message('note_on', channel=1, note=47, velocity=100, time=8),
    Message('note_off', channel=1, note=47, velocity=100, time=184),
    Message('note_on', channel=1, note=52, velocity=100, time=8),
    Message('note_off', channel=1, note=52, velocity=100, time=184),
    Message('note_on', channel=1, note=47, velocity=100, time=8),
    Message('note_off', channel=1, note=47, velocity=100, time=184),
    Message('note_on', channel=1, note=47, velocity=100, time=8),
    Message('note_off', channel=1, note=47, velocity=100, time=184),
    Message('note_on', channel=1, note=54, velocity=100, time=8),
    Message('note_off', channel=1, note=54, velocity=100, time=184),
    Message('note_on', channel=1, note=47, velocity=100, time=8),
    Message('note_off', channel=1, note=47, velocity=100, time=184),
    Message('note_on', channel=1, note=45, velocity=100, time=8),
    Message('note_off', channel=1, note=45, velocity=100, time=184),
    Message('note_on', channel=1, note=45, velocity=100, time=8),
    Message('note_off', channel=1, note=45, velocity=100, time=184),
    Message('note_on', channel=1, note=52, velocity=100, time=8),
    Message('note_off', channel=1, note=52, velocity=100, time=184),
    Message('note_on', channel=1, note=52, velocity=100, time=8),
    Message('note_off', channel=1, note=52, velocity=100, time=184),
    Message('note_on', channel=1, note=52, velocity=100, time=8),
    Message('note_off', channel=1, note=52, velocity=100, time=184),
    Message('note_on', channel=1, note=49, velocity=100, time=8),
    Message('note_off', channel=1, note=49, velocity=100, time=568),
    Message('note_on', channel=1, note=42, velocity=100, time=8),
    Message('note_off', channel=1, note=42, velocity=100, time=184),
    Message('note_on', channel=1, note=42, velocity=100, time=8),
    Message('note_off', channel=1, note=42, velocity=100, time=184),
    Message('note_on', channel=1, note=49, velocity=100, time=8),
    Message('note_off', channel=1, note=49, velocity=100, time=184),
    Message('note_on', channel=1, note=42, velocity=100, time=8),
    Message('note_off', channel=1, note=42, velocity=100, time=184),
    Message('note_on', channel=1, note=50, velocity=100, time=8),
    Message('note_off', channel=1, note=50, velocity=100, time=184),
    Message('note_on', channel=1, note=49, velocity=100, time=8),
    Message('note_off', channel=1, note=49, velocity=100, time=568),
    Message('note_on', channel=1, note=64, velocity=100, time=8),
    Message('note_on', channel=1, note=52, velocity=100, time=0),
    Message('note_on', channel=1, note=59, velocity=100, time=0),
    Message('note_off', channel=1, note=64, velocity=100, time=376),
    Message('note_off', channel=1, note=52, velocity=100, time=0),
    Message('note_off', channel=1, note=59, velocity=100, time=0),
    Message('note_on', channel=1, note=40, velocity=100, time=8),
    Message('note_off', channel=1, note=40, velocity=100, time=184),
    Message('note_on', channel=1, note=40, velocity=100, time=8),
    Message('note_off', channel=1, note=40, velocity=100, time=184),
    Message('note_on', channel=1, note=53, velocity=100, time=8),
    Message('note_on', channel=1, note=60, velocity=100, time=0),
    Message('note_on', channel=1, note=65, velocity=100, time=0),
    Message('note_off', channel=1, note=53, velocity=100, time=760),
    Message('note_off', channel=1, note=60, velocity=100, time=0),
    Message('note_off', channel=1, note=65, velocity=100, time=0),
    Message('note_on', channel=1, note=52, velocity=100, time=8),
    Message('note_on', channel=1, note=59, velocity=100, time=0),
    Message('note_on', channel=1, note=64, velocity=100, time=0),
    Message('note_off', channel=1, note=52, velocity=100, time=376),
    Message('note_off', channel=1, note=59, velocity=100, time=0),
    Message('note_off', channel=1, note=64, velocity=100, time=0),
    Message('note_on', channel=1, note=40, velocity=100, time=8),
    Message('note_off', channel=1, note=40, velocity=100, time=184),
    Message('note_on', channel=1, note=40, velocity=100, time=8),
    Message('note_off', channel=1, note=40, velocity=100, time=184),
    Message('note_on', channel=1, note=62, velocity=100, time=8),
    Message('note_on', channel=1, note=57, velocity=100, time=0),
    Message('note_on', channel=1, note=50, velocity=100, time=0),
    Message('note_off', channel=1, note=62, velocity=100, time=760),
    Message('note_off', channel=1, note=57, velocity=100, time=0),
    Message('note_off', channel=1, note=50, velocity=100, time=0),
    Message('note_on', channel=1, note=52, velocity=100, time=8),
    Message('note_on', channel=1, note=59, velocity=100, time=0),
    Message('note_on', channel=1, note=64, velocity=100, time=0),
    Message('note_off', channel=1, note=52, velocity=100, time=376),
    Message('note_off', channel=1, note=59, velocity=100, time=0),
    Message('note_off', channel=1, note=64, velocity=100, time=0),
    Message('note_on', channel=1, note=40, velocity=100, time=8),
    Message('note_off', channel=1, note=40, velocity=100, time=184),
    Message('note_on', channel=1, note=40, velocity=100, time=8),
    Message('note_off', channel=1, note=40, velocity=100, time=184),
    Message('note_on', channel=1, note=59, velocity=100, time=8),
    Message('note_on', channel=1, note=54, velocity=100, time=0),
    Message('note_off', channel=1, note=59, velocity=100, time=760),
    Message('note_off', channel=1, note=54, velocity=100, time=0),
    Message('note_on', channel=1, note=50, velocity=100, time=8),
    Message('note_on', channel=1, note=57, velocity=100, time=0),
    Message('note_on', channel=1, note=62, velocity=100, time=0),
    Message('note_off', channel=1, note=50, velocity=100, time=1528),
    Message('note_off', channel=1, note=57, velocity=100, time=0),
    Message('note_off', channel=1, note=62, velocity=100, time=0),
    Message('note_on', channel=1, note=52, velocity=100, time=8),
    Message('note_on', channel=1, note=59, velocity=100, time=0),
    Message('note_on', channel=1, note=64, velocity=100, time=0),
    Message('note_off', channel=1, note=52, velocity=100, time=376),
    Message('note_off', channel=1, note=59, velocity=100, time=0),
    Message('note_off', channel=1, note=64, velocity=100, time=0),
    Message('note_on', channel=1, note=40, velocity=100, time=8),
    Message('note_off', channel=1, note=40, velocity=100, time=184),
    Message('note_on', channel=1, note=40, velocity=100, time=8),
    Message('note_off', channel=1, note=40, velocity=100, time=184),
    Message('note_on', channel=1, note=53, velocity=100, time=8),
    Message('note_on', channel=1, note=60, velocity=100, time=0),
    Message('note_on', channel=1, note=65, velocity=100, time=0),
    Message('note_off', channel=1, note=53, velocity=100, time=760),
    Message('note_off', channel=1, note=60, velocity=100, time=0),
    Message('note_off', channel=1, note=65, velocity=100, time=0),
    Message('note_on', channel=1, note=52, velocity=100, time=8),
    Message('note_on', channel=1, note=59, velocity=100, time=0),
    Message('note_on', channel=1, note=64, velocity=100, time=0),
    Message('note_off', channel=1, note=52, velocity=100, time=376),
    Message('note_off', channel=1, note=59, velocity=100, time=0),
    Message('note_off', channel=1, note=64, velocity=100, time=0),
    Message('note_on', channel=1, note=40, velocity=100, time=8),
    Message('note_off', channel=1, note=40, velocity=100, time=184),
    Message('note_on', channel=1, note=40, velocity=100, time=8),
    Message('note_off', channel=1, note=40, velocity=100, time=184),
    Message('note_on', channel=1, note=62, velocity=100, time=8),
    Message('note_on', channel=1, note=57, velocity=100, time=0),
    Message('note_on', channel=1, note=50, velocity=100, time=0),
    Message('note_off', channel=1, note=62, velocity=100, time=760),
    Message('note_off', channel=1, note=57, velocity=100, time=0),
    Message('note_off', channel=1, note=50, velocity=100, time=0),
    Message('note_on', channel=1, note=52, velocity=100, time=8),
    Message('note_on', channel=1, note=59, velocity=100, time=0),
    Message('note_on', channel=1, note=64, velocity=100, time=0),
    Message('note_off', channel=1, note=52, velocity=100, time=376),
    Message('note_off', channel=1, note=59, velocity=100, time=0),
    Message('note_off', channel=1, note=64, velocity=100, time=0),
    Message('note_on', channel=1, note=40, velocity=100, time=8),
    Message('note_off', channel=1, note=40, velocity=100, time=184),
    Message('note_on', channel=1, note=40, velocity=100, time=8),
    Message('note_off', channel=1, note=40, velocity=100, time=184),
    Message('note_on', channel=1, note=47, velocity=100, time=8),
    Message('note_on', channel=1, note=59, velocity=100, time=0),
    Message('note_on', channel=1, note=54, velocity=100, time=0),
    Message('note_off', channel=1, note=47, velocity=100, time=760),
    Message('note_off', channel=1, note=59, velocity=100, time=0),
    Message('note_off', channel=1, note=54, velocity=100, time=0),
    Message('note_on', channel=1, note=47, velocity=100, time=8),
    Message('note_off', channel=1, note=47, velocity=100, time=184),
    Message('note_on', channel=1, note=47, velocity=100, time=8),
    Message('note_off', channel=1, note=47, velocity=100, time=184),
    Message('note_on', channel=1, note=57, velocity=100, time=8),
    Message('note_on', channel=1, note=66, velocity=100, time=0),
    Message('note_on', channel=1, note=62, velocity=100, time=0),
    Message('note_off', channel=1, note=57, velocity=100, time=376),
    Message('note_off', channel=1, note=66, velocity=100, time=0),
    Message('note_off', channel=1, note=62, velocity=100, time=0),
    Message('note_on', channel=1, note=47, velocity=100, time=8),
    Message('note_off', channel=1, note=47, velocity=100, time=184),
    Message('note_on', channel=1, note=47, velocity=100, time=8),
    Message('note_off', channel=1, note=47, velocity=100, time=184),
    Message('note_on', channel=1, note=66, velocity=100, time=8),
    Message('note_on', channel=1, note=62, velocity=100, time=0),
    Message('note_on', channel=1, note=57, velocity=100, time=0),
    Message('note_off', channel=1, note=66, velocity=100, time=376),
    Message('note_off', channel=1, note=62, velocity=100, time=0),
    Message('note_off', channel=1, note=57, velocity=100, time=0),
    Message('pitchwheel', channel=1, pitch=0, time=8),
    Message('note_on', channel=1, note=47, velocity=100, time=0),
    Message('note_off', channel=1, note=47, velocity=100, time=184),
    Message('note_on', channel=1, note=47, velocity=100, time=8),
    Message('note_off', channel=1, note=47, velocity=100, time=184),
    Message('note_on', channel=1, note=47, velocity=100, time=8),
    Message('note_off', channel=1, note=47, velocity=100, time=184),
    Message('note_on', channel=1, note=47, velocity=100, time=8),
    Message('note_off', channel=1, note=47, velocity=100, time=184),
    Message('note_on', channel=1, note=47, velocity=100, time=8),
    Message('note_off', channel=1, note=47, velocity=100, time=184),
    Message('note_on', channel=1, note=47, velocity=100, time=8),
    Message('note_off', channel=1, note=47, velocity=100, time=184),
    Message('note_on', channel=1, note=47, velocity=100, time=8),
    Message('note_off', channel=1, note=47, velocity=100, time=184),
    Message('note_on', channel=1, note=47, velocity=100, time=8),
    Message('note_off', channel=1, note=47, velocity=100, time=184),
    Message('note_on', channel=1, note=47, velocity=100, time=8),
    Message('note_off', channel=1, note=47, velocity=100, time=184),
    Message('note_on', channel=1, note=47, velocity=100, time=8),
    Message('note_off', channel=1, note=47, velocity=100, time=184),
    Message('note_on', channel=1, note=47, velocity=100, time=8),
    Message('note_off', channel=1, note=47, velocity=100, time=184),
    Message('note_on', channel=1, note=47, velocity=100, time=8),
    Message('note_off', channel=1, note=47, velocity=100, time=184),
    Message('note_on', channel=1, note=47, velocity=100, time=8),
    Message('note_off', channel=1, note=47, velocity=100, time=184),
    Message('note_on', channel=1, note=47, velocity=100, time=8),
    Message('note_off', channel=1, note=47, velocity=100, time=184),
    Message('note_on', channel=1, note=47, velocity=100, time=8),
    Message('note_off', channel=1, note=47, velocity=100, time=184),
    Message('note_on', channel=1, note=47, velocity=100, time=8),
    Message('note_off', channel=1, note=47, velocity=100, time=184),
    Message('note_on', channel=1, note=47, velocity=100, time=8),
    Message('note_off', channel=1, note=47, velocity=100, time=184),
    Message('note_on', channel=1, note=47, velocity=100, time=8),
    Message('note_off', channel=1, note=47, velocity=100, time=184),
    Message('note_on', channel=1, note=47, velocity=100, time=8),
    Message('note_off', channel=1, note=47, velocity=100, time=184),
    Message('note_on', channel=1, note=47, velocity=100, time=8),
    Message('note_off', channel=1, note=47, velocity=100, time=184),
    Message('note_on', channel=1, note=47, velocity=100, time=8),
    Message('note_off', channel=1, note=47, velocity=100, time=184),
    Message('note_on', channel=1, note=47, velocity=100, time=8),
    Message('note_off', channel=1, note=47, velocity=100, time=184),
    Message('note_on', channel=1, note=47, velocity=100, time=8),
    Message('note_off', channel=1, note=47, velocity=100, time=184),
    Message('note_on', channel=1, note=47, velocity=100, time=8),
    Message('note_off', channel=1, note=47, velocity=100, time=184),
    Message('note_on', channel=1, note=47, velocity=100, time=8),
    Message('note_off', channel=1, note=47, velocity=100, time=184),
    Message('note_on', channel=1, note=47, velocity=100, time=8),
    Message('note_off', channel=1, note=47, velocity=100, time=184),
    Message('note_on', channel=1, note=47, velocity=100, time=8),
    Message('note_off', channel=1, note=47, velocity=100, time=184),
    Message('note_on', channel=1, note=47, velocity=100, time=8),
    Message('note_off', channel=1, note=47, velocity=100, time=184),
    Message('note_on', channel=1, note=47, velocity=100, time=8),
    Message('note_off', channel=1, note=47, velocity=100, time=184),
    Message('note_on', channel=1, note=47, velocity=100, time=8),
    Message('note_off', channel=1, note=47, velocity=100, time=184),
    Message('note_on', channel=1, note=47, velocity=100, time=8),
    Message('note_off', channel=1, note=47, velocity=100, time=184),
    Message('note_on', channel=1, note=47, velocity=100, time=8),
    Message('note_off', channel=1, note=47, velocity=100, time=184),
    Message('note_on', channel=1, note=45, velocity=100, time=8),
    Message('note_off', channel=1, note=45, velocity=100, time=184),
    Message('note_on', channel=1, note=45, velocity=100, time=8),
    Message('note_off', channel=1, note=45, velocity=100, time=184),
    Message('note_on', channel=1, note=45, velocity=100, time=8),
    Message('note_off', channel=1, note=45, velocity=100, time=184),
    Message('note_on', channel=1, note=45, velocity=100, time=8),
    Message('note_off', channel=1, note=45, velocity=100, time=184),
    Message('note_on', channel=1, note=45, velocity=100, time=8),
    Message('note_off', channel=1, note=45, velocity=100, time=184),
    Message('note_on', channel=1, note=45, velocity=100, time=8),
    Message('note_off', channel=1, note=45, velocity=100, time=184),
    Message('note_on', channel=1, note=45, velocity=100, time=8),
    Message('note_off', channel=1, note=45, velocity=100, time=184),
    Message('note_on', channel=1, note=45, velocity=100, time=8),
    Message('note_off', channel=1, note=45, velocity=100, time=184),
    Message('note_on', channel=1, note=45, velocity=100, time=8),
    Message('note_off', channel=1, note=45, velocity=100, time=184),
    Message('note_on', channel=1, note=45, velocity=100, time=8),
    Message('note_off', channel=1, note=45, velocity=100, time=184),
    Message('note_on', channel=1, note=45, velocity=100, time=8),
    Message('note_off', channel=1, note=45, velocity=100, time=184),
    Message('note_on', channel=1, note=45, velocity=100, time=8),
    Message('note_off', channel=1, note=45, velocity=100, time=184),
    Message('note_on', channel=1, note=45, velocity=100, time=8),
    Message('note_off', channel=1, note=45, velocity=100, time=184),
    Message('note_on', channel=1, note=45, velocity=100, time=8),
    Message('note_off', channel=1, note=45, velocity=100, time=184),
    Message('note_on', channel=1, note=45, velocity=100, time=8),
    Message('note_off', channel=1, note=45, velocity=100, time=184),
    Message('note_on', channel=1, note=45, velocity=100, time=8),
    Message('note_off', channel=1, note=45, velocity=100, time=184),
    Message('note_on', channel=1, note=50, velocity=100, time=8),
    Message('note_off', channel=1, note=50, velocity=100, time=184),
    Message('note_on', channel=1, note=49, velocity=100, time=8),
    Message('note_off', channel=1, note=49, velocity=100, time=184),
    Message('note_on', channel=1, note=47, velocity=100, time=8),
    Message('note_off', channel=1, note=47, velocity=100, time=376),
    Message('note_on', channel=1, note=47, velocity=100, time=8),
    Message('note_off', channel=1, note=47, velocity=100, time=184),
    Message('note_on', channel=1, note=47, velocity=100, time=8),
    Message('note_off', channel=1, note=47, velocity=100, time=184),
    Message('note_on', channel=1, note=62, velocity=100, time=8),
    Message('note_on', channel=1, note=57, velocity=100, time=0),
    Message('note_on', channel=1, note=50, velocity=100, time=0),
    Message('note_off', channel=1, note=62, velocity=100, time=376),
    Message('note_off', channel=1, note=57, velocity=100, time=0),
    Message('note_off', channel=1, note=50, velocity=100, time=0),
    Message('note_on', channel=1, note=47, velocity=100, time=8),
    Message('note_off', channel=1, note=47, velocity=100, time=184),
    Message('note_on', channel=1, note=47, velocity=100, time=8),
    Message('note_off', channel=1, note=47, velocity=100, time=184),
    Message('note_on', channel=1, note=47, velocity=100, time=8),
    Message('note_off', channel=1, note=47, velocity=100, time=184),
    Message('note_on', channel=1, note=47, velocity=100, time=8),
    Message('note_off', channel=1, note=47, velocity=100, time=184),
    Message('note_on', channel=1, note=64, velocity=100, time=8),
    Message('note_on', channel=1, note=59, velocity=100, time=0),
    Message('note_on', channel=1, note=52, velocity=100, time=0),
    Message('note_off', channel=1, note=64, velocity=100, time=376),
    Message('note_off', channel=1, note=59, velocity=100, time=0),
    Message('note_off', channel=1, note=52, velocity=100, time=0),
    Message('note_on', channel=1, note=52, velocity=100, time=8),
    Message('note_on', channel=1, note=59, velocity=100, time=0),
    Message('note_on', channel=1, note=64, velocity=100, time=0),
    Message('note_off', channel=1, note=52, velocity=100, time=376),
    Message('note_off', channel=1, note=59, velocity=100, time=0),
    Message('note_off', channel=1, note=64, velocity=100, time=0),
    Message('pitchwheel', channel=1, pitch=0, time=8),
    Message('note_on', channel=1, note=47, velocity=100, time=0),
    Message('note_off', channel=1, note=47, velocity=100, time=184),
    Message('note_on', channel=1, note=47, velocity=100, time=8),
    Message('note_off', channel=1, note=47, velocity=100, time=184),
    Message('note_on', channel=1, note=47, velocity=100, time=8),
    Message('note_off', channel=1, note=47, velocity=100, time=184),
    Message('note_on', channel=1, note=47, velocity=100, time=8),
    Message('note_off', channel=1, note=47, velocity=100, time=184),
    Message('note_on', channel=1, note=47, velocity=100, time=8),
    Message('note_off', channel=1, note=47, velocity=100, time=184),
    Message('note_on', channel=1, note=47, velocity=100, time=8),
    Message('note_off', channel=1, note=47, velocity=100, time=184),
    Message('note_on', channel=1, note=47, velocity=100, time=8),
    Message('note_off', channel=1, note=47, velocity=100, time=184),
    Message('note_on', channel=1, note=47, velocity=100, time=8),
    Message('note_off', channel=1, note=47, velocity=100, time=184),
    Message('note_on', channel=1, note=47, velocity=100, time=8),
    Message('note_off', channel=1, note=47, velocity=100, time=184),
    Message('note_on', channel=1, note=47, velocity=100, time=8),
    Message('note_off', channel=1, note=47, velocity=100, time=184),
    Message('note_on', channel=1, note=47, velocity=100, time=8),
    Message('note_off', channel=1, note=47, velocity=100, time=184),
    Message('note_on', channel=1, note=47, velocity=100, time=8),
    Message('note_off', channel=1, note=47, velocity=100, time=184),
    Message('note_on', channel=1, note=47, velocity=100, time=8),
    Message('note_off', channel=1, note=47, velocity=100, time=184),
    Message('note_on', channel=1, note=47, velocity=100, time=8),
    Message('note_off', channel=1, note=47, velocity=100, time=184),
    Message('note_on', channel=1, note=47, velocity=100, time=8),
    Message('note_off', channel=1, note=47, velocity=100, time=184),
    Message('note_on', channel=1, note=47, velocity=100, time=8),
    Message('note_off', channel=1, note=47, velocity=100, time=184),
    Message('note_on', channel=1, note=47, velocity=100, time=8),
    Message('note_off', channel=1, note=47, velocity=100, time=184),
    Message('note_on', channel=1, note=47, velocity=100, time=8),
    Message('note_off', channel=1, note=47, velocity=100, time=184),
    Message('note_on', channel=1, note=47, velocity=100, time=8),
    Message('note_off', channel=1, note=47, velocity=100, time=184),
    Message('note_on', channel=1, note=47, velocity=100, time=8),
    Message('note_off', channel=1, note=47, velocity=100, time=184),
    Message('note_on', channel=1, note=47, velocity=100, time=8),
    Message('note_off', channel=1, note=47, velocity=100, time=184),
    Message('note_on', channel=1, note=47, velocity=100, time=8),
    Message('note_off', channel=1, note=47, velocity=100, time=184),
    Message('note_on', channel=1, note=47, velocity=100, time=8),
    Message('note_off', channel=1, note=47, velocity=100, time=184),
    Message('note_on', channel=1, note=47, velocity=100, time=8),
    Message('note_off', channel=1, note=47, velocity=100, time=184),
    Message('note_on', channel=1, note=47, velocity=100, time=8),
    Message('note_off', channel=1, note=47, velocity=100, time=184),
    Message('note_on', channel=1, note=47, velocity=100, time=8),
    Message('note_off', channel=1, note=47, velocity=100, time=184),
    Message('note_on', channel=1, note=47, velocity=100, time=8),
    Message('note_off', channel=1, note=47, velocity=100, time=184),
    Message('note_on', channel=1, note=47, velocity=100, time=8),
    Message('note_off', channel=1, note=47, velocity=100, time=184),
    Message('note_on', channel=1, note=62, velocity=100, time=8),
    Message('note_on', channel=1, note=57, velocity=100, time=0),
    Message('note_on', channel=1, note=50, velocity=100, time=0),
    Message('note_off', channel=1, note=62, velocity=100, time=184),
    Message('note_off', channel=1, note=57, velocity=100, time=0),
    Message('note_off', channel=1, note=50, velocity=100, time=0),
    Message('note_on', channel=1, note=62, velocity=100, time=8),
    Message('note_on', channel=1, note=57, velocity=100, time=0),
    Message('note_on', channel=1, note=50, velocity=100, time=0),
    Message('note_off', channel=1, note=62, velocity=100, time=568),
    Message('note_off', channel=1, note=57, velocity=100, time=0),
    Message('note_off', channel=1, note=50, velocity=100, time=0),
    Message('note_on', channel=1, note=45, velocity=100, time=8),
    Message('note_off', channel=1, note=45, velocity=100, time=184),
    Message('note_on', channel=1, note=45, velocity=100, time=8),
    Message('note_off', channel=1, note=45, velocity=100, time=184),
    Message('note_on', channel=1, note=45, velocity=100, time=8),
    Message('note_off', channel=1, note=45, velocity=100, time=184),
    Message('note_on', channel=1, note=45, velocity=100, time=8),
    Message('note_off', channel=1, note=45, velocity=100, time=184),
    Message('note_on', channel=1, note=45, velocity=100, time=8),
    Message('note_off', channel=1, note=45, velocity=100, time=184),
    Message('note_on', channel=1, note=45, velocity=100, time=8),
    Message('note_off', channel=1, note=45, velocity=100, time=184),
    Message('note_on', channel=1, note=45, velocity=100, time=8),
    Message('note_off', channel=1, note=45, velocity=100, time=184),
    Message('note_on', channel=1, note=45, velocity=100, time=8),
    Message('note_off', channel=1, note=45, velocity=100, time=184),
    Message('note_on', channel=1, note=45, velocity=100, time=8),
    Message('note_off', channel=1, note=45, velocity=100, time=184),
    Message('note_on', channel=1, note=45, velocity=100, time=8),
    Message('note_off', channel=1, note=45, velocity=100, time=184),
    Message('note_on', channel=1, note=45, velocity=100, time=8),
    Message('note_off', channel=1, note=45, velocity=100, time=184),
    Message('note_on', channel=1, note=45, velocity=100, time=8),
    Message('note_off', channel=1, note=45, velocity=100, time=184),
    Message('note_on', channel=1, note=45, velocity=100, time=8),
    Message('note_off', channel=1, note=45, velocity=100, time=184),
    Message('note_on', channel=1, note=45, velocity=100, time=8),
    Message('note_off', channel=1, note=45, velocity=100, time=184),
    Message('note_on', channel=1, note=45, velocity=100, time=8),
    Message('note_off', channel=1, note=45, velocity=100, time=184),
    Message('note_on', channel=1, note=45, velocity=100, time=8),
    Message('note_off', channel=1, note=45, velocity=100, time=184),
    Message('note_on', channel=1, note=50, velocity=100, time=8),
    Message('note_off', channel=1, note=50, velocity=100, time=184),
    Message('note_on', channel=1, note=49, velocity=100, time=8),
    Message('note_off', channel=1, note=49, velocity=100, time=184),
    Message('note_on', channel=1, note=47, velocity=100, time=8),
    Message('note_off', channel=1, note=47, velocity=100, time=376),
    Message('note_on', channel=1, note=47, velocity=100, time=8),
    Message('note_off', channel=1, note=47, velocity=100, time=184),
    Message('note_on', channel=1, note=47, velocity=100, time=8),
    Message('note_off', channel=1, note=47, velocity=100, time=184),
    Message('note_on', channel=1, note=62, velocity=100, time=8),
    Message('note_on', channel=1, note=57, velocity=100, time=0),
    Message('note_on', channel=1, note=50, velocity=100, time=0),
    Message('note_off', channel=1, note=62, velocity=100, time=376),
    Message('note_off', channel=1, note=57, velocity=100, time=0),
    Message('note_off', channel=1, note=50, velocity=100, time=0),
    Message('note_on', channel=1, note=47, velocity=100, time=8),
    Message('note_off', channel=1, note=47, velocity=100, time=184),
    Message('note_on', channel=1, note=47, velocity=100, time=8),
    Message('note_off', channel=1, note=47, velocity=100, time=184),
    Message('note_on', channel=1, note=47, velocity=100, time=8),
    Message('note_off', channel=1, note=47, velocity=100, time=184),
    Message('note_on', channel=1, note=47, velocity=100, time=8),
    Message('note_off', channel=1, note=47, velocity=100, time=184),
    Message('note_on', channel=1, note=64, velocity=100, time=8),
    Message('note_on', channel=1, note=59, velocity=100, time=0),
    Message('note_on', channel=1, note=52, velocity=100, time=0),
    Message('note_off', channel=1, note=64, velocity=100, time=376),
    Message('note_off', channel=1, note=59, velocity=100, time=0),
    Message('note_off', channel=1, note=52, velocity=100, time=0),
    Message('note_on', channel=1, note=52, velocity=100, time=8),
    Message('note_on', channel=1, note=59, velocity=100, time=0),
    Message('note_on', channel=1, note=64, velocity=100, time=0),
    Message('note_off', channel=1, note=52, velocity=100, time=376),
    Message('note_off', channel=1, note=59, velocity=100, time=0),
    Message('note_off', channel=1, note=64, velocity=100, time=0),
    Message('note_on', channel=1, note=49, velocity=100, time=8),
    Message('note_on', channel=1, note=54, velocity=100, time=0),
    Message('note_on', channel=1, note=42, velocity=100, time=0),
    Message('note_off', channel=1, note=49, velocity=100, time=376),
    Message('note_off', channel=1, note=54, velocity=100, time=0),
    Message('note_off', channel=1, note=42, velocity=100, time=0),
    Message('note_on', channel=1, note=40, velocity=100, time=8),
    Message('note_off', channel=1, note=40, velocity=100, time=184),
    Message('note_on', channel=1, note=40, velocity=100, time=8),
    Message('note_off', channel=1, note=40, velocity=100, time=184),
    Message('note_on', channel=1, note=42, velocity=100, time=8),
    Message('note_on', channel=1, note=49, velocity=100, time=0),
    Message('note_on', channel=1, note=54, velocity=100, time=0),
    Message('note_off', channel=1, note=42, velocity=100, time=376),
    Message('note_off', channel=1, note=49, velocity=100, time=0),
    Message('note_off', channel=1, note=54, velocity=100, time=0),
    Message('note_on', channel=1, note=40, velocity=100, time=8),
    Message('note_off', channel=1, note=40, velocity=100, time=184),
    Message('note_on', channel=1, note=40, velocity=100, time=8),
    Message('note_off', channel=1, note=40, velocity=100, time=184),
    Message('note_on', channel=1, note=42, velocity=100, time=8),
    Message('note_on', channel=1, note=49, velocity=100, time=0),
    Message('note_on', channel=1, note=54, velocity=100, time=0),
    Message('note_off', channel=1, note=42, velocity=100, time=376),
    Message('note_off', channel=1, note=49, velocity=100, time=0),
    Message('note_off', channel=1, note=54, velocity=100, time=0),
    Message('note_on', channel=1, note=40, velocity=100, time=8),
    Message('note_off', channel=1, note=40, velocity=100, time=184),
    Message('note_on', channel=1, note=40, velocity=100, time=8),
    Message('note_off', channel=1, note=40, velocity=100, time=184),
    Message('note_on', channel=1, note=40, velocity=100, time=8),
    Message('note_off', channel=1, note=40, velocity=100, time=184),
    Message('note_on', channel=1, note=42, velocity=100, time=8),
    Message('note_off', channel=1, note=42, velocity=100, time=184),
    Message('note_on', channel=1, note=55, velocity=100, time=8),
    Message('note_on', channel=1, note=50, velocity=100, time=0),
    Message('note_on', channel=1, note=43, velocity=100, time=0),
    Message('note_off', channel=1, note=55, velocity=100, time=376),
    Message('note_off', channel=1, note=50, velocity=100, time=0),
    Message('note_off', channel=1, note=43, velocity=100, time=0),
    Message('note_on', channel=1, note=42, velocity=100, time=8),
    Message('note_on', channel=1, note=49, velocity=100, time=0),
    Message('note_on', channel=1, note=54, velocity=100, time=0),
    Message('note_off', channel=1, note=42, velocity=100, time=376),
    Message('note_off', channel=1, note=49, velocity=100, time=0),
    Message('note_off', channel=1, note=54, velocity=100, time=0),
    Message('note_on', channel=1, note=40, velocity=100, time=8),
    Message('note_off', channel=1, note=40, velocity=100, time=184),
    Message('note_on', channel=1, note=40, velocity=100, time=8),
    Message('note_off', channel=1, note=40, velocity=100, time=184),
    Message('note_on', channel=1, note=42, velocity=100, time=8),
    Message('note_on', channel=1, note=54, velocity=100, time=0),
    Message('note_on', channel=1, note=49, velocity=100, time=0),
    Message('note_off', channel=1, note=42, velocity=100, time=376),
    Message('note_off', channel=1, note=54, velocity=100, time=0),
    Message('note_off', channel=1, note=49, velocity=100, time=0),
    Message('note_on', channel=1, note=40, velocity=100, time=8),
    Message('note_off', channel=1, note=40, velocity=100, time=184),
    Message('note_on', channel=1, note=40, velocity=100, time=8),
    Message('note_off', channel=1, note=40, velocity=100, time=184),
    Message('note_on', channel=1, note=43, velocity=100, time=8),
    Message('note_on', channel=1, note=50, velocity=100, time=0),
    Message('note_off', channel=1, note=43, velocity=100, time=184),
    Message('note_off', channel=1, note=50, velocity=100, time=0),
    Message('note_on', channel=1, note=42, velocity=100, time=8),
    Message('note_on', channel=1, note=49, velocity=100, time=0),
    Message('note_off', channel=1, note=42, velocity=100, time=184),
    Message('note_off', channel=1, note=49, velocity=100, time=0),
    Message('note_on', channel=1, note=40, velocity=100, time=8),
    Message('note_off', channel=1, note=40, velocity=100, time=376),
    Message('note_on', channel=1, note=48, velocity=100, time=8),
    Message('note_on', channel=1, note=55, velocity=100, time=0),
    Message('note_on', channel=1, note=60, velocity=100, time=0),
    Message('note_off', channel=1, note=48, velocity=100, time=760),
    Message('note_off', channel=1, note=55, velocity=100, time=0),
    Message('note_off', channel=1, note=60, velocity=100, time=0),
    Message('note_on', channel=1, note=42, velocity=100, time=8),
    Message('note_on', channel=1, note=49, velocity=100, time=0),
    Message('note_on', channel=1, note=54, velocity=100, time=0),
    Message('note_off', channel=1, note=42, velocity=100, time=376),
    Message('note_off', channel=1, note=49, velocity=100, time=0),
    Message('note_off', channel=1, note=54, velocity=100, time=0),
    Message('note_on', channel=1, note=40, velocity=100, time=8),
    Message('note_off', channel=1, note=40, velocity=100, time=184),
    Message('note_on', channel=1, note=40, velocity=100, time=8),
    Message('note_off', channel=1, note=40, velocity=100, time=184),
    Message('note_on', channel=1, note=54, velocity=100, time=8),
    Message('note_on', channel=1, note=49, velocity=100, time=0),
    Message('note_on', channel=1, note=42, velocity=100, time=0),
    Message('note_off', channel=1, note=54, velocity=100, time=376),
    Message('note_off', channel=1, note=49, velocity=100, time=0),
    Message('note_off', channel=1, note=42, velocity=100, time=0),
    Message('note_on', channel=1, note=40, velocity=100, time=8),
    Message('note_off', channel=1, note=40, velocity=100, time=184),
    Message('note_on', channel=1, note=40, velocity=100, time=8),
    Message('note_off', channel=1, note=40, velocity=100, time=184),
    Message('note_on', channel=1, note=42, velocity=100, time=8),
    Message('note_on', channel=1, note=49, velocity=100, time=0),
    Message('note_on', channel=1, note=54, velocity=100, time=0),
    Message('note_off', channel=1, note=42, velocity=100, time=376),
    Message('note_off', channel=1, note=49, velocity=100, time=0),
    Message('note_off', channel=1, note=54, velocity=100, time=0),
    Message('note_on', channel=1, note=40, velocity=100, time=8),
    Message('note_off', channel=1, note=40, velocity=100, time=184),
    Message('note_on', channel=1, note=40, velocity=100, time=8),
    Message('note_off', channel=1, note=40, velocity=100, time=184),
    Message('note_on', channel=1, note=40, velocity=100, time=8),
    Message('note_off', channel=1, note=40, velocity=100, time=184),
    Message('note_on', channel=1, note=42, velocity=100, time=8),
    Message('note_off', channel=1, note=42, velocity=100, time=184),
    Message('note_on', channel=1, note=55, velocity=100, time=8),
    Message('note_on', channel=1, note=50, velocity=100, time=0),
    Message('note_on', channel=1, note=43, velocity=100, time=0),
    Message('note_off', channel=1, note=55, velocity=100, time=376),
    Message('note_off', channel=1, note=50, velocity=100, time=0),
    Message('note_off', channel=1, note=43, velocity=100, time=0),
    Message('note_on', channel=1, note=42, velocity=100, time=8),
    Message('note_on', channel=1, note=49, velocity=100, time=0),
    Message('note_on', channel=1, note=54, velocity=100, time=0),
    Message('note_off', channel=1, note=42, velocity=100, time=376),
    Message('note_off', channel=1, note=49, velocity=100, time=0),
    Message('note_off', channel=1, note=54, velocity=100, time=0),
    Message('note_on', channel=1, note=40, velocity=100, time=8),
    Message('note_off', channel=1, note=40, velocity=100, time=184),
    Message('note_on', channel=1, note=40, velocity=100, time=8),
    Message('note_off', channel=1, note=40, velocity=100, time=184),
    Message('note_on', channel=1, note=54, velocity=100, time=8),
    Message('note_on', channel=1, note=49, velocity=100, time=0),
    Message('note_on', channel=1, note=42, velocity=100, time=0),
    Message('note_off', channel=1, note=54, velocity=100, time=376),
    Message('note_off', channel=1, note=49, velocity=100, time=0),
    Message('note_off', channel=1, note=42, velocity=100, time=0),
    Message('note_on', channel=1, note=40, velocity=100, time=8),
    Message('note_off', channel=1, note=40, velocity=100, time=184),
    Message('note_on', channel=1, note=40, velocity=100, time=8),
    Message('note_off', channel=1, note=40, velocity=100, time=184),
    Message('note_on', channel=1, note=42, velocity=100, time=8),
    Message('note_off', channel=1, note=42, velocity=100, time=184),
    Message('note_on', channel=1, note=42, velocity=100, time=8),
    Message('note_off', channel=1, note=42, velocity=100, time=184),
    Message('note_on', channel=1, note=42, velocity=100, time=8),
    Message('note_off', channel=1, note=42, velocity=100, time=184),
    Message('note_on', channel=1, note=42, velocity=100, time=8),
    Message('note_off', channel=1, note=42, velocity=100, time=184),
    Message('note_on', channel=1, note=49, velocity=100, time=8),
    Message('note_off', channel=1, note=49, velocity=100, time=184),
    Message('note_on', channel=1, note=47, velocity=100, time=8),
    Message('note_off', channel=1, note=47, velocity=100, time=184),
    Message('note_on', channel=1, note=45, velocity=100, time=8),
    Message('note_off', channel=1, note=45, velocity=100, time=376),
    Message('note_on', channel=1, note=47, velocity=100, time=8),
    Message('note_off', channel=1, note=47, velocity=100, time=184),
    Message('note_on', channel=1, note=47, velocity=100, time=8),
    Message('note_off', channel=1, note=47, velocity=100, time=184),
    Message('note_on', channel=1, note=54, velocity=100, time=8),
    Message('note_off', channel=1, note=54, velocity=100, time=184),
    Message('note_on', channel=1, note=47, velocity=100, time=8),
    Message('note_off', channel=1, note=47, velocity=100, time=184),
    Message('note_on', channel=1, note=47, velocity=100, time=8),
    Message('note_off', channel=1, note=47, velocity=100, time=184),
    Message('note_on', channel=1, note=55, velocity=100, time=8),
    Message('note_off', channel=1, note=55, velocity=100, time=184),
    Message('note_on', channel=1, note=47, velocity=100, time=8),
    Message('note_off', channel=1, note=47, velocity=100, time=184),
    Message('note_on', channel=1, note=47, velocity=100, time=8),
    Message('note_off', channel=1, note=47, velocity=100, time=184),
    Message('note_on', channel=1, note=54, velocity=100, time=8),
    Message('note_off', channel=1, note=54, velocity=100, time=184),
    Message('note_on', channel=1, note=47, velocity=100, time=8),
    Message('note_off', channel=1, note=47, velocity=100, time=184),
    Message('note_on', channel=1, note=47, velocity=100, time=8),
    Message('note_off', channel=1, note=47, velocity=100, time=184),
    Message('note_on', channel=1, note=52, velocity=100, time=8),
    Message('note_off', channel=1, note=52, velocity=100, time=184),
    Message('note_on', channel=1, note=47, velocity=100, time=8),
    Message('note_off', channel=1, note=47, velocity=100, time=184),
    Message('note_on', channel=1, note=47, velocity=100, time=8),
    Message('note_off', channel=1, note=47, velocity=100, time=184),
    Message('note_on', channel=1, note=54, velocity=100, time=8),
    Message('note_off', channel=1, note=54, velocity=100, time=184),
    Message('note_on', channel=1, note=47, velocity=100, time=8),
    Message('note_off', channel=1, note=47, velocity=100, time=184),
    Message('note_on', channel=1, note=45, velocity=100, time=8),
    Message('note_off', channel=1, note=45, velocity=100, time=184),
    Message('note_on', channel=1, note=45, velocity=100, time=8),
    Message('note_off', channel=1, note=45, velocity=100, time=184),
    Message('note_on', channel=1, note=52, velocity=100, time=8),
    Message('note_off', channel=1, note=52, velocity=100, time=184),
    Message('note_on', channel=1, note=45, velocity=100, time=8),
    Message('note_off', channel=1, note=45, velocity=100, time=184),
    Message('note_on', channel=1, note=45, velocity=100, time=8),
    Message('note_off', channel=1, note=45, velocity=100, time=184),
    Message('note_on', channel=1, note=49, velocity=100, time=8),
    Message('note_off', channel=1, note=49, velocity=100, time=184),
    Message('note_on', channel=1, note=42, velocity=100, time=8),
    Message('note_off', channel=1, note=42, velocity=100, time=184),
    Message('note_on', channel=1, note=42, velocity=100, time=8),
    Message('note_off', channel=1, note=42, velocity=100, time=184),
    Message('note_on', channel=1, note=42, velocity=100, time=8),
    Message('note_off', channel=1, note=42, velocity=100, time=184),
    Message('note_on', channel=1, note=42, velocity=100, time=8),
    Message('note_off', channel=1, note=42, velocity=100, time=184),
    Message('note_on', channel=1, note=49, velocity=100, time=8),
    Message('note_off', channel=1, note=49, velocity=100, time=184),
    Message('note_on', channel=1, note=42, velocity=100, time=8),
    Message('note_off', channel=1, note=42, velocity=100, time=184),
    Message('note_on', channel=1, note=50, velocity=100, time=8),
    Message('note_off', channel=1, note=50, velocity=100, time=184),
    Message('note_on', channel=1, note=42, velocity=100, time=8),
    Message('note_off', channel=1, note=42, velocity=100, time=184),
    Message('note_on', channel=1, note=49, velocity=100, time=8),
    Message('note_off', channel=1, note=49, velocity=100, time=184),
    Message('note_on', channel=1, note=42, velocity=100, time=8),
    Message('note_off', channel=1, note=42, velocity=100, time=184),
    Message('note_on', channel=1, note=47, velocity=100, time=8),
    Message('note_off', channel=1, note=47, velocity=100, time=184),
    Message('note_on', channel=1, note=47, velocity=100, time=8),
    Message('note_off', channel=1, note=47, velocity=100, time=184),
    Message('note_on', channel=1, note=54, velocity=100, time=8),
    Message('note_off', channel=1, note=54, velocity=100, time=184),
    Message('note_on', channel=1, note=47, velocity=100, time=8),
    Message('note_off', channel=1, note=47, velocity=100, time=184),
    Message('note_on', channel=1, note=47, velocity=100, time=8),
    Message('note_off', channel=1, note=47, velocity=100, time=184),
    Message('note_on', channel=1, note=55, velocity=100, time=8),
    Message('note_off', channel=1, note=55, velocity=100, time=184),
    Message('note_on', channel=1, note=47, velocity=100, time=8),
    Message('note_off', channel=1, note=47, velocity=100, time=184),
    Message('note_on', channel=1, note=47, velocity=100, time=8),
    Message('note_off', channel=1, note=47, velocity=100, time=184),
    Message('note_on', channel=1, note=54, velocity=100, time=8),
    Message('note_off', channel=1, note=54, velocity=100, time=184),
    Message('note_on', channel=1, note=47, velocity=100, time=8),
    Message('note_off', channel=1, note=47, velocity=100, time=184),
    Message('note_on', channel=1, note=47, velocity=100, time=8),
    Message('note_off', channel=1, note=47, velocity=100, time=184),
    Message('note_on', channel=1, note=52, velocity=100, time=8),
    Message('note_off', channel=1, note=52, velocity=100, time=184),
    Message('note_on', channel=1, note=47, velocity=100, time=8),
    Message('note_off', channel=1, note=47, velocity=100, time=184),
    Message('note_on', channel=1, note=47, velocity=100, time=8),
    Message('note_off', channel=1, note=47, velocity=100, time=184),
    Message('note_on', channel=1, note=54, velocity=100, time=8),
    Message('note_off', channel=1, note=54, velocity=100, time=184),
    Message('note_on', channel=1, note=47, velocity=100, time=8),
    Message('note_off', channel=1, note=47, velocity=100, time=184),
    Message('note_on', channel=1, note=45, velocity=100, time=8),
    Message('note_off', channel=1, note=45, velocity=100, time=184),
    Message('note_on', channel=1, note=45, velocity=100, time=8),
    Message('note_off', channel=1, note=45, velocity=100, time=184),
    Message('note_on', channel=1, note=52, velocity=100, time=8),
    Message('note_off', channel=1, note=52, velocity=100, time=184),
    Message('note_on', channel=1, note=52, velocity=100, time=8),
    Message('note_off', channel=1, note=52, velocity=100, time=184),
    Message('note_on', channel=1, note=52, velocity=100, time=8),
    Message('note_off', channel=1, note=52, velocity=100, time=184),
    Message('note_on', channel=1, note=49, velocity=100, time=8),
    Message('note_off', channel=1, note=49, velocity=100, time=568),
    Message('note_on', channel=1, note=42, velocity=100, time=8),
    Message('note_off', channel=1, note=42, velocity=100, time=184),
    Message('note_on', channel=1, note=42, velocity=100, time=8),
    Message('note_off', channel=1, note=42, velocity=100, time=184),
    Message('note_on', channel=1, note=49, velocity=100, time=8),
    Message('note_off', channel=1, note=49, velocity=100, time=184),
    Message('note_on', channel=1, note=42, velocity=100, time=8),
    Message('note_off', channel=1, note=42, velocity=100, time=184),
    Message('note_on', channel=1, note=50, velocity=100, time=8),
    Message('note_off', channel=1, note=50, velocity=100, time=184),
    Message('note_on', channel=1, note=49, velocity=100, time=8),
    Message('note_off', channel=1, note=49, velocity=100, time=568),
    Message('note_on', channel=1, note=64, velocity=100, time=8),
    Message('note_on', channel=1, note=52, velocity=100, time=0),
    Message('note_on', channel=1, note=59, velocity=100, time=0),
    Message('note_off', channel=1, note=64, velocity=100, time=376),
    Message('note_off', channel=1, note=52, velocity=100, time=0),
    Message('note_off', channel=1, note=59, velocity=100, time=0),
    Message('note_on', channel=1, note=40, velocity=100, time=8),
    Message('note_off', channel=1, note=40, velocity=100, time=184),
    Message('note_on', channel=1, note=40, velocity=100, time=8),
    Message('note_off', channel=1, note=40, velocity=100, time=184),
    Message('note_on', channel=1, note=53, velocity=100, time=8),
    Message('note_on', channel=1, note=60, velocity=100, time=0),
    Message('note_on', channel=1, note=65, velocity=100, time=0),
    Message('note_off', channel=1, note=53, velocity=100, time=760),
    Message('note_off', channel=1, note=60, velocity=100, time=0),
    Message('note_off', channel=1, note=65, velocity=100, time=0),
    Message('note_on', channel=1, note=52, velocity=100, time=8),
    Message('note_on', channel=1, note=59, velocity=100, time=0),
    Message('note_on', channel=1, note=64, velocity=100, time=0),
    Message('note_off', channel=1, note=52, velocity=100, time=376),
    Message('note_off', channel=1, note=59, velocity=100, time=0),
    Message('note_off', channel=1, note=64, velocity=100, time=0),
    Message('note_on', channel=1, note=40, velocity=100, time=8),
    Message('note_off', channel=1, note=40, velocity=100, time=184),
    Message('note_on', channel=1, note=40, velocity=100, time=8),
    Message('note_off', channel=1, note=40, velocity=100, time=184),
    Message('note_on', channel=1, note=62, velocity=100, time=8),
    Message('note_on', channel=1, note=57, velocity=100, time=0),
    Message('note_on', channel=1, note=50, velocity=100, time=0),
    Message('note_off', channel=1, note=62, velocity=100, time=760),
    Message('note_off', channel=1, note=57, velocity=100, time=0),
    Message('note_off', channel=1, note=50, velocity=100, time=0),
    Message('note_on', channel=1, note=52, velocity=100, time=8),
    Message('note_on', channel=1, note=59, velocity=100, time=0),
    Message('note_on', channel=1, note=64, velocity=100, time=0),
    Message('note_off', channel=1, note=52, velocity=100, time=376),
    Message('note_off', channel=1, note=59, velocity=100, time=0),
    Message('note_off', channel=1, note=64, velocity=100, time=0),
    Message('note_on', channel=1, note=40, velocity=100, time=8),
    Message('note_off', channel=1, note=40, velocity=100, time=184),
    Message('note_on', channel=1, note=40, velocity=100, time=8),
    Message('note_off', channel=1, note=40, velocity=100, time=184),
    Message('note_on', channel=1, note=59, velocity=100, time=8),
    Message('note_on', channel=1, note=54, velocity=100, time=0),
    Message('note_off', channel=1, note=59, velocity=100, time=760),
    Message('note_off', channel=1, note=54, velocity=100, time=0),
    Message('note_on', channel=1, note=50, velocity=100, time=8),
    Message('note_on', channel=1, note=57, velocity=100, time=0),
    Message('note_on', channel=1, note=62, velocity=100, time=0),
    Message('note_off', channel=1, note=50, velocity=100, time=1528),
    Message('note_off', channel=1, note=57, velocity=100, time=0),
    Message('note_off', channel=1, note=62, velocity=100, time=0),
    Message('note_on', channel=1, note=52, velocity=100, time=8),
    Message('note_on', channel=1, note=59, velocity=100, time=0),
    Message('note_on', channel=1, note=64, velocity=100, time=0),
    Message('note_off', channel=1, note=52, velocity=100, time=376),
    Message('note_off', channel=1, note=59, velocity=100, time=0),
    Message('note_off', channel=1, note=64, velocity=100, time=0),
    Message('note_on', channel=1, note=40, velocity=100, time=8),
    Message('note_off', channel=1, note=40, velocity=100, time=184),
    Message('note_on', channel=1, note=40, velocity=100, time=8),
    Message('note_off', channel=1, note=40, velocity=100, time=184),
    Message('note_on', channel=1, note=53, velocity=100, time=8),
    Message('note_on', channel=1, note=60, velocity=100, time=0),
    Message('note_on', channel=1, note=65, velocity=100, time=0),
    Message('note_off', channel=1, note=53, velocity=100, time=760),
    Message('note_off', channel=1, note=60, velocity=100, time=0),
    Message('note_off', channel=1, note=65, velocity=100, time=0),
    Message('note_on', channel=1, note=52, velocity=100, time=8),
    Message('note_on', channel=1, note=59, velocity=100, time=0),
    Message('note_on', channel=1, note=64, velocity=100, time=0),
    Message('note_off', channel=1, note=52, velocity=100, time=376),
    Message('note_off', channel=1, note=59, velocity=100, time=0),
    Message('note_off', channel=1, note=64, velocity=100, time=0),
    Message('note_on', channel=1, note=40, velocity=100, time=8),
    Message('note_off', channel=1, note=40, velocity=100, time=184),
    Message('note_on', channel=1, note=40, velocity=100, time=8),
    Message('note_off', channel=1, note=40, velocity=100, time=184),
    Message('note_on', channel=1, note=62, velocity=100, time=8),
    Message('note_on', channel=1, note=57, velocity=100, time=0),
    Message('note_on', channel=1, note=50, velocity=100, time=0),
    Message('note_off', channel=1, note=62, velocity=100, time=760),
    Message('note_off', channel=1, note=57, velocity=100, time=0),
    Message('note_off', channel=1, note=50, velocity=100, time=0),
    Message('note_on', channel=1, note=64, velocity=100, time=8),
    Message('note_on', channel=1, note=59, velocity=100, time=0),
    Message('note_on', channel=1, note=52, velocity=100, time=0),
    Message('note_off', channel=1, note=64, velocity=100, time=760),
    Message('note_off', channel=1, note=59, velocity=100, time=0),
    Message('note_off', channel=1, note=52, velocity=100, time=0),
    Message('note_on', channel=1, note=47, velocity=100, time=8),
    Message('note_on', channel=1, note=59, velocity=100, time=0),
    Message('note_on', channel=1, note=54, velocity=100, time=0),
    Message('note_off', channel=1, note=47, velocity=100, time=760),
    Message('note_off', channel=1, note=59, velocity=100, time=0),
    Message('note_off', channel=1, note=54, velocity=100, time=0),
    Message('note_on', channel=1, note=60, velocity=100, time=8),
    Message('note_on', channel=1, note=55, velocity=100, time=0),
    Message('note_on', channel=1, note=48, velocity=100, time=0),
    Message('note_off', channel=1, note=60, velocity=100, time=760),
    Message('note_off', channel=1, note=55, velocity=100, time=0),
    Message('note_off', channel=1, note=48, velocity=100, time=0),
    Message('note_on', channel=1, note=43, velocity=100, time=8),
    Message('note_on', channel=1, note=55, velocity=100, time=0),
    Message('note_on', channel=1, note=50, velocity=100, time=0),
    Message('note_off', channel=1, note=43, velocity=100, time=760),
    Message('note_off', channel=1, note=55, velocity=100, time=0),
    Message('note_off', channel=1, note=50, velocity=100, time=0),
    Message('note_on', channel=1, note=52, velocity=100, time=8),
    Message('note_on', channel=1, note=59, velocity=100, time=0),
    Message('note_on', channel=1, note=64, velocity=100, time=0),
    Message('note_off', channel=1, note=52, velocity=100, time=3072),
    Message('note_off', channel=1, note=59, velocity=100, time=0),
    Message('note_off', channel=1, note=64, velocity=100, time=0),
    Message('note_on', channel=1, note=47, velocity=100, time=0),
    Message('note_off', channel=1, note=47, velocity=100, time=184),
    Message('note_on', channel=1, note=47, velocity=100, time=8),
    Message('note_off', channel=1, note=47, velocity=100, time=184),
    Message('note_on', channel=1, note=47, velocity=100, time=8),
    Message('note_off', channel=1, note=47, velocity=100, time=184),
    Message('note_on', channel=1, note=47, velocity=100, time=8),
    Message('note_off', channel=1, note=47, velocity=100, time=184),
    Message('note_on', channel=1, note=47, velocity=100, time=8),
    Message('note_off', channel=1, note=47, velocity=100, time=184),
    Message('note_on', channel=1, note=47, velocity=100, time=8),
    Message('note_off', channel=1, note=47, velocity=100, time=184),
    Message('note_on', channel=1, note=47, velocity=100, time=8),
    Message('note_off', channel=1, note=47, velocity=100, time=184),
    Message('note_on', channel=1, note=47, velocity=100, time=8),
    Message('note_off', channel=1, note=47, velocity=100, time=184),
    Message('note_on', channel=1, note=47, velocity=100, time=8),
    Message('note_off', channel=1, note=47, velocity=100, time=184),
    Message('note_on', channel=1, note=47, velocity=100, time=8),
    Message('note_off', channel=1, note=47, velocity=100, time=184),
    Message('note_on', channel=1, note=47, velocity=100, time=8),
    Message('note_off', channel=1, note=47, velocity=100, time=184),
    Message('note_on', channel=1, note=47, velocity=100, time=8),
    Message('note_off', channel=1, note=47, velocity=100, time=184),
    Message('note_on', channel=1, note=47, velocity=100, time=8),
    Message('note_off', channel=1, note=47, velocity=100, time=184),
    Message('note_on', channel=1, note=47, velocity=100, time=8),
    Message('note_off', channel=1, note=47, velocity=100, time=184),
    Message('note_on', channel=1, note=47, velocity=100, time=8),
    Message('note_off', channel=1, note=47, velocity=100, time=184),
    Message('note_on', channel=1, note=47, velocity=100, time=8),
    Message('note_off', channel=1, note=47, velocity=100, time=184),
    Message('note_on', channel=1, note=47, velocity=100, time=8),
    Message('note_off', channel=1, note=47, velocity=100, time=184),
    Message('note_on', channel=1, note=47, velocity=100, time=8),
    Message('note_off', channel=1, note=47, velocity=100, time=184),
    Message('note_on', channel=1, note=47, velocity=100, time=8),
    Message('note_off', channel=1, note=47, velocity=100, time=184),
    Message('note_on', channel=1, note=47, velocity=100, time=8),
    Message('note_off', channel=1, note=47, velocity=100, time=184),
    Message('note_on', channel=1, note=47, velocity=100, time=8),
    Message('note_off', channel=1, note=47, velocity=100, time=184),
    Message('note_on', channel=1, note=47, velocity=100, time=8),
    Message('note_off', channel=1, note=47, velocity=100, time=184),
    Message('note_on', channel=1, note=47, velocity=100, time=8),
    Message('note_off', channel=1, note=47, velocity=100, time=184),
    Message('note_on', channel=1, note=47, velocity=100, time=8),
    Message('note_off', channel=1, note=47, velocity=100, time=184),
    Message('note_on', channel=1, note=47, velocity=100, time=8),
    Message('note_off', channel=1, note=47, velocity=100, time=184),
    Message('note_on', channel=1, note=47, velocity=100, time=8),
    Message('note_off', channel=1, note=47, velocity=100, time=184),
    Message('note_on', channel=1, note=47, velocity=100, time=8),
    Message('note_off', channel=1, note=47, velocity=100, time=184),
    Message('note_on', channel=1, note=47, velocity=100, time=8),
    Message('note_off', channel=1, note=47, velocity=100, time=184),
    Message('note_on', channel=1, note=47, velocity=100, time=8),
    Message('note_off', channel=1, note=47, velocity=100, time=184),
    Message('note_on', channel=1, note=47, velocity=100, time=8),
    Message('note_off', channel=1, note=47, velocity=100, time=184),
    Message('note_on', channel=1, note=47, velocity=100, time=8),
    Message('note_off', channel=1, note=47, velocity=100, time=184),
    Message('note_on', channel=1, note=47, velocity=100, time=8),
    Message('note_off', channel=1, note=47, velocity=100, time=184),
    Message('note_on', channel=1, note=45, velocity=100, time=8),
    Message('note_off', channel=1, note=45, velocity=100, time=184),
    Message('note_on', channel=1, note=45, velocity=100, time=8),
    Message('note_off', channel=1, note=45, velocity=100, time=184),
    Message('note_on', channel=1, note=45, velocity=100, time=8),
    Message('note_off', channel=1, note=45, velocity=100, time=184),
    Message('note_on', channel=1, note=45, velocity=100, time=8),
    Message('note_off', channel=1, note=45, velocity=100, time=184),
    Message('note_on', channel=1, note=45, velocity=100, time=8),
    Message('note_off', channel=1, note=45, velocity=100, time=184),
    Message('note_on', channel=1, note=45, velocity=100, time=8),
    Message('note_off', channel=1, note=45, velocity=100, time=184),
    Message('note_on', channel=1, note=45, velocity=100, time=8),
    Message('note_off', channel=1, note=45, velocity=100, time=184),
    Message('note_on', channel=1, note=45, velocity=100, time=8),
    Message('note_off', channel=1, note=45, velocity=100, time=184),
    Message('note_on', channel=1, note=45, velocity=100, time=8),
    Message('note_off', channel=1, note=45, velocity=100, time=184),
    Message('note_on', channel=1, note=45, velocity=100, time=8),
    Message('note_off', channel=1, note=45, velocity=100, time=184),
    Message('note_on', channel=1, note=45, velocity=100, time=8),
    Message('note_off', channel=1, note=45, velocity=100, time=184),
    Message('note_on', channel=1, note=45, velocity=100, time=8),
    Message('note_off', channel=1, note=45, velocity=100, time=184),
    Message('note_on', channel=1, note=45, velocity=100, time=8),
    Message('note_off', channel=1, note=45, velocity=100, time=184),
    Message('note_on', channel=1, note=45, velocity=100, time=8),
    Message('note_off', channel=1, note=45, velocity=100, time=184),
    Message('note_on', channel=1, note=45, velocity=100, time=8),
    Message('note_off', channel=1, note=45, velocity=100, time=184),
    Message('note_on', channel=1, note=45, velocity=100, time=8),
    Message('note_off', channel=1, note=45, velocity=100, time=184),
    Message('note_on', channel=1, note=50, velocity=100, time=8),
    Message('note_off', channel=1, note=50, velocity=100, time=184),
    Message('note_on', channel=1, note=49, velocity=100, time=8),
    Message('note_off', channel=1, note=49, velocity=100, time=184),
    Message('note_on', channel=1, note=47, velocity=100, time=8),
    Message('note_off', channel=1, note=47, velocity=100, time=184),
    Message('note_on', channel=1, note=47, velocity=100, time=8),
    Message('note_off', channel=1, note=47, velocity=100, time=184),
    Message('note_on', channel=1, note=47, velocity=100, time=8),
    Message('note_off', channel=1, note=47, velocity=100, time=184),
    Message('note_on', channel=1, note=47, velocity=100, time=8),
    Message('note_off', channel=1, note=47, velocity=100, time=184),
    Message('note_on', channel=1, note=47, velocity=100, time=8),
    Message('note_off', channel=1, note=47, velocity=100, time=184),
    Message('note_on', channel=1, note=47, velocity=100, time=8),
    Message('note_off', channel=1, note=47, velocity=100, time=184),
    Message('note_on', channel=1, note=47, velocity=100, time=8),
    Message('note_off', channel=1, note=47, velocity=100, time=184),
    Message('note_on', channel=1, note=47, velocity=100, time=8),
    Message('note_off', channel=1, note=47, velocity=100, time=184),
    Message('note_on', channel=1, note=47, velocity=100, time=8),
    Message('note_off', channel=1, note=47, velocity=100, time=184),
    Message('note_on', channel=1, note=47, velocity=100, time=8),
    Message('note_off', channel=1, note=47, velocity=100, time=184),
    Message('note_on', channel=1, note=47, velocity=100, time=8),
    Message('note_off', channel=1, note=47, velocity=100, time=184),
    Message('note_on', channel=1, note=47, velocity=100, time=8),
    Message('note_off', channel=1, note=47, velocity=100, time=184),
    Message('note_on', channel=1, note=47, velocity=100, time=8),
    Message('note_off', channel=1, note=47, velocity=100, time=184),
    Message('note_on', channel=1, note=47, velocity=100, time=8),
    Message('note_off', channel=1, note=47, velocity=100, time=184),
    Message('note_on', channel=1, note=47, velocity=100, time=8),
    Message('note_off', channel=1, note=47, velocity=100, time=184),
    Message('note_on', channel=1, note=47, velocity=100, time=8),
    Message('note_off', channel=1, note=47, velocity=100, time=184),
    Message('note_on', channel=1, note=47, velocity=100, time=8),
    Message('note_off', channel=1, note=47, velocity=100, time=184),
    Message('note_on', channel=1, note=47, velocity=100, time=8),
    Message('note_off', channel=1, note=47, velocity=100, time=184),
    Message('note_on', channel=1, note=47, velocity=100, time=8),
    Message('note_off', channel=1, note=47, velocity=100, time=184),
    Message('note_on', channel=1, note=47, velocity=100, time=8),
    Message('note_off', channel=1, note=47, velocity=100, time=184),
    Message('note_on', channel=1, note=47, velocity=100, time=8),
    Message('note_off', channel=1, note=47, velocity=100, time=184),
    Message('note_on', channel=1, note=47, velocity=100, time=8),
    Message('note_off', channel=1, note=47, velocity=100, time=184),
    Message('note_on', channel=1, note=47, velocity=100, time=8),
    Message('note_off', channel=1, note=47, velocity=100, time=184),
    Message('note_on', channel=1, note=47, velocity=100, time=8),
    Message('note_off', channel=1, note=47, velocity=100, time=184),
    Message('note_on', channel=1, note=47, velocity=100, time=8),
    Message('note_off', channel=1, note=47, velocity=100, time=184),
    Message('note_on', channel=1, note=47, velocity=100, time=8),
    Message('note_off', channel=1, note=47, velocity=100, time=184),
    Message('note_on', channel=1, note=47, velocity=100, time=8),
    Message('note_off', channel=1, note=47, velocity=100, time=184),
    Message('note_on', channel=1, note=47, velocity=100, time=8),
    Message('note_off', channel=1, note=47, velocity=100, time=184),
    Message('note_on', channel=1, note=47, velocity=100, time=8),
    Message('note_off', channel=1, note=47, velocity=100, time=184),
    Message('note_on', channel=1, note=47, velocity=100, time=8),
    Message('note_off', channel=1, note=47, velocity=100, time=184),
    Message('note_on', channel=1, note=47, velocity=100, time=8),
    Message('note_off', channel=1, note=47, velocity=100, time=184),
    Message('note_on', channel=1, note=47, velocity=100, time=8),
    Message('note_off', channel=1, note=47, velocity=100, time=184),
    Message('note_on', channel=1, note=47, velocity=100, time=8),
    Message('note_off', channel=1, note=47, velocity=100, time=184),
    Message('note_on', channel=1, note=47, velocity=100, time=8),
    Message('note_off', channel=1, note=47, velocity=100, time=184),
    Message('note_on', channel=1, note=47, velocity=100, time=8),
    Message('note_off', channel=1, note=47, velocity=100, time=184),
    Message('note_on', channel=1, note=47, velocity=100, time=8),
    Message('note_off', channel=1, note=47, velocity=100, time=184),
    Message('note_on', channel=1, note=47, velocity=100, time=8),
    Message('note_off', channel=1, note=47, velocity=100, time=184),
    Message('note_on', channel=1, note=47, velocity=100, time=8),
    Message('note_off', channel=1, note=47, velocity=100, time=184),
    Message('note_on', channel=1, note=47, velocity=100, time=8),
    Message('note_off', channel=1, note=47, velocity=100, time=184),
    Message('note_on', channel=1, note=47, velocity=100, time=8),
    Message('note_off', channel=1, note=47, velocity=100, time=184),
    Message('note_on', channel=1, note=47, velocity=100, time=8),
    Message('note_off', channel=1, note=47, velocity=100, time=184),
    Message('note_on', channel=1, note=47, velocity=100, time=8),
    Message('note_off', channel=1, note=47, velocity=100, time=184),
    Message('note_on', channel=1, note=47, velocity=100, time=8),
    Message('note_off', channel=1, note=47, velocity=100, time=184),
    Message('note_on', channel=1, note=47, velocity=100, time=8),
    Message('note_off', channel=1, note=47, velocity=100, time=184),
    Message('note_on', channel=1, note=47, velocity=100, time=8),
    Message('note_off', channel=1, note=47, velocity=100, time=184),
    Message('note_on', channel=1, note=47, velocity=100, time=8),
    Message('note_off', channel=1, note=47, velocity=100, time=184),
    Message('note_on', channel=1, note=45, velocity=100, time=8),
    Message('note_off', channel=1, note=45, velocity=100, time=184),
    Message('note_on', channel=1, note=45, velocity=100, time=8),
    Message('note_off', channel=1, note=45, velocity=100, time=184),
    Message('note_on', channel=1, note=45, velocity=100, time=8),
    Message('note_off', channel=1, note=45, velocity=100, time=184),
    Message('note_on', channel=1, note=45, velocity=100, time=8),
    Message('note_off', channel=1, note=45, velocity=100, time=184),
    Message('note_on', channel=1, note=45, velocity=100, time=8),
    Message('note_off', channel=1, note=45, velocity=100, time=184),
    Message('note_on', channel=1, note=45, velocity=100, time=8),
    Message('note_off', channel=1, note=45, velocity=100, time=184),
    Message('note_on', channel=1, note=45, velocity=100, time=8),
    Message('note_off', channel=1, note=45, velocity=100, time=184),
    Message('note_on', channel=1, note=45, velocity=100, time=8),
    Message('note_off', channel=1, note=45, velocity=100, time=184),
    Message('note_on', channel=1, note=45, velocity=100, time=8),
    Message('note_off', channel=1, note=45, velocity=100, time=184),
    Message('note_on', channel=1, note=45, velocity=100, time=8),
    Message('note_off', channel=1, note=45, velocity=100, time=184),
    Message('note_on', channel=1, note=45, velocity=100, time=8),
    Message('note_off', channel=1, note=45, velocity=100, time=184),
    Message('note_on', channel=1, note=45, velocity=100, time=8),
    Message('note_off', channel=1, note=45, velocity=100, time=184),
    Message('note_on', channel=1, note=45, velocity=100, time=8),
    Message('note_off', channel=1, note=45, velocity=100, time=184),
    Message('note_on', channel=1, note=45, velocity=100, time=8),
    Message('note_off', channel=1, note=45, velocity=100, time=184),
    Message('note_on', channel=1, note=45, velocity=100, time=8),
    Message('note_off', channel=1, note=45, velocity=100, time=184),
    Message('note_on', channel=1, note=45, velocity=100, time=8),
    Message('note_off', channel=1, note=45, velocity=100, time=184),
    Message('note_on', channel=1, note=55, velocity=100, time=8),
    Message('note_on', channel=1, note=43, velocity=100, time=0),
    Message('note_on', channel=1, note=50, velocity=100, time=0),
    Message('note_off', channel=1, note=55, velocity=100, time=1528),
    Message('note_off', channel=1, note=43, velocity=100, time=0),
    Message('note_off', channel=1, note=50, velocity=100, time=0),
    Message('note_on', channel=1, note=57, velocity=100, time=8),
    Message('note_on', channel=1, note=45, velocity=100, time=0),
    Message('note_on', channel=1, note=52, velocity=100, time=0),
    Message('note_off', channel=1, note=57, velocity=100, time=1528),
    Message('note_off', channel=1, note=45, velocity=100, time=0),
    Message('note_off', channel=1, note=52, velocity=100, time=0),
    Message('note_on', channel=1, note=42, velocity=100, time=8),
    Message('note_on', channel=1, note=49, velocity=100, time=0),
    Message('note_on', channel=1, note=54, velocity=100, time=0),
    Message('note_off', channel=1, note=42, velocity=100, time=6136),
    Message('note_off', channel=1, note=49, velocity=100, time=0),
    Message('note_off', channel=1, note=54, velocity=100, time=0),
    Message('note_on', channel=1, note=43, velocity=100, time=8),
    Message('note_on', channel=1, note=50, velocity=100, time=0),
    Message('note_on', channel=1, note=55, velocity=100, time=0),
    Message('note_off', channel=1, note=43, velocity=100, time=3064),
    Message('note_off', channel=1, note=50, velocity=100, time=0),
    Message('note_off', channel=1, note=55, velocity=100, time=0),
    Message('note_on', channel=1, note=52, velocity=100, time=8),
    Message('note_on', channel=1, note=40, velocity=100, time=0),
    Message('note_on', channel=1, note=47, velocity=100, time=0),
    Message('note_off', channel=1, note=52, velocity=100, time=1528),
    Message('note_off', channel=1, note=40, velocity=100, time=0),
    Message('note_off', channel=1, note=47, velocity=100, time=0),
    Message('note_on', channel=1, note=54, velocity=100, time=8),
    Message('note_on', channel=1, note=42, velocity=100, time=0),
    Message('note_on', channel=1, note=49, velocity=100, time=0),
    Message('note_off', channel=1, note=54, velocity=100, time=1528),
    Message('note_off', channel=1, note=42, velocity=100, time=0),
    Message('note_off', channel=1, note=49, velocity=100, time=0),
    Message('note_on', channel=1, note=43, velocity=100, time=8),
    Message('note_on', channel=1, note=50, velocity=100, time=0),
    Message('note_on', channel=1, note=55, velocity=100, time=0),
    Message('note_off', channel=1, note=43, velocity=100, time=3064),
    Message('note_off', channel=1, note=50, velocity=100, time=0),
    Message('note_off', channel=1, note=55, velocity=100, time=0),
    Message('note_on', channel=1, note=47, velocity=100, time=8),
    Message('note_on', channel=1, note=52, velocity=100, time=0),
    Message('note_on', channel=1, note=40, velocity=100, time=0),
    Message('note_off', channel=1, note=40, velocity=100, time=3064),
    Message('note_off', channel=1, note=47, velocity=100, time=0),
    Message('note_off', channel=1, note=52, velocity=100, time=0),
    Message('note_on', channel=1, note=45, velocity=100, time=8),
    Message('note_on', channel=1, note=52, velocity=100, time=0),
    Message('note_on', channel=1, note=57, velocity=100, time=0),
    Message('note_off', channel=1, note=45, velocity=100, time=3064),
    Message('note_off', channel=1, note=52, velocity=100, time=0),
    Message('note_off', channel=1, note=57, velocity=100, time=0),
    Message('note_on', channel=1, note=42, velocity=100, time=8),
    Message('note_on', channel=1, note=49, velocity=100, time=0),
    Message('note_on', channel=1, note=54, velocity=100, time=0),
    Message('note_off', channel=1, note=42, velocity=100, time=3064),
    Message('note_off', channel=1, note=49, velocity=100, time=0),
    Message('note_off', channel=1, note=54, velocity=100, time=0),
    Message('note_on', channel=1, note=54, velocity=100, time=8),
    Message('note_on', channel=1, note=49, velocity=100, time=0),
    Message('note_on', channel=1, note=42, velocity=100, time=0),
    Message('note_off', channel=1, note=54, velocity=100, time=376),
    Message('note_off', channel=1, note=49, velocity=100, time=0),
    Message('note_off', channel=1, note=42, velocity=100, time=0),
    Message('note_on', channel=1, note=40, velocity=100, time=8),
    Message('note_off', channel=1, note=40, velocity=100, time=184),
    Message('note_on', channel=1, note=40, velocity=100, time=8),
    Message('note_off', channel=1, note=40, velocity=100, time=184),
    Message('note_on', channel=1, note=42, velocity=100, time=8),
    Message('note_on', channel=1, note=54, velocity=100, time=0),
    Message('note_on', channel=1, note=49, velocity=100, time=0),
    Message('note_off', channel=1, note=42, velocity=100, time=376),
    Message('note_off', channel=1, note=54, velocity=100, time=0),
    Message('note_off', channel=1, note=49, velocity=100, time=0),
    Message('note_on', channel=1, note=40, velocity=100, time=8),
    Message('note_off', channel=1, note=40, velocity=100, time=184),
    Message('note_on', channel=1, note=40, velocity=100, time=8),
    Message('note_off', channel=1, note=40, velocity=100, time=184),
    Message('note_on', channel=1, note=54, velocity=100, time=8),
    Message('note_on', channel=1, note=49, velocity=100, time=0),
    Message('note_on', channel=1, note=42, velocity=100, time=0),
    Message('note_off', channel=1, note=54, velocity=100, time=376),
    Message('note_off', channel=1, note=49, velocity=100, time=0),
    Message('note_off', channel=1, note=42, velocity=100, time=0),
    Message('note_on', channel=1, note=40, velocity=100, time=8),
    Message('note_off', channel=1, note=40, velocity=100, time=184),
    Message('note_on', channel=1, note=40, velocity=100, time=8),
    Message('note_off', channel=1, note=40, velocity=100, time=184),
    Message('note_on', channel=1, note=40, velocity=100, time=8),
    Message('note_off', channel=1, note=40, velocity=100, time=184),
    Message('note_on', channel=1, note=42, velocity=100, time=8),
    Message('note_off', channel=1, note=42, velocity=100, time=184),
    Message('note_on', channel=1, note=55, velocity=100, time=8),
    Message('note_on', channel=1, note=50, velocity=100, time=0),
    Message('note_on', channel=1, note=43, velocity=100, time=0),
    Message('note_off', channel=1, note=55, velocity=100, time=376),
    Message('note_off', channel=1, note=50, velocity=100, time=0),
    Message('note_off', channel=1, note=43, velocity=100, time=0),
    Message('note_on', channel=1, note=54, velocity=100, time=8),
    Message('note_on', channel=1, note=49, velocity=100, time=0),
    Message('note_on', channel=1, note=42, velocity=100, time=0),
    Message('note_off', channel=1, note=54, velocity=100, time=376),
    Message('note_off', channel=1, note=49, velocity=100, time=0),
    Message('note_off', channel=1, note=42, velocity=100, time=0),
    Message('note_on', channel=1, note=40, velocity=100, time=8),
    Message('note_off', channel=1, note=40, velocity=100, time=184),
    Message('note_on', channel=1, note=40, velocity=100, time=8),
    Message('note_off', channel=1, note=40, velocity=100, time=184),
    Message('note_on', channel=1, note=54, velocity=100, time=8),
    Message('note_on', channel=1, note=49, velocity=100, time=0),
    Message('note_on', channel=1, note=42, velocity=100, time=0),
    Message('note_off', channel=1, note=54, velocity=100, time=376),
    Message('note_off', channel=1, note=49, velocity=100, time=0),
    Message('note_off', channel=1, note=42, velocity=100, time=0),
    Message('note_on', channel=1, note=40, velocity=100, time=8),
    Message('note_off', channel=1, note=40, velocity=100, time=184),
    Message('note_on', channel=1, note=40, velocity=100, time=8),
    Message('note_off', channel=1, note=40, velocity=100, time=184),
    Message('note_on', channel=1, note=43, velocity=100, time=8),
    Message('note_on', channel=1, note=50, velocity=100, time=0),
    Message('note_off', channel=1, note=43, velocity=100, time=184),
    Message('note_off', channel=1, note=50, velocity=100, time=0),
    Message('note_on', channel=1, note=42, velocity=100, time=8),
    Message('note_off', channel=1, note=42, velocity=100, time=184),
    Message('note_on', channel=1, note=40, velocity=100, time=8),
    Message('note_off', channel=1, note=40, velocity=100, time=184),
    Message('note_on', channel=1, note=40, velocity=100, time=8),
    Message('note_off', channel=1, note=40, velocity=100, time=184),
    Message('note_on', channel=1, note=48, velocity=100, time=8),
    Message('note_on', channel=1, note=55, velocity=100, time=0),
    Message('note_on', channel=1, note=60, velocity=100, time=0),
    Message('note_off', channel=1, note=48, velocity=100, time=760),
    Message('note_off', channel=1, note=55, velocity=100, time=0),
    Message('note_off', channel=1, note=60, velocity=100, time=0),
    Message('note_on', channel=1, note=54, velocity=100, time=8),
    Message('note_on', channel=1, note=49, velocity=100, time=0),
    Message('note_on', channel=1, note=42, velocity=100, time=0),
    Message('note_off', channel=1, note=54, velocity=100, time=376),
    Message('note_off', channel=1, note=49, velocity=100, time=0),
    Message('note_off', channel=1, note=42, velocity=100, time=0),
    Message('note_on', channel=1, note=40, velocity=100, time=8),
    Message('note_off', channel=1, note=40, velocity=100, time=184),
    Message('note_on', channel=1, note=40, velocity=100, time=8),
    Message('note_off', channel=1, note=40, velocity=100, time=184),
    Message('note_on', channel=1, note=54, velocity=100, time=8),
    Message('note_on', channel=1, note=49, velocity=100, time=0),
    Message('note_on', channel=1, note=42, velocity=100, time=0),
    Message('note_off', channel=1, note=54, velocity=100, time=376),
    Message('note_off', channel=1, note=49, velocity=100, time=0),
    Message('note_off', channel=1, note=42, velocity=100, time=0),
    Message('note_on', channel=1, note=40, velocity=100, time=8),
    Message('note_off', channel=1, note=40, velocity=100, time=184),
    Message('note_on', channel=1, note=40, velocity=100, time=8),
    Message('note_off', channel=1, note=40, velocity=100, time=184),
    Message('note_on', channel=1, note=54, velocity=100, time=8),
    Message('note_on', channel=1, note=49, velocity=100, time=0),
    Message('note_on', channel=1, note=42, velocity=100, time=0),
    Message('note_off', channel=1, note=54, velocity=100, time=376),
    Message('note_off', channel=1, note=49, velocity=100, time=0),
    Message('note_off', channel=1, note=42, velocity=100, time=0),
    Message('note_on', channel=1, note=40, velocity=100, time=8),
    Message('note_off', channel=1, note=40, velocity=100, time=184),
    Message('note_on', channel=1, note=40, velocity=100, time=8),
    Message('note_off', channel=1, note=40, velocity=100, time=184),
    Message('note_on', channel=1, note=40, velocity=100, time=8),
    Message('note_off', channel=1, note=40, velocity=100, time=184),
    Message('note_on', channel=1, note=42, velocity=100, time=8),
    Message('note_off', channel=1, note=42, velocity=100, time=184),
    Message('note_on', channel=1, note=55, velocity=100, time=8),
    Message('note_on', channel=1, note=50, velocity=100, time=0),
    Message('note_on', channel=1, note=43, velocity=100, time=0),
    Message('note_off', channel=1, note=55, velocity=100, time=376),
    Message('note_off', channel=1, note=50, velocity=100, time=0),
    Message('note_off', channel=1, note=43, velocity=100, time=0),
    Message('note_on', channel=1, note=54, velocity=100, time=8),
    Message('note_on', channel=1, note=49, velocity=100, time=0),
    Message('note_on', channel=1, note=42, velocity=100, time=0),
    Message('note_off', channel=1, note=54, velocity=100, time=376),
    Message('note_off', channel=1, note=49, velocity=100, time=0),
    Message('note_off', channel=1, note=42, velocity=100, time=0),
    Message('note_on', channel=1, note=40, velocity=100, time=8),
    Message('note_off', channel=1, note=40, velocity=100, time=184),
    Message('note_on', channel=1, note=40, velocity=100, time=8),
    Message('note_off', channel=1, note=40, velocity=100, time=184),
    Message('note_on', channel=1, note=54, velocity=100, time=8),
    Message('note_on', channel=1, note=49, velocity=100, time=0),
    Message('note_on', channel=1, note=42, velocity=100, time=0),
    Message('note_off', channel=1, note=54, velocity=100, time=376),
    Message('note_off', channel=1, note=49, velocity=100, time=0),
    Message('note_off', channel=1, note=42, velocity=100, time=0),
    Message('note_on', channel=1, note=40, velocity=100, time=8),
    Message('note_off', channel=1, note=40, velocity=100, time=184),
    Message('note_on', channel=1, note=40, velocity=100, time=8),
    Message('note_off', channel=1, note=40, velocity=100, time=184),
    Message('note_on', channel=1, note=43, velocity=100, time=8),
    Message('note_on', channel=1, note=50, velocity=100, time=0),
    Message('note_off', channel=1, note=43, velocity=100, time=184),
    Message('note_off', channel=1, note=50, velocity=100, time=0),
    Message('note_on', channel=1, note=42, velocity=100, time=8),
    Message('note_off', channel=1, note=42, velocity=100, time=184),
    Message('note_on', channel=1, note=40, velocity=100, time=8),
    Message('note_off', channel=1, note=40, velocity=100, time=184),
    Message('note_on', channel=1, note=40, velocity=100, time=8),
    Message('note_off', channel=1, note=40, velocity=100, time=184),
    Message('note_on', channel=1, note=48, velocity=100, time=8),
    Message('note_on', channel=1, note=55, velocity=100, time=0),
    Message('note_on', channel=1, note=60, velocity=100, time=0),
    Message('note_off', channel=1, note=48, velocity=100, time=760),
    Message('note_off', channel=1, note=55, velocity=100, time=0),
    Message('note_off', channel=1, note=60, velocity=100, time=0),
    Message('note_on', channel=1, note=42, velocity=100, time=8),
    Message('note_on', channel=1, note=54, velocity=100, time=0),
    Message('note_on', channel=1, note=49, velocity=100, time=0),
    Message('note_off', channel=1, note=42, velocity=100, time=376),
    Message('note_off', channel=1, note=54, velocity=100, time=0),
    Message('note_off', channel=1, note=49, velocity=100, time=0),
    Message('note_on', channel=1, note=40, velocity=100, time=8),
    Message('note_off', channel=1, note=40, velocity=100, time=184),
    Message('note_on', channel=1, note=40, velocity=100, time=8),
    Message('note_off', channel=1, note=40, velocity=100, time=184),
    Message('note_on', channel=1, note=54, velocity=100, time=8),
    Message('note_on', channel=1, note=49, velocity=100, time=0),
    Message('note_on', channel=1, note=42, velocity=100, time=0),
    Message('note_off', channel=1, note=54, velocity=100, time=376),
    Message('note_off', channel=1, note=49, velocity=100, time=0),
    Message('note_off', channel=1, note=42, velocity=100, time=0),
    Message('note_on', channel=1, note=40, velocity=100, time=8),
    Message('note_off', channel=1, note=40, velocity=100, time=184),
    Message('note_on', channel=1, note=40, velocity=100, time=8),
    Message('note_off', channel=1, note=40, velocity=100, time=184),
    Message('note_on', channel=1, note=42, velocity=100, time=8),
    Message('note_on', channel=1, note=54, velocity=100, time=0),
    Message('note_on', channel=1, note=49, velocity=100, time=0),
    Message('note_off', channel=1, note=42, velocity=100, time=376),
    Message('note_off', channel=1, note=54, velocity=100, time=0),
    Message('note_off', channel=1, note=49, velocity=100, time=0),
    Message('note_on', channel=1, note=40, velocity=100, time=8),
    Message('note_off', channel=1, note=40, velocity=100, time=184),
    Message('note_on', channel=1, note=40, velocity=100, time=8),
    Message('note_off', channel=1, note=40, velocity=100, time=184),
    Message('note_on', channel=1, note=40, velocity=100, time=8),
    Message('note_off', channel=1, note=40, velocity=100, time=184),
    Message('note_on', channel=1, note=42, velocity=100, time=8),
    Message('note_off', channel=1, note=42, velocity=100, time=184),
    Message('note_on', channel=1, note=55, velocity=100, time=8),
    Message('note_on', channel=1, note=50, velocity=100, time=0),
    Message('note_on', channel=1, note=43, velocity=100, time=0),
    Message('note_off', channel=1, note=55, velocity=100, time=376),
    Message('note_off', channel=1, note=50, velocity=100, time=0),
    Message('note_off', channel=1, note=43, velocity=100, time=0),
    Message('note_on', channel=1, note=42, velocity=100, time=8),
    Message('note_on', channel=1, note=54, velocity=100, time=0),
    Message('note_on', channel=1, note=49, velocity=100, time=0),
    Message('note_off', channel=1, note=42, velocity=100, time=376),
    Message('note_off', channel=1, note=54, velocity=100, time=0),
    Message('note_off', channel=1, note=49, velocity=100, time=0),
    Message('note_on', channel=1, note=40, velocity=100, time=8),
    Message('note_off', channel=1, note=40, velocity=100, time=184),
    Message('note_on', channel=1, note=40, velocity=100, time=8),
    Message('note_off', channel=1, note=40, velocity=100, time=184),
    Message('note_on', channel=1, note=54, velocity=100, time=8),
    Message('note_on', channel=1, note=49, velocity=100, time=0),
    Message('note_on', channel=1, note=42, velocity=100, time=0),
    Message('note_off', channel=1, note=54, velocity=100, time=376),
    Message('note_off', channel=1, note=49, velocity=100, time=0),
    Message('note_off', channel=1, note=42, velocity=100, time=0),
    Message('note_on', channel=1, note=40, velocity=100, time=8),
    Message('note_off', channel=1, note=40, velocity=100, time=184),
    Message('note_on', channel=1, note=40, velocity=100, time=8),
    Message('note_off', channel=1, note=40, velocity=100, time=184),
    Message('note_on', channel=1, note=43, velocity=100, time=8),
    Message('note_on', channel=1, note=50, velocity=100, time=0),
    Message('note_off', channel=1, note=43, velocity=100, time=184),
    Message('note_off', channel=1, note=50, velocity=100, time=0),
    Message('note_on', channel=1, note=42, velocity=100, time=8),
    Message('note_off', channel=1, note=42, velocity=100, time=184),
    Message('note_on', channel=1, note=40, velocity=100, time=8),
    Message('note_off', channel=1, note=40, velocity=100, time=184),
    Message('note_on', channel=1, note=40, velocity=100, time=8),
    Message('note_off', channel=1, note=40, velocity=100, time=184),
    Message('note_on', channel=1, note=48, velocity=100, time=8),
    Message('note_on', channel=1, note=55, velocity=100, time=0),
    Message('note_on', channel=1, note=60, velocity=100, time=0),
    Message('note_off', channel=1, note=48, velocity=100, time=760),
    Message('note_off', channel=1, note=55, velocity=100, time=0),
    Message('note_off', channel=1, note=60, velocity=100, time=0),
    Message('note_on', channel=1, note=42, velocity=100, time=8),
    Message('note_on', channel=1, note=54, velocity=100, time=0),
    Message('note_on', channel=1, note=49, velocity=100, time=0),
    Message('note_off', channel=1, note=42, velocity=100, time=376),
    Message('note_off', channel=1, note=54, velocity=100, time=0),
    Message('note_off', channel=1, note=49, velocity=100, time=0),
    Message('note_on', channel=1, note=40, velocity=100, time=8),
    Message('note_off', channel=1, note=40, velocity=100, time=184),
    Message('note_on', channel=1, note=40, velocity=100, time=8),
    Message('note_off', channel=1, note=40, velocity=100, time=184),
    Message('note_on', channel=1, note=54, velocity=100, time=8),
    Message('note_on', channel=1, note=49, velocity=100, time=0),
    Message('note_on', channel=1, note=42, velocity=100, time=0),
    Message('note_off', channel=1, note=54, velocity=100, time=376),
    Message('note_off', channel=1, note=49, velocity=100, time=0),
    Message('note_off', channel=1, note=42, velocity=100, time=0),
    Message('note_on', channel=1, note=40, velocity=100, time=8),
    Message('note_off', channel=1, note=40, velocity=100, time=184),
    Message('note_on', channel=1, note=40, velocity=100, time=8),
    Message('note_off', channel=1, note=40, velocity=100, time=184),
    Message('note_on', channel=1, note=42, velocity=100, time=8),
    Message('note_on', channel=1, note=54, velocity=100, time=0),
    Message('note_on', channel=1, note=49, velocity=100, time=0),
    Message('note_off', channel=1, note=42, velocity=100, time=376),
    Message('note_off', channel=1, note=54, velocity=100, time=0),
    Message('note_off', channel=1, note=49, velocity=100, time=0),
    Message('note_on', channel=1, note=40, velocity=100, time=8),
    Message('note_off', channel=1, note=40, velocity=100, time=184),
    Message('note_on', channel=1, note=40, velocity=100, time=8),
    Message('note_off', channel=1, note=40, velocity=100, time=184),
    Message('note_on', channel=1, note=40, velocity=100, time=8),
    Message('note_off', channel=1, note=40, velocity=100, time=184),
    Message('note_on', channel=1, note=42, velocity=100, time=8),
    Message('note_off', channel=1, note=42, velocity=100, time=184),
    Message('note_on', channel=1, note=55, velocity=100, time=8),
    Message('note_on', channel=1, note=50, velocity=100, time=0),
    Message('note_on', channel=1, note=43, velocity=100, time=0),
    Message('note_off', channel=1, note=55, velocity=100, time=376),
    Message('note_off', channel=1, note=50, velocity=100, time=0),
    Message('note_off', channel=1, note=43, velocity=100, time=0),
    Message('note_on', channel=1, note=42, velocity=100, time=8),
    Message('note_on', channel=1, note=54, velocity=100, time=0),
    Message('note_on', channel=1, note=49, velocity=100, time=0),
    Message('note_off', channel=1, note=42, velocity=100, time=376),
    Message('note_off', channel=1, note=54, velocity=100, time=0),
    Message('note_off', channel=1, note=49, velocity=100, time=0),
    Message('note_on', channel=1, note=40, velocity=100, time=8),
    Message('note_off', channel=1, note=40, velocity=100, time=184),
    Message('note_on', channel=1, note=40, velocity=100, time=8),
    Message('note_off', channel=1, note=40, velocity=100, time=184),
    Message('note_on', channel=1, note=54, velocity=100, time=8),
    Message('note_on', channel=1, note=49, velocity=100, time=0),
    Message('note_on', channel=1, note=42, velocity=100, time=0),
    Message('note_off', channel=1, note=54, velocity=100, time=376),
    Message('note_off', channel=1, note=49, velocity=100, time=0),
    Message('note_off', channel=1, note=42, velocity=100, time=0),
    Message('note_on', channel=1, note=40, velocity=100, time=8),
    Message('note_off', channel=1, note=40, velocity=100, time=184),
    Message('note_on', channel=1, note=40, velocity=100, time=8),
    Message('note_off', channel=1, note=40, velocity=100, time=184),
    Message('note_on', channel=1, note=43, velocity=100, time=8),
    Message('note_on', channel=1, note=50, velocity=100, time=0),
    Message('note_off', channel=1, note=43, velocity=100, time=184),
    Message('note_off', channel=1, note=50, velocity=100, time=0),
    Message('note_on', channel=1, note=42, velocity=100, time=8),
    Message('note_off', channel=1, note=42, velocity=100, time=184),
    Message('note_on', channel=1, note=40, velocity=100, time=8),
    Message('note_off', channel=1, note=40, velocity=100, time=376),
    Message('note_on', channel=1, note=48, velocity=100, time=8),
    Message('note_off', channel=1, note=48, velocity=100, time=184),
    Message('note_on', channel=1, note=47, velocity=100, time=8),
    Message('note_off', channel=1, note=47, velocity=100, time=184),
    Message('note_on', channel=1, note=45, velocity=100, time=8),
    Message('note_off', channel=1, note=45, velocity=100, time=376),
    Message('note_on', channel=1, note=59, velocity=100, time=8),
    Message('note_on', channel=1, note=54, velocity=100, time=0),
    Message('note_on', channel=1, note=47, velocity=100, time=0),
    Message('note_off', channel=1, note=59, velocity=100, time=1528),
    Message('note_off', channel=1, note=54, velocity=100, time=0),
    Message('note_off', channel=1, note=47, velocity=100, time=0),
    Message('control_change', channel=1, control=7, value=0, time=23816),
    Message('note_on', channel=1, note=50, velocity=100, time=0),
    Message('note_on', channel=1, note=57, velocity=100, time=0),
    Message('note_on', channel=1, note=62, velocity=100, time=0),
    Message('control_change', channel=1, control=7, value=1, time=8),
    Message('control_change', channel=1, control=7, value=2, time=8),
    Message('control_change', channel=1, control=7, value=3, time=8),
    Message('control_change', channel=1, control=7, value=4, time=8),
    Message('control_change', channel=1, control=7, value=5, time=8),
    Message('control_change', channel=1, control=7, value=6, time=8),
    Message('control_change', channel=1, control=7, value=7, time=8),
    Message('control_change', channel=1, control=7, value=8, time=8),
    Message('control_change', channel=1, control=7, value=9, time=8),
    Message('control_change', channel=1, control=7, value=10, time=8),
    Message('control_change', channel=1, control=7, value=11, time=8),
    Message('control_change', channel=1, control=7, value=12, time=8),
    Message('control_change', channel=1, control=7, value=13, time=8),
    Message('control_change', channel=1, control=7, value=14, time=8),
    Message('control_change', channel=1, control=7, value=15, time=8),
    Message('control_change', channel=1, control=7, value=16, time=8),
    Message('control_change', channel=1, control=7, value=17, time=8),
    Message('control_change', channel=1, control=7, value=18, time=8),
    Message('control_change', channel=1, control=7, value=19, time=8),
    Message('control_change', channel=1, control=7, value=20, time=8),
    Message('control_change', channel=1, control=7, value=21, time=8),
    Message('control_change', channel=1, control=7, value=22, time=8),
    Message('control_change', channel=1, control=7, value=23, time=8),
    Message('control_change', channel=1, control=7, value=24, time=8),
    Message('control_change', channel=1, control=7, value=25, time=8),
    Message('control_change', channel=1, control=7, value=26, time=8),
    Message('control_change', channel=1, control=7, value=27, time=8),
    Message('control_change', channel=1, control=7, value=28, time=8),
    Message('control_change', channel=1, control=7, value=29, time=8),
    Message('control_change', channel=1, control=7, value=30, time=8),
    Message('control_change', channel=1, control=7, value=31, time=8),
    Message('control_change', channel=1, control=7, value=32, time=8),
    Message('control_change', channel=1, control=7, value=36, time=32),
    Message('control_change', channel=1, control=7, value=40, time=32),
    Message('control_change', channel=1, control=7, value=44, time=32),
    Message('control_change', channel=1, control=7, value=48, time=32),
    Message('control_change', channel=1, control=7, value=52, time=16),
    Message('control_change', channel=1, control=7, value=56, time=16),
    Message('control_change', channel=1, control=7, value=60, time=32),
    Message('control_change', channel=1, control=7, value=64, time=32),
    Message('control_change', channel=1, control=7, value=68, time=32),
    Message('control_change', channel=1, control=7, value=72, time=32),
    Message('control_change', channel=1, control=7, value=76, time=32),
    Message('control_change', channel=1, control=7, value=80, time=32),
    Message('control_change', channel=1, control=7, value=84, time=32),
    Message('control_change', channel=1, control=7, value=88, time=32),
    Message('control_change', channel=1, control=7, value=92, time=32),
    Message('control_change', channel=1, control=7, value=96, time=32),
    Message('note_off', channel=1, note=50, velocity=100, time=24),
    Message('note_off', channel=1, note=57, velocity=100, time=0),
    Message('note_off', channel=1, note=62, velocity=100, time=0),
    Message('pitchwheel', channel=1, pitch=0, time=8),
    Message('control_change', channel=1, control=7, value=100, time=0),
    Message('note_on', channel=1, note=74, velocity=100, time=0),
    Message('pitchwheel', channel=1, pitch=2088, time=16),
    Message('pitchwheel', channel=1, pitch=4096, time=24),
    Message('pitchwheel', channel=1, pitch=6144, time=16),
    Message('pitchwheel', channel=1, pitch=8191, time=24),
    Message('note_off', channel=1, note=74, velocity=100, time=1064),
    Message('pitchwheel', channel=1, pitch=0, time=8),
    Message('note_on', channel=1, note=75, velocity=100, time=0),
    Message('pitchwheel', channel=1, pitch=2088, time=16),
    Message('pitchwheel', channel=1, pitch=4096, time=24),
    Message('pitchwheel', channel=1, pitch=6144, time=16),
    Message('pitchwheel', channel=1, pitch=8191, time=24),
    Message('note_off', channel=1, note=75, velocity=100, time=296),
    Message('pitchwheel', channel=1, pitch=0, time=8),
    Message('note_on', channel=1, note=74, velocity=100, time=0),
    Message('pitchwheel', channel=1, pitch=2088, time=16),
    Message('pitchwheel', channel=1, pitch=4096, time=24),
    Message('pitchwheel', channel=1, pitch=6144, time=16),
    Message('pitchwheel', channel=1, pitch=8191, time=24),
    Message('note_off', channel=1, note=74, velocity=100, time=1064),
    Message('pitchwheel', channel=1, pitch=0, time=8),
    Message('note_on', channel=1, note=72, velocity=100, time=0),
    Message('pitchwheel', channel=1, pitch=2088, time=16),
    Message('pitchwheel', channel=1, pitch=4096, time=24),
    Message('pitchwheel', channel=1, pitch=6144, time=16),
    Message('pitchwheel', channel=1, pitch=8191, time=24),
    Message('note_off', channel=1, note=72, velocity=100, time=296),
    Message('pitchwheel', channel=1, pitch=0, time=8),
    Message('note_on', channel=1, note=74, velocity=100, time=0),
    Message('pitchwheel', channel=1, pitch=2088, time=16),
    Message('pitchwheel', channel=1, pitch=4096, time=24),
    Message('pitchwheel', channel=1, pitch=6144, time=16),
    Message('pitchwheel', channel=1, pitch=8191, time=24),
    Message('note_off', channel=1, note=74, velocity=100, time=680),
    Message('pitchwheel', channel=1, pitch=0, time=8),
    Message('note_on', channel=1, note=69, velocity=100, time=0),
    Message('pitchwheel', channel=1, pitch=2088, time=16),
    Message('pitchwheel', channel=1, pitch=4096, time=24),
    Message('pitchwheel', channel=1, pitch=6144, time=16),
    Message('pitchwheel', channel=1, pitch=8191, time=24),
    Message('note_off', channel=1, note=69, velocity=100, time=680),
    Message('pitchwheel', channel=1, pitch=0, time=8),
    Message('note_on', channel=1, note=73, velocity=100, time=0),
    Message('pitchwheel', channel=1, pitch=2088, time=16),
    Message('pitchwheel', channel=1, pitch=4096, time=24),
    Message('note_off', channel=1, note=73, velocity=100, time=1488),
    Message('pitchwheel', channel=1, pitch=0, time=8),
    Message('note_on', channel=1, note=74, velocity=100, time=0),
    Message('pitchwheel', channel=1, pitch=2088, time=16),
    Message('pitchwheel', channel=1, pitch=4096, time=24),
    Message('pitchwheel', channel=1, pitch=6144, time=16),
    Message('pitchwheel', channel=1, pitch=8191, time=24),
    Message('note_off', channel=1, note=74, velocity=100, time=1064),
    Message('pitchwheel', channel=1, pitch=0, time=8),
    Message('note_on', channel=1, note=75, velocity=100, time=0),
    Message('pitchwheel', channel=1, pitch=2088, time=16),
    Message('pitchwheel', channel=1, pitch=4096, time=24),
    Message('pitchwheel', channel=1, pitch=6144, time=16),
    Message('pitchwheel', channel=1, pitch=8191, time=24),
    Message('note_off', channel=1, note=75, velocity=100, time=296),
    Message('pitchwheel', channel=1, pitch=0, time=8),
    Message('note_on', channel=1, note=74, velocity=100, time=0),
    Message('pitchwheel', channel=1, pitch=2088, time=16),
    Message('pitchwheel', channel=1, pitch=4096, time=24),
    Message('pitchwheel', channel=1, pitch=6144, time=16),
    Message('pitchwheel', channel=1, pitch=8191, time=24),
    Message('note_off', channel=1, note=74, velocity=100, time=1064),
    Message('pitchwheel', channel=1, pitch=0, time=8),
    Message('note_on', channel=1, note=72, velocity=100, time=0),
    Message('pitchwheel', channel=1, pitch=2088, time=16),
    Message('pitchwheel', channel=1, pitch=4096, time=24),
    Message('pitchwheel', channel=1, pitch=6144, time=16),
    Message('pitchwheel', channel=1, pitch=8191, time=24),
    Message('note_off', channel=1, note=72, velocity=100, time=296),
    Message('pitchwheel', channel=1, pitch=0, time=8),
    Message('note_on', channel=1, note=74, velocity=100, time=0),
    Message('pitchwheel', channel=1, pitch=2088, time=16),
    Message('pitchwheel', channel=1, pitch=4096, time=24),
    Message('pitchwheel', channel=1, pitch=6144, time=16),
    Message('pitchwheel', channel=1, pitch=8191, time=24),
    Message('note_off', channel=1, note=74, velocity=100, time=680),
    Message('pitchwheel', channel=1, pitch=0, time=8),
    Message('note_on', channel=1, note=69, velocity=100, time=0),
    Message('pitchwheel', channel=1, pitch=2088, time=16),
    Message('pitchwheel', channel=1, pitch=4096, time=24),
    Message('pitchwheel', channel=1, pitch=6144, time=16),
    Message('pitchwheel', channel=1, pitch=8191, time=24),
    Message('note_off', channel=1, note=69, velocity=100, time=680),
    Message('pitchwheel', channel=1, pitch=0, time=8),
    Message('note_on', channel=1, note=73, velocity=100, time=0),
    Message('pitchwheel', channel=1, pitch=2088, time=16),
    Message('pitchwheel', channel=1, pitch=4096, time=24),
    Message('note_off', channel=1, note=73, velocity=100, time=1488),
    Message('pitchwheel', channel=1, pitch=0, time=8),
    Message('note_on', channel=1, note=49, velocity=100, time=0),
    Message('note_on', channel=1, note=54, velocity=100, time=0),
    Message('note_on', channel=1, note=42, velocity=100, time=0),
    Message('note_off', channel=1, note=49, velocity=100, time=376),
    Message('note_off', channel=1, note=54, velocity=100, time=0),
    Message('note_off', channel=1, note=42, velocity=100, time=0),
    Message('note_on', channel=1, note=40, velocity=100, time=8),
    Message('note_off', channel=1, note=40, velocity=100, time=184),
    Message('note_on', channel=1, note=40, velocity=100, time=8),
    Message('note_off', channel=1, note=40, velocity=100, time=184),
    Message('note_on', channel=1, note=42, velocity=100, time=8),
    Message('note_on', channel=1, note=49, velocity=100, time=0),
    Message('note_on', channel=1, note=54, velocity=100, time=0),
    Message('note_off', channel=1, note=42, velocity=100, time=376),
    Message('note_off', channel=1, note=49, velocity=100, time=0),
    Message('note_off', channel=1, note=54, velocity=100, time=0),
    Message('note_on', channel=1, note=40, velocity=100, time=8),
    Message('note_off', channel=1, note=40, velocity=100, time=184),
    Message('note_on', channel=1, note=40, velocity=100, time=8),
    Message('note_off', channel=1, note=40, velocity=100, time=184),
    Message('note_on', channel=1, note=42, velocity=100, time=8),
    Message('note_on', channel=1, note=49, velocity=100, time=0),
    Message('note_on', channel=1, note=54, velocity=100, time=0),
    Message('note_off', channel=1, note=42, velocity=100, time=376),
    Message('note_off', channel=1, note=49, velocity=100, time=0),
    Message('note_off', channel=1, note=54, velocity=100, time=0),
    Message('note_on', channel=1, note=40, velocity=100, time=8),
    Message('note_off', channel=1, note=40, velocity=100, time=184),
    Message('note_on', channel=1, note=40, velocity=100, time=8),
    Message('note_off', channel=1, note=40, velocity=100, time=184),
    Message('note_on', channel=1, note=40, velocity=100, time=8),
    Message('note_off', channel=1, note=40, velocity=100, time=184),
    Message('note_on', channel=1, note=42, velocity=100, time=8),
    Message('note_off', channel=1, note=42, velocity=100, time=184),
    Message('note_on', channel=1, note=55, velocity=100, time=8),
    Message('note_on', channel=1, note=50, velocity=100, time=0),
    Message('note_on', channel=1, note=43, velocity=100, time=0),
    Message('note_off', channel=1, note=55, velocity=100, time=376),
    Message('note_off', channel=1, note=50, velocity=100, time=0),
    Message('note_off', channel=1, note=43, velocity=100, time=0),
    Message('note_on', channel=1, note=42, velocity=100, time=8),
    Message('note_on', channel=1, note=49, velocity=100, time=0),
    Message('note_on', channel=1, note=54, velocity=100, time=0),
    Message('note_off', channel=1, note=42, velocity=100, time=376),
    Message('note_off', channel=1, note=49, velocity=100, time=0),
    Message('note_off', channel=1, note=54, velocity=100, time=0),
    Message('note_on', channel=1, note=40, velocity=100, time=8),
    Message('note_off', channel=1, note=40, velocity=100, time=184),
    Message('note_on', channel=1, note=40, velocity=100, time=8),
    Message('note_off', channel=1, note=40, velocity=100, time=184),
    Message('note_on', channel=1, note=42, velocity=100, time=8),
    Message('note_on', channel=1, note=54, velocity=100, time=0),
    Message('note_on', channel=1, note=49, velocity=100, time=0),
    Message('note_off', channel=1, note=42, velocity=100, time=376),
    Message('note_off', channel=1, note=54, velocity=100, time=0),
    Message('note_off', channel=1, note=49, velocity=100, time=0),
    Message('note_on', channel=1, note=40, velocity=100, time=8),
    Message('note_off', channel=1, note=40, velocity=100, time=184),
    Message('note_on', channel=1, note=40, velocity=100, time=8),
    Message('note_off', channel=1, note=40, velocity=100, time=184),
    Message('note_on', channel=1, note=43, velocity=100, time=8),
    Message('note_on', channel=1, note=50, velocity=100, time=0),
    Message('note_off', channel=1, note=43, velocity=100, time=184),
    Message('note_off', channel=1, note=50, velocity=100, time=0),
    Message('note_on', channel=1, note=42, velocity=100, time=8),
    Message('note_on', channel=1, note=49, velocity=100, time=0),
    Message('note_off', channel=1, note=42, velocity=100, time=184),
    Message('note_off', channel=1, note=49, velocity=100, time=0),
    Message('note_on', channel=1, note=40, velocity=100, time=8),
    Message('note_off', channel=1, note=40, velocity=100, time=376),
    Message('note_on', channel=1, note=48, velocity=100, time=8),
    Message('note_on', channel=1, note=55, velocity=100, time=0),
    Message('note_on', channel=1, note=60, velocity=100, time=0),
    Message('note_off', channel=1, note=48, velocity=100, time=760),
    Message('note_off', channel=1, note=55, velocity=100, time=0),
    Message('note_off', channel=1, note=60, velocity=100, time=0),
    Message('note_on', channel=1, note=42, velocity=100, time=8),
    Message('note_on', channel=1, note=49, velocity=100, time=0),
    Message('note_on', channel=1, note=54, velocity=100, time=0),
    Message('note_off', channel=1, note=42, velocity=100, time=376),
    Message('note_off', channel=1, note=49, velocity=100, time=0),
    Message('note_off', channel=1, note=54, velocity=100, time=0),
    Message('note_on', channel=1, note=40, velocity=100, time=8),
    Message('note_off', channel=1, note=40, velocity=100, time=184),
    Message('note_on', channel=1, note=40, velocity=100, time=8),
    Message('note_off', channel=1, note=40, velocity=100, time=184),
    Message('note_on', channel=1, note=54, velocity=100, time=8),
    Message('note_on', channel=1, note=49, velocity=100, time=0),
    Message('note_on', channel=1, note=42, velocity=100, time=0),
    Message('note_off', channel=1, note=54, velocity=100, time=376),
    Message('note_off', channel=1, note=49, velocity=100, time=0),
    Message('note_off', channel=1, note=42, velocity=100, time=0),
    Message('note_on', channel=1, note=40, velocity=100, time=8),
    Message('note_off', channel=1, note=40, velocity=100, time=184),
    Message('note_on', channel=1, note=40, velocity=100, time=8),
    Message('note_off', channel=1, note=40, velocity=100, time=184),
    Message('note_on', channel=1, note=42, velocity=100, time=8),
    Message('note_on', channel=1, note=49, velocity=100, time=0),
    Message('note_on', channel=1, note=54, velocity=100, time=0),
    Message('note_off', channel=1, note=42, velocity=100, time=376),
    Message('note_off', channel=1, note=49, velocity=100, time=0),
    Message('note_off', channel=1, note=54, velocity=100, time=0),
    Message('note_on', channel=1, note=40, velocity=100, time=8),
    Message('note_off', channel=1, note=40, velocity=100, time=184),
    Message('note_on', channel=1, note=40, velocity=100, time=8),
    Message('note_off', channel=1, note=40, velocity=100, time=184),
    Message('note_on', channel=1, note=40, velocity=100, time=8),
    Message('note_off', channel=1, note=40, velocity=100, time=184),
    Message('note_on', channel=1, note=42, velocity=100, time=8),
    Message('note_off', channel=1, note=42, velocity=100, time=184),
    Message('note_on', channel=1, note=55, velocity=100, time=8),
    Message('note_on', channel=1, note=50, velocity=100, time=0),
    Message('note_on', channel=1, note=43, velocity=100, time=0),
    Message('note_off', channel=1, note=55, velocity=100, time=376),
    Message('note_off', channel=1, note=50, velocity=100, time=0),
    Message('note_off', channel=1, note=43, velocity=100, time=0),
    Message('note_on', channel=1, note=42, velocity=100, time=8),
    Message('note_on', channel=1, note=49, velocity=100, time=0),
    Message('note_on', channel=1, note=54, velocity=100, time=0),
    Message('note_off', channel=1, note=42, velocity=100, time=376),
    Message('note_off', channel=1, note=49, velocity=100, time=0),
    Message('note_off', channel=1, note=54, velocity=100, time=0),
    Message('note_on', channel=1, note=40, velocity=100, time=8),
    Message('note_off', channel=1, note=40, velocity=100, time=184),
    Message('note_on', channel=1, note=40, velocity=100, time=8),
    Message('note_off', channel=1, note=40, velocity=100, time=184),
    Message('note_on', channel=1, note=54, velocity=100, time=8),
    Message('note_on', channel=1, note=49, velocity=100, time=0),
    Message('note_on', channel=1, note=42, velocity=100, time=0),
    Message('note_off', channel=1, note=54, velocity=100, time=376),
    Message('note_off', channel=1, note=49, velocity=100, time=0),
    Message('note_off', channel=1, note=42, velocity=100, time=0),
    Message('note_on', channel=1, note=40, velocity=100, time=8),
    Message('note_off', channel=1, note=40, velocity=100, time=184),
    Message('note_on', channel=1, note=40, velocity=100, time=8),
    Message('note_off', channel=1, note=40, velocity=100, time=184),
    Message('note_on', channel=1, note=42, velocity=100, time=8),
    Message('note_off', channel=1, note=42, velocity=100, time=184),
    Message('note_on', channel=1, note=42, velocity=100, time=8),
    Message('note_off', channel=1, note=42, velocity=100, time=184),
    Message('note_on', channel=1, note=42, velocity=100, time=8),
    Message('note_off', channel=1, note=42, velocity=100, time=184),
    Message('note_on', channel=1, note=42, velocity=100, time=8),
    Message('note_off', channel=1, note=42, velocity=100, time=184),
    Message('note_on', channel=1, note=49, velocity=100, time=8),
    Message('note_off', channel=1, note=49, velocity=100, time=184),
    Message('note_on', channel=1, note=47, velocity=100, time=8),
    Message('note_off', channel=1, note=47, velocity=100, time=184),
    Message('note_on', channel=1, note=45, velocity=100, time=8),
    Message('note_off', channel=1, note=45, velocity=100, time=376),
    Message('note_on', channel=1, note=47, velocity=100, time=8),
    Message('note_off', channel=1, note=47, velocity=100, time=184),
    Message('note_on', channel=1, note=47, velocity=100, time=8),
    Message('note_off', channel=1, note=47, velocity=100, time=184),
    Message('note_on', channel=1, note=54, velocity=100, time=8),
    Message('note_off', channel=1, note=54, velocity=100, time=184),
    Message('note_on', channel=1, note=47, velocity=100, time=8),
    Message('note_off', channel=1, note=47, velocity=100, time=184),
    Message('note_on', channel=1, note=47, velocity=100, time=8),
    Message('note_off', channel=1, note=47, velocity=100, time=184),
    Message('note_on', channel=1, note=55, velocity=100, time=8),
    Message('note_off', channel=1, note=55, velocity=100, time=184),
    Message('note_on', channel=1, note=47, velocity=100, time=8),
    Message('note_off', channel=1, note=47, velocity=100, time=184),
    Message('note_on', channel=1, note=47, velocity=100, time=8),
    Message('note_off', channel=1, note=47, velocity=100, time=184),
    Message('note_on', channel=1, note=54, velocity=100, time=8),
    Message('note_off', channel=1, note=54, velocity=100, time=184),
    Message('note_on', channel=1, note=47, velocity=100, time=8),
    Message('note_off', channel=1, note=47, velocity=100, time=184),
    Message('note_on', channel=1, note=47, velocity=100, time=8),
    Message('note_off', channel=1, note=47, velocity=100, time=184),
    Message('note_on', channel=1, note=52, velocity=100, time=8),
    Message('note_off', channel=1, note=52, velocity=100, time=184),
    Message('note_on', channel=1, note=47, velocity=100, time=8),
    Message('note_off', channel=1, note=47, velocity=100, time=184),
    Message('note_on', channel=1, note=47, velocity=100, time=8),
    Message('note_off', channel=1, note=47, velocity=100, time=184),
    Message('note_on', channel=1, note=54, velocity=100, time=8),
    Message('note_off', channel=1, note=54, velocity=100, time=184),
    Message('note_on', channel=1, note=47, velocity=100, time=8),
    Message('note_off', channel=1, note=47, velocity=100, time=184),
    Message('note_on', channel=1, note=45, velocity=100, time=8),
    Message('note_off', channel=1, note=45, velocity=100, time=184),
    Message('note_on', channel=1, note=45, velocity=100, time=8),
    Message('note_off', channel=1, note=45, velocity=100, time=184),
    Message('note_on', channel=1, note=52, velocity=100, time=8),
    Message('note_off', channel=1, note=52, velocity=100, time=184),
    Message('note_on', channel=1, note=45, velocity=100, time=8),
    Message('note_off', channel=1, note=45, velocity=100, time=184),
    Message('note_on', channel=1, note=45, velocity=100, time=8),
    Message('note_off', channel=1, note=45, velocity=100, time=184),
    Message('note_on', channel=1, note=49, velocity=100, time=8),
    Message('note_off', channel=1, note=49, velocity=100, time=184),
    Message('note_on', channel=1, note=42, velocity=100, time=8),
    Message('note_off', channel=1, note=42, velocity=100, time=184),
    Message('note_on', channel=1, note=42, velocity=100, time=8),
    Message('note_off', channel=1, note=42, velocity=100, time=184),
    Message('note_on', channel=1, note=42, velocity=100, time=8),
    Message('note_off', channel=1, note=42, velocity=100, time=184),
    Message('note_on', channel=1, note=42, velocity=100, time=8),
    Message('note_off', channel=1, note=42, velocity=100, time=184),
    Message('note_on', channel=1, note=49, velocity=100, time=8),
    Message('note_off', channel=1, note=49, velocity=100, time=184),
    Message('note_on', channel=1, note=42, velocity=100, time=8),
    Message('note_off', channel=1, note=42, velocity=100, time=184),
    Message('note_on', channel=1, note=50, velocity=100, time=8),
    Message('note_off', channel=1, note=50, velocity=100, time=184),
    Message('note_on', channel=1, note=42, velocity=100, time=8),
    Message('note_off', channel=1, note=42, velocity=100, time=184),
    Message('note_on', channel=1, note=49, velocity=100, time=8),
    Message('note_off', channel=1, note=49, velocity=100, time=184),
    Message('note_on', channel=1, note=42, velocity=100, time=8),
    Message('note_off', channel=1, note=42, velocity=100, time=184),
    Message('note_on', channel=1, note=47, velocity=100, time=8),
    Message('note_off', channel=1, note=47, velocity=100, time=184),
    Message('note_on', channel=1, note=47, velocity=100, time=8),
    Message('note_off', channel=1, note=47, velocity=100, time=184),
    Message('note_on', channel=1, note=54, velocity=100, time=8),
    Message('note_off', channel=1, note=54, velocity=100, time=184),
    Message('note_on', channel=1, note=47, velocity=100, time=8),
    Message('note_off', channel=1, note=47, velocity=100, time=184),
    Message('note_on', channel=1, note=47, velocity=100, time=8),
    Message('note_off', channel=1, note=47, velocity=100, time=184),
    Message('note_on', channel=1, note=55, velocity=100, time=8),
    Message('note_off', channel=1, note=55, velocity=100, time=184),
    Message('note_on', channel=1, note=47, velocity=100, time=8),
    Message('note_off', channel=1, note=47, velocity=100, time=184),
    Message('note_on', channel=1, note=47, velocity=100, time=8),
    Message('note_off', channel=1, note=47, velocity=100, time=184),
    Message('note_on', channel=1, note=54, velocity=100, time=8),
    Message('note_off', channel=1, note=54, velocity=100, time=184),
    Message('note_on', channel=1, note=47, velocity=100, time=8),
    Message('note_off', channel=1, note=47, velocity=100, time=184),
    Message('note_on', channel=1, note=47, velocity=100, time=8),
    Message('note_off', channel=1, note=47, velocity=100, time=184),
    Message('note_on', channel=1, note=52, velocity=100, time=8),
    Message('note_off', channel=1, note=52, velocity=100, time=184),
    Message('note_on', channel=1, note=47, velocity=100, time=8),
    Message('note_off', channel=1, note=47, velocity=100, time=184),
    Message('note_on', channel=1, note=47, velocity=100, time=8),
    Message('note_off', channel=1, note=47, velocity=100, time=184),
    Message('note_on', channel=1, note=54, velocity=100, time=8),
    Message('note_off', channel=1, note=54, velocity=100, time=184),
    Message('note_on', channel=1, note=47, velocity=100, time=8),
    Message('note_off', channel=1, note=47, velocity=100, time=184),
    Message('note_on', channel=1, note=45, velocity=100, time=8),
    Message('note_off', channel=1, note=45, velocity=100, time=184),
    Message('note_on', channel=1, note=45, velocity=100, time=8),
    Message('note_off', channel=1, note=45, velocity=100, time=184),
    Message('note_on', channel=1, note=52, velocity=100, time=8),
    Message('note_off', channel=1, note=52, velocity=100, time=184),
    Message('note_on', channel=1, note=52, velocity=100, time=8),
    Message('note_off', channel=1, note=52, velocity=100, time=184),
    Message('note_on', channel=1, note=52, velocity=100, time=8),
    Message('note_off', channel=1, note=52, velocity=100, time=184),
    Message('note_on', channel=1, note=49, velocity=100, time=8),
    Message('note_off', channel=1, note=49, velocity=100, time=568),
    Message('note_on', channel=1, note=42, velocity=100, time=8),
    Message('note_off', channel=1, note=42, velocity=100, time=184),
    Message('note_on', channel=1, note=42, velocity=100, time=8),
    Message('note_off', channel=1, note=42, velocity=100, time=184),
    Message('note_on', channel=1, note=49, velocity=100, time=8),
    Message('note_off', channel=1, note=49, velocity=100, time=184),
    Message('note_on', channel=1, note=42, velocity=100, time=8),
    Message('note_off', channel=1, note=42, velocity=100, time=184),
    Message('note_on', channel=1, note=50, velocity=100, time=8),
    Message('note_off', channel=1, note=50, velocity=100, time=184),
    Message('note_on', channel=1, note=49, velocity=100, time=8),
    Message('note_off', channel=1, note=49, velocity=100, time=568),
    Message('note_on', channel=1, note=47, velocity=100, time=8),
    Message('note_off', channel=1, note=47, velocity=100, time=184),
    Message('note_on', channel=1, note=47, velocity=100, time=8),
    Message('note_off', channel=1, note=47, velocity=100, time=184),
    Message('note_on', channel=1, note=54, velocity=100, time=8),
    Message('note_off', channel=1, note=54, velocity=100, time=184),
    Message('note_on', channel=1, note=47, velocity=100, time=8),
    Message('note_off', channel=1, note=47, velocity=100, time=184),
    Message('note_on', channel=1, note=47, velocity=100, time=8),
    Message('note_off', channel=1, note=47, velocity=100, time=184),
    Message('note_on', channel=1, note=55, velocity=100, time=8),
    Message('note_off', channel=1, note=55, velocity=100, time=184),
    Message('note_on', channel=1, note=47, velocity=100, time=8),
    Message('note_off', channel=1, note=47, velocity=100, time=184),
    Message('note_on', channel=1, note=47, velocity=100, time=8),
    Message('note_off', channel=1, note=47, velocity=100, time=184),
    Message('note_on', channel=1, note=54, velocity=100, time=8),
    Message('note_off', channel=1, note=54, velocity=100, time=184),
    Message('note_on', channel=1, note=47, velocity=100, time=8),
    Message('note_off', channel=1, note=47, velocity=100, time=184),
    Message('note_on', channel=1, note=47, velocity=100, time=8),
    Message('note_off', channel=1, note=47, velocity=100, time=184),
    Message('note_on', channel=1, note=52, velocity=100, time=8),
    Message('note_off', channel=1, note=52, velocity=100, time=184),
    Message('note_on', channel=1, note=47, velocity=100, time=8),
    Message('note_off', channel=1, note=47, velocity=100, time=184),
    Message('note_on', channel=1, note=47, velocity=100, time=8),
    Message('note_off', channel=1, note=47, velocity=100, time=184),
    Message('note_on', channel=1, note=54, velocity=100, time=8),
    Message('note_off', channel=1, note=54, velocity=100, time=184),
    Message('note_on', channel=1, note=47, velocity=100, time=8),
    Message('note_off', channel=1, note=47, velocity=100, time=184),
    Message('note_on', channel=1, note=45, velocity=100, time=8),
    Message('note_off', channel=1, note=45, velocity=100, time=184),
    Message('note_on', channel=1, note=45, velocity=100, time=8),
    Message('note_off', channel=1, note=45, velocity=100, time=184),
    Message('note_on', channel=1, note=52, velocity=100, time=8),
    Message('note_off', channel=1, note=52, velocity=100, time=184),
    Message('note_on', channel=1, note=45, velocity=100, time=8),
    Message('note_off', channel=1, note=45, velocity=100, time=184),
    Message('note_on', channel=1, note=45, velocity=100, time=8),
    Message('note_off', channel=1, note=45, velocity=100, time=184),
    Message('note_on', channel=1, note=49, velocity=100, time=8),
    Message('note_off', channel=1, note=49, velocity=100, time=184),
    Message('note_on', channel=1, note=42, velocity=100, time=8),
    Message('note_off', channel=1, note=42, velocity=100, time=184),
    Message('note_on', channel=1, note=42, velocity=100, time=8),
    Message('note_off', channel=1, note=42, velocity=100, time=184),
    Message('note_on', channel=1, note=42, velocity=100, time=8),
    Message('note_off', channel=1, note=42, velocity=100, time=184),
    Message('note_on', channel=1, note=42, velocity=100, time=8),
    Message('note_off', channel=1, note=42, velocity=100, time=184),
    Message('note_on', channel=1, note=49, velocity=100, time=8),
    Message('note_off', channel=1, note=49, velocity=100, time=184),
    Message('note_on', channel=1, note=42, velocity=100, time=8),
    Message('note_off', channel=1, note=42, velocity=100, time=184),
    Message('note_on', channel=1, note=50, velocity=100, time=8),
    Message('note_off', channel=1, note=50, velocity=100, time=184),
    Message('note_on', channel=1, note=42, velocity=100, time=8),
    Message('note_off', channel=1, note=42, velocity=100, time=184),
    Message('note_on', channel=1, note=49, velocity=100, time=8),
    Message('note_off', channel=1, note=49, velocity=100, time=184),
    Message('note_on', channel=1, note=42, velocity=100, time=8),
    Message('note_off', channel=1, note=42, velocity=100, time=184),
    Message('note_on', channel=1, note=47, velocity=100, time=8),
    Message('note_off', channel=1, note=47, velocity=100, time=184),
    Message('note_on', channel=1, note=47, velocity=100, time=8),
    Message('note_off', channel=1, note=47, velocity=100, time=184),
    Message('note_on', channel=1, note=54, velocity=100, time=8),
    Message('note_off', channel=1, note=54, velocity=100, time=184),
    Message('note_on', channel=1, note=47, velocity=100, time=8),
    Message('note_off', channel=1, note=47, velocity=100, time=184),
    Message('note_on', channel=1, note=47, velocity=100, time=8),
    Message('note_off', channel=1, note=47, velocity=100, time=184),
    Message('note_on', channel=1, note=55, velocity=100, time=8),
    Message('note_off', channel=1, note=55, velocity=100, time=184),
    Message('note_on', channel=1, note=47, velocity=100, time=8),
    Message('note_off', channel=1, note=47, velocity=100, time=184),
    Message('note_on', channel=1, note=47, velocity=100, time=8),
    Message('note_off', channel=1, note=47, velocity=100, time=184),
    Message('note_on', channel=1, note=54, velocity=100, time=8),
    Message('note_off', channel=1, note=54, velocity=100, time=184),
    Message('note_on', channel=1, note=47, velocity=100, time=8),
    Message('note_off', channel=1, note=47, velocity=100, time=184),
    Message('note_on', channel=1, note=47, velocity=100, time=8),
    Message('note_off', channel=1, note=47, velocity=100, time=184),
    Message('note_on', channel=1, note=52, velocity=100, time=8),
    Message('note_off', channel=1, note=52, velocity=100, time=184),
    Message('note_on', channel=1, note=47, velocity=100, time=8),
    Message('note_off', channel=1, note=47, velocity=100, time=184),
    Message('note_on', channel=1, note=47, velocity=100, time=8),
    Message('note_off', channel=1, note=47, velocity=100, time=184),
    Message('note_on', channel=1, note=54, velocity=100, time=8),
    Message('note_off', channel=1, note=54, velocity=100, time=184),
    Message('note_on', channel=1, note=47, velocity=100, time=8),
    Message('note_off', channel=1, note=47, velocity=100, time=184),
    Message('note_on', channel=1, note=45, velocity=100, time=8),
    Message('note_off', channel=1, note=45, velocity=100, time=184),
    Message('note_on', channel=1, note=45, velocity=100, time=8),
    Message('note_off', channel=1, note=45, velocity=100, time=184),
    Message('note_on', channel=1, note=52, velocity=100, time=8),
    Message('note_off', channel=1, note=52, velocity=100, time=184),
    Message('note_on', channel=1, note=52, velocity=100, time=8),
    Message('note_off', channel=1, note=52, velocity=100, time=184),
    Message('note_on', channel=1, note=52, velocity=100, time=8),
    Message('note_off', channel=1, note=52, velocity=100, time=184),
    Message('note_on', channel=1, note=49, velocity=100, time=8),
    Message('note_off', channel=1, note=49, velocity=100, time=568),
    Message('note_on', channel=1, note=42, velocity=100, time=8),
    Message('note_off', channel=1, note=42, velocity=100, time=184),
    Message('note_on', channel=1, note=42, velocity=100, time=8),
    Message('note_off', channel=1, note=42, velocity=100, time=184),
    Message('note_on', channel=1, note=49, velocity=100, time=8),
    Message('note_off', channel=1, note=49, velocity=100, time=184),
    Message('note_on', channel=1, note=42, velocity=100, time=8),
    Message('note_off', channel=1, note=42, velocity=100, time=184),
    Message('note_on', channel=1, note=50, velocity=100, time=8),
    Message('note_off', channel=1, note=50, velocity=100, time=184),
    Message('note_on', channel=1, note=49, velocity=100, time=8),
    Message('note_off', channel=1, note=49, velocity=100, time=568),
    Message('note_on', channel=1, note=52, velocity=100, time=8),
    Message('note_on', channel=1, note=59, velocity=100, time=0),
    Message('note_on', channel=1, note=64, velocity=100, time=0),
    Message('note_off', channel=1, note=52, velocity=100, time=376),
    Message('note_off', channel=1, note=59, velocity=100, time=0),
    Message('note_off', channel=1, note=64, velocity=100, time=0),
    Message('note_on', channel=1, note=40, velocity=100, time=8),
    Message('note_off', channel=1, note=40, velocity=100, time=184),
    Message('note_on', channel=1, note=40, velocity=100, time=8),
    Message('note_off', channel=1, note=40, velocity=100, time=184),
    Message('note_on', channel=1, note=53, velocity=100, time=8),
    Message('note_on', channel=1, note=60, velocity=100, time=0),
    Message('note_on', channel=1, note=65, velocity=100, time=0),
    Message('note_off', channel=1, note=53, velocity=100, time=760),
    Message('note_off', channel=1, note=60, velocity=100, time=0),
    Message('note_off', channel=1, note=65, velocity=100, time=0),
    Message('note_on', channel=1, note=52, velocity=100, time=8),
    Message('note_on', channel=1, note=59, velocity=100, time=0),
    Message('note_on', channel=1, note=64, velocity=100, time=0),
    Message('note_off', channel=1, note=52, velocity=100, time=376),
    Message('note_off', channel=1, note=59, velocity=100, time=0),
    Message('note_off', channel=1, note=64, velocity=100, time=0),
    Message('note_on', channel=1, note=40, velocity=100, time=8),
    Message('note_off', channel=1, note=40, velocity=100, time=184),
    Message('note_on', channel=1, note=40, velocity=100, time=8),
    Message('note_off', channel=1, note=40, velocity=100, time=184),
    Message('note_on', channel=1, note=62, velocity=100, time=8),
    Message('note_on', channel=1, note=57, velocity=100, time=0),
    Message('note_on', channel=1, note=50, velocity=100, time=0),
    Message('note_off', channel=1, note=62, velocity=100, time=760),
    Message('note_off', channel=1, note=57, velocity=100, time=0),
    Message('note_off', channel=1, note=50, velocity=100, time=0),
    Message('note_on', channel=1, note=52, velocity=100, time=8),
    Message('note_on', channel=1, note=59, velocity=100, time=0),
    Message('note_on', channel=1, note=64, velocity=100, time=0),
    Message('note_off', channel=1, note=52, velocity=100, time=376),
    Message('note_off', channel=1, note=59, velocity=100, time=0),
    Message('note_off', channel=1, note=64, velocity=100, time=0),
    Message('note_on', channel=1, note=40, velocity=100, time=8),
    Message('note_off', channel=1, note=40, velocity=100, time=184),
    Message('note_on', channel=1, note=40, velocity=100, time=8),
    Message('note_off', channel=1, note=40, velocity=100, time=184),
    Message('note_on', channel=1, note=59, velocity=100, time=8),
    Message('note_on', channel=1, note=54, velocity=100, time=0),
    Message('note_off', channel=1, note=59, velocity=100, time=760),
    Message('note_off', channel=1, note=54, velocity=100, time=0),
    Message('note_on', channel=1, note=50, velocity=100, time=8),
    Message('note_on', channel=1, note=57, velocity=100, time=0),
    Message('note_on', channel=1, note=62, velocity=100, time=0),
    Message('note_off', channel=1, note=50, velocity=100, time=1528),
    Message('note_off', channel=1, note=57, velocity=100, time=0),
    Message('note_off', channel=1, note=62, velocity=100, time=0),
    Message('note_on', channel=1, note=52, velocity=100, time=8),
    Message('note_on', channel=1, note=59, velocity=100, time=0),
    Message('note_on', channel=1, note=64, velocity=100, time=0),
    Message('note_off', channel=1, note=52, velocity=100, time=376),
    Message('note_off', channel=1, note=59, velocity=100, time=0),
    Message('note_off', channel=1, note=64, velocity=100, time=0),
    Message('note_on', channel=1, note=40, velocity=100, time=8),
    Message('note_off', channel=1, note=40, velocity=100, time=184),
    Message('note_on', channel=1, note=40, velocity=100, time=8),
    Message('note_off', channel=1, note=40, velocity=100, time=184),
    Message('note_on', channel=1, note=53, velocity=100, time=8),
    Message('note_on', channel=1, note=60, velocity=100, time=0),
    Message('note_on', channel=1, note=65, velocity=100, time=0),
    Message('note_off', channel=1, note=53, velocity=100, time=760),
    Message('note_off', channel=1, note=60, velocity=100, time=0),
    Message('note_off', channel=1, note=65, velocity=100, time=0),
    Message('note_on', channel=1, note=52, velocity=100, time=8),
    Message('note_on', channel=1, note=59, velocity=100, time=0),
    Message('note_on', channel=1, note=64, velocity=100, time=0),
    Message('note_off', channel=1, note=52, velocity=100, time=376),
    Message('note_off', channel=1, note=59, velocity=100, time=0),
    Message('note_off', channel=1, note=64, velocity=100, time=0),
    Message('note_on', channel=1, note=40, velocity=100, time=8),
    Message('note_off', channel=1, note=40, velocity=100, time=184),
    Message('note_on', channel=1, note=40, velocity=100, time=8),
    Message('note_off', channel=1, note=40, velocity=100, time=184),
    Message('note_on', channel=1, note=62, velocity=100, time=8),
    Message('note_on', channel=1, note=57, velocity=100, time=0),
    Message('note_on', channel=1, note=50, velocity=100, time=0),
    Message('note_off', channel=1, note=62, velocity=100, time=760),
    Message('note_off', channel=1, note=57, velocity=100, time=0),
    Message('note_off', channel=1, note=50, velocity=100, time=0),
    Message('note_on', channel=1, note=52, velocity=100, time=8),
    Message('note_on', channel=1, note=59, velocity=100, time=0),
    Message('note_on', channel=1, note=64, velocity=100, time=0),
    Message('note_off', channel=1, note=52, velocity=100, time=376),
    Message('note_off', channel=1, note=59, velocity=100, time=0),
    Message('note_off', channel=1, note=64, velocity=100, time=0),
    Message('note_on', channel=1, note=40, velocity=100, time=8),
    Message('note_off', channel=1, note=40, velocity=100, time=184),
    Message('note_on', channel=1, note=40, velocity=100, time=8),
    Message('note_off', channel=1, note=40, velocity=100, time=184),
    Message('note_on', channel=1, note=59, velocity=100, time=8),
    Message('note_on', channel=1, note=54, velocity=100, time=0),
    Message('note_off', channel=1, note=59, velocity=100, time=760),
    Message('note_off', channel=1, note=54, velocity=100, time=0),
    Message('note_on', channel=1, note=50, velocity=100, time=8),
    Message('note_on', channel=1, note=57, velocity=100, time=0),
    Message('note_on', channel=1, note=62, velocity=100, time=0),
    Message('note_off', channel=1, note=50, velocity=100, time=1528),
    Message('note_off', channel=1, note=57, velocity=100, time=0),
    Message('note_off', channel=1, note=62, velocity=100, time=0),
    Message('note_on', channel=1, note=52, velocity=100, time=8),
    Message('note_on', channel=1, note=59, velocity=100, time=0),
    Message('note_on', channel=1, note=64, velocity=100, time=0),
    Message('note_off', channel=1, note=52, velocity=100, time=376),
    Message('note_off', channel=1, note=59, velocity=100, time=0),
    Message('note_off', channel=1, note=64, velocity=100, time=0),
    Message('note_on', channel=1, note=40, velocity=100, time=8),
    Message('note_off', channel=1, note=40, velocity=100, time=184),
    Message('note_on', channel=1, note=40, velocity=100, time=8),
    Message('note_off', channel=1, note=40, velocity=100, time=184),
    Message('note_on', channel=1, note=53, velocity=100, time=8),
    Message('note_on', channel=1, note=60, velocity=100, time=0),
    Message('note_on', channel=1, note=65, velocity=100, time=0),
    Message('note_off', channel=1, note=53, velocity=100, time=760),
    Message('note_off', channel=1, note=60, velocity=100, time=0),
    Message('note_off', channel=1, note=65, velocity=100, time=0),
    Message('note_on', channel=1, note=52, velocity=100, time=8),
    Message('note_on', channel=1, note=59, velocity=100, time=0),
    Message('note_on', channel=1, note=64, velocity=100, time=0),
    Message('note_off', channel=1, note=52, velocity=100, time=376),
    Message('note_off', channel=1, note=59, velocity=100, time=0),
    Message('note_off', channel=1, note=64, velocity=100, time=0),
    Message('note_on', channel=1, note=40, velocity=100, time=8),
    Message('note_off', channel=1, note=40, velocity=100, time=184),
    Message('note_on', channel=1, note=40, velocity=100, time=8),
    Message('note_off', channel=1, note=40, velocity=100, time=184),
    Message('note_on', channel=1, note=62, velocity=100, time=8),
    Message('note_on', channel=1, note=57, velocity=100, time=0),
    Message('note_on', channel=1, note=50, velocity=100, time=0),
    Message('note_off', channel=1, note=62, velocity=100, time=760),
    Message('note_off', channel=1, note=57, velocity=100, time=0),
    Message('note_off', channel=1, note=50, velocity=100, time=0),
    Message('note_on', channel=1, note=52, velocity=100, time=8),
    Message('note_on', channel=1, note=59, velocity=100, time=0),
    Message('note_on', channel=1, note=64, velocity=100, time=0),
    Message('note_off', channel=1, note=52, velocity=100, time=376),
    Message('note_off', channel=1, note=59, velocity=100, time=0),
    Message('note_off', channel=1, note=64, velocity=100, time=0),
    Message('note_on', channel=1, note=40, velocity=100, time=8),
    Message('note_off', channel=1, note=40, velocity=100, time=184),
    Message('note_on', channel=1, note=40, velocity=100, time=8),
    Message('note_off', channel=1, note=40, velocity=100, time=184),
    Message('note_on', channel=1, note=59, velocity=100, time=8),
    Message('note_on', channel=1, note=54, velocity=100, time=0),
    Message('note_off', channel=1, note=59, velocity=100, time=760),
    Message('note_off', channel=1, note=54, velocity=100, time=0),
    Message('note_on', channel=1, note=50, velocity=100, time=8),
    Message('note_on', channel=1, note=57, velocity=100, time=0),
    Message('note_on', channel=1, note=62, velocity=100, time=0),
    Message('note_off', channel=1, note=50, velocity=100, time=1528),
    Message('note_off', channel=1, note=57, velocity=100, time=0),
    Message('note_off', channel=1, note=62, velocity=100, time=0),
    Message('note_on', channel=1, note=52, velocity=100, time=8),
    Message('note_on', channel=1, note=59, velocity=100, time=0),
    Message('note_on', channel=1, note=64, velocity=100, time=0),
    Message('note_off', channel=1, note=52, velocity=100, time=376),
    Message('note_off', channel=1, note=59, velocity=100, time=0),
    Message('note_off', channel=1, note=64, velocity=100, time=0),
    Message('note_on', channel=1, note=40, velocity=100, time=8),
    Message('note_off', channel=1, note=40, velocity=100, time=184),
    Message('note_on', channel=1, note=40, velocity=100, time=8),
    Message('note_off', channel=1, note=40, velocity=100, time=184),
    Message('note_on', channel=1, note=53, velocity=100, time=8),
    Message('note_on', channel=1, note=60, velocity=100, time=0),
    Message('note_on', channel=1, note=65, velocity=100, time=0),
    Message('note_off', channel=1, note=53, velocity=100, time=760),
    Message('note_off', channel=1, note=60, velocity=100, time=0),
    Message('note_off', channel=1, note=65, velocity=100, time=0),
    Message('note_on', channel=1, note=52, velocity=100, time=8),
    Message('note_on', channel=1, note=59, velocity=100, time=0),
    Message('note_on', channel=1, note=64, velocity=100, time=0),
    Message('note_off', channel=1, note=52, velocity=100, time=376),
    Message('note_off', channel=1, note=59, velocity=100, time=0),
    Message('note_off', channel=1, note=64, velocity=100, time=0),
    Message('note_on', channel=1, note=40, velocity=100, time=8),
    Message('note_off', channel=1, note=40, velocity=100, time=184),
    Message('note_on', channel=1, note=40, velocity=100, time=8),
    Message('note_off', channel=1, note=40, velocity=100, time=184),
    Message('note_on', channel=1, note=62, velocity=100, time=8),
    Message('note_on', channel=1, note=57, velocity=100, time=0),
    Message('note_on', channel=1, note=50, velocity=100, time=0),
    Message('note_off', channel=1, note=62, velocity=100, time=760),
    Message('note_off', channel=1, note=57, velocity=100, time=0),
    Message('note_off', channel=1, note=50, velocity=100, time=0),
    Message('note_on', channel=1, note=52, velocity=100, time=8),
    Message('note_on', channel=1, note=59, velocity=100, time=0),
    Message('note_on', channel=1, note=64, velocity=100, time=0),
    Message('note_off', channel=1, note=52, velocity=100, time=376),
    Message('note_off', channel=1, note=59, velocity=100, time=0),
    Message('note_off', channel=1, note=64, velocity=100, time=0),
    Message('note_on', channel=1, note=40, velocity=100, time=8),
    Message('note_off', channel=1, note=40, velocity=100, time=184),
    Message('note_on', channel=1, note=40, velocity=100, time=8),
    Message('note_off', channel=1, note=40, velocity=100, time=184),
    Message('note_on', channel=1, note=59, velocity=100, time=8),
    Message('note_on', channel=1, note=54, velocity=100, time=0),
    Message('note_off', channel=1, note=59, velocity=100, time=760),
    Message('note_off', channel=1, note=54, velocity=100, time=0),
    Message('note_on', channel=1, note=50, velocity=100, time=8),
    Message('note_on', channel=1, note=57, velocity=100, time=0),
    Message('note_on', channel=1, note=62, velocity=100, time=0),
    Message('note_off', channel=1, note=50, velocity=100, time=1528),
    Message('note_off', channel=1, note=57, velocity=100, time=0),
    Message('note_off', channel=1, note=62, velocity=100, time=0),
    Message('note_on', channel=1, note=52, velocity=100, time=8),
    Message('note_on', channel=1, note=59, velocity=100, time=0),
    Message('note_on', channel=1, note=64, velocity=100, time=0),
    Message('note_off', channel=1, note=52, velocity=100, time=376),
    Message('note_off', channel=1, note=59, velocity=100, time=0),
    Message('note_off', channel=1, note=64, velocity=100, time=0),
    Message('note_on', channel=1, note=40, velocity=99, time=8),
    Message('note_off', channel=1, note=40, velocity=100, time=184),
    Message('note_on', channel=1, note=40, velocity=98, time=8),
    Message('note_off', channel=1, note=40, velocity=100, time=184),
    Message('note_on', channel=1, note=53, velocity=98, time=8),
    Message('note_on', channel=1, note=60, velocity=98, time=0),
    Message('note_on', channel=1, note=65, velocity=98, time=0),
    Message('note_off', channel=1, note=53, velocity=100, time=760),
    Message('note_off', channel=1, note=60, velocity=100, time=0),
    Message('note_off', channel=1, note=65, velocity=100, time=0),
    Message('note_on', channel=1, note=52, velocity=95, time=8),
    Message('note_on', channel=1, note=59, velocity=95, time=0),
    Message('note_on', channel=1, note=64, velocity=95, time=0),
    Message('note_off', channel=1, note=52, velocity=100, time=376),
    Message('note_off', channel=1, note=59, velocity=100, time=0),
    Message('note_off', channel=1, note=64, velocity=100, time=0),
    Message('note_on', channel=1, note=40, velocity=94, time=8),
    Message('note_off', channel=1, note=40, velocity=100, time=184),
    Message('note_on', channel=1, note=40, velocity=93, time=8),
    Message('note_off', channel=1, note=40, velocity=100, time=184),
    Message('note_on', channel=1, note=62, velocity=92, time=8),
    Message('note_on', channel=1, note=57, velocity=92, time=0),
    Message('note_on', channel=1, note=50, velocity=92, time=0),
    Message('note_off', channel=1, note=62, velocity=100, time=760),
    Message('note_off', channel=1, note=57, velocity=100, time=0),
    Message('note_off', channel=1, note=50, velocity=100, time=0),
    Message('note_on', channel=1, note=52, velocity=89, time=8),
    Message('note_on', channel=1, note=59, velocity=89, time=0),
    Message('note_on', channel=1, note=64, velocity=89, time=0),
    Message('note_off', channel=1, note=52, velocity=100, time=376),
    Message('note_off', channel=1, note=59, velocity=100, time=0),
    Message('note_off', channel=1, note=64, velocity=100, time=0),
    Message('note_on', channel=1, note=40, velocity=88, time=8),
    Message('note_off', channel=1, note=40, velocity=100, time=184),
    Message('note_on', channel=1, note=40, velocity=87, time=8),
    Message('note_off', channel=1, note=40, velocity=100, time=184),
    Message('note_on', channel=1, note=59, velocity=87, time=8),
    Message('note_on', channel=1, note=54, velocity=87, time=0),
    Message('note_off', channel=1, note=59, velocity=100, time=760),
    Message('note_off', channel=1, note=54, velocity=100, time=0),
    Message('note_on', channel=1, note=50, velocity=84, time=8),
    Message('note_on', channel=1, note=57, velocity=84, time=0),
    Message('note_on', channel=1, note=62, velocity=84, time=0),
    Message('note_off', channel=1, note=50, velocity=100, time=1528),
    Message('note_off', channel=1, note=57, velocity=100, time=0),
    Message('note_off', channel=1, note=62, velocity=100, time=0),
    Message('note_on', channel=1, note=52, velocity=78, time=8),
    Message('note_on', channel=1, note=59, velocity=78, time=0),
    Message('note_on', channel=1, note=64, velocity=78, time=0),
    Message('note_off', channel=1, note=52, velocity=100, time=376),
    Message('note_off', channel=1, note=59, velocity=100, time=0),
    Message('note_off', channel=1, note=64, velocity=100, time=0),
    Message('note_on', channel=1, note=40, velocity=77, time=8),
    Message('note_off', channel=1, note=40, velocity=100, time=184),
    Message('note_on', channel=1, note=40, velocity=76, time=8),
    Message('note_off', channel=1, note=40, velocity=100, time=184),
    Message('note_on', channel=1, note=53, velocity=75, time=8),
    Message('note_on', channel=1, note=60, velocity=75, time=0),
    Message('note_on', channel=1, note=65, velocity=75, time=0),
    Message('note_off', channel=1, note=53, velocity=100, time=760),
    Message('note_off', channel=1, note=60, velocity=100, time=0),
    Message('note_off', channel=1, note=65, velocity=100, time=0),
    Message('note_on', channel=1, note=52, velocity=73, time=8),
    Message('note_on', channel=1, note=59, velocity=73, time=0),
    Message('note_on', channel=1, note=64, velocity=73, time=0),
    Message('note_off', channel=1, note=52, velocity=100, time=376),
    Message('note_off', channel=1, note=59, velocity=100, time=0),
    Message('note_off', channel=1, note=64, velocity=100, time=0),
    Message('note_on', channel=1, note=40, velocity=71, time=8),
    Message('note_off', channel=1, note=40, velocity=100, time=184),
    Message('note_on', channel=1, note=40, velocity=70, time=8),
    Message('note_off', channel=1, note=40, velocity=100, time=184),
    Message('note_on', channel=1, note=62, velocity=70, time=8),
    Message('note_on', channel=1, note=57, velocity=70, time=0),
    Message('note_on', channel=1, note=50, velocity=70, time=0),
    Message('note_off', channel=1, note=62, velocity=100, time=760),
    Message('note_off', channel=1, note=57, velocity=100, time=0),
    Message('note_off', channel=1, note=50, velocity=100, time=0),
    Message('note_on', channel=1, note=52, velocity=67, time=8),
    Message('note_on', channel=1, note=59, velocity=67, time=0),
    Message('note_on', channel=1, note=64, velocity=67, time=0),
    Message('note_off', channel=1, note=52, velocity=100, time=376),
    Message('note_off', channel=1, note=59, velocity=100, time=0),
    Message('note_off', channel=1, note=64, velocity=100, time=0),
    Message('note_on', channel=1, note=40, velocity=66, time=8),
    Message('note_off', channel=1, note=40, velocity=100, time=184),
    Message('note_on', channel=1, note=40, velocity=65, time=8),
    Message('note_off', channel=1, note=40, velocity=100, time=184),
    Message('note_on', channel=1, note=59, velocity=64, time=8),
    Message('note_on', channel=1, note=54, velocity=64, time=0),
    Message('note_off', channel=1, note=59, velocity=100, time=760),
    Message('note_off', channel=1, note=54, velocity=100, time=0),
    Message('note_on', channel=1, note=50, velocity=61, time=8),
    Message('note_on', channel=1, note=57, velocity=61, time=0),
    Message('note_on', channel=1, note=62, velocity=61, time=0),
    Message('note_off', channel=1, note=50, velocity=100, time=1528),
    Message('note_off', channel=1, note=57, velocity=100, time=0),
    Message('note_off', channel=1, note=62, velocity=100, time=0),
    Message('note_on', channel=1, note=52, velocity=56, time=8),
    Message('note_on', channel=1, note=59, velocity=56, time=0),
    Message('note_on', channel=1, note=64, velocity=56, time=0),
    Message('note_off', channel=1, note=52, velocity=100, time=376),
    Message('note_off', channel=1, note=59, velocity=100, time=0),
    Message('note_off', channel=1, note=64, velocity=100, time=0),
    Message('note_on', channel=1, note=40, velocity=54, time=8),
    Message('note_off', channel=1, note=40, velocity=100, time=184),
    Message('note_on', channel=1, note=40, velocity=54, time=8),
    Message('note_off', channel=1, note=40, velocity=100, time=184),
    Message('note_on', channel=1, note=53, velocity=53, time=8),
    Message('note_on', channel=1, note=60, velocity=53, time=0),
    Message('note_on', channel=1, note=65, velocity=53, time=0),
    Message('note_off', channel=1, note=53, velocity=100, time=760),
    Message('note_off', channel=1, note=60, velocity=100, time=0),
    Message('note_off', channel=1, note=65, velocity=100, time=0),
    Message('note_on', channel=1, note=52, velocity=50, time=8),
    Message('note_on', channel=1, note=59, velocity=50, time=0),
    Message('note_on', channel=1, note=64, velocity=50, time=0),
    Message('note_off', channel=1, note=52, velocity=100, time=376),
    Message('note_off', channel=1, note=59, velocity=100, time=0),
    Message('note_off', channel=1, note=64, velocity=100, time=0),
    Message('note_on', channel=1, note=40, velocity=49, time=8),
    Message('note_off', channel=1, note=40, velocity=100, time=184),
    Message('note_on', channel=1, note=40, velocity=48, time=8),
    Message('note_off', channel=1, note=40, velocity=100, time=184),
    Message('note_on', channel=1, note=62, velocity=47, time=8),
    Message('note_on', channel=1, note=57, velocity=47, time=0),
    Message('note_on', channel=1, note=50, velocity=47, time=0),
    Message('note_off', channel=1, note=62, velocity=100, time=760),
    Message('note_off', channel=1, note=57, velocity=100, time=0),
    Message('note_off', channel=1, note=50, velocity=100, time=0),
    Message('note_on', channel=1, note=52, velocity=45, time=8),
    Message('note_on', channel=1, note=59, velocity=45, time=0),
    Message('note_on', channel=1, note=64, velocity=45, time=0),
    Message('note_off', channel=1, note=52, velocity=100, time=376),
    Message('note_off', channel=1, note=59, velocity=100, time=0),
    Message('note_off', channel=1, note=64, velocity=100, time=0),
    Message('note_on', channel=1, note=40, velocity=43, time=8),
    Message('note_off', channel=1, note=40, velocity=100, time=184),
    Message('note_on', channel=1, note=40, velocity=42, time=8),
    Message('note_off', channel=1, note=40, velocity=100, time=184),
    Message('note_on', channel=1, note=59, velocity=42, time=8),
    Message('note_on', channel=1, note=54, velocity=42, time=0),
    Message('note_off', channel=1, note=59, velocity=100, time=760),
    Message('note_off', channel=1, note=54, velocity=100, time=0),
    Message('note_on', channel=1, note=50, velocity=39, time=8),
    Message('note_on', channel=1, note=57, velocity=39, time=0),
    Message('note_on', channel=1, note=62, velocity=39, time=0),
    Message('note_off', channel=1, note=50, velocity=100, time=1528),
    Message('note_off', channel=1, note=57, velocity=100, time=0),
    Message('note_off', channel=1, note=62, velocity=100, time=0),
    Message('note_on', channel=1, note=52, velocity=33, time=8),
    Message('note_on', channel=1, note=59, velocity=33, time=0),
    Message('note_on', channel=1, note=64, velocity=33, time=0),
    Message('note_off', channel=1, note=52, velocity=100, time=376),
    Message('note_off', channel=1, note=59, velocity=100, time=0),
    Message('note_off', channel=1, note=64, velocity=100, time=0),
    Message('note_on', channel=1, note=40, velocity=32, time=8),
    Message('note_off', channel=1, note=40, velocity=100, time=184),
    Message('note_on', channel=1, note=40, velocity=31, time=8),
    Message('note_off', channel=1, note=40, velocity=100, time=184),
    Message('note_on', channel=1, note=53, velocity=31, time=8),
    Message('note_on', channel=1, note=60, velocity=31, time=0),
    Message('note_on', channel=1, note=65, velocity=31, time=0),
    Message('note_off', channel=1, note=53, velocity=100, time=760),
    Message('note_off', channel=1, note=60, velocity=100, time=0),
    Message('note_off', channel=1, note=65, velocity=100, time=0),
    Message('note_on', channel=1, note=52, velocity=28, time=8),
    Message('note_on', channel=1, note=59, velocity=28, time=0),
    Message('note_on', channel=1, note=64, velocity=28, time=0),
    Message('note_off', channel=1, note=52, velocity=100, time=376),
    Message('note_off', channel=1, note=59, velocity=100, time=0),
    Message('note_off', channel=1, note=64, velocity=100, time=0),
    Message('note_on', channel=1, note=40, velocity=26, time=8),
    Message('note_off', channel=1, note=40, velocity=100, time=184),
    Message('note_on', channel=1, note=40, velocity=26, time=8),
    Message('note_off', channel=1, note=40, velocity=100, time=184),
    Message('note_on', channel=1, note=62, velocity=25, time=8),
    Message('note_on', channel=1, note=57, velocity=25, time=0),
    Message('note_on', channel=1, note=50, velocity=25, time=0),
    Message('note_off', channel=1, note=62, velocity=100, time=760),
    Message('note_off', channel=1, note=57, velocity=100, time=0),
    Message('note_off', channel=1, note=50, velocity=100, time=0),
    Message('note_on', channel=1, note=52, velocity=22, time=8),
    Message('note_on', channel=1, note=59, velocity=22, time=0),
    Message('note_on', channel=1, note=64, velocity=22, time=0),
    Message('note_off', channel=1, note=52, velocity=100, time=376),
    Message('note_off', channel=1, note=59, velocity=100, time=0),
    Message('note_off', channel=1, note=64, velocity=100, time=0),
    Message('note_on', channel=1, note=40, velocity=21, time=8),
    Message('note_off', channel=1, note=40, velocity=100, time=184),
    Message('note_on', channel=1, note=40, velocity=20, time=8),
    Message('note_off', channel=1, note=40, velocity=100, time=184),
    Message('note_on', channel=1, note=59, velocity=19, time=8),
    Message('note_on', channel=1, note=54, velocity=19, time=0),
    Message('note_off', channel=1, note=59, velocity=100, time=760),
    Message('note_off', channel=1, note=54, velocity=100, time=0),
    Message('note_on', channel=1, note=50, velocity=17, time=8),
    Message('note_on', channel=1, note=57, velocity=17, time=0),
    Message('note_on', channel=1, note=62, velocity=17, time=0),
    Message('note_off', channel=1, note=50, velocity=100, time=1528),
    Message('note_off', channel=1, note=57, velocity=100, time=0),
    Message('note_off', channel=1, note=62, velocity=100, time=0),
    Message('note_on', channel=1, note=52, velocity=11, time=8),
    Message('note_on', channel=1, note=59, velocity=11, time=0),
    Message('note_on', channel=1, note=64, velocity=11, time=0),
    Message('note_off', channel=1, note=52, velocity=100, time=376),
    Message('note_off', channel=1, note=59, velocity=100, time=0),
    Message('note_off', channel=1, note=64, velocity=100, time=0),
    Message('note_on', channel=1, note=40, velocity=10, time=8),
    Message('note_off', channel=1, note=40, velocity=100, time=184),
    Message('note_on', channel=1, note=40, velocity=9, time=8),
    Message('note_off', channel=1, note=40, velocity=100, time=184),
    Message('note_on', channel=1, note=53, velocity=8, time=8),
    Message('note_on', channel=1, note=60, velocity=8, time=0),
    Message('note_on', channel=1, note=65, velocity=8, time=0),
    Message('note_off', channel=1, note=53, velocity=100, time=760),
    Message('note_off', channel=1, note=60, velocity=100, time=0),
    Message('note_off', channel=1, note=65, velocity=100, time=0),
    Message('note_on', channel=1, note=52, velocity=5, time=8),
    Message('note_on', channel=1, note=59, velocity=5, time=0),
    Message('note_on', channel=1, note=64, velocity=5, time=0),
    Message('note_off', channel=1, note=52, velocity=100, time=376),
    Message('note_off', channel=1, note=59, velocity=100, time=0),
    Message('note_off', channel=1, note=64, velocity=100, time=0),
    Message('note_on', channel=1, note=40, velocity=4, time=8),
    Message('note_off', channel=1, note=40, velocity=100, time=184),
    Message('note_on', channel=1, note=40, velocity=3, time=8),
    Message('note_off', channel=1, note=40, velocity=100, time=184),
    Message('note_on', channel=1, note=62, velocity=3, time=8),
    Message('note_on', channel=1, note=57, velocity=3, time=0),
    Message('note_on', channel=1, note=50, velocity=3, time=0),
    Message('note_off', channel=1, note=62, velocity=100, time=760),
    Message('note_off', channel=1, note=57, velocity=100, time=0),
    Message('note_off', channel=1, note=50, velocity=100, time=0),
    Message('note_on', channel=1, note=52, velocity=1, time=8),
    Message('note_on', channel=1, note=59, velocity=1, time=0),
    Message('note_on', channel=1, note=64, velocity=1, time=0),
    Message('note_off', channel=1, note=52, velocity=100, time=376),
    Message('note_off', channel=1, note=59, velocity=100, time=0),
    Message('note_off', channel=1, note=64, velocity=100, time=0),
    Message('note_on', channel=1, note=40, velocity=1, time=8),
    Message('note_off', channel=1, note=40, velocity=100, time=184),
    Message('note_on', channel=1, note=40, velocity=1, time=8),
    Message('note_off', channel=1, note=40, velocity=100, time=184),
    Message('note_on', channel=1, note=59, velocity=1, time=8),
    Message('note_on', channel=1, note=54, velocity=1, time=0),
    Message('note_off', channel=1, note=59, velocity=100, time=760),
    Message('note_off', channel=1, note=54, velocity=100, time=0),
    Message('note_on', channel=1, note=50, velocity=1, time=8),
    Message('note_on', channel=1, note=57, velocity=1, time=0),
    Message('note_on', channel=1, note=62, velocity=1, time=0),
    Message('note_off', channel=1, note=50, velocity=100, time=1528),
    Message('note_off', channel=1, note=57, velocity=100, time=0),
    Message('note_off', channel=1, note=62, velocity=100, time=0),
    Message('note_on', channel=1, note=47, velocity=1, time=8),
    Message('note_on', channel=1, note=40, velocity=1, time=0),
    Message('note_on', channel=1, note=52, velocity=1, time=0),
    Message('note_off', channel=1, note=47, velocity=100, time=12284),
    Message('note_off', channel=1, note=52, velocity=100, time=4),
    Message('note_off', channel=1, note=40, velocity=100, time=0),
    MetaMessage('end_of_track', time=0)]),
  MidiTrack([
    MetaMessage('track_name', name='Sergey Seryogin', time=0),
    Message('control_change', channel=9, control=0, value=0, time=0),
    Message('program_change', channel=9, program=0, time=0),
    Message('control_change', channel=9, control=7, value=110, time=0),
    Message('control_change', channel=9, control=91, value=127, time=0),
    Message('control_change', channel=9, control=93, value=0, time=0),
    MetaMessage('key_signature', key='G', time=0),
    Message('note_on', channel=9, note=36, velocity=100, time=6144),
    Message('note_on', channel=9, note=49, velocity=100, time=0),
    Message('note_off', channel=9, note=36, velocity=100, time=376),
    Message('note_off', channel=9, note=49, velocity=100, time=0),
    Message('note_on', channel=9, note=36, velocity=100, time=8),
    Message('note_on', channel=9, note=38, velocity=100, time=0),
    Message('note_on', channel=9, note=42, velocity=99, time=0),
    Message('note_off', channel=9, note=36, velocity=100, time=184),
    Message('note_off', channel=9, note=38, velocity=100, time=0),
    Message('note_off', channel=9, note=42, velocity=100, time=0),
    Message('note_on', channel=9, note=36, velocity=100, time=8),
    Message('note_off', channel=9, note=36, velocity=100, time=184),
    Message('note_on', channel=9, note=36, velocity=100, time=8),
    Message('note_on', channel=9, note=42, velocity=100, time=0),
    Message('note_off', channel=9, note=36, velocity=100, time=184),
    Message('note_off', channel=9, note=42, velocity=100, time=0),
    Message('note_on', channel=9, note=36, velocity=100, time=8),
    Message('note_off', channel=9, note=36, velocity=100, time=184),
    Message('note_on', channel=9, note=38, velocity=100, time=8),
    Message('note_on', channel=9, note=42, velocity=100, time=0),
    Message('note_on', channel=9, note=36, velocity=100, time=0),
    Message('note_off', channel=9, note=38, velocity=100, time=184),
    Message('note_off', channel=9, note=42, velocity=100, time=0),
    Message('note_off', channel=9, note=36, velocity=100, time=0),
    Message('note_on', channel=9, note=36, velocity=100, time=8),
    Message('note_off', channel=9, note=36, velocity=100, time=184),
    Message('note_on', channel=9, note=36, velocity=100, time=8),
    Message('note_on', channel=9, note=42, velocity=100, time=0),
    Message('note_off', channel=9, note=36, velocity=100, time=184),
    Message('note_off', channel=9, note=42, velocity=100, time=0),
    Message('note_on', channel=9, note=36, velocity=100, time=8),
    Message('note_off', channel=9, note=36, velocity=100, time=184),
    Message('note_on', channel=9, note=36, velocity=100, time=8),
    Message('note_on', channel=9, note=42, velocity=100, time=0),
    Message('note_on', channel=9, note=38, velocity=100, time=0),
    Message('note_off', channel=9, note=36, velocity=100, time=184),
    Message('note_off', channel=9, note=42, velocity=100, time=0),
    Message('note_off', channel=9, note=38, velocity=100, time=0),
    Message('note_on', channel=9, note=36, velocity=100, time=8),
    Message('note_off', channel=9, note=36, velocity=100, time=184),
    Message('note_on', channel=9, note=36, velocity=100, time=8),
    Message('note_on', channel=9, note=42, velocity=100, time=0),
    Message('note_off', channel=9, note=36, velocity=100, time=184),
    Message('note_off', channel=9, note=42, velocity=100, time=0),
    Message('note_on', channel=9, note=36, velocity=100, time=8),
    Message('note_off', channel=9, note=36, velocity=100, time=184),
    Message('note_on', channel=9, note=38, velocity=100, time=8),
    Message('note_on', channel=9, note=42, velocity=100, time=0),
    Message('note_on', channel=9, note=36, velocity=100, time=0),
    Message('note_off', channel=9, note=38, velocity=100, time=184),
    Message('note_off', channel=9, note=42, velocity=100, time=0),
    Message('note_off', channel=9, note=36, velocity=100, time=0),
    Message('note_on', channel=9, note=36, velocity=100, time=8),
    Message('note_off', channel=9, note=36, velocity=100, time=184),
    Message('note_on', channel=9, note=36, velocity=100, time=8),
    Message('note_on', channel=9, note=42, velocity=100, time=0),
    Message('note_off', channel=9, note=36, velocity=100, time=184),
    Message('note_off', channel=9, note=42, velocity=100, time=0),
    Message('note_on', channel=9, note=36, velocity=100, time=8),
    Message('note_off', channel=9, note=36, velocity=100, time=184),
    Message('note_on', channel=9, note=36, velocity=100, time=8),
    Message('note_on', channel=9, note=42, velocity=100, time=0),
    Message('note_on', channel=9, note=38, velocity=100, time=0),
    Message('note_off', channel=9, note=36, velocity=100, time=184),
    Message('note_off', channel=9, note=42, velocity=100, time=0),
    Message('note_off', channel=9, note=38, velocity=100, time=0),
    Message('note_on', channel=9, note=36, velocity=100, time=8),
    Message('note_off', channel=9, note=36, velocity=100, time=184),
    Message('note_on', channel=9, note=42, velocity=100, time=8),
    Message('note_on', channel=9, note=36, velocity=100, time=0),
    Message('note_off', channel=9, note=42, velocity=100, time=184),
    Message('note_off', channel=9, note=36, velocity=100, time=0),
    Message('note_on', channel=9, note=36, velocity=100, time=8),
    Message('note_off', channel=9, note=36, velocity=100, time=184),
    Message('note_on', channel=9, note=38, velocity=100, time=8),
    Message('note_on', channel=9, note=42, velocity=100, time=0),
    Message('note_on', channel=9, note=36, velocity=100, time=0),
    Message('note_off', channel=9, note=38, velocity=100, time=184),
    Message('note_off', channel=9, note=42, velocity=100, time=0),
    Message('note_off', channel=9, note=36, velocity=100, time=0),
    Message('note_on', channel=9, note=36, velocity=100, time=8),
    Message('note_off', channel=9, note=36, velocity=100, time=184),
    Message('note_on', channel=9, note=42, velocity=100, time=8),
    Message('note_on', channel=9, note=36, velocity=100, time=0),
    Message('note_off', channel=9, note=42, velocity=100, time=184),
    Message('note_off', channel=9, note=36, velocity=100, time=0),
    Message('note_on', channel=9, note=36, velocity=100, time=8),
    Message('note_off', channel=9, note=36, velocity=100, time=184),
    Message('note_on', channel=9, note=36, velocity=100, time=8),
    Message('note_on', channel=9, note=42, velocity=100, time=0),
    Message('note_on', channel=9, note=38, velocity=100, time=0),
    Message('note_off', channel=9, note=36, velocity=100, time=184),
    Message('note_off', channel=9, note=42, velocity=100, time=0),
    Message('note_off', channel=9, note=38, velocity=100, time=0),
    Message('note_on', channel=9, note=36, velocity=100, time=8),
    Message('note_off', channel=9, note=36, velocity=100, time=184),
    Message('note_on', channel=9, note=42, velocity=100, time=8),
    Message('note_on', channel=9, note=36, velocity=100, time=0),
    Message('note_off', channel=9, note=42, velocity=100, time=184),
    Message('note_off', channel=9, note=36, velocity=100, time=0),
    Message('note_on', channel=9, note=36, velocity=100, time=8),
    Message('note_off', channel=9, note=36, velocity=100, time=88),
    Message('note_on', channel=9, note=36, velocity=100, time=8),
    Message('note_off', channel=9, note=36, velocity=100, time=88),
    Message('note_on', channel=9, note=38, velocity=100, time=8),
    Message('note_on', channel=9, note=42, velocity=100, time=0),
    Message('note_on', channel=9, note=36, velocity=100, time=0),
    Message('note_off', channel=9, note=38, velocity=100, time=184),
    Message('note_off', channel=9, note=42, velocity=100, time=0),
    Message('note_off', channel=9, note=36, velocity=100, time=0),
    Message('note_on', channel=9, note=36, velocity=100, time=8),
    Message('note_off', channel=9, note=36, velocity=100, time=184),
    Message('note_on', channel=9, note=36, velocity=100, time=8),
    Message('note_on', channel=9, note=42, velocity=100, time=0),
    Message('note_off', channel=9, note=36, velocity=100, time=184),
    Message('note_off', channel=9, note=42, velocity=100, time=0),
    Message('note_on', channel=9, note=36, velocity=100, time=8),
    Message('note_off', channel=9, note=36, velocity=100, time=184),
    Message('note_on', channel=9, note=36, velocity=100, time=8),
    Message('note_on', channel=9, note=42, velocity=100, time=0),
    Message('note_on', channel=9, note=38, velocity=100, time=0),
    Message('note_off', channel=9, note=36, velocity=100, time=184),
    Message('note_off', channel=9, note=42, velocity=100, time=0),
    Message('note_off', channel=9, note=38, velocity=100, time=0),
    Message('note_on', channel=9, note=36, velocity=100, time=8),
    Message('note_off', channel=9, note=36, velocity=100, time=184),
    Message('note_on', channel=9, note=36, velocity=100, time=8),
    Message('note_on', channel=9, note=42, velocity=100, time=0),
    Message('note_off', channel=9, note=36, velocity=100, time=184),
    Message('note_off', channel=9, note=42, velocity=100, time=0),
    Message('note_on', channel=9, note=36, velocity=100, time=8),
    Message('note_off', channel=9, note=36, velocity=100, time=184),
    Message('note_on', channel=9, note=38, velocity=100, time=8),
    Message('note_on', channel=9, note=42, velocity=100, time=0),
    Message('note_on', channel=9, note=36, velocity=100, time=0),
    Message('note_off', channel=9, note=38, velocity=100, time=184),
    Message('note_off', channel=9, note=42, velocity=100, time=0),
    Message('note_off', channel=9, note=36, velocity=100, time=0),
    Message('note_on', channel=9, note=36, velocity=100, time=8),
    Message('note_off', channel=9, note=36, velocity=100, time=184),
    Message('note_on', channel=9, note=36, velocity=100, time=8),
    Message('note_on', channel=9, note=42, velocity=100, time=0),
    Message('note_off', channel=9, note=36, velocity=100, time=184),
    Message('note_off', channel=9, note=42, velocity=100, time=0),
    Message('note_on', channel=9, note=36, velocity=100, time=8),
    Message('note_off', channel=9, note=36, velocity=100, time=184),
    Message('note_on', channel=9, note=36, velocity=100, time=8),
    Message('note_on', channel=9, note=42, velocity=100, time=0),
    Message('note_on', channel=9, note=38, velocity=100, time=0),
    Message('note_off', channel=9, note=36, velocity=100, time=184),
    Message('note_off', channel=9, note=42, velocity=100, time=0),
    Message('note_off', channel=9, note=38, velocity=100, time=0),
    Message('note_on', channel=9, note=36, velocity=100, time=8),
    Message('note_off', channel=9, note=36, velocity=100, time=184),
    Message('note_on', channel=9, note=36, velocity=100, time=8),
    Message('note_on', channel=9, note=42, velocity=100, time=0),
    Message('note_off', channel=9, note=36, velocity=100, time=184),
    Message('note_off', channel=9, note=42, velocity=100, time=0),
    Message('note_on', channel=9, note=36, velocity=100, time=8),
    Message('note_off', channel=9, note=36, velocity=100, time=184),
    Message('note_on', channel=9, note=38, velocity=100, time=8),
    Message('note_on', channel=9, note=42, velocity=100, time=0),
    Message('note_on', channel=9, note=36, velocity=100, time=0),
    Message('note_off', channel=9, note=38, velocity=100, time=184),
    Message('note_off', channel=9, note=42, velocity=100, time=0),
    Message('note_off', channel=9, note=36, velocity=100, time=0),
    Message('note_on', channel=9, note=36, velocity=100, time=8),
    Message('note_off', channel=9, note=36, velocity=100, time=184),
    Message('note_on', channel=9, note=36, velocity=100, time=8),
    Message('note_on', channel=9, note=42, velocity=100, time=0),
    Message('note_off', channel=9, note=36, velocity=100, time=184),
    Message('note_off', channel=9, note=42, velocity=100, time=0),
    Message('note_on', channel=9, note=36, velocity=100, time=8),
    Message('note_off', channel=9, note=36, velocity=100, time=184),
    Message('note_on', channel=9, note=36, velocity=100, time=8),
    Message('note_on', channel=9, note=42, velocity=100, time=0),
    Message('note_on', channel=9, note=38, velocity=100, time=0),
    Message('note_off', channel=9, note=36, velocity=100, time=184),
    Message('note_off', channel=9, note=42, velocity=100, time=0),
    Message('note_off', channel=9, note=38, velocity=100, time=0),
    Message('note_on', channel=9, note=36, velocity=100, time=8),
    Message('note_off', channel=9, note=36, velocity=100, time=184),
    Message('note_on', channel=9, note=42, velocity=100, time=8),
    Message('note_on', channel=9, note=36, velocity=100, time=0),
    Message('note_off', channel=9, note=42, velocity=100, time=184),
    Message('note_off', channel=9, note=36, velocity=100, time=0),
    Message('note_on', channel=9, note=36, velocity=100, time=8),
    Message('note_off', channel=9, note=36, velocity=100, time=184),
    Message('note_on', channel=9, note=38, velocity=100, time=8),
    Message('note_on', channel=9, note=42, velocity=100, time=0),
    Message('note_off', channel=9, note=38, velocity=100, time=184),
    Message('note_off', channel=9, note=42, velocity=100, time=0),
    Message('note_on', channel=9, note=36, velocity=100, time=200),
    Message('note_off', channel=9, note=36, velocity=100, time=88),
    Message('note_on', channel=9, note=36, velocity=100, time=8),
    Message('note_off', channel=9, note=36, velocity=100, time=88),
    Message('note_on', channel=9, note=36, velocity=100, time=8),
    Message('note_off', channel=9, note=36, velocity=100, time=88),
    Message('note_on', channel=9, note=36, velocity=100, time=8),
    Message('note_off', channel=9, note=36, velocity=100, time=88),
    Message('note_on', channel=9, note=49, velocity=100, time=8),
    Message('note_on', channel=9, note=38, velocity=100, time=0),
    Message('note_off', channel=9, note=49, velocity=100, time=376),
    Message('note_off', channel=9, note=38, velocity=100, time=0),
    Message('note_on', channel=9, note=36, velocity=100, time=8),
    Message('note_off', channel=9, note=36, velocity=100, time=88),
    Message('note_on', channel=9, note=36, velocity=100, time=8),
    Message('note_off', channel=9, note=36, velocity=100, time=88),
    Message('note_on', channel=9, note=36, velocity=100, time=8),
    Message('note_off', channel=9, note=36, velocity=100, time=88),
    Message('note_on', channel=9, note=36, velocity=100, time=8),
    Message('note_off', channel=9, note=36, velocity=100, time=88),
    Message('note_on', channel=9, note=49, velocity=100, time=8),
    Message('note_on', channel=9, note=38, velocity=100, time=0),
    Message('note_off', channel=9, note=49, velocity=100, time=376),
    Message('note_off', channel=9, note=38, velocity=100, time=0),
    Message('note_on', channel=9, note=36, velocity=100, time=8),
    Message('note_on', channel=9, note=49, velocity=100, time=0),
    Message('note_off', channel=9, note=36, velocity=100, time=376),
    Message('note_off', channel=9, note=49, velocity=100, time=0),
    Message('note_on', channel=9, note=42, velocity=100, time=8),
    Message('note_on', channel=9, note=38, velocity=100, time=0),
    Message('note_off', channel=9, note=42, velocity=100, time=376),
    Message('note_off', channel=9, note=38, velocity=100, time=0),
    Message('note_on', channel=9, note=42, velocity=100, time=8),
    Message('note_on', channel=9, note=36, velocity=100, time=0),
    Message('note_off', channel=9, note=42, velocity=100, time=184),
    Message('note_off', channel=9, note=36, velocity=100, time=0),
    Message('note_on', channel=9, note=36, velocity=100, time=8),
    Message('note_off', channel=9, note=36, velocity=100, time=184),
    Message('note_on', channel=9, note=42, velocity=100, time=8),
    Message('note_on', channel=9, note=38, velocity=100, time=0),
    Message('note_off', channel=9, note=42, velocity=100, time=184),
    Message('note_off', channel=9, note=38, velocity=100, time=0),
    Message('note_on', channel=9, note=42, velocity=100, time=200),
    Message('note_on', channel=9, note=36, velocity=100, time=0),
    Message('note_off', channel=9, note=42, velocity=100, time=184),
    Message('note_off', channel=9, note=36, velocity=100, time=0),
    Message('note_on', channel=9, note=42, velocity=100, time=200),
    Message('note_on', channel=9, note=38, velocity=100, time=0),
    Message('note_off', channel=9, note=42, velocity=100, time=184),
    Message('note_off', channel=9, note=38, velocity=100, time=0),
    Message('note_on', channel=9, note=36, velocity=100, time=200),
    Message('note_on', channel=9, note=42, velocity=100, time=0),
    Message('note_off', channel=9, note=36, velocity=100, time=184),
    Message('note_off', channel=9, note=42, velocity=100, time=0),
    Message('note_on', channel=9, note=36, velocity=100, time=8),
    Message('note_off', channel=9, note=36, velocity=100, time=184),
    Message('note_on', channel=9, note=38, velocity=100, time=8),
    Message('note_on', channel=9, note=42, velocity=100, time=0),
    Message('note_off', channel=9, note=38, velocity=100, time=184),
    Message('note_off', channel=9, note=42, velocity=100, time=0),
    Message('note_on', channel=9, note=42, velocity=100, time=200),
    Message('note_on', channel=9, note=36, velocity=100, time=0),
    Message('note_off', channel=9, note=42, velocity=100, time=184),
    Message('note_off', channel=9, note=36, velocity=100, time=0),
    Message('note_on', channel=9, note=42, velocity=100, time=200),
    Message('note_on', channel=9, note=38, velocity=100, time=0),
    Message('note_off', channel=9, note=42, velocity=100, time=184),
    Message('note_off', channel=9, note=38, velocity=100, time=0),
    Message('note_on', channel=9, note=36, velocity=100, time=200),
    Message('note_on', channel=9, note=42, velocity=100, time=0),
    Message('note_off', channel=9, note=36, velocity=100, time=184),
    Message('note_off', channel=9, note=42, velocity=100, time=0),
    Message('note_on', channel=9, note=36, velocity=100, time=8),
    Message('note_off', channel=9, note=36, velocity=100, time=184),
    Message('note_on', channel=9, note=38, velocity=100, time=8),
    Message('note_on', channel=9, note=42, velocity=100, time=0),
    Message('note_off', channel=9, note=38, velocity=100, time=184),
    Message('note_off', channel=9, note=42, velocity=100, time=0),
    Message('note_on', channel=9, note=42, velocity=100, time=200),
    Message('note_on', channel=9, note=36, velocity=100, time=0),
    Message('note_off', channel=9, note=42, velocity=100, time=184),
    Message('note_off', channel=9, note=36, velocity=100, time=0),
    Message('note_on', channel=9, note=42, velocity=100, time=200),
    Message('note_on', channel=9, note=38, velocity=100, time=0),
    Message('note_off', channel=9, note=42, velocity=100, time=184),
    Message('note_off', channel=9, note=38, velocity=100, time=0),
    Message('note_on', channel=9, note=36, velocity=100, time=200),
    Message('note_on', channel=9, note=42, velocity=100, time=0),
    Message('note_off', channel=9, note=36, velocity=100, time=184),
    Message('note_off', channel=9, note=42, velocity=100, time=0),
    Message('note_on', channel=9, note=36, velocity=100, time=8),
    Message('note_off', channel=9, note=36, velocity=100, time=184),
    Message('note_on', channel=9, note=38, velocity=100, time=8),
    Message('note_on', channel=9, note=42, velocity=100, time=0),
    Message('note_off', channel=9, note=38, velocity=100, time=184),
    Message('note_off', channel=9, note=42, velocity=100, time=0),
    Message('note_on', channel=9, note=42, velocity=100, time=200),
    Message('note_on', channel=9, note=36, velocity=100, time=0),
    Message('note_off', channel=9, note=42, velocity=100, time=184),
    Message('note_off', channel=9, note=36, velocity=100, time=0),
    Message('note_on', channel=9, note=42, velocity=100, time=200),
    Message('note_on', channel=9, note=38, velocity=100, time=0),
    Message('note_off', channel=9, note=42, velocity=100, time=184),
    Message('note_off', channel=9, note=38, velocity=100, time=0),
    Message('note_on', channel=9, note=36, velocity=100, time=200),
    Message('note_on', channel=9, note=42, velocity=100, time=0),
    Message('note_off', channel=9, note=36, velocity=100, time=184),
    Message('note_off', channel=9, note=42, velocity=100, time=0),
    Message('note_on', channel=9, note=36, velocity=100, time=8),
    Message('note_off', channel=9, note=36, velocity=100, time=184),
    Message('note_on', channel=9, note=38, velocity=100, time=8),
    Message('note_on', channel=9, note=42, velocity=100, time=0),
    Message('note_off', channel=9, note=38, velocity=100, time=184),
    Message('note_off', channel=9, note=42, velocity=100, time=0),
    Message('note_on', channel=9, note=42, velocity=100, time=200),
    Message('note_on', channel=9, note=36, velocity=100, time=0),
    Message('note_off', channel=9, note=42, velocity=100, time=184),
    Message('note_off', channel=9, note=36, velocity=100, time=0),
    Message('note_on', channel=9, note=42, velocity=100, time=200),
    Message('note_on', channel=9, note=38, velocity=100, time=0),
    Message('note_off', channel=9, note=42, velocity=100, time=184),
    Message('note_off', channel=9, note=38, velocity=100, time=0),
    Message('note_on', channel=9, note=36, velocity=100, time=200),
    Message('note_on', channel=9, note=42, velocity=100, time=0),
    Message('note_off', channel=9, note=36, velocity=100, time=184),
    Message('note_off', channel=9, note=42, velocity=100, time=0),
    Message('note_on', channel=9, note=36, velocity=100, time=8),
    Message('note_off', channel=9, note=36, velocity=100, time=184),
    Message('note_on', channel=9, note=38, velocity=100, time=8),
    Message('note_on', channel=9, note=42, velocity=100, time=0),
    Message('note_off', channel=9, note=38, velocity=100, time=184),
    Message('note_off', channel=9, note=42, velocity=100, time=0),
    Message('note_on', channel=9, note=42, velocity=100, time=200),
    Message('note_on', channel=9, note=36, velocity=100, time=0),
    Message('note_off', channel=9, note=42, velocity=100, time=184),
    Message('note_off', channel=9, note=36, velocity=100, time=0),
    Message('note_on', channel=9, note=42, velocity=100, time=200),
    Message('note_on', channel=9, note=38, velocity=100, time=0),
    Message('note_off', channel=9, note=42, velocity=100, time=184),
    Message('note_off', channel=9, note=38, velocity=100, time=0),
    Message('note_on', channel=9, note=36, velocity=100, time=200),
    Message('note_on', channel=9, note=42, velocity=100, time=0),
    Message('note_off', channel=9, note=36, velocity=100, time=184),
    Message('note_off', channel=9, note=42, velocity=100, time=0),
    Message('note_on', channel=9, note=36, velocity=100, time=8),
    Message('note_off', channel=9, note=36, velocity=100, time=184),
    Message('note_on', channel=9, note=49, velocity=100, time=8),
    Message('note_on', channel=9, note=38, velocity=100, time=0),
    Message('note_off', channel=9, note=49, velocity=100, time=184),
    Message('note_off', channel=9, note=38, velocity=100, time=0),
    Message('note_on', channel=9, note=42, velocity=100, time=200),
    Message('note_on', channel=9, note=36, velocity=100, time=0),
    Message('note_off', channel=9, note=42, velocity=100, time=184),
    Message('note_off', channel=9, note=36, velocity=100, time=0),
    Message('note_on', channel=9, note=36, velocity=100, time=8),
    Message('note_off', channel=9, note=36, velocity=100, time=184),
    Message('note_on', channel=9, note=42, velocity=100, time=8),
    Message('note_on', channel=9, note=38, velocity=100, time=0),
    Message('note_off', channel=9, note=42, velocity=100, time=184),
    Message('note_off', channel=9, note=38, velocity=100, time=0),
    Message('note_on', channel=9, note=36, velocity=100, time=8),
    Message('note_off', channel=9, note=36, velocity=100, time=184),
    Message('note_on', channel=9, note=36, velocity=100, time=8),
    Message('note_on', channel=9, note=42, velocity=100, time=0),
    Message('note_off', channel=9, note=36, velocity=100, time=184),
    Message('note_off', channel=9, note=42, velocity=100, time=0),
    Message('note_on', channel=9, note=38, velocity=100, time=8),
    Message('note_off', channel=9, note=38, velocity=100, time=184),
    Message('note_on', channel=9, note=38, velocity=100, time=8),
    Message('note_off', channel=9, note=38, velocity=100, time=184),
    Message('note_on', channel=9, note=38, velocity=100, time=8),
    Message('note_off', channel=9, note=38, velocity=100, time=184),
    Message('note_on', channel=9, note=36, velocity=100, time=8),
    Message('note_on', channel=9, note=49, velocity=100, time=0),
    Message('note_off', channel=9, note=36, velocity=100, time=376),
    Message('note_off', channel=9, note=49, velocity=100, time=0),
    Message('note_on', channel=9, note=42, velocity=100, time=8),
    Message('note_on', channel=9, note=38, velocity=100, time=0),
    Message('note_off', channel=9, note=42, velocity=100, time=376),
    Message('note_off', channel=9, note=38, velocity=100, time=0),
    Message('note_on', channel=9, note=42, velocity=100, time=8),
    Message('note_on', channel=9, note=36, velocity=100, time=0),
    Message('note_off', channel=9, note=42, velocity=100, time=184),
    Message('note_off', channel=9, note=36, velocity=100, time=0),
    Message('note_on', channel=9, note=36, velocity=100, time=8),
    Message('note_off', channel=9, note=36, velocity=100, time=184),
    Message('note_on', channel=9, note=42, velocity=100, time=8),
    Message('note_on', channel=9, note=38, velocity=100, time=0),
    Message('note_off', channel=9, note=42, velocity=100, time=184),
    Message('note_off', channel=9, note=38, velocity=100, time=0),
    Message('note_on', channel=9, note=42, velocity=100, time=200),
    Message('note_on', channel=9, note=36, velocity=100, time=0),
    Message('note_off', channel=9, note=42, velocity=100, time=184),
    Message('note_off', channel=9, note=36, velocity=100, time=0),
    Message('note_on', channel=9, note=42, velocity=100, time=200),
    Message('note_on', channel=9, note=38, velocity=100, time=0),
    Message('note_off', channel=9, note=42, velocity=100, time=184),
    Message('note_off', channel=9, note=38, velocity=100, time=0),
    Message('note_on', channel=9, note=36, velocity=100, time=200),
    Message('note_on', channel=9, note=42, velocity=100, time=0),
    Message('note_off', channel=9, note=36, velocity=100, time=184),
    Message('note_off', channel=9, note=42, velocity=100, time=0),
    Message('note_on', channel=9, note=36, velocity=100, time=8),
    Message('note_off', channel=9, note=36, velocity=100, time=184),
    Message('note_on', channel=9, note=38, velocity=100, time=8),
    Message('note_on', channel=9, note=42, velocity=100, time=0),
    Message('note_off', channel=9, note=38, velocity=100, time=184),
    Message('note_off', channel=9, note=42, velocity=100, time=0),
    Message('note_on', channel=9, note=42, velocity=100, time=200),
    Message('note_on', channel=9, note=36, velocity=100, time=0),
    Message('note_off', channel=9, note=42, velocity=100, time=184),
    Message('note_off', channel=9, note=36, velocity=100, time=0),
    Message('note_on', channel=9, note=42, velocity=100, time=200),
    Message('note_on', channel=9, note=38, velocity=100, time=0),
    Message('note_off', channel=9, note=42, velocity=100, time=184),
    Message('note_off', channel=9, note=38, velocity=100, time=0),
    Message('note_on', channel=9, note=36, velocity=100, time=200),
    Message('note_on', channel=9, note=42, velocity=100, time=0),
    Message('note_off', channel=9, note=36, velocity=100, time=184),
    Message('note_off', channel=9, note=42, velocity=100, time=0),
    Message('note_on', channel=9, note=36, velocity=100, time=8),
    Message('note_off', channel=9, note=36, velocity=100, time=184),
    Message('note_on', channel=9, note=38, velocity=100, time=8),
    Message('note_on', channel=9, note=42, velocity=100, time=0),
    Message('note_off', channel=9, note=38, velocity=100, time=184),
    Message('note_off', channel=9, note=42, velocity=100, time=0),
    Message('note_on', channel=9, note=42, velocity=100, time=200),
    Message('note_on', channel=9, note=36, velocity=100, time=0),
    Message('note_off', channel=9, note=42, velocity=100, time=184),
    Message('note_off', channel=9, note=36, velocity=100, time=0),
    Message('note_on', channel=9, note=42, velocity=100, time=200),
    Message('note_on', channel=9, note=38, velocity=100, time=0),
    Message('note_off', channel=9, note=42, velocity=100, time=184),
    Message('note_off', channel=9, note=38, velocity=100, time=0),
    Message('note_on', channel=9, note=36, velocity=100, time=200),
    Message('note_on', channel=9, note=42, velocity=100, time=0),
    Message('note_off', channel=9, note=36, velocity=100, time=184),
    Message('note_off', channel=9, note=42, velocity=100, time=0),
    Message('note_on', channel=9, note=36, velocity=100, time=8),
    Message('note_off', channel=9, note=36, velocity=100, time=184),
    Message('note_on', channel=9, note=38, velocity=100, time=8),
    Message('note_on', channel=9, note=42, velocity=100, time=0),
    Message('note_off', channel=9, note=38, velocity=100, time=184),
    Message('note_off', channel=9, note=42, velocity=100, time=0),
    Message('note_on', channel=9, note=42, velocity=100, time=200),
    Message('note_on', channel=9, note=36, velocity=100, time=0),
    Message('note_off', channel=9, note=42, velocity=100, time=184),
    Message('note_off', channel=9, note=36, velocity=100, time=0),
    Message('note_on', channel=9, note=42, velocity=100, time=200),
    Message('note_on', channel=9, note=38, velocity=100, time=0),
    Message('note_off', channel=9, note=42, velocity=100, time=184),
    Message('note_off', channel=9, note=38, velocity=100, time=0),
    Message('note_on', channel=9, note=36, velocity=100, time=200),
    Message('note_on', channel=9, note=42, velocity=100, time=0),
    Message('note_off', channel=9, note=36, velocity=100, time=184),
    Message('note_off', channel=9, note=42, velocity=100, time=0),
    Message('note_on', channel=9, note=36, velocity=100, time=8),
    Message('note_off', channel=9, note=36, velocity=100, time=184),
    Message('note_on', channel=9, note=38, velocity=100, time=8),
    Message('note_on', channel=9, note=42, velocity=100, time=0),
    Message('note_off', channel=9, note=38, velocity=100, time=184),
    Message('note_off', channel=9, note=42, velocity=100, time=0),
    Message('note_on', channel=9, note=42, velocity=100, time=200),
    Message('note_on', channel=9, note=36, velocity=100, time=0),
    Message('note_off', channel=9, note=42, velocity=100, time=184),
    Message('note_off', channel=9, note=36, velocity=100, time=0),
    Message('note_on', channel=9, note=42, velocity=100, time=200),
    Message('note_on', channel=9, note=38, velocity=100, time=0),
    Message('note_off', channel=9, note=42, velocity=100, time=184),
    Message('note_off', channel=9, note=38, velocity=100, time=0),
    Message('note_on', channel=9, note=36, velocity=100, time=200),
    Message('note_on', channel=9, note=42, velocity=100, time=0),
    Message('note_off', channel=9, note=36, velocity=100, time=184),
    Message('note_off', channel=9, note=42, velocity=100, time=0),
    Message('note_on', channel=9, note=36, velocity=100, time=8),
    Message('note_off', channel=9, note=36, velocity=100, time=184),
    Message('note_on', channel=9, note=38, velocity=100, time=8),
    Message('note_on', channel=9, note=42, velocity=100, time=0),
    Message('note_off', channel=9, note=38, velocity=100, time=184),
    Message('note_off', channel=9, note=42, velocity=100, time=0),
    Message('note_on', channel=9, note=36, velocity=100, time=200),
    Message('note_on', channel=9, note=42, velocity=100, time=0),
    Message('note_off', channel=9, note=36, velocity=100, time=184),
    Message('note_off', channel=9, note=42, velocity=100, time=0),
    Message('note_on', channel=9, note=42, velocity=100, time=200),
    Message('note_on', channel=9, note=38, velocity=100, time=0),
    Message('note_off', channel=9, note=42, velocity=100, time=184),
    Message('note_off', channel=9, note=38, velocity=100, time=0),
    Message('note_on', channel=9, note=36, velocity=100, time=200),
    Message('note_on', channel=9, note=42, velocity=100, time=0),
    Message('note_off', channel=9, note=36, velocity=100, time=184),
    Message('note_off', channel=9, note=42, velocity=100, time=0),
    Message('note_on', channel=9, note=36, velocity=100, time=8),
    Message('note_off', channel=9, note=36, velocity=100, time=184),
    Message('note_on', channel=9, note=42, velocity=100, time=8),
    Message('note_on', channel=9, note=38, velocity=100, time=0),
    Message('note_off', channel=9, note=42, velocity=100, time=184),
    Message('note_off', channel=9, note=38, velocity=100, time=0),
    Message('note_on', channel=9, note=42, velocity=100, time=200),
    Message('note_on', channel=9, note=36, velocity=100, time=0),
    Message('note_off', channel=9, note=42, velocity=100, time=184),
    Message('note_off', channel=9, note=36, velocity=100, time=0),
    Message('note_on', channel=9, note=36, velocity=100, time=8),
    Message('note_off', channel=9, note=36, velocity=100, time=184),
    Message('note_on', channel=9, note=42, velocity=100, time=8),
    Message('note_on', channel=9, note=38, velocity=100, time=0),
    Message('note_off', channel=9, note=42, velocity=100, time=184),
    Message('note_off', channel=9, note=38, velocity=100, time=0),
    Message('note_on', channel=9, note=36, velocity=100, time=8),
    Message('note_off', channel=9, note=36, velocity=100, time=88),
    Message('note_on', channel=9, note=36, velocity=100, time=8),
    Message('note_off', channel=9, note=36, velocity=100, time=88),
    Message('note_on', channel=9, note=38, velocity=100, time=8),
    Message('note_off', channel=9, note=38, velocity=100, time=184),
    Message('note_on', channel=9, note=38, velocity=100, time=8),
    Message('note_off', channel=9, note=38, velocity=100, time=184),
    Message('note_on', channel=9, note=45, velocity=100, time=8),
    Message('note_off', channel=9, note=45, velocity=100, time=184),
    Message('note_on', channel=9, note=43, velocity=100, time=8),
    Message('note_off', channel=9, note=43, velocity=100, time=184),
    Message('note_on', channel=9, note=36, velocity=100, time=8),
    Message('note_on', channel=9, note=49, velocity=100, time=0),
    Message('note_off', channel=9, note=36, velocity=100, time=184),
    Message('note_off', channel=9, note=49, velocity=100, time=0),
    Message('note_on', channel=9, note=38, velocity=100, time=200),
    Message('note_on', channel=9, note=51, velocity=60, time=0),
    Message('note_off', channel=9, note=38, velocity=100, time=184),
    Message('note_off', channel=9, note=51, velocity=100, time=0),
    Message('note_on', channel=9, note=36, velocity=100, time=8),
    Message('note_off', channel=9, note=36, velocity=100, time=184),
    Message('note_on', channel=9, note=51, velocity=60, time=8),
    Message('note_on', channel=9, note=36, velocity=100, time=0),
    Message('note_off', channel=9, note=51, velocity=100, time=184),
    Message('note_off', channel=9, note=36, velocity=100, time=0),
    Message('note_on', channel=9, note=51, velocity=60, time=200),
    Message('note_on', channel=9, note=38, velocity=100, time=0),
    Message('note_off', channel=9, note=51, velocity=100, time=184),
    Message('note_off', channel=9, note=38, velocity=100, time=0),
    Message('note_on', channel=9, note=36, velocity=100, time=8),
    Message('note_off', channel=9, note=36, velocity=100, time=184),
    Message('note_on', channel=9, note=51, velocity=60, time=8),
    Message('note_on', channel=9, note=36, velocity=100, time=0),
    Message('note_off', channel=9, note=51, velocity=100, time=184),
    Message('note_off', channel=9, note=36, velocity=100, time=0),
    Message('note_on', channel=9, note=38, velocity=100, time=200),
    Message('note_on', channel=9, note=51, velocity=60, time=0),
    Message('note_off', channel=9, note=38, velocity=100, time=184),
    Message('note_off', channel=9, note=51, velocity=100, time=0),
    Message('note_on', channel=9, note=36, velocity=100, time=8),
    Message('note_off', channel=9, note=36, velocity=100, time=184),
    Message('note_on', channel=9, note=51, velocity=60, time=8),
    Message('note_on', channel=9, note=36, velocity=100, time=0),
    Message('note_off', channel=9, note=51, velocity=100, time=184),
    Message('note_off', channel=9, note=36, velocity=100, time=0),
    Message('note_on', channel=9, note=36, velocity=100, time=8),
    Message('note_off', channel=9, note=36, velocity=100, time=184),
    Message('note_on', channel=9, note=51, velocity=60, time=8),
    Message('note_on', channel=9, note=38, velocity=100, time=0),
    Message('note_off', channel=9, note=51, velocity=100, time=184),
    Message('note_off', channel=9, note=38, velocity=100, time=0),
    Message('note_on', channel=9, note=36, velocity=100, time=200),
    Message('note_on', channel=9, note=51, velocity=60, time=0),
    Message('note_off', channel=9, note=36, velocity=100, time=184),
    Message('note_off', channel=9, note=51, velocity=100, time=0),
    Message('note_on', channel=9, note=38, velocity=100, time=200),
    Message('note_on', channel=9, note=51, velocity=60, time=0),
    Message('note_off', channel=9, note=38, velocity=100, time=184),
    Message('note_off', channel=9, note=51, velocity=100, time=0),
    Message('note_on', channel=9, note=36, velocity=100, time=8),
    Message('note_off', channel=9, note=36, velocity=100, time=184),
    Message('note_on', channel=9, note=51, velocity=60, time=8),
    Message('note_on', channel=9, note=36, velocity=100, time=0),
    Message('note_off', channel=9, note=51, velocity=100, time=184),
    Message('note_off', channel=9, note=36, velocity=100, time=0),
    Message('note_on', channel=9, note=51, velocity=60, time=200),
    Message('note_on', channel=9, note=38, velocity=100, time=0),
    Message('note_off', channel=9, note=51, velocity=100, time=184),
    Message('note_off', channel=9, note=38, velocity=100, time=0),
    Message('note_on', channel=9, note=36, velocity=100, time=200),
    Message('note_on', channel=9, note=51, velocity=60, time=0),
    Message('note_off', channel=9, note=36, velocity=100, time=120),
    Message('note_on', channel=9, note=36, velocity=100, time=8),
    Message('note_off', channel=9, note=51, velocity=100, time=56),
    Message('note_off', channel=9, note=36, velocity=100, time=64),
    Message('note_on', channel=9, note=36, velocity=100, time=8),
    Message('note_off', channel=9, note=36, velocity=100, time=120),
    Message('note_on', channel=9, note=36, velocity=100, time=8),
    Message('note_on', channel=9, note=51, velocity=60, time=0),
    Message('note_on', channel=9, note=38, velocity=100, time=0),
    Message('note_off', channel=9, note=36, velocity=100, time=120),
    Message('note_on', channel=9, note=36, velocity=100, time=8),
    Message('note_off', channel=9, note=51, velocity=100, time=56),
    Message('note_off', channel=9, note=38, velocity=100, time=0),
    Message('note_off', channel=9, note=36, velocity=100, time=64),
    Message('note_on', channel=9, note=36, velocity=100, time=8),
    Message('note_off', channel=9, note=36, velocity=100, time=120),
    Message('note_on', channel=9, note=36, velocity=100, time=8),
    Message('note_on', channel=9, note=49, velocity=100, time=0),
    Message('note_off', channel=9, note=36, velocity=100, time=184),
    Message('note_off', channel=9, note=49, velocity=100, time=0),
    Message('note_on', channel=9, note=51, velocity=60, time=200),
    Message('note_on', channel=9, note=38, velocity=100, time=0),
    Message('note_off', channel=9, note=51, velocity=100, time=184),
    Message('note_off', channel=9, note=38, velocity=100, time=0),
    Message('note_on', channel=9, note=49, velocity=100, time=200),
    Message('note_on', channel=9, note=36, velocity=100, time=0),
    Message('note_off', channel=9, note=49, velocity=100, time=184),
    Message('note_off', channel=9, note=36, velocity=100, time=0),
    Message('note_on', channel=9, note=38, velocity=100, time=200),
    Message('note_on', channel=9, note=51, velocity=60, time=0),
    Message('note_off', channel=9, note=38, velocity=100, time=184),
    Message('note_off', channel=9, note=51, velocity=100, time=0),
    Message('note_on', channel=9, note=36, velocity=100, time=8),
    Message('note_off', channel=9, note=36, velocity=100, time=184),
    Message('note_on', channel=9, note=51, velocity=60, time=8),
    Message('note_on', channel=9, note=36, velocity=100, time=0),
    Message('note_off', channel=9, note=51, velocity=100, time=184),
    Message('note_off', channel=9, note=36, velocity=100, time=0),
    Message('note_on', channel=9, note=51, velocity=60, time=200),
    Message('note_on', channel=9, note=38, velocity=100, time=0),
    Message('note_off', channel=9, note=51, velocity=100, time=184),
    Message('note_off', channel=9, note=38, velocity=100, time=0),
    Message('note_on', channel=9, note=36, velocity=100, time=8),
    Message('note_off', channel=9, note=36, velocity=100, time=184),
    Message('note_on', channel=9, note=51, velocity=60, time=8),
    Message('note_on', channel=9, note=36, velocity=100, time=0),
    Message('note_off', channel=9, note=51, velocity=100, time=184),
    Message('note_off', channel=9, note=36, velocity=100, time=0),
    Message('note_on', channel=9, note=51, velocity=60, time=200),
    Message('note_on', channel=9, note=38, velocity=100, time=0),
    Message('note_off', channel=9, note=51, velocity=100, time=184),
    Message('note_off', channel=9, note=38, velocity=100, time=0),
    Message('note_on', channel=9, note=36, velocity=100, time=8),
    Message('note_off', channel=9, note=36, velocity=100, time=184),
    Message('note_on', channel=9, note=51, velocity=60, time=8),
    Message('note_on', channel=9, note=36, velocity=100, time=0),
    Message('note_off', channel=9, note=51, velocity=100, time=184),
    Message('note_off', channel=9, note=36, velocity=100, time=0),
    Message('note_on', channel=9, note=36, velocity=100, time=8),
    Message('note_off', channel=9, note=36, velocity=100, time=184),
    Message('note_on', channel=9, note=51, velocity=60, time=8),
    Message('note_on', channel=9, note=38, velocity=100, time=0),
    Message('note_off', channel=9, note=51, velocity=100, time=184),
    Message('note_off', channel=9, note=38, velocity=100, time=0),
    Message('note_on', channel=9, note=51, velocity=60, time=200),
    Message('note_on', channel=9, note=36, velocity=100, time=0),
    Message('note_off', channel=9, note=51, velocity=100, time=184),
    Message('note_off', channel=9, note=36, velocity=100, time=0),
    Message('note_on', channel=9, note=38, velocity=100, time=200),
    Message('note_on', channel=9, note=51, velocity=60, time=0),
    Message('note_off', channel=9, note=38, velocity=100, time=184),
    Message('note_off', channel=9, note=51, velocity=100, time=0),
    Message('note_on', channel=9, note=36, velocity=100, time=8),
    Message('note_off', channel=9, note=36, velocity=100, time=184),
    Message('note_on', channel=9, note=51, velocity=60, time=8),
    Message('note_on', channel=9, note=36, velocity=100, time=0),
    Message('note_off', channel=9, note=51, velocity=100, time=184),
    Message('note_off', channel=9, note=36, velocity=100, time=0),
    Message('note_on', channel=9, note=51, velocity=60, time=200),
    Message('note_on', channel=9, note=38, velocity=100, time=0),
    Message('note_off', channel=9, note=51, velocity=100, time=184),
    Message('note_off', channel=9, note=38, velocity=100, time=0),
    Message('note_on', channel=9, note=36, velocity=100, time=8),
    Message('note_off', channel=9, note=36, velocity=100, time=88),
    Message('note_on', channel=9, note=36, velocity=100, time=8),
    Message('note_off', channel=9, note=36, velocity=100, time=88),
    Message('note_on', channel=9, note=38, velocity=100, time=8),
    Message('note_off', channel=9, note=38, velocity=100, time=184),
    Message('note_on', channel=9, note=38, velocity=100, time=8),
    Message('note_off', channel=9, note=38, velocity=100, time=184),
    Message('note_on', channel=9, note=38, velocity=100, time=8),
    Message('note_off', channel=9, note=38, velocity=100, time=184),
    Message('note_on', channel=9, note=38, velocity=100, time=8),
    Message('note_off', channel=9, note=38, velocity=100, time=184),
    Message('note_on', channel=9, note=47, velocity=100, time=8),
    Message('note_off', channel=9, note=47, velocity=100, time=184),
    Message('note_on', channel=9, note=47, velocity=100, time=8),
    Message('note_off', channel=9, note=47, velocity=100, time=184),
    Message('note_on', channel=9, note=45, velocity=100, time=8),
    Message('note_off', channel=9, note=45, velocity=100, time=184),
    Message('note_on', channel=9, note=45, velocity=100, time=8),
    Message('note_off', channel=9, note=45, velocity=100, time=184),
    Message('note_on', channel=9, note=36, velocity=100, time=8),
    Message('note_on', channel=9, note=49, velocity=100, time=0),
    Message('note_off', channel=9, note=36, velocity=100, time=184),
    Message('note_on', channel=9, note=36, velocity=100, time=8),
    Message('note_off', channel=9, note=49, velocity=100, time=184),
    Message('note_off', channel=9, note=36, velocity=100, time=0),
    Message('note_on', channel=9, note=51, velocity=100, time=8),
    Message('note_on', channel=9, note=36, velocity=100, time=0),
    Message('note_on', channel=9, note=38, velocity=100, time=0),
    Message('note_off', channel=9, note=36, velocity=100, time=184),
    Message('note_on', channel=9, note=36, velocity=100, time=8),
    Message('note_off', channel=9, note=51, velocity=100, time=184),
    Message('note_off', channel=9, note=38, velocity=100, time=0),
    Message('note_off', channel=9, note=36, velocity=100, time=0),
    Message('note_on', channel=9, note=36, velocity=100, time=8),
    Message('note_on', channel=9, note=51, velocity=100, time=0),
    Message('note_off', channel=9, note=36, velocity=100, time=184),
    Message('note_on', channel=9, note=36, velocity=100, time=8),
    Message('note_off', channel=9, note=51, velocity=100, time=184),
    Message('note_off', channel=9, note=36, velocity=100, time=0),
    Message('note_on', channel=9, note=36, velocity=100, time=8),
    Message('note_on', channel=9, note=38, velocity=100, time=0),
    Message('note_on', channel=9, note=51, velocity=100, time=0),
    Message('note_off', channel=9, note=36, velocity=100, time=184),
    Message('note_on', channel=9, note=36, velocity=100, time=8),
    Message('note_off', channel=9, note=38, velocity=100, time=184),
    Message('note_off', channel=9, note=51, velocity=100, time=0),
    Message('note_off', channel=9, note=36, velocity=100, time=0),
    Message('note_on', channel=9, note=51, velocity=100, time=8),
    Message('note_on', channel=9, note=36, velocity=100, time=0),
    Message('note_off', channel=9, note=36, velocity=100, time=184),
    Message('note_on', channel=9, note=36, velocity=100, time=8),
    Message('note_off', channel=9, note=51, velocity=100, time=184),
    Message('note_off', channel=9, note=36, velocity=100, time=0),
    Message('note_on', channel=9, note=51, velocity=100, time=8),
    Message('note_on', channel=9, note=38, velocity=100, time=0),
    Message('note_on', channel=9, note=36, velocity=100, time=0),
    Message('note_off', channel=9, note=36, velocity=100, time=184),
    Message('note_on', channel=9, note=36, velocity=100, time=8),
    Message('note_off', channel=9, note=51, velocity=100, time=184),
    Message('note_off', channel=9, note=38, velocity=100, time=0),
    Message('note_off', channel=9, note=36, velocity=100, time=0),
    Message('note_on', channel=9, note=36, velocity=100, time=8),
    Message('note_on', channel=9, note=51, velocity=100, time=0),
    Message('note_off', channel=9, note=36, velocity=100, time=184),
    Message('note_on', channel=9, note=36, velocity=100, time=8),
    Message('note_off', channel=9, note=51, velocity=100, time=184),
    Message('note_off', channel=9, note=36, velocity=100, time=0),
    Message('note_on', channel=9, note=36, velocity=100, time=8),
    Message('note_on', channel=9, note=38, velocity=100, time=0),
    Message('note_on', channel=9, note=51, velocity=100, time=0),
    Message('note_off', channel=9, note=36, velocity=100, time=184),
    Message('note_on', channel=9, note=36, velocity=100, time=8),
    Message('note_off', channel=9, note=38, velocity=100, time=184),
    Message('note_off', channel=9, note=51, velocity=100, time=0),
    Message('note_off', channel=9, note=36, velocity=100, time=0),
    Message('note_on', channel=9, note=51, velocity=100, time=8),
    Message('note_on', channel=9, note=36, velocity=100, time=0),
    Message('note_off', channel=9, note=36, velocity=100, time=184),
    Message('note_on', channel=9, note=36, velocity=100, time=8),
    Message('note_off', channel=9, note=51, velocity=100, time=184),
    Message('note_off', channel=9, note=36, velocity=100, time=0),
    Message('note_on', channel=9, note=51, velocity=100, time=8),
    Message('note_on', channel=9, note=38, velocity=100, time=0),
    Message('note_on', channel=9, note=36, velocity=100, time=0),
    Message('note_off', channel=9, note=36, velocity=100, time=184),
    Message('note_on', channel=9, note=36, velocity=100, time=8),
    Message('note_off', channel=9, note=51, velocity=100, time=184),
    Message('note_off', channel=9, note=38, velocity=100, time=0),
    Message('note_off', channel=9, note=36, velocity=100, time=0),
    Message('note_on', channel=9, note=36, velocity=100, time=8),
    Message('note_on', channel=9, note=51, velocity=100, time=0),
    Message('note_off', channel=9, note=36, velocity=100, time=184),
    Message('note_on', channel=9, note=36, velocity=100, time=8),
    Message('note_off', channel=9, note=51, velocity=100, time=184),
    Message('note_off', channel=9, note=36, velocity=100, time=0),
    Message('note_on', channel=9, note=36, velocity=100, time=8),
    Message('note_on', channel=9, note=38, velocity=100, time=0),
    Message('note_on', channel=9, note=51, velocity=100, time=0),
    Message('note_off', channel=9, note=36, velocity=100, time=184),
    Message('note_on', channel=9, note=36, velocity=100, time=8),
    Message('note_off', channel=9, note=38, velocity=100, time=184),
    Message('note_off', channel=9, note=51, velocity=100, time=0),
    Message('note_off', channel=9, note=36, velocity=100, time=0),
    Message('note_on', channel=9, note=36, velocity=100, time=8),
    Message('note_on', channel=9, note=51, velocity=100, time=0),
    Message('note_off', channel=9, note=36, velocity=100, time=184),
    Message('note_on', channel=9, note=36, velocity=100, time=8),
    Message('note_off', channel=9, note=51, velocity=100, time=184),
    Message('note_off', channel=9, note=36, velocity=100, time=0),
    Message('note_on', channel=9, note=36, velocity=100, time=8),
    Message('note_on', channel=9, note=38, velocity=100, time=0),
    Message('note_on', channel=9, note=51, velocity=100, time=0),
    Message('note_off', channel=9, note=36, velocity=100, time=184),
    Message('note_on', channel=9, note=36, velocity=100, time=8),
    Message('note_off', channel=9, note=38, velocity=100, time=184),
    Message('note_off', channel=9, note=51, velocity=100, time=0),
    Message('note_off', channel=9, note=36, velocity=100, time=0),
    Message('note_on', channel=9, note=49, velocity=100, time=8),
    Message('note_on', channel=9, note=38, velocity=100, time=0),
    Message('note_off', channel=9, note=49, velocity=100, time=376),
    Message('note_off', channel=9, note=38, velocity=100, time=0),
    Message('note_on', channel=9, note=49, velocity=100, time=8),
    Message('note_on', channel=9, note=38, velocity=100, time=0),
    Message('note_off', channel=9, note=49, velocity=100, time=376),
    Message('note_off', channel=9, note=38, velocity=100, time=0),
    Message('note_on', channel=9, note=36, velocity=100, time=8),
    Message('note_on', channel=9, note=49, velocity=100, time=0),
    Message('note_off', channel=9, note=36, velocity=100, time=184),
    Message('note_on', channel=9, note=36, velocity=100, time=8),
    Message('note_off', channel=9, note=49, velocity=100, time=184),
    Message('note_off', channel=9, note=36, velocity=100, time=0),
    Message('note_on', channel=9, note=51, velocity=100, time=8),
    Message('note_on', channel=9, note=36, velocity=100, time=0),
    Message('note_on', channel=9, note=38, velocity=100, time=0),
    Message('note_off', channel=9, note=36, velocity=100, time=184),
    Message('note_on', channel=9, note=36, velocity=100, time=8),
    Message('note_off', channel=9, note=51, velocity=100, time=184),
    Message('note_off', channel=9, note=38, velocity=100, time=0),
    Message('note_off', channel=9, note=36, velocity=100, time=0),
    Message('note_on', channel=9, note=36, velocity=100, time=8),
    Message('note_on', channel=9, note=51, velocity=100, time=0),
    Message('note_off', channel=9, note=36, velocity=100, time=184),
    Message('note_on', channel=9, note=36, velocity=100, time=8),
    Message('note_off', channel=9, note=51, velocity=100, time=184),
    Message('note_off', channel=9, note=36, velocity=100, time=0),
    Message('note_on', channel=9, note=36, velocity=100, time=8),
    Message('note_on', channel=9, note=38, velocity=100, time=0),
    Message('note_on', channel=9, note=51, velocity=100, time=0),
    Message('note_off', channel=9, note=36, velocity=100, time=184),
    Message('note_on', channel=9, note=36, velocity=100, time=8),
    Message('note_off', channel=9, note=38, velocity=100, time=184),
    Message('note_off', channel=9, note=51, velocity=100, time=0),
    Message('note_off', channel=9, note=36, velocity=100, time=0),
    Message('note_on', channel=9, note=36, velocity=100, time=8),
    Message('note_on', channel=9, note=51, velocity=100, time=0),
    Message('note_off', channel=9, note=36, velocity=100, time=184),
    Message('note_on', channel=9, note=36, velocity=100, time=8),
    Message('note_off', channel=9, note=51, velocity=100, time=184),
    Message('note_off', channel=9, note=36, velocity=100, time=0),
    Message('note_on', channel=9, note=51, velocity=100, time=8),
    Message('note_on', channel=9, note=38, velocity=100, time=0),
    Message('note_on', channel=9, note=36, velocity=100, time=0),
    Message('note_off', channel=9, note=36, velocity=100, time=184),
    Message('note_on', channel=9, note=36, velocity=100, time=8),
    Message('note_off', channel=9, note=51, velocity=100, time=184),
    Message('note_off', channel=9, note=38, velocity=100, time=0),
    Message('note_off', channel=9, note=36, velocity=100, time=0),
    Message('note_on', channel=9, note=36, velocity=100, time=8),
    Message('note_on', channel=9, note=51, velocity=100, time=0),
    Message('note_off', channel=9, note=36, velocity=100, time=184),
    Message('note_on', channel=9, note=36, velocity=100, time=8),
    Message('note_off', channel=9, note=51, velocity=100, time=184),
    Message('note_off', channel=9, note=36, velocity=100, time=0),
    Message('note_on', channel=9, note=36, velocity=100, time=8),
    Message('note_on', channel=9, note=38, velocity=100, time=0),
    Message('note_on', channel=9, note=51, velocity=100, time=0),
    Message('note_off', channel=9, note=36, velocity=100, time=184),
    Message('note_on', channel=9, note=36, velocity=100, time=8),
    Message('note_off', channel=9, note=38, velocity=100, time=184),
    Message('note_off', channel=9, note=51, velocity=100, time=0),
    Message('note_off', channel=9, note=36, velocity=100, time=0),
    Message('note_on', channel=9, note=36, velocity=100, time=8),
    Message('note_on', channel=9, note=51, velocity=100, time=0),
    Message('note_off', channel=9, note=36, velocity=100, time=184),
    Message('note_on', channel=9, note=36, velocity=100, time=8),
    Message('note_off', channel=9, note=51, velocity=100, time=184),
    Message('note_off', channel=9, note=36, velocity=100, time=0),
    Message('note_on', channel=9, note=36, velocity=100, time=8),
    Message('note_on', channel=9, note=38, velocity=100, time=0),
    Message('note_on', channel=9, note=51, velocity=100, time=0),
    Message('note_off', channel=9, note=36, velocity=100, time=184),
    Message('note_on', channel=9, note=36, velocity=100, time=8),
    Message('note_off', channel=9, note=38, velocity=100, time=184),
    Message('note_off', channel=9, note=51, velocity=100, time=0),
    Message('note_off', channel=9, note=36, velocity=100, time=0),
    Message('note_on', channel=9, note=36, velocity=100, time=8),
    Message('note_on', channel=9, note=51, velocity=100, time=0),
    Message('note_off', channel=9, note=36, velocity=100, time=184),
    Message('note_on', channel=9, note=36, velocity=100, time=8),
    Message('note_off', channel=9, note=51, velocity=100, time=184),
    Message('note_off', channel=9, note=36, velocity=100, time=0),
    Message('note_on', channel=9, note=51, velocity=100, time=8),
    Message('note_on', channel=9, note=36, velocity=100, time=0),
    Message('note_on', channel=9, note=38, velocity=100, time=0),
    Message('note_off', channel=9, note=36, velocity=100, time=184),
    Message('note_on', channel=9, note=36, velocity=100, time=8),
    Message('note_off', channel=9, note=51, velocity=100, time=184),
    Message('note_off', channel=9, note=38, velocity=100, time=0),
    Message('note_off', channel=9, note=36, velocity=100, time=0),
    Message('note_on', channel=9, note=36, velocity=100, time=8),
    Message('note_on', channel=9, note=51, velocity=100, time=0),
    Message('note_off', channel=9, note=36, velocity=100, time=184),
    Message('note_on', channel=9, note=36, velocity=100, time=8),
    Message('note_off', channel=9, note=51, velocity=100, time=184),
    Message('note_off', channel=9, note=36, velocity=100, time=0),
    Message('note_on', channel=9, note=36, velocity=100, time=8),
    Message('note_on', channel=9, note=38, velocity=100, time=0),
    Message('note_on', channel=9, note=51, velocity=100, time=0),
    Message('note_off', channel=9, note=36, velocity=100, time=184),
    Message('note_on', channel=9, note=36, velocity=100, time=8),
    Message('note_off', channel=9, note=36, velocity=100, time=88),
    Message('note_on', channel=9, note=36, velocity=100, time=8),
    Message('note_off', channel=9, note=38, velocity=100, time=88),
    Message('note_off', channel=9, note=51, velocity=100, time=0),
    Message('note_off', channel=9, note=36, velocity=100, time=0),
    Message('note_on', channel=9, note=51, velocity=100, time=8),
    Message('note_on', channel=9, note=38, velocity=100, time=0),
    Message('note_off', channel=9, note=51, velocity=100, time=184),
    Message('note_off', channel=9, note=38, velocity=100, time=0),
    Message('note_on', channel=9, note=36, velocity=100, time=8),
    Message('note_on', channel=9, note=49, velocity=100, time=0),
    Message('note_off', channel=9, note=36, velocity=100, time=184),
    Message('note_off', channel=9, note=49, velocity=100, time=0),
    Message('note_on', channel=9, note=49, velocity=100, time=392),
    Message('note_on', channel=9, note=36, velocity=100, time=0),
    Message('note_off', channel=9, note=49, velocity=100, time=376),
    Message('note_off', channel=9, note=36, velocity=100, time=0),
    Message('note_on', channel=9, note=42, velocity=100, time=8),
    Message('note_on', channel=9, note=38, velocity=100, time=0),
    Message('note_on', channel=9, note=36, velocity=100, time=0),
    Message('note_off', channel=9, note=42, velocity=100, time=184),
    Message('note_off', channel=9, note=38, velocity=100, time=0),
    Message('note_off', channel=9, note=36, velocity=100, time=0),
    Message('note_on', channel=9, note=36, velocity=100, time=8),
    Message('note_off', channel=9, note=36, velocity=100, time=184),
    Message('note_on', channel=9, note=42, velocity=100, time=8),
    Message('note_on', channel=9, note=36, velocity=100, time=0),
    Message('note_off', channel=9, note=42, velocity=100, time=184),
    Message('note_off', channel=9, note=36, velocity=100, time=0),
    Message('note_on', channel=9, note=36, velocity=100, time=8),
    Message('note_off', channel=9, note=36, velocity=100, time=184),
    Message('note_on', channel=9, note=38, velocity=100, time=8),
    Message('note_on', channel=9, note=42, velocity=100, time=0),
    Message('note_on', channel=9, note=36, velocity=100, time=0),
    Message('note_off', channel=9, note=38, velocity=100, time=184),
    Message('note_off', channel=9, note=42, velocity=100, time=0),
    Message('note_off', channel=9, note=36, velocity=100, time=0),
    Message('note_on', channel=9, note=36, velocity=100, time=8),
    Message('note_off', channel=9, note=36, velocity=100, time=184),
    Message('note_on', channel=9, note=42, velocity=100, time=8),
    Message('note_on', channel=9, note=36, velocity=100, time=0),
    Message('note_off', channel=9, note=42, velocity=100, time=184),
    Message('note_off', channel=9, note=36, velocity=100, time=0),
    Message('note_on', channel=9, note=36, velocity=100, time=8),
    Message('note_off', channel=9, note=36, velocity=100, time=184),
    Message('note_on', channel=9, note=38, velocity=100, time=8),
    Message('note_on', channel=9, note=42, velocity=100, time=0),
    Message('note_on', channel=9, note=36, velocity=100, time=0),
    Message('note_off', channel=9, note=38, velocity=100, time=184),
    Message('note_off', channel=9, note=42, velocity=100, time=0),
    Message('note_off', channel=9, note=36, velocity=100, time=0),
    Message('note_on', channel=9, note=36, velocity=100, time=8),
    Message('note_off', channel=9, note=36, velocity=100, time=184),
    Message('note_on', channel=9, note=42, velocity=100, time=8),
    Message('note_on', channel=9, note=36, velocity=100, time=0),
    Message('note_off', channel=9, note=42, velocity=100, time=184),
    Message('note_off', channel=9, note=36, velocity=100, time=0),
    Message('note_on', channel=9, note=36, velocity=100, time=8),
    Message('note_off', channel=9, note=36, velocity=100, time=184),
    Message('note_on', channel=9, note=38, velocity=100, time=8),
    Message('note_on', channel=9, note=42, velocity=100, time=0),
    Message('note_on', channel=9, note=36, velocity=100, time=0),
    Message('note_off', channel=9, note=38, velocity=100, time=184),
    Message('note_off', channel=9, note=42, velocity=100, time=0),
    Message('note_off', channel=9, note=36, velocity=100, time=0),
    Message('note_on', channel=9, note=36, velocity=100, time=8),
    Message('note_off', channel=9, note=36, velocity=100, time=184),
    Message('note_on', channel=9, note=42, velocity=100, time=8),
    Message('note_on', channel=9, note=36, velocity=100, time=0),
    Message('note_off', channel=9, note=42, velocity=100, time=184),
    Message('note_off', channel=9, note=36, velocity=100, time=0),
    Message('note_on', channel=9, note=36, velocity=100, time=8),
    Message('note_off', channel=9, note=36, velocity=100, time=184),
    Message('note_on', channel=9, note=38, velocity=100, time=8),
    Message('note_on', channel=9, note=42, velocity=100, time=0),
    Message('note_on', channel=9, note=36, velocity=100, time=0),
    Message('note_off', channel=9, note=38, velocity=100, time=184),
    Message('note_off', channel=9, note=42, velocity=100, time=0),
    Message('note_off', channel=9, note=36, velocity=100, time=0),
    Message('note_on', channel=9, note=36, velocity=100, time=8),
    Message('note_off', channel=9, note=36, velocity=100, time=184),
    Message('note_on', channel=9, note=42, velocity=100, time=8),
    Message('note_on', channel=9, note=36, velocity=100, time=0),
    Message('note_off', channel=9, note=42, velocity=100, time=184),
    Message('note_off', channel=9, note=36, velocity=100, time=0),
    Message('note_on', channel=9, note=36, velocity=100, time=8),
    Message('note_off', channel=9, note=36, velocity=100, time=184),
    Message('note_on', channel=9, note=38, velocity=100, time=8),
    Message('note_on', channel=9, note=42, velocity=100, time=0),
    Message('note_on', channel=9, note=36, velocity=100, time=0),
    Message('note_off', channel=9, note=38, velocity=100, time=184),
    Message('note_off', channel=9, note=42, velocity=100, time=0),
    Message('note_off', channel=9, note=36, velocity=100, time=0),
    Message('note_on', channel=9, note=36, velocity=100, time=8),
    Message('note_off', channel=9, note=36, velocity=100, time=184),
    Message('note_on', channel=9, note=42, velocity=100, time=8),
    Message('note_on', channel=9, note=36, velocity=100, time=0),
    Message('note_off', channel=9, note=42, velocity=100, time=184),
    Message('note_off', channel=9, note=36, velocity=100, time=0),
    Message('note_on', channel=9, note=36, velocity=100, time=8),
    Message('note_off', channel=9, note=36, velocity=100, time=184),
    Message('note_on', channel=9, note=36, velocity=100, time=8),
    Message('note_on', channel=9, note=42, velocity=100, time=0),
    Message('note_on', channel=9, note=38, velocity=100, time=0),
    Message('note_off', channel=9, note=36, velocity=100, time=184),
    Message('note_off', channel=9, note=42, velocity=100, time=0),
    Message('note_off', channel=9, note=38, velocity=100, time=0),
    Message('note_on', channel=9, note=36, velocity=100, time=8),
    Message('note_off', channel=9, note=36, velocity=100, time=184),
    Message('note_on', channel=9, note=36, velocity=100, time=8),
    Message('note_on', channel=9, note=42, velocity=100, time=0),
    Message('note_off', channel=9, note=36, velocity=100, time=184),
    Message('note_off', channel=9, note=42, velocity=100, time=0),
    Message('note_on', channel=9, note=36, velocity=100, time=8),
    Message('note_off', channel=9, note=36, velocity=100, time=88),
    Message('note_on', channel=9, note=36, velocity=100, time=8),
    Message('note_off', channel=9, note=36, velocity=100, time=88),
    Message('note_on', channel=9, note=38, velocity=100, time=8),
    Message('note_on', channel=9, note=42, velocity=100, time=0),
    Message('note_on', channel=9, note=36, velocity=100, time=0),
    Message('note_off', channel=9, note=38, velocity=100, time=184),
    Message('note_off', channel=9, note=42, velocity=100, time=0),
    Message('note_off', channel=9, note=36, velocity=100, time=0),
    Message('note_on', channel=9, note=36, velocity=100, time=8),
    Message('note_off', channel=9, note=36, velocity=100, time=184),
    Message('note_on', channel=9, note=42, velocity=100, time=8),
    Message('note_on', channel=9, note=36, velocity=100, time=0),
    Message('note_off', channel=9, note=42, velocity=100, time=184),
    Message('note_off', channel=9, note=36, velocity=100, time=0),
    Message('note_on', channel=9, note=36, velocity=100, time=8),
    Message('note_off', channel=9, note=36, velocity=100, time=184),
    Message('note_on', channel=9, note=38, velocity=100, time=8),
    Message('note_on', channel=9, note=42, velocity=100, time=0),
    Message('note_on', channel=9, note=36, velocity=100, time=0),
    Message('note_off', channel=9, note=38, velocity=100, time=184),
    Message('note_off', channel=9, note=42, velocity=100, time=0),
    Message('note_off', channel=9, note=36, velocity=100, time=0),
    Message('note_on', channel=9, note=36, velocity=100, time=8),
    Message('note_off', channel=9, note=36, velocity=100, time=184),
    Message('note_on', channel=9, note=42, velocity=100, time=8),
    Message('note_on', channel=9, note=36, velocity=100, time=0),
    Message('note_off', channel=9, note=42, velocity=100, time=184),
    Message('note_off', channel=9, note=36, velocity=100, time=0),
    Message('note_on', channel=9, note=36, velocity=100, time=8),
    Message('note_off', channel=9, note=36, velocity=100, time=184),
    Message('note_on', channel=9, note=38, velocity=100, time=8),
    Message('note_on', channel=9, note=42, velocity=100, time=0),
    Message('note_on', channel=9, note=36, velocity=100, time=0),
    Message('note_off', channel=9, note=38, velocity=100, time=184),
    Message('note_off', channel=9, note=42, velocity=100, time=0),
    Message('note_off', channel=9, note=36, velocity=100, time=0),
    Message('note_on', channel=9, note=36, velocity=100, time=8),
    Message('note_off', channel=9, note=36, velocity=100, time=184),
    Message('note_on', channel=9, note=42, velocity=100, time=8),
    Message('note_on', channel=9, note=36, velocity=100, time=0),
    Message('note_off', channel=9, note=42, velocity=100, time=184),
    Message('note_off', channel=9, note=36, velocity=100, time=0),
    Message('note_on', channel=9, note=36, velocity=100, time=8),
    Message('note_off', channel=9, note=36, velocity=100, time=184),
    Message('note_on', channel=9, note=38, velocity=100, time=8),
    Message('note_on', channel=9, note=42, velocity=100, time=0),
    Message('note_on', channel=9, note=36, velocity=100, time=0),
    Message('note_off', channel=9, note=38, velocity=100, time=184),
    Message('note_off', channel=9, note=42, velocity=100, time=0),
    Message('note_off', channel=9, note=36, velocity=100, time=0),
    Message('note_on', channel=9, note=36, velocity=100, time=8),
    Message('note_off', channel=9, note=36, velocity=100, time=184),
    Message('note_on', channel=9, note=42, velocity=100, time=8),
    Message('note_on', channel=9, note=36, velocity=100, time=0),
    Message('note_off', channel=9, note=42, velocity=100, time=184),
    Message('note_off', channel=9, note=36, velocity=100, time=0),
    Message('note_on', channel=9, note=36, velocity=100, time=8),
    Message('note_off', channel=9, note=36, velocity=100, time=184),
    Message('note_on', channel=9, note=38, velocity=100, time=8),
    Message('note_on', channel=9, note=42, velocity=100, time=0),
    Message('note_on', channel=9, note=36, velocity=100, time=0),
    Message('note_off', channel=9, note=38, velocity=100, time=184),
    Message('note_off', channel=9, note=42, velocity=100, time=0),
    Message('note_off', channel=9, note=36, velocity=100, time=0),
    Message('note_on', channel=9, note=36, velocity=100, time=8),
    Message('note_off', channel=9, note=36, velocity=100, time=184),
    Message('note_on', channel=9, note=42, velocity=100, time=8),
    Message('note_on', channel=9, note=36, velocity=100, time=0),
    Message('note_off', channel=9, note=42, velocity=100, time=184),
    Message('note_off', channel=9, note=36, velocity=100, time=0),
    Message('note_on', channel=9, note=36, velocity=100, time=8),
    Message('note_off', channel=9, note=36, velocity=100, time=184),
    Message('note_on', channel=9, note=38, velocity=100, time=8),
    Message('note_on', channel=9, note=42, velocity=100, time=0),
    Message('note_on', channel=9, note=36, velocity=100, time=0),
    Message('note_off', channel=9, note=38, velocity=100, time=184),
    Message('note_off', channel=9, note=42, velocity=100, time=0),
    Message('note_off', channel=9, note=36, velocity=100, time=0),
    Message('note_on', channel=9, note=36, velocity=100, time=8),
    Message('note_off', channel=9, note=36, velocity=100, time=184),
    Message('note_on', channel=9, note=42, velocity=100, time=8),
    Message('note_on', channel=9, note=36, velocity=100, time=0),
    Message('note_off', channel=9, note=42, velocity=100, time=184),
    Message('note_off', channel=9, note=36, velocity=100, time=0),
    Message('note_on', channel=9, note=36, velocity=100, time=8),
    Message('note_off', channel=9, note=36, velocity=100, time=184),
    Message('note_on', channel=9, note=38, velocity=100, time=8),
    Message('note_on', channel=9, note=42, velocity=100, time=0),
    Message('note_off', channel=9, note=38, velocity=100, time=184),
    Message('note_off', channel=9, note=42, velocity=100, time=0),
    Message('note_on', channel=9, note=36, velocity=100, time=200),
    Message('note_off', channel=9, note=36, velocity=100, time=88),
    Message('note_on', channel=9, note=36, velocity=100, time=8),
    Message('note_off', channel=9, note=36, velocity=100, time=88),
    Message('note_on', channel=9, note=36, velocity=100, time=8),
    Message('note_off', channel=9, note=36, velocity=100, time=88),
    Message('note_on', channel=9, note=36, velocity=100, time=8),
    Message('note_off', channel=9, note=36, velocity=100, time=88),
    Message('note_on', channel=9, note=49, velocity=100, time=8),
    Message('note_on', channel=9, note=38, velocity=100, time=0),
    Message('note_off', channel=9, note=49, velocity=100, time=376),
    Message('note_off', channel=9, note=38, velocity=100, time=0),
    Message('note_on', channel=9, note=36, velocity=100, time=8),
    Message('note_off', channel=9, note=36, velocity=100, time=88),
    Message('note_on', channel=9, note=36, velocity=100, time=8),
    Message('note_off', channel=9, note=36, velocity=100, time=88),
    Message('note_on', channel=9, note=36, velocity=100, time=8),
    Message('note_off', channel=9, note=36, velocity=100, time=88),
    Message('note_on', channel=9, note=36, velocity=100, time=8),
    Message('note_off', channel=9, note=36, velocity=100, time=88),
    Message('note_on', channel=9, note=49, velocity=100, time=8),
    Message('note_on', channel=9, note=38, velocity=100, time=0),
    Message('note_off', channel=9, note=49, velocity=100, time=376),
    Message('note_off', channel=9, note=38, velocity=100, time=0),
    Message('note_on', channel=9, note=36, velocity=100, time=8),
    Message('note_on', channel=9, note=49, velocity=100, time=0),
    Message('note_off', channel=9, note=36, velocity=100, time=376),
    Message('note_off', channel=9, note=49, velocity=100, time=0),
    Message('note_on', channel=9, note=42, velocity=100, time=8),
    Message('note_on', channel=9, note=38, velocity=100, time=0),
    Message('note_off', channel=9, note=42, velocity=100, time=376),
    Message('note_off', channel=9, note=38, velocity=100, time=0),
    Message('note_on', channel=9, note=42, velocity=100, time=8),
    Message('note_on', channel=9, note=36, velocity=100, time=0),
    Message('note_off', channel=9, note=42, velocity=100, time=184),
    Message('note_off', channel=9, note=36, velocity=100, time=0),
    Message('note_on', channel=9, note=36, velocity=100, time=8),
    Message('note_off', channel=9, note=36, velocity=100, time=184),
    Message('note_on', channel=9, note=42, velocity=100, time=8),
    Message('note_on', channel=9, note=38, velocity=100, time=0),
    Message('note_off', channel=9, note=42, velocity=100, time=184),
    Message('note_off', channel=9, note=38, velocity=100, time=0),
    Message('note_on', channel=9, note=42, velocity=100, time=200),
    Message('note_on', channel=9, note=36, velocity=100, time=0),
    Message('note_off', channel=9, note=42, velocity=100, time=184),
    Message('note_off', channel=9, note=36, velocity=100, time=0),
    Message('note_on', channel=9, note=42, velocity=100, time=200),
    Message('note_on', channel=9, note=38, velocity=100, time=0),
    Message('note_off', channel=9, note=42, velocity=100, time=184),
    Message('note_off', channel=9, note=38, velocity=100, time=0),
    Message('note_on', channel=9, note=36, velocity=100, time=200),
    Message('note_on', channel=9, note=42, velocity=100, time=0),
    Message('note_off', channel=9, note=36, velocity=100, time=184),
    Message('note_off', channel=9, note=42, velocity=100, time=0),
    Message('note_on', channel=9, note=36, velocity=100, time=8),
    Message('note_off', channel=9, note=36, velocity=100, time=184),
    Message('note_on', channel=9, note=38, velocity=100, time=8),
    Message('note_on', channel=9, note=42, velocity=100, time=0),
    Message('note_off', channel=9, note=38, velocity=100, time=184),
    Message('note_off', channel=9, note=42, velocity=100, time=0),
    Message('note_on', channel=9, note=42, velocity=100, time=200),
    Message('note_on', channel=9, note=36, velocity=100, time=0),
    Message('note_off', channel=9, note=42, velocity=100, time=184),
    Message('note_off', channel=9, note=36, velocity=100, time=0),
    Message('note_on', channel=9, note=42, velocity=100, time=200),
    Message('note_on', channel=9, note=38, velocity=100, time=0),
    Message('note_off', channel=9, note=42, velocity=100, time=184),
    Message('note_off', channel=9, note=38, velocity=100, time=0),
    Message('note_on', channel=9, note=36, velocity=100, time=200),
    Message('note_on', channel=9, note=42, velocity=100, time=0),
    Message('note_off', channel=9, note=36, velocity=100, time=184),
    Message('note_off', channel=9, note=42, velocity=100, time=0),
    Message('note_on', channel=9, note=36, velocity=100, time=8),
    Message('note_off', channel=9, note=36, velocity=100, time=184),
    Message('note_on', channel=9, note=38, velocity=100, time=8),
    Message('note_on', channel=9, note=42, velocity=100, time=0),
    Message('note_off', channel=9, note=38, velocity=100, time=184),
    Message('note_off', channel=9, note=42, velocity=100, time=0),
    Message('note_on', channel=9, note=42, velocity=100, time=200),
    Message('note_on', channel=9, note=36, velocity=100, time=0),
    Message('note_off', channel=9, note=42, velocity=100, time=184),
    Message('note_off', channel=9, note=36, velocity=100, time=0),
    Message('note_on', channel=9, note=42, velocity=100, time=200),
    Message('note_on', channel=9, note=38, velocity=100, time=0),
    Message('note_off', channel=9, note=42, velocity=100, time=184),
    Message('note_off', channel=9, note=38, velocity=100, time=0),
    Message('note_on', channel=9, note=36, velocity=100, time=200),
    Message('note_on', channel=9, note=42, velocity=100, time=0),
    Message('note_off', channel=9, note=36, velocity=100, time=184),
    Message('note_off', channel=9, note=42, velocity=100, time=0),
    Message('note_on', channel=9, note=36, velocity=100, time=8),
    Message('note_off', channel=9, note=36, velocity=100, time=184),
    Message('note_on', channel=9, note=38, velocity=100, time=8),
    Message('note_on', channel=9, note=42, velocity=100, time=0),
    Message('note_off', channel=9, note=38, velocity=100, time=184),
    Message('note_off', channel=9, note=42, velocity=100, time=0),
    Message('note_on', channel=9, note=42, velocity=100, time=200),
    Message('note_on', channel=9, note=36, velocity=100, time=0),
    Message('note_off', channel=9, note=42, velocity=100, time=184),
    Message('note_off', channel=9, note=36, velocity=100, time=0),
    Message('note_on', channel=9, note=42, velocity=100, time=200),
    Message('note_on', channel=9, note=38, velocity=100, time=0),
    Message('note_off', channel=9, note=42, velocity=100, time=184),
    Message('note_off', channel=9, note=38, velocity=100, time=0),
    Message('note_on', channel=9, note=36, velocity=100, time=200),
    Message('note_on', channel=9, note=42, velocity=100, time=0),
    Message('note_off', channel=9, note=36, velocity=100, time=184),
    Message('note_off', channel=9, note=42, velocity=100, time=0),
    Message('note_on', channel=9, note=36, velocity=100, time=8),
    Message('note_off', channel=9, note=36, velocity=100, time=184),
    Message('note_on', channel=9, note=38, velocity=100, time=8),
    Message('note_on', channel=9, note=42, velocity=100, time=0),
    Message('note_off', channel=9, note=38, velocity=100, time=184),
    Message('note_off', channel=9, note=42, velocity=100, time=0),
    Message('note_on', channel=9, note=42, velocity=100, time=200),
    Message('note_on', channel=9, note=36, velocity=100, time=0),
    Message('note_off', channel=9, note=42, velocity=100, time=184),
    Message('note_off', channel=9, note=36, velocity=100, time=0),
    Message('note_on', channel=9, note=42, velocity=100, time=200),
    Message('note_on', channel=9, note=38, velocity=100, time=0),
    Message('note_off', channel=9, note=42, velocity=100, time=184),
    Message('note_off', channel=9, note=38, velocity=100, time=0),
    Message('note_on', channel=9, note=36, velocity=100, time=200),
    Message('note_on', channel=9, note=42, velocity=100, time=0),
    Message('note_off', channel=9, note=36, velocity=100, time=184),
    Message('note_off', channel=9, note=42, velocity=100, time=0),
    Message('note_on', channel=9, note=36, velocity=100, time=8),
    Message('note_off', channel=9, note=36, velocity=100, time=184),
    Message('note_on', channel=9, note=38, velocity=100, time=8),
    Message('note_on', channel=9, note=42, velocity=100, time=0),
    Message('note_off', channel=9, note=38, velocity=100, time=184),
    Message('note_off', channel=9, note=42, velocity=100, time=0),
    Message('note_on', channel=9, note=36, velocity=100, time=200),
    Message('note_on', channel=9, note=42, velocity=100, time=0),
    Message('note_off', channel=9, note=36, velocity=100, time=184),
    Message('note_off', channel=9, note=42, velocity=100, time=0),
    Message('note_on', channel=9, note=42, velocity=100, time=200),
    Message('note_on', channel=9, note=38, velocity=100, time=0),
    Message('note_off', channel=9, note=42, velocity=100, time=184),
    Message('note_off', channel=9, note=38, velocity=100, time=0),
    Message('note_on', channel=9, note=36, velocity=100, time=200),
    Message('note_on', channel=9, note=42, velocity=100, time=0),
    Message('note_off', channel=9, note=36, velocity=100, time=184),
    Message('note_off', channel=9, note=42, velocity=100, time=0),
    Message('note_on', channel=9, note=36, velocity=100, time=8),
    Message('note_off', channel=9, note=36, velocity=100, time=184),
    Message('note_on', channel=9, note=49, velocity=100, time=8),
    Message('note_on', channel=9, note=38, velocity=100, time=0),
    Message('note_off', channel=9, note=49, velocity=100, time=184),
    Message('note_off', channel=9, note=38, velocity=100, time=0),
    Message('note_on', channel=9, note=42, velocity=100, time=200),
    Message('note_on', channel=9, note=36, velocity=100, time=0),
    Message('note_off', channel=9, note=42, velocity=100, time=184),
    Message('note_off', channel=9, note=36, velocity=100, time=0),
    Message('note_on', channel=9, note=36, velocity=100, time=8),
    Message('note_off', channel=9, note=36, velocity=100, time=184),
    Message('note_on', channel=9, note=42, velocity=100, time=8),
    Message('note_on', channel=9, note=38, velocity=100, time=0),
    Message('note_off', channel=9, note=42, velocity=100, time=184),
    Message('note_off', channel=9, note=38, velocity=100, time=0),
    Message('note_on', channel=9, note=36, velocity=100, time=8),
    Message('note_off', channel=9, note=36, velocity=100, time=184),
    Message('note_on', channel=9, note=36, velocity=100, time=8),
    Message('note_on', channel=9, note=42, velocity=100, time=0),
    Message('note_off', channel=9, note=36, velocity=100, time=184),
    Message('note_off', channel=9, note=42, velocity=100, time=0),
    Message('note_on', channel=9, note=38, velocity=100, time=8),
    Message('note_off', channel=9, note=38, velocity=100, time=184),
    Message('note_on', channel=9, note=38, velocity=100, time=8),
    Message('note_off', channel=9, note=38, velocity=100, time=184),
    Message('note_on', channel=9, note=38, velocity=100, time=8),
    Message('note_off', channel=9, note=38, velocity=100, time=184),
    Message('note_on', channel=9, note=36, velocity=100, time=8),
    Message('note_on', channel=9, note=49, velocity=100, time=0),
    Message('note_off', channel=9, note=36, velocity=100, time=376),
    Message('note_off', channel=9, note=49, velocity=100, time=0),
    Message('note_on', channel=9, note=42, velocity=100, time=8),
    Message('note_on', channel=9, note=38, velocity=100, time=0),
    Message('note_off', channel=9, note=42, velocity=100, time=376),
    Message('note_off', channel=9, note=38, velocity=100, time=0),
    Message('note_on', channel=9, note=42, velocity=100, time=8),
    Message('note_on', channel=9, note=36, velocity=100, time=0),
    Message('note_off', channel=9, note=42, velocity=100, time=184),
    Message('note_off', channel=9, note=36, velocity=100, time=0),
    Message('note_on', channel=9, note=36, velocity=100, time=8),
    Message('note_off', channel=9, note=36, velocity=100, time=184),
    Message('note_on', channel=9, note=42, velocity=100, time=8),
    Message('note_on', channel=9, note=38, velocity=100, time=0),
    Message('note_off', channel=9, note=42, velocity=100, time=184),
    Message('note_off', channel=9, note=38, velocity=100, time=0),
    Message('note_on', channel=9, note=42, velocity=100, time=200),
    Message('note_on', channel=9, note=36, velocity=100, time=0),
    Message('note_off', channel=9, note=42, velocity=100, time=184),
    Message('note_off', channel=9, note=36, velocity=100, time=0),
    Message('note_on', channel=9, note=42, velocity=100, time=200),
    Message('note_on', channel=9, note=38, velocity=100, time=0),
    Message('note_off', channel=9, note=42, velocity=100, time=184),
    Message('note_off', channel=9, note=38, velocity=100, time=0),
    Message('note_on', channel=9, note=36, velocity=100, time=200),
    Message('note_on', channel=9, note=42, velocity=100, time=0),
    Message('note_off', channel=9, note=36, velocity=100, time=184),
    Message('note_off', channel=9, note=42, velocity=100, time=0),
    Message('note_on', channel=9, note=36, velocity=100, time=8),
    Message('note_off', channel=9, note=36, velocity=100, time=184),
    Message('note_on', channel=9, note=38, velocity=100, time=8),
    Message('note_on', channel=9, note=42, velocity=100, time=0),
    Message('note_off', channel=9, note=38, velocity=100, time=184),
    Message('note_off', channel=9, note=42, velocity=100, time=0),
    Message('note_on', channel=9, note=42, velocity=100, time=200),
    Message('note_on', channel=9, note=36, velocity=100, time=0),
    Message('note_off', channel=9, note=42, velocity=100, time=184),
    Message('note_off', channel=9, note=36, velocity=100, time=0),
    Message('note_on', channel=9, note=42, velocity=100, time=200),
    Message('note_on', channel=9, note=38, velocity=100, time=0),
    Message('note_off', channel=9, note=42, velocity=100, time=184),
    Message('note_off', channel=9, note=38, velocity=100, time=0),
    Message('note_on', channel=9, note=36, velocity=100, time=200),
    Message('note_on', channel=9, note=42, velocity=100, time=0),
    Message('note_off', channel=9, note=36, velocity=100, time=184),
    Message('note_off', channel=9, note=42, velocity=100, time=0),
    Message('note_on', channel=9, note=36, velocity=100, time=8),
    Message('note_off', channel=9, note=36, velocity=100, time=184),
    Message('note_on', channel=9, note=38, velocity=100, time=8),
    Message('note_on', channel=9, note=42, velocity=100, time=0),
    Message('note_off', channel=9, note=38, velocity=100, time=184),
    Message('note_off', channel=9, note=42, velocity=100, time=0),
    Message('note_on', channel=9, note=42, velocity=100, time=200),
    Message('note_on', channel=9, note=36, velocity=100, time=0),
    Message('note_off', channel=9, note=42, velocity=100, time=184),
    Message('note_off', channel=9, note=36, velocity=100, time=0),
    Message('note_on', channel=9, note=38, velocity=100, time=200),
    Message('note_on', channel=9, note=42, velocity=100, time=0),
    Message('note_off', channel=9, note=38, velocity=100, time=184),
    Message('note_off', channel=9, note=42, velocity=100, time=0),
    Message('note_on', channel=9, note=49, velocity=100, time=200),
    Message('note_on', channel=9, note=36, velocity=100, time=0),
    Message('note_off', channel=9, note=49, velocity=100, time=184),
    Message('note_off', channel=9, note=36, velocity=100, time=0),
    Message('note_on', channel=9, note=49, velocity=100, time=8),
    Message('note_on', channel=9, note=36, velocity=100, time=0),
    Message('note_off', channel=9, note=49, velocity=100, time=184),
    Message('note_off', channel=9, note=36, velocity=100, time=0),
    Message('note_on', channel=9, note=38, velocity=100, time=8),
    Message('note_on', channel=9, note=42, velocity=100, time=0),
    Message('note_off', channel=9, note=38, velocity=100, time=184),
    Message('note_off', channel=9, note=42, velocity=100, time=0),
    Message('note_on', channel=9, note=42, velocity=100, time=200),
    Message('note_on', channel=9, note=36, velocity=100, time=0),
    Message('note_off', channel=9, note=42, velocity=100, time=184),
    Message('note_off', channel=9, note=36, velocity=100, time=0),
    Message('note_on', channel=9, note=42, velocity=100, time=200),
    Message('note_on', channel=9, note=38, velocity=100, time=0),
    Message('note_off', channel=9, note=42, velocity=100, time=184),
    Message('note_off', channel=9, note=38, velocity=100, time=0),
    Message('note_on', channel=9, note=36, velocity=100, time=200),
    Message('note_on', channel=9, note=42, velocity=100, time=0),
    Message('note_off', channel=9, note=36, velocity=100, time=184),
    Message('note_off', channel=9, note=42, velocity=100, time=0),
    Message('note_on', channel=9, note=36, velocity=100, time=8),
    Message('note_off', channel=9, note=36, velocity=100, time=184),
    Message('note_on', channel=9, note=38, velocity=100, time=8),
    Message('note_on', channel=9, note=42, velocity=100, time=0),
    Message('note_off', channel=9, note=38, velocity=100, time=184),
    Message('note_off', channel=9, note=42, velocity=100, time=0),
    Message('note_on', channel=9, note=42, velocity=100, time=200),
    Message('note_on', channel=9, note=36, velocity=100, time=0),
    Message('note_off', channel=9, note=42, velocity=100, time=184),
    Message('note_off', channel=9, note=36, velocity=100, time=0),
    Message('note_on', channel=9, note=42, velocity=100, time=200),
    Message('note_on', channel=9, note=38, velocity=100, time=0),
    Message('note_off', channel=9, note=42, velocity=100, time=184),
    Message('note_off', channel=9, note=38, velocity=100, time=0),
    Message('note_on', channel=9, note=36, velocity=100, time=200),
    Message('note_on', channel=9, note=42, velocity=100, time=0),
    Message('note_off', channel=9, note=36, velocity=100, time=184),
    Message('note_off', channel=9, note=42, velocity=100, time=0),
    Message('note_on', channel=9, note=36, velocity=100, time=8),
    Message('note_off', channel=9, note=36, velocity=100, time=184),
    Message('note_on', channel=9, note=38, velocity=100, time=8),
    Message('note_on', channel=9, note=42, velocity=100, time=0),
    Message('note_off', channel=9, note=38, velocity=100, time=184),
    Message('note_off', channel=9, note=42, velocity=100, time=0),
    Message('note_on', channel=9, note=36, velocity=100, time=200),
    Message('note_on', channel=9, note=42, velocity=100, time=0),
    Message('note_off', channel=9, note=36, velocity=100, time=184),
    Message('note_off', channel=9, note=42, velocity=100, time=0),
    Message('note_on', channel=9, note=42, velocity=100, time=200),
    Message('note_on', channel=9, note=38, velocity=100, time=0),
    Message('note_off', channel=9, note=42, velocity=100, time=184),
    Message('note_off', channel=9, note=38, velocity=100, time=0),
    Message('note_on', channel=9, note=36, velocity=100, time=200),
    Message('note_on', channel=9, note=42, velocity=100, time=0),
    Message('note_off', channel=9, note=36, velocity=100, time=184),
    Message('note_off', channel=9, note=42, velocity=100, time=0),
    Message('note_on', channel=9, note=36, velocity=100, time=8),
    Message('note_off', channel=9, note=36, velocity=100, time=184),
    Message('note_on', channel=9, note=42, velocity=100, time=8),
    Message('note_on', channel=9, note=38, velocity=100, time=0),
    Message('note_off', channel=9, note=42, velocity=100, time=184),
    Message('note_off', channel=9, note=38, velocity=100, time=0),
    Message('note_on', channel=9, note=42, velocity=100, time=200),
    Message('note_on', channel=9, note=36, velocity=100, time=0),
    Message('note_off', channel=9, note=42, velocity=100, time=184),
    Message('note_off', channel=9, note=36, velocity=100, time=0),
    Message('note_on', channel=9, note=36, velocity=100, time=8),
    Message('note_off', channel=9, note=36, velocity=100, time=184),
    Message('note_on', channel=9, note=42, velocity=100, time=8),
    Message('note_on', channel=9, note=38, velocity=100, time=0),
    Message('note_off', channel=9, note=42, velocity=100, time=184),
    Message('note_off', channel=9, note=38, velocity=100, time=0),
    Message('note_on', channel=9, note=36, velocity=100, time=8),
    Message('note_off', channel=9, note=36, velocity=100, time=88),
    Message('note_on', channel=9, note=36, velocity=100, time=8),
    Message('note_off', channel=9, note=36, velocity=100, time=88),
    Message('note_on', channel=9, note=38, velocity=100, time=8),
    Message('note_off', channel=9, note=38, velocity=100, time=184),
    Message('note_on', channel=9, note=38, velocity=100, time=8),
    Message('note_off', channel=9, note=38, velocity=100, time=184),
    Message('note_on', channel=9, note=45, velocity=100, time=8),
    Message('note_off', channel=9, note=45, velocity=100, time=184),
    Message('note_on', channel=9, note=43, velocity=100, time=8),
    Message('note_off', channel=9, note=43, velocity=100, time=184),
    Message('note_on', channel=9, note=36, velocity=100, time=8),
    Message('note_on', channel=9, note=49, velocity=100, time=0),
    Message('note_off', channel=9, note=36, velocity=100, time=184),
    Message('note_off', channel=9, note=49, velocity=100, time=0),
    Message('note_on', channel=9, note=38, velocity=100, time=200),
    Message('note_on', channel=9, note=51, velocity=60, time=0),
    Message('note_off', channel=9, note=38, velocity=100, time=184),
    Message('note_off', channel=9, note=51, velocity=100, time=0),
    Message('note_on', channel=9, note=36, velocity=100, time=8),
    Message('note_off', channel=9, note=36, velocity=100, time=184),
    Message('note_on', channel=9, note=51, velocity=60, time=8),
    Message('note_on', channel=9, note=36, velocity=100, time=0),
    Message('note_off', channel=9, note=51, velocity=100, time=184),
    Message('note_off', channel=9, note=36, velocity=100, time=0),
    Message('note_on', channel=9, note=51, velocity=60, time=200),
    Message('note_on', channel=9, note=38, velocity=100, time=0),
    Message('note_off', channel=9, note=51, velocity=100, time=184),
    Message('note_off', channel=9, note=38, velocity=100, time=0),
    Message('note_on', channel=9, note=36, velocity=100, time=8),
    Message('note_off', channel=9, note=36, velocity=100, time=184),
    Message('note_on', channel=9, note=51, velocity=60, time=8),
    Message('note_on', channel=9, note=36, velocity=100, time=0),
    Message('note_off', channel=9, note=51, velocity=100, time=184),
    Message('note_off', channel=9, note=36, velocity=100, time=0),
    Message('note_on', channel=9, note=38, velocity=100, time=200),
    Message('note_on', channel=9, note=51, velocity=60, time=0),
    Message('note_off', channel=9, note=38, velocity=100, time=184),
    Message('note_off', channel=9, note=51, velocity=100, time=0),
    Message('note_on', channel=9, note=36, velocity=100, time=8),
    Message('note_off', channel=9, note=36, velocity=100, time=184),
    Message('note_on', channel=9, note=51, velocity=60, time=8),
    Message('note_on', channel=9, note=36, velocity=100, time=0),
    Message('note_off', channel=9, note=51, velocity=100, time=184),
    Message('note_off', channel=9, note=36, velocity=100, time=0),
    Message('note_on', channel=9, note=36, velocity=100, time=8),
    Message('note_off', channel=9, note=36, velocity=100, time=184),
    Message('note_on', channel=9, note=51, velocity=60, time=8),
    Message('note_on', channel=9, note=38, velocity=100, time=0),
    Message('note_off', channel=9, note=51, velocity=100, time=184),
    Message('note_off', channel=9, note=38, velocity=100, time=0),
    Message('note_on', channel=9, note=36, velocity=100, time=200),
    Message('note_on', channel=9, note=51, velocity=60, time=0),
    Message('note_off', channel=9, note=36, velocity=100, time=184),
    Message('note_off', channel=9, note=51, velocity=100, time=0),
    Message('note_on', channel=9, note=38, velocity=100, time=200),
    Message('note_on', channel=9, note=51, velocity=60, time=0),
    Message('note_off', channel=9, note=38, velocity=100, time=184),
    Message('note_off', channel=9, note=51, velocity=100, time=0),
    Message('note_on', channel=9, note=36, velocity=100, time=8),
    Message('note_off', channel=9, note=36, velocity=100, time=184),
    Message('note_on', channel=9, note=51, velocity=60, time=8),
    Message('note_on', channel=9, note=36, velocity=100, time=0),
    Message('note_off', channel=9, note=51, velocity=100, time=184),
    Message('note_off', channel=9, note=36, velocity=100, time=0),
    Message('note_on', channel=9, note=51, velocity=60, time=200),
    Message('note_on', channel=9, note=38, velocity=100, time=0),
    Message('note_off', channel=9, note=51, velocity=100, time=184),
    Message('note_off', channel=9, note=38, velocity=100, time=0),
    Message('note_on', channel=9, note=36, velocity=100, time=200),
    Message('note_on', channel=9, note=51, velocity=60, time=0),
    Message('note_off', channel=9, note=36, velocity=100, time=120),
    Message('note_on', channel=9, note=36, velocity=100, time=8),
    Message('note_off', channel=9, note=51, velocity=100, time=56),
    Message('note_off', channel=9, note=36, velocity=100, time=64),
    Message('note_on', channel=9, note=36, velocity=100, time=8),
    Message('note_off', channel=9, note=36, velocity=100, time=120),
    Message('note_on', channel=9, note=36, velocity=100, time=8),
    Message('note_on', channel=9, note=51, velocity=60, time=0),
    Message('note_on', channel=9, note=38, velocity=100, time=0),
    Message('note_off', channel=9, note=36, velocity=100, time=120),
    Message('note_on', channel=9, note=36, velocity=100, time=8),
    Message('note_off', channel=9, note=51, velocity=100, time=56),
    Message('note_off', channel=9, note=38, velocity=100, time=0),
    Message('note_off', channel=9, note=36, velocity=100, time=64),
    Message('note_on', channel=9, note=36, velocity=100, time=8),
    Message('note_off', channel=9, note=36, velocity=100, time=120),
    Message('note_on', channel=9, note=36, velocity=100, time=8),
    Message('note_on', channel=9, note=49, velocity=100, time=0),
    Message('note_off', channel=9, note=36, velocity=100, time=184),
    Message('note_off', channel=9, note=49, velocity=100, time=0),
    Message('note_on', channel=9, note=51, velocity=60, time=200),
    Message('note_on', channel=9, note=38, velocity=100, time=0),
    Message('note_off', channel=9, note=51, velocity=100, time=184),
    Message('note_off', channel=9, note=38, velocity=100, time=0),
    Message('note_on', channel=9, note=49, velocity=100, time=200),
    Message('note_on', channel=9, note=36, velocity=100, time=0),
    Message('note_off', channel=9, note=49, velocity=100, time=184),
    Message('note_off', channel=9, note=36, velocity=100, time=0),
    Message('note_on', channel=9, note=38, velocity=100, time=200),
    Message('note_on', channel=9, note=51, velocity=60, time=0),
    Message('note_off', channel=9, note=38, velocity=100, time=184),
    Message('note_off', channel=9, note=51, velocity=100, time=0),
    Message('note_on', channel=9, note=36, velocity=100, time=8),
    Message('note_off', channel=9, note=36, velocity=100, time=184),
    Message('note_on', channel=9, note=51, velocity=60, time=8),
    Message('note_on', channel=9, note=36, velocity=100, time=0),
    Message('note_off', channel=9, note=51, velocity=100, time=184),
    Message('note_off', channel=9, note=36, velocity=100, time=0),
    Message('note_on', channel=9, note=51, velocity=60, time=200),
    Message('note_on', channel=9, note=38, velocity=100, time=0),
    Message('note_off', channel=9, note=51, velocity=100, time=184),
    Message('note_off', channel=9, note=38, velocity=100, time=0),
    Message('note_on', channel=9, note=36, velocity=100, time=8),
    Message('note_off', channel=9, note=36, velocity=100, time=184),
    Message('note_on', channel=9, note=51, velocity=60, time=8),
    Message('note_on', channel=9, note=36, velocity=100, time=0),
    Message('note_off', channel=9, note=51, velocity=100, time=184),
    Message('note_off', channel=9, note=36, velocity=100, time=0),
    Message('note_on', channel=9, note=51, velocity=60, time=200),
    Message('note_on', channel=9, note=38, velocity=100, time=0),
    Message('note_off', channel=9, note=51, velocity=100, time=184),
    Message('note_off', channel=9, note=38, velocity=100, time=0),
    Message('note_on', channel=9, note=36, velocity=100, time=8),
    Message('note_off', channel=9, note=36, velocity=100, time=184),
    Message('note_on', channel=9, note=51, velocity=60, time=8),
    Message('note_on', channel=9, note=36, velocity=100, time=0),
    Message('note_off', channel=9, note=51, velocity=100, time=184),
    Message('note_off', channel=9, note=36, velocity=100, time=0),
    Message('note_on', channel=9, note=36, velocity=100, time=8),
    Message('note_off', channel=9, note=36, velocity=100, time=184),
    Message('note_on', channel=9, note=51, velocity=60, time=8),
    Message('note_on', channel=9, note=38, velocity=100, time=0),
    Message('note_off', channel=9, note=51, velocity=100, time=184),
    Message('note_off', channel=9, note=38, velocity=100, time=0),
    Message('note_on', channel=9, note=51, velocity=60, time=200),
    Message('note_on', channel=9, note=36, velocity=100, time=0),
    Message('note_off', channel=9, note=51, velocity=100, time=184),
    Message('note_off', channel=9, note=36, velocity=100, time=0),
    Message('note_on', channel=9, note=38, velocity=100, time=200),
    Message('note_on', channel=9, note=51, velocity=60, time=0),
    Message('note_off', channel=9, note=38, velocity=100, time=184),
    Message('note_off', channel=9, note=51, velocity=100, time=0),
    Message('note_on', channel=9, note=36, velocity=100, time=8),
    Message('note_off', channel=9, note=36, velocity=100, time=184),
    Message('note_on', channel=9, note=51, velocity=60, time=8),
    Message('note_on', channel=9, note=36, velocity=100, time=0),
    Message('note_off', channel=9, note=51, velocity=100, time=184),
    Message('note_off', channel=9, note=36, velocity=100, time=0),
    Message('note_on', channel=9, note=51, velocity=60, time=200),
    Message('note_on', channel=9, note=38, velocity=100, time=0),
    Message('note_off', channel=9, note=51, velocity=100, time=184),
    Message('note_off', channel=9, note=38, velocity=100, time=0),
    Message('note_on', channel=9, note=36, velocity=100, time=8),
    Message('note_off', channel=9, note=36, velocity=100, time=88),
    Message('note_on', channel=9, note=36, velocity=100, time=8),
    Message('note_off', channel=9, note=36, velocity=100, time=88),
    Message('note_on', channel=9, note=38, velocity=100, time=8),
    Message('note_off', channel=9, note=38, velocity=100, time=184),
    Message('note_on', channel=9, note=38, velocity=100, time=8),
    Message('note_off', channel=9, note=38, velocity=100, time=184),
    Message('note_on', channel=9, note=38, velocity=100, time=8),
    Message('note_off', channel=9, note=38, velocity=100, time=184),
    Message('note_on', channel=9, note=38, velocity=100, time=8),
    Message('note_off', channel=9, note=38, velocity=100, time=184),
    Message('note_on', channel=9, note=47, velocity=100, time=8),
    Message('note_off', channel=9, note=47, velocity=100, time=184),
    Message('note_on', channel=9, note=47, velocity=100, time=8),
    Message('note_off', channel=9, note=47, velocity=100, time=184),
    Message('note_on', channel=9, note=45, velocity=100, time=8),
    Message('note_off', channel=9, note=45, velocity=100, time=184),
    Message('note_on', channel=9, note=45, velocity=100, time=8),
    Message('note_off', channel=9, note=45, velocity=100, time=184),
    Message('note_on', channel=9, note=36, velocity=100, time=8),
    Message('note_on', channel=9, note=49, velocity=100, time=0),
    Message('note_off', channel=9, note=36, velocity=100, time=184),
    Message('note_on', channel=9, note=36, velocity=100, time=8),
    Message('note_off', channel=9, note=49, velocity=100, time=184),
    Message('note_off', channel=9, note=36, velocity=100, time=0),
    Message('note_on', channel=9, note=51, velocity=100, time=8),
    Message('note_on', channel=9, note=36, velocity=100, time=0),
    Message('note_on', channel=9, note=38, velocity=100, time=0),
    Message('note_off', channel=9, note=36, velocity=100, time=184),
    Message('note_on', channel=9, note=36, velocity=100, time=8),
    Message('note_off', channel=9, note=51, velocity=100, time=184),
    Message('note_off', channel=9, note=38, velocity=100, time=0),
    Message('note_off', channel=9, note=36, velocity=100, time=0),
    Message('note_on', channel=9, note=36, velocity=100, time=8),
    Message('note_on', channel=9, note=51, velocity=100, time=0),
    Message('note_off', channel=9, note=36, velocity=100, time=184),
    Message('note_on', channel=9, note=36, velocity=100, time=8),
    Message('note_off', channel=9, note=51, velocity=100, time=184),
    Message('note_off', channel=9, note=36, velocity=100, time=0),
    Message('note_on', channel=9, note=36, velocity=100, time=8),
    Message('note_on', channel=9, note=38, velocity=100, time=0),
    Message('note_on', channel=9, note=51, velocity=100, time=0),
    Message('note_off', channel=9, note=36, velocity=100, time=184),
    Message('note_on', channel=9, note=36, velocity=100, time=8),
    Message('note_off', channel=9, note=38, velocity=100, time=184),
    Message('note_off', channel=9, note=51, velocity=100, time=0),
    Message('note_off', channel=9, note=36, velocity=100, time=0),
    Message('note_on', channel=9, note=51, velocity=100, time=8),
    Message('note_on', channel=9, note=36, velocity=100, time=0),
    Message('note_off', channel=9, note=36, velocity=100, time=184),
    Message('note_on', channel=9, note=36, velocity=100, time=8),
    Message('note_off', channel=9, note=51, velocity=100, time=184),
    Message('note_off', channel=9, note=36, velocity=100, time=0),
    Message('note_on', channel=9, note=51, velocity=100, time=8),
    Message('note_on', channel=9, note=38, velocity=100, time=0),
    Message('note_on', channel=9, note=36, velocity=100, time=0),
    Message('note_off', channel=9, note=36, velocity=100, time=184),
    Message('note_on', channel=9, note=36, velocity=100, time=8),
    Message('note_off', channel=9, note=51, velocity=100, time=184),
    Message('note_off', channel=9, note=38, velocity=100, time=0),
    Message('note_off', channel=9, note=36, velocity=100, time=0),
    Message('note_on', channel=9, note=36, velocity=100, time=8),
    Message('note_on', channel=9, note=51, velocity=100, time=0),
    Message('note_off', channel=9, note=36, velocity=100, time=184),
    Message('note_on', channel=9, note=36, velocity=100, time=8),
    Message('note_off', channel=9, note=51, velocity=100, time=184),
    Message('note_off', channel=9, note=36, velocity=100, time=0),
    Message('note_on', channel=9, note=36, velocity=100, time=8),
    Message('note_on', channel=9, note=38, velocity=100, time=0),
    Message('note_on', channel=9, note=51, velocity=100, time=0),
    Message('note_off', channel=9, note=36, velocity=100, time=184),
    Message('note_on', channel=9, note=36, velocity=100, time=8),
    Message('note_off', channel=9, note=38, velocity=100, time=184),
    Message('note_off', channel=9, note=51, velocity=100, time=0),
    Message('note_off', channel=9, note=36, velocity=100, time=0),
    Message('note_on', channel=9, note=51, velocity=100, time=8),
    Message('note_on', channel=9, note=36, velocity=100, time=0),
    Message('note_off', channel=9, note=36, velocity=100, time=184),
    Message('note_on', channel=9, note=36, velocity=100, time=8),
    Message('note_off', channel=9, note=51, velocity=100, time=184),
    Message('note_off', channel=9, note=36, velocity=100, time=0),
    Message('note_on', channel=9, note=51, velocity=100, time=8),
    Message('note_on', channel=9, note=38, velocity=100, time=0),
    Message('note_on', channel=9, note=36, velocity=100, time=0),
    Message('note_off', channel=9, note=36, velocity=100, time=184),
    Message('note_on', channel=9, note=36, velocity=100, time=8),
    Message('note_off', channel=9, note=51, velocity=100, time=184),
    Message('note_off', channel=9, note=38, velocity=100, time=0),
    Message('note_off', channel=9, note=36, velocity=100, time=0),
    Message('note_on', channel=9, note=36, velocity=100, time=8),
    Message('note_on', channel=9, note=51, velocity=100, time=0),
    Message('note_off', channel=9, note=36, velocity=100, time=184),
    Message('note_on', channel=9, note=36, velocity=100, time=8),
    Message('note_off', channel=9, note=51, velocity=100, time=184),
    Message('note_off', channel=9, note=36, velocity=100, time=0),
    Message('note_on', channel=9, note=36, velocity=100, time=8),
    Message('note_on', channel=9, note=38, velocity=100, time=0),
    Message('note_on', channel=9, note=51, velocity=100, time=0),
    Message('note_off', channel=9, note=36, velocity=100, time=184),
    Message('note_on', channel=9, note=36, velocity=100, time=8),
    Message('note_off', channel=9, note=38, velocity=100, time=184),
    Message('note_off', channel=9, note=51, velocity=100, time=0),
    Message('note_off', channel=9, note=36, velocity=100, time=0),
    Message('note_on', channel=9, note=36, velocity=100, time=8),
    Message('note_on', channel=9, note=51, velocity=100, time=0),
    Message('note_off', channel=9, note=36, velocity=100, time=184),
    Message('note_on', channel=9, note=36, velocity=100, time=8),
    Message('note_off', channel=9, note=51, velocity=100, time=184),
    Message('note_off', channel=9, note=36, velocity=100, time=0),
    Message('note_on', channel=9, note=36, velocity=100, time=8),
    Message('note_on', channel=9, note=38, velocity=100, time=0),
    Message('note_on', channel=9, note=51, velocity=100, time=0),
    Message('note_off', channel=9, note=36, velocity=100, time=184),
    Message('note_on', channel=9, note=36, velocity=100, time=8),
    Message('note_off', channel=9, note=38, velocity=100, time=184),
    Message('note_off', channel=9, note=51, velocity=100, time=0),
    Message('note_off', channel=9, note=36, velocity=100, time=0),
    Message('note_on', channel=9, note=49, velocity=100, time=8),
    Message('note_on', channel=9, note=38, velocity=100, time=0),
    Message('note_off', channel=9, note=49, velocity=100, time=376),
    Message('note_off', channel=9, note=38, velocity=100, time=0),
    Message('note_on', channel=9, note=49, velocity=100, time=8),
    Message('note_on', channel=9, note=38, velocity=100, time=0),
    Message('note_off', channel=9, note=49, velocity=100, time=376),
    Message('note_off', channel=9, note=38, velocity=100, time=0),
    Message('note_on', channel=9, note=36, velocity=100, time=8),
    Message('note_on', channel=9, note=49, velocity=100, time=0),
    Message('note_off', channel=9, note=36, velocity=100, time=184),
    Message('note_on', channel=9, note=36, velocity=100, time=8),
    Message('note_off', channel=9, note=49, velocity=100, time=184),
    Message('note_off', channel=9, note=36, velocity=100, time=0),
    Message('note_on', channel=9, note=51, velocity=100, time=8),
    Message('note_on', channel=9, note=36, velocity=100, time=0),
    Message('note_on', channel=9, note=38, velocity=100, time=0),
    Message('note_off', channel=9, note=36, velocity=100, time=184),
    Message('note_on', channel=9, note=36, velocity=100, time=8),
    Message('note_off', channel=9, note=51, velocity=100, time=184),
    Message('note_off', channel=9, note=38, velocity=100, time=0),
    Message('note_off', channel=9, note=36, velocity=100, time=0),
    Message('note_on', channel=9, note=36, velocity=100, time=8),
    Message('note_on', channel=9, note=51, velocity=100, time=0),
    Message('note_off', channel=9, note=36, velocity=100, time=184),
    Message('note_on', channel=9, note=36, velocity=100, time=8),
    Message('note_off', channel=9, note=51, velocity=100, time=184),
    Message('note_off', channel=9, note=36, velocity=100, time=0),
    Message('note_on', channel=9, note=36, velocity=100, time=8),
    Message('note_on', channel=9, note=38, velocity=100, time=0),
    Message('note_on', channel=9, note=51, velocity=100, time=0),
    Message('note_off', channel=9, note=36, velocity=100, time=184),
    Message('note_on', channel=9, note=36, velocity=100, time=8),
    Message('note_off', channel=9, note=38, velocity=100, time=184),
    Message('note_off', channel=9, note=51, velocity=100, time=0),
    Message('note_off', channel=9, note=36, velocity=100, time=0),
    Message('note_on', channel=9, note=36, velocity=100, time=8),
    Message('note_on', channel=9, note=51, velocity=100, time=0),
    Message('note_off', channel=9, note=36, velocity=100, time=184),
    Message('note_on', channel=9, note=36, velocity=100, time=8),
    Message('note_off', channel=9, note=51, velocity=100, time=184),
    Message('note_off', channel=9, note=36, velocity=100, time=0),
    Message('note_on', channel=9, note=51, velocity=100, time=8),
    Message('note_on', channel=9, note=38, velocity=100, time=0),
    Message('note_on', channel=9, note=36, velocity=100, time=0),
    Message('note_off', channel=9, note=36, velocity=100, time=184),
    Message('note_on', channel=9, note=36, velocity=100, time=8),
    Message('note_off', channel=9, note=51, velocity=100, time=184),
    Message('note_off', channel=9, note=38, velocity=100, time=0),
    Message('note_off', channel=9, note=36, velocity=100, time=0),
    Message('note_on', channel=9, note=36, velocity=100, time=8),
    Message('note_on', channel=9, note=51, velocity=100, time=0),
    Message('note_off', channel=9, note=36, velocity=100, time=184),
    Message('note_on', channel=9, note=36, velocity=100, time=8),
    Message('note_off', channel=9, note=51, velocity=100, time=184),
    Message('note_off', channel=9, note=36, velocity=100, time=0),
    Message('note_on', channel=9, note=36, velocity=100, time=8),
    Message('note_on', channel=9, note=38, velocity=100, time=0),
    Message('note_on', channel=9, note=51, velocity=100, time=0),
    Message('note_off', channel=9, note=36, velocity=100, time=184),
    Message('note_on', channel=9, note=36, velocity=100, time=8),
    Message('note_off', channel=9, note=38, velocity=100, time=184),
    Message('note_off', channel=9, note=51, velocity=100, time=0),
    Message('note_off', channel=9, note=36, velocity=100, time=0),
    Message('note_on', channel=9, note=36, velocity=100, time=8),
    Message('note_on', channel=9, note=51, velocity=100, time=0),
    Message('note_off', channel=9, note=36, velocity=100, time=184),
    Message('note_on', channel=9, note=36, velocity=100, time=8),
    Message('note_off', channel=9, note=51, velocity=100, time=184),
    Message('note_off', channel=9, note=36, velocity=100, time=0),
    Message('note_on', channel=9, note=36, velocity=100, time=8),
    Message('note_on', channel=9, note=38, velocity=100, time=0),
    Message('note_on', channel=9, note=51, velocity=100, time=0),
    Message('note_off', channel=9, note=36, velocity=100, time=184),
    Message('note_on', channel=9, note=36, velocity=100, time=8),
    Message('note_off', channel=9, note=38, velocity=100, time=184),
    Message('note_off', channel=9, note=51, velocity=100, time=0),
    Message('note_off', channel=9, note=36, velocity=100, time=0),
    Message('note_on', channel=9, note=36, velocity=100, time=8),
    Message('note_on', channel=9, note=51, velocity=100, time=0),
    Message('note_off', channel=9, note=36, velocity=100, time=184),
    Message('note_on', channel=9, note=36, velocity=100, time=8),
    Message('note_off', channel=9, note=51, velocity=100, time=184),
    Message('note_off', channel=9, note=36, velocity=100, time=0),
    Message('note_on', channel=9, note=51, velocity=100, time=8),
    Message('note_on', channel=9, note=36, velocity=100, time=0),
    Message('note_on', channel=9, note=38, velocity=100, time=0),
    Message('note_off', channel=9, note=36, velocity=100, time=184),
    Message('note_on', channel=9, note=36, velocity=100, time=8),
    Message('note_off', channel=9, note=51, velocity=100, time=184),
    Message('note_off', channel=9, note=38, velocity=100, time=0),
    Message('note_off', channel=9, note=36, velocity=100, time=0),
    Message('note_on', channel=9, note=36, velocity=100, time=8),
    Message('note_on', channel=9, note=51, velocity=100, time=0),
    Message('note_off', channel=9, note=36, velocity=100, time=184),
    Message('note_on', channel=9, note=36, velocity=100, time=8),
    Message('note_off', channel=9, note=51, velocity=100, time=184),
    Message('note_off', channel=9, note=36, velocity=100, time=0),
    Message('note_on', channel=9, note=36, velocity=100, time=8),
    Message('note_on', channel=9, note=38, velocity=100, time=0),
    Message('note_on', channel=9, note=51, velocity=100, time=0),
    Message('note_off', channel=9, note=36, velocity=100, time=184),
    Message('note_on', channel=9, note=36, velocity=100, time=8),
    Message('note_off', channel=9, note=36, velocity=100, time=88),
    Message('note_on', channel=9, note=36, velocity=100, time=8),
    Message('note_off', channel=9, note=38, velocity=100, time=88),
    Message('note_off', channel=9, note=51, velocity=100, time=0),
    Message('note_off', channel=9, note=36, velocity=100, time=0),
    Message('note_on', channel=9, note=51, velocity=100, time=8),
    Message('note_on', channel=9, note=38, velocity=100, time=0),
    Message('note_off', channel=9, note=51, velocity=100, time=184),
    Message('note_off', channel=9, note=38, velocity=100, time=0),
    Message('note_on', channel=9, note=36, velocity=100, time=8),
    Message('note_on', channel=9, note=49, velocity=100, time=0),
    Message('note_off', channel=9, note=36, velocity=100, time=184),
    Message('note_off', channel=9, note=49, velocity=100, time=0),
    Message('note_on', channel=9, note=49, velocity=100, time=392),
    Message('note_on', channel=9, note=36, velocity=100, time=0),
    Message('note_off', channel=9, note=49, velocity=100, time=376),
    Message('note_off', channel=9, note=36, velocity=100, time=0),
    Message('note_on', channel=9, note=42, velocity=100, time=8),
    Message('note_on', channel=9, note=38, velocity=100, time=0),
    Message('note_on', channel=9, note=36, velocity=100, time=0),
    Message('note_off', channel=9, note=42, velocity=100, time=184),
    Message('note_off', channel=9, note=38, velocity=100, time=0),
    Message('note_off', channel=9, note=36, velocity=100, time=0),
    Message('note_on', channel=9, note=36, velocity=100, time=8),
    Message('note_off', channel=9, note=36, velocity=100, time=184),
    Message('note_on', channel=9, note=42, velocity=100, time=8),
    Message('note_on', channel=9, note=36, velocity=100, time=0),
    Message('note_off', channel=9, note=42, velocity=100, time=184),
    Message('note_off', channel=9, note=36, velocity=100, time=0),
    Message('note_on', channel=9, note=36, velocity=100, time=8),
    Message('note_off', channel=9, note=36, velocity=100, time=184),
    Message('note_on', channel=9, note=38, velocity=100, time=8),
    Message('note_on', channel=9, note=42, velocity=100, time=0),
    Message('note_on', channel=9, note=36, velocity=100, time=0),
    Message('note_off', channel=9, note=38, velocity=100, time=184),
    Message('note_off', channel=9, note=42, velocity=100, time=0),
    Message('note_off', channel=9, note=36, velocity=100, time=0),
    Message('note_on', channel=9, note=36, velocity=100, time=8),
    Message('note_off', channel=9, note=36, velocity=100, time=184),
    Message('note_on', channel=9, note=42, velocity=100, time=8),
    Message('note_on', channel=9, note=36, velocity=100, time=0),
    Message('note_off', channel=9, note=42, velocity=100, time=184),
    Message('note_off', channel=9, note=36, velocity=100, time=0),
    Message('note_on', channel=9, note=36, velocity=100, time=8),
    Message('note_off', channel=9, note=36, velocity=100, time=184),
    Message('note_on', channel=9, note=38, velocity=100, time=8),
    Message('note_on', channel=9, note=42, velocity=100, time=0),
    Message('note_on', channel=9, note=36, velocity=100, time=0),
    Message('note_off', channel=9, note=38, velocity=100, time=184),
    Message('note_off', channel=9, note=42, velocity=100, time=0),
    Message('note_off', channel=9, note=36, velocity=100, time=0),
    Message('note_on', channel=9, note=36, velocity=100, time=8),
    Message('note_off', channel=9, note=36, velocity=100, time=184),
    Message('note_on', channel=9, note=42, velocity=100, time=8),
    Message('note_on', channel=9, note=36, velocity=100, time=0),
    Message('note_off', channel=9, note=42, velocity=100, time=184),
    Message('note_off', channel=9, note=36, velocity=100, time=0),
    Message('note_on', channel=9, note=36, velocity=100, time=8),
    Message('note_off', channel=9, note=36, velocity=100, time=184),
    Message('note_on', channel=9, note=38, velocity=100, time=8),
    Message('note_on', channel=9, note=42, velocity=100, time=0),
    Message('note_on', channel=9, note=36, velocity=100, time=0),
    Message('note_off', channel=9, note=38, velocity=100, time=184),
    Message('note_off', channel=9, note=42, velocity=100, time=0),
    Message('note_off', channel=9, note=36, velocity=100, time=0),
    Message('note_on', channel=9, note=36, velocity=100, time=8),
    Message('note_off', channel=9, note=36, velocity=100, time=184),
    Message('note_on', channel=9, note=42, velocity=100, time=8),
    Message('note_on', channel=9, note=36, velocity=100, time=0),
    Message('note_off', channel=9, note=42, velocity=100, time=184),
    Message('note_off', channel=9, note=36, velocity=100, time=0),
    Message('note_on', channel=9, note=36, velocity=100, time=8),
    Message('note_off', channel=9, note=36, velocity=100, time=184),
    Message('note_on', channel=9, note=38, velocity=100, time=8),
    Message('note_on', channel=9, note=42, velocity=100, time=0),
    Message('note_on', channel=9, note=36, velocity=100, time=0),
    Message('note_off', channel=9, note=38, velocity=100, time=184),
    Message('note_off', channel=9, note=42, velocity=100, time=0),
    Message('note_off', channel=9, note=36, velocity=100, time=0),
    Message('note_on', channel=9, note=36, velocity=100, time=8),
    Message('note_off', channel=9, note=36, velocity=100, time=184),
    Message('note_on', channel=9, note=42, velocity=100, time=8),
    Message('note_on', channel=9, note=36, velocity=100, time=0),
    Message('note_off', channel=9, note=42, velocity=100, time=184),
    Message('note_off', channel=9, note=36, velocity=100, time=0),
    Message('note_on', channel=9, note=36, velocity=100, time=8),
    Message('note_off', channel=9, note=36, velocity=100, time=184),
    Message('note_on', channel=9, note=38, velocity=100, time=8),
    Message('note_on', channel=9, note=42, velocity=100, time=0),
    Message('note_on', channel=9, note=36, velocity=100, time=0),
    Message('note_off', channel=9, note=38, velocity=100, time=184),
    Message('note_off', channel=9, note=42, velocity=100, time=0),
    Message('note_off', channel=9, note=36, velocity=100, time=0),
    Message('note_on', channel=9, note=36, velocity=100, time=8),
    Message('note_off', channel=9, note=36, velocity=100, time=184),
    Message('note_on', channel=9, note=42, velocity=100, time=8),
    Message('note_on', channel=9, note=36, velocity=100, time=0),
    Message('note_off', channel=9, note=42, velocity=100, time=184),
    Message('note_off', channel=9, note=36, velocity=100, time=0),
    Message('note_on', channel=9, note=36, velocity=100, time=8),
    Message('note_off', channel=9, note=36, velocity=100, time=184),
    Message('note_on', channel=9, note=36, velocity=100, time=8),
    Message('note_on', channel=9, note=42, velocity=100, time=0),
    Message('note_on', channel=9, note=38, velocity=100, time=0),
    Message('note_off', channel=9, note=36, velocity=100, time=184),
    Message('note_off', channel=9, note=42, velocity=100, time=0),
    Message('note_off', channel=9, note=38, velocity=100, time=0),
    Message('note_on', channel=9, note=36, velocity=100, time=8),
    Message('note_off', channel=9, note=36, velocity=100, time=184),
    Message('note_on', channel=9, note=36, velocity=100, time=8),
    Message('note_on', channel=9, note=42, velocity=100, time=0),
    Message('note_off', channel=9, note=36, velocity=100, time=184),
    Message('note_off', channel=9, note=42, velocity=100, time=0),
    Message('note_on', channel=9, note=36, velocity=100, time=8),
    Message('note_off', channel=9, note=36, velocity=100, time=88),
    Message('note_on', channel=9, note=36, velocity=100, time=8),
    Message('note_off', channel=9, note=36, velocity=100, time=88),
    Message('note_on', channel=9, note=38, velocity=100, time=8),
    Message('note_on', channel=9, note=42, velocity=100, time=0),
    Message('note_on', channel=9, note=36, velocity=100, time=0),
    Message('note_off', channel=9, note=38, velocity=100, time=184),
    Message('note_off', channel=9, note=42, velocity=100, time=0),
    Message('note_off', channel=9, note=36, velocity=100, time=0),
    Message('note_on', channel=9, note=36, velocity=100, time=8),
    Message('note_off', channel=9, note=36, velocity=100, time=184),
    Message('note_on', channel=9, note=42, velocity=100, time=8),
    Message('note_on', channel=9, note=36, velocity=100, time=0),
    Message('note_off', channel=9, note=42, velocity=100, time=184),
    Message('note_off', channel=9, note=36, velocity=100, time=0),
    Message('note_on', channel=9, note=36, velocity=100, time=8),
    Message('note_off', channel=9, note=36, velocity=100, time=184),
    Message('note_on', channel=9, note=38, velocity=100, time=8),
    Message('note_on', channel=9, note=42, velocity=100, time=0),
    Message('note_on', channel=9, note=36, velocity=100, time=0),
    Message('note_off', channel=9, note=38, velocity=100, time=184),
    Message('note_off', channel=9, note=42, velocity=100, time=0),
    Message('note_off', channel=9, note=36, velocity=100, time=0),
    Message('note_on', channel=9, note=36, velocity=100, time=8),
    Message('note_off', channel=9, note=36, velocity=100, time=184),
    Message('note_on', channel=9, note=42, velocity=100, time=8),
    Message('note_on', channel=9, note=36, velocity=100, time=0),
    Message('note_off', channel=9, note=42, velocity=100, time=184),
    Message('note_off', channel=9, note=36, velocity=100, time=0),
    Message('note_on', channel=9, note=36, velocity=100, time=8),
    Message('note_off', channel=9, note=36, velocity=100, time=184),
    Message('note_on', channel=9, note=38, velocity=100, time=8),
    Message('note_on', channel=9, note=42, velocity=100, time=0),
    Message('note_on', channel=9, note=36, velocity=100, time=0),
    Message('note_off', channel=9, note=38, velocity=100, time=184),
    Message('note_off', channel=9, note=42, velocity=100, time=0),
    Message('note_off', channel=9, note=36, velocity=100, time=0),
    Message('note_on', channel=9, note=36, velocity=100, time=8),
    Message('note_off', channel=9, note=36, velocity=100, time=184),
    Message('note_on', channel=9, note=42, velocity=100, time=8),
    Message('note_on', channel=9, note=36, velocity=100, time=0),
    Message('note_off', channel=9, note=42, velocity=100, time=184),
    Message('note_off', channel=9, note=36, velocity=100, time=0),
    Message('note_on', channel=9, note=36, velocity=100, time=8),
    Message('note_off', channel=9, note=36, velocity=100, time=184),
    Message('note_on', channel=9, note=38, velocity=100, time=8),
    Message('note_on', channel=9, note=42, velocity=100, time=0),
    Message('note_on', channel=9, note=36, velocity=100, time=0),
    Message('note_off', channel=9, note=38, velocity=100, time=184),
    Message('note_off', channel=9, note=42, velocity=100, time=0),
    Message('note_off', channel=9, note=36, velocity=100, time=0),
    Message('note_on', channel=9, note=36, velocity=100, time=8),
    Message('note_off', channel=9, note=36, velocity=100, time=184),
    Message('note_on', channel=9, note=42, velocity=100, time=8),
    Message('note_on', channel=9, note=36, velocity=100, time=0),
    Message('note_off', channel=9, note=42, velocity=100, time=184),
    Message('note_off', channel=9, note=36, velocity=100, time=0),
    Message('note_on', channel=9, note=36, velocity=100, time=8),
    Message('note_off', channel=9, note=36, velocity=100, time=92),
    Message('note_on', channel=9, note=36, velocity=100, time=4),
    Message('note_off', channel=9, note=36, velocity=100, time=92),
    Message('note_on', channel=9, note=38, velocity=100, time=4),
    Message('note_on', channel=9, note=42, velocity=100, time=0),
    Message('note_off', channel=9, note=38, velocity=100, time=184),
    Message('note_off', channel=9, note=42, velocity=100, time=0),
    Message('note_on', channel=9, note=49, velocity=100, time=200),
    Message('note_on', channel=9, note=36, velocity=100, time=0),
    Message('note_off', channel=9, note=49, velocity=100, time=760),
    Message('note_off', channel=9, note=36, velocity=100, time=0),
    Message('note_on', channel=9, note=49, velocity=100, time=8),
    Message('note_on', channel=9, note=36, velocity=100, time=0),
    Message('note_off', channel=9, note=49, velocity=100, time=760),
    Message('note_off', channel=9, note=36, velocity=100, time=0),
    Message('note_on', channel=9, note=49, velocity=100, time=8),
    Message('note_on', channel=9, note=36, velocity=100, time=0),
    Message('note_off', channel=9, note=49, velocity=100, time=760),
    Message('note_off', channel=9, note=36, velocity=100, time=0),
    Message('note_on', channel=9, note=49, velocity=100, time=8),
    Message('note_on', channel=9, note=36, velocity=100, time=0),
    Message('note_off', channel=9, note=49, velocity=100, time=760),
    Message('note_off', channel=9, note=36, velocity=100, time=0),
    Message('note_on', channel=9, note=42, velocity=100, time=8),
    Message('note_on', channel=9, note=36, velocity=100, time=0),
    Message('note_off', channel=9, note=42, velocity=100, time=184),
    Message('note_off', channel=9, note=36, velocity=100, time=0),
    Message('note_on', channel=9, note=36, velocity=100, time=8),
    Message('note_off', channel=9, note=36, velocity=100, time=184),
    Message('note_on', channel=9, note=38, velocity=100, time=8),
    Message('note_on', channel=9, note=42, velocity=100, time=0),
    Message('note_on', channel=9, note=36, velocity=100, time=0),
    Message('note_off', channel=9, note=38, velocity=100, time=184),
    Message('note_off', channel=9, note=42, velocity=100, time=0),
    Message('note_off', channel=9, note=36, velocity=100, time=0),
    Message('note_on', channel=9, note=36, velocity=100, time=8),
    Message('note_off', channel=9, note=36, velocity=100, time=184),
    Message('note_on', channel=9, note=42, velocity=100, time=8),
    Message('note_on', channel=9, note=36, velocity=100, time=0),
    Message('note_off', channel=9, note=42, velocity=100, time=184),
    Message('note_off', channel=9, note=36, velocity=100, time=0),
    Message('note_on', channel=9, note=36, velocity=100, time=8),
    Message('note_off', channel=9, note=36, velocity=100, time=184),
    Message('note_on', channel=9, note=38, velocity=100, time=8),
    Message('note_on', channel=9, note=42, velocity=100, time=0),
    Message('note_on', channel=9, note=36, velocity=100, time=0),
    Message('note_off', channel=9, note=38, velocity=100, time=184),
    Message('note_off', channel=9, note=42, velocity=100, time=0),
    Message('note_off', channel=9, note=36, velocity=100, time=0),
    Message('note_on', channel=9, note=36, velocity=100, time=8),
    Message('note_off', channel=9, note=36, velocity=100, time=184),
    Message('note_on', channel=9, note=38, velocity=100, time=8),
    Message('note_off', channel=9, note=38, velocity=100, time=188),
    Message('note_on', channel=9, note=38, velocity=100, time=4),
    Message('note_off', channel=9, note=38, velocity=100, time=188),
    Message('note_on', channel=9, note=38, velocity=100, time=4),
    Message('note_off', channel=9, note=38, velocity=100, time=188),
    Message('note_on', channel=9, note=38, velocity=100, time=4),
    Message('note_off', channel=9, note=38, velocity=100, time=188),
    Message('note_on', channel=9, note=38, velocity=100, time=4),
    Message('note_off', channel=9, note=38, velocity=100, time=188),
    Message('note_on', channel=9, note=38, velocity=100, time=4),
    Message('note_off', channel=9, note=38, velocity=100, time=188),
    Message('note_on', channel=9, note=38, velocity=100, time=4),
    Message('note_off', channel=9, note=38, velocity=100, time=188),
    Message('note_on', channel=9, note=38, velocity=100, time=4),
    Message('note_off', channel=9, note=38, velocity=100, time=188),
    Message('note_on', channel=9, note=36, velocity=100, time=4),
    Message('note_on', channel=9, note=49, velocity=100, time=0),
    Message('note_off', channel=9, note=36, velocity=100, time=376),
    Message('note_off', channel=9, note=49, velocity=100, time=0),
    Message('note_on', channel=9, note=42, velocity=100, time=8),
    Message('note_on', channel=9, note=38, velocity=100, time=0),
    Message('note_off', channel=9, note=42, velocity=100, time=376),
    Message('note_off', channel=9, note=38, velocity=100, time=0),
    Message('note_on', channel=9, note=42, velocity=100, time=8),
    Message('note_on', channel=9, note=36, velocity=100, time=0),
    Message('note_off', channel=9, note=42, velocity=100, time=184),
    Message('note_off', channel=9, note=36, velocity=100, time=0),
    Message('note_on', channel=9, note=36, velocity=100, time=8),
    Message('note_off', channel=9, note=36, velocity=100, time=184),
    Message('note_on', channel=9, note=42, velocity=100, time=8),
    Message('note_on', channel=9, note=38, velocity=100, time=0),
    Message('note_off', channel=9, note=42, velocity=100, time=184),
    Message('note_off', channel=9, note=38, velocity=100, time=0),
    Message('note_on', channel=9, note=42, velocity=100, time=200),
    Message('note_on', channel=9, note=36, velocity=100, time=0),
    Message('note_off', channel=9, note=42, velocity=100, time=184),
    Message('note_off', channel=9, note=36, velocity=100, time=0),
    Message('note_on', channel=9, note=42, velocity=100, time=200),
    Message('note_on', channel=9, note=38, velocity=100, time=0),
    Message('note_off', channel=9, note=42, velocity=100, time=184),
    Message('note_off', channel=9, note=38, velocity=100, time=0),
    Message('note_on', channel=9, note=36, velocity=100, time=200),
    Message('note_on', channel=9, note=42, velocity=100, time=0),
    Message('note_off', channel=9, note=36, velocity=100, time=184),
    Message('note_off', channel=9, note=42, velocity=100, time=0),
    Message('note_on', channel=9, note=36, velocity=100, time=8),
    Message('note_off', channel=9, note=36, velocity=100, time=184),
    Message('note_on', channel=9, note=38, velocity=100, time=8),
    Message('note_on', channel=9, note=42, velocity=100, time=0),
    Message('note_off', channel=9, note=38, velocity=100, time=184),
    Message('note_off', channel=9, note=42, velocity=100, time=0),
    Message('note_on', channel=9, note=42, velocity=100, time=200),
    Message('note_on', channel=9, note=36, velocity=100, time=0),
    Message('note_off', channel=9, note=42, velocity=100, time=184),
    Message('note_off', channel=9, note=36, velocity=100, time=0),
    Message('note_on', channel=9, note=42, velocity=100, time=200),
    Message('note_on', channel=9, note=38, velocity=100, time=0),
    Message('note_off', channel=9, note=42, velocity=100, time=184),
    Message('note_off', channel=9, note=38, velocity=100, time=0),
    Message('note_on', channel=9, note=36, velocity=100, time=200),
    Message('note_on', channel=9, note=42, velocity=100, time=0),
    Message('note_off', channel=9, note=36, velocity=100, time=184),
    Message('note_off', channel=9, note=42, velocity=100, time=0),
    Message('note_on', channel=9, note=36, velocity=100, time=8),
    Message('note_off', channel=9, note=36, velocity=100, time=184),
    Message('note_on', channel=9, note=38, velocity=100, time=8),
    Message('note_on', channel=9, note=42, velocity=100, time=0),
    Message('note_off', channel=9, note=38, velocity=100, time=184),
    Message('note_off', channel=9, note=42, velocity=100, time=0),
    Message('note_on', channel=9, note=42, velocity=100, time=200),
    Message('note_on', channel=9, note=36, velocity=100, time=0),
    Message('note_off', channel=9, note=42, velocity=100, time=184),
    Message('note_off', channel=9, note=36, velocity=100, time=0),
    Message('note_on', channel=9, note=42, velocity=100, time=200),
    Message('note_on', channel=9, note=38, velocity=100, time=0),
    Message('note_off', channel=9, note=42, velocity=100, time=184),
    Message('note_off', channel=9, note=38, velocity=100, time=0),
    Message('note_on', channel=9, note=36, velocity=100, time=200),
    Message('note_on', channel=9, note=42, velocity=100, time=0),
    Message('note_off', channel=9, note=36, velocity=100, time=184),
    Message('note_off', channel=9, note=42, velocity=100, time=0),
    Message('note_on', channel=9, note=36, velocity=100, time=8),
    Message('note_off', channel=9, note=36, velocity=100, time=184),
    Message('note_on', channel=9, note=38, velocity=100, time=8),
    Message('note_on', channel=9, note=42, velocity=100, time=0),
    Message('note_off', channel=9, note=38, velocity=100, time=184),
    Message('note_off', channel=9, note=42, velocity=100, time=0),
    Message('note_on', channel=9, note=42, velocity=100, time=200),
    Message('note_on', channel=9, note=36, velocity=100, time=0),
    Message('note_off', channel=9, note=42, velocity=100, time=184),
    Message('note_off', channel=9, note=36, velocity=100, time=0),
    Message('note_on', channel=9, note=42, velocity=100, time=200),
    Message('note_on', channel=9, note=38, velocity=100, time=0),
    Message('note_off', channel=9, note=42, velocity=100, time=184),
    Message('note_off', channel=9, note=38, velocity=100, time=0),
    Message('note_on', channel=9, note=36, velocity=100, time=200),
    Message('note_on', channel=9, note=42, velocity=100, time=0),
    Message('note_off', channel=9, note=36, velocity=100, time=184),
    Message('note_off', channel=9, note=42, velocity=100, time=0),
    Message('note_on', channel=9, note=36, velocity=100, time=8),
    Message('note_off', channel=9, note=36, velocity=100, time=184),
    Message('note_on', channel=9, note=38, velocity=100, time=8),
    Message('note_on', channel=9, note=42, velocity=100, time=0),
    Message('note_off', channel=9, note=38, velocity=100, time=184),
    Message('note_off', channel=9, note=42, velocity=100, time=0),
    Message('note_on', channel=9, note=42, velocity=100, time=200),
    Message('note_on', channel=9, note=36, velocity=100, time=0),
    Message('note_off', channel=9, note=42, velocity=100, time=184),
    Message('note_off', channel=9, note=36, velocity=100, time=0),
    Message('note_on', channel=9, note=42, velocity=100, time=200),
    Message('note_on', channel=9, note=38, velocity=100, time=0),
    Message('note_off', channel=9, note=42, velocity=100, time=184),
    Message('note_off', channel=9, note=38, velocity=100, time=0),
    Message('note_on', channel=9, note=36, velocity=100, time=200),
    Message('note_on', channel=9, note=42, velocity=100, time=0),
    Message('note_off', channel=9, note=36, velocity=100, time=184),
    Message('note_off', channel=9, note=42, velocity=100, time=0),
    Message('note_on', channel=9, note=36, velocity=100, time=8),
    Message('note_off', channel=9, note=36, velocity=100, time=184),
    Message('note_on', channel=9, note=38, velocity=100, time=8),
    Message('note_on', channel=9, note=42, velocity=100, time=0),
    Message('note_off', channel=9, note=38, velocity=100, time=184),
    Message('note_off', channel=9, note=42, velocity=100, time=0),
    Message('note_on', channel=9, note=42, velocity=100, time=200),
    Message('note_on', channel=9, note=36, velocity=100, time=0),
    Message('note_off', channel=9, note=42, velocity=100, time=184),
    Message('note_off', channel=9, note=36, velocity=100, time=0),
    Message('note_on', channel=9, note=42, velocity=100, time=200),
    Message('note_on', channel=9, note=38, velocity=100, time=0),
    Message('note_off', channel=9, note=42, velocity=100, time=184),
    Message('note_off', channel=9, note=38, velocity=100, time=0),
    Message('note_on', channel=9, note=36, velocity=100, time=200),
    Message('note_on', channel=9, note=42, velocity=100, time=0),
    Message('note_off', channel=9, note=36, velocity=100, time=184),
    Message('note_off', channel=9, note=42, velocity=100, time=0),
    Message('note_on', channel=9, note=36, velocity=100, time=8),
    Message('note_off', channel=9, note=36, velocity=100, time=184),
    Message('note_on', channel=9, note=38, velocity=100, time=8),
    Message('note_on', channel=9, note=42, velocity=100, time=0),
    Message('note_off', channel=9, note=38, velocity=100, time=184),
    Message('note_off', channel=9, note=42, velocity=100, time=0),
    Message('note_on', channel=9, note=42, velocity=100, time=200),
    Message('note_on', channel=9, note=36, velocity=100, time=0),
    Message('note_off', channel=9, note=42, velocity=100, time=184),
    Message('note_off', channel=9, note=36, velocity=100, time=0),
    Message('note_on', channel=9, note=42, velocity=100, time=200),
    Message('note_on', channel=9, note=38, velocity=100, time=0),
    Message('note_off', channel=9, note=42, velocity=100, time=184),
    Message('note_off', channel=9, note=38, velocity=100, time=0),
    Message('note_on', channel=9, note=36, velocity=100, time=200),
    Message('note_on', channel=9, note=42, velocity=100, time=0),
    Message('note_off', channel=9, note=36, velocity=100, time=184),
    Message('note_off', channel=9, note=42, velocity=100, time=0),
    Message('note_on', channel=9, note=36, velocity=100, time=8),
    Message('note_off', channel=9, note=36, velocity=100, time=184),
    Message('note_on', channel=9, note=38, velocity=100, time=8),
    Message('note_on', channel=9, note=42, velocity=100, time=0),
    Message('note_off', channel=9, note=38, velocity=100, time=184),
    Message('note_off', channel=9, note=42, velocity=100, time=0),
    Message('note_on', channel=9, note=49, velocity=100, time=200),
    Message('note_on', channel=9, note=36, velocity=100, time=0),
    Message('note_off', channel=9, note=49, velocity=100, time=184),
    Message('note_off', channel=9, note=36, velocity=100, time=0),
    Message('note_on', channel=9, note=42, velocity=100, time=200),
    Message('note_on', channel=9, note=38, velocity=100, time=0),
    Message('note_off', channel=9, note=42, velocity=100, time=184),
    Message('note_off', channel=9, note=38, velocity=100, time=0),
    Message('note_on', channel=9, note=36, velocity=100, time=200),
    Message('note_on', channel=9, note=42, velocity=100, time=0),
    Message('note_off', channel=9, note=36, velocity=100, time=184),
    Message('note_off', channel=9, note=42, velocity=100, time=0),
    Message('note_on', channel=9, note=36, velocity=100, time=8),
    Message('note_off', channel=9, note=36, velocity=100, time=184),
    Message('note_on', channel=9, note=38, velocity=100, time=8),
    Message('note_on', channel=9, note=42, velocity=100, time=0),
    Message('note_off', channel=9, note=38, velocity=100, time=184),
    Message('note_off', channel=9, note=42, velocity=100, time=0),
    Message('note_on', channel=9, note=42, velocity=100, time=200),
    Message('note_on', channel=9, note=36, velocity=100, time=0),
    Message('note_off', channel=9, note=42, velocity=100, time=184),
    Message('note_off', channel=9, note=36, velocity=100, time=0),
    Message('note_on', channel=9, note=42, velocity=100, time=200),
    Message('note_on', channel=9, note=38, velocity=100, time=0),
    Message('note_off', channel=9, note=42, velocity=100, time=184),
    Message('note_off', channel=9, note=38, velocity=100, time=0),
    Message('note_on', channel=9, note=36, velocity=100, time=200),
    Message('note_on', channel=9, note=42, velocity=100, time=0),
    Message('note_off', channel=9, note=36, velocity=100, time=184),
    Message('note_off', channel=9, note=42, velocity=100, time=0),
    Message('note_on', channel=9, note=36, velocity=100, time=8),
    Message('note_off', channel=9, note=36, velocity=100, time=184),
    Message('note_on', channel=9, note=38, velocity=100, time=8),
    Message('note_on', channel=9, note=42, velocity=100, time=0),
    Message('note_off', channel=9, note=38, velocity=100, time=184),
    Message('note_off', channel=9, note=42, velocity=100, time=0),
    Message('note_on', channel=9, note=42, velocity=100, time=200),
    Message('note_on', channel=9, note=36, velocity=100, time=0),
    Message('note_off', channel=9, note=42, velocity=100, time=184),
    Message('note_off', channel=9, note=36, velocity=100, time=0),
    Message('note_on', channel=9, note=42, velocity=100, time=200),
    Message('note_on', channel=9, note=38, velocity=100, time=0),
    Message('note_off', channel=9, note=42, velocity=100, time=184),
    Message('note_off', channel=9, note=38, velocity=100, time=0),
    Message('note_on', channel=9, note=36, velocity=100, time=200),
    Message('note_on', channel=9, note=42, velocity=100, time=0),
    Message('note_off', channel=9, note=36, velocity=100, time=184),
    Message('note_off', channel=9, note=42, velocity=100, time=0),
    Message('note_on', channel=9, note=36, velocity=100, time=8),
    Message('note_off', channel=9, note=36, velocity=100, time=184),
    Message('note_on', channel=9, note=38, velocity=100, time=8),
    Message('note_on', channel=9, note=42, velocity=100, time=0),
    Message('note_off', channel=9, note=38, velocity=100, time=184),
    Message('note_off', channel=9, note=42, velocity=100, time=0),
    Message('note_on', channel=9, note=42, velocity=100, time=200),
    Message('note_on', channel=9, note=36, velocity=100, time=0),
    Message('note_off', channel=9, note=42, velocity=100, time=184),
    Message('note_off', channel=9, note=36, velocity=100, time=0),
    Message('note_on', channel=9, note=42, velocity=100, time=200),
    Message('note_on', channel=9, note=38, velocity=100, time=0),
    Message('note_off', channel=9, note=42, velocity=100, time=184),
    Message('note_off', channel=9, note=38, velocity=100, time=0),
    Message('note_on', channel=9, note=36, velocity=100, time=200),
    Message('note_on', channel=9, note=42, velocity=100, time=0),
    Message('note_off', channel=9, note=36, velocity=100, time=184),
    Message('note_off', channel=9, note=42, velocity=100, time=0),
    Message('note_on', channel=9, note=36, velocity=100, time=8),
    Message('note_off', channel=9, note=36, velocity=100, time=184),
    Message('note_on', channel=9, note=38, velocity=100, time=8),
    Message('note_on', channel=9, note=42, velocity=100, time=0),
    Message('note_off', channel=9, note=38, velocity=100, time=184),
    Message('note_off', channel=9, note=42, velocity=100, time=0),
    Message('note_on', channel=9, note=42, velocity=100, time=200),
    Message('note_on', channel=9, note=36, velocity=100, time=0),
    Message('note_off', channel=9, note=42, velocity=100, time=184),
    Message('note_off', channel=9, note=36, velocity=100, time=0),
    Message('note_on', channel=9, note=42, velocity=100, time=200),
    Message('note_on', channel=9, note=38, velocity=100, time=0),
    Message('note_off', channel=9, note=42, velocity=100, time=184),
    Message('note_off', channel=9, note=38, velocity=100, time=0),
    Message('note_on', channel=9, note=36, velocity=100, time=200),
    Message('note_on', channel=9, note=42, velocity=100, time=0),
    Message('note_off', channel=9, note=36, velocity=100, time=184),
    Message('note_off', channel=9, note=42, velocity=100, time=0),
    Message('note_on', channel=9, note=36, velocity=100, time=8),
    Message('note_off', channel=9, note=36, velocity=100, time=184),
    Message('note_on', channel=9, note=38, velocity=100, time=8),
    Message('note_on', channel=9, note=42, velocity=100, time=0),
    Message('note_off', channel=9, note=38, velocity=100, time=184),
    Message('note_off', channel=9, note=42, velocity=100, time=0),
    Message('note_on', channel=9, note=42, velocity=100, time=200),
    Message('note_on', channel=9, note=36, velocity=100, time=0),
    Message('note_off', channel=9, note=42, velocity=100, time=184),
    Message('note_off', channel=9, note=36, velocity=100, time=0),
    Message('note_on', channel=9, note=42, velocity=100, time=200),
    Message('note_on', channel=9, note=38, velocity=100, time=0),
    Message('note_off', channel=9, note=42, velocity=100, time=184),
    Message('note_off', channel=9, note=38, velocity=100, time=0),
    Message('note_on', channel=9, note=36, velocity=100, time=200),
    Message('note_on', channel=9, note=42, velocity=100, time=0),
    Message('note_off', channel=9, note=36, velocity=100, time=184),
    Message('note_off', channel=9, note=42, velocity=100, time=0),
    Message('note_on', channel=9, note=36, velocity=100, time=8),
    Message('note_off', channel=9, note=36, velocity=100, time=184),
    Message('note_on', channel=9, note=38, velocity=100, time=8),
    Message('note_on', channel=9, note=42, velocity=100, time=0),
    Message('note_off', channel=9, note=38, velocity=100, time=184),
    Message('note_off', channel=9, note=42, velocity=100, time=0),
    Message('note_on', channel=9, note=49, velocity=100, time=200),
    Message('note_on', channel=9, note=36, velocity=100, time=0),
    Message('note_off', channel=9, note=49, velocity=100, time=184),
    Message('note_off', channel=9, note=36, velocity=100, time=0),
    Message('note_on', channel=9, note=42, velocity=100, time=200),
    Message('note_on', channel=9, note=38, velocity=100, time=0),
    Message('note_off', channel=9, note=42, velocity=100, time=184),
    Message('note_off', channel=9, note=38, velocity=100, time=0),
    Message('note_on', channel=9, note=36, velocity=100, time=200),
    Message('note_on', channel=9, note=42, velocity=100, time=0),
    Message('note_off', channel=9, note=36, velocity=100, time=184),
    Message('note_off', channel=9, note=42, velocity=100, time=0),
    Message('note_on', channel=9, note=36, velocity=100, time=8),
    Message('note_off', channel=9, note=36, velocity=100, time=184),
    Message('note_on', channel=9, note=38, velocity=100, time=8),
    Message('note_on', channel=9, note=42, velocity=100, time=0),
    Message('note_off', channel=9, note=38, velocity=100, time=184),
    Message('note_off', channel=9, note=42, velocity=100, time=0),
    Message('note_on', channel=9, note=49, velocity=100, time=200),
    Message('note_on', channel=9, note=36, velocity=100, time=0),
    Message('note_off', channel=9, note=49, velocity=100, time=184),
    Message('note_off', channel=9, note=36, velocity=100, time=0),
    Message('note_on', channel=9, note=42, velocity=100, time=200),
    Message('note_on', channel=9, note=38, velocity=100, time=0),
    Message('note_off', channel=9, note=42, velocity=100, time=184),
    Message('note_off', channel=9, note=38, velocity=100, time=0),
    Message('note_on', channel=9, note=38, velocity=100, time=200),
    Message('note_off', channel=9, note=38, velocity=100, time=188),
    Message('note_on', channel=9, note=38, velocity=100, time=4),
    Message('note_off', channel=9, note=38, velocity=100, time=188),
    Message('note_on', channel=9, note=38, velocity=100, time=4),
    Message('note_off', channel=9, note=38, velocity=100, time=188),
    Message('note_on', channel=9, note=38, velocity=100, time=4),
    Message('note_off', channel=9, note=38, velocity=100, time=188),
    Message('note_on', channel=9, note=49, velocity=100, time=4),
    Message('note_on', channel=9, note=36, velocity=100, time=0),
    Message('note_off', channel=9, note=49, velocity=100, time=184),
    Message('note_off', channel=9, note=36, velocity=100, time=0),
    Message('note_on', channel=9, note=42, velocity=100, time=200),
    Message('note_on', channel=9, note=38, velocity=100, time=0),
    Message('note_off', channel=9, note=42, velocity=100, time=184),
    Message('note_off', channel=9, note=38, velocity=100, time=0),
    Message('note_on', channel=9, note=36, velocity=100, time=200),
    Message('note_on', channel=9, note=42, velocity=100, time=0),
    Message('note_off', channel=9, note=36, velocity=100, time=184),
    Message('note_off', channel=9, note=42, velocity=100, time=0),
    Message('note_on', channel=9, note=36, velocity=100, time=8),
    Message('note_off', channel=9, note=36, velocity=100, time=184),
    Message('note_on', channel=9, note=38, velocity=100, time=8),
    Message('note_on', channel=9, note=42, velocity=100, time=0),
    Message('note_off', channel=9, note=38, velocity=100, time=184),
    Message('note_off', channel=9, note=42, velocity=100, time=0),
    Message('note_on', channel=9, note=42, velocity=100, time=200),
    Message('note_on', channel=9, note=36, velocity=100, time=0),
    Message('note_off', channel=9, note=42, velocity=100, time=184),
    Message('note_off', channel=9, note=36, velocity=100, time=0),
    Message('note_on', channel=9, note=42, velocity=100, time=200),
    Message('note_on', channel=9, note=38, velocity=100, time=0),
    Message('note_off', channel=9, note=42, velocity=100, time=184),
    Message('note_off', channel=9, note=38, velocity=100, time=0),
    Message('note_on', channel=9, note=36, velocity=100, time=200),
    Message('note_on', channel=9, note=42, velocity=100, time=0),
    Message('note_off', channel=9, note=36, velocity=100, time=184),
    Message('note_off', channel=9, note=42, velocity=100, time=0),
    Message('note_on', channel=9, note=36, velocity=100, time=8),
    Message('note_off', channel=9, note=36, velocity=100, time=184),
    Message('note_on', channel=9, note=38, velocity=100, time=8),
    Message('note_on', channel=9, note=42, velocity=100, time=0),
    Message('note_off', channel=9, note=38, velocity=100, time=184),
    Message('note_off', channel=9, note=42, velocity=100, time=0),
    Message('note_on', channel=9, note=36, velocity=100, time=8),
    Message('note_off', channel=9, note=36, velocity=100, time=92),
    Message('note_on', channel=9, note=36, velocity=100, time=4),
    Message('note_off', channel=9, note=36, velocity=100, time=92),
    Message('note_on', channel=9, note=49, velocity=100, time=4),
    Message('note_on', channel=9, note=36, velocity=100, time=0),
    Message('note_off', channel=9, note=49, velocity=100, time=184),
    Message('note_off', channel=9, note=36, velocity=100, time=0),
    Message('note_on', channel=9, note=42, velocity=100, time=200),
    Message('note_on', channel=9, note=38, velocity=100, time=0),
    Message('note_off', channel=9, note=42, velocity=100, time=184),
    Message('note_off', channel=9, note=38, velocity=100, time=0),
    Message('note_on', channel=9, note=36, velocity=100, time=200),
    Message('note_on', channel=9, note=42, velocity=100, time=0),
    Message('note_off', channel=9, note=36, velocity=100, time=184),
    Message('note_off', channel=9, note=42, velocity=100, time=0),
    Message('note_on', channel=9, note=36, velocity=100, time=8),
    Message('note_off', channel=9, note=36, velocity=100, time=184),
    Message('note_on', channel=9, note=38, velocity=100, time=8),
    Message('note_on', channel=9, note=42, velocity=100, time=0),
    Message('note_off', channel=9, note=38, velocity=100, time=184),
    Message('note_off', channel=9, note=42, velocity=100, time=0),
    Message('note_on', channel=9, note=42, velocity=100, time=200),
    Message('note_on', channel=9, note=36, velocity=100, time=0),
    Message('note_off', channel=9, note=42, velocity=100, time=184),
    Message('note_off', channel=9, note=36, velocity=100, time=0),
    Message('note_on', channel=9, note=42, velocity=100, time=200),
    Message('note_on', channel=9, note=38, velocity=100, time=0),
    Message('note_off', channel=9, note=42, velocity=100, time=184),
    Message('note_off', channel=9, note=38, velocity=100, time=0),
    Message('note_on', channel=9, note=36, velocity=100, time=200),
    Message('note_on', channel=9, note=42, velocity=100, time=0),
    Message('note_off', channel=9, note=36, velocity=100, time=184),
    Message('note_off', channel=9, note=42, velocity=100, time=0),
    Message('note_on', channel=9, note=36, velocity=100, time=8),
    Message('note_off', channel=9, note=36, velocity=100, time=184),
    Message('note_on', channel=9, note=38, velocity=100, time=8),
    Message('note_on', channel=9, note=42, velocity=100, time=0),
    Message('note_off', channel=9, note=38, velocity=100, time=184),
    Message('note_off', channel=9, note=42, velocity=100, time=0),
    Message('note_on', channel=9, note=36, velocity=100, time=8),
    Message('note_off', channel=9, note=36, velocity=100, time=92),
    Message('note_on', channel=9, note=36, velocity=100, time=4),
    Message('note_off', channel=9, note=36, velocity=100, time=92),
    Message('note_on', channel=9, note=49, velocity=100, time=4),
    Message('note_on', channel=9, note=36, velocity=100, time=0),
    Message('note_off', channel=9, note=49, velocity=100, time=184),
    Message('note_off', channel=9, note=36, velocity=100, time=0),
    Message('note_on', channel=9, note=42, velocity=100, time=200),
    Message('note_on', channel=9, note=38, velocity=100, time=0),
    Message('note_off', channel=9, note=42, velocity=100, time=184),
    Message('note_off', channel=9, note=38, velocity=100, time=0),
    Message('note_on', channel=9, note=36, velocity=100, time=200),
    Message('note_on', channel=9, note=42, velocity=100, time=0),
    Message('note_off', channel=9, note=36, velocity=100, time=184),
    Message('note_off', channel=9, note=42, velocity=100, time=0),
    Message('note_on', channel=9, note=36, velocity=100, time=8),
    Message('note_off', channel=9, note=36, velocity=100, time=184),
    Message('note_on', channel=9, note=38, velocity=100, time=8),
    Message('note_on', channel=9, note=42, velocity=100, time=0),
    Message('note_off', channel=9, note=38, velocity=100, time=184),
    Message('note_off', channel=9, note=42, velocity=100, time=0),
    Message('note_on', channel=9, note=42, velocity=100, time=200),
    Message('note_on', channel=9, note=36, velocity=100, time=0),
    Message('note_off', channel=9, note=42, velocity=100, time=184),
    Message('note_off', channel=9, note=36, velocity=100, time=0),
    Message('note_on', channel=9, note=42, velocity=100, time=200),
    Message('note_on', channel=9, note=38, velocity=100, time=0),
    Message('note_off', channel=9, note=42, velocity=100, time=184),
    Message('note_off', channel=9, note=38, velocity=100, time=0),
    Message('note_on', channel=9, note=36, velocity=100, time=200),
    Message('note_on', channel=9, note=42, velocity=100, time=0),
    Message('note_off', channel=9, note=36, velocity=100, time=184),
    Message('note_off', channel=9, note=42, velocity=100, time=0),
    Message('note_on', channel=9, note=36, velocity=100, time=8),
    Message('note_off', channel=9, note=36, velocity=100, time=184),
    Message('note_on', channel=9, note=38, velocity=100, time=8),
    Message('note_on', channel=9, note=42, velocity=100, time=0),
    Message('note_off', channel=9, note=38, velocity=100, time=184),
    Message('note_off', channel=9, note=42, velocity=100, time=0),
    Message('note_on', channel=9, note=36, velocity=100, time=8),
    Message('note_off', channel=9, note=36, velocity=100, time=92),
    Message('note_on', channel=9, note=36, velocity=100, time=4),
    Message('note_off', channel=9, note=36, velocity=100, time=92),
    Message('note_on', channel=9, note=49, velocity=100, time=4),
    Message('note_on', channel=9, note=36, velocity=100, time=0),
    Message('note_off', channel=9, note=49, velocity=100, time=184),
    Message('note_off', channel=9, note=36, velocity=100, time=0),
    Message('note_on', channel=9, note=42, velocity=100, time=200),
    Message('note_on', channel=9, note=38, velocity=100, time=0),
    Message('note_off', channel=9, note=42, velocity=100, time=184),
    Message('note_off', channel=9, note=38, velocity=100, time=0),
    Message('note_on', channel=9, note=36, velocity=100, time=200),
    Message('note_on', channel=9, note=42, velocity=100, time=0),
    Message('note_off', channel=9, note=36, velocity=100, time=184),
    Message('note_off', channel=9, note=42, velocity=100, time=0),
    Message('note_on', channel=9, note=36, velocity=100, time=8),
    Message('note_off', channel=9, note=36, velocity=100, time=184),
    Message('note_on', channel=9, note=38, velocity=100, time=8),
    Message('note_on', channel=9, note=42, velocity=100, time=0),
    Message('note_off', channel=9, note=38, velocity=100, time=184),
    Message('note_off', channel=9, note=42, velocity=100, time=0),
    Message('note_on', channel=9, note=36, velocity=100, time=8),
    Message('note_off', channel=9, note=36, velocity=100, time=92),
    Message('note_on', channel=9, note=36, velocity=100, time=4),
    Message('note_off', channel=9, note=36, velocity=100, time=92),
    Message('note_on', channel=9, note=49, velocity=100, time=4),
    Message('note_on', channel=9, note=36, velocity=100, time=0),
    Message('note_off', channel=9, note=49, velocity=100, time=184),
    Message('note_off', channel=9, note=36, velocity=100, time=0),
    Message('note_on', channel=9, note=42, velocity=100, time=200),
    Message('note_on', channel=9, note=38, velocity=100, time=0),
    Message('note_off', channel=9, note=42, velocity=100, time=184),
    Message('note_off', channel=9, note=38, velocity=100, time=0),
    Message('note_on', channel=9, note=36, velocity=100, time=200),
    Message('note_on', channel=9, note=42, velocity=100, time=0),
    Message('note_off', channel=9, note=36, velocity=100, time=184),
    Message('note_off', channel=9, note=42, velocity=100, time=0),
    Message('note_on', channel=9, note=36, velocity=100, time=8),
    Message('note_off', channel=9, note=36, velocity=100, time=184),
    Message('note_on', channel=9, note=38, velocity=100, time=8),
    Message('note_on', channel=9, note=42, velocity=100, time=0),
    Message('note_off', channel=9, note=38, velocity=100, time=184),
    Message('note_off', channel=9, note=42, velocity=100, time=0),
    Message('note_on', channel=9, note=36, velocity=100, time=8),
    Message('note_off', channel=9, note=36, velocity=100, time=92),
    Message('note_on', channel=9, note=36, velocity=100, time=4),
    Message('note_off', channel=9, note=36, velocity=100, time=92),
    Message('note_on', channel=9, note=49, velocity=100, time=4),
    Message('note_on', channel=9, note=36, velocity=100, time=0),
    Message('note_off', channel=9, note=49, velocity=100, time=184),
    Message('note_off', channel=9, note=36, velocity=100, time=0),
    Message('note_on', channel=9, note=42, velocity=100, time=200),
    Message('note_on', channel=9, note=38, velocity=100, time=0),
    Message('note_off', channel=9, note=42, velocity=100, time=184),
    Message('note_off', channel=9, note=38, velocity=100, time=0),
    Message('note_on', channel=9, note=36, velocity=100, time=200),
    Message('note_on', channel=9, note=42, velocity=100, time=0),
    Message('note_off', channel=9, note=36, velocity=100, time=184),
    Message('note_off', channel=9, note=42, velocity=100, time=0),
    Message('note_on', channel=9, note=36, velocity=100, time=8),
    Message('note_off', channel=9, note=36, velocity=100, time=184),
    Message('note_on', channel=9, note=38, velocity=100, time=8),
    Message('note_on', channel=9, note=42, velocity=100, time=0),
    Message('note_off', channel=9, note=38, velocity=100, time=184),
    Message('note_off', channel=9, note=42, velocity=100, time=0),
    Message('note_on', channel=9, note=42, velocity=100, time=200),
    Message('note_on', channel=9, note=36, velocity=100, time=0),
    Message('note_off', channel=9, note=42, velocity=100, time=184),
    Message('note_off', channel=9, note=36, velocity=100, time=0),
    Message('note_on', channel=9, note=36, velocity=100, time=8),
    Message('note_off', channel=9, note=36, velocity=100, time=188),
    Message('note_on', channel=9, note=42, velocity=100, time=4),
    Message('note_on', channel=9, note=38, velocity=100, time=0),
    Message('note_off', channel=9, note=42, velocity=100, time=184),
    Message('note_off', channel=9, note=38, velocity=100, time=0),
    Message('note_on', channel=9, note=36, velocity=100, time=200),
    Message('note_on', channel=9, note=42, velocity=100, time=0),
    Message('note_off', channel=9, note=36, velocity=100, time=184),
    Message('note_off', channel=9, note=42, velocity=100, time=0),
    Message('note_on', channel=9, note=36, velocity=100, time=8),
    Message('note_off', channel=9, note=36, velocity=100, time=184),
    Message('note_on', channel=9, note=38, velocity=100, time=8),
    Message('note_on', channel=9, note=42, velocity=100, time=0),
    Message('note_off', channel=9, note=38, velocity=100, time=184),
    Message('note_off', channel=9, note=42, velocity=100, time=0),
    Message('note_on', channel=9, note=36, velocity=100, time=8),
    Message('note_off', channel=9, note=36, velocity=100, time=92),
    Message('note_on', channel=9, note=36, velocity=100, time=4),
    Message('note_off', channel=9, note=36, velocity=100, time=92),
    Message('note_on', channel=9, note=49, velocity=100, time=4),
    Message('note_on', channel=9, note=36, velocity=100, time=0),
    Message('note_off', channel=9, note=49, velocity=100, time=184),
    Message('note_off', channel=9, note=36, velocity=100, time=0),
    Message('note_on', channel=9, note=42, velocity=100, time=200),
    Message('note_on', channel=9, note=38, velocity=100, time=0),
    Message('note_off', channel=9, note=42, velocity=100, time=184),
    Message('note_off', channel=9, note=38, velocity=100, time=0),
    Message('note_on', channel=9, note=36, velocity=100, time=200),
    Message('note_on', channel=9, note=42, velocity=100, time=0),
    Message('note_off', channel=9, note=36, velocity=100, time=184),
    Message('note_off', channel=9, note=42, velocity=100, time=0),
    Message('note_on', channel=9, note=36, velocity=100, time=8),
    Message('note_off', channel=9, note=36, velocity=100, time=184),
    Message('note_on', channel=9, note=38, velocity=100, time=8),
    Message('note_on', channel=9, note=42, velocity=100, time=0),
    Message('note_off', channel=9, note=38, velocity=100, time=184),
    Message('note_off', channel=9, note=42, velocity=100, time=0),
    Message('note_on', channel=9, note=42, velocity=100, time=200),
    Message('note_on', channel=9, note=36, velocity=100, time=0),
    Message('note_off', channel=9, note=42, velocity=100, time=184),
    Message('note_off', channel=9, note=36, velocity=100, time=0),
    Message('note_on', channel=9, note=36, velocity=100, time=8),
    Message('note_off', channel=9, note=36, velocity=100, time=188),
    Message('note_on', channel=9, note=42, velocity=100, time=4),
    Message('note_on', channel=9, note=38, velocity=100, time=0),
    Message('note_off', channel=9, note=42, velocity=100, time=184),
    Message('note_off', channel=9, note=38, velocity=100, time=0),
    Message('note_on', channel=9, note=36, velocity=100, time=200),
    Message('note_on', channel=9, note=42, velocity=100, time=0),
    Message('note_off', channel=9, note=36, velocity=100, time=184),
    Message('note_off', channel=9, note=42, velocity=100, time=0),
    Message('note_on', channel=9, note=36, velocity=100, time=8),
    Message('note_off', channel=9, note=36, velocity=100, time=184),
    Message('note_on', channel=9, note=38, velocity=100, time=8),
    Message('note_on', channel=9, note=42, velocity=100, time=0),
    Message('note_off', channel=9, note=38, velocity=100, time=184),
    Message('note_off', channel=9, note=42, velocity=100, time=0),
    Message('note_on', channel=9, note=36, velocity=100, time=8),
    Message('note_off', channel=9, note=36, velocity=100, time=92),
    Message('note_on', channel=9, note=36, velocity=100, time=4),
    Message('note_off', channel=9, note=36, velocity=100, time=92),
    Message('note_on', channel=9, note=49, velocity=100, time=4),
    Message('note_on', channel=9, note=36, velocity=100, time=0),
    Message('note_off', channel=9, note=49, velocity=100, time=184),
    Message('note_off', channel=9, note=36, velocity=100, time=0),
    Message('note_on', channel=9, note=42, velocity=100, time=200),
    Message('note_on', channel=9, note=38, velocity=100, time=0),
    Message('note_off', channel=9, note=42, velocity=100, time=184),
    Message('note_off', channel=9, note=38, velocity=100, time=0),
    Message('note_on', channel=9, note=36, velocity=100, time=200),
    Message('note_on', channel=9, note=42, velocity=100, time=0),
    Message('note_off', channel=9, note=36, velocity=100, time=184),
    Message('note_off', channel=9, note=42, velocity=100, time=0),
    Message('note_on', channel=9, note=36, velocity=100, time=8),
    Message('note_off', channel=9, note=36, velocity=100, time=184),
    Message('note_on', channel=9, note=38, velocity=100, time=8),
    Message('note_on', channel=9, note=42, velocity=100, time=0),
    Message('note_off', channel=9, note=38, velocity=100, time=184),
    Message('note_off', channel=9, note=42, velocity=100, time=0),
    Message('note_on', channel=9, note=42, velocity=100, time=200),
    Message('note_on', channel=9, note=36, velocity=100, time=0),
    Message('note_off', channel=9, note=42, velocity=100, time=184),
    Message('note_off', channel=9, note=36, velocity=100, time=0),
    Message('note_on', channel=9, note=36, velocity=100, time=8),
    Message('note_off', channel=9, note=36, velocity=100, time=188),
    Message('note_on', channel=9, note=42, velocity=100, time=4),
    Message('note_on', channel=9, note=38, velocity=100, time=0),
    Message('note_off', channel=9, note=42, velocity=100, time=184),
    Message('note_off', channel=9, note=38, velocity=100, time=0),
    Message('note_on', channel=9, note=36, velocity=100, time=200),
    Message('note_on', channel=9, note=42, velocity=100, time=0),
    Message('note_off', channel=9, note=36, velocity=100, time=184),
    Message('note_off', channel=9, note=42, velocity=100, time=0),
    Message('note_on', channel=9, note=36, velocity=100, time=8),
    Message('note_off', channel=9, note=36, velocity=100, time=184),
    Message('note_on', channel=9, note=38, velocity=100, time=8),
    Message('note_on', channel=9, note=42, velocity=100, time=0),
    Message('note_off', channel=9, note=38, velocity=100, time=184),
    Message('note_off', channel=9, note=42, velocity=100, time=0),
    Message('note_on', channel=9, note=36, velocity=100, time=8),
    Message('note_off', channel=9, note=36, velocity=100, time=92),
    Message('note_on', channel=9, note=36, velocity=100, time=4),
    Message('note_off', channel=9, note=36, velocity=100, time=92),
    Message('note_on', channel=9, note=49, velocity=100, time=4),
    Message('note_on', channel=9, note=36, velocity=100, time=0),
    Message('note_off', channel=9, note=49, velocity=100, time=184),
    Message('note_off', channel=9, note=36, velocity=100, time=0),
    Message('note_on', channel=9, note=42, velocity=100, time=200),
    Message('note_on', channel=9, note=38, velocity=100, time=0),
    Message('note_off', channel=9, note=42, velocity=100, time=184),
    Message('note_off', channel=9, note=38, velocity=100, time=0),
    Message('note_on', channel=9, note=36, velocity=100, time=200),
    Message('note_on', channel=9, note=42, velocity=100, time=0),
    Message('note_off', channel=9, note=36, velocity=100, time=184),
    Message('note_off', channel=9, note=42, velocity=100, time=0),
    Message('note_on', channel=9, note=36, velocity=100, time=8),
    Message('note_off', channel=9, note=36, velocity=100, time=184),
    Message('note_on', channel=9, note=38, velocity=100, time=8),
    Message('note_on', channel=9, note=42, velocity=100, time=0),
    Message('note_off', channel=9, note=38, velocity=100, time=184),
    Message('note_off', channel=9, note=42, velocity=100, time=0),
    Message('note_on', channel=9, note=42, velocity=100, time=200),
    Message('note_on', channel=9, note=36, velocity=100, time=0),
    Message('note_off', channel=9, note=42, velocity=100, time=188),
    Message('note_off', channel=9, note=36, velocity=100, time=0),
    Message('note_on', channel=9, note=36, velocity=100, time=4),
    Message('note_off', channel=9, note=36, velocity=100, time=188),
    Message('note_on', channel=9, note=42, velocity=100, time=4),
    Message('note_on', channel=9, note=38, velocity=100, time=0),
    Message('note_off', channel=9, note=42, velocity=100, time=188),
    Message('note_off', channel=9, note=38, velocity=100, time=0),
    Message('note_on', channel=9, note=36, velocity=100, time=196),
    Message('note_off', channel=9, note=36, velocity=100, time=92),
    Message('note_on', channel=9, note=36, velocity=100, time=4),
    Message('note_off', channel=9, note=36, velocity=100, time=92),
    Message('note_on', channel=9, note=36, velocity=100, time=4),
    Message('note_off', channel=9, note=36, velocity=100, time=92),
    Message('note_on', channel=9, note=36, velocity=100, time=4),
    Message('note_off', channel=9, note=36, velocity=100, time=92),
    Message('note_on', channel=9, note=38, velocity=100, time=4),
    Message('note_off', channel=9, note=38, velocity=100, time=92),
    Message('note_on', channel=9, note=38, velocity=100, time=4),
    Message('note_off', channel=9, note=38, velocity=100, time=92),
    Message('note_on', channel=9, note=38, velocity=100, time=4),
    Message('note_off', channel=9, note=38, velocity=100, time=92),
    Message('note_on', channel=9, note=38, velocity=100, time=4),
    Message('note_off', channel=9, note=38, velocity=100, time=92),
    Message('note_on', channel=9, note=49, velocity=100, time=4),
    Message('note_on', channel=9, note=36, velocity=100, time=0),
    Message('note_off', channel=9, note=49, velocity=100, time=380),
    Message('note_off', channel=9, note=36, velocity=100, time=0),
    Message('note_on', channel=9, note=42, velocity=100, time=5764),
    Message('note_off', channel=9, note=42, velocity=100, time=764),
    Message('note_on', channel=9, note=42, velocity=100, time=4),
    Message('note_off', channel=9, note=42, velocity=100, time=764),
    Message('note_on', channel=9, note=42, velocity=100, time=4),
    Message('note_off', channel=9, note=42, velocity=100, time=764),
    Message('note_on', channel=9, note=42, velocity=100, time=4),
    Message('note_off', channel=9, note=42, velocity=100, time=764),
    Message('note_on', channel=9, note=42, velocity=100, time=4),
    Message('note_off', channel=9, note=42, velocity=100, time=764),
    Message('note_on', channel=9, note=42, velocity=100, time=4),
    Message('note_off', channel=9, note=42, velocity=100, time=764),
    Message('note_on', channel=9, note=38, velocity=100, time=4),
    Message('note_off', channel=9, note=38, velocity=100, time=124),
    Message('note_on', channel=9, note=47, velocity=100, time=4),
    Message('note_off', channel=9, note=47, velocity=100, time=124),
    Message('note_on', channel=9, note=48, velocity=100, time=4),
    Message('note_off', channel=9, note=48, velocity=100, time=124),
    Message('note_on', channel=9, note=45, velocity=100, time=4),
    Message('note_off', channel=9, note=45, velocity=100, time=124),
    Message('note_on', channel=9, note=45, velocity=100, time=4),
    Message('note_off', channel=9, note=45, velocity=100, time=124),
    Message('note_on', channel=9, note=47, velocity=100, time=4),
    Message('note_off', channel=9, note=47, velocity=100, time=124),
    Message('note_on', channel=9, note=48, velocity=100, time=4),
    Message('note_off', channel=9, note=48, velocity=100, time=124),
    Message('note_on', channel=9, note=47, velocity=100, time=4),
    Message('note_off', channel=9, note=47, velocity=100, time=124),
    Message('note_on', channel=9, note=47, velocity=100, time=4),
    Message('note_off', channel=9, note=47, velocity=100, time=124),
    Message('note_on', channel=9, note=45, velocity=100, time=4),
    Message('note_off', channel=9, note=45, velocity=100, time=124),
    Message('note_on', channel=9, note=45, velocity=100, time=4),
    Message('note_off', channel=9, note=45, velocity=100, time=124),
    Message('note_on', channel=9, note=43, velocity=100, time=4),
    Message('note_off', channel=9, note=43, velocity=100, time=124),
    Message('note_on', channel=9, note=49, velocity=100, time=4),
    Message('note_on', channel=9, note=36, velocity=100, time=0),
    Message('note_off', channel=9, note=49, velocity=100, time=188),
    Message('note_off', channel=9, note=36, velocity=100, time=0),
    Message('note_on', channel=9, note=36, velocity=100, time=196),
    Message('note_off', channel=9, note=36, velocity=100, time=188),
    Message('note_on', channel=9, note=36, velocity=100, time=4),
    Message('note_off', channel=9, note=36, velocity=100, time=188),
    Message('note_on', channel=9, note=38, velocity=100, time=4),
    Message('note_off', channel=9, note=38, velocity=100, time=188),
    Message('note_on', channel=9, note=36, velocity=100, time=196),
    Message('note_off', channel=9, note=36, velocity=100, time=188),
    Message('note_on', channel=9, note=36, velocity=100, time=4),
    Message('note_off', channel=9, note=36, velocity=100, time=188),
    Message('note_on', channel=9, note=36, velocity=100, time=4),
    Message('note_off', channel=9, note=36, velocity=100, time=188),
    Message('note_on', channel=9, note=36, velocity=100, time=196),
    Message('note_off', channel=9, note=36, velocity=100, time=188),
    Message('note_on', channel=9, note=36, velocity=100, time=4),
    Message('note_off', channel=9, note=36, velocity=100, time=188),
    Message('note_on', channel=9, note=38, velocity=100, time=4),
    Message('note_off', channel=9, note=38, velocity=100, time=188),
    Message('note_on', channel=9, note=38, velocity=100, time=4),
    Message('note_off', channel=9, note=38, velocity=100, time=188),
    Message('note_on', channel=9, note=36, velocity=100, time=4),
    Message('note_off', channel=9, note=36, velocity=100, time=188),
    Message('note_on', channel=9, note=36, velocity=100, time=4),
    Message('note_off', channel=9, note=36, velocity=100, time=188),
    Message('note_on', channel=9, note=49, velocity=100, time=4),
    Message('note_on', channel=9, note=36, velocity=100, time=0),
    Message('note_off', channel=9, note=49, velocity=100, time=188),
    Message('note_off', channel=9, note=36, velocity=100, time=0),
    Message('note_on', channel=9, note=36, velocity=100, time=196),
    Message('note_off', channel=9, note=36, velocity=100, time=188),
    Message('note_on', channel=9, note=36, velocity=100, time=4),
    Message('note_off', channel=9, note=36, velocity=100, time=188),
    Message('note_on', channel=9, note=38, velocity=100, time=4),
    Message('note_off', channel=9, note=38, velocity=100, time=188),
    Message('note_on', channel=9, note=36, velocity=100, time=196),
    Message('note_off', channel=9, note=36, velocity=100, time=188),
    Message('note_on', channel=9, note=36, velocity=100, time=4),
    Message('note_off', channel=9, note=36, velocity=100, time=188),
    Message('note_on', channel=9, note=36, velocity=100, time=4),
    Message('note_on', channel=9, note=45, velocity=100, time=0),
    Message('note_off', channel=9, note=36, velocity=100, time=188),
    Message('note_off', channel=9, note=45, velocity=100, time=0),
    Message('note_on', channel=9, note=36, velocity=100, time=4),
    Message('note_on', channel=9, note=47, velocity=100, time=0),
    Message('note_off', channel=9, note=36, velocity=100, time=188),
    Message('note_off', channel=9, note=47, velocity=100, time=0),
    Message('note_on', channel=9, note=36, velocity=100, time=4),
    Message('note_off', channel=9, note=36, velocity=100, time=188),
    Message('note_on', channel=9, note=36, velocity=100, time=4),
    Message('note_off', channel=9, note=36, velocity=100, time=188),
    Message('note_on', channel=9, note=36, velocity=100, time=4),
    Message('note_on', channel=9, note=47, velocity=100, time=0),
    Message('note_off', channel=9, note=36, velocity=100, time=188),
    Message('note_off', channel=9, note=47, velocity=100, time=0),
    Message('note_on', channel=9, note=36, velocity=100, time=4),
    Message('note_on', channel=9, note=48, velocity=100, time=0),
    Message('note_off', channel=9, note=36, velocity=100, time=188),
    Message('note_off', channel=9, note=48, velocity=100, time=0),
    Message('note_on', channel=9, note=36, velocity=100, time=4),
    Message('note_off', channel=9, note=36, velocity=100, time=188),
    Message('note_on', channel=9, note=36, velocity=100, time=4),
    Message('note_off', channel=9, note=36, velocity=100, time=188),
    Message('note_on', channel=9, note=49, velocity=100, time=4),
    Message('note_on', channel=9, note=36, velocity=100, time=0),
    Message('note_off', channel=9, note=49, velocity=100, time=188),
    Message('note_off', channel=9, note=36, velocity=100, time=0),
    Message('note_on', channel=9, note=36, velocity=100, time=196),
    Message('note_off', channel=9, note=36, velocity=100, time=188),
    Message('note_on', channel=9, note=36, velocity=100, time=4),
    Message('note_off', channel=9, note=36, velocity=100, time=188),
    Message('note_on', channel=9, note=38, velocity=100, time=4),
    Message('note_off', channel=9, note=38, velocity=100, time=188),
    Message('note_on', channel=9, note=36, velocity=100, time=196),
    Message('note_off', channel=9, note=36, velocity=100, time=188),
    Message('note_on', channel=9, note=36, velocity=100, time=4),
    Message('note_off', channel=9, note=36, velocity=100, time=188),
    Message('note_on', channel=9, note=36, velocity=100, time=4),
    Message('note_off', channel=9, note=36, velocity=100, time=188),
    Message('note_on', channel=9, note=36, velocity=100, time=196),
    Message('note_off', channel=9, note=36, velocity=100, time=188),
    Message('note_on', channel=9, note=36, velocity=100, time=4),
    Message('note_off', channel=9, note=36, velocity=100, time=188),
    Message('note_on', channel=9, note=38, velocity=100, time=4),
    Message('note_off', channel=9, note=38, velocity=100, time=188),
    Message('note_on', channel=9, note=38, velocity=100, time=4),
    Message('note_off', channel=9, note=38, velocity=100, time=188),
    Message('note_on', channel=9, note=36, velocity=100, time=4),
    Message('note_off', channel=9, note=36, velocity=100, time=188),
    Message('note_on', channel=9, note=36, velocity=100, time=4),
    Message('note_off', channel=9, note=36, velocity=100, time=188),
    Message('note_on', channel=9, note=49, velocity=100, time=4),
    Message('note_on', channel=9, note=36, velocity=100, time=0),
    Message('note_off', channel=9, note=49, velocity=100, time=188),
    Message('note_off', channel=9, note=36, velocity=100, time=0),
    Message('note_on', channel=9, note=36, velocity=100, time=196),
    Message('note_off', channel=9, note=36, velocity=100, time=188),
    Message('note_on', channel=9, note=36, velocity=100, time=4),
    Message('note_off', channel=9, note=36, velocity=100, time=188),
    Message('note_on', channel=9, note=38, velocity=100, time=4),
    Message('note_off', channel=9, note=38, velocity=100, time=188),
    Message('note_on', channel=9, note=36, velocity=100, time=196),
    Message('note_off', channel=9, note=36, velocity=100, time=188),
    Message('note_on', channel=9, note=36, velocity=100, time=4),
    Message('note_off', channel=9, note=36, velocity=100, time=188),
    Message('note_on', channel=9, note=38, velocity=100, time=4),
    Message('note_off', channel=9, note=38, velocity=100, time=124),
    Message('note_on', channel=9, note=47, velocity=100, time=4),
    Message('note_off', channel=9, note=47, velocity=100, time=124),
    Message('note_on', channel=9, note=48, velocity=100, time=4),
    Message('note_off', channel=9, note=48, velocity=100, time=124),
    Message('note_on', channel=9, note=45, velocity=100, time=4),
    Message('note_off', channel=9, note=45, velocity=100, time=124),
    Message('note_on', channel=9, note=45, velocity=100, time=4),
    Message('note_off', channel=9, note=45, velocity=100, time=124),
    Message('note_on', channel=9, note=47, velocity=100, time=4),
    Message('note_off', channel=9, note=47, velocity=100, time=124),
    Message('note_on', channel=9, note=48, velocity=100, time=4),
    Message('note_off', channel=9, note=48, velocity=100, time=124),
    Message('note_on', channel=9, note=47, velocity=100, time=4),
    Message('note_off', channel=9, note=47, velocity=100, time=124),
    Message('note_on', channel=9, note=47, velocity=100, time=4),
    Message('note_off', channel=9, note=47, velocity=100, time=124),
    Message('note_on', channel=9, note=45, velocity=100, time=4),
    Message('note_off', channel=9, note=45, velocity=100, time=124),
    Message('note_on', channel=9, note=45, velocity=100, time=4),
    Message('note_off', channel=9, note=45, velocity=100, time=124),
    Message('note_on', channel=9, note=43, velocity=100, time=4),
    Message('note_off', channel=9, note=43, velocity=100, time=124),
    Message('note_on', channel=9, note=49, velocity=100, time=4),
    Message('note_on', channel=9, note=36, velocity=100, time=0),
    Message('note_off', channel=9, note=49, velocity=100, time=380),
    Message('note_off', channel=9, note=36, velocity=100, time=0),
    Message('note_on', channel=9, note=38, velocity=0, time=22660),
    Message('note_off', channel=9, note=38, velocity=100, time=92),
    Message('note_on', channel=9, note=38, velocity=3, time=4),
    Message('note_off', channel=9, note=38, velocity=100, time=92),
    Message('note_on', channel=9, note=38, velocity=6, time=4),
    Message('note_off', channel=9, note=38, velocity=100, time=92),
    Message('note_on', channel=9, note=38, velocity=9, time=4),
    Message('note_off', channel=9, note=38, velocity=100, time=92),
    Message('note_on', channel=9, note=38, velocity=12, time=4),
    Message('note_off', channel=9, note=38, velocity=100, time=92),
    Message('note_on', channel=9, note=38, velocity=16, time=4),
    Message('note_off', channel=9, note=38, velocity=100, time=92),
    Message('note_on', channel=9, note=38, velocity=19, time=4),
    Message('note_off', channel=9, note=38, velocity=100, time=92),
    Message('note_on', channel=9, note=38, velocity=22, time=4),
    Message('note_off', channel=9, note=38, velocity=100, time=92),
    Message('note_on', channel=9, note=38, velocity=25, time=4),
    Message('note_off', channel=9, note=38, velocity=100, time=92),
    Message('note_on', channel=9, note=38, velocity=28, time=4),
    Message('note_off', channel=9, note=38, velocity=100, time=92),
    Message('note_on', channel=9, note=38, velocity=32, time=4),
    Message('note_off', channel=9, note=38, velocity=100, time=92),
    Message('note_on', channel=9, note=38, velocity=35, time=4),
    Message('note_off', channel=9, note=38, velocity=100, time=92),
    Message('note_on', channel=9, note=38, velocity=38, time=4),
    Message('note_off', channel=9, note=38, velocity=100, time=92),
    Message('note_on', channel=9, note=38, velocity=41, time=4),
    Message('note_off', channel=9, note=38, velocity=100, time=92),
    Message('note_on', channel=9, note=38, velocity=45, time=4),
    Message('note_off', channel=9, note=38, velocity=100, time=92),
    Message('note_on', channel=9, note=38, velocity=48, time=4),
    Message('note_off', channel=9, note=38, velocity=100, time=92),
    Message('note_on', channel=9, note=38, velocity=51, time=4),
    Message('note_off', channel=9, note=38, velocity=100, time=92),
    Message('note_on', channel=9, note=38, velocity=54, time=4),
    Message('note_off', channel=9, note=38, velocity=100, time=92),
    Message('note_on', channel=9, note=38, velocity=57, time=4),
    Message('note_off', channel=9, note=38, velocity=100, time=92),
    Message('note_on', channel=9, note=38, velocity=61, time=4),
    Message('note_off', channel=9, note=38, velocity=100, time=92),
    Message('note_on', channel=9, note=38, velocity=64, time=4),
    Message('note_off', channel=9, note=38, velocity=100, time=92),
    Message('note_on', channel=9, note=38, velocity=67, time=4),
    Message('note_off', channel=9, note=38, velocity=100, time=92),
    Message('note_on', channel=9, note=38, velocity=70, time=4),
    Message('note_off', channel=9, note=38, velocity=100, time=92),
    Message('note_on', channel=9, note=38, velocity=74, time=4),
    Message('note_off', channel=9, note=38, velocity=100, time=92),
    Message('note_on', channel=9, note=38, velocity=77, time=4),
    Message('note_off', channel=9, note=38, velocity=100, time=92),
    Message('note_on', channel=9, note=38, velocity=80, time=4),
    Message('note_off', channel=9, note=38, velocity=100, time=92),
    Message('note_on', channel=9, note=38, velocity=83, time=4),
    Message('note_off', channel=9, note=38, velocity=100, time=92),
    Message('note_on', channel=9, note=38, velocity=86, time=4),
    Message('note_off', channel=9, note=38, velocity=100, time=92),
    Message('note_on', channel=9, note=38, velocity=90, time=4),
    Message('note_off', channel=9, note=38, velocity=100, time=92),
    Message('note_on', channel=9, note=38, velocity=93, time=4),
    Message('note_off', channel=9, note=38, velocity=100, time=92),
    Message('note_on', channel=9, note=38, velocity=96, time=4),
    Message('note_off', channel=9, note=38, velocity=100, time=92),
    Message('note_on', channel=9, note=38, velocity=99, time=4),
    Message('note_off', channel=9, note=38, velocity=100, time=92),
    Message('note_on', channel=9, note=36, velocity=100, time=4),
    Message('note_on', channel=9, note=49, velocity=100, time=0),
    Message('note_off', channel=9, note=36, velocity=100, time=376),
    Message('note_off', channel=9, note=49, velocity=100, time=0),
    Message('note_on', channel=9, note=36, velocity=100, time=8),
    Message('note_on', channel=9, note=38, velocity=100, time=0),
    Message('note_on', channel=9, note=42, velocity=100, time=0),
    Message('note_off', channel=9, note=36, velocity=100, time=184),
    Message('note_off', channel=9, note=38, velocity=100, time=0),
    Message('note_off', channel=9, note=42, velocity=100, time=0),
    Message('note_on', channel=9, note=36, velocity=100, time=8),
    Message('note_off', channel=9, note=36, velocity=100, time=184),
    Message('note_on', channel=9, note=36, velocity=100, time=8),
    Message('note_on', channel=9, note=42, velocity=100, time=0),
    Message('note_off', channel=9, note=36, velocity=100, time=184),
    Message('note_off', channel=9, note=42, velocity=100, time=0),
    Message('note_on', channel=9, note=36, velocity=100, time=8),
    Message('note_off', channel=9, note=36, velocity=100, time=184),
    Message('note_on', channel=9, note=38, velocity=100, time=8),
    Message('note_on', channel=9, note=42, velocity=100, time=0),
    Message('note_on', channel=9, note=36, velocity=100, time=0),
    Message('note_off', channel=9, note=38, velocity=100, time=184),
    Message('note_off', channel=9, note=42, velocity=100, time=0),
    Message('note_off', channel=9, note=36, velocity=100, time=0),
    Message('note_on', channel=9, note=36, velocity=100, time=8),
    Message('note_off', channel=9, note=36, velocity=100, time=184),
    Message('note_on', channel=9, note=36, velocity=100, time=8),
    Message('note_on', channel=9, note=42, velocity=100, time=0),
    Message('note_off', channel=9, note=36, velocity=100, time=184),
    Message('note_off', channel=9, note=42, velocity=100, time=0),
    Message('note_on', channel=9, note=36, velocity=100, time=8),
    Message('note_off', channel=9, note=36, velocity=100, time=184),
    Message('note_on', channel=9, note=36, velocity=100, time=8),
    Message('note_on', channel=9, note=42, velocity=100, time=0),
    Message('note_on', channel=9, note=38, velocity=100, time=0),
    Message('note_off', channel=9, note=36, velocity=100, time=184),
    Message('note_off', channel=9, note=42, velocity=100, time=0),
    Message('note_off', channel=9, note=38, velocity=100, time=0),
    Message('note_on', channel=9, note=36, velocity=100, time=8),
    Message('note_off', channel=9, note=36, velocity=100, time=184),
    Message('note_on', channel=9, note=36, velocity=100, time=8),
    Message('note_on', channel=9, note=42, velocity=100, time=0),
    Message('note_off', channel=9, note=36, velocity=100, time=184),
    Message('note_off', channel=9, note=42, velocity=100, time=0),
    Message('note_on', channel=9, note=36, velocity=100, time=8),
    Message('note_off', channel=9, note=36, velocity=100, time=184),
    Message('note_on', channel=9, note=38, velocity=100, time=8),
    Message('note_on', channel=9, note=42, velocity=100, time=0),
    Message('note_on', channel=9, note=36, velocity=100, time=0),
    Message('note_off', channel=9, note=38, velocity=100, time=184),
    Message('note_off', channel=9, note=42, velocity=100, time=0),
    Message('note_off', channel=9, note=36, velocity=100, time=0),
    Message('note_on', channel=9, note=36, velocity=100, time=8),
    Message('note_off', channel=9, note=36, velocity=100, time=184),
    Message('note_on', channel=9, note=36, velocity=100, time=8),
    Message('note_on', channel=9, note=42, velocity=100, time=0),
    Message('note_off', channel=9, note=36, velocity=100, time=184),
    Message('note_off', channel=9, note=42, velocity=100, time=0),
    Message('note_on', channel=9, note=36, velocity=100, time=8),
    Message('note_off', channel=9, note=36, velocity=100, time=184),
    Message('note_on', channel=9, note=36, velocity=100, time=8),
    Message('note_on', channel=9, note=42, velocity=100, time=0),
    Message('note_on', channel=9, note=38, velocity=100, time=0),
    Message('note_off', channel=9, note=36, velocity=100, time=184),
    Message('note_off', channel=9, note=42, velocity=100, time=0),
    Message('note_off', channel=9, note=38, velocity=100, time=0),
    Message('note_on', channel=9, note=36, velocity=100, time=8),
    Message('note_off', channel=9, note=36, velocity=100, time=184),
    Message('note_on', channel=9, note=42, velocity=100, time=8),
    Message('note_on', channel=9, note=36, velocity=100, time=0),
    Message('note_off', channel=9, note=42, velocity=100, time=184),
    Message('note_off', channel=9, note=36, velocity=100, time=0),
    Message('note_on', channel=9, note=36, velocity=100, time=8),
    Message('note_off', channel=9, note=36, velocity=100, time=184),
    Message('note_on', channel=9, note=38, velocity=100, time=8),
    Message('note_on', channel=9, note=42, velocity=100, time=0),
    Message('note_on', channel=9, note=36, velocity=100, time=0),
    Message('note_off', channel=9, note=38, velocity=100, time=184),
    Message('note_off', channel=9, note=42, velocity=100, time=0),
    Message('note_off', channel=9, note=36, velocity=100, time=0),
    Message('note_on', channel=9, note=36, velocity=100, time=8),
    Message('note_off', channel=9, note=36, velocity=100, time=184),
    Message('note_on', channel=9, note=42, velocity=100, time=8),
    Message('note_on', channel=9, note=36, velocity=100, time=0),
    Message('note_off', channel=9, note=42, velocity=100, time=184),
    Message('note_off', channel=9, note=36, velocity=100, time=0),
    Message('note_on', channel=9, note=36, velocity=100, time=8),
    Message('note_off', channel=9, note=36, velocity=100, time=184),
    Message('note_on', channel=9, note=36, velocity=100, time=8),
    Message('note_on', channel=9, note=42, velocity=100, time=0),
    Message('note_on', channel=9, note=38, velocity=100, time=0),
    Message('note_off', channel=9, note=36, velocity=100, time=184),
    Message('note_off', channel=9, note=42, velocity=100, time=0),
    Message('note_off', channel=9, note=38, velocity=100, time=0),
    Message('note_on', channel=9, note=36, velocity=100, time=8),
    Message('note_off', channel=9, note=36, velocity=100, time=184),
    Message('note_on', channel=9, note=42, velocity=100, time=8),
    Message('note_on', channel=9, note=36, velocity=100, time=0),
    Message('note_off', channel=9, note=42, velocity=100, time=184),
    Message('note_off', channel=9, note=36, velocity=100, time=0),
    Message('note_on', channel=9, note=36, velocity=100, time=8),
    Message('note_off', channel=9, note=36, velocity=100, time=88),
    Message('note_on', channel=9, note=36, velocity=100, time=8),
    Message('note_off', channel=9, note=36, velocity=100, time=88),
    Message('note_on', channel=9, note=38, velocity=100, time=8),
    Message('note_on', channel=9, note=42, velocity=100, time=0),
    Message('note_on', channel=9, note=36, velocity=100, time=0),
    Message('note_off', channel=9, note=38, velocity=100, time=184),
    Message('note_off', channel=9, note=42, velocity=100, time=0),
    Message('note_off', channel=9, note=36, velocity=100, time=0),
    Message('note_on', channel=9, note=36, velocity=100, time=8),
    Message('note_off', channel=9, note=36, velocity=100, time=184),
    Message('note_on', channel=9, note=36, velocity=100, time=8),
    Message('note_on', channel=9, note=42, velocity=100, time=0),
    Message('note_off', channel=9, note=36, velocity=100, time=184),
    Message('note_off', channel=9, note=42, velocity=100, time=0),
    Message('note_on', channel=9, note=36, velocity=100, time=8),
    Message('note_off', channel=9, note=36, velocity=100, time=184),
    Message('note_on', channel=9, note=36, velocity=100, time=8),
    Message('note_on', channel=9, note=42, velocity=100, time=0),
    Message('note_on', channel=9, note=38, velocity=100, time=0),
    Message('note_off', channel=9, note=36, velocity=100, time=184),
    Message('note_off', channel=9, note=42, velocity=100, time=0),
    Message('note_off', channel=9, note=38, velocity=100, time=0),
    Message('note_on', channel=9, note=36, velocity=100, time=8),
    Message('note_off', channel=9, note=36, velocity=100, time=184),
    Message('note_on', channel=9, note=36, velocity=100, time=8),
    Message('note_on', channel=9, note=42, velocity=100, time=0),
    Message('note_off', channel=9, note=36, velocity=100, time=184),
    Message('note_off', channel=9, note=42, velocity=100, time=0),
    Message('note_on', channel=9, note=36, velocity=100, time=8),
    Message('note_off', channel=9, note=36, velocity=100, time=184),
    Message('note_on', channel=9, note=38, velocity=100, time=8),
    Message('note_on', channel=9, note=42, velocity=100, time=0),
    Message('note_on', channel=9, note=36, velocity=100, time=0),
    Message('note_off', channel=9, note=38, velocity=100, time=184),
    Message('note_off', channel=9, note=42, velocity=100, time=0),
    Message('note_off', channel=9, note=36, velocity=100, time=0),
    Message('note_on', channel=9, note=36, velocity=100, time=8),
    Message('note_off', channel=9, note=36, velocity=100, time=184),
    Message('note_on', channel=9, note=36, velocity=100, time=8),
    Message('note_on', channel=9, note=42, velocity=100, time=0),
    Message('note_off', channel=9, note=36, velocity=100, time=184),
    Message('note_off', channel=9, note=42, velocity=100, time=0),
    Message('note_on', channel=9, note=36, velocity=100, time=8),
    Message('note_off', channel=9, note=36, velocity=100, time=184),
    Message('note_on', channel=9, note=36, velocity=100, time=8),
    Message('note_on', channel=9, note=42, velocity=100, time=0),
    Message('note_on', channel=9, note=38, velocity=100, time=0),
    Message('note_off', channel=9, note=36, velocity=100, time=184),
    Message('note_off', channel=9, note=42, velocity=100, time=0),
    Message('note_off', channel=9, note=38, velocity=100, time=0),
    Message('note_on', channel=9, note=36, velocity=100, time=8),
    Message('note_off', channel=9, note=36, velocity=100, time=184),
    Message('note_on', channel=9, note=36, velocity=100, time=8),
    Message('note_on', channel=9, note=42, velocity=100, time=0),
    Message('note_off', channel=9, note=36, velocity=100, time=184),
    Message('note_off', channel=9, note=42, velocity=100, time=0),
    Message('note_on', channel=9, note=36, velocity=100, time=8),
    Message('note_off', channel=9, note=36, velocity=100, time=184),
    Message('note_on', channel=9, note=38, velocity=100, time=8),
    Message('note_on', channel=9, note=42, velocity=100, time=0),
    Message('note_on', channel=9, note=36, velocity=100, time=0),
    Message('note_off', channel=9, note=38, velocity=100, time=184),
    Message('note_off', channel=9, note=42, velocity=100, time=0),
    Message('note_off', channel=9, note=36, velocity=100, time=0),
    Message('note_on', channel=9, note=36, velocity=100, time=8),
    Message('note_off', channel=9, note=36, velocity=100, time=184),
    Message('note_on', channel=9, note=36, velocity=100, time=8),
    Message('note_on', channel=9, note=42, velocity=100, time=0),
    Message('note_off', channel=9, note=36, velocity=100, time=184),
    Message('note_off', channel=9, note=42, velocity=100, time=0),
    Message('note_on', channel=9, note=36, velocity=100, time=8),
    Message('note_off', channel=9, note=36, velocity=100, time=184),
    Message('note_on', channel=9, note=36, velocity=100, time=8),
    Message('note_on', channel=9, note=42, velocity=100, time=0),
    Message('note_on', channel=9, note=38, velocity=100, time=0),
    Message('note_off', channel=9, note=36, velocity=100, time=184),
    Message('note_off', channel=9, note=42, velocity=100, time=0),
    Message('note_off', channel=9, note=38, velocity=100, time=0),
    Message('note_on', channel=9, note=36, velocity=100, time=8),
    Message('note_off', channel=9, note=36, velocity=100, time=184),
    Message('note_on', channel=9, note=42, velocity=100, time=8),
    Message('note_on', channel=9, note=36, velocity=100, time=0),
    Message('note_off', channel=9, note=42, velocity=100, time=184),
    Message('note_off', channel=9, note=36, velocity=100, time=0),
    Message('note_on', channel=9, note=36, velocity=100, time=8),
    Message('note_off', channel=9, note=36, velocity=100, time=184),
    Message('note_on', channel=9, note=38, velocity=100, time=8),
    Message('note_on', channel=9, note=42, velocity=100, time=0),
    Message('note_off', channel=9, note=38, velocity=100, time=184),
    Message('note_off', channel=9, note=42, velocity=100, time=0),
    Message('note_on', channel=9, note=36, velocity=100, time=8),
    Message('note_off', channel=9, note=36, velocity=100, time=188),
    Message('note_on', channel=9, note=38, velocity=100, time=4),
    Message('note_off', channel=9, note=38, velocity=100, time=92),
    Message('note_on', channel=9, note=48, velocity=100, time=4),
    Message('note_off', channel=9, note=48, velocity=100, time=92),
    Message('note_on', channel=9, note=45, velocity=100, time=4),
    Message('note_off', channel=9, note=45, velocity=100, time=92),
    Message('note_on', channel=9, note=45, velocity=100, time=4),
    Message('note_off', channel=9, note=45, velocity=100, time=92),
    Message('note_on', channel=9, note=45, velocity=100, time=4),
    Message('note_off', channel=9, note=45, velocity=100, time=92),
    Message('note_on', channel=9, note=45, velocity=100, time=4),
    Message('note_off', channel=9, note=45, velocity=100, time=92),
    Message('note_on', channel=9, note=38, velocity=100, time=4),
    Message('note_off', channel=9, note=38, velocity=100, time=92),
    Message('note_on', channel=9, note=47, velocity=100, time=4),
    Message('note_off', channel=9, note=47, velocity=100, time=92),
    Message('note_on', channel=9, note=45, velocity=100, time=4),
    Message('note_off', channel=9, note=45, velocity=100, time=92),
    Message('note_on', channel=9, note=45, velocity=100, time=4),
    Message('note_off', channel=9, note=45, velocity=100, time=92),
    Message('note_on', channel=9, note=45, velocity=100, time=4),
    Message('note_off', channel=9, note=45, velocity=100, time=92),
    Message('note_on', channel=9, note=45, velocity=100, time=4),
    Message('note_off', channel=9, note=45, velocity=100, time=92),
    Message('note_on', channel=9, note=43, velocity=100, time=4),
    Message('note_off', channel=9, note=43, velocity=100, time=92),
    Message('note_on', channel=9, note=43, velocity=100, time=4),
    Message('note_off', channel=9, note=43, velocity=100, time=92),
    Message('note_on', channel=9, note=41, velocity=100, time=4),
    Message('note_off', channel=9, note=41, velocity=100, time=92),
    Message('note_on', channel=9, note=41, velocity=100, time=4),
    Message('note_off', channel=9, note=41, velocity=100, time=92),
    Message('note_on', channel=9, note=36, velocity=100, time=4),
    Message('note_on', channel=9, note=49, velocity=100, time=0),
    Message('note_off', channel=9, note=36, velocity=100, time=184),
    Message('note_off', channel=9, note=49, velocity=100, time=0),
    Message('note_on', channel=9, note=38, velocity=100, time=200),
    Message('note_on', channel=9, note=51, velocity=60, time=0),
    Message('note_off', channel=9, note=38, velocity=100, time=184),
    Message('note_off', channel=9, note=51, velocity=100, time=0),
    Message('note_on', channel=9, note=36, velocity=100, time=8),
    Message('note_off', channel=9, note=36, velocity=100, time=184),
    Message('note_on', channel=9, note=51, velocity=60, time=8),
    Message('note_on', channel=9, note=36, velocity=100, time=0),
    Message('note_off', channel=9, note=51, velocity=100, time=184),
    Message('note_off', channel=9, note=36, velocity=100, time=0),
    Message('note_on', channel=9, note=51, velocity=60, time=200),
    Message('note_on', channel=9, note=38, velocity=100, time=0),
    Message('note_off', channel=9, note=51, velocity=100, time=184),
    Message('note_off', channel=9, note=38, velocity=100, time=0),
    Message('note_on', channel=9, note=36, velocity=100, time=8),
    Message('note_off', channel=9, note=36, velocity=100, time=184),
    Message('note_on', channel=9, note=51, velocity=60, time=8),
    Message('note_on', channel=9, note=36, velocity=100, time=0),
    Message('note_off', channel=9, note=51, velocity=100, time=184),
    Message('note_off', channel=9, note=36, velocity=100, time=0),
    Message('note_on', channel=9, note=38, velocity=100, time=200),
    Message('note_on', channel=9, note=51, velocity=60, time=0),
    Message('note_off', channel=9, note=38, velocity=100, time=184),
    Message('note_off', channel=9, note=51, velocity=100, time=0),
    Message('note_on', channel=9, note=36, velocity=100, time=8),
    Message('note_off', channel=9, note=36, velocity=100, time=184),
    Message('note_on', channel=9, note=51, velocity=60, time=8),
    Message('note_on', channel=9, note=36, velocity=100, time=0),
    Message('note_off', channel=9, note=51, velocity=100, time=184),
    Message('note_off', channel=9, note=36, velocity=100, time=0),
    Message('note_on', channel=9, note=36, velocity=100, time=8),
    Message('note_off', channel=9, note=36, velocity=100, time=184),
    Message('note_on', channel=9, note=51, velocity=60, time=8),
    Message('note_on', channel=9, note=38, velocity=100, time=0),
    Message('note_off', channel=9, note=51, velocity=100, time=184),
    Message('note_off', channel=9, note=38, velocity=100, time=0),
    Message('note_on', channel=9, note=36, velocity=100, time=200),
    Message('note_on', channel=9, note=51, velocity=60, time=0),
    Message('note_off', channel=9, note=36, velocity=100, time=184),
    Message('note_off', channel=9, note=51, velocity=100, time=0),
    Message('note_on', channel=9, note=38, velocity=100, time=200),
    Message('note_on', channel=9, note=51, velocity=60, time=0),
    Message('note_off', channel=9, note=38, velocity=100, time=184),
    Message('note_off', channel=9, note=51, velocity=100, time=0),
    Message('note_on', channel=9, note=36, velocity=100, time=8),
    Message('note_off', channel=9, note=36, velocity=100, time=184),
    Message('note_on', channel=9, note=51, velocity=60, time=8),
    Message('note_on', channel=9, note=36, velocity=100, time=0),
    Message('note_off', channel=9, note=51, velocity=100, time=184),
    Message('note_off', channel=9, note=36, velocity=100, time=0),
    Message('note_on', channel=9, note=51, velocity=60, time=200),
    Message('note_on', channel=9, note=38, velocity=100, time=0),
    Message('note_off', channel=9, note=51, velocity=100, time=184),
    Message('note_off', channel=9, note=38, velocity=100, time=0),
    Message('note_on', channel=9, note=36, velocity=100, time=200),
    Message('note_on', channel=9, note=51, velocity=60, time=0),
    Message('note_off', channel=9, note=36, velocity=100, time=120),
    Message('note_on', channel=9, note=36, velocity=100, time=8),
    Message('note_off', channel=9, note=51, velocity=100, time=56),
    Message('note_off', channel=9, note=36, velocity=100, time=64),
    Message('note_on', channel=9, note=36, velocity=100, time=8),
    Message('note_off', channel=9, note=36, velocity=100, time=120),
    Message('note_on', channel=9, note=36, velocity=100, time=8),
    Message('note_on', channel=9, note=51, velocity=60, time=0),
    Message('note_on', channel=9, note=38, velocity=100, time=0),
    Message('note_off', channel=9, note=36, velocity=100, time=120),
    Message('note_on', channel=9, note=36, velocity=100, time=8),
    Message('note_off', channel=9, note=51, velocity=100, time=56),
    Message('note_off', channel=9, note=38, velocity=100, time=0),
    Message('note_off', channel=9, note=36, velocity=100, time=64),
    Message('note_on', channel=9, note=36, velocity=100, time=8),
    Message('note_off', channel=9, note=36, velocity=100, time=120),
    Message('note_on', channel=9, note=36, velocity=100, time=8),
    Message('note_on', channel=9, note=49, velocity=100, time=0),
    Message('note_off', channel=9, note=36, velocity=100, time=184),
    Message('note_off', channel=9, note=49, velocity=100, time=0),
    Message('note_on', channel=9, note=51, velocity=60, time=200),
    Message('note_on', channel=9, note=38, velocity=100, time=0),
    Message('note_off', channel=9, note=51, velocity=100, time=184),
    Message('note_off', channel=9, note=38, velocity=100, time=0),
    Message('note_on', channel=9, note=49, velocity=100, time=200),
    Message('note_on', channel=9, note=36, velocity=100, time=0),
    Message('note_off', channel=9, note=49, velocity=100, time=184),
    Message('note_off', channel=9, note=36, velocity=100, time=0),
    Message('note_on', channel=9, note=38, velocity=100, time=200),
    Message('note_on', channel=9, note=51, velocity=60, time=0),
    Message('note_off', channel=9, note=38, velocity=100, time=184),
    Message('note_off', channel=9, note=51, velocity=100, time=0),
    Message('note_on', channel=9, note=36, velocity=100, time=8),
    Message('note_off', channel=9, note=36, velocity=100, time=184),
    Message('note_on', channel=9, note=51, velocity=60, time=8),
    Message('note_on', channel=9, note=36, velocity=100, time=0),
    Message('note_off', channel=9, note=51, velocity=100, time=184),
    Message('note_off', channel=9, note=36, velocity=100, time=0),
    Message('note_on', channel=9, note=51, velocity=60, time=200),
    Message('note_on', channel=9, note=38, velocity=100, time=0),
    Message('note_off', channel=9, note=51, velocity=100, time=184),
    Message('note_off', channel=9, note=38, velocity=100, time=0),
    Message('note_on', channel=9, note=36, velocity=100, time=8),
    Message('note_off', channel=9, note=36, velocity=100, time=184),
    Message('note_on', channel=9, note=51, velocity=60, time=8),
    Message('note_on', channel=9, note=36, velocity=100, time=0),
    Message('note_off', channel=9, note=51, velocity=100, time=184),
    Message('note_off', channel=9, note=36, velocity=100, time=0),
    Message('note_on', channel=9, note=51, velocity=60, time=200),
    Message('note_on', channel=9, note=38, velocity=100, time=0),
    Message('note_off', channel=9, note=51, velocity=100, time=184),
    Message('note_off', channel=9, note=38, velocity=100, time=0),
    Message('note_on', channel=9, note=36, velocity=100, time=8),
    Message('note_off', channel=9, note=36, velocity=100, time=184),
    Message('note_on', channel=9, note=51, velocity=60, time=8),
    Message('note_on', channel=9, note=36, velocity=100, time=0),
    Message('note_off', channel=9, note=51, velocity=100, time=184),
    Message('note_off', channel=9, note=36, velocity=100, time=0),
    Message('note_on', channel=9, note=36, velocity=100, time=8),
    Message('note_off', channel=9, note=36, velocity=100, time=184),
    Message('note_on', channel=9, note=51, velocity=60, time=8),
    Message('note_on', channel=9, note=38, velocity=100, time=0),
    Message('note_off', channel=9, note=51, velocity=100, time=184),
    Message('note_off', channel=9, note=38, velocity=100, time=0),
    Message('note_on', channel=9, note=51, velocity=60, time=200),
    Message('note_on', channel=9, note=36, velocity=100, time=0),
    Message('note_off', channel=9, note=51, velocity=100, time=184),
    Message('note_off', channel=9, note=36, velocity=100, time=0),
    Message('note_on', channel=9, note=38, velocity=100, time=200),
    Message('note_on', channel=9, note=51, velocity=60, time=0),
    Message('note_off', channel=9, note=38, velocity=100, time=184),
    Message('note_off', channel=9, note=51, velocity=100, time=0),
    Message('note_on', channel=9, note=36, velocity=100, time=8),
    Message('note_off', channel=9, note=36, velocity=100, time=184),
    Message('note_on', channel=9, note=51, velocity=60, time=8),
    Message('note_on', channel=9, note=36, velocity=100, time=0),
    Message('note_off', channel=9, note=51, velocity=100, time=184),
    Message('note_off', channel=9, note=36, velocity=100, time=0),
    Message('note_on', channel=9, note=51, velocity=60, time=200),
    Message('note_on', channel=9, note=38, velocity=100, time=0),
    Message('note_off', channel=9, note=51, velocity=100, time=184),
    Message('note_off', channel=9, note=38, velocity=100, time=0),
    Message('note_on', channel=9, note=36, velocity=100, time=8),
    Message('note_off', channel=9, note=36, velocity=100, time=188),
    Message('note_on', channel=9, note=38, velocity=100, time=4),
    Message('note_off', channel=9, note=38, velocity=100, time=92),
    Message('note_on', channel=9, note=47, velocity=100, time=4),
    Message('note_off', channel=9, note=47, velocity=100, time=92),
    Message('note_on', channel=9, note=45, velocity=100, time=4),
    Message('note_off', channel=9, note=45, velocity=100, time=92),
    Message('note_on', channel=9, note=45, velocity=100, time=4),
    Message('note_off', channel=9, note=45, velocity=100, time=92),
    Message('note_on', channel=9, note=38, velocity=100, time=4),
    Message('note_off', channel=9, note=38, velocity=100, time=92),
    Message('note_on', channel=9, note=47, velocity=100, time=4),
    Message('note_off', channel=9, note=47, velocity=100, time=92),
    Message('note_on', channel=9, note=45, velocity=100, time=4),
    Message('note_off', channel=9, note=45, velocity=100, time=92),
    Message('note_on', channel=9, note=45, velocity=100, time=4),
    Message('note_off', channel=9, note=45, velocity=100, time=92),
    Message('note_on', channel=9, note=43, velocity=100, time=4),
    Message('note_off', channel=9, note=43, velocity=100, time=92),
    Message('note_on', channel=9, note=43, velocity=100, time=4),
    Message('note_off', channel=9, note=43, velocity=100, time=92),
    Message('note_on', channel=9, note=43, velocity=100, time=4),
    Message('note_off', channel=9, note=43, velocity=100, time=92),
    Message('note_on', channel=9, note=43, velocity=100, time=4),
    Message('note_off', channel=9, note=43, velocity=100, time=92),
    Message('note_on', channel=9, note=41, velocity=100, time=4),
    Message('note_off', channel=9, note=41, velocity=100, time=92),
    Message('note_on', channel=9, note=41, velocity=100, time=4),
    Message('note_off', channel=9, note=41, velocity=100, time=92),
    Message('note_on', channel=9, note=41, velocity=100, time=4),
    Message('note_off', channel=9, note=41, velocity=100, time=92),
    Message('note_on', channel=9, note=41, velocity=100, time=4),
    Message('note_off', channel=9, note=41, velocity=100, time=92),
    Message('note_on', channel=9, note=36, velocity=100, time=4),
    Message('note_on', channel=9, note=49, velocity=100, time=0),
    Message('note_off', channel=9, note=36, velocity=100, time=184),
    Message('note_on', channel=9, note=36, velocity=100, time=8),
    Message('note_off', channel=9, note=49, velocity=100, time=184),
    Message('note_off', channel=9, note=36, velocity=100, time=0),
    Message('note_on', channel=9, note=51, velocity=100, time=8),
    Message('note_on', channel=9, note=36, velocity=100, time=0),
    Message('note_on', channel=9, note=38, velocity=100, time=0),
    Message('note_off', channel=9, note=36, velocity=100, time=184),
    Message('note_on', channel=9, note=36, velocity=100, time=8),
    Message('note_off', channel=9, note=51, velocity=100, time=184),
    Message('note_off', channel=9, note=38, velocity=100, time=0),
    Message('note_off', channel=9, note=36, velocity=100, time=0),
    Message('note_on', channel=9, note=36, velocity=100, time=8),
    Message('note_on', channel=9, note=51, velocity=100, time=0),
    Message('note_off', channel=9, note=36, velocity=100, time=184),
    Message('note_on', channel=9, note=36, velocity=100, time=8),
    Message('note_off', channel=9, note=51, velocity=100, time=184),
    Message('note_off', channel=9, note=36, velocity=100, time=0),
    Message('note_on', channel=9, note=36, velocity=100, time=8),
    Message('note_on', channel=9, note=38, velocity=100, time=0),
    Message('note_on', channel=9, note=51, velocity=100, time=0),
    Message('note_off', channel=9, note=36, velocity=100, time=184),
    Message('note_on', channel=9, note=36, velocity=100, time=8),
    Message('note_off', channel=9, note=38, velocity=100, time=184),
    Message('note_off', channel=9, note=51, velocity=100, time=0),
    Message('note_off', channel=9, note=36, velocity=100, time=0),
    Message('note_on', channel=9, note=51, velocity=100, time=8),
    Message('note_on', channel=9, note=36, velocity=100, time=0),
    Message('note_off', channel=9, note=36, velocity=100, time=184),
    Message('note_on', channel=9, note=36, velocity=100, time=8),
    Message('note_off', channel=9, note=51, velocity=100, time=184),
    Message('note_off', channel=9, note=36, velocity=100, time=0),
    Message('note_on', channel=9, note=51, velocity=100, time=8),
    Message('note_on', channel=9, note=38, velocity=100, time=0),
    Message('note_on', channel=9, note=36, velocity=100, time=0),
    Message('note_off', channel=9, note=36, velocity=100, time=184),
    Message('note_on', channel=9, note=36, velocity=100, time=8),
    Message('note_off', channel=9, note=51, velocity=100, time=184),
    Message('note_off', channel=9, note=38, velocity=100, time=0),
    Message('note_off', channel=9, note=36, velocity=100, time=0),
    Message('note_on', channel=9, note=36, velocity=100, time=8),
    Message('note_on', channel=9, note=51, velocity=100, time=0),
    Message('note_off', channel=9, note=36, velocity=100, time=184),
    Message('note_on', channel=9, note=36, velocity=100, time=8),
    Message('note_off', channel=9, note=51, velocity=100, time=184),
    Message('note_off', channel=9, note=36, velocity=100, time=0),
    Message('note_on', channel=9, note=36, velocity=100, time=8),
    Message('note_on', channel=9, note=38, velocity=100, time=0),
    Message('note_on', channel=9, note=51, velocity=100, time=0),
    Message('note_off', channel=9, note=36, velocity=100, time=184),
    Message('note_on', channel=9, note=36, velocity=100, time=8),
    Message('note_off', channel=9, note=38, velocity=100, time=184),
    Message('note_off', channel=9, note=51, velocity=100, time=0),
    Message('note_off', channel=9, note=36, velocity=100, time=0),
    Message('note_on', channel=9, note=51, velocity=100, time=8),
    Message('note_on', channel=9, note=36, velocity=100, time=0),
    Message('note_off', channel=9, note=36, velocity=100, time=184),
    Message('note_on', channel=9, note=36, velocity=100, time=8),
    Message('note_off', channel=9, note=51, velocity=100, time=184),
    Message('note_off', channel=9, note=36, velocity=100, time=0),
    Message('note_on', channel=9, note=51, velocity=100, time=8),
    Message('note_on', channel=9, note=38, velocity=100, time=0),
    Message('note_on', channel=9, note=36, velocity=100, time=0),
    Message('note_off', channel=9, note=36, velocity=100, time=184),
    Message('note_on', channel=9, note=36, velocity=100, time=8),
    Message('note_off', channel=9, note=51, velocity=100, time=184),
    Message('note_off', channel=9, note=38, velocity=100, time=0),
    Message('note_off', channel=9, note=36, velocity=100, time=0),
    Message('note_on', channel=9, note=36, velocity=100, time=8),
    Message('note_on', channel=9, note=51, velocity=100, time=0),
    Message('note_off', channel=9, note=36, velocity=100, time=184),
    Message('note_on', channel=9, note=36, velocity=100, time=8),
    Message('note_off', channel=9, note=51, velocity=100, time=184),
    Message('note_off', channel=9, note=36, velocity=100, time=0),
    Message('note_on', channel=9, note=36, velocity=100, time=8),
    Message('note_on', channel=9, note=38, velocity=100, time=0),
    Message('note_on', channel=9, note=51, velocity=100, time=0),
    Message('note_off', channel=9, note=36, velocity=100, time=184),
    Message('note_on', channel=9, note=36, velocity=100, time=8),
    Message('note_off', channel=9, note=38, velocity=100, time=184),
    Message('note_off', channel=9, note=51, velocity=100, time=0),
    Message('note_off', channel=9, note=36, velocity=100, time=0),
    Message('note_on', channel=9, note=36, velocity=100, time=8),
    Message('note_on', channel=9, note=51, velocity=100, time=0),
    Message('note_off', channel=9, note=36, velocity=100, time=184),
    Message('note_on', channel=9, note=36, velocity=100, time=8),
    Message('note_off', channel=9, note=51, velocity=100, time=184),
    Message('note_off', channel=9, note=36, velocity=100, time=0),
    Message('note_on', channel=9, note=36, velocity=100, time=8),
    Message('note_on', channel=9, note=38, velocity=100, time=0),
    Message('note_on', channel=9, note=51, velocity=100, time=0),
    Message('note_off', channel=9, note=36, velocity=100, time=184),
    Message('note_on', channel=9, note=36, velocity=100, time=8),
    Message('note_off', channel=9, note=38, velocity=100, time=184),
    Message('note_off', channel=9, note=51, velocity=100, time=0),
    Message('note_off', channel=9, note=36, velocity=100, time=0),
    Message('note_on', channel=9, note=49, velocity=100, time=8),
    Message('note_on', channel=9, note=38, velocity=100, time=0),
    Message('note_off', channel=9, note=49, velocity=100, time=376),
    Message('note_off', channel=9, note=38, velocity=100, time=0),
    Message('note_on', channel=9, note=49, velocity=100, time=8),
    Message('note_on', channel=9, note=38, velocity=100, time=0),
    Message('note_off', channel=9, note=49, velocity=100, time=376),
    Message('note_off', channel=9, note=38, velocity=100, time=0),
    Message('note_on', channel=9, note=36, velocity=100, time=8),
    Message('note_on', channel=9, note=49, velocity=100, time=0),
    Message('note_off', channel=9, note=36, velocity=100, time=184),
    Message('note_on', channel=9, note=36, velocity=100, time=8),
    Message('note_off', channel=9, note=49, velocity=100, time=184),
    Message('note_off', channel=9, note=36, velocity=100, time=0),
    Message('note_on', channel=9, note=51, velocity=100, time=8),
    Message('note_on', channel=9, note=36, velocity=100, time=0),
    Message('note_on', channel=9, note=38, velocity=100, time=0),
    Message('note_off', channel=9, note=36, velocity=100, time=184),
    Message('note_on', channel=9, note=36, velocity=100, time=8),
    Message('note_off', channel=9, note=51, velocity=100, time=184),
    Message('note_off', channel=9, note=38, velocity=100, time=0),
    Message('note_off', channel=9, note=36, velocity=100, time=0),
    Message('note_on', channel=9, note=36, velocity=100, time=8),
    Message('note_on', channel=9, note=51, velocity=100, time=0),
    Message('note_off', channel=9, note=36, velocity=100, time=184),
    Message('note_on', channel=9, note=36, velocity=100, time=8),
    Message('note_off', channel=9, note=51, velocity=100, time=184),
    Message('note_off', channel=9, note=36, velocity=100, time=0),
    Message('note_on', channel=9, note=36, velocity=100, time=8),
    Message('note_on', channel=9, note=38, velocity=100, time=0),
    Message('note_on', channel=9, note=51, velocity=100, time=0),
    Message('note_off', channel=9, note=36, velocity=100, time=184),
    Message('note_on', channel=9, note=36, velocity=100, time=8),
    Message('note_off', channel=9, note=38, velocity=100, time=184),
    Message('note_off', channel=9, note=51, velocity=100, time=0),
    Message('note_off', channel=9, note=36, velocity=100, time=0),
    Message('note_on', channel=9, note=36, velocity=100, time=8),
    Message('note_on', channel=9, note=51, velocity=100, time=0),
    Message('note_off', channel=9, note=36, velocity=100, time=184),
    Message('note_on', channel=9, note=36, velocity=100, time=8),
    Message('note_off', channel=9, note=51, velocity=100, time=184),
    Message('note_off', channel=9, note=36, velocity=100, time=0),
    Message('note_on', channel=9, note=51, velocity=100, time=8),
    Message('note_on', channel=9, note=38, velocity=100, time=0),
    Message('note_on', channel=9, note=36, velocity=100, time=0),
    Message('note_off', channel=9, note=36, velocity=100, time=184),
    Message('note_on', channel=9, note=36, velocity=100, time=8),
    Message('note_off', channel=9, note=51, velocity=100, time=184),
    Message('note_off', channel=9, note=38, velocity=100, time=0),
    Message('note_off', channel=9, note=36, velocity=100, time=0),
    Message('note_on', channel=9, note=36, velocity=100, time=8),
    Message('note_on', channel=9, note=51, velocity=100, time=0),
    Message('note_off', channel=9, note=36, velocity=100, time=184),
    Message('note_on', channel=9, note=36, velocity=100, time=8),
    Message('note_off', channel=9, note=51, velocity=100, time=184),
    Message('note_off', channel=9, note=36, velocity=100, time=0),
    Message('note_on', channel=9, note=36, velocity=100, time=8),
    Message('note_on', channel=9, note=38, velocity=100, time=0),
    Message('note_on', channel=9, note=51, velocity=100, time=0),
    Message('note_off', channel=9, note=36, velocity=100, time=184),
    Message('note_on', channel=9, note=36, velocity=100, time=8),
    Message('note_off', channel=9, note=38, velocity=100, time=184),
    Message('note_off', channel=9, note=51, velocity=100, time=0),
    Message('note_off', channel=9, note=36, velocity=100, time=0),
    Message('note_on', channel=9, note=36, velocity=100, time=8),
    Message('note_on', channel=9, note=51, velocity=100, time=0),
    Message('note_off', channel=9, note=36, velocity=100, time=184),
    Message('note_on', channel=9, note=36, velocity=100, time=8),
    Message('note_off', channel=9, note=51, velocity=100, time=184),
    Message('note_off', channel=9, note=36, velocity=100, time=0),
    Message('note_on', channel=9, note=36, velocity=100, time=8),
    Message('note_on', channel=9, note=38, velocity=100, time=0),
    Message('note_on', channel=9, note=51, velocity=100, time=0),
    Message('note_off', channel=9, note=36, velocity=100, time=184),
    Message('note_on', channel=9, note=36, velocity=100, time=8),
    Message('note_off', channel=9, note=38, velocity=100, time=184),
    Message('note_off', channel=9, note=51, velocity=100, time=0),
    Message('note_off', channel=9, note=36, velocity=100, time=0),
    Message('note_on', channel=9, note=36, velocity=100, time=8),
    Message('note_on', channel=9, note=51, velocity=100, time=0),
    Message('note_off', channel=9, note=36, velocity=100, time=184),
    Message('note_on', channel=9, note=36, velocity=100, time=8),
    Message('note_off', channel=9, note=51, velocity=100, time=184),
    Message('note_off', channel=9, note=36, velocity=100, time=0),
    Message('note_on', channel=9, note=51, velocity=100, time=8),
    Message('note_on', channel=9, note=36, velocity=100, time=0),
    Message('note_on', channel=9, note=38, velocity=100, time=0),
    Message('note_off', channel=9, note=36, velocity=100, time=184),
    Message('note_on', channel=9, note=36, velocity=100, time=8),
    Message('note_off', channel=9, note=51, velocity=100, time=184),
    Message('note_off', channel=9, note=38, velocity=100, time=0),
    Message('note_off', channel=9, note=36, velocity=100, time=0),
    Message('note_on', channel=9, note=36, velocity=100, time=8),
    Message('note_on', channel=9, note=51, velocity=100, time=0),
    Message('note_off', channel=9, note=36, velocity=100, time=184),
    Message('note_on', channel=9, note=36, velocity=100, time=8),
    Message('note_off', channel=9, note=51, velocity=100, time=184),
    Message('note_off', channel=9, note=36, velocity=100, time=0),
    Message('note_on', channel=9, note=36, velocity=100, time=8),
    Message('note_on', channel=9, note=38, velocity=100, time=0),
    Message('note_on', channel=9, note=51, velocity=100, time=0),
    Message('note_off', channel=9, note=36, velocity=100, time=184),
    Message('note_on', channel=9, note=36, velocity=100, time=8),
    Message('note_off', channel=9, note=38, velocity=100, time=184),
    Message('note_off', channel=9, note=51, velocity=100, time=0),
    Message('note_off', channel=9, note=36, velocity=100, time=4),
    Message('note_on', channel=9, note=38, velocity=100, time=4),
    Message('note_off', channel=9, note=38, velocity=100, time=184),
    Message('note_on', channel=9, note=38, velocity=100, time=8),
    Message('note_off', channel=9, note=38, velocity=100, time=188),
    Message('note_on', channel=9, note=38, velocity=100, time=4),
    Message('note_off', channel=9, note=38, velocity=100, time=188),
    Message('note_on', channel=9, note=38, velocity=100, time=4),
    Message('note_off', channel=9, note=38, velocity=100, time=188),
    Message('note_on', channel=9, note=36, velocity=100, time=4),
    Message('note_on', channel=9, note=49, velocity=100, time=0),
    Message('note_off', channel=9, note=36, velocity=100, time=184),
    Message('note_on', channel=9, note=36, velocity=100, time=8),
    Message('note_off', channel=9, note=49, velocity=100, time=184),
    Message('note_off', channel=9, note=36, velocity=100, time=0),
    Message('note_on', channel=9, note=51, velocity=100, time=8),
    Message('note_on', channel=9, note=36, velocity=100, time=0),
    Message('note_on', channel=9, note=38, velocity=100, time=0),
    Message('note_off', channel=9, note=36, velocity=100, time=184),
    Message('note_on', channel=9, note=36, velocity=100, time=8),
    Message('note_off', channel=9, note=51, velocity=100, time=184),
    Message('note_off', channel=9, note=38, velocity=100, time=0),
    Message('note_off', channel=9, note=36, velocity=100, time=0),
    Message('note_on', channel=9, note=36, velocity=100, time=8),
    Message('note_on', channel=9, note=51, velocity=100, time=0),
    Message('note_off', channel=9, note=36, velocity=100, time=184),
    Message('note_on', channel=9, note=36, velocity=100, time=8),
    Message('note_off', channel=9, note=51, velocity=100, time=184),
    Message('note_off', channel=9, note=36, velocity=100, time=0),
    Message('note_on', channel=9, note=36, velocity=100, time=8),
    Message('note_on', channel=9, note=38, velocity=100, time=0),
    Message('note_on', channel=9, note=51, velocity=100, time=0),
    Message('note_off', channel=9, note=36, velocity=100, time=184),
    Message('note_on', channel=9, note=36, velocity=100, time=8),
    Message('note_off', channel=9, note=38, velocity=100, time=184),
    Message('note_off', channel=9, note=51, velocity=100, time=0),
    Message('note_off', channel=9, note=36, velocity=100, time=0),
    Message('note_on', channel=9, note=36, velocity=100, time=8),
    Message('note_on', channel=9, note=51, velocity=100, time=0),
    Message('note_off', channel=9, note=36, velocity=100, time=184),
    Message('note_on', channel=9, note=36, velocity=100, time=8),
    Message('note_off', channel=9, note=51, velocity=100, time=184),
    Message('note_off', channel=9, note=36, velocity=100, time=0),
    Message('note_on', channel=9, note=51, velocity=100, time=8),
    Message('note_on', channel=9, note=38, velocity=100, time=0),
    Message('note_on', channel=9, note=36, velocity=100, time=0),
    Message('note_off', channel=9, note=36, velocity=100, time=184),
    Message('note_on', channel=9, note=36, velocity=100, time=8),
    Message('note_off', channel=9, note=51, velocity=100, time=184),
    Message('note_off', channel=9, note=38, velocity=100, time=0),
    Message('note_off', channel=9, note=36, velocity=100, time=0),
    Message('note_on', channel=9, note=36, velocity=100, time=8),
    Message('note_on', channel=9, note=51, velocity=100, time=0),
    Message('note_off', channel=9, note=36, velocity=100, time=184),
    Message('note_on', channel=9, note=36, velocity=100, time=8),
    Message('note_off', channel=9, note=51, velocity=100, time=184),
    Message('note_off', channel=9, note=36, velocity=100, time=0),
    Message('note_on', channel=9, note=36, velocity=100, time=8),
    Message('note_on', channel=9, note=38, velocity=100, time=0),
    Message('note_on', channel=9, note=51, velocity=100, time=0),
    Message('note_off', channel=9, note=36, velocity=100, time=184),
    Message('note_on', channel=9, note=36, velocity=100, time=8),
    Message('note_off', channel=9, note=38, velocity=100, time=184),
    Message('note_off', channel=9, note=51, velocity=100, time=0),
    Message('note_off', channel=9, note=36, velocity=100, time=0),
    Message('note_on', channel=9, note=51, velocity=100, time=8),
    Message('note_on', channel=9, note=36, velocity=100, time=0),
    Message('note_off', channel=9, note=36, velocity=100, time=184),
    Message('note_on', channel=9, note=36, velocity=100, time=8),
    Message('note_off', channel=9, note=51, velocity=100, time=184),
    Message('note_off', channel=9, note=36, velocity=100, time=0),
    Message('note_on', channel=9, note=38, velocity=100, time=8),
    Message('note_on', channel=9, note=51, velocity=100, time=0),
    Message('note_on', channel=9, note=36, velocity=100, time=0),
    Message('note_off', channel=9, note=36, velocity=100, time=184),
    Message('note_on', channel=9, note=36, velocity=100, time=8),
    Message('note_off', channel=9, note=38, velocity=100, time=184),
    Message('note_off', channel=9, note=51, velocity=100, time=0),
    Message('note_off', channel=9, note=36, velocity=100, time=0),
    Message('note_on', channel=9, note=36, velocity=100, time=8),
    Message('note_on', channel=9, note=51, velocity=100, time=0),
    Message('note_off', channel=9, note=36, velocity=100, time=184),
    Message('note_on', channel=9, note=36, velocity=100, time=8),
    Message('note_off', channel=9, note=51, velocity=100, time=184),
    Message('note_off', channel=9, note=36, velocity=100, time=0),
    Message('note_on', channel=9, note=36, velocity=100, time=8),
    Message('note_on', channel=9, note=38, velocity=100, time=0),
    Message('note_on', channel=9, note=51, velocity=100, time=0),
    Message('note_off', channel=9, note=36, velocity=100, time=184),
    Message('note_on', channel=9, note=36, velocity=100, time=8),
    Message('note_off', channel=9, note=38, velocity=100, time=184),
    Message('note_off', channel=9, note=51, velocity=100, time=0),
    Message('note_off', channel=9, note=36, velocity=100, time=0),
    Message('note_on', channel=9, note=36, velocity=100, time=8),
    Message('note_on', channel=9, note=51, velocity=100, time=0),
    Message('note_off', channel=9, note=36, velocity=100, time=184),
    Message('note_on', channel=9, note=36, velocity=100, time=8),
    Message('note_off', channel=9, note=51, velocity=100, time=184),
    Message('note_off', channel=9, note=36, velocity=100, time=0),
    Message('note_on', channel=9, note=51, velocity=100, time=8),
    Message('note_on', channel=9, note=36, velocity=100, time=0),
    Message('note_on', channel=9, note=38, velocity=100, time=0),
    Message('note_off', channel=9, note=36, velocity=100, time=184),
    Message('note_on', channel=9, note=36, velocity=100, time=8),
    Message('note_off', channel=9, note=51, velocity=100, time=184),
    Message('note_off', channel=9, note=38, velocity=100, time=0),
    Message('note_off', channel=9, note=36, velocity=100, time=0),
    Message('note_on', channel=9, note=49, velocity=100, time=8),
    Message('note_on', channel=9, note=38, velocity=100, time=0),
    Message('note_off', channel=9, note=49, velocity=100, time=376),
    Message('note_off', channel=9, note=38, velocity=100, time=0),
    Message('note_on', channel=9, note=49, velocity=100, time=8),
    Message('note_on', channel=9, note=38, velocity=100, time=0),
    Message('note_off', channel=9, note=49, velocity=100, time=376),
    Message('note_off', channel=9, note=38, velocity=100, time=0),
    Message('note_on', channel=9, note=36, velocity=100, time=8),
    Message('note_on', channel=9, note=49, velocity=100, time=0),
    Message('note_off', channel=9, note=36, velocity=100, time=184),
    Message('note_on', channel=9, note=36, velocity=100, time=8),
    Message('note_off', channel=9, note=49, velocity=100, time=184),
    Message('note_off', channel=9, note=36, velocity=100, time=0),
    Message('note_on', channel=9, note=51, velocity=100, time=8),
    Message('note_on', channel=9, note=36, velocity=100, time=0),
    Message('note_on', channel=9, note=38, velocity=100, time=0),
    Message('note_off', channel=9, note=36, velocity=100, time=184),
    Message('note_on', channel=9, note=36, velocity=100, time=8),
    Message('note_off', channel=9, note=51, velocity=100, time=184),
    Message('note_off', channel=9, note=38, velocity=100, time=0),
    Message('note_off', channel=9, note=36, velocity=100, time=0),
    Message('note_on', channel=9, note=36, velocity=100, time=8),
    Message('note_on', channel=9, note=51, velocity=100, time=0),
    Message('note_off', channel=9, note=36, velocity=100, time=184),
    Message('note_on', channel=9, note=36, velocity=100, time=8),
    Message('note_off', channel=9, note=51, velocity=100, time=184),
    Message('note_off', channel=9, note=36, velocity=100, time=0),
    Message('note_on', channel=9, note=36, velocity=100, time=8),
    Message('note_on', channel=9, note=38, velocity=100, time=0),
    Message('note_on', channel=9, note=51, velocity=100, time=0),
    Message('note_off', channel=9, note=36, velocity=100, time=184),
    Message('note_on', channel=9, note=36, velocity=100, time=8),
    Message('note_off', channel=9, note=38, velocity=100, time=184),
    Message('note_off', channel=9, note=51, velocity=100, time=0),
    Message('note_off', channel=9, note=36, velocity=100, time=0),
    Message('note_on', channel=9, note=36, velocity=100, time=8),
    Message('note_on', channel=9, note=51, velocity=100, time=0),
    Message('note_off', channel=9, note=36, velocity=100, time=184),
    Message('note_on', channel=9, note=36, velocity=100, time=8),
    Message('note_off', channel=9, note=51, velocity=100, time=184),
    Message('note_off', channel=9, note=36, velocity=100, time=0),
    Message('note_on', channel=9, note=51, velocity=100, time=8),
    Message('note_on', channel=9, note=38, velocity=100, time=0),
    Message('note_on', channel=9, note=36, velocity=100, time=0),
    Message('note_off', channel=9, note=36, velocity=100, time=184),
    Message('note_on', channel=9, note=36, velocity=100, time=8),
    Message('note_off', channel=9, note=51, velocity=100, time=184),
    Message('note_off', channel=9, note=38, velocity=100, time=0),
    Message('note_off', channel=9, note=36, velocity=100, time=0),
    Message('note_on', channel=9, note=36, velocity=100, time=8),
    Message('note_on', channel=9, note=51, velocity=100, time=0),
    Message('note_off', channel=9, note=36, velocity=100, time=184),
    Message('note_on', channel=9, note=36, velocity=100, time=8),
    Message('note_off', channel=9, note=51, velocity=100, time=184),
    Message('note_off', channel=9, note=36, velocity=100, time=0),
    Message('note_on', channel=9, note=36, velocity=100, time=8),
    Message('note_on', channel=9, note=38, velocity=100, time=0),
    Message('note_on', channel=9, note=51, velocity=100, time=0),
    Message('note_off', channel=9, note=36, velocity=100, time=184),
    Message('note_on', channel=9, note=36, velocity=100, time=8),
    Message('note_off', channel=9, note=38, velocity=100, time=184),
    Message('note_off', channel=9, note=51, velocity=100, time=0),
    Message('note_off', channel=9, note=36, velocity=100, time=0),
    Message('note_on', channel=9, note=36, velocity=100, time=8),
    Message('note_on', channel=9, note=51, velocity=100, time=0),
    Message('note_off', channel=9, note=36, velocity=100, time=184),
    Message('note_on', channel=9, note=36, velocity=100, time=8),
    Message('note_off', channel=9, note=51, velocity=100, time=184),
    Message('note_off', channel=9, note=36, velocity=100, time=0),
    Message('note_on', channel=9, note=36, velocity=100, time=8),
    Message('note_on', channel=9, note=38, velocity=100, time=0),
    Message('note_on', channel=9, note=51, velocity=100, time=0),
    Message('note_off', channel=9, note=36, velocity=100, time=184),
    Message('note_on', channel=9, note=36, velocity=100, time=8),
    Message('note_off', channel=9, note=38, velocity=100, time=184),
    Message('note_off', channel=9, note=51, velocity=100, time=0),
    Message('note_off', channel=9, note=36, velocity=100, time=0),
    Message('note_on', channel=9, note=36, velocity=100, time=8),
    Message('note_on', channel=9, note=51, velocity=100, time=0),
    Message('note_off', channel=9, note=36, velocity=100, time=184),
    Message('note_on', channel=9, note=36, velocity=100, time=8),
    Message('note_off', channel=9, note=51, velocity=100, time=184),
    Message('note_off', channel=9, note=36, velocity=100, time=0),
    Message('note_on', channel=9, note=51, velocity=100, time=8),
    Message('note_on', channel=9, note=36, velocity=100, time=0),
    Message('note_on', channel=9, note=38, velocity=100, time=0),
    Message('note_off', channel=9, note=36, velocity=100, time=184),
    Message('note_on', channel=9, note=36, velocity=100, time=8),
    Message('note_off', channel=9, note=51, velocity=100, time=184),
    Message('note_off', channel=9, note=38, velocity=100, time=0),
    Message('note_off', channel=9, note=36, velocity=100, time=0),
    Message('note_on', channel=9, note=36, velocity=100, time=8),
    Message('note_on', channel=9, note=51, velocity=100, time=0),
    Message('note_off', channel=9, note=36, velocity=100, time=184),
    Message('note_on', channel=9, note=36, velocity=100, time=8),
    Message('note_off', channel=9, note=51, velocity=100, time=184),
    Message('note_off', channel=9, note=36, velocity=100, time=0),
    Message('note_on', channel=9, note=36, velocity=100, time=8),
    Message('note_on', channel=9, note=38, velocity=100, time=0),
    Message('note_on', channel=9, note=51, velocity=100, time=0),
    Message('note_off', channel=9, note=36, velocity=100, time=184),
    Message('note_on', channel=9, note=36, velocity=100, time=8),
    Message('note_off', channel=9, note=36, velocity=100, time=88),
    Message('note_on', channel=9, note=36, velocity=100, time=8),
    Message('note_off', channel=9, note=38, velocity=100, time=88),
    Message('note_off', channel=9, note=51, velocity=100, time=0),
    Message('note_off', channel=9, note=36, velocity=100, time=0),
    Message('note_on', channel=9, note=51, velocity=100, time=8),
    Message('note_on', channel=9, note=38, velocity=100, time=0),
    Message('note_off', channel=9, note=51, velocity=100, time=184),
    Message('note_off', channel=9, note=38, velocity=100, time=0),
    Message('note_on', channel=9, note=36, velocity=100, time=8),
    Message('note_on', channel=9, note=49, velocity=100, time=0),
    Message('note_off', channel=9, note=36, velocity=100, time=184),
    Message('note_off', channel=9, note=49, velocity=100, time=0),
    Message('note_on', channel=9, note=49, velocity=100, time=392),
    Message('note_on', channel=9, note=36, velocity=100, time=0),
    Message('note_off', channel=9, note=49, velocity=100, time=376),
    Message('note_off', channel=9, note=36, velocity=100, time=0),
    Message('note_on', channel=9, note=42, velocity=100, time=8),
    Message('note_on', channel=9, note=38, velocity=100, time=0),
    Message('note_on', channel=9, note=36, velocity=100, time=0),
    Message('note_off', channel=9, note=42, velocity=100, time=184),
    Message('note_off', channel=9, note=38, velocity=100, time=0),
    Message('note_off', channel=9, note=36, velocity=100, time=0),
    Message('note_on', channel=9, note=36, velocity=100, time=8),
    Message('note_off', channel=9, note=36, velocity=100, time=184),
    Message('note_on', channel=9, note=42, velocity=100, time=8),
    Message('note_on', channel=9, note=36, velocity=100, time=0),
    Message('note_off', channel=9, note=42, velocity=100, time=184),
    Message('note_off', channel=9, note=36, velocity=100, time=0),
    Message('note_on', channel=9, note=36, velocity=100, time=8),
    Message('note_off', channel=9, note=36, velocity=100, time=184),
    Message('note_on', channel=9, note=38, velocity=100, time=8),
    Message('note_on', channel=9, note=42, velocity=100, time=0),
    Message('note_on', channel=9, note=36, velocity=100, time=0),
    Message('note_off', channel=9, note=38, velocity=100, time=184),
    Message('note_off', channel=9, note=42, velocity=100, time=0),
    Message('note_off', channel=9, note=36, velocity=100, time=0),
    Message('note_on', channel=9, note=36, velocity=100, time=8),
    Message('note_off', channel=9, note=36, velocity=100, time=184),
    Message('note_on', channel=9, note=42, velocity=100, time=8),
    Message('note_on', channel=9, note=36, velocity=100, time=0),
    Message('note_off', channel=9, note=42, velocity=100, time=184),
    Message('note_off', channel=9, note=36, velocity=100, time=0),
    Message('note_on', channel=9, note=36, velocity=100, time=8),
    Message('note_off', channel=9, note=36, velocity=100, time=184),
    Message('note_on', channel=9, note=38, velocity=100, time=8),
    Message('note_on', channel=9, note=42, velocity=100, time=0),
    Message('note_on', channel=9, note=36, velocity=100, time=0),
    Message('note_off', channel=9, note=38, velocity=100, time=184),
    Message('note_off', channel=9, note=42, velocity=100, time=0),
    Message('note_off', channel=9, note=36, velocity=100, time=0),
    Message('note_on', channel=9, note=36, velocity=100, time=8),
    Message('note_off', channel=9, note=36, velocity=100, time=184),
    Message('note_on', channel=9, note=42, velocity=100, time=8),
    Message('note_on', channel=9, note=36, velocity=100, time=0),
    Message('note_off', channel=9, note=42, velocity=100, time=184),
    Message('note_off', channel=9, note=36, velocity=100, time=0),
    Message('note_on', channel=9, note=36, velocity=100, time=8),
    Message('note_off', channel=9, note=36, velocity=100, time=184),
    Message('note_on', channel=9, note=38, velocity=100, time=8),
    Message('note_on', channel=9, note=42, velocity=100, time=0),
    Message('note_on', channel=9, note=36, velocity=100, time=0),
    Message('note_off', channel=9, note=38, velocity=100, time=184),
    Message('note_off', channel=9, note=42, velocity=100, time=0),
    Message('note_off', channel=9, note=36, velocity=100, time=0),
    Message('note_on', channel=9, note=36, velocity=100, time=8),
    Message('note_off', channel=9, note=36, velocity=100, time=184),
    Message('note_on', channel=9, note=42, velocity=100, time=8),
    Message('note_on', channel=9, note=36, velocity=100, time=0),
    Message('note_off', channel=9, note=42, velocity=100, time=184),
    Message('note_off', channel=9, note=36, velocity=100, time=0),
    Message('note_on', channel=9, note=36, velocity=100, time=8),
    Message('note_off', channel=9, note=36, velocity=100, time=184),
    Message('note_on', channel=9, note=38, velocity=100, time=8),
    Message('note_on', channel=9, note=42, velocity=100, time=0),
    Message('note_on', channel=9, note=36, velocity=100, time=0),
    Message('note_off', channel=9, note=38, velocity=100, time=184),
    Message('note_off', channel=9, note=42, velocity=100, time=0),
    Message('note_off', channel=9, note=36, velocity=100, time=0),
    Message('note_on', channel=9, note=36, velocity=100, time=8),
    Message('note_off', channel=9, note=36, velocity=100, time=184),
    Message('note_on', channel=9, note=42, velocity=100, time=8),
    Message('note_on', channel=9, note=36, velocity=100, time=0),
    Message('note_off', channel=9, note=42, velocity=100, time=184),
    Message('note_off', channel=9, note=36, velocity=100, time=0),
    Message('note_on', channel=9, note=36, velocity=100, time=8),
    Message('note_off', channel=9, note=36, velocity=100, time=184),
    Message('note_on', channel=9, note=38, velocity=100, time=8),
    Message('note_on', channel=9, note=42, velocity=100, time=0),
    Message('note_on', channel=9, note=36, velocity=100, time=0),
    Message('note_off', channel=9, note=38, velocity=100, time=184),
    Message('note_off', channel=9, note=42, velocity=100, time=0),
    Message('note_off', channel=9, note=36, velocity=100, time=0),
    Message('note_on', channel=9, note=36, velocity=100, time=8),
    Message('note_off', channel=9, note=36, velocity=100, time=184),
    Message('note_on', channel=9, note=42, velocity=100, time=8),
    Message('note_on', channel=9, note=36, velocity=100, time=0),
    Message('note_off', channel=9, note=42, velocity=100, time=184),
    Message('note_off', channel=9, note=36, velocity=100, time=0),
    Message('note_on', channel=9, note=36, velocity=100, time=8),
    Message('note_off', channel=9, note=36, velocity=100, time=184),
    Message('note_on', channel=9, note=36, velocity=100, time=8),
    Message('note_on', channel=9, note=42, velocity=100, time=0),
    Message('note_on', channel=9, note=38, velocity=100, time=0),
    Message('note_off', channel=9, note=36, velocity=100, time=184),
    Message('note_off', channel=9, note=42, velocity=100, time=0),
    Message('note_off', channel=9, note=38, velocity=100, time=0),
    Message('note_on', channel=9, note=36, velocity=100, time=8),
    Message('note_off', channel=9, note=36, velocity=100, time=184),
    Message('note_on', channel=9, note=36, velocity=100, time=8),
    Message('note_on', channel=9, note=42, velocity=100, time=0),
    Message('note_off', channel=9, note=36, velocity=100, time=184),
    Message('note_off', channel=9, note=42, velocity=100, time=0),
    Message('note_on', channel=9, note=36, velocity=100, time=8),
    Message('note_off', channel=9, note=36, velocity=100, time=188),
    Message('note_on', channel=9, note=38, velocity=100, time=4),
    Message('note_on', channel=9, note=42, velocity=100, time=0),
    Message('note_on', channel=9, note=36, velocity=100, time=0),
    Message('note_off', channel=9, note=38, velocity=100, time=184),
    Message('note_off', channel=9, note=42, velocity=100, time=0),
    Message('note_off', channel=9, note=36, velocity=100, time=0),
    Message('note_on', channel=9, note=36, velocity=100, time=8),
    Message('note_off', channel=9, note=36, velocity=100, time=184),
    Message('note_on', channel=9, note=36, velocity=100, time=8),
    Message('note_on', channel=9, note=42, velocity=100, time=0),
    Message('note_off', channel=9, note=36, velocity=100, time=188),
    Message('note_on', channel=9, note=36, velocity=100, time=4),
    Message('note_off', channel=9, note=42, velocity=100, time=184),
    Message('note_off', channel=9, note=36, velocity=100, time=4),
    Message('note_on', channel=9, note=42, velocity=100, time=4),
    Message('note_on', channel=9, note=38, velocity=100, time=0),
    Message('note_on', channel=9, note=36, velocity=100, time=0),
    Message('note_off', channel=9, note=42, velocity=100, time=184),
    Message('note_off', channel=9, note=38, velocity=100, time=0),
    Message('note_off', channel=9, note=36, velocity=100, time=0),
    Message('note_on', channel=9, note=36, velocity=100, time=8),
    Message('note_off', channel=9, note=36, velocity=100, time=184),
    Message('note_on', channel=9, note=42, velocity=100, time=8),
    Message('note_on', channel=9, note=36, velocity=100, time=0),
    Message('note_off', channel=9, note=42, velocity=100, time=184),
    Message('note_off', channel=9, note=36, velocity=100, time=0),
    Message('note_on', channel=9, note=36, velocity=100, time=8),
    Message('note_off', channel=9, note=36, velocity=100, time=184),
    Message('note_on', channel=9, note=38, velocity=100, time=8),
    Message('note_on', channel=9, note=42, velocity=100, time=0),
    Message('note_on', channel=9, note=36, velocity=100, time=0),
    Message('note_off', channel=9, note=38, velocity=100, time=184),
    Message('note_off', channel=9, note=42, velocity=100, time=0),
    Message('note_off', channel=9, note=36, velocity=100, time=0),
    Message('note_on', channel=9, note=36, velocity=100, time=8),
    Message('note_off', channel=9, note=36, velocity=100, time=184),
    Message('note_on', channel=9, note=42, velocity=100, time=8),
    Message('note_on', channel=9, note=36, velocity=100, time=0),
    Message('note_off', channel=9, note=42, velocity=100, time=184),
    Message('note_off', channel=9, note=36, velocity=100, time=0),
    Message('note_on', channel=9, note=36, velocity=100, time=8),
    Message('note_off', channel=9, note=36, velocity=100, time=184),
    Message('note_on', channel=9, note=38, velocity=100, time=8),
    Message('note_on', channel=9, note=42, velocity=100, time=0),
    Message('note_on', channel=9, note=36, velocity=100, time=0),
    Message('note_off', channel=9, note=38, velocity=100, time=184),
    Message('note_off', channel=9, note=42, velocity=100, time=0),
    Message('note_off', channel=9, note=36, velocity=100, time=0),
    Message('note_on', channel=9, note=36, velocity=100, time=8),
    Message('note_off', channel=9, note=36, velocity=100, time=184),
    Message('note_on', channel=9, note=42, velocity=100, time=8),
    Message('note_on', channel=9, note=36, velocity=100, time=0),
    Message('note_off', channel=9, note=42, velocity=100, time=184),
    Message('note_off', channel=9, note=36, velocity=100, time=0),
    Message('note_on', channel=9, note=36, velocity=100, time=8),
    Message('note_off', channel=9, note=36, velocity=100, time=184),
    Message('note_on', channel=9, note=38, velocity=100, time=8),
    Message('note_on', channel=9, note=42, velocity=100, time=0),
    Message('note_on', channel=9, note=36, velocity=100, time=0),
    Message('note_off', channel=9, note=38, velocity=100, time=184),
    Message('note_off', channel=9, note=42, velocity=100, time=0),
    Message('note_off', channel=9, note=36, velocity=100, time=0),
    Message('note_on', channel=9, note=36, velocity=100, time=8),
    Message('note_off', channel=9, note=36, velocity=100, time=184),
    Message('note_on', channel=9, note=42, velocity=100, time=8),
    Message('note_on', channel=9, note=36, velocity=100, time=0),
    Message('note_off', channel=9, note=42, velocity=100, time=184),
    Message('note_off', channel=9, note=36, velocity=100, time=0),
    Message('note_on', channel=9, note=36, velocity=100, time=8),
    Message('note_off', channel=9, note=36, velocity=100, time=184),
    Message('note_on', channel=9, note=38, velocity=100, time=8),
    Message('note_on', channel=9, note=42, velocity=100, time=0),
    Message('note_on', channel=9, note=36, velocity=100, time=0),
    Message('note_off', channel=9, note=38, velocity=100, time=184),
    Message('note_off', channel=9, note=42, velocity=100, time=0),
    Message('note_off', channel=9, note=36, velocity=100, time=0),
    Message('note_on', channel=9, note=36, velocity=100, time=8),
    Message('note_off', channel=9, note=36, velocity=100, time=184),
    Message('note_on', channel=9, note=42, velocity=100, time=8),
    Message('note_on', channel=9, note=36, velocity=100, time=0),
    Message('note_off', channel=9, note=42, velocity=100, time=184),
    Message('note_off', channel=9, note=36, velocity=100, time=0),
    Message('note_on', channel=9, note=36, velocity=100, time=8),
    Message('note_off', channel=9, note=36, velocity=100, time=184),
    Message('note_on', channel=9, note=38, velocity=100, time=8),
    Message('note_on', channel=9, note=42, velocity=100, time=0),
    Message('note_on', channel=9, note=36, velocity=100, time=0),
    Message('note_off', channel=9, note=38, velocity=100, time=184),
    Message('note_off', channel=9, note=42, velocity=100, time=0),
    Message('note_off', channel=9, note=36, velocity=100, time=0),
    Message('note_on', channel=9, note=36, velocity=100, time=8),
    Message('note_off', channel=9, note=36, velocity=100, time=184),
    Message('note_on', channel=9, note=47, velocity=100, time=8),
    Message('note_on', channel=9, note=45, velocity=100, time=0),
    Message('note_on', channel=9, note=36, velocity=100, time=0),
    Message('note_off', channel=9, note=36, velocity=100, time=184),
    Message('note_off', channel=9, note=47, velocity=100, time=4),
    Message('note_off', channel=9, note=45, velocity=100, time=0),
    Message('note_on', channel=9, note=47, velocity=100, time=4),
    Message('note_on', channel=9, note=45, velocity=100, time=0),
    Message('note_on', channel=9, note=36, velocity=100, time=0),
    Message('note_off', channel=9, note=36, velocity=100, time=184),
    Message('note_off', channel=9, note=47, velocity=100, time=4),
    Message('note_off', channel=9, note=45, velocity=100, time=0),
    Message('note_on', channel=9, note=47, velocity=100, time=4),
    Message('note_on', channel=9, note=45, velocity=100, time=0),
    Message('note_on', channel=9, note=36, velocity=100, time=0),
    Message('note_off', channel=9, note=36, velocity=100, time=184),
    Message('note_off', channel=9, note=47, velocity=100, time=4),
    Message('note_off', channel=9, note=45, velocity=100, time=0),
    Message('note_on', channel=9, note=47, velocity=100, time=4),
    Message('note_on', channel=9, note=45, velocity=100, time=0),
    Message('note_on', channel=9, note=36, velocity=100, time=0),
    Message('note_off', channel=9, note=36, velocity=100, time=184),
    Message('note_off', channel=9, note=47, velocity=100, time=4),
    Message('note_off', channel=9, note=45, velocity=100, time=0),
    Message('note_on', channel=9, note=47, velocity=100, time=4),
    Message('note_on', channel=9, note=45, velocity=100, time=0),
    Message('note_on', channel=9, note=36, velocity=100, time=0),
    Message('note_off', channel=9, note=36, velocity=100, time=184),
    Message('note_off', channel=9, note=47, velocity=100, time=4),
    Message('note_off', channel=9, note=45, velocity=100, time=0),
    Message('note_on', channel=9, note=45, velocity=100, time=4),
    Message('note_on', channel=9, note=43, velocity=100, time=0),
    Message('note_on', channel=9, note=36, velocity=100, time=0),
    Message('note_off', channel=9, note=45, velocity=100, time=188),
    Message('note_off', channel=9, note=43, velocity=100, time=0),
    Message('note_off', channel=9, note=36, velocity=100, time=0),
    Message('note_on', channel=9, note=45, velocity=100, time=4),
    Message('note_on', channel=9, note=43, velocity=100, time=0),
    Message('note_on', channel=9, note=36, velocity=100, time=0),
    Message('note_off', channel=9, note=36, velocity=100, time=184),
    Message('note_off', channel=9, note=45, velocity=100, time=4),
    Message('note_off', channel=9, note=43, velocity=100, time=0),
    Message('note_on', channel=9, note=45, velocity=100, time=4),
    Message('note_on', channel=9, note=43, velocity=100, time=0),
    Message('note_on', channel=9, note=36, velocity=100, time=0),
    Message('note_off', channel=9, note=36, velocity=100, time=184),
    Message('note_off', channel=9, note=45, velocity=100, time=4),
    Message('note_off', channel=9, note=43, velocity=100, time=0),
    Message('note_on', channel=9, note=43, velocity=100, time=4),
    Message('note_on', channel=9, note=41, velocity=100, time=0),
    Message('note_on', channel=9, note=36, velocity=100, time=0),
    Message('note_off', channel=9, note=43, velocity=100, time=188),
    Message('note_off', channel=9, note=41, velocity=100, time=0),
    Message('note_off', channel=9, note=36, velocity=100, time=0),
    Message('note_on', channel=9, note=36, velocity=100, time=4),
    Message('note_off', channel=9, note=36, velocity=100, time=188),
    Message('note_on', channel=9, note=49, velocity=100, time=4),
    Message('note_on', channel=9, note=38, velocity=100, time=0),
    Message('note_on', channel=9, note=36, velocity=100, time=0),
    Message('note_off', channel=9, note=49, velocity=100, time=184),
    Message('note_off', channel=9, note=38, velocity=100, time=0),
    Message('note_off', channel=9, note=36, velocity=100, time=0),
    Message('note_on', channel=9, note=36, velocity=100, time=8),
    Message('note_off', channel=9, note=36, velocity=100, time=184),
    Message('note_on', channel=9, note=42, velocity=100, time=8),
    Message('note_on', channel=9, note=36, velocity=100, time=0),
    Message('note_off', channel=9, note=42, velocity=100, time=184),
    Message('note_off', channel=9, note=36, velocity=100, time=0),
    Message('note_on', channel=9, note=36, velocity=100, time=8),
    Message('note_off', channel=9, note=36, velocity=100, time=184),
    Message('note_on', channel=9, note=38, velocity=100, time=8),
    Message('note_on', channel=9, note=42, velocity=100, time=0),
    Message('note_on', channel=9, note=36, velocity=100, time=0),
    Message('note_off', channel=9, note=38, velocity=100, time=184),
    Message('note_off', channel=9, note=42, velocity=100, time=0),
    Message('note_off', channel=9, note=36, velocity=100, time=0),
    Message('note_on', channel=9, note=36, velocity=100, time=8),
    Message('note_off', channel=9, note=36, velocity=100, time=184),
    Message('note_on', channel=9, note=42, velocity=100, time=8),
    Message('note_on', channel=9, note=36, velocity=100, time=0),
    Message('note_off', channel=9, note=42, velocity=100, time=184),
    Message('note_off', channel=9, note=36, velocity=100, time=0),
    Message('note_on', channel=9, note=36, velocity=100, time=8),
    Message('note_off', channel=9, note=36, velocity=100, time=184),
    Message('note_on', channel=9, note=38, velocity=100, time=8),
    Message('note_on', channel=9, note=42, velocity=100, time=0),
    Message('note_on', channel=9, note=36, velocity=100, time=0),
    Message('note_off', channel=9, note=38, velocity=100, time=184),
    Message('note_off', channel=9, note=42, velocity=100, time=0),
    Message('note_off', channel=9, note=36, velocity=100, time=0),
    Message('note_on', channel=9, note=36, velocity=100, time=8),
    Message('note_off', channel=9, note=36, velocity=100, time=184),
    Message('note_on', channel=9, note=42, velocity=100, time=8),
    Message('note_on', channel=9, note=36, velocity=100, time=0),
    Message('note_off', channel=9, note=42, velocity=100, time=184),
    Message('note_off', channel=9, note=36, velocity=100, time=0),
    Message('note_on', channel=9, note=36, velocity=100, time=8),
    Message('note_off', channel=9, note=36, velocity=100, time=184),
    Message('note_on', channel=9, note=38, velocity=100, time=8),
    Message('note_on', channel=9, note=42, velocity=100, time=0),
    Message('note_on', channel=9, note=36, velocity=100, time=0),
    Message('note_off', channel=9, note=38, velocity=100, time=184),
    Message('note_off', channel=9, note=42, velocity=100, time=0),
    Message('note_off', channel=9, note=36, velocity=100, time=0),
    Message('note_on', channel=9, note=36, velocity=100, time=8),
    Message('note_off', channel=9, note=36, velocity=100, time=184),
    Message('note_on', channel=9, note=42, velocity=100, time=8),
    Message('note_on', channel=9, note=36, velocity=100, time=0),
    Message('note_off', channel=9, note=42, velocity=100, time=184),
    Message('note_off', channel=9, note=36, velocity=100, time=0),
    Message('note_on', channel=9, note=36, velocity=100, time=8),
    Message('note_off', channel=9, note=36, velocity=100, time=184),
    Message('note_on', channel=9, note=38, velocity=100, time=8),
    Message('note_on', channel=9, note=42, velocity=100, time=0),
    Message('note_on', channel=9, note=36, velocity=100, time=0),
    Message('note_off', channel=9, note=38, velocity=100, time=184),
    Message('note_off', channel=9, note=42, velocity=100, time=0),
    Message('note_off', channel=9, note=36, velocity=100, time=0),
    Message('note_on', channel=9, note=36, velocity=100, time=8),
    Message('note_off', channel=9, note=36, velocity=100, time=184),
    Message('note_on', channel=9, note=42, velocity=100, time=8),
    Message('note_on', channel=9, note=36, velocity=100, time=0),
    Message('note_off', channel=9, note=42, velocity=100, time=184),
    Message('note_off', channel=9, note=36, velocity=100, time=0),
    Message('note_on', channel=9, note=36, velocity=100, time=8),
    Message('note_off', channel=9, note=36, velocity=100, time=184),
    Message('note_on', channel=9, note=38, velocity=100, time=8),
    Message('note_on', channel=9, note=42, velocity=100, time=0),
    Message('note_on', channel=9, note=36, velocity=100, time=0),
    Message('note_off', channel=9, note=38, velocity=100, time=184),
    Message('note_off', channel=9, note=42, velocity=100, time=0),
    Message('note_off', channel=9, note=36, velocity=100, time=0),
    Message('note_on', channel=9, note=36, velocity=100, time=8),
    Message('note_off', channel=9, note=36, velocity=100, time=184),
    Message('note_on', channel=9, note=42, velocity=100, time=8),
    Message('note_on', channel=9, note=36, velocity=100, time=0),
    Message('note_off', channel=9, note=42, velocity=100, time=184),
    Message('note_off', channel=9, note=36, velocity=100, time=0),
    Message('note_on', channel=9, note=36, velocity=100, time=8),
    Message('note_off', channel=9, note=36, velocity=100, time=184),
    Message('note_on', channel=9, note=36, velocity=100, time=8),
    Message('note_on', channel=9, note=42, velocity=100, time=0),
    Message('note_on', channel=9, note=38, velocity=100, time=0),
    Message('note_off', channel=9, note=36, velocity=100, time=184),
    Message('note_off', channel=9, note=42, velocity=100, time=0),
    Message('note_off', channel=9, note=38, velocity=100, time=0),
    Message('note_on', channel=9, note=36, velocity=100, time=8),
    Message('note_off', channel=9, note=36, velocity=100, time=184),
    Message('note_on', channel=9, note=36, velocity=100, time=8),
    Message('note_on', channel=9, note=42, velocity=100, time=0),
    Message('note_off', channel=9, note=36, velocity=100, time=184),
    Message('note_off', channel=9, note=42, velocity=100, time=0),
    Message('note_on', channel=9, note=36, velocity=100, time=8),
    Message('note_off', channel=9, note=36, velocity=100, time=188),
    Message('note_on', channel=9, note=38, velocity=100, time=4),
    Message('note_on', channel=9, note=42, velocity=100, time=0),
    Message('note_on', channel=9, note=36, velocity=100, time=0),
    Message('note_off', channel=9, note=38, velocity=100, time=184),
    Message('note_off', channel=9, note=42, velocity=100, time=0),
    Message('note_off', channel=9, note=36, velocity=100, time=0),
    Message('note_on', channel=9, note=36, velocity=100, time=8),
    Message('note_off', channel=9, note=36, velocity=100, time=184),
    Message('note_on', channel=9, note=36, velocity=100, time=8),
    Message('note_on', channel=9, note=42, velocity=100, time=0),
    Message('note_off', channel=9, note=36, velocity=100, time=188),
    Message('note_on', channel=9, note=36, velocity=100, time=4),
    Message('note_off', channel=9, note=42, velocity=100, time=184),
    Message('note_off', channel=9, note=36, velocity=100, time=4),
    Message('note_on', channel=9, note=42, velocity=100, time=4),
    Message('note_on', channel=9, note=38, velocity=100, time=0),
    Message('note_on', channel=9, note=36, velocity=100, time=0),
    Message('note_off', channel=9, note=42, velocity=100, time=184),
    Message('note_off', channel=9, note=38, velocity=100, time=0),
    Message('note_off', channel=9, note=36, velocity=100, time=0),
    Message('note_on', channel=9, note=36, velocity=100, time=8),
    Message('note_off', channel=9, note=36, velocity=100, time=184),
    Message('note_on', channel=9, note=42, velocity=100, time=8),
    Message('note_on', channel=9, note=36, velocity=100, time=0),
    Message('note_off', channel=9, note=42, velocity=100, time=184),
    Message('note_off', channel=9, note=36, velocity=100, time=0),
    Message('note_on', channel=9, note=36, velocity=100, time=8),
    Message('note_off', channel=9, note=36, velocity=100, time=184),
    Message('note_on', channel=9, note=38, velocity=100, time=8),
    Message('note_on', channel=9, note=42, velocity=100, time=0),
    Message('note_on', channel=9, note=36, velocity=100, time=0),
    Message('note_off', channel=9, note=38, velocity=100, time=184),
    Message('note_off', channel=9, note=42, velocity=100, time=0),
    Message('note_off', channel=9, note=36, velocity=100, time=0),
    Message('note_on', channel=9, note=36, velocity=100, time=8),
    Message('note_off', channel=9, note=36, velocity=100, time=184),
    Message('note_on', channel=9, note=42, velocity=100, time=8),
    Message('note_on', channel=9, note=36, velocity=100, time=0),
    Message('note_off', channel=9, note=42, velocity=100, time=184),
    Message('note_off', channel=9, note=36, velocity=100, time=0),
    Message('note_on', channel=9, note=36, velocity=100, time=8),
    Message('note_off', channel=9, note=36, velocity=100, time=184),
    Message('note_on', channel=9, note=38, velocity=100, time=8),
    Message('note_on', channel=9, note=42, velocity=100, time=0),
    Message('note_on', channel=9, note=36, velocity=100, time=0),
    Message('note_off', channel=9, note=38, velocity=100, time=184),
    Message('note_off', channel=9, note=42, velocity=100, time=0),
    Message('note_off', channel=9, note=36, velocity=100, time=0),
    Message('note_on', channel=9, note=36, velocity=100, time=8),
    Message('note_off', channel=9, note=36, velocity=100, time=184),
    Message('note_on', channel=9, note=42, velocity=100, time=8),
    Message('note_on', channel=9, note=36, velocity=100, time=0),
    Message('note_off', channel=9, note=42, velocity=100, time=184),
    Message('note_off', channel=9, note=36, velocity=100, time=0),
    Message('note_on', channel=9, note=36, velocity=100, time=8),
    Message('note_off', channel=9, note=36, velocity=100, time=184),
    Message('note_on', channel=9, note=38, velocity=100, time=8),
    Message('note_on', channel=9, note=42, velocity=100, time=0),
    Message('note_on', channel=9, note=36, velocity=100, time=0),
    Message('note_off', channel=9, note=38, velocity=100, time=184),
    Message('note_off', channel=9, note=42, velocity=100, time=0),
    Message('note_off', channel=9, note=36, velocity=100, time=0),
    Message('note_on', channel=9, note=36, velocity=100, time=8),
    Message('note_off', channel=9, note=36, velocity=100, time=184),
    Message('note_on', channel=9, note=42, velocity=100, time=8),
    Message('note_on', channel=9, note=36, velocity=100, time=0),
    Message('note_off', channel=9, note=42, velocity=100, time=184),
    Message('note_off', channel=9, note=36, velocity=100, time=0),
    Message('note_on', channel=9, note=36, velocity=100, time=8),
    Message('note_off', channel=9, note=36, velocity=100, time=184),
    Message('note_on', channel=9, note=38, velocity=100, time=8),
    Message('note_on', channel=9, note=42, velocity=100, time=0),
    Message('note_on', channel=9, note=36, velocity=100, time=0),
    Message('note_off', channel=9, note=38, velocity=100, time=184),
    Message('note_off', channel=9, note=42, velocity=100, time=0),
    Message('note_off', channel=9, note=36, velocity=100, time=0),
    Message('note_on', channel=9, note=36, velocity=100, time=8),
    Message('note_off', channel=9, note=36, velocity=100, time=184),
    Message('note_on', channel=9, note=42, velocity=100, time=8),
    Message('note_on', channel=9, note=36, velocity=100, time=0),
    Message('note_off', channel=9, note=42, velocity=100, time=184),
    Message('note_off', channel=9, note=36, velocity=100, time=0),
    Message('note_on', channel=9, note=38, velocity=100, time=8),
    Message('note_on', channel=9, note=36, velocity=100, time=0),
    Message('note_off', channel=9, note=38, velocity=100, time=184),
    Message('note_off', channel=9, note=36, velocity=100, time=0),
    Message('note_on', channel=9, note=42, velocity=100, time=8),
    Message('note_on', channel=9, note=36, velocity=100, time=0),
    Message('note_off', channel=9, note=42, velocity=100, time=184),
    Message('note_off', channel=9, note=36, velocity=100, time=0),
    Message('note_on', channel=9, note=36, velocity=100, time=8),
    Message('note_off', channel=9, note=36, velocity=100, time=184),
    Message('note_on', channel=9, note=38, velocity=100, time=8),
    Message('note_on', channel=9, note=42, velocity=100, time=0),
    Message('note_on', channel=9, note=36, velocity=100, time=0),
    Message('note_off', channel=9, note=38, velocity=100, time=184),
    Message('note_off', channel=9, note=42, velocity=100, time=0),
    Message('note_off', channel=9, note=36, velocity=100, time=0),
    Message('note_on', channel=9, note=36, velocity=100, time=8),
    Message('note_off', channel=9, note=36, velocity=100, time=184),
    Message('note_on', channel=9, note=42, velocity=100, time=8),
    Message('note_on', channel=9, note=36, velocity=100, time=0),
    Message('note_off', channel=9, note=42, velocity=100, time=184),
    Message('note_off', channel=9, note=36, velocity=100, time=0),
    Message('note_on', channel=9, note=38, velocity=100, time=8),
    Message('note_on', channel=9, note=36, velocity=100, time=0),
    Message('note_off', channel=9, note=36, velocity=100, time=184),
    Message('note_off', channel=9, note=38, velocity=100, time=4),
    Message('note_on', channel=9, note=42, velocity=100, time=4),
    Message('note_on', channel=9, note=36, velocity=100, time=0),
    Message('note_off', channel=9, note=42, velocity=100, time=184),
    Message('note_off', channel=9, note=36, velocity=100, time=0),
    Message('note_on', channel=9, note=38, velocity=100, time=8),
    Message('note_on', channel=9, note=36, velocity=100, time=0),
    Message('note_off', channel=9, note=36, velocity=100, time=184),
    Message('note_off', channel=9, note=38, velocity=100, time=4),
    Message('note_on', channel=9, note=38, velocity=100, time=4),
    Message('note_on', channel=9, note=42, velocity=100, time=0),
    Message('note_on', channel=9, note=36, velocity=100, time=0),
    Message('note_off', channel=9, note=38, velocity=100, time=184),
    Message('note_off', channel=9, note=42, velocity=100, time=0),
    Message('note_off', channel=9, note=36, velocity=100, time=0),
    Message('note_on', channel=9, note=38, velocity=100, time=8),
    Message('note_on', channel=9, note=36, velocity=100, time=0),
    Message('note_off', channel=9, note=36, velocity=100, time=184),
    Message('note_off', channel=9, note=38, velocity=100, time=4),
    Message('note_on', channel=9, note=42, velocity=100, time=4),
    Message('note_on', channel=9, note=36, velocity=100, time=0),
    Message('note_off', channel=9, note=42, velocity=100, time=188),
    Message('note_off', channel=9, note=36, velocity=100, time=0),
    Message('note_on', channel=9, note=36, velocity=100, time=4),
    Message('note_off', channel=9, note=36, velocity=100, time=188),
    Message('note_on', channel=9, note=49, velocity=99, time=4),
    Message('note_on', channel=9, note=38, velocity=99, time=0),
    Message('note_on', channel=9, note=36, velocity=99, time=0),
    Message('note_off', channel=9, note=49, velocity=100, time=184),
    Message('note_off', channel=9, note=38, velocity=100, time=0),
    Message('note_off', channel=9, note=36, velocity=100, time=0),
    Message('note_on', channel=9, note=36, velocity=98, time=8),
    Message('note_off', channel=9, note=36, velocity=100, time=184),
    Message('note_on', channel=9, note=42, velocity=98, time=8),
    Message('note_on', channel=9, note=36, velocity=98, time=0),
    Message('note_off', channel=9, note=42, velocity=100, time=184),
    Message('note_off', channel=9, note=36, velocity=100, time=0),
    Message('note_on', channel=9, note=36, velocity=97, time=8),
    Message('note_off', channel=9, note=36, velocity=100, time=184),
    Message('note_on', channel=9, note=38, velocity=96, time=8),
    Message('note_on', channel=9, note=42, velocity=96, time=0),
    Message('note_on', channel=9, note=36, velocity=96, time=0),
    Message('note_off', channel=9, note=38, velocity=100, time=184),
    Message('note_off', channel=9, note=42, velocity=100, time=0),
    Message('note_off', channel=9, note=36, velocity=100, time=0),
    Message('note_on', channel=9, note=36, velocity=96, time=8),
    Message('note_off', channel=9, note=36, velocity=100, time=184),
    Message('note_on', channel=9, note=42, velocity=95, time=8),
    Message('note_on', channel=9, note=36, velocity=95, time=0),
    Message('note_off', channel=9, note=42, velocity=100, time=184),
    Message('note_off', channel=9, note=36, velocity=100, time=0),
    Message('note_on', channel=9, note=36, velocity=94, time=8),
    Message('note_off', channel=9, note=36, velocity=100, time=184),
    Message('note_on', channel=9, note=38, velocity=94, time=8),
    Message('note_on', channel=9, note=42, velocity=94, time=0),
    Message('note_on', channel=9, note=36, velocity=94, time=0),
    Message('note_off', channel=9, note=38, velocity=100, time=184),
    Message('note_off', channel=9, note=42, velocity=100, time=0),
    Message('note_off', channel=9, note=36, velocity=100, time=0),
    Message('note_on', channel=9, note=36, velocity=93, time=8),
    Message('note_off', channel=9, note=36, velocity=100, time=184),
    Message('note_on', channel=9, note=42, velocity=92, time=8),
    Message('note_on', channel=9, note=36, velocity=92, time=0),
    Message('note_off', channel=9, note=42, velocity=100, time=184),
    Message('note_off', channel=9, note=36, velocity=100, time=0),
    Message('note_on', channel=9, note=36, velocity=91, time=8),
    Message('note_off', channel=9, note=36, velocity=100, time=184),
    Message('note_on', channel=9, note=38, velocity=91, time=8),
    Message('note_on', channel=9, note=42, velocity=91, time=0),
    Message('note_on', channel=9, note=36, velocity=91, time=0),
    Message('note_off', channel=9, note=38, velocity=100, time=184),
    Message('note_off', channel=9, note=42, velocity=100, time=0),
    Message('note_off', channel=9, note=36, velocity=100, time=0),
    Message('note_on', channel=9, note=36, velocity=90, time=8),
    Message('note_off', channel=9, note=36, velocity=100, time=184),
    Message('note_on', channel=9, note=42, velocity=89, time=8),
    Message('note_on', channel=9, note=36, velocity=89, time=0),
    Message('note_off', channel=9, note=42, velocity=100, time=184),
    Message('note_off', channel=9, note=36, velocity=100, time=0),
    Message('note_on', channel=9, note=36, velocity=89, time=8),
    Message('note_off', channel=9, note=36, velocity=100, time=184),
    Message('note_on', channel=9, note=38, velocity=88, time=8),
    Message('note_on', channel=9, note=42, velocity=88, time=0),
    Message('note_on', channel=9, note=36, velocity=88, time=0),
    Message('note_off', channel=9, note=38, velocity=100, time=184),
    Message('note_off', channel=9, note=42, velocity=100, time=0),
    Message('note_off', channel=9, note=36, velocity=100, time=0),
    Message('note_on', channel=9, note=36, velocity=87, time=8),
    Message('note_off', channel=9, note=36, velocity=100, time=184),
    Message('note_on', channel=9, note=42, velocity=87, time=8),
    Message('note_on', channel=9, note=36, velocity=87, time=0),
    Message('note_off', channel=9, note=42, velocity=100, time=184),
    Message('note_off', channel=9, note=36, velocity=100, time=0),
    Message('note_on', channel=9, note=36, velocity=86, time=8),
    Message('note_off', channel=9, note=36, velocity=100, time=184),
    Message('note_on', channel=9, note=38, velocity=85, time=8),
    Message('note_on', channel=9, note=42, velocity=85, time=0),
    Message('note_on', channel=9, note=36, velocity=85, time=0),
    Message('note_off', channel=9, note=38, velocity=100, time=184),
    Message('note_off', channel=9, note=42, velocity=100, time=0),
    Message('note_off', channel=9, note=36, velocity=100, time=0),
    Message('note_on', channel=9, note=36, velocity=84, time=8),
    Message('note_off', channel=9, note=36, velocity=100, time=184),
    Message('note_on', channel=9, note=42, velocity=84, time=8),
    Message('note_on', channel=9, note=36, velocity=84, time=0),
    Message('note_off', channel=9, note=42, velocity=100, time=184),
    Message('note_off', channel=9, note=36, velocity=100, time=0),
    Message('note_on', channel=9, note=36, velocity=83, time=8),
    Message('note_off', channel=9, note=36, velocity=100, time=184),
    Message('note_on', channel=9, note=36, velocity=82, time=8),
    Message('note_on', channel=9, note=42, velocity=82, time=0),
    Message('note_on', channel=9, note=38, velocity=82, time=0),
    Message('note_off', channel=9, note=36, velocity=100, time=184),
    Message('note_off', channel=9, note=42, velocity=100, time=0),
    Message('note_off', channel=9, note=38, velocity=100, time=0),
    Message('note_on', channel=9, note=36, velocity=82, time=8),
    Message('note_off', channel=9, note=36, velocity=100, time=184),
    Message('note_on', channel=9, note=36, velocity=81, time=8),
    Message('note_on', channel=9, note=42, velocity=81, time=0),
    Message('note_off', channel=9, note=36, velocity=100, time=184),
    Message('note_off', channel=9, note=42, velocity=100, time=0),
    Message('note_on', channel=9, note=36, velocity=80, time=8),
    Message('note_off', channel=9, note=36, velocity=100, time=188),
    Message('note_on', channel=9, note=38, velocity=80, time=4),
    Message('note_on', channel=9, note=42, velocity=80, time=0),
    Message('note_on', channel=9, note=36, velocity=80, time=0),
    Message('note_off', channel=9, note=38, velocity=100, time=184),
    Message('note_off', channel=9, note=42, velocity=100, time=0),
    Message('note_off', channel=9, note=36, velocity=100, time=0),
    Message('note_on', channel=9, note=36, velocity=79, time=8),
    Message('note_off', channel=9, note=36, velocity=100, time=184),
    Message('note_on', channel=9, note=42, velocity=78, time=8),
    Message('note_on', channel=9, note=36, velocity=78, time=0),
    Message('note_off', channel=9, note=42, velocity=100, time=188),
    Message('note_off', channel=9, note=36, velocity=100, time=0),
    Message('note_on', channel=9, note=36, velocity=77, time=4),
    Message('note_off', channel=9, note=36, velocity=100, time=188),
    Message('note_on', channel=9, note=42, velocity=77, time=4),
    Message('note_on', channel=9, note=38, velocity=77, time=0),
    Message('note_on', channel=9, note=36, velocity=77, time=0),
    Message('note_off', channel=9, note=42, velocity=100, time=184),
    Message('note_off', channel=9, note=38, velocity=100, time=0),
    Message('note_off', channel=9, note=36, velocity=100, time=0),
    Message('note_on', channel=9, note=36, velocity=76, time=8),
    Message('note_off', channel=9, note=36, velocity=100, time=184),
    Message('note_on', channel=9, note=42, velocity=75, time=8),
    Message('note_on', channel=9, note=36, velocity=75, time=0),
    Message('note_off', channel=9, note=42, velocity=100, time=184),
    Message('note_off', channel=9, note=36, velocity=100, time=0),
    Message('note_on', channel=9, note=36, velocity=75, time=8),
    Message('note_off', channel=9, note=36, velocity=100, time=184),
    Message('note_on', channel=9, note=38, velocity=74, time=8),
    Message('note_on', channel=9, note=42, velocity=74, time=0),
    Message('note_on', channel=9, note=36, velocity=74, time=0),
    Message('note_off', channel=9, note=38, velocity=100, time=184),
    Message('note_off', channel=9, note=42, velocity=100, time=0),
    Message('note_off', channel=9, note=36, velocity=100, time=0),
    Message('note_on', channel=9, note=36, velocity=73, time=8),
    Message('note_off', channel=9, note=36, velocity=100, time=184),
    Message('note_on', channel=9, note=42, velocity=73, time=8),
    Message('note_on', channel=9, note=36, velocity=73, time=0),
    Message('note_off', channel=9, note=42, velocity=100, time=184),
    Message('note_off', channel=9, note=36, velocity=100, time=0),
    Message('note_on', channel=9, note=36, velocity=72, time=8),
    Message('note_off', channel=9, note=36, velocity=100, time=184),
    Message('note_on', channel=9, note=38, velocity=71, time=8),
    Message('note_on', channel=9, note=42, velocity=71, time=0),
    Message('note_on', channel=9, note=36, velocity=71, time=0),
    Message('note_off', channel=9, note=38, velocity=100, time=184),
    Message('note_off', channel=9, note=42, velocity=100, time=0),
    Message('note_off', channel=9, note=36, velocity=100, time=0),
    Message('note_on', channel=9, note=36, velocity=70, time=8),
    Message('note_off', channel=9, note=36, velocity=100, time=184),
    Message('note_on', channel=9, note=42, velocity=70, time=8),
    Message('note_on', channel=9, note=36, velocity=70, time=0),
    Message('note_off', channel=9, note=42, velocity=100, time=184),
    Message('note_off', channel=9, note=36, velocity=100, time=0),
    Message('note_on', channel=9, note=36, velocity=69, time=8),
    Message('note_off', channel=9, note=36, velocity=100, time=184),
    Message('note_on', channel=9, note=38, velocity=68, time=8),
    Message('note_on', channel=9, note=42, velocity=68, time=0),
    Message('note_on', channel=9, note=36, velocity=68, time=0),
    Message('note_off', channel=9, note=38, velocity=100, time=184),
    Message('note_off', channel=9, note=42, velocity=100, time=0),
    Message('note_off', channel=9, note=36, velocity=100, time=0),
    Message('note_on', channel=9, note=36, velocity=68, time=8),
    Message('note_off', channel=9, note=36, velocity=100, time=184),
    Message('note_on', channel=9, note=38, velocity=67, time=8),
    Message('note_off', channel=9, note=38, velocity=100, time=92),
    Message('note_on', channel=9, note=47, velocity=67, time=4),
    Message('note_off', channel=9, note=47, velocity=100, time=92),
    Message('note_on', channel=9, note=45, velocity=66, time=4),
    Message('note_off', channel=9, note=45, velocity=100, time=92),
    Message('note_on', channel=9, note=47, velocity=66, time=4),
    Message('note_off', channel=9, note=47, velocity=100, time=92),
    Message('note_on', channel=9, note=45, velocity=66, time=4),
    Message('note_off', channel=9, note=45, velocity=100, time=92),
    Message('note_on', channel=9, note=47, velocity=65, time=4),
    Message('note_off', channel=9, note=47, velocity=100, time=92),
    Message('note_on', channel=9, note=38, velocity=65, time=4),
    Message('note_off', channel=9, note=38, velocity=100, time=92),
    Message('note_on', channel=9, note=47, velocity=64, time=4),
    Message('note_off', channel=9, note=47, velocity=100, time=92),
    Message('note_on', channel=9, note=45, velocity=64, time=4),
    Message('note_off', channel=9, note=45, velocity=100, time=92),
    Message('note_on', channel=9, note=47, velocity=64, time=4),
    Message('note_off', channel=9, note=47, velocity=100, time=92),
    Message('note_on', channel=9, note=45, velocity=63, time=4),
    Message('note_off', channel=9, note=45, velocity=100, time=92),
    Message('note_on', channel=9, note=47, velocity=63, time=4),
    Message('note_off', channel=9, note=47, velocity=100, time=92),
    Message('note_on', channel=9, note=38, velocity=63, time=4),
    Message('note_off', channel=9, note=38, velocity=100, time=92),
    Message('note_on', channel=9, note=47, velocity=62, time=4),
    Message('note_off', channel=9, note=47, velocity=100, time=92),
    Message('note_on', channel=9, note=45, velocity=62, time=4),
    Message('note_off', channel=9, note=45, velocity=100, time=92),
    Message('note_on', channel=9, note=47, velocity=62, time=4),
    Message('note_off', channel=9, note=47, velocity=100, time=92),
    Message('note_on', channel=9, note=38, velocity=61, time=4),
    Message('note_off', channel=9, note=38, velocity=100, time=92),
    Message('note_on', channel=9, note=47, velocity=61, time=4),
    Message('note_off', channel=9, note=47, velocity=100, time=92),
    Message('note_on', channel=9, note=45, velocity=61, time=4),
    Message('note_off', channel=9, note=45, velocity=100, time=92),
    Message('note_on', channel=9, note=47, velocity=60, time=4),
    Message('note_off', channel=9, note=47, velocity=100, time=92),
    Message('note_on', channel=9, note=45, velocity=60, time=4),
    Message('note_off', channel=9, note=45, velocity=100, time=92),
    Message('note_on', channel=9, note=45, velocity=60, time=4),
    Message('note_off', channel=9, note=45, velocity=100, time=92),
    Message('note_on', channel=9, note=45, velocity=59, time=4),
    Message('note_off', channel=9, note=45, velocity=100, time=92),
    Message('note_on', channel=9, note=45, velocity=59, time=4),
    Message('note_off', channel=9, note=45, velocity=100, time=92),
    Message('note_on', channel=9, note=43, velocity=59, time=4),
    Message('note_off', channel=9, note=43, velocity=100, time=92),
    Message('note_on', channel=9, note=43, velocity=58, time=4),
    Message('note_off', channel=9, note=43, velocity=100, time=92),
    Message('note_on', channel=9, note=41, velocity=58, time=4),
    Message('note_off', channel=9, note=41, velocity=100, time=92),
    Message('note_on', channel=9, note=43, velocity=57, time=4),
    Message('note_off', channel=9, note=43, velocity=100, time=92),
    Message('note_on', channel=9, note=41, velocity=57, time=4),
    Message('note_off', channel=9, note=41, velocity=100, time=92),
    Message('note_on', channel=9, note=41, velocity=57, time=4),
    Message('note_off', channel=9, note=41, velocity=100, time=92),
    Message('note_on', channel=9, note=41, velocity=56, time=4),
    Message('note_off', channel=9, note=41, velocity=100, time=92),
    Message('note_on', channel=9, note=41, velocity=56, time=4),
    Message('note_off', channel=9, note=41, velocity=100, time=92),
    Message('note_on', channel=9, note=36, velocity=56, time=4),
    Message('note_on', channel=9, note=49, velocity=56, time=0),
    Message('note_off', channel=9, note=36, velocity=100, time=188),
    Message('note_on', channel=9, note=36, velocity=55, time=4),
    Message('note_off', channel=9, note=49, velocity=100, time=184),
    Message('note_off', channel=9, note=36, velocity=100, time=4),
    Message('note_on', channel=9, note=42, velocity=54, time=4),
    Message('note_on', channel=9, note=38, velocity=54, time=0),
    Message('note_on', channel=9, note=36, velocity=54, time=0),
    Message('note_off', channel=9, note=42, velocity=100, time=184),
    Message('note_off', channel=9, note=38, velocity=100, time=0),
    Message('note_off', channel=9, note=36, velocity=100, time=0),
    Message('note_on', channel=9, note=36, velocity=54, time=8),
    Message('note_off', channel=9, note=36, velocity=100, time=184),
    Message('note_on', channel=9, note=42, velocity=53, time=8),
    Message('note_on', channel=9, note=36, velocity=53, time=0),
    Message('note_off', channel=9, note=42, velocity=100, time=184),
    Message('note_off', channel=9, note=36, velocity=100, time=0),
    Message('note_on', channel=9, note=36, velocity=52, time=8),
    Message('note_off', channel=9, note=36, velocity=100, time=184),
    Message('note_on', channel=9, note=38, velocity=52, time=8),
    Message('note_on', channel=9, note=42, velocity=52, time=0),
    Message('note_on', channel=9, note=36, velocity=52, time=0),
    Message('note_off', channel=9, note=38, velocity=100, time=184),
    Message('note_off', channel=9, note=42, velocity=100, time=0),
    Message('note_off', channel=9, note=36, velocity=100, time=0),
    Message('note_on', channel=9, note=36, velocity=51, time=8),
    Message('note_off', channel=9, note=36, velocity=100, time=184),
    Message('note_on', channel=9, note=42, velocity=50, time=8),
    Message('note_on', channel=9, note=36, velocity=50, time=0),
    Message('note_off', channel=9, note=42, velocity=100, time=184),
    Message('note_off', channel=9, note=36, velocity=100, time=0),
    Message('note_on', channel=9, note=36, velocity=49, time=8),
    Message('note_off', channel=9, note=36, velocity=100, time=184),
    Message('note_on', channel=9, note=38, velocity=49, time=8),
    Message('note_on', channel=9, note=42, velocity=49, time=0),
    Message('note_on', channel=9, note=36, velocity=49, time=0),
    Message('note_off', channel=9, note=38, velocity=100, time=184),
    Message('note_off', channel=9, note=42, velocity=100, time=0),
    Message('note_off', channel=9, note=36, velocity=100, time=0),
    Message('note_on', channel=9, note=36, velocity=48, time=8),
    Message('note_off', channel=9, note=36, velocity=100, time=184),
    Message('note_on', channel=9, note=42, velocity=47, time=8),
    Message('note_on', channel=9, note=36, velocity=47, time=0),
    Message('note_off', channel=9, note=42, velocity=100, time=184),
    Message('note_off', channel=9, note=36, velocity=100, time=0),
    Message('note_on', channel=9, note=36, velocity=47, time=8),
    Message('note_off', channel=9, note=36, velocity=100, time=184),
    Message('note_on', channel=9, note=38, velocity=46, time=8),
    Message('note_on', channel=9, note=42, velocity=46, time=0),
    Message('note_on', channel=9, note=36, velocity=46, time=0),
    Message('note_off', channel=9, note=38, velocity=100, time=184),
    Message('note_off', channel=9, note=42, velocity=100, time=0),
    Message('note_off', channel=9, note=36, velocity=100, time=0),
    Message('note_on', channel=9, note=36, velocity=45, time=8),
    Message('note_off', channel=9, note=36, velocity=100, time=184),
    Message('note_on', channel=9, note=42, velocity=45, time=8),
    Message('note_on', channel=9, note=36, velocity=45, time=0),
    Message('note_off', channel=9, note=42, velocity=100, time=184),
    Message('note_off', channel=9, note=36, velocity=100, time=0),
    Message('note_on', channel=9, note=36, velocity=44, time=8),
    Message('note_off', channel=9, note=36, velocity=100, time=184),
    Message('note_on', channel=9, note=38, velocity=43, time=8),
    Message('note_on', channel=9, note=42, velocity=43, time=0),
    Message('note_on', channel=9, note=36, velocity=43, time=0),
    Message('note_off', channel=9, note=38, velocity=100, time=184),
    Message('note_off', channel=9, note=42, velocity=100, time=0),
    Message('note_off', channel=9, note=36, velocity=100, time=0),
    Message('note_on', channel=9, note=36, velocity=42, time=8),
    Message('note_off', channel=9, note=36, velocity=100, time=184),
    Message('note_on', channel=9, note=42, velocity=42, time=8),
    Message('note_on', channel=9, note=36, velocity=42, time=0),
    Message('note_off', channel=9, note=42, velocity=100, time=184),
    Message('note_off', channel=9, note=36, velocity=100, time=0),
    Message('note_on', channel=9, note=36, velocity=41, time=8),
    Message('note_off', channel=9, note=36, velocity=100, time=184),
    Message('note_on', channel=9, note=38, velocity=40, time=8),
    Message('note_on', channel=9, note=42, velocity=40, time=0),
    Message('note_on', channel=9, note=36, velocity=40, time=0),
    Message('note_off', channel=9, note=38, velocity=100, time=184),
    Message('note_off', channel=9, note=42, velocity=100, time=0),
    Message('note_off', channel=9, note=36, velocity=100, time=0),
    Message('note_on', channel=9, note=36, velocity=40, time=8),
    Message('note_off', channel=9, note=36, velocity=100, time=184),
    Message('note_on', channel=9, note=36, velocity=39, time=8),
    Message('note_off', channel=9, note=36, velocity=100, time=184),
    Message('note_on', channel=9, note=47, velocity=38, time=8),
    Message('note_on', channel=9, note=45, velocity=38, time=0),
    Message('note_on', channel=9, note=36, velocity=38, time=0),
    Message('note_off', channel=9, note=36, velocity=100, time=184),
    Message('note_off', channel=9, note=47, velocity=100, time=4),
    Message('note_off', channel=9, note=45, velocity=100, time=0),
    Message('note_on', channel=9, note=47, velocity=38, time=4),
    Message('note_on', channel=9, note=45, velocity=38, time=0),
    Message('note_on', channel=9, note=36, velocity=38, time=0),
    Message('note_off', channel=9, note=36, velocity=100, time=184),
    Message('note_off', channel=9, note=47, velocity=100, time=4),
    Message('note_off', channel=9, note=45, velocity=100, time=0),
    Message('note_on', channel=9, note=47, velocity=37, time=4),
    Message('note_on', channel=9, note=45, velocity=37, time=0),
    Message('note_on', channel=9, note=36, velocity=37, time=0),
    Message('note_off', channel=9, note=36, velocity=100, time=184),
    Message('note_off', channel=9, note=47, velocity=100, time=4),
    Message('note_off', channel=9, note=45, velocity=100, time=0),
    Message('note_on', channel=9, note=47, velocity=36, time=4),
    Message('note_on', channel=9, note=45, velocity=36, time=0),
    Message('note_on', channel=9, note=36, velocity=36, time=0),
    Message('note_off', channel=9, note=36, velocity=100, time=184),
    Message('note_off', channel=9, note=47, velocity=100, time=4),
    Message('note_off', channel=9, note=45, velocity=100, time=0),
    Message('note_on', channel=9, note=45, velocity=35, time=4),
    Message('note_on', channel=9, note=43, velocity=35, time=0),
    Message('note_on', channel=9, note=36, velocity=35, time=0),
    Message('note_off', channel=9, note=45, velocity=100, time=188),
    Message('note_off', channel=9, note=43, velocity=100, time=0),
    Message('note_off', channel=9, note=36, velocity=100, time=0),
    Message('note_on', channel=9, note=45, velocity=35, time=4),
    Message('note_on', channel=9, note=43, velocity=35, time=0),
    Message('note_on', channel=9, note=36, velocity=35, time=0),
    Message('note_off', channel=9, note=36, velocity=100, time=184),
    Message('note_off', channel=9, note=45, velocity=100, time=4),
    Message('note_off', channel=9, note=43, velocity=100, time=0),
    Message('note_on', channel=9, note=45, velocity=34, time=4),
    Message('note_on', channel=9, note=43, velocity=34, time=0),
    Message('note_on', channel=9, note=36, velocity=34, time=0),
    Message('note_off', channel=9, note=36, velocity=100, time=184),
    Message('note_off', channel=9, note=45, velocity=100, time=4),
    Message('note_off', channel=9, note=43, velocity=100, time=0),
    Message('note_on', channel=9, note=43, velocity=33, time=4),
    Message('note_on', channel=9, note=41, velocity=33, time=0),
    Message('note_on', channel=9, note=36, velocity=33, time=0),
    Message('note_off', channel=9, note=43, velocity=100, time=188),
    Message('note_off', channel=9, note=41, velocity=100, time=0),
    Message('note_off', channel=9, note=36, velocity=100, time=0),
    Message('note_on', channel=9, note=36, velocity=33, time=4),
    Message('note_off', channel=9, note=36, velocity=100, time=188),
    Message('note_on', channel=9, note=49, velocity=32, time=4),
    Message('note_on', channel=9, note=38, velocity=32, time=0),
    Message('note_on', channel=9, note=36, velocity=32, time=0),
    Message('note_off', channel=9, note=49, velocity=100, time=184),
    Message('note_off', channel=9, note=38, velocity=100, time=0),
    Message('note_off', channel=9, note=36, velocity=100, time=0),
    Message('note_on', channel=9, note=36, velocity=31, time=8),
    Message('note_off', channel=9, note=36, velocity=100, time=184),
    Message('note_on', channel=9, note=42, velocity=31, time=8),
    Message('note_on', channel=9, note=36, velocity=31, time=0),
    Message('note_off', channel=9, note=42, velocity=100, time=184),
    Message('note_off', channel=9, note=36, velocity=100, time=0),
    Message('note_on', channel=9, note=36, velocity=30, time=8),
    Message('note_off', channel=9, note=36, velocity=100, time=184),
    Message('note_on', channel=9, note=38, velocity=29, time=8),
    Message('note_on', channel=9, note=42, velocity=29, time=0),
    Message('note_on', channel=9, note=36, velocity=29, time=0),
    Message('note_off', channel=9, note=38, velocity=100, time=184),
    Message('note_off', channel=9, note=42, velocity=100, time=0),
    Message('note_off', channel=9, note=36, velocity=100, time=0),
    Message('note_on', channel=9, note=36, velocity=28, time=8),
    Message('note_off', channel=9, note=36, velocity=100, time=184),
    Message('note_on', channel=9, note=42, velocity=28, time=8),
    Message('note_on', channel=9, note=36, velocity=28, time=0),
    Message('note_off', channel=9, note=42, velocity=100, time=184),
    Message('note_off', channel=9, note=36, velocity=100, time=0),
    Message('note_on', channel=9, note=36, velocity=27, time=8),
    Message('note_off', channel=9, note=36, velocity=100, time=184),
    Message('note_on', channel=9, note=38, velocity=26, time=8),
    Message('note_on', channel=9, note=42, velocity=26, time=0),
    Message('note_on', channel=9, note=36, velocity=26, time=0),
    Message('note_off', channel=9, note=38, velocity=100, time=184),
    Message('note_off', channel=9, note=42, velocity=100, time=0),
    Message('note_off', channel=9, note=36, velocity=100, time=0),
    Message('note_on', channel=9, note=36, velocity=26, time=8),
    Message('note_off', channel=9, note=36, velocity=100, time=184),
    Message('note_on', channel=9, note=42, velocity=25, time=8),
    Message('note_on', channel=9, note=36, velocity=25, time=0),
    Message('note_off', channel=9, note=42, velocity=100, time=184),
    Message('note_off', channel=9, note=36, velocity=100, time=0),
    Message('note_on', channel=9, note=36, velocity=24, time=8),
    Message('note_off', channel=9, note=36, velocity=100, time=184),
    Message('note_on', channel=9, note=38, velocity=24, time=8),
    Message('note_on', channel=9, note=42, velocity=24, time=0),
    Message('note_on', channel=9, note=36, velocity=24, time=0),
    Message('note_off', channel=9, note=38, velocity=100, time=184),
    Message('note_off', channel=9, note=42, velocity=100, time=0),
    Message('note_off', channel=9, note=36, velocity=100, time=0),
    Message('note_on', channel=9, note=36, velocity=23, time=8),
    Message('note_off', channel=9, note=36, velocity=100, time=184),
    Message('note_on', channel=9, note=42, velocity=22, time=8),
    Message('note_on', channel=9, note=36, velocity=22, time=0),
    Message('note_off', channel=9, note=42, velocity=100, time=184),
    Message('note_off', channel=9, note=36, velocity=100, time=0),
    Message('note_on', channel=9, note=36, velocity=21, time=8),
    Message('note_off', channel=9, note=36, velocity=100, time=184),
    Message('note_on', channel=9, note=38, velocity=21, time=8),
    Message('note_on', channel=9, note=42, velocity=21, time=0),
    Message('note_on', channel=9, note=36, velocity=21, time=0),
    Message('note_off', channel=9, note=38, velocity=100, time=184),
    Message('note_off', channel=9, note=42, velocity=100, time=0),
    Message('note_off', channel=9, note=36, velocity=100, time=0),
    Message('note_on', channel=9, note=36, velocity=20, time=8),
    Message('note_off', channel=9, note=36, velocity=100, time=184),
    Message('note_on', channel=9, note=42, velocity=19, time=8),
    Message('note_on', channel=9, note=36, velocity=19, time=0),
    Message('note_off', channel=9, note=42, velocity=100, time=184),
    Message('note_off', channel=9, note=36, velocity=100, time=0),
    Message('note_on', channel=9, note=36, velocity=19, time=8),
    Message('note_off', channel=9, note=36, velocity=100, time=184),
    Message('note_on', channel=9, note=38, velocity=18, time=8),
    Message('note_on', channel=9, note=42, velocity=18, time=0),
    Message('note_on', channel=9, note=36, velocity=18, time=0),
    Message('note_off', channel=9, note=38, velocity=100, time=184),
    Message('note_off', channel=9, note=42, velocity=100, time=0),
    Message('note_off', channel=9, note=36, velocity=100, time=0),
    Message('note_on', channel=9, note=36, velocity=17, time=8),
    Message('note_off', channel=9, note=36, velocity=100, time=184),
    Message('note_on', channel=9, note=38, velocity=17, time=8),
    Message('note_off', channel=9, note=38, velocity=100, time=92),
    Message('note_on', channel=9, note=48, velocity=16, time=4),
    Message('note_off', channel=9, note=48, velocity=100, time=92),
    Message('note_on', channel=9, note=45, velocity=16, time=4),
    Message('note_off', channel=9, note=45, velocity=100, time=92),
    Message('note_on', channel=9, note=45, velocity=16, time=4),
    Message('note_off', channel=9, note=45, velocity=100, time=92),
    Message('note_on', channel=9, note=45, velocity=15, time=4),
    Message('note_off', channel=9, note=45, velocity=100, time=92),
    Message('note_on', channel=9, note=45, velocity=15, time=4),
    Message('note_off', channel=9, note=45, velocity=100, time=92),
    Message('note_on', channel=9, note=38, velocity=14, time=4),
    Message('note_off', channel=9, note=38, velocity=100, time=92),
    Message('note_on', channel=9, note=47, velocity=14, time=4),
    Message('note_off', channel=9, note=47, velocity=100, time=92),
    Message('note_on', channel=9, note=45, velocity=14, time=4),
    Message('note_off', channel=9, note=45, velocity=100, time=92),
    Message('note_on', channel=9, note=45, velocity=13, time=4),
    Message('note_off', channel=9, note=45, velocity=100, time=92),
    Message('note_on', channel=9, note=45, velocity=13, time=4),
    Message('note_off', channel=9, note=45, velocity=100, time=92),
    Message('note_on', channel=9, note=45, velocity=13, time=4),
    Message('note_off', channel=9, note=45, velocity=100, time=92),
    Message('note_on', channel=9, note=43, velocity=12, time=4),
    Message('note_off', channel=9, note=43, velocity=100, time=92),
    Message('note_on', channel=9, note=43, velocity=12, time=4),
    Message('note_off', channel=9, note=43, velocity=100, time=92),
    Message('note_on', channel=9, note=41, velocity=12, time=4),
    Message('note_off', channel=9, note=41, velocity=100, time=92),
    Message('note_on', channel=9, note=41, velocity=11, time=4),
    Message('note_off', channel=9, note=41, velocity=100, time=92),
    Message('note_on', channel=9, note=42, velocity=11, time=4),
    Message('note_on', channel=9, note=36, velocity=11, time=0),
    Message('note_off', channel=9, note=42, velocity=100, time=188),
    Message('note_off', channel=9, note=36, velocity=100, time=0),
    Message('note_on', channel=9, note=36, velocity=10, time=4),
    Message('note_off', channel=9, note=36, velocity=100, time=188),
    Message('note_on', channel=9, note=49, velocity=10, time=4),
    Message('note_on', channel=9, note=38, velocity=10, time=0),
    Message('note_on', channel=9, note=36, velocity=10, time=0),
    Message('note_off', channel=9, note=49, velocity=100, time=184),
    Message('note_off', channel=9, note=38, velocity=100, time=0),
    Message('note_off', channel=9, note=36, velocity=100, time=0),
    Message('note_on', channel=9, note=36, velocity=9, time=8),
    Message('note_off', channel=9, note=36, velocity=100, time=184),
    Message('note_on', channel=9, note=42, velocity=8, time=8),
    Message('note_on', channel=9, note=36, velocity=8, time=0),
    Message('note_off', channel=9, note=42, velocity=100, time=184),
    Message('note_off', channel=9, note=36, velocity=100, time=0),
    Message('note_on', channel=9, note=36, velocity=8, time=8),
    Message('note_off', channel=9, note=36, velocity=100, time=184),
    Message('note_on', channel=9, note=38, velocity=7, time=8),
    Message('note_on', channel=9, note=42, velocity=7, time=0),
    Message('note_on', channel=9, note=36, velocity=7, time=0),
    Message('note_off', channel=9, note=38, velocity=100, time=184),
    Message('note_off', channel=9, note=42, velocity=100, time=0),
    Message('note_off', channel=9, note=36, velocity=100, time=0),
    Message('note_on', channel=9, note=36, velocity=6, time=8),
    Message('note_off', channel=9, note=36, velocity=100, time=184),
    Message('note_on', channel=9, note=42, velocity=5, time=8),
    Message('note_on', channel=9, note=36, velocity=5, time=0),
    Message('note_off', channel=9, note=42, velocity=100, time=184),
    Message('note_off', channel=9, note=36, velocity=100, time=0),
    Message('note_on', channel=9, note=36, velocity=5, time=8),
    Message('note_off', channel=9, note=36, velocity=100, time=184),
    Message('note_on', channel=9, note=38, velocity=4, time=8),
    Message('note_on', channel=9, note=42, velocity=4, time=0),
    Message('note_on', channel=9, note=36, velocity=4, time=0),
    Message('note_off', channel=9, note=38, velocity=100, time=184),
    Message('note_off', channel=9, note=42, velocity=100, time=0),
    Message('note_off', channel=9, note=36, velocity=100, time=0),
    Message('note_on', channel=9, note=36, velocity=3, time=8),
    Message('note_off', channel=9, note=36, velocity=100, time=184),
    Message('note_on', channel=9, note=42, velocity=3, time=8),
    Message('note_on', channel=9, note=36, velocity=3, time=0),
    Message('note_off', channel=9, note=42, velocity=100, time=184),
    Message('note_off', channel=9, note=36, velocity=100, time=0),
    Message('note_on', channel=9, note=36, velocity=2, time=8),
    Message('note_off', channel=9, note=36, velocity=100, time=184),
    Message('note_on', channel=9, note=38, velocity=1, time=8),
    Message('note_on', channel=9, note=42, velocity=1, time=0),
    Message('note_on', channel=9, note=36, velocity=1, time=0),
    Message('note_off', channel=9, note=38, velocity=100, time=184),
    Message('note_off', channel=9, note=42, velocity=100, time=0),
    Message('note_off', channel=9, note=36, velocity=100, time=0),
    Message('note_on', channel=9, note=36, velocity=1, time=8),
    Message('note_off', channel=9, note=36, velocity=100, time=184),
    Message('note_on', channel=9, note=42, velocity=1, time=8),
    Message('note_on', channel=9, note=36, velocity=1, time=0),
    Message('note_off', channel=9, note=42, velocity=100, time=184),
    Message('note_off', channel=9, note=36, velocity=100, time=0),
    Message('note_on', channel=9, note=36, velocity=1, time=8),
    Message('note_off', channel=9, note=36, velocity=100, time=184),
    Message('note_on', channel=9, note=38, velocity=1, time=8),
    Message('note_on', channel=9, note=42, velocity=1, time=0),
    Message('note_on', channel=9, note=36, velocity=1, time=0),
    Message('note_off', channel=9, note=38, velocity=100, time=184),
    Message('note_off', channel=9, note=42, velocity=100, time=0),
    Message('note_off', channel=9, note=36, velocity=100, time=0),
    Message('note_on', channel=9, note=36, velocity=1, time=8),
    Message('note_off', channel=9, note=36, velocity=100, time=184),
    Message('note_on', channel=9, note=42, velocity=1, time=8),
    Message('note_on', channel=9, note=36, velocity=1, time=0),
    Message('note_off', channel=9, note=42, velocity=100, time=184),
    Message('note_off', channel=9, note=36, velocity=100, time=0),
    Message('note_on', channel=9, note=36, velocity=1, time=8),
    Message('note_off', channel=9, note=36, velocity=100, time=184),
    Message('note_on', channel=9, note=38, velocity=1, time=8),
    Message('note_on', channel=9, note=42, velocity=1, time=0),
    Message('note_on', channel=9, note=36, velocity=1, time=0),
    Message('note_off', channel=9, note=38, velocity=100, time=184),
    Message('note_off', channel=9, note=42, velocity=100, time=0),
    Message('note_off', channel=9, note=36, velocity=100, time=0),
    Message('note_on', channel=9, note=36, velocity=1, time=8),
    Message('note_off', channel=9, note=36, velocity=100, time=184),
    Message('note_on', channel=9, note=42, velocity=1, time=8),
    Message('note_on', channel=9, note=36, velocity=1, time=0),
    Message('note_off', channel=9, note=42, velocity=100, time=184),
    Message('note_off', channel=9, note=36, velocity=100, time=0),
    Message('note_on', channel=9, note=36, velocity=1, time=8),
    Message('note_off', channel=9, note=36, velocity=100, time=184),
    Message('note_on', channel=9, note=38, velocity=1, time=8),
    Message('note_on', channel=9, note=42, velocity=1, time=0),
    Message('note_on', channel=9, note=36, velocity=1, time=0),
    Message('note_off', channel=9, note=38, velocity=100, time=184),
    Message('note_off', channel=9, note=42, velocity=100, time=0),
    Message('note_off', channel=9, note=36, velocity=100, time=0),
    Message('note_on', channel=9, note=36, velocity=1, time=8),
    Message('note_off', channel=9, note=36, velocity=100, time=184),
    Message('note_on', channel=9, note=42, velocity=1, time=8),
    Message('note_on', channel=9, note=36, velocity=1, time=0),
    Message('note_off', channel=9, note=42, velocity=100, time=184),
    Message('note_off', channel=9, note=36, velocity=100, time=0),
    Message('note_on', channel=9, note=36, velocity=1, time=8),
    Message('note_off', channel=9, note=36, velocity=100, time=184),
    Message('note_on', channel=9, note=38, velocity=1, time=8),
    Message('note_on', channel=9, note=42, velocity=1, time=0),
    Message('note_on', channel=9, note=36, velocity=1, time=0),
    Message('note_off', channel=9, note=38, velocity=100, time=184),
    Message('note_off', channel=9, note=42, velocity=100, time=0),
    Message('note_off', channel=9, note=36, velocity=100, time=0),
    Message('note_on', channel=9, note=36, velocity=1, time=8),
    Message('note_off', channel=9, note=36, velocity=100, time=184),
    Message('note_on', channel=9, note=49, velocity=1, time=8),
    Message('note_on', channel=9, note=36, velocity=1, time=0),
    Message('note_off', channel=9, note=49, velocity=100, time=188),
    Message('note_off', channel=9, note=36, velocity=100, time=0),
    MetaMessage('end_of_track', time=0)]),
  MidiTrack([
    MetaMessage('track_name', name='send your comments', time=0),
    Message('control_change', channel=3, control=0, value=0, time=0),
    Message('program_change', channel=3, program=34, time=0),
    Message('control_change', channel=3, control=7, value=108, time=0),
    Message('control_change', channel=3, control=10, value=64, time=0),
    Message('control_change', channel=3, control=91, value=127, time=0),
    Message('control_change', channel=3, control=93, value=127, time=0),
    MetaMessage('key_signature', key='D', time=0),
    Message('control_change', channel=3, control=7, value=100, time=6144),
    Message('note_on', channel=3, note=40, velocity=100, time=0),
    Message('note_off', channel=3, note=40, velocity=100, time=376),
    Message('note_on', channel=3, note=28, velocity=100, time=8),
    Message('note_off', channel=3, note=28, velocity=100, time=184),
    Message('note_on', channel=3, note=28, velocity=100, time=8),
    Message('note_off', channel=3, note=28, velocity=100, time=184),
    Message('note_on', channel=3, note=28, velocity=100, time=8),
    Message('note_off', channel=3, note=28, velocity=100, time=184),
    Message('note_on', channel=3, note=28, velocity=100, time=8),
    Message('note_off', channel=3, note=28, velocity=100, time=184),
    Message('note_on', channel=3, note=41, velocity=100, time=8),
    Message('note_off', channel=3, note=41, velocity=100, time=376),
    Message('note_on', channel=3, note=40, velocity=100, time=8),
    Message('note_off', channel=3, note=40, velocity=100, time=376),
    Message('note_on', channel=3, note=28, velocity=100, time=8),
    Message('note_off', channel=3, note=28, velocity=100, time=184),
    Message('note_on', channel=3, note=28, velocity=100, time=8),
    Message('note_off', channel=3, note=28, velocity=100, time=184),
    Message('note_on', channel=3, note=28, velocity=100, time=8),
    Message('note_off', channel=3, note=28, velocity=100, time=184),
    Message('note_on', channel=3, note=28, velocity=100, time=8),
    Message('note_off', channel=3, note=28, velocity=100, time=184),
    Message('note_on', channel=3, note=38, velocity=100, time=8),
    Message('note_off', channel=3, note=38, velocity=100, time=376),
    Message('note_on', channel=3, note=40, velocity=100, time=8),
    Message('note_off', channel=3, note=40, velocity=100, time=376),
    Message('note_on', channel=3, note=28, velocity=100, time=8),
    Message('note_off', channel=3, note=28, velocity=100, time=184),
    Message('note_on', channel=3, note=28, velocity=100, time=8),
    Message('note_off', channel=3, note=28, velocity=100, time=184),
    Message('note_on', channel=3, note=35, velocity=100, time=8),
    Message('note_off', channel=3, note=35, velocity=100, time=376),
    Message('note_on', channel=3, note=28, velocity=100, time=8),
    Message('note_off', channel=3, note=28, velocity=100, time=184),
    Message('note_on', channel=3, note=28, velocity=100, time=8),
    Message('note_off', channel=3, note=28, velocity=100, time=184),
    Message('note_on', channel=3, note=38, velocity=100, time=8),
    Message('note_off', channel=3, note=38, velocity=100, time=376),
    Message('note_on', channel=3, note=28, velocity=100, time=8),
    Message('note_off', channel=3, note=28, velocity=100, time=184),
    Message('note_on', channel=3, note=28, velocity=100, time=8),
    Message('note_off', channel=3, note=28, velocity=100, time=184),
    Message('note_on', channel=3, note=28, velocity=100, time=8),
    Message('note_off', channel=3, note=28, velocity=100, time=184),
    Message('note_on', channel=3, note=28, velocity=100, time=8),
    Message('note_off', channel=3, note=28, velocity=100, time=184),
    Message('note_on', channel=3, note=28, velocity=100, time=8),
    Message('note_off', channel=3, note=28, velocity=100, time=184),
    Message('note_on', channel=3, note=28, velocity=100, time=8),
    Message('note_off', channel=3, note=28, velocity=100, time=184),
    Message('note_on', channel=3, note=40, velocity=100, time=8),
    Message('note_off', channel=3, note=40, velocity=100, time=376),
    Message('note_on', channel=3, note=28, velocity=100, time=8),
    Message('note_off', channel=3, note=28, velocity=100, time=184),
    Message('note_on', channel=3, note=28, velocity=100, time=8),
    Message('note_off', channel=3, note=28, velocity=100, time=184),
    Message('note_on', channel=3, note=28, velocity=100, time=8),
    Message('note_off', channel=3, note=28, velocity=100, time=184),
    Message('note_on', channel=3, note=28, velocity=100, time=8),
    Message('note_off', channel=3, note=28, velocity=100, time=184),
    Message('note_on', channel=3, note=41, velocity=100, time=8),
    Message('note_off', channel=3, note=41, velocity=100, time=376),
    Message('note_on', channel=3, note=40, velocity=100, time=8),
    Message('note_off', channel=3, note=40, velocity=100, time=376),
    Message('note_on', channel=3, note=28, velocity=100, time=8),
    Message('note_off', channel=3, note=28, velocity=100, time=184),
    Message('note_on', channel=3, note=28, velocity=100, time=8),
    Message('note_off', channel=3, note=28, velocity=100, time=184),
    Message('note_on', channel=3, note=28, velocity=100, time=8),
    Message('note_off', channel=3, note=28, velocity=100, time=184),
    Message('note_on', channel=3, note=28, velocity=100, time=8),
    Message('note_off', channel=3, note=28, velocity=100, time=184),
    Message('note_on', channel=3, note=38, velocity=100, time=8),
    Message('note_off', channel=3, note=38, velocity=100, time=376),
    Message('note_on', channel=3, note=40, velocity=100, time=8),
    Message('note_off', channel=3, note=40, velocity=100, time=376),
    Message('note_on', channel=3, note=28, velocity=100, time=8),
    Message('note_off', channel=3, note=28, velocity=100, time=184),
    Message('note_on', channel=3, note=28, velocity=100, time=8),
    Message('note_off', channel=3, note=28, velocity=100, time=184),
    Message('note_on', channel=3, note=35, velocity=100, time=8),
    Message('note_off', channel=3, note=35, velocity=100, time=376),
    Message('note_on', channel=3, note=28, velocity=100, time=8),
    Message('note_off', channel=3, note=28, velocity=100, time=184),
    Message('note_on', channel=3, note=28, velocity=100, time=8),
    Message('note_off', channel=3, note=28, velocity=100, time=184),
    Message('note_on', channel=3, note=35, velocity=100, time=8),
    Message('note_off', channel=3, note=35, velocity=100, time=184),
    Message('note_on', channel=3, note=35, velocity=100, time=8),
    Message('note_off', channel=3, note=35, velocity=100, time=184),
    Message('note_on', channel=3, note=45, velocity=100, time=8),
    Message('note_off', channel=3, note=45, velocity=100, time=376),
    Message('note_on', channel=3, note=35, velocity=100, time=8),
    Message('note_off', channel=3, note=35, velocity=100, time=184),
    Message('note_on', channel=3, note=35, velocity=100, time=8),
    Message('note_off', channel=3, note=35, velocity=100, time=184),
    Message('note_on', channel=3, note=45, velocity=100, time=8),
    Message('note_off', channel=3, note=45, velocity=100, time=376),
    Message('note_on', channel=3, note=35, velocity=100, time=8),
    Message('note_off', channel=3, note=35, velocity=100, time=184),
    Message('note_on', channel=3, note=35, velocity=100, time=8),
    Message('note_off', channel=3, note=35, velocity=100, time=184),
    Message('note_on', channel=3, note=35, velocity=100, time=8),
    Message('note_off', channel=3, note=35, velocity=100, time=184),
    Message('note_on', channel=3, note=35, velocity=100, time=8),
    Message('note_off', channel=3, note=35, velocity=100, time=184),
    Message('note_on', channel=3, note=35, velocity=100, time=8),
    Message('note_off', channel=3, note=35, velocity=100, time=184),
    Message('note_on', channel=3, note=35, velocity=100, time=8),
    Message('note_off', channel=3, note=35, velocity=100, time=184),
    Message('note_on', channel=3, note=35, velocity=100, time=8),
    Message('note_off', channel=3, note=35, velocity=100, time=184),
    Message('note_on', channel=3, note=35, velocity=100, time=8),
    Message('note_off', channel=3, note=35, velocity=100, time=184),
    Message('note_on', channel=3, note=35, velocity=100, time=8),
    Message('note_off', channel=3, note=35, velocity=100, time=184),
    Message('note_on', channel=3, note=35, velocity=100, time=8),
    Message('note_off', channel=3, note=35, velocity=100, time=184),
    Message('note_on', channel=3, note=35, velocity=100, time=8),
    Message('note_off', channel=3, note=35, velocity=100, time=184),
    Message('note_on', channel=3, note=35, velocity=100, time=8),
    Message('note_off', channel=3, note=35, velocity=100, time=184),
    Message('note_on', channel=3, note=35, velocity=100, time=8),
    Message('note_off', channel=3, note=35, velocity=100, time=184),
    Message('note_on', channel=3, note=35, velocity=100, time=8),
    Message('note_off', channel=3, note=35, velocity=100, time=184),
    Message('note_on', channel=3, note=35, velocity=100, time=8),
    Message('note_off', channel=3, note=35, velocity=100, time=184),
    Message('note_on', channel=3, note=35, velocity=100, time=8),
    Message('note_off', channel=3, note=35, velocity=100, time=184),
    Message('note_on', channel=3, note=35, velocity=100, time=8),
    Message('note_off', channel=3, note=35, velocity=100, time=184),
    Message('note_on', channel=3, note=35, velocity=100, time=8),
    Message('note_off', channel=3, note=35, velocity=100, time=184),
    Message('note_on', channel=3, note=35, velocity=100, time=8),
    Message('note_off', channel=3, note=35, velocity=100, time=184),
    Message('note_on', channel=3, note=35, velocity=100, time=8),
    Message('note_off', channel=3, note=35, velocity=100, time=184),
    Message('note_on', channel=3, note=35, velocity=100, time=8),
    Message('note_off', channel=3, note=35, velocity=100, time=184),
    Message('note_on', channel=3, note=35, velocity=100, time=8),
    Message('note_off', channel=3, note=35, velocity=100, time=184),
    Message('note_on', channel=3, note=35, velocity=100, time=8),
    Message('note_off', channel=3, note=35, velocity=100, time=184),
    Message('note_on', channel=3, note=35, velocity=100, time=8),
    Message('note_off', channel=3, note=35, velocity=100, time=184),
    Message('note_on', channel=3, note=35, velocity=100, time=8),
    Message('note_off', channel=3, note=35, velocity=100, time=184),
    Message('note_on', channel=3, note=35, velocity=100, time=8),
    Message('note_off', channel=3, note=35, velocity=100, time=184),
    Message('note_on', channel=3, note=35, velocity=100, time=8),
    Message('note_off', channel=3, note=35, velocity=100, time=184),
    Message('note_on', channel=3, note=35, velocity=100, time=8),
    Message('note_off', channel=3, note=35, velocity=100, time=184),
    Message('note_on', channel=3, note=35, velocity=100, time=8),
    Message('note_off', channel=3, note=35, velocity=100, time=184),
    Message('note_on', channel=3, note=35, velocity=100, time=8),
    Message('note_off', channel=3, note=35, velocity=100, time=184),
    Message('note_on', channel=3, note=35, velocity=100, time=8),
    Message('note_off', channel=3, note=35, velocity=100, time=184),
    Message('note_on', channel=3, note=35, velocity=100, time=8),
    Message('note_off', channel=3, note=35, velocity=100, time=184),
    Message('note_on', channel=3, note=33, velocity=100, time=8),
    Message('note_off', channel=3, note=33, velocity=100, time=184),
    Message('note_on', channel=3, note=33, velocity=100, time=8),
    Message('note_off', channel=3, note=33, velocity=100, time=184),
    Message('note_on', channel=3, note=33, velocity=100, time=8),
    Message('note_off', channel=3, note=33, velocity=100, time=184),
    Message('note_on', channel=3, note=33, velocity=100, time=8),
    Message('note_off', channel=3, note=33, velocity=100, time=184),
    Message('note_on', channel=3, note=33, velocity=100, time=8),
    Message('note_off', channel=3, note=33, velocity=100, time=184),
    Message('note_on', channel=3, note=33, velocity=100, time=8),
    Message('note_off', channel=3, note=33, velocity=100, time=184),
    Message('note_on', channel=3, note=33, velocity=100, time=8),
    Message('note_off', channel=3, note=33, velocity=100, time=184),
    Message('note_on', channel=3, note=33, velocity=100, time=8),
    Message('note_off', channel=3, note=33, velocity=100, time=184),
    Message('note_on', channel=3, note=33, velocity=100, time=8),
    Message('note_off', channel=3, note=33, velocity=100, time=184),
    Message('note_on', channel=3, note=33, velocity=100, time=8),
    Message('note_off', channel=3, note=33, velocity=100, time=184),
    Message('note_on', channel=3, note=33, velocity=100, time=8),
    Message('note_off', channel=3, note=33, velocity=100, time=184),
    Message('note_on', channel=3, note=33, velocity=100, time=8),
    Message('note_off', channel=3, note=33, velocity=100, time=184),
    Message('note_on', channel=3, note=33, velocity=100, time=8),
    Message('note_off', channel=3, note=33, velocity=100, time=184),
    Message('note_on', channel=3, note=33, velocity=100, time=8),
    Message('note_off', channel=3, note=33, velocity=100, time=184),
    Message('note_on', channel=3, note=33, velocity=100, time=8),
    Message('note_off', channel=3, note=33, velocity=100, time=184),
    Message('note_on', channel=3, note=33, velocity=100, time=8),
    Message('note_off', channel=3, note=33, velocity=100, time=184),
    Message('note_on', channel=3, note=38, velocity=100, time=8),
    Message('note_off', channel=3, note=38, velocity=100, time=184),
    Message('note_on', channel=3, note=37, velocity=100, time=8),
    Message('note_off', channel=3, note=37, velocity=100, time=184),
    Message('note_on', channel=3, note=35, velocity=100, time=8),
    Message('note_off', channel=3, note=35, velocity=100, time=376),
    Message('note_on', channel=3, note=35, velocity=100, time=8),
    Message('note_off', channel=3, note=35, velocity=100, time=184),
    Message('note_on', channel=3, note=35, velocity=100, time=8),
    Message('note_off', channel=3, note=35, velocity=100, time=184),
    Message('note_on', channel=3, note=38, velocity=100, time=8),
    Message('note_off', channel=3, note=38, velocity=100, time=376),
    Message('note_on', channel=3, note=35, velocity=100, time=8),
    Message('note_off', channel=3, note=35, velocity=100, time=184),
    Message('note_on', channel=3, note=35, velocity=100, time=8),
    Message('note_off', channel=3, note=35, velocity=100, time=184),
    Message('note_on', channel=3, note=35, velocity=100, time=8),
    Message('note_off', channel=3, note=35, velocity=100, time=184),
    Message('note_on', channel=3, note=35, velocity=100, time=8),
    Message('note_off', channel=3, note=35, velocity=100, time=184),
    Message('note_on', channel=3, note=40, velocity=100, time=8),
    Message('note_off', channel=3, note=40, velocity=100, time=376),
    Message('note_on', channel=3, note=40, velocity=100, time=8),
    Message('note_off', channel=3, note=40, velocity=100, time=376),
    Message('note_on', channel=3, note=35, velocity=100, time=8),
    Message('note_off', channel=3, note=35, velocity=100, time=184),
    Message('note_on', channel=3, note=35, velocity=100, time=8),
    Message('note_off', channel=3, note=35, velocity=100, time=184),
    Message('note_on', channel=3, note=35, velocity=100, time=8),
    Message('note_off', channel=3, note=35, velocity=100, time=184),
    Message('note_on', channel=3, note=35, velocity=100, time=8),
    Message('note_off', channel=3, note=35, velocity=100, time=184),
    Message('note_on', channel=3, note=35, velocity=100, time=8),
    Message('note_off', channel=3, note=35, velocity=100, time=184),
    Message('note_on', channel=3, note=35, velocity=100, time=8),
    Message('note_off', channel=3, note=35, velocity=100, time=184),
    Message('note_on', channel=3, note=35, velocity=100, time=8),
    Message('note_off', channel=3, note=35, velocity=100, time=184),
    Message('note_on', channel=3, note=35, velocity=100, time=8),
    Message('note_off', channel=3, note=35, velocity=100, time=184),
    Message('note_on', channel=3, note=35, velocity=100, time=8),
    Message('note_off', channel=3, note=35, velocity=100, time=184),
    Message('note_on', channel=3, note=35, velocity=100, time=8),
    Message('note_off', channel=3, note=35, velocity=100, time=184),
    Message('note_on', channel=3, note=35, velocity=100, time=8),
    Message('note_off', channel=3, note=35, velocity=100, time=184),
    Message('note_on', channel=3, note=35, velocity=100, time=8),
    Message('note_off', channel=3, note=35, velocity=100, time=184),
    Message('note_on', channel=3, note=35, velocity=100, time=8),
    Message('note_off', channel=3, note=35, velocity=100, time=184),
    Message('note_on', channel=3, note=35, velocity=100, time=8),
    Message('note_off', channel=3, note=35, velocity=100, time=184),
    Message('note_on', channel=3, note=35, velocity=100, time=8),
    Message('note_off', channel=3, note=35, velocity=100, time=184),
    Message('note_on', channel=3, note=35, velocity=100, time=8),
    Message('note_off', channel=3, note=35, velocity=100, time=184),
    Message('note_on', channel=3, note=35, velocity=100, time=8),
    Message('note_off', channel=3, note=35, velocity=100, time=184),
    Message('note_on', channel=3, note=35, velocity=100, time=8),
    Message('note_off', channel=3, note=35, velocity=100, time=184),
    Message('note_on', channel=3, note=35, velocity=100, time=8),
    Message('note_off', channel=3, note=35, velocity=100, time=184),
    Message('note_on', channel=3, note=35, velocity=100, time=8),
    Message('note_off', channel=3, note=35, velocity=100, time=184),
    Message('note_on', channel=3, note=35, velocity=100, time=8),
    Message('note_off', channel=3, note=35, velocity=100, time=184),
    Message('note_on', channel=3, note=35, velocity=100, time=8),
    Message('note_off', channel=3, note=35, velocity=100, time=184),
    Message('note_on', channel=3, note=35, velocity=100, time=8),
    Message('note_off', channel=3, note=35, velocity=100, time=184),
    Message('note_on', channel=3, note=35, velocity=100, time=8),
    Message('note_off', channel=3, note=35, velocity=100, time=184),
    Message('note_on', channel=3, note=35, velocity=100, time=8),
    Message('note_off', channel=3, note=35, velocity=100, time=184),
    Message('note_on', channel=3, note=35, velocity=100, time=8),
    Message('note_off', channel=3, note=35, velocity=100, time=184),
    Message('note_on', channel=3, note=35, velocity=100, time=8),
    Message('note_off', channel=3, note=35, velocity=100, time=184),
    Message('note_on', channel=3, note=35, velocity=100, time=8),
    Message('note_off', channel=3, note=35, velocity=100, time=184),
    Message('note_on', channel=3, note=35, velocity=100, time=8),
    Message('note_off', channel=3, note=35, velocity=100, time=184),
    Message('note_on', channel=3, note=35, velocity=100, time=8),
    Message('note_off', channel=3, note=35, velocity=100, time=184),
    Message('note_on', channel=3, note=35, velocity=100, time=8),
    Message('note_off', channel=3, note=35, velocity=100, time=184),
    Message('note_on', channel=3, note=35, velocity=100, time=8),
    Message('note_off', channel=3, note=35, velocity=100, time=184),
    Message('note_on', channel=3, note=33, velocity=100, time=8),
    Message('note_off', channel=3, note=33, velocity=100, time=184),
    Message('note_on', channel=3, note=33, velocity=100, time=8),
    Message('note_off', channel=3, note=33, velocity=100, time=184),
    Message('note_on', channel=3, note=33, velocity=100, time=8),
    Message('note_off', channel=3, note=33, velocity=100, time=184),
    Message('note_on', channel=3, note=33, velocity=100, time=8),
    Message('note_off', channel=3, note=33, velocity=100, time=184),
    Message('note_on', channel=3, note=33, velocity=100, time=8),
    Message('note_off', channel=3, note=33, velocity=100, time=184),
    Message('note_on', channel=3, note=33, velocity=100, time=8),
    Message('note_off', channel=3, note=33, velocity=100, time=184),
    Message('note_on', channel=3, note=33, velocity=100, time=8),
    Message('note_off', channel=3, note=33, velocity=100, time=184),
    Message('note_on', channel=3, note=33, velocity=100, time=8),
    Message('note_off', channel=3, note=33, velocity=100, time=184),
    Message('note_on', channel=3, note=33, velocity=100, time=8),
    Message('note_off', channel=3, note=33, velocity=100, time=184),
    Message('note_on', channel=3, note=33, velocity=100, time=8),
    Message('note_off', channel=3, note=33, velocity=100, time=184),
    Message('note_on', channel=3, note=33, velocity=100, time=8),
    Message('note_off', channel=3, note=33, velocity=100, time=184),
    Message('note_on', channel=3, note=33, velocity=100, time=8),
    Message('note_off', channel=3, note=33, velocity=100, time=184),
    Message('note_on', channel=3, note=33, velocity=100, time=8),
    Message('note_off', channel=3, note=33, velocity=100, time=184),
    Message('note_on', channel=3, note=33, velocity=100, time=8),
    Message('note_off', channel=3, note=33, velocity=100, time=184),
    Message('note_on', channel=3, note=33, velocity=100, time=8),
    Message('note_off', channel=3, note=33, velocity=100, time=184),
    Message('note_on', channel=3, note=33, velocity=100, time=8),
    Message('note_off', channel=3, note=33, velocity=100, time=184),
    Message('note_on', channel=3, note=38, velocity=100, time=8),
    Message('note_off', channel=3, note=38, velocity=100, time=184),
    Message('note_on', channel=3, note=37, velocity=100, time=8),
    Message('note_off', channel=3, note=37, velocity=100, time=184),
    Message('note_on', channel=3, note=35, velocity=100, time=8),
    Message('note_off', channel=3, note=35, velocity=100, time=376),
    Message('note_on', channel=3, note=35, velocity=100, time=8),
    Message('note_off', channel=3, note=35, velocity=100, time=184),
    Message('note_on', channel=3, note=35, velocity=100, time=8),
    Message('note_off', channel=3, note=35, velocity=100, time=184),
    Message('note_on', channel=3, note=38, velocity=100, time=8),
    Message('note_off', channel=3, note=38, velocity=100, time=376),
    Message('note_on', channel=3, note=35, velocity=100, time=8),
    Message('note_off', channel=3, note=35, velocity=100, time=184),
    Message('note_on', channel=3, note=35, velocity=100, time=8),
    Message('note_off', channel=3, note=35, velocity=100, time=184),
    Message('note_on', channel=3, note=35, velocity=100, time=8),
    Message('note_off', channel=3, note=35, velocity=100, time=184),
    Message('note_on', channel=3, note=35, velocity=100, time=8),
    Message('note_off', channel=3, note=35, velocity=100, time=184),
    Message('note_on', channel=3, note=40, velocity=100, time=8),
    Message('note_off', channel=3, note=40, velocity=100, time=376),
    Message('note_on', channel=3, note=40, velocity=100, time=8),
    Message('note_off', channel=3, note=40, velocity=100, time=376),
    Message('note_on', channel=3, note=30, velocity=100, time=8),
    Message('note_off', channel=3, note=30, velocity=100, time=376),
    Message('note_on', channel=3, note=28, velocity=100, time=8),
    Message('note_off', channel=3, note=28, velocity=100, time=184),
    Message('note_on', channel=3, note=28, velocity=100, time=8),
    Message('note_off', channel=3, note=28, velocity=100, time=184),
    Message('note_on', channel=3, note=30, velocity=100, time=8),
    Message('note_off', channel=3, note=30, velocity=100, time=376),
    Message('note_on', channel=3, note=28, velocity=100, time=8),
    Message('note_off', channel=3, note=28, velocity=100, time=184),
    Message('note_on', channel=3, note=28, velocity=100, time=8),
    Message('note_off', channel=3, note=28, velocity=100, time=184),
    Message('note_on', channel=3, note=30, velocity=100, time=8),
    Message('note_off', channel=3, note=30, velocity=100, time=376),
    Message('note_on', channel=3, note=28, velocity=100, time=8),
    Message('note_off', channel=3, note=28, velocity=100, time=184),
    Message('note_on', channel=3, note=28, velocity=100, time=8),
    Message('note_off', channel=3, note=28, velocity=100, time=184),
    Message('note_on', channel=3, note=28, velocity=100, time=8),
    Message('note_off', channel=3, note=28, velocity=100, time=184),
    Message('note_on', channel=3, note=30, velocity=100, time=8),
    Message('note_off', channel=3, note=30, velocity=100, time=184),
    Message('note_on', channel=3, note=31, velocity=100, time=8),
    Message('note_off', channel=3, note=31, velocity=100, time=376),
    Message('note_on', channel=3, note=30, velocity=100, time=8),
    Message('note_off', channel=3, note=30, velocity=100, time=376),
    Message('note_on', channel=3, note=28, velocity=100, time=8),
    Message('note_off', channel=3, note=28, velocity=100, time=184),
    Message('note_on', channel=3, note=28, velocity=100, time=8),
    Message('note_off', channel=3, note=28, velocity=100, time=184),
    Message('note_on', channel=3, note=30, velocity=100, time=8),
    Message('note_off', channel=3, note=30, velocity=100, time=376),
    Message('note_on', channel=3, note=28, velocity=100, time=8),
    Message('note_off', channel=3, note=28, velocity=100, time=184),
    Message('note_on', channel=3, note=28, velocity=100, time=8),
    Message('note_off', channel=3, note=28, velocity=100, time=184),
    Message('note_on', channel=3, note=31, velocity=100, time=8),
    Message('note_off', channel=3, note=31, velocity=100, time=184),
    Message('note_on', channel=3, note=30, velocity=100, time=8),
    Message('note_off', channel=3, note=30, velocity=100, time=184),
    Message('note_on', channel=3, note=28, velocity=100, time=8),
    Message('note_off', channel=3, note=28, velocity=100, time=376),
    Message('note_on', channel=3, note=36, velocity=100, time=8),
    Message('note_off', channel=3, note=36, velocity=100, time=760),
    Message('note_on', channel=3, note=30, velocity=100, time=8),
    Message('note_off', channel=3, note=30, velocity=100, time=376),
    Message('note_on', channel=3, note=28, velocity=100, time=8),
    Message('note_off', channel=3, note=28, velocity=100, time=184),
    Message('note_on', channel=3, note=28, velocity=100, time=8),
    Message('note_off', channel=3, note=28, velocity=100, time=184),
    Message('note_on', channel=3, note=30, velocity=100, time=8),
    Message('note_off', channel=3, note=30, velocity=100, time=376),
    Message('note_on', channel=3, note=28, velocity=100, time=8),
    Message('note_off', channel=3, note=28, velocity=100, time=184),
    Message('note_on', channel=3, note=28, velocity=100, time=8),
    Message('note_off', channel=3, note=28, velocity=100, time=184),
    Message('note_on', channel=3, note=30, velocity=100, time=8),
    Message('note_off', channel=3, note=30, velocity=100, time=376),
    Message('note_on', channel=3, note=28, velocity=100, time=8),
    Message('note_off', channel=3, note=28, velocity=100, time=184),
    Message('note_on', channel=3, note=28, velocity=100, time=8),
    Message('note_off', channel=3, note=28, velocity=100, time=184),
    Message('note_on', channel=3, note=28, velocity=100, time=8),
    Message('note_off', channel=3, note=28, velocity=100, time=184),
    Message('note_on', channel=3, note=30, velocity=100, time=8),
    Message('note_off', channel=3, note=30, velocity=100, time=184),
    Message('note_on', channel=3, note=31, velocity=100, time=8),
    Message('note_off', channel=3, note=31, velocity=100, time=376),
    Message('note_on', channel=3, note=30, velocity=100, time=8),
    Message('note_off', channel=3, note=30, velocity=100, time=376),
    Message('note_on', channel=3, note=28, velocity=100, time=8),
    Message('note_off', channel=3, note=28, velocity=100, time=184),
    Message('note_on', channel=3, note=28, velocity=100, time=8),
    Message('note_off', channel=3, note=28, velocity=100, time=184),
    Message('note_on', channel=3, note=30, velocity=100, time=8),
    Message('note_off', channel=3, note=30, velocity=100, time=376),
    Message('note_on', channel=3, note=28, velocity=100, time=8),
    Message('note_off', channel=3, note=28, velocity=100, time=184),
    Message('note_on', channel=3, note=28, velocity=100, time=8),
    Message('note_off', channel=3, note=28, velocity=100, time=184),
    Message('note_on', channel=3, note=30, velocity=100, time=8),
    Message('note_off', channel=3, note=30, velocity=100, time=184),
    Message('note_on', channel=3, note=30, velocity=100, time=8),
    Message('note_off', channel=3, note=30, velocity=100, time=184),
    Message('note_on', channel=3, note=30, velocity=100, time=8),
    Message('note_off', channel=3, note=30, velocity=100, time=184),
    Message('note_on', channel=3, note=30, velocity=100, time=8),
    Message('note_off', channel=3, note=30, velocity=100, time=184),
    Message('note_on', channel=3, note=37, velocity=100, time=8),
    Message('note_off', channel=3, note=37, velocity=100, time=184),
    Message('note_on', channel=3, note=35, velocity=100, time=8),
    Message('note_off', channel=3, note=35, velocity=100, time=184),
    Message('note_on', channel=3, note=33, velocity=100, time=8),
    Message('note_off', channel=3, note=33, velocity=100, time=376),
    Message('note_on', channel=3, note=35, velocity=100, time=8),
    Message('note_off', channel=3, note=35, velocity=100, time=184),
    Message('note_on', channel=3, note=35, velocity=100, time=8),
    Message('note_off', channel=3, note=35, velocity=100, time=184),
    Message('note_on', channel=3, note=42, velocity=100, time=8),
    Message('note_off', channel=3, note=42, velocity=100, time=184),
    Message('note_on', channel=3, note=35, velocity=100, time=8),
    Message('note_off', channel=3, note=35, velocity=100, time=184),
    Message('note_on', channel=3, note=35, velocity=100, time=8),
    Message('note_off', channel=3, note=35, velocity=100, time=184),
    Message('note_on', channel=3, note=43, velocity=100, time=8),
    Message('note_off', channel=3, note=43, velocity=100, time=184),
    Message('note_on', channel=3, note=35, velocity=100, time=8),
    Message('note_off', channel=3, note=35, velocity=100, time=184),
    Message('note_on', channel=3, note=35, velocity=100, time=8),
    Message('note_off', channel=3, note=35, velocity=100, time=184),
    Message('note_on', channel=3, note=42, velocity=100, time=8),
    Message('note_off', channel=3, note=42, velocity=100, time=184),
    Message('note_on', channel=3, note=35, velocity=100, time=8),
    Message('note_off', channel=3, note=35, velocity=100, time=184),
    Message('note_on', channel=3, note=35, velocity=100, time=8),
    Message('note_off', channel=3, note=35, velocity=100, time=184),
    Message('note_on', channel=3, note=40, velocity=100, time=8),
    Message('note_off', channel=3, note=40, velocity=100, time=184),
    Message('note_on', channel=3, note=35, velocity=100, time=8),
    Message('note_off', channel=3, note=35, velocity=100, time=184),
    Message('note_on', channel=3, note=35, velocity=100, time=8),
    Message('note_off', channel=3, note=35, velocity=100, time=184),
    Message('note_on', channel=3, note=42, velocity=100, time=8),
    Message('note_off', channel=3, note=42, velocity=100, time=184),
    Message('note_on', channel=3, note=35, velocity=100, time=8),
    Message('note_off', channel=3, note=35, velocity=100, time=184),
    Message('note_on', channel=3, note=33, velocity=100, time=8),
    Message('note_off', channel=3, note=33, velocity=100, time=184),
    Message('note_on', channel=3, note=33, velocity=100, time=8),
    Message('note_off', channel=3, note=33, velocity=100, time=184),
    Message('note_on', channel=3, note=40, velocity=100, time=8),
    Message('note_off', channel=3, note=40, velocity=100, time=184),
    Message('note_on', channel=3, note=33, velocity=100, time=8),
    Message('note_off', channel=3, note=33, velocity=100, time=184),
    Message('note_on', channel=3, note=33, velocity=100, time=8),
    Message('note_off', channel=3, note=33, velocity=100, time=184),
    Message('note_on', channel=3, note=37, velocity=100, time=8),
    Message('note_off', channel=3, note=37, velocity=100, time=184),
    Message('note_on', channel=3, note=30, velocity=100, time=8),
    Message('note_off', channel=3, note=30, velocity=100, time=184),
    Message('note_on', channel=3, note=30, velocity=100, time=8),
    Message('note_off', channel=3, note=30, velocity=100, time=184),
    Message('note_on', channel=3, note=30, velocity=100, time=8),
    Message('note_off', channel=3, note=30, velocity=100, time=184),
    Message('note_on', channel=3, note=30, velocity=100, time=8),
    Message('note_off', channel=3, note=30, velocity=100, time=184),
    Message('note_on', channel=3, note=37, velocity=100, time=8),
    Message('note_off', channel=3, note=37, velocity=100, time=184),
    Message('note_on', channel=3, note=30, velocity=100, time=8),
    Message('note_off', channel=3, note=30, velocity=100, time=184),
    Message('note_on', channel=3, note=38, velocity=100, time=8),
    Message('note_off', channel=3, note=38, velocity=100, time=184),
    Message('note_on', channel=3, note=30, velocity=100, time=8),
    Message('note_off', channel=3, note=30, velocity=100, time=184),
    Message('note_on', channel=3, note=37, velocity=100, time=8),
    Message('note_off', channel=3, note=37, velocity=100, time=184),
    Message('note_on', channel=3, note=30, velocity=100, time=8),
    Message('note_off', channel=3, note=30, velocity=100, time=184),
    Message('note_on', channel=3, note=35, velocity=100, time=8),
    Message('note_off', channel=3, note=35, velocity=100, time=184),
    Message('note_on', channel=3, note=35, velocity=100, time=8),
    Message('note_off', channel=3, note=35, velocity=100, time=184),
    Message('note_on', channel=3, note=42, velocity=100, time=8),
    Message('note_off', channel=3, note=42, velocity=100, time=184),
    Message('note_on', channel=3, note=35, velocity=100, time=8),
    Message('note_off', channel=3, note=35, velocity=100, time=184),
    Message('note_on', channel=3, note=35, velocity=100, time=8),
    Message('note_off', channel=3, note=35, velocity=100, time=184),
    Message('note_on', channel=3, note=43, velocity=100, time=8),
    Message('note_off', channel=3, note=43, velocity=100, time=184),
    Message('note_on', channel=3, note=35, velocity=100, time=8),
    Message('note_off', channel=3, note=35, velocity=100, time=184),
    Message('note_on', channel=3, note=35, velocity=100, time=8),
    Message('note_off', channel=3, note=35, velocity=100, time=184),
    Message('note_on', channel=3, note=42, velocity=100, time=8),
    Message('note_off', channel=3, note=42, velocity=100, time=184),
    Message('note_on', channel=3, note=35, velocity=100, time=8),
    Message('note_off', channel=3, note=35, velocity=100, time=184),
    Message('note_on', channel=3, note=35, velocity=100, time=8),
    Message('note_off', channel=3, note=35, velocity=100, time=184),
    Message('note_on', channel=3, note=40, velocity=100, time=8),
    Message('note_off', channel=3, note=40, velocity=100, time=184),
    Message('note_on', channel=3, note=35, velocity=100, time=8),
    Message('note_off', channel=3, note=35, velocity=100, time=184),
    Message('note_on', channel=3, note=35, velocity=100, time=8),
    Message('note_off', channel=3, note=35, velocity=100, time=184),
    Message('note_on', channel=3, note=42, velocity=100, time=8),
    Message('note_off', channel=3, note=42, velocity=100, time=184),
    Message('note_on', channel=3, note=35, velocity=100, time=8),
    Message('note_off', channel=3, note=35, velocity=100, time=184),
    Message('note_on', channel=3, note=33, velocity=100, time=8),
    Message('note_off', channel=3, note=33, velocity=100, time=184),
    Message('note_on', channel=3, note=33, velocity=100, time=8),
    Message('note_off', channel=3, note=33, velocity=100, time=184),
    Message('note_on', channel=3, note=40, velocity=100, time=8),
    Message('note_off', channel=3, note=40, velocity=100, time=184),
    Message('note_on', channel=3, note=40, velocity=100, time=8),
    Message('note_off', channel=3, note=40, velocity=100, time=184),
    Message('note_on', channel=3, note=40, velocity=100, time=8),
    Message('note_off', channel=3, note=40, velocity=100, time=184),
    Message('note_on', channel=3, note=37, velocity=100, time=8),
    Message('note_off', channel=3, note=37, velocity=100, time=568),
    Message('note_on', channel=3, note=30, velocity=100, time=8),
    Message('note_off', channel=3, note=30, velocity=100, time=184),
    Message('note_on', channel=3, note=30, velocity=100, time=8),
    Message('note_off', channel=3, note=30, velocity=100, time=184),
    Message('note_on', channel=3, note=37, velocity=100, time=8),
    Message('note_off', channel=3, note=37, velocity=100, time=184),
    Message('note_on', channel=3, note=30, velocity=100, time=8),
    Message('note_off', channel=3, note=30, velocity=100, time=184),
    Message('note_on', channel=3, note=38, velocity=100, time=8),
    Message('note_off', channel=3, note=38, velocity=100, time=184),
    Message('note_on', channel=3, note=37, velocity=100, time=8),
    Message('note_off', channel=3, note=37, velocity=100, time=568),
    Message('note_on', channel=3, note=40, velocity=100, time=8),
    Message('note_off', channel=3, note=40, velocity=100, time=376),
    Message('note_on', channel=3, note=28, velocity=100, time=8),
    Message('note_off', channel=3, note=28, velocity=100, time=184),
    Message('note_on', channel=3, note=28, velocity=100, time=8),
    Message('note_off', channel=3, note=28, velocity=100, time=184),
    Message('note_on', channel=3, note=41, velocity=100, time=8),
    Message('note_off', channel=3, note=41, velocity=100, time=760),
    Message('note_on', channel=3, note=40, velocity=100, time=8),
    Message('note_off', channel=3, note=40, velocity=100, time=376),
    Message('note_on', channel=3, note=28, velocity=100, time=8),
    Message('note_off', channel=3, note=28, velocity=100, time=184),
    Message('note_on', channel=3, note=28, velocity=100, time=8),
    Message('note_off', channel=3, note=28, velocity=100, time=184),
    Message('note_on', channel=3, note=38, velocity=100, time=8),
    Message('note_off', channel=3, note=38, velocity=100, time=760),
    Message('note_on', channel=3, note=40, velocity=100, time=8),
    Message('note_off', channel=3, note=40, velocity=100, time=376),
    Message('note_on', channel=3, note=28, velocity=100, time=8),
    Message('note_off', channel=3, note=28, velocity=100, time=184),
    Message('note_on', channel=3, note=28, velocity=100, time=8),
    Message('note_off', channel=3, note=28, velocity=100, time=184),
    Message('note_on', channel=3, note=35, velocity=100, time=8),
    Message('note_off', channel=3, note=35, velocity=100, time=760),
    Message('note_on', channel=3, note=38, velocity=100, time=8),
    Message('note_off', channel=3, note=38, velocity=100, time=1528),
    Message('note_on', channel=3, note=40, velocity=100, time=8),
    Message('note_off', channel=3, note=40, velocity=100, time=376),
    Message('note_on', channel=3, note=28, velocity=100, time=8),
    Message('note_off', channel=3, note=28, velocity=100, time=184),
    Message('note_on', channel=3, note=28, velocity=100, time=8),
    Message('note_off', channel=3, note=28, velocity=100, time=184),
    Message('note_on', channel=3, note=41, velocity=100, time=8),
    Message('note_off', channel=3, note=41, velocity=100, time=760),
    Message('note_on', channel=3, note=40, velocity=100, time=8),
    Message('note_off', channel=3, note=40, velocity=100, time=376),
    Message('note_on', channel=3, note=28, velocity=100, time=8),
    Message('note_off', channel=3, note=28, velocity=100, time=184),
    Message('note_on', channel=3, note=28, velocity=100, time=8),
    Message('note_off', channel=3, note=28, velocity=100, time=184),
    Message('note_on', channel=3, note=38, velocity=100, time=8),
    Message('note_off', channel=3, note=38, velocity=100, time=760),
    Message('note_on', channel=3, note=40, velocity=100, time=8),
    Message('note_off', channel=3, note=40, velocity=100, time=376),
    Message('note_on', channel=3, note=28, velocity=100, time=8),
    Message('note_off', channel=3, note=28, velocity=100, time=184),
    Message('note_on', channel=3, note=28, velocity=100, time=8),
    Message('note_off', channel=3, note=28, velocity=100, time=184),
    Message('note_on', channel=3, note=35, velocity=100, time=8),
    Message('note_off', channel=3, note=35, velocity=100, time=760),
    Message('note_on', channel=3, note=35, velocity=100, time=8),
    Message('note_off', channel=3, note=35, velocity=100, time=184),
    Message('note_on', channel=3, note=35, velocity=100, time=8),
    Message('note_off', channel=3, note=35, velocity=100, time=184),
    Message('note_on', channel=3, note=45, velocity=100, time=8),
    Message('note_off', channel=3, note=45, velocity=100, time=376),
    Message('note_on', channel=3, note=35, velocity=100, time=8),
    Message('note_off', channel=3, note=35, velocity=100, time=184),
    Message('note_on', channel=3, note=35, velocity=100, time=8),
    Message('note_off', channel=3, note=35, velocity=100, time=184),
    Message('note_on', channel=3, note=45, velocity=100, time=8),
    Message('note_off', channel=3, note=45, velocity=100, time=376),
    Message('note_on', channel=3, note=35, velocity=100, time=8),
    Message('note_off', channel=3, note=35, velocity=100, time=184),
    Message('note_on', channel=3, note=35, velocity=100, time=8),
    Message('note_off', channel=3, note=35, velocity=100, time=184),
    Message('note_on', channel=3, note=35, velocity=100, time=8),
    Message('note_off', channel=3, note=35, velocity=100, time=184),
    Message('note_on', channel=3, note=35, velocity=100, time=8),
    Message('note_off', channel=3, note=35, velocity=100, time=184),
    Message('note_on', channel=3, note=35, velocity=100, time=8),
    Message('note_off', channel=3, note=35, velocity=100, time=184),
    Message('note_on', channel=3, note=35, velocity=100, time=8),
    Message('note_off', channel=3, note=35, velocity=100, time=184),
    Message('note_on', channel=3, note=35, velocity=100, time=8),
    Message('note_off', channel=3, note=35, velocity=100, time=184),
    Message('note_on', channel=3, note=35, velocity=100, time=8),
    Message('note_off', channel=3, note=35, velocity=100, time=184),
    Message('note_on', channel=3, note=35, velocity=100, time=8),
    Message('note_off', channel=3, note=35, velocity=100, time=184),
    Message('note_on', channel=3, note=35, velocity=100, time=8),
    Message('note_off', channel=3, note=35, velocity=100, time=184),
    Message('note_on', channel=3, note=35, velocity=100, time=8),
    Message('note_off', channel=3, note=35, velocity=100, time=184),
    Message('note_on', channel=3, note=35, velocity=100, time=8),
    Message('note_off', channel=3, note=35, velocity=100, time=184),
    Message('note_on', channel=3, note=35, velocity=100, time=8),
    Message('note_off', channel=3, note=35, velocity=100, time=184),
    Message('note_on', channel=3, note=35, velocity=100, time=8),
    Message('note_off', channel=3, note=35, velocity=100, time=184),
    Message('note_on', channel=3, note=35, velocity=100, time=8),
    Message('note_off', channel=3, note=35, velocity=100, time=184),
    Message('note_on', channel=3, note=35, velocity=100, time=8),
    Message('note_off', channel=3, note=35, velocity=100, time=184),
    Message('note_on', channel=3, note=35, velocity=100, time=8),
    Message('note_off', channel=3, note=35, velocity=100, time=184),
    Message('note_on', channel=3, note=35, velocity=100, time=8),
    Message('note_off', channel=3, note=35, velocity=100, time=184),
    Message('note_on', channel=3, note=35, velocity=100, time=8),
    Message('note_off', channel=3, note=35, velocity=100, time=184),
    Message('note_on', channel=3, note=35, velocity=100, time=8),
    Message('note_off', channel=3, note=35, velocity=100, time=184),
    Message('note_on', channel=3, note=35, velocity=100, time=8),
    Message('note_off', channel=3, note=35, velocity=100, time=184),
    Message('note_on', channel=3, note=35, velocity=100, time=8),
    Message('note_off', channel=3, note=35, velocity=100, time=184),
    Message('note_on', channel=3, note=35, velocity=100, time=8),
    Message('note_off', channel=3, note=35, velocity=100, time=184),
    Message('note_on', channel=3, note=35, velocity=100, time=8),
    Message('note_off', channel=3, note=35, velocity=100, time=184),
    Message('note_on', channel=3, note=35, velocity=100, time=8),
    Message('note_off', channel=3, note=35, velocity=100, time=184),
    Message('note_on', channel=3, note=35, velocity=100, time=8),
    Message('note_off', channel=3, note=35, velocity=100, time=184),
    Message('note_on', channel=3, note=35, velocity=100, time=8),
    Message('note_off', channel=3, note=35, velocity=100, time=184),
    Message('note_on', channel=3, note=35, velocity=100, time=8),
    Message('note_off', channel=3, note=35, velocity=100, time=184),
    Message('note_on', channel=3, note=35, velocity=100, time=8),
    Message('note_off', channel=3, note=35, velocity=100, time=184),
    Message('note_on', channel=3, note=35, velocity=100, time=8),
    Message('note_off', channel=3, note=35, velocity=100, time=184),
    Message('note_on', channel=3, note=35, velocity=100, time=8),
    Message('note_off', channel=3, note=35, velocity=100, time=184),
    Message('note_on', channel=3, note=35, velocity=100, time=8),
    Message('note_off', channel=3, note=35, velocity=100, time=184),
    Message('note_on', channel=3, note=33, velocity=100, time=8),
    Message('note_off', channel=3, note=33, velocity=100, time=184),
    Message('note_on', channel=3, note=33, velocity=100, time=8),
    Message('note_off', channel=3, note=33, velocity=100, time=184),
    Message('note_on', channel=3, note=33, velocity=100, time=8),
    Message('note_off', channel=3, note=33, velocity=100, time=184),
    Message('note_on', channel=3, note=33, velocity=100, time=8),
    Message('note_off', channel=3, note=33, velocity=100, time=184),
    Message('note_on', channel=3, note=33, velocity=100, time=8),
    Message('note_off', channel=3, note=33, velocity=100, time=184),
    Message('note_on', channel=3, note=33, velocity=100, time=8),
    Message('note_off', channel=3, note=33, velocity=100, time=184),
    Message('note_on', channel=3, note=33, velocity=100, time=8),
    Message('note_off', channel=3, note=33, velocity=100, time=184),
    Message('note_on', channel=3, note=33, velocity=100, time=8),
    Message('note_off', channel=3, note=33, velocity=100, time=184),
    Message('note_on', channel=3, note=33, velocity=100, time=8),
    Message('note_off', channel=3, note=33, velocity=100, time=184),
    Message('note_on', channel=3, note=33, velocity=100, time=8),
    Message('note_off', channel=3, note=33, velocity=100, time=184),
    Message('note_on', channel=3, note=33, velocity=100, time=8),
    Message('note_off', channel=3, note=33, velocity=100, time=184),
    Message('note_on', channel=3, note=33, velocity=100, time=8),
    Message('note_off', channel=3, note=33, velocity=100, time=184),
    Message('note_on', channel=3, note=33, velocity=100, time=8),
    Message('note_off', channel=3, note=33, velocity=100, time=184),
    Message('note_on', channel=3, note=33, velocity=100, time=8),
    Message('note_off', channel=3, note=33, velocity=100, time=184),
    Message('note_on', channel=3, note=33, velocity=100, time=8),
    Message('note_off', channel=3, note=33, velocity=100, time=184),
    Message('note_on', channel=3, note=33, velocity=100, time=8),
    Message('note_off', channel=3, note=33, velocity=100, time=184),
    Message('note_on', channel=3, note=38, velocity=100, time=8),
    Message('note_off', channel=3, note=38, velocity=100, time=184),
    Message('note_on', channel=3, note=37, velocity=100, time=8),
    Message('note_off', channel=3, note=37, velocity=100, time=184),
    Message('note_on', channel=3, note=35, velocity=100, time=8),
    Message('note_off', channel=3, note=35, velocity=100, time=376),
    Message('note_on', channel=3, note=35, velocity=100, time=8),
    Message('note_off', channel=3, note=35, velocity=100, time=184),
    Message('note_on', channel=3, note=35, velocity=100, time=8),
    Message('note_off', channel=3, note=35, velocity=100, time=184),
    Message('note_on', channel=3, note=38, velocity=100, time=8),
    Message('note_off', channel=3, note=38, velocity=100, time=376),
    Message('note_on', channel=3, note=35, velocity=100, time=8),
    Message('note_off', channel=3, note=35, velocity=100, time=184),
    Message('note_on', channel=3, note=35, velocity=100, time=8),
    Message('note_off', channel=3, note=35, velocity=100, time=184),
    Message('note_on', channel=3, note=35, velocity=100, time=8),
    Message('note_off', channel=3, note=35, velocity=100, time=184),
    Message('note_on', channel=3, note=35, velocity=100, time=8),
    Message('note_off', channel=3, note=35, velocity=100, time=184),
    Message('note_on', channel=3, note=40, velocity=100, time=8),
    Message('note_off', channel=3, note=40, velocity=100, time=376),
    Message('note_on', channel=3, note=40, velocity=100, time=8),
    Message('note_off', channel=3, note=40, velocity=100, time=376),
    Message('note_on', channel=3, note=35, velocity=100, time=8),
    Message('note_off', channel=3, note=35, velocity=100, time=184),
    Message('note_on', channel=3, note=35, velocity=100, time=8),
    Message('note_off', channel=3, note=35, velocity=100, time=184),
    Message('note_on', channel=3, note=35, velocity=100, time=8),
    Message('note_off', channel=3, note=35, velocity=100, time=184),
    Message('note_on', channel=3, note=35, velocity=100, time=8),
    Message('note_off', channel=3, note=35, velocity=100, time=184),
    Message('note_on', channel=3, note=35, velocity=100, time=8),
    Message('note_off', channel=3, note=35, velocity=100, time=184),
    Message('note_on', channel=3, note=35, velocity=100, time=8),
    Message('note_off', channel=3, note=35, velocity=100, time=184),
    Message('note_on', channel=3, note=35, velocity=100, time=8),
    Message('note_off', channel=3, note=35, velocity=100, time=184),
    Message('note_on', channel=3, note=35, velocity=100, time=8),
    Message('note_off', channel=3, note=35, velocity=100, time=184),
    Message('note_on', channel=3, note=35, velocity=100, time=8),
    Message('note_off', channel=3, note=35, velocity=100, time=184),
    Message('note_on', channel=3, note=35, velocity=100, time=8),
    Message('note_off', channel=3, note=35, velocity=100, time=184),
    Message('note_on', channel=3, note=35, velocity=100, time=8),
    Message('note_off', channel=3, note=35, velocity=100, time=184),
    Message('note_on', channel=3, note=35, velocity=100, time=8),
    Message('note_off', channel=3, note=35, velocity=100, time=184),
    Message('note_on', channel=3, note=35, velocity=100, time=8),
    Message('note_off', channel=3, note=35, velocity=100, time=184),
    Message('note_on', channel=3, note=35, velocity=100, time=8),
    Message('note_off', channel=3, note=35, velocity=100, time=184),
    Message('note_on', channel=3, note=35, velocity=100, time=8),
    Message('note_off', channel=3, note=35, velocity=100, time=184),
    Message('note_on', channel=3, note=35, velocity=100, time=8),
    Message('note_off', channel=3, note=35, velocity=100, time=184),
    Message('note_on', channel=3, note=35, velocity=100, time=8),
    Message('note_off', channel=3, note=35, velocity=100, time=184),
    Message('note_on', channel=3, note=35, velocity=100, time=8),
    Message('note_off', channel=3, note=35, velocity=100, time=184),
    Message('note_on', channel=3, note=35, velocity=100, time=8),
    Message('note_off', channel=3, note=35, velocity=100, time=184),
    Message('note_on', channel=3, note=35, velocity=100, time=8),
    Message('note_off', channel=3, note=35, velocity=100, time=184),
    Message('note_on', channel=3, note=35, velocity=100, time=8),
    Message('note_off', channel=3, note=35, velocity=100, time=184),
    Message('note_on', channel=3, note=35, velocity=100, time=8),
    Message('note_off', channel=3, note=35, velocity=100, time=184),
    Message('note_on', channel=3, note=35, velocity=100, time=8),
    Message('note_off', channel=3, note=35, velocity=100, time=184),
    Message('note_on', channel=3, note=35, velocity=100, time=8),
    Message('note_off', channel=3, note=35, velocity=100, time=184),
    Message('note_on', channel=3, note=35, velocity=100, time=8),
    Message('note_off', channel=3, note=35, velocity=100, time=184),
    Message('note_on', channel=3, note=35, velocity=100, time=8),
    Message('note_off', channel=3, note=35, velocity=100, time=184),
    Message('note_on', channel=3, note=35, velocity=100, time=8),
    Message('note_off', channel=3, note=35, velocity=100, time=184),
    Message('note_on', channel=3, note=35, velocity=100, time=8),
    Message('note_off', channel=3, note=35, velocity=100, time=184),
    Message('note_on', channel=3, note=38, velocity=100, time=8),
    Message('note_off', channel=3, note=38, velocity=100, time=184),
    Message('note_on', channel=3, note=38, velocity=100, time=8),
    Message('note_off', channel=3, note=38, velocity=100, time=568),
    Message('note_on', channel=3, note=33, velocity=100, time=8),
    Message('note_off', channel=3, note=33, velocity=100, time=184),
    Message('note_on', channel=3, note=33, velocity=100, time=8),
    Message('note_off', channel=3, note=33, velocity=100, time=184),
    Message('note_on', channel=3, note=33, velocity=100, time=8),
    Message('note_off', channel=3, note=33, velocity=100, time=184),
    Message('note_on', channel=3, note=33, velocity=100, time=8),
    Message('note_off', channel=3, note=33, velocity=100, time=184),
    Message('note_on', channel=3, note=33, velocity=100, time=8),
    Message('note_off', channel=3, note=33, velocity=100, time=184),
    Message('note_on', channel=3, note=33, velocity=100, time=8),
    Message('note_off', channel=3, note=33, velocity=100, time=184),
    Message('note_on', channel=3, note=33, velocity=100, time=8),
    Message('note_off', channel=3, note=33, velocity=100, time=184),
    Message('note_on', channel=3, note=33, velocity=100, time=8),
    Message('note_off', channel=3, note=33, velocity=100, time=184),
    Message('note_on', channel=3, note=33, velocity=100, time=8),
    Message('note_off', channel=3, note=33, velocity=100, time=184),
    Message('note_on', channel=3, note=33, velocity=100, time=8),
    Message('note_off', channel=3, note=33, velocity=100, time=184),
    Message('note_on', channel=3, note=33, velocity=100, time=8),
    Message('note_off', channel=3, note=33, velocity=100, time=184),
    Message('note_on', channel=3, note=33, velocity=100, time=8),
    Message('note_off', channel=3, note=33, velocity=100, time=184),
    Message('note_on', channel=3, note=33, velocity=100, time=8),
    Message('note_off', channel=3, note=33, velocity=100, time=184),
    Message('note_on', channel=3, note=33, velocity=100, time=8),
    Message('note_off', channel=3, note=33, velocity=100, time=184),
    Message('note_on', channel=3, note=33, velocity=100, time=8),
    Message('note_off', channel=3, note=33, velocity=100, time=184),
    Message('note_on', channel=3, note=33, velocity=100, time=8),
    Message('note_off', channel=3, note=33, velocity=100, time=184),
    Message('note_on', channel=3, note=38, velocity=100, time=8),
    Message('note_off', channel=3, note=38, velocity=100, time=184),
    Message('note_on', channel=3, note=37, velocity=100, time=8),
    Message('note_off', channel=3, note=37, velocity=100, time=184),
    Message('note_on', channel=3, note=35, velocity=100, time=8),
    Message('note_off', channel=3, note=35, velocity=100, time=376),
    Message('note_on', channel=3, note=35, velocity=100, time=8),
    Message('note_off', channel=3, note=35, velocity=100, time=184),
    Message('note_on', channel=3, note=35, velocity=100, time=8),
    Message('note_off', channel=3, note=35, velocity=100, time=184),
    Message('note_on', channel=3, note=38, velocity=100, time=8),
    Message('note_off', channel=3, note=38, velocity=100, time=376),
    Message('note_on', channel=3, note=35, velocity=100, time=8),
    Message('note_off', channel=3, note=35, velocity=100, time=184),
    Message('note_on', channel=3, note=35, velocity=100, time=8),
    Message('note_off', channel=3, note=35, velocity=100, time=184),
    Message('note_on', channel=3, note=35, velocity=100, time=8),
    Message('note_off', channel=3, note=35, velocity=100, time=184),
    Message('note_on', channel=3, note=35, velocity=100, time=8),
    Message('note_off', channel=3, note=35, velocity=100, time=184),
    Message('note_on', channel=3, note=40, velocity=100, time=8),
    Message('note_off', channel=3, note=40, velocity=100, time=376),
    Message('note_on', channel=3, note=40, velocity=100, time=8),
    Message('note_off', channel=3, note=40, velocity=100, time=376),
    Message('note_on', channel=3, note=30, velocity=100, time=8),
    Message('note_off', channel=3, note=30, velocity=100, time=376),
    Message('note_on', channel=3, note=28, velocity=100, time=8),
    Message('note_off', channel=3, note=28, velocity=100, time=184),
    Message('note_on', channel=3, note=28, velocity=100, time=8),
    Message('note_off', channel=3, note=28, velocity=100, time=184),
    Message('note_on', channel=3, note=30, velocity=100, time=8),
    Message('note_off', channel=3, note=30, velocity=100, time=376),
    Message('note_on', channel=3, note=28, velocity=100, time=8),
    Message('note_off', channel=3, note=28, velocity=100, time=184),
    Message('note_on', channel=3, note=28, velocity=100, time=8),
    Message('note_off', channel=3, note=28, velocity=100, time=184),
    Message('note_on', channel=3, note=30, velocity=100, time=8),
    Message('note_off', channel=3, note=30, velocity=100, time=376),
    Message('note_on', channel=3, note=28, velocity=100, time=8),
    Message('note_off', channel=3, note=28, velocity=100, time=184),
    Message('note_on', channel=3, note=28, velocity=100, time=8),
    Message('note_off', channel=3, note=28, velocity=100, time=184),
    Message('note_on', channel=3, note=28, velocity=100, time=8),
    Message('note_off', channel=3, note=28, velocity=100, time=184),
    Message('note_on', channel=3, note=30, velocity=100, time=8),
    Message('note_off', channel=3, note=30, velocity=100, time=184),
    Message('note_on', channel=3, note=31, velocity=100, time=8),
    Message('note_off', channel=3, note=31, velocity=100, time=376),
    Message('note_on', channel=3, note=30, velocity=100, time=8),
    Message('note_off', channel=3, note=30, velocity=100, time=376),
    Message('note_on', channel=3, note=28, velocity=100, time=8),
    Message('note_off', channel=3, note=28, velocity=100, time=184),
    Message('note_on', channel=3, note=28, velocity=100, time=8),
    Message('note_off', channel=3, note=28, velocity=100, time=184),
    Message('note_on', channel=3, note=30, velocity=100, time=8),
    Message('note_off', channel=3, note=30, velocity=100, time=376),
    Message('note_on', channel=3, note=28, velocity=100, time=8),
    Message('note_off', channel=3, note=28, velocity=100, time=184),
    Message('note_on', channel=3, note=28, velocity=100, time=8),
    Message('note_off', channel=3, note=28, velocity=100, time=184),
    Message('note_on', channel=3, note=31, velocity=100, time=8),
    Message('note_off', channel=3, note=31, velocity=100, time=184),
    Message('note_on', channel=3, note=30, velocity=100, time=8),
    Message('note_off', channel=3, note=30, velocity=100, time=184),
    Message('note_on', channel=3, note=28, velocity=100, time=8),
    Message('note_off', channel=3, note=28, velocity=100, time=376),
    Message('note_on', channel=3, note=36, velocity=100, time=8),
    Message('note_off', channel=3, note=36, velocity=100, time=760),
    Message('note_on', channel=3, note=30, velocity=100, time=8),
    Message('note_off', channel=3, note=30, velocity=100, time=376),
    Message('note_on', channel=3, note=28, velocity=100, time=8),
    Message('note_off', channel=3, note=28, velocity=100, time=184),
    Message('note_on', channel=3, note=28, velocity=100, time=8),
    Message('note_off', channel=3, note=28, velocity=100, time=184),
    Message('note_on', channel=3, note=30, velocity=100, time=8),
    Message('note_off', channel=3, note=30, velocity=100, time=376),
    Message('note_on', channel=3, note=28, velocity=100, time=8),
    Message('note_off', channel=3, note=28, velocity=100, time=184),
    Message('note_on', channel=3, note=28, velocity=100, time=8),
    Message('note_off', channel=3, note=28, velocity=100, time=184),
    Message('note_on', channel=3, note=30, velocity=100, time=8),
    Message('note_off', channel=3, note=30, velocity=100, time=376),
    Message('note_on', channel=3, note=28, velocity=100, time=8),
    Message('note_off', channel=3, note=28, velocity=100, time=184),
    Message('note_on', channel=3, note=28, velocity=100, time=8),
    Message('note_off', channel=3, note=28, velocity=100, time=184),
    Message('note_on', channel=3, note=28, velocity=100, time=8),
    Message('note_off', channel=3, note=28, velocity=100, time=184),
    Message('note_on', channel=3, note=30, velocity=100, time=8),
    Message('note_off', channel=3, note=30, velocity=100, time=184),
    Message('note_on', channel=3, note=31, velocity=100, time=8),
    Message('note_off', channel=3, note=31, velocity=100, time=376),
    Message('note_on', channel=3, note=30, velocity=100, time=8),
    Message('note_off', channel=3, note=30, velocity=100, time=376),
    Message('note_on', channel=3, note=28, velocity=100, time=8),
    Message('note_off', channel=3, note=28, velocity=100, time=184),
    Message('note_on', channel=3, note=28, velocity=100, time=8),
    Message('note_off', channel=3, note=28, velocity=100, time=184),
    Message('note_on', channel=3, note=30, velocity=100, time=8),
    Message('note_off', channel=3, note=30, velocity=100, time=376),
    Message('note_on', channel=3, note=28, velocity=100, time=8),
    Message('note_off', channel=3, note=28, velocity=100, time=184),
    Message('note_on', channel=3, note=28, velocity=100, time=8),
    Message('note_off', channel=3, note=28, velocity=100, time=184),
    Message('note_on', channel=3, note=30, velocity=100, time=8),
    Message('note_off', channel=3, note=30, velocity=100, time=184),
    Message('note_on', channel=3, note=30, velocity=100, time=8),
    Message('note_off', channel=3, note=30, velocity=100, time=184),
    Message('note_on', channel=3, note=30, velocity=100, time=8),
    Message('note_off', channel=3, note=30, velocity=100, time=184),
    Message('note_on', channel=3, note=30, velocity=100, time=8),
    Message('note_off', channel=3, note=30, velocity=100, time=184),
    Message('note_on', channel=3, note=37, velocity=100, time=8),
    Message('note_off', channel=3, note=37, velocity=100, time=184),
    Message('note_on', channel=3, note=35, velocity=100, time=8),
    Message('note_off', channel=3, note=35, velocity=100, time=184),
    Message('note_on', channel=3, note=33, velocity=100, time=8),
    Message('note_off', channel=3, note=33, velocity=100, time=376),
    Message('note_on', channel=3, note=35, velocity=100, time=8),
    Message('note_off', channel=3, note=35, velocity=100, time=184),
    Message('note_on', channel=3, note=35, velocity=100, time=8),
    Message('note_off', channel=3, note=35, velocity=100, time=184),
    Message('note_on', channel=3, note=42, velocity=100, time=8),
    Message('note_off', channel=3, note=42, velocity=100, time=184),
    Message('note_on', channel=3, note=35, velocity=100, time=8),
    Message('note_off', channel=3, note=35, velocity=100, time=184),
    Message('note_on', channel=3, note=35, velocity=100, time=8),
    Message('note_off', channel=3, note=35, velocity=100, time=184),
    Message('note_on', channel=3, note=43, velocity=100, time=8),
    Message('note_off', channel=3, note=43, velocity=100, time=184),
    Message('note_on', channel=3, note=35, velocity=100, time=8),
    Message('note_off', channel=3, note=35, velocity=100, time=184),
    Message('note_on', channel=3, note=35, velocity=100, time=8),
    Message('note_off', channel=3, note=35, velocity=100, time=184),
    Message('note_on', channel=3, note=42, velocity=100, time=8),
    Message('note_off', channel=3, note=42, velocity=100, time=184),
    Message('note_on', channel=3, note=35, velocity=100, time=8),
    Message('note_off', channel=3, note=35, velocity=100, time=184),
    Message('note_on', channel=3, note=35, velocity=100, time=8),
    Message('note_off', channel=3, note=35, velocity=100, time=184),
    Message('note_on', channel=3, note=40, velocity=100, time=8),
    Message('note_off', channel=3, note=40, velocity=100, time=184),
    Message('note_on', channel=3, note=35, velocity=100, time=8),
    Message('note_off', channel=3, note=35, velocity=100, time=184),
    Message('note_on', channel=3, note=35, velocity=100, time=8),
    Message('note_off', channel=3, note=35, velocity=100, time=184),
    Message('note_on', channel=3, note=42, velocity=100, time=8),
    Message('note_off', channel=3, note=42, velocity=100, time=184),
    Message('note_on', channel=3, note=35, velocity=100, time=8),
    Message('note_off', channel=3, note=35, velocity=100, time=184),
    Message('note_on', channel=3, note=33, velocity=100, time=8),
    Message('note_off', channel=3, note=33, velocity=100, time=184),
    Message('note_on', channel=3, note=33, velocity=100, time=8),
    Message('note_off', channel=3, note=33, velocity=100, time=184),
    Message('note_on', channel=3, note=40, velocity=100, time=8),
    Message('note_off', channel=3, note=40, velocity=100, time=184),
    Message('note_on', channel=3, note=33, velocity=100, time=8),
    Message('note_off', channel=3, note=33, velocity=100, time=184),
    Message('note_on', channel=3, note=33, velocity=100, time=8),
    Message('note_off', channel=3, note=33, velocity=100, time=184),
    Message('note_on', channel=3, note=37, velocity=100, time=8),
    Message('note_off', channel=3, note=37, velocity=100, time=184),
    Message('note_on', channel=3, note=30, velocity=100, time=8),
    Message('note_off', channel=3, note=30, velocity=100, time=184),
    Message('note_on', channel=3, note=30, velocity=100, time=8),
    Message('note_off', channel=3, note=30, velocity=100, time=184),
    Message('note_on', channel=3, note=30, velocity=100, time=8),
    Message('note_off', channel=3, note=30, velocity=100, time=184),
    Message('note_on', channel=3, note=30, velocity=100, time=8),
    Message('note_off', channel=3, note=30, velocity=100, time=184),
    Message('note_on', channel=3, note=37, velocity=100, time=8),
    Message('note_off', channel=3, note=37, velocity=100, time=184),
    Message('note_on', channel=3, note=30, velocity=100, time=8),
    Message('note_off', channel=3, note=30, velocity=100, time=184),
    Message('note_on', channel=3, note=38, velocity=100, time=8),
    Message('note_off', channel=3, note=38, velocity=100, time=184),
    Message('note_on', channel=3, note=30, velocity=100, time=8),
    Message('note_off', channel=3, note=30, velocity=100, time=184),
    Message('note_on', channel=3, note=37, velocity=100, time=8),
    Message('note_off', channel=3, note=37, velocity=100, time=184),
    Message('note_on', channel=3, note=30, velocity=100, time=8),
    Message('note_off', channel=3, note=30, velocity=100, time=184),
    Message('note_on', channel=3, note=35, velocity=100, time=8),
    Message('note_off', channel=3, note=35, velocity=100, time=184),
    Message('note_on', channel=3, note=35, velocity=100, time=8),
    Message('note_off', channel=3, note=35, velocity=100, time=184),
    Message('note_on', channel=3, note=42, velocity=100, time=8),
    Message('note_off', channel=3, note=42, velocity=100, time=184),
    Message('note_on', channel=3, note=35, velocity=100, time=8),
    Message('note_off', channel=3, note=35, velocity=100, time=184),
    Message('note_on', channel=3, note=35, velocity=100, time=8),
    Message('note_off', channel=3, note=35, velocity=100, time=184),
    Message('note_on', channel=3, note=43, velocity=100, time=8),
    Message('note_off', channel=3, note=43, velocity=100, time=184),
    Message('note_on', channel=3, note=35, velocity=100, time=8),
    Message('note_off', channel=3, note=35, velocity=100, time=184),
    Message('note_on', channel=3, note=35, velocity=100, time=8),
    Message('note_off', channel=3, note=35, velocity=100, time=184),
    Message('note_on', channel=3, note=42, velocity=100, time=8),
    Message('note_off', channel=3, note=42, velocity=100, time=184),
    Message('note_on', channel=3, note=35, velocity=100, time=8),
    Message('note_off', channel=3, note=35, velocity=100, time=184),
    Message('note_on', channel=3, note=35, velocity=100, time=8),
    Message('note_off', channel=3, note=35, velocity=100, time=184),
    Message('note_on', channel=3, note=40, velocity=100, time=8),
    Message('note_off', channel=3, note=40, velocity=100, time=184),
    Message('note_on', channel=3, note=35, velocity=100, time=8),
    Message('note_off', channel=3, note=35, velocity=100, time=184),
    Message('note_on', channel=3, note=35, velocity=100, time=8),
    Message('note_off', channel=3, note=35, velocity=100, time=184),
    Message('note_on', channel=3, note=42, velocity=100, time=8),
    Message('note_off', channel=3, note=42, velocity=100, time=184),
    Message('note_on', channel=3, note=35, velocity=100, time=8),
    Message('note_off', channel=3, note=35, velocity=100, time=184),
    Message('note_on', channel=3, note=33, velocity=100, time=8),
    Message('note_off', channel=3, note=33, velocity=100, time=184),
    Message('note_on', channel=3, note=33, velocity=100, time=8),
    Message('note_off', channel=3, note=33, velocity=100, time=184),
    Message('note_on', channel=3, note=40, velocity=100, time=8),
    Message('note_off', channel=3, note=40, velocity=100, time=184),
    Message('note_on', channel=3, note=40, velocity=100, time=8),
    Message('note_off', channel=3, note=40, velocity=100, time=184),
    Message('note_on', channel=3, note=40, velocity=100, time=8),
    Message('note_off', channel=3, note=40, velocity=100, time=184),
    Message('note_on', channel=3, note=37, velocity=100, time=8),
    Message('note_off', channel=3, note=37, velocity=100, time=568),
    Message('note_on', channel=3, note=30, velocity=100, time=8),
    Message('note_off', channel=3, note=30, velocity=100, time=184),
    Message('note_on', channel=3, note=30, velocity=100, time=8),
    Message('note_off', channel=3, note=30, velocity=100, time=184),
    Message('note_on', channel=3, note=37, velocity=100, time=8),
    Message('note_off', channel=3, note=37, velocity=100, time=184),
    Message('note_on', channel=3, note=30, velocity=100, time=8),
    Message('note_off', channel=3, note=30, velocity=100, time=184),
    Message('note_on', channel=3, note=38, velocity=100, time=8),
    Message('note_off', channel=3, note=38, velocity=100, time=184),
    Message('note_on', channel=3, note=37, velocity=100, time=8),
    Message('note_off', channel=3, note=37, velocity=100, time=568),
    Message('note_on', channel=3, note=40, velocity=100, time=8),
    Message('note_off', channel=3, note=40, velocity=100, time=376),
    Message('note_on', channel=3, note=28, velocity=100, time=8),
    Message('note_off', channel=3, note=28, velocity=100, time=184),
    Message('note_on', channel=3, note=28, velocity=100, time=8),
    Message('note_off', channel=3, note=28, velocity=100, time=184),
    Message('note_on', channel=3, note=41, velocity=100, time=8),
    Message('note_off', channel=3, note=41, velocity=100, time=760),
    Message('note_on', channel=3, note=40, velocity=100, time=8),
    Message('note_off', channel=3, note=40, velocity=100, time=376),
    Message('note_on', channel=3, note=28, velocity=100, time=8),
    Message('note_off', channel=3, note=28, velocity=100, time=184),
    Message('note_on', channel=3, note=28, velocity=100, time=8),
    Message('note_off', channel=3, note=28, velocity=100, time=184),
    Message('note_on', channel=3, note=38, velocity=100, time=8),
    Message('note_off', channel=3, note=38, velocity=100, time=760),
    Message('note_on', channel=3, note=40, velocity=100, time=8),
    Message('note_off', channel=3, note=40, velocity=100, time=376),
    Message('note_on', channel=3, note=28, velocity=100, time=8),
    Message('note_off', channel=3, note=28, velocity=100, time=184),
    Message('note_on', channel=3, note=28, velocity=100, time=8),
    Message('note_off', channel=3, note=28, velocity=100, time=184),
    Message('note_on', channel=3, note=35, velocity=100, time=8),
    Message('note_off', channel=3, note=35, velocity=100, time=760),
    Message('note_on', channel=3, note=38, velocity=100, time=8),
    Message('note_off', channel=3, note=38, velocity=100, time=1528),
    Message('note_on', channel=3, note=40, velocity=100, time=8),
    Message('note_off', channel=3, note=40, velocity=100, time=376),
    Message('note_on', channel=3, note=28, velocity=100, time=8),
    Message('note_off', channel=3, note=28, velocity=100, time=184),
    Message('note_on', channel=3, note=28, velocity=100, time=8),
    Message('note_off', channel=3, note=28, velocity=100, time=184),
    Message('note_on', channel=3, note=41, velocity=100, time=8),
    Message('note_off', channel=3, note=41, velocity=100, time=760),
    Message('note_on', channel=3, note=40, velocity=100, time=8),
    Message('note_off', channel=3, note=40, velocity=100, time=376),
    Message('note_on', channel=3, note=28, velocity=100, time=8),
    Message('note_off', channel=3, note=28, velocity=100, time=184),
    Message('note_on', channel=3, note=28, velocity=100, time=8),
    Message('note_off', channel=3, note=28, velocity=100, time=184),
    Message('note_on', channel=3, note=38, velocity=100, time=8),
    Message('note_off', channel=3, note=38, velocity=100, time=760),
    Message('note_on', channel=3, note=40, velocity=100, time=8),
    Message('note_off', channel=3, note=40, velocity=100, time=760),
    Message('note_on', channel=3, note=35, velocity=100, time=8),
    Message('note_off', channel=3, note=35, velocity=100, time=760),
    Message('note_on', channel=3, note=36, velocity=100, time=8),
    Message('note_off', channel=3, note=36, velocity=100, time=760),
    Message('note_on', channel=3, note=31, velocity=100, time=8),
    Message('note_off', channel=3, note=31, velocity=100, time=760),
    Message('note_on', channel=3, note=28, velocity=100, time=8),
    Message('note_off', channel=3, note=28, velocity=100, time=3064),
    Message('note_on', channel=3, note=35, velocity=100, time=8),
    Message('note_off', channel=3, note=35, velocity=100, time=184),
    Message('note_on', channel=3, note=35, velocity=100, time=8),
    Message('note_off', channel=3, note=35, velocity=100, time=184),
    Message('note_on', channel=3, note=35, velocity=100, time=8),
    Message('note_off', channel=3, note=35, velocity=100, time=184),
    Message('note_on', channel=3, note=35, velocity=100, time=8),
    Message('note_off', channel=3, note=35, velocity=100, time=184),
    Message('note_on', channel=3, note=35, velocity=100, time=8),
    Message('note_off', channel=3, note=35, velocity=100, time=184),
    Message('note_on', channel=3, note=35, velocity=100, time=8),
    Message('note_off', channel=3, note=35, velocity=100, time=184),
    Message('note_on', channel=3, note=35, velocity=100, time=8),
    Message('note_off', channel=3, note=35, velocity=100, time=184),
    Message('note_on', channel=3, note=35, velocity=100, time=8),
    Message('note_off', channel=3, note=35, velocity=100, time=184),
    Message('note_on', channel=3, note=35, velocity=100, time=8),
    Message('note_off', channel=3, note=35, velocity=100, time=184),
    Message('note_on', channel=3, note=35, velocity=100, time=8),
    Message('note_off', channel=3, note=35, velocity=100, time=184),
    Message('note_on', channel=3, note=35, velocity=100, time=8),
    Message('note_off', channel=3, note=35, velocity=100, time=184),
    Message('note_on', channel=3, note=35, velocity=100, time=8),
    Message('note_off', channel=3, note=35, velocity=100, time=184),
    Message('note_on', channel=3, note=35, velocity=100, time=8),
    Message('note_off', channel=3, note=35, velocity=100, time=184),
    Message('note_on', channel=3, note=35, velocity=100, time=8),
    Message('note_off', channel=3, note=35, velocity=100, time=184),
    Message('note_on', channel=3, note=35, velocity=100, time=8),
    Message('note_off', channel=3, note=35, velocity=100, time=184),
    Message('note_on', channel=3, note=35, velocity=100, time=8),
    Message('note_off', channel=3, note=35, velocity=100, time=184),
    Message('note_on', channel=3, note=35, velocity=100, time=8),
    Message('note_off', channel=3, note=35, velocity=100, time=184),
    Message('note_on', channel=3, note=35, velocity=100, time=8),
    Message('note_off', channel=3, note=35, velocity=100, time=184),
    Message('note_on', channel=3, note=35, velocity=100, time=8),
    Message('note_off', channel=3, note=35, velocity=100, time=184),
    Message('note_on', channel=3, note=35, velocity=100, time=8),
    Message('note_off', channel=3, note=35, velocity=100, time=184),
    Message('note_on', channel=3, note=35, velocity=100, time=8),
    Message('note_off', channel=3, note=35, velocity=100, time=184),
    Message('note_on', channel=3, note=35, velocity=100, time=8),
    Message('note_off', channel=3, note=35, velocity=100, time=184),
    Message('note_on', channel=3, note=35, velocity=100, time=8),
    Message('note_off', channel=3, note=35, velocity=100, time=184),
    Message('note_on', channel=3, note=35, velocity=100, time=8),
    Message('note_off', channel=3, note=35, velocity=100, time=184),
    Message('note_on', channel=3, note=35, velocity=100, time=8),
    Message('note_off', channel=3, note=35, velocity=100, time=184),
    Message('note_on', channel=3, note=35, velocity=100, time=8),
    Message('note_off', channel=3, note=35, velocity=100, time=184),
    Message('note_on', channel=3, note=35, velocity=100, time=8),
    Message('note_off', channel=3, note=35, velocity=100, time=184),
    Message('note_on', channel=3, note=35, velocity=100, time=8),
    Message('note_off', channel=3, note=35, velocity=100, time=184),
    Message('note_on', channel=3, note=35, velocity=100, time=8),
    Message('note_off', channel=3, note=35, velocity=100, time=184),
    Message('note_on', channel=3, note=35, velocity=100, time=8),
    Message('note_off', channel=3, note=35, velocity=100, time=184),
    Message('note_on', channel=3, note=35, velocity=100, time=8),
    Message('note_off', channel=3, note=35, velocity=100, time=184),
    Message('note_on', channel=3, note=35, velocity=100, time=8),
    Message('note_off', channel=3, note=35, velocity=100, time=184),
    Message('note_on', channel=3, note=33, velocity=100, time=8),
    Message('note_off', channel=3, note=33, velocity=100, time=184),
    Message('note_on', channel=3, note=33, velocity=100, time=8),
    Message('note_off', channel=3, note=33, velocity=100, time=184),
    Message('note_on', channel=3, note=33, velocity=100, time=8),
    Message('note_off', channel=3, note=33, velocity=100, time=184),
    Message('note_on', channel=3, note=33, velocity=100, time=8),
    Message('note_off', channel=3, note=33, velocity=100, time=184),
    Message('note_on', channel=3, note=33, velocity=100, time=8),
    Message('note_off', channel=3, note=33, velocity=100, time=184),
    Message('note_on', channel=3, note=33, velocity=100, time=8),
    Message('note_off', channel=3, note=33, velocity=100, time=184),
    Message('note_on', channel=3, note=33, velocity=100, time=8),
    Message('note_off', channel=3, note=33, velocity=100, time=184),
    Message('note_on', channel=3, note=33, velocity=100, time=8),
    Message('note_off', channel=3, note=33, velocity=100, time=184),
    Message('note_on', channel=3, note=33, velocity=100, time=8),
    Message('note_off', channel=3, note=33, velocity=100, time=184),
    Message('note_on', channel=3, note=33, velocity=100, time=8),
    Message('note_off', channel=3, note=33, velocity=100, time=184),
    Message('note_on', channel=3, note=33, velocity=100, time=8),
    Message('note_off', channel=3, note=33, velocity=100, time=184),
    Message('note_on', channel=3, note=33, velocity=100, time=8),
    Message('note_off', channel=3, note=33, velocity=100, time=184),
    Message('note_on', channel=3, note=33, velocity=100, time=8),
    Message('note_off', channel=3, note=33, velocity=100, time=184),
    Message('note_on', channel=3, note=33, velocity=100, time=8),
    Message('note_off', channel=3, note=33, velocity=100, time=184),
    Message('note_on', channel=3, note=33, velocity=100, time=8),
    Message('note_off', channel=3, note=33, velocity=100, time=184),
    Message('note_on', channel=3, note=33, velocity=100, time=8),
    Message('note_off', channel=3, note=33, velocity=100, time=184),
    Message('note_on', channel=3, note=38, velocity=100, time=8),
    Message('note_off', channel=3, note=38, velocity=100, time=184),
    Message('note_on', channel=3, note=37, velocity=100, time=8),
    Message('note_off', channel=3, note=37, velocity=100, time=184),
    Message('note_on', channel=3, note=35, velocity=100, time=8),
    Message('note_off', channel=3, note=35, velocity=100, time=184),
    Message('note_on', channel=3, note=35, velocity=100, time=8),
    Message('note_off', channel=3, note=35, velocity=100, time=184),
    Message('note_on', channel=3, note=35, velocity=100, time=8),
    Message('note_off', channel=3, note=35, velocity=100, time=184),
    Message('note_on', channel=3, note=35, velocity=100, time=8),
    Message('note_off', channel=3, note=35, velocity=100, time=184),
    Message('note_on', channel=3, note=35, velocity=100, time=8),
    Message('note_off', channel=3, note=35, velocity=100, time=184),
    Message('note_on', channel=3, note=35, velocity=100, time=8),
    Message('note_off', channel=3, note=35, velocity=100, time=184),
    Message('note_on', channel=3, note=35, velocity=100, time=8),
    Message('note_off', channel=3, note=35, velocity=100, time=184),
    Message('note_on', channel=3, note=35, velocity=100, time=8),
    Message('note_off', channel=3, note=35, velocity=100, time=184),
    Message('note_on', channel=3, note=35, velocity=100, time=8),
    Message('note_off', channel=3, note=35, velocity=100, time=184),
    Message('note_on', channel=3, note=35, velocity=100, time=8),
    Message('note_off', channel=3, note=35, velocity=100, time=184),
    Message('note_on', channel=3, note=35, velocity=100, time=8),
    Message('note_off', channel=3, note=35, velocity=100, time=184),
    Message('note_on', channel=3, note=35, velocity=100, time=8),
    Message('note_off', channel=3, note=35, velocity=100, time=184),
    Message('note_on', channel=3, note=35, velocity=100, time=8),
    Message('note_off', channel=3, note=35, velocity=100, time=184),
    Message('note_on', channel=3, note=35, velocity=100, time=8),
    Message('note_off', channel=3, note=35, velocity=100, time=184),
    Message('note_on', channel=3, note=35, velocity=100, time=8),
    Message('note_off', channel=3, note=35, velocity=100, time=184),
    Message('note_on', channel=3, note=35, velocity=100, time=8),
    Message('note_off', channel=3, note=35, velocity=100, time=184),
    Message('note_on', channel=3, note=35, velocity=100, time=8),
    Message('note_off', channel=3, note=35, velocity=100, time=184),
    Message('note_on', channel=3, note=35, velocity=100, time=8),
    Message('note_off', channel=3, note=35, velocity=100, time=184),
    Message('note_on', channel=3, note=35, velocity=100, time=8),
    Message('note_off', channel=3, note=35, velocity=100, time=184),
    Message('note_on', channel=3, note=35, velocity=100, time=8),
    Message('note_off', channel=3, note=35, velocity=100, time=184),
    Message('note_on', channel=3, note=35, velocity=100, time=8),
    Message('note_off', channel=3, note=35, velocity=100, time=184),
    Message('note_on', channel=3, note=35, velocity=100, time=8),
    Message('note_off', channel=3, note=35, velocity=100, time=184),
    Message('note_on', channel=3, note=35, velocity=100, time=8),
    Message('note_off', channel=3, note=35, velocity=100, time=184),
    Message('note_on', channel=3, note=35, velocity=100, time=8),
    Message('note_off', channel=3, note=35, velocity=100, time=184),
    Message('note_on', channel=3, note=35, velocity=100, time=8),
    Message('note_off', channel=3, note=35, velocity=100, time=184),
    Message('note_on', channel=3, note=35, velocity=100, time=8),
    Message('note_off', channel=3, note=35, velocity=100, time=184),
    Message('note_on', channel=3, note=35, velocity=100, time=8),
    Message('note_off', channel=3, note=35, velocity=100, time=184),
    Message('note_on', channel=3, note=35, velocity=100, time=8),
    Message('note_off', channel=3, note=35, velocity=100, time=184),
    Message('note_on', channel=3, note=35, velocity=100, time=8),
    Message('note_off', channel=3, note=35, velocity=100, time=184),
    Message('note_on', channel=3, note=35, velocity=100, time=8),
    Message('note_off', channel=3, note=35, velocity=100, time=184),
    Message('note_on', channel=3, note=35, velocity=100, time=8),
    Message('note_off', channel=3, note=35, velocity=100, time=184),
    Message('note_on', channel=3, note=35, velocity=100, time=8),
    Message('note_off', channel=3, note=35, velocity=100, time=184),
    Message('note_on', channel=3, note=35, velocity=100, time=8),
    Message('note_off', channel=3, note=35, velocity=100, time=184),
    Message('note_on', channel=3, note=35, velocity=100, time=8),
    Message('note_off', channel=3, note=35, velocity=100, time=184),
    Message('note_on', channel=3, note=35, velocity=100, time=8),
    Message('note_off', channel=3, note=35, velocity=100, time=184),
    Message('note_on', channel=3, note=35, velocity=100, time=8),
    Message('note_off', channel=3, note=35, velocity=100, time=184),
    Message('note_on', channel=3, note=35, velocity=100, time=8),
    Message('note_off', channel=3, note=35, velocity=100, time=184),
    Message('note_on', channel=3, note=35, velocity=100, time=8),
    Message('note_off', channel=3, note=35, velocity=100, time=184),
    Message('note_on', channel=3, note=35, velocity=100, time=8),
    Message('note_off', channel=3, note=35, velocity=100, time=184),
    Message('note_on', channel=3, note=35, velocity=100, time=8),
    Message('note_off', channel=3, note=35, velocity=100, time=184),
    Message('note_on', channel=3, note=35, velocity=100, time=8),
    Message('note_off', channel=3, note=35, velocity=100, time=184),
    Message('note_on', channel=3, note=35, velocity=100, time=8),
    Message('note_off', channel=3, note=35, velocity=100, time=184),
    Message('note_on', channel=3, note=35, velocity=100, time=8),
    Message('note_off', channel=3, note=35, velocity=100, time=184),
    Message('note_on', channel=3, note=35, velocity=100, time=8),
    Message('note_off', channel=3, note=35, velocity=100, time=184),
    Message('note_on', channel=3, note=35, velocity=100, time=8),
    Message('note_off', channel=3, note=35, velocity=100, time=184),
    Message('note_on', channel=3, note=35, velocity=100, time=8),
    Message('note_off', channel=3, note=35, velocity=100, time=184),
    Message('note_on', channel=3, note=33, velocity=100, time=8),
    Message('note_off', channel=3, note=33, velocity=100, time=184),
    Message('note_on', channel=3, note=33, velocity=100, time=8),
    Message('note_off', channel=3, note=33, velocity=100, time=184),
    Message('note_on', channel=3, note=33, velocity=100, time=8),
    Message('note_off', channel=3, note=33, velocity=100, time=184),
    Message('note_on', channel=3, note=33, velocity=100, time=8),
    Message('note_off', channel=3, note=33, velocity=100, time=184),
    Message('note_on', channel=3, note=33, velocity=100, time=8),
    Message('note_off', channel=3, note=33, velocity=100, time=184),
    Message('note_on', channel=3, note=33, velocity=100, time=8),
    Message('note_off', channel=3, note=33, velocity=100, time=184),
    Message('note_on', channel=3, note=33, velocity=100, time=8),
    Message('note_off', channel=3, note=33, velocity=100, time=184),
    Message('note_on', channel=3, note=33, velocity=100, time=8),
    Message('note_off', channel=3, note=33, velocity=100, time=184),
    Message('note_on', channel=3, note=33, velocity=100, time=8),
    Message('note_off', channel=3, note=33, velocity=100, time=184),
    Message('note_on', channel=3, note=33, velocity=100, time=8),
    Message('note_off', channel=3, note=33, velocity=100, time=184),
    Message('note_on', channel=3, note=33, velocity=100, time=8),
    Message('note_off', channel=3, note=33, velocity=100, time=184),
    Message('note_on', channel=3, note=33, velocity=100, time=8),
    Message('note_off', channel=3, note=33, velocity=100, time=184),
    Message('note_on', channel=3, note=33, velocity=100, time=8),
    Message('note_off', channel=3, note=33, velocity=100, time=184),
    Message('note_on', channel=3, note=33, velocity=100, time=8),
    Message('note_off', channel=3, note=33, velocity=100, time=184),
    Message('note_on', channel=3, note=33, velocity=100, time=8),
    Message('note_off', channel=3, note=33, velocity=100, time=184),
    Message('note_on', channel=3, note=33, velocity=100, time=8),
    Message('note_off', channel=3, note=33, velocity=100, time=184),
    Message('note_on', channel=3, note=31, velocity=100, time=8),
    Message('note_off', channel=3, note=31, velocity=100, time=184),
    Message('note_on', channel=3, note=31, velocity=100, time=8),
    Message('note_off', channel=3, note=31, velocity=100, time=184),
    Message('note_on', channel=3, note=31, velocity=100, time=8),
    Message('note_off', channel=3, note=31, velocity=100, time=184),
    Message('note_on', channel=3, note=31, velocity=100, time=8),
    Message('note_off', channel=3, note=31, velocity=100, time=184),
    Message('note_on', channel=3, note=31, velocity=100, time=8),
    Message('note_off', channel=3, note=31, velocity=100, time=184),
    Message('note_on', channel=3, note=31, velocity=100, time=8),
    Message('note_off', channel=3, note=31, velocity=100, time=184),
    Message('note_on', channel=3, note=31, velocity=100, time=8),
    Message('note_off', channel=3, note=31, velocity=100, time=184),
    Message('note_on', channel=3, note=31, velocity=100, time=8),
    Message('note_off', channel=3, note=31, velocity=100, time=184),
    Message('note_on', channel=3, note=33, velocity=100, time=8),
    Message('note_off', channel=3, note=33, velocity=100, time=184),
    Message('note_on', channel=3, note=33, velocity=100, time=8),
    Message('note_off', channel=3, note=33, velocity=100, time=184),
    Message('note_on', channel=3, note=33, velocity=100, time=8),
    Message('note_off', channel=3, note=33, velocity=100, time=184),
    Message('note_on', channel=3, note=33, velocity=100, time=8),
    Message('note_off', channel=3, note=33, velocity=100, time=184),
    Message('note_on', channel=3, note=33, velocity=100, time=8),
    Message('note_off', channel=3, note=33, velocity=100, time=184),
    Message('note_on', channel=3, note=33, velocity=100, time=8),
    Message('note_off', channel=3, note=33, velocity=100, time=184),
    Message('note_on', channel=3, note=33, velocity=100, time=8),
    Message('note_off', channel=3, note=33, velocity=100, time=184),
    Message('note_on', channel=3, note=33, velocity=100, time=8),
    Message('note_off', channel=3, note=33, velocity=100, time=184),
    Message('note_on', channel=3, note=30, velocity=100, time=8),
    Message('note_off', channel=3, note=30, velocity=100, time=184),
    Message('note_on', channel=3, note=30, velocity=100, time=8),
    Message('note_off', channel=3, note=30, velocity=100, time=184),
    Message('note_on', channel=3, note=30, velocity=100, time=8),
    Message('note_off', channel=3, note=30, velocity=100, time=184),
    Message('note_on', channel=3, note=30, velocity=100, time=8),
    Message('note_off', channel=3, note=30, velocity=100, time=184),
    Message('note_on', channel=3, note=30, velocity=100, time=8),
    Message('note_off', channel=3, note=30, velocity=100, time=184),
    Message('note_on', channel=3, note=30, velocity=100, time=8),
    Message('note_off', channel=3, note=30, velocity=100, time=184),
    Message('note_on', channel=3, note=30, velocity=100, time=8),
    Message('note_off', channel=3, note=30, velocity=100, time=184),
    Message('note_on', channel=3, note=30, velocity=100, time=8),
    Message('note_off', channel=3, note=30, velocity=100, time=184),
    Message('note_on', channel=3, note=30, velocity=100, time=8),
    Message('note_off', channel=3, note=30, velocity=100, time=184),
    Message('note_on', channel=3, note=30, velocity=100, time=8),
    Message('note_off', channel=3, note=30, velocity=100, time=184),
    Message('note_on', channel=3, note=30, velocity=100, time=8),
    Message('note_off', channel=3, note=30, velocity=100, time=184),
    Message('note_on', channel=3, note=30, velocity=100, time=8),
    Message('note_off', channel=3, note=30, velocity=100, time=184),
    Message('note_on', channel=3, note=30, velocity=100, time=8),
    Message('note_off', channel=3, note=30, velocity=100, time=184),
    Message('note_on', channel=3, note=30, velocity=100, time=8),
    Message('note_off', channel=3, note=30, velocity=100, time=184),
    Message('note_on', channel=3, note=30, velocity=100, time=8),
    Message('note_off', channel=3, note=30, velocity=100, time=184),
    Message('note_on', channel=3, note=30, velocity=100, time=8),
    Message('note_off', channel=3, note=30, velocity=100, time=184),
    Message('note_on', channel=3, note=30, velocity=100, time=8),
    Message('note_off', channel=3, note=30, velocity=100, time=184),
    Message('note_on', channel=3, note=30, velocity=100, time=8),
    Message('note_off', channel=3, note=30, velocity=100, time=184),
    Message('note_on', channel=3, note=30, velocity=100, time=8),
    Message('note_off', channel=3, note=30, velocity=100, time=184),
    Message('note_on', channel=3, note=30, velocity=100, time=8),
    Message('note_off', channel=3, note=30, velocity=100, time=184),
    Message('note_on', channel=3, note=30, velocity=100, time=8),
    Message('note_off', channel=3, note=30, velocity=100, time=184),
    Message('note_on', channel=3, note=30, velocity=100, time=8),
    Message('note_off', channel=3, note=30, velocity=100, time=184),
    Message('note_on', channel=3, note=30, velocity=100, time=8),
    Message('note_off', channel=3, note=30, velocity=100, time=184),
    Message('note_on', channel=3, note=30, velocity=100, time=8),
    Message('note_off', channel=3, note=30, velocity=100, time=184),
    Message('note_on', channel=3, note=30, velocity=100, time=8),
    Message('note_off', channel=3, note=30, velocity=100, time=184),
    Message('note_on', channel=3, note=30, velocity=100, time=8),
    Message('note_off', channel=3, note=30, velocity=100, time=184),
    Message('note_on', channel=3, note=30, velocity=100, time=8),
    Message('note_off', channel=3, note=30, velocity=100, time=184),
    Message('note_on', channel=3, note=30, velocity=100, time=8),
    Message('note_off', channel=3, note=30, velocity=100, time=184),
    Message('note_on', channel=3, note=30, velocity=100, time=8),
    Message('note_off', channel=3, note=30, velocity=100, time=184),
    Message('note_on', channel=3, note=30, velocity=100, time=8),
    Message('note_off', channel=3, note=30, velocity=100, time=184),
    Message('note_on', channel=3, note=30, velocity=100, time=8),
    Message('note_off', channel=3, note=30, velocity=100, time=184),
    Message('note_on', channel=3, note=30, velocity=100, time=8),
    Message('note_off', channel=3, note=30, velocity=100, time=184),
    Message('note_on', channel=3, note=31, velocity=100, time=8),
    Message('note_off', channel=3, note=31, velocity=100, time=184),
    Message('note_on', channel=3, note=31, velocity=100, time=8),
    Message('note_off', channel=3, note=31, velocity=100, time=184),
    Message('note_on', channel=3, note=31, velocity=100, time=8),
    Message('note_off', channel=3, note=31, velocity=100, time=184),
    Message('note_on', channel=3, note=31, velocity=100, time=8),
    Message('note_off', channel=3, note=31, velocity=100, time=184),
    Message('note_on', channel=3, note=31, velocity=100, time=8),
    Message('note_off', channel=3, note=31, velocity=100, time=184),
    Message('note_on', channel=3, note=31, velocity=100, time=8),
    Message('note_off', channel=3, note=31, velocity=100, time=184),
    Message('note_on', channel=3, note=31, velocity=100, time=8),
    Message('note_off', channel=3, note=31, velocity=100, time=184),
    Message('note_on', channel=3, note=31, velocity=100, time=8),
    Message('note_off', channel=3, note=31, velocity=100, time=184),
    Message('note_on', channel=3, note=31, velocity=100, time=8),
    Message('note_off', channel=3, note=31, velocity=100, time=184),
    Message('note_on', channel=3, note=31, velocity=100, time=8),
    Message('note_off', channel=3, note=31, velocity=100, time=184),
    Message('note_on', channel=3, note=31, velocity=100, time=8),
    Message('note_off', channel=3, note=31, velocity=100, time=184),
    Message('note_on', channel=3, note=31, velocity=100, time=8),
    Message('note_off', channel=3, note=31, velocity=100, time=184),
    Message('note_on', channel=3, note=31, velocity=100, time=8),
    Message('note_off', channel=3, note=31, velocity=100, time=184),
    Message('note_on', channel=3, note=31, velocity=100, time=8),
    Message('note_off', channel=3, note=31, velocity=100, time=184),
    Message('note_on', channel=3, note=31, velocity=100, time=8),
    Message('note_off', channel=3, note=31, velocity=100, time=184),
    Message('note_on', channel=3, note=31, velocity=100, time=8),
    Message('note_off', channel=3, note=31, velocity=100, time=184),
    Message('note_on', channel=3, note=28, velocity=100, time=8),
    Message('note_off', channel=3, note=28, velocity=100, time=184),
    Message('note_on', channel=3, note=28, velocity=100, time=8),
    Message('note_off', channel=3, note=28, velocity=100, time=184),
    Message('note_on', channel=3, note=28, velocity=100, time=8),
    Message('note_off', channel=3, note=28, velocity=100, time=184),
    Message('note_on', channel=3, note=28, velocity=100, time=8),
    Message('note_off', channel=3, note=28, velocity=100, time=184),
    Message('note_on', channel=3, note=28, velocity=100, time=8),
    Message('note_off', channel=3, note=28, velocity=100, time=184),
    Message('note_on', channel=3, note=28, velocity=100, time=8),
    Message('note_off', channel=3, note=28, velocity=100, time=184),
    Message('note_on', channel=3, note=28, velocity=100, time=8),
    Message('note_off', channel=3, note=28, velocity=100, time=184),
    Message('note_on', channel=3, note=28, velocity=100, time=8),
    Message('note_off', channel=3, note=28, velocity=100, time=184),
    Message('note_on', channel=3, note=30, velocity=100, time=8),
    Message('note_off', channel=3, note=30, velocity=100, time=184),
    Message('note_on', channel=3, note=30, velocity=100, time=8),
    Message('note_off', channel=3, note=30, velocity=100, time=184),
    Message('note_on', channel=3, note=30, velocity=100, time=8),
    Message('note_off', channel=3, note=30, velocity=100, time=184),
    Message('note_on', channel=3, note=30, velocity=100, time=8),
    Message('note_off', channel=3, note=30, velocity=100, time=184),
    Message('note_on', channel=3, note=30, velocity=100, time=8),
    Message('note_off', channel=3, note=30, velocity=100, time=184),
    Message('note_on', channel=3, note=30, velocity=100, time=8),
    Message('note_off', channel=3, note=30, velocity=100, time=184),
    Message('note_on', channel=3, note=30, velocity=100, time=8),
    Message('note_off', channel=3, note=30, velocity=100, time=184),
    Message('note_on', channel=3, note=30, velocity=100, time=8),
    Message('note_off', channel=3, note=30, velocity=100, time=184),
    Message('note_on', channel=3, note=31, velocity=100, time=8),
    Message('note_off', channel=3, note=31, velocity=100, time=184),
    Message('note_on', channel=3, note=31, velocity=100, time=8),
    Message('note_off', channel=3, note=31, velocity=100, time=184),
    Message('note_on', channel=3, note=31, velocity=100, time=8),
    Message('note_off', channel=3, note=31, velocity=100, time=184),
    Message('note_on', channel=3, note=31, velocity=100, time=8),
    Message('note_off', channel=3, note=31, velocity=100, time=184),
    Message('note_on', channel=3, note=31, velocity=100, time=8),
    Message('note_off', channel=3, note=31, velocity=100, time=184),
    Message('note_on', channel=3, note=31, velocity=100, time=8),
    Message('note_off', channel=3, note=31, velocity=100, time=184),
    Message('note_on', channel=3, note=31, velocity=100, time=8),
    Message('note_off', channel=3, note=31, velocity=100, time=184),
    Message('note_on', channel=3, note=31, velocity=100, time=8),
    Message('note_off', channel=3, note=31, velocity=100, time=184),
    Message('note_on', channel=3, note=31, velocity=100, time=8),
    Message('note_off', channel=3, note=31, velocity=100, time=184),
    Message('note_on', channel=3, note=31, velocity=100, time=8),
    Message('note_off', channel=3, note=31, velocity=100, time=184),
    Message('note_on', channel=3, note=31, velocity=100, time=8),
    Message('note_off', channel=3, note=31, velocity=100, time=184),
    Message('note_on', channel=3, note=31, velocity=100, time=8),
    Message('note_off', channel=3, note=31, velocity=100, time=184),
    Message('note_on', channel=3, note=31, velocity=100, time=8),
    Message('note_off', channel=3, note=31, velocity=100, time=184),
    Message('note_on', channel=3, note=31, velocity=100, time=8),
    Message('note_off', channel=3, note=31, velocity=100, time=184),
    Message('note_on', channel=3, note=31, velocity=100, time=8),
    Message('note_off', channel=3, note=31, velocity=100, time=184),
    Message('note_on', channel=3, note=31, velocity=100, time=8),
    Message('note_off', channel=3, note=31, velocity=100, time=184),
    Message('note_on', channel=3, note=31, velocity=100, time=8),
    Message('note_off', channel=3, note=31, velocity=100, time=184),
    Message('note_on', channel=3, note=31, velocity=100, time=8),
    Message('note_off', channel=3, note=31, velocity=100, time=184),
    Message('note_on', channel=3, note=31, velocity=100, time=8),
    Message('note_off', channel=3, note=31, velocity=100, time=184),
    Message('note_on', channel=3, note=31, velocity=100, time=8),
    Message('note_off', channel=3, note=31, velocity=100, time=184),
    Message('note_on', channel=3, note=31, velocity=100, time=8),
    Message('note_off', channel=3, note=31, velocity=100, time=184),
    Message('note_on', channel=3, note=31, velocity=100, time=8),
    Message('note_off', channel=3, note=31, velocity=100, time=184),
    Message('note_on', channel=3, note=31, velocity=100, time=8),
    Message('note_off', channel=3, note=31, velocity=100, time=184),
    Message('note_on', channel=3, note=31, velocity=100, time=8),
    Message('note_off', channel=3, note=31, velocity=100, time=184),
    Message('note_on', channel=3, note=31, velocity=100, time=8),
    Message('note_off', channel=3, note=31, velocity=100, time=184),
    Message('note_on', channel=3, note=31, velocity=100, time=8),
    Message('note_off', channel=3, note=31, velocity=100, time=184),
    Message('note_on', channel=3, note=31, velocity=100, time=8),
    Message('note_off', channel=3, note=31, velocity=100, time=184),
    Message('note_on', channel=3, note=31, velocity=100, time=8),
    Message('note_off', channel=3, note=31, velocity=100, time=184),
    Message('note_on', channel=3, note=31, velocity=100, time=8),
    Message('note_off', channel=3, note=31, velocity=100, time=184),
    Message('note_on', channel=3, note=31, velocity=100, time=8),
    Message('note_off', channel=3, note=31, velocity=100, time=184),
    Message('note_on', channel=3, note=31, velocity=100, time=8),
    Message('note_off', channel=3, note=31, velocity=100, time=184),
    Message('note_on', channel=3, note=31, velocity=100, time=8),
    Message('note_off', channel=3, note=31, velocity=100, time=184),
    Message('note_on', channel=3, note=33, velocity=100, time=8),
    Message('note_off', channel=3, note=33, velocity=100, time=184),
    Message('note_on', channel=3, note=33, velocity=100, time=8),
    Message('note_off', channel=3, note=33, velocity=100, time=184),
    Message('note_on', channel=3, note=33, velocity=100, time=8),
    Message('note_off', channel=3, note=33, velocity=100, time=184),
    Message('note_on', channel=3, note=33, velocity=100, time=8),
    Message('note_off', channel=3, note=33, velocity=100, time=184),
    Message('note_on', channel=3, note=33, velocity=100, time=8),
    Message('note_off', channel=3, note=33, velocity=100, time=184),
    Message('note_on', channel=3, note=33, velocity=100, time=8),
    Message('note_off', channel=3, note=33, velocity=100, time=184),
    Message('note_on', channel=3, note=33, velocity=100, time=8),
    Message('note_off', channel=3, note=33, velocity=100, time=184),
    Message('note_on', channel=3, note=33, velocity=100, time=8),
    Message('note_off', channel=3, note=33, velocity=100, time=184),
    Message('note_on', channel=3, note=33, velocity=100, time=8),
    Message('note_off', channel=3, note=33, velocity=100, time=184),
    Message('note_on', channel=3, note=33, velocity=100, time=8),
    Message('note_off', channel=3, note=33, velocity=100, time=184),
    Message('note_on', channel=3, note=33, velocity=100, time=8),
    Message('note_off', channel=3, note=33, velocity=100, time=184),
    Message('note_on', channel=3, note=33, velocity=100, time=8),
    Message('note_off', channel=3, note=33, velocity=100, time=184),
    Message('note_on', channel=3, note=33, velocity=100, time=8),
    Message('note_off', channel=3, note=33, velocity=100, time=184),
    Message('note_on', channel=3, note=33, velocity=100, time=8),
    Message('note_off', channel=3, note=33, velocity=100, time=184),
    Message('note_on', channel=3, note=33, velocity=100, time=8),
    Message('note_off', channel=3, note=33, velocity=100, time=184),
    Message('note_on', channel=3, note=33, velocity=100, time=8),
    Message('note_off', channel=3, note=33, velocity=100, time=184),
    Message('note_on', channel=3, note=30, velocity=100, time=8),
    Message('note_off', channel=3, note=30, velocity=100, time=184),
    Message('note_on', channel=3, note=30, velocity=100, time=8),
    Message('note_off', channel=3, note=30, velocity=100, time=184),
    Message('note_on', channel=3, note=30, velocity=100, time=8),
    Message('note_off', channel=3, note=30, velocity=100, time=184),
    Message('note_on', channel=3, note=30, velocity=100, time=8),
    Message('note_off', channel=3, note=30, velocity=100, time=184),
    Message('note_on', channel=3, note=30, velocity=100, time=8),
    Message('note_off', channel=3, note=30, velocity=100, time=184),
    Message('note_on', channel=3, note=30, velocity=100, time=8),
    Message('note_off', channel=3, note=30, velocity=100, time=184),
    Message('note_on', channel=3, note=30, velocity=100, time=8),
    Message('note_off', channel=3, note=30, velocity=100, time=184),
    Message('note_on', channel=3, note=30, velocity=100, time=8),
    Message('note_off', channel=3, note=30, velocity=100, time=184),
    Message('note_on', channel=3, note=30, velocity=100, time=8),
    Message('note_off', channel=3, note=30, velocity=100, time=184),
    Message('note_on', channel=3, note=30, velocity=100, time=8),
    Message('note_off', channel=3, note=30, velocity=100, time=184),
    Message('note_on', channel=3, note=30, velocity=100, time=8),
    Message('note_off', channel=3, note=30, velocity=100, time=184),
    Message('note_on', channel=3, note=30, velocity=100, time=8),
    Message('note_off', channel=3, note=30, velocity=100, time=184),
    Message('note_on', channel=3, note=30, velocity=100, time=8),
    Message('note_off', channel=3, note=30, velocity=100, time=184),
    Message('note_on', channel=3, note=30, velocity=100, time=8),
    Message('note_off', channel=3, note=30, velocity=100, time=184),
    Message('note_on', channel=3, note=30, velocity=100, time=8),
    Message('note_off', channel=3, note=30, velocity=100, time=184),
    Message('note_on', channel=3, note=30, velocity=100, time=8),
    Message('note_off', channel=3, note=30, velocity=100, time=184),
    Message('note_on', channel=3, note=30, velocity=100, time=8),
    Message('note_off', channel=3, note=30, velocity=100, time=376),
    Message('note_on', channel=3, note=30, velocity=100, time=11912),
    Message('note_off', channel=3, note=30, velocity=100, time=376),
    Message('note_on', channel=3, note=28, velocity=100, time=8),
    Message('note_off', channel=3, note=28, velocity=100, time=184),
    Message('note_on', channel=3, note=28, velocity=100, time=8),
    Message('note_off', channel=3, note=28, velocity=100, time=184),
    Message('note_on', channel=3, note=30, velocity=100, time=8),
    Message('note_off', channel=3, note=30, velocity=100, time=376),
    Message('note_on', channel=3, note=28, velocity=100, time=8),
    Message('note_off', channel=3, note=28, velocity=100, time=184),
    Message('note_on', channel=3, note=28, velocity=100, time=8),
    Message('note_off', channel=3, note=28, velocity=100, time=184),
    Message('note_on', channel=3, note=30, velocity=100, time=8),
    Message('note_off', channel=3, note=30, velocity=100, time=376),
    Message('note_on', channel=3, note=28, velocity=100, time=8),
    Message('note_off', channel=3, note=28, velocity=100, time=184),
    Message('note_on', channel=3, note=28, velocity=100, time=8),
    Message('note_off', channel=3, note=28, velocity=100, time=184),
    Message('note_on', channel=3, note=28, velocity=100, time=8),
    Message('note_off', channel=3, note=28, velocity=100, time=184),
    Message('note_on', channel=3, note=30, velocity=100, time=8),
    Message('note_off', channel=3, note=30, velocity=100, time=184),
    Message('note_on', channel=3, note=31, velocity=100, time=8),
    Message('note_off', channel=3, note=31, velocity=100, time=376),
    Message('note_on', channel=3, note=30, velocity=100, time=8),
    Message('note_off', channel=3, note=30, velocity=100, time=376),
    Message('note_on', channel=3, note=28, velocity=100, time=8),
    Message('note_off', channel=3, note=28, velocity=100, time=184),
    Message('note_on', channel=3, note=28, velocity=100, time=8),
    Message('note_off', channel=3, note=28, velocity=100, time=184),
    Message('note_on', channel=3, note=30, velocity=100, time=8),
    Message('note_off', channel=3, note=30, velocity=100, time=376),
    Message('note_on', channel=3, note=28, velocity=100, time=8),
    Message('note_off', channel=3, note=28, velocity=100, time=184),
    Message('note_on', channel=3, note=28, velocity=100, time=8),
    Message('note_off', channel=3, note=28, velocity=100, time=184),
    Message('note_on', channel=3, note=31, velocity=100, time=8),
    Message('note_off', channel=3, note=31, velocity=100, time=184),
    Message('note_on', channel=3, note=30, velocity=100, time=8),
    Message('note_off', channel=3, note=30, velocity=100, time=184),
    Message('note_on', channel=3, note=28, velocity=100, time=8),
    Message('note_off', channel=3, note=28, velocity=100, time=184),
    Message('note_on', channel=3, note=28, velocity=100, time=8),
    Message('note_off', channel=3, note=28, velocity=100, time=184),
    Message('note_on', channel=3, note=36, velocity=100, time=8),
    Message('note_off', channel=3, note=36, velocity=100, time=760),
    Message('note_on', channel=3, note=30, velocity=100, time=8),
    Message('note_off', channel=3, note=30, velocity=100, time=376),
    Message('note_on', channel=3, note=28, velocity=100, time=8),
    Message('note_off', channel=3, note=28, velocity=100, time=184),
    Message('note_on', channel=3, note=28, velocity=100, time=8),
    Message('note_off', channel=3, note=28, velocity=100, time=184),
    Message('note_on', channel=3, note=30, velocity=100, time=8),
    Message('note_off', channel=3, note=30, velocity=100, time=376),
    Message('note_on', channel=3, note=28, velocity=100, time=8),
    Message('note_off', channel=3, note=28, velocity=100, time=184),
    Message('note_on', channel=3, note=28, velocity=100, time=8),
    Message('note_off', channel=3, note=28, velocity=100, time=184),
    Message('note_on', channel=3, note=30, velocity=100, time=8),
    Message('note_off', channel=3, note=30, velocity=100, time=376),
    Message('note_on', channel=3, note=28, velocity=100, time=8),
    Message('note_off', channel=3, note=28, velocity=100, time=184),
    Message('note_on', channel=3, note=28, velocity=100, time=8),
    Message('note_off', channel=3, note=28, velocity=100, time=184),
    Message('note_on', channel=3, note=28, velocity=100, time=8),
    Message('note_off', channel=3, note=28, velocity=100, time=184),
    Message('note_on', channel=3, note=30, velocity=100, time=8),
    Message('note_off', channel=3, note=30, velocity=100, time=184),
    Message('note_on', channel=3, note=31, velocity=100, time=8),
    Message('note_off', channel=3, note=31, velocity=100, time=376),
    Message('note_on', channel=3, note=30, velocity=100, time=8),
    Message('note_off', channel=3, note=30, velocity=100, time=376),
    Message('note_on', channel=3, note=28, velocity=100, time=8),
    Message('note_off', channel=3, note=28, velocity=100, time=184),
    Message('note_on', channel=3, note=28, velocity=100, time=8),
    Message('note_off', channel=3, note=28, velocity=100, time=184),
    Message('note_on', channel=3, note=30, velocity=100, time=8),
    Message('note_off', channel=3, note=30, velocity=100, time=376),
    Message('note_on', channel=3, note=28, velocity=100, time=8),
    Message('note_off', channel=3, note=28, velocity=100, time=184),
    Message('note_on', channel=3, note=28, velocity=100, time=8),
    Message('note_off', channel=3, note=28, velocity=100, time=184),
    Message('note_on', channel=3, note=31, velocity=100, time=8),
    Message('note_off', channel=3, note=31, velocity=100, time=184),
    Message('note_on', channel=3, note=30, velocity=100, time=8),
    Message('note_off', channel=3, note=30, velocity=100, time=184),
    Message('note_on', channel=3, note=28, velocity=100, time=8),
    Message('note_off', channel=3, note=28, velocity=100, time=376),
    Message('note_on', channel=3, note=36, velocity=100, time=8),
    Message('note_off', channel=3, note=36, velocity=100, time=184),
    Message('note_on', channel=3, note=35, velocity=100, time=8),
    Message('note_off', channel=3, note=35, velocity=100, time=184),
    Message('note_on', channel=3, note=33, velocity=100, time=8),
    Message('note_off', channel=3, note=33, velocity=100, time=376),
    Message('note_on', channel=3, note=35, velocity=100, time=8),
    Message('note_off', channel=3, note=35, velocity=100, time=1528),
    Message('control_change', channel=3, control=7, value=0, time=23816),
    Message('control_change', channel=3, control=7, value=1, time=8),
    Message('control_change', channel=3, control=7, value=2, time=8),
    Message('control_change', channel=3, control=7, value=3, time=8),
    Message('control_change', channel=3, control=7, value=4, time=8),
    Message('control_change', channel=3, control=7, value=5, time=8),
    Message('control_change', channel=3, control=7, value=6, time=8),
    Message('control_change', channel=3, control=7, value=7, time=8),
    Message('control_change', channel=3, control=7, value=8, time=8),
    Message('control_change', channel=3, control=7, value=9, time=8),
    Message('control_change', channel=3, control=7, value=10, time=8),
    Message('control_change', channel=3, control=7, value=11, time=8),
    Message('control_change', channel=3, control=7, value=12, time=8),
    Message('control_change', channel=3, control=7, value=13, time=8),
    Message('control_change', channel=3, control=7, value=14, time=8),
    Message('control_change', channel=3, control=7, value=15, time=8),
    Message('control_change', channel=3, control=7, value=16, time=8),
    Message('control_change', channel=3, control=7, value=17, time=8),
    Message('control_change', channel=3, control=7, value=18, time=8),
    Message('control_change', channel=3, control=7, value=19, time=8),
    Message('control_change', channel=3, control=7, value=20, time=8),
    Message('control_change', channel=3, control=7, value=21, time=8),
    Message('control_change', channel=3, control=7, value=22, time=8),
    Message('control_change', channel=3, control=7, value=23, time=8),
    Message('control_change', channel=3, control=7, value=24, time=8),
    Message('control_change', channel=3, control=7, value=25, time=8),
    Message('control_change', channel=3, control=7, value=26, time=8),
    Message('control_change', channel=3, control=7, value=27, time=8),
    Message('control_change', channel=3, control=7, value=28, time=8),
    Message('control_change', channel=3, control=7, value=29, time=8),
    Message('control_change', channel=3, control=7, value=30, time=8),
    Message('control_change', channel=3, control=7, value=31, time=8),
    Message('control_change', channel=3, control=7, value=32, time=8),
    Message('control_change', channel=3, control=7, value=36, time=32),
    Message('control_change', channel=3, control=7, value=40, time=32),
    Message('control_change', channel=3, control=7, value=44, time=32),
    Message('control_change', channel=3, control=7, value=48, time=32),
    Message('control_change', channel=3, control=7, value=52, time=16),
    Message('control_change', channel=3, control=7, value=56, time=16),
    Message('control_change', channel=3, control=7, value=60, time=32),
    Message('control_change', channel=3, control=7, value=64, time=32),
    Message('control_change', channel=3, control=7, value=68, time=32),
    Message('control_change', channel=3, control=7, value=72, time=32),
    Message('control_change', channel=3, control=7, value=76, time=32),
    Message('control_change', channel=3, control=7, value=80, time=32),
    Message('control_change', channel=3, control=7, value=84, time=32),
    Message('control_change', channel=3, control=7, value=88, time=32),
    Message('control_change', channel=3, control=7, value=92, time=32),
    Message('control_change', channel=3, control=7, value=96, time=32),
    Message('control_change', channel=3, control=7, value=100, time=32),
    Message('note_on', channel=3, note=40, velocity=100, time=0),
    Message('note_off', channel=3, note=40, velocity=100, time=376),
    Message('note_on', channel=3, note=28, velocity=100, time=8),
    Message('note_off', channel=3, note=28, velocity=100, time=184),
    Message('note_on', channel=3, note=28, velocity=100, time=8),
    Message('note_off', channel=3, note=28, velocity=100, time=184),
    Message('note_on', channel=3, note=28, velocity=100, time=8),
    Message('note_off', channel=3, note=28, velocity=100, time=184),
    Message('note_on', channel=3, note=28, velocity=100, time=8),
    Message('note_off', channel=3, note=28, velocity=100, time=184),
    Message('note_on', channel=3, note=41, velocity=100, time=8),
    Message('note_off', channel=3, note=41, velocity=100, time=376),
    Message('note_on', channel=3, note=40, velocity=100, time=8),
    Message('note_off', channel=3, note=40, velocity=100, time=376),
    Message('note_on', channel=3, note=28, velocity=100, time=8),
    Message('note_off', channel=3, note=28, velocity=100, time=184),
    Message('note_on', channel=3, note=28, velocity=100, time=8),
    Message('note_off', channel=3, note=28, velocity=100, time=184),
    Message('note_on', channel=3, note=28, velocity=100, time=8),
    Message('note_off', channel=3, note=28, velocity=100, time=184),
    Message('note_on', channel=3, note=28, velocity=100, time=8),
    Message('note_off', channel=3, note=28, velocity=100, time=184),
    Message('note_on', channel=3, note=38, velocity=100, time=8),
    Message('note_off', channel=3, note=38, velocity=100, time=376),
    Message('note_on', channel=3, note=40, velocity=100, time=8),
    Message('note_off', channel=3, note=40, velocity=100, time=376),
    Message('note_on', channel=3, note=28, velocity=100, time=8),
    Message('note_off', channel=3, note=28, velocity=100, time=184),
    Message('note_on', channel=3, note=28, velocity=100, time=8),
    Message('note_off', channel=3, note=28, velocity=100, time=184),
    Message('note_on', channel=3, note=35, velocity=100, time=8),
    Message('note_off', channel=3, note=35, velocity=100, time=376),
    Message('note_on', channel=3, note=28, velocity=100, time=8),
    Message('note_off', channel=3, note=28, velocity=100, time=184),
    Message('note_on', channel=3, note=28, velocity=100, time=8),
    Message('note_off', channel=3, note=28, velocity=100, time=184),
    Message('note_on', channel=3, note=38, velocity=100, time=8),
    Message('note_off', channel=3, note=38, velocity=100, time=1528),
    Message('note_on', channel=3, note=40, velocity=100, time=8),
    Message('note_off', channel=3, note=40, velocity=100, time=376),
    Message('note_on', channel=3, note=28, velocity=100, time=8),
    Message('note_off', channel=3, note=28, velocity=100, time=184),
    Message('note_on', channel=3, note=28, velocity=100, time=8),
    Message('note_off', channel=3, note=28, velocity=100, time=184),
    Message('note_on', channel=3, note=28, velocity=100, time=8),
    Message('note_off', channel=3, note=28, velocity=100, time=184),
    Message('note_on', channel=3, note=28, velocity=100, time=8),
    Message('note_off', channel=3, note=28, velocity=100, time=184),
    Message('note_on', channel=3, note=41, velocity=100, time=8),
    Message('note_off', channel=3, note=41, velocity=100, time=376),
    Message('note_on', channel=3, note=40, velocity=100, time=8),
    Message('note_off', channel=3, note=40, velocity=100, time=376),
    Message('note_on', channel=3, note=28, velocity=100, time=8),
    Message('note_off', channel=3, note=28, velocity=100, time=184),
    Message('note_on', channel=3, note=28, velocity=100, time=8),
    Message('note_off', channel=3, note=28, velocity=100, time=184),
    Message('note_on', channel=3, note=28, velocity=100, time=8),
    Message('note_off', channel=3, note=28, velocity=100, time=184),
    Message('note_on', channel=3, note=28, velocity=100, time=8),
    Message('note_off', channel=3, note=28, velocity=100, time=184),
    Message('note_on', channel=3, note=38, velocity=100, time=8),
    Message('note_off', channel=3, note=38, velocity=100, time=376),
    Message('note_on', channel=3, note=40, velocity=100, time=8),
    Message('note_off', channel=3, note=40, velocity=100, time=376),
    Message('note_on', channel=3, note=28, velocity=100, time=8),
    Message('note_off', channel=3, note=28, velocity=100, time=184),
    Message('note_on', channel=3, note=28, velocity=100, time=8),
    Message('note_off', channel=3, note=28, velocity=100, time=184),
    Message('note_on', channel=3, note=35, velocity=100, time=8),
    Message('note_off', channel=3, note=35, velocity=100, time=376),
    Message('note_on', channel=3, note=28, velocity=100, time=8),
    Message('note_off', channel=3, note=28, velocity=100, time=184),
    Message('note_on', channel=3, note=28, velocity=100, time=8),
    Message('note_off', channel=3, note=28, velocity=100, time=184),
    Message('note_on', channel=3, note=38, velocity=100, time=8),
    Message('note_off', channel=3, note=38, velocity=100, time=1528),
    Message('note_on', channel=3, note=30, velocity=100, time=8),
    Message('note_off', channel=3, note=30, velocity=100, time=376),
    Message('note_on', channel=3, note=28, velocity=100, time=8),
    Message('note_off', channel=3, note=28, velocity=100, time=184),
    Message('note_on', channel=3, note=28, velocity=100, time=8),
    Message('note_off', channel=3, note=28, velocity=100, time=184),
    Message('note_on', channel=3, note=30, velocity=100, time=8),
    Message('note_off', channel=3, note=30, velocity=100, time=376),
    Message('note_on', channel=3, note=28, velocity=100, time=8),
    Message('note_off', channel=3, note=28, velocity=100, time=184),
    Message('note_on', channel=3, note=28, velocity=100, time=8),
    Message('note_off', channel=3, note=28, velocity=100, time=184),
    Message('note_on', channel=3, note=30, velocity=100, time=8),
    Message('note_off', channel=3, note=30, velocity=100, time=376),
    Message('note_on', channel=3, note=28, velocity=100, time=8),
    Message('note_off', channel=3, note=28, velocity=100, time=184),
    Message('note_on', channel=3, note=28, velocity=100, time=8),
    Message('note_off', channel=3, note=28, velocity=100, time=184),
    Message('note_on', channel=3, note=28, velocity=100, time=8),
    Message('note_off', channel=3, note=28, velocity=100, time=184),
    Message('note_on', channel=3, note=30, velocity=100, time=8),
    Message('note_off', channel=3, note=30, velocity=100, time=184),
    Message('note_on', channel=3, note=31, velocity=100, time=8),
    Message('note_off', channel=3, note=31, velocity=100, time=376),
    Message('note_on', channel=3, note=30, velocity=100, time=8),
    Message('note_off', channel=3, note=30, velocity=100, time=376),
    Message('note_on', channel=3, note=28, velocity=100, time=8),
    Message('note_off', channel=3, note=28, velocity=100, time=184),
    Message('note_on', channel=3, note=28, velocity=100, time=8),
    Message('note_off', channel=3, note=28, velocity=100, time=184),
    Message('note_on', channel=3, note=30, velocity=100, time=8),
    Message('note_off', channel=3, note=30, velocity=100, time=376),
    Message('note_on', channel=3, note=28, velocity=100, time=8),
    Message('note_off', channel=3, note=28, velocity=100, time=184),
    Message('note_on', channel=3, note=28, velocity=100, time=8),
    Message('note_off', channel=3, note=28, velocity=100, time=184),
    Message('note_on', channel=3, note=31, velocity=100, time=8),
    Message('note_off', channel=3, note=31, velocity=100, time=184),
    Message('note_on', channel=3, note=30, velocity=100, time=8),
    Message('note_off', channel=3, note=30, velocity=100, time=184),
    Message('note_on', channel=3, note=28, velocity=100, time=8),
    Message('note_off', channel=3, note=28, velocity=100, time=376),
    Message('note_on', channel=3, note=36, velocity=100, time=8),
    Message('note_off', channel=3, note=36, velocity=100, time=760),
    Message('note_on', channel=3, note=30, velocity=100, time=8),
    Message('note_off', channel=3, note=30, velocity=100, time=376),
    Message('note_on', channel=3, note=28, velocity=100, time=8),
    Message('note_off', channel=3, note=28, velocity=100, time=184),
    Message('note_on', channel=3, note=28, velocity=100, time=8),
    Message('note_off', channel=3, note=28, velocity=100, time=184),
    Message('note_on', channel=3, note=30, velocity=100, time=8),
    Message('note_off', channel=3, note=30, velocity=100, time=376),
    Message('note_on', channel=3, note=28, velocity=100, time=8),
    Message('note_off', channel=3, note=28, velocity=100, time=184),
    Message('note_on', channel=3, note=28, velocity=100, time=8),
    Message('note_off', channel=3, note=28, velocity=100, time=184),
    Message('note_on', channel=3, note=30, velocity=100, time=8),
    Message('note_off', channel=3, note=30, velocity=100, time=376),
    Message('note_on', channel=3, note=28, velocity=100, time=8),
    Message('note_off', channel=3, note=28, velocity=100, time=184),
    Message('note_on', channel=3, note=28, velocity=100, time=8),
    Message('note_off', channel=3, note=28, velocity=100, time=184),
    Message('note_on', channel=3, note=28, velocity=100, time=8),
    Message('note_off', channel=3, note=28, velocity=100, time=184),
    Message('note_on', channel=3, note=30, velocity=100, time=8),
    Message('note_off', channel=3, note=30, velocity=100, time=184),
    Message('note_on', channel=3, note=31, velocity=100, time=8),
    Message('note_off', channel=3, note=31, velocity=100, time=376),
    Message('note_on', channel=3, note=30, velocity=100, time=8),
    Message('note_off', channel=3, note=30, velocity=100, time=376),
    Message('note_on', channel=3, note=28, velocity=100, time=8),
    Message('note_off', channel=3, note=28, velocity=100, time=184),
    Message('note_on', channel=3, note=28, velocity=100, time=8),
    Message('note_off', channel=3, note=28, velocity=100, time=184),
    Message('note_on', channel=3, note=30, velocity=100, time=8),
    Message('note_off', channel=3, note=30, velocity=100, time=376),
    Message('note_on', channel=3, note=28, velocity=100, time=8),
    Message('note_off', channel=3, note=28, velocity=100, time=184),
    Message('note_on', channel=3, note=28, velocity=100, time=8),
    Message('note_off', channel=3, note=28, velocity=100, time=184),
    Message('note_on', channel=3, note=30, velocity=100, time=8),
    Message('note_off', channel=3, note=30, velocity=100, time=184),
    Message('note_on', channel=3, note=30, velocity=100, time=8),
    Message('note_off', channel=3, note=30, velocity=100, time=184),
    Message('note_on', channel=3, note=30, velocity=100, time=8),
    Message('note_off', channel=3, note=30, velocity=100, time=184),
    Message('note_on', channel=3, note=30, velocity=100, time=8),
    Message('note_off', channel=3, note=30, velocity=100, time=184),
    Message('note_on', channel=3, note=37, velocity=100, time=8),
    Message('note_off', channel=3, note=37, velocity=100, time=184),
    Message('note_on', channel=3, note=35, velocity=100, time=8),
    Message('note_off', channel=3, note=35, velocity=100, time=184),
    Message('note_on', channel=3, note=33, velocity=100, time=8),
    Message('note_off', channel=3, note=33, velocity=100, time=376),
    Message('note_on', channel=3, note=35, velocity=100, time=8),
    Message('note_off', channel=3, note=35, velocity=100, time=184),
    Message('note_on', channel=3, note=35, velocity=100, time=8),
    Message('note_off', channel=3, note=35, velocity=100, time=184),
    Message('note_on', channel=3, note=42, velocity=100, time=8),
    Message('note_off', channel=3, note=42, velocity=100, time=184),
    Message('note_on', channel=3, note=35, velocity=100, time=8),
    Message('note_off', channel=3, note=35, velocity=100, time=184),
    Message('note_on', channel=3, note=35, velocity=100, time=8),
    Message('note_off', channel=3, note=35, velocity=100, time=184),
    Message('note_on', channel=3, note=43, velocity=100, time=8),
    Message('note_off', channel=3, note=43, velocity=100, time=184),
    Message('note_on', channel=3, note=35, velocity=100, time=8),
    Message('note_off', channel=3, note=35, velocity=100, time=184),
    Message('note_on', channel=3, note=35, velocity=100, time=8),
    Message('note_off', channel=3, note=35, velocity=100, time=184),
    Message('note_on', channel=3, note=42, velocity=100, time=8),
    Message('note_off', channel=3, note=42, velocity=100, time=184),
    Message('note_on', channel=3, note=35, velocity=100, time=8),
    Message('note_off', channel=3, note=35, velocity=100, time=184),
    Message('note_on', channel=3, note=35, velocity=100, time=8),
    Message('note_off', channel=3, note=35, velocity=100, time=184),
    Message('note_on', channel=3, note=40, velocity=100, time=8),
    Message('note_off', channel=3, note=40, velocity=100, time=184),
    Message('note_on', channel=3, note=35, velocity=100, time=8),
    Message('note_off', channel=3, note=35, velocity=100, time=184),
    Message('note_on', channel=3, note=35, velocity=100, time=8),
    Message('note_off', channel=3, note=35, velocity=100, time=184),
    Message('note_on', channel=3, note=42, velocity=100, time=8),
    Message('note_off', channel=3, note=42, velocity=100, time=184),
    Message('note_on', channel=3, note=35, velocity=100, time=8),
    Message('note_off', channel=3, note=35, velocity=100, time=184),
    Message('note_on', channel=3, note=33, velocity=100, time=8),
    Message('note_off', channel=3, note=33, velocity=100, time=184),
    Message('note_on', channel=3, note=33, velocity=100, time=8),
    Message('note_off', channel=3, note=33, velocity=100, time=184),
    Message('note_on', channel=3, note=40, velocity=100, time=8),
    Message('note_off', channel=3, note=40, velocity=100, time=184),
    Message('note_on', channel=3, note=33, velocity=100, time=8),
    Message('note_off', channel=3, note=33, velocity=100, time=184),
    Message('note_on', channel=3, note=33, velocity=100, time=8),
    Message('note_off', channel=3, note=33, velocity=100, time=184),
    Message('note_on', channel=3, note=37, velocity=100, time=8),
    Message('note_off', channel=3, note=37, velocity=100, time=184),
    Message('note_on', channel=3, note=30, velocity=100, time=8),
    Message('note_off', channel=3, note=30, velocity=100, time=184),
    Message('note_on', channel=3, note=30, velocity=100, time=8),
    Message('note_off', channel=3, note=30, velocity=100, time=184),
    Message('note_on', channel=3, note=30, velocity=100, time=8),
    Message('note_off', channel=3, note=30, velocity=100, time=184),
    Message('note_on', channel=3, note=30, velocity=100, time=8),
    Message('note_off', channel=3, note=30, velocity=100, time=184),
    Message('note_on', channel=3, note=37, velocity=100, time=8),
    Message('note_off', channel=3, note=37, velocity=100, time=184),
    Message('note_on', channel=3, note=30, velocity=100, time=8),
    Message('note_off', channel=3, note=30, velocity=100, time=184),
    Message('note_on', channel=3, note=38, velocity=100, time=8),
    Message('note_off', channel=3, note=38, velocity=100, time=184),
    Message('note_on', channel=3, note=30, velocity=100, time=8),
    Message('note_off', channel=3, note=30, velocity=100, time=184),
    Message('note_on', channel=3, note=37, velocity=100, time=8),
    Message('note_off', channel=3, note=37, velocity=100, time=184),
    Message('note_on', channel=3, note=30, velocity=100, time=8),
    Message('note_off', channel=3, note=30, velocity=100, time=184),
    Message('note_on', channel=3, note=35, velocity=100, time=8),
    Message('note_off', channel=3, note=35, velocity=100, time=184),
    Message('note_on', channel=3, note=35, velocity=100, time=8),
    Message('note_off', channel=3, note=35, velocity=100, time=184),
    Message('note_on', channel=3, note=42, velocity=100, time=8),
    Message('note_off', channel=3, note=42, velocity=100, time=184),
    Message('note_on', channel=3, note=35, velocity=100, time=8),
    Message('note_off', channel=3, note=35, velocity=100, time=184),
    Message('note_on', channel=3, note=35, velocity=100, time=8),
    Message('note_off', channel=3, note=35, velocity=100, time=184),
    Message('note_on', channel=3, note=43, velocity=100, time=8),
    Message('note_off', channel=3, note=43, velocity=100, time=184),
    Message('note_on', channel=3, note=35, velocity=100, time=8),
    Message('note_off', channel=3, note=35, velocity=100, time=184),
    Message('note_on', channel=3, note=35, velocity=100, time=8),
    Message('note_off', channel=3, note=35, velocity=100, time=184),
    Message('note_on', channel=3, note=42, velocity=100, time=8),
    Message('note_off', channel=3, note=42, velocity=100, time=184),
    Message('note_on', channel=3, note=35, velocity=100, time=8),
    Message('note_off', channel=3, note=35, velocity=100, time=184),
    Message('note_on', channel=3, note=35, velocity=100, time=8),
    Message('note_off', channel=3, note=35, velocity=100, time=184),
    Message('note_on', channel=3, note=40, velocity=100, time=8),
    Message('note_off', channel=3, note=40, velocity=100, time=184),
    Message('note_on', channel=3, note=35, velocity=100, time=8),
    Message('note_off', channel=3, note=35, velocity=100, time=184),
    Message('note_on', channel=3, note=35, velocity=100, time=8),
    Message('note_off', channel=3, note=35, velocity=100, time=184),
    Message('note_on', channel=3, note=42, velocity=100, time=8),
    Message('note_off', channel=3, note=42, velocity=100, time=184),
    Message('note_on', channel=3, note=35, velocity=100, time=8),
    Message('note_off', channel=3, note=35, velocity=100, time=184),
    Message('note_on', channel=3, note=33, velocity=100, time=8),
    Message('note_off', channel=3, note=33, velocity=100, time=184),
    Message('note_on', channel=3, note=33, velocity=100, time=8),
    Message('note_off', channel=3, note=33, velocity=100, time=184),
    Message('note_on', channel=3, note=40, velocity=100, time=8),
    Message('note_off', channel=3, note=40, velocity=100, time=184),
    Message('note_on', channel=3, note=40, velocity=100, time=8),
    Message('note_off', channel=3, note=40, velocity=100, time=184),
    Message('note_on', channel=3, note=40, velocity=100, time=8),
    Message('note_off', channel=3, note=40, velocity=100, time=184),
    Message('note_on', channel=3, note=37, velocity=100, time=8),
    Message('note_off', channel=3, note=37, velocity=100, time=568),
    Message('note_on', channel=3, note=30, velocity=100, time=8),
    Message('note_off', channel=3, note=30, velocity=100, time=184),
    Message('note_on', channel=3, note=30, velocity=100, time=8),
    Message('note_off', channel=3, note=30, velocity=100, time=184),
    Message('note_on', channel=3, note=37, velocity=100, time=8),
    Message('note_off', channel=3, note=37, velocity=100, time=184),
    Message('note_on', channel=3, note=30, velocity=100, time=8),
    Message('note_off', channel=3, note=30, velocity=100, time=184),
    Message('note_on', channel=3, note=38, velocity=100, time=8),
    Message('note_off', channel=3, note=38, velocity=100, time=184),
    Message('note_on', channel=3, note=37, velocity=100, time=8),
    Message('note_off', channel=3, note=37, velocity=100, time=568),
    Message('note_on', channel=3, note=35, velocity=100, time=8),
    Message('note_off', channel=3, note=35, velocity=100, time=184),
    Message('note_on', channel=3, note=35, velocity=100, time=8),
    Message('note_off', channel=3, note=35, velocity=100, time=184),
    Message('note_on', channel=3, note=42, velocity=100, time=8),
    Message('note_off', channel=3, note=42, velocity=100, time=184),
    Message('note_on', channel=3, note=35, velocity=100, time=8),
    Message('note_off', channel=3, note=35, velocity=100, time=184),
    Message('note_on', channel=3, note=35, velocity=100, time=8),
    Message('note_off', channel=3, note=35, velocity=100, time=184),
    Message('note_on', channel=3, note=43, velocity=100, time=8),
    Message('note_off', channel=3, note=43, velocity=100, time=184),
    Message('note_on', channel=3, note=35, velocity=100, time=8),
    Message('note_off', channel=3, note=35, velocity=100, time=184),
    Message('note_on', channel=3, note=35, velocity=100, time=8),
    Message('note_off', channel=3, note=35, velocity=100, time=184),
    Message('note_on', channel=3, note=42, velocity=100, time=8),
    Message('note_off', channel=3, note=42, velocity=100, time=184),
    Message('note_on', channel=3, note=35, velocity=100, time=8),
    Message('note_off', channel=3, note=35, velocity=100, time=184),
    Message('note_on', channel=3, note=35, velocity=100, time=8),
    Message('note_off', channel=3, note=35, velocity=100, time=184),
    Message('note_on', channel=3, note=40, velocity=100, time=8),
    Message('note_off', channel=3, note=40, velocity=100, time=184),
    Message('note_on', channel=3, note=35, velocity=100, time=8),
    Message('note_off', channel=3, note=35, velocity=100, time=184),
    Message('note_on', channel=3, note=35, velocity=100, time=8),
    Message('note_off', channel=3, note=35, velocity=100, time=184),
    Message('note_on', channel=3, note=42, velocity=100, time=8),
    Message('note_off', channel=3, note=42, velocity=100, time=184),
    Message('note_on', channel=3, note=35, velocity=100, time=8),
    Message('note_off', channel=3, note=35, velocity=100, time=184),
    Message('note_on', channel=3, note=33, velocity=100, time=8),
    Message('note_off', channel=3, note=33, velocity=100, time=184),
    Message('note_on', channel=3, note=33, velocity=100, time=8),
    Message('note_off', channel=3, note=33, velocity=100, time=184),
    Message('note_on', channel=3, note=40, velocity=100, time=8),
    Message('note_off', channel=3, note=40, velocity=100, time=184),
    Message('note_on', channel=3, note=33, velocity=100, time=8),
    Message('note_off', channel=3, note=33, velocity=100, time=184),
    Message('note_on', channel=3, note=33, velocity=100, time=8),
    Message('note_off', channel=3, note=33, velocity=100, time=184),
    Message('note_on', channel=3, note=37, velocity=100, time=8),
    Message('note_off', channel=3, note=37, velocity=100, time=184),
    Message('note_on', channel=3, note=30, velocity=100, time=8),
    Message('note_off', channel=3, note=30, velocity=100, time=184),
    Message('note_on', channel=3, note=30, velocity=100, time=8),
    Message('note_off', channel=3, note=30, velocity=100, time=184),
    Message('note_on', channel=3, note=30, velocity=100, time=8),
    Message('note_off', channel=3, note=30, velocity=100, time=184),
    Message('note_on', channel=3, note=30, velocity=100, time=8),
    Message('note_off', channel=3, note=30, velocity=100, time=184),
    Message('note_on', channel=3, note=37, velocity=100, time=8),
    Message('note_off', channel=3, note=37, velocity=100, time=184),
    Message('note_on', channel=3, note=30, velocity=100, time=8),
    Message('note_off', channel=3, note=30, velocity=100, time=184),
    Message('note_on', channel=3, note=38, velocity=100, time=8),
    Message('note_off', channel=3, note=38, velocity=100, time=184),
    Message('note_on', channel=3, note=30, velocity=100, time=8),
    Message('note_off', channel=3, note=30, velocity=100, time=184),
    Message('note_on', channel=3, note=37, velocity=100, time=8),
    Message('note_off', channel=3, note=37, velocity=100, time=184),
    Message('note_on', channel=3, note=30, velocity=100, time=8),
    Message('note_off', channel=3, note=30, velocity=100, time=184),
    Message('note_on', channel=3, note=35, velocity=100, time=8),
    Message('note_off', channel=3, note=35, velocity=100, time=184),
    Message('note_on', channel=3, note=35, velocity=100, time=8),
    Message('note_off', channel=3, note=35, velocity=100, time=184),
    Message('note_on', channel=3, note=42, velocity=100, time=8),
    Message('note_off', channel=3, note=42, velocity=100, time=184),
    Message('note_on', channel=3, note=35, velocity=100, time=8),
    Message('note_off', channel=3, note=35, velocity=100, time=184),
    Message('note_on', channel=3, note=35, velocity=100, time=8),
    Message('note_off', channel=3, note=35, velocity=100, time=184),
    Message('note_on', channel=3, note=43, velocity=100, time=8),
    Message('note_off', channel=3, note=43, velocity=100, time=184),
    Message('note_on', channel=3, note=35, velocity=100, time=8),
    Message('note_off', channel=3, note=35, velocity=100, time=184),
    Message('note_on', channel=3, note=35, velocity=100, time=8),
    Message('note_off', channel=3, note=35, velocity=100, time=184),
    Message('note_on', channel=3, note=42, velocity=100, time=8),
    Message('note_off', channel=3, note=42, velocity=100, time=184),
    Message('note_on', channel=3, note=35, velocity=100, time=8),
    Message('note_off', channel=3, note=35, velocity=100, time=184),
    Message('note_on', channel=3, note=35, velocity=100, time=8),
    Message('note_off', channel=3, note=35, velocity=100, time=184),
    Message('note_on', channel=3, note=40, velocity=100, time=8),
    Message('note_off', channel=3, note=40, velocity=100, time=184),
    Message('note_on', channel=3, note=35, velocity=100, time=8),
    Message('note_off', channel=3, note=35, velocity=100, time=184),
    Message('note_on', channel=3, note=35, velocity=100, time=8),
    Message('note_off', channel=3, note=35, velocity=100, time=184),
    Message('note_on', channel=3, note=42, velocity=100, time=8),
    Message('note_off', channel=3, note=42, velocity=100, time=184),
    Message('note_on', channel=3, note=35, velocity=100, time=8),
    Message('note_off', channel=3, note=35, velocity=100, time=184),
    Message('note_on', channel=3, note=33, velocity=100, time=8),
    Message('note_off', channel=3, note=33, velocity=100, time=184),
    Message('note_on', channel=3, note=33, velocity=100, time=8),
    Message('note_off', channel=3, note=33, velocity=100, time=184),
    Message('note_on', channel=3, note=40, velocity=100, time=8),
    Message('note_off', channel=3, note=40, velocity=100, time=184),
    Message('note_on', channel=3, note=40, velocity=100, time=8),
    Message('note_off', channel=3, note=40, velocity=100, time=184),
    Message('note_on', channel=3, note=40, velocity=100, time=8),
    Message('note_off', channel=3, note=40, velocity=100, time=184),
    Message('note_on', channel=3, note=37, velocity=100, time=8),
    Message('note_off', channel=3, note=37, velocity=100, time=568),
    Message('note_on', channel=3, note=30, velocity=100, time=8),
    Message('note_off', channel=3, note=30, velocity=100, time=184),
    Message('note_on', channel=3, note=30, velocity=100, time=8),
    Message('note_off', channel=3, note=30, velocity=100, time=184),
    Message('note_on', channel=3, note=37, velocity=100, time=8),
    Message('note_off', channel=3, note=37, velocity=100, time=184),
    Message('note_on', channel=3, note=30, velocity=100, time=8),
    Message('note_off', channel=3, note=30, velocity=100, time=184),
    Message('note_on', channel=3, note=38, velocity=100, time=8),
    Message('note_off', channel=3, note=38, velocity=100, time=184),
    Message('note_on', channel=3, note=37, velocity=100, time=8),
    Message('note_off', channel=3, note=37, velocity=100, time=568),
    Message('note_on', channel=3, note=40, velocity=100, time=8),
    Message('note_off', channel=3, note=40, velocity=100, time=376),
    Message('note_on', channel=3, note=28, velocity=100, time=8),
    Message('note_off', channel=3, note=28, velocity=100, time=184),
    Message('note_on', channel=3, note=28, velocity=100, time=8),
    Message('note_off', channel=3, note=28, velocity=100, time=184),
    Message('note_on', channel=3, note=41, velocity=100, time=8),
    Message('note_off', channel=3, note=41, velocity=100, time=760),
    Message('note_on', channel=3, note=40, velocity=100, time=8),
    Message('note_off', channel=3, note=40, velocity=100, time=376),
    Message('note_on', channel=3, note=28, velocity=100, time=8),
    Message('note_off', channel=3, note=28, velocity=100, time=184),
    Message('note_on', channel=3, note=28, velocity=100, time=8),
    Message('note_off', channel=3, note=28, velocity=100, time=184),
    Message('note_on', channel=3, note=38, velocity=100, time=8),
    Message('note_off', channel=3, note=38, velocity=100, time=760),
    Message('note_on', channel=3, note=40, velocity=100, time=8),
    Message('note_off', channel=3, note=40, velocity=100, time=376),
    Message('note_on', channel=3, note=28, velocity=100, time=8),
    Message('note_off', channel=3, note=28, velocity=100, time=184),
    Message('note_on', channel=3, note=28, velocity=100, time=8),
    Message('note_off', channel=3, note=28, velocity=100, time=184),
    Message('note_on', channel=3, note=35, velocity=100, time=8),
    Message('note_off', channel=3, note=35, velocity=100, time=760),
    Message('note_on', channel=3, note=38, velocity=100, time=8),
    Message('note_off', channel=3, note=38, velocity=100, time=1528),
    Message('note_on', channel=3, note=40, velocity=100, time=8),
    Message('note_off', channel=3, note=40, velocity=100, time=376),
    Message('note_on', channel=3, note=28, velocity=100, time=8),
    Message('note_off', channel=3, note=28, velocity=100, time=184),
    Message('note_on', channel=3, note=28, velocity=100, time=8),
    Message('note_off', channel=3, note=28, velocity=100, time=184),
    Message('note_on', channel=3, note=41, velocity=100, time=8),
    Message('note_off', channel=3, note=41, velocity=100, time=760),
    Message('note_on', channel=3, note=40, velocity=100, time=8),
    Message('note_off', channel=3, note=40, velocity=100, time=376),
    Message('note_on', channel=3, note=28, velocity=100, time=8),
    Message('note_off', channel=3, note=28, velocity=100, time=184),
    Message('note_on', channel=3, note=28, velocity=100, time=8),
    Message('note_off', channel=3, note=28, velocity=100, time=184),
    Message('note_on', channel=3, note=38, velocity=100, time=8),
    Message('note_off', channel=3, note=38, velocity=100, time=760),
    Message('note_on', channel=3, note=40, velocity=100, time=8),
    Message('note_off', channel=3, note=40, velocity=100, time=376),
    Message('note_on', channel=3, note=28, velocity=100, time=8),
    Message('note_off', channel=3, note=28, velocity=100, time=184),
    Message('note_on', channel=3, note=28, velocity=100, time=8),
    Message('note_off', channel=3, note=28, velocity=100, time=184),
    Message('note_on', channel=3, note=35, velocity=100, time=8),
    Message('note_off', channel=3, note=35, velocity=100, time=760),
    Message('note_on', channel=3, note=38, velocity=100, time=8),
    Message('note_off', channel=3, note=38, velocity=100, time=1528),
    Message('note_on', channel=3, note=40, velocity=100, time=8),
    Message('note_off', channel=3, note=40, velocity=100, time=376),
    Message('note_on', channel=3, note=28, velocity=100, time=8),
    Message('note_off', channel=3, note=28, velocity=100, time=184),
    Message('note_on', channel=3, note=28, velocity=100, time=8),
    Message('note_off', channel=3, note=28, velocity=100, time=184),
    Message('note_on', channel=3, note=41, velocity=100, time=8),
    Message('note_off', channel=3, note=41, velocity=100, time=760),
    Message('note_on', channel=3, note=40, velocity=100, time=8),
    Message('note_off', channel=3, note=40, velocity=100, time=376),
    Message('note_on', channel=3, note=28, velocity=100, time=8),
    Message('note_off', channel=3, note=28, velocity=100, time=184),
    Message('note_on', channel=3, note=28, velocity=100, time=8),
    Message('note_off', channel=3, note=28, velocity=100, time=184),
    Message('note_on', channel=3, note=38, velocity=100, time=8),
    Message('note_off', channel=3, note=38, velocity=100, time=760),
    Message('note_on', channel=3, note=40, velocity=100, time=8),
    Message('note_off', channel=3, note=40, velocity=100, time=376),
    Message('note_on', channel=3, note=28, velocity=100, time=8),
    Message('note_off', channel=3, note=28, velocity=100, time=184),
    Message('note_on', channel=3, note=28, velocity=100, time=8),
    Message('note_off', channel=3, note=28, velocity=100, time=184),
    Message('note_on', channel=3, note=35, velocity=100, time=8),
    Message('note_off', channel=3, note=35, velocity=100, time=760),
    Message('note_on', channel=3, note=38, velocity=100, time=8),
    Message('note_off', channel=3, note=38, velocity=100, time=1528),
    Message('note_on', channel=3, note=40, velocity=100, time=8),
    Message('note_off', channel=3, note=40, velocity=100, time=376),
    Message('note_on', channel=3, note=28, velocity=100, time=8),
    Message('note_off', channel=3, note=28, velocity=100, time=184),
    Message('note_on', channel=3, note=28, velocity=100, time=8),
    Message('note_off', channel=3, note=28, velocity=100, time=184),
    Message('note_on', channel=3, note=41, velocity=100, time=8),
    Message('note_off', channel=3, note=41, velocity=100, time=760),
    Message('note_on', channel=3, note=40, velocity=100, time=8),
    Message('note_off', channel=3, note=40, velocity=100, time=376),
    Message('note_on', channel=3, note=28, velocity=100, time=8),
    Message('note_off', channel=3, note=28, velocity=100, time=184),
    Message('note_on', channel=3, note=28, velocity=100, time=8),
    Message('note_off', channel=3, note=28, velocity=100, time=184),
    Message('note_on', channel=3, note=38, velocity=100, time=8),
    Message('note_off', channel=3, note=38, velocity=100, time=760),
    Message('note_on', channel=3, note=40, velocity=100, time=8),
    Message('note_off', channel=3, note=40, velocity=100, time=376),
    Message('note_on', channel=3, note=28, velocity=100, time=8),
    Message('note_off', channel=3, note=28, velocity=100, time=184),
    Message('note_on', channel=3, note=28, velocity=100, time=8),
    Message('note_off', channel=3, note=28, velocity=100, time=184),
    Message('note_on', channel=3, note=35, velocity=100, time=8),
    Message('note_off', channel=3, note=35, velocity=100, time=760),
    Message('note_on', channel=3, note=38, velocity=100, time=8),
    Message('note_off', channel=3, note=38, velocity=100, time=1528),
    Message('note_on', channel=3, note=40, velocity=100, time=8),
    Message('note_off', channel=3, note=40, velocity=100, time=376),
    Message('note_on', channel=3, note=28, velocity=99, time=8),
    Message('note_off', channel=3, note=28, velocity=100, time=184),
    Message('note_on', channel=3, note=28, velocity=98, time=8),
    Message('note_off', channel=3, note=28, velocity=100, time=184),
    Message('note_on', channel=3, note=41, velocity=98, time=8),
    Message('note_off', channel=3, note=41, velocity=100, time=760),
    Message('note_on', channel=3, note=40, velocity=95, time=8),
    Message('note_off', channel=3, note=40, velocity=100, time=376),
    Message('note_on', channel=3, note=28, velocity=94, time=8),
    Message('note_off', channel=3, note=28, velocity=100, time=184),
    Message('note_on', channel=3, note=28, velocity=93, time=8),
    Message('note_off', channel=3, note=28, velocity=100, time=184),
    Message('note_on', channel=3, note=38, velocity=92, time=8),
    Message('note_off', channel=3, note=38, velocity=100, time=760),
    Message('note_on', channel=3, note=40, velocity=89, time=8),
    Message('note_off', channel=3, note=40, velocity=100, time=376),
    Message('note_on', channel=3, note=28, velocity=88, time=8),
    Message('note_off', channel=3, note=28, velocity=100, time=184),
    Message('note_on', channel=3, note=28, velocity=87, time=8),
    Message('note_off', channel=3, note=28, velocity=100, time=184),
    Message('note_on', channel=3, note=35, velocity=87, time=8),
    Message('note_off', channel=3, note=35, velocity=100, time=760),
    Message('note_on', channel=3, note=38, velocity=84, time=8),
    Message('note_off', channel=3, note=38, velocity=100, time=1528),
    Message('note_on', channel=3, note=40, velocity=78, time=8),
    Message('note_off', channel=3, note=40, velocity=100, time=376),
    Message('note_on', channel=3, note=28, velocity=77, time=8),
    Message('note_off', channel=3, note=28, velocity=100, time=184),
    Message('note_on', channel=3, note=28, velocity=76, time=8),
    Message('note_off', channel=3, note=28, velocity=100, time=184),
    Message('note_on', channel=3, note=41, velocity=75, time=8),
    Message('note_off', channel=3, note=41, velocity=100, time=760),
    Message('note_on', channel=3, note=40, velocity=73, time=8),
    Message('note_off', channel=3, note=40, velocity=100, time=376),
    Message('note_on', channel=3, note=28, velocity=71, time=8),
    Message('note_off', channel=3, note=28, velocity=100, time=184),
    Message('note_on', channel=3, note=28, velocity=70, time=8),
    Message('note_off', channel=3, note=28, velocity=100, time=184),
    Message('note_on', channel=3, note=38, velocity=70, time=8),
    Message('note_off', channel=3, note=38, velocity=100, time=760),
    Message('note_on', channel=3, note=40, velocity=67, time=8),
    Message('note_off', channel=3, note=40, velocity=100, time=376),
    Message('note_on', channel=3, note=28, velocity=66, time=8),
    Message('note_off', channel=3, note=28, velocity=100, time=184),
    Message('note_on', channel=3, note=28, velocity=65, time=8),
    Message('note_off', channel=3, note=28, velocity=100, time=184),
    Message('note_on', channel=3, note=35, velocity=64, time=8),
    Message('note_off', channel=3, note=35, velocity=100, time=760),
    Message('note_on', channel=3, note=38, velocity=61, time=8),
    Message('note_off', channel=3, note=38, velocity=100, time=1528),
    Message('note_on', channel=3, note=40, velocity=56, time=8),
    Message('note_off', channel=3, note=40, velocity=100, time=376),
    Message('note_on', channel=3, note=28, velocity=54, time=8),
    Message('note_off', channel=3, note=28, velocity=100, time=184),
    Message('note_on', channel=3, note=28, velocity=54, time=8),
    Message('note_off', channel=3, note=28, velocity=100, time=184),
    Message('note_on', channel=3, note=41, velocity=53, time=8),
    Message('note_off', channel=3, note=41, velocity=100, time=760),
    Message('note_on', channel=3, note=40, velocity=50, time=8),
    Message('note_off', channel=3, note=40, velocity=100, time=376),
    Message('note_on', channel=3, note=28, velocity=49, time=8),
    Message('note_off', channel=3, note=28, velocity=100, time=184),
    Message('note_on', channel=3, note=28, velocity=48, time=8),
    Message('note_off', channel=3, note=28, velocity=100, time=184),
    Message('note_on', channel=3, note=38, velocity=47, time=8),
    Message('note_off', channel=3, note=38, velocity=100, time=760),
    Message('note_on', channel=3, note=40, velocity=45, time=8),
    Message('note_off', channel=3, note=40, velocity=100, time=376),
    Message('note_on', channel=3, note=28, velocity=43, time=8),
    Message('note_off', channel=3, note=28, velocity=100, time=184),
    Message('note_on', channel=3, note=28, velocity=42, time=8),
    Message('note_off', channel=3, note=28, velocity=100, time=184),
    Message('note_on', channel=3, note=35, velocity=42, time=8),
    Message('note_off', channel=3, note=35, velocity=100, time=760),
    Message('note_on', channel=3, note=38, velocity=39, time=8),
    Message('note_off', channel=3, note=38, velocity=100, time=1528),
    Message('note_on', channel=3, note=40, velocity=33, time=8),
    Message('note_off', channel=3, note=40, velocity=100, time=376),
    Message('note_on', channel=3, note=28, velocity=32, time=8),
    Message('note_off', channel=3, note=28, velocity=100, time=184),
    Message('note_on', channel=3, note=28, velocity=31, time=8),
    Message('note_off', channel=3, note=28, velocity=100, time=184),
    Message('note_on', channel=3, note=41, velocity=31, time=8),
    Message('note_off', channel=3, note=41, velocity=100, time=760),
    Message('note_on', channel=3, note=40, velocity=28, time=8),
    Message('note_off', channel=3, note=40, velocity=100, time=376),
    Message('note_on', channel=3, note=28, velocity=26, time=8),
    Message('note_off', channel=3, note=28, velocity=100, time=184),
    Message('note_on', channel=3, note=28, velocity=26, time=8),
    Message('note_off', channel=3, note=28, velocity=100, time=184),
    Message('note_on', channel=3, note=38, velocity=25, time=8),
    Message('note_off', channel=3, note=38, velocity=100, time=760),
    Message('note_on', channel=3, note=40, velocity=22, time=8),
    Message('note_off', channel=3, note=40, velocity=100, time=376),
    Message('note_on', channel=3, note=28, velocity=21, time=8),
    Message('note_off', channel=3, note=28, velocity=100, time=184),
    Message('note_on', channel=3, note=28, velocity=20, time=8),
    Message('note_off', channel=3, note=28, velocity=100, time=184),
    Message('note_on', channel=3, note=35, velocity=19, time=8),
    Message('note_off', channel=3, note=35, velocity=100, time=760),
    Message('note_on', channel=3, note=38, velocity=17, time=8),
    Message('note_off', channel=3, note=38, velocity=100, time=1528),
    Message('note_on', channel=3, note=40, velocity=11, time=8),
    Message('note_off', channel=3, note=40, velocity=100, time=376),
    Message('note_on', channel=3, note=28, velocity=10, time=8),
    Message('note_off', channel=3, note=28, velocity=100, time=184),
    Message('note_on', channel=3, note=28, velocity=9, time=8),
    Message('note_off', channel=3, note=28, velocity=100, time=184),
    Message('note_on', channel=3, note=41, velocity=8, time=8),
    Message('note_off', channel=3, note=41, velocity=100, time=760),
    Message('note_on', channel=3, note=40, velocity=5, time=8),
    Message('note_off', channel=3, note=40, velocity=100, time=376),
    Message('note_on', channel=3, note=28, velocity=4, time=8),
    Message('note_off', channel=3, note=28, velocity=100, time=184),
    Message('note_on', channel=3, note=28, velocity=3, time=8),
    Message('note_off', channel=3, note=28, velocity=100, time=184),
    Message('note_on', channel=3, note=38, velocity=3, time=8),
    Message('note_off', channel=3, note=38, velocity=100, time=760),
    Message('note_on', channel=3, note=40, velocity=1, time=8),
    Message('note_off', channel=3, note=40, velocity=100, time=376),
    Message('note_on', channel=3, note=28, velocity=1, time=8),
    Message('note_off', channel=3, note=28, velocity=100, time=184),
    Message('note_on', channel=3, note=28, velocity=1, time=8),
    Message('note_off', channel=3, note=28, velocity=100, time=184),
    Message('note_on', channel=3, note=35, velocity=1, time=8),
    Message('note_off', channel=3, note=35, velocity=100, time=760),
    Message('note_on', channel=3, note=38, velocity=1, time=8),
    Message('note_off', channel=3, note=38, velocity=100, time=1528),
    Message('note_on', channel=3, note=40, velocity=1, time=8),
    Message('note_off', channel=3, note=40, velocity=1, time=12288),
    MetaMessage('end_of_track', time=0)]),
  MidiTrack([
    MetaMessage('track_name', name='to seregs@dnttm.ru', time=0),
    Message('control_change', channel=4, control=0, value=0, time=0),
    Message('program_change', channel=4, program=31, time=0),
    Message('control_change', channel=4, control=7, value=110, time=0),
    Message('control_change', channel=4, control=10, value=64, time=0),
    Message('control_change', channel=4, control=91, value=127, time=0),
    Message('control_change', channel=4, control=93, value=119, time=0),
    MetaMessage('key_signature', key='D', time=0),
    Message('note_on', channel=4, note=68, velocity=100, time=67008),
    Message('note_off', channel=4, note=68, velocity=100, time=568),
    Message('note_on', channel=4, note=68, velocity=100, time=60872),
    Message('note_off', channel=4, note=68, velocity=100, time=568),
    MetaMessage('end_of_track', time=0)]),
  MidiTrack([
    MetaMessage('track_name', name='guit.', time=0),
    Message('control_change', channel=5, control=0, value=0, time=0),
    Message('program_change', channel=5, program=30, time=0),
    Message('control_change', channel=5, control=7, value=88, time=0),
    Message('control_change', channel=5, control=91, value=127, time=0),
    Message('control_change', channel=5, control=93, value=127, time=0),
    MetaMessage('key_signature', key='D', time=0),
    Message('note_on', channel=5, note=76, velocity=100, time=6144),
    Message('note_off', channel=5, note=76, velocity=100, time=1144),
    Message('note_on', channel=5, note=77, velocity=100, time=8),
    Message('note_off', channel=5, note=77, velocity=100, time=376),
    Message('note_on', channel=5, note=76, velocity=100, time=8),
    Message('note_off', channel=5, note=76, velocity=100, time=1144),
    Message('note_on', channel=5, note=74, velocity=100, time=8),
    Message('note_off', channel=5, note=74, velocity=100, time=376),
    Message('note_on', channel=5, note=76, velocity=100, time=8),
    Message('note_off', channel=5, note=76, velocity=100, time=760),
    Message('note_on', channel=5, note=71, velocity=100, time=8),
    Message('note_off', channel=5, note=71, velocity=100, time=760),
    Message('note_on', channel=5, note=74, velocity=100, time=8),
    Message('note_off', channel=5, note=74, velocity=100, time=1528),
    Message('note_on', channel=5, note=76, velocity=100, time=8),
    Message('note_off', channel=5, note=76, velocity=100, time=1144),
    Message('note_on', channel=5, note=77, velocity=100, time=8),
    Message('note_off', channel=5, note=77, velocity=100, time=376),
    Message('note_on', channel=5, note=76, velocity=100, time=8),
    Message('note_off', channel=5, note=76, velocity=100, time=1144),
    Message('note_on', channel=5, note=74, velocity=100, time=8),
    Message('note_off', channel=5, note=74, velocity=100, time=376),
    Message('note_on', channel=5, note=76, velocity=100, time=8),
    Message('note_off', channel=5, note=76, velocity=100, time=760),
    Message('note_on', channel=5, note=71, velocity=100, time=8),
    Message('note_off', channel=5, note=71, velocity=100, time=760),
    Message('note_on', channel=5, note=74, velocity=100, time=8),
    Message('note_off', channel=5, note=74, velocity=100, time=1528),
    Message('note_on', channel=5, note=71, velocity=100, time=70376),
    Message('note_off', channel=5, note=71, velocity=100, time=88),
    Message('note_on', channel=5, note=74, velocity=100, time=8),
    Message('note_off', channel=5, note=74, velocity=100, time=88),
    Message('note_on', channel=5, note=78, velocity=100, time=8),
    Message('note_off', channel=5, note=78, velocity=100, time=88),
    Message('note_on', channel=5, note=83, velocity=100, time=8),
    Message('note_off', channel=5, note=83, velocity=100, time=184),
    Message('note_on', channel=5, note=78, velocity=100, time=8),
    Message('note_off', channel=5, note=78, velocity=100, time=184),
    Message('note_on', channel=5, note=74, velocity=100, time=8),
    Message('note_off', channel=5, note=74, velocity=100, time=184),
    Message('note_on', channel=5, note=73, velocity=100, time=8),
    Message('note_off', channel=5, note=73, velocity=100, time=184),
    Message('note_on', channel=5, note=74, velocity=100, time=8),
    Message('note_off', channel=5, note=74, velocity=100, time=184),
    Message('note_on', channel=5, note=73, velocity=100, time=8),
    Message('note_off', channel=5, note=73, velocity=100, time=184),
    Message('note_on', channel=5, note=71, velocity=100, time=8),
    Message('note_off', channel=5, note=71, velocity=100, time=184),
    Message('note_on', channel=5, note=69, velocity=100, time=8),
    Message('note_off', channel=5, note=69, velocity=100, time=184),
    Message('note_on', channel=5, note=71, velocity=100, time=8),
    Message('note_off', channel=5, note=71, velocity=100, time=1528),
    Message('note_on', channel=5, note=83, velocity=100, time=9224),
    Message('note_off', channel=5, note=83, velocity=100, time=120),
    Message('note_on', channel=5, note=81, velocity=100, time=8),
    Message('note_off', channel=5, note=81, velocity=100, time=120),
    Message('note_on', channel=5, note=78, velocity=100, time=8),
    Message('note_off', channel=5, note=78, velocity=100, time=120),
    Message('note_on', channel=5, note=83, velocity=100, time=8),
    Message('note_off', channel=5, note=83, velocity=100, time=120),
    Message('note_on', channel=5, note=81, velocity=100, time=8),
    Message('note_off', channel=5, note=81, velocity=100, time=120),
    Message('note_on', channel=5, note=78, velocity=100, time=8),
    Message('note_off', channel=5, note=78, velocity=100, time=120),
    Message('note_on', channel=5, note=83, velocity=100, time=8),
    Message('note_off', channel=5, note=83, velocity=100, time=120),
    Message('note_on', channel=5, note=81, velocity=100, time=8),
    Message('note_off', channel=5, note=81, velocity=100, time=120),
    Message('note_on', channel=5, note=78, velocity=100, time=8),
    Message('note_off', channel=5, note=78, velocity=100, time=120),
    Message('note_on', channel=5, note=83, velocity=100, time=8),
    Message('note_on', channel=5, note=81, velocity=100, time=64),
    Message('note_off', channel=5, note=83, velocity=100, time=24),
    Message('note_off', channel=5, note=81, velocity=100, time=256),
    Message('note_on', channel=5, note=83, velocity=100, time=40),
    Message('note_off', channel=5, note=83, velocity=100, time=1528),
    Message('note_on', channel=5, note=66, velocity=100, time=50696),
    Message('note_off', channel=5, note=66, velocity=100, time=120),
    Message('note_on', channel=5, note=64, velocity=100, time=8),
    Message('note_off', channel=5, note=64, velocity=100, time=120),
    Message('note_on', channel=5, note=62, velocity=100, time=8),
    Message('note_off', channel=5, note=62, velocity=100, time=120),
    Message('note_on', channel=5, note=54, velocity=100, time=8),
    Message('note_off', channel=5, note=54, velocity=100, time=120),
    Message('note_on', channel=5, note=52, velocity=100, time=8),
    Message('note_off', channel=5, note=52, velocity=100, time=120),
    Message('note_on', channel=5, note=50, velocity=100, time=8),
    Message('note_off', channel=5, note=50, velocity=100, time=120),
    Message('note_on', channel=5, note=66, velocity=100, time=8),
    Message('note_on', channel=5, note=54, velocity=100, time=0),
    Message('note_off', channel=5, note=66, velocity=100, time=120),
    Message('note_off', channel=5, note=54, velocity=100, time=0),
    Message('note_on', channel=5, note=52, velocity=100, time=8),
    Message('note_on', channel=5, note=64, velocity=100, time=0),
    Message('note_off', channel=5, note=52, velocity=100, time=120),
    Message('note_off', channel=5, note=64, velocity=100, time=0),
    Message('note_on', channel=5, note=50, velocity=100, time=8),
    Message('note_on', channel=5, note=62, velocity=100, time=0),
    Message('note_off', channel=5, note=50, velocity=100, time=120),
    Message('note_off', channel=5, note=62, velocity=100, time=0),
    Message('note_on', channel=5, note=64, velocity=100, time=8),
    Message('note_on', channel=5, note=52, velocity=100, time=0),
    Message('note_off', channel=5, note=64, velocity=100, time=120),
    Message('note_off', channel=5, note=52, velocity=100, time=0),
    Message('note_on', channel=5, note=62, velocity=100, time=8),
    Message('note_on', channel=5, note=50, velocity=100, time=0),
    Message('note_off', channel=5, note=62, velocity=100, time=120),
    Message('note_off', channel=5, note=50, velocity=100, time=0),
    Message('note_on', channel=5, note=61, velocity=100, time=8),
    Message('note_on', channel=5, note=49, velocity=100, time=0),
    Message('note_off', channel=5, note=61, velocity=100, time=120),
    Message('note_off', channel=5, note=49, velocity=100, time=0),
    Message('note_on', channel=5, note=59, velocity=100, time=8),
    Message('note_on', channel=5, note=47, velocity=100, time=0),
    Message('note_off', channel=5, note=59, velocity=100, time=760),
    Message('note_off', channel=5, note=47, velocity=100, time=0),
    Message('note_on', channel=5, note=76, velocity=100, time=86792),
    Message('note_off', channel=5, note=76, velocity=100, time=1144),
    Message('note_on', channel=5, note=77, velocity=100, time=8),
    Message('note_off', channel=5, note=77, velocity=100, time=376),
    Message('note_on', channel=5, note=76, velocity=100, time=8),
    Message('note_off', channel=5, note=76, velocity=100, time=1144),
    Message('note_on', channel=5, note=74, velocity=100, time=8),
    Message('note_off', channel=5, note=74, velocity=100, time=376),
    Message('note_on', channel=5, note=76, velocity=100, time=8),
    Message('note_off', channel=5, note=76, velocity=100, time=760),
    Message('note_on', channel=5, note=71, velocity=100, time=8),
    Message('note_off', channel=5, note=71, velocity=100, time=760),
    Message('note_on', channel=5, note=74, velocity=100, time=8),
    Message('note_off', channel=5, note=74, velocity=100, time=1528),
    Message('note_on', channel=5, note=76, velocity=100, time=8),
    Message('note_off', channel=5, note=76, velocity=100, time=1144),
    Message('note_on', channel=5, note=77, velocity=100, time=8),
    Message('note_off', channel=5, note=77, velocity=100, time=376),
    Message('note_on', channel=5, note=76, velocity=100, time=8),
    Message('note_off', channel=5, note=76, velocity=100, time=1144),
    Message('note_on', channel=5, note=74, velocity=100, time=8),
    Message('note_off', channel=5, note=74, velocity=100, time=376),
    Message('note_on', channel=5, note=76, velocity=100, time=8),
    Message('note_off', channel=5, note=76, velocity=100, time=760),
    Message('note_on', channel=5, note=71, velocity=100, time=8),
    Message('note_off', channel=5, note=71, velocity=100, time=760),
    Message('note_on', channel=5, note=74, velocity=100, time=8),
    Message('note_off', channel=5, note=74, velocity=100, time=1528),
    MetaMessage('end_of_track', time=0)]),
  MidiTrack([
    Message('control_change', channel=6, control=7, value=106, time=0),
    MetaMessage('key_signature', key='D', time=0),
    MetaMessage('end_of_track', time=0)]),
  MidiTrack([
    Message('control_change', channel=7, control=7, value=106, time=0),
    MetaMessage('key_signature', key='D', time=0),
    MetaMessage('end_of_track', time=0)]),
  MidiTrack([
    Message('control_change', channel=8, control=7, value=106, time=0),
    MetaMessage('key_signature', key='D', time=0),
    MetaMessage('end_of_track', time=0)]),
  MidiTrack([
    Message('control_change', channel=9, control=0, value=0, time=0),
    Message('program_change', channel=9, program=0, time=0),
    Message('control_change', channel=9, control=7, value=110, time=0),
    Message('control_change', channel=9, control=91, value=127, time=0),
    Message('control_change', channel=9, control=93, value=0, time=0),
    MetaMessage('key_signature', key='D', time=0),
    MetaMessage('end_of_track', time=0)]),
  MidiTrack([
    MetaMessage('key_signature', key='D', time=0),
    Message('control_change', channel=9, control=7, value=100, time=0),
    MetaMessage('end_of_track', time=0)]),
  MidiTrack([
    MetaMessage('key_signature', key='D', time=0),
    Message('control_change', channel=9, control=7, value=100, time=0),
    MetaMessage('end_of_track', time=0)]),
  MidiTrack([
    MetaMessage('key_signature', key='D', time=0),
    Message('control_change', channel=9, control=7, value=100, time=0),
    MetaMessage('end_of_track', time=0)]),
  MidiTrack([
    MetaMessage('key_signature', key='D', time=0),
    Message('control_change', channel=9, control=7, value=100, time=0),
    MetaMessage('end_of_track', time=0)])
])
