MidiFile(type=1, ticks_per_beat=120, tracks=[
  MidiTrack([
    MetaMessage('sequencer_specific', data=(0, 0, 91, 35, 2, 0, 3, 0, 51, 0), time=0),
    MetaMessage('track_name', name='WinJammer Demo', time=0),
    MetaMessage('instrument_name', name='Lithium by:', time=0),
    MetaMessage('midi_port', port=0, time=0),
    MetaMessage('key_signature', key='C', time=0),
    MetaMessage('time_signature', numerator=4, denominator=4, clocks_per_click=96, notated_32nd_notes_per_beat=8, time=0),
    MetaMessage('set_tempo', tempo=526315, time=0),
    MetaMessage('end_of_track', time=0)]),
  MidiTrack([
    MetaMessage('track_name', name='WinJammer Demo', time=0),
    MetaMessage('instrument_name', name='Nirvana', time=0),
    MetaMessage('midi_port', port=0, time=0),
    Message('program_change', channel=0, program=34, time=0),
    Message('control_change', channel=0, control=7, value=100, time=0),
    Message('note_on', channel=0, note=38, velocity=60, time=0),
    Message('note_on', channel=0, note=38, velocity=0, time=119),
    Message('note_on', channel=0, note=50, velocity=60, time=1),
    Message('note_on', channel=0, note=50, velocity=0, time=59),
    Message('note_on', channel=0, note=38, velocity=60, time=1),
    Message('note_on', channel=0, note=38, velocity=0, time=59),
    Message('note_on', channel=0, note=42, velocity=60, time=1),
    Message('note_on', channel=0, note=42, velocity=0, time=119),
    Message('note_on', channel=0, note=54, velocity=60, time=1),
    Message('note_on', channel=0, note=54, velocity=0, time=59),
    Message('note_on', channel=0, note=42, velocity=60, time=1),
    Message('note_on', channel=0, note=42, velocity=0, time=59),
    Message('note_on', channel=0, note=47, velocity=60, time=1),
    Message('note_on', channel=0, note=47, velocity=0, time=119),
    Message('note_on', channel=0, note=59, velocity=60, time=1),
    Message('note_on', channel=0, note=59, velocity=0, time=59),
    Message('note_on', channel=0, note=47, velocity=60, time=1),
    Message('note_on', channel=0, note=47, velocity=0, time=59),
    Message('note_on', channel=0, note=43, velocity=60, time=1),
    Message('note_on', channel=0, note=43, velocity=0, time=119),
    Message('note_on', channel=0, note=55, velocity=60, time=1),
    Message('note_on', channel=0, note=55, velocity=0, time=59),
    Message('note_on', channel=0, note=43, velocity=60, time=1),
    Message('note_on', channel=0, note=43, velocity=0, time=59),
    Message('note_on', channel=0, note=46, velocity=60, time=1),
    Message('note_on', channel=0, note=46, velocity=0, time=119),
    Message('note_on', channel=0, note=46, velocity=60, time=1),
    Message('note_on', channel=0, note=46, velocity=60, time=60),
    Message('note_on', channel=0, note=46, velocity=0, time=59),
    Message('note_on', channel=0, note=46, velocity=60, time=1),
    Message('note_on', channel=0, note=46, velocity=0, time=59),
    Message('note_on', channel=0, note=46, velocity=0, time=0),
    Message('note_on', channel=0, note=48, velocity=60, time=1),
    Message('note_on', channel=0, note=48, velocity=0, time=59),
    Message('note_on', channel=0, note=48, velocity=60, time=1),
    Message('note_on', channel=0, note=48, velocity=0, time=119),
    Message('note_on', channel=0, note=45, velocity=60, time=1),
    Message('note_on', channel=0, note=45, velocity=0, time=119),
    Message('note_on', channel=0, note=45, velocity=60, time=1),
    Message('note_on', channel=0, note=45, velocity=60, time=60),
    Message('note_on', channel=0, note=45, velocity=0, time=59),
    Message('note_on', channel=0, note=45, velocity=60, time=1),
    Message('note_on', channel=0, note=45, velocity=0, time=59),
    Message('note_on', channel=0, note=45, velocity=0, time=0),
    Message('note_on', channel=0, note=48, velocity=60, time=1),
    Message('note_on', channel=0, note=48, velocity=0, time=59),
    Message('note_on', channel=0, note=48, velocity=60, time=1),
    Message('note_on', channel=0, note=48, velocity=0, time=119),
    Message('note_on', channel=0, note=38, velocity=60, time=1),
    Message('note_on', channel=0, note=38, velocity=0, time=119),
    Message('note_on', channel=0, note=50, velocity=60, time=1),
    Message('note_on', channel=0, note=45, velocity=60, time=0),
    Message('note_on', channel=0, note=50, velocity=0, time=59),
    Message('note_on', channel=0, note=45, velocity=0, time=0),
    Message('note_on', channel=0, note=38, velocity=60, time=1),
    Message('note_on', channel=0, note=38, velocity=0, time=59),
    Message('note_on', channel=0, note=42, velocity=60, time=1),
    Message('note_on', channel=0, note=42, velocity=0, time=119),
    Message('note_on', channel=0, note=54, velocity=60, time=1),
    Message('note_on', channel=0, note=49, velocity=60, time=0),
    Message('note_on', channel=0, note=54, velocity=0, time=59),
    Message('note_on', channel=0, note=49, velocity=0, time=0),
    Message('note_on', channel=0, note=42, velocity=60, time=1),
    Message('note_on', channel=0, note=42, velocity=0, time=59),
    Message('note_on', channel=0, note=47, velocity=60, time=1),
    Message('note_on', channel=0, note=47, velocity=0, time=119),
    Message('note_on', channel=0, note=59, velocity=60, time=1),
    Message('note_on', channel=0, note=52, velocity=60, time=0),
    Message('note_on', channel=0, note=59, velocity=0, time=59),
    Message('note_on', channel=0, note=52, velocity=0, time=0),
    Message('note_on', channel=0, note=47, velocity=60, time=1),
    Message('note_on', channel=0, note=47, velocity=0, time=59),
    Message('note_on', channel=0, note=43, velocity=60, time=1),
    Message('note_on', channel=0, note=43, velocity=0, time=119),
    Message('note_on', channel=0, note=55, velocity=60, time=1),
    Message('note_on', channel=0, note=50, velocity=60, time=0),
    Message('note_on', channel=0, note=55, velocity=0, time=59),
    Message('note_on', channel=0, note=50, velocity=0, time=0),
    Message('note_on', channel=0, note=43, velocity=60, time=1),
    Message('note_on', channel=0, note=43, velocity=0, time=59),
    Message('note_on', channel=0, note=46, velocity=60, time=1),
    Message('note_on', channel=0, note=46, velocity=0, time=119),
    Message('note_on', channel=0, note=46, velocity=60, time=1),
    Message('note_on', channel=0, note=58, velocity=60, time=0),
    Message('note_on', channel=0, note=53, velocity=60, time=0),
    Message('note_on', channel=0, note=58, velocity=0, time=59),
    Message('note_on', channel=0, note=46, velocity=60, time=1),
    Message('note_on', channel=0, note=46, velocity=0, time=59),
    Message('note_on', channel=0, note=53, velocity=0, time=0),
    Message('note_on', channel=0, note=46, velocity=60, time=1),
    Message('note_on', channel=0, note=46, velocity=0, time=59),
    Message('note_on', channel=0, note=46, velocity=0, time=0),
    Message('note_on', channel=0, note=48, velocity=60, time=1),
    Message('note_on', channel=0, note=48, velocity=0, time=59),
    Message('note_on', channel=0, note=48, velocity=60, time=1),
    Message('note_on', channel=0, note=60, velocity=60, time=0),
    Message('note_on', channel=0, note=55, velocity=60, time=0),
    Message('note_on', channel=0, note=48, velocity=0, time=119),
    Message('note_on', channel=0, note=60, velocity=0, time=0),
    Message('note_on', channel=0, note=55, velocity=0, time=0),
    Message('note_on', channel=0, note=45, velocity=60, time=1),
    Message('note_on', channel=0, note=45, velocity=0, time=119),
    Message('note_on', channel=0, note=45, velocity=60, time=1),
    Message('note_on', channel=0, note=52, velocity=60, time=0),
    Message('note_on', channel=0, note=57, velocity=60, time=0),
    Message('note_on', channel=0, note=52, velocity=0, time=59),
    Message('note_on', channel=0, note=57, velocity=0, time=0),
    Message('note_on', channel=0, note=45, velocity=60, time=1),
    Message('note_on', channel=0, note=45, velocity=0, time=59),
    Message('note_on', channel=0, note=45, velocity=60, time=1),
    Message('note_on', channel=0, note=45, velocity=0, time=59),
    Message('note_on', channel=0, note=45, velocity=0, time=0),
    Message('note_on', channel=0, note=48, velocity=60, time=1),
    Message('note_on', channel=0, note=48, velocity=0, time=59),
    Message('note_on', channel=0, note=48, velocity=60, time=1),
    Message('note_on', channel=0, note=55, velocity=60, time=0),
    Message('note_on', channel=0, note=60, velocity=60, time=0),
    Message('note_on', channel=0, note=48, velocity=0, time=119),
    Message('note_on', channel=0, note=55, velocity=0, time=0),
    Message('note_on', channel=0, note=60, velocity=0, time=0),
    Message('note_on', channel=0, note=38, velocity=60, time=1),
    Message('note_on', channel=0, note=38, velocity=0, time=119),
    Message('note_on', channel=0, note=50, velocity=60, time=1),
    Message('note_on', channel=0, note=45, velocity=60, time=0),
    Message('note_on', channel=0, note=50, velocity=0, time=59),
    Message('note_on', channel=0, note=45, velocity=0, time=0),
    Message('note_on', channel=0, note=38, velocity=60, time=1),
    Message('note_on', channel=0, note=38, velocity=0, time=59),
    Message('note_on', channel=0, note=42, velocity=60, time=1),
    Message('note_on', channel=0, note=42, velocity=0, time=119),
    Message('note_on', channel=0, note=54, velocity=60, time=1),
    Message('note_on', channel=0, note=49, velocity=60, time=0),
    Message('note_on', channel=0, note=54, velocity=0, time=59),
    Message('note_on', channel=0, note=49, velocity=0, time=0),
    Message('note_on', channel=0, note=42, velocity=60, time=1),
    Message('note_on', channel=0, note=42, velocity=0, time=59),
    Message('note_on', channel=0, note=47, velocity=60, time=1),
    Message('note_on', channel=0, note=47, velocity=0, time=119),
    Message('note_on', channel=0, note=59, velocity=60, time=1),
    Message('note_on', channel=0, note=52, velocity=60, time=0),
    Message('note_on', channel=0, note=59, velocity=0, time=59),
    Message('note_on', channel=0, note=52, velocity=0, time=0),
    Message('note_on', channel=0, note=47, velocity=60, time=1),
    Message('note_on', channel=0, note=47, velocity=0, time=59),
    Message('note_on', channel=0, note=43, velocity=60, time=1),
    Message('note_on', channel=0, note=43, velocity=0, time=119),
    Message('note_on', channel=0, note=55, velocity=60, time=1),
    Message('note_on', channel=0, note=50, velocity=60, time=0),
    Message('note_on', channel=0, note=55, velocity=0, time=59),
    Message('note_on', channel=0, note=50, velocity=0, time=0),
    Message('note_on', channel=0, note=43, velocity=60, time=1),
    Message('note_on', channel=0, note=43, velocity=0, time=59),
    Message('note_on', channel=0, note=46, velocity=60, time=1),
    Message('note_on', channel=0, note=46, velocity=0, time=119),
    Message('note_on', channel=0, note=46, velocity=60, time=1),
    Message('note_on', channel=0, note=58, velocity=60, time=0),
    Message('note_on', channel=0, note=53, velocity=60, time=0),
    Message('note_on', channel=0, note=58, velocity=0, time=59),
    Message('note_on', channel=0, note=46, velocity=60, time=1),
    Message('note_on', channel=0, note=46, velocity=0, time=59),
    Message('note_on', channel=0, note=53, velocity=0, time=0),
    Message('note_on', channel=0, note=46, velocity=60, time=1),
    Message('note_on', channel=0, note=46, velocity=0, time=59),
    Message('note_on', channel=0, note=46, velocity=0, time=0),
    Message('note_on', channel=0, note=48, velocity=60, time=1),
    Message('note_on', channel=0, note=48, velocity=0, time=59),
    Message('note_on', channel=0, note=48, velocity=60, time=1),
    Message('note_on', channel=0, note=60, velocity=60, time=0),
    Message('note_on', channel=0, note=55, velocity=60, time=0),
    Message('note_on', channel=0, note=48, velocity=0, time=119),
    Message('note_on', channel=0, note=60, velocity=0, time=0),
    Message('note_on', channel=0, note=55, velocity=0, time=0),
    Message('note_on', channel=0, note=45, velocity=60, time=1),
    Message('note_on', channel=0, note=45, velocity=0, time=119),
    Message('note_on', channel=0, note=45, velocity=60, time=1),
    Message('note_on', channel=0, note=52, velocity=60, time=0),
    Message('note_on', channel=0, note=57, velocity=60, time=0),
    Message('note_on', channel=0, note=52, velocity=0, time=59),
    Message('note_on', channel=0, note=57, velocity=0, time=0),
    Message('note_on', channel=0, note=45, velocity=60, time=1),
    Message('note_on', channel=0, note=45, velocity=0, time=59),
    Message('note_on', channel=0, note=45, velocity=60, time=1),
    Message('note_on', channel=0, note=45, velocity=0, time=59),
    Message('note_on', channel=0, note=45, velocity=0, time=0),
    Message('note_on', channel=0, note=48, velocity=60, time=1),
    Message('note_on', channel=0, note=48, velocity=0, time=59),
    Message('note_on', channel=0, note=48, velocity=60, time=1),
    Message('note_on', channel=0, note=55, velocity=60, time=0),
    Message('note_on', channel=0, note=60, velocity=60, time=0),
    Message('note_on', channel=0, note=48, velocity=0, time=119),
    Message('note_on', channel=0, note=55, velocity=0, time=0),
    Message('note_on', channel=0, note=60, velocity=0, time=0),
    Message('note_on', channel=0, note=38, velocity=60, time=1),
    Message('note_on', channel=0, note=38, velocity=0, time=119),
    Message('note_on', channel=0, note=50, velocity=60, time=1),
    Message('note_on', channel=0, note=45, velocity=60, time=0),
    Message('note_on', channel=0, note=50, velocity=0, time=59),
    Message('note_on', channel=0, note=45, velocity=0, time=0),
    Message('note_on', channel=0, note=38, velocity=60, time=1),
    Message('note_on', channel=0, note=38, velocity=0, time=59),
    Message('note_on', channel=0, note=42, velocity=60, time=1),
    Message('note_on', channel=0, note=42, velocity=0, time=119),
    Message('note_on', channel=0, note=54, velocity=60, time=1),
    Message('note_on', channel=0, note=49, velocity=60, time=0),
    Message('note_on', channel=0, note=54, velocity=0, time=59),
    Message('note_on', channel=0, note=49, velocity=0, time=0),
    Message('note_on', channel=0, note=42, velocity=60, time=1),
    Message('note_on', channel=0, note=42, velocity=0, time=59),
    Message('note_on', channel=0, note=47, velocity=60, time=1),
    Message('note_on', channel=0, note=47, velocity=0, time=119),
    Message('note_on', channel=0, note=59, velocity=60, time=1),
    Message('note_on', channel=0, note=52, velocity=60, time=0),
    Message('note_on', channel=0, note=59, velocity=0, time=59),
    Message('note_on', channel=0, note=52, velocity=0, time=0),
    Message('note_on', channel=0, note=47, velocity=60, time=1),
    Message('note_on', channel=0, note=47, velocity=0, time=59),
    Message('note_on', channel=0, note=43, velocity=60, time=1),
    Message('note_on', channel=0, note=43, velocity=0, time=119),
    Message('note_on', channel=0, note=55, velocity=60, time=1),
    Message('note_on', channel=0, note=50, velocity=60, time=0),
    Message('note_on', channel=0, note=55, velocity=0, time=59),
    Message('note_on', channel=0, note=50, velocity=0, time=0),
    Message('note_on', channel=0, note=43, velocity=60, time=1),
    Message('note_on', channel=0, note=43, velocity=0, time=59),
    Message('note_on', channel=0, note=46, velocity=60, time=1),
    Message('note_on', channel=0, note=46, velocity=0, time=119),
    Message('note_on', channel=0, note=46, velocity=60, time=1),
    Message('note_on', channel=0, note=58, velocity=60, time=0),
    Message('note_on', channel=0, note=53, velocity=60, time=0),
    Message('note_on', channel=0, note=58, velocity=0, time=59),
    Message('note_on', channel=0, note=46, velocity=60, time=1),
    Message('note_on', channel=0, note=46, velocity=0, time=59),
    Message('note_on', channel=0, note=53, velocity=0, time=0),
    Message('note_on', channel=0, note=46, velocity=60, time=1),
    Message('note_on', channel=0, note=46, velocity=0, time=59),
    Message('note_on', channel=0, note=46, velocity=0, time=0),
    Message('note_on', channel=0, note=48, velocity=60, time=1),
    Message('note_on', channel=0, note=48, velocity=0, time=59),
    Message('note_on', channel=0, note=48, velocity=60, time=1),
    Message('note_on', channel=0, note=60, velocity=60, time=0),
    Message('note_on', channel=0, note=55, velocity=60, time=0),
    Message('note_on', channel=0, note=48, velocity=0, time=119),
    Message('note_on', channel=0, note=60, velocity=0, time=0),
    Message('note_on', channel=0, note=55, velocity=0, time=0),
    Message('note_on', channel=0, note=45, velocity=60, time=1),
    Message('note_on', channel=0, note=45, velocity=0, time=119),
    Message('note_on', channel=0, note=45, velocity=60, time=1),
    Message('note_on', channel=0, note=52, velocity=60, time=0),
    Message('note_on', channel=0, note=57, velocity=60, time=0),
    Message('note_on', channel=0, note=52, velocity=0, time=59),
    Message('note_on', channel=0, note=57, velocity=0, time=0),
    Message('note_on', channel=0, note=45, velocity=60, time=1),
    Message('note_on', channel=0, note=45, velocity=0, time=59),
    Message('note_on', channel=0, note=45, velocity=60, time=1),
    Message('note_on', channel=0, note=45, velocity=0, time=59),
    Message('note_on', channel=0, note=45, velocity=0, time=0),
    Message('note_on', channel=0, note=48, velocity=60, time=1),
    Message('note_on', channel=0, note=48, velocity=0, time=59),
    Message('note_on', channel=0, note=48, velocity=60, time=1),
    Message('note_on', channel=0, note=55, velocity=60, time=0),
    Message('note_on', channel=0, note=60, velocity=60, time=0),
    Message('note_on', channel=0, note=48, velocity=0, time=119),
    Message('note_on', channel=0, note=55, velocity=0, time=0),
    Message('note_on', channel=0, note=60, velocity=0, time=0),
    Message('note_on', channel=0, note=38, velocity=60, time=1),
    Message('note_on', channel=0, note=38, velocity=0, time=119),
    Message('note_on', channel=0, note=50, velocity=60, time=1),
    Message('note_on', channel=0, note=45, velocity=60, time=0),
    Message('note_on', channel=0, note=50, velocity=0, time=59),
    Message('note_on', channel=0, note=45, velocity=0, time=0),
    Message('note_on', channel=0, note=38, velocity=60, time=1),
    Message('note_on', channel=0, note=38, velocity=0, time=59),
    Message('note_on', channel=0, note=42, velocity=60, time=1),
    Message('note_on', channel=0, note=42, velocity=0, time=119),
    Message('note_on', channel=0, note=54, velocity=60, time=1),
    Message('note_on', channel=0, note=49, velocity=60, time=0),
    Message('note_on', channel=0, note=54, velocity=0, time=59),
    Message('note_on', channel=0, note=49, velocity=0, time=0),
    Message('note_on', channel=0, note=42, velocity=60, time=1),
    Message('note_on', channel=0, note=42, velocity=0, time=59),
    Message('note_on', channel=0, note=47, velocity=60, time=1),
    Message('note_on', channel=0, note=47, velocity=0, time=119),
    Message('note_on', channel=0, note=59, velocity=60, time=1),
    Message('note_on', channel=0, note=52, velocity=60, time=0),
    Message('note_on', channel=0, note=59, velocity=0, time=59),
    Message('note_on', channel=0, note=52, velocity=0, time=0),
    Message('note_on', channel=0, note=47, velocity=60, time=1),
    Message('note_on', channel=0, note=47, velocity=0, time=59),
    Message('note_on', channel=0, note=43, velocity=60, time=1),
    Message('note_on', channel=0, note=43, velocity=0, time=119),
    Message('note_on', channel=0, note=55, velocity=60, time=1),
    Message('note_on', channel=0, note=50, velocity=60, time=0),
    Message('note_on', channel=0, note=55, velocity=0, time=59),
    Message('note_on', channel=0, note=50, velocity=0, time=0),
    Message('note_on', channel=0, note=43, velocity=60, time=1),
    Message('note_on', channel=0, note=43, velocity=0, time=59),
    Message('note_on', channel=0, note=46, velocity=60, time=1),
    Message('note_on', channel=0, note=53, velocity=60, time=0),
    Message('note_on', channel=0, note=58, velocity=60, time=0),
    Message('note_on', channel=0, note=46, velocity=0, time=59),
    Message('note_on', channel=0, note=53, velocity=0, time=0),
    Message('note_on', channel=0, note=58, velocity=0, time=0),
    Message('note_on', channel=0, note=58, velocity=60, time=1),
    Message('note_on', channel=0, note=53, velocity=60, time=0),
    Message('note_on', channel=0, note=46, velocity=60, time=0),
    Message('note_on', channel=0, note=58, velocity=0, time=59),
    Message('note_on', channel=0, note=53, velocity=0, time=0),
    Message('note_on', channel=0, note=46, velocity=0, time=0),
    Message('note_on', channel=0, note=46, velocity=60, time=1),
    Message('note_on', channel=0, note=53, velocity=60, time=0),
    Message('note_on', channel=0, note=58, velocity=60, time=0),
    Message('note_on', channel=0, note=46, velocity=0, time=59),
    Message('note_on', channel=0, note=53, velocity=0, time=0),
    Message('note_on', channel=0, note=58, velocity=0, time=0),
    Message('note_on', channel=0, note=58, velocity=60, time=1),
    Message('note_on', channel=0, note=53, velocity=60, time=0),
    Message('note_on', channel=0, note=46, velocity=60, time=0),
    Message('note_on', channel=0, note=58, velocity=0, time=29),
    Message('note_on', channel=0, note=53, velocity=0, time=0),
    Message('note_on', channel=0, note=46, velocity=0, time=0),
    Message('note_on', channel=0, note=46, velocity=60, time=1),
    Message('note_on', channel=0, note=53, velocity=60, time=0),
    Message('note_on', channel=0, note=58, velocity=60, time=0),
    Message('note_on', channel=0, note=46, velocity=0, time=29),
    Message('note_on', channel=0, note=53, velocity=0, time=0),
    Message('note_on', channel=0, note=58, velocity=0, time=0),
    Message('note_on', channel=0, note=58, velocity=60, time=1),
    Message('note_on', channel=0, note=53, velocity=60, time=0),
    Message('note_on', channel=0, note=46, velocity=60, time=0),
    Message('note_on', channel=0, note=58, velocity=0, time=59),
    Message('note_on', channel=0, note=53, velocity=0, time=0),
    Message('note_on', channel=0, note=46, velocity=0, time=0),
    Message('note_on', channel=0, note=60, velocity=60, time=1),
    Message('note_on', channel=0, note=55, velocity=60, time=0),
    Message('note_on', channel=0, note=48, velocity=60, time=0),
    Message('note_on', channel=0, note=60, velocity=0, time=59),
    Message('note_on', channel=0, note=55, velocity=0, time=0),
    Message('note_on', channel=0, note=48, velocity=0, time=0),
    Message('note_on', channel=0, note=48, velocity=60, time=1),
    Message('note_on', channel=0, note=60, velocity=60, time=0),
    Message('note_on', channel=0, note=55, velocity=60, time=0),
    Message('note_on', channel=0, note=48, velocity=0, time=119),
    Message('note_on', channel=0, note=60, velocity=0, time=0),
    Message('note_on', channel=0, note=55, velocity=0, time=0),
    Message('note_on', channel=0, note=38, velocity=60, time=6241),
    Message('note_on', channel=0, note=38, velocity=0, time=119),
    Message('note_on', channel=0, note=50, velocity=60, time=1),
    Message('note_on', channel=0, note=45, velocity=60, time=0),
    Message('note_on', channel=0, note=50, velocity=0, time=59),
    Message('note_on', channel=0, note=45, velocity=0, time=0),
    Message('note_on', channel=0, note=38, velocity=60, time=1),
    Message('note_on', channel=0, note=38, velocity=0, time=59),
    Message('note_on', channel=0, note=42, velocity=60, time=1),
    Message('note_on', channel=0, note=42, velocity=0, time=119),
    Message('note_on', channel=0, note=54, velocity=60, time=1),
    Message('note_on', channel=0, note=49, velocity=60, time=0),
    Message('note_on', channel=0, note=54, velocity=0, time=59),
    Message('note_on', channel=0, note=49, velocity=0, time=0),
    Message('note_on', channel=0, note=42, velocity=60, time=1),
    Message('note_on', channel=0, note=42, velocity=0, time=59),
    Message('note_on', channel=0, note=47, velocity=60, time=1),
    Message('note_on', channel=0, note=47, velocity=0, time=119),
    Message('note_on', channel=0, note=59, velocity=60, time=1),
    Message('note_on', channel=0, note=52, velocity=60, time=0),
    Message('note_on', channel=0, note=59, velocity=0, time=59),
    Message('note_on', channel=0, note=52, velocity=0, time=0),
    Message('note_on', channel=0, note=47, velocity=60, time=1),
    Message('note_on', channel=0, note=47, velocity=0, time=59),
    Message('note_on', channel=0, note=43, velocity=60, time=1),
    Message('note_on', channel=0, note=43, velocity=0, time=119),
    Message('note_on', channel=0, note=55, velocity=60, time=1),
    Message('note_on', channel=0, note=50, velocity=60, time=0),
    Message('note_on', channel=0, note=55, velocity=0, time=59),
    Message('note_on', channel=0, note=50, velocity=0, time=0),
    Message('note_on', channel=0, note=43, velocity=60, time=1),
    Message('note_on', channel=0, note=43, velocity=0, time=59),
    Message('note_on', channel=0, note=46, velocity=60, time=1),
    Message('note_on', channel=0, note=46, velocity=0, time=119),
    Message('note_on', channel=0, note=46, velocity=60, time=1),
    Message('note_on', channel=0, note=58, velocity=60, time=0),
    Message('note_on', channel=0, note=53, velocity=60, time=0),
    Message('note_on', channel=0, note=58, velocity=0, time=59),
    Message('note_on', channel=0, note=46, velocity=60, time=1),
    Message('note_on', channel=0, note=46, velocity=0, time=59),
    Message('note_on', channel=0, note=53, velocity=0, time=0),
    Message('note_on', channel=0, note=46, velocity=60, time=1),
    Message('note_on', channel=0, note=46, velocity=0, time=59),
    Message('note_on', channel=0, note=46, velocity=0, time=0),
    Message('note_on', channel=0, note=48, velocity=60, time=1),
    Message('note_on', channel=0, note=48, velocity=0, time=59),
    Message('note_on', channel=0, note=48, velocity=60, time=1),
    Message('note_on', channel=0, note=60, velocity=60, time=0),
    Message('note_on', channel=0, note=55, velocity=60, time=0),
    Message('note_on', channel=0, note=48, velocity=0, time=119),
    Message('note_on', channel=0, note=60, velocity=0, time=0),
    Message('note_on', channel=0, note=55, velocity=0, time=0),
    Message('note_on', channel=0, note=45, velocity=60, time=1),
    Message('note_on', channel=0, note=45, velocity=0, time=119),
    Message('note_on', channel=0, note=45, velocity=60, time=1),
    Message('note_on', channel=0, note=52, velocity=60, time=0),
    Message('note_on', channel=0, note=57, velocity=60, time=0),
    Message('note_on', channel=0, note=52, velocity=0, time=59),
    Message('note_on', channel=0, note=57, velocity=0, time=0),
    Message('note_on', channel=0, note=45, velocity=60, time=1),
    Message('note_on', channel=0, note=45, velocity=0, time=59),
    Message('note_on', channel=0, note=45, velocity=60, time=1),
    Message('note_on', channel=0, note=45, velocity=0, time=59),
    Message('note_on', channel=0, note=45, velocity=0, time=0),
    Message('note_on', channel=0, note=48, velocity=60, time=1),
    Message('note_on', channel=0, note=48, velocity=0, time=59),
    Message('note_on', channel=0, note=48, velocity=60, time=1),
    Message('note_on', channel=0, note=55, velocity=60, time=0),
    Message('note_on', channel=0, note=60, velocity=60, time=0),
    Message('note_on', channel=0, note=48, velocity=0, time=119),
    Message('note_on', channel=0, note=55, velocity=0, time=0),
    Message('note_on', channel=0, note=60, velocity=0, time=0),
    Message('note_on', channel=0, note=38, velocity=60, time=1),
    Message('note_on', channel=0, note=38, velocity=0, time=119),
    Message('note_on', channel=0, note=50, velocity=60, time=1),
    Message('note_on', channel=0, note=45, velocity=60, time=0),
    Message('note_on', channel=0, note=50, velocity=0, time=59),
    Message('note_on', channel=0, note=45, velocity=0, time=0),
    Message('note_on', channel=0, note=38, velocity=60, time=1),
    Message('note_on', channel=0, note=38, velocity=0, time=59),
    Message('note_on', channel=0, note=42, velocity=60, time=1),
    Message('note_on', channel=0, note=42, velocity=0, time=119),
    Message('note_on', channel=0, note=54, velocity=60, time=1),
    Message('note_on', channel=0, note=49, velocity=60, time=0),
    Message('note_on', channel=0, note=54, velocity=0, time=59),
    Message('note_on', channel=0, note=49, velocity=0, time=0),
    Message('note_on', channel=0, note=42, velocity=60, time=1),
    Message('note_on', channel=0, note=42, velocity=0, time=59),
    Message('note_on', channel=0, note=47, velocity=60, time=1),
    Message('note_on', channel=0, note=47, velocity=0, time=119),
    Message('note_on', channel=0, note=59, velocity=60, time=1),
    Message('note_on', channel=0, note=52, velocity=60, time=0),
    Message('note_on', channel=0, note=59, velocity=0, time=59),
    Message('note_on', channel=0, note=52, velocity=0, time=0),
    Message('note_on', channel=0, note=47, velocity=60, time=1),
    Message('note_on', channel=0, note=47, velocity=0, time=59),
    Message('note_on', channel=0, note=43, velocity=60, time=1),
    Message('note_on', channel=0, note=43, velocity=0, time=119),
    Message('note_on', channel=0, note=55, velocity=60, time=1),
    Message('note_on', channel=0, note=50, velocity=60, time=0),
    Message('note_on', channel=0, note=55, velocity=0, time=59),
    Message('note_on', channel=0, note=50, velocity=0, time=0),
    Message('note_on', channel=0, note=43, velocity=60, time=1),
    Message('note_on', channel=0, note=43, velocity=0, time=59),
    Message('note_on', channel=0, note=46, velocity=60, time=1),
    Message('note_on', channel=0, note=46, velocity=0, time=119),
    Message('note_on', channel=0, note=46, velocity=60, time=1),
    Message('note_on', channel=0, note=58, velocity=60, time=0),
    Message('note_on', channel=0, note=53, velocity=60, time=0),
    Message('note_on', channel=0, note=58, velocity=0, time=59),
    Message('note_on', channel=0, note=46, velocity=60, time=1),
    Message('note_on', channel=0, note=46, velocity=0, time=59),
    Message('note_on', channel=0, note=53, velocity=0, time=0),
    Message('note_on', channel=0, note=46, velocity=60, time=1),
    Message('note_on', channel=0, note=46, velocity=0, time=59),
    Message('note_on', channel=0, note=46, velocity=0, time=0),
    Message('note_on', channel=0, note=48, velocity=60, time=1),
    Message('note_on', channel=0, note=48, velocity=0, time=59),
    Message('note_on', channel=0, note=48, velocity=60, time=1),
    Message('note_on', channel=0, note=60, velocity=60, time=0),
    Message('note_on', channel=0, note=55, velocity=60, time=0),
    Message('note_on', channel=0, note=48, velocity=0, time=119),
    Message('note_on', channel=0, note=60, velocity=0, time=0),
    Message('note_on', channel=0, note=55, velocity=0, time=0),
    Message('note_on', channel=0, note=45, velocity=60, time=1),
    Message('note_on', channel=0, note=45, velocity=0, time=119),
    Message('note_on', channel=0, note=45, velocity=60, time=1),
    Message('note_on', channel=0, note=52, velocity=60, time=0),
    Message('note_on', channel=0, note=57, velocity=60, time=0),
    Message('note_on', channel=0, note=52, velocity=0, time=59),
    Message('note_on', channel=0, note=57, velocity=0, time=0),
    Message('note_on', channel=0, note=45, velocity=60, time=1),
    Message('note_on', channel=0, note=45, velocity=0, time=59),
    Message('note_on', channel=0, note=45, velocity=60, time=1),
    Message('note_on', channel=0, note=45, velocity=0, time=59),
    Message('note_on', channel=0, note=45, velocity=0, time=0),
    Message('note_on', channel=0, note=48, velocity=60, time=1),
    Message('note_on', channel=0, note=48, velocity=0, time=59),
    Message('note_on', channel=0, note=48, velocity=60, time=1),
    Message('note_on', channel=0, note=55, velocity=60, time=0),
    Message('note_on', channel=0, note=60, velocity=60, time=0),
    Message('note_on', channel=0, note=48, velocity=0, time=119),
    Message('note_on', channel=0, note=55, velocity=0, time=0),
    Message('note_on', channel=0, note=60, velocity=0, time=0),
    Message('note_on', channel=0, note=38, velocity=60, time=1),
    Message('note_on', channel=0, note=38, velocity=0, time=119),
    Message('note_on', channel=0, note=50, velocity=60, time=1),
    Message('note_on', channel=0, note=45, velocity=60, time=0),
    Message('note_on', channel=0, note=50, velocity=0, time=59),
    Message('note_on', channel=0, note=45, velocity=0, time=0),
    Message('note_on', channel=0, note=38, velocity=60, time=1),
    Message('note_on', channel=0, note=38, velocity=0, time=59),
    Message('note_on', channel=0, note=42, velocity=60, time=1),
    Message('note_on', channel=0, note=42, velocity=0, time=119),
    Message('note_on', channel=0, note=54, velocity=60, time=1),
    Message('note_on', channel=0, note=49, velocity=60, time=0),
    Message('note_on', channel=0, note=54, velocity=0, time=59),
    Message('note_on', channel=0, note=49, velocity=0, time=0),
    Message('note_on', channel=0, note=42, velocity=60, time=1),
    Message('note_on', channel=0, note=42, velocity=0, time=59),
    Message('note_on', channel=0, note=47, velocity=60, time=1),
    Message('note_on', channel=0, note=47, velocity=0, time=119),
    Message('note_on', channel=0, note=59, velocity=60, time=1),
    Message('note_on', channel=0, note=52, velocity=60, time=0),
    Message('note_on', channel=0, note=59, velocity=0, time=59),
    Message('note_on', channel=0, note=52, velocity=0, time=0),
    Message('note_on', channel=0, note=47, velocity=60, time=1),
    Message('note_on', channel=0, note=47, velocity=0, time=59),
    Message('note_on', channel=0, note=43, velocity=60, time=1),
    Message('note_on', channel=0, note=43, velocity=0, time=119),
    Message('note_on', channel=0, note=55, velocity=60, time=1),
    Message('note_on', channel=0, note=50, velocity=60, time=0),
    Message('note_on', channel=0, note=55, velocity=0, time=59),
    Message('note_on', channel=0, note=50, velocity=0, time=0),
    Message('note_on', channel=0, note=43, velocity=60, time=1),
    Message('note_on', channel=0, note=43, velocity=0, time=59),
    Message('note_on', channel=0, note=46, velocity=60, time=1),
    Message('note_on', channel=0, note=46, velocity=0, time=119),
    Message('note_on', channel=0, note=46, velocity=60, time=1),
    Message('note_on', channel=0, note=58, velocity=60, time=0),
    Message('note_on', channel=0, note=53, velocity=60, time=0),
    Message('note_on', channel=0, note=58, velocity=0, time=59),
    Message('note_on', channel=0, note=46, velocity=60, time=1),
    Message('note_on', channel=0, note=46, velocity=0, time=59),
    Message('note_on', channel=0, note=53, velocity=0, time=0),
    Message('note_on', channel=0, note=46, velocity=60, time=1),
    Message('note_on', channel=0, note=46, velocity=0, time=59),
    Message('note_on', channel=0, note=46, velocity=0, time=0),
    Message('note_on', channel=0, note=48, velocity=60, time=1),
    Message('note_on', channel=0, note=48, velocity=0, time=59),
    Message('note_on', channel=0, note=48, velocity=60, time=1),
    Message('note_on', channel=0, note=60, velocity=60, time=0),
    Message('note_on', channel=0, note=55, velocity=60, time=0),
    Message('note_on', channel=0, note=48, velocity=0, time=119),
    Message('note_on', channel=0, note=60, velocity=0, time=0),
    Message('note_on', channel=0, note=55, velocity=0, time=0),
    Message('note_on', channel=0, note=45, velocity=60, time=1),
    Message('note_on', channel=0, note=45, velocity=0, time=119),
    Message('note_on', channel=0, note=45, velocity=60, time=1),
    Message('note_on', channel=0, note=52, velocity=60, time=0),
    Message('note_on', channel=0, note=57, velocity=60, time=0),
    Message('note_on', channel=0, note=52, velocity=0, time=59),
    Message('note_on', channel=0, note=57, velocity=0, time=0),
    Message('note_on', channel=0, note=45, velocity=60, time=1),
    Message('note_on', channel=0, note=45, velocity=0, time=59),
    Message('note_on', channel=0, note=45, velocity=60, time=1),
    Message('note_on', channel=0, note=45, velocity=0, time=59),
    Message('note_on', channel=0, note=45, velocity=0, time=0),
    Message('note_on', channel=0, note=48, velocity=60, time=1),
    Message('note_on', channel=0, note=48, velocity=0, time=59),
    Message('note_on', channel=0, note=48, velocity=60, time=1),
    Message('note_on', channel=0, note=55, velocity=60, time=0),
    Message('note_on', channel=0, note=60, velocity=60, time=0),
    Message('note_on', channel=0, note=48, velocity=0, time=119),
    Message('note_on', channel=0, note=55, velocity=0, time=0),
    Message('note_on', channel=0, note=60, velocity=0, time=0),
    Message('note_on', channel=0, note=38, velocity=60, time=1),
    Message('note_on', channel=0, note=38, velocity=0, time=119),
    Message('note_on', channel=0, note=50, velocity=60, time=1),
    Message('note_on', channel=0, note=45, velocity=60, time=0),
    Message('note_on', channel=0, note=50, velocity=0, time=59),
    Message('note_on', channel=0, note=45, velocity=0, time=0),
    Message('note_on', channel=0, note=38, velocity=60, time=1),
    Message('note_on', channel=0, note=38, velocity=0, time=59),
    Message('note_on', channel=0, note=42, velocity=60, time=1),
    Message('note_on', channel=0, note=42, velocity=0, time=119),
    Message('note_on', channel=0, note=54, velocity=60, time=1),
    Message('note_on', channel=0, note=49, velocity=60, time=0),
    Message('note_on', channel=0, note=54, velocity=0, time=59),
    Message('note_on', channel=0, note=49, velocity=0, time=0),
    Message('note_on', channel=0, note=42, velocity=60, time=1),
    Message('note_on', channel=0, note=42, velocity=0, time=59),
    Message('note_on', channel=0, note=47, velocity=60, time=1),
    Message('note_on', channel=0, note=47, velocity=0, time=119),
    Message('note_on', channel=0, note=59, velocity=60, time=1),
    Message('note_on', channel=0, note=52, velocity=60, time=0),
    Message('note_on', channel=0, note=59, velocity=0, time=59),
    Message('note_on', channel=0, note=52, velocity=0, time=0),
    Message('note_on', channel=0, note=47, velocity=60, time=1),
    Message('note_on', channel=0, note=47, velocity=0, time=59),
    Message('note_on', channel=0, note=43, velocity=60, time=1),
    Message('note_on', channel=0, note=43, velocity=0, time=119),
    Message('note_on', channel=0, note=55, velocity=60, time=1),
    Message('note_on', channel=0, note=50, velocity=60, time=0),
    Message('note_on', channel=0, note=55, velocity=0, time=59),
    Message('note_on', channel=0, note=50, velocity=0, time=0),
    Message('note_on', channel=0, note=43, velocity=60, time=1),
    Message('note_on', channel=0, note=43, velocity=0, time=59),
    Message('note_on', channel=0, note=46, velocity=60, time=1),
    Message('note_on', channel=0, note=53, velocity=60, time=0),
    Message('note_on', channel=0, note=58, velocity=60, time=0),
    Message('note_on', channel=0, note=46, velocity=0, time=59),
    Message('note_on', channel=0, note=53, velocity=0, time=0),
    Message('note_on', channel=0, note=58, velocity=0, time=0),
    Message('note_on', channel=0, note=58, velocity=60, time=1),
    Message('note_on', channel=0, note=53, velocity=60, time=0),
    Message('note_on', channel=0, note=46, velocity=60, time=0),
    Message('note_on', channel=0, note=58, velocity=0, time=59),
    Message('note_on', channel=0, note=53, velocity=0, time=0),
    Message('note_on', channel=0, note=46, velocity=0, time=0),
    Message('note_on', channel=0, note=46, velocity=60, time=1),
    Message('note_on', channel=0, note=53, velocity=60, time=0),
    Message('note_on', channel=0, note=58, velocity=60, time=0),
    Message('note_on', channel=0, note=46, velocity=0, time=59),
    Message('note_on', channel=0, note=53, velocity=0, time=0),
    Message('note_on', channel=0, note=58, velocity=0, time=0),
    Message('note_on', channel=0, note=58, velocity=60, time=1),
    Message('note_on', channel=0, note=53, velocity=60, time=0),
    Message('note_on', channel=0, note=46, velocity=60, time=0),
    Message('note_on', channel=0, note=58, velocity=0, time=29),
    Message('note_on', channel=0, note=53, velocity=0, time=0),
    Message('note_on', channel=0, note=46, velocity=0, time=0),
    Message('note_on', channel=0, note=46, velocity=60, time=1),
    Message('note_on', channel=0, note=53, velocity=60, time=0),
    Message('note_on', channel=0, note=58, velocity=60, time=0),
    Message('note_on', channel=0, note=46, velocity=0, time=29),
    Message('note_on', channel=0, note=53, velocity=0, time=0),
    Message('note_on', channel=0, note=58, velocity=0, time=0),
    Message('note_on', channel=0, note=58, velocity=60, time=1),
    Message('note_on', channel=0, note=53, velocity=60, time=0),
    Message('note_on', channel=0, note=46, velocity=60, time=0),
    Message('note_on', channel=0, note=58, velocity=0, time=59),
    Message('note_on', channel=0, note=53, velocity=0, time=0),
    Message('note_on', channel=0, note=46, velocity=0, time=0),
    Message('note_on', channel=0, note=60, velocity=60, time=1),
    Message('note_on', channel=0, note=55, velocity=60, time=0),
    Message('note_on', channel=0, note=48, velocity=60, time=0),
    Message('note_on', channel=0, note=60, velocity=0, time=59),
    Message('note_on', channel=0, note=55, velocity=0, time=0),
    Message('note_on', channel=0, note=48, velocity=0, time=0),
    Message('note_on', channel=0, note=48, velocity=60, time=1),
    Message('note_on', channel=0, note=60, velocity=60, time=0),
    Message('note_on', channel=0, note=55, velocity=60, time=0),
    Message('note_on', channel=0, note=48, velocity=0, time=119),
    Message('note_on', channel=0, note=60, velocity=0, time=0),
    Message('note_on', channel=0, note=55, velocity=0, time=0),
    Message('note_on', channel=0, note=38, velocity=60, time=11041),
    Message('note_on', channel=0, note=38, velocity=0, time=119),
    Message('note_on', channel=0, note=38, velocity=60, time=61),
    Message('note_on', channel=0, note=38, velocity=0, time=59),
    Message('note_on', channel=0, note=37, velocity=60, time=1),
    Message('note_on', channel=0, note=37, velocity=0, time=119),
    Message('note_on', channel=0, note=37, velocity=60, time=61),
    Message('note_on', channel=0, note=37, velocity=0, time=59),
    Message('note_on', channel=0, note=35, velocity=60, time=1),
    Message('note_on', channel=0, note=35, velocity=0, time=119),
    Message('note_on', channel=0, note=35, velocity=60, time=61),
    Message('note_on', channel=0, note=35, velocity=0, time=59),
    Message('note_on', channel=0, note=31, velocity=60, time=1),
    Message('note_on', channel=0, note=31, velocity=0, time=59),
    Message('note_on', channel=0, note=29, velocity=60, time=1),
    Message('note_on', channel=0, note=29, velocity=0, time=59),
    Message('note_on', channel=0, note=31, velocity=60, time=1),
    Message('note_on', channel=0, note=31, velocity=0, time=59),
    Message('note_on', channel=0, note=29, velocity=60, time=1),
    Message('note_on', channel=0, note=29, velocity=0, time=59),
    Message('note_on', channel=0, note=41, velocity=60, time=1),
    Message('note_on', channel=0, note=41, velocity=0, time=119),
    Message('note_on', channel=0, note=41, velocity=60, time=61),
    Message('note_on', channel=0, note=41, velocity=0, time=59),
    Message('note_on', channel=0, note=43, velocity=60, time=1),
    Message('note_on', channel=0, note=43, velocity=0, time=119),
    Message('note_on', channel=0, note=43, velocity=60, time=1),
    Message('note_on', channel=0, note=43, velocity=0, time=119),
    Message('note_on', channel=0, note=33, velocity=60, time=1),
    Message('note_on', channel=0, note=33, velocity=0, time=119),
    Message('note_on', channel=0, note=33, velocity=60, time=61),
    Message('note_on', channel=0, note=33, velocity=0, time=59),
    Message('note_on', channel=0, note=36, velocity=60, time=1),
    Message('note_on', channel=0, note=36, velocity=0, time=119),
    Message('note_on', channel=0, note=36, velocity=60, time=1),
    Message('note_on', channel=0, note=36, velocity=0, time=119),
    Message('note_on', channel=0, note=38, velocity=60, time=1),
    Message('note_on', channel=0, note=38, velocity=0, time=119),
    Message('note_on', channel=0, note=38, velocity=60, time=61),
    Message('note_on', channel=0, note=38, velocity=0, time=59),
    Message('note_on', channel=0, note=37, velocity=60, time=1),
    Message('note_on', channel=0, note=37, velocity=0, time=119),
    Message('note_on', channel=0, note=37, velocity=60, time=61),
    Message('note_on', channel=0, note=37, velocity=0, time=59),
    Message('note_on', channel=0, note=35, velocity=60, time=1),
    Message('note_on', channel=0, note=35, velocity=0, time=119),
    Message('note_on', channel=0, note=35, velocity=60, time=61),
    Message('note_on', channel=0, note=35, velocity=0, time=59),
    Message('note_on', channel=0, note=31, velocity=60, time=1),
    Message('note_on', channel=0, note=31, velocity=0, time=59),
    Message('note_on', channel=0, note=29, velocity=60, time=1),
    Message('note_on', channel=0, note=29, velocity=0, time=59),
    Message('note_on', channel=0, note=31, velocity=60, time=1),
    Message('note_on', channel=0, note=31, velocity=0, time=59),
    Message('note_on', channel=0, note=29, velocity=60, time=1),
    Message('note_on', channel=0, note=29, velocity=0, time=59),
    Message('note_on', channel=0, note=41, velocity=60, time=1),
    Message('note_on', channel=0, note=41, velocity=0, time=119),
    Message('note_on', channel=0, note=58, velocity=60, time=1),
    Message('note_on', channel=0, note=41, velocity=60, time=60),
    Message('note_on', channel=0, note=58, velocity=0, time=59),
    Message('note_on', channel=0, note=41, velocity=0, time=0),
    Message('note_on', channel=0, note=43, velocity=60, time=1),
    Message('note_on', channel=0, note=43, velocity=0, time=119),
    Message('note_on', channel=0, note=43, velocity=60, time=1),
    Message('note_on', channel=0, note=60, velocity=60, time=0),
    Message('note_on', channel=0, note=43, velocity=0, time=119),
    Message('note_on', channel=0, note=60, velocity=0, time=0),
    Message('note_on', channel=0, note=33, velocity=60, time=1),
    Message('note_on', channel=0, note=33, velocity=0, time=59),
    Message('note_on', channel=0, note=33, velocity=60, time=1),
    Message('note_on', channel=0, note=33, velocity=0, time=59),
    Message('note_on', channel=0, note=33, velocity=60, time=1),
    Message('note_on', channel=0, note=33, velocity=0, time=59),
    Message('note_on', channel=0, note=33, velocity=60, time=1),
    Message('note_on', channel=0, note=33, velocity=0, time=59),
    Message('note_on', channel=0, note=36, velocity=60, time=1),
    Message('note_on', channel=0, note=36, velocity=0, time=59),
    Message('note_on', channel=0, note=36, velocity=60, time=1),
    Message('note_on', channel=0, note=36, velocity=0, time=59),
    Message('note_on', channel=0, note=36, velocity=60, time=1),
    Message('note_on', channel=0, note=36, velocity=0, time=59),
    Message('note_on', channel=0, note=36, velocity=60, time=1),
    Message('note_on', channel=0, note=36, velocity=0, time=59),
    Message('note_on', channel=0, note=38, velocity=60, time=1),
    Message('note_on', channel=0, note=38, velocity=0, time=119),
    Message('note_on', channel=0, note=38, velocity=60, time=61),
    Message('note_on', channel=0, note=38, velocity=0, time=59),
    Message('note_on', channel=0, note=37, velocity=60, time=1),
    Message('note_on', channel=0, note=37, velocity=0, time=119),
    Message('note_on', channel=0, note=37, velocity=60, time=61),
    Message('note_on', channel=0, note=37, velocity=0, time=59),
    Message('note_on', channel=0, note=35, velocity=60, time=1),
    Message('note_on', channel=0, note=35, velocity=0, time=119),
    Message('note_on', channel=0, note=35, velocity=60, time=61),
    Message('note_on', channel=0, note=35, velocity=0, time=59),
    Message('note_on', channel=0, note=31, velocity=60, time=1),
    Message('note_on', channel=0, note=31, velocity=0, time=59),
    Message('note_on', channel=0, note=29, velocity=60, time=1),
    Message('note_on', channel=0, note=29, velocity=0, time=59),
    Message('note_on', channel=0, note=31, velocity=60, time=1),
    Message('note_on', channel=0, note=31, velocity=0, time=59),
    Message('note_on', channel=0, note=29, velocity=60, time=1),
    Message('note_on', channel=0, note=29, velocity=0, time=59),
    Message('note_on', channel=0, note=41, velocity=60, time=1),
    Message('note_on', channel=0, note=41, velocity=0, time=119),
    Message('note_on', channel=0, note=41, velocity=60, time=61),
    Message('note_on', channel=0, note=41, velocity=0, time=59),
    Message('note_on', channel=0, note=43, velocity=60, time=1),
    Message('note_on', channel=0, note=43, velocity=0, time=119),
    Message('note_on', channel=0, note=43, velocity=60, time=1),
    Message('note_on', channel=0, note=43, velocity=0, time=119),
    Message('note_on', channel=0, note=33, velocity=60, time=1),
    Message('note_on', channel=0, note=33, velocity=0, time=119),
    Message('note_on', channel=0, note=33, velocity=60, time=61),
    Message('note_on', channel=0, note=33, velocity=0, time=59),
    Message('note_on', channel=0, note=36, velocity=60, time=1),
    Message('note_on', channel=0, note=36, velocity=0, time=119),
    Message('note_on', channel=0, note=36, velocity=60, time=1),
    Message('note_on', channel=0, note=36, velocity=0, time=119),
    Message('note_on', channel=0, note=38, velocity=60, time=1),
    Message('note_on', channel=0, note=38, velocity=0, time=119),
    Message('note_on', channel=0, note=38, velocity=60, time=61),
    Message('note_on', channel=0, note=38, velocity=0, time=59),
    Message('note_on', channel=0, note=37, velocity=60, time=1),
    Message('note_on', channel=0, note=37, velocity=0, time=119),
    Message('note_on', channel=0, note=37, velocity=60, time=61),
    Message('note_on', channel=0, note=37, velocity=0, time=59),
    Message('note_on', channel=0, note=35, velocity=60, time=1),
    Message('note_on', channel=0, note=35, velocity=0, time=119),
    Message('note_on', channel=0, note=35, velocity=60, time=61),
    Message('note_on', channel=0, note=35, velocity=0, time=59),
    Message('note_on', channel=0, note=31, velocity=60, time=1),
    Message('note_on', channel=0, note=31, velocity=0, time=59),
    Message('note_on', channel=0, note=29, velocity=60, time=1),
    Message('note_on', channel=0, note=29, velocity=0, time=59),
    Message('note_on', channel=0, note=31, velocity=60, time=1),
    Message('note_on', channel=0, note=31, velocity=0, time=59),
    Message('note_on', channel=0, note=29, velocity=60, time=1),
    Message('note_on', channel=0, note=29, velocity=0, time=59),
    Message('note_on', channel=0, note=41, velocity=60, time=1),
    Message('note_on', channel=0, note=41, velocity=0, time=119),
    Message('note_on', channel=0, note=41, velocity=60, time=61),
    Message('note_on', channel=0, note=41, velocity=0, time=59),
    Message('note_on', channel=0, note=43, velocity=60, time=1),
    Message('note_on', channel=0, note=43, velocity=0, time=119),
    Message('note_on', channel=0, note=43, velocity=60, time=1),
    Message('note_on', channel=0, note=43, velocity=0, time=119),
    Message('note_on', channel=0, note=33, velocity=60, time=1),
    Message('note_on', channel=0, note=33, velocity=0, time=119),
    Message('note_on', channel=0, note=33, velocity=60, time=61),
    Message('note_on', channel=0, note=33, velocity=0, time=59),
    Message('note_on', channel=0, note=36, velocity=60, time=1),
    Message('note_on', channel=0, note=36, velocity=0, time=119),
    Message('note_on', channel=0, note=36, velocity=60, time=1),
    Message('note_on', channel=0, note=36, velocity=0, time=119),
    Message('note_on', channel=0, note=38, velocity=60, time=1),
    Message('note_on', channel=0, note=38, velocity=0, time=119),
    Message('note_on', channel=0, note=38, velocity=60, time=61),
    Message('note_on', channel=0, note=38, velocity=0, time=59),
    Message('note_on', channel=0, note=37, velocity=60, time=1),
    Message('note_on', channel=0, note=37, velocity=0, time=119),
    Message('note_on', channel=0, note=37, velocity=60, time=61),
    Message('note_on', channel=0, note=37, velocity=0, time=59),
    Message('note_on', channel=0, note=35, velocity=60, time=1),
    Message('note_on', channel=0, note=35, velocity=0, time=119),
    Message('note_on', channel=0, note=35, velocity=60, time=61),
    Message('note_on', channel=0, note=35, velocity=0, time=59),
    Message('note_on', channel=0, note=31, velocity=60, time=1),
    Message('note_on', channel=0, note=31, velocity=0, time=59),
    Message('note_on', channel=0, note=29, velocity=60, time=1),
    Message('note_on', channel=0, note=29, velocity=0, time=59),
    Message('note_on', channel=0, note=31, velocity=60, time=1),
    Message('note_on', channel=0, note=31, velocity=0, time=59),
    Message('note_on', channel=0, note=29, velocity=60, time=1),
    Message('note_on', channel=0, note=29, velocity=0, time=59),
    Message('note_on', channel=0, note=41, velocity=60, time=1),
    Message('note_on', channel=0, note=41, velocity=0, time=119),
    Message('note_on', channel=0, note=41, velocity=60, time=61),
    Message('note_on', channel=0, note=41, velocity=0, time=59),
    Message('note_on', channel=0, note=43, velocity=60, time=1),
    Message('note_on', channel=0, note=43, velocity=0, time=119),
    Message('note_on', channel=0, note=43, velocity=60, time=1),
    Message('note_on', channel=0, note=43, velocity=0, time=119),
    MetaMessage('end_of_track', time=0)]),
  MidiTrack([
    MetaMessage('track_name', name='WinJammer Demo', time=0),
    MetaMessage('instrument_name', name='Sequenced by:', time=0),
    MetaMessage('midi_port', port=0, time=0),
    Message('program_change', channel=1, program=71, time=0),
    Message('control_change', channel=1, control=7, value=120, time=0),
    Message('note_on', channel=1, note=54, velocity=60, time=2160),
    Message('note_on', channel=1, note=54, velocity=0, time=119),
    Message('note_on', channel=1, note=54, velocity=60, time=1),
    Message('note_on', channel=1, note=54, velocity=0, time=119),
    Message('note_on', channel=1, note=52, velocity=60, time=1),
    Message('note_on', channel=1, note=52, velocity=0, time=59),
    Message('note_on', channel=1, note=54, velocity=60, time=1),
    Message('note_on', channel=1, note=54, velocity=0, time=119),
    Message('note_on', channel=1, note=59, velocity=60, time=61),
    Message('note_on', channel=1, note=59, velocity=0, time=59),
    Message('note_on', channel=1, note=61, velocity=60, time=1),
    Message('note_on', channel=1, note=61, velocity=0, time=119),
    Message('note_on', channel=1, note=62, velocity=60, time=1),
    Message('note_on', channel=1, note=62, velocity=0, time=119),
    Message('note_on', channel=1, note=58, velocity=60, time=61),
    Message('note_on', channel=1, note=58, velocity=0, time=59),
    Message('note_on', channel=1, note=58, velocity=60, time=1),
    Message('note_on', channel=1, note=58, velocity=0, time=119),
    Message('note_on', channel=1, note=60, velocity=60, time=1),
    Message('note_on', channel=1, note=60, velocity=0, time=119),
    Message('note_on', channel=1, note=57, velocity=60, time=1),
    Message('note_on', channel=1, note=57, velocity=0, time=119),
    Message('note_on', channel=1, note=55, velocity=60, time=121),
    Message('note_on', channel=1, note=55, velocity=0, time=119),
    Message('note_on', channel=1, note=57, velocity=60, time=1),
    Message('note_on', channel=1, note=57, velocity=0, time=119),
    Message('note_on', channel=1, note=54, velocity=60, time=1),
    Message('note_on', channel=1, note=54, velocity=0, time=119),
    Message('note_on', channel=1, note=54, velocity=60, time=181),
    Message('note_on', channel=1, note=54, velocity=0, time=119),
    Message('note_on', channel=1, note=54, velocity=60, time=1),
    Message('note_on', channel=1, note=54, velocity=0, time=119),
    Message('note_on', channel=1, note=52, velocity=60, time=1),
    Message('note_on', channel=1, note=52, velocity=0, time=59),
    Message('note_on', channel=1, note=54, velocity=60, time=1),
    Message('note_on', channel=1, note=54, velocity=0, time=119),
    Message('note_on', channel=1, note=59, velocity=60, time=61),
    Message('note_on', channel=1, note=59, velocity=0, time=59),
    Message('note_on', channel=1, note=61, velocity=60, time=1),
    Message('note_on', channel=1, note=61, velocity=0, time=119),
    Message('note_on', channel=1, note=62, velocity=60, time=1),
    Message('note_on', channel=1, note=62, velocity=0, time=119),
    Message('note_on', channel=1, note=58, velocity=60, time=61),
    Message('note_on', channel=1, note=58, velocity=0, time=59),
    Message('note_on', channel=1, note=58, velocity=60, time=1),
    Message('note_on', channel=1, note=58, velocity=0, time=119),
    Message('note_on', channel=1, note=60, velocity=60, time=1),
    Message('note_on', channel=1, note=60, velocity=0, time=119),
    Message('note_on', channel=1, note=57, velocity=60, time=1),
    Message('note_on', channel=1, note=57, velocity=0, time=119),
    Message('note_on', channel=1, note=55, velocity=60, time=181),
    Message('note_on', channel=1, note=55, velocity=0, time=59),
    Message('note_on', channel=1, note=57, velocity=60, time=1),
    Message('note_on', channel=1, note=57, velocity=0, time=119),
    Message('note_on', channel=1, note=54, velocity=60, time=1),
    Message('note_on', channel=1, note=54, velocity=0, time=119),
    Message('note_on', channel=1, note=54, velocity=60, time=181),
    Message('note_on', channel=1, note=54, velocity=0, time=119),
    Message('note_on', channel=1, note=54, velocity=60, time=1),
    Message('note_on', channel=1, note=54, velocity=0, time=119),
    Message('note_on', channel=1, note=52, velocity=60, time=1),
    Message('note_on', channel=1, note=52, velocity=0, time=59),
    Message('note_on', channel=1, note=54, velocity=60, time=1),
    Message('note_on', channel=1, note=54, velocity=0, time=119),
    Message('note_on', channel=1, note=59, velocity=60, time=61),
    Message('note_on', channel=1, note=59, velocity=0, time=59),
    Message('note_on', channel=1, note=61, velocity=60, time=1),
    Message('note_on', channel=1, note=61, velocity=0, time=119),
    Message('note_on', channel=1, note=62, velocity=60, time=1),
    Message('note_on', channel=1, note=62, velocity=0, time=119),
    Message('note_on', channel=1, note=58, velocity=60, time=61),
    Message('note_on', channel=1, note=58, velocity=0, time=59),
    Message('note_on', channel=1, note=58, velocity=60, time=1),
    Message('note_on', channel=1, note=58, velocity=0, time=119),
    Message('note_on', channel=1, note=60, velocity=60, time=1),
    Message('note_on', channel=1, note=60, velocity=0, time=119),
    Message('note_on', channel=1, note=57, velocity=60, time=1),
    Message('note_on', channel=1, note=57, velocity=0, time=119),
    Message('note_on', channel=1, note=55, velocity=60, time=181),
    Message('note_on', channel=1, note=55, velocity=0, time=59),
    Message('note_on', channel=1, note=57, velocity=60, time=1),
    Message('note_on', channel=1, note=57, velocity=0, time=119),
    Message('note_on', channel=1, note=54, velocity=60, time=1),
    Message('note_on', channel=1, note=54, velocity=0, time=59),
    Message('note_on', channel=1, note=54, velocity=60, time=241),
    Message('note_on', channel=1, note=54, velocity=0, time=119),
    Message('note_on', channel=1, note=54, velocity=60, time=1),
    Message('note_on', channel=1, note=54, velocity=0, time=119),
    Message('note_on', channel=1, note=52, velocity=60, time=1),
    Message('note_on', channel=1, note=52, velocity=0, time=59),
    Message('note_on', channel=1, note=54, velocity=60, time=1),
    Message('note_on', channel=1, note=54, velocity=0, time=119),
    Message('note_on', channel=1, note=59, velocity=60, time=61),
    Message('note_on', channel=1, note=59, velocity=0, time=59),
    Message('note_on', channel=1, note=61, velocity=60, time=1),
    Message('note_on', channel=1, note=61, velocity=0, time=119),
    Message('note_on', channel=1, note=62, velocity=60, time=1),
    Message('note_on', channel=1, note=62, velocity=0, time=119),
    Message('note_on', channel=1, note=58, velocity=60, time=61),
    Message('note_on', channel=1, note=58, velocity=0, time=59),
    Message('note_on', channel=1, note=58, velocity=60, time=1),
    Message('note_on', channel=1, note=58, velocity=0, time=119),
    Message('note_on', channel=1, note=60, velocity=60, time=1),
    Message('note_on', channel=1, note=60, velocity=0, time=119),
    Message('note_on', channel=1, note=57, velocity=60, time=1),
    Message('note_on', channel=1, note=65, velocity=60, time=180),
    Message('note_on', channel=1, note=57, velocity=0, time=59),
    Message('note_on', channel=1, note=65, velocity=0, time=0),
    Message('note_on', channel=1, note=64, velocity=60, time=1),
    Message('note_on', channel=1, note=64, velocity=0, time=119),
    Message('note_on', channel=1, note=62, velocity=60, time=1),
    Message('note_on', channel=1, note=62, velocity=0, time=59),
    Message('note_on', channel=1, note=60, velocity=60, time=1),
    Message('note_on', channel=1, note=60, velocity=0, time=59),
    Message('note_on', channel=1, note=62, velocity=60, time=1),
    Message('note_on', channel=1, note=62, velocity=0, time=239),
    Message('note_on', channel=1, note=65, velocity=60, time=421),
    Message('note_on', channel=1, note=65, velocity=0, time=59),
    Message('note_on', channel=1, note=64, velocity=60, time=1),
    Message('note_on', channel=1, note=64, velocity=0, time=119),
    Message('note_on', channel=1, note=62, velocity=60, time=1),
    Message('note_on', channel=1, note=62, velocity=0, time=59),
    Message('note_on', channel=1, note=60, velocity=60, time=1),
    Message('note_on', channel=1, note=60, velocity=0, time=59),
    Message('note_on', channel=1, note=65, velocity=60, time=1),
    Message('note_on', channel=1, note=65, velocity=0, time=479),
    Message('note_on', channel=1, note=64, velocity=60, time=1),
    Message('note_on', channel=1, note=64, velocity=0, time=119),
    Message('note_on', channel=1, note=65, velocity=60, time=61),
    Message('note_on', channel=1, note=65, velocity=0, time=59),
    Message('note_on', channel=1, note=64, velocity=60, time=1),
    Message('note_on', channel=1, note=64, velocity=0, time=119),
    Message('note_on', channel=1, note=62, velocity=60, time=1),
    Message('note_on', channel=1, note=62, velocity=0, time=59),
    Message('note_on', channel=1, note=60, velocity=60, time=1),
    Message('note_on', channel=1, note=60, velocity=0, time=59),
    Message('note_on', channel=1, note=62, velocity=60, time=1),
    Message('note_on', channel=1, note=62, velocity=0, time=239),
    Message('note_on', channel=1, note=65, velocity=60, time=421),
    Message('note_on', channel=1, note=65, velocity=0, time=59),
    Message('note_on', channel=1, note=64, velocity=60, time=1),
    Message('note_on', channel=1, note=64, velocity=0, time=119),
    Message('note_on', channel=1, note=62, velocity=60, time=1),
    Message('note_on', channel=1, note=62, velocity=0, time=59),
    Message('note_on', channel=1, note=60, velocity=60, time=1),
    Message('note_on', channel=1, note=60, velocity=0, time=59),
    Message('note_on', channel=1, note=65, velocity=60, time=1),
    Message('note_on', channel=1, note=65, velocity=0, time=479),
    Message('note_on', channel=1, note=64, velocity=60, time=1),
    Message('note_on', channel=1, note=64, velocity=0, time=119),
    Message('note_on', channel=1, note=65, velocity=60, time=61),
    Message('note_on', channel=1, note=65, velocity=0, time=59),
    Message('note_on', channel=1, note=64, velocity=60, time=1),
    Message('note_on', channel=1, note=64, velocity=0, time=119),
    Message('note_on', channel=1, note=62, velocity=60, time=1),
    Message('note_on', channel=1, note=62, velocity=0, time=59),
    Message('note_on', channel=1, note=60, velocity=60, time=1),
    Message('note_on', channel=1, note=60, velocity=0, time=59),
    Message('note_on', channel=1, note=62, velocity=60, time=1),
    Message('note_on', channel=1, note=62, velocity=0, time=239),
    Message('note_on', channel=1, note=61, velocity=60, time=61),
    Message('note_on', channel=1, note=61, velocity=0, time=179),
    Message('note_on', channel=1, note=59, velocity=60, time=1),
    Message('note_on', channel=1, note=59, velocity=0, time=179),
    Message('note_on', channel=1, note=65, velocity=60, time=1),
    Message('note_on', channel=1, note=65, velocity=0, time=59),
    Message('note_on', channel=1, note=64, velocity=60, time=1),
    Message('note_on', channel=1, note=64, velocity=0, time=119),
    Message('note_on', channel=1, note=62, velocity=60, time=1),
    Message('note_on', channel=1, note=62, velocity=0, time=59),
    Message('note_on', channel=1, note=60, velocity=60, time=1),
    Message('note_on', channel=1, note=60, velocity=0, time=59),
    Message('note_on', channel=1, note=65, velocity=60, time=1),
    Message('note_on', channel=1, note=65, velocity=0, time=479),
    Message('note_on', channel=1, note=64, velocity=60, time=1),
    Message('note_on', channel=1, note=64, velocity=0, time=119),
    Message('note_on', channel=1, note=65, velocity=60, time=121),
    Message('note_on', channel=1, note=65, velocity=0, time=119),
    Message('note_on', channel=1, note=54, velocity=60, time=421),
    Message('note_on', channel=1, note=54, velocity=0, time=119),
    Message('note_on', channel=1, note=54, velocity=60, time=1),
    Message('note_on', channel=1, note=54, velocity=0, time=119),
    Message('note_on', channel=1, note=52, velocity=60, time=1),
    Message('note_on', channel=1, note=52, velocity=0, time=59),
    Message('note_on', channel=1, note=54, velocity=60, time=1),
    Message('note_on', channel=1, note=54, velocity=0, time=119),
    Message('note_on', channel=1, note=59, velocity=60, time=61),
    Message('note_on', channel=1, note=59, velocity=0, time=59),
    Message('note_on', channel=1, note=61, velocity=60, time=1),
    Message('note_on', channel=1, note=61, velocity=0, time=119),
    Message('note_on', channel=1, note=62, velocity=60, time=1),
    Message('note_on', channel=1, note=62, velocity=0, time=119),
    Message('note_on', channel=1, note=58, velocity=60, time=61),
    Message('note_on', channel=1, note=58, velocity=0, time=59),
    Message('note_on', channel=1, note=58, velocity=60, time=1),
    Message('note_on', channel=1, note=58, velocity=0, time=119),
    Message('note_on', channel=1, note=60, velocity=60, time=1),
    Message('note_on', channel=1, note=60, velocity=0, time=119),
    Message('note_on', channel=1, note=57, velocity=60, time=1),
    Message('note_on', channel=1, note=57, velocity=0, time=119),
    Message('note_on', channel=1, note=55, velocity=60, time=121),
    Message('note_on', channel=1, note=55, velocity=0, time=119),
    Message('note_on', channel=1, note=57, velocity=60, time=1),
    Message('note_on', channel=1, note=57, velocity=0, time=119),
    Message('note_on', channel=1, note=54, velocity=60, time=1),
    Message('note_on', channel=1, note=54, velocity=0, time=119),
    Message('note_on', channel=1, note=54, velocity=60, time=181),
    Message('note_on', channel=1, note=54, velocity=0, time=119),
    Message('note_on', channel=1, note=54, velocity=60, time=1),
    Message('note_on', channel=1, note=54, velocity=0, time=119),
    Message('note_on', channel=1, note=52, velocity=60, time=1),
    Message('note_on', channel=1, note=52, velocity=0, time=59),
    Message('note_on', channel=1, note=54, velocity=60, time=1),
    Message('note_on', channel=1, note=54, velocity=0, time=119),
    Message('note_on', channel=1, note=59, velocity=60, time=61),
    Message('note_on', channel=1, note=59, velocity=0, time=59),
    Message('note_on', channel=1, note=61, velocity=60, time=1),
    Message('note_on', channel=1, note=61, velocity=0, time=119),
    Message('note_on', channel=1, note=62, velocity=60, time=1),
    Message('note_on', channel=1, note=62, velocity=0, time=119),
    Message('note_on', channel=1, note=58, velocity=60, time=61),
    Message('note_on', channel=1, note=58, velocity=0, time=59),
    Message('note_on', channel=1, note=58, velocity=60, time=1),
    Message('note_on', channel=1, note=58, velocity=0, time=119),
    Message('note_on', channel=1, note=60, velocity=60, time=1),
    Message('note_on', channel=1, note=60, velocity=0, time=119),
    Message('note_on', channel=1, note=57, velocity=60, time=1),
    Message('note_on', channel=1, note=57, velocity=0, time=119),
    Message('note_on', channel=1, note=55, velocity=60, time=181),
    Message('note_on', channel=1, note=55, velocity=0, time=59),
    Message('note_on', channel=1, note=57, velocity=60, time=1),
    Message('note_on', channel=1, note=57, velocity=0, time=59),
    Message('note_on', channel=1, note=54, velocity=60, time=61),
    Message('note_on', channel=1, note=54, velocity=0, time=119),
    Message('note_on', channel=1, note=54, velocity=60, time=181),
    Message('note_on', channel=1, note=54, velocity=0, time=119),
    Message('note_on', channel=1, note=54, velocity=60, time=1),
    Message('note_on', channel=1, note=54, velocity=0, time=119),
    Message('note_on', channel=1, note=52, velocity=60, time=1),
    Message('note_on', channel=1, note=52, velocity=0, time=59),
    Message('note_on', channel=1, note=54, velocity=60, time=1),
    Message('note_on', channel=1, note=54, velocity=0, time=119),
    Message('note_on', channel=1, note=59, velocity=60, time=61),
    Message('note_on', channel=1, note=59, velocity=0, time=59),
    Message('note_on', channel=1, note=61, velocity=60, time=1),
    Message('note_on', channel=1, note=61, velocity=0, time=119),
    Message('note_on', channel=1, note=62, velocity=60, time=1),
    Message('note_on', channel=1, note=62, velocity=0, time=119),
    Message('note_on', channel=1, note=58, velocity=60, time=61),
    Message('note_on', channel=1, note=58, velocity=0, time=59),
    Message('note_on', channel=1, note=58, velocity=60, time=1),
    Message('note_on', channel=1, note=58, velocity=0, time=119),
    Message('note_on', channel=1, note=60, velocity=60, time=1),
    Message('note_on', channel=1, note=60, velocity=0, time=119),
    Message('note_on', channel=1, note=57, velocity=60, time=1),
    Message('note_on', channel=1, note=57, velocity=0, time=119),
    Message('note_on', channel=1, note=55, velocity=60, time=181),
    Message('note_on', channel=1, note=55, velocity=0, time=59),
    Message('note_on', channel=1, note=57, velocity=60, time=1),
    Message('note_on', channel=1, note=57, velocity=0, time=119),
    Message('note_on', channel=1, note=54, velocity=60, time=1),
    Message('note_on', channel=1, note=54, velocity=0, time=119),
    Message('note_on', channel=1, note=54, velocity=60, time=181),
    Message('note_on', channel=1, note=54, velocity=0, time=119),
    Message('note_on', channel=1, note=54, velocity=60, time=1),
    Message('note_on', channel=1, note=54, velocity=0, time=119),
    Message('note_on', channel=1, note=52, velocity=60, time=1),
    Message('note_on', channel=1, note=52, velocity=0, time=59),
    Message('note_on', channel=1, note=54, velocity=60, time=1),
    Message('note_on', channel=1, note=54, velocity=0, time=119),
    Message('note_on', channel=1, note=59, velocity=60, time=61),
    Message('note_on', channel=1, note=59, velocity=0, time=59),
    Message('note_on', channel=1, note=61, velocity=60, time=1),
    Message('note_on', channel=1, note=61, velocity=0, time=119),
    Message('note_on', channel=1, note=62, velocity=60, time=1),
    Message('note_on', channel=1, note=62, velocity=0, time=119),
    Message('note_on', channel=1, note=58, velocity=60, time=61),
    Message('note_on', channel=1, note=58, velocity=0, time=59),
    Message('note_on', channel=1, note=58, velocity=60, time=1),
    Message('note_on', channel=1, note=58, velocity=0, time=119),
    Message('note_on', channel=1, note=60, velocity=60, time=1),
    Message('note_on', channel=1, note=60, velocity=0, time=119),
    Message('note_on', channel=1, note=57, velocity=60, time=1),
    Message('note_on', channel=1, note=65, velocity=60, time=180),
    Message('note_on', channel=1, note=57, velocity=0, time=59),
    Message('note_on', channel=1, note=65, velocity=0, time=0),
    Message('note_on', channel=1, note=64, velocity=60, time=1),
    Message('note_on', channel=1, note=64, velocity=0, time=119),
    Message('note_on', channel=1, note=62, velocity=60, time=1),
    Message('note_on', channel=1, note=62, velocity=0, time=59),
    Message('note_on', channel=1, note=60, velocity=60, time=1),
    Message('note_on', channel=1, note=60, velocity=0, time=59),
    Message('note_on', channel=1, note=62, velocity=60, time=1),
    Message('note_on', channel=1, note=62, velocity=0, time=239),
    Message('note_on', channel=1, note=65, velocity=60, time=421),
    Message('note_on', channel=1, note=65, velocity=0, time=59),
    Message('note_on', channel=1, note=64, velocity=60, time=1),
    Message('note_on', channel=1, note=64, velocity=0, time=119),
    Message('note_on', channel=1, note=62, velocity=60, time=1),
    Message('note_on', channel=1, note=62, velocity=0, time=59),
    Message('note_on', channel=1, note=60, velocity=60, time=1),
    Message('note_on', channel=1, note=60, velocity=0, time=59),
    Message('note_on', channel=1, note=65, velocity=60, time=1),
    Message('note_on', channel=1, note=65, velocity=0, time=479),
    Message('note_on', channel=1, note=64, velocity=60, time=1),
    Message('note_on', channel=1, note=64, velocity=0, time=119),
    Message('note_on', channel=1, note=65, velocity=60, time=61),
    Message('note_on', channel=1, note=65, velocity=0, time=59),
    Message('note_on', channel=1, note=64, velocity=60, time=1),
    Message('note_on', channel=1, note=64, velocity=0, time=119),
    Message('note_on', channel=1, note=62, velocity=60, time=1),
    Message('note_on', channel=1, note=62, velocity=0, time=59),
    Message('note_on', channel=1, note=60, velocity=60, time=1),
    Message('note_on', channel=1, note=60, velocity=0, time=59),
    Message('note_on', channel=1, note=62, velocity=60, time=1),
    Message('note_on', channel=1, note=62, velocity=0, time=239),
    Message('note_on', channel=1, note=65, velocity=60, time=421),
    Message('note_on', channel=1, note=65, velocity=0, time=59),
    Message('note_on', channel=1, note=64, velocity=60, time=1),
    Message('note_on', channel=1, note=64, velocity=0, time=119),
    Message('note_on', channel=1, note=62, velocity=60, time=1),
    Message('note_on', channel=1, note=62, velocity=0, time=59),
    Message('note_on', channel=1, note=60, velocity=60, time=1),
    Message('note_on', channel=1, note=60, velocity=0, time=59),
    Message('note_on', channel=1, note=65, velocity=60, time=1),
    Message('note_on', channel=1, note=65, velocity=0, time=479),
    Message('note_on', channel=1, note=64, velocity=60, time=1),
    Message('note_on', channel=1, note=64, velocity=0, time=119),
    Message('note_on', channel=1, note=65, velocity=60, time=61),
    Message('note_on', channel=1, note=65, velocity=0, time=59),
    Message('note_on', channel=1, note=64, velocity=60, time=1),
    Message('note_on', channel=1, note=64, velocity=0, time=119),
    Message('note_on', channel=1, note=62, velocity=60, time=1),
    Message('note_on', channel=1, note=62, velocity=0, time=59),
    Message('note_on', channel=1, note=60, velocity=60, time=1),
    Message('note_on', channel=1, note=60, velocity=0, time=59),
    Message('note_on', channel=1, note=62, velocity=60, time=1),
    Message('note_on', channel=1, note=62, velocity=0, time=239),
    Message('note_on', channel=1, note=61, velocity=60, time=61),
    Message('note_on', channel=1, note=61, velocity=0, time=179),
    Message('note_on', channel=1, note=59, velocity=60, time=1),
    Message('note_on', channel=1, note=59, velocity=0, time=179),
    Message('note_on', channel=1, note=65, velocity=60, time=1),
    Message('note_on', channel=1, note=65, velocity=0, time=59),
    Message('note_on', channel=1, note=64, velocity=60, time=1),
    Message('note_on', channel=1, note=64, velocity=0, time=119),
    Message('note_on', channel=1, note=62, velocity=60, time=1),
    Message('note_on', channel=1, note=62, velocity=0, time=59),
    Message('note_on', channel=1, note=60, velocity=60, time=1),
    Message('note_on', channel=1, note=60, velocity=0, time=59),
    Message('note_on', channel=1, note=65, velocity=60, time=1),
    Message('note_on', channel=1, note=65, velocity=0, time=479),
    Message('note_on', channel=1, note=64, velocity=60, time=1),
    Message('note_on', channel=1, note=64, velocity=0, time=119),
    Message('note_on', channel=1, note=65, velocity=60, time=121),
    Message('note_on', channel=1, note=65, velocity=0, time=119),
    Message('note_on', channel=1, note=62, velocity=60, time=301),
    Message('note_on', channel=1, note=62, velocity=0, time=119),
    Message('note_on', channel=1, note=65, velocity=60, time=1),
    Message('note_on', channel=1, note=65, velocity=0, time=119),
    Message('note_on', channel=1, note=60, velocity=60, time=1),
    Message('note_on', channel=1, note=60, velocity=0, time=119),
    Message('note_on', channel=1, note=62, velocity=60, time=1),
    Message('note_on', channel=1, note=62, velocity=0, time=119),
    Message('note_on', channel=1, note=62, velocity=60, time=1),
    Message('note_on', channel=1, note=62, velocity=0, time=119),
    Message('note_on', channel=1, note=60, velocity=60, time=1),
    Message('note_on', channel=1, note=60, velocity=0, time=59),
    Message('note_on', channel=1, note=62, velocity=60, time=1),
    Message('note_on', channel=1, note=62, velocity=0, time=119),
    Message('note_on', channel=1, note=60, velocity=60, time=1),
    Message('note_on', channel=1, note=60, velocity=0, time=59),
    Message('note_on', channel=1, note=62, velocity=60, time=1),
    Message('note_on', channel=1, note=62, velocity=0, time=59),
    Message('note_on', channel=1, note=62, velocity=60, time=61),
    Message('note_on', channel=1, note=62, velocity=0, time=119),
    Message('note_on', channel=1, note=65, velocity=60, time=1),
    Message('note_on', channel=1, note=65, velocity=0, time=119),
    Message('note_on', channel=1, note=60, velocity=60, time=1),
    Message('note_on', channel=1, note=60, velocity=0, time=119),
    Message('note_on', channel=1, note=62, velocity=60, time=1),
    Message('note_on', channel=1, note=62, velocity=0, time=119),
    Message('note_on', channel=1, note=62, velocity=60, time=1),
    Message('note_on', channel=1, note=62, velocity=0, time=119),
    Message('note_on', channel=1, note=60, velocity=60, time=1),
    Message('note_on', channel=1, note=60, velocity=0, time=59),
    Message('note_on', channel=1, note=62, velocity=60, time=1),
    Message('note_on', channel=1, note=62, velocity=0, time=119),
    Message('note_on', channel=1, note=60, velocity=60, time=1),
    Message('note_on', channel=1, note=60, velocity=0, time=59),
    Message('note_on', channel=1, note=62, velocity=60, time=1),
    Message('note_on', channel=1, note=62, velocity=0, time=59),
    Message('note_on', channel=1, note=62, velocity=60, time=61),
    Message('note_on', channel=1, note=62, velocity=0, time=119),
    Message('note_on', channel=1, note=65, velocity=60, time=1),
    Message('note_on', channel=1, note=65, velocity=0, time=119),
    Message('note_on', channel=1, note=60, velocity=60, time=1),
    Message('note_on', channel=1, note=60, velocity=0, time=119),
    Message('note_on', channel=1, note=62, velocity=60, time=1),
    Message('note_on', channel=1, note=62, velocity=0, time=119),
    Message('note_on', channel=1, note=62, velocity=60, time=1),
    Message('note_on', channel=1, note=62, velocity=0, time=119),
    Message('note_on', channel=1, note=60, velocity=60, time=1),
    Message('note_on', channel=1, note=60, velocity=0, time=59),
    Message('note_on', channel=1, note=62, velocity=60, time=1),
    Message('note_on', channel=1, note=62, velocity=0, time=119),
    Message('note_on', channel=1, note=60, velocity=60, time=1),
    Message('note_on', channel=1, note=60, velocity=0, time=59),
    Message('note_on', channel=1, note=62, velocity=60, time=1),
    Message('note_on', channel=1, note=62, velocity=0, time=59),
    Message('note_on', channel=1, note=62, velocity=60, time=61),
    Message('note_on', channel=1, note=62, velocity=0, time=119),
    Message('note_on', channel=1, note=65, velocity=60, time=1),
    Message('note_on', channel=1, note=65, velocity=0, time=119),
    Message('note_on', channel=1, note=60, velocity=60, time=1),
    Message('note_on', channel=1, note=60, velocity=0, time=119),
    Message('note_on', channel=1, note=62, velocity=60, time=1),
    Message('note_on', channel=1, note=62, velocity=0, time=119),
    Message('note_on', channel=1, note=62, velocity=60, time=1),
    Message('note_on', channel=1, note=62, velocity=0, time=119),
    Message('note_on', channel=1, note=60, velocity=60, time=1),
    Message('note_on', channel=1, note=60, velocity=0, time=59),
    Message('note_on', channel=1, note=62, velocity=60, time=1),
    Message('note_on', channel=1, note=62, velocity=0, time=119),
    Message('note_on', channel=1, note=60, velocity=60, time=1),
    Message('note_on', channel=1, note=60, velocity=0, time=479),
    Message('note_on', channel=1, note=54, velocity=60, time=2701),
    Message('note_on', channel=1, note=54, velocity=0, time=119),
    Message('note_on', channel=1, note=54, velocity=60, time=1),
    Message('note_on', channel=1, note=54, velocity=0, time=119),
    Message('note_on', channel=1, note=52, velocity=60, time=1),
    Message('note_on', channel=1, note=52, velocity=0, time=59),
    Message('note_on', channel=1, note=54, velocity=60, time=1),
    Message('note_on', channel=1, note=54, velocity=0, time=119),
    Message('note_on', channel=1, note=59, velocity=60, time=61),
    Message('note_on', channel=1, note=59, velocity=0, time=59),
    Message('note_on', channel=1, note=61, velocity=60, time=1),
    Message('note_on', channel=1, note=61, velocity=0, time=119),
    Message('note_on', channel=1, note=62, velocity=60, time=1),
    Message('note_on', channel=1, note=62, velocity=0, time=119),
    Message('note_on', channel=1, note=58, velocity=60, time=61),
    Message('note_on', channel=1, note=58, velocity=0, time=59),
    Message('note_on', channel=1, note=58, velocity=60, time=1),
    Message('note_on', channel=1, note=58, velocity=0, time=119),
    Message('note_on', channel=1, note=60, velocity=60, time=1),
    Message('note_on', channel=1, note=60, velocity=0, time=119),
    Message('note_on', channel=1, note=57, velocity=60, time=1),
    Message('note_on', channel=1, note=57, velocity=0, time=119),
    Message('note_on', channel=1, note=55, velocity=60, time=121),
    Message('note_on', channel=1, note=55, velocity=0, time=119),
    Message('note_on', channel=1, note=57, velocity=60, time=1),
    Message('note_on', channel=1, note=57, velocity=0, time=119),
    Message('note_on', channel=1, note=54, velocity=60, time=1),
    Message('note_on', channel=1, note=54, velocity=0, time=119),
    Message('note_on', channel=1, note=54, velocity=60, time=181),
    Message('note_on', channel=1, note=54, velocity=0, time=119),
    Message('note_on', channel=1, note=54, velocity=60, time=1),
    Message('note_on', channel=1, note=54, velocity=0, time=119),
    Message('note_on', channel=1, note=52, velocity=60, time=1),
    Message('note_on', channel=1, note=52, velocity=0, time=59),
    Message('note_on', channel=1, note=54, velocity=60, time=1),
    Message('note_on', channel=1, note=54, velocity=0, time=119),
    Message('note_on', channel=1, note=59, velocity=60, time=61),
    Message('note_on', channel=1, note=59, velocity=0, time=59),
    Message('note_on', channel=1, note=61, velocity=60, time=1),
    Message('note_on', channel=1, note=61, velocity=0, time=119),
    Message('note_on', channel=1, note=62, velocity=60, time=1),
    Message('note_on', channel=1, note=62, velocity=0, time=119),
    Message('note_on', channel=1, note=58, velocity=60, time=61),
    Message('note_on', channel=1, note=58, velocity=0, time=59),
    Message('note_on', channel=1, note=58, velocity=60, time=1),
    Message('note_on', channel=1, note=58, velocity=0, time=119),
    Message('note_on', channel=1, note=60, velocity=60, time=1),
    Message('note_on', channel=1, note=60, velocity=0, time=119),
    Message('note_on', channel=1, note=57, velocity=60, time=1),
    Message('note_on', channel=1, note=57, velocity=0, time=119),
    Message('note_on', channel=1, note=55, velocity=60, time=181),
    Message('note_on', channel=1, note=55, velocity=0, time=59),
    Message('note_on', channel=1, note=57, velocity=60, time=1),
    Message('note_on', channel=1, note=57, velocity=0, time=119),
    Message('note_on', channel=1, note=54, velocity=60, time=1),
    Message('note_on', channel=1, note=54, velocity=0, time=119),
    Message('note_on', channel=1, note=54, velocity=60, time=181),
    Message('note_on', channel=1, note=54, velocity=0, time=119),
    Message('note_on', channel=1, note=54, velocity=60, time=1),
    Message('note_on', channel=1, note=54, velocity=0, time=119),
    Message('note_on', channel=1, note=52, velocity=60, time=1),
    Message('note_on', channel=1, note=52, velocity=0, time=59),
    Message('note_on', channel=1, note=54, velocity=60, time=1),
    Message('note_on', channel=1, note=54, velocity=0, time=119),
    Message('note_on', channel=1, note=59, velocity=60, time=61),
    Message('note_on', channel=1, note=59, velocity=0, time=59),
    Message('note_on', channel=1, note=61, velocity=60, time=1),
    Message('note_on', channel=1, note=61, velocity=0, time=119),
    Message('note_on', channel=1, note=62, velocity=60, time=1),
    Message('note_on', channel=1, note=62, velocity=0, time=119),
    Message('note_on', channel=1, note=58, velocity=60, time=61),
    Message('note_on', channel=1, note=58, velocity=0, time=59),
    Message('note_on', channel=1, note=58, velocity=60, time=1),
    Message('note_on', channel=1, note=58, velocity=0, time=119),
    Message('note_on', channel=1, note=60, velocity=60, time=1),
    Message('note_on', channel=1, note=60, velocity=0, time=119),
    Message('note_on', channel=1, note=57, velocity=60, time=1),
    Message('note_on', channel=1, note=57, velocity=0, time=119),
    Message('note_on', channel=1, note=55, velocity=60, time=181),
    Message('note_on', channel=1, note=55, velocity=0, time=59),
    Message('note_on', channel=1, note=57, velocity=60, time=1),
    Message('note_on', channel=1, note=57, velocity=0, time=119),
    Message('note_on', channel=1, note=54, velocity=60, time=1),
    Message('note_on', channel=1, note=54, velocity=0, time=59),
    Message('note_on', channel=1, note=54, velocity=60, time=241),
    Message('note_on', channel=1, note=54, velocity=0, time=119),
    Message('note_on', channel=1, note=54, velocity=60, time=1),
    Message('note_on', channel=1, note=54, velocity=0, time=119),
    Message('note_on', channel=1, note=52, velocity=60, time=1),
    Message('note_on', channel=1, note=52, velocity=0, time=59),
    Message('note_on', channel=1, note=54, velocity=60, time=1),
    Message('note_on', channel=1, note=54, velocity=0, time=119),
    Message('note_on', channel=1, note=59, velocity=60, time=61),
    Message('note_on', channel=1, note=59, velocity=0, time=59),
    Message('note_on', channel=1, note=61, velocity=60, time=1),
    Message('note_on', channel=1, note=61, velocity=0, time=119),
    Message('note_on', channel=1, note=62, velocity=60, time=1),
    Message('note_on', channel=1, note=62, velocity=0, time=119),
    Message('note_on', channel=1, note=58, velocity=60, time=61),
    Message('note_on', channel=1, note=58, velocity=0, time=59),
    Message('note_on', channel=1, note=58, velocity=60, time=1),
    Message('note_on', channel=1, note=58, velocity=0, time=119),
    Message('note_on', channel=1, note=60, velocity=60, time=1),
    Message('note_on', channel=1, note=60, velocity=0, time=119),
    Message('note_on', channel=1, note=57, velocity=60, time=1),
    Message('note_on', channel=1, note=65, velocity=60, time=180),
    Message('note_on', channel=1, note=57, velocity=0, time=59),
    Message('note_on', channel=1, note=65, velocity=0, time=0),
    Message('note_on', channel=1, note=64, velocity=60, time=1),
    Message('note_on', channel=1, note=64, velocity=0, time=119),
    Message('note_on', channel=1, note=62, velocity=60, time=1),
    Message('note_on', channel=1, note=62, velocity=0, time=59),
    Message('note_on', channel=1, note=60, velocity=60, time=1),
    Message('note_on', channel=1, note=60, velocity=0, time=59),
    Message('note_on', channel=1, note=62, velocity=60, time=1),
    Message('note_on', channel=1, note=62, velocity=0, time=239),
    Message('note_on', channel=1, note=65, velocity=60, time=421),
    Message('note_on', channel=1, note=65, velocity=0, time=59),
    Message('note_on', channel=1, note=64, velocity=60, time=1),
    Message('note_on', channel=1, note=64, velocity=0, time=119),
    Message('note_on', channel=1, note=62, velocity=60, time=1),
    Message('note_on', channel=1, note=62, velocity=0, time=59),
    Message('note_on', channel=1, note=60, velocity=60, time=1),
    Message('note_on', channel=1, note=60, velocity=0, time=59),
    Message('note_on', channel=1, note=65, velocity=60, time=1),
    Message('note_on', channel=1, note=65, velocity=0, time=479),
    Message('note_on', channel=1, note=64, velocity=60, time=1),
    Message('note_on', channel=1, note=64, velocity=0, time=119),
    Message('note_on', channel=1, note=65, velocity=60, time=61),
    Message('note_on', channel=1, note=65, velocity=0, time=59),
    Message('note_on', channel=1, note=64, velocity=60, time=1),
    Message('note_on', channel=1, note=64, velocity=0, time=119),
    Message('note_on', channel=1, note=62, velocity=60, time=1),
    Message('note_on', channel=1, note=62, velocity=0, time=59),
    Message('note_on', channel=1, note=60, velocity=60, time=1),
    Message('note_on', channel=1, note=60, velocity=0, time=59),
    Message('note_on', channel=1, note=62, velocity=60, time=1),
    Message('note_on', channel=1, note=62, velocity=0, time=239),
    Message('note_on', channel=1, note=65, velocity=60, time=421),
    Message('note_on', channel=1, note=65, velocity=0, time=59),
    Message('note_on', channel=1, note=64, velocity=60, time=1),
    Message('note_on', channel=1, note=64, velocity=0, time=119),
    Message('note_on', channel=1, note=62, velocity=60, time=1),
    Message('note_on', channel=1, note=62, velocity=0, time=59),
    Message('note_on', channel=1, note=60, velocity=60, time=1),
    Message('note_on', channel=1, note=60, velocity=0, time=59),
    Message('note_on', channel=1, note=65, velocity=60, time=1),
    Message('note_on', channel=1, note=65, velocity=0, time=479),
    Message('note_on', channel=1, note=64, velocity=60, time=1),
    Message('note_on', channel=1, note=64, velocity=0, time=119),
    Message('note_on', channel=1, note=65, velocity=60, time=61),
    Message('note_on', channel=1, note=65, velocity=0, time=59),
    Message('note_on', channel=1, note=64, velocity=60, time=1),
    Message('note_on', channel=1, note=64, velocity=0, time=119),
    Message('note_on', channel=1, note=62, velocity=60, time=1),
    Message('note_on', channel=1, note=62, velocity=0, time=59),
    Message('note_on', channel=1, note=60, velocity=60, time=1),
    Message('note_on', channel=1, note=60, velocity=0, time=59),
    Message('note_on', channel=1, note=62, velocity=60, time=1),
    Message('note_on', channel=1, note=62, velocity=0, time=239),
    Message('note_on', channel=1, note=61, velocity=60, time=61),
    Message('note_on', channel=1, note=61, velocity=0, time=179),
    Message('note_on', channel=1, note=59, velocity=60, time=1),
    Message('note_on', channel=1, note=59, velocity=0, time=179),
    Message('note_on', channel=1, note=65, velocity=60, time=1),
    Message('note_on', channel=1, note=65, velocity=0, time=59),
    Message('note_on', channel=1, note=64, velocity=60, time=1),
    Message('note_on', channel=1, note=64, velocity=0, time=119),
    Message('note_on', channel=1, note=62, velocity=60, time=1),
    Message('note_on', channel=1, note=62, velocity=0, time=59),
    Message('note_on', channel=1, note=60, velocity=60, time=1),
    Message('note_on', channel=1, note=60, velocity=0, time=59),
    Message('note_on', channel=1, note=65, velocity=60, time=1),
    Message('note_on', channel=1, note=65, velocity=0, time=479),
    Message('note_on', channel=1, note=64, velocity=60, time=1),
    Message('note_on', channel=1, note=64, velocity=0, time=119),
    Message('note_on', channel=1, note=65, velocity=60, time=121),
    Message('note_on', channel=1, note=65, velocity=0, time=119),
    Message('note_on', channel=1, note=62, velocity=60, time=301),
    Message('note_on', channel=1, note=62, velocity=0, time=119),
    Message('note_on', channel=1, note=65, velocity=60, time=1),
    Message('note_on', channel=1, note=65, velocity=0, time=119),
    Message('note_on', channel=1, note=60, velocity=60, time=1),
    Message('note_on', channel=1, note=60, velocity=0, time=119),
    Message('note_on', channel=1, note=62, velocity=60, time=1),
    Message('note_on', channel=1, note=62, velocity=0, time=119),
    Message('note_on', channel=1, note=62, velocity=60, time=1),
    Message('note_on', channel=1, note=62, velocity=0, time=119),
    Message('note_on', channel=1, note=60, velocity=60, time=1),
    Message('note_on', channel=1, note=60, velocity=0, time=59),
    Message('note_on', channel=1, note=62, velocity=60, time=1),
    Message('note_on', channel=1, note=62, velocity=0, time=119),
    Message('note_on', channel=1, note=60, velocity=60, time=1),
    Message('note_on', channel=1, note=60, velocity=0, time=59),
    Message('note_on', channel=1, note=62, velocity=60, time=1),
    Message('note_on', channel=1, note=62, velocity=0, time=59),
    Message('note_on', channel=1, note=62, velocity=60, time=61),
    Message('note_on', channel=1, note=62, velocity=0, time=119),
    Message('note_on', channel=1, note=65, velocity=60, time=1),
    Message('note_on', channel=1, note=65, velocity=0, time=119),
    Message('note_on', channel=1, note=60, velocity=60, time=1),
    Message('note_on', channel=1, note=60, velocity=0, time=119),
    Message('note_on', channel=1, note=62, velocity=60, time=1),
    Message('note_on', channel=1, note=62, velocity=0, time=119),
    Message('note_on', channel=1, note=62, velocity=60, time=1),
    Message('note_on', channel=1, note=62, velocity=0, time=119),
    Message('note_on', channel=1, note=60, velocity=60, time=1),
    Message('note_on', channel=1, note=60, velocity=0, time=59),
    Message('note_on', channel=1, note=62, velocity=60, time=1),
    Message('note_on', channel=1, note=62, velocity=0, time=119),
    Message('note_on', channel=1, note=60, velocity=60, time=1),
    Message('note_on', channel=1, note=60, velocity=0, time=59),
    Message('note_on', channel=1, note=62, velocity=60, time=1),
    Message('note_on', channel=1, note=62, velocity=0, time=59),
    Message('note_on', channel=1, note=62, velocity=60, time=61),
    Message('note_on', channel=1, note=62, velocity=0, time=119),
    Message('note_on', channel=1, note=65, velocity=60, time=1),
    Message('note_on', channel=1, note=65, velocity=0, time=119),
    Message('note_on', channel=1, note=60, velocity=60, time=1),
    Message('note_on', channel=1, note=60, velocity=0, time=119),
    Message('note_on', channel=1, note=62, velocity=60, time=1),
    Message('note_on', channel=1, note=62, velocity=0, time=119),
    Message('note_on', channel=1, note=62, velocity=60, time=1),
    Message('note_on', channel=1, note=62, velocity=0, time=119),
    Message('note_on', channel=1, note=60, velocity=60, time=1),
    Message('note_on', channel=1, note=60, velocity=0, time=59),
    Message('note_on', channel=1, note=62, velocity=60, time=1),
    Message('note_on', channel=1, note=62, velocity=0, time=119),
    Message('note_on', channel=1, note=60, velocity=60, time=1),
    Message('note_on', channel=1, note=60, velocity=0, time=59),
    Message('note_on', channel=1, note=62, velocity=60, time=1),
    Message('note_on', channel=1, note=62, velocity=0, time=59),
    Message('note_on', channel=1, note=62, velocity=60, time=61),
    Message('note_on', channel=1, note=62, velocity=0, time=119),
    Message('note_on', channel=1, note=65, velocity=60, time=1),
    Message('note_on', channel=1, note=65, velocity=0, time=119),
    Message('note_on', channel=1, note=60, velocity=60, time=1),
    Message('note_on', channel=1, note=60, velocity=0, time=119),
    Message('note_on', channel=1, note=62, velocity=60, time=1),
    Message('note_on', channel=1, note=62, velocity=0, time=119),
    Message('note_on', channel=1, note=62, velocity=60, time=1),
    Message('note_on', channel=1, note=62, velocity=0, time=119),
    Message('note_on', channel=1, note=60, velocity=60, time=1),
    Message('note_on', channel=1, note=60, velocity=0, time=59),
    Message('note_on', channel=1, note=62, velocity=60, time=1),
    Message('note_on', channel=1, note=62, velocity=0, time=119),
    Message('note_on', channel=1, note=60, velocity=60, time=1),
    Message('note_on', channel=1, note=60, velocity=0, time=59),
    Message('note_on', channel=1, note=62, velocity=60, time=1),
    Message('note_on', channel=1, note=62, velocity=0, time=59),
    Message('note_on', channel=1, note=62, velocity=60, time=61),
    Message('note_on', channel=1, note=62, velocity=0, time=119),
    Message('note_on', channel=1, note=65, velocity=60, time=1),
    Message('note_on', channel=1, note=65, velocity=0, time=119),
    Message('note_on', channel=1, note=60, velocity=60, time=1),
    Message('note_on', channel=1, note=60, velocity=0, time=119),
    Message('note_on', channel=1, note=62, velocity=60, time=1),
    Message('note_on', channel=1, note=62, velocity=0, time=119),
    Message('note_on', channel=1, note=62, velocity=60, time=1),
    Message('note_on', channel=1, note=62, velocity=0, time=119),
    Message('note_on', channel=1, note=60, velocity=60, time=1),
    Message('note_on', channel=1, note=60, velocity=0, time=59),
    Message('note_on', channel=1, note=62, velocity=60, time=1),
    Message('note_on', channel=1, note=62, velocity=0, time=119),
    Message('note_on', channel=1, note=60, velocity=60, time=1),
    Message('note_on', channel=1, note=60, velocity=0, time=59),
    Message('note_on', channel=1, note=62, velocity=60, time=1),
    Message('note_on', channel=1, note=62, velocity=0, time=59),
    Message('note_on', channel=1, note=62, velocity=60, time=61),
    Message('note_on', channel=1, note=62, velocity=0, time=119),
    Message('note_on', channel=1, note=65, velocity=60, time=1),
    Message('note_on', channel=1, note=65, velocity=0, time=119),
    Message('note_on', channel=1, note=60, velocity=60, time=1),
    Message('note_on', channel=1, note=60, velocity=0, time=119),
    Message('note_on', channel=1, note=62, velocity=60, time=1),
    Message('note_on', channel=1, note=62, velocity=0, time=119),
    Message('note_on', channel=1, note=62, velocity=60, time=1),
    Message('note_on', channel=1, note=62, velocity=0, time=119),
    Message('note_on', channel=1, note=60, velocity=60, time=1),
    Message('note_on', channel=1, note=60, velocity=0, time=59),
    Message('note_on', channel=1, note=62, velocity=60, time=1),
    Message('note_on', channel=1, note=62, velocity=0, time=119),
    Message('note_on', channel=1, note=60, velocity=60, time=1),
    Message('note_on', channel=1, note=60, velocity=0, time=59),
    Message('note_on', channel=1, note=62, velocity=60, time=1),
    Message('note_on', channel=1, note=62, velocity=0, time=59),
    Message('note_on', channel=1, note=62, velocity=60, time=61),
    Message('note_on', channel=1, note=62, velocity=0, time=119),
    Message('note_on', channel=1, note=65, velocity=60, time=1),
    Message('note_on', channel=1, note=65, velocity=0, time=119),
    Message('note_on', channel=1, note=60, velocity=60, time=1),
    Message('note_on', channel=1, note=60, velocity=0, time=119),
    Message('note_on', channel=1, note=62, velocity=60, time=1),
    Message('note_on', channel=1, note=62, velocity=0, time=119),
    Message('note_on', channel=1, note=62, velocity=60, time=1),
    Message('note_on', channel=1, note=62, velocity=0, time=119),
    Message('note_on', channel=1, note=60, velocity=60, time=1),
    Message('note_on', channel=1, note=60, velocity=0, time=59),
    Message('note_on', channel=1, note=62, velocity=60, time=1),
    Message('note_on', channel=1, note=62, velocity=0, time=119),
    Message('note_on', channel=1, note=60, velocity=60, time=1),
    Message('note_on', channel=1, note=60, velocity=0, time=59),
    Message('note_on', channel=1, note=62, velocity=60, time=1),
    Message('note_on', channel=1, note=62, velocity=0, time=59),
    Message('note_on', channel=1, note=62, velocity=60, time=61),
    Message('note_on', channel=1, note=62, velocity=0, time=119),
    Message('note_on', channel=1, note=65, velocity=60, time=1),
    Message('note_on', channel=1, note=65, velocity=0, time=119),
    Message('note_on', channel=1, note=60, velocity=60, time=1),
    Message('note_on', channel=1, note=60, velocity=0, time=119),
    Message('note_on', channel=1, note=62, velocity=60, time=1),
    Message('note_on', channel=1, note=62, velocity=0, time=119),
    Message('note_on', channel=1, note=62, velocity=60, time=1),
    Message('note_on', channel=1, note=62, velocity=0, time=119),
    Message('note_on', channel=1, note=60, velocity=60, time=1),
    Message('note_on', channel=1, note=60, velocity=0, time=59),
    Message('note_on', channel=1, note=62, velocity=60, time=1),
    Message('note_on', channel=1, note=62, velocity=0, time=119),
    Message('note_on', channel=1, note=60, velocity=60, time=1),
    Message('note_on', channel=1, note=60, velocity=0, time=479),
    MetaMessage('end_of_track', time=0)]),
  MidiTrack([
    MetaMessage('track_name', name='WinJammer Demo', time=0),
    MetaMessage('instrument_name', name='James Morales', time=0),
    MetaMessage('midi_port', port=0, time=0),
    Message('program_change', channel=2, program=30, time=0),
    Message('control_change', channel=2, control=7, value=120, time=0),
    Message('note_on', channel=2, note=57, velocity=60, time=9120),
    Message('note_on', channel=2, note=52, velocity=60, time=0),
    Message('note_on', channel=2, note=45, velocity=60, time=0),
    Message('note_on', channel=2, note=57, velocity=0, time=59),
    Message('note_on', channel=2, note=52, velocity=0, time=0),
    Message('note_on', channel=2, note=45, velocity=0, time=0),
    Message('note_on', channel=2, note=57, velocity=60, time=1),
    Message('note_on', channel=2, note=52, velocity=60, time=0),
    Message('note_on', channel=2, note=45, velocity=60, time=0),
    Message('note_on', channel=2, note=57, velocity=0, time=59),
    Message('note_on', channel=2, note=52, velocity=0, time=0),
    Message('note_on', channel=2, note=45, velocity=0, time=0),
    Message('note_on', channel=2, note=45, velocity=60, time=1),
    Message('note_on', channel=2, note=52, velocity=60, time=0),
    Message('note_on', channel=2, note=57, velocity=60, time=0),
    Message('note_on', channel=2, note=45, velocity=0, time=59),
    Message('note_on', channel=2, note=52, velocity=0, time=0),
    Message('note_on', channel=2, note=57, velocity=0, time=0),
    Message('note_on', channel=2, note=57, velocity=60, time=1),
    Message('note_on', channel=2, note=52, velocity=60, time=0),
    Message('note_on', channel=2, note=45, velocity=60, time=0),
    Message('note_on', channel=2, note=57, velocity=0, time=29),
    Message('note_on', channel=2, note=52, velocity=0, time=0),
    Message('note_on', channel=2, note=45, velocity=0, time=0),
    Message('note_on', channel=2, note=57, velocity=60, time=1),
    Message('note_on', channel=2, note=52, velocity=60, time=0),
    Message('note_on', channel=2, note=45, velocity=60, time=0),
    Message('note_on', channel=2, note=57, velocity=0, time=29),
    Message('note_on', channel=2, note=52, velocity=0, time=0),
    Message('note_on', channel=2, note=45, velocity=0, time=0),
    Message('note_on', channel=2, note=57, velocity=60, time=1),
    Message('note_on', channel=2, note=52, velocity=60, time=0),
    Message('note_on', channel=2, note=45, velocity=60, time=0),
    Message('note_on', channel=2, note=57, velocity=0, time=59),
    Message('note_on', channel=2, note=52, velocity=0, time=0),
    Message('note_on', channel=2, note=45, velocity=0, time=0),
    Message('note_on', channel=2, note=60, velocity=60, time=1),
    Message('note_on', channel=2, note=55, velocity=60, time=0),
    Message('note_on', channel=2, note=48, velocity=60, time=0),
    Message('note_on', channel=2, note=60, velocity=0, time=59),
    Message('note_on', channel=2, note=55, velocity=0, time=0),
    Message('note_on', channel=2, note=48, velocity=0, time=0),
    Message('note_on', channel=2, note=60, velocity=60, time=1),
    Message('note_on', channel=2, note=55, velocity=60, time=0),
    Message('note_on', channel=2, note=48, velocity=60, time=0),
    Message('note_on', channel=2, note=60, velocity=0, time=119),
    Message('note_on', channel=2, note=55, velocity=0, time=0),
    Message('note_on', channel=2, note=48, velocity=0, time=0),
    Message('note_on', channel=2, note=38, velocity=60, time=1),
    Message('note_on', channel=2, note=45, velocity=60, time=0),
    Message('note_on', channel=2, note=50, velocity=60, time=0),
    Message('note_on', channel=2, note=38, velocity=0, time=119),
    Message('note_on', channel=2, note=45, velocity=0, time=0),
    Message('note_on', channel=2, note=50, velocity=0, time=0),
    Message('note_on', channel=2, note=38, velocity=60, time=1),
    Message('note_on', channel=2, note=45, velocity=60, time=0),
    Message('note_on', channel=2, note=50, velocity=60, time=0),
    Message('note_on', channel=2, note=38, velocity=0, time=119),
    Message('note_on', channel=2, note=45, velocity=0, time=0),
    Message('note_on', channel=2, note=50, velocity=0, time=0),
    Message('note_on', channel=2, note=42, velocity=60, time=1),
    Message('note_on', channel=2, note=49, velocity=60, time=0),
    Message('note_on', channel=2, note=54, velocity=60, time=0),
    Message('note_on', channel=2, note=42, velocity=0, time=119),
    Message('note_on', channel=2, note=49, velocity=0, time=0),
    Message('note_on', channel=2, note=54, velocity=0, time=0),
    Message('note_on', channel=2, note=42, velocity=60, time=1),
    Message('note_on', channel=2, note=49, velocity=60, time=0),
    Message('note_on', channel=2, note=54, velocity=60, time=0),
    Message('note_on', channel=2, note=42, velocity=0, time=119),
    Message('note_on', channel=2, note=49, velocity=0, time=0),
    Message('note_on', channel=2, note=54, velocity=0, time=0),
    Message('note_on', channel=2, note=47, velocity=60, time=1),
    Message('note_on', channel=2, note=54, velocity=60, time=0),
    Message('note_on', channel=2, note=59, velocity=60, time=0),
    Message('note_on', channel=2, note=47, velocity=0, time=119),
    Message('note_on', channel=2, note=54, velocity=0, time=0),
    Message('note_on', channel=2, note=59, velocity=0, time=0),
    Message('note_on', channel=2, note=47, velocity=60, time=1),
    Message('note_on', channel=2, note=54, velocity=60, time=0),
    Message('note_on', channel=2, note=59, velocity=60, time=0),
    Message('note_on', channel=2, note=47, velocity=0, time=119),
    Message('note_on', channel=2, note=54, velocity=0, time=0),
    Message('note_on', channel=2, note=59, velocity=0, time=0),
    Message('note_on', channel=2, note=43, velocity=60, time=1),
    Message('note_on', channel=2, note=50, velocity=60, time=0),
    Message('note_on', channel=2, note=55, velocity=60, time=0),
    Message('note_on', channel=2, note=43, velocity=0, time=119),
    Message('note_on', channel=2, note=50, velocity=0, time=0),
    Message('note_on', channel=2, note=55, velocity=0, time=0),
    Message('note_on', channel=2, note=43, velocity=60, time=1),
    Message('note_on', channel=2, note=50, velocity=60, time=0),
    Message('note_on', channel=2, note=55, velocity=60, time=0),
    Message('note_on', channel=2, note=43, velocity=0, time=119),
    Message('note_on', channel=2, note=50, velocity=0, time=0),
    Message('note_on', channel=2, note=55, velocity=0, time=0),
    Message('note_on', channel=2, note=46, velocity=60, time=1),
    Message('note_on', channel=2, note=53, velocity=60, time=0),
    Message('note_on', channel=2, note=58, velocity=60, time=0),
    Message('note_on', channel=2, note=46, velocity=0, time=59),
    Message('note_on', channel=2, note=53, velocity=0, time=0),
    Message('note_on', channel=2, note=58, velocity=0, time=0),
    Message('note_on', channel=2, note=46, velocity=60, time=1),
    Message('note_on', channel=2, note=53, velocity=60, time=0),
    Message('note_on', channel=2, note=58, velocity=60, time=0),
    Message('note_on', channel=2, note=46, velocity=0, time=59),
    Message('note_on', channel=2, note=53, velocity=0, time=0),
    Message('note_on', channel=2, note=58, velocity=0, time=0),
    Message('note_on', channel=2, note=46, velocity=60, time=1),
    Message('note_on', channel=2, note=53, velocity=60, time=0),
    Message('note_on', channel=2, note=58, velocity=60, time=0),
    Message('note_on', channel=2, note=46, velocity=0, time=59),
    Message('note_on', channel=2, note=53, velocity=0, time=0),
    Message('note_on', channel=2, note=58, velocity=0, time=0),
    Message('note_on', channel=2, note=46, velocity=60, time=1),
    Message('note_on', channel=2, note=53, velocity=60, time=0),
    Message('note_on', channel=2, note=58, velocity=60, time=0),
    Message('note_on', channel=2, note=46, velocity=0, time=29),
    Message('note_on', channel=2, note=53, velocity=0, time=0),
    Message('note_on', channel=2, note=58, velocity=0, time=0),
    Message('note_on', channel=2, note=46, velocity=60, time=1),
    Message('note_on', channel=2, note=53, velocity=60, time=0),
    Message('note_on', channel=2, note=58, velocity=60, time=0),
    Message('note_on', channel=2, note=46, velocity=0, time=29),
    Message('note_on', channel=2, note=53, velocity=0, time=0),
    Message('note_on', channel=2, note=58, velocity=0, time=0),
    Message('note_on', channel=2, note=46, velocity=60, time=1),
    Message('note_on', channel=2, note=53, velocity=60, time=0),
    Message('note_on', channel=2, note=58, velocity=60, time=0),
    Message('note_on', channel=2, note=46, velocity=0, time=59),
    Message('note_on', channel=2, note=53, velocity=0, time=0),
    Message('note_on', channel=2, note=58, velocity=0, time=0),
    Message('note_on', channel=2, note=48, velocity=60, time=1),
    Message('note_on', channel=2, note=55, velocity=60, time=0),
    Message('note_on', channel=2, note=60, velocity=60, time=0),
    Message('note_on', channel=2, note=48, velocity=0, time=59),
    Message('note_on', channel=2, note=55, velocity=0, time=0),
    Message('note_on', channel=2, note=60, velocity=0, time=0),
    Message('note_on', channel=2, note=48, velocity=60, time=1),
    Message('note_on', channel=2, note=55, velocity=60, time=0),
    Message('note_on', channel=2, note=60, velocity=60, time=0),
    Message('note_on', channel=2, note=48, velocity=0, time=119),
    Message('note_on', channel=2, note=55, velocity=0, time=0),
    Message('note_on', channel=2, note=60, velocity=0, time=0),
    Message('note_on', channel=2, note=52, velocity=60, time=1),
    Message('note_on', channel=2, note=45, velocity=60, time=0),
    Message('note_on', channel=2, note=57, velocity=60, time=0),
    Message('note_on', channel=2, note=52, velocity=0, time=59),
    Message('note_on', channel=2, note=45, velocity=0, time=0),
    Message('note_on', channel=2, note=57, velocity=0, time=0),
    Message('note_on', channel=2, note=52, velocity=60, time=1),
    Message('note_on', channel=2, note=57, velocity=60, time=0),
    Message('note_on', channel=2, note=45, velocity=60, time=0),
    Message('note_on', channel=2, note=52, velocity=0, time=59),
    Message('note_on', channel=2, note=57, velocity=0, time=0),
    Message('note_on', channel=2, note=45, velocity=0, time=0),
    Message('note_on', channel=2, note=45, velocity=60, time=1),
    Message('note_on', channel=2, note=57, velocity=60, time=0),
    Message('note_on', channel=2, note=52, velocity=60, time=0),
    Message('note_on', channel=2, note=45, velocity=0, time=59),
    Message('note_on', channel=2, note=57, velocity=0, time=0),
    Message('note_on', channel=2, note=52, velocity=0, time=0),
    Message('note_on', channel=2, note=52, velocity=60, time=1),
    Message('note_on', channel=2, note=45, velocity=60, time=0),
    Message('note_on', channel=2, note=57, velocity=60, time=0),
    Message('note_on', channel=2, note=52, velocity=0, time=29),
    Message('note_on', channel=2, note=45, velocity=0, time=0),
    Message('note_on', channel=2, note=57, velocity=0, time=0),
    Message('note_on', channel=2, note=52, velocity=60, time=1),
    Message('note_on', channel=2, note=57, velocity=60, time=0),
    Message('note_on', channel=2, note=45, velocity=60, time=0),
    Message('note_on', channel=2, note=52, velocity=0, time=29),
    Message('note_on', channel=2, note=57, velocity=0, time=0),
    Message('note_on', channel=2, note=45, velocity=0, time=0),
    Message('note_on', channel=2, note=57, velocity=60, time=1),
    Message('note_on', channel=2, note=45, velocity=60, time=0),
    Message('note_on', channel=2, note=52, velocity=60, time=0),
    Message('note_on', channel=2, note=57, velocity=0, time=59),
    Message('note_on', channel=2, note=45, velocity=0, time=0),
    Message('note_on', channel=2, note=52, velocity=0, time=0),
    Message('note_on', channel=2, note=55, velocity=60, time=1),
    Message('note_on', channel=2, note=48, velocity=60, time=0),
    Message('note_on', channel=2, note=60, velocity=60, time=0),
    Message('note_on', channel=2, note=55, velocity=0, time=59),
    Message('note_on', channel=2, note=48, velocity=0, time=0),
    Message('note_on', channel=2, note=60, velocity=0, time=0),
    Message('note_on', channel=2, note=55, velocity=60, time=1),
    Message('note_on', channel=2, note=60, velocity=60, time=0),
    Message('note_on', channel=2, note=48, velocity=60, time=0),
    Message('note_on', channel=2, note=55, velocity=0, time=119),
    Message('note_on', channel=2, note=60, velocity=0, time=0),
    Message('note_on', channel=2, note=48, velocity=0, time=0),
    Message('note_on', channel=2, note=38, velocity=60, time=1),
    Message('note_on', channel=2, note=50, velocity=60, time=0),
    Message('note_on', channel=2, note=45, velocity=60, time=0),
    Message('note_on', channel=2, note=38, velocity=0, time=119),
    Message('note_on', channel=2, note=50, velocity=0, time=0),
    Message('note_on', channel=2, note=45, velocity=0, time=0),
    Message('note_on', channel=2, note=45, velocity=60, time=1),
    Message('note_on', channel=2, note=50, velocity=60, time=0),
    Message('note_on', channel=2, note=38, velocity=60, time=0),
    Message('note_on', channel=2, note=45, velocity=0, time=119),
    Message('note_on', channel=2, note=50, velocity=0, time=0),
    Message('note_on', channel=2, note=38, velocity=0, time=0),
    Message('note_on', channel=2, note=49, velocity=60, time=1),
    Message('note_on', channel=2, note=42, velocity=60, time=0),
    Message('note_on', channel=2, note=54, velocity=60, time=0),
    Message('note_on', channel=2, note=49, velocity=0, time=119),
    Message('note_on', channel=2, note=42, velocity=0, time=0),
    Message('note_on', channel=2, note=54, velocity=0, time=0),
    Message('note_on', channel=2, note=42, velocity=60, time=1),
    Message('note_on', channel=2, note=54, velocity=60, time=0),
    Message('note_on', channel=2, note=49, velocity=60, time=0),
    Message('note_on', channel=2, note=42, velocity=0, time=119),
    Message('note_on', channel=2, note=54, velocity=0, time=0),
    Message('note_on', channel=2, note=49, velocity=0, time=0),
    Message('note_on', channel=2, note=54, velocity=60, time=1),
    Message('note_on', channel=2, note=59, velocity=60, time=0),
    Message('note_on', channel=2, note=47, velocity=60, time=0),
    Message('note_on', channel=2, note=54, velocity=0, time=119),
    Message('note_on', channel=2, note=59, velocity=0, time=0),
    Message('note_on', channel=2, note=47, velocity=0, time=0),
    Message('note_on', channel=2, note=54, velocity=60, time=1),
    Message('note_on', channel=2, note=47, velocity=60, time=0),
    Message('note_on', channel=2, note=59, velocity=60, time=0),
    Message('note_on', channel=2, note=54, velocity=0, time=119),
    Message('note_on', channel=2, note=47, velocity=0, time=0),
    Message('note_on', channel=2, note=59, velocity=0, time=0),
    Message('note_on', channel=2, note=43, velocity=60, time=1),
    Message('note_on', channel=2, note=55, velocity=60, time=0),
    Message('note_on', channel=2, note=50, velocity=60, time=0),
    Message('note_on', channel=2, note=43, velocity=0, time=119),
    Message('note_on', channel=2, note=55, velocity=0, time=0),
    Message('note_on', channel=2, note=50, velocity=0, time=0),
    Message('note_on', channel=2, note=50, velocity=60, time=1),
    Message('note_on', channel=2, note=55, velocity=60, time=0),
    Message('note_on', channel=2, note=43, velocity=60, time=0),
    Message('note_on', channel=2, note=50, velocity=0, time=119),
    Message('note_on', channel=2, note=55, velocity=0, time=0),
    Message('note_on', channel=2, note=43, velocity=0, time=0),
    Message('note_on', channel=2, note=53, velocity=60, time=1),
    Message('note_on', channel=2, note=46, velocity=60, time=0),
    Message('note_on', channel=2, note=58, velocity=60, time=0),
    Message('note_on', channel=2, note=53, velocity=0, time=59),
    Message('note_on', channel=2, note=46, velocity=0, time=0),
    Message('note_on', channel=2, note=58, velocity=0, time=0),
    Message('note_on', channel=2, note=46, velocity=60, time=1),
    Message('note_on', channel=2, note=58, velocity=60, time=0),
    Message('note_on', channel=2, note=53, velocity=60, time=0),
    Message('note_on', channel=2, note=46, velocity=0, time=59),
    Message('note_on', channel=2, note=58, velocity=0, time=0),
    Message('note_on', channel=2, note=53, velocity=0, time=0),
    Message('note_on', channel=2, note=53, velocity=60, time=1),
    Message('note_on', channel=2, note=58, velocity=60, time=0),
    Message('note_on', channel=2, note=46, velocity=60, time=0),
    Message('note_on', channel=2, note=53, velocity=0, time=59),
    Message('note_on', channel=2, note=58, velocity=0, time=0),
    Message('note_on', channel=2, note=46, velocity=0, time=0),
    Message('note_on', channel=2, note=53, velocity=60, time=1),
    Message('note_on', channel=2, note=46, velocity=60, time=0),
    Message('note_on', channel=2, note=58, velocity=60, time=0),
    Message('note_on', channel=2, note=53, velocity=0, time=29),
    Message('note_on', channel=2, note=46, velocity=0, time=0),
    Message('note_on', channel=2, note=58, velocity=0, time=0),
    Message('note_on', channel=2, note=46, velocity=60, time=1),
    Message('note_on', channel=2, note=58, velocity=60, time=0),
    Message('note_on', channel=2, note=53, velocity=60, time=0),
    Message('note_on', channel=2, note=46, velocity=0, time=29),
    Message('note_on', channel=2, note=58, velocity=0, time=0),
    Message('note_on', channel=2, note=53, velocity=0, time=0),
    Message('note_on', channel=2, note=53, velocity=60, time=1),
    Message('note_on', channel=2, note=58, velocity=60, time=0),
    Message('note_on', channel=2, note=46, velocity=60, time=0),
    Message('note_on', channel=2, note=53, velocity=0, time=59),
    Message('note_on', channel=2, note=58, velocity=0, time=0),
    Message('note_on', channel=2, note=46, velocity=0, time=0),
    Message('note_on', channel=2, note=55, velocity=60, time=1),
    Message('note_on', channel=2, note=48, velocity=60, time=0),
    Message('note_on', channel=2, note=60, velocity=60, time=0),
    Message('note_on', channel=2, note=55, velocity=0, time=59),
    Message('note_on', channel=2, note=48, velocity=0, time=0),
    Message('note_on', channel=2, note=60, velocity=0, time=0),
    Message('note_on', channel=2, note=48, velocity=60, time=1),
    Message('note_on', channel=2, note=60, velocity=60, time=0),
    Message('note_on', channel=2, note=55, velocity=60, time=0),
    Message('note_on', channel=2, note=48, velocity=0, time=119),
    Message('note_on', channel=2, note=60, velocity=0, time=0),
    Message('note_on', channel=2, note=55, velocity=0, time=0),
    Message('note_on', channel=2, note=45, velocity=60, time=1),
    Message('note_on', channel=2, note=52, velocity=60, time=0),
    Message('note_on', channel=2, note=57, velocity=60, time=0),
    Message('note_on', channel=2, note=45, velocity=0, time=59),
    Message('note_on', channel=2, note=52, velocity=0, time=0),
    Message('note_on', channel=2, note=57, velocity=0, time=0),
    Message('note_on', channel=2, note=45, velocity=60, time=1),
    Message('note_on', channel=2, note=57, velocity=60, time=0),
    Message('note_on', channel=2, note=52, velocity=60, time=0),
    Message('note_on', channel=2, note=45, velocity=0, time=59),
    Message('note_on', channel=2, note=57, velocity=0, time=0),
    Message('note_on', channel=2, note=52, velocity=0, time=0),
    Message('note_on', channel=2, note=45, velocity=60, time=1),
    Message('note_on', channel=2, note=57, velocity=60, time=0),
    Message('note_on', channel=2, note=52, velocity=60, time=0),
    Message('note_on', channel=2, note=45, velocity=0, time=59),
    Message('note_on', channel=2, note=57, velocity=0, time=0),
    Message('note_on', channel=2, note=52, velocity=0, time=0),
    Message('note_on', channel=2, note=45, velocity=60, time=1),
    Message('note_on', channel=2, note=52, velocity=60, time=0),
    Message('note_on', channel=2, note=57, velocity=60, time=0),
    Message('note_on', channel=2, note=45, velocity=0, time=29),
    Message('note_on', channel=2, note=52, velocity=0, time=0),
    Message('note_on', channel=2, note=57, velocity=0, time=0),
    Message('note_on', channel=2, note=45, velocity=60, time=1),
    Message('note_on', channel=2, note=57, velocity=60, time=0),
    Message('note_on', channel=2, note=52, velocity=60, time=0),
    Message('note_on', channel=2, note=45, velocity=0, time=29),
    Message('note_on', channel=2, note=57, velocity=0, time=0),
    Message('note_on', channel=2, note=52, velocity=0, time=0),
    Message('note_on', channel=2, note=45, velocity=60, time=1),
    Message('note_on', channel=2, note=57, velocity=60, time=0),
    Message('note_on', channel=2, note=52, velocity=60, time=0),
    Message('note_on', channel=2, note=45, velocity=0, time=59),
    Message('note_on', channel=2, note=57, velocity=0, time=0),
    Message('note_on', channel=2, note=52, velocity=0, time=0),
    Message('note_on', channel=2, note=48, velocity=60, time=1),
    Message('note_on', channel=2, note=55, velocity=60, time=0),
    Message('note_on', channel=2, note=60, velocity=60, time=0),
    Message('note_on', channel=2, note=48, velocity=0, time=59),
    Message('note_on', channel=2, note=55, velocity=0, time=0),
    Message('note_on', channel=2, note=60, velocity=0, time=0),
    Message('note_on', channel=2, note=48, velocity=60, time=1),
    Message('note_on', channel=2, note=55, velocity=60, time=0),
    Message('note_on', channel=2, note=60, velocity=60, time=0),
    Message('note_on', channel=2, note=48, velocity=0, time=119),
    Message('note_on', channel=2, note=55, velocity=0, time=0),
    Message('note_on', channel=2, note=60, velocity=0, time=0),
    Message('note_on', channel=2, note=38, velocity=60, time=1),
    Message('note_on', channel=2, note=45, velocity=60, time=0),
    Message('note_on', channel=2, note=50, velocity=60, time=0),
    Message('note_on', channel=2, note=38, velocity=0, time=119),
    Message('note_on', channel=2, note=45, velocity=0, time=0),
    Message('note_on', channel=2, note=50, velocity=0, time=0),
    Message('note_on', channel=2, note=38, velocity=60, time=1),
    Message('note_on', channel=2, note=45, velocity=60, time=0),
    Message('note_on', channel=2, note=50, velocity=60, time=0),
    Message('note_on', channel=2, note=38, velocity=0, time=119),
    Message('note_on', channel=2, note=45, velocity=0, time=0),
    Message('note_on', channel=2, note=50, velocity=0, time=0),
    Message('note_on', channel=2, note=42, velocity=60, time=1),
    Message('note_on', channel=2, note=49, velocity=60, time=0),
    Message('note_on', channel=2, note=54, velocity=60, time=0),
    Message('note_on', channel=2, note=42, velocity=0, time=119),
    Message('note_on', channel=2, note=49, velocity=0, time=0),
    Message('note_on', channel=2, note=54, velocity=0, time=0),
    Message('note_on', channel=2, note=42, velocity=60, time=1),
    Message('note_on', channel=2, note=49, velocity=60, time=0),
    Message('note_on', channel=2, note=54, velocity=60, time=0),
    Message('note_on', channel=2, note=42, velocity=0, time=119),
    Message('note_on', channel=2, note=49, velocity=0, time=0),
    Message('note_on', channel=2, note=54, velocity=0, time=0),
    Message('note_on', channel=2, note=47, velocity=60, time=1),
    Message('note_on', channel=2, note=54, velocity=60, time=0),
    Message('note_on', channel=2, note=59, velocity=60, time=0),
    Message('note_on', channel=2, note=47, velocity=0, time=119),
    Message('note_on', channel=2, note=54, velocity=0, time=0),
    Message('note_on', channel=2, note=59, velocity=0, time=0),
    Message('note_on', channel=2, note=47, velocity=60, time=1),
    Message('note_on', channel=2, note=54, velocity=60, time=0),
    Message('note_on', channel=2, note=59, velocity=60, time=0),
    Message('note_on', channel=2, note=47, velocity=0, time=119),
    Message('note_on', channel=2, note=54, velocity=0, time=0),
    Message('note_on', channel=2, note=59, velocity=0, time=0),
    Message('note_on', channel=2, note=43, velocity=60, time=1),
    Message('note_on', channel=2, note=50, velocity=60, time=0),
    Message('note_on', channel=2, note=55, velocity=60, time=0),
    Message('note_on', channel=2, note=43, velocity=0, time=119),
    Message('note_on', channel=2, note=50, velocity=0, time=0),
    Message('note_on', channel=2, note=55, velocity=0, time=0),
    Message('note_on', channel=2, note=43, velocity=60, time=1),
    Message('note_on', channel=2, note=50, velocity=60, time=0),
    Message('note_on', channel=2, note=55, velocity=60, time=0),
    Message('note_on', channel=2, note=43, velocity=0, time=119),
    Message('note_on', channel=2, note=50, velocity=0, time=0),
    Message('note_on', channel=2, note=55, velocity=0, time=0),
    Message('note_on', channel=2, note=46, velocity=60, time=1),
    Message('note_on', channel=2, note=53, velocity=60, time=0),
    Message('note_on', channel=2, note=58, velocity=60, time=0),
    Message('note_on', channel=2, note=46, velocity=0, time=59),
    Message('note_on', channel=2, note=53, velocity=0, time=0),
    Message('note_on', channel=2, note=58, velocity=0, time=0),
    Message('note_on', channel=2, note=46, velocity=60, time=1),
    Message('note_on', channel=2, note=53, velocity=60, time=0),
    Message('note_on', channel=2, note=58, velocity=60, time=0),
    Message('note_on', channel=2, note=46, velocity=0, time=59),
    Message('note_on', channel=2, note=53, velocity=0, time=0),
    Message('note_on', channel=2, note=58, velocity=0, time=0),
    Message('note_on', channel=2, note=46, velocity=60, time=1),
    Message('note_on', channel=2, note=53, velocity=60, time=0),
    Message('note_on', channel=2, note=58, velocity=60, time=0),
    Message('note_on', channel=2, note=46, velocity=0, time=59),
    Message('note_on', channel=2, note=53, velocity=0, time=0),
    Message('note_on', channel=2, note=58, velocity=0, time=0),
    Message('note_on', channel=2, note=46, velocity=60, time=1),
    Message('note_on', channel=2, note=53, velocity=60, time=0),
    Message('note_on', channel=2, note=58, velocity=60, time=0),
    Message('note_on', channel=2, note=46, velocity=0, time=29),
    Message('note_on', channel=2, note=53, velocity=0, time=0),
    Message('note_on', channel=2, note=58, velocity=0, time=0),
    Message('note_on', channel=2, note=46, velocity=60, time=1),
    Message('note_on', channel=2, note=53, velocity=60, time=0),
    Message('note_on', channel=2, note=58, velocity=60, time=0),
    Message('note_on', channel=2, note=46, velocity=0, time=29),
    Message('note_on', channel=2, note=53, velocity=0, time=0),
    Message('note_on', channel=2, note=58, velocity=0, time=0),
    Message('note_on', channel=2, note=46, velocity=60, time=1),
    Message('note_on', channel=2, note=53, velocity=60, time=0),
    Message('note_on', channel=2, note=58, velocity=60, time=0),
    Message('note_on', channel=2, note=46, velocity=0, time=59),
    Message('note_on', channel=2, note=53, velocity=0, time=0),
    Message('note_on', channel=2, note=58, velocity=0, time=0),
    Message('note_on', channel=2, note=48, velocity=60, time=1),
    Message('note_on', channel=2, note=55, velocity=60, time=0),
    Message('note_on', channel=2, note=60, velocity=60, time=0),
    Message('note_on', channel=2, note=48, velocity=0, time=59),
    Message('note_on', channel=2, note=55, velocity=0, time=0),
    Message('note_on', channel=2, note=60, velocity=0, time=0),
    Message('note_on', channel=2, note=48, velocity=60, time=1),
    Message('note_on', channel=2, note=55, velocity=60, time=0),
    Message('note_on', channel=2, note=60, velocity=60, time=0),
    Message('note_on', channel=2, note=48, velocity=0, time=119),
    Message('note_on', channel=2, note=55, velocity=0, time=0),
    Message('note_on', channel=2, note=60, velocity=0, time=0),
    Message('note_on', channel=2, note=45, velocity=60, time=1),
    Message('note_on', channel=2, note=52, velocity=60, time=0),
    Message('note_on', channel=2, note=57, velocity=60, time=0),
    Message('note_on', channel=2, note=45, velocity=0, time=59),
    Message('note_on', channel=2, note=52, velocity=0, time=0),
    Message('note_on', channel=2, note=57, velocity=0, time=0),
    Message('note_on', channel=2, note=45, velocity=60, time=1),
    Message('note_on', channel=2, note=57, velocity=60, time=0),
    Message('note_on', channel=2, note=52, velocity=60, time=0),
    Message('note_on', channel=2, note=45, velocity=0, time=59),
    Message('note_on', channel=2, note=57, velocity=0, time=0),
    Message('note_on', channel=2, note=52, velocity=0, time=0),
    Message('note_on', channel=2, note=45, velocity=60, time=1),
    Message('note_on', channel=2, note=57, velocity=60, time=0),
    Message('note_on', channel=2, note=52, velocity=60, time=0),
    Message('note_on', channel=2, note=45, velocity=0, time=59),
    Message('note_on', channel=2, note=57, velocity=0, time=0),
    Message('note_on', channel=2, note=52, velocity=0, time=0),
    Message('note_on', channel=2, note=45, velocity=60, time=1),
    Message('note_on', channel=2, note=52, velocity=60, time=0),
    Message('note_on', channel=2, note=57, velocity=60, time=0),
    Message('note_on', channel=2, note=45, velocity=0, time=29),
    Message('note_on', channel=2, note=52, velocity=0, time=0),
    Message('note_on', channel=2, note=57, velocity=0, time=0),
    Message('note_on', channel=2, note=45, velocity=60, time=1),
    Message('note_on', channel=2, note=57, velocity=60, time=0),
    Message('note_on', channel=2, note=52, velocity=60, time=0),
    Message('note_on', channel=2, note=45, velocity=0, time=29),
    Message('note_on', channel=2, note=57, velocity=0, time=0),
    Message('note_on', channel=2, note=52, velocity=0, time=0),
    Message('note_on', channel=2, note=45, velocity=60, time=1),
    Message('note_on', channel=2, note=57, velocity=60, time=0),
    Message('note_on', channel=2, note=52, velocity=60, time=0),
    Message('note_on', channel=2, note=45, velocity=0, time=59),
    Message('note_on', channel=2, note=57, velocity=0, time=0),
    Message('note_on', channel=2, note=52, velocity=0, time=0),
    Message('note_on', channel=2, note=48, velocity=60, time=1),
    Message('note_on', channel=2, note=55, velocity=60, time=0),
    Message('note_on', channel=2, note=60, velocity=60, time=0),
    Message('note_on', channel=2, note=48, velocity=0, time=59),
    Message('note_on', channel=2, note=55, velocity=0, time=0),
    Message('note_on', channel=2, note=60, velocity=0, time=0),
    Message('note_on', channel=2, note=48, velocity=60, time=1),
    Message('note_on', channel=2, note=55, velocity=60, time=0),
    Message('note_on', channel=2, note=60, velocity=60, time=0),
    Message('note_on', channel=2, note=48, velocity=0, time=119),
    Message('note_on', channel=2, note=55, velocity=0, time=0),
    Message('note_on', channel=2, note=60, velocity=0, time=0),
    Message('note_on', channel=2, note=57, velocity=60, time=7201),
    Message('note_on', channel=2, note=52, velocity=60, time=0),
    Message('note_on', channel=2, note=45, velocity=60, time=0),
    Message('note_on', channel=2, note=57, velocity=0, time=59),
    Message('note_on', channel=2, note=52, velocity=0, time=0),
    Message('note_on', channel=2, note=45, velocity=0, time=0),
    Message('note_on', channel=2, note=57, velocity=60, time=1),
    Message('note_on', channel=2, note=52, velocity=60, time=0),
    Message('note_on', channel=2, note=45, velocity=60, time=0),
    Message('note_on', channel=2, note=57, velocity=0, time=59),
    Message('note_on', channel=2, note=52, velocity=0, time=0),
    Message('note_on', channel=2, note=45, velocity=0, time=0),
    Message('note_on', channel=2, note=45, velocity=60, time=1),
    Message('note_on', channel=2, note=52, velocity=60, time=0),
    Message('note_on', channel=2, note=57, velocity=60, time=0),
    Message('note_on', channel=2, note=45, velocity=0, time=59),
    Message('note_on', channel=2, note=52, velocity=0, time=0),
    Message('note_on', channel=2, note=57, velocity=0, time=0),
    Message('note_on', channel=2, note=57, velocity=60, time=1),
    Message('note_on', channel=2, note=52, velocity=60, time=0),
    Message('note_on', channel=2, note=45, velocity=60, time=0),
    Message('note_on', channel=2, note=57, velocity=0, time=29),
    Message('note_on', channel=2, note=52, velocity=0, time=0),
    Message('note_on', channel=2, note=45, velocity=0, time=0),
    Message('note_on', channel=2, note=57, velocity=60, time=1),
    Message('note_on', channel=2, note=52, velocity=60, time=0),
    Message('note_on', channel=2, note=45, velocity=60, time=0),
    Message('note_on', channel=2, note=57, velocity=0, time=29),
    Message('note_on', channel=2, note=52, velocity=0, time=0),
    Message('note_on', channel=2, note=45, velocity=0, time=0),
    Message('note_on', channel=2, note=57, velocity=60, time=1),
    Message('note_on', channel=2, note=52, velocity=60, time=0),
    Message('note_on', channel=2, note=45, velocity=60, time=0),
    Message('note_on', channel=2, note=57, velocity=0, time=59),
    Message('note_on', channel=2, note=52, velocity=0, time=0),
    Message('note_on', channel=2, note=45, velocity=0, time=0),
    Message('note_on', channel=2, note=60, velocity=60, time=1),
    Message('note_on', channel=2, note=55, velocity=60, time=0),
    Message('note_on', channel=2, note=48, velocity=60, time=0),
    Message('note_on', channel=2, note=60, velocity=0, time=59),
    Message('note_on', channel=2, note=55, velocity=0, time=0),
    Message('note_on', channel=2, note=48, velocity=0, time=0),
    Message('note_on', channel=2, note=60, velocity=60, time=1),
    Message('note_on', channel=2, note=55, velocity=60, time=0),
    Message('note_on', channel=2, note=48, velocity=60, time=0),
    Message('note_on', channel=2, note=60, velocity=0, time=119),
    Message('note_on', channel=2, note=55, velocity=0, time=0),
    Message('note_on', channel=2, note=48, velocity=0, time=0),
    Message('note_on', channel=2, note=38, velocity=60, time=1),
    Message('note_on', channel=2, note=45, velocity=60, time=0),
    Message('note_on', channel=2, note=50, velocity=60, time=0),
    Message('note_on', channel=2, note=38, velocity=0, time=119),
    Message('note_on', channel=2, note=45, velocity=0, time=0),
    Message('note_on', channel=2, note=50, velocity=0, time=0),
    Message('note_on', channel=2, note=38, velocity=60, time=1),
    Message('note_on', channel=2, note=45, velocity=60, time=0),
    Message('note_on', channel=2, note=50, velocity=60, time=0),
    Message('note_on', channel=2, note=38, velocity=0, time=119),
    Message('note_on', channel=2, note=45, velocity=0, time=0),
    Message('note_on', channel=2, note=50, velocity=0, time=0),
    Message('note_on', channel=2, note=42, velocity=60, time=1),
    Message('note_on', channel=2, note=49, velocity=60, time=0),
    Message('note_on', channel=2, note=54, velocity=60, time=0),
    Message('note_on', channel=2, note=42, velocity=0, time=119),
    Message('note_on', channel=2, note=49, velocity=0, time=0),
    Message('note_on', channel=2, note=54, velocity=0, time=0),
    Message('note_on', channel=2, note=42, velocity=60, time=1),
    Message('note_on', channel=2, note=49, velocity=60, time=0),
    Message('note_on', channel=2, note=54, velocity=60, time=0),
    Message('note_on', channel=2, note=42, velocity=0, time=119),
    Message('note_on', channel=2, note=49, velocity=0, time=0),
    Message('note_on', channel=2, note=54, velocity=0, time=0),
    Message('note_on', channel=2, note=47, velocity=60, time=1),
    Message('note_on', channel=2, note=54, velocity=60, time=0),
    Message('note_on', channel=2, note=59, velocity=60, time=0),
    Message('note_on', channel=2, note=47, velocity=0, time=119),
    Message('note_on', channel=2, note=54, velocity=0, time=0),
    Message('note_on', channel=2, note=59, velocity=0, time=0),
    Message('note_on', channel=2, note=47, velocity=60, time=1),
    Message('note_on', channel=2, note=54, velocity=60, time=0),
    Message('note_on', channel=2, note=59, velocity=60, time=0),
    Message('note_on', channel=2, note=47, velocity=0, time=119),
    Message('note_on', channel=2, note=54, velocity=0, time=0),
    Message('note_on', channel=2, note=59, velocity=0, time=0),
    Message('note_on', channel=2, note=43, velocity=60, time=1),
    Message('note_on', channel=2, note=50, velocity=60, time=0),
    Message('note_on', channel=2, note=55, velocity=60, time=0),
    Message('note_on', channel=2, note=43, velocity=0, time=119),
    Message('note_on', channel=2, note=50, velocity=0, time=0),
    Message('note_on', channel=2, note=55, velocity=0, time=0),
    Message('note_on', channel=2, note=43, velocity=60, time=1),
    Message('note_on', channel=2, note=50, velocity=60, time=0),
    Message('note_on', channel=2, note=55, velocity=60, time=0),
    Message('note_on', channel=2, note=43, velocity=0, time=119),
    Message('note_on', channel=2, note=50, velocity=0, time=0),
    Message('note_on', channel=2, note=55, velocity=0, time=0),
    Message('note_on', channel=2, note=46, velocity=60, time=1),
    Message('note_on', channel=2, note=53, velocity=60, time=0),
    Message('note_on', channel=2, note=58, velocity=60, time=0),
    Message('note_on', channel=2, note=46, velocity=0, time=59),
    Message('note_on', channel=2, note=53, velocity=0, time=0),
    Message('note_on', channel=2, note=58, velocity=0, time=0),
    Message('note_on', channel=2, note=46, velocity=60, time=1),
    Message('note_on', channel=2, note=53, velocity=60, time=0),
    Message('note_on', channel=2, note=58, velocity=60, time=0),
    Message('note_on', channel=2, note=46, velocity=0, time=59),
    Message('note_on', channel=2, note=53, velocity=0, time=0),
    Message('note_on', channel=2, note=58, velocity=0, time=0),
    Message('note_on', channel=2, note=46, velocity=60, time=1),
    Message('note_on', channel=2, note=53, velocity=60, time=0),
    Message('note_on', channel=2, note=58, velocity=60, time=0),
    Message('note_on', channel=2, note=46, velocity=0, time=59),
    Message('note_on', channel=2, note=53, velocity=0, time=0),
    Message('note_on', channel=2, note=58, velocity=0, time=0),
    Message('note_on', channel=2, note=46, velocity=60, time=1),
    Message('note_on', channel=2, note=53, velocity=60, time=0),
    Message('note_on', channel=2, note=58, velocity=60, time=0),
    Message('note_on', channel=2, note=46, velocity=0, time=29),
    Message('note_on', channel=2, note=53, velocity=0, time=0),
    Message('note_on', channel=2, note=58, velocity=0, time=0),
    Message('note_on', channel=2, note=46, velocity=60, time=1),
    Message('note_on', channel=2, note=53, velocity=60, time=0),
    Message('note_on', channel=2, note=58, velocity=60, time=0),
    Message('note_on', channel=2, note=46, velocity=0, time=29),
    Message('note_on', channel=2, note=53, velocity=0, time=0),
    Message('note_on', channel=2, note=58, velocity=0, time=0),
    Message('note_on', channel=2, note=46, velocity=60, time=1),
    Message('note_on', channel=2, note=53, velocity=60, time=0),
    Message('note_on', channel=2, note=58, velocity=60, time=0),
    Message('note_on', channel=2, note=46, velocity=0, time=59),
    Message('note_on', channel=2, note=53, velocity=0, time=0),
    Message('note_on', channel=2, note=58, velocity=0, time=0),
    Message('note_on', channel=2, note=48, velocity=60, time=1),
    Message('note_on', channel=2, note=55, velocity=60, time=0),
    Message('note_on', channel=2, note=60, velocity=60, time=0),
    Message('note_on', channel=2, note=48, velocity=0, time=59),
    Message('note_on', channel=2, note=55, velocity=0, time=0),
    Message('note_on', channel=2, note=60, velocity=0, time=0),
    Message('note_on', channel=2, note=48, velocity=60, time=1),
    Message('note_on', channel=2, note=55, velocity=60, time=0),
    Message('note_on', channel=2, note=60, velocity=60, time=0),
    Message('note_on', channel=2, note=48, velocity=0, time=119),
    Message('note_on', channel=2, note=55, velocity=0, time=0),
    Message('note_on', channel=2, note=60, velocity=0, time=0),
    Message('note_on', channel=2, note=57, velocity=60, time=1),
    Message('note_on', channel=2, note=52, velocity=60, time=0),
    Message('note_on', channel=2, note=45, velocity=60, time=0),
    Message('note_on', channel=2, note=57, velocity=0, time=59),
    Message('note_on', channel=2, note=52, velocity=0, time=0),
    Message('note_on', channel=2, note=45, velocity=0, time=0),
    Message('note_on', channel=2, note=57, velocity=60, time=1),
    Message('note_on', channel=2, note=52, velocity=60, time=0),
    Message('note_on', channel=2, note=45, velocity=60, time=0),
    Message('note_on', channel=2, note=57, velocity=0, time=59),
    Message('note_on', channel=2, note=52, velocity=0, time=0),
    Message('note_on', channel=2, note=45, velocity=0, time=0),
    Message('note_on', channel=2, note=45, velocity=60, time=1),
    Message('note_on', channel=2, note=52, velocity=60, time=0),
    Message('note_on', channel=2, note=57, velocity=60, time=0),
    Message('note_on', channel=2, note=45, velocity=0, time=59),
    Message('note_on', channel=2, note=52, velocity=0, time=0),
    Message('note_on', channel=2, note=57, velocity=0, time=0),
    Message('note_on', channel=2, note=57, velocity=60, time=1),
    Message('note_on', channel=2, note=52, velocity=60, time=0),
    Message('note_on', channel=2, note=45, velocity=60, time=0),
    Message('note_on', channel=2, note=57, velocity=0, time=29),
    Message('note_on', channel=2, note=52, velocity=0, time=0),
    Message('note_on', channel=2, note=45, velocity=0, time=0),
    Message('note_on', channel=2, note=57, velocity=60, time=1),
    Message('note_on', channel=2, note=52, velocity=60, time=0),
    Message('note_on', channel=2, note=45, velocity=60, time=0),
    Message('note_on', channel=2, note=57, velocity=0, time=29),
    Message('note_on', channel=2, note=52, velocity=0, time=0),
    Message('note_on', channel=2, note=45, velocity=0, time=0),
    Message('note_on', channel=2, note=57, velocity=60, time=1),
    Message('note_on', channel=2, note=52, velocity=60, time=0),
    Message('note_on', channel=2, note=45, velocity=60, time=0),
    Message('note_on', channel=2, note=57, velocity=0, time=59),
    Message('note_on', channel=2, note=52, velocity=0, time=0),
    Message('note_on', channel=2, note=45, velocity=0, time=0),
    Message('note_on', channel=2, note=60, velocity=60, time=1),
    Message('note_on', channel=2, note=55, velocity=60, time=0),
    Message('note_on', channel=2, note=48, velocity=60, time=0),
    Message('note_on', channel=2, note=60, velocity=0, time=59),
    Message('note_on', channel=2, note=55, velocity=0, time=0),
    Message('note_on', channel=2, note=48, velocity=0, time=0),
    Message('note_on', channel=2, note=60, velocity=60, time=1),
    Message('note_on', channel=2, note=55, velocity=60, time=0),
    Message('note_on', channel=2, note=48, velocity=60, time=0),
    Message('note_on', channel=2, note=60, velocity=0, time=119),
    Message('note_on', channel=2, note=55, velocity=0, time=0),
    Message('note_on', channel=2, note=48, velocity=0, time=0),
    Message('note_on', channel=2, note=38, velocity=60, time=1),
    Message('note_on', channel=2, note=45, velocity=60, time=0),
    Message('note_on', channel=2, note=50, velocity=60, time=0),
    Message('note_on', channel=2, note=38, velocity=0, time=119),
    Message('note_on', channel=2, note=45, velocity=0, time=0),
    Message('note_on', channel=2, note=50, velocity=0, time=0),
    Message('note_on', channel=2, note=38, velocity=60, time=1),
    Message('note_on', channel=2, note=45, velocity=60, time=0),
    Message('note_on', channel=2, note=50, velocity=60, time=0),
    Message('note_on', channel=2, note=38, velocity=0, time=119),
    Message('note_on', channel=2, note=45, velocity=0, time=0),
    Message('note_on', channel=2, note=50, velocity=0, time=0),
    Message('note_on', channel=2, note=42, velocity=60, time=1),
    Message('note_on', channel=2, note=49, velocity=60, time=0),
    Message('note_on', channel=2, note=54, velocity=60, time=0),
    Message('note_on', channel=2, note=42, velocity=0, time=119),
    Message('note_on', channel=2, note=49, velocity=0, time=0),
    Message('note_on', channel=2, note=54, velocity=0, time=0),
    Message('note_on', channel=2, note=42, velocity=60, time=1),
    Message('note_on', channel=2, note=49, velocity=60, time=0),
    Message('note_on', channel=2, note=54, velocity=60, time=0),
    Message('note_on', channel=2, note=42, velocity=0, time=119),
    Message('note_on', channel=2, note=49, velocity=0, time=0),
    Message('note_on', channel=2, note=54, velocity=0, time=0),
    Message('note_on', channel=2, note=47, velocity=60, time=1),
    Message('note_on', channel=2, note=54, velocity=60, time=0),
    Message('note_on', channel=2, note=59, velocity=60, time=0),
    Message('note_on', channel=2, note=47, velocity=0, time=119),
    Message('note_on', channel=2, note=54, velocity=0, time=0),
    Message('note_on', channel=2, note=59, velocity=0, time=0),
    Message('note_on', channel=2, note=47, velocity=60, time=1),
    Message('note_on', channel=2, note=54, velocity=60, time=0),
    Message('note_on', channel=2, note=59, velocity=60, time=0),
    Message('note_on', channel=2, note=47, velocity=0, time=119),
    Message('note_on', channel=2, note=54, velocity=0, time=0),
    Message('note_on', channel=2, note=59, velocity=0, time=0),
    Message('note_on', channel=2, note=43, velocity=60, time=1),
    Message('note_on', channel=2, note=50, velocity=60, time=0),
    Message('note_on', channel=2, note=55, velocity=60, time=0),
    Message('note_on', channel=2, note=43, velocity=0, time=119),
    Message('note_on', channel=2, note=50, velocity=0, time=0),
    Message('note_on', channel=2, note=55, velocity=0, time=0),
    Message('note_on', channel=2, note=43, velocity=60, time=1),
    Message('note_on', channel=2, note=50, velocity=60, time=0),
    Message('note_on', channel=2, note=55, velocity=60, time=0),
    Message('note_on', channel=2, note=43, velocity=0, time=119),
    Message('note_on', channel=2, note=50, velocity=0, time=0),
    Message('note_on', channel=2, note=55, velocity=0, time=0),
    Message('note_on', channel=2, note=46, velocity=60, time=1),
    Message('note_on', channel=2, note=53, velocity=60, time=0),
    Message('note_on', channel=2, note=58, velocity=60, time=0),
    Message('note_on', channel=2, note=46, velocity=0, time=59),
    Message('note_on', channel=2, note=53, velocity=0, time=0),
    Message('note_on', channel=2, note=58, velocity=0, time=0),
    Message('note_on', channel=2, note=46, velocity=60, time=1),
    Message('note_on', channel=2, note=53, velocity=60, time=0),
    Message('note_on', channel=2, note=58, velocity=60, time=0),
    Message('note_on', channel=2, note=46, velocity=0, time=59),
    Message('note_on', channel=2, note=53, velocity=0, time=0),
    Message('note_on', channel=2, note=58, velocity=0, time=0),
    Message('note_on', channel=2, note=46, velocity=60, time=1),
    Message('note_on', channel=2, note=53, velocity=60, time=0),
    Message('note_on', channel=2, note=58, velocity=60, time=0),
    Message('note_on', channel=2, note=46, velocity=0, time=59),
    Message('note_on', channel=2, note=53, velocity=0, time=0),
    Message('note_on', channel=2, note=58, velocity=0, time=0),
    Message('note_on', channel=2, note=46, velocity=60, time=1),
    Message('note_on', channel=2, note=53, velocity=60, time=0),
    Message('note_on', channel=2, note=58, velocity=60, time=0),
    Message('note_on', channel=2, note=46, velocity=0, time=29),
    Message('note_on', channel=2, note=53, velocity=0, time=0),
    Message('note_on', channel=2, note=58, velocity=0, time=0),
    Message('note_on', channel=2, note=53, velocity=60, time=1),
    Message('note_on', channel=2, note=58, velocity=60, time=0),
    Message('note_on', channel=2, note=46, velocity=60, time=0),
    Message('note_on', channel=2, note=53, velocity=0, time=29),
    Message('note_on', channel=2, note=58, velocity=0, time=0),
    Message('note_on', channel=2, note=46, velocity=0, time=0),
    Message('note_on', channel=2, note=46, velocity=60, time=1),
    Message('note_on', channel=2, note=58, velocity=60, time=0),
    Message('note_on', channel=2, note=53, velocity=60, time=0),
    Message('note_on', channel=2, note=46, velocity=0, time=59),
    Message('note_on', channel=2, note=58, velocity=0, time=0),
    Message('note_on', channel=2, note=53, velocity=0, time=0),
    Message('note_on', channel=2, note=55, velocity=60, time=1),
    Message('note_on', channel=2, note=60, velocity=60, time=0),
    Message('note_on', channel=2, note=48, velocity=60, time=0),
    Message('note_on', channel=2, note=55, velocity=0, time=59),
    Message('note_on', channel=2, note=60, velocity=0, time=0),
    Message('note_on', channel=2, note=48, velocity=0, time=0),
    Message('note_on', channel=2, note=55, velocity=60, time=1),
    Message('note_on', channel=2, note=48, velocity=60, time=0),
    Message('note_on', channel=2, note=60, velocity=60, time=0),
    Message('note_on', channel=2, note=55, velocity=0, time=119),
    Message('note_on', channel=2, note=48, velocity=0, time=0),
    Message('note_on', channel=2, note=60, velocity=0, time=0),
    Message('note_on', channel=2, note=52, velocity=60, time=1),
    Message('note_on', channel=2, note=45, velocity=60, time=0),
    Message('note_on', channel=2, note=57, velocity=60, time=0),
    Message('note_on', channel=2, note=52, velocity=0, time=59),
    Message('note_on', channel=2, note=45, velocity=0, time=0),
    Message('note_on', channel=2, note=57, velocity=0, time=0),
    Message('note_on', channel=2, note=45, velocity=60, time=1),
    Message('note_on', channel=2, note=52, velocity=60, time=0),
    Message('note_on', channel=2, note=57, velocity=60, time=0),
    Message('note_on', channel=2, note=45, velocity=0, time=59),
    Message('note_on', channel=2, note=52, velocity=0, time=0),
    Message('note_on', channel=2, note=57, velocity=0, time=0),
    Message('note_on', channel=2, note=45, velocity=60, time=1),
    Message('note_on', channel=2, note=52, velocity=60, time=0),
    Message('note_on', channel=2, note=57, velocity=60, time=0),
    Message('note_on', channel=2, note=45, velocity=0, time=59),
    Message('note_on', channel=2, note=52, velocity=0, time=0),
    Message('note_on', channel=2, note=57, velocity=0, time=0),
    Message('note_on', channel=2, note=57, velocity=60, time=1),
    Message('note_on', channel=2, note=52, velocity=60, time=0),
    Message('note_on', channel=2, note=45, velocity=60, time=0),
    Message('note_on', channel=2, note=57, velocity=0, time=29),
    Message('note_on', channel=2, note=52, velocity=0, time=0),
    Message('note_on', channel=2, note=45, velocity=0, time=0),
    Message('note_on', channel=2, note=45, velocity=60, time=1),
    Message('note_on', channel=2, note=57, velocity=60, time=0),
    Message('note_on', channel=2, note=52, velocity=60, time=0),
    Message('note_on', channel=2, note=45, velocity=0, time=29),
    Message('note_on', channel=2, note=57, velocity=0, time=0),
    Message('note_on', channel=2, note=52, velocity=0, time=0),
    Message('note_on', channel=2, note=52, velocity=60, time=1),
    Message('note_on', channel=2, note=45, velocity=60, time=0),
    Message('note_on', channel=2, note=57, velocity=60, time=0),
    Message('note_on', channel=2, note=52, velocity=0, time=59),
    Message('note_on', channel=2, note=45, velocity=0, time=0),
    Message('note_on', channel=2, note=57, velocity=0, time=0),
    Message('note_on', channel=2, note=48, velocity=60, time=1),
    Message('note_on', channel=2, note=55, velocity=60, time=0),
    Message('note_on', channel=2, note=60, velocity=60, time=0),
    Message('note_on', channel=2, note=48, velocity=0, time=59),
    Message('note_on', channel=2, note=55, velocity=0, time=0),
    Message('note_on', channel=2, note=60, velocity=0, time=0),
    Message('note_on', channel=2, note=55, velocity=60, time=1),
    Message('note_on', channel=2, note=48, velocity=60, time=0),
    Message('note_on', channel=2, note=60, velocity=60, time=0),
    Message('note_on', channel=2, note=55, velocity=0, time=119),
    Message('note_on', channel=2, note=48, velocity=0, time=0),
    Message('note_on', channel=2, note=60, velocity=0, time=0),
    Message('note_on', channel=2, note=38, velocity=60, time=1),
    Message('note_on', channel=2, note=50, velocity=60, time=0),
    Message('note_on', channel=2, note=45, velocity=60, time=0),
    Message('note_on', channel=2, note=38, velocity=0, time=119),
    Message('note_on', channel=2, note=50, velocity=0, time=0),
    Message('note_on', channel=2, note=45, velocity=0, time=0),
    Message('note_on', channel=2, note=38, velocity=60, time=1),
    Message('note_on', channel=2, note=50, velocity=60, time=0),
    Message('note_on', channel=2, note=45, velocity=60, time=0),
    Message('note_on', channel=2, note=38, velocity=0, time=119),
    Message('note_on', channel=2, note=50, velocity=0, time=0),
    Message('note_on', channel=2, note=45, velocity=0, time=0),
    Message('note_on', channel=2, note=49, velocity=60, time=1),
    Message('note_on', channel=2, note=54, velocity=60, time=0),
    Message('note_on', channel=2, note=42, velocity=60, time=0),
    Message('note_on', channel=2, note=49, velocity=0, time=119),
    Message('note_on', channel=2, note=54, velocity=0, time=0),
    Message('note_on', channel=2, note=42, velocity=0, time=0),
    Message('note_on', channel=2, note=49, velocity=60, time=1),
    Message('note_on', channel=2, note=42, velocity=60, time=0),
    Message('note_on', channel=2, note=54, velocity=60, time=0),
    Message('note_on', channel=2, note=49, velocity=0, time=119),
    Message('note_on', channel=2, note=42, velocity=0, time=0),
    Message('note_on', channel=2, note=54, velocity=0, time=0),
    Message('note_on', channel=2, note=54, velocity=60, time=1),
    Message('note_on', channel=2, note=47, velocity=60, time=0),
    Message('note_on', channel=2, note=59, velocity=60, time=0),
    Message('note_on', channel=2, note=54, velocity=0, time=119),
    Message('note_on', channel=2, note=47, velocity=0, time=0),
    Message('note_on', channel=2, note=59, velocity=0, time=0),
    Message('note_on', channel=2, note=47, velocity=60, time=1),
    Message('note_on', channel=2, note=59, velocity=60, time=0),
    Message('note_on', channel=2, note=54, velocity=60, time=0),
    Message('note_on', channel=2, note=47, velocity=0, time=119),
    Message('note_on', channel=2, note=59, velocity=0, time=0),
    Message('note_on', channel=2, note=54, velocity=0, time=0),
    Message('note_on', channel=2, note=43, velocity=60, time=1),
    Message('note_on', channel=2, note=55, velocity=60, time=0),
    Message('note_on', channel=2, note=50, velocity=60, time=0),
    Message('note_on', channel=2, note=43, velocity=0, time=119),
    Message('note_on', channel=2, note=55, velocity=0, time=0),
    Message('note_on', channel=2, note=50, velocity=0, time=0),
    Message('note_on', channel=2, note=50, velocity=60, time=1),
    Message('note_on', channel=2, note=55, velocity=60, time=0),
    Message('note_on', channel=2, note=43, velocity=60, time=0),
    Message('note_on', channel=2, note=50, velocity=0, time=119),
    Message('note_on', channel=2, note=55, velocity=0, time=0),
    Message('note_on', channel=2, note=43, velocity=0, time=0),
    Message('note_on', channel=2, note=53, velocity=60, time=1),
    Message('note_on', channel=2, note=46, velocity=60, time=0),
    Message('note_on', channel=2, note=58, velocity=60, time=0),
    Message('note_on', channel=2, note=53, velocity=0, time=59),
    Message('note_on', channel=2, note=46, velocity=0, time=0),
    Message('note_on', channel=2, note=58, velocity=0, time=0),
    Message('note_on', channel=2, note=53, velocity=60, time=1),
    Message('note_on', channel=2, note=46, velocity=60, time=0),
    Message('note_on', channel=2, note=58, velocity=60, time=0),
    Message('note_on', channel=2, note=53, velocity=0, time=59),
    Message('note_on', channel=2, note=46, velocity=0, time=0),
    Message('note_on', channel=2, note=58, velocity=0, time=0),
    Message('note_on', channel=2, note=46, velocity=60, time=1),
    Message('note_on', channel=2, note=58, velocity=60, time=0),
    Message('note_on', channel=2, note=53, velocity=60, time=0),
    Message('note_on', channel=2, note=46, velocity=0, time=59),
    Message('note_on', channel=2, note=58, velocity=0, time=0),
    Message('note_on', channel=2, note=53, velocity=0, time=0),
    Message('note_on', channel=2, note=46, velocity=60, time=1),
    Message('note_on', channel=2, note=58, velocity=60, time=0),
    Message('note_on', channel=2, note=53, velocity=60, time=0),
    Message('note_on', channel=2, note=46, velocity=0, time=29),
    Message('note_on', channel=2, note=58, velocity=0, time=0),
    Message('note_on', channel=2, note=53, velocity=0, time=0),
    Message('note_on', channel=2, note=53, velocity=60, time=1),
    Message('note_on', channel=2, note=58, velocity=60, time=0),
    Message('note_on', channel=2, note=46, velocity=60, time=0),
    Message('note_on', channel=2, note=53, velocity=0, time=29),
    Message('note_on', channel=2, note=58, velocity=0, time=0),
    Message('note_on', channel=2, note=46, velocity=0, time=0),
    Message('note_on', channel=2, note=53, velocity=60, time=1),
    Message('note_on', channel=2, note=46, velocity=60, time=0),
    Message('note_on', channel=2, note=58, velocity=60, time=0),
    Message('note_on', channel=2, note=53, velocity=0, time=59),
    Message('note_on', channel=2, note=46, velocity=0, time=0),
    Message('note_on', channel=2, note=58, velocity=0, time=0),
    Message('note_on', channel=2, note=55, velocity=60, time=1),
    Message('note_on', channel=2, note=48, velocity=60, time=0),
    Message('note_on', channel=2, note=60, velocity=60, time=0),
    Message('note_on', channel=2, note=55, velocity=0, time=59),
    Message('note_on', channel=2, note=48, velocity=0, time=0),
    Message('note_on', channel=2, note=60, velocity=0, time=0),
    Message('note_on', channel=2, note=48, velocity=60, time=1),
    Message('note_on', channel=2, note=60, velocity=60, time=0),
    Message('note_on', channel=2, note=55, velocity=60, time=0),
    Message('note_on', channel=2, note=48, velocity=0, time=119),
    Message('note_on', channel=2, note=60, velocity=0, time=0),
    Message('note_on', channel=2, note=55, velocity=0, time=0),
    Message('note_on', channel=2, note=45, velocity=60, time=1),
    Message('note_on', channel=2, note=57, velocity=60, time=0),
    Message('note_on', channel=2, note=52, velocity=60, time=0),
    Message('note_on', channel=2, note=45, velocity=0, time=59),
    Message('note_on', channel=2, note=57, velocity=0, time=0),
    Message('note_on', channel=2, note=52, velocity=0, time=0),
    Message('note_on', channel=2, note=57, velocity=60, time=1),
    Message('note_on', channel=2, note=52, velocity=60, time=0),
    Message('note_on', channel=2, note=45, velocity=60, time=0),
    Message('note_on', channel=2, note=57, velocity=0, time=59),
    Message('note_on', channel=2, note=52, velocity=0, time=0),
    Message('note_on', channel=2, note=45, velocity=0, time=0),
    Message('note_on', channel=2, note=57, velocity=60, time=1),
    Message('note_on', channel=2, note=45, velocity=60, time=0),
    Message('note_on', channel=2, note=52, velocity=60, time=0),
    Message('note_on', channel=2, note=57, velocity=0, time=59),
    Message('note_on', channel=2, note=45, velocity=0, time=0),
    Message('note_on', channel=2, note=52, velocity=0, time=0),
    Message('note_on', channel=2, note=52, velocity=60, time=1),
    Message('note_on', channel=2, note=45, velocity=60, time=0),
    Message('note_on', channel=2, note=57, velocity=60, time=0),
    Message('note_on', channel=2, note=52, velocity=0, time=29),
    Message('note_on', channel=2, note=45, velocity=0, time=0),
    Message('note_on', channel=2, note=57, velocity=0, time=0),
    Message('note_on', channel=2, note=45, velocity=60, time=1),
    Message('note_on', channel=2, note=52, velocity=60, time=0),
    Message('note_on', channel=2, note=57, velocity=60, time=0),
    Message('note_on', channel=2, note=45, velocity=0, time=29),
    Message('note_on', channel=2, note=52, velocity=0, time=0),
    Message('note_on', channel=2, note=57, velocity=0, time=0),
    Message('note_on', channel=2, note=45, velocity=60, time=1),
    Message('note_on', channel=2, note=52, velocity=60, time=0),
    Message('note_on', channel=2, note=57, velocity=60, time=0),
    Message('note_on', channel=2, note=45, velocity=0, time=59),
    Message('note_on', channel=2, note=52, velocity=0, time=0),
    Message('note_on', channel=2, note=57, velocity=0, time=0),
    Message('note_on', channel=2, note=60, velocity=60, time=1),
    Message('note_on', channel=2, note=55, velocity=60, time=0),
    Message('note_on', channel=2, note=48, velocity=60, time=0),
    Message('note_on', channel=2, note=60, velocity=0, time=59),
    Message('note_on', channel=2, note=55, velocity=0, time=0),
    Message('note_on', channel=2, note=48, velocity=0, time=0),
    Message('note_on', channel=2, note=48, velocity=60, time=1),
    Message('note_on', channel=2, note=55, velocity=60, time=0),
    Message('note_on', channel=2, note=60, velocity=60, time=0),
    Message('note_on', channel=2, note=48, velocity=0, time=119),
    Message('note_on', channel=2, note=55, velocity=0, time=0),
    Message('note_on', channel=2, note=60, velocity=0, time=0),
    Message('note_on', channel=2, note=50, velocity=60, time=1),
    Message('note_on', channel=2, note=43, velocity=60, time=0),
    Message('note_on', channel=2, note=55, velocity=60, time=0),
    Message('note_on', channel=2, note=50, velocity=0, time=119),
    Message('note_on', channel=2, note=43, velocity=0, time=0),
    Message('note_on', channel=2, note=55, velocity=0, time=0),
    Message('note_on', channel=2, note=55, velocity=60, time=1),
    Message('note_on', channel=2, note=50, velocity=60, time=0),
    Message('note_on', channel=2, note=43, velocity=60, time=0),
    Message('note_on', channel=2, note=60, velocity=60, time=60),
    Message('note_on', channel=2, note=48, velocity=60, time=0),
    Message('note_on', channel=2, note=55, velocity=60, time=0),
    Message('note_on', channel=2, note=55, velocity=0, time=39),
    Message('note_on', channel=2, note=60, velocity=0, time=0),
    Message('note_on', channel=2, note=48, velocity=0, time=0),
    Message('note_on', channel=2, note=50, velocity=0, time=20),
    Message('note_on', channel=2, note=43, velocity=0, time=0),
    Message('note_on', channel=2, note=55, velocity=0, time=0),
    Message('note_on', channel=2, note=46, velocity=60, time=1),
    Message('note_on', channel=2, note=58, velocity=60, time=0),
    Message('note_on', channel=2, note=53, velocity=60, time=0),
    Message('note_on', channel=2, note=46, velocity=0, time=119),
    Message('note_on', channel=2, note=58, velocity=0, time=0),
    Message('note_on', channel=2, note=53, velocity=0, time=0),
    Message('note_on', channel=2, note=58, velocity=60, time=1),
    Message('note_on', channel=2, note=46, velocity=60, time=0),
    Message('note_on', channel=2, note=53, velocity=60, time=0),
    Message('note_on', channel=2, note=58, velocity=0, time=119),
    Message('note_on', channel=2, note=46, velocity=0, time=0),
    Message('note_on', channel=2, note=53, velocity=0, time=0),
    Message('note_on', channel=2, note=50, velocity=60, time=1),
    Message('note_on', channel=2, note=55, velocity=60, time=0),
    Message('note_on', channel=2, note=43, velocity=60, time=0),
    Message('note_on', channel=2, note=50, velocity=0, time=119),
    Message('note_on', channel=2, note=55, velocity=0, time=0),
    Message('note_on', channel=2, note=43, velocity=0, time=0),
    Message('note_on', channel=2, note=43, velocity=60, time=1),
    Message('note_on', channel=2, note=50, velocity=60, time=0),
    Message('note_on', channel=2, note=55, velocity=60, time=0),
    Message('note_on', channel=2, note=43, velocity=0, time=119),
    Message('note_on', channel=2, note=50, velocity=0, time=0),
    Message('note_on', channel=2, note=55, velocity=0, time=0),
    Message('note_on', channel=2, note=48, velocity=60, time=1),
    Message('note_on', channel=2, note=53, velocity=60, time=0),
    Message('note_on', channel=2, note=41, velocity=60, time=0),
    Message('note_on', channel=2, note=48, velocity=0, time=59),
    Message('note_on', channel=2, note=53, velocity=0, time=0),
    Message('note_on', channel=2, note=41, velocity=0, time=0),
    Message('note_on', channel=2, note=55, velocity=60, time=1),
    Message('note_on', channel=2, note=43, velocity=60, time=0),
    Message('note_on', channel=2, note=50, velocity=60, time=0),
    Message('note_on', channel=2, note=55, velocity=0, time=119),
    Message('note_on', channel=2, note=43, velocity=0, time=0),
    Message('note_on', channel=2, note=50, velocity=0, time=0),
    Message('note_on', channel=2, note=53, velocity=60, time=1),
    Message('note_on', channel=2, note=41, velocity=60, time=0),
    Message('note_on', channel=2, note=48, velocity=60, time=0),
    Message('note_on', channel=2, note=53, velocity=0, time=59),
    Message('note_on', channel=2, note=41, velocity=0, time=0),
    Message('note_on', channel=2, note=48, velocity=0, time=0),
    Message('note_on', channel=2, note=55, velocity=60, time=1),
    Message('note_on', channel=2, note=50, velocity=60, time=0),
    Message('note_on', channel=2, note=43, velocity=60, time=0),
    Message('note_on', channel=2, note=55, velocity=0, time=119),
    Message('note_on', channel=2, note=50, velocity=0, time=0),
    Message('note_on', channel=2, note=43, velocity=0, time=0),
    Message('note_on', channel=2, note=50, velocity=60, time=1),
    Message('note_on', channel=2, note=55, velocity=60, time=0),
    Message('note_on', channel=2, note=43, velocity=60, time=0),
    Message('note_on', channel=2, note=60, velocity=60, time=60),
    Message('note_on', channel=2, note=48, velocity=60, time=0),
    Message('note_on', channel=2, note=55, velocity=60, time=0),
    Message('note_on', channel=2, note=55, velocity=0, time=39),
    Message('note_on', channel=2, note=60, velocity=0, time=0),
    Message('note_on', channel=2, note=48, velocity=0, time=0),
    Message('note_on', channel=2, note=50, velocity=0, time=20),
    Message('note_on', channel=2, note=43, velocity=0, time=0),
    Message('note_on', channel=2, note=55, velocity=0, time=0),
    Message('note_on', channel=2, note=46, velocity=60, time=1),
    Message('note_on', channel=2, note=58, velocity=60, time=0),
    Message('note_on', channel=2, note=53, velocity=60, time=0),
    Message('note_on', channel=2, note=46, velocity=0, time=119),
    Message('note_on', channel=2, note=58, velocity=0, time=0),
    Message('note_on', channel=2, note=53, velocity=0, time=0),
    Message('note_on', channel=2, note=58, velocity=60, time=1),
    Message('note_on', channel=2, note=46, velocity=60, time=0),
    Message('note_on', channel=2, note=53, velocity=60, time=0),
    Message('note_on', channel=2, note=58, velocity=0, time=119),
    Message('note_on', channel=2, note=46, velocity=0, time=0),
    Message('note_on', channel=2, note=53, velocity=0, time=0),
    Message('note_on', channel=2, note=50, velocity=60, time=1),
    Message('note_on', channel=2, note=55, velocity=60, time=0),
    Message('note_on', channel=2, note=43, velocity=60, time=0),
    Message('note_on', channel=2, note=50, velocity=0, time=119),
    Message('note_on', channel=2, note=55, velocity=0, time=0),
    Message('note_on', channel=2, note=43, velocity=0, time=0),
    Message('note_on', channel=2, note=43, velocity=60, time=1),
    Message('note_on', channel=2, note=50, velocity=60, time=0),
    Message('note_on', channel=2, note=55, velocity=60, time=0),
    Message('note_on', channel=2, note=43, velocity=0, time=119),
    Message('note_on', channel=2, note=50, velocity=0, time=0),
    Message('note_on', channel=2, note=55, velocity=0, time=0),
    Message('note_on', channel=2, note=48, velocity=60, time=1),
    Message('note_on', channel=2, note=53, velocity=60, time=0),
    Message('note_on', channel=2, note=41, velocity=60, time=0),
    Message('note_on', channel=2, note=48, velocity=0, time=59),
    Message('note_on', channel=2, note=53, velocity=0, time=0),
    Message('note_on', channel=2, note=41, velocity=0, time=0),
    Message('note_on', channel=2, note=55, velocity=60, time=1),
    Message('note_on', channel=2, note=43, velocity=60, time=0),
    Message('note_on', channel=2, note=50, velocity=60, time=0),
    Message('note_on', channel=2, note=55, velocity=0, time=119),
    Message('note_on', channel=2, note=43, velocity=0, time=0),
    Message('note_on', channel=2, note=50, velocity=0, time=0),
    Message('note_on', channel=2, note=53, velocity=60, time=1),
    Message('note_on', channel=2, note=41, velocity=60, time=0),
    Message('note_on', channel=2, note=48, velocity=60, time=0),
    Message('note_on', channel=2, note=53, velocity=0, time=59),
    Message('note_on', channel=2, note=41, velocity=0, time=0),
    Message('note_on', channel=2, note=48, velocity=0, time=0),
    Message('note_on', channel=2, note=55, velocity=60, time=1),
    Message('note_on', channel=2, note=50, velocity=60, time=0),
    Message('note_on', channel=2, note=43, velocity=60, time=0),
    Message('note_on', channel=2, note=55, velocity=0, time=119),
    Message('note_on', channel=2, note=50, velocity=0, time=0),
    Message('note_on', channel=2, note=43, velocity=0, time=0),
    Message('note_on', channel=2, note=50, velocity=60, time=1),
    Message('note_on', channel=2, note=55, velocity=60, time=0),
    Message('note_on', channel=2, note=43, velocity=60, time=0),
    Message('note_on', channel=2, note=60, velocity=60, time=60),
    Message('note_on', channel=2, note=48, velocity=60, time=0),
    Message('note_on', channel=2, note=55, velocity=60, time=0),
    Message('note_on', channel=2, note=55, velocity=0, time=39),
    Message('note_on', channel=2, note=60, velocity=0, time=0),
    Message('note_on', channel=2, note=48, velocity=0, time=0),
    Message('note_on', channel=2, note=50, velocity=0, time=20),
    Message('note_on', channel=2, note=43, velocity=0, time=0),
    Message('note_on', channel=2, note=55, velocity=0, time=0),
    Message('note_on', channel=2, note=46, velocity=60, time=1),
    Message('note_on', channel=2, note=58, velocity=60, time=0),
    Message('note_on', channel=2, note=53, velocity=60, time=0),
    Message('note_on', channel=2, note=46, velocity=0, time=119),
    Message('note_on', channel=2, note=58, velocity=0, time=0),
    Message('note_on', channel=2, note=53, velocity=0, time=0),
    Message('note_on', channel=2, note=58, velocity=60, time=1),
    Message('note_on', channel=2, note=46, velocity=60, time=0),
    Message('note_on', channel=2, note=53, velocity=60, time=0),
    Message('note_on', channel=2, note=58, velocity=0, time=119),
    Message('note_on', channel=2, note=46, velocity=0, time=0),
    Message('note_on', channel=2, note=53, velocity=0, time=0),
    Message('note_on', channel=2, note=55, velocity=60, time=1),
    Message('note_on', channel=2, note=50, velocity=60, time=0),
    Message('note_on', channel=2, note=43, velocity=60, time=0),
    Message('note_on', channel=2, note=55, velocity=0, time=119),
    Message('note_on', channel=2, note=50, velocity=0, time=0),
    Message('note_on', channel=2, note=43, velocity=0, time=0),
    Message('note_on', channel=2, note=50, velocity=60, time=1),
    Message('note_on', channel=2, note=43, velocity=60, time=0),
    Message('note_on', channel=2, note=55, velocity=60, time=0),
    Message('note_on', channel=2, note=50, velocity=0, time=119),
    Message('note_on', channel=2, note=43, velocity=0, time=0),
    Message('note_on', channel=2, note=55, velocity=0, time=0),
    Message('note_on', channel=2, note=41, velocity=60, time=1),
    Message('note_on', channel=2, note=53, velocity=60, time=0),
    Message('note_on', channel=2, note=48, velocity=60, time=0),
    Message('note_on', channel=2, note=41, velocity=0, time=59),
    Message('note_on', channel=2, note=53, velocity=0, time=0),
    Message('note_on', channel=2, note=48, velocity=0, time=0),
    Message('note_on', channel=2, note=55, velocity=60, time=1),
    Message('note_on', channel=2, note=50, velocity=60, time=0),
    Message('note_on', channel=2, note=43, velocity=60, time=0),
    Message('note_on', channel=2, note=55, velocity=0, time=119),
    Message('note_on', channel=2, note=50, velocity=0, time=0),
    Message('note_on', channel=2, note=43, velocity=0, time=0),
    Message('note_on', channel=2, note=48, velocity=60, time=1),
    Message('note_on', channel=2, note=53, velocity=60, time=0),
    Message('note_on', channel=2, note=41, velocity=60, time=0),
    Message('note_on', channel=2, note=48, velocity=0, time=59),
    Message('note_on', channel=2, note=53, velocity=0, time=0),
    Message('note_on', channel=2, note=41, velocity=0, time=0),
    Message('note_on', channel=2, note=43, velocity=60, time=1),
    Message('note_on', channel=2, note=50, velocity=60, time=0),
    Message('note_on', channel=2, note=55, velocity=60, time=0),
    Message('note_on', channel=2, note=43, velocity=0, time=119),
    Message('note_on', channel=2, note=50, velocity=0, time=0),
    Message('note_on', channel=2, note=55, velocity=0, time=0),
    Message('note_on', channel=2, note=55, velocity=60, time=1),
    Message('note_on', channel=2, note=43, velocity=60, time=0),
    Message('note_on', channel=2, note=50, velocity=60, time=0),
    Message('note_on', channel=2, note=60, velocity=60, time=60),
    Message('note_on', channel=2, note=55, velocity=60, time=0),
    Message('note_on', channel=2, note=48, velocity=60, time=0),
    Message('note_on', channel=2, note=55, velocity=0, time=39),
    Message('note_on', channel=2, note=60, velocity=0, time=0),
    Message('note_on', channel=2, note=48, velocity=0, time=0),
    Message('note_on', channel=2, note=43, velocity=0, time=20),
    Message('note_on', channel=2, note=50, velocity=0, time=0),
    Message('note_on', channel=2, note=55, velocity=0, time=0),
    Message('note_on', channel=2, note=53, velocity=60, time=1),
    Message('note_on', channel=2, note=46, velocity=60, time=0),
    Message('note_on', channel=2, note=58, velocity=60, time=0),
    Message('note_on', channel=2, note=53, velocity=0, time=119),
    Message('note_on', channel=2, note=46, velocity=0, time=0),
    Message('note_on', channel=2, note=58, velocity=0, time=0),
    Message('note_on', channel=2, note=53, velocity=60, time=1),
    Message('note_on', channel=2, note=58, velocity=60, time=0),
    Message('note_on', channel=2, note=46, velocity=60, time=0),
    Message('note_on', channel=2, note=53, velocity=0, time=119),
    Message('note_on', channel=2, note=58, velocity=0, time=0),
    Message('note_on', channel=2, note=46, velocity=0, time=0),
    Message('note_on', channel=2, note=43, velocity=60, time=1),
    Message('note_on', channel=2, note=55, velocity=60, time=0),
    Message('note_on', channel=2, note=50, velocity=60, time=0),
    Message('note_on', channel=2, note=43, velocity=0, time=119),
    Message('note_on', channel=2, note=55, velocity=0, time=0),
    Message('note_on', channel=2, note=50, velocity=0, time=0),
    Message('note_on', channel=2, note=50, velocity=60, time=1),
    Message('note_on', channel=2, note=55, velocity=60, time=0),
    Message('note_on', channel=2, note=43, velocity=60, time=0),
    Message('note_on', channel=2, note=50, velocity=0, time=119),
    Message('note_on', channel=2, note=55, velocity=0, time=0),
    Message('note_on', channel=2, note=43, velocity=0, time=0),
    Message('note_on', channel=2, note=48, velocity=60, time=1),
    Message('note_on', channel=2, note=41, velocity=60, time=0),
    Message('note_on', channel=2, note=53, velocity=60, time=0),
    Message('note_on', channel=2, note=48, velocity=0, time=59),
    Message('note_on', channel=2, note=41, velocity=0, time=0),
    Message('note_on', channel=2, note=53, velocity=0, time=0),
    Message('note_on', channel=2, note=50, velocity=60, time=1),
    Message('note_on', channel=2, note=55, velocity=60, time=0),
    Message('note_on', channel=2, note=43, velocity=60, time=0),
    Message('note_on', channel=2, note=50, velocity=0, time=119),
    Message('note_on', channel=2, note=55, velocity=0, time=0),
    Message('note_on', channel=2, note=43, velocity=0, time=0),
    Message('note_on', channel=2, note=48, velocity=60, time=1),
    Message('note_on', channel=2, note=53, velocity=60, time=0),
    Message('note_on', channel=2, note=41, velocity=60, time=0),
    Message('note_on', channel=2, note=48, velocity=0, time=59),
    Message('note_on', channel=2, note=53, velocity=0, time=0),
    Message('note_on', channel=2, note=41, velocity=0, time=0),
    Message('note_on', channel=2, note=48, velocity=60, time=1),
    Message('note_on', channel=2, note=60, velocity=60, time=0),
    Message('note_on', channel=2, note=55, velocity=60, time=0),
    Message('note_on', channel=2, note=48, velocity=0, time=59),
    Message('note_on', channel=2, note=60, velocity=0, time=0),
    Message('note_on', channel=2, note=55, velocity=0, time=0),
    Message('note_on', channel=2, note=48, velocity=60, time=1),
    Message('note_on', channel=2, note=60, velocity=60, time=0),
    Message('note_on', channel=2, note=55, velocity=60, time=0),
    Message('note_on', channel=2, note=48, velocity=0, time=59),
    Message('note_on', channel=2, note=60, velocity=0, time=0),
    Message('note_on', channel=2, note=55, velocity=0, time=0),
    Message('note_on', channel=2, note=55, velocity=60, time=1),
    Message('note_on', channel=2, note=60, velocity=60, time=0),
    Message('note_on', channel=2, note=48, velocity=60, time=0),
    Message('note_on', channel=2, note=55, velocity=0, time=59),
    Message('note_on', channel=2, note=60, velocity=0, time=0),
    Message('note_on', channel=2, note=48, velocity=0, time=0),
    Message('note_on', channel=2, note=55, velocity=60, time=1),
    Message('note_on', channel=2, note=48, velocity=60, time=0),
    Message('note_on', channel=2, note=60, velocity=60, time=0),
    Message('note_on', channel=2, note=55, velocity=0, time=59),
    Message('note_on', channel=2, note=48, velocity=0, time=0),
    Message('note_on', channel=2, note=60, velocity=0, time=0),
    Message('note_on', channel=2, note=55, velocity=60, time=1),
    Message('note_on', channel=2, note=48, velocity=60, time=0),
    Message('note_on', channel=2, note=60, velocity=60, time=0),
    Message('note_on', channel=2, note=55, velocity=0, time=59),
    Message('note_on', channel=2, note=48, velocity=0, time=0),
    Message('note_on', channel=2, note=60, velocity=0, time=0),
    Message('note_on', channel=2, note=48, velocity=60, time=1),
    Message('note_on', channel=2, note=60, velocity=60, time=0),
    Message('note_on', channel=2, note=48, velocity=0, time=59),
    Message('note_on', channel=2, note=60, velocity=0, time=0),
    Message('note_on', channel=2, note=55, velocity=60, time=1),
    Message('note_on', channel=2, note=48, velocity=60, time=0),
    Message('note_on', channel=2, note=60, velocity=60, time=0),
    Message('note_on', channel=2, note=55, velocity=0, time=59),
    Message('note_on', channel=2, note=48, velocity=0, time=0),
    Message('note_on', channel=2, note=60, velocity=0, time=0),
    Message('note_on', channel=2, note=48, velocity=60, time=1),
    Message('note_on', channel=2, note=60, velocity=60, time=0),
    Message('note_on', channel=2, note=55, velocity=60, time=0),
    Message('note_on', channel=2, note=48, velocity=0, time=59),
    Message('note_on', channel=2, note=60, velocity=0, time=0),
    Message('note_on', channel=2, note=55, velocity=0, time=0),
    Message('note_on', channel=2, note=45, velocity=60, time=1),
    Message('note_on', channel=2, note=57, velocity=60, time=0),
    Message('note_on', channel=2, note=52, velocity=60, time=0),
    Message('note_on', channel=2, note=45, velocity=0, time=59),
    Message('note_on', channel=2, note=57, velocity=0, time=0),
    Message('note_on', channel=2, note=52, velocity=0, time=0),
    Message('note_on', channel=2, note=52, velocity=60, time=1),
    Message('note_on', channel=2, note=57, velocity=60, time=0),
    Message('note_on', channel=2, note=45, velocity=60, time=0),
    Message('note_on', channel=2, note=52, velocity=0, time=59),
    Message('note_on', channel=2, note=57, velocity=0, time=0),
    Message('note_on', channel=2, note=45, velocity=0, time=0),
    Message('note_on', channel=2, note=52, velocity=60, time=1),
    Message('note_on', channel=2, note=45, velocity=60, time=0),
    Message('note_on', channel=2, note=57, velocity=60, time=0),
    Message('note_on', channel=2, note=52, velocity=0, time=59),
    Message('note_on', channel=2, note=45, velocity=0, time=0),
    Message('note_on', channel=2, note=57, velocity=0, time=0),
    Message('note_on', channel=2, note=52, velocity=60, time=1),
    Message('note_on', channel=2, note=45, velocity=60, time=0),
    Message('note_on', channel=2, note=57, velocity=60, time=0),
    Message('note_on', channel=2, note=52, velocity=0, time=59),
    Message('note_on', channel=2, note=45, velocity=0, time=0),
    Message('note_on', channel=2, note=57, velocity=0, time=0),
    Message('note_on', channel=2, note=45, velocity=60, time=1),
    Message('note_on', channel=2, note=57, velocity=60, time=0),
    Message('note_on', channel=2, note=52, velocity=60, time=0),
    Message('note_on', channel=2, note=45, velocity=0, time=59),
    Message('note_on', channel=2, note=57, velocity=0, time=0),
    Message('note_on', channel=2, note=52, velocity=0, time=0),
    Message('note_on', channel=2, note=45, velocity=60, time=1),
    Message('note_on', channel=2, note=38, velocity=60, time=0),
    Message('note_on', channel=2, note=50, velocity=60, time=0),
    Message('note_on', channel=2, note=45, velocity=0, time=59),
    Message('note_on', channel=2, note=50, velocity=0, time=0),
    Message('note_on', channel=2, note=41, velocity=60, time=1),
    Message('note_on', channel=2, note=53, velocity=60, time=0),
    Message('note_on', channel=2, note=48, velocity=60, time=0),
    Message('note_on', channel=2, note=38, velocity=0, time=19),
    Message('note_on', channel=2, note=41, velocity=0, time=60),
    Message('note_on', channel=2, note=53, velocity=0, time=40),
    Message('note_on', channel=2, note=48, velocity=0, time=0),
    Message('note_on', channel=2, note=57, velocity=60, time=9121),
    Message('note_on', channel=2, note=45, velocity=60, time=0),
    Message('note_on', channel=2, note=52, velocity=60, time=0),
    Message('note_on', channel=2, note=57, velocity=0, time=59),
    Message('note_on', channel=2, note=45, velocity=0, time=0),
    Message('note_on', channel=2, note=52, velocity=0, time=0),
    Message('note_on', channel=2, note=52, velocity=60, time=1),
    Message('note_on', channel=2, note=57, velocity=60, time=0),
    Message('note_on', channel=2, note=45, velocity=60, time=0),
    Message('note_on', channel=2, note=52, velocity=0, time=59),
    Message('note_on', channel=2, note=57, velocity=0, time=0),
    Message('note_on', channel=2, note=45, velocity=0, time=0),
    Message('note_on', channel=2, note=52, velocity=60, time=1),
    Message('note_on', channel=2, note=45, velocity=60, time=0),
    Message('note_on', channel=2, note=57, velocity=60, time=0),
    Message('note_on', channel=2, note=52, velocity=0, time=59),
    Message('note_on', channel=2, note=45, velocity=0, time=0),
    Message('note_on', channel=2, note=57, velocity=0, time=0),
    Message('note_on', channel=2, note=57, velocity=60, time=1),
    Message('note_on', channel=2, note=52, velocity=60, time=0),
    Message('note_on', channel=2, note=45, velocity=60, time=0),
    Message('note_on', channel=2, note=57, velocity=0, time=29),
    Message('note_on', channel=2, note=52, velocity=0, time=0),
    Message('note_on', channel=2, note=45, velocity=0, time=0),
    Message('note_on', channel=2, note=57, velocity=60, time=1),
    Message('note_on', channel=2, note=52, velocity=60, time=0),
    Message('note_on', channel=2, note=45, velocity=60, time=0),
    Message('note_on', channel=2, note=57, velocity=0, time=29),
    Message('note_on', channel=2, note=52, velocity=0, time=0),
    Message('note_on', channel=2, note=45, velocity=0, time=0),
    Message('note_on', channel=2, note=45, velocity=60, time=1),
    Message('note_on', channel=2, note=52, velocity=60, time=0),
    Message('note_on', channel=2, note=57, velocity=60, time=0),
    Message('note_on', channel=2, note=45, velocity=0, time=59),
    Message('note_on', channel=2, note=52, velocity=0, time=0),
    Message('note_on', channel=2, note=57, velocity=0, time=0),
    Message('note_on', channel=2, note=48, velocity=60, time=1),
    Message('note_on', channel=2, note=60, velocity=60, time=0),
    Message('note_on', channel=2, note=55, velocity=60, time=0),
    Message('note_on', channel=2, note=48, velocity=0, time=59),
    Message('note_on', channel=2, note=60, velocity=0, time=0),
    Message('note_on', channel=2, note=55, velocity=0, time=0),
    Message('note_on', channel=2, note=55, velocity=60, time=1),
    Message('note_on', channel=2, note=48, velocity=60, time=0),
    Message('note_on', channel=2, note=60, velocity=60, time=0),
    Message('note_on', channel=2, note=55, velocity=0, time=119),
    Message('note_on', channel=2, note=48, velocity=0, time=0),
    Message('note_on', channel=2, note=60, velocity=0, time=0),
    Message('note_on', channel=2, note=38, velocity=60, time=1),
    Message('note_on', channel=2, note=45, velocity=60, time=0),
    Message('note_on', channel=2, note=50, velocity=60, time=0),
    Message('note_on', channel=2, note=38, velocity=0, time=119),
    Message('note_on', channel=2, note=45, velocity=0, time=0),
    Message('note_on', channel=2, note=50, velocity=0, time=0),
    Message('note_on', channel=2, note=38, velocity=60, time=1),
    Message('note_on', channel=2, note=45, velocity=60, time=0),
    Message('note_on', channel=2, note=50, velocity=60, time=0),
    Message('note_on', channel=2, note=38, velocity=0, time=119),
    Message('note_on', channel=2, note=45, velocity=0, time=0),
    Message('note_on', channel=2, note=50, velocity=0, time=0),
    Message('note_on', channel=2, note=42, velocity=60, time=1),
    Message('note_on', channel=2, note=49, velocity=60, time=0),
    Message('note_on', channel=2, note=54, velocity=60, time=0),
    Message('note_on', channel=2, note=42, velocity=0, time=119),
    Message('note_on', channel=2, note=49, velocity=0, time=0),
    Message('note_on', channel=2, note=54, velocity=0, time=0),
    Message('note_on', channel=2, note=42, velocity=60, time=1),
    Message('note_on', channel=2, note=49, velocity=60, time=0),
    Message('note_on', channel=2, note=54, velocity=60, time=0),
    Message('note_on', channel=2, note=42, velocity=0, time=119),
    Message('note_on', channel=2, note=49, velocity=0, time=0),
    Message('note_on', channel=2, note=54, velocity=0, time=0),
    Message('note_on', channel=2, note=47, velocity=60, time=1),
    Message('note_on', channel=2, note=54, velocity=60, time=0),
    Message('note_on', channel=2, note=59, velocity=60, time=0),
    Message('note_on', channel=2, note=47, velocity=0, time=119),
    Message('note_on', channel=2, note=54, velocity=0, time=0),
    Message('note_on', channel=2, note=59, velocity=0, time=0),
    Message('note_on', channel=2, note=47, velocity=60, time=1),
    Message('note_on', channel=2, note=54, velocity=60, time=0),
    Message('note_on', channel=2, note=59, velocity=60, time=0),
    Message('note_on', channel=2, note=47, velocity=0, time=119),
    Message('note_on', channel=2, note=54, velocity=0, time=0),
    Message('note_on', channel=2, note=59, velocity=0, time=0),
    Message('note_on', channel=2, note=43, velocity=60, time=1),
    Message('note_on', channel=2, note=50, velocity=60, time=0),
    Message('note_on', channel=2, note=55, velocity=60, time=0),
    Message('note_on', channel=2, note=43, velocity=0, time=119),
    Message('note_on', channel=2, note=50, velocity=0, time=0),
    Message('note_on', channel=2, note=55, velocity=0, time=0),
    Message('note_on', channel=2, note=43, velocity=60, time=1),
    Message('note_on', channel=2, note=50, velocity=60, time=0),
    Message('note_on', channel=2, note=55, velocity=60, time=0),
    Message('note_on', channel=2, note=43, velocity=0, time=119),
    Message('note_on', channel=2, note=50, velocity=0, time=0),
    Message('note_on', channel=2, note=55, velocity=0, time=0),
    Message('note_on', channel=2, note=46, velocity=60, time=1),
    Message('note_on', channel=2, note=53, velocity=60, time=0),
    Message('note_on', channel=2, note=58, velocity=60, time=0),
    Message('note_on', channel=2, note=46, velocity=0, time=59),
    Message('note_on', channel=2, note=53, velocity=0, time=0),
    Message('note_on', channel=2, note=58, velocity=0, time=0),
    Message('note_on', channel=2, note=46, velocity=60, time=1),
    Message('note_on', channel=2, note=53, velocity=60, time=0),
    Message('note_on', channel=2, note=58, velocity=60, time=0),
    Message('note_on', channel=2, note=46, velocity=0, time=59),
    Message('note_on', channel=2, note=53, velocity=0, time=0),
    Message('note_on', channel=2, note=58, velocity=0, time=0),
    Message('note_on', channel=2, note=46, velocity=60, time=1),
    Message('note_on', channel=2, note=53, velocity=60, time=0),
    Message('note_on', channel=2, note=58, velocity=60, time=0),
    Message('note_on', channel=2, note=46, velocity=0, time=59),
    Message('note_on', channel=2, note=53, velocity=0, time=0),
    Message('note_on', channel=2, note=58, velocity=0, time=0),
    Message('note_on', channel=2, note=46, velocity=60, time=1),
    Message('note_on', channel=2, note=53, velocity=60, time=0),
    Message('note_on', channel=2, note=58, velocity=60, time=0),
    Message('note_on', channel=2, note=46, velocity=0, time=29),
    Message('note_on', channel=2, note=53, velocity=0, time=0),
    Message('note_on', channel=2, note=58, velocity=0, time=0),
    Message('note_on', channel=2, note=46, velocity=60, time=1),
    Message('note_on', channel=2, note=53, velocity=60, time=0),
    Message('note_on', channel=2, note=58, velocity=60, time=0),
    Message('note_on', channel=2, note=46, velocity=0, time=29),
    Message('note_on', channel=2, note=53, velocity=0, time=0),
    Message('note_on', channel=2, note=58, velocity=0, time=0),
    Message('note_on', channel=2, note=46, velocity=60, time=1),
    Message('note_on', channel=2, note=53, velocity=60, time=0),
    Message('note_on', channel=2, note=58, velocity=60, time=0),
    Message('note_on', channel=2, note=46, velocity=0, time=59),
    Message('note_on', channel=2, note=53, velocity=0, time=0),
    Message('note_on', channel=2, note=58, velocity=0, time=0),
    Message('note_on', channel=2, note=48, velocity=60, time=1),
    Message('note_on', channel=2, note=55, velocity=60, time=0),
    Message('note_on', channel=2, note=60, velocity=60, time=0),
    Message('note_on', channel=2, note=48, velocity=0, time=59),
    Message('note_on', channel=2, note=55, velocity=0, time=0),
    Message('note_on', channel=2, note=60, velocity=0, time=0),
    Message('note_on', channel=2, note=48, velocity=60, time=1),
    Message('note_on', channel=2, note=55, velocity=60, time=0),
    Message('note_on', channel=2, note=60, velocity=60, time=0),
    Message('note_on', channel=2, note=48, velocity=0, time=119),
    Message('note_on', channel=2, note=55, velocity=0, time=0),
    Message('note_on', channel=2, note=60, velocity=0, time=0),
    Message('note_on', channel=2, note=57, velocity=60, time=1),
    Message('note_on', channel=2, note=52, velocity=60, time=0),
    Message('note_on', channel=2, note=45, velocity=60, time=0),
    Message('note_on', channel=2, note=57, velocity=0, time=59),
    Message('note_on', channel=2, note=52, velocity=0, time=0),
    Message('note_on', channel=2, note=45, velocity=0, time=0),
    Message('note_on', channel=2, note=57, velocity=60, time=1),
    Message('note_on', channel=2, note=52, velocity=60, time=0),
    Message('note_on', channel=2, note=45, velocity=60, time=0),
    Message('note_on', channel=2, note=57, velocity=0, time=59),
    Message('note_on', channel=2, note=52, velocity=0, time=0),
    Message('note_on', channel=2, note=45, velocity=0, time=0),
    Message('note_on', channel=2, note=45, velocity=60, time=1),
    Message('note_on', channel=2, note=52, velocity=60, time=0),
    Message('note_on', channel=2, note=57, velocity=60, time=0),
    Message('note_on', channel=2, note=45, velocity=0, time=59),
    Message('note_on', channel=2, note=52, velocity=0, time=0),
    Message('note_on', channel=2, note=57, velocity=0, time=0),
    Message('note_on', channel=2, note=57, velocity=60, time=1),
    Message('note_on', channel=2, note=52, velocity=60, time=0),
    Message('note_on', channel=2, note=45, velocity=60, time=0),
    Message('note_on', channel=2, note=57, velocity=0, time=29),
    Message('note_on', channel=2, note=52, velocity=0, time=0),
    Message('note_on', channel=2, note=45, velocity=0, time=0),
    Message('note_on', channel=2, note=57, velocity=60, time=1),
    Message('note_on', channel=2, note=52, velocity=60, time=0),
    Message('note_on', channel=2, note=45, velocity=60, time=0),
    Message('note_on', channel=2, note=57, velocity=0, time=29),
    Message('note_on', channel=2, note=52, velocity=0, time=0),
    Message('note_on', channel=2, note=45, velocity=0, time=0),
    Message('note_on', channel=2, note=57, velocity=60, time=1),
    Message('note_on', channel=2, note=52, velocity=60, time=0),
    Message('note_on', channel=2, note=45, velocity=60, time=0),
    Message('note_on', channel=2, note=57, velocity=0, time=59),
    Message('note_on', channel=2, note=52, velocity=0, time=0),
    Message('note_on', channel=2, note=45, velocity=0, time=0),
    Message('note_on', channel=2, note=60, velocity=60, time=1),
    Message('note_on', channel=2, note=55, velocity=60, time=0),
    Message('note_on', channel=2, note=48, velocity=60, time=0),
    Message('note_on', channel=2, note=60, velocity=0, time=59),
    Message('note_on', channel=2, note=55, velocity=0, time=0),
    Message('note_on', channel=2, note=48, velocity=0, time=0),
    Message('note_on', channel=2, note=60, velocity=60, time=1),
    Message('note_on', channel=2, note=55, velocity=60, time=0),
    Message('note_on', channel=2, note=48, velocity=60, time=0),
    Message('note_on', channel=2, note=60, velocity=0, time=119),
    Message('note_on', channel=2, note=55, velocity=0, time=0),
    Message('note_on', channel=2, note=48, velocity=0, time=0),
    Message('note_on', channel=2, note=38, velocity=60, time=1),
    Message('note_on', channel=2, note=45, velocity=60, time=0),
    Message('note_on', channel=2, note=50, velocity=60, time=0),
    Message('note_on', channel=2, note=38, velocity=0, time=119),
    Message('note_on', channel=2, note=45, velocity=0, time=0),
    Message('note_on', channel=2, note=50, velocity=0, time=0),
    Message('note_on', channel=2, note=38, velocity=60, time=1),
    Message('note_on', channel=2, note=45, velocity=60, time=0),
    Message('note_on', channel=2, note=50, velocity=60, time=0),
    Message('note_on', channel=2, note=38, velocity=0, time=119),
    Message('note_on', channel=2, note=45, velocity=0, time=0),
    Message('note_on', channel=2, note=50, velocity=0, time=0),
    Message('note_on', channel=2, note=42, velocity=60, time=1),
    Message('note_on', channel=2, note=49, velocity=60, time=0),
    Message('note_on', channel=2, note=54, velocity=60, time=0),
    Message('note_on', channel=2, note=42, velocity=0, time=119),
    Message('note_on', channel=2, note=49, velocity=0, time=0),
    Message('note_on', channel=2, note=54, velocity=0, time=0),
    Message('note_on', channel=2, note=42, velocity=60, time=1),
    Message('note_on', channel=2, note=49, velocity=60, time=0),
    Message('note_on', channel=2, note=54, velocity=60, time=0),
    Message('note_on', channel=2, note=42, velocity=0, time=119),
    Message('note_on', channel=2, note=49, velocity=0, time=0),
    Message('note_on', channel=2, note=54, velocity=0, time=0),
    Message('note_on', channel=2, note=47, velocity=60, time=1),
    Message('note_on', channel=2, note=54, velocity=60, time=0),
    Message('note_on', channel=2, note=59, velocity=60, time=0),
    Message('note_on', channel=2, note=47, velocity=0, time=119),
    Message('note_on', channel=2, note=54, velocity=0, time=0),
    Message('note_on', channel=2, note=59, velocity=0, time=0),
    Message('note_on', channel=2, note=47, velocity=60, time=1),
    Message('note_on', channel=2, note=54, velocity=60, time=0),
    Message('note_on', channel=2, note=59, velocity=60, time=0),
    Message('note_on', channel=2, note=47, velocity=0, time=119),
    Message('note_on', channel=2, note=54, velocity=0, time=0),
    Message('note_on', channel=2, note=59, velocity=0, time=0),
    Message('note_on', channel=2, note=43, velocity=60, time=1),
    Message('note_on', channel=2, note=50, velocity=60, time=0),
    Message('note_on', channel=2, note=55, velocity=60, time=0),
    Message('note_on', channel=2, note=43, velocity=0, time=119),
    Message('note_on', channel=2, note=50, velocity=0, time=0),
    Message('note_on', channel=2, note=55, velocity=0, time=0),
    Message('note_on', channel=2, note=43, velocity=60, time=1),
    Message('note_on', channel=2, note=50, velocity=60, time=0),
    Message('note_on', channel=2, note=55, velocity=60, time=0),
    Message('note_on', channel=2, note=43, velocity=0, time=119),
    Message('note_on', channel=2, note=50, velocity=0, time=0),
    Message('note_on', channel=2, note=55, velocity=0, time=0),
    Message('note_on', channel=2, note=46, velocity=60, time=1),
    Message('note_on', channel=2, note=53, velocity=60, time=0),
    Message('note_on', channel=2, note=58, velocity=60, time=0),
    Message('note_on', channel=2, note=46, velocity=0, time=59),
    Message('note_on', channel=2, note=53, velocity=0, time=0),
    Message('note_on', channel=2, note=58, velocity=0, time=0),
    Message('note_on', channel=2, note=46, velocity=60, time=1),
    Message('note_on', channel=2, note=53, velocity=60, time=0),
    Message('note_on', channel=2, note=58, velocity=60, time=0),
    Message('note_on', channel=2, note=46, velocity=0, time=59),
    Message('note_on', channel=2, note=53, velocity=0, time=0),
    Message('note_on', channel=2, note=58, velocity=0, time=0),
    Message('note_on', channel=2, note=46, velocity=60, time=1),
    Message('note_on', channel=2, note=53, velocity=60, time=0),
    Message('note_on', channel=2, note=58, velocity=60, time=0),
    Message('note_on', channel=2, note=46, velocity=0, time=59),
    Message('note_on', channel=2, note=53, velocity=0, time=0),
    Message('note_on', channel=2, note=58, velocity=0, time=0),
    Message('note_on', channel=2, note=46, velocity=60, time=1),
    Message('note_on', channel=2, note=53, velocity=60, time=0),
    Message('note_on', channel=2, note=58, velocity=60, time=0),
    Message('note_on', channel=2, note=46, velocity=0, time=29),
    Message('note_on', channel=2, note=53, velocity=0, time=0),
    Message('note_on', channel=2, note=58, velocity=0, time=0),
    Message('note_on', channel=2, note=53, velocity=60, time=1),
    Message('note_on', channel=2, note=58, velocity=60, time=0),
    Message('note_on', channel=2, note=46, velocity=60, time=0),
    Message('note_on', channel=2, note=53, velocity=0, time=29),
    Message('note_on', channel=2, note=58, velocity=0, time=0),
    Message('note_on', channel=2, note=46, velocity=0, time=0),
    Message('note_on', channel=2, note=46, velocity=60, time=1),
    Message('note_on', channel=2, note=58, velocity=60, time=0),
    Message('note_on', channel=2, note=53, velocity=60, time=0),
    Message('note_on', channel=2, note=46, velocity=0, time=59),
    Message('note_on', channel=2, note=58, velocity=0, time=0),
    Message('note_on', channel=2, note=53, velocity=0, time=0),
    Message('note_on', channel=2, note=55, velocity=60, time=1),
    Message('note_on', channel=2, note=60, velocity=60, time=0),
    Message('note_on', channel=2, note=48, velocity=60, time=0),
    Message('note_on', channel=2, note=55, velocity=0, time=59),
    Message('note_on', channel=2, note=60, velocity=0, time=0),
    Message('note_on', channel=2, note=48, velocity=0, time=0),
    Message('note_on', channel=2, note=55, velocity=60, time=1),
    Message('note_on', channel=2, note=48, velocity=60, time=0),
    Message('note_on', channel=2, note=60, velocity=60, time=0),
    Message('note_on', channel=2, note=55, velocity=0, time=119),
    Message('note_on', channel=2, note=48, velocity=0, time=0),
    Message('note_on', channel=2, note=60, velocity=0, time=0),
    Message('note_on', channel=2, note=52, velocity=60, time=1),
    Message('note_on', channel=2, note=45, velocity=60, time=0),
    Message('note_on', channel=2, note=57, velocity=60, time=0),
    Message('note_on', channel=2, note=52, velocity=0, time=59),
    Message('note_on', channel=2, note=45, velocity=0, time=0),
    Message('note_on', channel=2, note=57, velocity=0, time=0),
    Message('note_on', channel=2, note=45, velocity=60, time=1),
    Message('note_on', channel=2, note=52, velocity=60, time=0),
    Message('note_on', channel=2, note=57, velocity=60, time=0),
    Message('note_on', channel=2, note=45, velocity=0, time=59),
    Message('note_on', channel=2, note=52, velocity=0, time=0),
    Message('note_on', channel=2, note=57, velocity=0, time=0),
    Message('note_on', channel=2, note=45, velocity=60, time=1),
    Message('note_on', channel=2, note=52, velocity=60, time=0),
    Message('note_on', channel=2, note=57, velocity=60, time=0),
    Message('note_on', channel=2, note=45, velocity=0, time=59),
    Message('note_on', channel=2, note=52, velocity=0, time=0),
    Message('note_on', channel=2, note=57, velocity=0, time=0),
    Message('note_on', channel=2, note=57, velocity=60, time=1),
    Message('note_on', channel=2, note=52, velocity=60, time=0),
    Message('note_on', channel=2, note=45, velocity=60, time=0),
    Message('note_on', channel=2, note=57, velocity=0, time=29),
    Message('note_on', channel=2, note=52, velocity=0, time=0),
    Message('note_on', channel=2, note=45, velocity=0, time=0),
    Message('note_on', channel=2, note=45, velocity=60, time=1),
    Message('note_on', channel=2, note=57, velocity=60, time=0),
    Message('note_on', channel=2, note=52, velocity=60, time=0),
    Message('note_on', channel=2, note=45, velocity=0, time=29),
    Message('note_on', channel=2, note=57, velocity=0, time=0),
    Message('note_on', channel=2, note=52, velocity=0, time=0),
    Message('note_on', channel=2, note=52, velocity=60, time=1),
    Message('note_on', channel=2, note=45, velocity=60, time=0),
    Message('note_on', channel=2, note=57, velocity=60, time=0),
    Message('note_on', channel=2, note=52, velocity=0, time=59),
    Message('note_on', channel=2, note=45, velocity=0, time=0),
    Message('note_on', channel=2, note=57, velocity=0, time=0),
    Message('note_on', channel=2, note=48, velocity=60, time=1),
    Message('note_on', channel=2, note=55, velocity=60, time=0),
    Message('note_on', channel=2, note=60, velocity=60, time=0),
    Message('note_on', channel=2, note=48, velocity=0, time=59),
    Message('note_on', channel=2, note=55, velocity=0, time=0),
    Message('note_on', channel=2, note=60, velocity=0, time=0),
    Message('note_on', channel=2, note=55, velocity=60, time=1),
    Message('note_on', channel=2, note=48, velocity=60, time=0),
    Message('note_on', channel=2, note=60, velocity=60, time=0),
    Message('note_on', channel=2, note=55, velocity=0, time=119),
    Message('note_on', channel=2, note=48, velocity=0, time=0),
    Message('note_on', channel=2, note=60, velocity=0, time=0),
    Message('note_on', channel=2, note=38, velocity=60, time=1),
    Message('note_on', channel=2, note=50, velocity=60, time=0),
    Message('note_on', channel=2, note=45, velocity=60, time=0),
    Message('note_on', channel=2, note=38, velocity=0, time=119),
    Message('note_on', channel=2, note=50, velocity=0, time=0),
    Message('note_on', channel=2, note=45, velocity=0, time=0),
    Message('note_on', channel=2, note=38, velocity=60, time=1),
    Message('note_on', channel=2, note=50, velocity=60, time=0),
    Message('note_on', channel=2, note=45, velocity=60, time=0),
    Message('note_on', channel=2, note=38, velocity=0, time=119),
    Message('note_on', channel=2, note=50, velocity=0, time=0),
    Message('note_on', channel=2, note=45, velocity=0, time=0),
    Message('note_on', channel=2, note=49, velocity=60, time=1),
    Message('note_on', channel=2, note=54, velocity=60, time=0),
    Message('note_on', channel=2, note=42, velocity=60, time=0),
    Message('note_on', channel=2, note=49, velocity=0, time=119),
    Message('note_on', channel=2, note=54, velocity=0, time=0),
    Message('note_on', channel=2, note=42, velocity=0, time=0),
    Message('note_on', channel=2, note=49, velocity=60, time=1),
    Message('note_on', channel=2, note=42, velocity=60, time=0),
    Message('note_on', channel=2, note=54, velocity=60, time=0),
    Message('note_on', channel=2, note=49, velocity=0, time=119),
    Message('note_on', channel=2, note=42, velocity=0, time=0),
    Message('note_on', channel=2, note=54, velocity=0, time=0),
    Message('note_on', channel=2, note=54, velocity=60, time=1),
    Message('note_on', channel=2, note=47, velocity=60, time=0),
    Message('note_on', channel=2, note=59, velocity=60, time=0),
    Message('note_on', channel=2, note=54, velocity=0, time=119),
    Message('note_on', channel=2, note=47, velocity=0, time=0),
    Message('note_on', channel=2, note=59, velocity=0, time=0),
    Message('note_on', channel=2, note=47, velocity=60, time=1),
    Message('note_on', channel=2, note=59, velocity=60, time=0),
    Message('note_on', channel=2, note=54, velocity=60, time=0),
    Message('note_on', channel=2, note=47, velocity=0, time=119),
    Message('note_on', channel=2, note=59, velocity=0, time=0),
    Message('note_on', channel=2, note=54, velocity=0, time=0),
    Message('note_on', channel=2, note=43, velocity=60, time=1),
    Message('note_on', channel=2, note=55, velocity=60, time=0),
    Message('note_on', channel=2, note=50, velocity=60, time=0),
    Message('note_on', channel=2, note=43, velocity=0, time=119),
    Message('note_on', channel=2, note=55, velocity=0, time=0),
    Message('note_on', channel=2, note=50, velocity=0, time=0),
    Message('note_on', channel=2, note=50, velocity=60, time=1),
    Message('note_on', channel=2, note=55, velocity=60, time=0),
    Message('note_on', channel=2, note=43, velocity=60, time=0),
    Message('note_on', channel=2, note=50, velocity=0, time=119),
    Message('note_on', channel=2, note=55, velocity=0, time=0),
    Message('note_on', channel=2, note=43, velocity=0, time=0),
    Message('note_on', channel=2, note=53, velocity=60, time=1),
    Message('note_on', channel=2, note=46, velocity=60, time=0),
    Message('note_on', channel=2, note=58, velocity=60, time=0),
    Message('note_on', channel=2, note=53, velocity=0, time=59),
    Message('note_on', channel=2, note=46, velocity=0, time=0),
    Message('note_on', channel=2, note=58, velocity=0, time=0),
    Message('note_on', channel=2, note=53, velocity=60, time=1),
    Message('note_on', channel=2, note=46, velocity=60, time=0),
    Message('note_on', channel=2, note=58, velocity=60, time=0),
    Message('note_on', channel=2, note=53, velocity=0, time=59),
    Message('note_on', channel=2, note=46, velocity=0, time=0),
    Message('note_on', channel=2, note=58, velocity=0, time=0),
    Message('note_on', channel=2, note=46, velocity=60, time=1),
    Message('note_on', channel=2, note=58, velocity=60, time=0),
    Message('note_on', channel=2, note=53, velocity=60, time=0),
    Message('note_on', channel=2, note=46, velocity=0, time=59),
    Message('note_on', channel=2, note=58, velocity=0, time=0),
    Message('note_on', channel=2, note=53, velocity=0, time=0),
    Message('note_on', channel=2, note=46, velocity=60, time=1),
    Message('note_on', channel=2, note=58, velocity=60, time=0),
    Message('note_on', channel=2, note=53, velocity=60, time=0),
    Message('note_on', channel=2, note=46, velocity=0, time=29),
    Message('note_on', channel=2, note=58, velocity=0, time=0),
    Message('note_on', channel=2, note=53, velocity=0, time=0),
    Message('note_on', channel=2, note=53, velocity=60, time=1),
    Message('note_on', channel=2, note=58, velocity=60, time=0),
    Message('note_on', channel=2, note=46, velocity=60, time=0),
    Message('note_on', channel=2, note=53, velocity=0, time=29),
    Message('note_on', channel=2, note=58, velocity=0, time=0),
    Message('note_on', channel=2, note=46, velocity=0, time=0),
    Message('note_on', channel=2, note=53, velocity=60, time=1),
    Message('note_on', channel=2, note=46, velocity=60, time=0),
    Message('note_on', channel=2, note=58, velocity=60, time=0),
    Message('note_on', channel=2, note=53, velocity=0, time=59),
    Message('note_on', channel=2, note=46, velocity=0, time=0),
    Message('note_on', channel=2, note=58, velocity=0, time=0),
    Message('note_on', channel=2, note=55, velocity=60, time=1),
    Message('note_on', channel=2, note=48, velocity=60, time=0),
    Message('note_on', channel=2, note=60, velocity=60, time=0),
    Message('note_on', channel=2, note=55, velocity=0, time=59),
    Message('note_on', channel=2, note=48, velocity=0, time=0),
    Message('note_on', channel=2, note=60, velocity=0, time=0),
    Message('note_on', channel=2, note=48, velocity=60, time=1),
    Message('note_on', channel=2, note=60, velocity=60, time=0),
    Message('note_on', channel=2, note=55, velocity=60, time=0),
    Message('note_on', channel=2, note=48, velocity=0, time=119),
    Message('note_on', channel=2, note=60, velocity=0, time=0),
    Message('note_on', channel=2, note=55, velocity=0, time=0),
    Message('note_on', channel=2, note=45, velocity=60, time=1),
    Message('note_on', channel=2, note=57, velocity=60, time=0),
    Message('note_on', channel=2, note=52, velocity=60, time=0),
    Message('note_on', channel=2, note=45, velocity=0, time=59),
    Message('note_on', channel=2, note=57, velocity=0, time=0),
    Message('note_on', channel=2, note=52, velocity=0, time=0),
    Message('note_on', channel=2, note=57, velocity=60, time=1),
    Message('note_on', channel=2, note=52, velocity=60, time=0),
    Message('note_on', channel=2, note=45, velocity=60, time=0),
    Message('note_on', channel=2, note=57, velocity=0, time=59),
    Message('note_on', channel=2, note=52, velocity=0, time=0),
    Message('note_on', channel=2, note=45, velocity=0, time=0),
    Message('note_on', channel=2, note=57, velocity=60, time=1),
    Message('note_on', channel=2, note=45, velocity=60, time=0),
    Message('note_on', channel=2, note=52, velocity=60, time=0),
    Message('note_on', channel=2, note=57, velocity=0, time=59),
    Message('note_on', channel=2, note=45, velocity=0, time=0),
    Message('note_on', channel=2, note=52, velocity=0, time=0),
    Message('note_on', channel=2, note=52, velocity=60, time=1),
    Message('note_on', channel=2, note=45, velocity=60, time=0),
    Message('note_on', channel=2, note=57, velocity=60, time=0),
    Message('note_on', channel=2, note=52, velocity=0, time=29),
    Message('note_on', channel=2, note=45, velocity=0, time=0),
    Message('note_on', channel=2, note=57, velocity=0, time=0),
    Message('note_on', channel=2, note=45, velocity=60, time=1),
    Message('note_on', channel=2, note=52, velocity=60, time=0),
    Message('note_on', channel=2, note=57, velocity=60, time=0),
    Message('note_on', channel=2, note=45, velocity=0, time=29),
    Message('note_on', channel=2, note=52, velocity=0, time=0),
    Message('note_on', channel=2, note=57, velocity=0, time=0),
    Message('note_on', channel=2, note=45, velocity=60, time=1),
    Message('note_on', channel=2, note=52, velocity=60, time=0),
    Message('note_on', channel=2, note=57, velocity=60, time=0),
    Message('note_on', channel=2, note=45, velocity=0, time=59),
    Message('note_on', channel=2, note=52, velocity=0, time=0),
    Message('note_on', channel=2, note=57, velocity=0, time=0),
    Message('note_on', channel=2, note=60, velocity=60, time=1),
    Message('note_on', channel=2, note=55, velocity=60, time=0),
    Message('note_on', channel=2, note=48, velocity=60, time=0),
    Message('note_on', channel=2, note=60, velocity=0, time=59),
    Message('note_on', channel=2, note=55, velocity=0, time=0),
    Message('note_on', channel=2, note=48, velocity=0, time=0),
    Message('note_on', channel=2, note=48, velocity=60, time=1),
    Message('note_on', channel=2, note=55, velocity=60, time=0),
    Message('note_on', channel=2, note=60, velocity=60, time=0),
    Message('note_on', channel=2, note=48, velocity=0, time=119),
    Message('note_on', channel=2, note=55, velocity=0, time=0),
    Message('note_on', channel=2, note=60, velocity=0, time=0),
    Message('note_on', channel=2, note=43, velocity=60, time=1),
    Message('note_on', channel=2, note=50, velocity=60, time=0),
    Message('note_on', channel=2, note=55, velocity=60, time=0),
    Message('note_on', channel=2, note=43, velocity=0, time=119),
    Message('note_on', channel=2, note=50, velocity=0, time=0),
    Message('note_on', channel=2, note=55, velocity=0, time=0),
    Message('note_on', channel=2, note=55, velocity=60, time=1),
    Message('note_on', channel=2, note=43, velocity=60, time=0),
    Message('note_on', channel=2, note=50, velocity=60, time=0),
    Message('note_on', channel=2, note=55, velocity=60, time=60),
    Message('note_on', channel=2, note=60, velocity=60, time=0),
    Message('note_on', channel=2, note=48, velocity=60, time=0),
    Message('note_on', channel=2, note=55, velocity=0, time=39),
    Message('note_on', channel=2, note=60, velocity=0, time=0),
    Message('note_on', channel=2, note=48, velocity=0, time=0),
    Message('note_on', channel=2, note=43, velocity=0, time=20),
    Message('note_on', channel=2, note=50, velocity=0, time=0),
    Message('note_on', channel=2, note=55, velocity=0, time=0),
    Message('note_on', channel=2, note=46, velocity=60, time=1),
    Message('note_on', channel=2, note=58, velocity=60, time=0),
    Message('note_on', channel=2, note=53, velocity=60, time=0),
    Message('note_on', channel=2, note=46, velocity=0, time=119),
    Message('note_on', channel=2, note=58, velocity=0, time=0),
    Message('note_on', channel=2, note=53, velocity=0, time=0),
    Message('note_on', channel=2, note=58, velocity=60, time=1),
    Message('note_on', channel=2, note=46, velocity=60, time=0),
    Message('note_on', channel=2, note=53, velocity=60, time=0),
    Message('note_on', channel=2, note=58, velocity=0, time=119),
    Message('note_on', channel=2, note=46, velocity=0, time=0),
    Message('note_on', channel=2, note=53, velocity=0, time=0),
    Message('note_on', channel=2, note=50, velocity=60, time=1),
    Message('note_on', channel=2, note=55, velocity=60, time=0),
    Message('note_on', channel=2, note=43, velocity=60, time=0),
    Message('note_on', channel=2, note=50, velocity=0, time=119),
    Message('note_on', channel=2, note=55, velocity=0, time=0),
    Message('note_on', channel=2, note=43, velocity=0, time=0),
    Message('note_on', channel=2, note=55, velocity=60, time=1),
    Message('note_on', channel=2, note=43, velocity=60, time=0),
    Message('note_on', channel=2, note=50, velocity=60, time=0),
    Message('note_on', channel=2, note=55, velocity=0, time=119),
    Message('note_on', channel=2, note=43, velocity=0, time=0),
    Message('note_on', channel=2, note=50, velocity=0, time=0),
    Message('note_on', channel=2, note=53, velocity=60, time=1),
    Message('note_on', channel=2, note=48, velocity=60, time=0),
    Message('note_on', channel=2, note=41, velocity=60, time=0),
    Message('note_on', channel=2, note=53, velocity=0, time=59),
    Message('note_on', channel=2, note=48, velocity=0, time=0),
    Message('note_on', channel=2, note=41, velocity=0, time=0),
    Message('note_on', channel=2, note=43, velocity=60, time=1),
    Message('note_on', channel=2, note=55, velocity=60, time=0),
    Message('note_on', channel=2, note=50, velocity=60, time=0),
    Message('note_on', channel=2, note=43, velocity=0, time=119),
    Message('note_on', channel=2, note=55, velocity=0, time=0),
    Message('note_on', channel=2, note=50, velocity=0, time=0),
    Message('note_on', channel=2, note=53, velocity=60, time=1),
    Message('note_on', channel=2, note=41, velocity=60, time=0),
    Message('note_on', channel=2, note=48, velocity=60, time=0),
    Message('note_on', channel=2, note=53, velocity=0, time=59),
    Message('note_on', channel=2, note=41, velocity=0, time=0),
    Message('note_on', channel=2, note=48, velocity=0, time=0),
    Message('note_on', channel=2, note=55, velocity=60, time=1),
    Message('note_on', channel=2, note=50, velocity=60, time=0),
    Message('note_on', channel=2, note=43, velocity=60, time=0),
    Message('note_on', channel=2, note=55, velocity=0, time=119),
    Message('note_on', channel=2, note=50, velocity=0, time=0),
    Message('note_on', channel=2, note=43, velocity=0, time=0),
    Message('note_on', channel=2, note=50, velocity=60, time=1),
    Message('note_on', channel=2, note=43, velocity=60, time=0),
    Message('note_on', channel=2, note=55, velocity=60, time=0),
    Message('note_on', channel=2, note=48, velocity=60, time=60),
    Message('note_on', channel=2, note=60, velocity=60, time=0),
    Message('note_on', channel=2, note=55, velocity=60, time=0),
    Message('note_on', channel=2, note=55, velocity=0, time=39),
    Message('note_on', channel=2, note=48, velocity=0, time=0),
    Message('note_on', channel=2, note=60, velocity=0, time=0),
    Message('note_on', channel=2, note=50, velocity=0, time=20),
    Message('note_on', channel=2, note=43, velocity=0, time=0),
    Message('note_on', channel=2, note=55, velocity=0, time=0),
    Message('note_on', channel=2, note=53, velocity=60, time=1),
    Message('note_on', channel=2, note=46, velocity=60, time=0),
    Message('note_on', channel=2, note=58, velocity=60, time=0),
    Message('note_on', channel=2, note=53, velocity=0, time=119),
    Message('note_on', channel=2, note=46, velocity=0, time=0),
    Message('note_on', channel=2, note=58, velocity=0, time=0),
    Message('note_on', channel=2, note=46, velocity=60, time=1),
    Message('note_on', channel=2, note=53, velocity=60, time=0),
    Message('note_on', channel=2, note=58, velocity=60, time=0),
    Message('note_on', channel=2, note=46, velocity=0, time=119),
    Message('note_on', channel=2, note=53, velocity=0, time=0),
    Message('note_on', channel=2, note=58, velocity=0, time=0),
    Message('note_on', channel=2, note=50, velocity=60, time=1),
    Message('note_on', channel=2, note=43, velocity=60, time=0),
    Message('note_on', channel=2, note=55, velocity=60, time=0),
    Message('note_on', channel=2, note=50, velocity=0, time=119),
    Message('note_on', channel=2, note=43, velocity=0, time=0),
    Message('note_on', channel=2, note=55, velocity=0, time=0),
    Message('note_on', channel=2, note=50, velocity=60, time=1),
    Message('note_on', channel=2, note=55, velocity=60, time=0),
    Message('note_on', channel=2, note=43, velocity=60, time=0),
    Message('note_on', channel=2, note=50, velocity=0, time=119),
    Message('note_on', channel=2, note=55, velocity=0, time=0),
    Message('note_on', channel=2, note=43, velocity=0, time=0),
    Message('note_on', channel=2, note=48, velocity=60, time=1),
    Message('note_on', channel=2, note=53, velocity=60, time=0),
    Message('note_on', channel=2, note=41, velocity=60, time=0),
    Message('note_on', channel=2, note=48, velocity=0, time=59),
    Message('note_on', channel=2, note=53, velocity=0, time=0),
    Message('note_on', channel=2, note=41, velocity=0, time=0),
    Message('note_on', channel=2, note=55, velocity=60, time=1),
    Message('note_on', channel=2, note=43, velocity=60, time=0),
    Message('note_on', channel=2, note=50, velocity=60, time=0),
    Message('note_on', channel=2, note=55, velocity=0, time=119),
    Message('note_on', channel=2, note=43, velocity=0, time=0),
    Message('note_on', channel=2, note=50, velocity=0, time=0),
    Message('note_on', channel=2, note=53, velocity=60, time=1),
    Message('note_on', channel=2, note=41, velocity=60, time=0),
    Message('note_on', channel=2, note=48, velocity=60, time=0),
    Message('note_on', channel=2, note=53, velocity=0, time=59),
    Message('note_on', channel=2, note=41, velocity=0, time=0),
    Message('note_on', channel=2, note=48, velocity=0, time=0),
    Message('note_on', channel=2, note=50, velocity=60, time=1),
    Message('note_on', channel=2, note=43, velocity=60, time=0),
    Message('note_on', channel=2, note=55, velocity=60, time=0),
    Message('note_on', channel=2, note=50, velocity=0, time=119),
    Message('note_on', channel=2, note=43, velocity=0, time=0),
    Message('note_on', channel=2, note=55, velocity=0, time=0),
    Message('note_on', channel=2, note=55, velocity=60, time=1),
    Message('note_on', channel=2, note=50, velocity=60, time=0),
    Message('note_on', channel=2, note=43, velocity=60, time=0),
    Message('note_on', channel=2, note=60, velocity=60, time=60),
    Message('note_on', channel=2, note=48, velocity=60, time=0),
    Message('note_on', channel=2, note=55, velocity=60, time=0),
    Message('note_on', channel=2, note=55, velocity=0, time=39),
    Message('note_on', channel=2, note=60, velocity=0, time=0),
    Message('note_on', channel=2, note=48, velocity=0, time=0),
    Message('note_on', channel=2, note=50, velocity=0, time=20),
    Message('note_on', channel=2, note=43, velocity=0, time=0),
    Message('note_on', channel=2, note=55, velocity=0, time=0),
    Message('note_on', channel=2, note=46, velocity=60, time=1),
    Message('note_on', channel=2, note=58, velocity=60, time=0),
    Message('note_on', channel=2, note=53, velocity=60, time=0),
    Message('note_on', channel=2, note=46, velocity=0, time=119),
    Message('note_on', channel=2, note=58, velocity=0, time=0),
    Message('note_on', channel=2, note=53, velocity=0, time=0),
    Message('note_on', channel=2, note=58, velocity=60, time=1),
    Message('note_on', channel=2, note=46, velocity=60, time=0),
    Message('note_on', channel=2, note=53, velocity=60, time=0),
    Message('note_on', channel=2, note=58, velocity=0, time=119),
    Message('note_on', channel=2, note=46, velocity=0, time=0),
    Message('note_on', channel=2, note=53, velocity=0, time=0),
    Message('note_on', channel=2, note=50, velocity=60, time=1),
    Message('note_on', channel=2, note=55, velocity=60, time=0),
    Message('note_on', channel=2, note=43, velocity=60, time=0),
    Message('note_on', channel=2, note=50, velocity=0, time=119),
    Message('note_on', channel=2, note=55, velocity=0, time=0),
    Message('note_on', channel=2, note=43, velocity=0, time=0),
    Message('note_on', channel=2, note=43, velocity=60, time=1),
    Message('note_on', channel=2, note=50, velocity=60, time=0),
    Message('note_on', channel=2, note=55, velocity=60, time=0),
    Message('note_on', channel=2, note=43, velocity=0, time=119),
    Message('note_on', channel=2, note=50, velocity=0, time=0),
    Message('note_on', channel=2, note=55, velocity=0, time=0),
    Message('note_on', channel=2, note=48, velocity=60, time=1),
    Message('note_on', channel=2, note=53, velocity=60, time=0),
    Message('note_on', channel=2, note=41, velocity=60, time=0),
    Message('note_on', channel=2, note=48, velocity=0, time=59),
    Message('note_on', channel=2, note=53, velocity=0, time=0),
    Message('note_on', channel=2, note=41, velocity=0, time=0),
    Message('note_on', channel=2, note=55, velocity=60, time=1),
    Message('note_on', channel=2, note=43, velocity=60, time=0),
    Message('note_on', channel=2, note=50, velocity=60, time=0),
    Message('note_on', channel=2, note=55, velocity=0, time=119),
    Message('note_on', channel=2, note=43, velocity=0, time=0),
    Message('note_on', channel=2, note=50, velocity=0, time=0),
    Message('note_on', channel=2, note=53, velocity=60, time=1),
    Message('note_on', channel=2, note=41, velocity=60, time=0),
    Message('note_on', channel=2, note=48, velocity=60, time=0),
    Message('note_on', channel=2, note=53, velocity=0, time=59),
    Message('note_on', channel=2, note=41, velocity=0, time=0),
    Message('note_on', channel=2, note=48, velocity=0, time=0),
    Message('note_on', channel=2, note=55, velocity=60, time=1),
    Message('note_on', channel=2, note=50, velocity=60, time=0),
    Message('note_on', channel=2, note=43, velocity=60, time=0),
    Message('note_on', channel=2, note=55, velocity=0, time=119),
    Message('note_on', channel=2, note=50, velocity=0, time=0),
    Message('note_on', channel=2, note=43, velocity=0, time=0),
    Message('note_on', channel=2, note=50, velocity=60, time=1),
    Message('note_on', channel=2, note=55, velocity=60, time=0),
    Message('note_on', channel=2, note=43, velocity=60, time=0),
    Message('note_on', channel=2, note=60, velocity=60, time=60),
    Message('note_on', channel=2, note=48, velocity=60, time=0),
    Message('note_on', channel=2, note=55, velocity=60, time=0),
    Message('note_on', channel=2, note=55, velocity=0, time=39),
    Message('note_on', channel=2, note=60, velocity=0, time=0),
    Message('note_on', channel=2, note=48, velocity=0, time=0),
    Message('note_on', channel=2, note=50, velocity=0, time=20),
    Message('note_on', channel=2, note=43, velocity=0, time=0),
    Message('note_on', channel=2, note=55, velocity=0, time=0),
    Message('note_on', channel=2, note=46, velocity=60, time=1),
    Message('note_on', channel=2, note=58, velocity=60, time=0),
    Message('note_on', channel=2, note=53, velocity=60, time=0),
    Message('note_on', channel=2, note=46, velocity=0, time=119),
    Message('note_on', channel=2, note=58, velocity=0, time=0),
    Message('note_on', channel=2, note=53, velocity=0, time=0),
    Message('note_on', channel=2, note=58, velocity=60, time=1),
    Message('note_on', channel=2, note=46, velocity=60, time=0),
    Message('note_on', channel=2, note=53, velocity=60, time=0),
    Message('note_on', channel=2, note=58, velocity=0, time=119),
    Message('note_on', channel=2, note=46, velocity=0, time=0),
    Message('note_on', channel=2, note=53, velocity=0, time=0),
    Message('note_on', channel=2, note=50, velocity=60, time=1),
    Message('note_on', channel=2, note=55, velocity=60, time=0),
    Message('note_on', channel=2, note=43, velocity=60, time=0),
    Message('note_on', channel=2, note=50, velocity=0, time=119),
    Message('note_on', channel=2, note=55, velocity=0, time=0),
    Message('note_on', channel=2, note=43, velocity=0, time=0),
    Message('note_on', channel=2, note=43, velocity=60, time=1),
    Message('note_on', channel=2, note=50, velocity=60, time=0),
    Message('note_on', channel=2, note=55, velocity=60, time=0),
    Message('note_on', channel=2, note=43, velocity=0, time=119),
    Message('note_on', channel=2, note=50, velocity=0, time=0),
    Message('note_on', channel=2, note=55, velocity=0, time=0),
    Message('note_on', channel=2, note=48, velocity=60, time=1),
    Message('note_on', channel=2, note=53, velocity=60, time=0),
    Message('note_on', channel=2, note=41, velocity=60, time=0),
    Message('note_on', channel=2, note=48, velocity=0, time=59),
    Message('note_on', channel=2, note=53, velocity=0, time=0),
    Message('note_on', channel=2, note=41, velocity=0, time=0),
    Message('note_on', channel=2, note=43, velocity=60, time=1),
    Message('note_on', channel=2, note=50, velocity=60, time=0),
    Message('note_on', channel=2, note=55, velocity=60, time=0),
    Message('note_on', channel=2, note=43, velocity=0, time=119),
    Message('note_on', channel=2, note=50, velocity=0, time=0),
    Message('note_on', channel=2, note=55, velocity=0, time=0),
    Message('note_on', channel=2, note=53, velocity=60, time=1),
    Message('note_on', channel=2, note=48, velocity=60, time=0),
    Message('note_on', channel=2, note=41, velocity=60, time=0),
    Message('note_on', channel=2, note=53, velocity=0, time=59),
    Message('note_on', channel=2, note=48, velocity=0, time=0),
    Message('note_on', channel=2, note=41, velocity=0, time=0),
    Message('note_on', channel=2, note=50, velocity=60, time=1),
    Message('note_on', channel=2, note=43, velocity=60, time=0),
    Message('note_on', channel=2, note=55, velocity=60, time=0),
    Message('note_on', channel=2, note=50, velocity=0, time=119),
    Message('note_on', channel=2, note=43, velocity=0, time=0),
    Message('note_on', channel=2, note=55, velocity=0, time=0),
    Message('note_on', channel=2, note=43, velocity=60, time=1),
    Message('note_on', channel=2, note=50, velocity=60, time=0),
    Message('note_on', channel=2, note=55, velocity=60, time=0),
    Message('note_on', channel=2, note=55, velocity=60, time=60),
    Message('note_on', channel=2, note=48, velocity=60, time=0),
    Message('note_on', channel=2, note=60, velocity=60, time=0),
    Message('note_on', channel=2, note=55, velocity=0, time=39),
    Message('note_on', channel=2, note=48, velocity=0, time=0),
    Message('note_on', channel=2, note=60, velocity=0, time=0),
    Message('note_on', channel=2, note=43, velocity=0, time=20),
    Message('note_on', channel=2, note=50, velocity=0, time=0),
    Message('note_on', channel=2, note=55, velocity=0, time=0),
    Message('note_on', channel=2, note=46, velocity=60, time=1),
    Message('note_on', channel=2, note=58, velocity=60, time=0),
    Message('note_on', channel=2, note=53, velocity=60, time=0),
    Message('note_on', channel=2, note=46, velocity=0, time=119),
    Message('note_on', channel=2, note=58, velocity=0, time=0),
    Message('note_on', channel=2, note=53, velocity=0, time=0),
    Message('note_on', channel=2, note=46, velocity=60, time=1),
    Message('note_on', channel=2, note=53, velocity=60, time=0),
    Message('note_on', channel=2, note=58, velocity=60, time=0),
    Message('note_on', channel=2, note=46, velocity=0, time=119),
    Message('note_on', channel=2, note=53, velocity=0, time=0),
    Message('note_on', channel=2, note=58, velocity=0, time=0),
    Message('note_on', channel=2, note=55, velocity=60, time=1),
    Message('note_on', channel=2, note=50, velocity=60, time=0),
    Message('note_on', channel=2, note=43, velocity=60, time=0),
    Message('note_on', channel=2, note=55, velocity=0, time=119),
    Message('note_on', channel=2, note=50, velocity=0, time=0),
    Message('note_on', channel=2, note=43, velocity=0, time=0),
    Message('note_on', channel=2, note=50, velocity=60, time=1),
    Message('note_on', channel=2, note=55, velocity=60, time=0),
    Message('note_on', channel=2, note=43, velocity=60, time=0),
    Message('note_on', channel=2, note=50, velocity=0, time=119),
    Message('note_on', channel=2, note=55, velocity=0, time=0),
    Message('note_on', channel=2, note=43, velocity=0, time=0),
    Message('note_on', channel=2, note=48, velocity=60, time=1),
    Message('note_on', channel=2, note=53, velocity=60, time=0),
    Message('note_on', channel=2, note=41, velocity=60, time=0),
    Message('note_on', channel=2, note=48, velocity=0, time=59),
    Message('note_on', channel=2, note=53, velocity=0, time=0),
    Message('note_on', channel=2, note=41, velocity=0, time=0),
    Message('note_on', channel=2, note=43, velocity=60, time=1),
    Message('note_on', channel=2, note=50, velocity=60, time=0),
    Message('note_on', channel=2, note=55, velocity=60, time=0),
    Message('note_on', channel=2, note=43, velocity=0, time=119),
    Message('note_on', channel=2, note=50, velocity=0, time=0),
    Message('note_on', channel=2, note=55, velocity=0, time=0),
    Message('note_on', channel=2, note=48, velocity=60, time=1),
    Message('note_on', channel=2, note=53, velocity=60, time=0),
    Message('note_on', channel=2, note=41, velocity=60, time=0),
    Message('note_on', channel=2, note=48, velocity=0, time=59),
    Message('note_on', channel=2, note=53, velocity=0, time=0),
    Message('note_on', channel=2, note=41, velocity=0, time=0),
    Message('note_on', channel=2, note=50, velocity=60, time=1),
    Message('note_on', channel=2, note=43, velocity=60, time=0),
    Message('note_on', channel=2, note=55, velocity=60, time=0),
    Message('note_on', channel=2, note=50, velocity=0, time=119),
    Message('note_on', channel=2, note=43, velocity=0, time=0),
    Message('note_on', channel=2, note=55, velocity=0, time=0),
    Message('note_on', channel=2, note=55, velocity=60, time=1),
    Message('note_on', channel=2, note=43, velocity=60, time=0),
    Message('note_on', channel=2, note=50, velocity=60, time=0),
    Message('note_on', channel=2, note=60, velocity=60, time=60),
    Message('note_on', channel=2, note=48, velocity=60, time=0),
    Message('note_on', channel=2, note=55, velocity=60, time=0),
    Message('note_on', channel=2, note=55, velocity=0, time=39),
    Message('note_on', channel=2, note=60, velocity=0, time=0),
    Message('note_on', channel=2, note=48, velocity=0, time=0),
    Message('note_on', channel=2, note=43, velocity=0, time=20),
    Message('note_on', channel=2, note=50, velocity=0, time=0),
    Message('note_on', channel=2, note=55, velocity=0, time=0),
    Message('note_on', channel=2, note=46, velocity=60, time=1),
    Message('note_on', channel=2, note=53, velocity=60, time=0),
    Message('note_on', channel=2, note=58, velocity=60, time=0),
    Message('note_on', channel=2, note=46, velocity=0, time=119),
    Message('note_on', channel=2, note=53, velocity=0, time=0),
    Message('note_on', channel=2, note=58, velocity=0, time=0),
    Message('note_on', channel=2, note=58, velocity=60, time=1),
    Message('note_on', channel=2, note=46, velocity=60, time=0),
    Message('note_on', channel=2, note=53, velocity=60, time=0),
    Message('note_on', channel=2, note=58, velocity=0, time=119),
    Message('note_on', channel=2, note=46, velocity=0, time=0),
    Message('note_on', channel=2, note=53, velocity=0, time=0),
    Message('note_on', channel=2, note=55, velocity=60, time=1),
    Message('note_on', channel=2, note=50, velocity=60, time=0),
    Message('note_on', channel=2, note=43, velocity=60, time=0),
    Message('note_on', channel=2, note=55, velocity=0, time=119),
    Message('note_on', channel=2, note=50, velocity=0, time=0),
    Message('note_on', channel=2, note=43, velocity=0, time=0),
    Message('note_on', channel=2, note=55, velocity=60, time=1),
    Message('note_on', channel=2, note=50, velocity=60, time=0),
    Message('note_on', channel=2, note=43, velocity=60, time=0),
    Message('note_on', channel=2, note=55, velocity=0, time=119),
    Message('note_on', channel=2, note=50, velocity=0, time=0),
    Message('note_on', channel=2, note=43, velocity=0, time=0),
    Message('note_on', channel=2, note=48, velocity=60, time=1),
    Message('note_on', channel=2, note=41, velocity=60, time=0),
    Message('note_on', channel=2, note=53, velocity=60, time=0),
    Message('note_on', channel=2, note=48, velocity=0, time=59),
    Message('note_on', channel=2, note=41, velocity=0, time=0),
    Message('note_on', channel=2, note=53, velocity=0, time=0),
    Message('note_on', channel=2, note=55, velocity=60, time=1),
    Message('note_on', channel=2, note=43, velocity=60, time=0),
    Message('note_on', channel=2, note=50, velocity=60, time=0),
    Message('note_on', channel=2, note=55, velocity=0, time=119),
    Message('note_on', channel=2, note=43, velocity=0, time=0),
    Message('note_on', channel=2, note=50, velocity=0, time=0),
    Message('note_on', channel=2, note=53, velocity=60, time=1),
    Message('note_on', channel=2, note=48, velocity=60, time=0),
    Message('note_on', channel=2, note=41, velocity=60, time=0),
    Message('note_on', channel=2, note=53, velocity=0, time=59),
    Message('note_on', channel=2, note=48, velocity=0, time=0),
    Message('note_on', channel=2, note=41, velocity=0, time=0),
    Message('note_on', channel=2, note=50, velocity=60, time=1),
    Message('note_on', channel=2, note=43, velocity=60, time=0),
    Message('note_on', channel=2, note=55, velocity=60, time=0),
    Message('note_on', channel=2, note=50, velocity=0, time=119),
    Message('note_on', channel=2, note=43, velocity=0, time=0),
    Message('note_on', channel=2, note=55, velocity=0, time=0),
    Message('note_on', channel=2, note=50, velocity=60, time=1),
    Message('note_on', channel=2, note=43, velocity=60, time=0),
    Message('note_on', channel=2, note=55, velocity=60, time=0),
    Message('note_on', channel=2, note=55, velocity=60, time=60),
    Message('note_on', channel=2, note=48, velocity=60, time=0),
    Message('note_on', channel=2, note=60, velocity=60, time=0),
    Message('note_on', channel=2, note=55, velocity=0, time=39),
    Message('note_on', channel=2, note=48, velocity=0, time=0),
    Message('note_on', channel=2, note=60, velocity=0, time=0),
    Message('note_on', channel=2, note=50, velocity=0, time=20),
    Message('note_on', channel=2, note=43, velocity=0, time=0),
    Message('note_on', channel=2, note=55, velocity=0, time=0),
    Message('note_on', channel=2, note=46, velocity=60, time=1),
    Message('note_on', channel=2, note=53, velocity=60, time=0),
    Message('note_on', channel=2, note=58, velocity=60, time=0),
    Message('note_on', channel=2, note=46, velocity=0, time=119),
    Message('note_on', channel=2, note=53, velocity=0, time=0),
    Message('note_on', channel=2, note=58, velocity=0, time=0),
    Message('note_on', channel=2, note=58, velocity=60, time=1),
    Message('note_on', channel=2, note=46, velocity=60, time=0),
    Message('note_on', channel=2, note=53, velocity=60, time=0),
    Message('note_on', channel=2, note=58, velocity=0, time=119),
    Message('note_on', channel=2, note=46, velocity=0, time=0),
    Message('note_on', channel=2, note=53, velocity=0, time=0),
    Message('note_on', channel=2, note=55, velocity=60, time=1),
    Message('note_on', channel=2, note=43, velocity=60, time=0),
    Message('note_on', channel=2, note=50, velocity=60, time=0),
    Message('note_on', channel=2, note=55, velocity=0, time=119),
    Message('note_on', channel=2, note=43, velocity=0, time=0),
    Message('note_on', channel=2, note=50, velocity=0, time=0),
    Message('note_on', channel=2, note=50, velocity=60, time=1),
    Message('note_on', channel=2, note=55, velocity=60, time=0),
    Message('note_on', channel=2, note=43, velocity=60, time=0),
    Message('note_on', channel=2, note=50, velocity=0, time=119),
    Message('note_on', channel=2, note=55, velocity=0, time=0),
    Message('note_on', channel=2, note=43, velocity=0, time=0),
    Message('note_on', channel=2, note=53, velocity=60, time=1),
    Message('note_on', channel=2, note=48, velocity=60, time=0),
    Message('note_on', channel=2, note=41, velocity=60, time=0),
    Message('note_on', channel=2, note=53, velocity=0, time=59),
    Message('note_on', channel=2, note=48, velocity=0, time=0),
    Message('note_on', channel=2, note=41, velocity=0, time=0),
    Message('note_on', channel=2, note=55, velocity=60, time=1),
    Message('note_on', channel=2, note=43, velocity=60, time=0),
    Message('note_on', channel=2, note=50, velocity=60, time=0),
    Message('note_on', channel=2, note=55, velocity=0, time=119),
    Message('note_on', channel=2, note=43, velocity=0, time=0),
    Message('note_on', channel=2, note=50, velocity=0, time=0),
    Message('note_on', channel=2, note=41, velocity=60, time=1),
    Message('note_on', channel=2, note=53, velocity=60, time=0),
    Message('note_on', channel=2, note=48, velocity=60, time=0),
    Message('note_on', channel=2, note=41, velocity=0, time=59),
    Message('note_on', channel=2, note=53, velocity=0, time=0),
    Message('note_on', channel=2, note=48, velocity=0, time=0),
    Message('note_on', channel=2, note=43, velocity=60, time=1),
    Message('note_on', channel=2, note=55, velocity=60, time=0),
    Message('note_on', channel=2, note=50, velocity=60, time=0),
    Message('note_on', channel=2, note=43, velocity=0, time=119),
    Message('note_on', channel=2, note=55, velocity=0, time=0),
    Message('note_on', channel=2, note=50, velocity=0, time=0),
    Message('note_on', channel=2, note=43, velocity=60, time=1),
    Message('note_on', channel=2, note=55, velocity=60, time=0),
    Message('note_on', channel=2, note=50, velocity=60, time=0),
    Message('note_on', channel=2, note=60, velocity=60, time=60),
    Message('note_on', channel=2, note=55, velocity=60, time=0),
    Message('note_on', channel=2, note=48, velocity=60, time=0),
    Message('note_on', channel=2, note=55, velocity=0, time=39),
    Message('note_on', channel=2, note=60, velocity=0, time=0),
    Message('note_on', channel=2, note=48, velocity=0, time=0),
    Message('note_on', channel=2, note=43, velocity=0, time=20),
    Message('note_on', channel=2, note=50, velocity=0, time=0),
    Message('note_on', channel=2, note=55, velocity=0, time=0),
    Message('note_on', channel=2, note=46, velocity=60, time=1),
    Message('note_on', channel=2, note=53, velocity=60, time=0),
    Message('note_on', channel=2, note=58, velocity=60, time=0),
    Message('note_on', channel=2, note=46, velocity=0, time=119),
    Message('note_on', channel=2, note=53, velocity=0, time=0),
    Message('note_on', channel=2, note=58, velocity=0, time=0),
    Message('note_on', channel=2, note=58, velocity=60, time=1),
    Message('note_on', channel=2, note=53, velocity=60, time=0),
    Message('note_on', channel=2, note=46, velocity=60, time=0),
    Message('note_on', channel=2, note=58, velocity=0, time=119),
    Message('note_on', channel=2, note=53, velocity=0, time=0),
    Message('note_on', channel=2, note=46, velocity=0, time=0),
    Message('note_on', channel=2, note=55, velocity=60, time=1),
    Message('note_on', channel=2, note=50, velocity=60, time=0),
    Message('note_on', channel=2, note=43, velocity=60, time=0),
    Message('note_on', channel=2, note=55, velocity=0, time=119),
    Message('note_on', channel=2, note=50, velocity=0, time=0),
    Message('note_on', channel=2, note=43, velocity=0, time=0),
    Message('note_on', channel=2, note=50, velocity=60, time=1),
    Message('note_on', channel=2, note=55, velocity=60, time=0),
    Message('note_on', channel=2, note=43, velocity=60, time=0),
    Message('note_on', channel=2, note=50, velocity=0, time=119),
    Message('note_on', channel=2, note=55, velocity=0, time=0),
    Message('note_on', channel=2, note=43, velocity=0, time=0),
    Message('note_on', channel=2, note=48, velocity=60, time=1),
    Message('note_on', channel=2, note=53, velocity=60, time=0),
    Message('note_on', channel=2, note=41, velocity=60, time=0),
    Message('note_on', channel=2, note=48, velocity=0, time=59),
    Message('note_on', channel=2, note=53, velocity=0, time=0),
    Message('note_on', channel=2, note=41, velocity=0, time=0),
    Message('note_on', channel=2, note=50, velocity=60, time=1),
    Message('note_on', channel=2, note=43, velocity=60, time=0),
    Message('note_on', channel=2, note=55, velocity=60, time=0),
    Message('note_on', channel=2, note=50, velocity=0, time=119),
    Message('note_on', channel=2, note=43, velocity=0, time=0),
    Message('note_on', channel=2, note=55, velocity=0, time=0),
    Message('note_on', channel=2, note=41, velocity=60, time=1),
    Message('note_on', channel=2, note=48, velocity=60, time=0),
    Message('note_on', channel=2, note=53, velocity=60, time=0),
    Message('note_on', channel=2, note=41, velocity=0, time=59),
    Message('note_on', channel=2, note=48, velocity=0, time=0),
    Message('note_on', channel=2, note=53, velocity=0, time=0),
    Message('note_on', channel=2, note=48, velocity=60, time=1),
    Message('note_on', channel=2, note=60, velocity=60, time=0),
    Message('note_on', channel=2, note=55, velocity=60, time=0),
    Message('note_on', channel=2, note=48, velocity=0, time=59),
    Message('note_on', channel=2, note=60, velocity=0, time=0),
    Message('note_on', channel=2, note=55, velocity=0, time=0),
    Message('note_on', channel=2, note=60, velocity=60, time=1),
    Message('note_on', channel=2, note=55, velocity=60, time=0),
    Message('note_on', channel=2, note=48, velocity=60, time=0),
    Message('note_on', channel=2, note=60, velocity=0, time=59),
    Message('note_on', channel=2, note=55, velocity=0, time=0),
    Message('note_on', channel=2, note=48, velocity=0, time=0),
    Message('note_on', channel=2, note=55, velocity=60, time=1),
    Message('note_on', channel=2, note=60, velocity=60, time=0),
    Message('note_on', channel=2, note=48, velocity=60, time=0),
    Message('note_on', channel=2, note=55, velocity=0, time=59),
    Message('note_on', channel=2, note=60, velocity=0, time=0),
    Message('note_on', channel=2, note=48, velocity=0, time=0),
    Message('note_on', channel=2, note=48, velocity=60, time=1),
    Message('note_on', channel=2, note=55, velocity=60, time=0),
    Message('note_on', channel=2, note=60, velocity=60, time=0),
    Message('note_on', channel=2, note=48, velocity=0, time=59),
    Message('note_on', channel=2, note=55, velocity=0, time=0),
    Message('note_on', channel=2, note=60, velocity=0, time=0),
    Message('note_on', channel=2, note=60, velocity=60, time=1),
    Message('note_on', channel=2, note=48, velocity=60, time=0),
    Message('note_on', channel=2, note=55, velocity=60, time=0),
    Message('note_on', channel=2, note=60, velocity=0, time=59),
    Message('note_on', channel=2, note=48, velocity=0, time=0),
    Message('note_on', channel=2, note=55, velocity=0, time=0),
    Message('note_on', channel=2, note=60, velocity=60, time=1),
    Message('note_on', channel=2, note=48, velocity=60, time=0),
    Message('note_on', channel=2, note=60, velocity=0, time=59),
    Message('note_on', channel=2, note=48, velocity=0, time=0),
    Message('note_on', channel=2, note=55, velocity=60, time=1),
    Message('note_on', channel=2, note=48, velocity=60, time=0),
    Message('note_on', channel=2, note=60, velocity=60, time=0),
    Message('note_on', channel=2, note=55, velocity=0, time=59),
    Message('note_on', channel=2, note=48, velocity=0, time=0),
    Message('note_on', channel=2, note=60, velocity=0, time=0),
    Message('note_on', channel=2, note=60, velocity=60, time=1),
    Message('note_on', channel=2, note=55, velocity=60, time=0),
    Message('note_on', channel=2, note=48, velocity=60, time=0),
    Message('note_on', channel=2, note=60, velocity=0, time=59),
    Message('note_on', channel=2, note=55, velocity=0, time=0),
    Message('note_on', channel=2, note=48, velocity=0, time=0),
    Message('note_on', channel=2, note=57, velocity=60, time=1),
    Message('note_on', channel=2, note=45, velocity=60, time=0),
    Message('note_on', channel=2, note=52, velocity=60, time=0),
    Message('note_on', channel=2, note=57, velocity=0, time=59),
    Message('note_on', channel=2, note=45, velocity=0, time=0),
    Message('note_on', channel=2, note=52, velocity=0, time=0),
    Message('note_on', channel=2, note=57, velocity=60, time=1),
    Message('note_on', channel=2, note=52, velocity=60, time=0),
    Message('note_on', channel=2, note=45, velocity=60, time=0),
    Message('note_on', channel=2, note=57, velocity=0, time=59),
    Message('note_on', channel=2, note=52, velocity=0, time=0),
    Message('note_on', channel=2, note=45, velocity=0, time=0),
    Message('note_on', channel=2, note=45, velocity=60, time=1),
    Message('note_on', channel=2, note=57, velocity=60, time=0),
    Message('note_on', channel=2, note=52, velocity=60, time=0),
    Message('note_on', channel=2, note=45, velocity=0, time=59),
    Message('note_on', channel=2, note=57, velocity=0, time=0),
    Message('note_on', channel=2, note=52, velocity=0, time=0),
    Message('note_on', channel=2, note=45, velocity=60, time=1),
    Message('note_on', channel=2, note=52, velocity=60, time=0),
    Message('note_on', channel=2, note=57, velocity=60, time=0),
    Message('note_on', channel=2, note=45, velocity=0, time=59),
    Message('note_on', channel=2, note=52, velocity=0, time=0),
    Message('note_on', channel=2, note=57, velocity=0, time=0),
    Message('note_on', channel=2, note=52, velocity=60, time=1),
    Message('note_on', channel=2, note=45, velocity=60, time=0),
    Message('note_on', channel=2, note=57, velocity=60, time=0),
    Message('note_on', channel=2, note=52, velocity=0, time=59),
    Message('note_on', channel=2, note=45, velocity=0, time=0),
    Message('note_on', channel=2, note=57, velocity=0, time=0),
    Message('note_on', channel=2, note=38, velocity=60, time=1),
    Message('note_on', channel=2, note=50, velocity=60, time=0),
    Message('note_on', channel=2, note=45, velocity=60, time=0),
    Message('note_on', channel=2, note=50, velocity=0, time=59),
    Message('note_on', channel=2, note=45, velocity=0, time=0),
    Message('note_on', channel=2, note=53, velocity=60, time=1),
    Message('note_on', channel=2, note=48, velocity=60, time=0),
    Message('note_on', channel=2, note=41, velocity=60, time=0),
    Message('note_on', channel=2, note=38, velocity=0, time=19),
    Message('note_on', channel=2, note=41, velocity=0, time=60),
    Message('note_on', channel=2, note=53, velocity=0, time=40),
    Message('note_on', channel=2, note=48, velocity=0, time=0),
    Message('note_on', channel=2, note=38, velocity=60, time=1),
    Message('note_on', channel=2, note=38, velocity=0, time=479),
    MetaMessage('end_of_track', time=0)]),
  MidiTrack([
    MetaMessage('track_name', name='WinJammer Demo', time=0),
    MetaMessage('midi_port', port=0, time=0),
    Message('program_change', channel=3, program=37, time=0),
    Message('control_change', channel=3, control=7, value=120, time=0),
    Message('note_on', channel=3, note=33, velocity=80, time=9120),
    Message('note_on', channel=3, note=33, velocity=0, time=59),
    Message('note_on', channel=3, note=33, velocity=80, time=1),
    Message('note_on', channel=3, note=33, velocity=0, time=59),
    Message('note_on', channel=3, note=33, velocity=80, time=1),
    Message('note_on', channel=3, note=33, velocity=0, time=59),
    Message('note_on', channel=3, note=33, velocity=80, time=1),
    Message('note_on', channel=3, note=33, velocity=0, time=29),
    Message('note_on', channel=3, note=33, velocity=80, time=1),
    Message('note_on', channel=3, note=33, velocity=0, time=29),
    Message('note_on', channel=3, note=33, velocity=80, time=1),
    Message('note_on', channel=3, note=33, velocity=0, time=59),
    Message('note_on', channel=3, note=36, velocity=80, time=1),
    Message('note_on', channel=3, note=36, velocity=0, time=59),
    Message('note_on', channel=3, note=36, velocity=80, time=1),
    Message('note_on', channel=3, note=36, velocity=0, time=119),
    Message('note_on', channel=3, note=26, velocity=80, time=1),
    Message('note_on', channel=3, note=26, velocity=0, time=119),
    Message('note_on', channel=3, note=26, velocity=80, time=1),
    Message('note_on', channel=3, note=26, velocity=0, time=119),
    Message('note_on', channel=3, note=30, velocity=80, time=1),
    Message('note_on', channel=3, note=30, velocity=0, time=119),
    Message('note_on', channel=3, note=30, velocity=80, time=1),
    Message('note_on', channel=3, note=30, velocity=0, time=119),
    Message('note_on', channel=3, note=35, velocity=80, time=1),
    Message('note_on', channel=3, note=35, velocity=0, time=119),
    Message('note_on', channel=3, note=35, velocity=80, time=1),
    Message('note_on', channel=3, note=35, velocity=0, time=119),
    Message('note_on', channel=3, note=31, velocity=80, time=1),
    Message('note_on', channel=3, note=31, velocity=0, time=119),
    Message('note_on', channel=3, note=31, velocity=80, time=1),
    Message('note_on', channel=3, note=31, velocity=0, time=119),
    Message('note_on', channel=3, note=34, velocity=80, time=1),
    Message('note_on', channel=3, note=34, velocity=0, time=59),
    Message('note_on', channel=3, note=34, velocity=80, time=1),
    Message('note_on', channel=3, note=34, velocity=0, time=59),
    Message('note_on', channel=3, note=34, velocity=80, time=1),
    Message('note_on', channel=3, note=34, velocity=0, time=59),
    Message('note_on', channel=3, note=34, velocity=80, time=1),
    Message('note_on', channel=3, note=34, velocity=0, time=19),
    Message('note_on', channel=3, note=34, velocity=80, time=11),
    Message('note_on', channel=3, note=34, velocity=0, time=19),
    Message('note_on', channel=3, note=34, velocity=80, time=11),
    Message('note_on', channel=3, note=34, velocity=0, time=59),
    Message('note_on', channel=3, note=36, velocity=80, time=1),
    Message('note_on', channel=3, note=36, velocity=0, time=59),
    Message('note_on', channel=3, note=36, velocity=80, time=1),
    Message('note_on', channel=3, note=34, velocity=80, time=60),
    Message('note_on', channel=3, note=36, velocity=0, time=19),
    Message('note_on', channel=3, note=34, velocity=0, time=20),
    Message('note_on', channel=3, note=33, velocity=80, time=21),
    Message('note_on', channel=3, note=33, velocity=0, time=59),
    Message('note_on', channel=3, note=33, velocity=80, time=1),
    Message('note_on', channel=3, note=33, velocity=0, time=59),
    Message('note_on', channel=3, note=33, velocity=80, time=1),
    Message('note_on', channel=3, note=33, velocity=0, time=59),
    Message('note_on', channel=3, note=33, velocity=80, time=1),
    Message('note_on', channel=3, note=33, velocity=0, time=29),
    Message('note_on', channel=3, note=33, velocity=80, time=1),
    Message('note_on', channel=3, note=33, velocity=0, time=29),
    Message('note_on', channel=3, note=33, velocity=80, time=1),
    Message('note_on', channel=3, note=33, velocity=0, time=59),
    Message('note_on', channel=3, note=36, velocity=80, time=1),
    Message('note_on', channel=3, note=36, velocity=0, time=59),
    Message('note_on', channel=3, note=36, velocity=80, time=1),
    Message('note_on', channel=3, note=36, velocity=0, time=119),
    Message('note_on', channel=3, note=26, velocity=80, time=1),
    Message('note_on', channel=3, note=26, velocity=0, time=119),
    Message('note_on', channel=3, note=26, velocity=80, time=1),
    Message('note_on', channel=3, note=26, velocity=0, time=119),
    Message('note_on', channel=3, note=30, velocity=80, time=1),
    Message('note_on', channel=3, note=30, velocity=0, time=119),
    Message('note_on', channel=3, note=30, velocity=80, time=1),
    Message('note_on', channel=3, note=30, velocity=0, time=119),
    Message('note_on', channel=3, note=35, velocity=80, time=1),
    Message('note_on', channel=3, note=35, velocity=0, time=119),
    Message('note_on', channel=3, note=35, velocity=80, time=1),
    Message('note_on', channel=3, note=35, velocity=0, time=119),
    Message('note_on', channel=3, note=31, velocity=80, time=1),
    Message('note_on', channel=3, note=31, velocity=0, time=119),
    Message('note_on', channel=3, note=31, velocity=80, time=1),
    Message('note_on', channel=3, note=31, velocity=0, time=119),
    Message('note_on', channel=3, note=34, velocity=80, time=1),
    Message('note_on', channel=3, note=34, velocity=0, time=59),
    Message('note_on', channel=3, note=34, velocity=80, time=1),
    Message('note_on', channel=3, note=34, velocity=0, time=59),
    Message('note_on', channel=3, note=34, velocity=80, time=1),
    Message('note_on', channel=3, note=34, velocity=0, time=59),
    Message('note_on', channel=3, note=34, velocity=80, time=1),
    Message('note_on', channel=3, note=34, velocity=0, time=19),
    Message('note_on', channel=3, note=34, velocity=80, time=11),
    Message('note_on', channel=3, note=34, velocity=0, time=19),
    Message('note_on', channel=3, note=34, velocity=80, time=11),
    Message('note_on', channel=3, note=34, velocity=0, time=59),
    Message('note_on', channel=3, note=36, velocity=80, time=1),
    Message('note_on', channel=3, note=36, velocity=0, time=59),
    Message('note_on', channel=3, note=36, velocity=80, time=1),
    Message('note_on', channel=3, note=34, velocity=80, time=60),
    Message('note_on', channel=3, note=36, velocity=0, time=19),
    Message('note_on', channel=3, note=34, velocity=0, time=20),
    Message('note_on', channel=3, note=33, velocity=80, time=21),
    Message('note_on', channel=3, note=33, velocity=0, time=59),
    Message('note_on', channel=3, note=33, velocity=80, time=1),
    Message('note_on', channel=3, note=33, velocity=0, time=59),
    Message('note_on', channel=3, note=33, velocity=80, time=1),
    Message('note_on', channel=3, note=33, velocity=0, time=59),
    Message('note_on', channel=3, note=33, velocity=80, time=1),
    Message('note_on', channel=3, note=33, velocity=0, time=19),
    Message('note_on', channel=3, note=33, velocity=80, time=11),
    Message('note_on', channel=3, note=33, velocity=0, time=19),
    Message('note_on', channel=3, note=33, velocity=80, time=11),
    Message('note_on', channel=3, note=33, velocity=0, time=59),
    Message('note_on', channel=3, note=36, velocity=80, time=1),
    Message('note_on', channel=3, note=36, velocity=0, time=59),
    Message('note_on', channel=3, note=36, velocity=80, time=1),
    Message('note_on', channel=3, note=34, velocity=80, time=60),
    Message('note_on', channel=3, note=36, velocity=0, time=19),
    Message('note_on', channel=3, note=34, velocity=0, time=20),
    Message('note_on', channel=3, note=26, velocity=80, time=21),
    Message('note_on', channel=3, note=26, velocity=0, time=119),
    Message('note_on', channel=3, note=26, velocity=80, time=1),
    Message('note_on', channel=3, note=26, velocity=0, time=119),
    Message('note_on', channel=3, note=30, velocity=80, time=1),
    Message('note_on', channel=3, note=30, velocity=0, time=119),
    Message('note_on', channel=3, note=30, velocity=80, time=1),
    Message('note_on', channel=3, note=30, velocity=0, time=119),
    Message('note_on', channel=3, note=35, velocity=80, time=1),
    Message('note_on', channel=3, note=35, velocity=0, time=119),
    Message('note_on', channel=3, note=35, velocity=80, time=1),
    Message('note_on', channel=3, note=35, velocity=0, time=119),
    Message('note_on', channel=3, note=31, velocity=80, time=1),
    Message('note_on', channel=3, note=31, velocity=0, time=119),
    Message('note_on', channel=3, note=31, velocity=80, time=1),
    Message('note_on', channel=3, note=31, velocity=0, time=119),
    Message('note_on', channel=3, note=34, velocity=80, time=1),
    Message('note_on', channel=3, note=34, velocity=0, time=59),
    Message('note_on', channel=3, note=34, velocity=80, time=1),
    Message('note_on', channel=3, note=34, velocity=0, time=59),
    Message('note_on', channel=3, note=34, velocity=80, time=1),
    Message('note_on', channel=3, note=34, velocity=0, time=59),
    Message('note_on', channel=3, note=34, velocity=80, time=1),
    Message('note_on', channel=3, note=34, velocity=0, time=19),
    Message('note_on', channel=3, note=34, velocity=80, time=11),
    Message('note_on', channel=3, note=34, velocity=0, time=19),
    Message('note_on', channel=3, note=34, velocity=80, time=11),
    Message('note_on', channel=3, note=34, velocity=0, time=59),
    Message('note_on', channel=3, note=36, velocity=80, time=1),
    Message('note_on', channel=3, note=36, velocity=0, time=59),
    Message('note_on', channel=3, note=36, velocity=80, time=1),
    Message('note_on', channel=3, note=34, velocity=80, time=60),
    Message('note_on', channel=3, note=36, velocity=0, time=19),
    Message('note_on', channel=3, note=34, velocity=0, time=20),
    Message('note_on', channel=3, note=33, velocity=80, time=21),
    Message('note_on', channel=3, note=33, velocity=0, time=59),
    Message('note_on', channel=3, note=33, velocity=80, time=1),
    Message('note_on', channel=3, note=33, velocity=0, time=59),
    Message('note_on', channel=3, note=33, velocity=80, time=1),
    Message('note_on', channel=3, note=33, velocity=0, time=59),
    Message('note_on', channel=3, note=33, velocity=80, time=1),
    Message('note_on', channel=3, note=33, velocity=0, time=19),
    Message('note_on', channel=3, note=33, velocity=80, time=11),
    Message('note_on', channel=3, note=33, velocity=0, time=19),
    Message('note_on', channel=3, note=33, velocity=80, time=11),
    Message('note_on', channel=3, note=33, velocity=0, time=59),
    Message('note_on', channel=3, note=36, velocity=80, time=1),
    Message('note_on', channel=3, note=36, velocity=0, time=59),
    Message('note_on', channel=3, note=36, velocity=80, time=1),
    Message('note_on', channel=3, note=34, velocity=80, time=60),
    Message('note_on', channel=3, note=36, velocity=0, time=19),
    Message('note_on', channel=3, note=34, velocity=0, time=20),
    Message('note_on', channel=3, note=26, velocity=80, time=21),
    Message('note_on', channel=3, note=26, velocity=0, time=79),
    Message('note_on', channel=3, note=26, velocity=80, time=101),
    Message('note_on', channel=3, note=30, velocity=80, time=60),
    Message('note_on', channel=3, note=26, velocity=0, time=19),
    Message('note_on', channel=3, note=30, velocity=0, time=60),
    Message('note_on', channel=3, note=30, velocity=80, time=101),
    Message('note_on', channel=3, note=30, velocity=0, time=39),
    Message('note_on', channel=3, note=35, velocity=80, time=21),
    Message('note_on', channel=3, note=35, velocity=0, time=79),
    Message('note_on', channel=3, note=35, velocity=80, time=101),
    Message('note_on', channel=3, note=31, velocity=80, time=60),
    Message('note_on', channel=3, note=35, velocity=0, time=19),
    Message('note_on', channel=3, note=31, velocity=0, time=60),
    Message('note_on', channel=3, note=31, velocity=80, time=101),
    Message('note_on', channel=3, note=31, velocity=0, time=39),
    Message('note_on', channel=3, note=34, velocity=80, time=21),
    Message('note_on', channel=3, note=34, velocity=0, time=39),
    Message('note_on', channel=3, note=34, velocity=80, time=21),
    Message('note_on', channel=3, note=34, velocity=0, time=39),
    Message('note_on', channel=3, note=34, velocity=80, time=21),
    Message('note_on', channel=3, note=34, velocity=0, time=39),
    Message('note_on', channel=3, note=34, velocity=80, time=21),
    Message('note_on', channel=3, note=34, velocity=0, time=19),
    Message('note_on', channel=3, note=34, velocity=80, time=11),
    Message('note_on', channel=3, note=34, velocity=0, time=19),
    Message('note_on', channel=3, note=34, velocity=80, time=11),
    Message('note_on', channel=3, note=34, velocity=0, time=39),
    Message('note_on', channel=3, note=36, velocity=80, time=21),
    Message('note_on', channel=3, note=36, velocity=0, time=39),
    Message('note_on', channel=3, note=36, velocity=80, time=21),
    Message('note_on', channel=3, note=36, velocity=0, time=39),
    Message('note_on', channel=3, note=33, velocity=80, time=81),
    Message('note_on', channel=3, note=33, velocity=0, time=39),
    Message('note_on', channel=3, note=33, velocity=80, time=21),
    Message('note_on', channel=3, note=33, velocity=0, time=39),
    Message('note_on', channel=3, note=33, velocity=80, time=21),
    Message('note_on', channel=3, note=33, velocity=0, time=39),
    Message('note_on', channel=3, note=33, velocity=80, time=21),
    Message('note_on', channel=3, note=33, velocity=0, time=19),
    Message('note_on', channel=3, note=33, velocity=80, time=11),
    Message('note_on', channel=3, note=33, velocity=0, time=19),
    Message('note_on', channel=3, note=33, velocity=80, time=11),
    Message('note_on', channel=3, note=33, velocity=0, time=39),
    Message('note_on', channel=3, note=36, velocity=80, time=21),
    Message('note_on', channel=3, note=36, velocity=0, time=39),
    Message('note_on', channel=3, note=36, velocity=80, time=21),
    Message('note_on', channel=3, note=36, velocity=0, time=39),
    Message('note_on', channel=3, note=26, velocity=80, time=81),
    Message('note_on', channel=3, note=26, velocity=0, time=79),
    Message('note_on', channel=3, note=26, velocity=80, time=101),
    Message('note_on', channel=3, note=30, velocity=80, time=60),
    Message('note_on', channel=3, note=26, velocity=0, time=19),
    Message('note_on', channel=3, note=30, velocity=0, time=60),
    Message('note_on', channel=3, note=30, velocity=80, time=101),
    Message('note_on', channel=3, note=30, velocity=0, time=39),
    Message('note_on', channel=3, note=35, velocity=80, time=21),
    Message('note_on', channel=3, note=35, velocity=0, time=79),
    Message('note_on', channel=3, note=35, velocity=80, time=101),
    Message('note_on', channel=3, note=31, velocity=80, time=60),
    Message('note_on', channel=3, note=35, velocity=0, time=19),
    Message('note_on', channel=3, note=31, velocity=0, time=60),
    Message('note_on', channel=3, note=31, velocity=80, time=101),
    Message('note_on', channel=3, note=31, velocity=0, time=39),
    Message('note_on', channel=3, note=34, velocity=80, time=21),
    Message('note_on', channel=3, note=34, velocity=0, time=39),
    Message('note_on', channel=3, note=34, velocity=80, time=21),
    Message('note_on', channel=3, note=34, velocity=0, time=39),
    Message('note_on', channel=3, note=34, velocity=80, time=21),
    Message('note_on', channel=3, note=34, velocity=0, time=39),
    Message('note_on', channel=3, note=34, velocity=80, time=21),
    Message('note_on', channel=3, note=34, velocity=0, time=19),
    Message('note_on', channel=3, note=34, velocity=80, time=11),
    Message('note_on', channel=3, note=34, velocity=0, time=19),
    Message('note_on', channel=3, note=34, velocity=80, time=11),
    Message('note_on', channel=3, note=34, velocity=0, time=39),
    Message('note_on', channel=3, note=36, velocity=80, time=21),
    Message('note_on', channel=3, note=36, velocity=0, time=39),
    Message('note_on', channel=3, note=36, velocity=80, time=21),
    Message('note_on', channel=3, note=36, velocity=0, time=39),
    Message('note_on', channel=3, note=33, velocity=80, time=81),
    Message('note_on', channel=3, note=33, velocity=0, time=39),
    Message('note_on', channel=3, note=33, velocity=80, time=21),
    Message('note_on', channel=3, note=33, velocity=0, time=39),
    Message('note_on', channel=3, note=33, velocity=80, time=21),
    Message('note_on', channel=3, note=33, velocity=0, time=39),
    Message('note_on', channel=3, note=33, velocity=80, time=21),
    Message('note_on', channel=3, note=33, velocity=0, time=19),
    Message('note_on', channel=3, note=33, velocity=80, time=11),
    Message('note_on', channel=3, note=33, velocity=0, time=19),
    Message('note_on', channel=3, note=33, velocity=80, time=11),
    Message('note_on', channel=3, note=33, velocity=0, time=39),
    Message('note_on', channel=3, note=36, velocity=80, time=21),
    Message('note_on', channel=3, note=36, velocity=0, time=39),
    Message('note_on', channel=3, note=36, velocity=80, time=21),
    Message('note_on', channel=3, note=36, velocity=0, time=39),
    Message('note_on', channel=3, note=26, velocity=80, time=81),
    Message('note_on', channel=3, note=26, velocity=0, time=79),
    Message('note_on', channel=3, note=26, velocity=80, time=101),
    Message('note_on', channel=3, note=30, velocity=80, time=60),
    Message('note_on', channel=3, note=26, velocity=0, time=19),
    Message('note_on', channel=3, note=30, velocity=0, time=60),
    Message('note_on', channel=3, note=30, velocity=80, time=101),
    Message('note_on', channel=3, note=30, velocity=0, time=39),
    Message('note_on', channel=3, note=35, velocity=80, time=21),
    Message('note_on', channel=3, note=35, velocity=0, time=79),
    Message('note_on', channel=3, note=35, velocity=80, time=101),
    Message('note_on', channel=3, note=31, velocity=80, time=60),
    Message('note_on', channel=3, note=35, velocity=0, time=19),
    Message('note_on', channel=3, note=31, velocity=0, time=60),
    Message('note_on', channel=3, note=31, velocity=80, time=101),
    Message('note_on', channel=3, note=31, velocity=0, time=39),
    Message('note_on', channel=3, note=34, velocity=80, time=21),
    Message('note_on', channel=3, note=34, velocity=0, time=39),
    Message('note_on', channel=3, note=34, velocity=80, time=21),
    Message('note_on', channel=3, note=34, velocity=0, time=39),
    Message('note_on', channel=3, note=34, velocity=80, time=21),
    Message('note_on', channel=3, note=34, velocity=0, time=39),
    Message('note_on', channel=3, note=34, velocity=80, time=21),
    Message('note_on', channel=3, note=34, velocity=0, time=19),
    Message('note_on', channel=3, note=34, velocity=80, time=11),
    Message('note_on', channel=3, note=34, velocity=0, time=19),
    Message('note_on', channel=3, note=34, velocity=80, time=11),
    Message('note_on', channel=3, note=34, velocity=0, time=39),
    Message('note_on', channel=3, note=36, velocity=80, time=21),
    Message('note_on', channel=3, note=36, velocity=0, time=39),
    Message('note_on', channel=3, note=36, velocity=80, time=21),
    Message('note_on', channel=3, note=36, velocity=0, time=39),
    Message('note_on', channel=3, note=33, velocity=80, time=81),
    Message('note_on', channel=3, note=33, velocity=0, time=39),
    Message('note_on', channel=3, note=33, velocity=80, time=21),
    Message('note_on', channel=3, note=33, velocity=0, time=39),
    Message('note_on', channel=3, note=33, velocity=80, time=21),
    Message('note_on', channel=3, note=33, velocity=0, time=39),
    Message('note_on', channel=3, note=33, velocity=80, time=21),
    Message('note_on', channel=3, note=33, velocity=0, time=19),
    Message('note_on', channel=3, note=33, velocity=80, time=11),
    Message('note_on', channel=3, note=33, velocity=0, time=19),
    Message('note_on', channel=3, note=33, velocity=80, time=11),
    Message('note_on', channel=3, note=33, velocity=0, time=39),
    Message('note_on', channel=3, note=36, velocity=80, time=21),
    Message('note_on', channel=3, note=36, velocity=0, time=39),
    Message('note_on', channel=3, note=36, velocity=80, time=21),
    Message('note_on', channel=3, note=36, velocity=0, time=39),
    Message('note_on', channel=3, note=26, velocity=80, time=81),
    Message('note_on', channel=3, note=26, velocity=0, time=79),
    Message('note_on', channel=3, note=26, velocity=80, time=101),
    Message('note_on', channel=3, note=30, velocity=80, time=60),
    Message('note_on', channel=3, note=26, velocity=0, time=19),
    Message('note_on', channel=3, note=30, velocity=0, time=60),
    Message('note_on', channel=3, note=30, velocity=80, time=101),
    Message('note_on', channel=3, note=30, velocity=0, time=39),
    Message('note_on', channel=3, note=35, velocity=80, time=21),
    Message('note_on', channel=3, note=35, velocity=0, time=79),
    Message('note_on', channel=3, note=35, velocity=80, time=101),
    Message('note_on', channel=3, note=31, velocity=80, time=60),
    Message('note_on', channel=3, note=35, velocity=0, time=19),
    Message('note_on', channel=3, note=31, velocity=0, time=60),
    Message('note_on', channel=3, note=31, velocity=80, time=101),
    Message('note_on', channel=3, note=31, velocity=0, time=39),
    Message('note_on', channel=3, note=34, velocity=80, time=21),
    Message('note_on', channel=3, note=34, velocity=0, time=39),
    Message('note_on', channel=3, note=34, velocity=80, time=21),
    Message('note_on', channel=3, note=34, velocity=0, time=39),
    Message('note_on', channel=3, note=34, velocity=80, time=21),
    Message('note_on', channel=3, note=34, velocity=0, time=39),
    Message('note_on', channel=3, note=34, velocity=80, time=21),
    Message('note_on', channel=3, note=34, velocity=0, time=19),
    Message('note_on', channel=3, note=34, velocity=80, time=11),
    Message('note_on', channel=3, note=34, velocity=0, time=19),
    Message('note_on', channel=3, note=34, velocity=80, time=11),
    Message('note_on', channel=3, note=34, velocity=0, time=39),
    Message('note_on', channel=3, note=36, velocity=80, time=21),
    Message('note_on', channel=3, note=36, velocity=0, time=39),
    Message('note_on', channel=3, note=36, velocity=80, time=21),
    Message('note_on', channel=3, note=36, velocity=0, time=39),
    Message('note_on', channel=3, note=33, velocity=80, time=81),
    Message('note_on', channel=3, note=33, velocity=80, time=0),
    Message('note_on', channel=3, note=33, velocity=0, time=39),
    Message('note_on', channel=3, note=33, velocity=0, time=20),
    Message('note_on', channel=3, note=33, velocity=80, time=1),
    Message('note_on', channel=3, note=33, velocity=80, time=0),
    Message('note_on', channel=3, note=33, velocity=0, time=39),
    Message('note_on', channel=3, note=33, velocity=0, time=20),
    Message('note_on', channel=3, note=33, velocity=80, time=1),
    Message('note_on', channel=3, note=33, velocity=80, time=0),
    Message('note_on', channel=3, note=33, velocity=0, time=39),
    Message('note_on', channel=3, note=33, velocity=0, time=20),
    Message('note_on', channel=3, note=33, velocity=80, time=1),
    Message('note_on', channel=3, note=33, velocity=80, time=0),
    Message('note_on', channel=3, note=33, velocity=0, time=19),
    Message('note_on', channel=3, note=33, velocity=0, time=10),
    Message('note_on', channel=3, note=33, velocity=80, time=1),
    Message('note_on', channel=3, note=33, velocity=80, time=0),
    Message('note_on', channel=3, note=33, velocity=0, time=19),
    Message('note_on', channel=3, note=33, velocity=0, time=10),
    Message('note_on', channel=3, note=33, velocity=80, time=1),
    Message('note_on', channel=3, note=33, velocity=80, time=0),
    Message('note_on', channel=3, note=33, velocity=0, time=39),
    Message('note_on', channel=3, note=33, velocity=0, time=20),
    Message('note_on', channel=3, note=36, velocity=80, time=1),
    Message('note_on', channel=3, note=36, velocity=80, time=0),
    Message('note_on', channel=3, note=36, velocity=0, time=39),
    Message('note_on', channel=3, note=36, velocity=0, time=20),
    Message('note_on', channel=3, note=36, velocity=80, time=1),
    Message('note_on', channel=3, note=36, velocity=80, time=0),
    Message('note_on', channel=3, note=36, velocity=0, time=39),
    Message('note_on', channel=3, note=36, velocity=0, time=80),
    Message('note_on', channel=3, note=26, velocity=80, time=1),
    Message('note_on', channel=3, note=26, velocity=0, time=119),
    Message('note_on', channel=3, note=26, velocity=80, time=1),
    Message('note_on', channel=3, note=26, velocity=0, time=119),
    Message('note_on', channel=3, note=30, velocity=80, time=1),
    Message('note_on', channel=3, note=30, velocity=0, time=119),
    Message('note_on', channel=3, note=30, velocity=80, time=1),
    Message('note_on', channel=3, note=30, velocity=0, time=119),
    Message('note_on', channel=3, note=35, velocity=80, time=1),
    Message('note_on', channel=3, note=35, velocity=0, time=119),
    Message('note_on', channel=3, note=35, velocity=80, time=1),
    Message('note_on', channel=3, note=35, velocity=0, time=119),
    Message('note_on', channel=3, note=31, velocity=80, time=1),
    Message('note_on', channel=3, note=31, velocity=0, time=119),
    Message('note_on', channel=3, note=31, velocity=80, time=1),
    Message('note_on', channel=3, note=31, velocity=0, time=119),
    Message('note_on', channel=3, note=34, velocity=80, time=1),
    Message('note_on', channel=3, note=34, velocity=0, time=59),
    Message('note_on', channel=3, note=34, velocity=80, time=1),
    Message('note_on', channel=3, note=34, velocity=0, time=59),
    Message('note_on', channel=3, note=34, velocity=80, time=1),
    Message('note_on', channel=3, note=34, velocity=0, time=59),
    Message('note_on', channel=3, note=34, velocity=80, time=1),
    Message('note_on', channel=3, note=34, velocity=0, time=19),
    Message('note_on', channel=3, note=34, velocity=80, time=11),
    Message('note_on', channel=3, note=34, velocity=0, time=19),
    Message('note_on', channel=3, note=34, velocity=80, time=11),
    Message('note_on', channel=3, note=34, velocity=0, time=59),
    Message('note_on', channel=3, note=36, velocity=80, time=1),
    Message('note_on', channel=3, note=36, velocity=0, time=59),
    Message('note_on', channel=3, note=36, velocity=80, time=1),
    Message('note_on', channel=3, note=34, velocity=80, time=60),
    Message('note_on', channel=3, note=36, velocity=0, time=19),
    Message('note_on', channel=3, note=34, velocity=0, time=20),
    Message('note_on', channel=3, note=33, velocity=80, time=21),
    Message('note_on', channel=3, note=33, velocity=0, time=59),
    Message('note_on', channel=3, note=33, velocity=80, time=1),
    Message('note_on', channel=3, note=33, velocity=0, time=59),
    Message('note_on', channel=3, note=33, velocity=80, time=1),
    Message('note_on', channel=3, note=33, velocity=0, time=59),
    Message('note_on', channel=3, note=33, velocity=80, time=1),
    Message('note_on', channel=3, note=33, velocity=0, time=29),
    Message('note_on', channel=3, note=33, velocity=80, time=1),
    Message('note_on', channel=3, note=33, velocity=0, time=29),
    Message('note_on', channel=3, note=33, velocity=80, time=1),
    Message('note_on', channel=3, note=33, velocity=0, time=59),
    Message('note_on', channel=3, note=36, velocity=80, time=1),
    Message('note_on', channel=3, note=36, velocity=0, time=59),
    Message('note_on', channel=3, note=36, velocity=80, time=1),
    Message('note_on', channel=3, note=36, velocity=0, time=119),
    Message('note_on', channel=3, note=26, velocity=80, time=1),
    Message('note_on', channel=3, note=26, velocity=0, time=119),
    Message('note_on', channel=3, note=26, velocity=80, time=1),
    Message('note_on', channel=3, note=26, velocity=0, time=119),
    Message('note_on', channel=3, note=30, velocity=80, time=1),
    Message('note_on', channel=3, note=30, velocity=0, time=119),
    Message('note_on', channel=3, note=30, velocity=80, time=1),
    Message('note_on', channel=3, note=30, velocity=0, time=119),
    Message('note_on', channel=3, note=35, velocity=80, time=1),
    Message('note_on', channel=3, note=35, velocity=0, time=119),
    Message('note_on', channel=3, note=35, velocity=80, time=1),
    Message('note_on', channel=3, note=35, velocity=0, time=119),
    Message('note_on', channel=3, note=31, velocity=80, time=1),
    Message('note_on', channel=3, note=31, velocity=0, time=119),
    Message('note_on', channel=3, note=31, velocity=80, time=1),
    Message('note_on', channel=3, note=31, velocity=0, time=119),
    Message('note_on', channel=3, note=34, velocity=80, time=1),
    Message('note_on', channel=3, note=34, velocity=0, time=59),
    Message('note_on', channel=3, note=34, velocity=80, time=1),
    Message('note_on', channel=3, note=34, velocity=0, time=59),
    Message('note_on', channel=3, note=34, velocity=80, time=1),
    Message('note_on', channel=3, note=34, velocity=0, time=59),
    Message('note_on', channel=3, note=34, velocity=80, time=1),
    Message('note_on', channel=3, note=34, velocity=0, time=19),
    Message('note_on', channel=3, note=34, velocity=80, time=11),
    Message('note_on', channel=3, note=34, velocity=0, time=19),
    Message('note_on', channel=3, note=34, velocity=80, time=11),
    Message('note_on', channel=3, note=34, velocity=0, time=59),
    Message('note_on', channel=3, note=36, velocity=80, time=1),
    Message('note_on', channel=3, note=36, velocity=0, time=59),
    Message('note_on', channel=3, note=36, velocity=80, time=1),
    Message('note_on', channel=3, note=34, velocity=80, time=60),
    Message('note_on', channel=3, note=36, velocity=0, time=19),
    Message('note_on', channel=3, note=34, velocity=0, time=20),
    Message('note_on', channel=3, note=33, velocity=80, time=21),
    Message('note_on', channel=3, note=33, velocity=0, time=59),
    Message('note_on', channel=3, note=33, velocity=80, time=1),
    Message('note_on', channel=3, note=33, velocity=0, time=59),
    Message('note_on', channel=3, note=33, velocity=80, time=1),
    Message('note_on', channel=3, note=33, velocity=0, time=59),
    Message('note_on', channel=3, note=33, velocity=80, time=1),
    Message('note_on', channel=3, note=33, velocity=0, time=19),
    Message('note_on', channel=3, note=33, velocity=80, time=11),
    Message('note_on', channel=3, note=33, velocity=0, time=19),
    Message('note_on', channel=3, note=33, velocity=80, time=11),
    Message('note_on', channel=3, note=33, velocity=0, time=59),
    Message('note_on', channel=3, note=36, velocity=80, time=1),
    Message('note_on', channel=3, note=36, velocity=0, time=59),
    Message('note_on', channel=3, note=36, velocity=80, time=1),
    Message('note_on', channel=3, note=34, velocity=80, time=60),
    Message('note_on', channel=3, note=36, velocity=0, time=19),
    Message('note_on', channel=3, note=34, velocity=0, time=20),
    Message('note_on', channel=3, note=26, velocity=80, time=21),
    Message('note_on', channel=3, note=26, velocity=0, time=119),
    Message('note_on', channel=3, note=26, velocity=80, time=1),
    Message('note_on', channel=3, note=26, velocity=0, time=119),
    Message('note_on', channel=3, note=30, velocity=80, time=1),
    Message('note_on', channel=3, note=30, velocity=0, time=119),
    Message('note_on', channel=3, note=30, velocity=80, time=1),
    Message('note_on', channel=3, note=30, velocity=0, time=119),
    Message('note_on', channel=3, note=35, velocity=80, time=1),
    Message('note_on', channel=3, note=35, velocity=0, time=119),
    Message('note_on', channel=3, note=35, velocity=80, time=1),
    Message('note_on', channel=3, note=35, velocity=0, time=119),
    Message('note_on', channel=3, note=31, velocity=80, time=1),
    Message('note_on', channel=3, note=31, velocity=0, time=119),
    Message('note_on', channel=3, note=31, velocity=80, time=1),
    Message('note_on', channel=3, note=31, velocity=0, time=119),
    Message('note_on', channel=3, note=34, velocity=80, time=1),
    Message('note_on', channel=3, note=34, velocity=0, time=59),
    Message('note_on', channel=3, note=34, velocity=80, time=1),
    Message('note_on', channel=3, note=34, velocity=0, time=59),
    Message('note_on', channel=3, note=34, velocity=80, time=1),
    Message('note_on', channel=3, note=34, velocity=0, time=59),
    Message('note_on', channel=3, note=34, velocity=80, time=1),
    Message('note_on', channel=3, note=34, velocity=0, time=19),
    Message('note_on', channel=3, note=34, velocity=80, time=11),
    Message('note_on', channel=3, note=34, velocity=0, time=19),
    Message('note_on', channel=3, note=34, velocity=80, time=11),
    Message('note_on', channel=3, note=34, velocity=0, time=59),
    Message('note_on', channel=3, note=36, velocity=80, time=1),
    Message('note_on', channel=3, note=36, velocity=0, time=59),
    Message('note_on', channel=3, note=36, velocity=80, time=1),
    Message('note_on', channel=3, note=34, velocity=80, time=60),
    Message('note_on', channel=3, note=36, velocity=0, time=19),
    Message('note_on', channel=3, note=34, velocity=0, time=20),
    Message('note_on', channel=3, note=33, velocity=80, time=21),
    Message('note_on', channel=3, note=33, velocity=0, time=59),
    Message('note_on', channel=3, note=33, velocity=80, time=1),
    Message('note_on', channel=3, note=33, velocity=0, time=59),
    Message('note_on', channel=3, note=33, velocity=80, time=1),
    Message('note_on', channel=3, note=33, velocity=0, time=59),
    Message('note_on', channel=3, note=33, velocity=80, time=1),
    Message('note_on', channel=3, note=33, velocity=0, time=19),
    Message('note_on', channel=3, note=33, velocity=80, time=11),
    Message('note_on', channel=3, note=33, velocity=0, time=19),
    Message('note_on', channel=3, note=33, velocity=80, time=11),
    Message('note_on', channel=3, note=33, velocity=0, time=59),
    Message('note_on', channel=3, note=36, velocity=80, time=1),
    Message('note_on', channel=3, note=36, velocity=0, time=59),
    Message('note_on', channel=3, note=36, velocity=80, time=1),
    Message('note_on', channel=3, note=34, velocity=80, time=60),
    Message('note_on', channel=3, note=36, velocity=0, time=19),
    Message('note_on', channel=3, note=34, velocity=0, time=20),
    Message('note_on', channel=3, note=31, velocity=80, time=21),
    Message('note_on', channel=3, note=31, velocity=0, time=39),
    Message('note_on', channel=3, note=31, velocity=80, time=81),
    Message('note_on', channel=3, note=31, velocity=0, time=39),
    Message('note_on', channel=3, note=36, velocity=80, time=21),
    Message('note_on', channel=3, note=36, velocity=0, time=39),
    Message('note_on', channel=3, note=34, velocity=80, time=21),
    Message('note_on', channel=3, note=34, velocity=0, time=79),
    Message('note_on', channel=3, note=34, velocity=80, time=41),
    Message('note_on', channel=3, note=34, velocity=0, time=79),
    Message('note_on', channel=3, note=31, velocity=80, time=41),
    Message('note_on', channel=3, note=31, velocity=0, time=59),
    Message('note_on', channel=3, note=31, velocity=80, time=61),
    Message('note_on', channel=3, note=31, velocity=0, time=59),
    Message('note_on', channel=3, note=29, velocity=80, time=61),
    Message('note_on', channel=3, note=29, velocity=0, time=59),
    Message('note_on', channel=3, note=31, velocity=80, time=1),
    Message('note_on', channel=3, note=31, velocity=0, time=59),
    Message('note_on', channel=3, note=29, velocity=80, time=61),
    Message('note_on', channel=3, note=29, velocity=0, time=59),
    Message('note_on', channel=3, note=31, velocity=80, time=1),
    Message('note_on', channel=3, note=31, velocity=0, time=39),
    Message('note_on', channel=3, note=31, velocity=80, time=81),
    Message('note_on', channel=3, note=31, velocity=0, time=39),
    Message('note_on', channel=3, note=36, velocity=80, time=21),
    Message('note_on', channel=3, note=36, velocity=0, time=39),
    Message('note_on', channel=3, note=34, velocity=80, time=21),
    Message('note_on', channel=3, note=34, velocity=0, time=79),
    Message('note_on', channel=3, note=34, velocity=80, time=41),
    Message('note_on', channel=3, note=34, velocity=0, time=79),
    Message('note_on', channel=3, note=31, velocity=80, time=41),
    Message('note_on', channel=3, note=31, velocity=0, time=59),
    Message('note_on', channel=3, note=31, velocity=80, time=61),
    Message('note_on', channel=3, note=31, velocity=0, time=59),
    Message('note_on', channel=3, note=29, velocity=80, time=61),
    Message('note_on', channel=3, note=29, velocity=0, time=59),
    Message('note_on', channel=3, note=31, velocity=80, time=1),
    Message('note_on', channel=3, note=31, velocity=0, time=59),
    Message('note_on', channel=3, note=29, velocity=80, time=61),
    Message('note_on', channel=3, note=29, velocity=0, time=59),
    Message('note_on', channel=3, note=31, velocity=80, time=1),
    Message('note_on', channel=3, note=31, velocity=0, time=39),
    Message('note_on', channel=3, note=31, velocity=80, time=81),
    Message('note_on', channel=3, note=31, velocity=0, time=39),
    Message('note_on', channel=3, note=36, velocity=80, time=21),
    Message('note_on', channel=3, note=36, velocity=0, time=39),
    Message('note_on', channel=3, note=34, velocity=80, time=21),
    Message('note_on', channel=3, note=34, velocity=0, time=79),
    Message('note_on', channel=3, note=34, velocity=80, time=41),
    Message('note_on', channel=3, note=34, velocity=0, time=79),
    Message('note_on', channel=3, note=31, velocity=80, time=41),
    Message('note_on', channel=3, note=31, velocity=0, time=59),
    Message('note_on', channel=3, note=31, velocity=80, time=61),
    Message('note_on', channel=3, note=31, velocity=0, time=59),
    Message('note_on', channel=3, note=29, velocity=80, time=61),
    Message('note_on', channel=3, note=29, velocity=0, time=59),
    Message('note_on', channel=3, note=31, velocity=80, time=1),
    Message('note_on', channel=3, note=31, velocity=0, time=59),
    Message('note_on', channel=3, note=29, velocity=80, time=61),
    Message('note_on', channel=3, note=29, velocity=0, time=59),
    Message('note_on', channel=3, note=31, velocity=80, time=1),
    Message('note_on', channel=3, note=31, velocity=0, time=39),
    Message('note_on', channel=3, note=31, velocity=80, time=81),
    Message('note_on', channel=3, note=31, velocity=0, time=39),
    Message('note_on', channel=3, note=36, velocity=80, time=21),
    Message('note_on', channel=3, note=36, velocity=0, time=39),
    Message('note_on', channel=3, note=34, velocity=80, time=21),
    Message('note_on', channel=3, note=34, velocity=0, time=79),
    Message('note_on', channel=3, note=34, velocity=80, time=41),
    Message('note_on', channel=3, note=34, velocity=0, time=79),
    Message('note_on', channel=3, note=31, velocity=80, time=41),
    Message('note_on', channel=3, note=31, velocity=0, time=59),
    Message('note_on', channel=3, note=31, velocity=80, time=61),
    Message('note_on', channel=3, note=31, velocity=0, time=59),
    Message('note_on', channel=3, note=29, velocity=80, time=61),
    Message('note_on', channel=3, note=29, velocity=0, time=59),
    Message('note_on', channel=3, note=31, velocity=80, time=1),
    Message('note_on', channel=3, note=31, velocity=0, time=59),
    Message('note_on', channel=3, note=29, velocity=80, time=61),
    Message('note_on', channel=3, note=29, velocity=0, time=59),
    Message('note_on', channel=3, note=36, velocity=80, time=1),
    Message('note_on', channel=3, note=36, velocity=0, time=59),
    Message('note_on', channel=3, note=36, velocity=80, time=1),
    Message('note_on', channel=3, note=36, velocity=0, time=59),
    Message('note_on', channel=3, note=36, velocity=80, time=1),
    Message('note_on', channel=3, note=36, velocity=0, time=59),
    Message('note_on', channel=3, note=36, velocity=80, time=1),
    Message('note_on', channel=3, note=36, velocity=0, time=59),
    Message('note_on', channel=3, note=36, velocity=80, time=1),
    Message('note_on', channel=3, note=36, velocity=0, time=59),
    Message('note_on', channel=3, note=36, velocity=80, time=1),
    Message('note_on', channel=3, note=36, velocity=0, time=59),
    Message('note_on', channel=3, note=36, velocity=80, time=1),
    Message('note_on', channel=3, note=36, velocity=0, time=59),
    Message('note_on', channel=3, note=36, velocity=80, time=1),
    Message('note_on', channel=3, note=36, velocity=0, time=59),
    Message('note_on', channel=3, note=33, velocity=80, time=1),
    Message('note_on', channel=3, note=33, velocity=0, time=59),
    Message('note_on', channel=3, note=33, velocity=80, time=1),
    Message('note_on', channel=3, note=33, velocity=0, time=59),
    Message('note_on', channel=3, note=33, velocity=80, time=1),
    Message('note_on', channel=3, note=33, velocity=0, time=59),
    Message('note_on', channel=3, note=33, velocity=80, time=1),
    Message('note_on', channel=3, note=33, velocity=0, time=59),
    Message('note_on', channel=3, note=33, velocity=80, time=1),
    Message('note_on', channel=3, note=33, velocity=0, time=59),
    Message('note_on', channel=3, note=26, velocity=80, time=1),
    Message('note_on', channel=3, note=26, velocity=0, time=59),
    Message('note_on', channel=3, note=29, velocity=80, time=1),
    Message('note_on', channel=3, note=29, velocity=0, time=119),
    Message('note_on', channel=3, note=33, velocity=80, time=9121),
    Message('note_on', channel=3, note=33, velocity=0, time=59),
    Message('note_on', channel=3, note=33, velocity=80, time=1),
    Message('note_on', channel=3, note=33, velocity=0, time=59),
    Message('note_on', channel=3, note=33, velocity=80, time=1),
    Message('note_on', channel=3, note=33, velocity=0, time=59),
    Message('note_on', channel=3, note=33, velocity=80, time=1),
    Message('note_on', channel=3, note=33, velocity=0, time=29),
    Message('note_on', channel=3, note=33, velocity=80, time=1),
    Message('note_on', channel=3, note=33, velocity=0, time=29),
    Message('note_on', channel=3, note=33, velocity=80, time=1),
    Message('note_on', channel=3, note=33, velocity=0, time=59),
    Message('note_on', channel=3, note=36, velocity=80, time=1),
    Message('note_on', channel=3, note=36, velocity=0, time=59),
    Message('note_on', channel=3, note=36, velocity=80, time=1),
    Message('note_on', channel=3, note=36, velocity=0, time=119),
    Message('note_on', channel=3, note=26, velocity=80, time=1),
    Message('note_on', channel=3, note=26, velocity=0, time=119),
    Message('note_on', channel=3, note=26, velocity=80, time=1),
    Message('note_on', channel=3, note=26, velocity=0, time=119),
    Message('note_on', channel=3, note=30, velocity=80, time=1),
    Message('note_on', channel=3, note=30, velocity=0, time=119),
    Message('note_on', channel=3, note=30, velocity=80, time=1),
    Message('note_on', channel=3, note=30, velocity=0, time=119),
    Message('note_on', channel=3, note=35, velocity=80, time=1),
    Message('note_on', channel=3, note=35, velocity=0, time=119),
    Message('note_on', channel=3, note=35, velocity=80, time=1),
    Message('note_on', channel=3, note=35, velocity=0, time=119),
    Message('note_on', channel=3, note=31, velocity=80, time=1),
    Message('note_on', channel=3, note=31, velocity=0, time=119),
    Message('note_on', channel=3, note=31, velocity=80, time=1),
    Message('note_on', channel=3, note=31, velocity=0, time=119),
    Message('note_on', channel=3, note=34, velocity=80, time=1),
    Message('note_on', channel=3, note=34, velocity=0, time=59),
    Message('note_on', channel=3, note=34, velocity=80, time=1),
    Message('note_on', channel=3, note=34, velocity=0, time=59),
    Message('note_on', channel=3, note=34, velocity=80, time=1),
    Message('note_on', channel=3, note=34, velocity=0, time=59),
    Message('note_on', channel=3, note=34, velocity=80, time=1),
    Message('note_on', channel=3, note=34, velocity=0, time=19),
    Message('note_on', channel=3, note=34, velocity=80, time=11),
    Message('note_on', channel=3, note=34, velocity=0, time=19),
    Message('note_on', channel=3, note=34, velocity=80, time=11),
    Message('note_on', channel=3, note=34, velocity=0, time=59),
    Message('note_on', channel=3, note=36, velocity=80, time=1),
    Message('note_on', channel=3, note=36, velocity=0, time=59),
    Message('note_on', channel=3, note=36, velocity=80, time=1),
    Message('note_on', channel=3, note=34, velocity=80, time=60),
    Message('note_on', channel=3, note=36, velocity=0, time=19),
    Message('note_on', channel=3, note=34, velocity=0, time=20),
    Message('note_on', channel=3, note=33, velocity=80, time=21),
    Message('note_on', channel=3, note=33, velocity=0, time=59),
    Message('note_on', channel=3, note=33, velocity=80, time=1),
    Message('note_on', channel=3, note=33, velocity=0, time=59),
    Message('note_on', channel=3, note=33, velocity=80, time=1),
    Message('note_on', channel=3, note=33, velocity=0, time=59),
    Message('note_on', channel=3, note=33, velocity=80, time=1),
    Message('note_on', channel=3, note=33, velocity=0, time=29),
    Message('note_on', channel=3, note=33, velocity=80, time=1),
    Message('note_on', channel=3, note=33, velocity=0, time=29),
    Message('note_on', channel=3, note=33, velocity=80, time=1),
    Message('note_on', channel=3, note=33, velocity=0, time=59),
    Message('note_on', channel=3, note=36, velocity=80, time=1),
    Message('note_on', channel=3, note=36, velocity=0, time=59),
    Message('note_on', channel=3, note=36, velocity=80, time=1),
    Message('note_on', channel=3, note=36, velocity=0, time=119),
    Message('note_on', channel=3, note=26, velocity=80, time=1),
    Message('note_on', channel=3, note=26, velocity=0, time=119),
    Message('note_on', channel=3, note=26, velocity=80, time=1),
    Message('note_on', channel=3, note=26, velocity=0, time=119),
    Message('note_on', channel=3, note=30, velocity=80, time=1),
    Message('note_on', channel=3, note=30, velocity=0, time=119),
    Message('note_on', channel=3, note=30, velocity=80, time=1),
    Message('note_on', channel=3, note=30, velocity=0, time=119),
    Message('note_on', channel=3, note=35, velocity=80, time=1),
    Message('note_on', channel=3, note=35, velocity=0, time=119),
    Message('note_on', channel=3, note=35, velocity=80, time=1),
    Message('note_on', channel=3, note=35, velocity=0, time=119),
    Message('note_on', channel=3, note=31, velocity=80, time=1),
    Message('note_on', channel=3, note=31, velocity=0, time=119),
    Message('note_on', channel=3, note=31, velocity=80, time=1),
    Message('note_on', channel=3, note=31, velocity=0, time=119),
    Message('note_on', channel=3, note=34, velocity=80, time=1),
    Message('note_on', channel=3, note=34, velocity=0, time=59),
    Message('note_on', channel=3, note=34, velocity=80, time=1),
    Message('note_on', channel=3, note=34, velocity=0, time=59),
    Message('note_on', channel=3, note=34, velocity=80, time=1),
    Message('note_on', channel=3, note=34, velocity=0, time=59),
    Message('note_on', channel=3, note=34, velocity=80, time=1),
    Message('note_on', channel=3, note=34, velocity=0, time=19),
    Message('note_on', channel=3, note=34, velocity=80, time=11),
    Message('note_on', channel=3, note=34, velocity=0, time=19),
    Message('note_on', channel=3, note=34, velocity=80, time=11),
    Message('note_on', channel=3, note=34, velocity=0, time=59),
    Message('note_on', channel=3, note=36, velocity=80, time=1),
    Message('note_on', channel=3, note=36, velocity=0, time=59),
    Message('note_on', channel=3, note=36, velocity=80, time=1),
    Message('note_on', channel=3, note=34, velocity=80, time=60),
    Message('note_on', channel=3, note=36, velocity=0, time=19),
    Message('note_on', channel=3, note=34, velocity=0, time=20),
    Message('note_on', channel=3, note=33, velocity=80, time=21),
    Message('note_on', channel=3, note=33, velocity=0, time=59),
    Message('note_on', channel=3, note=33, velocity=80, time=1),
    Message('note_on', channel=3, note=33, velocity=0, time=59),
    Message('note_on', channel=3, note=33, velocity=80, time=1),
    Message('note_on', channel=3, note=33, velocity=0, time=59),
    Message('note_on', channel=3, note=33, velocity=80, time=1),
    Message('note_on', channel=3, note=33, velocity=0, time=19),
    Message('note_on', channel=3, note=33, velocity=80, time=11),
    Message('note_on', channel=3, note=33, velocity=0, time=19),
    Message('note_on', channel=3, note=33, velocity=80, time=11),
    Message('note_on', channel=3, note=33, velocity=0, time=59),
    Message('note_on', channel=3, note=36, velocity=80, time=1),
    Message('note_on', channel=3, note=36, velocity=0, time=59),
    Message('note_on', channel=3, note=36, velocity=80, time=1),
    Message('note_on', channel=3, note=34, velocity=80, time=60),
    Message('note_on', channel=3, note=36, velocity=0, time=19),
    Message('note_on', channel=3, note=34, velocity=0, time=20),
    Message('note_on', channel=3, note=26, velocity=80, time=21),
    Message('note_on', channel=3, note=26, velocity=0, time=119),
    Message('note_on', channel=3, note=26, velocity=80, time=1),
    Message('note_on', channel=3, note=26, velocity=0, time=119),
    Message('note_on', channel=3, note=30, velocity=80, time=1),
    Message('note_on', channel=3, note=30, velocity=0, time=119),
    Message('note_on', channel=3, note=30, velocity=80, time=1),
    Message('note_on', channel=3, note=30, velocity=0, time=119),
    Message('note_on', channel=3, note=35, velocity=80, time=1),
    Message('note_on', channel=3, note=35, velocity=0, time=119),
    Message('note_on', channel=3, note=35, velocity=80, time=1),
    Message('note_on', channel=3, note=35, velocity=0, time=119),
    Message('note_on', channel=3, note=31, velocity=80, time=1),
    Message('note_on', channel=3, note=31, velocity=0, time=119),
    Message('note_on', channel=3, note=31, velocity=80, time=1),
    Message('note_on', channel=3, note=31, velocity=0, time=119),
    Message('note_on', channel=3, note=34, velocity=80, time=1),
    Message('note_on', channel=3, note=34, velocity=0, time=59),
    Message('note_on', channel=3, note=34, velocity=80, time=1),
    Message('note_on', channel=3, note=34, velocity=0, time=59),
    Message('note_on', channel=3, note=34, velocity=80, time=1),
    Message('note_on', channel=3, note=34, velocity=0, time=59),
    Message('note_on', channel=3, note=34, velocity=80, time=1),
    Message('note_on', channel=3, note=34, velocity=0, time=19),
    Message('note_on', channel=3, note=34, velocity=80, time=11),
    Message('note_on', channel=3, note=34, velocity=0, time=19),
    Message('note_on', channel=3, note=34, velocity=80, time=11),
    Message('note_on', channel=3, note=34, velocity=0, time=59),
    Message('note_on', channel=3, note=36, velocity=80, time=1),
    Message('note_on', channel=3, note=36, velocity=0, time=59),
    Message('note_on', channel=3, note=36, velocity=80, time=1),
    Message('note_on', channel=3, note=34, velocity=80, time=60),
    Message('note_on', channel=3, note=36, velocity=0, time=19),
    Message('note_on', channel=3, note=34, velocity=0, time=20),
    Message('note_on', channel=3, note=33, velocity=80, time=21),
    Message('note_on', channel=3, note=33, velocity=0, time=59),
    Message('note_on', channel=3, note=33, velocity=80, time=1),
    Message('note_on', channel=3, note=33, velocity=0, time=59),
    Message('note_on', channel=3, note=33, velocity=80, time=1),
    Message('note_on', channel=3, note=33, velocity=0, time=59),
    Message('note_on', channel=3, note=33, velocity=80, time=1),
    Message('note_on', channel=3, note=33, velocity=0, time=19),
    Message('note_on', channel=3, note=33, velocity=80, time=11),
    Message('note_on', channel=3, note=33, velocity=0, time=19),
    Message('note_on', channel=3, note=33, velocity=80, time=11),
    Message('note_on', channel=3, note=33, velocity=0, time=59),
    Message('note_on', channel=3, note=36, velocity=80, time=1),
    Message('note_on', channel=3, note=36, velocity=0, time=59),
    Message('note_on', channel=3, note=36, velocity=80, time=1),
    Message('note_on', channel=3, note=34, velocity=80, time=60),
    Message('note_on', channel=3, note=36, velocity=0, time=19),
    Message('note_on', channel=3, note=34, velocity=0, time=20),
    Message('note_on', channel=3, note=31, velocity=80, time=21),
    Message('note_on', channel=3, note=31, velocity=0, time=39),
    Message('note_on', channel=3, note=31, velocity=80, time=81),
    Message('note_on', channel=3, note=31, velocity=0, time=39),
    Message('note_on', channel=3, note=36, velocity=80, time=21),
    Message('note_on', channel=3, note=36, velocity=0, time=39),
    Message('note_on', channel=3, note=34, velocity=80, time=21),
    Message('note_on', channel=3, note=34, velocity=0, time=79),
    Message('note_on', channel=3, note=34, velocity=80, time=41),
    Message('note_on', channel=3, note=34, velocity=0, time=79),
    Message('note_on', channel=3, note=31, velocity=80, time=41),
    Message('note_on', channel=3, note=31, velocity=0, time=59),
    Message('note_on', channel=3, note=31, velocity=80, time=61),
    Message('note_on', channel=3, note=31, velocity=0, time=59),
    Message('note_on', channel=3, note=29, velocity=80, time=61),
    Message('note_on', channel=3, note=29, velocity=0, time=59),
    Message('note_on', channel=3, note=31, velocity=80, time=1),
    Message('note_on', channel=3, note=31, velocity=0, time=59),
    Message('note_on', channel=3, note=29, velocity=80, time=61),
    Message('note_on', channel=3, note=29, velocity=0, time=59),
    Message('note_on', channel=3, note=31, velocity=80, time=1),
    Message('note_on', channel=3, note=31, velocity=0, time=39),
    Message('note_on', channel=3, note=31, velocity=80, time=81),
    Message('note_on', channel=3, note=31, velocity=0, time=39),
    Message('note_on', channel=3, note=36, velocity=80, time=21),
    Message('note_on', channel=3, note=36, velocity=0, time=39),
    Message('note_on', channel=3, note=34, velocity=80, time=21),
    Message('note_on', channel=3, note=34, velocity=0, time=79),
    Message('note_on', channel=3, note=34, velocity=80, time=41),
    Message('note_on', channel=3, note=34, velocity=0, time=79),
    Message('note_on', channel=3, note=31, velocity=80, time=41),
    Message('note_on', channel=3, note=31, velocity=0, time=59),
    Message('note_on', channel=3, note=31, velocity=80, time=61),
    Message('note_on', channel=3, note=31, velocity=0, time=59),
    Message('note_on', channel=3, note=29, velocity=80, time=61),
    Message('note_on', channel=3, note=29, velocity=0, time=59),
    Message('note_on', channel=3, note=31, velocity=80, time=1),
    Message('note_on', channel=3, note=31, velocity=0, time=59),
    Message('note_on', channel=3, note=29, velocity=80, time=61),
    Message('note_on', channel=3, note=29, velocity=0, time=59),
    Message('note_on', channel=3, note=31, velocity=80, time=1),
    Message('note_on', channel=3, note=31, velocity=0, time=39),
    Message('note_on', channel=3, note=31, velocity=80, time=81),
    Message('note_on', channel=3, note=31, velocity=0, time=39),
    Message('note_on', channel=3, note=36, velocity=80, time=21),
    Message('note_on', channel=3, note=36, velocity=0, time=39),
    Message('note_on', channel=3, note=34, velocity=80, time=21),
    Message('note_on', channel=3, note=34, velocity=0, time=79),
    Message('note_on', channel=3, note=34, velocity=80, time=41),
    Message('note_on', channel=3, note=34, velocity=0, time=79),
    Message('note_on', channel=3, note=31, velocity=80, time=41),
    Message('note_on', channel=3, note=31, velocity=0, time=59),
    Message('note_on', channel=3, note=31, velocity=80, time=61),
    Message('note_on', channel=3, note=31, velocity=0, time=59),
    Message('note_on', channel=3, note=29, velocity=80, time=61),
    Message('note_on', channel=3, note=29, velocity=0, time=59),
    Message('note_on', channel=3, note=31, velocity=80, time=1),
    Message('note_on', channel=3, note=31, velocity=0, time=59),
    Message('note_on', channel=3, note=29, velocity=80, time=61),
    Message('note_on', channel=3, note=29, velocity=0, time=59),
    Message('note_on', channel=3, note=31, velocity=80, time=1),
    Message('note_on', channel=3, note=31, velocity=0, time=39),
    Message('note_on', channel=3, note=31, velocity=80, time=81),
    Message('note_on', channel=3, note=31, velocity=0, time=39),
    Message('note_on', channel=3, note=36, velocity=80, time=21),
    Message('note_on', channel=3, note=36, velocity=0, time=39),
    Message('note_on', channel=3, note=34, velocity=80, time=21),
    Message('note_on', channel=3, note=34, velocity=0, time=79),
    Message('note_on', channel=3, note=34, velocity=80, time=41),
    Message('note_on', channel=3, note=34, velocity=0, time=79),
    Message('note_on', channel=3, note=31, velocity=80, time=41),
    Message('note_on', channel=3, note=31, velocity=0, time=59),
    Message('note_on', channel=3, note=31, velocity=80, time=61),
    Message('note_on', channel=3, note=31, velocity=0, time=59),
    Message('note_on', channel=3, note=29, velocity=80, time=61),
    Message('note_on', channel=3, note=29, velocity=0, time=59),
    Message('note_on', channel=3, note=31, velocity=80, time=1),
    Message('note_on', channel=3, note=31, velocity=0, time=59),
    Message('note_on', channel=3, note=29, velocity=80, time=61),
    Message('note_on', channel=3, note=29, velocity=0, time=59),
    Message('note_on', channel=3, note=31, velocity=80, time=1),
    Message('note_on', channel=3, note=31, velocity=0, time=39),
    Message('note_on', channel=3, note=31, velocity=80, time=81),
    Message('note_on', channel=3, note=31, velocity=0, time=39),
    Message('note_on', channel=3, note=36, velocity=80, time=21),
    Message('note_on', channel=3, note=36, velocity=0, time=39),
    Message('note_on', channel=3, note=34, velocity=80, time=21),
    Message('note_on', channel=3, note=34, velocity=0, time=79),
    Message('note_on', channel=3, note=34, velocity=80, time=41),
    Message('note_on', channel=3, note=34, velocity=0, time=79),
    Message('note_on', channel=3, note=31, velocity=80, time=41),
    Message('note_on', channel=3, note=31, velocity=0, time=59),
    Message('note_on', channel=3, note=31, velocity=80, time=61),
    Message('note_on', channel=3, note=31, velocity=0, time=59),
    Message('note_on', channel=3, note=29, velocity=80, time=61),
    Message('note_on', channel=3, note=29, velocity=0, time=59),
    Message('note_on', channel=3, note=31, velocity=80, time=1),
    Message('note_on', channel=3, note=31, velocity=0, time=59),
    Message('note_on', channel=3, note=29, velocity=80, time=61),
    Message('note_on', channel=3, note=29, velocity=0, time=59),
    Message('note_on', channel=3, note=31, velocity=80, time=1),
    Message('note_on', channel=3, note=31, velocity=0, time=39),
    Message('note_on', channel=3, note=31, velocity=80, time=81),
    Message('note_on', channel=3, note=31, velocity=0, time=39),
    Message('note_on', channel=3, note=36, velocity=80, time=21),
    Message('note_on', channel=3, note=36, velocity=0, time=39),
    Message('note_on', channel=3, note=34, velocity=80, time=21),
    Message('note_on', channel=3, note=34, velocity=0, time=79),
    Message('note_on', channel=3, note=34, velocity=80, time=41),
    Message('note_on', channel=3, note=34, velocity=0, time=79),
    Message('note_on', channel=3, note=31, velocity=80, time=41),
    Message('note_on', channel=3, note=31, velocity=0, time=59),
    Message('note_on', channel=3, note=31, velocity=80, time=61),
    Message('note_on', channel=3, note=31, velocity=0, time=59),
    Message('note_on', channel=3, note=29, velocity=80, time=61),
    Message('note_on', channel=3, note=29, velocity=0, time=59),
    Message('note_on', channel=3, note=31, velocity=80, time=1),
    Message('note_on', channel=3, note=31, velocity=0, time=59),
    Message('note_on', channel=3, note=29, velocity=80, time=61),
    Message('note_on', channel=3, note=29, velocity=0, time=59),
    Message('note_on', channel=3, note=31, velocity=80, time=1),
    Message('note_on', channel=3, note=31, velocity=0, time=39),
    Message('note_on', channel=3, note=31, velocity=80, time=81),
    Message('note_on', channel=3, note=31, velocity=0, time=39),
    Message('note_on', channel=3, note=36, velocity=80, time=21),
    Message('note_on', channel=3, note=36, velocity=0, time=39),
    Message('note_on', channel=3, note=34, velocity=80, time=21),
    Message('note_on', channel=3, note=34, velocity=0, time=79),
    Message('note_on', channel=3, note=34, velocity=80, time=41),
    Message('note_on', channel=3, note=34, velocity=0, time=79),
    Message('note_on', channel=3, note=31, velocity=80, time=41),
    Message('note_on', channel=3, note=31, velocity=0, time=59),
    Message('note_on', channel=3, note=31, velocity=80, time=61),
    Message('note_on', channel=3, note=31, velocity=0, time=59),
    Message('note_on', channel=3, note=29, velocity=80, time=61),
    Message('note_on', channel=3, note=29, velocity=0, time=59),
    Message('note_on', channel=3, note=31, velocity=80, time=1),
    Message('note_on', channel=3, note=31, velocity=0, time=59),
    Message('note_on', channel=3, note=29, velocity=80, time=61),
    Message('note_on', channel=3, note=29, velocity=0, time=59),
    Message('note_on', channel=3, note=31, velocity=80, time=1),
    Message('note_on', channel=3, note=31, velocity=0, time=39),
    Message('note_on', channel=3, note=31, velocity=80, time=81),
    Message('note_on', channel=3, note=31, velocity=0, time=39),
    Message('note_on', channel=3, note=36, velocity=80, time=21),
    Message('note_on', channel=3, note=36, velocity=0, time=39),
    Message('note_on', channel=3, note=34, velocity=80, time=21),
    Message('note_on', channel=3, note=34, velocity=0, time=79),
    Message('note_on', channel=3, note=34, velocity=80, time=41),
    Message('note_on', channel=3, note=34, velocity=0, time=79),
    Message('note_on', channel=3, note=31, velocity=80, time=41),
    Message('note_on', channel=3, note=31, velocity=0, time=59),
    Message('note_on', channel=3, note=31, velocity=80, time=61),
    Message('note_on', channel=3, note=31, velocity=0, time=59),
    Message('note_on', channel=3, note=29, velocity=80, time=61),
    Message('note_on', channel=3, note=29, velocity=0, time=59),
    Message('note_on', channel=3, note=31, velocity=80, time=1),
    Message('note_on', channel=3, note=31, velocity=0, time=59),
    Message('note_on', channel=3, note=29, velocity=80, time=61),
    Message('note_on', channel=3, note=29, velocity=0, time=59),
    Message('note_on', channel=3, note=36, velocity=80, time=1),
    Message('note_on', channel=3, note=36, velocity=0, time=59),
    Message('note_on', channel=3, note=36, velocity=80, time=1),
    Message('note_on', channel=3, note=36, velocity=0, time=59),
    Message('note_on', channel=3, note=36, velocity=80, time=1),
    Message('note_on', channel=3, note=36, velocity=0, time=59),
    Message('note_on', channel=3, note=36, velocity=80, time=1),
    Message('note_on', channel=3, note=36, velocity=0, time=59),
    Message('note_on', channel=3, note=36, velocity=80, time=1),
    Message('note_on', channel=3, note=36, velocity=0, time=59),
    Message('note_on', channel=3, note=36, velocity=80, time=1),
    Message('note_on', channel=3, note=36, velocity=0, time=59),
    Message('note_on', channel=3, note=36, velocity=80, time=1),
    Message('note_on', channel=3, note=36, velocity=0, time=59),
    Message('note_on', channel=3, note=36, velocity=80, time=1),
    Message('note_on', channel=3, note=36, velocity=0, time=59),
    Message('note_on', channel=3, note=33, velocity=80, time=1),
    Message('note_on', channel=3, note=33, velocity=0, time=59),
    Message('note_on', channel=3, note=33, velocity=80, time=1),
    Message('note_on', channel=3, note=33, velocity=0, time=59),
    Message('note_on', channel=3, note=33, velocity=80, time=1),
    Message('note_on', channel=3, note=33, velocity=0, time=59),
    Message('note_on', channel=3, note=33, velocity=80, time=1),
    Message('note_on', channel=3, note=33, velocity=0, time=59),
    Message('note_on', channel=3, note=33, velocity=80, time=1),
    Message('note_on', channel=3, note=33, velocity=0, time=59),
    Message('note_on', channel=3, note=26, velocity=80, time=1),
    Message('note_on', channel=3, note=26, velocity=0, time=59),
    Message('note_on', channel=3, note=29, velocity=80, time=1),
    Message('note_on', channel=3, note=29, velocity=0, time=119),
    Message('note_on', channel=3, note=26, velocity=60, time=1),
    Message('note_on', channel=3, note=26, velocity=0, time=479),
    MetaMessage('end_of_track', time=0)]),
  MidiTrack([
    MetaMessage('track_name', name='WinJammer Demo', time=0),
    MetaMessage('midi_port', port=0, time=0),
    Message('control_change', channel=9, control=7, value=100, time=0),
    Message('note_on', channel=9, note=41, velocity=90, time=1920),
    Message('note_on', channel=9, note=45, velocity=90, time=0),
    Message('note_on', channel=9, note=54, velocity=90, time=0),
    Message('note_on', channel=9, note=41, velocity=0, time=39),
    Message('note_on', channel=9, note=45, velocity=0, time=0),
    Message('note_on', channel=9, note=54, velocity=0, time=0),
    Message('note_on', channel=9, note=54, velocity=90, time=21),
    Message('note_on', channel=9, note=54, velocity=0, time=39),
    Message('note_on', channel=9, note=54, velocity=90, time=21),
    Message('note_on', channel=9, note=40, velocity=90, time=0),
    Message('note_on', channel=9, note=54, velocity=0, time=39),
    Message('note_on', channel=9, note=40, velocity=0, time=0),
    Message('note_on', channel=9, note=54, velocity=90, time=21),
    Message('note_on', channel=9, note=54, velocity=0, time=39),
    Message('note_on', channel=9, note=54, velocity=90, time=21),
    Message('note_on', channel=9, note=54, velocity=0, time=39),
    Message('note_on', channel=9, note=54, velocity=90, time=21),
    Message('note_on', channel=9, note=54, velocity=0, time=39),
    Message('note_on', channel=9, note=54, velocity=90, time=21),
    Message('note_on', channel=9, note=40, velocity=90, time=0),
    Message('note_on', channel=9, note=54, velocity=0, time=39),
    Message('note_on', channel=9, note=40, velocity=0, time=0),
    Message('note_on', channel=9, note=54, velocity=90, time=21),
    Message('note_on', channel=9, note=54, velocity=0, time=39),
    Message('note_on', channel=9, note=54, velocity=90, time=21),
    Message('note_on', channel=9, note=41, velocity=90, time=0),
    Message('note_on', channel=9, note=45, velocity=90, time=0),
    Message('note_on', channel=9, note=54, velocity=0, time=39),
    Message('note_on', channel=9, note=41, velocity=0, time=0),
    Message('note_on', channel=9, note=45, velocity=0, time=0),
    Message('note_on', channel=9, note=54, velocity=90, time=21),
    Message('note_on', channel=9, note=54, velocity=0, time=39),
    Message('note_on', channel=9, note=54, velocity=90, time=21),
    Message('note_on', channel=9, note=40, velocity=90, time=0),
    Message('note_on', channel=9, note=54, velocity=0, time=39),
    Message('note_on', channel=9, note=40, velocity=0, time=0),
    Message('note_on', channel=9, note=54, velocity=90, time=21),
    Message('note_on', channel=9, note=54, velocity=0, time=39),
    Message('note_on', channel=9, note=54, velocity=90, time=21),
    Message('note_on', channel=9, note=54, velocity=0, time=39),
    Message('note_on', channel=9, note=54, velocity=90, time=21),
    Message('note_on', channel=9, note=54, velocity=0, time=39),
    Message('note_on', channel=9, note=54, velocity=90, time=21),
    Message('note_on', channel=9, note=40, velocity=90, time=0),
    Message('note_on', channel=9, note=54, velocity=0, time=39),
    Message('note_on', channel=9, note=40, velocity=0, time=0),
    Message('note_on', channel=9, note=54, velocity=90, time=21),
    Message('note_on', channel=9, note=54, velocity=0, time=39),
    Message('note_on', channel=9, note=54, velocity=90, time=21),
    Message('note_on', channel=9, note=41, velocity=90, time=0),
    Message('note_on', channel=9, note=45, velocity=90, time=0),
    Message('note_on', channel=9, note=54, velocity=0, time=39),
    Message('note_on', channel=9, note=41, velocity=0, time=0),
    Message('note_on', channel=9, note=45, velocity=0, time=0),
    Message('note_on', channel=9, note=54, velocity=90, time=21),
    Message('note_on', channel=9, note=54, velocity=0, time=39),
    Message('note_on', channel=9, note=54, velocity=90, time=21),
    Message('note_on', channel=9, note=40, velocity=90, time=0),
    Message('note_on', channel=9, note=54, velocity=0, time=39),
    Message('note_on', channel=9, note=40, velocity=0, time=0),
    Message('note_on', channel=9, note=54, velocity=90, time=21),
    Message('note_on', channel=9, note=54, velocity=0, time=39),
    Message('note_on', channel=9, note=54, velocity=90, time=21),
    Message('note_on', channel=9, note=54, velocity=0, time=39),
    Message('note_on', channel=9, note=54, velocity=90, time=21),
    Message('note_on', channel=9, note=54, velocity=0, time=39),
    Message('note_on', channel=9, note=54, velocity=90, time=21),
    Message('note_on', channel=9, note=40, velocity=90, time=0),
    Message('note_on', channel=9, note=54, velocity=0, time=39),
    Message('note_on', channel=9, note=40, velocity=0, time=0),
    Message('note_on', channel=9, note=54, velocity=90, time=21),
    Message('note_on', channel=9, note=54, velocity=0, time=39),
    Message('note_on', channel=9, note=54, velocity=90, time=21),
    Message('note_on', channel=9, note=41, velocity=90, time=0),
    Message('note_on', channel=9, note=45, velocity=90, time=0),
    Message('note_on', channel=9, note=54, velocity=0, time=39),
    Message('note_on', channel=9, note=41, velocity=0, time=0),
    Message('note_on', channel=9, note=45, velocity=0, time=0),
    Message('note_on', channel=9, note=54, velocity=90, time=21),
    Message('note_on', channel=9, note=54, velocity=0, time=39),
    Message('note_on', channel=9, note=54, velocity=90, time=21),
    Message('note_on', channel=9, note=40, velocity=90, time=0),
    Message('note_on', channel=9, note=54, velocity=0, time=39),
    Message('note_on', channel=9, note=40, velocity=0, time=0),
    Message('note_on', channel=9, note=54, velocity=90, time=21),
    Message('note_on', channel=9, note=54, velocity=0, time=39),
    Message('note_on', channel=9, note=54, velocity=90, time=21),
    Message('note_on', channel=9, note=54, velocity=0, time=39),
    Message('note_on', channel=9, note=54, velocity=90, time=21),
    Message('note_on', channel=9, note=54, velocity=0, time=39),
    Message('note_on', channel=9, note=54, velocity=90, time=21),
    Message('note_on', channel=9, note=40, velocity=90, time=0),
    Message('note_on', channel=9, note=54, velocity=0, time=39),
    Message('note_on', channel=9, note=40, velocity=0, time=0),
    Message('note_on', channel=9, note=54, velocity=90, time=21),
    Message('note_on', channel=9, note=54, velocity=0, time=39),
    Message('note_on', channel=9, note=54, velocity=90, time=21),
    Message('note_on', channel=9, note=41, velocity=90, time=0),
    Message('note_on', channel=9, note=45, velocity=90, time=0),
    Message('note_on', channel=9, note=54, velocity=0, time=39),
    Message('note_on', channel=9, note=41, velocity=0, time=0),
    Message('note_on', channel=9, note=45, velocity=0, time=0),
    Message('note_on', channel=9, note=54, velocity=90, time=21),
    Message('note_on', channel=9, note=54, velocity=0, time=39),
    Message('note_on', channel=9, note=54, velocity=90, time=21),
    Message('note_on', channel=9, note=40, velocity=90, time=0),
    Message('note_on', channel=9, note=54, velocity=0, time=39),
    Message('note_on', channel=9, note=40, velocity=0, time=0),
    Message('note_on', channel=9, note=54, velocity=90, time=21),
    Message('note_on', channel=9, note=54, velocity=0, time=39),
    Message('note_on', channel=9, note=54, velocity=90, time=21),
    Message('note_on', channel=9, note=54, velocity=0, time=39),
    Message('note_on', channel=9, note=54, velocity=90, time=21),
    Message('note_on', channel=9, note=54, velocity=0, time=39),
    Message('note_on', channel=9, note=54, velocity=90, time=21),
    Message('note_on', channel=9, note=40, velocity=90, time=0),
    Message('note_on', channel=9, note=54, velocity=0, time=39),
    Message('note_on', channel=9, note=40, velocity=0, time=0),
    Message('note_on', channel=9, note=54, velocity=90, time=21),
    Message('note_on', channel=9, note=54, velocity=0, time=39),
    Message('note_on', channel=9, note=54, velocity=90, time=21),
    Message('note_on', channel=9, note=41, velocity=90, time=0),
    Message('note_on', channel=9, note=45, velocity=90, time=0),
    Message('note_on', channel=9, note=54, velocity=0, time=39),
    Message('note_on', channel=9, note=41, velocity=0, time=0),
    Message('note_on', channel=9, note=45, velocity=0, time=0),
    Message('note_on', channel=9, note=54, velocity=90, time=21),
    Message('note_on', channel=9, note=54, velocity=0, time=39),
    Message('note_on', channel=9, note=54, velocity=90, time=21),
    Message('note_on', channel=9, note=40, velocity=90, time=0),
    Message('note_on', channel=9, note=54, velocity=0, time=39),
    Message('note_on', channel=9, note=40, velocity=0, time=0),
    Message('note_on', channel=9, note=54, velocity=90, time=21),
    Message('note_on', channel=9, note=54, velocity=0, time=39),
    Message('note_on', channel=9, note=54, velocity=90, time=21),
    Message('note_on', channel=9, note=54, velocity=0, time=39),
    Message('note_on', channel=9, note=54, velocity=90, time=21),
    Message('note_on', channel=9, note=54, velocity=0, time=39),
    Message('note_on', channel=9, note=54, velocity=90, time=21),
    Message('note_on', channel=9, note=40, velocity=90, time=0),
    Message('note_on', channel=9, note=54, velocity=0, time=39),
    Message('note_on', channel=9, note=40, velocity=0, time=0),
    Message('note_on', channel=9, note=54, velocity=90, time=21),
    Message('note_on', channel=9, note=54, velocity=0, time=39),
    Message('note_on', channel=9, note=54, velocity=90, time=21),
    Message('note_on', channel=9, note=41, velocity=90, time=0),
    Message('note_on', channel=9, note=45, velocity=90, time=0),
    Message('note_on', channel=9, note=54, velocity=0, time=39),
    Message('note_on', channel=9, note=41, velocity=0, time=0),
    Message('note_on', channel=9, note=45, velocity=0, time=0),
    Message('note_on', channel=9, note=54, velocity=90, time=21),
    Message('note_on', channel=9, note=54, velocity=0, time=39),
    Message('note_on', channel=9, note=54, velocity=90, time=21),
    Message('note_on', channel=9, note=40, velocity=90, time=0),
    Message('note_on', channel=9, note=54, velocity=0, time=39),
    Message('note_on', channel=9, note=40, velocity=0, time=0),
    Message('note_on', channel=9, note=54, velocity=90, time=21),
    Message('note_on', channel=9, note=54, velocity=0, time=39),
    Message('note_on', channel=9, note=54, velocity=90, time=21),
    Message('note_on', channel=9, note=54, velocity=0, time=39),
    Message('note_on', channel=9, note=54, velocity=90, time=21),
    Message('note_on', channel=9, note=54, velocity=0, time=39),
    Message('note_on', channel=9, note=54, velocity=90, time=21),
    Message('note_on', channel=9, note=40, velocity=90, time=0),
    Message('note_on', channel=9, note=54, velocity=0, time=39),
    Message('note_on', channel=9, note=40, velocity=0, time=0),
    Message('note_on', channel=9, note=54, velocity=90, time=21),
    Message('note_on', channel=9, note=54, velocity=0, time=39),
    Message('note_on', channel=9, note=54, velocity=90, time=21),
    Message('note_on', channel=9, note=41, velocity=90, time=0),
    Message('note_on', channel=9, note=45, velocity=90, time=0),
    Message('note_on', channel=9, note=54, velocity=0, time=39),
    Message('note_on', channel=9, note=41, velocity=0, time=0),
    Message('note_on', channel=9, note=45, velocity=0, time=0),
    Message('note_on', channel=9, note=54, velocity=90, time=21),
    Message('note_on', channel=9, note=54, velocity=0, time=39),
    Message('note_on', channel=9, note=54, velocity=90, time=21),
    Message('note_on', channel=9, note=40, velocity=90, time=0),
    Message('note_on', channel=9, note=54, velocity=0, time=39),
    Message('note_on', channel=9, note=40, velocity=0, time=0),
    Message('note_on', channel=9, note=54, velocity=90, time=21),
    Message('note_on', channel=9, note=54, velocity=0, time=39),
    Message('note_on', channel=9, note=54, velocity=90, time=21),
    Message('note_on', channel=9, note=54, velocity=0, time=39),
    Message('note_on', channel=9, note=54, velocity=90, time=21),
    Message('note_on', channel=9, note=54, velocity=0, time=39),
    Message('note_on', channel=9, note=54, velocity=90, time=21),
    Message('note_on', channel=9, note=40, velocity=90, time=0),
    Message('note_on', channel=9, note=54, velocity=0, time=39),
    Message('note_on', channel=9, note=40, velocity=0, time=0),
    Message('note_on', channel=9, note=54, velocity=90, time=21),
    Message('note_on', channel=9, note=54, velocity=0, time=39),
    Message('note_on', channel=9, note=41, velocity=90, time=21),
    Message('note_on', channel=9, note=45, velocity=90, time=0),
    Message('note_on', channel=9, note=54, velocity=90, time=0),
    Message('note_on', channel=9, note=41, velocity=0, time=39),
    Message('note_on', channel=9, note=45, velocity=0, time=0),
    Message('note_on', channel=9, note=54, velocity=0, time=0),
    Message('note_on', channel=9, note=54, velocity=90, time=21),
    Message('note_on', channel=9, note=54, velocity=0, time=39),
    Message('note_on', channel=9, note=54, velocity=90, time=21),
    Message('note_on', channel=9, note=40, velocity=90, time=0),
    Message('note_on', channel=9, note=54, velocity=0, time=39),
    Message('note_on', channel=9, note=40, velocity=0, time=0),
    Message('note_on', channel=9, note=54, velocity=90, time=21),
    Message('note_on', channel=9, note=54, velocity=0, time=39),
    Message('note_on', channel=9, note=54, velocity=90, time=21),
    Message('note_on', channel=9, note=54, velocity=0, time=39),
    Message('note_on', channel=9, note=54, velocity=90, time=21),
    Message('note_on', channel=9, note=54, velocity=0, time=39),
    Message('note_on', channel=9, note=54, velocity=90, time=21),
    Message('note_on', channel=9, note=40, velocity=90, time=0),
    Message('note_on', channel=9, note=54, velocity=0, time=39),
    Message('note_on', channel=9, note=40, velocity=0, time=0),
    Message('note_on', channel=9, note=54, velocity=90, time=21),
    Message('note_on', channel=9, note=54, velocity=0, time=39),
    Message('note_on', channel=9, note=54, velocity=90, time=21),
    Message('note_on', channel=9, note=41, velocity=90, time=0),
    Message('note_on', channel=9, note=45, velocity=90, time=0),
    Message('note_on', channel=9, note=54, velocity=0, time=39),
    Message('note_on', channel=9, note=41, velocity=0, time=0),
    Message('note_on', channel=9, note=45, velocity=0, time=0),
    Message('note_on', channel=9, note=54, velocity=90, time=21),
    Message('note_on', channel=9, note=54, velocity=0, time=39),
    Message('note_on', channel=9, note=54, velocity=90, time=21),
    Message('note_on', channel=9, note=40, velocity=90, time=0),
    Message('note_on', channel=9, note=54, velocity=0, time=39),
    Message('note_on', channel=9, note=40, velocity=0, time=0),
    Message('note_on', channel=9, note=54, velocity=90, time=21),
    Message('note_on', channel=9, note=54, velocity=0, time=39),
    Message('note_on', channel=9, note=54, velocity=90, time=21),
    Message('note_on', channel=9, note=54, velocity=0, time=39),
    Message('note_on', channel=9, note=54, velocity=90, time=21),
    Message('note_on', channel=9, note=54, velocity=0, time=39),
    Message('note_on', channel=9, note=54, velocity=90, time=21),
    Message('note_on', channel=9, note=40, velocity=90, time=0),
    Message('note_on', channel=9, note=54, velocity=0, time=39),
    Message('note_on', channel=9, note=40, velocity=0, time=0),
    Message('note_on', channel=9, note=54, velocity=90, time=21),
    Message('note_on', channel=9, note=54, velocity=0, time=39),
    Message('note_on', channel=9, note=54, velocity=90, time=21),
    Message('note_on', channel=9, note=41, velocity=90, time=0),
    Message('note_on', channel=9, note=45, velocity=90, time=0),
    Message('note_on', channel=9, note=54, velocity=0, time=39),
    Message('note_on', channel=9, note=41, velocity=0, time=0),
    Message('note_on', channel=9, note=45, velocity=0, time=0),
    Message('note_on', channel=9, note=54, velocity=90, time=21),
    Message('note_on', channel=9, note=54, velocity=0, time=39),
    Message('note_on', channel=9, note=54, velocity=90, time=21),
    Message('note_on', channel=9, note=40, velocity=90, time=0),
    Message('note_on', channel=9, note=54, velocity=0, time=39),
    Message('note_on', channel=9, note=40, velocity=0, time=0),
    Message('note_on', channel=9, note=54, velocity=90, time=21),
    Message('note_on', channel=9, note=54, velocity=0, time=39),
    Message('note_on', channel=9, note=54, velocity=90, time=21),
    Message('note_on', channel=9, note=54, velocity=0, time=39),
    Message('note_on', channel=9, note=54, velocity=90, time=21),
    Message('note_on', channel=9, note=54, velocity=0, time=39),
    Message('note_on', channel=9, note=54, velocity=90, time=21),
    Message('note_on', channel=9, note=40, velocity=90, time=0),
    Message('note_on', channel=9, note=54, velocity=0, time=39),
    Message('note_on', channel=9, note=40, velocity=0, time=0),
    Message('note_on', channel=9, note=54, velocity=90, time=21),
    Message('note_on', channel=9, note=54, velocity=0, time=39),
    Message('note_on', channel=9, note=54, velocity=90, time=21),
    Message('note_on', channel=9, note=41, velocity=90, time=0),
    Message('note_on', channel=9, note=45, velocity=90, time=0),
    Message('note_on', channel=9, note=54, velocity=0, time=39),
    Message('note_on', channel=9, note=41, velocity=0, time=0),
    Message('note_on', channel=9, note=45, velocity=0, time=0),
    Message('note_on', channel=9, note=54, velocity=90, time=21),
    Message('note_on', channel=9, note=54, velocity=0, time=39),
    Message('note_on', channel=9, note=54, velocity=90, time=21),
    Message('note_on', channel=9, note=40, velocity=90, time=0),
    Message('note_on', channel=9, note=54, velocity=0, time=39),
    Message('note_on', channel=9, note=40, velocity=0, time=0),
    Message('note_on', channel=9, note=54, velocity=90, time=21),
    Message('note_on', channel=9, note=54, velocity=0, time=39),
    Message('note_on', channel=9, note=54, velocity=90, time=21),
    Message('note_on', channel=9, note=54, velocity=0, time=39),
    Message('note_on', channel=9, note=54, velocity=90, time=21),
    Message('note_on', channel=9, note=54, velocity=0, time=39),
    Message('note_on', channel=9, note=54, velocity=90, time=21),
    Message('note_on', channel=9, note=40, velocity=90, time=0),
    Message('note_on', channel=9, note=54, velocity=0, time=39),
    Message('note_on', channel=9, note=40, velocity=0, time=0),
    Message('note_on', channel=9, note=54, velocity=90, time=21),
    Message('note_on', channel=9, note=54, velocity=0, time=39),
    Message('note_on', channel=9, note=41, velocity=90, time=21),
    Message('note_on', channel=9, note=45, velocity=90, time=0),
    Message('note_on', channel=9, note=54, velocity=90, time=0),
    Message('note_on', channel=9, note=41, velocity=0, time=39),
    Message('note_on', channel=9, note=45, velocity=0, time=0),
    Message('note_on', channel=9, note=54, velocity=0, time=0),
    Message('note_on', channel=9, note=54, velocity=90, time=21),
    Message('note_on', channel=9, note=54, velocity=0, time=39),
    Message('note_on', channel=9, note=54, velocity=90, time=21),
    Message('note_on', channel=9, note=40, velocity=90, time=0),
    Message('note_on', channel=9, note=54, velocity=0, time=39),
    Message('note_on', channel=9, note=40, velocity=0, time=0),
    Message('note_on', channel=9, note=54, velocity=90, time=21),
    Message('note_on', channel=9, note=54, velocity=0, time=39),
    Message('note_on', channel=9, note=54, velocity=90, time=21),
    Message('note_on', channel=9, note=54, velocity=0, time=39),
    Message('note_on', channel=9, note=54, velocity=90, time=21),
    Message('note_on', channel=9, note=54, velocity=0, time=39),
    Message('note_on', channel=9, note=54, velocity=90, time=21),
    Message('note_on', channel=9, note=40, velocity=90, time=0),
    Message('note_on', channel=9, note=54, velocity=0, time=39),
    Message('note_on', channel=9, note=40, velocity=0, time=0),
    Message('note_on', channel=9, note=54, velocity=90, time=21),
    Message('note_on', channel=9, note=54, velocity=0, time=39),
    Message('note_on', channel=9, note=54, velocity=90, time=21),
    Message('note_on', channel=9, note=41, velocity=90, time=0),
    Message('note_on', channel=9, note=45, velocity=90, time=0),
    Message('note_on', channel=9, note=54, velocity=0, time=39),
    Message('note_on', channel=9, note=41, velocity=0, time=0),
    Message('note_on', channel=9, note=45, velocity=0, time=0),
    Message('note_on', channel=9, note=54, velocity=90, time=21),
    Message('note_on', channel=9, note=54, velocity=0, time=39),
    Message('note_on', channel=9, note=54, velocity=90, time=21),
    Message('note_on', channel=9, note=40, velocity=90, time=0),
    Message('note_on', channel=9, note=54, velocity=0, time=39),
    Message('note_on', channel=9, note=40, velocity=0, time=0),
    Message('note_on', channel=9, note=54, velocity=90, time=21),
    Message('note_on', channel=9, note=54, velocity=0, time=39),
    Message('note_on', channel=9, note=54, velocity=90, time=21),
    Message('note_on', channel=9, note=54, velocity=0, time=39),
    Message('note_on', channel=9, note=54, velocity=90, time=21),
    Message('note_on', channel=9, note=54, velocity=0, time=39),
    Message('note_on', channel=9, note=54, velocity=90, time=21),
    Message('note_on', channel=9, note=40, velocity=90, time=0),
    Message('note_on', channel=9, note=54, velocity=0, time=39),
    Message('note_on', channel=9, note=40, velocity=0, time=0),
    Message('note_on', channel=9, note=54, velocity=90, time=21),
    Message('note_on', channel=9, note=54, velocity=0, time=39),
    Message('note_on', channel=9, note=54, velocity=90, time=21),
    Message('note_on', channel=9, note=41, velocity=90, time=0),
    Message('note_on', channel=9, note=45, velocity=90, time=0),
    Message('note_on', channel=9, note=54, velocity=0, time=39),
    Message('note_on', channel=9, note=41, velocity=0, time=0),
    Message('note_on', channel=9, note=45, velocity=0, time=0),
    Message('note_on', channel=9, note=54, velocity=90, time=21),
    Message('note_on', channel=9, note=54, velocity=0, time=39),
    Message('note_on', channel=9, note=54, velocity=90, time=21),
    Message('note_on', channel=9, note=40, velocity=90, time=0),
    Message('note_on', channel=9, note=54, velocity=0, time=39),
    Message('note_on', channel=9, note=40, velocity=0, time=0),
    Message('note_on', channel=9, note=54, velocity=90, time=21),
    Message('note_on', channel=9, note=54, velocity=0, time=39),
    Message('note_on', channel=9, note=54, velocity=90, time=21),
    Message('note_on', channel=9, note=54, velocity=0, time=39),
    Message('note_on', channel=9, note=54, velocity=90, time=21),
    Message('note_on', channel=9, note=54, velocity=0, time=39),
    Message('note_on', channel=9, note=54, velocity=90, time=21),
    Message('note_on', channel=9, note=40, velocity=90, time=0),
    Message('note_on', channel=9, note=54, velocity=0, time=39),
    Message('note_on', channel=9, note=40, velocity=0, time=0),
    Message('note_on', channel=9, note=54, velocity=90, time=21),
    Message('note_on', channel=9, note=54, velocity=0, time=39),
    Message('note_on', channel=9, note=38, velocity=90, time=21),
    Message('note_on', channel=9, note=36, velocity=90, time=0),
    Message('note_on', channel=9, note=57, velocity=90, time=0),
    Message('note_on', channel=9, note=38, velocity=0, time=19),
    Message('note_on', channel=9, note=36, velocity=0, time=0),
    Message('note_on', channel=9, note=57, velocity=0, time=0),
    Message('note_on', channel=9, note=36, velocity=90, time=101),
    Message('note_on', channel=9, note=38, velocity=90, time=0),
    Message('note_on', channel=9, note=57, velocity=90, time=0),
    Message('note_on', channel=9, note=36, velocity=0, time=19),
    Message('note_on', channel=9, note=38, velocity=0, time=0),
    Message('note_on', channel=9, note=57, velocity=0, time=0),
    Message('note_on', channel=9, note=36, velocity=90, time=11),
    Message('note_on', channel=9, note=36, velocity=0, time=19),
    Message('note_on', channel=9, note=36, velocity=90, time=11),
    Message('note_on', channel=9, note=36, velocity=0, time=19),
    Message('note_on', channel=9, note=38, velocity=90, time=41),
    Message('note_on', channel=9, note=36, velocity=90, time=0),
    Message('note_on', channel=9, note=57, velocity=90, time=0),
    Message('note_on', channel=9, note=38, velocity=0, time=19),
    Message('note_on', channel=9, note=36, velocity=0, time=0),
    Message('note_on', channel=9, note=57, velocity=0, time=0),
    Message('note_on', channel=9, note=36, velocity=90, time=11),
    Message('note_on', channel=9, note=36, velocity=0, time=19),
    Message('note_on', channel=9, note=36, velocity=90, time=11),
    Message('note_on', channel=9, note=36, velocity=0, time=19),
    Message('note_on', channel=9, note=36, velocity=90, time=41),
    Message('note_on', channel=9, note=38, velocity=90, time=0),
    Message('note_on', channel=9, note=57, velocity=90, time=0),
    Message('note_on', channel=9, note=36, velocity=0, time=19),
    Message('note_on', channel=9, note=38, velocity=0, time=0),
    Message('note_on', channel=9, note=57, velocity=0, time=0),
    Message('note_on', channel=9, note=36, velocity=90, time=11),
    Message('note_on', channel=9, note=36, velocity=0, time=19),
    Message('note_on', channel=9, note=36, velocity=90, time=11),
    Message('note_on', channel=9, note=36, velocity=0, time=19),
    Message('note_on', channel=9, note=36, velocity=90, time=41),
    Message('note_on', channel=9, note=38, velocity=90, time=0),
    Message('note_on', channel=9, note=57, velocity=90, time=0),
    Message('note_on', channel=9, note=36, velocity=0, time=39),
    Message('note_on', channel=9, note=38, velocity=0, time=0),
    Message('note_on', channel=9, note=57, velocity=0, time=0),
    Message('note_on', channel=9, note=38, velocity=90, time=81),
    Message('note_on', channel=9, note=38, velocity=0, time=39),
    Message('note_on', channel=9, note=36, velocity=90, time=21),
    Message('note_on', channel=9, note=38, velocity=90, time=0),
    Message('note_on', channel=9, note=36, velocity=0, time=39),
    Message('note_on', channel=9, note=38, velocity=0, time=0),
    Message('note_on', channel=9, note=38, velocity=90, time=21),
    Message('note_on', channel=9, note=36, velocity=90, time=0),
    Message('note_on', channel=9, note=57, velocity=90, time=0),
    Message('note_on', channel=9, note=38, velocity=0, time=39),
    Message('note_on', channel=9, note=36, velocity=0, time=0),
    Message('note_on', channel=9, note=57, velocity=0, time=0),
    Message('note_on', channel=9, note=38, velocity=90, time=81),
    Message('note_on', channel=9, note=38, velocity=0, time=39),
    Message('note_on', channel=9, note=38, velocity=90, time=21),
    Message('note_on', channel=9, note=36, velocity=90, time=0),
    Message('note_on', channel=9, note=38, velocity=0, time=39),
    Message('note_on', channel=9, note=36, velocity=0, time=0),
    Message('note_on', channel=9, note=36, velocity=90, time=21),
    Message('note_on', channel=9, note=38, velocity=90, time=0),
    Message('note_on', channel=9, note=57, velocity=90, time=0),
    Message('note_on', channel=9, note=36, velocity=0, time=39),
    Message('note_on', channel=9, note=38, velocity=0, time=0),
    Message('note_on', channel=9, note=57, velocity=0, time=0),
    Message('note_on', channel=9, note=38, velocity=90, time=81),
    Message('note_on', channel=9, note=38, velocity=0, time=39),
    Message('note_on', channel=9, note=36, velocity=90, time=21),
    Message('note_on', channel=9, note=38, velocity=90, time=0),
    Message('note_on', channel=9, note=36, velocity=0, time=39),
    Message('note_on', channel=9, note=38, velocity=0, time=0),
    Message('note_on', channel=9, note=38, velocity=90, time=21),
    Message('note_on', channel=9, note=36, velocity=90, time=0),
    Message('note_on', channel=9, note=57, velocity=90, time=0),
    Message('note_on', channel=9, note=38, velocity=0, time=39),
    Message('note_on', channel=9, note=36, velocity=0, time=0),
    Message('note_on', channel=9, note=57, velocity=0, time=0),
    Message('note_on', channel=9, note=38, velocity=90, time=81),
    Message('note_on', channel=9, note=38, velocity=0, time=39),
    Message('note_on', channel=9, note=38, velocity=90, time=21),
    Message('note_on', channel=9, note=36, velocity=90, time=0),
    Message('note_on', channel=9, note=38, velocity=0, time=39),
    Message('note_on', channel=9, note=36, velocity=0, time=0),
    Message('note_on', channel=9, note=36, velocity=90, time=21),
    Message('note_on', channel=9, note=38, velocity=90, time=0),
    Message('note_on', channel=9, note=57, velocity=90, time=0),
    Message('note_on', channel=9, note=36, velocity=0, time=39),
    Message('note_on', channel=9, note=38, velocity=0, time=0),
    Message('note_on', channel=9, note=57, velocity=0, time=0),
    Message('note_on', channel=9, note=57, velocity=90, time=81),
    Message('note_on', channel=9, note=38, velocity=90, time=0),
    Message('note_on', channel=9, note=36, velocity=90, time=0),
    Message('note_on', channel=9, note=57, velocity=0, time=19),
    Message('note_on', channel=9, note=38, velocity=0, time=0),
    Message('note_on', channel=9, note=36, velocity=0, time=0),
    Message('note_on', channel=9, note=36, velocity=90, time=11),
    Message('note_on', channel=9, note=36, velocity=0, time=19),
    Message('note_on', channel=9, note=36, velocity=90, time=11),
    Message('note_on', channel=9, note=36, velocity=0, time=19),
    Message('note_on', channel=9, note=36, velocity=90, time=41),
    Message('note_on', channel=9, note=38, velocity=90, time=0),
    Message('note_on', channel=9, note=57, velocity=90, time=0),
    Message('note_on', channel=9, note=36, velocity=0, time=19),
    Message('note_on', channel=9, note=38, velocity=0, time=0),
    Message('note_on', channel=9, note=57, velocity=0, time=0),
    Message('note_on', channel=9, note=36, velocity=90, time=11),
    Message('note_on', channel=9, note=36, velocity=0, time=19),
    Message('note_on', channel=9, note=36, velocity=90, time=11),
    Message('note_on', channel=9, note=36, velocity=0, time=19),
    Message('note_on', channel=9, note=57, velocity=90, time=41),
    Message('note_on', channel=9, note=38, velocity=90, time=0),
    Message('note_on', channel=9, note=36, velocity=90, time=0),
    Message('note_on', channel=9, note=57, velocity=0, time=39),
    Message('note_on', channel=9, note=38, velocity=0, time=0),
    Message('note_on', channel=9, note=36, velocity=0, time=0),
    Message('note_on', channel=9, note=38, velocity=90, time=81),
    Message('note_on', channel=9, note=36, velocity=90, time=0),
    Message('note_on', channel=9, note=57, velocity=90, time=0),
    Message('note_on', channel=9, note=38, velocity=0, time=19),
    Message('note_on', channel=9, note=36, velocity=0, time=0),
    Message('note_on', channel=9, note=57, velocity=0, time=0),
    Message('note_on', channel=9, note=36, velocity=90, time=101),
    Message('note_on', channel=9, note=38, velocity=90, time=0),
    Message('note_on', channel=9, note=57, velocity=90, time=0),
    Message('note_on', channel=9, note=36, velocity=0, time=19),
    Message('note_on', channel=9, note=38, velocity=0, time=0),
    Message('note_on', channel=9, note=57, velocity=0, time=0),
    Message('note_on', channel=9, note=36, velocity=90, time=11),
    Message('note_on', channel=9, note=36, velocity=0, time=19),
    Message('note_on', channel=9, note=36, velocity=90, time=11),
    Message('note_on', channel=9, note=36, velocity=0, time=19),
    Message('note_on', channel=9, note=38, velocity=90, time=41),
    Message('note_on', channel=9, note=36, velocity=90, time=0),
    Message('note_on', channel=9, note=57, velocity=90, time=0),
    Message('note_on', channel=9, note=38, velocity=0, time=19),
    Message('note_on', channel=9, note=36, velocity=0, time=0),
    Message('note_on', channel=9, note=57, velocity=0, time=0),
    Message('note_on', channel=9, note=36, velocity=90, time=11),
    Message('note_on', channel=9, note=36, velocity=0, time=19),
    Message('note_on', channel=9, note=36, velocity=90, time=11),
    Message('note_on', channel=9, note=36, velocity=0, time=19),
    Message('note_on', channel=9, note=36, velocity=90, time=41),
    Message('note_on', channel=9, note=38, velocity=90, time=0),
    Message('note_on', channel=9, note=57, velocity=90, time=0),
    Message('note_on', channel=9, note=36, velocity=0, time=19),
    Message('note_on', channel=9, note=38, velocity=0, time=0),
    Message('note_on', channel=9, note=57, velocity=0, time=0),
    Message('note_on', channel=9, note=36, velocity=90, time=11),
    Message('note_on', channel=9, note=36, velocity=0, time=19),
    Message('note_on', channel=9, note=36, velocity=90, time=11),
    Message('note_on', channel=9, note=36, velocity=0, time=19),
    Message('note_on', channel=9, note=36, velocity=90, time=41),
    Message('note_on', channel=9, note=38, velocity=90, time=0),
    Message('note_on', channel=9, note=57, velocity=90, time=0),
    Message('note_on', channel=9, note=36, velocity=0, time=39),
    Message('note_on', channel=9, note=38, velocity=0, time=0),
    Message('note_on', channel=9, note=57, velocity=0, time=0),
    Message('note_on', channel=9, note=38, velocity=90, time=81),
    Message('note_on', channel=9, note=38, velocity=0, time=39),
    Message('note_on', channel=9, note=36, velocity=90, time=21),
    Message('note_on', channel=9, note=38, velocity=90, time=0),
    Message('note_on', channel=9, note=36, velocity=0, time=39),
    Message('note_on', channel=9, note=38, velocity=0, time=0),
    Message('note_on', channel=9, note=38, velocity=90, time=21),
    Message('note_on', channel=9, note=36, velocity=90, time=0),
    Message('note_on', channel=9, note=57, velocity=90, time=0),
    Message('note_on', channel=9, note=38, velocity=0, time=39),
    Message('note_on', channel=9, note=36, velocity=0, time=0),
    Message('note_on', channel=9, note=57, velocity=0, time=0),
    Message('note_on', channel=9, note=38, velocity=90, time=81),
    Message('note_on', channel=9, note=38, velocity=0, time=39),
    Message('note_on', channel=9, note=38, velocity=90, time=21),
    Message('note_on', channel=9, note=36, velocity=90, time=0),
    Message('note_on', channel=9, note=38, velocity=0, time=39),
    Message('note_on', channel=9, note=36, velocity=0, time=0),
    Message('note_on', channel=9, note=36, velocity=90, time=21),
    Message('note_on', channel=9, note=38, velocity=90, time=0),
    Message('note_on', channel=9, note=57, velocity=90, time=0),
    Message('note_on', channel=9, note=36, velocity=0, time=39),
    Message('note_on', channel=9, note=38, velocity=0, time=0),
    Message('note_on', channel=9, note=57, velocity=0, time=0),
    Message('note_on', channel=9, note=38, velocity=90, time=81),
    Message('note_on', channel=9, note=38, velocity=0, time=39),
    Message('note_on', channel=9, note=36, velocity=90, time=21),
    Message('note_on', channel=9, note=38, velocity=90, time=0),
    Message('note_on', channel=9, note=36, velocity=0, time=39),
    Message('note_on', channel=9, note=38, velocity=0, time=0),
    Message('note_on', channel=9, note=38, velocity=90, time=21),
    Message('note_on', channel=9, note=36, velocity=90, time=0),
    Message('note_on', channel=9, note=57, velocity=90, time=0),
    Message('note_on', channel=9, note=38, velocity=0, time=39),
    Message('note_on', channel=9, note=36, velocity=0, time=0),
    Message('note_on', channel=9, note=57, velocity=0, time=0),
    Message('note_on', channel=9, note=38, velocity=90, time=81),
    Message('note_on', channel=9, note=38, velocity=0, time=39),
    Message('note_on', channel=9, note=38, velocity=90, time=21),
    Message('note_on', channel=9, note=36, velocity=90, time=0),
    Message('note_on', channel=9, note=38, velocity=0, time=39),
    Message('note_on', channel=9, note=36, velocity=0, time=0),
    Message('note_on', channel=9, note=36, velocity=90, time=21),
    Message('note_on', channel=9, note=38, velocity=90, time=0),
    Message('note_on', channel=9, note=57, velocity=90, time=0),
    Message('note_on', channel=9, note=36, velocity=0, time=39),
    Message('note_on', channel=9, note=38, velocity=0, time=0),
    Message('note_on', channel=9, note=57, velocity=0, time=0),
    Message('note_on', channel=9, note=57, velocity=90, time=81),
    Message('note_on', channel=9, note=38, velocity=90, time=0),
    Message('note_on', channel=9, note=36, velocity=90, time=0),
    Message('note_on', channel=9, note=57, velocity=0, time=19),
    Message('note_on', channel=9, note=38, velocity=0, time=0),
    Message('note_on', channel=9, note=36, velocity=0, time=0),
    Message('note_on', channel=9, note=36, velocity=90, time=11),
    Message('note_on', channel=9, note=36, velocity=0, time=19),
    Message('note_on', channel=9, note=36, velocity=90, time=11),
    Message('note_on', channel=9, note=36, velocity=0, time=19),
    Message('note_on', channel=9, note=36, velocity=90, time=41),
    Message('note_on', channel=9, note=38, velocity=90, time=0),
    Message('note_on', channel=9, note=57, velocity=90, time=0),
    Message('note_on', channel=9, note=36, velocity=0, time=19),
    Message('note_on', channel=9, note=38, velocity=0, time=0),
    Message('note_on', channel=9, note=57, velocity=0, time=0),
    Message('note_on', channel=9, note=36, velocity=90, time=11),
    Message('note_on', channel=9, note=36, velocity=0, time=19),
    Message('note_on', channel=9, note=36, velocity=90, time=11),
    Message('note_on', channel=9, note=36, velocity=0, time=19),
    Message('note_on', channel=9, note=57, velocity=90, time=41),
    Message('note_on', channel=9, note=38, velocity=90, time=0),
    Message('note_on', channel=9, note=36, velocity=90, time=0),
    Message('note_on', channel=9, note=57, velocity=0, time=39),
    Message('note_on', channel=9, note=38, velocity=0, time=0),
    Message('note_on', channel=9, note=36, velocity=0, time=0),
    Message('note_on', channel=9, note=57, velocity=90, time=81),
    Message('note_on', channel=9, note=38, velocity=90, time=0),
    Message('note_on', channel=9, note=36, velocity=90, time=0),
    Message('note_on', channel=9, note=57, velocity=0, time=19),
    Message('note_on', channel=9, note=38, velocity=0, time=0),
    Message('note_on', channel=9, note=36, velocity=0, time=0),
    Message('note_on', channel=9, note=36, velocity=90, time=101),
    Message('note_on', channel=9, note=38, velocity=90, time=0),
    Message('note_on', channel=9, note=57, velocity=90, time=0),
    Message('note_on', channel=9, note=36, velocity=0, time=19),
    Message('note_on', channel=9, note=38, velocity=0, time=0),
    Message('note_on', channel=9, note=57, velocity=0, time=0),
    Message('note_on', channel=9, note=36, velocity=90, time=11),
    Message('note_on', channel=9, note=36, velocity=0, time=19),
    Message('note_on', channel=9, note=36, velocity=90, time=11),
    Message('note_on', channel=9, note=36, velocity=0, time=19),
    Message('note_on', channel=9, note=36, velocity=90, time=41),
    Message('note_on', channel=9, note=57, velocity=90, time=0),
    Message('note_on', channel=9, note=38, velocity=90, time=0),
    Message('note_on', channel=9, note=36, velocity=0, time=19),
    Message('note_on', channel=9, note=57, velocity=0, time=0),
    Message('note_on', channel=9, note=38, velocity=0, time=0),
    Message('note_on', channel=9, note=36, velocity=90, time=11),
    Message('note_on', channel=9, note=36, velocity=0, time=19),
    Message('note_on', channel=9, note=36, velocity=90, time=11),
    Message('note_on', channel=9, note=36, velocity=0, time=19),
    Message('note_on', channel=9, note=36, velocity=90, time=41),
    Message('note_on', channel=9, note=57, velocity=90, time=0),
    Message('note_on', channel=9, note=38, velocity=90, time=0),
    Message('note_on', channel=9, note=36, velocity=0, time=19),
    Message('note_on', channel=9, note=57, velocity=0, time=0),
    Message('note_on', channel=9, note=38, velocity=0, time=0),
    Message('note_on', channel=9, note=36, velocity=90, time=11),
    Message('note_on', channel=9, note=36, velocity=0, time=19),
    Message('note_on', channel=9, note=36, velocity=90, time=11),
    Message('note_on', channel=9, note=36, velocity=0, time=19),
    Message('note_on', channel=9, note=57, velocity=90, time=41),
    Message('note_on', channel=9, note=36, velocity=90, time=0),
    Message('note_on', channel=9, note=38, velocity=90, time=0),
    Message('note_on', channel=9, note=57, velocity=0, time=39),
    Message('note_on', channel=9, note=36, velocity=0, time=0),
    Message('note_on', channel=9, note=38, velocity=0, time=0),
    Message('note_on', channel=9, note=38, velocity=90, time=81),
    Message('note_on', channel=9, note=38, velocity=0, time=39),
    Message('note_on', channel=9, note=38, velocity=90, time=21),
    Message('note_on', channel=9, note=36, velocity=90, time=0),
    Message('note_on', channel=9, note=38, velocity=0, time=39),
    Message('note_on', channel=9, note=36, velocity=0, time=0),
    Message('note_on', channel=9, note=38, velocity=90, time=21),
    Message('note_on', channel=9, note=36, velocity=90, time=0),
    Message('note_on', channel=9, note=57, velocity=90, time=0),
    Message('note_on', channel=9, note=38, velocity=0, time=39),
    Message('note_on', channel=9, note=36, velocity=0, time=0),
    Message('note_on', channel=9, note=57, velocity=0, time=0),
    Message('note_on', channel=9, note=38, velocity=90, time=81),
    Message('note_on', channel=9, note=38, velocity=0, time=39),
    Message('note_on', channel=9, note=36, velocity=90, time=21),
    Message('note_on', channel=9, note=38, velocity=90, time=0),
    Message('note_on', channel=9, note=36, velocity=0, time=39),
    Message('note_on', channel=9, note=38, velocity=0, time=0),
    Message('note_on', channel=9, note=38, velocity=90, time=21),
    Message('note_on', channel=9, note=36, velocity=90, time=0),
    Message('note_on', channel=9, note=57, velocity=90, time=0),
    Message('note_on', channel=9, note=38, velocity=0, time=39),
    Message('note_on', channel=9, note=36, velocity=0, time=0),
    Message('note_on', channel=9, note=57, velocity=0, time=0),
    Message('note_on', channel=9, note=38, velocity=90, time=81),
    Message('note_on', channel=9, note=38, velocity=0, time=39),
    Message('note_on', channel=9, note=36, velocity=90, time=21),
    Message('note_on', channel=9, note=38, velocity=90, time=0),
    Message('note_on', channel=9, note=36, velocity=0, time=39),
    Message('note_on', channel=9, note=38, velocity=0, time=0),
    Message('note_on', channel=9, note=36, velocity=90, time=21),
    Message('note_on', channel=9, note=57, velocity=90, time=0),
    Message('note_on', channel=9, note=38, velocity=90, time=0),
    Message('note_on', channel=9, note=36, velocity=0, time=39),
    Message('note_on', channel=9, note=57, velocity=0, time=0),
    Message('note_on', channel=9, note=38, velocity=0, time=0),
    Message('note_on', channel=9, note=38, velocity=90, time=81),
    Message('note_on', channel=9, note=38, velocity=0, time=39),
    Message('note_on', channel=9, note=36, velocity=90, time=21),
    Message('note_on', channel=9, note=38, velocity=90, time=0),
    Message('note_on', channel=9, note=36, velocity=0, time=39),
    Message('note_on', channel=9, note=38, velocity=0, time=0),
    Message('note_on', channel=9, note=38, velocity=90, time=21),
    Message('note_on', channel=9, note=57, velocity=90, time=0),
    Message('note_on', channel=9, note=36, velocity=90, time=0),
    Message('note_on', channel=9, note=38, velocity=0, time=39),
    Message('note_on', channel=9, note=57, velocity=0, time=0),
    Message('note_on', channel=9, note=36, velocity=0, time=0),
    Message('note_on', channel=9, note=57, velocity=90, time=81),
    Message('note_on', channel=9, note=36, velocity=90, time=0),
    Message('note_on', channel=9, note=38, velocity=90, time=0),
    Message('note_on', channel=9, note=57, velocity=0, time=19),
    Message('note_on', channel=9, note=36, velocity=0, time=0),
    Message('note_on', channel=9, note=38, velocity=0, time=0),
    Message('note_on', channel=9, note=36, velocity=90, time=11),
    Message('note_on', channel=9, note=36, velocity=0, time=19),
    Message('note_on', channel=9, note=36, velocity=90, time=11),
    Message('note_on', channel=9, note=36, velocity=0, time=19),
    Message('note_on', channel=9, note=38, velocity=90, time=41),
    Message('note_on', channel=9, note=57, velocity=90, time=0),
    Message('note_on', channel=9, note=36, velocity=90, time=0),
    Message('note_on', channel=9, note=38, velocity=0, time=19),
    Message('note_on', channel=9, note=57, velocity=0, time=0),
    Message('note_on', channel=9, note=36, velocity=0, time=0),
    Message('note_on', channel=9, note=36, velocity=90, time=11),
    Message('note_on', channel=9, note=36, velocity=0, time=19),
    Message('note_on', channel=9, note=36, velocity=90, time=11),
    Message('note_on', channel=9, note=36, velocity=0, time=19),
    Message('note_on', channel=9, note=57, velocity=90, time=41),
    Message('note_on', channel=9, note=36, velocity=90, time=0),
    Message('note_on', channel=9, note=38, velocity=90, time=0),
    Message('note_on', channel=9, note=57, velocity=0, time=39),
    Message('note_on', channel=9, note=36, velocity=0, time=0),
    Message('note_on', channel=9, note=38, velocity=0, time=0),
    Message('note_on', channel=9, note=38, velocity=90, time=81),
    Message('note_on', channel=9, note=36, velocity=90, time=0),
    Message('note_on', channel=9, note=57, velocity=90, time=0),
    Message('note_on', channel=9, note=38, velocity=0, time=19),
    Message('note_on', channel=9, note=36, velocity=0, time=0),
    Message('note_on', channel=9, note=57, velocity=0, time=0),
    Message('note_on', channel=9, note=36, velocity=90, time=101),
    Message('note_on', channel=9, note=38, velocity=90, time=0),
    Message('note_on', channel=9, note=57, velocity=90, time=0),
    Message('note_on', channel=9, note=36, velocity=0, time=19),
    Message('note_on', channel=9, note=38, velocity=0, time=0),
    Message('note_on', channel=9, note=57, velocity=0, time=0),
    Message('note_on', channel=9, note=36, velocity=90, time=11),
    Message('note_on', channel=9, note=36, velocity=0, time=19),
    Message('note_on', channel=9, note=36, velocity=90, time=11),
    Message('note_on', channel=9, note=36, velocity=0, time=19),
    Message('note_on', channel=9, note=38, velocity=90, time=41),
    Message('note_on', channel=9, note=57, velocity=90, time=0),
    Message('note_on', channel=9, note=36, velocity=90, time=0),
    Message('note_on', channel=9, note=38, velocity=0, time=19),
    Message('note_on', channel=9, note=57, velocity=0, time=0),
    Message('note_on', channel=9, note=36, velocity=0, time=0),
    Message('note_on', channel=9, note=36, velocity=90, time=11),
    Message('note_on', channel=9, note=36, velocity=0, time=19),
    Message('note_on', channel=9, note=36, velocity=90, time=11),
    Message('note_on', channel=9, note=36, velocity=0, time=19),
    Message('note_on', channel=9, note=38, velocity=90, time=41),
    Message('note_on', channel=9, note=57, velocity=90, time=0),
    Message('note_on', channel=9, note=36, velocity=90, time=0),
    Message('note_on', channel=9, note=38, velocity=0, time=19),
    Message('note_on', channel=9, note=57, velocity=0, time=0),
    Message('note_on', channel=9, note=36, velocity=0, time=0),
    Message('note_on', channel=9, note=36, velocity=90, time=11),
    Message('note_on', channel=9, note=36, velocity=0, time=19),
    Message('note_on', channel=9, note=36, velocity=90, time=11),
    Message('note_on', channel=9, note=36, velocity=0, time=19),
    Message('note_on', channel=9, note=54, velocity=90, time=41),
    Message('note_on', channel=9, note=41, velocity=90, time=0),
    Message('note_on', channel=9, note=45, velocity=90, time=0),
    Message('note_on', channel=9, note=54, velocity=0, time=39),
    Message('note_on', channel=9, note=41, velocity=0, time=0),
    Message('note_on', channel=9, note=45, velocity=0, time=0),
    Message('note_on', channel=9, note=54, velocity=90, time=21),
    Message('note_on', channel=9, note=54, velocity=0, time=39),
    Message('note_on', channel=9, note=40, velocity=90, time=21),
    Message('note_on', channel=9, note=54, velocity=90, time=0),
    Message('note_on', channel=9, note=40, velocity=0, time=39),
    Message('note_on', channel=9, note=54, velocity=0, time=0),
    Message('note_on', channel=9, note=54, velocity=90, time=21),
    Message('note_on', channel=9, note=54, velocity=0, time=39),
    Message('note_on', channel=9, note=54, velocity=90, time=21),
    Message('note_on', channel=9, note=54, velocity=0, time=39),
    Message('note_on', channel=9, note=54, velocity=90, time=21),
    Message('note_on', channel=9, note=54, velocity=0, time=39),
    Message('note_on', channel=9, note=54, velocity=90, time=21),
    Message('note_on', channel=9, note=40, velocity=90, time=0),
    Message('note_on', channel=9, note=54, velocity=0, time=39),
    Message('note_on', channel=9, note=40, velocity=0, time=0),
    Message('note_on', channel=9, note=54, velocity=90, time=21),
    Message('note_on', channel=9, note=54, velocity=0, time=39),
    Message('note_on', channel=9, note=41, velocity=90, time=21),
    Message('note_on', channel=9, note=54, velocity=90, time=0),
    Message('note_on', channel=9, note=45, velocity=90, time=0),
    Message('note_on', channel=9, note=41, velocity=0, time=39),
    Message('note_on', channel=9, note=54, velocity=0, time=0),
    Message('note_on', channel=9, note=45, velocity=0, time=0),
    Message('note_on', channel=9, note=54, velocity=90, time=21),
    Message('note_on', channel=9, note=54, velocity=0, time=39),
    Message('note_on', channel=9, note=54, velocity=90, time=21),
    Message('note_on', channel=9, note=40, velocity=90, time=0),
    Message('note_on', channel=9, note=54, velocity=0, time=39),
    Message('note_on', channel=9, note=40, velocity=0, time=0),
    Message('note_on', channel=9, note=54, velocity=90, time=21),
    Message('note_on', channel=9, note=54, velocity=0, time=39),
    Message('note_on', channel=9, note=54, velocity=90, time=21),
    Message('note_on', channel=9, note=54, velocity=0, time=39),
    Message('note_on', channel=9, note=54, velocity=90, time=21),
    Message('note_on', channel=9, note=54, velocity=0, time=39),
    Message('note_on', channel=9, note=54, velocity=90, time=21),
    Message('note_on', channel=9, note=40, velocity=90, time=0),
    Message('note_on', channel=9, note=54, velocity=0, time=39),
    Message('note_on', channel=9, note=40, velocity=0, time=0),
    Message('note_on', channel=9, note=54, velocity=90, time=21),
    Message('note_on', channel=9, note=54, velocity=0, time=39),
    Message('note_on', channel=9, note=45, velocity=90, time=21),
    Message('note_on', channel=9, note=54, velocity=90, time=0),
    Message('note_on', channel=9, note=41, velocity=90, time=0),
    Message('note_on', channel=9, note=45, velocity=0, time=39),
    Message('note_on', channel=9, note=54, velocity=0, time=0),
    Message('note_on', channel=9, note=41, velocity=0, time=0),
    Message('note_on', channel=9, note=54, velocity=90, time=21),
    Message('note_on', channel=9, note=54, velocity=0, time=39),
    Message('note_on', channel=9, note=54, velocity=90, time=21),
    Message('note_on', channel=9, note=40, velocity=90, time=0),
    Message('note_on', channel=9, note=54, velocity=0, time=39),
    Message('note_on', channel=9, note=40, velocity=0, time=0),
    Message('note_on', channel=9, note=54, velocity=90, time=21),
    Message('note_on', channel=9, note=54, velocity=0, time=39),
    Message('note_on', channel=9, note=54, velocity=90, time=21),
    Message('note_on', channel=9, note=54, velocity=0, time=39),
    Message('note_on', channel=9, note=54, velocity=90, time=21),
    Message('note_on', channel=9, note=54, velocity=0, time=39),
    Message('note_on', channel=9, note=54, velocity=90, time=21),
    Message('note_on', channel=9, note=40, velocity=90, time=0),
    Message('note_on', channel=9, note=54, velocity=0, time=39),
    Message('note_on', channel=9, note=40, velocity=0, time=0),
    Message('note_on', channel=9, note=54, velocity=90, time=21),
    Message('note_on', channel=9, note=54, velocity=0, time=39),
    Message('note_on', channel=9, note=54, velocity=90, time=21),
    Message('note_on', channel=9, note=41, velocity=90, time=0),
    Message('note_on', channel=9, note=45, velocity=90, time=0),
    Message('note_on', channel=9, note=54, velocity=0, time=39),
    Message('note_on', channel=9, note=41, velocity=0, time=0),
    Message('note_on', channel=9, note=45, velocity=0, time=0),
    Message('note_on', channel=9, note=54, velocity=90, time=21),
    Message('note_on', channel=9, note=54, velocity=0, time=39),
    Message('note_on', channel=9, note=54, velocity=90, time=21),
    Message('note_on', channel=9, note=40, velocity=90, time=0),
    Message('note_on', channel=9, note=54, velocity=0, time=39),
    Message('note_on', channel=9, note=40, velocity=0, time=0),
    Message('note_on', channel=9, note=54, velocity=90, time=21),
    Message('note_on', channel=9, note=54, velocity=0, time=39),
    Message('note_on', channel=9, note=54, velocity=90, time=21),
    Message('note_on', channel=9, note=54, velocity=0, time=39),
    Message('note_on', channel=9, note=54, velocity=90, time=21),
    Message('note_on', channel=9, note=54, velocity=0, time=39),
    Message('note_on', channel=9, note=40, velocity=90, time=21),
    Message('note_on', channel=9, note=54, velocity=90, time=0),
    Message('note_on', channel=9, note=40, velocity=0, time=39),
    Message('note_on', channel=9, note=54, velocity=0, time=0),
    Message('note_on', channel=9, note=54, velocity=90, time=21),
    Message('note_on', channel=9, note=54, velocity=0, time=39),
    Message('note_on', channel=9, note=54, velocity=90, time=21),
    Message('note_on', channel=9, note=45, velocity=90, time=0),
    Message('note_on', channel=9, note=41, velocity=90, time=0),
    Message('note_on', channel=9, note=54, velocity=0, time=39),
    Message('note_on', channel=9, note=45, velocity=0, time=0),
    Message('note_on', channel=9, note=41, velocity=0, time=0),
    Message('note_on', channel=9, note=54, velocity=90, time=21),
    Message('note_on', channel=9, note=54, velocity=0, time=39),
    Message('note_on', channel=9, note=40, velocity=90, time=21),
    Message('note_on', channel=9, note=54, velocity=90, time=0),
    Message('note_on', channel=9, note=40, velocity=0, time=39),
    Message('note_on', channel=9, note=54, velocity=0, time=0),
    Message('note_on', channel=9, note=54, velocity=90, time=21),
    Message('note_on', channel=9, note=54, velocity=0, time=39),
    Message('note_on', channel=9, note=54, velocity=90, time=21),
    Message('note_on', channel=9, note=54, velocity=0, time=39),
    Message('note_on', channel=9, note=54, velocity=90, time=21),
    Message('note_on', channel=9, note=54, velocity=0, time=39),
    Message('note_on', channel=9, note=54, velocity=90, time=21),
    Message('note_on', channel=9, note=40, velocity=90, time=0),
    Message('note_on', channel=9, note=54, velocity=0, time=39),
    Message('note_on', channel=9, note=40, velocity=0, time=0),
    Message('note_on', channel=9, note=54, velocity=90, time=21),
    Message('note_on', channel=9, note=54, velocity=0, time=39),
    Message('note_on', channel=9, note=41, velocity=90, time=21),
    Message('note_on', channel=9, note=45, velocity=90, time=0),
    Message('note_on', channel=9, note=54, velocity=90, time=0),
    Message('note_on', channel=9, note=41, velocity=0, time=39),
    Message('note_on', channel=9, note=45, velocity=0, time=0),
    Message('note_on', channel=9, note=54, velocity=0, time=0),
    Message('note_on', channel=9, note=54, velocity=90, time=21),
    Message('note_on', channel=9, note=54, velocity=0, time=39),
    Message('note_on', channel=9, note=54, velocity=90, time=21),
    Message('note_on', channel=9, note=40, velocity=90, time=0),
    Message('note_on', channel=9, note=54, velocity=0, time=39),
    Message('note_on', channel=9, note=40, velocity=0, time=0),
    Message('note_on', channel=9, note=54, velocity=90, time=21),
    Message('note_on', channel=9, note=54, velocity=0, time=39),
    Message('note_on', channel=9, note=54, velocity=90, time=21),
    Message('note_on', channel=9, note=54, velocity=0, time=39),
    Message('note_on', channel=9, note=54, velocity=90, time=21),
    Message('note_on', channel=9, note=54, velocity=0, time=39),
    Message('note_on', channel=9, note=54, velocity=90, time=21),
    Message('note_on', channel=9, note=40, velocity=90, time=0),
    Message('note_on', channel=9, note=54, velocity=0, time=39),
    Message('note_on', channel=9, note=40, velocity=0, time=0),
    Message('note_on', channel=9, note=54, velocity=90, time=21),
    Message('note_on', channel=9, note=54, velocity=0, time=39),
    Message('note_on', channel=9, note=54, velocity=90, time=21),
    Message('note_on', channel=9, note=45, velocity=90, time=0),
    Message('note_on', channel=9, note=41, velocity=90, time=0),
    Message('note_on', channel=9, note=54, velocity=0, time=39),
    Message('note_on', channel=9, note=45, velocity=0, time=0),
    Message('note_on', channel=9, note=41, velocity=0, time=0),
    Message('note_on', channel=9, note=54, velocity=90, time=21),
    Message('note_on', channel=9, note=54, velocity=0, time=39),
    Message('note_on', channel=9, note=54, velocity=90, time=21),
    Message('note_on', channel=9, note=40, velocity=90, time=0),
    Message('note_on', channel=9, note=54, velocity=0, time=39),
    Message('note_on', channel=9, note=40, velocity=0, time=0),
    Message('note_on', channel=9, note=54, velocity=90, time=21),
    Message('note_on', channel=9, note=54, velocity=0, time=39),
    Message('note_on', channel=9, note=54, velocity=90, time=21),
    Message('note_on', channel=9, note=54, velocity=0, time=39),
    Message('note_on', channel=9, note=54, velocity=90, time=21),
    Message('note_on', channel=9, note=54, velocity=0, time=39),
    Message('note_on', channel=9, note=40, velocity=90, time=21),
    Message('note_on', channel=9, note=54, velocity=90, time=0),
    Message('note_on', channel=9, note=40, velocity=0, time=39),
    Message('note_on', channel=9, note=54, velocity=0, time=0),
    Message('note_on', channel=9, note=54, velocity=90, time=21),
    Message('note_on', channel=9, note=54, velocity=0, time=39),
    Message('note_on', channel=9, note=41, velocity=90, time=21),
    Message('note_on', channel=9, note=45, velocity=90, time=0),
    Message('note_on', channel=9, note=54, velocity=90, time=0),
    Message('note_on', channel=9, note=41, velocity=0, time=39),
    Message('note_on', channel=9, note=45, velocity=0, time=0),
    Message('note_on', channel=9, note=54, velocity=0, time=0),
    Message('note_on', channel=9, note=54, velocity=90, time=21),
    Message('note_on', channel=9, note=54, velocity=0, time=39),
    Message('note_on', channel=9, note=54, velocity=90, time=21),
    Message('note_on', channel=9, note=40, velocity=90, time=0),
    Message('note_on', channel=9, note=54, velocity=0, time=39),
    Message('note_on', channel=9, note=40, velocity=0, time=0),
    Message('note_on', channel=9, note=54, velocity=90, time=21),
    Message('note_on', channel=9, note=54, velocity=0, time=39),
    Message('note_on', channel=9, note=54, velocity=90, time=21),
    Message('note_on', channel=9, note=54, velocity=0, time=39),
    Message('note_on', channel=9, note=54, velocity=90, time=21),
    Message('note_on', channel=9, note=54, velocity=0, time=39),
    Message('note_on', channel=9, note=40, velocity=90, time=21),
    Message('note_on', channel=9, note=54, velocity=90, time=0),
    Message('note_on', channel=9, note=40, velocity=0, time=39),
    Message('note_on', channel=9, note=54, velocity=0, time=0),
    Message('note_on', channel=9, note=54, velocity=90, time=21),
    Message('note_on', channel=9, note=54, velocity=0, time=39),
    Message('note_on', channel=9, note=45, velocity=90, time=21),
    Message('note_on', channel=9, note=54, velocity=90, time=0),
    Message('note_on', channel=9, note=41, velocity=90, time=0),
    Message('note_on', channel=9, note=45, velocity=0, time=39),
    Message('note_on', channel=9, note=54, velocity=0, time=0),
    Message('note_on', channel=9, note=41, velocity=0, time=0),
    Message('note_on', channel=9, note=54, velocity=90, time=21),
    Message('note_on', channel=9, note=54, velocity=0, time=39),
    Message('note_on', channel=9, note=40, velocity=90, time=21),
    Message('note_on', channel=9, note=54, velocity=90, time=0),
    Message('note_on', channel=9, note=40, velocity=0, time=39),
    Message('note_on', channel=9, note=54, velocity=0, time=0),
    Message('note_on', channel=9, note=54, velocity=90, time=21),
    Message('note_on', channel=9, note=54, velocity=0, time=39),
    Message('note_on', channel=9, note=54, velocity=90, time=21),
    Message('note_on', channel=9, note=54, velocity=0, time=39),
    Message('note_on', channel=9, note=54, velocity=90, time=21),
    Message('note_on', channel=9, note=54, velocity=0, time=39),
    Message('note_on', channel=9, note=54, velocity=90, time=21),
    Message('note_on', channel=9, note=40, velocity=90, time=0),
    Message('note_on', channel=9, note=54, velocity=0, time=39),
    Message('note_on', channel=9, note=40, velocity=0, time=0),
    Message('note_on', channel=9, note=54, velocity=90, time=21),
    Message('note_on', channel=9, note=54, velocity=0, time=39),
    Message('note_on', channel=9, note=54, velocity=90, time=21),
    Message('note_on', channel=9, note=45, velocity=90, time=0),
    Message('note_on', channel=9, note=41, velocity=90, time=0),
    Message('note_on', channel=9, note=54, velocity=0, time=39),
    Message('note_on', channel=9, note=45, velocity=0, time=0),
    Message('note_on', channel=9, note=41, velocity=0, time=0),
    Message('note_on', channel=9, note=54, velocity=90, time=21),
    Message('note_on', channel=9, note=54, velocity=0, time=39),
    Message('note_on', channel=9, note=54, velocity=90, time=21),
    Message('note_on', channel=9, note=40, velocity=90, time=0),
    Message('note_on', channel=9, note=54, velocity=0, time=39),
    Message('note_on', channel=9, note=40, velocity=0, time=0),
    Message('note_on', channel=9, note=54, velocity=90, time=21),
    Message('note_on', channel=9, note=54, velocity=0, time=39),
    Message('note_on', channel=9, note=54, velocity=90, time=21),
    Message('note_on', channel=9, note=54, velocity=0, time=39),
    Message('note_on', channel=9, note=54, velocity=90, time=21),
    Message('note_on', channel=9, note=54, velocity=0, time=39),
    Message('note_on', channel=9, note=40, velocity=90, time=21),
    Message('note_on', channel=9, note=54, velocity=90, time=0),
    Message('note_on', channel=9, note=40, velocity=0, time=39),
    Message('note_on', channel=9, note=54, velocity=0, time=0),
    Message('note_on', channel=9, note=54, velocity=90, time=21),
    Message('note_on', channel=9, note=54, velocity=0, time=39),
    Message('note_on', channel=9, note=45, velocity=90, time=21),
    Message('note_on', channel=9, note=54, velocity=90, time=0),
    Message('note_on', channel=9, note=41, velocity=90, time=0),
    Message('note_on', channel=9, note=45, velocity=0, time=39),
    Message('note_on', channel=9, note=54, velocity=0, time=0),
    Message('note_on', channel=9, note=41, velocity=0, time=0),
    Message('note_on', channel=9, note=54, velocity=90, time=21),
    Message('note_on', channel=9, note=54, velocity=0, time=39),
    Message('note_on', channel=9, note=40, velocity=90, time=21),
    Message('note_on', channel=9, note=54, velocity=90, time=0),
    Message('note_on', channel=9, note=40, velocity=0, time=39),
    Message('note_on', channel=9, note=54, velocity=0, time=0),
    Message('note_on', channel=9, note=54, velocity=90, time=21),
    Message('note_on', channel=9, note=54, velocity=0, time=39),
    Message('note_on', channel=9, note=54, velocity=90, time=21),
    Message('note_on', channel=9, note=54, velocity=0, time=39),
    Message('note_on', channel=9, note=54, velocity=90, time=21),
    Message('note_on', channel=9, note=54, velocity=0, time=39),
    Message('note_on', channel=9, note=54, velocity=90, time=21),
    Message('note_on', channel=9, note=40, velocity=90, time=0),
    Message('note_on', channel=9, note=54, velocity=0, time=39),
    Message('note_on', channel=9, note=40, velocity=0, time=0),
    Message('note_on', channel=9, note=54, velocity=90, time=21),
    Message('note_on', channel=9, note=54, velocity=0, time=39),
    Message('note_on', channel=9, note=41, velocity=90, time=21),
    Message('note_on', channel=9, note=54, velocity=90, time=0),
    Message('note_on', channel=9, note=45, velocity=90, time=0),
    Message('note_on', channel=9, note=41, velocity=0, time=39),
    Message('note_on', channel=9, note=54, velocity=0, time=0),
    Message('note_on', channel=9, note=45, velocity=0, time=0),
    Message('note_on', channel=9, note=54, velocity=90, time=21),
    Message('note_on', channel=9, note=54, velocity=0, time=39),
    Message('note_on', channel=9, note=54, velocity=90, time=21),
    Message('note_on', channel=9, note=40, velocity=90, time=0),
    Message('note_on', channel=9, note=54, velocity=0, time=39),
    Message('note_on', channel=9, note=40, velocity=0, time=0),
    Message('note_on', channel=9, note=54, velocity=90, time=21),
    Message('note_on', channel=9, note=54, velocity=0, time=39),
    Message('note_on', channel=9, note=54, velocity=90, time=21),
    Message('note_on', channel=9, note=54, velocity=0, time=39),
    Message('note_on', channel=9, note=54, velocity=90, time=21),
    Message('note_on', channel=9, note=54, velocity=0, time=39),
    Message('note_on', channel=9, note=54, velocity=90, time=21),
    Message('note_on', channel=9, note=40, velocity=90, time=0),
    Message('note_on', channel=9, note=54, velocity=0, time=39),
    Message('note_on', channel=9, note=40, velocity=0, time=0),
    Message('note_on', channel=9, note=54, velocity=90, time=21),
    Message('note_on', channel=9, note=54, velocity=0, time=39),
    Message('note_on', channel=9, note=45, velocity=90, time=21),
    Message('note_on', channel=9, note=54, velocity=90, time=0),
    Message('note_on', channel=9, note=41, velocity=90, time=0),
    Message('note_on', channel=9, note=45, velocity=0, time=39),
    Message('note_on', channel=9, note=54, velocity=0, time=0),
    Message('note_on', channel=9, note=41, velocity=0, time=0),
    Message('note_on', channel=9, note=54, velocity=90, time=21),
    Message('note_on', channel=9, note=54, velocity=0, time=39),
    Message('note_on', channel=9, note=40, velocity=90, time=21),
    Message('note_on', channel=9, note=54, velocity=90, time=0),
    Message('note_on', channel=9, note=40, velocity=0, time=39),
    Message('note_on', channel=9, note=54, velocity=0, time=0),
    Message('note_on', channel=9, note=54, velocity=90, time=21),
    Message('note_on', channel=9, note=54, velocity=0, time=39),
    Message('note_on', channel=9, note=54, velocity=90, time=21),
    Message('note_on', channel=9, note=54, velocity=0, time=39),
    Message('note_on', channel=9, note=54, velocity=90, time=21),
    Message('note_on', channel=9, note=54, velocity=0, time=39),
    Message('note_on', channel=9, note=54, velocity=90, time=21),
    Message('note_on', channel=9, note=40, velocity=90, time=0),
    Message('note_on', channel=9, note=54, velocity=0, time=39),
    Message('note_on', channel=9, note=40, velocity=0, time=0),
    Message('note_on', channel=9, note=54, velocity=90, time=21),
    Message('note_on', channel=9, note=54, velocity=0, time=39),
    Message('note_on', channel=9, note=54, velocity=90, time=21),
    Message('note_on', channel=9, note=41, velocity=90, time=0),
    Message('note_on', channel=9, note=45, velocity=90, time=0),
    Message('note_on', channel=9, note=54, velocity=0, time=39),
    Message('note_on', channel=9, note=41, velocity=0, time=0),
    Message('note_on', channel=9, note=45, velocity=0, time=0),
    Message('note_on', channel=9, note=54, velocity=90, time=21),
    Message('note_on', channel=9, note=54, velocity=0, time=39),
    Message('note_on', channel=9, note=54, velocity=90, time=21),
    Message('note_on', channel=9, note=40, velocity=90, time=0),
    Message('note_on', channel=9, note=54, velocity=0, time=39),
    Message('note_on', channel=9, note=40, velocity=0, time=0),
    Message('note_on', channel=9, note=54, velocity=90, time=21),
    Message('note_on', channel=9, note=54, velocity=0, time=39),
    Message('note_on', channel=9, note=54, velocity=90, time=21),
    Message('note_on', channel=9, note=54, velocity=0, time=39),
    Message('note_on', channel=9, note=54, velocity=90, time=21),
    Message('note_on', channel=9, note=54, velocity=0, time=39),
    Message('note_on', channel=9, note=40, velocity=90, time=21),
    Message('note_on', channel=9, note=54, velocity=90, time=0),
    Message('note_on', channel=9, note=40, velocity=0, time=39),
    Message('note_on', channel=9, note=54, velocity=0, time=0),
    Message('note_on', channel=9, note=54, velocity=90, time=21),
    Message('note_on', channel=9, note=54, velocity=0, time=39),
    Message('note_on', channel=9, note=54, velocity=90, time=21),
    Message('note_on', channel=9, note=45, velocity=90, time=0),
    Message('note_on', channel=9, note=41, velocity=90, time=0),
    Message('note_on', channel=9, note=54, velocity=0, time=39),
    Message('note_on', channel=9, note=45, velocity=0, time=0),
    Message('note_on', channel=9, note=41, velocity=0, time=0),
    Message('note_on', channel=9, note=54, velocity=90, time=21),
    Message('note_on', channel=9, note=54, velocity=0, time=39),
    Message('note_on', channel=9, note=40, velocity=90, time=21),
    Message('note_on', channel=9, note=54, velocity=90, time=0),
    Message('note_on', channel=9, note=40, velocity=0, time=39),
    Message('note_on', channel=9, note=54, velocity=0, time=0),
    Message('note_on', channel=9, note=54, velocity=90, time=21),
    Message('note_on', channel=9, note=54, velocity=0, time=39),
    Message('note_on', channel=9, note=54, velocity=90, time=21),
    Message('note_on', channel=9, note=54, velocity=0, time=39),
    Message('note_on', channel=9, note=54, velocity=90, time=21),
    Message('note_on', channel=9, note=54, velocity=0, time=39),
    Message('note_on', channel=9, note=54, velocity=90, time=21),
    Message('note_on', channel=9, note=40, velocity=90, time=0),
    Message('note_on', channel=9, note=54, velocity=0, time=39),
    Message('note_on', channel=9, note=40, velocity=0, time=0),
    Message('note_on', channel=9, note=54, velocity=90, time=21),
    Message('note_on', channel=9, note=54, velocity=0, time=39),
    Message('note_on', channel=9, note=36, velocity=90, time=21),
    Message('note_on', channel=9, note=57, velocity=90, time=0),
    Message('note_on', channel=9, note=38, velocity=90, time=0),
    Message('note_on', channel=9, note=36, velocity=0, time=19),
    Message('note_on', channel=9, note=57, velocity=0, time=0),
    Message('note_on', channel=9, note=38, velocity=0, time=0),
    Message('note_on', channel=9, note=38, velocity=90, time=101),
    Message('note_on', channel=9, note=57, velocity=90, time=0),
    Message('note_on', channel=9, note=36, velocity=90, time=0),
    Message('note_on', channel=9, note=38, velocity=0, time=19),
    Message('note_on', channel=9, note=57, velocity=0, time=0),
    Message('note_on', channel=9, note=36, velocity=0, time=0),
    Message('note_on', channel=9, note=36, velocity=90, time=11),
    Message('note_on', channel=9, note=36, velocity=0, time=19),
    Message('note_on', channel=9, note=36, velocity=90, time=11),
    Message('note_on', channel=9, note=36, velocity=0, time=19),
    Message('note_on', channel=9, note=38, velocity=90, time=41),
    Message('note_on', channel=9, note=36, velocity=90, time=0),
    Message('note_on', channel=9, note=57, velocity=90, time=0),
    Message('note_on', channel=9, note=38, velocity=0, time=19),
    Message('note_on', channel=9, note=36, velocity=0, time=0),
    Message('note_on', channel=9, note=57, velocity=0, time=0),
    Message('note_on', channel=9, note=36, velocity=90, time=11),
    Message('note_on', channel=9, note=36, velocity=0, time=19),
    Message('note_on', channel=9, note=36, velocity=90, time=11),
    Message('note_on', channel=9, note=36, velocity=0, time=19),
    Message('note_on', channel=9, note=38, velocity=90, time=41),
    Message('note_on', channel=9, note=57, velocity=90, time=0),
    Message('note_on', channel=9, note=36, velocity=90, time=0),
    Message('note_on', channel=9, note=38, velocity=0, time=19),
    Message('note_on', channel=9, note=57, velocity=0, time=0),
    Message('note_on', channel=9, note=36, velocity=0, time=0),
    Message('note_on', channel=9, note=36, velocity=90, time=11),
    Message('note_on', channel=9, note=36, velocity=0, time=19),
    Message('note_on', channel=9, note=36, velocity=90, time=11),
    Message('note_on', channel=9, note=36, velocity=0, time=19),
    Message('note_on', channel=9, note=36, velocity=90, time=41),
    Message('note_on', channel=9, note=38, velocity=90, time=0),
    Message('note_on', channel=9, note=57, velocity=90, time=0),
    Message('note_on', channel=9, note=36, velocity=0, time=39),
    Message('note_on', channel=9, note=38, velocity=0, time=0),
    Message('note_on', channel=9, note=57, velocity=0, time=0),
    Message('note_on', channel=9, note=38, velocity=90, time=81),
    Message('note_on', channel=9, note=38, velocity=0, time=39),
    Message('note_on', channel=9, note=38, velocity=90, time=21),
    Message('note_on', channel=9, note=36, velocity=90, time=0),
    Message('note_on', channel=9, note=38, velocity=0, time=39),
    Message('note_on', channel=9, note=36, velocity=0, time=0),
    Message('note_on', channel=9, note=38, velocity=90, time=21),
    Message('note_on', channel=9, note=36, velocity=90, time=0),
    Message('note_on', channel=9, note=57, velocity=90, time=0),
    Message('note_on', channel=9, note=38, velocity=0, time=39),
    Message('note_on', channel=9, note=36, velocity=0, time=0),
    Message('note_on', channel=9, note=57, velocity=0, time=0),
    Message('note_on', channel=9, note=38, velocity=90, time=81),
    Message('note_on', channel=9, note=38, velocity=0, time=39),
    Message('note_on', channel=9, note=36, velocity=90, time=21),
    Message('note_on', channel=9, note=38, velocity=90, time=0),
    Message('note_on', channel=9, note=36, velocity=0, time=39),
    Message('note_on', channel=9, note=38, velocity=0, time=0),
    Message('note_on', channel=9, note=38, velocity=90, time=21),
    Message('note_on', channel=9, note=36, velocity=90, time=0),
    Message('note_on', channel=9, note=57, velocity=90, time=0),
    Message('note_on', channel=9, note=38, velocity=0, time=39),
    Message('note_on', channel=9, note=36, velocity=0, time=0),
    Message('note_on', channel=9, note=57, velocity=0, time=0),
    Message('note_on', channel=9, note=38, velocity=90, time=81),
    Message('note_on', channel=9, note=38, velocity=0, time=39),
    Message('note_on', channel=9, note=36, velocity=90, time=21),
    Message('note_on', channel=9, note=38, velocity=90, time=0),
    Message('note_on', channel=9, note=36, velocity=0, time=39),
    Message('note_on', channel=9, note=38, velocity=0, time=0),
    Message('note_on', channel=9, note=36, velocity=90, time=21),
    Message('note_on', channel=9, note=57, velocity=90, time=0),
    Message('note_on', channel=9, note=38, velocity=90, time=0),
    Message('note_on', channel=9, note=36, velocity=0, time=39),
    Message('note_on', channel=9, note=57, velocity=0, time=0),
    Message('note_on', channel=9, note=38, velocity=0, time=0),
    Message('note_on', channel=9, note=38, velocity=90, time=81),
    Message('note_on', channel=9, note=38, velocity=0, time=39),
    Message('note_on', channel=9, note=36, velocity=90, time=21),
    Message('note_on', channel=9, note=38, velocity=90, time=0),
    Message('note_on', channel=9, note=36, velocity=0, time=39),
    Message('note_on', channel=9, note=38, velocity=0, time=0),
    Message('note_on', channel=9, note=57, velocity=90, time=21),
    Message('note_on', channel=9, note=36, velocity=90, time=0),
    Message('note_on', channel=9, note=38, velocity=90, time=0),
    Message('note_on', channel=9, note=57, velocity=0, time=39),
    Message('note_on', channel=9, note=36, velocity=0, time=0),
    Message('note_on', channel=9, note=38, velocity=0, time=0),
    Message('note_on', channel=9, note=57, velocity=90, time=81),
    Message('note_on', channel=9, note=38, velocity=90, time=0),
    Message('note_on', channel=9, note=36, velocity=90, time=0),
    Message('note_on', channel=9, note=57, velocity=0, time=19),
    Message('note_on', channel=9, note=38, velocity=0, time=0),
    Message('note_on', channel=9, note=36, velocity=0, time=0),
    Message('note_on', channel=9, note=36, velocity=90, time=11),
    Message('note_on', channel=9, note=36, velocity=0, time=19),
    Message('note_on', channel=9, note=36, velocity=90, time=11),
    Message('note_on', channel=9, note=36, velocity=0, time=19),
    Message('note_on', channel=9, note=38, velocity=90, time=41),
    Message('note_on', channel=9, note=57, velocity=90, time=0),
    Message('note_on', channel=9, note=36, velocity=90, time=0),
    Message('note_on', channel=9, note=38, velocity=0, time=19),
    Message('note_on', channel=9, note=57, velocity=0, time=0),
    Message('note_on', channel=9, note=36, velocity=0, time=0),
    Message('note_on', channel=9, note=36, velocity=90, time=11),
    Message('note_on', channel=9, note=36, velocity=0, time=19),
    Message('note_on', channel=9, note=36, velocity=90, time=11),
    Message('note_on', channel=9, note=36, velocity=0, time=19),
    Message('note_on', channel=9, note=57, velocity=90, time=41),
    Message('note_on', channel=9, note=36, velocity=90, time=0),
    Message('note_on', channel=9, note=38, velocity=90, time=0),
    Message('note_on', channel=9, note=57, velocity=0, time=39),
    Message('note_on', channel=9, note=36, velocity=0, time=0),
    Message('note_on', channel=9, note=38, velocity=0, time=0),
    Message('note_on', channel=9, note=36, velocity=90, time=81),
    Message('note_on', channel=9, note=57, velocity=90, time=0),
    Message('note_on', channel=9, note=38, velocity=90, time=0),
    Message('note_on', channel=9, note=36, velocity=0, time=19),
    Message('note_on', channel=9, note=57, velocity=0, time=0),
    Message('note_on', channel=9, note=38, velocity=0, time=0),
    Message('note_on', channel=9, note=57, velocity=90, time=101),
    Message('note_on', channel=9, note=36, velocity=90, time=0),
    Message('note_on', channel=9, note=38, velocity=90, time=0),
    Message('note_on', channel=9, note=57, velocity=0, time=19),
    Message('note_on', channel=9, note=36, velocity=0, time=0),
    Message('note_on', channel=9, note=38, velocity=0, time=0),
    Message('note_on', channel=9, note=36, velocity=90, time=11),
    Message('note_on', channel=9, note=36, velocity=0, time=19),
    Message('note_on', channel=9, note=36, velocity=90, time=11),
    Message('note_on', channel=9, note=36, velocity=0, time=19),
    Message('note_on', channel=9, note=38, velocity=90, time=41),
    Message('note_on', channel=9, note=36, velocity=90, time=0),
    Message('note_on', channel=9, note=57, velocity=90, time=0),
    Message('note_on', channel=9, note=38, velocity=0, time=19),
    Message('note_on', channel=9, note=36, velocity=0, time=0),
    Message('note_on', channel=9, note=57, velocity=0, time=0),
    Message('note_on', channel=9, note=36, velocity=90, time=11),
    Message('note_on', channel=9, note=36, velocity=0, time=19),
    Message('note_on', channel=9, note=36, velocity=90, time=11),
    Message('note_on', channel=9, note=36, velocity=0, time=19),
    Message('note_on', channel=9, note=38, velocity=90, time=41),
    Message('note_on', channel=9, note=57, velocity=90, time=0),
    Message('note_on', channel=9, note=36, velocity=90, time=0),
    Message('note_on', channel=9, note=38, velocity=0, time=19),
    Message('note_on', channel=9, note=57, velocity=0, time=0),
    Message('note_on', channel=9, note=36, velocity=0, time=0),
    Message('note_on', channel=9, note=36, velocity=90, time=11),
    Message('note_on', channel=9, note=36, velocity=0, time=19),
    Message('note_on', channel=9, note=36, velocity=90, time=11),
    Message('note_on', channel=9, note=36, velocity=0, time=19),
    Message('note_on', channel=9, note=38, velocity=90, time=41),
    Message('note_on', channel=9, note=57, velocity=90, time=0),
    Message('note_on', channel=9, note=36, velocity=90, time=0),
    Message('note_on', channel=9, note=38, velocity=0, time=39),
    Message('note_on', channel=9, note=57, velocity=0, time=0),
    Message('note_on', channel=9, note=36, velocity=0, time=0),
    Message('note_on', channel=9, note=38, velocity=90, time=81),
    Message('note_on', channel=9, note=38, velocity=0, time=39),
    Message('note_on', channel=9, note=38, velocity=90, time=21),
    Message('note_on', channel=9, note=36, velocity=90, time=0),
    Message('note_on', channel=9, note=38, velocity=0, time=39),
    Message('note_on', channel=9, note=36, velocity=0, time=0),
    Message('note_on', channel=9, note=36, velocity=90, time=21),
    Message('note_on', channel=9, note=57, velocity=90, time=0),
    Message('note_on', channel=9, note=38, velocity=90, time=0),
    Message('note_on', channel=9, note=36, velocity=0, time=39),
    Message('note_on', channel=9, note=57, velocity=0, time=0),
    Message('note_on', channel=9, note=38, velocity=0, time=0),
    Message('note_on', channel=9, note=38, velocity=90, time=81),
    Message('note_on', channel=9, note=38, velocity=0, time=39),
    Message('note_on', channel=9, note=36, velocity=90, time=21),
    Message('note_on', channel=9, note=38, velocity=90, time=0),
    Message('note_on', channel=9, note=36, velocity=0, time=39),
    Message('note_on', channel=9, note=38, velocity=0, time=0),
    Message('note_on', channel=9, note=38, velocity=90, time=21),
    Message('note_on', channel=9, note=57, velocity=90, time=0),
    Message('note_on', channel=9, note=36, velocity=90, time=0),
    Message('note_on', channel=9, note=38, velocity=0, time=39),
    Message('note_on', channel=9, note=57, velocity=0, time=0),
    Message('note_on', channel=9, note=36, velocity=0, time=0),
    Message('note_on', channel=9, note=38, velocity=90, time=81),
    Message('note_on', channel=9, note=38, velocity=0, time=39),
    Message('note_on', channel=9, note=36, velocity=90, time=21),
    Message('note_on', channel=9, note=38, velocity=90, time=0),
    Message('note_on', channel=9, note=36, velocity=0, time=39),
    Message('note_on', channel=9, note=38, velocity=0, time=0),
    Message('note_on', channel=9, note=36, velocity=90, time=21),
    Message('note_on', channel=9, note=57, velocity=90, time=0),
    Message('note_on', channel=9, note=38, velocity=90, time=0),
    Message('note_on', channel=9, note=36, velocity=0, time=39),
    Message('note_on', channel=9, note=57, velocity=0, time=0),
    Message('note_on', channel=9, note=38, velocity=0, time=0),
    Message('note_on', channel=9, note=38, velocity=90, time=81),
    Message('note_on', channel=9, note=38, velocity=0, time=39),
    Message('note_on', channel=9, note=38, velocity=90, time=21),
    Message('note_on', channel=9, note=36, velocity=90, time=0),
    Message('note_on', channel=9, note=38, velocity=0, time=39),
    Message('note_on', channel=9, note=36, velocity=0, time=0),
    Message('note_on', channel=9, note=57, velocity=90, time=21),
    Message('note_on', channel=9, note=38, velocity=90, time=0),
    Message('note_on', channel=9, note=36, velocity=90, time=0),
    Message('note_on', channel=9, note=57, velocity=0, time=39),
    Message('note_on', channel=9, note=38, velocity=0, time=0),
    Message('note_on', channel=9, note=36, velocity=0, time=0),
    Message('note_on', channel=9, note=57, velocity=90, time=81),
    Message('note_on', channel=9, note=36, velocity=90, time=0),
    Message('note_on', channel=9, note=38, velocity=90, time=0),
    Message('note_on', channel=9, note=57, velocity=0, time=19),
    Message('note_on', channel=9, note=36, velocity=0, time=0),
    Message('note_on', channel=9, note=38, velocity=0, time=0),
    Message('note_on', channel=9, note=36, velocity=90, time=11),
    Message('note_on', channel=9, note=36, velocity=0, time=19),
    Message('note_on', channel=9, note=36, velocity=90, time=11),
    Message('note_on', channel=9, note=36, velocity=0, time=19),
    Message('note_on', channel=9, note=57, velocity=90, time=41),
    Message('note_on', channel=9, note=36, velocity=90, time=0),
    Message('note_on', channel=9, note=38, velocity=90, time=0),
    Message('note_on', channel=9, note=57, velocity=0, time=19),
    Message('note_on', channel=9, note=36, velocity=0, time=0),
    Message('note_on', channel=9, note=38, velocity=0, time=0),
    Message('note_on', channel=9, note=36, velocity=90, time=11),
    Message('note_on', channel=9, note=36, velocity=0, time=19),
    Message('note_on', channel=9, note=36, velocity=90, time=11),
    Message('note_on', channel=9, note=36, velocity=0, time=19),
    Message('note_on', channel=9, note=36, velocity=90, time=41),
    Message('note_on', channel=9, note=57, velocity=90, time=0),
    Message('note_on', channel=9, note=38, velocity=90, time=0),
    Message('note_on', channel=9, note=36, velocity=0, time=39),
    Message('note_on', channel=9, note=57, velocity=0, time=0),
    Message('note_on', channel=9, note=38, velocity=0, time=0),
    Message('note_on', channel=9, note=38, velocity=90, time=81),
    Message('note_on', channel=9, note=57, velocity=90, time=0),
    Message('note_on', channel=9, note=36, velocity=90, time=0),
    Message('note_on', channel=9, note=38, velocity=0, time=19),
    Message('note_on', channel=9, note=57, velocity=0, time=0),
    Message('note_on', channel=9, note=36, velocity=0, time=0),
    Message('note_on', channel=9, note=36, velocity=90, time=101),
    Message('note_on', channel=9, note=57, velocity=90, time=0),
    Message('note_on', channel=9, note=38, velocity=90, time=0),
    Message('note_on', channel=9, note=36, velocity=0, time=19),
    Message('note_on', channel=9, note=57, velocity=0, time=0),
    Message('note_on', channel=9, note=38, velocity=0, time=0),
    Message('note_on', channel=9, note=36, velocity=90, time=11),
    Message('note_on', channel=9, note=36, velocity=0, time=19),
    Message('note_on', channel=9, note=36, velocity=90, time=11),
    Message('note_on', channel=9, note=36, velocity=0, time=19),
    Message('note_on', channel=9, note=38, velocity=90, time=41),
    Message('note_on', channel=9, note=36, velocity=90, time=0),
    Message('note_on', channel=9, note=57, velocity=90, time=0),
    Message('note_on', channel=9, note=38, velocity=0, time=19),
    Message('note_on', channel=9, note=36, velocity=0, time=0),
    Message('note_on', channel=9, note=57, velocity=0, time=0),
    Message('note_on', channel=9, note=36, velocity=90, time=11),
    Message('note_on', channel=9, note=36, velocity=0, time=19),
    Message('note_on', channel=9, note=36, velocity=90, time=11),
    Message('note_on', channel=9, note=36, velocity=0, time=19),
    Message('note_on', channel=9, note=38, velocity=90, time=41),
    Message('note_on', channel=9, note=36, velocity=90, time=0),
    Message('note_on', channel=9, note=57, velocity=90, time=0),
    Message('note_on', channel=9, note=38, velocity=0, time=19),
    Message('note_on', channel=9, note=36, velocity=0, time=0),
    Message('note_on', channel=9, note=57, velocity=0, time=0),
    Message('note_on', channel=9, note=36, velocity=90, time=11),
    Message('note_on', channel=9, note=36, velocity=0, time=19),
    Message('note_on', channel=9, note=36, velocity=90, time=11),
    Message('note_on', channel=9, note=36, velocity=0, time=19),
    Message('note_on', channel=9, note=57, velocity=90, time=41),
    Message('note_on', channel=9, note=38, velocity=90, time=0),
    Message('note_on', channel=9, note=36, velocity=90, time=0),
    Message('note_on', channel=9, note=57, velocity=0, time=39),
    Message('note_on', channel=9, note=38, velocity=0, time=0),
    Message('note_on', channel=9, note=36, velocity=0, time=0),
    Message('note_on', channel=9, note=38, velocity=90, time=81),
    Message('note_on', channel=9, note=38, velocity=0, time=39),
    Message('note_on', channel=9, note=38, velocity=90, time=21),
    Message('note_on', channel=9, note=36, velocity=90, time=0),
    Message('note_on', channel=9, note=38, velocity=0, time=39),
    Message('note_on', channel=9, note=36, velocity=0, time=0),
    Message('note_on', channel=9, note=38, velocity=90, time=21),
    Message('note_on', channel=9, note=57, velocity=90, time=0),
    Message('note_on', channel=9, note=36, velocity=90, time=0),
    Message('note_on', channel=9, note=38, velocity=0, time=39),
    Message('note_on', channel=9, note=57, velocity=0, time=0),
    Message('note_on', channel=9, note=36, velocity=0, time=0),
    Message('note_on', channel=9, note=38, velocity=90, time=81),
    Message('note_on', channel=9, note=38, velocity=0, time=39),
    Message('note_on', channel=9, note=38, velocity=90, time=21),
    Message('note_on', channel=9, note=36, velocity=90, time=0),
    Message('note_on', channel=9, note=38, velocity=0, time=39),
    Message('note_on', channel=9, note=36, velocity=0, time=0),
    Message('note_on', channel=9, note=38, velocity=90, time=21),
    Message('note_on', channel=9, note=57, velocity=90, time=0),
    Message('note_on', channel=9, note=36, velocity=90, time=0),
    Message('note_on', channel=9, note=38, velocity=0, time=39),
    Message('note_on', channel=9, note=57, velocity=0, time=0),
    Message('note_on', channel=9, note=36, velocity=0, time=0),
    Message('note_on', channel=9, note=38, velocity=90, time=81),
    Message('note_on', channel=9, note=38, velocity=0, time=39),
    Message('note_on', channel=9, note=38, velocity=90, time=21),
    Message('note_on', channel=9, note=36, velocity=90, time=0),
    Message('note_on', channel=9, note=38, velocity=0, time=39),
    Message('note_on', channel=9, note=36, velocity=0, time=0),
    Message('note_on', channel=9, note=57, velocity=90, time=21),
    Message('note_on', channel=9, note=36, velocity=90, time=0),
    Message('note_on', channel=9, note=38, velocity=90, time=0),
    Message('note_on', channel=9, note=57, velocity=0, time=39),
    Message('note_on', channel=9, note=36, velocity=0, time=0),
    Message('note_on', channel=9, note=38, velocity=0, time=0),
    Message('note_on', channel=9, note=38, velocity=90, time=81),
    Message('note_on', channel=9, note=38, velocity=0, time=39),
    Message('note_on', channel=9, note=38, velocity=90, time=21),
    Message('note_on', channel=9, note=36, velocity=90, time=0),
    Message('note_on', channel=9, note=38, velocity=0, time=39),
    Message('note_on', channel=9, note=36, velocity=0, time=0),
    Message('note_on', channel=9, note=36, velocity=90, time=21),
    Message('note_on', channel=9, note=57, velocity=90, time=0),
    Message('note_on', channel=9, note=38, velocity=90, time=0),
    Message('note_on', channel=9, note=36, velocity=0, time=39),
    Message('note_on', channel=9, note=57, velocity=0, time=0),
    Message('note_on', channel=9, note=38, velocity=0, time=0),
    Message('note_on', channel=9, note=57, velocity=90, time=81),
    Message('note_on', channel=9, note=36, velocity=90, time=0),
    Message('note_on', channel=9, note=38, velocity=90, time=0),
    Message('note_on', channel=9, note=57, velocity=0, time=19),
    Message('note_on', channel=9, note=36, velocity=0, time=0),
    Message('note_on', channel=9, note=38, velocity=0, time=0),
    Message('note_on', channel=9, note=36, velocity=90, time=11),
    Message('note_on', channel=9, note=36, velocity=0, time=19),
    Message('note_on', channel=9, note=36, velocity=90, time=11),
    Message('note_on', channel=9, note=36, velocity=0, time=19),
    Message('note_on', channel=9, note=57, velocity=90, time=41),
    Message('note_on', channel=9, note=38, velocity=90, time=0),
    Message('note_on', channel=9, note=36, velocity=90, time=0),
    Message('note_on', channel=9, note=57, velocity=0, time=19),
    Message('note_on', channel=9, note=38, velocity=0, time=0),
    Message('note_on', channel=9, note=36, velocity=0, time=0),
    Message('note_on', channel=9, note=36, velocity=90, time=11),
    Message('note_on', channel=9, note=36, velocity=0, time=19),
    Message('note_on', channel=9, note=36, velocity=90, time=11),
    Message('note_on', channel=9, note=36, velocity=0, time=19),
    Message('note_on', channel=9, note=38, velocity=90, time=41),
    Message('note_on', channel=9, note=36, velocity=90, time=0),
    Message('note_on', channel=9, note=57, velocity=90, time=0),
    Message('note_on', channel=9, note=38, velocity=0, time=39),
    Message('note_on', channel=9, note=36, velocity=0, time=0),
    Message('note_on', channel=9, note=57, velocity=0, time=0),
    Message('note_on', channel=9, note=36, velocity=90, time=81),
    Message('note_on', channel=9, note=57, velocity=90, time=0),
    Message('note_on', channel=9, note=38, velocity=90, time=0),
    Message('note_on', channel=9, note=36, velocity=0, time=19),
    Message('note_on', channel=9, note=57, velocity=0, time=0),
    Message('note_on', channel=9, note=38, velocity=0, time=0),
    Message('note_on', channel=9, note=57, velocity=90, time=101),
    Message('note_on', channel=9, note=36, velocity=90, time=0),
    Message('note_on', channel=9, note=38, velocity=90, time=0),
    Message('note_on', channel=9, note=57, velocity=0, time=19),
    Message('note_on', channel=9, note=36, velocity=0, time=0),
    Message('note_on', channel=9, note=38, velocity=0, time=0),
    Message('note_on', channel=9, note=36, velocity=90, time=11),
    Message('note_on', channel=9, note=36, velocity=0, time=19),
    Message('note_on', channel=9, note=36, velocity=90, time=11),
    Message('note_on', channel=9, note=36, velocity=0, time=19),
    Message('note_on', channel=9, note=38, velocity=90, time=41),
    Message('note_on', channel=9, note=57, velocity=90, time=0),
    Message('note_on', channel=9, note=36, velocity=90, time=0),
    Message('note_on', channel=9, note=38, velocity=0, time=19),
    Message('note_on', channel=9, note=57, velocity=0, time=0),
    Message('note_on', channel=9, note=36, velocity=0, time=0),
    Message('note_on', channel=9, note=36, velocity=90, time=11),
    Message('note_on', channel=9, note=36, velocity=0, time=19),
    Message('note_on', channel=9, note=36, velocity=90, time=11),
    Message('note_on', channel=9, note=36, velocity=0, time=19),
    Message('note_on', channel=9, note=57, velocity=90, time=41),
    Message('note_on', channel=9, note=38, velocity=90, time=0),
    Message('note_on', channel=9, note=36, velocity=90, time=0),
    Message('note_on', channel=9, note=57, velocity=0, time=19),
    Message('note_on', channel=9, note=38, velocity=0, time=0),
    Message('note_on', channel=9, note=36, velocity=0, time=0),
    Message('note_on', channel=9, note=36, velocity=90, time=11),
    Message('note_on', channel=9, note=36, velocity=0, time=19),
    Message('note_on', channel=9, note=36, velocity=90, time=11),
    Message('note_on', channel=9, note=36, velocity=0, time=19),
    Message('note_on', channel=9, note=57, velocity=90, time=41),
    Message('note_on', channel=9, note=36, velocity=90, time=0),
    Message('note_on', channel=9, note=57, velocity=0, time=39),
    Message('note_on', channel=9, note=36, velocity=0, time=0),
    Message('note_on', channel=9, note=57, velocity=90, time=81),
    Message('note_on', channel=9, note=38, velocity=90, time=0),
    Message('note_on', channel=9, note=57, velocity=0, time=39),
    Message('note_on', channel=9, note=38, velocity=0, time=0),
    Message('note_on', channel=9, note=57, velocity=90, time=21),
    Message('note_on', channel=9, note=38, velocity=90, time=0),
    Message('note_on', channel=9, note=38, velocity=0, time=19),
    Message('note_on', channel=9, note=38, velocity=90, time=11),
    Message('note_on', channel=9, note=57, velocity=0, time=9),
    Message('note_on', channel=9, note=38, velocity=0, time=10),
    Message('note_on', channel=9, note=36, velocity=90, time=11),
    Message('note_on', channel=9, note=57, velocity=90, time=0),
    Message('note_on', channel=9, note=36, velocity=0, time=39),
    Message('note_on', channel=9, note=57, velocity=0, time=0),
    Message('note_on', channel=9, note=57, velocity=90, time=81),
    Message('note_on', channel=9, note=38, velocity=90, time=0),
    Message('note_on', channel=9, note=57, velocity=0, time=39),
    Message('note_on', channel=9, note=38, velocity=0, time=0),
    Message('note_on', channel=9, note=36, velocity=90, time=81),
    Message('note_on', channel=9, note=36, velocity=0, time=39),
    Message('note_on', channel=9, note=57, velocity=90, time=81),
    Message('note_on', channel=9, note=38, velocity=90, time=0),
    Message('note_on', channel=9, note=57, velocity=0, time=39),
    Message('note_on', channel=9, note=38, velocity=0, time=0),
    Message('note_on', channel=9, note=38, velocity=90, time=21),
    Message('note_on', channel=9, note=38, velocity=0, time=39),
    Message('note_on', channel=9, note=38, velocity=90, time=21),
    Message('note_on', channel=9, note=36, velocity=90, time=0),
    Message('note_on', channel=9, note=38, velocity=0, time=19),
    Message('note_on', channel=9, note=36, velocity=0, time=20),
    Message('note_on', channel=9, note=38, velocity=90, time=21),
    Message('note_on', channel=9, note=38, velocity=0, time=19),
    Message('note_on', channel=9, note=40, velocity=90, time=11),
    Message('note_on', channel=9, note=40, velocity=0, time=19),
    Message('note_on', channel=9, note=57, velocity=90, time=11),
    Message('note_on', channel=9, note=38, velocity=90, time=0),
    Message('note_on', channel=9, note=57, velocity=0, time=39),
    Message('note_on', channel=9, note=38, velocity=0, time=0),
    Message('note_on', channel=9, note=38, velocity=90, time=21),
    Message('note_on', channel=9, note=38, velocity=0, time=19),
    Message('note_on', channel=9, note=38, velocity=90, time=11),
    Message('note_on', channel=9, note=38, velocity=0, time=19),
    Message('note_on', channel=9, note=57, velocity=90, time=11),
    Message('note_on', channel=9, note=36, velocity=90, time=0),
    Message('note_on', channel=9, note=57, velocity=0, time=39),
    Message('note_on', channel=9, note=36, velocity=0, time=0),
    Message('note_on', channel=9, note=38, velocity=90, time=81),
    Message('note_on', channel=9, note=57, velocity=90, time=0),
    Message('note_on', channel=9, note=38, velocity=0, time=39),
    Message('note_on', channel=9, note=57, velocity=0, time=0),
    Message('note_on', channel=9, note=38, velocity=90, time=21),
    Message('note_on', channel=9, note=57, velocity=90, time=0),
    Message('note_on', channel=9, note=38, velocity=0, time=19),
    Message('note_on', channel=9, note=38, velocity=90, time=11),
    Message('note_on', channel=9, note=57, velocity=0, time=9),
    Message('note_on', channel=9, note=38, velocity=0, time=10),
    Message('note_on', channel=9, note=57, velocity=90, time=11),
    Message('note_on', channel=9, note=36, velocity=90, time=0),
    Message('note_on', channel=9, note=57, velocity=0, time=39),
    Message('note_on', channel=9, note=36, velocity=0, time=0),
    Message('note_on', channel=9, note=57, velocity=90, time=21),
    Message('note_on', channel=9, note=57, velocity=0, time=39),
    Message('note_on', channel=9, note=57, velocity=90, time=21),
    Message('note_on', channel=9, note=38, velocity=90, time=0),
    Message('note_on', channel=9, note=57, velocity=0, time=39),
    Message('note_on', channel=9, note=38, velocity=0, time=0),
    Message('note_on', channel=9, note=57, velocity=90, time=21),
    Message('note_on', channel=9, note=57, velocity=0, time=39),
    Message('note_on', channel=9, note=57, velocity=90, time=21),
    Message('note_on', channel=9, note=36, velocity=90, time=0),
    Message('note_on', channel=9, note=57, velocity=0, time=39),
    Message('note_on', channel=9, note=36, velocity=0, time=0),
    Message('note_on', channel=9, note=57, velocity=90, time=81),
    Message('note_on', channel=9, note=38, velocity=90, time=0),
    Message('note_on', channel=9, note=57, velocity=0, time=39),
    Message('note_on', channel=9, note=38, velocity=0, time=0),
    Message('note_on', channel=9, note=57, velocity=90, time=21),
    Message('note_on', channel=9, note=38, velocity=90, time=0),
    Message('note_on', channel=9, note=57, velocity=0, time=39),
    Message('note_on', channel=9, note=38, velocity=0, time=0),
    Message('note_on', channel=9, note=36, velocity=90, time=21),
    Message('note_on', channel=9, note=38, velocity=90, time=0),
    Message('note_on', channel=9, note=57, velocity=90, time=0),
    Message('note_on', channel=9, note=38, velocity=0, time=19),
    Message('note_on', channel=9, note=36, velocity=0, time=20),
    Message('note_on', channel=9, note=57, velocity=0, time=0),
    Message('note_on', channel=9, note=57, velocity=90, time=21),
    Message('note_on', channel=9, note=38, velocity=90, time=0),
    Message('note_on', channel=9, note=38, velocity=0, time=19),
    Message('note_on', channel=9, note=40, velocity=90, time=11),
    Message('note_on', channel=9, note=57, velocity=0, time=9),
    Message('note_on', channel=9, note=40, velocity=0, time=10),
    Message('note_on', channel=9, note=57, velocity=90, time=11),
    Message('note_on', channel=9, note=38, velocity=90, time=0),
    Message('note_on', channel=9, note=57, velocity=0, time=39),
    Message('note_on', channel=9, note=38, velocity=0, time=0),
    Message('note_on', channel=9, note=57, velocity=90, time=21),
    Message('note_on', channel=9, note=38, velocity=90, time=0),
    Message('note_on', channel=9, note=38, velocity=0, time=19),
    Message('note_on', channel=9, note=38, velocity=90, time=11),
    Message('note_on', channel=9, note=57, velocity=0, time=9),
    Message('note_on', channel=9, note=38, velocity=0, time=10),
    Message('note_on', channel=9, note=36, velocity=90, time=11),
    Message('note_on', channel=9, note=57, velocity=90, time=0),
    Message('note_on', channel=9, note=36, velocity=0, time=39),
    Message('note_on', channel=9, note=57, velocity=0, time=0),
    Message('note_on', channel=9, note=57, velocity=90, time=81),
    Message('note_on', channel=9, note=38, velocity=90, time=0),
    Message('note_on', channel=9, note=57, velocity=0, time=39),
    Message('note_on', channel=9, note=38, velocity=0, time=0),
    Message('note_on', channel=9, note=57, velocity=90, time=21),
    Message('note_on', channel=9, note=38, velocity=90, time=0),
    Message('note_on', channel=9, note=38, velocity=0, time=19),
    Message('note_on', channel=9, note=38, velocity=90, time=11),
    Message('note_on', channel=9, note=57, velocity=0, time=9),
    Message('note_on', channel=9, note=38, velocity=0, time=10),
    Message('note_on', channel=9, note=36, velocity=90, time=11),
    Message('note_on', channel=9, note=57, velocity=90, time=0),
    Message('note_on', channel=9, note=36, velocity=0, time=39),
    Message('note_on', channel=9, note=57, velocity=0, time=0),
    Message('note_on', channel=9, note=38, velocity=90, time=81),
    Message('note_on', channel=9, note=57, velocity=90, time=0),
    Message('note_on', channel=9, note=38, velocity=0, time=39),
    Message('note_on', channel=9, note=57, velocity=0, time=0),
    Message('note_on', channel=9, note=36, velocity=90, time=81),
    Message('note_on', channel=9, note=57, velocity=90, time=0),
    Message('note_on', channel=9, note=36, velocity=0, time=39),
    Message('note_on', channel=9, note=57, velocity=0, time=0),
    Message('note_on', channel=9, note=38, velocity=90, time=81),
    Message('note_on', channel=9, note=57, velocity=90, time=0),
    Message('note_on', channel=9, note=38, velocity=0, time=39),
    Message('note_on', channel=9, note=57, velocity=0, time=0),
    Message('note_on', channel=9, note=38, velocity=90, time=21),
    Message('note_on', channel=9, note=57, velocity=90, time=0),
    Message('note_on', channel=9, note=38, velocity=0, time=39),
    Message('note_on', channel=9, note=57, velocity=0, time=0),
    Message('note_on', channel=9, note=57, velocity=90, time=21),
    Message('note_on', channel=9, note=36, velocity=90, time=0),
    Message('note_on', channel=9, note=38, velocity=90, time=0),
    Message('note_on', channel=9, note=38, velocity=0, time=19),
    Message('note_on', channel=9, note=57, velocity=0, time=20),
    Message('note_on', channel=9, note=36, velocity=0, time=0),
    Message('note_on', channel=9, note=38, velocity=90, time=21),
    Message('note_on', channel=9, note=57, velocity=90, time=0),
    Message('note_on', channel=9, note=38, velocity=0, time=19),
    Message('note_on', channel=9, note=40, velocity=90, time=11),
    Message('note_on', channel=9, note=57, velocity=0, time=9),
    Message('note_on', channel=9, note=40, velocity=0, time=10),
    Message('note_on', channel=9, note=38, velocity=90, time=11),
    Message('note_on', channel=9, note=57, velocity=90, time=0),
    Message('note_on', channel=9, note=38, velocity=0, time=39),
    Message('note_on', channel=9, note=57, velocity=0, time=0),
    Message('note_on', channel=9, note=38, velocity=90, time=21),
    Message('note_on', channel=9, note=57, velocity=90, time=0),
    Message('note_on', channel=9, note=38, velocity=0, time=19),
    Message('note_on', channel=9, note=38, velocity=90, time=11),
    Message('note_on', channel=9, note=57, velocity=0, time=9),
    Message('note_on', channel=9, note=38, velocity=0, time=10),
    Message('note_on', channel=9, note=36, velocity=90, time=11),
    Message('note_on', channel=9, note=57, velocity=90, time=0),
    Message('note_on', channel=9, note=36, velocity=0, time=39),
    Message('note_on', channel=9, note=57, velocity=0, time=0),
    Message('note_on', channel=9, note=38, velocity=90, time=81),
    Message('note_on', channel=9, note=57, velocity=90, time=0),
    Message('note_on', channel=9, note=38, velocity=0, time=39),
    Message('note_on', channel=9, note=57, velocity=0, time=0),
    Message('note_on', channel=9, note=57, velocity=90, time=21),
    Message('note_on', channel=9, note=38, velocity=90, time=0),
    Message('note_on', channel=9, note=38, velocity=0, time=19),
    Message('note_on', channel=9, note=38, velocity=90, time=11),
    Message('note_on', channel=9, note=57, velocity=0, time=9),
    Message('note_on', channel=9, note=38, velocity=0, time=10),
    Message('note_on', channel=9, note=36, velocity=90, time=11),
    Message('note_on', channel=9, note=57, velocity=90, time=0),
    Message('note_on', channel=9, note=36, velocity=0, time=39),
    Message('note_on', channel=9, note=57, velocity=0, time=0),
    Message('note_on', channel=9, note=38, velocity=90, time=81),
    Message('note_on', channel=9, note=57, velocity=90, time=0),
    Message('note_on', channel=9, note=38, velocity=0, time=39),
    Message('note_on', channel=9, note=57, velocity=0, time=0),
    Message('note_on', channel=9, note=36, velocity=90, time=81),
    Message('note_on', channel=9, note=36, velocity=0, time=39),
    Message('note_on', channel=9, note=38, velocity=90, time=81),
    Message('note_on', channel=9, note=57, velocity=90, time=0),
    Message('note_on', channel=9, note=38, velocity=0, time=39),
    Message('note_on', channel=9, note=57, velocity=0, time=0),
    Message('note_on', channel=9, note=38, velocity=90, time=21),
    Message('note_on', channel=9, note=38, velocity=0, time=39),
    Message('note_on', channel=9, note=36, velocity=90, time=21),
    Message('note_on', channel=9, note=38, velocity=90, time=0),
    Message('note_on', channel=9, note=38, velocity=0, time=19),
    Message('note_on', channel=9, note=36, velocity=0, time=20),
    Message('note_on', channel=9, note=38, velocity=90, time=21),
    Message('note_on', channel=9, note=38, velocity=0, time=19),
    Message('note_on', channel=9, note=40, velocity=90, time=11),
    Message('note_on', channel=9, note=40, velocity=0, time=19),
    Message('note_on', channel=9, note=38, velocity=90, time=11),
    Message('note_on', channel=9, note=57, velocity=90, time=0),
    Message('note_on', channel=9, note=38, velocity=0, time=39),
    Message('note_on', channel=9, note=57, velocity=0, time=0),
    Message('note_on', channel=9, note=38, velocity=90, time=21),
    Message('note_on', channel=9, note=38, velocity=0, time=19),
    Message('note_on', channel=9, note=38, velocity=90, time=11),
    Message('note_on', channel=9, note=38, velocity=0, time=19),
    Message('note_on', channel=9, note=57, velocity=90, time=11),
    Message('note_on', channel=9, note=35, velocity=90, time=0),
    Message('note_on', channel=9, note=57, velocity=0, time=39),
    Message('note_on', channel=9, note=35, velocity=0, time=0),
    Message('note_on', channel=9, note=57, velocity=90, time=21),
    Message('note_on', channel=9, note=35, velocity=90, time=0),
    Message('note_on', channel=9, note=57, velocity=0, time=39),
    Message('note_on', channel=9, note=35, velocity=0, time=0),
    Message('note_on', channel=9, note=57, velocity=90, time=21),
    Message('note_on', channel=9, note=35, velocity=90, time=0),
    Message('note_on', channel=9, note=38, velocity=90, time=0),
    Message('note_on', channel=9, note=38, velocity=0, time=19),
    Message('note_on', channel=9, note=57, velocity=0, time=20),
    Message('note_on', channel=9, note=35, velocity=0, time=0),
    Message('note_on', channel=9, note=57, velocity=90, time=21),
    Message('note_on', channel=9, note=35, velocity=90, time=0),
    Message('note_on', channel=9, note=38, velocity=90, time=0),
    Message('note_on', channel=9, note=57, velocity=0, time=19),
    Message('note_on', channel=9, note=35, velocity=0, time=0),
    Message('note_on', channel=9, note=38, velocity=0, time=0),
    Message('note_on', channel=9, note=38, velocity=90, time=11),
    Message('note_on', channel=9, note=57, velocity=90, time=0),
    Message('note_on', channel=9, note=35, velocity=90, time=0),
    Message('note_on', channel=9, note=38, velocity=0, time=19),
    Message('note_on', channel=9, note=57, velocity=0, time=0),
    Message('note_on', channel=9, note=35, velocity=0, time=0),
    Message('note_on', channel=9, note=57, velocity=90, time=11),
    Message('note_on', channel=9, note=35, velocity=90, time=0),
    Message('note_on', channel=9, note=38, velocity=90, time=0),
    Message('note_on', channel=9, note=38, velocity=0, time=19),
    Message('note_on', channel=9, note=57, velocity=0, time=20),
    Message('note_on', channel=9, note=35, velocity=0, time=0),
    Message('note_on', channel=9, note=57, velocity=90, time=21),
    Message('note_on', channel=9, note=35, velocity=90, time=0),
    Message('note_on', channel=9, note=38, velocity=90, time=0),
    Message('note_on', channel=9, note=57, velocity=0, time=19),
    Message('note_on', channel=9, note=35, velocity=0, time=0),
    Message('note_on', channel=9, note=38, velocity=0, time=0),
    Message('note_on', channel=9, note=57, velocity=90, time=11),
    Message('note_on', channel=9, note=57, velocity=90, time=0),
    Message('note_on', channel=9, note=35, velocity=90, time=0),
    Message('note_on', channel=9, note=38, velocity=90, time=0),
    Message('note_on', channel=9, note=57, velocity=0, time=19),
    Message('note_on', channel=9, note=35, velocity=0, time=0),
    Message('note_on', channel=9, note=38, velocity=0, time=0),
    Message('note_on', channel=9, note=57, velocity=90, time=11),
    Message('note_on', channel=9, note=35, velocity=90, time=0),
    Message('note_on', channel=9, note=38, velocity=90, time=0),
    Message('note_on', channel=9, note=57, velocity=0, time=9),
    Message('note_on', channel=9, note=38, velocity=0, time=10),
    Message('note_on', channel=9, note=57, velocity=0, time=20),
    Message('note_on', channel=9, note=35, velocity=0, time=0),
    Message('note_on', channel=9, note=57, velocity=90, time=81),
    Message('note_on', channel=9, note=35, velocity=90, time=0),
    Message('note_on', channel=9, note=57, velocity=0, time=39),
    Message('note_on', channel=9, note=35, velocity=0, time=0),
    Message('note_on', channel=9, note=35, velocity=90, time=21),
    Message('note_on', channel=9, note=57, velocity=90, time=0),
    Message('note_on', channel=9, note=35, velocity=0, time=39),
    Message('note_on', channel=9, note=57, velocity=0, time=0),
    Message('note_on', channel=9, note=57, velocity=90, time=21),
    Message('note_on', channel=9, note=35, velocity=90, time=0),
    Message('note_on', channel=9, note=38, velocity=90, time=0),
    Message('note_on', channel=9, note=38, velocity=0, time=19),
    Message('note_on', channel=9, note=57, velocity=0, time=20),
    Message('note_on', channel=9, note=35, velocity=0, time=0),
    Message('note_on', channel=9, note=57, velocity=90, time=21),
    Message('note_on', channel=9, note=38, velocity=90, time=0),
    Message('note_on', channel=9, note=35, velocity=90, time=0),
    Message('note_on', channel=9, note=57, velocity=0, time=19),
    Message('note_on', channel=9, note=38, velocity=0, time=0),
    Message('note_on', channel=9, note=35, velocity=0, time=0),
    Message('note_on', channel=9, note=57, velocity=90, time=11),
    Message('note_on', channel=9, note=35, velocity=90, time=0),
    Message('note_on', channel=9, note=38, velocity=90, time=0),
    Message('note_on', channel=9, note=57, velocity=0, time=19),
    Message('note_on', channel=9, note=35, velocity=0, time=0),
    Message('note_on', channel=9, note=38, velocity=0, time=0),
    Message('note_on', channel=9, note=35, velocity=90, time=11),
    Message('note_on', channel=9, note=57, velocity=90, time=0),
    Message('note_on', channel=9, note=38, velocity=90, time=0),
    Message('note_on', channel=9, note=38, velocity=0, time=19),
    Message('note_on', channel=9, note=35, velocity=0, time=20),
    Message('note_on', channel=9, note=57, velocity=0, time=0),
    Message('note_on', channel=9, note=35, velocity=90, time=21),
    Message('note_on', channel=9, note=57, velocity=90, time=0),
    Message('note_on', channel=9, note=38, velocity=90, time=0),
    Message('note_on', channel=9, note=35, velocity=0, time=19),
    Message('note_on', channel=9, note=57, velocity=0, time=0),
    Message('note_on', channel=9, note=38, velocity=0, time=0),
    Message('note_on', channel=9, note=35, velocity=90, time=11),
    Message('note_on', channel=9, note=57, velocity=90, time=0),
    Message('note_on', channel=9, note=57, velocity=90, time=0),
    Message('note_on', channel=9, note=38, velocity=90, time=0),
    Message('note_on', channel=9, note=35, velocity=0, time=19),
    Message('note_on', channel=9, note=57, velocity=0, time=0),
    Message('note_on', channel=9, note=38, velocity=0, time=0),
    Message('note_on', channel=9, note=35, velocity=90, time=11),
    Message('note_on', channel=9, note=57, velocity=90, time=0),
    Message('note_on', channel=9, note=38, velocity=90, time=0),
    Message('note_on', channel=9, note=57, velocity=0, time=9),
    Message('note_on', channel=9, note=38, velocity=0, time=10),
    Message('note_on', channel=9, note=35, velocity=0, time=20),
    Message('note_on', channel=9, note=57, velocity=0, time=0),
    Message('note_on', channel=9, note=35, velocity=90, time=21),
    Message('note_on', channel=9, note=57, velocity=90, time=0),
    Message('note_on', channel=9, note=38, velocity=90, time=0),
    Message('note_on', channel=9, note=35, velocity=0, time=39),
    Message('note_on', channel=9, note=57, velocity=0, time=0),
    Message('note_on', channel=9, note=38, velocity=0, time=0),
    Message('note_on', channel=9, note=41, velocity=90, time=21),
    Message('note_on', channel=9, note=45, velocity=90, time=0),
    Message('note_on', channel=9, note=54, velocity=90, time=0),
    Message('note_on', channel=9, note=41, velocity=0, time=39),
    Message('note_on', channel=9, note=45, velocity=0, time=0),
    Message('note_on', channel=9, note=54, velocity=0, time=0),
    Message('note_on', channel=9, note=54, velocity=90, time=21),
    Message('note_on', channel=9, note=54, velocity=0, time=39),
    Message('note_on', channel=9, note=54, velocity=90, time=21),
    Message('note_on', channel=9, note=40, velocity=90, time=0),
    Message('note_on', channel=9, note=54, velocity=0, time=39),
    Message('note_on', channel=9, note=40, velocity=0, time=0),
    Message('note_on', channel=9, note=54, velocity=90, time=21),
    Message('note_on', channel=9, note=54, velocity=0, time=39),
    Message('note_on', channel=9, note=54, velocity=90, time=21),
    Message('note_on', channel=9, note=54, velocity=0, time=39),
    Message('note_on', channel=9, note=54, velocity=90, time=21),
    Message('note_on', channel=9, note=54, velocity=0, time=39),
    Message('note_on', channel=9, note=40, velocity=90, time=21),
    Message('note_on', channel=9, note=54, velocity=90, time=0),
    Message('note_on', channel=9, note=40, velocity=0, time=39),
    Message('note_on', channel=9, note=54, velocity=0, time=0),
    Message('note_on', channel=9, note=54, velocity=90, time=21),
    Message('note_on', channel=9, note=54, velocity=0, time=39),
    Message('note_on', channel=9, note=41, velocity=90, time=21),
    Message('note_on', channel=9, note=45, velocity=90, time=0),
    Message('note_on', channel=9, note=54, velocity=90, time=0),
    Message('note_on', channel=9, note=41, velocity=0, time=39),
    Message('note_on', channel=9, note=45, velocity=0, time=0),
    Message('note_on', channel=9, note=54, velocity=0, time=0),
    Message('note_on', channel=9, note=54, velocity=90, time=21),
    Message('note_on', channel=9, note=54, velocity=0, time=39),
    Message('note_on', channel=9, note=54, velocity=90, time=21),
    Message('note_on', channel=9, note=40, velocity=90, time=0),
    Message('note_on', channel=9, note=54, velocity=0, time=39),
    Message('note_on', channel=9, note=40, velocity=0, time=0),
    Message('note_on', channel=9, note=54, velocity=90, time=21),
    Message('note_on', channel=9, note=54, velocity=0, time=39),
    Message('note_on', channel=9, note=54, velocity=90, time=21),
    Message('note_on', channel=9, note=54, velocity=0, time=39),
    Message('note_on', channel=9, note=54, velocity=90, time=21),
    Message('note_on', channel=9, note=54, velocity=0, time=39),
    Message('note_on', channel=9, note=54, velocity=90, time=21),
    Message('note_on', channel=9, note=40, velocity=90, time=0),
    Message('note_on', channel=9, note=54, velocity=0, time=39),
    Message('note_on', channel=9, note=40, velocity=0, time=0),
    Message('note_on', channel=9, note=54, velocity=90, time=21),
    Message('note_on', channel=9, note=54, velocity=0, time=39),
    Message('note_on', channel=9, note=41, velocity=90, time=21),
    Message('note_on', channel=9, note=45, velocity=90, time=0),
    Message('note_on', channel=9, note=54, velocity=90, time=0),
    Message('note_on', channel=9, note=41, velocity=0, time=39),
    Message('note_on', channel=9, note=45, velocity=0, time=0),
    Message('note_on', channel=9, note=54, velocity=0, time=0),
    Message('note_on', channel=9, note=54, velocity=90, time=21),
    Message('note_on', channel=9, note=54, velocity=0, time=39),
    Message('note_on', channel=9, note=54, velocity=90, time=21),
    Message('note_on', channel=9, note=40, velocity=90, time=0),
    Message('note_on', channel=9, note=54, velocity=0, time=39),
    Message('note_on', channel=9, note=40, velocity=0, time=0),
    Message('note_on', channel=9, note=54, velocity=90, time=21),
    Message('note_on', channel=9, note=54, velocity=0, time=39),
    Message('note_on', channel=9, note=54, velocity=90, time=21),
    Message('note_on', channel=9, note=54, velocity=0, time=39),
    Message('note_on', channel=9, note=54, velocity=90, time=21),
    Message('note_on', channel=9, note=54, velocity=0, time=39),
    Message('note_on', channel=9, note=40, velocity=90, time=21),
    Message('note_on', channel=9, note=54, velocity=90, time=0),
    Message('note_on', channel=9, note=40, velocity=0, time=39),
    Message('note_on', channel=9, note=54, velocity=0, time=0),
    Message('note_on', channel=9, note=54, velocity=90, time=21),
    Message('note_on', channel=9, note=54, velocity=0, time=39),
    Message('note_on', channel=9, note=41, velocity=90, time=21),
    Message('note_on', channel=9, note=45, velocity=90, time=0),
    Message('note_on', channel=9, note=54, velocity=90, time=0),
    Message('note_on', channel=9, note=41, velocity=0, time=39),
    Message('note_on', channel=9, note=45, velocity=0, time=0),
    Message('note_on', channel=9, note=54, velocity=0, time=0),
    Message('note_on', channel=9, note=54, velocity=90, time=21),
    Message('note_on', channel=9, note=54, velocity=0, time=39),
    Message('note_on', channel=9, note=54, velocity=90, time=21),
    Message('note_on', channel=9, note=40, velocity=90, time=0),
    Message('note_on', channel=9, note=54, velocity=0, time=39),
    Message('note_on', channel=9, note=40, velocity=0, time=0),
    Message('note_on', channel=9, note=54, velocity=90, time=21),
    Message('note_on', channel=9, note=54, velocity=0, time=39),
    Message('note_on', channel=9, note=54, velocity=90, time=21),
    Message('note_on', channel=9, note=54, velocity=0, time=39),
    Message('note_on', channel=9, note=54, velocity=90, time=21),
    Message('note_on', channel=9, note=54, velocity=0, time=39),
    Message('note_on', channel=9, note=40, velocity=90, time=21),
    Message('note_on', channel=9, note=54, velocity=90, time=0),
    Message('note_on', channel=9, note=40, velocity=0, time=39),
    Message('note_on', channel=9, note=54, velocity=0, time=0),
    Message('note_on', channel=9, note=54, velocity=90, time=21),
    Message('note_on', channel=9, note=54, velocity=0, time=39),
    Message('note_on', channel=9, note=41, velocity=90, time=21),
    Message('note_on', channel=9, note=45, velocity=90, time=0),
    Message('note_on', channel=9, note=54, velocity=90, time=0),
    Message('note_on', channel=9, note=41, velocity=0, time=39),
    Message('note_on', channel=9, note=45, velocity=0, time=0),
    Message('note_on', channel=9, note=54, velocity=0, time=0),
    Message('note_on', channel=9, note=54, velocity=90, time=21),
    Message('note_on', channel=9, note=54, velocity=0, time=39),
    Message('note_on', channel=9, note=54, velocity=90, time=21),
    Message('note_on', channel=9, note=40, velocity=90, time=0),
    Message('note_on', channel=9, note=54, velocity=0, time=39),
    Message('note_on', channel=9, note=40, velocity=0, time=0),
    Message('note_on', channel=9, note=54, velocity=90, time=21),
    Message('note_on', channel=9, note=54, velocity=0, time=39),
    Message('note_on', channel=9, note=54, velocity=90, time=21),
    Message('note_on', channel=9, note=54, velocity=0, time=39),
    Message('note_on', channel=9, note=54, velocity=90, time=21),
    Message('note_on', channel=9, note=54, velocity=0, time=39),
    Message('note_on', channel=9, note=54, velocity=90, time=21),
    Message('note_on', channel=9, note=40, velocity=90, time=0),
    Message('note_on', channel=9, note=54, velocity=0, time=39),
    Message('note_on', channel=9, note=40, velocity=0, time=0),
    Message('note_on', channel=9, note=54, velocity=90, time=21),
    Message('note_on', channel=9, note=54, velocity=0, time=39),
    Message('note_on', channel=9, note=45, velocity=90, time=21),
    Message('note_on', channel=9, note=54, velocity=90, time=0),
    Message('note_on', channel=9, note=41, velocity=90, time=0),
    Message('note_on', channel=9, note=45, velocity=0, time=39),
    Message('note_on', channel=9, note=54, velocity=0, time=0),
    Message('note_on', channel=9, note=41, velocity=0, time=0),
    Message('note_on', channel=9, note=54, velocity=90, time=21),
    Message('note_on', channel=9, note=54, velocity=0, time=39),
    Message('note_on', channel=9, note=54, velocity=90, time=21),
    Message('note_on', channel=9, note=40, velocity=90, time=0),
    Message('note_on', channel=9, note=54, velocity=0, time=39),
    Message('note_on', channel=9, note=40, velocity=0, time=0),
    Message('note_on', channel=9, note=54, velocity=90, time=21),
    Message('note_on', channel=9, note=54, velocity=0, time=39),
    Message('note_on', channel=9, note=54, velocity=90, time=21),
    Message('note_on', channel=9, note=54, velocity=0, time=39),
    Message('note_on', channel=9, note=54, velocity=90, time=21),
    Message('note_on', channel=9, note=54, velocity=0, time=39),
    Message('note_on', channel=9, note=40, velocity=90, time=21),
    Message('note_on', channel=9, note=54, velocity=90, time=0),
    Message('note_on', channel=9, note=40, velocity=0, time=39),
    Message('note_on', channel=9, note=54, velocity=0, time=0),
    Message('note_on', channel=9, note=54, velocity=90, time=21),
    Message('note_on', channel=9, note=54, velocity=0, time=39),
    Message('note_on', channel=9, note=54, velocity=90, time=21),
    Message('note_on', channel=9, note=45, velocity=90, time=0),
    Message('note_on', channel=9, note=41, velocity=90, time=0),
    Message('note_on', channel=9, note=54, velocity=0, time=39),
    Message('note_on', channel=9, note=45, velocity=0, time=0),
    Message('note_on', channel=9, note=41, velocity=0, time=0),
    Message('note_on', channel=9, note=54, velocity=90, time=21),
    Message('note_on', channel=9, note=54, velocity=0, time=39),
    Message('note_on', channel=9, note=54, velocity=90, time=21),
    Message('note_on', channel=9, note=40, velocity=90, time=0),
    Message('note_on', channel=9, note=54, velocity=0, time=39),
    Message('note_on', channel=9, note=40, velocity=0, time=0),
    Message('note_on', channel=9, note=54, velocity=90, time=21),
    Message('note_on', channel=9, note=54, velocity=0, time=39),
    Message('note_on', channel=9, note=54, velocity=90, time=21),
    Message('note_on', channel=9, note=54, velocity=0, time=39),
    Message('note_on', channel=9, note=54, velocity=90, time=21),
    Message('note_on', channel=9, note=54, velocity=0, time=39),
    Message('note_on', channel=9, note=40, velocity=90, time=21),
    Message('note_on', channel=9, note=54, velocity=90, time=0),
    Message('note_on', channel=9, note=40, velocity=0, time=39),
    Message('note_on', channel=9, note=54, velocity=0, time=0),
    Message('note_on', channel=9, note=54, velocity=90, time=21),
    Message('note_on', channel=9, note=54, velocity=0, time=39),
    Message('note_on', channel=9, note=41, velocity=90, time=21),
    Message('note_on', channel=9, note=45, velocity=90, time=0),
    Message('note_on', channel=9, note=54, velocity=90, time=0),
    Message('note_on', channel=9, note=41, velocity=0, time=39),
    Message('note_on', channel=9, note=45, velocity=0, time=0),
    Message('note_on', channel=9, note=54, velocity=0, time=0),
    Message('note_on', channel=9, note=54, velocity=90, time=21),
    Message('note_on', channel=9, note=54, velocity=0, time=39),
    Message('note_on', channel=9, note=40, velocity=90, time=21),
    Message('note_on', channel=9, note=54, velocity=90, time=0),
    Message('note_on', channel=9, note=40, velocity=0, time=39),
    Message('note_on', channel=9, note=54, velocity=0, time=0),
    Message('note_on', channel=9, note=54, velocity=90, time=21),
    Message('note_on', channel=9, note=54, velocity=0, time=39),
    Message('note_on', channel=9, note=54, velocity=90, time=21),
    Message('note_on', channel=9, note=54, velocity=0, time=39),
    Message('note_on', channel=9, note=54, velocity=90, time=21),
    Message('note_on', channel=9, note=54, velocity=0, time=39),
    Message('note_on', channel=9, note=40, velocity=90, time=21),
    Message('note_on', channel=9, note=54, velocity=90, time=0),
    Message('note_on', channel=9, note=40, velocity=0, time=39),
    Message('note_on', channel=9, note=54, velocity=0, time=0),
    Message('note_on', channel=9, note=54, velocity=90, time=21),
    Message('note_on', channel=9, note=54, velocity=0, time=39),
    Message('note_on', channel=9, note=45, velocity=90, time=21),
    Message('note_on', channel=9, note=54, velocity=90, time=0),
    Message('note_on', channel=9, note=41, velocity=90, time=0),
    Message('note_on', channel=9, note=45, velocity=0, time=39),
    Message('note_on', channel=9, note=54, velocity=0, time=0),
    Message('note_on', channel=9, note=41, velocity=0, time=0),
    Message('note_on', channel=9, note=54, velocity=90, time=21),
    Message('note_on', channel=9, note=54, velocity=0, time=39),
    Message('note_on', channel=9, note=54, velocity=90, time=21),
    Message('note_on', channel=9, note=40, velocity=90, time=0),
    Message('note_on', channel=9, note=54, velocity=0, time=39),
    Message('note_on', channel=9, note=40, velocity=0, time=0),
    Message('note_on', channel=9, note=54, velocity=90, time=21),
    Message('note_on', channel=9, note=54, velocity=0, time=39),
    Message('note_on', channel=9, note=54, velocity=90, time=21),
    Message('note_on', channel=9, note=54, velocity=0, time=39),
    Message('note_on', channel=9, note=54, velocity=90, time=21),
    Message('note_on', channel=9, note=54, velocity=0, time=39),
    Message('note_on', channel=9, note=54, velocity=90, time=21),
    Message('note_on', channel=9, note=40, velocity=90, time=0),
    Message('note_on', channel=9, note=54, velocity=0, time=39),
    Message('note_on', channel=9, note=40, velocity=0, time=0),
    Message('note_on', channel=9, note=54, velocity=90, time=21),
    Message('note_on', channel=9, note=54, velocity=0, time=39),
    Message('note_on', channel=9, note=41, velocity=90, time=21),
    Message('note_on', channel=9, note=45, velocity=90, time=0),
    Message('note_on', channel=9, note=54, velocity=90, time=0),
    Message('note_on', channel=9, note=41, velocity=0, time=39),
    Message('note_on', channel=9, note=45, velocity=0, time=0),
    Message('note_on', channel=9, note=54, velocity=0, time=0),
    Message('note_on', channel=9, note=54, velocity=90, time=21),
    Message('note_on', channel=9, note=54, velocity=0, time=39),
    Message('note_on', channel=9, note=40, velocity=90, time=21),
    Message('note_on', channel=9, note=54, velocity=90, time=0),
    Message('note_on', channel=9, note=40, velocity=0, time=39),
    Message('note_on', channel=9, note=54, velocity=0, time=0),
    Message('note_on', channel=9, note=54, velocity=90, time=21),
    Message('note_on', channel=9, note=54, velocity=0, time=39),
    Message('note_on', channel=9, note=54, velocity=90, time=21),
    Message('note_on', channel=9, note=54, velocity=0, time=39),
    Message('note_on', channel=9, note=54, velocity=90, time=21),
    Message('note_on', channel=9, note=54, velocity=0, time=39),
    Message('note_on', channel=9, note=54, velocity=90, time=21),
    Message('note_on', channel=9, note=40, velocity=90, time=0),
    Message('note_on', channel=9, note=54, velocity=0, time=39),
    Message('note_on', channel=9, note=40, velocity=0, time=0),
    Message('note_on', channel=9, note=54, velocity=90, time=21),
    Message('note_on', channel=9, note=54, velocity=0, time=39),
    Message('note_on', channel=9, note=41, velocity=90, time=21),
    Message('note_on', channel=9, note=54, velocity=90, time=0),
    Message('note_on', channel=9, note=45, velocity=90, time=0),
    Message('note_on', channel=9, note=41, velocity=0, time=39),
    Message('note_on', channel=9, note=54, velocity=0, time=0),
    Message('note_on', channel=9, note=45, velocity=0, time=0),
    Message('note_on', channel=9, note=54, velocity=90, time=21),
    Message('note_on', channel=9, note=54, velocity=0, time=39),
    Message('note_on', channel=9, note=54, velocity=90, time=21),
    Message('note_on', channel=9, note=40, velocity=90, time=0),
    Message('note_on', channel=9, note=54, velocity=0, time=39),
    Message('note_on', channel=9, note=40, velocity=0, time=0),
    Message('note_on', channel=9, note=54, velocity=90, time=21),
    Message('note_on', channel=9, note=54, velocity=0, time=39),
    Message('note_on', channel=9, note=54, velocity=90, time=21),
    Message('note_on', channel=9, note=54, velocity=0, time=39),
    Message('note_on', channel=9, note=54, velocity=90, time=21),
    Message('note_on', channel=9, note=54, velocity=0, time=39),
    Message('note_on', channel=9, note=54, velocity=90, time=21),
    Message('note_on', channel=9, note=40, velocity=90, time=0),
    Message('note_on', channel=9, note=54, velocity=0, time=39),
    Message('note_on', channel=9, note=40, velocity=0, time=0),
    Message('note_on', channel=9, note=54, velocity=90, time=21),
    Message('note_on', channel=9, note=54, velocity=0, time=39),
    Message('note_on', channel=9, note=41, velocity=90, time=21),
    Message('note_on', channel=9, note=54, velocity=90, time=0),
    Message('note_on', channel=9, note=45, velocity=90, time=0),
    Message('note_on', channel=9, note=41, velocity=0, time=39),
    Message('note_on', channel=9, note=54, velocity=0, time=0),
    Message('note_on', channel=9, note=45, velocity=0, time=0),
    Message('note_on', channel=9, note=54, velocity=90, time=21),
    Message('note_on', channel=9, note=54, velocity=0, time=39),
    Message('note_on', channel=9, note=40, velocity=90, time=21),
    Message('note_on', channel=9, note=54, velocity=90, time=0),
    Message('note_on', channel=9, note=40, velocity=0, time=39),
    Message('note_on', channel=9, note=54, velocity=0, time=0),
    Message('note_on', channel=9, note=54, velocity=90, time=21),
    Message('note_on', channel=9, note=54, velocity=0, time=39),
    Message('note_on', channel=9, note=54, velocity=90, time=21),
    Message('note_on', channel=9, note=54, velocity=0, time=39),
    Message('note_on', channel=9, note=54, velocity=90, time=21),
    Message('note_on', channel=9, note=54, velocity=0, time=39),
    Message('note_on', channel=9, note=40, velocity=90, time=21),
    Message('note_on', channel=9, note=54, velocity=90, time=0),
    Message('note_on', channel=9, note=40, velocity=0, time=39),
    Message('note_on', channel=9, note=54, velocity=0, time=0),
    Message('note_on', channel=9, note=54, velocity=90, time=21),
    Message('note_on', channel=9, note=54, velocity=0, time=39),
    Message('note_on', channel=9, note=54, velocity=90, time=21),
    Message('note_on', channel=9, note=45, velocity=90, time=0),
    Message('note_on', channel=9, note=41, velocity=90, time=0),
    Message('note_on', channel=9, note=54, velocity=0, time=39),
    Message('note_on', channel=9, note=45, velocity=0, time=0),
    Message('note_on', channel=9, note=41, velocity=0, time=0),
    Message('note_on', channel=9, note=54, velocity=90, time=21),
    Message('note_on', channel=9, note=54, velocity=0, time=39),
    Message('note_on', channel=9, note=54, velocity=90, time=21),
    Message('note_on', channel=9, note=40, velocity=90, time=0),
    Message('note_on', channel=9, note=54, velocity=0, time=39),
    Message('note_on', channel=9, note=40, velocity=0, time=0),
    Message('note_on', channel=9, note=54, velocity=90, time=21),
    Message('note_on', channel=9, note=54, velocity=0, time=39),
    Message('note_on', channel=9, note=54, velocity=90, time=21),
    Message('note_on', channel=9, note=54, velocity=0, time=39),
    Message('note_on', channel=9, note=54, velocity=90, time=21),
    Message('note_on', channel=9, note=54, velocity=0, time=39),
    Message('note_on', channel=9, note=40, velocity=90, time=21),
    Message('note_on', channel=9, note=54, velocity=90, time=0),
    Message('note_on', channel=9, note=40, velocity=0, time=39),
    Message('note_on', channel=9, note=54, velocity=0, time=0),
    Message('note_on', channel=9, note=54, velocity=90, time=21),
    Message('note_on', channel=9, note=54, velocity=0, time=39),
    Message('note_on', channel=9, note=54, velocity=90, time=21),
    Message('note_on', channel=9, note=41, velocity=90, time=0),
    Message('note_on', channel=9, note=45, velocity=90, time=0),
    Message('note_on', channel=9, note=54, velocity=0, time=39),
    Message('note_on', channel=9, note=41, velocity=0, time=0),
    Message('note_on', channel=9, note=45, velocity=0, time=0),
    Message('note_on', channel=9, note=54, velocity=90, time=21),
    Message('note_on', channel=9, note=54, velocity=0, time=39),
    Message('note_on', channel=9, note=40, velocity=90, time=21),
    Message('note_on', channel=9, note=54, velocity=90, time=0),
    Message('note_on', channel=9, note=40, velocity=0, time=39),
    Message('note_on', channel=9, note=54, velocity=0, time=0),
    Message('note_on', channel=9, note=54, velocity=90, time=21),
    Message('note_on', channel=9, note=54, velocity=0, time=39),
    Message('note_on', channel=9, note=54, velocity=90, time=21),
    Message('note_on', channel=9, note=54, velocity=0, time=39),
    Message('note_on', channel=9, note=54, velocity=90, time=21),
    Message('note_on', channel=9, note=54, velocity=0, time=39),
    Message('note_on', channel=9, note=40, velocity=90, time=21),
    Message('note_on', channel=9, note=54, velocity=90, time=0),
    Message('note_on', channel=9, note=40, velocity=0, time=39),
    Message('note_on', channel=9, note=54, velocity=0, time=0),
    Message('note_on', channel=9, note=54, velocity=90, time=21),
    Message('note_on', channel=9, note=54, velocity=0, time=39),
    Message('note_on', channel=9, note=41, velocity=90, time=21),
    Message('note_on', channel=9, note=54, velocity=90, time=0),
    Message('note_on', channel=9, note=45, velocity=90, time=0),
    Message('note_on', channel=9, note=41, velocity=0, time=39),
    Message('note_on', channel=9, note=54, velocity=0, time=0),
    Message('note_on', channel=9, note=45, velocity=0, time=0),
    Message('note_on', channel=9, note=54, velocity=90, time=21),
    Message('note_on', channel=9, note=54, velocity=0, time=39),
    Message('note_on', channel=9, note=40, velocity=90, time=21),
    Message('note_on', channel=9, note=54, velocity=90, time=0),
    Message('note_on', channel=9, note=40, velocity=0, time=39),
    Message('note_on', channel=9, note=54, velocity=0, time=0),
    Message('note_on', channel=9, note=54, velocity=90, time=21),
    Message('note_on', channel=9, note=54, velocity=0, time=39),
    Message('note_on', channel=9, note=54, velocity=90, time=21),
    Message('note_on', channel=9, note=54, velocity=0, time=39),
    Message('note_on', channel=9, note=54, velocity=90, time=21),
    Message('note_on', channel=9, note=54, velocity=0, time=39),
    Message('note_on', channel=9, note=40, velocity=90, time=21),
    Message('note_on', channel=9, note=54, velocity=90, time=0),
    Message('note_on', channel=9, note=40, velocity=0, time=39),
    Message('note_on', channel=9, note=54, velocity=0, time=0),
    Message('note_on', channel=9, note=54, velocity=90, time=21),
    Message('note_on', channel=9, note=54, velocity=0, time=39),
    Message('note_on', channel=9, note=54, velocity=90, time=21),
    Message('note_on', channel=9, note=45, velocity=90, time=0),
    Message('note_on', channel=9, note=41, velocity=90, time=0),
    Message('note_on', channel=9, note=54, velocity=0, time=39),
    Message('note_on', channel=9, note=45, velocity=0, time=0),
    Message('note_on', channel=9, note=41, velocity=0, time=0),
    Message('note_on', channel=9, note=54, velocity=90, time=21),
    Message('note_on', channel=9, note=54, velocity=0, time=39),
    Message('note_on', channel=9, note=54, velocity=90, time=21),
    Message('note_on', channel=9, note=40, velocity=90, time=0),
    Message('note_on', channel=9, note=54, velocity=0, time=39),
    Message('note_on', channel=9, note=40, velocity=0, time=0),
    Message('note_on', channel=9, note=54, velocity=90, time=21),
    Message('note_on', channel=9, note=54, velocity=0, time=39),
    Message('note_on', channel=9, note=54, velocity=90, time=21),
    Message('note_on', channel=9, note=54, velocity=0, time=39),
    Message('note_on', channel=9, note=54, velocity=90, time=21),
    Message('note_on', channel=9, note=54, velocity=0, time=39),
    Message('note_on', channel=9, note=40, velocity=90, time=21),
    Message('note_on', channel=9, note=54, velocity=90, time=0),
    Message('note_on', channel=9, note=40, velocity=0, time=39),
    Message('note_on', channel=9, note=54, velocity=0, time=0),
    Message('note_on', channel=9, note=54, velocity=90, time=21),
    Message('note_on', channel=9, note=54, velocity=0, time=39),
    Message('note_on', channel=9, note=54, velocity=90, time=21),
    Message('note_on', channel=9, note=41, velocity=90, time=0),
    Message('note_on', channel=9, note=45, velocity=90, time=0),
    Message('note_on', channel=9, note=54, velocity=0, time=39),
    Message('note_on', channel=9, note=41, velocity=0, time=0),
    Message('note_on', channel=9, note=45, velocity=0, time=0),
    Message('note_on', channel=9, note=54, velocity=90, time=21),
    Message('note_on', channel=9, note=54, velocity=0, time=39),
    Message('note_on', channel=9, note=54, velocity=90, time=21),
    Message('note_on', channel=9, note=40, velocity=90, time=0),
    Message('note_on', channel=9, note=54, velocity=0, time=39),
    Message('note_on', channel=9, note=40, velocity=0, time=0),
    Message('note_on', channel=9, note=54, velocity=90, time=21),
    Message('note_on', channel=9, note=54, velocity=0, time=39),
    Message('note_on', channel=9, note=54, velocity=90, time=21),
    Message('note_on', channel=9, note=54, velocity=0, time=39),
    Message('note_on', channel=9, note=54, velocity=90, time=21),
    Message('note_on', channel=9, note=54, velocity=0, time=39),
    Message('note_on', channel=9, note=40, velocity=90, time=21),
    Message('note_on', channel=9, note=54, velocity=90, time=0),
    Message('note_on', channel=9, note=40, velocity=0, time=39),
    Message('note_on', channel=9, note=54, velocity=0, time=0),
    Message('note_on', channel=9, note=54, velocity=90, time=21),
    Message('note_on', channel=9, note=54, velocity=0, time=39),
    Message('note_on', channel=9, note=45, velocity=90, time=21),
    Message('note_on', channel=9, note=41, velocity=90, time=0),
    Message('note_on', channel=9, note=54, velocity=90, time=0),
    Message('note_on', channel=9, note=45, velocity=0, time=39),
    Message('note_on', channel=9, note=41, velocity=0, time=0),
    Message('note_on', channel=9, note=54, velocity=0, time=0),
    Message('note_on', channel=9, note=54, velocity=90, time=21),
    Message('note_on', channel=9, note=54, velocity=0, time=39),
    Message('note_on', channel=9, note=54, velocity=90, time=21),
    Message('note_on', channel=9, note=40, velocity=90, time=0),
    Message('note_on', channel=9, note=54, velocity=0, time=39),
    Message('note_on', channel=9, note=40, velocity=0, time=0),
    Message('note_on', channel=9, note=54, velocity=90, time=21),
    Message('note_on', channel=9, note=54, velocity=0, time=39),
    Message('note_on', channel=9, note=54, velocity=90, time=21),
    Message('note_on', channel=9, note=54, velocity=0, time=39),
    Message('note_on', channel=9, note=54, velocity=90, time=21),
    Message('note_on', channel=9, note=54, velocity=0, time=39),
    Message('note_on', channel=9, note=40, velocity=90, time=21),
    Message('note_on', channel=9, note=54, velocity=90, time=0),
    Message('note_on', channel=9, note=40, velocity=0, time=39),
    Message('note_on', channel=9, note=54, velocity=0, time=0),
    Message('note_on', channel=9, note=54, velocity=90, time=21),
    Message('note_on', channel=9, note=54, velocity=0, time=39),
    Message('note_on', channel=9, note=54, velocity=90, time=21),
    Message('note_on', channel=9, note=45, velocity=90, time=0),
    Message('note_on', channel=9, note=41, velocity=90, time=0),
    Message('note_on', channel=9, note=54, velocity=0, time=39),
    Message('note_on', channel=9, note=45, velocity=0, time=0),
    Message('note_on', channel=9, note=41, velocity=0, time=0),
    Message('note_on', channel=9, note=54, velocity=90, time=21),
    Message('note_on', channel=9, note=54, velocity=0, time=39),
    Message('note_on', channel=9, note=40, velocity=90, time=21),
    Message('note_on', channel=9, note=54, velocity=90, time=0),
    Message('note_on', channel=9, note=40, velocity=0, time=39),
    Message('note_on', channel=9, note=54, velocity=0, time=0),
    Message('note_on', channel=9, note=54, velocity=90, time=21),
    Message('note_on', channel=9, note=54, velocity=0, time=39),
    Message('note_on', channel=9, note=54, velocity=90, time=21),
    Message('note_on', channel=9, note=54, velocity=0, time=39),
    Message('note_on', channel=9, note=54, velocity=90, time=21),
    Message('note_on', channel=9, note=54, velocity=0, time=39),
    Message('note_on', channel=9, note=54, velocity=90, time=21),
    Message('note_on', channel=9, note=40, velocity=90, time=0),
    Message('note_on', channel=9, note=54, velocity=0, time=39),
    Message('note_on', channel=9, note=40, velocity=0, time=0),
    Message('note_on', channel=9, note=54, velocity=90, time=21),
    Message('note_on', channel=9, note=54, velocity=0, time=39),
    Message('note_on', channel=9, note=36, velocity=90, time=21),
    Message('note_on', channel=9, note=57, velocity=90, time=0),
    Message('note_on', channel=9, note=38, velocity=90, time=0),
    Message('note_on', channel=9, note=36, velocity=0, time=19),
    Message('note_on', channel=9, note=57, velocity=0, time=0),
    Message('note_on', channel=9, note=38, velocity=0, time=0),
    Message('note_on', channel=9, note=57, velocity=90, time=101),
    Message('note_on', channel=9, note=38, velocity=90, time=0),
    Message('note_on', channel=9, note=36, velocity=90, time=0),
    Message('note_on', channel=9, note=57, velocity=0, time=19),
    Message('note_on', channel=9, note=38, velocity=0, time=0),
    Message('note_on', channel=9, note=36, velocity=0, time=0),
    Message('note_on', channel=9, note=36, velocity=90, time=11),
    Message('note_on', channel=9, note=36, velocity=0, time=19),
    Message('note_on', channel=9, note=36, velocity=90, time=11),
    Message('note_on', channel=9, note=36, velocity=0, time=19),
    Message('note_on', channel=9, note=36, velocity=90, time=41),
    Message('note_on', channel=9, note=38, velocity=90, time=0),
    Message('note_on', channel=9, note=57, velocity=90, time=0),
    Message('note_on', channel=9, note=36, velocity=0, time=19),
    Message('note_on', channel=9, note=38, velocity=0, time=0),
    Message('note_on', channel=9, note=57, velocity=0, time=0),
    Message('note_on', channel=9, note=36, velocity=90, time=11),
    Message('note_on', channel=9, note=36, velocity=0, time=19),
    Message('note_on', channel=9, note=36, velocity=90, time=11),
    Message('note_on', channel=9, note=36, velocity=0, time=19),
    Message('note_on', channel=9, note=57, velocity=90, time=41),
    Message('note_on', channel=9, note=38, velocity=90, time=0),
    Message('note_on', channel=9, note=36, velocity=90, time=0),
    Message('note_on', channel=9, note=57, velocity=0, time=19),
    Message('note_on', channel=9, note=38, velocity=0, time=0),
    Message('note_on', channel=9, note=36, velocity=0, time=0),
    Message('note_on', channel=9, note=36, velocity=90, time=11),
    Message('note_on', channel=9, note=36, velocity=0, time=19),
    Message('note_on', channel=9, note=36, velocity=90, time=11),
    Message('note_on', channel=9, note=36, velocity=0, time=19),
    Message('note_on', channel=9, note=38, velocity=90, time=41),
    Message('note_on', channel=9, note=36, velocity=90, time=0),
    Message('note_on', channel=9, note=57, velocity=90, time=0),
    Message('note_on', channel=9, note=38, velocity=0, time=39),
    Message('note_on', channel=9, note=36, velocity=0, time=0),
    Message('note_on', channel=9, note=57, velocity=0, time=0),
    Message('note_on', channel=9, note=38, velocity=90, time=81),
    Message('note_on', channel=9, note=38, velocity=0, time=39),
    Message('note_on', channel=9, note=36, velocity=90, time=21),
    Message('note_on', channel=9, note=38, velocity=90, time=0),
    Message('note_on', channel=9, note=36, velocity=0, time=39),
    Message('note_on', channel=9, note=38, velocity=0, time=0),
    Message('note_on', channel=9, note=38, velocity=90, time=21),
    Message('note_on', channel=9, note=36, velocity=90, time=0),
    Message('note_on', channel=9, note=57, velocity=90, time=0),
    Message('note_on', channel=9, note=38, velocity=0, time=39),
    Message('note_on', channel=9, note=36, velocity=0, time=0),
    Message('note_on', channel=9, note=57, velocity=0, time=0),
    Message('note_on', channel=9, note=38, velocity=90, time=81),
    Message('note_on', channel=9, note=38, velocity=0, time=39),
    Message('note_on', channel=9, note=38, velocity=90, time=21),
    Message('note_on', channel=9, note=36, velocity=90, time=0),
    Message('note_on', channel=9, note=38, velocity=0, time=39),
    Message('note_on', channel=9, note=36, velocity=0, time=0),
    Message('note_on', channel=9, note=38, velocity=90, time=21),
    Message('note_on', channel=9, note=36, velocity=90, time=0),
    Message('note_on', channel=9, note=57, velocity=90, time=0),
    Message('note_on', channel=9, note=38, velocity=0, time=39),
    Message('note_on', channel=9, note=36, velocity=0, time=0),
    Message('note_on', channel=9, note=57, velocity=0, time=0),
    Message('note_on', channel=9, note=38, velocity=90, time=81),
    Message('note_on', channel=9, note=38, velocity=0, time=39),
    Message('note_on', channel=9, note=38, velocity=90, time=21),
    Message('note_on', channel=9, note=36, velocity=90, time=0),
    Message('note_on', channel=9, note=38, velocity=0, time=39),
    Message('note_on', channel=9, note=36, velocity=0, time=0),
    Message('note_on', channel=9, note=57, velocity=90, time=21),
    Message('note_on', channel=9, note=36, velocity=90, time=0),
    Message('note_on', channel=9, note=38, velocity=90, time=0),
    Message('note_on', channel=9, note=57, velocity=0, time=39),
    Message('note_on', channel=9, note=36, velocity=0, time=0),
    Message('note_on', channel=9, note=38, velocity=0, time=0),
    Message('note_on', channel=9, note=38, velocity=90, time=81),
    Message('note_on', channel=9, note=38, velocity=0, time=39),
    Message('note_on', channel=9, note=36, velocity=90, time=21),
    Message('note_on', channel=9, note=38, velocity=90, time=0),
    Message('note_on', channel=9, note=36, velocity=0, time=39),
    Message('note_on', channel=9, note=38, velocity=0, time=0),
    Message('note_on', channel=9, note=57, velocity=90, time=21),
    Message('note_on', channel=9, note=38, velocity=90, time=0),
    Message('note_on', channel=9, note=36, velocity=90, time=0),
    Message('note_on', channel=9, note=57, velocity=0, time=39),
    Message('note_on', channel=9, note=38, velocity=0, time=0),
    Message('note_on', channel=9, note=36, velocity=0, time=0),
    Message('note_on', channel=9, note=57, velocity=90, time=81),
    Message('note_on', channel=9, note=38, velocity=90, time=0),
    Message('note_on', channel=9, note=36, velocity=90, time=0),
    Message('note_on', channel=9, note=57, velocity=0, time=19),
    Message('note_on', channel=9, note=38, velocity=0, time=0),
    Message('note_on', channel=9, note=36, velocity=0, time=0),
    Message('note_on', channel=9, note=36, velocity=90, time=11),
    Message('note_on', channel=9, note=36, velocity=0, time=19),
    Message('note_on', channel=9, note=36, velocity=90, time=11),
    Message('note_on', channel=9, note=36, velocity=0, time=19),
    Message('note_on', channel=9, note=38, velocity=90, time=41),
    Message('note_on', channel=9, note=57, velocity=90, time=0),
    Message('note_on', channel=9, note=36, velocity=90, time=0),
    Message('note_on', channel=9, note=38, velocity=0, time=19),
    Message('note_on', channel=9, note=57, velocity=0, time=0),
    Message('note_on', channel=9, note=36, velocity=0, time=0),
    Message('note_on', channel=9, note=36, velocity=90, time=11),
    Message('note_on', channel=9, note=36, velocity=0, time=19),
    Message('note_on', channel=9, note=36, velocity=90, time=11),
    Message('note_on', channel=9, note=36, velocity=0, time=19),
    Message('note_on', channel=9, note=57, velocity=90, time=41),
    Message('note_on', channel=9, note=36, velocity=90, time=0),
    Message('note_on', channel=9, note=38, velocity=90, time=0),
    Message('note_on', channel=9, note=57, velocity=0, time=39),
    Message('note_on', channel=9, note=36, velocity=0, time=0),
    Message('note_on', channel=9, note=38, velocity=0, time=0),
    Message('note_on', channel=9, note=57, velocity=90, time=81),
    Message('note_on', channel=9, note=38, velocity=90, time=0),
    Message('note_on', channel=9, note=36, velocity=90, time=0),
    Message('note_on', channel=9, note=57, velocity=0, time=19),
    Message('note_on', channel=9, note=38, velocity=0, time=0),
    Message('note_on', channel=9, note=36, velocity=0, time=0),
    Message('note_on', channel=9, note=57, velocity=90, time=101),
    Message('note_on', channel=9, note=36, velocity=90, time=0),
    Message('note_on', channel=9, note=38, velocity=90, time=0),
    Message('note_on', channel=9, note=57, velocity=0, time=19),
    Message('note_on', channel=9, note=36, velocity=0, time=0),
    Message('note_on', channel=9, note=38, velocity=0, time=0),
    Message('note_on', channel=9, note=36, velocity=90, time=11),
    Message('note_on', channel=9, note=36, velocity=0, time=19),
    Message('note_on', channel=9, note=36, velocity=90, time=11),
    Message('note_on', channel=9, note=36, velocity=0, time=19),
    Message('note_on', channel=9, note=38, velocity=90, time=41),
    Message('note_on', channel=9, note=36, velocity=90, time=0),
    Message('note_on', channel=9, note=57, velocity=90, time=0),
    Message('note_on', channel=9, note=38, velocity=0, time=19),
    Message('note_on', channel=9, note=36, velocity=0, time=0),
    Message('note_on', channel=9, note=57, velocity=0, time=0),
    Message('note_on', channel=9, note=36, velocity=90, time=11),
    Message('note_on', channel=9, note=36, velocity=0, time=19),
    Message('note_on', channel=9, note=36, velocity=90, time=11),
    Message('note_on', channel=9, note=36, velocity=0, time=19),
    Message('note_on', channel=9, note=38, velocity=90, time=41),
    Message('note_on', channel=9, note=57, velocity=90, time=0),
    Message('note_on', channel=9, note=36, velocity=90, time=0),
    Message('note_on', channel=9, note=38, velocity=0, time=19),
    Message('note_on', channel=9, note=57, velocity=0, time=0),
    Message('note_on', channel=9, note=36, velocity=0, time=0),
    Message('note_on', channel=9, note=36, velocity=90, time=11),
    Message('note_on', channel=9, note=36, velocity=0, time=19),
    Message('note_on', channel=9, note=36, velocity=90, time=11),
    Message('note_on', channel=9, note=36, velocity=0, time=19),
    Message('note_on', channel=9, note=57, velocity=90, time=41),
    Message('note_on', channel=9, note=38, velocity=90, time=0),
    Message('note_on', channel=9, note=36, velocity=90, time=0),
    Message('note_on', channel=9, note=57, velocity=0, time=39),
    Message('note_on', channel=9, note=38, velocity=0, time=0),
    Message('note_on', channel=9, note=36, velocity=0, time=0),
    Message('note_on', channel=9, note=38, velocity=90, time=81),
    Message('note_on', channel=9, note=38, velocity=0, time=39),
    Message('note_on', channel=9, note=38, velocity=90, time=21),
    Message('note_on', channel=9, note=36, velocity=90, time=0),
    Message('note_on', channel=9, note=38, velocity=0, time=39),
    Message('note_on', channel=9, note=36, velocity=0, time=0),
    Message('note_on', channel=9, note=36, velocity=90, time=21),
    Message('note_on', channel=9, note=57, velocity=90, time=0),
    Message('note_on', channel=9, note=38, velocity=90, time=0),
    Message('note_on', channel=9, note=36, velocity=0, time=39),
    Message('note_on', channel=9, note=57, velocity=0, time=0),
    Message('note_on', channel=9, note=38, velocity=0, time=0),
    Message('note_on', channel=9, note=38, velocity=90, time=81),
    Message('note_on', channel=9, note=38, velocity=0, time=39),
    Message('note_on', channel=9, note=38, velocity=90, time=21),
    Message('note_on', channel=9, note=36, velocity=90, time=0),
    Message('note_on', channel=9, note=38, velocity=0, time=39),
    Message('note_on', channel=9, note=36, velocity=0, time=0),
    Message('note_on', channel=9, note=38, velocity=90, time=21),
    Message('note_on', channel=9, note=57, velocity=90, time=0),
    Message('note_on', channel=9, note=36, velocity=90, time=0),
    Message('note_on', channel=9, note=38, velocity=0, time=39),
    Message('note_on', channel=9, note=57, velocity=0, time=0),
    Message('note_on', channel=9, note=36, velocity=0, time=0),
    Message('note_on', channel=9, note=38, velocity=90, time=81),
    Message('note_on', channel=9, note=38, velocity=0, time=39),
    Message('note_on', channel=9, note=36, velocity=90, time=21),
    Message('note_on', channel=9, note=38, velocity=90, time=0),
    Message('note_on', channel=9, note=36, velocity=0, time=39),
    Message('note_on', channel=9, note=38, velocity=0, time=0),
    Message('note_on', channel=9, note=36, velocity=90, time=21),
    Message('note_on', channel=9, note=38, velocity=90, time=0),
    Message('note_on', channel=9, note=57, velocity=90, time=0),
    Message('note_on', channel=9, note=36, velocity=0, time=39),
    Message('note_on', channel=9, note=38, velocity=0, time=0),
    Message('note_on', channel=9, note=57, velocity=0, time=0),
    Message('note_on', channel=9, note=38, velocity=90, time=81),
    Message('note_on', channel=9, note=38, velocity=0, time=39),
    Message('note_on', channel=9, note=38, velocity=90, time=21),
    Message('note_on', channel=9, note=36, velocity=90, time=0),
    Message('note_on', channel=9, note=38, velocity=0, time=39),
    Message('note_on', channel=9, note=36, velocity=0, time=0),
    Message('note_on', channel=9, note=38, velocity=90, time=21),
    Message('note_on', channel=9, note=36, velocity=90, time=0),
    Message('note_on', channel=9, note=57, velocity=90, time=0),
    Message('note_on', channel=9, note=38, velocity=0, time=39),
    Message('note_on', channel=9, note=36, velocity=0, time=0),
    Message('note_on', channel=9, note=57, velocity=0, time=0),
    Message('note_on', channel=9, note=57, velocity=90, time=81),
    Message('note_on', channel=9, note=36, velocity=90, time=0),
    Message('note_on', channel=9, note=38, velocity=90, time=0),
    Message('note_on', channel=9, note=57, velocity=0, time=19),
    Message('note_on', channel=9, note=36, velocity=0, time=0),
    Message('note_on', channel=9, note=38, velocity=0, time=0),
    Message('note_on', channel=9, note=36, velocity=90, time=11),
    Message('note_on', channel=9, note=36, velocity=0, time=19),
    Message('note_on', channel=9, note=36, velocity=90, time=11),
    Message('note_on', channel=9, note=36, velocity=0, time=19),
    Message('note_on', channel=9, note=57, velocity=90, time=41),
    Message('note_on', channel=9, note=36, velocity=90, time=0),
    Message('note_on', channel=9, note=38, velocity=90, time=0),
    Message('note_on', channel=9, note=57, velocity=0, time=19),
    Message('note_on', channel=9, note=36, velocity=0, time=0),
    Message('note_on', channel=9, note=38, velocity=0, time=0),
    Message('note_on', channel=9, note=36, velocity=90, time=11),
    Message('note_on', channel=9, note=36, velocity=0, time=19),
    Message('note_on', channel=9, note=36, velocity=90, time=11),
    Message('note_on', channel=9, note=36, velocity=0, time=19),
    Message('note_on', channel=9, note=36, velocity=90, time=41),
    Message('note_on', channel=9, note=57, velocity=90, time=0),
    Message('note_on', channel=9, note=38, velocity=90, time=0),
    Message('note_on', channel=9, note=36, velocity=0, time=39),
    Message('note_on', channel=9, note=57, velocity=0, time=0),
    Message('note_on', channel=9, note=38, velocity=0, time=0),
    Message('note_on', channel=9, note=36, velocity=90, time=81),
    Message('note_on', channel=9, note=57, velocity=90, time=0),
    Message('note_on', channel=9, note=38, velocity=90, time=0),
    Message('note_on', channel=9, note=36, velocity=0, time=19),
    Message('note_on', channel=9, note=57, velocity=0, time=0),
    Message('note_on', channel=9, note=38, velocity=0, time=0),
    Message('note_on', channel=9, note=57, velocity=90, time=101),
    Message('note_on', channel=9, note=36, velocity=90, time=0),
    Message('note_on', channel=9, note=38, velocity=90, time=0),
    Message('note_on', channel=9, note=57, velocity=0, time=19),
    Message('note_on', channel=9, note=36, velocity=0, time=0),
    Message('note_on', channel=9, note=38, velocity=0, time=0),
    Message('note_on', channel=9, note=36, velocity=90, time=11),
    Message('note_on', channel=9, note=36, velocity=0, time=19),
    Message('note_on', channel=9, note=36, velocity=90, time=11),
    Message('note_on', channel=9, note=36, velocity=0, time=19),
    Message('note_on', channel=9, note=38, velocity=90, time=41),
    Message('note_on', channel=9, note=36, velocity=90, time=0),
    Message('note_on', channel=9, note=57, velocity=90, time=0),
    Message('note_on', channel=9, note=38, velocity=0, time=19),
    Message('note_on', channel=9, note=36, velocity=0, time=0),
    Message('note_on', channel=9, note=57, velocity=0, time=0),
    Message('note_on', channel=9, note=36, velocity=90, time=11),
    Message('note_on', channel=9, note=36, velocity=0, time=19),
    Message('note_on', channel=9, note=36, velocity=90, time=11),
    Message('note_on', channel=9, note=36, velocity=0, time=19),
    Message('note_on', channel=9, note=38, velocity=90, time=41),
    Message('note_on', channel=9, note=36, velocity=90, time=0),
    Message('note_on', channel=9, note=57, velocity=90, time=0),
    Message('note_on', channel=9, note=38, velocity=0, time=19),
    Message('note_on', channel=9, note=36, velocity=0, time=0),
    Message('note_on', channel=9, note=57, velocity=0, time=0),
    Message('note_on', channel=9, note=36, velocity=90, time=11),
    Message('note_on', channel=9, note=36, velocity=0, time=19),
    Message('note_on', channel=9, note=36, velocity=90, time=11),
    Message('note_on', channel=9, note=36, velocity=0, time=19),
    Message('note_on', channel=9, note=57, velocity=90, time=41),
    Message('note_on', channel=9, note=38, velocity=90, time=0),
    Message('note_on', channel=9, note=36, velocity=90, time=0),
    Message('note_on', channel=9, note=57, velocity=0, time=39),
    Message('note_on', channel=9, note=38, velocity=0, time=0),
    Message('note_on', channel=9, note=36, velocity=0, time=0),
    Message('note_on', channel=9, note=38, velocity=90, time=81),
    Message('note_on', channel=9, note=38, velocity=0, time=39),
    Message('note_on', channel=9, note=38, velocity=90, time=21),
    Message('note_on', channel=9, note=36, velocity=90, time=0),
    Message('note_on', channel=9, note=38, velocity=0, time=39),
    Message('note_on', channel=9, note=36, velocity=0, time=0),
    Message('note_on', channel=9, note=38, velocity=90, time=21),
    Message('note_on', channel=9, note=36, velocity=90, time=0),
    Message('note_on', channel=9, note=57, velocity=90, time=0),
    Message('note_on', channel=9, note=38, velocity=0, time=39),
    Message('note_on', channel=9, note=36, velocity=0, time=0),
    Message('note_on', channel=9, note=57, velocity=0, time=0),
    Message('note_on', channel=9, note=38, velocity=90, time=81),
    Message('note_on', channel=9, note=38, velocity=0, time=39),
    Message('note_on', channel=9, note=38, velocity=90, time=21),
    Message('note_on', channel=9, note=36, velocity=90, time=0),
    Message('note_on', channel=9, note=38, velocity=0, time=39),
    Message('note_on', channel=9, note=36, velocity=0, time=0),
    Message('note_on', channel=9, note=57, velocity=90, time=21),
    Message('note_on', channel=9, note=36, velocity=90, time=0),
    Message('note_on', channel=9, note=38, velocity=90, time=0),
    Message('note_on', channel=9, note=57, velocity=0, time=39),
    Message('note_on', channel=9, note=36, velocity=0, time=0),
    Message('note_on', channel=9, note=38, velocity=0, time=0),
    Message('note_on', channel=9, note=38, velocity=90, time=81),
    Message('note_on', channel=9, note=38, velocity=0, time=39),
    Message('note_on', channel=9, note=38, velocity=90, time=21),
    Message('note_on', channel=9, note=36, velocity=90, time=0),
    Message('note_on', channel=9, note=38, velocity=0, time=39),
    Message('note_on', channel=9, note=36, velocity=0, time=0),
    Message('note_on', channel=9, note=36, velocity=90, time=21),
    Message('note_on', channel=9, note=57, velocity=90, time=0),
    Message('note_on', channel=9, note=38, velocity=90, time=0),
    Message('note_on', channel=9, note=36, velocity=0, time=39),
    Message('note_on', channel=9, note=57, velocity=0, time=0),
    Message('note_on', channel=9, note=38, velocity=0, time=0),
    Message('note_on', channel=9, note=38, velocity=90, time=81),
    Message('note_on', channel=9, note=38, velocity=0, time=39),
    Message('note_on', channel=9, note=36, velocity=90, time=21),
    Message('note_on', channel=9, note=38, velocity=90, time=0),
    Message('note_on', channel=9, note=36, velocity=0, time=39),
    Message('note_on', channel=9, note=38, velocity=0, time=0),
    Message('note_on', channel=9, note=38, velocity=90, time=21),
    Message('note_on', channel=9, note=36, velocity=90, time=0),
    Message('note_on', channel=9, note=57, velocity=90, time=0),
    Message('note_on', channel=9, note=38, velocity=0, time=19),
    Message('note_on', channel=9, note=36, velocity=0, time=0),
    Message('note_on', channel=9, note=57, velocity=0, time=0),
    Message('note_on', channel=9, note=38, velocity=90, time=101),
    Message('note_on', channel=9, note=57, velocity=90, time=0),
    Message('note_on', channel=9, note=36, velocity=90, time=0),
    Message('note_on', channel=9, note=38, velocity=0, time=19),
    Message('note_on', channel=9, note=57, velocity=0, time=0),
    Message('note_on', channel=9, note=36, velocity=0, time=0),
    Message('note_on', channel=9, note=36, velocity=90, time=11),
    Message('note_on', channel=9, note=36, velocity=0, time=19),
    Message('note_on', channel=9, note=36, velocity=90, time=11),
    Message('note_on', channel=9, note=36, velocity=0, time=19),
    Message('note_on', channel=9, note=36, velocity=90, time=41),
    Message('note_on', channel=9, note=57, velocity=90, time=0),
    Message('note_on', channel=9, note=38, velocity=90, time=0),
    Message('note_on', channel=9, note=36, velocity=0, time=19),
    Message('note_on', channel=9, note=57, velocity=0, time=0),
    Message('note_on', channel=9, note=38, velocity=0, time=0),
    Message('note_on', channel=9, note=36, velocity=90, time=11),
    Message('note_on', channel=9, note=36, velocity=0, time=19),
    Message('note_on', channel=9, note=36, velocity=90, time=11),
    Message('note_on', channel=9, note=36, velocity=0, time=19),
    Message('note_on', channel=9, note=38, velocity=90, time=41),
    Message('note_on', channel=9, note=57, velocity=90, time=0),
    Message('note_on', channel=9, note=36, velocity=90, time=0),
    Message('note_on', channel=9, note=38, velocity=0, time=19),
    Message('note_on', channel=9, note=57, velocity=0, time=0),
    Message('note_on', channel=9, note=36, velocity=0, time=0),
    Message('note_on', channel=9, note=36, velocity=90, time=11),
    Message('note_on', channel=9, note=36, velocity=0, time=19),
    Message('note_on', channel=9, note=36, velocity=90, time=11),
    Message('note_on', channel=9, note=36, velocity=0, time=19),
    Message('note_on', channel=9, note=38, velocity=90, time=41),
    Message('note_on', channel=9, note=57, velocity=90, time=0),
    Message('note_on', channel=9, note=36, velocity=90, time=0),
    Message('note_on', channel=9, note=38, velocity=0, time=39),
    Message('note_on', channel=9, note=57, velocity=0, time=0),
    Message('note_on', channel=9, note=36, velocity=0, time=0),
    Message('note_on', channel=9, note=57, velocity=90, time=81),
    Message('note_on', channel=9, note=36, velocity=90, time=0),
    Message('note_on', channel=9, note=38, velocity=90, time=0),
    Message('note_on', channel=9, note=57, velocity=0, time=19),
    Message('note_on', channel=9, note=36, velocity=0, time=0),
    Message('note_on', channel=9, note=38, velocity=0, time=0),
    Message('note_on', channel=9, note=36, velocity=90, time=11),
    Message('note_on', channel=9, note=36, velocity=0, time=19),
    Message('note_on', channel=9, note=36, velocity=90, time=11),
    Message('note_on', channel=9, note=36, velocity=0, time=19),
    Message('note_on', channel=9, note=36, velocity=90, time=41),
    Message('note_on', channel=9, note=57, velocity=90, time=0),
    Message('note_on', channel=9, note=38, velocity=90, time=0),
    Message('note_on', channel=9, note=36, velocity=0, time=19),
    Message('note_on', channel=9, note=57, velocity=0, time=0),
    Message('note_on', channel=9, note=38, velocity=0, time=0),
    Message('note_on', channel=9, note=36, velocity=90, time=11),
    Message('note_on', channel=9, note=36, velocity=0, time=19),
    Message('note_on', channel=9, note=36, velocity=90, time=11),
    Message('note_on', channel=9, note=36, velocity=0, time=19),
    Message('note_on', channel=9, note=36, velocity=90, time=41),
    Message('note_on', channel=9, note=57, velocity=90, time=0),
    Message('note_on', channel=9, note=38, velocity=90, time=0),
    Message('note_on', channel=9, note=35, velocity=90, time=30),
    Message('note_on', channel=9, note=40, velocity=90, time=0),
    Message('note_on', channel=9, note=38, velocity=90, time=0),
    Message('note_on', channel=9, note=36, velocity=0, time=9),
    Message('note_on', channel=9, note=57, velocity=0, time=0),
    Message('note_on', channel=9, note=38, velocity=0, time=0),
    Message('note_on', channel=9, note=35, velocity=0, time=10),
    Message('note_on', channel=9, note=40, velocity=0, time=0),
    Message('note_on', channel=9, note=38, velocity=0, time=0),
    Message('note_on', channel=9, note=38, velocity=90, time=11),
    Message('note_on', channel=9, note=35, velocity=90, time=0),
    Message('note_on', channel=9, note=38, velocity=0, time=19),
    Message('note_on', channel=9, note=35, velocity=0, time=0),
    Message('note_on', channel=9, note=57, velocity=90, time=11),
    Message('note_on', channel=9, note=38, velocity=90, time=0),
    Message('note_on', channel=9, note=57, velocity=0, time=19),
    Message('note_on', channel=9, note=38, velocity=0, time=0),
    Message('note_on', channel=9, note=57, velocity=90, time=11),
    Message('note_on', channel=9, note=36, velocity=90, time=0),
    Message('note_on', channel=9, note=57, velocity=0, time=39),
    Message('note_on', channel=9, note=36, velocity=0, time=0),
    Message('note_on', channel=9, note=38, velocity=90, time=81),
    Message('note_on', channel=9, note=57, velocity=90, time=0),
    Message('note_on', channel=9, note=38, velocity=0, time=39),
    Message('note_on', channel=9, note=57, velocity=0, time=0),
    Message('note_on', channel=9, note=57, velocity=90, time=21),
    Message('note_on', channel=9, note=38, velocity=90, time=0),
    Message('note_on', channel=9, note=38, velocity=0, time=19),
    Message('note_on', channel=9, note=38, velocity=90, time=11),
    Message('note_on', channel=9, note=57, velocity=0, time=9),
    Message('note_on', channel=9, note=38, velocity=0, time=10),
    Message('note_on', channel=9, note=36, velocity=90, time=11),
    Message('note_on', channel=9, note=57, velocity=90, time=0),
    Message('note_on', channel=9, note=36, velocity=0, time=39),
    Message('note_on', channel=9, note=57, velocity=0, time=0),
    Message('note_on', channel=9, note=57, velocity=90, time=81),
    Message('note_on', channel=9, note=38, velocity=90, time=0),
    Message('note_on', channel=9, note=57, velocity=0, time=39),
    Message('note_on', channel=9, note=38, velocity=0, time=0),
    Message('note_on', channel=9, note=36, velocity=90, time=81),
    Message('note_on', channel=9, note=36, velocity=0, time=39),
    Message('note_on', channel=9, note=57, velocity=90, time=81),
    Message('note_on', channel=9, note=38, velocity=90, time=0),
    Message('note_on', channel=9, note=57, velocity=0, time=39),
    Message('note_on', channel=9, note=38, velocity=0, time=0),
    Message('note_on', channel=9, note=38, velocity=90, time=21),
    Message('note_on', channel=9, note=38, velocity=0, time=39),
    Message('note_on', channel=9, note=36, velocity=90, time=21),
    Message('note_on', channel=9, note=38, velocity=90, time=0),
    Message('note_on', channel=9, note=38, velocity=0, time=19),
    Message('note_on', channel=9, note=36, velocity=0, time=20),
    Message('note_on', channel=9, note=38, velocity=90, time=21),
    Message('note_on', channel=9, note=38, velocity=0, time=19),
    Message('note_on', channel=9, note=40, velocity=90, time=11),
    Message('note_on', channel=9, note=40, velocity=0, time=19),
    Message('note_on', channel=9, note=57, velocity=90, time=11),
    Message('note_on', channel=9, note=38, velocity=90, time=0),
    Message('note_on', channel=9, note=57, velocity=0, time=39),
    Message('note_on', channel=9, note=38, velocity=0, time=0),
    Message('note_on', channel=9, note=38, velocity=90, time=21),
    Message('note_on', channel=9, note=38, velocity=0, time=19),
    Message('note_on', channel=9, note=38, velocity=90, time=11),
    Message('note_on', channel=9, note=38, velocity=0, time=19),
    Message('note_on', channel=9, note=57, velocity=90, time=11),
    Message('note_on', channel=9, note=36, velocity=90, time=0),
    Message('note_on', channel=9, note=57, velocity=0, time=39),
    Message('note_on', channel=9, note=36, velocity=0, time=0),
    Message('note_on', channel=9, note=38, velocity=90, time=81),
    Message('note_on', channel=9, note=57, velocity=90, time=0),
    Message('note_on', channel=9, note=38, velocity=0, time=39),
    Message('note_on', channel=9, note=57, velocity=0, time=0),
    Message('note_on', channel=9, note=38, velocity=90, time=21),
    Message('note_on', channel=9, note=57, velocity=90, time=0),
    Message('note_on', channel=9, note=38, velocity=0, time=19),
    Message('note_on', channel=9, note=38, velocity=90, time=11),
    Message('note_on', channel=9, note=57, velocity=0, time=9),
    Message('note_on', channel=9, note=38, velocity=0, time=10),
    Message('note_on', channel=9, note=57, velocity=90, time=11),
    Message('note_on', channel=9, note=36, velocity=90, time=0),
    Message('note_on', channel=9, note=57, velocity=0, time=39),
    Message('note_on', channel=9, note=36, velocity=0, time=0),
    Message('note_on', channel=9, note=57, velocity=90, time=21),
    Message('note_on', channel=9, note=57, velocity=0, time=39),
    Message('note_on', channel=9, note=57, velocity=90, time=21),
    Message('note_on', channel=9, note=38, velocity=90, time=0),
    Message('note_on', channel=9, note=57, velocity=0, time=39),
    Message('note_on', channel=9, note=38, velocity=0, time=0),
    Message('note_on', channel=9, note=57, velocity=90, time=21),
    Message('note_on', channel=9, note=57, velocity=0, time=39),
    Message('note_on', channel=9, note=57, velocity=90, time=21),
    Message('note_on', channel=9, note=36, velocity=90, time=0),
    Message('note_on', channel=9, note=57, velocity=0, time=39),
    Message('note_on', channel=9, note=36, velocity=0, time=0),
    Message('note_on', channel=9, note=57, velocity=90, time=81),
    Message('note_on', channel=9, note=38, velocity=90, time=0),
    Message('note_on', channel=9, note=57, velocity=0, time=39),
    Message('note_on', channel=9, note=38, velocity=0, time=0),
    Message('note_on', channel=9, note=38, velocity=90, time=21),
    Message('note_on', channel=9, note=57, velocity=90, time=0),
    Message('note_on', channel=9, note=38, velocity=0, time=39),
    Message('note_on', channel=9, note=57, velocity=0, time=0),
    Message('note_on', channel=9, note=36, velocity=90, time=21),
    Message('note_on', channel=9, note=57, velocity=90, time=0),
    Message('note_on', channel=9, note=38, velocity=90, time=0),
    Message('note_on', channel=9, note=38, velocity=0, time=19),
    Message('note_on', channel=9, note=36, velocity=0, time=20),
    Message('note_on', channel=9, note=57, velocity=0, time=0),
    Message('note_on', channel=9, note=57, velocity=90, time=21),
    Message('note_on', channel=9, note=38, velocity=90, time=0),
    Message('note_on', channel=9, note=38, velocity=0, time=19),
    Message('note_on', channel=9, note=40, velocity=90, time=11),
    Message('note_on', channel=9, note=57, velocity=0, time=9),
    Message('note_on', channel=9, note=40, velocity=0, time=10),
    Message('note_on', channel=9, note=57, velocity=90, time=11),
    Message('note_on', channel=9, note=38, velocity=90, time=0),
    Message('note_on', channel=9, note=57, velocity=0, time=39),
    Message('note_on', channel=9, note=38, velocity=0, time=0),
    Message('note_on', channel=9, note=57, velocity=90, time=21),
    Message('note_on', channel=9, note=38, velocity=90, time=0),
    Message('note_on', channel=9, note=38, velocity=0, time=19),
    Message('note_on', channel=9, note=38, velocity=90, time=11),
    Message('note_on', channel=9, note=57, velocity=0, time=9),
    Message('note_on', channel=9, note=38, velocity=0, time=10),
    Message('note_on', channel=9, note=57, velocity=90, time=11),
    Message('note_on', channel=9, note=36, velocity=90, time=0),
    Message('note_on', channel=9, note=57, velocity=0, time=39),
    Message('note_on', channel=9, note=36, velocity=0, time=0),
    Message('note_on', channel=9, note=38, velocity=90, time=81),
    Message('note_on', channel=9, note=57, velocity=90, time=0),
    Message('note_on', channel=9, note=38, velocity=0, time=39),
    Message('note_on', channel=9, note=57, velocity=0, time=0),
    Message('note_on', channel=9, note=57, velocity=90, time=21),
    Message('note_on', channel=9, note=38, velocity=90, time=0),
    Message('note_on', channel=9, note=38, velocity=0, time=19),
    Message('note_on', channel=9, note=38, velocity=90, time=11),
    Message('note_on', channel=9, note=57, velocity=0, time=9),
    Message('note_on', channel=9, note=38, velocity=0, time=10),
    Message('note_on', channel=9, note=36, velocity=90, time=11),
    Message('note_on', channel=9, note=57, velocity=90, time=0),
    Message('note_on', channel=9, note=36, velocity=0, time=39),
    Message('note_on', channel=9, note=57, velocity=0, time=0),
    Message('note_on', channel=9, note=57, velocity=90, time=81),
    Message('note_on', channel=9, note=38, velocity=90, time=0),
    Message('note_on', channel=9, note=57, velocity=0, time=39),
    Message('note_on', channel=9, note=38, velocity=0, time=0),
    Message('note_on', channel=9, note=36, velocity=90, time=81),
    Message('note_on', channel=9, note=36, velocity=0, time=39),
    Message('note_on', channel=9, note=38, velocity=90, time=81),
    Message('note_on', channel=9, note=57, velocity=90, time=0),
    Message('note_on', channel=9, note=38, velocity=0, time=39),
    Message('note_on', channel=9, note=57, velocity=0, time=0),
    Message('note_on', channel=9, note=38, velocity=90, time=21),
    Message('note_on', channel=9, note=38, velocity=0, time=39),
    Message('note_on', channel=9, note=36, velocity=90, time=21),
    Message('note_on', channel=9, note=38, velocity=90, time=0),
    Message('note_on', channel=9, note=38, velocity=0, time=19),
    Message('note_on', channel=9, note=36, velocity=0, time=20),
    Message('note_on', channel=9, note=38, velocity=90, time=21),
    Message('note_on', channel=9, note=38, velocity=0, time=19),
    Message('note_on', channel=9, note=40, velocity=90, time=11),
    Message('note_on', channel=9, note=40, velocity=0, time=19),
    Message('note_on', channel=9, note=57, velocity=90, time=11),
    Message('note_on', channel=9, note=38, velocity=90, time=0),
    Message('note_on', channel=9, note=57, velocity=0, time=39),
    Message('note_on', channel=9, note=38, velocity=0, time=0),
    Message('note_on', channel=9, note=38, velocity=90, time=21),
    Message('note_on', channel=9, note=38, velocity=0, time=19),
    Message('note_on', channel=9, note=38, velocity=90, time=11),
    Message('note_on', channel=9, note=38, velocity=0, time=19),
    Message('note_on', channel=9, note=57, velocity=90, time=11),
    Message('note_on', channel=9, note=36, velocity=90, time=0),
    Message('note_on', channel=9, note=57, velocity=0, time=39),
    Message('note_on', channel=9, note=36, velocity=0, time=0),
    Message('note_on', channel=9, note=38, velocity=90, time=81),
    Message('note_on', channel=9, note=57, velocity=90, time=0),
    Message('note_on', channel=9, note=38, velocity=0, time=39),
    Message('note_on', channel=9, note=57, velocity=0, time=0),
    Message('note_on', channel=9, note=57, velocity=90, time=21),
    Message('note_on', channel=9, note=38, velocity=90, time=0),
    Message('note_on', channel=9, note=38, velocity=0, time=19),
    Message('note_on', channel=9, note=38, velocity=90, time=11),
    Message('note_on', channel=9, note=57, velocity=0, time=9),
    Message('note_on', channel=9, note=38, velocity=0, time=10),
    Message('note_on', channel=9, note=36, velocity=90, time=11),
    Message('note_on', channel=9, note=57, velocity=90, time=0),
    Message('note_on', channel=9, note=36, velocity=0, time=39),
    Message('note_on', channel=9, note=57, velocity=0, time=0),
    Message('note_on', channel=9, note=57, velocity=90, time=21),
    Message('note_on', channel=9, note=57, velocity=0, time=39),
    Message('note_on', channel=9, note=38, velocity=90, time=21),
    Message('note_on', channel=9, note=57, velocity=90, time=0),
    Message('note_on', channel=9, note=38, velocity=0, time=39),
    Message('note_on', channel=9, note=57, velocity=0, time=0),
    Message('note_on', channel=9, note=57, velocity=90, time=21),
    Message('note_on', channel=9, note=57, velocity=0, time=39),
    Message('note_on', channel=9, note=36, velocity=90, time=21),
    Message('note_on', channel=9, note=57, velocity=90, time=0),
    Message('note_on', channel=9, note=36, velocity=0, time=39),
    Message('note_on', channel=9, note=57, velocity=0, time=0),
    Message('note_on', channel=9, note=38, velocity=90, time=81),
    Message('note_on', channel=9, note=57, velocity=90, time=0),
    Message('note_on', channel=9, note=38, velocity=0, time=39),
    Message('note_on', channel=9, note=57, velocity=0, time=0),
    Message('note_on', channel=9, note=38, velocity=90, time=21),
    Message('note_on', channel=9, note=57, velocity=90, time=0),
    Message('note_on', channel=9, note=38, velocity=0, time=39),
    Message('note_on', channel=9, note=57, velocity=0, time=0),
    Message('note_on', channel=9, note=36, velocity=90, time=21),
    Message('note_on', channel=9, note=57, velocity=90, time=0),
    Message('note_on', channel=9, note=38, velocity=90, time=0),
    Message('note_on', channel=9, note=38, velocity=0, time=19),
    Message('note_on', channel=9, note=36, velocity=0, time=20),
    Message('note_on', channel=9, note=57, velocity=0, time=0),
    Message('note_on', channel=9, note=57, velocity=90, time=21),
    Message('note_on', channel=9, note=38, velocity=90, time=0),
    Message('note_on', channel=9, note=38, velocity=0, time=19),
    Message('note_on', channel=9, note=40, velocity=90, time=11),
    Message('note_on', channel=9, note=57, velocity=0, time=9),
    Message('note_on', channel=9, note=40, velocity=0, time=10),
    Message('note_on', channel=9, note=57, velocity=90, time=11),
    Message('note_on', channel=9, note=38, velocity=90, time=0),
    Message('note_on', channel=9, note=57, velocity=0, time=39),
    Message('note_on', channel=9, note=38, velocity=0, time=0),
    Message('note_on', channel=9, note=57, velocity=90, time=21),
    Message('note_on', channel=9, note=38, velocity=90, time=0),
    Message('note_on', channel=9, note=38, velocity=0, time=19),
    Message('note_on', channel=9, note=38, velocity=90, time=11),
    Message('note_on', channel=9, note=57, velocity=0, time=9),
    Message('note_on', channel=9, note=38, velocity=0, time=10),
    Message('note_on', channel=9, note=57, velocity=90, time=11),
    Message('note_on', channel=9, note=36, velocity=90, time=0),
    Message('note_on', channel=9, note=57, velocity=0, time=39),
    Message('note_on', channel=9, note=36, velocity=0, time=0),
    Message('note_on', channel=9, note=38, velocity=90, time=81),
    Message('note_on', channel=9, note=57, velocity=90, time=0),
    Message('note_on', channel=9, note=38, velocity=0, time=39),
    Message('note_on', channel=9, note=57, velocity=0, time=0),
    Message('note_on', channel=9, note=57, velocity=90, time=21),
    Message('note_on', channel=9, note=38, velocity=90, time=0),
    Message('note_on', channel=9, note=38, velocity=0, time=19),
    Message('note_on', channel=9, note=38, velocity=90, time=11),
    Message('note_on', channel=9, note=57, velocity=0, time=9),
    Message('note_on', channel=9, note=38, velocity=0, time=10),
    Message('note_on', channel=9, note=36, velocity=90, time=11),
    Message('note_on', channel=9, note=57, velocity=90, time=0),
    Message('note_on', channel=9, note=36, velocity=0, time=39),
    Message('note_on', channel=9, note=57, velocity=0, time=0),
    Message('note_on', channel=9, note=38, velocity=90, time=81),
    Message('note_on', channel=9, note=57, velocity=90, time=0),
    Message('note_on', channel=9, note=38, velocity=0, time=39),
    Message('note_on', channel=9, note=57, velocity=0, time=0),
    Message('note_on', channel=9, note=36, velocity=90, time=81),
    Message('note_on', channel=9, note=36, velocity=0, time=39),
    Message('note_on', channel=9, note=38, velocity=90, time=81),
    Message('note_on', channel=9, note=57, velocity=90, time=0),
    Message('note_on', channel=9, note=38, velocity=0, time=39),
    Message('note_on', channel=9, note=57, velocity=0, time=0),
    Message('note_on', channel=9, note=38, velocity=90, time=21),
    Message('note_on', channel=9, note=38, velocity=0, time=39),
    Message('note_on', channel=9, note=38, velocity=90, time=21),
    Message('note_on', channel=9, note=36, velocity=90, time=0),
    Message('note_on', channel=9, note=38, velocity=0, time=19),
    Message('note_on', channel=9, note=36, velocity=0, time=20),
    Message('note_on', channel=9, note=38, velocity=90, time=21),
    Message('note_on', channel=9, note=38, velocity=0, time=19),
    Message('note_on', channel=9, note=40, velocity=90, time=11),
    Message('note_on', channel=9, note=40, velocity=0, time=19),
    Message('note_on', channel=9, note=57, velocity=90, time=11),
    Message('note_on', channel=9, note=38, velocity=90, time=0),
    Message('note_on', channel=9, note=57, velocity=0, time=39),
    Message('note_on', channel=9, note=38, velocity=0, time=0),
    Message('note_on', channel=9, note=38, velocity=90, time=21),
    Message('note_on', channel=9, note=38, velocity=0, time=19),
    Message('note_on', channel=9, note=38, velocity=90, time=11),
    Message('note_on', channel=9, note=38, velocity=0, time=19),
    Message('note_on', channel=9, note=57, velocity=90, time=11),
    Message('note_on', channel=9, note=36, velocity=90, time=0),
    Message('note_on', channel=9, note=57, velocity=0, time=39),
    Message('note_on', channel=9, note=36, velocity=0, time=0),
    Message('note_on', channel=9, note=38, velocity=90, time=81),
    Message('note_on', channel=9, note=57, velocity=90, time=0),
    Message('note_on', channel=9, note=38, velocity=0, time=39),
    Message('note_on', channel=9, note=57, velocity=0, time=0),
    Message('note_on', channel=9, note=38, velocity=90, time=21),
    Message('note_on', channel=9, note=57, velocity=90, time=0),
    Message('note_on', channel=9, note=38, velocity=0, time=19),
    Message('note_on', channel=9, note=38, velocity=90, time=11),
    Message('note_on', channel=9, note=57, velocity=0, time=9),
    Message('note_on', channel=9, note=38, velocity=0, time=10),
    Message('note_on', channel=9, note=57, velocity=90, time=11),
    Message('note_on', channel=9, note=36, velocity=90, time=0),
    Message('note_on', channel=9, note=57, velocity=0, time=39),
    Message('note_on', channel=9, note=36, velocity=0, time=0),
    Message('note_on', channel=9, note=57, velocity=90, time=21),
    Message('note_on', channel=9, note=57, velocity=0, time=39),
    Message('note_on', channel=9, note=38, velocity=90, time=21),
    Message('note_on', channel=9, note=57, velocity=90, time=0),
    Message('note_on', channel=9, note=38, velocity=0, time=39),
    Message('note_on', channel=9, note=57, velocity=0, time=0),
    Message('note_on', channel=9, note=57, velocity=90, time=21),
    Message('note_on', channel=9, note=57, velocity=0, time=39),
    Message('note_on', channel=9, note=57, velocity=90, time=21),
    Message('note_on', channel=9, note=36, velocity=90, time=0),
    Message('note_on', channel=9, note=57, velocity=0, time=39),
    Message('note_on', channel=9, note=36, velocity=0, time=0),
    Message('note_on', channel=9, note=57, velocity=90, time=81),
    Message('note_on', channel=9, note=38, velocity=90, time=0),
    Message('note_on', channel=9, note=57, velocity=0, time=39),
    Message('note_on', channel=9, note=38, velocity=0, time=0),
    Message('note_on', channel=9, note=38, velocity=90, time=21),
    Message('note_on', channel=9, note=57, velocity=90, time=0),
    Message('note_on', channel=9, note=38, velocity=0, time=39),
    Message('note_on', channel=9, note=57, velocity=0, time=0),
    Message('note_on', channel=9, note=36, velocity=90, time=21),
    Message('note_on', channel=9, note=57, velocity=90, time=0),
    Message('note_on', channel=9, note=38, velocity=90, time=0),
    Message('note_on', channel=9, note=38, velocity=0, time=19),
    Message('note_on', channel=9, note=36, velocity=0, time=20),
    Message('note_on', channel=9, note=57, velocity=0, time=0),
    Message('note_on', channel=9, note=57, velocity=90, time=21),
    Message('note_on', channel=9, note=38, velocity=90, time=0),
    Message('note_on', channel=9, note=38, velocity=0, time=19),
    Message('note_on', channel=9, note=40, velocity=90, time=11),
    Message('note_on', channel=9, note=57, velocity=0, time=9),
    Message('note_on', channel=9, note=40, velocity=0, time=10),
    Message('note_on', channel=9, note=57, velocity=90, time=11),
    Message('note_on', channel=9, note=38, velocity=90, time=0),
    Message('note_on', channel=9, note=57, velocity=0, time=39),
    Message('note_on', channel=9, note=38, velocity=0, time=0),
    Message('note_on', channel=9, note=57, velocity=90, time=21),
    Message('note_on', channel=9, note=38, velocity=90, time=0),
    Message('note_on', channel=9, note=38, velocity=0, time=19),
    Message('note_on', channel=9, note=38, velocity=90, time=11),
    Message('note_on', channel=9, note=57, velocity=0, time=9),
    Message('note_on', channel=9, note=38, velocity=0, time=10),
    Message('note_on', channel=9, note=36, velocity=90, time=11),
    Message('note_on', channel=9, note=57, velocity=90, time=0),
    Message('note_on', channel=9, note=36, velocity=0, time=39),
    Message('note_on', channel=9, note=57, velocity=0, time=0),
    Message('note_on', channel=9, note=38, velocity=90, time=81),
    Message('note_on', channel=9, note=57, velocity=90, time=0),
    Message('note_on', channel=9, note=38, velocity=0, time=39),
    Message('note_on', channel=9, note=57, velocity=0, time=0),
    Message('note_on', channel=9, note=57, velocity=90, time=21),
    Message('note_on', channel=9, note=38, velocity=90, time=0),
    Message('note_on', channel=9, note=38, velocity=0, time=19),
    Message('note_on', channel=9, note=38, velocity=90, time=11),
    Message('note_on', channel=9, note=57, velocity=0, time=9),
    Message('note_on', channel=9, note=38, velocity=0, time=10),
    Message('note_on', channel=9, note=57, velocity=90, time=11),
    Message('note_on', channel=9, note=36, velocity=90, time=0),
    Message('note_on', channel=9, note=57, velocity=0, time=39),
    Message('note_on', channel=9, note=36, velocity=0, time=0),
    Message('note_on', channel=9, note=57, velocity=90, time=81),
    Message('note_on', channel=9, note=38, velocity=90, time=0),
    Message('note_on', channel=9, note=57, velocity=0, time=39),
    Message('note_on', channel=9, note=38, velocity=0, time=0),
    Message('note_on', channel=9, note=36, velocity=90, time=81),
    Message('note_on', channel=9, note=57, velocity=90, time=0),
    Message('note_on', channel=9, note=36, velocity=0, time=39),
    Message('note_on', channel=9, note=57, velocity=0, time=0),
    Message('note_on', channel=9, note=57, velocity=90, time=81),
    Message('note_on', channel=9, note=38, velocity=90, time=0),
    Message('note_on', channel=9, note=57, velocity=0, time=39),
    Message('note_on', channel=9, note=38, velocity=0, time=0),
    Message('note_on', channel=9, note=57, velocity=90, time=21),
    Message('note_on', channel=9, note=38, velocity=90, time=0),
    Message('note_on', channel=9, note=57, velocity=0, time=39),
    Message('note_on', channel=9, note=38, velocity=0, time=0),
    Message('note_on', channel=9, note=57, velocity=90, time=21),
    Message('note_on', channel=9, note=38, velocity=90, time=0),
    Message('note_on', channel=9, note=36, velocity=90, time=0),
    Message('note_on', channel=9, note=38, velocity=0, time=19),
    Message('note_on', channel=9, note=57, velocity=0, time=20),
    Message('note_on', channel=9, note=36, velocity=0, time=0),
    Message('note_on', channel=9, note=38, velocity=90, time=21),
    Message('note_on', channel=9, note=57, velocity=90, time=0),
    Message('note_on', channel=9, note=38, velocity=0, time=19),
    Message('note_on', channel=9, note=40, velocity=90, time=11),
    Message('note_on', channel=9, note=57, velocity=0, time=9),
    Message('note_on', channel=9, note=40, velocity=0, time=10),
    Message('note_on', channel=9, note=38, velocity=90, time=11),
    Message('note_on', channel=9, note=57, velocity=90, time=0),
    Message('note_on', channel=9, note=38, velocity=0, time=39),
    Message('note_on', channel=9, note=57, velocity=0, time=0),
    Message('note_on', channel=9, note=57, velocity=90, time=21),
    Message('note_on', channel=9, note=38, velocity=90, time=0),
    Message('note_on', channel=9, note=38, velocity=0, time=19),
    Message('note_on', channel=9, note=38, velocity=90, time=11),
    Message('note_on', channel=9, note=57, velocity=0, time=9),
    Message('note_on', channel=9, note=38, velocity=0, time=10),
    Message('note_on', channel=9, note=57, velocity=90, time=11),
    Message('note_on', channel=9, note=36, velocity=90, time=0),
    Message('note_on', channel=9, note=57, velocity=0, time=39),
    Message('note_on', channel=9, note=36, velocity=0, time=0),
    Message('note_on', channel=9, note=57, velocity=90, time=81),
    Message('note_on', channel=9, note=38, velocity=90, time=0),
    Message('note_on', channel=9, note=57, velocity=0, time=39),
    Message('note_on', channel=9, note=38, velocity=0, time=0),
    Message('note_on', channel=9, note=38, velocity=90, time=21),
    Message('note_on', channel=9, note=57, velocity=90, time=0),
    Message('note_on', channel=9, note=38, velocity=0, time=19),
    Message('note_on', channel=9, note=38, velocity=90, time=11),
    Message('note_on', channel=9, note=57, velocity=0, time=9),
    Message('note_on', channel=9, note=38, velocity=0, time=10),
    Message('note_on', channel=9, note=36, velocity=90, time=11),
    Message('note_on', channel=9, note=57, velocity=90, time=0),
    Message('note_on', channel=9, note=36, velocity=0, time=39),
    Message('note_on', channel=9, note=57, velocity=0, time=0),
    Message('note_on', channel=9, note=57, velocity=90, time=81),
    Message('note_on', channel=9, note=38, velocity=90, time=0),
    Message('note_on', channel=9, note=57, velocity=0, time=39),
    Message('note_on', channel=9, note=38, velocity=0, time=0),
    Message('note_on', channel=9, note=36, velocity=90, time=81),
    Message('note_on', channel=9, note=36, velocity=0, time=39),
    Message('note_on', channel=9, note=57, velocity=90, time=81),
    Message('note_on', channel=9, note=38, velocity=90, time=0),
    Message('note_on', channel=9, note=57, velocity=0, time=39),
    Message('note_on', channel=9, note=38, velocity=0, time=0),
    Message('note_on', channel=9, note=38, velocity=90, time=21),
    Message('note_on', channel=9, note=38, velocity=0, time=39),
    Message('note_on', channel=9, note=38, velocity=90, time=21),
    Message('note_on', channel=9, note=36, velocity=90, time=0),
    Message('note_on', channel=9, note=38, velocity=0, time=19),
    Message('note_on', channel=9, note=36, velocity=0, time=20),
    Message('note_on', channel=9, note=38, velocity=90, time=21),
    Message('note_on', channel=9, note=38, velocity=0, time=19),
    Message('note_on', channel=9, note=40, velocity=90, time=11),
    Message('note_on', channel=9, note=40, velocity=0, time=19),
    Message('note_on', channel=9, note=38, velocity=90, time=11),
    Message('note_on', channel=9, note=57, velocity=90, time=0),
    Message('note_on', channel=9, note=38, velocity=0, time=39),
    Message('note_on', channel=9, note=57, velocity=0, time=0),
    Message('note_on', channel=9, note=38, velocity=90, time=21),
    Message('note_on', channel=9, note=38, velocity=0, time=19),
    Message('note_on', channel=9, note=38, velocity=90, time=11),
    Message('note_on', channel=9, note=38, velocity=0, time=19),
    Message('note_on', channel=9, note=57, velocity=90, time=11),
    Message('note_on', channel=9, note=35, velocity=90, time=0),
    Message('note_on', channel=9, note=57, velocity=0, time=39),
    Message('note_on', channel=9, note=35, velocity=0, time=0),
    Message('note_on', channel=9, note=57, velocity=90, time=21),
    Message('note_on', channel=9, note=35, velocity=90, time=0),
    Message('note_on', channel=9, note=57, velocity=0, time=39),
    Message('note_on', channel=9, note=35, velocity=0, time=0),
    Message('note_on', channel=9, note=38, velocity=90, time=21),
    Message('note_on', channel=9, note=57, velocity=90, time=0),
    Message('note_on', channel=9, note=35, velocity=90, time=0),
    Message('note_on', channel=9, note=38, velocity=0, time=19),
    Message('note_on', channel=9, note=57, velocity=0, time=20),
    Message('note_on', channel=9, note=35, velocity=0, time=0),
    Message('note_on', channel=9, note=57, velocity=90, time=21),
    Message('note_on', channel=9, note=38, velocity=90, time=0),
    Message('note_on', channel=9, note=35, velocity=90, time=0),
    Message('note_on', channel=9, note=57, velocity=0, time=19),
    Message('note_on', channel=9, note=38, velocity=0, time=0),
    Message('note_on', channel=9, note=35, velocity=0, time=0),
    Message('note_on', channel=9, note=35, velocity=90, time=11),
    Message('note_on', channel=9, note=38, velocity=90, time=0),
    Message('note_on', channel=9, note=57, velocity=90, time=0),
    Message('note_on', channel=9, note=35, velocity=0, time=19),
    Message('note_on', channel=9, note=38, velocity=0, time=0),
    Message('note_on', channel=9, note=57, velocity=0, time=0),
    Message('note_on', channel=9, note=38, velocity=90, time=11),
    Message('note_on', channel=9, note=57, velocity=90, time=0),
    Message('note_on', channel=9, note=35, velocity=90, time=0),
    Message('note_on', channel=9, note=38, velocity=0, time=19),
    Message('note_on', channel=9, note=57, velocity=0, time=20),
    Message('note_on', channel=9, note=35, velocity=0, time=0),
    Message('note_on', channel=9, note=38, velocity=90, time=21),
    Message('note_on', channel=9, note=57, velocity=90, time=0),
    Message('note_on', channel=9, note=35, velocity=90, time=0),
    Message('note_on', channel=9, note=38, velocity=0, time=19),
    Message('note_on', channel=9, note=57, velocity=0, time=0),
    Message('note_on', channel=9, note=35, velocity=0, time=0),
    Message('note_on', channel=9, note=35, velocity=90, time=11),
    Message('note_on', channel=9, note=57, velocity=90, time=0),
    Message('note_on', channel=9, note=38, velocity=90, time=0),
    Message('note_on', channel=9, note=57, velocity=90, time=0),
    Message('note_on', channel=9, note=35, velocity=0, time=19),
    Message('note_on', channel=9, note=57, velocity=0, time=0),
    Message('note_on', channel=9, note=38, velocity=0, time=0),
    Message('note_on', channel=9, note=35, velocity=90, time=11),
    Message('note_on', channel=9, note=38, velocity=90, time=0),
    Message('note_on', channel=9, note=57, velocity=90, time=0),
    Message('note_on', channel=9, note=57, velocity=0, time=9),
    Message('note_on', channel=9, note=38, velocity=0, time=10),
    Message('note_on', channel=9, note=35, velocity=0, time=20),
    Message('note_on', channel=9, note=57, velocity=0, time=0),
    Message('note_on', channel=9, note=57, velocity=90, time=81),
    Message('note_on', channel=9, note=35, velocity=90, time=0),
    Message('note_on', channel=9, note=57, velocity=0, time=39),
    Message('note_on', channel=9, note=35, velocity=0, time=0),
    Message('note_on', channel=9, note=35, velocity=90, time=21),
    Message('note_on', channel=9, note=57, velocity=90, time=0),
    Message('note_on', channel=9, note=35, velocity=0, time=39),
    Message('note_on', channel=9, note=57, velocity=0, time=0),
    Message('note_on', channel=9, note=35, velocity=90, time=21),
    Message('note_on', channel=9, note=38, velocity=90, time=0),
    Message('note_on', channel=9, note=57, velocity=90, time=0),
    Message('note_on', channel=9, note=38, velocity=0, time=19),
    Message('note_on', channel=9, note=35, velocity=0, time=20),
    Message('note_on', channel=9, note=57, velocity=0, time=0),
    Message('note_on', channel=9, note=38, velocity=90, time=21),
    Message('note_on', channel=9, note=35, velocity=90, time=0),
    Message('note_on', channel=9, note=57, velocity=90, time=0),
    Message('note_on', channel=9, note=38, velocity=0, time=19),
    Message('note_on', channel=9, note=35, velocity=0, time=0),
    Message('note_on', channel=9, note=57, velocity=0, time=0),
    Message('note_on', channel=9, note=35, velocity=90, time=11),
    Message('note_on', channel=9, note=38, velocity=90, time=0),
    Message('note_on', channel=9, note=57, velocity=90, time=0),
    Message('note_on', channel=9, note=35, velocity=0, time=19),
    Message('note_on', channel=9, note=38, velocity=0, time=0),
    Message('note_on', channel=9, note=57, velocity=0, time=0),
    Message('note_on', channel=9, note=57, velocity=90, time=11),
    Message('note_on', channel=9, note=38, velocity=90, time=0),
    Message('note_on', channel=9, note=35, velocity=90, time=0),
    Message('note_on', channel=9, note=38, velocity=0, time=19),
    Message('note_on', channel=9, note=57, velocity=0, time=20),
    Message('note_on', channel=9, note=35, velocity=0, time=0),
    Message('note_on', channel=9, note=57, velocity=90, time=21),
    Message('note_on', channel=9, note=38, velocity=90, time=0),
    Message('note_on', channel=9, note=35, velocity=90, time=0),
    Message('note_on', channel=9, note=57, velocity=0, time=19),
    Message('note_on', channel=9, note=38, velocity=0, time=0),
    Message('note_on', channel=9, note=35, velocity=0, time=0),
    Message('note_on', channel=9, note=57, velocity=90, time=11),
    Message('note_on', channel=9, note=57, velocity=90, time=0),
    Message('note_on', channel=9, note=35, velocity=90, time=0),
    Message('note_on', channel=9, note=38, velocity=90, time=0),
    Message('note_on', channel=9, note=57, velocity=0, time=19),
    Message('note_on', channel=9, note=35, velocity=0, time=0),
    Message('note_on', channel=9, note=38, velocity=0, time=0),
    Message('note_on', channel=9, note=35, velocity=90, time=11),
    Message('note_on', channel=9, note=57, velocity=90, time=0),
    Message('note_on', channel=9, note=38, velocity=90, time=0),
    Message('note_on', channel=9, note=57, velocity=0, time=9),
    Message('note_on', channel=9, note=38, velocity=0, time=10),
    Message('note_on', channel=9, note=35, velocity=0, time=20),
    Message('note_on', channel=9, note=57, velocity=0, time=0),
    Message('note_on', channel=9, note=35, velocity=90, time=21),
    Message('note_on', channel=9, note=57, velocity=90, time=0),
    Message('note_on', channel=9, note=38, velocity=90, time=0),
    Message('note_on', channel=9, note=35, velocity=0, time=39),
    Message('note_on', channel=9, note=57, velocity=0, time=0),
    Message('note_on', channel=9, note=38, velocity=0, time=0),
    Message('note_on', channel=9, note=36, velocity=90, time=21),
    Message('note_on', channel=9, note=38, velocity=90, time=0),
    Message('note_on', channel=9, note=57, velocity=90, time=0),
    Message('note_on', channel=9, note=36, velocity=0, time=479),
    Message('note_on', channel=9, note=38, velocity=0, time=0),
    Message('note_on', channel=9, note=57, velocity=0, time=0),
    MetaMessage('end_of_track', time=0)])
])
