MidiFile(type=0, ticks_per_beat=480, tracks=[
  MidiTrack([
    MetaMessage('track_name', name='', time=0),
    Message('sysex', data=(126, 127, 9, 1), time=0),
    MetaMessage('time_signature', numerator=4, denominator=4, clocks_per_click=24, notated_32nd_notes_per_beat=8, time=0),
    MetaMessage('key_signature', key='C', time=0),
    MetaMessage('set_tempo', tempo=685714, time=0),
    Message('pitchwheel', channel=1, pitch=0, time=444),
    Message('pitchwheel', channel=2, pitch=0, time=16),
    Message('program_change', channel=0, program=52, time=22),
    Message('control_change', channel=0, control=7, value=110, time=1),
    Message('control_change', channel=0, control=10, value=64, time=0),
    Message('program_change', channel=1, program=33, time=4),
    Message('control_change', channel=1, control=7, value=127, time=1),
    Message('control_change', channel=1, control=10, value=64, time=0),
    Message('program_change', channel=2, program=4, time=4),
    Message('pitchwheel', channel=0, pitch=0, time=0),
    Message('control_change', channel=2, control=7, value=90, time=1),
    Message('control_change', channel=2, control=10, value=64, time=0),
    Message('program_change', channel=3, program=65, time=4),
    Message('program_change', channel=3, program=25, time=0),
    Message('control_change', channel=3, control=7, value=100, time=1),
    Message('control_change', channel=3, control=10, value=68, time=0),
    Message('control_change', channel=3, control=7, value=100, time=0),
    Message('control_change', channel=3, control=10, value=48, time=0),
    Message('program_change', channel=4, program=26, time=4),
    Message('control_change', channel=4, control=7, value=100, time=1),
    Message('control_change', channel=4, control=10, value=96, time=0),
    Message('program_change', channel=5, program=18, time=4),
    Message('pitchwheel', channel=3, pitch=0, time=1),
    Message('control_change', channel=5, control=7, value=90, time=0),
    Message('control_change', channel=5, control=10, value=16, time=0),
    Message('program_change', channel=6, program=78, time=4),
    Message('control_change', channel=6, control=7, value=100, time=1),
    Message('control_change', channel=6, control=10, value=112, time=0),
    Message('program_change', channel=7, program=125, time=4),
    Message('control_change', channel=7, control=7, value=100, time=1),
    Message('control_change', channel=7, control=10, value=64, time=0),
    Message('pitchwheel', channel=4, pitch=0, time=6),
    Message('control_change', channel=9, control=0, value=127, time=1),
    Message('control_change', channel=9, control=32, value=0, time=1),
    Message('program_change', channel=9, program=32, time=1),
    Message('control_change', channel=9, control=7, value=127, time=1),
    Message('control_change', channel=9, control=10, value=64, time=0),
    Message('pitchwheel', channel=5, pitch=0, time=12),
    Message('pitchwheel', channel=6, pitch=0, time=16),
    Message('control_change', channel=1, control=11, value=127, time=5),
    Message('control_change', channel=2, control=11, value=127, time=1),
    Message('control_change', channel=0, control=11, value=127, time=2),
    Message('control_change', channel=3, control=11, value=127, time=1),
    Message('control_change', channel=4, control=11, value=127, time=1),
    Message('control_change', channel=5, control=11, value=127, time=1),
    Message('pitchwheel', channel=9, pitch=0, time=0),
    Message('control_change', channel=6, control=11, value=127, time=1),
    Message('control_change', channel=9, control=11, value=127, time=1),
    Message('control_change', channel=7, control=11, value=127, time=1),
    Message('pitchwheel', channel=7, pitch=0, time=18),
    Message('control_change', channel=3, control=91, value=30, time=57),
    Message('control_change', channel=4, control=91, value=45, time=1),
    Message('control_change', channel=5, control=91, value=55, time=1),
    Message('control_change', channel=6, control=91, value=55, time=1),
    Message('control_change', channel=9, control=91, value=40, time=1),
    Message('control_change', channel=7, control=91, value=55, time=1),
    Message('control_change', channel=3, control=93, value=0, time=11),
    Message('control_change', channel=4, control=93, value=40, time=1),
    Message('control_change', channel=5, control=93, value=41, time=1),
    Message('control_change', channel=6, control=93, value=20, time=1),
    Message('control_change', channel=9, control=93, value=20, time=1),
    Message('control_change', channel=7, control=93, value=20, time=1),
    Message('control_change', channel=1, control=101, value=0, time=17),
    Message('control_change', channel=1, control=100, value=0, time=1),
    Message('control_change', channel=1, control=6, value=2, time=1),
    Message('control_change', channel=1, control=38, value=0, time=1),
    Message('control_change', channel=2, control=101, value=0, time=0),
    Message('control_change', channel=2, control=100, value=0, time=1),
    Message('control_change', channel=2, control=6, value=2, time=1),
    Message('control_change', channel=2, control=38, value=0, time=1),
    Message('control_change', channel=0, control=101, value=0, time=0),
    Message('control_change', channel=0, control=100, value=0, time=1),
    Message('control_change', channel=0, control=6, value=2, time=1),
    Message('control_change', channel=0, control=38, value=0, time=1),
    Message('control_change', channel=9, control=1, value=0, time=5),
    Message('control_change', channel=1, control=1, value=0, time=24),
    Message('control_change', channel=2, control=1, value=0, time=1),
    Message('control_change', channel=3, control=101, value=0, time=0),
    Message('control_change', channel=3, control=100, value=0, time=1),
    Message('control_change', channel=3, control=6, value=2, time=1),
    Message('control_change', channel=3, control=38, value=0, time=1),
    Message('control_change', channel=4, control=101, value=0, time=0),
    Message('control_change', channel=4, control=100, value=0, time=1),
    Message('control_change', channel=4, control=6, value=2, time=1),
    Message('control_change', channel=4, control=38, value=0, time=1),
    Message('control_change', channel=0, control=91, value=52, time=0),
    Message('control_change', channel=5, control=101, value=0, time=0),
    Message('control_change', channel=5, control=100, value=0, time=1),
    Message('control_change', channel=5, control=6, value=2, time=1),
    Message('control_change', channel=5, control=38, value=0, time=1),
    Message('control_change', channel=6, control=101, value=0, time=0),
    Message('control_change', channel=6, control=100, value=0, time=1),
    Message('control_change', channel=6, control=6, value=2, time=1),
    Message('control_change', channel=6, control=38, value=0, time=1),
    Message('control_change', channel=7, control=101, value=0, time=0),
    Message('control_change', channel=7, control=100, value=0, time=1),
    Message('control_change', channel=7, control=6, value=2, time=1),
    Message('control_change', channel=7, control=38, value=0, time=1),
    Message('control_change', channel=1, control=91, value=0, time=0),
    Message('control_change', channel=2, control=91, value=41, time=1),
    Message('control_change', channel=0, control=93, value=23, time=2),
    Message('control_change', channel=1, control=93, value=0, time=13),
    Message('control_change', channel=2, control=93, value=22, time=1),
    Message('control_change', channel=0, control=1, value=0, time=2),
    Message('control_change', channel=3, control=1, value=0, time=1),
    Message('control_change', channel=4, control=1, value=0, time=1),
    Message('control_change', channel=5, control=1, value=0, time=1),
    Message('control_change', channel=6, control=1, value=0, time=1),
    Message('control_change', channel=7, control=1, value=0, time=2),
    Message('note_on', channel=9, note=42, velocity=90, time=8838),
    Message('note_on', channel=9, note=42, velocity=0, time=1),
    Message('note_on', channel=9, note=42, velocity=90, time=479),
    Message('note_on', channel=9, note=42, velocity=0, time=1),
    Message('note_on', channel=9, note=42, velocity=90, time=479),
    Message('note_on', channel=9, note=42, velocity=0, time=1),
    Message('note_on', channel=9, note=42, velocity=90, time=479),
    Message('note_on', channel=9, note=42, velocity=0, time=1),
    Message('note_on', channel=3, note=47, velocity=98, time=479),
    Message('note_on', channel=4, note=47, velocity=98, time=0),
    Message('note_on', channel=9, note=64, velocity=94, time=0),
    Message('note_on', channel=9, note=64, velocity=0, time=60),
    Message('note_on', channel=4, note=47, velocity=0, time=108),
    Message('note_on', channel=3, note=47, velocity=0, time=0),
    Message('note_on', channel=3, note=59, velocity=101, time=72),
    Message('note_on', channel=3, note=71, velocity=89, time=0),
    Message('note_on', channel=3, note=66, velocity=105, time=0),
    Message('note_on', channel=3, note=63, velocity=101, time=0),
    Message('note_on', channel=4, note=59, velocity=101, time=0),
    Message('note_on', channel=4, note=71, velocity=89, time=0),
    Message('note_on', channel=4, note=66, velocity=105, time=0),
    Message('note_on', channel=4, note=63, velocity=101, time=0),
    Message('note_on', channel=9, note=63, velocity=119, time=0),
    Message('note_on', channel=9, note=63, velocity=0, time=37),
    Message('note_on', channel=4, note=59, velocity=0, time=58),
    Message('note_on', channel=3, note=59, velocity=0, time=0),
    Message('note_on', channel=3, note=66, velocity=0, time=5),
    Message('note_on', channel=4, note=66, velocity=0, time=0),
    Message('note_on', channel=3, note=63, velocity=0, time=6),
    Message('note_on', channel=4, note=63, velocity=0, time=0),
    Message('note_on', channel=4, note=71, velocity=0, time=10),
    Message('note_on', channel=3, note=71, velocity=0, time=0),
    Message('note_on', channel=3, note=54, velocity=112, time=124),
    Message('note_on', channel=3, note=47, velocity=82, time=0),
    Message('note_on', channel=4, note=54, velocity=112, time=0),
    Message('note_on', channel=4, note=47, velocity=82, time=0),
    Message('note_on', channel=9, note=54, velocity=127, time=0),
    Message('note_on', channel=4, note=54, velocity=0, time=7),
    Message('note_on', channel=3, note=54, velocity=0, time=0),
    Message('note_on', channel=3, note=47, velocity=0, time=1),
    Message('note_on', channel=4, note=47, velocity=0, time=0),
    Message('note_on', channel=9, note=54, velocity=0, time=32),
    Message('note_on', channel=9, note=64, velocity=101, time=80),
    Message('note_on', channel=9, note=64, velocity=0, time=49),
    Message('note_on', channel=3, note=63, velocity=109, time=71),
    Message('note_on', channel=3, note=66, velocity=112, time=0),
    Message('note_on', channel=3, note=59, velocity=103, time=0),
    Message('note_on', channel=3, note=71, velocity=93, time=0),
    Message('note_on', channel=4, note=66, velocity=112, time=0),
    Message('note_on', channel=4, note=59, velocity=103, time=0),
    Message('note_on', channel=4, note=63, velocity=109, time=0),
    Message('note_on', channel=4, note=71, velocity=93, time=0),
    Message('note_on', channel=9, note=63, velocity=122, time=0),
    Message('note_on', channel=9, note=63, velocity=0, time=42),
    Message('note_on', channel=9, note=63, velocity=114, time=78),
    Message('note_on', channel=4, note=66, velocity=0, time=10),
    Message('note_on', channel=3, note=66, velocity=0, time=0),
    Message('note_on', channel=4, note=59, velocity=0, time=6),
    Message('note_on', channel=3, note=59, velocity=0, time=0),
    Message('note_on', channel=3, note=63, velocity=0, time=2),
    Message('note_on', channel=4, note=63, velocity=0, time=0),
    Message('note_on', channel=4, note=71, velocity=0, time=13),
    Message('note_on', channel=3, note=71, velocity=0, time=0),
    Message('note_on', channel=9, note=63, velocity=0, time=5),
    Message('note_on', channel=3, note=54, velocity=112, time=84),
    Message('note_on', channel=4, note=54, velocity=112, time=0),
    Message('note_on', channel=9, note=64, velocity=93, time=0),
    Message('note_on', channel=9, note=64, velocity=0, time=40),
    Message('note_on', channel=4, note=54, velocity=0, time=168),
    Message('note_on', channel=3, note=54, velocity=0, time=0),
    Message('note_on', channel=3, note=66, velocity=105, time=32),
    Message('note_on', channel=3, note=61, velocity=94, time=0),
    Message('note_on', channel=3, note=70, velocity=109, time=0),
    Message('note_on', channel=4, note=70, velocity=109, time=0),
    Message('note_on', channel=4, note=66, velocity=105, time=0),
    Message('note_on', channel=4, note=61, velocity=94, time=0),
    Message('note_on', channel=9, note=63, velocity=122, time=0),
    Message('note_on', channel=9, note=63, velocity=0, time=32),
    Message('note_on', channel=3, note=70, velocity=0, time=50),
    Message('note_on', channel=4, note=70, velocity=0, time=0),
    Message('note_on', channel=4, note=61, velocity=0, time=2),
    Message('note_on', channel=3, note=61, velocity=0, time=0),
    Message('note_on', channel=3, note=66, velocity=0, time=14),
    Message('note_on', channel=4, note=66, velocity=0, time=0),
    Message('note_on', channel=3, note=49, velocity=114, time=142),
    Message('note_on', channel=3, note=42, velocity=105, time=0),
    Message('note_on', channel=4, note=42, velocity=105, time=0),
    Message('note_on', channel=4, note=49, velocity=114, time=0),
    Message('note_on', channel=9, note=54, velocity=127, time=0),
    Message('note_on', channel=4, note=42, velocity=0, time=7),
    Message('note_on', channel=3, note=42, velocity=0, time=0),
    Message('note_on', channel=3, note=49, velocity=0, time=1),
    Message('note_on', channel=4, note=49, velocity=0, time=0),
    Message('note_on', channel=9, note=54, velocity=0, time=29),
    Message('note_on', channel=9, note=64, velocity=101, time=83),
    Message('note_on', channel=9, note=64, velocity=0, time=39),
    Message('note_on', channel=3, note=66, velocity=93, time=81),
    Message('note_on', channel=3, note=70, velocity=105, time=0),
    Message('note_on', channel=3, note=61, velocity=98, time=0),
    Message('note_on', channel=4, note=66, velocity=93, time=0),
    Message('note_on', channel=4, note=70, velocity=105, time=0),
    Message('note_on', channel=4, note=61, velocity=98, time=0),
    Message('note_on', channel=9, note=63, velocity=122, time=0),
    Message('note_on', channel=9, note=63, velocity=0, time=38),
    Message('note_on', channel=3, note=70, velocity=0, time=64),
    Message('note_on', channel=4, note=70, velocity=0, time=0),
    Message('note_on', channel=4, note=61, velocity=0, time=6),
    Message('note_on', channel=3, note=61, velocity=0, time=0),
    Message('note_on', channel=3, note=66, velocity=0, time=8),
    Message('note_on', channel=4, note=66, velocity=0, time=0),
    Message('note_on', channel=9, note=63, velocity=122, time=4),
    Message('note_on', channel=9, note=63, velocity=0, time=39),
    Message('note_on', channel=3, note=52, velocity=122, time=81),
    Message('note_on', channel=4, note=52, velocity=122, time=0),
    Message('note_on', channel=9, note=64, velocity=94, time=0),
    Message('note_on', channel=9, note=64, velocity=0, time=60),
    Message('note_on', channel=4, note=52, velocity=0, time=162),
    Message('note_on', channel=3, note=52, velocity=0, time=0),
    Message('note_on', channel=3, note=68, velocity=114, time=18),
    Message('note_on', channel=3, note=64, velocity=107, time=0),
    Message('note_on', channel=3, note=59, velocity=101, time=0),
    Message('note_on', channel=4, note=68, velocity=114, time=0),
    Message('note_on', channel=4, note=64, velocity=107, time=0),
    Message('note_on', channel=4, note=59, velocity=101, time=0),
    Message('note_on', channel=9, note=63, velocity=119, time=0),
    Message('note_on', channel=9, note=63, velocity=0, time=37),
    Message('note_on', channel=3, note=68, velocity=0, time=89),
    Message('note_on', channel=4, note=68, velocity=0, time=0),
    Message('note_on', channel=4, note=59, velocity=0, time=2),
    Message('note_on', channel=3, note=59, velocity=0, time=0),
    Message('note_on', channel=3, note=64, velocity=0, time=3),
    Message('note_on', channel=4, note=64, velocity=0, time=0),
    Message('note_on', channel=3, note=59, velocity=105, time=109),
    Message('note_on', channel=3, note=52, velocity=103, time=0),
    Message('note_on', channel=4, note=59, velocity=105, time=0),
    Message('note_on', channel=4, note=52, velocity=103, time=0),
    Message('note_on', channel=9, note=54, velocity=127, time=0),
    Message('note_on', channel=4, note=52, velocity=0, time=8),
    Message('note_on', channel=3, note=52, velocity=0, time=0),
    Message('note_on', channel=3, note=59, velocity=0, time=2),
    Message('note_on', channel=4, note=59, velocity=0, time=0),
    Message('note_on', channel=9, note=54, velocity=0, time=25),
    Message('note_on', channel=9, note=64, velocity=101, time=85),
    Message('note_on', channel=9, note=64, velocity=0, time=49),
    Message('note_on', channel=3, note=68, velocity=112, time=71),
    Message('note_on', channel=3, note=59, velocity=91, time=0),
    Message('note_on', channel=3, note=64, velocity=101, time=0),
    Message('note_on', channel=4, note=68, velocity=112, time=0),
    Message('note_on', channel=4, note=59, velocity=91, time=0),
    Message('note_on', channel=4, note=64, velocity=101, time=0),
    Message('note_on', channel=9, note=63, velocity=122, time=0),
    Message('note_on', channel=9, note=63, velocity=0, time=42),
    Message('note_on', channel=9, note=63, velocity=114, time=78),
    Message('note_on', channel=3, note=64, velocity=0, time=7),
    Message('note_on', channel=4, note=64, velocity=0, time=0),
    Message('note_on', channel=4, note=59, velocity=0, time=2),
    Message('note_on', channel=3, note=59, velocity=0, time=0),
    Message('note_on', channel=3, note=68, velocity=0, time=4),
    Message('note_on', channel=4, note=68, velocity=0, time=0),
    Message('note_on', channel=9, note=63, velocity=0, time=23),
    Message('note_on', channel=9, note=64, velocity=93, time=84),
    Message('note_on', channel=9, note=64, velocity=0, time=40),
    Message('note_on', channel=3, note=59, velocity=94, time=200),
    Message('note_on', channel=3, note=68, velocity=109, time=0),
    Message('note_on', channel=3, note=64, velocity=98, time=0),
    Message('note_on', channel=4, note=68, velocity=109, time=0),
    Message('note_on', channel=4, note=59, velocity=94, time=0),
    Message('note_on', channel=4, note=64, velocity=98, time=0),
    Message('note_on', channel=9, note=63, velocity=122, time=0),
    Message('note_on', channel=9, note=63, velocity=0, time=32),
    Message('note_on', channel=3, note=59, velocity=0, time=84),
    Message('note_on', channel=4, note=59, velocity=0, time=0),
    Message('note_on', channel=4, note=64, velocity=0, time=10),
    Message('note_on', channel=3, note=64, velocity=0, time=0),
    Message('note_on', channel=3, note=68, velocity=0, time=6),
    Message('note_on', channel=4, note=68, velocity=0, time=0),
    Message('note_on', channel=3, note=40, velocity=98, time=108),
    Message('note_on', channel=3, note=47, velocity=116, time=0),
    Message('note_on', channel=4, note=47, velocity=116, time=0),
    Message('note_on', channel=4, note=40, velocity=98, time=0),
    Message('note_on', channel=9, note=54, velocity=127, time=0),
    Message('note_on', channel=4, note=47, velocity=0, time=25),
    Message('note_on', channel=3, note=47, velocity=0, time=0),
    Message('note_on', channel=3, note=40, velocity=0, time=1),
    Message('note_on', channel=4, note=40, velocity=0, time=0),
    Message('note_on', channel=9, note=54, velocity=0, time=10),
    Message('note_on', channel=9, note=64, velocity=101, time=84),
    Message('note_on', channel=9, note=64, velocity=0, time=39),
    Message('note_on', channel=3, note=64, velocity=103, time=81),
    Message('note_on', channel=3, note=68, velocity=112, time=0),
    Message('note_on', channel=3, note=59, velocity=96, time=0),
    Message('note_on', channel=4, note=64, velocity=103, time=0),
    Message('note_on', channel=4, note=68, velocity=112, time=0),
    Message('note_on', channel=4, note=59, velocity=96, time=0),
    Message('note_on', channel=9, note=63, velocity=122, time=0),
    Message('note_on', channel=9, note=63, velocity=0, time=38),
    Message('note_on', channel=9, note=63, velocity=122, time=82),
    Message('note_on', channel=3, note=59, velocity=0, time=5),
    Message('note_on', channel=4, note=59, velocity=0, time=0),
    Message('note_on', channel=4, note=64, velocity=0, time=1),
    Message('note_on', channel=3, note=64, velocity=0, time=0),
    Message('note_on', channel=3, note=68, velocity=0, time=9),
    Message('note_on', channel=4, note=68, velocity=0, time=0),
    Message('note_on', channel=9, note=63, velocity=0, time=24),
    Message('note_on', channel=3, note=47, velocity=98, time=81),
    Message('note_on', channel=4, note=47, velocity=98, time=0),
    Message('note_on', channel=9, note=64, velocity=94, time=0),
    Message('note_on', channel=9, note=64, velocity=0, time=60),
    Message('note_on', channel=4, note=47, velocity=0, time=108),
    Message('note_on', channel=3, note=47, velocity=0, time=0),
    Message('note_on', channel=3, note=59, velocity=101, time=72),
    Message('note_on', channel=3, note=71, velocity=89, time=0),
    Message('note_on', channel=3, note=66, velocity=105, time=0),
    Message('note_on', channel=3, note=63, velocity=101, time=0),
    Message('note_on', channel=4, note=59, velocity=101, time=0),
    Message('note_on', channel=4, note=71, velocity=89, time=0),
    Message('note_on', channel=4, note=63, velocity=101, time=0),
    Message('note_on', channel=4, note=66, velocity=105, time=0),
    Message('note_on', channel=9, note=63, velocity=119, time=0),
    Message('note_on', channel=9, note=63, velocity=0, time=37),
    Message('note_on', channel=4, note=59, velocity=0, time=58),
    Message('note_on', channel=3, note=59, velocity=0, time=0),
    Message('note_on', channel=4, note=66, velocity=0, time=5),
    Message('note_on', channel=3, note=66, velocity=0, time=0),
    Message('note_on', channel=3, note=63, velocity=0, time=6),
    Message('note_on', channel=4, note=63, velocity=0, time=0),
    Message('note_on', channel=4, note=71, velocity=0, time=10),
    Message('note_on', channel=3, note=71, velocity=0, time=0),
    Message('note_on', channel=3, note=54, velocity=112, time=124),
    Message('note_on', channel=3, note=47, velocity=82, time=0),
    Message('note_on', channel=4, note=47, velocity=82, time=0),
    Message('note_on', channel=4, note=54, velocity=112, time=0),
    Message('note_on', channel=9, note=54, velocity=127, time=0),
    Message('note_on', channel=4, note=54, velocity=0, time=7),
    Message('note_on', channel=3, note=54, velocity=0, time=0),
    Message('note_on', channel=3, note=47, velocity=0, time=1),
    Message('note_on', channel=4, note=47, velocity=0, time=0),
    Message('note_on', channel=9, note=54, velocity=0, time=37),
    Message('note_on', channel=9, note=64, velocity=101, time=75),
    Message('note_on', channel=9, note=64, velocity=0, time=49),
    Message('note_on', channel=3, note=63, velocity=109, time=71),
    Message('note_on', channel=3, note=66, velocity=112, time=0),
    Message('note_on', channel=3, note=59, velocity=103, time=0),
    Message('note_on', channel=3, note=71, velocity=93, time=0),
    Message('note_on', channel=4, note=66, velocity=112, time=0),
    Message('note_on', channel=4, note=71, velocity=93, time=0),
    Message('note_on', channel=4, note=59, velocity=103, time=0),
    Message('note_on', channel=4, note=63, velocity=109, time=0),
    Message('note_on', channel=9, note=63, velocity=122, time=0),
    Message('note_on', channel=9, note=63, velocity=0, time=42),
    Message('note_on', channel=9, note=63, velocity=114, time=78),
    Message('note_on', channel=4, note=66, velocity=0, time=10),
    Message('note_on', channel=3, note=66, velocity=0, time=0),
    Message('note_on', channel=4, note=59, velocity=0, time=6),
    Message('note_on', channel=3, note=59, velocity=0, time=0),
    Message('note_on', channel=4, note=63, velocity=0, time=2),
    Message('note_on', channel=3, note=63, velocity=0, time=0),
    Message('note_on', channel=3, note=71, velocity=0, time=13),
    Message('note_on', channel=4, note=71, velocity=0, time=0),
    Message('note_on', channel=9, note=63, velocity=0, time=5),
    Message('note_on', channel=3, note=54, velocity=112, time=84),
    Message('note_on', channel=4, note=54, velocity=112, time=0),
    Message('note_on', channel=9, note=64, velocity=93, time=0),
    Message('note_on', channel=9, note=64, velocity=0, time=40),
    Message('note_on', channel=4, note=54, velocity=0, time=168),
    Message('note_on', channel=3, note=54, velocity=0, time=0),
    Message('note_on', channel=3, note=66, velocity=105, time=32),
    Message('note_on', channel=3, note=61, velocity=94, time=0),
    Message('note_on', channel=3, note=70, velocity=109, time=0),
    Message('note_on', channel=4, note=66, velocity=105, time=0),
    Message('note_on', channel=4, note=70, velocity=109, time=0),
    Message('note_on', channel=4, note=61, velocity=94, time=0),
    Message('note_on', channel=9, note=63, velocity=122, time=0),
    Message('note_on', channel=9, note=63, velocity=0, time=32),
    Message('note_on', channel=3, note=70, velocity=0, time=50),
    Message('note_on', channel=4, note=70, velocity=0, time=0),
    Message('note_on', channel=4, note=61, velocity=0, time=2),
    Message('note_on', channel=3, note=61, velocity=0, time=0),
    Message('note_on', channel=3, note=66, velocity=0, time=14),
    Message('note_on', channel=4, note=66, velocity=0, time=0),
    Message('note_on', channel=3, note=49, velocity=114, time=142),
    Message('note_on', channel=3, note=42, velocity=105, time=0),
    Message('note_on', channel=4, note=42, velocity=105, time=0),
    Message('note_on', channel=4, note=49, velocity=114, time=0),
    Message('note_on', channel=9, note=54, velocity=127, time=0),
    Message('note_on', channel=4, note=42, velocity=0, time=7),
    Message('note_on', channel=3, note=42, velocity=0, time=0),
    Message('note_on', channel=3, note=49, velocity=0, time=1),
    Message('note_on', channel=4, note=49, velocity=0, time=0),
    Message('note_on', channel=9, note=54, velocity=0, time=33),
    Message('note_on', channel=9, note=64, velocity=101, time=79),
    Message('note_on', channel=9, note=64, velocity=0, time=39),
    Message('note_on', channel=3, note=66, velocity=93, time=81),
    Message('note_on', channel=3, note=70, velocity=105, time=0),
    Message('note_on', channel=3, note=61, velocity=98, time=0),
    Message('note_on', channel=4, note=66, velocity=93, time=0),
    Message('note_on', channel=4, note=70, velocity=105, time=0),
    Message('note_on', channel=4, note=61, velocity=98, time=0),
    Message('note_on', channel=9, note=63, velocity=122, time=0),
    Message('note_on', channel=9, note=63, velocity=0, time=38),
    Message('note_on', channel=3, note=70, velocity=0, time=64),
    Message('note_on', channel=4, note=70, velocity=0, time=0),
    Message('note_on', channel=4, note=61, velocity=0, time=6),
    Message('note_on', channel=3, note=61, velocity=0, time=0),
    Message('note_on', channel=3, note=66, velocity=0, time=8),
    Message('note_on', channel=4, note=66, velocity=0, time=0),
    Message('note_on', channel=9, note=63, velocity=122, time=4),
    Message('note_on', channel=9, note=63, velocity=0, time=39),
    Message('note_on', channel=3, note=52, velocity=122, time=81),
    Message('note_on', channel=4, note=52, velocity=122, time=0),
    Message('note_on', channel=9, note=64, velocity=94, time=0),
    Message('note_on', channel=9, note=64, velocity=0, time=60),
    Message('note_on', channel=4, note=52, velocity=0, time=162),
    Message('note_on', channel=3, note=52, velocity=0, time=0),
    Message('note_on', channel=3, note=68, velocity=114, time=18),
    Message('note_on', channel=3, note=64, velocity=107, time=0),
    Message('note_on', channel=3, note=59, velocity=101, time=0),
    Message('note_on', channel=4, note=68, velocity=114, time=0),
    Message('note_on', channel=4, note=64, velocity=107, time=0),
    Message('note_on', channel=4, note=59, velocity=101, time=0),
    Message('note_on', channel=9, note=63, velocity=119, time=0),
    Message('note_on', channel=9, note=63, velocity=0, time=37),
    Message('note_on', channel=3, note=68, velocity=0, time=89),
    Message('note_on', channel=4, note=68, velocity=0, time=0),
    Message('note_on', channel=4, note=59, velocity=0, time=2),
    Message('note_on', channel=3, note=59, velocity=0, time=0),
    Message('note_on', channel=3, note=64, velocity=0, time=3),
    Message('note_on', channel=4, note=64, velocity=0, time=0),
    Message('note_on', channel=3, note=59, velocity=105, time=109),
    Message('note_on', channel=3, note=52, velocity=103, time=0),
    Message('note_on', channel=4, note=59, velocity=105, time=0),
    Message('note_on', channel=4, note=52, velocity=103, time=0),
    Message('note_on', channel=9, note=54, velocity=127, time=0),
    Message('note_on', channel=4, note=52, velocity=0, time=8),
    Message('note_on', channel=3, note=52, velocity=0, time=0),
    Message('note_on', channel=3, note=59, velocity=0, time=2),
    Message('note_on', channel=4, note=59, velocity=0, time=0),
    Message('note_on', channel=9, note=54, velocity=0, time=30),
    Message('note_on', channel=9, note=64, velocity=101, time=80),
    Message('note_on', channel=9, note=64, velocity=0, time=49),
    Message('note_on', channel=3, note=68, velocity=112, time=71),
    Message('note_on', channel=3, note=59, velocity=91, time=0),
    Message('note_on', channel=3, note=64, velocity=101, time=0),
    Message('note_on', channel=4, note=68, velocity=112, time=0),
    Message('note_on', channel=4, note=64, velocity=101, time=0),
    Message('note_on', channel=4, note=59, velocity=91, time=0),
    Message('note_on', channel=9, note=63, velocity=122, time=0),
    Message('note_on', channel=9, note=63, velocity=0, time=42),
    Message('note_on', channel=9, note=63, velocity=114, time=78),
    Message('note_on', channel=3, note=64, velocity=0, time=7),
    Message('note_on', channel=4, note=64, velocity=0, time=0),
    Message('note_on', channel=4, note=59, velocity=0, time=2),
    Message('note_on', channel=3, note=59, velocity=0, time=0),
    Message('note_on', channel=3, note=68, velocity=0, time=4),
    Message('note_on', channel=4, note=68, velocity=0, time=0),
    Message('note_on', channel=9, note=63, velocity=0, time=23),
    Message('note_on', channel=9, note=64, velocity=93, time=84),
    Message('note_on', channel=9, note=64, velocity=0, time=40),
    Message('note_on', channel=3, note=59, velocity=94, time=200),
    Message('note_on', channel=3, note=68, velocity=109, time=0),
    Message('note_on', channel=3, note=64, velocity=98, time=0),
    Message('note_on', channel=4, note=59, velocity=94, time=0),
    Message('note_on', channel=4, note=68, velocity=109, time=0),
    Message('note_on', channel=4, note=64, velocity=98, time=0),
    Message('note_on', channel=9, note=63, velocity=122, time=0),
    Message('note_on', channel=9, note=63, velocity=0, time=32),
    Message('note_on', channel=3, note=59, velocity=0, time=84),
    Message('note_on', channel=4, note=59, velocity=0, time=0),
    Message('note_on', channel=4, note=64, velocity=0, time=10),
    Message('note_on', channel=3, note=64, velocity=0, time=0),
    Message('note_on', channel=3, note=68, velocity=0, time=6),
    Message('note_on', channel=4, note=68, velocity=0, time=0),
    Message('note_on', channel=3, note=47, velocity=116, time=108),
    Message('note_on', channel=3, note=40, velocity=98, time=0),
    Message('note_on', channel=4, note=47, velocity=116, time=0),
    Message('note_on', channel=4, note=40, velocity=98, time=0),
    Message('note_on', channel=9, note=54, velocity=127, time=0),
    Message('note_on', channel=4, note=47, velocity=0, time=25),
    Message('note_on', channel=3, note=47, velocity=0, time=0),
    Message('note_on', channel=3, note=40, velocity=0, time=1),
    Message('note_on', channel=4, note=40, velocity=0, time=0),
    Message('note_on', channel=9, note=54, velocity=0, time=11),
    Message('note_on', channel=9, note=64, velocity=101, time=83),
    Message('note_on', channel=9, note=64, velocity=0, time=39),
    Message('note_on', channel=3, note=68, velocity=112, time=81),
    Message('note_on', channel=3, note=64, velocity=103, time=0),
    Message('note_on', channel=3, note=59, velocity=96, time=0),
    Message('note_on', channel=4, note=64, velocity=103, time=0),
    Message('note_on', channel=4, note=59, velocity=96, time=0),
    Message('note_on', channel=4, note=68, velocity=112, time=0),
    Message('note_on', channel=9, note=63, velocity=122, time=0),
    Message('note_on', channel=9, note=63, velocity=0, time=38),
    Message('note_on', channel=9, note=63, velocity=122, time=82),
    Message('note_on', channel=3, note=59, velocity=0, time=5),
    Message('note_on', channel=4, note=59, velocity=0, time=0),
    Message('note_on', channel=3, note=64, velocity=0, time=1),
    Message('note_on', channel=4, note=64, velocity=0, time=0),
    Message('note_on', channel=3, note=68, velocity=0, time=9),
    Message('note_on', channel=4, note=68, velocity=0, time=0),
    Message('note_on', channel=9, note=63, velocity=0, time=24),
    Message('note_on', channel=3, note=47, velocity=98, time=81),
    Message('note_on', channel=4, note=47, velocity=98, time=0),
    Message('note_on', channel=9, note=64, velocity=94, time=0),
    Message('note_on', channel=9, note=64, velocity=0, time=60),
    Message('note_on', channel=4, note=47, velocity=0, time=108),
    Message('note_on', channel=3, note=47, velocity=0, time=0),
    Message('note_on', channel=3, note=59, velocity=101, time=72),
    Message('note_on', channel=3, note=71, velocity=89, time=0),
    Message('note_on', channel=3, note=66, velocity=105, time=0),
    Message('note_on', channel=3, note=63, velocity=101, time=0),
    Message('note_on', channel=4, note=59, velocity=101, time=0),
    Message('note_on', channel=4, note=71, velocity=89, time=0),
    Message('note_on', channel=4, note=63, velocity=101, time=0),
    Message('note_on', channel=4, note=66, velocity=105, time=0),
    Message('note_on', channel=9, note=63, velocity=119, time=0),
    Message('note_on', channel=9, note=63, velocity=0, time=37),
    Message('note_on', channel=4, note=59, velocity=0, time=58),
    Message('note_on', channel=3, note=59, velocity=0, time=0),
    Message('note_on', channel=4, note=66, velocity=0, time=5),
    Message('note_on', channel=3, note=66, velocity=0, time=0),
    Message('note_on', channel=3, note=63, velocity=0, time=6),
    Message('note_on', channel=4, note=63, velocity=0, time=0),
    Message('note_on', channel=4, note=71, velocity=0, time=10),
    Message('note_on', channel=3, note=71, velocity=0, time=0),
    Message('note_on', channel=3, note=54, velocity=112, time=124),
    Message('note_on', channel=3, note=47, velocity=82, time=0),
    Message('note_on', channel=4, note=47, velocity=82, time=0),
    Message('note_on', channel=4, note=54, velocity=112, time=0),
    Message('note_on', channel=9, note=54, velocity=127, time=0),
    Message('note_on', channel=4, note=54, velocity=0, time=7),
    Message('note_on', channel=3, note=54, velocity=0, time=0),
    Message('note_on', channel=3, note=47, velocity=0, time=1),
    Message('note_on', channel=4, note=47, velocity=0, time=0),
    Message('note_on', channel=9, note=54, velocity=0, time=27),
    Message('note_on', channel=9, note=64, velocity=101, time=85),
    Message('note_on', channel=9, note=64, velocity=0, time=49),
    Message('note_on', channel=3, note=63, velocity=109, time=71),
    Message('note_on', channel=3, note=66, velocity=112, time=0),
    Message('note_on', channel=3, note=59, velocity=103, time=0),
    Message('note_on', channel=3, note=71, velocity=93, time=0),
    Message('note_on', channel=4, note=66, velocity=112, time=0),
    Message('note_on', channel=4, note=71, velocity=93, time=0),
    Message('note_on', channel=4, note=63, velocity=109, time=0),
    Message('note_on', channel=4, note=59, velocity=103, time=0),
    Message('note_on', channel=9, note=63, velocity=122, time=0),
    Message('note_on', channel=9, note=63, velocity=0, time=42),
    Message('note_on', channel=9, note=63, velocity=114, time=78),
    Message('note_on', channel=4, note=66, velocity=0, time=10),
    Message('note_on', channel=3, note=66, velocity=0, time=0),
    Message('note_on', channel=4, note=59, velocity=0, time=6),
    Message('note_on', channel=3, note=59, velocity=0, time=0),
    Message('note_on', channel=3, note=63, velocity=0, time=2),
    Message('note_on', channel=4, note=63, velocity=0, time=0),
    Message('note_on', channel=3, note=71, velocity=0, time=13),
    Message('note_on', channel=4, note=71, velocity=0, time=0),
    Message('note_on', channel=9, note=63, velocity=0, time=5),
    Message('note_on', channel=3, note=54, velocity=112, time=84),
    Message('note_on', channel=4, note=54, velocity=112, time=0),
    Message('note_on', channel=9, note=64, velocity=93, time=0),
    Message('note_on', channel=9, note=64, velocity=0, time=40),
    Message('note_on', channel=4, note=54, velocity=0, time=168),
    Message('note_on', channel=3, note=54, velocity=0, time=0),
    Message('note_on', channel=3, note=66, velocity=105, time=32),
    Message('note_on', channel=3, note=61, velocity=94, time=0),
    Message('note_on', channel=3, note=70, velocity=109, time=0),
    Message('note_on', channel=4, note=66, velocity=105, time=0),
    Message('note_on', channel=4, note=61, velocity=94, time=0),
    Message('note_on', channel=4, note=70, velocity=109, time=0),
    Message('note_on', channel=9, note=63, velocity=122, time=0),
    Message('note_on', channel=9, note=63, velocity=0, time=32),
    Message('note_on', channel=3, note=70, velocity=0, time=50),
    Message('note_on', channel=4, note=70, velocity=0, time=0),
    Message('note_on', channel=4, note=61, velocity=0, time=2),
    Message('note_on', channel=3, note=61, velocity=0, time=0),
    Message('note_on', channel=3, note=66, velocity=0, time=14),
    Message('note_on', channel=4, note=66, velocity=0, time=0),
    Message('note_on', channel=3, note=49, velocity=114, time=142),
    Message('note_on', channel=3, note=42, velocity=105, time=0),
    Message('note_on', channel=4, note=49, velocity=114, time=0),
    Message('note_on', channel=4, note=42, velocity=105, time=0),
    Message('note_on', channel=9, note=54, velocity=127, time=0),
    Message('note_on', channel=4, note=42, velocity=0, time=7),
    Message('note_on', channel=3, note=42, velocity=0, time=0),
    Message('note_on', channel=3, note=49, velocity=0, time=1),
    Message('note_on', channel=4, note=49, velocity=0, time=0),
    Message('note_on', channel=9, note=54, velocity=0, time=28),
    Message('note_on', channel=9, note=64, velocity=101, time=84),
    Message('note_on', channel=9, note=64, velocity=0, time=39),
    Message('note_on', channel=3, note=66, velocity=93, time=81),
    Message('note_on', channel=3, note=70, velocity=105, time=0),
    Message('note_on', channel=3, note=61, velocity=98, time=0),
    Message('note_on', channel=4, note=66, velocity=93, time=0),
    Message('note_on', channel=4, note=70, velocity=105, time=0),
    Message('note_on', channel=4, note=61, velocity=98, time=0),
    Message('note_on', channel=9, note=63, velocity=122, time=0),
    Message('note_on', channel=9, note=63, velocity=0, time=38),
    Message('note_on', channel=3, note=70, velocity=0, time=64),
    Message('note_on', channel=4, note=70, velocity=0, time=0),
    Message('note_on', channel=4, note=61, velocity=0, time=6),
    Message('note_on', channel=3, note=61, velocity=0, time=0),
    Message('note_on', channel=3, note=66, velocity=0, time=8),
    Message('note_on', channel=4, note=66, velocity=0, time=0),
    Message('note_on', channel=9, note=63, velocity=122, time=4),
    Message('note_on', channel=9, note=63, velocity=0, time=39),
    Message('note_on', channel=3, note=52, velocity=122, time=81),
    Message('note_on', channel=4, note=52, velocity=122, time=0),
    Message('note_on', channel=9, note=64, velocity=94, time=0),
    Message('note_on', channel=9, note=64, velocity=0, time=60),
    Message('note_on', channel=4, note=52, velocity=0, time=162),
    Message('note_on', channel=3, note=52, velocity=0, time=0),
    Message('note_on', channel=3, note=68, velocity=114, time=18),
    Message('note_on', channel=3, note=64, velocity=107, time=0),
    Message('note_on', channel=3, note=59, velocity=101, time=0),
    Message('note_on', channel=4, note=68, velocity=114, time=0),
    Message('note_on', channel=4, note=64, velocity=107, time=0),
    Message('note_on', channel=4, note=59, velocity=101, time=0),
    Message('note_on', channel=9, note=63, velocity=119, time=0),
    Message('note_on', channel=9, note=63, velocity=0, time=37),
    Message('note_on', channel=3, note=68, velocity=0, time=89),
    Message('note_on', channel=4, note=68, velocity=0, time=0),
    Message('note_on', channel=4, note=59, velocity=0, time=2),
    Message('note_on', channel=3, note=59, velocity=0, time=0),
    Message('note_on', channel=3, note=64, velocity=0, time=3),
    Message('note_on', channel=4, note=64, velocity=0, time=0),
    Message('note_on', channel=3, note=59, velocity=105, time=109),
    Message('note_on', channel=3, note=52, velocity=103, time=0),
    Message('note_on', channel=4, note=52, velocity=103, time=0),
    Message('note_on', channel=4, note=59, velocity=105, time=0),
    Message('note_on', channel=9, note=54, velocity=127, time=0),
    Message('note_on', channel=4, note=52, velocity=0, time=8),
    Message('note_on', channel=3, note=52, velocity=0, time=0),
    Message('note_on', channel=3, note=59, velocity=0, time=2),
    Message('note_on', channel=4, note=59, velocity=0, time=0),
    Message('note_on', channel=9, note=54, velocity=0, time=30),
    Message('note_on', channel=9, note=64, velocity=101, time=80),
    Message('note_on', channel=9, note=64, velocity=0, time=49),
    Message('note_on', channel=3, note=68, velocity=112, time=71),
    Message('note_on', channel=3, note=59, velocity=91, time=0),
    Message('note_on', channel=3, note=64, velocity=101, time=0),
    Message('note_on', channel=4, note=64, velocity=101, time=0),
    Message('note_on', channel=4, note=68, velocity=112, time=0),
    Message('note_on', channel=4, note=59, velocity=91, time=0),
    Message('note_on', channel=9, note=63, velocity=122, time=0),
    Message('note_on', channel=9, note=63, velocity=0, time=42),
    Message('note_on', channel=9, note=63, velocity=114, time=78),
    Message('note_on', channel=3, note=64, velocity=0, time=7),
    Message('note_on', channel=4, note=64, velocity=0, time=0),
    Message('note_on', channel=4, note=59, velocity=0, time=2),
    Message('note_on', channel=3, note=59, velocity=0, time=0),
    Message('note_on', channel=3, note=68, velocity=0, time=4),
    Message('note_on', channel=4, note=68, velocity=0, time=0),
    Message('note_on', channel=9, note=63, velocity=0, time=23),
    Message('note_on', channel=9, note=64, velocity=93, time=84),
    Message('note_on', channel=9, note=64, velocity=0, time=40),
    Message('note_on', channel=3, note=59, velocity=94, time=200),
    Message('note_on', channel=3, note=68, velocity=109, time=0),
    Message('note_on', channel=3, note=64, velocity=98, time=0),
    Message('note_on', channel=4, note=59, velocity=94, time=0),
    Message('note_on', channel=4, note=64, velocity=98, time=0),
    Message('note_on', channel=4, note=68, velocity=109, time=0),
    Message('note_on', channel=9, note=63, velocity=122, time=0),
    Message('note_on', channel=9, note=63, velocity=0, time=32),
    Message('note_on', channel=3, note=59, velocity=0, time=84),
    Message('note_on', channel=4, note=59, velocity=0, time=0),
    Message('note_on', channel=4, note=64, velocity=0, time=10),
    Message('note_on', channel=3, note=64, velocity=0, time=0),
    Message('note_on', channel=4, note=68, velocity=0, time=6),
    Message('note_on', channel=3, note=68, velocity=0, time=0),
    Message('note_on', channel=3, note=47, velocity=116, time=108),
    Message('note_on', channel=3, note=40, velocity=98, time=0),
    Message('note_on', channel=4, note=47, velocity=116, time=0),
    Message('note_on', channel=4, note=40, velocity=98, time=0),
    Message('note_on', channel=9, note=54, velocity=127, time=0),
    Message('note_on', channel=4, note=47, velocity=0, time=25),
    Message('note_on', channel=3, note=47, velocity=0, time=0),
    Message('note_on', channel=3, note=40, velocity=0, time=1),
    Message('note_on', channel=4, note=40, velocity=0, time=0),
    Message('note_on', channel=9, note=54, velocity=0, time=11),
    Message('note_on', channel=9, note=64, velocity=101, time=83),
    Message('note_on', channel=9, note=64, velocity=0, time=39),
    Message('note_on', channel=0, note=56, velocity=124, time=81),
    Message('note_on', channel=3, note=68, velocity=112, time=0),
    Message('note_on', channel=3, note=64, velocity=103, time=0),
    Message('note_on', channel=3, note=59, velocity=96, time=0),
    Message('note_on', channel=4, note=64, velocity=103, time=0),
    Message('note_on', channel=4, note=68, velocity=112, time=0),
    Message('note_on', channel=4, note=59, velocity=96, time=0),
    Message('note_on', channel=9, note=63, velocity=122, time=0),
    Message('note_on', channel=9, note=63, velocity=0, time=38),
    Message('note_on', channel=0, note=56, velocity=0, time=15),
    Message('note_on', channel=0, note=58, velocity=114, time=67),
    Message('note_on', channel=9, note=63, velocity=122, time=0),
    Message('note_on', channel=3, note=59, velocity=0, time=5),
    Message('note_on', channel=4, note=59, velocity=0, time=0),
    Message('note_on', channel=3, note=64, velocity=0, time=1),
    Message('note_on', channel=4, note=64, velocity=0, time=0),
    Message('note_on', channel=3, note=68, velocity=0, time=9),
    Message('note_on', channel=4, note=68, velocity=0, time=0),
    Message('note_on', channel=9, note=63, velocity=0, time=24),
    Message('note_on', channel=0, note=58, velocity=0, time=15),
    Message('note_on', channel=0, note=59, velocity=109, time=66),
    Message('note_on', channel=3, note=47, velocity=98, time=0),
    Message('note_on', channel=4, note=47, velocity=98, time=0),
    Message('note_on', channel=9, note=64, velocity=94, time=0),
    Message('note_on', channel=9, note=64, velocity=0, time=60),
    Message('note_on', channel=0, note=59, velocity=0, time=59),
    Message('note_on', channel=4, note=47, velocity=0, time=49),
    Message('note_on', channel=3, note=47, velocity=0, time=0),
    Message('note_on', channel=0, note=59, velocity=109, time=72),
    Message('note_on', channel=3, note=59, velocity=101, time=0),
    Message('note_on', channel=3, note=71, velocity=89, time=0),
    Message('note_on', channel=3, note=66, velocity=105, time=0),
    Message('note_on', channel=3, note=63, velocity=101, time=0),
    Message('note_on', channel=4, note=59, velocity=101, time=0),
    Message('note_on', channel=4, note=63, velocity=101, time=0),
    Message('note_on', channel=4, note=71, velocity=89, time=0),
    Message('note_on', channel=4, note=66, velocity=105, time=0),
    Message('note_on', channel=9, note=63, velocity=119, time=0),
    Message('note_on', channel=9, note=63, velocity=0, time=37),
    Message('note_on', channel=4, note=59, velocity=0, time=58),
    Message('note_on', channel=3, note=59, velocity=0, time=0),
    Message('note_on', channel=3, note=66, velocity=0, time=5),
    Message('note_on', channel=4, note=66, velocity=0, time=0),
    Message('note_on', channel=3, note=63, velocity=0, time=6),
    Message('note_on', channel=4, note=63, velocity=0, time=0),
    Message('note_on', channel=4, note=71, velocity=0, time=10),
    Message('note_on', channel=3, note=71, velocity=0, time=0),
    Message('note_on', channel=0, note=59, velocity=0, time=3),
    Message('note_on', channel=0, note=59, velocity=107, time=121),
    Message('note_on', channel=3, note=54, velocity=112, time=0),
    Message('note_on', channel=3, note=47, velocity=82, time=0),
    Message('note_on', channel=4, note=47, velocity=82, time=0),
    Message('note_on', channel=4, note=54, velocity=112, time=0),
    Message('note_on', channel=9, note=54, velocity=127, time=0),
    Message('note_on', channel=4, note=54, velocity=0, time=7),
    Message('note_on', channel=3, note=54, velocity=0, time=0),
    Message('note_on', channel=4, note=47, velocity=0, time=1),
    Message('note_on', channel=3, note=47, velocity=0, time=0),
    Message('note_on', channel=9, note=54, velocity=0, time=27),
    Message('note_on', channel=9, note=64, velocity=101, time=85),
    Message('note_on', channel=0, note=59, velocity=0, time=10),
    Message('note_on', channel=9, note=64, velocity=0, time=39),
    Message('note_on', channel=0, note=59, velocity=89, time=71),
    Message('note_on', channel=3, note=66, velocity=112, time=0),
    Message('note_on', channel=3, note=63, velocity=109, time=0),
    Message('note_on', channel=3, note=71, velocity=93, time=0),
    Message('note_on', channel=3, note=59, velocity=103, time=0),
    Message('note_on', channel=4, note=66, velocity=112, time=0),
    Message('note_on', channel=4, note=63, velocity=109, time=0),
    Message('note_on', channel=4, note=59, velocity=103, time=0),
    Message('note_on', channel=4, note=71, velocity=93, time=0),
    Message('note_on', channel=9, note=63, velocity=122, time=0),
    Message('note_on', channel=9, note=63, velocity=0, time=42),
    Message('note_on', channel=9, note=63, velocity=114, time=78),
    Message('note_on', channel=0, note=59, velocity=0, time=7),
    Message('note_on', channel=3, note=66, velocity=0, time=3),
    Message('note_on', channel=4, note=66, velocity=0, time=0),
    Message('note_on', channel=4, note=59, velocity=0, time=6),
    Message('note_on', channel=3, note=59, velocity=0, time=0),
    Message('note_on', channel=4, note=63, velocity=0, time=2),
    Message('note_on', channel=3, note=63, velocity=0, time=0),
    Message('note_on', channel=3, note=71, velocity=0, time=13),
    Message('note_on', channel=4, note=71, velocity=0, time=0),
    Message('note_on', channel=9, note=63, velocity=0, time=5),
    Message('note_on', channel=0, note=58, velocity=116, time=84),
    Message('note_on', channel=3, note=51, velocity=116, time=0),
    Message('note_on', channel=4, note=51, velocity=116, time=0),
    Message('note_on', channel=9, note=64, velocity=93, time=0),
    Message('note_on', channel=9, note=64, velocity=0, time=40),
    Message('note_on', channel=0, note=58, velocity=0, time=83),
    Message('note_on', channel=4, note=51, velocity=0, time=23),
    Message('note_on', channel=3, note=51, velocity=0, time=0),
    Message('note_on', channel=0, note=56, velocity=116, time=94),
    Message('note_on', channel=3, note=67, velocity=98, time=0),
    Message('note_on', channel=3, note=63, velocity=114, time=0),
    Message('note_on', channel=3, note=58, velocity=96, time=0),
    Message('note_on', channel=4, note=67, velocity=98, time=0),
    Message('note_on', channel=4, note=58, velocity=96, time=0),
    Message('note_on', channel=4, note=63, velocity=114, time=0),
    Message('note_on', channel=9, note=63, velocity=122, time=0),
    Message('note_on', channel=9, note=63, velocity=0, time=32),
    Message('note_on', channel=4, note=67, velocity=0, time=93),
    Message('note_on', channel=3, note=67, velocity=0, time=0),
    Message('note_on', channel=0, note=56, velocity=0, time=5),
    Message('note_on', channel=3, note=58, velocity=0, time=3),
    Message('note_on', channel=4, note=58, velocity=0, time=0),
    Message('note_on', channel=3, note=63, velocity=0, time=3),
    Message('note_on', channel=4, note=63, velocity=0, time=0),
    Message('note_on', channel=0, note=58, velocity=112, time=104),
    Message('note_on', channel=9, note=54, velocity=127, time=0),
    Message('note_on', channel=9, note=54, velocity=0, time=36),
    Message('note_on', channel=0, note=58, velocity=0, time=62),
    Message('note_on', channel=9, note=64, velocity=101, time=22),
    Message('note_on', channel=9, note=64, velocity=0, time=39),
    Message('note_on', channel=0, note=59, velocity=101, time=81),
    Message('note_on', channel=3, note=58, velocity=109, time=0),
    Message('note_on', channel=3, note=67, velocity=103, time=0),
    Message('note_on', channel=3, note=63, velocity=116, time=0),
    Message('note_on', channel=4, note=58, velocity=109, time=0),
    Message('note_on', channel=4, note=63, velocity=116, time=0),
    Message('note_on', channel=4, note=67, velocity=103, time=0),
    Message('note_on', channel=9, note=63, velocity=122, time=0),
    Message('note_on', channel=9, note=63, velocity=0, time=38),
    Message('note_on', channel=9, note=63, velocity=122, time=82),
    Message('note_on', channel=4, note=63, velocity=0, time=14),
    Message('note_on', channel=3, note=63, velocity=0, time=0),
    Message('note_on', channel=4, note=58, velocity=0, time=1),
    Message('note_on', channel=3, note=58, velocity=0, time=0),
    Message('note_on', channel=4, note=67, velocity=0, time=1),
    Message('note_on', channel=3, note=67, velocity=0, time=0),
    Message('note_on', channel=9, note=63, velocity=0, time=23),
    Message('note_on', channel=3, note=52, velocity=122, time=81),
    Message('note_on', channel=4, note=52, velocity=122, time=0),
    Message('note_on', channel=9, note=64, velocity=94, time=0),
    Message('note_on', channel=0, note=59, velocity=0, time=41),
    Message('note_on', channel=9, note=64, velocity=0, time=19),
    Message('note_on', channel=0, note=56, velocity=122, time=60),
    Message('note_on', channel=0, note=56, velocity=0, time=53),
    Message('note_on', channel=4, note=52, velocity=0, time=49),
    Message('note_on', channel=3, note=52, velocity=0, time=0),
    Message('note_on', channel=0, note=52, velocity=112, time=18),
    Message('note_on', channel=3, note=68, velocity=114, time=0),
    Message('note_on', channel=3, note=59, velocity=101, time=0),
    Message('note_on', channel=3, note=64, velocity=107, time=0),
    Message('note_on', channel=4, note=68, velocity=114, time=0),
    Message('note_on', channel=4, note=59, velocity=101, time=0),
    Message('note_on', channel=4, note=64, velocity=107, time=0),
    Message('note_on', channel=9, note=63, velocity=119, time=0),
    Message('note_on', channel=9, note=63, velocity=0, time=37),
    Message('note_on', channel=4, note=68, velocity=0, time=89),
    Message('note_on', channel=3, note=68, velocity=0, time=0),
    Message('note_on', channel=3, note=59, velocity=0, time=2),
    Message('note_on', channel=4, note=59, velocity=0, time=0),
    Message('note_on', channel=4, note=64, velocity=0, time=3),
    Message('note_on', channel=3, note=64, velocity=0, time=0),
    Message('note_on', channel=3, note=59, velocity=105, time=109),
    Message('note_on', channel=3, note=52, velocity=103, time=0),
    Message('note_on', channel=4, note=59, velocity=105, time=0),
    Message('note_on', channel=4, note=52, velocity=103, time=0),
    Message('note_on', channel=9, note=54, velocity=127, time=0),
    Message('note_on', channel=4, note=52, velocity=0, time=8),
    Message('note_on', channel=3, note=52, velocity=0, time=0),
    Message('note_on', channel=4, note=59, velocity=0, time=2),
    Message('note_on', channel=3, note=59, velocity=0, time=0),
    Message('note_on', channel=9, note=54, velocity=0, time=30),
    Message('note_on', channel=0, note=52, velocity=0, time=49),
    Message('note_on', channel=3, note=68, velocity=112, time=151),
    Message('note_on', channel=3, note=64, velocity=101, time=0),
    Message('note_on', channel=3, note=59, velocity=91, time=0),
    Message('note_on', channel=4, note=68, velocity=112, time=0),
    Message('note_on', channel=4, note=64, velocity=101, time=0),
    Message('note_on', channel=4, note=59, velocity=91, time=0),
    Message('note_on', channel=9, note=60, velocity=116, time=0),
    Message('note_on', channel=9, note=60, velocity=0, time=33),
    Message('note_on', channel=9, note=60, velocity=109, time=47),
    Message('note_on', channel=9, note=60, velocity=0, time=35),
    Message('note_on', channel=4, note=64, velocity=0, time=12),
    Message('note_on', channel=3, note=64, velocity=0, time=0),
    Message('note_on', channel=4, note=59, velocity=0, time=2),
    Message('note_on', channel=3, note=59, velocity=0, time=0),
    Message('note_on', channel=3, note=68, velocity=0, time=4),
    Message('note_on', channel=4, note=68, velocity=0, time=0),
    Message('note_on', channel=9, note=60, velocity=107, time=27),
    Message('note_on', channel=9, note=60, velocity=0, time=34),
    Message('note_on', channel=3, note=64, velocity=98, time=46),
    Message('note_on', channel=3, note=68, velocity=109, time=0),
    Message('note_on', channel=3, note=59, velocity=94, time=0),
    Message('note_on', channel=4, note=68, velocity=109, time=0),
    Message('note_on', channel=4, note=64, velocity=98, time=0),
    Message('note_on', channel=4, note=59, velocity=94, time=0),
    Message('note_on', channel=9, note=64, velocity=114, time=0),
    Message('note_on', channel=9, note=64, velocity=0, time=49),
    Message('note_on', channel=3, note=59, velocity=0, time=67),
    Message('note_on', channel=4, note=59, velocity=0, time=0),
    Message('note_on', channel=4, note=64, velocity=0, time=10),
    Message('note_on', channel=3, note=64, velocity=0, time=0),
    Message('note_on', channel=3, note=68, velocity=0, time=6),
    Message('note_on', channel=4, note=68, velocity=0, time=0),
    Message('note_on', channel=1, note=30, velocity=124, time=348),
    Message('note_on', channel=9, note=36, velocity=112, time=0),
    Message('note_on', channel=9, note=36, velocity=0, time=60),
    Message('note_on', channel=1, note=32, velocity=127, time=180),
    Message('note_on', channel=9, note=43, velocity=116, time=0),
    Message('note_on', channel=1, note=30, velocity=0, time=10),
    Message('note_on', channel=9, note=43, velocity=0, time=36),
    Message('note_on', channel=1, note=32, velocity=0, time=169),
    Message('note_on', channel=1, note=35, velocity=124, time=25),
    Message('note_on', channel=2, note=47, velocity=127, time=0),
    Message('note_on', channel=2, note=35, velocity=127, time=0),
    Message('note_on', channel=3, note=47, velocity=98, time=0),
    Message('note_on', channel=4, note=47, velocity=98, time=0),
    Message('note_on', channel=9, note=57, velocity=127, time=0),
    Message('note_on', channel=9, note=36, velocity=124, time=10),
    Message('note_on', channel=9, note=42, velocity=124, time=0),
    Message('note_on', channel=9, note=57, velocity=0, time=25),
    Message('note_on', channel=9, note=42, velocity=0, time=19),
    Message('note_on', channel=9, note=36, velocity=0, time=22),
    Message('note_on', channel=1, note=35, velocity=0, time=83),
    Message('note_on', channel=3, note=47, velocity=0, time=9),
    Message('note_on', channel=4, note=47, velocity=0, time=0),
    Message('note_on', channel=2, note=35, velocity=0, time=17),
    Message('note_on', channel=1, note=35, velocity=114, time=55),
    Message('note_on', channel=2, note=59, velocity=127, time=0),
    Message('note_on', channel=2, note=63, velocity=127, time=0),
    Message('note_on', channel=2, note=54, velocity=127, time=0),
    Message('note_on', channel=3, note=59, velocity=101, time=0),
    Message('note_on', channel=3, note=63, velocity=101, time=0),
    Message('note_on', channel=3, note=71, velocity=89, time=0),
    Message('note_on', channel=3, note=66, velocity=105, time=0),
    Message('note_on', channel=4, note=63, velocity=101, time=0),
    Message('note_on', channel=4, note=71, velocity=89, time=0),
    Message('note_on', channel=4, note=59, velocity=101, time=0),
    Message('note_on', channel=4, note=66, velocity=105, time=0),
    Message('note_on', channel=9, note=42, velocity=89, time=10),
    Message('note_on', channel=9, note=36, velocity=122, time=0),
    Message('note_on', channel=2, note=47, velocity=0, time=31),
    Message('note_on', channel=9, note=42, velocity=0, time=5),
    Message('note_on', channel=2, note=54, velocity=0, time=10),
    Message('note_on', channel=2, note=59, velocity=0, time=5),
    Message('note_on', channel=2, note=63, velocity=0, time=8),
    Message('note_on', channel=9, note=36, velocity=0, time=0),
    Message('note_on', channel=3, note=59, velocity=0, time=26),
    Message('note_on', channel=4, note=59, velocity=0, time=0),
    Message('note_on', channel=3, note=66, velocity=0, time=5),
    Message('note_on', channel=4, note=66, velocity=0, time=0),
    Message('note_on', channel=4, note=63, velocity=0, time=6),
    Message('note_on', channel=3, note=63, velocity=0, time=0),
    Message('note_on', channel=4, note=71, velocity=0, time=10),
    Message('note_on', channel=3, note=71, velocity=0, time=0),
    Message('note_on', channel=1, note=35, velocity=0, time=78),
    Message('note_on', channel=2, note=59, velocity=127, time=46),
    Message('note_on', channel=2, note=63, velocity=127, time=0),
    Message('note_on', channel=3, note=54, velocity=112, time=0),
    Message('note_on', channel=3, note=47, velocity=82, time=0),
    Message('note_on', channel=4, note=47, velocity=82, time=0),
    Message('note_on', channel=4, note=54, velocity=112, time=0),
    Message('note_on', channel=9, note=38, velocity=124, time=0),
    Message('note_on', channel=4, note=54, velocity=0, time=7),
    Message('note_on', channel=3, note=54, velocity=0, time=0),
    Message('note_on', channel=4, note=47, velocity=0, time=1),
    Message('note_on', channel=3, note=47, velocity=0, time=0),
    Message('note_on', channel=9, note=42, velocity=119, time=2),
    Message('note_on', channel=9, note=38, velocity=0, time=40),
    Message('note_on', channel=9, note=42, velocity=0, time=11),
    Message('note_on', channel=1, note=35, velocity=91, time=179),
    Message('note_on', channel=2, note=66, velocity=127, time=0),
    Message('note_on', channel=3, note=66, velocity=112, time=0),
    Message('note_on', channel=3, note=63, velocity=109, time=0),
    Message('note_on', channel=3, note=59, velocity=103, time=0),
    Message('note_on', channel=3, note=71, velocity=93, time=0),
    Message('note_on', channel=4, note=63, velocity=109, time=0),
    Message('note_on', channel=4, note=66, velocity=112, time=0),
    Message('note_on', channel=4, note=59, velocity=103, time=0),
    Message('note_on', channel=4, note=71, velocity=93, time=0),
    Message('note_on', channel=9, note=42, velocity=89, time=10),
    Message('note_on', channel=2, note=63, velocity=0, time=9),
    Message('note_on', channel=9, note=42, velocity=0, time=29),
    Message('note_on', channel=1, note=35, velocity=0, time=23),
    Message('note_on', channel=1, note=35, velocity=89, time=49),
    Message('note_on', channel=9, note=38, velocity=122, time=0),
    Message('note_on', channel=4, note=66, velocity=0, time=10),
    Message('note_on', channel=3, note=66, velocity=0, time=0),
    Message('note_on', channel=9, note=42, velocity=96, time=0),
    Message('note_on', channel=4, note=59, velocity=0, time=6),
    Message('note_on', channel=3, note=59, velocity=0, time=0),
    Message('note_on', channel=4, note=63, velocity=0, time=2),
    Message('note_on', channel=3, note=63, velocity=0, time=0),
    Message('note_on', channel=2, note=66, velocity=0, time=9),
    Message('note_on', channel=3, note=71, velocity=0, time=4),
    Message('note_on', channel=4, note=71, velocity=0, time=0),
    Message('note_on', channel=9, note=38, velocity=0, time=6),
    Message('note_on', channel=9, note=42, velocity=0, time=7),
    Message('note_on', channel=2, note=59, velocity=0, time=7),
    Message('note_on', channel=1, note=35, velocity=0, time=5),
    Message('note_on', channel=1, note=42, velocity=122, time=64),
    Message('note_on', channel=2, note=42, velocity=127, time=0),
    Message('note_on', channel=2, note=42, velocity=127, time=0),
    Message('note_on', channel=3, note=54, velocity=112, time=0),
    Message('note_on', channel=4, note=54, velocity=112, time=0),
    Message('note_on', channel=9, note=36, velocity=114, time=10),
    Message('note_on', channel=9, note=42, velocity=103, time=0),
    Message('note_on', channel=9, note=42, velocity=0, time=35),
    Message('note_on', channel=9, note=36, velocity=0, time=20),
    Message('note_on', channel=9, note=38, velocity=109, time=55),
    Message('note_on', channel=1, note=42, velocity=0, time=3),
    Message('note_on', channel=9, note=42, velocity=89, time=7),
    Message('note_on', channel=9, note=42, velocity=0, time=35),
    Message('note_on', channel=9, note=38, velocity=0, time=3),
    Message('note_on', channel=2, note=42, velocity=0, time=4),
    Message('note_on', channel=3, note=54, velocity=0, time=36),
    Message('note_on', channel=4, note=54, velocity=0, time=0),
    Message('note_on', channel=1, note=42, velocity=122, time=32),
    Message('note_on', channel=2, note=58, velocity=127, time=0),
    Message('note_on', channel=2, note=61, velocity=127, time=0),
    Message('note_on', channel=2, note=54, velocity=127, time=0),
    Message('note_on', channel=3, note=66, velocity=105, time=0),
    Message('note_on', channel=3, note=61, velocity=94, time=0),
    Message('note_on', channel=3, note=70, velocity=109, time=0),
    Message('note_on', channel=4, note=66, velocity=105, time=0),
    Message('note_on', channel=4, note=70, velocity=109, time=0),
    Message('note_on', channel=4, note=61, velocity=94, time=0),
    Message('note_on', channel=9, note=42, velocity=82, time=10),
    Message('note_on', channel=9, note=36, velocity=116, time=0),
    Message('note_on', channel=2, note=42, velocity=0, time=13),
    Message('note_on', channel=9, note=42, velocity=0, time=20),
    Message('note_on', channel=2, note=58, velocity=0, time=3),
    Message('note_on', channel=2, note=54, velocity=0, time=4),
    Message('note_on', channel=2, note=61, velocity=0, time=3),
    Message('note_on', channel=9, note=36, velocity=0, time=1),
    Message('note_on', channel=3, note=70, velocity=0, time=28),
    Message('note_on', channel=4, note=70, velocity=0, time=0),
    Message('note_on', channel=4, note=61, velocity=0, time=2),
    Message('note_on', channel=3, note=61, velocity=0, time=0),
    Message('note_on', channel=4, note=66, velocity=0, time=14),
    Message('note_on', channel=3, note=66, velocity=0, time=0),
    Message('note_on', channel=1, note=42, velocity=0, time=95),
    Message('note_on', channel=2, note=54, velocity=127, time=47),
    Message('note_on', channel=2, note=58, velocity=127, time=0),
    Message('note_on', channel=3, note=49, velocity=114, time=0),
    Message('note_on', channel=3, note=42, velocity=105, time=0),
    Message('note_on', channel=4, note=49, velocity=114, time=0),
    Message('note_on', channel=4, note=42, velocity=105, time=0),
    Message('note_on', channel=9, note=38, velocity=122, time=0),
    Message('note_on', channel=4, note=42, velocity=0, time=7),
    Message('note_on', channel=3, note=42, velocity=0, time=0),
    Message('note_on', channel=4, note=49, velocity=0, time=1),
    Message('note_on', channel=3, note=49, velocity=0, time=0),
    Message('note_on', channel=9, note=42, velocity=119, time=2),
    Message('note_on', channel=9, note=38, velocity=0, time=37),
    Message('note_on', channel=9, note=42, velocity=0, time=3),
    Message('note_on', channel=1, note=42, velocity=119, time=190),
    Message('note_on', channel=2, note=61, velocity=127, time=0),
    Message('note_on', channel=3, note=66, velocity=93, time=0),
    Message('note_on', channel=3, note=61, velocity=98, time=0),
    Message('note_on', channel=3, note=70, velocity=105, time=0),
    Message('note_on', channel=4, note=70, velocity=105, time=0),
    Message('note_on', channel=4, note=66, velocity=93, time=0),
    Message('note_on', channel=4, note=61, velocity=98, time=0),
    Message('note_on', channel=9, note=42, velocity=91, time=10),
    Message('note_on', channel=9, note=42, velocity=0, time=36),
    Message('note_on', channel=1, note=42, velocity=0, time=1),
    Message('note_on', channel=4, note=70, velocity=0, time=55),
    Message('note_on', channel=3, note=70, velocity=0, time=0),
    Message('note_on', channel=4, note=61, velocity=0, time=6),
    Message('note_on', channel=3, note=61, velocity=0, time=0),
    Message('note_on', channel=4, note=66, velocity=0, time=8),
    Message('note_on', channel=3, note=66, velocity=0, time=0),
    Message('note_on', channel=1, note=42, velocity=107, time=4),
    Message('note_on', channel=9, note=38, velocity=122, time=0),
    Message('note_on', channel=2, note=58, velocity=0, time=10),
    Message('note_on', channel=9, note=42, velocity=107, time=0),
    Message('note_on', channel=2, note=54, velocity=0, time=2),
    Message('note_on', channel=9, note=38, velocity=0, time=20),
    Message('note_on', channel=2, note=61, velocity=0, time=7),
    Message('note_on', channel=9, note=42, velocity=0, time=10),
    Message('note_on', channel=1, note=42, velocity=0, time=13),
    Message('note_on', channel=1, note=28, velocity=109, time=58),
    Message('note_on', channel=2, note=40, velocity=127, time=0),
    Message('note_on', channel=2, note=52, velocity=127, time=0),
    Message('note_on', channel=3, note=52, velocity=122, time=0),
    Message('note_on', channel=4, note=52, velocity=122, time=0),
    Message('note_on', channel=9, note=36, velocity=122, time=10),
    Message('note_on', channel=9, note=42, velocity=114, time=0),
    Message('note_on', channel=9, note=42, velocity=0, time=45),
    Message('note_on', channel=9, note=36, velocity=0, time=10),
    Message('note_on', channel=1, note=28, velocity=0, time=62),
    Message('note_on', channel=2, note=40, velocity=0, time=48),
    Message('note_on', channel=3, note=52, velocity=0, time=47),
    Message('note_on', channel=4, note=52, velocity=0, time=0),
    Message('note_on', channel=2, note=52, velocity=0, time=10),
    Message('note_on', channel=1, note=28, velocity=114, time=8),
    Message('note_on', channel=2, note=59, velocity=127, time=0),
    Message('note_on', channel=2, note=56, velocity=127, time=0),
    Message('note_on', channel=3, note=59, velocity=101, time=0),
    Message('note_on', channel=3, note=64, velocity=107, time=0),
    Message('note_on', channel=3, note=68, velocity=114, time=0),
    Message('note_on', channel=4, note=59, velocity=101, time=0),
    Message('note_on', channel=4, note=64, velocity=107, time=0),
    Message('note_on', channel=4, note=68, velocity=114, time=0),
    Message('note_on', channel=9, note=36, velocity=116, time=10),
    Message('note_on', channel=9, note=42, velocity=77, time=0),
    Message('note_on', channel=9, note=42, velocity=0, time=44),
    Message('note_on', channel=9, note=36, velocity=0, time=1),
    Message('note_on', channel=2, note=56, velocity=0, time=17),
    Message('note_on', channel=2, note=59, velocity=0, time=5),
    Message('note_on', channel=4, note=68, velocity=0, time=49),
    Message('note_on', channel=3, note=68, velocity=0, time=0),
    Message('note_on', channel=3, note=59, velocity=0, time=2),
    Message('note_on', channel=4, note=59, velocity=0, time=0),
    Message('note_on', channel=4, note=64, velocity=0, time=3),
    Message('note_on', channel=3, note=64, velocity=0, time=0),
    Message('note_on', channel=1, note=28, velocity=0, time=38),
    Message('note_on', channel=2, note=56, velocity=127, time=71),
    Message('note_on', channel=2, note=52, velocity=127, time=0),
    Message('note_on', channel=3, note=59, velocity=105, time=0),
    Message('note_on', channel=3, note=52, velocity=103, time=0),
    Message('note_on', channel=4, note=52, velocity=103, time=0),
    Message('note_on', channel=4, note=59, velocity=105, time=0),
    Message('note_on', channel=9, note=38, velocity=116, time=0),
    Message('note_on', channel=4, note=52, velocity=0, time=8),
    Message('note_on', channel=3, note=52, velocity=0, time=0),
    Message('note_on', channel=3, note=59, velocity=0, time=2),
    Message('note_on', channel=4, note=59, velocity=0, time=0),
    Message('note_on', channel=9, note=42, velocity=119, time=0),
    Message('note_on', channel=9, note=38, velocity=0, time=37),
    Message('note_on', channel=9, note=42, velocity=0, time=4),
    Message('note_on', channel=2, note=59, velocity=127, time=189),
    Message('note_on', channel=3, note=68, velocity=112, time=0),
    Message('note_on', channel=3, note=64, velocity=101, time=0),
    Message('note_on', channel=3, note=59, velocity=91, time=0),
    Message('note_on', channel=4, note=68, velocity=112, time=0),
    Message('note_on', channel=4, note=64, velocity=101, time=0),
    Message('note_on', channel=4, note=59, velocity=91, time=0),
    Message('note_on', channel=9, note=42, velocity=93, time=10),
    Message('note_on', channel=9, note=42, velocity=0, time=37),
    Message('note_on', channel=1, note=35, velocity=122, time=73),
    Message('note_on', channel=9, note=38, velocity=116, time=0),
    Message('note_on', channel=2, note=56, velocity=0, time=4),
    Message('note_on', channel=2, note=52, velocity=0, time=1),
    Message('note_on', channel=4, note=64, velocity=0, time=2),
    Message('note_on', channel=3, note=64, velocity=0, time=0),
    Message('note_on', channel=4, note=59, velocity=0, time=2),
    Message('note_on', channel=3, note=59, velocity=0, time=0),
    Message('note_on', channel=9, note=42, velocity=98, time=1),
    Message('note_on', channel=3, note=68, velocity=0, time=3),
    Message('note_on', channel=4, note=68, velocity=0, time=0),
    Message('note_on', channel=2, note=59, velocity=0, time=22),
    Message('note_on', channel=9, note=42, velocity=0, time=13),
    Message('note_on', channel=9, note=38, velocity=0, time=1),
    Message('note_on', channel=1, note=35, velocity=0, time=24),
    Message('note_on', channel=1, note=40, velocity=119, time=47),
    Message('note_on', channel=2, note=52, velocity=127, time=0),
    Message('note_on', channel=2, note=40, velocity=127, time=0),
    Message('note_on', channel=9, note=36, velocity=107, time=10),
    Message('note_on', channel=9, note=42, velocity=116, time=0),
    Message('note_on', channel=9, note=36, velocity=0, time=31),
    Message('note_on', channel=9, note=42, velocity=0, time=7),
    Message('note_on', channel=9, note=38, velocity=122, time=72),
    Message('note_on', channel=2, note=40, velocity=0, time=8),
    Message('note_on', channel=9, note=42, velocity=97, time=2),
    Message('note_on', channel=1, note=40, velocity=0, time=4),
    Message('note_on', channel=9, note=38, velocity=0, time=25),
    Message('note_on', channel=9, note=42, velocity=0, time=6),
    Message('note_on', channel=1, note=40, velocity=116, time=75),
    Message('note_on', channel=2, note=59, velocity=127, time=0),
    Message('note_on', channel=2, note=56, velocity=127, time=0),
    Message('note_on', channel=3, note=59, velocity=94, time=0),
    Message('note_on', channel=3, note=68, velocity=109, time=0),
    Message('note_on', channel=3, note=64, velocity=98, time=0),
    Message('note_on', channel=4, note=68, velocity=109, time=0),
    Message('note_on', channel=4, note=59, velocity=94, time=0),
    Message('note_on', channel=4, note=64, velocity=98, time=0),
    Message('note_on', channel=9, note=36, velocity=124, time=10),
    Message('note_on', channel=9, note=42, velocity=87, time=0),
    Message('note_on', channel=9, note=42, velocity=0, time=35),
    Message('note_on', channel=9, note=36, velocity=0, time=4),
    Message('note_on', channel=2, note=56, velocity=0, time=23),
    Message('note_on', channel=2, note=59, velocity=0, time=2),
    Message('note_on', channel=2, note=52, velocity=0, time=9),
    Message('note_on', channel=4, note=59, velocity=0, time=33),
    Message('note_on', channel=3, note=59, velocity=0, time=0),
    Message('note_on', channel=4, note=64, velocity=0, time=10),
    Message('note_on', channel=3, note=64, velocity=0, time=0),
    Message('note_on', channel=4, note=68, velocity=0, time=6),
    Message('note_on', channel=3, note=68, velocity=0, time=0),
    Message('note_on', channel=1, note=40, velocity=0, time=23),
    Message('note_on', channel=1, note=39, velocity=124, time=85),
    Message('note_on', channel=2, note=51, velocity=127, time=0),
    Message('note_on', channel=2, note=39, velocity=127, time=0),
    Message('note_on', channel=3, note=47, velocity=116, time=0),
    Message('note_on', channel=3, note=40, velocity=98, time=0),
    Message('note_on', channel=4, note=40, velocity=98, time=0),
    Message('note_on', channel=4, note=47, velocity=116, time=0),
    Message('note_on', channel=9, note=38, velocity=122, time=0),
    Message('note_on', channel=9, note=42, velocity=124, time=10),
    Message('note_on', channel=4, note=47, velocity=0, time=15),
    Message('note_on', channel=3, note=47, velocity=0, time=0),
    Message('note_on', channel=3, note=40, velocity=0, time=1),
    Message('note_on', channel=4, note=40, velocity=0, time=0),
    Message('note_on', channel=9, note=38, velocity=0, time=21),
    Message('note_on', channel=9, note=42, velocity=0, time=6),
    Message('note_on', channel=2, note=39, velocity=0, time=173),
    Message('note_on', channel=1, note=39, velocity=0, time=1),
    Message('note_on', channel=2, note=51, velocity=0, time=8),
    Message('note_on', channel=1, note=37, velocity=122, time=5),
    Message('note_on', channel=2, note=37, velocity=127, time=0),
    Message('note_on', channel=2, note=59, velocity=127, time=0),
    Message('note_on', channel=2, note=64, velocity=127, time=0),
    Message('note_on', channel=2, note=49, velocity=127, time=0),
    Message('note_on', channel=2, note=56, velocity=127, time=0),
    Message('note_on', channel=3, note=59, velocity=96, time=0),
    Message('note_on', channel=3, note=64, velocity=103, time=0),
    Message('note_on', channel=3, note=68, velocity=112, time=0),
    Message('note_on', channel=4, note=68, velocity=112, time=0),
    Message('note_on', channel=4, note=64, velocity=103, time=0),
    Message('note_on', channel=4, note=59, velocity=96, time=0),
    Message('note_on', channel=9, note=38, velocity=101, time=0),
    Message('note_on', channel=9, note=42, velocity=77, time=10),
    Message('note_on', channel=9, note=38, velocity=0, time=18),
    Message('note_on', channel=9, note=42, velocity=0, time=10),
    Message('note_on', channel=2, note=49, velocity=0, time=50),
    Message('note_on', channel=9, note=38, velocity=122, time=32),
    Message('note_on', channel=2, note=56, velocity=0, time=3),
    Message('note_on', channel=4, note=59, velocity=0, time=2),
    Message('note_on', channel=3, note=59, velocity=0, time=0),
    Message('note_on', channel=4, note=64, velocity=0, time=1),
    Message('note_on', channel=2, note=59, velocity=0, time=0),
    Message('note_on', channel=3, note=64, velocity=0, time=0),
    Message('note_on', channel=2, note=64, velocity=0, time=6),
    Message('note_on', channel=4, note=68, velocity=0, time=3),
    Message('note_on', channel=3, note=68, velocity=0, time=0),
    Message('note_on', channel=9, note=38, velocity=0, time=21),
    Message('note_on', channel=2, note=37, velocity=0, time=40),
    Message('note_on', channel=1, note=37, velocity=0, time=31),
    Message('note_on', channel=1, note=35, velocity=127, time=13),
    Message('note_on', channel=2, note=47, velocity=127, time=0),
    Message('note_on', channel=2, note=35, velocity=127, time=0),
    Message('note_on', channel=3, note=47, velocity=98, time=0),
    Message('note_on', channel=4, note=47, velocity=98, time=0),
    Message('note_on', channel=9, note=42, velocity=124, time=10),
    Message('note_on', channel=9, note=36, velocity=124, time=0),
    Message('note_on', channel=9, note=42, velocity=0, time=44),
    Message('note_on', channel=9, note=36, velocity=0, time=22),
    Message('note_on', channel=1, note=35, velocity=0, time=33),
    Message('note_on', channel=3, note=47, velocity=0, time=59),
    Message('note_on', channel=4, note=47, velocity=0, time=0),
    Message('note_on', channel=2, note=35, velocity=0, time=17),
    Message('note_on', channel=1, note=35, velocity=127, time=55),
    Message('note_on', channel=2, note=59, velocity=127, time=0),
    Message('note_on', channel=2, note=63, velocity=127, time=0),
    Message('note_on', channel=2, note=54, velocity=127, time=0),
    Message('note_on', channel=3, note=59, velocity=101, time=0),
    Message('note_on', channel=3, note=63, velocity=101, time=0),
    Message('note_on', channel=3, note=71, velocity=89, time=0),
    Message('note_on', channel=3, note=66, velocity=105, time=0),
    Message('note_on', channel=4, note=59, velocity=101, time=0),
    Message('note_on', channel=4, note=66, velocity=105, time=0),
    Message('note_on', channel=4, note=71, velocity=89, time=0),
    Message('note_on', channel=4, note=63, velocity=101, time=0),
    Message('note_on', channel=9, note=36, velocity=122, time=10),
    Message('note_on', channel=9, note=42, velocity=89, time=0),
    Message('note_on', channel=2, note=47, velocity=0, time=31),
    Message('note_on', channel=9, note=42, velocity=0, time=5),
    Message('note_on', channel=2, note=54, velocity=0, time=10),
    Message('note_on', channel=2, note=59, velocity=0, time=5),
    Message('note_on', channel=2, note=63, velocity=0, time=8),
    Message('note_on', channel=9, note=36, velocity=0, time=0),
    Message('note_on', channel=4, note=59, velocity=0, time=26),
    Message('note_on', channel=3, note=59, velocity=0, time=0),
    Message('note_on', channel=3, note=66, velocity=0, time=5),
    Message('note_on', channel=4, note=66, velocity=0, time=0),
    Message('note_on', channel=3, note=63, velocity=0, time=6),
    Message('note_on', channel=4, note=63, velocity=0, time=0),
    Message('note_on', channel=3, note=71, velocity=0, time=10),
    Message('note_on', channel=4, note=71, velocity=0, time=0),
    Message('note_on', channel=1, note=35, velocity=0, time=6),
    Message('note_on', channel=2, note=59, velocity=127, time=118),
    Message('note_on', channel=2, note=63, velocity=127, time=0),
    Message('note_on', channel=3, note=54, velocity=112, time=0),
    Message('note_on', channel=3, note=47, velocity=82, time=0),
    Message('note_on', channel=4, note=54, velocity=112, time=0),
    Message('note_on', channel=4, note=47, velocity=82, time=0),
    Message('note_on', channel=9, note=38, velocity=124, time=0),
    Message('note_on', channel=4, note=54, velocity=0, time=7),
    Message('note_on', channel=3, note=54, velocity=0, time=0),
    Message('note_on', channel=3, note=47, velocity=0, time=1),
    Message('note_on', channel=4, note=47, velocity=0, time=0),
    Message('note_on', channel=9, note=42, velocity=119, time=2),
    Message('note_on', channel=9, note=38, velocity=0, time=40),
    Message('note_on', channel=9, note=42, velocity=0, time=11),
    Message('note_on', channel=1, note=35, velocity=109, time=179),
    Message('note_on', channel=2, note=66, velocity=127, time=0),
    Message('note_on', channel=3, note=66, velocity=112, time=0),
    Message('note_on', channel=3, note=63, velocity=109, time=0),
    Message('note_on', channel=3, note=71, velocity=93, time=0),
    Message('note_on', channel=3, note=59, velocity=103, time=0),
    Message('note_on', channel=4, note=66, velocity=112, time=0),
    Message('note_on', channel=4, note=71, velocity=93, time=0),
    Message('note_on', channel=4, note=63, velocity=109, time=0),
    Message('note_on', channel=4, note=59, velocity=103, time=0),
    Message('note_on', channel=9, note=42, velocity=89, time=10),
    Message('note_on', channel=2, note=63, velocity=0, time=9),
    Message('note_on', channel=9, note=42, velocity=0, time=29),
    Message('note_on', channel=1, note=35, velocity=0, time=5),
    Message('note_on', channel=1, note=35, velocity=112, time=67),
    Message('note_on', channel=9, note=38, velocity=122, time=0),
    Message('note_on', channel=4, note=66, velocity=0, time=10),
    Message('note_on', channel=3, note=66, velocity=0, time=0),
    Message('note_on', channel=9, note=42, velocity=96, time=0),
    Message('note_on', channel=3, note=59, velocity=0, time=6),
    Message('note_on', channel=4, note=59, velocity=0, time=0),
    Message('note_on', channel=4, note=63, velocity=0, time=2),
    Message('note_on', channel=3, note=63, velocity=0, time=0),
    Message('note_on', channel=2, note=66, velocity=0, time=9),
    Message('note_on', channel=4, note=71, velocity=0, time=4),
    Message('note_on', channel=3, note=71, velocity=0, time=0),
    Message('note_on', channel=9, note=38, velocity=0, time=6),
    Message('note_on', channel=9, note=42, velocity=0, time=7),
    Message('note_on', channel=2, note=59, velocity=0, time=7),
    Message('note_on', channel=1, note=35, velocity=0, time=2),
    Message('note_on', channel=1, note=42, velocity=119, time=67),
    Message('note_on', channel=2, note=42, velocity=127, time=0),
    Message('note_on', channel=2, note=42, velocity=127, time=0),
    Message('note_on', channel=3, note=54, velocity=112, time=0),
    Message('note_on', channel=4, note=54, velocity=112, time=0),
    Message('note_on', channel=9, note=42, velocity=103, time=10),
    Message('note_on', channel=9, note=36, velocity=114, time=0),
    Message('note_on', channel=9, note=42, velocity=0, time=35),
    Message('note_on', channel=9, note=36, velocity=0, time=20),
    Message('note_on', channel=9, note=38, velocity=109, time=55),
    Message('note_on', channel=9, note=42, velocity=89, time=10),
    Message('note_on', channel=1, note=42, velocity=0, time=22),
    Message('note_on', channel=9, note=42, velocity=0, time=13),
    Message('note_on', channel=9, note=38, velocity=0, time=3),
    Message('note_on', channel=2, note=42, velocity=0, time=4),
    Message('note_on', channel=3, note=54, velocity=0, time=36),
    Message('note_on', channel=4, note=54, velocity=0, time=0),
    Message('note_on', channel=1, note=42, velocity=127, time=32),
    Message('note_on', channel=2, note=58, velocity=127, time=0),
    Message('note_on', channel=2, note=61, velocity=127, time=0),
    Message('note_on', channel=2, note=54, velocity=127, time=0),
    Message('note_on', channel=3, note=66, velocity=105, time=0),
    Message('note_on', channel=3, note=70, velocity=109, time=0),
    Message('note_on', channel=3, note=61, velocity=94, time=0),
    Message('note_on', channel=4, note=70, velocity=109, time=0),
    Message('note_on', channel=4, note=66, velocity=105, time=0),
    Message('note_on', channel=4, note=61, velocity=94, time=0),
    Message('note_on', channel=9, note=42, velocity=82, time=10),
    Message('note_on', channel=9, note=36, velocity=116, time=0),
    Message('note_on', channel=2, note=42, velocity=0, time=13),
    Message('note_on', channel=9, note=42, velocity=0, time=20),
    Message('note_on', channel=2, note=58, velocity=0, time=3),
    Message('note_on', channel=2, note=54, velocity=0, time=4),
    Message('note_on', channel=2, note=61, velocity=0, time=3),
    Message('note_on', channel=9, note=36, velocity=0, time=1),
    Message('note_on', channel=4, note=70, velocity=0, time=28),
    Message('note_on', channel=3, note=70, velocity=0, time=0),
    Message('note_on', channel=3, note=61, velocity=0, time=2),
    Message('note_on', channel=4, note=61, velocity=0, time=0),
    Message('note_on', channel=3, note=66, velocity=0, time=14),
    Message('note_on', channel=4, note=66, velocity=0, time=0),
    Message('note_on', channel=1, note=42, velocity=0, time=112),
    Message('note_on', channel=2, note=54, velocity=127, time=30),
    Message('note_on', channel=2, note=58, velocity=127, time=0),
    Message('note_on', channel=3, note=42, velocity=105, time=0),
    Message('note_on', channel=3, note=49, velocity=114, time=0),
    Message('note_on', channel=4, note=49, velocity=114, time=0),
    Message('note_on', channel=4, note=42, velocity=105, time=0),
    Message('note_on', channel=9, note=38, velocity=122, time=0),
    Message('note_on', channel=4, note=42, velocity=0, time=7),
    Message('note_on', channel=3, note=42, velocity=0, time=0),
    Message('note_on', channel=4, note=49, velocity=0, time=1),
    Message('note_on', channel=3, note=49, velocity=0, time=0),
    Message('note_on', channel=9, note=42, velocity=119, time=2),
    Message('note_on', channel=9, note=38, velocity=0, time=37),
    Message('note_on', channel=9, note=42, velocity=0, time=3),
    Message('note_on', channel=1, note=42, velocity=119, time=190),
    Message('note_on', channel=2, note=61, velocity=127, time=0),
    Message('note_on', channel=3, note=66, velocity=93, time=0),
    Message('note_on', channel=3, note=70, velocity=105, time=0),
    Message('note_on', channel=3, note=61, velocity=98, time=0),
    Message('note_on', channel=4, note=66, velocity=93, time=0),
    Message('note_on', channel=4, note=70, velocity=105, time=0),
    Message('note_on', channel=4, note=61, velocity=98, time=0),
    Message('note_on', channel=9, note=42, velocity=91, time=10),
    Message('note_on', channel=1, note=42, velocity=0, time=18),
    Message('note_on', channel=9, note=42, velocity=0, time=18),
    Message('note_on', channel=4, note=70, velocity=0, time=56),
    Message('note_on', channel=3, note=70, velocity=0, time=0),
    Message('note_on', channel=4, note=61, velocity=0, time=6),
    Message('note_on', channel=3, note=61, velocity=0, time=0),
    Message('note_on', channel=4, note=66, velocity=0, time=8),
    Message('note_on', channel=3, note=66, velocity=0, time=0),
    Message('note_on', channel=1, note=42, velocity=124, time=4),
    Message('note_on', channel=9, note=38, velocity=122, time=0),
    Message('note_on', channel=2, note=58, velocity=0, time=10),
    Message('note_on', channel=9, note=42, velocity=107, time=0),
    Message('note_on', channel=2, note=54, velocity=0, time=2),
    Message('note_on', channel=9, note=38, velocity=0, time=20),
    Message('note_on', channel=2, note=61, velocity=0, time=7),
    Message('note_on', channel=9, note=42, velocity=0, time=10),
    Message('note_on', channel=1, note=42, velocity=0, time=51),
    Message('note_on', channel=1, note=40, velocity=119, time=20),
    Message('note_on', channel=2, note=40, velocity=127, time=0),
    Message('note_on', channel=2, note=52, velocity=127, time=0),
    Message('note_on', channel=3, note=52, velocity=122, time=0),
    Message('note_on', channel=4, note=52, velocity=122, time=0),
    Message('note_on', channel=9, note=36, velocity=122, time=10),
    Message('note_on', channel=9, note=42, velocity=114, time=0),
    Message('note_on', channel=9, note=42, velocity=0, time=45),
    Message('note_on', channel=9, note=36, velocity=0, time=10),
    Message('note_on', channel=1, note=40, velocity=0, time=67),
    Message('note_on', channel=2, note=40, velocity=0, time=43),
    Message('note_on', channel=3, note=52, velocity=0, time=47),
    Message('note_on', channel=4, note=52, velocity=0, time=0),
    Message('note_on', channel=2, note=52, velocity=0, time=10),
    Message('note_on', channel=1, note=40, velocity=124, time=8),
    Message('note_on', channel=2, note=59, velocity=127, time=0),
    Message('note_on', channel=2, note=56, velocity=127, time=0),
    Message('note_on', channel=3, note=68, velocity=114, time=0),
    Message('note_on', channel=3, note=64, velocity=107, time=0),
    Message('note_on', channel=3, note=59, velocity=101, time=0),
    Message('note_on', channel=4, note=68, velocity=114, time=0),
    Message('note_on', channel=4, note=64, velocity=107, time=0),
    Message('note_on', channel=4, note=59, velocity=101, time=0),
    Message('note_on', channel=9, note=36, velocity=116, time=10),
    Message('note_on', channel=9, note=42, velocity=77, time=0),
    Message('note_on', channel=9, note=42, velocity=0, time=44),
    Message('note_on', channel=9, note=36, velocity=0, time=1),
    Message('note_on', channel=2, note=56, velocity=0, time=17),
    Message('note_on', channel=2, note=59, velocity=0, time=5),
    Message('note_on', channel=3, note=68, velocity=0, time=49),
    Message('note_on', channel=4, note=68, velocity=0, time=0),
    Message('note_on', channel=4, note=59, velocity=0, time=2),
    Message('note_on', channel=3, note=59, velocity=0, time=0),
    Message('note_on', channel=4, note=64, velocity=0, time=3),
    Message('note_on', channel=3, note=64, velocity=0, time=0),
    Message('note_on', channel=1, note=40, velocity=0, time=70),
    Message('note_on', channel=2, note=56, velocity=127, time=39),
    Message('note_on', channel=2, note=52, velocity=127, time=0),
    Message('note_on', channel=3, note=59, velocity=105, time=0),
    Message('note_on', channel=3, note=52, velocity=103, time=0),
    Message('note_on', channel=4, note=59, velocity=105, time=0),
    Message('note_on', channel=4, note=52, velocity=103, time=0),
    Message('note_on', channel=9, note=38, velocity=116, time=0),
    Message('note_on', channel=4, note=52, velocity=0, time=8),
    Message('note_on', channel=3, note=52, velocity=0, time=0),
    Message('note_on', channel=4, note=59, velocity=0, time=2),
    Message('note_on', channel=3, note=59, velocity=0, time=0),
    Message('note_on', channel=9, note=42, velocity=119, time=0),
    Message('note_on', channel=9, note=38, velocity=0, time=37),
    Message('note_on', channel=9, note=42, velocity=0, time=4),
    Message('note_on', channel=2, note=59, velocity=127, time=189),
    Message('note_on', channel=3, note=68, velocity=112, time=0),
    Message('note_on', channel=3, note=64, velocity=101, time=0),
    Message('note_on', channel=3, note=59, velocity=91, time=0),
    Message('note_on', channel=4, note=68, velocity=112, time=0),
    Message('note_on', channel=4, note=59, velocity=91, time=0),
    Message('note_on', channel=4, note=64, velocity=101, time=0),
    Message('note_on', channel=9, note=42, velocity=93, time=10),
    Message('note_on', channel=9, note=42, velocity=0, time=37),
    Message('note_on', channel=1, note=35, velocity=122, time=73),
    Message('note_on', channel=9, note=38, velocity=116, time=0),
    Message('note_on', channel=2, note=56, velocity=0, time=4),
    Message('note_on', channel=2, note=52, velocity=0, time=1),
    Message('note_on', channel=4, note=64, velocity=0, time=2),
    Message('note_on', channel=3, note=64, velocity=0, time=0),
    Message('note_on', channel=4, note=59, velocity=0, time=2),
    Message('note_on', channel=3, note=59, velocity=0, time=0),
    Message('note_on', channel=9, note=42, velocity=98, time=1),
    Message('note_on', channel=3, note=68, velocity=0, time=3),
    Message('note_on', channel=4, note=68, velocity=0, time=0),
    Message('note_on', channel=2, note=59, velocity=0, time=22),
    Message('note_on', channel=9, note=42, velocity=0, time=13),
    Message('note_on', channel=9, note=38, velocity=0, time=1),
    Message('note_on', channel=1, note=35, velocity=0, time=14),
    Message('note_on', channel=1, note=28, velocity=124, time=57),
    Message('note_on', channel=2, note=40, velocity=127, time=0),
    Message('note_on', channel=2, note=52, velocity=127, time=0),
    Message('note_on', channel=9, note=36, velocity=107, time=10),
    Message('note_on', channel=9, note=42, velocity=116, time=0),
    Message('note_on', channel=9, note=36, velocity=0, time=31),
    Message('note_on', channel=9, note=42, velocity=0, time=7),
    Message('note_on', channel=9, note=38, velocity=122, time=72),
    Message('note_on', channel=2, note=40, velocity=0, time=8),
    Message('note_on', channel=1, note=28, velocity=0, time=2),
    Message('note_on', channel=9, note=42, velocity=97, time=0),
    Message('note_on', channel=9, note=38, velocity=0, time=29),
    Message('note_on', channel=9, note=42, velocity=0, time=6),
    Message('note_on', channel=1, note=28, velocity=119, time=75),
    Message('note_on', channel=2, note=59, velocity=127, time=0),
    Message('note_on', channel=2, note=56, velocity=127, time=0),
    Message('note_on', channel=3, note=64, velocity=98, time=0),
    Message('note_on', channel=3, note=59, velocity=94, time=0),
    Message('note_on', channel=3, note=68, velocity=109, time=0),
    Message('note_on', channel=4, note=68, velocity=109, time=0),
    Message('note_on', channel=4, note=59, velocity=94, time=0),
    Message('note_on', channel=4, note=64, velocity=98, time=0),
    Message('note_on', channel=9, note=42, velocity=87, time=10),
    Message('note_on', channel=9, note=36, velocity=124, time=0),
    Message('note_on', channel=9, note=42, velocity=0, time=35),
    Message('note_on', channel=9, note=36, velocity=0, time=4),
    Message('note_on', channel=2, note=56, velocity=0, time=23),
    Message('note_on', channel=2, note=59, velocity=0, time=2),
    Message('note_on', channel=2, note=52, velocity=0, time=9),
    Message('note_on', channel=4, note=59, velocity=0, time=33),
    Message('note_on', channel=3, note=59, velocity=0, time=0),
    Message('note_on', channel=3, note=64, velocity=0, time=10),
    Message('note_on', channel=4, note=64, velocity=0, time=0),
    Message('note_on', channel=1, note=28, velocity=0, time=0),
    Message('note_on', channel=4, note=68, velocity=0, time=6),
    Message('note_on', channel=3, note=68, velocity=0, time=0),
    Message('note_on', channel=1, note=32, velocity=127, time=108),
    Message('note_on', channel=2, note=51, velocity=127, time=0),
    Message('note_on', channel=2, note=39, velocity=127, time=0),
    Message('note_on', channel=3, note=40, velocity=98, time=0),
    Message('note_on', channel=3, note=47, velocity=116, time=0),
    Message('note_on', channel=4, note=40, velocity=98, time=0),
    Message('note_on', channel=4, note=47, velocity=116, time=0),
    Message('note_on', channel=9, note=38, velocity=122, time=0),
    Message('note_on', channel=9, note=42, velocity=124, time=10),
    Message('note_on', channel=4, note=47, velocity=0, time=15),
    Message('note_on', channel=3, note=47, velocity=0, time=0),
    Message('note_on', channel=3, note=40, velocity=0, time=1),
    Message('note_on', channel=4, note=40, velocity=0, time=0),
    Message('note_on', channel=9, note=38, velocity=0, time=21),
    Message('note_on', channel=9, note=42, velocity=0, time=6),
    Message('note_on', channel=1, note=32, velocity=0, time=109),
    Message('note_on', channel=2, note=39, velocity=0, time=64),
    Message('note_on', channel=2, note=51, velocity=0, time=9),
    Message('note_on', channel=1, note=35, velocity=127, time=5),
    Message('note_on', channel=2, note=37, velocity=127, time=0),
    Message('note_on', channel=2, note=49, velocity=127, time=0),
    Message('note_on', channel=2, note=64, velocity=127, time=0),
    Message('note_on', channel=2, note=56, velocity=127, time=0),
    Message('note_on', channel=2, note=59, velocity=127, time=0),
    Message('note_on', channel=3, note=64, velocity=103, time=0),
    Message('note_on', channel=3, note=59, velocity=96, time=0),
    Message('note_on', channel=3, note=68, velocity=112, time=0),
    Message('note_on', channel=4, note=64, velocity=103, time=0),
    Message('note_on', channel=4, note=68, velocity=112, time=0),
    Message('note_on', channel=4, note=59, velocity=96, time=0),
    Message('note_on', channel=9, note=38, velocity=101, time=0),
    Message('note_on', channel=9, note=42, velocity=77, time=10),
    Message('note_on', channel=9, note=38, velocity=0, time=18),
    Message('note_on', channel=9, note=42, velocity=0, time=10),
    Message('note_on', channel=2, note=49, velocity=0, time=50),
    Message('note_on', channel=9, note=38, velocity=122, time=32),
    Message('note_on', channel=2, note=56, velocity=0, time=3),
    Message('note_on', channel=3, note=59, velocity=0, time=2),
    Message('note_on', channel=4, note=59, velocity=0, time=0),
    Message('note_on', channel=4, note=64, velocity=0, time=1),
    Message('note_on', channel=3, note=64, velocity=0, time=0),
    Message('note_on', channel=2, note=59, velocity=0, time=0),
    Message('note_on', channel=2, note=64, velocity=0, time=6),
    Message('note_on', channel=3, note=68, velocity=0, time=3),
    Message('note_on', channel=4, note=68, velocity=0, time=0),
    Message('note_on', channel=9, note=38, velocity=0, time=21),
    Message('note_on', channel=1, note=35, velocity=0, time=15),
    Message('note_on', channel=2, note=37, velocity=0, time=25),
    Message('note_on', channel=1, note=35, velocity=124, time=44),
    Message('note_on', channel=2, note=47, velocity=127, time=0),
    Message('note_on', channel=2, note=35, velocity=127, time=0),
    Message('note_on', channel=3, note=47, velocity=98, time=0),
    Message('note_on', channel=4, note=47, velocity=98, time=0),
    Message('note_on', channel=9, note=36, velocity=124, time=10),
    Message('note_on', channel=9, note=42, velocity=124, time=0),
    Message('note_on', channel=9, note=42, velocity=0, time=44),
    Message('note_on', channel=9, note=36, velocity=0, time=22),
    Message('note_on', channel=1, note=35, velocity=0, time=83),
    Message('note_on', channel=3, note=47, velocity=0, time=9),
    Message('note_on', channel=4, note=47, velocity=0, time=0),
    Message('note_on', channel=2, note=35, velocity=0, time=17),
    Message('note_on', channel=1, note=35, velocity=114, time=55),
    Message('note_on', channel=2, note=59, velocity=127, time=0),
    Message('note_on', channel=2, note=54, velocity=127, time=0),
    Message('note_on', channel=2, note=63, velocity=127, time=0),
    Message('note_on', channel=3, note=71, velocity=89, time=0),
    Message('note_on', channel=3, note=59, velocity=101, time=0),
    Message('note_on', channel=3, note=66, velocity=105, time=0),
    Message('note_on', channel=3, note=63, velocity=101, time=0),
    Message('note_on', channel=4, note=59, velocity=101, time=0),
    Message('note_on', channel=4, note=71, velocity=89, time=0),
    Message('note_on', channel=4, note=63, velocity=101, time=0),
    Message('note_on', channel=4, note=66, velocity=105, time=0),
    Message('note_on', channel=9, note=42, velocity=89, time=10),
    Message('note_on', channel=9, note=36, velocity=122, time=0),
    Message('note_on', channel=2, note=47, velocity=0, time=31),
    Message('note_on', channel=9, note=42, velocity=0, time=5),
    Message('note_on', channel=2, note=54, velocity=0, time=10),
    Message('note_on', channel=2, note=59, velocity=0, time=5),
    Message('note_on', channel=2, note=63, velocity=0, time=8),
    Message('note_on', channel=9, note=36, velocity=0, time=0),
    Message('note_on', channel=3, note=59, velocity=0, time=26),
    Message('note_on', channel=4, note=59, velocity=0, time=0),
    Message('note_on', channel=3, note=66, velocity=0, time=5),
    Message('note_on', channel=4, note=66, velocity=0, time=0),
    Message('note_on', channel=3, note=63, velocity=0, time=6),
    Message('note_on', channel=4, note=63, velocity=0, time=0),
    Message('note_on', channel=4, note=71, velocity=0, time=10),
    Message('note_on', channel=3, note=71, velocity=0, time=0),
    Message('note_on', channel=1, note=35, velocity=0, time=78),
    Message('note_on', channel=2, note=59, velocity=127, time=46),
    Message('note_on', channel=2, note=63, velocity=127, time=0),
    Message('note_on', channel=3, note=54, velocity=112, time=0),
    Message('note_on', channel=3, note=47, velocity=82, time=0),
    Message('note_on', channel=4, note=47, velocity=82, time=0),
    Message('note_on', channel=4, note=54, velocity=112, time=0),
    Message('note_on', channel=9, note=38, velocity=124, time=0),
    Message('note_on', channel=4, note=54, velocity=0, time=7),
    Message('note_on', channel=3, note=54, velocity=0, time=0),
    Message('note_on', channel=4, note=47, velocity=0, time=1),
    Message('note_on', channel=3, note=47, velocity=0, time=0),
    Message('note_on', channel=9, note=42, velocity=119, time=2),
    Message('note_on', channel=9, note=38, velocity=0, time=40),
    Message('note_on', channel=9, note=42, velocity=0, time=11),
    Message('note_on', channel=1, note=35, velocity=91, time=179),
    Message('note_on', channel=2, note=66, velocity=127, time=0),
    Message('note_on', channel=3, note=66, velocity=112, time=0),
    Message('note_on', channel=3, note=71, velocity=93, time=0),
    Message('note_on', channel=3, note=63, velocity=109, time=0),
    Message('note_on', channel=3, note=59, velocity=103, time=0),
    Message('note_on', channel=4, note=66, velocity=112, time=0),
    Message('note_on', channel=4, note=59, velocity=103, time=0),
    Message('note_on', channel=4, note=71, velocity=93, time=0),
    Message('note_on', channel=4, note=63, velocity=109, time=0),
    Message('note_on', channel=9, note=42, velocity=89, time=10),
    Message('note_on', channel=2, note=63, velocity=0, time=9),
    Message('note_on', channel=9, note=42, velocity=0, time=29),
    Message('note_on', channel=1, note=35, velocity=0, time=23),
    Message('note_on', channel=1, note=35, velocity=89, time=49),
    Message('note_on', channel=9, note=38, velocity=122, time=0),
    Message('note_on', channel=4, note=66, velocity=0, time=10),
    Message('note_on', channel=3, note=66, velocity=0, time=0),
    Message('note_on', channel=9, note=42, velocity=96, time=0),
    Message('note_on', channel=3, note=59, velocity=0, time=6),
    Message('note_on', channel=4, note=59, velocity=0, time=0),
    Message('note_on', channel=4, note=63, velocity=0, time=2),
    Message('note_on', channel=3, note=63, velocity=0, time=0),
    Message('note_on', channel=2, note=66, velocity=0, time=9),
    Message('note_on', channel=4, note=71, velocity=0, time=4),
    Message('note_on', channel=3, note=71, velocity=0, time=0),
    Message('note_on', channel=9, note=38, velocity=0, time=6),
    Message('note_on', channel=9, note=42, velocity=0, time=7),
    Message('note_on', channel=2, note=59, velocity=0, time=7),
    Message('note_on', channel=1, note=35, velocity=0, time=5),
    Message('note_on', channel=1, note=42, velocity=122, time=64),
    Message('note_on', channel=2, note=42, velocity=127, time=0),
    Message('note_on', channel=2, note=42, velocity=127, time=0),
    Message('note_on', channel=3, note=54, velocity=112, time=0),
    Message('note_on', channel=4, note=54, velocity=112, time=0),
    Message('note_on', channel=9, note=42, velocity=103, time=10),
    Message('note_on', channel=9, note=36, velocity=114, time=0),
    Message('note_on', channel=9, note=42, velocity=0, time=35),
    Message('note_on', channel=9, note=36, velocity=0, time=20),
    Message('note_on', channel=9, note=38, velocity=109, time=55),
    Message('note_on', channel=1, note=42, velocity=0, time=3),
    Message('note_on', channel=9, note=42, velocity=89, time=7),
    Message('note_on', channel=9, note=42, velocity=0, time=35),
    Message('note_on', channel=9, note=38, velocity=0, time=3),
    Message('note_on', channel=2, note=42, velocity=0, time=4),
    Message('note_on', channel=3, note=54, velocity=0, time=36),
    Message('note_on', channel=4, note=54, velocity=0, time=0),
    Message('note_on', channel=1, note=42, velocity=122, time=32),
    Message('note_on', channel=2, note=58, velocity=127, time=0),
    Message('note_on', channel=2, note=61, velocity=127, time=0),
    Message('note_on', channel=2, note=54, velocity=127, time=0),
    Message('note_on', channel=3, note=66, velocity=105, time=0),
    Message('note_on', channel=3, note=70, velocity=109, time=0),
    Message('note_on', channel=3, note=61, velocity=94, time=0),
    Message('note_on', channel=4, note=66, velocity=105, time=0),
    Message('note_on', channel=4, note=61, velocity=94, time=0),
    Message('note_on', channel=4, note=70, velocity=109, time=0),
    Message('note_on', channel=9, note=36, velocity=116, time=10),
    Message('note_on', channel=9, note=42, velocity=82, time=0),
    Message('note_on', channel=2, note=42, velocity=0, time=13),
    Message('note_on', channel=9, note=42, velocity=0, time=20),
    Message('note_on', channel=2, note=58, velocity=0, time=3),
    Message('note_on', channel=2, note=54, velocity=0, time=4),
    Message('note_on', channel=2, note=61, velocity=0, time=3),
    Message('note_on', channel=9, note=36, velocity=0, time=1),
    Message('note_on', channel=4, note=70, velocity=0, time=28),
    Message('note_on', channel=3, note=70, velocity=0, time=0),
    Message('note_on', channel=3, note=61, velocity=0, time=2),
    Message('note_on', channel=4, note=61, velocity=0, time=0),
    Message('note_on', channel=3, note=66, velocity=0, time=14),
    Message('note_on', channel=4, note=66, velocity=0, time=0),
    Message('note_on', channel=1, note=42, velocity=0, time=95),
    Message('note_on', channel=2, note=54, velocity=127, time=47),
    Message('note_on', channel=2, note=58, velocity=127, time=0),
    Message('note_on', channel=3, note=42, velocity=105, time=0),
    Message('note_on', channel=3, note=49, velocity=114, time=0),
    Message('note_on', channel=4, note=49, velocity=114, time=0),
    Message('note_on', channel=4, note=42, velocity=105, time=0),
    Message('note_on', channel=9, note=38, velocity=122, time=0),
    Message('note_on', channel=4, note=42, velocity=0, time=7),
    Message('note_on', channel=3, note=42, velocity=0, time=0),
    Message('note_on', channel=4, note=49, velocity=0, time=1),
    Message('note_on', channel=3, note=49, velocity=0, time=0),
    Message('note_on', channel=9, note=42, velocity=119, time=2),
    Message('note_on', channel=9, note=38, velocity=0, time=37),
    Message('note_on', channel=9, note=42, velocity=0, time=3),
    Message('note_on', channel=1, note=42, velocity=119, time=190),
    Message('note_on', channel=2, note=61, velocity=127, time=0),
    Message('note_on', channel=3, note=66, velocity=93, time=0),
    Message('note_on', channel=3, note=70, velocity=105, time=0),
    Message('note_on', channel=3, note=61, velocity=98, time=0),
    Message('note_on', channel=4, note=66, velocity=93, time=0),
    Message('note_on', channel=4, note=70, velocity=105, time=0),
    Message('note_on', channel=4, note=61, velocity=98, time=0),
    Message('note_on', channel=9, note=42, velocity=91, time=10),
    Message('note_on', channel=9, note=42, velocity=0, time=36),
    Message('note_on', channel=1, note=42, velocity=0, time=1),
    Message('note_on', channel=4, note=70, velocity=0, time=55),
    Message('note_on', channel=3, note=70, velocity=0, time=0),
    Message('note_on', channel=4, note=61, velocity=0, time=6),
    Message('note_on', channel=3, note=61, velocity=0, time=0),
    Message('note_on', channel=4, note=66, velocity=0, time=8),
    Message('note_on', channel=3, note=66, velocity=0, time=0),
    Message('note_on', channel=1, note=42, velocity=107, time=4),
    Message('note_on', channel=9, note=38, velocity=122, time=0),
    Message('note_on', channel=2, note=58, velocity=0, time=10),
    Message('note_on', channel=9, note=42, velocity=107, time=0),
    Message('note_on', channel=2, note=54, velocity=0, time=2),
    Message('note_on', channel=9, note=38, velocity=0, time=20),
    Message('note_on', channel=2, note=61, velocity=0, time=7),
    Message('note_on', channel=9, note=42, velocity=0, time=10),
    Message('note_on', channel=1, note=42, velocity=0, time=13),
    Message('note_on', channel=1, note=28, velocity=109, time=58),
    Message('note_on', channel=2, note=40, velocity=127, time=0),
    Message('note_on', channel=2, note=52, velocity=127, time=0),
    Message('note_on', channel=3, note=52, velocity=122, time=0),
    Message('note_on', channel=4, note=52, velocity=122, time=0),
    Message('note_on', channel=9, note=36, velocity=122, time=10),
    Message('note_on', channel=9, note=42, velocity=114, time=0),
    Message('note_on', channel=9, note=42, velocity=0, time=45),
    Message('note_on', channel=9, note=36, velocity=0, time=10),
    Message('note_on', channel=1, note=28, velocity=0, time=62),
    Message('note_on', channel=2, note=40, velocity=0, time=48),
    Message('note_on', channel=3, note=52, velocity=0, time=47),
    Message('note_on', channel=4, note=52, velocity=0, time=0),
    Message('note_on', channel=2, note=52, velocity=0, time=10),
    Message('note_on', channel=1, note=28, velocity=114, time=8),
    Message('note_on', channel=2, note=59, velocity=127, time=0),
    Message('note_on', channel=2, note=56, velocity=127, time=0),
    Message('note_on', channel=3, note=68, velocity=114, time=0),
    Message('note_on', channel=3, note=64, velocity=107, time=0),
    Message('note_on', channel=3, note=59, velocity=101, time=0),
    Message('note_on', channel=4, note=68, velocity=114, time=0),
    Message('note_on', channel=4, note=64, velocity=107, time=0),
    Message('note_on', channel=4, note=59, velocity=101, time=0),
    Message('note_on', channel=9, note=36, velocity=116, time=10),
    Message('note_on', channel=9, note=42, velocity=77, time=0),
    Message('note_on', channel=9, note=42, velocity=0, time=44),
    Message('note_on', channel=9, note=36, velocity=0, time=1),
    Message('note_on', channel=2, note=56, velocity=0, time=17),
    Message('note_on', channel=2, note=59, velocity=0, time=5),
    Message('note_on', channel=3, note=68, velocity=0, time=49),
    Message('note_on', channel=4, note=68, velocity=0, time=0),
    Message('note_on', channel=4, note=59, velocity=0, time=2),
    Message('note_on', channel=3, note=59, velocity=0, time=0),
    Message('note_on', channel=4, note=64, velocity=0, time=3),
    Message('note_on', channel=3, note=64, velocity=0, time=0),
    Message('note_on', channel=1, note=28, velocity=0, time=38),
    Message('note_on', channel=2, note=56, velocity=127, time=71),
    Message('note_on', channel=2, note=52, velocity=127, time=0),
    Message('note_on', channel=3, note=59, velocity=105, time=0),
    Message('note_on', channel=3, note=52, velocity=103, time=0),
    Message('note_on', channel=4, note=59, velocity=105, time=0),
    Message('note_on', channel=4, note=52, velocity=103, time=0),
    Message('note_on', channel=9, note=38, velocity=116, time=0),
    Message('note_on', channel=4, note=52, velocity=0, time=8),
    Message('note_on', channel=3, note=52, velocity=0, time=0),
    Message('note_on', channel=4, note=59, velocity=0, time=2),
    Message('note_on', channel=3, note=59, velocity=0, time=0),
    Message('note_on', channel=9, note=42, velocity=119, time=0),
    Message('note_on', channel=9, note=38, velocity=0, time=37),
    Message('note_on', channel=9, note=42, velocity=0, time=4),
    Message('note_on', channel=2, note=59, velocity=127, time=189),
    Message('note_on', channel=3, note=68, velocity=112, time=0),
    Message('note_on', channel=3, note=64, velocity=101, time=0),
    Message('note_on', channel=3, note=59, velocity=91, time=0),
    Message('note_on', channel=4, note=68, velocity=112, time=0),
    Message('note_on', channel=4, note=64, velocity=101, time=0),
    Message('note_on', channel=4, note=59, velocity=91, time=0),
    Message('note_on', channel=9, note=42, velocity=93, time=10),
    Message('note_on', channel=9, note=42, velocity=0, time=37),
    Message('note_on', channel=1, note=35, velocity=122, time=73),
    Message('note_on', channel=9, note=38, velocity=116, time=0),
    Message('note_on', channel=2, note=56, velocity=0, time=4),
    Message('note_on', channel=2, note=52, velocity=0, time=1),
    Message('note_on', channel=4, note=64, velocity=0, time=2),
    Message('note_on', channel=3, note=64, velocity=0, time=0),
    Message('note_on', channel=4, note=59, velocity=0, time=2),
    Message('note_on', channel=3, note=59, velocity=0, time=0),
    Message('note_on', channel=9, note=42, velocity=98, time=1),
    Message('note_on', channel=3, note=68, velocity=0, time=3),
    Message('note_on', channel=4, note=68, velocity=0, time=0),
    Message('note_on', channel=2, note=59, velocity=0, time=22),
    Message('note_on', channel=9, note=42, velocity=0, time=13),
    Message('note_on', channel=9, note=38, velocity=0, time=1),
    Message('note_on', channel=1, note=35, velocity=0, time=24),
    Message('note_on', channel=1, note=40, velocity=119, time=47),
    Message('note_on', channel=2, note=52, velocity=127, time=0),
    Message('note_on', channel=2, note=40, velocity=127, time=0),
    Message('note_on', channel=9, note=36, velocity=107, time=10),
    Message('note_on', channel=9, note=42, velocity=116, time=0),
    Message('note_on', channel=9, note=36, velocity=0, time=31),
    Message('note_on', channel=9, note=42, velocity=0, time=7),
    Message('note_on', channel=9, note=38, velocity=122, time=72),
    Message('note_on', channel=2, note=40, velocity=0, time=8),
    Message('note_on', channel=9, note=42, velocity=97, time=2),
    Message('note_on', channel=1, note=40, velocity=0, time=4),
    Message('note_on', channel=9, note=38, velocity=0, time=25),
    Message('note_on', channel=9, note=42, velocity=0, time=6),
    Message('note_on', channel=1, note=40, velocity=116, time=75),
    Message('note_on', channel=2, note=59, velocity=127, time=0),
    Message('note_on', channel=2, note=56, velocity=127, time=0),
    Message('note_on', channel=3, note=64, velocity=98, time=0),
    Message('note_on', channel=3, note=59, velocity=94, time=0),
    Message('note_on', channel=3, note=68, velocity=109, time=0),
    Message('note_on', channel=4, note=59, velocity=94, time=0),
    Message('note_on', channel=4, note=68, velocity=109, time=0),
    Message('note_on', channel=4, note=64, velocity=98, time=0),
    Message('note_on', channel=9, note=42, velocity=87, time=10),
    Message('note_on', channel=9, note=36, velocity=124, time=0),
    Message('note_on', channel=9, note=42, velocity=0, time=35),
    Message('note_on', channel=9, note=36, velocity=0, time=4),
    Message('note_on', channel=2, note=56, velocity=0, time=23),
    Message('note_on', channel=2, note=59, velocity=0, time=2),
    Message('note_on', channel=2, note=52, velocity=0, time=9),
    Message('note_on', channel=4, note=59, velocity=0, time=33),
    Message('note_on', channel=3, note=59, velocity=0, time=0),
    Message('note_on', channel=3, note=64, velocity=0, time=10),
    Message('note_on', channel=4, note=64, velocity=0, time=0),
    Message('note_on', channel=4, note=68, velocity=0, time=6),
    Message('note_on', channel=3, note=68, velocity=0, time=0),
    Message('note_on', channel=1, note=40, velocity=0, time=23),
    Message('note_on', channel=1, note=39, velocity=124, time=85),
    Message('note_on', channel=2, note=51, velocity=127, time=0),
    Message('note_on', channel=2, note=39, velocity=127, time=0),
    Message('note_on', channel=3, note=40, velocity=98, time=0),
    Message('note_on', channel=3, note=47, velocity=116, time=0),
    Message('note_on', channel=4, note=47, velocity=116, time=0),
    Message('note_on', channel=4, note=40, velocity=98, time=0),
    Message('note_on', channel=9, note=38, velocity=122, time=0),
    Message('note_on', channel=9, note=42, velocity=124, time=10),
    Message('note_on', channel=4, note=47, velocity=0, time=15),
    Message('note_on', channel=3, note=47, velocity=0, time=0),
    Message('note_on', channel=3, note=40, velocity=0, time=1),
    Message('note_on', channel=4, note=40, velocity=0, time=0),
    Message('note_on', channel=9, note=38, velocity=0, time=21),
    Message('note_on', channel=9, note=42, velocity=0, time=6),
    Message('note_on', channel=2, note=39, velocity=0, time=173),
    Message('note_on', channel=1, note=39, velocity=0, time=1),
    Message('note_on', channel=2, note=51, velocity=0, time=8),
    Message('note_on', channel=1, note=37, velocity=122, time=5),
    Message('note_on', channel=2, note=37, velocity=127, time=0),
    Message('note_on', channel=2, note=59, velocity=127, time=0),
    Message('note_on', channel=2, note=64, velocity=127, time=0),
    Message('note_on', channel=2, note=49, velocity=127, time=0),
    Message('note_on', channel=2, note=56, velocity=127, time=0),
    Message('note_on', channel=3, note=64, velocity=103, time=0),
    Message('note_on', channel=3, note=59, velocity=96, time=0),
    Message('note_on', channel=3, note=68, velocity=112, time=0),
    Message('note_on', channel=4, note=64, velocity=103, time=0),
    Message('note_on', channel=4, note=59, velocity=96, time=0),
    Message('note_on', channel=4, note=68, velocity=112, time=0),
    Message('note_on', channel=9, note=38, velocity=101, time=0),
    Message('note_on', channel=9, note=42, velocity=77, time=10),
    Message('note_on', channel=9, note=38, velocity=0, time=18),
    Message('note_on', channel=9, note=42, velocity=0, time=10),
    Message('note_on', channel=2, note=49, velocity=0, time=50),
    Message('note_on', channel=9, note=38, velocity=122, time=32),
    Message('note_on', channel=2, note=56, velocity=0, time=3),
    Message('note_on', channel=4, note=59, velocity=0, time=2),
    Message('note_on', channel=3, note=59, velocity=0, time=0),
    Message('note_on', channel=2, note=59, velocity=0, time=1),
    Message('note_on', channel=4, note=64, velocity=0, time=0),
    Message('note_on', channel=3, note=64, velocity=0, time=0),
    Message('note_on', channel=2, note=64, velocity=0, time=6),
    Message('note_on', channel=3, note=68, velocity=0, time=3),
    Message('note_on', channel=4, note=68, velocity=0, time=0),
    Message('note_on', channel=9, note=38, velocity=0, time=21),
    Message('note_on', channel=2, note=37, velocity=0, time=40),
    Message('note_on', channel=1, note=37, velocity=0, time=31),
    Message('note_on', channel=1, note=35, velocity=127, time=13),
    Message('note_on', channel=2, note=47, velocity=127, time=0),
    Message('note_on', channel=2, note=35, velocity=127, time=0),
    Message('note_on', channel=3, note=47, velocity=98, time=0),
    Message('note_on', channel=4, note=47, velocity=98, time=0),
    Message('note_on', channel=9, note=36, velocity=124, time=10),
    Message('note_on', channel=9, note=42, velocity=124, time=0),
    Message('note_on', channel=9, note=42, velocity=0, time=44),
    Message('note_on', channel=9, note=36, velocity=0, time=22),
    Message('note_on', channel=1, note=35, velocity=0, time=33),
    Message('note_on', channel=3, note=47, velocity=0, time=59),
    Message('note_on', channel=4, note=47, velocity=0, time=0),
    Message('note_on', channel=2, note=35, velocity=0, time=17),
    Message('note_on', channel=1, note=35, velocity=127, time=55),
    Message('note_on', channel=2, note=59, velocity=127, time=0),
    Message('note_on', channel=2, note=54, velocity=127, time=0),
    Message('note_on', channel=2, note=63, velocity=127, time=0),
    Message('note_on', channel=3, note=71, velocity=89, time=0),
    Message('note_on', channel=3, note=59, velocity=101, time=0),
    Message('note_on', channel=3, note=66, velocity=105, time=0),
    Message('note_on', channel=3, note=63, velocity=101, time=0),
    Message('note_on', channel=4, note=59, velocity=101, time=0),
    Message('note_on', channel=4, note=71, velocity=89, time=0),
    Message('note_on', channel=4, note=63, velocity=101, time=0),
    Message('note_on', channel=4, note=66, velocity=105, time=0),
    Message('note_on', channel=9, note=42, velocity=89, time=10),
    Message('note_on', channel=9, note=36, velocity=122, time=0),
    Message('note_on', channel=2, note=47, velocity=0, time=31),
    Message('note_on', channel=9, note=42, velocity=0, time=5),
    Message('note_on', channel=2, note=54, velocity=0, time=10),
    Message('note_on', channel=2, note=59, velocity=0, time=5),
    Message('note_on', channel=2, note=63, velocity=0, time=8),
    Message('note_on', channel=9, note=36, velocity=0, time=0),
    Message('note_on', channel=3, note=59, velocity=0, time=26),
    Message('note_on', channel=4, note=59, velocity=0, time=0),
    Message('note_on', channel=3, note=66, velocity=0, time=5),
    Message('note_on', channel=4, note=66, velocity=0, time=0),
    Message('note_on', channel=3, note=63, velocity=0, time=6),
    Message('note_on', channel=4, note=63, velocity=0, time=0),
    Message('note_on', channel=4, note=71, velocity=0, time=10),
    Message('note_on', channel=3, note=71, velocity=0, time=0),
    Message('note_on', channel=1, note=35, velocity=0, time=6),
    Message('note_on', channel=2, note=59, velocity=127, time=118),
    Message('note_on', channel=2, note=63, velocity=127, time=0),
    Message('note_on', channel=3, note=47, velocity=82, time=0),
    Message('note_on', channel=3, note=54, velocity=112, time=0),
    Message('note_on', channel=4, note=54, velocity=112, time=0),
    Message('note_on', channel=4, note=47, velocity=82, time=0),
    Message('note_on', channel=9, note=38, velocity=124, time=0),
    Message('note_on', channel=4, note=54, velocity=0, time=7),
    Message('note_on', channel=3, note=54, velocity=0, time=0),
    Message('note_on', channel=3, note=47, velocity=0, time=1),
    Message('note_on', channel=4, note=47, velocity=0, time=0),
    Message('note_on', channel=9, note=42, velocity=119, time=2),
    Message('note_on', channel=9, note=38, velocity=0, time=40),
    Message('note_on', channel=9, note=42, velocity=0, time=11),
    Message('note_on', channel=1, note=35, velocity=109, time=179),
    Message('note_on', channel=2, note=66, velocity=127, time=0),
    Message('note_on', channel=3, note=66, velocity=112, time=0),
    Message('note_on', channel=3, note=71, velocity=93, time=0),
    Message('note_on', channel=3, note=63, velocity=109, time=0),
    Message('note_on', channel=3, note=59, velocity=103, time=0),
    Message('note_on', channel=4, note=66, velocity=112, time=0),
    Message('note_on', channel=4, note=71, velocity=93, time=0),
    Message('note_on', channel=4, note=63, velocity=109, time=0),
    Message('note_on', channel=4, note=59, velocity=103, time=0),
    Message('note_on', channel=9, note=42, velocity=89, time=10),
    Message('note_on', channel=2, note=63, velocity=0, time=9),
    Message('note_on', channel=9, note=42, velocity=0, time=29),
    Message('note_on', channel=1, note=35, velocity=0, time=5),
    Message('note_on', channel=1, note=35, velocity=112, time=67),
    Message('note_on', channel=9, note=38, velocity=122, time=0),
    Message('note_on', channel=4, note=66, velocity=0, time=10),
    Message('note_on', channel=3, note=66, velocity=0, time=0),
    Message('note_on', channel=9, note=42, velocity=96, time=0),
    Message('note_on', channel=3, note=59, velocity=0, time=6),
    Message('note_on', channel=4, note=59, velocity=0, time=0),
    Message('note_on', channel=4, note=63, velocity=0, time=2),
    Message('note_on', channel=3, note=63, velocity=0, time=0),
    Message('note_on', channel=2, note=66, velocity=0, time=9),
    Message('note_on', channel=4, note=71, velocity=0, time=4),
    Message('note_on', channel=3, note=71, velocity=0, time=0),
    Message('note_on', channel=9, note=38, velocity=0, time=6),
    Message('note_on', channel=9, note=42, velocity=0, time=7),
    Message('note_on', channel=2, note=59, velocity=0, time=7),
    Message('note_on', channel=1, note=35, velocity=0, time=2),
    Message('note_on', channel=1, note=42, velocity=119, time=67),
    Message('note_on', channel=2, note=42, velocity=127, time=0),
    Message('note_on', channel=2, note=42, velocity=127, time=0),
    Message('note_on', channel=3, note=54, velocity=112, time=0),
    Message('note_on', channel=4, note=54, velocity=112, time=0),
    Message('note_on', channel=9, note=36, velocity=114, time=10),
    Message('note_on', channel=9, note=42, velocity=103, time=0),
    Message('note_on', channel=9, note=42, velocity=0, time=35),
    Message('note_on', channel=9, note=36, velocity=0, time=20),
    Message('note_on', channel=9, note=38, velocity=109, time=55),
    Message('note_on', channel=9, note=42, velocity=89, time=10),
    Message('note_on', channel=1, note=42, velocity=0, time=22),
    Message('note_on', channel=9, note=42, velocity=0, time=13),
    Message('note_on', channel=9, note=38, velocity=0, time=3),
    Message('note_on', channel=2, note=42, velocity=0, time=4),
    Message('note_on', channel=3, note=54, velocity=0, time=36),
    Message('note_on', channel=4, note=54, velocity=0, time=0),
    Message('note_on', channel=1, note=42, velocity=127, time=32),
    Message('note_on', channel=2, note=61, velocity=127, time=0),
    Message('note_on', channel=2, note=58, velocity=127, time=0),
    Message('note_on', channel=2, note=54, velocity=127, time=0),
    Message('note_on', channel=3, note=66, velocity=105, time=0),
    Message('note_on', channel=3, note=61, velocity=94, time=0),
    Message('note_on', channel=3, note=70, velocity=109, time=0),
    Message('note_on', channel=4, note=66, velocity=105, time=0),
    Message('note_on', channel=4, note=61, velocity=94, time=0),
    Message('note_on', channel=4, note=70, velocity=109, time=0),
    Message('note_on', channel=9, note=42, velocity=82, time=10),
    Message('note_on', channel=9, note=36, velocity=116, time=0),
    Message('note_on', channel=2, note=42, velocity=0, time=13),
    Message('note_on', channel=9, note=42, velocity=0, time=20),
    Message('note_on', channel=2, note=58, velocity=0, time=3),
    Message('note_on', channel=2, note=54, velocity=0, time=4),
    Message('note_on', channel=2, note=61, velocity=0, time=3),
    Message('note_on', channel=9, note=36, velocity=0, time=1),
    Message('note_on', channel=3, note=70, velocity=0, time=28),
    Message('note_on', channel=4, note=70, velocity=0, time=0),
    Message('note_on', channel=3, note=61, velocity=0, time=2),
    Message('note_on', channel=4, note=61, velocity=0, time=0),
    Message('note_on', channel=3, note=66, velocity=0, time=14),
    Message('note_on', channel=4, note=66, velocity=0, time=0),
    Message('note_on', channel=1, note=42, velocity=0, time=112),
    Message('note_on', channel=2, note=54, velocity=127, time=30),
    Message('note_on', channel=2, note=58, velocity=127, time=0),
    Message('note_on', channel=3, note=49, velocity=114, time=0),
    Message('note_on', channel=3, note=42, velocity=105, time=0),
    Message('note_on', channel=4, note=42, velocity=105, time=0),
    Message('note_on', channel=4, note=49, velocity=114, time=0),
    Message('note_on', channel=9, note=38, velocity=122, time=0),
    Message('note_on', channel=4, note=42, velocity=0, time=7),
    Message('note_on', channel=3, note=42, velocity=0, time=0),
    Message('note_on', channel=3, note=49, velocity=0, time=1),
    Message('note_on', channel=4, note=49, velocity=0, time=0),
    Message('note_on', channel=9, note=42, velocity=119, time=2),
    Message('note_on', channel=9, note=38, velocity=0, time=37),
    Message('note_on', channel=9, note=42, velocity=0, time=3),
    Message('note_on', channel=1, note=42, velocity=119, time=190),
    Message('note_on', channel=2, note=61, velocity=127, time=0),
    Message('note_on', channel=3, note=66, velocity=93, time=0),
    Message('note_on', channel=3, note=61, velocity=98, time=0),
    Message('note_on', channel=3, note=70, velocity=105, time=0),
    Message('note_on', channel=4, note=66, velocity=93, time=0),
    Message('note_on', channel=4, note=61, velocity=98, time=0),
    Message('note_on', channel=4, note=70, velocity=105, time=0),
    Message('note_on', channel=9, note=42, velocity=91, time=10),
    Message('note_on', channel=1, note=42, velocity=0, time=18),
    Message('note_on', channel=9, note=42, velocity=0, time=18),
    Message('note_on', channel=4, note=70, velocity=0, time=56),
    Message('note_on', channel=3, note=70, velocity=0, time=0),
    Message('note_on', channel=4, note=61, velocity=0, time=6),
    Message('note_on', channel=3, note=61, velocity=0, time=0),
    Message('note_on', channel=4, note=66, velocity=0, time=8),
    Message('note_on', channel=3, note=66, velocity=0, time=0),
    Message('note_on', channel=1, note=42, velocity=124, time=4),
    Message('note_on', channel=9, note=38, velocity=122, time=0),
    Message('note_on', channel=2, note=58, velocity=0, time=10),
    Message('note_on', channel=9, note=42, velocity=107, time=0),
    Message('note_on', channel=2, note=54, velocity=0, time=2),
    Message('note_on', channel=9, note=38, velocity=0, time=20),
    Message('note_on', channel=2, note=61, velocity=0, time=7),
    Message('note_on', channel=9, note=42, velocity=0, time=10),
    Message('note_on', channel=1, note=42, velocity=0, time=51),
    Message('note_on', channel=1, note=40, velocity=119, time=20),
    Message('note_on', channel=2, note=40, velocity=127, time=0),
    Message('note_on', channel=2, note=52, velocity=127, time=0),
    Message('note_on', channel=3, note=52, velocity=122, time=0),
    Message('note_on', channel=4, note=52, velocity=122, time=0),
    Message('note_on', channel=9, note=42, velocity=114, time=10),
    Message('note_on', channel=9, note=36, velocity=122, time=0),
    Message('note_on', channel=9, note=42, velocity=0, time=45),
    Message('note_on', channel=9, note=36, velocity=0, time=10),
    Message('note_on', channel=1, note=40, velocity=0, time=67),
    Message('note_on', channel=2, note=40, velocity=0, time=43),
    Message('note_on', channel=3, note=52, velocity=0, time=47),
    Message('note_on', channel=4, note=52, velocity=0, time=0),
    Message('note_on', channel=2, note=52, velocity=0, time=10),
    Message('note_on', channel=1, note=40, velocity=124, time=8),
    Message('note_on', channel=2, note=59, velocity=127, time=0),
    Message('note_on', channel=2, note=56, velocity=127, time=0),
    Message('note_on', channel=3, note=68, velocity=114, time=0),
    Message('note_on', channel=3, note=64, velocity=107, time=0),
    Message('note_on', channel=3, note=59, velocity=101, time=0),
    Message('note_on', channel=4, note=68, velocity=114, time=0),
    Message('note_on', channel=4, note=64, velocity=107, time=0),
    Message('note_on', channel=4, note=59, velocity=101, time=0),
    Message('note_on', channel=9, note=36, velocity=116, time=10),
    Message('note_on', channel=9, note=42, velocity=77, time=0),
    Message('note_on', channel=9, note=42, velocity=0, time=44),
    Message('note_on', channel=9, note=36, velocity=0, time=1),
    Message('note_on', channel=2, note=56, velocity=0, time=17),
    Message('note_on', channel=2, note=59, velocity=0, time=5),
    Message('note_on', channel=3, note=68, velocity=0, time=49),
    Message('note_on', channel=4, note=68, velocity=0, time=0),
    Message('note_on', channel=4, note=59, velocity=0, time=2),
    Message('note_on', channel=3, note=59, velocity=0, time=0),
    Message('note_on', channel=4, note=64, velocity=0, time=3),
    Message('note_on', channel=3, note=64, velocity=0, time=0),
    Message('note_on', channel=1, note=40, velocity=0, time=70),
    Message('note_on', channel=2, note=56, velocity=127, time=39),
    Message('note_on', channel=2, note=52, velocity=127, time=0),
    Message('note_on', channel=3, note=52, velocity=103, time=0),
    Message('note_on', channel=3, note=59, velocity=105, time=0),
    Message('note_on', channel=4, note=59, velocity=105, time=0),
    Message('note_on', channel=4, note=52, velocity=103, time=0),
    Message('note_on', channel=9, note=38, velocity=116, time=0),
    Message('note_on', channel=4, note=52, velocity=0, time=8),
    Message('note_on', channel=3, note=52, velocity=0, time=0),
    Message('note_on', channel=4, note=59, velocity=0, time=2),
    Message('note_on', channel=3, note=59, velocity=0, time=0),
    Message('note_on', channel=9, note=42, velocity=119, time=0),
    Message('note_on', channel=9, note=38, velocity=0, time=37),
    Message('note_on', channel=9, note=42, velocity=0, time=4),
    Message('note_on', channel=2, note=59, velocity=127, time=189),
    Message('note_on', channel=3, note=68, velocity=112, time=0),
    Message('note_on', channel=3, note=59, velocity=91, time=0),
    Message('note_on', channel=3, note=64, velocity=101, time=0),
    Message('note_on', channel=4, note=64, velocity=101, time=0),
    Message('note_on', channel=4, note=68, velocity=112, time=0),
    Message('note_on', channel=4, note=59, velocity=91, time=0),
    Message('note_on', channel=9, note=42, velocity=93, time=10),
    Message('note_on', channel=9, note=42, velocity=0, time=37),
    Message('note_on', channel=1, note=35, velocity=122, time=73),
    Message('note_on', channel=9, note=38, velocity=116, time=0),
    Message('note_on', channel=2, note=56, velocity=0, time=4),
    Message('note_on', channel=2, note=52, velocity=0, time=1),
    Message('note_on', channel=4, note=64, velocity=0, time=2),
    Message('note_on', channel=3, note=64, velocity=0, time=0),
    Message('note_on', channel=4, note=59, velocity=0, time=2),
    Message('note_on', channel=3, note=59, velocity=0, time=0),
    Message('note_on', channel=9, note=42, velocity=98, time=1),
    Message('note_on', channel=3, note=68, velocity=0, time=3),
    Message('note_on', channel=4, note=68, velocity=0, time=0),
    Message('note_on', channel=2, note=59, velocity=0, time=22),
    Message('note_on', channel=9, note=42, velocity=0, time=13),
    Message('note_on', channel=9, note=38, velocity=0, time=1),
    Message('note_on', channel=1, note=35, velocity=0, time=14),
    Message('note_on', channel=1, note=40, velocity=127, time=57),
    Message('note_on', channel=2, note=52, velocity=127, time=0),
    Message('note_on', channel=2, note=40, velocity=127, time=0),
    Message('note_on', channel=9, note=42, velocity=116, time=10),
    Message('note_on', channel=9, note=36, velocity=107, time=0),
    Message('note_on', channel=9, note=36, velocity=0, time=31),
    Message('note_on', channel=9, note=42, velocity=0, time=7),
    Message('note_on', channel=9, note=38, velocity=122, time=72),
    Message('note_on', channel=2, note=40, velocity=0, time=8),
    Message('note_on', channel=9, note=42, velocity=97, time=2),
    Message('note_on', channel=1, note=40, velocity=0, time=4),
    Message('note_on', channel=9, note=38, velocity=0, time=25),
    Message('note_on', channel=9, note=42, velocity=0, time=6),
    Message('note_on', channel=1, note=40, velocity=119, time=75),
    Message('note_on', channel=2, note=59, velocity=127, time=0),
    Message('note_on', channel=2, note=56, velocity=127, time=0),
    Message('note_on', channel=3, note=68, velocity=109, time=0),
    Message('note_on', channel=3, note=64, velocity=98, time=0),
    Message('note_on', channel=3, note=59, velocity=94, time=0),
    Message('note_on', channel=4, note=59, velocity=94, time=0),
    Message('note_on', channel=4, note=64, velocity=98, time=0),
    Message('note_on', channel=4, note=68, velocity=109, time=0),
    Message('note_on', channel=9, note=36, velocity=124, time=10),
    Message('note_on', channel=9, note=42, velocity=87, time=0),
    Message('note_on', channel=9, note=42, velocity=0, time=35),
    Message('note_on', channel=9, note=36, velocity=0, time=4),
    Message('note_on', channel=2, note=56, velocity=0, time=23),
    Message('note_on', channel=2, note=59, velocity=0, time=2),
    Message('note_on', channel=2, note=52, velocity=0, time=9),
    Message('note_on', channel=4, note=59, velocity=0, time=33),
    Message('note_on', channel=3, note=59, velocity=0, time=0),
    Message('note_on', channel=4, note=64, velocity=0, time=10),
    Message('note_on', channel=3, note=64, velocity=0, time=0),
    Message('note_on', channel=3, note=68, velocity=0, time=6),
    Message('note_on', channel=4, note=68, velocity=0, time=0),
    Message('note_on', channel=1, note=40, velocity=0, time=65),
    Message('note_on', channel=1, note=39, velocity=127, time=43),
    Message('note_on', channel=2, note=51, velocity=127, time=0),
    Message('note_on', channel=2, note=39, velocity=127, time=0),
    Message('note_on', channel=3, note=47, velocity=116, time=0),
    Message('note_on', channel=3, note=40, velocity=98, time=0),
    Message('note_on', channel=4, note=40, velocity=98, time=0),
    Message('note_on', channel=4, note=47, velocity=116, time=0),
    Message('note_on', channel=9, note=38, velocity=122, time=0),
    Message('note_on', channel=9, note=42, velocity=124, time=10),
    Message('note_on', channel=4, note=47, velocity=0, time=15),
    Message('note_on', channel=3, note=47, velocity=0, time=0),
    Message('note_on', channel=3, note=40, velocity=0, time=1),
    Message('note_on', channel=4, note=40, velocity=0, time=0),
    Message('note_on', channel=9, note=38, velocity=0, time=21),
    Message('note_on', channel=9, note=42, velocity=0, time=6),
    Message('note_on', channel=1, note=39, velocity=0, time=162),
    Message('note_on', channel=2, note=39, velocity=0, time=11),
    Message('note_on', channel=2, note=51, velocity=0, time=9),
    Message('note_on', channel=1, note=40, velocity=112, time=5),
    Message('note_on', channel=2, note=40, velocity=127, time=0),
    Message('note_on', channel=2, note=52, velocity=127, time=0),
    Message('note_on', channel=2, note=64, velocity=127, time=0),
    Message('note_on', channel=2, note=56, velocity=127, time=0),
    Message('note_on', channel=2, note=59, velocity=127, time=0),
    Message('note_on', channel=3, note=64, velocity=103, time=0),
    Message('note_on', channel=3, note=59, velocity=96, time=0),
    Message('note_on', channel=3, note=68, velocity=112, time=0),
    Message('note_on', channel=4, note=59, velocity=96, time=0),
    Message('note_on', channel=4, note=64, velocity=103, time=0),
    Message('note_on', channel=4, note=68, velocity=112, time=0),
    Message('note_on', channel=9, note=38, velocity=101, time=0),
    Message('note_on', channel=9, note=42, velocity=77, time=10),
    Message('note_on', channel=9, note=38, velocity=0, time=18),
    Message('note_on', channel=9, note=42, velocity=0, time=10),
    Message('note_on', channel=2, note=52, velocity=0, time=50),
    Message('note_on', channel=9, note=38, velocity=122, time=32),
    Message('note_on', channel=2, note=56, velocity=0, time=3),
    Message('note_on', channel=3, note=59, velocity=0, time=2),
    Message('note_on', channel=4, note=59, velocity=0, time=0),
    Message('note_on', channel=4, note=64, velocity=0, time=1),
    Message('note_on', channel=3, note=64, velocity=0, time=0),
    Message('note_on', channel=2, note=59, velocity=0, time=0),
    Message('note_on', channel=2, note=64, velocity=0, time=6),
    Message('note_on', channel=3, note=68, velocity=0, time=3),
    Message('note_on', channel=4, note=68, velocity=0, time=0),
    Message('note_on', channel=9, note=38, velocity=0, time=21),
    Message('note_on', channel=2, note=40, velocity=0, time=40),
    Message('note_on', channel=1, note=40, velocity=0, time=21),
    Message('note_on', channel=1, note=37, velocity=122, time=23),
    Message('note_on', channel=2, note=49, velocity=127, time=0),
    Message('note_on', channel=0, note=64, velocity=54, time=0),
    Message('note_on', channel=0, note=61, velocity=73, time=0),
    Message('note_on', channel=3, note=49, velocity=122, time=0),
    Message('note_on', channel=4, note=49, velocity=122, time=0),
    Message('note_on', channel=9, note=36, velocity=124, time=10),
    Message('note_on', channel=9, note=42, velocity=124, time=0),
    Message('note_on', channel=9, note=42, velocity=0, time=44),
    Message('note_on', channel=9, note=36, velocity=0, time=22),
    Message('note_on', channel=3, note=49, velocity=0, time=44),
    Message('note_on', channel=4, note=49, velocity=0, time=0),
    Message('note_on', channel=1, note=37, velocity=0, time=45),
    Message('note_on', channel=1, note=37, velocity=112, time=75),
    Message('note_on', channel=2, note=64, velocity=127, time=0),
    Message('note_on', channel=2, note=61, velocity=127, time=0),
    Message('note_on', channel=2, note=56, velocity=127, time=0),
    Message('note_on', channel=3, note=64, velocity=101, time=0),
    Message('note_on', channel=3, note=61, velocity=109, time=0),
    Message('note_on', channel=3, note=68, velocity=107, time=0),
    Message('note_on', channel=4, note=68, velocity=107, time=0),
    Message('note_on', channel=4, note=64, velocity=101, time=0),
    Message('note_on', channel=4, note=61, velocity=109, time=0),
    Message('note_on', channel=9, note=36, velocity=122, time=10),
    Message('note_on', channel=9, note=42, velocity=89, time=0),
    Message('note_on', channel=9, note=42, velocity=0, time=36),
    Message('note_on', channel=9, note=36, velocity=0, time=23),
    Message('note_on', channel=3, note=61, velocity=0, time=23),
    Message('note_on', channel=4, note=61, velocity=0, time=0),
    Message('note_on', channel=3, note=64, velocity=0, time=2),
    Message('note_on', channel=4, note=64, velocity=0, time=0),
    Message('note_on', channel=4, note=68, velocity=0, time=10),
    Message('note_on', channel=3, note=68, velocity=0, time=0),
    Message('note_on', channel=1, note=37, velocity=0, time=36),
    Message('note_on', channel=1, note=32, velocity=127, time=100),
    Message('note_on', channel=9, note=38, velocity=124, time=0),
    Message('note_on', channel=9, note=42, velocity=119, time=10),
    Message('note_on', channel=9, note=38, velocity=0, time=40),
    Message('note_on', channel=9, note=42, velocity=0, time=11),
    Message('note_on', channel=1, note=32, velocity=0, time=7),
    Message('note_on', channel=1, note=32, velocity=127, time=52),
    Message('note_on', channel=1, note=32, velocity=0, time=84),
    Message('note_on', channel=1, note=37, velocity=122, time=36),
    Message('note_on', channel=3, note=61, velocity=105, time=0),
    Message('note_on', channel=3, note=68, velocity=109, time=0),
    Message('note_on', channel=3, note=64, velocity=103, time=0),
    Message('note_on', channel=4, note=68, velocity=109, time=0),
    Message('note_on', channel=4, note=64, velocity=103, time=0),
    Message('note_on', channel=4, note=61, velocity=105, time=0),
    Message('note_on', channel=9, note=42, velocity=89, time=10),
    Message('note_on', channel=9, note=42, velocity=0, time=38),
    Message('note_on', channel=4, note=64, velocity=0, time=37),
    Message('note_on', channel=3, note=64, velocity=0, time=0),
    Message('note_on', channel=4, note=68, velocity=0, time=3),
    Message('note_on', channel=3, note=68, velocity=0, time=0),
    Message('note_on', channel=3, note=61, velocity=0, time=15),
    Message('note_on', channel=4, note=61, velocity=0, time=0),
    Message('note_on', channel=9, note=38, velocity=122, time=17),
    Message('note_on', channel=9, note=42, velocity=96, time=10),
    Message('note_on', channel=9, note=38, velocity=0, time=27),
    Message('note_on', channel=9, note=42, velocity=0, time=7),
    Message('note_on', channel=1, note=37, velocity=0, time=61),
    Message('note_on', channel=0, note=64, velocity=0, time=12),
    Message('note_on', channel=1, note=39, velocity=124, time=3),
    Message('note_on', channel=2, note=51, velocity=127, time=0),
    Message('note_on', channel=0, note=66, velocity=65, time=0),
    Message('note_on', channel=0, note=63, velocity=87, time=0),
    Message('note_on', channel=3, note=51, velocity=114, time=0),
    Message('note_on', channel=4, note=51, velocity=114, time=0),
    Message('note_on', channel=2, note=49, velocity=0, time=3),
    Message('note_on', channel=9, note=36, velocity=114, time=7),
    Message('note_on', channel=9, note=42, velocity=103, time=0),
    Message('note_on', channel=2, note=64, velocity=0, time=3),
    Message('note_on', channel=2, note=56, velocity=0, time=5),
    Message('note_on', channel=2, note=61, velocity=0, time=2),
    Message('note_on', channel=0, note=61, velocity=0, time=3),
    Message('note_on', channel=9, note=42, velocity=0, time=22),
    Message('note_on', channel=9, note=36, velocity=0, time=20),
    Message('note_on', channel=9, note=38, velocity=109, time=55),
    Message('note_on', channel=9, note=42, velocity=89, time=10),
    Message('note_on', channel=1, note=39, velocity=0, time=29),
    Message('note_on', channel=9, note=42, velocity=0, time=6),
    Message('note_on', channel=9, note=38, velocity=0, time=3),
    Message('note_on', channel=4, note=51, velocity=0, time=7),
    Message('note_on', channel=3, note=51, velocity=0, time=0),
    Message('note_on', channel=1, note=39, velocity=114, time=65),
    Message('note_on', channel=2, note=54, velocity=127, time=0),
    Message('note_on', channel=2, note=58, velocity=127, time=0),
    Message('note_on', channel=2, note=63, velocity=127, time=0),
    Message('note_on', channel=3, note=70, velocity=107, time=0),
    Message('note_on', channel=3, note=63, velocity=112, time=0),
    Message('note_on', channel=3, note=66, velocity=112, time=0),
    Message('note_on', channel=4, note=70, velocity=107, time=0),
    Message('note_on', channel=4, note=66, velocity=112, time=0),
    Message('note_on', channel=4, note=63, velocity=112, time=0),
    Message('note_on', channel=9, note=36, velocity=116, time=10),
    Message('note_on', channel=9, note=42, velocity=82, time=0),
    Message('note_on', channel=9, note=42, velocity=0, time=33),
    Message('note_on', channel=9, note=36, velocity=0, time=11),
    Message('note_on', channel=3, note=70, velocity=0, time=46),
    Message('note_on', channel=4, note=70, velocity=0, time=0),
    Message('note_on', channel=3, note=63, velocity=0, time=4),
    Message('note_on', channel=4, note=63, velocity=0, time=0),
    Message('note_on', channel=3, note=66, velocity=0, time=4),
    Message('note_on', channel=4, note=66, velocity=0, time=0),
    Message('note_on', channel=1, note=39, velocity=0, time=54),
    Message('note_on', channel=1, note=34, velocity=119, time=78),
    Message('note_on', channel=9, note=38, velocity=122, time=0),
    Message('note_on', channel=9, note=42, velocity=119, time=10),
    Message('note_on', channel=9, note=38, velocity=0, time=37),
    Message('note_on', channel=9, note=42, velocity=0, time=3),
    Message('note_on', channel=1, note=34, velocity=0, time=3),
    Message('note_on', channel=1, note=34, velocity=116, time=67),
    Message('note_on', channel=1, note=34, velocity=0, time=70),
    Message('note_on', channel=1, note=39, velocity=124, time=50),
    Message('note_on', channel=3, note=66, velocity=119, time=0),
    Message('note_on', channel=3, note=63, velocity=114, time=0),
    Message('note_on', channel=3, note=70, velocity=116, time=0),
    Message('note_on', channel=4, note=66, velocity=119, time=0),
    Message('note_on', channel=4, note=63, velocity=114, time=0),
    Message('note_on', channel=4, note=70, velocity=116, time=0),
    Message('note_on', channel=9, note=42, velocity=91, time=10),
    Message('note_on', channel=9, note=42, velocity=0, time=36),
    Message('note_on', channel=9, note=38, velocity=122, time=74),
    Message('note_on', channel=3, note=66, velocity=0, time=9),
    Message('note_on', channel=4, note=66, velocity=0, time=0),
    Message('note_on', channel=9, note=42, velocity=107, time=1),
    Message('note_on', channel=3, note=63, velocity=0, time=4),
    Message('note_on', channel=4, note=63, velocity=0, time=0),
    Message('note_on', channel=3, note=70, velocity=0, time=1),
    Message('note_on', channel=4, note=70, velocity=0, time=0),
    Message('note_on', channel=9, note=38, velocity=0, time=17),
    Message('note_on', channel=9, note=42, velocity=0, time=17),
    Message('note_on', channel=0, note=63, velocity=0, time=31),
    Message('note_on', channel=2, note=63, velocity=0, time=0),
    Message('note_on', channel=2, note=54, velocity=0, time=6),
    Message('note_on', channel=1, note=39, velocity=0, time=1),
    Message('note_on', channel=2, note=58, velocity=0, time=10),
    Message('note_on', channel=2, note=51, velocity=0, time=4),
    Message('note_on', channel=1, note=40, velocity=122, time=19),
    Message('note_on', channel=2, note=52, velocity=127, time=0),
    Message('note_on', channel=0, note=64, velocity=57, time=0),
    Message('note_on', channel=0, note=68, velocity=65, time=0),
    Message('note_on', channel=3, note=52, velocity=96, time=0),
    Message('note_on', channel=4, note=52, velocity=96, time=0),
    Message('note_on', channel=9, note=42, velocity=114, time=10),
    Message('note_on', channel=9, note=36, velocity=122, time=0),
    Message('note_on', channel=0, note=66, velocity=0, time=1),
    Message('note_on', channel=9, note=42, velocity=0, time=44),
    Message('note_on', channel=9, note=36, velocity=0, time=10),
    Message('note_on', channel=3, note=52, velocity=0, time=24),
    Message('note_on', channel=4, note=52, velocity=0, time=0),
    Message('note_on', channel=1, note=40, velocity=0, time=65),
    Message('note_on', channel=1, note=40, velocity=109, time=86),
    Message('note_on', channel=2, note=64, velocity=127, time=0),
    Message('note_on', channel=2, note=56, velocity=127, time=0),
    Message('note_on', channel=2, note=59, velocity=127, time=0),
    Message('note_on', channel=3, note=59, velocity=75, time=0),
    Message('note_on', channel=3, note=68, velocity=105, time=0),
    Message('note_on', channel=3, note=64, velocity=91, time=0),
    Message('note_on', channel=4, note=59, velocity=75, time=0),
    Message('note_on', channel=4, note=68, velocity=105, time=0),
    Message('note_on', channel=4, note=64, velocity=91, time=0),
    Message('note_on', channel=9, note=42, velocity=77, time=10),
    Message('note_on', channel=9, note=36, velocity=116, time=0),
    Message('note_on', channel=9, note=42, velocity=0, time=44),
    Message('note_on', channel=9, note=36, velocity=0, time=1),
    Message('note_on', channel=3, note=59, velocity=0, time=11),
    Message('note_on', channel=4, note=59, velocity=0, time=0),
    Message('note_on', channel=3, note=68, velocity=0, time=12),
    Message('note_on', channel=4, note=68, velocity=0, time=0),
    Message('note_on', channel=3, note=64, velocity=0, time=6),
    Message('note_on', channel=4, note=64, velocity=0, time=0),
    Message('note_on', channel=1, note=40, velocity=0, time=63),
    Message('note_on', channel=1, note=35, velocity=114, time=93),
    Message('note_on', channel=9, note=38, velocity=116, time=0),
    Message('note_on', channel=9, note=42, velocity=119, time=0),
    Message('note_on', channel=9, note=42, velocity=0, time=41),
    Message('note_on', channel=9, note=38, velocity=0, time=6),
    Message('note_on', channel=1, note=35, velocity=0, time=27),
    Message('note_on', channel=1, note=35, velocity=107, time=46),
    Message('note_on', channel=1, note=35, velocity=0, time=61),
    Message('note_on', channel=1, note=40, velocity=122, time=59),
    Message('note_on', channel=3, note=59, velocity=89, time=0),
    Message('note_on', channel=3, note=64, velocity=96, time=0),
    Message('note_on', channel=3, note=68, velocity=109, time=0),
    Message('note_on', channel=4, note=64, velocity=96, time=0),
    Message('note_on', channel=4, note=59, velocity=89, time=0),
    Message('note_on', channel=4, note=68, velocity=109, time=0),
    Message('note_on', channel=9, note=42, velocity=93, time=0),
    Message('note_on', channel=9, note=42, velocity=0, time=38),
    Message('note_on', channel=4, note=59, velocity=0, time=30),
    Message('note_on', channel=3, note=59, velocity=0, time=0),
    Message('note_on', channel=4, note=64, velocity=0, time=11),
    Message('note_on', channel=3, note=64, velocity=0, time=0),
    Message('note_on', channel=3, note=68, velocity=0, time=3),
    Message('note_on', channel=4, note=68, velocity=0, time=0),
    Message('note_on', channel=9, note=38, velocity=116, time=38),
    Message('note_on', channel=9, note=42, velocity=98, time=0),
    Message('note_on', channel=1, note=40, velocity=0, time=30),
    Message('note_on', channel=9, note=42, velocity=0, time=9),
    Message('note_on', channel=9, note=38, velocity=0, time=10),
    Message('note_on', channel=0, note=64, velocity=0, time=65),
    Message('note_on', channel=2, note=56, velocity=0, time=4),
    Message('note_on', channel=1, note=42, velocity=124, time=2),
    Message('note_on', channel=2, note=61, velocity=127, time=0),
    Message('note_on', channel=2, note=66, velocity=127, time=0),
    Message('note_on', channel=2, note=54, velocity=127, time=0),
    Message('note_on', channel=2, note=58, velocity=127, time=0),
    Message('note_on', channel=0, note=66, velocity=79, time=0),
    Message('note_on', channel=0, note=70, velocity=42, time=0),
    Message('note_on', channel=3, note=66, velocity=107, time=0),
    Message('note_on', channel=3, note=61, velocity=94, time=0),
    Message('note_on', channel=3, note=54, velocity=89, time=0),
    Message('note_on', channel=3, note=70, velocity=101, time=0),
    Message('note_on', channel=4, note=66, velocity=107, time=0),
    Message('note_on', channel=4, note=70, velocity=101, time=0),
    Message('note_on', channel=4, note=54, velocity=89, time=0),
    Message('note_on', channel=4, note=61, velocity=94, time=0),
    Message('note_on', channel=9, note=42, velocity=116, time=0),
    Message('note_on', channel=9, note=36, velocity=107, time=0),
    Message('note_on', channel=2, note=64, velocity=0, time=10),
    Message('note_on', channel=2, note=59, velocity=0, time=2),
    Message('note_on', channel=2, note=52, velocity=0, time=2),
    Message('note_on', channel=9, note=36, velocity=0, time=18),
    Message('note_on', channel=9, note=42, velocity=0, time=6),
    Message('note_on', channel=0, note=68, velocity=0, time=11),
    Message('note_on', channel=1, note=42, velocity=0, time=431),
    Message('note_on', channel=1, note=42, velocity=124, time=0),
    Message('note_on', channel=9, note=45, velocity=116, time=0),
    Message('note_on', channel=9, note=45, velocity=0, time=44),
    Message('note_on', channel=1, note=42, velocity=0, time=17),
    Message('note_on', channel=1, note=40, velocity=119, time=59),
    Message('note_on', channel=9, note=45, velocity=105, time=0),
    Message('note_on', channel=9, note=45, velocity=0, time=43),
    Message('note_on', channel=0, note=70, velocity=0, time=18),
    Message('note_on', channel=0, note=66, velocity=0, time=6),
    Message('note_on', channel=1, note=40, velocity=0, time=49),
    Message('note_on', channel=1, note=37, velocity=127, time=4),
    Message('note_on', channel=9, note=43, velocity=105, time=0),
    Message('note_on', channel=9, note=43, velocity=0, time=39),
    Message('note_on', channel=2, note=66, velocity=0, time=76),
    Message('note_on', channel=0, note=54, velocity=124, time=5),
    Message('note_on', channel=9, note=41, velocity=112, time=0),
    Message('note_on', channel=2, note=58, velocity=0, time=5),
    Message('note_on', channel=2, note=61, velocity=0, time=0),
    Message('note_on', channel=2, note=54, velocity=0, time=14),
    Message('note_on', channel=4, note=61, velocity=0, time=3),
    Message('note_on', channel=3, note=61, velocity=0, time=0),
    Message('note_on', channel=3, note=70, velocity=0, time=4),
    Message('note_on', channel=4, note=70, velocity=0, time=0),
    Message('note_on', channel=4, note=66, velocity=0, time=4),
    Message('note_on', channel=3, note=66, velocity=0, time=0),
    Message('note_on', channel=9, note=41, velocity=0, time=2),
    Message('note_on', channel=4, note=54, velocity=0, time=12),
    Message('note_on', channel=3, note=54, velocity=0, time=0),
    Message('note_on', channel=0, note=54, velocity=0, time=39),
    Message('note_on', channel=1, note=37, velocity=0, time=33),
    Message('note_on', channel=1, note=35, velocity=127, time=4),
    Message('note_on', channel=2, note=47, velocity=127, time=0),
    Message('note_on', channel=0, note=59, velocity=122, time=0),
    Message('note_on', channel=3, note=47, velocity=98, time=0),
    Message('note_on', channel=4, note=47, velocity=98, time=0),
    Message('note_on', channel=9, note=57, velocity=127, time=0),
    Message('note_on', channel=9, note=64, velocity=94, time=0),
    Message('note_on', channel=9, note=42, velocity=124, time=10),
    Message('note_on', channel=9, note=36, velocity=124, time=0),
    Message('note_on', channel=9, note=57, velocity=0, time=36),
    Message('note_on', channel=9, note=42, velocity=0, time=8),
    Message('note_on', channel=9, note=64, velocity=0, time=6),
    Message('note_on', channel=9, note=36, velocity=0, time=16),
    Message('note_on', channel=0, note=59, velocity=0, time=43),
    Message('note_on', channel=1, note=35, velocity=0, time=39),
    Message('note_on', channel=4, note=47, velocity=0, time=10),
    Message('note_on', channel=3, note=47, velocity=0, time=0),
    Message('note_on', channel=1, note=35, velocity=127, time=72),
    Message('note_on', channel=2, note=54, velocity=127, time=0),
    Message('note_on', channel=0, note=59, velocity=119, time=0),
    Message('note_on', channel=3, note=59, velocity=101, time=0),
    Message('note_on', channel=3, note=71, velocity=89, time=0),
    Message('note_on', channel=3, note=63, velocity=101, time=0),
    Message('note_on', channel=3, note=66, velocity=105, time=0),
    Message('note_on', channel=4, note=63, velocity=101, time=0),
    Message('note_on', channel=4, note=59, velocity=101, time=0),
    Message('note_on', channel=4, note=66, velocity=105, time=0),
    Message('note_on', channel=4, note=71, velocity=89, time=0),
    Message('note_on', channel=9, note=63, velocity=119, time=0),
    Message('note_on', channel=9, note=36, velocity=122, time=10),
    Message('note_on', channel=9, note=42, velocity=89, time=0),
    Message('note_on', channel=9, note=63, velocity=0, time=27),
    Message('note_on', channel=9, note=42, velocity=0, time=9),
    Message('note_on', channel=9, note=36, velocity=0, time=23),
    Message('note_on', channel=3, note=59, velocity=0, time=26),
    Message('note_on', channel=4, note=59, velocity=0, time=0),
    Message('note_on', channel=4, note=66, velocity=0, time=5),
    Message('note_on', channel=3, note=66, velocity=0, time=0),
    Message('note_on', channel=4, note=63, velocity=0, time=6),
    Message('note_on', channel=3, note=63, velocity=0, time=0),
    Message('note_on', channel=4, note=71, velocity=0, time=10),
    Message('note_on', channel=3, note=71, velocity=0, time=0),
    Message('note_on', channel=0, note=59, velocity=0, time=39),
    Message('note_on', channel=1, note=35, velocity=0, time=48),
    Message('note_on', channel=2, note=59, velocity=127, time=37),
    Message('note_on', channel=2, note=63, velocity=127, time=0),
    Message('note_on', channel=0, note=59, velocity=107, time=0),
    Message('note_on', channel=3, note=47, velocity=82, time=0),
    Message('note_on', channel=3, note=54, velocity=112, time=0),
    Message('note_on', channel=4, note=54, velocity=112, time=0),
    Message('note_on', channel=4, note=47, velocity=82, time=0),
    Message('note_on', channel=9, note=38, velocity=124, time=0),
    Message('note_on', channel=9, note=54, velocity=127, time=0),
    Message('note_on', channel=4, note=54, velocity=0, time=7),
    Message('note_on', channel=3, note=54, velocity=0, time=0),
    Message('note_on', channel=4, note=47, velocity=0, time=1),
    Message('note_on', channel=3, note=47, velocity=0, time=0),
    Message('note_on', channel=9, note=42, velocity=119, time=2),
    Message('note_on', channel=9, note=54, velocity=0, time=25),
    Message('note_on', channel=9, note=38, velocity=0, time=15),
    Message('note_on', channel=9, note=42, velocity=0, time=11),
    Message('note_on', channel=9, note=64, velocity=101, time=59),
    Message('note_on', channel=0, note=59, velocity=0, time=16),
    Message('note_on', channel=9, note=64, velocity=0, time=33),
    Message('note_on', channel=1, note=35, velocity=122, time=71),
    Message('note_on', channel=0, note=59, velocity=103, time=0),
    Message('note_on', channel=3, note=66, velocity=112, time=0),
    Message('note_on', channel=3, note=63, velocity=109, time=0),
    Message('note_on', channel=3, note=71, velocity=93, time=0),
    Message('note_on', channel=3, note=59, velocity=103, time=0),
    Message('note_on', channel=4, note=66, velocity=112, time=0),
    Message('note_on', channel=4, note=63, velocity=109, time=0),
    Message('note_on', channel=4, note=59, velocity=103, time=0),
    Message('note_on', channel=4, note=71, velocity=93, time=0),
    Message('note_on', channel=9, note=63, velocity=122, time=0),
    Message('note_on', channel=9, note=42, velocity=89, time=10),
    Message('note_on', channel=1, note=35, velocity=0, time=30),
    Message('note_on', channel=9, note=63, velocity=0, time=2),
    Message('note_on', channel=9, note=42, velocity=0, time=6),
    Message('note_on', channel=0, note=59, velocity=0, time=65),
    Message('note_on', channel=1, note=35, velocity=116, time=7),
    Message('note_on', channel=9, note=63, velocity=114, time=0),
    Message('note_on', channel=9, note=38, velocity=122, time=0),
    Message('note_on', channel=4, note=66, velocity=0, time=10),
    Message('note_on', channel=3, note=66, velocity=0, time=0),
    Message('note_on', channel=9, note=42, velocity=96, time=0),
    Message('note_on', channel=3, note=59, velocity=0, time=6),
    Message('note_on', channel=4, note=59, velocity=0, time=0),
    Message('note_on', channel=4, note=63, velocity=0, time=2),
    Message('note_on', channel=3, note=63, velocity=0, time=0),
    Message('note_on', channel=3, note=71, velocity=0, time=13),
    Message('note_on', channel=4, note=71, velocity=0, time=0),
    Message('note_on', channel=9, note=63, velocity=0, time=5),
    Message('note_on', channel=9, note=38, velocity=0, time=1),
    Message('note_on', channel=9, note=42, velocity=0, time=7),
    Message('note_on', channel=2, note=63, velocity=0, time=24),
    Message('note_on', channel=1, note=35, velocity=0, time=1),
    Message('note_on', channel=2, note=59, velocity=0, time=9),
    Message('note_on', channel=2, note=54, velocity=0, time=14),
    Message('note_on', channel=2, note=47, velocity=0, time=11),
    Message('note_on', channel=1, note=30, velocity=127, time=17),
    Message('note_on', channel=2, note=54, velocity=127, time=0),
    Message('note_on', channel=0, note=58, velocity=119, time=0),
    Message('note_on', channel=3, note=54, velocity=112, time=0),
    Message('note_on', channel=4, note=54, velocity=112, time=0),
    Message('note_on', channel=9, note=64, velocity=93, time=0),
    Message('note_on', channel=9, note=36, velocity=114, time=10),
    Message('note_on', channel=9, note=42, velocity=103, time=0),
    Message('note_on', channel=9, note=64, velocity=0, time=30),
    Message('note_on', channel=9, note=42, velocity=0, time=5),
    Message('note_on', channel=9, note=36, velocity=0, time=20),
    Message('note_on', channel=9, note=38, velocity=109, time=55),
    Message('note_on', channel=0, note=58, velocity=0, time=10),
    Message('note_on', channel=9, note=42, velocity=89, time=0),
    Message('note_on', channel=1, note=30, velocity=0, time=21),
    Message('note_on', channel=9, note=42, velocity=0, time=14),
    Message('note_on', channel=9, note=38, velocity=0, time=3),
    Message('note_on', channel=4, note=54, velocity=0, time=40),
    Message('note_on', channel=3, note=54, velocity=0, time=0),
    Message('note_on', channel=1, note=30, velocity=127, time=32),
    Message('note_on', channel=2, note=58, velocity=127, time=0),
    Message('note_on', channel=0, note=56, velocity=116, time=0),
    Message('note_on', channel=3, note=61, velocity=94, time=0),
    Message('note_on', channel=3, note=70, velocity=109, time=0),
    Message('note_on', channel=3, note=66, velocity=105, time=0),
    Message('note_on', channel=4, note=66, velocity=105, time=0),
    Message('note_on', channel=4, note=61, velocity=94, time=0),
    Message('note_on', channel=4, note=70, velocity=109, time=0),
    Message('note_on', channel=9, note=63, velocity=122, time=0),
    Message('note_on', channel=9, note=42, velocity=82, time=10),
    Message('note_on', channel=9, note=36, velocity=116, time=0),
    Message('note_on', channel=9, note=63, velocity=0, time=22),
    Message('note_on', channel=9, note=42, velocity=0, time=11),
    Message('note_on', channel=9, note=36, velocity=0, time=11),
    Message('note_on', channel=4, note=70, velocity=0, time=28),
    Message('note_on', channel=3, note=70, velocity=0, time=0),
    Message('note_on', channel=4, note=61, velocity=0, time=2),
    Message('note_on', channel=3, note=61, velocity=0, time=0),
    Message('note_on', channel=4, note=66, velocity=0, time=14),
    Message('note_on', channel=3, note=66, velocity=0, time=0),
    Message('note_on', channel=0, note=56, velocity=0, time=15),
    Message('note_on', channel=1, note=30, velocity=0, time=80),
    Message('note_on', channel=2, note=61, velocity=127, time=47),
    Message('note_on', channel=2, note=66, velocity=127, time=0),
    Message('note_on', channel=0, note=58, velocity=119, time=0),
    Message('note_on', channel=3, note=42, velocity=105, time=0),
    Message('note_on', channel=3, note=49, velocity=114, time=0),
    Message('note_on', channel=4, note=49, velocity=114, time=0),
    Message('note_on', channel=4, note=42, velocity=105, time=0),
    Message('note_on', channel=9, note=38, velocity=122, time=0),
    Message('note_on', channel=9, note=54, velocity=127, time=0),
    Message('note_on', channel=4, note=42, velocity=0, time=7),
    Message('note_on', channel=3, note=42, velocity=0, time=0),
    Message('note_on', channel=4, note=49, velocity=0, time=1),
    Message('note_on', channel=3, note=49, velocity=0, time=0),
    Message('note_on', channel=9, note=42, velocity=119, time=2),
    Message('note_on', channel=9, note=54, velocity=0, time=26),
    Message('note_on', channel=9, note=38, velocity=0, time=11),
    Message('note_on', channel=9, note=42, velocity=0, time=3),
    Message('note_on', channel=9, note=64, velocity=101, time=70),
    Message('note_on', channel=0, note=58, velocity=0, time=11),
    Message('note_on', channel=9, note=64, velocity=0, time=28),
    Message('note_on', channel=1, note=42, velocity=119, time=81),
    Message('note_on', channel=0, note=59, velocity=109, time=0),
    Message('note_on', channel=3, note=66, velocity=93, time=0),
    Message('note_on', channel=3, note=61, velocity=98, time=0),
    Message('note_on', channel=3, note=70, velocity=105, time=0),
    Message('note_on', channel=4, note=66, velocity=93, time=0),
    Message('note_on', channel=4, note=70, velocity=105, time=0),
    Message('note_on', channel=4, note=61, velocity=98, time=0),
    Message('note_on', channel=9, note=63, velocity=122, time=0),
    Message('note_on', channel=9, note=42, velocity=91, time=10),
    Message('note_on', channel=9, note=63, velocity=0, time=28),
    Message('note_on', channel=9, note=42, velocity=0, time=8),
    Message('note_on', channel=1, note=42, velocity=0, time=11),
    Message('note_on', channel=4, note=70, velocity=0, time=45),
    Message('note_on', channel=3, note=70, velocity=0, time=0),
    Message('note_on', channel=3, note=61, velocity=0, time=6),
    Message('note_on', channel=4, note=61, velocity=0, time=0),
    Message('note_on', channel=4, note=66, velocity=0, time=8),
    Message('note_on', channel=3, note=66, velocity=0, time=0),
    Message('note_on', channel=1, note=42, velocity=127, time=4),
    Message('note_on', channel=9, note=63, velocity=122, time=0),
    Message('note_on', channel=9, note=38, velocity=122, time=0),
    Message('note_on', channel=9, note=42, velocity=107, time=10),
    Message('note_on', channel=9, note=38, velocity=0, time=22),
    Message('note_on', channel=9, note=63, velocity=0, time=7),
    Message('note_on', channel=9, note=42, velocity=0, time=10),
    Message('note_on', channel=2, note=58, velocity=0, time=21),
    Message('note_on', channel=2, note=66, velocity=0, time=11),
    Message('note_on', channel=2, note=61, velocity=0, time=4),
    Message('note_on', channel=2, note=54, velocity=0, time=8),
    Message('note_on', channel=1, note=42, velocity=0, time=8),
    Message('note_on', channel=1, note=40, velocity=119, time=19),
    Message('note_on', channel=2, note=52, velocity=127, time=0),
    Message('note_on', channel=3, note=52, velocity=122, time=0),
    Message('note_on', channel=4, note=52, velocity=122, time=0),
    Message('note_on', channel=9, note=64, velocity=94, time=0),
    Message('note_on', channel=9, note=42, velocity=114, time=10),
    Message('note_on', channel=9, note=36, velocity=122, time=0),
    Message('note_on', channel=9, note=42, velocity=0, time=45),
    Message('note_on', channel=9, note=64, velocity=0, time=5),
    Message('note_on', channel=9, note=36, velocity=0, time=5),
    Message('note_on', channel=0, note=59, velocity=0, time=17),
    Message('note_on', channel=0, note=56, velocity=116, time=38),
    Message('note_on', channel=1, note=40, velocity=0, time=54),
    Message('note_on', channel=0, note=56, velocity=0, time=13),
    Message('note_on', channel=3, note=52, velocity=0, time=35),
    Message('note_on', channel=4, note=52, velocity=0, time=0),
    Message('note_on', channel=1, note=28, velocity=122, time=18),
    Message('note_on', channel=2, note=56, velocity=127, time=0),
    Message('note_on', channel=0, note=52, velocity=109, time=0),
    Message('note_on', channel=3, note=64, velocity=107, time=0),
    Message('note_on', channel=3, note=68, velocity=114, time=0),
    Message('note_on', channel=3, note=59, velocity=101, time=0),
    Message('note_on', channel=4, note=64, velocity=107, time=0),
    Message('note_on', channel=4, note=68, velocity=114, time=0),
    Message('note_on', channel=4, note=59, velocity=101, time=0),
    Message('note_on', channel=9, note=63, velocity=119, time=0),
    Message('note_on', channel=9, note=42, velocity=77, time=10),
    Message('note_on', channel=9, note=36, velocity=116, time=0),
    Message('note_on', channel=9, note=63, velocity=0, time=27),
    Message('note_on', channel=9, note=42, velocity=0, time=17),
    Message('note_on', channel=9, note=36, velocity=0, time=1),
    Message('note_on', channel=4, note=68, velocity=0, time=71),
    Message('note_on', channel=3, note=68, velocity=0, time=0),
    Message('note_on', channel=4, note=59, velocity=0, time=2),
    Message('note_on', channel=3, note=59, velocity=0, time=0),
    Message('note_on', channel=4, note=64, velocity=0, time=3),
    Message('note_on', channel=3, note=64, velocity=0, time=0),
    Message('note_on', channel=1, note=28, velocity=0, time=107),
    Message('note_on', channel=2, note=64, velocity=127, time=2),
    Message('note_on', channel=2, note=59, velocity=127, time=0),
    Message('note_on', channel=3, note=52, velocity=103, time=0),
    Message('note_on', channel=3, note=59, velocity=105, time=0),
    Message('note_on', channel=4, note=52, velocity=103, time=0),
    Message('note_on', channel=4, note=59, velocity=105, time=0),
    Message('note_on', channel=9, note=38, velocity=116, time=0),
    Message('note_on', channel=9, note=54, velocity=127, time=0),
    Message('note_on', channel=4, note=52, velocity=0, time=8),
    Message('note_on', channel=3, note=52, velocity=0, time=0),
    Message('note_on', channel=4, note=59, velocity=0, time=2),
    Message('note_on', channel=3, note=59, velocity=0, time=0),
    Message('note_on', channel=9, note=42, velocity=119, time=0),
    Message('note_on', channel=9, note=54, velocity=0, time=25),
    Message('note_on', channel=9, note=38, velocity=0, time=12),
    Message('note_on', channel=9, note=42, velocity=0, time=4),
    Message('note_on', channel=9, note=64, velocity=101, time=69),
    Message('note_on', channel=9, note=64, velocity=0, time=49),
    Message('note_on', channel=3, note=59, velocity=91, time=71),
    Message('note_on', channel=3, note=64, velocity=101, time=0),
    Message('note_on', channel=3, note=68, velocity=112, time=0),
    Message('note_on', channel=4, note=68, velocity=112, time=0),
    Message('note_on', channel=4, note=64, velocity=101, time=0),
    Message('note_on', channel=4, note=59, velocity=91, time=0),
    Message('note_on', channel=9, note=63, velocity=122, time=0),
    Message('note_on', channel=9, note=42, velocity=93, time=10),
    Message('note_on', channel=0, note=52, velocity=0, time=14),
    Message('note_on', channel=9, note=63, velocity=0, time=18),
    Message('note_on', channel=9, note=42, velocity=0, time=5),
    Message('note_on', channel=1, note=35, velocity=124, time=73),
    Message('note_on', channel=9, note=63, velocity=114, time=0),
    Message('note_on', channel=9, note=38, velocity=116, time=0),
    Message('note_on', channel=4, note=64, velocity=0, time=7),
    Message('note_on', channel=3, note=64, velocity=0, time=0),
    Message('note_on', channel=4, note=59, velocity=0, time=2),
    Message('note_on', channel=3, note=59, velocity=0, time=0),
    Message('note_on', channel=9, note=42, velocity=98, time=1),
    Message('note_on', channel=3, note=68, velocity=0, time=3),
    Message('note_on', channel=4, note=68, velocity=0, time=0),
    Message('note_on', channel=2, note=56, velocity=0, time=17),
    Message('note_on', channel=9, note=63, velocity=0, time=6),
    Message('note_on', channel=9, note=42, velocity=0, time=12),
    Message('note_on', channel=9, note=38, velocity=0, time=1),
    Message('note_on', channel=1, note=35, velocity=0, time=27),
    Message('note_on', channel=2, note=52, velocity=0, time=39),
    Message('note_on', channel=1, note=40, velocity=122, time=5),
    Message('note_on', channel=2, note=52, velocity=127, time=0),
    Message('note_on', channel=6, note=83, velocity=114, time=0),
    Message('note_on', channel=9, note=64, velocity=93, time=0),
    Message('note_on', channel=9, note=42, velocity=116, time=10),
    Message('note_on', channel=9, note=36, velocity=107, time=0),
    Message('note_on', channel=9, note=64, velocity=0, time=30),
    Message('note_on', channel=9, note=36, velocity=0, time=1),
    Message('note_on', channel=9, note=42, velocity=0, time=7),
    Message('note_on', channel=2, note=64, velocity=0, time=32),
    Message('note_on', channel=6, note=83, velocity=0, time=1),
    Message('note_on', channel=2, note=59, velocity=0, time=14),
    Message('note_on', channel=6, note=85, velocity=114, time=25),
    Message('note_on', channel=9, note=38, velocity=122, time=0),
    Message('note_on', channel=9, note=42, velocity=97, time=10),
    Message('note_on', channel=1, note=40, velocity=0, time=13),
    Message('note_on', channel=9, note=38, velocity=0, time=16),
    Message('note_on', channel=9, note=42, velocity=0, time=6),
    Message('note_on', channel=6, note=85, velocity=0, time=14),
    Message('note_on', channel=1, note=40, velocity=124, time=61),
    Message('note_on', channel=2, note=56, velocity=127, time=0),
    Message('note_on', channel=3, note=59, velocity=94, time=0),
    Message('note_on', channel=3, note=64, velocity=98, time=0),
    Message('note_on', channel=3, note=68, velocity=109, time=0),
    Message('note_on', channel=4, note=64, velocity=98, time=0),
    Message('note_on', channel=4, note=59, velocity=94, time=0),
    Message('note_on', channel=4, note=68, velocity=109, time=0),
    Message('note_on', channel=6, note=87, velocity=122, time=0),
    Message('note_on', channel=9, note=46, velocity=87, time=0),
    Message('note_on', channel=9, note=63, velocity=122, time=0),
    Message('note_on', channel=9, note=36, velocity=124, time=10),
    Message('note_on', channel=9, note=63, velocity=0, time=22),
    Message('note_on', channel=9, note=46, velocity=0, time=4),
    Message('note_on', channel=9, note=36, velocity=0, time=13),
    Message('note_on', channel=6, note=87, velocity=0, time=37),
    Message('note_on', channel=3, note=59, velocity=0, time=30),
    Message('note_on', channel=4, note=59, velocity=0, time=0),
    Message('note_on', channel=3, note=64, velocity=0, time=10),
    Message('note_on', channel=4, note=64, velocity=0, time=0),
    Message('note_on', channel=4, note=68, velocity=0, time=6),
    Message('note_on', channel=3, note=68, velocity=0, time=0),
    Message('note_on', channel=1, note=40, velocity=0, time=39),
    Message('note_on', channel=1, note=39, velocity=124, time=69),
    Message('note_on', channel=2, note=59, velocity=127, time=0),
    Message('note_on', channel=2, note=64, velocity=127, time=0),
    Message('note_on', channel=3, note=47, velocity=116, time=0),
    Message('note_on', channel=3, note=40, velocity=98, time=0),
    Message('note_on', channel=4, note=40, velocity=98, time=0),
    Message('note_on', channel=4, note=47, velocity=116, time=0),
    Message('note_on', channel=6, note=87, velocity=119, time=0),
    Message('note_on', channel=9, note=54, velocity=127, time=0),
    Message('note_on', channel=9, note=38, velocity=122, time=0),
    Message('note_on', channel=9, note=42, velocity=124, time=10),
    Message('note_on', channel=4, note=47, velocity=0, time=15),
    Message('note_on', channel=3, note=47, velocity=0, time=0),
    Message('note_on', channel=4, note=40, velocity=0, time=1),
    Message('note_on', channel=3, note=40, velocity=0, time=0),
    Message('note_on', channel=9, note=54, velocity=0, time=10),
    Message('note_on', channel=9, note=38, velocity=0, time=11),
    Message('note_on', channel=9, note=42, velocity=0, time=6),
    Message('note_on', channel=6, note=87, velocity=0, time=67),
    Message('note_on', channel=6, note=85, velocity=114, time=0),
    Message('note_on', channel=9, note=64, velocity=101, time=0),
    Message('note_on', channel=9, note=64, velocity=0, time=39),
    Message('note_on', channel=6, note=85, velocity=0, time=46),
    Message('note_on', channel=1, note=39, velocity=0, time=1),
    Message('note_on', channel=1, note=37, velocity=119, time=34),
    Message('note_on', channel=3, note=64, velocity=103, time=0),
    Message('note_on', channel=3, note=68, velocity=112, time=0),
    Message('note_on', channel=3, note=59, velocity=96, time=0),
    Message('note_on', channel=4, note=64, velocity=103, time=0),
    Message('note_on', channel=4, note=59, velocity=96, time=0),
    Message('note_on', channel=4, note=68, velocity=112, time=0),
    Message('note_on', channel=6, note=83, velocity=114, time=0),
    Message('note_on', channel=9, note=38, velocity=101, time=0),
    Message('note_on', channel=9, note=63, velocity=122, time=0),
    Message('note_on', channel=9, note=42, velocity=77, time=10),
    Message('note_on', channel=9, note=38, velocity=0, time=18),
    Message('note_on', channel=9, note=42, velocity=0, time=10),
    Message('note_on', channel=9, note=63, velocity=0, time=0),
    Message('note_on', channel=9, note=63, velocity=122, time=82),
    Message('note_on', channel=9, note=38, velocity=122, time=0),
    Message('note_on', channel=3, note=59, velocity=0, time=5),
    Message('note_on', channel=4, note=59, velocity=0, time=0),
    Message('note_on', channel=3, note=64, velocity=0, time=1),
    Message('note_on', channel=4, note=64, velocity=0, time=0),
    Message('note_on', channel=4, note=68, velocity=0, time=9),
    Message('note_on', channel=3, note=68, velocity=0, time=0),
    Message('note_on', channel=2, note=52, velocity=0, time=21),
    Message('note_on', channel=9, note=38, velocity=0, time=0),
    Message('note_on', channel=9, note=63, velocity=0, time=3),
    Message('note_on', channel=2, note=64, velocity=0, time=4),
    Message('note_on', channel=2, note=59, velocity=0, time=8),
    Message('note_on', channel=6, note=83, velocity=0, time=1),
    Message('note_on', channel=2, note=56, velocity=0, time=12),
    Message('note_on', channel=1, note=37, velocity=0, time=56),
    Message('note_on', channel=1, note=35, velocity=127, time=0),
    Message('note_on', channel=2, note=47, velocity=127, time=0),
    Message('note_on', channel=0, note=59, velocity=112, time=0),
    Message('note_on', channel=3, note=47, velocity=98, time=0),
    Message('note_on', channel=4, note=47, velocity=98, time=0),
    Message('note_on', channel=9, note=64, velocity=94, time=0),
    Message('note_on', channel=9, note=36, velocity=124, time=10),
    Message('note_on', channel=9, note=42, velocity=124, time=0),
    Message('note_on', channel=9, note=42, velocity=0, time=44),
    Message('note_on', channel=9, note=64, velocity=0, time=6),
    Message('note_on', channel=9, note=36, velocity=0, time=16),
    Message('note_on', channel=0, note=59, velocity=0, time=44),
    Message('note_on', channel=1, note=35, velocity=0, time=6),
    Message('note_on', channel=4, note=47, velocity=0, time=42),
    Message('note_on', channel=3, note=47, velocity=0, time=0),
    Message('note_on', channel=1, note=35, velocity=127, time=72),
    Message('note_on', channel=2, note=54, velocity=127, time=0),
    Message('note_on', channel=0, note=59, velocity=112, time=0),
    Message('note_on', channel=3, note=66, velocity=105, time=0),
    Message('note_on', channel=3, note=59, velocity=101, time=0),
    Message('note_on', channel=3, note=71, velocity=89, time=0),
    Message('note_on', channel=3, note=63, velocity=101, time=0),
    Message('note_on', channel=4, note=59, velocity=101, time=0),
    Message('note_on', channel=4, note=66, velocity=105, time=0),
    Message('note_on', channel=4, note=71, velocity=89, time=0),
    Message('note_on', channel=4, note=63, velocity=101, time=0),
    Message('note_on', channel=9, note=63, velocity=119, time=0),
    Message('note_on', channel=9, note=36, velocity=122, time=10),
    Message('note_on', channel=9, note=42, velocity=89, time=0),
    Message('note_on', channel=9, note=63, velocity=0, time=27),
    Message('note_on', channel=9, note=42, velocity=0, time=9),
    Message('note_on', channel=9, note=36, velocity=0, time=23),
    Message('note_on', channel=3, note=59, velocity=0, time=26),
    Message('note_on', channel=4, note=59, velocity=0, time=0),
    Message('note_on', channel=4, note=66, velocity=0, time=5),
    Message('note_on', channel=3, note=66, velocity=0, time=0),
    Message('note_on', channel=3, note=63, velocity=0, time=6),
    Message('note_on', channel=4, note=63, velocity=0, time=0),
    Message('note_on', channel=4, note=71, velocity=0, time=10),
    Message('note_on', channel=3, note=71, velocity=0, time=0),
    Message('note_on', channel=0, note=59, velocity=0, time=3),
    Message('note_on', channel=1, note=35, velocity=0, time=29),
    Message('note_on', channel=2, note=63, velocity=127, time=92),
    Message('note_on', channel=2, note=59, velocity=127, time=0),
    Message('note_on', channel=0, note=59, velocity=116, time=0),
    Message('note_on', channel=3, note=47, velocity=82, time=0),
    Message('note_on', channel=3, note=54, velocity=112, time=0),
    Message('note_on', channel=4, note=54, velocity=112, time=0),
    Message('note_on', channel=4, note=47, velocity=82, time=0),
    Message('note_on', channel=9, note=54, velocity=127, time=0),
    Message('note_on', channel=9, note=38, velocity=124, time=0),
    Message('note_on', channel=4, note=54, velocity=0, time=7),
    Message('note_on', channel=3, note=54, velocity=0, time=0),
    Message('note_on', channel=4, note=47, velocity=0, time=1),
    Message('note_on', channel=3, note=47, velocity=0, time=0),
    Message('note_on', channel=9, note=42, velocity=119, time=2),
    Message('note_on', channel=9, note=54, velocity=0, time=25),
    Message('note_on', channel=9, note=38, velocity=0, time=15),
    Message('note_on', channel=9, note=42, velocity=0, time=11),
    Message('note_on', channel=0, note=59, velocity=0, time=53),
    Message('note_on', channel=9, note=64, velocity=101, time=6),
    Message('note_on', channel=9, note=64, velocity=0, time=49),
    Message('note_on', channel=1, note=35, velocity=116, time=71),
    Message('note_on', channel=0, note=59, velocity=109, time=0),
    Message('note_on', channel=3, note=59, velocity=103, time=0),
    Message('note_on', channel=3, note=66, velocity=112, time=0),
    Message('note_on', channel=3, note=63, velocity=109, time=0),
    Message('note_on', channel=3, note=71, velocity=93, time=0),
    Message('note_on', channel=4, note=63, velocity=109, time=0),
    Message('note_on', channel=4, note=66, velocity=112, time=0),
    Message('note_on', channel=4, note=59, velocity=103, time=0),
    Message('note_on', channel=4, note=71, velocity=93, time=0),
    Message('note_on', channel=9, note=63, velocity=122, time=0),
    Message('note_on', channel=9, note=42, velocity=89, time=10),
    Message('note_on', channel=9, note=63, velocity=0, time=32),
    Message('note_on', channel=1, note=35, velocity=0, time=3),
    Message('note_on', channel=9, note=42, velocity=0, time=3),
    Message('note_on', channel=1, note=35, velocity=119, time=72),
    Message('note_on', channel=9, note=63, velocity=114, time=0),
    Message('note_on', channel=9, note=38, velocity=122, time=0),
    Message('note_on', channel=0, note=59, velocity=0, time=6),
    Message('note_on', channel=3, note=66, velocity=0, time=4),
    Message('note_on', channel=4, note=66, velocity=0, time=0),
    Message('note_on', channel=9, note=42, velocity=96, time=0),
    Message('note_on', channel=4, note=59, velocity=0, time=6),
    Message('note_on', channel=3, note=59, velocity=0, time=0),
    Message('note_on', channel=3, note=63, velocity=0, time=2),
    Message('note_on', channel=4, note=63, velocity=0, time=0),
    Message('note_on', channel=3, note=71, velocity=0, time=13),
    Message('note_on', channel=4, note=71, velocity=0, time=0),
    Message('note_on', channel=9, note=63, velocity=0, time=5),
    Message('note_on', channel=9, note=38, velocity=0, time=1),
    Message('note_on', channel=9, note=42, velocity=0, time=7),
    Message('note_on', channel=1, note=35, velocity=0, time=16),
    Message('note_on', channel=2, note=63, velocity=0, time=8),
    Message('note_on', channel=2, note=59, velocity=0, time=10),
    Message('note_on', channel=2, note=54, velocity=0, time=14),
    Message('note_on', channel=2, note=47, velocity=0, time=11),
    Message('note_on', channel=1, note=42, velocity=112, time=17),
    Message('note_on', channel=2, note=54, velocity=127, time=0),
    Message('note_on', channel=0, note=58, velocity=114, time=0),
    Message('note_on', channel=3, note=54, velocity=112, time=0),
    Message('note_on', channel=4, note=54, velocity=112, time=0),
    Message('note_on', channel=9, note=64, velocity=93, time=0),
    Message('note_on', channel=9, note=36, velocity=114, time=10),
    Message('note_on', channel=9, note=42, velocity=103, time=0),
    Message('note_on', channel=9, note=64, velocity=0, time=30),
    Message('note_on', channel=9, note=42, velocity=0, time=5),
    Message('note_on', channel=9, note=36, velocity=0, time=20),
    Message('note_on', channel=1, note=42, velocity=0, time=33),
    Message('note_on', channel=0, note=58, velocity=0, time=14),
    Message('note_on', channel=9, note=38, velocity=109, time=8),
    Message('note_on', channel=9, note=42, velocity=89, time=10),
    Message('note_on', channel=9, note=42, velocity=0, time=35),
    Message('note_on', channel=9, note=38, velocity=0, time=3),
    Message('note_on', channel=4, note=54, velocity=0, time=40),
    Message('note_on', channel=3, note=54, velocity=0, time=0),
    Message('note_on', channel=1, note=42, velocity=124, time=32),
    Message('note_on', channel=2, note=58, velocity=127, time=0),
    Message('note_on', channel=0, note=56, velocity=105, time=0),
    Message('note_on', channel=3, note=61, velocity=94, time=0),
    Message('note_on', channel=3, note=70, velocity=109, time=0),
    Message('note_on', channel=3, note=66, velocity=105, time=0),
    Message('note_on', channel=4, note=66, velocity=105, time=0),
    Message('note_on', channel=4, note=61, velocity=94, time=0),
    Message('note_on', channel=4, note=70, velocity=109, time=0),
    Message('note_on', channel=9, note=63, velocity=122, time=0),
    Message('note_on', channel=9, note=36, velocity=116, time=10),
    Message('note_on', channel=9, note=42, velocity=82, time=0),
    Message('note_on', channel=9, note=63, velocity=0, time=22),
    Message('note_on', channel=9, note=42, velocity=0, time=11),
    Message('note_on', channel=9, note=36, velocity=0, time=11),
    Message('note_on', channel=4, note=70, velocity=0, time=28),
    Message('note_on', channel=3, note=70, velocity=0, time=0),
    Message('note_on', channel=4, note=61, velocity=0, time=2),
    Message('note_on', channel=3, note=61, velocity=0, time=0),
    Message('note_on', channel=0, note=56, velocity=0, time=14),
    Message('note_on', channel=4, note=66, velocity=0, time=0),
    Message('note_on', channel=3, note=66, velocity=0, time=0),
    Message('note_on', channel=1, note=42, velocity=0, time=84),
    Message('note_on', channel=2, note=66, velocity=127, time=58),
    Message('note_on', channel=2, note=61, velocity=127, time=0),
    Message('note_on', channel=0, note=58, velocity=98, time=0),
    Message('note_on', channel=3, note=42, velocity=105, time=0),
    Message('note_on', channel=3, note=49, velocity=114, time=0),
    Message('note_on', channel=4, note=49, velocity=114, time=0),
    Message('note_on', channel=4, note=42, velocity=105, time=0),
    Message('note_on', channel=9, note=38, velocity=122, time=0),
    Message('note_on', channel=9, note=54, velocity=127, time=0),
    Message('note_on', channel=4, note=42, velocity=0, time=7),
    Message('note_on', channel=3, note=42, velocity=0, time=0),
    Message('note_on', channel=4, note=49, velocity=0, time=1),
    Message('note_on', channel=3, note=49, velocity=0, time=0),
    Message('note_on', channel=9, note=42, velocity=119, time=2),
    Message('note_on', channel=9, note=54, velocity=0, time=26),
    Message('note_on', channel=9, note=38, velocity=0, time=11),
    Message('note_on', channel=9, note=42, velocity=0, time=3),
    Message('note_on', channel=9, note=64, velocity=101, time=70),
    Message('note_on', channel=0, note=58, velocity=0, time=2),
    Message('note_on', channel=9, note=64, velocity=0, time=37),
    Message('note_on', channel=1, note=42, velocity=122, time=81),
    Message('note_on', channel=0, note=56, velocity=103, time=0),
    Message('note_on', channel=3, note=66, velocity=93, time=0),
    Message('note_on', channel=3, note=61, velocity=98, time=0),
    Message('note_on', channel=3, note=70, velocity=105, time=0),
    Message('note_on', channel=4, note=70, velocity=105, time=0),
    Message('note_on', channel=4, note=66, velocity=93, time=0),
    Message('note_on', channel=4, note=61, velocity=98, time=0),
    Message('note_on', channel=9, note=63, velocity=122, time=0),
    Message('note_on', channel=9, note=42, velocity=91, time=10),
    Message('note_on', channel=9, note=63, velocity=0, time=28),
    Message('note_on', channel=9, note=42, velocity=0, time=8),
    Message('note_on', channel=1, note=42, velocity=0, time=3),
    Message('note_on', channel=4, note=70, velocity=0, time=53),
    Message('note_on', channel=3, note=70, velocity=0, time=0),
    Message('note_on', channel=3, note=61, velocity=0, time=6),
    Message('note_on', channel=4, note=61, velocity=0, time=0),
    Message('note_on', channel=4, note=66, velocity=0, time=8),
    Message('note_on', channel=3, note=66, velocity=0, time=0),
    Message('note_on', channel=1, note=42, velocity=119, time=4),
    Message('note_on', channel=9, note=38, velocity=122, time=0),
    Message('note_on', channel=9, note=63, velocity=122, time=0),
    Message('note_on', channel=0, note=56, velocity=0, time=8),
    Message('note_on', channel=9, note=42, velocity=107, time=2),
    Message('note_on', channel=9, note=38, velocity=0, time=22),
    Message('note_on', channel=9, note=63, velocity=0, time=7),
    Message('note_on', channel=9, note=42, velocity=0, time=10),
    Message('note_on', channel=1, note=42, velocity=0, time=5),
    Message('note_on', channel=2, note=58, velocity=0, time=16),
    Message('note_on', channel=2, note=66, velocity=0, time=11),
    Message('note_on', channel=2, note=61, velocity=0, time=4),
    Message('note_on', channel=2, note=54, velocity=0, time=8),
    Message('note_on', channel=1, note=40, velocity=122, time=27),
    Message('note_on', channel=2, note=52, velocity=127, time=0),
    Message('note_on', channel=0, note=52, velocity=98, time=0),
    Message('note_on', channel=3, note=52, velocity=122, time=0),
    Message('note_on', channel=4, note=52, velocity=122, time=0),
    Message('note_on', channel=9, note=64, velocity=94, time=0),
    Message('note_on', channel=9, note=36, velocity=122, time=10),
    Message('note_on', channel=9, note=42, velocity=114, time=0),
    Message('note_on', channel=9, note=42, velocity=0, time=45),
    Message('note_on', channel=9, note=64, velocity=0, time=5),
    Message('note_on', channel=9, note=36, velocity=0, time=5),
    Message('note_on', channel=1, note=40, velocity=0, time=81),
    Message('note_on', channel=3, note=52, velocity=0, time=76),
    Message('note_on', channel=4, note=52, velocity=0, time=0),
    Message('note_on', channel=1, note=40, velocity=127, time=18),
    Message('note_on', channel=2, note=56, velocity=127, time=0),
    Message('note_on', channel=3, note=64, velocity=107, time=0),
    Message('note_on', channel=3, note=68, velocity=114, time=0),
    Message('note_on', channel=3, note=59, velocity=101, time=0),
    Message('note_on', channel=4, note=68, velocity=114, time=0),
    Message('note_on', channel=4, note=64, velocity=107, time=0),
    Message('note_on', channel=4, note=59, velocity=101, time=0),
    Message('note_on', channel=9, note=63, velocity=119, time=0),
    Message('note_on', channel=9, note=36, velocity=116, time=10),
    Message('note_on', channel=9, note=42, velocity=77, time=0),
    Message('note_on', channel=9, note=63, velocity=0, time=27),
    Message('note_on', channel=9, note=42, velocity=0, time=17),
    Message('note_on', channel=9, note=36, velocity=0, time=1),
    Message('note_on', channel=0, note=52, velocity=0, time=52),
    Message('note_on', channel=4, note=68, velocity=0, time=19),
    Message('note_on', channel=3, note=68, velocity=0, time=0),
    Message('note_on', channel=4, note=59, velocity=0, time=2),
    Message('note_on', channel=3, note=59, velocity=0, time=0),
    Message('note_on', channel=4, note=64, velocity=0, time=3),
    Message('note_on', channel=3, note=64, velocity=0, time=0),
    Message('note_on', channel=1, note=40, velocity=0, time=23),
    Message('note_on', channel=2, note=59, velocity=127, time=86),
    Message('note_on', channel=2, note=64, velocity=127, time=0),
    Message('note_on', channel=3, note=52, velocity=103, time=0),
    Message('note_on', channel=3, note=59, velocity=105, time=0),
    Message('note_on', channel=4, note=52, velocity=103, time=0),
    Message('note_on', channel=4, note=59, velocity=105, time=0),
    Message('note_on', channel=9, note=38, velocity=116, time=0),
    Message('note_on', channel=9, note=54, velocity=127, time=0),
    Message('note_on', channel=4, note=52, velocity=0, time=8),
    Message('note_on', channel=3, note=52, velocity=0, time=0),
    Message('note_on', channel=4, note=59, velocity=0, time=2),
    Message('note_on', channel=3, note=59, velocity=0, time=0),
    Message('note_on', channel=9, note=42, velocity=119, time=0),
    Message('note_on', channel=9, note=54, velocity=0, time=25),
    Message('note_on', channel=9, note=38, velocity=0, time=12),
    Message('note_on', channel=9, note=42, velocity=0, time=4),
    Message('note_on', channel=9, note=64, velocity=101, time=69),
    Message('note_on', channel=9, note=64, velocity=0, time=49),
    Message('note_on', channel=3, note=59, velocity=91, time=71),
    Message('note_on', channel=3, note=64, velocity=101, time=0),
    Message('note_on', channel=3, note=68, velocity=112, time=0),
    Message('note_on', channel=4, note=68, velocity=112, time=0),
    Message('note_on', channel=4, note=64, velocity=101, time=0),
    Message('note_on', channel=4, note=59, velocity=91, time=0),
    Message('note_on', channel=9, note=63, velocity=122, time=0),
    Message('note_on', channel=9, note=42, velocity=93, time=10),
    Message('note_on', channel=9, note=63, velocity=0, time=32),
    Message('note_on', channel=9, note=42, velocity=0, time=5),
    Message('note_on', channel=1, note=35, velocity=119, time=73),
    Message('note_on', channel=9, note=63, velocity=114, time=0),
    Message('note_on', channel=9, note=38, velocity=116, time=0),
    Message('note_on', channel=4, note=64, velocity=0, time=7),
    Message('note_on', channel=3, note=64, velocity=0, time=0),
    Message('note_on', channel=4, note=59, velocity=0, time=2),
    Message('note_on', channel=3, note=59, velocity=0, time=0),
    Message('note_on', channel=9, note=42, velocity=98, time=1),
    Message('note_on', channel=4, note=68, velocity=0, time=3),
    Message('note_on', channel=3, note=68, velocity=0, time=0),
    Message('note_on', channel=2, note=56, velocity=0, time=17),
    Message('note_on', channel=9, note=63, velocity=0, time=6),
    Message('note_on', channel=9, note=42, velocity=0, time=12),
    Message('note_on', channel=9, note=38, velocity=0, time=1),
    Message('note_on', channel=1, note=35, velocity=0, time=8),
    Message('note_on', channel=2, note=52, velocity=0, time=58),
    Message('note_on', channel=1, note=40, velocity=124, time=5),
    Message('note_on', channel=2, note=52, velocity=127, time=0),
    Message('note_on', channel=6, note=83, velocity=112, time=0),
    Message('note_on', channel=9, note=64, velocity=93, time=0),
    Message('note_on', channel=9, note=36, velocity=107, time=10),
    Message('note_on', channel=9, note=42, velocity=116, time=0),
    Message('note_on', channel=9, note=64, velocity=0, time=30),
    Message('note_on', channel=9, note=36, velocity=0, time=1),
    Message('note_on', channel=9, note=42, velocity=0, time=7),
    Message('note_on', channel=2, note=64, velocity=0, time=32),
    Message('note_on', channel=6, note=83, velocity=0, time=4),
    Message('note_on', channel=2, note=59, velocity=0, time=11),
    Message('note_on', channel=6, note=85, velocity=119, time=25),
    Message('note_on', channel=9, note=38, velocity=122, time=0),
    Message('note_on', channel=1, note=40, velocity=0, time=9),
    Message('note_on', channel=9, note=42, velocity=97, time=1),
    Message('note_on', channel=9, note=38, velocity=0, time=29),
    Message('note_on', channel=9, note=42, velocity=0, time=6),
    Message('note_on', channel=6, note=85, velocity=0, time=4),
    Message('note_on', channel=1, note=40, velocity=127, time=71),
    Message('note_on', channel=2, note=56, velocity=127, time=0),
    Message('note_on', channel=3, note=59, velocity=94, time=0),
    Message('note_on', channel=3, note=64, velocity=98, time=0),
    Message('note_on', channel=3, note=68, velocity=109, time=0),
    Message('note_on', channel=4, note=59, velocity=94, time=0),
    Message('note_on', channel=4, note=64, velocity=98, time=0),
    Message('note_on', channel=4, note=68, velocity=109, time=0),
    Message('note_on', channel=6, note=87, velocity=122, time=0),
    Message('note_on', channel=9, note=63, velocity=122, time=0),
    Message('note_on', channel=9, note=46, velocity=87, time=0),
    Message('note_on', channel=9, note=36, velocity=124, time=10),
    Message('note_on', channel=9, note=63, velocity=0, time=22),
    Message('note_on', channel=9, note=46, velocity=0, time=4),
    Message('note_on', channel=9, note=36, velocity=0, time=13),
    Message('note_on', channel=6, note=87, velocity=0, time=35),
    Message('note_on', channel=4, note=59, velocity=0, time=32),
    Message('note_on', channel=3, note=59, velocity=0, time=0),
    Message('note_on', channel=3, note=64, velocity=0, time=10),
    Message('note_on', channel=4, note=64, velocity=0, time=0),
    Message('note_on', channel=4, note=68, velocity=0, time=6),
    Message('note_on', channel=3, note=68, velocity=0, time=0),
    Message('note_on', channel=1, note=40, velocity=0, time=29),
    Message('note_on', channel=1, note=32, velocity=127, time=79),
    Message('note_on', channel=2, note=59, velocity=127, time=0),
    Message('note_on', channel=2, note=64, velocity=127, time=0),
    Message('note_on', channel=3, note=47, velocity=116, time=0),
    Message('note_on', channel=3, note=40, velocity=98, time=0),
    Message('note_on', channel=4, note=47, velocity=116, time=0),
    Message('note_on', channel=4, note=40, velocity=98, time=0),
    Message('note_on', channel=6, note=87, velocity=122, time=0),
    Message('note_on', channel=9, note=38, velocity=122, time=0),
    Message('note_on', channel=9, note=54, velocity=127, time=0),
    Message('note_on', channel=9, note=42, velocity=124, time=10),
    Message('note_on', channel=4, note=47, velocity=0, time=15),
    Message('note_on', channel=3, note=47, velocity=0, time=0),
    Message('note_on', channel=4, note=40, velocity=0, time=1),
    Message('note_on', channel=3, note=40, velocity=0, time=0),
    Message('note_on', channel=9, note=54, velocity=0, time=10),
    Message('note_on', channel=9, note=38, velocity=0, time=11),
    Message('note_on', channel=9, note=42, velocity=0, time=6),
    Message('note_on', channel=6, note=87, velocity=0, time=41),
    Message('note_on', channel=6, note=85, velocity=114, time=26),
    Message('note_on', channel=9, note=64, velocity=101, time=0),
    Message('note_on', channel=9, note=64, velocity=0, time=39),
    Message('note_on', channel=6, note=85, velocity=0, time=28),
    Message('note_on', channel=1, note=32, velocity=0, time=12),
    Message('note_on', channel=1, note=35, velocity=122, time=41),
    Message('note_on', channel=3, note=64, velocity=103, time=0),
    Message('note_on', channel=3, note=68, velocity=112, time=0),
    Message('note_on', channel=3, note=59, velocity=96, time=0),
    Message('note_on', channel=4, note=64, velocity=103, time=0),
    Message('note_on', channel=4, note=68, velocity=112, time=0),
    Message('note_on', channel=4, note=59, velocity=96, time=0),
    Message('note_on', channel=6, note=83, velocity=119, time=0),
    Message('note_on', channel=9, note=38, velocity=101, time=0),
    Message('note_on', channel=9, note=63, velocity=122, time=0),
    Message('note_on', channel=9, note=42, velocity=77, time=10),
    Message('note_on', channel=9, note=38, velocity=0, time=18),
    Message('note_on', channel=9, note=42, velocity=0, time=10),
    Message('note_on', channel=9, note=63, velocity=0, time=0),
    Message('note_on', channel=6, note=83, velocity=0, time=60),
    Message('note_on', channel=9, note=63, velocity=122, time=22),
    Message('note_on', channel=9, note=38, velocity=122, time=0),
    Message('note_on', channel=3, note=59, velocity=0, time=5),
    Message('note_on', channel=4, note=59, velocity=0, time=0),
    Message('note_on', channel=3, note=64, velocity=0, time=1),
    Message('note_on', channel=4, note=64, velocity=0, time=0),
    Message('note_on', channel=4, note=68, velocity=0, time=9),
    Message('note_on', channel=3, note=68, velocity=0, time=0),
    Message('note_on', channel=9, note=38, velocity=0, time=21),
    Message('note_on', channel=2, note=52, velocity=0, time=0),
    Message('note_on', channel=9, note=63, velocity=0, time=3),
    Message('note_on', channel=2, note=64, velocity=0, time=4),
    Message('note_on', channel=2, note=59, velocity=0, time=8),
    Message('note_on', channel=2, note=56, velocity=0, time=13),
    Message('note_on', channel=1, note=35, velocity=0, time=20),
    Message('note_on', channel=1, note=35, velocity=127, time=36),
    Message('note_on', channel=2, note=47, velocity=127, time=0),
    Message('note_on', channel=3, note=47, velocity=98, time=0),
    Message('note_on', channel=4, note=47, velocity=98, time=0),
    Message('note_on', channel=9, note=64, velocity=94, time=0),
    Message('note_on', channel=9, note=42, velocity=124, time=10),
    Message('note_on', channel=9, note=36, velocity=124, time=0),
    Message('note_on', channel=9, note=42, velocity=0, time=44),
    Message('note_on', channel=9, note=64, velocity=0, time=6),
    Message('note_on', channel=9, note=36, velocity=0, time=16),
    Message('note_on', channel=1, note=35, velocity=0, time=82),
    Message('note_on', channel=4, note=47, velocity=0, time=10),
    Message('note_on', channel=3, note=47, velocity=0, time=0),
    Message('note_on', channel=1, note=35, velocity=127, time=72),
    Message('note_on', channel=2, note=54, velocity=127, time=0),
    Message('note_on', channel=3, note=66, velocity=105, time=0),
    Message('note_on', channel=3, note=59, velocity=101, time=0),
    Message('note_on', channel=3, note=71, velocity=89, time=0),
    Message('note_on', channel=3, note=63, velocity=101, time=0),
    Message('note_on', channel=4, note=59, velocity=101, time=0),
    Message('note_on', channel=4, note=71, velocity=89, time=0),
    Message('note_on', channel=4, note=66, velocity=105, time=0),
    Message('note_on', channel=4, note=63, velocity=101, time=0),
    Message('note_on', channel=9, note=63, velocity=119, time=0),
    Message('note_on', channel=9, note=42, velocity=89, time=10),
    Message('note_on', channel=9, note=36, velocity=122, time=0),
    Message('note_on', channel=9, note=63, velocity=0, time=27),
    Message('note_on', channel=9, note=42, velocity=0, time=9),
    Message('note_on', channel=9, note=36, velocity=0, time=23),
    Message('note_on', channel=3, note=59, velocity=0, time=26),
    Message('note_on', channel=4, note=59, velocity=0, time=0),
    Message('note_on', channel=3, note=66, velocity=0, time=5),
    Message('note_on', channel=4, note=66, velocity=0, time=0),
    Message('note_on', channel=4, note=63, velocity=0, time=6),
    Message('note_on', channel=3, note=63, velocity=0, time=0),
    Message('note_on', channel=4, note=71, velocity=0, time=10),
    Message('note_on', channel=3, note=71, velocity=0, time=0),
    Message('note_on', channel=1, note=35, velocity=0, time=87),
    Message('note_on', channel=2, note=59, velocity=127, time=37),
    Message('note_on', channel=2, note=63, velocity=127, time=0),
    Message('note_on', channel=3, note=47, velocity=82, time=0),
    Message('note_on', channel=3, note=54, velocity=112, time=0),
    Message('note_on', channel=4, note=54, velocity=112, time=0),
    Message('note_on', channel=4, note=47, velocity=82, time=0),
    Message('note_on', channel=9, note=38, velocity=124, time=0),
    Message('note_on', channel=9, note=54, velocity=127, time=0),
    Message('note_on', channel=4, note=54, velocity=0, time=7),
    Message('note_on', channel=3, note=54, velocity=0, time=0),
    Message('note_on', channel=4, note=47, velocity=0, time=1),
    Message('note_on', channel=3, note=47, velocity=0, time=0),
    Message('note_on', channel=9, note=42, velocity=119, time=2),
    Message('note_on', channel=9, note=54, velocity=0, time=25),
    Message('note_on', channel=9, note=38, velocity=0, time=15),
    Message('note_on', channel=9, note=42, velocity=0, time=11),
    Message('note_on', channel=9, note=64, velocity=101, time=59),
    Message('note_on', channel=9, note=64, velocity=0, time=49),
    Message('note_on', channel=1, note=35, velocity=122, time=71),
    Message('note_on', channel=3, note=59, velocity=103, time=0),
    Message('note_on', channel=3, note=66, velocity=112, time=0),
    Message('note_on', channel=3, note=63, velocity=109, time=0),
    Message('note_on', channel=3, note=71, velocity=93, time=0),
    Message('note_on', channel=4, note=66, velocity=112, time=0),
    Message('note_on', channel=4, note=59, velocity=103, time=0),
    Message('note_on', channel=4, note=63, velocity=109, time=0),
    Message('note_on', channel=4, note=71, velocity=93, time=0),
    Message('note_on', channel=9, note=63, velocity=122, time=0),
    Message('note_on', channel=9, note=42, velocity=89, time=10),
    Message('note_on', channel=1, note=35, velocity=0, time=30),
    Message('note_on', channel=9, note=63, velocity=0, time=2),
    Message('note_on', channel=9, note=42, velocity=0, time=6),
    Message('note_on', channel=1, note=35, velocity=116, time=72),
    Message('note_on', channel=9, note=38, velocity=122, time=0),
    Message('note_on', channel=9, note=63, velocity=114, time=0),
    Message('note_on', channel=4, note=66, velocity=0, time=10),
    Message('note_on', channel=3, note=66, velocity=0, time=0),
    Message('note_on', channel=9, note=42, velocity=96, time=0),
    Message('note_on', channel=4, note=59, velocity=0, time=6),
    Message('note_on', channel=3, note=59, velocity=0, time=0),
    Message('note_on', channel=3, note=63, velocity=0, time=2),
    Message('note_on', channel=4, note=63, velocity=0, time=0),
    Message('note_on', channel=3, note=71, velocity=0, time=13),
    Message('note_on', channel=4, note=71, velocity=0, time=0),
    Message('note_on', channel=9, note=63, velocity=0, time=5),
    Message('note_on', channel=9, note=38, velocity=0, time=1),
    Message('note_on', channel=9, note=42, velocity=0, time=7),
    Message('note_on', channel=2, note=63, velocity=0, time=24),
    Message('note_on', channel=1, note=35, velocity=0, time=1),
    Message('note_on', channel=2, note=59, velocity=0, time=9),
    Message('note_on', channel=2, note=54, velocity=0, time=14),
    Message('note_on', channel=2, note=47, velocity=0, time=11),
    Message('note_on', channel=1, note=30, velocity=127, time=17),
    Message('note_on', channel=2, note=54, velocity=127, time=0),
    Message('note_on', channel=3, note=54, velocity=112, time=0),
    Message('note_on', channel=4, note=54, velocity=112, time=0),
    Message('note_on', channel=9, note=64, velocity=93, time=0),
    Message('note_on', channel=9, note=42, velocity=103, time=10),
    Message('note_on', channel=9, note=36, velocity=114, time=0),
    Message('note_on', channel=9, note=64, velocity=0, time=30),
    Message('note_on', channel=9, note=42, velocity=0, time=5),
    Message('note_on', channel=9, note=36, velocity=0, time=20),
    Message('note_on', channel=9, note=38, velocity=109, time=55),
    Message('note_on', channel=9, note=42, velocity=89, time=10),
    Message('note_on', channel=1, note=30, velocity=0, time=21),
    Message('note_on', channel=9, note=42, velocity=0, time=14),
    Message('note_on', channel=9, note=38, velocity=0, time=3),
    Message('note_on', channel=4, note=54, velocity=0, time=40),
    Message('note_on', channel=3, note=54, velocity=0, time=0),
    Message('note_on', channel=1, note=30, velocity=127, time=32),
    Message('note_on', channel=2, note=58, velocity=127, time=0),
    Message('note_on', channel=3, note=61, velocity=94, time=0),
    Message('note_on', channel=3, note=70, velocity=109, time=0),
    Message('note_on', channel=3, note=66, velocity=105, time=0),
    Message('note_on', channel=4, note=70, velocity=109, time=0),
    Message('note_on', channel=4, note=66, velocity=105, time=0),
    Message('note_on', channel=4, note=61, velocity=94, time=0),
    Message('note_on', channel=9, note=63, velocity=122, time=0),
    Message('note_on', channel=9, note=42, velocity=82, time=10),
    Message('note_on', channel=9, note=36, velocity=116, time=0),
    Message('note_on', channel=9, note=63, velocity=0, time=22),
    Message('note_on', channel=9, note=42, velocity=0, time=11),
    Message('note_on', channel=9, note=36, velocity=0, time=11),
    Message('note_on', channel=4, note=70, velocity=0, time=28),
    Message('note_on', channel=3, note=70, velocity=0, time=0),
    Message('note_on', channel=3, note=61, velocity=0, time=2),
    Message('note_on', channel=4, note=61, velocity=0, time=0),
    Message('note_on', channel=4, note=66, velocity=0, time=14),
    Message('note_on', channel=3, note=66, velocity=0, time=0),
    Message('note_on', channel=1, note=30, velocity=0, time=95),
    Message('note_on', channel=2, note=61, velocity=127, time=47),
    Message('note_on', channel=2, note=66, velocity=127, time=0),
    Message('note_on', channel=3, note=49, velocity=114, time=0),
    Message('note_on', channel=3, note=42, velocity=105, time=0),
    Message('note_on', channel=4, note=49, velocity=114, time=0),
    Message('note_on', channel=4, note=42, velocity=105, time=0),
    Message('note_on', channel=9, note=38, velocity=122, time=0),
    Message('note_on', channel=9, note=54, velocity=127, time=0),
    Message('note_on', channel=4, note=42, velocity=0, time=7),
    Message('note_on', channel=3, note=42, velocity=0, time=0),
    Message('note_on', channel=4, note=49, velocity=0, time=1),
    Message('note_on', channel=3, note=49, velocity=0, time=0),
    Message('note_on', channel=9, note=42, velocity=119, time=2),
    Message('note_on', channel=9, note=54, velocity=0, time=26),
    Message('note_on', channel=9, note=38, velocity=0, time=11),
    Message('note_on', channel=9, note=42, velocity=0, time=3),
    Message('note_on', channel=9, note=64, velocity=101, time=70),
    Message('note_on', channel=9, note=64, velocity=0, time=39),
    Message('note_on', channel=1, note=42, velocity=119, time=81),
    Message('note_on', channel=3, note=66, velocity=93, time=0),
    Message('note_on', channel=3, note=61, velocity=98, time=0),
    Message('note_on', channel=3, note=70, velocity=105, time=0),
    Message('note_on', channel=4, note=66, velocity=93, time=0),
    Message('note_on', channel=4, note=70, velocity=105, time=0),
    Message('note_on', channel=4, note=61, velocity=98, time=0),
    Message('note_on', channel=9, note=63, velocity=122, time=0),
    Message('note_on', channel=9, note=42, velocity=91, time=10),
    Message('note_on', channel=9, note=63, velocity=0, time=28),
    Message('note_on', channel=9, note=42, velocity=0, time=8),
    Message('note_on', channel=1, note=42, velocity=0, time=11),
    Message('note_on', channel=4, note=70, velocity=0, time=45),
    Message('note_on', channel=3, note=70, velocity=0, time=0),
    Message('note_on', channel=4, note=61, velocity=0, time=6),
    Message('note_on', channel=3, note=61, velocity=0, time=0),
    Message('note_on', channel=4, note=66, velocity=0, time=8),
    Message('note_on', channel=3, note=66, velocity=0, time=0),
    Message('note_on', channel=1, note=42, velocity=127, time=4),
    Message('note_on', channel=9, note=63, velocity=122, time=0),
    Message('note_on', channel=9, note=38, velocity=122, time=0),
    Message('note_on', channel=9, note=42, velocity=107, time=10),
    Message('note_on', channel=9, note=38, velocity=0, time=22),
    Message('note_on', channel=9, note=63, velocity=0, time=7),
    Message('note_on', channel=9, note=42, velocity=0, time=10),
    Message('note_on', channel=2, note=58, velocity=0, time=21),
    Message('note_on', channel=2, note=66, velocity=0, time=11),
    Message('note_on', channel=2, note=61, velocity=0, time=4),
    Message('note_on', channel=2, note=54, velocity=0, time=8),
    Message('note_on', channel=1, note=42, velocity=0, time=8),
    Message('note_on', channel=1, note=40, velocity=119, time=19),
    Message('note_on', channel=2, note=52, velocity=127, time=0),
    Message('note_on', channel=3, note=52, velocity=122, time=0),
    Message('note_on', channel=4, note=52, velocity=122, time=0),
    Message('note_on', channel=9, note=64, velocity=94, time=0),
    Message('note_on', channel=9, note=36, velocity=122, time=10),
    Message('note_on', channel=9, note=42, velocity=114, time=0),
    Message('note_on', channel=9, note=42, velocity=0, time=45),
    Message('note_on', channel=9, note=64, velocity=0, time=5),
    Message('note_on', channel=9, note=36, velocity=0, time=5),
    Message('note_on', channel=1, note=40, velocity=0, time=109),
    Message('note_on', channel=4, note=52, velocity=0, time=48),
    Message('note_on', channel=3, note=52, velocity=0, time=0),
    Message('note_on', channel=1, note=28, velocity=122, time=18),
    Message('note_on', channel=2, note=56, velocity=127, time=0),
    Message('note_on', channel=3, note=59, velocity=101, time=0),
    Message('note_on', channel=3, note=64, velocity=107, time=0),
    Message('note_on', channel=3, note=68, velocity=114, time=0),
    Message('note_on', channel=4, note=68, velocity=114, time=0),
    Message('note_on', channel=4, note=64, velocity=107, time=0),
    Message('note_on', channel=4, note=59, velocity=101, time=0),
    Message('note_on', channel=9, note=63, velocity=119, time=0),
    Message('note_on', channel=9, note=42, velocity=77, time=10),
    Message('note_on', channel=9, note=36, velocity=116, time=0),
    Message('note_on', channel=9, note=63, velocity=0, time=27),
    Message('note_on', channel=9, note=42, velocity=0, time=17),
    Message('note_on', channel=9, note=36, velocity=0, time=1),
    Message('note_on', channel=4, note=68, velocity=0, time=71),
    Message('note_on', channel=3, note=68, velocity=0, time=0),
    Message('note_on', channel=4, note=59, velocity=0, time=2),
    Message('note_on', channel=3, note=59, velocity=0, time=0),
    Message('note_on', channel=4, note=64, velocity=0, time=3),
    Message('note_on', channel=3, note=64, velocity=0, time=0),
    Message('note_on', channel=1, note=28, velocity=0, time=107),
    Message('note_on', channel=2, note=59, velocity=127, time=2),
    Message('note_on', channel=2, note=64, velocity=127, time=0),
    Message('note_on', channel=3, note=52, velocity=103, time=0),
    Message('note_on', channel=3, note=59, velocity=105, time=0),
    Message('note_on', channel=4, note=59, velocity=105, time=0),
    Message('note_on', channel=4, note=52, velocity=103, time=0),
    Message('note_on', channel=9, note=38, velocity=116, time=0),
    Message('note_on', channel=9, note=54, velocity=127, time=0),
    Message('note_on', channel=4, note=52, velocity=0, time=8),
    Message('note_on', channel=3, note=52, velocity=0, time=0),
    Message('note_on', channel=4, note=59, velocity=0, time=2),
    Message('note_on', channel=3, note=59, velocity=0, time=0),
    Message('note_on', channel=9, note=42, velocity=119, time=0),
    Message('note_on', channel=9, note=54, velocity=0, time=25),
    Message('note_on', channel=9, note=38, velocity=0, time=12),
    Message('note_on', channel=9, note=42, velocity=0, time=4),
    Message('note_on', channel=9, note=64, velocity=101, time=69),
    Message('note_on', channel=9, note=64, velocity=0, time=49),
    Message('note_on', channel=3, note=68, velocity=112, time=71),
    Message('note_on', channel=3, note=64, velocity=101, time=0),
    Message('note_on', channel=3, note=59, velocity=91, time=0),
    Message('note_on', channel=4, note=68, velocity=112, time=0),
    Message('note_on', channel=4, note=59, velocity=91, time=0),
    Message('note_on', channel=4, note=64, velocity=101, time=0),
    Message('note_on', channel=9, note=63, velocity=122, time=0),
    Message('note_on', channel=9, note=42, velocity=93, time=10),
    Message('note_on', channel=9, note=63, velocity=0, time=32),
    Message('note_on', channel=9, note=42, velocity=0, time=5),
    Message('note_on', channel=1, note=35, velocity=124, time=73),
    Message('note_on', channel=9, note=38, velocity=116, time=0),
    Message('note_on', channel=9, note=63, velocity=114, time=0),
    Message('note_on', channel=4, note=64, velocity=0, time=7),
    Message('note_on', channel=3, note=64, velocity=0, time=0),
    Message('note_on', channel=4, note=59, velocity=0, time=2),
    Message('note_on', channel=3, note=59, velocity=0, time=0),
    Message('note_on', channel=9, note=42, velocity=98, time=1),
    Message('note_on', channel=4, note=68, velocity=0, time=3),
    Message('note_on', channel=3, note=68, velocity=0, time=0),
    Message('note_on', channel=2, note=56, velocity=0, time=17),
    Message('note_on', channel=9, note=63, velocity=0, time=6),
    Message('note_on', channel=9, note=42, velocity=0, time=12),
    Message('note_on', channel=9, note=38, velocity=0, time=1),
    Message('note_on', channel=1, note=35, velocity=0, time=27),
    Message('note_on', channel=2, note=52, velocity=0, time=39),
    Message('note_on', channel=1, note=40, velocity=122, time=5),
    Message('note_on', channel=2, note=52, velocity=127, time=0),
    Message('note_on', channel=9, note=64, velocity=93, time=0),
    Message('note_on', channel=9, note=36, velocity=107, time=10),
    Message('note_on', channel=9, note=42, velocity=116, time=0),
    Message('note_on', channel=9, note=64, velocity=0, time=30),
    Message('note_on', channel=9, note=36, velocity=0, time=1),
    Message('note_on', channel=9, note=42, velocity=0, time=7),
    Message('note_on', channel=2, note=64, velocity=0, time=32),
    Message('note_on', channel=2, note=59, velocity=0, time=15),
    Message('note_on', channel=9, note=38, velocity=122, time=25),
    Message('note_on', channel=9, note=42, velocity=97, time=10),
    Message('note_on', channel=1, note=40, velocity=0, time=13),
    Message('note_on', channel=9, note=38, velocity=0, time=16),
    Message('note_on', channel=9, note=42, velocity=0, time=6),
    Message('note_on', channel=1, note=40, velocity=124, time=75),
    Message('note_on', channel=2, note=56, velocity=127, time=0),
    Message('note_on', channel=3, note=59, velocity=94, time=0),
    Message('note_on', channel=3, note=68, velocity=109, time=0),
    Message('note_on', channel=3, note=64, velocity=98, time=0),
    Message('note_on', channel=4, note=59, velocity=94, time=0),
    Message('note_on', channel=4, note=64, velocity=98, time=0),
    Message('note_on', channel=4, note=68, velocity=109, time=0),
    Message('note_on', channel=9, note=46, velocity=87, time=0),
    Message('note_on', channel=9, note=63, velocity=122, time=0),
    Message('note_on', channel=9, note=36, velocity=124, time=10),
    Message('note_on', channel=9, note=63, velocity=0, time=22),
    Message('note_on', channel=9, note=46, velocity=0, time=4),
    Message('note_on', channel=9, note=36, velocity=0, time=13),
    Message('note_on', channel=4, note=59, velocity=0, time=67),
    Message('note_on', channel=3, note=59, velocity=0, time=0),
    Message('note_on', channel=4, note=64, velocity=0, time=10),
    Message('note_on', channel=3, note=64, velocity=0, time=0),
    Message('note_on', channel=4, note=68, velocity=0, time=6),
    Message('note_on', channel=3, note=68, velocity=0, time=0),
    Message('note_on', channel=1, note=40, velocity=0, time=39),
    Message('note_on', channel=1, note=39, velocity=124, time=69),
    Message('note_on', channel=2, note=64, velocity=127, time=0),
    Message('note_on', channel=2, note=59, velocity=127, time=0),
    Message('note_on', channel=3, note=47, velocity=116, time=0),
    Message('note_on', channel=3, note=40, velocity=98, time=0),
    Message('note_on', channel=4, note=47, velocity=116, time=0),
    Message('note_on', channel=4, note=40, velocity=98, time=0),
    Message('note_on', channel=9, note=54, velocity=127, time=0),
    Message('note_on', channel=9, note=38, velocity=122, time=0),
    Message('note_on', channel=9, note=42, velocity=124, time=10),
    Message('note_on', channel=4, note=47, velocity=0, time=15),
    Message('note_on', channel=3, note=47, velocity=0, time=0),
    Message('note_on', channel=4, note=40, velocity=0, time=1),
    Message('note_on', channel=3, note=40, velocity=0, time=0),
    Message('note_on', channel=9, note=54, velocity=0, time=10),
    Message('note_on', channel=9, note=38, velocity=0, time=11),
    Message('note_on', channel=9, note=42, velocity=0, time=6),
    Message('note_on', channel=9, note=64, velocity=101, time=67),
    Message('note_on', channel=9, note=64, velocity=0, time=39),
    Message('note_on', channel=1, note=39, velocity=0, time=47),
    Message('note_on', channel=1, note=37, velocity=119, time=34),
    Message('note_on', channel=0, note=56, velocity=124, time=0),
    Message('note_on', channel=3, note=59, velocity=96, time=0),
    Message('note_on', channel=3, note=64, velocity=103, time=0),
    Message('note_on', channel=3, note=68, velocity=112, time=0),
    Message('note_on', channel=4, note=64, velocity=103, time=0),
    Message('note_on', channel=4, note=59, velocity=96, time=0),
    Message('note_on', channel=4, note=68, velocity=112, time=0),
    Message('note_on', channel=9, note=38, velocity=101, time=0),
    Message('note_on', channel=9, note=63, velocity=122, time=0),
    Message('note_on', channel=9, note=42, velocity=77, time=10),
    Message('note_on', channel=9, note=38, velocity=0, time=18),
    Message('note_on', channel=9, note=42, velocity=0, time=10),
    Message('note_on', channel=9, note=63, velocity=0, time=0),
    Message('note_on', channel=0, note=56, velocity=0, time=4),
    Message('note_on', channel=0, note=56, velocity=114, time=78),
    Message('note_on', channel=9, note=38, velocity=122, time=0),
    Message('note_on', channel=9, note=63, velocity=122, time=0),
    Message('note_on', channel=4, note=59, velocity=0, time=5),
    Message('note_on', channel=3, note=59, velocity=0, time=0),
    Message('note_on', channel=4, note=64, velocity=0, time=1),
    Message('note_on', channel=3, note=64, velocity=0, time=0),
    Message('note_on', channel=3, note=68, velocity=0, time=9),
    Message('note_on', channel=4, note=68, velocity=0, time=0),
    Message('note_on', channel=9, note=38, velocity=0, time=21),
    Message('note_on', channel=2, note=52, velocity=0, time=0),
    Message('note_on', channel=9, note=63, velocity=0, time=3),
    Message('note_on', channel=2, note=64, velocity=0, time=4),
    Message('note_on', channel=0, note=56, velocity=0, time=2),
    Message('note_on', channel=2, note=59, velocity=0, time=6),
    Message('note_on', channel=2, note=56, velocity=0, time=13),
    Message('note_on', channel=1, note=37, velocity=0, time=56),
    Message('note_on', channel=1, note=35, velocity=127, time=0),
    Message('note_on', channel=2, note=47, velocity=127, time=0),
    Message('note_on', channel=0, note=59, velocity=119, time=0),
    Message('note_on', channel=3, note=47, velocity=98, time=0),
    Message('note_on', channel=4, note=47, velocity=98, time=0),
    Message('note_on', channel=9, note=64, velocity=94, time=0),
    Message('note_on', channel=9, note=42, velocity=124, time=10),
    Message('note_on', channel=9, note=36, velocity=124, time=0),
    Message('note_on', channel=9, note=42, velocity=0, time=44),
    Message('note_on', channel=9, note=64, velocity=0, time=6),
    Message('note_on', channel=9, note=36, velocity=0, time=16),
    Message('note_on', channel=0, note=59, velocity=0, time=33),
    Message('note_on', channel=1, note=35, velocity=0, time=17),
    Message('note_on', channel=4, note=47, velocity=0, time=42),
    Message('note_on', channel=3, note=47, velocity=0, time=0),
    Message('note_on', channel=1, note=35, velocity=127, time=72),
    Message('note_on', channel=2, note=54, velocity=127, time=0),
    Message('note_on', channel=0, note=59, velocity=114, time=0),
    Message('note_on', channel=3, note=59, velocity=101, time=0),
    Message('note_on', channel=3, note=71, velocity=89, time=0),
    Message('note_on', channel=3, note=63, velocity=101, time=0),
    Message('note_on', channel=3, note=66, velocity=105, time=0),
    Message('note_on', channel=4, note=66, velocity=105, time=0),
    Message('note_on', channel=4, note=59, velocity=101, time=0),
    Message('note_on', channel=4, note=63, velocity=101, time=0),
    Message('note_on', channel=4, note=71, velocity=89, time=0),
    Message('note_on', channel=9, note=63, velocity=119, time=0),
    Message('note_on', channel=9, note=42, velocity=89, time=10),
    Message('note_on', channel=9, note=36, velocity=122, time=0),
    Message('note_on', channel=9, note=63, velocity=0, time=27),
    Message('note_on', channel=9, note=42, velocity=0, time=9),
    Message('note_on', channel=9, note=36, velocity=0, time=23),
    Message('note_on', channel=3, note=59, velocity=0, time=26),
    Message('note_on', channel=4, note=59, velocity=0, time=0),
    Message('note_on', channel=3, note=66, velocity=0, time=5),
    Message('note_on', channel=4, note=66, velocity=0, time=0),
    Message('note_on', channel=4, note=63, velocity=0, time=6),
    Message('note_on', channel=3, note=63, velocity=0, time=0),
    Message('note_on', channel=0, note=59, velocity=0, time=7),
    Message('note_on', channel=4, note=71, velocity=0, time=3),
    Message('note_on', channel=3, note=71, velocity=0, time=0),
    Message('note_on', channel=1, note=35, velocity=0, time=32),
    Message('note_on', channel=2, note=59, velocity=127, time=92),
    Message('note_on', channel=2, note=63, velocity=127, time=0),
    Message('note_on', channel=0, note=59, velocity=116, time=0),
    Message('note_on', channel=3, note=47, velocity=82, time=0),
    Message('note_on', channel=3, note=54, velocity=112, time=0),
    Message('note_on', channel=4, note=47, velocity=82, time=0),
    Message('note_on', channel=4, note=54, velocity=112, time=0),
    Message('note_on', channel=9, note=38, velocity=124, time=0),
    Message('note_on', channel=9, note=54, velocity=127, time=0),
    Message('note_on', channel=4, note=54, velocity=0, time=7),
    Message('note_on', channel=3, note=54, velocity=0, time=0),
    Message('note_on', channel=4, note=47, velocity=0, time=1),
    Message('note_on', channel=3, note=47, velocity=0, time=0),
    Message('note_on', channel=9, note=42, velocity=119, time=2),
    Message('note_on', channel=9, note=54, velocity=0, time=25),
    Message('note_on', channel=9, note=38, velocity=0, time=15),
    Message('note_on', channel=9, note=42, velocity=0, time=11),
    Message('note_on', channel=9, note=64, velocity=101, time=59),
    Message('note_on', channel=0, note=59, velocity=0, time=3),
    Message('note_on', channel=9, note=64, velocity=0, time=46),
    Message('note_on', channel=1, note=35, velocity=116, time=71),
    Message('note_on', channel=0, note=59, velocity=116, time=0),
    Message('note_on', channel=3, note=59, velocity=103, time=0),
    Message('note_on', channel=3, note=66, velocity=112, time=0),
    Message('note_on', channel=3, note=71, velocity=93, time=0),
    Message('note_on', channel=3, note=63, velocity=109, time=0),
    Message('note_on', channel=4, note=71, velocity=93, time=0),
    Message('note_on', channel=4, note=66, velocity=112, time=0),
    Message('note_on', channel=4, note=63, velocity=109, time=0),
    Message('note_on', channel=4, note=59, velocity=103, time=0),
    Message('note_on', channel=9, note=63, velocity=122, time=0),
    Message('note_on', channel=9, note=42, velocity=89, time=10),
    Message('note_on', channel=9, note=63, velocity=0, time=32),
    Message('note_on', channel=1, note=35, velocity=0, time=3),
    Message('note_on', channel=9, note=42, velocity=0, time=3),
    Message('note_on', channel=1, note=35, velocity=119, time=72),
    Message('note_on', channel=9, note=38, velocity=122, time=0),
    Message('note_on', channel=9, note=63, velocity=114, time=0),
    Message('note_on', channel=3, note=66, velocity=0, time=10),
    Message('note_on', channel=4, note=66, velocity=0, time=0),
    Message('note_on', channel=9, note=42, velocity=96, time=0),
    Message('note_on', channel=3, note=59, velocity=0, time=6),
    Message('note_on', channel=4, note=59, velocity=0, time=0),
    Message('note_on', channel=3, note=63, velocity=0, time=2),
    Message('note_on', channel=4, note=63, velocity=0, time=0),
    Message('note_on', channel=0, note=59, velocity=0, time=10),
    Message('note_on', channel=3, note=71, velocity=0, time=3),
    Message('note_on', channel=4, note=71, velocity=0, time=0),
    Message('note_on', channel=9, note=63, velocity=0, time=5),
    Message('note_on', channel=9, note=38, velocity=0, time=1),
    Message('note_on', channel=9, note=42, velocity=0, time=7),
    Message('note_on', channel=1, note=35, velocity=0, time=16),
    Message('note_on', channel=2, note=63, velocity=0, time=8),
    Message('note_on', channel=2, note=59, velocity=0, time=10),
    Message('note_on', channel=2, note=54, velocity=0, time=14),
    Message('note_on', channel=2, note=47, velocity=0, time=11),
    Message('note_on', channel=1, note=39, velocity=122, time=17),
    Message('note_on', channel=2, note=51, velocity=127, time=0),
    Message('note_on', channel=0, note=58, velocity=124, time=0),
    Message('note_on', channel=3, note=51, velocity=116, time=0),
    Message('note_on', channel=4, note=51, velocity=116, time=0),
    Message('note_on', channel=9, note=64, velocity=93, time=0),
    Message('note_on', channel=9, note=36, velocity=114, time=10),
    Message('note_on', channel=9, note=42, velocity=103, time=0),
    Message('note_on', channel=9, note=64, velocity=0, time=30),
    Message('note_on', channel=9, note=42, velocity=0, time=5),
    Message('note_on', channel=9, note=36, velocity=0, time=20),
    Message('note_on', channel=1, note=39, velocity=0, time=51),
    Message('note_on', channel=9, note=38, velocity=109, time=4),
    Message('note_on', channel=9, note=42, velocity=89, time=10),
    Message('note_on', channel=3, note=51, velocity=0, time=16),
    Message('note_on', channel=4, note=51, velocity=0, time=0),
    Message('note_on', channel=0, note=58, velocity=0, time=9),
    Message('note_on', channel=9, note=42, velocity=0, time=10),
    Message('note_on', channel=9, note=38, velocity=0, time=3),
    Message('note_on', channel=1, note=39, velocity=122, time=72),
    Message('note_on', channel=2, note=67, velocity=127, time=0),
    Message('note_on', channel=2, note=58, velocity=127, time=0),
    Message('note_on', channel=2, note=55, velocity=127, time=0),
    Message('note_on', channel=2, note=63, velocity=127, time=0),
    Message('note_on', channel=0, note=56, velocity=124, time=0),
    Message('note_on', channel=3, note=67, velocity=98, time=0),
    Message('note_on', channel=3, note=63, velocity=114, time=0),
    Message('note_on', channel=3, note=58, velocity=96, time=0),
    Message('note_on', channel=4, note=67, velocity=98, time=0),
    Message('note_on', channel=4, note=63, velocity=114, time=0),
    Message('note_on', channel=4, note=58, velocity=96, time=0),
    Message('note_on', channel=9, note=63, velocity=122, time=0),
    Message('note_on', channel=9, note=36, velocity=116, time=10),
    Message('note_on', channel=9, note=42, velocity=82, time=0),
    Message('note_on', channel=9, note=63, velocity=0, time=22),
    Message('note_on', channel=9, note=42, velocity=0, time=11),
    Message('note_on', channel=9, note=36, velocity=0, time=11),
    Message('note_on', channel=3, note=67, velocity=0, time=71),
    Message('note_on', channel=4, note=67, velocity=0, time=0),
    Message('note_on', channel=3, note=58, velocity=0, time=8),
    Message('note_on', channel=4, note=58, velocity=0, time=0),
    Message('note_on', channel=3, note=63, velocity=0, time=3),
    Message('note_on', channel=4, note=63, velocity=0, time=0),
    Message('note_on', channel=1, note=39, velocity=0, time=19),
    Message('note_on', channel=0, note=56, velocity=0, time=10),
    Message('note_on', channel=2, note=55, velocity=0, time=4),
    Message('note_on', channel=2, note=55, velocity=127, time=71),
    Message('note_on', channel=0, note=58, velocity=119, time=0),
    Message('note_on', channel=9, note=54, velocity=127, time=0),
    Message('note_on', channel=9, note=38, velocity=122, time=0),
    Message('note_on', channel=9, note=42, velocity=119, time=10),
    Message('note_on', channel=2, note=58, velocity=0, time=17),
    Message('note_on', channel=2, note=67, velocity=0, time=2),
    Message('note_on', channel=2, note=63, velocity=0, time=3),
    Message('note_on', channel=9, note=54, velocity=0, time=4),
    Message('note_on', channel=9, note=38, velocity=0, time=11),
    Message('note_on', channel=9, note=42, velocity=0, time=3),
    Message('note_on', channel=9, note=64, velocity=101, time=70),
    Message('note_on', channel=0, note=58, velocity=0, time=18),
    Message('note_on', channel=9, note=64, velocity=0, time=21),
    Message('note_on', channel=1, note=39, velocity=116, time=81),
    Message('note_on', channel=2, note=63, velocity=127, time=0),
    Message('note_on', channel=2, note=58, velocity=127, time=0),
    Message('note_on', channel=2, note=67, velocity=127, time=0),
    Message('note_on', channel=0, note=59, velocity=109, time=0),
    Message('note_on', channel=3, note=67, velocity=103, time=0),
    Message('note_on', channel=3, note=58, velocity=109, time=0),
    Message('note_on', channel=3, note=63, velocity=116, time=0),
    Message('note_on', channel=4, note=58, velocity=109, time=0),
    Message('note_on', channel=4, note=67, velocity=103, time=0),
    Message('note_on', channel=4, note=63, velocity=116, time=0),
    Message('note_on', channel=9, note=63, velocity=122, time=0),
    Message('note_on', channel=9, note=42, velocity=91, time=10),
    Message('note_on', channel=9, note=63, velocity=0, time=28),
    Message('note_on', channel=9, note=42, velocity=0, time=8),
    Message('note_on', channel=1, note=39, velocity=0, time=42),
    Message('note_on', channel=1, note=35, velocity=112, time=32),
    Message('note_on', channel=9, note=63, velocity=122, time=0),
    Message('note_on', channel=9, note=38, velocity=122, time=0),
    Message('note_on', channel=9, note=42, velocity=107, time=10),
    Message('note_on', channel=3, note=63, velocity=0, time=4),
    Message('note_on', channel=4, note=63, velocity=0, time=0),
    Message('note_on', channel=4, note=58, velocity=0, time=1),
    Message('note_on', channel=3, note=58, velocity=0, time=0),
    Message('note_on', channel=3, note=67, velocity=0, time=1),
    Message('note_on', channel=4, note=67, velocity=0, time=0),
    Message('note_on', channel=9, note=38, velocity=0, time=16),
    Message('note_on', channel=9, note=63, velocity=0, time=7),
    Message('note_on', channel=9, note=42, velocity=0, time=10),
    Message('note_on', channel=2, note=58, velocity=0, time=45),
    Message('note_on', channel=2, note=63, velocity=0, time=10),
    Message('note_on', channel=2, note=67, velocity=0, time=1),
    Message('note_on', channel=2, note=55, velocity=0, time=9),
    Message('note_on', channel=2, note=51, velocity=0, time=1),
    Message('note_on', channel=1, note=40, velocity=127, time=5),
    Message('note_on', channel=2, note=52, velocity=127, time=0),
    Message('note_on', channel=3, note=52, velocity=122, time=0),
    Message('note_on', channel=4, note=52, velocity=122, time=0),
    Message('note_on', channel=9, note=64, velocity=94, time=0),
    Message('note_on', channel=1, note=35, velocity=0, time=2),
    Message('note_on', channel=9, note=36, velocity=122, time=8),
    Message('note_on', channel=9, note=42, velocity=114, time=0),
    Message('note_on', channel=9, note=42, velocity=0, time=45),
    Message('note_on', channel=9, note=64, velocity=0, time=5),
    Message('note_on', channel=9, note=36, velocity=0, time=5),
    Message('note_on', channel=0, note=59, velocity=0, time=31),
    Message('note_on', channel=1, note=40, velocity=0, time=20),
    Message('note_on', channel=0, note=56, velocity=112, time=4),
    Message('note_on', channel=0, note=56, velocity=0, time=53),
    Message('note_on', channel=4, note=52, velocity=0, time=49),
    Message('note_on', channel=3, note=52, velocity=0, time=0),
    Message('note_on', channel=1, note=40, velocity=124, time=18),
    Message('note_on', channel=2, note=64, velocity=127, time=0),
    Message('note_on', channel=2, note=56, velocity=127, time=0),
    Message('note_on', channel=2, note=68, velocity=127, time=0),
    Message('note_on', channel=2, note=59, velocity=127, time=0),
    Message('note_on', channel=0, note=52, velocity=114, time=0),
    Message('note_on', channel=3, note=68, velocity=114, time=0),
    Message('note_on', channel=3, note=59, velocity=101, time=0),
    Message('note_on', channel=3, note=64, velocity=107, time=0),
    Message('note_on', channel=4, note=64, velocity=107, time=0),
    Message('note_on', channel=4, note=68, velocity=114, time=0),
    Message('note_on', channel=4, note=59, velocity=101, time=0),
    Message('note_on', channel=9, note=63, velocity=119, time=0),
    Message('note_on', channel=9, note=36, velocity=116, time=10),
    Message('note_on', channel=9, note=42, velocity=77, time=0),
    Message('note_on', channel=9, note=63, velocity=0, time=27),
    Message('note_on', channel=9, note=42, velocity=0, time=17),
    Message('note_on', channel=9, note=36, velocity=0, time=1),
    Message('note_on', channel=3, note=68, velocity=0, time=71),
    Message('note_on', channel=4, note=68, velocity=0, time=0),
    Message('note_on', channel=3, note=59, velocity=0, time=2),
    Message('note_on', channel=4, note=59, velocity=0, time=0),
    Message('note_on', channel=4, note=64, velocity=0, time=3),
    Message('note_on', channel=3, note=64, velocity=0, time=0),
    Message('note_on', channel=1, note=40, velocity=0, time=5),
    Message('note_on', channel=2, note=59, velocity=0, time=7),
    Message('note_on', channel=2, note=68, velocity=0, time=5),
    Message('note_on', channel=2, note=64, velocity=0, time=0),
    Message('note_on', channel=2, note=56, velocity=0, time=42),
    Message('note_on', channel=1, note=44, velocity=119, time=50),
    Message('note_on', channel=2, note=56, velocity=127, time=0),
    Message('note_on', channel=3, note=59, velocity=105, time=0),
    Message('note_on', channel=3, note=52, velocity=103, time=0),
    Message('note_on', channel=4, note=52, velocity=103, time=0),
    Message('note_on', channel=4, note=59, velocity=105, time=0),
    Message('note_on', channel=9, note=38, velocity=116, time=0),
    Message('note_on', channel=9, note=54, velocity=127, time=0),
    Message('note_on', channel=4, note=52, velocity=0, time=8),
    Message('note_on', channel=3, note=52, velocity=0, time=0),
    Message('note_on', channel=4, note=59, velocity=0, time=2),
    Message('note_on', channel=3, note=59, velocity=0, time=0),
    Message('note_on', channel=9, note=42, velocity=119, time=0),
    Message('note_on', channel=9, note=54, velocity=0, time=30),
    Message('note_on', channel=9, note=38, velocity=0, time=7),
    Message('note_on', channel=9, note=42, velocity=0, time=4),
    Message('note_on', channel=1, note=44, velocity=0, time=150),
    Message('note_on', channel=1, note=47, velocity=116, time=39),
    Message('note_on', channel=2, note=59, velocity=104, time=0),
    Message('note_on', channel=2, note=68, velocity=127, time=0),
    Message('note_on', channel=2, note=64, velocity=115, time=0),
    Message('note_on', channel=3, note=68, velocity=112, time=0),
    Message('note_on', channel=3, note=59, velocity=91, time=0),
    Message('note_on', channel=3, note=64, velocity=101, time=0),
    Message('note_on', channel=4, note=68, velocity=112, time=0),
    Message('note_on', channel=4, note=64, velocity=101, time=0),
    Message('note_on', channel=4, note=59, velocity=91, time=0),
    Message('note_on', channel=9, note=60, velocity=116, time=0),
    Message('note_on', channel=9, note=42, velocity=93, time=10),
    Message('note_on', channel=9, note=60, velocity=0, time=23),
    Message('note_on', channel=2, note=59, velocity=0, time=5),
    Message('note_on', channel=2, note=64, velocity=0, time=7),
    Message('note_on', channel=9, note=42, velocity=0, time=2),
    Message('note_on', channel=2, note=68, velocity=0, time=2),
    Message('note_on', channel=0, note=52, velocity=0, time=25),
    Message('note_on', channel=9, note=60, velocity=109, time=6),
    Message('note_on', channel=9, note=60, velocity=0, time=35),
    Message('note_on', channel=9, note=38, velocity=116, time=5),
    Message('note_on', channel=3, note=64, velocity=0, time=7),
    Message('note_on', channel=4, note=64, velocity=0, time=0),
    Message('note_on', channel=3, note=59, velocity=0, time=2),
    Message('note_on', channel=4, note=59, velocity=0, time=0),
    Message('note_on', channel=9, note=42, velocity=98, time=1),
    Message('note_on', channel=3, note=68, velocity=0, time=3),
    Message('note_on', channel=4, note=68, velocity=0, time=0),
    Message('note_on', channel=1, note=47, velocity=0, time=20),
    Message('note_on', channel=9, note=60, velocity=107, time=7),
    Message('note_on', channel=9, note=42, velocity=0, time=8),
    Message('note_on', channel=9, note=38, velocity=0, time=1),
    Message('note_on', channel=9, note=60, velocity=0, time=25),
    Message('note_on', channel=1, note=40, velocity=127, time=46),
    Message('note_on', channel=2, note=59, velocity=127, time=0),
    Message('note_on', channel=2, note=68, velocity=127, time=0),
    Message('note_on', channel=2, note=64, velocity=127, time=0),
    Message('note_on', channel=0, note=59, velocity=124, time=0),
    Message('note_on', channel=0, note=68, velocity=127, time=0),
    Message('note_on', channel=3, note=68, velocity=109, time=0),
    Message('note_on', channel=3, note=59, velocity=94, time=0),
    Message('note_on', channel=3, note=64, velocity=98, time=0),
    Message('note_on', channel=4, note=68, velocity=109, time=0),
    Message('note_on', channel=4, note=64, velocity=98, time=0),
    Message('note_on', channel=4, note=59, velocity=94, time=0),
    Message('note_on', channel=9, note=64, velocity=114, time=0),
    Message('note_on', channel=9, note=42, velocity=116, time=10),
    Message('note_on', channel=9, note=36, velocity=107, time=0),
    Message('note_on', channel=9, note=36, velocity=0, time=31),
    Message('note_on', channel=9, note=42, velocity=0, time=7),
    Message('note_on', channel=9, note=64, velocity=0, time=1),
    Message('note_on', channel=0, note=59, velocity=0, time=60),
    Message('note_on', channel=3, note=59, velocity=0, time=7),
    Message('note_on', channel=4, note=59, velocity=0, time=0),
    Message('note_on', channel=3, note=64, velocity=0, time=10),
    Message('note_on', channel=4, note=64, velocity=0, time=0),
    Message('note_on', channel=3, note=68, velocity=0, time=6),
    Message('note_on', channel=4, note=68, velocity=0, time=0),
    Message('note_on', channel=2, note=59, velocity=0, time=16),
    Message('note_on', channel=2, note=64, velocity=0, time=5),
    Message('note_on', channel=0, note=68, velocity=0, time=6),
    Message('note_on', channel=2, note=68, velocity=0, time=0),
    Message('note_on', channel=2, note=56, velocity=0, time=12),
    Message('note_on', channel=1, note=40, velocity=0, time=10),
    Message('note_on', channel=2, note=52, velocity=0, time=0),
    Message('note_on', channel=0, note=66, velocity=124, time=59),
    Message('note_on', channel=0, note=59, velocity=116, time=0),
    Message('note_on', channel=0, note=66, velocity=0, time=153),
    Message('note_on', channel=0, note=59, velocity=0, time=12),
    Message('note_on', channel=0, note=56, velocity=124, time=75),
    Message('note_on', channel=0, note=64, velocity=109, time=0),
    Message('note_on', channel=0, note=56, velocity=0, time=175),
    Message('note_on', channel=0, note=54, velocity=122, time=65),
    Message('note_on', channel=0, note=63, velocity=114, time=0),
    Message('note_on', channel=0, note=64, velocity=0, time=15),
    Message('note_on', channel=1, note=35, velocity=127, time=225),
    Message('note_on', channel=2, note=35, velocity=127, time=0),
    Message('note_on', channel=2, note=47, velocity=127, time=0),
    Message('note_on', channel=3, note=47, velocity=98, time=0),
    Message('note_on', channel=4, note=47, velocity=98, time=0),
    Message('note_on', channel=9, note=57, velocity=127, time=0),
    Message('note_on', channel=9, note=64, velocity=94, time=0),
    Message('note_on', channel=9, note=36, velocity=124, time=10),
    Message('note_on', channel=9, note=42, velocity=124, time=0),
    Message('note_on', channel=9, note=42, velocity=0, time=44),
    Message('note_on', channel=9, note=64, velocity=0, time=6),
    Message('note_on', channel=9, note=57, velocity=0, time=0),
    Message('note_on', channel=9, note=36, velocity=0, time=16),
    Message('note_on', channel=1, note=35, velocity=0, time=67),
    Message('note_on', channel=0, note=63, velocity=0, time=21),
    Message('note_on', channel=3, note=47, velocity=0, time=4),
    Message('note_on', channel=4, note=47, velocity=0, time=0),
    Message('note_on', channel=2, note=35, velocity=0, time=17),
    Message('note_on', channel=0, note=54, velocity=0, time=45),
    Message('note_on', channel=1, note=35, velocity=124, time=10),
    Message('note_on', channel=2, note=59, velocity=127, time=0),
    Message('note_on', channel=2, note=54, velocity=127, time=0),
    Message('note_on', channel=2, note=63, velocity=127, time=0),
    Message('note_on', channel=0, note=68, velocity=124, time=0),
    Message('note_on', channel=3, note=59, velocity=101, time=0),
    Message('note_on', channel=3, note=71, velocity=89, time=0),
    Message('note_on', channel=3, note=63, velocity=101, time=0),
    Message('note_on', channel=3, note=66, velocity=105, time=0),
    Message('note_on', channel=4, note=71, velocity=89, time=0),
    Message('note_on', channel=4, note=59, velocity=101, time=0),
    Message('note_on', channel=4, note=66, velocity=105, time=0),
    Message('note_on', channel=4, note=63, velocity=101, time=0),
    Message('note_on', channel=9, note=63, velocity=119, time=0),
    Message('note_on', channel=9, note=42, velocity=89, time=10),
    Message('note_on', channel=9, note=36, velocity=122, time=0),
    Message('note_on', channel=9, note=63, velocity=0, time=27),
    Message('note_on', channel=2, note=47, velocity=0, time=4),
    Message('note_on', channel=9, note=42, velocity=0, time=5),
    Message('note_on', channel=2, note=54, velocity=0, time=10),
    Message('note_on', channel=2, note=59, velocity=0, time=5),
    Message('note_on', channel=9, note=36, velocity=0, time=8),
    Message('note_on', channel=2, note=63, velocity=0, time=0),
    Message('note_on', channel=4, note=59, velocity=0, time=26),
    Message('note_on', channel=3, note=59, velocity=0, time=0),
    Message('note_on', channel=3, note=66, velocity=0, time=5),
    Message('note_on', channel=4, note=66, velocity=0, time=0),
    Message('note_on', channel=3, note=63, velocity=0, time=6),
    Message('note_on', channel=4, note=63, velocity=0, time=0),
    Message('note_on', channel=3, note=71, velocity=0, time=10),
    Message('note_on', channel=4, note=71, velocity=0, time=0),
    Message('note_on', channel=0, note=68, velocity=0, time=11),
    Message('note_on', channel=1, note=35, velocity=0, time=33),
    Message('note_on', channel=2, note=63, velocity=127, time=80),
    Message('note_on', channel=2, note=59, velocity=127, time=0),
    Message('note_on', channel=0, note=66, velocity=122, time=0),
    Message('note_on', channel=3, note=47, velocity=82, time=0),
    Message('note_on', channel=3, note=54, velocity=112, time=0),
    Message('note_on', channel=4, note=54, velocity=112, time=0),
    Message('note_on', channel=4, note=47, velocity=82, time=0),
    Message('note_on', channel=9, note=38, velocity=124, time=0),
    Message('note_on', channel=9, note=54, velocity=127, time=0),
    Message('note_on', channel=4, note=54, velocity=0, time=7),
    Message('note_on', channel=3, note=54, velocity=0, time=0),
    Message('note_on', channel=3, note=47, velocity=0, time=1),
    Message('note_on', channel=4, note=47, velocity=0, time=0),
    Message('note_on', channel=9, note=42, velocity=119, time=2),
    Message('note_on', channel=9, note=54, velocity=0, time=25),
    Message('note_on', channel=9, note=38, velocity=0, time=15),
    Message('note_on', channel=9, note=42, velocity=0, time=11),
    Message('note_on', channel=9, note=64, velocity=101, time=59),
    Message('note_on', channel=9, note=64, velocity=0, time=49),
    Message('note_on', channel=0, note=66, velocity=0, time=70),
    Message('note_on', channel=2, note=66, velocity=127, time=1),
    Message('note_on', channel=0, note=63, velocity=122, time=0),
    Message('note_on', channel=3, note=66, velocity=112, time=0),
    Message('note_on', channel=3, note=63, velocity=109, time=0),
    Message('note_on', channel=3, note=59, velocity=103, time=0),
    Message('note_on', channel=3, note=71, velocity=93, time=0),
    Message('note_on', channel=4, note=66, velocity=112, time=0),
    Message('note_on', channel=4, note=59, velocity=103, time=0),
    Message('note_on', channel=4, note=71, velocity=93, time=0),
    Message('note_on', channel=4, note=63, velocity=109, time=0),
    Message('note_on', channel=9, note=63, velocity=122, time=0),
    Message('note_on', channel=9, note=42, velocity=89, time=10),
    Message('note_on', channel=2, note=63, velocity=0, time=9),
    Message('note_on', channel=9, note=63, velocity=0, time=23),
    Message('note_on', channel=9, note=42, velocity=0, time=6),
    Message('note_on', channel=1, note=35, velocity=119, time=72),
    Message('note_on', channel=9, note=38, velocity=122, time=0),
    Message('note_on', channel=9, note=63, velocity=114, time=0),
    Message('note_on', channel=0, note=63, velocity=0, time=9),
    Message('note_on', channel=4, note=66, velocity=0, time=1),
    Message('note_on', channel=3, note=66, velocity=0, time=0),
    Message('note_on', channel=9, note=42, velocity=96, time=0),
    Message('note_on', channel=4, note=59, velocity=0, time=6),
    Message('note_on', channel=3, note=59, velocity=0, time=0),
    Message('note_on', channel=4, note=63, velocity=0, time=2),
    Message('note_on', channel=3, note=63, velocity=0, time=0),
    Message('note_on', channel=2, note=66, velocity=0, time=9),
    Message('note_on', channel=3, note=71, velocity=0, time=4),
    Message('note_on', channel=4, note=71, velocity=0, time=0),
    Message('note_on', channel=9, note=63, velocity=0, time=5),
    Message('note_on', channel=9, note=38, velocity=0, time=1),
    Message('note_on', channel=9, note=42, velocity=0, time=7),
    Message('note_on', channel=1, note=35, velocity=0, time=2),
    Message('note_on', channel=2, note=59, velocity=0, time=5),
    Message('note_on', channel=1, note=42, velocity=127, time=69),
    Message('note_on', channel=2, note=42, velocity=127, time=0),
    Message('note_on', channel=2, note=42, velocity=127, time=0),
    Message('note_on', channel=3, note=54, velocity=112, time=0),
    Message('note_on', channel=4, note=54, velocity=112, time=0),
    Message('note_on', channel=9, note=64, velocity=93, time=0),
    Message('note_on', channel=9, note=42, velocity=103, time=10),
    Message('note_on', channel=9, note=36, velocity=114, time=0),
    Message('note_on', channel=9, note=64, velocity=0, time=30),
    Message('note_on', channel=9, note=42, velocity=0, time=5),
    Message('note_on', channel=9, note=36, velocity=0, time=20),
    Message('note_on', channel=1, note=42, velocity=0, time=44),
    Message('note_on', channel=9, note=38, velocity=109, time=11),
    Message('note_on', channel=9, note=42, velocity=89, time=10),
    Message('note_on', channel=9, note=42, velocity=0, time=35),
    Message('note_on', channel=9, note=38, velocity=0, time=3),
    Message('note_on', channel=2, note=42, velocity=0, time=4),
    Message('note_on', channel=3, note=54, velocity=0, time=36),
    Message('note_on', channel=4, note=54, velocity=0, time=0),
    Message('note_on', channel=1, note=42, velocity=124, time=32),
    Message('note_on', channel=2, note=58, velocity=127, time=0),
    Message('note_on', channel=2, note=54, velocity=127, time=0),
    Message('note_on', channel=2, note=61, velocity=127, time=0),
    Message('note_on', channel=0, note=68, velocity=127, time=0),
    Message('note_on', channel=3, note=66, velocity=105, time=0),
    Message('note_on', channel=3, note=70, velocity=109, time=0),
    Message('note_on', channel=3, note=61, velocity=94, time=0),
    Message('note_on', channel=4, note=66, velocity=105, time=0),
    Message('note_on', channel=4, note=70, velocity=109, time=0),
    Message('note_on', channel=4, note=61, velocity=94, time=0),
    Message('note_on', channel=9, note=63, velocity=122, time=0),
    Message('note_on', channel=9, note=42, velocity=82, time=10),
    Message('note_on', channel=9, note=36, velocity=116, time=0),
    Message('note_on', channel=2, note=42, velocity=0, time=13),
    Message('note_on', channel=9, note=63, velocity=0, time=9),
    Message('note_on', channel=9, note=42, velocity=0, time=11),
    Message('note_on', channel=2, note=58, velocity=0, time=3),
    Message('note_on', channel=2, note=54, velocity=0, time=4),
    Message('note_on', channel=2, note=61, velocity=0, time=3),
    Message('note_on', channel=9, note=36, velocity=0, time=1),
    Message('note_on', channel=3, note=70, velocity=0, time=28),
    Message('note_on', channel=4, note=70, velocity=0, time=0),
    Message('note_on', channel=3, note=61, velocity=0, time=2),
    Message('note_on', channel=4, note=61, velocity=0, time=0),
    Message('note_on', channel=3, note=66, velocity=0, time=14),
    Message('note_on', channel=4, note=66, velocity=0, time=0),
    Message('note_on', channel=0, note=68, velocity=0, time=33),
    Message('note_on', channel=1, note=42, velocity=0, time=34),
    Message('note_on', channel=2, note=54, velocity=127, time=75),
    Message('note_on', channel=2, note=58, velocity=127, time=0),
    Message('note_on', channel=0, note=66, velocity=119, time=0),
    Message('note_on', channel=3, note=42, velocity=105, time=0),
    Message('note_on', channel=3, note=49, velocity=114, time=0),
    Message('note_on', channel=4, note=42, velocity=105, time=0),
    Message('note_on', channel=4, note=49, velocity=114, time=0),
    Message('note_on', channel=9, note=54, velocity=127, time=0),
    Message('note_on', channel=9, note=38, velocity=122, time=0),
    Message('note_on', channel=4, note=42, velocity=0, time=7),
    Message('note_on', channel=3, note=42, velocity=0, time=0),
    Message('note_on', channel=3, note=49, velocity=0, time=1),
    Message('note_on', channel=4, note=49, velocity=0, time=0),
    Message('note_on', channel=9, note=42, velocity=119, time=2),
    Message('note_on', channel=9, note=54, velocity=0, time=26),
    Message('note_on', channel=9, note=38, velocity=0, time=11),
    Message('note_on', channel=9, note=42, velocity=0, time=3),
    Message('note_on', channel=9, note=64, velocity=101, time=70),
    Message('note_on', channel=9, note=64, velocity=0, time=39),
    Message('note_on', channel=0, note=66, velocity=0, time=61),
    Message('note_on', channel=1, note=42, velocity=114, time=20),
    Message('note_on', channel=2, note=61, velocity=127, time=0),
    Message('note_on', channel=0, note=63, velocity=127, time=0),
    Message('note_on', channel=3, note=66, velocity=93, time=0),
    Message('note_on', channel=3, note=61, velocity=98, time=0),
    Message('note_on', channel=3, note=70, velocity=105, time=0),
    Message('note_on', channel=4, note=66, velocity=93, time=0),
    Message('note_on', channel=4, note=70, velocity=105, time=0),
    Message('note_on', channel=4, note=61, velocity=98, time=0),
    Message('note_on', channel=9, note=63, velocity=122, time=0),
    Message('note_on', channel=9, note=42, velocity=91, time=10),
    Message('note_on', channel=9, note=63, velocity=0, time=28),
    Message('note_on', channel=1, note=42, velocity=0, time=7),
    Message('note_on', channel=9, note=42, velocity=0, time=1),
    Message('note_on', channel=4, note=70, velocity=0, time=56),
    Message('note_on', channel=3, note=70, velocity=0, time=0),
    Message('note_on', channel=4, note=61, velocity=0, time=6),
    Message('note_on', channel=3, note=61, velocity=0, time=0),
    Message('note_on', channel=4, note=66, velocity=0, time=8),
    Message('note_on', channel=3, note=66, velocity=0, time=0),
    Message('note_on', channel=1, note=42, velocity=112, time=4),
    Message('note_on', channel=9, note=38, velocity=122, time=0),
    Message('note_on', channel=9, note=63, velocity=122, time=0),
    Message('note_on', channel=2, note=58, velocity=0, time=10),
    Message('note_on', channel=9, note=42, velocity=107, time=0),
    Message('note_on', channel=2, note=54, velocity=0, time=2),
    Message('note_on', channel=9, note=38, velocity=0, time=20),
    Message('note_on', channel=9, note=63, velocity=0, time=7),
    Message('note_on', channel=2, note=61, velocity=0, time=0),
    Message('note_on', channel=0, note=63, velocity=0, time=9),
    Message('note_on', channel=9, note=42, velocity=0, time=1),
    Message('note_on', channel=1, note=42, velocity=0, time=28),
    Message('note_on', channel=1, note=40, velocity=116, time=43),
    Message('note_on', channel=2, note=52, velocity=127, time=0),
    Message('note_on', channel=2, note=40, velocity=127, time=0),
    Message('note_on', channel=0, note=64, velocity=109, time=0),
    Message('note_on', channel=3, note=52, velocity=122, time=0),
    Message('note_on', channel=4, note=52, velocity=122, time=0),
    Message('note_on', channel=9, note=64, velocity=94, time=0),
    Message('note_on', channel=9, note=42, velocity=114, time=10),
    Message('note_on', channel=9, note=36, velocity=122, time=0),
    Message('note_on', channel=9, note=42, velocity=0, time=45),
    Message('note_on', channel=9, note=64, velocity=0, time=5),
    Message('note_on', channel=9, note=36, velocity=0, time=5),
    Message('note_on', channel=1, note=40, velocity=0, time=62),
    Message('note_on', channel=2, note=40, velocity=0, time=48),
    Message('note_on', channel=3, note=52, velocity=0, time=47),
    Message('note_on', channel=4, note=52, velocity=0, time=0),
    Message('note_on', channel=2, note=52, velocity=0, time=10),
    Message('note_on', channel=1, note=40, velocity=124, time=8),
    Message('note_on', channel=2, note=56, velocity=127, time=0),
    Message('note_on', channel=2, note=59, velocity=127, time=0),
    Message('note_on', channel=0, note=63, velocity=122, time=0),
    Message('note_on', channel=3, note=68, velocity=114, time=0),
    Message('note_on', channel=3, note=59, velocity=101, time=0),
    Message('note_on', channel=3, note=64, velocity=107, time=0),
    Message('note_on', channel=4, note=68, velocity=114, time=0),
    Message('note_on', channel=4, note=59, velocity=101, time=0),
    Message('note_on', channel=4, note=64, velocity=107, time=0),
    Message('note_on', channel=9, note=63, velocity=119, time=0),
    Message('note_on', channel=0, note=64, velocity=0, time=10),
    Message('note_on', channel=9, note=42, velocity=77, time=0),
    Message('note_on', channel=9, note=36, velocity=116, time=0),
    Message('note_on', channel=9, note=63, velocity=0, time=27),
    Message('note_on', channel=9, note=42, velocity=0, time=17),
    Message('note_on', channel=9, note=36, velocity=0, time=1),
    Message('note_on', channel=2, note=56, velocity=0, time=17),
    Message('note_on', channel=2, note=59, velocity=0, time=5),
    Message('note_on', channel=4, note=68, velocity=0, time=49),
    Message('note_on', channel=3, note=68, velocity=0, time=0),
    Message('note_on', channel=4, note=59, velocity=0, time=2),
    Message('note_on', channel=3, note=59, velocity=0, time=0),
    Message('note_on', channel=3, note=64, velocity=0, time=3),
    Message('note_on', channel=4, note=64, velocity=0, time=0),
    Message('note_on', channel=0, note=63, velocity=0, time=46),
    Message('note_on', channel=1, note=40, velocity=0, time=12),
    Message('note_on', channel=2, note=56, velocity=127, time=51),
    Message('note_on', channel=2, note=52, velocity=127, time=0),
    Message('note_on', channel=0, note=59, velocity=114, time=0),
    Message('note_on', channel=3, note=59, velocity=105, time=0),
    Message('note_on', channel=3, note=52, velocity=103, time=0),
    Message('note_on', channel=4, note=59, velocity=105, time=0),
    Message('note_on', channel=4, note=52, velocity=103, time=0),
    Message('note_on', channel=9, note=38, velocity=116, time=0),
    Message('note_on', channel=9, note=54, velocity=127, time=0),
    Message('note_on', channel=4, note=52, velocity=0, time=8),
    Message('note_on', channel=3, note=52, velocity=0, time=0),
    Message('note_on', channel=3, note=59, velocity=0, time=2),
    Message('note_on', channel=4, note=59, velocity=0, time=0),
    Message('note_on', channel=9, note=42, velocity=119, time=0),
    Message('note_on', channel=9, note=54, velocity=0, time=25),
    Message('note_on', channel=9, note=38, velocity=0, time=12),
    Message('note_on', channel=9, note=42, velocity=0, time=4),
    Message('note_on', channel=9, note=64, velocity=101, time=69),
    Message('note_on', channel=9, note=64, velocity=0, time=49),
    Message('note_on', channel=2, note=59, velocity=127, time=71),
    Message('note_on', channel=3, note=68, velocity=112, time=0),
    Message('note_on', channel=3, note=64, velocity=101, time=0),
    Message('note_on', channel=3, note=59, velocity=91, time=0),
    Message('note_on', channel=4, note=64, velocity=101, time=0),
    Message('note_on', channel=4, note=68, velocity=112, time=0),
    Message('note_on', channel=4, note=59, velocity=91, time=0),
    Message('note_on', channel=9, note=63, velocity=122, time=0),
    Message('note_on', channel=9, note=42, velocity=93, time=10),
    Message('note_on', channel=9, note=63, velocity=0, time=32),
    Message('note_on', channel=9, note=42, velocity=0, time=5),
    Message('note_on', channel=1, note=35, velocity=116, time=73),
    Message('note_on', channel=9, note=38, velocity=116, time=0),
    Message('note_on', channel=9, note=63, velocity=114, time=0),
    Message('note_on', channel=2, note=56, velocity=0, time=4),
    Message('note_on', channel=2, note=52, velocity=0, time=1),
    Message('note_on', channel=4, note=64, velocity=0, time=2),
    Message('note_on', channel=3, note=64, velocity=0, time=0),
    Message('note_on', channel=4, note=59, velocity=0, time=2),
    Message('note_on', channel=3, note=59, velocity=0, time=0),
    Message('note_on', channel=9, note=42, velocity=98, time=1),
    Message('note_on', channel=4, note=68, velocity=0, time=3),
    Message('note_on', channel=3, note=68, velocity=0, time=0),
    Message('note_on', channel=2, note=59, velocity=0, time=22),
    Message('note_on', channel=9, note=63, velocity=0, time=1),
    Message('note_on', channel=9, note=42, velocity=0, time=12),
    Message('note_on', channel=9, note=38, velocity=0, time=1),
    Message('note_on', channel=1, note=35, velocity=0, time=14),
    Message('note_on', channel=1, note=40, velocity=116, time=57),
    Message('note_on', channel=2, note=40, velocity=127, time=0),
    Message('note_on', channel=2, note=52, velocity=127, time=0),
    Message('note_on', channel=9, note=64, velocity=93, time=0),
    Message('note_on', channel=0, note=59, velocity=0, time=6),
    Message('note_on', channel=9, note=36, velocity=107, time=4),
    Message('note_on', channel=9, note=42, velocity=116, time=0),
    Message('note_on', channel=9, note=64, velocity=0, time=30),
    Message('note_on', channel=9, note=36, velocity=0, time=1),
    Message('note_on', channel=9, note=42, velocity=0, time=7),
    Message('note_on', channel=9, note=38, velocity=122, time=72),
    Message('note_on', channel=2, note=40, velocity=0, time=8),
    Message('note_on', channel=9, note=42, velocity=97, time=2),
    Message('note_on', channel=1, note=40, velocity=0, time=18),
    Message('note_on', channel=9, note=38, velocity=0, time=11),
    Message('note_on', channel=9, note=42, velocity=0, time=6),
    Message('note_on', channel=1, note=40, velocity=109, time=75),
    Message('note_on', channel=2, note=56, velocity=127, time=0),
    Message('note_on', channel=2, note=59, velocity=127, time=0),
    Message('note_on', channel=3, note=59, velocity=94, time=0),
    Message('note_on', channel=3, note=68, velocity=109, time=0),
    Message('note_on', channel=3, note=64, velocity=98, time=0),
    Message('note_on', channel=4, note=64, velocity=98, time=0),
    Message('note_on', channel=4, note=59, velocity=94, time=0),
    Message('note_on', channel=4, note=68, velocity=109, time=0),
    Message('note_on', channel=9, note=46, velocity=87, time=0),
    Message('note_on', channel=9, note=63, velocity=122, time=0),
    Message('note_on', channel=9, note=36, velocity=124, time=10),
    Message('note_on', channel=9, note=63, velocity=0, time=22),
    Message('note_on', channel=9, note=46, velocity=0, time=4),
    Message('note_on', channel=9, note=36, velocity=0, time=13),
    Message('note_on', channel=2, note=56, velocity=0, time=23),
    Message('note_on', channel=2, note=59, velocity=0, time=2),
    Message('note_on', channel=2, note=52, velocity=0, time=9),
    Message('note_on', channel=4, note=59, velocity=0, time=33),
    Message('note_on', channel=3, note=59, velocity=0, time=0),
    Message('note_on', channel=4, note=64, velocity=0, time=10),
    Message('note_on', channel=3, note=64, velocity=0, time=0),
    Message('note_on', channel=4, note=68, velocity=0, time=6),
    Message('note_on', channel=3, note=68, velocity=0, time=0),
    Message('note_on', channel=1, note=40, velocity=0, time=43),
    Message('note_on', channel=1, note=39, velocity=116, time=65),
    Message('note_on', channel=2, note=51, velocity=127, time=0),
    Message('note_on', channel=2, note=39, velocity=127, time=0),
    Message('note_on', channel=3, note=47, velocity=116, time=0),
    Message('note_on', channel=3, note=40, velocity=98, time=0),
    Message('note_on', channel=4, note=40, velocity=98, time=0),
    Message('note_on', channel=4, note=47, velocity=116, time=0),
    Message('note_on', channel=9, note=54, velocity=127, time=0),
    Message('note_on', channel=9, note=38, velocity=122, time=0),
    Message('note_on', channel=9, note=42, velocity=124, time=10),
    Message('note_on', channel=4, note=47, velocity=0, time=15),
    Message('note_on', channel=3, note=47, velocity=0, time=0),
    Message('note_on', channel=3, note=40, velocity=0, time=1),
    Message('note_on', channel=4, note=40, velocity=0, time=0),
    Message('note_on', channel=9, note=54, velocity=0, time=10),
    Message('note_on', channel=9, note=38, velocity=0, time=11),
    Message('note_on', channel=9, note=42, velocity=0, time=6),
    Message('note_on', channel=9, note=64, velocity=101, time=67),
    Message('note_on', channel=9, note=64, velocity=0, time=39),
    Message('note_on', channel=1, note=39, velocity=0, time=14),
    Message('note_on', channel=2, note=39, velocity=0, time=53),
    Message('note_on', channel=2, note=51, velocity=0, time=9),
    Message('note_on', channel=1, note=37, velocity=114, time=5),
    Message('note_on', channel=2, note=64, velocity=127, time=0),
    Message('note_on', channel=2, note=59, velocity=127, time=0),
    Message('note_on', channel=2, note=49, velocity=127, time=0),
    Message('note_on', channel=2, note=37, velocity=127, time=0),
    Message('note_on', channel=2, note=56, velocity=127, time=0),
    Message('note_on', channel=3, note=64, velocity=103, time=0),
    Message('note_on', channel=3, note=68, velocity=112, time=0),
    Message('note_on', channel=3, note=59, velocity=96, time=0),
    Message('note_on', channel=4, note=68, velocity=112, time=0),
    Message('note_on', channel=4, note=59, velocity=96, time=0),
    Message('note_on', channel=4, note=64, velocity=103, time=0),
    Message('note_on', channel=9, note=38, velocity=101, time=0),
    Message('note_on', channel=9, note=63, velocity=122, time=0),
    Message('note_on', channel=9, note=42, velocity=77, time=10),
    Message('note_on', channel=9, note=38, velocity=0, time=18),
    Message('note_on', channel=9, note=42, velocity=0, time=10),
    Message('note_on', channel=9, note=63, velocity=0, time=0),
    Message('note_on', channel=2, note=49, velocity=0, time=50),
    Message('note_on', channel=9, note=38, velocity=122, time=32),
    Message('note_on', channel=9, note=63, velocity=122, time=0),
    Message('note_on', channel=2, note=56, velocity=0, time=3),
    Message('note_on', channel=4, note=59, velocity=0, time=2),
    Message('note_on', channel=3, note=59, velocity=0, time=0),
    Message('note_on', channel=2, note=59, velocity=0, time=1),
    Message('note_on', channel=4, note=64, velocity=0, time=0),
    Message('note_on', channel=3, note=64, velocity=0, time=0),
    Message('note_on', channel=2, note=64, velocity=0, time=6),
    Message('note_on', channel=3, note=68, velocity=0, time=3),
    Message('note_on', channel=4, note=68, velocity=0, time=0),
    Message('note_on', channel=9, note=38, velocity=0, time=21),
    Message('note_on', channel=9, note=63, velocity=0, time=3),
    Message('note_on', channel=2, note=37, velocity=0, time=37),
    Message('note_on', channel=1, note=37, velocity=0, time=19),
    Message('note_on', channel=1, note=35, velocity=127, time=25),
    Message('note_on', channel=2, note=35, velocity=127, time=0),
    Message('note_on', channel=2, note=47, velocity=127, time=0),
    Message('note_on', channel=3, note=47, velocity=98, time=0),
    Message('note_on', channel=4, note=47, velocity=98, time=0),
    Message('note_on', channel=9, note=64, velocity=94, time=0),
    Message('note_on', channel=9, note=42, velocity=124, time=10),
    Message('note_on', channel=9, note=36, velocity=124, time=0),
    Message('note_on', channel=9, note=42, velocity=0, time=44),
    Message('note_on', channel=9, note=64, velocity=0, time=6),
    Message('note_on', channel=9, note=36, velocity=0, time=16),
    Message('note_on', channel=1, note=35, velocity=0, time=67),
    Message('note_on', channel=3, note=47, velocity=0, time=25),
    Message('note_on', channel=4, note=47, velocity=0, time=0),
    Message('note_on', channel=2, note=35, velocity=0, time=17),
    Message('note_on', channel=1, note=35, velocity=124, time=55),
    Message('note_on', channel=2, note=59, velocity=127, time=0),
    Message('note_on', channel=2, note=63, velocity=127, time=0),
    Message('note_on', channel=2, note=54, velocity=127, time=0),
    Message('note_on', channel=0, note=68, velocity=124, time=0),
    Message('note_on', channel=0, note=71, velocity=107, time=0),
    Message('note_on', channel=3, note=59, velocity=101, time=0),
    Message('note_on', channel=3, note=71, velocity=89, time=0),
    Message('note_on', channel=3, note=63, velocity=101, time=0),
    Message('note_on', channel=3, note=66, velocity=105, time=0),
    Message('note_on', channel=4, note=63, velocity=101, time=0),
    Message('note_on', channel=4, note=59, velocity=101, time=0),
    Message('note_on', channel=4, note=66, velocity=105, time=0),
    Message('note_on', channel=4, note=71, velocity=89, time=0),
    Message('note_on', channel=9, note=63, velocity=119, time=0),
    Message('note_on', channel=9, note=42, velocity=89, time=10),
    Message('note_on', channel=9, note=36, velocity=122, time=0),
    Message('note_on', channel=9, note=63, velocity=0, time=27),
    Message('note_on', channel=2, note=47, velocity=0, time=4),
    Message('note_on', channel=9, note=42, velocity=0, time=5),
    Message('note_on', channel=2, note=54, velocity=0, time=10),
    Message('note_on', channel=2, note=59, velocity=0, time=5),
    Message('note_on', channel=9, note=36, velocity=0, time=8),
    Message('note_on', channel=2, note=63, velocity=0, time=0),
    Message('note_on', channel=3, note=59, velocity=0, time=26),
    Message('note_on', channel=4, note=59, velocity=0, time=0),
    Message('note_on', channel=3, note=66, velocity=0, time=5),
    Message('note_on', channel=4, note=66, velocity=0, time=0),
    Message('note_on', channel=3, note=63, velocity=0, time=6),
    Message('note_on', channel=4, note=63, velocity=0, time=0),
    Message('note_on', channel=4, note=71, velocity=0, time=10),
    Message('note_on', channel=3, note=71, velocity=0, time=0),
    Message('note_on', channel=0, note=68, velocity=0, time=11),
    Message('note_on', channel=0, note=71, velocity=0, time=17),
    Message('note_on', channel=1, note=35, velocity=0, time=16),
    Message('note_on', channel=2, note=63, velocity=127, time=80),
    Message('note_on', channel=2, note=59, velocity=127, time=0),
    Message('note_on', channel=0, note=70, velocity=116, time=0),
    Message('note_on', channel=0, note=66, velocity=122, time=0),
    Message('note_on', channel=3, note=47, velocity=82, time=0),
    Message('note_on', channel=3, note=54, velocity=112, time=0),
    Message('note_on', channel=4, note=54, velocity=112, time=0),
    Message('note_on', channel=4, note=47, velocity=82, time=0),
    Message('note_on', channel=9, note=38, velocity=124, time=0),
    Message('note_on', channel=9, note=54, velocity=127, time=0),
    Message('note_on', channel=4, note=54, velocity=0, time=7),
    Message('note_on', channel=3, note=54, velocity=0, time=0),
    Message('note_on', channel=4, note=47, velocity=0, time=1),
    Message('note_on', channel=3, note=47, velocity=0, time=0),
    Message('note_on', channel=9, note=42, velocity=119, time=2),
    Message('note_on', channel=9, note=54, velocity=0, time=25),
    Message('note_on', channel=9, note=38, velocity=0, time=15),
    Message('note_on', channel=9, note=42, velocity=0, time=11),
    Message('note_on', channel=9, note=64, velocity=101, time=59),
    Message('note_on', channel=9, note=64, velocity=0, time=49),
    Message('note_on', channel=0, note=66, velocity=0, time=70),
    Message('note_on', channel=2, note=66, velocity=127, time=1),
    Message('note_on', channel=0, note=66, velocity=116, time=0),
    Message('note_on', channel=0, note=63, velocity=122, time=0),
    Message('note_on', channel=3, note=66, velocity=112, time=0),
    Message('note_on', channel=3, note=63, velocity=109, time=0),
    Message('note_on', channel=3, note=59, velocity=103, time=0),
    Message('note_on', channel=3, note=71, velocity=93, time=0),
    Message('note_on', channel=4, note=66, velocity=112, time=0),
    Message('note_on', channel=4, note=71, velocity=93, time=0),
    Message('note_on', channel=4, note=63, velocity=109, time=0),
    Message('note_on', channel=4, note=59, velocity=103, time=0),
    Message('note_on', channel=9, note=63, velocity=122, time=0),
    Message('note_on', channel=9, note=42, velocity=89, time=10),
    Message('note_on', channel=0, note=70, velocity=0, time=3),
    Message('note_on', channel=2, note=63, velocity=0, time=6),
    Message('note_on', channel=9, note=63, velocity=0, time=23),
    Message('note_on', channel=9, note=42, velocity=0, time=6),
    Message('note_on', channel=1, note=35, velocity=119, time=72),
    Message('note_on', channel=9, note=63, velocity=114, time=0),
    Message('note_on', channel=9, note=38, velocity=122, time=0),
    Message('note_on', channel=0, note=66, velocity=0, time=6),
    Message('note_on', channel=0, note=63, velocity=0, time=3),
    Message('note_on', channel=4, note=66, velocity=0, time=1),
    Message('note_on', channel=3, note=66, velocity=0, time=0),
    Message('note_on', channel=9, note=42, velocity=96, time=0),
    Message('note_on', channel=4, note=59, velocity=0, time=6),
    Message('note_on', channel=3, note=59, velocity=0, time=0),
    Message('note_on', channel=3, note=63, velocity=0, time=2),
    Message('note_on', channel=4, note=63, velocity=0, time=0),
    Message('note_on', channel=2, note=66, velocity=0, time=9),
    Message('note_on', channel=3, note=71, velocity=0, time=4),
    Message('note_on', channel=4, note=71, velocity=0, time=0),
    Message('note_on', channel=9, note=63, velocity=0, time=5),
    Message('note_on', channel=9, note=38, velocity=0, time=1),
    Message('note_on', channel=9, note=42, velocity=0, time=7),
    Message('note_on', channel=1, note=35, velocity=0, time=2),
    Message('note_on', channel=2, note=59, velocity=0, time=5),
    Message('note_on', channel=1, note=42, velocity=127, time=69),
    Message('note_on', channel=2, note=42, velocity=127, time=0),
    Message('note_on', channel=2, note=42, velocity=127, time=0),
    Message('note_on', channel=3, note=54, velocity=112, time=0),
    Message('note_on', channel=4, note=54, velocity=112, time=0),
    Message('note_on', channel=9, note=64, velocity=93, time=0),
    Message('note_on', channel=9, note=42, velocity=103, time=10),
    Message('note_on', channel=9, note=36, velocity=114, time=0),
    Message('note_on', channel=9, note=64, velocity=0, time=30),
    Message('note_on', channel=9, note=42, velocity=0, time=5),
    Message('note_on', channel=9, note=36, velocity=0, time=20),
    Message('note_on', channel=1, note=42, velocity=0, time=44),
    Message('note_on', channel=9, note=38, velocity=109, time=11),
    Message('note_on', channel=9, note=42, velocity=89, time=10),
    Message('note_on', channel=9, note=42, velocity=0, time=35),
    Message('note_on', channel=9, note=38, velocity=0, time=3),
    Message('note_on', channel=2, note=42, velocity=0, time=4),
    Message('note_on', channel=3, note=54, velocity=0, time=36),
    Message('note_on', channel=4, note=54, velocity=0, time=0),
    Message('note_on', channel=1, note=42, velocity=124, time=32),
    Message('note_on', channel=2, note=58, velocity=127, time=0),
    Message('note_on', channel=2, note=54, velocity=127, time=0),
    Message('note_on', channel=2, note=61, velocity=127, time=0),
    Message('note_on', channel=0, note=71, velocity=119, time=0),
    Message('note_on', channel=0, note=68, velocity=127, time=0),
    Message('note_on', channel=3, note=66, velocity=105, time=0),
    Message('note_on', channel=3, note=70, velocity=109, time=0),
    Message('note_on', channel=3, note=61, velocity=94, time=0),
    Message('note_on', channel=4, note=70, velocity=109, time=0),
    Message('note_on', channel=4, note=66, velocity=105, time=0),
    Message('note_on', channel=4, note=61, velocity=94, time=0),
    Message('note_on', channel=9, note=63, velocity=122, time=0),
    Message('note_on', channel=9, note=42, velocity=82, time=10),
    Message('note_on', channel=9, note=36, velocity=116, time=0),
    Message('note_on', channel=2, note=42, velocity=0, time=13),
    Message('note_on', channel=9, note=63, velocity=0, time=9),
    Message('note_on', channel=9, note=42, velocity=0, time=11),
    Message('note_on', channel=2, note=58, velocity=0, time=3),
    Message('note_on', channel=2, note=54, velocity=0, time=4),
    Message('note_on', channel=2, note=61, velocity=0, time=3),
    Message('note_on', channel=9, note=36, velocity=0, time=1),
    Message('note_on', channel=3, note=70, velocity=0, time=28),
    Message('note_on', channel=4, note=70, velocity=0, time=0),
    Message('note_on', channel=3, note=61, velocity=0, time=2),
    Message('note_on', channel=4, note=61, velocity=0, time=0),
    Message('note_on', channel=3, note=66, velocity=0, time=14),
    Message('note_on', channel=4, note=66, velocity=0, time=0),
    Message('note_on', channel=0, note=68, velocity=0, time=33),
    Message('note_on', channel=0, note=71, velocity=0, time=27),
    Message('note_on', channel=1, note=42, velocity=0, time=7),
    Message('note_on', channel=2, note=58, velocity=127, time=75),
    Message('note_on', channel=2, note=54, velocity=127, time=0),
    Message('note_on', channel=0, note=70, velocity=119, time=0),
    Message('note_on', channel=0, note=66, velocity=119, time=0),
    Message('note_on', channel=3, note=42, velocity=105, time=0),
    Message('note_on', channel=3, note=49, velocity=114, time=0),
    Message('note_on', channel=4, note=42, velocity=105, time=0),
    Message('note_on', channel=4, note=49, velocity=114, time=0),
    Message('note_on', channel=9, note=38, velocity=122, time=0),
    Message('note_on', channel=9, note=54, velocity=127, time=0),
    Message('note_on', channel=4, note=42, velocity=0, time=7),
    Message('note_on', channel=3, note=42, velocity=0, time=0),
    Message('note_on', channel=4, note=49, velocity=0, time=1),
    Message('note_on', channel=3, note=49, velocity=0, time=0),
    Message('note_on', channel=9, note=42, velocity=119, time=2),
    Message('note_on', channel=9, note=54, velocity=0, time=26),
    Message('note_on', channel=9, note=38, velocity=0, time=11),
    Message('note_on', channel=9, note=42, velocity=0, time=3),
    Message('note_on', channel=9, note=64, velocity=101, time=70),
    Message('note_on', channel=9, note=64, velocity=0, time=39),
    Message('note_on', channel=0, note=66, velocity=0, time=61),
    Message('note_on', channel=1, note=42, velocity=114, time=20),
    Message('note_on', channel=2, note=61, velocity=127, time=0),
    Message('note_on', channel=0, note=66, velocity=119, time=0),
    Message('note_on', channel=0, note=63, velocity=127, time=0),
    Message('note_on', channel=3, note=66, velocity=93, time=0),
    Message('note_on', channel=3, note=70, velocity=105, time=0),
    Message('note_on', channel=3, note=61, velocity=98, time=0),
    Message('note_on', channel=4, note=66, velocity=93, time=0),
    Message('note_on', channel=4, note=70, velocity=105, time=0),
    Message('note_on', channel=4, note=61, velocity=98, time=0),
    Message('note_on', channel=9, note=63, velocity=122, time=0),
    Message('note_on', channel=9, note=42, velocity=91, time=10),
    Message('note_on', channel=0, note=70, velocity=0, time=7),
    Message('note_on', channel=9, note=63, velocity=0, time=21),
    Message('note_on', channel=1, note=42, velocity=0, time=7),
    Message('note_on', channel=9, note=42, velocity=0, time=1),
    Message('note_on', channel=3, note=70, velocity=0, time=56),
    Message('note_on', channel=4, note=70, velocity=0, time=0),
    Message('note_on', channel=3, note=61, velocity=0, time=6),
    Message('note_on', channel=4, note=61, velocity=0, time=0),
    Message('note_on', channel=3, note=66, velocity=0, time=8),
    Message('note_on', channel=4, note=66, velocity=0, time=0),
    Message('note_on', channel=1, note=42, velocity=112, time=4),
    Message('note_on', channel=9, note=63, velocity=122, time=0),
    Message('note_on', channel=9, note=38, velocity=122, time=0),
    Message('note_on', channel=2, note=58, velocity=0, time=10),
    Message('note_on', channel=9, note=42, velocity=107, time=0),
    Message('note_on', channel=2, note=54, velocity=0, time=2),
    Message('note_on', channel=9, note=38, velocity=0, time=20),
    Message('note_on', channel=2, note=61, velocity=0, time=7),
    Message('note_on', channel=9, note=63, velocity=0, time=0),
    Message('note_on', channel=0, note=63, velocity=0, time=9),
    Message('note_on', channel=9, note=42, velocity=0, time=1),
    Message('note_on', channel=0, note=66, velocity=0, time=7),
    Message('note_on', channel=1, note=42, velocity=0, time=21),
    Message('note_on', channel=1, note=40, velocity=116, time=43),
    Message('note_on', channel=2, note=52, velocity=127, time=0),
    Message('note_on', channel=2, note=40, velocity=127, time=0),
    Message('note_on', channel=0, note=64, velocity=109, time=0),
    Message('note_on', channel=0, note=68, velocity=127, time=0),
    Message('note_on', channel=3, note=52, velocity=122, time=0),
    Message('note_on', channel=4, note=52, velocity=122, time=0),
    Message('note_on', channel=9, note=64, velocity=94, time=0),
    Message('note_on', channel=9, note=42, velocity=114, time=10),
    Message('note_on', channel=9, note=36, velocity=122, time=0),
    Message('note_on', channel=9, note=42, velocity=0, time=45),
    Message('note_on', channel=9, note=64, velocity=0, time=5),
    Message('note_on', channel=9, note=36, velocity=0, time=5),
    Message('note_on', channel=1, note=40, velocity=0, time=62),
    Message('note_on', channel=2, note=40, velocity=0, time=48),
    Message('note_on', channel=3, note=52, velocity=0, time=47),
    Message('note_on', channel=4, note=52, velocity=0, time=0),
    Message('note_on', channel=2, note=52, velocity=0, time=10),
    Message('note_on', channel=1, note=40, velocity=124, time=8),
    Message('note_on', channel=2, note=56, velocity=127, time=0),
    Message('note_on', channel=2, note=59, velocity=127, time=0),
    Message('note_on', channel=0, note=66, velocity=119, time=0),
    Message('note_on', channel=0, note=63, velocity=122, time=0),
    Message('note_on', channel=3, note=68, velocity=114, time=0),
    Message('note_on', channel=3, note=59, velocity=101, time=0),
    Message('note_on', channel=3, note=64, velocity=107, time=0),
    Message('note_on', channel=4, note=68, velocity=114, time=0),
    Message('note_on', channel=4, note=64, velocity=107, time=0),
    Message('note_on', channel=4, note=59, velocity=101, time=0),
    Message('note_on', channel=9, note=63, velocity=119, time=0),
    Message('note_on', channel=0, note=64, velocity=0, time=10),
    Message('note_on', channel=9, note=42, velocity=77, time=0),
    Message('note_on', channel=9, note=36, velocity=116, time=0),
    Message('note_on', channel=0, note=68, velocity=0, time=6),
    Message('note_on', channel=9, note=63, velocity=0, time=21),
    Message('note_on', channel=9, note=42, velocity=0, time=17),
    Message('note_on', channel=9, note=36, velocity=0, time=1),
    Message('note_on', channel=2, note=56, velocity=0, time=17),
    Message('note_on', channel=2, note=59, velocity=0, time=5),
    Message('note_on', channel=3, note=68, velocity=0, time=49),
    Message('note_on', channel=4, note=68, velocity=0, time=0),
    Message('note_on', channel=3, note=59, velocity=0, time=2),
    Message('note_on', channel=4, note=59, velocity=0, time=0),
    Message('note_on', channel=3, note=64, velocity=0, time=3),
    Message('note_on', channel=4, note=64, velocity=0, time=0),
    Message('note_on', channel=0, note=63, velocity=0, time=46),
    Message('note_on', channel=1, note=40, velocity=0, time=12),
    Message('note_on', channel=0, note=66, velocity=0, time=38),
    Message('note_on', channel=2, note=52, velocity=127, time=13),
    Message('note_on', channel=2, note=56, velocity=127, time=0),
    Message('note_on', channel=0, note=59, velocity=114, time=0),
    Message('note_on', channel=0, note=64, velocity=112, time=0),
    Message('note_on', channel=3, note=59, velocity=105, time=0),
    Message('note_on', channel=3, note=52, velocity=103, time=0),
    Message('note_on', channel=4, note=52, velocity=103, time=0),
    Message('note_on', channel=4, note=59, velocity=105, time=0),
    Message('note_on', channel=9, note=38, velocity=116, time=0),
    Message('note_on', channel=9, note=54, velocity=127, time=0),
    Message('note_on', channel=7, note=84, velocity=101, time=0),
    Message('note_on', channel=4, note=52, velocity=0, time=8),
    Message('note_on', channel=3, note=52, velocity=0, time=0),
    Message('note_on', channel=4, note=59, velocity=0, time=2),
    Message('note_on', channel=3, note=59, velocity=0, time=0),
    Message('note_on', channel=9, note=42, velocity=119, time=0),
    Message('note_on', channel=9, note=54, velocity=0, time=25),
    Message('note_on', channel=9, note=38, velocity=0, time=12),
    Message('note_on', channel=9, note=42, velocity=0, time=4),
    Message('note_on', channel=9, note=64, velocity=101, time=69),
    Message('note_on', channel=9, note=64, velocity=0, time=49),
    Message('note_on', channel=2, note=59, velocity=127, time=71),
    Message('note_on', channel=3, note=68, velocity=112, time=0),
    Message('note_on', channel=3, note=64, velocity=101, time=0),
    Message('note_on', channel=3, note=59, velocity=91, time=0),
    Message('note_on', channel=4, note=68, velocity=112, time=0),
    Message('note_on', channel=4, note=59, velocity=91, time=0),
    Message('note_on', channel=4, note=64, velocity=101, time=0),
    Message('note_on', channel=9, note=63, velocity=122, time=0),
    Message('note_on', channel=9, note=42, velocity=93, time=10),
    Message('note_on', channel=9, note=63, velocity=0, time=32),
    Message('note_on', channel=9, note=42, velocity=0, time=5),
    Message('note_on', channel=1, note=35, velocity=116, time=73),
    Message('note_on', channel=9, note=63, velocity=114, time=0),
    Message('note_on', channel=9, note=38, velocity=116, time=0),
    Message('note_on', channel=2, note=56, velocity=0, time=4),
    Message('note_on', channel=2, note=52, velocity=0, time=1),
    Message('note_on', channel=3, note=64, velocity=0, time=2),
    Message('note_on', channel=4, note=64, velocity=0, time=0),
    Message('note_on', channel=3, note=59, velocity=0, time=2),
    Message('note_on', channel=4, note=59, velocity=0, time=0),
    Message('note_on', channel=9, note=42, velocity=98, time=1),
    Message('note_on', channel=4, note=68, velocity=0, time=3),
    Message('note_on', channel=3, note=68, velocity=0, time=0),
    Message('note_on', channel=2, note=59, velocity=0, time=22),
    Message('note_on', channel=9, note=63, velocity=0, time=1),
    Message('note_on', channel=9, note=42, velocity=0, time=12),
    Message('note_on', channel=9, note=38, velocity=0, time=1),
    Message('note_on', channel=1, note=35, velocity=0, time=14),
    Message('note_on', channel=0, note=64, velocity=0, time=39),
    Message('note_on', channel=1, note=40, velocity=116, time=18),
    Message('note_on', channel=2, note=52, velocity=127, time=0),
    Message('note_on', channel=2, note=40, velocity=127, time=0),
    Message('note_on', channel=9, note=64, velocity=93, time=0),
    Message('note_on', channel=0, note=59, velocity=0, time=6),
    Message('note_on', channel=9, note=36, velocity=107, time=4),
    Message('note_on', channel=9, note=42, velocity=116, time=0),
    Message('note_on', channel=9, note=64, velocity=0, time=30),
    Message('note_on', channel=9, note=36, velocity=0, time=1),
    Message('note_on', channel=9, note=42, velocity=0, time=7),
    Message('note_on', channel=9, note=38, velocity=122, time=72),
    Message('note_on', channel=2, note=40, velocity=0, time=8),
    Message('note_on', channel=9, note=42, velocity=97, time=2),
    Message('note_on', channel=1, note=40, velocity=0, time=18),
    Message('note_on', channel=9, note=38, velocity=0, time=11),
    Message('note_on', channel=9, note=42, velocity=0, time=6),
    Message('note_on', channel=1, note=40, velocity=109, time=75),
    Message('note_on', channel=2, note=56, velocity=127, time=0),
    Message('note_on', channel=2, note=59, velocity=127, time=0),
    Message('note_on', channel=3, note=59, velocity=94, time=0),
    Message('note_on', channel=3, note=68, velocity=109, time=0),
    Message('note_on', channel=3, note=64, velocity=98, time=0),
    Message('note_on', channel=4, note=68, velocity=109, time=0),
    Message('note_on', channel=4, note=64, velocity=98, time=0),
    Message('note_on', channel=4, note=59, velocity=94, time=0),
    Message('note_on', channel=9, note=46, velocity=87, time=0),
    Message('note_on', channel=9, note=63, velocity=122, time=0),
    Message('note_on', channel=9, note=36, velocity=124, time=10),
    Message('note_on', channel=9, note=63, velocity=0, time=22),
    Message('note_on', channel=9, note=46, velocity=0, time=4),
    Message('note_on', channel=9, note=36, velocity=0, time=13),
    Message('note_on', channel=2, note=56, velocity=0, time=23),
    Message('note_on', channel=2, note=59, velocity=0, time=2),
    Message('note_on', channel=2, note=52, velocity=0, time=9),
    Message('note_on', channel=4, note=59, velocity=0, time=33),
    Message('note_on', channel=3, note=59, velocity=0, time=0),
    Message('note_on', channel=3, note=64, velocity=0, time=10),
    Message('note_on', channel=4, note=64, velocity=0, time=0),
    Message('note_on', channel=4, note=68, velocity=0, time=6),
    Message('note_on', channel=3, note=68, velocity=0, time=0),
    Message('note_on', channel=1, note=40, velocity=0, time=43),
    Message('note_on', channel=1, note=39, velocity=116, time=65),
    Message('note_on', channel=2, note=39, velocity=127, time=0),
    Message('note_on', channel=2, note=51, velocity=127, time=0),
    Message('note_on', channel=3, note=40, velocity=98, time=0),
    Message('note_on', channel=3, note=47, velocity=116, time=0),
    Message('note_on', channel=4, note=47, velocity=116, time=0),
    Message('note_on', channel=4, note=40, velocity=98, time=0),
    Message('note_on', channel=9, note=54, velocity=127, time=0),
    Message('note_on', channel=9, note=38, velocity=122, time=0),
    Message('note_on', channel=9, note=42, velocity=124, time=10),
    Message('note_on', channel=4, note=47, velocity=0, time=15),
    Message('note_on', channel=3, note=47, velocity=0, time=0),
    Message('note_on', channel=4, note=40, velocity=0, time=1),
    Message('note_on', channel=3, note=40, velocity=0, time=0),
    Message('note_on', channel=9, note=54, velocity=0, time=10),
    Message('note_on', channel=9, note=38, velocity=0, time=11),
    Message('note_on', channel=9, note=42, velocity=0, time=6),
    Message('note_on', channel=9, note=64, velocity=101, time=67),
    Message('note_on', channel=9, note=64, velocity=0, time=39),
    Message('note_on', channel=1, note=39, velocity=0, time=14),
    Message('note_on', channel=2, note=39, velocity=0, time=53),
    Message('note_on', channel=2, note=51, velocity=0, time=9),
    Message('note_on', channel=1, note=37, velocity=114, time=5),
    Message('note_on', channel=2, note=59, velocity=127, time=0),
    Message('note_on', channel=2, note=64, velocity=127, time=0),
    Message('note_on', channel=2, note=37, velocity=127, time=0),
    Message('note_on', channel=2, note=49, velocity=127, time=0),
    Message('note_on', channel=2, note=56, velocity=127, time=0),
    Message('note_on', channel=3, note=64, velocity=103, time=0),
    Message('note_on', channel=3, note=59, velocity=96, time=0),
    Message('note_on', channel=3, note=68, velocity=112, time=0),
    Message('note_on', channel=4, note=64, velocity=103, time=0),
    Message('note_on', channel=4, note=59, velocity=96, time=0),
    Message('note_on', channel=4, note=68, velocity=112, time=0),
    Message('note_on', channel=9, note=38, velocity=101, time=0),
    Message('note_on', channel=9, note=63, velocity=122, time=0),
    Message('note_on', channel=9, note=42, velocity=77, time=10),
    Message('note_on', channel=9, note=38, velocity=0, time=18),
    Message('note_on', channel=9, note=42, velocity=0, time=10),
    Message('note_on', channel=9, note=63, velocity=0, time=0),
    Message('note_on', channel=2, note=49, velocity=0, time=50),
    Message('note_on', channel=9, note=38, velocity=122, time=32),
    Message('note_on', channel=9, note=63, velocity=122, time=0),
    Message('note_on', channel=2, note=56, velocity=0, time=3),
    Message('note_on', channel=3, note=59, velocity=0, time=2),
    Message('note_on', channel=4, note=59, velocity=0, time=0),
    Message('note_on', channel=3, note=64, velocity=0, time=1),
    Message('note_on', channel=4, note=64, velocity=0, time=0),
    Message('note_on', channel=2, note=59, velocity=0, time=0),
    Message('note_on', channel=2, note=64, velocity=0, time=6),
    Message('note_on', channel=3, note=68, velocity=0, time=3),
    Message('note_on', channel=4, note=68, velocity=0, time=0),
    Message('note_on', channel=9, note=38, velocity=0, time=21),
    Message('note_on', channel=9, note=63, velocity=0, time=3),
    Message('note_on', channel=7, note=84, velocity=0, time=37),
    Message('note_on', channel=2, note=37, velocity=0, time=0),
    Message('note_on', channel=1, note=37, velocity=0, time=19),
    Message('note_on', channel=3, note=47, velocity=98, time=25),
    Message('note_on', channel=4, note=47, velocity=98, time=0),
    Message('note_on', channel=9, note=64, velocity=94, time=0),
    Message('note_on', channel=9, note=64, velocity=0, time=60),
    Message('note_on', channel=4, note=47, velocity=0, time=108),
    Message('note_on', channel=3, note=47, velocity=0, time=0),
    Message('note_on', channel=3, note=59, velocity=101, time=72),
    Message('note_on', channel=3, note=66, velocity=105, time=0),
    Message('note_on', channel=3, note=71, velocity=89, time=0),
    Message('note_on', channel=3, note=63, velocity=101, time=0),
    Message('note_on', channel=4, note=59, velocity=101, time=0),
    Message('note_on', channel=4, note=71, velocity=89, time=0),
    Message('note_on', channel=4, note=63, velocity=101, time=0),
    Message('note_on', channel=4, note=66, velocity=105, time=0),
    Message('note_on', channel=9, note=63, velocity=119, time=0),
    Message('note_on', channel=9, note=63, velocity=0, time=37),
    Message('note_on', channel=4, note=59, velocity=0, time=58),
    Message('note_on', channel=3, note=59, velocity=0, time=0),
    Message('note_on', channel=4, note=66, velocity=0, time=5),
    Message('note_on', channel=3, note=66, velocity=0, time=0),
    Message('note_on', channel=3, note=63, velocity=0, time=6),
    Message('note_on', channel=4, note=63, velocity=0, time=0),
    Message('note_on', channel=3, note=71, velocity=0, time=10),
    Message('note_on', channel=4, note=71, velocity=0, time=0),
    Message('note_on', channel=3, note=54, velocity=112, time=124),
    Message('note_on', channel=3, note=47, velocity=82, time=0),
    Message('note_on', channel=4, note=47, velocity=82, time=0),
    Message('note_on', channel=4, note=54, velocity=112, time=0),
    Message('note_on', channel=9, note=44, velocity=127, time=0),
    Message('note_on', channel=4, note=54, velocity=0, time=7),
    Message('note_on', channel=3, note=54, velocity=0, time=0),
    Message('note_on', channel=3, note=47, velocity=0, time=1),
    Message('note_on', channel=4, note=47, velocity=0, time=0),
    Message('note_on', channel=9, note=44, velocity=0, time=32),
    Message('note_on', channel=9, note=64, velocity=101, time=80),
    Message('note_on', channel=9, note=64, velocity=0, time=49),
    Message('note_on', channel=3, note=66, velocity=112, time=71),
    Message('note_on', channel=3, note=63, velocity=109, time=0),
    Message('note_on', channel=3, note=59, velocity=103, time=0),
    Message('note_on', channel=3, note=71, velocity=93, time=0),
    Message('note_on', channel=4, note=66, velocity=112, time=0),
    Message('note_on', channel=4, note=71, velocity=93, time=0),
    Message('note_on', channel=4, note=59, velocity=103, time=0),
    Message('note_on', channel=4, note=63, velocity=109, time=0),
    Message('note_on', channel=9, note=63, velocity=122, time=0),
    Message('note_on', channel=9, note=63, velocity=0, time=42),
    Message('note_on', channel=9, note=63, velocity=114, time=78),
    Message('note_on', channel=4, note=66, velocity=0, time=10),
    Message('note_on', channel=3, note=66, velocity=0, time=0),
    Message('note_on', channel=4, note=59, velocity=0, time=6),
    Message('note_on', channel=3, note=59, velocity=0, time=0),
    Message('note_on', channel=4, note=63, velocity=0, time=2),
    Message('note_on', channel=3, note=63, velocity=0, time=0),
    Message('note_on', channel=3, note=71, velocity=0, time=13),
    Message('note_on', channel=4, note=71, velocity=0, time=0),
    Message('note_on', channel=9, note=63, velocity=0, time=5),
    Message('note_on', channel=3, note=54, velocity=112, time=84),
    Message('note_on', channel=4, note=54, velocity=112, time=0),
    Message('note_on', channel=9, note=64, velocity=93, time=0),
    Message('note_on', channel=9, note=64, velocity=0, time=40),
    Message('note_on', channel=4, note=54, velocity=0, time=168),
    Message('note_on', channel=3, note=54, velocity=0, time=0),
    Message('note_on', channel=3, note=66, velocity=105, time=32),
    Message('note_on', channel=3, note=61, velocity=94, time=0),
    Message('note_on', channel=3, note=70, velocity=109, time=0),
    Message('note_on', channel=4, note=70, velocity=109, time=0),
    Message('note_on', channel=4, note=66, velocity=105, time=0),
    Message('note_on', channel=4, note=61, velocity=94, time=0),
    Message('note_on', channel=9, note=63, velocity=122, time=0),
    Message('note_on', channel=9, note=63, velocity=0, time=32),
    Message('note_on', channel=3, note=70, velocity=0, time=50),
    Message('note_on', channel=4, note=70, velocity=0, time=0),
    Message('note_on', channel=4, note=61, velocity=0, time=2),
    Message('note_on', channel=3, note=61, velocity=0, time=0),
    Message('note_on', channel=3, note=66, velocity=0, time=14),
    Message('note_on', channel=4, note=66, velocity=0, time=0),
    Message('note_on', channel=3, note=49, velocity=114, time=142),
    Message('note_on', channel=3, note=42, velocity=105, time=0),
    Message('note_on', channel=4, note=42, velocity=105, time=0),
    Message('note_on', channel=4, note=49, velocity=114, time=0),
    Message('note_on', channel=9, note=44, velocity=127, time=0),
    Message('note_on', channel=4, note=42, velocity=0, time=7),
    Message('note_on', channel=3, note=42, velocity=0, time=0),
    Message('note_on', channel=3, note=49, velocity=0, time=1),
    Message('note_on', channel=4, note=49, velocity=0, time=0),
    Message('note_on', channel=9, note=44, velocity=0, time=29),
    Message('note_on', channel=9, note=64, velocity=101, time=83),
    Message('note_on', channel=9, note=64, velocity=0, time=39),
    Message('note_on', channel=3, note=66, velocity=93, time=81),
    Message('note_on', channel=3, note=61, velocity=98, time=0),
    Message('note_on', channel=3, note=70, velocity=105, time=0),
    Message('note_on', channel=4, note=66, velocity=93, time=0),
    Message('note_on', channel=4, note=70, velocity=105, time=0),
    Message('note_on', channel=4, note=61, velocity=98, time=0),
    Message('note_on', channel=9, note=63, velocity=122, time=0),
    Message('note_on', channel=9, note=63, velocity=0, time=38),
    Message('note_on', channel=3, note=70, velocity=0, time=64),
    Message('note_on', channel=4, note=70, velocity=0, time=0),
    Message('note_on', channel=4, note=61, velocity=0, time=6),
    Message('note_on', channel=3, note=61, velocity=0, time=0),
    Message('note_on', channel=3, note=66, velocity=0, time=8),
    Message('note_on', channel=4, note=66, velocity=0, time=0),
    Message('note_on', channel=9, note=63, velocity=122, time=4),
    Message('note_on', channel=9, note=63, velocity=0, time=39),
    Message('note_on', channel=3, note=52, velocity=122, time=81),
    Message('note_on', channel=4, note=52, velocity=122, time=0),
    Message('note_on', channel=9, note=64, velocity=94, time=0),
    Message('note_on', channel=9, note=64, velocity=0, time=60),
    Message('note_on', channel=4, note=52, velocity=0, time=162),
    Message('note_on', channel=3, note=52, velocity=0, time=0),
    Message('note_on', channel=3, note=68, velocity=114, time=18),
    Message('note_on', channel=3, note=59, velocity=101, time=0),
    Message('note_on', channel=3, note=64, velocity=107, time=0),
    Message('note_on', channel=4, note=68, velocity=114, time=0),
    Message('note_on', channel=4, note=64, velocity=107, time=0),
    Message('note_on', channel=4, note=59, velocity=101, time=0),
    Message('note_on', channel=9, note=63, velocity=119, time=0),
    Message('note_on', channel=9, note=63, velocity=0, time=37),
    Message('note_on', channel=3, note=68, velocity=0, time=89),
    Message('note_on', channel=4, note=68, velocity=0, time=0),
    Message('note_on', channel=4, note=59, velocity=0, time=2),
    Message('note_on', channel=3, note=59, velocity=0, time=0),
    Message('note_on', channel=3, note=64, velocity=0, time=3),
    Message('note_on', channel=4, note=64, velocity=0, time=0),
    Message('note_on', channel=3, note=52, velocity=103, time=109),
    Message('note_on', channel=3, note=59, velocity=105, time=0),
    Message('note_on', channel=4, note=52, velocity=103, time=0),
    Message('note_on', channel=4, note=59, velocity=105, time=0),
    Message('note_on', channel=9, note=44, velocity=127, time=0),
    Message('note_on', channel=4, note=52, velocity=0, time=8),
    Message('note_on', channel=3, note=52, velocity=0, time=0),
    Message('note_on', channel=3, note=59, velocity=0, time=2),
    Message('note_on', channel=4, note=59, velocity=0, time=0),
    Message('note_on', channel=9, note=44, velocity=0, time=25),
    Message('note_on', channel=9, note=64, velocity=101, time=85),
    Message('note_on', channel=9, note=64, velocity=0, time=49),
    Message('note_on', channel=3, note=68, velocity=112, time=71),
    Message('note_on', channel=3, note=64, velocity=101, time=0),
    Message('note_on', channel=3, note=59, velocity=91, time=0),
    Message('note_on', channel=4, note=68, velocity=112, time=0),
    Message('note_on', channel=4, note=59, velocity=91, time=0),
    Message('note_on', channel=4, note=64, velocity=101, time=0),
    Message('note_on', channel=9, note=63, velocity=122, time=0),
    Message('note_on', channel=9, note=63, velocity=0, time=42),
    Message('note_on', channel=9, note=63, velocity=114, time=78),
    Message('note_on', channel=3, note=64, velocity=0, time=7),
    Message('note_on', channel=4, note=64, velocity=0, time=0),
    Message('note_on', channel=4, note=59, velocity=0, time=2),
    Message('note_on', channel=3, note=59, velocity=0, time=0),
    Message('note_on', channel=3, note=68, velocity=0, time=4),
    Message('note_on', channel=4, note=68, velocity=0, time=0),
    Message('note_on', channel=9, note=63, velocity=0, time=23),
    Message('note_on', channel=9, note=64, velocity=93, time=84),
    Message('note_on', channel=9, note=64, velocity=0, time=40),
    Message('note_on', channel=3, note=59, velocity=94, time=200),
    Message('note_on', channel=3, note=68, velocity=109, time=0),
    Message('note_on', channel=3, note=64, velocity=98, time=0),
    Message('note_on', channel=4, note=59, velocity=94, time=0),
    Message('note_on', channel=4, note=68, velocity=109, time=0),
    Message('note_on', channel=4, note=64, velocity=98, time=0),
    Message('note_on', channel=9, note=63, velocity=122, time=0),
    Message('note_on', channel=9, note=63, velocity=0, time=32),
    Message('note_on', channel=3, note=59, velocity=0, time=84),
    Message('note_on', channel=4, note=59, velocity=0, time=0),
    Message('note_on', channel=4, note=64, velocity=0, time=10),
    Message('note_on', channel=3, note=64, velocity=0, time=0),
    Message('note_on', channel=3, note=68, velocity=0, time=6),
    Message('note_on', channel=4, note=68, velocity=0, time=0),
    Message('note_on', channel=3, note=40, velocity=98, time=108),
    Message('note_on', channel=3, note=47, velocity=116, time=0),
    Message('note_on', channel=4, note=47, velocity=116, time=0),
    Message('note_on', channel=4, note=40, velocity=98, time=0),
    Message('note_on', channel=9, note=44, velocity=127, time=0),
    Message('note_on', channel=4, note=47, velocity=0, time=25),
    Message('note_on', channel=3, note=47, velocity=0, time=0),
    Message('note_on', channel=3, note=40, velocity=0, time=1),
    Message('note_on', channel=4, note=40, velocity=0, time=0),
    Message('note_on', channel=9, note=44, velocity=0, time=10),
    Message('note_on', channel=9, note=64, velocity=101, time=84),
    Message('note_on', channel=9, note=64, velocity=0, time=39),
    Message('note_on', channel=3, note=64, velocity=103, time=81),
    Message('note_on', channel=3, note=68, velocity=112, time=0),
    Message('note_on', channel=3, note=59, velocity=96, time=0),
    Message('note_on', channel=4, note=64, velocity=103, time=0),
    Message('note_on', channel=4, note=68, velocity=112, time=0),
    Message('note_on', channel=4, note=59, velocity=96, time=0),
    Message('note_on', channel=9, note=63, velocity=122, time=0),
    Message('note_on', channel=9, note=63, velocity=0, time=38),
    Message('note_on', channel=9, note=63, velocity=122, time=82),
    Message('note_on', channel=3, note=59, velocity=0, time=5),
    Message('note_on', channel=4, note=59, velocity=0, time=0),
    Message('note_on', channel=4, note=64, velocity=0, time=1),
    Message('note_on', channel=3, note=64, velocity=0, time=0),
    Message('note_on', channel=3, note=68, velocity=0, time=9),
    Message('note_on', channel=4, note=68, velocity=0, time=0),
    Message('note_on', channel=9, note=63, velocity=0, time=24),
    Message('note_on', channel=3, note=47, velocity=98, time=81),
    Message('note_on', channel=4, note=47, velocity=98, time=0),
    Message('note_on', channel=9, note=64, velocity=94, time=0),
    Message('note_on', channel=9, note=64, velocity=0, time=60),
    Message('note_on', channel=4, note=47, velocity=0, time=108),
    Message('note_on', channel=3, note=47, velocity=0, time=0),
    Message('note_on', channel=3, note=66, velocity=105, time=72),
    Message('note_on', channel=3, note=59, velocity=101, time=0),
    Message('note_on', channel=3, note=71, velocity=89, time=0),
    Message('note_on', channel=3, note=63, velocity=101, time=0),
    Message('note_on', channel=4, note=59, velocity=101, time=0),
    Message('note_on', channel=4, note=63, velocity=101, time=0),
    Message('note_on', channel=4, note=71, velocity=89, time=0),
    Message('note_on', channel=4, note=66, velocity=105, time=0),
    Message('note_on', channel=9, note=63, velocity=119, time=0),
    Message('note_on', channel=9, note=63, velocity=0, time=37),
    Message('note_on', channel=4, note=59, velocity=0, time=58),
    Message('note_on', channel=3, note=59, velocity=0, time=0),
    Message('note_on', channel=4, note=66, velocity=0, time=5),
    Message('note_on', channel=3, note=66, velocity=0, time=0),
    Message('note_on', channel=3, note=63, velocity=0, time=6),
    Message('note_on', channel=4, note=63, velocity=0, time=0),
    Message('note_on', channel=3, note=71, velocity=0, time=10),
    Message('note_on', channel=4, note=71, velocity=0, time=0),
    Message('note_on', channel=3, note=47, velocity=82, time=124),
    Message('note_on', channel=3, note=54, velocity=112, time=0),
    Message('note_on', channel=4, note=54, velocity=112, time=0),
    Message('note_on', channel=4, note=47, velocity=82, time=0),
    Message('note_on', channel=9, note=44, velocity=127, time=0),
    Message('note_on', channel=4, note=54, velocity=0, time=7),
    Message('note_on', channel=3, note=54, velocity=0, time=0),
    Message('note_on', channel=3, note=47, velocity=0, time=1),
    Message('note_on', channel=4, note=47, velocity=0, time=0),
    Message('note_on', channel=9, note=44, velocity=0, time=32),
    Message('note_on', channel=9, note=64, velocity=101, time=80),
    Message('note_on', channel=9, note=64, velocity=0, time=49),
    Message('note_on', channel=3, note=71, velocity=93, time=71),
    Message('note_on', channel=3, note=66, velocity=112, time=0),
    Message('note_on', channel=3, note=63, velocity=109, time=0),
    Message('note_on', channel=3, note=59, velocity=103, time=0),
    Message('note_on', channel=4, note=59, velocity=103, time=0),
    Message('note_on', channel=4, note=66, velocity=112, time=0),
    Message('note_on', channel=4, note=63, velocity=109, time=0),
    Message('note_on', channel=4, note=71, velocity=93, time=0),
    Message('note_on', channel=9, note=63, velocity=122, time=0),
    Message('note_on', channel=9, note=63, velocity=0, time=42),
    Message('note_on', channel=9, note=63, velocity=114, time=78),
    Message('note_on', channel=4, note=66, velocity=0, time=10),
    Message('note_on', channel=3, note=66, velocity=0, time=0),
    Message('note_on', channel=4, note=59, velocity=0, time=6),
    Message('note_on', channel=3, note=59, velocity=0, time=0),
    Message('note_on', channel=4, note=63, velocity=0, time=2),
    Message('note_on', channel=3, note=63, velocity=0, time=0),
    Message('note_on', channel=4, note=71, velocity=0, time=13),
    Message('note_on', channel=3, note=71, velocity=0, time=0),
    Message('note_on', channel=9, note=63, velocity=0, time=5),
    Message('note_on', channel=3, note=54, velocity=112, time=84),
    Message('note_on', channel=4, note=54, velocity=112, time=0),
    Message('note_on', channel=9, note=64, velocity=93, time=0),
    Message('note_on', channel=9, note=64, velocity=0, time=40),
    Message('note_on', channel=4, note=54, velocity=0, time=168),
    Message('note_on', channel=3, note=54, velocity=0, time=0),
    Message('note_on', channel=3, note=61, velocity=94, time=32),
    Message('note_on', channel=3, note=70, velocity=109, time=0),
    Message('note_on', channel=3, note=66, velocity=105, time=0),
    Message('note_on', channel=4, note=66, velocity=105, time=0),
    Message('note_on', channel=4, note=70, velocity=109, time=0),
    Message('note_on', channel=4, note=61, velocity=94, time=0),
    Message('note_on', channel=9, note=63, velocity=122, time=0),
    Message('note_on', channel=9, note=63, velocity=0, time=32),
    Message('note_on', channel=3, note=70, velocity=0, time=50),
    Message('note_on', channel=4, note=70, velocity=0, time=0),
    Message('note_on', channel=3, note=61, velocity=0, time=2),
    Message('note_on', channel=4, note=61, velocity=0, time=0),
    Message('note_on', channel=3, note=66, velocity=0, time=14),
    Message('note_on', channel=4, note=66, velocity=0, time=0),
    Message('note_on', channel=3, note=42, velocity=105, time=142),
    Message('note_on', channel=3, note=49, velocity=114, time=0),
    Message('note_on', channel=4, note=49, velocity=114, time=0),
    Message('note_on', channel=4, note=42, velocity=105, time=0),
    Message('note_on', channel=9, note=44, velocity=127, time=0),
    Message('note_on', channel=4, note=42, velocity=0, time=7),
    Message('note_on', channel=3, note=42, velocity=0, time=0),
    Message('note_on', channel=3, note=49, velocity=0, time=1),
    Message('note_on', channel=4, note=49, velocity=0, time=0),
    Message('note_on', channel=9, note=44, velocity=0, time=29),
    Message('note_on', channel=9, note=64, velocity=101, time=83),
    Message('note_on', channel=9, note=64, velocity=0, time=39),
    Message('note_on', channel=3, note=66, velocity=93, time=81),
    Message('note_on', channel=3, note=70, velocity=105, time=0),
    Message('note_on', channel=3, note=61, velocity=98, time=0),
    Message('note_on', channel=4, note=61, velocity=98, time=0),
    Message('note_on', channel=4, note=66, velocity=93, time=0),
    Message('note_on', channel=4, note=70, velocity=105, time=0),
    Message('note_on', channel=9, note=63, velocity=122, time=0),
    Message('note_on', channel=9, note=63, velocity=0, time=38),
    Message('note_on', channel=3, note=70, velocity=0, time=64),
    Message('note_on', channel=4, note=70, velocity=0, time=0),
    Message('note_on', channel=4, note=61, velocity=0, time=6),
    Message('note_on', channel=3, note=61, velocity=0, time=0),
    Message('note_on', channel=3, note=66, velocity=0, time=8),
    Message('note_on', channel=4, note=66, velocity=0, time=0),
    Message('note_on', channel=9, note=63, velocity=122, time=4),
    Message('note_on', channel=9, note=63, velocity=0, time=39),
    Message('note_on', channel=3, note=52, velocity=122, time=81),
    Message('note_on', channel=4, note=52, velocity=122, time=0),
    Message('note_on', channel=9, note=64, velocity=94, time=0),
    Message('note_on', channel=9, note=64, velocity=0, time=60),
    Message('note_on', channel=4, note=52, velocity=0, time=162),
    Message('note_on', channel=3, note=52, velocity=0, time=0),
    Message('note_on', channel=0, note=59, velocity=112, time=18),
    Message('note_on', channel=3, note=68, velocity=114, time=0),
    Message('note_on', channel=3, note=64, velocity=107, time=0),
    Message('note_on', channel=3, note=59, velocity=101, time=0),
    Message('note_on', channel=4, note=68, velocity=114, time=0),
    Message('note_on', channel=4, note=59, velocity=101, time=0),
    Message('note_on', channel=4, note=64, velocity=107, time=0),
    Message('note_on', channel=9, note=63, velocity=119, time=0),
    Message('note_on', channel=9, note=63, velocity=0, time=37),
    Message('note_on', channel=0, note=59, velocity=0, time=40),
    Message('note_on', channel=0, note=61, velocity=116, time=43),
    Message('note_on', channel=4, note=68, velocity=0, time=6),
    Message('note_on', channel=3, note=68, velocity=0, time=0),
    Message('note_on', channel=3, note=59, velocity=0, time=2),
    Message('note_on', channel=4, note=59, velocity=0, time=0),
    Message('note_on', channel=3, note=64, velocity=0, time=3),
    Message('note_on', channel=4, note=64, velocity=0, time=0),
    Message('note_on', channel=0, note=61, velocity=0, time=66),
    Message('note_on', channel=0, note=59, velocity=112, time=43),
    Message('note_on', channel=3, note=59, velocity=105, time=0),
    Message('note_on', channel=3, note=52, velocity=103, time=0),
    Message('note_on', channel=4, note=52, velocity=103, time=0),
    Message('note_on', channel=4, note=59, velocity=105, time=0),
    Message('note_on', channel=9, note=44, velocity=127, time=0),
    Message('note_on', channel=4, note=52, velocity=0, time=8),
    Message('note_on', channel=3, note=52, velocity=0, time=0),
    Message('note_on', channel=4, note=59, velocity=0, time=2),
    Message('note_on', channel=3, note=59, velocity=0, time=0),
    Message('note_on', channel=9, note=44, velocity=0, time=25),
    Message('note_on', channel=0, note=59, velocity=0, time=52),
    Message('note_on', channel=0, note=58, velocity=116, time=33),
    Message('note_on', channel=9, note=64, velocity=101, time=0),
    Message('note_on', channel=9, note=64, velocity=0, time=49),
    Message('note_on', channel=0, note=58, velocity=0, time=5),
    Message('note_on', channel=0, note=59, velocity=107, time=66),
    Message('note_on', channel=3, note=59, velocity=91, time=0),
    Message('note_on', channel=3, note=64, velocity=101, time=0),
    Message('note_on', channel=3, note=68, velocity=112, time=0),
    Message('note_on', channel=4, note=68, velocity=112, time=0),
    Message('note_on', channel=4, note=59, velocity=91, time=0),
    Message('note_on', channel=4, note=64, velocity=101, time=0),
    Message('note_on', channel=9, note=63, velocity=122, time=0),
    Message('note_on', channel=9, note=63, velocity=0, time=42),
    Message('note_on', channel=0, note=59, velocity=0, time=34),
    Message('note_on', channel=0, note=56, velocity=122, time=44),
    Message('note_on', channel=9, note=63, velocity=114, time=0),
    Message('note_on', channel=3, note=64, velocity=0, time=7),
    Message('note_on', channel=4, note=64, velocity=0, time=0),
    Message('note_on', channel=3, note=59, velocity=0, time=2),
    Message('note_on', channel=4, note=59, velocity=0, time=0),
    Message('note_on', channel=4, note=68, velocity=0, time=4),
    Message('note_on', channel=3, note=68, velocity=0, time=0),
    Message('note_on', channel=9, note=63, velocity=0, time=23),
    Message('note_on', channel=9, note=64, velocity=93, time=84),
    Message('note_on', channel=9, note=36, velocity=122, time=0),
    Message('note_on', channel=0, note=56, velocity=0, time=27),
    Message('note_on', channel=9, note=64, velocity=0, time=13),
    Message('note_on', channel=9, note=36, velocity=0, time=16),
    Message('note_on', channel=3, note=59, velocity=94, time=184),
    Message('note_on', channel=3, note=64, velocity=98, time=0),
    Message('note_on', channel=3, note=68, velocity=109, time=0),
    Message('note_on', channel=4, note=68, velocity=109, time=0),
    Message('note_on', channel=4, note=59, velocity=94, time=0),
    Message('note_on', channel=4, note=64, velocity=98, time=0),
    Message('note_on', channel=9, note=63, velocity=122, time=0),
    Message('note_on', channel=9, note=36, velocity=122, time=0),
    Message('note_on', channel=9, note=63, velocity=0, time=32),
    Message('note_on', channel=9, note=36, velocity=0, time=14),
    Message('note_on', channel=3, note=59, velocity=0, time=70),
    Message('note_on', channel=4, note=59, velocity=0, time=0),
    Message('note_on', channel=9, note=36, velocity=119, time=4),
    Message('note_on', channel=3, note=64, velocity=0, time=6),
    Message('note_on', channel=4, note=64, velocity=0, time=0),
    Message('note_on', channel=4, note=68, velocity=0, time=6),
    Message('note_on', channel=3, note=68, velocity=0, time=0),
    Message('note_on', channel=9, note=36, velocity=0, time=33),
    Message('note_on', channel=1, note=30, velocity=124, time=71),
    Message('note_on', channel=3, note=40, velocity=98, time=4),
    Message('note_on', channel=3, note=47, velocity=116, time=0),
    Message('note_on', channel=4, note=40, velocity=98, time=0),
    Message('note_on', channel=4, note=47, velocity=116, time=0),
    Message('note_on', channel=9, note=46, velocity=124, time=0),
    Message('note_on', channel=9, note=38, velocity=124, time=0),
    Message('note_on', channel=4, note=47, velocity=0, time=25),
    Message('note_on', channel=3, note=47, velocity=0, time=0),
    Message('note_on', channel=4, note=40, velocity=0, time=1),
    Message('note_on', channel=3, note=40, velocity=0, time=0),
    Message('note_on', channel=9, note=38, velocity=0, time=31),
    Message('note_on', channel=9, note=46, velocity=0, time=25),
    Message('note_on', channel=9, note=64, velocity=101, time=38),
    Message('note_on', channel=9, note=64, velocity=0, time=39),
    Message('note_on', channel=1, note=32, velocity=127, time=62),
    Message('note_on', channel=3, note=64, velocity=103, time=19),
    Message('note_on', channel=3, note=59, velocity=96, time=0),
    Message('note_on', channel=3, note=68, velocity=112, time=0),
    Message('note_on', channel=4, note=64, velocity=103, time=0),
    Message('note_on', channel=4, note=68, velocity=112, time=0),
    Message('note_on', channel=4, note=59, velocity=96, time=0),
    Message('note_on', channel=9, note=63, velocity=122, time=0),
    Message('note_on', channel=1, note=30, velocity=0, time=2),
    Message('note_on', channel=9, note=63, velocity=0, time=36),
    Message('note_on', channel=9, note=63, velocity=122, time=82),
    Message('note_on', channel=3, note=59, velocity=0, time=5),
    Message('note_on', channel=4, note=59, velocity=0, time=0),
    Message('note_on', channel=4, note=64, velocity=0, time=1),
    Message('note_on', channel=3, note=64, velocity=0, time=0),
    Message('note_on', channel=3, note=68, velocity=0, time=9),
    Message('note_on', channel=4, note=68, velocity=0, time=0),
    Message('note_on', channel=9, note=63, velocity=0, time=24),
    Message('note_on', channel=1, note=32, velocity=0, time=38),
    Message('note_on', channel=1, note=35, velocity=127, time=43),
    Message('note_on', channel=2, note=35, velocity=127, time=0),
    Message('note_on', channel=2, note=47, velocity=127, time=0),
    Message('note_on', channel=3, note=47, velocity=98, time=0),
    Message('note_on', channel=4, note=47, velocity=98, time=0),
    Message('note_on', channel=9, note=57, velocity=127, time=0),
    Message('note_on', channel=9, note=36, velocity=124, time=10),
    Message('note_on', channel=9, note=42, velocity=124, time=0),
    Message('note_on', channel=9, note=57, velocity=0, time=25),
    Message('note_on', channel=9, note=42, velocity=0, time=19),
    Message('note_on', channel=9, note=36, velocity=0, time=22),
    Message('note_on', channel=1, note=35, velocity=0, time=67),
    Message('note_on', channel=3, note=47, velocity=0, time=25),
    Message('note_on', channel=4, note=47, velocity=0, time=0),
    Message('note_on', channel=2, note=35, velocity=0, time=17),
    Message('note_on', channel=1, note=35, velocity=124, time=55),
    Message('note_on', channel=2, note=63, velocity=127, time=0),
    Message('note_on', channel=2, note=59, velocity=127, time=0),
    Message('note_on', channel=2, note=54, velocity=127, time=0),
    Message('note_on', channel=3, note=59, velocity=101, time=0),
    Message('note_on', channel=3, note=71, velocity=89, time=0),
    Message('note_on', channel=3, note=66, velocity=105, time=0),
    Message('note_on', channel=3, note=63, velocity=101, time=0),
    Message('note_on', channel=4, note=59, velocity=101, time=0),
    Message('note_on', channel=4, note=66, velocity=105, time=0),
    Message('note_on', channel=4, note=71, velocity=89, time=0),
    Message('note_on', channel=4, note=63, velocity=101, time=0),
    Message('note_on', channel=9, note=36, velocity=122, time=10),
    Message('note_on', channel=9, note=42, velocity=89, time=0),
    Message('note_on', channel=2, note=47, velocity=0, time=31),
    Message('note_on', channel=9, note=42, velocity=0, time=5),
    Message('note_on', channel=2, note=54, velocity=0, time=10),
    Message('note_on', channel=2, note=59, velocity=0, time=5),
    Message('note_on', channel=2, note=63, velocity=0, time=8),
    Message('note_on', channel=9, note=36, velocity=0, time=0),
    Message('note_on', channel=4, note=59, velocity=0, time=26),
    Message('note_on', channel=3, note=59, velocity=0, time=0),
    Message('note_on', channel=3, note=66, velocity=0, time=5),
    Message('note_on', channel=4, note=66, velocity=0, time=0),
    Message('note_on', channel=3, note=63, velocity=0, time=6),
    Message('note_on', channel=4, note=63, velocity=0, time=0),
    Message('note_on', channel=4, note=71, velocity=0, time=10),
    Message('note_on', channel=3, note=71, velocity=0, time=0),
    Message('note_on', channel=1, note=35, velocity=0, time=44),
    Message('note_on', channel=2, note=63, velocity=127, time=80),
    Message('note_on', channel=2, note=59, velocity=127, time=0),
    Message('note_on', channel=3, note=47, velocity=82, time=0),
    Message('note_on', channel=3, note=54, velocity=112, time=0),
    Message('note_on', channel=4, note=47, velocity=82, time=0),
    Message('note_on', channel=4, note=54, velocity=112, time=0),
    Message('note_on', channel=9, note=38, velocity=124, time=0),
    Message('note_on', channel=4, note=54, velocity=0, time=7),
    Message('note_on', channel=3, note=54, velocity=0, time=0),
    Message('note_on', channel=4, note=47, velocity=0, time=1),
    Message('note_on', channel=3, note=47, velocity=0, time=0),
    Message('note_on', channel=9, note=42, velocity=119, time=2),
    Message('note_on', channel=9, note=38, velocity=0, time=40),
    Message('note_on', channel=9, note=42, velocity=0, time=11),
    Message('note_on', channel=2, note=66, velocity=127, time=179),
    Message('note_on', channel=3, note=71, velocity=93, time=0),
    Message('note_on', channel=3, note=66, velocity=112, time=0),
    Message('note_on', channel=3, note=63, velocity=109, time=0),
    Message('note_on', channel=3, note=59, velocity=103, time=0),
    Message('note_on', channel=4, note=66, velocity=112, time=0),
    Message('note_on', channel=4, note=63, velocity=109, time=0),
    Message('note_on', channel=4, note=59, velocity=103, time=0),
    Message('note_on', channel=4, note=71, velocity=93, time=0),
    Message('note_on', channel=9, note=42, velocity=89, time=10),
    Message('note_on', channel=2, note=63, velocity=0, time=9),
    Message('note_on', channel=9, note=42, velocity=0, time=29),
    Message('note_on', channel=1, note=35, velocity=119, time=72),
    Message('note_on', channel=9, note=38, velocity=122, time=0),
    Message('note_on', channel=4, note=66, velocity=0, time=10),
    Message('note_on', channel=3, note=66, velocity=0, time=0),
    Message('note_on', channel=9, note=42, velocity=96, time=0),
    Message('note_on', channel=4, note=59, velocity=0, time=6),
    Message('note_on', channel=3, note=59, velocity=0, time=0),
    Message('note_on', channel=4, note=63, velocity=0, time=2),
    Message('note_on', channel=3, note=63, velocity=0, time=0),
    Message('note_on', channel=2, note=66, velocity=0, time=9),
    Message('note_on', channel=4, note=71, velocity=0, time=4),
    Message('note_on', channel=3, note=71, velocity=0, time=0),
    Message('note_on', channel=9, note=38, velocity=0, time=6),
    Message('note_on', channel=9, note=42, velocity=0, time=7),
    Message('note_on', channel=1, note=35, velocity=0, time=2),
    Message('note_on', channel=2, note=59, velocity=0, time=5),
    Message('note_on', channel=1, note=42, velocity=127, time=69),
    Message('note_on', channel=2, note=42, velocity=127, time=0),
    Message('note_on', channel=2, note=42, velocity=127, time=0),
    Message('note_on', channel=3, note=54, velocity=112, time=0),
    Message('note_on', channel=4, note=54, velocity=112, time=0),
    Message('note_on', channel=9, note=42, velocity=103, time=10),
    Message('note_on', channel=9, note=36, velocity=114, time=0),
    Message('note_on', channel=9, note=42, velocity=0, time=35),
    Message('note_on', channel=9, note=36, velocity=0, time=20),
    Message('note_on', channel=1, note=42, velocity=0, time=44),
    Message('note_on', channel=9, note=38, velocity=109, time=11),
    Message('note_on', channel=9, note=42, velocity=89, time=10),
    Message('note_on', channel=9, note=42, velocity=0, time=35),
    Message('note_on', channel=9, note=38, velocity=0, time=3),
    Message('note_on', channel=2, note=42, velocity=0, time=4),
    Message('note_on', channel=3, note=54, velocity=0, time=36),
    Message('note_on', channel=4, note=54, velocity=0, time=0),
    Message('note_on', channel=1, note=42, velocity=124, time=32),
    Message('note_on', channel=2, note=54, velocity=127, time=0),
    Message('note_on', channel=2, note=58, velocity=127, time=0),
    Message('note_on', channel=2, note=61, velocity=127, time=0),
    Message('note_on', channel=3, note=61, velocity=94, time=0),
    Message('note_on', channel=3, note=66, velocity=105, time=0),
    Message('note_on', channel=3, note=70, velocity=109, time=0),
    Message('note_on', channel=4, note=66, velocity=105, time=0),
    Message('note_on', channel=4, note=70, velocity=109, time=0),
    Message('note_on', channel=4, note=61, velocity=94, time=0),
    Message('note_on', channel=9, note=42, velocity=82, time=10),
    Message('note_on', channel=9, note=36, velocity=116, time=0),
    Message('note_on', channel=2, note=42, velocity=0, time=13),
    Message('note_on', channel=9, note=42, velocity=0, time=20),
    Message('note_on', channel=2, note=58, velocity=0, time=3),
    Message('note_on', channel=2, note=54, velocity=0, time=4),
    Message('note_on', channel=2, note=61, velocity=0, time=3),
    Message('note_on', channel=9, note=36, velocity=0, time=1),
    Message('note_on', channel=3, note=70, velocity=0, time=28),
    Message('note_on', channel=4, note=70, velocity=0, time=0),
    Message('note_on', channel=3, note=61, velocity=0, time=2),
    Message('note_on', channel=4, note=61, velocity=0, time=0),
    Message('note_on', channel=3, note=66, velocity=0, time=14),
    Message('note_on', channel=4, note=66, velocity=0, time=0),
    Message('note_on', channel=1, note=42, velocity=0, time=67),
    Message('note_on', channel=2, note=54, velocity=127, time=75),
    Message('note_on', channel=2, note=58, velocity=127, time=0),
    Message('note_on', channel=3, note=42, velocity=105, time=0),
    Message('note_on', channel=3, note=49, velocity=114, time=0),
    Message('note_on', channel=4, note=42, velocity=105, time=0),
    Message('note_on', channel=4, note=49, velocity=114, time=0),
    Message('note_on', channel=9, note=38, velocity=122, time=0),
    Message('note_on', channel=4, note=42, velocity=0, time=7),
    Message('note_on', channel=3, note=42, velocity=0, time=0),
    Message('note_on', channel=3, note=49, velocity=0, time=1),
    Message('note_on', channel=4, note=49, velocity=0, time=0),
    Message('note_on', channel=9, note=42, velocity=119, time=2),
    Message('note_on', channel=9, note=38, velocity=0, time=37),
    Message('note_on', channel=9, note=42, velocity=0, time=3),
    Message('note_on', channel=1, note=42, velocity=114, time=190),
    Message('note_on', channel=2, note=61, velocity=127, time=0),
    Message('note_on', channel=3, note=61, velocity=98, time=0),
    Message('note_on', channel=3, note=70, velocity=105, time=0),
    Message('note_on', channel=3, note=66, velocity=93, time=0),
    Message('note_on', channel=4, note=66, velocity=93, time=0),
    Message('note_on', channel=4, note=61, velocity=98, time=0),
    Message('note_on', channel=4, note=70, velocity=105, time=0),
    Message('note_on', channel=9, note=42, velocity=91, time=10),
    Message('note_on', channel=1, note=42, velocity=0, time=35),
    Message('note_on', channel=9, note=42, velocity=0, time=1),
    Message('note_on', channel=4, note=70, velocity=0, time=56),
    Message('note_on', channel=3, note=70, velocity=0, time=0),
    Message('note_on', channel=3, note=61, velocity=0, time=6),
    Message('note_on', channel=4, note=61, velocity=0, time=0),
    Message('note_on', channel=4, note=66, velocity=0, time=8),
    Message('note_on', channel=3, note=66, velocity=0, time=0),
    Message('note_on', channel=1, note=42, velocity=112, time=4),
    Message('note_on', channel=9, note=38, velocity=122, time=0),
    Message('note_on', channel=2, note=58, velocity=0, time=10),
    Message('note_on', channel=9, note=42, velocity=107, time=0),
    Message('note_on', channel=2, note=54, velocity=0, time=2),
    Message('note_on', channel=9, note=38, velocity=0, time=20),
    Message('note_on', channel=2, note=61, velocity=0, time=7),
    Message('note_on', channel=9, note=42, velocity=0, time=10),
    Message('note_on', channel=1, note=42, velocity=0, time=28),
    Message('note_on', channel=1, note=40, velocity=116, time=43),
    Message('note_on', channel=2, note=52, velocity=127, time=0),
    Message('note_on', channel=2, note=40, velocity=127, time=0),
    Message('note_on', channel=3, note=52, velocity=122, time=0),
    Message('note_on', channel=4, note=52, velocity=122, time=0),
    Message('note_on', channel=9, note=36, velocity=122, time=10),
    Message('note_on', channel=9, note=42, velocity=114, time=0),
    Message('note_on', channel=9, note=42, velocity=0, time=45),
    Message('note_on', channel=9, note=36, velocity=0, time=10),
    Message('note_on', channel=1, note=40, velocity=0, time=62),
    Message('note_on', channel=2, note=40, velocity=0, time=48),
    Message('note_on', channel=4, note=52, velocity=0, time=47),
    Message('note_on', channel=3, note=52, velocity=0, time=0),
    Message('note_on', channel=2, note=52, velocity=0, time=10),
    Message('note_on', channel=1, note=40, velocity=124, time=8),
    Message('note_on', channel=2, note=59, velocity=127, time=0),
    Message('note_on', channel=2, note=56, velocity=127, time=0),
    Message('note_on', channel=3, note=59, velocity=101, time=0),
    Message('note_on', channel=3, note=68, velocity=114, time=0),
    Message('note_on', channel=3, note=64, velocity=107, time=0),
    Message('note_on', channel=4, note=68, velocity=114, time=0),
    Message('note_on', channel=4, note=59, velocity=101, time=0),
    Message('note_on', channel=4, note=64, velocity=107, time=0),
    Message('note_on', channel=9, note=36, velocity=116, time=10),
    Message('note_on', channel=9, note=42, velocity=77, time=0),
    Message('note_on', channel=9, note=42, velocity=0, time=44),
    Message('note_on', channel=9, note=36, velocity=0, time=1),
    Message('note_on', channel=2, note=56, velocity=0, time=17),
    Message('note_on', channel=2, note=59, velocity=0, time=5),
    Message('note_on', channel=3, note=68, velocity=0, time=49),
    Message('note_on', channel=4, note=68, velocity=0, time=0),
    Message('note_on', channel=4, note=59, velocity=0, time=2),
    Message('note_on', channel=3, note=59, velocity=0, time=0),
    Message('note_on', channel=3, note=64, velocity=0, time=3),
    Message('note_on', channel=4, note=64, velocity=0, time=0),
    Message('note_on', channel=1, note=40, velocity=0, time=58),
    Message('note_on', channel=2, note=56, velocity=127, time=51),
    Message('note_on', channel=2, note=52, velocity=127, time=0),
    Message('note_on', channel=3, note=52, velocity=103, time=0),
    Message('note_on', channel=3, note=59, velocity=105, time=0),
    Message('note_on', channel=4, note=59, velocity=105, time=0),
    Message('note_on', channel=4, note=52, velocity=103, time=0),
    Message('note_on', channel=9, note=38, velocity=116, time=0),
    Message('note_on', channel=4, note=52, velocity=0, time=8),
    Message('note_on', channel=3, note=52, velocity=0, time=0),
    Message('note_on', channel=4, note=59, velocity=0, time=2),
    Message('note_on', channel=3, note=59, velocity=0, time=0),
    Message('note_on', channel=9, note=42, velocity=119, time=0),
    Message('note_on', channel=9, note=38, velocity=0, time=37),
    Message('note_on', channel=9, note=42, velocity=0, time=4),
    Message('note_on', channel=2, note=59, velocity=127, time=189),
    Message('note_on', channel=3, note=59, velocity=91, time=0),
    Message('note_on', channel=3, note=64, velocity=101, time=0),
    Message('note_on', channel=3, note=68, velocity=112, time=0),
    Message('note_on', channel=4, note=68, velocity=112, time=0),
    Message('note_on', channel=4, note=59, velocity=91, time=0),
    Message('note_on', channel=4, note=64, velocity=101, time=0),
    Message('note_on', channel=9, note=42, velocity=93, time=10),
    Message('note_on', channel=9, note=42, velocity=0, time=37),
    Message('note_on', channel=1, note=35, velocity=116, time=73),
    Message('note_on', channel=9, note=38, velocity=116, time=0),
    Message('note_on', channel=2, note=56, velocity=0, time=4),
    Message('note_on', channel=2, note=52, velocity=0, time=1),
    Message('note_on', channel=4, note=64, velocity=0, time=2),
    Message('note_on', channel=3, note=64, velocity=0, time=0),
    Message('note_on', channel=4, note=59, velocity=0, time=2),
    Message('note_on', channel=3, note=59, velocity=0, time=0),
    Message('note_on', channel=9, note=42, velocity=98, time=1),
    Message('note_on', channel=3, note=68, velocity=0, time=3),
    Message('note_on', channel=4, note=68, velocity=0, time=0),
    Message('note_on', channel=2, note=59, velocity=0, time=22),
    Message('note_on', channel=9, note=42, velocity=0, time=13),
    Message('note_on', channel=9, note=38, velocity=0, time=1),
    Message('note_on', channel=1, note=35, velocity=0, time=14),
    Message('note_on', channel=1, note=40, velocity=116, time=57),
    Message('note_on', channel=2, note=52, velocity=127, time=0),
    Message('note_on', channel=2, note=40, velocity=127, time=0),
    Message('note_on', channel=9, note=36, velocity=107, time=10),
    Message('note_on', channel=9, note=42, velocity=116, time=0),
    Message('note_on', channel=9, note=36, velocity=0, time=31),
    Message('note_on', channel=9, note=42, velocity=0, time=7),
    Message('note_on', channel=9, note=38, velocity=122, time=72),
    Message('note_on', channel=2, note=40, velocity=0, time=8),
    Message('note_on', channel=9, note=42, velocity=97, time=2),
    Message('note_on', channel=1, note=40, velocity=0, time=18),
    Message('note_on', channel=9, note=38, velocity=0, time=11),
    Message('note_on', channel=9, note=42, velocity=0, time=6),
    Message('note_on', channel=1, note=40, velocity=109, time=75),
    Message('note_on', channel=2, note=56, velocity=127, time=0),
    Message('note_on', channel=2, note=59, velocity=127, time=0),
    Message('note_on', channel=3, note=59, velocity=94, time=0),
    Message('note_on', channel=3, note=64, velocity=98, time=0),
    Message('note_on', channel=3, note=68, velocity=109, time=0),
    Message('note_on', channel=4, note=59, velocity=94, time=0),
    Message('note_on', channel=4, note=68, velocity=109, time=0),
    Message('note_on', channel=4, note=64, velocity=98, time=0),
    Message('note_on', channel=9, note=42, velocity=87, time=10),
    Message('note_on', channel=9, note=36, velocity=124, time=0),
    Message('note_on', channel=9, note=42, velocity=0, time=35),
    Message('note_on', channel=9, note=36, velocity=0, time=4),
    Message('note_on', channel=2, note=56, velocity=0, time=23),
    Message('note_on', channel=2, note=59, velocity=0, time=2),
    Message('note_on', channel=2, note=52, velocity=0, time=9),
    Message('note_on', channel=4, note=59, velocity=0, time=33),
    Message('note_on', channel=3, note=59, velocity=0, time=0),
    Message('note_on', channel=4, note=64, velocity=0, time=10),
    Message('note_on', channel=3, note=64, velocity=0, time=0),
    Message('note_on', channel=3, note=68, velocity=0, time=6),
    Message('note_on', channel=4, note=68, velocity=0, time=0),
    Message('note_on', channel=1, note=40, velocity=0, time=43),
    Message('note_on', channel=1, note=39, velocity=116, time=65),
    Message('note_on', channel=2, note=39, velocity=127, time=0),
    Message('note_on', channel=2, note=51, velocity=127, time=0),
    Message('note_on', channel=3, note=40, velocity=98, time=0),
    Message('note_on', channel=3, note=47, velocity=116, time=0),
    Message('note_on', channel=4, note=47, velocity=116, time=0),
    Message('note_on', channel=4, note=40, velocity=98, time=0),
    Message('note_on', channel=9, note=38, velocity=122, time=0),
    Message('note_on', channel=9, note=42, velocity=124, time=10),
    Message('note_on', channel=4, note=47, velocity=0, time=15),
    Message('note_on', channel=3, note=47, velocity=0, time=0),
    Message('note_on', channel=3, note=40, velocity=0, time=1),
    Message('note_on', channel=4, note=40, velocity=0, time=0),
    Message('note_on', channel=9, note=38, velocity=0, time=21),
    Message('note_on', channel=9, note=42, velocity=0, time=6),
    Message('note_on', channel=1, note=39, velocity=0, time=120),
    Message('note_on', channel=2, note=39, velocity=0, time=53),
    Message('note_on', channel=2, note=51, velocity=0, time=9),
    Message('note_on', channel=1, note=37, velocity=114, time=5),
    Message('note_on', channel=2, note=64, velocity=127, time=0),
    Message('note_on', channel=2, note=59, velocity=127, time=0),
    Message('note_on', channel=2, note=37, velocity=127, time=0),
    Message('note_on', channel=2, note=49, velocity=127, time=0),
    Message('note_on', channel=2, note=56, velocity=127, time=0),
    Message('note_on', channel=3, note=64, velocity=103, time=0),
    Message('note_on', channel=3, note=59, velocity=96, time=0),
    Message('note_on', channel=3, note=68, velocity=112, time=0),
    Message('note_on', channel=4, note=64, velocity=103, time=0),
    Message('note_on', channel=4, note=59, velocity=96, time=0),
    Message('note_on', channel=4, note=68, velocity=112, time=0),
    Message('note_on', channel=9, note=38, velocity=101, time=0),
    Message('note_on', channel=9, note=42, velocity=77, time=10),
    Message('note_on', channel=9, note=38, velocity=0, time=18),
    Message('note_on', channel=9, note=42, velocity=0, time=10),
    Message('note_on', channel=2, note=49, velocity=0, time=50),
    Message('note_on', channel=9, note=38, velocity=122, time=32),
    Message('note_on', channel=2, note=56, velocity=0, time=3),
    Message('note_on', channel=4, note=59, velocity=0, time=2),
    Message('note_on', channel=3, note=59, velocity=0, time=0),
    Message('note_on', channel=2, note=59, velocity=0, time=1),
    Message('note_on', channel=4, note=64, velocity=0, time=0),
    Message('note_on', channel=3, note=64, velocity=0, time=0),
    Message('note_on', channel=2, note=64, velocity=0, time=6),
    Message('note_on', channel=3, note=68, velocity=0, time=3),
    Message('note_on', channel=4, note=68, velocity=0, time=0),
    Message('note_on', channel=9, note=38, velocity=0, time=21),
    Message('note_on', channel=2, note=37, velocity=0, time=40),
    Message('note_on', channel=1, note=37, velocity=0, time=19),
    Message('note_on', channel=1, note=35, velocity=127, time=25),
    Message('note_on', channel=2, note=35, velocity=127, time=0),
    Message('note_on', channel=2, note=47, velocity=127, time=0),
    Message('note_on', channel=3, note=47, velocity=98, time=0),
    Message('note_on', channel=4, note=47, velocity=98, time=0),
    Message('note_on', channel=9, note=36, velocity=124, time=10),
    Message('note_on', channel=9, note=42, velocity=124, time=0),
    Message('note_on', channel=9, note=42, velocity=0, time=44),
    Message('note_on', channel=9, note=36, velocity=0, time=22),
    Message('note_on', channel=1, note=35, velocity=0, time=33),
    Message('note_on', channel=3, note=47, velocity=0, time=59),
    Message('note_on', channel=4, note=47, velocity=0, time=0),
    Message('note_on', channel=2, note=35, velocity=0, time=17),
    Message('note_on', channel=1, note=35, velocity=127, time=55),
    Message('note_on', channel=2, note=63, velocity=127, time=0),
    Message('note_on', channel=2, note=59, velocity=127, time=0),
    Message('note_on', channel=2, note=54, velocity=127, time=0),
    Message('note_on', channel=3, note=59, velocity=101, time=0),
    Message('note_on', channel=3, note=71, velocity=89, time=0),
    Message('note_on', channel=3, note=66, velocity=105, time=0),
    Message('note_on', channel=3, note=63, velocity=101, time=0),
    Message('note_on', channel=4, note=59, velocity=101, time=0),
    Message('note_on', channel=4, note=71, velocity=89, time=0),
    Message('note_on', channel=4, note=63, velocity=101, time=0),
    Message('note_on', channel=4, note=66, velocity=105, time=0),
    Message('note_on', channel=9, note=36, velocity=122, time=10),
    Message('note_on', channel=9, note=42, velocity=89, time=0),
    Message('note_on', channel=2, note=47, velocity=0, time=31),
    Message('note_on', channel=9, note=42, velocity=0, time=5),
    Message('note_on', channel=2, note=54, velocity=0, time=10),
    Message('note_on', channel=2, note=59, velocity=0, time=5),
    Message('note_on', channel=2, note=63, velocity=0, time=8),
    Message('note_on', channel=9, note=36, velocity=0, time=0),
    Message('note_on', channel=4, note=59, velocity=0, time=26),
    Message('note_on', channel=3, note=59, velocity=0, time=0),
    Message('note_on', channel=3, note=66, velocity=0, time=5),
    Message('note_on', channel=4, note=66, velocity=0, time=0),
    Message('note_on', channel=3, note=63, velocity=0, time=6),
    Message('note_on', channel=4, note=63, velocity=0, time=0),
    Message('note_on', channel=3, note=71, velocity=0, time=10),
    Message('note_on', channel=4, note=71, velocity=0, time=0),
    Message('note_on', channel=1, note=35, velocity=0, time=6),
    Message('note_on', channel=2, note=63, velocity=127, time=118),
    Message('note_on', channel=2, note=59, velocity=127, time=0),
    Message('note_on', channel=3, note=47, velocity=82, time=0),
    Message('note_on', channel=3, note=54, velocity=112, time=0),
    Message('note_on', channel=4, note=47, velocity=82, time=0),
    Message('note_on', channel=4, note=54, velocity=112, time=0),
    Message('note_on', channel=9, note=38, velocity=124, time=0),
    Message('note_on', channel=4, note=54, velocity=0, time=7),
    Message('note_on', channel=3, note=54, velocity=0, time=0),
    Message('note_on', channel=4, note=47, velocity=0, time=1),
    Message('note_on', channel=3, note=47, velocity=0, time=0),
    Message('note_on', channel=9, note=42, velocity=119, time=2),
    Message('note_on', channel=9, note=38, velocity=0, time=40),
    Message('note_on', channel=9, note=42, velocity=0, time=11),
    Message('note_on', channel=1, note=35, velocity=109, time=179),
    Message('note_on', channel=2, note=66, velocity=127, time=0),
    Message('note_on', channel=3, note=71, velocity=93, time=0),
    Message('note_on', channel=3, note=66, velocity=112, time=0),
    Message('note_on', channel=3, note=63, velocity=109, time=0),
    Message('note_on', channel=3, note=59, velocity=103, time=0),
    Message('note_on', channel=4, note=66, velocity=112, time=0),
    Message('note_on', channel=4, note=71, velocity=93, time=0),
    Message('note_on', channel=4, note=63, velocity=109, time=0),
    Message('note_on', channel=4, note=59, velocity=103, time=0),
    Message('note_on', channel=9, note=42, velocity=89, time=10),
    Message('note_on', channel=2, note=63, velocity=0, time=9),
    Message('note_on', channel=9, note=42, velocity=0, time=29),
    Message('note_on', channel=1, note=35, velocity=0, time=5),
    Message('note_on', channel=1, note=35, velocity=112, time=67),
    Message('note_on', channel=9, note=38, velocity=122, time=0),
    Message('note_on', channel=4, note=66, velocity=0, time=10),
    Message('note_on', channel=3, note=66, velocity=0, time=0),
    Message('note_on', channel=9, note=42, velocity=96, time=0),
    Message('note_on', channel=3, note=59, velocity=0, time=6),
    Message('note_on', channel=4, note=59, velocity=0, time=0),
    Message('note_on', channel=4, note=63, velocity=0, time=2),
    Message('note_on', channel=3, note=63, velocity=0, time=0),
    Message('note_on', channel=2, note=66, velocity=0, time=9),
    Message('note_on', channel=4, note=71, velocity=0, time=4),
    Message('note_on', channel=3, note=71, velocity=0, time=0),
    Message('note_on', channel=9, note=38, velocity=0, time=6),
    Message('note_on', channel=9, note=42, velocity=0, time=7),
    Message('note_on', channel=2, note=59, velocity=0, time=7),
    Message('note_on', channel=1, note=35, velocity=0, time=2),
    Message('note_on', channel=1, note=42, velocity=119, time=67),
    Message('note_on', channel=2, note=42, velocity=127, time=0),
    Message('note_on', channel=2, note=42, velocity=127, time=0),
    Message('note_on', channel=3, note=54, velocity=112, time=0),
    Message('note_on', channel=4, note=54, velocity=112, time=0),
    Message('note_on', channel=9, note=36, velocity=114, time=10),
    Message('note_on', channel=9, note=42, velocity=103, time=0),
    Message('note_on', channel=9, note=42, velocity=0, time=35),
    Message('note_on', channel=9, note=36, velocity=0, time=20),
    Message('note_on', channel=9, note=38, velocity=109, time=55),
    Message('note_on', channel=9, note=42, velocity=89, time=10),
    Message('note_on', channel=1, note=42, velocity=0, time=22),
    Message('note_on', channel=9, note=42, velocity=0, time=13),
    Message('note_on', channel=9, note=38, velocity=0, time=3),
    Message('note_on', channel=2, note=42, velocity=0, time=4),
    Message('note_on', channel=3, note=54, velocity=0, time=36),
    Message('note_on', channel=4, note=54, velocity=0, time=0),
    Message('note_on', channel=1, note=42, velocity=127, time=32),
    Message('note_on', channel=2, note=54, velocity=127, time=0),
    Message('note_on', channel=2, note=58, velocity=127, time=0),
    Message('note_on', channel=2, note=61, velocity=127, time=0),
    Message('note_on', channel=3, note=61, velocity=94, time=0),
    Message('note_on', channel=3, note=70, velocity=109, time=0),
    Message('note_on', channel=3, note=66, velocity=105, time=0),
    Message('note_on', channel=4, note=66, velocity=105, time=0),
    Message('note_on', channel=4, note=61, velocity=94, time=0),
    Message('note_on', channel=4, note=70, velocity=109, time=0),
    Message('note_on', channel=9, note=42, velocity=82, time=10),
    Message('note_on', channel=9, note=36, velocity=116, time=0),
    Message('note_on', channel=2, note=42, velocity=0, time=13),
    Message('note_on', channel=9, note=42, velocity=0, time=20),
    Message('note_on', channel=2, note=58, velocity=0, time=3),
    Message('note_on', channel=2, note=54, velocity=0, time=4),
    Message('note_on', channel=2, note=61, velocity=0, time=3),
    Message('note_on', channel=9, note=36, velocity=0, time=1),
    Message('note_on', channel=4, note=70, velocity=0, time=28),
    Message('note_on', channel=3, note=70, velocity=0, time=0),
    Message('note_on', channel=4, note=61, velocity=0, time=2),
    Message('note_on', channel=3, note=61, velocity=0, time=0),
    Message('note_on', channel=4, note=66, velocity=0, time=14),
    Message('note_on', channel=3, note=66, velocity=0, time=0),
    Message('note_on', channel=1, note=42, velocity=0, time=112),
    Message('note_on', channel=2, note=58, velocity=127, time=30),
    Message('note_on', channel=2, note=54, velocity=127, time=0),
    Message('note_on', channel=3, note=42, velocity=105, time=0),
    Message('note_on', channel=3, note=49, velocity=114, time=0),
    Message('note_on', channel=4, note=42, velocity=105, time=0),
    Message('note_on', channel=4, note=49, velocity=114, time=0),
    Message('note_on', channel=9, note=38, velocity=122, time=0),
    Message('note_on', channel=4, note=42, velocity=0, time=7),
    Message('note_on', channel=3, note=42, velocity=0, time=0),
    Message('note_on', channel=3, note=49, velocity=0, time=1),
    Message('note_on', channel=4, note=49, velocity=0, time=0),
    Message('note_on', channel=9, note=42, velocity=119, time=2),
    Message('note_on', channel=9, note=38, velocity=0, time=37),
    Message('note_on', channel=9, note=42, velocity=0, time=3),
    Message('note_on', channel=1, note=42, velocity=119, time=190),
    Message('note_on', channel=2, note=61, velocity=127, time=0),
    Message('note_on', channel=3, note=66, velocity=93, time=0),
    Message('note_on', channel=3, note=70, velocity=105, time=0),
    Message('note_on', channel=3, note=61, velocity=98, time=0),
    Message('note_on', channel=4, note=66, velocity=93, time=0),
    Message('note_on', channel=4, note=61, velocity=98, time=0),
    Message('note_on', channel=4, note=70, velocity=105, time=0),
    Message('note_on', channel=9, note=42, velocity=91, time=10),
    Message('note_on', channel=1, note=42, velocity=0, time=18),
    Message('note_on', channel=9, note=42, velocity=0, time=18),
    Message('note_on', channel=4, note=70, velocity=0, time=56),
    Message('note_on', channel=3, note=70, velocity=0, time=0),
    Message('note_on', channel=4, note=61, velocity=0, time=6),
    Message('note_on', channel=3, note=61, velocity=0, time=0),
    Message('note_on', channel=4, note=66, velocity=0, time=8),
    Message('note_on', channel=3, note=66, velocity=0, time=0),
    Message('note_on', channel=1, note=42, velocity=124, time=4),
    Message('note_on', channel=9, note=38, velocity=122, time=0),
    Message('note_on', channel=2, note=58, velocity=0, time=10),
    Message('note_on', channel=9, note=42, velocity=107, time=0),
    Message('note_on', channel=2, note=54, velocity=0, time=2),
    Message('note_on', channel=9, note=38, velocity=0, time=20),
    Message('note_on', channel=2, note=61, velocity=0, time=7),
    Message('note_on', channel=9, note=42, velocity=0, time=10),
    Message('note_on', channel=1, note=42, velocity=0, time=51),
    Message('note_on', channel=1, note=40, velocity=119, time=20),
    Message('note_on', channel=2, note=40, velocity=127, time=0),
    Message('note_on', channel=2, note=52, velocity=127, time=0),
    Message('note_on', channel=3, note=52, velocity=122, time=0),
    Message('note_on', channel=4, note=52, velocity=122, time=0),
    Message('note_on', channel=9, note=42, velocity=114, time=10),
    Message('note_on', channel=9, note=36, velocity=122, time=0),
    Message('note_on', channel=9, note=42, velocity=0, time=45),
    Message('note_on', channel=9, note=36, velocity=0, time=10),
    Message('note_on', channel=1, note=40, velocity=0, time=67),
    Message('note_on', channel=2, note=40, velocity=0, time=43),
    Message('note_on', channel=3, note=52, velocity=0, time=47),
    Message('note_on', channel=4, note=52, velocity=0, time=0),
    Message('note_on', channel=2, note=52, velocity=0, time=10),
    Message('note_on', channel=1, note=40, velocity=124, time=8),
    Message('note_on', channel=2, note=59, velocity=127, time=0),
    Message('note_on', channel=2, note=56, velocity=127, time=0),
    Message('note_on', channel=3, note=68, velocity=114, time=0),
    Message('note_on', channel=3, note=64, velocity=107, time=0),
    Message('note_on', channel=3, note=59, velocity=101, time=0),
    Message('note_on', channel=4, note=68, velocity=114, time=0),
    Message('note_on', channel=4, note=64, velocity=107, time=0),
    Message('note_on', channel=4, note=59, velocity=101, time=0),
    Message('note_on', channel=9, note=36, velocity=116, time=10),
    Message('note_on', channel=9, note=42, velocity=77, time=0),
    Message('note_on', channel=9, note=42, velocity=0, time=44),
    Message('note_on', channel=9, note=36, velocity=0, time=1),
    Message('note_on', channel=2, note=56, velocity=0, time=17),
    Message('note_on', channel=2, note=59, velocity=0, time=5),
    Message('note_on', channel=3, note=68, velocity=0, time=49),
    Message('note_on', channel=4, note=68, velocity=0, time=0),
    Message('note_on', channel=4, note=59, velocity=0, time=2),
    Message('note_on', channel=3, note=59, velocity=0, time=0),
    Message('note_on', channel=4, note=64, velocity=0, time=3),
    Message('note_on', channel=3, note=64, velocity=0, time=0),
    Message('note_on', channel=1, note=40, velocity=0, time=70),
    Message('note_on', channel=2, note=52, velocity=127, time=39),
    Message('note_on', channel=2, note=56, velocity=127, time=0),
    Message('note_on', channel=3, note=59, velocity=105, time=0),
    Message('note_on', channel=3, note=52, velocity=103, time=0),
    Message('note_on', channel=4, note=59, velocity=105, time=0),
    Message('note_on', channel=4, note=52, velocity=103, time=0),
    Message('note_on', channel=9, note=38, velocity=116, time=0),
    Message('note_on', channel=4, note=52, velocity=0, time=8),
    Message('note_on', channel=3, note=52, velocity=0, time=0),
    Message('note_on', channel=4, note=59, velocity=0, time=2),
    Message('note_on', channel=3, note=59, velocity=0, time=0),
    Message('note_on', channel=9, note=42, velocity=119, time=0),
    Message('note_on', channel=9, note=38, velocity=0, time=37),
    Message('note_on', channel=9, note=42, velocity=0, time=4),
    Message('note_on', channel=2, note=59, velocity=127, time=189),
    Message('note_on', channel=3, note=59, velocity=91, time=0),
    Message('note_on', channel=3, note=64, velocity=101, time=0),
    Message('note_on', channel=3, note=68, velocity=112, time=0),
    Message('note_on', channel=4, note=64, velocity=101, time=0),
    Message('note_on', channel=4, note=68, velocity=112, time=0),
    Message('note_on', channel=4, note=59, velocity=91, time=0),
    Message('note_on', channel=9, note=42, velocity=93, time=10),
    Message('note_on', channel=9, note=42, velocity=0, time=37),
    Message('note_on', channel=1, note=35, velocity=122, time=73),
    Message('note_on', channel=9, note=38, velocity=116, time=0),
    Message('note_on', channel=2, note=56, velocity=0, time=4),
    Message('note_on', channel=2, note=52, velocity=0, time=1),
    Message('note_on', channel=3, note=64, velocity=0, time=2),
    Message('note_on', channel=4, note=64, velocity=0, time=0),
    Message('note_on', channel=4, note=59, velocity=0, time=2),
    Message('note_on', channel=3, note=59, velocity=0, time=0),
    Message('note_on', channel=9, note=42, velocity=98, time=1),
    Message('note_on', channel=4, note=68, velocity=0, time=3),
    Message('note_on', channel=3, note=68, velocity=0, time=0),
    Message('note_on', channel=2, note=59, velocity=0, time=22),
    Message('note_on', channel=9, note=42, velocity=0, time=13),
    Message('note_on', channel=9, note=38, velocity=0, time=1),
    Message('note_on', channel=1, note=35, velocity=0, time=14),
    Message('note_on', channel=1, note=40, velocity=127, time=57),
    Message('note_on', channel=2, note=52, velocity=127, time=0),
    Message('note_on', channel=2, note=40, velocity=127, time=0),
    Message('note_on', channel=9, note=42, velocity=116, time=10),
    Message('note_on', channel=9, note=36, velocity=107, time=0),
    Message('note_on', channel=9, note=36, velocity=0, time=31),
    Message('note_on', channel=9, note=42, velocity=0, time=7),
    Message('note_on', channel=9, note=38, velocity=122, time=72),
    Message('note_on', channel=2, note=40, velocity=0, time=8),
    Message('note_on', channel=9, note=42, velocity=97, time=2),
    Message('note_on', channel=1, note=40, velocity=0, time=4),
    Message('note_on', channel=9, note=38, velocity=0, time=25),
    Message('note_on', channel=9, note=42, velocity=0, time=6),
    Message('note_on', channel=1, note=40, velocity=119, time=75),
    Message('note_on', channel=2, note=59, velocity=127, time=0),
    Message('note_on', channel=2, note=56, velocity=127, time=0),
    Message('note_on', channel=3, note=59, velocity=94, time=0),
    Message('note_on', channel=3, note=64, velocity=98, time=0),
    Message('note_on', channel=3, note=68, velocity=109, time=0),
    Message('note_on', channel=4, note=59, velocity=94, time=0),
    Message('note_on', channel=4, note=64, velocity=98, time=0),
    Message('note_on', channel=4, note=68, velocity=109, time=0),
    Message('note_on', channel=9, note=36, velocity=124, time=10),
    Message('note_on', channel=9, note=42, velocity=87, time=0),
    Message('note_on', channel=9, note=42, velocity=0, time=35),
    Message('note_on', channel=9, note=36, velocity=0, time=4),
    Message('note_on', channel=2, note=56, velocity=0, time=23),
    Message('note_on', channel=2, note=59, velocity=0, time=2),
    Message('note_on', channel=2, note=52, velocity=0, time=9),
    Message('note_on', channel=4, note=59, velocity=0, time=33),
    Message('note_on', channel=3, note=59, velocity=0, time=0),
    Message('note_on', channel=4, note=64, velocity=0, time=10),
    Message('note_on', channel=3, note=64, velocity=0, time=0),
    Message('note_on', channel=3, note=68, velocity=0, time=6),
    Message('note_on', channel=4, note=68, velocity=0, time=0),
    Message('note_on', channel=1, note=40, velocity=0, time=65),
    Message('note_on', channel=1, note=39, velocity=127, time=43),
    Message('note_on', channel=2, note=51, velocity=127, time=0),
    Message('note_on', channel=2, note=39, velocity=127, time=0),
    Message('note_on', channel=3, note=40, velocity=98, time=0),
    Message('note_on', channel=3, note=47, velocity=116, time=0),
    Message('note_on', channel=4, note=40, velocity=98, time=0),
    Message('note_on', channel=4, note=47, velocity=116, time=0),
    Message('note_on', channel=9, note=38, velocity=122, time=0),
    Message('note_on', channel=9, note=42, velocity=124, time=10),
    Message('note_on', channel=4, note=47, velocity=0, time=15),
    Message('note_on', channel=3, note=47, velocity=0, time=0),
    Message('note_on', channel=3, note=40, velocity=0, time=1),
    Message('note_on', channel=4, note=40, velocity=0, time=0),
    Message('note_on', channel=9, note=38, velocity=0, time=21),
    Message('note_on', channel=9, note=42, velocity=0, time=6),
    Message('note_on', channel=1, note=39, velocity=0, time=162),
    Message('note_on', channel=2, note=39, velocity=0, time=11),
    Message('note_on', channel=2, note=51, velocity=0, time=9),
    Message('note_on', channel=1, note=40, velocity=112, time=5),
    Message('note_on', channel=2, note=64, velocity=127, time=0),
    Message('note_on', channel=2, note=59, velocity=127, time=0),
    Message('note_on', channel=2, note=40, velocity=127, time=0),
    Message('note_on', channel=2, note=52, velocity=127, time=0),
    Message('note_on', channel=2, note=56, velocity=127, time=0),
    Message('note_on', channel=3, note=64, velocity=103, time=0),
    Message('note_on', channel=3, note=59, velocity=96, time=0),
    Message('note_on', channel=3, note=68, velocity=112, time=0),
    Message('note_on', channel=4, note=59, velocity=96, time=0),
    Message('note_on', channel=4, note=64, velocity=103, time=0),
    Message('note_on', channel=4, note=68, velocity=112, time=0),
    Message('note_on', channel=9, note=38, velocity=101, time=0),
    Message('note_on', channel=9, note=42, velocity=77, time=10),
    Message('note_on', channel=9, note=38, velocity=0, time=18),
    Message('note_on', channel=9, note=42, velocity=0, time=10),
    Message('note_on', channel=2, note=52, velocity=0, time=50),
    Message('note_on', channel=9, note=38, velocity=122, time=32),
    Message('note_on', channel=2, note=56, velocity=0, time=3),
    Message('note_on', channel=4, note=59, velocity=0, time=2),
    Message('note_on', channel=3, note=59, velocity=0, time=0),
    Message('note_on', channel=2, note=59, velocity=0, time=1),
    Message('note_on', channel=4, note=64, velocity=0, time=0),
    Message('note_on', channel=3, note=64, velocity=0, time=0),
    Message('note_on', channel=2, note=64, velocity=0, time=6),
    Message('note_on', channel=3, note=68, velocity=0, time=3),
    Message('note_on', channel=4, note=68, velocity=0, time=0),
    Message('note_on', channel=9, note=38, velocity=0, time=21),
    Message('note_on', channel=2, note=40, velocity=0, time=40),
    Message('note_on', channel=1, note=40, velocity=0, time=21),
    Message('note_on', channel=1, note=37, velocity=122, time=23),
    Message('note_on', channel=2, note=49, velocity=127, time=0),
    Message('note_on', channel=0, note=64, velocity=54, time=0),
    Message('note_on', channel=0, note=61, velocity=73, time=0),
    Message('note_on', channel=3, note=49, velocity=122, time=0),
    Message('note_on', channel=4, note=49, velocity=122, time=0),
    Message('note_on', channel=9, note=42, velocity=124, time=10),
    Message('note_on', channel=9, note=36, velocity=124, time=0),
    Message('note_on', channel=9, note=42, velocity=0, time=44),
    Message('note_on', channel=9, note=36, velocity=0, time=22),
    Message('note_on', channel=3, note=49, velocity=0, time=44),
    Message('note_on', channel=4, note=49, velocity=0, time=0),
    Message('note_on', channel=1, note=37, velocity=0, time=45),
    Message('note_on', channel=1, note=37, velocity=112, time=75),
    Message('note_on', channel=2, note=64, velocity=127, time=0),
    Message('note_on', channel=2, note=61, velocity=127, time=0),
    Message('note_on', channel=2, note=56, velocity=127, time=0),
    Message('note_on', channel=3, note=64, velocity=101, time=0),
    Message('note_on', channel=3, note=61, velocity=109, time=0),
    Message('note_on', channel=3, note=68, velocity=107, time=0),
    Message('note_on', channel=4, note=68, velocity=107, time=0),
    Message('note_on', channel=4, note=64, velocity=101, time=0),
    Message('note_on', channel=4, note=61, velocity=109, time=0),
    Message('note_on', channel=9, note=36, velocity=122, time=10),
    Message('note_on', channel=9, note=42, velocity=89, time=0),
    Message('note_on', channel=9, note=42, velocity=0, time=36),
    Message('note_on', channel=9, note=36, velocity=0, time=23),
    Message('note_on', channel=3, note=61, velocity=0, time=23),
    Message('note_on', channel=4, note=61, velocity=0, time=0),
    Message('note_on', channel=3, note=64, velocity=0, time=2),
    Message('note_on', channel=4, note=64, velocity=0, time=0),
    Message('note_on', channel=4, note=68, velocity=0, time=10),
    Message('note_on', channel=3, note=68, velocity=0, time=0),
    Message('note_on', channel=1, note=37, velocity=0, time=36),
    Message('note_on', channel=1, note=32, velocity=127, time=100),
    Message('note_on', channel=9, note=38, velocity=124, time=0),
    Message('note_on', channel=9, note=42, velocity=119, time=10),
    Message('note_on', channel=9, note=38, velocity=0, time=40),
    Message('note_on', channel=9, note=42, velocity=0, time=11),
    Message('note_on', channel=1, note=32, velocity=0, time=7),
    Message('note_on', channel=1, note=32, velocity=127, time=52),
    Message('note_on', channel=1, note=32, velocity=0, time=84),
    Message('note_on', channel=1, note=37, velocity=122, time=36),
    Message('note_on', channel=3, note=68, velocity=109, time=0),
    Message('note_on', channel=3, note=64, velocity=103, time=0),
    Message('note_on', channel=3, note=61, velocity=105, time=0),
    Message('note_on', channel=4, note=68, velocity=109, time=0),
    Message('note_on', channel=4, note=64, velocity=103, time=0),
    Message('note_on', channel=4, note=61, velocity=105, time=0),
    Message('note_on', channel=9, note=42, velocity=89, time=10),
    Message('note_on', channel=9, note=42, velocity=0, time=38),
    Message('note_on', channel=4, note=64, velocity=0, time=37),
    Message('note_on', channel=3, note=64, velocity=0, time=0),
    Message('note_on', channel=4, note=68, velocity=0, time=3),
    Message('note_on', channel=3, note=68, velocity=0, time=0),
    Message('note_on', channel=3, note=61, velocity=0, time=15),
    Message('note_on', channel=4, note=61, velocity=0, time=0),
    Message('note_on', channel=9, note=38, velocity=122, time=17),
    Message('note_on', channel=9, note=42, velocity=96, time=10),
    Message('note_on', channel=9, note=38, velocity=0, time=27),
    Message('note_on', channel=9, note=42, velocity=0, time=7),
    Message('note_on', channel=1, note=37, velocity=0, time=61),
    Message('note_on', channel=0, note=64, velocity=0, time=12),
    Message('note_on', channel=1, note=39, velocity=124, time=3),
    Message('note_on', channel=2, note=51, velocity=127, time=0),
    Message('note_on', channel=0, note=66, velocity=65, time=0),
    Message('note_on', channel=0, note=63, velocity=87, time=0),
    Message('note_on', channel=3, note=51, velocity=114, time=0),
    Message('note_on', channel=4, note=51, velocity=114, time=0),
    Message('note_on', channel=2, note=49, velocity=0, time=3),
    Message('note_on', channel=9, note=42, velocity=103, time=7),
    Message('note_on', channel=9, note=36, velocity=114, time=0),
    Message('note_on', channel=2, note=64, velocity=0, time=3),
    Message('note_on', channel=2, note=56, velocity=0, time=5),
    Message('note_on', channel=2, note=61, velocity=0, time=2),
    Message('note_on', channel=0, note=61, velocity=0, time=3),
    Message('note_on', channel=9, note=42, velocity=0, time=22),
    Message('note_on', channel=9, note=36, velocity=0, time=20),
    Message('note_on', channel=9, note=38, velocity=109, time=55),
    Message('note_on', channel=9, note=42, velocity=89, time=10),
    Message('note_on', channel=1, note=39, velocity=0, time=29),
    Message('note_on', channel=9, note=42, velocity=0, time=6),
    Message('note_on', channel=9, note=38, velocity=0, time=3),
    Message('note_on', channel=4, note=51, velocity=0, time=7),
    Message('note_on', channel=3, note=51, velocity=0, time=0),
    Message('note_on', channel=1, note=39, velocity=114, time=65),
    Message('note_on', channel=2, note=58, velocity=127, time=0),
    Message('note_on', channel=2, note=54, velocity=127, time=0),
    Message('note_on', channel=2, note=63, velocity=127, time=0),
    Message('note_on', channel=3, note=66, velocity=112, time=0),
    Message('note_on', channel=3, note=63, velocity=112, time=0),
    Message('note_on', channel=3, note=70, velocity=107, time=0),
    Message('note_on', channel=4, note=70, velocity=107, time=0),
    Message('note_on', channel=4, note=66, velocity=112, time=0),
    Message('note_on', channel=4, note=63, velocity=112, time=0),
    Message('note_on', channel=9, note=36, velocity=116, time=10),
    Message('note_on', channel=9, note=42, velocity=82, time=0),
    Message('note_on', channel=9, note=42, velocity=0, time=33),
    Message('note_on', channel=9, note=36, velocity=0, time=11),
    Message('note_on', channel=3, note=70, velocity=0, time=46),
    Message('note_on', channel=4, note=70, velocity=0, time=0),
    Message('note_on', channel=3, note=63, velocity=0, time=4),
    Message('note_on', channel=4, note=63, velocity=0, time=0),
    Message('note_on', channel=3, note=66, velocity=0, time=4),
    Message('note_on', channel=4, note=66, velocity=0, time=0),
    Message('note_on', channel=1, note=39, velocity=0, time=54),
    Message('note_on', channel=1, note=34, velocity=119, time=78),
    Message('note_on', channel=9, note=38, velocity=122, time=0),
    Message('note_on', channel=9, note=42, velocity=119, time=10),
    Message('note_on', channel=9, note=38, velocity=0, time=37),
    Message('note_on', channel=9, note=42, velocity=0, time=3),
    Message('note_on', channel=1, note=34, velocity=0, time=3),
    Message('note_on', channel=1, note=34, velocity=116, time=67),
    Message('note_on', channel=1, note=34, velocity=0, time=70),
    Message('note_on', channel=1, note=39, velocity=124, time=50),
    Message('note_on', channel=3, note=66, velocity=119, time=0),
    Message('note_on', channel=3, note=63, velocity=114, time=0),
    Message('note_on', channel=3, note=70, velocity=116, time=0),
    Message('note_on', channel=4, note=66, velocity=119, time=0),
    Message('note_on', channel=4, note=63, velocity=114, time=0),
    Message('note_on', channel=4, note=70, velocity=116, time=0),
    Message('note_on', channel=9, note=42, velocity=91, time=10),
    Message('note_on', channel=9, note=42, velocity=0, time=36),
    Message('note_on', channel=9, note=38, velocity=122, time=74),
    Message('note_on', channel=3, note=66, velocity=0, time=9),
    Message('note_on', channel=4, note=66, velocity=0, time=0),
    Message('note_on', channel=9, note=42, velocity=107, time=1),
    Message('note_on', channel=3, note=63, velocity=0, time=4),
    Message('note_on', channel=4, note=63, velocity=0, time=0),
    Message('note_on', channel=3, note=70, velocity=0, time=1),
    Message('note_on', channel=4, note=70, velocity=0, time=0),
    Message('note_on', channel=9, note=38, velocity=0, time=17),
    Message('note_on', channel=9, note=42, velocity=0, time=17),
    Message('note_on', channel=0, note=63, velocity=0, time=31),
    Message('note_on', channel=2, note=63, velocity=0, time=0),
    Message('note_on', channel=2, note=54, velocity=0, time=6),
    Message('note_on', channel=1, note=39, velocity=0, time=1),
    Message('note_on', channel=2, note=58, velocity=0, time=10),
    Message('note_on', channel=2, note=51, velocity=0, time=4),
    Message('note_on', channel=1, note=40, velocity=122, time=19),
    Message('note_on', channel=2, note=52, velocity=127, time=0),
    Message('note_on', channel=0, note=64, velocity=57, time=0),
    Message('note_on', channel=0, note=68, velocity=65, time=0),
    Message('note_on', channel=3, note=52, velocity=96, time=0),
    Message('note_on', channel=4, note=52, velocity=96, time=0),
    Message('note_on', channel=9, note=36, velocity=122, time=10),
    Message('note_on', channel=9, note=42, velocity=114, time=0),
    Message('note_on', channel=0, note=66, velocity=0, time=1),
    Message('note_on', channel=9, note=42, velocity=0, time=44),
    Message('note_on', channel=9, note=36, velocity=0, time=10),
    Message('note_on', channel=3, note=52, velocity=0, time=24),
    Message('note_on', channel=4, note=52, velocity=0, time=0),
    Message('note_on', channel=1, note=40, velocity=0, time=65),
    Message('note_on', channel=1, note=40, velocity=109, time=86),
    Message('note_on', channel=2, note=64, velocity=127, time=0),
    Message('note_on', channel=2, note=56, velocity=127, time=0),
    Message('note_on', channel=2, note=59, velocity=127, time=0),
    Message('note_on', channel=3, note=59, velocity=75, time=0),
    Message('note_on', channel=3, note=64, velocity=91, time=0),
    Message('note_on', channel=3, note=68, velocity=105, time=0),
    Message('note_on', channel=4, note=59, velocity=75, time=0),
    Message('note_on', channel=4, note=68, velocity=105, time=0),
    Message('note_on', channel=4, note=64, velocity=91, time=0),
    Message('note_on', channel=9, note=42, velocity=77, time=10),
    Message('note_on', channel=9, note=36, velocity=116, time=0),
    Message('note_on', channel=9, note=42, velocity=0, time=44),
    Message('note_on', channel=9, note=36, velocity=0, time=1),
    Message('note_on', channel=3, note=59, velocity=0, time=11),
    Message('note_on', channel=4, note=59, velocity=0, time=0),
    Message('note_on', channel=3, note=68, velocity=0, time=12),
    Message('note_on', channel=4, note=68, velocity=0, time=0),
    Message('note_on', channel=3, note=64, velocity=0, time=6),
    Message('note_on', channel=4, note=64, velocity=0, time=0),
    Message('note_on', channel=1, note=40, velocity=0, time=63),
    Message('note_on', channel=1, note=35, velocity=114, time=93),
    Message('note_on', channel=9, note=38, velocity=116, time=0),
    Message('note_on', channel=9, note=42, velocity=119, time=10),
    Message('note_on', channel=9, note=38, velocity=0, time=37),
    Message('note_on', channel=9, note=42, velocity=0, time=4),
    Message('note_on', channel=1, note=35, velocity=0, time=23),
    Message('note_on', channel=1, note=35, velocity=107, time=46),
    Message('note_on', channel=1, note=35, velocity=0, time=61),
    Message('note_on', channel=1, note=40, velocity=122, time=59),
    Message('note_on', channel=3, note=68, velocity=109, time=0),
    Message('note_on', channel=3, note=64, velocity=96, time=0),
    Message('note_on', channel=3, note=59, velocity=89, time=0),
    Message('note_on', channel=4, note=64, velocity=96, time=0),
    Message('note_on', channel=4, note=59, velocity=89, time=0),
    Message('note_on', channel=4, note=68, velocity=109, time=0),
    Message('note_on', channel=9, note=60, velocity=116, time=0),
    Message('note_on', channel=9, note=42, velocity=93, time=10),
    Message('note_on', channel=9, note=60, velocity=0, time=23),
    Message('note_on', channel=9, note=42, velocity=0, time=14),
    Message('note_on', channel=3, note=59, velocity=0, time=21),
    Message('note_on', channel=4, note=59, velocity=0, time=0),
    Message('note_on', channel=4, note=64, velocity=0, time=11),
    Message('note_on', channel=3, note=64, velocity=0, time=0),
    Message('note_on', channel=9, note=60, velocity=109, time=1),
    Message('note_on', channel=3, note=68, velocity=0, time=2),
    Message('note_on', channel=4, note=68, velocity=0, time=0),
    Message('note_on', channel=9, note=60, velocity=0, time=33),
    Message('note_on', channel=9, note=38, velocity=116, time=5),
    Message('note_on', channel=9, note=42, velocity=98, time=10),
    Message('note_on', channel=1, note=40, velocity=0, time=20),
    Message('note_on', channel=9, note=60, velocity=107, time=10),
    Message('note_on', channel=9, note=42, velocity=0, time=8),
    Message('note_on', channel=9, note=38, velocity=0, time=1),
    Message('note_on', channel=9, note=60, velocity=0, time=25),
    Message('note_on', channel=0, note=64, velocity=0, time=40),
    Message('note_on', channel=2, note=56, velocity=0, time=4),
    Message('note_on', channel=1, note=42, velocity=124, time=2),
    Message('note_on', channel=2, note=66, velocity=127, time=0),
    Message('note_on', channel=2, note=61, velocity=127, time=0),
    Message('note_on', channel=2, note=58, velocity=127, time=0),
    Message('note_on', channel=2, note=54, velocity=127, time=0),
    Message('note_on', channel=0, note=70, velocity=42, time=0),
    Message('note_on', channel=0, note=66, velocity=79, time=0),
    Message('note_on', channel=3, note=61, velocity=94, time=0),
    Message('note_on', channel=3, note=66, velocity=107, time=0),
    Message('note_on', channel=3, note=54, velocity=89, time=0),
    Message('note_on', channel=3, note=70, velocity=101, time=0),
    Message('note_on', channel=4, note=66, velocity=107, time=0),
    Message('note_on', channel=4, note=70, velocity=101, time=0),
    Message('note_on', channel=4, note=54, velocity=89, time=0),
    Message('note_on', channel=4, note=61, velocity=94, time=0),
    Message('note_on', channel=9, note=64, velocity=114, time=0),
    Message('note_on', channel=2, note=64, velocity=0, time=10),
    Message('note_on', channel=9, note=36, velocity=107, time=0),
    Message('note_on', channel=9, note=42, velocity=116, time=0),
    Message('note_on', channel=2, note=59, velocity=0, time=2),
    Message('note_on', channel=2, note=52, velocity=0, time=2),
    Message('note_on', channel=9, note=36, velocity=0, time=27),
    Message('note_on', channel=9, note=42, velocity=0, time=7),
    Message('note_on', channel=0, note=68, velocity=0, time=1),
    Message('note_on', channel=9, note=64, velocity=0, time=0),
    Message('note_on', channel=1, note=42, velocity=0, time=386),
    Message('note_on', channel=1, note=42, velocity=124, time=45),
    Message('note_on', channel=9, note=36, velocity=116, time=0),
    Message('note_on', channel=9, note=36, velocity=0, time=58),
    Message('note_on', channel=1, note=42, velocity=0, time=3),
    Message('note_on', channel=1, note=40, velocity=119, time=59),
    Message('note_on', channel=9, note=45, velocity=116, time=0),
    Message('note_on', channel=9, note=45, velocity=0, time=54),
    Message('note_on', channel=0, note=70, velocity=0, time=7),
    Message('note_on', channel=0, note=66, velocity=0, time=6),
    Message('note_on', channel=1, note=40, velocity=0, time=49),
    Message('note_on', channel=1, note=37, velocity=127, time=4),
    Message('note_on', channel=9, note=41, velocity=122, time=0),
    Message('note_on', channel=9, note=41, velocity=0, time=50),
    Message('note_on', channel=2, note=66, velocity=0, time=65),
    Message('note_on', channel=0, note=54, velocity=124, time=5),
    Message('note_on', channel=9, note=36, velocity=122, time=0),
    Message('note_on', channel=2, note=61, velocity=0, time=5),
    Message('note_on', channel=2, note=58, velocity=0, time=0),
    Message('note_on', channel=2, note=54, velocity=0, time=14),
    Message('note_on', channel=4, note=61, velocity=0, time=3),
    Message('note_on', channel=3, note=61, velocity=0, time=0),
    Message('note_on', channel=4, note=70, velocity=0, time=4),
    Message('note_on', channel=3, note=70, velocity=0, time=0),
    Message('note_on', channel=3, note=66, velocity=0, time=4),
    Message('note_on', channel=4, note=66, velocity=0, time=0),
    Message('note_on', channel=9, note=36, velocity=0, time=6),
    Message('note_on', channel=4, note=54, velocity=0, time=8),
    Message('note_on', channel=3, note=54, velocity=0, time=0),
    Message('note_on', channel=0, note=54, velocity=0, time=39),
    Message('note_on', channel=1, note=37, velocity=0, time=33),
    Message('note_on', channel=2, note=47, velocity=127, time=4),
    Message('note_on', channel=0, note=59, velocity=122, time=0),
    Message('note_on', channel=3, note=47, velocity=98, time=0),
    Message('note_on', channel=4, note=47, velocity=98, time=0),
    Message('note_on', channel=9, note=64, velocity=94, time=0),
    Message('note_on', channel=9, note=57, velocity=127, time=0),
    Message('note_on', channel=1, note=35, velocity=127, time=3),
    Message('note_on', channel=9, note=42, velocity=124, time=7),
    Message('note_on', channel=9, note=36, velocity=124, time=0),
    Message('note_on', channel=9, note=57, velocity=0, time=36),
    Message('note_on', channel=9, note=42, velocity=0, time=8),
    Message('note_on', channel=9, note=64, velocity=0, time=6),
    Message('note_on', channel=9, note=36, velocity=0, time=16),
    Message('note_on', channel=0, note=59, velocity=0, time=43),
    Message('note_on', channel=1, note=35, velocity=0, time=10),
    Message('note_on', channel=3, note=47, velocity=0, time=39),
    Message('note_on', channel=4, note=47, velocity=0, time=0),
    Message('note_on', channel=2, note=54, velocity=127, time=72),
    Message('note_on', channel=0, note=59, velocity=119, time=0),
    Message('note_on', channel=3, note=59, velocity=101, time=0),
    Message('note_on', channel=3, note=66, velocity=105, time=0),
    Message('note_on', channel=3, note=71, velocity=89, time=0),
    Message('note_on', channel=3, note=63, velocity=101, time=0),
    Message('note_on', channel=4, note=63, velocity=101, time=0),
    Message('note_on', channel=4, note=59, velocity=101, time=0),
    Message('note_on', channel=4, note=66, velocity=105, time=0),
    Message('note_on', channel=4, note=71, velocity=89, time=0),
    Message('note_on', channel=9, note=63, velocity=119, time=0),
    Message('note_on', channel=1, note=35, velocity=127, time=3),
    Message('note_on', channel=9, note=36, velocity=122, time=7),
    Message('note_on', channel=9, note=42, velocity=89, time=0),
    Message('note_on', channel=9, note=63, velocity=0, time=27),
    Message('note_on', channel=9, note=42, velocity=0, time=9),
    Message('note_on', channel=9, note=36, velocity=0, time=23),
    Message('note_on', channel=3, note=59, velocity=0, time=26),
    Message('note_on', channel=4, note=59, velocity=0, time=0),
    Message('note_on', channel=3, note=66, velocity=0, time=5),
    Message('note_on', channel=4, note=66, velocity=0, time=0),
    Message('note_on', channel=4, note=63, velocity=0, time=6),
    Message('note_on', channel=3, note=63, velocity=0, time=0),
    Message('note_on', channel=4, note=71, velocity=0, time=10),
    Message('note_on', channel=3, note=71, velocity=0, time=0),
    Message('note_on', channel=1, note=35, velocity=0, time=35),
    Message('note_on', channel=0, note=59, velocity=0, time=4),
    Message('note_on', channel=2, note=59, velocity=127, time=85),
    Message('note_on', channel=2, note=63, velocity=127, time=0),
    Message('note_on', channel=0, note=59, velocity=107, time=0),
    Message('note_on', channel=3, note=54, velocity=112, time=0),
    Message('note_on', channel=3, note=47, velocity=82, time=0),
    Message('note_on', channel=4, note=54, velocity=112, time=0),
    Message('note_on', channel=4, note=47, velocity=82, time=0),
    Message('note_on', channel=9, note=38, velocity=124, time=0),
    Message('note_on', channel=9, note=54, velocity=127, time=0),
    Message('note_on', channel=4, note=54, velocity=0, time=7),
    Message('note_on', channel=3, note=54, velocity=0, time=0),
    Message('note_on', channel=4, note=47, velocity=0, time=1),
    Message('note_on', channel=3, note=47, velocity=0, time=0),
    Message('note_on', channel=9, note=42, velocity=119, time=2),
    Message('note_on', channel=9, note=54, velocity=0, time=25),
    Message('note_on', channel=9, note=38, velocity=0, time=15),
    Message('note_on', channel=9, note=42, velocity=0, time=11),
    Message('note_on', channel=9, note=64, velocity=101, time=59),
    Message('note_on', channel=0, note=59, velocity=0, time=16),
    Message('note_on', channel=9, note=64, velocity=0, time=33),
    Message('note_on', channel=0, note=59, velocity=103, time=71),
    Message('note_on', channel=3, note=66, velocity=112, time=0),
    Message('note_on', channel=3, note=63, velocity=109, time=0),
    Message('note_on', channel=3, note=59, velocity=103, time=0),
    Message('note_on', channel=3, note=71, velocity=93, time=0),
    Message('note_on', channel=4, note=66, velocity=112, time=0),
    Message('note_on', channel=4, note=71, velocity=93, time=0),
    Message('note_on', channel=4, note=63, velocity=109, time=0),
    Message('note_on', channel=4, note=59, velocity=103, time=0),
    Message('note_on', channel=9, note=63, velocity=122, time=0),
    Message('note_on', channel=1, note=35, velocity=116, time=3),
    Message('note_on', channel=9, note=42, velocity=89, time=7),
    Message('note_on', channel=9, note=63, velocity=0, time=32),
    Message('note_on', channel=9, note=42, velocity=0, time=6),
    Message('note_on', channel=1, note=35, velocity=0, time=0),
    Message('note_on', channel=0, note=59, velocity=0, time=65),
    Message('note_on', channel=9, note=63, velocity=114, time=7),
    Message('note_on', channel=9, note=38, velocity=122, time=0),
    Message('note_on', channel=1, note=35, velocity=119, time=3),
    Message('note_on', channel=4, note=66, velocity=0, time=7),
    Message('note_on', channel=3, note=66, velocity=0, time=0),
    Message('note_on', channel=9, note=42, velocity=96, time=0),
    Message('note_on', channel=3, note=59, velocity=0, time=6),
    Message('note_on', channel=4, note=59, velocity=0, time=0),
    Message('note_on', channel=4, note=63, velocity=0, time=2),
    Message('note_on', channel=3, note=63, velocity=0, time=0),
    Message('note_on', channel=3, note=71, velocity=0, time=13),
    Message('note_on', channel=4, note=71, velocity=0, time=0),
    Message('note_on', channel=9, note=63, velocity=0, time=5),
    Message('note_on', channel=9, note=38, velocity=0, time=1),
    Message('note_on', channel=9, note=42, velocity=0, time=7),
    Message('note_on', channel=1, note=35, velocity=0, time=19),
    Message('note_on', channel=2, note=63, velocity=0, time=5),
    Message('note_on', channel=2, note=59, velocity=0, time=10),
    Message('note_on', channel=2, note=54, velocity=0, time=14),
    Message('note_on', channel=2, note=47, velocity=0, time=11),
    Message('note_on', channel=2, note=54, velocity=127, time=17),
    Message('note_on', channel=0, note=58, velocity=119, time=0),
    Message('note_on', channel=3, note=54, velocity=112, time=0),
    Message('note_on', channel=4, note=54, velocity=112, time=0),
    Message('note_on', channel=9, note=64, velocity=93, time=0),
    Message('note_on', channel=1, note=42, velocity=112, time=3),
    Message('note_on', channel=9, note=36, velocity=114, time=7),
    Message('note_on', channel=9, note=42, velocity=103, time=0),
    Message('note_on', channel=9, note=64, velocity=0, time=30),
    Message('note_on', channel=9, note=42, velocity=0, time=5),
    Message('note_on', channel=9, note=36, velocity=0, time=20),
    Message('note_on', channel=1, note=42, velocity=0, time=36),
    Message('note_on', channel=9, note=38, velocity=109, time=19),
    Message('note_on', channel=0, note=58, velocity=0, time=10),
    Message('note_on', channel=9, note=42, velocity=89, time=0),
    Message('note_on', channel=9, note=42, velocity=0, time=35),
    Message('note_on', channel=9, note=38, velocity=0, time=3),
    Message('note_on', channel=4, note=54, velocity=0, time=40),
    Message('note_on', channel=3, note=54, velocity=0, time=0),
    Message('note_on', channel=2, note=58, velocity=127, time=32),
    Message('note_on', channel=0, note=56, velocity=116, time=0),
    Message('note_on', channel=3, note=66, velocity=105, time=0),
    Message('note_on', channel=3, note=61, velocity=94, time=0),
    Message('note_on', channel=3, note=70, velocity=109, time=0),
    Message('note_on', channel=4, note=66, velocity=105, time=0),
    Message('note_on', channel=4, note=61, velocity=94, time=0),
    Message('note_on', channel=4, note=70, velocity=109, time=0),
    Message('note_on', channel=9, note=63, velocity=122, time=0),
    Message('note_on', channel=1, note=42, velocity=124, time=3),
    Message('note_on', channel=9, note=36, velocity=116, time=7),
    Message('note_on', channel=9, note=42, velocity=82, time=0),
    Message('note_on', channel=9, note=63, velocity=0, time=22),
    Message('note_on', channel=9, note=42, velocity=0, time=11),
    Message('note_on', channel=9, note=36, velocity=0, time=11),
    Message('note_on', channel=4, note=70, velocity=0, time=28),
    Message('note_on', channel=3, note=70, velocity=0, time=0),
    Message('note_on', channel=4, note=61, velocity=0, time=2),
    Message('note_on', channel=3, note=61, velocity=0, time=0),
    Message('note_on', channel=3, note=66, velocity=0, time=14),
    Message('note_on', channel=4, note=66, velocity=0, time=0),
    Message('note_on', channel=0, note=56, velocity=0, time=15),
    Message('note_on', channel=1, note=42, velocity=0, time=72),
    Message('note_on', channel=2, note=61, velocity=127, time=55),
    Message('note_on', channel=2, note=66, velocity=127, time=0),
    Message('note_on', channel=0, note=58, velocity=119, time=0),
    Message('note_on', channel=3, note=49, velocity=114, time=0),
    Message('note_on', channel=3, note=42, velocity=105, time=0),
    Message('note_on', channel=4, note=49, velocity=114, time=0),
    Message('note_on', channel=4, note=42, velocity=105, time=0),
    Message('note_on', channel=9, note=38, velocity=122, time=0),
    Message('note_on', channel=9, note=54, velocity=127, time=0),
    Message('note_on', channel=4, note=42, velocity=0, time=7),
    Message('note_on', channel=3, note=42, velocity=0, time=0),
    Message('note_on', channel=4, note=49, velocity=0, time=1),
    Message('note_on', channel=3, note=49, velocity=0, time=0),
    Message('note_on', channel=9, note=42, velocity=119, time=2),
    Message('note_on', channel=9, note=54, velocity=0, time=26),
    Message('note_on', channel=9, note=38, velocity=0, time=11),
    Message('note_on', channel=9, note=42, velocity=0, time=3),
    Message('note_on', channel=9, note=64, velocity=101, time=70),
    Message('note_on', channel=0, note=58, velocity=0, time=11),
    Message('note_on', channel=9, note=64, velocity=0, time=28),
    Message('note_on', channel=0, note=59, velocity=109, time=81),
    Message('note_on', channel=3, note=66, velocity=93, time=0),
    Message('note_on', channel=3, note=61, velocity=98, time=0),
    Message('note_on', channel=3, note=70, velocity=105, time=0),
    Message('note_on', channel=4, note=66, velocity=93, time=0),
    Message('note_on', channel=4, note=70, velocity=105, time=0),
    Message('note_on', channel=4, note=61, velocity=98, time=0),
    Message('note_on', channel=9, note=63, velocity=122, time=0),
    Message('note_on', channel=1, note=42, velocity=122, time=3),
    Message('note_on', channel=9, note=42, velocity=91, time=7),
    Message('note_on', channel=9, note=63, velocity=0, time=28),
    Message('note_on', channel=9, note=42, velocity=0, time=8),
    Message('note_on', channel=1, note=42, velocity=0, time=6),
    Message('note_on', channel=3, note=70, velocity=0, time=50),
    Message('note_on', channel=4, note=70, velocity=0, time=0),
    Message('note_on', channel=4, note=61, velocity=0, time=6),
    Message('note_on', channel=3, note=61, velocity=0, time=0),
    Message('note_on', channel=4, note=66, velocity=0, time=8),
    Message('note_on', channel=3, note=66, velocity=0, time=0),
    Message('note_on', channel=9, note=63, velocity=122, time=4),
    Message('note_on', channel=9, note=38, velocity=122, time=0),
    Message('note_on', channel=1, note=42, velocity=119, time=3),
    Message('note_on', channel=9, note=42, velocity=107, time=7),
    Message('note_on', channel=9, note=38, velocity=0, time=22),
    Message('note_on', channel=9, note=63, velocity=0, time=7),
    Message('note_on', channel=9, note=42, velocity=0, time=10),
    Message('note_on', channel=1, note=42, velocity=0, time=8),
    Message('note_on', channel=2, note=58, velocity=0, time=13),
    Message('note_on', channel=2, note=66, velocity=0, time=11),
    Message('note_on', channel=2, note=61, velocity=0, time=4),
    Message('note_on', channel=2, note=54, velocity=0, time=8),
    Message('note_on', channel=2, note=52, velocity=127, time=27),
    Message('note_on', channel=3, note=52, velocity=122, time=0),
    Message('note_on', channel=4, note=52, velocity=122, time=0),
    Message('note_on', channel=9, note=64, velocity=94, time=0),
    Message('note_on', channel=1, note=40, velocity=122, time=3),
    Message('note_on', channel=9, note=42, velocity=114, time=7),
    Message('note_on', channel=9, note=36, velocity=122, time=0),
    Message('note_on', channel=9, note=42, velocity=0, time=45),
    Message('note_on', channel=9, note=64, velocity=0, time=5),
    Message('note_on', channel=9, note=36, velocity=0, time=5),
    Message('note_on', channel=0, note=59, velocity=0, time=17),
    Message('note_on', channel=0, note=56, velocity=116, time=38),
    Message('note_on', channel=1, note=40, velocity=0, time=29),
    Message('note_on', channel=0, note=56, velocity=0, time=38),
    Message('note_on', channel=3, note=52, velocity=0, time=35),
    Message('note_on', channel=4, note=52, velocity=0, time=0),
    Message('note_on', channel=2, note=56, velocity=127, time=18),
    Message('note_on', channel=0, note=52, velocity=109, time=0),
    Message('note_on', channel=3, note=68, velocity=114, time=0),
    Message('note_on', channel=3, note=64, velocity=107, time=0),
    Message('note_on', channel=3, note=59, velocity=101, time=0),
    Message('note_on', channel=4, note=64, velocity=107, time=0),
    Message('note_on', channel=4, note=68, velocity=114, time=0),
    Message('note_on', channel=4, note=59, velocity=101, time=0),
    Message('note_on', channel=9, note=63, velocity=119, time=0),
    Message('note_on', channel=1, note=40, velocity=127, time=3),
    Message('note_on', channel=9, note=42, velocity=77, time=7),
    Message('note_on', channel=9, note=36, velocity=116, time=0),
    Message('note_on', channel=9, note=63, velocity=0, time=27),
    Message('note_on', channel=9, note=42, velocity=0, time=17),
    Message('note_on', channel=9, note=36, velocity=0, time=1),
    Message('note_on', channel=4, note=68, velocity=0, time=71),
    Message('note_on', channel=3, note=68, velocity=0, time=0),
    Message('note_on', channel=4, note=59, velocity=0, time=2),
    Message('note_on', channel=3, note=59, velocity=0, time=0),
    Message('note_on', channel=3, note=64, velocity=0, time=3),
    Message('note_on', channel=4, note=64, velocity=0, time=0),
    Message('note_on', channel=1, note=40, velocity=0, time=26),
    Message('note_on', channel=2, note=64, velocity=127, time=83),
    Message('note_on', channel=2, note=59, velocity=127, time=0),
    Message('note_on', channel=3, note=52, velocity=103, time=0),
    Message('note_on', channel=3, note=59, velocity=105, time=0),
    Message('note_on', channel=4, note=59, velocity=105, time=0),
    Message('note_on', channel=4, note=52, velocity=103, time=0),
    Message('note_on', channel=9, note=54, velocity=127, time=0),
    Message('note_on', channel=9, note=38, velocity=116, time=0),
    Message('note_on', channel=4, note=52, velocity=0, time=8),
    Message('note_on', channel=3, note=52, velocity=0, time=0),
    Message('note_on', channel=4, note=59, velocity=0, time=2),
    Message('note_on', channel=3, note=59, velocity=0, time=0),
    Message('note_on', channel=9, note=42, velocity=119, time=0),
    Message('note_on', channel=9, note=54, velocity=0, time=25),
    Message('note_on', channel=9, note=38, velocity=0, time=12),
    Message('note_on', channel=9, note=42, velocity=0, time=4),
    Message('note_on', channel=9, note=64, velocity=101, time=69),
    Message('note_on', channel=9, note=64, velocity=0, time=49),
    Message('note_on', channel=3, note=68, velocity=112, time=71),
    Message('note_on', channel=3, note=64, velocity=101, time=0),
    Message('note_on', channel=3, note=59, velocity=91, time=0),
    Message('note_on', channel=4, note=68, velocity=112, time=0),
    Message('note_on', channel=4, note=64, velocity=101, time=0),
    Message('note_on', channel=4, note=59, velocity=91, time=0),
    Message('note_on', channel=9, note=63, velocity=122, time=0),
    Message('note_on', channel=9, note=42, velocity=93, time=10),
    Message('note_on', channel=0, note=52, velocity=0, time=14),
    Message('note_on', channel=9, note=63, velocity=0, time=18),
    Message('note_on', channel=9, note=42, velocity=0, time=5),
    Message('note_on', channel=9, note=63, velocity=114, time=73),
    Message('note_on', channel=9, note=38, velocity=116, time=0),
    Message('note_on', channel=1, note=35, velocity=119, time=3),
    Message('note_on', channel=4, note=64, velocity=0, time=4),
    Message('note_on', channel=3, note=64, velocity=0, time=0),
    Message('note_on', channel=3, note=59, velocity=0, time=2),
    Message('note_on', channel=4, note=59, velocity=0, time=0),
    Message('note_on', channel=9, note=42, velocity=98, time=1),
    Message('note_on', channel=4, note=68, velocity=0, time=3),
    Message('note_on', channel=3, note=68, velocity=0, time=0),
    Message('note_on', channel=2, note=56, velocity=0, time=17),
    Message('note_on', channel=9, note=63, velocity=0, time=6),
    Message('note_on', channel=9, note=42, velocity=0, time=12),
    Message('note_on', channel=9, note=38, velocity=0, time=1),
    Message('note_on', channel=1, note=35, velocity=0, time=11),
    Message('note_on', channel=2, note=52, velocity=0, time=55),
    Message('note_on', channel=2, note=52, velocity=127, time=5),
    Message('note_on', channel=6, note=83, velocity=114, time=0),
    Message('note_on', channel=9, note=64, velocity=93, time=0),
    Message('note_on', channel=1, note=40, velocity=124, time=3),
    Message('note_on', channel=9, note=42, velocity=116, time=7),
    Message('note_on', channel=9, note=36, velocity=107, time=0),
    Message('note_on', channel=9, note=64, velocity=0, time=30),
    Message('note_on', channel=9, note=36, velocity=0, time=1),
    Message('note_on', channel=9, note=42, velocity=0, time=7),
    Message('note_on', channel=2, note=64, velocity=0, time=32),
    Message('note_on', channel=6, note=83, velocity=0, time=1),
    Message('note_on', channel=2, note=59, velocity=0, time=14),
    Message('note_on', channel=6, note=85, velocity=114, time=25),
    Message('note_on', channel=9, note=38, velocity=122, time=0),
    Message('note_on', channel=9, note=42, velocity=97, time=10),
    Message('note_on', channel=1, note=40, velocity=0, time=2),
    Message('note_on', channel=9, note=38, velocity=0, time=27),
    Message('note_on', channel=9, note=42, velocity=0, time=6),
    Message('note_on', channel=6, note=85, velocity=0, time=14),
    Message('note_on', channel=2, note=56, velocity=127, time=61),
    Message('note_on', channel=3, note=59, velocity=94, time=0),
    Message('note_on', channel=3, note=68, velocity=109, time=0),
    Message('note_on', channel=3, note=64, velocity=98, time=0),
    Message('note_on', channel=4, note=64, velocity=98, time=0),
    Message('note_on', channel=4, note=59, velocity=94, time=0),
    Message('note_on', channel=4, note=68, velocity=109, time=0),
    Message('note_on', channel=6, note=87, velocity=122, time=0),
    Message('note_on', channel=9, note=46, velocity=87, time=0),
    Message('note_on', channel=9, note=63, velocity=122, time=0),
    Message('note_on', channel=1, note=40, velocity=127, time=3),
    Message('note_on', channel=9, note=36, velocity=124, time=7),
    Message('note_on', channel=9, note=63, velocity=0, time=22),
    Message('note_on', channel=9, note=46, velocity=0, time=4),
    Message('note_on', channel=9, note=36, velocity=0, time=13),
    Message('note_on', channel=6, note=87, velocity=0, time=37),
    Message('note_on', channel=4, note=59, velocity=0, time=30),
    Message('note_on', channel=3, note=59, velocity=0, time=0),
    Message('note_on', channel=3, note=64, velocity=0, time=10),
    Message('note_on', channel=4, note=64, velocity=0, time=0),
    Message('note_on', channel=4, note=68, velocity=0, time=6),
    Message('note_on', channel=3, note=68, velocity=0, time=0),
    Message('note_on', channel=1, note=40, velocity=0, time=32),
    Message('note_on', channel=2, note=64, velocity=127, time=76),
    Message('note_on', channel=2, note=59, velocity=127, time=0),
    Message('note_on', channel=3, note=40, velocity=98, time=0),
    Message('note_on', channel=3, note=47, velocity=116, time=0),
    Message('note_on', channel=4, note=40, velocity=98, time=0),
    Message('note_on', channel=4, note=47, velocity=116, time=0),
    Message('note_on', channel=6, note=87, velocity=119, time=0),
    Message('note_on', channel=9, note=54, velocity=127, time=0),
    Message('note_on', channel=9, note=38, velocity=122, time=0),
    Message('note_on', channel=1, note=39, velocity=127, time=3),
    Message('note_on', channel=9, note=42, velocity=124, time=7),
    Message('note_on', channel=4, note=47, velocity=0, time=15),
    Message('note_on', channel=3, note=47, velocity=0, time=0),
    Message('note_on', channel=4, note=40, velocity=0, time=1),
    Message('note_on', channel=3, note=40, velocity=0, time=0),
    Message('note_on', channel=9, note=54, velocity=0, time=10),
    Message('note_on', channel=9, note=38, velocity=0, time=11),
    Message('note_on', channel=9, note=42, velocity=0, time=6),
    Message('note_on', channel=6, note=87, velocity=0, time=67),
    Message('note_on', channel=6, note=85, velocity=114, time=0),
    Message('note_on', channel=9, note=64, velocity=101, time=0),
    Message('note_on', channel=9, note=64, velocity=0, time=39),
    Message('note_on', channel=1, note=39, velocity=0, time=43),
    Message('note_on', channel=6, note=85, velocity=0, time=3),
    Message('note_on', channel=3, note=68, velocity=112, time=35),
    Message('note_on', channel=3, note=64, velocity=103, time=0),
    Message('note_on', channel=3, note=59, velocity=96, time=0),
    Message('note_on', channel=4, note=64, velocity=103, time=0),
    Message('note_on', channel=4, note=59, velocity=96, time=0),
    Message('note_on', channel=4, note=68, velocity=112, time=0),
    Message('note_on', channel=6, note=83, velocity=114, time=0),
    Message('note_on', channel=9, note=38, velocity=101, time=0),
    Message('note_on', channel=9, note=63, velocity=122, time=0),
    Message('note_on', channel=1, note=37, velocity=122, time=3),
    Message('note_on', channel=9, note=42, velocity=77, time=7),
    Message('note_on', channel=9, note=38, velocity=0, time=18),
    Message('note_on', channel=9, note=42, velocity=0, time=10),
    Message('note_on', channel=9, note=63, velocity=0, time=0),
    Message('note_on', channel=9, note=63, velocity=122, time=82),
    Message('note_on', channel=9, note=38, velocity=122, time=0),
    Message('note_on', channel=3, note=59, velocity=0, time=5),
    Message('note_on', channel=4, note=59, velocity=0, time=0),
    Message('note_on', channel=4, note=64, velocity=0, time=1),
    Message('note_on', channel=3, note=64, velocity=0, time=0),
    Message('note_on', channel=4, note=68, velocity=0, time=9),
    Message('note_on', channel=3, note=68, velocity=0, time=0),
    Message('note_on', channel=2, note=52, velocity=0, time=21),
    Message('note_on', channel=9, note=38, velocity=0, time=0),
    Message('note_on', channel=9, note=63, velocity=0, time=3),
    Message('note_on', channel=2, note=64, velocity=0, time=4),
    Message('note_on', channel=2, note=59, velocity=0, time=8),
    Message('note_on', channel=6, note=83, velocity=0, time=1),
    Message('note_on', channel=2, note=56, velocity=0, time=12),
    Message('note_on', channel=1, note=37, velocity=0, time=23),
    Message('note_on', channel=1, note=35, velocity=127, time=33),
    Message('note_on', channel=2, note=47, velocity=127, time=0),
    Message('note_on', channel=0, note=59, velocity=112, time=0),
    Message('note_on', channel=3, note=47, velocity=98, time=0),
    Message('note_on', channel=4, note=47, velocity=98, time=0),
    Message('note_on', channel=9, note=64, velocity=94, time=0),
    Message('note_on', channel=9, note=36, velocity=124, time=10),
    Message('note_on', channel=9, note=42, velocity=124, time=0),
    Message('note_on', channel=9, note=42, velocity=0, time=44),
    Message('note_on', channel=9, note=64, velocity=0, time=6),
    Message('note_on', channel=9, note=36, velocity=0, time=16),
    Message('note_on', channel=0, note=59, velocity=0, time=44),
    Message('note_on', channel=1, note=35, velocity=0, time=6),
    Message('note_on', channel=4, note=47, velocity=0, time=42),
    Message('note_on', channel=3, note=47, velocity=0, time=0),
    Message('note_on', channel=1, note=35, velocity=127, time=72),
    Message('note_on', channel=2, note=54, velocity=127, time=0),
    Message('note_on', channel=0, note=59, velocity=112, time=0),
    Message('note_on', channel=3, note=59, velocity=101, time=0),
    Message('note_on', channel=3, note=63, velocity=101, time=0),
    Message('note_on', channel=3, note=71, velocity=89, time=0),
    Message('note_on', channel=3, note=66, velocity=105, time=0),
    Message('note_on', channel=4, note=59, velocity=101, time=0),
    Message('note_on', channel=4, note=71, velocity=89, time=0),
    Message('note_on', channel=4, note=63, velocity=101, time=0),
    Message('note_on', channel=4, note=66, velocity=105, time=0),
    Message('note_on', channel=9, note=63, velocity=119, time=0),
    Message('note_on', channel=9, note=36, velocity=122, time=10),
    Message('note_on', channel=9, note=42, velocity=89, time=0),
    Message('note_on', channel=9, note=63, velocity=0, time=27),
    Message('note_on', channel=9, note=42, velocity=0, time=9),
    Message('note_on', channel=9, note=36, velocity=0, time=23),
    Message('note_on', channel=3, note=59, velocity=0, time=26),
    Message('note_on', channel=4, note=59, velocity=0, time=0),
    Message('note_on', channel=3, note=66, velocity=0, time=5),
    Message('note_on', channel=4, note=66, velocity=0, time=0),
    Message('note_on', channel=3, note=63, velocity=0, time=6),
    Message('note_on', channel=4, note=63, velocity=0, time=0),
    Message('note_on', channel=4, note=71, velocity=0, time=10),
    Message('note_on', channel=3, note=71, velocity=0, time=0),
    Message('note_on', channel=0, note=59, velocity=0, time=3),
    Message('note_on', channel=1, note=35, velocity=0, time=29),
    Message('note_on', channel=2, note=63, velocity=127, time=92),
    Message('note_on', channel=2, note=59, velocity=127, time=0),
    Message('note_on', channel=0, note=59, velocity=116, time=0),
    Message('note_on', channel=3, note=47, velocity=82, time=0),
    Message('note_on', channel=3, note=54, velocity=112, time=0),
    Message('note_on', channel=4, note=47, velocity=82, time=0),
    Message('note_on', channel=4, note=54, velocity=112, time=0),
    Message('note_on', channel=9, note=54, velocity=127, time=0),
    Message('note_on', channel=9, note=38, velocity=124, time=0),
    Message('note_on', channel=4, note=54, velocity=0, time=7),
    Message('note_on', channel=3, note=54, velocity=0, time=0),
    Message('note_on', channel=4, note=47, velocity=0, time=1),
    Message('note_on', channel=3, note=47, velocity=0, time=0),
    Message('note_on', channel=9, note=42, velocity=119, time=2),
    Message('note_on', channel=9, note=54, velocity=0, time=25),
    Message('note_on', channel=9, note=38, velocity=0, time=15),
    Message('note_on', channel=9, note=42, velocity=0, time=11),
    Message('note_on', channel=0, note=59, velocity=0, time=53),
    Message('note_on', channel=9, note=64, velocity=101, time=6),
    Message('note_on', channel=9, note=64, velocity=0, time=49),
    Message('note_on', channel=1, note=35, velocity=116, time=71),
    Message('note_on', channel=0, note=59, velocity=109, time=0),
    Message('note_on', channel=3, note=66, velocity=112, time=0),
    Message('note_on', channel=3, note=71, velocity=93, time=0),
    Message('note_on', channel=3, note=59, velocity=103, time=0),
    Message('note_on', channel=3, note=63, velocity=109, time=0),
    Message('note_on', channel=4, note=66, velocity=112, time=0),
    Message('note_on', channel=4, note=71, velocity=93, time=0),
    Message('note_on', channel=4, note=59, velocity=103, time=0),
    Message('note_on', channel=4, note=63, velocity=109, time=0),
    Message('note_on', channel=9, note=63, velocity=122, time=0),
    Message('note_on', channel=9, note=42, velocity=89, time=10),
    Message('note_on', channel=9, note=63, velocity=0, time=32),
    Message('note_on', channel=1, note=35, velocity=0, time=3),
    Message('note_on', channel=9, note=42, velocity=0, time=3),
    Message('note_on', channel=1, note=35, velocity=119, time=72),
    Message('note_on', channel=9, note=63, velocity=114, time=0),
    Message('note_on', channel=9, note=38, velocity=122, time=0),
    Message('note_on', channel=0, note=59, velocity=0, time=6),
    Message('note_on', channel=4, note=66, velocity=0, time=4),
    Message('note_on', channel=3, note=66, velocity=0, time=0),
    Message('note_on', channel=9, note=42, velocity=96, time=0),
    Message('note_on', channel=3, note=59, velocity=0, time=6),
    Message('note_on', channel=4, note=59, velocity=0, time=0),
    Message('note_on', channel=3, note=63, velocity=0, time=2),
    Message('note_on', channel=4, note=63, velocity=0, time=0),
    Message('note_on', channel=3, note=71, velocity=0, time=13),
    Message('note_on', channel=4, note=71, velocity=0, time=0),
    Message('note_on', channel=9, note=63, velocity=0, time=5),
    Message('note_on', channel=9, note=38, velocity=0, time=1),
    Message('note_on', channel=9, note=42, velocity=0, time=7),
    Message('note_on', channel=1, note=35, velocity=0, time=16),
    Message('note_on', channel=2, note=63, velocity=0, time=8),
    Message('note_on', channel=2, note=59, velocity=0, time=10),
    Message('note_on', channel=2, note=54, velocity=0, time=14),
    Message('note_on', channel=2, note=47, velocity=0, time=11),
    Message('note_on', channel=1, note=42, velocity=112, time=17),
    Message('note_on', channel=2, note=54, velocity=127, time=0),
    Message('note_on', channel=0, note=58, velocity=114, time=0),
    Message('note_on', channel=3, note=54, velocity=112, time=0),
    Message('note_on', channel=4, note=54, velocity=112, time=0),
    Message('note_on', channel=9, note=64, velocity=93, time=0),
    Message('note_on', channel=9, note=36, velocity=114, time=10),
    Message('note_on', channel=9, note=42, velocity=103, time=0),
    Message('note_on', channel=9, note=64, velocity=0, time=30),
    Message('note_on', channel=9, note=42, velocity=0, time=5),
    Message('note_on', channel=9, note=36, velocity=0, time=20),
    Message('note_on', channel=1, note=42, velocity=0, time=33),
    Message('note_on', channel=0, note=58, velocity=0, time=14),
    Message('note_on', channel=9, note=38, velocity=109, time=8),
    Message('note_on', channel=9, note=42, velocity=89, time=10),
    Message('note_on', channel=9, note=42, velocity=0, time=35),
    Message('note_on', channel=9, note=38, velocity=0, time=3),
    Message('note_on', channel=4, note=54, velocity=0, time=40),
    Message('note_on', channel=3, note=54, velocity=0, time=0),
    Message('note_on', channel=1, note=42, velocity=124, time=32),
    Message('note_on', channel=2, note=58, velocity=127, time=0),
    Message('note_on', channel=0, note=56, velocity=105, time=0),
    Message('note_on', channel=3, note=61, velocity=94, time=0),
    Message('note_on', channel=3, note=66, velocity=105, time=0),
    Message('note_on', channel=3, note=70, velocity=109, time=0),
    Message('note_on', channel=4, note=70, velocity=109, time=0),
    Message('note_on', channel=4, note=66, velocity=105, time=0),
    Message('note_on', channel=4, note=61, velocity=94, time=0),
    Message('note_on', channel=9, note=63, velocity=122, time=0),
    Message('note_on', channel=9, note=36, velocity=116, time=10),
    Message('note_on', channel=9, note=42, velocity=82, time=0),
    Message('note_on', channel=9, note=63, velocity=0, time=22),
    Message('note_on', channel=9, note=42, velocity=0, time=11),
    Message('note_on', channel=9, note=36, velocity=0, time=11),
    Message('note_on', channel=4, note=70, velocity=0, time=28),
    Message('note_on', channel=3, note=70, velocity=0, time=0),
    Message('note_on', channel=4, note=61, velocity=0, time=2),
    Message('note_on', channel=3, note=61, velocity=0, time=0),
    Message('note_on', channel=0, note=56, velocity=0, time=14),
    Message('note_on', channel=4, note=66, velocity=0, time=0),
    Message('note_on', channel=3, note=66, velocity=0, time=0),
    Message('note_on', channel=1, note=42, velocity=0, time=84),
    Message('note_on', channel=2, note=66, velocity=127, time=58),
    Message('note_on', channel=2, note=61, velocity=127, time=0),
    Message('note_on', channel=0, note=58, velocity=98, time=0),
    Message('note_on', channel=3, note=42, velocity=105, time=0),
    Message('note_on', channel=3, note=49, velocity=114, time=0),
    Message('note_on', channel=4, note=42, velocity=105, time=0),
    Message('note_on', channel=4, note=49, velocity=114, time=0),
    Message('note_on', channel=9, note=38, velocity=122, time=0),
    Message('note_on', channel=9, note=54, velocity=127, time=0),
    Message('note_on', channel=4, note=42, velocity=0, time=7),
    Message('note_on', channel=3, note=42, velocity=0, time=0),
    Message('note_on', channel=4, note=49, velocity=0, time=1),
    Message('note_on', channel=3, note=49, velocity=0, time=0),
    Message('note_on', channel=9, note=42, velocity=119, time=2),
    Message('note_on', channel=9, note=54, velocity=0, time=26),
    Message('note_on', channel=9, note=38, velocity=0, time=11),
    Message('note_on', channel=9, note=42, velocity=0, time=3),
    Message('note_on', channel=9, note=64, velocity=101, time=70),
    Message('note_on', channel=0, note=58, velocity=0, time=2),
    Message('note_on', channel=9, note=64, velocity=0, time=37),
    Message('note_on', channel=1, note=42, velocity=122, time=81),
    Message('note_on', channel=0, note=56, velocity=103, time=0),
    Message('note_on', channel=3, note=70, velocity=105, time=0),
    Message('note_on', channel=3, note=66, velocity=93, time=0),
    Message('note_on', channel=3, note=61, velocity=98, time=0),
    Message('note_on', channel=4, note=66, velocity=93, time=0),
    Message('note_on', channel=4, note=70, velocity=105, time=0),
    Message('note_on', channel=4, note=61, velocity=98, time=0),
    Message('note_on', channel=9, note=63, velocity=122, time=0),
    Message('note_on', channel=9, note=42, velocity=91, time=10),
    Message('note_on', channel=9, note=63, velocity=0, time=28),
    Message('note_on', channel=9, note=42, velocity=0, time=8),
    Message('note_on', channel=1, note=42, velocity=0, time=3),
    Message('note_on', channel=4, note=70, velocity=0, time=53),
    Message('note_on', channel=3, note=70, velocity=0, time=0),
    Message('note_on', channel=3, note=61, velocity=0, time=6),
    Message('note_on', channel=4, note=61, velocity=0, time=0),
    Message('note_on', channel=3, note=66, velocity=0, time=8),
    Message('note_on', channel=4, note=66, velocity=0, time=0),
    Message('note_on', channel=1, note=42, velocity=119, time=4),
    Message('note_on', channel=9, note=63, velocity=122, time=0),
    Message('note_on', channel=9, note=38, velocity=122, time=0),
    Message('note_on', channel=0, note=56, velocity=0, time=8),
    Message('note_on', channel=9, note=42, velocity=107, time=2),
    Message('note_on', channel=9, note=38, velocity=0, time=22),
    Message('note_on', channel=9, note=63, velocity=0, time=7),
    Message('note_on', channel=9, note=42, velocity=0, time=10),
    Message('note_on', channel=1, note=42, velocity=0, time=5),
    Message('note_on', channel=2, note=58, velocity=0, time=16),
    Message('note_on', channel=2, note=66, velocity=0, time=11),
    Message('note_on', channel=2, note=61, velocity=0, time=4),
    Message('note_on', channel=2, note=54, velocity=0, time=8),
    Message('note_on', channel=1, note=40, velocity=122, time=27),
    Message('note_on', channel=2, note=52, velocity=127, time=0),
    Message('note_on', channel=0, note=52, velocity=98, time=0),
    Message('note_on', channel=3, note=52, velocity=122, time=0),
    Message('note_on', channel=4, note=52, velocity=122, time=0),
    Message('note_on', channel=9, note=64, velocity=94, time=0),
    Message('note_on', channel=9, note=42, velocity=114, time=10),
    Message('note_on', channel=9, note=36, velocity=122, time=0),
    Message('note_on', channel=9, note=42, velocity=0, time=45),
    Message('note_on', channel=9, note=64, velocity=0, time=5),
    Message('note_on', channel=9, note=36, velocity=0, time=5),
    Message('note_on', channel=1, note=40, velocity=0, time=81),
    Message('note_on', channel=3, note=52, velocity=0, time=76),
    Message('note_on', channel=4, note=52, velocity=0, time=0),
    Message('note_on', channel=1, note=40, velocity=127, time=18),
    Message('note_on', channel=2, note=56, velocity=127, time=0),
    Message('note_on', channel=3, note=59, velocity=101, time=0),
    Message('note_on', channel=3, note=68, velocity=114, time=0),
    Message('note_on', channel=3, note=64, velocity=107, time=0),
    Message('note_on', channel=4, note=68, velocity=114, time=0),
    Message('note_on', channel=4, note=64, velocity=107, time=0),
    Message('note_on', channel=4, note=59, velocity=101, time=0),
    Message('note_on', channel=9, note=63, velocity=119, time=0),
    Message('note_on', channel=9, note=36, velocity=116, time=10),
    Message('note_on', channel=9, note=42, velocity=77, time=0),
    Message('note_on', channel=9, note=63, velocity=0, time=27),
    Message('note_on', channel=9, note=42, velocity=0, time=17),
    Message('note_on', channel=9, note=36, velocity=0, time=1),
    Message('note_on', channel=0, note=52, velocity=0, time=52),
    Message('note_on', channel=4, note=68, velocity=0, time=19),
    Message('note_on', channel=3, note=68, velocity=0, time=0),
    Message('note_on', channel=3, note=59, velocity=0, time=2),
    Message('note_on', channel=4, note=59, velocity=0, time=0),
    Message('note_on', channel=4, note=64, velocity=0, time=3),
    Message('note_on', channel=3, note=64, velocity=0, time=0),
    Message('note_on', channel=1, note=40, velocity=0, time=23),
    Message('note_on', channel=2, note=59, velocity=127, time=86),
    Message('note_on', channel=2, note=64, velocity=127, time=0),
    Message('note_on', channel=3, note=52, velocity=103, time=0),
    Message('note_on', channel=3, note=59, velocity=105, time=0),
    Message('note_on', channel=4, note=59, velocity=105, time=0),
    Message('note_on', channel=4, note=52, velocity=103, time=0),
    Message('note_on', channel=9, note=38, velocity=116, time=0),
    Message('note_on', channel=9, note=54, velocity=127, time=0),
    Message('note_on', channel=4, note=52, velocity=0, time=8),
    Message('note_on', channel=3, note=52, velocity=0, time=0),
    Message('note_on', channel=4, note=59, velocity=0, time=2),
    Message('note_on', channel=3, note=59, velocity=0, time=0),
    Message('note_on', channel=9, note=42, velocity=119, time=0),
    Message('note_on', channel=9, note=54, velocity=0, time=25),
    Message('note_on', channel=9, note=38, velocity=0, time=12),
    Message('note_on', channel=9, note=42, velocity=0, time=4),
    Message('note_on', channel=9, note=64, velocity=101, time=69),
    Message('note_on', channel=9, note=64, velocity=0, time=49),
    Message('note_on', channel=3, note=59, velocity=91, time=71),
    Message('note_on', channel=3, note=64, velocity=101, time=0),
    Message('note_on', channel=3, note=68, velocity=112, time=0),
    Message('note_on', channel=4, note=68, velocity=112, time=0),
    Message('note_on', channel=4, note=64, velocity=101, time=0),
    Message('note_on', channel=4, note=59, velocity=91, time=0),
    Message('note_on', channel=9, note=63, velocity=122, time=0),
    Message('note_on', channel=9, note=42, velocity=93, time=10),
    Message('note_on', channel=9, note=63, velocity=0, time=32),
    Message('note_on', channel=9, note=42, velocity=0, time=5),
    Message('note_on', channel=1, note=35, velocity=119, time=73),
    Message('note_on', channel=9, note=63, velocity=114, time=0),
    Message('note_on', channel=9, note=38, velocity=116, time=0),
    Message('note_on', channel=4, note=64, velocity=0, time=7),
    Message('note_on', channel=3, note=64, velocity=0, time=0),
    Message('note_on', channel=4, note=59, velocity=0, time=2),
    Message('note_on', channel=3, note=59, velocity=0, time=0),
    Message('note_on', channel=9, note=42, velocity=98, time=1),
    Message('note_on', channel=4, note=68, velocity=0, time=3),
    Message('note_on', channel=3, note=68, velocity=0, time=0),
    Message('note_on', channel=2, note=56, velocity=0, time=17),
    Message('note_on', channel=9, note=63, velocity=0, time=6),
    Message('note_on', channel=9, note=42, velocity=0, time=12),
    Message('note_on', channel=9, note=38, velocity=0, time=1),
    Message('note_on', channel=1, note=35, velocity=0, time=8),
    Message('note_on', channel=2, note=52, velocity=0, time=58),
    Message('note_on', channel=1, note=40, velocity=124, time=5),
    Message('note_on', channel=2, note=52, velocity=127, time=0),
    Message('note_on', channel=6, note=83, velocity=112, time=0),
    Message('note_on', channel=9, note=64, velocity=93, time=0),
    Message('note_on', channel=9, note=36, velocity=107, time=10),
    Message('note_on', channel=9, note=42, velocity=116, time=0),
    Message('note_on', channel=9, note=64, velocity=0, time=30),
    Message('note_on', channel=9, note=36, velocity=0, time=1),
    Message('note_on', channel=9, note=42, velocity=0, time=7),
    Message('note_on', channel=2, note=64, velocity=0, time=32),
    Message('note_on', channel=6, note=83, velocity=0, time=4),
    Message('note_on', channel=2, note=59, velocity=0, time=11),
    Message('note_on', channel=6, note=85, velocity=119, time=25),
    Message('note_on', channel=9, note=38, velocity=122, time=0),
    Message('note_on', channel=1, note=40, velocity=0, time=9),
    Message('note_on', channel=9, note=42, velocity=97, time=1),
    Message('note_on', channel=9, note=38, velocity=0, time=29),
    Message('note_on', channel=9, note=42, velocity=0, time=6),
    Message('note_on', channel=6, note=85, velocity=0, time=4),
    Message('note_on', channel=1, note=40, velocity=127, time=71),
    Message('note_on', channel=2, note=56, velocity=127, time=0),
    Message('note_on', channel=3, note=59, velocity=94, time=0),
    Message('note_on', channel=3, note=64, velocity=98, time=0),
    Message('note_on', channel=3, note=68, velocity=109, time=0),
    Message('note_on', channel=4, note=68, velocity=109, time=0),
    Message('note_on', channel=4, note=59, velocity=94, time=0),
    Message('note_on', channel=4, note=64, velocity=98, time=0),
    Message('note_on', channel=6, note=87, velocity=122, time=0),
    Message('note_on', channel=9, note=46, velocity=87, time=0),
    Message('note_on', channel=9, note=63, velocity=122, time=0),
    Message('note_on', channel=9, note=36, velocity=124, time=10),
    Message('note_on', channel=9, note=63, velocity=0, time=22),
    Message('note_on', channel=9, note=46, velocity=0, time=4),
    Message('note_on', channel=9, note=36, velocity=0, time=13),
    Message('note_on', channel=6, note=87, velocity=0, time=35),
    Message('note_on', channel=3, note=59, velocity=0, time=32),
    Message('note_on', channel=4, note=59, velocity=0, time=0),
    Message('note_on', channel=3, note=64, velocity=0, time=10),
    Message('note_on', channel=4, note=64, velocity=0, time=0),
    Message('note_on', channel=3, note=68, velocity=0, time=6),
    Message('note_on', channel=4, note=68, velocity=0, time=0),
    Message('note_on', channel=1, note=40, velocity=0, time=29),
    Message('note_on', channel=1, note=32, velocity=127, time=79),
    Message('note_on', channel=2, note=59, velocity=127, time=0),
    Message('note_on', channel=2, note=64, velocity=127, time=0),
    Message('note_on', channel=3, note=47, velocity=116, time=0),
    Message('note_on', channel=3, note=40, velocity=98, time=0),
    Message('note_on', channel=4, note=47, velocity=116, time=0),
    Message('note_on', channel=4, note=40, velocity=98, time=0),
    Message('note_on', channel=6, note=87, velocity=122, time=0),
    Message('note_on', channel=9, note=38, velocity=122, time=0),
    Message('note_on', channel=9, note=54, velocity=127, time=0),
    Message('note_on', channel=9, note=42, velocity=124, time=10),
    Message('note_on', channel=4, note=47, velocity=0, time=15),
    Message('note_on', channel=3, note=47, velocity=0, time=0),
    Message('note_on', channel=4, note=40, velocity=0, time=1),
    Message('note_on', channel=3, note=40, velocity=0, time=0),
    Message('note_on', channel=9, note=54, velocity=0, time=10),
    Message('note_on', channel=9, note=38, velocity=0, time=11),
    Message('note_on', channel=9, note=42, velocity=0, time=6),
    Message('note_on', channel=6, note=87, velocity=0, time=41),
    Message('note_on', channel=6, note=85, velocity=114, time=26),
    Message('note_on', channel=9, note=64, velocity=101, time=0),
    Message('note_on', channel=9, note=64, velocity=0, time=39),
    Message('note_on', channel=6, note=85, velocity=0, time=28),
    Message('note_on', channel=1, note=32, velocity=0, time=12),
    Message('note_on', channel=1, note=35, velocity=122, time=41),
    Message('note_on', channel=3, note=64, velocity=103, time=0),
    Message('note_on', channel=3, note=68, velocity=112, time=0),
    Message('note_on', channel=3, note=59, velocity=96, time=0),
    Message('note_on', channel=4, note=64, velocity=103, time=0),
    Message('note_on', channel=4, note=59, velocity=96, time=0),
    Message('note_on', channel=4, note=68, velocity=112, time=0),
    Message('note_on', channel=6, note=83, velocity=119, time=0),
    Message('note_on', channel=9, note=38, velocity=101, time=0),
    Message('note_on', channel=9, note=63, velocity=122, time=0),
    Message('note_on', channel=9, note=42, velocity=77, time=10),
    Message('note_on', channel=9, note=38, velocity=0, time=18),
    Message('note_on', channel=9, note=42, velocity=0, time=10),
    Message('note_on', channel=9, note=63, velocity=0, time=0),
    Message('note_on', channel=6, note=83, velocity=0, time=60),
    Message('note_on', channel=9, note=63, velocity=122, time=22),
    Message('note_on', channel=9, note=38, velocity=122, time=0),
    Message('note_on', channel=3, note=59, velocity=0, time=5),
    Message('note_on', channel=4, note=59, velocity=0, time=0),
    Message('note_on', channel=3, note=64, velocity=0, time=1),
    Message('note_on', channel=4, note=64, velocity=0, time=0),
    Message('note_on', channel=4, note=68, velocity=0, time=9),
    Message('note_on', channel=3, note=68, velocity=0, time=0),
    Message('note_on', channel=9, note=38, velocity=0, time=21),
    Message('note_on', channel=2, note=52, velocity=0, time=0),
    Message('note_on', channel=9, note=63, velocity=0, time=3),
    Message('note_on', channel=2, note=64, velocity=0, time=4),
    Message('note_on', channel=2, note=59, velocity=0, time=8),
    Message('note_on', channel=2, note=56, velocity=0, time=13),
    Message('note_on', channel=1, note=35, velocity=0, time=20),
    Message('note_on', channel=1, note=35, velocity=127, time=36),
    Message('note_on', channel=2, note=47, velocity=127, time=0),
    Message('note_on', channel=3, note=47, velocity=98, time=0),
    Message('note_on', channel=4, note=47, velocity=98, time=0),
    Message('note_on', channel=9, note=64, velocity=94, time=0),
    Message('note_on', channel=9, note=36, velocity=124, time=10),
    Message('note_on', channel=9, note=42, velocity=124, time=0),
    Message('note_on', channel=9, note=42, velocity=0, time=44),
    Message('note_on', channel=9, note=64, velocity=0, time=6),
    Message('note_on', channel=9, note=36, velocity=0, time=16),
    Message('note_on', channel=1, note=35, velocity=0, time=82),
    Message('note_on', channel=4, note=47, velocity=0, time=10),
    Message('note_on', channel=3, note=47, velocity=0, time=0),
    Message('note_on', channel=1, note=35, velocity=127, time=72),
    Message('note_on', channel=2, note=54, velocity=127, time=0),
    Message('note_on', channel=3, note=59, velocity=101, time=0),
    Message('note_on', channel=3, note=66, velocity=105, time=0),
    Message('note_on', channel=3, note=63, velocity=101, time=0),
    Message('note_on', channel=3, note=71, velocity=89, time=0),
    Message('note_on', channel=4, note=66, velocity=105, time=0),
    Message('note_on', channel=4, note=59, velocity=101, time=0),
    Message('note_on', channel=4, note=71, velocity=89, time=0),
    Message('note_on', channel=4, note=63, velocity=101, time=0),
    Message('note_on', channel=9, note=63, velocity=119, time=0),
    Message('note_on', channel=9, note=42, velocity=89, time=10),
    Message('note_on', channel=9, note=36, velocity=122, time=0),
    Message('note_on', channel=9, note=63, velocity=0, time=27),
    Message('note_on', channel=9, note=42, velocity=0, time=9),
    Message('note_on', channel=9, note=36, velocity=0, time=23),
    Message('note_on', channel=3, note=59, velocity=0, time=26),
    Message('note_on', channel=4, note=59, velocity=0, time=0),
    Message('note_on', channel=4, note=66, velocity=0, time=5),
    Message('note_on', channel=3, note=66, velocity=0, time=0),
    Message('note_on', channel=4, note=63, velocity=0, time=6),
    Message('note_on', channel=3, note=63, velocity=0, time=0),
    Message('note_on', channel=4, note=71, velocity=0, time=10),
    Message('note_on', channel=3, note=71, velocity=0, time=0),
    Message('note_on', channel=1, note=35, velocity=0, time=87),
    Message('note_on', channel=2, note=63, velocity=127, time=37),
    Message('note_on', channel=2, note=59, velocity=127, time=0),
    Message('note_on', channel=3, note=47, velocity=82, time=0),
    Message('note_on', channel=3, note=54, velocity=112, time=0),
    Message('note_on', channel=4, note=47, velocity=82, time=0),
    Message('note_on', channel=4, note=54, velocity=112, time=0),
    Message('note_on', channel=9, note=38, velocity=124, time=0),
    Message('note_on', channel=9, note=54, velocity=127, time=0),
    Message('note_on', channel=4, note=54, velocity=0, time=7),
    Message('note_on', channel=3, note=54, velocity=0, time=0),
    Message('note_on', channel=4, note=47, velocity=0, time=1),
    Message('note_on', channel=3, note=47, velocity=0, time=0),
    Message('note_on', channel=9, note=42, velocity=119, time=2),
    Message('note_on', channel=9, note=54, velocity=0, time=25),
    Message('note_on', channel=9, note=38, velocity=0, time=15),
    Message('note_on', channel=9, note=42, velocity=0, time=11),
    Message('note_on', channel=9, note=64, velocity=101, time=59),
    Message('note_on', channel=9, note=64, velocity=0, time=49),
    Message('note_on', channel=1, note=35, velocity=122, time=71),
    Message('note_on', channel=3, note=71, velocity=93, time=0),
    Message('note_on', channel=3, note=66, velocity=112, time=0),
    Message('note_on', channel=3, note=63, velocity=109, time=0),
    Message('note_on', channel=3, note=59, velocity=103, time=0),
    Message('note_on', channel=4, note=59, velocity=103, time=0),
    Message('note_on', channel=4, note=66, velocity=112, time=0),
    Message('note_on', channel=4, note=63, velocity=109, time=0),
    Message('note_on', channel=4, note=71, velocity=93, time=0),
    Message('note_on', channel=9, note=63, velocity=122, time=0),
    Message('note_on', channel=9, note=42, velocity=89, time=10),
    Message('note_on', channel=1, note=35, velocity=0, time=30),
    Message('note_on', channel=9, note=63, velocity=0, time=2),
    Message('note_on', channel=9, note=42, velocity=0, time=6),
    Message('note_on', channel=1, note=35, velocity=116, time=72),
    Message('note_on', channel=9, note=38, velocity=122, time=0),
    Message('note_on', channel=9, note=63, velocity=114, time=0),
    Message('note_on', channel=4, note=66, velocity=0, time=10),
    Message('note_on', channel=3, note=66, velocity=0, time=0),
    Message('note_on', channel=9, note=42, velocity=96, time=0),
    Message('note_on', channel=4, note=59, velocity=0, time=6),
    Message('note_on', channel=3, note=59, velocity=0, time=0),
    Message('note_on', channel=3, note=63, velocity=0, time=2),
    Message('note_on', channel=4, note=63, velocity=0, time=0),
    Message('note_on', channel=4, note=71, velocity=0, time=13),
    Message('note_on', channel=3, note=71, velocity=0, time=0),
    Message('note_on', channel=9, note=63, velocity=0, time=5),
    Message('note_on', channel=9, note=38, velocity=0, time=1),
    Message('note_on', channel=9, note=42, velocity=0, time=7),
    Message('note_on', channel=2, note=63, velocity=0, time=24),
    Message('note_on', channel=1, note=35, velocity=0, time=1),
    Message('note_on', channel=2, note=59, velocity=0, time=9),
    Message('note_on', channel=2, note=54, velocity=0, time=14),
    Message('note_on', channel=2, note=47, velocity=0, time=11),
    Message('note_on', channel=1, note=30, velocity=127, time=17),
    Message('note_on', channel=2, note=54, velocity=127, time=0),
    Message('note_on', channel=3, note=54, velocity=112, time=0),
    Message('note_on', channel=4, note=54, velocity=112, time=0),
    Message('note_on', channel=9, note=64, velocity=93, time=0),
    Message('note_on', channel=9, note=42, velocity=103, time=10),
    Message('note_on', channel=9, note=36, velocity=114, time=0),
    Message('note_on', channel=9, note=64, velocity=0, time=30),
    Message('note_on', channel=9, note=42, velocity=0, time=5),
    Message('note_on', channel=9, note=36, velocity=0, time=20),
    Message('note_on', channel=9, note=38, velocity=109, time=55),
    Message('note_on', channel=9, note=42, velocity=89, time=10),
    Message('note_on', channel=1, note=30, velocity=0, time=21),
    Message('note_on', channel=9, note=42, velocity=0, time=14),
    Message('note_on', channel=9, note=38, velocity=0, time=3),
    Message('note_on', channel=4, note=54, velocity=0, time=40),
    Message('note_on', channel=3, note=54, velocity=0, time=0),
    Message('note_on', channel=1, note=30, velocity=127, time=32),
    Message('note_on', channel=2, note=58, velocity=127, time=0),
    Message('note_on', channel=3, note=61, velocity=94, time=0),
    Message('note_on', channel=3, note=66, velocity=105, time=0),
    Message('note_on', channel=3, note=70, velocity=109, time=0),
    Message('note_on', channel=4, note=61, velocity=94, time=0),
    Message('note_on', channel=4, note=66, velocity=105, time=0),
    Message('note_on', channel=4, note=70, velocity=109, time=0),
    Message('note_on', channel=9, note=63, velocity=122, time=0),
    Message('note_on', channel=9, note=42, velocity=82, time=10),
    Message('note_on', channel=9, note=36, velocity=116, time=0),
    Message('note_on', channel=9, note=63, velocity=0, time=22),
    Message('note_on', channel=9, note=42, velocity=0, time=11),
    Message('note_on', channel=9, note=36, velocity=0, time=11),
    Message('note_on', channel=4, note=70, velocity=0, time=28),
    Message('note_on', channel=3, note=70, velocity=0, time=0),
    Message('note_on', channel=4, note=61, velocity=0, time=2),
    Message('note_on', channel=3, note=61, velocity=0, time=0),
    Message('note_on', channel=3, note=66, velocity=0, time=14),
    Message('note_on', channel=4, note=66, velocity=0, time=0),
    Message('note_on', channel=1, note=30, velocity=0, time=95),
    Message('note_on', channel=2, note=61, velocity=127, time=47),
    Message('note_on', channel=2, note=66, velocity=127, time=0),
    Message('note_on', channel=3, note=42, velocity=105, time=0),
    Message('note_on', channel=3, note=49, velocity=114, time=0),
    Message('note_on', channel=4, note=42, velocity=105, time=0),
    Message('note_on', channel=4, note=49, velocity=114, time=0),
    Message('note_on', channel=9, note=38, velocity=122, time=0),
    Message('note_on', channel=9, note=54, velocity=127, time=0),
    Message('note_on', channel=4, note=42, velocity=0, time=7),
    Message('note_on', channel=3, note=42, velocity=0, time=0),
    Message('note_on', channel=4, note=49, velocity=0, time=1),
    Message('note_on', channel=3, note=49, velocity=0, time=0),
    Message('note_on', channel=9, note=42, velocity=119, time=2),
    Message('note_on', channel=9, note=54, velocity=0, time=26),
    Message('note_on', channel=9, note=38, velocity=0, time=11),
    Message('note_on', channel=9, note=42, velocity=0, time=3),
    Message('note_on', channel=9, note=64, velocity=101, time=70),
    Message('note_on', channel=9, note=64, velocity=0, time=39),
    Message('note_on', channel=1, note=42, velocity=119, time=81),
    Message('note_on', channel=3, note=61, velocity=98, time=0),
    Message('note_on', channel=3, note=70, velocity=105, time=0),
    Message('note_on', channel=3, note=66, velocity=93, time=0),
    Message('note_on', channel=4, note=66, velocity=93, time=0),
    Message('note_on', channel=4, note=61, velocity=98, time=0),
    Message('note_on', channel=4, note=70, velocity=105, time=0),
    Message('note_on', channel=9, note=63, velocity=122, time=0),
    Message('note_on', channel=9, note=42, velocity=91, time=10),
    Message('note_on', channel=9, note=63, velocity=0, time=28),
    Message('note_on', channel=9, note=42, velocity=0, time=8),
    Message('note_on', channel=1, note=42, velocity=0, time=11),
    Message('note_on', channel=4, note=70, velocity=0, time=45),
    Message('note_on', channel=3, note=70, velocity=0, time=0),
    Message('note_on', channel=4, note=61, velocity=0, time=6),
    Message('note_on', channel=3, note=61, velocity=0, time=0),
    Message('note_on', channel=3, note=66, velocity=0, time=8),
    Message('note_on', channel=4, note=66, velocity=0, time=0),
    Message('note_on', channel=1, note=42, velocity=127, time=4),
    Message('note_on', channel=9, note=63, velocity=122, time=0),
    Message('note_on', channel=9, note=38, velocity=122, time=0),
    Message('note_on', channel=9, note=42, velocity=107, time=10),
    Message('note_on', channel=9, note=38, velocity=0, time=22),
    Message('note_on', channel=9, note=63, velocity=0, time=7),
    Message('note_on', channel=9, note=42, velocity=0, time=10),
    Message('note_on', channel=2, note=58, velocity=0, time=21),
    Message('note_on', channel=2, note=66, velocity=0, time=11),
    Message('note_on', channel=2, note=61, velocity=0, time=4),
    Message('note_on', channel=2, note=54, velocity=0, time=8),
    Message('note_on', channel=1, note=42, velocity=0, time=8),
    Message('note_on', channel=1, note=40, velocity=119, time=19),
    Message('note_on', channel=2, note=52, velocity=127, time=0),
    Message('note_on', channel=3, note=52, velocity=122, time=0),
    Message('note_on', channel=4, note=52, velocity=122, time=0),
    Message('note_on', channel=9, note=64, velocity=94, time=0),
    Message('note_on', channel=9, note=36, velocity=122, time=10),
    Message('note_on', channel=9, note=42, velocity=114, time=0),
    Message('note_on', channel=9, note=42, velocity=0, time=45),
    Message('note_on', channel=9, note=64, velocity=0, time=5),
    Message('note_on', channel=9, note=36, velocity=0, time=5),
    Message('note_on', channel=1, note=40, velocity=0, time=109),
    Message('note_on', channel=4, note=52, velocity=0, time=48),
    Message('note_on', channel=3, note=52, velocity=0, time=0),
    Message('note_on', channel=1, note=28, velocity=122, time=18),
    Message('note_on', channel=2, note=56, velocity=127, time=0),
    Message('note_on', channel=3, note=59, velocity=101, time=0),
    Message('note_on', channel=3, note=68, velocity=114, time=0),
    Message('note_on', channel=3, note=64, velocity=107, time=0),
    Message('note_on', channel=4, note=68, velocity=114, time=0),
    Message('note_on', channel=4, note=64, velocity=107, time=0),
    Message('note_on', channel=4, note=59, velocity=101, time=0),
    Message('note_on', channel=9, note=63, velocity=119, time=0),
    Message('note_on', channel=9, note=36, velocity=116, time=10),
    Message('note_on', channel=9, note=42, velocity=77, time=0),
    Message('note_on', channel=9, note=63, velocity=0, time=27),
    Message('note_on', channel=9, note=42, velocity=0, time=17),
    Message('note_on', channel=9, note=36, velocity=0, time=1),
    Message('note_on', channel=4, note=68, velocity=0, time=71),
    Message('note_on', channel=3, note=68, velocity=0, time=0),
    Message('note_on', channel=3, note=59, velocity=0, time=2),
    Message('note_on', channel=4, note=59, velocity=0, time=0),
    Message('note_on', channel=4, note=64, velocity=0, time=3),
    Message('note_on', channel=3, note=64, velocity=0, time=0),
    Message('note_on', channel=1, note=28, velocity=0, time=107),
    Message('note_on', channel=2, note=59, velocity=127, time=2),
    Message('note_on', channel=2, note=64, velocity=127, time=0),
    Message('note_on', channel=3, note=52, velocity=103, time=0),
    Message('note_on', channel=3, note=59, velocity=105, time=0),
    Message('note_on', channel=4, note=59, velocity=105, time=0),
    Message('note_on', channel=4, note=52, velocity=103, time=0),
    Message('note_on', channel=9, note=54, velocity=127, time=0),
    Message('note_on', channel=9, note=38, velocity=116, time=0),
    Message('note_on', channel=4, note=52, velocity=0, time=8),
    Message('note_on', channel=3, note=52, velocity=0, time=0),
    Message('note_on', channel=4, note=59, velocity=0, time=2),
    Message('note_on', channel=3, note=59, velocity=0, time=0),
    Message('note_on', channel=9, note=42, velocity=119, time=0),
    Message('note_on', channel=9, note=54, velocity=0, time=25),
    Message('note_on', channel=9, note=38, velocity=0, time=12),
    Message('note_on', channel=9, note=42, velocity=0, time=4),
    Message('note_on', channel=9, note=64, velocity=101, time=69),
    Message('note_on', channel=9, note=64, velocity=0, time=49),
    Message('note_on', channel=3, note=59, velocity=91, time=71),
    Message('note_on', channel=3, note=64, velocity=101, time=0),
    Message('note_on', channel=3, note=68, velocity=112, time=0),
    Message('note_on', channel=4, note=68, velocity=112, time=0),
    Message('note_on', channel=4, note=59, velocity=91, time=0),
    Message('note_on', channel=4, note=64, velocity=101, time=0),
    Message('note_on', channel=9, note=63, velocity=122, time=0),
    Message('note_on', channel=9, note=42, velocity=93, time=10),
    Message('note_on', channel=9, note=63, velocity=0, time=32),
    Message('note_on', channel=9, note=42, velocity=0, time=5),
    Message('note_on', channel=1, note=35, velocity=124, time=73),
    Message('note_on', channel=9, note=38, velocity=116, time=0),
    Message('note_on', channel=9, note=63, velocity=114, time=0),
    Message('note_on', channel=4, note=64, velocity=0, time=7),
    Message('note_on', channel=3, note=64, velocity=0, time=0),
    Message('note_on', channel=4, note=59, velocity=0, time=2),
    Message('note_on', channel=3, note=59, velocity=0, time=0),
    Message('note_on', channel=9, note=42, velocity=98, time=1),
    Message('note_on', channel=4, note=68, velocity=0, time=3),
    Message('note_on', channel=3, note=68, velocity=0, time=0),
    Message('note_on', channel=2, note=56, velocity=0, time=17),
    Message('note_on', channel=9, note=63, velocity=0, time=6),
    Message('note_on', channel=9, note=42, velocity=0, time=12),
    Message('note_on', channel=9, note=38, velocity=0, time=1),
    Message('note_on', channel=1, note=35, velocity=0, time=27),
    Message('note_on', channel=2, note=52, velocity=0, time=39),
    Message('note_on', channel=1, note=40, velocity=122, time=5),
    Message('note_on', channel=2, note=52, velocity=127, time=0),
    Message('note_on', channel=9, note=64, velocity=93, time=0),
    Message('note_on', channel=9, note=42, velocity=116, time=10),
    Message('note_on', channel=9, note=36, velocity=107, time=0),
    Message('note_on', channel=9, note=64, velocity=0, time=30),
    Message('note_on', channel=9, note=36, velocity=0, time=1),
    Message('note_on', channel=9, note=42, velocity=0, time=7),
    Message('note_on', channel=2, note=64, velocity=0, time=32),
    Message('note_on', channel=2, note=59, velocity=0, time=15),
    Message('note_on', channel=9, note=38, velocity=122, time=25),
    Message('note_on', channel=9, note=42, velocity=97, time=10),
    Message('note_on', channel=1, note=40, velocity=0, time=13),
    Message('note_on', channel=9, note=38, velocity=0, time=16),
    Message('note_on', channel=9, note=42, velocity=0, time=6),
    Message('note_on', channel=1, note=40, velocity=124, time=75),
    Message('note_on', channel=2, note=56, velocity=127, time=0),
    Message('note_on', channel=3, note=59, velocity=94, time=0),
    Message('note_on', channel=3, note=68, velocity=109, time=0),
    Message('note_on', channel=3, note=64, velocity=98, time=0),
    Message('note_on', channel=4, note=68, velocity=109, time=0),
    Message('note_on', channel=4, note=59, velocity=94, time=0),
    Message('note_on', channel=4, note=64, velocity=98, time=0),
    Message('note_on', channel=9, note=63, velocity=122, time=0),
    Message('note_on', channel=9, note=46, velocity=87, time=0),
    Message('note_on', channel=9, note=36, velocity=124, time=10),
    Message('note_on', channel=9, note=63, velocity=0, time=22),
    Message('note_on', channel=9, note=46, velocity=0, time=4),
    Message('note_on', channel=9, note=36, velocity=0, time=13),
    Message('note_on', channel=4, note=59, velocity=0, time=67),
    Message('note_on', channel=3, note=59, velocity=0, time=0),
    Message('note_on', channel=4, note=64, velocity=0, time=10),
    Message('note_on', channel=3, note=64, velocity=0, time=0),
    Message('note_on', channel=3, note=68, velocity=0, time=6),
    Message('note_on', channel=4, note=68, velocity=0, time=0),
    Message('note_on', channel=1, note=40, velocity=0, time=39),
    Message('note_on', channel=1, note=39, velocity=124, time=69),
    Message('note_on', channel=2, note=59, velocity=127, time=0),
    Message('note_on', channel=2, note=64, velocity=127, time=0),
    Message('note_on', channel=3, note=47, velocity=116, time=0),
    Message('note_on', channel=3, note=40, velocity=98, time=0),
    Message('note_on', channel=4, note=40, velocity=98, time=0),
    Message('note_on', channel=4, note=47, velocity=116, time=0),
    Message('note_on', channel=9, note=54, velocity=127, time=0),
    Message('note_on', channel=9, note=38, velocity=122, time=0),
    Message('note_on', channel=9, note=42, velocity=124, time=10),
    Message('note_on', channel=4, note=47, velocity=0, time=15),
    Message('note_on', channel=3, note=47, velocity=0, time=0),
    Message('note_on', channel=4, note=40, velocity=0, time=1),
    Message('note_on', channel=3, note=40, velocity=0, time=0),
    Message('note_on', channel=9, note=54, velocity=0, time=10),
    Message('note_on', channel=9, note=38, velocity=0, time=11),
    Message('note_on', channel=9, note=42, velocity=0, time=6),
    Message('note_on', channel=9, note=64, velocity=101, time=67),
    Message('note_on', channel=9, note=64, velocity=0, time=39),
    Message('note_on', channel=1, note=39, velocity=0, time=47),
    Message('note_on', channel=1, note=37, velocity=119, time=34),
    Message('note_on', channel=0, note=56, velocity=124, time=0),
    Message('note_on', channel=3, note=64, velocity=103, time=0),
    Message('note_on', channel=3, note=68, velocity=112, time=0),
    Message('note_on', channel=3, note=59, velocity=96, time=0),
    Message('note_on', channel=4, note=64, velocity=103, time=0),
    Message('note_on', channel=4, note=68, velocity=112, time=0),
    Message('note_on', channel=4, note=59, velocity=96, time=0),
    Message('note_on', channel=9, note=38, velocity=101, time=0),
    Message('note_on', channel=9, note=63, velocity=122, time=0),
    Message('note_on', channel=9, note=42, velocity=77, time=10),
    Message('note_on', channel=9, note=38, velocity=0, time=18),
    Message('note_on', channel=9, note=42, velocity=0, time=10),
    Message('note_on', channel=9, note=63, velocity=0, time=0),
    Message('note_on', channel=0, note=56, velocity=0, time=4),
    Message('note_on', channel=0, note=56, velocity=114, time=78),
    Message('note_on', channel=9, note=63, velocity=122, time=0),
    Message('note_on', channel=9, note=38, velocity=122, time=0),
    Message('note_on', channel=3, note=59, velocity=0, time=5),
    Message('note_on', channel=4, note=59, velocity=0, time=0),
    Message('note_on', channel=4, note=64, velocity=0, time=1),
    Message('note_on', channel=3, note=64, velocity=0, time=0),
    Message('note_on', channel=3, note=68, velocity=0, time=9),
    Message('note_on', channel=4, note=68, velocity=0, time=0),
    Message('note_on', channel=2, note=52, velocity=0, time=21),
    Message('note_on', channel=9, note=38, velocity=0, time=0),
    Message('note_on', channel=9, note=63, velocity=0, time=3),
    Message('note_on', channel=2, note=64, velocity=0, time=4),
    Message('note_on', channel=0, note=56, velocity=0, time=2),
    Message('note_on', channel=2, note=59, velocity=0, time=6),
    Message('note_on', channel=2, note=56, velocity=0, time=13),
    Message('note_on', channel=1, note=37, velocity=0, time=56),
    Message('note_on', channel=1, note=35, velocity=127, time=0),
    Message('note_on', channel=2, note=47, velocity=127, time=0),
    Message('note_on', channel=0, note=59, velocity=119, time=0),
    Message('note_on', channel=3, note=47, velocity=98, time=0),
    Message('note_on', channel=4, note=47, velocity=98, time=0),
    Message('note_on', channel=9, note=64, velocity=94, time=0),
    Message('note_on', channel=9, note=42, velocity=124, time=10),
    Message('note_on', channel=9, note=36, velocity=124, time=0),
    Message('note_on', channel=9, note=42, velocity=0, time=44),
    Message('note_on', channel=9, note=64, velocity=0, time=6),
    Message('note_on', channel=9, note=36, velocity=0, time=16),
    Message('note_on', channel=0, note=59, velocity=0, time=33),
    Message('note_on', channel=1, note=35, velocity=0, time=17),
    Message('note_on', channel=4, note=47, velocity=0, time=42),
    Message('note_on', channel=3, note=47, velocity=0, time=0),
    Message('note_on', channel=1, note=35, velocity=127, time=72),
    Message('note_on', channel=2, note=54, velocity=127, time=0),
    Message('note_on', channel=0, note=59, velocity=114, time=0),
    Message('note_on', channel=3, note=59, velocity=101, time=0),
    Message('note_on', channel=3, note=66, velocity=105, time=0),
    Message('note_on', channel=3, note=63, velocity=101, time=0),
    Message('note_on', channel=3, note=71, velocity=89, time=0),
    Message('note_on', channel=4, note=59, velocity=101, time=0),
    Message('note_on', channel=4, note=66, velocity=105, time=0),
    Message('note_on', channel=4, note=71, velocity=89, time=0),
    Message('note_on', channel=4, note=63, velocity=101, time=0),
    Message('note_on', channel=9, note=63, velocity=119, time=0),
    Message('note_on', channel=9, note=42, velocity=89, time=10),
    Message('note_on', channel=9, note=36, velocity=122, time=0),
    Message('note_on', channel=9, note=63, velocity=0, time=27),
    Message('note_on', channel=9, note=42, velocity=0, time=9),
    Message('note_on', channel=9, note=36, velocity=0, time=23),
    Message('note_on', channel=3, note=59, velocity=0, time=26),
    Message('note_on', channel=4, note=59, velocity=0, time=0),
    Message('note_on', channel=4, note=66, velocity=0, time=5),
    Message('note_on', channel=3, note=66, velocity=0, time=0),
    Message('note_on', channel=4, note=63, velocity=0, time=6),
    Message('note_on', channel=3, note=63, velocity=0, time=0),
    Message('note_on', channel=0, note=59, velocity=0, time=7),
    Message('note_on', channel=3, note=71, velocity=0, time=3),
    Message('note_on', channel=4, note=71, velocity=0, time=0),
    Message('note_on', channel=1, note=35, velocity=0, time=32),
    Message('note_on', channel=2, note=59, velocity=127, time=92),
    Message('note_on', channel=2, note=63, velocity=127, time=0),
    Message('note_on', channel=0, note=59, velocity=116, time=0),
    Message('note_on', channel=3, note=47, velocity=82, time=0),
    Message('note_on', channel=3, note=54, velocity=112, time=0),
    Message('note_on', channel=4, note=47, velocity=82, time=0),
    Message('note_on', channel=4, note=54, velocity=112, time=0),
    Message('note_on', channel=9, note=38, velocity=124, time=0),
    Message('note_on', channel=9, note=54, velocity=127, time=0),
    Message('note_on', channel=4, note=54, velocity=0, time=7),
    Message('note_on', channel=3, note=54, velocity=0, time=0),
    Message('note_on', channel=4, note=47, velocity=0, time=1),
    Message('note_on', channel=3, note=47, velocity=0, time=0),
    Message('note_on', channel=9, note=42, velocity=119, time=2),
    Message('note_on', channel=9, note=54, velocity=0, time=25),
    Message('note_on', channel=9, note=38, velocity=0, time=15),
    Message('note_on', channel=9, note=42, velocity=0, time=11),
    Message('note_on', channel=9, note=64, velocity=101, time=59),
    Message('note_on', channel=0, note=59, velocity=0, time=3),
    Message('note_on', channel=9, note=64, velocity=0, time=46),
    Message('note_on', channel=1, note=35, velocity=116, time=71),
    Message('note_on', channel=0, note=59, velocity=116, time=0),
    Message('note_on', channel=3, note=71, velocity=93, time=0),
    Message('note_on', channel=3, note=66, velocity=112, time=0),
    Message('note_on', channel=3, note=63, velocity=109, time=0),
    Message('note_on', channel=3, note=59, velocity=103, time=0),
    Message('note_on', channel=4, note=59, velocity=103, time=0),
    Message('note_on', channel=4, note=66, velocity=112, time=0),
    Message('note_on', channel=4, note=63, velocity=109, time=0),
    Message('note_on', channel=4, note=71, velocity=93, time=0),
    Message('note_on', channel=9, note=63, velocity=122, time=0),
    Message('note_on', channel=9, note=42, velocity=89, time=10),
    Message('note_on', channel=9, note=63, velocity=0, time=32),
    Message('note_on', channel=1, note=35, velocity=0, time=3),
    Message('note_on', channel=9, note=42, velocity=0, time=3),
    Message('note_on', channel=1, note=35, velocity=119, time=72),
    Message('note_on', channel=9, note=38, velocity=122, time=0),
    Message('note_on', channel=9, note=63, velocity=114, time=0),
    Message('note_on', channel=3, note=66, velocity=0, time=10),
    Message('note_on', channel=4, note=66, velocity=0, time=0),
    Message('note_on', channel=9, note=42, velocity=96, time=0),
    Message('note_on', channel=4, note=59, velocity=0, time=6),
    Message('note_on', channel=3, note=59, velocity=0, time=0),
    Message('note_on', channel=3, note=63, velocity=0, time=2),
    Message('note_on', channel=4, note=63, velocity=0, time=0),
    Message('note_on', channel=0, note=59, velocity=0, time=10),
    Message('note_on', channel=4, note=71, velocity=0, time=3),
    Message('note_on', channel=3, note=71, velocity=0, time=0),
    Message('note_on', channel=9, note=63, velocity=0, time=5),
    Message('note_on', channel=9, note=38, velocity=0, time=1),
    Message('note_on', channel=9, note=42, velocity=0, time=7),
    Message('note_on', channel=1, note=35, velocity=0, time=16),
    Message('note_on', channel=2, note=63, velocity=0, time=8),
    Message('note_on', channel=2, note=59, velocity=0, time=10),
    Message('note_on', channel=2, note=54, velocity=0, time=14),
    Message('note_on', channel=2, note=47, velocity=0, time=11),
    Message('note_on', channel=1, note=39, velocity=122, time=17),
    Message('note_on', channel=2, note=51, velocity=127, time=0),
    Message('note_on', channel=0, note=58, velocity=124, time=0),
    Message('note_on', channel=3, note=51, velocity=116, time=0),
    Message('note_on', channel=4, note=51, velocity=116, time=0),
    Message('note_on', channel=9, note=64, velocity=93, time=0),
    Message('note_on', channel=9, note=36, velocity=114, time=10),
    Message('note_on', channel=9, note=42, velocity=103, time=0),
    Message('note_on', channel=9, note=64, velocity=0, time=30),
    Message('note_on', channel=9, note=42, velocity=0, time=5),
    Message('note_on', channel=9, note=36, velocity=0, time=20),
    Message('note_on', channel=1, note=39, velocity=0, time=51),
    Message('note_on', channel=9, note=38, velocity=109, time=4),
    Message('note_on', channel=9, note=42, velocity=89, time=10),
    Message('note_on', channel=3, note=51, velocity=0, time=16),
    Message('note_on', channel=4, note=51, velocity=0, time=0),
    Message('note_on', channel=0, note=58, velocity=0, time=9),
    Message('note_on', channel=9, note=42, velocity=0, time=10),
    Message('note_on', channel=9, note=38, velocity=0, time=3),
    Message('note_on', channel=1, note=39, velocity=122, time=72),
    Message('note_on', channel=2, note=58, velocity=127, time=0),
    Message('note_on', channel=2, note=63, velocity=127, time=0),
    Message('note_on', channel=2, note=55, velocity=127, time=0),
    Message('note_on', channel=2, note=67, velocity=127, time=0),
    Message('note_on', channel=0, note=56, velocity=124, time=0),
    Message('note_on', channel=3, note=67, velocity=98, time=0),
    Message('note_on', channel=3, note=63, velocity=114, time=0),
    Message('note_on', channel=3, note=58, velocity=96, time=0),
    Message('note_on', channel=4, note=67, velocity=98, time=0),
    Message('note_on', channel=4, note=63, velocity=114, time=0),
    Message('note_on', channel=4, note=58, velocity=96, time=0),
    Message('note_on', channel=9, note=63, velocity=122, time=0),
    Message('note_on', channel=9, note=36, velocity=116, time=10),
    Message('note_on', channel=9, note=42, velocity=82, time=0),
    Message('note_on', channel=9, note=63, velocity=0, time=22),
    Message('note_on', channel=9, note=42, velocity=0, time=11),
    Message('note_on', channel=9, note=36, velocity=0, time=11),
    Message('note_on', channel=3, note=67, velocity=0, time=71),
    Message('note_on', channel=4, note=67, velocity=0, time=0),
    Message('note_on', channel=3, note=58, velocity=0, time=8),
    Message('note_on', channel=4, note=58, velocity=0, time=0),
    Message('note_on', channel=3, note=63, velocity=0, time=3),
    Message('note_on', channel=4, note=63, velocity=0, time=0),
    Message('note_on', channel=1, note=39, velocity=0, time=19),
    Message('note_on', channel=0, note=56, velocity=0, time=10),
    Message('note_on', channel=2, note=55, velocity=0, time=4),
    Message('note_on', channel=2, note=55, velocity=127, time=71),
    Message('note_on', channel=0, note=58, velocity=119, time=0),
    Message('note_on', channel=9, note=54, velocity=127, time=0),
    Message('note_on', channel=9, note=38, velocity=122, time=0),
    Message('note_on', channel=9, note=42, velocity=119, time=10),
    Message('note_on', channel=2, note=58, velocity=0, time=17),
    Message('note_on', channel=2, note=67, velocity=0, time=2),
    Message('note_on', channel=2, note=63, velocity=0, time=3),
    Message('note_on', channel=9, note=54, velocity=0, time=4),
    Message('note_on', channel=9, note=38, velocity=0, time=11),
    Message('note_on', channel=9, note=42, velocity=0, time=3),
    Message('note_on', channel=9, note=64, velocity=101, time=70),
    Message('note_on', channel=0, note=58, velocity=0, time=18),
    Message('note_on', channel=9, note=64, velocity=0, time=21),
    Message('note_on', channel=1, note=39, velocity=116, time=81),
    Message('note_on', channel=2, note=67, velocity=127, time=0),
    Message('note_on', channel=2, note=58, velocity=127, time=0),
    Message('note_on', channel=2, note=63, velocity=127, time=0),
    Message('note_on', channel=0, note=59, velocity=109, time=0),
    Message('note_on', channel=3, note=58, velocity=109, time=0),
    Message('note_on', channel=3, note=63, velocity=116, time=0),
    Message('note_on', channel=3, note=67, velocity=103, time=0),
    Message('note_on', channel=4, note=63, velocity=116, time=0),
    Message('note_on', channel=4, note=58, velocity=109, time=0),
    Message('note_on', channel=4, note=67, velocity=103, time=0),
    Message('note_on', channel=9, note=63, velocity=122, time=0),
    Message('note_on', channel=9, note=42, velocity=91, time=10),
    Message('note_on', channel=9, note=63, velocity=0, time=28),
    Message('note_on', channel=9, note=42, velocity=0, time=8),
    Message('note_on', channel=1, note=39, velocity=0, time=42),
    Message('note_on', channel=1, note=35, velocity=112, time=32),
    Message('note_on', channel=9, note=63, velocity=122, time=0),
    Message('note_on', channel=9, note=38, velocity=122, time=0),
    Message('note_on', channel=9, note=42, velocity=107, time=10),
    Message('note_on', channel=4, note=63, velocity=0, time=4),
    Message('note_on', channel=3, note=63, velocity=0, time=0),
    Message('note_on', channel=3, note=58, velocity=0, time=1),
    Message('note_on', channel=4, note=58, velocity=0, time=0),
    Message('note_on', channel=3, note=67, velocity=0, time=1),
    Message('note_on', channel=4, note=67, velocity=0, time=0),
    Message('note_on', channel=9, note=38, velocity=0, time=16),
    Message('note_on', channel=9, note=63, velocity=0, time=7),
    Message('note_on', channel=9, note=42, velocity=0, time=10),
    Message('note_on', channel=2, note=58, velocity=0, time=45),
    Message('note_on', channel=2, note=63, velocity=0, time=10),
    Message('note_on', channel=2, note=67, velocity=0, time=1),
    Message('note_on', channel=2, note=55, velocity=0, time=9),
    Message('note_on', channel=2, note=51, velocity=0, time=1),
    Message('note_on', channel=1, note=40, velocity=127, time=5),
    Message('note_on', channel=2, note=52, velocity=127, time=0),
    Message('note_on', channel=3, note=52, velocity=122, time=0),
    Message('note_on', channel=4, note=52, velocity=122, time=0),
    Message('note_on', channel=9, note=64, velocity=94, time=0),
    Message('note_on', channel=1, note=35, velocity=0, time=2),
    Message('note_on', channel=9, note=36, velocity=122, time=8),
    Message('note_on', channel=9, note=42, velocity=114, time=0),
    Message('note_on', channel=9, note=42, velocity=0, time=45),
    Message('note_on', channel=9, note=64, velocity=0, time=5),
    Message('note_on', channel=9, note=36, velocity=0, time=5),
    Message('note_on', channel=0, note=59, velocity=0, time=31),
    Message('note_on', channel=1, note=40, velocity=0, time=20),
    Message('note_on', channel=0, note=56, velocity=112, time=4),
    Message('note_on', channel=0, note=56, velocity=0, time=53),
    Message('note_on', channel=4, note=52, velocity=0, time=49),
    Message('note_on', channel=3, note=52, velocity=0, time=0),
    Message('note_on', channel=1, note=40, velocity=124, time=18),
    Message('note_on', channel=2, note=56, velocity=127, time=0),
    Message('note_on', channel=2, note=68, velocity=127, time=0),
    Message('note_on', channel=2, note=59, velocity=127, time=0),
    Message('note_on', channel=2, note=64, velocity=127, time=0),
    Message('note_on', channel=0, note=52, velocity=114, time=0),
    Message('note_on', channel=3, note=68, velocity=114, time=0),
    Message('note_on', channel=3, note=64, velocity=107, time=0),
    Message('note_on', channel=3, note=59, velocity=101, time=0),
    Message('note_on', channel=4, note=68, velocity=114, time=0),
    Message('note_on', channel=4, note=64, velocity=107, time=0),
    Message('note_on', channel=4, note=59, velocity=101, time=0),
    Message('note_on', channel=9, note=63, velocity=119, time=0),
    Message('note_on', channel=9, note=36, velocity=116, time=10),
    Message('note_on', channel=9, note=42, velocity=77, time=0),
    Message('note_on', channel=9, note=63, velocity=0, time=27),
    Message('note_on', channel=9, note=42, velocity=0, time=17),
    Message('note_on', channel=9, note=36, velocity=0, time=1),
    Message('note_on', channel=3, note=68, velocity=0, time=71),
    Message('note_on', channel=4, note=68, velocity=0, time=0),
    Message('note_on', channel=3, note=59, velocity=0, time=2),
    Message('note_on', channel=4, note=59, velocity=0, time=0),
    Message('note_on', channel=3, note=64, velocity=0, time=3),
    Message('note_on', channel=4, note=64, velocity=0, time=0),
    Message('note_on', channel=1, note=40, velocity=0, time=5),
    Message('note_on', channel=2, note=59, velocity=0, time=7),
    Message('note_on', channel=2, note=68, velocity=0, time=5),
    Message('note_on', channel=2, note=64, velocity=0, time=0),
    Message('note_on', channel=2, note=56, velocity=0, time=42),
    Message('note_on', channel=1, note=28, velocity=122, time=50),
    Message('note_on', channel=2, note=56, velocity=127, time=0),
    Message('note_on', channel=3, note=52, velocity=103, time=0),
    Message('note_on', channel=3, note=59, velocity=105, time=0),
    Message('note_on', channel=4, note=59, velocity=105, time=0),
    Message('note_on', channel=4, note=52, velocity=103, time=0),
    Message('note_on', channel=9, note=38, velocity=116, time=0),
    Message('note_on', channel=9, note=54, velocity=127, time=0),
    Message('note_on', channel=4, note=52, velocity=0, time=8),
    Message('note_on', channel=3, note=52, velocity=0, time=0),
    Message('note_on', channel=4, note=59, velocity=0, time=2),
    Message('note_on', channel=3, note=59, velocity=0, time=0),
    Message('note_on', channel=9, note=42, velocity=119, time=0),
    Message('note_on', channel=9, note=54, velocity=0, time=30),
    Message('note_on', channel=9, note=38, velocity=0, time=7),
    Message('note_on', channel=9, note=42, velocity=0, time=4),
    Message('note_on', channel=1, note=28, velocity=0, time=189),
    Message('note_on', channel=2, note=59, velocity=104, time=0),
    Message('note_on', channel=2, note=64, velocity=115, time=0),
    Message('note_on', channel=2, note=68, velocity=127, time=0),
    Message('note_on', channel=3, note=68, velocity=112, time=0),
    Message('note_on', channel=3, note=64, velocity=101, time=0),
    Message('note_on', channel=3, note=59, velocity=91, time=0),
    Message('note_on', channel=4, note=68, velocity=112, time=0),
    Message('note_on', channel=4, note=59, velocity=91, time=0),
    Message('note_on', channel=4, note=64, velocity=101, time=0),
    Message('note_on', channel=9, note=60, velocity=116, time=0),
    Message('note_on', channel=9, note=42, velocity=93, time=10),
    Message('note_on', channel=9, note=60, velocity=0, time=23),
    Message('note_on', channel=2, note=59, velocity=0, time=5),
    Message('note_on', channel=2, note=64, velocity=0, time=7),
    Message('note_on', channel=9, note=42, velocity=0, time=2),
    Message('note_on', channel=2, note=68, velocity=0, time=2),
    Message('note_on', channel=0, note=52, velocity=0, time=25),
    Message('note_on', channel=9, note=60, velocity=109, time=6),
    Message('note_on', channel=9, note=60, velocity=0, time=35),
    Message('note_on', channel=9, note=38, velocity=116, time=5),
    Message('note_on', channel=3, note=64, velocity=0, time=7),
    Message('note_on', channel=4, note=64, velocity=0, time=0),
    Message('note_on', channel=3, note=59, velocity=0, time=2),
    Message('note_on', channel=4, note=59, velocity=0, time=0),
    Message('note_on', channel=9, note=42, velocity=98, time=1),
    Message('note_on', channel=4, note=68, velocity=0, time=3),
    Message('note_on', channel=3, note=68, velocity=0, time=0),
    Message('note_on', channel=9, note=60, velocity=107, time=27),
    Message('note_on', channel=9, note=42, velocity=0, time=8),
    Message('note_on', channel=9, note=38, velocity=0, time=1),
    Message('note_on', channel=9, note=60, velocity=0, time=25),
    Message('note_on', channel=2, note=59, velocity=127, time=46),
    Message('note_on', channel=2, note=64, velocity=127, time=0),
    Message('note_on', channel=2, note=68, velocity=127, time=0),
    Message('note_on', channel=3, note=68, velocity=109, time=0),
    Message('note_on', channel=3, note=59, velocity=94, time=0),
    Message('note_on', channel=3, note=64, velocity=98, time=0),
    Message('note_on', channel=4, note=68, velocity=109, time=0),
    Message('note_on', channel=4, note=59, velocity=94, time=0),
    Message('note_on', channel=4, note=64, velocity=98, time=0),
    Message('note_on', channel=9, note=64, velocity=114, time=0),
    Message('note_on', channel=9, note=42, velocity=116, time=10),
    Message('note_on', channel=9, note=36, velocity=107, time=0),
    Message('note_on', channel=9, note=36, velocity=0, time=31),
    Message('note_on', channel=9, note=42, velocity=0, time=7),
    Message('note_on', channel=9, note=64, velocity=0, time=1),
    Message('note_on', channel=3, note=59, velocity=0, time=67),
    Message('note_on', channel=4, note=59, velocity=0, time=0),
    Message('note_on', channel=4, note=64, velocity=0, time=10),
    Message('note_on', channel=3, note=64, velocity=0, time=0),
    Message('note_on', channel=4, note=68, velocity=0, time=6),
    Message('note_on', channel=3, note=68, velocity=0, time=0),
    Message('note_on', channel=2, note=59, velocity=0, time=16),
    Message('note_on', channel=2, note=64, velocity=0, time=5),
    Message('note_on', channel=2, note=68, velocity=0, time=6),
    Message('note_on', channel=2, note=56, velocity=0, time=12),
    Message('note_on', channel=2, note=52, velocity=0, time=10),
    Message('note_on', channel=5, note=45, velocity=58, time=267),
    Message('note_on', channel=5, note=47, velocity=85, time=4),
    Message('note_on', channel=5, note=45, velocity=0, time=24),
    Message('note_on', channel=5, note=48, velocity=28, time=17),
    Message('note_on', channel=5, note=47, velocity=0, time=23),
    Message('note_on', channel=5, note=50, velocity=34, time=16),
    Message('note_on', channel=5, note=48, velocity=0, time=21),
    Message('note_on', channel=5, note=52, velocity=46, time=11),
    Message('note_on', channel=5, note=50, velocity=0, time=20),
    Message('note_on', channel=5, note=53, velocity=67, time=15),
    Message('note_on', channel=5, note=52, velocity=0, time=17),
    Message('note_on', channel=5, note=55, velocity=82, time=15),
    Message('note_on', channel=5, note=53, velocity=0, time=13),
    Message('note_on', channel=5, note=57, velocity=72, time=18),
    Message('note_on', channel=5, note=55, velocity=0, time=14),
    Message('note_on', channel=5, note=59, velocity=65, time=17),
    Message('note_on', channel=5, note=57, velocity=0, time=18),
    Message('note_on', channel=5, note=60, velocity=81, time=14),
    Message('note_on', channel=5, note=59, velocity=0, time=15),
    Message('note_on', channel=5, note=62, velocity=64, time=13),
    Message('note_on', channel=5, note=60, velocity=0, time=18),
    Message('note_on', channel=5, note=64, velocity=56, time=17),
    Message('note_on', channel=5, note=62, velocity=0, time=14),
    Message('note_on', channel=5, note=65, velocity=79, time=12),
    Message('note_on', channel=5, note=64, velocity=0, time=16),
    Message('note_on', channel=5, note=67, velocity=68, time=12),
    Message('note_on', channel=5, note=65, velocity=0, time=14),
    Message('note_on', channel=5, note=69, velocity=63, time=12),
    Message('note_on', channel=5, note=67, velocity=0, time=15),
    Message('note_on', channel=5, note=71, velocity=58, time=10),
    Message('note_on', channel=5, note=69, velocity=0, time=15),
    Message('note_on', channel=5, note=72, velocity=81, time=10),
    Message('note_on', channel=5, note=71, velocity=0, time=11),
    Message('note_on', channel=5, note=72, velocity=0, time=14),
    Message('note_on', channel=5, note=74, velocity=82, time=3),
    Message('note_on', channel=5, note=74, velocity=0, time=8),
    Message('note_on', channel=1, note=37, velocity=124, time=5),
    Message('note_on', channel=2, note=49, velocity=127, time=1),
    Message('note_on', channel=0, note=61, velocity=93, time=0),
    Message('note_on', channel=0, note=64, velocity=76, time=0),
    Message('note_on', channel=3, note=49, velocity=98, time=0),
    Message('note_on', channel=4, note=49, velocity=98, time=0),
    Message('note_on', channel=5, note=73, velocity=65, time=0),
    Message('note_on', channel=5, note=76, velocity=75, time=0),
    Message('note_on', channel=5, note=68, velocity=72, time=0),
    Message('note_on', channel=9, note=57, velocity=127, time=0),
    Message('note_on', channel=9, note=64, velocity=94, time=0),
    Message('note_on', channel=9, note=36, velocity=124, time=10),
    Message('note_on', channel=9, note=42, velocity=124, time=0),
    Message('note_on', channel=9, note=42, velocity=0, time=44),
    Message('note_on', channel=9, note=57, velocity=0, time=6),
    Message('note_on', channel=9, note=64, velocity=0, time=0),
    Message('note_on', channel=9, note=36, velocity=0, time=16),
    Message('note_on', channel=3, note=49, velocity=0, time=57),
    Message('note_on', channel=4, note=49, velocity=0, time=0),
    Message('note_on', channel=1, note=37, velocity=0, time=20),
    Message('note_on', channel=1, note=37, velocity=124, time=75),
    Message('note_on', channel=2, note=56, velocity=127, time=12),
    Message('note_on', channel=2, note=68, velocity=127, time=0),
    Message('note_on', channel=2, note=64, velocity=127, time=0),
    Message('note_on', channel=2, note=61, velocity=127, time=0),
    Message('note_on', channel=3, note=56, velocity=98, time=0),
    Message('note_on', channel=3, note=68, velocity=98, time=0),
    Message('note_on', channel=3, note=64, velocity=87, time=0),
    Message('note_on', channel=3, note=61, velocity=105, time=0),
    Message('note_on', channel=4, note=61, velocity=105, time=0),
    Message('note_on', channel=4, note=56, velocity=98, time=0),
    Message('note_on', channel=4, note=68, velocity=98, time=0),
    Message('note_on', channel=4, note=64, velocity=87, time=0),
    Message('note_on', channel=9, note=63, velocity=119, time=0),
    Message('note_on', channel=9, note=42, velocity=89, time=10),
    Message('note_on', channel=9, note=36, velocity=122, time=0),
    Message('note_on', channel=9, note=63, velocity=0, time=27),
    Message('note_on', channel=9, note=42, velocity=0, time=9),
    Message('note_on', channel=9, note=36, velocity=0, time=23),
    Message('note_on', channel=3, note=68, velocity=0, time=25),
    Message('note_on', channel=4, note=68, velocity=0, time=0),
    Message('note_on', channel=4, note=64, velocity=0, time=4),
    Message('note_on', channel=3, note=64, velocity=0, time=0),
    Message('note_on', channel=4, note=61, velocity=0, time=18),
    Message('note_on', channel=4, note=56, velocity=0, time=0),
    Message('note_on', channel=3, note=61, velocity=0, time=0),
    Message('note_on', channel=3, note=56, velocity=0, time=0),
    Message('note_on', channel=1, note=37, velocity=0, time=48),
    Message('note_on', channel=9, note=54, velocity=127, time=76),
    Message('note_on', channel=9, note=38, velocity=124, time=0),
    Message('note_on', channel=9, note=42, velocity=119, time=10),
    Message('note_on', channel=9, note=54, velocity=0, time=25),
    Message('note_on', channel=9, note=38, velocity=0, time=15),
    Message('note_on', channel=9, note=42, velocity=0, time=11),
    Message('note_on', channel=9, note=64, velocity=101, time=59),
    Message('note_on', channel=9, note=64, velocity=0, time=49),
    Message('note_on', channel=1, note=37, velocity=122, time=71),
    Message('note_on', channel=3, note=56, velocity=101, time=0),
    Message('note_on', channel=3, note=68, velocity=101, time=0),
    Message('note_on', channel=3, note=64, velocity=96, time=0),
    Message('note_on', channel=3, note=61, velocity=101, time=0),
    Message('note_on', channel=4, note=56, velocity=101, time=0),
    Message('note_on', channel=4, note=68, velocity=101, time=0),
    Message('note_on', channel=4, note=64, velocity=96, time=0),
    Message('note_on', channel=4, note=61, velocity=101, time=0),
    Message('note_on', channel=9, note=63, velocity=122, time=0),
    Message('note_on', channel=9, note=42, velocity=89, time=10),
    Message('note_on', channel=1, note=37, velocity=0, time=31),
    Message('note_on', channel=9, note=63, velocity=0, time=1),
    Message('note_on', channel=9, note=42, velocity=0, time=6),
    Message('note_on', channel=4, note=68, velocity=0, time=36),
    Message('note_on', channel=3, note=68, velocity=0, time=0),
    Message('note_on', channel=4, note=61, velocity=0, time=2),
    Message('note_on', channel=3, note=61, velocity=0, time=0),
    Message('note_on', channel=4, note=56, velocity=0, time=8),
    Message('note_on', channel=4, note=64, velocity=0, time=0),
    Message('note_on', channel=3, note=56, velocity=0, time=0),
    Message('note_on', channel=3, note=64, velocity=0, time=0),
    Message('note_on', channel=1, note=37, velocity=116, time=26),
    Message('note_on', channel=9, note=38, velocity=122, time=0),
    Message('note_on', channel=9, note=63, velocity=114, time=0),
    Message('note_on', channel=9, note=42, velocity=96, time=10),
    Message('note_on', channel=9, note=63, velocity=0, time=26),
    Message('note_on', channel=9, note=38, velocity=0, time=1),
    Message('note_on', channel=9, note=42, velocity=0, time=7),
    Message('note_on', channel=1, note=37, velocity=0, time=11),
    Message('note_on', channel=2, note=61, velocity=0, time=55),
    Message('note_on', channel=2, note=68, velocity=0, time=4),
    Message('note_on', channel=5, note=68, velocity=0, time=3),
    Message('note_on', channel=5, note=76, velocity=0, time=0),
    Message('note_on', channel=2, note=64, velocity=0, time=2),
    Message('note_on', channel=1, note=30, velocity=114, time=1),
    Message('note_on', channel=2, note=54, velocity=127, time=0),
    Message('note_on', channel=2, note=42, velocity=127, time=0),
    Message('note_on', channel=0, note=66, velocity=93, time=0),
    Message('note_on', channel=0, note=63, velocity=96, time=0),
    Message('note_on', channel=3, note=54, velocity=112, time=0),
    Message('note_on', channel=4, note=54, velocity=112, time=0),
    Message('note_on', channel=5, note=78, velocity=77, time=0),
    Message('note_on', channel=5, note=70, velocity=48, time=0),
    Message('note_on', channel=5, note=75, velocity=46, time=0),
    Message('note_on', channel=9, note=64, velocity=93, time=0),
    Message('note_on', channel=2, note=56, velocity=0, time=4),
    Message('note_on', channel=5, note=73, velocity=0, time=4),
    Message('note_on', channel=2, note=49, velocity=0, time=2),
    Message('note_on', channel=9, note=42, velocity=103, time=0),
    Message('note_on', channel=9, note=36, velocity=114, time=0),
    Message('note_on', channel=0, note=64, velocity=0, time=8),
    Message('note_on', channel=9, note=64, velocity=0, time=22),
    Message('note_on', channel=0, note=61, velocity=0, time=4),
    Message('note_on', channel=9, note=42, velocity=0, time=1),
    Message('note_on', channel=9, note=36, velocity=0, time=20),
    Message('note_on', channel=4, note=54, velocity=0, time=38),
    Message('note_on', channel=3, note=54, velocity=0, time=0),
    Message('note_on', channel=9, note=38, velocity=109, time=17),
    Message('note_on', channel=9, note=42, velocity=89, time=10),
    Message('note_on', channel=1, note=30, velocity=0, time=7),
    Message('note_on', channel=9, note=42, velocity=0, time=28),
    Message('note_on', channel=9, note=38, velocity=0, time=3),
    Message('note_on', channel=1, note=30, velocity=122, time=72),
    Message('note_on', channel=2, note=66, velocity=127, time=0),
    Message('note_on', channel=2, note=61, velocity=127, time=0),
    Message('note_on', channel=2, note=58, velocity=127, time=0),
    Message('note_on', channel=3, note=66, velocity=93, time=0),
    Message('note_on', channel=3, note=61, velocity=101, time=0),
    Message('note_on', channel=3, note=70, velocity=103, time=0),
    Message('note_on', channel=4, note=66, velocity=93, time=0),
    Message('note_on', channel=4, note=70, velocity=103, time=0),
    Message('note_on', channel=4, note=61, velocity=101, time=0),
    Message('note_on', channel=9, note=63, velocity=122, time=0),
    Message('note_on', channel=9, note=42, velocity=82, time=10),
    Message('note_on', channel=9, note=36, velocity=116, time=0),
    Message('note_on', channel=9, note=63, velocity=0, time=22),
    Message('note_on', channel=9, note=42, velocity=0, time=11),
    Message('note_on', channel=9, note=36, velocity=0, time=11),
    Message('note_on', channel=4, note=66, velocity=0, time=38),
    Message('note_on', channel=3, note=66, velocity=0, time=0),
    Message('note_on', channel=4, note=70, velocity=0, time=9),
    Message('note_on', channel=4, note=61, velocity=0, time=0),
    Message('note_on', channel=3, note=70, velocity=0, time=0),
    Message('note_on', channel=3, note=61, velocity=0, time=0),
    Message('note_on', channel=1, note=30, velocity=0, time=87),
    Message('note_on', channel=9, note=38, velocity=122, time=52),
    Message('note_on', channel=9, note=54, velocity=127, time=0),
    Message('note_on', channel=9, note=42, velocity=119, time=10),
    Message('note_on', channel=9, note=54, velocity=0, time=26),
    Message('note_on', channel=9, note=38, velocity=0, time=11),
    Message('note_on', channel=9, note=42, velocity=0, time=3),
    Message('note_on', channel=2, note=66, velocity=0, time=69),
    Message('note_on', channel=2, note=58, velocity=0, time=1),
    Message('note_on', channel=9, note=64, velocity=101, time=0),
    Message('note_on', channel=9, note=64, velocity=0, time=39),
    Message('note_on', channel=2, note=61, velocity=0, time=10),
    Message('note_on', channel=2, note=66, velocity=127, time=71),
    Message('note_on', channel=2, note=58, velocity=127, time=0),
    Message('note_on', channel=2, note=61, velocity=127, time=0),
    Message('note_on', channel=3, note=66, velocity=112, time=0),
    Message('note_on', channel=3, note=70, velocity=112, time=0),
    Message('note_on', channel=3, note=61, velocity=112, time=0),
    Message('note_on', channel=4, note=66, velocity=112, time=0),
    Message('note_on', channel=4, note=70, velocity=112, time=0),
    Message('note_on', channel=4, note=61, velocity=112, time=0),
    Message('note_on', channel=9, note=63, velocity=122, time=0),
    Message('note_on', channel=9, note=42, velocity=91, time=10),
    Message('note_on', channel=9, note=63, velocity=0, time=28),
    Message('note_on', channel=9, note=42, velocity=0, time=8),
    Message('note_on', channel=4, note=61, velocity=0, time=66),
    Message('note_on', channel=3, note=61, velocity=0, time=0),
    Message('note_on', channel=4, note=66, velocity=0, time=3),
    Message('note_on', channel=3, note=66, velocity=0, time=0),
    Message('note_on', channel=1, note=30, velocity=127, time=5),
    Message('note_on', channel=9, note=63, velocity=122, time=0),
    Message('note_on', channel=9, note=38, velocity=122, time=0),
    Message('note_on', channel=9, note=42, velocity=107, time=10),
    Message('note_on', channel=3, note=70, velocity=0, time=1),
    Message('note_on', channel=4, note=70, velocity=0, time=0),
    Message('note_on', channel=9, note=38, velocity=0, time=21),
    Message('note_on', channel=9, note=63, velocity=0, time=7),
    Message('note_on', channel=9, note=42, velocity=0, time=10),
    Message('note_on', channel=1, note=30, velocity=0, time=7),
    Message('note_on', channel=2, note=54, velocity=0, time=29),
    Message('note_on', channel=5, note=75, velocity=0, time=10),
    Message('note_on', channel=0, note=63, velocity=0, time=6),
    Message('note_on', channel=2, note=42, velocity=0, time=1),
    Message('note_on', channel=1, note=32, velocity=127, time=18),
    Message('note_on', channel=2, note=56, velocity=127, time=0),
    Message('note_on', channel=2, note=44, velocity=127, time=0),
    Message('note_on', channel=0, note=63, velocity=91, time=0),
    Message('note_on', channel=0, note=59, velocity=47, time=0),
    Message('note_on', channel=3, note=44, velocity=98, time=0),
    Message('note_on', channel=4, note=44, velocity=98, time=0),
    Message('note_on', channel=5, note=71, velocity=55, time=0),
    Message('note_on', channel=5, note=75, velocity=58, time=0),
    Message('note_on', channel=5, note=80, velocity=64, time=0),
    Message('note_on', channel=9, note=64, velocity=94, time=0),
    Message('note_on', channel=2, note=66, velocity=0, time=1),
    Message('note_on', channel=2, note=58, velocity=0, time=4),
    Message('note_on', channel=5, note=78, velocity=0, time=1),
    Message('note_on', channel=5, note=70, velocity=0, time=2),
    Message('note_on', channel=9, note=42, velocity=114, time=2),
    Message('note_on', channel=9, note=36, velocity=122, time=0),
    Message('note_on', channel=2, note=61, velocity=0, time=1),
    Message('note_on', channel=0, note=66, velocity=0, time=10),
    Message('note_on', channel=9, note=42, velocity=0, time=34),
    Message('note_on', channel=9, note=64, velocity=0, time=5),
    Message('note_on', channel=9, note=36, velocity=0, time=5),
    Message('note_on', channel=4, note=44, velocity=0, time=12),
    Message('note_on', channel=3, note=44, velocity=0, time=0),
    Message('note_on', channel=1, note=32, velocity=0, time=88),
    Message('note_on', channel=1, note=32, velocity=127, time=75),
    Message('note_on', channel=2, note=63, velocity=127, time=0),
    Message('note_on', channel=2, note=68, velocity=127, time=0),
    Message('note_on', channel=2, note=59, velocity=127, time=0),
    Message('note_on', channel=3, note=68, velocity=107, time=0),
    Message('note_on', channel=3, note=59, velocity=89, time=0),
    Message('note_on', channel=3, note=63, velocity=112, time=0),
    Message('note_on', channel=4, note=63, velocity=112, time=0),
    Message('note_on', channel=4, note=68, velocity=107, time=0),
    Message('note_on', channel=4, note=59, velocity=89, time=0),
    Message('note_on', channel=9, note=63, velocity=119, time=0),
    Message('note_on', channel=9, note=42, velocity=77, time=10),
    Message('note_on', channel=9, note=36, velocity=116, time=0),
    Message('note_on', channel=9, note=63, velocity=0, time=27),
    Message('note_on', channel=9, note=42, velocity=0, time=17),
    Message('note_on', channel=9, note=36, velocity=0, time=1),
    Message('note_on', channel=4, note=68, velocity=0, time=41),
    Message('note_on', channel=3, note=68, velocity=0, time=0),
    Message('note_on', channel=4, note=63, velocity=0, time=14),
    Message('note_on', channel=3, note=63, velocity=0, time=0),
    Message('note_on', channel=4, note=59, velocity=0, time=6),
    Message('note_on', channel=3, note=59, velocity=0, time=0),
    Message('note_on', channel=1, note=32, velocity=0, time=69),
    Message('note_on', channel=9, note=38, velocity=116, time=55),
    Message('note_on', channel=9, note=54, velocity=127, time=0),
    Message('note_on', channel=9, note=42, velocity=119, time=10),
    Message('note_on', channel=9, note=54, velocity=0, time=25),
    Message('note_on', channel=9, note=38, velocity=0, time=12),
    Message('note_on', channel=9, note=42, velocity=0, time=4),
    Message('note_on', channel=9, note=64, velocity=101, time=69),
    Message('note_on', channel=9, note=64, velocity=0, time=49),
    Message('note_on', channel=3, note=68, velocity=109, time=71),
    Message('note_on', channel=3, note=63, velocity=114, time=0),
    Message('note_on', channel=3, note=59, velocity=89, time=0),
    Message('note_on', channel=4, note=59, velocity=89, time=0),
    Message('note_on', channel=4, note=68, velocity=109, time=0),
    Message('note_on', channel=4, note=63, velocity=114, time=0),
    Message('note_on', channel=9, note=63, velocity=122, time=0),
    Message('note_on', channel=9, note=42, velocity=93, time=10),
    Message('note_on', channel=2, note=44, velocity=0, time=22),
    Message('note_on', channel=9, note=63, velocity=0, time=10),
    Message('note_on', channel=9, note=42, velocity=0, time=5),
    Message('note_on', channel=3, note=68, velocity=0, time=41),
    Message('note_on', channel=4, note=68, velocity=0, time=0),
    Message('note_on', channel=4, note=63, velocity=0, time=7),
    Message('note_on', channel=3, note=63, velocity=0, time=0),
    Message('note_on', channel=3, note=59, velocity=0, time=14),
    Message('note_on', channel=4, note=59, velocity=0, time=0),
    Message('note_on', channel=1, note=30, velocity=124, time=11),
    Message('note_on', channel=9, note=38, velocity=116, time=0),
    Message('note_on', channel=9, note=63, velocity=114, time=0),
    Message('note_on', channel=9, note=42, velocity=98, time=10),
    Message('note_on', channel=9, note=63, velocity=0, time=26),
    Message('note_on', channel=9, note=42, velocity=0, time=12),
    Message('note_on', channel=9, note=38, velocity=0, time=1),
    Message('note_on', channel=1, note=30, velocity=0, time=17),
    Message('note_on', channel=1, note=32, velocity=127, time=54),
    Message('note_on', channel=2, note=44, velocity=127, time=0),
    Message('note_on', channel=3, note=44, velocity=105, time=0),
    Message('note_on', channel=4, note=44, velocity=105, time=0),
    Message('note_on', channel=9, note=64, velocity=93, time=0),
    Message('note_on', channel=9, note=36, velocity=107, time=10),
    Message('note_on', channel=9, note=42, velocity=116, time=0),
    Message('note_on', channel=2, note=56, velocity=0, time=11),
    Message('note_on', channel=9, note=64, velocity=0, time=19),
    Message('note_on', channel=9, note=36, velocity=0, time=1),
    Message('note_on', channel=9, note=42, velocity=0, time=7),
    Message('note_on', channel=3, note=44, velocity=0, time=9),
    Message('note_on', channel=4, note=44, velocity=0, time=0),
    Message('note_on', channel=9, note=38, velocity=122, time=63),
    Message('note_on', channel=9, note=42, velocity=97, time=10),
    Message('note_on', channel=9, note=38, velocity=0, time=29),
    Message('control_change', channel=5, control=1, value=1, time=2),
    Message('note_on', channel=9, note=42, velocity=0, time=4),
    Message('note_on', channel=1, note=32, velocity=0, time=8),
    Message('control_change', channel=5, control=1, value=2, time=16),
    Message('control_change', channel=5, control=1, value=11, time=17),
    Message('control_change', channel=5, control=1, value=17, time=14),
    Message('control_change', channel=5, control=1, value=21, time=16),
    Message('note_on', channel=1, note=32, velocity=127, time=4),
    Message('note_on', channel=2, note=56, velocity=127, time=0),
    Message('note_on', channel=3, note=63, velocity=114, time=0),
    Message('note_on', channel=3, note=59, velocity=87, time=0),
    Message('note_on', channel=3, note=68, velocity=107, time=0),
    Message('note_on', channel=4, note=59, velocity=87, time=0),
    Message('note_on', channel=4, note=68, velocity=107, time=0),
    Message('note_on', channel=4, note=63, velocity=114, time=0),
    Message('note_on', channel=9, note=63, velocity=122, time=0),
    Message('note_on', channel=9, note=46, velocity=87, time=0),
    Message('note_on', channel=9, note=36, velocity=124, time=10),
    Message('control_change', channel=5, control=1, value=22, time=2),
    Message('control_change', channel=5, control=1, value=23, time=14),
    Message('note_on', channel=9, note=63, velocity=0, time=6),
    Message('note_on', channel=9, note=46, velocity=0, time=4),
    Message('control_change', channel=5, control=1, value=25, time=7),
    Message('note_on', channel=9, note=36, velocity=0, time=6),
    Message('control_change', channel=5, control=1, value=27, time=7),
    Message('note_on', channel=2, note=59, velocity=0, time=2),
    Message('note_on', channel=2, note=68, velocity=0, time=5),
    Message('note_on', channel=2, note=63, velocity=0, time=5),
    Message('control_change', channel=5, control=1, value=29, time=7),
    Message('control_change', channel=5, control=1, value=30, time=13),
    Message('note_on', channel=4, note=68, velocity=0, time=3),
    Message('note_on', channel=3, note=68, velocity=0, time=0),
    Message('note_on', channel=4, note=63, velocity=0, time=5),
    Message('note_on', channel=3, note=63, velocity=0, time=0),
    Message('note_on', channel=4, note=59, velocity=0, time=1),
    Message('note_on', channel=3, note=59, velocity=0, time=0),
    Message('control_change', channel=5, control=1, value=31, time=6),
    Message('control_change', channel=5, control=1, value=33, time=16),
    Message('control_change', channel=5, control=1, value=34, time=14),
    Message('control_change', channel=5, control=1, value=35, time=14),
    Message('control_change', channel=5, control=1, value=37, time=15),
    Message('note_on', channel=1, note=32, velocity=0, time=24),
    Message('control_change', channel=5, control=1, value=38, time=1),
    Message('control_change', channel=5, control=1, value=39, time=24),
    Message('control_change', channel=5, control=1, value=40, time=24),
    Message('note_on', channel=2, note=63, velocity=124, time=5),
    Message('note_on', channel=9, note=38, velocity=122, time=0),
    Message('note_on', channel=9, note=54, velocity=127, time=0),
    Message('control_change', channel=5, control=1, value=41, time=10),
    Message('note_on', channel=9, note=42, velocity=124, time=0),
    Message('note_on', channel=2, note=63, velocity=0, time=15),
    Message('note_on', channel=9, note=54, velocity=0, time=11),
    Message('control_change', channel=5, control=1, value=42, time=6),
    Message('note_on', channel=9, note=38, velocity=0, time=5),
    Message('note_on', channel=9, note=42, velocity=0, time=6),
    Message('note_on', channel=0, note=63, velocity=0, time=14),
    Message('control_change', channel=5, control=1, value=43, time=10),
    Message('control_change', channel=5, control=1, value=44, time=37),
    Message('note_on', channel=9, note=64, velocity=101, time=6),
    Message('note_on', channel=0, note=59, velocity=0, time=25),
    Message('note_on', channel=9, note=64, velocity=0, time=14),
    Message('control_change', channel=5, control=1, value=43, time=2),
    Message('control_change', channel=5, control=1, value=42, time=9),
    Message('control_change', channel=5, control=1, value=40, time=15),
    Message('control_change', channel=5, control=1, value=37, time=11),
    Message('control_change', channel=5, control=1, value=34, time=14),
    Message('control_change', channel=5, control=1, value=27, time=13),
    Message('control_change', channel=5, control=1, value=12, time=10),
    Message('note_on', channel=1, note=32, velocity=127, time=7),
    Message('note_on', channel=2, note=59, velocity=127, time=0),
    Message('note_on', channel=2, note=68, velocity=127, time=0),
    Message('note_on', channel=2, note=63, velocity=127, time=0),
    Message('note_on', channel=3, note=59, velocity=94, time=0),
    Message('note_on', channel=3, note=63, velocity=116, time=0),
    Message('note_on', channel=3, note=68, velocity=112, time=0),
    Message('note_on', channel=4, note=59, velocity=94, time=0),
    Message('note_on', channel=4, note=63, velocity=116, time=0),
    Message('note_on', channel=4, note=68, velocity=112, time=0),
    Message('note_on', channel=9, note=63, velocity=122, time=0),
    Message('note_on', channel=9, note=38, velocity=101, time=0),
    Message('control_change', channel=5, control=1, value=5, time=8),
    Message('note_on', channel=9, note=42, velocity=77, time=2),
    Message('control_change', channel=5, control=1, value=0, time=9),
    Message('note_on', channel=9, note=38, velocity=0, time=9),
    Message('note_on', channel=1, note=32, velocity=0, time=8),
    Message('note_on', channel=9, note=42, velocity=0, time=2),
    Message('note_on', channel=9, note=63, velocity=0, time=0),
    Message('note_on', channel=3, note=59, velocity=0, time=77),
    Message('note_on', channel=4, note=59, velocity=0, time=0),
    Message('note_on', channel=3, note=68, velocity=0, time=3),
    Message('note_on', channel=4, note=68, velocity=0, time=0),
    Message('note_on', channel=4, note=63, velocity=0, time=2),
    Message('note_on', channel=3, note=63, velocity=0, time=0),
    Message('note_on', channel=1, note=32, velocity=127, time=0),
    Message('note_on', channel=9, note=38, velocity=122, time=0),
    Message('note_on', channel=9, note=63, velocity=122, time=0),
    Message('note_on', channel=2, note=68, velocity=0, time=29),
    Message('note_on', channel=2, note=63, velocity=0, time=0),
    Message('note_on', channel=2, note=59, velocity=0, time=1),
    Message('note_on', channel=9, note=38, velocity=0, time=6),
    Message('note_on', channel=9, note=63, velocity=0, time=3),
    Message('note_on', channel=1, note=32, velocity=0, time=10),
    Message('note_on', channel=2, note=56, velocity=0, time=3),
    Message('note_on', channel=2, note=44, velocity=0, time=1),
    Message('note_on', channel=5, note=71, velocity=0, time=23),
    Message('note_on', channel=5, note=75, velocity=0, time=4),
    Message('note_on', channel=5, note=80, velocity=0, time=3),
    Message('note_on', channel=1, note=37, velocity=122, time=37),
    Message('note_on', channel=2, note=49, velocity=127, time=0),
    Message('note_on', channel=0, note=56, velocity=119, time=0),
    Message('note_on', channel=0, note=64, velocity=112, time=0),
    Message('note_on', channel=3, note=49, velocity=98, time=0),
    Message('note_on', channel=4, note=49, velocity=98, time=0),
    Message('note_on', channel=5, note=76, velocity=75, time=0),
    Message('note_on', channel=5, note=73, velocity=65, time=0),
    Message('note_on', channel=5, note=68, velocity=72, time=0),
    Message('note_on', channel=9, note=64, velocity=94, time=0),
    Message('note_on', channel=9, note=36, velocity=124, time=10),
    Message('note_on', channel=9, note=42, velocity=124, time=0),
    Message('note_on', channel=9, note=42, velocity=0, time=44),
    Message('note_on', channel=9, note=64, velocity=0, time=6),
    Message('note_on', channel=9, note=36, velocity=0, time=16),
    Message('note_on', channel=0, note=56, velocity=0, time=43),
    Message('note_on', channel=3, note=49, velocity=0, time=14),
    Message('note_on', channel=4, note=49, velocity=0, time=0),
    Message('note_on', channel=0, note=64, velocity=0, time=13),
    Message('note_on', channel=1, note=37, velocity=0, time=2),
    Message('note_on', channel=1, note=37, velocity=124, time=92),
    Message('note_on', channel=2, note=56, velocity=127, time=0),
    Message('note_on', channel=2, note=64, velocity=127, time=0),
    Message('note_on', channel=2, note=68, velocity=127, time=0),
    Message('note_on', channel=2, note=61, velocity=127, time=0),
    Message('note_on', channel=0, note=66, velocity=127, time=0),
    Message('note_on', channel=0, note=59, velocity=109, time=0),
    Message('note_on', channel=3, note=56, velocity=98, time=0),
    Message('note_on', channel=3, note=68, velocity=98, time=0),
    Message('note_on', channel=3, note=61, velocity=105, time=0),
    Message('note_on', channel=3, note=64, velocity=87, time=0),
    Message('note_on', channel=4, note=56, velocity=98, time=0),
    Message('note_on', channel=4, note=64, velocity=87, time=0),
    Message('note_on', channel=4, note=61, velocity=105, time=0),
    Message('note_on', channel=4, note=68, velocity=98, time=0),
    Message('note_on', channel=9, note=63, velocity=119, time=0),
    Message('note_on', channel=9, note=42, velocity=89, time=10),
    Message('note_on', channel=9, note=36, velocity=122, time=0),
    Message('note_on', channel=9, note=63, velocity=0, time=27),
    Message('note_on', channel=9, note=42, velocity=0, time=9),
    Message('note_on', channel=9, note=36, velocity=0, time=23),
    Message('note_on', channel=0, note=59, velocity=0, time=17),
    Message('note_on', channel=4, note=68, velocity=0, time=8),
    Message('note_on', channel=3, note=68, velocity=0, time=0),
    Message('note_on', channel=4, note=64, velocity=0, time=4),
    Message('note_on', channel=3, note=64, velocity=0, time=0),
    Message('note_on', channel=4, note=56, velocity=0, time=18),
    Message('note_on', channel=4, note=61, velocity=0, time=0),
    Message('note_on', channel=3, note=56, velocity=0, time=0),
    Message('note_on', channel=3, note=61, velocity=0, time=0),
    Message('note_on', channel=0, note=66, velocity=0, time=7),
    Message('note_on', channel=1, note=37, velocity=0, time=60),
    Message('note_on', channel=0, note=64, velocity=107, time=57),
    Message('note_on', channel=0, note=56, velocity=122, time=0),
    Message('note_on', channel=9, note=54, velocity=127, time=0),
    Message('note_on', channel=9, note=38, velocity=124, time=0),
    Message('note_on', channel=9, note=42, velocity=119, time=10),
    Message('note_on', channel=9, note=54, velocity=0, time=25),
    Message('note_on', channel=9, note=38, velocity=0, time=15),
    Message('note_on', channel=9, note=42, velocity=0, time=11),
    Message('note_on', channel=0, note=56, velocity=0, time=27),
    Message('note_on', channel=0, note=64, velocity=0, time=25),
    Message('note_on', channel=9, note=64, velocity=101, time=7),
    Message('note_on', channel=9, note=64, velocity=0, time=49),
    Message('note_on', channel=1, note=37, velocity=114, time=71),
    Message('note_on', channel=0, note=66, velocity=124, time=0),
    Message('note_on', channel=0, note=59, velocity=116, time=0),
    Message('note_on', channel=3, note=68, velocity=101, time=0),
    Message('note_on', channel=3, note=64, velocity=96, time=0),
    Message('note_on', channel=3, note=61, velocity=101, time=0),
    Message('note_on', channel=3, note=56, velocity=101, time=0),
    Message('note_on', channel=4, note=68, velocity=101, time=0),
    Message('note_on', channel=4, note=61, velocity=101, time=0),
    Message('note_on', channel=4, note=64, velocity=96, time=0),
    Message('note_on', channel=4, note=56, velocity=101, time=0),
    Message('note_on', channel=9, note=63, velocity=122, time=0),
    Message('note_on', channel=9, note=42, velocity=89, time=10),
    Message('note_on', channel=9, note=63, velocity=0, time=32),
    Message('note_on', channel=1, note=37, velocity=0, time=4),
    Message('note_on', channel=9, note=42, velocity=0, time=2),
    Message('note_on', channel=4, note=68, velocity=0, time=36),
    Message('note_on', channel=3, note=68, velocity=0, time=0),
    Message('note_on', channel=4, note=61, velocity=0, time=2),
    Message('note_on', channel=3, note=61, velocity=0, time=0),
    Message('note_on', channel=4, note=64, velocity=0, time=8),
    Message('note_on', channel=4, note=56, velocity=0, time=0),
    Message('note_on', channel=3, note=64, velocity=0, time=0),
    Message('note_on', channel=3, note=56, velocity=0, time=0),
    Message('note_on', channel=0, note=66, velocity=0, time=12),
    Message('note_on', channel=0, note=59, velocity=0, time=10),
    Message('note_on', channel=1, note=37, velocity=116, time=4),
    Message('note_on', channel=9, note=38, velocity=122, time=0),
    Message('note_on', channel=9, note=63, velocity=114, time=0),
    Message('note_on', channel=9, note=42, velocity=96, time=10),
    Message('note_on', channel=9, note=63, velocity=0, time=26),
    Message('note_on', channel=9, note=38, velocity=0, time=1),
    Message('note_on', channel=9, note=42, velocity=0, time=7),
    Message('note_on', channel=1, note=37, velocity=0, time=1),
    Message('note_on', channel=2, note=61, velocity=0, time=65),
    Message('note_on', channel=2, note=68, velocity=0, time=4),
    Message('note_on', channel=5, note=76, velocity=0, time=3),
    Message('note_on', channel=5, note=68, velocity=0, time=0),
    Message('note_on', channel=2, note=64, velocity=0, time=2),
    Message('note_on', channel=1, note=30, velocity=122, time=1),
    Message('note_on', channel=2, note=54, velocity=127, time=0),
    Message('note_on', channel=2, note=42, velocity=127, time=0),
    Message('note_on', channel=0, note=56, velocity=122, time=0),
    Message('note_on', channel=0, note=64, velocity=105, time=0),
    Message('note_on', channel=3, note=54, velocity=112, time=0),
    Message('note_on', channel=4, note=54, velocity=112, time=0),
    Message('note_on', channel=5, note=78, velocity=77, time=0),
    Message('note_on', channel=5, note=70, velocity=48, time=0),
    Message('note_on', channel=5, note=75, velocity=46, time=0),
    Message('note_on', channel=9, note=64, velocity=93, time=0),
    Message('note_on', channel=2, note=56, velocity=0, time=4),
    Message('note_on', channel=5, note=73, velocity=0, time=4),
    Message('note_on', channel=2, note=49, velocity=0, time=2),
    Message('note_on', channel=9, note=36, velocity=114, time=0),
    Message('note_on', channel=9, note=42, velocity=103, time=0),
    Message('note_on', channel=9, note=64, velocity=0, time=30),
    Message('note_on', channel=9, note=42, velocity=0, time=5),
    Message('note_on', channel=9, note=36, velocity=0, time=20),
    Message('note_on', channel=0, note=56, velocity=0, time=26),
    Message('note_on', channel=3, note=54, velocity=0, time=12),
    Message('note_on', channel=4, note=54, velocity=0, time=0),
    Message('note_on', channel=9, note=38, velocity=109, time=17),
    Message('note_on', channel=0, note=64, velocity=0, time=3),
    Message('note_on', channel=9, note=42, velocity=89, time=7),
    Message('note_on', channel=1, note=30, velocity=0, time=20),
    Message('note_on', channel=9, note=42, velocity=0, time=15),
    Message('note_on', channel=9, note=38, velocity=0, time=3),
    Message('note_on', channel=1, note=30, velocity=127, time=72),
    Message('note_on', channel=2, note=58, velocity=127, time=0),
    Message('note_on', channel=2, note=61, velocity=127, time=0),
    Message('note_on', channel=2, note=66, velocity=127, time=0),
    Message('note_on', channel=0, note=59, velocity=112, time=0),
    Message('note_on', channel=0, note=66, velocity=122, time=0),
    Message('note_on', channel=3, note=66, velocity=93, time=0),
    Message('note_on', channel=3, note=61, velocity=101, time=0),
    Message('note_on', channel=3, note=70, velocity=103, time=0),
    Message('note_on', channel=4, note=66, velocity=93, time=0),
    Message('note_on', channel=4, note=70, velocity=103, time=0),
    Message('note_on', channel=4, note=61, velocity=101, time=0),
    Message('note_on', channel=9, note=63, velocity=122, time=0),
    Message('note_on', channel=9, note=36, velocity=116, time=10),
    Message('note_on', channel=9, note=42, velocity=82, time=0),
    Message('note_on', channel=9, note=63, velocity=0, time=22),
    Message('note_on', channel=9, note=42, velocity=0, time=11),
    Message('note_on', channel=9, note=36, velocity=0, time=11),
    Message('note_on', channel=0, note=59, velocity=0, time=12),
    Message('note_on', channel=0, note=66, velocity=0, time=15),
    Message('note_on', channel=4, note=66, velocity=0, time=11),
    Message('note_on', channel=3, note=66, velocity=0, time=0),
    Message('note_on', channel=4, note=70, velocity=0, time=9),
    Message('note_on', channel=4, note=61, velocity=0, time=0),
    Message('note_on', channel=3, note=61, velocity=0, time=0),
    Message('note_on', channel=3, note=70, velocity=0, time=0),
    Message('note_on', channel=0, note=56, velocity=119, time=19),
    Message('note_on', channel=0, note=64, velocity=114, time=0),
    Message('note_on', channel=0, note=64, velocity=0, time=77),
    Message('note_on', channel=1, note=30, velocity=0, time=3),
    Message('note_on', channel=9, note=54, velocity=127, time=40),
    Message('note_on', channel=9, note=38, velocity=122, time=0),
    Message('note_on', channel=9, note=42, velocity=119, time=10),
    Message('note_on', channel=0, note=56, velocity=0, time=4),
    Message('note_on', channel=9, note=54, velocity=0, time=22),
    Message('note_on', channel=9, note=38, velocity=0, time=11),
    Message('note_on', channel=9, note=42, velocity=0, time=3),
    Message('note_on', channel=2, note=66, velocity=0, time=69),
    Message('note_on', channel=2, note=58, velocity=0, time=1),
    Message('note_on', channel=0, note=63, velocity=112, time=0),
    Message('note_on', channel=0, note=56, velocity=116, time=0),
    Message('note_on', channel=9, note=64, velocity=101, time=0),
    Message('note_on', channel=9, note=64, velocity=0, time=39),
    Message('note_on', channel=2, note=61, velocity=0, time=10),
    Message('note_on', channel=0, note=56, velocity=0, time=1),
    Message('note_on', channel=0, note=63, velocity=0, time=6),
    Message('note_on', channel=1, note=30, velocity=116, time=64),
    Message('note_on', channel=2, note=66, velocity=127, time=0),
    Message('note_on', channel=2, note=58, velocity=127, time=0),
    Message('note_on', channel=2, note=61, velocity=127, time=0),
    Message('note_on', channel=0, note=51, velocity=119, time=0),
    Message('note_on', channel=0, note=61, velocity=122, time=0),
    Message('note_on', channel=3, note=66, velocity=112, time=0),
    Message('note_on', channel=3, note=70, velocity=112, time=0),
    Message('note_on', channel=3, note=61, velocity=112, time=0),
    Message('note_on', channel=4, note=66, velocity=112, time=0),
    Message('note_on', channel=4, note=61, velocity=112, time=0),
    Message('note_on', channel=4, note=70, velocity=112, time=0),
    Message('note_on', channel=9, note=63, velocity=122, time=0),
    Message('note_on', channel=9, note=42, velocity=91, time=10),
    Message('note_on', channel=1, note=30, velocity=0, time=18),
    Message('note_on', channel=9, note=63, velocity=0, time=10),
    Message('note_on', channel=9, note=42, velocity=0, time=8),
    Message('note_on', channel=4, note=61, velocity=0, time=66),
    Message('note_on', channel=3, note=61, velocity=0, time=0),
    Message('note_on', channel=4, note=66, velocity=0, time=3),
    Message('note_on', channel=3, note=66, velocity=0, time=0),
    Message('note_on', channel=1, note=30, velocity=119, time=5),
    Message('note_on', channel=9, note=63, velocity=122, time=0),
    Message('note_on', channel=9, note=38, velocity=122, time=0),
    Message('note_on', channel=9, note=42, velocity=107, time=10),
    Message('note_on', channel=4, note=70, velocity=0, time=1),
    Message('note_on', channel=3, note=70, velocity=0, time=0),
    Message('note_on', channel=0, note=51, velocity=0, time=17),
    Message('note_on', channel=9, note=38, velocity=0, time=4),
    Message('note_on', channel=0, note=61, velocity=0, time=4),
    Message('note_on', channel=9, note=63, velocity=0, time=3),
    Message('note_on', channel=1, note=30, velocity=0, time=7),
    Message('note_on', channel=9, note=42, velocity=0, time=3),
    Message('note_on', channel=5, note=75, velocity=0, time=16),
    Message('note_on', channel=2, note=54, velocity=0, time=20),
    Message('note_on', channel=2, note=42, velocity=0, time=17),
    Message('note_on', channel=1, note=32, velocity=127, time=18),
    Message('note_on', channel=2, note=44, velocity=127, time=0),
    Message('note_on', channel=2, note=56, velocity=127, time=0),
    Message('note_on', channel=0, note=63, velocity=109, time=0),
    Message('note_on', channel=0, note=56, velocity=105, time=0),
    Message('note_on', channel=3, note=44, velocity=98, time=0),
    Message('note_on', channel=4, note=44, velocity=98, time=0),
    Message('note_on', channel=5, note=83, velocity=58, time=0),
    Message('note_on', channel=5, note=75, velocity=58, time=0),
    Message('note_on', channel=5, note=80, velocity=64, time=0),
    Message('note_on', channel=5, note=71, velocity=55, time=0),
    Message('note_on', channel=9, note=64, velocity=94, time=0),
    Message('note_on', channel=2, note=66, velocity=0, time=1),
    Message('note_on', channel=2, note=58, velocity=0, time=4),
    Message('note_on', channel=5, note=78, velocity=0, time=1),
    Message('note_on', channel=5, note=70, velocity=0, time=2),
    Message('note_on', channel=9, note=42, velocity=114, time=2),
    Message('note_on', channel=9, note=36, velocity=122, time=0),
    Message('note_on', channel=2, note=61, velocity=0, time=1),
    Message('note_on', channel=9, note=42, velocity=0, time=44),
    Message('note_on', channel=9, note=64, velocity=0, time=5),
    Message('note_on', channel=9, note=36, velocity=0, time=5),
    Message('note_on', channel=3, note=44, velocity=0, time=12),
    Message('note_on', channel=4, note=44, velocity=0, time=0),
    Message('note_on', channel=1, note=32, velocity=0, time=74),
    Message('note_on', channel=1, note=32, velocity=127, time=89),
    Message('note_on', channel=2, note=68, velocity=127, time=0),
    Message('note_on', channel=2, note=59, velocity=127, time=0),
    Message('note_on', channel=2, note=63, velocity=127, time=0),
    Message('note_on', channel=3, note=68, velocity=107, time=0),
    Message('note_on', channel=3, note=59, velocity=89, time=0),
    Message('note_on', channel=3, note=63, velocity=112, time=0),
    Message('note_on', channel=4, note=68, velocity=107, time=0),
    Message('note_on', channel=4, note=59, velocity=89, time=0),
    Message('note_on', channel=4, note=63, velocity=112, time=0),
    Message('note_on', channel=9, note=63, velocity=119, time=0),
    Message('note_on', channel=9, note=42, velocity=77, time=10),
    Message('note_on', channel=9, note=36, velocity=116, time=0),
    Message('note_on', channel=9, note=63, velocity=0, time=27),
    Message('note_on', channel=9, note=42, velocity=0, time=17),
    Message('note_on', channel=9, note=36, velocity=0, time=1),
    Message('note_on', channel=3, note=68, velocity=0, time=41),
    Message('note_on', channel=4, note=68, velocity=0, time=0),
    Message('note_on', channel=4, note=63, velocity=0, time=14),
    Message('note_on', channel=3, note=63, velocity=0, time=0),
    Message('note_on', channel=4, note=59, velocity=0, time=6),
    Message('note_on', channel=3, note=59, velocity=0, time=0),
    Message('note_on', channel=0, note=63, velocity=0, time=30),
    Message('note_on', channel=0, note=56, velocity=0, time=49),
    Message('note_on', channel=1, note=32, velocity=0, time=1),
    Message('note_on', channel=9, note=54, velocity=127, time=44),
    Message('note_on', channel=9, note=38, velocity=116, time=0),
    Message('note_on', channel=9, note=42, velocity=119, time=10),
    Message('note_on', channel=9, note=54, velocity=0, time=25),
    Message('note_on', channel=9, note=38, velocity=0, time=12),
    Message('note_on', channel=9, note=42, velocity=0, time=4),
    Message('note_on', channel=9, note=64, velocity=101, time=69),
    Message('note_on', channel=9, note=64, velocity=0, time=49),
    Message('note_on', channel=3, note=68, velocity=109, time=71),
    Message('note_on', channel=3, note=59, velocity=89, time=0),
    Message('note_on', channel=3, note=63, velocity=114, time=0),
    Message('note_on', channel=4, note=68, velocity=109, time=0),
    Message('note_on', channel=4, note=59, velocity=89, time=0),
    Message('note_on', channel=4, note=63, velocity=114, time=0),
    Message('note_on', channel=9, note=63, velocity=122, time=0),
    Message('note_on', channel=9, note=42, velocity=93, time=10),
    Message('note_on', channel=2, note=44, velocity=0, time=22),
    Message('note_on', channel=9, note=63, velocity=0, time=10),
    Message('note_on', channel=9, note=42, velocity=0, time=5),
    Message('note_on', channel=3, note=68, velocity=0, time=41),
    Message('note_on', channel=4, note=68, velocity=0, time=0),
    Message('note_on', channel=3, note=63, velocity=0, time=7),
    Message('note_on', channel=4, note=63, velocity=0, time=0),
    Message('note_on', channel=4, note=59, velocity=0, time=14),
    Message('note_on', channel=3, note=59, velocity=0, time=0),
    Message('note_on', channel=1, note=30, velocity=124, time=11),
    Message('note_on', channel=9, note=38, velocity=116, time=0),
    Message('note_on', channel=9, note=63, velocity=114, time=0),
    Message('note_on', channel=9, note=42, velocity=98, time=10),
    Message('note_on', channel=9, note=63, velocity=0, time=26),
    Message('note_on', channel=9, note=42, velocity=0, time=12),
    Message('note_on', channel=9, note=38, velocity=0, time=1),
    Message('note_on', channel=1, note=30, velocity=0, time=1),
    Message('note_on', channel=1, note=32, velocity=127, time=70),
    Message('note_on', channel=2, note=44, velocity=127, time=0),
    Message('note_on', channel=3, note=44, velocity=105, time=0),
    Message('note_on', channel=4, note=44, velocity=105, time=0),
    Message('note_on', channel=9, note=64, velocity=93, time=0),
    Message('note_on', channel=9, note=42, velocity=116, time=10),
    Message('note_on', channel=9, note=36, velocity=107, time=0),
    Message('note_on', channel=2, note=56, velocity=0, time=11),
    Message('note_on', channel=9, note=64, velocity=0, time=19),
    Message('note_on', channel=9, note=36, velocity=0, time=1),
    Message('note_on', channel=9, note=42, velocity=0, time=7),
    Message('note_on', channel=3, note=44, velocity=0, time=9),
    Message('note_on', channel=4, note=44, velocity=0, time=0),
    Message('note_on', channel=9, note=38, velocity=122, time=63),
    Message('note_on', channel=9, note=42, velocity=97, time=10),
    Message('note_on', channel=1, note=32, velocity=0, time=18),
    Message('note_on', channel=9, note=38, velocity=0, time=11),
    Message('control_change', channel=5, control=1, value=1, time=2),
    Message('note_on', channel=9, note=42, velocity=0, time=4),
    Message('control_change', channel=5, control=1, value=2, time=24),
    Message('control_change', channel=5, control=1, value=11, time=17),
    Message('control_change', channel=5, control=1, value=17, time=14),
    Message('control_change', channel=5, control=1, value=21, time=16),
    Message('note_on', channel=1, note=32, velocity=127, time=4),
    Message('note_on', channel=2, note=56, velocity=127, time=0),
    Message('note_on', channel=3, note=68, velocity=107, time=0),
    Message('note_on', channel=3, note=63, velocity=114, time=0),
    Message('note_on', channel=3, note=59, velocity=87, time=0),
    Message('note_on', channel=4, note=68, velocity=107, time=0),
    Message('note_on', channel=4, note=59, velocity=87, time=0),
    Message('note_on', channel=4, note=63, velocity=114, time=0),
    Message('note_on', channel=9, note=63, velocity=122, time=0),
    Message('note_on', channel=9, note=46, velocity=87, time=0),
    Message('note_on', channel=9, note=36, velocity=124, time=10),
    Message('control_change', channel=5, control=1, value=22, time=2),
    Message('control_change', channel=5, control=1, value=23, time=14),
    Message('note_on', channel=9, note=63, velocity=0, time=6),
    Message('note_on', channel=9, note=46, velocity=0, time=4),
    Message('control_change', channel=5, control=1, value=25, time=7),
    Message('note_on', channel=9, note=36, velocity=0, time=6),
    Message('control_change', channel=5, control=1, value=27, time=7),
    Message('note_on', channel=2, note=59, velocity=0, time=2),
    Message('note_on', channel=2, note=68, velocity=0, time=5),
    Message('note_on', channel=2, note=63, velocity=0, time=5),
    Message('control_change', channel=5, control=1, value=29, time=7),
    Message('control_change', channel=5, control=1, value=30, time=13),
    Message('note_on', channel=3, note=68, velocity=0, time=3),
    Message('note_on', channel=4, note=68, velocity=0, time=0),
    Message('note_on', channel=4, note=63, velocity=0, time=5),
    Message('note_on', channel=3, note=63, velocity=0, time=0),
    Message('note_on', channel=3, note=59, velocity=0, time=1),
    Message('note_on', channel=4, note=59, velocity=0, time=0),
    Message('control_change', channel=5, control=1, value=31, time=6),
    Message('control_change', channel=5, control=1, value=33, time=16),
    Message('control_change', channel=5, control=1, value=34, time=14),
    Message('note_on', channel=1, note=32, velocity=0, time=9),
    Message('control_change', channel=5, control=1, value=35, time=5),
    Message('control_change', channel=5, control=1, value=37, time=15),
    Message('control_change', channel=5, control=1, value=38, time=25),
    Message('control_change', channel=5, control=1, value=39, time=24),
    Message('control_change', channel=5, control=1, value=40, time=24),
    Message('note_on', channel=1, note=35, velocity=116, time=5),
    Message('note_on', channel=2, note=63, velocity=124, time=0),
    Message('note_on', channel=9, note=54, velocity=127, time=0),
    Message('note_on', channel=9, note=38, velocity=122, time=0),
    Message('control_change', channel=5, control=1, value=41, time=10),
    Message('note_on', channel=9, note=42, velocity=124, time=0),
    Message('note_on', channel=2, note=63, velocity=0, time=15),
    Message('note_on', channel=9, note=54, velocity=0, time=11),
    Message('control_change', channel=5, control=1, value=42, time=6),
    Message('note_on', channel=9, note=38, velocity=0, time=5),
    Message('note_on', channel=9, note=42, velocity=0, time=6),
    Message('control_change', channel=5, control=1, value=43, time=24),
    Message('control_change', channel=5, control=1, value=44, time=37),
    Message('note_on', channel=1, note=35, velocity=0, time=1),
    Message('note_on', channel=9, note=64, velocity=101, time=5),
    Message('note_on', channel=9, note=64, velocity=0, time=39),
    Message('control_change', channel=5, control=1, value=43, time=2),
    Message('control_change', channel=5, control=1, value=42, time=9),
    Message('control_change', channel=5, control=1, value=40, time=15),
    Message('control_change', channel=5, control=1, value=37, time=11),
    Message('control_change', channel=5, control=1, value=34, time=14),
    Message('control_change', channel=5, control=1, value=27, time=13),
    Message('control_change', channel=5, control=1, value=12, time=10),
    Message('note_on', channel=1, note=35, velocity=112, time=7),
    Message('note_on', channel=2, note=63, velocity=127, time=0),
    Message('note_on', channel=2, note=68, velocity=127, time=0),
    Message('note_on', channel=2, note=59, velocity=127, time=0),
    Message('note_on', channel=3, note=59, velocity=94, time=0),
    Message('note_on', channel=3, note=63, velocity=116, time=0),
    Message('note_on', channel=3, note=68, velocity=112, time=0),
    Message('note_on', channel=4, note=63, velocity=116, time=0),
    Message('note_on', channel=4, note=59, velocity=94, time=0),
    Message('note_on', channel=4, note=68, velocity=112, time=0),
    Message('note_on', channel=9, note=38, velocity=101, time=0),
    Message('note_on', channel=9, note=63, velocity=122, time=0),
    Message('control_change', channel=5, control=1, value=5, time=8),
    Message('note_on', channel=9, note=42, velocity=77, time=2),
    Message('control_change', channel=5, control=1, value=0, time=9),
    Message('note_on', channel=9, note=38, velocity=0, time=9),
    Message('note_on', channel=9, note=42, velocity=0, time=10),
    Message('note_on', channel=9, note=63, velocity=0, time=0),
    Message('note_on', channel=4, note=59, velocity=0, time=77),
    Message('note_on', channel=3, note=59, velocity=0, time=0),
    Message('note_on', channel=4, note=68, velocity=0, time=3),
    Message('note_on', channel=3, note=68, velocity=0, time=0),
    Message('note_on', channel=3, note=63, velocity=0, time=2),
    Message('note_on', channel=4, note=63, velocity=0, time=0),
    Message('note_on', channel=9, note=63, velocity=122, time=0),
    Message('note_on', channel=9, note=38, velocity=122, time=0),
    Message('note_on', channel=1, note=35, velocity=0, time=6),
    Message('note_on', channel=2, note=63, velocity=0, time=23),
    Message('note_on', channel=2, note=68, velocity=0, time=0),
    Message('note_on', channel=2, note=59, velocity=0, time=1),
    Message('note_on', channel=9, note=38, velocity=0, time=6),
    Message('note_on', channel=9, note=63, velocity=0, time=3),
    Message('note_on', channel=2, note=56, velocity=0, time=13),
    Message('note_on', channel=2, note=44, velocity=0, time=1),
    Message('note_on', channel=5, note=71, velocity=0, time=23),
    Message('note_on', channel=5, note=83, velocity=0, time=2),
    Message('note_on', channel=5, note=75, velocity=0, time=2),
    Message('note_on', channel=5, note=80, velocity=0, time=3),
    Message('note_on', channel=1, note=37, velocity=122, time=37),
    Message('note_on', channel=2, note=49, velocity=127, time=0),
    Message('note_on', channel=0, note=64, velocity=76, time=0),
    Message('note_on', channel=0, note=61, velocity=93, time=0),
    Message('note_on', channel=3, note=49, velocity=98, time=0),
    Message('note_on', channel=4, note=49, velocity=98, time=0),
    Message('note_on', channel=5, note=76, velocity=75, time=0),
    Message('note_on', channel=5, note=68, velocity=72, time=0),
    Message('note_on', channel=5, note=73, velocity=65, time=0),
    Message('note_on', channel=9, note=64, velocity=94, time=0),
    Message('note_on', channel=9, note=36, velocity=124, time=10),
    Message('note_on', channel=9, note=42, velocity=124, time=0),
    Message('note_on', channel=9, note=42, velocity=0, time=44),
    Message('note_on', channel=9, note=64, velocity=0, time=6),
    Message('note_on', channel=9, note=36, velocity=0, time=16),
    Message('note_on', channel=4, note=49, velocity=0, time=57),
    Message('note_on', channel=3, note=49, velocity=0, time=0),
    Message('note_on', channel=1, note=37, velocity=0, time=4),
    Message('note_on', channel=1, note=37, velocity=116, time=103),
    Message('note_on', channel=2, note=64, velocity=127, time=0),
    Message('note_on', channel=2, note=68, velocity=127, time=0),
    Message('note_on', channel=2, note=61, velocity=127, time=0),
    Message('note_on', channel=2, note=56, velocity=127, time=0),
    Message('note_on', channel=3, note=56, velocity=98, time=0),
    Message('note_on', channel=3, note=68, velocity=98, time=0),
    Message('note_on', channel=3, note=64, velocity=87, time=0),
    Message('note_on', channel=3, note=61, velocity=105, time=0),
    Message('note_on', channel=4, note=56, velocity=98, time=0),
    Message('note_on', channel=4, note=68, velocity=98, time=0),
    Message('note_on', channel=4, note=64, velocity=87, time=0),
    Message('note_on', channel=4, note=61, velocity=105, time=0),
    Message('note_on', channel=9, note=63, velocity=119, time=0),
    Message('note_on', channel=9, note=42, velocity=89, time=10),
    Message('note_on', channel=9, note=36, velocity=122, time=0),
    Message('note_on', channel=9, note=63, velocity=0, time=27),
    Message('note_on', channel=9, note=42, velocity=0, time=9),
    Message('note_on', channel=9, note=36, velocity=0, time=23),
    Message('note_on', channel=3, note=68, velocity=0, time=25),
    Message('note_on', channel=4, note=68, velocity=0, time=0),
    Message('note_on', channel=4, note=64, velocity=0, time=4),
    Message('note_on', channel=3, note=64, velocity=0, time=0),
    Message('note_on', channel=4, note=56, velocity=0, time=18),
    Message('note_on', channel=4, note=61, velocity=0, time=0),
    Message('note_on', channel=3, note=61, velocity=0, time=0),
    Message('note_on', channel=3, note=56, velocity=0, time=0),
    Message('note_on', channel=1, note=37, velocity=0, time=49),
    Message('note_on', channel=9, note=38, velocity=124, time=75),
    Message('note_on', channel=9, note=54, velocity=127, time=0),
    Message('note_on', channel=9, note=42, velocity=119, time=10),
    Message('note_on', channel=9, note=54, velocity=0, time=25),
    Message('note_on', channel=9, note=38, velocity=0, time=15),
    Message('note_on', channel=9, note=42, velocity=0, time=11),
    Message('note_on', channel=9, note=64, velocity=101, time=59),
    Message('note_on', channel=9, note=64, velocity=0, time=49),
    Message('note_on', channel=3, note=68, velocity=101, time=71),
    Message('note_on', channel=3, note=64, velocity=96, time=0),
    Message('note_on', channel=3, note=61, velocity=101, time=0),
    Message('note_on', channel=3, note=56, velocity=101, time=0),
    Message('note_on', channel=4, note=56, velocity=101, time=0),
    Message('note_on', channel=4, note=68, velocity=101, time=0),
    Message('note_on', channel=4, note=64, velocity=96, time=0),
    Message('note_on', channel=4, note=61, velocity=101, time=0),
    Message('note_on', channel=9, note=63, velocity=122, time=0),
    Message('note_on', channel=9, note=42, velocity=89, time=10),
    Message('note_on', channel=9, note=63, velocity=0, time=32),
    Message('note_on', channel=9, note=42, velocity=0, time=6),
    Message('note_on', channel=3, note=68, velocity=0, time=36),
    Message('note_on', channel=4, note=68, velocity=0, time=0),
    Message('note_on', channel=4, note=61, velocity=0, time=2),
    Message('note_on', channel=3, note=61, velocity=0, time=0),
    Message('note_on', channel=3, note=56, velocity=0, time=8),
    Message('note_on', channel=4, note=64, velocity=0, time=0),
    Message('note_on', channel=3, note=64, velocity=0, time=0),
    Message('note_on', channel=4, note=56, velocity=0, time=0),
    Message('note_on', channel=1, note=37, velocity=119, time=26),
    Message('note_on', channel=9, note=63, velocity=114, time=0),
    Message('note_on', channel=9, note=38, velocity=122, time=0),
    Message('note_on', channel=9, note=42, velocity=96, time=10),
    Message('note_on', channel=9, note=63, velocity=0, time=26),
    Message('note_on', channel=9, note=38, velocity=0, time=1),
    Message('note_on', channel=9, note=42, velocity=0, time=7),
    Message('note_on', channel=1, note=37, velocity=0, time=58),
    Message('note_on', channel=2, note=61, velocity=0, time=8),
    Message('note_on', channel=2, note=68, velocity=0, time=4),
    Message('note_on', channel=5, note=76, velocity=0, time=3),
    Message('note_on', channel=5, note=68, velocity=0, time=0),
    Message('note_on', channel=2, note=64, velocity=0, time=2),
    Message('note_on', channel=1, note=30, velocity=119, time=1),
    Message('note_on', channel=2, note=54, velocity=127, time=0),
    Message('note_on', channel=2, note=42, velocity=127, time=0),
    Message('note_on', channel=0, note=66, velocity=93, time=0),
    Message('note_on', channel=0, note=63, velocity=96, time=0),
    Message('note_on', channel=3, note=54, velocity=112, time=0),
    Message('note_on', channel=4, note=54, velocity=112, time=0),
    Message('note_on', channel=5, note=78, velocity=77, time=0),
    Message('note_on', channel=5, note=75, velocity=46, time=0),
    Message('note_on', channel=5, note=70, velocity=48, time=0),
    Message('note_on', channel=9, note=64, velocity=93, time=0),
    Message('note_on', channel=2, note=56, velocity=0, time=4),
    Message('note_on', channel=5, note=73, velocity=0, time=4),
    Message('note_on', channel=2, note=49, velocity=0, time=2),
    Message('note_on', channel=9, note=36, velocity=114, time=0),
    Message('note_on', channel=9, note=42, velocity=103, time=0),
    Message('note_on', channel=0, note=64, velocity=0, time=8),
    Message('note_on', channel=9, note=64, velocity=0, time=22),
    Message('note_on', channel=0, note=61, velocity=0, time=4),
    Message('note_on', channel=9, note=42, velocity=0, time=1),
    Message('note_on', channel=9, note=36, velocity=0, time=20),
    Message('note_on', channel=4, note=54, velocity=0, time=38),
    Message('note_on', channel=3, note=54, velocity=0, time=0),
    Message('note_on', channel=9, note=38, velocity=109, time=17),
    Message('note_on', channel=9, note=42, velocity=89, time=10),
    Message('note_on', channel=1, note=30, velocity=0, time=14),
    Message('note_on', channel=9, note=42, velocity=0, time=21),
    Message('note_on', channel=9, note=38, velocity=0, time=3),
    Message('note_on', channel=1, note=30, velocity=122, time=72),
    Message('note_on', channel=2, note=66, velocity=127, time=0),
    Message('note_on', channel=2, note=61, velocity=127, time=0),
    Message('note_on', channel=2, note=58, velocity=127, time=0),
    Message('note_on', channel=3, note=70, velocity=103, time=0),
    Message('note_on', channel=3, note=61, velocity=101, time=0),
    Message('note_on', channel=3, note=66, velocity=93, time=0),
    Message('note_on', channel=4, note=66, velocity=93, time=0),
    Message('note_on', channel=4, note=61, velocity=101, time=0),
    Message('note_on', channel=4, note=70, velocity=103, time=0),
    Message('note_on', channel=9, note=63, velocity=122, time=0),
    Message('note_on', channel=9, note=42, velocity=82, time=10),
    Message('note_on', channel=9, note=36, velocity=116, time=0),
    Message('note_on', channel=9, note=63, velocity=0, time=22),
    Message('note_on', channel=9, note=42, velocity=0, time=11),
    Message('note_on', channel=9, note=36, velocity=0, time=11),
    Message('note_on', channel=4, note=66, velocity=0, time=38),
    Message('note_on', channel=3, note=66, velocity=0, time=0),
    Message('note_on', channel=4, note=61, velocity=0, time=9),
    Message('note_on', channel=4, note=70, velocity=0, time=0),
    Message('note_on', channel=3, note=61, velocity=0, time=0),
    Message('note_on', channel=3, note=70, velocity=0, time=0),
    Message('note_on', channel=1, note=30, velocity=0, time=92),
    Message('note_on', channel=9, note=38, velocity=122, time=47),
    Message('note_on', channel=9, note=54, velocity=127, time=0),
    Message('note_on', channel=9, note=42, velocity=119, time=10),
    Message('note_on', channel=9, note=54, velocity=0, time=26),
    Message('note_on', channel=9, note=38, velocity=0, time=11),
    Message('note_on', channel=9, note=42, velocity=0, time=3),
    Message('note_on', channel=2, note=66, velocity=0, time=69),
    Message('note_on', channel=2, note=58, velocity=0, time=1),
    Message('note_on', channel=9, note=64, velocity=101, time=0),
    Message('note_on', channel=9, note=64, velocity=0, time=39),
    Message('note_on', channel=2, note=61, velocity=0, time=10),
    Message('note_on', channel=2, note=66, velocity=127, time=71),
    Message('note_on', channel=2, note=61, velocity=127, time=0),
    Message('note_on', channel=2, note=58, velocity=127, time=0),
    Message('note_on', channel=3, note=66, velocity=112, time=0),
    Message('note_on', channel=3, note=70, velocity=112, time=0),
    Message('note_on', channel=3, note=61, velocity=112, time=0),
    Message('note_on', channel=4, note=70, velocity=112, time=0),
    Message('note_on', channel=4, note=61, velocity=112, time=0),
    Message('note_on', channel=4, note=66, velocity=112, time=0),
    Message('note_on', channel=9, note=63, velocity=122, time=0),
    Message('note_on', channel=9, note=42, velocity=91, time=10),
    Message('note_on', channel=9, note=63, velocity=0, time=28),
    Message('note_on', channel=9, note=42, velocity=0, time=8),
    Message('note_on', channel=4, note=61, velocity=0, time=66),
    Message('note_on', channel=3, note=61, velocity=0, time=0),
    Message('note_on', channel=4, note=66, velocity=0, time=3),
    Message('note_on', channel=3, note=66, velocity=0, time=0),
    Message('note_on', channel=1, note=30, velocity=127, time=5),
    Message('note_on', channel=9, note=38, velocity=122, time=0),
    Message('note_on', channel=9, note=63, velocity=122, time=0),
    Message('note_on', channel=9, note=42, velocity=107, time=10),
    Message('note_on', channel=3, note=70, velocity=0, time=1),
    Message('note_on', channel=4, note=70, velocity=0, time=0),
    Message('note_on', channel=9, note=38, velocity=0, time=21),
    Message('note_on', channel=9, note=63, velocity=0, time=7),
    Message('note_on', channel=9, note=42, velocity=0, time=10),
    Message('note_on', channel=1, note=30, velocity=0, time=7),
    Message('note_on', channel=2, note=54, velocity=0, time=29),
    Message('note_on', channel=5, note=75, velocity=0, time=10),
    Message('note_on', channel=0, note=63, velocity=0, time=6),
    Message('note_on', channel=2, note=42, velocity=0, time=1),
    Message('note_on', channel=1, note=32, velocity=127, time=18),
    Message('note_on', channel=2, note=44, velocity=127, time=0),
    Message('note_on', channel=2, note=56, velocity=127, time=0),
    Message('note_on', channel=0, note=63, velocity=91, time=0),
    Message('note_on', channel=0, note=59, velocity=47, time=0),
    Message('note_on', channel=3, note=44, velocity=98, time=0),
    Message('note_on', channel=4, note=44, velocity=98, time=0),
    Message('note_on', channel=5, note=71, velocity=55, time=0),
    Message('note_on', channel=5, note=80, velocity=64, time=0),
    Message('note_on', channel=5, note=75, velocity=58, time=0),
    Message('note_on', channel=9, note=64, velocity=94, time=0),
    Message('note_on', channel=2, note=66, velocity=0, time=1),
    Message('note_on', channel=2, note=58, velocity=0, time=4),
    Message('note_on', channel=5, note=78, velocity=0, time=1),
    Message('note_on', channel=5, note=70, velocity=0, time=2),
    Message('note_on', channel=9, note=42, velocity=114, time=2),
    Message('note_on', channel=9, note=36, velocity=122, time=0),
    Message('note_on', channel=2, note=61, velocity=0, time=1),
    Message('note_on', channel=0, note=66, velocity=0, time=10),
    Message('note_on', channel=9, note=42, velocity=0, time=34),
    Message('note_on', channel=9, note=64, velocity=0, time=5),
    Message('note_on', channel=9, note=36, velocity=0, time=5),
    Message('note_on', channel=3, note=44, velocity=0, time=12),
    Message('note_on', channel=4, note=44, velocity=0, time=0),
    Message('note_on', channel=1, note=32, velocity=0, time=102),
    Message('note_on', channel=1, note=32, velocity=127, time=61),
    Message('note_on', channel=2, note=68, velocity=127, time=0),
    Message('note_on', channel=2, note=59, velocity=127, time=0),
    Message('note_on', channel=2, note=63, velocity=127, time=0),
    Message('note_on', channel=3, note=63, velocity=112, time=0),
    Message('note_on', channel=3, note=68, velocity=107, time=0),
    Message('note_on', channel=3, note=59, velocity=89, time=0),
    Message('note_on', channel=4, note=63, velocity=112, time=0),
    Message('note_on', channel=4, note=59, velocity=89, time=0),
    Message('note_on', channel=4, note=68, velocity=107, time=0),
    Message('note_on', channel=9, note=63, velocity=119, time=0),
    Message('note_on', channel=9, note=42, velocity=77, time=10),
    Message('note_on', channel=9, note=36, velocity=116, time=0),
    Message('note_on', channel=9, note=63, velocity=0, time=27),
    Message('note_on', channel=9, note=42, velocity=0, time=17),
    Message('note_on', channel=9, note=36, velocity=0, time=1),
    Message('note_on', channel=4, note=68, velocity=0, time=41),
    Message('note_on', channel=3, note=68, velocity=0, time=0),
    Message('note_on', channel=4, note=63, velocity=0, time=14),
    Message('note_on', channel=3, note=63, velocity=0, time=0),
    Message('note_on', channel=4, note=59, velocity=0, time=6),
    Message('note_on', channel=3, note=59, velocity=0, time=0),
    Message('note_on', channel=1, note=32, velocity=0, time=87),
    Message('note_on', channel=9, note=54, velocity=127, time=37),
    Message('note_on', channel=9, note=38, velocity=116, time=0),
    Message('note_on', channel=9, note=42, velocity=119, time=10),
    Message('note_on', channel=9, note=54, velocity=0, time=25),
    Message('note_on', channel=9, note=38, velocity=0, time=12),
    Message('note_on', channel=9, note=42, velocity=0, time=4),
    Message('note_on', channel=9, note=64, velocity=101, time=69),
    Message('note_on', channel=9, note=64, velocity=0, time=49),
    Message('note_on', channel=3, note=68, velocity=109, time=71),
    Message('note_on', channel=3, note=59, velocity=89, time=0),
    Message('note_on', channel=3, note=63, velocity=114, time=0),
    Message('note_on', channel=4, note=68, velocity=109, time=0),
    Message('note_on', channel=4, note=63, velocity=114, time=0),
    Message('note_on', channel=4, note=59, velocity=89, time=0),
    Message('note_on', channel=9, note=63, velocity=122, time=0),
    Message('note_on', channel=9, note=42, velocity=93, time=10),
    Message('note_on', channel=2, note=44, velocity=0, time=22),
    Message('note_on', channel=9, note=63, velocity=0, time=10),
    Message('note_on', channel=9, note=42, velocity=0, time=5),
    Message('note_on', channel=3, note=68, velocity=0, time=41),
    Message('note_on', channel=4, note=68, velocity=0, time=0),
    Message('note_on', channel=3, note=63, velocity=0, time=7),
    Message('note_on', channel=4, note=63, velocity=0, time=0),
    Message('note_on', channel=4, note=59, velocity=0, time=14),
    Message('note_on', channel=3, note=59, velocity=0, time=0),
    Message('note_on', channel=1, note=30, velocity=124, time=11),
    Message('note_on', channel=9, note=38, velocity=116, time=0),
    Message('note_on', channel=9, note=63, velocity=114, time=0),
    Message('note_on', channel=9, note=42, velocity=98, time=10),
    Message('note_on', channel=9, note=63, velocity=0, time=26),
    Message('note_on', channel=9, note=42, velocity=0, time=12),
    Message('note_on', channel=9, note=38, velocity=0, time=1),
    Message('note_on', channel=1, note=30, velocity=0, time=33),
    Message('note_on', channel=1, note=32, velocity=127, time=38),
    Message('note_on', channel=2, note=44, velocity=127, time=0),
    Message('note_on', channel=3, note=44, velocity=105, time=0),
    Message('note_on', channel=4, note=44, velocity=105, time=0),
    Message('note_on', channel=9, note=64, velocity=93, time=0),
    Message('note_on', channel=9, note=42, velocity=116, time=10),
    Message('note_on', channel=9, note=36, velocity=107, time=0),
    Message('note_on', channel=2, note=56, velocity=0, time=11),
    Message('note_on', channel=9, note=64, velocity=0, time=19),
    Message('note_on', channel=9, note=36, velocity=0, time=1),
    Message('note_on', channel=9, note=42, velocity=0, time=7),
    Message('note_on', channel=3, note=44, velocity=0, time=9),
    Message('note_on', channel=4, note=44, velocity=0, time=0),
    Message('note_on', channel=9, note=38, velocity=122, time=63),
    Message('note_on', channel=9, note=42, velocity=97, time=10),
    Message('note_on', channel=1, note=32, velocity=0, time=20),
    Message('note_on', channel=9, note=38, velocity=0, time=9),
    Message('control_change', channel=5, control=1, value=1, time=2),
    Message('note_on', channel=9, note=42, velocity=0, time=4),
    Message('control_change', channel=5, control=1, value=2, time=24),
    Message('control_change', channel=5, control=1, value=11, time=17),
    Message('control_change', channel=5, control=1, value=17, time=14),
    Message('control_change', channel=5, control=1, value=21, time=16),
    Message('note_on', channel=1, note=34, velocity=116, time=4),
    Message('note_on', channel=2, note=56, velocity=127, time=0),
    Message('note_on', channel=3, note=63, velocity=114, time=0),
    Message('note_on', channel=3, note=59, velocity=87, time=0),
    Message('note_on', channel=3, note=68, velocity=107, time=0),
    Message('note_on', channel=4, note=68, velocity=107, time=0),
    Message('note_on', channel=4, note=63, velocity=114, time=0),
    Message('note_on', channel=4, note=59, velocity=87, time=0),
    Message('note_on', channel=9, note=46, velocity=87, time=0),
    Message('note_on', channel=9, note=63, velocity=122, time=0),
    Message('note_on', channel=9, note=36, velocity=124, time=10),
    Message('control_change', channel=5, control=1, value=22, time=2),
    Message('control_change', channel=5, control=1, value=23, time=14),
    Message('note_on', channel=9, note=63, velocity=0, time=6),
    Message('note_on', channel=9, note=46, velocity=0, time=4),
    Message('control_change', channel=5, control=1, value=25, time=7),
    Message('note_on', channel=9, note=36, velocity=0, time=6),
    Message('control_change', channel=5, control=1, value=27, time=7),
    Message('note_on', channel=2, note=59, velocity=0, time=2),
    Message('note_on', channel=2, note=68, velocity=0, time=5),
    Message('note_on', channel=2, note=63, velocity=0, time=5),
    Message('control_change', channel=5, control=1, value=29, time=7),
    Message('control_change', channel=5, control=1, value=30, time=13),
    Message('note_on', channel=4, note=68, velocity=0, time=3),
    Message('note_on', channel=3, note=68, velocity=0, time=0),
    Message('note_on', channel=4, note=63, velocity=0, time=5),
    Message('note_on', channel=3, note=63, velocity=0, time=0),
    Message('note_on', channel=4, note=59, velocity=0, time=1),
    Message('note_on', channel=3, note=59, velocity=0, time=0),
    Message('control_change', channel=5, control=1, value=31, time=6),
    Message('control_change', channel=5, control=1, value=33, time=16),
    Message('control_change', channel=5, control=1, value=34, time=14),
    Message('control_change', channel=5, control=1, value=35, time=14),
    Message('note_on', channel=1, note=34, velocity=0, time=11),
    Message('control_change', channel=5, control=1, value=37, time=4),
    Message('control_change', channel=5, control=1, value=38, time=25),
    Message('control_change', channel=5, control=1, value=39, time=24),
    Message('control_change', channel=5, control=1, value=40, time=24),
    Message('note_on', channel=1, note=35, velocity=107, time=5),
    Message('note_on', channel=2, note=63, velocity=124, time=0),
    Message('note_on', channel=9, note=38, velocity=122, time=0),
    Message('note_on', channel=9, note=54, velocity=127, time=0),
    Message('control_change', channel=5, control=1, value=41, time=10),
    Message('note_on', channel=9, note=42, velocity=124, time=0),
    Message('note_on', channel=2, note=63, velocity=0, time=15),
    Message('note_on', channel=9, note=54, velocity=0, time=11),
    Message('control_change', channel=5, control=1, value=42, time=6),
    Message('note_on', channel=9, note=38, velocity=0, time=5),
    Message('note_on', channel=9, note=42, velocity=0, time=6),
    Message('note_on', channel=0, note=63, velocity=0, time=14),
    Message('control_change', channel=5, control=1, value=43, time=10),
    Message('control_change', channel=5, control=1, value=44, time=37),
    Message('note_on', channel=9, note=64, velocity=101, time=6),
    Message('note_on', channel=0, note=59, velocity=0, time=25),
    Message('note_on', channel=9, note=64, velocity=0, time=14),
    Message('control_change', channel=5, control=1, value=43, time=2),
    Message('control_change', channel=5, control=1, value=42, time=9),
    Message('control_change', channel=5, control=1, value=40, time=15),
    Message('control_change', channel=5, control=1, value=37, time=11),
    Message('note_on', channel=1, note=35, velocity=0, time=4),
    Message('control_change', channel=5, control=1, value=34, time=10),
    Message('control_change', channel=5, control=1, value=27, time=13),
    Message('control_change', channel=5, control=1, value=12, time=10),
    Message('note_on', channel=1, note=32, velocity=127, time=7),
    Message('note_on', channel=2, note=63, velocity=127, time=0),
    Message('note_on', channel=2, note=59, velocity=127, time=0),
    Message('note_on', channel=2, note=68, velocity=127, time=0),
    Message('note_on', channel=3, note=59, velocity=94, time=0),
    Message('note_on', channel=3, note=68, velocity=112, time=0),
    Message('note_on', channel=3, note=63, velocity=116, time=0),
    Message('note_on', channel=4, note=59, velocity=94, time=0),
    Message('note_on', channel=4, note=63, velocity=116, time=0),
    Message('note_on', channel=4, note=68, velocity=112, time=0),
    Message('note_on', channel=9, note=38, velocity=101, time=0),
    Message('note_on', channel=9, note=63, velocity=122, time=0),
    Message('control_change', channel=5, control=1, value=5, time=8),
    Message('note_on', channel=9, note=42, velocity=77, time=2),
    Message('control_change', channel=5, control=1, value=0, time=9),
    Message('note_on', channel=9, note=38, velocity=0, time=9),
    Message('note_on', channel=9, note=42, velocity=0, time=10),
    Message('note_on', channel=9, note=63, velocity=0, time=0),
    Message('note_on', channel=4, note=59, velocity=0, time=77),
    Message('note_on', channel=3, note=59, velocity=0, time=0),
    Message('note_on', channel=3, note=68, velocity=0, time=3),
    Message('note_on', channel=4, note=68, velocity=0, time=0),
    Message('note_on', channel=3, note=63, velocity=0, time=2),
    Message('note_on', channel=4, note=63, velocity=0, time=0),
    Message('note_on', channel=9, note=38, velocity=122, time=0),
    Message('note_on', channel=9, note=63, velocity=122, time=0),
    Message('note_on', channel=2, note=68, velocity=0, time=29),
    Message('note_on', channel=2, note=63, velocity=0, time=0),
    Message('note_on', channel=2, note=59, velocity=0, time=1),
    Message('note_on', channel=9, note=38, velocity=0, time=6),
    Message('note_on', channel=9, note=63, velocity=0, time=3),
    Message('note_on', channel=2, note=56, velocity=0, time=13),
    Message('note_on', channel=2, note=44, velocity=0, time=1),
    Message('note_on', channel=1, note=32, velocity=0, time=7),
    Message('note_on', channel=5, note=71, velocity=0, time=16),
    Message('note_on', channel=5, note=75, velocity=0, time=4),
    Message('note_on', channel=5, note=80, velocity=0, time=3),
    Message('note_on', channel=1, note=37, velocity=122, time=37),
    Message('note_on', channel=2, note=49, velocity=127, time=0),
    Message('note_on', channel=0, note=64, velocity=112, time=0),
    Message('note_on', channel=0, note=56, velocity=119, time=0),
    Message('note_on', channel=3, note=49, velocity=98, time=0),
    Message('note_on', channel=4, note=49, velocity=98, time=0),
    Message('note_on', channel=5, note=73, velocity=65, time=0),
    Message('note_on', channel=5, note=68, velocity=72, time=0),
    Message('note_on', channel=5, note=76, velocity=75, time=0),
    Message('note_on', channel=9, note=64, velocity=94, time=0),
    Message('note_on', channel=9, note=42, velocity=124, time=10),
    Message('note_on', channel=9, note=36, velocity=124, time=0),
    Message('note_on', channel=9, note=42, velocity=0, time=44),
    Message('note_on', channel=9, note=64, velocity=0, time=6),
    Message('note_on', channel=9, note=36, velocity=0, time=16),
    Message('note_on', channel=0, note=56, velocity=0, time=43),
    Message('note_on', channel=3, note=49, velocity=0, time=14),
    Message('note_on', channel=4, note=49, velocity=0, time=0),
    Message('note_on', channel=0, note=64, velocity=0, time=13),
    Message('note_on', channel=1, note=37, velocity=0, time=2),
    Message('note_on', channel=1, note=37, velocity=124, time=92),
    Message('note_on', channel=2, note=56, velocity=127, time=0),
    Message('note_on', channel=2, note=64, velocity=127, time=0),
    Message('note_on', channel=2, note=68, velocity=127, time=0),
    Message('note_on', channel=2, note=61, velocity=127, time=0),
    Message('note_on', channel=0, note=59, velocity=109, time=0),
    Message('note_on', channel=0, note=66, velocity=127, time=0),
    Message('note_on', channel=3, note=56, velocity=98, time=0),
    Message('note_on', channel=3, note=68, velocity=98, time=0),
    Message('note_on', channel=3, note=61, velocity=105, time=0),
    Message('note_on', channel=3, note=64, velocity=87, time=0),
    Message('note_on', channel=4, note=56, velocity=98, time=0),
    Message('note_on', channel=4, note=68, velocity=98, time=0),
    Message('note_on', channel=4, note=64, velocity=87, time=0),
    Message('note_on', channel=4, note=61, velocity=105, time=0),
    Message('note_on', channel=9, note=63, velocity=119, time=0),
    Message('note_on', channel=9, note=42, velocity=89, time=10),
    Message('note_on', channel=9, note=36, velocity=122, time=0),
    Message('note_on', channel=9, note=63, velocity=0, time=27),
    Message('note_on', channel=9, note=42, velocity=0, time=9),
    Message('note_on', channel=9, note=36, velocity=0, time=23),
    Message('note_on', channel=0, note=59, velocity=0, time=17),
    Message('note_on', channel=4, note=68, velocity=0, time=8),
    Message('note_on', channel=3, note=68, velocity=0, time=0),
    Message('note_on', channel=4, note=64, velocity=0, time=4),
    Message('note_on', channel=3, note=64, velocity=0, time=0),
    Message('note_on', channel=4, note=56, velocity=0, time=18),
    Message('note_on', channel=4, note=61, velocity=0, time=0),
    Message('note_on', channel=3, note=56, velocity=0, time=0),
    Message('note_on', channel=3, note=61, velocity=0, time=0),
    Message('note_on', channel=0, note=66, velocity=0, time=7),
    Message('note_on', channel=1, note=37, velocity=0, time=60),
    Message('note_on', channel=0, note=56, velocity=122, time=57),
    Message('note_on', channel=0, note=64, velocity=107, time=0),
    Message('note_on', channel=9, note=38, velocity=124, time=0),
    Message('note_on', channel=9, note=54, velocity=127, time=0),
    Message('note_on', channel=9, note=42, velocity=119, time=10),
    Message('note_on', channel=9, note=54, velocity=0, time=25),
    Message('note_on', channel=9, note=38, velocity=0, time=15),
    Message('note_on', channel=9, note=42, velocity=0, time=11),
    Message('note_on', channel=0, note=56, velocity=0, time=27),
    Message('note_on', channel=0, note=64, velocity=0, time=25),
    Message('note_on', channel=9, note=64, velocity=101, time=7),
    Message('note_on', channel=9, note=64, velocity=0, time=49),
    Message('note_on', channel=1, note=37, velocity=114, time=71),
    Message('note_on', channel=0, note=66, velocity=124, time=0),
    Message('note_on', channel=0, note=59, velocity=116, time=0),
    Message('note_on', channel=3, note=68, velocity=101, time=0),
    Message('note_on', channel=3, note=64, velocity=96, time=0),
    Message('note_on', channel=3, note=56, velocity=101, time=0),
    Message('note_on', channel=3, note=61, velocity=101, time=0),
    Message('note_on', channel=4, note=68, velocity=101, time=0),
    Message('note_on', channel=4, note=64, velocity=96, time=0),
    Message('note_on', channel=4, note=56, velocity=101, time=0),
    Message('note_on', channel=4, note=61, velocity=101, time=0),
    Message('note_on', channel=9, note=63, velocity=122, time=0),
    Message('note_on', channel=9, note=42, velocity=89, time=10),
    Message('note_on', channel=9, note=63, velocity=0, time=32),
    Message('note_on', channel=1, note=37, velocity=0, time=4),
    Message('note_on', channel=9, note=42, velocity=0, time=2),
    Message('note_on', channel=4, note=68, velocity=0, time=36),
    Message('note_on', channel=3, note=68, velocity=0, time=0),
    Message('note_on', channel=4, note=61, velocity=0, time=2),
    Message('note_on', channel=3, note=61, velocity=0, time=0),
    Message('note_on', channel=4, note=64, velocity=0, time=8),
    Message('note_on', channel=4, note=56, velocity=0, time=0),
    Message('note_on', channel=3, note=64, velocity=0, time=0),
    Message('note_on', channel=3, note=56, velocity=0, time=0),
    Message('note_on', channel=0, note=66, velocity=0, time=12),
    Message('note_on', channel=0, note=59, velocity=0, time=10),
    Message('note_on', channel=1, note=37, velocity=116, time=4),
    Message('note_on', channel=9, note=63, velocity=114, time=0),
    Message('note_on', channel=9, note=38, velocity=122, time=0),
    Message('note_on', channel=9, note=42, velocity=96, time=10),
    Message('note_on', channel=9, note=63, velocity=0, time=26),
    Message('note_on', channel=9, note=38, velocity=0, time=1),
    Message('note_on', channel=9, note=42, velocity=0, time=7),
    Message('note_on', channel=1, note=37, velocity=0, time=1),
    Message('note_on', channel=2, note=61, velocity=0, time=65),
    Message('note_on', channel=2, note=68, velocity=0, time=4),
    Message('note_on', channel=5, note=68, velocity=0, time=3),
    Message('note_on', channel=5, note=76, velocity=0, time=0),
    Message('note_on', channel=2, note=64, velocity=0, time=2),
    Message('note_on', channel=1, note=30, velocity=122, time=1),
    Message('note_on', channel=2, note=54, velocity=127, time=0),
    Message('note_on', channel=2, note=42, velocity=127, time=0),
    Message('note_on', channel=0, note=64, velocity=105, time=0),
    Message('note_on', channel=0, note=56, velocity=122, time=0),
    Message('note_on', channel=3, note=54, velocity=112, time=0),
    Message('note_on', channel=4, note=54, velocity=112, time=0),
    Message('note_on', channel=5, note=78, velocity=77, time=0),
    Message('note_on', channel=5, note=70, velocity=48, time=0),
    Message('note_on', channel=5, note=75, velocity=46, time=0),
    Message('note_on', channel=9, note=64, velocity=93, time=0),
    Message('note_on', channel=2, note=56, velocity=0, time=4),
    Message('note_on', channel=5, note=73, velocity=0, time=4),
    Message('note_on', channel=2, note=49, velocity=0, time=2),
    Message('note_on', channel=9, note=36, velocity=114, time=0),
    Message('note_on', channel=9, note=42, velocity=103, time=0),
    Message('note_on', channel=9, note=64, velocity=0, time=30),
    Message('note_on', channel=9, note=42, velocity=0, time=5),
    Message('note_on', channel=9, note=36, velocity=0, time=20),
    Message('note_on', channel=0, note=56, velocity=0, time=26),
    Message('note_on', channel=3, note=54, velocity=0, time=12),
    Message('note_on', channel=4, note=54, velocity=0, time=0),
    Message('note_on', channel=9, note=38, velocity=109, time=17),
    Message('note_on', channel=0, note=64, velocity=0, time=3),
    Message('note_on', channel=9, note=42, velocity=89, time=7),
    Message('note_on', channel=1, note=30, velocity=0, time=20),
    Message('note_on', channel=9, note=42, velocity=0, time=15),
    Message('note_on', channel=9, note=38, velocity=0, time=3),
    Message('note_on', channel=1, note=30, velocity=127, time=72),
    Message('note_on', channel=2, note=58, velocity=127, time=0),
    Message('note_on', channel=2, note=61, velocity=127, time=0),
    Message('note_on', channel=2, note=66, velocity=127, time=0),
    Message('note_on', channel=0, note=59, velocity=112, time=0),
    Message('note_on', channel=0, note=66, velocity=122, time=0),
    Message('note_on', channel=3, note=66, velocity=93, time=0),
    Message('note_on', channel=3, note=70, velocity=103, time=0),
    Message('note_on', channel=3, note=61, velocity=101, time=0),
    Message('note_on', channel=4, note=61, velocity=101, time=0),
    Message('note_on', channel=4, note=66, velocity=93, time=0),
    Message('note_on', channel=4, note=70, velocity=103, time=0),
    Message('note_on', channel=9, note=63, velocity=122, time=0),
    Message('note_on', channel=9, note=36, velocity=116, time=10),
    Message('note_on', channel=9, note=42, velocity=82, time=0),
    Message('note_on', channel=9, note=63, velocity=0, time=22),
    Message('note_on', channel=9, note=42, velocity=0, time=11),
    Message('note_on', channel=9, note=36, velocity=0, time=11),
    Message('note_on', channel=0, note=59, velocity=0, time=12),
    Message('note_on', channel=0, note=66, velocity=0, time=15),
    Message('note_on', channel=4, note=66, velocity=0, time=11),
    Message('note_on', channel=3, note=66, velocity=0, time=0),
    Message('note_on', channel=4, note=70, velocity=0, time=9),
    Message('note_on', channel=3, note=61, velocity=0, time=0),
    Message('note_on', channel=3, note=70, velocity=0, time=0),
    Message('note_on', channel=4, note=61, velocity=0, time=0),
    Message('note_on', channel=0, note=56, velocity=119, time=19),
    Message('note_on', channel=0, note=64, velocity=114, time=0),
    Message('note_on', channel=0, note=64, velocity=0, time=77),
    Message('note_on', channel=1, note=30, velocity=0, time=3),
    Message('note_on', channel=9, note=38, velocity=122, time=40),
    Message('note_on', channel=9, note=54, velocity=127, time=0),
    Message('note_on', channel=9, note=42, velocity=119, time=10),
    Message('note_on', channel=0, note=56, velocity=0, time=4),
    Message('note_on', channel=9, note=54, velocity=0, time=22),
    Message('note_on', channel=9, note=38, velocity=0, time=11),
    Message('note_on', channel=9, note=42, velocity=0, time=3),
    Message('note_on', channel=2, note=66, velocity=0, time=69),
    Message('note_on', channel=2, note=58, velocity=0, time=1),
    Message('note_on', channel=0, note=63, velocity=112, time=0),
    Message('note_on', channel=0, note=56, velocity=116, time=0),
    Message('note_on', channel=9, note=64, velocity=101, time=0),
    Message('note_on', channel=9, note=64, velocity=0, time=39),
    Message('note_on', channel=2, note=61, velocity=0, time=10),
    Message('note_on', channel=0, note=56, velocity=0, time=1),
    Message('note_on', channel=0, note=63, velocity=0, time=6),
    Message('note_on', channel=1, note=30, velocity=116, time=64),
    Message('note_on', channel=2, note=66, velocity=127, time=0),
    Message('note_on', channel=2, note=58, velocity=127, time=0),
    Message('note_on', channel=2, note=61, velocity=127, time=0),
    Message('note_on', channel=0, note=61, velocity=122, time=0),
    Message('note_on', channel=0, note=51, velocity=119, time=0),
    Message('note_on', channel=3, note=66, velocity=112, time=0),
    Message('note_on', channel=3, note=70, velocity=112, time=0),
    Message('note_on', channel=3, note=61, velocity=112, time=0),
    Message('note_on', channel=4, note=66, velocity=112, time=0),
    Message('note_on', channel=4, note=61, velocity=112, time=0),
    Message('note_on', channel=4, note=70, velocity=112, time=0),
    Message('note_on', channel=9, note=63, velocity=122, time=0),
    Message('note_on', channel=9, note=42, velocity=91, time=10),
    Message('note_on', channel=1, note=30, velocity=0, time=18),
    Message('note_on', channel=9, note=63, velocity=0, time=10),
    Message('note_on', channel=9, note=42, velocity=0, time=8),
    Message('note_on', channel=4, note=61, velocity=0, time=66),
    Message('note_on', channel=3, note=61, velocity=0, time=0),
    Message('note_on', channel=4, note=66, velocity=0, time=3),
    Message('note_on', channel=3, note=66, velocity=0, time=0),
    Message('note_on', channel=1, note=30, velocity=119, time=5),
    Message('note_on', channel=9, note=63, velocity=122, time=0),
    Message('note_on', channel=9, note=38, velocity=122, time=0),
    Message('note_on', channel=9, note=42, velocity=107, time=10),
    Message('note_on', channel=4, note=70, velocity=0, time=1),
    Message('note_on', channel=3, note=70, velocity=0, time=0),
    Message('note_on', channel=0, note=51, velocity=0, time=17),
    Message('note_on', channel=9, note=38, velocity=0, time=4),
    Message('note_on', channel=0, note=61, velocity=0, time=4),
    Message('note_on', channel=9, note=63, velocity=0, time=3),
    Message('note_on', channel=1, note=30, velocity=0, time=7),
    Message('note_on', channel=9, note=42, velocity=0, time=3),
    Message('note_on', channel=5, note=75, velocity=0, time=16),
    Message('note_on', channel=2, note=54, velocity=0, time=20),
    Message('note_on', channel=2, note=42, velocity=0, time=17),
    Message('note_on', channel=1, note=32, velocity=127, time=18),
    Message('note_on', channel=2, note=56, velocity=127, time=0),
    Message('note_on', channel=2, note=44, velocity=127, time=0),
    Message('note_on', channel=0, note=56, velocity=105, time=0),
    Message('note_on', channel=0, note=63, velocity=109, time=0),
    Message('note_on', channel=3, note=44, velocity=98, time=0),
    Message('note_on', channel=4, note=44, velocity=98, time=0),
    Message('note_on', channel=5, note=71, velocity=55, time=0),
    Message('note_on', channel=5, note=83, velocity=58, time=0),
    Message('note_on', channel=5, note=75, velocity=58, time=0),
    Message('note_on', channel=5, note=80, velocity=64, time=0),
    Message('note_on', channel=9, note=64, velocity=94, time=0),
    Message('note_on', channel=2, note=66, velocity=0, time=1),
    Message('note_on', channel=2, note=58, velocity=0, time=4),
    Message('note_on', channel=5, note=78, velocity=0, time=1),
    Message('note_on', channel=5, note=70, velocity=0, time=2),
    Message('note_on', channel=9, note=42, velocity=114, time=2),
    Message('note_on', channel=9, note=36, velocity=122, time=0),
    Message('note_on', channel=2, note=61, velocity=0, time=1),
    Message('note_on', channel=9, note=42, velocity=0, time=44),
    Message('note_on', channel=9, note=64, velocity=0, time=5),
    Message('note_on', channel=9, note=36, velocity=0, time=5),
    Message('note_on', channel=3, note=44, velocity=0, time=12),
    Message('note_on', channel=4, note=44, velocity=0, time=0),
    Message('note_on', channel=1, note=32, velocity=0, time=74),
    Message('note_on', channel=1, note=32, velocity=127, time=89),
    Message('note_on', channel=2, note=68, velocity=127, time=0),
    Message('note_on', channel=2, note=63, velocity=127, time=0),
    Message('note_on', channel=2, note=59, velocity=127, time=0),
    Message('note_on', channel=3, note=68, velocity=107, time=0),
    Message('note_on', channel=3, note=59, velocity=89, time=0),
    Message('note_on', channel=3, note=63, velocity=112, time=0),
    Message('note_on', channel=4, note=68, velocity=107, time=0),
    Message('note_on', channel=4, note=59, velocity=89, time=0),
    Message('note_on', channel=4, note=63, velocity=112, time=0),
    Message('note_on', channel=9, note=63, velocity=119, time=0),
    Message('note_on', channel=9, note=42, velocity=77, time=10),
    Message('note_on', channel=9, note=36, velocity=116, time=0),
    Message('note_on', channel=9, note=63, velocity=0, time=27),
    Message('note_on', channel=9, note=42, velocity=0, time=17),
    Message('note_on', channel=9, note=36, velocity=0, time=1),
    Message('note_on', channel=3, note=68, velocity=0, time=41),
    Message('note_on', channel=4, note=68, velocity=0, time=0),
    Message('note_on', channel=4, note=63, velocity=0, time=14),
    Message('note_on', channel=3, note=63, velocity=0, time=0),
    Message('note_on', channel=4, note=59, velocity=0, time=6),
    Message('note_on', channel=3, note=59, velocity=0, time=0),
    Message('note_on', channel=0, note=63, velocity=0, time=30),
    Message('note_on', channel=0, note=56, velocity=0, time=49),
    Message('note_on', channel=9, note=38, velocity=116, time=45),
    Message('note_on', channel=9, note=54, velocity=127, time=0),
    Message('note_on', channel=9, note=42, velocity=119, time=10),
    Message('note_on', channel=9, note=54, velocity=0, time=30),
    Message('note_on', channel=9, note=38, velocity=0, time=7),
    Message('note_on', channel=9, note=42, velocity=0, time=4),
    Message('note_on', channel=3, note=63, velocity=114, time=189),
    Message('note_on', channel=3, note=68, velocity=109, time=0),
    Message('note_on', channel=3, note=59, velocity=89, time=0),
    Message('note_on', channel=4, note=59, velocity=89, time=0),
    Message('note_on', channel=4, note=68, velocity=109, time=0),
    Message('note_on', channel=4, note=63, velocity=114, time=0),
    Message('note_on', channel=9, note=60, velocity=116, time=0),
    Message('note_on', channel=9, note=42, velocity=93, time=10),
    Message('note_on', channel=2, note=44, velocity=0, time=22),
    Message('note_on', channel=9, note=60, velocity=0, time=1),
    Message('note_on', channel=9, note=42, velocity=0, time=14),
    Message('note_on', channel=9, note=60, velocity=109, time=33),
    Message('note_on', channel=4, note=68, velocity=0, time=8),
    Message('note_on', channel=3, note=68, velocity=0, time=0),
    Message('note_on', channel=3, note=63, velocity=0, time=7),
    Message('note_on', channel=4, note=63, velocity=0, time=0),
    Message('note_on', channel=3, note=59, velocity=0, time=14),
    Message('note_on', channel=4, note=59, velocity=0, time=0),
    Message('note_on', channel=9, note=60, velocity=0, time=6),
    Message('note_on', channel=2, note=68, velocity=0, time=5),
    Message('note_on', channel=2, note=63, velocity=0, time=0),
    Message('note_on', channel=9, note=38, velocity=116, time=0),
    Message('note_on', channel=9, note=42, velocity=98, time=10),
    Message('note_on', channel=9, note=60, velocity=107, time=30),
    Message('note_on', channel=9, note=42, velocity=0, time=8),
    Message('note_on', channel=9, note=38, velocity=0, time=1),
    Message('note_on', channel=9, note=60, velocity=0, time=25),
    Message('note_on', channel=1, note=32, velocity=0, time=1),
    Message('note_on', channel=5, note=71, velocity=0, time=21),
    Message('note_on', channel=5, note=83, velocity=0, time=3),
    Message('note_on', channel=5, note=67, velocity=68, time=1),
    Message('note_on', channel=5, note=75, velocity=0, time=1),
    Message('note_on', channel=5, note=80, velocity=0, time=3),
    Message('note_on', channel=5, note=65, velocity=65, time=4),
    Message('note_on', channel=5, note=67, velocity=0, time=7),
    Message('note_on', channel=2, note=59, velocity=0, time=5),
    Message('note_on', channel=1, note=32, velocity=127, time=0),
    Message('note_on', channel=2, note=32, velocity=127, time=0),
    Message('note_on', channel=2, note=44, velocity=127, time=0),
    Message('note_on', channel=3, note=44, velocity=105, time=0),
    Message('note_on', channel=4, note=44, velocity=105, time=0),
    Message('note_on', channel=9, note=64, velocity=114, time=0),
    Message('note_on', channel=9, note=42, velocity=116, time=10),
    Message('note_on', channel=9, note=36, velocity=107, time=0),
    Message('note_on', channel=2, note=56, velocity=0, time=11),
    Message('note_on', channel=5, note=64, velocity=21, time=2),
    Message('note_on', channel=5, note=65, velocity=0, time=6),
    Message('note_on', channel=9, note=36, velocity=0, time=12),
    Message('note_on', channel=9, note=42, velocity=0, time=7),
    Message('note_on', channel=9, note=64, velocity=0, time=1),
    Message('note_on', channel=5, note=62, velocity=24, time=3),
    Message('note_on', channel=3, note=44, velocity=0, time=5),
    Message('note_on', channel=4, note=44, velocity=0, time=0),
    Message('note_on', channel=5, note=64, velocity=0, time=4),
    Message('note_on', channel=5, note=60, velocity=27, time=22),
    Message('note_on', channel=5, note=62, velocity=0, time=6),
    Message('note_on', channel=5, note=59, velocity=28, time=18),
    Message('note_on', channel=5, note=60, velocity=0, time=11),
    Message('note_on', channel=5, note=57, velocity=75, time=2),
    Message('note_on', channel=5, note=59, velocity=0, time=22),
    Message('note_on', channel=5, note=55, velocity=31, time=18),
    Message('control_change', channel=5, control=1, value=1, time=1),
    Message('note_on', channel=5, note=57, velocity=0, time=8),
    Message('note_on', channel=5, note=53, velocity=33, time=15),
    Message('control_change', channel=5, control=1, value=2, time=5),
    Message('note_on', channel=5, note=55, velocity=0, time=6),
    Message('control_change', channel=5, control=1, value=11, time=11),
    Message('note_on', channel=5, note=52, velocity=36, time=2),
    Message('note_on', channel=5, note=53, velocity=0, time=6),
    Message('control_change', channel=5, control=1, value=17, time=6),
    Message('note_on', channel=5, note=50, velocity=39, time=13),
    Message('control_change', channel=5, control=1, value=21, time=3),
    Message('note_on', channel=5, note=52, velocity=0, time=6),
    Message('control_change', channel=5, control=1, value=22, time=10),
    Message('note_on', channel=5, note=48, velocity=38, time=6),
    Message('control_change', channel=5, control=1, value=23, time=8),
    Message('note_on', channel=5, note=50, velocity=0, time=2),
    Message('pitchwheel', channel=1, pitch=-345, time=8),
    Message('pitchwheel', channel=2, pitch=-345, time=0),
    Message('note_on', channel=5, note=47, velocity=36, time=6),
    Message('control_change', channel=5, control=1, value=25, time=1),
    Message('pitchwheel', channel=1, pitch=-777, time=7),
    Message('pitchwheel', channel=2, pitch=-777, time=0),
    Message('note_on', channel=5, note=48, velocity=0, time=2),
    Message('control_change', channel=5, control=1, value=27, time=4),
    Message('pitchwheel', channel=1, pitch=-1294, time=7),
    Message('pitchwheel', channel=2, pitch=-1294, time=0),
    Message('note_on', channel=5, note=45, velocity=36, time=7),
    Message('pitchwheel', channel=1, pitch=-1812, time=4),
    Message('pitchwheel', channel=2, pitch=-1812, time=0),
    Message('control_change', channel=5, control=1, value=29, time=1),
    Message('note_on', channel=5, note=47, velocity=0, time=2),
    Message('pitchwheel', channel=1, pitch=-2329, time=11),
    Message('pitchwheel', channel=2, pitch=-2329, time=0),
    Message('control_change', channel=5, control=1, value=30, time=0),
    Message('note_on', channel=5, note=43, velocity=31, time=10),
    Message('pitchwheel', channel=1, pitch=-2933, time=1),
    Message('pitchwheel', channel=2, pitch=-2933, time=0),
    Message('control_change', channel=5, control=1, value=31, time=4),
    Message('note_on', channel=5, note=45, velocity=0, time=2),
    Message('pitchwheel', channel=1, pitch=-3795, time=7),
    Message('pitchwheel', channel=2, pitch=-3795, time=0),
    Message('control_change', channel=5, control=1, value=33, time=7),
    Message('pitchwheel', channel=1, pitch=-4830, time=7),
    Message('pitchwheel', channel=2, pitch=-4830, time=0),
    Message('control_change', channel=5, control=1, value=34, time=7),
    Message('note_on', channel=5, note=41, velocity=27, time=1),
    Message('note_on', channel=5, note=43, velocity=0, time=3),
    Message('pitchwheel', channel=1, pitch=-6038, time=1),
    Message('pitchwheel', channel=2, pitch=-6038, time=0),
    Message('control_change', channel=5, control=1, value=35, time=9),
    Message('pitchwheel', channel=1, pitch=-7677, time=4),
    Message('pitchwheel', channel=2, pitch=-7677, time=0),
    Message('control_change', channel=5, control=1, value=37, time=11),
    Message('pitchwheel', channel=1, pitch=-8192, time=1),
    Message('pitchwheel', channel=2, pitch=-8192, time=0),
    Message('note_on', channel=5, note=41, velocity=0, time=6),
    Message('note_on', channel=2, note=32, velocity=0, time=8),
    Message('note_on', channel=1, note=32, velocity=0, time=0),
    Message('note_on', channel=2, note=44, velocity=0, time=20),
    Message('pitchwheel', channel=1, pitch=-5952, time=3),
    Message('pitchwheel', channel=2, pitch=-5952, time=0),
    Message('pitchwheel', channel=1, pitch=-3968, time=14),
    Message('pitchwheel', channel=2, pitch=-3968, time=0),
    Message('pitchwheel', channel=1, pitch=-2157, time=12),
    Message('pitchwheel', channel=2, pitch=-2157, time=0),
    Message('pitchwheel', channel=1, pitch=-604, time=12),
    Message('pitchwheel', channel=2, pitch=-604, time=0),
    Message('pitchwheel', channel=1, pitch=0, time=14),
    Message('pitchwheel', channel=2, pitch=0, time=0),
    Message('note_on', channel=3, note=47, velocity=98, time=468),
    Message('note_on', channel=9, note=64, velocity=94, time=0),
    Message('note_on', channel=9, note=64, velocity=0, time=60),
    Message('note_on', channel=3, note=47, velocity=0, time=108),
    Message('note_on', channel=3, note=71, velocity=89, time=72),
    Message('note_on', channel=3, note=59, velocity=101, time=0),
    Message('note_on', channel=3, note=66, velocity=105, time=0),
    Message('note_on', channel=3, note=63, velocity=101, time=0),
    Message('note_on', channel=9, note=63, velocity=119, time=0),
    Message('note_on', channel=9, note=63, velocity=0, time=37),
    Message('note_on', channel=3, note=59, velocity=0, time=58),
    Message('note_on', channel=3, note=66, velocity=0, time=5),
    Message('note_on', channel=3, note=63, velocity=0, time=6),
    Message('note_on', channel=3, note=71, velocity=0, time=10),
    Message('note_on', channel=3, note=54, velocity=112, time=124),
    Message('note_on', channel=3, note=47, velocity=82, time=0),
    Message('note_on', channel=9, note=54, velocity=127, time=0),
    Message('note_on', channel=3, note=54, velocity=0, time=7),
    Message('note_on', channel=3, note=47, velocity=0, time=1),
    Message('note_on', channel=9, note=54, velocity=0, time=32),
    Message('note_on', channel=9, note=64, velocity=101, time=80),
    Message('note_on', channel=9, note=64, velocity=0, time=49),
    Message('note_on', channel=3, note=66, velocity=112, time=71),
    Message('note_on', channel=3, note=63, velocity=109, time=0),
    Message('note_on', channel=3, note=71, velocity=93, time=0),
    Message('note_on', channel=3, note=59, velocity=103, time=0),
    Message('note_on', channel=9, note=63, velocity=122, time=0),
    Message('note_on', channel=9, note=63, velocity=0, time=42),
    Message('note_on', channel=9, note=63, velocity=114, time=78),
    Message('note_on', channel=3, note=66, velocity=0, time=10),
    Message('note_on', channel=3, note=59, velocity=0, time=6),
    Message('note_on', channel=3, note=63, velocity=0, time=2),
    Message('note_on', channel=3, note=71, velocity=0, time=13),
    Message('note_on', channel=9, note=63, velocity=0, time=5),
    Message('note_on', channel=3, note=54, velocity=112, time=84),
    Message('note_on', channel=9, note=64, velocity=93, time=0),
    Message('note_on', channel=9, note=64, velocity=0, time=40),
    Message('note_on', channel=3, note=54, velocity=0, time=168),
    Message('note_on', channel=3, note=66, velocity=105, time=32),
    Message('note_on', channel=3, note=70, velocity=109, time=0),
    Message('note_on', channel=3, note=61, velocity=94, time=0),
    Message('note_on', channel=9, note=63, velocity=122, time=0),
    Message('note_on', channel=9, note=63, velocity=0, time=32),
    Message('note_on', channel=3, note=70, velocity=0, time=50),
    Message('note_on', channel=3, note=61, velocity=0, time=2),
    Message('note_on', channel=3, note=66, velocity=0, time=14),
    Message('note_on', channel=3, note=42, velocity=105, time=142),
    Message('note_on', channel=3, note=49, velocity=114, time=0),
    Message('note_on', channel=9, note=54, velocity=127, time=0),
    Message('note_on', channel=3, note=42, velocity=0, time=7),
    Message('note_on', channel=3, note=49, velocity=0, time=1),
    Message('note_on', channel=9, note=54, velocity=0, time=29),
    Message('note_on', channel=9, note=64, velocity=101, time=83),
    Message('note_on', channel=9, note=64, velocity=0, time=39),
    Message('note_on', channel=3, note=66, velocity=93, time=81),
    Message('note_on', channel=3, note=61, velocity=98, time=0),
    Message('note_on', channel=3, note=70, velocity=105, time=0),
    Message('note_on', channel=9, note=63, velocity=122, time=0),
    Message('note_on', channel=9, note=63, velocity=0, time=38),
    Message('note_on', channel=3, note=70, velocity=0, time=64),
    Message('note_on', channel=3, note=61, velocity=0, time=6),
    Message('note_on', channel=3, note=66, velocity=0, time=8),
    Message('note_on', channel=9, note=63, velocity=122, time=4),
    Message('note_on', channel=9, note=63, velocity=0, time=39),
    Message('note_on', channel=3, note=52, velocity=122, time=81),
    Message('note_on', channel=9, note=64, velocity=94, time=0),
    Message('note_on', channel=9, note=64, velocity=0, time=60),
    Message('note_on', channel=3, note=52, velocity=0, time=162),
    Message('note_on', channel=3, note=68, velocity=114, time=18),
    Message('note_on', channel=3, note=64, velocity=107, time=0),
    Message('note_on', channel=3, note=59, velocity=101, time=0),
    Message('note_on', channel=9, note=63, velocity=119, time=0),
    Message('note_on', channel=9, note=63, velocity=0, time=37),
    Message('note_on', channel=3, note=68, velocity=0, time=89),
    Message('note_on', channel=3, note=59, velocity=0, time=2),
    Message('note_on', channel=3, note=64, velocity=0, time=3),
    Message('note_on', channel=3, note=59, velocity=105, time=109),
    Message('note_on', channel=3, note=52, velocity=103, time=0),
    Message('note_on', channel=9, note=54, velocity=127, time=0),
    Message('note_on', channel=3, note=52, velocity=0, time=8),
    Message('note_on', channel=3, note=59, velocity=0, time=2),
    Message('note_on', channel=9, note=54, velocity=0, time=25),
    Message('note_on', channel=9, note=64, velocity=101, time=85),
    Message('note_on', channel=9, note=64, velocity=0, time=49),
    Message('note_on', channel=3, note=68, velocity=112, time=71),
    Message('note_on', channel=3, note=59, velocity=91, time=0),
    Message('note_on', channel=3, note=64, velocity=101, time=0),
    Message('note_on', channel=9, note=63, velocity=122, time=0),
    Message('note_on', channel=9, note=63, velocity=0, time=42),
    Message('note_on', channel=9, note=63, velocity=114, time=78),
    Message('note_on', channel=3, note=64, velocity=0, time=7),
    Message('note_on', channel=3, note=59, velocity=0, time=2),
    Message('note_on', channel=3, note=68, velocity=0, time=4),
    Message('note_on', channel=9, note=63, velocity=0, time=23),
    Message('note_on', channel=6, note=83, velocity=114, time=84),
    Message('note_on', channel=9, note=64, velocity=93, time=0),
    Message('note_on', channel=9, note=64, velocity=0, time=40),
    Message('note_on', channel=6, note=83, velocity=0, time=41),
    Message('note_on', channel=6, note=85, velocity=114, time=39),
    Message('note_on', channel=6, note=85, velocity=0, time=59),
    Message('note_on', channel=3, note=68, velocity=109, time=61),
    Message('note_on', channel=3, note=64, velocity=98, time=0),
    Message('note_on', channel=3, note=59, velocity=94, time=0),
    Message('note_on', channel=6, note=87, velocity=122, time=0),
    Message('note_on', channel=9, note=63, velocity=122, time=0),
    Message('note_on', channel=9, note=63, velocity=0, time=32),
    Message('note_on', channel=6, note=87, velocity=0, time=54),
    Message('note_on', channel=3, note=59, velocity=0, time=30),
    Message('note_on', channel=3, note=64, velocity=0, time=10),
    Message('note_on', channel=3, note=68, velocity=0, time=6),
    Message('note_on', channel=3, note=40, velocity=98, time=108),
    Message('note_on', channel=3, note=47, velocity=116, time=0),
    Message('note_on', channel=6, note=87, velocity=119, time=0),
    Message('note_on', channel=9, note=54, velocity=127, time=0),
    Message('note_on', channel=3, note=47, velocity=0, time=25),
    Message('note_on', channel=3, note=40, velocity=0, time=1),
    Message('note_on', channel=9, note=54, velocity=0, time=10),
    Message('note_on', channel=6, note=87, velocity=0, time=84),
    Message('note_on', channel=6, note=85, velocity=114, time=0),
    Message('note_on', channel=9, note=64, velocity=101, time=0),
    Message('note_on', channel=9, note=64, velocity=0, time=39),
    Message('note_on', channel=6, note=85, velocity=0, time=46),
    Message('note_on', channel=3, note=64, velocity=103, time=35),
    Message('note_on', channel=3, note=68, velocity=112, time=0),
    Message('note_on', channel=3, note=59, velocity=96, time=0),
    Message('note_on', channel=6, note=83, velocity=114, time=0),
    Message('note_on', channel=9, note=63, velocity=122, time=0),
    Message('note_on', channel=9, note=63, velocity=0, time=38),
    Message('note_on', channel=9, note=63, velocity=122, time=82),
    Message('note_on', channel=3, note=59, velocity=0, time=5),
    Message('note_on', channel=3, note=64, velocity=0, time=1),
    Message('note_on', channel=3, note=68, velocity=0, time=9),
    Message('note_on', channel=9, note=63, velocity=0, time=24),
    Message('note_on', channel=6, note=83, velocity=0, time=13),
    Message('note_on', channel=3, note=47, velocity=98, time=68),
    Message('note_on', channel=9, note=64, velocity=94, time=0),
    Message('note_on', channel=9, note=64, velocity=0, time=60),
    Message('note_on', channel=3, note=47, velocity=0, time=108),
    Message('note_on', channel=3, note=63, velocity=101, time=72),
    Message('note_on', channel=3, note=59, velocity=101, time=0),
    Message('note_on', channel=3, note=71, velocity=89, time=0),
    Message('note_on', channel=3, note=66, velocity=105, time=0),
    Message('note_on', channel=9, note=63, velocity=119, time=0),
    Message('note_on', channel=9, note=63, velocity=0, time=37),
    Message('note_on', channel=3, note=59, velocity=0, time=58),
    Message('note_on', channel=3, note=66, velocity=0, time=5),
    Message('note_on', channel=3, note=63, velocity=0, time=6),
    Message('note_on', channel=3, note=71, velocity=0, time=10),
    Message('note_on', channel=3, note=47, velocity=82, time=124),
    Message('note_on', channel=3, note=54, velocity=112, time=0),
    Message('note_on', channel=9, note=54, velocity=127, time=0),
    Message('note_on', channel=3, note=54, velocity=0, time=7),
    Message('note_on', channel=3, note=47, velocity=0, time=1),
    Message('note_on', channel=9, note=54, velocity=0, time=37),
    Message('note_on', channel=9, note=64, velocity=101, time=75),
    Message('note_on', channel=9, note=64, velocity=0, time=49),
    Message('note_on', channel=3, note=66, velocity=112, time=71),
    Message('note_on', channel=3, note=71, velocity=93, time=0),
    Message('note_on', channel=3, note=63, velocity=109, time=0),
    Message('note_on', channel=3, note=59, velocity=103, time=0),
    Message('note_on', channel=9, note=63, velocity=122, time=0),
    Message('note_on', channel=9, note=63, velocity=0, time=42),
    Message('note_on', channel=9, note=63, velocity=114, time=78),
    Message('note_on', channel=3, note=66, velocity=0, time=10),
    Message('note_on', channel=3, note=59, velocity=0, time=6),
    Message('note_on', channel=3, note=63, velocity=0, time=2),
    Message('note_on', channel=3, note=71, velocity=0, time=13),
    Message('note_on', channel=9, note=63, velocity=0, time=5),
    Message('note_on', channel=3, note=54, velocity=112, time=84),
    Message('note_on', channel=9, note=64, velocity=93, time=0),
    Message('note_on', channel=9, note=64, velocity=0, time=40),
    Message('note_on', channel=3, note=54, velocity=0, time=168),
    Message('note_on', channel=3, note=66, velocity=105, time=32),
    Message('note_on', channel=3, note=61, velocity=94, time=0),
    Message('note_on', channel=3, note=70, velocity=109, time=0),
    Message('note_on', channel=9, note=63, velocity=122, time=0),
    Message('note_on', channel=9, note=63, velocity=0, time=32),
    Message('note_on', channel=3, note=70, velocity=0, time=50),
    Message('note_on', channel=3, note=61, velocity=0, time=2),
    Message('note_on', channel=3, note=66, velocity=0, time=14),
    Message('note_on', channel=3, note=42, velocity=105, time=142),
    Message('note_on', channel=3, note=49, velocity=114, time=0),
    Message('note_on', channel=9, note=54, velocity=127, time=0),
    Message('note_on', channel=3, note=42, velocity=0, time=7),
    Message('note_on', channel=3, note=49, velocity=0, time=1),
    Message('note_on', channel=9, note=54, velocity=0, time=33),
    Message('note_on', channel=9, note=64, velocity=101, time=79),
    Message('note_on', channel=9, note=64, velocity=0, time=39),
    Message('note_on', channel=3, note=61, velocity=98, time=81),
    Message('note_on', channel=3, note=66, velocity=93, time=0),
    Message('note_on', channel=3, note=70, velocity=105, time=0),
    Message('note_on', channel=9, note=63, velocity=122, time=0),
    Message('note_on', channel=9, note=63, velocity=0, time=38),
    Message('note_on', channel=3, note=70, velocity=0, time=64),
    Message('note_on', channel=3, note=61, velocity=0, time=6),
    Message('note_on', channel=3, note=66, velocity=0, time=8),
    Message('note_on', channel=9, note=63, velocity=122, time=4),
    Message('note_on', channel=9, note=63, velocity=0, time=39),
    Message('note_on', channel=3, note=52, velocity=122, time=81),
    Message('note_on', channel=9, note=64, velocity=94, time=0),
    Message('note_on', channel=9, note=64, velocity=0, time=60),
    Message('note_on', channel=3, note=52, velocity=0, time=162),
    Message('note_on', channel=3, note=68, velocity=114, time=18),
    Message('note_on', channel=3, note=59, velocity=101, time=0),
    Message('note_on', channel=3, note=64, velocity=107, time=0),
    Message('note_on', channel=9, note=63, velocity=119, time=0),
    Message('note_on', channel=9, note=63, velocity=0, time=37),
    Message('note_on', channel=3, note=68, velocity=0, time=89),
    Message('note_on', channel=3, note=59, velocity=0, time=2),
    Message('note_on', channel=3, note=64, velocity=0, time=3),
    Message('note_on', channel=3, note=52, velocity=103, time=109),
    Message('note_on', channel=3, note=59, velocity=105, time=0),
    Message('note_on', channel=9, note=54, velocity=127, time=0),
    Message('note_on', channel=3, note=52, velocity=0, time=8),
    Message('note_on', channel=3, note=59, velocity=0, time=2),
    Message('note_on', channel=9, note=54, velocity=0, time=30),
    Message('note_on', channel=9, note=64, velocity=101, time=80),
    Message('note_on', channel=9, note=64, velocity=0, time=49),
    Message('note_on', channel=3, note=59, velocity=91, time=71),
    Message('note_on', channel=3, note=68, velocity=112, time=0),
    Message('note_on', channel=3, note=64, velocity=101, time=0),
    Message('note_on', channel=9, note=63, velocity=122, time=0),
    Message('note_on', channel=9, note=63, velocity=0, time=42),
    Message('note_on', channel=9, note=63, velocity=114, time=78),
    Message('note_on', channel=3, note=64, velocity=0, time=7),
    Message('note_on', channel=3, note=59, velocity=0, time=2),
    Message('note_on', channel=3, note=68, velocity=0, time=4),
    Message('note_on', channel=9, note=63, velocity=0, time=23),
    Message('note_on', channel=6, note=83, velocity=112, time=84),
    Message('note_on', channel=9, note=64, velocity=93, time=0),
    Message('note_on', channel=9, note=64, velocity=0, time=40),
    Message('note_on', channel=6, note=83, velocity=0, time=44),
    Message('note_on', channel=6, note=85, velocity=119, time=36),
    Message('note_on', channel=6, note=85, velocity=0, time=49),
    Message('note_on', channel=3, note=59, velocity=94, time=71),
    Message('note_on', channel=3, note=64, velocity=98, time=0),
    Message('note_on', channel=3, note=68, velocity=109, time=0),
    Message('note_on', channel=6, note=87, velocity=122, time=0),
    Message('note_on', channel=9, note=63, velocity=122, time=0),
    Message('note_on', channel=9, note=63, velocity=0, time=32),
    Message('note_on', channel=6, note=87, velocity=0, time=52),
    Message('note_on', channel=3, note=59, velocity=0, time=32),
    Message('note_on', channel=3, note=64, velocity=0, time=10),
    Message('note_on', channel=3, note=68, velocity=0, time=6),
    Message('note_on', channel=3, note=40, velocity=98, time=108),
    Message('note_on', channel=3, note=47, velocity=116, time=0),
    Message('note_on', channel=6, note=87, velocity=122, time=0),
    Message('note_on', channel=9, note=54, velocity=127, time=0),
    Message('note_on', channel=3, note=47, velocity=0, time=25),
    Message('note_on', channel=3, note=40, velocity=0, time=1),
    Message('note_on', channel=9, note=54, velocity=0, time=11),
    Message('note_on', channel=6, note=87, velocity=0, time=57),
    Message('note_on', channel=6, note=85, velocity=114, time=26),
    Message('note_on', channel=9, note=64, velocity=101, time=0),
    Message('note_on', channel=9, note=64, velocity=0, time=39),
    Message('note_on', channel=6, note=85, velocity=0, time=28),
    Message('note_on', channel=3, note=64, velocity=103, time=53),
    Message('note_on', channel=3, note=59, velocity=96, time=0),
    Message('note_on', channel=3, note=68, velocity=112, time=0),
    Message('note_on', channel=6, note=83, velocity=119, time=0),
    Message('note_on', channel=9, note=63, velocity=122, time=0),
    Message('note_on', channel=9, note=63, velocity=0, time=38),
    Message('note_on', channel=6, note=83, velocity=0, time=60),
    Message('note_on', channel=9, note=63, velocity=122, time=22),
    Message('note_on', channel=3, note=59, velocity=0, time=5),
    Message('note_on', channel=3, note=64, velocity=0, time=1),
    Message('note_on', channel=3, note=68, velocity=0, time=9),
    Message('note_on', channel=9, note=63, velocity=0, time=24),
    Message('note_on', channel=3, note=47, velocity=98, time=81),
    Message('note_on', channel=9, note=64, velocity=94, time=0),
    Message('note_on', channel=9, note=64, velocity=0, time=60),
    Message('note_on', channel=3, note=47, velocity=0, time=108),
    Message('note_on', channel=3, note=63, velocity=101, time=72),
    Message('note_on', channel=3, note=59, velocity=101, time=0),
    Message('note_on', channel=3, note=71, velocity=89, time=0),
    Message('note_on', channel=3, note=66, velocity=105, time=0),
    Message('note_on', channel=9, note=63, velocity=119, time=0),
    Message('note_on', channel=9, note=63, velocity=0, time=37),
    Message('note_on', channel=3, note=59, velocity=0, time=58),
    Message('note_on', channel=3, note=66, velocity=0, time=5),
    Message('note_on', channel=3, note=63, velocity=0, time=6),
    Message('note_on', channel=3, note=71, velocity=0, time=10),
    Message('note_on', channel=3, note=47, velocity=82, time=124),
    Message('note_on', channel=3, note=54, velocity=112, time=0),
    Message('note_on', channel=9, note=54, velocity=127, time=0),
    Message('note_on', channel=3, note=54, velocity=0, time=7),
    Message('note_on', channel=3, note=47, velocity=0, time=1),
    Message('note_on', channel=9, note=54, velocity=0, time=27),
    Message('note_on', channel=9, note=64, velocity=101, time=85),
    Message('note_on', channel=9, note=64, velocity=0, time=49),
    Message('note_on', channel=3, note=66, velocity=112, time=71),
    Message('note_on', channel=3, note=71, velocity=93, time=0),
    Message('note_on', channel=3, note=63, velocity=109, time=0),
    Message('note_on', channel=3, note=59, velocity=103, time=0),
    Message('note_on', channel=9, note=63, velocity=122, time=0),
    Message('note_on', channel=9, note=63, velocity=0, time=42),
    Message('note_on', channel=9, note=63, velocity=114, time=78),
    Message('note_on', channel=3, note=66, velocity=0, time=10),
    Message('note_on', channel=3, note=59, velocity=0, time=6),
    Message('note_on', channel=3, note=63, velocity=0, time=2),
    Message('note_on', channel=3, note=71, velocity=0, time=13),
    Message('note_on', channel=9, note=63, velocity=0, time=5),
    Message('note_on', channel=3, note=54, velocity=112, time=84),
    Message('note_on', channel=9, note=64, velocity=93, time=0),
    Message('note_on', channel=9, note=64, velocity=0, time=40),
    Message('note_on', channel=3, note=54, velocity=0, time=168),
    Message('note_on', channel=3, note=66, velocity=105, time=32),
    Message('note_on', channel=3, note=61, velocity=94, time=0),
    Message('note_on', channel=3, note=70, velocity=109, time=0),
    Message('note_on', channel=9, note=63, velocity=122, time=0),
    Message('note_on', channel=9, note=63, velocity=0, time=32),
    Message('note_on', channel=3, note=70, velocity=0, time=50),
    Message('note_on', channel=3, note=61, velocity=0, time=2),
    Message('note_on', channel=3, note=66, velocity=0, time=14),
    Message('note_on', channel=3, note=42, velocity=105, time=142),
    Message('note_on', channel=3, note=49, velocity=114, time=0),
    Message('note_on', channel=9, note=54, velocity=127, time=0),
    Message('note_on', channel=3, note=42, velocity=0, time=7),
    Message('note_on', channel=3, note=49, velocity=0, time=1),
    Message('note_on', channel=9, note=54, velocity=0, time=28),
    Message('note_on', channel=9, note=64, velocity=101, time=84),
    Message('note_on', channel=9, note=64, velocity=0, time=39),
    Message('note_on', channel=3, note=61, velocity=98, time=81),
    Message('note_on', channel=3, note=66, velocity=93, time=0),
    Message('note_on', channel=3, note=70, velocity=105, time=0),
    Message('note_on', channel=9, note=63, velocity=122, time=0),
    Message('note_on', channel=9, note=63, velocity=0, time=38),
    Message('note_on', channel=3, note=70, velocity=0, time=64),
    Message('note_on', channel=3, note=61, velocity=0, time=6),
    Message('note_on', channel=3, note=66, velocity=0, time=8),
    Message('note_on', channel=9, note=63, velocity=122, time=4),
    Message('note_on', channel=9, note=63, velocity=0, time=39),
    Message('note_on', channel=3, note=52, velocity=122, time=81),
    Message('note_on', channel=9, note=64, velocity=94, time=0),
    Message('note_on', channel=9, note=64, velocity=0, time=60),
    Message('note_on', channel=3, note=52, velocity=0, time=162),
    Message('note_on', channel=3, note=68, velocity=114, time=18),
    Message('note_on', channel=3, note=59, velocity=101, time=0),
    Message('note_on', channel=3, note=64, velocity=107, time=0),
    Message('note_on', channel=9, note=63, velocity=119, time=0),
    Message('note_on', channel=9, note=63, velocity=0, time=37),
    Message('note_on', channel=3, note=68, velocity=0, time=89),
    Message('note_on', channel=3, note=59, velocity=0, time=2),
    Message('note_on', channel=3, note=64, velocity=0, time=3),
    Message('note_on', channel=3, note=59, velocity=105, time=109),
    Message('note_on', channel=3, note=52, velocity=103, time=0),
    Message('note_on', channel=9, note=54, velocity=127, time=0),
    Message('note_on', channel=3, note=52, velocity=0, time=8),
    Message('note_on', channel=3, note=59, velocity=0, time=2),
    Message('note_on', channel=9, note=54, velocity=0, time=30),
    Message('note_on', channel=9, note=64, velocity=101, time=80),
    Message('note_on', channel=9, note=64, velocity=0, time=49),
    Message('note_on', channel=3, note=68, velocity=112, time=71),
    Message('note_on', channel=3, note=59, velocity=91, time=0),
    Message('note_on', channel=3, note=64, velocity=101, time=0),
    Message('note_on', channel=9, note=63, velocity=122, time=0),
    Message('note_on', channel=9, note=63, velocity=0, time=42),
    Message('note_on', channel=9, note=63, velocity=114, time=78),
    Message('note_on', channel=3, note=64, velocity=0, time=7),
    Message('note_on', channel=3, note=59, velocity=0, time=2),
    Message('note_on', channel=3, note=68, velocity=0, time=4),
    Message('note_on', channel=9, note=63, velocity=0, time=23),
    Message('note_on', channel=9, note=64, velocity=93, time=84),
    Message('note_on', channel=9, note=64, velocity=0, time=40),
    Message('note_on', channel=3, note=68, velocity=109, time=200),
    Message('note_on', channel=3, note=64, velocity=98, time=0),
    Message('note_on', channel=3, note=59, velocity=94, time=0),
    Message('note_on', channel=9, note=63, velocity=122, time=0),
    Message('note_on', channel=9, note=63, velocity=0, time=32),
    Message('note_on', channel=3, note=59, velocity=0, time=84),
    Message('note_on', channel=3, note=64, velocity=0, time=10),
    Message('note_on', channel=3, note=68, velocity=0, time=6),
    Message('note_on', channel=3, note=47, velocity=116, time=108),
    Message('note_on', channel=3, note=40, velocity=98, time=0),
    Message('note_on', channel=9, note=54, velocity=127, time=0),
    Message('note_on', channel=3, note=47, velocity=0, time=25),
    Message('note_on', channel=3, note=40, velocity=0, time=1),
    Message('note_on', channel=9, note=54, velocity=0, time=11),
    Message('note_on', channel=9, note=64, velocity=101, time=83),
    Message('note_on', channel=9, note=64, velocity=0, time=39),
    Message('note_on', channel=0, note=56, velocity=127, time=81),
    Message('note_on', channel=3, note=64, velocity=103, time=0),
    Message('note_on', channel=3, note=68, velocity=112, time=0),
    Message('note_on', channel=3, note=59, velocity=96, time=0),
    Message('note_on', channel=9, note=63, velocity=122, time=0),
    Message('note_on', channel=9, note=63, velocity=0, time=38),
    Message('note_on', channel=0, note=56, velocity=0, time=21),
    Message('note_on', channel=0, note=56, velocity=116, time=61),
    Message('note_on', channel=9, note=63, velocity=122, time=0),
    Message('note_on', channel=3, note=59, velocity=0, time=5),
    Message('note_on', channel=3, note=64, velocity=0, time=1),
    Message('note_on', channel=3, note=68, velocity=0, time=9),
    Message('note_on', channel=9, note=63, velocity=0, time=24),
    Message('note_on', channel=0, note=56, velocity=0, time=17),
    Message('note_on', channel=0, note=59, velocity=112, time=64),
    Message('note_on', channel=3, note=47, velocity=98, time=0),
    Message('note_on', channel=9, note=64, velocity=94, time=0),
    Message('note_on', channel=9, note=64, velocity=0, time=60),
    Message('note_on', channel=0, note=59, velocity=0, time=63),
    Message('note_on', channel=3, note=47, velocity=0, time=45),
    Message('note_on', channel=0, note=59, velocity=112, time=72),
    Message('note_on', channel=3, note=63, velocity=101, time=0),
    Message('note_on', channel=3, note=59, velocity=101, time=0),
    Message('note_on', channel=3, note=71, velocity=89, time=0),
    Message('note_on', channel=3, note=66, velocity=105, time=0),
    Message('note_on', channel=9, note=63, velocity=119, time=0),
    Message('note_on', channel=9, note=63, velocity=0, time=37),
    Message('note_on', channel=3, note=59, velocity=0, time=58),
    Message('note_on', channel=3, note=66, velocity=0, time=5),
    Message('note_on', channel=3, note=63, velocity=0, time=6),
    Message('note_on', channel=3, note=71, velocity=0, time=10),
    Message('note_on', channel=0, note=59, velocity=0, time=4),
    Message('note_on', channel=0, note=59, velocity=112, time=120),
    Message('note_on', channel=3, note=47, velocity=82, time=0),
    Message('note_on', channel=3, note=54, velocity=112, time=0),
    Message('note_on', channel=9, note=54, velocity=127, time=0),
    Message('note_on', channel=3, note=54, velocity=0, time=7),
    Message('note_on', channel=3, note=47, velocity=0, time=1),
    Message('note_on', channel=9, note=54, velocity=0, time=27),
    Message('note_on', channel=9, note=64, velocity=101, time=85),
    Message('note_on', channel=0, note=59, velocity=0, time=31),
    Message('note_on', channel=9, note=64, velocity=0, time=18),
    Message('note_on', channel=0, note=59, velocity=109, time=71),
    Message('note_on', channel=3, note=66, velocity=112, time=0),
    Message('note_on', channel=3, note=71, velocity=93, time=0),
    Message('note_on', channel=3, note=63, velocity=109, time=0),
    Message('note_on', channel=3, note=59, velocity=103, time=0),
    Message('note_on', channel=9, note=63, velocity=122, time=0),
    Message('note_on', channel=9, note=63, velocity=0, time=42),
    Message('note_on', channel=9, note=63, velocity=114, time=78),
    Message('note_on', channel=0, note=59, velocity=0, time=3),
    Message('note_on', channel=3, note=66, velocity=0, time=7),
    Message('note_on', channel=3, note=59, velocity=0, time=6),
    Message('note_on', channel=3, note=63, velocity=0, time=2),
    Message('note_on', channel=3, note=71, velocity=0, time=13),
    Message('note_on', channel=9, note=63, velocity=0, time=5),
    Message('note_on', channel=0, note=58, velocity=119, time=84),
    Message('note_on', channel=3, note=51, velocity=116, time=0),
    Message('note_on', channel=9, note=64, velocity=93, time=0),
    Message('note_on', channel=9, note=64, velocity=0, time=40),
    Message('note_on', channel=0, note=58, velocity=0, time=100),
    Message('note_on', channel=3, note=51, velocity=0, time=6),
    Message('note_on', channel=0, note=56, velocity=114, time=94),
    Message('note_on', channel=3, note=67, velocity=98, time=0),
    Message('note_on', channel=3, note=58, velocity=96, time=0),
    Message('note_on', channel=3, note=63, velocity=114, time=0),
    Message('note_on', channel=9, note=63, velocity=122, time=0),
    Message('note_on', channel=9, note=63, velocity=0, time=32),
    Message('note_on', channel=0, note=56, velocity=0, time=84),
    Message('note_on', channel=3, note=67, velocity=0, time=9),
    Message('note_on', channel=3, note=58, velocity=0, time=8),
    Message('note_on', channel=3, note=63, velocity=0, time=3),
    Message('note_on', channel=0, note=58, velocity=116, time=104),
    Message('note_on', channel=9, note=54, velocity=127, time=0),
    Message('note_on', channel=9, note=54, velocity=0, time=36),
    Message('note_on', channel=0, note=58, velocity=0, time=76),
    Message('note_on', channel=9, note=64, velocity=101, time=8),
    Message('note_on', channel=9, note=64, velocity=0, time=39),
    Message('note_on', channel=0, note=59, velocity=109, time=81),
    Message('note_on', channel=3, note=58, velocity=109, time=0),
    Message('note_on', channel=3, note=63, velocity=116, time=0),
    Message('note_on', channel=3, note=67, velocity=103, time=0),
    Message('note_on', channel=9, note=63, velocity=122, time=0),
    Message('note_on', channel=9, note=63, velocity=0, time=38),
    Message('note_on', channel=9, note=63, velocity=122, time=82),
    Message('note_on', channel=3, note=63, velocity=0, time=14),
    Message('note_on', channel=3, note=58, velocity=0, time=1),
    Message('note_on', channel=3, note=67, velocity=0, time=1),
    Message('note_on', channel=9, note=63, velocity=0, time=23),
    Message('note_on', channel=3, note=52, velocity=122, time=81),
    Message('note_on', channel=9, note=64, velocity=94, time=0),
    Message('note_on', channel=0, note=59, velocity=0, time=52),
    Message('note_on', channel=9, note=64, velocity=0, time=8),
    Message('note_on', channel=0, note=56, velocity=112, time=60),
    Message('note_on', channel=0, note=56, velocity=0, time=71),
    Message('note_on', channel=3, note=52, velocity=0, time=31),
    Message('note_on', channel=0, note=52, velocity=109, time=18),
    Message('note_on', channel=3, note=64, velocity=107, time=0),
    Message('note_on', channel=3, note=68, velocity=114, time=0),
    Message('note_on', channel=3, note=59, velocity=101, time=0),
    Message('note_on', channel=9, note=63, velocity=119, time=0),
    Message('note_on', channel=9, note=63, velocity=0, time=37),
    Message('note_on', channel=3, note=68, velocity=0, time=89),
    Message('note_on', channel=3, note=59, velocity=0, time=2),
    Message('note_on', channel=3, note=64, velocity=0, time=3),
    Message('note_on', channel=3, note=52, velocity=103, time=109),
    Message('note_on', channel=3, note=59, velocity=105, time=0),
    Message('note_on', channel=9, note=54, velocity=127, time=0),
    Message('note_on', channel=3, note=52, velocity=0, time=8),
    Message('note_on', channel=3, note=59, velocity=0, time=2),
    Message('note_on', channel=9, note=54, velocity=0, time=30),
    Message('note_on', channel=0, note=52, velocity=0, time=153),
    Message('note_on', channel=3, note=59, velocity=91, time=47),
    Message('note_on', channel=3, note=64, velocity=101, time=0),
    Message('note_on', channel=3, note=68, velocity=112, time=0),
    Message('note_on', channel=9, note=60, velocity=116, time=0),
    Message('note_on', channel=9, note=60, velocity=0, time=33),
    Message('note_on', channel=9, note=60, velocity=109, time=47),
    Message('note_on', channel=9, note=60, velocity=0, time=35),
    Message('note_on', channel=3, note=64, velocity=0, time=12),
    Message('note_on', channel=3, note=59, velocity=0, time=2),
    Message('note_on', channel=3, note=68, velocity=0, time=4),
    Message('note_on', channel=9, note=60, velocity=107, time=27),
    Message('note_on', channel=9, note=60, velocity=0, time=34),
    Message('note_on', channel=0, note=59, velocity=116, time=46),
    Message('note_on', channel=0, note=68, velocity=116, time=0),
    Message('note_on', channel=3, note=68, velocity=109, time=0),
    Message('note_on', channel=3, note=64, velocity=98, time=0),
    Message('note_on', channel=3, note=59, velocity=94, time=0),
    Message('note_on', channel=9, note=64, velocity=114, time=0),
    Message('note_on', channel=9, note=64, velocity=0, time=49),
    Message('note_on', channel=0, note=59, velocity=0, time=64),
    Message('note_on', channel=0, note=68, velocity=0, time=1),
    Message('note_on', channel=3, note=59, velocity=0, time=2),
    Message('note_on', channel=3, note=64, velocity=0, time=10),
    Message('note_on', channel=3, note=68, velocity=0, time=6),
    Message('note_on', channel=0, note=66, velocity=103, time=108),
    Message('note_on', channel=0, note=59, velocity=107, time=0),
    Message('note_on', channel=0, note=66, velocity=0, time=116),
    Message('note_on', channel=0, note=59, velocity=0, time=43),
    Message('note_on', channel=0, note=64, velocity=79, time=81),
    Message('note_on', channel=0, note=56, velocity=109, time=0),
    Message('note_on', channel=9, note=36, velocity=112, time=0),
    Message('note_on', channel=9, note=36, velocity=0, time=60),
    Message('note_on', channel=0, note=56, velocity=0, time=63),
    Message('note_on', channel=0, note=64, velocity=0, time=3),
    Message('note_on', channel=0, note=54, velocity=109, time=114),
    Message('note_on', channel=0, note=63, velocity=105, time=0),
    Message('note_on', channel=9, note=43, velocity=116, time=0),
    Message('note_on', channel=9, note=43, velocity=0, time=46),
    Message('note_on', channel=1, note=35, velocity=119, time=194),
    Message('note_on', channel=2, note=35, velocity=127, time=0),
    Message('note_on', channel=2, note=47, velocity=127, time=0),
    Message('note_on', channel=3, note=47, velocity=98, time=0),
    Message('note_on', channel=4, note=47, velocity=98, time=0),
    Message('note_on', channel=9, note=64, velocity=94, time=0),
    Message('note_on', channel=9, note=57, velocity=127, time=0),
    Message('note_on', channel=9, note=42, velocity=124, time=10),
    Message('note_on', channel=9, note=36, velocity=124, time=0),
    Message('note_on', channel=0, note=63, velocity=0, time=4),
    Message('note_on', channel=9, note=42, velocity=0, time=40),
    Message('note_on', channel=9, note=64, velocity=0, time=6),
    Message('note_on', channel=9, note=57, velocity=0, time=0),
    Message('note_on', channel=9, note=36, velocity=0, time=16),
    Message('note_on', channel=0, note=54, velocity=0, time=39),
    Message('note_on', channel=1, note=35, velocity=0, time=44),
    Message('note_on', channel=4, note=47, velocity=0, time=9),
    Message('note_on', channel=3, note=47, velocity=0, time=0),
    Message('note_on', channel=2, note=35, velocity=0, time=17),
    Message('note_on', channel=1, note=35, velocity=114, time=55),
    Message('note_on', channel=2, note=59, velocity=127, time=0),
    Message('note_on', channel=2, note=63, velocity=127, time=0),
    Message('note_on', channel=2, note=54, velocity=127, time=0),
    Message('note_on', channel=0, note=68, velocity=124, time=0),
    Message('note_on', channel=3, note=59, velocity=101, time=0),
    Message('note_on', channel=3, note=63, velocity=101, time=0),
    Message('note_on', channel=3, note=66, velocity=105, time=0),
    Message('note_on', channel=3, note=71, velocity=89, time=0),
    Message('note_on', channel=4, note=59, velocity=101, time=0),
    Message('note_on', channel=4, note=66, velocity=105, time=0),
    Message('note_on', channel=4, note=71, velocity=89, time=0),
    Message('note_on', channel=4, note=63, velocity=101, time=0),
    Message('note_on', channel=9, note=63, velocity=119, time=0),
    Message('note_on', channel=9, note=36, velocity=122, time=10),
    Message('note_on', channel=9, note=42, velocity=89, time=0),
    Message('note_on', channel=9, note=63, velocity=0, time=27),
    Message('note_on', channel=2, note=47, velocity=0, time=4),
    Message('note_on', channel=9, note=42, velocity=0, time=5),
    Message('note_on', channel=2, note=54, velocity=0, time=10),
    Message('note_on', channel=2, note=59, velocity=0, time=5),
    Message('note_on', channel=9, note=36, velocity=0, time=8),
    Message('note_on', channel=2, note=63, velocity=0, time=0),
    Message('note_on', channel=4, note=59, velocity=0, time=26),
    Message('note_on', channel=3, note=59, velocity=0, time=0),
    Message('note_on', channel=3, note=66, velocity=0, time=5),
    Message('note_on', channel=4, note=66, velocity=0, time=0),
    Message('note_on', channel=3, note=63, velocity=0, time=6),
    Message('note_on', channel=4, note=63, velocity=0, time=0),
    Message('note_on', channel=3, note=71, velocity=0, time=10),
    Message('note_on', channel=4, note=71, velocity=0, time=0),
    Message('note_on', channel=0, note=68, velocity=0, time=11),
    Message('note_on', channel=1, note=35, velocity=0, time=73),
    Message('note_on', channel=2, note=59, velocity=127, time=40),
    Message('note_on', channel=2, note=63, velocity=127, time=0),
    Message('note_on', channel=0, note=66, velocity=122, time=0),
    Message('note_on', channel=3, note=54, velocity=112, time=0),
    Message('note_on', channel=3, note=47, velocity=82, time=0),
    Message('note_on', channel=4, note=47, velocity=82, time=0),
    Message('note_on', channel=4, note=54, velocity=112, time=0),
    Message('note_on', channel=9, note=54, velocity=127, time=0),
    Message('note_on', channel=9, note=38, velocity=124, time=0),
    Message('note_on', channel=4, note=54, velocity=0, time=7),
    Message('note_on', channel=3, note=54, velocity=0, time=0),
    Message('note_on', channel=3, note=47, velocity=0, time=1),
    Message('note_on', channel=4, note=47, velocity=0, time=0),
    Message('note_on', channel=9, note=42, velocity=119, time=2),
    Message('note_on', channel=9, note=54, velocity=0, time=25),
    Message('note_on', channel=9, note=38, velocity=0, time=15),
    Message('note_on', channel=9, note=42, velocity=0, time=11),
    Message('note_on', channel=9, note=64, velocity=101, time=59),
    Message('note_on', channel=9, note=64, velocity=0, time=49),
    Message('note_on', channel=0, note=66, velocity=0, time=70),
    Message('note_on', channel=2, note=66, velocity=127, time=1),
    Message('note_on', channel=0, note=63, velocity=122, time=0),
    Message('note_on', channel=3, note=66, velocity=112, time=0),
    Message('note_on', channel=3, note=59, velocity=103, time=0),
    Message('note_on', channel=3, note=71, velocity=93, time=0),
    Message('note_on', channel=3, note=63, velocity=109, time=0),
    Message('note_on', channel=4, note=59, velocity=103, time=0),
    Message('note_on', channel=4, note=66, velocity=112, time=0),
    Message('note_on', channel=4, note=63, velocity=109, time=0),
    Message('note_on', channel=4, note=71, velocity=93, time=0),
    Message('note_on', channel=9, note=63, velocity=122, time=0),
    Message('note_on', channel=9, note=42, velocity=89, time=10),
    Message('note_on', channel=2, note=63, velocity=0, time=9),
    Message('note_on', channel=9, note=63, velocity=0, time=23),
    Message('note_on', channel=9, note=42, velocity=0, time=6),
    Message('note_on', channel=1, note=35, velocity=96, time=72),
    Message('note_on', channel=9, note=63, velocity=114, time=0),
    Message('note_on', channel=9, note=38, velocity=122, time=0),
    Message('note_on', channel=0, note=63, velocity=0, time=9),
    Message('note_on', channel=4, note=66, velocity=0, time=1),
    Message('note_on', channel=3, note=66, velocity=0, time=0),
    Message('note_on', channel=9, note=42, velocity=96, time=0),
    Message('note_on', channel=4, note=59, velocity=0, time=6),
    Message('note_on', channel=3, note=59, velocity=0, time=0),
    Message('note_on', channel=3, note=63, velocity=0, time=2),
    Message('note_on', channel=4, note=63, velocity=0, time=0),
    Message('note_on', channel=2, note=66, velocity=0, time=9),
    Message('note_on', channel=4, note=71, velocity=0, time=4),
    Message('note_on', channel=3, note=71, velocity=0, time=0),
    Message('note_on', channel=9, note=63, velocity=0, time=5),
    Message('note_on', channel=9, note=38, velocity=0, time=1),
    Message('note_on', channel=9, note=42, velocity=0, time=7),
    Message('note_on', channel=2, note=59, velocity=0, time=7),
    Message('note_on', channel=1, note=35, velocity=0, time=26),
    Message('note_on', channel=1, note=42, velocity=114, time=43),
    Message('note_on', channel=2, note=42, velocity=127, time=0),
    Message('note_on', channel=2, note=42, velocity=127, time=0),
    Message('note_on', channel=3, note=54, velocity=112, time=0),
    Message('note_on', channel=4, note=54, velocity=112, time=0),
    Message('note_on', channel=9, note=64, velocity=93, time=0),
    Message('note_on', channel=9, note=36, velocity=114, time=10),
    Message('note_on', channel=9, note=42, velocity=103, time=0),
    Message('note_on', channel=9, note=64, velocity=0, time=30),
    Message('note_on', channel=9, note=42, velocity=0, time=5),
    Message('note_on', channel=9, note=36, velocity=0, time=20),
    Message('note_on', channel=9, note=38, velocity=109, time=55),
    Message('note_on', channel=9, note=42, velocity=89, time=10),
    Message('note_on', channel=1, note=42, velocity=0, time=8),
    Message('note_on', channel=9, note=42, velocity=0, time=27),
    Message('note_on', channel=9, note=38, velocity=0, time=3),
    Message('note_on', channel=2, note=42, velocity=0, time=4),
    Message('note_on', channel=3, note=54, velocity=0, time=36),
    Message('note_on', channel=4, note=54, velocity=0, time=0),
    Message('note_on', channel=1, note=42, velocity=116, time=32),
    Message('note_on', channel=2, note=58, velocity=127, time=0),
    Message('note_on', channel=2, note=54, velocity=127, time=0),
    Message('note_on', channel=2, note=61, velocity=127, time=0),
    Message('note_on', channel=0, note=68, velocity=127, time=0),
    Message('note_on', channel=3, note=70, velocity=109, time=0),
    Message('note_on', channel=3, note=66, velocity=105, time=0),
    Message('note_on', channel=3, note=61, velocity=94, time=0),
    Message('note_on', channel=4, note=66, velocity=105, time=0),
    Message('note_on', channel=4, note=70, velocity=109, time=0),
    Message('note_on', channel=4, note=61, velocity=94, time=0),
    Message('note_on', channel=9, note=63, velocity=122, time=0),
    Message('note_on', channel=9, note=42, velocity=82, time=10),
    Message('note_on', channel=9, note=36, velocity=116, time=0),
    Message('note_on', channel=2, note=42, velocity=0, time=13),
    Message('note_on', channel=9, note=63, velocity=0, time=9),
    Message('note_on', channel=9, note=42, velocity=0, time=11),
    Message('note_on', channel=2, note=58, velocity=0, time=3),
    Message('note_on', channel=2, note=54, velocity=0, time=4),
    Message('note_on', channel=2, note=61, velocity=0, time=3),
    Message('note_on', channel=9, note=36, velocity=0, time=1),
    Message('note_on', channel=4, note=70, velocity=0, time=28),
    Message('note_on', channel=3, note=70, velocity=0, time=0),
    Message('note_on', channel=3, note=61, velocity=0, time=2),
    Message('note_on', channel=4, note=61, velocity=0, time=0),
    Message('note_on', channel=4, note=66, velocity=0, time=14),
    Message('note_on', channel=3, note=66, velocity=0, time=0),
    Message('note_on', channel=0, note=68, velocity=0, time=33),
    Message('note_on', channel=1, note=42, velocity=0, time=25),
    Message('note_on', channel=2, note=58, velocity=127, time=84),
    Message('note_on', channel=2, note=54, velocity=127, time=0),
    Message('note_on', channel=0, note=66, velocity=119, time=0),
    Message('note_on', channel=3, note=42, velocity=105, time=0),
    Message('note_on', channel=3, note=49, velocity=114, time=0),
    Message('note_on', channel=4, note=42, velocity=105, time=0),
    Message('note_on', channel=4, note=49, velocity=114, time=0),
    Message('note_on', channel=9, note=54, velocity=127, time=0),
    Message('note_on', channel=9, note=38, velocity=122, time=0),
    Message('note_on', channel=4, note=42, velocity=0, time=7),
    Message('note_on', channel=3, note=42, velocity=0, time=0),
    Message('note_on', channel=3, note=49, velocity=0, time=1),
    Message('note_on', channel=4, note=49, velocity=0, time=0),
    Message('note_on', channel=9, note=42, velocity=119, time=2),
    Message('note_on', channel=9, note=54, velocity=0, time=26),
    Message('note_on', channel=9, note=38, velocity=0, time=11),
    Message('note_on', channel=9, note=42, velocity=0, time=3),
    Message('note_on', channel=9, note=64, velocity=101, time=70),
    Message('note_on', channel=9, note=64, velocity=0, time=39),
    Message('note_on', channel=0, note=66, velocity=0, time=61),
    Message('note_on', channel=2, note=61, velocity=127, time=20),
    Message('note_on', channel=0, note=63, velocity=127, time=0),
    Message('note_on', channel=3, note=70, velocity=105, time=0),
    Message('note_on', channel=3, note=66, velocity=93, time=0),
    Message('note_on', channel=3, note=61, velocity=98, time=0),
    Message('note_on', channel=4, note=66, velocity=93, time=0),
    Message('note_on', channel=4, note=61, velocity=98, time=0),
    Message('note_on', channel=4, note=70, velocity=105, time=0),
    Message('note_on', channel=9, note=63, velocity=122, time=0),
    Message('note_on', channel=9, note=42, velocity=91, time=10),
    Message('note_on', channel=9, note=63, velocity=0, time=28),
    Message('note_on', channel=9, note=42, velocity=0, time=8),
    Message('note_on', channel=4, note=70, velocity=0, time=56),
    Message('note_on', channel=3, note=70, velocity=0, time=0),
    Message('note_on', channel=4, note=61, velocity=0, time=6),
    Message('note_on', channel=3, note=61, velocity=0, time=0),
    Message('note_on', channel=4, note=66, velocity=0, time=8),
    Message('note_on', channel=3, note=66, velocity=0, time=0),
    Message('note_on', channel=1, note=42, velocity=109, time=4),
    Message('note_on', channel=9, note=38, velocity=122, time=0),
    Message('note_on', channel=9, note=63, velocity=122, time=0),
    Message('note_on', channel=2, note=58, velocity=0, time=10),
    Message('note_on', channel=9, note=42, velocity=107, time=0),
    Message('note_on', channel=2, note=54, velocity=0, time=2),
    Message('note_on', channel=9, note=38, velocity=0, time=20),
    Message('note_on', channel=9, note=63, velocity=0, time=7),
    Message('note_on', channel=2, note=61, velocity=0, time=0),
    Message('note_on', channel=0, note=63, velocity=0, time=9),
    Message('note_on', channel=9, note=42, velocity=0, time=1),
    Message('note_on', channel=1, note=42, velocity=0, time=15),
    Message('note_on', channel=1, note=40, velocity=116, time=56),
    Message('note_on', channel=2, note=52, velocity=127, time=0),
    Message('note_on', channel=2, note=40, velocity=127, time=0),
    Message('note_on', channel=0, note=64, velocity=109, time=0),
    Message('note_on', channel=3, note=52, velocity=122, time=0),
    Message('note_on', channel=4, note=52, velocity=122, time=0),
    Message('note_on', channel=9, note=64, velocity=94, time=0),
    Message('note_on', channel=9, note=36, velocity=122, time=10),
    Message('note_on', channel=9, note=42, velocity=114, time=0),
    Message('note_on', channel=9, note=42, velocity=0, time=45),
    Message('note_on', channel=9, note=64, velocity=0, time=5),
    Message('note_on', channel=9, note=36, velocity=0, time=5),
    Message('note_on', channel=1, note=40, velocity=0, time=75),
    Message('note_on', channel=2, note=40, velocity=0, time=35),
    Message('note_on', channel=3, note=52, velocity=0, time=47),
    Message('note_on', channel=4, note=52, velocity=0, time=0),
    Message('note_on', channel=2, note=52, velocity=0, time=10),
    Message('note_on', channel=1, note=40, velocity=119, time=8),
    Message('note_on', channel=2, note=56, velocity=127, time=0),
    Message('note_on', channel=2, note=59, velocity=127, time=0),
    Message('note_on', channel=0, note=63, velocity=122, time=0),
    Message('note_on', channel=3, note=59, velocity=101, time=0),
    Message('note_on', channel=3, note=68, velocity=114, time=0),
    Message('note_on', channel=3, note=64, velocity=107, time=0),
    Message('note_on', channel=4, note=68, velocity=114, time=0),
    Message('note_on', channel=4, note=59, velocity=101, time=0),
    Message('note_on', channel=4, note=64, velocity=107, time=0),
    Message('note_on', channel=9, note=63, velocity=119, time=0),
    Message('note_on', channel=0, note=64, velocity=0, time=10),
    Message('note_on', channel=9, note=42, velocity=77, time=0),
    Message('note_on', channel=9, note=36, velocity=116, time=0),
    Message('note_on', channel=9, note=63, velocity=0, time=27),
    Message('note_on', channel=9, note=42, velocity=0, time=17),
    Message('note_on', channel=9, note=36, velocity=0, time=1),
    Message('note_on', channel=2, note=56, velocity=0, time=17),
    Message('note_on', channel=2, note=59, velocity=0, time=5),
    Message('note_on', channel=4, note=68, velocity=0, time=49),
    Message('note_on', channel=3, note=68, velocity=0, time=0),
    Message('note_on', channel=4, note=59, velocity=0, time=2),
    Message('note_on', channel=3, note=59, velocity=0, time=0),
    Message('note_on', channel=4, note=64, velocity=0, time=3),
    Message('note_on', channel=3, note=64, velocity=0, time=0),
    Message('note_on', channel=0, note=63, velocity=0, time=46),
    Message('note_on', channel=1, note=40, velocity=0, time=20),
    Message('note_on', channel=2, note=52, velocity=127, time=43),
    Message('note_on', channel=2, note=56, velocity=127, time=0),
    Message('note_on', channel=0, note=59, velocity=114, time=0),
    Message('note_on', channel=3, note=52, velocity=103, time=0),
    Message('note_on', channel=3, note=59, velocity=105, time=0),
    Message('note_on', channel=4, note=59, velocity=105, time=0),
    Message('note_on', channel=4, note=52, velocity=103, time=0),
    Message('note_on', channel=9, note=38, velocity=116, time=0),
    Message('note_on', channel=9, note=54, velocity=127, time=0),
    Message('note_on', channel=4, note=52, velocity=0, time=8),
    Message('note_on', channel=3, note=52, velocity=0, time=0),
    Message('note_on', channel=3, note=59, velocity=0, time=2),
    Message('note_on', channel=4, note=59, velocity=0, time=0),
    Message('note_on', channel=9, note=42, velocity=119, time=0),
    Message('note_on', channel=9, note=54, velocity=0, time=25),
    Message('note_on', channel=9, note=38, velocity=0, time=12),
    Message('note_on', channel=9, note=42, velocity=0, time=4),
    Message('note_on', channel=9, note=64, velocity=101, time=69),
    Message('note_on', channel=9, note=64, velocity=0, time=49),
    Message('note_on', channel=2, note=59, velocity=127, time=71),
    Message('note_on', channel=3, note=59, velocity=91, time=0),
    Message('note_on', channel=3, note=64, velocity=101, time=0),
    Message('note_on', channel=3, note=68, velocity=112, time=0),
    Message('note_on', channel=4, note=68, velocity=112, time=0),
    Message('note_on', channel=4, note=64, velocity=101, time=0),
    Message('note_on', channel=4, note=59, velocity=91, time=0),
    Message('note_on', channel=9, note=63, velocity=122, time=0),
    Message('note_on', channel=9, note=42, velocity=93, time=10),
    Message('note_on', channel=9, note=63, velocity=0, time=32),
    Message('note_on', channel=9, note=42, velocity=0, time=5),
    Message('note_on', channel=1, note=35, velocity=109, time=73),
    Message('note_on', channel=9, note=38, velocity=116, time=0),
    Message('note_on', channel=9, note=63, velocity=114, time=0),
    Message('note_on', channel=2, note=56, velocity=0, time=4),
    Message('note_on', channel=2, note=52, velocity=0, time=1),
    Message('note_on', channel=4, note=64, velocity=0, time=2),
    Message('note_on', channel=3, note=64, velocity=0, time=0),
    Message('note_on', channel=4, note=59, velocity=0, time=2),
    Message('note_on', channel=3, note=59, velocity=0, time=0),
    Message('note_on', channel=9, note=42, velocity=98, time=1),
    Message('note_on', channel=4, note=68, velocity=0, time=3),
    Message('note_on', channel=3, note=68, velocity=0, time=0),
    Message('note_on', channel=2, note=59, velocity=0, time=22),
    Message('note_on', channel=9, note=63, velocity=0, time=1),
    Message('note_on', channel=9, note=42, velocity=0, time=12),
    Message('note_on', channel=9, note=38, velocity=0, time=1),
    Message('note_on', channel=1, note=35, velocity=0, time=39),
    Message('note_on', channel=1, note=40, velocity=116, time=32),
    Message('note_on', channel=2, note=40, velocity=127, time=0),
    Message('note_on', channel=2, note=52, velocity=127, time=0),
    Message('note_on', channel=9, note=64, velocity=93, time=0),
    Message('note_on', channel=0, note=59, velocity=0, time=6),
    Message('note_on', channel=9, note=42, velocity=116, time=4),
    Message('note_on', channel=9, note=36, velocity=107, time=0),
    Message('note_on', channel=9, note=64, velocity=0, time=30),
    Message('note_on', channel=9, note=36, velocity=0, time=1),
    Message('note_on', channel=9, note=42, velocity=0, time=7),
    Message('note_on', channel=9, note=38, velocity=122, time=72),
    Message('note_on', channel=2, note=40, velocity=0, time=8),
    Message('note_on', channel=9, note=42, velocity=97, time=2),
    Message('note_on', channel=1, note=40, velocity=0, time=13),
    Message('note_on', channel=9, note=38, velocity=0, time=16),
    Message('note_on', channel=9, note=42, velocity=0, time=6),
    Message('note_on', channel=1, note=40, velocity=116, time=75),
    Message('note_on', channel=2, note=59, velocity=127, time=0),
    Message('note_on', channel=2, note=56, velocity=127, time=0),
    Message('note_on', channel=3, note=59, velocity=94, time=0),
    Message('note_on', channel=3, note=68, velocity=109, time=0),
    Message('note_on', channel=3, note=64, velocity=98, time=0),
    Message('note_on', channel=4, note=59, velocity=94, time=0),
    Message('note_on', channel=4, note=68, velocity=109, time=0),
    Message('note_on', channel=4, note=64, velocity=98, time=0),
    Message('note_on', channel=9, note=46, velocity=87, time=0),
    Message('note_on', channel=9, note=63, velocity=122, time=0),
    Message('note_on', channel=9, note=36, velocity=124, time=10),
    Message('note_on', channel=9, note=63, velocity=0, time=22),
    Message('note_on', channel=9, note=46, velocity=0, time=4),
    Message('note_on', channel=9, note=36, velocity=0, time=13),
    Message('note_on', channel=2, note=56, velocity=0, time=23),
    Message('note_on', channel=2, note=59, velocity=0, time=2),
    Message('note_on', channel=2, note=52, velocity=0, time=9),
    Message('note_on', channel=4, note=59, velocity=0, time=33),
    Message('note_on', channel=3, note=59, velocity=0, time=0),
    Message('note_on', channel=4, note=64, velocity=0, time=10),
    Message('note_on', channel=3, note=64, velocity=0, time=0),
    Message('note_on', channel=4, note=68, velocity=0, time=6),
    Message('note_on', channel=3, note=68, velocity=0, time=0),
    Message('note_on', channel=1, note=40, velocity=0, time=16),
    Message('note_on', channel=2, note=39, velocity=127, time=92),
    Message('note_on', channel=2, note=51, velocity=127, time=0),
    Message('note_on', channel=3, note=47, velocity=116, time=0),
    Message('note_on', channel=3, note=40, velocity=98, time=0),
    Message('note_on', channel=4, note=47, velocity=116, time=0),
    Message('note_on', channel=4, note=40, velocity=98, time=0),
    Message('note_on', channel=9, note=38, velocity=122, time=0),
    Message('note_on', channel=9, note=54, velocity=127, time=0),
    Message('note_on', channel=9, note=42, velocity=124, time=10),
    Message('note_on', channel=4, note=47, velocity=0, time=15),
    Message('note_on', channel=3, note=47, velocity=0, time=0),
    Message('note_on', channel=3, note=40, velocity=0, time=1),
    Message('note_on', channel=4, note=40, velocity=0, time=0),
    Message('note_on', channel=9, note=54, velocity=0, time=10),
    Message('note_on', channel=9, note=38, velocity=0, time=11),
    Message('note_on', channel=9, note=42, velocity=0, time=6),
    Message('note_on', channel=9, note=64, velocity=101, time=67),
    Message('note_on', channel=9, note=64, velocity=0, time=39),
    Message('note_on', channel=2, note=39, velocity=0, time=67),
    Message('note_on', channel=2, note=51, velocity=0, time=9),
    Message('note_on', channel=1, note=37, velocity=122, time=5),
    Message('note_on', channel=2, note=59, velocity=127, time=0),
    Message('note_on', channel=2, note=64, velocity=127, time=0),
    Message('note_on', channel=2, note=56, velocity=127, time=0),
    Message('note_on', channel=2, note=37, velocity=127, time=0),
    Message('note_on', channel=2, note=49, velocity=127, time=0),
    Message('note_on', channel=3, note=64, velocity=103, time=0),
    Message('note_on', channel=3, note=68, velocity=112, time=0),
    Message('note_on', channel=3, note=59, velocity=96, time=0),
    Message('note_on', channel=4, note=64, velocity=103, time=0),
    Message('note_on', channel=4, note=59, velocity=96, time=0),
    Message('note_on', channel=4, note=68, velocity=112, time=0),
    Message('note_on', channel=9, note=63, velocity=122, time=0),
    Message('note_on', channel=9, note=38, velocity=101, time=0),
    Message('note_on', channel=9, note=42, velocity=77, time=10),
    Message('note_on', channel=9, note=38, velocity=0, time=18),
    Message('note_on', channel=9, note=42, velocity=0, time=10),
    Message('note_on', channel=9, note=63, velocity=0, time=0),
    Message('note_on', channel=2, note=49, velocity=0, time=50),
    Message('note_on', channel=9, note=63, velocity=122, time=32),
    Message('note_on', channel=9, note=38, velocity=122, time=0),
    Message('note_on', channel=2, note=56, velocity=0, time=3),
    Message('note_on', channel=4, note=59, velocity=0, time=2),
    Message('note_on', channel=3, note=59, velocity=0, time=0),
    Message('note_on', channel=2, note=59, velocity=0, time=1),
    Message('note_on', channel=4, note=64, velocity=0, time=0),
    Message('note_on', channel=3, note=64, velocity=0, time=0),
    Message('note_on', channel=2, note=64, velocity=0, time=6),
    Message('note_on', channel=3, note=68, velocity=0, time=3),
    Message('note_on', channel=4, note=68, velocity=0, time=0),
    Message('note_on', channel=9, note=38, velocity=0, time=21),
    Message('note_on', channel=9, note=63, velocity=0, time=3),
    Message('note_on', channel=1, note=37, velocity=0, time=33),
    Message('note_on', channel=2, note=37, velocity=0, time=4),
    Message('note_on', channel=1, note=35, velocity=122, time=44),
    Message('note_on', channel=2, note=47, velocity=127, time=0),
    Message('note_on', channel=2, note=35, velocity=127, time=0),
    Message('note_on', channel=3, note=47, velocity=98, time=0),
    Message('note_on', channel=4, note=47, velocity=98, time=0),
    Message('note_on', channel=9, note=64, velocity=94, time=0),
    Message('note_on', channel=9, note=36, velocity=124, time=10),
    Message('note_on', channel=9, note=42, velocity=124, time=0),
    Message('note_on', channel=9, note=42, velocity=0, time=44),
    Message('note_on', channel=9, note=64, velocity=0, time=6),
    Message('note_on', channel=9, note=36, velocity=0, time=16),
    Message('note_on', channel=3, note=47, velocity=0, time=92),
    Message('note_on', channel=4, note=47, velocity=0, time=0),
    Message('note_on', channel=1, note=35, velocity=0, time=15),
    Message('note_on', channel=2, note=35, velocity=0, time=2),
    Message('note_on', channel=1, note=35, velocity=122, time=55),
    Message('note_on', channel=2, note=59, velocity=127, time=0),
    Message('note_on', channel=2, note=63, velocity=127, time=0),
    Message('note_on', channel=2, note=54, velocity=127, time=0),
    Message('note_on', channel=0, note=68, velocity=124, time=0),
    Message('note_on', channel=0, note=71, velocity=107, time=0),
    Message('note_on', channel=3, note=59, velocity=101, time=0),
    Message('note_on', channel=3, note=63, velocity=101, time=0),
    Message('note_on', channel=3, note=71, velocity=89, time=0),
    Message('note_on', channel=3, note=66, velocity=105, time=0),
    Message('note_on', channel=4, note=59, velocity=101, time=0),
    Message('note_on', channel=4, note=71, velocity=89, time=0),
    Message('note_on', channel=4, note=63, velocity=101, time=0),
    Message('note_on', channel=4, note=66, velocity=105, time=0),
    Message('note_on', channel=9, note=63, velocity=119, time=0),
    Message('note_on', channel=9, note=36, velocity=122, time=10),
    Message('note_on', channel=9, note=42, velocity=89, time=0),
    Message('note_on', channel=9, note=63, velocity=0, time=27),
    Message('note_on', channel=2, note=47, velocity=0, time=4),
    Message('note_on', channel=9, note=42, velocity=0, time=5),
    Message('note_on', channel=2, note=54, velocity=0, time=10),
    Message('note_on', channel=2, note=59, velocity=0, time=5),
    Message('note_on', channel=9, note=36, velocity=0, time=8),
    Message('note_on', channel=2, note=63, velocity=0, time=0),
    Message('note_on', channel=3, note=59, velocity=0, time=26),
    Message('note_on', channel=4, note=59, velocity=0, time=0),
    Message('note_on', channel=3, note=66, velocity=0, time=5),
    Message('note_on', channel=4, note=66, velocity=0, time=0),
    Message('note_on', channel=3, note=63, velocity=0, time=6),
    Message('note_on', channel=4, note=63, velocity=0, time=0),
    Message('note_on', channel=4, note=71, velocity=0, time=10),
    Message('note_on', channel=3, note=71, velocity=0, time=0),
    Message('note_on', channel=0, note=68, velocity=0, time=11),
    Message('note_on', channel=0, note=71, velocity=0, time=17),
    Message('note_on', channel=1, note=35, velocity=0, time=45),
    Message('note_on', channel=2, note=59, velocity=127, time=51),
    Message('note_on', channel=2, note=63, velocity=127, time=0),
    Message('note_on', channel=0, note=70, velocity=116, time=0),
    Message('note_on', channel=0, note=66, velocity=122, time=0),
    Message('note_on', channel=3, note=47, velocity=82, time=0),
    Message('note_on', channel=3, note=54, velocity=112, time=0),
    Message('note_on', channel=4, note=47, velocity=82, time=0),
    Message('note_on', channel=4, note=54, velocity=112, time=0),
    Message('note_on', channel=9, note=54, velocity=127, time=0),
    Message('note_on', channel=9, note=38, velocity=124, time=0),
    Message('note_on', channel=4, note=54, velocity=0, time=7),
    Message('note_on', channel=3, note=54, velocity=0, time=0),
    Message('note_on', channel=4, note=47, velocity=0, time=1),
    Message('note_on', channel=3, note=47, velocity=0, time=0),
    Message('note_on', channel=9, note=42, velocity=119, time=2),
    Message('note_on', channel=9, note=54, velocity=0, time=25),
    Message('note_on', channel=9, note=38, velocity=0, time=15),
    Message('note_on', channel=9, note=42, velocity=0, time=11),
    Message('note_on', channel=9, note=64, velocity=101, time=59),
    Message('note_on', channel=9, note=64, velocity=0, time=49),
    Message('note_on', channel=0, note=66, velocity=0, time=70),
    Message('note_on', channel=2, note=66, velocity=127, time=1),
    Message('note_on', channel=0, note=63, velocity=122, time=0),
    Message('note_on', channel=0, note=66, velocity=116, time=0),
    Message('note_on', channel=3, note=71, velocity=93, time=0),
    Message('note_on', channel=3, note=66, velocity=112, time=0),
    Message('note_on', channel=3, note=63, velocity=109, time=0),
    Message('note_on', channel=3, note=59, velocity=103, time=0),
    Message('note_on', channel=4, note=66, velocity=112, time=0),
    Message('note_on', channel=4, note=71, velocity=93, time=0),
    Message('note_on', channel=4, note=63, velocity=109, time=0),
    Message('note_on', channel=4, note=59, velocity=103, time=0),
    Message('note_on', channel=9, note=63, velocity=122, time=0),
    Message('note_on', channel=9, note=42, velocity=89, time=10),
    Message('note_on', channel=0, note=70, velocity=0, time=3),
    Message('note_on', channel=2, note=63, velocity=0, time=6),
    Message('note_on', channel=9, note=63, velocity=0, time=23),
    Message('note_on', channel=9, note=42, velocity=0, time=6),
    Message('note_on', channel=1, note=35, velocity=116, time=72),
    Message('note_on', channel=9, note=38, velocity=122, time=0),
    Message('note_on', channel=9, note=63, velocity=114, time=0),
    Message('note_on', channel=0, note=66, velocity=0, time=6),
    Message('note_on', channel=0, note=63, velocity=0, time=3),
    Message('note_on', channel=3, note=66, velocity=0, time=1),
    Message('note_on', channel=4, note=66, velocity=0, time=0),
    Message('note_on', channel=9, note=42, velocity=96, time=0),
    Message('note_on', channel=3, note=59, velocity=0, time=6),
    Message('note_on', channel=4, note=59, velocity=0, time=0),
    Message('note_on', channel=3, note=63, velocity=0, time=2),
    Message('note_on', channel=4, note=63, velocity=0, time=0),
    Message('note_on', channel=2, note=66, velocity=0, time=9),
    Message('note_on', channel=4, note=71, velocity=0, time=4),
    Message('note_on', channel=3, note=71, velocity=0, time=0),
    Message('note_on', channel=9, note=63, velocity=0, time=5),
    Message('note_on', channel=9, note=38, velocity=0, time=1),
    Message('note_on', channel=9, note=42, velocity=0, time=7),
    Message('note_on', channel=2, note=59, velocity=0, time=7),
    Message('note_on', channel=1, note=35, velocity=0, time=13),
    Message('note_on', channel=1, note=42, velocity=112, time=56),
    Message('note_on', channel=2, note=42, velocity=127, time=0),
    Message('note_on', channel=2, note=42, velocity=127, time=0),
    Message('note_on', channel=3, note=54, velocity=112, time=0),
    Message('note_on', channel=4, note=54, velocity=112, time=0),
    Message('note_on', channel=9, note=64, velocity=93, time=0),
    Message('note_on', channel=9, note=42, velocity=103, time=10),
    Message('note_on', channel=9, note=36, velocity=114, time=0),
    Message('note_on', channel=9, note=64, velocity=0, time=30),
    Message('note_on', channel=9, note=42, velocity=0, time=5),
    Message('note_on', channel=9, note=36, velocity=0, time=20),
    Message('note_on', channel=1, note=42, velocity=0, time=52),
    Message('note_on', channel=9, note=38, velocity=109, time=3),
    Message('note_on', channel=9, note=42, velocity=89, time=10),
    Message('note_on', channel=9, note=42, velocity=0, time=35),
    Message('note_on', channel=9, note=38, velocity=0, time=3),
    Message('note_on', channel=2, note=42, velocity=0, time=4),
    Message('note_on', channel=3, note=54, velocity=0, time=36),
    Message('note_on', channel=4, note=54, velocity=0, time=0),
    Message('note_on', channel=1, note=42, velocity=124, time=32),
    Message('note_on', channel=2, note=54, velocity=127, time=0),
    Message('note_on', channel=2, note=58, velocity=127, time=0),
    Message('note_on', channel=2, note=61, velocity=127, time=0),
    Message('note_on', channel=0, note=71, velocity=119, time=0),
    Message('note_on', channel=0, note=68, velocity=127, time=0),
    Message('note_on', channel=3, note=61, velocity=94, time=0),
    Message('note_on', channel=3, note=70, velocity=109, time=0),
    Message('note_on', channel=3, note=66, velocity=105, time=0),
    Message('note_on', channel=4, note=66, velocity=105, time=0),
    Message('note_on', channel=4, note=61, velocity=94, time=0),
    Message('note_on', channel=4, note=70, velocity=109, time=0),
    Message('note_on', channel=9, note=63, velocity=122, time=0),
    Message('note_on', channel=9, note=42, velocity=82, time=10),
    Message('note_on', channel=9, note=36, velocity=116, time=0),
    Message('note_on', channel=2, note=42, velocity=0, time=13),
    Message('note_on', channel=9, note=63, velocity=0, time=9),
    Message('note_on', channel=9, note=42, velocity=0, time=11),
    Message('note_on', channel=2, note=58, velocity=0, time=3),
    Message('note_on', channel=2, note=54, velocity=0, time=4),
    Message('note_on', channel=2, note=61, velocity=0, time=3),
    Message('note_on', channel=9, note=36, velocity=0, time=1),
    Message('note_on', channel=3, note=70, velocity=0, time=28),
    Message('note_on', channel=4, note=70, velocity=0, time=0),
    Message('note_on', channel=3, note=61, velocity=0, time=2),
    Message('note_on', channel=4, note=61, velocity=0, time=0),
    Message('note_on', channel=4, note=66, velocity=0, time=14),
    Message('note_on', channel=3, note=66, velocity=0, time=0),
    Message('note_on', channel=0, note=68, velocity=0, time=33),
    Message('note_on', channel=1, note=42, velocity=0, time=19),
    Message('note_on', channel=0, note=71, velocity=0, time=8),
    Message('note_on', channel=2, note=54, velocity=127, time=82),
    Message('note_on', channel=2, note=58, velocity=127, time=0),
    Message('note_on', channel=0, note=70, velocity=119, time=0),
    Message('note_on', channel=0, note=66, velocity=119, time=0),
    Message('note_on', channel=3, note=42, velocity=105, time=0),
    Message('note_on', channel=3, note=49, velocity=114, time=0),
    Message('note_on', channel=4, note=42, velocity=105, time=0),
    Message('note_on', channel=4, note=49, velocity=114, time=0),
    Message('note_on', channel=9, note=54, velocity=127, time=0),
    Message('note_on', channel=9, note=38, velocity=122, time=0),
    Message('note_on', channel=4, note=42, velocity=0, time=7),
    Message('note_on', channel=3, note=42, velocity=0, time=0),
    Message('note_on', channel=4, note=49, velocity=0, time=1),
    Message('note_on', channel=3, note=49, velocity=0, time=0),
    Message('note_on', channel=9, note=42, velocity=119, time=2),
    Message('note_on', channel=9, note=54, velocity=0, time=26),
    Message('note_on', channel=9, note=38, velocity=0, time=11),
    Message('note_on', channel=9, note=42, velocity=0, time=3),
    Message('note_on', channel=9, note=64, velocity=101, time=70),
    Message('note_on', channel=9, note=64, velocity=0, time=39),
    Message('note_on', channel=0, note=66, velocity=0, time=61),
    Message('note_on', channel=2, note=61, velocity=127, time=20),
    Message('note_on', channel=0, note=66, velocity=119, time=0),
    Message('note_on', channel=0, note=63, velocity=127, time=0),
    Message('note_on', channel=3, note=66, velocity=93, time=0),
    Message('note_on', channel=3, note=70, velocity=105, time=0),
    Message('note_on', channel=3, note=61, velocity=98, time=0),
    Message('note_on', channel=4, note=66, velocity=93, time=0),
    Message('note_on', channel=4, note=61, velocity=98, time=0),
    Message('note_on', channel=4, note=70, velocity=105, time=0),
    Message('note_on', channel=9, note=63, velocity=122, time=0),
    Message('note_on', channel=9, note=42, velocity=91, time=10),
    Message('note_on', channel=0, note=70, velocity=0, time=7),
    Message('note_on', channel=9, note=63, velocity=0, time=21),
    Message('note_on', channel=9, note=42, velocity=0, time=8),
    Message('note_on', channel=3, note=70, velocity=0, time=56),
    Message('note_on', channel=4, note=70, velocity=0, time=0),
    Message('note_on', channel=3, note=61, velocity=0, time=6),
    Message('note_on', channel=4, note=61, velocity=0, time=0),
    Message('note_on', channel=4, note=66, velocity=0, time=8),
    Message('note_on', channel=3, note=66, velocity=0, time=0),
    Message('note_on', channel=1, note=42, velocity=116, time=4),
    Message('note_on', channel=9, note=63, velocity=122, time=0),
    Message('note_on', channel=9, note=38, velocity=122, time=0),
    Message('note_on', channel=2, note=58, velocity=0, time=10),
    Message('note_on', channel=9, note=42, velocity=107, time=0),
    Message('note_on', channel=2, note=54, velocity=0, time=2),
    Message('note_on', channel=9, note=38, velocity=0, time=20),
    Message('note_on', channel=2, note=61, velocity=0, time=7),
    Message('note_on', channel=9, note=63, velocity=0, time=0),
    Message('note_on', channel=0, note=63, velocity=0, time=9),
    Message('note_on', channel=9, note=42, velocity=0, time=1),
    Message('note_on', channel=1, note=42, velocity=0, time=0),
    Message('note_on', channel=0, note=66, velocity=0, time=7),
    Message('note_on', channel=1, note=40, velocity=119, time=64),
    Message('note_on', channel=2, note=40, velocity=127, time=0),
    Message('note_on', channel=2, note=52, velocity=127, time=0),
    Message('note_on', channel=0, note=64, velocity=109, time=0),
    Message('note_on', channel=0, note=68, velocity=127, time=0),
    Message('note_on', channel=3, note=52, velocity=122, time=0),
    Message('note_on', channel=4, note=52, velocity=122, time=0),
    Message('note_on', channel=9, note=64, velocity=94, time=0),
    Message('note_on', channel=9, note=42, velocity=114, time=10),
    Message('note_on', channel=9, note=36, velocity=122, time=0),
    Message('note_on', channel=9, note=42, velocity=0, time=45),
    Message('note_on', channel=9, note=64, velocity=0, time=5),
    Message('note_on', channel=9, note=36, velocity=0, time=5),
    Message('note_on', channel=1, note=40, velocity=0, time=91),
    Message('note_on', channel=2, note=40, velocity=0, time=19),
    Message('note_on', channel=3, note=52, velocity=0, time=47),
    Message('note_on', channel=4, note=52, velocity=0, time=0),
    Message('note_on', channel=2, note=52, velocity=0, time=10),
    Message('note_on', channel=1, note=40, velocity=122, time=8),
    Message('note_on', channel=2, note=56, velocity=127, time=0),
    Message('note_on', channel=2, note=59, velocity=127, time=0),
    Message('note_on', channel=0, note=66, velocity=119, time=0),
    Message('note_on', channel=0, note=63, velocity=122, time=0),
    Message('note_on', channel=3, note=68, velocity=114, time=0),
    Message('note_on', channel=3, note=59, velocity=101, time=0),
    Message('note_on', channel=3, note=64, velocity=107, time=0),
    Message('note_on', channel=4, note=68, velocity=114, time=0),
    Message('note_on', channel=4, note=64, velocity=107, time=0),
    Message('note_on', channel=4, note=59, velocity=101, time=0),
    Message('note_on', channel=9, note=63, velocity=119, time=0),
    Message('note_on', channel=0, note=64, velocity=0, time=10),
    Message('note_on', channel=9, note=36, velocity=116, time=0),
    Message('note_on', channel=9, note=42, velocity=77, time=0),
    Message('note_on', channel=0, note=68, velocity=0, time=6),
    Message('note_on', channel=9, note=63, velocity=0, time=21),
    Message('note_on', channel=9, note=42, velocity=0, time=17),
    Message('note_on', channel=9, note=36, velocity=0, time=1),
    Message('note_on', channel=2, note=56, velocity=0, time=17),
    Message('note_on', channel=2, note=59, velocity=0, time=5),
    Message('note_on', channel=3, note=68, velocity=0, time=49),
    Message('note_on', channel=4, note=68, velocity=0, time=0),
    Message('note_on', channel=3, note=59, velocity=0, time=2),
    Message('note_on', channel=4, note=59, velocity=0, time=0),
    Message('note_on', channel=3, note=64, velocity=0, time=3),
    Message('note_on', channel=4, note=64, velocity=0, time=0),
    Message('note_on', channel=0, note=63, velocity=0, time=46),
    Message('note_on', channel=1, note=40, velocity=0, time=20),
    Message('note_on', channel=0, note=66, velocity=0, time=30),
    Message('note_on', channel=2, note=52, velocity=127, time=13),
    Message('note_on', channel=2, note=56, velocity=127, time=0),
    Message('note_on', channel=0, note=59, velocity=114, time=0),
    Message('note_on', channel=0, note=64, velocity=112, time=0),
    Message('note_on', channel=3, note=52, velocity=103, time=0),
    Message('note_on', channel=3, note=59, velocity=105, time=0),
    Message('note_on', channel=4, note=52, velocity=103, time=0),
    Message('note_on', channel=4, note=59, velocity=105, time=0),
    Message('note_on', channel=9, note=54, velocity=127, time=0),
    Message('note_on', channel=9, note=38, velocity=116, time=0),
    Message('note_on', channel=4, note=52, velocity=0, time=8),
    Message('note_on', channel=3, note=52, velocity=0, time=0),
    Message('note_on', channel=4, note=59, velocity=0, time=2),
    Message('note_on', channel=3, note=59, velocity=0, time=0),
    Message('note_on', channel=9, note=42, velocity=119, time=0),
    Message('note_on', channel=9, note=54, velocity=0, time=25),
    Message('note_on', channel=9, note=38, velocity=0, time=12),
    Message('note_on', channel=9, note=42, velocity=0, time=4),
    Message('note_on', channel=9, note=64, velocity=101, time=69),
    Message('note_on', channel=9, note=64, velocity=0, time=49),
    Message('note_on', channel=2, note=59, velocity=127, time=71),
    Message('note_on', channel=3, note=68, velocity=112, time=0),
    Message('note_on', channel=3, note=64, velocity=101, time=0),
    Message('note_on', channel=3, note=59, velocity=91, time=0),
    Message('note_on', channel=4, note=68, velocity=112, time=0),
    Message('note_on', channel=4, note=59, velocity=91, time=0),
    Message('note_on', channel=4, note=64, velocity=101, time=0),
    Message('note_on', channel=9, note=63, velocity=122, time=0),
    Message('note_on', channel=9, note=42, velocity=93, time=10),
    Message('note_on', channel=9, note=63, velocity=0, time=32),
    Message('note_on', channel=9, note=42, velocity=0, time=5),
    Message('note_on', channel=1, note=35, velocity=107, time=73),
    Message('note_on', channel=9, note=63, velocity=114, time=0),
    Message('note_on', channel=9, note=38, velocity=116, time=0),
    Message('note_on', channel=2, note=56, velocity=0, time=4),
    Message('note_on', channel=2, note=52, velocity=0, time=1),
    Message('note_on', channel=4, note=64, velocity=0, time=2),
    Message('note_on', channel=3, note=64, velocity=0, time=0),
    Message('note_on', channel=3, note=59, velocity=0, time=2),
    Message('note_on', channel=4, note=59, velocity=0, time=0),
    Message('note_on', channel=9, note=42, velocity=98, time=1),
    Message('note_on', channel=4, note=68, velocity=0, time=3),
    Message('note_on', channel=3, note=68, velocity=0, time=0),
    Message('note_on', channel=2, note=59, velocity=0, time=22),
    Message('note_on', channel=9, note=63, velocity=0, time=1),
    Message('note_on', channel=9, note=42, velocity=0, time=12),
    Message('note_on', channel=9, note=38, velocity=0, time=1),
    Message('note_on', channel=1, note=35, velocity=0, time=8),
    Message('note_on', channel=0, note=64, velocity=0, time=45),
    Message('note_on', channel=1, note=40, velocity=116, time=18),
    Message('note_on', channel=2, note=52, velocity=127, time=0),
    Message('note_on', channel=2, note=40, velocity=127, time=0),
    Message('note_on', channel=9, note=64, velocity=93, time=0),
    Message('note_on', channel=0, note=59, velocity=0, time=6),
    Message('note_on', channel=9, note=36, velocity=107, time=4),
    Message('note_on', channel=9, note=42, velocity=116, time=0),
    Message('note_on', channel=9, note=64, velocity=0, time=30),
    Message('note_on', channel=9, note=36, velocity=0, time=1),
    Message('note_on', channel=9, note=42, velocity=0, time=7),
    Message('note_on', channel=9, note=38, velocity=122, time=72),
    Message('note_on', channel=2, note=40, velocity=0, time=8),
    Message('note_on', channel=9, note=42, velocity=97, time=2),
    Message('note_on', channel=1, note=40, velocity=0, time=3),
    Message('note_on', channel=9, note=38, velocity=0, time=26),
    Message('note_on', channel=9, note=42, velocity=0, time=6),
    Message('note_on', channel=1, note=40, velocity=109, time=75),
    Message('note_on', channel=2, note=59, velocity=127, time=0),
    Message('note_on', channel=2, note=56, velocity=127, time=0),
    Message('note_on', channel=3, note=68, velocity=109, time=0),
    Message('note_on', channel=3, note=59, velocity=94, time=0),
    Message('note_on', channel=3, note=64, velocity=98, time=0),
    Message('note_on', channel=4, note=59, velocity=94, time=0),
    Message('note_on', channel=4, note=64, velocity=98, time=0),
    Message('note_on', channel=4, note=68, velocity=109, time=0),
    Message('note_on', channel=9, note=46, velocity=87, time=0),
    Message('note_on', channel=9, note=63, velocity=122, time=0),
    Message('note_on', channel=9, note=36, velocity=124, time=10),
    Message('note_on', channel=9, note=63, velocity=0, time=22),
    Message('note_on', channel=9, note=46, velocity=0, time=4),
    Message('note_on', channel=9, note=36, velocity=0, time=13),
    Message('note_on', channel=2, note=56, velocity=0, time=23),
    Message('note_on', channel=2, note=59, velocity=0, time=2),
    Message('note_on', channel=2, note=52, velocity=0, time=9),
    Message('note_on', channel=4, note=59, velocity=0, time=33),
    Message('note_on', channel=3, note=59, velocity=0, time=0),
    Message('note_on', channel=4, note=64, velocity=0, time=10),
    Message('note_on', channel=3, note=64, velocity=0, time=0),
    Message('note_on', channel=3, note=68, velocity=0, time=6),
    Message('note_on', channel=4, note=68, velocity=0, time=0),
    Message('note_on', channel=1, note=40, velocity=0, time=34),
    Message('note_on', channel=1, note=39, velocity=124, time=74),
    Message('note_on', channel=2, note=51, velocity=127, time=0),
    Message('note_on', channel=2, note=39, velocity=127, time=0),
    Message('note_on', channel=3, note=40, velocity=98, time=0),
    Message('note_on', channel=3, note=47, velocity=116, time=0),
    Message('note_on', channel=4, note=47, velocity=116, time=0),
    Message('note_on', channel=4, note=40, velocity=98, time=0),
    Message('note_on', channel=9, note=38, velocity=122, time=0),
    Message('note_on', channel=9, note=54, velocity=127, time=0),
    Message('note_on', channel=9, note=42, velocity=124, time=10),
    Message('note_on', channel=4, note=47, velocity=0, time=15),
    Message('note_on', channel=3, note=47, velocity=0, time=0),
    Message('note_on', channel=3, note=40, velocity=0, time=1),
    Message('note_on', channel=4, note=40, velocity=0, time=0),
    Message('note_on', channel=9, note=54, velocity=0, time=10),
    Message('note_on', channel=9, note=38, velocity=0, time=11),
    Message('note_on', channel=9, note=42, velocity=0, time=6),
    Message('note_on', channel=9, note=64, velocity=101, time=67),
    Message('note_on', channel=9, note=64, velocity=0, time=39),
    Message('note_on', channel=1, note=39, velocity=0, time=10),
    Message('note_on', channel=2, note=39, velocity=0, time=57),
    Message('note_on', channel=2, note=51, velocity=0, time=9),
    Message('note_on', channel=1, note=37, velocity=122, time=5),
    Message('note_on', channel=2, note=64, velocity=127, time=0),
    Message('note_on', channel=2, note=59, velocity=127, time=0),
    Message('note_on', channel=2, note=49, velocity=127, time=0),
    Message('note_on', channel=2, note=37, velocity=127, time=0),
    Message('note_on', channel=2, note=56, velocity=127, time=0),
    Message('note_on', channel=3, note=68, velocity=112, time=0),
    Message('note_on', channel=3, note=59, velocity=96, time=0),
    Message('note_on', channel=3, note=64, velocity=103, time=0),
    Message('note_on', channel=4, note=59, velocity=96, time=0),
    Message('note_on', channel=4, note=64, velocity=103, time=0),
    Message('note_on', channel=4, note=68, velocity=112, time=0),
    Message('note_on', channel=9, note=38, velocity=101, time=0),
    Message('note_on', channel=9, note=63, velocity=122, time=0),
    Message('note_on', channel=9, note=42, velocity=77, time=10),
    Message('note_on', channel=9, note=38, velocity=0, time=18),
    Message('note_on', channel=9, note=42, velocity=0, time=10),
    Message('note_on', channel=9, note=63, velocity=0, time=0),
    Message('note_on', channel=2, note=49, velocity=0, time=50),
    Message('note_on', channel=9, note=63, velocity=122, time=32),
    Message('note_on', channel=9, note=38, velocity=122, time=0),
    Message('note_on', channel=2, note=56, velocity=0, time=3),
    Message('note_on', channel=4, note=59, velocity=0, time=2),
    Message('note_on', channel=3, note=59, velocity=0, time=0),
    Message('note_on', channel=3, note=64, velocity=0, time=1),
    Message('note_on', channel=2, note=59, velocity=0, time=0),
    Message('note_on', channel=4, note=64, velocity=0, time=0),
    Message('note_on', channel=2, note=64, velocity=0, time=6),
    Message('note_on', channel=3, note=68, velocity=0, time=3),
    Message('note_on', channel=4, note=68, velocity=0, time=0),
    Message('note_on', channel=9, note=38, velocity=0, time=21),
    Message('note_on', channel=9, note=63, velocity=0, time=3),
    Message('note_on', channel=2, note=37, velocity=0, time=37),
    Message('note_on', channel=1, note=37, velocity=0, time=8),
    MetaMessage('end_of_track', time=0)])
])
