MidiFile(type=1, ticks_per_beat=384, tracks=[
  MidiTrack([
    MetaMessage('time_signature', numerator=1, denominator=4, clocks_per_click=96, notated_32nd_notes_per_beat=8, time=0),
    MetaMessage('sequencer_specific', data=(0, 0, 65), time=0),
    MetaMessage('set_tempo', tempo=1153846, time=0),
    MetaMessage('time_signature', numerator=4, denominator=4, clocks_per_click=96, notated_32nd_notes_per_beat=8, time=384),
    MetaMessage('time_signature', numerator=2, denominator=4, clocks_per_click=96, notated_32nd_notes_per_beat=8, time=4608),
    MetaMessage('time_signature', numerator=4, denominator=4, clocks_per_click=96, notated_32nd_notes_per_beat=8, time=768),
    MetaMessage('time_signature', numerator=2, denominator=4, clocks_per_click=96, notated_32nd_notes_per_beat=8, time=12288),
    MetaMessage('time_signature', numerator=4, denominator=4, clocks_per_click=96, notated_32nd_notes_per_beat=8, time=768),
    MetaMessage('time_signature', numerator=2, denominator=4, clocks_per_click=96, notated_32nd_notes_per_beat=8, time=4608),
    MetaMessage('time_signature', numerator=4, denominator=4, clocks_per_click=96, notated_32nd_notes_per_beat=8, time=768),
    MetaMessage('time_signature', numerator=2, denominator=4, clocks_per_click=96, notated_32nd_notes_per_beat=8, time=13824),
    MetaMessage('time_signature', numerator=4, denominator=4, clocks_per_click=96, notated_32nd_notes_per_beat=8, time=768),
    MetaMessage('time_signature', numerator=6, denominator=4, clocks_per_click=96, notated_32nd_notes_per_beat=8, time=10752),
    MetaMessage('time_signature', numerator=9, denominator=8, clocks_per_click=96, notated_32nd_notes_per_beat=8, time=9216),
    MetaMessage('set_tempo', tempo=1200000, time=0),
    MetaMessage('set_tempo', tempo=1200000, time=690),
    MetaMessage('set_tempo', tempo=1176470, time=690),
    MetaMessage('set_tempo', tempo=1176470, time=690),
    MetaMessage('set_tempo', tempo=1153846, time=690),
    MetaMessage('set_tempo', tempo=1153846, time=690),
    MetaMessage('set_tempo', tempo=1132075, time=690),
    MetaMessage('set_tempo', tempo=1132075, time=690),
    MetaMessage('set_tempo', tempo=1111111, time=690),
    MetaMessage('set_tempo', tempo=1111111, time=690),
    MetaMessage('set_tempo', tempo=1090909, time=690),
    MetaMessage('set_tempo', tempo=1090909, time=690),
    MetaMessage('set_tempo', tempo=1071428, time=690),
    MetaMessage('set_tempo', tempo=1071428, time=690),
    MetaMessage('set_tempo', tempo=1052631, time=690),
    MetaMessage('set_tempo', tempo=1052631, time=690),
    MetaMessage('time_signature', numerator=4, denominator=4, clocks_per_click=96, notated_32nd_notes_per_beat=8, time=18),
    MetaMessage('set_tempo', tempo=1153846, time=0),
    MetaMessage('time_signature', numerator=2, denominator=4, clocks_per_click=96, notated_32nd_notes_per_beat=8, time=4608),
    MetaMessage('set_tempo', tempo=1153846, time=0),
    MetaMessage('set_tempo', tempo=1132075, time=192),
    MetaMessage('set_tempo', tempo=1111111, time=192),
    MetaMessage('set_tempo', tempo=1090909, time=192),
    MetaMessage('time_signature', numerator=4, denominator=4, clocks_per_click=96, notated_32nd_notes_per_beat=8, time=192),
    MetaMessage('set_tempo', tempo=1071428, time=0),
    MetaMessage('time_signature', numerator=6, denominator=4, clocks_per_click=96, notated_32nd_notes_per_beat=8, time=10752),
    MetaMessage('set_tempo', tempo=1034482, time=0),
    MetaMessage('time_signature', numerator=9, denominator=8, clocks_per_click=96, notated_32nd_notes_per_beat=8, time=18432),
    MetaMessage('set_tempo', tempo=1016949, time=0),
    MetaMessage('set_tempo', tempo=1034482, time=66),
    MetaMessage('set_tempo', tempo=1034482, time=66),
    MetaMessage('set_tempo', tempo=1052631, time=66),
    MetaMessage('set_tempo', tempo=1052631, time=66),
    MetaMessage('set_tempo', tempo=1071428, time=66),
    MetaMessage('set_tempo', tempo=1071428, time=66),
    MetaMessage('set_tempo', tempo=1090909, time=66),
    MetaMessage('set_tempo', tempo=1090909, time=66),
    MetaMessage('set_tempo', tempo=1111111, time=66),
    MetaMessage('set_tempo', tempo=1111111, time=66),
    MetaMessage('set_tempo', tempo=1132075, time=66),
    MetaMessage('set_tempo', tempo=1132075, time=66),
    MetaMessage('set_tempo', tempo=1153846, time=66),
    MetaMessage('set_tempo', tempo=1153846, time=66),
    MetaMessage('set_tempo', tempo=1176470, time=66),
    MetaMessage('set_tempo', tempo=1176470, time=66),
    MetaMessage('set_tempo', tempo=1200000, time=66),
    MetaMessage('set_tempo', tempo=1200000, time=66),
    MetaMessage('set_tempo', tempo=1224489, time=66),
    MetaMessage('set_tempo', tempo=1224489, time=66),
    MetaMessage('set_tempo', tempo=1250000, time=66),
    MetaMessage('set_tempo', tempo=1250000, time=66),
    MetaMessage('set_tempo', tempo=1276595, time=66),
    MetaMessage('set_tempo', tempo=1276595, time=66),
    MetaMessage('set_tempo', tempo=1304347, time=66),
    MetaMessage('set_tempo', tempo=1304347, time=66),
    MetaMessage('time_signature', numerator=4, denominator=4, clocks_per_click=96, notated_32nd_notes_per_beat=8, time=12),
    MetaMessage('set_tempo', tempo=1153846, time=0),
    MetaMessage('set_tempo', tempo=1176470, time=76),
    MetaMessage('set_tempo', tempo=1200000, time=76),
    MetaMessage('set_tempo', tempo=1224489, time=76),
    MetaMessage('set_tempo', tempo=1250000, time=76),
    MetaMessage('set_tempo', tempo=1276595, time=76),
    MetaMessage('set_tempo', tempo=1304347, time=76),
    MetaMessage('set_tempo', tempo=1333333, time=76),
    MetaMessage('set_tempo', tempo=1363636, time=76),
    MetaMessage('set_tempo', tempo=1395348, time=76),
    MetaMessage('set_tempo', tempo=1428571, time=76),
    MetaMessage('set_tempo', tempo=1463414, time=76),
    MetaMessage('set_tempo', tempo=1500000, time=76),
    MetaMessage('set_tempo', tempo=1538461, time=76),
    MetaMessage('set_tempo', tempo=1578947, time=76),
    MetaMessage('set_tempo', tempo=1621621, time=76),
    MetaMessage('set_tempo', tempo=1666666, time=76),
    MetaMessage('set_tempo', tempo=1714285, time=76),
    MetaMessage('set_tempo', tempo=1764705, time=76),
    MetaMessage('set_tempo', tempo=1818181, time=76),
    MetaMessage('set_tempo', tempo=1875000, time=76),
    MetaMessage('set_tempo', tempo=652173, time=16),
    MetaMessage('set_tempo', tempo=1132075, time=384),
    MetaMessage('set_tempo', tempo=1153846, time=384),
    MetaMessage('set_tempo', tempo=1176470, time=384),
    MetaMessage('set_tempo', tempo=1200000, time=384),
    MetaMessage('set_tempo', tempo=1224489, time=384),
    MetaMessage('set_tempo', tempo=1250000, time=384),
    MetaMessage('set_tempo', tempo=1276595, time=384),
    MetaMessage('set_tempo', tempo=1304347, time=384),
    MetaMessage('set_tempo', tempo=1333333, time=384),
    MetaMessage('set_tempo', tempo=1363636, time=384),
    MetaMessage('set_tempo', tempo=1395348, time=384),
    MetaMessage('set_tempo', tempo=1428571, time=384),
    MetaMessage('end_of_track', time=0)]),
  MidiTrack([
    MetaMessage('track_name', name='Chris Cornell -Guitar 1-', time=0),
    Message('control_change', channel=0, control=0, value=0, time=0),
    Message('program_change', channel=0, program=27, time=0),
    Message('control_change', channel=0, control=10, value=63, time=0),
    MetaMessage('key_signature', key='G', time=0),
    Message('note_on', channel=0, note=44, velocity=118, time=384),
    Message('control_change', channel=0, control=64, value=127, time=0),
    Message('note_off', channel=0, note=44, velocity=75, time=92),
    Message('note_on', channel=0, note=51, velocity=118, time=4),
    Message('note_off', channel=0, note=51, velocity=75, time=92),
    Message('note_on', channel=0, note=56, velocity=118, time=4),
    Message('note_off', channel=0, note=56, velocity=75, time=92),
    Message('note_on', channel=0, note=61, velocity=118, time=4),
    Message('note_off', channel=0, note=61, velocity=75, time=188),
    Message('note_on', channel=0, note=56, velocity=118, time=4),
    Message('note_off', channel=0, note=56, velocity=75, time=92),
    Message('note_on', channel=0, note=51, velocity=118, time=4),
    Message('note_off', channel=0, note=51, velocity=75, time=92),
    Message('note_on', channel=0, note=44, velocity=118, time=4),
    Message('note_off', channel=0, note=44, velocity=75, time=92),
    Message('note_on', channel=0, note=47, velocity=118, time=4),
    Message('note_off', channel=0, note=47, velocity=75, time=92),
    Message('note_on', channel=0, note=51, velocity=118, time=4),
    Message('note_off', channel=0, note=51, velocity=75, time=92),
    Message('note_on', channel=0, note=56, velocity=118, time=4),
    Message('note_off', channel=0, note=56, velocity=75, time=92),
    Message('note_on', channel=0, note=61, velocity=118, time=4),
    Message('note_off', channel=0, note=61, velocity=75, time=380),
    Message('note_on', channel=0, note=42, velocity=118, time=100),
    Message('note_off', channel=0, note=42, velocity=75, time=92),
    Message('note_on', channel=0, note=49, velocity=118, time=4),
    Message('note_off', channel=0, note=49, velocity=75, time=92),
    Message('note_on', channel=0, note=54, velocity=118, time=4),
    Message('note_off', channel=0, note=54, velocity=75, time=92),
    Message('note_on', channel=0, note=61, velocity=118, time=4),
    Message('note_off', channel=0, note=61, velocity=75, time=188),
    Message('note_on', channel=0, note=54, velocity=118, time=4),
    Message('note_off', channel=0, note=54, velocity=75, time=92),
    Message('note_on', channel=0, note=49, velocity=118, time=4),
    Message('note_off', channel=0, note=49, velocity=75, time=92),
    Message('note_on', channel=0, note=39, velocity=118, time=4),
    Message('note_off', channel=0, note=39, velocity=75, time=92),
    Message('note_on', channel=0, note=41, velocity=118, time=4),
    Message('note_off', channel=0, note=41, velocity=75, time=92),
    Message('note_on', channel=0, note=48, velocity=118, time=4),
    Message('note_off', channel=0, note=48, velocity=75, time=92),
    Message('note_on', channel=0, note=53, velocity=118, time=4),
    Message('note_off', channel=0, note=53, velocity=75, time=92),
    Message('note_on', channel=0, note=60, velocity=118, time=4),
    Message('note_off', channel=0, note=60, velocity=75, time=284),
    Message('note_on', channel=0, note=39, velocity=118, time=100),
    Message('note_off', channel=0, note=39, velocity=75, time=92),
    Message('note_on', channel=0, note=40, velocity=118, time=4),
    Message('note_off', channel=0, note=40, velocity=75, time=92),
    Message('note_on', channel=0, note=47, velocity=118, time=4),
    Message('note_off', channel=0, note=47, velocity=75, time=92),
    Message('note_on', channel=0, note=52, velocity=118, time=4),
    Message('note_off', channel=0, note=52, velocity=75, time=92),
    Message('note_on', channel=0, note=57, velocity=118, time=4),
    Message('note_off', channel=0, note=57, velocity=75, time=188),
    Message('note_on', channel=0, note=52, velocity=118, time=4),
    Message('note_off', channel=0, note=52, velocity=75, time=92),
    Message('note_on', channel=0, note=47, velocity=118, time=4),
    Message('note_off', channel=0, note=47, velocity=75, time=92),
    Message('note_on', channel=0, note=40, velocity=118, time=4),
    Message('note_off', channel=0, note=40, velocity=75, time=92),
    Message('note_on', channel=0, note=39, velocity=118, time=4),
    Message('note_off', channel=0, note=39, velocity=75, time=92),
    Message('note_on', channel=0, note=49, velocity=118, time=4),
    Message('note_off', channel=0, note=49, velocity=75, time=92),
    Message('note_on', channel=0, note=51, velocity=118, time=4),
    Message('note_off', channel=0, note=51, velocity=75, time=92),
    Message('control_change', channel=0, control=1, value=95, time=0),
    Message('note_on', channel=0, note=58, velocity=118, time=4),
    Message('note_off', channel=0, note=58, velocity=75, time=1148),
    Message('control_change', channel=0, control=64, value=0, time=100),
    Message('control_change', channel=0, control=1, value=0, time=0),
    Message('note_on', channel=0, note=40, velocity=127, time=13056),
    Message('note_off', channel=0, note=40, velocity=75, time=96),
    Message('note_on', channel=0, note=47, velocity=127, time=0),
    Message('note_off', channel=0, note=47, velocity=75, time=96),
    Message('note_on', channel=0, note=52, velocity=127, time=0),
    Message('note_off', channel=0, note=52, velocity=75, time=96),
    Message('note_on', channel=0, note=57, velocity=127, time=0),
    Message('note_off', channel=0, note=57, velocity=75, time=192),
    Message('note_on', channel=0, note=52, velocity=127, time=0),
    Message('note_off', channel=0, note=52, velocity=75, time=96),
    Message('note_on', channel=0, note=47, velocity=127, time=0),
    Message('note_off', channel=0, note=47, velocity=75, time=96),
    Message('note_on', channel=0, note=40, velocity=127, time=0),
    Message('note_off', channel=0, note=40, velocity=75, time=96),
    Message('note_on', channel=0, note=39, velocity=127, time=0),
    Message('note_off', channel=0, note=39, velocity=75, time=96),
    Message('note_on', channel=0, note=49, velocity=127, time=0),
    Message('note_off', channel=0, note=49, velocity=75, time=96),
    Message('note_on', channel=0, note=51, velocity=127, time=0),
    Message('note_off', channel=0, note=51, velocity=75, time=96),
    Message('note_on', channel=0, note=58, velocity=127, time=0),
    Message('note_off', channel=0, note=58, velocity=75, time=192),
    Message('note_on', channel=0, note=51, velocity=127, time=0),
    Message('note_off', channel=0, note=51, velocity=75, time=96),
    Message('note_on', channel=0, note=49, velocity=127, time=0),
    Message('note_off', channel=0, note=49, velocity=75, time=96),
    Message('note_on', channel=0, note=39, velocity=127, time=0),
    Message('note_off', channel=0, note=39, velocity=75, time=96),
    Message('note_on', channel=0, note=43, velocity=127, time=0),
    Message('note_on', channel=0, note=44, velocity=127, time=16),
    Message('note_off', channel=0, note=43, velocity=75, time=48),
    Message('note_on', channel=0, note=51, velocity=127, time=32),
    Message('note_off', channel=0, note=44, velocity=75, time=16),
    Message('note_off', channel=0, note=51, velocity=75, time=80),
    Message('note_on', channel=0, note=56, velocity=127, time=0),
    Message('note_off', channel=0, note=56, velocity=75, time=96),
    Message('note_on', channel=0, note=44, velocity=127, time=0),
    Message('note_off', channel=0, note=44, velocity=75, time=96),
    Message('note_on', channel=0, note=43, velocity=127, time=0),
    Message('note_off', channel=0, note=43, velocity=75, time=96),
    Message('note_on', channel=0, note=51, velocity=127, time=0),
    Message('note_off', channel=0, note=51, velocity=75, time=96),
    Message('note_on', channel=0, note=56, velocity=127, time=0),
    Message('note_off', channel=0, note=56, velocity=75, time=96),
    Message('note_on', channel=0, note=43, velocity=127, time=0),
    Message('note_off', channel=0, note=43, velocity=75, time=96),
    Message('note_on', channel=0, note=47, velocity=127, time=0),
    Message('note_off', channel=0, note=47, velocity=75, time=96),
    Message('note_on', channel=0, note=54, velocity=127, time=0),
    Message('note_off', channel=0, note=54, velocity=75, time=96),
    Message('note_on', channel=0, note=59, velocity=127, time=0),
    Message('note_off', channel=0, note=59, velocity=75, time=96),
    Message('note_on', channel=0, note=63, velocity=127, time=0),
    Message('note_off', channel=0, note=63, velocity=75, time=192),
    Message('note_on', channel=0, note=59, velocity=127, time=0),
    Message('note_off', channel=0, note=59, velocity=75, time=96),
    Message('note_on', channel=0, note=54, velocity=127, time=0),
    Message('note_off', channel=0, note=54, velocity=75, time=96),
    Message('note_on', channel=0, note=47, velocity=127, time=0),
    Message('note_off', channel=0, note=47, velocity=75, time=96),
    Message('note_on', channel=0, note=40, velocity=127, time=0),
    Message('note_off', channel=0, note=40, velocity=75, time=96),
    Message('note_on', channel=0, note=47, velocity=127, time=0),
    Message('note_off', channel=0, note=47, velocity=75, time=96),
    Message('note_on', channel=0, note=52, velocity=127, time=0),
    Message('note_off', channel=0, note=52, velocity=75, time=96),
    Message('note_on', channel=0, note=57, velocity=127, time=0),
    Message('note_off', channel=0, note=57, velocity=75, time=192),
    Message('note_on', channel=0, note=52, velocity=127, time=0),
    Message('note_off', channel=0, note=52, velocity=75, time=96),
    Message('note_on', channel=0, note=47, velocity=127, time=0),
    Message('note_off', channel=0, note=47, velocity=75, time=96),
    Message('note_on', channel=0, note=40, velocity=127, time=0),
    Message('note_off', channel=0, note=40, velocity=75, time=96),
    Message('note_on', channel=0, note=39, velocity=127, time=0),
    Message('note_off', channel=0, note=39, velocity=75, time=96),
    Message('note_on', channel=0, note=49, velocity=127, time=0),
    Message('note_off', channel=0, note=49, velocity=75, time=96),
    Message('note_on', channel=0, note=51, velocity=127, time=0),
    Message('note_off', channel=0, note=51, velocity=75, time=96),
    Message('note_on', channel=0, note=58, velocity=127, time=0),
    Message('note_off', channel=0, note=58, velocity=75, time=192),
    Message('note_on', channel=0, note=51, velocity=127, time=0),
    Message('note_off', channel=0, note=51, velocity=75, time=96),
    Message('note_on', channel=0, note=49, velocity=127, time=0),
    Message('note_off', channel=0, note=49, velocity=75, time=96),
    Message('note_on', channel=0, note=39, velocity=127, time=0),
    Message('note_off', channel=0, note=39, velocity=75, time=96),
    Message('note_on', channel=0, note=65, velocity=127, time=0),
    Message('note_on', channel=0, note=61, velocity=127, time=0),
    Message('note_on', channel=0, note=56, velocity=127, time=0),
    Message('note_on', channel=0, note=49, velocity=127, time=0),
    Message('note_on', channel=0, note=65, velocity=127, time=288),
    Message('note_off', channel=0, note=65, velocity=75, time=20),
    Message('note_on', channel=0, note=66, velocity=127, time=0),
    Message('note_on', channel=0, note=65, velocity=127, time=76),
    Message('note_off', channel=0, note=66, velocity=75, time=4),
    Message('note_off', channel=0, note=65, velocity=75, time=92),
    Message('note_on', channel=0, note=56, velocity=127, time=0),
    Message('note_off', channel=0, note=56, velocity=75, time=96),
    Message('note_on', channel=0, note=61, velocity=127, time=0),
    Message('note_off', channel=0, note=61, velocity=75, time=192),
    Message('note_off', channel=0, note=49, velocity=75, time=0),
    Message('note_off', channel=0, note=65, velocity=75, time=0),
    Message('note_off', channel=0, note=56, velocity=75, time=0),
    Message('note_off', channel=0, note=61, velocity=75, time=0),
    Message('note_on', channel=0, note=67, velocity=127, time=0),
    Message('note_on', channel=0, note=63, velocity=127, time=0),
    Message('note_on', channel=0, note=58, velocity=127, time=0),
    Message('note_on', channel=0, note=51, velocity=127, time=0),
    Message('note_off', channel=0, note=67, velocity=75, time=1028),
    Message('note_off', channel=0, note=63, velocity=75, time=0),
    Message('note_off', channel=0, note=58, velocity=75, time=0),
    Message('note_off', channel=0, note=51, velocity=75, time=0),
    Message('note_on', channel=0, note=40, velocity=127, time=13564),
    Message('note_off', channel=0, note=40, velocity=75, time=96),
    Message('note_on', channel=0, note=47, velocity=127, time=0),
    Message('note_off', channel=0, note=47, velocity=75, time=96),
    Message('note_on', channel=0, note=52, velocity=127, time=0),
    Message('note_off', channel=0, note=52, velocity=75, time=96),
    Message('note_on', channel=0, note=57, velocity=127, time=0),
    Message('note_off', channel=0, note=57, velocity=75, time=192),
    Message('note_on', channel=0, note=52, velocity=127, time=0),
    Message('note_off', channel=0, note=52, velocity=75, time=96),
    Message('note_on', channel=0, note=47, velocity=127, time=0),
    Message('note_off', channel=0, note=47, velocity=75, time=96),
    Message('note_on', channel=0, note=40, velocity=127, time=0),
    Message('note_off', channel=0, note=40, velocity=75, time=96),
    Message('note_on', channel=0, note=39, velocity=127, time=0),
    Message('note_off', channel=0, note=39, velocity=75, time=96),
    Message('note_on', channel=0, note=49, velocity=127, time=0),
    Message('note_off', channel=0, note=49, velocity=75, time=96),
    Message('note_on', channel=0, note=51, velocity=127, time=0),
    Message('note_off', channel=0, note=51, velocity=75, time=96),
    Message('note_on', channel=0, note=58, velocity=127, time=0),
    Message('note_off', channel=0, note=58, velocity=75, time=192),
    Message('note_on', channel=0, note=51, velocity=127, time=0),
    Message('note_off', channel=0, note=51, velocity=75, time=96),
    Message('note_on', channel=0, note=49, velocity=127, time=0),
    Message('note_off', channel=0, note=49, velocity=75, time=96),
    Message('note_on', channel=0, note=39, velocity=127, time=0),
    Message('note_off', channel=0, note=39, velocity=75, time=96),
    Message('note_on', channel=0, note=43, velocity=127, time=0),
    Message('note_on', channel=0, note=44, velocity=127, time=16),
    Message('note_off', channel=0, note=43, velocity=75, time=48),
    Message('note_on', channel=0, note=51, velocity=127, time=32),
    Message('note_off', channel=0, note=44, velocity=75, time=16),
    Message('note_off', channel=0, note=51, velocity=75, time=80),
    Message('note_on', channel=0, note=56, velocity=127, time=0),
    Message('note_off', channel=0, note=56, velocity=75, time=96),
    Message('note_on', channel=0, note=44, velocity=127, time=0),
    Message('note_off', channel=0, note=44, velocity=75, time=96),
    Message('note_on', channel=0, note=43, velocity=127, time=0),
    Message('note_off', channel=0, note=43, velocity=75, time=96),
    Message('note_on', channel=0, note=51, velocity=127, time=0),
    Message('note_off', channel=0, note=51, velocity=75, time=96),
    Message('note_on', channel=0, note=56, velocity=127, time=0),
    Message('note_off', channel=0, note=56, velocity=75, time=96),
    Message('note_on', channel=0, note=43, velocity=127, time=0),
    Message('note_off', channel=0, note=43, velocity=75, time=96),
    Message('note_on', channel=0, note=47, velocity=127, time=0),
    Message('note_off', channel=0, note=47, velocity=75, time=96),
    Message('note_on', channel=0, note=54, velocity=127, time=0),
    Message('note_off', channel=0, note=54, velocity=75, time=96),
    Message('note_on', channel=0, note=59, velocity=127, time=0),
    Message('note_off', channel=0, note=59, velocity=75, time=96),
    Message('note_on', channel=0, note=63, velocity=127, time=0),
    Message('note_off', channel=0, note=63, velocity=75, time=192),
    Message('note_on', channel=0, note=59, velocity=127, time=0),
    Message('note_off', channel=0, note=59, velocity=75, time=96),
    Message('note_on', channel=0, note=54, velocity=127, time=0),
    Message('note_off', channel=0, note=54, velocity=75, time=96),
    Message('note_on', channel=0, note=47, velocity=127, time=0),
    Message('note_off', channel=0, note=47, velocity=75, time=96),
    Message('note_on', channel=0, note=40, velocity=127, time=0),
    Message('note_off', channel=0, note=40, velocity=75, time=96),
    Message('note_on', channel=0, note=47, velocity=127, time=0),
    Message('note_off', channel=0, note=47, velocity=75, time=96),
    Message('note_on', channel=0, note=52, velocity=127, time=0),
    Message('note_off', channel=0, note=52, velocity=75, time=96),
    Message('note_on', channel=0, note=57, velocity=127, time=0),
    Message('note_off', channel=0, note=57, velocity=75, time=192),
    Message('note_on', channel=0, note=52, velocity=127, time=0),
    Message('note_off', channel=0, note=52, velocity=75, time=96),
    Message('note_on', channel=0, note=47, velocity=127, time=0),
    Message('note_off', channel=0, note=47, velocity=75, time=96),
    Message('note_on', channel=0, note=40, velocity=127, time=0),
    Message('note_off', channel=0, note=40, velocity=75, time=96),
    Message('note_on', channel=0, note=39, velocity=127, time=0),
    Message('note_off', channel=0, note=39, velocity=75, time=96),
    Message('note_on', channel=0, note=49, velocity=127, time=0),
    Message('note_off', channel=0, note=49, velocity=75, time=96),
    Message('note_on', channel=0, note=51, velocity=127, time=0),
    Message('note_off', channel=0, note=51, velocity=75, time=96),
    Message('note_on', channel=0, note=58, velocity=127, time=0),
    Message('note_off', channel=0, note=58, velocity=75, time=192),
    Message('note_on', channel=0, note=51, velocity=127, time=0),
    Message('note_off', channel=0, note=51, velocity=75, time=96),
    Message('note_on', channel=0, note=49, velocity=127, time=0),
    Message('note_off', channel=0, note=49, velocity=75, time=96),
    Message('note_on', channel=0, note=39, velocity=127, time=0),
    Message('note_off', channel=0, note=39, velocity=75, time=96),
    Message('note_on', channel=0, note=65, velocity=127, time=0),
    Message('note_on', channel=0, note=61, velocity=127, time=0),
    Message('note_on', channel=0, note=56, velocity=127, time=0),
    Message('note_on', channel=0, note=49, velocity=127, time=0),
    Message('note_on', channel=0, note=65, velocity=127, time=288),
    Message('note_on', channel=0, note=66, velocity=127, time=20),
    Message('note_off', channel=0, note=65, velocity=75, time=12),
    Message('note_on', channel=0, note=65, velocity=127, time=64),
    Message('note_off', channel=0, note=66, velocity=75, time=4),
    Message('note_off', channel=0, note=65, velocity=75, time=60),
    Message('note_on', channel=0, note=61, velocity=127, time=32),
    Message('note_off', channel=0, note=65, velocity=75, time=32),
    Message('note_off', channel=0, note=61, velocity=75, time=32),
    Message('note_on', channel=0, note=56, velocity=127, time=32),
    Message('note_off', channel=0, note=61, velocity=75, time=32),
    Message('note_off', channel=0, note=56, velocity=75, time=32),
    Message('note_on', channel=0, note=61, velocity=127, time=32),
    Message('note_off', channel=0, note=56, velocity=75, time=32),
    Message('note_off', channel=0, note=49, velocity=75, time=64),
    Message('note_off', channel=0, note=61, velocity=75, time=0),
    Message('note_on', channel=0, note=47, velocity=127, time=0),
    Message('note_on', channel=0, note=54, velocity=127, time=96),
    Message('note_off', channel=0, note=47, velocity=75, time=32),
    Message('note_on', channel=0, note=59, velocity=127, time=64),
    Message('note_off', channel=0, note=54, velocity=75, time=32),
    Message('note_on', channel=0, note=63, velocity=127, time=64),
    Message('note_off', channel=0, note=59, velocity=75, time=32),
    Message('note_off', channel=0, note=63, velocity=75, time=160),
    Message('note_on', channel=0, note=59, velocity=127, time=0),
    Message('note_on', channel=0, note=54, velocity=127, time=96),
    Message('note_off', channel=0, note=59, velocity=75, time=32),
    Message('note_on', channel=0, note=59, velocity=127, time=64),
    Message('note_off', channel=0, note=54, velocity=75, time=32),
    Message('note_on', channel=0, note=40, velocity=127, time=64),
    Message('note_off', channel=0, note=59, velocity=75, time=32),
    Message('note_off', channel=0, note=40, velocity=75, time=64),
    Message('note_on', channel=0, note=47, velocity=127, time=0),
    Message('note_off', channel=0, note=47, velocity=75, time=96),
    Message('note_on', channel=0, note=52, velocity=127, time=0),
    Message('note_off', channel=0, note=52, velocity=75, time=96),
    Message('note_on', channel=0, note=57, velocity=127, time=0),
    Message('note_off', channel=0, note=57, velocity=75, time=192),
    Message('note_on', channel=0, note=52, velocity=127, time=0),
    Message('note_off', channel=0, note=52, velocity=75, time=96),
    Message('note_on', channel=0, note=47, velocity=127, time=0),
    Message('note_off', channel=0, note=47, velocity=75, time=96),
    Message('note_on', channel=0, note=40, velocity=127, time=0),
    Message('note_off', channel=0, note=40, velocity=75, time=96),
    Message('note_on', channel=0, note=39, velocity=127, time=0),
    Message('note_off', channel=0, note=39, velocity=75, time=96),
    Message('note_on', channel=0, note=49, velocity=127, time=0),
    Message('note_off', channel=0, note=49, velocity=75, time=96),
    Message('note_on', channel=0, note=51, velocity=127, time=0),
    Message('note_off', channel=0, note=51, velocity=75, time=96),
    Message('note_on', channel=0, note=58, velocity=127, time=0),
    Message('note_off', channel=0, note=58, velocity=75, time=192),
    Message('note_on', channel=0, note=51, velocity=127, time=0),
    Message('note_off', channel=0, note=51, velocity=75, time=96),
    Message('note_on', channel=0, note=49, velocity=127, time=0),
    Message('note_off', channel=0, note=49, velocity=75, time=96),
    Message('note_on', channel=0, note=39, velocity=127, time=0),
    Message('note_off', channel=0, note=39, velocity=75, time=96),
    Message('note_on', channel=0, note=43, velocity=127, time=0),
    Message('note_on', channel=0, note=44, velocity=127, time=16),
    Message('note_off', channel=0, note=43, velocity=75, time=48),
    Message('note_on', channel=0, note=51, velocity=127, time=32),
    Message('note_off', channel=0, note=44, velocity=75, time=16),
    Message('note_off', channel=0, note=51, velocity=75, time=80),
    Message('note_on', channel=0, note=56, velocity=127, time=0),
    Message('note_off', channel=0, note=56, velocity=75, time=96),
    Message('note_on', channel=0, note=44, velocity=127, time=0),
    Message('note_off', channel=0, note=44, velocity=75, time=96),
    Message('note_on', channel=0, note=43, velocity=127, time=0),
    Message('note_off', channel=0, note=43, velocity=75, time=96),
    Message('note_on', channel=0, note=51, velocity=127, time=0),
    Message('note_off', channel=0, note=51, velocity=75, time=96),
    Message('note_on', channel=0, note=56, velocity=127, time=0),
    Message('note_off', channel=0, note=56, velocity=75, time=96),
    Message('note_on', channel=0, note=43, velocity=127, time=0),
    Message('note_off', channel=0, note=43, velocity=75, time=96),
    Message('note_on', channel=0, note=47, velocity=127, time=0),
    Message('note_off', channel=0, note=47, velocity=75, time=96),
    Message('note_on', channel=0, note=54, velocity=127, time=0),
    Message('note_off', channel=0, note=54, velocity=75, time=96),
    Message('note_on', channel=0, note=59, velocity=127, time=0),
    Message('note_off', channel=0, note=59, velocity=75, time=96),
    Message('note_on', channel=0, note=63, velocity=127, time=0),
    Message('note_off', channel=0, note=63, velocity=75, time=192),
    Message('note_on', channel=0, note=59, velocity=127, time=0),
    Message('note_off', channel=0, note=59, velocity=75, time=96),
    Message('note_on', channel=0, note=54, velocity=127, time=0),
    Message('note_off', channel=0, note=54, velocity=75, time=96),
    Message('note_on', channel=0, note=47, velocity=127, time=0),
    Message('note_off', channel=0, note=47, velocity=75, time=96),
    Message('note_on', channel=0, note=40, velocity=127, time=0),
    Message('note_off', channel=0, note=40, velocity=75, time=96),
    Message('note_on', channel=0, note=47, velocity=127, time=0),
    Message('note_off', channel=0, note=47, velocity=75, time=96),
    Message('note_on', channel=0, note=52, velocity=127, time=0),
    Message('note_off', channel=0, note=52, velocity=75, time=96),
    Message('note_on', channel=0, note=57, velocity=127, time=0),
    Message('note_off', channel=0, note=57, velocity=75, time=192),
    Message('note_on', channel=0, note=52, velocity=127, time=0),
    Message('note_off', channel=0, note=52, velocity=75, time=96),
    Message('note_on', channel=0, note=47, velocity=127, time=0),
    Message('note_off', channel=0, note=47, velocity=75, time=96),
    Message('note_on', channel=0, note=40, velocity=127, time=0),
    Message('note_off', channel=0, note=40, velocity=75, time=96),
    Message('note_on', channel=0, note=39, velocity=127, time=0),
    Message('note_off', channel=0, note=39, velocity=75, time=96),
    Message('note_on', channel=0, note=49, velocity=127, time=0),
    Message('note_off', channel=0, note=49, velocity=75, time=96),
    Message('note_on', channel=0, note=51, velocity=127, time=0),
    Message('note_off', channel=0, note=51, velocity=75, time=96),
    Message('note_on', channel=0, note=58, velocity=127, time=0),
    Message('note_off', channel=0, note=58, velocity=75, time=192),
    Message('note_on', channel=0, note=51, velocity=127, time=0),
    Message('note_off', channel=0, note=51, velocity=75, time=96),
    Message('note_on', channel=0, note=49, velocity=127, time=0),
    Message('note_off', channel=0, note=49, velocity=75, time=96),
    Message('note_on', channel=0, note=39, velocity=127, time=0),
    Message('note_off', channel=0, note=39, velocity=75, time=96),
    Message('note_on', channel=0, note=65, velocity=127, time=0),
    Message('note_on', channel=0, note=61, velocity=127, time=0),
    Message('note_on', channel=0, note=56, velocity=127, time=0),
    Message('note_on', channel=0, note=49, velocity=127, time=0),
    Message('note_on', channel=0, note=65, velocity=127, time=288),
    Message('note_on', channel=0, note=66, velocity=127, time=20),
    Message('note_off', channel=0, note=65, velocity=75, time=12),
    Message('note_on', channel=0, note=65, velocity=127, time=64),
    Message('note_off', channel=0, note=66, velocity=75, time=4),
    Message('note_off', channel=0, note=65, velocity=75, time=60),
    Message('note_on', channel=0, note=61, velocity=127, time=32),
    Message('note_off', channel=0, note=61, velocity=75, time=64),
    Message('note_on', channel=0, note=56, velocity=127, time=32),
    Message('note_off', channel=0, note=56, velocity=75, time=128),
    Message('note_off', channel=0, note=49, velocity=75, time=64),
    Message('note_off', channel=0, note=65, velocity=75, time=0),
    Message('note_off', channel=0, note=61, velocity=75, time=0),
    Message('note_off', channel=0, note=56, velocity=75, time=0),
    Message('note_on', channel=0, note=63, velocity=127, time=0),
    Message('note_on', channel=0, note=59, velocity=127, time=0),
    Message('note_on', channel=0, note=54, velocity=127, time=0),
    Message('note_on', channel=0, note=47, velocity=127, time=0),
    Message('note_on', channel=0, note=63, velocity=127, time=288),
    Message('note_on', channel=0, note=64, velocity=127, time=20),
    Message('note_off', channel=0, note=63, velocity=75, time=12),
    Message('note_on', channel=0, note=63, velocity=127, time=64),
    Message('note_off', channel=0, note=64, velocity=75, time=4),
    Message('note_off', channel=0, note=63, velocity=75, time=60),
    Message('note_on', channel=0, note=59, velocity=127, time=32),
    Message('note_off', channel=0, note=59, velocity=75, time=64),
    Message('note_on', channel=0, note=54, velocity=127, time=32),
    Message('note_off', channel=0, note=54, velocity=75, time=64),
    Message('note_on', channel=0, note=59, velocity=127, time=32),
    Message('note_off', channel=0, note=59, velocity=75, time=64),
    Message('note_off', channel=0, note=47, velocity=75, time=32),
    Message('note_off', channel=0, note=63, velocity=75, time=0),
    Message('note_off', channel=0, note=54, velocity=75, time=0),
    Message('note_off', channel=0, note=59, velocity=75, time=0),
    Message('note_on', channel=0, note=67, velocity=127, time=0),
    Message('note_on', channel=0, note=63, velocity=127, time=0),
    Message('note_on', channel=0, note=58, velocity=127, time=0),
    Message('note_on', channel=0, note=51, velocity=127, time=0),
    Message('note_on', channel=0, note=67, velocity=127, time=288),
    Message('note_on', channel=0, note=68, velocity=127, time=20),
    Message('note_off', channel=0, note=67, velocity=75, time=12),
    Message('note_on', channel=0, note=67, velocity=127, time=64),
    Message('note_off', channel=0, note=68, velocity=75, time=4),
    Message('note_off', channel=0, note=67, velocity=75, time=60),
    Message('note_on', channel=0, note=63, velocity=127, time=32),
    Message('note_off', channel=0, note=63, velocity=75, time=64),
    Message('note_on', channel=0, note=58, velocity=127, time=32),
    Message('note_off', channel=0, note=58, velocity=75, time=64),
    Message('note_on', channel=0, note=63, velocity=127, time=32),
    Message('note_off', channel=0, note=63, velocity=75, time=64),
    Message('note_off', channel=0, note=51, velocity=75, time=32),
    Message('note_off', channel=0, note=67, velocity=75, time=0),
    Message('note_off', channel=0, note=58, velocity=75, time=0),
    Message('note_off', channel=0, note=63, velocity=75, time=0),
    Message('note_on', channel=0, note=65, velocity=127, time=0),
    Message('note_on', channel=0, note=61, velocity=127, time=0),
    Message('note_on', channel=0, note=56, velocity=127, time=0),
    Message('note_on', channel=0, note=49, velocity=127, time=0),
    Message('note_on', channel=0, note=65, velocity=127, time=288),
    Message('note_on', channel=0, note=66, velocity=127, time=20),
    Message('note_off', channel=0, note=65, velocity=75, time=12),
    Message('note_on', channel=0, note=65, velocity=127, time=64),
    Message('note_off', channel=0, note=66, velocity=75, time=4),
    Message('note_off', channel=0, note=65, velocity=75, time=60),
    Message('note_on', channel=0, note=61, velocity=127, time=32),
    Message('note_off', channel=0, note=61, velocity=75, time=64),
    Message('note_on', channel=0, note=56, velocity=127, time=32),
    Message('note_off', channel=0, note=56, velocity=75, time=128),
    Message('note_off', channel=0, note=49, velocity=75, time=64),
    Message('note_off', channel=0, note=65, velocity=75, time=0),
    Message('note_off', channel=0, note=61, velocity=75, time=0),
    Message('note_off', channel=0, note=56, velocity=75, time=0),
    Message('note_on', channel=0, note=63, velocity=127, time=0),
    Message('note_on', channel=0, note=59, velocity=127, time=0),
    Message('note_on', channel=0, note=54, velocity=127, time=0),
    Message('note_on', channel=0, note=47, velocity=127, time=0),
    Message('note_on', channel=0, note=63, velocity=127, time=288),
    Message('note_on', channel=0, note=64, velocity=127, time=20),
    Message('note_off', channel=0, note=63, velocity=75, time=12),
    Message('note_on', channel=0, note=63, velocity=127, time=64),
    Message('note_off', channel=0, note=64, velocity=75, time=4),
    Message('note_off', channel=0, note=63, velocity=75, time=60),
    Message('note_on', channel=0, note=59, velocity=127, time=32),
    Message('note_off', channel=0, note=59, velocity=75, time=64),
    Message('note_on', channel=0, note=54, velocity=127, time=32),
    Message('note_off', channel=0, note=54, velocity=75, time=64),
    Message('note_on', channel=0, note=59, velocity=127, time=32),
    Message('note_off', channel=0, note=59, velocity=75, time=64),
    Message('note_off', channel=0, note=47, velocity=75, time=32),
    Message('note_off', channel=0, note=63, velocity=75, time=0),
    Message('note_off', channel=0, note=54, velocity=75, time=0),
    Message('note_off', channel=0, note=59, velocity=75, time=0),
    Message('note_on', channel=0, note=67, velocity=127, time=0),
    Message('note_on', channel=0, note=63, velocity=127, time=0),
    Message('note_on', channel=0, note=58, velocity=127, time=0),
    Message('note_on', channel=0, note=51, velocity=127, time=0),
    Message('note_on', channel=0, note=67, velocity=127, time=288),
    Message('note_on', channel=0, note=63, velocity=127, time=0),
    Message('note_on', channel=0, note=58, velocity=127, time=0),
    Message('note_on', channel=0, note=51, velocity=127, time=0),
    Message('note_off', channel=0, note=67, velocity=75, time=96),
    Message('note_off', channel=0, note=63, velocity=75, time=0),
    Message('note_off', channel=0, note=58, velocity=75, time=0),
    Message('note_off', channel=0, note=51, velocity=75, time=0),
    Message('note_on', channel=0, note=67, velocity=127, time=0),
    Message('note_on', channel=0, note=63, velocity=127, time=0),
    Message('note_on', channel=0, note=58, velocity=127, time=0),
    Message('note_on', channel=0, note=51, velocity=127, time=0),
    Message('note_off', channel=0, note=67, velocity=75, time=192),
    Message('note_off', channel=0, note=63, velocity=75, time=0),
    Message('note_off', channel=0, note=58, velocity=75, time=0),
    Message('note_off', channel=0, note=51, velocity=75, time=0),
    Message('note_on', channel=0, note=67, velocity=127, time=0),
    Message('note_on', channel=0, note=63, velocity=127, time=0),
    Message('note_on', channel=0, note=58, velocity=127, time=0),
    Message('note_on', channel=0, note=51, velocity=127, time=0),
    Message('note_off', channel=0, note=67, velocity=75, time=192),
    Message('note_off', channel=0, note=63, velocity=75, time=0),
    Message('note_off', channel=0, note=58, velocity=75, time=0),
    Message('note_off', channel=0, note=51, velocity=75, time=0),
    Message('note_off', channel=0, note=67, velocity=75, time=0),
    Message('note_off', channel=0, note=63, velocity=75, time=0),
    Message('note_off', channel=0, note=58, velocity=75, time=0),
    Message('note_off', channel=0, note=51, velocity=75, time=0),
    Message('note_on', channel=0, note=65, velocity=127, time=0),
    Message('note_on', channel=0, note=61, velocity=127, time=0),
    Message('note_on', channel=0, note=56, velocity=127, time=0),
    Message('note_on', channel=0, note=49, velocity=127, time=0),
    Message('note_on', channel=0, note=65, velocity=127, time=288),
    Message('note_on', channel=0, note=66, velocity=127, time=20),
    Message('note_off', channel=0, note=65, velocity=75, time=12),
    Message('note_on', channel=0, note=65, velocity=127, time=64),
    Message('note_off', channel=0, note=66, velocity=75, time=4),
    Message('note_off', channel=0, note=65, velocity=75, time=60),
    Message('note_on', channel=0, note=61, velocity=127, time=32),
    Message('note_off', channel=0, note=61, velocity=75, time=64),
    Message('note_on', channel=0, note=56, velocity=127, time=32),
    Message('note_off', channel=0, note=56, velocity=75, time=128),
    Message('note_off', channel=0, note=49, velocity=75, time=64),
    Message('note_off', channel=0, note=65, velocity=75, time=0),
    Message('note_off', channel=0, note=61, velocity=75, time=0),
    Message('note_off', channel=0, note=56, velocity=75, time=0),
    Message('note_on', channel=0, note=63, velocity=127, time=0),
    Message('note_on', channel=0, note=59, velocity=127, time=0),
    Message('note_on', channel=0, note=54, velocity=127, time=0),
    Message('note_on', channel=0, note=47, velocity=127, time=0),
    Message('note_on', channel=0, note=63, velocity=127, time=288),
    Message('note_on', channel=0, note=64, velocity=127, time=20),
    Message('note_off', channel=0, note=63, velocity=75, time=12),
    Message('note_on', channel=0, note=63, velocity=127, time=64),
    Message('note_off', channel=0, note=64, velocity=75, time=4),
    Message('note_off', channel=0, note=63, velocity=75, time=60),
    Message('note_on', channel=0, note=59, velocity=127, time=32),
    Message('note_off', channel=0, note=59, velocity=75, time=64),
    Message('note_on', channel=0, note=54, velocity=127, time=32),
    Message('note_off', channel=0, note=54, velocity=75, time=64),
    Message('note_on', channel=0, note=59, velocity=127, time=32),
    Message('note_off', channel=0, note=59, velocity=75, time=64),
    Message('note_off', channel=0, note=47, velocity=75, time=32),
    Message('note_off', channel=0, note=63, velocity=75, time=0),
    Message('note_off', channel=0, note=54, velocity=75, time=0),
    Message('note_off', channel=0, note=59, velocity=75, time=0),
    Message('note_on', channel=0, note=67, velocity=127, time=0),
    Message('note_on', channel=0, note=63, velocity=127, time=0),
    Message('note_on', channel=0, note=58, velocity=127, time=0),
    Message('note_on', channel=0, note=51, velocity=127, time=0),
    Message('note_on', channel=0, note=67, velocity=127, time=288),
    Message('note_on', channel=0, note=68, velocity=127, time=20),
    Message('note_off', channel=0, note=67, velocity=75, time=12),
    Message('note_on', channel=0, note=67, velocity=127, time=64),
    Message('note_off', channel=0, note=68, velocity=75, time=4),
    Message('note_off', channel=0, note=67, velocity=75, time=60),
    Message('note_on', channel=0, note=63, velocity=127, time=32),
    Message('note_off', channel=0, note=63, velocity=75, time=64),
    Message('note_on', channel=0, note=58, velocity=127, time=32),
    Message('note_off', channel=0, note=58, velocity=75, time=64),
    Message('note_on', channel=0, note=63, velocity=127, time=32),
    Message('note_off', channel=0, note=63, velocity=75, time=64),
    Message('note_off', channel=0, note=51, velocity=75, time=32),
    Message('note_off', channel=0, note=67, velocity=75, time=0),
    Message('note_off', channel=0, note=58, velocity=75, time=0),
    Message('note_off', channel=0, note=63, velocity=75, time=0),
    Message('note_on', channel=0, note=65, velocity=127, time=0),
    Message('note_on', channel=0, note=61, velocity=127, time=0),
    Message('note_on', channel=0, note=56, velocity=127, time=0),
    Message('note_on', channel=0, note=49, velocity=127, time=0),
    Message('note_on', channel=0, note=65, velocity=127, time=288),
    Message('note_on', channel=0, note=66, velocity=127, time=20),
    Message('note_off', channel=0, note=65, velocity=75, time=12),
    Message('note_on', channel=0, note=65, velocity=127, time=64),
    Message('note_off', channel=0, note=66, velocity=75, time=4),
    Message('note_off', channel=0, note=65, velocity=75, time=60),
    Message('note_on', channel=0, note=61, velocity=127, time=32),
    Message('note_off', channel=0, note=61, velocity=75, time=64),
    Message('note_on', channel=0, note=56, velocity=127, time=32),
    Message('note_off', channel=0, note=56, velocity=75, time=128),
    Message('note_off', channel=0, note=49, velocity=75, time=64),
    Message('note_off', channel=0, note=65, velocity=75, time=0),
    Message('note_off', channel=0, note=61, velocity=75, time=0),
    Message('note_off', channel=0, note=56, velocity=75, time=0),
    Message('note_on', channel=0, note=63, velocity=127, time=0),
    Message('note_on', channel=0, note=59, velocity=127, time=0),
    Message('note_on', channel=0, note=54, velocity=127, time=0),
    Message('note_on', channel=0, note=47, velocity=127, time=0),
    Message('note_on', channel=0, note=63, velocity=127, time=288),
    Message('note_on', channel=0, note=64, velocity=127, time=20),
    Message('note_off', channel=0, note=63, velocity=75, time=12),
    Message('note_on', channel=0, note=63, velocity=127, time=64),
    Message('note_off', channel=0, note=64, velocity=75, time=4),
    Message('note_off', channel=0, note=63, velocity=75, time=60),
    Message('note_on', channel=0, note=59, velocity=127, time=32),
    Message('note_off', channel=0, note=59, velocity=75, time=64),
    Message('note_on', channel=0, note=54, velocity=127, time=32),
    Message('note_off', channel=0, note=54, velocity=75, time=64),
    Message('note_on', channel=0, note=59, velocity=127, time=32),
    Message('note_off', channel=0, note=59, velocity=75, time=64),
    Message('note_off', channel=0, note=47, velocity=75, time=32),
    Message('note_off', channel=0, note=63, velocity=75, time=0),
    Message('note_off', channel=0, note=54, velocity=75, time=0),
    Message('note_off', channel=0, note=59, velocity=75, time=0),
    Message('note_on', channel=0, note=67, velocity=127, time=0),
    Message('note_on', channel=0, note=63, velocity=127, time=0),
    Message('note_on', channel=0, note=58, velocity=127, time=0),
    Message('note_on', channel=0, note=51, velocity=127, time=0),
    Message('note_on', channel=0, note=67, velocity=127, time=288),
    Message('note_on', channel=0, note=63, velocity=127, time=0),
    Message('note_on', channel=0, note=58, velocity=127, time=0),
    Message('note_on', channel=0, note=51, velocity=127, time=0),
    Message('note_off', channel=0, note=67, velocity=75, time=96),
    Message('note_off', channel=0, note=63, velocity=75, time=0),
    Message('note_off', channel=0, note=58, velocity=75, time=0),
    Message('note_off', channel=0, note=51, velocity=75, time=0),
    Message('note_on', channel=0, note=67, velocity=127, time=0),
    Message('note_on', channel=0, note=63, velocity=127, time=0),
    Message('note_on', channel=0, note=58, velocity=127, time=0),
    Message('note_on', channel=0, note=51, velocity=127, time=0),
    Message('note_off', channel=0, note=67, velocity=75, time=192),
    Message('note_off', channel=0, note=63, velocity=75, time=0),
    Message('note_off', channel=0, note=58, velocity=75, time=0),
    Message('note_off', channel=0, note=51, velocity=75, time=0),
    Message('note_on', channel=0, note=67, velocity=127, time=0),
    Message('note_on', channel=0, note=63, velocity=127, time=0),
    Message('note_on', channel=0, note=58, velocity=127, time=0),
    Message('note_on', channel=0, note=51, velocity=127, time=0),
    Message('note_off', channel=0, note=67, velocity=75, time=192),
    Message('note_off', channel=0, note=63, velocity=75, time=0),
    Message('note_off', channel=0, note=58, velocity=75, time=0),
    Message('note_off', channel=0, note=51, velocity=75, time=0),
    Message('note_off', channel=0, note=67, velocity=75, time=0),
    Message('note_off', channel=0, note=63, velocity=75, time=0),
    Message('note_off', channel=0, note=58, velocity=75, time=0),
    Message('note_off', channel=0, note=51, velocity=75, time=0),
    Message('note_on', channel=0, note=49, velocity=127, time=0),
    Message('note_off', channel=0, note=49, velocity=75, time=96),
    Message('note_on', channel=0, note=48, velocity=127, time=0),
    Message('note_off', channel=0, note=48, velocity=75, time=192),
    Message('note_on', channel=0, note=46, velocity=127, time=0),
    Message('note_off', channel=0, note=46, velocity=75, time=192),
    Message('note_on', channel=0, note=48, velocity=127, time=0),
    Message('note_on', channel=0, note=49, velocity=127, time=10),
    Message('note_off', channel=0, note=48, velocity=75, time=6),
    Message('note_on', channel=0, note=44, velocity=127, time=80),
    Message('note_off', channel=0, note=49, velocity=75, time=10),
    Message('note_off', channel=0, note=44, velocity=75, time=86),
    Message('note_on', channel=0, note=43, velocity=127, time=0),
    Message('note_off', channel=0, note=43, velocity=75, time=192),
    Message('note_on', channel=0, note=42, velocity=127, time=0),
    Message('note_on', channel=0, note=68, velocity=127, time=288),
    Message('note_on', channel=0, note=63, velocity=127, time=0),
    Message('note_on', channel=0, note=60, velocity=127, time=0),
    Message('note_on', channel=0, note=54, velocity=127, time=0),
    Message('note_on', channel=0, note=49, velocity=127, time=0),
    Message('note_on', channel=0, note=42, velocity=127, time=0),
    Message('note_off', channel=0, note=42, velocity=75, time=96),
    Message('note_on', channel=0, note=68, velocity=127, time=192),
    Message('note_on', channel=0, note=63, velocity=127, time=0),
    Message('note_on', channel=0, note=60, velocity=127, time=0),
    Message('note_on', channel=0, note=54, velocity=127, time=0),
    Message('note_on', channel=0, note=49, velocity=127, time=0),
    Message('note_on', channel=0, note=42, velocity=127, time=0),
    Message('note_off', channel=0, note=68, velocity=75, time=96),
    Message('note_off', channel=0, note=63, velocity=75, time=0),
    Message('note_off', channel=0, note=60, velocity=75, time=0),
    Message('note_off', channel=0, note=54, velocity=75, time=0),
    Message('note_off', channel=0, note=49, velocity=75, time=0),
    Message('note_off', channel=0, note=42, velocity=75, time=0),
    Message('note_off', channel=0, note=68, velocity=75, time=0),
    Message('note_off', channel=0, note=63, velocity=75, time=0),
    Message('note_off', channel=0, note=60, velocity=75, time=0),
    Message('note_off', channel=0, note=54, velocity=75, time=0),
    Message('note_off', channel=0, note=49, velocity=75, time=0),
    Message('note_off', channel=0, note=42, velocity=75, time=0),
    Message('note_on', channel=0, note=68, velocity=127, time=0),
    Message('note_on', channel=0, note=63, velocity=127, time=0),
    Message('note_on', channel=0, note=60, velocity=127, time=0),
    Message('note_on', channel=0, note=54, velocity=127, time=0),
    Message('note_on', channel=0, note=49, velocity=127, time=0),
    Message('note_on', channel=0, note=42, velocity=127, time=0),
    Message('note_off', channel=0, note=68, velocity=75, time=192),
    Message('note_off', channel=0, note=63, velocity=75, time=0),
    Message('note_off', channel=0, note=60, velocity=75, time=0),
    Message('note_off', channel=0, note=54, velocity=75, time=0),
    Message('note_off', channel=0, note=49, velocity=75, time=0),
    Message('note_off', channel=0, note=42, velocity=75, time=0),
    Message('note_on', channel=0, note=49, velocity=127, time=0),
    Message('note_off', channel=0, note=49, velocity=75, time=96),
    Message('note_on', channel=0, note=48, velocity=127, time=0),
    Message('note_off', channel=0, note=48, velocity=75, time=192),
    Message('note_on', channel=0, note=46, velocity=127, time=0),
    Message('note_off', channel=0, note=46, velocity=75, time=192),
    Message('note_on', channel=0, note=48, velocity=127, time=0),
    Message('note_on', channel=0, note=49, velocity=127, time=10),
    Message('note_off', channel=0, note=48, velocity=75, time=6),
    Message('note_on', channel=0, note=44, velocity=127, time=80),
    Message('note_off', channel=0, note=49, velocity=75, time=10),
    Message('note_off', channel=0, note=44, velocity=75, time=86),
    Message('note_on', channel=0, note=43, velocity=127, time=0),
    Message('note_off', channel=0, note=43, velocity=75, time=192),
    Message('note_on', channel=0, note=42, velocity=127, time=0),
    Message('note_on', channel=0, note=68, velocity=127, time=288),
    Message('note_on', channel=0, note=63, velocity=127, time=0),
    Message('note_on', channel=0, note=60, velocity=127, time=0),
    Message('note_on', channel=0, note=54, velocity=127, time=0),
    Message('note_on', channel=0, note=49, velocity=127, time=0),
    Message('note_on', channel=0, note=42, velocity=127, time=0),
    Message('note_off', channel=0, note=42, velocity=75, time=96),
    Message('note_on', channel=0, note=68, velocity=127, time=192),
    Message('note_on', channel=0, note=63, velocity=127, time=0),
    Message('note_on', channel=0, note=60, velocity=127, time=0),
    Message('note_on', channel=0, note=54, velocity=127, time=0),
    Message('note_on', channel=0, note=49, velocity=127, time=0),
    Message('note_on', channel=0, note=42, velocity=127, time=0),
    Message('note_off', channel=0, note=68, velocity=75, time=96),
    Message('note_off', channel=0, note=63, velocity=75, time=0),
    Message('note_off', channel=0, note=60, velocity=75, time=0),
    Message('note_off', channel=0, note=54, velocity=75, time=0),
    Message('note_off', channel=0, note=49, velocity=75, time=0),
    Message('note_off', channel=0, note=42, velocity=75, time=0),
    Message('note_off', channel=0, note=68, velocity=75, time=0),
    Message('note_off', channel=0, note=63, velocity=75, time=0),
    Message('note_off', channel=0, note=60, velocity=75, time=0),
    Message('note_off', channel=0, note=54, velocity=75, time=0),
    Message('note_off', channel=0, note=49, velocity=75, time=0),
    Message('note_off', channel=0, note=42, velocity=75, time=0),
    Message('note_on', channel=0, note=68, velocity=127, time=0),
    Message('note_on', channel=0, note=63, velocity=127, time=0),
    Message('note_on', channel=0, note=60, velocity=127, time=0),
    Message('note_on', channel=0, note=54, velocity=127, time=0),
    Message('note_on', channel=0, note=49, velocity=127, time=0),
    Message('note_on', channel=0, note=42, velocity=127, time=0),
    Message('note_off', channel=0, note=68, velocity=75, time=192),
    Message('note_off', channel=0, note=63, velocity=75, time=0),
    Message('note_off', channel=0, note=60, velocity=75, time=0),
    Message('note_off', channel=0, note=54, velocity=75, time=0),
    Message('note_off', channel=0, note=49, velocity=75, time=0),
    Message('note_off', channel=0, note=42, velocity=75, time=0),
    Message('note_on', channel=0, note=49, velocity=127, time=0),
    Message('note_off', channel=0, note=49, velocity=75, time=96),
    Message('note_on', channel=0, note=48, velocity=127, time=0),
    Message('note_off', channel=0, note=48, velocity=75, time=192),
    Message('note_on', channel=0, note=46, velocity=127, time=0),
    Message('note_off', channel=0, note=46, velocity=75, time=192),
    Message('note_on', channel=0, note=48, velocity=127, time=0),
    Message('note_on', channel=0, note=49, velocity=127, time=10),
    Message('note_off', channel=0, note=48, velocity=75, time=6),
    Message('note_on', channel=0, note=44, velocity=127, time=80),
    Message('note_off', channel=0, note=49, velocity=75, time=10),
    Message('note_off', channel=0, note=44, velocity=75, time=86),
    Message('note_on', channel=0, note=43, velocity=127, time=0),
    Message('note_off', channel=0, note=43, velocity=75, time=192),
    Message('note_on', channel=0, note=42, velocity=127, time=0),
    Message('note_on', channel=0, note=68, velocity=127, time=288),
    Message('note_on', channel=0, note=63, velocity=127, time=0),
    Message('note_on', channel=0, note=60, velocity=127, time=0),
    Message('note_on', channel=0, note=54, velocity=127, time=0),
    Message('note_on', channel=0, note=49, velocity=127, time=0),
    Message('note_on', channel=0, note=42, velocity=127, time=0),
    Message('note_off', channel=0, note=42, velocity=75, time=96),
    Message('note_on', channel=0, note=68, velocity=127, time=192),
    Message('note_on', channel=0, note=63, velocity=127, time=0),
    Message('note_on', channel=0, note=60, velocity=127, time=0),
    Message('note_on', channel=0, note=54, velocity=127, time=0),
    Message('note_on', channel=0, note=49, velocity=127, time=0),
    Message('note_on', channel=0, note=42, velocity=127, time=0),
    Message('note_off', channel=0, note=68, velocity=75, time=96),
    Message('note_off', channel=0, note=63, velocity=75, time=0),
    Message('note_off', channel=0, note=60, velocity=75, time=0),
    Message('note_off', channel=0, note=54, velocity=75, time=0),
    Message('note_off', channel=0, note=49, velocity=75, time=0),
    Message('note_off', channel=0, note=42, velocity=75, time=0),
    Message('note_off', channel=0, note=68, velocity=75, time=0),
    Message('note_off', channel=0, note=63, velocity=75, time=0),
    Message('note_off', channel=0, note=60, velocity=75, time=0),
    Message('note_off', channel=0, note=54, velocity=75, time=0),
    Message('note_off', channel=0, note=49, velocity=75, time=0),
    Message('note_off', channel=0, note=42, velocity=75, time=0),
    Message('note_on', channel=0, note=68, velocity=127, time=0),
    Message('note_on', channel=0, note=63, velocity=127, time=0),
    Message('note_on', channel=0, note=60, velocity=127, time=0),
    Message('note_on', channel=0, note=54, velocity=127, time=0),
    Message('note_on', channel=0, note=49, velocity=127, time=0),
    Message('note_on', channel=0, note=42, velocity=127, time=0),
    Message('note_off', channel=0, note=68, velocity=75, time=192),
    Message('note_off', channel=0, note=63, velocity=75, time=0),
    Message('note_off', channel=0, note=60, velocity=75, time=0),
    Message('note_off', channel=0, note=54, velocity=75, time=0),
    Message('note_off', channel=0, note=49, velocity=75, time=0),
    Message('note_off', channel=0, note=42, velocity=75, time=0),
    Message('note_on', channel=0, note=49, velocity=127, time=0),
    Message('note_off', channel=0, note=49, velocity=75, time=96),
    Message('note_on', channel=0, note=48, velocity=127, time=0),
    Message('note_off', channel=0, note=48, velocity=75, time=192),
    Message('note_on', channel=0, note=46, velocity=127, time=0),
    Message('note_off', channel=0, note=46, velocity=75, time=192),
    Message('note_on', channel=0, note=48, velocity=127, time=0),
    Message('note_on', channel=0, note=49, velocity=127, time=10),
    Message('note_off', channel=0, note=48, velocity=75, time=6),
    Message('note_on', channel=0, note=44, velocity=127, time=80),
    Message('note_off', channel=0, note=49, velocity=75, time=10),
    Message('note_off', channel=0, note=44, velocity=75, time=86),
    Message('note_on', channel=0, note=43, velocity=127, time=0),
    Message('note_off', channel=0, note=43, velocity=75, time=192),
    Message('note_on', channel=0, note=42, velocity=127, time=0),
    Message('note_on', channel=0, note=68, velocity=127, time=288),
    Message('note_on', channel=0, note=63, velocity=127, time=0),
    Message('note_on', channel=0, note=60, velocity=127, time=0),
    Message('note_on', channel=0, note=54, velocity=127, time=0),
    Message('note_on', channel=0, note=49, velocity=127, time=0),
    Message('note_on', channel=0, note=42, velocity=127, time=0),
    Message('note_off', channel=0, note=42, velocity=75, time=96),
    Message('note_on', channel=0, note=68, velocity=127, time=192),
    Message('note_on', channel=0, note=63, velocity=127, time=0),
    Message('note_on', channel=0, note=60, velocity=127, time=0),
    Message('note_on', channel=0, note=54, velocity=127, time=0),
    Message('note_on', channel=0, note=49, velocity=127, time=0),
    Message('note_on', channel=0, note=42, velocity=127, time=0),
    Message('note_off', channel=0, note=68, velocity=75, time=96),
    Message('note_off', channel=0, note=63, velocity=75, time=0),
    Message('note_off', channel=0, note=60, velocity=75, time=0),
    Message('note_off', channel=0, note=54, velocity=75, time=0),
    Message('note_off', channel=0, note=49, velocity=75, time=0),
    Message('note_off', channel=0, note=42, velocity=75, time=0),
    Message('note_off', channel=0, note=68, velocity=75, time=0),
    Message('note_off', channel=0, note=63, velocity=75, time=0),
    Message('note_off', channel=0, note=60, velocity=75, time=0),
    Message('note_off', channel=0, note=54, velocity=75, time=0),
    Message('note_off', channel=0, note=49, velocity=75, time=0),
    Message('note_off', channel=0, note=42, velocity=75, time=0),
    Message('note_on', channel=0, note=68, velocity=127, time=0),
    Message('note_on', channel=0, note=63, velocity=127, time=0),
    Message('note_on', channel=0, note=60, velocity=127, time=0),
    Message('note_on', channel=0, note=54, velocity=127, time=0),
    Message('note_on', channel=0, note=49, velocity=127, time=0),
    Message('note_on', channel=0, note=42, velocity=127, time=0),
    Message('note_off', channel=0, note=68, velocity=75, time=192),
    Message('note_off', channel=0, note=63, velocity=75, time=0),
    Message('note_off', channel=0, note=60, velocity=75, time=0),
    Message('note_off', channel=0, note=54, velocity=75, time=0),
    Message('note_off', channel=0, note=49, velocity=75, time=0),
    Message('note_off', channel=0, note=42, velocity=75, time=0),
    Message('note_on', channel=0, note=49, velocity=127, time=0),
    Message('note_off', channel=0, note=49, velocity=75, time=96),
    Message('note_on', channel=0, note=48, velocity=127, time=0),
    Message('note_off', channel=0, note=48, velocity=75, time=192),
    Message('note_on', channel=0, note=46, velocity=127, time=0),
    Message('note_off', channel=0, note=46, velocity=75, time=192),
    Message('note_on', channel=0, note=48, velocity=127, time=0),
    Message('note_on', channel=0, note=49, velocity=127, time=10),
    Message('note_off', channel=0, note=48, velocity=75, time=6),
    Message('note_on', channel=0, note=44, velocity=127, time=80),
    Message('note_off', channel=0, note=49, velocity=75, time=10),
    Message('note_off', channel=0, note=44, velocity=75, time=86),
    Message('note_on', channel=0, note=43, velocity=127, time=0),
    Message('note_off', channel=0, note=43, velocity=75, time=192),
    Message('note_on', channel=0, note=42, velocity=127, time=0),
    Message('note_on', channel=0, note=68, velocity=127, time=288),
    Message('note_on', channel=0, note=63, velocity=127, time=0),
    Message('note_on', channel=0, note=60, velocity=127, time=0),
    Message('note_on', channel=0, note=54, velocity=127, time=0),
    Message('note_on', channel=0, note=49, velocity=127, time=0),
    Message('note_on', channel=0, note=42, velocity=127, time=0),
    Message('note_off', channel=0, note=42, velocity=75, time=96),
    Message('note_on', channel=0, note=68, velocity=127, time=192),
    Message('note_on', channel=0, note=63, velocity=127, time=0),
    Message('note_on', channel=0, note=60, velocity=127, time=0),
    Message('note_on', channel=0, note=54, velocity=127, time=0),
    Message('note_on', channel=0, note=49, velocity=127, time=0),
    Message('note_on', channel=0, note=42, velocity=127, time=0),
    Message('note_off', channel=0, note=68, velocity=75, time=96),
    Message('note_off', channel=0, note=63, velocity=75, time=0),
    Message('note_off', channel=0, note=60, velocity=75, time=0),
    Message('note_off', channel=0, note=54, velocity=75, time=0),
    Message('note_off', channel=0, note=49, velocity=75, time=0),
    Message('note_off', channel=0, note=42, velocity=75, time=0),
    Message('note_off', channel=0, note=68, velocity=75, time=0),
    Message('note_off', channel=0, note=63, velocity=75, time=0),
    Message('note_off', channel=0, note=60, velocity=75, time=0),
    Message('note_off', channel=0, note=54, velocity=75, time=0),
    Message('note_off', channel=0, note=49, velocity=75, time=0),
    Message('note_off', channel=0, note=42, velocity=75, time=0),
    Message('note_on', channel=0, note=68, velocity=127, time=0),
    Message('note_on', channel=0, note=63, velocity=127, time=0),
    Message('note_on', channel=0, note=60, velocity=127, time=0),
    Message('note_on', channel=0, note=54, velocity=127, time=0),
    Message('note_on', channel=0, note=49, velocity=127, time=0),
    Message('note_on', channel=0, note=42, velocity=127, time=0),
    Message('note_off', channel=0, note=68, velocity=75, time=192),
    Message('note_off', channel=0, note=63, velocity=75, time=0),
    Message('note_off', channel=0, note=60, velocity=75, time=0),
    Message('note_off', channel=0, note=54, velocity=75, time=0),
    Message('note_off', channel=0, note=49, velocity=75, time=0),
    Message('note_off', channel=0, note=42, velocity=75, time=0),
    Message('note_on', channel=0, note=49, velocity=127, time=0),
    Message('note_off', channel=0, note=49, velocity=75, time=96),
    Message('note_on', channel=0, note=48, velocity=127, time=0),
    Message('note_off', channel=0, note=48, velocity=75, time=192),
    Message('note_on', channel=0, note=46, velocity=127, time=0),
    Message('note_off', channel=0, note=46, velocity=75, time=192),
    Message('note_on', channel=0, note=48, velocity=127, time=0),
    Message('note_on', channel=0, note=49, velocity=127, time=10),
    Message('note_off', channel=0, note=48, velocity=75, time=6),
    Message('note_on', channel=0, note=44, velocity=127, time=80),
    Message('note_off', channel=0, note=49, velocity=75, time=10),
    Message('note_off', channel=0, note=44, velocity=75, time=86),
    Message('note_on', channel=0, note=43, velocity=127, time=0),
    Message('note_off', channel=0, note=43, velocity=75, time=192),
    Message('note_on', channel=0, note=42, velocity=127, time=0),
    Message('note_on', channel=0, note=68, velocity=127, time=288),
    Message('note_on', channel=0, note=63, velocity=127, time=0),
    Message('note_on', channel=0, note=60, velocity=127, time=0),
    Message('note_on', channel=0, note=54, velocity=127, time=0),
    Message('note_on', channel=0, note=49, velocity=127, time=0),
    Message('note_on', channel=0, note=42, velocity=127, time=0),
    Message('note_off', channel=0, note=42, velocity=75, time=96),
    Message('note_on', channel=0, note=68, velocity=127, time=192),
    Message('note_on', channel=0, note=63, velocity=127, time=0),
    Message('note_on', channel=0, note=60, velocity=127, time=0),
    Message('note_on', channel=0, note=54, velocity=127, time=0),
    Message('note_on', channel=0, note=49, velocity=127, time=0),
    Message('note_on', channel=0, note=42, velocity=127, time=0),
    Message('note_off', channel=0, note=68, velocity=75, time=96),
    Message('note_off', channel=0, note=63, velocity=75, time=0),
    Message('note_off', channel=0, note=60, velocity=75, time=0),
    Message('note_off', channel=0, note=54, velocity=75, time=0),
    Message('note_off', channel=0, note=49, velocity=75, time=0),
    Message('note_off', channel=0, note=42, velocity=75, time=0),
    Message('note_off', channel=0, note=68, velocity=75, time=0),
    Message('note_off', channel=0, note=63, velocity=75, time=0),
    Message('note_off', channel=0, note=60, velocity=75, time=0),
    Message('note_off', channel=0, note=54, velocity=75, time=0),
    Message('note_off', channel=0, note=49, velocity=75, time=0),
    Message('note_off', channel=0, note=42, velocity=75, time=0),
    Message('note_on', channel=0, note=68, velocity=127, time=0),
    Message('note_on', channel=0, note=63, velocity=127, time=0),
    Message('note_on', channel=0, note=60, velocity=127, time=0),
    Message('note_on', channel=0, note=54, velocity=127, time=0),
    Message('note_on', channel=0, note=49, velocity=127, time=0),
    Message('note_on', channel=0, note=42, velocity=127, time=0),
    Message('note_off', channel=0, note=68, velocity=75, time=192),
    Message('note_off', channel=0, note=63, velocity=75, time=0),
    Message('note_off', channel=0, note=60, velocity=75, time=0),
    Message('note_off', channel=0, note=54, velocity=75, time=0),
    Message('note_off', channel=0, note=49, velocity=75, time=0),
    Message('note_off', channel=0, note=42, velocity=75, time=0),
    Message('note_on', channel=0, note=42, velocity=127, time=0),
    Message('note_on', channel=0, note=54, velocity=127, time=0),
    Message('note_on', channel=0, note=49, velocity=127, time=0),
    Message('note_off', channel=0, note=42, velocity=75, time=96),
    Message('note_off', channel=0, note=54, velocity=75, time=0),
    Message('note_off', channel=0, note=49, velocity=75, time=0),
    Message('note_on', channel=0, note=44, velocity=127, time=0),
    Message('note_on', channel=0, note=51, velocity=127, time=0),
    Message('note_on', channel=0, note=56, velocity=127, time=0),
    Message('note_off', channel=0, note=44, velocity=75, time=96),
    Message('note_off', channel=0, note=51, velocity=75, time=0),
    Message('note_off', channel=0, note=56, velocity=75, time=0),
    Message('note_on', channel=0, note=44, velocity=127, time=0),
    Message('note_on', channel=0, note=51, velocity=127, time=0),
    Message('note_on', channel=0, note=56, velocity=127, time=0),
    Message('note_off', channel=0, note=44, velocity=75, time=1152),
    Message('note_off', channel=0, note=51, velocity=75, time=0),
    Message('note_off', channel=0, note=56, velocity=75, time=0),
    Message('note_on', channel=0, note=52, velocity=118, time=3840),
    Message('pitchwheel', channel=0, pitch=-192, time=4),
    Message('pitchwheel', channel=0, pitch=-692, time=4),
    Message('pitchwheel', channel=0, pitch=-1192, time=4),
    Message('pitchwheel', channel=0, pitch=-1692, time=4),
    Message('pitchwheel', channel=0, pitch=-2692, time=8),
    Message('pitchwheel', channel=0, pitch=-3192, time=4),
    Message('pitchwheel', channel=0, pitch=-3692, time=4),
    Message('pitchwheel', channel=0, pitch=-4192, time=4),
    Message('pitchwheel', channel=0, pitch=-4692, time=4),
    Message('pitchwheel', channel=0, pitch=-5192, time=4),
    Message('pitchwheel', channel=0, pitch=-5692, time=4),
    Message('pitchwheel', channel=0, pitch=-6192, time=4),
    Message('pitchwheel', channel=0, pitch=-6692, time=4),
    Message('pitchwheel', channel=0, pitch=-7192, time=4),
    Message('pitchwheel', channel=0, pitch=-7692, time=4),
    Message('pitchwheel', channel=0, pitch=-8192, time=4),
    Message('note_off', channel=0, note=52, velocity=75, time=60),
    Message('pitchwheel', channel=0, pitch=0, time=60),
    Message('note_on', channel=0, note=40, velocity=127, time=4),
    Message('note_off', channel=0, note=40, velocity=75, time=96),
    Message('note_on', channel=0, note=47, velocity=127, time=0),
    Message('note_off', channel=0, note=47, velocity=75, time=96),
    Message('note_on', channel=0, note=52, velocity=127, time=0),
    Message('note_off', channel=0, note=52, velocity=75, time=96),
    Message('note_on', channel=0, note=57, velocity=127, time=0),
    Message('note_off', channel=0, note=57, velocity=75, time=192),
    Message('note_on', channel=0, note=52, velocity=127, time=0),
    Message('note_off', channel=0, note=52, velocity=75, time=96),
    Message('note_on', channel=0, note=47, velocity=127, time=0),
    Message('note_off', channel=0, note=47, velocity=75, time=96),
    Message('note_on', channel=0, note=40, velocity=127, time=0),
    Message('note_off', channel=0, note=40, velocity=75, time=96),
    Message('note_on', channel=0, note=39, velocity=127, time=0),
    Message('note_off', channel=0, note=39, velocity=75, time=96),
    Message('note_on', channel=0, note=49, velocity=127, time=0),
    Message('note_off', channel=0, note=49, velocity=75, time=96),
    Message('note_on', channel=0, note=51, velocity=127, time=0),
    Message('note_off', channel=0, note=51, velocity=75, time=96),
    Message('note_on', channel=0, note=58, velocity=127, time=0),
    Message('note_off', channel=0, note=58, velocity=75, time=192),
    Message('note_on', channel=0, note=51, velocity=127, time=0),
    Message('note_off', channel=0, note=51, velocity=75, time=96),
    Message('note_on', channel=0, note=49, velocity=127, time=0),
    Message('note_off', channel=0, note=49, velocity=75, time=96),
    Message('note_on', channel=0, note=39, velocity=127, time=0),
    Message('note_off', channel=0, note=39, velocity=75, time=96),
    Message('note_on', channel=0, note=43, velocity=127, time=0),
    Message('note_on', channel=0, note=44, velocity=127, time=16),
    Message('note_off', channel=0, note=43, velocity=75, time=48),
    Message('note_on', channel=0, note=51, velocity=127, time=32),
    Message('note_off', channel=0, note=44, velocity=75, time=16),
    Message('note_off', channel=0, note=51, velocity=75, time=80),
    Message('note_on', channel=0, note=56, velocity=127, time=0),
    Message('note_off', channel=0, note=56, velocity=75, time=96),
    Message('note_on', channel=0, note=44, velocity=127, time=0),
    Message('note_off', channel=0, note=44, velocity=75, time=96),
    Message('note_on', channel=0, note=43, velocity=127, time=0),
    Message('note_off', channel=0, note=43, velocity=75, time=96),
    Message('note_on', channel=0, note=51, velocity=127, time=0),
    Message('note_off', channel=0, note=51, velocity=75, time=96),
    Message('note_on', channel=0, note=56, velocity=127, time=0),
    Message('note_off', channel=0, note=56, velocity=75, time=96),
    Message('note_on', channel=0, note=43, velocity=127, time=0),
    Message('note_off', channel=0, note=43, velocity=75, time=96),
    Message('note_on', channel=0, note=47, velocity=127, time=0),
    Message('note_off', channel=0, note=47, velocity=75, time=96),
    Message('note_on', channel=0, note=54, velocity=127, time=0),
    Message('note_off', channel=0, note=54, velocity=75, time=96),
    Message('note_on', channel=0, note=59, velocity=127, time=0),
    Message('note_off', channel=0, note=59, velocity=75, time=96),
    Message('note_on', channel=0, note=63, velocity=127, time=0),
    Message('note_off', channel=0, note=63, velocity=75, time=192),
    Message('note_on', channel=0, note=59, velocity=127, time=0),
    Message('note_off', channel=0, note=59, velocity=75, time=96),
    Message('note_on', channel=0, note=54, velocity=127, time=0),
    Message('note_off', channel=0, note=54, velocity=75, time=96),
    Message('note_on', channel=0, note=47, velocity=127, time=0),
    Message('note_off', channel=0, note=47, velocity=75, time=96),
    Message('note_on', channel=0, note=40, velocity=127, time=0),
    Message('note_off', channel=0, note=40, velocity=75, time=96),
    Message('note_on', channel=0, note=47, velocity=127, time=0),
    Message('note_off', channel=0, note=47, velocity=75, time=96),
    Message('note_on', channel=0, note=52, velocity=127, time=0),
    Message('note_off', channel=0, note=52, velocity=75, time=96),
    Message('note_on', channel=0, note=57, velocity=127, time=0),
    Message('note_off', channel=0, note=57, velocity=75, time=192),
    Message('note_on', channel=0, note=52, velocity=127, time=0),
    Message('note_off', channel=0, note=52, velocity=75, time=96),
    Message('note_on', channel=0, note=47, velocity=127, time=0),
    Message('note_off', channel=0, note=47, velocity=75, time=96),
    Message('note_on', channel=0, note=40, velocity=127, time=0),
    Message('note_off', channel=0, note=40, velocity=75, time=96),
    Message('note_on', channel=0, note=39, velocity=127, time=0),
    Message('note_off', channel=0, note=39, velocity=75, time=96),
    Message('note_on', channel=0, note=49, velocity=127, time=0),
    Message('note_off', channel=0, note=49, velocity=75, time=96),
    Message('note_on', channel=0, note=51, velocity=127, time=0),
    Message('note_off', channel=0, note=51, velocity=75, time=96),
    Message('note_on', channel=0, note=58, velocity=127, time=0),
    Message('note_off', channel=0, note=58, velocity=75, time=192),
    Message('note_on', channel=0, note=51, velocity=127, time=0),
    Message('note_off', channel=0, note=51, velocity=75, time=96),
    Message('note_on', channel=0, note=49, velocity=127, time=0),
    Message('note_off', channel=0, note=49, velocity=75, time=96),
    Message('note_on', channel=0, note=39, velocity=127, time=0),
    Message('note_off', channel=0, note=39, velocity=75, time=96),
    Message('note_on', channel=0, note=65, velocity=127, time=0),
    Message('note_on', channel=0, note=61, velocity=127, time=0),
    Message('note_on', channel=0, note=56, velocity=127, time=0),
    Message('note_on', channel=0, note=49, velocity=127, time=0),
    Message('note_on', channel=0, note=65, velocity=127, time=288),
    Message('note_on', channel=0, note=66, velocity=127, time=20),
    Message('note_off', channel=0, note=65, velocity=75, time=12),
    Message('note_on', channel=0, note=65, velocity=127, time=64),
    Message('note_off', channel=0, note=66, velocity=75, time=4),
    Message('note_off', channel=0, note=65, velocity=75, time=60),
    Message('note_on', channel=0, note=61, velocity=127, time=32),
    Message('note_off', channel=0, note=65, velocity=75, time=32),
    Message('note_off', channel=0, note=61, velocity=75, time=32),
    Message('note_on', channel=0, note=56, velocity=127, time=32),
    Message('note_off', channel=0, note=61, velocity=75, time=32),
    Message('note_off', channel=0, note=56, velocity=75, time=32),
    Message('note_on', channel=0, note=61, velocity=127, time=32),
    Message('note_off', channel=0, note=56, velocity=75, time=32),
    Message('note_off', channel=0, note=49, velocity=75, time=64),
    Message('note_off', channel=0, note=61, velocity=75, time=0),
    Message('note_on', channel=0, note=47, velocity=127, time=0),
    Message('note_on', channel=0, note=54, velocity=127, time=96),
    Message('note_off', channel=0, note=47, velocity=75, time=32),
    Message('note_on', channel=0, note=59, velocity=127, time=64),
    Message('note_off', channel=0, note=54, velocity=75, time=32),
    Message('note_on', channel=0, note=63, velocity=127, time=64),
    Message('note_off', channel=0, note=59, velocity=75, time=32),
    Message('note_off', channel=0, note=63, velocity=75, time=160),
    Message('note_on', channel=0, note=59, velocity=127, time=0),
    Message('note_on', channel=0, note=54, velocity=127, time=96),
    Message('note_off', channel=0, note=59, velocity=75, time=32),
    Message('note_on', channel=0, note=59, velocity=127, time=64),
    Message('note_off', channel=0, note=54, velocity=75, time=32),
    Message('note_on', channel=0, note=40, velocity=127, time=64),
    Message('note_off', channel=0, note=59, velocity=75, time=32),
    Message('note_off', channel=0, note=40, velocity=75, time=64),
    Message('note_on', channel=0, note=47, velocity=127, time=0),
    Message('note_off', channel=0, note=47, velocity=75, time=96),
    Message('note_on', channel=0, note=52, velocity=127, time=0),
    Message('note_off', channel=0, note=52, velocity=75, time=96),
    Message('note_on', channel=0, note=57, velocity=127, time=0),
    Message('note_off', channel=0, note=57, velocity=75, time=192),
    Message('note_on', channel=0, note=52, velocity=127, time=0),
    Message('note_off', channel=0, note=52, velocity=75, time=96),
    Message('note_on', channel=0, note=47, velocity=127, time=0),
    Message('note_off', channel=0, note=47, velocity=75, time=96),
    Message('note_on', channel=0, note=40, velocity=127, time=0),
    Message('note_off', channel=0, note=40, velocity=75, time=96),
    Message('note_on', channel=0, note=39, velocity=127, time=0),
    Message('note_off', channel=0, note=39, velocity=75, time=96),
    Message('note_on', channel=0, note=49, velocity=127, time=0),
    Message('note_off', channel=0, note=49, velocity=75, time=96),
    Message('note_on', channel=0, note=51, velocity=127, time=0),
    Message('note_off', channel=0, note=51, velocity=75, time=96),
    Message('note_on', channel=0, note=58, velocity=127, time=0),
    Message('note_off', channel=0, note=58, velocity=75, time=192),
    Message('note_on', channel=0, note=51, velocity=127, time=0),
    Message('note_off', channel=0, note=51, velocity=75, time=96),
    Message('note_on', channel=0, note=49, velocity=127, time=0),
    Message('note_off', channel=0, note=49, velocity=75, time=96),
    Message('note_on', channel=0, note=39, velocity=127, time=0),
    Message('note_off', channel=0, note=39, velocity=75, time=96),
    Message('note_on', channel=0, note=43, velocity=127, time=0),
    Message('note_on', channel=0, note=44, velocity=127, time=16),
    Message('note_off', channel=0, note=43, velocity=75, time=48),
    Message('note_on', channel=0, note=51, velocity=127, time=32),
    Message('note_off', channel=0, note=44, velocity=75, time=16),
    Message('note_off', channel=0, note=51, velocity=75, time=80),
    Message('note_on', channel=0, note=56, velocity=127, time=0),
    Message('note_off', channel=0, note=56, velocity=75, time=96),
    Message('note_on', channel=0, note=44, velocity=127, time=0),
    Message('note_off', channel=0, note=44, velocity=75, time=96),
    Message('note_on', channel=0, note=43, velocity=127, time=0),
    Message('note_off', channel=0, note=43, velocity=75, time=96),
    Message('note_on', channel=0, note=51, velocity=127, time=0),
    Message('note_off', channel=0, note=51, velocity=75, time=96),
    Message('note_on', channel=0, note=56, velocity=127, time=0),
    Message('note_off', channel=0, note=56, velocity=75, time=96),
    Message('note_on', channel=0, note=43, velocity=127, time=0),
    Message('note_off', channel=0, note=43, velocity=75, time=96),
    Message('note_on', channel=0, note=47, velocity=127, time=0),
    Message('note_off', channel=0, note=47, velocity=75, time=96),
    Message('note_on', channel=0, note=54, velocity=127, time=0),
    Message('note_off', channel=0, note=54, velocity=75, time=96),
    Message('note_on', channel=0, note=59, velocity=127, time=0),
    Message('note_off', channel=0, note=59, velocity=75, time=96),
    Message('note_on', channel=0, note=63, velocity=127, time=0),
    Message('note_off', channel=0, note=63, velocity=75, time=192),
    Message('note_on', channel=0, note=59, velocity=127, time=0),
    Message('note_off', channel=0, note=59, velocity=75, time=96),
    Message('note_on', channel=0, note=54, velocity=127, time=0),
    Message('note_off', channel=0, note=54, velocity=75, time=96),
    Message('note_on', channel=0, note=47, velocity=127, time=0),
    Message('note_off', channel=0, note=47, velocity=75, time=96),
    Message('note_on', channel=0, note=40, velocity=127, time=0),
    Message('note_off', channel=0, note=40, velocity=75, time=96),
    Message('note_on', channel=0, note=47, velocity=127, time=0),
    Message('note_off', channel=0, note=47, velocity=75, time=96),
    Message('note_on', channel=0, note=52, velocity=127, time=0),
    Message('note_off', channel=0, note=52, velocity=75, time=96),
    Message('note_on', channel=0, note=57, velocity=127, time=0),
    Message('note_off', channel=0, note=57, velocity=75, time=192),
    Message('note_on', channel=0, note=52, velocity=127, time=0),
    Message('note_off', channel=0, note=52, velocity=75, time=96),
    Message('note_on', channel=0, note=47, velocity=127, time=0),
    Message('note_off', channel=0, note=47, velocity=75, time=96),
    Message('note_on', channel=0, note=40, velocity=127, time=0),
    Message('note_off', channel=0, note=40, velocity=75, time=96),
    Message('note_on', channel=0, note=39, velocity=127, time=0),
    Message('note_off', channel=0, note=39, velocity=75, time=96),
    Message('note_on', channel=0, note=49, velocity=127, time=0),
    Message('note_off', channel=0, note=49, velocity=75, time=96),
    Message('note_on', channel=0, note=51, velocity=127, time=0),
    Message('note_off', channel=0, note=51, velocity=75, time=96),
    Message('note_on', channel=0, note=58, velocity=127, time=0),
    Message('note_off', channel=0, note=58, velocity=75, time=192),
    Message('note_on', channel=0, note=51, velocity=127, time=0),
    Message('note_off', channel=0, note=51, velocity=75, time=96),
    Message('note_on', channel=0, note=49, velocity=127, time=0),
    Message('note_off', channel=0, note=49, velocity=75, time=96),
    Message('note_on', channel=0, note=39, velocity=127, time=0),
    Message('note_off', channel=0, note=39, velocity=75, time=96),
    Message('note_on', channel=0, note=65, velocity=127, time=0),
    Message('note_on', channel=0, note=61, velocity=127, time=0),
    Message('note_on', channel=0, note=56, velocity=127, time=0),
    Message('note_on', channel=0, note=49, velocity=127, time=0),
    Message('note_on', channel=0, note=65, velocity=127, time=288),
    Message('note_on', channel=0, note=66, velocity=127, time=20),
    Message('note_off', channel=0, note=65, velocity=75, time=12),
    Message('note_on', channel=0, note=65, velocity=127, time=64),
    Message('note_off', channel=0, note=66, velocity=75, time=4),
    Message('note_off', channel=0, note=65, velocity=75, time=60),
    Message('note_on', channel=0, note=61, velocity=127, time=32),
    Message('note_off', channel=0, note=61, velocity=75, time=64),
    Message('note_on', channel=0, note=56, velocity=127, time=32),
    Message('note_off', channel=0, note=56, velocity=75, time=128),
    Message('note_off', channel=0, note=49, velocity=75, time=64),
    Message('note_off', channel=0, note=65, velocity=75, time=0),
    Message('note_off', channel=0, note=61, velocity=75, time=0),
    Message('note_off', channel=0, note=56, velocity=75, time=0),
    Message('note_on', channel=0, note=63, velocity=127, time=0),
    Message('note_on', channel=0, note=59, velocity=127, time=0),
    Message('note_on', channel=0, note=54, velocity=127, time=0),
    Message('note_on', channel=0, note=47, velocity=127, time=0),
    Message('note_on', channel=0, note=63, velocity=127, time=288),
    Message('note_on', channel=0, note=64, velocity=127, time=20),
    Message('note_off', channel=0, note=63, velocity=75, time=12),
    Message('note_on', channel=0, note=63, velocity=127, time=64),
    Message('note_off', channel=0, note=64, velocity=75, time=4),
    Message('note_off', channel=0, note=63, velocity=75, time=60),
    Message('note_on', channel=0, note=59, velocity=127, time=32),
    Message('note_off', channel=0, note=59, velocity=75, time=64),
    Message('note_on', channel=0, note=54, velocity=127, time=32),
    Message('note_off', channel=0, note=54, velocity=75, time=64),
    Message('note_on', channel=0, note=59, velocity=127, time=32),
    Message('note_off', channel=0, note=59, velocity=75, time=64),
    Message('note_off', channel=0, note=47, velocity=75, time=32),
    Message('note_off', channel=0, note=63, velocity=75, time=0),
    Message('note_off', channel=0, note=54, velocity=75, time=0),
    Message('note_off', channel=0, note=59, velocity=75, time=0),
    Message('note_on', channel=0, note=67, velocity=127, time=0),
    Message('note_on', channel=0, note=63, velocity=127, time=0),
    Message('note_on', channel=0, note=58, velocity=127, time=0),
    Message('note_on', channel=0, note=51, velocity=127, time=0),
    Message('note_on', channel=0, note=67, velocity=127, time=288),
    Message('note_on', channel=0, note=68, velocity=127, time=20),
    Message('note_off', channel=0, note=67, velocity=75, time=12),
    Message('note_on', channel=0, note=67, velocity=127, time=64),
    Message('note_off', channel=0, note=68, velocity=75, time=4),
    Message('note_off', channel=0, note=67, velocity=75, time=60),
    Message('note_on', channel=0, note=63, velocity=127, time=32),
    Message('note_off', channel=0, note=63, velocity=75, time=64),
    Message('note_on', channel=0, note=58, velocity=127, time=32),
    Message('note_off', channel=0, note=58, velocity=75, time=64),
    Message('note_on', channel=0, note=63, velocity=127, time=32),
    Message('note_off', channel=0, note=63, velocity=75, time=64),
    Message('note_off', channel=0, note=51, velocity=75, time=32),
    Message('note_off', channel=0, note=67, velocity=75, time=0),
    Message('note_off', channel=0, note=58, velocity=75, time=0),
    Message('note_off', channel=0, note=63, velocity=75, time=0),
    Message('note_on', channel=0, note=65, velocity=127, time=0),
    Message('note_on', channel=0, note=61, velocity=127, time=0),
    Message('note_on', channel=0, note=56, velocity=127, time=0),
    Message('note_on', channel=0, note=49, velocity=127, time=0),
    Message('note_on', channel=0, note=65, velocity=127, time=288),
    Message('note_on', channel=0, note=66, velocity=127, time=20),
    Message('note_off', channel=0, note=65, velocity=75, time=12),
    Message('note_on', channel=0, note=65, velocity=127, time=64),
    Message('note_off', channel=0, note=66, velocity=75, time=4),
    Message('note_off', channel=0, note=65, velocity=75, time=60),
    Message('note_on', channel=0, note=61, velocity=127, time=32),
    Message('note_off', channel=0, note=61, velocity=75, time=64),
    Message('note_on', channel=0, note=56, velocity=127, time=32),
    Message('note_off', channel=0, note=56, velocity=75, time=128),
    Message('note_off', channel=0, note=49, velocity=75, time=64),
    Message('note_off', channel=0, note=65, velocity=75, time=0),
    Message('note_off', channel=0, note=61, velocity=75, time=0),
    Message('note_off', channel=0, note=56, velocity=75, time=0),
    Message('note_on', channel=0, note=63, velocity=127, time=0),
    Message('note_on', channel=0, note=59, velocity=127, time=0),
    Message('note_on', channel=0, note=54, velocity=127, time=0),
    Message('note_on', channel=0, note=47, velocity=127, time=0),
    Message('note_on', channel=0, note=63, velocity=127, time=288),
    Message('note_on', channel=0, note=64, velocity=127, time=20),
    Message('note_off', channel=0, note=63, velocity=75, time=12),
    Message('note_on', channel=0, note=63, velocity=127, time=64),
    Message('note_off', channel=0, note=64, velocity=75, time=4),
    Message('note_off', channel=0, note=63, velocity=75, time=60),
    Message('note_on', channel=0, note=59, velocity=127, time=32),
    Message('note_off', channel=0, note=59, velocity=75, time=64),
    Message('note_on', channel=0, note=54, velocity=127, time=32),
    Message('note_off', channel=0, note=54, velocity=75, time=64),
    Message('note_on', channel=0, note=59, velocity=127, time=32),
    Message('note_off', channel=0, note=59, velocity=75, time=64),
    Message('note_off', channel=0, note=47, velocity=75, time=32),
    Message('note_off', channel=0, note=63, velocity=75, time=0),
    Message('note_off', channel=0, note=54, velocity=75, time=0),
    Message('note_off', channel=0, note=59, velocity=75, time=0),
    Message('note_on', channel=0, note=67, velocity=127, time=0),
    Message('note_on', channel=0, note=63, velocity=127, time=0),
    Message('note_on', channel=0, note=58, velocity=127, time=0),
    Message('note_on', channel=0, note=51, velocity=127, time=0),
    Message('note_on', channel=0, note=67, velocity=127, time=288),
    Message('note_on', channel=0, note=63, velocity=127, time=0),
    Message('note_on', channel=0, note=58, velocity=127, time=0),
    Message('note_on', channel=0, note=51, velocity=127, time=0),
    Message('note_off', channel=0, note=67, velocity=75, time=96),
    Message('note_off', channel=0, note=63, velocity=75, time=0),
    Message('note_off', channel=0, note=58, velocity=75, time=0),
    Message('note_off', channel=0, note=51, velocity=75, time=0),
    Message('note_on', channel=0, note=67, velocity=127, time=0),
    Message('note_on', channel=0, note=63, velocity=127, time=0),
    Message('note_on', channel=0, note=58, velocity=127, time=0),
    Message('note_on', channel=0, note=51, velocity=127, time=0),
    Message('note_off', channel=0, note=67, velocity=75, time=192),
    Message('note_off', channel=0, note=63, velocity=75, time=0),
    Message('note_off', channel=0, note=58, velocity=75, time=0),
    Message('note_off', channel=0, note=51, velocity=75, time=0),
    Message('note_on', channel=0, note=67, velocity=127, time=0),
    Message('note_on', channel=0, note=63, velocity=127, time=0),
    Message('note_on', channel=0, note=58, velocity=127, time=0),
    Message('note_on', channel=0, note=51, velocity=127, time=0),
    Message('note_off', channel=0, note=67, velocity=75, time=192),
    Message('note_off', channel=0, note=63, velocity=75, time=0),
    Message('note_off', channel=0, note=58, velocity=75, time=0),
    Message('note_off', channel=0, note=51, velocity=75, time=0),
    Message('note_off', channel=0, note=67, velocity=75, time=0),
    Message('note_off', channel=0, note=63, velocity=75, time=0),
    Message('note_off', channel=0, note=58, velocity=75, time=0),
    Message('note_off', channel=0, note=51, velocity=75, time=0),
    Message('note_on', channel=0, note=65, velocity=127, time=0),
    Message('note_on', channel=0, note=61, velocity=127, time=0),
    Message('note_on', channel=0, note=56, velocity=127, time=0),
    Message('note_on', channel=0, note=49, velocity=127, time=0),
    Message('note_on', channel=0, note=65, velocity=127, time=288),
    Message('note_on', channel=0, note=66, velocity=127, time=20),
    Message('note_off', channel=0, note=65, velocity=75, time=12),
    Message('note_on', channel=0, note=65, velocity=127, time=64),
    Message('note_off', channel=0, note=66, velocity=75, time=4),
    Message('note_off', channel=0, note=65, velocity=75, time=60),
    Message('note_on', channel=0, note=61, velocity=127, time=32),
    Message('note_off', channel=0, note=61, velocity=75, time=64),
    Message('note_on', channel=0, note=56, velocity=127, time=32),
    Message('note_off', channel=0, note=56, velocity=75, time=128),
    Message('note_off', channel=0, note=49, velocity=75, time=64),
    Message('note_off', channel=0, note=65, velocity=75, time=0),
    Message('note_off', channel=0, note=61, velocity=75, time=0),
    Message('note_off', channel=0, note=56, velocity=75, time=0),
    Message('note_on', channel=0, note=63, velocity=127, time=0),
    Message('note_on', channel=0, note=59, velocity=127, time=0),
    Message('note_on', channel=0, note=54, velocity=127, time=0),
    Message('note_on', channel=0, note=47, velocity=127, time=0),
    Message('note_on', channel=0, note=63, velocity=127, time=288),
    Message('note_on', channel=0, note=64, velocity=127, time=20),
    Message('note_off', channel=0, note=63, velocity=75, time=12),
    Message('note_on', channel=0, note=63, velocity=127, time=64),
    Message('note_off', channel=0, note=64, velocity=75, time=4),
    Message('note_off', channel=0, note=63, velocity=75, time=60),
    Message('note_on', channel=0, note=59, velocity=127, time=32),
    Message('note_off', channel=0, note=59, velocity=75, time=64),
    Message('note_on', channel=0, note=54, velocity=127, time=32),
    Message('note_off', channel=0, note=54, velocity=75, time=64),
    Message('note_on', channel=0, note=59, velocity=127, time=32),
    Message('note_off', channel=0, note=59, velocity=75, time=64),
    Message('note_off', channel=0, note=47, velocity=75, time=32),
    Message('note_off', channel=0, note=63, velocity=75, time=0),
    Message('note_off', channel=0, note=54, velocity=75, time=0),
    Message('note_off', channel=0, note=59, velocity=75, time=0),
    Message('note_on', channel=0, note=67, velocity=127, time=0),
    Message('note_on', channel=0, note=63, velocity=127, time=0),
    Message('note_on', channel=0, note=58, velocity=127, time=0),
    Message('note_on', channel=0, note=51, velocity=127, time=0),
    Message('note_on', channel=0, note=67, velocity=127, time=288),
    Message('note_on', channel=0, note=68, velocity=127, time=20),
    Message('note_off', channel=0, note=67, velocity=75, time=12),
    Message('note_on', channel=0, note=67, velocity=127, time=64),
    Message('note_off', channel=0, note=68, velocity=75, time=4),
    Message('note_off', channel=0, note=67, velocity=75, time=60),
    Message('note_on', channel=0, note=63, velocity=127, time=32),
    Message('note_off', channel=0, note=63, velocity=75, time=64),
    Message('note_on', channel=0, note=58, velocity=127, time=32),
    Message('note_off', channel=0, note=58, velocity=75, time=64),
    Message('note_on', channel=0, note=63, velocity=127, time=32),
    Message('note_off', channel=0, note=63, velocity=75, time=64),
    Message('note_off', channel=0, note=51, velocity=75, time=32),
    Message('note_off', channel=0, note=67, velocity=75, time=0),
    Message('note_off', channel=0, note=58, velocity=75, time=0),
    Message('note_off', channel=0, note=63, velocity=75, time=0),
    Message('note_on', channel=0, note=65, velocity=127, time=0),
    Message('note_on', channel=0, note=61, velocity=127, time=0),
    Message('note_on', channel=0, note=56, velocity=127, time=0),
    Message('note_on', channel=0, note=49, velocity=127, time=0),
    Message('note_on', channel=0, note=65, velocity=127, time=288),
    Message('note_on', channel=0, note=66, velocity=127, time=20),
    Message('note_off', channel=0, note=65, velocity=75, time=12),
    Message('note_on', channel=0, note=65, velocity=127, time=64),
    Message('note_off', channel=0, note=66, velocity=75, time=4),
    Message('note_off', channel=0, note=65, velocity=75, time=60),
    Message('note_on', channel=0, note=61, velocity=127, time=32),
    Message('note_off', channel=0, note=61, velocity=75, time=64),
    Message('note_on', channel=0, note=56, velocity=127, time=32),
    Message('note_off', channel=0, note=56, velocity=75, time=128),
    Message('note_off', channel=0, note=49, velocity=75, time=64),
    Message('note_off', channel=0, note=65, velocity=75, time=0),
    Message('note_off', channel=0, note=61, velocity=75, time=0),
    Message('note_off', channel=0, note=56, velocity=75, time=0),
    Message('note_on', channel=0, note=63, velocity=127, time=0),
    Message('note_on', channel=0, note=59, velocity=127, time=0),
    Message('note_on', channel=0, note=54, velocity=127, time=0),
    Message('note_on', channel=0, note=47, velocity=127, time=0),
    Message('note_on', channel=0, note=63, velocity=127, time=288),
    Message('note_on', channel=0, note=64, velocity=127, time=20),
    Message('note_off', channel=0, note=63, velocity=75, time=12),
    Message('note_on', channel=0, note=63, velocity=127, time=64),
    Message('note_off', channel=0, note=64, velocity=75, time=4),
    Message('note_off', channel=0, note=63, velocity=75, time=60),
    Message('note_on', channel=0, note=59, velocity=127, time=32),
    Message('note_off', channel=0, note=59, velocity=75, time=64),
    Message('note_on', channel=0, note=54, velocity=127, time=32),
    Message('note_off', channel=0, note=54, velocity=75, time=64),
    Message('note_on', channel=0, note=59, velocity=127, time=32),
    Message('note_off', channel=0, note=59, velocity=75, time=64),
    Message('note_off', channel=0, note=47, velocity=75, time=32),
    Message('note_off', channel=0, note=63, velocity=75, time=0),
    Message('note_off', channel=0, note=54, velocity=75, time=0),
    Message('note_off', channel=0, note=59, velocity=75, time=0),
    Message('note_on', channel=0, note=67, velocity=127, time=0),
    Message('note_on', channel=0, note=63, velocity=127, time=0),
    Message('note_on', channel=0, note=58, velocity=127, time=0),
    Message('note_on', channel=0, note=51, velocity=127, time=0),
    Message('note_on', channel=0, note=67, velocity=127, time=288),
    Message('note_on', channel=0, note=63, velocity=127, time=0),
    Message('note_on', channel=0, note=58, velocity=127, time=0),
    Message('note_on', channel=0, note=51, velocity=127, time=0),
    Message('note_off', channel=0, note=67, velocity=75, time=96),
    Message('note_off', channel=0, note=63, velocity=75, time=0),
    Message('note_off', channel=0, note=58, velocity=75, time=0),
    Message('note_off', channel=0, note=51, velocity=75, time=0),
    Message('note_on', channel=0, note=67, velocity=127, time=0),
    Message('note_on', channel=0, note=63, velocity=127, time=0),
    Message('note_on', channel=0, note=58, velocity=127, time=0),
    Message('note_on', channel=0, note=51, velocity=127, time=0),
    Message('note_off', channel=0, note=67, velocity=75, time=192),
    Message('note_off', channel=0, note=63, velocity=75, time=0),
    Message('note_off', channel=0, note=58, velocity=75, time=0),
    Message('note_off', channel=0, note=51, velocity=75, time=0),
    Message('note_on', channel=0, note=67, velocity=127, time=0),
    Message('note_on', channel=0, note=63, velocity=127, time=0),
    Message('note_on', channel=0, note=58, velocity=127, time=0),
    Message('note_on', channel=0, note=51, velocity=127, time=0),
    Message('note_off', channel=0, note=67, velocity=75, time=192),
    Message('note_off', channel=0, note=63, velocity=75, time=0),
    Message('note_off', channel=0, note=58, velocity=75, time=0),
    Message('note_off', channel=0, note=51, velocity=75, time=0),
    Message('note_off', channel=0, note=67, velocity=75, time=0),
    Message('note_off', channel=0, note=63, velocity=75, time=0),
    Message('note_off', channel=0, note=58, velocity=75, time=0),
    Message('note_off', channel=0, note=51, velocity=75, time=0),
    Message('note_on', channel=0, note=65, velocity=127, time=0),
    Message('note_on', channel=0, note=61, velocity=127, time=0),
    Message('note_on', channel=0, note=56, velocity=127, time=0),
    Message('note_on', channel=0, note=49, velocity=127, time=0),
    Message('note_on', channel=0, note=65, velocity=127, time=288),
    Message('note_on', channel=0, note=66, velocity=127, time=20),
    Message('note_off', channel=0, note=65, velocity=75, time=12),
    Message('note_on', channel=0, note=65, velocity=127, time=64),
    Message('note_off', channel=0, note=66, velocity=75, time=4),
    Message('note_off', channel=0, note=65, velocity=75, time=60),
    Message('note_on', channel=0, note=61, velocity=127, time=32),
    Message('note_off', channel=0, note=61, velocity=75, time=64),
    Message('note_on', channel=0, note=56, velocity=127, time=32),
    Message('note_off', channel=0, note=56, velocity=75, time=128),
    Message('note_off', channel=0, note=49, velocity=75, time=64),
    Message('note_off', channel=0, note=65, velocity=75, time=0),
    Message('note_off', channel=0, note=61, velocity=75, time=0),
    Message('note_off', channel=0, note=56, velocity=75, time=0),
    Message('note_on', channel=0, note=63, velocity=127, time=0),
    Message('note_on', channel=0, note=59, velocity=127, time=0),
    Message('note_on', channel=0, note=54, velocity=127, time=0),
    Message('note_on', channel=0, note=47, velocity=127, time=0),
    Message('note_on', channel=0, note=63, velocity=127, time=288),
    Message('note_on', channel=0, note=64, velocity=127, time=20),
    Message('note_off', channel=0, note=63, velocity=75, time=12),
    Message('note_on', channel=0, note=63, velocity=127, time=64),
    Message('note_off', channel=0, note=64, velocity=75, time=4),
    Message('note_off', channel=0, note=63, velocity=75, time=60),
    Message('note_on', channel=0, note=59, velocity=127, time=32),
    Message('note_off', channel=0, note=59, velocity=75, time=64),
    Message('note_on', channel=0, note=54, velocity=127, time=32),
    Message('note_off', channel=0, note=54, velocity=75, time=64),
    Message('note_on', channel=0, note=59, velocity=127, time=32),
    Message('note_off', channel=0, note=59, velocity=75, time=64),
    Message('note_off', channel=0, note=47, velocity=75, time=32),
    Message('note_off', channel=0, note=63, velocity=75, time=0),
    Message('note_off', channel=0, note=54, velocity=75, time=0),
    Message('note_off', channel=0, note=59, velocity=75, time=0),
    Message('note_on', channel=0, note=67, velocity=127, time=0),
    Message('note_on', channel=0, note=63, velocity=127, time=0),
    Message('note_on', channel=0, note=58, velocity=127, time=0),
    Message('note_on', channel=0, note=51, velocity=127, time=0),
    Message('note_on', channel=0, note=67, velocity=127, time=288),
    Message('note_on', channel=0, note=68, velocity=127, time=20),
    Message('note_off', channel=0, note=67, velocity=75, time=12),
    Message('note_on', channel=0, note=67, velocity=127, time=64),
    Message('note_off', channel=0, note=68, velocity=75, time=4),
    Message('note_off', channel=0, note=67, velocity=75, time=60),
    Message('note_on', channel=0, note=63, velocity=127, time=32),
    Message('note_off', channel=0, note=63, velocity=75, time=64),
    Message('note_on', channel=0, note=58, velocity=127, time=32),
    Message('note_off', channel=0, note=58, velocity=75, time=64),
    Message('note_on', channel=0, note=63, velocity=127, time=32),
    Message('note_off', channel=0, note=63, velocity=75, time=64),
    Message('note_off', channel=0, note=51, velocity=75, time=32),
    Message('note_off', channel=0, note=67, velocity=75, time=0),
    Message('note_off', channel=0, note=58, velocity=75, time=0),
    Message('note_off', channel=0, note=63, velocity=75, time=0),
    Message('note_on', channel=0, note=65, velocity=127, time=0),
    Message('note_on', channel=0, note=61, velocity=127, time=0),
    Message('note_on', channel=0, note=56, velocity=127, time=0),
    Message('note_on', channel=0, note=49, velocity=127, time=0),
    Message('note_on', channel=0, note=65, velocity=127, time=288),
    Message('note_on', channel=0, note=66, velocity=127, time=20),
    Message('note_off', channel=0, note=65, velocity=75, time=12),
    Message('note_on', channel=0, note=65, velocity=127, time=64),
    Message('note_off', channel=0, note=66, velocity=75, time=4),
    Message('note_off', channel=0, note=65, velocity=75, time=60),
    Message('note_on', channel=0, note=61, velocity=127, time=32),
    Message('note_off', channel=0, note=61, velocity=75, time=64),
    Message('note_on', channel=0, note=56, velocity=127, time=32),
    Message('note_off', channel=0, note=56, velocity=75, time=128),
    Message('note_off', channel=0, note=49, velocity=75, time=64),
    Message('note_off', channel=0, note=65, velocity=75, time=0),
    Message('note_off', channel=0, note=61, velocity=75, time=0),
    Message('note_off', channel=0, note=56, velocity=75, time=0),
    Message('note_on', channel=0, note=63, velocity=127, time=0),
    Message('note_on', channel=0, note=59, velocity=127, time=0),
    Message('note_on', channel=0, note=54, velocity=127, time=0),
    Message('note_on', channel=0, note=47, velocity=127, time=0),
    Message('note_on', channel=0, note=63, velocity=127, time=288),
    Message('note_on', channel=0, note=64, velocity=127, time=20),
    Message('note_off', channel=0, note=63, velocity=75, time=12),
    Message('note_on', channel=0, note=63, velocity=127, time=64),
    Message('note_off', channel=0, note=64, velocity=75, time=4),
    Message('note_off', channel=0, note=63, velocity=75, time=60),
    Message('note_on', channel=0, note=59, velocity=127, time=32),
    Message('note_off', channel=0, note=59, velocity=75, time=64),
    Message('note_on', channel=0, note=54, velocity=127, time=32),
    Message('note_off', channel=0, note=54, velocity=75, time=64),
    Message('note_on', channel=0, note=59, velocity=127, time=32),
    Message('note_off', channel=0, note=59, velocity=75, time=64),
    Message('note_off', channel=0, note=47, velocity=75, time=32),
    Message('note_off', channel=0, note=63, velocity=75, time=0),
    Message('note_off', channel=0, note=54, velocity=75, time=0),
    Message('note_off', channel=0, note=59, velocity=75, time=0),
    Message('note_on', channel=0, note=67, velocity=127, time=0),
    Message('note_on', channel=0, note=63, velocity=127, time=0),
    Message('note_on', channel=0, note=58, velocity=127, time=0),
    Message('note_on', channel=0, note=51, velocity=127, time=0),
    Message('note_on', channel=0, note=67, velocity=127, time=288),
    Message('note_on', channel=0, note=63, velocity=127, time=0),
    Message('note_on', channel=0, note=58, velocity=127, time=0),
    Message('note_on', channel=0, note=51, velocity=127, time=0),
    Message('note_off', channel=0, note=67, velocity=75, time=96),
    Message('note_off', channel=0, note=63, velocity=75, time=0),
    Message('note_off', channel=0, note=58, velocity=75, time=0),
    Message('note_off', channel=0, note=51, velocity=75, time=0),
    Message('note_on', channel=0, note=67, velocity=127, time=0),
    Message('note_on', channel=0, note=63, velocity=127, time=0),
    Message('note_on', channel=0, note=58, velocity=127, time=0),
    Message('note_on', channel=0, note=51, velocity=127, time=0),
    Message('note_off', channel=0, note=67, velocity=75, time=192),
    Message('note_off', channel=0, note=63, velocity=75, time=0),
    Message('note_off', channel=0, note=58, velocity=75, time=0),
    Message('note_off', channel=0, note=51, velocity=75, time=0),
    Message('note_on', channel=0, note=67, velocity=127, time=0),
    Message('note_on', channel=0, note=63, velocity=127, time=0),
    Message('note_on', channel=0, note=58, velocity=127, time=0),
    Message('note_on', channel=0, note=51, velocity=127, time=0),
    Message('note_off', channel=0, note=67, velocity=75, time=192),
    Message('note_off', channel=0, note=63, velocity=75, time=0),
    Message('note_off', channel=0, note=58, velocity=75, time=0),
    Message('note_off', channel=0, note=51, velocity=75, time=0),
    Message('note_off', channel=0, note=67, velocity=75, time=0),
    Message('note_off', channel=0, note=63, velocity=75, time=0),
    Message('note_off', channel=0, note=58, velocity=75, time=0),
    Message('note_off', channel=0, note=51, velocity=75, time=0),
    Message('note_on', channel=0, note=65, velocity=127, time=0),
    Message('note_on', channel=0, note=61, velocity=127, time=0),
    Message('note_on', channel=0, note=56, velocity=127, time=0),
    Message('note_on', channel=0, note=49, velocity=127, time=0),
    Message('note_on', channel=0, note=65, velocity=127, time=288),
    Message('note_on', channel=0, note=66, velocity=127, time=20),
    Message('note_off', channel=0, note=65, velocity=75, time=12),
    Message('note_on', channel=0, note=65, velocity=127, time=64),
    Message('note_off', channel=0, note=66, velocity=75, time=4),
    Message('note_off', channel=0, note=65, velocity=75, time=60),
    Message('note_on', channel=0, note=61, velocity=127, time=32),
    Message('note_off', channel=0, note=61, velocity=75, time=64),
    Message('note_on', channel=0, note=56, velocity=127, time=32),
    Message('note_off', channel=0, note=56, velocity=75, time=128),
    Message('note_off', channel=0, note=49, velocity=75, time=64),
    Message('note_off', channel=0, note=65, velocity=75, time=0),
    Message('note_off', channel=0, note=61, velocity=75, time=0),
    Message('note_off', channel=0, note=56, velocity=75, time=0),
    Message('note_on', channel=0, note=63, velocity=127, time=0),
    Message('note_on', channel=0, note=59, velocity=127, time=0),
    Message('note_on', channel=0, note=54, velocity=127, time=0),
    Message('note_on', channel=0, note=47, velocity=127, time=0),
    Message('note_on', channel=0, note=63, velocity=127, time=288),
    Message('note_on', channel=0, note=64, velocity=127, time=20),
    Message('note_off', channel=0, note=63, velocity=75, time=12),
    Message('note_on', channel=0, note=63, velocity=127, time=64),
    Message('note_off', channel=0, note=64, velocity=75, time=4),
    Message('note_off', channel=0, note=63, velocity=75, time=60),
    Message('note_on', channel=0, note=59, velocity=127, time=32),
    Message('note_off', channel=0, note=59, velocity=75, time=64),
    Message('note_on', channel=0, note=54, velocity=127, time=32),
    Message('note_off', channel=0, note=54, velocity=75, time=64),
    Message('note_on', channel=0, note=59, velocity=127, time=32),
    Message('note_off', channel=0, note=59, velocity=75, time=64),
    Message('note_off', channel=0, note=47, velocity=75, time=32),
    Message('note_off', channel=0, note=63, velocity=75, time=0),
    Message('note_off', channel=0, note=54, velocity=75, time=0),
    Message('note_off', channel=0, note=59, velocity=75, time=0),
    Message('note_on', channel=0, note=67, velocity=127, time=0),
    Message('note_on', channel=0, note=63, velocity=127, time=0),
    Message('note_on', channel=0, note=58, velocity=127, time=0),
    Message('note_on', channel=0, note=51, velocity=127, time=0),
    Message('note_on', channel=0, note=67, velocity=127, time=288),
    Message('note_on', channel=0, note=68, velocity=127, time=20),
    Message('note_off', channel=0, note=67, velocity=75, time=12),
    Message('note_on', channel=0, note=67, velocity=127, time=64),
    Message('note_off', channel=0, note=68, velocity=75, time=4),
    Message('note_off', channel=0, note=67, velocity=75, time=60),
    Message('note_on', channel=0, note=63, velocity=127, time=32),
    Message('note_off', channel=0, note=63, velocity=75, time=64),
    Message('note_on', channel=0, note=58, velocity=127, time=32),
    Message('note_off', channel=0, note=58, velocity=75, time=64),
    Message('note_on', channel=0, note=63, velocity=127, time=32),
    Message('note_off', channel=0, note=63, velocity=75, time=64),
    Message('note_off', channel=0, note=51, velocity=75, time=32),
    Message('note_off', channel=0, note=67, velocity=75, time=0),
    Message('note_off', channel=0, note=58, velocity=75, time=0),
    Message('note_off', channel=0, note=63, velocity=75, time=0),
    Message('note_on', channel=0, note=65, velocity=127, time=0),
    Message('note_on', channel=0, note=61, velocity=127, time=0),
    Message('note_on', channel=0, note=56, velocity=127, time=0),
    Message('note_on', channel=0, note=49, velocity=127, time=0),
    Message('note_on', channel=0, note=65, velocity=127, time=288),
    Message('note_on', channel=0, note=66, velocity=127, time=20),
    Message('note_off', channel=0, note=65, velocity=75, time=12),
    Message('note_on', channel=0, note=65, velocity=127, time=64),
    Message('note_off', channel=0, note=66, velocity=75, time=4),
    Message('note_off', channel=0, note=65, velocity=75, time=60),
    Message('note_on', channel=0, note=61, velocity=127, time=32),
    Message('note_off', channel=0, note=61, velocity=75, time=64),
    Message('note_on', channel=0, note=56, velocity=127, time=32),
    Message('note_off', channel=0, note=56, velocity=75, time=128),
    Message('note_off', channel=0, note=49, velocity=75, time=64),
    Message('note_off', channel=0, note=65, velocity=75, time=0),
    Message('note_off', channel=0, note=61, velocity=75, time=0),
    Message('note_off', channel=0, note=56, velocity=75, time=0),
    Message('note_on', channel=0, note=63, velocity=127, time=0),
    Message('note_on', channel=0, note=59, velocity=127, time=0),
    Message('note_on', channel=0, note=54, velocity=127, time=0),
    Message('note_on', channel=0, note=47, velocity=127, time=0),
    Message('note_on', channel=0, note=63, velocity=127, time=288),
    Message('note_on', channel=0, note=64, velocity=127, time=20),
    Message('note_off', channel=0, note=63, velocity=75, time=12),
    Message('note_on', channel=0, note=63, velocity=127, time=64),
    Message('note_off', channel=0, note=64, velocity=75, time=4),
    Message('note_off', channel=0, note=63, velocity=75, time=60),
    Message('note_on', channel=0, note=59, velocity=127, time=32),
    Message('note_off', channel=0, note=59, velocity=75, time=64),
    Message('note_on', channel=0, note=54, velocity=127, time=32),
    Message('note_off', channel=0, note=54, velocity=75, time=64),
    Message('note_on', channel=0, note=59, velocity=127, time=32),
    Message('note_off', channel=0, note=59, velocity=75, time=64),
    Message('note_off', channel=0, note=47, velocity=75, time=32),
    Message('note_off', channel=0, note=63, velocity=75, time=0),
    Message('note_off', channel=0, note=54, velocity=75, time=0),
    Message('note_off', channel=0, note=59, velocity=75, time=0),
    Message('note_on', channel=0, note=67, velocity=127, time=0),
    Message('note_on', channel=0, note=63, velocity=127, time=0),
    Message('note_on', channel=0, note=58, velocity=127, time=0),
    Message('note_on', channel=0, note=51, velocity=127, time=0),
    Message('note_on', channel=0, note=67, velocity=127, time=288),
    Message('note_on', channel=0, note=63, velocity=127, time=0),
    Message('note_on', channel=0, note=58, velocity=127, time=0),
    Message('note_on', channel=0, note=51, velocity=127, time=0),
    Message('note_off', channel=0, note=67, velocity=75, time=96),
    Message('note_off', channel=0, note=63, velocity=75, time=0),
    Message('note_off', channel=0, note=58, velocity=75, time=0),
    Message('note_off', channel=0, note=51, velocity=75, time=0),
    Message('note_on', channel=0, note=67, velocity=127, time=0),
    Message('note_on', channel=0, note=63, velocity=127, time=0),
    Message('note_on', channel=0, note=58, velocity=127, time=0),
    Message('note_on', channel=0, note=51, velocity=127, time=0),
    Message('note_off', channel=0, note=67, velocity=75, time=192),
    Message('note_off', channel=0, note=63, velocity=75, time=0),
    Message('note_off', channel=0, note=58, velocity=75, time=0),
    Message('note_off', channel=0, note=51, velocity=75, time=0),
    Message('note_on', channel=0, note=67, velocity=127, time=0),
    Message('note_on', channel=0, note=63, velocity=127, time=0),
    Message('note_on', channel=0, note=58, velocity=127, time=0),
    Message('note_on', channel=0, note=51, velocity=127, time=0),
    Message('note_off', channel=0, note=67, velocity=75, time=192),
    Message('note_off', channel=0, note=63, velocity=75, time=0),
    Message('note_off', channel=0, note=58, velocity=75, time=0),
    Message('note_off', channel=0, note=51, velocity=75, time=0),
    Message('note_off', channel=0, note=67, velocity=75, time=0),
    Message('note_off', channel=0, note=63, velocity=75, time=0),
    Message('note_off', channel=0, note=58, velocity=75, time=0),
    Message('note_off', channel=0, note=51, velocity=75, time=0),
    Message('note_on', channel=0, note=49, velocity=127, time=0),
    Message('note_off', channel=0, note=49, velocity=75, time=96),
    Message('note_on', channel=0, note=48, velocity=127, time=0),
    Message('note_off', channel=0, note=48, velocity=75, time=192),
    Message('note_on', channel=0, note=46, velocity=127, time=0),
    Message('note_off', channel=0, note=46, velocity=75, time=192),
    Message('note_on', channel=0, note=48, velocity=127, time=0),
    Message('note_on', channel=0, note=49, velocity=127, time=10),
    Message('note_off', channel=0, note=48, velocity=75, time=6),
    Message('note_on', channel=0, note=44, velocity=127, time=80),
    Message('note_off', channel=0, note=49, velocity=75, time=10),
    Message('note_off', channel=0, note=44, velocity=75, time=86),
    Message('note_on', channel=0, note=43, velocity=127, time=0),
    Message('note_off', channel=0, note=43, velocity=75, time=192),
    Message('note_on', channel=0, note=42, velocity=127, time=0),
    Message('note_on', channel=0, note=68, velocity=127, time=288),
    Message('note_on', channel=0, note=63, velocity=127, time=0),
    Message('note_on', channel=0, note=60, velocity=127, time=0),
    Message('note_on', channel=0, note=54, velocity=127, time=0),
    Message('note_on', channel=0, note=49, velocity=127, time=0),
    Message('note_on', channel=0, note=42, velocity=127, time=0),
    Message('note_off', channel=0, note=42, velocity=75, time=96),
    Message('note_on', channel=0, note=68, velocity=127, time=192),
    Message('note_on', channel=0, note=63, velocity=127, time=0),
    Message('note_on', channel=0, note=60, velocity=127, time=0),
    Message('note_on', channel=0, note=54, velocity=127, time=0),
    Message('note_on', channel=0, note=49, velocity=127, time=0),
    Message('note_on', channel=0, note=42, velocity=127, time=0),
    Message('note_off', channel=0, note=68, velocity=75, time=96),
    Message('note_off', channel=0, note=63, velocity=75, time=0),
    Message('note_off', channel=0, note=60, velocity=75, time=0),
    Message('note_off', channel=0, note=54, velocity=75, time=0),
    Message('note_off', channel=0, note=49, velocity=75, time=0),
    Message('note_off', channel=0, note=42, velocity=75, time=0),
    Message('note_off', channel=0, note=68, velocity=75, time=0),
    Message('note_off', channel=0, note=63, velocity=75, time=0),
    Message('note_off', channel=0, note=60, velocity=75, time=0),
    Message('note_off', channel=0, note=54, velocity=75, time=0),
    Message('note_off', channel=0, note=49, velocity=75, time=0),
    Message('note_off', channel=0, note=42, velocity=75, time=0),
    Message('note_on', channel=0, note=68, velocity=127, time=0),
    Message('note_on', channel=0, note=63, velocity=127, time=0),
    Message('note_on', channel=0, note=60, velocity=127, time=0),
    Message('note_on', channel=0, note=54, velocity=127, time=0),
    Message('note_on', channel=0, note=49, velocity=127, time=0),
    Message('note_on', channel=0, note=42, velocity=127, time=0),
    Message('note_off', channel=0, note=68, velocity=75, time=192),
    Message('note_off', channel=0, note=63, velocity=75, time=0),
    Message('note_off', channel=0, note=60, velocity=75, time=0),
    Message('note_off', channel=0, note=54, velocity=75, time=0),
    Message('note_off', channel=0, note=49, velocity=75, time=0),
    Message('note_off', channel=0, note=42, velocity=75, time=0),
    Message('note_on', channel=0, note=42, velocity=127, time=0),
    Message('note_on', channel=0, note=54, velocity=127, time=0),
    Message('note_on', channel=0, note=49, velocity=127, time=0),
    Message('note_off', channel=0, note=42, velocity=75, time=96),
    Message('note_off', channel=0, note=54, velocity=75, time=0),
    Message('note_off', channel=0, note=49, velocity=75, time=0),
    Message('note_on', channel=0, note=44, velocity=127, time=0),
    Message('note_on', channel=0, note=51, velocity=127, time=0),
    Message('note_on', channel=0, note=56, velocity=127, time=0),
    Message('note_off', channel=0, note=44, velocity=75, time=96),
    Message('note_off', channel=0, note=51, velocity=75, time=0),
    Message('note_off', channel=0, note=56, velocity=75, time=0),
    Message('note_on', channel=0, note=56, velocity=127, time=0),
    Message('note_on', channel=0, note=44, velocity=127, time=0),
    Message('note_on', channel=0, note=51, velocity=127, time=0),
    Message('control_change', channel=0, control=1, value=76, time=4),
    Message('control_change', channel=0, control=1, value=0, time=2876),
    Message('note_off', channel=0, note=44, velocity=75, time=56),
    Message('note_off', channel=0, note=51, velocity=75, time=0),
    Message('note_off', channel=0, note=56, velocity=75, time=0),
    MetaMessage('end_of_track', time=0)]),
  MidiTrack([
    MetaMessage('track_name', name='Chris Cornell -Dist-', time=0),
    Message('control_change', channel=1, control=0, value=0, time=0),
    Message('program_change', channel=1, program=30, time=0),
    Message('control_change', channel=1, control=10, value=63, time=0),
    MetaMessage('key_signature', key='G', time=0),
    Message('note_on', channel=1, note=40, velocity=121, time=18816),
    Message('note_off', channel=1, note=40, velocity=64, time=96),
    Message('note_on', channel=1, note=47, velocity=121, time=0),
    Message('note_off', channel=1, note=47, velocity=64, time=96),
    Message('note_on', channel=1, note=52, velocity=121, time=0),
    Message('note_off', channel=1, note=52, velocity=64, time=96),
    Message('note_on', channel=1, note=57, velocity=121, time=0),
    Message('note_off', channel=1, note=57, velocity=64, time=192),
    Message('note_on', channel=1, note=52, velocity=121, time=0),
    Message('note_off', channel=1, note=52, velocity=64, time=96),
    Message('note_on', channel=1, note=47, velocity=121, time=0),
    Message('note_off', channel=1, note=47, velocity=64, time=96),
    Message('note_on', channel=1, note=40, velocity=121, time=0),
    Message('note_off', channel=1, note=40, velocity=64, time=96),
    Message('note_on', channel=1, note=39, velocity=121, time=0),
    Message('note_off', channel=1, note=39, velocity=64, time=96),
    Message('note_on', channel=1, note=49, velocity=121, time=0),
    Message('note_off', channel=1, note=49, velocity=64, time=96),
    Message('note_on', channel=1, note=51, velocity=121, time=0),
    Message('note_off', channel=1, note=51, velocity=64, time=96),
    Message('note_on', channel=1, note=58, velocity=121, time=0),
    Message('note_off', channel=1, note=58, velocity=64, time=192),
    Message('note_on', channel=1, note=51, velocity=121, time=0),
    Message('note_off', channel=1, note=51, velocity=64, time=96),
    Message('note_on', channel=1, note=49, velocity=121, time=0),
    Message('note_off', channel=1, note=49, velocity=64, time=96),
    Message('note_on', channel=1, note=39, velocity=121, time=0),
    Message('note_off', channel=1, note=39, velocity=64, time=96),
    Message('note_on', channel=1, note=43, velocity=121, time=0),
    Message('note_on', channel=1, note=44, velocity=121, time=16),
    Message('note_off', channel=1, note=43, velocity=64, time=48),
    Message('note_on', channel=1, note=51, velocity=121, time=32),
    Message('note_off', channel=1, note=44, velocity=64, time=16),
    Message('note_off', channel=1, note=51, velocity=64, time=80),
    Message('note_on', channel=1, note=56, velocity=121, time=0),
    Message('note_off', channel=1, note=56, velocity=64, time=96),
    Message('note_on', channel=1, note=44, velocity=121, time=0),
    Message('note_off', channel=1, note=44, velocity=64, time=96),
    Message('note_on', channel=1, note=43, velocity=121, time=0),
    Message('note_off', channel=1, note=43, velocity=64, time=96),
    Message('note_on', channel=1, note=51, velocity=121, time=0),
    Message('note_off', channel=1, note=51, velocity=64, time=96),
    Message('note_on', channel=1, note=56, velocity=121, time=0),
    Message('note_off', channel=1, note=56, velocity=64, time=96),
    Message('note_on', channel=1, note=43, velocity=121, time=0),
    Message('note_off', channel=1, note=43, velocity=64, time=96),
    Message('note_on', channel=1, note=47, velocity=121, time=0),
    Message('note_off', channel=1, note=47, velocity=64, time=96),
    Message('note_on', channel=1, note=54, velocity=121, time=0),
    Message('note_off', channel=1, note=54, velocity=64, time=96),
    Message('note_on', channel=1, note=59, velocity=121, time=0),
    Message('note_off', channel=1, note=59, velocity=64, time=96),
    Message('note_on', channel=1, note=63, velocity=121, time=0),
    Message('note_off', channel=1, note=63, velocity=64, time=192),
    Message('note_on', channel=1, note=59, velocity=121, time=0),
    Message('note_off', channel=1, note=59, velocity=64, time=96),
    Message('note_on', channel=1, note=54, velocity=121, time=0),
    Message('note_off', channel=1, note=54, velocity=64, time=96),
    Message('note_on', channel=1, note=47, velocity=121, time=0),
    Message('note_off', channel=1, note=47, velocity=64, time=96),
    Message('note_on', channel=1, note=40, velocity=121, time=0),
    Message('note_off', channel=1, note=40, velocity=64, time=96),
    Message('note_on', channel=1, note=47, velocity=121, time=0),
    Message('note_off', channel=1, note=47, velocity=64, time=96),
    Message('note_on', channel=1, note=52, velocity=121, time=0),
    Message('note_off', channel=1, note=52, velocity=64, time=96),
    Message('note_on', channel=1, note=57, velocity=121, time=0),
    Message('note_off', channel=1, note=57, velocity=64, time=192),
    Message('note_on', channel=1, note=52, velocity=121, time=0),
    Message('note_off', channel=1, note=52, velocity=64, time=96),
    Message('note_on', channel=1, note=47, velocity=121, time=0),
    Message('note_off', channel=1, note=47, velocity=64, time=96),
    Message('note_on', channel=1, note=40, velocity=121, time=0),
    Message('note_off', channel=1, note=40, velocity=64, time=96),
    Message('note_on', channel=1, note=39, velocity=121, time=0),
    Message('note_off', channel=1, note=39, velocity=64, time=96),
    Message('note_on', channel=1, note=49, velocity=121, time=0),
    Message('note_off', channel=1, note=49, velocity=64, time=96),
    Message('note_on', channel=1, note=51, velocity=121, time=0),
    Message('note_off', channel=1, note=51, velocity=64, time=96),
    Message('note_on', channel=1, note=58, velocity=121, time=0),
    Message('note_off', channel=1, note=58, velocity=64, time=192),
    Message('note_on', channel=1, note=51, velocity=121, time=0),
    Message('note_off', channel=1, note=51, velocity=64, time=96),
    Message('note_on', channel=1, note=49, velocity=121, time=0),
    Message('note_off', channel=1, note=49, velocity=64, time=96),
    Message('note_on', channel=1, note=39, velocity=121, time=0),
    Message('note_off', channel=1, note=39, velocity=64, time=96),
    Message('note_on', channel=1, note=65, velocity=121, time=0),
    Message('note_on', channel=1, note=61, velocity=121, time=0),
    Message('note_on', channel=1, note=56, velocity=121, time=0),
    Message('note_on', channel=1, note=49, velocity=121, time=0),
    Message('note_on', channel=1, note=65, velocity=121, time=288),
    Message('note_off', channel=1, note=65, velocity=64, time=20),
    Message('note_on', channel=1, note=66, velocity=121, time=0),
    Message('note_on', channel=1, note=65, velocity=121, time=76),
    Message('note_off', channel=1, note=66, velocity=64, time=4),
    Message('note_off', channel=1, note=65, velocity=64, time=92),
    Message('note_on', channel=1, note=56, velocity=121, time=0),
    Message('note_off', channel=1, note=56, velocity=64, time=96),
    Message('note_on', channel=1, note=61, velocity=121, time=0),
    Message('note_off', channel=1, note=61, velocity=64, time=192),
    Message('note_off', channel=1, note=49, velocity=64, time=0),
    Message('note_off', channel=1, note=65, velocity=64, time=0),
    Message('note_off', channel=1, note=56, velocity=64, time=0),
    Message('note_off', channel=1, note=61, velocity=64, time=0),
    Message('note_on', channel=1, note=67, velocity=121, time=0),
    Message('note_on', channel=1, note=63, velocity=121, time=0),
    Message('note_on', channel=1, note=58, velocity=121, time=0),
    Message('note_on', channel=1, note=51, velocity=121, time=0),
    Message('note_off', channel=1, note=67, velocity=64, time=1028),
    Message('note_off', channel=1, note=63, velocity=64, time=0),
    Message('note_off', channel=1, note=58, velocity=64, time=0),
    Message('note_off', channel=1, note=51, velocity=64, time=0),
    Message('program_change', channel=1, program=30, time=12796),
    Message('note_on', channel=1, note=40, velocity=121, time=768),
    Message('note_off', channel=1, note=40, velocity=64, time=96),
    Message('note_on', channel=1, note=47, velocity=121, time=0),
    Message('note_off', channel=1, note=47, velocity=64, time=96),
    Message('note_on', channel=1, note=52, velocity=121, time=0),
    Message('note_off', channel=1, note=52, velocity=64, time=96),
    Message('note_on', channel=1, note=57, velocity=121, time=0),
    Message('note_off', channel=1, note=57, velocity=64, time=192),
    Message('note_on', channel=1, note=52, velocity=121, time=0),
    Message('note_off', channel=1, note=52, velocity=64, time=96),
    Message('note_on', channel=1, note=47, velocity=121, time=0),
    Message('note_off', channel=1, note=47, velocity=64, time=96),
    Message('note_on', channel=1, note=40, velocity=121, time=0),
    Message('note_off', channel=1, note=40, velocity=64, time=96),
    Message('note_on', channel=1, note=39, velocity=121, time=0),
    Message('note_off', channel=1, note=39, velocity=64, time=96),
    Message('note_on', channel=1, note=49, velocity=121, time=0),
    Message('note_off', channel=1, note=49, velocity=64, time=96),
    Message('note_on', channel=1, note=51, velocity=121, time=0),
    Message('note_off', channel=1, note=51, velocity=64, time=96),
    Message('note_on', channel=1, note=58, velocity=121, time=0),
    Message('note_off', channel=1, note=58, velocity=64, time=192),
    Message('note_on', channel=1, note=51, velocity=121, time=0),
    Message('note_off', channel=1, note=51, velocity=64, time=96),
    Message('note_on', channel=1, note=49, velocity=121, time=0),
    Message('note_off', channel=1, note=49, velocity=64, time=96),
    Message('note_on', channel=1, note=39, velocity=121, time=0),
    Message('note_off', channel=1, note=39, velocity=64, time=96),
    Message('note_on', channel=1, note=43, velocity=121, time=0),
    Message('note_on', channel=1, note=44, velocity=121, time=16),
    Message('note_off', channel=1, note=43, velocity=64, time=48),
    Message('note_on', channel=1, note=51, velocity=121, time=32),
    Message('note_off', channel=1, note=44, velocity=64, time=16),
    Message('note_off', channel=1, note=51, velocity=64, time=80),
    Message('note_on', channel=1, note=56, velocity=121, time=0),
    Message('note_off', channel=1, note=56, velocity=64, time=96),
    Message('note_on', channel=1, note=44, velocity=121, time=0),
    Message('note_off', channel=1, note=44, velocity=64, time=96),
    Message('note_on', channel=1, note=43, velocity=121, time=0),
    Message('note_off', channel=1, note=43, velocity=64, time=96),
    Message('note_on', channel=1, note=51, velocity=121, time=0),
    Message('note_off', channel=1, note=51, velocity=64, time=96),
    Message('note_on', channel=1, note=56, velocity=121, time=0),
    Message('note_off', channel=1, note=56, velocity=64, time=96),
    Message('note_on', channel=1, note=43, velocity=121, time=0),
    Message('note_off', channel=1, note=43, velocity=64, time=96),
    Message('note_on', channel=1, note=47, velocity=121, time=0),
    Message('note_off', channel=1, note=47, velocity=64, time=96),
    Message('note_on', channel=1, note=54, velocity=121, time=0),
    Message('note_off', channel=1, note=54, velocity=64, time=96),
    Message('note_on', channel=1, note=59, velocity=121, time=0),
    Message('note_off', channel=1, note=59, velocity=64, time=96),
    Message('note_on', channel=1, note=63, velocity=121, time=0),
    Message('note_off', channel=1, note=63, velocity=64, time=192),
    Message('note_on', channel=1, note=59, velocity=121, time=0),
    Message('note_off', channel=1, note=59, velocity=64, time=96),
    Message('note_on', channel=1, note=54, velocity=121, time=0),
    Message('note_off', channel=1, note=54, velocity=64, time=96),
    Message('note_on', channel=1, note=47, velocity=121, time=0),
    Message('note_off', channel=1, note=47, velocity=64, time=96),
    Message('note_on', channel=1, note=40, velocity=121, time=0),
    Message('note_off', channel=1, note=40, velocity=64, time=96),
    Message('note_on', channel=1, note=47, velocity=121, time=0),
    Message('note_off', channel=1, note=47, velocity=64, time=96),
    Message('note_on', channel=1, note=52, velocity=121, time=0),
    Message('note_off', channel=1, note=52, velocity=64, time=96),
    Message('note_on', channel=1, note=57, velocity=121, time=0),
    Message('note_off', channel=1, note=57, velocity=64, time=192),
    Message('note_on', channel=1, note=52, velocity=121, time=0),
    Message('note_off', channel=1, note=52, velocity=64, time=96),
    Message('note_on', channel=1, note=47, velocity=121, time=0),
    Message('note_off', channel=1, note=47, velocity=64, time=96),
    Message('note_on', channel=1, note=40, velocity=121, time=0),
    Message('note_off', channel=1, note=40, velocity=64, time=96),
    Message('note_on', channel=1, note=39, velocity=121, time=0),
    Message('note_off', channel=1, note=39, velocity=64, time=96),
    Message('note_on', channel=1, note=49, velocity=121, time=0),
    Message('note_off', channel=1, note=49, velocity=64, time=96),
    Message('note_on', channel=1, note=51, velocity=121, time=0),
    Message('note_off', channel=1, note=51, velocity=64, time=96),
    Message('note_on', channel=1, note=58, velocity=121, time=0),
    Message('note_off', channel=1, note=58, velocity=64, time=192),
    Message('note_on', channel=1, note=51, velocity=121, time=0),
    Message('note_off', channel=1, note=51, velocity=64, time=96),
    Message('note_on', channel=1, note=49, velocity=121, time=0),
    Message('note_off', channel=1, note=49, velocity=64, time=96),
    Message('note_on', channel=1, note=39, velocity=121, time=0),
    Message('note_off', channel=1, note=39, velocity=64, time=96),
    Message('note_on', channel=1, note=65, velocity=121, time=0),
    Message('note_on', channel=1, note=61, velocity=121, time=0),
    Message('note_on', channel=1, note=56, velocity=121, time=0),
    Message('note_on', channel=1, note=49, velocity=121, time=0),
    Message('note_on', channel=1, note=65, velocity=121, time=288),
    Message('note_on', channel=1, note=66, velocity=121, time=20),
    Message('note_off', channel=1, note=65, velocity=64, time=12),
    Message('note_on', channel=1, note=65, velocity=121, time=64),
    Message('note_off', channel=1, note=66, velocity=64, time=4),
    Message('note_off', channel=1, note=65, velocity=64, time=60),
    Message('note_on', channel=1, note=61, velocity=121, time=32),
    Message('note_off', channel=1, note=65, velocity=64, time=32),
    Message('note_off', channel=1, note=61, velocity=64, time=32),
    Message('note_on', channel=1, note=56, velocity=121, time=32),
    Message('note_off', channel=1, note=61, velocity=64, time=32),
    Message('note_off', channel=1, note=56, velocity=64, time=32),
    Message('note_on', channel=1, note=61, velocity=121, time=32),
    Message('note_off', channel=1, note=56, velocity=64, time=32),
    Message('note_off', channel=1, note=49, velocity=64, time=64),
    Message('note_off', channel=1, note=61, velocity=64, time=0),
    Message('note_on', channel=1, note=47, velocity=121, time=0),
    Message('note_on', channel=1, note=54, velocity=121, time=96),
    Message('note_off', channel=1, note=47, velocity=64, time=32),
    Message('note_on', channel=1, note=59, velocity=121, time=64),
    Message('note_off', channel=1, note=54, velocity=64, time=32),
    Message('note_on', channel=1, note=63, velocity=121, time=64),
    Message('note_off', channel=1, note=59, velocity=64, time=32),
    Message('note_off', channel=1, note=63, velocity=64, time=160),
    Message('note_on', channel=1, note=59, velocity=121, time=0),
    Message('note_on', channel=1, note=54, velocity=121, time=96),
    Message('note_off', channel=1, note=59, velocity=64, time=32),
    Message('note_on', channel=1, note=59, velocity=121, time=64),
    Message('note_off', channel=1, note=54, velocity=64, time=32),
    Message('note_on', channel=1, note=40, velocity=121, time=64),
    Message('note_off', channel=1, note=59, velocity=64, time=32),
    Message('note_off', channel=1, note=40, velocity=64, time=64),
    Message('note_on', channel=1, note=47, velocity=121, time=0),
    Message('note_off', channel=1, note=47, velocity=64, time=96),
    Message('note_on', channel=1, note=52, velocity=121, time=0),
    Message('note_off', channel=1, note=52, velocity=64, time=96),
    Message('note_on', channel=1, note=57, velocity=121, time=0),
    Message('note_off', channel=1, note=57, velocity=64, time=192),
    Message('note_on', channel=1, note=52, velocity=121, time=0),
    Message('note_off', channel=1, note=52, velocity=64, time=96),
    Message('note_on', channel=1, note=47, velocity=121, time=0),
    Message('note_off', channel=1, note=47, velocity=64, time=96),
    Message('note_on', channel=1, note=40, velocity=121, time=0),
    Message('note_off', channel=1, note=40, velocity=64, time=96),
    Message('note_on', channel=1, note=39, velocity=121, time=0),
    Message('note_off', channel=1, note=39, velocity=64, time=96),
    Message('note_on', channel=1, note=49, velocity=121, time=0),
    Message('note_off', channel=1, note=49, velocity=64, time=96),
    Message('note_on', channel=1, note=51, velocity=121, time=0),
    Message('note_off', channel=1, note=51, velocity=64, time=96),
    Message('note_on', channel=1, note=58, velocity=121, time=0),
    Message('note_off', channel=1, note=58, velocity=64, time=192),
    Message('note_on', channel=1, note=51, velocity=121, time=0),
    Message('note_off', channel=1, note=51, velocity=64, time=96),
    Message('note_on', channel=1, note=49, velocity=121, time=0),
    Message('note_off', channel=1, note=49, velocity=64, time=96),
    Message('note_on', channel=1, note=39, velocity=121, time=0),
    Message('note_off', channel=1, note=39, velocity=64, time=96),
    Message('note_on', channel=1, note=43, velocity=121, time=0),
    Message('note_on', channel=1, note=44, velocity=121, time=16),
    Message('note_off', channel=1, note=43, velocity=64, time=48),
    Message('note_on', channel=1, note=51, velocity=121, time=32),
    Message('note_off', channel=1, note=44, velocity=64, time=16),
    Message('note_off', channel=1, note=51, velocity=64, time=80),
    Message('note_on', channel=1, note=56, velocity=121, time=0),
    Message('note_off', channel=1, note=56, velocity=64, time=96),
    Message('note_on', channel=1, note=44, velocity=121, time=0),
    Message('note_off', channel=1, note=44, velocity=64, time=96),
    Message('note_on', channel=1, note=43, velocity=121, time=0),
    Message('note_off', channel=1, note=43, velocity=64, time=96),
    Message('note_on', channel=1, note=51, velocity=121, time=0),
    Message('note_off', channel=1, note=51, velocity=64, time=96),
    Message('note_on', channel=1, note=56, velocity=121, time=0),
    Message('note_off', channel=1, note=56, velocity=64, time=96),
    Message('note_on', channel=1, note=43, velocity=121, time=0),
    Message('note_off', channel=1, note=43, velocity=64, time=96),
    Message('note_on', channel=1, note=47, velocity=121, time=0),
    Message('note_off', channel=1, note=47, velocity=64, time=96),
    Message('note_on', channel=1, note=54, velocity=121, time=0),
    Message('note_off', channel=1, note=54, velocity=64, time=96),
    Message('note_on', channel=1, note=59, velocity=121, time=0),
    Message('note_off', channel=1, note=59, velocity=64, time=96),
    Message('note_on', channel=1, note=63, velocity=121, time=0),
    Message('note_off', channel=1, note=63, velocity=64, time=192),
    Message('note_on', channel=1, note=59, velocity=121, time=0),
    Message('note_off', channel=1, note=59, velocity=64, time=96),
    Message('note_on', channel=1, note=54, velocity=121, time=0),
    Message('note_off', channel=1, note=54, velocity=64, time=96),
    Message('note_on', channel=1, note=47, velocity=121, time=0),
    Message('note_off', channel=1, note=47, velocity=64, time=96),
    Message('note_on', channel=1, note=40, velocity=121, time=0),
    Message('note_off', channel=1, note=40, velocity=64, time=96),
    Message('note_on', channel=1, note=47, velocity=121, time=0),
    Message('note_off', channel=1, note=47, velocity=64, time=96),
    Message('note_on', channel=1, note=52, velocity=121, time=0),
    Message('note_off', channel=1, note=52, velocity=64, time=96),
    Message('note_on', channel=1, note=57, velocity=121, time=0),
    Message('note_off', channel=1, note=57, velocity=64, time=192),
    Message('note_on', channel=1, note=52, velocity=121, time=0),
    Message('note_off', channel=1, note=52, velocity=64, time=96),
    Message('note_on', channel=1, note=47, velocity=121, time=0),
    Message('note_off', channel=1, note=47, velocity=64, time=96),
    Message('note_on', channel=1, note=40, velocity=121, time=0),
    Message('note_off', channel=1, note=40, velocity=64, time=96),
    Message('note_on', channel=1, note=39, velocity=121, time=0),
    Message('note_off', channel=1, note=39, velocity=64, time=96),
    Message('note_on', channel=1, note=49, velocity=121, time=0),
    Message('note_off', channel=1, note=49, velocity=64, time=96),
    Message('note_on', channel=1, note=51, velocity=121, time=0),
    Message('note_off', channel=1, note=51, velocity=64, time=96),
    Message('note_on', channel=1, note=58, velocity=121, time=0),
    Message('note_off', channel=1, note=58, velocity=64, time=192),
    Message('note_on', channel=1, note=51, velocity=121, time=0),
    Message('note_off', channel=1, note=51, velocity=64, time=96),
    Message('note_on', channel=1, note=49, velocity=121, time=0),
    Message('note_off', channel=1, note=49, velocity=64, time=96),
    Message('note_on', channel=1, note=39, velocity=121, time=0),
    Message('note_off', channel=1, note=39, velocity=64, time=96),
    Message('note_on', channel=1, note=65, velocity=121, time=0),
    Message('note_on', channel=1, note=61, velocity=121, time=0),
    Message('note_on', channel=1, note=56, velocity=121, time=0),
    Message('note_on', channel=1, note=49, velocity=121, time=0),
    Message('note_on', channel=1, note=65, velocity=121, time=288),
    Message('note_on', channel=1, note=66, velocity=121, time=20),
    Message('note_off', channel=1, note=65, velocity=64, time=12),
    Message('note_on', channel=1, note=65, velocity=121, time=64),
    Message('note_off', channel=1, note=66, velocity=64, time=4),
    Message('note_off', channel=1, note=65, velocity=64, time=60),
    Message('note_on', channel=1, note=61, velocity=121, time=32),
    Message('note_off', channel=1, note=61, velocity=64, time=64),
    Message('note_on', channel=1, note=56, velocity=121, time=32),
    Message('note_off', channel=1, note=56, velocity=64, time=128),
    Message('note_off', channel=1, note=49, velocity=64, time=64),
    Message('note_off', channel=1, note=65, velocity=64, time=0),
    Message('note_off', channel=1, note=61, velocity=64, time=0),
    Message('note_off', channel=1, note=56, velocity=64, time=0),
    Message('note_on', channel=1, note=63, velocity=121, time=0),
    Message('note_on', channel=1, note=59, velocity=121, time=0),
    Message('note_on', channel=1, note=54, velocity=121, time=0),
    Message('note_on', channel=1, note=47, velocity=121, time=0),
    Message('note_on', channel=1, note=63, velocity=121, time=288),
    Message('note_on', channel=1, note=64, velocity=121, time=20),
    Message('note_off', channel=1, note=63, velocity=64, time=12),
    Message('note_on', channel=1, note=63, velocity=121, time=64),
    Message('note_off', channel=1, note=64, velocity=64, time=4),
    Message('note_off', channel=1, note=63, velocity=64, time=60),
    Message('note_on', channel=1, note=59, velocity=121, time=32),
    Message('note_off', channel=1, note=59, velocity=64, time=64),
    Message('note_on', channel=1, note=54, velocity=121, time=32),
    Message('note_off', channel=1, note=54, velocity=64, time=64),
    Message('note_on', channel=1, note=59, velocity=121, time=32),
    Message('note_off', channel=1, note=59, velocity=64, time=64),
    Message('note_off', channel=1, note=47, velocity=64, time=32),
    Message('note_off', channel=1, note=63, velocity=64, time=0),
    Message('note_off', channel=1, note=54, velocity=64, time=0),
    Message('note_off', channel=1, note=59, velocity=64, time=0),
    Message('note_on', channel=1, note=67, velocity=121, time=0),
    Message('note_on', channel=1, note=63, velocity=121, time=0),
    Message('note_on', channel=1, note=58, velocity=121, time=0),
    Message('note_on', channel=1, note=51, velocity=121, time=0),
    Message('note_on', channel=1, note=67, velocity=121, time=288),
    Message('note_on', channel=1, note=68, velocity=121, time=20),
    Message('note_off', channel=1, note=67, velocity=64, time=12),
    Message('note_on', channel=1, note=67, velocity=121, time=64),
    Message('note_off', channel=1, note=68, velocity=64, time=4),
    Message('note_off', channel=1, note=67, velocity=64, time=60),
    Message('note_on', channel=1, note=63, velocity=121, time=32),
    Message('note_off', channel=1, note=63, velocity=64, time=64),
    Message('note_on', channel=1, note=58, velocity=121, time=32),
    Message('note_off', channel=1, note=58, velocity=64, time=64),
    Message('note_on', channel=1, note=63, velocity=121, time=32),
    Message('note_off', channel=1, note=63, velocity=64, time=64),
    Message('note_off', channel=1, note=51, velocity=64, time=32),
    Message('note_off', channel=1, note=67, velocity=64, time=0),
    Message('note_off', channel=1, note=58, velocity=64, time=0),
    Message('note_off', channel=1, note=63, velocity=64, time=0),
    Message('note_on', channel=1, note=65, velocity=121, time=0),
    Message('note_on', channel=1, note=61, velocity=121, time=0),
    Message('note_on', channel=1, note=56, velocity=121, time=0),
    Message('note_on', channel=1, note=49, velocity=121, time=0),
    Message('note_on', channel=1, note=65, velocity=121, time=288),
    Message('note_on', channel=1, note=66, velocity=121, time=20),
    Message('note_off', channel=1, note=65, velocity=64, time=12),
    Message('note_on', channel=1, note=65, velocity=121, time=64),
    Message('note_off', channel=1, note=66, velocity=64, time=4),
    Message('note_off', channel=1, note=65, velocity=64, time=60),
    Message('note_on', channel=1, note=61, velocity=121, time=32),
    Message('note_off', channel=1, note=61, velocity=64, time=64),
    Message('note_on', channel=1, note=56, velocity=121, time=32),
    Message('note_off', channel=1, note=56, velocity=64, time=128),
    Message('note_off', channel=1, note=49, velocity=64, time=64),
    Message('note_off', channel=1, note=65, velocity=64, time=0),
    Message('note_off', channel=1, note=61, velocity=64, time=0),
    Message('note_off', channel=1, note=56, velocity=64, time=0),
    Message('note_on', channel=1, note=63, velocity=121, time=0),
    Message('note_on', channel=1, note=59, velocity=121, time=0),
    Message('note_on', channel=1, note=54, velocity=121, time=0),
    Message('note_on', channel=1, note=47, velocity=121, time=0),
    Message('note_on', channel=1, note=63, velocity=121, time=288),
    Message('note_on', channel=1, note=64, velocity=121, time=20),
    Message('note_off', channel=1, note=63, velocity=64, time=12),
    Message('note_on', channel=1, note=63, velocity=121, time=64),
    Message('note_off', channel=1, note=64, velocity=64, time=4),
    Message('note_off', channel=1, note=63, velocity=64, time=60),
    Message('note_on', channel=1, note=59, velocity=121, time=32),
    Message('note_off', channel=1, note=59, velocity=64, time=64),
    Message('note_on', channel=1, note=54, velocity=121, time=32),
    Message('note_off', channel=1, note=54, velocity=64, time=64),
    Message('note_on', channel=1, note=59, velocity=121, time=32),
    Message('note_off', channel=1, note=59, velocity=64, time=64),
    Message('note_off', channel=1, note=47, velocity=64, time=32),
    Message('note_off', channel=1, note=63, velocity=64, time=0),
    Message('note_off', channel=1, note=54, velocity=64, time=0),
    Message('note_off', channel=1, note=59, velocity=64, time=0),
    Message('note_on', channel=1, note=67, velocity=121, time=0),
    Message('note_on', channel=1, note=63, velocity=121, time=0),
    Message('note_on', channel=1, note=58, velocity=121, time=0),
    Message('note_on', channel=1, note=51, velocity=121, time=0),
    Message('note_on', channel=1, note=67, velocity=121, time=288),
    Message('note_on', channel=1, note=63, velocity=121, time=0),
    Message('note_on', channel=1, note=58, velocity=121, time=0),
    Message('note_on', channel=1, note=51, velocity=121, time=0),
    Message('note_off', channel=1, note=67, velocity=64, time=96),
    Message('note_off', channel=1, note=63, velocity=64, time=0),
    Message('note_off', channel=1, note=58, velocity=64, time=0),
    Message('note_off', channel=1, note=51, velocity=64, time=0),
    Message('note_on', channel=1, note=67, velocity=121, time=0),
    Message('note_on', channel=1, note=63, velocity=121, time=0),
    Message('note_on', channel=1, note=58, velocity=121, time=0),
    Message('note_on', channel=1, note=51, velocity=121, time=0),
    Message('note_off', channel=1, note=67, velocity=64, time=192),
    Message('note_off', channel=1, note=63, velocity=64, time=0),
    Message('note_off', channel=1, note=58, velocity=64, time=0),
    Message('note_off', channel=1, note=51, velocity=64, time=0),
    Message('note_on', channel=1, note=67, velocity=121, time=0),
    Message('note_on', channel=1, note=63, velocity=121, time=0),
    Message('note_on', channel=1, note=58, velocity=121, time=0),
    Message('note_on', channel=1, note=51, velocity=121, time=0),
    Message('note_off', channel=1, note=67, velocity=64, time=192),
    Message('note_off', channel=1, note=63, velocity=64, time=0),
    Message('note_off', channel=1, note=58, velocity=64, time=0),
    Message('note_off', channel=1, note=51, velocity=64, time=0),
    Message('note_off', channel=1, note=67, velocity=64, time=0),
    Message('note_off', channel=1, note=63, velocity=64, time=0),
    Message('note_off', channel=1, note=58, velocity=64, time=0),
    Message('note_off', channel=1, note=51, velocity=64, time=0),
    Message('note_on', channel=1, note=65, velocity=121, time=0),
    Message('note_on', channel=1, note=61, velocity=121, time=0),
    Message('note_on', channel=1, note=56, velocity=121, time=0),
    Message('note_on', channel=1, note=49, velocity=121, time=0),
    Message('note_on', channel=1, note=65, velocity=121, time=288),
    Message('note_on', channel=1, note=66, velocity=121, time=20),
    Message('note_off', channel=1, note=65, velocity=64, time=12),
    Message('note_on', channel=1, note=65, velocity=121, time=64),
    Message('note_off', channel=1, note=66, velocity=64, time=4),
    Message('note_off', channel=1, note=65, velocity=64, time=60),
    Message('note_on', channel=1, note=61, velocity=121, time=32),
    Message('note_off', channel=1, note=61, velocity=64, time=64),
    Message('note_on', channel=1, note=56, velocity=121, time=32),
    Message('note_off', channel=1, note=56, velocity=64, time=128),
    Message('note_off', channel=1, note=49, velocity=64, time=64),
    Message('note_off', channel=1, note=65, velocity=64, time=0),
    Message('note_off', channel=1, note=61, velocity=64, time=0),
    Message('note_off', channel=1, note=56, velocity=64, time=0),
    Message('note_on', channel=1, note=63, velocity=121, time=0),
    Message('note_on', channel=1, note=59, velocity=121, time=0),
    Message('note_on', channel=1, note=54, velocity=121, time=0),
    Message('note_on', channel=1, note=47, velocity=121, time=0),
    Message('note_on', channel=1, note=63, velocity=121, time=288),
    Message('note_on', channel=1, note=64, velocity=121, time=20),
    Message('note_off', channel=1, note=63, velocity=64, time=12),
    Message('note_on', channel=1, note=63, velocity=121, time=64),
    Message('note_off', channel=1, note=64, velocity=64, time=4),
    Message('note_off', channel=1, note=63, velocity=64, time=60),
    Message('note_on', channel=1, note=59, velocity=121, time=32),
    Message('note_off', channel=1, note=59, velocity=64, time=64),
    Message('note_on', channel=1, note=54, velocity=121, time=32),
    Message('note_off', channel=1, note=54, velocity=64, time=64),
    Message('note_on', channel=1, note=59, velocity=121, time=32),
    Message('note_off', channel=1, note=59, velocity=64, time=64),
    Message('note_off', channel=1, note=47, velocity=64, time=32),
    Message('note_off', channel=1, note=63, velocity=64, time=0),
    Message('note_off', channel=1, note=54, velocity=64, time=0),
    Message('note_off', channel=1, note=59, velocity=64, time=0),
    Message('note_on', channel=1, note=67, velocity=121, time=0),
    Message('note_on', channel=1, note=63, velocity=121, time=0),
    Message('note_on', channel=1, note=58, velocity=121, time=0),
    Message('note_on', channel=1, note=51, velocity=121, time=0),
    Message('note_on', channel=1, note=67, velocity=121, time=288),
    Message('note_on', channel=1, note=68, velocity=121, time=20),
    Message('note_off', channel=1, note=67, velocity=64, time=12),
    Message('note_on', channel=1, note=67, velocity=121, time=64),
    Message('note_off', channel=1, note=68, velocity=64, time=4),
    Message('note_off', channel=1, note=67, velocity=64, time=60),
    Message('note_on', channel=1, note=63, velocity=121, time=32),
    Message('note_off', channel=1, note=63, velocity=64, time=64),
    Message('note_on', channel=1, note=58, velocity=121, time=32),
    Message('note_off', channel=1, note=58, velocity=64, time=64),
    Message('note_on', channel=1, note=63, velocity=121, time=32),
    Message('note_off', channel=1, note=63, velocity=64, time=64),
    Message('note_off', channel=1, note=51, velocity=64, time=32),
    Message('note_off', channel=1, note=67, velocity=64, time=0),
    Message('note_off', channel=1, note=58, velocity=64, time=0),
    Message('note_off', channel=1, note=63, velocity=64, time=0),
    Message('note_on', channel=1, note=65, velocity=121, time=0),
    Message('note_on', channel=1, note=61, velocity=121, time=0),
    Message('note_on', channel=1, note=56, velocity=121, time=0),
    Message('note_on', channel=1, note=49, velocity=121, time=0),
    Message('note_on', channel=1, note=65, velocity=121, time=288),
    Message('note_on', channel=1, note=66, velocity=121, time=20),
    Message('note_off', channel=1, note=65, velocity=64, time=12),
    Message('note_on', channel=1, note=65, velocity=121, time=64),
    Message('note_off', channel=1, note=66, velocity=64, time=4),
    Message('note_off', channel=1, note=65, velocity=64, time=60),
    Message('note_on', channel=1, note=61, velocity=121, time=32),
    Message('note_off', channel=1, note=61, velocity=64, time=64),
    Message('note_on', channel=1, note=56, velocity=121, time=32),
    Message('note_off', channel=1, note=56, velocity=64, time=128),
    Message('note_off', channel=1, note=49, velocity=64, time=64),
    Message('note_off', channel=1, note=65, velocity=64, time=0),
    Message('note_off', channel=1, note=61, velocity=64, time=0),
    Message('note_off', channel=1, note=56, velocity=64, time=0),
    Message('note_on', channel=1, note=63, velocity=121, time=0),
    Message('note_on', channel=1, note=59, velocity=121, time=0),
    Message('note_on', channel=1, note=54, velocity=121, time=0),
    Message('note_on', channel=1, note=47, velocity=121, time=0),
    Message('note_on', channel=1, note=63, velocity=121, time=288),
    Message('note_on', channel=1, note=64, velocity=121, time=20),
    Message('note_off', channel=1, note=63, velocity=64, time=12),
    Message('note_on', channel=1, note=63, velocity=121, time=64),
    Message('note_off', channel=1, note=64, velocity=64, time=4),
    Message('note_off', channel=1, note=63, velocity=64, time=60),
    Message('note_on', channel=1, note=59, velocity=121, time=32),
    Message('note_off', channel=1, note=59, velocity=64, time=64),
    Message('note_on', channel=1, note=54, velocity=121, time=32),
    Message('note_off', channel=1, note=54, velocity=64, time=64),
    Message('note_on', channel=1, note=59, velocity=121, time=32),
    Message('note_off', channel=1, note=59, velocity=64, time=64),
    Message('note_off', channel=1, note=47, velocity=64, time=32),
    Message('note_off', channel=1, note=63, velocity=64, time=0),
    Message('note_off', channel=1, note=54, velocity=64, time=0),
    Message('note_off', channel=1, note=59, velocity=64, time=0),
    Message('note_on', channel=1, note=67, velocity=121, time=0),
    Message('note_on', channel=1, note=63, velocity=121, time=0),
    Message('note_on', channel=1, note=58, velocity=121, time=0),
    Message('note_on', channel=1, note=51, velocity=121, time=0),
    Message('note_on', channel=1, note=67, velocity=121, time=288),
    Message('note_on', channel=1, note=63, velocity=121, time=0),
    Message('note_on', channel=1, note=58, velocity=121, time=0),
    Message('note_on', channel=1, note=51, velocity=121, time=0),
    Message('note_off', channel=1, note=67, velocity=64, time=96),
    Message('note_off', channel=1, note=63, velocity=64, time=0),
    Message('note_off', channel=1, note=58, velocity=64, time=0),
    Message('note_off', channel=1, note=51, velocity=64, time=0),
    Message('note_on', channel=1, note=67, velocity=121, time=0),
    Message('note_on', channel=1, note=63, velocity=121, time=0),
    Message('note_on', channel=1, note=58, velocity=121, time=0),
    Message('note_on', channel=1, note=51, velocity=121, time=0),
    Message('note_off', channel=1, note=67, velocity=64, time=192),
    Message('note_off', channel=1, note=63, velocity=64, time=0),
    Message('note_off', channel=1, note=58, velocity=64, time=0),
    Message('note_off', channel=1, note=51, velocity=64, time=0),
    Message('note_on', channel=1, note=67, velocity=121, time=0),
    Message('note_on', channel=1, note=63, velocity=121, time=0),
    Message('note_on', channel=1, note=58, velocity=121, time=0),
    Message('note_on', channel=1, note=51, velocity=121, time=0),
    Message('note_off', channel=1, note=67, velocity=64, time=192),
    Message('note_off', channel=1, note=63, velocity=64, time=0),
    Message('note_off', channel=1, note=58, velocity=64, time=0),
    Message('note_off', channel=1, note=51, velocity=64, time=0),
    Message('note_off', channel=1, note=67, velocity=64, time=0),
    Message('note_off', channel=1, note=63, velocity=64, time=0),
    Message('note_off', channel=1, note=58, velocity=64, time=0),
    Message('note_off', channel=1, note=51, velocity=64, time=0),
    Message('note_on', channel=1, note=49, velocity=121, time=0),
    Message('note_off', channel=1, note=49, velocity=64, time=96),
    Message('note_on', channel=1, note=48, velocity=121, time=0),
    Message('note_off', channel=1, note=48, velocity=64, time=192),
    Message('note_on', channel=1, note=46, velocity=121, time=0),
    Message('note_off', channel=1, note=46, velocity=64, time=192),
    Message('note_on', channel=1, note=48, velocity=121, time=0),
    Message('note_on', channel=1, note=49, velocity=121, time=10),
    Message('note_off', channel=1, note=48, velocity=64, time=6),
    Message('note_on', channel=1, note=44, velocity=121, time=80),
    Message('note_off', channel=1, note=49, velocity=64, time=10),
    Message('note_off', channel=1, note=44, velocity=64, time=86),
    Message('note_on', channel=1, note=43, velocity=121, time=0),
    Message('note_off', channel=1, note=43, velocity=64, time=192),
    Message('note_on', channel=1, note=42, velocity=121, time=0),
    Message('note_on', channel=1, note=68, velocity=121, time=288),
    Message('note_on', channel=1, note=63, velocity=121, time=0),
    Message('note_on', channel=1, note=60, velocity=121, time=0),
    Message('note_on', channel=1, note=54, velocity=121, time=0),
    Message('note_on', channel=1, note=49, velocity=121, time=0),
    Message('note_on', channel=1, note=42, velocity=121, time=0),
    Message('note_off', channel=1, note=42, velocity=64, time=96),
    Message('note_on', channel=1, note=68, velocity=121, time=192),
    Message('note_on', channel=1, note=63, velocity=121, time=0),
    Message('note_on', channel=1, note=60, velocity=121, time=0),
    Message('note_on', channel=1, note=54, velocity=121, time=0),
    Message('note_on', channel=1, note=49, velocity=121, time=0),
    Message('note_on', channel=1, note=42, velocity=121, time=0),
    Message('note_off', channel=1, note=68, velocity=64, time=96),
    Message('note_off', channel=1, note=63, velocity=64, time=0),
    Message('note_off', channel=1, note=60, velocity=64, time=0),
    Message('note_off', channel=1, note=54, velocity=64, time=0),
    Message('note_off', channel=1, note=49, velocity=64, time=0),
    Message('note_off', channel=1, note=42, velocity=64, time=0),
    Message('note_off', channel=1, note=68, velocity=64, time=0),
    Message('note_off', channel=1, note=63, velocity=64, time=0),
    Message('note_off', channel=1, note=60, velocity=64, time=0),
    Message('note_off', channel=1, note=54, velocity=64, time=0),
    Message('note_off', channel=1, note=49, velocity=64, time=0),
    Message('note_off', channel=1, note=42, velocity=64, time=0),
    Message('note_on', channel=1, note=68, velocity=121, time=0),
    Message('note_on', channel=1, note=63, velocity=121, time=0),
    Message('note_on', channel=1, note=60, velocity=121, time=0),
    Message('note_on', channel=1, note=54, velocity=121, time=0),
    Message('note_on', channel=1, note=49, velocity=121, time=0),
    Message('note_on', channel=1, note=42, velocity=121, time=0),
    Message('note_off', channel=1, note=68, velocity=64, time=192),
    Message('note_off', channel=1, note=63, velocity=64, time=0),
    Message('note_off', channel=1, note=60, velocity=64, time=0),
    Message('note_off', channel=1, note=54, velocity=64, time=0),
    Message('note_off', channel=1, note=49, velocity=64, time=0),
    Message('note_off', channel=1, note=42, velocity=64, time=0),
    Message('note_on', channel=1, note=49, velocity=121, time=0),
    Message('note_off', channel=1, note=49, velocity=64, time=96),
    Message('note_on', channel=1, note=48, velocity=121, time=0),
    Message('note_off', channel=1, note=48, velocity=64, time=192),
    Message('note_on', channel=1, note=46, velocity=121, time=0),
    Message('note_off', channel=1, note=46, velocity=64, time=192),
    Message('note_on', channel=1, note=48, velocity=121, time=0),
    Message('note_on', channel=1, note=49, velocity=121, time=10),
    Message('note_off', channel=1, note=48, velocity=64, time=6),
    Message('note_on', channel=1, note=44, velocity=121, time=80),
    Message('note_off', channel=1, note=49, velocity=64, time=10),
    Message('note_off', channel=1, note=44, velocity=64, time=86),
    Message('note_on', channel=1, note=43, velocity=121, time=0),
    Message('note_off', channel=1, note=43, velocity=64, time=192),
    Message('note_on', channel=1, note=42, velocity=121, time=0),
    Message('note_on', channel=1, note=68, velocity=121, time=288),
    Message('note_on', channel=1, note=63, velocity=121, time=0),
    Message('note_on', channel=1, note=60, velocity=121, time=0),
    Message('note_on', channel=1, note=54, velocity=121, time=0),
    Message('note_on', channel=1, note=49, velocity=121, time=0),
    Message('note_on', channel=1, note=42, velocity=121, time=0),
    Message('note_off', channel=1, note=42, velocity=64, time=96),
    Message('note_on', channel=1, note=68, velocity=121, time=192),
    Message('note_on', channel=1, note=63, velocity=121, time=0),
    Message('note_on', channel=1, note=60, velocity=121, time=0),
    Message('note_on', channel=1, note=54, velocity=121, time=0),
    Message('note_on', channel=1, note=49, velocity=121, time=0),
    Message('note_on', channel=1, note=42, velocity=121, time=0),
    Message('note_off', channel=1, note=68, velocity=64, time=96),
    Message('note_off', channel=1, note=63, velocity=64, time=0),
    Message('note_off', channel=1, note=60, velocity=64, time=0),
    Message('note_off', channel=1, note=54, velocity=64, time=0),
    Message('note_off', channel=1, note=49, velocity=64, time=0),
    Message('note_off', channel=1, note=42, velocity=64, time=0),
    Message('note_off', channel=1, note=68, velocity=64, time=0),
    Message('note_off', channel=1, note=63, velocity=64, time=0),
    Message('note_off', channel=1, note=60, velocity=64, time=0),
    Message('note_off', channel=1, note=54, velocity=64, time=0),
    Message('note_off', channel=1, note=49, velocity=64, time=0),
    Message('note_off', channel=1, note=42, velocity=64, time=0),
    Message('note_on', channel=1, note=68, velocity=121, time=0),
    Message('note_on', channel=1, note=63, velocity=121, time=0),
    Message('note_on', channel=1, note=60, velocity=121, time=0),
    Message('note_on', channel=1, note=54, velocity=121, time=0),
    Message('note_on', channel=1, note=49, velocity=121, time=0),
    Message('note_on', channel=1, note=42, velocity=121, time=0),
    Message('note_off', channel=1, note=68, velocity=64, time=192),
    Message('note_off', channel=1, note=63, velocity=64, time=0),
    Message('note_off', channel=1, note=60, velocity=64, time=0),
    Message('note_off', channel=1, note=54, velocity=64, time=0),
    Message('note_off', channel=1, note=49, velocity=64, time=0),
    Message('note_off', channel=1, note=42, velocity=64, time=0),
    Message('note_on', channel=1, note=49, velocity=121, time=0),
    Message('note_off', channel=1, note=49, velocity=64, time=96),
    Message('note_on', channel=1, note=48, velocity=121, time=0),
    Message('note_off', channel=1, note=48, velocity=64, time=192),
    Message('note_on', channel=1, note=46, velocity=121, time=0),
    Message('note_off', channel=1, note=46, velocity=64, time=192),
    Message('note_on', channel=1, note=48, velocity=121, time=0),
    Message('note_on', channel=1, note=49, velocity=121, time=10),
    Message('note_off', channel=1, note=48, velocity=64, time=6),
    Message('note_on', channel=1, note=44, velocity=121, time=80),
    Message('note_off', channel=1, note=49, velocity=64, time=10),
    Message('note_off', channel=1, note=44, velocity=64, time=86),
    Message('note_on', channel=1, note=43, velocity=121, time=0),
    Message('note_off', channel=1, note=43, velocity=64, time=192),
    Message('note_on', channel=1, note=42, velocity=121, time=0),
    Message('note_on', channel=1, note=68, velocity=121, time=288),
    Message('note_on', channel=1, note=63, velocity=121, time=0),
    Message('note_on', channel=1, note=60, velocity=121, time=0),
    Message('note_on', channel=1, note=54, velocity=121, time=0),
    Message('note_on', channel=1, note=49, velocity=121, time=0),
    Message('note_on', channel=1, note=42, velocity=121, time=0),
    Message('note_off', channel=1, note=42, velocity=64, time=96),
    Message('note_on', channel=1, note=68, velocity=121, time=192),
    Message('note_on', channel=1, note=63, velocity=121, time=0),
    Message('note_on', channel=1, note=60, velocity=121, time=0),
    Message('note_on', channel=1, note=54, velocity=121, time=0),
    Message('note_on', channel=1, note=49, velocity=121, time=0),
    Message('note_on', channel=1, note=42, velocity=121, time=0),
    Message('note_off', channel=1, note=68, velocity=64, time=96),
    Message('note_off', channel=1, note=63, velocity=64, time=0),
    Message('note_off', channel=1, note=60, velocity=64, time=0),
    Message('note_off', channel=1, note=54, velocity=64, time=0),
    Message('note_off', channel=1, note=49, velocity=64, time=0),
    Message('note_off', channel=1, note=42, velocity=64, time=0),
    Message('note_off', channel=1, note=68, velocity=64, time=0),
    Message('note_off', channel=1, note=63, velocity=64, time=0),
    Message('note_off', channel=1, note=60, velocity=64, time=0),
    Message('note_off', channel=1, note=54, velocity=64, time=0),
    Message('note_off', channel=1, note=49, velocity=64, time=0),
    Message('note_off', channel=1, note=42, velocity=64, time=0),
    Message('note_on', channel=1, note=68, velocity=121, time=0),
    Message('note_on', channel=1, note=63, velocity=121, time=0),
    Message('note_on', channel=1, note=60, velocity=121, time=0),
    Message('note_on', channel=1, note=54, velocity=121, time=0),
    Message('note_on', channel=1, note=49, velocity=121, time=0),
    Message('note_on', channel=1, note=42, velocity=121, time=0),
    Message('note_off', channel=1, note=68, velocity=64, time=192),
    Message('note_off', channel=1, note=63, velocity=64, time=0),
    Message('note_off', channel=1, note=60, velocity=64, time=0),
    Message('note_off', channel=1, note=54, velocity=64, time=0),
    Message('note_off', channel=1, note=49, velocity=64, time=0),
    Message('note_off', channel=1, note=42, velocity=64, time=0),
    Message('note_on', channel=1, note=49, velocity=121, time=0),
    Message('note_off', channel=1, note=49, velocity=64, time=96),
    Message('note_on', channel=1, note=48, velocity=121, time=0),
    Message('note_off', channel=1, note=48, velocity=64, time=192),
    Message('note_on', channel=1, note=46, velocity=121, time=0),
    Message('note_off', channel=1, note=46, velocity=64, time=192),
    Message('note_on', channel=1, note=48, velocity=121, time=0),
    Message('note_on', channel=1, note=49, velocity=121, time=10),
    Message('note_off', channel=1, note=48, velocity=64, time=6),
    Message('note_on', channel=1, note=44, velocity=121, time=80),
    Message('note_off', channel=1, note=49, velocity=64, time=10),
    Message('note_off', channel=1, note=44, velocity=64, time=86),
    Message('note_on', channel=1, note=43, velocity=121, time=0),
    Message('note_off', channel=1, note=43, velocity=64, time=192),
    Message('note_on', channel=1, note=42, velocity=121, time=0),
    Message('note_on', channel=1, note=68, velocity=121, time=288),
    Message('note_on', channel=1, note=63, velocity=121, time=0),
    Message('note_on', channel=1, note=60, velocity=121, time=0),
    Message('note_on', channel=1, note=54, velocity=121, time=0),
    Message('note_on', channel=1, note=49, velocity=121, time=0),
    Message('note_on', channel=1, note=42, velocity=121, time=0),
    Message('note_off', channel=1, note=42, velocity=64, time=96),
    Message('note_on', channel=1, note=68, velocity=121, time=192),
    Message('note_on', channel=1, note=63, velocity=121, time=0),
    Message('note_on', channel=1, note=60, velocity=121, time=0),
    Message('note_on', channel=1, note=54, velocity=121, time=0),
    Message('note_on', channel=1, note=49, velocity=121, time=0),
    Message('note_on', channel=1, note=42, velocity=121, time=0),
    Message('note_off', channel=1, note=68, velocity=64, time=96),
    Message('note_off', channel=1, note=63, velocity=64, time=0),
    Message('note_off', channel=1, note=60, velocity=64, time=0),
    Message('note_off', channel=1, note=54, velocity=64, time=0),
    Message('note_off', channel=1, note=49, velocity=64, time=0),
    Message('note_off', channel=1, note=42, velocity=64, time=0),
    Message('note_off', channel=1, note=68, velocity=64, time=0),
    Message('note_off', channel=1, note=63, velocity=64, time=0),
    Message('note_off', channel=1, note=60, velocity=64, time=0),
    Message('note_off', channel=1, note=54, velocity=64, time=0),
    Message('note_off', channel=1, note=49, velocity=64, time=0),
    Message('note_off', channel=1, note=42, velocity=64, time=0),
    Message('note_on', channel=1, note=68, velocity=121, time=0),
    Message('note_on', channel=1, note=63, velocity=121, time=0),
    Message('note_on', channel=1, note=60, velocity=121, time=0),
    Message('note_on', channel=1, note=54, velocity=121, time=0),
    Message('note_on', channel=1, note=49, velocity=121, time=0),
    Message('note_on', channel=1, note=42, velocity=121, time=0),
    Message('note_off', channel=1, note=68, velocity=64, time=192),
    Message('note_off', channel=1, note=63, velocity=64, time=0),
    Message('note_off', channel=1, note=60, velocity=64, time=0),
    Message('note_off', channel=1, note=54, velocity=64, time=0),
    Message('note_off', channel=1, note=49, velocity=64, time=0),
    Message('note_off', channel=1, note=42, velocity=64, time=0),
    Message('note_on', channel=1, note=49, velocity=121, time=0),
    Message('note_off', channel=1, note=49, velocity=64, time=96),
    Message('note_on', channel=1, note=48, velocity=121, time=0),
    Message('note_off', channel=1, note=48, velocity=64, time=192),
    Message('note_on', channel=1, note=46, velocity=121, time=0),
    Message('note_off', channel=1, note=46, velocity=64, time=192),
    Message('note_on', channel=1, note=48, velocity=121, time=0),
    Message('note_on', channel=1, note=49, velocity=121, time=10),
    Message('note_off', channel=1, note=48, velocity=64, time=6),
    Message('note_on', channel=1, note=44, velocity=121, time=80),
    Message('note_off', channel=1, note=49, velocity=64, time=10),
    Message('note_off', channel=1, note=44, velocity=64, time=86),
    Message('note_on', channel=1, note=43, velocity=121, time=0),
    Message('note_off', channel=1, note=43, velocity=64, time=192),
    Message('note_on', channel=1, note=42, velocity=121, time=0),
    Message('note_on', channel=1, note=68, velocity=121, time=288),
    Message('note_on', channel=1, note=63, velocity=121, time=0),
    Message('note_on', channel=1, note=60, velocity=121, time=0),
    Message('note_on', channel=1, note=54, velocity=121, time=0),
    Message('note_on', channel=1, note=49, velocity=121, time=0),
    Message('note_on', channel=1, note=42, velocity=121, time=0),
    Message('note_off', channel=1, note=42, velocity=64, time=96),
    Message('note_on', channel=1, note=68, velocity=121, time=192),
    Message('note_on', channel=1, note=63, velocity=121, time=0),
    Message('note_on', channel=1, note=60, velocity=121, time=0),
    Message('note_on', channel=1, note=54, velocity=121, time=0),
    Message('note_on', channel=1, note=49, velocity=121, time=0),
    Message('note_on', channel=1, note=42, velocity=121, time=0),
    Message('note_off', channel=1, note=68, velocity=64, time=96),
    Message('note_off', channel=1, note=63, velocity=64, time=0),
    Message('note_off', channel=1, note=60, velocity=64, time=0),
    Message('note_off', channel=1, note=54, velocity=64, time=0),
    Message('note_off', channel=1, note=49, velocity=64, time=0),
    Message('note_off', channel=1, note=42, velocity=64, time=0),
    Message('note_off', channel=1, note=68, velocity=64, time=0),
    Message('note_off', channel=1, note=63, velocity=64, time=0),
    Message('note_off', channel=1, note=60, velocity=64, time=0),
    Message('note_off', channel=1, note=54, velocity=64, time=0),
    Message('note_off', channel=1, note=49, velocity=64, time=0),
    Message('note_off', channel=1, note=42, velocity=64, time=0),
    Message('note_on', channel=1, note=68, velocity=121, time=0),
    Message('note_on', channel=1, note=63, velocity=121, time=0),
    Message('note_on', channel=1, note=60, velocity=121, time=0),
    Message('note_on', channel=1, note=54, velocity=121, time=0),
    Message('note_on', channel=1, note=49, velocity=121, time=0),
    Message('note_on', channel=1, note=42, velocity=121, time=0),
    Message('note_off', channel=1, note=68, velocity=64, time=192),
    Message('note_off', channel=1, note=63, velocity=64, time=0),
    Message('note_off', channel=1, note=60, velocity=64, time=0),
    Message('note_off', channel=1, note=54, velocity=64, time=0),
    Message('note_off', channel=1, note=49, velocity=64, time=0),
    Message('note_off', channel=1, note=42, velocity=64, time=0),
    Message('note_on', channel=1, note=49, velocity=121, time=0),
    Message('note_off', channel=1, note=49, velocity=64, time=96),
    Message('note_on', channel=1, note=48, velocity=121, time=0),
    Message('note_off', channel=1, note=48, velocity=64, time=192),
    Message('note_on', channel=1, note=46, velocity=121, time=0),
    Message('note_off', channel=1, note=46, velocity=64, time=192),
    Message('note_on', channel=1, note=48, velocity=121, time=0),
    Message('note_on', channel=1, note=49, velocity=121, time=10),
    Message('note_off', channel=1, note=48, velocity=64, time=6),
    Message('note_on', channel=1, note=44, velocity=121, time=80),
    Message('note_off', channel=1, note=49, velocity=64, time=10),
    Message('note_off', channel=1, note=44, velocity=64, time=86),
    Message('note_on', channel=1, note=43, velocity=121, time=0),
    Message('note_off', channel=1, note=43, velocity=64, time=192),
    Message('note_on', channel=1, note=42, velocity=121, time=0),
    Message('note_on', channel=1, note=68, velocity=121, time=288),
    Message('note_on', channel=1, note=63, velocity=121, time=0),
    Message('note_on', channel=1, note=60, velocity=121, time=0),
    Message('note_on', channel=1, note=54, velocity=121, time=0),
    Message('note_on', channel=1, note=49, velocity=121, time=0),
    Message('note_on', channel=1, note=42, velocity=121, time=0),
    Message('note_off', channel=1, note=42, velocity=64, time=96),
    Message('note_on', channel=1, note=68, velocity=121, time=192),
    Message('note_on', channel=1, note=63, velocity=121, time=0),
    Message('note_on', channel=1, note=60, velocity=121, time=0),
    Message('note_on', channel=1, note=54, velocity=121, time=0),
    Message('note_on', channel=1, note=49, velocity=121, time=0),
    Message('note_on', channel=1, note=42, velocity=121, time=0),
    Message('note_off', channel=1, note=68, velocity=64, time=96),
    Message('note_off', channel=1, note=63, velocity=64, time=0),
    Message('note_off', channel=1, note=60, velocity=64, time=0),
    Message('note_off', channel=1, note=54, velocity=64, time=0),
    Message('note_off', channel=1, note=49, velocity=64, time=0),
    Message('note_off', channel=1, note=42, velocity=64, time=0),
    Message('note_off', channel=1, note=68, velocity=64, time=0),
    Message('note_off', channel=1, note=63, velocity=64, time=0),
    Message('note_off', channel=1, note=60, velocity=64, time=0),
    Message('note_off', channel=1, note=54, velocity=64, time=0),
    Message('note_off', channel=1, note=49, velocity=64, time=0),
    Message('note_off', channel=1, note=42, velocity=64, time=0),
    Message('note_on', channel=1, note=68, velocity=121, time=0),
    Message('note_on', channel=1, note=63, velocity=121, time=0),
    Message('note_on', channel=1, note=60, velocity=121, time=0),
    Message('note_on', channel=1, note=54, velocity=121, time=0),
    Message('note_on', channel=1, note=49, velocity=121, time=0),
    Message('note_on', channel=1, note=42, velocity=121, time=0),
    Message('note_off', channel=1, note=68, velocity=64, time=192),
    Message('note_off', channel=1, note=63, velocity=64, time=0),
    Message('note_off', channel=1, note=60, velocity=64, time=0),
    Message('note_off', channel=1, note=54, velocity=64, time=0),
    Message('note_off', channel=1, note=49, velocity=64, time=0),
    Message('note_off', channel=1, note=42, velocity=64, time=0),
    Message('note_on', channel=1, note=42, velocity=121, time=0),
    Message('note_on', channel=1, note=54, velocity=121, time=0),
    Message('note_on', channel=1, note=49, velocity=121, time=0),
    Message('note_off', channel=1, note=42, velocity=64, time=96),
    Message('note_off', channel=1, note=54, velocity=64, time=0),
    Message('note_off', channel=1, note=49, velocity=64, time=0),
    Message('note_on', channel=1, note=44, velocity=121, time=0),
    Message('note_on', channel=1, note=51, velocity=121, time=0),
    Message('note_on', channel=1, note=56, velocity=121, time=0),
    Message('note_off', channel=1, note=44, velocity=64, time=96),
    Message('note_off', channel=1, note=51, velocity=64, time=0),
    Message('note_off', channel=1, note=56, velocity=64, time=0),
    Message('note_on', channel=1, note=44, velocity=121, time=0),
    Message('note_on', channel=1, note=51, velocity=121, time=0),
    Message('note_on', channel=1, note=56, velocity=121, time=0),
    Message('note_off', channel=1, note=44, velocity=64, time=1152),
    Message('note_off', channel=1, note=51, velocity=64, time=0),
    Message('note_off', channel=1, note=56, velocity=64, time=0),
    Message('program_change', channel=1, program=30, time=3264),
    Message('note_on', channel=1, note=52, velocity=101, time=576),
    Message('pitchwheel', channel=1, pitch=-192, time=4),
    Message('pitchwheel', channel=1, pitch=-692, time=4),
    Message('pitchwheel', channel=1, pitch=-1192, time=4),
    Message('pitchwheel', channel=1, pitch=-1692, time=4),
    Message('pitchwheel', channel=1, pitch=-2692, time=8),
    Message('pitchwheel', channel=1, pitch=-3192, time=4),
    Message('pitchwheel', channel=1, pitch=-3692, time=4),
    Message('pitchwheel', channel=1, pitch=-4192, time=4),
    Message('pitchwheel', channel=1, pitch=-4692, time=4),
    Message('pitchwheel', channel=1, pitch=-5192, time=4),
    Message('pitchwheel', channel=1, pitch=-5692, time=4),
    Message('pitchwheel', channel=1, pitch=-6192, time=4),
    Message('pitchwheel', channel=1, pitch=-6692, time=4),
    Message('pitchwheel', channel=1, pitch=-7192, time=4),
    Message('pitchwheel', channel=1, pitch=-7692, time=4),
    Message('pitchwheel', channel=1, pitch=-8192, time=4),
    Message('note_off', channel=1, note=52, velocity=64, time=60),
    Message('pitchwheel', channel=1, pitch=0, time=60),
    Message('note_on', channel=1, note=40, velocity=121, time=4),
    Message('note_off', channel=1, note=40, velocity=64, time=96),
    Message('note_on', channel=1, note=47, velocity=121, time=0),
    Message('note_off', channel=1, note=47, velocity=64, time=96),
    Message('note_on', channel=1, note=52, velocity=121, time=0),
    Message('note_off', channel=1, note=52, velocity=64, time=96),
    Message('note_on', channel=1, note=57, velocity=121, time=0),
    Message('note_off', channel=1, note=57, velocity=64, time=192),
    Message('note_on', channel=1, note=52, velocity=121, time=0),
    Message('note_off', channel=1, note=52, velocity=64, time=96),
    Message('note_on', channel=1, note=47, velocity=121, time=0),
    Message('note_off', channel=1, note=47, velocity=64, time=96),
    Message('note_on', channel=1, note=40, velocity=121, time=0),
    Message('note_off', channel=1, note=40, velocity=64, time=96),
    Message('note_on', channel=1, note=39, velocity=121, time=0),
    Message('note_off', channel=1, note=39, velocity=64, time=96),
    Message('note_on', channel=1, note=49, velocity=121, time=0),
    Message('note_off', channel=1, note=49, velocity=64, time=96),
    Message('note_on', channel=1, note=51, velocity=121, time=0),
    Message('note_off', channel=1, note=51, velocity=64, time=96),
    Message('note_on', channel=1, note=58, velocity=121, time=0),
    Message('note_off', channel=1, note=58, velocity=64, time=192),
    Message('note_on', channel=1, note=51, velocity=121, time=0),
    Message('note_off', channel=1, note=51, velocity=64, time=96),
    Message('note_on', channel=1, note=49, velocity=121, time=0),
    Message('note_off', channel=1, note=49, velocity=64, time=96),
    Message('note_on', channel=1, note=39, velocity=121, time=0),
    Message('note_off', channel=1, note=39, velocity=64, time=96),
    Message('note_on', channel=1, note=43, velocity=121, time=0),
    Message('note_on', channel=1, note=44, velocity=121, time=16),
    Message('note_off', channel=1, note=43, velocity=64, time=48),
    Message('note_on', channel=1, note=51, velocity=121, time=32),
    Message('note_off', channel=1, note=44, velocity=64, time=16),
    Message('note_off', channel=1, note=51, velocity=64, time=80),
    Message('note_on', channel=1, note=56, velocity=121, time=0),
    Message('note_off', channel=1, note=56, velocity=64, time=96),
    Message('note_on', channel=1, note=44, velocity=121, time=0),
    Message('note_off', channel=1, note=44, velocity=64, time=96),
    Message('note_on', channel=1, note=43, velocity=121, time=0),
    Message('note_off', channel=1, note=43, velocity=64, time=96),
    Message('note_on', channel=1, note=51, velocity=121, time=0),
    Message('note_off', channel=1, note=51, velocity=64, time=96),
    Message('note_on', channel=1, note=56, velocity=121, time=0),
    Message('note_off', channel=1, note=56, velocity=64, time=96),
    Message('note_on', channel=1, note=43, velocity=121, time=0),
    Message('note_off', channel=1, note=43, velocity=64, time=96),
    Message('note_on', channel=1, note=47, velocity=121, time=0),
    Message('note_off', channel=1, note=47, velocity=64, time=96),
    Message('note_on', channel=1, note=54, velocity=121, time=0),
    Message('note_off', channel=1, note=54, velocity=64, time=96),
    Message('note_on', channel=1, note=59, velocity=121, time=0),
    Message('note_off', channel=1, note=59, velocity=64, time=96),
    Message('note_on', channel=1, note=63, velocity=121, time=0),
    Message('note_off', channel=1, note=63, velocity=64, time=192),
    Message('note_on', channel=1, note=59, velocity=121, time=0),
    Message('note_off', channel=1, note=59, velocity=64, time=96),
    Message('note_on', channel=1, note=54, velocity=121, time=0),
    Message('note_off', channel=1, note=54, velocity=64, time=96),
    Message('note_on', channel=1, note=47, velocity=121, time=0),
    Message('note_off', channel=1, note=47, velocity=64, time=96),
    Message('note_on', channel=1, note=40, velocity=121, time=0),
    Message('note_off', channel=1, note=40, velocity=64, time=96),
    Message('note_on', channel=1, note=47, velocity=121, time=0),
    Message('note_off', channel=1, note=47, velocity=64, time=96),
    Message('note_on', channel=1, note=52, velocity=121, time=0),
    Message('note_off', channel=1, note=52, velocity=64, time=96),
    Message('note_on', channel=1, note=57, velocity=121, time=0),
    Message('note_off', channel=1, note=57, velocity=64, time=192),
    Message('note_on', channel=1, note=52, velocity=121, time=0),
    Message('note_off', channel=1, note=52, velocity=64, time=96),
    Message('note_on', channel=1, note=47, velocity=121, time=0),
    Message('note_off', channel=1, note=47, velocity=64, time=96),
    Message('note_on', channel=1, note=40, velocity=121, time=0),
    Message('note_off', channel=1, note=40, velocity=64, time=96),
    Message('note_on', channel=1, note=39, velocity=121, time=0),
    Message('note_off', channel=1, note=39, velocity=64, time=96),
    Message('note_on', channel=1, note=49, velocity=121, time=0),
    Message('note_off', channel=1, note=49, velocity=64, time=96),
    Message('note_on', channel=1, note=51, velocity=121, time=0),
    Message('note_off', channel=1, note=51, velocity=64, time=96),
    Message('note_on', channel=1, note=58, velocity=121, time=0),
    Message('note_off', channel=1, note=58, velocity=64, time=192),
    Message('note_on', channel=1, note=51, velocity=121, time=0),
    Message('note_off', channel=1, note=51, velocity=64, time=96),
    Message('note_on', channel=1, note=49, velocity=121, time=0),
    Message('note_off', channel=1, note=49, velocity=64, time=96),
    Message('note_on', channel=1, note=39, velocity=121, time=0),
    Message('note_off', channel=1, note=39, velocity=64, time=96),
    Message('note_on', channel=1, note=65, velocity=121, time=0),
    Message('note_on', channel=1, note=61, velocity=121, time=0),
    Message('note_on', channel=1, note=56, velocity=121, time=0),
    Message('note_on', channel=1, note=49, velocity=121, time=0),
    Message('note_on', channel=1, note=65, velocity=121, time=288),
    Message('note_on', channel=1, note=66, velocity=121, time=20),
    Message('note_off', channel=1, note=65, velocity=64, time=12),
    Message('note_on', channel=1, note=65, velocity=121, time=64),
    Message('note_off', channel=1, note=66, velocity=64, time=4),
    Message('note_off', channel=1, note=65, velocity=64, time=60),
    Message('note_on', channel=1, note=61, velocity=121, time=32),
    Message('note_off', channel=1, note=65, velocity=64, time=32),
    Message('note_off', channel=1, note=61, velocity=64, time=32),
    Message('note_on', channel=1, note=56, velocity=121, time=32),
    Message('note_off', channel=1, note=61, velocity=64, time=32),
    Message('note_off', channel=1, note=56, velocity=64, time=32),
    Message('note_on', channel=1, note=61, velocity=121, time=32),
    Message('note_off', channel=1, note=56, velocity=64, time=32),
    Message('note_off', channel=1, note=49, velocity=64, time=64),
    Message('note_off', channel=1, note=61, velocity=64, time=0),
    Message('note_on', channel=1, note=47, velocity=121, time=0),
    Message('note_on', channel=1, note=54, velocity=121, time=96),
    Message('note_off', channel=1, note=47, velocity=64, time=32),
    Message('note_on', channel=1, note=59, velocity=121, time=64),
    Message('note_off', channel=1, note=54, velocity=64, time=32),
    Message('note_on', channel=1, note=63, velocity=121, time=64),
    Message('note_off', channel=1, note=59, velocity=64, time=32),
    Message('note_off', channel=1, note=63, velocity=64, time=160),
    Message('note_on', channel=1, note=59, velocity=121, time=0),
    Message('note_on', channel=1, note=54, velocity=121, time=96),
    Message('note_off', channel=1, note=59, velocity=64, time=32),
    Message('note_on', channel=1, note=59, velocity=121, time=64),
    Message('note_off', channel=1, note=54, velocity=64, time=32),
    Message('note_on', channel=1, note=40, velocity=121, time=64),
    Message('note_off', channel=1, note=59, velocity=64, time=32),
    Message('note_off', channel=1, note=40, velocity=64, time=64),
    Message('note_on', channel=1, note=47, velocity=121, time=0),
    Message('note_off', channel=1, note=47, velocity=64, time=96),
    Message('note_on', channel=1, note=52, velocity=121, time=0),
    Message('note_off', channel=1, note=52, velocity=64, time=96),
    Message('note_on', channel=1, note=57, velocity=121, time=0),
    Message('note_off', channel=1, note=57, velocity=64, time=192),
    Message('note_on', channel=1, note=52, velocity=121, time=0),
    Message('note_off', channel=1, note=52, velocity=64, time=96),
    Message('note_on', channel=1, note=47, velocity=121, time=0),
    Message('note_off', channel=1, note=47, velocity=64, time=96),
    Message('note_on', channel=1, note=40, velocity=121, time=0),
    Message('note_off', channel=1, note=40, velocity=64, time=96),
    Message('note_on', channel=1, note=39, velocity=121, time=0),
    Message('note_off', channel=1, note=39, velocity=64, time=96),
    Message('note_on', channel=1, note=49, velocity=121, time=0),
    Message('note_off', channel=1, note=49, velocity=64, time=96),
    Message('note_on', channel=1, note=51, velocity=121, time=0),
    Message('note_off', channel=1, note=51, velocity=64, time=96),
    Message('note_on', channel=1, note=58, velocity=121, time=0),
    Message('note_off', channel=1, note=58, velocity=64, time=192),
    Message('note_on', channel=1, note=51, velocity=121, time=0),
    Message('note_off', channel=1, note=51, velocity=64, time=96),
    Message('note_on', channel=1, note=49, velocity=121, time=0),
    Message('note_off', channel=1, note=49, velocity=64, time=96),
    Message('note_on', channel=1, note=39, velocity=121, time=0),
    Message('note_off', channel=1, note=39, velocity=64, time=96),
    Message('note_on', channel=1, note=43, velocity=121, time=0),
    Message('note_on', channel=1, note=44, velocity=121, time=16),
    Message('note_off', channel=1, note=43, velocity=64, time=48),
    Message('note_on', channel=1, note=51, velocity=121, time=32),
    Message('note_off', channel=1, note=44, velocity=64, time=16),
    Message('note_off', channel=1, note=51, velocity=64, time=80),
    Message('note_on', channel=1, note=56, velocity=121, time=0),
    Message('note_off', channel=1, note=56, velocity=64, time=96),
    Message('note_on', channel=1, note=44, velocity=121, time=0),
    Message('note_off', channel=1, note=44, velocity=64, time=96),
    Message('note_on', channel=1, note=43, velocity=121, time=0),
    Message('note_off', channel=1, note=43, velocity=64, time=96),
    Message('note_on', channel=1, note=51, velocity=121, time=0),
    Message('note_off', channel=1, note=51, velocity=64, time=96),
    Message('note_on', channel=1, note=56, velocity=121, time=0),
    Message('note_off', channel=1, note=56, velocity=64, time=96),
    Message('note_on', channel=1, note=43, velocity=121, time=0),
    Message('note_off', channel=1, note=43, velocity=64, time=96),
    Message('note_on', channel=1, note=47, velocity=121, time=0),
    Message('note_off', channel=1, note=47, velocity=64, time=96),
    Message('note_on', channel=1, note=54, velocity=121, time=0),
    Message('note_off', channel=1, note=54, velocity=64, time=96),
    Message('note_on', channel=1, note=59, velocity=121, time=0),
    Message('note_off', channel=1, note=59, velocity=64, time=96),
    Message('note_on', channel=1, note=63, velocity=121, time=0),
    Message('note_off', channel=1, note=63, velocity=64, time=192),
    Message('note_on', channel=1, note=59, velocity=121, time=0),
    Message('note_off', channel=1, note=59, velocity=64, time=96),
    Message('note_on', channel=1, note=54, velocity=121, time=0),
    Message('note_off', channel=1, note=54, velocity=64, time=96),
    Message('note_on', channel=1, note=47, velocity=121, time=0),
    Message('note_off', channel=1, note=47, velocity=64, time=96),
    Message('note_on', channel=1, note=40, velocity=121, time=0),
    Message('note_off', channel=1, note=40, velocity=64, time=96),
    Message('note_on', channel=1, note=47, velocity=121, time=0),
    Message('note_off', channel=1, note=47, velocity=64, time=96),
    Message('note_on', channel=1, note=52, velocity=121, time=0),
    Message('note_off', channel=1, note=52, velocity=64, time=96),
    Message('note_on', channel=1, note=57, velocity=121, time=0),
    Message('note_off', channel=1, note=57, velocity=64, time=192),
    Message('note_on', channel=1, note=52, velocity=121, time=0),
    Message('note_off', channel=1, note=52, velocity=64, time=96),
    Message('note_on', channel=1, note=47, velocity=121, time=0),
    Message('note_off', channel=1, note=47, velocity=64, time=96),
    Message('note_on', channel=1, note=40, velocity=121, time=0),
    Message('note_off', channel=1, note=40, velocity=64, time=96),
    Message('note_on', channel=1, note=39, velocity=121, time=0),
    Message('note_off', channel=1, note=39, velocity=64, time=96),
    Message('note_on', channel=1, note=49, velocity=121, time=0),
    Message('note_off', channel=1, note=49, velocity=64, time=96),
    Message('note_on', channel=1, note=51, velocity=121, time=0),
    Message('note_off', channel=1, note=51, velocity=64, time=96),
    Message('note_on', channel=1, note=58, velocity=121, time=0),
    Message('note_off', channel=1, note=58, velocity=64, time=192),
    Message('note_on', channel=1, note=51, velocity=121, time=0),
    Message('note_off', channel=1, note=51, velocity=64, time=96),
    Message('note_on', channel=1, note=49, velocity=121, time=0),
    Message('note_off', channel=1, note=49, velocity=64, time=96),
    Message('note_on', channel=1, note=39, velocity=121, time=0),
    Message('note_off', channel=1, note=39, velocity=64, time=96),
    Message('note_on', channel=1, note=65, velocity=121, time=0),
    Message('note_on', channel=1, note=61, velocity=121, time=0),
    Message('note_on', channel=1, note=56, velocity=121, time=0),
    Message('note_on', channel=1, note=49, velocity=121, time=0),
    Message('note_on', channel=1, note=65, velocity=121, time=288),
    Message('note_on', channel=1, note=66, velocity=121, time=20),
    Message('note_off', channel=1, note=65, velocity=64, time=12),
    Message('note_on', channel=1, note=65, velocity=121, time=64),
    Message('note_off', channel=1, note=66, velocity=64, time=4),
    Message('note_off', channel=1, note=65, velocity=64, time=60),
    Message('note_on', channel=1, note=61, velocity=121, time=32),
    Message('note_off', channel=1, note=61, velocity=64, time=64),
    Message('note_on', channel=1, note=56, velocity=121, time=32),
    Message('note_off', channel=1, note=56, velocity=64, time=128),
    Message('note_off', channel=1, note=49, velocity=64, time=64),
    Message('note_off', channel=1, note=65, velocity=64, time=0),
    Message('note_off', channel=1, note=61, velocity=64, time=0),
    Message('note_off', channel=1, note=56, velocity=64, time=0),
    Message('note_on', channel=1, note=63, velocity=121, time=0),
    Message('note_on', channel=1, note=59, velocity=121, time=0),
    Message('note_on', channel=1, note=54, velocity=121, time=0),
    Message('note_on', channel=1, note=47, velocity=121, time=0),
    Message('note_on', channel=1, note=63, velocity=121, time=288),
    Message('note_on', channel=1, note=64, velocity=121, time=20),
    Message('note_off', channel=1, note=63, velocity=64, time=12),
    Message('note_on', channel=1, note=63, velocity=121, time=64),
    Message('note_off', channel=1, note=64, velocity=64, time=4),
    Message('note_off', channel=1, note=63, velocity=64, time=60),
    Message('note_on', channel=1, note=59, velocity=121, time=32),
    Message('note_off', channel=1, note=59, velocity=64, time=64),
    Message('note_on', channel=1, note=54, velocity=121, time=32),
    Message('note_off', channel=1, note=54, velocity=64, time=64),
    Message('note_on', channel=1, note=59, velocity=121, time=32),
    Message('note_off', channel=1, note=59, velocity=64, time=64),
    Message('note_off', channel=1, note=47, velocity=64, time=32),
    Message('note_off', channel=1, note=63, velocity=64, time=0),
    Message('note_off', channel=1, note=54, velocity=64, time=0),
    Message('note_off', channel=1, note=59, velocity=64, time=0),
    Message('note_on', channel=1, note=67, velocity=121, time=0),
    Message('note_on', channel=1, note=63, velocity=121, time=0),
    Message('note_on', channel=1, note=58, velocity=121, time=0),
    Message('note_on', channel=1, note=51, velocity=121, time=0),
    Message('note_on', channel=1, note=67, velocity=121, time=288),
    Message('note_on', channel=1, note=68, velocity=121, time=20),
    Message('note_off', channel=1, note=67, velocity=64, time=12),
    Message('note_on', channel=1, note=67, velocity=121, time=64),
    Message('note_off', channel=1, note=68, velocity=64, time=4),
    Message('note_off', channel=1, note=67, velocity=64, time=60),
    Message('note_on', channel=1, note=63, velocity=121, time=32),
    Message('note_off', channel=1, note=63, velocity=64, time=64),
    Message('note_on', channel=1, note=58, velocity=121, time=32),
    Message('note_off', channel=1, note=58, velocity=64, time=64),
    Message('note_on', channel=1, note=63, velocity=121, time=32),
    Message('note_off', channel=1, note=63, velocity=64, time=64),
    Message('note_off', channel=1, note=51, velocity=64, time=32),
    Message('note_off', channel=1, note=67, velocity=64, time=0),
    Message('note_off', channel=1, note=58, velocity=64, time=0),
    Message('note_off', channel=1, note=63, velocity=64, time=0),
    Message('note_on', channel=1, note=65, velocity=121, time=0),
    Message('note_on', channel=1, note=61, velocity=121, time=0),
    Message('note_on', channel=1, note=56, velocity=121, time=0),
    Message('note_on', channel=1, note=49, velocity=121, time=0),
    Message('note_on', channel=1, note=65, velocity=121, time=288),
    Message('note_on', channel=1, note=66, velocity=121, time=20),
    Message('note_off', channel=1, note=65, velocity=64, time=12),
    Message('note_on', channel=1, note=65, velocity=121, time=64),
    Message('note_off', channel=1, note=66, velocity=64, time=4),
    Message('note_off', channel=1, note=65, velocity=64, time=60),
    Message('note_on', channel=1, note=61, velocity=121, time=32),
    Message('note_off', channel=1, note=61, velocity=64, time=64),
    Message('note_on', channel=1, note=56, velocity=121, time=32),
    Message('note_off', channel=1, note=56, velocity=64, time=128),
    Message('note_off', channel=1, note=49, velocity=64, time=64),
    Message('note_off', channel=1, note=65, velocity=64, time=0),
    Message('note_off', channel=1, note=61, velocity=64, time=0),
    Message('note_off', channel=1, note=56, velocity=64, time=0),
    Message('note_on', channel=1, note=63, velocity=121, time=0),
    Message('note_on', channel=1, note=59, velocity=121, time=0),
    Message('note_on', channel=1, note=54, velocity=121, time=0),
    Message('note_on', channel=1, note=47, velocity=121, time=0),
    Message('note_on', channel=1, note=63, velocity=121, time=288),
    Message('note_on', channel=1, note=64, velocity=121, time=20),
    Message('note_off', channel=1, note=63, velocity=64, time=12),
    Message('note_on', channel=1, note=63, velocity=121, time=64),
    Message('note_off', channel=1, note=64, velocity=64, time=4),
    Message('note_off', channel=1, note=63, velocity=64, time=60),
    Message('note_on', channel=1, note=59, velocity=121, time=32),
    Message('note_off', channel=1, note=59, velocity=64, time=64),
    Message('note_on', channel=1, note=54, velocity=121, time=32),
    Message('note_off', channel=1, note=54, velocity=64, time=64),
    Message('note_on', channel=1, note=59, velocity=121, time=32),
    Message('note_off', channel=1, note=59, velocity=64, time=64),
    Message('note_off', channel=1, note=47, velocity=64, time=32),
    Message('note_off', channel=1, note=63, velocity=64, time=0),
    Message('note_off', channel=1, note=54, velocity=64, time=0),
    Message('note_off', channel=1, note=59, velocity=64, time=0),
    Message('note_on', channel=1, note=67, velocity=121, time=0),
    Message('note_on', channel=1, note=63, velocity=121, time=0),
    Message('note_on', channel=1, note=58, velocity=121, time=0),
    Message('note_on', channel=1, note=51, velocity=121, time=0),
    Message('note_on', channel=1, note=67, velocity=121, time=288),
    Message('note_on', channel=1, note=63, velocity=121, time=0),
    Message('note_on', channel=1, note=58, velocity=121, time=0),
    Message('note_on', channel=1, note=51, velocity=121, time=0),
    Message('note_off', channel=1, note=67, velocity=64, time=96),
    Message('note_off', channel=1, note=63, velocity=64, time=0),
    Message('note_off', channel=1, note=58, velocity=64, time=0),
    Message('note_off', channel=1, note=51, velocity=64, time=0),
    Message('note_on', channel=1, note=67, velocity=121, time=0),
    Message('note_on', channel=1, note=63, velocity=121, time=0),
    Message('note_on', channel=1, note=58, velocity=121, time=0),
    Message('note_on', channel=1, note=51, velocity=121, time=0),
    Message('note_off', channel=1, note=67, velocity=64, time=192),
    Message('note_off', channel=1, note=63, velocity=64, time=0),
    Message('note_off', channel=1, note=58, velocity=64, time=0),
    Message('note_off', channel=1, note=51, velocity=64, time=0),
    Message('note_on', channel=1, note=67, velocity=121, time=0),
    Message('note_on', channel=1, note=63, velocity=121, time=0),
    Message('note_on', channel=1, note=58, velocity=121, time=0),
    Message('note_on', channel=1, note=51, velocity=121, time=0),
    Message('note_off', channel=1, note=67, velocity=64, time=192),
    Message('note_off', channel=1, note=63, velocity=64, time=0),
    Message('note_off', channel=1, note=58, velocity=64, time=0),
    Message('note_off', channel=1, note=51, velocity=64, time=0),
    Message('note_off', channel=1, note=67, velocity=64, time=0),
    Message('note_off', channel=1, note=63, velocity=64, time=0),
    Message('note_off', channel=1, note=58, velocity=64, time=0),
    Message('note_off', channel=1, note=51, velocity=64, time=0),
    Message('note_on', channel=1, note=65, velocity=121, time=0),
    Message('note_on', channel=1, note=61, velocity=121, time=0),
    Message('note_on', channel=1, note=56, velocity=121, time=0),
    Message('note_on', channel=1, note=49, velocity=121, time=0),
    Message('note_on', channel=1, note=65, velocity=121, time=288),
    Message('note_on', channel=1, note=66, velocity=121, time=20),
    Message('note_off', channel=1, note=65, velocity=64, time=12),
    Message('note_on', channel=1, note=65, velocity=121, time=64),
    Message('note_off', channel=1, note=66, velocity=64, time=4),
    Message('note_off', channel=1, note=65, velocity=64, time=60),
    Message('note_on', channel=1, note=61, velocity=121, time=32),
    Message('note_off', channel=1, note=61, velocity=64, time=64),
    Message('note_on', channel=1, note=56, velocity=121, time=32),
    Message('note_off', channel=1, note=56, velocity=64, time=128),
    Message('note_off', channel=1, note=49, velocity=64, time=64),
    Message('note_off', channel=1, note=65, velocity=64, time=0),
    Message('note_off', channel=1, note=61, velocity=64, time=0),
    Message('note_off', channel=1, note=56, velocity=64, time=0),
    Message('note_on', channel=1, note=63, velocity=121, time=0),
    Message('note_on', channel=1, note=59, velocity=121, time=0),
    Message('note_on', channel=1, note=54, velocity=121, time=0),
    Message('note_on', channel=1, note=47, velocity=121, time=0),
    Message('note_on', channel=1, note=63, velocity=121, time=288),
    Message('note_on', channel=1, note=64, velocity=121, time=20),
    Message('note_off', channel=1, note=63, velocity=64, time=12),
    Message('note_on', channel=1, note=63, velocity=121, time=64),
    Message('note_off', channel=1, note=64, velocity=64, time=4),
    Message('note_off', channel=1, note=63, velocity=64, time=60),
    Message('note_on', channel=1, note=59, velocity=121, time=32),
    Message('note_off', channel=1, note=59, velocity=64, time=64),
    Message('note_on', channel=1, note=54, velocity=121, time=32),
    Message('note_off', channel=1, note=54, velocity=64, time=64),
    Message('note_on', channel=1, note=59, velocity=121, time=32),
    Message('note_off', channel=1, note=59, velocity=64, time=64),
    Message('note_off', channel=1, note=47, velocity=64, time=32),
    Message('note_off', channel=1, note=63, velocity=64, time=0),
    Message('note_off', channel=1, note=54, velocity=64, time=0),
    Message('note_off', channel=1, note=59, velocity=64, time=0),
    Message('note_on', channel=1, note=67, velocity=121, time=0),
    Message('note_on', channel=1, note=63, velocity=121, time=0),
    Message('note_on', channel=1, note=58, velocity=121, time=0),
    Message('note_on', channel=1, note=51, velocity=121, time=0),
    Message('note_on', channel=1, note=67, velocity=121, time=288),
    Message('note_on', channel=1, note=68, velocity=121, time=20),
    Message('note_off', channel=1, note=67, velocity=64, time=12),
    Message('note_on', channel=1, note=67, velocity=121, time=64),
    Message('note_off', channel=1, note=68, velocity=64, time=4),
    Message('note_off', channel=1, note=67, velocity=64, time=60),
    Message('note_on', channel=1, note=63, velocity=121, time=32),
    Message('note_off', channel=1, note=63, velocity=64, time=64),
    Message('note_on', channel=1, note=58, velocity=121, time=32),
    Message('note_off', channel=1, note=58, velocity=64, time=64),
    Message('note_on', channel=1, note=63, velocity=121, time=32),
    Message('note_off', channel=1, note=63, velocity=64, time=64),
    Message('note_off', channel=1, note=51, velocity=64, time=32),
    Message('note_off', channel=1, note=67, velocity=64, time=0),
    Message('note_off', channel=1, note=58, velocity=64, time=0),
    Message('note_off', channel=1, note=63, velocity=64, time=0),
    Message('note_on', channel=1, note=65, velocity=121, time=0),
    Message('note_on', channel=1, note=61, velocity=121, time=0),
    Message('note_on', channel=1, note=56, velocity=121, time=0),
    Message('note_on', channel=1, note=49, velocity=121, time=0),
    Message('note_on', channel=1, note=65, velocity=121, time=288),
    Message('note_on', channel=1, note=66, velocity=121, time=20),
    Message('note_off', channel=1, note=65, velocity=64, time=12),
    Message('note_on', channel=1, note=65, velocity=121, time=64),
    Message('note_off', channel=1, note=66, velocity=64, time=4),
    Message('note_off', channel=1, note=65, velocity=64, time=60),
    Message('note_on', channel=1, note=61, velocity=121, time=32),
    Message('note_off', channel=1, note=61, velocity=64, time=64),
    Message('note_on', channel=1, note=56, velocity=121, time=32),
    Message('note_off', channel=1, note=56, velocity=64, time=128),
    Message('note_off', channel=1, note=49, velocity=64, time=64),
    Message('note_off', channel=1, note=65, velocity=64, time=0),
    Message('note_off', channel=1, note=61, velocity=64, time=0),
    Message('note_off', channel=1, note=56, velocity=64, time=0),
    Message('note_on', channel=1, note=63, velocity=121, time=0),
    Message('note_on', channel=1, note=59, velocity=121, time=0),
    Message('note_on', channel=1, note=54, velocity=121, time=0),
    Message('note_on', channel=1, note=47, velocity=121, time=0),
    Message('note_on', channel=1, note=63, velocity=121, time=288),
    Message('note_on', channel=1, note=64, velocity=121, time=20),
    Message('note_off', channel=1, note=63, velocity=64, time=12),
    Message('note_on', channel=1, note=63, velocity=121, time=64),
    Message('note_off', channel=1, note=64, velocity=64, time=4),
    Message('note_off', channel=1, note=63, velocity=64, time=60),
    Message('note_on', channel=1, note=59, velocity=121, time=32),
    Message('note_off', channel=1, note=59, velocity=64, time=64),
    Message('note_on', channel=1, note=54, velocity=121, time=32),
    Message('note_off', channel=1, note=54, velocity=64, time=64),
    Message('note_on', channel=1, note=59, velocity=121, time=32),
    Message('note_off', channel=1, note=59, velocity=64, time=64),
    Message('note_off', channel=1, note=47, velocity=64, time=32),
    Message('note_off', channel=1, note=63, velocity=64, time=0),
    Message('note_off', channel=1, note=54, velocity=64, time=0),
    Message('note_off', channel=1, note=59, velocity=64, time=0),
    Message('note_on', channel=1, note=67, velocity=121, time=0),
    Message('note_on', channel=1, note=63, velocity=121, time=0),
    Message('note_on', channel=1, note=58, velocity=121, time=0),
    Message('note_on', channel=1, note=51, velocity=121, time=0),
    Message('note_on', channel=1, note=67, velocity=121, time=288),
    Message('note_on', channel=1, note=63, velocity=121, time=0),
    Message('note_on', channel=1, note=58, velocity=121, time=0),
    Message('note_on', channel=1, note=51, velocity=121, time=0),
    Message('note_off', channel=1, note=67, velocity=64, time=96),
    Message('note_off', channel=1, note=63, velocity=64, time=0),
    Message('note_off', channel=1, note=58, velocity=64, time=0),
    Message('note_off', channel=1, note=51, velocity=64, time=0),
    Message('note_on', channel=1, note=67, velocity=121, time=0),
    Message('note_on', channel=1, note=63, velocity=121, time=0),
    Message('note_on', channel=1, note=58, velocity=121, time=0),
    Message('note_on', channel=1, note=51, velocity=121, time=0),
    Message('note_off', channel=1, note=67, velocity=64, time=192),
    Message('note_off', channel=1, note=63, velocity=64, time=0),
    Message('note_off', channel=1, note=58, velocity=64, time=0),
    Message('note_off', channel=1, note=51, velocity=64, time=0),
    Message('note_on', channel=1, note=67, velocity=121, time=0),
    Message('note_on', channel=1, note=63, velocity=121, time=0),
    Message('note_on', channel=1, note=58, velocity=121, time=0),
    Message('note_on', channel=1, note=51, velocity=121, time=0),
    Message('note_off', channel=1, note=67, velocity=64, time=192),
    Message('note_off', channel=1, note=63, velocity=64, time=0),
    Message('note_off', channel=1, note=58, velocity=64, time=0),
    Message('note_off', channel=1, note=51, velocity=64, time=0),
    Message('note_off', channel=1, note=67, velocity=64, time=0),
    Message('note_off', channel=1, note=63, velocity=64, time=0),
    Message('note_off', channel=1, note=58, velocity=64, time=0),
    Message('note_off', channel=1, note=51, velocity=64, time=0),
    Message('note_on', channel=1, note=65, velocity=121, time=0),
    Message('note_on', channel=1, note=61, velocity=121, time=0),
    Message('note_on', channel=1, note=56, velocity=121, time=0),
    Message('note_on', channel=1, note=49, velocity=121, time=0),
    Message('note_on', channel=1, note=65, velocity=121, time=288),
    Message('note_on', channel=1, note=66, velocity=121, time=20),
    Message('note_off', channel=1, note=65, velocity=64, time=12),
    Message('note_on', channel=1, note=65, velocity=121, time=64),
    Message('note_off', channel=1, note=66, velocity=64, time=4),
    Message('note_off', channel=1, note=65, velocity=64, time=60),
    Message('note_on', channel=1, note=61, velocity=121, time=32),
    Message('note_off', channel=1, note=61, velocity=64, time=64),
    Message('note_on', channel=1, note=56, velocity=121, time=32),
    Message('note_off', channel=1, note=56, velocity=64, time=128),
    Message('note_off', channel=1, note=49, velocity=64, time=64),
    Message('note_off', channel=1, note=65, velocity=64, time=0),
    Message('note_off', channel=1, note=61, velocity=64, time=0),
    Message('note_off', channel=1, note=56, velocity=64, time=0),
    Message('note_on', channel=1, note=63, velocity=121, time=0),
    Message('note_on', channel=1, note=59, velocity=121, time=0),
    Message('note_on', channel=1, note=54, velocity=121, time=0),
    Message('note_on', channel=1, note=47, velocity=121, time=0),
    Message('note_on', channel=1, note=63, velocity=121, time=288),
    Message('note_on', channel=1, note=64, velocity=121, time=20),
    Message('note_off', channel=1, note=63, velocity=64, time=12),
    Message('note_on', channel=1, note=63, velocity=121, time=64),
    Message('note_off', channel=1, note=64, velocity=64, time=4),
    Message('note_off', channel=1, note=63, velocity=64, time=60),
    Message('note_on', channel=1, note=59, velocity=121, time=32),
    Message('note_off', channel=1, note=59, velocity=64, time=64),
    Message('note_on', channel=1, note=54, velocity=121, time=32),
    Message('note_off', channel=1, note=54, velocity=64, time=64),
    Message('note_on', channel=1, note=59, velocity=121, time=32),
    Message('note_off', channel=1, note=59, velocity=64, time=64),
    Message('note_off', channel=1, note=47, velocity=64, time=32),
    Message('note_off', channel=1, note=63, velocity=64, time=0),
    Message('note_off', channel=1, note=54, velocity=64, time=0),
    Message('note_off', channel=1, note=59, velocity=64, time=0),
    Message('note_on', channel=1, note=67, velocity=121, time=0),
    Message('note_on', channel=1, note=63, velocity=121, time=0),
    Message('note_on', channel=1, note=58, velocity=121, time=0),
    Message('note_on', channel=1, note=51, velocity=121, time=0),
    Message('note_on', channel=1, note=67, velocity=121, time=288),
    Message('note_on', channel=1, note=68, velocity=121, time=20),
    Message('note_off', channel=1, note=67, velocity=64, time=12),
    Message('note_on', channel=1, note=67, velocity=121, time=64),
    Message('note_off', channel=1, note=68, velocity=64, time=4),
    Message('note_off', channel=1, note=67, velocity=64, time=60),
    Message('note_on', channel=1, note=63, velocity=121, time=32),
    Message('note_off', channel=1, note=63, velocity=64, time=64),
    Message('note_on', channel=1, note=58, velocity=121, time=32),
    Message('note_off', channel=1, note=58, velocity=64, time=64),
    Message('note_on', channel=1, note=63, velocity=121, time=32),
    Message('note_off', channel=1, note=63, velocity=64, time=64),
    Message('note_off', channel=1, note=51, velocity=64, time=32),
    Message('note_off', channel=1, note=67, velocity=64, time=0),
    Message('note_off', channel=1, note=58, velocity=64, time=0),
    Message('note_off', channel=1, note=63, velocity=64, time=0),
    Message('note_on', channel=1, note=65, velocity=121, time=0),
    Message('note_on', channel=1, note=61, velocity=121, time=0),
    Message('note_on', channel=1, note=56, velocity=121, time=0),
    Message('note_on', channel=1, note=49, velocity=121, time=0),
    Message('note_on', channel=1, note=65, velocity=121, time=288),
    Message('note_on', channel=1, note=66, velocity=121, time=20),
    Message('note_off', channel=1, note=65, velocity=64, time=12),
    Message('note_on', channel=1, note=65, velocity=121, time=64),
    Message('note_off', channel=1, note=66, velocity=64, time=4),
    Message('note_off', channel=1, note=65, velocity=64, time=60),
    Message('note_on', channel=1, note=61, velocity=121, time=32),
    Message('note_off', channel=1, note=61, velocity=64, time=64),
    Message('note_on', channel=1, note=56, velocity=121, time=32),
    Message('note_off', channel=1, note=56, velocity=64, time=128),
    Message('note_off', channel=1, note=49, velocity=64, time=64),
    Message('note_off', channel=1, note=65, velocity=64, time=0),
    Message('note_off', channel=1, note=61, velocity=64, time=0),
    Message('note_off', channel=1, note=56, velocity=64, time=0),
    Message('note_on', channel=1, note=63, velocity=121, time=0),
    Message('note_on', channel=1, note=59, velocity=121, time=0),
    Message('note_on', channel=1, note=54, velocity=121, time=0),
    Message('note_on', channel=1, note=47, velocity=121, time=0),
    Message('note_on', channel=1, note=63, velocity=121, time=288),
    Message('note_on', channel=1, note=64, velocity=121, time=20),
    Message('note_off', channel=1, note=63, velocity=64, time=12),
    Message('note_on', channel=1, note=63, velocity=121, time=64),
    Message('note_off', channel=1, note=64, velocity=64, time=4),
    Message('note_off', channel=1, note=63, velocity=64, time=60),
    Message('note_on', channel=1, note=59, velocity=121, time=32),
    Message('note_off', channel=1, note=59, velocity=64, time=64),
    Message('note_on', channel=1, note=54, velocity=121, time=32),
    Message('note_off', channel=1, note=54, velocity=64, time=64),
    Message('note_on', channel=1, note=59, velocity=121, time=32),
    Message('note_off', channel=1, note=59, velocity=64, time=64),
    Message('note_off', channel=1, note=47, velocity=64, time=32),
    Message('note_off', channel=1, note=63, velocity=64, time=0),
    Message('note_off', channel=1, note=54, velocity=64, time=0),
    Message('note_off', channel=1, note=59, velocity=64, time=0),
    Message('note_on', channel=1, note=67, velocity=121, time=0),
    Message('note_on', channel=1, note=63, velocity=121, time=0),
    Message('note_on', channel=1, note=58, velocity=121, time=0),
    Message('note_on', channel=1, note=51, velocity=121, time=0),
    Message('note_on', channel=1, note=67, velocity=121, time=288),
    Message('note_on', channel=1, note=63, velocity=121, time=0),
    Message('note_on', channel=1, note=58, velocity=121, time=0),
    Message('note_on', channel=1, note=51, velocity=121, time=0),
    Message('note_off', channel=1, note=67, velocity=64, time=96),
    Message('note_off', channel=1, note=63, velocity=64, time=0),
    Message('note_off', channel=1, note=58, velocity=64, time=0),
    Message('note_off', channel=1, note=51, velocity=64, time=0),
    Message('note_on', channel=1, note=67, velocity=121, time=0),
    Message('note_on', channel=1, note=63, velocity=121, time=0),
    Message('note_on', channel=1, note=58, velocity=121, time=0),
    Message('note_on', channel=1, note=51, velocity=121, time=0),
    Message('note_off', channel=1, note=67, velocity=64, time=192),
    Message('note_off', channel=1, note=63, velocity=64, time=0),
    Message('note_off', channel=1, note=58, velocity=64, time=0),
    Message('note_off', channel=1, note=51, velocity=64, time=0),
    Message('note_on', channel=1, note=67, velocity=121, time=0),
    Message('note_on', channel=1, note=63, velocity=121, time=0),
    Message('note_on', channel=1, note=58, velocity=121, time=0),
    Message('note_on', channel=1, note=51, velocity=121, time=0),
    Message('note_off', channel=1, note=67, velocity=64, time=192),
    Message('note_off', channel=1, note=63, velocity=64, time=0),
    Message('note_off', channel=1, note=58, velocity=64, time=0),
    Message('note_off', channel=1, note=51, velocity=64, time=0),
    Message('note_off', channel=1, note=67, velocity=64, time=0),
    Message('note_off', channel=1, note=63, velocity=64, time=0),
    Message('note_off', channel=1, note=58, velocity=64, time=0),
    Message('note_off', channel=1, note=51, velocity=64, time=0),
    Message('note_on', channel=1, note=65, velocity=121, time=0),
    Message('note_on', channel=1, note=61, velocity=121, time=0),
    Message('note_on', channel=1, note=56, velocity=121, time=0),
    Message('note_on', channel=1, note=49, velocity=121, time=0),
    Message('note_on', channel=1, note=65, velocity=121, time=288),
    Message('note_on', channel=1, note=66, velocity=121, time=20),
    Message('note_off', channel=1, note=65, velocity=64, time=12),
    Message('note_on', channel=1, note=65, velocity=121, time=64),
    Message('note_off', channel=1, note=66, velocity=64, time=4),
    Message('note_off', channel=1, note=65, velocity=64, time=60),
    Message('note_on', channel=1, note=61, velocity=121, time=32),
    Message('note_off', channel=1, note=61, velocity=64, time=64),
    Message('note_on', channel=1, note=56, velocity=121, time=32),
    Message('note_off', channel=1, note=56, velocity=64, time=128),
    Message('note_off', channel=1, note=49, velocity=64, time=64),
    Message('note_off', channel=1, note=65, velocity=64, time=0),
    Message('note_off', channel=1, note=61, velocity=64, time=0),
    Message('note_off', channel=1, note=56, velocity=64, time=0),
    Message('note_on', channel=1, note=63, velocity=121, time=0),
    Message('note_on', channel=1, note=59, velocity=121, time=0),
    Message('note_on', channel=1, note=54, velocity=121, time=0),
    Message('note_on', channel=1, note=47, velocity=121, time=0),
    Message('note_on', channel=1, note=63, velocity=121, time=288),
    Message('note_on', channel=1, note=64, velocity=121, time=20),
    Message('note_off', channel=1, note=63, velocity=64, time=12),
    Message('note_on', channel=1, note=63, velocity=121, time=64),
    Message('note_off', channel=1, note=64, velocity=64, time=4),
    Message('note_off', channel=1, note=63, velocity=64, time=60),
    Message('note_on', channel=1, note=59, velocity=121, time=32),
    Message('note_off', channel=1, note=59, velocity=64, time=64),
    Message('note_on', channel=1, note=54, velocity=121, time=32),
    Message('note_off', channel=1, note=54, velocity=64, time=64),
    Message('note_on', channel=1, note=59, velocity=121, time=32),
    Message('note_off', channel=1, note=59, velocity=64, time=64),
    Message('note_off', channel=1, note=47, velocity=64, time=32),
    Message('note_off', channel=1, note=63, velocity=64, time=0),
    Message('note_off', channel=1, note=54, velocity=64, time=0),
    Message('note_off', channel=1, note=59, velocity=64, time=0),
    Message('note_on', channel=1, note=67, velocity=121, time=0),
    Message('note_on', channel=1, note=63, velocity=121, time=0),
    Message('note_on', channel=1, note=58, velocity=121, time=0),
    Message('note_on', channel=1, note=51, velocity=121, time=0),
    Message('note_on', channel=1, note=67, velocity=121, time=288),
    Message('note_on', channel=1, note=68, velocity=121, time=20),
    Message('note_off', channel=1, note=67, velocity=64, time=12),
    Message('note_on', channel=1, note=67, velocity=121, time=64),
    Message('note_off', channel=1, note=68, velocity=64, time=4),
    Message('note_off', channel=1, note=67, velocity=64, time=60),
    Message('note_on', channel=1, note=63, velocity=121, time=32),
    Message('note_off', channel=1, note=63, velocity=64, time=64),
    Message('note_on', channel=1, note=58, velocity=121, time=32),
    Message('note_off', channel=1, note=58, velocity=64, time=64),
    Message('note_on', channel=1, note=63, velocity=121, time=32),
    Message('note_off', channel=1, note=63, velocity=64, time=64),
    Message('note_off', channel=1, note=51, velocity=64, time=32),
    Message('note_off', channel=1, note=67, velocity=64, time=0),
    Message('note_off', channel=1, note=58, velocity=64, time=0),
    Message('note_off', channel=1, note=63, velocity=64, time=0),
    Message('note_on', channel=1, note=65, velocity=121, time=0),
    Message('note_on', channel=1, note=61, velocity=121, time=0),
    Message('note_on', channel=1, note=56, velocity=121, time=0),
    Message('note_on', channel=1, note=49, velocity=121, time=0),
    Message('note_on', channel=1, note=65, velocity=121, time=288),
    Message('note_on', channel=1, note=66, velocity=121, time=20),
    Message('note_off', channel=1, note=65, velocity=64, time=12),
    Message('note_on', channel=1, note=65, velocity=121, time=64),
    Message('note_off', channel=1, note=66, velocity=64, time=4),
    Message('note_off', channel=1, note=65, velocity=64, time=60),
    Message('note_on', channel=1, note=61, velocity=121, time=32),
    Message('note_off', channel=1, note=61, velocity=64, time=64),
    Message('note_on', channel=1, note=56, velocity=121, time=32),
    Message('note_off', channel=1, note=56, velocity=64, time=128),
    Message('note_off', channel=1, note=49, velocity=64, time=64),
    Message('note_off', channel=1, note=65, velocity=64, time=0),
    Message('note_off', channel=1, note=61, velocity=64, time=0),
    Message('note_off', channel=1, note=56, velocity=64, time=0),
    Message('note_on', channel=1, note=63, velocity=121, time=0),
    Message('note_on', channel=1, note=59, velocity=121, time=0),
    Message('note_on', channel=1, note=54, velocity=121, time=0),
    Message('note_on', channel=1, note=47, velocity=121, time=0),
    Message('note_on', channel=1, note=63, velocity=121, time=288),
    Message('note_on', channel=1, note=64, velocity=121, time=20),
    Message('note_off', channel=1, note=63, velocity=64, time=12),
    Message('note_on', channel=1, note=63, velocity=121, time=64),
    Message('note_off', channel=1, note=64, velocity=64, time=4),
    Message('note_off', channel=1, note=63, velocity=64, time=60),
    Message('note_on', channel=1, note=59, velocity=121, time=32),
    Message('note_off', channel=1, note=59, velocity=64, time=64),
    Message('note_on', channel=1, note=54, velocity=121, time=32),
    Message('note_off', channel=1, note=54, velocity=64, time=64),
    Message('note_on', channel=1, note=59, velocity=121, time=32),
    Message('note_off', channel=1, note=59, velocity=64, time=64),
    Message('note_off', channel=1, note=47, velocity=64, time=32),
    Message('note_off', channel=1, note=63, velocity=64, time=0),
    Message('note_off', channel=1, note=54, velocity=64, time=0),
    Message('note_off', channel=1, note=59, velocity=64, time=0),
    Message('note_on', channel=1, note=67, velocity=121, time=0),
    Message('note_on', channel=1, note=63, velocity=121, time=0),
    Message('note_on', channel=1, note=58, velocity=121, time=0),
    Message('note_on', channel=1, note=51, velocity=121, time=0),
    Message('note_on', channel=1, note=67, velocity=121, time=288),
    Message('note_on', channel=1, note=63, velocity=121, time=0),
    Message('note_on', channel=1, note=58, velocity=121, time=0),
    Message('note_on', channel=1, note=51, velocity=121, time=0),
    Message('note_off', channel=1, note=67, velocity=64, time=96),
    Message('note_off', channel=1, note=63, velocity=64, time=0),
    Message('note_off', channel=1, note=58, velocity=64, time=0),
    Message('note_off', channel=1, note=51, velocity=64, time=0),
    Message('note_on', channel=1, note=67, velocity=121, time=0),
    Message('note_on', channel=1, note=63, velocity=121, time=0),
    Message('note_on', channel=1, note=58, velocity=121, time=0),
    Message('note_on', channel=1, note=51, velocity=121, time=0),
    Message('note_off', channel=1, note=67, velocity=64, time=192),
    Message('note_off', channel=1, note=63, velocity=64, time=0),
    Message('note_off', channel=1, note=58, velocity=64, time=0),
    Message('note_off', channel=1, note=51, velocity=64, time=0),
    Message('note_on', channel=1, note=67, velocity=121, time=0),
    Message('note_on', channel=1, note=63, velocity=121, time=0),
    Message('note_on', channel=1, note=58, velocity=121, time=0),
    Message('note_on', channel=1, note=51, velocity=121, time=0),
    Message('note_off', channel=1, note=67, velocity=64, time=192),
    Message('note_off', channel=1, note=63, velocity=64, time=0),
    Message('note_off', channel=1, note=58, velocity=64, time=0),
    Message('note_off', channel=1, note=51, velocity=64, time=0),
    Message('note_off', channel=1, note=67, velocity=64, time=0),
    Message('note_off', channel=1, note=63, velocity=64, time=0),
    Message('note_off', channel=1, note=58, velocity=64, time=0),
    Message('note_off', channel=1, note=51, velocity=64, time=0),
    Message('note_on', channel=1, note=49, velocity=121, time=0),
    Message('note_off', channel=1, note=49, velocity=64, time=96),
    Message('note_on', channel=1, note=48, velocity=121, time=0),
    Message('note_off', channel=1, note=48, velocity=64, time=192),
    Message('note_on', channel=1, note=46, velocity=121, time=0),
    Message('note_off', channel=1, note=46, velocity=64, time=192),
    Message('note_on', channel=1, note=48, velocity=121, time=0),
    Message('note_on', channel=1, note=49, velocity=121, time=10),
    Message('note_off', channel=1, note=48, velocity=64, time=6),
    Message('note_on', channel=1, note=44, velocity=121, time=80),
    Message('note_off', channel=1, note=49, velocity=64, time=10),
    Message('note_off', channel=1, note=44, velocity=64, time=86),
    Message('note_on', channel=1, note=43, velocity=121, time=0),
    Message('note_off', channel=1, note=43, velocity=64, time=192),
    Message('note_on', channel=1, note=42, velocity=121, time=0),
    Message('note_on', channel=1, note=68, velocity=121, time=288),
    Message('note_on', channel=1, note=63, velocity=121, time=0),
    Message('note_on', channel=1, note=60, velocity=121, time=0),
    Message('note_on', channel=1, note=54, velocity=121, time=0),
    Message('note_on', channel=1, note=49, velocity=121, time=0),
    Message('note_on', channel=1, note=42, velocity=121, time=0),
    Message('note_off', channel=1, note=42, velocity=64, time=96),
    Message('note_on', channel=1, note=68, velocity=121, time=192),
    Message('note_on', channel=1, note=63, velocity=121, time=0),
    Message('note_on', channel=1, note=60, velocity=121, time=0),
    Message('note_on', channel=1, note=54, velocity=121, time=0),
    Message('note_on', channel=1, note=49, velocity=121, time=0),
    Message('note_on', channel=1, note=42, velocity=121, time=0),
    Message('note_off', channel=1, note=68, velocity=64, time=96),
    Message('note_off', channel=1, note=63, velocity=64, time=0),
    Message('note_off', channel=1, note=60, velocity=64, time=0),
    Message('note_off', channel=1, note=54, velocity=64, time=0),
    Message('note_off', channel=1, note=49, velocity=64, time=0),
    Message('note_off', channel=1, note=42, velocity=64, time=0),
    Message('note_off', channel=1, note=68, velocity=64, time=0),
    Message('note_off', channel=1, note=63, velocity=64, time=0),
    Message('note_off', channel=1, note=60, velocity=64, time=0),
    Message('note_off', channel=1, note=54, velocity=64, time=0),
    Message('note_off', channel=1, note=49, velocity=64, time=0),
    Message('note_off', channel=1, note=42, velocity=64, time=0),
    Message('note_on', channel=1, note=68, velocity=121, time=0),
    Message('note_on', channel=1, note=63, velocity=121, time=0),
    Message('note_on', channel=1, note=60, velocity=121, time=0),
    Message('note_on', channel=1, note=54, velocity=121, time=0),
    Message('note_on', channel=1, note=49, velocity=121, time=0),
    Message('note_on', channel=1, note=42, velocity=121, time=0),
    Message('note_off', channel=1, note=68, velocity=64, time=192),
    Message('note_off', channel=1, note=63, velocity=64, time=0),
    Message('note_off', channel=1, note=60, velocity=64, time=0),
    Message('note_off', channel=1, note=54, velocity=64, time=0),
    Message('note_off', channel=1, note=49, velocity=64, time=0),
    Message('note_off', channel=1, note=42, velocity=64, time=0),
    Message('note_on', channel=1, note=42, velocity=121, time=0),
    Message('note_on', channel=1, note=54, velocity=121, time=0),
    Message('note_on', channel=1, note=49, velocity=121, time=0),
    Message('note_off', channel=1, note=42, velocity=64, time=96),
    Message('note_off', channel=1, note=54, velocity=64, time=0),
    Message('note_off', channel=1, note=49, velocity=64, time=0),
    Message('note_on', channel=1, note=44, velocity=121, time=0),
    Message('note_on', channel=1, note=51, velocity=121, time=0),
    Message('note_on', channel=1, note=56, velocity=121, time=0),
    Message('note_off', channel=1, note=44, velocity=64, time=96),
    Message('note_off', channel=1, note=51, velocity=64, time=0),
    Message('note_off', channel=1, note=56, velocity=64, time=0),
    Message('note_on', channel=1, note=56, velocity=121, time=0),
    Message('note_on', channel=1, note=44, velocity=121, time=0),
    Message('note_on', channel=1, note=51, velocity=121, time=0),
    Message('control_change', channel=1, control=1, value=76, time=4),
    Message('control_change', channel=1, control=1, value=0, time=2876),
    Message('note_off', channel=1, note=44, velocity=64, time=56),
    Message('note_off', channel=1, note=51, velocity=64, time=0),
    Message('note_off', channel=1, note=56, velocity=64, time=0),
    MetaMessage('end_of_track', time=0)]),
  MidiTrack([
    MetaMessage('track_name', name='Chris Cornell -Vocals-', time=0),
    Message('control_change', channel=2, control=0, value=0, time=0),
    Message('program_change', channel=2, program=22, time=0),
    MetaMessage('key_signature', key='G', time=0),
    Message('note_on', channel=2, note=70, velocity=127, time=5472),
    Message('note_on', channel=2, note=72, velocity=127, time=20),
    Message('note_off', channel=2, note=70, velocity=83, time=12),
    Message('note_off', channel=2, note=72, velocity=83, time=116),
    Message('note_on', channel=2, note=75, velocity=127, time=44),
    Message('note_off', channel=2, note=75, velocity=83, time=64),
    Message('note_on', channel=2, note=77, velocity=127, time=32),
    Message('note_off', channel=2, note=77, velocity=83, time=128),
    Message('note_on', channel=2, note=70, velocity=127, time=352),
    Message('note_on', channel=2, note=72, velocity=127, time=20),
    Message('note_off', channel=2, note=70, velocity=83, time=12),
    Message('note_off', channel=2, note=72, velocity=83, time=116),
    Message('note_on', channel=2, note=75, velocity=127, time=44),
    Message('note_off', channel=2, note=75, velocity=83, time=64),
    Message('note_on', channel=2, note=77, velocity=127, time=32),
    Message('note_off', channel=2, note=77, velocity=83, time=256),
    Message('note_on', channel=2, note=72, velocity=127, time=320),
    Message('note_off', channel=2, note=72, velocity=83, time=64),
    Message('note_on', channel=2, note=75, velocity=127, time=32),
    Message('note_off', channel=2, note=75, velocity=83, time=64),
    Message('note_on', channel=2, note=76, velocity=127, time=32),
    Message('note_on', channel=2, note=77, velocity=127, time=20),
    Message('note_off', channel=2, note=76, velocity=83, time=12),
    Message('note_off', channel=2, note=77, velocity=83, time=116),
    Message('note_on', channel=2, note=80, velocity=127, time=44),
    Message('note_off', channel=2, note=80, velocity=83, time=64),
    Message('note_on', channel=2, note=75, velocity=127, time=32),
    Message('note_off', channel=2, note=75, velocity=83, time=128),
    Message('note_on', channel=2, note=76, velocity=127, time=64),
    Message('note_on', channel=2, note=77, velocity=127, time=20),
    Message('note_off', channel=2, note=76, velocity=83, time=12),
    Message('note_off', channel=2, note=77, velocity=83, time=116),
    Message('note_on', channel=2, note=72, velocity=127, time=44),
    Message('note_off', channel=2, note=72, velocity=83, time=192),
    Message('note_on', channel=2, note=66, velocity=127, time=288),
    Message('note_on', channel=2, note=68, velocity=127, time=20),
    Message('note_off', channel=2, note=66, velocity=83, time=12),
    Message('note_off', channel=2, note=68, velocity=83, time=116),
    Message('note_on', channel=2, note=70, velocity=127, time=44),
    Message('note_off', channel=2, note=70, velocity=83, time=64),
    Message('note_on', channel=2, note=71, velocity=127, time=32),
    Message('note_off', channel=2, note=71, velocity=83, time=192),
    Message('note_on', channel=2, note=71, velocity=127, time=288),
    Message('note_on', channel=2, note=73, velocity=127, time=20),
    Message('note_off', channel=2, note=71, velocity=83, time=12),
    Message('note_off', channel=2, note=73, velocity=83, time=116),
    Message('note_on', channel=2, note=71, velocity=127, time=140),
    Message('note_off', channel=2, note=71, velocity=83, time=128),
    Message('note_on', channel=2, note=70, velocity=127, time=64),
    Message('note_off', channel=2, note=70, velocity=83, time=192),
    Message('note_on', channel=2, note=68, velocity=127, time=192),
    Message('note_off', channel=2, note=68, velocity=83, time=128),
    Message('note_on', channel=2, note=65, velocity=127, time=64),
    Message('note_off', channel=2, note=65, velocity=83, time=64),
    Message('note_on', channel=2, note=63, velocity=127, time=32),
    Message('note_off', channel=2, note=63, velocity=83, time=64),
    Message('note_on', channel=2, note=72, velocity=127, time=32),
    Message('note_off', channel=2, note=72, velocity=83, time=128),
    Message('note_on', channel=2, note=72, velocity=127, time=64),
    Message('note_off', channel=2, note=72, velocity=83, time=128),
    Message('note_on', channel=2, note=70, velocity=127, time=64),
    Message('note_off', channel=2, note=70, velocity=83, time=128),
    Message('note_on', channel=2, note=71, velocity=127, time=64),
    Message('note_on', channel=2, note=73, velocity=127, time=20),
    Message('note_off', channel=2, note=71, velocity=83, time=12),
    Message('note_off', channel=2, note=73, velocity=83, time=500),
    Message('note_on', channel=2, note=72, velocity=127, time=44),
    Message('note_off', channel=2, note=72, velocity=83, time=128),
    Message('note_on', channel=2, note=75, velocity=127, time=64),
    Message('note_off', channel=2, note=75, velocity=83, time=64),
    Message('note_on', channel=2, note=77, velocity=127, time=32),
    Message('note_off', channel=2, note=77, velocity=83, time=128),
    Message('note_on', channel=2, note=72, velocity=127, time=352),
    Message('note_off', channel=2, note=72, velocity=83, time=128),
    Message('note_on', channel=2, note=75, velocity=127, time=64),
    Message('note_on', channel=2, note=77, velocity=127, time=96),
    Message('note_off', channel=2, note=75, velocity=83, time=32),
    Message('note_off', channel=2, note=77, velocity=83, time=160),
    Message('note_on', channel=2, note=72, velocity=127, time=384),
    Message('note_off', channel=2, note=72, velocity=83, time=64),
    Message('note_on', channel=2, note=75, velocity=127, time=32),
    Message('note_off', channel=2, note=75, velocity=83, time=64),
    Message('note_on', channel=2, note=76, velocity=127, time=32),
    Message('note_on', channel=2, note=77, velocity=127, time=20),
    Message('note_off', channel=2, note=76, velocity=83, time=12),
    Message('note_off', channel=2, note=77, velocity=83, time=116),
    Message('note_on', channel=2, note=80, velocity=127, time=44),
    Message('note_off', channel=2, note=80, velocity=83, time=64),
    Message('note_on', channel=2, note=75, velocity=127, time=32),
    Message('note_off', channel=2, note=75, velocity=83, time=128),
    Message('note_on', channel=2, note=77, velocity=127, time=64),
    Message('note_off', channel=2, note=77, velocity=83, time=128),
    Message('note_on', channel=2, note=73, velocity=127, time=64),
    Message('note_on', channel=2, note=72, velocity=127, time=20),
    Message('note_off', channel=2, note=73, velocity=83, time=12),
    Message('note_off', channel=2, note=72, velocity=83, time=116),
    Message('note_on', channel=2, note=68, velocity=127, time=332),
    Message('note_off', channel=2, note=68, velocity=83, time=64),
    Message('note_on', channel=2, note=70, velocity=127, time=32),
    Message('note_off', channel=2, note=70, velocity=83, time=128),
    Message('note_on', channel=2, note=71, velocity=127, time=64),
    Message('note_off', channel=2, note=71, velocity=83, time=256),
    Message('note_on', channel=2, note=73, velocity=127, time=128),
    Message('note_off', channel=2, note=73, velocity=83, time=256),
    Message('note_on', channel=2, note=71, velocity=127, time=128),
    Message('note_off', channel=2, note=71, velocity=83, time=64),
    Message('note_on', channel=2, note=70, velocity=127, time=32),
    Message('note_off', channel=2, note=70, velocity=83, time=192),
    Message('note_on', channel=2, note=68, velocity=127, time=96),
    Message('note_off', channel=2, note=68, velocity=83, time=128),
    Message('note_on', channel=2, note=65, velocity=127, time=64),
    Message('note_off', channel=2, note=65, velocity=83, time=64),
    Message('note_on', channel=2, note=63, velocity=127, time=224),
    Message('note_off', channel=2, note=63, velocity=83, time=64),
    Message('note_on', channel=2, note=72, velocity=127, time=32),
    Message('note_off', channel=2, note=72, velocity=83, time=128),
    Message('note_on', channel=2, note=72, velocity=127, time=64),
    Message('note_off', channel=2, note=72, velocity=83, time=192),
    Message('note_on', channel=2, note=70, velocity=127, time=96),
    Message('note_off', channel=2, note=70, velocity=83, time=64),
    Message('note_on', channel=2, note=73, velocity=127, time=32),
    Message('pitchwheel', channel=2, pitch=-3192, time=480),
    Message('pitchwheel', channel=2, pitch=-8192, time=16),
    Message('note_off', channel=2, note=73, velocity=83, time=272),
    Message('pitchwheel', channel=2, pitch=0, time=96),
    Message('note_on', channel=2, note=67, velocity=127, time=384),
    Message('note_on', channel=2, note=68, velocity=127, time=16),
    Message('note_off', channel=2, note=67, velocity=83, time=16),
    Message('note_off', channel=2, note=68, velocity=83, time=48),
    Message('note_on', channel=2, note=70, velocity=127, time=16),
    Message('note_off', channel=2, note=70, velocity=83, time=192),
    Message('note_on', channel=2, note=71, velocity=127, time=96),
    Message('note_off', channel=2, note=71, velocity=83, time=128),
    Message('note_on', channel=2, note=72, velocity=127, time=256),
    Message('note_on', channel=2, note=73, velocity=127, time=20),
    Message('note_off', channel=2, note=72, velocity=83, time=12),
    Message('note_off', channel=2, note=73, velocity=83, time=116),
    Message('note_on', channel=2, note=71, velocity=127, time=44),
    Message('note_off', channel=2, note=71, velocity=83, time=64),
    Message('note_on', channel=2, note=70, velocity=127, time=32),
    Message('note_off', channel=2, note=70, velocity=83, time=192),
    Message('note_on', channel=2, note=63, velocity=127, time=576),
    Message('note_off', channel=2, note=63, velocity=83, time=64),
    Message('note_on', channel=2, note=72, velocity=127, time=32),
    Message('note_off', channel=2, note=72, velocity=83, time=128),
    Message('note_on', channel=2, note=70, velocity=127, time=64),
    Message('note_off', channel=2, note=70, velocity=83, time=64),
    Message('note_on', channel=2, note=70, velocity=127, time=32),
    Message('note_off', channel=2, note=70, velocity=83, time=192),
    Message('note_on', channel=2, note=68, velocity=127, time=96),
    Message('note_off', channel=2, note=68, velocity=83, time=64),
    Message('note_on', channel=2, note=72, velocity=127, time=32),
    Message('note_on', channel=2, note=73, velocity=127, time=20),
    Message('note_off', channel=2, note=72, velocity=83, time=12),
    Message('note_off', channel=2, note=73, velocity=83, time=204),
    Message('note_on', channel=2, note=68, velocity=127, time=52),
    Message('note_off', channel=2, note=68, velocity=83, time=128),
    Message('note_on', channel=2, note=68, velocity=127, time=64),
    Message('note_off', channel=2, note=68, velocity=83, time=64),
    Message('note_on', channel=2, note=70, velocity=127, time=32),
    Message('note_off', channel=2, note=70, velocity=83, time=192),
    Message('note_on', channel=2, note=71, velocity=127, time=96),
    Message('note_off', channel=2, note=71, velocity=83, time=128),
    Message('note_on', channel=2, note=67, velocity=127, time=256),
    Message('note_on', channel=2, note=68, velocity=127, time=20),
    Message('note_off', channel=2, note=67, velocity=83, time=12),
    Message('note_off', channel=2, note=68, velocity=83, time=116),
    Message('note_on', channel=2, note=71, velocity=127, time=44),
    Message('note_off', channel=2, note=71, velocity=83, time=64),
    Message('note_on', channel=2, note=70, velocity=127, time=32),
    Message('note_off', channel=2, note=70, velocity=83, time=192),
    Message('note_on', channel=2, note=70, velocity=127, time=288),
    Message('note_on', channel=2, note=71, velocity=127, time=20),
    Message('note_off', channel=2, note=70, velocity=83, time=12),
    Message('note_off', channel=2, note=71, velocity=83, time=116),
    Message('note_on', channel=2, note=65, velocity=127, time=44),
    Message('note_off', channel=2, note=65, velocity=83, time=64),
    Message('note_on', channel=2, note=68, velocity=127, time=32),
    Message('note_off', channel=2, note=68, velocity=83, time=384),
    Message('note_on', channel=2, note=64, velocity=127, time=96),
    Message('note_on', channel=2, note=65, velocity=127, time=20),
    Message('note_off', channel=2, note=64, velocity=83, time=12),
    Message('note_off', channel=2, note=65, velocity=83, time=116),
    Message('note_on', channel=2, note=68, velocity=127, time=44),
    Message('note_off', channel=2, note=68, velocity=83, time=64),
    Message('note_on', channel=2, note=67, velocity=127, time=32),
    Message('note_off', channel=2, note=67, velocity=83, time=512),
    Message('note_on', channel=2, note=71, velocity=127, time=832),
    Message('note_on', channel=2, note=72, velocity=127, time=20),
    Message('note_off', channel=2, note=71, velocity=83, time=12),
    Message('note_off', channel=2, note=72, velocity=83, time=116),
    Message('note_on', channel=2, note=75, velocity=127, time=44),
    Message('note_off', channel=2, note=75, velocity=83, time=64),
    Message('note_on', channel=2, note=77, velocity=127, time=32),
    Message('note_off', channel=2, note=77, velocity=83, time=128),
    Message('note_on', channel=2, note=70, velocity=127, time=352),
    Message('note_on', channel=2, note=72, velocity=127, time=20),
    Message('note_off', channel=2, note=70, velocity=83, time=12),
    Message('note_off', channel=2, note=72, velocity=83, time=116),
    Message('note_on', channel=2, note=75, velocity=127, time=44),
    Message('note_off', channel=2, note=75, velocity=83, time=64),
    Message('note_on', channel=2, note=77, velocity=127, time=32),
    Message('note_off', channel=2, note=77, velocity=83, time=256),
    Message('note_on', channel=2, note=72, velocity=127, time=320),
    Message('note_off', channel=2, note=72, velocity=83, time=64),
    Message('note_on', channel=2, note=75, velocity=127, time=32),
    Message('note_off', channel=2, note=75, velocity=83, time=64),
    Message('note_on', channel=2, note=76, velocity=127, time=32),
    Message('note_on', channel=2, note=77, velocity=127, time=20),
    Message('note_off', channel=2, note=76, velocity=83, time=12),
    Message('note_off', channel=2, note=77, velocity=83, time=116),
    Message('note_on', channel=2, note=80, velocity=127, time=44),
    Message('note_off', channel=2, note=80, velocity=83, time=64),
    Message('note_on', channel=2, note=75, velocity=127, time=32),
    Message('note_off', channel=2, note=75, velocity=83, time=128),
    Message('note_on', channel=2, note=76, velocity=127, time=64),
    Message('note_on', channel=2, note=77, velocity=127, time=20),
    Message('note_off', channel=2, note=76, velocity=83, time=12),
    Message('note_off', channel=2, note=77, velocity=83, time=116),
    Message('note_on', channel=2, note=72, velocity=127, time=44),
    Message('note_off', channel=2, note=72, velocity=83, time=192),
    Message('note_on', channel=2, note=66, velocity=127, time=288),
    Message('note_on', channel=2, note=68, velocity=127, time=20),
    Message('note_off', channel=2, note=66, velocity=83, time=12),
    Message('note_off', channel=2, note=68, velocity=83, time=116),
    Message('note_on', channel=2, note=70, velocity=127, time=44),
    Message('note_off', channel=2, note=70, velocity=83, time=64),
    Message('note_on', channel=2, note=71, velocity=127, time=32),
    Message('note_off', channel=2, note=71, velocity=83, time=192),
    Message('note_on', channel=2, note=71, velocity=127, time=288),
    Message('note_on', channel=2, note=73, velocity=127, time=20),
    Message('note_off', channel=2, note=71, velocity=83, time=12),
    Message('note_off', channel=2, note=73, velocity=83, time=116),
    Message('note_on', channel=2, note=71, velocity=127, time=140),
    Message('note_off', channel=2, note=71, velocity=83, time=128),
    Message('note_on', channel=2, note=70, velocity=127, time=64),
    Message('note_off', channel=2, note=70, velocity=83, time=192),
    Message('note_on', channel=2, note=68, velocity=127, time=192),
    Message('note_off', channel=2, note=68, velocity=83, time=128),
    Message('note_on', channel=2, note=65, velocity=127, time=64),
    Message('note_off', channel=2, note=65, velocity=83, time=64),
    Message('note_on', channel=2, note=63, velocity=127, time=32),
    Message('note_off', channel=2, note=63, velocity=83, time=64),
    Message('note_on', channel=2, note=72, velocity=127, time=32),
    Message('note_off', channel=2, note=72, velocity=83, time=128),
    Message('note_on', channel=2, note=72, velocity=127, time=64),
    Message('note_off', channel=2, note=72, velocity=83, time=128),
    Message('note_on', channel=2, note=70, velocity=127, time=64),
    Message('note_off', channel=2, note=70, velocity=83, time=128),
    Message('note_on', channel=2, note=71, velocity=127, time=64),
    Message('note_on', channel=2, note=73, velocity=127, time=20),
    Message('note_off', channel=2, note=71, velocity=83, time=12),
    Message('note_off', channel=2, note=73, velocity=83, time=500),
    Message('note_on', channel=2, note=72, velocity=127, time=44),
    Message('note_off', channel=2, note=72, velocity=83, time=128),
    Message('note_on', channel=2, note=75, velocity=127, time=64),
    Message('note_off', channel=2, note=75, velocity=83, time=64),
    Message('note_on', channel=2, note=77, velocity=127, time=32),
    Message('note_off', channel=2, note=77, velocity=83, time=128),
    Message('note_on', channel=2, note=72, velocity=127, time=352),
    Message('note_off', channel=2, note=72, velocity=83, time=128),
    Message('note_on', channel=2, note=75, velocity=127, time=64),
    Message('note_on', channel=2, note=77, velocity=127, time=96),
    Message('note_off', channel=2, note=75, velocity=83, time=32),
    Message('note_off', channel=2, note=77, velocity=83, time=160),
    Message('note_on', channel=2, note=72, velocity=127, time=384),
    Message('note_off', channel=2, note=72, velocity=83, time=64),
    Message('note_on', channel=2, note=75, velocity=127, time=32),
    Message('note_off', channel=2, note=75, velocity=83, time=64),
    Message('note_on', channel=2, note=76, velocity=127, time=32),
    Message('note_on', channel=2, note=77, velocity=127, time=20),
    Message('note_off', channel=2, note=76, velocity=83, time=12),
    Message('note_off', channel=2, note=77, velocity=83, time=116),
    Message('note_on', channel=2, note=80, velocity=127, time=44),
    Message('note_off', channel=2, note=80, velocity=83, time=64),
    Message('note_on', channel=2, note=75, velocity=127, time=32),
    Message('note_off', channel=2, note=75, velocity=83, time=128),
    Message('note_on', channel=2, note=77, velocity=127, time=64),
    Message('note_off', channel=2, note=77, velocity=83, time=128),
    Message('note_on', channel=2, note=73, velocity=127, time=64),
    Message('note_on', channel=2, note=72, velocity=127, time=20),
    Message('note_off', channel=2, note=73, velocity=83, time=12),
    Message('note_off', channel=2, note=72, velocity=83, time=116),
    Message('note_on', channel=2, note=68, velocity=127, time=332),
    Message('note_off', channel=2, note=68, velocity=83, time=64),
    Message('note_on', channel=2, note=70, velocity=127, time=32),
    Message('note_off', channel=2, note=70, velocity=83, time=128),
    Message('note_on', channel=2, note=71, velocity=127, time=64),
    Message('note_off', channel=2, note=71, velocity=83, time=256),
    Message('note_on', channel=2, note=73, velocity=127, time=128),
    Message('note_off', channel=2, note=73, velocity=83, time=256),
    Message('note_on', channel=2, note=71, velocity=127, time=128),
    Message('note_off', channel=2, note=71, velocity=83, time=64),
    Message('note_on', channel=2, note=70, velocity=127, time=32),
    Message('note_off', channel=2, note=70, velocity=83, time=192),
    Message('note_on', channel=2, note=68, velocity=127, time=96),
    Message('note_off', channel=2, note=68, velocity=83, time=128),
    Message('note_on', channel=2, note=65, velocity=127, time=64),
    Message('note_off', channel=2, note=65, velocity=83, time=64),
    Message('note_on', channel=2, note=63, velocity=127, time=224),
    Message('note_off', channel=2, note=63, velocity=83, time=64),
    Message('note_on', channel=2, note=72, velocity=127, time=32),
    Message('note_off', channel=2, note=72, velocity=83, time=128),
    Message('note_on', channel=2, note=72, velocity=127, time=64),
    Message('note_off', channel=2, note=72, velocity=83, time=192),
    Message('note_on', channel=2, note=70, velocity=127, time=96),
    Message('note_off', channel=2, note=70, velocity=83, time=64),
    Message('note_on', channel=2, note=73, velocity=127, time=32),
    Message('pitchwheel', channel=2, pitch=-3192, time=480),
    Message('pitchwheel', channel=2, pitch=-8192, time=16),
    Message('note_off', channel=2, note=73, velocity=83, time=272),
    Message('pitchwheel', channel=2, pitch=0, time=96),
    Message('note_on', channel=2, note=67, velocity=127, time=384),
    Message('note_on', channel=2, note=68, velocity=127, time=16),
    Message('note_off', channel=2, note=67, velocity=83, time=16),
    Message('note_off', channel=2, note=68, velocity=83, time=48),
    Message('note_on', channel=2, note=70, velocity=127, time=16),
    Message('note_off', channel=2, note=70, velocity=83, time=192),
    Message('note_on', channel=2, note=71, velocity=127, time=96),
    Message('note_off', channel=2, note=71, velocity=83, time=128),
    Message('note_on', channel=2, note=72, velocity=127, time=256),
    Message('note_on', channel=2, note=73, velocity=127, time=20),
    Message('note_off', channel=2, note=72, velocity=83, time=12),
    Message('note_off', channel=2, note=73, velocity=83, time=116),
    Message('note_on', channel=2, note=71, velocity=127, time=44),
    Message('note_off', channel=2, note=71, velocity=83, time=64),
    Message('note_on', channel=2, note=70, velocity=127, time=32),
    Message('note_off', channel=2, note=70, velocity=83, time=192),
    Message('note_on', channel=2, note=63, velocity=127, time=576),
    Message('note_off', channel=2, note=63, velocity=83, time=64),
    Message('note_on', channel=2, note=72, velocity=127, time=32),
    Message('note_off', channel=2, note=72, velocity=83, time=128),
    Message('note_on', channel=2, note=70, velocity=127, time=64),
    Message('note_off', channel=2, note=70, velocity=83, time=64),
    Message('note_on', channel=2, note=70, velocity=127, time=32),
    Message('note_off', channel=2, note=70, velocity=83, time=192),
    Message('note_on', channel=2, note=68, velocity=127, time=96),
    Message('note_off', channel=2, note=68, velocity=83, time=64),
    Message('note_on', channel=2, note=72, velocity=127, time=32),
    Message('note_on', channel=2, note=73, velocity=127, time=20),
    Message('note_off', channel=2, note=72, velocity=83, time=12),
    Message('note_off', channel=2, note=73, velocity=83, time=204),
    Message('note_on', channel=2, note=68, velocity=127, time=52),
    Message('note_off', channel=2, note=68, velocity=83, time=128),
    Message('note_on', channel=2, note=68, velocity=127, time=64),
    Message('note_off', channel=2, note=68, velocity=83, time=64),
    Message('note_on', channel=2, note=70, velocity=127, time=32),
    Message('note_off', channel=2, note=70, velocity=83, time=192),
    Message('note_on', channel=2, note=71, velocity=127, time=96),
    Message('note_off', channel=2, note=71, velocity=83, time=128),
    Message('note_on', channel=2, note=67, velocity=127, time=256),
    Message('note_on', channel=2, note=68, velocity=127, time=20),
    Message('note_off', channel=2, note=67, velocity=83, time=12),
    Message('note_off', channel=2, note=68, velocity=83, time=116),
    Message('note_on', channel=2, note=71, velocity=127, time=44),
    Message('note_off', channel=2, note=71, velocity=83, time=64),
    Message('note_on', channel=2, note=70, velocity=127, time=32),
    Message('note_off', channel=2, note=70, velocity=83, time=192),
    Message('note_on', channel=2, note=70, velocity=127, time=288),
    Message('note_on', channel=2, note=71, velocity=127, time=20),
    Message('note_off', channel=2, note=70, velocity=83, time=12),
    Message('note_off', channel=2, note=71, velocity=83, time=116),
    Message('note_on', channel=2, note=65, velocity=127, time=44),
    Message('note_off', channel=2, note=65, velocity=83, time=64),
    Message('note_on', channel=2, note=68, velocity=127, time=32),
    Message('note_off', channel=2, note=68, velocity=83, time=896),
    Message('note_on', channel=2, note=67, velocity=127, time=352),
    Message('note_on', channel=2, note=68, velocity=127, time=16),
    Message('note_off', channel=2, note=67, velocity=83, time=16),
    Message('note_off', channel=2, note=68, velocity=83, time=48),
    Message('note_on', channel=2, note=70, velocity=127, time=16),
    Message('note_off', channel=2, note=70, velocity=83, time=192),
    Message('note_on', channel=2, note=71, velocity=127, time=96),
    Message('note_off', channel=2, note=71, velocity=83, time=128),
    Message('note_on', channel=2, note=72, velocity=127, time=256),
    Message('note_on', channel=2, note=73, velocity=127, time=16),
    Message('note_off', channel=2, note=72, velocity=83, time=16),
    Message('note_off', channel=2, note=73, velocity=83, time=112),
    Message('note_on', channel=2, note=71, velocity=127, time=144),
    Message('note_off', channel=2, note=71, velocity=83, time=64),
    Message('note_on', channel=2, note=70, velocity=127, time=32),
    Message('note_off', channel=2, note=70, velocity=83, time=128),
    Message('note_on', channel=2, note=63, velocity=127, time=544),
    Message('note_off', channel=2, note=63, velocity=83, time=64),
    Message('note_on', channel=2, note=72, velocity=127, time=32),
    Message('note_off', channel=2, note=72, velocity=83, time=128),
    Message('note_on', channel=2, note=70, velocity=127, time=64),
    Message('note_off', channel=2, note=70, velocity=83, time=64),
    Message('note_on', channel=2, note=70, velocity=127, time=32),
    Message('note_off', channel=2, note=70, velocity=83, time=192),
    Message('note_on', channel=2, note=68, velocity=127, time=96),
    Message('note_off', channel=2, note=68, velocity=83, time=64),
    Message('note_on', channel=2, note=73, velocity=127, time=32),
    Message('note_off', channel=2, note=73, velocity=83, time=192),
    Message('note_on', channel=2, note=68, velocity=127, time=96),
    Message('note_off', channel=2, note=68, velocity=83, time=128),
    Message('note_on', channel=2, note=67, velocity=127, time=64),
    Message('note_on', channel=2, note=68, velocity=127, time=16),
    Message('note_off', channel=2, note=67, velocity=83, time=16),
    Message('note_off', channel=2, note=68, velocity=83, time=48),
    Message('note_on', channel=2, note=70, velocity=127, time=16),
    Message('note_off', channel=2, note=70, velocity=83, time=192),
    Message('note_on', channel=2, note=71, velocity=127, time=96),
    Message('note_on', channel=2, note=72, velocity=127, time=16),
    Message('note_off', channel=2, note=71, velocity=83, time=16),
    Message('note_off', channel=2, note=72, velocity=83, time=16),
    Message('note_on', channel=2, note=71, velocity=127, time=48),
    Message('note_off', channel=2, note=71, velocity=83, time=64),
    Message('note_on', channel=2, note=66, velocity=127, time=224),
    Message('note_on', channel=2, note=68, velocity=127, time=16),
    Message('note_off', channel=2, note=66, velocity=83, time=16),
    Message('note_off', channel=2, note=68, velocity=83, time=112),
    Message('note_on', channel=2, note=71, velocity=127, time=48),
    Message('note_off', channel=2, note=71, velocity=83, time=64),
    Message('note_on', channel=2, note=70, velocity=127, time=32),
    Message('note_off', channel=2, note=70, velocity=83, time=192),
    Message('note_on', channel=2, note=68, velocity=127, time=288),
    Message('note_on', channel=2, note=70, velocity=127, time=16),
    Message('note_off', channel=2, note=68, velocity=83, time=16),
    Message('note_off', channel=2, note=70, velocity=83, time=112),
    Message('note_on', channel=2, note=71, velocity=127, time=48),
    Message('note_off', channel=2, note=71, velocity=83, time=64),
    Message('note_on', channel=2, note=68, velocity=127, time=32),
    Message('note_off', channel=2, note=68, velocity=83, time=1028),
    Message('note_on', channel=2, note=72, velocity=127, time=988),
    Message('note_on', channel=2, note=65, velocity=127, time=96),
    Message('note_off', channel=2, note=72, velocity=83, time=32),
    Message('note_off', channel=2, note=65, velocity=83, time=32),
    Message('note_on', channel=2, note=65, velocity=127, time=32),
    Message('note_off', channel=2, note=65, velocity=83, time=64),
    Message('note_on', channel=2, note=69, velocity=127, time=32),
    Message('note_on', channel=2, note=70, velocity=127, time=16),
    Message('note_off', channel=2, note=69, velocity=83, time=16),
    Message('note_off', channel=2, note=70, velocity=83, time=48),
    Message('note_on', channel=2, note=68, velocity=127, time=16),
    Message('note_off', channel=2, note=68, velocity=83, time=1028),
    Message('note_on', channel=2, note=75, velocity=127, time=796),
    Message('note_off', channel=2, note=75, velocity=83, time=64),
    Message('note_on', channel=2, note=78, velocity=127, time=32),
    Message('note_off', channel=2, note=78, velocity=83, time=128),
    Message('note_on', channel=2, note=80, velocity=127, time=64),
    Message('note_off', channel=2, note=80, velocity=83, time=64),
    Message('note_on', channel=2, note=71, velocity=127, time=32),
    Message('note_off', channel=2, note=71, velocity=83, time=64),
    Message('note_on', channel=2, note=70, velocity=127, time=32),
    Message('note_off', channel=2, note=70, velocity=83, time=64),
    Message('note_on', channel=2, note=68, velocity=127, time=32),
    Message('note_off', channel=2, note=68, velocity=83, time=1028),
    Message('note_on', channel=2, note=67, velocity=127, time=796),
    Message('note_on', channel=2, note=68, velocity=127, time=16),
    Message('note_off', channel=2, note=67, velocity=83, time=16),
    Message('note_off', channel=2, note=68, velocity=83, time=48),
    Message('note_on', channel=2, note=65, velocity=127, time=16),
    Message('note_off', channel=2, note=65, velocity=83, time=64),
    Message('note_on', channel=2, note=65, velocity=127, time=32),
    Message('note_off', channel=2, note=65, velocity=83, time=64),
    Message('note_on', channel=2, note=69, velocity=127, time=32),
    Message('note_on', channel=2, note=70, velocity=127, time=12),
    Message('note_off', channel=2, note=69, velocity=83, time=20),
    Message('note_off', channel=2, note=70, velocity=83, time=44),
    Message('note_on', channel=2, note=68, velocity=127, time=20),
    Message('note_off', channel=2, note=68, velocity=83, time=1028),
    Message('note_on', channel=2, note=71, velocity=127, time=12796),
    Message('note_on', channel=2, note=72, velocity=127, time=16),
    Message('note_off', channel=2, note=71, velocity=83, time=16),
    Message('note_on', channel=2, note=75, velocity=127, time=64),
    Message('note_off', channel=2, note=72, velocity=83, time=48),
    Message('note_off', channel=2, note=75, velocity=83, time=80),
    Message('note_on', channel=2, note=77, velocity=127, time=64),
    Message('note_off', channel=2, note=77, velocity=83, time=192),
    Message('note_on', channel=2, note=71, velocity=127, time=384),
    Message('note_on', channel=2, note=72, velocity=127, time=16),
    Message('note_off', channel=2, note=71, velocity=83, time=16),
    Message('note_off', channel=2, note=72, velocity=83, time=112),
    Message('note_on', channel=2, note=75, velocity=127, time=48),
    Message('note_off', channel=2, note=75, velocity=83, time=64),
    Message('note_on', channel=2, note=77, velocity=127, time=32),
    Message('note_off', channel=2, note=77, velocity=83, time=192),
    Message('note_on', channel=2, note=72, velocity=127, time=288),
    Message('note_off', channel=2, note=72, velocity=83, time=128),
    Message('note_on', channel=2, note=75, velocity=127, time=64),
    Message('note_off', channel=2, note=75, velocity=83, time=64),
    Message('note_on', channel=2, note=76, velocity=127, time=32),
    Message('note_on', channel=2, note=77, velocity=127, time=16),
    Message('note_off', channel=2, note=76, velocity=83, time=16),
    Message('note_off', channel=2, note=77, velocity=83, time=112),
    Message('note_on', channel=2, note=80, velocity=127, time=48),
    Message('note_off', channel=2, note=80, velocity=83, time=128),
    Message('note_on', channel=2, note=75, velocity=127, time=64),
    Message('note_off', channel=2, note=75, velocity=83, time=64),
    Message('note_on', channel=2, note=77, velocity=127, time=32),
    Message('note_off', channel=2, note=77, velocity=83, time=128),
    Message('note_on', channel=2, note=71, velocity=127, time=64),
    Message('note_on', channel=2, note=72, velocity=127, time=16),
    Message('note_off', channel=2, note=71, velocity=83, time=16),
    Message('note_off', channel=2, note=72, velocity=83, time=856),
    Message('note_on', channel=2, note=67, velocity=127, time=360),
    Message('note_on', channel=2, note=68, velocity=127, time=16),
    Message('note_off', channel=2, note=67, velocity=83, time=16),
    Message('note_on', channel=2, note=70, velocity=127, time=64),
    Message('note_off', channel=2, note=68, velocity=83, time=48),
    Message('note_off', channel=2, note=70, velocity=83, time=144),
    Message('note_on', channel=2, note=71, velocity=127, time=96),
    Message('note_off', channel=2, note=71, velocity=83, time=128),
    Message('note_on', channel=2, note=72, velocity=127, time=256),
    Message('note_on', channel=2, note=73, velocity=127, time=20),
    Message('note_off', channel=2, note=72, velocity=83, time=12),
    Message('note_off', channel=2, note=73, velocity=83, time=116),
    Message('note_on', channel=2, note=71, velocity=127, time=44),
    Message('note_off', channel=2, note=71, velocity=83, time=64),
    Message('note_on', channel=2, note=70, velocity=127, time=32),
    Message('note_off', channel=2, note=70, velocity=83, time=192),
    Message('note_on', channel=2, note=63, velocity=127, time=576),
    Message('note_off', channel=2, note=63, velocity=83, time=64),
    Message('note_on', channel=2, note=72, velocity=127, time=32),
    Message('note_off', channel=2, note=72, velocity=83, time=128),
    Message('note_on', channel=2, note=70, velocity=127, time=64),
    Message('note_off', channel=2, note=70, velocity=83, time=64),
    Message('note_on', channel=2, note=70, velocity=127, time=32),
    Message('note_off', channel=2, note=70, velocity=83, time=192),
    Message('note_on', channel=2, note=68, velocity=127, time=96),
    Message('note_off', channel=2, note=68, velocity=83, time=64),
    Message('note_on', channel=2, note=72, velocity=127, time=32),
    Message('note_on', channel=2, note=73, velocity=127, time=20),
    Message('note_off', channel=2, note=72, velocity=83, time=12),
    Message('note_off', channel=2, note=73, velocity=83, time=204),
    Message('note_on', channel=2, note=68, velocity=127, time=52),
    Message('note_off', channel=2, note=68, velocity=83, time=128),
    Message('note_on', channel=2, note=68, velocity=127, time=64),
    Message('note_off', channel=2, note=68, velocity=83, time=64),
    Message('note_on', channel=2, note=70, velocity=127, time=32),
    Message('note_off', channel=2, note=70, velocity=83, time=192),
    Message('note_on', channel=2, note=71, velocity=127, time=96),
    Message('note_off', channel=2, note=71, velocity=83, time=128),
    Message('note_on', channel=2, note=67, velocity=127, time=256),
    Message('note_on', channel=2, note=68, velocity=127, time=20),
    Message('note_off', channel=2, note=67, velocity=83, time=12),
    Message('note_off', channel=2, note=68, velocity=83, time=116),
    Message('note_on', channel=2, note=71, velocity=127, time=44),
    Message('note_off', channel=2, note=71, velocity=83, time=64),
    Message('note_on', channel=2, note=70, velocity=127, time=32),
    Message('note_off', channel=2, note=70, velocity=83, time=192),
    Message('note_on', channel=2, note=70, velocity=127, time=288),
    Message('note_on', channel=2, note=71, velocity=127, time=20),
    Message('note_off', channel=2, note=70, velocity=83, time=12),
    Message('note_off', channel=2, note=71, velocity=83, time=116),
    Message('note_on', channel=2, note=65, velocity=127, time=44),
    Message('note_off', channel=2, note=65, velocity=83, time=64),
    Message('note_on', channel=2, note=68, velocity=127, time=32),
    Message('note_off', channel=2, note=68, velocity=83, time=896),
    Message('note_on', channel=2, note=67, velocity=127, time=352),
    Message('note_on', channel=2, note=68, velocity=127, time=16),
    Message('note_off', channel=2, note=67, velocity=83, time=16),
    Message('note_off', channel=2, note=68, velocity=83, time=48),
    Message('note_on', channel=2, note=70, velocity=127, time=16),
    Message('note_off', channel=2, note=70, velocity=83, time=192),
    Message('note_on', channel=2, note=71, velocity=127, time=96),
    Message('note_off', channel=2, note=71, velocity=83, time=128),
    Message('note_on', channel=2, note=72, velocity=127, time=256),
    Message('note_on', channel=2, note=73, velocity=127, time=16),
    Message('note_off', channel=2, note=72, velocity=83, time=16),
    Message('note_off', channel=2, note=73, velocity=83, time=112),
    Message('note_on', channel=2, note=71, velocity=127, time=144),
    Message('note_off', channel=2, note=71, velocity=83, time=64),
    Message('note_on', channel=2, note=70, velocity=127, time=32),
    Message('note_off', channel=2, note=70, velocity=83, time=128),
    Message('note_on', channel=2, note=63, velocity=127, time=544),
    Message('note_off', channel=2, note=63, velocity=83, time=64),
    Message('note_on', channel=2, note=72, velocity=127, time=32),
    Message('note_off', channel=2, note=72, velocity=83, time=128),
    Message('note_on', channel=2, note=70, velocity=127, time=64),
    Message('note_off', channel=2, note=70, velocity=83, time=64),
    Message('note_on', channel=2, note=70, velocity=127, time=32),
    Message('note_off', channel=2, note=70, velocity=83, time=192),
    Message('note_on', channel=2, note=68, velocity=127, time=96),
    Message('note_off', channel=2, note=68, velocity=83, time=64),
    Message('note_on', channel=2, note=73, velocity=127, time=32),
    Message('note_off', channel=2, note=73, velocity=83, time=192),
    Message('note_on', channel=2, note=68, velocity=127, time=96),
    Message('note_off', channel=2, note=68, velocity=83, time=128),
    Message('note_on', channel=2, note=67, velocity=127, time=64),
    Message('note_on', channel=2, note=68, velocity=127, time=16),
    Message('note_off', channel=2, note=67, velocity=83, time=16),
    Message('note_off', channel=2, note=68, velocity=83, time=48),
    Message('note_on', channel=2, note=70, velocity=127, time=16),
    Message('note_off', channel=2, note=70, velocity=83, time=192),
    Message('note_on', channel=2, note=71, velocity=127, time=96),
    Message('note_on', channel=2, note=72, velocity=127, time=16),
    Message('note_off', channel=2, note=71, velocity=83, time=16),
    Message('note_off', channel=2, note=72, velocity=83, time=16),
    Message('note_on', channel=2, note=71, velocity=127, time=48),
    Message('note_off', channel=2, note=71, velocity=83, time=64),
    Message('note_on', channel=2, note=66, velocity=127, time=224),
    Message('note_on', channel=2, note=68, velocity=127, time=16),
    Message('note_off', channel=2, note=66, velocity=83, time=16),
    Message('note_off', channel=2, note=68, velocity=83, time=112),
    Message('note_on', channel=2, note=71, velocity=127, time=48),
    Message('note_off', channel=2, note=71, velocity=83, time=64),
    Message('note_on', channel=2, note=70, velocity=127, time=32),
    Message('note_off', channel=2, note=70, velocity=83, time=192),
    Message('note_on', channel=2, note=68, velocity=127, time=288),
    Message('note_on', channel=2, note=70, velocity=127, time=16),
    Message('note_off', channel=2, note=68, velocity=83, time=16),
    Message('note_off', channel=2, note=70, velocity=83, time=112),
    Message('note_on', channel=2, note=71, velocity=127, time=48),
    Message('note_off', channel=2, note=71, velocity=83, time=64),
    Message('note_on', channel=2, note=68, velocity=127, time=32),
    Message('note_off', channel=2, note=68, velocity=83, time=1492),
    Message('note_on', channel=2, note=72, velocity=127, time=524),
    Message('note_on', channel=2, note=65, velocity=127, time=96),
    Message('note_off', channel=2, note=72, velocity=83, time=32),
    Message('note_off', channel=2, note=65, velocity=83, time=32),
    Message('note_on', channel=2, note=65, velocity=127, time=32),
    Message('note_off', channel=2, note=65, velocity=83, time=64),
    Message('note_on', channel=2, note=69, velocity=127, time=32),
    Message('note_on', channel=2, note=70, velocity=127, time=16),
    Message('note_off', channel=2, note=69, velocity=83, time=16),
    Message('note_off', channel=2, note=70, velocity=83, time=48),
    Message('note_on', channel=2, note=68, velocity=127, time=16),
    Message('note_off', channel=2, note=68, velocity=83, time=1028),
    Message('note_on', channel=2, note=75, velocity=127, time=796),
    Message('note_off', channel=2, note=75, velocity=83, time=64),
    Message('note_on', channel=2, note=78, velocity=127, time=32),
    Message('note_off', channel=2, note=78, velocity=83, time=128),
    Message('note_on', channel=2, note=80, velocity=127, time=64),
    Message('note_off', channel=2, note=80, velocity=83, time=64),
    Message('note_on', channel=2, note=71, velocity=127, time=32),
    Message('note_off', channel=2, note=71, velocity=83, time=64),
    Message('note_on', channel=2, note=70, velocity=127, time=32),
    Message('note_off', channel=2, note=70, velocity=83, time=64),
    Message('note_on', channel=2, note=68, velocity=127, time=32),
    Message('note_off', channel=2, note=68, velocity=83, time=1028),
    Message('note_on', channel=2, note=63, velocity=127, time=700),
    Message('note_off', channel=2, note=63, velocity=83, time=64),
    Message('note_on', channel=2, note=72, velocity=127, time=48),
    Message('note_off', channel=2, note=72, velocity=83, time=64),
    Message('note_on', channel=2, note=65, velocity=127, time=16),
    Message('note_off', channel=2, note=65, velocity=83, time=64),
    Message('note_on', channel=2, note=65, velocity=127, time=32),
    Message('note_off', channel=2, note=65, velocity=83, time=64),
    Message('note_on', channel=2, note=68, velocity=127, time=32),
    Message('note_on', channel=2, note=70, velocity=127, time=12),
    Message('note_off', channel=2, note=68, velocity=83, time=20),
    Message('note_off', channel=2, note=70, velocity=83, time=44),
    Message('note_on', channel=2, note=68, velocity=127, time=20),
    Message('note_off', channel=2, note=68, velocity=83, time=1028),
    Message('note_on', channel=2, note=75, velocity=127, time=796),
    Message('note_off', channel=2, note=75, velocity=83, time=64),
    Message('note_on', channel=2, note=78, velocity=127, time=32),
    Message('note_off', channel=2, note=78, velocity=83, time=128),
    Message('note_on', channel=2, note=80, velocity=127, time=64),
    Message('note_off', channel=2, note=80, velocity=83, time=64),
    Message('note_on', channel=2, note=80, velocity=127, time=32),
    Message('note_on', channel=2, note=68, velocity=127, time=192),
    Message('note_off', channel=2, note=80, velocity=83, time=1348),
    Message('note_on', channel=2, note=63, velocity=127, time=380),
    Message('note_off', channel=2, note=63, velocity=83, time=64),
    Message('note_off', channel=2, note=68, velocity=83, time=4),
    Message('note_on', channel=2, note=72, velocity=127, time=44),
    Message('note_off', channel=2, note=72, velocity=83, time=64),
    Message('note_on', channel=2, note=66, velocity=127, time=16),
    Message('note_off', channel=2, note=66, velocity=83, time=64),
    Message('note_on', channel=2, note=66, velocity=127, time=32),
    Message('note_off', channel=2, note=66, velocity=83, time=64),
    Message('note_on', channel=2, note=68, velocity=127, time=44),
    Message('note_off', channel=2, note=68, velocity=83, time=64),
    Message('note_on', channel=2, note=70, velocity=127, time=20),
    Message('note_off', channel=2, note=70, velocity=83, time=64),
    Message('note_on', channel=2, note=68, velocity=127, time=32),
    Message('note_off', channel=2, note=68, velocity=83, time=1028),
    Message('note_on', channel=2, note=68, velocity=127, time=604),
    Message('note_off', channel=2, note=68, velocity=83, time=64),
    Message('note_on', channel=2, note=74, velocity=127, time=32),
    Message('note_on', channel=2, note=75, velocity=127, time=12),
    Message('note_off', channel=2, note=74, velocity=83, time=20),
    Message('note_off', channel=2, note=75, velocity=83, time=172),
    Message('note_on', channel=2, note=75, velocity=127, time=84),
    Message('note_off', channel=2, note=75, velocity=83, time=64),
    Message('note_on', channel=2, note=71, velocity=127, time=32),
    Message('note_off', channel=2, note=71, velocity=83, time=64),
    Message('note_on', channel=2, note=70, velocity=127, time=32),
    Message('note_off', channel=2, note=70, velocity=83, time=64),
    Message('note_on', channel=2, note=68, velocity=127, time=32),
    Message('note_off', channel=2, note=68, velocity=83, time=1028),
    Message('note_on', channel=2, note=75, velocity=127, time=604),
    Message('note_off', channel=2, note=75, velocity=83, time=64),
    Message('note_on', channel=2, note=77, velocity=127, time=32),
    Message('note_on', channel=2, note=78, velocity=127, time=12),
    Message('note_off', channel=2, note=77, velocity=83, time=20),
    Message('note_off', channel=2, note=78, velocity=83, time=172),
    Message('note_on', channel=2, note=80, velocity=127, time=84),
    Message('note_off', channel=2, note=80, velocity=83, time=64),
    Message('note_on', channel=2, note=68, velocity=127, time=32),
    Message('note_off', channel=2, note=68, velocity=83, time=64),
    Message('note_on', channel=2, note=70, velocity=127, time=32),
    Message('note_off', channel=2, note=70, velocity=83, time=64),
    Message('note_on', channel=2, note=68, velocity=127, time=32),
    Message('note_off', channel=2, note=68, velocity=83, time=1028),
    Message('control_change', channel=2, control=1, value=0, time=5980),
    MetaMessage('end_of_track', time=0)]),
  MidiTrack([
    MetaMessage('track_name', name='Background Vocals', time=0),
    Message('control_change', channel=3, control=0, value=0, time=0),
    Message('program_change', channel=3, program=21, time=0),
    Message('control_change', channel=3, control=10, value=108, time=0),
    MetaMessage('key_signature', key='G', time=0),
    Message('note_on', channel=3, note=73, velocity=127, time=45600),
    Message('note_off', channel=3, note=73, velocity=127, time=64),
    Message('note_on', channel=3, note=73, velocity=127, time=32),
    Message('note_off', channel=3, note=73, velocity=127, time=128),
    Message('note_on', channel=3, note=68, velocity=127, time=544),
    Message('note_off', channel=3, note=68, velocity=127, time=64),
    Message('note_on', channel=3, note=75, velocity=127, time=32),
    Message('note_off', channel=3, note=75, velocity=127, time=128),
    Message('note_on', channel=3, note=73, velocity=127, time=64),
    Message('note_off', channel=3, note=73, velocity=127, time=64),
    Message('note_on', channel=3, note=73, velocity=127, time=32),
    Message('note_off', channel=3, note=73, velocity=127, time=192),
    Message('note_on', channel=3, note=72, velocity=127, time=96),
    Message('note_off', channel=3, note=72, velocity=127, time=64),
    Message('note_on', channel=3, note=80, velocity=127, time=32),
    Message('note_off', channel=3, note=80, velocity=127, time=192),
    Message('note_on', channel=3, note=73, velocity=127, time=96),
    Message('note_off', channel=3, note=73, velocity=127, time=128),
    Message('note_on', channel=3, note=73, velocity=127, time=64),
    Message('note_off', channel=3, note=73, velocity=127, time=64),
    Message('note_on', channel=3, note=73, velocity=127, time=32),
    Message('note_off', channel=3, note=73, velocity=127, time=192),
    Message('note_on', channel=3, note=71, velocity=127, time=96),
    Message('note_off', channel=3, note=71, velocity=127, time=64),
    Message('note_on', channel=3, note=68, velocity=127, time=32),
    Message('note_off', channel=3, note=68, velocity=127, time=192),
    Message('note_on', channel=3, note=73, velocity=127, time=96),
    Message('note_off', channel=3, note=73, velocity=127, time=128),
    Message('note_on', channel=3, note=73, velocity=127, time=64),
    Message('note_off', channel=3, note=73, velocity=127, time=64),
    Message('note_on', channel=3, note=73, velocity=127, time=32),
    Message('note_off', channel=3, note=73, velocity=127, time=192),
    Message('note_on', channel=3, note=75, velocity=127, time=288),
    Message('note_off', channel=3, note=75, velocity=127, time=128),
    Message('note_on', channel=3, note=75, velocity=127, time=64),
    Message('note_off', channel=3, note=75, velocity=127, time=64),
    Message('note_on', channel=3, note=80, velocity=127, time=512),
    Message('note_off', channel=3, note=80, velocity=127, time=64),
    Message('note_on', channel=3, note=80, velocity=127, time=32),
    Message('note_off', channel=3, note=80, velocity=127, time=192),
    Message('note_on', channel=3, note=80, velocity=127, time=96),
    Message('note_off', channel=3, note=80, velocity=127, time=64),
    Message('note_on', channel=3, note=82, velocity=127, time=32),
    Message('note_off', channel=3, note=82, velocity=127, time=64),
    Message('note_on', channel=3, note=80, velocity=127, time=224),
    Message('note_off', channel=3, note=80, velocity=127, time=64),
    Message('note_on', channel=3, note=80, velocity=127, time=32),
    Message('note_off', channel=3, note=80, velocity=127, time=192),
    Message('note_on', channel=3, note=80, velocity=127, time=96),
    Message('note_off', channel=3, note=80, velocity=127, time=64),
    Message('note_on', channel=3, note=82, velocity=127, time=32),
    Message('note_off', channel=3, note=82, velocity=127, time=64),
    Message('note_on', channel=3, note=80, velocity=127, time=992),
    Message('note_off', channel=3, note=80, velocity=127, time=64),
    Message('note_on', channel=3, note=80, velocity=127, time=32),
    Message('note_off', channel=3, note=80, velocity=127, time=192),
    Message('note_on', channel=3, note=80, velocity=127, time=96),
    Message('note_off', channel=3, note=80, velocity=127, time=64),
    Message('note_on', channel=3, note=82, velocity=127, time=32),
    Message('note_off', channel=3, note=82, velocity=127, time=64),
    Message('note_on', channel=3, note=80, velocity=127, time=224),
    Message('note_off', channel=3, note=80, velocity=127, time=64),
    Message('note_on', channel=3, note=80, velocity=127, time=32),
    Message('note_off', channel=3, note=80, velocity=127, time=192),
    Message('note_on', channel=3, note=80, velocity=127, time=96),
    Message('note_off', channel=3, note=80, velocity=127, time=64),
    Message('note_on', channel=3, note=82, velocity=127, time=32),
    Message('note_off', channel=3, note=82, velocity=127, time=64),
    Message('note_on', channel=3, note=80, velocity=127, time=992),
    Message('note_off', channel=3, note=80, velocity=127, time=64),
    Message('note_on', channel=3, note=80, velocity=127, time=32),
    Message('note_off', channel=3, note=80, velocity=127, time=192),
    Message('note_on', channel=3, note=80, velocity=127, time=96),
    Message('note_off', channel=3, note=80, velocity=127, time=64),
    Message('note_on', channel=3, note=82, velocity=127, time=32),
    Message('note_off', channel=3, note=82, velocity=127, time=64),
    Message('note_on', channel=3, note=80, velocity=127, time=224),
    Message('note_off', channel=3, note=80, velocity=127, time=64),
    Message('note_on', channel=3, note=80, velocity=127, time=32),
    Message('note_off', channel=3, note=80, velocity=127, time=192),
    Message('note_on', channel=3, note=80, velocity=127, time=96),
    Message('note_off', channel=3, note=80, velocity=127, time=64),
    Message('note_on', channel=3, note=82, velocity=127, time=32),
    Message('note_off', channel=3, note=82, velocity=127, time=64),
    Message('note_on', channel=3, note=80, velocity=127, time=992),
    Message('note_off', channel=3, note=80, velocity=127, time=64),
    Message('note_on', channel=3, note=80, velocity=127, time=32),
    Message('note_off', channel=3, note=80, velocity=127, time=192),
    Message('note_on', channel=3, note=80, velocity=127, time=96),
    Message('note_off', channel=3, note=80, velocity=127, time=64),
    Message('note_on', channel=3, note=82, velocity=127, time=32),
    Message('note_off', channel=3, note=82, velocity=127, time=64),
    Message('note_on', channel=3, note=80, velocity=127, time=224),
    Message('note_off', channel=3, note=80, velocity=127, time=64),
    Message('note_on', channel=3, note=80, velocity=127, time=32),
    Message('note_off', channel=3, note=80, velocity=127, time=192),
    Message('note_on', channel=3, note=80, velocity=127, time=96),
    Message('note_off', channel=3, note=80, velocity=127, time=64),
    Message('note_on', channel=3, note=82, velocity=127, time=32),
    Message('note_off', channel=3, note=82, velocity=127, time=64),
    Message('note_on', channel=3, note=73, velocity=127, time=23168),
    Message('note_off', channel=3, note=73, velocity=127, time=64),
    Message('note_on', channel=3, note=73, velocity=127, time=32),
    Message('note_off', channel=3, note=73, velocity=127, time=128),
    Message('note_on', channel=3, note=68, velocity=127, time=544),
    Message('note_off', channel=3, note=68, velocity=127, time=64),
    Message('note_on', channel=3, note=75, velocity=127, time=32),
    Message('note_off', channel=3, note=75, velocity=127, time=128),
    Message('note_on', channel=3, note=73, velocity=127, time=64),
    Message('note_off', channel=3, note=73, velocity=127, time=64),
    Message('note_on', channel=3, note=73, velocity=127, time=32),
    Message('note_off', channel=3, note=73, velocity=127, time=192),
    Message('note_on', channel=3, note=72, velocity=127, time=96),
    Message('note_off', channel=3, note=72, velocity=127, time=64),
    Message('note_on', channel=3, note=80, velocity=127, time=32),
    Message('note_off', channel=3, note=80, velocity=127, time=192),
    Message('note_on', channel=3, note=73, velocity=127, time=96),
    Message('note_off', channel=3, note=73, velocity=127, time=128),
    Message('note_on', channel=3, note=73, velocity=127, time=64),
    Message('note_off', channel=3, note=73, velocity=127, time=64),
    Message('note_on', channel=3, note=73, velocity=127, time=32),
    Message('note_off', channel=3, note=73, velocity=127, time=192),
    Message('note_on', channel=3, note=71, velocity=127, time=96),
    Message('note_off', channel=3, note=71, velocity=127, time=64),
    Message('note_on', channel=3, note=68, velocity=127, time=32),
    Message('note_off', channel=3, note=68, velocity=127, time=192),
    Message('note_on', channel=3, note=73, velocity=127, time=96),
    Message('note_off', channel=3, note=73, velocity=127, time=128),
    Message('note_on', channel=3, note=73, velocity=127, time=64),
    Message('note_off', channel=3, note=73, velocity=127, time=64),
    Message('note_on', channel=3, note=73, velocity=127, time=32),
    Message('note_off', channel=3, note=73, velocity=127, time=192),
    Message('note_on', channel=3, note=75, velocity=127, time=288),
    Message('note_off', channel=3, note=75, velocity=127, time=128),
    Message('note_on', channel=3, note=75, velocity=127, time=64),
    Message('note_off', channel=3, note=75, velocity=127, time=64),
    Message('note_on', channel=3, note=80, velocity=127, time=512),
    Message('note_off', channel=3, note=80, velocity=127, time=64),
    Message('note_on', channel=3, note=80, velocity=127, time=32),
    Message('note_off', channel=3, note=80, velocity=127, time=192),
    Message('note_on', channel=3, note=80, velocity=127, time=96),
    Message('note_off', channel=3, note=80, velocity=127, time=64),
    Message('note_on', channel=3, note=82, velocity=127, time=32),
    Message('note_off', channel=3, note=82, velocity=127, time=64),
    Message('note_on', channel=3, note=80, velocity=127, time=224),
    Message('note_off', channel=3, note=80, velocity=127, time=64),
    Message('note_on', channel=3, note=80, velocity=127, time=32),
    Message('note_off', channel=3, note=80, velocity=127, time=192),
    Message('note_on', channel=3, note=80, velocity=127, time=96),
    Message('note_off', channel=3, note=80, velocity=127, time=64),
    Message('note_on', channel=3, note=82, velocity=127, time=32),
    Message('note_off', channel=3, note=82, velocity=127, time=64),
    Message('note_on', channel=3, note=80, velocity=127, time=992),
    Message('note_off', channel=3, note=80, velocity=127, time=64),
    Message('note_on', channel=3, note=80, velocity=127, time=32),
    Message('note_off', channel=3, note=80, velocity=127, time=192),
    Message('note_on', channel=3, note=80, velocity=127, time=96),
    Message('note_off', channel=3, note=80, velocity=127, time=64),
    Message('note_on', channel=3, note=82, velocity=127, time=32),
    Message('note_off', channel=3, note=82, velocity=127, time=64),
    Message('note_on', channel=3, note=80, velocity=127, time=224),
    Message('note_off', channel=3, note=80, velocity=127, time=64),
    Message('note_on', channel=3, note=80, velocity=127, time=32),
    Message('note_off', channel=3, note=80, velocity=127, time=192),
    Message('note_on', channel=3, note=80, velocity=127, time=96),
    Message('note_off', channel=3, note=80, velocity=127, time=64),
    Message('note_on', channel=3, note=82, velocity=127, time=32),
    Message('note_off', channel=3, note=82, velocity=127, time=64),
    Message('note_on', channel=3, note=80, velocity=127, time=992),
    Message('note_off', channel=3, note=80, velocity=127, time=64),
    Message('note_on', channel=3, note=80, velocity=127, time=32),
    Message('note_off', channel=3, note=80, velocity=127, time=192),
    Message('note_on', channel=3, note=80, velocity=127, time=96),
    Message('note_off', channel=3, note=80, velocity=127, time=64),
    Message('note_on', channel=3, note=82, velocity=127, time=32),
    Message('note_off', channel=3, note=82, velocity=127, time=64),
    Message('note_on', channel=3, note=80, velocity=127, time=224),
    Message('note_off', channel=3, note=80, velocity=127, time=64),
    Message('note_on', channel=3, note=80, velocity=127, time=32),
    Message('note_off', channel=3, note=80, velocity=127, time=192),
    Message('note_on', channel=3, note=80, velocity=127, time=96),
    Message('note_off', channel=3, note=80, velocity=127, time=64),
    Message('note_on', channel=3, note=82, velocity=127, time=32),
    Message('note_off', channel=3, note=82, velocity=127, time=64),
    Message('note_on', channel=3, note=80, velocity=127, time=992),
    Message('note_off', channel=3, note=80, velocity=127, time=64),
    Message('note_on', channel=3, note=80, velocity=127, time=32),
    Message('note_off', channel=3, note=80, velocity=127, time=192),
    Message('note_on', channel=3, note=80, velocity=127, time=96),
    Message('note_off', channel=3, note=80, velocity=127, time=64),
    Message('note_on', channel=3, note=82, velocity=127, time=32),
    Message('note_off', channel=3, note=82, velocity=127, time=64),
    Message('note_on', channel=3, note=80, velocity=127, time=224),
    Message('note_off', channel=3, note=80, velocity=127, time=64),
    Message('note_on', channel=3, note=80, velocity=127, time=32),
    Message('note_off', channel=3, note=80, velocity=127, time=192),
    Message('note_on', channel=3, note=80, velocity=127, time=96),
    Message('note_off', channel=3, note=80, velocity=127, time=64),
    Message('note_on', channel=3, note=82, velocity=127, time=32),
    Message('note_off', channel=3, note=82, velocity=127, time=64),
    Message('note_on', channel=3, note=80, velocity=127, time=992),
    Message('note_off', channel=3, note=80, velocity=127, time=64),
    Message('note_on', channel=3, note=80, velocity=127, time=32),
    Message('note_off', channel=3, note=80, velocity=127, time=192),
    Message('note_on', channel=3, note=80, velocity=127, time=96),
    Message('note_off', channel=3, note=80, velocity=127, time=64),
    Message('note_on', channel=3, note=82, velocity=127, time=32),
    Message('note_off', channel=3, note=82, velocity=127, time=64),
    Message('note_on', channel=3, note=80, velocity=127, time=224),
    Message('note_off', channel=3, note=80, velocity=127, time=64),
    Message('note_on', channel=3, note=80, velocity=127, time=32),
    Message('note_off', channel=3, note=80, velocity=127, time=192),
    Message('note_on', channel=3, note=80, velocity=127, time=96),
    Message('note_off', channel=3, note=80, velocity=127, time=64),
    Message('note_on', channel=3, note=82, velocity=127, time=32),
    Message('note_off', channel=3, note=82, velocity=127, time=64),
    Message('note_on', channel=3, note=80, velocity=127, time=992),
    Message('note_off', channel=3, note=80, velocity=127, time=64),
    Message('note_on', channel=3, note=80, velocity=127, time=32),
    Message('note_off', channel=3, note=80, velocity=127, time=192),
    Message('note_on', channel=3, note=80, velocity=127, time=96),
    Message('note_off', channel=3, note=80, velocity=127, time=64),
    Message('note_on', channel=3, note=82, velocity=127, time=32),
    Message('note_off', channel=3, note=82, velocity=127, time=64),
    Message('note_on', channel=3, note=80, velocity=127, time=224),
    Message('note_off', channel=3, note=80, velocity=127, time=64),
    Message('note_on', channel=3, note=80, velocity=127, time=32),
    Message('note_off', channel=3, note=80, velocity=127, time=192),
    Message('note_on', channel=3, note=80, velocity=127, time=96),
    Message('note_off', channel=3, note=80, velocity=127, time=64),
    Message('note_on', channel=3, note=82, velocity=127, time=32),
    Message('note_off', channel=3, note=82, velocity=127, time=64),
    Message('control_change', channel=3, control=1, value=0, time=10016),
    MetaMessage('end_of_track', time=0)]),
  MidiTrack([
    MetaMessage('track_name', name='Kim Thayil -Guitar 2-', time=0),
    Message('control_change', channel=4, control=0, value=0, time=0),
    Message('program_change', channel=4, program=2, time=0),
    Message('control_change', channel=4, control=10, value=87, time=0),
    MetaMessage('key_signature', key='G', time=0),
    Message('pitchwheel', channel=4, pitch=0, time=1916),
    Message('control_change', channel=4, control=1, value=112, time=3460),
    Message('control_change', channel=4, control=64, value=78, time=0),
    Message('note_on', channel=4, note=80, velocity=101, time=480),
    Message('note_off', channel=4, note=80, velocity=50, time=64),
    Message('note_on', channel=4, note=84, velocity=101, time=32),
    Message('note_off', channel=4, note=84, velocity=50, time=64),
    Message('note_on', channel=4, note=89, velocity=101, time=32),
    Message('note_off', channel=4, note=89, velocity=50, time=128),
    Message('note_on', channel=4, note=84, velocity=101, time=64),
    Message('note_off', channel=4, note=84, velocity=50, time=64),
    Message('note_on', channel=4, note=80, velocity=101, time=32),
    Message('note_off', channel=4, note=80, velocity=50, time=64),
    Message('note_on', channel=4, note=84, velocity=101, time=32),
    Message('note_off', channel=4, note=84, velocity=50, time=64),
    Message('note_on', channel=4, note=80, velocity=101, time=128),
    Message('note_off', channel=4, note=80, velocity=50, time=64),
    Message('note_on', channel=4, note=83, velocity=101, time=32),
    Message('note_off', channel=4, note=83, velocity=50, time=64),
    Message('note_on', channel=4, note=87, velocity=101, time=32),
    Message('note_off', channel=4, note=87, velocity=50, time=384),
    Message('control_change', channel=4, control=64, value=0, time=96),
    Message('control_change', channel=4, control=64, value=78, time=36),
    Message('note_on', channel=4, note=78, velocity=101, time=60),
    Message('note_off', channel=4, note=78, velocity=50, time=64),
    Message('note_on', channel=4, note=85, velocity=101, time=32),
    Message('note_off', channel=4, note=85, velocity=50, time=64),
    Message('note_on', channel=4, note=90, velocity=101, time=32),
    Message('note_off', channel=4, note=90, velocity=50, time=128),
    Message('note_on', channel=4, note=85, velocity=101, time=64),
    Message('note_off', channel=4, note=85, velocity=50, time=64),
    Message('note_on', channel=4, note=78, velocity=101, time=32),
    Message('note_off', channel=4, note=78, velocity=50, time=64),
    Message('note_on', channel=4, note=85, velocity=101, time=32),
    Message('note_off', channel=4, note=85, velocity=50, time=128),
    Message('note_on', channel=4, note=79, velocity=101, time=64),
    Message('note_on', channel=4, note=80, velocity=101, time=20),
    Message('note_off', channel=4, note=79, velocity=50, time=12),
    Message('note_off', channel=4, note=80, velocity=50, time=52),
    Message('note_on', channel=4, note=84, velocity=101, time=12),
    Message('note_off', channel=4, note=84, velocity=50, time=64),
    Message('note_on', channel=4, note=89, velocity=101, time=32),
    Message('note_off', channel=4, note=89, velocity=50, time=384),
    Message('control_change', channel=4, control=64, value=0, time=96),
    Message('control_change', channel=4, control=64, value=78, time=36),
    Message('note_on', channel=4, note=80, velocity=101, time=60),
    Message('note_off', channel=4, note=80, velocity=50, time=64),
    Message('note_on', channel=4, note=83, velocity=101, time=32),
    Message('note_off', channel=4, note=83, velocity=50, time=64),
    Message('note_on', channel=4, note=88, velocity=101, time=32),
    Message('note_off', channel=4, note=88, velocity=50, time=128),
    Message('note_on', channel=4, note=83, velocity=101, time=64),
    Message('note_off', channel=4, note=83, velocity=50, time=64),
    Message('note_on', channel=4, note=80, velocity=101, time=32),
    Message('note_off', channel=4, note=80, velocity=50, time=64),
    Message('note_on', channel=4, note=83, velocity=101, time=32),
    Message('note_off', channel=4, note=83, velocity=50, time=128),
    Message('note_on', channel=4, note=80, velocity=101, time=64),
    Message('note_off', channel=4, note=80, velocity=50, time=64),
    Message('note_on', channel=4, note=82, velocity=101, time=32),
    Message('note_off', channel=4, note=82, velocity=50, time=64),
    Message('note_on', channel=4, note=87, velocity=101, time=32),
    Message('note_off', channel=4, note=87, velocity=50, time=128),
    Message('note_on', channel=4, note=82, velocity=101, time=64),
    Message('note_off', channel=4, note=82, velocity=50, time=64),
    Message('note_on', channel=4, note=80, velocity=101, time=32),
    Message('note_off', channel=4, note=80, velocity=50, time=64),
    Message('note_on', channel=4, note=82, velocity=101, time=32),
    Message('note_off', channel=4, note=82, velocity=50, time=64),
    Message('note_on', channel=4, note=80, velocity=101, time=32),
    Message('control_change', channel=4, control=64, value=0, time=0),
    Message('control_change', channel=4, control=64, value=78, time=36),
    Message('note_off', channel=4, note=80, velocity=50, time=28),
    Message('note_on', channel=4, note=84, velocity=101, time=32),
    Message('note_off', channel=4, note=84, velocity=50, time=64),
    Message('note_on', channel=4, note=89, velocity=101, time=32),
    Message('note_off', channel=4, note=89, velocity=50, time=64),
    Message('note_on', channel=4, note=80, velocity=101, time=32),
    Message('note_off', channel=4, note=80, velocity=50, time=64),
    Message('note_on', channel=4, note=78, velocity=101, time=32),
    Message('note_off', channel=4, note=78, velocity=50, time=64),
    Message('note_on', channel=4, note=84, velocity=101, time=32),
    Message('note_off', channel=4, note=84, velocity=50, time=64),
    Message('note_on', channel=4, note=87, velocity=101, time=32),
    Message('note_off', channel=4, note=87, velocity=50, time=64),
    Message('note_on', channel=4, note=78, velocity=101, time=32),
    Message('note_off', channel=4, note=78, velocity=50, time=64),
    Message('note_on', channel=4, note=81, velocity=101, time=32),
    Message('note_off', channel=4, note=81, velocity=50, time=64),
    Message('note_on', channel=4, note=85, velocity=101, time=32),
    Message('note_off', channel=4, note=85, velocity=50, time=64),
    Message('note_on', channel=4, note=88, velocity=101, time=32),
    Message('note_off', channel=4, note=88, velocity=50, time=384),
    Message('control_change', channel=4, control=64, value=0, time=192),
    Message('control_change', channel=4, control=64, value=78, time=36),
    Message('note_on', channel=4, note=80, velocity=101, time=60),
    Message('note_off', channel=4, note=80, velocity=50, time=64),
    Message('note_on', channel=4, note=84, velocity=101, time=32),
    Message('note_off', channel=4, note=84, velocity=50, time=64),
    Message('note_on', channel=4, note=89, velocity=101, time=32),
    Message('note_off', channel=4, note=89, velocity=50, time=128),
    Message('note_on', channel=4, note=84, velocity=101, time=64),
    Message('note_off', channel=4, note=84, velocity=50, time=64),
    Message('note_on', channel=4, note=80, velocity=101, time=32),
    Message('note_off', channel=4, note=80, velocity=50, time=64),
    Message('note_on', channel=4, note=84, velocity=101, time=32),
    Message('note_off', channel=4, note=84, velocity=50, time=64),
    Message('note_on', channel=4, note=80, velocity=101, time=128),
    Message('note_off', channel=4, note=80, velocity=50, time=64),
    Message('note_on', channel=4, note=83, velocity=101, time=32),
    Message('note_off', channel=4, note=83, velocity=50, time=64),
    Message('note_on', channel=4, note=87, velocity=101, time=32),
    Message('note_off', channel=4, note=87, velocity=50, time=384),
    Message('control_change', channel=4, control=64, value=0, time=96),
    Message('control_change', channel=4, control=64, value=78, time=36),
    Message('note_on', channel=4, note=78, velocity=101, time=60),
    Message('note_off', channel=4, note=78, velocity=50, time=64),
    Message('note_on', channel=4, note=85, velocity=101, time=32),
    Message('note_off', channel=4, note=85, velocity=50, time=64),
    Message('note_on', channel=4, note=90, velocity=101, time=32),
    Message('note_off', channel=4, note=90, velocity=50, time=128),
    Message('note_on', channel=4, note=85, velocity=101, time=64),
    Message('note_off', channel=4, note=85, velocity=50, time=64),
    Message('note_on', channel=4, note=78, velocity=101, time=32),
    Message('note_off', channel=4, note=78, velocity=50, time=64),
    Message('note_on', channel=4, note=85, velocity=101, time=32),
    Message('note_off', channel=4, note=85, velocity=50, time=128),
    Message('note_on', channel=4, note=79, velocity=101, time=64),
    Message('note_on', channel=4, note=80, velocity=101, time=20),
    Message('note_off', channel=4, note=79, velocity=50, time=12),
    Message('note_off', channel=4, note=80, velocity=50, time=52),
    Message('note_on', channel=4, note=84, velocity=101, time=12),
    Message('note_off', channel=4, note=84, velocity=50, time=64),
    Message('note_on', channel=4, note=89, velocity=101, time=32),
    Message('note_off', channel=4, note=89, velocity=50, time=384),
    Message('control_change', channel=4, control=64, value=0, time=96),
    Message('control_change', channel=4, control=64, value=78, time=36),
    Message('note_on', channel=4, note=80, velocity=101, time=60),
    Message('note_off', channel=4, note=80, velocity=50, time=64),
    Message('note_on', channel=4, note=83, velocity=101, time=32),
    Message('note_off', channel=4, note=83, velocity=50, time=64),
    Message('note_on', channel=4, note=88, velocity=101, time=32),
    Message('note_off', channel=4, note=88, velocity=50, time=128),
    Message('note_on', channel=4, note=83, velocity=101, time=64),
    Message('note_off', channel=4, note=83, velocity=50, time=64),
    Message('note_on', channel=4, note=80, velocity=101, time=32),
    Message('note_off', channel=4, note=80, velocity=50, time=64),
    Message('note_on', channel=4, note=83, velocity=101, time=32),
    Message('note_off', channel=4, note=83, velocity=50, time=128),
    Message('note_on', channel=4, note=80, velocity=101, time=64),
    Message('note_off', channel=4, note=80, velocity=50, time=64),
    Message('note_on', channel=4, note=82, velocity=101, time=32),
    Message('note_off', channel=4, note=82, velocity=50, time=64),
    Message('note_on', channel=4, note=87, velocity=101, time=32),
    Message('note_off', channel=4, note=87, velocity=50, time=128),
    Message('note_on', channel=4, note=82, velocity=101, time=64),
    Message('note_off', channel=4, note=82, velocity=50, time=64),
    Message('note_on', channel=4, note=80, velocity=101, time=32),
    Message('note_off', channel=4, note=80, velocity=50, time=64),
    Message('note_on', channel=4, note=82, velocity=101, time=32),
    Message('note_off', channel=4, note=82, velocity=50, time=64),
    Message('note_on', channel=4, note=80, velocity=101, time=32),
    Message('control_change', channel=4, control=64, value=0, time=0),
    Message('control_change', channel=4, control=64, value=78, time=36),
    Message('note_off', channel=4, note=80, velocity=50, time=28),
    Message('note_on', channel=4, note=84, velocity=101, time=32),
    Message('note_off', channel=4, note=84, velocity=50, time=64),
    Message('note_on', channel=4, note=89, velocity=101, time=32),
    Message('note_off', channel=4, note=89, velocity=50, time=64),
    Message('note_on', channel=4, note=80, velocity=101, time=32),
    Message('note_off', channel=4, note=80, velocity=50, time=64),
    Message('note_on', channel=4, note=78, velocity=101, time=32),
    Message('note_off', channel=4, note=78, velocity=50, time=64),
    Message('note_on', channel=4, note=84, velocity=101, time=32),
    Message('note_off', channel=4, note=84, velocity=50, time=64),
    Message('note_on', channel=4, note=87, velocity=101, time=32),
    Message('note_off', channel=4, note=87, velocity=50, time=64),
    Message('note_on', channel=4, note=78, velocity=101, time=32),
    Message('note_off', channel=4, note=78, velocity=50, time=64),
    Message('note_on', channel=4, note=81, velocity=101, time=32),
    Message('note_off', channel=4, note=81, velocity=50, time=64),
    Message('note_on', channel=4, note=85, velocity=101, time=32),
    Message('note_off', channel=4, note=85, velocity=50, time=64),
    Message('note_on', channel=4, note=88, velocity=101, time=32),
    Message('note_off', channel=4, note=88, velocity=50, time=384),
    Message('control_change', channel=4, control=64, value=0, time=384),
    Message('control_change', channel=4, control=64, value=127, time=36),
    Message('control_change', channel=4, control=1, value=0, time=156),
    Message('control_change', channel=4, control=64, value=0, time=0),
    Message('control_change', channel=4, control=1, value=112, time=6912),
    Message('control_change', channel=4, control=64, value=78, time=0),
    Message('note_on', channel=4, note=80, velocity=101, time=480),
    Message('note_off', channel=4, note=80, velocity=50, time=64),
    Message('note_on', channel=4, note=84, velocity=101, time=32),
    Message('note_off', channel=4, note=84, velocity=50, time=64),
    Message('note_on', channel=4, note=89, velocity=101, time=32),
    Message('note_off', channel=4, note=89, velocity=50, time=128),
    Message('note_on', channel=4, note=84, velocity=101, time=64),
    Message('note_off', channel=4, note=84, velocity=50, time=64),
    Message('note_on', channel=4, note=80, velocity=101, time=32),
    Message('note_off', channel=4, note=80, velocity=50, time=64),
    Message('note_on', channel=4, note=84, velocity=101, time=32),
    Message('note_off', channel=4, note=84, velocity=50, time=64),
    Message('note_on', channel=4, note=80, velocity=101, time=128),
    Message('note_off', channel=4, note=80, velocity=50, time=64),
    Message('note_on', channel=4, note=83, velocity=101, time=32),
    Message('note_off', channel=4, note=83, velocity=50, time=64),
    Message('note_on', channel=4, note=87, velocity=101, time=32),
    Message('note_off', channel=4, note=87, velocity=50, time=384),
    Message('control_change', channel=4, control=64, value=0, time=96),
    Message('control_change', channel=4, control=64, value=78, time=36),
    Message('note_on', channel=4, note=78, velocity=101, time=60),
    Message('note_off', channel=4, note=78, velocity=50, time=64),
    Message('note_on', channel=4, note=85, velocity=101, time=32),
    Message('note_off', channel=4, note=85, velocity=50, time=64),
    Message('note_on', channel=4, note=90, velocity=101, time=32),
    Message('note_off', channel=4, note=90, velocity=50, time=128),
    Message('note_on', channel=4, note=85, velocity=101, time=64),
    Message('note_off', channel=4, note=85, velocity=50, time=64),
    Message('note_on', channel=4, note=78, velocity=101, time=32),
    Message('note_off', channel=4, note=78, velocity=50, time=64),
    Message('note_on', channel=4, note=85, velocity=101, time=32),
    Message('note_off', channel=4, note=85, velocity=50, time=128),
    Message('note_on', channel=4, note=79, velocity=101, time=64),
    Message('note_on', channel=4, note=80, velocity=101, time=20),
    Message('note_off', channel=4, note=79, velocity=50, time=12),
    Message('note_off', channel=4, note=80, velocity=50, time=52),
    Message('note_on', channel=4, note=84, velocity=101, time=12),
    Message('note_off', channel=4, note=84, velocity=50, time=64),
    Message('note_on', channel=4, note=89, velocity=101, time=32),
    Message('note_off', channel=4, note=89, velocity=50, time=384),
    Message('control_change', channel=4, control=64, value=0, time=96),
    Message('control_change', channel=4, control=64, value=78, time=36),
    Message('note_on', channel=4, note=80, velocity=101, time=60),
    Message('note_off', channel=4, note=80, velocity=50, time=64),
    Message('note_on', channel=4, note=83, velocity=101, time=32),
    Message('note_off', channel=4, note=83, velocity=50, time=64),
    Message('note_on', channel=4, note=88, velocity=101, time=32),
    Message('note_off', channel=4, note=88, velocity=50, time=128),
    Message('note_on', channel=4, note=83, velocity=101, time=64),
    Message('note_off', channel=4, note=83, velocity=50, time=64),
    Message('note_on', channel=4, note=80, velocity=101, time=32),
    Message('note_off', channel=4, note=80, velocity=50, time=64),
    Message('note_on', channel=4, note=83, velocity=101, time=32),
    Message('note_off', channel=4, note=83, velocity=50, time=128),
    Message('note_on', channel=4, note=80, velocity=101, time=64),
    Message('note_off', channel=4, note=80, velocity=50, time=64),
    Message('note_on', channel=4, note=82, velocity=101, time=32),
    Message('note_off', channel=4, note=82, velocity=50, time=64),
    Message('note_on', channel=4, note=87, velocity=101, time=32),
    Message('note_off', channel=4, note=87, velocity=50, time=128),
    Message('note_on', channel=4, note=82, velocity=101, time=64),
    Message('note_off', channel=4, note=82, velocity=50, time=64),
    Message('note_on', channel=4, note=80, velocity=101, time=32),
    Message('note_off', channel=4, note=80, velocity=50, time=64),
    Message('note_on', channel=4, note=82, velocity=101, time=32),
    Message('note_off', channel=4, note=82, velocity=50, time=64),
    Message('note_on', channel=4, note=80, velocity=101, time=32),
    Message('control_change', channel=4, control=64, value=0, time=0),
    Message('control_change', channel=4, control=64, value=78, time=36),
    Message('note_off', channel=4, note=80, velocity=50, time=28),
    Message('note_on', channel=4, note=84, velocity=101, time=32),
    Message('note_off', channel=4, note=84, velocity=50, time=64),
    Message('note_on', channel=4, note=89, velocity=101, time=32),
    Message('note_off', channel=4, note=89, velocity=50, time=64),
    Message('note_on', channel=4, note=80, velocity=101, time=32),
    Message('note_off', channel=4, note=80, velocity=50, time=64),
    Message('note_on', channel=4, note=78, velocity=101, time=32),
    Message('note_off', channel=4, note=78, velocity=50, time=64),
    Message('note_on', channel=4, note=84, velocity=101, time=32),
    Message('note_off', channel=4, note=84, velocity=50, time=64),
    Message('note_on', channel=4, note=87, velocity=101, time=32),
    Message('note_off', channel=4, note=87, velocity=50, time=64),
    Message('note_on', channel=4, note=78, velocity=101, time=32),
    Message('note_off', channel=4, note=78, velocity=50, time=64),
    Message('note_on', channel=4, note=81, velocity=101, time=32),
    Message('note_off', channel=4, note=81, velocity=50, time=64),
    Message('note_on', channel=4, note=85, velocity=101, time=32),
    Message('note_off', channel=4, note=85, velocity=50, time=64),
    Message('note_on', channel=4, note=88, velocity=101, time=32),
    Message('note_off', channel=4, note=88, velocity=50, time=384),
    Message('control_change', channel=4, control=64, value=0, time=192),
    Message('control_change', channel=4, control=64, value=78, time=36),
    Message('note_on', channel=4, note=80, velocity=101, time=60),
    Message('note_off', channel=4, note=80, velocity=50, time=64),
    Message('note_on', channel=4, note=84, velocity=101, time=32),
    Message('note_off', channel=4, note=84, velocity=50, time=64),
    Message('note_on', channel=4, note=89, velocity=101, time=32),
    Message('note_off', channel=4, note=89, velocity=50, time=128),
    Message('note_on', channel=4, note=84, velocity=101, time=64),
    Message('note_off', channel=4, note=84, velocity=50, time=64),
    Message('note_on', channel=4, note=80, velocity=101, time=32),
    Message('note_off', channel=4, note=80, velocity=50, time=64),
    Message('note_on', channel=4, note=84, velocity=101, time=32),
    Message('note_off', channel=4, note=84, velocity=50, time=64),
    Message('note_on', channel=4, note=80, velocity=101, time=128),
    Message('note_off', channel=4, note=80, velocity=50, time=64),
    Message('note_on', channel=4, note=83, velocity=101, time=32),
    Message('note_off', channel=4, note=83, velocity=50, time=64),
    Message('note_on', channel=4, note=87, velocity=101, time=32),
    Message('note_off', channel=4, note=87, velocity=50, time=384),
    Message('control_change', channel=4, control=64, value=0, time=96),
    Message('control_change', channel=4, control=64, value=78, time=36),
    Message('note_on', channel=4, note=78, velocity=101, time=60),
    Message('note_off', channel=4, note=78, velocity=50, time=64),
    Message('note_on', channel=4, note=85, velocity=101, time=32),
    Message('note_off', channel=4, note=85, velocity=50, time=64),
    Message('note_on', channel=4, note=90, velocity=101, time=32),
    Message('note_off', channel=4, note=90, velocity=50, time=128),
    Message('note_on', channel=4, note=85, velocity=101, time=64),
    Message('note_off', channel=4, note=85, velocity=50, time=64),
    Message('note_on', channel=4, note=78, velocity=101, time=32),
    Message('note_off', channel=4, note=78, velocity=50, time=64),
    Message('note_on', channel=4, note=85, velocity=101, time=32),
    Message('note_off', channel=4, note=85, velocity=50, time=128),
    Message('note_on', channel=4, note=79, velocity=101, time=64),
    Message('note_on', channel=4, note=80, velocity=101, time=20),
    Message('note_off', channel=4, note=79, velocity=50, time=12),
    Message('note_off', channel=4, note=80, velocity=50, time=52),
    Message('note_on', channel=4, note=84, velocity=101, time=12),
    Message('note_off', channel=4, note=84, velocity=50, time=64),
    Message('note_on', channel=4, note=89, velocity=101, time=32),
    Message('note_off', channel=4, note=89, velocity=50, time=384),
    Message('control_change', channel=4, control=64, value=0, time=96),
    Message('control_change', channel=4, control=64, value=78, time=36),
    Message('note_on', channel=4, note=80, velocity=101, time=60),
    Message('note_off', channel=4, note=80, velocity=50, time=64),
    Message('note_on', channel=4, note=83, velocity=101, time=32),
    Message('note_off', channel=4, note=83, velocity=50, time=64),
    Message('note_on', channel=4, note=88, velocity=101, time=32),
    Message('note_off', channel=4, note=88, velocity=50, time=128),
    Message('note_on', channel=4, note=83, velocity=101, time=64),
    Message('note_off', channel=4, note=83, velocity=50, time=64),
    Message('note_on', channel=4, note=80, velocity=101, time=32),
    Message('note_off', channel=4, note=80, velocity=50, time=64),
    Message('note_on', channel=4, note=83, velocity=101, time=32),
    Message('note_off', channel=4, note=83, velocity=50, time=128),
    Message('note_on', channel=4, note=80, velocity=101, time=64),
    Message('note_off', channel=4, note=80, velocity=50, time=64),
    Message('note_on', channel=4, note=82, velocity=101, time=32),
    Message('note_off', channel=4, note=82, velocity=50, time=64),
    Message('note_on', channel=4, note=87, velocity=101, time=32),
    Message('note_off', channel=4, note=87, velocity=50, time=128),
    Message('note_on', channel=4, note=82, velocity=101, time=64),
    Message('note_off', channel=4, note=82, velocity=50, time=64),
    Message('note_on', channel=4, note=80, velocity=101, time=32),
    Message('note_off', channel=4, note=80, velocity=50, time=64),
    Message('note_on', channel=4, note=82, velocity=101, time=32),
    Message('note_off', channel=4, note=82, velocity=50, time=64),
    Message('note_on', channel=4, note=80, velocity=101, time=32),
    Message('control_change', channel=4, control=64, value=0, time=0),
    Message('control_change', channel=4, control=64, value=78, time=36),
    Message('note_off', channel=4, note=80, velocity=50, time=28),
    Message('note_on', channel=4, note=84, velocity=101, time=32),
    Message('note_off', channel=4, note=84, velocity=50, time=64),
    Message('note_on', channel=4, note=89, velocity=101, time=32),
    Message('note_off', channel=4, note=89, velocity=50, time=64),
    Message('note_on', channel=4, note=80, velocity=101, time=32),
    Message('note_off', channel=4, note=80, velocity=50, time=64),
    Message('note_on', channel=4, note=78, velocity=101, time=32),
    Message('note_off', channel=4, note=78, velocity=50, time=64),
    Message('note_on', channel=4, note=84, velocity=101, time=32),
    Message('note_off', channel=4, note=84, velocity=50, time=64),
    Message('note_on', channel=4, note=87, velocity=101, time=32),
    Message('note_off', channel=4, note=87, velocity=50, time=64),
    Message('note_on', channel=4, note=78, velocity=101, time=32),
    Message('note_off', channel=4, note=78, velocity=50, time=64),
    Message('note_on', channel=4, note=81, velocity=101, time=32),
    Message('note_off', channel=4, note=81, velocity=50, time=64),
    Message('note_on', channel=4, note=85, velocity=101, time=32),
    Message('note_off', channel=4, note=85, velocity=50, time=64),
    Message('note_on', channel=4, note=88, velocity=101, time=32),
    Message('note_off', channel=4, note=88, velocity=50, time=384),
    Message('control_change', channel=4, control=64, value=0, time=384),
    Message('control_change', channel=4, control=64, value=0, time=0),
    Message('control_change', channel=4, control=64, value=127, time=36),
    Message('control_change', channel=4, control=64, value=127, time=0),
    Message('control_change', channel=4, control=1, value=0, time=156),
    Message('control_change', channel=4, control=64, value=0, time=0),
    Message('control_change', channel=4, control=64, value=0, time=31872),
    Message('control_change', channel=4, control=1, value=112, time=36),
    Message('control_change', channel=4, control=64, value=78, time=0),
    Message('note_on', channel=4, note=80, velocity=101, time=444),
    Message('note_off', channel=4, note=80, velocity=50, time=64),
    Message('note_on', channel=4, note=84, velocity=101, time=32),
    Message('note_off', channel=4, note=84, velocity=50, time=64),
    Message('note_on', channel=4, note=89, velocity=101, time=32),
    Message('note_off', channel=4, note=89, velocity=50, time=128),
    Message('note_on', channel=4, note=84, velocity=101, time=64),
    Message('note_off', channel=4, note=84, velocity=50, time=64),
    Message('note_on', channel=4, note=80, velocity=101, time=32),
    Message('note_off', channel=4, note=80, velocity=50, time=64),
    Message('note_on', channel=4, note=84, velocity=101, time=32),
    Message('note_off', channel=4, note=84, velocity=50, time=64),
    Message('note_on', channel=4, note=80, velocity=101, time=128),
    Message('note_off', channel=4, note=80, velocity=50, time=64),
    Message('note_on', channel=4, note=83, velocity=101, time=32),
    Message('note_off', channel=4, note=83, velocity=50, time=64),
    Message('note_on', channel=4, note=87, velocity=101, time=32),
    Message('note_off', channel=4, note=87, velocity=50, time=384),
    Message('control_change', channel=4, control=64, value=0, time=96),
    Message('control_change', channel=4, control=64, value=78, time=36),
    Message('note_on', channel=4, note=78, velocity=101, time=60),
    Message('note_off', channel=4, note=78, velocity=50, time=64),
    Message('note_on', channel=4, note=85, velocity=101, time=32),
    Message('note_off', channel=4, note=85, velocity=50, time=64),
    Message('note_on', channel=4, note=90, velocity=101, time=32),
    Message('note_off', channel=4, note=90, velocity=50, time=128),
    Message('note_on', channel=4, note=85, velocity=101, time=64),
    Message('note_off', channel=4, note=85, velocity=50, time=64),
    Message('note_on', channel=4, note=78, velocity=101, time=32),
    Message('note_off', channel=4, note=78, velocity=50, time=64),
    Message('note_on', channel=4, note=85, velocity=101, time=32),
    Message('note_off', channel=4, note=85, velocity=50, time=128),
    Message('note_on', channel=4, note=79, velocity=101, time=64),
    Message('note_on', channel=4, note=80, velocity=101, time=20),
    Message('note_off', channel=4, note=79, velocity=50, time=12),
    Message('note_off', channel=4, note=80, velocity=50, time=52),
    Message('note_on', channel=4, note=84, velocity=101, time=12),
    Message('note_off', channel=4, note=84, velocity=50, time=64),
    Message('note_on', channel=4, note=89, velocity=101, time=32),
    Message('note_off', channel=4, note=89, velocity=50, time=384),
    Message('control_change', channel=4, control=1, value=0, time=92),
    Message('control_change', channel=4, control=64, value=0, time=0),
    Message('program_change', channel=4, program=50, time=388),
    Message('note_on', channel=4, note=40, velocity=127, time=384),
    Message('note_off', channel=4, note=40, velocity=77, time=96),
    Message('note_on', channel=4, note=47, velocity=127, time=0),
    Message('note_off', channel=4, note=47, velocity=77, time=96),
    Message('note_on', channel=4, note=52, velocity=127, time=0),
    Message('note_off', channel=4, note=52, velocity=77, time=96),
    Message('note_on', channel=4, note=57, velocity=127, time=0),
    Message('note_off', channel=4, note=57, velocity=77, time=192),
    Message('note_on', channel=4, note=52, velocity=127, time=0),
    Message('note_off', channel=4, note=52, velocity=77, time=96),
    Message('note_on', channel=4, note=47, velocity=127, time=0),
    Message('note_off', channel=4, note=47, velocity=77, time=96),
    Message('note_on', channel=4, note=40, velocity=127, time=0),
    Message('note_off', channel=4, note=40, velocity=77, time=96),
    Message('note_on', channel=4, note=39, velocity=127, time=0),
    Message('note_off', channel=4, note=39, velocity=77, time=96),
    Message('note_on', channel=4, note=49, velocity=127, time=0),
    Message('note_off', channel=4, note=49, velocity=77, time=96),
    Message('note_on', channel=4, note=51, velocity=127, time=0),
    Message('note_off', channel=4, note=51, velocity=77, time=96),
    Message('note_on', channel=4, note=58, velocity=127, time=0),
    Message('note_off', channel=4, note=58, velocity=77, time=192),
    Message('note_on', channel=4, note=51, velocity=127, time=0),
    Message('note_off', channel=4, note=51, velocity=77, time=96),
    Message('note_on', channel=4, note=49, velocity=127, time=0),
    Message('note_off', channel=4, note=49, velocity=77, time=96),
    Message('note_on', channel=4, note=39, velocity=127, time=0),
    Message('note_off', channel=4, note=39, velocity=77, time=96),
    Message('note_on', channel=4, note=43, velocity=127, time=0),
    Message('note_on', channel=4, note=44, velocity=127, time=16),
    Message('note_off', channel=4, note=43, velocity=77, time=48),
    Message('note_on', channel=4, note=51, velocity=127, time=32),
    Message('note_off', channel=4, note=44, velocity=77, time=16),
    Message('note_off', channel=4, note=51, velocity=77, time=80),
    Message('note_on', channel=4, note=56, velocity=127, time=0),
    Message('note_off', channel=4, note=56, velocity=77, time=96),
    Message('note_on', channel=4, note=44, velocity=127, time=0),
    Message('note_off', channel=4, note=44, velocity=77, time=96),
    Message('note_on', channel=4, note=43, velocity=127, time=0),
    Message('note_off', channel=4, note=43, velocity=77, time=96),
    Message('note_on', channel=4, note=51, velocity=127, time=0),
    Message('note_off', channel=4, note=51, velocity=77, time=96),
    Message('note_on', channel=4, note=56, velocity=127, time=0),
    Message('note_off', channel=4, note=56, velocity=77, time=96),
    Message('note_on', channel=4, note=43, velocity=127, time=0),
    Message('note_off', channel=4, note=43, velocity=77, time=96),
    Message('note_on', channel=4, note=47, velocity=127, time=0),
    Message('note_off', channel=4, note=47, velocity=77, time=96),
    Message('note_on', channel=4, note=54, velocity=127, time=0),
    Message('note_off', channel=4, note=54, velocity=77, time=96),
    Message('note_on', channel=4, note=59, velocity=127, time=0),
    Message('note_off', channel=4, note=59, velocity=77, time=96),
    Message('note_on', channel=4, note=63, velocity=127, time=0),
    Message('note_off', channel=4, note=63, velocity=77, time=192),
    Message('note_on', channel=4, note=59, velocity=127, time=0),
    Message('note_off', channel=4, note=59, velocity=77, time=96),
    Message('note_on', channel=4, note=54, velocity=127, time=0),
    Message('note_off', channel=4, note=54, velocity=77, time=96),
    Message('note_on', channel=4, note=47, velocity=127, time=0),
    Message('note_off', channel=4, note=47, velocity=77, time=96),
    Message('note_on', channel=4, note=40, velocity=127, time=0),
    Message('note_off', channel=4, note=40, velocity=77, time=96),
    Message('note_on', channel=4, note=47, velocity=127, time=0),
    Message('note_off', channel=4, note=47, velocity=77, time=96),
    Message('note_on', channel=4, note=52, velocity=127, time=0),
    Message('note_off', channel=4, note=52, velocity=77, time=96),
    Message('note_on', channel=4, note=57, velocity=127, time=0),
    Message('note_off', channel=4, note=57, velocity=77, time=192),
    Message('note_on', channel=4, note=52, velocity=127, time=0),
    Message('note_off', channel=4, note=52, velocity=77, time=96),
    Message('note_on', channel=4, note=47, velocity=127, time=0),
    Message('note_off', channel=4, note=47, velocity=77, time=96),
    Message('note_on', channel=4, note=40, velocity=127, time=0),
    Message('note_off', channel=4, note=40, velocity=77, time=96),
    Message('note_on', channel=4, note=39, velocity=127, time=0),
    Message('note_off', channel=4, note=39, velocity=77, time=96),
    Message('note_on', channel=4, note=49, velocity=127, time=0),
    Message('note_off', channel=4, note=49, velocity=77, time=96),
    Message('note_on', channel=4, note=51, velocity=127, time=0),
    Message('note_off', channel=4, note=51, velocity=77, time=96),
    Message('note_on', channel=4, note=58, velocity=127, time=0),
    Message('note_off', channel=4, note=58, velocity=77, time=192),
    Message('note_on', channel=4, note=51, velocity=127, time=0),
    Message('note_off', channel=4, note=51, velocity=77, time=96),
    Message('note_on', channel=4, note=49, velocity=127, time=0),
    Message('note_off', channel=4, note=49, velocity=77, time=96),
    Message('note_on', channel=4, note=39, velocity=127, time=0),
    Message('note_off', channel=4, note=39, velocity=77, time=96),
    Message('note_on', channel=4, note=65, velocity=127, time=0),
    Message('note_on', channel=4, note=61, velocity=127, time=0),
    Message('note_on', channel=4, note=56, velocity=127, time=0),
    Message('note_on', channel=4, note=49, velocity=127, time=0),
    Message('note_on', channel=4, note=65, velocity=127, time=288),
    Message('note_on', channel=4, note=66, velocity=127, time=20),
    Message('note_off', channel=4, note=65, velocity=77, time=12),
    Message('note_on', channel=4, note=65, velocity=127, time=64),
    Message('note_off', channel=4, note=66, velocity=77, time=4),
    Message('note_off', channel=4, note=65, velocity=77, time=60),
    Message('note_on', channel=4, note=61, velocity=127, time=32),
    Message('note_off', channel=4, note=65, velocity=77, time=32),
    Message('note_off', channel=4, note=61, velocity=77, time=32),
    Message('note_on', channel=4, note=56, velocity=127, time=32),
    Message('note_off', channel=4, note=61, velocity=77, time=32),
    Message('note_off', channel=4, note=56, velocity=77, time=32),
    Message('note_on', channel=4, note=61, velocity=127, time=32),
    Message('note_off', channel=4, note=56, velocity=77, time=32),
    Message('note_off', channel=4, note=49, velocity=77, time=64),
    Message('note_off', channel=4, note=61, velocity=77, time=0),
    Message('note_on', channel=4, note=47, velocity=127, time=0),
    Message('note_on', channel=4, note=54, velocity=127, time=96),
    Message('note_off', channel=4, note=47, velocity=77, time=32),
    Message('note_on', channel=4, note=59, velocity=127, time=64),
    Message('note_off', channel=4, note=54, velocity=77, time=32),
    Message('note_on', channel=4, note=63, velocity=127, time=64),
    Message('note_off', channel=4, note=59, velocity=77, time=32),
    Message('note_off', channel=4, note=63, velocity=77, time=160),
    Message('note_on', channel=4, note=59, velocity=127, time=0),
    Message('note_on', channel=4, note=54, velocity=127, time=96),
    Message('note_off', channel=4, note=59, velocity=77, time=32),
    Message('note_on', channel=4, note=59, velocity=127, time=64),
    Message('note_off', channel=4, note=54, velocity=77, time=32),
    Message('note_on', channel=4, note=40, velocity=127, time=64),
    Message('note_off', channel=4, note=59, velocity=65, time=32),
    Message('note_off', channel=4, note=40, velocity=77, time=64),
    Message('note_on', channel=4, note=47, velocity=127, time=0),
    Message('note_off', channel=4, note=47, velocity=77, time=96),
    Message('note_on', channel=4, note=52, velocity=127, time=0),
    Message('note_off', channel=4, note=52, velocity=77, time=96),
    Message('note_on', channel=4, note=57, velocity=127, time=0),
    Message('note_off', channel=4, note=57, velocity=77, time=192),
    Message('note_on', channel=4, note=52, velocity=127, time=0),
    Message('note_off', channel=4, note=52, velocity=77, time=96),
    Message('note_on', channel=4, note=47, velocity=127, time=0),
    Message('note_off', channel=4, note=47, velocity=77, time=96),
    Message('note_on', channel=4, note=40, velocity=127, time=0),
    Message('note_off', channel=4, note=40, velocity=77, time=96),
    Message('note_on', channel=4, note=39, velocity=127, time=0),
    Message('note_off', channel=4, note=39, velocity=77, time=96),
    Message('note_on', channel=4, note=49, velocity=127, time=0),
    Message('note_off', channel=4, note=49, velocity=77, time=96),
    Message('note_on', channel=4, note=51, velocity=127, time=0),
    Message('note_off', channel=4, note=51, velocity=77, time=96),
    Message('note_on', channel=4, note=58, velocity=127, time=0),
    Message('note_off', channel=4, note=58, velocity=77, time=192),
    Message('note_on', channel=4, note=51, velocity=127, time=0),
    Message('note_off', channel=4, note=51, velocity=77, time=96),
    Message('note_on', channel=4, note=49, velocity=127, time=0),
    Message('note_off', channel=4, note=49, velocity=77, time=96),
    Message('note_on', channel=4, note=39, velocity=127, time=0),
    Message('note_off', channel=4, note=39, velocity=77, time=96),
    Message('note_on', channel=4, note=43, velocity=127, time=0),
    Message('note_on', channel=4, note=44, velocity=127, time=16),
    Message('note_off', channel=4, note=43, velocity=77, time=48),
    Message('note_on', channel=4, note=51, velocity=127, time=32),
    Message('note_off', channel=4, note=44, velocity=77, time=16),
    Message('note_off', channel=4, note=51, velocity=77, time=80),
    Message('note_on', channel=4, note=56, velocity=127, time=0),
    Message('note_off', channel=4, note=56, velocity=77, time=96),
    Message('note_on', channel=4, note=44, velocity=127, time=0),
    Message('note_off', channel=4, note=44, velocity=77, time=96),
    Message('note_on', channel=4, note=43, velocity=127, time=0),
    Message('note_off', channel=4, note=43, velocity=77, time=96),
    Message('note_on', channel=4, note=51, velocity=127, time=0),
    Message('note_off', channel=4, note=51, velocity=77, time=96),
    Message('note_on', channel=4, note=56, velocity=127, time=0),
    Message('note_off', channel=4, note=56, velocity=77, time=96),
    Message('note_on', channel=4, note=43, velocity=127, time=0),
    Message('note_off', channel=4, note=43, velocity=77, time=96),
    Message('note_on', channel=4, note=47, velocity=127, time=0),
    Message('note_off', channel=4, note=47, velocity=77, time=96),
    Message('note_on', channel=4, note=54, velocity=127, time=0),
    Message('note_off', channel=4, note=54, velocity=77, time=96),
    Message('note_on', channel=4, note=59, velocity=127, time=0),
    Message('note_off', channel=4, note=59, velocity=77, time=96),
    Message('note_on', channel=4, note=63, velocity=127, time=0),
    Message('note_off', channel=4, note=63, velocity=77, time=192),
    Message('note_on', channel=4, note=59, velocity=127, time=0),
    Message('note_off', channel=4, note=59, velocity=77, time=96),
    Message('note_on', channel=4, note=54, velocity=127, time=0),
    Message('note_off', channel=4, note=54, velocity=77, time=96),
    Message('note_on', channel=4, note=47, velocity=127, time=0),
    Message('note_off', channel=4, note=47, velocity=77, time=96),
    Message('note_on', channel=4, note=40, velocity=127, time=0),
    Message('note_off', channel=4, note=40, velocity=77, time=96),
    Message('note_on', channel=4, note=47, velocity=127, time=0),
    Message('note_off', channel=4, note=47, velocity=77, time=96),
    Message('note_on', channel=4, note=52, velocity=127, time=0),
    Message('note_off', channel=4, note=52, velocity=77, time=96),
    Message('note_on', channel=4, note=57, velocity=127, time=0),
    Message('note_off', channel=4, note=57, velocity=77, time=192),
    Message('note_on', channel=4, note=52, velocity=127, time=0),
    Message('note_off', channel=4, note=52, velocity=77, time=96),
    Message('note_on', channel=4, note=47, velocity=127, time=0),
    Message('note_off', channel=4, note=47, velocity=77, time=96),
    Message('note_on', channel=4, note=40, velocity=127, time=0),
    Message('note_off', channel=4, note=40, velocity=77, time=96),
    Message('note_on', channel=4, note=39, velocity=127, time=0),
    Message('note_off', channel=4, note=39, velocity=77, time=96),
    Message('note_on', channel=4, note=49, velocity=127, time=0),
    Message('note_off', channel=4, note=49, velocity=77, time=96),
    Message('note_on', channel=4, note=51, velocity=127, time=0),
    Message('note_off', channel=4, note=51, velocity=77, time=96),
    Message('note_on', channel=4, note=58, velocity=127, time=0),
    Message('note_off', channel=4, note=58, velocity=77, time=192),
    Message('note_on', channel=4, note=51, velocity=127, time=0),
    Message('note_off', channel=4, note=51, velocity=77, time=96),
    Message('note_on', channel=4, note=49, velocity=127, time=0),
    Message('note_off', channel=4, note=49, velocity=77, time=96),
    Message('note_on', channel=4, note=39, velocity=127, time=0),
    Message('note_off', channel=4, note=39, velocity=77, time=96),
    Message('note_on', channel=4, note=42, velocity=127, time=20160),
    Message('note_on', channel=4, note=54, velocity=127, time=0),
    Message('note_on', channel=4, note=49, velocity=127, time=0),
    Message('note_off', channel=4, note=42, velocity=77, time=96),
    Message('note_off', channel=4, note=54, velocity=77, time=0),
    Message('note_off', channel=4, note=49, velocity=77, time=0),
    Message('note_on', channel=4, note=44, velocity=127, time=0),
    Message('note_on', channel=4, note=51, velocity=127, time=0),
    Message('note_on', channel=4, note=56, velocity=127, time=0),
    Message('note_off', channel=4, note=44, velocity=77, time=96),
    Message('note_off', channel=4, note=51, velocity=77, time=0),
    Message('note_off', channel=4, note=56, velocity=77, time=0),
    Message('note_on', channel=4, note=56, velocity=127, time=0),
    Message('note_on', channel=4, note=44, velocity=127, time=0),
    Message('note_on', channel=4, note=51, velocity=127, time=0),
    Message('control_change', channel=4, control=1, value=76, time=4),
    Message('control_change', channel=4, control=1, value=0, time=2876),
    Message('note_off', channel=4, note=44, velocity=65, time=56),
    Message('note_off', channel=4, note=51, velocity=65, time=0),
    Message('note_off', channel=4, note=56, velocity=65, time=0),
    MetaMessage('end_of_track', time=0)]),
  MidiTrack([
    MetaMessage('track_name', name='Kim Thayil -Guitar 2-', time=0),
    Message('control_change', channel=5, control=0, value=0, time=0),
    Message('program_change', channel=5, program=27, time=0),
    Message('control_change', channel=5, control=10, value=42, time=0),
    MetaMessage('key_signature', key='G', time=0),
    Message('pitchwheel', channel=5, pitch=0, time=1916),
    Message('control_change', channel=5, control=1, value=112, time=3460),
    Message('control_change', channel=5, control=64, value=78, time=0),
    Message('note_on', channel=5, note=80, velocity=103, time=480),
    Message('note_off', channel=5, note=80, velocity=51, time=64),
    Message('note_on', channel=5, note=84, velocity=103, time=32),
    Message('note_off', channel=5, note=84, velocity=51, time=64),
    Message('note_on', channel=5, note=89, velocity=103, time=32),
    Message('note_off', channel=5, note=89, velocity=51, time=128),
    Message('note_on', channel=5, note=84, velocity=103, time=64),
    Message('note_off', channel=5, note=84, velocity=51, time=64),
    Message('note_on', channel=5, note=80, velocity=103, time=32),
    Message('note_off', channel=5, note=80, velocity=51, time=64),
    Message('note_on', channel=5, note=84, velocity=103, time=32),
    Message('note_off', channel=5, note=84, velocity=51, time=64),
    Message('note_on', channel=5, note=80, velocity=103, time=128),
    Message('note_off', channel=5, note=80, velocity=51, time=64),
    Message('note_on', channel=5, note=83, velocity=103, time=32),
    Message('note_off', channel=5, note=83, velocity=51, time=64),
    Message('note_on', channel=5, note=87, velocity=103, time=32),
    Message('note_off', channel=5, note=87, velocity=51, time=384),
    Message('control_change', channel=5, control=64, value=0, time=96),
    Message('control_change', channel=5, control=64, value=78, time=36),
    Message('note_on', channel=5, note=78, velocity=103, time=60),
    Message('note_off', channel=5, note=78, velocity=51, time=64),
    Message('note_on', channel=5, note=85, velocity=103, time=32),
    Message('note_off', channel=5, note=85, velocity=51, time=64),
    Message('note_on', channel=5, note=90, velocity=103, time=32),
    Message('note_off', channel=5, note=90, velocity=51, time=128),
    Message('note_on', channel=5, note=85, velocity=103, time=64),
    Message('note_off', channel=5, note=85, velocity=51, time=64),
    Message('note_on', channel=5, note=78, velocity=103, time=32),
    Message('note_off', channel=5, note=78, velocity=51, time=64),
    Message('note_on', channel=5, note=85, velocity=103, time=32),
    Message('note_off', channel=5, note=85, velocity=51, time=128),
    Message('note_on', channel=5, note=79, velocity=103, time=64),
    Message('note_on', channel=5, note=80, velocity=103, time=20),
    Message('note_off', channel=5, note=79, velocity=51, time=12),
    Message('note_off', channel=5, note=80, velocity=51, time=52),
    Message('note_on', channel=5, note=84, velocity=103, time=12),
    Message('note_off', channel=5, note=84, velocity=51, time=64),
    Message('note_on', channel=5, note=89, velocity=103, time=32),
    Message('note_off', channel=5, note=89, velocity=51, time=384),
    Message('control_change', channel=5, control=64, value=0, time=96),
    Message('control_change', channel=5, control=64, value=78, time=36),
    Message('note_on', channel=5, note=80, velocity=103, time=60),
    Message('note_off', channel=5, note=80, velocity=51, time=64),
    Message('note_on', channel=5, note=83, velocity=103, time=32),
    Message('note_off', channel=5, note=83, velocity=51, time=64),
    Message('note_on', channel=5, note=88, velocity=103, time=32),
    Message('note_off', channel=5, note=88, velocity=51, time=128),
    Message('note_on', channel=5, note=83, velocity=103, time=64),
    Message('note_off', channel=5, note=83, velocity=51, time=64),
    Message('note_on', channel=5, note=80, velocity=103, time=32),
    Message('note_off', channel=5, note=80, velocity=51, time=64),
    Message('note_on', channel=5, note=83, velocity=103, time=32),
    Message('note_off', channel=5, note=83, velocity=51, time=128),
    Message('note_on', channel=5, note=80, velocity=103, time=64),
    Message('note_off', channel=5, note=80, velocity=51, time=64),
    Message('note_on', channel=5, note=82, velocity=103, time=32),
    Message('note_off', channel=5, note=82, velocity=51, time=64),
    Message('note_on', channel=5, note=87, velocity=103, time=32),
    Message('note_off', channel=5, note=87, velocity=51, time=128),
    Message('note_on', channel=5, note=82, velocity=103, time=64),
    Message('note_off', channel=5, note=82, velocity=51, time=64),
    Message('note_on', channel=5, note=80, velocity=103, time=32),
    Message('note_off', channel=5, note=80, velocity=51, time=64),
    Message('note_on', channel=5, note=82, velocity=103, time=32),
    Message('note_off', channel=5, note=82, velocity=51, time=64),
    Message('note_on', channel=5, note=80, velocity=103, time=32),
    Message('control_change', channel=5, control=64, value=0, time=0),
    Message('control_change', channel=5, control=64, value=78, time=36),
    Message('note_off', channel=5, note=80, velocity=51, time=28),
    Message('note_on', channel=5, note=84, velocity=103, time=32),
    Message('note_off', channel=5, note=84, velocity=51, time=64),
    Message('note_on', channel=5, note=89, velocity=103, time=32),
    Message('note_off', channel=5, note=89, velocity=51, time=64),
    Message('note_on', channel=5, note=80, velocity=103, time=32),
    Message('note_off', channel=5, note=80, velocity=51, time=64),
    Message('note_on', channel=5, note=78, velocity=103, time=32),
    Message('note_off', channel=5, note=78, velocity=51, time=64),
    Message('note_on', channel=5, note=84, velocity=103, time=32),
    Message('note_off', channel=5, note=84, velocity=51, time=64),
    Message('note_on', channel=5, note=87, velocity=103, time=32),
    Message('note_off', channel=5, note=87, velocity=51, time=64),
    Message('note_on', channel=5, note=78, velocity=103, time=32),
    Message('note_off', channel=5, note=78, velocity=51, time=64),
    Message('note_on', channel=5, note=81, velocity=103, time=32),
    Message('note_off', channel=5, note=81, velocity=51, time=64),
    Message('note_on', channel=5, note=85, velocity=103, time=32),
    Message('note_off', channel=5, note=85, velocity=51, time=64),
    Message('note_on', channel=5, note=88, velocity=103, time=32),
    Message('note_off', channel=5, note=88, velocity=51, time=384),
    Message('control_change', channel=5, control=64, value=0, time=192),
    Message('control_change', channel=5, control=64, value=78, time=36),
    Message('note_on', channel=5, note=80, velocity=103, time=60),
    Message('note_off', channel=5, note=80, velocity=51, time=64),
    Message('note_on', channel=5, note=84, velocity=103, time=32),
    Message('note_off', channel=5, note=84, velocity=51, time=64),
    Message('note_on', channel=5, note=89, velocity=103, time=32),
    Message('note_off', channel=5, note=89, velocity=51, time=128),
    Message('note_on', channel=5, note=84, velocity=103, time=64),
    Message('note_off', channel=5, note=84, velocity=51, time=64),
    Message('note_on', channel=5, note=80, velocity=103, time=32),
    Message('note_off', channel=5, note=80, velocity=51, time=64),
    Message('note_on', channel=5, note=84, velocity=103, time=32),
    Message('note_off', channel=5, note=84, velocity=51, time=64),
    Message('note_on', channel=5, note=80, velocity=103, time=128),
    Message('note_off', channel=5, note=80, velocity=51, time=64),
    Message('note_on', channel=5, note=83, velocity=103, time=32),
    Message('note_off', channel=5, note=83, velocity=51, time=64),
    Message('note_on', channel=5, note=87, velocity=103, time=32),
    Message('note_off', channel=5, note=87, velocity=51, time=384),
    Message('control_change', channel=5, control=64, value=0, time=96),
    Message('control_change', channel=5, control=64, value=78, time=36),
    Message('note_on', channel=5, note=78, velocity=103, time=60),
    Message('note_off', channel=5, note=78, velocity=51, time=64),
    Message('note_on', channel=5, note=85, velocity=103, time=32),
    Message('note_off', channel=5, note=85, velocity=51, time=64),
    Message('note_on', channel=5, note=90, velocity=103, time=32),
    Message('note_off', channel=5, note=90, velocity=51, time=128),
    Message('note_on', channel=5, note=85, velocity=103, time=64),
    Message('note_off', channel=5, note=85, velocity=51, time=64),
    Message('note_on', channel=5, note=78, velocity=103, time=32),
    Message('note_off', channel=5, note=78, velocity=51, time=64),
    Message('note_on', channel=5, note=85, velocity=103, time=32),
    Message('note_off', channel=5, note=85, velocity=51, time=128),
    Message('note_on', channel=5, note=79, velocity=103, time=64),
    Message('note_on', channel=5, note=80, velocity=103, time=20),
    Message('note_off', channel=5, note=79, velocity=51, time=12),
    Message('note_off', channel=5, note=80, velocity=51, time=52),
    Message('note_on', channel=5, note=84, velocity=103, time=12),
    Message('note_off', channel=5, note=84, velocity=51, time=64),
    Message('note_on', channel=5, note=89, velocity=103, time=32),
    Message('note_off', channel=5, note=89, velocity=51, time=384),
    Message('control_change', channel=5, control=64, value=0, time=96),
    Message('control_change', channel=5, control=64, value=78, time=36),
    Message('note_on', channel=5, note=80, velocity=103, time=60),
    Message('note_off', channel=5, note=80, velocity=51, time=64),
    Message('note_on', channel=5, note=83, velocity=103, time=32),
    Message('note_off', channel=5, note=83, velocity=51, time=64),
    Message('note_on', channel=5, note=88, velocity=103, time=32),
    Message('note_off', channel=5, note=88, velocity=51, time=128),
    Message('note_on', channel=5, note=83, velocity=103, time=64),
    Message('note_off', channel=5, note=83, velocity=51, time=64),
    Message('note_on', channel=5, note=80, velocity=103, time=32),
    Message('note_off', channel=5, note=80, velocity=51, time=64),
    Message('note_on', channel=5, note=83, velocity=103, time=32),
    Message('note_off', channel=5, note=83, velocity=51, time=128),
    Message('note_on', channel=5, note=80, velocity=103, time=64),
    Message('note_off', channel=5, note=80, velocity=51, time=64),
    Message('note_on', channel=5, note=82, velocity=103, time=32),
    Message('note_off', channel=5, note=82, velocity=51, time=64),
    Message('note_on', channel=5, note=87, velocity=103, time=32),
    Message('note_off', channel=5, note=87, velocity=51, time=128),
    Message('note_on', channel=5, note=82, velocity=103, time=64),
    Message('note_off', channel=5, note=82, velocity=51, time=64),
    Message('note_on', channel=5, note=80, velocity=103, time=32),
    Message('note_off', channel=5, note=80, velocity=51, time=64),
    Message('note_on', channel=5, note=82, velocity=103, time=32),
    Message('note_off', channel=5, note=82, velocity=51, time=64),
    Message('note_on', channel=5, note=80, velocity=103, time=32),
    Message('control_change', channel=5, control=64, value=0, time=0),
    Message('control_change', channel=5, control=64, value=78, time=36),
    Message('note_off', channel=5, note=80, velocity=51, time=28),
    Message('note_on', channel=5, note=84, velocity=103, time=32),
    Message('note_off', channel=5, note=84, velocity=51, time=64),
    Message('note_on', channel=5, note=89, velocity=103, time=32),
    Message('note_off', channel=5, note=89, velocity=51, time=64),
    Message('note_on', channel=5, note=80, velocity=103, time=32),
    Message('note_off', channel=5, note=80, velocity=51, time=64),
    Message('note_on', channel=5, note=78, velocity=103, time=32),
    Message('note_off', channel=5, note=78, velocity=51, time=64),
    Message('note_on', channel=5, note=84, velocity=103, time=32),
    Message('note_off', channel=5, note=84, velocity=51, time=64),
    Message('note_on', channel=5, note=87, velocity=103, time=32),
    Message('note_off', channel=5, note=87, velocity=51, time=64),
    Message('note_on', channel=5, note=78, velocity=103, time=32),
    Message('note_off', channel=5, note=78, velocity=51, time=64),
    Message('note_on', channel=5, note=81, velocity=103, time=32),
    Message('note_off', channel=5, note=81, velocity=51, time=64),
    Message('note_on', channel=5, note=85, velocity=103, time=32),
    Message('note_off', channel=5, note=85, velocity=51, time=64),
    Message('note_on', channel=5, note=88, velocity=103, time=32),
    Message('note_off', channel=5, note=88, velocity=51, time=384),
    Message('control_change', channel=5, control=64, value=0, time=384),
    Message('control_change', channel=5, control=64, value=127, time=36),
    Message('control_change', channel=5, control=1, value=0, time=156),
    Message('control_change', channel=5, control=64, value=0, time=0),
    Message('control_change', channel=5, control=1, value=112, time=6912),
    Message('control_change', channel=5, control=64, value=78, time=0),
    Message('note_on', channel=5, note=80, velocity=103, time=480),
    Message('note_off', channel=5, note=80, velocity=51, time=64),
    Message('note_on', channel=5, note=84, velocity=103, time=32),
    Message('note_off', channel=5, note=84, velocity=51, time=64),
    Message('note_on', channel=5, note=89, velocity=103, time=32),
    Message('note_off', channel=5, note=89, velocity=51, time=128),
    Message('note_on', channel=5, note=84, velocity=103, time=64),
    Message('note_off', channel=5, note=84, velocity=51, time=64),
    Message('note_on', channel=5, note=80, velocity=103, time=32),
    Message('note_off', channel=5, note=80, velocity=51, time=64),
    Message('note_on', channel=5, note=84, velocity=103, time=32),
    Message('note_off', channel=5, note=84, velocity=51, time=64),
    Message('note_on', channel=5, note=80, velocity=103, time=128),
    Message('note_off', channel=5, note=80, velocity=51, time=64),
    Message('note_on', channel=5, note=83, velocity=103, time=32),
    Message('note_off', channel=5, note=83, velocity=51, time=64),
    Message('note_on', channel=5, note=87, velocity=103, time=32),
    Message('note_off', channel=5, note=87, velocity=51, time=384),
    Message('control_change', channel=5, control=64, value=0, time=96),
    Message('control_change', channel=5, control=64, value=78, time=36),
    Message('note_on', channel=5, note=78, velocity=103, time=60),
    Message('note_off', channel=5, note=78, velocity=51, time=64),
    Message('note_on', channel=5, note=85, velocity=103, time=32),
    Message('note_off', channel=5, note=85, velocity=51, time=64),
    Message('note_on', channel=5, note=90, velocity=103, time=32),
    Message('note_off', channel=5, note=90, velocity=51, time=128),
    Message('note_on', channel=5, note=85, velocity=103, time=64),
    Message('note_off', channel=5, note=85, velocity=51, time=64),
    Message('note_on', channel=5, note=78, velocity=103, time=32),
    Message('note_off', channel=5, note=78, velocity=51, time=64),
    Message('note_on', channel=5, note=85, velocity=103, time=32),
    Message('note_off', channel=5, note=85, velocity=51, time=128),
    Message('note_on', channel=5, note=79, velocity=103, time=64),
    Message('note_on', channel=5, note=80, velocity=103, time=20),
    Message('note_off', channel=5, note=79, velocity=51, time=12),
    Message('note_off', channel=5, note=80, velocity=51, time=52),
    Message('note_on', channel=5, note=84, velocity=103, time=12),
    Message('note_off', channel=5, note=84, velocity=51, time=64),
    Message('note_on', channel=5, note=89, velocity=103, time=32),
    Message('note_off', channel=5, note=89, velocity=51, time=384),
    Message('control_change', channel=5, control=64, value=0, time=96),
    Message('control_change', channel=5, control=64, value=78, time=36),
    Message('note_on', channel=5, note=80, velocity=103, time=60),
    Message('note_off', channel=5, note=80, velocity=51, time=64),
    Message('note_on', channel=5, note=83, velocity=103, time=32),
    Message('note_off', channel=5, note=83, velocity=51, time=64),
    Message('note_on', channel=5, note=88, velocity=103, time=32),
    Message('note_off', channel=5, note=88, velocity=51, time=128),
    Message('note_on', channel=5, note=83, velocity=103, time=64),
    Message('note_off', channel=5, note=83, velocity=51, time=64),
    Message('note_on', channel=5, note=80, velocity=103, time=32),
    Message('note_off', channel=5, note=80, velocity=51, time=64),
    Message('note_on', channel=5, note=83, velocity=103, time=32),
    Message('note_off', channel=5, note=83, velocity=51, time=128),
    Message('note_on', channel=5, note=80, velocity=103, time=64),
    Message('note_off', channel=5, note=80, velocity=51, time=64),
    Message('note_on', channel=5, note=82, velocity=103, time=32),
    Message('note_off', channel=5, note=82, velocity=51, time=64),
    Message('note_on', channel=5, note=87, velocity=103, time=32),
    Message('note_off', channel=5, note=87, velocity=51, time=128),
    Message('note_on', channel=5, note=82, velocity=103, time=64),
    Message('note_off', channel=5, note=82, velocity=51, time=64),
    Message('note_on', channel=5, note=80, velocity=103, time=32),
    Message('note_off', channel=5, note=80, velocity=51, time=64),
    Message('note_on', channel=5, note=82, velocity=103, time=32),
    Message('note_off', channel=5, note=82, velocity=51, time=64),
    Message('note_on', channel=5, note=80, velocity=103, time=32),
    Message('control_change', channel=5, control=64, value=0, time=0),
    Message('control_change', channel=5, control=64, value=78, time=36),
    Message('note_off', channel=5, note=80, velocity=51, time=28),
    Message('note_on', channel=5, note=84, velocity=103, time=32),
    Message('note_off', channel=5, note=84, velocity=51, time=64),
    Message('note_on', channel=5, note=89, velocity=103, time=32),
    Message('note_off', channel=5, note=89, velocity=51, time=64),
    Message('note_on', channel=5, note=80, velocity=103, time=32),
    Message('note_off', channel=5, note=80, velocity=51, time=64),
    Message('note_on', channel=5, note=78, velocity=103, time=32),
    Message('note_off', channel=5, note=78, velocity=51, time=64),
    Message('note_on', channel=5, note=84, velocity=103, time=32),
    Message('note_off', channel=5, note=84, velocity=51, time=64),
    Message('note_on', channel=5, note=87, velocity=103, time=32),
    Message('note_off', channel=5, note=87, velocity=51, time=64),
    Message('note_on', channel=5, note=78, velocity=103, time=32),
    Message('note_off', channel=5, note=78, velocity=51, time=64),
    Message('note_on', channel=5, note=81, velocity=103, time=32),
    Message('note_off', channel=5, note=81, velocity=51, time=64),
    Message('note_on', channel=5, note=85, velocity=103, time=32),
    Message('note_off', channel=5, note=85, velocity=51, time=64),
    Message('note_on', channel=5, note=88, velocity=103, time=32),
    Message('note_off', channel=5, note=88, velocity=51, time=384),
    Message('control_change', channel=5, control=64, value=0, time=192),
    Message('control_change', channel=5, control=64, value=78, time=36),
    Message('note_on', channel=5, note=80, velocity=103, time=60),
    Message('note_off', channel=5, note=80, velocity=51, time=64),
    Message('note_on', channel=5, note=84, velocity=103, time=32),
    Message('note_off', channel=5, note=84, velocity=51, time=64),
    Message('note_on', channel=5, note=89, velocity=103, time=32),
    Message('note_off', channel=5, note=89, velocity=51, time=128),
    Message('note_on', channel=5, note=84, velocity=103, time=64),
    Message('note_off', channel=5, note=84, velocity=51, time=64),
    Message('note_on', channel=5, note=80, velocity=103, time=32),
    Message('note_off', channel=5, note=80, velocity=51, time=64),
    Message('note_on', channel=5, note=84, velocity=103, time=32),
    Message('note_off', channel=5, note=84, velocity=51, time=64),
    Message('note_on', channel=5, note=80, velocity=103, time=128),
    Message('note_off', channel=5, note=80, velocity=51, time=64),
    Message('note_on', channel=5, note=83, velocity=103, time=32),
    Message('note_off', channel=5, note=83, velocity=51, time=64),
    Message('note_on', channel=5, note=87, velocity=103, time=32),
    Message('note_off', channel=5, note=87, velocity=51, time=384),
    Message('control_change', channel=5, control=64, value=0, time=96),
    Message('control_change', channel=5, control=64, value=78, time=36),
    Message('note_on', channel=5, note=78, velocity=103, time=60),
    Message('note_off', channel=5, note=78, velocity=51, time=64),
    Message('note_on', channel=5, note=85, velocity=103, time=32),
    Message('note_off', channel=5, note=85, velocity=51, time=64),
    Message('note_on', channel=5, note=90, velocity=103, time=32),
    Message('note_off', channel=5, note=90, velocity=51, time=128),
    Message('note_on', channel=5, note=85, velocity=103, time=64),
    Message('note_off', channel=5, note=85, velocity=51, time=64),
    Message('note_on', channel=5, note=78, velocity=103, time=32),
    Message('note_off', channel=5, note=78, velocity=51, time=64),
    Message('note_on', channel=5, note=85, velocity=103, time=32),
    Message('note_off', channel=5, note=85, velocity=51, time=128),
    Message('note_on', channel=5, note=79, velocity=103, time=64),
    Message('note_on', channel=5, note=80, velocity=103, time=20),
    Message('note_off', channel=5, note=79, velocity=51, time=12),
    Message('note_off', channel=5, note=80, velocity=51, time=52),
    Message('note_on', channel=5, note=84, velocity=103, time=12),
    Message('note_off', channel=5, note=84, velocity=51, time=64),
    Message('note_on', channel=5, note=89, velocity=103, time=32),
    Message('note_off', channel=5, note=89, velocity=51, time=384),
    Message('control_change', channel=5, control=64, value=0, time=96),
    Message('control_change', channel=5, control=64, value=78, time=36),
    Message('note_on', channel=5, note=80, velocity=103, time=60),
    Message('note_off', channel=5, note=80, velocity=51, time=64),
    Message('note_on', channel=5, note=83, velocity=103, time=32),
    Message('note_off', channel=5, note=83, velocity=51, time=64),
    Message('note_on', channel=5, note=88, velocity=103, time=32),
    Message('note_off', channel=5, note=88, velocity=51, time=128),
    Message('note_on', channel=5, note=83, velocity=103, time=64),
    Message('note_off', channel=5, note=83, velocity=51, time=64),
    Message('note_on', channel=5, note=80, velocity=103, time=32),
    Message('note_off', channel=5, note=80, velocity=51, time=64),
    Message('note_on', channel=5, note=83, velocity=103, time=32),
    Message('note_off', channel=5, note=83, velocity=51, time=128),
    Message('note_on', channel=5, note=80, velocity=103, time=64),
    Message('note_off', channel=5, note=80, velocity=51, time=64),
    Message('note_on', channel=5, note=82, velocity=103, time=32),
    Message('note_off', channel=5, note=82, velocity=51, time=64),
    Message('note_on', channel=5, note=87, velocity=103, time=32),
    Message('note_off', channel=5, note=87, velocity=51, time=128),
    Message('note_on', channel=5, note=82, velocity=103, time=64),
    Message('note_off', channel=5, note=82, velocity=51, time=64),
    Message('note_on', channel=5, note=80, velocity=103, time=32),
    Message('note_off', channel=5, note=80, velocity=51, time=64),
    Message('note_on', channel=5, note=82, velocity=103, time=32),
    Message('note_off', channel=5, note=82, velocity=51, time=64),
    Message('note_on', channel=5, note=80, velocity=103, time=32),
    Message('control_change', channel=5, control=64, value=0, time=0),
    Message('control_change', channel=5, control=64, value=78, time=36),
    Message('note_off', channel=5, note=80, velocity=51, time=28),
    Message('note_on', channel=5, note=84, velocity=103, time=32),
    Message('note_off', channel=5, note=84, velocity=51, time=64),
    Message('note_on', channel=5, note=89, velocity=103, time=32),
    Message('note_off', channel=5, note=89, velocity=51, time=64),
    Message('note_on', channel=5, note=80, velocity=103, time=32),
    Message('note_off', channel=5, note=80, velocity=51, time=64),
    Message('note_on', channel=5, note=78, velocity=103, time=32),
    Message('note_off', channel=5, note=78, velocity=51, time=64),
    Message('note_on', channel=5, note=84, velocity=103, time=32),
    Message('note_off', channel=5, note=84, velocity=51, time=64),
    Message('note_on', channel=5, note=87, velocity=103, time=32),
    Message('note_off', channel=5, note=87, velocity=51, time=64),
    Message('note_on', channel=5, note=78, velocity=103, time=32),
    Message('note_off', channel=5, note=78, velocity=51, time=64),
    Message('note_on', channel=5, note=81, velocity=103, time=32),
    Message('note_off', channel=5, note=81, velocity=51, time=64),
    Message('note_on', channel=5, note=85, velocity=103, time=32),
    Message('note_off', channel=5, note=85, velocity=51, time=64),
    Message('note_on', channel=5, note=88, velocity=103, time=32),
    Message('note_off', channel=5, note=88, velocity=51, time=384),
    Message('control_change', channel=5, control=64, value=0, time=384),
    Message('control_change', channel=5, control=64, value=0, time=0),
    Message('control_change', channel=5, control=64, value=127, time=36),
    Message('control_change', channel=5, control=64, value=127, time=0),
    Message('control_change', channel=5, control=1, value=0, time=156),
    Message('control_change', channel=5, control=64, value=0, time=0),
    Message('control_change', channel=5, control=64, value=0, time=31872),
    Message('control_change', channel=5, control=1, value=112, time=36),
    Message('control_change', channel=5, control=64, value=78, time=0),
    Message('note_on', channel=5, note=80, velocity=103, time=444),
    Message('note_off', channel=5, note=80, velocity=51, time=64),
    Message('note_on', channel=5, note=84, velocity=103, time=32),
    Message('note_off', channel=5, note=84, velocity=51, time=64),
    Message('note_on', channel=5, note=89, velocity=103, time=32),
    Message('note_off', channel=5, note=89, velocity=51, time=128),
    Message('note_on', channel=5, note=84, velocity=103, time=64),
    Message('note_off', channel=5, note=84, velocity=51, time=64),
    Message('note_on', channel=5, note=80, velocity=103, time=32),
    Message('note_off', channel=5, note=80, velocity=51, time=64),
    Message('note_on', channel=5, note=84, velocity=103, time=32),
    Message('note_off', channel=5, note=84, velocity=51, time=64),
    Message('note_on', channel=5, note=80, velocity=103, time=128),
    Message('note_off', channel=5, note=80, velocity=51, time=64),
    Message('note_on', channel=5, note=83, velocity=103, time=32),
    Message('note_off', channel=5, note=83, velocity=51, time=64),
    Message('note_on', channel=5, note=87, velocity=103, time=32),
    Message('note_off', channel=5, note=87, velocity=51, time=384),
    Message('control_change', channel=5, control=64, value=0, time=96),
    Message('control_change', channel=5, control=64, value=78, time=36),
    Message('note_on', channel=5, note=78, velocity=103, time=60),
    Message('note_off', channel=5, note=78, velocity=51, time=64),
    Message('note_on', channel=5, note=85, velocity=103, time=32),
    Message('note_off', channel=5, note=85, velocity=51, time=64),
    Message('note_on', channel=5, note=90, velocity=103, time=32),
    Message('note_off', channel=5, note=90, velocity=51, time=128),
    Message('note_on', channel=5, note=85, velocity=103, time=64),
    Message('note_off', channel=5, note=85, velocity=51, time=64),
    Message('note_on', channel=5, note=78, velocity=103, time=32),
    Message('note_off', channel=5, note=78, velocity=51, time=64),
    Message('note_on', channel=5, note=85, velocity=103, time=32),
    Message('note_off', channel=5, note=85, velocity=51, time=128),
    Message('note_on', channel=5, note=79, velocity=103, time=64),
    Message('note_on', channel=5, note=80, velocity=103, time=20),
    Message('note_off', channel=5, note=79, velocity=51, time=12),
    Message('note_off', channel=5, note=80, velocity=51, time=52),
    Message('note_on', channel=5, note=84, velocity=103, time=12),
    Message('note_off', channel=5, note=84, velocity=51, time=64),
    Message('note_on', channel=5, note=89, velocity=103, time=32),
    Message('note_off', channel=5, note=89, velocity=51, time=384),
    Message('control_change', channel=5, control=1, value=0, time=92),
    Message('control_change', channel=5, control=64, value=0, time=0),
    Message('program_change', channel=5, program=29, time=388),
    Message('note_on', channel=5, note=65, velocity=127, time=15744),
    Message('control_change', channel=5, control=1, value=127, time=0),
    Message('note_off', channel=5, note=65, velocity=86, time=96),
    Message('note_on', channel=5, note=65, velocity=127, time=0),
    Message('note_off', channel=5, note=65, velocity=86, time=96),
    Message('note_on', channel=5, note=65, velocity=127, time=0),
    Message('note_off', channel=5, note=65, velocity=86, time=96),
    Message('note_on', channel=5, note=65, velocity=127, time=0),
    Message('note_off', channel=5, note=65, velocity=86, time=96),
    Message('note_on', channel=5, note=65, velocity=127, time=0),
    Message('note_on', channel=5, note=65, velocity=127, time=0),
    Message('note_off', channel=5, note=65, velocity=86, time=96),
    Message('note_off', channel=5, note=65, velocity=86, time=0),
    Message('note_on', channel=5, note=65, velocity=127, time=0),
    Message('note_off', channel=5, note=65, velocity=86, time=96),
    Message('note_on', channel=5, note=65, velocity=127, time=0),
    Message('note_off', channel=5, note=65, velocity=86, time=96),
    Message('note_on', channel=5, note=65, velocity=127, time=0),
    Message('note_off', channel=5, note=65, velocity=86, time=96),
    Message('note_on', channel=5, note=65, velocity=127, time=0),
    Message('note_on', channel=5, note=65, velocity=127, time=0),
    Message('note_off', channel=5, note=65, velocity=86, time=96),
    Message('note_off', channel=5, note=65, velocity=86, time=0),
    Message('note_on', channel=5, note=65, velocity=127, time=0),
    Message('note_off', channel=5, note=65, velocity=86, time=96),
    Message('note_on', channel=5, note=65, velocity=127, time=0),
    Message('note_off', channel=5, note=65, velocity=86, time=96),
    Message('note_on', channel=5, note=65, velocity=127, time=0),
    Message('note_off', channel=5, note=65, velocity=86, time=96),
    Message('note_on', channel=5, note=65, velocity=127, time=0),
    Message('note_on', channel=5, note=65, velocity=127, time=0),
    Message('note_off', channel=5, note=65, velocity=86, time=96),
    Message('note_off', channel=5, note=65, velocity=86, time=0),
    Message('note_on', channel=5, note=65, velocity=127, time=0),
    Message('note_off', channel=5, note=65, velocity=86, time=96),
    Message('note_on', channel=5, note=65, velocity=127, time=0),
    Message('note_off', channel=5, note=65, velocity=86, time=96),
    Message('note_on', channel=5, note=65, velocity=127, time=0),
    Message('note_off', channel=5, note=65, velocity=86, time=96),
    Message('note_on', channel=5, note=65, velocity=127, time=0),
    Message('note_on', channel=5, note=65, velocity=127, time=0),
    Message('note_off', channel=5, note=65, velocity=86, time=96),
    Message('note_off', channel=5, note=65, velocity=86, time=0),
    Message('note_on', channel=5, note=65, velocity=127, time=0),
    Message('note_off', channel=5, note=65, velocity=86, time=96),
    Message('note_on', channel=5, note=65, velocity=127, time=0),
    Message('note_off', channel=5, note=65, velocity=86, time=96),
    Message('note_on', channel=5, note=65, velocity=127, time=0),
    Message('note_off', channel=5, note=65, velocity=86, time=96),
    Message('note_on', channel=5, note=65, velocity=127, time=0),
    Message('note_on', channel=5, note=65, velocity=127, time=0),
    Message('note_off', channel=5, note=65, velocity=86, time=96),
    Message('note_off', channel=5, note=65, velocity=86, time=0),
    Message('note_on', channel=5, note=65, velocity=127, time=0),
    Message('note_off', channel=5, note=65, velocity=86, time=96),
    Message('note_on', channel=5, note=65, velocity=127, time=0),
    Message('note_off', channel=5, note=65, velocity=86, time=96),
    Message('note_on', channel=5, note=65, velocity=127, time=0),
    Message('note_off', channel=5, note=65, velocity=86, time=96),
    Message('note_on', channel=5, note=65, velocity=127, time=0),
    Message('control_change', channel=5, control=1, value=127, time=0),
    Message('note_off', channel=5, note=65, velocity=86, time=96),
    Message('note_on', channel=5, note=65, velocity=127, time=0),
    Message('note_off', channel=5, note=65, velocity=86, time=96),
    Message('note_on', channel=5, note=65, velocity=127, time=0),
    Message('note_off', channel=5, note=65, velocity=86, time=96),
    Message('note_on', channel=5, note=65, velocity=127, time=0),
    Message('note_off', channel=5, note=65, velocity=86, time=96),
    Message('note_on', channel=5, note=65, velocity=127, time=0),
    Message('note_on', channel=5, note=65, velocity=127, time=0),
    Message('note_off', channel=5, note=65, velocity=86, time=96),
    Message('note_off', channel=5, note=65, velocity=86, time=0),
    Message('note_on', channel=5, note=65, velocity=127, time=0),
    Message('note_off', channel=5, note=65, velocity=86, time=96),
    Message('note_on', channel=5, note=65, velocity=127, time=0),
    Message('note_off', channel=5, note=65, velocity=86, time=96),
    Message('note_on', channel=5, note=65, velocity=127, time=0),
    Message('note_off', channel=5, note=65, velocity=86, time=96),
    Message('note_on', channel=5, note=65, velocity=127, time=0),
    Message('note_on', channel=5, note=65, velocity=127, time=0),
    Message('note_off', channel=5, note=65, velocity=86, time=96),
    Message('note_off', channel=5, note=65, velocity=86, time=0),
    Message('note_on', channel=5, note=65, velocity=127, time=0),
    Message('note_off', channel=5, note=65, velocity=86, time=96),
    Message('note_on', channel=5, note=65, velocity=127, time=0),
    Message('note_off', channel=5, note=65, velocity=86, time=96),
    Message('note_on', channel=5, note=65, velocity=127, time=0),
    Message('note_off', channel=5, note=65, velocity=86, time=96),
    Message('note_on', channel=5, note=65, velocity=127, time=0),
    Message('note_on', channel=5, note=65, velocity=127, time=0),
    Message('note_off', channel=5, note=65, velocity=86, time=96),
    Message('note_off', channel=5, note=65, velocity=86, time=0),
    Message('note_on', channel=5, note=65, velocity=127, time=0),
    Message('note_off', channel=5, note=65, velocity=86, time=96),
    Message('note_on', channel=5, note=65, velocity=127, time=0),
    Message('note_off', channel=5, note=65, velocity=86, time=96),
    Message('note_on', channel=5, note=65, velocity=127, time=0),
    Message('note_off', channel=5, note=65, velocity=86, time=96),
    Message('note_on', channel=5, note=65, velocity=127, time=0),
    Message('note_on', channel=5, note=65, velocity=127, time=0),
    Message('note_off', channel=5, note=65, velocity=86, time=96),
    Message('note_off', channel=5, note=65, velocity=86, time=0),
    Message('note_on', channel=5, note=65, velocity=127, time=0),
    Message('note_off', channel=5, note=65, velocity=86, time=96),
    Message('note_on', channel=5, note=65, velocity=127, time=0),
    Message('note_off', channel=5, note=65, velocity=86, time=96),
    Message('note_on', channel=5, note=65, velocity=127, time=0),
    Message('note_off', channel=5, note=65, velocity=86, time=96),
    Message('note_on', channel=5, note=65, velocity=127, time=0),
    Message('note_on', channel=5, note=65, velocity=127, time=0),
    Message('note_off', channel=5, note=65, velocity=86, time=96),
    Message('note_off', channel=5, note=65, velocity=86, time=0),
    Message('note_on', channel=5, note=65, velocity=127, time=0),
    Message('note_off', channel=5, note=65, velocity=86, time=96),
    Message('note_on', channel=5, note=65, velocity=127, time=0),
    Message('note_off', channel=5, note=65, velocity=86, time=96),
    Message('note_on', channel=5, note=65, velocity=127, time=0),
    Message('note_off', channel=5, note=65, velocity=86, time=96),
    Message('note_on', channel=5, note=66, velocity=127, time=0),
    Message('control_change', channel=5, control=1, value=100, time=0),
    Message('note_off', channel=5, note=66, velocity=86, time=32),
    Message('note_on', channel=5, note=68, velocity=127, time=0),
    Message('note_off', channel=5, note=68, velocity=86, time=384),
    Message('note_on', channel=5, note=66, velocity=127, time=160),
    Message('note_on', channel=5, note=63, velocity=127, time=24),
    Message('note_off', channel=5, note=66, velocity=86, time=8),
    Message('note_off', channel=5, note=63, velocity=86, time=56),
    Message('note_on', channel=5, note=63, velocity=127, time=8),
    Message('note_off', channel=5, note=63, velocity=86, time=384),
    Message('note_on', channel=5, note=63, velocity=127, time=192),
    Message('note_off', channel=5, note=63, velocity=86, time=128),
    Message('note_on', channel=5, note=70, velocity=127, time=64),
    Message('note_off', channel=5, note=70, velocity=86, time=64),
    Message('note_on', channel=5, note=70, velocity=127, time=32),
    Message('note_off', channel=5, note=70, velocity=86, time=384),
    Message('note_on', channel=5, note=70, velocity=127, time=192),
    Message('note_off', channel=5, note=70, velocity=86, time=128),
    Message('note_on', channel=5, note=73, velocity=127, time=64),
    Message('note_on', channel=5, note=75, velocity=127, time=12),
    Message('note_off', channel=5, note=73, velocity=86, time=20),
    Message('note_off', channel=5, note=75, velocity=86, time=108),
    Message('note_on', channel=5, note=73, velocity=127, time=52),
    Message('note_on', channel=5, note=75, velocity=127, time=12),
    Message('note_off', channel=5, note=73, velocity=86, time=20),
    Message('note_off', channel=5, note=75, velocity=86, time=108),
    Message('note_on', channel=5, note=73, velocity=127, time=52),
    Message('note_on', channel=5, note=75, velocity=127, time=12),
    Message('note_off', channel=5, note=73, velocity=86, time=20),
    Message('note_on', channel=5, note=73, velocity=127, time=736),
    Message('note_off', channel=5, note=75, velocity=86, time=12),
    Message('note_on', channel=5, note=75, velocity=127, time=0),
    Message('note_off', channel=5, note=73, velocity=86, time=20),
    Message('note_off', channel=5, note=75, velocity=86, time=236),
    Message('note_on', channel=5, note=73, velocity=127, time=116),
    Message('note_on', channel=5, note=75, velocity=127, time=12),
    Message('note_off', channel=5, note=73, velocity=86, time=20),
    Message('note_off', channel=5, note=75, velocity=86, time=236),
    Message('note_on', channel=5, note=73, velocity=127, time=116),
    Message('note_on', channel=5, note=75, velocity=127, time=12),
    Message('note_off', channel=5, note=73, velocity=86, time=20),
    Message('note_off', channel=5, note=75, velocity=71, time=620),
    Message('note_on', channel=5, note=73, velocity=127, time=116),
    Message('note_on', channel=5, note=75, velocity=127, time=16),
    Message('note_off', channel=5, note=73, velocity=86, time=48),
    Message('note_off', channel=5, note=75, velocity=86, time=80),
    Message('note_on', channel=5, note=73, velocity=127, time=48),
    Message('note_on', channel=5, note=75, velocity=127, time=20),
    Message('note_off', channel=5, note=73, velocity=86, time=44),
    Message('note_off', channel=5, note=75, velocity=86, time=84),
    Message('note_on', channel=5, note=73, velocity=127, time=44),
    Message('note_on', channel=5, note=75, velocity=127, time=20),
    Message('note_off', channel=5, note=73, velocity=86, time=44),
    Message('note_off', channel=5, note=75, velocity=86, time=212),
    Message('note_on', channel=5, note=73, velocity=127, time=108),
    Message('note_on', channel=5, note=75, velocity=127, time=20),
    Message('note_off', channel=5, note=73, velocity=86, time=44),
    Message('note_off', channel=5, note=75, velocity=86, time=468),
    Message('note_on', channel=5, note=73, velocity=127, time=236),
    Message('note_on', channel=5, note=75, velocity=127, time=20),
    Message('note_off', channel=5, note=73, velocity=86, time=44),
    Message('note_off', channel=5, note=75, velocity=86, time=84),
    Message('note_on', channel=5, note=73, velocity=127, time=44),
    Message('note_on', channel=5, note=75, velocity=127, time=20),
    Message('note_off', channel=5, note=73, velocity=86, time=44),
    Message('note_off', channel=5, note=75, velocity=86, time=84),
    Message('note_on', channel=5, note=73, velocity=127, time=44),
    Message('note_on', channel=5, note=75, velocity=127, time=20),
    Message('note_off', channel=5, note=73, velocity=86, time=44),
    Message('note_off', channel=5, note=75, velocity=86, time=212),
    Message('note_on', channel=5, note=73, velocity=127, time=108),
    Message('note_on', channel=5, note=75, velocity=127, time=20),
    Message('note_off', channel=5, note=73, velocity=86, time=44),
    Message('note_on', channel=5, note=73, velocity=127, time=320),
    Message('note_off', channel=5, note=73, velocity=86, time=64),
    Message('note_on', channel=5, note=73, velocity=127, time=0),
    Message('note_off', channel=5, note=73, velocity=86, time=64),
    Message('note_on', channel=5, note=73, velocity=127, time=0),
    Message('note_off', channel=5, note=75, velocity=86, time=20),
    Message('note_off', channel=5, note=73, velocity=86, time=44),
    Message('note_on', channel=5, note=73, velocity=127, time=0),
    Message('note_off', channel=5, note=73, velocity=86, time=64),
    Message('note_on', channel=5, note=73, velocity=127, time=0),
    Message('note_off', channel=5, note=73, velocity=86, time=64),
    Message('note_on', channel=5, note=73, velocity=127, time=0),
    Message('note_off', channel=5, note=73, velocity=86, time=64),
    Message('note_on', channel=5, note=73, velocity=127, time=0),
    Message('note_off', channel=5, note=73, velocity=86, time=512),
    Message('note_on', channel=5, note=49, velocity=127, time=640),
    Message('note_off', channel=5, note=49, velocity=84, time=96),
    Message('note_on', channel=5, note=48, velocity=127, time=0),
    Message('note_off', channel=5, note=48, velocity=84, time=192),
    Message('note_on', channel=5, note=46, velocity=127, time=0),
    Message('note_off', channel=5, note=46, velocity=84, time=192),
    Message('note_on', channel=5, note=48, velocity=127, time=0),
    Message('note_on', channel=5, note=49, velocity=127, time=10),
    Message('note_off', channel=5, note=48, velocity=84, time=6),
    Message('note_on', channel=5, note=44, velocity=127, time=80),
    Message('note_off', channel=5, note=49, velocity=84, time=10),
    Message('note_off', channel=5, note=44, velocity=84, time=86),
    Message('note_on', channel=5, note=43, velocity=127, time=0),
    Message('note_off', channel=5, note=43, velocity=84, time=192),
    Message('note_on', channel=5, note=42, velocity=127, time=0),
    Message('note_on', channel=5, note=68, velocity=127, time=288),
    Message('note_on', channel=5, note=63, velocity=127, time=0),
    Message('note_on', channel=5, note=60, velocity=127, time=0),
    Message('note_on', channel=5, note=54, velocity=127, time=0),
    Message('note_on', channel=5, note=49, velocity=127, time=0),
    Message('note_on', channel=5, note=42, velocity=127, time=0),
    Message('note_off', channel=5, note=42, velocity=84, time=96),
    Message('note_on', channel=5, note=68, velocity=127, time=192),
    Message('note_on', channel=5, note=63, velocity=127, time=0),
    Message('note_on', channel=5, note=60, velocity=127, time=0),
    Message('note_on', channel=5, note=54, velocity=127, time=0),
    Message('note_on', channel=5, note=49, velocity=127, time=0),
    Message('note_on', channel=5, note=42, velocity=127, time=0),
    Message('note_off', channel=5, note=68, velocity=84, time=96),
    Message('note_off', channel=5, note=63, velocity=84, time=0),
    Message('note_off', channel=5, note=60, velocity=84, time=0),
    Message('note_off', channel=5, note=54, velocity=84, time=0),
    Message('note_off', channel=5, note=49, velocity=84, time=0),
    Message('note_off', channel=5, note=42, velocity=84, time=0),
    Message('note_off', channel=5, note=68, velocity=84, time=0),
    Message('note_off', channel=5, note=63, velocity=84, time=0),
    Message('note_off', channel=5, note=60, velocity=84, time=0),
    Message('note_off', channel=5, note=54, velocity=84, time=0),
    Message('note_off', channel=5, note=49, velocity=84, time=0),
    Message('note_off', channel=5, note=42, velocity=84, time=0),
    Message('note_on', channel=5, note=68, velocity=127, time=0),
    Message('note_on', channel=5, note=63, velocity=127, time=0),
    Message('note_on', channel=5, note=60, velocity=127, time=0),
    Message('note_on', channel=5, note=54, velocity=127, time=0),
    Message('note_on', channel=5, note=49, velocity=127, time=0),
    Message('note_on', channel=5, note=42, velocity=127, time=0),
    Message('note_off', channel=5, note=68, velocity=84, time=192),
    Message('note_off', channel=5, note=63, velocity=84, time=0),
    Message('note_off', channel=5, note=60, velocity=84, time=0),
    Message('note_off', channel=5, note=54, velocity=84, time=0),
    Message('note_off', channel=5, note=49, velocity=84, time=0),
    Message('note_off', channel=5, note=42, velocity=84, time=0),
    Message('note_on', channel=5, note=42, velocity=127, time=0),
    Message('note_on', channel=5, note=54, velocity=127, time=0),
    Message('note_on', channel=5, note=49, velocity=127, time=0),
    Message('note_off', channel=5, note=42, velocity=84, time=96),
    Message('note_off', channel=5, note=54, velocity=84, time=0),
    Message('note_off', channel=5, note=49, velocity=84, time=0),
    Message('note_on', channel=5, note=44, velocity=127, time=0),
    Message('note_on', channel=5, note=51, velocity=127, time=0),
    Message('note_on', channel=5, note=56, velocity=127, time=0),
    Message('note_off', channel=5, note=44, velocity=84, time=96),
    Message('note_off', channel=5, note=51, velocity=84, time=0),
    Message('note_off', channel=5, note=56, velocity=84, time=0),
    Message('note_on', channel=5, note=56, velocity=127, time=0),
    Message('note_on', channel=5, note=44, velocity=127, time=0),
    Message('note_on', channel=5, note=51, velocity=127, time=0),
    Message('control_change', channel=5, control=1, value=76, time=4),
    Message('control_change', channel=5, control=1, value=0, time=2876),
    Message('note_off', channel=5, note=44, velocity=71, time=56),
    Message('note_off', channel=5, note=51, velocity=71, time=0),
    Message('note_off', channel=5, note=56, velocity=71, time=0),
    MetaMessage('end_of_track', time=0)]),
  MidiTrack([
    MetaMessage('track_name', name='Kim Thayil -Lead Solo', time=0),
    Message('control_change', channel=6, control=0, value=0, time=0),
    Message('program_change', channel=6, program=44, time=0),
    Message('control_change', channel=6, control=10, value=0, time=0),
    MetaMessage('key_signature', key='G', time=0),
    Message('control_change', channel=6, control=1, value=90, time=384),
    Message('note_on', channel=6, note=73, velocity=120, time=576),
    Message('pitchwheel', channel=6, pitch=308, time=12),
    Message('pitchwheel', channel=6, pitch=808, time=4),
    Message('pitchwheel', channel=6, pitch=1308, time=4),
    Message('pitchwheel', channel=6, pitch=1808, time=4),
    Message('pitchwheel', channel=6, pitch=2308, time=4),
    Message('pitchwheel', channel=6, pitch=2808, time=4),
    Message('pitchwheel', channel=6, pitch=3308, time=4),
    Message('pitchwheel', channel=6, pitch=3808, time=4),
    Message('pitchwheel', channel=6, pitch=4308, time=4),
    Message('pitchwheel', channel=6, pitch=4808, time=4),
    Message('pitchwheel', channel=6, pitch=5308, time=4),
    Message('pitchwheel', channel=6, pitch=5808, time=4),
    Message('pitchwheel', channel=6, pitch=6308, time=4),
    Message('pitchwheel', channel=6, pitch=6808, time=4),
    Message('pitchwheel', channel=6, pitch=7308, time=12),
    Message('pitchwheel', channel=6, pitch=7808, time=12),
    Message('pitchwheel', channel=6, pitch=8191, time=8),
    Message('pitchwheel', channel=6, pitch=0, time=476),
    Message('note_on', channel=6, note=75, velocity=120, time=4),
    Message('note_off', channel=6, note=73, velocity=96, time=8),
    Message('pitchwheel', channel=6, pitch=308, time=4),
    Message('pitchwheel', channel=6, pitch=808, time=4),
    Message('pitchwheel', channel=6, pitch=1308, time=4),
    Message('pitchwheel', channel=6, pitch=1808, time=4),
    Message('pitchwheel', channel=6, pitch=2308, time=4),
    Message('pitchwheel', channel=6, pitch=2808, time=4),
    Message('pitchwheel', channel=6, pitch=3308, time=4),
    Message('pitchwheel', channel=6, pitch=3808, time=4),
    Message('pitchwheel', channel=6, pitch=4308, time=4),
    Message('pitchwheel', channel=6, pitch=4808, time=4),
    Message('pitchwheel', channel=6, pitch=5308, time=4),
    Message('pitchwheel', channel=6, pitch=5808, time=4),
    Message('pitchwheel', channel=6, pitch=6308, time=4),
    Message('pitchwheel', channel=6, pitch=6808, time=4),
    Message('pitchwheel', channel=6, pitch=7308, time=12),
    Message('pitchwheel', channel=6, pitch=7808, time=12),
    Message('pitchwheel', channel=6, pitch=8191, time=8),
    Message('pitchwheel', channel=6, pitch=7808, time=12),
    Message('pitchwheel', channel=6, pitch=7308, time=4),
    Message('pitchwheel', channel=6, pitch=6808, time=4),
    Message('pitchwheel', channel=6, pitch=6308, time=4),
    Message('pitchwheel', channel=6, pitch=5808, time=4),
    Message('pitchwheel', channel=6, pitch=5308, time=4),
    Message('pitchwheel', channel=6, pitch=4808, time=4),
    Message('pitchwheel', channel=6, pitch=4308, time=4),
    Message('pitchwheel', channel=6, pitch=3808, time=4),
    Message('pitchwheel', channel=6, pitch=3308, time=4),
    Message('pitchwheel', channel=6, pitch=2808, time=4),
    Message('pitchwheel', channel=6, pitch=2308, time=4),
    Message('pitchwheel', channel=6, pitch=1808, time=4),
    Message('pitchwheel', channel=6, pitch=1308, time=4),
    Message('pitchwheel', channel=6, pitch=808, time=4),
    Message('pitchwheel', channel=6, pitch=308, time=4),
    Message('pitchwheel', channel=6, pitch=0, time=4),
    Message('pitchwheel', channel=6, pitch=-692, time=4),
    Message('pitchwheel', channel=6, pitch=-1192, time=4),
    Message('pitchwheel', channel=6, pitch=-1692, time=4),
    Message('note_off', channel=6, note=75, velocity=96, time=200),
    Message('note_on', channel=6, note=71, velocity=120, time=0),
    Message('pitchwheel', channel=6, pitch=-192, time=76),
    Message('pitchwheel', channel=6, pitch=-692, time=40),
    Message('pitchwheel', channel=6, pitch=-1192, time=40),
    Message('pitchwheel', channel=6, pitch=-1692, time=80),
    Message('pitchwheel', channel=6, pitch=0, time=144),
    Message('note_off', channel=6, note=71, velocity=96, time=4),
    Message('note_on', channel=6, note=68, velocity=120, time=0),
    Message('pitchwheel', channel=6, pitch=308, time=384),
    Message('pitchwheel', channel=6, pitch=808, time=36),
    Message('pitchwheel', channel=6, pitch=1308, time=40),
    Message('pitchwheel', channel=6, pitch=1808, time=40),
    Message('pitchwheel', channel=6, pitch=2308, time=40),
    Message('pitchwheel', channel=6, pitch=2808, time=40),
    Message('pitchwheel', channel=6, pitch=3308, time=40),
    Message('pitchwheel', channel=6, pitch=3808, time=40),
    Message('pitchwheel', channel=6, pitch=4308, time=40),
    Message('pitchwheel', channel=6, pitch=4808, time=40),
    Message('pitchwheel', channel=6, pitch=5308, time=28),
    Message('pitchwheel', channel=6, pitch=5808, time=36),
    Message('pitchwheel', channel=6, pitch=6308, time=40),
    Message('pitchwheel', channel=6, pitch=6808, time=40),
    Message('pitchwheel', channel=6, pitch=7308, time=40),
    Message('pitchwheel', channel=6, pitch=7808, time=40),
    Message('pitchwheel', channel=6, pitch=8171, time=40),
    Message('pitchwheel', channel=6, pitch=0, time=144),
    Message('note_off', channel=6, note=68, velocity=96, time=4),
    Message('note_on', channel=6, note=71, velocity=120, time=0),
    Message('pitchwheel', channel=6, pitch=308, time=0),
    Message('pitchwheel', channel=6, pitch=808, time=36),
    Message('pitchwheel', channel=6, pitch=1308, time=40),
    Message('pitchwheel', channel=6, pitch=1808, time=40),
    Message('pitchwheel', channel=6, pitch=2308, time=40),
    Message('pitchwheel', channel=6, pitch=2808, time=40),
    Message('pitchwheel', channel=6, pitch=3308, time=40),
    Message('pitchwheel', channel=6, pitch=3808, time=40),
    Message('pitchwheel', channel=6, pitch=4308, time=40),
    Message('pitchwheel', channel=6, pitch=4808, time=40),
    Message('pitchwheel', channel=6, pitch=5308, time=28),
    Message('pitchwheel', channel=6, pitch=5808, time=36),
    Message('pitchwheel', channel=6, pitch=6308, time=40),
    Message('pitchwheel', channel=6, pitch=6808, time=40),
    Message('pitchwheel', channel=6, pitch=7308, time=40),
    Message('pitchwheel', channel=6, pitch=7808, time=40),
    Message('pitchwheel', channel=6, pitch=8171, time=40),
    Message('pitchwheel', channel=6, pitch=0, time=144),
    Message('note_off', channel=6, note=71, velocity=96, time=4),
    Message('note_on', channel=6, note=75, velocity=120, time=0),
    Message('note_off', channel=6, note=75, velocity=96, time=1536),
    Message('program_change', channel=6, program=29, time=0),
    Message('control_change', channel=6, control=1, value=0, time=12288),
    Message('program_change', channel=6, program=29, time=38400),
    Message('note_on', channel=6, note=63, velocity=120, time=2304),
    Message('note_off', channel=6, note=63, velocity=125, time=64),
    Message('note_on', channel=6, note=63, velocity=120, time=32),
    Message('note_off', channel=6, note=63, velocity=125, time=128),
    Message('note_on', channel=6, note=63, velocity=120, time=64),
    Message('note_off', channel=6, note=63, velocity=125, time=128),
    Message('note_on', channel=6, note=63, velocity=120, time=64),
    Message('note_off', channel=6, note=63, velocity=125, time=64),
    Message('note_on', channel=6, note=63, velocity=120, time=32),
    Message('note_off', channel=6, note=63, velocity=125, time=192),
    Message('note_on', channel=6, note=63, velocity=120, time=0),
    Message('note_off', channel=6, note=63, velocity=96, time=1146),
    Message('note_on', channel=6, note=82, velocity=120, time=6),
    Message('note_off', channel=6, note=82, velocity=125, time=64),
    Message('note_on', channel=6, note=82, velocity=120, time=32),
    Message('note_off', channel=6, note=82, velocity=125, time=192),
    Message('note_on', channel=6, note=80, velocity=120, time=96),
    Message('note_off', channel=6, note=80, velocity=125, time=64),
    Message('note_on', channel=6, note=80, velocity=120, time=32),
    Message('note_off', channel=6, note=80, velocity=125, time=64),
    Message('note_on', channel=6, note=80, velocity=120, time=32),
    Message('note_off', channel=6, note=80, velocity=125, time=64),
    Message('note_on', channel=6, note=80, velocity=120, time=32),
    Message('note_off', channel=6, note=80, velocity=125, time=64),
    Message('note_on', channel=6, note=68, velocity=120, time=32),
    Message('note_off', channel=6, note=68, velocity=125, time=64),
    Message('note_on', channel=6, note=70, velocity=120, time=0),
    Message('note_off', channel=6, note=70, velocity=125, time=64),
    Message('note_on', channel=6, note=68, velocity=120, time=0),
    Message('note_off', channel=6, note=68, velocity=125, time=64),
    Message('note_on', channel=6, note=66, velocity=120, time=0),
    Message('note_off', channel=6, note=66, velocity=125, time=32),
    Message('note_on', channel=6, note=68, velocity=120, time=0),
    Message('note_off', channel=6, note=68, velocity=125, time=32),
    Message('note_on', channel=6, note=66, velocity=120, time=0),
    Message('note_off', channel=6, note=66, velocity=125, time=32),
    Message('note_on', channel=6, note=65, velocity=120, time=0),
    Message('note_off', channel=6, note=65, velocity=125, time=32),
    Message('note_on', channel=6, note=66, velocity=120, time=0),
    Message('note_off', channel=6, note=66, velocity=125, time=32),
    Message('note_on', channel=6, note=65, velocity=120, time=0),
    Message('note_off', channel=6, note=65, velocity=125, time=32),
    Message('note_on', channel=6, note=63, velocity=120, time=0),
    Message('note_off', channel=6, note=63, velocity=125, time=64),
    Message('note_on', channel=6, note=65, velocity=120, time=0),
    Message('note_off', channel=6, note=65, velocity=125, time=64),
    Message('note_on', channel=6, note=63, velocity=120, time=0),
    Message('note_on', channel=6, note=65, velocity=120, time=64),
    Message('note_on', channel=6, note=63, velocity=120, time=30),
    Message('note_off', channel=6, note=65, velocity=125, time=2),
    Message('note_off', channel=6, note=63, velocity=125, time=32),
    Message('note_off', channel=6, note=63, velocity=125, time=62),
    Message('note_on', channel=6, note=77, velocity=120, time=66),
    Message('note_off', channel=6, note=77, velocity=125, time=16),
    Message('note_on', channel=6, note=80, velocity=120, time=0),
    Message('note_off', channel=6, note=80, velocity=125, time=16),
    Message('note_on', channel=6, note=73, velocity=120, time=64),
    Message('note_off', channel=6, note=73, velocity=125, time=32),
    Message('note_on', channel=6, note=75, velocity=120, time=0),
    Message('note_off', channel=6, note=75, velocity=125, time=32),
    Message('note_on', channel=6, note=73, velocity=120, time=0),
    Message('note_off', channel=6, note=73, velocity=125, time=32),
    Message('note_on', channel=6, note=73, velocity=120, time=0),
    Message('note_off', channel=6, note=73, velocity=125, time=60),
    Message('note_on', channel=6, note=73, velocity=120, time=36),
    Message('note_off', channel=6, note=73, velocity=125, time=192),
    Message('note_on', channel=6, note=73, velocity=120, time=96),
    Message('note_off', channel=6, note=73, velocity=125, time=64),
    Message('note_on', channel=6, note=68, velocity=120, time=32),
    Message('note_off', channel=6, note=68, velocity=125, time=16),
    Message('note_on', channel=6, note=70, velocity=120, time=0),
    Message('note_off', channel=6, note=70, velocity=125, time=16),
    Message('note_on', channel=6, note=73, velocity=120, time=0),
    Message('note_off', channel=6, note=73, velocity=125, time=16),
    Message('note_on', channel=6, note=73, velocity=120, time=0),
    Message('note_off', channel=6, note=73, velocity=125, time=16),
    Message('note_on', channel=6, note=73, velocity=120, time=0),
    Message('note_off', channel=6, note=73, velocity=125, time=16),
    Message('note_on', channel=6, note=70, velocity=120, time=0),
    Message('note_off', channel=6, note=70, velocity=125, time=16),
    Message('note_on', channel=6, note=68, velocity=120, time=0),
    Message('note_off', channel=6, note=68, velocity=125, time=16),
    Message('note_on', channel=6, note=65, velocity=120, time=0),
    Message('note_off', channel=6, note=65, velocity=125, time=64),
    Message('note_on', channel=6, note=68, velocity=120, time=0),
    Message('note_off', channel=6, note=68, velocity=125, time=16),
    Message('note_on', channel=6, note=68, velocity=120, time=0),
    Message('note_on', channel=6, note=68, velocity=120, time=16),
    Message('note_off', channel=6, note=68, velocity=125, time=16),
    Message('note_on', channel=6, note=68, velocity=120, time=0),
    Message('note_off', channel=6, note=68, velocity=125, time=16),
    Message('note_off', channel=6, note=68, velocity=125, time=16),
    Message('note_on', channel=6, note=68, velocity=120, time=32),
    Message('note_off', channel=6, note=68, velocity=125, time=64),
    Message('note_on', channel=6, note=68, velocity=120, time=32),
    Message('note_off', channel=6, note=68, velocity=125, time=64),
    Message('note_on', channel=6, note=72, velocity=120, time=32),
    Message('note_off', channel=6, note=72, velocity=125, time=64),
    Message('note_on', channel=6, note=70, velocity=120, time=16),
    Message('note_off', channel=6, note=70, velocity=125, time=16),
    Message('note_on', channel=6, note=70, velocity=120, time=0),
    Message('note_off', channel=6, note=70, velocity=125, time=384),
    Message('note_on', channel=6, note=70, velocity=120, time=96),
    Message('note_off', channel=6, note=70, velocity=125, time=192),
    Message('note_on', channel=6, note=68, velocity=120, time=96),
    Message('note_off', channel=6, note=68, velocity=125, time=64),
    Message('note_on', channel=6, note=70, velocity=120, time=32),
    Message('note_off', channel=6, note=70, velocity=125, time=16),
    Message('note_on', channel=6, note=72, velocity=120, time=0),
    Message('note_off', channel=6, note=72, velocity=125, time=158),
    Message('note_on', channel=6, note=72, velocity=120, time=18),
    Message('note_off', channel=6, note=72, velocity=125, time=128),
    Message('note_on', channel=6, note=72, velocity=120, time=64),
    Message('note_off', channel=6, note=72, velocity=125, time=128),
    Message('note_on', channel=6, note=73, velocity=120, time=64),
    Message('note_off', channel=6, note=73, velocity=125, time=128),
    Message('note_on', channel=6, note=73, velocity=120, time=64),
    Message('note_off', channel=6, note=73, velocity=125, time=128),
    Message('note_on', channel=6, note=73, velocity=120, time=64),
    Message('note_off', channel=6, note=73, velocity=125, time=64),
    Message('note_on', channel=6, note=70, velocity=120, time=32),
    Message('note_off', channel=6, note=70, velocity=125, time=16),
    Message('note_on', channel=6, note=70, velocity=120, time=0),
    Message('note_off', channel=6, note=70, velocity=125, time=16),
    Message('note_on', channel=6, note=73, velocity=120, time=0),
    Message('note_off', channel=6, note=73, velocity=125, time=36),
    Message('note_on', channel=6, note=68, velocity=120, time=28),
    Message('note_off', channel=6, note=68, velocity=125, time=16),
    Message('note_on', channel=6, note=70, velocity=120, time=0),
    Message('note_off', channel=6, note=70, velocity=125, time=32),
    Message('note_on', channel=6, note=68, velocity=120, time=48),
    Message('note_off', channel=6, note=68, velocity=125, time=64),
    Message('note_on', channel=6, note=70, velocity=120, time=32),
    Message('note_off', channel=6, note=70, velocity=125, time=16),
    Message('note_on', channel=6, note=73, velocity=120, time=0),
    Message('note_off', channel=6, note=73, velocity=125, time=16),
    Message('note_on', channel=6, note=70, velocity=120, time=0),
    Message('note_off', channel=6, note=70, velocity=125, time=32),
    Message('note_on', channel=6, note=68, velocity=120, time=32),
    Message('note_off', channel=6, note=68, velocity=125, time=16),
    Message('note_on', channel=6, note=63, velocity=120, time=2),
    Message('note_off', channel=6, note=63, velocity=125, time=16),
    Message('note_on', channel=6, note=63, velocity=120, time=0),
    Message('note_off', channel=6, note=63, velocity=125, time=16),
    Message('note_on', channel=6, note=68, velocity=120, time=0),
    Message('note_on', channel=6, note=63, velocity=120, time=0),
    Message('note_off', channel=6, note=68, velocity=125, time=100),
    Message('note_off', channel=6, note=63, velocity=125, time=0),
    Message('note_on', channel=6, note=61, velocity=120, time=42),
    Message('note_off', channel=6, note=61, velocity=125, time=16),
    Message('note_on', channel=6, note=63, velocity=120, time=4),
    Message('note_off', channel=6, note=63, velocity=125, time=16),
    Message('note_on', channel=6, note=61, velocity=120, time=0),
    Message('note_off', channel=6, note=61, velocity=125, time=32),
    Message('note_on', channel=6, note=63, velocity=120, time=28),
    Message('note_off', channel=6, note=63, velocity=125, time=32),
    Message('note_on', channel=6, note=61, velocity=120, time=0),
    Message('note_on', channel=6, note=63, velocity=120, time=36),
    Message('note_off', channel=6, note=61, velocity=125, time=28),
    Message('note_off', channel=6, note=63, velocity=125, time=42),
    Message('note_on', channel=6, note=63, velocity=120, time=54),
    Message('note_off', channel=6, note=63, velocity=125, time=128),
    Message('note_on', channel=6, note=63, velocity=120, time=64),
    Message('note_off', channel=6, note=63, velocity=125, time=64),
    Message('note_on', channel=6, note=68, velocity=120, time=128),
    Message('note_off', channel=6, note=68, velocity=125, time=64),
    Message('note_on', channel=6, note=70, velocity=120, time=32),
    Message('note_off', channel=6, note=70, velocity=125, time=64),
    Message('note_on', channel=6, note=73, velocity=120, time=32),
    Message('note_off', channel=6, note=73, velocity=125, time=16),
    Message('note_on', channel=6, note=70, velocity=120, time=0),
    Message('note_off', channel=6, note=70, velocity=125, time=64),
    Message('note_on', channel=6, note=75, velocity=120, time=16),
    Message('note_off', channel=6, note=75, velocity=125, time=64),
    Message('note_on', channel=6, note=77, velocity=120, time=32),
    Message('note_off', channel=6, note=77, velocity=125, time=64),
    Message('note_on', channel=6, note=77, velocity=120, time=0),
    Message('note_off', channel=6, note=77, velocity=125, time=32),
    Message('note_on', channel=6, note=75, velocity=120, time=96),
    Message('note_off', channel=6, note=75, velocity=125, time=64),
    Message('note_on', channel=6, note=73, velocity=120, time=32),
    Message('note_off', channel=6, note=73, velocity=125, time=32),
    Message('note_on', channel=6, note=73, velocity=120, time=22),
    Message('note_off', channel=6, note=73, velocity=125, time=32),
    Message('note_on', channel=6, note=77, velocity=120, time=10),
    Message('note_off', channel=6, note=77, velocity=125, time=64),
    Message('note_on', channel=6, note=75, velocity=120, time=32),
    Message('note_off', channel=6, note=75, velocity=125, time=16),
    Message('note_on', channel=6, note=77, velocity=120, time=4),
    Message('note_off', channel=6, note=77, velocity=125, time=16),
    Message('note_on', channel=6, note=77, velocity=120, time=0),
    Message('note_off', channel=6, note=77, velocity=125, time=16),
    Message('note_on', channel=6, note=77, velocity=120, time=0),
    Message('note_off', channel=6, note=77, velocity=125, time=32),
    Message('note_on', channel=6, note=75, velocity=120, time=108),
    Message('note_off', channel=6, note=75, velocity=125, time=16),
    Message('note_on', channel=6, note=75, velocity=120, time=0),
    Message('note_off', channel=6, note=75, velocity=125, time=16),
    Message('note_on', channel=6, note=77, velocity=120, time=0),
    Message('note_off', channel=6, note=77, velocity=125, time=32),
    Message('note_on', channel=6, note=77, velocity=120, time=32),
    Message('note_off', channel=6, note=77, velocity=125, time=64),
    Message('note_on', channel=6, note=77, velocity=120, time=32),
    Message('note_off', channel=6, note=77, velocity=125, time=64),
    Message('note_on', channel=6, note=75, velocity=120, time=32),
    Message('note_off', channel=6, note=75, velocity=125, time=32),
    Message('note_on', channel=6, note=75, velocity=120, time=0),
    Message('note_off', channel=6, note=75, velocity=125, time=32),
    Message('note_on', channel=6, note=77, velocity=120, time=0),
    Message('note_off', channel=6, note=77, velocity=125, time=32),
    Message('note_on', channel=6, note=78, velocity=120, time=0),
    Message('note_off', channel=6, note=78, velocity=125, time=32),
    Message('note_on', channel=6, note=77, velocity=120, time=0),
    Message('note_off', channel=6, note=77, velocity=125, time=32),
    Message('note_on', channel=6, note=75, velocity=120, time=0),
    Message('note_off', channel=6, note=75, velocity=125, time=32),
    Message('note_on', channel=6, note=75, velocity=120, time=0),
    Message('note_on', channel=6, note=75, velocity=120, time=14),
    Message('note_off', channel=6, note=75, velocity=125, time=2),
    Message('note_off', channel=6, note=75, velocity=125, time=14),
    Message('note_on', channel=6, note=77, velocity=120, time=0),
    Message('note_off', channel=6, note=77, velocity=125, time=16),
    Message('note_on', channel=6, note=78, velocity=120, time=0),
    Message('note_off', channel=6, note=78, velocity=125, time=16),
    Message('note_on', channel=6, note=77, velocity=120, time=0),
    Message('note_off', channel=6, note=77, velocity=125, time=16),
    Message('note_on', channel=6, note=75, velocity=120, time=0),
    Message('note_off', channel=6, note=75, velocity=125, time=16),
    Message('note_on', channel=6, note=75, velocity=120, time=0),
    Message('note_off', channel=6, note=75, velocity=125, time=16),
    Message('note_on', channel=6, note=75, velocity=120, time=0),
    Message('note_off', channel=6, note=75, velocity=125, time=16),
    Message('note_on', channel=6, note=77, velocity=120, time=0),
    Message('note_on', channel=6, note=80, velocity=120, time=12),
    Message('note_off', channel=6, note=77, velocity=125, time=4),
    Message('note_off', channel=6, note=80, velocity=125, time=12),
    Message('note_on', channel=6, note=78, velocity=120, time=0),
    Message('note_off', channel=6, note=78, velocity=125, time=16),
    Message('note_on', channel=6, note=77, velocity=120, time=0),
    Message('note_off', channel=6, note=77, velocity=125, time=16),
    Message('note_on', channel=6, note=77, velocity=120, time=6),
    Message('note_on', channel=6, note=77, velocity=120, time=30),
    Message('note_off', channel=6, note=77, velocity=125, time=2),
    Message('note_off', channel=6, note=77, velocity=125, time=30),
    Message('note_on', channel=6, note=75, velocity=120, time=0),
    Message('note_off', channel=6, note=75, velocity=125, time=32),
    Message('note_on', channel=6, note=78, velocity=120, time=0),
    Message('note_off', channel=6, note=78, velocity=125, time=32),
    Message('note_on', channel=6, note=77, velocity=120, time=0),
    Message('note_off', channel=6, note=77, velocity=125, time=32),
    Message('note_on', channel=6, note=77, velocity=120, time=0),
    Message('note_off', channel=6, note=77, velocity=125, time=32),
    Message('note_on', channel=6, note=73, velocity=120, time=2),
    Message('note_on', channel=6, note=75, velocity=120, time=30),
    Message('note_off', channel=6, note=73, velocity=125, time=2),
    Message('note_off', channel=6, note=75, velocity=125, time=30),
    Message('note_on', channel=6, note=73, velocity=120, time=0),
    Message('note_off', channel=6, note=73, velocity=125, time=64),
    Message('note_on', channel=6, note=72, velocity=120, time=66),
    Message('note_off', channel=6, note=72, velocity=125, time=64),
    Message('note_on', channel=6, note=73, velocity=120, time=32),
    Message('note_off', channel=6, note=73, velocity=125, time=64),
    Message('note_on', channel=6, note=72, velocity=120, time=32),
    Message('note_off', channel=6, note=72, velocity=125, time=64),
    Message('note_on', channel=6, note=70, velocity=120, time=32),
    Message('note_off', channel=6, note=70, velocity=125, time=64),
    Message('note_on', channel=6, note=72, velocity=120, time=32),
    Message('note_off', channel=6, note=72, velocity=125, time=64),
    Message('note_on', channel=6, note=70, velocity=127, time=32),
    Message('note_off', channel=6, note=70, velocity=125, time=64),
    Message('note_on', channel=6, note=68, velocity=127, time=32),
    Message('note_on', channel=6, note=68, velocity=127, time=20),
    Message('note_on', channel=6, note=70, velocity=127, time=0),
    Message('note_off', channel=6, note=68, velocity=125, time=12),
    Message('note_off', channel=6, note=68, velocity=125, time=20),
    Message('note_off', channel=6, note=70, velocity=125, time=0),
    Message('note_on', channel=6, note=68, velocity=127, time=8),
    Message('pitchwheel', channel=6, pitch=-1192, time=264),
    Message('note_off', channel=6, note=68, velocity=125, time=888),
    Message('program_change', channel=6, program=29, time=17028),
    Message('note_on', channel=6, note=65, velocity=127, time=2304),
    Message('control_change', channel=6, control=1, value=127, time=0),
    Message('note_off', channel=6, note=65, velocity=96, time=96),
    Message('note_on', channel=6, note=65, velocity=127, time=0),
    Message('note_off', channel=6, note=65, velocity=96, time=96),
    Message('note_on', channel=6, note=65, velocity=127, time=0),
    Message('note_off', channel=6, note=65, velocity=96, time=96),
    Message('note_on', channel=6, note=65, velocity=127, time=0),
    Message('note_off', channel=6, note=65, velocity=96, time=96),
    Message('note_on', channel=6, note=65, velocity=127, time=0),
    Message('note_on', channel=6, note=65, velocity=127, time=0),
    Message('note_off', channel=6, note=65, velocity=96, time=96),
    Message('note_off', channel=6, note=65, velocity=96, time=0),
    Message('note_on', channel=6, note=65, velocity=127, time=0),
    Message('note_off', channel=6, note=65, velocity=96, time=96),
    Message('note_on', channel=6, note=65, velocity=127, time=0),
    Message('note_off', channel=6, note=65, velocity=96, time=96),
    Message('note_on', channel=6, note=65, velocity=127, time=0),
    Message('note_off', channel=6, note=65, velocity=96, time=96),
    Message('note_on', channel=6, note=65, velocity=127, time=0),
    Message('note_on', channel=6, note=65, velocity=127, time=0),
    Message('note_off', channel=6, note=65, velocity=96, time=96),
    Message('note_off', channel=6, note=65, velocity=96, time=0),
    Message('note_on', channel=6, note=65, velocity=127, time=0),
    Message('note_off', channel=6, note=65, velocity=96, time=96),
    Message('note_on', channel=6, note=65, velocity=127, time=0),
    Message('note_off', channel=6, note=65, velocity=96, time=96),
    Message('note_on', channel=6, note=65, velocity=127, time=0),
    Message('note_off', channel=6, note=65, velocity=96, time=96),
    Message('note_on', channel=6, note=65, velocity=127, time=0),
    Message('note_on', channel=6, note=65, velocity=127, time=0),
    Message('note_off', channel=6, note=65, velocity=96, time=96),
    Message('note_off', channel=6, note=65, velocity=96, time=0),
    Message('note_on', channel=6, note=65, velocity=127, time=0),
    Message('note_off', channel=6, note=65, velocity=96, time=96),
    Message('note_on', channel=6, note=65, velocity=127, time=0),
    Message('note_off', channel=6, note=65, velocity=96, time=96),
    Message('note_on', channel=6, note=65, velocity=127, time=0),
    Message('note_off', channel=6, note=65, velocity=96, time=96),
    Message('note_on', channel=6, note=65, velocity=127, time=0),
    Message('note_on', channel=6, note=65, velocity=127, time=0),
    Message('note_off', channel=6, note=65, velocity=96, time=96),
    Message('note_off', channel=6, note=65, velocity=96, time=0),
    Message('note_on', channel=6, note=65, velocity=127, time=0),
    Message('note_off', channel=6, note=65, velocity=96, time=96),
    Message('note_on', channel=6, note=65, velocity=127, time=0),
    Message('note_off', channel=6, note=65, velocity=96, time=96),
    Message('note_on', channel=6, note=65, velocity=127, time=0),
    Message('note_off', channel=6, note=65, velocity=96, time=96),
    Message('note_on', channel=6, note=65, velocity=127, time=0),
    Message('note_on', channel=6, note=65, velocity=127, time=0),
    Message('note_off', channel=6, note=65, velocity=96, time=96),
    Message('note_off', channel=6, note=65, velocity=96, time=0),
    Message('note_on', channel=6, note=65, velocity=127, time=0),
    Message('note_off', channel=6, note=65, velocity=96, time=96),
    Message('note_on', channel=6, note=65, velocity=127, time=0),
    Message('note_off', channel=6, note=65, velocity=96, time=96),
    Message('note_on', channel=6, note=65, velocity=127, time=0),
    Message('note_off', channel=6, note=65, velocity=96, time=96),
    Message('note_on', channel=6, note=65, velocity=127, time=0),
    Message('control_change', channel=6, control=1, value=127, time=0),
    Message('note_off', channel=6, note=65, velocity=96, time=96),
    Message('note_on', channel=6, note=65, velocity=127, time=0),
    Message('note_off', channel=6, note=65, velocity=96, time=96),
    Message('note_on', channel=6, note=65, velocity=127, time=0),
    Message('note_off', channel=6, note=65, velocity=96, time=96),
    Message('note_on', channel=6, note=65, velocity=127, time=0),
    Message('note_off', channel=6, note=65, velocity=96, time=96),
    Message('note_on', channel=6, note=65, velocity=127, time=0),
    Message('note_on', channel=6, note=65, velocity=127, time=0),
    Message('note_off', channel=6, note=65, velocity=96, time=96),
    Message('note_off', channel=6, note=65, velocity=96, time=0),
    Message('note_on', channel=6, note=65, velocity=127, time=0),
    Message('note_off', channel=6, note=65, velocity=96, time=96),
    Message('note_on', channel=6, note=65, velocity=127, time=0),
    Message('note_off', channel=6, note=65, velocity=96, time=96),
    Message('note_on', channel=6, note=65, velocity=127, time=0),
    Message('note_off', channel=6, note=65, velocity=96, time=96),
    Message('note_on', channel=6, note=65, velocity=127, time=0),
    Message('note_on', channel=6, note=65, velocity=127, time=0),
    Message('note_off', channel=6, note=65, velocity=96, time=96),
    Message('note_off', channel=6, note=65, velocity=96, time=0),
    Message('note_on', channel=6, note=65, velocity=127, time=0),
    Message('note_off', channel=6, note=65, velocity=96, time=96),
    Message('note_on', channel=6, note=65, velocity=127, time=0),
    Message('note_off', channel=6, note=65, velocity=96, time=96),
    Message('note_on', channel=6, note=65, velocity=127, time=0),
    Message('note_off', channel=6, note=65, velocity=96, time=96),
    Message('note_on', channel=6, note=65, velocity=127, time=0),
    Message('note_on', channel=6, note=65, velocity=127, time=0),
    Message('note_off', channel=6, note=65, velocity=96, time=96),
    Message('note_off', channel=6, note=65, velocity=96, time=0),
    Message('note_on', channel=6, note=65, velocity=127, time=0),
    Message('note_off', channel=6, note=65, velocity=96, time=96),
    Message('note_on', channel=6, note=65, velocity=127, time=0),
    Message('note_off', channel=6, note=65, velocity=96, time=96),
    Message('note_on', channel=6, note=65, velocity=127, time=0),
    Message('note_off', channel=6, note=65, velocity=96, time=96),
    Message('note_on', channel=6, note=65, velocity=127, time=0),
    Message('note_on', channel=6, note=65, velocity=127, time=0),
    Message('note_off', channel=6, note=65, velocity=96, time=96),
    Message('note_off', channel=6, note=65, velocity=96, time=0),
    Message('note_on', channel=6, note=65, velocity=127, time=0),
    Message('note_off', channel=6, note=65, velocity=96, time=96),
    Message('note_on', channel=6, note=65, velocity=127, time=0),
    Message('note_off', channel=6, note=65, velocity=96, time=96),
    Message('note_on', channel=6, note=65, velocity=127, time=0),
    Message('note_off', channel=6, note=65, velocity=96, time=96),
    Message('note_on', channel=6, note=65, velocity=127, time=0),
    Message('note_on', channel=6, note=65, velocity=127, time=0),
    Message('note_off', channel=6, note=65, velocity=96, time=96),
    Message('note_off', channel=6, note=65, velocity=96, time=0),
    Message('note_on', channel=6, note=65, velocity=127, time=0),
    Message('note_off', channel=6, note=65, velocity=96, time=96),
    Message('note_on', channel=6, note=65, velocity=127, time=0),
    Message('note_off', channel=6, note=65, velocity=96, time=96),
    Message('note_on', channel=6, note=65, velocity=127, time=0),
    Message('note_off', channel=6, note=65, velocity=96, time=96),
    Message('note_on', channel=6, note=66, velocity=127, time=0),
    Message('control_change', channel=6, control=1, value=100, time=0),
    Message('note_off', channel=6, note=66, velocity=96, time=32),
    Message('note_on', channel=6, note=68, velocity=127, time=0),
    Message('note_off', channel=6, note=68, velocity=96, time=384),
    Message('note_on', channel=6, note=66, velocity=127, time=160),
    Message('note_on', channel=6, note=63, velocity=127, time=24),
    Message('note_off', channel=6, note=66, velocity=96, time=8),
    Message('note_off', channel=6, note=63, velocity=96, time=56),
    Message('note_on', channel=6, note=63, velocity=127, time=8),
    Message('note_off', channel=6, note=63, velocity=96, time=384),
    Message('note_on', channel=6, note=63, velocity=127, time=192),
    Message('note_off', channel=6, note=63, velocity=96, time=128),
    Message('note_on', channel=6, note=70, velocity=127, time=64),
    Message('note_off', channel=6, note=70, velocity=96, time=64),
    Message('note_on', channel=6, note=70, velocity=127, time=32),
    Message('note_off', channel=6, note=70, velocity=96, time=384),
    Message('note_on', channel=6, note=70, velocity=127, time=192),
    Message('note_off', channel=6, note=70, velocity=96, time=128),
    Message('note_on', channel=6, note=73, velocity=127, time=64),
    Message('note_on', channel=6, note=75, velocity=127, time=12),
    Message('note_off', channel=6, note=73, velocity=96, time=20),
    Message('note_off', channel=6, note=75, velocity=96, time=108),
    Message('note_on', channel=6, note=73, velocity=127, time=52),
    Message('note_on', channel=6, note=75, velocity=127, time=12),
    Message('note_off', channel=6, note=73, velocity=96, time=20),
    Message('note_off', channel=6, note=75, velocity=96, time=108),
    Message('note_on', channel=6, note=73, velocity=127, time=52),
    Message('note_on', channel=6, note=75, velocity=127, time=12),
    Message('note_off', channel=6, note=73, velocity=96, time=20),
    Message('note_on', channel=6, note=73, velocity=127, time=736),
    Message('note_off', channel=6, note=75, velocity=96, time=12),
    Message('note_on', channel=6, note=75, velocity=127, time=0),
    Message('note_off', channel=6, note=73, velocity=96, time=20),
    Message('note_off', channel=6, note=75, velocity=96, time=236),
    Message('note_on', channel=6, note=73, velocity=127, time=116),
    Message('note_on', channel=6, note=75, velocity=127, time=12),
    Message('note_off', channel=6, note=73, velocity=96, time=20),
    Message('note_off', channel=6, note=75, velocity=96, time=236),
    Message('note_on', channel=6, note=73, velocity=127, time=116),
    Message('note_on', channel=6, note=75, velocity=127, time=12),
    Message('note_off', channel=6, note=73, velocity=96, time=20),
    Message('note_off', channel=6, note=75, velocity=96, time=620),
    Message('note_on', channel=6, note=73, velocity=127, time=116),
    Message('note_on', channel=6, note=75, velocity=127, time=16),
    Message('note_off', channel=6, note=73, velocity=96, time=48),
    Message('note_off', channel=6, note=75, velocity=96, time=80),
    Message('note_on', channel=6, note=73, velocity=127, time=48),
    Message('note_on', channel=6, note=75, velocity=127, time=20),
    Message('note_off', channel=6, note=73, velocity=96, time=44),
    Message('note_off', channel=6, note=75, velocity=96, time=84),
    Message('note_on', channel=6, note=73, velocity=127, time=44),
    Message('note_on', channel=6, note=75, velocity=127, time=20),
    Message('note_off', channel=6, note=73, velocity=96, time=44),
    Message('note_off', channel=6, note=75, velocity=96, time=212),
    Message('note_on', channel=6, note=73, velocity=127, time=108),
    Message('note_on', channel=6, note=75, velocity=127, time=20),
    Message('note_off', channel=6, note=73, velocity=96, time=44),
    Message('note_off', channel=6, note=75, velocity=96, time=468),
    Message('note_on', channel=6, note=73, velocity=127, time=236),
    Message('note_on', channel=6, note=75, velocity=127, time=20),
    Message('note_off', channel=6, note=73, velocity=96, time=44),
    Message('note_off', channel=6, note=75, velocity=96, time=84),
    Message('note_on', channel=6, note=73, velocity=127, time=44),
    Message('note_on', channel=6, note=75, velocity=127, time=20),
    Message('note_off', channel=6, note=73, velocity=96, time=44),
    Message('note_off', channel=6, note=75, velocity=96, time=84),
    Message('note_on', channel=6, note=73, velocity=127, time=44),
    Message('note_on', channel=6, note=75, velocity=127, time=20),
    Message('note_off', channel=6, note=73, velocity=96, time=44),
    Message('note_off', channel=6, note=75, velocity=96, time=212),
    Message('note_on', channel=6, note=73, velocity=127, time=108),
    Message('note_on', channel=6, note=75, velocity=127, time=20),
    Message('note_off', channel=6, note=73, velocity=96, time=44),
    Message('note_on', channel=6, note=73, velocity=127, time=320),
    Message('note_off', channel=6, note=73, velocity=96, time=64),
    Message('note_on', channel=6, note=73, velocity=127, time=0),
    Message('note_off', channel=6, note=73, velocity=96, time=64),
    Message('note_on', channel=6, note=73, velocity=127, time=0),
    Message('note_off', channel=6, note=75, velocity=96, time=20),
    Message('note_off', channel=6, note=73, velocity=96, time=44),
    Message('note_on', channel=6, note=73, velocity=127, time=0),
    Message('note_off', channel=6, note=73, velocity=96, time=64),
    Message('note_on', channel=6, note=73, velocity=127, time=0),
    Message('note_off', channel=6, note=73, velocity=96, time=64),
    Message('note_on', channel=6, note=73, velocity=127, time=0),
    Message('note_off', channel=6, note=73, velocity=96, time=64),
    Message('note_on', channel=6, note=73, velocity=127, time=0),
    Message('note_off', channel=6, note=73, velocity=96, time=512),
    Message('control_change', channel=6, control=1, value=0, time=5440),
    MetaMessage('end_of_track', time=0)]),
  MidiTrack([
    MetaMessage('track_name', name='Ben Sheperd -Bass-', time=0),
    Message('control_change', channel=7, control=0, value=0, time=0),
    Message('program_change', channel=7, program=33, time=0),
    MetaMessage('key_signature', key='G', time=0),
    Message('note_on', channel=7, note=32, velocity=113, time=5760),
    Message('pitchwheel', channel=7, pitch=308, time=672),
    Message('pitchwheel', channel=7, pitch=808, time=4),
    Message('pitchwheel', channel=7, pitch=1308, time=4),
    Message('pitchwheel', channel=7, pitch=1808, time=4),
    Message('pitchwheel', channel=7, pitch=2308, time=4),
    Message('pitchwheel', channel=7, pitch=2808, time=4),
    Message('pitchwheel', channel=7, pitch=3308, time=4),
    Message('pitchwheel', channel=7, pitch=3808, time=4),
    Message('pitchwheel', channel=7, pitch=4308, time=4),
    Message('pitchwheel', channel=7, pitch=4808, time=4),
    Message('pitchwheel', channel=7, pitch=5308, time=4),
    Message('pitchwheel', channel=7, pitch=5808, time=4),
    Message('pitchwheel', channel=7, pitch=6308, time=4),
    Message('pitchwheel', channel=7, pitch=6808, time=4),
    Message('pitchwheel', channel=7, pitch=7308, time=4),
    Message('pitchwheel', channel=7, pitch=7808, time=4),
    Message('pitchwheel', channel=7, pitch=8171, time=4),
    Message('pitchwheel', channel=7, pitch=0, time=28),
    Message('note_off', channel=7, note=32, velocity=71, time=4),
    Message('note_on', channel=7, note=35, velocity=113, time=0),
    Message('pitchwheel', channel=7, pitch=-192, time=576),
    Message('pitchwheel', channel=7, pitch=-692, time=4),
    Message('pitchwheel', channel=7, pitch=-1192, time=4),
    Message('pitchwheel', channel=7, pitch=-1692, time=4),
    Message('pitchwheel', channel=7, pitch=-2192, time=4),
    Message('pitchwheel', channel=7, pitch=-2692, time=4),
    Message('pitchwheel', channel=7, pitch=-3192, time=4),
    Message('pitchwheel', channel=7, pitch=-3692, time=4),
    Message('pitchwheel', channel=7, pitch=-4192, time=4),
    Message('pitchwheel', channel=7, pitch=-4692, time=4),
    Message('pitchwheel', channel=7, pitch=-5192, time=4),
    Message('pitchwheel', channel=7, pitch=-5692, time=4),
    Message('pitchwheel', channel=7, pitch=-6192, time=4),
    Message('pitchwheel', channel=7, pitch=-6692, time=4),
    Message('pitchwheel', channel=7, pitch=-7192, time=4),
    Message('pitchwheel', channel=7, pitch=-7692, time=4),
    Message('pitchwheel', channel=7, pitch=-8192, time=4),
    Message('pitchwheel', channel=7, pitch=0, time=124),
    Message('note_off', channel=7, note=35, velocity=71, time=4),
    Message('note_on', channel=7, note=30, velocity=113, time=0),
    Message('note_off', channel=7, note=30, velocity=71, time=768),
    Message('note_on', channel=7, note=29, velocity=113, time=0),
    Message('note_off', channel=7, note=29, velocity=71, time=768),
    Message('note_on', channel=7, note=28, velocity=113, time=0),
    Message('note_off', channel=7, note=28, velocity=71, time=768),
    Message('note_on', channel=7, note=27, velocity=113, time=0),
    Message('note_off', channel=7, note=27, velocity=71, time=768),
    Message('note_on', channel=7, note=32, velocity=113, time=0),
    Message('note_off', channel=7, note=32, velocity=71, time=192),
    Message('note_on', channel=7, note=32, velocity=113, time=96),
    Message('note_off', channel=7, note=32, velocity=71, time=64),
    Message('note_on', channel=7, note=30, velocity=113, time=32),
    Message('note_off', channel=7, note=30, velocity=71, time=192),
    Message('note_on', channel=7, note=30, velocity=113, time=96),
    Message('pitchwheel', channel=7, pitch=308, time=0),
    Message('pitchwheel', channel=7, pitch=808, time=4),
    Message('pitchwheel', channel=7, pitch=1308, time=4),
    Message('pitchwheel', channel=7, pitch=1808, time=4),
    Message('pitchwheel', channel=7, pitch=2308, time=4),
    Message('pitchwheel', channel=7, pitch=2808, time=4),
    Message('pitchwheel', channel=7, pitch=3308, time=4),
    Message('pitchwheel', channel=7, pitch=3808, time=4),
    Message('pitchwheel', channel=7, pitch=4308, time=4),
    Message('pitchwheel', channel=7, pitch=4808, time=4),
    Message('pitchwheel', channel=7, pitch=5308, time=4),
    Message('pitchwheel', channel=7, pitch=5808, time=4),
    Message('pitchwheel', channel=7, pitch=6308, time=4),
    Message('pitchwheel', channel=7, pitch=6808, time=4),
    Message('pitchwheel', channel=7, pitch=7308, time=4),
    Message('pitchwheel', channel=7, pitch=7808, time=4),
    Message('pitchwheel', channel=7, pitch=8171, time=4),
    Message('pitchwheel', channel=7, pitch=0, time=28),
    Message('note_on', channel=7, note=33, velocity=113, time=4),
    Message('note_off', channel=7, note=30, velocity=71, time=32),
    Message('note_off', channel=7, note=33, velocity=71, time=736),
    Message('note_on', channel=7, note=32, velocity=113, time=0),
    Message('pitchwheel', channel=7, pitch=308, time=672),
    Message('pitchwheel', channel=7, pitch=808, time=4),
    Message('pitchwheel', channel=7, pitch=1308, time=4),
    Message('pitchwheel', channel=7, pitch=1808, time=4),
    Message('pitchwheel', channel=7, pitch=2308, time=4),
    Message('pitchwheel', channel=7, pitch=2808, time=4),
    Message('pitchwheel', channel=7, pitch=3308, time=4),
    Message('pitchwheel', channel=7, pitch=3808, time=4),
    Message('pitchwheel', channel=7, pitch=4308, time=4),
    Message('pitchwheel', channel=7, pitch=4808, time=4),
    Message('pitchwheel', channel=7, pitch=5308, time=4),
    Message('pitchwheel', channel=7, pitch=5808, time=4),
    Message('pitchwheel', channel=7, pitch=6308, time=4),
    Message('pitchwheel', channel=7, pitch=6808, time=4),
    Message('pitchwheel', channel=7, pitch=7308, time=4),
    Message('pitchwheel', channel=7, pitch=7808, time=4),
    Message('pitchwheel', channel=7, pitch=8171, time=4),
    Message('pitchwheel', channel=7, pitch=0, time=28),
    Message('note_off', channel=7, note=32, velocity=71, time=4),
    Message('note_on', channel=7, note=35, velocity=113, time=0),
    Message('pitchwheel', channel=7, pitch=-192, time=576),
    Message('pitchwheel', channel=7, pitch=-692, time=4),
    Message('pitchwheel', channel=7, pitch=-1192, time=4),
    Message('pitchwheel', channel=7, pitch=-1692, time=4),
    Message('pitchwheel', channel=7, pitch=-2192, time=4),
    Message('pitchwheel', channel=7, pitch=-2692, time=4),
    Message('pitchwheel', channel=7, pitch=-3192, time=4),
    Message('pitchwheel', channel=7, pitch=-3692, time=4),
    Message('pitchwheel', channel=7, pitch=-4192, time=4),
    Message('pitchwheel', channel=7, pitch=-4692, time=4),
    Message('pitchwheel', channel=7, pitch=-5192, time=4),
    Message('pitchwheel', channel=7, pitch=-5692, time=4),
    Message('pitchwheel', channel=7, pitch=-6192, time=4),
    Message('pitchwheel', channel=7, pitch=-6692, time=4),
    Message('pitchwheel', channel=7, pitch=-7192, time=4),
    Message('pitchwheel', channel=7, pitch=-7692, time=4),
    Message('pitchwheel', channel=7, pitch=-8192, time=4),
    Message('pitchwheel', channel=7, pitch=0, time=124),
    Message('note_off', channel=7, note=35, velocity=71, time=4),
    Message('note_on', channel=7, note=30, velocity=113, time=0),
    Message('note_on', channel=7, note=30, velocity=113, time=672),
    Message('note_off', channel=7, note=30, velocity=71, time=64),
    Message('note_off', channel=7, note=30, velocity=71, time=32),
    Message('note_on', channel=7, note=29, velocity=113, time=0),
    Message('note_off', channel=7, note=29, velocity=71, time=128),
    Message('note_on', channel=7, note=29, velocity=113, time=64),
    Message('note_off', channel=7, note=29, velocity=71, time=384),
    Message('note_on', channel=7, note=29, velocity=113, time=96),
    Message('note_off', channel=7, note=29, velocity=71, time=64),
    Message('note_on', channel=7, note=28, velocity=113, time=32),
    Message('note_on', channel=7, note=28, velocity=113, time=672),
    Message('note_off', channel=7, note=28, velocity=71, time=64),
    Message('pitchwheel', channel=7, pitch=0, time=28),
    Message('note_off', channel=7, note=28, velocity=71, time=4),
    Message('note_on', channel=7, note=27, velocity=113, time=0),
    Message('note_off', channel=7, note=27, velocity=71, time=768),
    Message('note_on', channel=7, note=32, velocity=113, time=0),
    Message('note_off', channel=7, note=32, velocity=71, time=192),
    Message('note_on', channel=7, note=32, velocity=113, time=96),
    Message('note_off', channel=7, note=32, velocity=71, time=64),
    Message('note_on', channel=7, note=30, velocity=113, time=32),
    Message('note_off', channel=7, note=30, velocity=71, time=192),
    Message('note_on', channel=7, note=30, velocity=113, time=96),
    Message('pitchwheel', channel=7, pitch=308, time=0),
    Message('pitchwheel', channel=7, pitch=808, time=4),
    Message('pitchwheel', channel=7, pitch=1308, time=4),
    Message('pitchwheel', channel=7, pitch=1808, time=4),
    Message('pitchwheel', channel=7, pitch=2308, time=4),
    Message('pitchwheel', channel=7, pitch=2808, time=4),
    Message('pitchwheel', channel=7, pitch=3308, time=4),
    Message('pitchwheel', channel=7, pitch=3808, time=4),
    Message('pitchwheel', channel=7, pitch=4308, time=4),
    Message('pitchwheel', channel=7, pitch=4808, time=4),
    Message('pitchwheel', channel=7, pitch=5308, time=4),
    Message('pitchwheel', channel=7, pitch=5808, time=4),
    Message('pitchwheel', channel=7, pitch=6308, time=4),
    Message('pitchwheel', channel=7, pitch=6808, time=4),
    Message('pitchwheel', channel=7, pitch=7308, time=4),
    Message('pitchwheel', channel=7, pitch=7808, time=4),
    Message('pitchwheel', channel=7, pitch=8171, time=4),
    Message('pitchwheel', channel=7, pitch=0, time=28),
    Message('note_on', channel=7, note=33, velocity=113, time=4),
    Message('note_off', channel=7, note=30, velocity=71, time=32),
    Message('note_off', channel=7, note=33, velocity=71, time=1504),
    Message('note_on', channel=7, note=28, velocity=113, time=0),
    Message('note_off', channel=7, note=28, velocity=71, time=512),
    Message('note_on', channel=7, note=28, velocity=113, time=160),
    Message('note_off', channel=7, note=28, velocity=71, time=64),
    Message('note_on', channel=7, note=27, velocity=113, time=32),
    Message('note_off', channel=7, note=27, velocity=71, time=128),
    Message('note_on', channel=7, note=27, velocity=113, time=64),
    Message('note_off', channel=7, note=27, velocity=71, time=384),
    Message('note_on', channel=7, note=32, velocity=113, time=192),
    Message('note_off', channel=7, note=32, velocity=71, time=192),
    Message('note_on', channel=7, note=32, velocity=113, time=96),
    Message('note_off', channel=7, note=32, velocity=71, time=64),
    Message('note_on', channel=7, note=31, velocity=113, time=32),
    Message('note_off', channel=7, note=31, velocity=71, time=192),
    Message('note_on', channel=7, note=31, velocity=113, time=96),
    Message('note_off', channel=7, note=31, velocity=71, time=64),
    Message('note_on', channel=7, note=35, velocity=113, time=32),
    Message('note_off', channel=7, note=35, velocity=71, time=128),
    Message('note_on', channel=7, note=35, velocity=113, time=64),
    Message('note_off', channel=7, note=35, velocity=71, time=384),
    Message('note_on', channel=7, note=27, velocity=113, time=96),
    Message('note_off', channel=7, note=27, velocity=71, time=64),
    Message('note_on', channel=7, note=28, velocity=113, time=32),
    Message('note_off', channel=7, note=28, velocity=71, time=768),
    Message('note_on', channel=7, note=27, velocity=113, time=0),
    Message('note_off', channel=7, note=27, velocity=71, time=768),
    Message('note_on', channel=7, note=37, velocity=113, time=0),
    Message('note_off', channel=7, note=37, velocity=71, time=192),
    Message('note_on', channel=7, note=37, velocity=113, time=96),
    Message('note_off', channel=7, note=37, velocity=71, time=64),
    Message('note_on', channel=7, note=37, velocity=113, time=32),
    Message('note_off', channel=7, note=37, velocity=71, time=128),
    Message('note_on', channel=7, note=37, velocity=113, time=64),
    Message('note_off', channel=7, note=37, velocity=71, time=128),
    Message('note_on', channel=7, note=39, velocity=113, time=64),
    Message('note_off', channel=7, note=39, velocity=71, time=1028),
    Message('note_on', channel=7, note=32, velocity=113, time=508),
    Message('pitchwheel', channel=7, pitch=308, time=672),
    Message('pitchwheel', channel=7, pitch=808, time=4),
    Message('pitchwheel', channel=7, pitch=1308, time=4),
    Message('pitchwheel', channel=7, pitch=1808, time=4),
    Message('pitchwheel', channel=7, pitch=2308, time=4),
    Message('pitchwheel', channel=7, pitch=2808, time=4),
    Message('pitchwheel', channel=7, pitch=3308, time=4),
    Message('pitchwheel', channel=7, pitch=3808, time=4),
    Message('pitchwheel', channel=7, pitch=4308, time=4),
    Message('pitchwheel', channel=7, pitch=4808, time=4),
    Message('pitchwheel', channel=7, pitch=5308, time=4),
    Message('pitchwheel', channel=7, pitch=5808, time=4),
    Message('pitchwheel', channel=7, pitch=6308, time=4),
    Message('pitchwheel', channel=7, pitch=6808, time=4),
    Message('pitchwheel', channel=7, pitch=7308, time=4),
    Message('pitchwheel', channel=7, pitch=7808, time=4),
    Message('pitchwheel', channel=7, pitch=8171, time=4),
    Message('pitchwheel', channel=7, pitch=0, time=28),
    Message('note_off', channel=7, note=32, velocity=71, time=4),
    Message('note_on', channel=7, note=35, velocity=113, time=0),
    Message('pitchwheel', channel=7, pitch=-192, time=576),
    Message('pitchwheel', channel=7, pitch=-692, time=4),
    Message('pitchwheel', channel=7, pitch=-1192, time=4),
    Message('pitchwheel', channel=7, pitch=-1692, time=4),
    Message('pitchwheel', channel=7, pitch=-2192, time=4),
    Message('pitchwheel', channel=7, pitch=-2692, time=4),
    Message('pitchwheel', channel=7, pitch=-3192, time=4),
    Message('pitchwheel', channel=7, pitch=-3692, time=4),
    Message('pitchwheel', channel=7, pitch=-4192, time=4),
    Message('pitchwheel', channel=7, pitch=-4692, time=4),
    Message('pitchwheel', channel=7, pitch=-5192, time=4),
    Message('pitchwheel', channel=7, pitch=-5692, time=4),
    Message('pitchwheel', channel=7, pitch=-6192, time=4),
    Message('pitchwheel', channel=7, pitch=-6692, time=4),
    Message('pitchwheel', channel=7, pitch=-7192, time=4),
    Message('pitchwheel', channel=7, pitch=-7692, time=4),
    Message('pitchwheel', channel=7, pitch=-8192, time=4),
    Message('pitchwheel', channel=7, pitch=0, time=124),
    Message('note_off', channel=7, note=35, velocity=71, time=4),
    Message('note_on', channel=7, note=30, velocity=113, time=0),
    Message('note_off', channel=7, note=30, velocity=71, time=768),
    Message('note_on', channel=7, note=29, velocity=113, time=0),
    Message('note_off', channel=7, note=29, velocity=71, time=768),
    Message('note_on', channel=7, note=28, velocity=113, time=0),
    Message('note_off', channel=7, note=28, velocity=71, time=768),
    Message('note_on', channel=7, note=27, velocity=113, time=0),
    Message('note_off', channel=7, note=27, velocity=71, time=768),
    Message('note_on', channel=7, note=32, velocity=113, time=0),
    Message('note_off', channel=7, note=32, velocity=71, time=192),
    Message('note_on', channel=7, note=32, velocity=113, time=96),
    Message('note_off', channel=7, note=32, velocity=71, time=64),
    Message('note_on', channel=7, note=30, velocity=113, time=32),
    Message('note_off', channel=7, note=30, velocity=71, time=192),
    Message('note_on', channel=7, note=30, velocity=113, time=96),
    Message('pitchwheel', channel=7, pitch=308, time=0),
    Message('pitchwheel', channel=7, pitch=808, time=4),
    Message('pitchwheel', channel=7, pitch=1308, time=4),
    Message('pitchwheel', channel=7, pitch=1808, time=4),
    Message('pitchwheel', channel=7, pitch=2308, time=4),
    Message('pitchwheel', channel=7, pitch=2808, time=4),
    Message('pitchwheel', channel=7, pitch=3308, time=4),
    Message('pitchwheel', channel=7, pitch=3808, time=4),
    Message('pitchwheel', channel=7, pitch=4308, time=4),
    Message('pitchwheel', channel=7, pitch=4808, time=4),
    Message('pitchwheel', channel=7, pitch=5308, time=4),
    Message('pitchwheel', channel=7, pitch=5808, time=4),
    Message('pitchwheel', channel=7, pitch=6308, time=4),
    Message('pitchwheel', channel=7, pitch=6808, time=4),
    Message('pitchwheel', channel=7, pitch=7308, time=4),
    Message('pitchwheel', channel=7, pitch=7808, time=4),
    Message('pitchwheel', channel=7, pitch=8171, time=4),
    Message('pitchwheel', channel=7, pitch=0, time=28),
    Message('note_on', channel=7, note=33, velocity=113, time=4),
    Message('note_off', channel=7, note=30, velocity=71, time=32),
    Message('note_off', channel=7, note=33, velocity=71, time=736),
    Message('note_on', channel=7, note=32, velocity=113, time=0),
    Message('pitchwheel', channel=7, pitch=308, time=672),
    Message('pitchwheel', channel=7, pitch=808, time=4),
    Message('pitchwheel', channel=7, pitch=1308, time=4),
    Message('pitchwheel', channel=7, pitch=1808, time=4),
    Message('pitchwheel', channel=7, pitch=2308, time=4),
    Message('pitchwheel', channel=7, pitch=2808, time=4),
    Message('pitchwheel', channel=7, pitch=3308, time=4),
    Message('pitchwheel', channel=7, pitch=3808, time=4),
    Message('pitchwheel', channel=7, pitch=4308, time=4),
    Message('pitchwheel', channel=7, pitch=4808, time=4),
    Message('pitchwheel', channel=7, pitch=5308, time=4),
    Message('pitchwheel', channel=7, pitch=5808, time=4),
    Message('pitchwheel', channel=7, pitch=6308, time=4),
    Message('pitchwheel', channel=7, pitch=6808, time=4),
    Message('pitchwheel', channel=7, pitch=7308, time=4),
    Message('pitchwheel', channel=7, pitch=7808, time=4),
    Message('pitchwheel', channel=7, pitch=8171, time=4),
    Message('pitchwheel', channel=7, pitch=0, time=28),
    Message('note_off', channel=7, note=32, velocity=71, time=4),
    Message('note_on', channel=7, note=35, velocity=113, time=0),
    Message('pitchwheel', channel=7, pitch=-192, time=576),
    Message('pitchwheel', channel=7, pitch=-692, time=4),
    Message('pitchwheel', channel=7, pitch=-1192, time=4),
    Message('pitchwheel', channel=7, pitch=-1692, time=4),
    Message('pitchwheel', channel=7, pitch=-2192, time=4),
    Message('pitchwheel', channel=7, pitch=-2692, time=4),
    Message('pitchwheel', channel=7, pitch=-3192, time=4),
    Message('pitchwheel', channel=7, pitch=-3692, time=4),
    Message('pitchwheel', channel=7, pitch=-4192, time=4),
    Message('pitchwheel', channel=7, pitch=-4692, time=4),
    Message('pitchwheel', channel=7, pitch=-5192, time=4),
    Message('pitchwheel', channel=7, pitch=-5692, time=4),
    Message('pitchwheel', channel=7, pitch=-6192, time=4),
    Message('pitchwheel', channel=7, pitch=-6692, time=4),
    Message('pitchwheel', channel=7, pitch=-7192, time=4),
    Message('pitchwheel', channel=7, pitch=-7692, time=4),
    Message('pitchwheel', channel=7, pitch=-8192, time=4),
    Message('pitchwheel', channel=7, pitch=0, time=124),
    Message('note_off', channel=7, note=35, velocity=71, time=4),
    Message('note_on', channel=7, note=30, velocity=113, time=0),
    Message('note_on', channel=7, note=30, velocity=113, time=672),
    Message('note_off', channel=7, note=30, velocity=71, time=64),
    Message('note_off', channel=7, note=30, velocity=71, time=32),
    Message('note_on', channel=7, note=29, velocity=113, time=0),
    Message('note_off', channel=7, note=29, velocity=71, time=128),
    Message('note_on', channel=7, note=29, velocity=113, time=64),
    Message('note_off', channel=7, note=29, velocity=71, time=384),
    Message('note_on', channel=7, note=29, velocity=113, time=96),
    Message('note_off', channel=7, note=29, velocity=71, time=64),
    Message('note_on', channel=7, note=28, velocity=113, time=32),
    Message('note_on', channel=7, note=28, velocity=113, time=672),
    Message('note_off', channel=7, note=28, velocity=71, time=64),
    Message('note_off', channel=7, note=28, velocity=71, time=32),
    Message('note_on', channel=7, note=27, velocity=113, time=0),
    Message('note_off', channel=7, note=27, velocity=71, time=768),
    Message('note_on', channel=7, note=32, velocity=113, time=0),
    Message('note_off', channel=7, note=32, velocity=71, time=192),
    Message('note_on', channel=7, note=32, velocity=113, time=96),
    Message('note_off', channel=7, note=32, velocity=71, time=64),
    Message('note_on', channel=7, note=30, velocity=113, time=32),
    Message('note_off', channel=7, note=30, velocity=71, time=192),
    Message('note_on', channel=7, note=30, velocity=113, time=96),
    Message('pitchwheel', channel=7, pitch=308, time=0),
    Message('pitchwheel', channel=7, pitch=808, time=4),
    Message('pitchwheel', channel=7, pitch=1308, time=4),
    Message('pitchwheel', channel=7, pitch=1808, time=4),
    Message('pitchwheel', channel=7, pitch=2308, time=4),
    Message('pitchwheel', channel=7, pitch=2808, time=4),
    Message('pitchwheel', channel=7, pitch=3308, time=4),
    Message('pitchwheel', channel=7, pitch=3808, time=4),
    Message('pitchwheel', channel=7, pitch=4308, time=4),
    Message('pitchwheel', channel=7, pitch=4808, time=4),
    Message('pitchwheel', channel=7, pitch=5308, time=4),
    Message('pitchwheel', channel=7, pitch=5808, time=4),
    Message('pitchwheel', channel=7, pitch=6308, time=4),
    Message('pitchwheel', channel=7, pitch=6808, time=4),
    Message('pitchwheel', channel=7, pitch=7308, time=4),
    Message('pitchwheel', channel=7, pitch=7808, time=4),
    Message('pitchwheel', channel=7, pitch=8171, time=4),
    Message('pitchwheel', channel=7, pitch=0, time=28),
    Message('note_on', channel=7, note=33, velocity=113, time=4),
    Message('note_off', channel=7, note=30, velocity=71, time=32),
    Message('note_off', channel=7, note=33, velocity=71, time=1504),
    Message('note_on', channel=7, note=28, velocity=113, time=0),
    Message('note_off', channel=7, note=28, velocity=71, time=512),
    Message('note_on', channel=7, note=28, velocity=113, time=160),
    Message('note_off', channel=7, note=28, velocity=71, time=64),
    Message('note_on', channel=7, note=27, velocity=113, time=32),
    Message('note_off', channel=7, note=27, velocity=71, time=128),
    Message('note_on', channel=7, note=27, velocity=113, time=64),
    Message('note_off', channel=7, note=27, velocity=71, time=384),
    Message('note_on', channel=7, note=32, velocity=113, time=192),
    Message('note_off', channel=7, note=32, velocity=71, time=192),
    Message('note_on', channel=7, note=32, velocity=113, time=96),
    Message('note_off', channel=7, note=32, velocity=71, time=64),
    Message('note_on', channel=7, note=31, velocity=113, time=32),
    Message('note_off', channel=7, note=31, velocity=71, time=192),
    Message('note_on', channel=7, note=31, velocity=113, time=96),
    Message('note_off', channel=7, note=31, velocity=71, time=64),
    Message('note_on', channel=7, note=35, velocity=113, time=32),
    Message('note_off', channel=7, note=35, velocity=71, time=128),
    Message('note_on', channel=7, note=35, velocity=113, time=64),
    Message('note_off', channel=7, note=35, velocity=71, time=384),
    Message('note_on', channel=7, note=27, velocity=113, time=96),
    Message('note_off', channel=7, note=27, velocity=71, time=64),
    Message('note_on', channel=7, note=28, velocity=113, time=32),
    Message('note_off', channel=7, note=28, velocity=71, time=768),
    Message('note_on', channel=7, note=27, velocity=113, time=0),
    Message('note_off', channel=7, note=27, velocity=71, time=768),
    Message('note_on', channel=7, note=37, velocity=113, time=0),
    Message('note_off', channel=7, note=37, velocity=71, time=192),
    Message('note_on', channel=7, note=37, velocity=113, time=96),
    Message('note_on', channel=7, note=37, velocity=113, time=28),
    Message('note_off', channel=7, note=37, velocity=71, time=36),
    Message('note_off', channel=7, note=37, velocity=71, time=28),
    Message('note_on', channel=7, note=37, velocity=113, time=4),
    Message('note_off', channel=7, note=37, velocity=71, time=128),
    Message('note_on', channel=7, note=37, velocity=113, time=64),
    Message('note_off', channel=7, note=37, velocity=71, time=64),
    Message('note_on', channel=7, note=34, velocity=113, time=32),
    Message('note_off', channel=7, note=34, velocity=71, time=64),
    Message('note_on', channel=7, note=35, velocity=113, time=32),
    Message('note_off', channel=7, note=35, velocity=71, time=128),
    Message('note_on', channel=7, note=35, velocity=113, time=64),
    Message('note_off', channel=7, note=35, velocity=71, time=128),
    Message('note_on', channel=7, note=35, velocity=113, time=64),
    Message('note_off', channel=7, note=35, velocity=71, time=128),
    Message('note_on', channel=7, note=35, velocity=113, time=64),
    Message('note_off', channel=7, note=35, velocity=71, time=64),
    Message('note_on', channel=7, note=27, velocity=113, time=32),
    Message('note_off', channel=7, note=27, velocity=71, time=64),
    Message('note_on', channel=7, note=28, velocity=113, time=32),
    Message('note_off', channel=7, note=28, velocity=71, time=512),
    Message('note_on', channel=7, note=28, velocity=113, time=160),
    Message('note_off', channel=7, note=28, velocity=71, time=64),
    Message('note_on', channel=7, note=27, velocity=113, time=32),
    Message('note_off', channel=7, note=27, velocity=71, time=128),
    Message('note_on', channel=7, note=27, velocity=113, time=64),
    Message('note_off', channel=7, note=27, velocity=71, time=384),
    Message('note_on', channel=7, note=32, velocity=113, time=192),
    Message('note_off', channel=7, note=32, velocity=71, time=192),
    Message('note_on', channel=7, note=32, velocity=113, time=96),
    Message('note_off', channel=7, note=32, velocity=71, time=64),
    Message('note_on', channel=7, note=31, velocity=113, time=32),
    Message('note_off', channel=7, note=31, velocity=71, time=192),
    Message('note_on', channel=7, note=31, velocity=113, time=96),
    Message('note_off', channel=7, note=31, velocity=71, time=64),
    Message('note_on', channel=7, note=35, velocity=113, time=32),
    Message('note_off', channel=7, note=35, velocity=71, time=128),
    Message('note_on', channel=7, note=35, velocity=113, time=64),
    Message('note_off', channel=7, note=35, velocity=71, time=384),
    Message('note_on', channel=7, note=27, velocity=113, time=96),
    Message('note_off', channel=7, note=27, velocity=71, time=64),
    Message('note_on', channel=7, note=28, velocity=113, time=32),
    Message('note_off', channel=7, note=28, velocity=71, time=768),
    Message('note_on', channel=7, note=27, velocity=113, time=0),
    Message('note_off', channel=7, note=27, velocity=71, time=768),
    Message('note_on', channel=7, note=37, velocity=113, time=0),
    Message('note_off', channel=7, note=37, velocity=71, time=192),
    Message('note_on', channel=7, note=37, velocity=113, time=96),
    Message('note_on', channel=7, note=37, velocity=113, time=24),
    Message('note_off', channel=7, note=37, velocity=71, time=40),
    Message('note_off', channel=7, note=37, velocity=71, time=24),
    Message('note_on', channel=7, note=37, velocity=113, time=8),
    Message('note_off', channel=7, note=37, velocity=71, time=128),
    Message('note_on', channel=7, note=37, velocity=113, time=64),
    Message('note_off', channel=7, note=37, velocity=71, time=64),
    Message('note_on', channel=7, note=34, velocity=113, time=32),
    Message('note_off', channel=7, note=34, velocity=71, time=64),
    Message('note_on', channel=7, note=35, velocity=113, time=32),
    Message('note_off', channel=7, note=35, velocity=71, time=192),
    Message('note_on', channel=7, note=35, velocity=113, time=96),
    Message('note_off', channel=7, note=35, velocity=71, time=64),
    Message('note_on', channel=7, note=35, velocity=113, time=32),
    Message('note_off', channel=7, note=35, velocity=71, time=128),
    Message('note_on', channel=7, note=35, velocity=113, time=64),
    Message('note_off', channel=7, note=35, velocity=71, time=64),
    Message('note_on', channel=7, note=34, velocity=113, time=32),
    Message('note_off', channel=7, note=34, velocity=71, time=64),
    Message('note_on', channel=7, note=39, velocity=113, time=32),
    Message('note_off', channel=7, note=39, velocity=71, time=192),
    Message('note_on', channel=7, note=39, velocity=113, time=96),
    Message('note_off', channel=7, note=39, velocity=71, time=64),
    Message('note_on', channel=7, note=39, velocity=113, time=32),
    Message('note_off', channel=7, note=39, velocity=71, time=128),
    Message('note_on', channel=7, note=39, velocity=113, time=64),
    Message('note_off', channel=7, note=39, velocity=71, time=64),
    Message('note_on', channel=7, note=34, velocity=113, time=32),
    Message('note_off', channel=7, note=34, velocity=71, time=64),
    Message('note_on', channel=7, note=37, velocity=113, time=32),
    Message('note_off', channel=7, note=37, velocity=71, time=192),
    Message('note_on', channel=7, note=37, velocity=113, time=96),
    Message('note_on', channel=7, note=37, velocity=113, time=24),
    Message('note_off', channel=7, note=37, velocity=71, time=40),
    Message('note_off', channel=7, note=37, velocity=71, time=24),
    Message('note_on', channel=7, note=37, velocity=113, time=8),
    Message('note_off', channel=7, note=37, velocity=71, time=128),
    Message('note_on', channel=7, note=37, velocity=113, time=64),
    Message('note_off', channel=7, note=37, velocity=71, time=64),
    Message('note_on', channel=7, note=34, velocity=113, time=32),
    Message('note_off', channel=7, note=34, velocity=71, time=64),
    Message('note_on', channel=7, note=35, velocity=113, time=32),
    Message('note_off', channel=7, note=35, velocity=71, time=192),
    Message('note_on', channel=7, note=35, velocity=113, time=96),
    Message('note_off', channel=7, note=35, velocity=71, time=64),
    Message('note_on', channel=7, note=35, velocity=113, time=32),
    Message('note_off', channel=7, note=35, velocity=71, time=64),
    Message('note_on', channel=7, note=35, velocity=113, time=32),
    Message('note_off', channel=7, note=35, velocity=71, time=64),
    Message('note_on', channel=7, note=35, velocity=113, time=32),
    Message('note_off', channel=7, note=35, velocity=71, time=128),
    Message('note_on', channel=7, note=39, velocity=113, time=64),
    Message('note_on', channel=7, note=27, velocity=113, time=0),
    Message('note_off', channel=7, note=39, velocity=71, time=128),
    Message('note_off', channel=7, note=27, velocity=71, time=0),
    Message('note_on', channel=7, note=39, velocity=113, time=64),
    Message('note_off', channel=7, note=39, velocity=71, time=128),
    Message('note_on', channel=7, note=39, velocity=113, time=64),
    Message('note_off', channel=7, note=39, velocity=71, time=64),
    Message('note_on', channel=7, note=39, velocity=113, time=32),
    Message('note_off', channel=7, note=39, velocity=71, time=64),
    Message('note_on', channel=7, note=39, velocity=113, time=32),
    Message('note_off', channel=7, note=39, velocity=71, time=64),
    Message('note_on', channel=7, note=39, velocity=113, time=32),
    Message('note_off', channel=7, note=39, velocity=71, time=64),
    Message('note_on', channel=7, note=37, velocity=113, time=32),
    Message('note_off', channel=7, note=37, velocity=71, time=192),
    Message('note_on', channel=7, note=37, velocity=113, time=96),
    Message('note_off', channel=7, note=37, velocity=71, time=64),
    Message('note_on', channel=7, note=37, velocity=113, time=32),
    Message('note_off', channel=7, note=37, velocity=71, time=128),
    Message('note_on', channel=7, note=37, velocity=113, time=64),
    Message('note_off', channel=7, note=37, velocity=71, time=64),
    Message('note_on', channel=7, note=34, velocity=113, time=32),
    Message('note_off', channel=7, note=34, velocity=71, time=64),
    Message('note_on', channel=7, note=35, velocity=113, time=32),
    Message('note_off', channel=7, note=35, velocity=71, time=192),
    Message('note_on', channel=7, note=35, velocity=113, time=96),
    Message('note_off', channel=7, note=35, velocity=71, time=64),
    Message('note_on', channel=7, note=35, velocity=113, time=32),
    Message('note_off', channel=7, note=35, velocity=71, time=128),
    Message('note_on', channel=7, note=35, velocity=113, time=64),
    Message('note_off', channel=7, note=35, velocity=71, time=128),
    Message('note_on', channel=7, note=39, velocity=113, time=64),
    Message('note_off', channel=7, note=39, velocity=71, time=128),
    Message('note_on', channel=7, note=27, velocity=113, time=64),
    Message('note_off', channel=7, note=27, velocity=71, time=64),
    Message('note_on', channel=7, note=27, velocity=113, time=32),
    Message('note_off', channel=7, note=27, velocity=71, time=64),
    Message('note_on', channel=7, note=27, velocity=113, time=32),
    Message('note_off', channel=7, note=27, velocity=71, time=64),
    Message('note_on', channel=7, note=27, velocity=113, time=32),
    Message('note_off', channel=7, note=27, velocity=71, time=64),
    Message('note_on', channel=7, note=27, velocity=113, time=32),
    Message('note_off', channel=7, note=27, velocity=71, time=64),
    Message('note_on', channel=7, note=27, velocity=113, time=32),
    Message('note_off', channel=7, note=27, velocity=71, time=64),
    Message('note_on', channel=7, note=37, velocity=113, time=32),
    Message('note_off', channel=7, note=37, velocity=71, time=192),
    Message('note_on', channel=7, note=37, velocity=113, time=96),
    Message('note_off', channel=7, note=37, velocity=71, time=64),
    Message('note_on', channel=7, note=37, velocity=113, time=32),
    Message('note_off', channel=7, note=37, velocity=71, time=128),
    Message('note_on', channel=7, note=37, velocity=113, time=64),
    Message('note_off', channel=7, note=37, velocity=71, time=64),
    Message('note_on', channel=7, note=34, velocity=113, time=32),
    Message('note_off', channel=7, note=34, velocity=71, time=64),
    Message('note_on', channel=7, note=35, velocity=113, time=32),
    Message('note_off', channel=7, note=35, velocity=71, time=192),
    Message('note_on', channel=7, note=35, velocity=113, time=96),
    Message('note_off', channel=7, note=35, velocity=71, time=64),
    Message('note_on', channel=7, note=35, velocity=113, time=32),
    Message('note_off', channel=7, note=35, velocity=71, time=128),
    Message('note_on', channel=7, note=35, velocity=113, time=64),
    Message('note_off', channel=7, note=35, velocity=71, time=128),
    Message('note_on', channel=7, note=39, velocity=113, time=64),
    Message('note_off', channel=7, note=39, velocity=71, time=64),
    Message('note_on', channel=7, note=39, velocity=113, time=32),
    Message('note_off', channel=7, note=39, velocity=71, time=64),
    Message('note_on', channel=7, note=27, velocity=113, time=32),
    Message('note_off', channel=7, note=27, velocity=71, time=64),
    Message('note_on', channel=7, note=27, velocity=113, time=32),
    Message('note_off', channel=7, note=27, velocity=71, time=64),
    Message('note_on', channel=7, note=39, velocity=113, time=32),
    Message('note_off', channel=7, note=39, velocity=71, time=64),
    Message('note_on', channel=7, note=39, velocity=113, time=32),
    Message('note_off', channel=7, note=39, velocity=71, time=64),
    Message('note_on', channel=7, note=39, velocity=113, time=32),
    Message('note_off', channel=7, note=39, velocity=71, time=64),
    Message('note_on', channel=7, note=39, velocity=113, time=32),
    Message('note_off', channel=7, note=39, velocity=71, time=64),
    Message('note_on', channel=7, note=37, velocity=113, time=32),
    Message('note_off', channel=7, note=37, velocity=71, time=64),
    Message('note_on', channel=7, note=36, velocity=113, time=32),
    Message('note_off', channel=7, note=36, velocity=71, time=128),
    Message('note_on', channel=7, note=34, velocity=113, time=64),
    Message('note_off', channel=7, note=34, velocity=71, time=128),
    Message('note_on', channel=7, note=36, velocity=113, time=64),
    Message('note_on', channel=7, note=37, velocity=113, time=10),
    Message('note_off', channel=7, note=36, velocity=71, time=22),
    Message('note_off', channel=7, note=37, velocity=71, time=42),
    Message('note_on', channel=7, note=32, velocity=113, time=22),
    Message('note_off', channel=7, note=32, velocity=71, time=64),
    Message('note_on', channel=7, note=31, velocity=113, time=32),
    Message('note_off', channel=7, note=31, velocity=71, time=128),
    Message('note_on', channel=7, note=30, velocity=113, time=64),
    Message('note_off', channel=7, note=30, velocity=71, time=128),
    Message('note_on', channel=7, note=30, velocity=113, time=64),
    Message('note_off', channel=7, note=30, velocity=71, time=64),
    Message('note_on', channel=7, note=42, velocity=113, time=32),
    Message('note_off', channel=7, note=42, velocity=71, time=128),
    Message('note_on', channel=7, note=30, velocity=113, time=64),
    Message('note_off', channel=7, note=30, velocity=71, time=64),
    Message('note_on', channel=7, note=42, velocity=113, time=32),
    Message('note_off', channel=7, note=42, velocity=71, time=64),
    Message('note_on', channel=7, note=30, velocity=113, time=32),
    Message('note_off', channel=7, note=30, velocity=71, time=64),
    Message('note_on', channel=7, note=27, velocity=113, time=32),
    Message('note_off', channel=7, note=27, velocity=71, time=64),
    Message('note_on', channel=7, note=37, velocity=113, time=32),
    Message('note_off', channel=7, note=37, velocity=71, time=64),
    Message('note_on', channel=7, note=36, velocity=113, time=32),
    Message('note_off', channel=7, note=36, velocity=71, time=128),
    Message('note_on', channel=7, note=34, velocity=113, time=64),
    Message('note_off', channel=7, note=34, velocity=71, time=128),
    Message('note_on', channel=7, note=36, velocity=113, time=64),
    Message('note_on', channel=7, note=37, velocity=113, time=10),
    Message('note_off', channel=7, note=36, velocity=71, time=22),
    Message('note_off', channel=7, note=37, velocity=71, time=42),
    Message('note_on', channel=7, note=32, velocity=113, time=22),
    Message('note_off', channel=7, note=32, velocity=71, time=64),
    Message('note_on', channel=7, note=31, velocity=113, time=32),
    Message('note_off', channel=7, note=31, velocity=71, time=128),
    Message('note_on', channel=7, note=30, velocity=113, time=64),
    Message('note_off', channel=7, note=30, velocity=71, time=128),
    Message('note_on', channel=7, note=30, velocity=113, time=64),
    Message('note_off', channel=7, note=30, velocity=71, time=64),
    Message('note_on', channel=7, note=42, velocity=113, time=32),
    Message('note_off', channel=7, note=42, velocity=71, time=128),
    Message('note_on', channel=7, note=30, velocity=113, time=64),
    Message('note_off', channel=7, note=30, velocity=71, time=64),
    Message('note_on', channel=7, note=42, velocity=113, time=32),
    Message('note_off', channel=7, note=42, velocity=71, time=64),
    Message('note_on', channel=7, note=30, velocity=113, time=32),
    Message('note_off', channel=7, note=30, velocity=71, time=64),
    Message('note_on', channel=7, note=27, velocity=113, time=32),
    Message('note_off', channel=7, note=27, velocity=71, time=64),
    Message('note_on', channel=7, note=37, velocity=113, time=32),
    Message('note_off', channel=7, note=37, velocity=71, time=64),
    Message('note_on', channel=7, note=36, velocity=113, time=32),
    Message('note_off', channel=7, note=36, velocity=71, time=128),
    Message('note_on', channel=7, note=34, velocity=113, time=64),
    Message('note_off', channel=7, note=34, velocity=71, time=128),
    Message('note_on', channel=7, note=36, velocity=113, time=64),
    Message('note_on', channel=7, note=37, velocity=113, time=10),
    Message('note_off', channel=7, note=36, velocity=71, time=22),
    Message('note_off', channel=7, note=37, velocity=71, time=42),
    Message('note_on', channel=7, note=32, velocity=113, time=22),
    Message('note_off', channel=7, note=32, velocity=71, time=64),
    Message('note_on', channel=7, note=31, velocity=113, time=32),
    Message('note_off', channel=7, note=31, velocity=71, time=128),
    Message('note_on', channel=7, note=30, velocity=113, time=64),
    Message('note_off', channel=7, note=30, velocity=71, time=128),
    Message('note_on', channel=7, note=30, velocity=113, time=64),
    Message('note_off', channel=7, note=30, velocity=71, time=64),
    Message('note_on', channel=7, note=42, velocity=113, time=32),
    Message('note_off', channel=7, note=42, velocity=71, time=128),
    Message('note_on', channel=7, note=30, velocity=113, time=64),
    Message('note_off', channel=7, note=30, velocity=71, time=64),
    Message('note_on', channel=7, note=42, velocity=113, time=32),
    Message('note_off', channel=7, note=42, velocity=71, time=64),
    Message('note_on', channel=7, note=30, velocity=113, time=32),
    Message('note_off', channel=7, note=30, velocity=71, time=64),
    Message('note_on', channel=7, note=27, velocity=113, time=32),
    Message('note_off', channel=7, note=27, velocity=71, time=64),
    Message('note_on', channel=7, note=37, velocity=113, time=32),
    Message('note_off', channel=7, note=37, velocity=71, time=64),
    Message('note_on', channel=7, note=36, velocity=113, time=32),
    Message('note_off', channel=7, note=36, velocity=71, time=128),
    Message('note_on', channel=7, note=34, velocity=113, time=64),
    Message('note_off', channel=7, note=34, velocity=71, time=128),
    Message('note_on', channel=7, note=36, velocity=113, time=64),
    Message('note_on', channel=7, note=37, velocity=113, time=10),
    Message('note_off', channel=7, note=36, velocity=71, time=22),
    Message('note_off', channel=7, note=37, velocity=71, time=42),
    Message('note_on', channel=7, note=32, velocity=113, time=22),
    Message('note_off', channel=7, note=32, velocity=71, time=64),
    Message('note_on', channel=7, note=31, velocity=113, time=32),
    Message('note_off', channel=7, note=31, velocity=71, time=128),
    Message('note_on', channel=7, note=30, velocity=113, time=64),
    Message('note_off', channel=7, note=30, velocity=71, time=128),
    Message('note_on', channel=7, note=30, velocity=113, time=64),
    Message('note_off', channel=7, note=30, velocity=71, time=64),
    Message('note_on', channel=7, note=42, velocity=113, time=32),
    Message('note_off', channel=7, note=42, velocity=71, time=128),
    Message('note_on', channel=7, note=30, velocity=113, time=64),
    Message('note_off', channel=7, note=30, velocity=71, time=64),
    Message('note_on', channel=7, note=42, velocity=113, time=32),
    Message('note_off', channel=7, note=42, velocity=71, time=64),
    Message('note_on', channel=7, note=30, velocity=113, time=32),
    Message('note_off', channel=7, note=30, velocity=71, time=64),
    Message('note_on', channel=7, note=27, velocity=113, time=32),
    Message('note_off', channel=7, note=27, velocity=71, time=64),
    Message('note_on', channel=7, note=37, velocity=113, time=32),
    Message('note_off', channel=7, note=37, velocity=71, time=64),
    Message('note_on', channel=7, note=36, velocity=113, time=32),
    Message('note_off', channel=7, note=36, velocity=71, time=128),
    Message('note_on', channel=7, note=34, velocity=113, time=64),
    Message('note_off', channel=7, note=34, velocity=71, time=128),
    Message('note_on', channel=7, note=36, velocity=113, time=64),
    Message('note_on', channel=7, note=37, velocity=113, time=10),
    Message('note_off', channel=7, note=36, velocity=71, time=22),
    Message('note_off', channel=7, note=37, velocity=71, time=42),
    Message('note_on', channel=7, note=32, velocity=113, time=22),
    Message('note_off', channel=7, note=32, velocity=71, time=64),
    Message('note_on', channel=7, note=31, velocity=113, time=32),
    Message('note_off', channel=7, note=31, velocity=71, time=128),
    Message('note_on', channel=7, note=30, velocity=113, time=64),
    Message('note_off', channel=7, note=30, velocity=71, time=128),
    Message('note_on', channel=7, note=30, velocity=113, time=64),
    Message('note_off', channel=7, note=30, velocity=71, time=64),
    Message('note_on', channel=7, note=42, velocity=113, time=32),
    Message('note_off', channel=7, note=42, velocity=71, time=128),
    Message('note_on', channel=7, note=30, velocity=113, time=64),
    Message('note_off', channel=7, note=30, velocity=71, time=64),
    Message('note_on', channel=7, note=42, velocity=113, time=32),
    Message('note_off', channel=7, note=42, velocity=71, time=64),
    Message('note_on', channel=7, note=30, velocity=113, time=32),
    Message('note_off', channel=7, note=30, velocity=71, time=64),
    Message('note_on', channel=7, note=27, velocity=113, time=32),
    Message('note_off', channel=7, note=27, velocity=71, time=64),
    Message('note_on', channel=7, note=37, velocity=113, time=32),
    Message('note_off', channel=7, note=37, velocity=71, time=64),
    Message('note_on', channel=7, note=36, velocity=113, time=32),
    Message('note_off', channel=7, note=36, velocity=71, time=128),
    Message('note_on', channel=7, note=34, velocity=113, time=64),
    Message('note_off', channel=7, note=34, velocity=71, time=128),
    Message('note_on', channel=7, note=36, velocity=113, time=64),
    Message('note_on', channel=7, note=37, velocity=113, time=10),
    Message('note_off', channel=7, note=36, velocity=71, time=22),
    Message('note_off', channel=7, note=37, velocity=71, time=42),
    Message('note_on', channel=7, note=32, velocity=113, time=22),
    Message('note_off', channel=7, note=32, velocity=71, time=64),
    Message('note_on', channel=7, note=31, velocity=113, time=32),
    Message('note_off', channel=7, note=31, velocity=71, time=128),
    Message('note_on', channel=7, note=30, velocity=113, time=64),
    Message('note_off', channel=7, note=30, velocity=71, time=128),
    Message('note_on', channel=7, note=30, velocity=113, time=64),
    Message('note_off', channel=7, note=30, velocity=71, time=64),
    Message('note_on', channel=7, note=42, velocity=113, time=32),
    Message('note_off', channel=7, note=42, velocity=71, time=128),
    Message('note_on', channel=7, note=30, velocity=113, time=64),
    Message('note_off', channel=7, note=30, velocity=71, time=64),
    Message('note_on', channel=7, note=42, velocity=113, time=32),
    Message('note_off', channel=7, note=42, velocity=71, time=64),
    Message('note_on', channel=7, note=30, velocity=113, time=32),
    Message('note_off', channel=7, note=30, velocity=71, time=64),
    Message('note_on', channel=7, note=27, velocity=113, time=32),
    Message('note_off', channel=7, note=27, velocity=71, time=64),
    Message('note_on', channel=7, note=30, velocity=113, time=32),
    Message('note_off', channel=7, note=30, velocity=71, time=64),
    Message('note_on', channel=7, note=32, velocity=113, time=32),
    Message('note_off', channel=7, note=32, velocity=71, time=64),
    Message('note_on', channel=7, note=32, velocity=113, time=32),
    Message('note_off', channel=7, note=32, velocity=71, time=768),
    Message('note_on', channel=7, note=32, velocity=113, time=576),
    Message('note_off', channel=7, note=32, velocity=71, time=384),
    Message('note_on', channel=7, note=32, velocity=113, time=192),
    Message('note_off', channel=7, note=32, velocity=71, time=128),
    Message('note_on', channel=7, note=35, velocity=113, time=64),
    Message('note_off', channel=7, note=35, velocity=71, time=384),
    Message('note_on', channel=7, note=35, velocity=113, time=192),
    Message('note_off', channel=7, note=35, velocity=71, time=128),
    Message('note_on', channel=7, note=30, velocity=113, time=64),
    Message('note_off', channel=7, note=30, velocity=71, time=512),
    Message('note_on', channel=7, note=29, velocity=113, time=256),
    Message('note_off', channel=7, note=29, velocity=71, time=1412),
    Message('note_on', channel=7, note=28, velocity=113, time=124),
    Message('note_off', channel=7, note=28, velocity=71, time=512),
    Message('note_on', channel=7, note=28, velocity=113, time=160),
    Message('note_off', channel=7, note=28, velocity=71, time=64),
    Message('note_on', channel=7, note=27, velocity=113, time=32),
    Message('note_off', channel=7, note=27, velocity=71, time=128),
    Message('note_on', channel=7, note=27, velocity=113, time=64),
    Message('note_off', channel=7, note=27, velocity=71, time=384),
    Message('note_on', channel=7, note=32, velocity=113, time=192),
    Message('note_off', channel=7, note=32, velocity=71, time=192),
    Message('note_on', channel=7, note=32, velocity=113, time=96),
    Message('note_off', channel=7, note=32, velocity=71, time=64),
    Message('note_on', channel=7, note=31, velocity=113, time=32),
    Message('note_off', channel=7, note=31, velocity=71, time=192),
    Message('note_on', channel=7, note=31, velocity=113, time=96),
    Message('note_off', channel=7, note=31, velocity=71, time=64),
    Message('note_on', channel=7, note=35, velocity=113, time=32),
    Message('note_off', channel=7, note=35, velocity=71, time=128),
    Message('note_on', channel=7, note=35, velocity=113, time=64),
    Message('note_off', channel=7, note=35, velocity=71, time=384),
    Message('note_on', channel=7, note=27, velocity=113, time=96),
    Message('note_off', channel=7, note=27, velocity=71, time=64),
    Message('note_on', channel=7, note=28, velocity=113, time=32),
    Message('note_off', channel=7, note=28, velocity=71, time=768),
    Message('note_on', channel=7, note=27, velocity=113, time=0),
    Message('note_off', channel=7, note=27, velocity=71, time=768),
    Message('note_on', channel=7, note=37, velocity=113, time=0),
    Message('note_off', channel=7, note=37, velocity=71, time=192),
    Message('note_on', channel=7, note=37, velocity=113, time=96),
    Message('note_on', channel=7, note=37, velocity=113, time=28),
    Message('note_off', channel=7, note=37, velocity=71, time=36),
    Message('note_off', channel=7, note=37, velocity=71, time=28),
    Message('note_on', channel=7, note=37, velocity=113, time=4),
    Message('note_off', channel=7, note=37, velocity=71, time=128),
    Message('note_on', channel=7, note=37, velocity=113, time=64),
    Message('note_off', channel=7, note=37, velocity=71, time=64),
    Message('note_on', channel=7, note=34, velocity=113, time=32),
    Message('note_off', channel=7, note=34, velocity=71, time=64),
    Message('note_on', channel=7, note=35, velocity=113, time=32),
    Message('note_off', channel=7, note=35, velocity=71, time=128),
    Message('note_on', channel=7, note=35, velocity=113, time=64),
    Message('note_off', channel=7, note=35, velocity=71, time=128),
    Message('note_on', channel=7, note=35, velocity=113, time=64),
    Message('note_off', channel=7, note=35, velocity=71, time=128),
    Message('note_on', channel=7, note=35, velocity=113, time=64),
    Message('note_off', channel=7, note=35, velocity=71, time=64),
    Message('note_on', channel=7, note=27, velocity=113, time=32),
    Message('note_off', channel=7, note=27, velocity=71, time=64),
    Message('note_on', channel=7, note=28, velocity=113, time=32),
    Message('note_off', channel=7, note=28, velocity=71, time=512),
    Message('note_on', channel=7, note=28, velocity=113, time=160),
    Message('note_off', channel=7, note=28, velocity=71, time=64),
    Message('note_on', channel=7, note=27, velocity=113, time=32),
    Message('note_off', channel=7, note=27, velocity=71, time=128),
    Message('note_on', channel=7, note=27, velocity=113, time=64),
    Message('note_off', channel=7, note=27, velocity=71, time=384),
    Message('note_on', channel=7, note=32, velocity=113, time=192),
    Message('note_off', channel=7, note=32, velocity=71, time=192),
    Message('note_on', channel=7, note=32, velocity=113, time=96),
    Message('note_off', channel=7, note=32, velocity=71, time=64),
    Message('note_on', channel=7, note=31, velocity=113, time=32),
    Message('note_off', channel=7, note=31, velocity=71, time=192),
    Message('note_on', channel=7, note=31, velocity=113, time=96),
    Message('note_off', channel=7, note=31, velocity=71, time=64),
    Message('note_on', channel=7, note=35, velocity=113, time=32),
    Message('note_off', channel=7, note=35, velocity=71, time=128),
    Message('note_on', channel=7, note=35, velocity=113, time=64),
    Message('note_off', channel=7, note=35, velocity=71, time=384),
    Message('note_on', channel=7, note=27, velocity=113, time=96),
    Message('note_off', channel=7, note=27, velocity=71, time=64),
    Message('note_on', channel=7, note=28, velocity=113, time=32),
    Message('note_off', channel=7, note=28, velocity=71, time=768),
    Message('note_on', channel=7, note=27, velocity=113, time=0),
    Message('note_off', channel=7, note=27, velocity=71, time=768),
    Message('note_on', channel=7, note=37, velocity=113, time=0),
    Message('note_off', channel=7, note=37, velocity=71, time=192),
    Message('note_on', channel=7, note=37, velocity=113, time=96),
    Message('note_on', channel=7, note=37, velocity=113, time=24),
    Message('note_off', channel=7, note=37, velocity=71, time=40),
    Message('note_off', channel=7, note=37, velocity=71, time=24),
    Message('note_on', channel=7, note=37, velocity=113, time=8),
    Message('note_off', channel=7, note=37, velocity=71, time=128),
    Message('note_on', channel=7, note=37, velocity=113, time=64),
    Message('note_off', channel=7, note=37, velocity=71, time=64),
    Message('note_on', channel=7, note=34, velocity=113, time=32),
    Message('note_off', channel=7, note=34, velocity=71, time=64),
    Message('note_on', channel=7, note=35, velocity=113, time=32),
    Message('note_off', channel=7, note=35, velocity=71, time=192),
    Message('note_on', channel=7, note=35, velocity=113, time=96),
    Message('note_off', channel=7, note=35, velocity=71, time=64),
    Message('note_on', channel=7, note=35, velocity=113, time=32),
    Message('note_off', channel=7, note=35, velocity=71, time=128),
    Message('note_on', channel=7, note=35, velocity=113, time=64),
    Message('note_off', channel=7, note=35, velocity=71, time=64),
    Message('note_on', channel=7, note=34, velocity=113, time=32),
    Message('note_off', channel=7, note=34, velocity=71, time=64),
    Message('note_on', channel=7, note=39, velocity=113, time=32),
    Message('note_off', channel=7, note=39, velocity=71, time=192),
    Message('note_on', channel=7, note=39, velocity=113, time=96),
    Message('note_off', channel=7, note=39, velocity=71, time=64),
    Message('note_on', channel=7, note=39, velocity=113, time=32),
    Message('note_off', channel=7, note=39, velocity=71, time=128),
    Message('note_on', channel=7, note=39, velocity=113, time=64),
    Message('note_off', channel=7, note=39, velocity=71, time=64),
    Message('note_on', channel=7, note=34, velocity=113, time=32),
    Message('note_off', channel=7, note=34, velocity=71, time=64),
    Message('note_on', channel=7, note=37, velocity=113, time=32),
    Message('note_off', channel=7, note=37, velocity=71, time=192),
    Message('note_on', channel=7, note=37, velocity=113, time=96),
    Message('note_on', channel=7, note=37, velocity=113, time=24),
    Message('note_off', channel=7, note=37, velocity=71, time=40),
    Message('note_off', channel=7, note=37, velocity=71, time=24),
    Message('note_on', channel=7, note=37, velocity=113, time=8),
    Message('note_off', channel=7, note=37, velocity=71, time=128),
    Message('note_on', channel=7, note=37, velocity=113, time=64),
    Message('note_off', channel=7, note=37, velocity=71, time=64),
    Message('note_on', channel=7, note=34, velocity=113, time=32),
    Message('note_off', channel=7, note=34, velocity=71, time=64),
    Message('note_on', channel=7, note=35, velocity=113, time=32),
    Message('note_off', channel=7, note=35, velocity=71, time=192),
    Message('note_on', channel=7, note=35, velocity=113, time=96),
    Message('note_off', channel=7, note=35, velocity=71, time=64),
    Message('note_on', channel=7, note=35, velocity=113, time=32),
    Message('note_off', channel=7, note=35, velocity=71, time=64),
    Message('note_on', channel=7, note=35, velocity=113, time=32),
    Message('note_off', channel=7, note=35, velocity=71, time=64),
    Message('note_on', channel=7, note=35, velocity=113, time=32),
    Message('note_off', channel=7, note=35, velocity=71, time=128),
    Message('note_on', channel=7, note=39, velocity=113, time=64),
    Message('note_on', channel=7, note=27, velocity=113, time=0),
    Message('note_off', channel=7, note=39, velocity=71, time=128),
    Message('note_off', channel=7, note=27, velocity=71, time=0),
    Message('note_on', channel=7, note=39, velocity=113, time=64),
    Message('note_off', channel=7, note=39, velocity=71, time=128),
    Message('note_on', channel=7, note=39, velocity=113, time=64),
    Message('note_off', channel=7, note=39, velocity=71, time=64),
    Message('note_on', channel=7, note=39, velocity=113, time=32),
    Message('note_off', channel=7, note=39, velocity=71, time=64),
    Message('note_on', channel=7, note=39, velocity=113, time=32),
    Message('note_off', channel=7, note=39, velocity=71, time=64),
    Message('note_on', channel=7, note=39, velocity=113, time=32),
    Message('note_off', channel=7, note=39, velocity=71, time=64),
    Message('note_on', channel=7, note=37, velocity=113, time=32),
    Message('note_off', channel=7, note=37, velocity=71, time=192),
    Message('note_on', channel=7, note=37, velocity=113, time=96),
    Message('note_off', channel=7, note=37, velocity=71, time=64),
    Message('note_on', channel=7, note=37, velocity=113, time=32),
    Message('note_off', channel=7, note=37, velocity=71, time=128),
    Message('note_on', channel=7, note=37, velocity=113, time=64),
    Message('note_off', channel=7, note=37, velocity=71, time=64),
    Message('note_on', channel=7, note=34, velocity=113, time=32),
    Message('note_off', channel=7, note=34, velocity=71, time=64),
    Message('note_on', channel=7, note=35, velocity=113, time=32),
    Message('note_off', channel=7, note=35, velocity=71, time=192),
    Message('note_on', channel=7, note=35, velocity=113, time=96),
    Message('note_off', channel=7, note=35, velocity=71, time=64),
    Message('note_on', channel=7, note=35, velocity=113, time=32),
    Message('note_off', channel=7, note=35, velocity=71, time=128),
    Message('note_on', channel=7, note=35, velocity=113, time=64),
    Message('note_off', channel=7, note=35, velocity=71, time=128),
    Message('note_on', channel=7, note=43, velocity=113, time=64),
    Message('note_off', channel=7, note=43, velocity=71, time=64),
    Message('note_on', channel=7, note=27, velocity=113, time=32),
    Message('note_off', channel=7, note=27, velocity=71, time=64),
    Message('note_on', channel=7, note=27, velocity=113, time=32),
    Message('note_off', channel=7, note=27, velocity=71, time=64),
    Message('note_on', channel=7, note=43, velocity=113, time=32),
    Message('note_off', channel=7, note=43, velocity=71, time=64),
    Message('note_on', channel=7, note=27, velocity=113, time=32),
    Message('note_off', channel=7, note=27, velocity=71, time=64),
    Message('note_on', channel=7, note=27, velocity=113, time=32),
    Message('note_off', channel=7, note=27, velocity=71, time=64),
    Message('note_on', channel=7, note=43, velocity=113, time=32),
    Message('note_off', channel=7, note=43, velocity=71, time=64),
    Message('note_on', channel=7, note=27, velocity=113, time=32),
    Message('note_off', channel=7, note=27, velocity=71, time=64),
    Message('note_on', channel=7, note=37, velocity=113, time=32),
    Message('note_off', channel=7, note=37, velocity=71, time=192),
    Message('note_on', channel=7, note=37, velocity=113, time=96),
    Message('note_off', channel=7, note=37, velocity=71, time=64),
    Message('note_on', channel=7, note=37, velocity=113, time=32),
    Message('note_off', channel=7, note=37, velocity=71, time=128),
    Message('note_on', channel=7, note=37, velocity=113, time=64),
    Message('note_off', channel=7, note=37, velocity=71, time=64),
    Message('note_on', channel=7, note=34, velocity=113, time=32),
    Message('note_off', channel=7, note=34, velocity=71, time=64),
    Message('note_on', channel=7, note=35, velocity=113, time=32),
    Message('note_off', channel=7, note=35, velocity=71, time=192),
    Message('note_on', channel=7, note=35, velocity=113, time=96),
    Message('note_off', channel=7, note=35, velocity=71, time=64),
    Message('note_on', channel=7, note=35, velocity=113, time=32),
    Message('note_off', channel=7, note=35, velocity=71, time=128),
    Message('note_on', channel=7, note=35, velocity=113, time=64),
    Message('note_off', channel=7, note=35, velocity=71, time=128),
    Message('note_on', channel=7, note=43, velocity=113, time=64),
    Message('note_off', channel=7, note=43, velocity=71, time=64),
    Message('note_on', channel=7, note=27, velocity=113, time=32),
    Message('note_off', channel=7, note=27, velocity=71, time=64),
    Message('note_on', channel=7, note=27, velocity=113, time=32),
    Message('note_off', channel=7, note=27, velocity=71, time=64),
    Message('note_on', channel=7, note=43, velocity=113, time=32),
    Message('note_off', channel=7, note=43, velocity=71, time=64),
    Message('note_on', channel=7, note=27, velocity=113, time=32),
    Message('note_off', channel=7, note=27, velocity=71, time=64),
    Message('note_on', channel=7, note=27, velocity=113, time=32),
    Message('note_off', channel=7, note=27, velocity=71, time=64),
    Message('note_on', channel=7, note=43, velocity=113, time=32),
    Message('note_off', channel=7, note=43, velocity=71, time=64),
    Message('note_on', channel=7, note=27, velocity=113, time=32),
    Message('note_off', channel=7, note=27, velocity=71, time=64),
    Message('note_on', channel=7, note=37, velocity=113, time=32),
    Message('note_off', channel=7, note=37, velocity=71, time=192),
    Message('note_on', channel=7, note=37, velocity=113, time=96),
    Message('note_off', channel=7, note=37, velocity=71, time=64),
    Message('note_on', channel=7, note=37, velocity=113, time=32),
    Message('note_off', channel=7, note=37, velocity=71, time=128),
    Message('note_on', channel=7, note=37, velocity=113, time=64),
    Message('note_off', channel=7, note=37, velocity=71, time=64),
    Message('note_on', channel=7, note=34, velocity=113, time=32),
    Message('note_off', channel=7, note=34, velocity=71, time=64),
    Message('note_on', channel=7, note=35, velocity=113, time=32),
    Message('note_off', channel=7, note=35, velocity=71, time=192),
    Message('note_on', channel=7, note=35, velocity=113, time=96),
    Message('note_off', channel=7, note=35, velocity=71, time=64),
    Message('note_on', channel=7, note=35, velocity=113, time=32),
    Message('note_off', channel=7, note=35, velocity=71, time=128),
    Message('note_on', channel=7, note=35, velocity=113, time=64),
    Message('note_off', channel=7, note=35, velocity=71, time=64),
    Message('note_on', channel=7, note=34, velocity=113, time=32),
    Message('note_off', channel=7, note=34, velocity=71, time=64),
    Message('note_on', channel=7, note=39, velocity=113, time=32),
    Message('note_off', channel=7, note=39, velocity=71, time=64),
    Message('note_on', channel=7, note=39, velocity=113, time=32),
    Message('note_off', channel=7, note=39, velocity=71, time=64),
    Message('note_on', channel=7, note=39, velocity=113, time=32),
    Message('note_off', channel=7, note=39, velocity=71, time=64),
    Message('note_on', channel=7, note=39, velocity=113, time=32),
    Message('note_off', channel=7, note=39, velocity=71, time=64),
    Message('note_on', channel=7, note=39, velocity=113, time=32),
    Message('note_off', channel=7, note=39, velocity=71, time=64),
    Message('note_on', channel=7, note=39, velocity=113, time=32),
    Message('note_off', channel=7, note=39, velocity=71, time=64),
    Message('note_on', channel=7, note=39, velocity=113, time=32),
    Message('note_off', channel=7, note=39, velocity=71, time=64),
    Message('note_on', channel=7, note=34, velocity=113, time=32),
    Message('note_off', channel=7, note=34, velocity=71, time=64),
    Message('note_on', channel=7, note=37, velocity=113, time=32),
    Message('note_off', channel=7, note=37, velocity=71, time=192),
    Message('note_on', channel=7, note=37, velocity=113, time=96),
    Message('note_off', channel=7, note=37, velocity=71, time=64),
    Message('note_on', channel=7, note=37, velocity=113, time=32),
    Message('note_off', channel=7, note=37, velocity=71, time=128),
    Message('note_on', channel=7, note=37, velocity=113, time=64),
    Message('note_off', channel=7, note=37, velocity=71, time=64),
    Message('note_on', channel=7, note=34, velocity=113, time=32),
    Message('note_off', channel=7, note=34, velocity=71, time=64),
    Message('note_on', channel=7, note=35, velocity=113, time=32),
    Message('note_off', channel=7, note=35, velocity=71, time=192),
    Message('note_on', channel=7, note=35, velocity=113, time=96),
    Message('note_off', channel=7, note=35, velocity=71, time=64),
    Message('note_on', channel=7, note=35, velocity=113, time=32),
    Message('note_off', channel=7, note=35, velocity=71, time=128),
    Message('note_on', channel=7, note=35, velocity=113, time=64),
    Message('note_off', channel=7, note=35, velocity=71, time=64),
    Message('note_on', channel=7, note=34, velocity=113, time=32),
    Message('note_off', channel=7, note=34, velocity=71, time=64),
    Message('note_on', channel=7, note=43, velocity=113, time=32),
    Message('note_off', channel=7, note=43, velocity=71, time=64),
    Message('note_on', channel=7, note=46, velocity=113, time=32),
    Message('note_off', channel=7, note=46, velocity=71, time=64),
    Message('note_on', channel=7, note=43, velocity=113, time=32),
    Message('note_off', channel=7, note=43, velocity=71, time=64),
    Message('note_on', channel=7, note=27, velocity=113, time=32),
    Message('note_off', channel=7, note=27, velocity=71, time=64),
    Message('note_on', channel=7, note=43, velocity=113, time=32),
    Message('note_off', channel=7, note=43, velocity=71, time=64),
    Message('note_on', channel=7, note=27, velocity=113, time=32),
    Message('note_off', channel=7, note=27, velocity=71, time=64),
    Message('note_on', channel=7, note=43, velocity=113, time=32),
    Message('note_off', channel=7, note=43, velocity=71, time=64),
    Message('note_on', channel=7, note=34, velocity=113, time=32),
    Message('note_off', channel=7, note=34, velocity=71, time=64),
    Message('note_on', channel=7, note=37, velocity=113, time=32),
    Message('note_off', channel=7, note=37, velocity=71, time=192),
    Message('note_on', channel=7, note=37, velocity=113, time=96),
    Message('note_off', channel=7, note=37, velocity=71, time=64),
    Message('note_on', channel=7, note=37, velocity=113, time=32),
    Message('note_off', channel=7, note=37, velocity=71, time=128),
    Message('note_on', channel=7, note=37, velocity=113, time=64),
    Message('note_off', channel=7, note=37, velocity=71, time=64),
    Message('note_on', channel=7, note=34, velocity=113, time=32),
    Message('note_off', channel=7, note=34, velocity=71, time=64),
    Message('note_on', channel=7, note=35, velocity=113, time=32),
    Message('note_off', channel=7, note=35, velocity=71, time=192),
    Message('note_on', channel=7, note=35, velocity=113, time=96),
    Message('note_off', channel=7, note=35, velocity=71, time=64),
    Message('note_on', channel=7, note=35, velocity=113, time=32),
    Message('note_off', channel=7, note=35, velocity=71, time=128),
    Message('note_on', channel=7, note=35, velocity=113, time=64),
    Message('note_off', channel=7, note=35, velocity=71, time=64),
    Message('note_on', channel=7, note=34, velocity=113, time=32),
    Message('note_off', channel=7, note=34, velocity=71, time=64),
    Message('note_on', channel=7, note=43, velocity=113, time=32),
    Message('note_off', channel=7, note=43, velocity=71, time=64),
    Message('note_on', channel=7, note=46, velocity=113, time=32),
    Message('note_off', channel=7, note=46, velocity=71, time=64),
    Message('note_on', channel=7, note=43, velocity=113, time=32),
    Message('note_off', channel=7, note=43, velocity=71, time=64),
    Message('note_on', channel=7, note=27, velocity=113, time=32),
    Message('note_off', channel=7, note=27, velocity=71, time=64),
    Message('note_on', channel=7, note=43, velocity=113, time=32),
    Message('note_off', channel=7, note=43, velocity=71, time=64),
    Message('note_on', channel=7, note=27, velocity=113, time=32),
    Message('note_off', channel=7, note=27, velocity=71, time=64),
    Message('note_on', channel=7, note=43, velocity=113, time=32),
    Message('note_off', channel=7, note=43, velocity=71, time=64),
    Message('note_on', channel=7, note=34, velocity=113, time=32),
    Message('note_off', channel=7, note=34, velocity=71, time=64),
    Message('note_on', channel=7, note=37, velocity=113, time=32),
    Message('note_off', channel=7, note=37, velocity=71, time=192),
    Message('note_on', channel=7, note=37, velocity=113, time=96),
    Message('note_off', channel=7, note=37, velocity=71, time=64),
    Message('note_on', channel=7, note=37, velocity=113, time=32),
    Message('note_off', channel=7, note=37, velocity=71, time=128),
    Message('note_on', channel=7, note=37, velocity=113, time=64),
    Message('note_off', channel=7, note=37, velocity=71, time=64),
    Message('note_on', channel=7, note=34, velocity=113, time=32),
    Message('note_off', channel=7, note=34, velocity=71, time=64),
    Message('note_on', channel=7, note=35, velocity=113, time=32),
    Message('note_off', channel=7, note=35, velocity=71, time=192),
    Message('note_on', channel=7, note=35, velocity=113, time=96),
    Message('note_off', channel=7, note=35, velocity=71, time=64),
    Message('note_on', channel=7, note=35, velocity=113, time=32),
    Message('note_off', channel=7, note=35, velocity=71, time=128),
    Message('note_on', channel=7, note=35, velocity=113, time=64),
    Message('note_off', channel=7, note=35, velocity=71, time=64),
    Message('note_on', channel=7, note=34, velocity=113, time=32),
    Message('note_off', channel=7, note=34, velocity=71, time=64),
    Message('note_on', channel=7, note=43, velocity=113, time=32),
    Message('note_off', channel=7, note=43, velocity=71, time=64),
    Message('note_on', channel=7, note=46, velocity=113, time=32),
    Message('note_off', channel=7, note=46, velocity=71, time=64),
    Message('note_on', channel=7, note=43, velocity=113, time=32),
    Message('note_off', channel=7, note=43, velocity=71, time=64),
    Message('note_on', channel=7, note=27, velocity=113, time=32),
    Message('note_off', channel=7, note=27, velocity=71, time=64),
    Message('note_on', channel=7, note=43, velocity=113, time=32),
    Message('note_off', channel=7, note=43, velocity=71, time=64),
    Message('note_on', channel=7, note=27, velocity=113, time=32),
    Message('note_off', channel=7, note=27, velocity=71, time=64),
    Message('note_on', channel=7, note=43, velocity=113, time=32),
    Message('note_off', channel=7, note=43, velocity=71, time=64),
    Message('note_on', channel=7, note=34, velocity=113, time=32),
    Message('note_off', channel=7, note=34, velocity=71, time=64),
    Message('note_on', channel=7, note=37, velocity=113, time=32),
    Message('note_off', channel=7, note=37, velocity=71, time=64),
    Message('note_on', channel=7, note=36, velocity=113, time=32),
    Message('note_off', channel=7, note=36, velocity=71, time=128),
    Message('note_on', channel=7, note=34, velocity=113, time=64),
    Message('note_off', channel=7, note=34, velocity=71, time=128),
    Message('note_on', channel=7, note=36, velocity=113, time=64),
    Message('note_on', channel=7, note=37, velocity=113, time=10),
    Message('note_off', channel=7, note=36, velocity=71, time=22),
    Message('note_off', channel=7, note=37, velocity=71, time=42),
    Message('note_on', channel=7, note=32, velocity=113, time=22),
    Message('note_off', channel=7, note=32, velocity=71, time=64),
    Message('note_on', channel=7, note=31, velocity=113, time=32),
    Message('note_off', channel=7, note=31, velocity=71, time=128),
    Message('note_on', channel=7, note=30, velocity=113, time=64),
    Message('note_off', channel=7, note=30, velocity=71, time=128),
    Message('note_on', channel=7, note=30, velocity=113, time=64),
    Message('note_off', channel=7, note=30, velocity=71, time=64),
    Message('note_on', channel=7, note=30, velocity=113, time=32),
    Message('note_off', channel=7, note=30, velocity=71, time=192),
    Message('note_on', channel=7, note=30, velocity=113, time=96),
    Message('note_off', channel=7, note=30, velocity=71, time=64),
    Message('note_on', channel=7, note=30, velocity=113, time=32),
    Message('note_off', channel=7, note=30, velocity=71, time=64),
    Message('note_on', channel=7, note=27, velocity=113, time=32),
    Message('note_off', channel=7, note=27, velocity=71, time=64),
    Message('note_on', channel=7, note=30, velocity=113, time=32),
    Message('note_off', channel=7, note=30, velocity=71, time=64),
    Message('note_on', channel=7, note=32, velocity=113, time=32),
    Message('note_off', channel=7, note=32, velocity=71, time=64),
    Message('note_on', channel=7, note=32, velocity=113, time=32),
    Message('note_off', channel=7, note=32, velocity=71, time=1540),
    Message('control_change', channel=7, control=1, value=0, time=1340),
    MetaMessage('end_of_track', time=0)]),
  MidiTrack([
    MetaMessage('track_name', name='Matt Cameron -Drums-', time=0),
    Message('control_change', channel=9, control=0, value=0, time=0),
    Message('program_change', channel=9, program=126, time=0),
    MetaMessage('key_signature', key='C', time=0),
    Message('note_on', channel=9, note=36, velocity=100, time=5472),
    Message('note_off', channel=9, note=36, velocity=64, time=64),
    Message('note_on', channel=9, note=38, velocity=100, time=32),
    Message('note_off', channel=9, note=38, velocity=64, time=64),
    Message('note_on', channel=9, note=51, velocity=100, time=128),
    Message('note_on', channel=9, note=46, velocity=100, time=0),
    Message('note_on', channel=9, note=55, velocity=100, time=0),
    Message('note_on', channel=9, note=57, velocity=100, time=0),
    Message('note_on', channel=9, note=49, velocity=100, time=0),
    Message('note_on', channel=9, note=36, velocity=100, time=0),
    Message('note_off', channel=9, note=51, velocity=64, time=64),
    Message('note_off', channel=9, note=55, velocity=64, time=0),
    Message('note_off', channel=9, note=57, velocity=64, time=0),
    Message('note_off', channel=9, note=49, velocity=64, time=0),
    Message('note_off', channel=9, note=36, velocity=64, time=0),
    Message('note_off', channel=9, note=46, velocity=64, time=64),
    Message('note_on', channel=9, note=51, velocity=100, time=64),
    Message('note_on', channel=9, note=42, velocity=100, time=0),
    Message('note_off', channel=9, note=51, velocity=64, time=64),
    Message('note_off', channel=9, note=42, velocity=64, time=0),
    Message('note_on', channel=9, note=36, velocity=100, time=32),
    Message('note_off', channel=9, note=36, velocity=64, time=64),
    Message('note_on', channel=9, note=51, velocity=100, time=32),
    Message('note_on', channel=9, note=42, velocity=100, time=0),
    Message('note_on', channel=9, note=38, velocity=100, time=0),
    Message('note_off', channel=9, note=51, velocity=64, time=64),
    Message('note_off', channel=9, note=42, velocity=64, time=0),
    Message('note_off', channel=9, note=38, velocity=64, time=0),
    Message('note_on', channel=9, note=51, velocity=100, time=128),
    Message('note_on', channel=9, note=42, velocity=100, time=0),
    Message('note_off', channel=9, note=51, velocity=64, time=64),
    Message('note_off', channel=9, note=42, velocity=64, time=0),
    Message('note_on', channel=9, note=36, velocity=100, time=32),
    Message('note_off', channel=9, note=36, velocity=64, time=64),
    Message('note_on', channel=9, note=51, velocity=100, time=32),
    Message('note_on', channel=9, note=46, velocity=100, time=0),
    Message('note_on', channel=9, note=55, velocity=100, time=0),
    Message('note_on', channel=9, note=36, velocity=100, time=0),
    Message('note_off', channel=9, note=51, velocity=64, time=64),
    Message('note_off', channel=9, note=55, velocity=64, time=0),
    Message('note_off', channel=9, note=36, velocity=64, time=0),
    Message('note_off', channel=9, note=46, velocity=64, time=64),
    Message('note_on', channel=9, note=51, velocity=100, time=64),
    Message('note_on', channel=9, note=42, velocity=100, time=0),
    Message('note_off', channel=9, note=51, velocity=64, time=64),
    Message('note_off', channel=9, note=42, velocity=64, time=0),
    Message('note_on', channel=9, note=51, velocity=100, time=128),
    Message('note_on', channel=9, note=42, velocity=100, time=0),
    Message('note_on', channel=9, note=38, velocity=100, time=0),
    Message('note_off', channel=9, note=51, velocity=64, time=64),
    Message('note_off', channel=9, note=42, velocity=64, time=0),
    Message('note_off', channel=9, note=38, velocity=64, time=0),
    Message('note_on', channel=9, note=51, velocity=100, time=128),
    Message('note_on', channel=9, note=42, velocity=100, time=0),
    Message('note_off', channel=9, note=51, velocity=64, time=64),
    Message('note_off', channel=9, note=42, velocity=64, time=0),
    Message('note_on', channel=9, note=36, velocity=100, time=32),
    Message('note_off', channel=9, note=36, velocity=64, time=64),
    Message('note_on', channel=9, note=51, velocity=100, time=32),
    Message('note_on', channel=9, note=46, velocity=100, time=0),
    Message('note_on', channel=9, note=55, velocity=100, time=0),
    Message('note_on', channel=9, note=36, velocity=100, time=0),
    Message('note_off', channel=9, note=51, velocity=64, time=64),
    Message('note_off', channel=9, note=55, velocity=64, time=0),
    Message('note_off', channel=9, note=36, velocity=64, time=0),
    Message('note_off', channel=9, note=46, velocity=64, time=64),
    Message('note_on', channel=9, note=51, velocity=100, time=64),
    Message('note_on', channel=9, note=42, velocity=100, time=0),
    Message('note_off', channel=9, note=51, velocity=64, time=64),
    Message('note_off', channel=9, note=42, velocity=64, time=0),
    Message('note_on', channel=9, note=51, velocity=100, time=128),
    Message('note_on', channel=9, note=42, velocity=100, time=0),
    Message('note_on', channel=9, note=38, velocity=100, time=0),
    Message('note_off', channel=9, note=51, velocity=64, time=64),
    Message('note_off', channel=9, note=42, velocity=64, time=0),
    Message('note_off', channel=9, note=38, velocity=64, time=0),
    Message('note_on', channel=9, note=51, velocity=100, time=128),
    Message('note_on', channel=9, note=42, velocity=100, time=0),
    Message('note_off', channel=9, note=51, velocity=64, time=64),
    Message('note_off', channel=9, note=42, velocity=64, time=0),
    Message('note_on', channel=9, note=36, velocity=100, time=32),
    Message('note_off', channel=9, note=36, velocity=64, time=64),
    Message('note_on', channel=9, note=51, velocity=100, time=32),
    Message('note_on', channel=9, note=46, velocity=100, time=0),
    Message('note_on', channel=9, note=55, velocity=100, time=0),
    Message('note_on', channel=9, note=36, velocity=100, time=0),
    Message('note_off', channel=9, note=51, velocity=64, time=64),
    Message('note_off', channel=9, note=55, velocity=64, time=0),
    Message('note_off', channel=9, note=36, velocity=64, time=0),
    Message('note_off', channel=9, note=46, velocity=64, time=64),
    Message('note_on', channel=9, note=51, velocity=100, time=64),
    Message('note_on', channel=9, note=42, velocity=100, time=0),
    Message('note_on', channel=9, note=36, velocity=100, time=0),
    Message('note_off', channel=9, note=51, velocity=64, time=64),
    Message('note_off', channel=9, note=42, velocity=64, time=0),
    Message('note_off', channel=9, note=36, velocity=64, time=0),
    Message('note_on', channel=9, note=51, velocity=100, time=128),
    Message('note_on', channel=9, note=42, velocity=100, time=0),
    Message('note_on', channel=9, note=38, velocity=100, time=0),
    Message('note_off', channel=9, note=51, velocity=64, time=64),
    Message('note_off', channel=9, note=42, velocity=64, time=0),
    Message('note_off', channel=9, note=38, velocity=64, time=0),
    Message('note_on', channel=9, note=36, velocity=100, time=32),
    Message('note_off', channel=9, note=36, velocity=64, time=64),
    Message('note_on', channel=9, note=51, velocity=100, time=32),
    Message('note_on', channel=9, note=42, velocity=100, time=0),
    Message('note_off', channel=9, note=51, velocity=64, time=64),
    Message('note_off', channel=9, note=42, velocity=64, time=0),
    Message('note_on', channel=9, note=36, velocity=100, time=32),
    Message('note_off', channel=9, note=36, velocity=64, time=64),
    Message('note_on', channel=9, note=51, velocity=100, time=32),
    Message('note_on', channel=9, note=46, velocity=100, time=0),
    Message('note_on', channel=9, note=55, velocity=100, time=0),
    Message('note_on', channel=9, note=36, velocity=100, time=0),
    Message('note_off', channel=9, note=51, velocity=64, time=64),
    Message('note_off', channel=9, note=55, velocity=64, time=0),
    Message('note_off', channel=9, note=36, velocity=64, time=0),
    Message('note_off', channel=9, note=46, velocity=64, time=64),
    Message('note_on', channel=9, note=51, velocity=100, time=64),
    Message('note_on', channel=9, note=42, velocity=100, time=0),
    Message('note_off', channel=9, note=51, velocity=64, time=64),
    Message('note_off', channel=9, note=42, velocity=64, time=0),
    Message('note_on', channel=9, note=51, velocity=100, time=128),
    Message('note_on', channel=9, note=42, velocity=100, time=0),
    Message('note_on', channel=9, note=38, velocity=100, time=0),
    Message('note_off', channel=9, note=51, velocity=64, time=64),
    Message('note_off', channel=9, note=42, velocity=64, time=0),
    Message('note_off', channel=9, note=38, velocity=64, time=0),
    Message('note_on', channel=9, note=51, velocity=100, time=128),
    Message('note_on', channel=9, note=42, velocity=100, time=0),
    Message('note_off', channel=9, note=51, velocity=64, time=64),
    Message('note_off', channel=9, note=42, velocity=64, time=0),
    Message('note_on', channel=9, note=36, velocity=100, time=32),
    Message('note_off', channel=9, note=36, velocity=64, time=64),
    Message('note_on', channel=9, note=51, velocity=100, time=32),
    Message('note_on', channel=9, note=46, velocity=100, time=0),
    Message('note_on', channel=9, note=55, velocity=100, time=0),
    Message('note_on', channel=9, note=36, velocity=100, time=0),
    Message('note_off', channel=9, note=51, velocity=64, time=64),
    Message('note_off', channel=9, note=55, velocity=64, time=0),
    Message('note_off', channel=9, note=36, velocity=64, time=0),
    Message('note_off', channel=9, note=46, velocity=64, time=64),
    Message('note_on', channel=9, note=51, velocity=100, time=64),
    Message('note_on', channel=9, note=42, velocity=100, time=0),
    Message('note_on', channel=9, note=36, velocity=100, time=0),
    Message('note_off', channel=9, note=51, velocity=64, time=64),
    Message('note_off', channel=9, note=42, velocity=64, time=0),
    Message('note_off', channel=9, note=36, velocity=64, time=0),
    Message('note_on', channel=9, note=51, velocity=100, time=128),
    Message('note_on', channel=9, note=42, velocity=100, time=0),
    Message('note_on', channel=9, note=38, velocity=100, time=0),
    Message('note_off', channel=9, note=51, velocity=64, time=64),
    Message('note_off', channel=9, note=42, velocity=64, time=0),
    Message('note_off', channel=9, note=38, velocity=64, time=0),
    Message('note_on', channel=9, note=36, velocity=100, time=32),
    Message('note_off', channel=9, note=36, velocity=64, time=64),
    Message('note_on', channel=9, note=51, velocity=100, time=32),
    Message('note_on', channel=9, note=42, velocity=100, time=0),
    Message('note_off', channel=9, note=51, velocity=64, time=64),
    Message('note_off', channel=9, note=42, velocity=64, time=0),
    Message('note_on', channel=9, note=36, velocity=100, time=32),
    Message('note_off', channel=9, note=36, velocity=64, time=64),
    Message('note_on', channel=9, note=51, velocity=100, time=32),
    Message('note_on', channel=9, note=46, velocity=100, time=0),
    Message('note_on', channel=9, note=55, velocity=100, time=0),
    Message('note_on', channel=9, note=36, velocity=100, time=0),
    Message('note_off', channel=9, note=51, velocity=64, time=64),
    Message('note_off', channel=9, note=55, velocity=64, time=0),
    Message('note_off', channel=9, note=36, velocity=64, time=0),
    Message('note_off', channel=9, note=46, velocity=64, time=64),
    Message('note_on', channel=9, note=51, velocity=100, time=64),
    Message('note_on', channel=9, note=42, velocity=100, time=0),
    Message('note_off', channel=9, note=51, velocity=64, time=64),
    Message('note_off', channel=9, note=42, velocity=64, time=0),
    Message('note_on', channel=9, note=51, velocity=100, time=128),
    Message('note_on', channel=9, note=42, velocity=100, time=0),
    Message('note_on', channel=9, note=38, velocity=100, time=0),
    Message('note_off', channel=9, note=51, velocity=64, time=64),
    Message('note_off', channel=9, note=42, velocity=64, time=0),
    Message('note_off', channel=9, note=38, velocity=64, time=0),
    Message('note_on', channel=9, note=51, velocity=100, time=128),
    Message('note_on', channel=9, note=42, velocity=100, time=0),
    Message('note_off', channel=9, note=51, velocity=64, time=64),
    Message('note_off', channel=9, note=42, velocity=64, time=0),
    Message('note_on', channel=9, note=36, velocity=100, time=32),
    Message('note_off', channel=9, note=36, velocity=64, time=64),
    Message('note_on', channel=9, note=51, velocity=100, time=32),
    Message('note_on', channel=9, note=46, velocity=100, time=0),
    Message('note_on', channel=9, note=55, velocity=100, time=0),
    Message('note_on', channel=9, note=36, velocity=100, time=0),
    Message('note_off', channel=9, note=51, velocity=64, time=64),
    Message('note_off', channel=9, note=55, velocity=64, time=0),
    Message('note_off', channel=9, note=36, velocity=64, time=0),
    Message('note_off', channel=9, note=46, velocity=64, time=64),
    Message('note_on', channel=9, note=36, velocity=100, time=352),
    Message('note_off', channel=9, note=36, velocity=64, time=64),
    Message('note_on', channel=9, note=38, velocity=100, time=32),
    Message('note_off', channel=9, note=38, velocity=64, time=64),
    Message('note_on', channel=9, note=51, velocity=100, time=128),
    Message('note_on', channel=9, note=46, velocity=100, time=0),
    Message('note_on', channel=9, note=55, velocity=100, time=0),
    Message('note_on', channel=9, note=57, velocity=100, time=0),
    Message('note_on', channel=9, note=49, velocity=100, time=0),
    Message('note_on', channel=9, note=36, velocity=100, time=0),
    Message('note_off', channel=9, note=51, velocity=64, time=64),
    Message('note_off', channel=9, note=55, velocity=64, time=0),
    Message('note_off', channel=9, note=57, velocity=64, time=0),
    Message('note_off', channel=9, note=49, velocity=64, time=0),
    Message('note_off', channel=9, note=36, velocity=64, time=0),
    Message('note_off', channel=9, note=46, velocity=64, time=64),
    Message('note_on', channel=9, note=51, velocity=100, time=64),
    Message('note_on', channel=9, note=42, velocity=100, time=0),
    Message('note_off', channel=9, note=51, velocity=64, time=64),
    Message('note_off', channel=9, note=42, velocity=64, time=0),
    Message('note_on', channel=9, note=36, velocity=100, time=32),
    Message('note_off', channel=9, note=36, velocity=64, time=64),
    Message('note_on', channel=9, note=51, velocity=100, time=32),
    Message('note_on', channel=9, note=42, velocity=100, time=0),
    Message('note_on', channel=9, note=38, velocity=100, time=0),
    Message('note_off', channel=9, note=51, velocity=64, time=64),
    Message('note_off', channel=9, note=42, velocity=64, time=0),
    Message('note_off', channel=9, note=38, velocity=64, time=0),
    Message('note_on', channel=9, note=51, velocity=100, time=128),
    Message('note_on', channel=9, note=42, velocity=100, time=0),
    Message('note_off', channel=9, note=51, velocity=64, time=64),
    Message('note_off', channel=9, note=42, velocity=64, time=0),
    Message('note_on', channel=9, note=36, velocity=100, time=32),
    Message('note_off', channel=9, note=36, velocity=64, time=64),
    Message('note_on', channel=9, note=51, velocity=100, time=32),
    Message('note_on', channel=9, note=46, velocity=100, time=0),
    Message('note_on', channel=9, note=55, velocity=100, time=0),
    Message('note_on', channel=9, note=36, velocity=100, time=0),
    Message('note_off', channel=9, note=51, velocity=64, time=64),
    Message('note_off', channel=9, note=55, velocity=64, time=0),
    Message('note_off', channel=9, note=36, velocity=64, time=0),
    Message('note_off', channel=9, note=46, velocity=64, time=64),
    Message('note_on', channel=9, note=51, velocity=100, time=64),
    Message('note_on', channel=9, note=42, velocity=100, time=0),
    Message('note_off', channel=9, note=51, velocity=64, time=64),
    Message('note_off', channel=9, note=42, velocity=64, time=0),
    Message('note_on', channel=9, note=51, velocity=100, time=128),
    Message('note_on', channel=9, note=42, velocity=100, time=0),
    Message('note_on', channel=9, note=38, velocity=100, time=0),
    Message('note_off', channel=9, note=51, velocity=64, time=64),
    Message('note_off', channel=9, note=42, velocity=64, time=0),
    Message('note_off', channel=9, note=38, velocity=64, time=0),
    Message('note_on', channel=9, note=51, velocity=100, time=128),
    Message('note_on', channel=9, note=42, velocity=100, time=0),
    Message('note_off', channel=9, note=51, velocity=64, time=64),
    Message('note_off', channel=9, note=42, velocity=64, time=0),
    Message('note_on', channel=9, note=36, velocity=100, time=32),
    Message('note_off', channel=9, note=36, velocity=64, time=64),
    Message('note_on', channel=9, note=51, velocity=100, time=32),
    Message('note_on', channel=9, note=46, velocity=100, time=0),
    Message('note_on', channel=9, note=55, velocity=100, time=0),
    Message('note_on', channel=9, note=36, velocity=100, time=0),
    Message('note_off', channel=9, note=51, velocity=64, time=64),
    Message('note_off', channel=9, note=55, velocity=64, time=0),
    Message('note_off', channel=9, note=36, velocity=64, time=0),
    Message('note_off', channel=9, note=46, velocity=64, time=64),
    Message('note_on', channel=9, note=51, velocity=100, time=64),
    Message('note_on', channel=9, note=42, velocity=100, time=0),
    Message('note_off', channel=9, note=51, velocity=64, time=64),
    Message('note_off', channel=9, note=42, velocity=64, time=0),
    Message('note_on', channel=9, note=51, velocity=100, time=128),
    Message('note_on', channel=9, note=42, velocity=100, time=0),
    Message('note_on', channel=9, note=38, velocity=100, time=0),
    Message('note_off', channel=9, note=51, velocity=64, time=64),
    Message('note_off', channel=9, note=42, velocity=64, time=0),
    Message('note_off', channel=9, note=38, velocity=64, time=0),
    Message('note_on', channel=9, note=51, velocity=100, time=128),
    Message('note_on', channel=9, note=42, velocity=100, time=0),
    Message('note_off', channel=9, note=51, velocity=64, time=64),
    Message('note_off', channel=9, note=42, velocity=64, time=0),
    Message('note_on', channel=9, note=36, velocity=100, time=32),
    Message('note_off', channel=9, note=36, velocity=64, time=64),
    Message('note_on', channel=9, note=51, velocity=100, time=32),
    Message('note_on', channel=9, note=46, velocity=100, time=0),
    Message('note_on', channel=9, note=55, velocity=100, time=0),
    Message('note_on', channel=9, note=36, velocity=100, time=0),
    Message('note_off', channel=9, note=51, velocity=64, time=64),
    Message('note_off', channel=9, note=55, velocity=64, time=0),
    Message('note_off', channel=9, note=36, velocity=64, time=0),
    Message('note_off', channel=9, note=46, velocity=64, time=64),
    Message('note_on', channel=9, note=51, velocity=100, time=64),
    Message('note_on', channel=9, note=42, velocity=100, time=0),
    Message('note_on', channel=9, note=36, velocity=100, time=0),
    Message('note_off', channel=9, note=51, velocity=64, time=64),
    Message('note_off', channel=9, note=42, velocity=64, time=0),
    Message('note_off', channel=9, note=36, velocity=64, time=0),
    Message('note_on', channel=9, note=51, velocity=100, time=128),
    Message('note_on', channel=9, note=42, velocity=100, time=0),
    Message('note_on', channel=9, note=38, velocity=100, time=0),
    Message('note_off', channel=9, note=51, velocity=64, time=64),
    Message('note_off', channel=9, note=42, velocity=64, time=0),
    Message('note_off', channel=9, note=38, velocity=64, time=0),
    Message('note_on', channel=9, note=36, velocity=100, time=32),
    Message('note_off', channel=9, note=36, velocity=64, time=64),
    Message('note_on', channel=9, note=51, velocity=100, time=32),
    Message('note_on', channel=9, note=42, velocity=100, time=0),
    Message('note_off', channel=9, note=51, velocity=64, time=64),
    Message('note_off', channel=9, note=42, velocity=64, time=0),
    Message('note_on', channel=9, note=36, velocity=100, time=32),
    Message('note_off', channel=9, note=36, velocity=64, time=64),
    Message('note_on', channel=9, note=51, velocity=100, time=32),
    Message('note_on', channel=9, note=46, velocity=100, time=0),
    Message('note_on', channel=9, note=55, velocity=100, time=0),
    Message('note_on', channel=9, note=36, velocity=100, time=0),
    Message('note_off', channel=9, note=51, velocity=64, time=64),
    Message('note_off', channel=9, note=55, velocity=64, time=0),
    Message('note_off', channel=9, note=36, velocity=64, time=0),
    Message('note_off', channel=9, note=46, velocity=64, time=64),
    Message('note_on', channel=9, note=51, velocity=100, time=64),
    Message('note_on', channel=9, note=42, velocity=100, time=0),
    Message('note_off', channel=9, note=51, velocity=64, time=64),
    Message('note_off', channel=9, note=42, velocity=64, time=0),
    Message('note_on', channel=9, note=51, velocity=100, time=128),
    Message('note_on', channel=9, note=42, velocity=100, time=0),
    Message('note_on', channel=9, note=38, velocity=100, time=0),
    Message('note_off', channel=9, note=51, velocity=64, time=64),
    Message('note_off', channel=9, note=42, velocity=64, time=0),
    Message('note_off', channel=9, note=38, velocity=64, time=0),
    Message('note_on', channel=9, note=51, velocity=100, time=128),
    Message('note_on', channel=9, note=42, velocity=100, time=0),
    Message('note_off', channel=9, note=51, velocity=64, time=64),
    Message('note_off', channel=9, note=42, velocity=64, time=0),
    Message('note_on', channel=9, note=36, velocity=100, time=32),
    Message('note_off', channel=9, note=36, velocity=64, time=64),
    Message('note_on', channel=9, note=51, velocity=100, time=32),
    Message('note_on', channel=9, note=46, velocity=100, time=0),
    Message('note_on', channel=9, note=55, velocity=100, time=0),
    Message('note_on', channel=9, note=36, velocity=100, time=0),
    Message('note_off', channel=9, note=51, velocity=64, time=64),
    Message('note_off', channel=9, note=55, velocity=64, time=0),
    Message('note_off', channel=9, note=36, velocity=64, time=0),
    Message('note_off', channel=9, note=46, velocity=64, time=64),
    Message('note_on', channel=9, note=51, velocity=100, time=64),
    Message('note_on', channel=9, note=42, velocity=100, time=0),
    Message('note_on', channel=9, note=36, velocity=100, time=0),
    Message('note_off', channel=9, note=51, velocity=64, time=64),
    Message('note_off', channel=9, note=42, velocity=64, time=0),
    Message('note_off', channel=9, note=36, velocity=64, time=0),
    Message('note_on', channel=9, note=51, velocity=100, time=128),
    Message('note_on', channel=9, note=42, velocity=100, time=0),
    Message('note_on', channel=9, note=38, velocity=100, time=0),
    Message('note_off', channel=9, note=51, velocity=64, time=64),
    Message('note_off', channel=9, note=42, velocity=64, time=0),
    Message('note_off', channel=9, note=38, velocity=64, time=0),
    Message('note_on', channel=9, note=36, velocity=100, time=32),
    Message('note_off', channel=9, note=36, velocity=64, time=64),
    Message('note_on', channel=9, note=51, velocity=100, time=32),
    Message('note_on', channel=9, note=42, velocity=100, time=0),
    Message('note_off', channel=9, note=51, velocity=64, time=64),
    Message('note_off', channel=9, note=42, velocity=64, time=0),
    Message('note_on', channel=9, note=36, velocity=100, time=32),
    Message('note_off', channel=9, note=36, velocity=64, time=64),
    Message('note_on', channel=9, note=51, velocity=100, time=32),
    Message('note_on', channel=9, note=46, velocity=100, time=0),
    Message('note_on', channel=9, note=55, velocity=100, time=0),
    Message('note_on', channel=9, note=36, velocity=100, time=0),
    Message('note_off', channel=9, note=51, velocity=64, time=64),
    Message('note_off', channel=9, note=55, velocity=64, time=0),
    Message('note_off', channel=9, note=36, velocity=64, time=0),
    Message('note_off', channel=9, note=46, velocity=64, time=64),
    Message('note_on', channel=9, note=51, velocity=100, time=64),
    Message('note_on', channel=9, note=42, velocity=100, time=0),
    Message('note_off', channel=9, note=51, velocity=64, time=64),
    Message('note_off', channel=9, note=42, velocity=64, time=0),
    Message('note_on', channel=9, note=51, velocity=100, time=128),
    Message('note_on', channel=9, note=42, velocity=100, time=0),
    Message('note_on', channel=9, note=38, velocity=100, time=0),
    Message('note_off', channel=9, note=51, velocity=64, time=64),
    Message('note_off', channel=9, note=42, velocity=64, time=0),
    Message('note_off', channel=9, note=38, velocity=64, time=0),
    Message('note_on', channel=9, note=51, velocity=100, time=128),
    Message('note_on', channel=9, note=42, velocity=100, time=0),
    Message('note_off', channel=9, note=51, velocity=64, time=64),
    Message('note_off', channel=9, note=42, velocity=64, time=0),
    Message('note_on', channel=9, note=36, velocity=100, time=32),
    Message('note_off', channel=9, note=36, velocity=64, time=64),
    Message('note_on', channel=9, note=51, velocity=100, time=32),
    Message('note_on', channel=9, note=46, velocity=100, time=0),
    Message('note_on', channel=9, note=55, velocity=100, time=0),
    Message('note_on', channel=9, note=36, velocity=100, time=0),
    Message('note_on', channel=9, note=57, velocity=100, time=0),
    Message('note_off', channel=9, note=51, velocity=64, time=64),
    Message('note_off', channel=9, note=55, velocity=64, time=0),
    Message('note_off', channel=9, note=36, velocity=64, time=0),
    Message('note_off', channel=9, note=57, velocity=64, time=0),
    Message('note_on', channel=9, note=36, velocity=100, time=32),
    Message('note_off', channel=9, note=46, velocity=64, time=32),
    Message('note_off', channel=9, note=36, velocity=64, time=32),
    Message('note_on', channel=9, note=57, velocity=100, time=32),
    Message('note_on', channel=9, note=49, velocity=100, time=0),
    Message('note_on', channel=9, note=38, velocity=100, time=0),
    Message('note_off', channel=9, note=57, velocity=64, time=64),
    Message('note_off', channel=9, note=49, velocity=64, time=0),
    Message('note_off', channel=9, note=38, velocity=64, time=0),
    Message('note_on', channel=9, note=38, velocity=100, time=512),
    Message('note_off', channel=9, note=38, velocity=64, time=64),
    Message('note_on', channel=9, note=38, velocity=100, time=32),
    Message('note_off', channel=9, note=38, velocity=64, time=64),
    Message('note_on', channel=9, note=36, velocity=100, time=32),
    Message('note_on', channel=9, note=35, velocity=100, time=0),
    Message('note_off', channel=9, note=36, velocity=64, time=64),
    Message('note_off', channel=9, note=35, velocity=64, time=0),
    Message('note_on', channel=9, note=33, velocity=100, time=128),
    Message('note_on', channel=9, note=35, velocity=100, time=0),
    Message('note_off', channel=9, note=33, velocity=64, time=64),
    Message('note_off', channel=9, note=35, velocity=64, time=0),
    Message('note_on', channel=9, note=35, velocity=100, time=80),
    Message('note_on', channel=9, note=33, velocity=100, time=0),
    Message('note_on', channel=9, note=38, velocity=100, time=0),
    Message('note_on', channel=9, note=35, velocity=100, time=48),
    Message('note_on', channel=9, note=33, velocity=100, time=0),
    Message('note_on', channel=9, note=38, velocity=100, time=0),
    Message('note_off', channel=9, note=35, velocity=64, time=16),
    Message('note_off', channel=9, note=33, velocity=64, time=0),
    Message('note_off', channel=9, note=38, velocity=64, time=0),
    Message('note_off', channel=9, note=35, velocity=64, time=48),
    Message('note_off', channel=9, note=33, velocity=64, time=0),
    Message('note_off', channel=9, note=38, velocity=64, time=0),
    Message('note_on', channel=9, note=57, velocity=100, time=128),
    Message('note_on', channel=9, note=49, velocity=100, time=0),
    Message('note_on', channel=9, note=36, velocity=100, time=0),
    Message('note_on', channel=9, note=51, velocity=100, time=0),
    Message('note_on', channel=9, note=46, velocity=100, time=0),
    Message('note_on', channel=9, note=55, velocity=100, time=0),
    Message('note_off', channel=9, note=57, velocity=64, time=64),
    Message('note_off', channel=9, note=49, velocity=64, time=0),
    Message('note_off', channel=9, note=36, velocity=64, time=0),
    Message('note_off', channel=9, note=51, velocity=64, time=0),
    Message('note_off', channel=9, note=55, velocity=64, time=0),
    Message('note_off', channel=9, note=46, velocity=64, time=64),
    Message('note_on', channel=9, note=51, velocity=100, time=64),
    Message('note_on', channel=9, note=42, velocity=100, time=0),
    Message('note_on', channel=9, note=55, velocity=100, time=0),
    Message('note_off', channel=9, note=51, velocity=64, time=64),
    Message('note_off', channel=9, note=42, velocity=64, time=0),
    Message('note_off', channel=9, note=55, velocity=64, time=0),
    Message('note_on', channel=9, note=36, velocity=100, time=32),
    Message('note_off', channel=9, note=36, velocity=64, time=64),
    Message('note_on', channel=9, note=38, velocity=100, time=32),
    Message('note_on', channel=9, note=51, velocity=100, time=0),
    Message('note_on', channel=9, note=42, velocity=100, time=0),
    Message('note_on', channel=9, note=55, velocity=100, time=0),
    Message('note_off', channel=9, note=38, velocity=64, time=64),
    Message('note_off', channel=9, note=51, velocity=64, time=0),
    Message('note_off', channel=9, note=42, velocity=64, time=0),
    Message('note_off', channel=9, note=55, velocity=64, time=0),
    Message('note_on', channel=9, note=51, velocity=100, time=128),
    Message('note_on', channel=9, note=42, velocity=100, time=0),
    Message('note_on', channel=9, note=55, velocity=100, time=0),
    Message('note_off', channel=9, note=51, velocity=64, time=64),
    Message('note_off', channel=9, note=42, velocity=64, time=0),
    Message('note_off', channel=9, note=55, velocity=64, time=0),
    Message('note_on', channel=9, note=36, velocity=100, time=32),
    Message('note_off', channel=9, note=36, velocity=64, time=64),
    Message('note_on', channel=9, note=36, velocity=100, time=32),
    Message('note_on', channel=9, note=51, velocity=100, time=0),
    Message('note_on', channel=9, note=46, velocity=100, time=0),
    Message('note_on', channel=9, note=55, velocity=100, time=0),
    Message('note_off', channel=9, note=36, velocity=64, time=64),
    Message('note_off', channel=9, note=51, velocity=64, time=0),
    Message('note_off', channel=9, note=55, velocity=64, time=0),
    Message('note_off', channel=9, note=46, velocity=64, time=64),
    Message('note_on', channel=9, note=36, velocity=100, time=64),
    Message('note_on', channel=9, note=51, velocity=100, time=0),
    Message('note_on', channel=9, note=42, velocity=100, time=0),
    Message('note_on', channel=9, note=55, velocity=100, time=0),
    Message('note_off', channel=9, note=36, velocity=64, time=64),
    Message('note_off', channel=9, note=51, velocity=64, time=0),
    Message('note_off', channel=9, note=42, velocity=64, time=0),
    Message('note_off', channel=9, note=55, velocity=64, time=0),
    Message('note_on', channel=9, note=38, velocity=100, time=128),
    Message('note_on', channel=9, note=51, velocity=100, time=0),
    Message('note_on', channel=9, note=42, velocity=100, time=0),
    Message('note_on', channel=9, note=55, velocity=100, time=0),
    Message('note_off', channel=9, note=38, velocity=64, time=64),
    Message('note_off', channel=9, note=51, velocity=64, time=0),
    Message('note_off', channel=9, note=42, velocity=64, time=0),
    Message('note_off', channel=9, note=55, velocity=64, time=0),
    Message('note_on', channel=9, note=36, velocity=100, time=32),
    Message('note_off', channel=9, note=36, velocity=64, time=64),
    Message('note_on', channel=9, note=51, velocity=100, time=32),
    Message('note_on', channel=9, note=42, velocity=100, time=0),
    Message('note_on', channel=9, note=55, velocity=100, time=0),
    Message('note_off', channel=9, note=51, velocity=64, time=64),
    Message('note_off', channel=9, note=42, velocity=64, time=0),
    Message('note_off', channel=9, note=55, velocity=64, time=0),
    Message('note_on', channel=9, note=36, velocity=100, time=32),
    Message('note_off', channel=9, note=36, velocity=64, time=64),
    Message('note_on', channel=9, note=57, velocity=100, time=32),
    Message('note_on', channel=9, note=49, velocity=100, time=0),
    Message('note_on', channel=9, note=36, velocity=100, time=0),
    Message('note_on', channel=9, note=51, velocity=100, time=0),
    Message('note_on', channel=9, note=46, velocity=100, time=0),
    Message('note_on', channel=9, note=55, velocity=100, time=0),
    Message('note_off', channel=9, note=57, velocity=64, time=64),
    Message('note_off', channel=9, note=49, velocity=64, time=0),
    Message('note_off', channel=9, note=36, velocity=64, time=0),
    Message('note_off', channel=9, note=51, velocity=64, time=0),
    Message('note_off', channel=9, note=55, velocity=64, time=0),
    Message('note_off', channel=9, note=46, velocity=64, time=64),
    Message('note_on', channel=9, note=51, velocity=100, time=64),
    Message('note_on', channel=9, note=42, velocity=100, time=0),
    Message('note_on', channel=9, note=55, velocity=100, time=0),
    Message('note_off', channel=9, note=51, velocity=64, time=64),
    Message('note_off', channel=9, note=42, velocity=64, time=0),
    Message('note_off', channel=9, note=55, velocity=64, time=0),
    Message('note_on', channel=9, note=36, velocity=100, time=32),
    Message('note_off', channel=9, note=36, velocity=64, time=64),
    Message('note_on', channel=9, note=38, velocity=100, time=32),
    Message('note_on', channel=9, note=51, velocity=100, time=0),
    Message('note_on', channel=9, note=42, velocity=100, time=0),
    Message('note_on', channel=9, note=55, velocity=100, time=0),
    Message('note_off', channel=9, note=38, velocity=64, time=64),
    Message('note_off', channel=9, note=51, velocity=64, time=0),
    Message('note_off', channel=9, note=42, velocity=64, time=0),
    Message('note_off', channel=9, note=55, velocity=64, time=0),
    Message('note_on', channel=9, note=51, velocity=100, time=128),
    Message('note_on', channel=9, note=42, velocity=100, time=0),
    Message('note_on', channel=9, note=55, velocity=100, time=0),
    Message('note_off', channel=9, note=51, velocity=64, time=64),
    Message('note_off', channel=9, note=42, velocity=64, time=0),
    Message('note_off', channel=9, note=55, velocity=64, time=0),
    Message('note_on', channel=9, note=36, velocity=100, time=32),
    Message('note_off', channel=9, note=36, velocity=64, time=64),
    Message('note_on', channel=9, note=36, velocity=100, time=32),
    Message('note_on', channel=9, note=51, velocity=100, time=0),
    Message('note_on', channel=9, note=46, velocity=100, time=0),
    Message('note_on', channel=9, note=55, velocity=100, time=0),
    Message('note_off', channel=9, note=36, velocity=64, time=64),
    Message('note_off', channel=9, note=51, velocity=64, time=0),
    Message('note_off', channel=9, note=55, velocity=64, time=0),
    Message('note_off', channel=9, note=46, velocity=64, time=64),
    Message('note_on', channel=9, note=36, velocity=100, time=64),
    Message('note_on', channel=9, note=51, velocity=100, time=0),
    Message('note_on', channel=9, note=42, velocity=100, time=0),
    Message('note_on', channel=9, note=55, velocity=100, time=0),
    Message('note_off', channel=9, note=36, velocity=64, time=64),
    Message('note_off', channel=9, note=51, velocity=64, time=0),
    Message('note_off', channel=9, note=42, velocity=64, time=0),
    Message('note_off', channel=9, note=55, velocity=64, time=0),
    Message('note_on', channel=9, note=38, velocity=100, time=128),
    Message('note_on', channel=9, note=51, velocity=100, time=0),
    Message('note_on', channel=9, note=42, velocity=100, time=0),
    Message('note_on', channel=9, note=55, velocity=100, time=0),
    Message('note_off', channel=9, note=38, velocity=64, time=64),
    Message('note_off', channel=9, note=51, velocity=64, time=0),
    Message('note_off', channel=9, note=42, velocity=64, time=0),
    Message('note_off', channel=9, note=55, velocity=64, time=0),
    Message('note_on', channel=9, note=36, velocity=100, time=32),
    Message('note_on', channel=9, note=38, velocity=100, time=48),
    Message('note_off', channel=9, note=36, velocity=64, time=16),
    Message('note_on', channel=9, note=42, velocity=100, time=32),
    Message('note_on', channel=9, note=55, velocity=100, time=0),
    Message('note_on', channel=9, note=51, velocity=100, time=0),
    Message('note_on', channel=9, note=38, velocity=100, time=0),
    Message('note_off', channel=9, note=38, velocity=64, time=16),
    Message('note_off', channel=9, note=42, velocity=64, time=48),
    Message('note_off', channel=9, note=55, velocity=64, time=0),
    Message('note_off', channel=9, note=51, velocity=64, time=0),
    Message('note_off', channel=9, note=38, velocity=64, time=0),
    Message('note_on', channel=9, note=36, velocity=100, time=32),
    Message('note_off', channel=9, note=36, velocity=64, time=64),
    Message('note_on', channel=9, note=57, velocity=100, time=32),
    Message('note_on', channel=9, note=49, velocity=100, time=0),
    Message('note_on', channel=9, note=36, velocity=100, time=0),
    Message('note_on', channel=9, note=51, velocity=100, time=0),
    Message('note_on', channel=9, note=46, velocity=100, time=0),
    Message('note_on', channel=9, note=55, velocity=100, time=0),
    Message('note_off', channel=9, note=57, velocity=64, time=64),
    Message('note_off', channel=9, note=49, velocity=64, time=0),
    Message('note_off', channel=9, note=36, velocity=64, time=0),
    Message('note_off', channel=9, note=51, velocity=64, time=0),
    Message('note_off', channel=9, note=55, velocity=64, time=0),
    Message('note_off', channel=9, note=46, velocity=64, time=64),
    Message('note_on', channel=9, note=51, velocity=100, time=64),
    Message('note_on', channel=9, note=42, velocity=100, time=0),
    Message('note_on', channel=9, note=55, velocity=100, time=0),
    Message('note_off', channel=9, note=51, velocity=64, time=64),
    Message('note_off', channel=9, note=42, velocity=64, time=0),
    Message('note_off', channel=9, note=55, velocity=64, time=0),
    Message('note_on', channel=9, note=36, velocity=100, time=32),
    Message('note_off', channel=9, note=36, velocity=64, time=64),
    Message('note_on', channel=9, note=38, velocity=100, time=32),
    Message('note_on', channel=9, note=51, velocity=100, time=0),
    Message('note_on', channel=9, note=42, velocity=100, time=0),
    Message('note_on', channel=9, note=55, velocity=100, time=0),
    Message('note_off', channel=9, note=38, velocity=64, time=64),
    Message('note_off', channel=9, note=51, velocity=64, time=0),
    Message('note_off', channel=9, note=42, velocity=64, time=0),
    Message('note_off', channel=9, note=55, velocity=64, time=0),
    Message('note_on', channel=9, note=51, velocity=100, time=128),
    Message('note_on', channel=9, note=42, velocity=100, time=0),
    Message('note_on', channel=9, note=55, velocity=100, time=0),
    Message('note_off', channel=9, note=51, velocity=64, time=64),
    Message('note_off', channel=9, note=42, velocity=64, time=0),
    Message('note_off', channel=9, note=55, velocity=64, time=0),
    Message('note_on', channel=9, note=36, velocity=100, time=32),
    Message('note_off', channel=9, note=36, velocity=64, time=64),
    Message('note_on', channel=9, note=36, velocity=100, time=32),
    Message('note_on', channel=9, note=51, velocity=100, time=0),
    Message('note_on', channel=9, note=46, velocity=100, time=0),
    Message('note_on', channel=9, note=55, velocity=100, time=0),
    Message('note_off', channel=9, note=36, velocity=64, time=64),
    Message('note_off', channel=9, note=51, velocity=64, time=0),
    Message('note_off', channel=9, note=55, velocity=64, time=0),
    Message('note_off', channel=9, note=46, velocity=64, time=64),
    Message('note_on', channel=9, note=36, velocity=100, time=64),
    Message('note_on', channel=9, note=51, velocity=100, time=0),
    Message('note_on', channel=9, note=42, velocity=100, time=0),
    Message('note_on', channel=9, note=55, velocity=100, time=0),
    Message('note_off', channel=9, note=36, velocity=64, time=64),
    Message('note_off', channel=9, note=51, velocity=64, time=0),
    Message('note_off', channel=9, note=42, velocity=64, time=0),
    Message('note_off', channel=9, note=55, velocity=64, time=0),
    Message('note_on', channel=9, note=38, velocity=100, time=128),
    Message('note_on', channel=9, note=51, velocity=100, time=0),
    Message('note_on', channel=9, note=42, velocity=100, time=0),
    Message('note_on', channel=9, note=55, velocity=100, time=0),
    Message('note_off', channel=9, note=38, velocity=64, time=64),
    Message('note_off', channel=9, note=51, velocity=64, time=0),
    Message('note_off', channel=9, note=42, velocity=64, time=0),
    Message('note_off', channel=9, note=55, velocity=64, time=0),
    Message('note_on', channel=9, note=36, velocity=100, time=32),
    Message('note_off', channel=9, note=36, velocity=64, time=64),
    Message('note_on', channel=9, note=51, velocity=100, time=32),
    Message('note_on', channel=9, note=42, velocity=100, time=0),
    Message('note_on', channel=9, note=55, velocity=100, time=0),
    Message('note_off', channel=9, note=51, velocity=64, time=64),
    Message('note_off', channel=9, note=42, velocity=64, time=0),
    Message('note_off', channel=9, note=55, velocity=64, time=0),
    Message('note_on', channel=9, note=36, velocity=100, time=32),
    Message('note_off', channel=9, note=36, velocity=64, time=64),
    Message('note_on', channel=9, note=36, velocity=100, time=32),
    Message('note_off', channel=9, note=36, velocity=64, time=64),
    Message('note_on', channel=9, note=36, velocity=100, time=128),
    Message('note_off', channel=9, note=36, velocity=64, time=64),
    Message('note_on', channel=9, note=47, velocity=100, time=128),
    Message('note_on', channel=9, note=36, velocity=100, time=0),
    Message('note_on', channel=9, note=38, velocity=100, time=0),
    Message('note_on', channel=9, note=57, velocity=100, time=0),
    Message('note_off', channel=9, note=47, velocity=64, time=64),
    Message('note_off', channel=9, note=36, velocity=64, time=0),
    Message('note_off', channel=9, note=38, velocity=64, time=0),
    Message('note_off', channel=9, note=57, velocity=64, time=0),
    Message('note_on', channel=9, note=47, velocity=100, time=0),
    Message('note_on', channel=9, note=47, velocity=100, time=32),
    Message('note_on', channel=9, note=36, velocity=100, time=0),
    Message('note_on', channel=9, note=38, velocity=100, time=0),
    Message('note_off', channel=9, note=47, velocity=64, time=32),
    Message('note_on', channel=9, note=47, velocity=100, time=12),
    Message('note_off', channel=9, note=47, velocity=64, time=20),
    Message('note_off', channel=9, note=36, velocity=64, time=0),
    Message('note_off', channel=9, note=38, velocity=64, time=0),
    Message('note_on', channel=9, note=45, velocity=100, time=32),
    Message('note_on', channel=9, note=38, velocity=100, time=0),
    Message('note_on', channel=9, note=57, velocity=100, time=0),
    Message('note_off', channel=9, note=47, velocity=64, time=12),
    Message('note_on', channel=9, note=45, velocity=100, time=32),
    Message('note_off', channel=9, note=45, velocity=64, time=20),
    Message('note_off', channel=9, note=38, velocity=64, time=0),
    Message('note_off', channel=9, note=57, velocity=64, time=0),
    Message('note_on', channel=9, note=45, velocity=100, time=32),
    Message('note_on', channel=9, note=36, velocity=100, time=0),
    Message('note_on', channel=9, note=38, velocity=100, time=0),
    Message('note_off', channel=9, note=45, velocity=64, time=12),
    Message('note_on', channel=9, note=45, velocity=100, time=28),
    Message('note_off', channel=9, note=45, velocity=64, time=24),
    Message('note_off', channel=9, note=36, velocity=64, time=0),
    Message('note_off', channel=9, note=38, velocity=64, time=0),
    Message('note_on', channel=9, note=57, velocity=100, time=32),
    Message('note_on', channel=9, note=49, velocity=100, time=0),
    Message('note_on', channel=9, note=36, velocity=100, time=0),
    Message('note_on', channel=9, note=38, velocity=100, time=0),
    Message('note_off', channel=9, note=45, velocity=64, time=8),
    Message('note_off', channel=9, note=57, velocity=64, time=56),
    Message('note_off', channel=9, note=49, velocity=64, time=0),
    Message('note_off', channel=9, note=36, velocity=64, time=0),
    Message('note_off', channel=9, note=38, velocity=64, time=0),
    Message('note_on', channel=9, note=36, velocity=100, time=1184),
    Message('note_off', channel=9, note=36, velocity=64, time=64),
    Message('note_on', channel=9, note=38, velocity=100, time=32),
    Message('note_off', channel=9, note=38, velocity=64, time=64),
    Message('note_on', channel=9, note=51, velocity=100, time=128),
    Message('note_on', channel=9, note=46, velocity=100, time=0),
    Message('note_on', channel=9, note=55, velocity=100, time=0),
    Message('note_on', channel=9, note=57, velocity=100, time=0),
    Message('note_on', channel=9, note=49, velocity=100, time=0),
    Message('note_on', channel=9, note=36, velocity=100, time=0),
    Message('note_off', channel=9, note=51, velocity=64, time=64),
    Message('note_off', channel=9, note=55, velocity=64, time=0),
    Message('note_off', channel=9, note=57, velocity=64, time=0),
    Message('note_off', channel=9, note=49, velocity=64, time=0),
    Message('note_off', channel=9, note=36, velocity=64, time=0),
    Message('note_off', channel=9, note=46, velocity=64, time=64),
    Message('note_on', channel=9, note=51, velocity=100, time=64),
    Message('note_on', channel=9, note=42, velocity=100, time=0),
    Message('note_off', channel=9, note=51, velocity=64, time=64),
    Message('note_off', channel=9, note=42, velocity=64, time=0),
    Message('note_on', channel=9, note=36, velocity=100, time=32),
    Message('note_off', channel=9, note=36, velocity=64, time=64),
    Message('note_on', channel=9, note=51, velocity=100, time=32),
    Message('note_on', channel=9, note=42, velocity=100, time=0),
    Message('note_on', channel=9, note=38, velocity=100, time=0),
    Message('note_off', channel=9, note=51, velocity=64, time=64),
    Message('note_off', channel=9, note=42, velocity=64, time=0),
    Message('note_off', channel=9, note=38, velocity=64, time=0),
    Message('note_on', channel=9, note=51, velocity=100, time=128),
    Message('note_on', channel=9, note=42, velocity=100, time=0),
    Message('note_off', channel=9, note=51, velocity=64, time=64),
    Message('note_off', channel=9, note=42, velocity=64, time=0),
    Message('note_on', channel=9, note=36, velocity=100, time=32),
    Message('note_off', channel=9, note=36, velocity=64, time=64),
    Message('note_on', channel=9, note=51, velocity=100, time=32),
    Message('note_on', channel=9, note=46, velocity=100, time=0),
    Message('note_on', channel=9, note=55, velocity=100, time=0),
    Message('note_on', channel=9, note=36, velocity=100, time=0),
    Message('note_off', channel=9, note=51, velocity=64, time=64),
    Message('note_off', channel=9, note=55, velocity=64, time=0),
    Message('note_off', channel=9, note=36, velocity=64, time=0),
    Message('note_off', channel=9, note=46, velocity=64, time=64),
    Message('note_on', channel=9, note=51, velocity=100, time=64),
    Message('note_on', channel=9, note=42, velocity=100, time=0),
    Message('note_off', channel=9, note=51, velocity=64, time=64),
    Message('note_off', channel=9, note=42, velocity=64, time=0),
    Message('note_on', channel=9, note=51, velocity=100, time=128),
    Message('note_on', channel=9, note=42, velocity=100, time=0),
    Message('note_on', channel=9, note=38, velocity=100, time=0),
    Message('note_off', channel=9, note=51, velocity=64, time=64),
    Message('note_off', channel=9, note=42, velocity=64, time=0),
    Message('note_off', channel=9, note=38, velocity=64, time=0),
    Message('note_on', channel=9, note=51, velocity=100, time=128),
    Message('note_on', channel=9, note=42, velocity=100, time=0),
    Message('note_off', channel=9, note=51, velocity=64, time=64),
    Message('note_off', channel=9, note=42, velocity=64, time=0),
    Message('note_on', channel=9, note=36, velocity=100, time=32),
    Message('note_off', channel=9, note=36, velocity=64, time=64),
    Message('note_on', channel=9, note=51, velocity=100, time=32),
    Message('note_on', channel=9, note=46, velocity=100, time=0),
    Message('note_on', channel=9, note=55, velocity=100, time=0),
    Message('note_on', channel=9, note=36, velocity=100, time=0),
    Message('note_off', channel=9, note=51, velocity=64, time=64),
    Message('note_off', channel=9, note=55, velocity=64, time=0),
    Message('note_off', channel=9, note=36, velocity=64, time=0),
    Message('note_off', channel=9, note=46, velocity=64, time=64),
    Message('note_on', channel=9, note=51, velocity=100, time=64),
    Message('note_on', channel=9, note=42, velocity=100, time=0),
    Message('note_off', channel=9, note=51, velocity=64, time=64),
    Message('note_off', channel=9, note=42, velocity=64, time=0),
    Message('note_on', channel=9, note=51, velocity=100, time=128),
    Message('note_on', channel=9, note=42, velocity=100, time=0),
    Message('note_on', channel=9, note=38, velocity=100, time=0),
    Message('note_off', channel=9, note=51, velocity=64, time=64),
    Message('note_off', channel=9, note=42, velocity=64, time=0),
    Message('note_off', channel=9, note=38, velocity=64, time=0),
    Message('note_on', channel=9, note=51, velocity=100, time=128),
    Message('note_on', channel=9, note=42, velocity=100, time=0),
    Message('note_off', channel=9, note=51, velocity=64, time=64),
    Message('note_off', channel=9, note=42, velocity=64, time=0),
    Message('note_on', channel=9, note=36, velocity=100, time=32),
    Message('note_off', channel=9, note=36, velocity=64, time=64),
    Message('note_on', channel=9, note=51, velocity=100, time=32),
    Message('note_on', channel=9, note=46, velocity=100, time=0),
    Message('note_on', channel=9, note=55, velocity=100, time=0),
    Message('note_on', channel=9, note=36, velocity=100, time=0),
    Message('note_off', channel=9, note=51, velocity=64, time=64),
    Message('note_off', channel=9, note=55, velocity=64, time=0),
    Message('note_off', channel=9, note=36, velocity=64, time=0),
    Message('note_off', channel=9, note=46, velocity=64, time=64),
    Message('note_on', channel=9, note=51, velocity=100, time=64),
    Message('note_on', channel=9, note=42, velocity=100, time=0),
    Message('note_on', channel=9, note=36, velocity=100, time=0),
    Message('note_off', channel=9, note=51, velocity=64, time=64),
    Message('note_off', channel=9, note=42, velocity=64, time=0),
    Message('note_off', channel=9, note=36, velocity=64, time=0),
    Message('note_on', channel=9, note=51, velocity=100, time=128),
    Message('note_on', channel=9, note=42, velocity=100, time=0),
    Message('note_on', channel=9, note=38, velocity=100, time=0),
    Message('note_off', channel=9, note=51, velocity=64, time=64),
    Message('note_off', channel=9, note=42, velocity=64, time=0),
    Message('note_off', channel=9, note=38, velocity=64, time=0),
    Message('note_on', channel=9, note=36, velocity=100, time=32),
    Message('note_off', channel=9, note=36, velocity=64, time=64),
    Message('note_on', channel=9, note=51, velocity=100, time=32),
    Message('note_on', channel=9, note=42, velocity=100, time=0),
    Message('note_off', channel=9, note=51, velocity=64, time=64),
    Message('note_off', channel=9, note=42, velocity=64, time=0),
    Message('note_on', channel=9, note=36, velocity=100, time=32),
    Message('note_off', channel=9, note=36, velocity=64, time=64),
    Message('note_on', channel=9, note=51, velocity=100, time=32),
    Message('note_on', channel=9, note=46, velocity=100, time=0),
    Message('note_on', channel=9, note=55, velocity=100, time=0),
    Message('note_on', channel=9, note=36, velocity=100, time=0),
    Message('note_off', channel=9, note=51, velocity=64, time=64),
    Message('note_off', channel=9, note=55, velocity=64, time=0),
    Message('note_off', channel=9, note=36, velocity=64, time=0),
    Message('note_off', channel=9, note=46, velocity=64, time=64),
    Message('note_on', channel=9, note=51, velocity=100, time=64),
    Message('note_on', channel=9, note=42, velocity=100, time=0),
    Message('note_off', channel=9, note=51, velocity=64, time=64),
    Message('note_off', channel=9, note=42, velocity=64, time=0),
    Message('note_on', channel=9, note=51, velocity=100, time=128),
    Message('note_on', channel=9, note=42, velocity=100, time=0),
    Message('note_on', channel=9, note=38, velocity=100, time=0),
    Message('note_off', channel=9, note=51, velocity=64, time=64),
    Message('note_off', channel=9, note=42, velocity=64, time=0),
    Message('note_off', channel=9, note=38, velocity=64, time=0),
    Message('note_on', channel=9, note=51, velocity=100, time=128),
    Message('note_on', channel=9, note=42, velocity=100, time=0),
    Message('note_off', channel=9, note=51, velocity=64, time=64),
    Message('note_off', channel=9, note=42, velocity=64, time=0),
    Message('note_on', channel=9, note=36, velocity=100, time=32),
    Message('note_off', channel=9, note=36, velocity=64, time=64),
    Message('note_on', channel=9, note=51, velocity=100, time=32),
    Message('note_on', channel=9, note=46, velocity=100, time=0),
    Message('note_on', channel=9, note=55, velocity=100, time=0),
    Message('note_on', channel=9, note=36, velocity=100, time=0),
    Message('note_off', channel=9, note=51, velocity=64, time=64),
    Message('note_off', channel=9, note=55, velocity=64, time=0),
    Message('note_off', channel=9, note=36, velocity=64, time=0),
    Message('note_off', channel=9, note=46, velocity=64, time=64),
    Message('note_on', channel=9, note=51, velocity=100, time=64),
    Message('note_on', channel=9, note=42, velocity=100, time=0),
    Message('note_on', channel=9, note=36, velocity=100, time=0),
    Message('note_off', channel=9, note=51, velocity=64, time=64),
    Message('note_off', channel=9, note=42, velocity=64, time=0),
    Message('note_off', channel=9, note=36, velocity=64, time=0),
    Message('note_on', channel=9, note=51, velocity=100, time=128),
    Message('note_on', channel=9, note=42, velocity=100, time=0),
    Message('note_on', channel=9, note=38, velocity=100, time=0),
    Message('note_off', channel=9, note=51, velocity=64, time=64),
    Message('note_off', channel=9, note=42, velocity=64, time=0),
    Message('note_off', channel=9, note=38, velocity=64, time=0),
    Message('note_on', channel=9, note=36, velocity=100, time=32),
    Message('note_off', channel=9, note=36, velocity=64, time=64),
    Message('note_on', channel=9, note=51, velocity=100, time=32),
    Message('note_on', channel=9, note=42, velocity=100, time=0),
    Message('note_off', channel=9, note=51, velocity=64, time=64),
    Message('note_off', channel=9, note=42, velocity=64, time=0),
    Message('note_on', channel=9, note=36, velocity=100, time=32),
    Message('note_off', channel=9, note=36, velocity=64, time=64),
    Message('note_on', channel=9, note=51, velocity=100, time=32),
    Message('note_on', channel=9, note=46, velocity=100, time=0),
    Message('note_on', channel=9, note=55, velocity=100, time=0),
    Message('note_on', channel=9, note=36, velocity=100, time=0),
    Message('note_off', channel=9, note=51, velocity=64, time=64),
    Message('note_off', channel=9, note=55, velocity=64, time=0),
    Message('note_off', channel=9, note=36, velocity=64, time=0),
    Message('note_off', channel=9, note=46, velocity=64, time=64),
    Message('note_on', channel=9, note=51, velocity=100, time=64),
    Message('note_on', channel=9, note=42, velocity=100, time=0),
    Message('note_off', channel=9, note=51, velocity=64, time=64),
    Message('note_off', channel=9, note=42, velocity=64, time=0),
    Message('note_on', channel=9, note=51, velocity=100, time=128),
    Message('note_on', channel=9, note=42, velocity=100, time=0),
    Message('note_on', channel=9, note=38, velocity=100, time=0),
    Message('note_off', channel=9, note=51, velocity=64, time=64),
    Message('note_off', channel=9, note=42, velocity=64, time=0),
    Message('note_off', channel=9, note=38, velocity=64, time=0),
    Message('note_on', channel=9, note=51, velocity=100, time=128),
    Message('note_on', channel=9, note=42, velocity=100, time=0),
    Message('note_off', channel=9, note=51, velocity=64, time=64),
    Message('note_off', channel=9, note=42, velocity=64, time=0),
    Message('note_on', channel=9, note=36, velocity=100, time=32),
    Message('note_off', channel=9, note=36, velocity=64, time=64),
    Message('note_on', channel=9, note=51, velocity=100, time=32),
    Message('note_on', channel=9, note=46, velocity=100, time=0),
    Message('note_on', channel=9, note=55, velocity=100, time=0),
    Message('note_on', channel=9, note=36, velocity=100, time=0),
    Message('note_off', channel=9, note=51, velocity=64, time=64),
    Message('note_off', channel=9, note=55, velocity=64, time=0),
    Message('note_off', channel=9, note=36, velocity=64, time=0),
    Message('note_off', channel=9, note=46, velocity=64, time=64),
    Message('note_on', channel=9, note=36, velocity=100, time=352),
    Message('note_off', channel=9, note=36, velocity=64, time=64),
    Message('note_on', channel=9, note=38, velocity=100, time=32),
    Message('note_off', channel=9, note=38, velocity=64, time=64),
    Message('note_on', channel=9, note=51, velocity=100, time=128),
    Message('note_on', channel=9, note=46, velocity=100, time=0),
    Message('note_on', channel=9, note=55, velocity=100, time=0),
    Message('note_on', channel=9, note=57, velocity=100, time=0),
    Message('note_on', channel=9, note=49, velocity=100, time=0),
    Message('note_on', channel=9, note=36, velocity=100, time=0),
    Message('note_off', channel=9, note=51, velocity=64, time=64),
    Message('note_off', channel=9, note=55, velocity=64, time=0),
    Message('note_off', channel=9, note=57, velocity=64, time=0),
    Message('note_off', channel=9, note=49, velocity=64, time=0),
    Message('note_off', channel=9, note=36, velocity=64, time=0),
    Message('note_off', channel=9, note=46, velocity=64, time=64),
    Message('note_on', channel=9, note=51, velocity=100, time=64),
    Message('note_on', channel=9, note=42, velocity=100, time=0),
    Message('note_off', channel=9, note=51, velocity=64, time=64),
    Message('note_off', channel=9, note=42, velocity=64, time=0),
    Message('note_on', channel=9, note=36, velocity=100, time=32),
    Message('note_off', channel=9, note=36, velocity=64, time=64),
    Message('note_on', channel=9, note=51, velocity=100, time=32),
    Message('note_on', channel=9, note=42, velocity=100, time=0),
    Message('note_on', channel=9, note=38, velocity=100, time=0),
    Message('note_off', channel=9, note=51, velocity=64, time=64),
    Message('note_off', channel=9, note=42, velocity=64, time=0),
    Message('note_off', channel=9, note=38, velocity=64, time=0),
    Message('note_on', channel=9, note=51, velocity=100, time=128),
    Message('note_on', channel=9, note=42, velocity=100, time=0),
    Message('note_off', channel=9, note=51, velocity=64, time=64),
    Message('note_off', channel=9, note=42, velocity=64, time=0),
    Message('note_on', channel=9, note=36, velocity=100, time=32),
    Message('note_off', channel=9, note=36, velocity=64, time=64),
    Message('note_on', channel=9, note=51, velocity=100, time=32),
    Message('note_on', channel=9, note=46, velocity=100, time=0),
    Message('note_on', channel=9, note=55, velocity=100, time=0),
    Message('note_on', channel=9, note=36, velocity=100, time=0),
    Message('note_off', channel=9, note=51, velocity=64, time=64),
    Message('note_off', channel=9, note=55, velocity=64, time=0),
    Message('note_off', channel=9, note=36, velocity=64, time=0),
    Message('note_off', channel=9, note=46, velocity=64, time=64),
    Message('note_on', channel=9, note=51, velocity=100, time=64),
    Message('note_on', channel=9, note=42, velocity=100, time=0),
    Message('note_off', channel=9, note=51, velocity=64, time=64),
    Message('note_off', channel=9, note=42, velocity=64, time=0),
    Message('note_on', channel=9, note=51, velocity=100, time=128),
    Message('note_on', channel=9, note=42, velocity=100, time=0),
    Message('note_on', channel=9, note=38, velocity=100, time=0),
    Message('note_off', channel=9, note=51, velocity=64, time=64),
    Message('note_off', channel=9, note=42, velocity=64, time=0),
    Message('note_off', channel=9, note=38, velocity=64, time=0),
    Message('note_on', channel=9, note=51, velocity=100, time=128),
    Message('note_on', channel=9, note=42, velocity=100, time=0),
    Message('note_off', channel=9, note=51, velocity=64, time=64),
    Message('note_off', channel=9, note=42, velocity=64, time=0),
    Message('note_on', channel=9, note=36, velocity=100, time=32),
    Message('note_off', channel=9, note=36, velocity=64, time=64),
    Message('note_on', channel=9, note=51, velocity=100, time=32),
    Message('note_on', channel=9, note=46, velocity=100, time=0),
    Message('note_on', channel=9, note=55, velocity=100, time=0),
    Message('note_on', channel=9, note=36, velocity=100, time=0),
    Message('note_off', channel=9, note=51, velocity=64, time=64),
    Message('note_off', channel=9, note=55, velocity=64, time=0),
    Message('note_off', channel=9, note=36, velocity=64, time=0),
    Message('note_off', channel=9, note=46, velocity=64, time=64),
    Message('note_on', channel=9, note=51, velocity=100, time=64),
    Message('note_on', channel=9, note=42, velocity=100, time=0),
    Message('note_off', channel=9, note=51, velocity=64, time=64),
    Message('note_off', channel=9, note=42, velocity=64, time=0),
    Message('note_on', channel=9, note=51, velocity=100, time=128),
    Message('note_on', channel=9, note=42, velocity=100, time=0),
    Message('note_on', channel=9, note=38, velocity=100, time=0),
    Message('note_off', channel=9, note=51, velocity=64, time=64),
    Message('note_off', channel=9, note=42, velocity=64, time=0),
    Message('note_off', channel=9, note=38, velocity=64, time=0),
    Message('note_on', channel=9, note=51, velocity=100, time=128),
    Message('note_on', channel=9, note=42, velocity=100, time=0),
    Message('note_off', channel=9, note=51, velocity=64, time=64),
    Message('note_off', channel=9, note=42, velocity=64, time=0),
    Message('note_on', channel=9, note=36, velocity=100, time=32),
    Message('note_off', channel=9, note=36, velocity=64, time=64),
    Message('note_on', channel=9, note=51, velocity=100, time=32),
    Message('note_on', channel=9, note=46, velocity=100, time=0),
    Message('note_on', channel=9, note=55, velocity=100, time=0),
    Message('note_on', channel=9, note=36, velocity=100, time=0),
    Message('note_off', channel=9, note=51, velocity=64, time=64),
    Message('note_off', channel=9, note=55, velocity=64, time=0),
    Message('note_off', channel=9, note=36, velocity=64, time=0),
    Message('note_off', channel=9, note=46, velocity=64, time=64),
    Message('note_on', channel=9, note=51, velocity=100, time=64),
    Message('note_on', channel=9, note=42, velocity=100, time=0),
    Message('note_on', channel=9, note=36, velocity=100, time=0),
    Message('note_off', channel=9, note=51, velocity=64, time=64),
    Message('note_off', channel=9, note=42, velocity=64, time=0),
    Message('note_off', channel=9, note=36, velocity=64, time=0),
    Message('note_on', channel=9, note=51, velocity=100, time=128),
    Message('note_on', channel=9, note=42, velocity=100, time=0),
    Message('note_on', channel=9, note=38, velocity=100, time=0),
    Message('note_off', channel=9, note=51, velocity=64, time=64),
    Message('note_off', channel=9, note=42, velocity=64, time=0),
    Message('note_off', channel=9, note=38, velocity=64, time=0),
    Message('note_on', channel=9, note=36, velocity=100, time=32),
    Message('note_off', channel=9, note=36, velocity=64, time=64),
    Message('note_on', channel=9, note=51, velocity=100, time=32),
    Message('note_on', channel=9, note=42, velocity=100, time=0),
    Message('note_off', channel=9, note=51, velocity=64, time=64),
    Message('note_off', channel=9, note=42, velocity=64, time=0),
    Message('note_on', channel=9, note=36, velocity=100, time=32),
    Message('note_off', channel=9, note=36, velocity=64, time=64),
    Message('note_on', channel=9, note=51, velocity=100, time=32),
    Message('note_on', channel=9, note=46, velocity=100, time=0),
    Message('note_on', channel=9, note=55, velocity=100, time=0),
    Message('note_on', channel=9, note=36, velocity=100, time=0),
    Message('note_off', channel=9, note=51, velocity=64, time=64),
    Message('note_off', channel=9, note=55, velocity=64, time=0),
    Message('note_off', channel=9, note=36, velocity=64, time=0),
    Message('note_off', channel=9, note=46, velocity=64, time=64),
    Message('note_on', channel=9, note=51, velocity=100, time=64),
    Message('note_on', channel=9, note=42, velocity=100, time=0),
    Message('note_off', channel=9, note=51, velocity=64, time=64),
    Message('note_off', channel=9, note=42, velocity=64, time=0),
    Message('note_on', channel=9, note=51, velocity=100, time=128),
    Message('note_on', channel=9, note=42, velocity=100, time=0),
    Message('note_on', channel=9, note=38, velocity=100, time=0),
    Message('note_off', channel=9, note=51, velocity=64, time=64),
    Message('note_off', channel=9, note=42, velocity=64, time=0),
    Message('note_off', channel=9, note=38, velocity=64, time=0),
    Message('note_on', channel=9, note=51, velocity=100, time=128),
    Message('note_on', channel=9, note=42, velocity=100, time=0),
    Message('note_off', channel=9, note=51, velocity=64, time=64),
    Message('note_off', channel=9, note=42, velocity=64, time=0),
    Message('note_on', channel=9, note=36, velocity=100, time=32),
    Message('note_off', channel=9, note=36, velocity=64, time=64),
    Message('note_on', channel=9, note=51, velocity=100, time=32),
    Message('note_on', channel=9, note=46, velocity=100, time=0),
    Message('note_on', channel=9, note=55, velocity=100, time=0),
    Message('note_on', channel=9, note=36, velocity=100, time=0),
    Message('note_off', channel=9, note=51, velocity=64, time=64),
    Message('note_off', channel=9, note=55, velocity=64, time=0),
    Message('note_off', channel=9, note=36, velocity=64, time=0),
    Message('note_off', channel=9, note=46, velocity=64, time=64),
    Message('note_on', channel=9, note=51, velocity=100, time=64),
    Message('note_on', channel=9, note=42, velocity=100, time=0),
    Message('note_on', channel=9, note=36, velocity=100, time=0),
    Message('note_off', channel=9, note=51, velocity=64, time=64),
    Message('note_off', channel=9, note=42, velocity=64, time=0),
    Message('note_off', channel=9, note=36, velocity=64, time=0),
    Message('note_on', channel=9, note=51, velocity=100, time=128),
    Message('note_on', channel=9, note=42, velocity=100, time=0),
    Message('note_on', channel=9, note=38, velocity=100, time=0),
    Message('note_off', channel=9, note=51, velocity=64, time=64),
    Message('note_off', channel=9, note=42, velocity=64, time=0),
    Message('note_off', channel=9, note=38, velocity=64, time=0),
    Message('note_on', channel=9, note=36, velocity=100, time=32),
    Message('note_off', channel=9, note=36, velocity=64, time=64),
    Message('note_on', channel=9, note=51, velocity=100, time=32),
    Message('note_on', channel=9, note=42, velocity=100, time=0),
    Message('note_off', channel=9, note=51, velocity=64, time=64),
    Message('note_off', channel=9, note=42, velocity=64, time=0),
    Message('note_on', channel=9, note=36, velocity=100, time=32),
    Message('note_off', channel=9, note=36, velocity=64, time=64),
    Message('note_on', channel=9, note=51, velocity=100, time=32),
    Message('note_on', channel=9, note=46, velocity=100, time=0),
    Message('note_on', channel=9, note=55, velocity=100, time=0),
    Message('note_on', channel=9, note=36, velocity=100, time=0),
    Message('note_off', channel=9, note=51, velocity=64, time=64),
    Message('note_off', channel=9, note=55, velocity=64, time=0),
    Message('note_off', channel=9, note=36, velocity=64, time=0),
    Message('note_off', channel=9, note=46, velocity=64, time=64),
    Message('note_on', channel=9, note=51, velocity=100, time=64),
    Message('note_on', channel=9, note=42, velocity=100, time=0),
    Message('note_off', channel=9, note=51, velocity=64, time=64),
    Message('note_off', channel=9, note=42, velocity=64, time=0),
    Message('note_on', channel=9, note=51, velocity=100, time=128),
    Message('note_on', channel=9, note=42, velocity=100, time=0),
    Message('note_on', channel=9, note=38, velocity=100, time=0),
    Message('note_off', channel=9, note=51, velocity=64, time=64),
    Message('note_off', channel=9, note=42, velocity=64, time=0),
    Message('note_off', channel=9, note=38, velocity=64, time=0),
    Message('note_on', channel=9, note=51, velocity=100, time=128),
    Message('note_on', channel=9, note=42, velocity=100, time=0),
    Message('note_off', channel=9, note=51, velocity=64, time=64),
    Message('note_off', channel=9, note=42, velocity=64, time=0),
    Message('note_on', channel=9, note=36, velocity=100, time=32),
    Message('note_off', channel=9, note=36, velocity=64, time=64),
    Message('note_on', channel=9, note=51, velocity=100, time=32),
    Message('note_on', channel=9, note=46, velocity=100, time=0),
    Message('note_on', channel=9, note=55, velocity=100, time=0),
    Message('note_on', channel=9, note=36, velocity=100, time=0),
    Message('note_on', channel=9, note=57, velocity=100, time=0),
    Message('note_off', channel=9, note=51, velocity=64, time=64),
    Message('note_off', channel=9, note=55, velocity=64, time=0),
    Message('note_off', channel=9, note=36, velocity=64, time=0),
    Message('note_off', channel=9, note=57, velocity=64, time=0),
    Message('note_on', channel=9, note=36, velocity=100, time=32),
    Message('note_off', channel=9, note=46, velocity=64, time=32),
    Message('note_off', channel=9, note=36, velocity=64, time=32),
    Message('note_on', channel=9, note=57, velocity=100, time=32),
    Message('note_on', channel=9, note=49, velocity=100, time=0),
    Message('note_on', channel=9, note=38, velocity=100, time=0),
    Message('note_off', channel=9, note=57, velocity=64, time=64),
    Message('note_off', channel=9, note=49, velocity=64, time=0),
    Message('note_off', channel=9, note=38, velocity=64, time=0),
    Message('note_on', channel=9, note=38, velocity=100, time=512),
    Message('note_off', channel=9, note=38, velocity=64, time=64),
    Message('note_on', channel=9, note=38, velocity=100, time=32),
    Message('note_off', channel=9, note=38, velocity=64, time=64),
    Message('note_on', channel=9, note=36, velocity=100, time=32),
    Message('note_off', channel=9, note=36, velocity=64, time=64),
    Message('note_on', channel=9, note=38, velocity=100, time=32),
    Message('note_off', channel=9, note=38, velocity=64, time=64),
    Message('note_on', channel=9, note=38, velocity=100, time=32),
    Message('note_off', channel=9, note=38, velocity=64, time=64),
    Message('note_on', channel=9, note=36, velocity=100, time=32),
    Message('note_off', channel=9, note=36, velocity=64, time=64),
    Message('note_on', channel=9, note=38, velocity=100, time=32),
    Message('note_on', channel=9, note=36, velocity=100, time=0),
    Message('note_off', channel=9, note=38, velocity=64, time=64),
    Message('note_off', channel=9, note=36, velocity=64, time=0),
    Message('note_on', channel=9, note=57, velocity=100, time=128),
    Message('note_on', channel=9, note=49, velocity=100, time=0),
    Message('note_on', channel=9, note=36, velocity=100, time=0),
    Message('note_on', channel=9, note=51, velocity=100, time=0),
    Message('note_on', channel=9, note=46, velocity=100, time=0),
    Message('note_on', channel=9, note=55, velocity=100, time=0),
    Message('note_off', channel=9, note=57, velocity=64, time=64),
    Message('note_off', channel=9, note=49, velocity=64, time=0),
    Message('note_off', channel=9, note=36, velocity=64, time=0),
    Message('note_off', channel=9, note=51, velocity=64, time=0),
    Message('note_off', channel=9, note=55, velocity=64, time=0),
    Message('note_off', channel=9, note=46, velocity=64, time=64),
    Message('note_on', channel=9, note=51, velocity=100, time=64),
    Message('note_on', channel=9, note=42, velocity=100, time=0),
    Message('note_on', channel=9, note=55, velocity=100, time=0),
    Message('note_off', channel=9, note=51, velocity=64, time=64),
    Message('note_off', channel=9, note=42, velocity=64, time=0),
    Message('note_off', channel=9, note=55, velocity=64, time=0),
    Message('note_on', channel=9, note=36, velocity=100, time=32),
    Message('note_off', channel=9, note=36, velocity=64, time=64),
    Message('note_on', channel=9, note=38, velocity=100, time=32),
    Message('note_on', channel=9, note=51, velocity=100, time=0),
    Message('note_on', channel=9, note=42, velocity=100, time=0),
    Message('note_on', channel=9, note=55, velocity=100, time=0),
    Message('note_off', channel=9, note=38, velocity=64, time=64),
    Message('note_off', channel=9, note=51, velocity=64, time=0),
    Message('note_off', channel=9, note=42, velocity=64, time=0),
    Message('note_off', channel=9, note=55, velocity=64, time=0),
    Message('note_on', channel=9, note=51, velocity=100, time=128),
    Message('note_on', channel=9, note=42, velocity=100, time=0),
    Message('note_on', channel=9, note=55, velocity=100, time=0),
    Message('note_off', channel=9, note=51, velocity=64, time=64),
    Message('note_off', channel=9, note=42, velocity=64, time=0),
    Message('note_off', channel=9, note=55, velocity=64, time=0),
    Message('note_on', channel=9, note=36, velocity=100, time=32),
    Message('note_off', channel=9, note=36, velocity=64, time=64),
    Message('note_on', channel=9, note=36, velocity=100, time=32),
    Message('note_on', channel=9, note=51, velocity=100, time=0),
    Message('note_on', channel=9, note=46, velocity=100, time=0),
    Message('note_on', channel=9, note=55, velocity=100, time=0),
    Message('note_off', channel=9, note=36, velocity=64, time=64),
    Message('note_off', channel=9, note=51, velocity=64, time=0),
    Message('note_off', channel=9, note=55, velocity=64, time=0),
    Message('note_off', channel=9, note=46, velocity=64, time=64),
    Message('note_on', channel=9, note=36, velocity=100, time=64),
    Message('note_on', channel=9, note=51, velocity=100, time=0),
    Message('note_on', channel=9, note=42, velocity=100, time=0),
    Message('note_on', channel=9, note=55, velocity=100, time=0),
    Message('note_off', channel=9, note=36, velocity=64, time=64),
    Message('note_off', channel=9, note=51, velocity=64, time=0),
    Message('note_off', channel=9, note=42, velocity=64, time=0),
    Message('note_off', channel=9, note=55, velocity=64, time=0),
    Message('note_on', channel=9, note=38, velocity=100, time=128),
    Message('note_on', channel=9, note=51, velocity=100, time=0),
    Message('note_on', channel=9, note=42, velocity=100, time=0),
    Message('note_on', channel=9, note=55, velocity=100, time=0),
    Message('note_off', channel=9, note=38, velocity=64, time=64),
    Message('note_off', channel=9, note=51, velocity=64, time=0),
    Message('note_off', channel=9, note=42, velocity=64, time=0),
    Message('note_off', channel=9, note=55, velocity=64, time=0),
    Message('note_on', channel=9, note=36, velocity=100, time=32),
    Message('note_off', channel=9, note=36, velocity=64, time=64),
    Message('note_on', channel=9, note=51, velocity=100, time=32),
    Message('note_on', channel=9, note=42, velocity=100, time=0),
    Message('note_on', channel=9, note=55, velocity=100, time=0),
    Message('note_off', channel=9, note=51, velocity=64, time=64),
    Message('note_off', channel=9, note=42, velocity=64, time=0),
    Message('note_off', channel=9, note=55, velocity=64, time=0),
    Message('note_on', channel=9, note=36, velocity=100, time=32),
    Message('note_off', channel=9, note=36, velocity=64, time=64),
    Message('note_on', channel=9, note=57, velocity=100, time=32),
    Message('note_on', channel=9, note=49, velocity=100, time=0),
    Message('note_on', channel=9, note=36, velocity=100, time=0),
    Message('note_on', channel=9, note=51, velocity=100, time=0),
    Message('note_on', channel=9, note=46, velocity=100, time=0),
    Message('note_on', channel=9, note=55, velocity=100, time=0),
    Message('note_off', channel=9, note=57, velocity=64, time=64),
    Message('note_off', channel=9, note=49, velocity=64, time=0),
    Message('note_off', channel=9, note=36, velocity=64, time=0),
    Message('note_off', channel=9, note=51, velocity=64, time=0),
    Message('note_off', channel=9, note=55, velocity=64, time=0),
    Message('note_off', channel=9, note=46, velocity=64, time=64),
    Message('note_on', channel=9, note=51, velocity=100, time=64),
    Message('note_on', channel=9, note=42, velocity=100, time=0),
    Message('note_on', channel=9, note=55, velocity=100, time=0),
    Message('note_off', channel=9, note=51, velocity=64, time=64),
    Message('note_off', channel=9, note=42, velocity=64, time=0),
    Message('note_off', channel=9, note=55, velocity=64, time=0),
    Message('note_on', channel=9, note=36, velocity=100, time=32),
    Message('note_off', channel=9, note=36, velocity=64, time=64),
    Message('note_on', channel=9, note=38, velocity=100, time=32),
    Message('note_on', channel=9, note=51, velocity=100, time=0),
    Message('note_on', channel=9, note=42, velocity=100, time=0),
    Message('note_on', channel=9, note=55, velocity=100, time=0),
    Message('note_off', channel=9, note=38, velocity=64, time=64),
    Message('note_off', channel=9, note=51, velocity=64, time=0),
    Message('note_off', channel=9, note=42, velocity=64, time=0),
    Message('note_off', channel=9, note=55, velocity=64, time=0),
    Message('note_on', channel=9, note=51, velocity=100, time=128),
    Message('note_on', channel=9, note=42, velocity=100, time=0),
    Message('note_on', channel=9, note=55, velocity=100, time=0),
    Message('note_off', channel=9, note=51, velocity=64, time=64),
    Message('note_off', channel=9, note=42, velocity=64, time=0),
    Message('note_off', channel=9, note=55, velocity=64, time=0),
    Message('note_on', channel=9, note=36, velocity=100, time=32),
    Message('note_off', channel=9, note=36, velocity=64, time=64),
    Message('note_on', channel=9, note=36, velocity=100, time=32),
    Message('note_on', channel=9, note=51, velocity=100, time=0),
    Message('note_on', channel=9, note=46, velocity=100, time=0),
    Message('note_on', channel=9, note=55, velocity=100, time=0),
    Message('note_off', channel=9, note=36, velocity=64, time=64),
    Message('note_off', channel=9, note=51, velocity=64, time=0),
    Message('note_off', channel=9, note=55, velocity=64, time=0),
    Message('note_off', channel=9, note=46, velocity=64, time=64),
    Message('note_on', channel=9, note=36, velocity=100, time=64),
    Message('note_on', channel=9, note=51, velocity=100, time=0),
    Message('note_on', channel=9, note=42, velocity=100, time=0),
    Message('note_on', channel=9, note=55, velocity=100, time=0),
    Message('note_off', channel=9, note=36, velocity=64, time=64),
    Message('note_off', channel=9, note=51, velocity=64, time=0),
    Message('note_off', channel=9, note=42, velocity=64, time=0),
    Message('note_off', channel=9, note=55, velocity=64, time=0),
    Message('note_on', channel=9, note=38, velocity=100, time=128),
    Message('note_on', channel=9, note=51, velocity=100, time=0),
    Message('note_on', channel=9, note=42, velocity=100, time=0),
    Message('note_on', channel=9, note=55, velocity=100, time=0),
    Message('note_off', channel=9, note=38, velocity=64, time=64),
    Message('note_off', channel=9, note=51, velocity=64, time=0),
    Message('note_off', channel=9, note=42, velocity=64, time=0),
    Message('note_off', channel=9, note=55, velocity=64, time=0),
    Message('note_on', channel=9, note=36, velocity=100, time=32),
    Message('note_on', channel=9, note=38, velocity=100, time=48),
    Message('note_off', channel=9, note=36, velocity=64, time=16),
    Message('note_on', channel=9, note=42, velocity=100, time=32),
    Message('note_on', channel=9, note=55, velocity=100, time=0),
    Message('note_on', channel=9, note=51, velocity=100, time=0),
    Message('note_on', channel=9, note=38, velocity=100, time=0),
    Message('note_off', channel=9, note=38, velocity=64, time=16),
    Message('note_off', channel=9, note=42, velocity=64, time=48),
    Message('note_off', channel=9, note=55, velocity=64, time=0),
    Message('note_off', channel=9, note=51, velocity=64, time=0),
    Message('note_off', channel=9, note=38, velocity=64, time=0),
    Message('note_on', channel=9, note=36, velocity=100, time=32),
    Message('note_off', channel=9, note=36, velocity=64, time=64),
    Message('note_on', channel=9, note=57, velocity=100, time=32),
    Message('note_on', channel=9, note=49, velocity=100, time=0),
    Message('note_on', channel=9, note=36, velocity=100, time=0),
    Message('note_on', channel=9, note=51, velocity=100, time=0),
    Message('note_on', channel=9, note=46, velocity=100, time=0),
    Message('note_on', channel=9, note=55, velocity=100, time=0),
    Message('note_off', channel=9, note=57, velocity=64, time=64),
    Message('note_off', channel=9, note=49, velocity=64, time=0),
    Message('note_off', channel=9, note=36, velocity=64, time=0),
    Message('note_off', channel=9, note=51, velocity=64, time=0),
    Message('note_off', channel=9, note=55, velocity=64, time=0),
    Message('note_off', channel=9, note=46, velocity=64, time=64),
    Message('note_on', channel=9, note=51, velocity=100, time=64),
    Message('note_on', channel=9, note=42, velocity=100, time=0),
    Message('note_on', channel=9, note=55, velocity=100, time=0),
    Message('note_off', channel=9, note=51, velocity=64, time=64),
    Message('note_off', channel=9, note=42, velocity=64, time=0),
    Message('note_off', channel=9, note=55, velocity=64, time=0),
    Message('note_on', channel=9, note=36, velocity=100, time=32),
    Message('note_off', channel=9, note=36, velocity=64, time=64),
    Message('note_on', channel=9, note=38, velocity=100, time=32),
    Message('note_on', channel=9, note=51, velocity=100, time=0),
    Message('note_on', channel=9, note=42, velocity=100, time=0),
    Message('note_on', channel=9, note=55, velocity=100, time=0),
    Message('note_off', channel=9, note=38, velocity=64, time=64),
    Message('note_off', channel=9, note=51, velocity=64, time=0),
    Message('note_off', channel=9, note=42, velocity=64, time=0),
    Message('note_off', channel=9, note=55, velocity=64, time=0),
    Message('note_on', channel=9, note=51, velocity=100, time=128),
    Message('note_on', channel=9, note=42, velocity=100, time=0),
    Message('note_on', channel=9, note=55, velocity=100, time=0),
    Message('note_off', channel=9, note=51, velocity=64, time=64),
    Message('note_off', channel=9, note=42, velocity=64, time=0),
    Message('note_off', channel=9, note=55, velocity=64, time=0),
    Message('note_on', channel=9, note=36, velocity=100, time=32),
    Message('note_off', channel=9, note=36, velocity=64, time=64),
    Message('note_on', channel=9, note=36, velocity=100, time=32),
    Message('note_on', channel=9, note=51, velocity=100, time=0),
    Message('note_on', channel=9, note=46, velocity=100, time=0),
    Message('note_on', channel=9, note=55, velocity=100, time=0),
    Message('note_off', channel=9, note=36, velocity=64, time=64),
    Message('note_off', channel=9, note=51, velocity=64, time=0),
    Message('note_off', channel=9, note=55, velocity=64, time=0),
    Message('note_off', channel=9, note=46, velocity=64, time=64),
    Message('note_on', channel=9, note=36, velocity=100, time=64),
    Message('note_on', channel=9, note=51, velocity=100, time=0),
    Message('note_on', channel=9, note=42, velocity=100, time=0),
    Message('note_on', channel=9, note=55, velocity=100, time=0),
    Message('note_off', channel=9, note=36, velocity=64, time=64),
    Message('note_off', channel=9, note=51, velocity=64, time=0),
    Message('note_off', channel=9, note=42, velocity=64, time=0),
    Message('note_off', channel=9, note=55, velocity=64, time=0),
    Message('note_on', channel=9, note=38, velocity=100, time=128),
    Message('note_on', channel=9, note=51, velocity=100, time=0),
    Message('note_on', channel=9, note=42, velocity=100, time=0),
    Message('note_on', channel=9, note=55, velocity=100, time=0),
    Message('note_off', channel=9, note=38, velocity=64, time=64),
    Message('note_off', channel=9, note=51, velocity=64, time=0),
    Message('note_off', channel=9, note=42, velocity=64, time=0),
    Message('note_off', channel=9, note=55, velocity=64, time=0),
    Message('note_on', channel=9, note=36, velocity=100, time=32),
    Message('note_off', channel=9, note=36, velocity=64, time=64),
    Message('note_on', channel=9, note=51, velocity=100, time=32),
    Message('note_on', channel=9, note=42, velocity=100, time=0),
    Message('note_on', channel=9, note=55, velocity=100, time=0),
    Message('note_off', channel=9, note=51, velocity=64, time=64),
    Message('note_off', channel=9, note=42, velocity=64, time=0),
    Message('note_off', channel=9, note=55, velocity=64, time=0),
    Message('note_on', channel=9, note=36, velocity=100, time=32),
    Message('note_off', channel=9, note=36, velocity=64, time=64),
    Message('note_on', channel=9, note=57, velocity=100, time=32),
    Message('note_on', channel=9, note=49, velocity=100, time=0),
    Message('note_on', channel=9, note=36, velocity=100, time=0),
    Message('note_on', channel=9, note=51, velocity=100, time=0),
    Message('note_on', channel=9, note=46, velocity=100, time=0),
    Message('note_on', channel=9, note=55, velocity=100, time=0),
    Message('note_off', channel=9, note=57, velocity=64, time=64),
    Message('note_off', channel=9, note=49, velocity=64, time=0),
    Message('note_off', channel=9, note=36, velocity=64, time=0),
    Message('note_off', channel=9, note=51, velocity=64, time=0),
    Message('note_off', channel=9, note=55, velocity=64, time=0),
    Message('note_off', channel=9, note=46, velocity=64, time=64),
    Message('note_on', channel=9, note=51, velocity=100, time=64),
    Message('note_on', channel=9, note=42, velocity=100, time=0),
    Message('note_on', channel=9, note=55, velocity=100, time=0),
    Message('note_off', channel=9, note=51, velocity=64, time=64),
    Message('note_off', channel=9, note=42, velocity=64, time=0),
    Message('note_off', channel=9, note=55, velocity=64, time=0),
    Message('note_on', channel=9, note=36, velocity=100, time=32),
    Message('note_off', channel=9, note=36, velocity=64, time=64),
    Message('note_on', channel=9, note=38, velocity=100, time=32),
    Message('note_on', channel=9, note=51, velocity=100, time=0),
    Message('note_on', channel=9, note=42, velocity=100, time=0),
    Message('note_on', channel=9, note=55, velocity=100, time=0),
    Message('note_off', channel=9, note=38, velocity=64, time=64),
    Message('note_off', channel=9, note=51, velocity=64, time=0),
    Message('note_off', channel=9, note=42, velocity=64, time=0),
    Message('note_off', channel=9, note=55, velocity=64, time=0),
    Message('note_on', channel=9, note=51, velocity=100, time=128),
    Message('note_on', channel=9, note=42, velocity=100, time=0),
    Message('note_on', channel=9, note=55, velocity=100, time=0),
    Message('note_off', channel=9, note=51, velocity=64, time=64),
    Message('note_off', channel=9, note=42, velocity=64, time=0),
    Message('note_off', channel=9, note=55, velocity=64, time=0),
    Message('note_on', channel=9, note=36, velocity=100, time=32),
    Message('note_off', channel=9, note=36, velocity=64, time=64),
    Message('note_on', channel=9, note=36, velocity=100, time=32),
    Message('note_on', channel=9, note=51, velocity=100, time=0),
    Message('note_on', channel=9, note=46, velocity=100, time=0),
    Message('note_on', channel=9, note=55, velocity=100, time=0),
    Message('note_off', channel=9, note=36, velocity=64, time=64),
    Message('note_off', channel=9, note=51, velocity=64, time=0),
    Message('note_off', channel=9, note=55, velocity=64, time=0),
    Message('note_off', channel=9, note=46, velocity=64, time=64),
    Message('note_on', channel=9, note=36, velocity=100, time=64),
    Message('note_on', channel=9, note=51, velocity=100, time=0),
    Message('note_on', channel=9, note=42, velocity=100, time=0),
    Message('note_on', channel=9, note=55, velocity=100, time=0),
    Message('note_off', channel=9, note=36, velocity=64, time=64),
    Message('note_off', channel=9, note=51, velocity=64, time=0),
    Message('note_off', channel=9, note=42, velocity=64, time=0),
    Message('note_off', channel=9, note=55, velocity=64, time=0),
    Message('note_on', channel=9, note=38, velocity=100, time=128),
    Message('note_on', channel=9, note=51, velocity=100, time=0),
    Message('note_on', channel=9, note=42, velocity=100, time=0),
    Message('note_on', channel=9, note=55, velocity=100, time=0),
    Message('note_off', channel=9, note=38, velocity=64, time=64),
    Message('note_off', channel=9, note=51, velocity=64, time=0),
    Message('note_off', channel=9, note=42, velocity=64, time=0),
    Message('note_off', channel=9, note=55, velocity=64, time=0),
    Message('note_on', channel=9, note=36, velocity=100, time=32),
    Message('note_on', channel=9, note=38, velocity=100, time=48),
    Message('note_off', channel=9, note=36, velocity=64, time=16),
    Message('note_on', channel=9, note=42, velocity=100, time=32),
    Message('note_on', channel=9, note=55, velocity=100, time=0),
    Message('note_on', channel=9, note=51, velocity=100, time=0),
    Message('note_on', channel=9, note=38, velocity=100, time=0),
    Message('note_off', channel=9, note=38, velocity=64, time=16),
    Message('note_off', channel=9, note=42, velocity=64, time=48),
    Message('note_off', channel=9, note=55, velocity=64, time=0),
    Message('note_off', channel=9, note=51, velocity=64, time=0),
    Message('note_off', channel=9, note=38, velocity=64, time=0),
    Message('note_on', channel=9, note=36, velocity=100, time=32),
    Message('note_off', channel=9, note=36, velocity=64, time=64),
    Message('note_on', channel=9, note=57, velocity=100, time=32),
    Message('note_on', channel=9, note=49, velocity=100, time=0),
    Message('note_on', channel=9, note=36, velocity=100, time=0),
    Message('note_on', channel=9, note=51, velocity=100, time=0),
    Message('note_on', channel=9, note=46, velocity=100, time=0),
    Message('note_on', channel=9, note=55, velocity=100, time=0),
    Message('note_off', channel=9, note=57, velocity=64, time=64),
    Message('note_off', channel=9, note=49, velocity=64, time=0),
    Message('note_off', channel=9, note=36, velocity=64, time=0),
    Message('note_off', channel=9, note=51, velocity=64, time=0),
    Message('note_off', channel=9, note=55, velocity=64, time=0),
    Message('note_off', channel=9, note=46, velocity=64, time=64),
    Message('note_on', channel=9, note=51, velocity=100, time=64),
    Message('note_on', channel=9, note=42, velocity=100, time=0),
    Message('note_on', channel=9, note=55, velocity=100, time=0),
    Message('note_off', channel=9, note=51, velocity=64, time=64),
    Message('note_off', channel=9, note=42, velocity=64, time=0),
    Message('note_off', channel=9, note=55, velocity=64, time=0),
    Message('note_on', channel=9, note=36, velocity=100, time=32),
    Message('note_off', channel=9, note=36, velocity=64, time=64),
    Message('note_on', channel=9, note=38, velocity=100, time=32),
    Message('note_on', channel=9, note=51, velocity=100, time=0),
    Message('note_on', channel=9, note=42, velocity=100, time=0),
    Message('note_on', channel=9, note=55, velocity=100, time=0),
    Message('note_off', channel=9, note=38, velocity=64, time=64),
    Message('note_off', channel=9, note=51, velocity=64, time=0),
    Message('note_off', channel=9, note=42, velocity=64, time=0),
    Message('note_off', channel=9, note=55, velocity=64, time=0),
    Message('note_on', channel=9, note=51, velocity=100, time=128),
    Message('note_on', channel=9, note=42, velocity=100, time=0),
    Message('note_on', channel=9, note=55, velocity=100, time=0),
    Message('note_off', channel=9, note=51, velocity=64, time=64),
    Message('note_off', channel=9, note=42, velocity=64, time=0),
    Message('note_off', channel=9, note=55, velocity=64, time=0),
    Message('note_on', channel=9, note=36, velocity=100, time=32),
    Message('note_off', channel=9, note=36, velocity=64, time=64),
    Message('note_on', channel=9, note=36, velocity=100, time=32),
    Message('note_on', channel=9, note=51, velocity=100, time=0),
    Message('note_on', channel=9, note=46, velocity=100, time=0),
    Message('note_on', channel=9, note=55, velocity=100, time=0),
    Message('note_off', channel=9, note=36, velocity=64, time=64),
    Message('note_off', channel=9, note=51, velocity=64, time=0),
    Message('note_off', channel=9, note=55, velocity=64, time=0),
    Message('note_off', channel=9, note=46, velocity=64, time=64),
    Message('note_on', channel=9, note=36, velocity=100, time=64),
    Message('note_on', channel=9, note=51, velocity=100, time=0),
    Message('note_on', channel=9, note=42, velocity=100, time=0),
    Message('note_on', channel=9, note=55, velocity=100, time=0),
    Message('note_off', channel=9, note=36, velocity=64, time=64),
    Message('note_off', channel=9, note=51, velocity=64, time=0),
    Message('note_off', channel=9, note=42, velocity=64, time=0),
    Message('note_off', channel=9, note=55, velocity=64, time=0),
    Message('note_on', channel=9, note=38, velocity=100, time=128),
    Message('note_on', channel=9, note=51, velocity=100, time=0),
    Message('note_on', channel=9, note=42, velocity=100, time=0),
    Message('note_on', channel=9, note=55, velocity=100, time=0),
    Message('note_off', channel=9, note=38, velocity=64, time=64),
    Message('note_off', channel=9, note=51, velocity=64, time=0),
    Message('note_off', channel=9, note=42, velocity=64, time=0),
    Message('note_off', channel=9, note=55, velocity=64, time=0),
    Message('note_on', channel=9, note=36, velocity=100, time=32),
    Message('note_off', channel=9, note=36, velocity=64, time=64),
    Message('note_on', channel=9, note=51, velocity=100, time=32),
    Message('note_on', channel=9, note=42, velocity=100, time=0),
    Message('note_on', channel=9, note=55, velocity=100, time=0),
    Message('note_off', channel=9, note=51, velocity=64, time=64),
    Message('note_off', channel=9, note=42, velocity=64, time=0),
    Message('note_off', channel=9, note=55, velocity=64, time=0),
    Message('note_on', channel=9, note=36, velocity=100, time=32),
    Message('note_off', channel=9, note=36, velocity=64, time=64),
    Message('note_on', channel=9, note=57, velocity=100, time=32),
    Message('note_on', channel=9, note=49, velocity=100, time=0),
    Message('note_on', channel=9, note=36, velocity=100, time=0),
    Message('note_on', channel=9, note=51, velocity=100, time=0),
    Message('note_on', channel=9, note=46, velocity=100, time=0),
    Message('note_on', channel=9, note=55, velocity=100, time=0),
    Message('note_off', channel=9, note=57, velocity=64, time=64),
    Message('note_off', channel=9, note=49, velocity=64, time=0),
    Message('note_off', channel=9, note=36, velocity=64, time=0),
    Message('note_off', channel=9, note=51, velocity=64, time=0),
    Message('note_off', channel=9, note=55, velocity=64, time=0),
    Message('note_off', channel=9, note=46, velocity=64, time=64),
    Message('note_on', channel=9, note=51, velocity=100, time=64),
    Message('note_on', channel=9, note=42, velocity=100, time=0),
    Message('note_on', channel=9, note=55, velocity=100, time=0),
    Message('note_off', channel=9, note=51, velocity=64, time=64),
    Message('note_off', channel=9, note=42, velocity=64, time=0),
    Message('note_off', channel=9, note=55, velocity=64, time=0),
    Message('note_on', channel=9, note=36, velocity=100, time=32),
    Message('note_off', channel=9, note=36, velocity=64, time=64),
    Message('note_on', channel=9, note=38, velocity=100, time=32),
    Message('note_on', channel=9, note=51, velocity=100, time=0),
    Message('note_on', channel=9, note=42, velocity=100, time=0),
    Message('note_on', channel=9, note=55, velocity=100, time=0),
    Message('note_off', channel=9, note=38, velocity=64, time=64),
    Message('note_off', channel=9, note=51, velocity=64, time=0),
    Message('note_off', channel=9, note=42, velocity=64, time=0),
    Message('note_off', channel=9, note=55, velocity=64, time=0),
    Message('note_on', channel=9, note=51, velocity=100, time=128),
    Message('note_on', channel=9, note=42, velocity=100, time=0),
    Message('note_on', channel=9, note=55, velocity=100, time=0),
    Message('note_off', channel=9, note=51, velocity=64, time=64),
    Message('note_off', channel=9, note=42, velocity=64, time=0),
    Message('note_off', channel=9, note=55, velocity=64, time=0),
    Message('note_on', channel=9, note=36, velocity=100, time=32),
    Message('note_off', channel=9, note=36, velocity=64, time=64),
    Message('note_on', channel=9, note=36, velocity=100, time=32),
    Message('note_on', channel=9, note=51, velocity=100, time=0),
    Message('note_on', channel=9, note=46, velocity=100, time=0),
    Message('note_on', channel=9, note=55, velocity=100, time=0),
    Message('note_off', channel=9, note=36, velocity=64, time=64),
    Message('note_off', channel=9, note=51, velocity=64, time=0),
    Message('note_off', channel=9, note=55, velocity=64, time=0),
    Message('note_off', channel=9, note=46, velocity=64, time=64),
    Message('note_on', channel=9, note=36, velocity=100, time=64),
    Message('note_on', channel=9, note=51, velocity=100, time=0),
    Message('note_on', channel=9, note=42, velocity=100, time=0),
    Message('note_on', channel=9, note=55, velocity=100, time=0),
    Message('note_off', channel=9, note=36, velocity=64, time=64),
    Message('note_off', channel=9, note=51, velocity=64, time=0),
    Message('note_off', channel=9, note=42, velocity=64, time=0),
    Message('note_off', channel=9, note=55, velocity=64, time=0),
    Message('note_on', channel=9, note=38, velocity=100, time=128),
    Message('note_on', channel=9, note=51, velocity=100, time=0),
    Message('note_on', channel=9, note=42, velocity=100, time=0),
    Message('note_on', channel=9, note=55, velocity=100, time=0),
    Message('note_off', channel=9, note=38, velocity=64, time=64),
    Message('note_off', channel=9, note=51, velocity=64, time=0),
    Message('note_off', channel=9, note=42, velocity=64, time=0),
    Message('note_off', channel=9, note=55, velocity=64, time=0),
    Message('note_on', channel=9, note=36, velocity=100, time=32),
    Message('note_on', channel=9, note=38, velocity=100, time=48),
    Message('note_off', channel=9, note=36, velocity=64, time=16),
    Message('note_on', channel=9, note=42, velocity=100, time=32),
    Message('note_on', channel=9, note=55, velocity=100, time=0),
    Message('note_on', channel=9, note=51, velocity=100, time=0),
    Message('note_on', channel=9, note=38, velocity=100, time=0),
    Message('note_off', channel=9, note=38, velocity=64, time=16),
    Message('note_off', channel=9, note=42, velocity=64, time=48),
    Message('note_off', channel=9, note=55, velocity=64, time=0),
    Message('note_off', channel=9, note=51, velocity=64, time=0),
    Message('note_off', channel=9, note=38, velocity=64, time=0),
    Message('note_on', channel=9, note=36, velocity=100, time=32),
    Message('note_off', channel=9, note=36, velocity=64, time=64),
    Message('note_on', channel=9, note=57, velocity=100, time=32),
    Message('note_on', channel=9, note=49, velocity=100, time=0),
    Message('note_on', channel=9, note=36, velocity=100, time=0),
    Message('note_on', channel=9, note=51, velocity=100, time=0),
    Message('note_on', channel=9, note=46, velocity=100, time=0),
    Message('note_on', channel=9, note=55, velocity=100, time=0),
    Message('note_off', channel=9, note=57, velocity=64, time=64),
    Message('note_off', channel=9, note=49, velocity=64, time=0),
    Message('note_off', channel=9, note=36, velocity=64, time=0),
    Message('note_off', channel=9, note=51, velocity=64, time=0),
    Message('note_off', channel=9, note=55, velocity=64, time=0),
    Message('note_off', channel=9, note=46, velocity=64, time=64),
    Message('note_on', channel=9, note=51, velocity=100, time=64),
    Message('note_on', channel=9, note=42, velocity=100, time=0),
    Message('note_on', channel=9, note=55, velocity=100, time=0),
    Message('note_off', channel=9, note=51, velocity=64, time=64),
    Message('note_off', channel=9, note=42, velocity=64, time=0),
    Message('note_off', channel=9, note=55, velocity=64, time=0),
    Message('note_on', channel=9, note=36, velocity=100, time=32),
    Message('note_off', channel=9, note=36, velocity=64, time=64),
    Message('note_on', channel=9, note=38, velocity=100, time=32),
    Message('note_on', channel=9, note=51, velocity=100, time=0),
    Message('note_on', channel=9, note=42, velocity=100, time=0),
    Message('note_on', channel=9, note=55, velocity=100, time=0),
    Message('note_off', channel=9, note=38, velocity=64, time=64),
    Message('note_off', channel=9, note=51, velocity=64, time=0),
    Message('note_off', channel=9, note=42, velocity=64, time=0),
    Message('note_off', channel=9, note=55, velocity=64, time=0),
    Message('note_on', channel=9, note=51, velocity=100, time=128),
    Message('note_on', channel=9, note=42, velocity=100, time=0),
    Message('note_on', channel=9, note=55, velocity=100, time=0),
    Message('note_off', channel=9, note=51, velocity=64, time=64),
    Message('note_off', channel=9, note=42, velocity=64, time=0),
    Message('note_off', channel=9, note=55, velocity=64, time=0),
    Message('note_on', channel=9, note=36, velocity=100, time=32),
    Message('note_off', channel=9, note=36, velocity=64, time=64),
    Message('note_on', channel=9, note=36, velocity=100, time=32),
    Message('note_on', channel=9, note=51, velocity=100, time=0),
    Message('note_on', channel=9, note=46, velocity=100, time=0),
    Message('note_on', channel=9, note=55, velocity=100, time=0),
    Message('note_off', channel=9, note=36, velocity=64, time=64),
    Message('note_off', channel=9, note=51, velocity=64, time=0),
    Message('note_off', channel=9, note=55, velocity=64, time=0),
    Message('note_off', channel=9, note=46, velocity=64, time=64),
    Message('note_on', channel=9, note=36, velocity=100, time=64),
    Message('note_on', channel=9, note=51, velocity=100, time=0),
    Message('note_on', channel=9, note=42, velocity=100, time=0),
    Message('note_on', channel=9, note=55, velocity=100, time=0),
    Message('note_off', channel=9, note=36, velocity=64, time=64),
    Message('note_off', channel=9, note=51, velocity=64, time=0),
    Message('note_off', channel=9, note=42, velocity=64, time=0),
    Message('note_off', channel=9, note=55, velocity=64, time=0),
    Message('note_on', channel=9, note=38, velocity=100, time=128),
    Message('note_on', channel=9, note=51, velocity=100, time=0),
    Message('note_on', channel=9, note=42, velocity=100, time=0),
    Message('note_on', channel=9, note=55, velocity=100, time=0),
    Message('note_off', channel=9, note=38, velocity=64, time=64),
    Message('note_off', channel=9, note=51, velocity=64, time=0),
    Message('note_off', channel=9, note=42, velocity=64, time=0),
    Message('note_off', channel=9, note=55, velocity=64, time=0),
    Message('note_on', channel=9, note=36, velocity=100, time=32),
    Message('note_off', channel=9, note=36, velocity=64, time=64),
    Message('note_on', channel=9, note=51, velocity=100, time=32),
    Message('note_on', channel=9, note=42, velocity=100, time=0),
    Message('note_on', channel=9, note=55, velocity=100, time=0),
    Message('note_off', channel=9, note=51, velocity=64, time=64),
    Message('note_off', channel=9, note=42, velocity=64, time=0),
    Message('note_off', channel=9, note=55, velocity=64, time=0),
    Message('note_on', channel=9, note=36, velocity=100, time=32),
    Message('note_off', channel=9, note=36, velocity=64, time=64),
    Message('note_on', channel=9, note=57, velocity=100, time=32),
    Message('note_on', channel=9, note=49, velocity=100, time=0),
    Message('note_on', channel=9, note=36, velocity=100, time=0),
    Message('note_on', channel=9, note=51, velocity=100, time=0),
    Message('note_on', channel=9, note=46, velocity=100, time=0),
    Message('note_on', channel=9, note=55, velocity=100, time=0),
    Message('note_off', channel=9, note=57, velocity=64, time=64),
    Message('note_off', channel=9, note=49, velocity=64, time=0),
    Message('note_off', channel=9, note=36, velocity=64, time=0),
    Message('note_off', channel=9, note=51, velocity=64, time=0),
    Message('note_off', channel=9, note=55, velocity=64, time=0),
    Message('note_off', channel=9, note=46, velocity=64, time=64),
    Message('note_on', channel=9, note=51, velocity=100, time=64),
    Message('note_on', channel=9, note=42, velocity=100, time=0),
    Message('note_on', channel=9, note=55, velocity=100, time=0),
    Message('note_off', channel=9, note=51, velocity=64, time=64),
    Message('note_off', channel=9, note=42, velocity=64, time=0),
    Message('note_off', channel=9, note=55, velocity=64, time=0),
    Message('note_on', channel=9, note=36, velocity=100, time=32),
    Message('note_off', channel=9, note=36, velocity=64, time=64),
    Message('note_on', channel=9, note=38, velocity=100, time=32),
    Message('note_on', channel=9, note=51, velocity=100, time=0),
    Message('note_on', channel=9, note=42, velocity=100, time=0),
    Message('note_on', channel=9, note=55, velocity=100, time=0),
    Message('note_off', channel=9, note=38, velocity=64, time=64),
    Message('note_off', channel=9, note=51, velocity=64, time=0),
    Message('note_off', channel=9, note=42, velocity=64, time=0),
    Message('note_off', channel=9, note=55, velocity=64, time=0),
    Message('note_on', channel=9, note=51, velocity=100, time=128),
    Message('note_on', channel=9, note=42, velocity=100, time=0),
    Message('note_on', channel=9, note=55, velocity=100, time=0),
    Message('note_off', channel=9, note=51, velocity=64, time=64),
    Message('note_off', channel=9, note=42, velocity=64, time=0),
    Message('note_off', channel=9, note=55, velocity=64, time=0),
    Message('note_on', channel=9, note=36, velocity=100, time=32),
    Message('note_off', channel=9, note=36, velocity=64, time=64),
    Message('note_on', channel=9, note=36, velocity=100, time=32),
    Message('note_on', channel=9, note=51, velocity=100, time=0),
    Message('note_on', channel=9, note=46, velocity=100, time=0),
    Message('note_on', channel=9, note=55, velocity=100, time=0),
    Message('note_off', channel=9, note=36, velocity=64, time=64),
    Message('note_off', channel=9, note=51, velocity=64, time=0),
    Message('note_off', channel=9, note=55, velocity=64, time=0),
    Message('note_off', channel=9, note=46, velocity=64, time=64),
    Message('note_on', channel=9, note=36, velocity=100, time=64),
    Message('note_on', channel=9, note=51, velocity=100, time=0),
    Message('note_on', channel=9, note=42, velocity=100, time=0),
    Message('note_on', channel=9, note=55, velocity=100, time=0),
    Message('note_off', channel=9, note=36, velocity=64, time=64),
    Message('note_off', channel=9, note=51, velocity=64, time=0),
    Message('note_off', channel=9, note=42, velocity=64, time=0),
    Message('note_off', channel=9, note=55, velocity=64, time=0),
    Message('note_on', channel=9, note=38, velocity=100, time=128),
    Message('note_on', channel=9, note=51, velocity=100, time=0),
    Message('note_on', channel=9, note=42, velocity=100, time=0),
    Message('note_on', channel=9, note=55, velocity=100, time=0),
    Message('note_on', channel=9, note=38, velocity=100, time=0),
    Message('note_on', channel=9, note=57, velocity=100, time=0),
    Message('note_on', channel=9, note=47, velocity=100, time=0),
    Message('note_on', channel=9, note=36, velocity=100, time=0),
    Message('note_on', channel=9, note=38, velocity=100, time=0),
    Message('note_on', channel=9, note=57, velocity=100, time=0),
    Message('note_off', channel=9, note=38, velocity=64, time=64),
    Message('note_off', channel=9, note=51, velocity=64, time=0),
    Message('note_off', channel=9, note=42, velocity=64, time=0),
    Message('note_off', channel=9, note=55, velocity=64, time=0),
    Message('note_off', channel=9, note=38, velocity=64, time=0),
    Message('note_off', channel=9, note=57, velocity=64, time=0),
    Message('note_off', channel=9, note=47, velocity=64, time=0),
    Message('note_off', channel=9, note=36, velocity=64, time=0),
    Message('note_off', channel=9, note=38, velocity=64, time=0),
    Message('note_off', channel=9, note=57, velocity=64, time=0),
    Message('note_on', channel=9, note=47, velocity=100, time=0),
    Message('note_on', channel=9, note=36, velocity=100, time=32),
    Message('note_on', channel=9, note=36, velocity=100, time=0),
    Message('note_on', channel=9, note=47, velocity=100, time=0),
    Message('note_on', channel=9, note=36, velocity=100, time=0),
    Message('note_on', channel=9, note=38, velocity=100, time=0),
    Message('note_off', channel=9, note=47, velocity=64, time=32),
    Message('note_on', channel=9, note=47, velocity=100, time=12),
    Message('note_on', channel=9, note=38, velocity=100, time=4),
    Message('note_off', channel=9, note=36, velocity=64, time=16),
    Message('note_off', channel=9, note=36, velocity=64, time=0),
    Message('note_off', channel=9, note=47, velocity=64, time=0),
    Message('note_off', channel=9, note=36, velocity=64, time=0),
    Message('note_off', channel=9, note=38, velocity=64, time=0),
    Message('note_on', channel=9, note=42, velocity=100, time=32),
    Message('note_on', channel=9, note=55, velocity=100, time=0),
    Message('note_on', channel=9, note=51, velocity=100, time=0),
    Message('note_on', channel=9, note=38, velocity=100, time=0),
    Message('note_on', channel=9, note=38, velocity=100, time=0),
    Message('note_on', channel=9, note=36, velocity=100, time=0),
    Message('note_on', channel=9, note=57, velocity=100, time=0),
    Message('note_on', channel=9, note=45, velocity=100, time=0),
    Message('note_on', channel=9, note=38, velocity=100, time=0),
    Message('note_on', channel=9, note=57, velocity=100, time=0),
    Message('note_off', channel=9, note=47, velocity=64, time=12),
    Message('note_off', channel=9, note=38, velocity=64, time=4),
    Message('note_on', channel=9, note=45, velocity=100, time=28),
    Message('note_off', channel=9, note=42, velocity=64, time=20),
    Message('note_off', channel=9, note=55, velocity=64, time=0),
    Message('note_off', channel=9, note=51, velocity=64, time=0),
    Message('note_off', channel=9, note=38, velocity=64, time=0),
    Message('note_off', channel=9, note=38, velocity=64, time=0),
    Message('note_off', channel=9, note=36, velocity=64, time=0),
    Message('note_off', channel=9, note=57, velocity=64, time=0),
    Message('note_off', channel=9, note=45, velocity=64, time=0),
    Message('note_off', channel=9, note=38, velocity=64, time=0),
    Message('note_off', channel=9, note=57, velocity=64, time=0),
    Message('note_on', channel=9, note=36, velocity=100, time=32),
    Message('note_on', channel=9, note=45, velocity=100, time=0),
    Message('note_on', channel=9, note=36, velocity=100, time=0),
    Message('note_on', channel=9, note=38, velocity=100, time=0),
    Message('note_off', channel=9, note=45, velocity=64, time=12),
    Message('note_on', channel=9, note=45, velocity=100, time=28),
    Message('note_off', channel=9, note=36, velocity=64, time=24),
    Message('note_off', channel=9, note=45, velocity=64, time=0),
    Message('note_off', channel=9, note=36, velocity=64, time=0),
    Message('note_off', channel=9, note=38, velocity=64, time=0),
    Message('note_on', channel=9, note=57, velocity=100, time=32),
    Message('note_on', channel=9, note=49, velocity=100, time=0),
    Message('note_on', channel=9, note=36, velocity=100, time=0),
    Message('note_on', channel=9, note=51, velocity=100, time=0),
    Message('note_on', channel=9, note=46, velocity=100, time=0),
    Message('note_on', channel=9, note=55, velocity=100, time=0),
    Message('note_off', channel=9, note=45, velocity=64, time=8),
    Message('note_off', channel=9, note=57, velocity=64, time=56),
    Message('note_off', channel=9, note=49, velocity=64, time=0),
    Message('note_off', channel=9, note=36, velocity=64, time=0),
    Message('note_off', channel=9, note=51, velocity=64, time=0),
    Message('note_off', channel=9, note=55, velocity=64, time=0),
    Message('note_off', channel=9, note=46, velocity=64, time=64),
    Message('note_on', channel=9, note=51, velocity=100, time=64),
    Message('note_on', channel=9, note=42, velocity=100, time=0),
    Message('note_on', channel=9, note=55, velocity=100, time=0),
    Message('note_off', channel=9, note=51, velocity=64, time=64),
    Message('note_off', channel=9, note=42, velocity=64, time=0),
    Message('note_off', channel=9, note=55, velocity=64, time=0),
    Message('note_on', channel=9, note=36, velocity=100, time=32),
    Message('note_off', channel=9, note=36, velocity=64, time=64),
    Message('note_on', channel=9, note=38, velocity=100, time=32),
    Message('note_on', channel=9, note=51, velocity=100, time=0),
    Message('note_on', channel=9, note=42, velocity=100, time=0),
    Message('note_on', channel=9, note=55, velocity=100, time=0),
    Message('note_off', channel=9, note=38, velocity=64, time=64),
    Message('note_off', channel=9, note=51, velocity=64, time=0),
    Message('note_off', channel=9, note=42, velocity=64, time=0),
    Message('note_off', channel=9, note=55, velocity=64, time=0),
    Message('note_on', channel=9, note=51, velocity=100, time=128),
    Message('note_on', channel=9, note=42, velocity=100, time=0),
    Message('note_on', channel=9, note=55, velocity=100, time=0),
    Message('note_off', channel=9, note=51, velocity=64, time=64),
    Message('note_off', channel=9, note=42, velocity=64, time=0),
    Message('note_off', channel=9, note=55, velocity=64, time=0),
    Message('note_on', channel=9, note=36, velocity=100, time=32),
    Message('note_off', channel=9, note=36, velocity=64, time=64),
    Message('note_on', channel=9, note=36, velocity=100, time=32),
    Message('note_on', channel=9, note=51, velocity=100, time=0),
    Message('note_on', channel=9, note=46, velocity=100, time=0),
    Message('note_on', channel=9, note=55, velocity=100, time=0),
    Message('note_off', channel=9, note=36, velocity=64, time=64),
    Message('note_off', channel=9, note=51, velocity=64, time=0),
    Message('note_off', channel=9, note=55, velocity=64, time=0),
    Message('note_off', channel=9, note=46, velocity=64, time=64),
    Message('note_on', channel=9, note=36, velocity=100, time=64),
    Message('note_on', channel=9, note=51, velocity=100, time=0),
    Message('note_on', channel=9, note=42, velocity=100, time=0),
    Message('note_on', channel=9, note=55, velocity=100, time=0),
    Message('note_off', channel=9, note=36, velocity=64, time=64),
    Message('note_off', channel=9, note=51, velocity=64, time=0),
    Message('note_off', channel=9, note=42, velocity=64, time=0),
    Message('note_off', channel=9, note=55, velocity=64, time=0),
    Message('note_on', channel=9, note=38, velocity=100, time=128),
    Message('note_on', channel=9, note=51, velocity=100, time=0),
    Message('note_on', channel=9, note=42, velocity=100, time=0),
    Message('note_on', channel=9, note=55, velocity=100, time=0),
    Message('note_on', channel=9, note=38, velocity=100, time=0),
    Message('note_on', channel=9, note=57, velocity=100, time=0),
    Message('note_on', channel=9, note=47, velocity=100, time=0),
    Message('note_on', channel=9, note=36, velocity=100, time=0),
    Message('note_on', channel=9, note=38, velocity=100, time=0),
    Message('note_on', channel=9, note=57, velocity=100, time=0),
    Message('note_off', channel=9, note=38, velocity=64, time=64),
    Message('note_off', channel=9, note=51, velocity=64, time=0),
    Message('note_off', channel=9, note=42, velocity=64, time=0),
    Message('note_off', channel=9, note=55, velocity=64, time=0),
    Message('note_off', channel=9, note=38, velocity=64, time=0),
    Message('note_off', channel=9, note=57, velocity=64, time=0),
    Message('note_off', channel=9, note=47, velocity=64, time=0),
    Message('note_off', channel=9, note=36, velocity=64, time=0),
    Message('note_off', channel=9, note=38, velocity=64, time=0),
    Message('note_off', channel=9, note=57, velocity=64, time=0),
    Message('note_on', channel=9, note=47, velocity=100, time=0),
    Message('note_on', channel=9, note=36, velocity=100, time=32),
    Message('note_on', channel=9, note=36, velocity=100, time=0),
    Message('note_on', channel=9, note=47, velocity=100, time=0),
    Message('note_on', channel=9, note=36, velocity=100, time=0),
    Message('note_on', channel=9, note=38, velocity=100, time=0),
    Message('note_off', channel=9, note=47, velocity=64, time=32),
    Message('note_on', channel=9, note=47, velocity=100, time=12),
    Message('note_off', channel=9, note=36, velocity=64, time=20),
    Message('note_off', channel=9, note=36, velocity=64, time=0),
    Message('note_off', channel=9, note=47, velocity=64, time=0),
    Message('note_off', channel=9, note=36, velocity=64, time=0),
    Message('note_off', channel=9, note=38, velocity=64, time=0),
    Message('note_on', channel=9, note=51, velocity=100, time=32),
    Message('note_on', channel=9, note=42, velocity=100, time=0),
    Message('note_on', channel=9, note=55, velocity=100, time=0),
    Message('note_on', channel=9, note=38, velocity=100, time=0),
    Message('note_on', channel=9, note=36, velocity=100, time=0),
    Message('note_on', channel=9, note=57, velocity=100, time=0),
    Message('note_on', channel=9, note=45, velocity=100, time=0),
    Message('note_on', channel=9, note=38, velocity=100, time=0),
    Message('note_on', channel=9, note=57, velocity=100, time=0),
    Message('note_off', channel=9, note=47, velocity=64, time=12),
    Message('note_on', channel=9, note=45, velocity=100, time=32),
    Message('note_off', channel=9, note=51, velocity=64, time=20),
    Message('note_off', channel=9, note=42, velocity=64, time=0),
    Message('note_off', channel=9, note=55, velocity=64, time=0),
    Message('note_off', channel=9, note=38, velocity=64, time=0),
    Message('note_off', channel=9, note=36, velocity=64, time=0),
    Message('note_off', channel=9, note=57, velocity=64, time=0),
    Message('note_off', channel=9, note=45, velocity=64, time=0),
    Message('note_off', channel=9, note=38, velocity=64, time=0),
    Message('note_off', channel=9, note=57, velocity=64, time=0),
    Message('note_on', channel=9, note=36, velocity=100, time=32),
    Message('note_on', channel=9, note=45, velocity=100, time=0),
    Message('note_on', channel=9, note=36, velocity=100, time=0),
    Message('note_on', channel=9, note=38, velocity=100, time=0),
    Message('note_off', channel=9, note=45, velocity=64, time=12),
    Message('note_on', channel=9, note=45, velocity=100, time=28),
    Message('note_off', channel=9, note=36, velocity=64, time=24),
    Message('note_off', channel=9, note=45, velocity=64, time=0),
    Message('note_off', channel=9, note=36, velocity=64, time=0),
    Message('note_off', channel=9, note=38, velocity=64, time=0),
    Message('note_on', channel=9, note=57, velocity=100, time=32),
    Message('note_on', channel=9, note=49, velocity=100, time=0),
    Message('note_on', channel=9, note=36, velocity=100, time=0),
    Message('note_on', channel=9, note=51, velocity=100, time=0),
    Message('note_on', channel=9, note=46, velocity=100, time=0),
    Message('note_on', channel=9, note=55, velocity=100, time=0),
    Message('note_off', channel=9, note=45, velocity=64, time=8),
    Message('note_off', channel=9, note=57, velocity=64, time=56),
    Message('note_off', channel=9, note=49, velocity=64, time=0),
    Message('note_off', channel=9, note=36, velocity=64, time=0),
    Message('note_off', channel=9, note=51, velocity=64, time=0),
    Message('note_off', channel=9, note=55, velocity=64, time=0),
    Message('note_off', channel=9, note=46, velocity=64, time=64),
    Message('note_on', channel=9, note=51, velocity=100, time=64),
    Message('note_on', channel=9, note=42, velocity=100, time=0),
    Message('note_on', channel=9, note=55, velocity=100, time=0),
    Message('note_off', channel=9, note=51, velocity=64, time=64),
    Message('note_off', channel=9, note=42, velocity=64, time=0),
    Message('note_off', channel=9, note=55, velocity=64, time=0),
    Message('note_on', channel=9, note=36, velocity=100, time=32),
    Message('note_off', channel=9, note=36, velocity=64, time=64),
    Message('note_on', channel=9, note=38, velocity=100, time=32),
    Message('note_on', channel=9, note=51, velocity=100, time=0),
    Message('note_on', channel=9, note=42, velocity=100, time=0),
    Message('note_on', channel=9, note=55, velocity=100, time=0),
    Message('note_off', channel=9, note=38, velocity=64, time=64),
    Message('note_off', channel=9, note=51, velocity=64, time=0),
    Message('note_off', channel=9, note=42, velocity=64, time=0),
    Message('note_off', channel=9, note=55, velocity=64, time=0),
    Message('note_on', channel=9, note=51, velocity=100, time=128),
    Message('note_on', channel=9, note=42, velocity=100, time=0),
    Message('note_on', channel=9, note=55, velocity=100, time=0),
    Message('note_off', channel=9, note=51, velocity=64, time=64),
    Message('note_off', channel=9, note=42, velocity=64, time=0),
    Message('note_off', channel=9, note=55, velocity=64, time=0),
    Message('note_on', channel=9, note=36, velocity=100, time=32),
    Message('note_off', channel=9, note=36, velocity=64, time=64),
    Message('note_on', channel=9, note=36, velocity=100, time=32),
    Message('note_on', channel=9, note=51, velocity=100, time=0),
    Message('note_on', channel=9, note=46, velocity=100, time=0),
    Message('note_on', channel=9, note=55, velocity=100, time=0),
    Message('note_off', channel=9, note=36, velocity=64, time=64),
    Message('note_off', channel=9, note=51, velocity=64, time=0),
    Message('note_off', channel=9, note=55, velocity=64, time=0),
    Message('note_off', channel=9, note=46, velocity=64, time=64),
    Message('note_on', channel=9, note=36, velocity=100, time=64),
    Message('note_on', channel=9, note=51, velocity=100, time=0),
    Message('note_on', channel=9, note=42, velocity=100, time=0),
    Message('note_on', channel=9, note=55, velocity=100, time=0),
    Message('note_off', channel=9, note=36, velocity=64, time=64),
    Message('note_off', channel=9, note=51, velocity=64, time=0),
    Message('note_off', channel=9, note=42, velocity=64, time=0),
    Message('note_off', channel=9, note=55, velocity=64, time=0),
    Message('note_on', channel=9, note=38, velocity=100, time=128),
    Message('note_on', channel=9, note=51, velocity=100, time=0),
    Message('note_on', channel=9, note=42, velocity=100, time=0),
    Message('note_on', channel=9, note=55, velocity=100, time=0),
    Message('note_on', channel=9, note=38, velocity=100, time=0),
    Message('note_on', channel=9, note=57, velocity=100, time=0),
    Message('note_on', channel=9, note=47, velocity=100, time=0),
    Message('note_on', channel=9, note=36, velocity=100, time=0),
    Message('note_on', channel=9, note=38, velocity=100, time=0),
    Message('note_on', channel=9, note=57, velocity=100, time=0),
    Message('note_off', channel=9, note=38, velocity=64, time=64),
    Message('note_off', channel=9, note=51, velocity=64, time=0),
    Message('note_off', channel=9, note=42, velocity=64, time=0),
    Message('note_off', channel=9, note=55, velocity=64, time=0),
    Message('note_off', channel=9, note=38, velocity=64, time=0),
    Message('note_off', channel=9, note=57, velocity=64, time=0),
    Message('note_off', channel=9, note=47, velocity=64, time=0),
    Message('note_off', channel=9, note=36, velocity=64, time=0),
    Message('note_off', channel=9, note=38, velocity=64, time=0),
    Message('note_off', channel=9, note=57, velocity=64, time=0),
    Message('note_on', channel=9, note=47, velocity=100, time=0),
    Message('note_on', channel=9, note=36, velocity=100, time=32),
    Message('note_on', channel=9, note=36, velocity=100, time=0),
    Message('note_on', channel=9, note=47, velocity=100, time=0),
    Message('note_on', channel=9, note=36, velocity=100, time=0),
    Message('note_on', channel=9, note=38, velocity=100, time=0),
    Message('note_off', channel=9, note=47, velocity=64, time=32),
    Message('note_on', channel=9, note=47, velocity=100, time=12),
    Message('note_on', channel=9, note=38, velocity=100, time=4),
    Message('note_off', channel=9, note=36, velocity=64, time=16),
    Message('note_off', channel=9, note=36, velocity=64, time=0),
    Message('note_off', channel=9, note=47, velocity=64, time=0),
    Message('note_off', channel=9, note=36, velocity=64, time=0),
    Message('note_off', channel=9, note=38, velocity=64, time=0),
    Message('note_on', channel=9, note=42, velocity=100, time=32),
    Message('note_on', channel=9, note=55, velocity=100, time=0),
    Message('note_on', channel=9, note=51, velocity=100, time=0),
    Message('note_on', channel=9, note=38, velocity=100, time=0),
    Message('note_on', channel=9, note=38, velocity=100, time=0),
    Message('note_on', channel=9, note=36, velocity=100, time=0),
    Message('note_on', channel=9, note=57, velocity=100, time=0),
    Message('note_on', channel=9, note=45, velocity=100, time=0),
    Message('note_on', channel=9, note=38, velocity=100, time=0),
    Message('note_on', channel=9, note=57, velocity=100, time=0),
    Message('note_off', channel=9, note=47, velocity=64, time=12),
    Message('note_off', channel=9, note=38, velocity=64, time=4),
    Message('note_on', channel=9, note=45, velocity=100, time=28),
    Message('note_off', channel=9, note=42, velocity=64, time=20),
    Message('note_off', channel=9, note=55, velocity=64, time=0),
    Message('note_off', channel=9, note=51, velocity=64, time=0),
    Message('note_off', channel=9, note=38, velocity=64, time=0),
    Message('note_off', channel=9, note=38, velocity=64, time=0),
    Message('note_off', channel=9, note=36, velocity=64, time=0),
    Message('note_off', channel=9, note=57, velocity=64, time=0),
    Message('note_off', channel=9, note=45, velocity=64, time=0),
    Message('note_off', channel=9, note=38, velocity=64, time=0),
    Message('note_off', channel=9, note=57, velocity=64, time=0),
    Message('note_on', channel=9, note=36, velocity=100, time=32),
    Message('note_on', channel=9, note=45, velocity=100, time=0),
    Message('note_on', channel=9, note=36, velocity=100, time=0),
    Message('note_on', channel=9, note=38, velocity=100, time=0),
    Message('note_off', channel=9, note=45, velocity=64, time=12),
    Message('note_on', channel=9, note=45, velocity=100, time=28),
    Message('note_off', channel=9, note=36, velocity=64, time=24),
    Message('note_off', channel=9, note=45, velocity=64, time=0),
    Message('note_off', channel=9, note=36, velocity=64, time=0),
    Message('note_off', channel=9, note=38, velocity=64, time=0),
    Message('note_on', channel=9, note=57, velocity=100, time=32),
    Message('note_on', channel=9, note=49, velocity=100, time=0),
    Message('note_on', channel=9, note=36, velocity=100, time=0),
    Message('note_on', channel=9, note=51, velocity=100, time=0),
    Message('note_on', channel=9, note=46, velocity=100, time=0),
    Message('note_on', channel=9, note=55, velocity=100, time=0),
    Message('note_off', channel=9, note=45, velocity=64, time=8),
    Message('note_off', channel=9, note=57, velocity=64, time=56),
    Message('note_off', channel=9, note=49, velocity=64, time=0),
    Message('note_off', channel=9, note=36, velocity=64, time=0),
    Message('note_off', channel=9, note=51, velocity=64, time=0),
    Message('note_off', channel=9, note=55, velocity=64, time=0),
    Message('note_off', channel=9, note=46, velocity=64, time=64),
    Message('note_on', channel=9, note=51, velocity=100, time=64),
    Message('note_on', channel=9, note=42, velocity=100, time=0),
    Message('note_on', channel=9, note=55, velocity=100, time=0),
    Message('note_off', channel=9, note=51, velocity=64, time=64),
    Message('note_off', channel=9, note=42, velocity=64, time=0),
    Message('note_off', channel=9, note=55, velocity=64, time=0),
    Message('note_on', channel=9, note=36, velocity=100, time=32),
    Message('note_off', channel=9, note=36, velocity=64, time=64),
    Message('note_on', channel=9, note=38, velocity=100, time=32),
    Message('note_on', channel=9, note=51, velocity=100, time=0),
    Message('note_on', channel=9, note=42, velocity=100, time=0),
    Message('note_on', channel=9, note=55, velocity=100, time=0),
    Message('note_off', channel=9, note=38, velocity=64, time=64),
    Message('note_off', channel=9, note=51, velocity=64, time=0),
    Message('note_off', channel=9, note=42, velocity=64, time=0),
    Message('note_off', channel=9, note=55, velocity=64, time=0),
    Message('note_on', channel=9, note=51, velocity=100, time=128),
    Message('note_on', channel=9, note=42, velocity=100, time=0),
    Message('note_on', channel=9, note=55, velocity=100, time=0),
    Message('note_off', channel=9, note=51, velocity=64, time=64),
    Message('note_off', channel=9, note=42, velocity=64, time=0),
    Message('note_off', channel=9, note=55, velocity=64, time=0),
    Message('note_on', channel=9, note=36, velocity=100, time=32),
    Message('note_off', channel=9, note=36, velocity=64, time=64),
    Message('note_on', channel=9, note=36, velocity=100, time=32),
    Message('note_on', channel=9, note=51, velocity=100, time=0),
    Message('note_on', channel=9, note=46, velocity=100, time=0),
    Message('note_on', channel=9, note=55, velocity=100, time=0),
    Message('note_off', channel=9, note=36, velocity=64, time=64),
    Message('note_off', channel=9, note=51, velocity=64, time=0),
    Message('note_off', channel=9, note=55, velocity=64, time=0),
    Message('note_off', channel=9, note=46, velocity=64, time=64),
    Message('note_on', channel=9, note=36, velocity=100, time=64),
    Message('note_on', channel=9, note=51, velocity=100, time=0),
    Message('note_on', channel=9, note=42, velocity=100, time=0),
    Message('note_on', channel=9, note=55, velocity=100, time=0),
    Message('note_off', channel=9, note=36, velocity=64, time=64),
    Message('note_off', channel=9, note=51, velocity=64, time=0),
    Message('note_off', channel=9, note=42, velocity=64, time=0),
    Message('note_off', channel=9, note=55, velocity=64, time=0),
    Message('note_on', channel=9, note=38, velocity=100, time=128),
    Message('note_on', channel=9, note=51, velocity=100, time=0),
    Message('note_on', channel=9, note=42, velocity=100, time=0),
    Message('note_on', channel=9, note=55, velocity=100, time=0),
    Message('note_on', channel=9, note=38, velocity=100, time=0),
    Message('note_on', channel=9, note=57, velocity=100, time=0),
    Message('note_on', channel=9, note=47, velocity=100, time=0),
    Message('note_on', channel=9, note=36, velocity=100, time=0),
    Message('note_on', channel=9, note=38, velocity=100, time=0),
    Message('note_on', channel=9, note=57, velocity=100, time=0),
    Message('note_off', channel=9, note=38, velocity=64, time=64),
    Message('note_off', channel=9, note=51, velocity=64, time=0),
    Message('note_off', channel=9, note=42, velocity=64, time=0),
    Message('note_off', channel=9, note=55, velocity=64, time=0),
    Message('note_off', channel=9, note=38, velocity=64, time=0),
    Message('note_off', channel=9, note=57, velocity=64, time=0),
    Message('note_off', channel=9, note=47, velocity=64, time=0),
    Message('note_off', channel=9, note=36, velocity=64, time=0),
    Message('note_off', channel=9, note=38, velocity=64, time=0),
    Message('note_off', channel=9, note=57, velocity=64, time=0),
    Message('note_on', channel=9, note=47, velocity=100, time=0),
    Message('note_on', channel=9, note=36, velocity=100, time=32),
    Message('note_on', channel=9, note=36, velocity=100, time=0),
    Message('note_on', channel=9, note=47, velocity=100, time=0),
    Message('note_on', channel=9, note=36, velocity=100, time=0),
    Message('note_on', channel=9, note=38, velocity=100, time=0),
    Message('note_off', channel=9, note=47, velocity=64, time=32),
    Message('note_on', channel=9, note=47, velocity=100, time=12),
    Message('note_off', channel=9, note=36, velocity=64, time=20),
    Message('note_off', channel=9, note=36, velocity=64, time=0),
    Message('note_off', channel=9, note=47, velocity=64, time=0),
    Message('note_off', channel=9, note=36, velocity=64, time=0),
    Message('note_off', channel=9, note=38, velocity=64, time=0),
    Message('note_on', channel=9, note=51, velocity=100, time=32),
    Message('note_on', channel=9, note=42, velocity=100, time=0),
    Message('note_on', channel=9, note=55, velocity=100, time=0),
    Message('note_on', channel=9, note=38, velocity=100, time=0),
    Message('note_on', channel=9, note=36, velocity=100, time=0),
    Message('note_on', channel=9, note=57, velocity=100, time=0),
    Message('note_on', channel=9, note=45, velocity=100, time=0),
    Message('note_on', channel=9, note=38, velocity=100, time=0),
    Message('note_on', channel=9, note=57, velocity=100, time=0),
    Message('note_off', channel=9, note=47, velocity=64, time=12),
    Message('note_on', channel=9, note=45, velocity=100, time=32),
    Message('note_off', channel=9, note=51, velocity=64, time=20),
    Message('note_off', channel=9, note=42, velocity=64, time=0),
    Message('note_off', channel=9, note=55, velocity=64, time=0),
    Message('note_off', channel=9, note=38, velocity=64, time=0),
    Message('note_off', channel=9, note=36, velocity=64, time=0),
    Message('note_off', channel=9, note=57, velocity=64, time=0),
    Message('note_off', channel=9, note=45, velocity=64, time=0),
    Message('note_off', channel=9, note=38, velocity=64, time=0),
    Message('note_off', channel=9, note=57, velocity=64, time=0),
    Message('note_on', channel=9, note=36, velocity=100, time=32),
    Message('note_on', channel=9, note=45, velocity=100, time=0),
    Message('note_on', channel=9, note=36, velocity=100, time=0),
    Message('note_on', channel=9, note=38, velocity=100, time=0),
    Message('note_off', channel=9, note=45, velocity=64, time=12),
    Message('note_on', channel=9, note=45, velocity=100, time=28),
    Message('note_off', channel=9, note=36, velocity=64, time=24),
    Message('note_off', channel=9, note=45, velocity=64, time=0),
    Message('note_off', channel=9, note=36, velocity=64, time=0),
    Message('note_off', channel=9, note=38, velocity=64, time=0),
    Message('note_on', channel=9, note=57, velocity=100, time=32),
    Message('note_on', channel=9, note=49, velocity=100, time=0),
    Message('note_on', channel=9, note=36, velocity=100, time=0),
    Message('note_on', channel=9, note=51, velocity=100, time=0),
    Message('note_on', channel=9, note=46, velocity=100, time=0),
    Message('note_on', channel=9, note=55, velocity=100, time=0),
    Message('note_off', channel=9, note=45, velocity=64, time=8),
    Message('note_off', channel=9, note=57, velocity=64, time=56),
    Message('note_off', channel=9, note=49, velocity=64, time=0),
    Message('note_off', channel=9, note=36, velocity=64, time=0),
    Message('note_off', channel=9, note=51, velocity=64, time=0),
    Message('note_off', channel=9, note=55, velocity=64, time=0),
    Message('note_off', channel=9, note=46, velocity=64, time=64),
    Message('note_on', channel=9, note=51, velocity=100, time=64),
    Message('note_on', channel=9, note=42, velocity=100, time=0),
    Message('note_on', channel=9, note=55, velocity=100, time=0),
    Message('note_off', channel=9, note=51, velocity=64, time=64),
    Message('note_off', channel=9, note=42, velocity=64, time=0),
    Message('note_off', channel=9, note=55, velocity=64, time=0),
    Message('note_on', channel=9, note=36, velocity=100, time=32),
    Message('note_off', channel=9, note=36, velocity=64, time=64),
    Message('note_on', channel=9, note=38, velocity=100, time=32),
    Message('note_on', channel=9, note=51, velocity=100, time=0),
    Message('note_on', channel=9, note=42, velocity=100, time=0),
    Message('note_on', channel=9, note=55, velocity=100, time=0),
    Message('note_off', channel=9, note=38, velocity=64, time=64),
    Message('note_off', channel=9, note=51, velocity=64, time=0),
    Message('note_off', channel=9, note=42, velocity=64, time=0),
    Message('note_off', channel=9, note=55, velocity=64, time=0),
    Message('note_on', channel=9, note=51, velocity=100, time=128),
    Message('note_on', channel=9, note=42, velocity=100, time=0),
    Message('note_on', channel=9, note=55, velocity=100, time=0),
    Message('note_off', channel=9, note=51, velocity=64, time=64),
    Message('note_off', channel=9, note=42, velocity=64, time=0),
    Message('note_off', channel=9, note=55, velocity=64, time=0),
    Message('note_on', channel=9, note=36, velocity=100, time=32),
    Message('note_off', channel=9, note=36, velocity=64, time=64),
    Message('note_on', channel=9, note=36, velocity=100, time=32),
    Message('note_on', channel=9, note=51, velocity=100, time=0),
    Message('note_on', channel=9, note=46, velocity=100, time=0),
    Message('note_on', channel=9, note=55, velocity=100, time=0),
    Message('note_off', channel=9, note=36, velocity=64, time=64),
    Message('note_off', channel=9, note=51, velocity=64, time=0),
    Message('note_off', channel=9, note=55, velocity=64, time=0),
    Message('note_off', channel=9, note=46, velocity=64, time=64),
    Message('note_on', channel=9, note=36, velocity=100, time=64),
    Message('note_on', channel=9, note=51, velocity=100, time=0),
    Message('note_on', channel=9, note=42, velocity=100, time=0),
    Message('note_on', channel=9, note=55, velocity=100, time=0),
    Message('note_off', channel=9, note=36, velocity=64, time=64),
    Message('note_off', channel=9, note=51, velocity=64, time=0),
    Message('note_off', channel=9, note=42, velocity=64, time=0),
    Message('note_off', channel=9, note=55, velocity=64, time=0),
    Message('note_on', channel=9, note=38, velocity=100, time=32),
    Message('note_on', channel=9, note=57, velocity=100, time=0),
    Message('note_on', channel=9, note=47, velocity=100, time=0),
    Message('note_on', channel=9, note=36, velocity=100, time=0),
    Message('note_on', channel=9, note=38, velocity=100, time=0),
    Message('note_on', channel=9, note=57, velocity=100, time=0),
    Message('note_off', channel=9, note=38, velocity=64, time=64),
    Message('note_off', channel=9, note=57, velocity=64, time=0),
    Message('note_off', channel=9, note=47, velocity=64, time=0),
    Message('note_off', channel=9, note=36, velocity=64, time=0),
    Message('note_off', channel=9, note=38, velocity=64, time=0),
    Message('note_off', channel=9, note=57, velocity=64, time=0),
    Message('note_on', channel=9, note=47, velocity=100, time=0),
    Message('note_on', channel=9, note=38, velocity=100, time=32),
    Message('note_on', channel=9, note=51, velocity=100, time=0),
    Message('note_on', channel=9, note=42, velocity=100, time=0),
    Message('note_on', channel=9, note=55, velocity=100, time=0),
    Message('note_on', channel=9, note=36, velocity=100, time=0),
    Message('note_on', channel=9, note=47, velocity=100, time=0),
    Message('note_on', channel=9, note=36, velocity=100, time=0),
    Message('note_on', channel=9, note=38, velocity=100, time=0),
    Message('note_off', channel=9, note=47, velocity=64, time=32),
    Message('note_on', channel=9, note=47, velocity=100, time=12),
    Message('note_off', channel=9, note=38, velocity=64, time=20),
    Message('note_off', channel=9, note=51, velocity=64, time=0),
    Message('note_off', channel=9, note=42, velocity=64, time=0),
    Message('note_off', channel=9, note=55, velocity=64, time=0),
    Message('note_off', channel=9, note=36, velocity=64, time=0),
    Message('note_off', channel=9, note=47, velocity=64, time=0),
    Message('note_off', channel=9, note=36, velocity=64, time=0),
    Message('note_off', channel=9, note=38, velocity=64, time=0),
    Message('note_on', channel=9, note=36, velocity=100, time=32),
    Message('note_on', channel=9, note=38, velocity=100, time=0),
    Message('note_on', channel=9, note=36, velocity=100, time=0),
    Message('note_on', channel=9, note=57, velocity=100, time=0),
    Message('note_on', channel=9, note=45, velocity=100, time=0),
    Message('note_on', channel=9, note=38, velocity=100, time=0),
    Message('note_on', channel=9, note=57, velocity=100, time=0),
    Message('note_off', channel=9, note=47, velocity=64, time=12),
    Message('note_on', channel=9, note=45, velocity=100, time=32),
    Message('note_on', channel=9, note=38, velocity=100, time=4),
    Message('note_off', channel=9, note=36, velocity=64, time=16),
    Message('note_off', channel=9, note=38, velocity=64, time=0),
    Message('note_off', channel=9, note=36, velocity=64, time=0),
    Message('note_off', channel=9, note=57, velocity=64, time=0),
    Message('note_off', channel=9, note=45, velocity=64, time=0),
    Message('note_off', channel=9, note=38, velocity=64, time=0),
    Message('note_off', channel=9, note=57, velocity=64, time=0),
    Message('note_on', channel=9, note=42, velocity=100, time=32),
    Message('note_on', channel=9, note=55, velocity=100, time=0),
    Message('note_on', channel=9, note=51, velocity=100, time=0),
    Message('note_on', channel=9, note=38, velocity=100, time=0),
    Message('note_on', channel=9, note=45, velocity=100, time=0),
    Message('note_on', channel=9, note=36, velocity=100, time=0),
    Message('note_on', channel=9, note=38, velocity=100, time=0),
    Message('note_off', channel=9, note=45, velocity=64, time=12),
    Message('note_off', channel=9, note=38, velocity=64, time=4),
    Message('note_on', channel=9, note=45, velocity=100, time=24),
    Message('note_off', channel=9, note=42, velocity=64, time=24),
    Message('note_off', channel=9, note=55, velocity=64, time=0),
    Message('note_off', channel=9, note=51, velocity=64, time=0),
    Message('note_off', channel=9, note=38, velocity=64, time=0),
    Message('note_off', channel=9, note=45, velocity=64, time=0),
    Message('note_off', channel=9, note=36, velocity=64, time=0),
    Message('note_off', channel=9, note=38, velocity=64, time=0),
    Message('note_on', channel=9, note=36, velocity=100, time=32),
    Message('note_off', channel=9, note=45, velocity=64, time=8),
    Message('note_off', channel=9, note=36, velocity=64, time=56),
    Message('note_on', channel=9, note=36, velocity=100, time=32),
    Message('note_on', channel=9, note=51, velocity=100, time=0),
    Message('note_on', channel=9, note=46, velocity=100, time=0),
    Message('note_on', channel=9, note=55, velocity=100, time=0),
    Message('note_off', channel=9, note=36, velocity=64, time=64),
    Message('note_off', channel=9, note=51, velocity=64, time=0),
    Message('note_off', channel=9, note=55, velocity=64, time=0),
    Message('note_off', channel=9, note=46, velocity=64, time=64),
    Message('note_on', channel=9, note=36, velocity=100, time=64),
    Message('note_on', channel=9, note=51, velocity=100, time=0),
    Message('note_on', channel=9, note=42, velocity=100, time=0),
    Message('note_on', channel=9, note=55, velocity=100, time=0),
    Message('note_off', channel=9, note=36, velocity=64, time=64),
    Message('note_off', channel=9, note=51, velocity=64, time=0),
    Message('note_off', channel=9, note=42, velocity=64, time=0),
    Message('note_off', channel=9, note=55, velocity=64, time=0),
    Message('note_on', channel=9, note=38, velocity=100, time=128),
    Message('note_on', channel=9, note=51, velocity=100, time=0),
    Message('note_on', channel=9, note=42, velocity=100, time=0),
    Message('note_on', channel=9, note=55, velocity=100, time=0),
    Message('note_on', channel=9, note=38, velocity=100, time=0),
    Message('note_on', channel=9, note=57, velocity=100, time=0),
    Message('note_on', channel=9, note=47, velocity=100, time=0),
    Message('note_on', channel=9, note=36, velocity=100, time=0),
    Message('note_on', channel=9, note=38, velocity=100, time=0),
    Message('note_on', channel=9, note=57, velocity=100, time=0),
    Message('note_off', channel=9, note=38, velocity=64, time=64),
    Message('note_off', channel=9, note=51, velocity=64, time=0),
    Message('note_off', channel=9, note=42, velocity=64, time=0),
    Message('note_off', channel=9, note=55, velocity=64, time=0),
    Message('note_off', channel=9, note=38, velocity=64, time=0),
    Message('note_off', channel=9, note=57, velocity=64, time=0),
    Message('note_off', channel=9, note=47, velocity=64, time=0),
    Message('note_off', channel=9, note=36, velocity=64, time=0),
    Message('note_off', channel=9, note=38, velocity=64, time=0),
    Message('note_off', channel=9, note=57, velocity=64, time=0),
    Message('note_on', channel=9, note=47, velocity=100, time=0),
    Message('note_on', channel=9, note=36, velocity=100, time=32),
    Message('note_on', channel=9, note=36, velocity=100, time=0),
    Message('note_on', channel=9, note=47, velocity=100, time=0),
    Message('note_on', channel=9, note=36, velocity=100, time=0),
    Message('note_on', channel=9, note=38, velocity=100, time=0),
    Message('note_off', channel=9, note=47, velocity=64, time=32),
    Message('note_on', channel=9, note=47, velocity=100, time=12),
    Message('note_on', channel=9, note=38, velocity=100, time=4),
    Message('note_off', channel=9, note=36, velocity=64, time=16),
    Message('note_off', channel=9, note=36, velocity=64, time=0),
    Message('note_off', channel=9, note=47, velocity=64, time=0),
    Message('note_off', channel=9, note=36, velocity=64, time=0),
    Message('note_off', channel=9, note=38, velocity=64, time=0),
    Message('note_on', channel=9, note=42, velocity=100, time=32),
    Message('note_on', channel=9, note=55, velocity=100, time=0),
    Message('note_on', channel=9, note=51, velocity=100, time=0),
    Message('note_on', channel=9, note=38, velocity=100, time=0),
    Message('note_on', channel=9, note=38, velocity=100, time=0),
    Message('note_on', channel=9, note=36, velocity=100, time=0),
    Message('note_on', channel=9, note=57, velocity=100, time=0),
    Message('note_on', channel=9, note=45, velocity=100, time=0),
    Message('note_on', channel=9, note=38, velocity=100, time=0),
    Message('note_on', channel=9, note=57, velocity=100, time=0),
    Message('note_off', channel=9, note=47, velocity=64, time=12),
    Message('note_off', channel=9, note=38, velocity=64, time=4),
    Message('note_on', channel=9, note=45, velocity=100, time=28),
    Message('note_off', channel=9, note=42, velocity=64, time=20),
    Message('note_off', channel=9, note=55, velocity=64, time=0),
    Message('note_off', channel=9, note=51, velocity=64, time=0),
    Message('note_off', channel=9, note=38, velocity=64, time=0),
    Message('note_off', channel=9, note=38, velocity=64, time=0),
    Message('note_off', channel=9, note=36, velocity=64, time=0),
    Message('note_off', channel=9, note=57, velocity=64, time=0),
    Message('note_off', channel=9, note=45, velocity=64, time=0),
    Message('note_off', channel=9, note=38, velocity=64, time=0),
    Message('note_off', channel=9, note=57, velocity=64, time=0),
    Message('note_on', channel=9, note=36, velocity=100, time=32),
    Message('note_on', channel=9, note=45, velocity=100, time=0),
    Message('note_on', channel=9, note=36, velocity=100, time=0),
    Message('note_on', channel=9, note=38, velocity=100, time=0),
    Message('note_off', channel=9, note=45, velocity=64, time=12),
    Message('note_on', channel=9, note=45, velocity=100, time=28),
    Message('note_off', channel=9, note=36, velocity=64, time=24),
    Message('note_off', channel=9, note=45, velocity=64, time=0),
    Message('note_off', channel=9, note=36, velocity=64, time=0),
    Message('note_off', channel=9, note=38, velocity=64, time=0),
    Message('note_on', channel=9, note=36, velocity=100, time=32),
    Message('note_on', channel=9, note=51, velocity=100, time=0),
    Message('note_on', channel=9, note=46, velocity=100, time=0),
    Message('note_on', channel=9, note=55, velocity=100, time=0),
    Message('note_off', channel=9, note=45, velocity=64, time=8),
    Message('note_off', channel=9, note=36, velocity=64, time=56),
    Message('note_off', channel=9, note=51, velocity=64, time=0),
    Message('note_off', channel=9, note=55, velocity=64, time=0),
    Message('note_off', channel=9, note=46, velocity=64, time=64),
    Message('note_on', channel=9, note=36, velocity=100, time=64),
    Message('note_on', channel=9, note=51, velocity=100, time=0),
    Message('note_on', channel=9, note=42, velocity=100, time=0),
    Message('note_on', channel=9, note=55, velocity=100, time=0),
    Message('note_off', channel=9, note=36, velocity=64, time=64),
    Message('note_off', channel=9, note=51, velocity=64, time=0),
    Message('note_off', channel=9, note=42, velocity=64, time=0),
    Message('note_off', channel=9, note=55, velocity=64, time=0),
    Message('note_on', channel=9, note=38, velocity=100, time=128),
    Message('note_on', channel=9, note=51, velocity=100, time=0),
    Message('note_on', channel=9, note=42, velocity=100, time=0),
    Message('note_on', channel=9, note=55, velocity=100, time=0),
    Message('note_on', channel=9, note=38, velocity=100, time=0),
    Message('note_on', channel=9, note=57, velocity=100, time=0),
    Message('note_on', channel=9, note=47, velocity=100, time=0),
    Message('note_on', channel=9, note=36, velocity=100, time=0),
    Message('note_on', channel=9, note=38, velocity=100, time=0),
    Message('note_on', channel=9, note=57, velocity=100, time=0),
    Message('note_on', channel=9, note=38, velocity=100, time=48),
    Message('note_off', channel=9, note=38, velocity=64, time=16),
    Message('note_off', channel=9, note=51, velocity=64, time=0),
    Message('note_off', channel=9, note=42, velocity=64, time=0),
    Message('note_off', channel=9, note=55, velocity=64, time=0),
    Message('note_off', channel=9, note=38, velocity=64, time=0),
    Message('note_off', channel=9, note=57, velocity=64, time=0),
    Message('note_off', channel=9, note=47, velocity=64, time=0),
    Message('note_off', channel=9, note=36, velocity=64, time=0),
    Message('note_off', channel=9, note=38, velocity=64, time=0),
    Message('note_off', channel=9, note=57, velocity=64, time=0),
    Message('note_on', channel=9, note=47, velocity=100, time=0),
    Message('note_on', channel=9, note=36, velocity=100, time=32),
    Message('note_on', channel=9, note=38, velocity=100, time=0),
    Message('note_on', channel=9, note=36, velocity=100, time=0),
    Message('note_on', channel=9, note=47, velocity=100, time=0),
    Message('note_on', channel=9, note=36, velocity=100, time=0),
    Message('note_on', channel=9, note=38, velocity=100, time=0),
    Message('note_off', channel=9, note=38, velocity=64, time=16),
    Message('note_off', channel=9, note=47, velocity=64, time=16),
    Message('note_on', channel=9, note=47, velocity=100, time=12),
    Message('note_on', channel=9, note=38, velocity=100, time=4),
    Message('note_off', channel=9, note=36, velocity=64, time=16),
    Message('note_off', channel=9, note=38, velocity=64, time=0),
    Message('note_off', channel=9, note=36, velocity=64, time=0),
    Message('note_off', channel=9, note=47, velocity=64, time=0),
    Message('note_off', channel=9, note=36, velocity=64, time=0),
    Message('note_off', channel=9, note=38, velocity=64, time=0),
    Message('note_on', channel=9, note=42, velocity=100, time=32),
    Message('note_on', channel=9, note=55, velocity=100, time=0),
    Message('note_on', channel=9, note=51, velocity=100, time=0),
    Message('note_on', channel=9, note=38, velocity=100, time=0),
    Message('note_on', channel=9, note=38, velocity=100, time=0),
    Message('note_on', channel=9, note=36, velocity=100, time=0),
    Message('note_on', channel=9, note=57, velocity=100, time=0),
    Message('note_on', channel=9, note=45, velocity=100, time=0),
    Message('note_on', channel=9, note=38, velocity=100, time=0),
    Message('note_on', channel=9, note=57, velocity=100, time=0),
    Message('note_off', channel=9, note=47, velocity=64, time=12),
    Message('note_off', channel=9, note=38, velocity=64, time=4),
    Message('note_on', channel=9, note=45, velocity=100, time=28),
    Message('note_off', channel=9, note=42, velocity=64, time=20),
    Message('note_off', channel=9, note=55, velocity=64, time=0),
    Message('note_off', channel=9, note=51, velocity=64, time=0),
    Message('note_off', channel=9, note=38, velocity=64, time=0),
    Message('note_off', channel=9, note=38, velocity=64, time=0),
    Message('note_off', channel=9, note=36, velocity=64, time=0),
    Message('note_off', channel=9, note=57, velocity=64, time=0),
    Message('note_off', channel=9, note=45, velocity=64, time=0),
    Message('note_off', channel=9, note=38, velocity=64, time=0),
    Message('note_off', channel=9, note=57, velocity=64, time=0),
    Message('note_on', channel=9, note=36, velocity=100, time=32),
    Message('note_on', channel=9, note=45, velocity=100, time=0),
    Message('note_on', channel=9, note=36, velocity=100, time=0),
    Message('note_on', channel=9, note=38, velocity=100, time=0),
    Message('note_off', channel=9, note=45, velocity=64, time=12),
    Message('note_on', channel=9, note=45, velocity=100, time=28),
    Message('note_off', channel=9, note=36, velocity=64, time=24),
    Message('note_off', channel=9, note=45, velocity=64, time=0),
    Message('note_off', channel=9, note=36, velocity=64, time=0),
    Message('note_off', channel=9, note=38, velocity=64, time=0),
    Message('note_on', channel=9, note=57, velocity=100, time=32),
    Message('note_on', channel=9, note=55, velocity=100, time=0),
    Message('note_on', channel=9, note=54, velocity=100, time=0),
    Message('note_on', channel=9, note=38, velocity=100, time=0),
    Message('note_on', channel=9, note=36, velocity=100, time=0),
    Message('note_off', channel=9, note=45, velocity=64, time=4),
    Message('note_off', channel=9, note=57, velocity=64, time=60),
    Message('note_off', channel=9, note=55, velocity=64, time=0),
    Message('note_off', channel=9, note=54, velocity=64, time=0),
    Message('note_off', channel=9, note=38, velocity=64, time=0),
    Message('note_off', channel=9, note=36, velocity=64, time=0),
    Message('note_on', channel=9, note=36, velocity=100, time=32),
    Message('note_off', channel=9, note=36, velocity=64, time=64),
    Message('note_on', channel=9, note=54, velocity=100, time=32),
    Message('note_off', channel=9, note=54, velocity=64, time=64),
    Message('note_on', channel=9, note=38, velocity=100, time=32),
    Message('note_off', channel=9, note=38, velocity=64, time=64),
    Message('note_on', channel=9, note=54, velocity=100, time=32),
    Message('note_on', channel=9, note=36, velocity=100, time=0),
    Message('note_off', channel=9, note=54, velocity=64, time=64),
    Message('note_off', channel=9, note=36, velocity=64, time=0),
    Message('note_on', channel=9, note=54, velocity=100, time=128),
    Message('note_on', channel=9, note=38, velocity=100, time=0),
    Message('note_off', channel=9, note=54, velocity=64, time=64),
    Message('note_off', channel=9, note=38, velocity=64, time=0),
    Message('note_on', channel=9, note=38, velocity=100, time=32),
    Message('note_off', channel=9, note=38, velocity=64, time=64),
    Message('note_on', channel=9, note=54, velocity=100, time=32),
    Message('note_on', channel=9, note=38, velocity=100, time=0),
    Message('note_off', channel=9, note=54, velocity=64, time=64),
    Message('note_off', channel=9, note=38, velocity=64, time=0),
    Message('note_on', channel=9, note=36, velocity=100, time=32),
    Message('note_off', channel=9, note=36, velocity=64, time=64),
    Message('note_on', channel=9, note=36, velocity=100, time=128),
    Message('note_off', channel=9, note=36, velocity=64, time=64),
    Message('note_on', channel=9, note=36, velocity=100, time=32),
    Message('note_on', channel=9, note=57, velocity=100, time=0),
    Message('note_on', channel=9, note=38, velocity=100, time=0),
    Message('note_off', channel=9, note=36, velocity=64, time=64),
    Message('note_off', channel=9, note=57, velocity=64, time=0),
    Message('note_off', channel=9, note=38, velocity=64, time=0),
    Message('note_on', channel=9, note=38, velocity=100, time=32),
    Message('note_on', channel=9, note=57, velocity=100, time=0),
    Message('note_off', channel=9, note=38, velocity=64, time=64),
    Message('note_off', channel=9, note=57, velocity=64, time=0),
    Message('note_on', channel=9, note=36, velocity=100, time=32),
    Message('note_on', channel=9, note=57, velocity=100, time=0),
    Message('note_off', channel=9, note=36, velocity=64, time=64),
    Message('note_off', channel=9, note=57, velocity=64, time=0),
    Message('note_on', channel=9, note=38, velocity=100, time=32),
    Message('note_on', channel=9, note=57, velocity=100, time=0),
    Message('note_on', channel=9, note=47, velocity=100, time=0),
    Message('note_on', channel=9, note=36, velocity=100, time=0),
    Message('note_on', channel=9, note=38, velocity=100, time=0),
    Message('note_on', channel=9, note=57, velocity=100, time=0),
    Message('note_off', channel=9, note=38, velocity=64, time=32),
    Message('note_off', channel=9, note=57, velocity=64, time=0),
    Message('note_off', channel=9, note=47, velocity=64, time=0),
    Message('note_off', channel=9, note=36, velocity=64, time=0),
    Message('note_off', channel=9, note=38, velocity=64, time=0),
    Message('note_off', channel=9, note=57, velocity=64, time=0),
    Message('note_on', channel=9, note=47, velocity=100, time=0),
    Message('note_on', channel=9, note=36, velocity=100, time=16),
    Message('note_on', channel=9, note=47, velocity=100, time=0),
    Message('note_on', channel=9, note=36, velocity=100, time=0),
    Message('note_on', channel=9, note=38, velocity=100, time=0),
    Message('note_off', channel=9, note=47, velocity=64, time=16),
    Message('note_on', channel=9, note=47, velocity=100, time=6),
    Message('note_off', channel=9, note=36, velocity=64, time=10),
    Message('note_off', channel=9, note=47, velocity=64, time=0),
    Message('note_off', channel=9, note=36, velocity=64, time=0),
    Message('note_off', channel=9, note=38, velocity=64, time=0),
    Message('note_on', channel=9, note=38, velocity=100, time=16),
    Message('note_on', channel=9, note=57, velocity=100, time=0),
    Message('note_on', channel=9, note=38, velocity=100, time=0),
    Message('note_on', channel=9, note=36, velocity=100, time=0),
    Message('note_on', channel=9, note=57, velocity=100, time=0),
    Message('note_on', channel=9, note=45, velocity=100, time=0),
    Message('note_on', channel=9, note=38, velocity=100, time=0),
    Message('note_on', channel=9, note=57, velocity=100, time=0),
    Message('note_off', channel=9, note=47, velocity=64, time=6),
    Message('note_on', channel=9, note=45, velocity=100, time=16),
    Message('note_off', channel=9, note=38, velocity=64, time=10),
    Message('note_off', channel=9, note=57, velocity=64, time=0),
    Message('note_off', channel=9, note=38, velocity=64, time=0),
    Message('note_off', channel=9, note=36, velocity=64, time=0),
    Message('note_off', channel=9, note=57, velocity=64, time=0),
    Message('note_off', channel=9, note=45, velocity=64, time=0),
    Message('note_on', channel=9, note=45, velocity=100, time=16),
    Message('note_on', channel=9, note=36, velocity=100, time=0),
    Message('note_on', channel=9, note=38, velocity=100, time=0),
    Message('note_off', channel=9, note=45, velocity=64, time=6),
    Message('note_off', channel=9, note=38, velocity=64, time=10),
    Message('note_off', channel=9, note=57, velocity=64, time=0),
    Message('note_on', channel=9, note=45, velocity=100, time=4),
    Message('note_off', channel=9, note=45, velocity=64, time=12),
    Message('note_off', channel=9, note=36, velocity=64, time=0),
    Message('note_off', channel=9, note=38, velocity=64, time=0),
    Message('note_off', channel=9, note=45, velocity=64, time=20),
    Message('note_on', channel=9, note=57, velocity=100, time=92),
    Message('note_on', channel=9, note=55, velocity=100, time=0),
    Message('note_on', channel=9, note=54, velocity=100, time=0),
    Message('note_on', channel=9, note=38, velocity=100, time=0),
    Message('note_on', channel=9, note=36, velocity=100, time=0),
    Message('note_off', channel=9, note=57, velocity=64, time=64),
    Message('note_off', channel=9, note=55, velocity=64, time=0),
    Message('note_off', channel=9, note=54, velocity=64, time=0),
    Message('note_off', channel=9, note=38, velocity=64, time=0),
    Message('note_off', channel=9, note=36, velocity=64, time=0),
    Message('note_on', channel=9, note=36, velocity=100, time=32),
    Message('note_off', channel=9, note=36, velocity=64, time=64),
    Message('note_on', channel=9, note=54, velocity=100, time=32),
    Message('note_off', channel=9, note=54, velocity=64, time=64),
    Message('note_on', channel=9, note=38, velocity=100, time=32),
    Message('note_off', channel=9, note=38, velocity=64, time=64),
    Message('note_on', channel=9, note=54, velocity=100, time=32),
    Message('note_on', channel=9, note=36, velocity=100, time=0),
    Message('note_off', channel=9, note=54, velocity=64, time=64),
    Message('note_off', channel=9, note=36, velocity=64, time=0),
    Message('note_on', channel=9, note=54, velocity=100, time=128),
    Message('note_on', channel=9, note=38, velocity=100, time=0),
    Message('note_off', channel=9, note=54, velocity=64, time=64),
    Message('note_off', channel=9, note=38, velocity=64, time=0),
    Message('note_on', channel=9, note=38, velocity=100, time=32),
    Message('note_off', channel=9, note=38, velocity=64, time=64),
    Message('note_on', channel=9, note=54, velocity=100, time=32),
    Message('note_on', channel=9, note=38, velocity=100, time=0),
    Message('note_off', channel=9, note=54, velocity=64, time=64),
    Message('note_off', channel=9, note=38, velocity=64, time=0),
    Message('note_on', channel=9, note=36, velocity=100, time=32),
    Message('note_off', channel=9, note=36, velocity=64, time=64),
    Message('note_on', channel=9, note=36, velocity=100, time=32),
    Message('note_off', channel=9, note=36, velocity=64, time=64),
    Message('note_on', channel=9, note=36, velocity=100, time=32),
    Message('note_off', channel=9, note=36, velocity=64, time=64),
    Message('note_on', channel=9, note=36, velocity=100, time=32),
    Message('note_on', channel=9, note=57, velocity=100, time=0),
    Message('note_on', channel=9, note=38, velocity=100, time=0),
    Message('note_off', channel=9, note=36, velocity=64, time=64),
    Message('note_off', channel=9, note=57, velocity=64, time=0),
    Message('note_off', channel=9, note=38, velocity=64, time=0),
    Message('note_on', channel=9, note=38, velocity=100, time=32),
    Message('note_on', channel=9, note=57, velocity=100, time=0),
    Message('note_off', channel=9, note=38, velocity=64, time=64),
    Message('note_off', channel=9, note=57, velocity=64, time=0),
    Message('note_on', channel=9, note=36, velocity=100, time=32),
    Message('note_on', channel=9, note=57, velocity=100, time=0),
    Message('note_on', channel=9, note=38, velocity=100, time=0),
    Message('note_off', channel=9, note=36, velocity=64, time=64),
    Message('note_off', channel=9, note=57, velocity=64, time=0),
    Message('note_off', channel=9, note=38, velocity=64, time=0),
    Message('note_on', channel=9, note=36, velocity=100, time=32),
    Message('note_on', channel=9, note=38, velocity=100, time=0),
    Message('note_on', channel=9, note=57, velocity=100, time=0),
    Message('note_on', channel=9, note=47, velocity=100, time=0),
    Message('note_on', channel=9, note=36, velocity=100, time=0),
    Message('note_on', channel=9, note=38, velocity=100, time=0),
    Message('note_on', channel=9, note=57, velocity=100, time=0),
    Message('note_off', channel=9, note=36, velocity=64, time=32),
    Message('note_off', channel=9, note=38, velocity=64, time=0),
    Message('note_off', channel=9, note=57, velocity=64, time=0),
    Message('note_off', channel=9, note=47, velocity=64, time=0),
    Message('note_off', channel=9, note=38, velocity=64, time=0),
    Message('note_off', channel=9, note=57, velocity=64, time=0),
    Message('note_on', channel=9, note=47, velocity=100, time=0),
    Message('note_on', channel=9, note=36, velocity=100, time=16),
    Message('note_on', channel=9, note=47, velocity=100, time=0),
    Message('note_on', channel=9, note=36, velocity=100, time=0),
    Message('note_on', channel=9, note=38, velocity=100, time=0),
    Message('note_off', channel=9, note=36, velocity=64, time=16),
    Message('note_off', channel=9, note=47, velocity=64, time=0),
    Message('note_on', channel=9, note=47, velocity=100, time=6),
    Message('note_off', channel=9, note=36, velocity=64, time=10),
    Message('note_off', channel=9, note=47, velocity=64, time=0),
    Message('note_off', channel=9, note=36, velocity=64, time=0),
    Message('note_off', channel=9, note=38, velocity=64, time=0),
    Message('note_on', channel=9, note=38, velocity=100, time=16),
    Message('note_on', channel=9, note=57, velocity=100, time=0),
    Message('note_on', channel=9, note=38, velocity=100, time=0),
    Message('note_on', channel=9, note=36, velocity=100, time=0),
    Message('note_on', channel=9, note=57, velocity=100, time=0),
    Message('note_on', channel=9, note=45, velocity=100, time=0),
    Message('note_on', channel=9, note=38, velocity=100, time=0),
    Message('note_on', channel=9, note=57, velocity=100, time=0),
    Message('note_off', channel=9, note=47, velocity=64, time=6),
    Message('note_on', channel=9, note=45, velocity=100, time=16),
    Message('note_off', channel=9, note=38, velocity=64, time=10),
    Message('note_off', channel=9, note=57, velocity=64, time=0),
    Message('note_off', channel=9, note=38, velocity=64, time=0),
    Message('note_off', channel=9, note=36, velocity=64, time=0),
    Message('note_off', channel=9, note=57, velocity=64, time=0),
    Message('note_off', channel=9, note=45, velocity=64, time=0),
    Message('note_on', channel=9, note=45, velocity=100, time=16),
    Message('note_on', channel=9, note=36, velocity=100, time=0),
    Message('note_on', channel=9, note=38, velocity=100, time=0),
    Message('note_off', channel=9, note=45, velocity=64, time=6),
    Message('note_off', channel=9, note=38, velocity=64, time=10),
    Message('note_off', channel=9, note=57, velocity=64, time=0),
    Message('note_on', channel=9, note=45, velocity=100, time=4),
    Message('note_off', channel=9, note=45, velocity=64, time=12),
    Message('note_off', channel=9, note=36, velocity=64, time=0),
    Message('note_off', channel=9, note=38, velocity=64, time=0),
    Message('note_off', channel=9, note=45, velocity=64, time=20),
    Message('note_on', channel=9, note=57, velocity=100, time=92),
    Message('note_on', channel=9, note=55, velocity=100, time=0),
    Message('note_on', channel=9, note=54, velocity=100, time=0),
    Message('note_on', channel=9, note=38, velocity=100, time=0),
    Message('note_on', channel=9, note=36, velocity=100, time=0),
    Message('note_off', channel=9, note=57, velocity=64, time=64),
    Message('note_off', channel=9, note=55, velocity=64, time=0),
    Message('note_off', channel=9, note=54, velocity=64, time=0),
    Message('note_off', channel=9, note=38, velocity=64, time=0),
    Message('note_off', channel=9, note=36, velocity=64, time=0),
    Message('note_on', channel=9, note=36, velocity=100, time=32),
    Message('note_off', channel=9, note=36, velocity=64, time=64),
    Message('note_on', channel=9, note=54, velocity=100, time=32),
    Message('note_off', channel=9, note=54, velocity=64, time=64),
    Message('note_on', channel=9, note=38, velocity=100, time=32),
    Message('note_off', channel=9, note=38, velocity=64, time=64),
    Message('note_on', channel=9, note=54, velocity=100, time=32),
    Message('note_on', channel=9, note=36, velocity=100, time=0),
    Message('note_off', channel=9, note=54, velocity=64, time=64),
    Message('note_off', channel=9, note=36, velocity=64, time=0),
    Message('note_on', channel=9, note=54, velocity=100, time=128),
    Message('note_on', channel=9, note=38, velocity=100, time=0),
    Message('note_off', channel=9, note=54, velocity=64, time=64),
    Message('note_off', channel=9, note=38, velocity=64, time=0),
    Message('note_on', channel=9, note=38, velocity=100, time=32),
    Message('note_off', channel=9, note=38, velocity=64, time=64),
    Message('note_on', channel=9, note=54, velocity=100, time=32),
    Message('note_on', channel=9, note=38, velocity=100, time=0),
    Message('note_off', channel=9, note=54, velocity=64, time=64),
    Message('note_off', channel=9, note=38, velocity=64, time=0),
    Message('note_on', channel=9, note=36, velocity=100, time=32),
    Message('note_off', channel=9, note=36, velocity=64, time=64),
    Message('note_on', channel=9, note=36, velocity=100, time=32),
    Message('note_off', channel=9, note=36, velocity=64, time=64),
    Message('note_on', channel=9, note=36, velocity=100, time=32),
    Message('note_off', channel=9, note=36, velocity=64, time=64),
    Message('note_on', channel=9, note=36, velocity=100, time=32),
    Message('note_on', channel=9, note=57, velocity=100, time=0),
    Message('note_on', channel=9, note=38, velocity=100, time=0),
    Message('note_off', channel=9, note=36, velocity=64, time=64),
    Message('note_off', channel=9, note=57, velocity=64, time=0),
    Message('note_off', channel=9, note=38, velocity=64, time=0),
    Message('note_on', channel=9, note=38, velocity=100, time=32),
    Message('note_on', channel=9, note=57, velocity=100, time=0),
    Message('note_off', channel=9, note=38, velocity=64, time=64),
    Message('note_off', channel=9, note=57, velocity=64, time=0),
    Message('note_on', channel=9, note=36, velocity=100, time=32),
    Message('note_on', channel=9, note=57, velocity=100, time=0),
    Message('note_on', channel=9, note=38, velocity=100, time=0),
    Message('note_off', channel=9, note=36, velocity=64, time=64),
    Message('note_off', channel=9, note=57, velocity=64, time=0),
    Message('note_off', channel=9, note=38, velocity=64, time=0),
    Message('note_on', channel=9, note=36, velocity=100, time=32),
    Message('note_on', channel=9, note=38, velocity=100, time=0),
    Message('note_on', channel=9, note=57, velocity=100, time=0),
    Message('note_on', channel=9, note=47, velocity=100, time=0),
    Message('note_on', channel=9, note=36, velocity=100, time=0),
    Message('note_on', channel=9, note=38, velocity=100, time=0),
    Message('note_on', channel=9, note=57, velocity=100, time=0),
    Message('note_off', channel=9, note=36, velocity=64, time=32),
    Message('note_off', channel=9, note=38, velocity=64, time=0),
    Message('note_off', channel=9, note=57, velocity=64, time=0),
    Message('note_off', channel=9, note=47, velocity=64, time=0),
    Message('note_off', channel=9, note=38, velocity=64, time=0),
    Message('note_off', channel=9, note=57, velocity=64, time=0),
    Message('note_on', channel=9, note=47, velocity=100, time=0),
    Message('note_on', channel=9, note=36, velocity=100, time=16),
    Message('note_on', channel=9, note=47, velocity=100, time=0),
    Message('note_on', channel=9, note=36, velocity=100, time=0),
    Message('note_on', channel=9, note=38, velocity=100, time=0),
    Message('note_off', channel=9, note=36, velocity=64, time=16),
    Message('note_off', channel=9, note=47, velocity=64, time=0),
    Message('note_on', channel=9, note=47, velocity=100, time=6),
    Message('note_off', channel=9, note=36, velocity=64, time=10),
    Message('note_off', channel=9, note=47, velocity=64, time=0),
    Message('note_off', channel=9, note=36, velocity=64, time=0),
    Message('note_off', channel=9, note=38, velocity=64, time=0),
    Message('note_on', channel=9, note=38, velocity=100, time=16),
    Message('note_on', channel=9, note=57, velocity=100, time=0),
    Message('note_on', channel=9, note=38, velocity=100, time=0),
    Message('note_on', channel=9, note=36, velocity=100, time=0),
    Message('note_on', channel=9, note=57, velocity=100, time=0),
    Message('note_on', channel=9, note=45, velocity=100, time=0),
    Message('note_on', channel=9, note=38, velocity=100, time=0),
    Message('note_on', channel=9, note=57, velocity=100, time=0),
    Message('note_off', channel=9, note=47, velocity=64, time=6),
    Message('note_on', channel=9, note=45, velocity=100, time=16),
    Message('note_off', channel=9, note=38, velocity=64, time=10),
    Message('note_off', channel=9, note=57, velocity=64, time=0),
    Message('note_off', channel=9, note=38, velocity=64, time=0),
    Message('note_off', channel=9, note=36, velocity=64, time=0),
    Message('note_off', channel=9, note=57, velocity=64, time=0),
    Message('note_off', channel=9, note=45, velocity=64, time=0),
    Message('note_on', channel=9, note=45, velocity=100, time=16),
    Message('note_on', channel=9, note=36, velocity=100, time=0),
    Message('note_on', channel=9, note=38, velocity=100, time=0),
    Message('note_off', channel=9, note=45, velocity=64, time=6),
    Message('note_off', channel=9, note=38, velocity=64, time=10),
    Message('note_off', channel=9, note=57, velocity=64, time=0),
    Message('note_on', channel=9, note=45, velocity=100, time=4),
    Message('note_off', channel=9, note=45, velocity=64, time=12),
    Message('note_off', channel=9, note=36, velocity=64, time=0),
    Message('note_off', channel=9, note=38, velocity=64, time=0),
    Message('note_off', channel=9, note=45, velocity=64, time=20),
    Message('note_on', channel=9, note=57, velocity=100, time=92),
    Message('note_on', channel=9, note=55, velocity=100, time=0),
    Message('note_on', channel=9, note=54, velocity=100, time=0),
    Message('note_on', channel=9, note=38, velocity=100, time=0),
    Message('note_on', channel=9, note=36, velocity=100, time=0),
    Message('note_off', channel=9, note=57, velocity=64, time=64),
    Message('note_off', channel=9, note=55, velocity=64, time=0),
    Message('note_off', channel=9, note=54, velocity=64, time=0),
    Message('note_off', channel=9, note=38, velocity=64, time=0),
    Message('note_off', channel=9, note=36, velocity=64, time=0),
    Message('note_on', channel=9, note=36, velocity=100, time=32),
    Message('note_off', channel=9, note=36, velocity=64, time=64),
    Message('note_on', channel=9, note=54, velocity=100, time=32),
    Message('note_off', channel=9, note=54, velocity=64, time=64),
    Message('note_on', channel=9, note=38, velocity=100, time=32),
    Message('note_off', channel=9, note=38, velocity=64, time=64),
    Message('note_on', channel=9, note=54, velocity=100, time=32),
    Message('note_on', channel=9, note=36, velocity=100, time=0),
    Message('note_off', channel=9, note=54, velocity=64, time=64),
    Message('note_off', channel=9, note=36, velocity=64, time=0),
    Message('note_on', channel=9, note=54, velocity=100, time=128),
    Message('note_on', channel=9, note=38, velocity=100, time=0),
    Message('note_off', channel=9, note=54, velocity=64, time=64),
    Message('note_off', channel=9, note=38, velocity=64, time=0),
    Message('note_on', channel=9, note=38, velocity=100, time=32),
    Message('note_off', channel=9, note=38, velocity=64, time=64),
    Message('note_on', channel=9, note=54, velocity=100, time=32),
    Message('note_on', channel=9, note=38, velocity=100, time=0),
    Message('note_off', channel=9, note=54, velocity=64, time=64),
    Message('note_off', channel=9, note=38, velocity=64, time=0),
    Message('note_on', channel=9, note=36, velocity=100, time=32),
    Message('note_off', channel=9, note=36, velocity=64, time=64),
    Message('note_on', channel=9, note=36, velocity=100, time=32),
    Message('note_off', channel=9, note=36, velocity=64, time=64),
    Message('note_on', channel=9, note=36, velocity=100, time=32),
    Message('note_off', channel=9, note=36, velocity=64, time=64),
    Message('note_on', channel=9, note=36, velocity=100, time=32),
    Message('note_on', channel=9, note=57, velocity=100, time=0),
    Message('note_on', channel=9, note=38, velocity=100, time=0),
    Message('note_off', channel=9, note=36, velocity=64, time=64),
    Message('note_off', channel=9, note=57, velocity=64, time=0),
    Message('note_off', channel=9, note=38, velocity=64, time=0),
    Message('note_on', channel=9, note=38, velocity=100, time=32),
    Message('note_on', channel=9, note=57, velocity=100, time=0),
    Message('note_off', channel=9, note=38, velocity=64, time=64),
    Message('note_off', channel=9, note=57, velocity=64, time=0),
    Message('note_on', channel=9, note=36, velocity=100, time=32),
    Message('note_on', channel=9, note=57, velocity=100, time=0),
    Message('note_on', channel=9, note=38, velocity=100, time=0),
    Message('note_off', channel=9, note=36, velocity=64, time=64),
    Message('note_off', channel=9, note=57, velocity=64, time=0),
    Message('note_off', channel=9, note=38, velocity=64, time=0),
    Message('note_on', channel=9, note=36, velocity=100, time=32),
    Message('note_on', channel=9, note=38, velocity=100, time=0),
    Message('note_on', channel=9, note=57, velocity=100, time=0),
    Message('note_on', channel=9, note=47, velocity=100, time=0),
    Message('note_on', channel=9, note=36, velocity=100, time=0),
    Message('note_on', channel=9, note=38, velocity=100, time=0),
    Message('note_on', channel=9, note=57, velocity=100, time=0),
    Message('note_off', channel=9, note=36, velocity=64, time=32),
    Message('note_off', channel=9, note=38, velocity=64, time=0),
    Message('note_off', channel=9, note=57, velocity=64, time=0),
    Message('note_off', channel=9, note=47, velocity=64, time=0),
    Message('note_off', channel=9, note=38, velocity=64, time=0),
    Message('note_off', channel=9, note=57, velocity=64, time=0),
    Message('note_on', channel=9, note=47, velocity=100, time=0),
    Message('note_on', channel=9, note=36, velocity=100, time=16),
    Message('note_on', channel=9, note=47, velocity=100, time=0),
    Message('note_on', channel=9, note=36, velocity=100, time=0),
    Message('note_on', channel=9, note=38, velocity=100, time=0),
    Message('note_off', channel=9, note=36, velocity=64, time=16),
    Message('note_off', channel=9, note=47, velocity=64, time=0),
    Message('note_on', channel=9, note=47, velocity=100, time=6),
    Message('note_off', channel=9, note=36, velocity=64, time=10),
    Message('note_off', channel=9, note=47, velocity=64, time=0),
    Message('note_off', channel=9, note=36, velocity=64, time=0),
    Message('note_off', channel=9, note=38, velocity=64, time=0),
    Message('note_on', channel=9, note=38, velocity=100, time=16),
    Message('note_on', channel=9, note=57, velocity=100, time=0),
    Message('note_on', channel=9, note=38, velocity=100, time=0),
    Message('note_on', channel=9, note=36, velocity=100, time=0),
    Message('note_on', channel=9, note=57, velocity=100, time=0),
    Message('note_on', channel=9, note=45, velocity=100, time=0),
    Message('note_on', channel=9, note=38, velocity=100, time=0),
    Message('note_on', channel=9, note=57, velocity=100, time=0),
    Message('note_off', channel=9, note=47, velocity=64, time=6),
    Message('note_on', channel=9, note=45, velocity=100, time=16),
    Message('note_off', channel=9, note=38, velocity=64, time=10),
    Message('note_off', channel=9, note=57, velocity=64, time=0),
    Message('note_off', channel=9, note=38, velocity=64, time=0),
    Message('note_off', channel=9, note=36, velocity=64, time=0),
    Message('note_off', channel=9, note=57, velocity=64, time=0),
    Message('note_off', channel=9, note=45, velocity=64, time=0),
    Message('note_on', channel=9, note=45, velocity=100, time=16),
    Message('note_on', channel=9, note=36, velocity=100, time=0),
    Message('note_on', channel=9, note=38, velocity=100, time=0),
    Message('note_off', channel=9, note=45, velocity=64, time=6),
    Message('note_off', channel=9, note=38, velocity=64, time=10),
    Message('note_off', channel=9, note=57, velocity=64, time=0),
    Message('note_on', channel=9, note=45, velocity=100, time=4),
    Message('note_off', channel=9, note=45, velocity=64, time=12),
    Message('note_off', channel=9, note=36, velocity=64, time=0),
    Message('note_off', channel=9, note=38, velocity=64, time=0),
    Message('note_off', channel=9, note=45, velocity=64, time=20),
    Message('note_on', channel=9, note=57, velocity=100, time=92),
    Message('note_on', channel=9, note=55, velocity=100, time=0),
    Message('note_on', channel=9, note=54, velocity=100, time=0),
    Message('note_on', channel=9, note=38, velocity=100, time=0),
    Message('note_on', channel=9, note=36, velocity=100, time=0),
    Message('note_off', channel=9, note=57, velocity=64, time=64),
    Message('note_off', channel=9, note=55, velocity=64, time=0),
    Message('note_off', channel=9, note=54, velocity=64, time=0),
    Message('note_off', channel=9, note=38, velocity=64, time=0),
    Message('note_off', channel=9, note=36, velocity=64, time=0),
    Message('note_on', channel=9, note=36, velocity=100, time=32),
    Message('note_off', channel=9, note=36, velocity=64, time=64),
    Message('note_on', channel=9, note=54, velocity=100, time=32),
    Message('note_off', channel=9, note=54, velocity=64, time=64),
    Message('note_on', channel=9, note=38, velocity=100, time=32),
    Message('note_off', channel=9, note=38, velocity=64, time=64),
    Message('note_on', channel=9, note=54, velocity=100, time=32),
    Message('note_on', channel=9, note=36, velocity=100, time=0),
    Message('note_off', channel=9, note=54, velocity=64, time=64),
    Message('note_off', channel=9, note=36, velocity=64, time=0),
    Message('note_on', channel=9, note=54, velocity=100, time=128),
    Message('note_on', channel=9, note=38, velocity=100, time=0),
    Message('note_off', channel=9, note=54, velocity=64, time=64),
    Message('note_off', channel=9, note=38, velocity=64, time=0),
    Message('note_on', channel=9, note=38, velocity=100, time=32),
    Message('note_off', channel=9, note=38, velocity=64, time=64),
    Message('note_on', channel=9, note=54, velocity=100, time=32),
    Message('note_on', channel=9, note=38, velocity=100, time=0),
    Message('note_off', channel=9, note=54, velocity=64, time=64),
    Message('note_off', channel=9, note=38, velocity=64, time=0),
    Message('note_on', channel=9, note=36, velocity=100, time=32),
    Message('note_off', channel=9, note=36, velocity=64, time=64),
    Message('note_on', channel=9, note=36, velocity=100, time=32),
    Message('note_off', channel=9, note=36, velocity=64, time=64),
    Message('note_on', channel=9, note=36, velocity=100, time=32),
    Message('note_off', channel=9, note=36, velocity=64, time=64),
    Message('note_on', channel=9, note=36, velocity=100, time=32),
    Message('note_on', channel=9, note=57, velocity=100, time=0),
    Message('note_on', channel=9, note=38, velocity=100, time=0),
    Message('note_off', channel=9, note=36, velocity=64, time=64),
    Message('note_off', channel=9, note=57, velocity=64, time=0),
    Message('note_off', channel=9, note=38, velocity=64, time=0),
    Message('note_on', channel=9, note=38, velocity=100, time=32),
    Message('note_on', channel=9, note=57, velocity=100, time=0),
    Message('note_off', channel=9, note=38, velocity=64, time=64),
    Message('note_off', channel=9, note=57, velocity=64, time=0),
    Message('note_on', channel=9, note=36, velocity=100, time=32),
    Message('note_on', channel=9, note=57, velocity=100, time=0),
    Message('note_on', channel=9, note=38, velocity=100, time=0),
    Message('note_off', channel=9, note=36, velocity=64, time=64),
    Message('note_off', channel=9, note=57, velocity=64, time=0),
    Message('note_off', channel=9, note=38, velocity=64, time=0),
    Message('note_on', channel=9, note=36, velocity=100, time=32),
    Message('note_on', channel=9, note=38, velocity=100, time=0),
    Message('note_on', channel=9, note=57, velocity=100, time=0),
    Message('note_on', channel=9, note=47, velocity=100, time=0),
    Message('note_on', channel=9, note=36, velocity=100, time=0),
    Message('note_on', channel=9, note=38, velocity=100, time=0),
    Message('note_on', channel=9, note=57, velocity=100, time=0),
    Message('note_off', channel=9, note=36, velocity=64, time=32),
    Message('note_off', channel=9, note=38, velocity=64, time=0),
    Message('note_off', channel=9, note=57, velocity=64, time=0),
    Message('note_off', channel=9, note=47, velocity=64, time=0),
    Message('note_off', channel=9, note=38, velocity=64, time=0),
    Message('note_off', channel=9, note=57, velocity=64, time=0),
    Message('note_on', channel=9, note=47, velocity=100, time=0),
    Message('note_on', channel=9, note=36, velocity=100, time=16),
    Message('note_on', channel=9, note=47, velocity=100, time=0),
    Message('note_on', channel=9, note=36, velocity=100, time=0),
    Message('note_on', channel=9, note=38, velocity=100, time=0),
    Message('note_off', channel=9, note=36, velocity=64, time=16),
    Message('note_off', channel=9, note=47, velocity=64, time=0),
    Message('note_on', channel=9, note=47, velocity=100, time=6),
    Message('note_off', channel=9, note=36, velocity=64, time=10),
    Message('note_off', channel=9, note=47, velocity=64, time=0),
    Message('note_off', channel=9, note=36, velocity=64, time=0),
    Message('note_off', channel=9, note=38, velocity=64, time=0),
    Message('note_on', channel=9, note=38, velocity=100, time=16),
    Message('note_on', channel=9, note=57, velocity=100, time=0),
    Message('note_on', channel=9, note=38, velocity=100, time=0),
    Message('note_on', channel=9, note=36, velocity=100, time=0),
    Message('note_on', channel=9, note=57, velocity=100, time=0),
    Message('note_on', channel=9, note=45, velocity=100, time=0),
    Message('note_on', channel=9, note=38, velocity=100, time=0),
    Message('note_on', channel=9, note=57, velocity=100, time=0),
    Message('note_off', channel=9, note=47, velocity=64, time=6),
    Message('note_on', channel=9, note=45, velocity=100, time=16),
    Message('note_off', channel=9, note=38, velocity=64, time=10),
    Message('note_off', channel=9, note=57, velocity=64, time=0),
    Message('note_off', channel=9, note=38, velocity=64, time=0),
    Message('note_off', channel=9, note=36, velocity=64, time=0),
    Message('note_off', channel=9, note=57, velocity=64, time=0),
    Message('note_off', channel=9, note=45, velocity=64, time=0),
    Message('note_on', channel=9, note=45, velocity=100, time=16),
    Message('note_on', channel=9, note=36, velocity=100, time=0),
    Message('note_on', channel=9, note=38, velocity=100, time=0),
    Message('note_off', channel=9, note=45, velocity=64, time=6),
    Message('note_off', channel=9, note=38, velocity=64, time=10),
    Message('note_off', channel=9, note=57, velocity=64, time=0),
    Message('note_on', channel=9, note=45, velocity=100, time=4),
    Message('note_off', channel=9, note=45, velocity=64, time=12),
    Message('note_off', channel=9, note=36, velocity=64, time=0),
    Message('note_off', channel=9, note=38, velocity=64, time=0),
    Message('note_off', channel=9, note=45, velocity=64, time=20),
    Message('note_on', channel=9, note=57, velocity=100, time=92),
    Message('note_on', channel=9, note=55, velocity=100, time=0),
    Message('note_on', channel=9, note=54, velocity=100, time=0),
    Message('note_on', channel=9, note=38, velocity=100, time=0),
    Message('note_on', channel=9, note=36, velocity=100, time=0),
    Message('note_off', channel=9, note=57, velocity=64, time=64),
    Message('note_off', channel=9, note=55, velocity=64, time=0),
    Message('note_off', channel=9, note=54, velocity=64, time=0),
    Message('note_off', channel=9, note=38, velocity=64, time=0),
    Message('note_off', channel=9, note=36, velocity=64, time=0),
    Message('note_on', channel=9, note=36, velocity=100, time=32),
    Message('note_off', channel=9, note=36, velocity=64, time=64),
    Message('note_on', channel=9, note=54, velocity=100, time=32),
    Message('note_off', channel=9, note=54, velocity=64, time=64),
    Message('note_on', channel=9, note=38, velocity=100, time=32),
    Message('note_off', channel=9, note=38, velocity=64, time=64),
    Message('note_on', channel=9, note=54, velocity=100, time=32),
    Message('note_on', channel=9, note=36, velocity=100, time=0),
    Message('note_off', channel=9, note=54, velocity=64, time=64),
    Message('note_off', channel=9, note=36, velocity=64, time=0),
    Message('note_on', channel=9, note=54, velocity=100, time=128),
    Message('note_on', channel=9, note=38, velocity=100, time=0),
    Message('note_off', channel=9, note=54, velocity=64, time=64),
    Message('note_off', channel=9, note=38, velocity=64, time=0),
    Message('note_on', channel=9, note=38, velocity=100, time=32),
    Message('note_off', channel=9, note=38, velocity=64, time=64),
    Message('note_on', channel=9, note=54, velocity=100, time=32),
    Message('note_on', channel=9, note=38, velocity=100, time=0),
    Message('note_off', channel=9, note=54, velocity=64, time=64),
    Message('note_off', channel=9, note=38, velocity=64, time=0),
    Message('note_on', channel=9, note=36, velocity=100, time=32),
    Message('note_off', channel=9, note=36, velocity=64, time=64),
    Message('note_on', channel=9, note=36, velocity=100, time=32),
    Message('note_off', channel=9, note=36, velocity=64, time=64),
    Message('note_on', channel=9, note=36, velocity=100, time=32),
    Message('note_off', channel=9, note=36, velocity=64, time=64),
    Message('note_on', channel=9, note=36, velocity=100, time=32),
    Message('note_on', channel=9, note=57, velocity=100, time=0),
    Message('note_on', channel=9, note=38, velocity=100, time=0),
    Message('note_on', channel=9, note=38, velocity=100, time=0),
    Message('note_on', channel=9, note=57, velocity=100, time=0),
    Message('note_on', channel=9, note=47, velocity=100, time=0),
    Message('note_on', channel=9, note=36, velocity=100, time=0),
    Message('note_on', channel=9, note=38, velocity=100, time=0),
    Message('note_on', channel=9, note=57, velocity=100, time=0),
    Message('note_off', channel=9, note=36, velocity=64, time=32),
    Message('note_off', channel=9, note=57, velocity=64, time=0),
    Message('note_off', channel=9, note=38, velocity=64, time=0),
    Message('note_off', channel=9, note=38, velocity=64, time=0),
    Message('note_off', channel=9, note=57, velocity=64, time=0),
    Message('note_off', channel=9, note=47, velocity=64, time=0),
    Message('note_on', channel=9, note=47, velocity=100, time=0),
    Message('note_on', channel=9, note=36, velocity=100, time=16),
    Message('note_on', channel=9, note=47, velocity=100, time=0),
    Message('note_on', channel=9, note=36, velocity=100, time=0),
    Message('note_on', channel=9, note=38, velocity=100, time=0),
    Message('note_off', channel=9, note=36, velocity=64, time=16),
    Message('note_off', channel=9, note=38, velocity=64, time=0),
    Message('note_off', channel=9, note=57, velocity=64, time=0),
    Message('note_off', channel=9, note=47, velocity=64, time=0),
    Message('note_on', channel=9, note=47, velocity=100, time=6),
    Message('note_off', channel=9, note=36, velocity=64, time=10),
    Message('note_off', channel=9, note=47, velocity=64, time=0),
    Message('note_off', channel=9, note=36, velocity=64, time=0),
    Message('note_off', channel=9, note=38, velocity=64, time=0),
    Message('note_on', channel=9, note=38, velocity=100, time=16),
    Message('note_on', channel=9, note=57, velocity=100, time=0),
    Message('note_on', channel=9, note=38, velocity=100, time=0),
    Message('note_on', channel=9, note=36, velocity=100, time=0),
    Message('note_on', channel=9, note=57, velocity=100, time=0),
    Message('note_on', channel=9, note=45, velocity=100, time=0),
    Message('note_on', channel=9, note=38, velocity=100, time=0),
    Message('note_on', channel=9, note=57, velocity=100, time=0),
    Message('note_off', channel=9, note=47, velocity=64, time=6),
    Message('note_on', channel=9, note=45, velocity=100, time=16),
    Message('note_off', channel=9, note=38, velocity=64, time=10),
    Message('note_off', channel=9, note=57, velocity=64, time=0),
    Message('note_off', channel=9, note=38, velocity=64, time=0),
    Message('note_off', channel=9, note=36, velocity=64, time=0),
    Message('note_off', channel=9, note=57, velocity=64, time=0),
    Message('note_off', channel=9, note=45, velocity=64, time=0),
    Message('note_on', channel=9, note=45, velocity=100, time=16),
    Message('note_on', channel=9, note=36, velocity=100, time=0),
    Message('note_on', channel=9, note=38, velocity=100, time=0),
    Message('note_off', channel=9, note=45, velocity=64, time=6),
    Message('note_off', channel=9, note=38, velocity=64, time=10),
    Message('note_off', channel=9, note=57, velocity=64, time=0),
    Message('note_on', channel=9, note=45, velocity=100, time=4),
    Message('note_off', channel=9, note=45, velocity=64, time=12),
    Message('note_off', channel=9, note=36, velocity=64, time=0),
    Message('note_off', channel=9, note=38, velocity=64, time=0),
    Message('note_on', channel=9, note=36, velocity=100, time=16),
    Message('note_on', channel=9, note=57, velocity=100, time=0),
    Message('note_on', channel=9, note=38, velocity=100, time=0),
    Message('note_on', channel=9, note=38, velocity=100, time=0),
    Message('note_on', channel=9, note=57, velocity=100, time=0),
    Message('note_on', channel=9, note=47, velocity=100, time=0),
    Message('note_on', channel=9, note=36, velocity=100, time=0),
    Message('note_on', channel=9, note=38, velocity=100, time=0),
    Message('note_on', channel=9, note=57, velocity=100, time=0),
    Message('note_off', channel=9, note=45, velocity=64, time=4),
    Message('note_off', channel=9, note=36, velocity=64, time=28),
    Message('note_off', channel=9, note=57, velocity=64, time=0),
    Message('note_off', channel=9, note=38, velocity=64, time=0),
    Message('note_off', channel=9, note=38, velocity=64, time=0),
    Message('note_off', channel=9, note=57, velocity=64, time=0),
    Message('note_off', channel=9, note=47, velocity=64, time=0),
    Message('note_on', channel=9, note=47, velocity=100, time=0),
    Message('note_on', channel=9, note=36, velocity=100, time=16),
    Message('note_on', channel=9, note=47, velocity=100, time=0),
    Message('note_on', channel=9, note=36, velocity=100, time=0),
    Message('note_on', channel=9, note=38, velocity=100, time=0),
    Message('note_off', channel=9, note=36, velocity=64, time=16),
    Message('note_off', channel=9, note=38, velocity=64, time=0),
    Message('note_off', channel=9, note=57, velocity=64, time=0),
    Message('note_off', channel=9, note=47, velocity=64, time=0),
    Message('note_on', channel=9, note=47, velocity=100, time=6),
    Message('note_off', channel=9, note=36, velocity=64, time=10),
    Message('note_off', channel=9, note=47, velocity=64, time=0),
    Message('note_off', channel=9, note=36, velocity=64, time=0),
    Message('note_off', channel=9, note=38, velocity=64, time=0),
    Message('note_on', channel=9, note=36, velocity=100, time=16),
    Message('note_on', channel=9, note=38, velocity=100, time=0),
    Message('note_on', channel=9, note=36, velocity=100, time=0),
    Message('note_on', channel=9, note=57, velocity=100, time=0),
    Message('note_on', channel=9, note=45, velocity=100, time=0),
    Message('note_on', channel=9, note=38, velocity=100, time=0),
    Message('note_on', channel=9, note=57, velocity=100, time=0),
    Message('note_off', channel=9, note=47, velocity=64, time=6),
    Message('note_on', channel=9, note=45, velocity=100, time=16),
    Message('note_off', channel=9, note=36, velocity=64, time=10),
    Message('note_off', channel=9, note=38, velocity=64, time=0),
    Message('note_off', channel=9, note=57, velocity=64, time=0),
    Message('note_off', channel=9, note=45, velocity=64, time=0),
    Message('note_off', channel=9, note=38, velocity=64, time=0),
    Message('note_off', channel=9, note=57, velocity=64, time=0),
    Message('note_on', channel=9, note=45, velocity=100, time=16),
    Message('note_on', channel=9, note=36, velocity=100, time=0),
    Message('note_on', channel=9, note=38, velocity=100, time=0),
    Message('note_off', channel=9, note=45, velocity=64, time=6),
    Message('note_off', channel=9, note=36, velocity=64, time=10),
    Message('note_on', channel=9, note=45, velocity=100, time=4),
    Message('note_off', channel=9, note=45, velocity=64, time=12),
    Message('note_off', channel=9, note=36, velocity=64, time=0),
    Message('note_off', channel=9, note=38, velocity=64, time=0),
    Message('note_on', channel=9, note=38, velocity=100, time=16),
    Message('note_on', channel=9, note=57, velocity=100, time=0),
    Message('note_off', channel=9, note=45, velocity=64, time=4),
    Message('note_off', channel=9, note=38, velocity=64, time=60),
    Message('note_off', channel=9, note=57, velocity=64, time=0),
    Message('note_on', channel=9, note=36, velocity=100, time=128),
    Message('note_on', channel=9, note=35, velocity=100, time=0),
    Message('note_on', channel=9, note=38, velocity=100, time=0),
    Message('note_on', channel=9, note=57, velocity=100, time=0),
    Message('note_off', channel=9, note=36, velocity=64, time=64),
    Message('note_off', channel=9, note=35, velocity=64, time=0),
    Message('note_off', channel=9, note=38, velocity=64, time=0),
    Message('note_off', channel=9, note=57, velocity=64, time=0),
    Message('note_on', channel=9, note=38, velocity=100, time=32),
    Message('note_on', channel=9, note=36, velocity=100, time=0),
    Message('note_on', channel=9, note=57, velocity=100, time=0),
    Message('note_off', channel=9, note=38, velocity=64, time=64),
    Message('note_off', channel=9, note=36, velocity=64, time=0),
    Message('note_off', channel=9, note=57, velocity=64, time=0),
    Message('note_on', channel=9, note=38, velocity=100, time=32),
    Message('note_on', channel=9, note=36, velocity=100, time=0),
    Message('note_on', channel=9, note=57, velocity=100, time=0),
    Message('note_off', channel=9, note=38, velocity=64, time=64),
    Message('note_off', channel=9, note=36, velocity=64, time=0),
    Message('note_off', channel=9, note=57, velocity=64, time=0),
    Message('note_on', channel=9, note=38, velocity=100, time=4352),
    Message('note_on', channel=9, note=57, velocity=100, time=0),
    Message('note_off', channel=9, note=38, velocity=64, time=64),
    Message('note_off', channel=9, note=57, velocity=64, time=0),
    Message('note_on', channel=9, note=38, velocity=100, time=32),
    Message('note_on', channel=9, note=57, velocity=100, time=0),
    Message('note_off', channel=9, note=38, velocity=64, time=64),
    Message('note_off', channel=9, note=57, velocity=64, time=0),
    Message('note_on', channel=9, note=36, velocity=100, time=32),
    Message('note_off', channel=9, note=36, velocity=64, time=64),
    Message('note_on', channel=9, note=38, velocity=100, time=32),
    Message('note_on', channel=9, note=57, velocity=100, time=0),
    Message('note_off', channel=9, note=38, velocity=64, time=64),
    Message('note_off', channel=9, note=57, velocity=64, time=0),
    Message('note_on', channel=9, note=38, velocity=100, time=32),
    Message('note_on', channel=9, note=57, velocity=100, time=0),
    Message('note_on', channel=9, note=47, velocity=100, time=0),
    Message('note_on', channel=9, note=36, velocity=100, time=0),
    Message('note_on', channel=9, note=38, velocity=100, time=0),
    Message('note_on', channel=9, note=57, velocity=100, time=0),
    Message('note_off', channel=9, note=38, velocity=64, time=64),
    Message('note_off', channel=9, note=57, velocity=64, time=0),
    Message('note_off', channel=9, note=47, velocity=64, time=0),
    Message('note_off', channel=9, note=36, velocity=64, time=0),
    Message('note_off', channel=9, note=38, velocity=64, time=0),
    Message('note_off', channel=9, note=57, velocity=64, time=0),
    Message('note_on', channel=9, note=47, velocity=100, time=0),
    Message('note_on', channel=9, note=36, velocity=100, time=32),
    Message('note_on', channel=9, note=47, velocity=100, time=0),
    Message('note_on', channel=9, note=36, velocity=100, time=0),
    Message('note_on', channel=9, note=38, velocity=100, time=0),
    Message('note_off', channel=9, note=47, velocity=64, time=32),
    Message('note_on', channel=9, note=47, velocity=100, time=12),
    Message('note_off', channel=9, note=36, velocity=64, time=20),
    Message('note_off', channel=9, note=47, velocity=64, time=0),
    Message('note_off', channel=9, note=36, velocity=64, time=0),
    Message('note_off', channel=9, note=38, velocity=64, time=0),
    Message('note_on', channel=9, note=38, velocity=100, time=32),
    Message('note_on', channel=9, note=36, velocity=100, time=0),
    Message('note_on', channel=9, note=57, velocity=100, time=0),
    Message('note_on', channel=9, note=45, velocity=100, time=0),
    Message('note_on', channel=9, note=38, velocity=100, time=0),
    Message('note_on', channel=9, note=57, velocity=100, time=0),
    Message('note_off', channel=9, note=47, velocity=64, time=12),
    Message('note_on', channel=9, note=45, velocity=100, time=32),
    Message('note_off', channel=9, note=38, velocity=64, time=20),
    Message('note_off', channel=9, note=36, velocity=64, time=0),
    Message('note_off', channel=9, note=57, velocity=64, time=0),
    Message('note_off', channel=9, note=45, velocity=64, time=0),
    Message('note_off', channel=9, note=38, velocity=64, time=0),
    Message('note_off', channel=9, note=57, velocity=64, time=0),
    Message('note_on', channel=9, note=45, velocity=100, time=32),
    Message('note_on', channel=9, note=36, velocity=100, time=0),
    Message('note_on', channel=9, note=38, velocity=100, time=0),
    Message('note_off', channel=9, note=45, velocity=64, time=12),
    Message('note_on', channel=9, note=45, velocity=100, time=28),
    Message('note_off', channel=9, note=45, velocity=64, time=24),
    Message('note_off', channel=9, note=36, velocity=64, time=0),
    Message('note_off', channel=9, note=38, velocity=64, time=0),
    Message('note_on', channel=9, note=57, velocity=100, time=32),
    Message('note_on', channel=9, note=49, velocity=100, time=0),
    Message('note_on', channel=9, note=36, velocity=100, time=0),
    Message('note_on', channel=9, note=51, velocity=100, time=0),
    Message('note_on', channel=9, note=46, velocity=100, time=0),
    Message('note_on', channel=9, note=55, velocity=100, time=0),
    Message('note_off', channel=9, note=45, velocity=64, time=8),
    Message('note_off', channel=9, note=57, velocity=64, time=56),
    Message('note_off', channel=9, note=49, velocity=64, time=0),
    Message('note_off', channel=9, note=36, velocity=64, time=0),
    Message('note_off', channel=9, note=51, velocity=64, time=0),
    Message('note_off', channel=9, note=55, velocity=64, time=0),
    Message('note_off', channel=9, note=46, velocity=64, time=64),
    Message('note_on', channel=9, note=51, velocity=100, time=64),
    Message('note_on', channel=9, note=42, velocity=100, time=0),
    Message('note_on', channel=9, note=55, velocity=100, time=0),
    Message('note_off', channel=9, note=51, velocity=64, time=64),
    Message('note_off', channel=9, note=42, velocity=64, time=0),
    Message('note_off', channel=9, note=55, velocity=64, time=0),
    Message('note_on', channel=9, note=36, velocity=100, time=32),
    Message('note_off', channel=9, note=36, velocity=64, time=64),
    Message('note_on', channel=9, note=38, velocity=100, time=32),
    Message('note_on', channel=9, note=51, velocity=100, time=0),
    Message('note_on', channel=9, note=42, velocity=100, time=0),
    Message('note_on', channel=9, note=55, velocity=100, time=0),
    Message('note_off', channel=9, note=38, velocity=64, time=64),
    Message('note_off', channel=9, note=51, velocity=64, time=0),
    Message('note_off', channel=9, note=42, velocity=64, time=0),
    Message('note_off', channel=9, note=55, velocity=64, time=0),
    Message('note_on', channel=9, note=51, velocity=100, time=128),
    Message('note_on', channel=9, note=42, velocity=100, time=0),
    Message('note_on', channel=9, note=55, velocity=100, time=0),
    Message('note_off', channel=9, note=51, velocity=64, time=64),
    Message('note_off', channel=9, note=42, velocity=64, time=0),
    Message('note_off', channel=9, note=55, velocity=64, time=0),
    Message('note_on', channel=9, note=36, velocity=100, time=32),
    Message('note_off', channel=9, note=36, velocity=64, time=64),
    Message('note_on', channel=9, note=36, velocity=100, time=32),
    Message('note_on', channel=9, note=51, velocity=100, time=0),
    Message('note_on', channel=9, note=46, velocity=100, time=0),
    Message('note_on', channel=9, note=55, velocity=100, time=0),
    Message('note_off', channel=9, note=36, velocity=64, time=64),
    Message('note_off', channel=9, note=51, velocity=64, time=0),
    Message('note_off', channel=9, note=55, velocity=64, time=0),
    Message('note_off', channel=9, note=46, velocity=64, time=64),
    Message('note_on', channel=9, note=36, velocity=100, time=64),
    Message('note_on', channel=9, note=51, velocity=100, time=0),
    Message('note_on', channel=9, note=42, velocity=100, time=0),
    Message('note_on', channel=9, note=55, velocity=100, time=0),
    Message('note_off', channel=9, note=36, velocity=64, time=64),
    Message('note_off', channel=9, note=51, velocity=64, time=0),
    Message('note_off', channel=9, note=42, velocity=64, time=0),
    Message('note_off', channel=9, note=55, velocity=64, time=0),
    Message('note_on', channel=9, note=38, velocity=100, time=128),
    Message('note_on', channel=9, note=51, velocity=100, time=0),
    Message('note_on', channel=9, note=42, velocity=100, time=0),
    Message('note_on', channel=9, note=55, velocity=100, time=0),
    Message('note_off', channel=9, note=38, velocity=64, time=64),
    Message('note_off', channel=9, note=51, velocity=64, time=0),
    Message('note_off', channel=9, note=42, velocity=64, time=0),
    Message('note_off', channel=9, note=55, velocity=64, time=0),
    Message('note_on', channel=9, note=36, velocity=100, time=32),
    Message('note_off', channel=9, note=36, velocity=64, time=64),
    Message('note_on', channel=9, note=51, velocity=100, time=32),
    Message('note_on', channel=9, note=42, velocity=100, time=0),
    Message('note_on', channel=9, note=55, velocity=100, time=0),
    Message('note_off', channel=9, note=51, velocity=64, time=64),
    Message('note_off', channel=9, note=42, velocity=64, time=0),
    Message('note_off', channel=9, note=55, velocity=64, time=0),
    Message('note_on', channel=9, note=36, velocity=100, time=32),
    Message('note_off', channel=9, note=36, velocity=64, time=64),
    Message('note_on', channel=9, note=57, velocity=100, time=32),
    Message('note_on', channel=9, note=49, velocity=100, time=0),
    Message('note_on', channel=9, note=36, velocity=100, time=0),
    Message('note_on', channel=9, note=51, velocity=100, time=0),
    Message('note_on', channel=9, note=46, velocity=100, time=0),
    Message('note_on', channel=9, note=55, velocity=100, time=0),
    Message('note_off', channel=9, note=57, velocity=64, time=64),
    Message('note_off', channel=9, note=49, velocity=64, time=0),
    Message('note_off', channel=9, note=36, velocity=64, time=0),
    Message('note_off', channel=9, note=51, velocity=64, time=0),
    Message('note_off', channel=9, note=55, velocity=64, time=0),
    Message('note_off', channel=9, note=46, velocity=64, time=64),
    Message('note_on', channel=9, note=51, velocity=100, time=64),
    Message('note_on', channel=9, note=42, velocity=100, time=0),
    Message('note_on', channel=9, note=55, velocity=100, time=0),
    Message('note_off', channel=9, note=51, velocity=64, time=64),
    Message('note_off', channel=9, note=42, velocity=64, time=0),
    Message('note_off', channel=9, note=55, velocity=64, time=0),
    Message('note_on', channel=9, note=36, velocity=100, time=32),
    Message('note_off', channel=9, note=36, velocity=64, time=64),
    Message('note_on', channel=9, note=38, velocity=100, time=32),
    Message('note_on', channel=9, note=51, velocity=100, time=0),
    Message('note_on', channel=9, note=42, velocity=100, time=0),
    Message('note_on', channel=9, note=55, velocity=100, time=0),
    Message('note_off', channel=9, note=38, velocity=64, time=64),
    Message('note_off', channel=9, note=51, velocity=64, time=0),
    Message('note_off', channel=9, note=42, velocity=64, time=0),
    Message('note_off', channel=9, note=55, velocity=64, time=0),
    Message('note_on', channel=9, note=51, velocity=100, time=128),
    Message('note_on', channel=9, note=42, velocity=100, time=0),
    Message('note_on', channel=9, note=55, velocity=100, time=0),
    Message('note_off', channel=9, note=51, velocity=64, time=64),
    Message('note_off', channel=9, note=42, velocity=64, time=0),
    Message('note_off', channel=9, note=55, velocity=64, time=0),
    Message('note_on', channel=9, note=36, velocity=100, time=32),
    Message('note_off', channel=9, note=36, velocity=64, time=64),
    Message('note_on', channel=9, note=36, velocity=100, time=32),
    Message('note_on', channel=9, note=51, velocity=100, time=0),
    Message('note_on', channel=9, note=46, velocity=100, time=0),
    Message('note_on', channel=9, note=55, velocity=100, time=0),
    Message('note_off', channel=9, note=36, velocity=64, time=64),
    Message('note_off', channel=9, note=51, velocity=64, time=0),
    Message('note_off', channel=9, note=55, velocity=64, time=0),
    Message('note_off', channel=9, note=46, velocity=64, time=64),
    Message('note_on', channel=9, note=36, velocity=100, time=64),
    Message('note_on', channel=9, note=51, velocity=100, time=0),
    Message('note_on', channel=9, note=42, velocity=100, time=0),
    Message('note_on', channel=9, note=55, velocity=100, time=0),
    Message('note_off', channel=9, note=36, velocity=64, time=64),
    Message('note_off', channel=9, note=51, velocity=64, time=0),
    Message('note_off', channel=9, note=42, velocity=64, time=0),
    Message('note_off', channel=9, note=55, velocity=64, time=0),
    Message('note_on', channel=9, note=38, velocity=100, time=128),
    Message('note_on', channel=9, note=51, velocity=100, time=0),
    Message('note_on', channel=9, note=42, velocity=100, time=0),
    Message('note_on', channel=9, note=55, velocity=100, time=0),
    Message('note_off', channel=9, note=38, velocity=64, time=64),
    Message('note_off', channel=9, note=51, velocity=64, time=0),
    Message('note_off', channel=9, note=42, velocity=64, time=0),
    Message('note_off', channel=9, note=55, velocity=64, time=0),
    Message('note_on', channel=9, note=36, velocity=100, time=32),
    Message('note_on', channel=9, note=38, velocity=100, time=48),
    Message('note_off', channel=9, note=36, velocity=64, time=16),
    Message('note_on', channel=9, note=42, velocity=100, time=32),
    Message('note_on', channel=9, note=55, velocity=100, time=0),
    Message('note_on', channel=9, note=51, velocity=100, time=0),
    Message('note_on', channel=9, note=38, velocity=100, time=0),
    Message('note_off', channel=9, note=38, velocity=64, time=16),
    Message('note_off', channel=9, note=42, velocity=64, time=48),
    Message('note_off', channel=9, note=55, velocity=64, time=0),
    Message('note_off', channel=9, note=51, velocity=64, time=0),
    Message('note_off', channel=9, note=38, velocity=64, time=0),
    Message('note_on', channel=9, note=36, velocity=100, time=32),
    Message('note_off', channel=9, note=36, velocity=64, time=64),
    Message('note_on', channel=9, note=57, velocity=100, time=32),
    Message('note_on', channel=9, note=49, velocity=100, time=0),
    Message('note_on', channel=9, note=36, velocity=100, time=0),
    Message('note_on', channel=9, note=51, velocity=100, time=0),
    Message('note_on', channel=9, note=46, velocity=100, time=0),
    Message('note_on', channel=9, note=55, velocity=100, time=0),
    Message('note_off', channel=9, note=57, velocity=64, time=64),
    Message('note_off', channel=9, note=49, velocity=64, time=0),
    Message('note_off', channel=9, note=36, velocity=64, time=0),
    Message('note_off', channel=9, note=51, velocity=64, time=0),
    Message('note_off', channel=9, note=55, velocity=64, time=0),
    Message('note_off', channel=9, note=46, velocity=64, time=64),
    Message('note_on', channel=9, note=51, velocity=100, time=64),
    Message('note_on', channel=9, note=42, velocity=100, time=0),
    Message('note_on', channel=9, note=55, velocity=100, time=0),
    Message('note_off', channel=9, note=51, velocity=64, time=64),
    Message('note_off', channel=9, note=42, velocity=64, time=0),
    Message('note_off', channel=9, note=55, velocity=64, time=0),
    Message('note_on', channel=9, note=36, velocity=100, time=32),
    Message('note_off', channel=9, note=36, velocity=64, time=64),
    Message('note_on', channel=9, note=38, velocity=100, time=32),
    Message('note_on', channel=9, note=51, velocity=100, time=0),
    Message('note_on', channel=9, note=42, velocity=100, time=0),
    Message('note_on', channel=9, note=55, velocity=100, time=0),
    Message('note_off', channel=9, note=38, velocity=64, time=64),
    Message('note_off', channel=9, note=51, velocity=64, time=0),
    Message('note_off', channel=9, note=42, velocity=64, time=0),
    Message('note_off', channel=9, note=55, velocity=64, time=0),
    Message('note_on', channel=9, note=51, velocity=100, time=128),
    Message('note_on', channel=9, note=42, velocity=100, time=0),
    Message('note_on', channel=9, note=55, velocity=100, time=0),
    Message('note_off', channel=9, note=51, velocity=64, time=64),
    Message('note_off', channel=9, note=42, velocity=64, time=0),
    Message('note_off', channel=9, note=55, velocity=64, time=0),
    Message('note_on', channel=9, note=36, velocity=100, time=32),
    Message('note_off', channel=9, note=36, velocity=64, time=64),
    Message('note_on', channel=9, note=36, velocity=100, time=32),
    Message('note_on', channel=9, note=51, velocity=100, time=0),
    Message('note_on', channel=9, note=46, velocity=100, time=0),
    Message('note_on', channel=9, note=55, velocity=100, time=0),
    Message('note_off', channel=9, note=36, velocity=64, time=64),
    Message('note_off', channel=9, note=51, velocity=64, time=0),
    Message('note_off', channel=9, note=55, velocity=64, time=0),
    Message('note_off', channel=9, note=46, velocity=64, time=64),
    Message('note_on', channel=9, note=36, velocity=100, time=64),
    Message('note_on', channel=9, note=51, velocity=100, time=0),
    Message('note_on', channel=9, note=42, velocity=100, time=0),
    Message('note_on', channel=9, note=55, velocity=100, time=0),
    Message('note_off', channel=9, note=36, velocity=64, time=64),
    Message('note_off', channel=9, note=51, velocity=64, time=0),
    Message('note_off', channel=9, note=42, velocity=64, time=0),
    Message('note_off', channel=9, note=55, velocity=64, time=0),
    Message('note_on', channel=9, note=38, velocity=100, time=128),
    Message('note_on', channel=9, note=51, velocity=100, time=0),
    Message('note_on', channel=9, note=42, velocity=100, time=0),
    Message('note_on', channel=9, note=55, velocity=100, time=0),
    Message('note_off', channel=9, note=38, velocity=64, time=64),
    Message('note_off', channel=9, note=51, velocity=64, time=0),
    Message('note_off', channel=9, note=42, velocity=64, time=0),
    Message('note_off', channel=9, note=55, velocity=64, time=0),
    Message('note_on', channel=9, note=36, velocity=100, time=32),
    Message('note_off', channel=9, note=36, velocity=64, time=64),
    Message('note_on', channel=9, note=51, velocity=100, time=32),
    Message('note_on', channel=9, note=42, velocity=100, time=0),
    Message('note_on', channel=9, note=55, velocity=100, time=0),
    Message('note_off', channel=9, note=51, velocity=64, time=64),
    Message('note_off', channel=9, note=42, velocity=64, time=0),
    Message('note_off', channel=9, note=55, velocity=64, time=0),
    Message('note_on', channel=9, note=36, velocity=100, time=32),
    Message('note_off', channel=9, note=36, velocity=64, time=64),
    Message('note_on', channel=9, note=57, velocity=100, time=32),
    Message('note_on', channel=9, note=49, velocity=100, time=0),
    Message('note_on', channel=9, note=36, velocity=100, time=0),
    Message('note_on', channel=9, note=51, velocity=100, time=0),
    Message('note_on', channel=9, note=46, velocity=100, time=0),
    Message('note_on', channel=9, note=55, velocity=100, time=0),
    Message('note_off', channel=9, note=57, velocity=64, time=64),
    Message('note_off', channel=9, note=49, velocity=64, time=0),
    Message('note_off', channel=9, note=36, velocity=64, time=0),
    Message('note_off', channel=9, note=51, velocity=64, time=0),
    Message('note_off', channel=9, note=55, velocity=64, time=0),
    Message('note_off', channel=9, note=46, velocity=64, time=64),
    Message('note_on', channel=9, note=51, velocity=100, time=64),
    Message('note_on', channel=9, note=42, velocity=100, time=0),
    Message('note_on', channel=9, note=55, velocity=100, time=0),
    Message('note_off', channel=9, note=51, velocity=64, time=64),
    Message('note_off', channel=9, note=42, velocity=64, time=0),
    Message('note_off', channel=9, note=55, velocity=64, time=0),
    Message('note_on', channel=9, note=36, velocity=100, time=32),
    Message('note_off', channel=9, note=36, velocity=64, time=64),
    Message('note_on', channel=9, note=38, velocity=100, time=32),
    Message('note_on', channel=9, note=51, velocity=100, time=0),
    Message('note_on', channel=9, note=42, velocity=100, time=0),
    Message('note_on', channel=9, note=55, velocity=100, time=0),
    Message('note_off', channel=9, note=38, velocity=64, time=64),
    Message('note_off', channel=9, note=51, velocity=64, time=0),
    Message('note_off', channel=9, note=42, velocity=64, time=0),
    Message('note_off', channel=9, note=55, velocity=64, time=0),
    Message('note_on', channel=9, note=51, velocity=100, time=128),
    Message('note_on', channel=9, note=42, velocity=100, time=0),
    Message('note_on', channel=9, note=55, velocity=100, time=0),
    Message('note_off', channel=9, note=51, velocity=64, time=64),
    Message('note_off', channel=9, note=42, velocity=64, time=0),
    Message('note_off', channel=9, note=55, velocity=64, time=0),
    Message('note_on', channel=9, note=36, velocity=100, time=32),
    Message('note_off', channel=9, note=36, velocity=64, time=64),
    Message('note_on', channel=9, note=36, velocity=100, time=32),
    Message('note_on', channel=9, note=51, velocity=100, time=0),
    Message('note_on', channel=9, note=46, velocity=100, time=0),
    Message('note_on', channel=9, note=55, velocity=100, time=0),
    Message('note_off', channel=9, note=36, velocity=64, time=64),
    Message('note_off', channel=9, note=51, velocity=64, time=0),
    Message('note_off', channel=9, note=55, velocity=64, time=0),
    Message('note_off', channel=9, note=46, velocity=64, time=64),
    Message('note_on', channel=9, note=36, velocity=100, time=64),
    Message('note_on', channel=9, note=51, velocity=100, time=0),
    Message('note_on', channel=9, note=42, velocity=100, time=0),
    Message('note_on', channel=9, note=55, velocity=100, time=0),
    Message('note_off', channel=9, note=36, velocity=64, time=64),
    Message('note_off', channel=9, note=51, velocity=64, time=0),
    Message('note_off', channel=9, note=42, velocity=64, time=0),
    Message('note_off', channel=9, note=55, velocity=64, time=0),
    Message('note_on', channel=9, note=38, velocity=100, time=128),
    Message('note_on', channel=9, note=51, velocity=100, time=0),
    Message('note_on', channel=9, note=42, velocity=100, time=0),
    Message('note_on', channel=9, note=55, velocity=100, time=0),
    Message('note_off', channel=9, note=38, velocity=64, time=64),
    Message('note_off', channel=9, note=51, velocity=64, time=0),
    Message('note_off', channel=9, note=42, velocity=64, time=0),
    Message('note_off', channel=9, note=55, velocity=64, time=0),
    Message('note_on', channel=9, note=36, velocity=100, time=32),
    Message('note_on', channel=9, note=38, velocity=100, time=48),
    Message('note_off', channel=9, note=36, velocity=64, time=16),
    Message('note_on', channel=9, note=42, velocity=100, time=32),
    Message('note_on', channel=9, note=55, velocity=100, time=0),
    Message('note_on', channel=9, note=51, velocity=100, time=0),
    Message('note_on', channel=9, note=38, velocity=100, time=0),
    Message('note_off', channel=9, note=38, velocity=64, time=16),
    Message('note_off', channel=9, note=42, velocity=64, time=48),
    Message('note_off', channel=9, note=55, velocity=64, time=0),
    Message('note_off', channel=9, note=51, velocity=64, time=0),
    Message('note_off', channel=9, note=38, velocity=64, time=0),
    Message('note_on', channel=9, note=36, velocity=100, time=32),
    Message('note_off', channel=9, note=36, velocity=64, time=64),
    Message('note_on', channel=9, note=57, velocity=100, time=32),
    Message('note_on', channel=9, note=49, velocity=100, time=0),
    Message('note_on', channel=9, note=36, velocity=100, time=0),
    Message('note_on', channel=9, note=51, velocity=100, time=0),
    Message('note_on', channel=9, note=46, velocity=100, time=0),
    Message('note_on', channel=9, note=55, velocity=100, time=0),
    Message('note_off', channel=9, note=57, velocity=64, time=64),
    Message('note_off', channel=9, note=49, velocity=64, time=0),
    Message('note_off', channel=9, note=36, velocity=64, time=0),
    Message('note_off', channel=9, note=51, velocity=64, time=0),
    Message('note_off', channel=9, note=55, velocity=64, time=0),
    Message('note_off', channel=9, note=46, velocity=64, time=64),
    Message('note_on', channel=9, note=51, velocity=100, time=64),
    Message('note_on', channel=9, note=42, velocity=100, time=0),
    Message('note_on', channel=9, note=55, velocity=100, time=0),
    Message('note_off', channel=9, note=51, velocity=64, time=64),
    Message('note_off', channel=9, note=42, velocity=64, time=0),
    Message('note_off', channel=9, note=55, velocity=64, time=0),
    Message('note_on', channel=9, note=36, velocity=100, time=32),
    Message('note_off', channel=9, note=36, velocity=64, time=64),
    Message('note_on', channel=9, note=38, velocity=100, time=32),
    Message('note_on', channel=9, note=51, velocity=100, time=0),
    Message('note_on', channel=9, note=42, velocity=100, time=0),
    Message('note_on', channel=9, note=55, velocity=100, time=0),
    Message('note_off', channel=9, note=38, velocity=64, time=64),
    Message('note_off', channel=9, note=51, velocity=64, time=0),
    Message('note_off', channel=9, note=42, velocity=64, time=0),
    Message('note_off', channel=9, note=55, velocity=64, time=0),
    Message('note_on', channel=9, note=51, velocity=100, time=128),
    Message('note_on', channel=9, note=42, velocity=100, time=0),
    Message('note_on', channel=9, note=55, velocity=100, time=0),
    Message('note_off', channel=9, note=51, velocity=64, time=64),
    Message('note_off', channel=9, note=42, velocity=64, time=0),
    Message('note_off', channel=9, note=55, velocity=64, time=0),
    Message('note_on', channel=9, note=36, velocity=100, time=32),
    Message('note_off', channel=9, note=36, velocity=64, time=64),
    Message('note_on', channel=9, note=36, velocity=100, time=32),
    Message('note_on', channel=9, note=51, velocity=100, time=0),
    Message('note_on', channel=9, note=46, velocity=100, time=0),
    Message('note_on', channel=9, note=55, velocity=100, time=0),
    Message('note_off', channel=9, note=36, velocity=64, time=64),
    Message('note_off', channel=9, note=51, velocity=64, time=0),
    Message('note_off', channel=9, note=55, velocity=64, time=0),
    Message('note_off', channel=9, note=46, velocity=64, time=64),
    Message('note_on', channel=9, note=36, velocity=100, time=64),
    Message('note_on', channel=9, note=51, velocity=100, time=0),
    Message('note_on', channel=9, note=42, velocity=100, time=0),
    Message('note_on', channel=9, note=55, velocity=100, time=0),
    Message('note_off', channel=9, note=36, velocity=64, time=64),
    Message('note_off', channel=9, note=51, velocity=64, time=0),
    Message('note_off', channel=9, note=42, velocity=64, time=0),
    Message('note_off', channel=9, note=55, velocity=64, time=0),
    Message('note_on', channel=9, note=38, velocity=100, time=128),
    Message('note_on', channel=9, note=51, velocity=100, time=0),
    Message('note_on', channel=9, note=42, velocity=100, time=0),
    Message('note_on', channel=9, note=55, velocity=100, time=0),
    Message('note_off', channel=9, note=38, velocity=64, time=64),
    Message('note_off', channel=9, note=51, velocity=64, time=0),
    Message('note_off', channel=9, note=42, velocity=64, time=0),
    Message('note_off', channel=9, note=55, velocity=64, time=0),
    Message('note_on', channel=9, note=36, velocity=100, time=32),
    Message('note_off', channel=9, note=36, velocity=64, time=64),
    Message('note_on', channel=9, note=51, velocity=100, time=32),
    Message('note_on', channel=9, note=42, velocity=100, time=0),
    Message('note_on', channel=9, note=55, velocity=100, time=0),
    Message('note_off', channel=9, note=51, velocity=64, time=64),
    Message('note_off', channel=9, note=42, velocity=64, time=0),
    Message('note_off', channel=9, note=55, velocity=64, time=0),
    Message('note_on', channel=9, note=36, velocity=100, time=32),
    Message('note_off', channel=9, note=36, velocity=64, time=64),
    Message('note_on', channel=9, note=57, velocity=100, time=32),
    Message('note_on', channel=9, note=49, velocity=100, time=0),
    Message('note_on', channel=9, note=36, velocity=100, time=0),
    Message('note_on', channel=9, note=51, velocity=100, time=0),
    Message('note_on', channel=9, note=46, velocity=100, time=0),
    Message('note_on', channel=9, note=55, velocity=100, time=0),
    Message('note_off', channel=9, note=57, velocity=64, time=64),
    Message('note_off', channel=9, note=49, velocity=64, time=0),
    Message('note_off', channel=9, note=36, velocity=64, time=0),
    Message('note_off', channel=9, note=51, velocity=64, time=0),
    Message('note_off', channel=9, note=55, velocity=64, time=0),
    Message('note_off', channel=9, note=46, velocity=64, time=64),
    Message('note_on', channel=9, note=51, velocity=100, time=64),
    Message('note_on', channel=9, note=42, velocity=100, time=0),
    Message('note_on', channel=9, note=55, velocity=100, time=0),
    Message('note_off', channel=9, note=51, velocity=64, time=64),
    Message('note_off', channel=9, note=42, velocity=64, time=0),
    Message('note_off', channel=9, note=55, velocity=64, time=0),
    Message('note_on', channel=9, note=36, velocity=100, time=32),
    Message('note_off', channel=9, note=36, velocity=64, time=64),
    Message('note_on', channel=9, note=38, velocity=100, time=32),
    Message('note_on', channel=9, note=51, velocity=100, time=0),
    Message('note_on', channel=9, note=42, velocity=100, time=0),
    Message('note_on', channel=9, note=55, velocity=100, time=0),
    Message('note_off', channel=9, note=38, velocity=64, time=64),
    Message('note_off', channel=9, note=51, velocity=64, time=0),
    Message('note_off', channel=9, note=42, velocity=64, time=0),
    Message('note_off', channel=9, note=55, velocity=64, time=0),
    Message('note_on', channel=9, note=51, velocity=100, time=128),
    Message('note_on', channel=9, note=42, velocity=100, time=0),
    Message('note_on', channel=9, note=55, velocity=100, time=0),
    Message('note_off', channel=9, note=51, velocity=64, time=64),
    Message('note_off', channel=9, note=42, velocity=64, time=0),
    Message('note_off', channel=9, note=55, velocity=64, time=0),
    Message('note_on', channel=9, note=36, velocity=100, time=32),
    Message('note_off', channel=9, note=36, velocity=64, time=64),
    Message('note_on', channel=9, note=36, velocity=100, time=32),
    Message('note_on', channel=9, note=51, velocity=100, time=0),
    Message('note_on', channel=9, note=46, velocity=100, time=0),
    Message('note_on', channel=9, note=55, velocity=100, time=0),
    Message('note_off', channel=9, note=36, velocity=64, time=64),
    Message('note_off', channel=9, note=51, velocity=64, time=0),
    Message('note_off', channel=9, note=55, velocity=64, time=0),
    Message('note_off', channel=9, note=46, velocity=64, time=64),
    Message('note_on', channel=9, note=36, velocity=100, time=64),
    Message('note_on', channel=9, note=51, velocity=100, time=0),
    Message('note_on', channel=9, note=42, velocity=100, time=0),
    Message('note_on', channel=9, note=55, velocity=100, time=0),
    Message('note_off', channel=9, note=36, velocity=64, time=64),
    Message('note_off', channel=9, note=51, velocity=64, time=0),
    Message('note_off', channel=9, note=42, velocity=64, time=0),
    Message('note_off', channel=9, note=55, velocity=64, time=0),
    Message('note_on', channel=9, note=38, velocity=100, time=128),
    Message('note_on', channel=9, note=51, velocity=100, time=0),
    Message('note_on', channel=9, note=42, velocity=100, time=0),
    Message('note_on', channel=9, note=55, velocity=100, time=0),
    Message('note_off', channel=9, note=38, velocity=64, time=64),
    Message('note_off', channel=9, note=51, velocity=64, time=0),
    Message('note_off', channel=9, note=42, velocity=64, time=0),
    Message('note_off', channel=9, note=55, velocity=64, time=0),
    Message('note_on', channel=9, note=36, velocity=100, time=32),
    Message('note_on', channel=9, note=38, velocity=100, time=48),
    Message('note_off', channel=9, note=36, velocity=64, time=16),
    Message('note_on', channel=9, note=42, velocity=100, time=32),
    Message('note_on', channel=9, note=55, velocity=100, time=0),
    Message('note_on', channel=9, note=51, velocity=100, time=0),
    Message('note_on', channel=9, note=38, velocity=100, time=0),
    Message('note_off', channel=9, note=38, velocity=64, time=16),
    Message('note_off', channel=9, note=42, velocity=64, time=48),
    Message('note_off', channel=9, note=55, velocity=64, time=0),
    Message('note_off', channel=9, note=51, velocity=64, time=0),
    Message('note_off', channel=9, note=38, velocity=64, time=0),
    Message('note_on', channel=9, note=36, velocity=100, time=32),
    Message('note_off', channel=9, note=36, velocity=64, time=64),
    Message('note_on', channel=9, note=57, velocity=100, time=32),
    Message('note_on', channel=9, note=49, velocity=100, time=0),
    Message('note_on', channel=9, note=36, velocity=100, time=0),
    Message('note_on', channel=9, note=51, velocity=100, time=0),
    Message('note_on', channel=9, note=46, velocity=100, time=0),
    Message('note_on', channel=9, note=55, velocity=100, time=0),
    Message('note_off', channel=9, note=57, velocity=64, time=64),
    Message('note_off', channel=9, note=49, velocity=64, time=0),
    Message('note_off', channel=9, note=36, velocity=64, time=0),
    Message('note_off', channel=9, note=51, velocity=64, time=0),
    Message('note_off', channel=9, note=55, velocity=64, time=0),
    Message('note_off', channel=9, note=46, velocity=64, time=64),
    Message('note_on', channel=9, note=51, velocity=100, time=64),
    Message('note_on', channel=9, note=42, velocity=100, time=0),
    Message('note_on', channel=9, note=55, velocity=100, time=0),
    Message('note_off', channel=9, note=51, velocity=64, time=64),
    Message('note_off', channel=9, note=42, velocity=64, time=0),
    Message('note_off', channel=9, note=55, velocity=64, time=0),
    Message('note_on', channel=9, note=36, velocity=100, time=32),
    Message('note_off', channel=9, note=36, velocity=64, time=64),
    Message('note_on', channel=9, note=38, velocity=100, time=32),
    Message('note_on', channel=9, note=51, velocity=100, time=0),
    Message('note_on', channel=9, note=42, velocity=100, time=0),
    Message('note_on', channel=9, note=55, velocity=100, time=0),
    Message('note_off', channel=9, note=38, velocity=64, time=64),
    Message('note_off', channel=9, note=51, velocity=64, time=0),
    Message('note_off', channel=9, note=42, velocity=64, time=0),
    Message('note_off', channel=9, note=55, velocity=64, time=0),
    Message('note_on', channel=9, note=51, velocity=100, time=128),
    Message('note_on', channel=9, note=42, velocity=100, time=0),
    Message('note_on', channel=9, note=55, velocity=100, time=0),
    Message('note_off', channel=9, note=51, velocity=64, time=64),
    Message('note_off', channel=9, note=42, velocity=64, time=0),
    Message('note_off', channel=9, note=55, velocity=64, time=0),
    Message('note_on', channel=9, note=36, velocity=100, time=32),
    Message('note_off', channel=9, note=36, velocity=64, time=64),
    Message('note_on', channel=9, note=36, velocity=100, time=32),
    Message('note_on', channel=9, note=51, velocity=100, time=0),
    Message('note_on', channel=9, note=46, velocity=100, time=0),
    Message('note_on', channel=9, note=55, velocity=100, time=0),
    Message('note_off', channel=9, note=36, velocity=64, time=64),
    Message('note_off', channel=9, note=51, velocity=64, time=0),
    Message('note_off', channel=9, note=55, velocity=64, time=0),
    Message('note_off', channel=9, note=46, velocity=64, time=64),
    Message('note_on', channel=9, note=36, velocity=100, time=64),
    Message('note_on', channel=9, note=51, velocity=100, time=0),
    Message('note_on', channel=9, note=42, velocity=100, time=0),
    Message('note_on', channel=9, note=55, velocity=100, time=0),
    Message('note_off', channel=9, note=36, velocity=64, time=64),
    Message('note_off', channel=9, note=51, velocity=64, time=0),
    Message('note_off', channel=9, note=42, velocity=64, time=0),
    Message('note_off', channel=9, note=55, velocity=64, time=0),
    Message('note_on', channel=9, note=38, velocity=100, time=128),
    Message('note_on', channel=9, note=51, velocity=100, time=0),
    Message('note_on', channel=9, note=42, velocity=100, time=0),
    Message('note_on', channel=9, note=55, velocity=100, time=0),
    Message('note_off', channel=9, note=38, velocity=64, time=64),
    Message('note_off', channel=9, note=51, velocity=64, time=0),
    Message('note_off', channel=9, note=42, velocity=64, time=0),
    Message('note_off', channel=9, note=55, velocity=64, time=0),
    Message('note_on', channel=9, note=36, velocity=100, time=32),
    Message('note_off', channel=9, note=36, velocity=64, time=64),
    Message('note_on', channel=9, note=51, velocity=100, time=32),
    Message('note_on', channel=9, note=42, velocity=100, time=0),
    Message('note_on', channel=9, note=55, velocity=100, time=0),
    Message('note_off', channel=9, note=51, velocity=64, time=64),
    Message('note_off', channel=9, note=42, velocity=64, time=0),
    Message('note_off', channel=9, note=55, velocity=64, time=0),
    Message('note_on', channel=9, note=36, velocity=100, time=32),
    Message('note_off', channel=9, note=36, velocity=64, time=64),
    Message('note_on', channel=9, note=57, velocity=100, time=32),
    Message('note_on', channel=9, note=49, velocity=100, time=0),
    Message('note_on', channel=9, note=36, velocity=100, time=0),
    Message('note_on', channel=9, note=51, velocity=100, time=0),
    Message('note_on', channel=9, note=46, velocity=100, time=0),
    Message('note_on', channel=9, note=55, velocity=100, time=0),
    Message('note_off', channel=9, note=57, velocity=64, time=64),
    Message('note_off', channel=9, note=49, velocity=64, time=0),
    Message('note_off', channel=9, note=36, velocity=64, time=0),
    Message('note_off', channel=9, note=51, velocity=64, time=0),
    Message('note_off', channel=9, note=55, velocity=64, time=0),
    Message('note_off', channel=9, note=46, velocity=64, time=64),
    Message('note_on', channel=9, note=51, velocity=100, time=64),
    Message('note_on', channel=9, note=42, velocity=100, time=0),
    Message('note_on', channel=9, note=55, velocity=100, time=0),
    Message('note_off', channel=9, note=51, velocity=64, time=64),
    Message('note_off', channel=9, note=42, velocity=64, time=0),
    Message('note_off', channel=9, note=55, velocity=64, time=0),
    Message('note_on', channel=9, note=36, velocity=100, time=32),
    Message('note_off', channel=9, note=36, velocity=64, time=64),
    Message('note_on', channel=9, note=38, velocity=100, time=32),
    Message('note_on', channel=9, note=51, velocity=100, time=0),
    Message('note_on', channel=9, note=42, velocity=100, time=0),
    Message('note_on', channel=9, note=55, velocity=100, time=0),
    Message('note_off', channel=9, note=38, velocity=64, time=64),
    Message('note_off', channel=9, note=51, velocity=64, time=0),
    Message('note_off', channel=9, note=42, velocity=64, time=0),
    Message('note_off', channel=9, note=55, velocity=64, time=0),
    Message('note_on', channel=9, note=51, velocity=100, time=128),
    Message('note_on', channel=9, note=42, velocity=100, time=0),
    Message('note_on', channel=9, note=55, velocity=100, time=0),
    Message('note_off', channel=9, note=51, velocity=64, time=64),
    Message('note_off', channel=9, note=42, velocity=64, time=0),
    Message('note_off', channel=9, note=55, velocity=64, time=0),
    Message('note_on', channel=9, note=36, velocity=100, time=32),
    Message('note_off', channel=9, note=36, velocity=64, time=64),
    Message('note_on', channel=9, note=36, velocity=100, time=32),
    Message('note_on', channel=9, note=51, velocity=100, time=0),
    Message('note_on', channel=9, note=46, velocity=100, time=0),
    Message('note_on', channel=9, note=55, velocity=100, time=0),
    Message('note_off', channel=9, note=36, velocity=64, time=64),
    Message('note_off', channel=9, note=51, velocity=64, time=0),
    Message('note_off', channel=9, note=55, velocity=64, time=0),
    Message('note_off', channel=9, note=46, velocity=64, time=64),
    Message('note_on', channel=9, note=36, velocity=100, time=64),
    Message('note_on', channel=9, note=51, velocity=100, time=0),
    Message('note_on', channel=9, note=42, velocity=100, time=0),
    Message('note_on', channel=9, note=55, velocity=100, time=0),
    Message('note_off', channel=9, note=36, velocity=64, time=64),
    Message('note_off', channel=9, note=51, velocity=64, time=0),
    Message('note_off', channel=9, note=42, velocity=64, time=0),
    Message('note_off', channel=9, note=55, velocity=64, time=0),
    Message('note_on', channel=9, note=38, velocity=100, time=128),
    Message('note_on', channel=9, note=51, velocity=100, time=0),
    Message('note_on', channel=9, note=42, velocity=100, time=0),
    Message('note_on', channel=9, note=55, velocity=100, time=0),
    Message('note_on', channel=9, note=38, velocity=100, time=0),
    Message('note_on', channel=9, note=57, velocity=100, time=0),
    Message('note_on', channel=9, note=47, velocity=100, time=0),
    Message('note_on', channel=9, note=36, velocity=100, time=0),
    Message('note_on', channel=9, note=38, velocity=100, time=0),
    Message('note_on', channel=9, note=57, velocity=100, time=0),
    Message('note_off', channel=9, note=38, velocity=64, time=64),
    Message('note_off', channel=9, note=51, velocity=64, time=0),
    Message('note_off', channel=9, note=42, velocity=64, time=0),
    Message('note_off', channel=9, note=55, velocity=64, time=0),
    Message('note_off', channel=9, note=38, velocity=64, time=0),
    Message('note_off', channel=9, note=57, velocity=64, time=0),
    Message('note_off', channel=9, note=47, velocity=64, time=0),
    Message('note_off', channel=9, note=36, velocity=64, time=0),
    Message('note_off', channel=9, note=38, velocity=64, time=0),
    Message('note_off', channel=9, note=57, velocity=64, time=0),
    Message('note_on', channel=9, note=47, velocity=100, time=0),
    Message('note_on', channel=9, note=36, velocity=100, time=32),
    Message('note_on', channel=9, note=36, velocity=100, time=0),
    Message('note_on', channel=9, note=47, velocity=100, time=0),
    Message('note_on', channel=9, note=36, velocity=100, time=0),
    Message('note_on', channel=9, note=38, velocity=100, time=0),
    Message('note_off', channel=9, note=47, velocity=64, time=32),
    Message('note_on', channel=9, note=47, velocity=100, time=12),
    Message('note_on', channel=9, note=38, velocity=100, time=4),
    Message('note_off', channel=9, note=36, velocity=64, time=16),
    Message('note_off', channel=9, note=36, velocity=64, time=0),
    Message('note_off', channel=9, note=47, velocity=64, time=0),
    Message('note_off', channel=9, note=36, velocity=64, time=0),
    Message('note_off', channel=9, note=38, velocity=64, time=0),
    Message('note_on', channel=9, note=42, velocity=100, time=32),
    Message('note_on', channel=9, note=55, velocity=100, time=0),
    Message('note_on', channel=9, note=51, velocity=100, time=0),
    Message('note_on', channel=9, note=38, velocity=100, time=0),
    Message('note_on', channel=9, note=38, velocity=100, time=0),
    Message('note_on', channel=9, note=36, velocity=100, time=0),
    Message('note_on', channel=9, note=57, velocity=100, time=0),
    Message('note_on', channel=9, note=45, velocity=100, time=0),
    Message('note_on', channel=9, note=38, velocity=100, time=0),
    Message('note_on', channel=9, note=57, velocity=100, time=0),
    Message('note_off', channel=9, note=47, velocity=64, time=12),
    Message('note_off', channel=9, note=38, velocity=64, time=4),
    Message('note_on', channel=9, note=45, velocity=100, time=28),
    Message('note_off', channel=9, note=42, velocity=64, time=20),
    Message('note_off', channel=9, note=55, velocity=64, time=0),
    Message('note_off', channel=9, note=51, velocity=64, time=0),
    Message('note_off', channel=9, note=38, velocity=64, time=0),
    Message('note_off', channel=9, note=38, velocity=64, time=0),
    Message('note_off', channel=9, note=36, velocity=64, time=0),
    Message('note_off', channel=9, note=57, velocity=64, time=0),
    Message('note_off', channel=9, note=45, velocity=64, time=0),
    Message('note_off', channel=9, note=38, velocity=64, time=0),
    Message('note_off', channel=9, note=57, velocity=64, time=0),
    Message('note_on', channel=9, note=36, velocity=100, time=32),
    Message('note_on', channel=9, note=45, velocity=100, time=0),
    Message('note_on', channel=9, note=36, velocity=100, time=0),
    Message('note_on', channel=9, note=38, velocity=100, time=0),
    Message('note_off', channel=9, note=45, velocity=64, time=12),
    Message('note_on', channel=9, note=45, velocity=100, time=28),
    Message('note_off', channel=9, note=36, velocity=64, time=24),
    Message('note_off', channel=9, note=45, velocity=64, time=0),
    Message('note_off', channel=9, note=36, velocity=64, time=0),
    Message('note_off', channel=9, note=38, velocity=64, time=0),
    Message('note_on', channel=9, note=57, velocity=100, time=32),
    Message('note_on', channel=9, note=49, velocity=100, time=0),
    Message('note_on', channel=9, note=36, velocity=100, time=0),
    Message('note_on', channel=9, note=51, velocity=100, time=0),
    Message('note_on', channel=9, note=46, velocity=100, time=0),
    Message('note_on', channel=9, note=55, velocity=100, time=0),
    Message('note_off', channel=9, note=45, velocity=64, time=8),
    Message('note_off', channel=9, note=57, velocity=64, time=56),
    Message('note_off', channel=9, note=49, velocity=64, time=0),
    Message('note_off', channel=9, note=36, velocity=64, time=0),
    Message('note_off', channel=9, note=51, velocity=64, time=0),
    Message('note_off', channel=9, note=55, velocity=64, time=0),
    Message('note_off', channel=9, note=46, velocity=64, time=64),
    Message('note_on', channel=9, note=51, velocity=100, time=64),
    Message('note_on', channel=9, note=42, velocity=100, time=0),
    Message('note_on', channel=9, note=55, velocity=100, time=0),
    Message('note_off', channel=9, note=51, velocity=64, time=64),
    Message('note_off', channel=9, note=42, velocity=64, time=0),
    Message('note_off', channel=9, note=55, velocity=64, time=0),
    Message('note_on', channel=9, note=36, velocity=100, time=32),
    Message('note_off', channel=9, note=36, velocity=64, time=64),
    Message('note_on', channel=9, note=38, velocity=100, time=32),
    Message('note_on', channel=9, note=51, velocity=100, time=0),
    Message('note_on', channel=9, note=42, velocity=100, time=0),
    Message('note_on', channel=9, note=55, velocity=100, time=0),
    Message('note_off', channel=9, note=38, velocity=64, time=64),
    Message('note_off', channel=9, note=51, velocity=64, time=0),
    Message('note_off', channel=9, note=42, velocity=64, time=0),
    Message('note_off', channel=9, note=55, velocity=64, time=0),
    Message('note_on', channel=9, note=51, velocity=100, time=128),
    Message('note_on', channel=9, note=42, velocity=100, time=0),
    Message('note_on', channel=9, note=55, velocity=100, time=0),
    Message('note_off', channel=9, note=51, velocity=64, time=64),
    Message('note_off', channel=9, note=42, velocity=64, time=0),
    Message('note_off', channel=9, note=55, velocity=64, time=0),
    Message('note_on', channel=9, note=36, velocity=100, time=32),
    Message('note_off', channel=9, note=36, velocity=64, time=64),
    Message('note_on', channel=9, note=36, velocity=100, time=32),
    Message('note_on', channel=9, note=51, velocity=100, time=0),
    Message('note_on', channel=9, note=46, velocity=100, time=0),
    Message('note_on', channel=9, note=55, velocity=100, time=0),
    Message('note_off', channel=9, note=36, velocity=64, time=64),
    Message('note_off', channel=9, note=51, velocity=64, time=0),
    Message('note_off', channel=9, note=55, velocity=64, time=0),
    Message('note_off', channel=9, note=46, velocity=64, time=64),
    Message('note_on', channel=9, note=36, velocity=100, time=64),
    Message('note_on', channel=9, note=51, velocity=100, time=0),
    Message('note_on', channel=9, note=42, velocity=100, time=0),
    Message('note_on', channel=9, note=55, velocity=100, time=0),
    Message('note_off', channel=9, note=36, velocity=64, time=64),
    Message('note_off', channel=9, note=51, velocity=64, time=0),
    Message('note_off', channel=9, note=42, velocity=64, time=0),
    Message('note_off', channel=9, note=55, velocity=64, time=0),
    Message('note_on', channel=9, note=38, velocity=100, time=128),
    Message('note_on', channel=9, note=51, velocity=100, time=0),
    Message('note_on', channel=9, note=42, velocity=100, time=0),
    Message('note_on', channel=9, note=55, velocity=100, time=0),
    Message('note_off', channel=9, note=38, velocity=64, time=64),
    Message('note_off', channel=9, note=51, velocity=64, time=0),
    Message('note_off', channel=9, note=42, velocity=64, time=0),
    Message('note_off', channel=9, note=55, velocity=64, time=0),
    Message('note_on', channel=9, note=36, velocity=100, time=32),
    Message('note_off', channel=9, note=36, velocity=64, time=64),
    Message('note_on', channel=9, note=51, velocity=100, time=32),
    Message('note_on', channel=9, note=42, velocity=100, time=0),
    Message('note_on', channel=9, note=55, velocity=100, time=0),
    Message('note_off', channel=9, note=51, velocity=64, time=64),
    Message('note_off', channel=9, note=42, velocity=64, time=0),
    Message('note_off', channel=9, note=55, velocity=64, time=0),
    Message('note_on', channel=9, note=36, velocity=100, time=32),
    Message('note_off', channel=9, note=36, velocity=64, time=64),
    Message('note_on', channel=9, note=57, velocity=100, time=32),
    Message('note_on', channel=9, note=49, velocity=100, time=0),
    Message('note_on', channel=9, note=36, velocity=100, time=0),
    Message('note_on', channel=9, note=51, velocity=100, time=0),
    Message('note_on', channel=9, note=46, velocity=100, time=0),
    Message('note_on', channel=9, note=55, velocity=100, time=0),
    Message('note_off', channel=9, note=57, velocity=64, time=64),
    Message('note_off', channel=9, note=49, velocity=64, time=0),
    Message('note_off', channel=9, note=36, velocity=64, time=0),
    Message('note_off', channel=9, note=51, velocity=64, time=0),
    Message('note_off', channel=9, note=55, velocity=64, time=0),
    Message('note_off', channel=9, note=46, velocity=64, time=64),
    Message('note_on', channel=9, note=51, velocity=100, time=64),
    Message('note_on', channel=9, note=42, velocity=100, time=0),
    Message('note_on', channel=9, note=55, velocity=100, time=0),
    Message('note_off', channel=9, note=51, velocity=64, time=64),
    Message('note_off', channel=9, note=42, velocity=64, time=0),
    Message('note_off', channel=9, note=55, velocity=64, time=0),
    Message('note_on', channel=9, note=36, velocity=100, time=32),
    Message('note_off', channel=9, note=36, velocity=64, time=64),
    Message('note_on', channel=9, note=38, velocity=100, time=32),
    Message('note_on', channel=9, note=51, velocity=100, time=0),
    Message('note_on', channel=9, note=42, velocity=100, time=0),
    Message('note_on', channel=9, note=55, velocity=100, time=0),
    Message('note_off', channel=9, note=38, velocity=64, time=64),
    Message('note_off', channel=9, note=51, velocity=64, time=0),
    Message('note_off', channel=9, note=42, velocity=64, time=0),
    Message('note_off', channel=9, note=55, velocity=64, time=0),
    Message('note_on', channel=9, note=51, velocity=100, time=128),
    Message('note_on', channel=9, note=42, velocity=100, time=0),
    Message('note_on', channel=9, note=55, velocity=100, time=0),
    Message('note_off', channel=9, note=51, velocity=64, time=64),
    Message('note_off', channel=9, note=42, velocity=64, time=0),
    Message('note_off', channel=9, note=55, velocity=64, time=0),
    Message('note_on', channel=9, note=36, velocity=100, time=32),
    Message('note_off', channel=9, note=36, velocity=64, time=64),
    Message('note_on', channel=9, note=36, velocity=100, time=32),
    Message('note_on', channel=9, note=51, velocity=100, time=0),
    Message('note_on', channel=9, note=46, velocity=100, time=0),
    Message('note_on', channel=9, note=55, velocity=100, time=0),
    Message('note_off', channel=9, note=36, velocity=64, time=64),
    Message('note_off', channel=9, note=51, velocity=64, time=0),
    Message('note_off', channel=9, note=55, velocity=64, time=0),
    Message('note_off', channel=9, note=46, velocity=64, time=64),
    Message('note_on', channel=9, note=36, velocity=100, time=64),
    Message('note_on', channel=9, note=51, velocity=100, time=0),
    Message('note_on', channel=9, note=42, velocity=100, time=0),
    Message('note_on', channel=9, note=55, velocity=100, time=0),
    Message('note_off', channel=9, note=36, velocity=64, time=64),
    Message('note_off', channel=9, note=51, velocity=64, time=0),
    Message('note_off', channel=9, note=42, velocity=64, time=0),
    Message('note_off', channel=9, note=55, velocity=64, time=0),
    Message('note_on', channel=9, note=38, velocity=100, time=128),
    Message('note_on', channel=9, note=51, velocity=100, time=0),
    Message('note_on', channel=9, note=42, velocity=100, time=0),
    Message('note_on', channel=9, note=55, velocity=100, time=0),
    Message('note_on', channel=9, note=38, velocity=100, time=0),
    Message('note_on', channel=9, note=57, velocity=100, time=0),
    Message('note_on', channel=9, note=47, velocity=100, time=0),
    Message('note_on', channel=9, note=36, velocity=100, time=0),
    Message('note_on', channel=9, note=38, velocity=100, time=0),
    Message('note_on', channel=9, note=57, velocity=100, time=0),
    Message('note_off', channel=9, note=38, velocity=64, time=64),
    Message('note_off', channel=9, note=51, velocity=64, time=0),
    Message('note_off', channel=9, note=42, velocity=64, time=0),
    Message('note_off', channel=9, note=55, velocity=64, time=0),
    Message('note_off', channel=9, note=38, velocity=64, time=0),
    Message('note_off', channel=9, note=57, velocity=64, time=0),
    Message('note_off', channel=9, note=47, velocity=64, time=0),
    Message('note_off', channel=9, note=36, velocity=64, time=0),
    Message('note_off', channel=9, note=38, velocity=64, time=0),
    Message('note_off', channel=9, note=57, velocity=64, time=0),
    Message('note_on', channel=9, note=47, velocity=100, time=0),
    Message('note_on', channel=9, note=36, velocity=100, time=32),
    Message('note_on', channel=9, note=36, velocity=100, time=0),
    Message('note_on', channel=9, note=47, velocity=100, time=0),
    Message('note_on', channel=9, note=36, velocity=100, time=0),
    Message('note_on', channel=9, note=38, velocity=100, time=0),
    Message('note_off', channel=9, note=47, velocity=64, time=32),
    Message('note_on', channel=9, note=47, velocity=100, time=12),
    Message('note_on', channel=9, note=38, velocity=100, time=4),
    Message('note_off', channel=9, note=36, velocity=64, time=16),
    Message('note_off', channel=9, note=36, velocity=64, time=0),
    Message('note_off', channel=9, note=47, velocity=64, time=0),
    Message('note_off', channel=9, note=36, velocity=64, time=0),
    Message('note_off', channel=9, note=38, velocity=64, time=0),
    Message('note_on', channel=9, note=42, velocity=100, time=32),
    Message('note_on', channel=9, note=55, velocity=100, time=0),
    Message('note_on', channel=9, note=51, velocity=100, time=0),
    Message('note_on', channel=9, note=38, velocity=100, time=0),
    Message('note_on', channel=9, note=38, velocity=100, time=0),
    Message('note_on', channel=9, note=36, velocity=100, time=0),
    Message('note_on', channel=9, note=57, velocity=100, time=0),
    Message('note_on', channel=9, note=45, velocity=100, time=0),
    Message('note_on', channel=9, note=38, velocity=100, time=0),
    Message('note_on', channel=9, note=57, velocity=100, time=0),
    Message('note_off', channel=9, note=47, velocity=64, time=12),
    Message('note_off', channel=9, note=38, velocity=64, time=4),
    Message('note_on', channel=9, note=45, velocity=100, time=28),
    Message('note_off', channel=9, note=42, velocity=64, time=20),
    Message('note_off', channel=9, note=55, velocity=64, time=0),
    Message('note_off', channel=9, note=51, velocity=64, time=0),
    Message('note_off', channel=9, note=38, velocity=64, time=0),
    Message('note_off', channel=9, note=38, velocity=64, time=0),
    Message('note_off', channel=9, note=36, velocity=64, time=0),
    Message('note_off', channel=9, note=57, velocity=64, time=0),
    Message('note_off', channel=9, note=45, velocity=64, time=0),
    Message('note_off', channel=9, note=38, velocity=64, time=0),
    Message('note_off', channel=9, note=57, velocity=64, time=0),
    Message('note_on', channel=9, note=36, velocity=100, time=32),
    Message('note_on', channel=9, note=45, velocity=100, time=0),
    Message('note_on', channel=9, note=36, velocity=100, time=0),
    Message('note_on', channel=9, note=38, velocity=100, time=0),
    Message('note_off', channel=9, note=45, velocity=64, time=12),
    Message('note_on', channel=9, note=45, velocity=100, time=28),
    Message('note_off', channel=9, note=36, velocity=64, time=24),
    Message('note_off', channel=9, note=45, velocity=64, time=0),
    Message('note_off', channel=9, note=36, velocity=64, time=0),
    Message('note_off', channel=9, note=38, velocity=64, time=0),
    Message('note_on', channel=9, note=57, velocity=100, time=32),
    Message('note_on', channel=9, note=49, velocity=100, time=0),
    Message('note_on', channel=9, note=36, velocity=100, time=0),
    Message('note_on', channel=9, note=51, velocity=100, time=0),
    Message('note_on', channel=9, note=46, velocity=100, time=0),
    Message('note_on', channel=9, note=55, velocity=100, time=0),
    Message('note_off', channel=9, note=45, velocity=64, time=8),
    Message('note_off', channel=9, note=57, velocity=64, time=56),
    Message('note_off', channel=9, note=49, velocity=64, time=0),
    Message('note_off', channel=9, note=36, velocity=64, time=0),
    Message('note_off', channel=9, note=51, velocity=64, time=0),
    Message('note_off', channel=9, note=55, velocity=64, time=0),
    Message('note_off', channel=9, note=46, velocity=64, time=64),
    Message('note_on', channel=9, note=51, velocity=100, time=64),
    Message('note_on', channel=9, note=42, velocity=100, time=0),
    Message('note_on', channel=9, note=55, velocity=100, time=0),
    Message('note_off', channel=9, note=51, velocity=64, time=64),
    Message('note_off', channel=9, note=42, velocity=64, time=0),
    Message('note_off', channel=9, note=55, velocity=64, time=0),
    Message('note_on', channel=9, note=36, velocity=100, time=32),
    Message('note_off', channel=9, note=36, velocity=64, time=64),
    Message('note_on', channel=9, note=38, velocity=100, time=32),
    Message('note_on', channel=9, note=51, velocity=100, time=0),
    Message('note_on', channel=9, note=42, velocity=100, time=0),
    Message('note_on', channel=9, note=55, velocity=100, time=0),
    Message('note_off', channel=9, note=38, velocity=64, time=64),
    Message('note_off', channel=9, note=51, velocity=64, time=0),
    Message('note_off', channel=9, note=42, velocity=64, time=0),
    Message('note_off', channel=9, note=55, velocity=64, time=0),
    Message('note_on', channel=9, note=51, velocity=100, time=128),
    Message('note_on', channel=9, note=42, velocity=100, time=0),
    Message('note_on', channel=9, note=55, velocity=100, time=0),
    Message('note_off', channel=9, note=51, velocity=64, time=64),
    Message('note_off', channel=9, note=42, velocity=64, time=0),
    Message('note_off', channel=9, note=55, velocity=64, time=0),
    Message('note_on', channel=9, note=36, velocity=100, time=32),
    Message('note_off', channel=9, note=36, velocity=64, time=64),
    Message('note_on', channel=9, note=36, velocity=100, time=32),
    Message('note_on', channel=9, note=51, velocity=100, time=0),
    Message('note_on', channel=9, note=46, velocity=100, time=0),
    Message('note_on', channel=9, note=55, velocity=100, time=0),
    Message('note_off', channel=9, note=36, velocity=64, time=64),
    Message('note_off', channel=9, note=51, velocity=64, time=0),
    Message('note_off', channel=9, note=55, velocity=64, time=0),
    Message('note_off', channel=9, note=46, velocity=64, time=64),
    Message('note_on', channel=9, note=36, velocity=100, time=64),
    Message('note_on', channel=9, note=51, velocity=100, time=0),
    Message('note_on', channel=9, note=42, velocity=100, time=0),
    Message('note_on', channel=9, note=55, velocity=100, time=0),
    Message('note_off', channel=9, note=36, velocity=64, time=64),
    Message('note_off', channel=9, note=51, velocity=64, time=0),
    Message('note_off', channel=9, note=42, velocity=64, time=0),
    Message('note_off', channel=9, note=55, velocity=64, time=0),
    Message('note_on', channel=9, note=38, velocity=100, time=128),
    Message('note_on', channel=9, note=51, velocity=100, time=0),
    Message('note_on', channel=9, note=42, velocity=100, time=0),
    Message('note_on', channel=9, note=55, velocity=100, time=0),
    Message('note_off', channel=9, note=38, velocity=64, time=64),
    Message('note_off', channel=9, note=51, velocity=64, time=0),
    Message('note_off', channel=9, note=42, velocity=64, time=0),
    Message('note_off', channel=9, note=55, velocity=64, time=0),
    Message('note_on', channel=9, note=36, velocity=100, time=32),
    Message('note_off', channel=9, note=36, velocity=64, time=64),
    Message('note_on', channel=9, note=51, velocity=100, time=32),
    Message('note_on', channel=9, note=42, velocity=100, time=0),
    Message('note_on', channel=9, note=55, velocity=100, time=0),
    Message('note_off', channel=9, note=51, velocity=64, time=64),
    Message('note_off', channel=9, note=42, velocity=64, time=0),
    Message('note_off', channel=9, note=55, velocity=64, time=0),
    Message('note_on', channel=9, note=36, velocity=100, time=32),
    Message('note_off', channel=9, note=36, velocity=64, time=64),
    Message('note_on', channel=9, note=57, velocity=100, time=32),
    Message('note_on', channel=9, note=49, velocity=100, time=0),
    Message('note_on', channel=9, note=36, velocity=100, time=0),
    Message('note_on', channel=9, note=51, velocity=100, time=0),
    Message('note_on', channel=9, note=46, velocity=100, time=0),
    Message('note_on', channel=9, note=55, velocity=100, time=0),
    Message('note_off', channel=9, note=57, velocity=64, time=64),
    Message('note_off', channel=9, note=49, velocity=64, time=0),
    Message('note_off', channel=9, note=36, velocity=64, time=0),
    Message('note_off', channel=9, note=51, velocity=64, time=0),
    Message('note_off', channel=9, note=55, velocity=64, time=0),
    Message('note_off', channel=9, note=46, velocity=64, time=64),
    Message('note_on', channel=9, note=51, velocity=100, time=64),
    Message('note_on', channel=9, note=42, velocity=100, time=0),
    Message('note_on', channel=9, note=55, velocity=100, time=0),
    Message('note_off', channel=9, note=51, velocity=64, time=64),
    Message('note_off', channel=9, note=42, velocity=64, time=0),
    Message('note_off', channel=9, note=55, velocity=64, time=0),
    Message('note_on', channel=9, note=36, velocity=100, time=32),
    Message('note_off', channel=9, note=36, velocity=64, time=64),
    Message('note_on', channel=9, note=38, velocity=100, time=32),
    Message('note_on', channel=9, note=51, velocity=100, time=0),
    Message('note_on', channel=9, note=42, velocity=100, time=0),
    Message('note_on', channel=9, note=55, velocity=100, time=0),
    Message('note_off', channel=9, note=38, velocity=64, time=64),
    Message('note_off', channel=9, note=51, velocity=64, time=0),
    Message('note_off', channel=9, note=42, velocity=64, time=0),
    Message('note_off', channel=9, note=55, velocity=64, time=0),
    Message('note_on', channel=9, note=51, velocity=100, time=128),
    Message('note_on', channel=9, note=42, velocity=100, time=0),
    Message('note_on', channel=9, note=55, velocity=100, time=0),
    Message('note_off', channel=9, note=51, velocity=64, time=64),
    Message('note_off', channel=9, note=42, velocity=64, time=0),
    Message('note_off', channel=9, note=55, velocity=64, time=0),
    Message('note_on', channel=9, note=36, velocity=100, time=32),
    Message('note_off', channel=9, note=36, velocity=64, time=64),
    Message('note_on', channel=9, note=36, velocity=100, time=32),
    Message('note_on', channel=9, note=51, velocity=100, time=0),
    Message('note_on', channel=9, note=46, velocity=100, time=0),
    Message('note_on', channel=9, note=55, velocity=100, time=0),
    Message('note_off', channel=9, note=36, velocity=64, time=64),
    Message('note_off', channel=9, note=51, velocity=64, time=0),
    Message('note_off', channel=9, note=55, velocity=64, time=0),
    Message('note_off', channel=9, note=46, velocity=64, time=64),
    Message('note_on', channel=9, note=36, velocity=100, time=64),
    Message('note_on', channel=9, note=51, velocity=100, time=0),
    Message('note_on', channel=9, note=42, velocity=100, time=0),
    Message('note_on', channel=9, note=55, velocity=100, time=0),
    Message('note_off', channel=9, note=36, velocity=64, time=64),
    Message('note_off', channel=9, note=51, velocity=64, time=0),
    Message('note_off', channel=9, note=42, velocity=64, time=0),
    Message('note_off', channel=9, note=55, velocity=64, time=0),
    Message('note_on', channel=9, note=38, velocity=100, time=128),
    Message('note_on', channel=9, note=51, velocity=100, time=0),
    Message('note_on', channel=9, note=42, velocity=100, time=0),
    Message('note_on', channel=9, note=55, velocity=100, time=0),
    Message('note_on', channel=9, note=38, velocity=100, time=0),
    Message('note_on', channel=9, note=57, velocity=100, time=0),
    Message('note_on', channel=9, note=47, velocity=100, time=0),
    Message('note_on', channel=9, note=36, velocity=100, time=0),
    Message('note_on', channel=9, note=38, velocity=100, time=0),
    Message('note_on', channel=9, note=57, velocity=100, time=0),
    Message('note_off', channel=9, note=38, velocity=64, time=64),
    Message('note_off', channel=9, note=51, velocity=64, time=0),
    Message('note_off', channel=9, note=42, velocity=64, time=0),
    Message('note_off', channel=9, note=55, velocity=64, time=0),
    Message('note_off', channel=9, note=38, velocity=64, time=0),
    Message('note_off', channel=9, note=57, velocity=64, time=0),
    Message('note_off', channel=9, note=47, velocity=64, time=0),
    Message('note_off', channel=9, note=36, velocity=64, time=0),
    Message('note_off', channel=9, note=38, velocity=64, time=0),
    Message('note_off', channel=9, note=57, velocity=64, time=0),
    Message('note_on', channel=9, note=47, velocity=100, time=0),
    Message('note_on', channel=9, note=36, velocity=100, time=32),
    Message('note_on', channel=9, note=36, velocity=100, time=0),
    Message('note_on', channel=9, note=47, velocity=100, time=0),
    Message('note_on', channel=9, note=36, velocity=100, time=0),
    Message('note_on', channel=9, note=38, velocity=100, time=0),
    Message('note_off', channel=9, note=47, velocity=64, time=32),
    Message('note_on', channel=9, note=47, velocity=100, time=12),
    Message('note_on', channel=9, note=38, velocity=100, time=4),
    Message('note_off', channel=9, note=36, velocity=64, time=16),
    Message('note_off', channel=9, note=36, velocity=64, time=0),
    Message('note_off', channel=9, note=47, velocity=64, time=0),
    Message('note_off', channel=9, note=36, velocity=64, time=0),
    Message('note_off', channel=9, note=38, velocity=64, time=0),
    Message('note_on', channel=9, note=42, velocity=100, time=32),
    Message('note_on', channel=9, note=55, velocity=100, time=0),
    Message('note_on', channel=9, note=51, velocity=100, time=0),
    Message('note_on', channel=9, note=38, velocity=100, time=0),
    Message('note_on', channel=9, note=38, velocity=100, time=0),
    Message('note_on', channel=9, note=36, velocity=100, time=0),
    Message('note_on', channel=9, note=57, velocity=100, time=0),
    Message('note_on', channel=9, note=45, velocity=100, time=0),
    Message('note_on', channel=9, note=38, velocity=100, time=0),
    Message('note_on', channel=9, note=57, velocity=100, time=0),
    Message('note_off', channel=9, note=47, velocity=64, time=12),
    Message('note_off', channel=9, note=38, velocity=64, time=4),
    Message('note_on', channel=9, note=45, velocity=100, time=28),
    Message('note_off', channel=9, note=42, velocity=64, time=20),
    Message('note_off', channel=9, note=55, velocity=64, time=0),
    Message('note_off', channel=9, note=51, velocity=64, time=0),
    Message('note_off', channel=9, note=38, velocity=64, time=0),
    Message('note_off', channel=9, note=38, velocity=64, time=0),
    Message('note_off', channel=9, note=36, velocity=64, time=0),
    Message('note_off', channel=9, note=57, velocity=64, time=0),
    Message('note_off', channel=9, note=45, velocity=64, time=0),
    Message('note_off', channel=9, note=38, velocity=64, time=0),
    Message('note_off', channel=9, note=57, velocity=64, time=0),
    Message('note_on', channel=9, note=36, velocity=100, time=32),
    Message('note_on', channel=9, note=45, velocity=100, time=0),
    Message('note_on', channel=9, note=36, velocity=100, time=0),
    Message('note_on', channel=9, note=38, velocity=100, time=0),
    Message('note_off', channel=9, note=45, velocity=64, time=12),
    Message('note_on', channel=9, note=45, velocity=100, time=28),
    Message('note_off', channel=9, note=36, velocity=64, time=24),
    Message('note_off', channel=9, note=45, velocity=64, time=0),
    Message('note_off', channel=9, note=36, velocity=64, time=0),
    Message('note_off', channel=9, note=38, velocity=64, time=0),
    Message('note_on', channel=9, note=36, velocity=100, time=32),
    Message('note_on', channel=9, note=51, velocity=100, time=0),
    Message('note_on', channel=9, note=46, velocity=100, time=0),
    Message('note_on', channel=9, note=55, velocity=100, time=0),
    Message('note_off', channel=9, note=45, velocity=64, time=8),
    Message('note_off', channel=9, note=36, velocity=64, time=56),
    Message('note_off', channel=9, note=51, velocity=64, time=0),
    Message('note_off', channel=9, note=55, velocity=64, time=0),
    Message('note_off', channel=9, note=46, velocity=64, time=64),
    Message('note_on', channel=9, note=36, velocity=100, time=64),
    Message('note_on', channel=9, note=51, velocity=100, time=0),
    Message('note_on', channel=9, note=42, velocity=100, time=0),
    Message('note_on', channel=9, note=55, velocity=100, time=0),
    Message('note_off', channel=9, note=36, velocity=64, time=64),
    Message('note_off', channel=9, note=51, velocity=64, time=0),
    Message('note_off', channel=9, note=42, velocity=64, time=0),
    Message('note_off', channel=9, note=55, velocity=64, time=0),
    Message('note_on', channel=9, note=38, velocity=100, time=128),
    Message('note_on', channel=9, note=51, velocity=100, time=0),
    Message('note_on', channel=9, note=42, velocity=100, time=0),
    Message('note_on', channel=9, note=55, velocity=100, time=0),
    Message('note_off', channel=9, note=38, velocity=64, time=64),
    Message('note_off', channel=9, note=51, velocity=64, time=0),
    Message('note_off', channel=9, note=42, velocity=64, time=0),
    Message('note_off', channel=9, note=55, velocity=64, time=0),
    Message('note_on', channel=9, note=36, velocity=100, time=32),
    Message('note_on', channel=9, note=38, velocity=100, time=48),
    Message('note_off', channel=9, note=36, velocity=64, time=16),
    Message('note_on', channel=9, note=42, velocity=100, time=32),
    Message('note_on', channel=9, note=55, velocity=100, time=0),
    Message('note_on', channel=9, note=51, velocity=100, time=0),
    Message('note_on', channel=9, note=38, velocity=100, time=0),
    Message('note_off', channel=9, note=38, velocity=64, time=16),
    Message('note_off', channel=9, note=42, velocity=64, time=48),
    Message('note_off', channel=9, note=55, velocity=64, time=0),
    Message('note_off', channel=9, note=51, velocity=64, time=0),
    Message('note_off', channel=9, note=38, velocity=64, time=0),
    Message('note_on', channel=9, note=36, velocity=100, time=32),
    Message('note_off', channel=9, note=36, velocity=64, time=64),
    Message('note_on', channel=9, note=36, velocity=100, time=32),
    Message('note_on', channel=9, note=51, velocity=100, time=0),
    Message('note_on', channel=9, note=46, velocity=100, time=0),
    Message('note_on', channel=9, note=55, velocity=100, time=0),
    Message('note_off', channel=9, note=36, velocity=64, time=64),
    Message('note_off', channel=9, note=51, velocity=64, time=0),
    Message('note_off', channel=9, note=55, velocity=64, time=0),
    Message('note_off', channel=9, note=46, velocity=64, time=64),
    Message('note_on', channel=9, note=36, velocity=100, time=64),
    Message('note_on', channel=9, note=51, velocity=100, time=0),
    Message('note_on', channel=9, note=42, velocity=100, time=0),
    Message('note_on', channel=9, note=55, velocity=100, time=0),
    Message('note_off', channel=9, note=36, velocity=64, time=64),
    Message('note_off', channel=9, note=51, velocity=64, time=0),
    Message('note_off', channel=9, note=42, velocity=64, time=0),
    Message('note_off', channel=9, note=55, velocity=64, time=0),
    Message('note_on', channel=9, note=38, velocity=100, time=128),
    Message('note_on', channel=9, note=51, velocity=100, time=0),
    Message('note_on', channel=9, note=42, velocity=100, time=0),
    Message('note_on', channel=9, note=55, velocity=100, time=0),
    Message('note_on', channel=9, note=38, velocity=100, time=0),
    Message('note_on', channel=9, note=57, velocity=100, time=0),
    Message('note_on', channel=9, note=47, velocity=100, time=0),
    Message('note_on', channel=9, note=36, velocity=100, time=0),
    Message('note_on', channel=9, note=38, velocity=100, time=0),
    Message('note_on', channel=9, note=57, velocity=100, time=0),
    Message('note_on', channel=9, note=38, velocity=100, time=48),
    Message('note_off', channel=9, note=38, velocity=64, time=16),
    Message('note_off', channel=9, note=51, velocity=64, time=0),
    Message('note_off', channel=9, note=42, velocity=64, time=0),
    Message('note_off', channel=9, note=55, velocity=64, time=0),
    Message('note_off', channel=9, note=38, velocity=64, time=0),
    Message('note_off', channel=9, note=57, velocity=64, time=0),
    Message('note_off', channel=9, note=47, velocity=64, time=0),
    Message('note_off', channel=9, note=36, velocity=64, time=0),
    Message('note_off', channel=9, note=38, velocity=64, time=0),
    Message('note_off', channel=9, note=57, velocity=64, time=0),
    Message('note_on', channel=9, note=47, velocity=100, time=0),
    Message('note_on', channel=9, note=36, velocity=100, time=32),
    Message('note_on', channel=9, note=38, velocity=100, time=0),
    Message('note_on', channel=9, note=36, velocity=100, time=0),
    Message('note_on', channel=9, note=47, velocity=100, time=0),
    Message('note_on', channel=9, note=36, velocity=100, time=0),
    Message('note_on', channel=9, note=38, velocity=100, time=0),
    Message('note_off', channel=9, note=38, velocity=64, time=16),
    Message('note_off', channel=9, note=47, velocity=64, time=16),
    Message('note_on', channel=9, note=47, velocity=100, time=12),
    Message('note_on', channel=9, note=38, velocity=100, time=4),
    Message('note_off', channel=9, note=36, velocity=64, time=16),
    Message('note_off', channel=9, note=38, velocity=64, time=0),
    Message('note_off', channel=9, note=36, velocity=64, time=0),
    Message('note_off', channel=9, note=47, velocity=64, time=0),
    Message('note_off', channel=9, note=36, velocity=64, time=0),
    Message('note_off', channel=9, note=38, velocity=64, time=0),
    Message('note_on', channel=9, note=42, velocity=100, time=32),
    Message('note_on', channel=9, note=55, velocity=100, time=0),
    Message('note_on', channel=9, note=51, velocity=100, time=0),
    Message('note_on', channel=9, note=38, velocity=100, time=0),
    Message('note_on', channel=9, note=38, velocity=100, time=0),
    Message('note_on', channel=9, note=36, velocity=100, time=0),
    Message('note_on', channel=9, note=57, velocity=100, time=0),
    Message('note_on', channel=9, note=45, velocity=100, time=0),
    Message('note_on', channel=9, note=38, velocity=100, time=0),
    Message('note_on', channel=9, note=57, velocity=100, time=0),
    Message('note_off', channel=9, note=47, velocity=64, time=12),
    Message('note_off', channel=9, note=38, velocity=64, time=4),
    Message('note_on', channel=9, note=45, velocity=100, time=28),
    Message('note_off', channel=9, note=42, velocity=64, time=20),
    Message('note_off', channel=9, note=55, velocity=64, time=0),
    Message('note_off', channel=9, note=51, velocity=64, time=0),
    Message('note_off', channel=9, note=38, velocity=64, time=0),
    Message('note_off', channel=9, note=38, velocity=64, time=0),
    Message('note_off', channel=9, note=36, velocity=64, time=0),
    Message('note_off', channel=9, note=57, velocity=64, time=0),
    Message('note_off', channel=9, note=45, velocity=64, time=0),
    Message('note_off', channel=9, note=38, velocity=64, time=0),
    Message('note_off', channel=9, note=57, velocity=64, time=0),
    Message('note_on', channel=9, note=36, velocity=100, time=32),
    Message('note_on', channel=9, note=45, velocity=100, time=0),
    Message('note_on', channel=9, note=36, velocity=100, time=0),
    Message('note_on', channel=9, note=38, velocity=100, time=0),
    Message('note_off', channel=9, note=45, velocity=64, time=12),
    Message('note_on', channel=9, note=45, velocity=100, time=28),
    Message('note_off', channel=9, note=36, velocity=64, time=24),
    Message('note_off', channel=9, note=45, velocity=64, time=0),
    Message('note_off', channel=9, note=36, velocity=64, time=0),
    Message('note_off', channel=9, note=38, velocity=64, time=0),
    Message('note_on', channel=9, note=57, velocity=100, time=32),
    Message('note_on', channel=9, note=49, velocity=100, time=0),
    Message('note_on', channel=9, note=36, velocity=100, time=0),
    Message('note_on', channel=9, note=51, velocity=100, time=0),
    Message('note_on', channel=9, note=46, velocity=100, time=0),
    Message('note_on', channel=9, note=55, velocity=100, time=0),
    Message('note_off', channel=9, note=45, velocity=64, time=8),
    Message('note_off', channel=9, note=57, velocity=64, time=56),
    Message('note_off', channel=9, note=49, velocity=64, time=0),
    Message('note_off', channel=9, note=36, velocity=64, time=0),
    Message('note_off', channel=9, note=51, velocity=64, time=0),
    Message('note_off', channel=9, note=55, velocity=64, time=0),
    Message('note_off', channel=9, note=46, velocity=64, time=64),
    Message('note_on', channel=9, note=51, velocity=100, time=64),
    Message('note_on', channel=9, note=42, velocity=100, time=0),
    Message('note_on', channel=9, note=55, velocity=100, time=0),
    Message('note_off', channel=9, note=51, velocity=64, time=64),
    Message('note_off', channel=9, note=42, velocity=64, time=0),
    Message('note_off', channel=9, note=55, velocity=64, time=0),
    Message('note_on', channel=9, note=36, velocity=100, time=32),
    Message('note_off', channel=9, note=36, velocity=64, time=64),
    Message('note_on', channel=9, note=38, velocity=100, time=32),
    Message('note_on', channel=9, note=51, velocity=100, time=0),
    Message('note_on', channel=9, note=42, velocity=100, time=0),
    Message('note_on', channel=9, note=55, velocity=100, time=0),
    Message('note_off', channel=9, note=38, velocity=64, time=64),
    Message('note_off', channel=9, note=51, velocity=64, time=0),
    Message('note_off', channel=9, note=42, velocity=64, time=0),
    Message('note_off', channel=9, note=55, velocity=64, time=0),
    Message('note_on', channel=9, note=51, velocity=100, time=128),
    Message('note_on', channel=9, note=42, velocity=100, time=0),
    Message('note_on', channel=9, note=55, velocity=100, time=0),
    Message('note_off', channel=9, note=51, velocity=64, time=64),
    Message('note_off', channel=9, note=42, velocity=64, time=0),
    Message('note_off', channel=9, note=55, velocity=64, time=0),
    Message('note_on', channel=9, note=36, velocity=100, time=32),
    Message('note_off', channel=9, note=36, velocity=64, time=64),
    Message('note_on', channel=9, note=36, velocity=100, time=32),
    Message('note_on', channel=9, note=51, velocity=100, time=0),
    Message('note_on', channel=9, note=46, velocity=100, time=0),
    Message('note_on', channel=9, note=55, velocity=100, time=0),
    Message('note_off', channel=9, note=36, velocity=64, time=64),
    Message('note_off', channel=9, note=51, velocity=64, time=0),
    Message('note_off', channel=9, note=55, velocity=64, time=0),
    Message('note_off', channel=9, note=46, velocity=64, time=64),
    Message('note_on', channel=9, note=36, velocity=100, time=64),
    Message('note_on', channel=9, note=51, velocity=100, time=0),
    Message('note_on', channel=9, note=42, velocity=100, time=0),
    Message('note_on', channel=9, note=55, velocity=100, time=0),
    Message('note_off', channel=9, note=36, velocity=64, time=64),
    Message('note_off', channel=9, note=51, velocity=64, time=0),
    Message('note_off', channel=9, note=42, velocity=64, time=0),
    Message('note_off', channel=9, note=55, velocity=64, time=0),
    Message('note_on', channel=9, note=38, velocity=100, time=128),
    Message('note_on', channel=9, note=51, velocity=100, time=0),
    Message('note_on', channel=9, note=42, velocity=100, time=0),
    Message('note_on', channel=9, note=55, velocity=100, time=0),
    Message('note_off', channel=9, note=38, velocity=64, time=64),
    Message('note_off', channel=9, note=51, velocity=64, time=0),
    Message('note_off', channel=9, note=42, velocity=64, time=0),
    Message('note_off', channel=9, note=55, velocity=64, time=0),
    Message('note_on', channel=9, note=36, velocity=100, time=32),
    Message('note_off', channel=9, note=36, velocity=64, time=64),
    Message('note_on', channel=9, note=51, velocity=100, time=32),
    Message('note_on', channel=9, note=42, velocity=100, time=0),
    Message('note_on', channel=9, note=55, velocity=100, time=0),
    Message('note_off', channel=9, note=51, velocity=64, time=64),
    Message('note_off', channel=9, note=42, velocity=64, time=0),
    Message('note_off', channel=9, note=55, velocity=64, time=0),
    Message('note_on', channel=9, note=36, velocity=100, time=32),
    Message('note_off', channel=9, note=36, velocity=64, time=64),
    Message('note_on', channel=9, note=57, velocity=100, time=32),
    Message('note_on', channel=9, note=49, velocity=100, time=0),
    Message('note_on', channel=9, note=36, velocity=100, time=0),
    Message('note_on', channel=9, note=51, velocity=100, time=0),
    Message('note_on', channel=9, note=46, velocity=100, time=0),
    Message('note_on', channel=9, note=55, velocity=100, time=0),
    Message('note_off', channel=9, note=57, velocity=64, time=64),
    Message('note_off', channel=9, note=49, velocity=64, time=0),
    Message('note_off', channel=9, note=36, velocity=64, time=0),
    Message('note_off', channel=9, note=51, velocity=64, time=0),
    Message('note_off', channel=9, note=55, velocity=64, time=0),
    Message('note_off', channel=9, note=46, velocity=64, time=64),
    Message('note_on', channel=9, note=51, velocity=100, time=64),
    Message('note_on', channel=9, note=42, velocity=100, time=0),
    Message('note_on', channel=9, note=55, velocity=100, time=0),
    Message('note_off', channel=9, note=51, velocity=64, time=64),
    Message('note_off', channel=9, note=42, velocity=64, time=0),
    Message('note_off', channel=9, note=55, velocity=64, time=0),
    Message('note_on', channel=9, note=36, velocity=100, time=32),
    Message('note_off', channel=9, note=36, velocity=64, time=64),
    Message('note_on', channel=9, note=38, velocity=100, time=32),
    Message('note_on', channel=9, note=51, velocity=100, time=0),
    Message('note_on', channel=9, note=42, velocity=100, time=0),
    Message('note_on', channel=9, note=55, velocity=100, time=0),
    Message('note_off', channel=9, note=38, velocity=64, time=64),
    Message('note_off', channel=9, note=51, velocity=64, time=0),
    Message('note_off', channel=9, note=42, velocity=64, time=0),
    Message('note_off', channel=9, note=55, velocity=64, time=0),
    Message('note_on', channel=9, note=51, velocity=100, time=128),
    Message('note_on', channel=9, note=42, velocity=100, time=0),
    Message('note_on', channel=9, note=55, velocity=100, time=0),
    Message('note_off', channel=9, note=51, velocity=64, time=64),
    Message('note_off', channel=9, note=42, velocity=64, time=0),
    Message('note_off', channel=9, note=55, velocity=64, time=0),
    Message('note_on', channel=9, note=36, velocity=100, time=32),
    Message('note_off', channel=9, note=36, velocity=64, time=64),
    Message('note_on', channel=9, note=36, velocity=100, time=32),
    Message('note_on', channel=9, note=51, velocity=100, time=0),
    Message('note_on', channel=9, note=46, velocity=100, time=0),
    Message('note_on', channel=9, note=55, velocity=100, time=0),
    Message('note_off', channel=9, note=36, velocity=64, time=64),
    Message('note_off', channel=9, note=51, velocity=64, time=0),
    Message('note_off', channel=9, note=55, velocity=64, time=0),
    Message('note_off', channel=9, note=46, velocity=64, time=64),
    Message('note_on', channel=9, note=36, velocity=100, time=64),
    Message('note_on', channel=9, note=51, velocity=100, time=0),
    Message('note_on', channel=9, note=42, velocity=100, time=0),
    Message('note_on', channel=9, note=55, velocity=100, time=0),
    Message('note_off', channel=9, note=36, velocity=64, time=64),
    Message('note_off', channel=9, note=51, velocity=64, time=0),
    Message('note_off', channel=9, note=42, velocity=64, time=0),
    Message('note_off', channel=9, note=55, velocity=64, time=0),
    Message('note_on', channel=9, note=38, velocity=100, time=128),
    Message('note_on', channel=9, note=51, velocity=100, time=0),
    Message('note_on', channel=9, note=42, velocity=100, time=0),
    Message('note_on', channel=9, note=55, velocity=100, time=0),
    Message('note_on', channel=9, note=38, velocity=100, time=0),
    Message('note_on', channel=9, note=57, velocity=100, time=0),
    Message('note_on', channel=9, note=47, velocity=100, time=0),
    Message('note_on', channel=9, note=36, velocity=100, time=0),
    Message('note_on', channel=9, note=38, velocity=100, time=0),
    Message('note_on', channel=9, note=57, velocity=100, time=0),
    Message('note_off', channel=9, note=38, velocity=64, time=64),
    Message('note_off', channel=9, note=51, velocity=64, time=0),
    Message('note_off', channel=9, note=42, velocity=64, time=0),
    Message('note_off', channel=9, note=55, velocity=64, time=0),
    Message('note_off', channel=9, note=38, velocity=64, time=0),
    Message('note_off', channel=9, note=57, velocity=64, time=0),
    Message('note_off', channel=9, note=47, velocity=64, time=0),
    Message('note_off', channel=9, note=36, velocity=64, time=0),
    Message('note_off', channel=9, note=38, velocity=64, time=0),
    Message('note_off', channel=9, note=57, velocity=64, time=0),
    Message('note_on', channel=9, note=47, velocity=100, time=0),
    Message('note_on', channel=9, note=36, velocity=100, time=32),
    Message('note_on', channel=9, note=36, velocity=100, time=0),
    Message('note_on', channel=9, note=47, velocity=100, time=0),
    Message('note_on', channel=9, note=36, velocity=100, time=0),
    Message('note_on', channel=9, note=38, velocity=100, time=0),
    Message('note_off', channel=9, note=47, velocity=64, time=32),
    Message('note_on', channel=9, note=47, velocity=100, time=12),
    Message('note_on', channel=9, note=38, velocity=100, time=4),
    Message('note_off', channel=9, note=36, velocity=64, time=16),
    Message('note_off', channel=9, note=36, velocity=64, time=0),
    Message('note_off', channel=9, note=47, velocity=64, time=0),
    Message('note_off', channel=9, note=36, velocity=64, time=0),
    Message('note_off', channel=9, note=38, velocity=64, time=0),
    Message('note_on', channel=9, note=42, velocity=100, time=32),
    Message('note_on', channel=9, note=55, velocity=100, time=0),
    Message('note_on', channel=9, note=51, velocity=100, time=0),
    Message('note_on', channel=9, note=38, velocity=100, time=0),
    Message('note_on', channel=9, note=38, velocity=100, time=0),
    Message('note_on', channel=9, note=36, velocity=100, time=0),
    Message('note_on', channel=9, note=57, velocity=100, time=0),
    Message('note_on', channel=9, note=45, velocity=100, time=0),
    Message('note_on', channel=9, note=38, velocity=100, time=0),
    Message('note_on', channel=9, note=57, velocity=100, time=0),
    Message('note_off', channel=9, note=47, velocity=64, time=12),
    Message('note_off', channel=9, note=38, velocity=64, time=4),
    Message('note_on', channel=9, note=45, velocity=100, time=28),
    Message('note_off', channel=9, note=42, velocity=64, time=20),
    Message('note_off', channel=9, note=55, velocity=64, time=0),
    Message('note_off', channel=9, note=51, velocity=64, time=0),
    Message('note_off', channel=9, note=38, velocity=64, time=0),
    Message('note_off', channel=9, note=38, velocity=64, time=0),
    Message('note_off', channel=9, note=36, velocity=64, time=0),
    Message('note_off', channel=9, note=57, velocity=64, time=0),
    Message('note_off', channel=9, note=45, velocity=64, time=0),
    Message('note_off', channel=9, note=38, velocity=64, time=0),
    Message('note_off', channel=9, note=57, velocity=64, time=0),
    Message('note_on', channel=9, note=36, velocity=100, time=32),
    Message('note_on', channel=9, note=45, velocity=100, time=0),
    Message('note_on', channel=9, note=36, velocity=100, time=0),
    Message('note_on', channel=9, note=38, velocity=100, time=0),
    Message('note_off', channel=9, note=45, velocity=64, time=12),
    Message('note_on', channel=9, note=45, velocity=100, time=28),
    Message('note_off', channel=9, note=36, velocity=64, time=24),
    Message('note_off', channel=9, note=45, velocity=64, time=0),
    Message('note_off', channel=9, note=36, velocity=64, time=0),
    Message('note_off', channel=9, note=38, velocity=64, time=0),
    Message('note_on', channel=9, note=57, velocity=100, time=32),
    Message('note_on', channel=9, note=49, velocity=100, time=0),
    Message('note_on', channel=9, note=36, velocity=100, time=0),
    Message('note_on', channel=9, note=51, velocity=100, time=0),
    Message('note_on', channel=9, note=46, velocity=100, time=0),
    Message('note_on', channel=9, note=55, velocity=100, time=0),
    Message('note_off', channel=9, note=45, velocity=64, time=8),
    Message('note_off', channel=9, note=57, velocity=64, time=56),
    Message('note_off', channel=9, note=49, velocity=64, time=0),
    Message('note_off', channel=9, note=36, velocity=64, time=0),
    Message('note_off', channel=9, note=51, velocity=64, time=0),
    Message('note_off', channel=9, note=55, velocity=64, time=0),
    Message('note_off', channel=9, note=46, velocity=64, time=64),
    Message('note_on', channel=9, note=51, velocity=100, time=64),
    Message('note_on', channel=9, note=42, velocity=100, time=0),
    Message('note_on', channel=9, note=55, velocity=100, time=0),
    Message('note_off', channel=9, note=51, velocity=64, time=64),
    Message('note_off', channel=9, note=42, velocity=64, time=0),
    Message('note_off', channel=9, note=55, velocity=64, time=0),
    Message('note_on', channel=9, note=36, velocity=100, time=32),
    Message('note_off', channel=9, note=36, velocity=64, time=64),
    Message('note_on', channel=9, note=38, velocity=100, time=32),
    Message('note_on', channel=9, note=51, velocity=100, time=0),
    Message('note_on', channel=9, note=42, velocity=100, time=0),
    Message('note_on', channel=9, note=55, velocity=100, time=0),
    Message('note_off', channel=9, note=38, velocity=64, time=64),
    Message('note_off', channel=9, note=51, velocity=64, time=0),
    Message('note_off', channel=9, note=42, velocity=64, time=0),
    Message('note_off', channel=9, note=55, velocity=64, time=0),
    Message('note_on', channel=9, note=51, velocity=100, time=128),
    Message('note_on', channel=9, note=42, velocity=100, time=0),
    Message('note_on', channel=9, note=55, velocity=100, time=0),
    Message('note_off', channel=9, note=51, velocity=64, time=64),
    Message('note_off', channel=9, note=42, velocity=64, time=0),
    Message('note_off', channel=9, note=55, velocity=64, time=0),
    Message('note_on', channel=9, note=36, velocity=100, time=32),
    Message('note_off', channel=9, note=36, velocity=64, time=64),
    Message('note_on', channel=9, note=36, velocity=100, time=32),
    Message('note_on', channel=9, note=51, velocity=100, time=0),
    Message('note_on', channel=9, note=46, velocity=100, time=0),
    Message('note_on', channel=9, note=55, velocity=100, time=0),
    Message('note_off', channel=9, note=36, velocity=64, time=64),
    Message('note_off', channel=9, note=51, velocity=64, time=0),
    Message('note_off', channel=9, note=55, velocity=64, time=0),
    Message('note_off', channel=9, note=46, velocity=64, time=64),
    Message('note_on', channel=9, note=36, velocity=100, time=64),
    Message('note_on', channel=9, note=51, velocity=100, time=0),
    Message('note_on', channel=9, note=42, velocity=100, time=0),
    Message('note_on', channel=9, note=55, velocity=100, time=0),
    Message('note_off', channel=9, note=36, velocity=64, time=64),
    Message('note_off', channel=9, note=51, velocity=64, time=0),
    Message('note_off', channel=9, note=42, velocity=64, time=0),
    Message('note_off', channel=9, note=55, velocity=64, time=0),
    Message('note_on', channel=9, note=38, velocity=100, time=128),
    Message('note_on', channel=9, note=51, velocity=100, time=0),
    Message('note_on', channel=9, note=42, velocity=100, time=0),
    Message('note_on', channel=9, note=55, velocity=100, time=0),
    Message('note_off', channel=9, note=38, velocity=64, time=64),
    Message('note_off', channel=9, note=51, velocity=64, time=0),
    Message('note_off', channel=9, note=42, velocity=64, time=0),
    Message('note_off', channel=9, note=55, velocity=64, time=0),
    Message('note_on', channel=9, note=36, velocity=100, time=32),
    Message('note_off', channel=9, note=36, velocity=64, time=64),
    Message('note_on', channel=9, note=51, velocity=100, time=32),
    Message('note_on', channel=9, note=42, velocity=100, time=0),
    Message('note_on', channel=9, note=55, velocity=100, time=0),
    Message('note_off', channel=9, note=51, velocity=64, time=64),
    Message('note_off', channel=9, note=42, velocity=64, time=0),
    Message('note_off', channel=9, note=55, velocity=64, time=0),
    Message('note_on', channel=9, note=36, velocity=100, time=32),
    Message('note_off', channel=9, note=36, velocity=64, time=64),
    Message('note_on', channel=9, note=57, velocity=100, time=32),
    Message('note_on', channel=9, note=49, velocity=100, time=0),
    Message('note_on', channel=9, note=36, velocity=100, time=0),
    Message('note_on', channel=9, note=51, velocity=100, time=0),
    Message('note_on', channel=9, note=46, velocity=100, time=0),
    Message('note_on', channel=9, note=55, velocity=100, time=0),
    Message('note_off', channel=9, note=57, velocity=64, time=64),
    Message('note_off', channel=9, note=49, velocity=64, time=0),
    Message('note_off', channel=9, note=36, velocity=64, time=0),
    Message('note_off', channel=9, note=51, velocity=64, time=0),
    Message('note_off', channel=9, note=55, velocity=64, time=0),
    Message('note_off', channel=9, note=46, velocity=64, time=64),
    Message('note_on', channel=9, note=51, velocity=100, time=64),
    Message('note_on', channel=9, note=42, velocity=100, time=0),
    Message('note_on', channel=9, note=55, velocity=100, time=0),
    Message('note_off', channel=9, note=51, velocity=64, time=64),
    Message('note_off', channel=9, note=42, velocity=64, time=0),
    Message('note_off', channel=9, note=55, velocity=64, time=0),
    Message('note_on', channel=9, note=36, velocity=100, time=32),
    Message('note_off', channel=9, note=36, velocity=64, time=64),
    Message('note_on', channel=9, note=38, velocity=100, time=32),
    Message('note_on', channel=9, note=51, velocity=100, time=0),
    Message('note_on', channel=9, note=42, velocity=100, time=0),
    Message('note_on', channel=9, note=55, velocity=100, time=0),
    Message('note_off', channel=9, note=38, velocity=64, time=64),
    Message('note_off', channel=9, note=51, velocity=64, time=0),
    Message('note_off', channel=9, note=42, velocity=64, time=0),
    Message('note_off', channel=9, note=55, velocity=64, time=0),
    Message('note_on', channel=9, note=51, velocity=100, time=128),
    Message('note_on', channel=9, note=42, velocity=100, time=0),
    Message('note_on', channel=9, note=55, velocity=100, time=0),
    Message('note_off', channel=9, note=51, velocity=64, time=64),
    Message('note_off', channel=9, note=42, velocity=64, time=0),
    Message('note_off', channel=9, note=55, velocity=64, time=0),
    Message('note_on', channel=9, note=36, velocity=100, time=32),
    Message('note_off', channel=9, note=36, velocity=64, time=64),
    Message('note_on', channel=9, note=36, velocity=100, time=32),
    Message('note_on', channel=9, note=51, velocity=100, time=0),
    Message('note_on', channel=9, note=46, velocity=100, time=0),
    Message('note_on', channel=9, note=55, velocity=100, time=0),
    Message('note_off', channel=9, note=36, velocity=64, time=64),
    Message('note_off', channel=9, note=51, velocity=64, time=0),
    Message('note_off', channel=9, note=55, velocity=64, time=0),
    Message('note_off', channel=9, note=46, velocity=64, time=64),
    Message('note_on', channel=9, note=36, velocity=100, time=64),
    Message('note_on', channel=9, note=51, velocity=100, time=0),
    Message('note_on', channel=9, note=42, velocity=100, time=0),
    Message('note_on', channel=9, note=55, velocity=100, time=0),
    Message('note_off', channel=9, note=36, velocity=64, time=64),
    Message('note_off', channel=9, note=51, velocity=64, time=0),
    Message('note_off', channel=9, note=42, velocity=64, time=0),
    Message('note_off', channel=9, note=55, velocity=64, time=0),
    Message('note_on', channel=9, note=38, velocity=100, time=128),
    Message('note_on', channel=9, note=51, velocity=100, time=0),
    Message('note_on', channel=9, note=42, velocity=100, time=0),
    Message('note_on', channel=9, note=55, velocity=100, time=0),
    Message('note_on', channel=9, note=38, velocity=100, time=0),
    Message('note_on', channel=9, note=57, velocity=100, time=0),
    Message('note_on', channel=9, note=47, velocity=100, time=0),
    Message('note_on', channel=9, note=36, velocity=100, time=0),
    Message('note_on', channel=9, note=38, velocity=100, time=0),
    Message('note_on', channel=9, note=57, velocity=100, time=0),
    Message('note_off', channel=9, note=38, velocity=64, time=64),
    Message('note_off', channel=9, note=51, velocity=64, time=0),
    Message('note_off', channel=9, note=42, velocity=64, time=0),
    Message('note_off', channel=9, note=55, velocity=64, time=0),
    Message('note_off', channel=9, note=38, velocity=64, time=0),
    Message('note_off', channel=9, note=57, velocity=64, time=0),
    Message('note_off', channel=9, note=47, velocity=64, time=0),
    Message('note_off', channel=9, note=36, velocity=64, time=0),
    Message('note_off', channel=9, note=38, velocity=64, time=0),
    Message('note_off', channel=9, note=57, velocity=64, time=0),
    Message('note_on', channel=9, note=47, velocity=100, time=0),
    Message('note_on', channel=9, note=36, velocity=100, time=32),
    Message('note_on', channel=9, note=36, velocity=100, time=0),
    Message('note_on', channel=9, note=47, velocity=100, time=0),
    Message('note_on', channel=9, note=36, velocity=100, time=0),
    Message('note_on', channel=9, note=38, velocity=100, time=0),
    Message('note_off', channel=9, note=47, velocity=64, time=32),
    Message('note_on', channel=9, note=47, velocity=100, time=12),
    Message('note_on', channel=9, note=38, velocity=100, time=4),
    Message('note_off', channel=9, note=36, velocity=64, time=16),
    Message('note_off', channel=9, note=36, velocity=64, time=0),
    Message('note_off', channel=9, note=47, velocity=64, time=0),
    Message('note_off', channel=9, note=36, velocity=64, time=0),
    Message('note_off', channel=9, note=38, velocity=64, time=0),
    Message('note_on', channel=9, note=42, velocity=100, time=32),
    Message('note_on', channel=9, note=55, velocity=100, time=0),
    Message('note_on', channel=9, note=51, velocity=100, time=0),
    Message('note_on', channel=9, note=38, velocity=100, time=0),
    Message('note_on', channel=9, note=38, velocity=100, time=0),
    Message('note_on', channel=9, note=36, velocity=100, time=0),
    Message('note_on', channel=9, note=57, velocity=100, time=0),
    Message('note_on', channel=9, note=45, velocity=100, time=0),
    Message('note_on', channel=9, note=38, velocity=100, time=0),
    Message('note_on', channel=9, note=57, velocity=100, time=0),
    Message('note_off', channel=9, note=47, velocity=64, time=12),
    Message('note_off', channel=9, note=38, velocity=64, time=4),
    Message('note_on', channel=9, note=45, velocity=100, time=28),
    Message('note_off', channel=9, note=42, velocity=64, time=20),
    Message('note_off', channel=9, note=55, velocity=64, time=0),
    Message('note_off', channel=9, note=51, velocity=64, time=0),
    Message('note_off', channel=9, note=38, velocity=64, time=0),
    Message('note_off', channel=9, note=38, velocity=64, time=0),
    Message('note_off', channel=9, note=36, velocity=64, time=0),
    Message('note_off', channel=9, note=57, velocity=64, time=0),
    Message('note_off', channel=9, note=45, velocity=64, time=0),
    Message('note_off', channel=9, note=38, velocity=64, time=0),
    Message('note_off', channel=9, note=57, velocity=64, time=0),
    Message('note_on', channel=9, note=36, velocity=100, time=32),
    Message('note_on', channel=9, note=45, velocity=100, time=0),
    Message('note_on', channel=9, note=36, velocity=100, time=0),
    Message('note_on', channel=9, note=38, velocity=100, time=0),
    Message('note_off', channel=9, note=45, velocity=64, time=12),
    Message('note_on', channel=9, note=45, velocity=100, time=28),
    Message('note_off', channel=9, note=36, velocity=64, time=24),
    Message('note_off', channel=9, note=45, velocity=64, time=0),
    Message('note_off', channel=9, note=36, velocity=64, time=0),
    Message('note_off', channel=9, note=38, velocity=64, time=0),
    Message('note_on', channel=9, note=57, velocity=100, time=32),
    Message('note_on', channel=9, note=49, velocity=100, time=0),
    Message('note_on', channel=9, note=36, velocity=100, time=0),
    Message('note_on', channel=9, note=51, velocity=100, time=0),
    Message('note_on', channel=9, note=46, velocity=100, time=0),
    Message('note_on', channel=9, note=55, velocity=100, time=0),
    Message('note_off', channel=9, note=45, velocity=64, time=8),
    Message('note_off', channel=9, note=57, velocity=64, time=56),
    Message('note_off', channel=9, note=49, velocity=64, time=0),
    Message('note_off', channel=9, note=36, velocity=64, time=0),
    Message('note_off', channel=9, note=51, velocity=64, time=0),
    Message('note_off', channel=9, note=55, velocity=64, time=0),
    Message('note_off', channel=9, note=46, velocity=64, time=64),
    Message('note_on', channel=9, note=51, velocity=100, time=64),
    Message('note_on', channel=9, note=42, velocity=100, time=0),
    Message('note_on', channel=9, note=55, velocity=100, time=0),
    Message('note_off', channel=9, note=51, velocity=64, time=64),
    Message('note_off', channel=9, note=42, velocity=64, time=0),
    Message('note_off', channel=9, note=55, velocity=64, time=0),
    Message('note_on', channel=9, note=36, velocity=100, time=32),
    Message('note_off', channel=9, note=36, velocity=64, time=64),
    Message('note_on', channel=9, note=38, velocity=100, time=32),
    Message('note_on', channel=9, note=51, velocity=100, time=0),
    Message('note_on', channel=9, note=42, velocity=100, time=0),
    Message('note_on', channel=9, note=55, velocity=100, time=0),
    Message('note_off', channel=9, note=38, velocity=64, time=64),
    Message('note_off', channel=9, note=51, velocity=64, time=0),
    Message('note_off', channel=9, note=42, velocity=64, time=0),
    Message('note_off', channel=9, note=55, velocity=64, time=0),
    Message('note_on', channel=9, note=51, velocity=100, time=128),
    Message('note_on', channel=9, note=42, velocity=100, time=0),
    Message('note_on', channel=9, note=55, velocity=100, time=0),
    Message('note_off', channel=9, note=51, velocity=64, time=64),
    Message('note_off', channel=9, note=42, velocity=64, time=0),
    Message('note_off', channel=9, note=55, velocity=64, time=0),
    Message('note_on', channel=9, note=36, velocity=100, time=32),
    Message('note_off', channel=9, note=36, velocity=64, time=64),
    Message('note_on', channel=9, note=36, velocity=100, time=32),
    Message('note_on', channel=9, note=51, velocity=100, time=0),
    Message('note_on', channel=9, note=46, velocity=100, time=0),
    Message('note_on', channel=9, note=55, velocity=100, time=0),
    Message('note_off', channel=9, note=36, velocity=64, time=64),
    Message('note_off', channel=9, note=51, velocity=64, time=0),
    Message('note_off', channel=9, note=55, velocity=64, time=0),
    Message('note_off', channel=9, note=46, velocity=64, time=64),
    Message('note_on', channel=9, note=36, velocity=100, time=64),
    Message('note_on', channel=9, note=51, velocity=100, time=0),
    Message('note_on', channel=9, note=42, velocity=100, time=0),
    Message('note_on', channel=9, note=55, velocity=100, time=0),
    Message('note_off', channel=9, note=36, velocity=64, time=64),
    Message('note_off', channel=9, note=51, velocity=64, time=0),
    Message('note_off', channel=9, note=42, velocity=64, time=0),
    Message('note_off', channel=9, note=55, velocity=64, time=0),
    Message('note_on', channel=9, note=38, velocity=100, time=128),
    Message('note_on', channel=9, note=51, velocity=100, time=0),
    Message('note_on', channel=9, note=42, velocity=100, time=0),
    Message('note_on', channel=9, note=55, velocity=100, time=0),
    Message('note_off', channel=9, note=38, velocity=64, time=64),
    Message('note_off', channel=9, note=51, velocity=64, time=0),
    Message('note_off', channel=9, note=42, velocity=64, time=0),
    Message('note_off', channel=9, note=55, velocity=64, time=0),
    Message('note_on', channel=9, note=36, velocity=100, time=32),
    Message('note_off', channel=9, note=36, velocity=64, time=64),
    Message('note_on', channel=9, note=51, velocity=100, time=32),
    Message('note_on', channel=9, note=42, velocity=100, time=0),
    Message('note_on', channel=9, note=55, velocity=100, time=0),
    Message('note_off', channel=9, note=51, velocity=64, time=64),
    Message('note_off', channel=9, note=42, velocity=64, time=0),
    Message('note_off', channel=9, note=55, velocity=64, time=0),
    Message('note_on', channel=9, note=36, velocity=100, time=32),
    Message('note_off', channel=9, note=36, velocity=64, time=64),
    Message('note_on', channel=9, note=57, velocity=100, time=32),
    Message('note_on', channel=9, note=49, velocity=100, time=0),
    Message('note_on', channel=9, note=36, velocity=100, time=0),
    Message('note_on', channel=9, note=51, velocity=100, time=0),
    Message('note_on', channel=9, note=46, velocity=100, time=0),
    Message('note_on', channel=9, note=55, velocity=100, time=0),
    Message('note_off', channel=9, note=57, velocity=64, time=64),
    Message('note_off', channel=9, note=49, velocity=64, time=0),
    Message('note_off', channel=9, note=36, velocity=64, time=0),
    Message('note_off', channel=9, note=51, velocity=64, time=0),
    Message('note_off', channel=9, note=55, velocity=64, time=0),
    Message('note_off', channel=9, note=46, velocity=64, time=64),
    Message('note_on', channel=9, note=51, velocity=100, time=64),
    Message('note_on', channel=9, note=42, velocity=100, time=0),
    Message('note_on', channel=9, note=55, velocity=100, time=0),
    Message('note_off', channel=9, note=51, velocity=64, time=64),
    Message('note_off', channel=9, note=42, velocity=64, time=0),
    Message('note_off', channel=9, note=55, velocity=64, time=0),
    Message('note_on', channel=9, note=36, velocity=100, time=32),
    Message('note_off', channel=9, note=36, velocity=64, time=64),
    Message('note_on', channel=9, note=38, velocity=100, time=32),
    Message('note_on', channel=9, note=51, velocity=100, time=0),
    Message('note_on', channel=9, note=42, velocity=100, time=0),
    Message('note_on', channel=9, note=55, velocity=100, time=0),
    Message('note_off', channel=9, note=38, velocity=64, time=64),
    Message('note_off', channel=9, note=51, velocity=64, time=0),
    Message('note_off', channel=9, note=42, velocity=64, time=0),
    Message('note_off', channel=9, note=55, velocity=64, time=0),
    Message('note_on', channel=9, note=51, velocity=100, time=128),
    Message('note_on', channel=9, note=42, velocity=100, time=0),
    Message('note_on', channel=9, note=55, velocity=100, time=0),
    Message('note_off', channel=9, note=51, velocity=64, time=64),
    Message('note_off', channel=9, note=42, velocity=64, time=0),
    Message('note_off', channel=9, note=55, velocity=64, time=0),
    Message('note_on', channel=9, note=36, velocity=100, time=32),
    Message('note_off', channel=9, note=36, velocity=64, time=64),
    Message('note_on', channel=9, note=36, velocity=100, time=32),
    Message('note_on', channel=9, note=51, velocity=100, time=0),
    Message('note_on', channel=9, note=46, velocity=100, time=0),
    Message('note_on', channel=9, note=55, velocity=100, time=0),
    Message('note_off', channel=9, note=36, velocity=64, time=64),
    Message('note_off', channel=9, note=51, velocity=64, time=0),
    Message('note_off', channel=9, note=55, velocity=64, time=0),
    Message('note_off', channel=9, note=46, velocity=64, time=64),
    Message('note_on', channel=9, note=36, velocity=100, time=64),
    Message('note_on', channel=9, note=51, velocity=100, time=0),
    Message('note_on', channel=9, note=42, velocity=100, time=0),
    Message('note_on', channel=9, note=55, velocity=100, time=0),
    Message('note_off', channel=9, note=36, velocity=64, time=64),
    Message('note_off', channel=9, note=51, velocity=64, time=0),
    Message('note_off', channel=9, note=42, velocity=64, time=0),
    Message('note_off', channel=9, note=55, velocity=64, time=0),
    Message('note_on', channel=9, note=38, velocity=100, time=128),
    Message('note_on', channel=9, note=51, velocity=100, time=0),
    Message('note_on', channel=9, note=42, velocity=100, time=0),
    Message('note_on', channel=9, note=55, velocity=100, time=0),
    Message('note_on', channel=9, note=38, velocity=100, time=0),
    Message('note_on', channel=9, note=57, velocity=100, time=0),
    Message('note_on', channel=9, note=47, velocity=100, time=0),
    Message('note_on', channel=9, note=36, velocity=100, time=0),
    Message('note_on', channel=9, note=38, velocity=100, time=0),
    Message('note_on', channel=9, note=57, velocity=100, time=0),
    Message('note_off', channel=9, note=38, velocity=64, time=64),
    Message('note_off', channel=9, note=51, velocity=64, time=0),
    Message('note_off', channel=9, note=42, velocity=64, time=0),
    Message('note_off', channel=9, note=55, velocity=64, time=0),
    Message('note_off', channel=9, note=38, velocity=64, time=0),
    Message('note_off', channel=9, note=57, velocity=64, time=0),
    Message('note_off', channel=9, note=47, velocity=64, time=0),
    Message('note_off', channel=9, note=36, velocity=64, time=0),
    Message('note_off', channel=9, note=38, velocity=64, time=0),
    Message('note_off', channel=9, note=57, velocity=64, time=0),
    Message('note_on', channel=9, note=47, velocity=100, time=0),
    Message('note_on', channel=9, note=36, velocity=100, time=32),
    Message('note_on', channel=9, note=36, velocity=100, time=0),
    Message('note_on', channel=9, note=47, velocity=100, time=0),
    Message('note_on', channel=9, note=36, velocity=100, time=0),
    Message('note_on', channel=9, note=38, velocity=100, time=0),
    Message('note_off', channel=9, note=47, velocity=64, time=32),
    Message('note_on', channel=9, note=47, velocity=100, time=12),
    Message('note_on', channel=9, note=38, velocity=100, time=4),
    Message('note_off', channel=9, note=36, velocity=64, time=16),
    Message('note_off', channel=9, note=36, velocity=64, time=0),
    Message('note_off', channel=9, note=47, velocity=64, time=0),
    Message('note_off', channel=9, note=36, velocity=64, time=0),
    Message('note_off', channel=9, note=38, velocity=64, time=0),
    Message('note_on', channel=9, note=42, velocity=100, time=32),
    Message('note_on', channel=9, note=55, velocity=100, time=0),
    Message('note_on', channel=9, note=51, velocity=100, time=0),
    Message('note_on', channel=9, note=38, velocity=100, time=0),
    Message('note_on', channel=9, note=38, velocity=100, time=0),
    Message('note_on', channel=9, note=36, velocity=100, time=0),
    Message('note_on', channel=9, note=57, velocity=100, time=0),
    Message('note_on', channel=9, note=45, velocity=100, time=0),
    Message('note_on', channel=9, note=38, velocity=100, time=0),
    Message('note_on', channel=9, note=57, velocity=100, time=0),
    Message('note_off', channel=9, note=47, velocity=64, time=12),
    Message('note_off', channel=9, note=38, velocity=64, time=4),
    Message('note_on', channel=9, note=45, velocity=100, time=28),
    Message('note_off', channel=9, note=42, velocity=64, time=20),
    Message('note_off', channel=9, note=55, velocity=64, time=0),
    Message('note_off', channel=9, note=51, velocity=64, time=0),
    Message('note_off', channel=9, note=38, velocity=64, time=0),
    Message('note_off', channel=9, note=38, velocity=64, time=0),
    Message('note_off', channel=9, note=36, velocity=64, time=0),
    Message('note_off', channel=9, note=57, velocity=64, time=0),
    Message('note_off', channel=9, note=45, velocity=64, time=0),
    Message('note_off', channel=9, note=38, velocity=64, time=0),
    Message('note_off', channel=9, note=57, velocity=64, time=0),
    Message('note_on', channel=9, note=36, velocity=100, time=32),
    Message('note_on', channel=9, note=45, velocity=100, time=0),
    Message('note_on', channel=9, note=36, velocity=100, time=0),
    Message('note_on', channel=9, note=38, velocity=100, time=0),
    Message('note_off', channel=9, note=45, velocity=64, time=12),
    Message('note_on', channel=9, note=45, velocity=100, time=28),
    Message('note_off', channel=9, note=36, velocity=64, time=24),
    Message('note_off', channel=9, note=45, velocity=64, time=0),
    Message('note_off', channel=9, note=36, velocity=64, time=0),
    Message('note_off', channel=9, note=38, velocity=64, time=0),
    Message('note_on', channel=9, note=57, velocity=100, time=32),
    Message('note_on', channel=9, note=55, velocity=100, time=0),
    Message('note_on', channel=9, note=54, velocity=100, time=0),
    Message('note_on', channel=9, note=38, velocity=100, time=0),
    Message('note_on', channel=9, note=36, velocity=100, time=0),
    Message('note_off', channel=9, note=45, velocity=64, time=4),
    Message('note_off', channel=9, note=57, velocity=64, time=60),
    Message('note_off', channel=9, note=55, velocity=64, time=0),
    Message('note_off', channel=9, note=54, velocity=64, time=0),
    Message('note_off', channel=9, note=38, velocity=64, time=0),
    Message('note_off', channel=9, note=36, velocity=64, time=0),
    Message('note_on', channel=9, note=36, velocity=100, time=32),
    Message('note_off', channel=9, note=36, velocity=64, time=64),
    Message('note_on', channel=9, note=54, velocity=100, time=32),
    Message('note_off', channel=9, note=54, velocity=64, time=64),
    Message('note_on', channel=9, note=38, velocity=100, time=32),
    Message('note_off', channel=9, note=38, velocity=64, time=64),
    Message('note_on', channel=9, note=54, velocity=100, time=32),
    Message('note_on', channel=9, note=36, velocity=100, time=0),
    Message('note_off', channel=9, note=54, velocity=64, time=64),
    Message('note_off', channel=9, note=36, velocity=64, time=0),
    Message('note_on', channel=9, note=54, velocity=100, time=128),
    Message('note_on', channel=9, note=38, velocity=100, time=0),
    Message('note_off', channel=9, note=54, velocity=64, time=64),
    Message('note_off', channel=9, note=38, velocity=64, time=0),
    Message('note_on', channel=9, note=38, velocity=100, time=32),
    Message('note_off', channel=9, note=38, velocity=64, time=64),
    Message('note_on', channel=9, note=54, velocity=100, time=32),
    Message('note_on', channel=9, note=38, velocity=100, time=0),
    Message('note_off', channel=9, note=54, velocity=64, time=64),
    Message('note_off', channel=9, note=38, velocity=64, time=0),
    Message('note_on', channel=9, note=36, velocity=100, time=32),
    Message('note_off', channel=9, note=36, velocity=64, time=64),
    Message('note_on', channel=9, note=36, velocity=100, time=32),
    Message('note_off', channel=9, note=36, velocity=64, time=64),
    Message('note_on', channel=9, note=36, velocity=100, time=32),
    Message('note_off', channel=9, note=36, velocity=64, time=64),
    Message('note_on', channel=9, note=36, velocity=100, time=32),
    Message('note_on', channel=9, note=57, velocity=100, time=0),
    Message('note_on', channel=9, note=38, velocity=100, time=0),
    Message('note_off', channel=9, note=36, velocity=64, time=64),
    Message('note_off', channel=9, note=57, velocity=64, time=0),
    Message('note_off', channel=9, note=38, velocity=64, time=0),
    Message('note_on', channel=9, note=38, velocity=100, time=32),
    Message('note_on', channel=9, note=57, velocity=100, time=0),
    Message('note_on', channel=9, note=38, velocity=100, time=0),
    Message('note_on', channel=9, note=57, velocity=100, time=0),
    Message('note_on', channel=9, note=47, velocity=100, time=0),
    Message('note_on', channel=9, note=36, velocity=100, time=0),
    Message('note_on', channel=9, note=38, velocity=100, time=0),
    Message('note_on', channel=9, note=57, velocity=100, time=0),
    Message('note_off', channel=9, note=38, velocity=64, time=32),
    Message('note_off', channel=9, note=57, velocity=64, time=0),
    Message('note_off', channel=9, note=38, velocity=64, time=0),
    Message('note_off', channel=9, note=57, velocity=64, time=0),
    Message('note_off', channel=9, note=47, velocity=64, time=0),
    Message('note_off', channel=9, note=36, velocity=64, time=0),
    Message('note_on', channel=9, note=47, velocity=100, time=0),
    Message('note_on', channel=9, note=36, velocity=100, time=16),
    Message('note_on', channel=9, note=47, velocity=100, time=0),
    Message('note_on', channel=9, note=36, velocity=100, time=0),
    Message('note_on', channel=9, note=38, velocity=100, time=0),
    Message('note_off', channel=9, note=38, velocity=64, time=16),
    Message('note_off', channel=9, note=57, velocity=64, time=0),
    Message('note_off', channel=9, note=47, velocity=64, time=0),
    Message('note_on', channel=9, note=47, velocity=100, time=6),
    Message('note_off', channel=9, note=36, velocity=64, time=10),
    Message('note_off', channel=9, note=47, velocity=64, time=0),
    Message('note_off', channel=9, note=36, velocity=64, time=0),
    Message('note_off', channel=9, note=38, velocity=64, time=0),
    Message('note_on', channel=9, note=36, velocity=100, time=16),
    Message('note_on', channel=9, note=57, velocity=100, time=0),
    Message('note_on', channel=9, note=38, velocity=100, time=0),
    Message('note_on', channel=9, note=38, velocity=100, time=0),
    Message('note_on', channel=9, note=36, velocity=100, time=0),
    Message('note_on', channel=9, note=57, velocity=100, time=0),
    Message('note_on', channel=9, note=45, velocity=100, time=0),
    Message('note_on', channel=9, note=38, velocity=100, time=0),
    Message('note_on', channel=9, note=57, velocity=100, time=0),
    Message('note_off', channel=9, note=47, velocity=64, time=6),
    Message('note_on', channel=9, note=45, velocity=100, time=16),
    Message('note_off', channel=9, note=36, velocity=64, time=10),
    Message('note_off', channel=9, note=57, velocity=64, time=0),
    Message('note_off', channel=9, note=38, velocity=64, time=0),
    Message('note_off', channel=9, note=38, velocity=64, time=0),
    Message('note_off', channel=9, note=57, velocity=64, time=0),
    Message('note_off', channel=9, note=45, velocity=64, time=0),
    Message('note_on', channel=9, note=45, velocity=100, time=16),
    Message('note_on', channel=9, note=36, velocity=100, time=0),
    Message('note_on', channel=9, note=38, velocity=100, time=0),
    Message('note_off', channel=9, note=45, velocity=64, time=6),
    Message('note_off', channel=9, note=36, velocity=64, time=10),
    Message('note_off', channel=9, note=38, velocity=64, time=0),
    Message('note_off', channel=9, note=57, velocity=64, time=0),
    Message('note_on', channel=9, note=45, velocity=100, time=4),
    Message('note_off', channel=9, note=45, velocity=64, time=12),
    Message('note_off', channel=9, note=36, velocity=64, time=0),
    Message('note_off', channel=9, note=38, velocity=64, time=0),
    Message('note_on', channel=9, note=36, velocity=100, time=16),
    Message('note_on', channel=9, note=38, velocity=100, time=0),
    Message('note_on', channel=9, note=57, velocity=100, time=0),
    Message('note_on', channel=9, note=47, velocity=100, time=0),
    Message('note_on', channel=9, note=36, velocity=100, time=0),
    Message('note_on', channel=9, note=38, velocity=100, time=0),
    Message('note_on', channel=9, note=57, velocity=100, time=0),
    Message('note_off', channel=9, note=45, velocity=64, time=4),
    Message('note_off', channel=9, note=36, velocity=64, time=28),
    Message('note_off', channel=9, note=38, velocity=64, time=0),
    Message('note_off', channel=9, note=57, velocity=64, time=0),
    Message('note_off', channel=9, note=47, velocity=64, time=0),
    Message('note_off', channel=9, note=38, velocity=64, time=0),
    Message('note_off', channel=9, note=57, velocity=64, time=0),
    Message('note_on', channel=9, note=47, velocity=100, time=0),
    Message('note_on', channel=9, note=36, velocity=100, time=16),
    Message('note_on', channel=9, note=47, velocity=100, time=0),
    Message('note_on', channel=9, note=36, velocity=100, time=0),
    Message('note_on', channel=9, note=38, velocity=100, time=0),
    Message('note_off', channel=9, note=36, velocity=64, time=16),
    Message('note_off', channel=9, note=47, velocity=64, time=0),
    Message('note_on', channel=9, note=47, velocity=100, time=6),
    Message('note_off', channel=9, note=36, velocity=64, time=10),
    Message('note_off', channel=9, note=47, velocity=64, time=0),
    Message('note_off', channel=9, note=36, velocity=64, time=0),
    Message('note_off', channel=9, note=38, velocity=64, time=0),
    Message('note_on', channel=9, note=38, velocity=100, time=16),
    Message('note_on', channel=9, note=57, velocity=100, time=0),
    Message('note_on', channel=9, note=38, velocity=100, time=0),
    Message('note_on', channel=9, note=36, velocity=100, time=0),
    Message('note_on', channel=9, note=57, velocity=100, time=0),
    Message('note_on', channel=9, note=45, velocity=100, time=0),
    Message('note_on', channel=9, note=38, velocity=100, time=0),
    Message('note_on', channel=9, note=57, velocity=100, time=0),
    Message('note_off', channel=9, note=47, velocity=64, time=6),
    Message('note_on', channel=9, note=45, velocity=100, time=16),
    Message('note_off', channel=9, note=38, velocity=64, time=10),
    Message('note_off', channel=9, note=57, velocity=64, time=0),
    Message('note_off', channel=9, note=38, velocity=64, time=0),
    Message('note_off', channel=9, note=36, velocity=64, time=0),
    Message('note_off', channel=9, note=57, velocity=64, time=0),
    Message('note_off', channel=9, note=45, velocity=64, time=0),
    Message('note_on', channel=9, note=45, velocity=100, time=16),
    Message('note_on', channel=9, note=36, velocity=100, time=0),
    Message('note_on', channel=9, note=38, velocity=100, time=0),
    Message('note_off', channel=9, note=45, velocity=64, time=6),
    Message('note_off', channel=9, note=38, velocity=64, time=10),
    Message('note_off', channel=9, note=57, velocity=64, time=0),
    Message('note_on', channel=9, note=45, velocity=100, time=4),
    Message('note_off', channel=9, note=45, velocity=64, time=12),
    Message('note_off', channel=9, note=36, velocity=64, time=0),
    Message('note_off', channel=9, note=38, velocity=64, time=0),
    Message('note_off', channel=9, note=45, velocity=64, time=20),
    Message('note_on', channel=9, note=36, velocity=100, time=92),
    Message('note_on', channel=9, note=35, velocity=100, time=0),
    Message('note_on', channel=9, note=38, velocity=100, time=0),
    Message('note_on', channel=9, note=57, velocity=100, time=0),
    Message('note_off', channel=9, note=36, velocity=64, time=64),
    Message('note_off', channel=9, note=35, velocity=64, time=0),
    Message('note_off', channel=9, note=38, velocity=64, time=0),
    Message('note_off', channel=9, note=57, velocity=64, time=0),
    Message('note_on', channel=9, note=38, velocity=100, time=32),
    Message('note_on', channel=9, note=36, velocity=100, time=0),
    Message('note_on', channel=9, note=57, velocity=100, time=0),
    Message('note_off', channel=9, note=38, velocity=64, time=64),
    Message('note_off', channel=9, note=36, velocity=64, time=0),
    Message('note_off', channel=9, note=57, velocity=64, time=0),
    Message('note_on', channel=9, note=38, velocity=100, time=32),
    Message('note_on', channel=9, note=36, velocity=100, time=0),
    Message('note_on', channel=9, note=57, velocity=100, time=0),
    Message('note_off', channel=9, note=38, velocity=64, time=64),
    Message('note_off', channel=9, note=36, velocity=64, time=0),
    Message('note_off', channel=9, note=57, velocity=64, time=0),
    MetaMessage('end_of_track', time=0)]),
  MidiTrack([
    MetaMessage('track_name', name='Black Hole Sun', time=0),
    Message('control_change', channel=10, control=0, value=0, time=0),
    Message('program_change', channel=10, program=119, time=0),
    MetaMessage('key_signature', key='C', time=0),
    Message('note_on', channel=10, note=68, velocity=127, time=69888),
    Message('note_off', channel=10, note=68, velocity=64, time=816),
    Message('note_on', channel=10, note=68, velocity=127, time=35472),
    Message('note_off', channel=10, note=68, velocity=64, time=816),
    MetaMessage('end_of_track', time=0)]),
  MidiTrack([
    MetaMessage('track_name', name='As Recorded By Soundgarden', time=0),
    MetaMessage('key_signature', key='C', time=0),
    MetaMessage('end_of_track', time=0)]),
  MidiTrack([
    MetaMessage('track_name', name='Midi by: Anthony Peters', time=0),
    MetaMessage('key_signature', key='C', time=0),
    MetaMessage('end_of_track', time=0)]),
  MidiTrack([
    MetaMessage('track_name', name='Originaly Composed On The', time=0),
    MetaMessage('key_signature', key='C', time=0),
    MetaMessage('end_of_track', time=0)]),
  MidiTrack([
    MetaMessage('track_name', name='SoundMan 16 WAVE ', time=0),
    MetaMessage('key_signature', key='C', time=0),
    MetaMessage('end_of_track', time=0)]),
  MidiTrack([
    MetaMessage('track_name', name='Buy One There Great.', time=0),
    MetaMessage('key_signature', key='C', time=0),
    MetaMessage('end_of_track', time=0)])
])
