MidiFile(type=1, ticks_per_beat=480, tracks=[
  MidiTrack([
    MetaMessage('set_tempo', tempo=359281, time=0),
    MetaMessage('track_name', name='Boulevard of Broken Dreams', time=0),
    MetaMessage('time_signature', numerator=4, denominator=4, clocks_per_click=5, notated_32nd_notes_per_beat=123, time=0),
    MetaMessage('end_of_track', time=0)]),
  MidiTrack([
    MetaMessage('track_name', name='Billie Joe Armstrong (Vocals)', time=0),
    Message('control_change', channel=11, control=100, value=0, time=0),
    Message('control_change', channel=11, control=101, value=0, time=0),
    Message('control_change', channel=11, control=6, value=12, time=0),
    Message('pitchwheel', channel=11, pitch=0, time=0),
    Message('control_change', channel=12, control=100, value=0, time=0),
    Message('control_change', channel=12, control=101, value=0, time=0),
    Message('control_change', channel=12, control=6, value=12, time=0),
    Message('pitchwheel', channel=12, pitch=0, time=0),
    Message('program_change', channel=11, program=73, time=0),
    Message('program_change', channel=12, program=73, time=0),
    Message('control_change', channel=11, control=7, value=127, time=0),
    Message('control_change', channel=12, control=7, value=127, time=0),
    Message('control_change', channel=11, control=10, value=64, time=0),
    Message('control_change', channel=12, control=10, value=64, time=0),
    Message('control_change', channel=11, control=93, value=0, time=0),
    Message('control_change', channel=12, control=93, value=0, time=0),
    Message('control_change', channel=11, control=91, value=0, time=0),
    Message('control_change', channel=12, control=91, value=0, time=0),
    Message('control_change', channel=11, control=92, value=0, time=0),
    Message('control_change', channel=12, control=92, value=0, time=0),
    Message('control_change', channel=11, control=95, value=0, time=0),
    Message('control_change', channel=12, control=95, value=0, time=0),
    Message('note_on', channel=11, note=53, velocity=95, time=15840),
    Message('note_off', channel=11, note=53, velocity=80, time=480),
    Message('note_on', channel=11, note=53, velocity=95, time=0),
    Message('note_off', channel=11, note=53, velocity=80, time=480),
    Message('note_on', channel=11, note=55, velocity=95, time=0),
    Message('note_off', channel=11, note=55, velocity=80, time=480),
    Message('note_on', channel=11, note=56, velocity=95, time=0),
    Message('note_off', channel=11, note=56, velocity=80, time=480),
    Message('note_on', channel=11, note=63, velocity=95, time=0),
    Message('note_off', channel=11, note=63, velocity=80, time=480),
    Message('note_on', channel=11, note=60, velocity=95, time=0),
    Message('note_off', channel=11, note=60, velocity=80, time=480),
    Message('note_on', channel=11, note=60, velocity=95, time=240),
    Message('note_off', channel=11, note=60, velocity=80, time=240),
    Message('note_on', channel=11, note=58, velocity=95, time=0),
    Message('note_off', channel=11, note=58, velocity=80, time=480),
    Message('note_on', channel=11, note=56, velocity=95, time=0),
    Message('note_off', channel=11, note=56, velocity=80, time=480),
    Message('note_on', channel=11, note=58, velocity=95, time=0),
    Message('note_off', channel=11, note=58, velocity=80, time=480),
    Message('note_on', channel=11, note=56, velocity=95, time=0),
    Message('note_off', channel=11, note=56, velocity=80, time=480),
    Message('note_on', channel=11, note=58, velocity=95, time=0),
    Message('note_off', channel=11, note=58, velocity=80, time=480),
    Message('note_on', channel=11, note=60, velocity=95, time=0),
    Message('note_off', channel=11, note=60, velocity=80, time=480),
    Message('note_on', channel=11, note=58, velocity=95, time=0),
    Message('note_off', channel=11, note=58, velocity=80, time=480),
    Message('note_on', channel=11, note=56, velocity=95, time=0),
    Message('note_off', channel=11, note=56, velocity=80, time=240),
    Message('note_on', channel=11, note=53, velocity=95, time=0),
    Message('note_off', channel=11, note=53, velocity=80, time=720),
    Message('note_on', channel=11, note=53, velocity=95, time=480),
    Message('note_off', channel=11, note=53, velocity=80, time=480),
    Message('note_on', channel=11, note=55, velocity=95, time=0),
    Message('note_off', channel=11, note=55, velocity=80, time=480),
    Message('note_on', channel=11, note=56, velocity=95, time=0),
    Message('note_off', channel=11, note=56, velocity=80, time=480),
    Message('note_on', channel=11, note=63, velocity=95, time=0),
    Message('note_off', channel=11, note=63, velocity=80, time=480),
    Message('note_on', channel=11, note=60, velocity=95, time=0),
    Message('note_off', channel=11, note=60, velocity=80, time=480),
    Message('note_on', channel=11, note=58, velocity=95, time=480),
    Message('note_off', channel=11, note=58, velocity=80, time=480),
    Message('note_on', channel=11, note=56, velocity=95, time=0),
    Message('note_off', channel=11, note=56, velocity=80, time=480),
    Message('note_on', channel=11, note=58, velocity=95, time=0),
    Message('note_off', channel=11, note=58, velocity=80, time=480),
    Message('note_on', channel=11, note=56, velocity=95, time=0),
    Message('note_off', channel=11, note=56, velocity=80, time=240),
    Message('note_on', channel=11, note=58, velocity=95, time=0),
    Message('note_off', channel=11, note=58, velocity=80, time=480),
    Message('note_on', channel=11, note=58, velocity=95, time=0),
    Message('note_off', channel=11, note=58, velocity=80, time=240),
    Message('note_on', channel=11, note=60, velocity=95, time=0),
    Message('note_off', channel=11, note=60, velocity=80, time=480),
    Message('note_on', channel=11, note=58, velocity=95, time=0),
    Message('note_off', channel=11, note=58, velocity=80, time=480),
    Message('note_on', channel=11, note=56, velocity=95, time=0),
    Message('note_off', channel=11, note=56, velocity=80, time=240),
    Message('note_on', channel=11, note=53, velocity=95, time=0),
    Message('note_off', channel=11, note=53, velocity=80, time=720),
    Message('note_on', channel=11, note=53, velocity=95, time=7680),
    Message('note_off', channel=11, note=53, velocity=80, time=480),
    Message('note_on', channel=11, note=53, velocity=95, time=0),
    Message('note_off', channel=11, note=53, velocity=80, time=480),
    Message('note_on', channel=11, note=55, velocity=95, time=0),
    Message('note_off', channel=11, note=55, velocity=80, time=480),
    Message('note_on', channel=11, note=56, velocity=95, time=0),
    Message('note_off', channel=11, note=56, velocity=80, time=480),
    Message('note_on', channel=11, note=63, velocity=95, time=0),
    Message('note_off', channel=11, note=63, velocity=80, time=480),
    Message('note_on', channel=11, note=60, velocity=95, time=0),
    Message('note_off', channel=11, note=60, velocity=80, time=480),
    Message('note_on', channel=11, note=58, velocity=95, time=480),
    Message('note_off', channel=11, note=58, velocity=80, time=480),
    Message('note_on', channel=11, note=56, velocity=95, time=0),
    Message('note_off', channel=11, note=56, velocity=80, time=480),
    Message('note_on', channel=11, note=58, velocity=95, time=0),
    Message('note_off', channel=11, note=58, velocity=80, time=480),
    Message('note_on', channel=11, note=56, velocity=95, time=0),
    Message('note_off', channel=11, note=56, velocity=80, time=480),
    Message('note_on', channel=11, note=58, velocity=95, time=0),
    Message('note_off', channel=11, note=58, velocity=80, time=480),
    Message('note_on', channel=11, note=60, velocity=95, time=0),
    Message('note_off', channel=11, note=60, velocity=80, time=480),
    Message('note_on', channel=11, note=58, velocity=95, time=0),
    Message('note_off', channel=11, note=58, velocity=80, time=480),
    Message('note_on', channel=11, note=56, velocity=95, time=0),
    Message('note_off', channel=11, note=56, velocity=80, time=240),
    Message('note_on', channel=11, note=53, velocity=95, time=0),
    Message('note_off', channel=11, note=53, velocity=80, time=720),
    Message('note_on', channel=11, note=53, velocity=95, time=480),
    Message('note_off', channel=11, note=53, velocity=80, time=480),
    Message('note_on', channel=11, note=55, velocity=95, time=0),
    Message('note_off', channel=11, note=55, velocity=80, time=480),
    Message('note_on', channel=11, note=56, velocity=95, time=0),
    Message('note_off', channel=11, note=56, velocity=80, time=480),
    Message('note_on', channel=11, note=63, velocity=95, time=0),
    Message('note_off', channel=11, note=63, velocity=80, time=480),
    Message('note_on', channel=11, note=60, velocity=95, time=0),
    Message('note_off', channel=11, note=60, velocity=80, time=480),
    Message('note_on', channel=11, note=56, velocity=95, time=240),
    Message('note_off', channel=11, note=56, velocity=80, time=240),
    Message('note_on', channel=11, note=58, velocity=95, time=0),
    Message('note_off', channel=11, note=58, velocity=80, time=480),
    Message('note_on', channel=11, note=56, velocity=95, time=0),
    Message('note_off', channel=11, note=56, velocity=80, time=480),
    Message('note_on', channel=11, note=58, velocity=95, time=0),
    Message('note_off', channel=11, note=58, velocity=80, time=480),
    Message('note_on', channel=11, note=56, velocity=95, time=0),
    Message('note_off', channel=11, note=56, velocity=80, time=240),
    Message('note_on', channel=11, note=58, velocity=95, time=0),
    Message('note_off', channel=11, note=58, velocity=80, time=480),
    Message('note_on', channel=11, note=58, velocity=95, time=0),
    Message('note_off', channel=11, note=58, velocity=80, time=240),
    Message('note_on', channel=11, note=60, velocity=95, time=0),
    Message('note_off', channel=11, note=60, velocity=80, time=480),
    Message('note_on', channel=11, note=58, velocity=95, time=0),
    Message('note_off', channel=11, note=58, velocity=80, time=480),
    Message('note_on', channel=11, note=56, velocity=95, time=0),
    Message('note_off', channel=11, note=56, velocity=80, time=240),
    Message('note_on', channel=11, note=53, velocity=95, time=0),
    Message('note_off', channel=11, note=53, velocity=80, time=720),
    Message('note_on', channel=11, note=60, velocity=95, time=3840),
    Message('note_off', channel=11, note=60, velocity=80, time=480),
    Message('note_on', channel=11, note=58, velocity=95, time=0),
    Message('note_off', channel=11, note=58, velocity=80, time=480),
    Message('note_on', channel=11, note=56, velocity=95, time=0),
    Message('note_off', channel=11, note=56, velocity=80, time=240),
    Message('note_on', channel=11, note=58, velocity=95, time=0),
    Message('note_off', channel=11, note=58, velocity=80, time=480),
    Message('note_on', channel=11, note=58, velocity=95, time=0),
    Message('note_off', channel=11, note=58, velocity=80, time=240),
    Message('note_on', channel=11, note=60, velocity=95, time=0),
    Message('note_off', channel=11, note=60, velocity=80, time=480),
    Message('note_on', channel=11, note=58, velocity=95, time=0),
    Message('note_off', channel=11, note=58, velocity=80, time=480),
    Message('note_on', channel=11, note=56, velocity=95, time=0),
    Message('note_off', channel=11, note=56, velocity=80, time=480),
    Message('note_on', channel=11, note=53, velocity=95, time=0),
    Message('note_off', channel=11, note=53, velocity=80, time=1920),
    Message('note_on', channel=11, note=60, velocity=95, time=2400),
    Message('note_off', channel=11, note=60, velocity=80, time=480),
    Message('note_on', channel=11, note=58, velocity=95, time=0),
    Message('note_off', channel=11, note=58, velocity=80, time=480),
    Message('note_on', channel=11, note=56, velocity=95, time=0),
    Message('note_off', channel=11, note=56, velocity=80, time=240),
    Message('note_on', channel=11, note=58, velocity=95, time=0),
    Message('note_off', channel=11, note=58, velocity=80, time=480),
    Message('note_on', channel=11, note=58, velocity=95, time=0),
    Message('note_off', channel=11, note=58, velocity=80, time=240),
    Message('note_on', channel=11, note=60, velocity=95, time=0),
    Message('note_off', channel=11, note=60, velocity=80, time=480),
    Message('note_on', channel=11, note=58, velocity=95, time=0),
    Message('note_off', channel=11, note=58, velocity=80, time=480),
    Message('note_on', channel=11, note=56, velocity=95, time=0),
    Message('note_off', channel=11, note=56, velocity=80, time=1440),
    Message('note_on', channel=11, note=65, velocity=95, time=0),
    Message('note_off', channel=11, note=65, velocity=80, time=480),
    Message('note_on', channel=11, note=63, velocity=95, time=0),
    Message('note_off', channel=11, note=63, velocity=80, time=960),
    Message('note_on', channel=11, note=56, velocity=95, time=0),
    Message('note_off', channel=11, note=56, velocity=80, time=960),
    Message('note_on', channel=11, note=58, velocity=95, time=0),
    Message('note_off', channel=11, note=58, velocity=80, time=960),
    Message('note_on', channel=11, note=56, velocity=95, time=0),
    Message('note_off', channel=11, note=56, velocity=80, time=480),
    Message('note_on', channel=11, note=58, velocity=95, time=0),
    Message('note_off', channel=11, note=58, velocity=80, time=480),
    Message('note_on', channel=11, note=56, velocity=95, time=0),
    Message('note_off', channel=11, note=56, velocity=80, time=240),
    Message('note_on', channel=11, note=58, velocity=95, time=0),
    Message('note_off', channel=11, note=58, velocity=80, time=480),
    Message('note_on', channel=11, note=58, velocity=95, time=0),
    Message('note_off', channel=11, note=58, velocity=80, time=240),
    Message('note_on', channel=11, note=60, velocity=95, time=0),
    Message('note_off', channel=11, note=60, velocity=80, time=480),
    Message('note_on', channel=11, note=58, velocity=95, time=0),
    Message('note_off', channel=11, note=58, velocity=80, time=480),
    Message('note_on', channel=11, note=53, velocity=95, time=0),
    Message('note_off', channel=11, note=53, velocity=80, time=480),
    Message('note_on', channel=11, note=65, velocity=95, time=960),
    Message('note_off', channel=11, note=65, velocity=80, time=480),
    Message('note_on', channel=11, note=63, velocity=95, time=0),
    Message('note_off', channel=11, note=63, velocity=80, time=960),
    Message('note_on', channel=11, note=56, velocity=95, time=0),
    Message('note_off', channel=11, note=56, velocity=80, time=960),
    Message('note_on', channel=11, note=58, velocity=95, time=0),
    Message('note_off', channel=11, note=58, velocity=80, time=960),
    Message('note_on', channel=11, note=56, velocity=95, time=0),
    Message('note_off', channel=11, note=56, velocity=80, time=480),
    Message('note_on', channel=11, note=58, velocity=95, time=0),
    Message('note_off', channel=11, note=58, velocity=80, time=480),
    Message('note_on', channel=11, note=56, velocity=95, time=0),
    Message('note_off', channel=11, note=56, velocity=80, time=240),
    Message('note_on', channel=11, note=58, velocity=95, time=0),
    Message('note_off', channel=11, note=58, velocity=80, time=720),
    Message('note_on', channel=11, note=60, velocity=95, time=0),
    Message('note_off', channel=11, note=60, velocity=80, time=480),
    Message('note_on', channel=11, note=58, velocity=95, time=0),
    Message('note_off', channel=11, note=58, velocity=80, time=480),
    Message('note_on', channel=11, note=53, velocity=95, time=0),
    Message('note_off', channel=11, note=53, velocity=80, time=480),
    Message('note_on', channel=11, note=65, velocity=95, time=960),
    Message('note_off', channel=11, note=65, velocity=80, time=480),
    Message('note_on', channel=11, note=63, velocity=95, time=0),
    Message('note_off', channel=11, note=63, velocity=80, time=960),
    Message('note_on', channel=11, note=56, velocity=95, time=0),
    Message('note_off', channel=11, note=56, velocity=80, time=960),
    Message('note_on', channel=11, note=58, velocity=95, time=0),
    Message('note_off', channel=11, note=58, velocity=80, time=960),
    Message('note_on', channel=11, note=56, velocity=95, time=0),
    Message('note_off', channel=11, note=56, velocity=80, time=480),
    Message('note_on', channel=11, note=58, velocity=95, time=0),
    Message('note_off', channel=11, note=58, velocity=80, time=480),
    Message('note_on', channel=11, note=56, velocity=95, time=0),
    Message('note_off', channel=11, note=56, velocity=80, time=240),
    Message('note_on', channel=11, note=58, velocity=95, time=0),
    Message('note_off', channel=11, note=58, velocity=80, time=720),
    Message('note_on', channel=11, note=60, velocity=95, time=0),
    Message('note_off', channel=11, note=60, velocity=80, time=480),
    Message('note_on', channel=11, note=58, velocity=95, time=0),
    Message('note_off', channel=11, note=58, velocity=80, time=480),
    Message('note_on', channel=11, note=53, velocity=95, time=0),
    Message('note_off', channel=11, note=53, velocity=80, time=480),
    Message('note_on', channel=11, note=65, velocity=95, time=960),
    Message('note_off', channel=11, note=65, velocity=80, time=480),
    Message('note_on', channel=11, note=63, velocity=95, time=0),
    Message('note_off', channel=11, note=63, velocity=80, time=960),
    Message('note_on', channel=11, note=60, velocity=95, time=0),
    Message('note_off', channel=11, note=60, velocity=80, time=960),
    Message('note_on', channel=12, note=63, velocity=95, time=0),
    Message('pitchwheel', channel=12, pitch=0, time=0),
    Message('pitchwheel', channel=12, pitch=128, time=96),
    Message('pitchwheel', channel=12, pitch=256, time=192),
    Message('pitchwheel', channel=12, pitch=384, time=176),
    Message('pitchwheel', channel=12, pitch=512, time=160),
    Message('pitchwheel', channel=12, pitch=640, time=192),
    Message('note_off', channel=12, note=63, velocity=80, time=144),
    Message('pitchwheel', channel=12, pitch=0, time=0),
    Message('note_on', channel=11, note=60, velocity=95, time=0),
    Message('note_off', channel=11, note=60, velocity=80, time=480),
    Message('note_on', channel=11, note=60, velocity=95, time=0),
    Message('note_off', channel=11, note=60, velocity=80, time=960),
    Message('note_on', channel=12, note=55, velocity=95, time=2880),
    Message('pitchwheel', channel=12, pitch=640, time=384),
    Message('note_off', channel=12, note=55, velocity=80, time=96),
    Message('pitchwheel', channel=12, pitch=0, time=0),
    Message('note_on', channel=11, note=56, velocity=86, time=0),
    Message('note_off', channel=11, note=56, velocity=80, time=1440),
    Message('note_on', channel=12, note=60, velocity=95, time=0),
    Message('pitchwheel', channel=12, pitch=-640, time=240),
    Message('note_off', channel=12, note=60, velocity=80, time=240),
    Message('pitchwheel', channel=12, pitch=0, time=0),
    Message('note_on', channel=11, note=58, velocity=86, time=0),
    Message('note_off', channel=11, note=58, velocity=80, time=1440),
    Message('note_on', channel=12, note=55, velocity=95, time=0),
    Message('pitchwheel', channel=12, pitch=640, time=384),
    Message('note_off', channel=12, note=55, velocity=80, time=96),
    Message('pitchwheel', channel=12, pitch=0, time=0),
    Message('note_on', channel=11, note=56, velocity=86, time=0),
    Message('note_off', channel=11, note=56, velocity=80, time=1440),
    Message('note_on', channel=12, note=56, velocity=95, time=0),
    Message('pitchwheel', channel=12, pitch=-640, time=480),
    Message('pitchwheel', channel=12, pitch=-1408, time=160),
    Message('pitchwheel', channel=12, pitch=-2048, time=160),
    Message('note_off', channel=12, note=56, velocity=80, time=160),
    Message('pitchwheel', channel=12, pitch=0, time=0),
    Message('note_on', channel=11, note=53, velocity=95, time=0),
    Message('note_off', channel=11, note=53, velocity=80, time=960),
    Message('note_on', channel=12, note=55, velocity=95, time=0),
    Message('pitchwheel', channel=12, pitch=640, time=384),
    Message('note_off', channel=12, note=55, velocity=80, time=96),
    Message('pitchwheel', channel=12, pitch=0, time=0),
    Message('note_on', channel=11, note=56, velocity=86, time=0),
    Message('note_off', channel=11, note=56, velocity=80, time=1440),
    Message('note_on', channel=12, note=60, velocity=95, time=0),
    Message('pitchwheel', channel=12, pitch=-640, time=240),
    Message('note_off', channel=12, note=60, velocity=80, time=240),
    Message('pitchwheel', channel=12, pitch=0, time=0),
    Message('note_on', channel=11, note=58, velocity=86, time=0),
    Message('note_off', channel=11, note=58, velocity=80, time=1440),
    Message('note_on', channel=12, note=55, velocity=95, time=0),
    Message('pitchwheel', channel=12, pitch=640, time=384),
    Message('note_off', channel=12, note=55, velocity=80, time=96),
    Message('pitchwheel', channel=12, pitch=0, time=0),
    Message('note_on', channel=11, note=56, velocity=86, time=0),
    Message('note_off', channel=11, note=56, velocity=80, time=2400),
    Message('note_on', channel=11, note=53, velocity=95, time=480),
    Message('note_off', channel=11, note=53, velocity=80, time=480),
    Message('note_on', channel=11, note=53, velocity=95, time=0),
    Message('note_off', channel=11, note=53, velocity=80, time=480),
    Message('note_on', channel=11, note=55, velocity=95, time=0),
    Message('note_off', channel=11, note=55, velocity=80, time=480),
    Message('note_on', channel=11, note=56, velocity=95, time=0),
    Message('note_off', channel=11, note=56, velocity=80, time=480),
    Message('note_on', channel=11, note=63, velocity=95, time=0),
    Message('note_off', channel=11, note=63, velocity=80, time=480),
    Message('note_on', channel=11, note=60, velocity=95, time=0),
    Message('note_off', channel=11, note=60, velocity=80, time=480),
    Message('note_on', channel=11, note=58, velocity=95, time=480),
    Message('note_off', channel=11, note=58, velocity=80, time=480),
    Message('note_on', channel=11, note=56, velocity=95, time=0),
    Message('note_off', channel=11, note=56, velocity=80, time=480),
    Message('note_on', channel=11, note=58, velocity=95, time=0),
    Message('note_off', channel=11, note=58, velocity=80, time=480),
    Message('note_on', channel=11, note=56, velocity=95, time=0),
    Message('note_off', channel=11, note=56, velocity=80, time=480),
    Message('note_on', channel=11, note=58, velocity=95, time=0),
    Message('note_off', channel=11, note=58, velocity=80, time=480),
    Message('note_on', channel=11, note=60, velocity=95, time=0),
    Message('note_off', channel=11, note=60, velocity=80, time=480),
    Message('note_on', channel=11, note=58, velocity=95, time=0),
    Message('note_off', channel=11, note=58, velocity=80, time=480),
    Message('note_on', channel=11, note=56, velocity=95, time=0),
    Message('note_off', channel=11, note=56, velocity=80, time=480),
    Message('note_on', channel=11, note=53, velocity=95, time=0),
    Message('note_off', channel=11, note=53, velocity=80, time=480),
    Message('note_on', channel=11, note=53, velocity=95, time=480),
    Message('note_off', channel=11, note=53, velocity=80, time=480),
    Message('note_on', channel=11, note=55, velocity=95, time=0),
    Message('note_off', channel=11, note=55, velocity=80, time=480),
    Message('note_on', channel=11, note=56, velocity=95, time=0),
    Message('note_off', channel=11, note=56, velocity=80, time=480),
    Message('note_on', channel=11, note=63, velocity=95, time=0),
    Message('note_off', channel=11, note=63, velocity=80, time=480),
    Message('note_on', channel=11, note=60, velocity=95, time=0),
    Message('note_off', channel=11, note=60, velocity=80, time=480),
    Message('note_on', channel=11, note=58, velocity=95, time=480),
    Message('note_off', channel=11, note=58, velocity=80, time=480),
    Message('note_on', channel=11, note=56, velocity=95, time=0),
    Message('note_off', channel=11, note=56, velocity=80, time=480),
    Message('note_on', channel=11, note=58, velocity=95, time=0),
    Message('note_off', channel=11, note=58, velocity=80, time=480),
    Message('note_on', channel=11, note=56, velocity=95, time=0),
    Message('note_off', channel=11, note=56, velocity=80, time=480),
    Message('note_on', channel=11, note=58, velocity=95, time=0),
    Message('note_off', channel=11, note=58, velocity=80, time=480),
    Message('note_on', channel=11, note=60, velocity=95, time=0),
    Message('note_off', channel=11, note=60, velocity=80, time=480),
    Message('note_on', channel=11, note=58, velocity=95, time=0),
    Message('note_off', channel=11, note=58, velocity=80, time=480),
    Message('note_on', channel=11, note=56, velocity=95, time=0),
    Message('note_off', channel=11, note=56, velocity=80, time=240),
    Message('note_on', channel=11, note=53, velocity=95, time=0),
    Message('note_off', channel=11, note=53, velocity=80, time=720),
    Message('note_on', channel=11, note=53, velocity=95, time=8160),
    Message('note_off', channel=11, note=53, velocity=80, time=480),
    Message('note_on', channel=11, note=55, velocity=95, time=0),
    Message('note_off', channel=11, note=55, velocity=80, time=480),
    Message('note_on', channel=11, note=56, velocity=95, time=0),
    Message('note_off', channel=11, note=56, velocity=80, time=480),
    Message('note_on', channel=11, note=63, velocity=95, time=0),
    Message('note_off', channel=11, note=63, velocity=80, time=480),
    Message('note_on', channel=11, note=60, velocity=95, time=0),
    Message('note_off', channel=11, note=60, velocity=80, time=480),
    Message('note_on', channel=11, note=58, velocity=95, time=480),
    Message('note_off', channel=11, note=58, velocity=80, time=480),
    Message('note_on', channel=11, note=56, velocity=95, time=0),
    Message('note_off', channel=11, note=56, velocity=80, time=480),
    Message('note_on', channel=11, note=58, velocity=95, time=0),
    Message('note_off', channel=11, note=58, velocity=80, time=480),
    Message('note_on', channel=11, note=56, velocity=95, time=0),
    Message('note_off', channel=11, note=56, velocity=80, time=480),
    Message('note_on', channel=11, note=58, velocity=95, time=0),
    Message('note_off', channel=11, note=58, velocity=80, time=480),
    Message('note_on', channel=11, note=60, velocity=95, time=0),
    Message('note_off', channel=11, note=60, velocity=80, time=480),
    Message('note_on', channel=11, note=58, velocity=95, time=0),
    Message('note_off', channel=11, note=58, velocity=80, time=480),
    Message('note_on', channel=11, note=56, velocity=95, time=0),
    Message('note_off', channel=11, note=56, velocity=80, time=480),
    Message('note_on', channel=11, note=53, velocity=95, time=0),
    Message('note_off', channel=11, note=53, velocity=80, time=480),
    Message('note_on', channel=11, note=53, velocity=95, time=480),
    Message('note_off', channel=11, note=53, velocity=80, time=480),
    Message('note_on', channel=11, note=55, velocity=95, time=0),
    Message('note_off', channel=11, note=55, velocity=80, time=480),
    Message('note_on', channel=11, note=56, velocity=95, time=0),
    Message('note_off', channel=11, note=56, velocity=80, time=480),
    Message('note_on', channel=11, note=63, velocity=95, time=0),
    Message('note_off', channel=11, note=63, velocity=80, time=480),
    Message('note_on', channel=11, note=60, velocity=95, time=0),
    Message('note_off', channel=11, note=60, velocity=80, time=480),
    Message('note_on', channel=11, note=56, velocity=95, time=240),
    Message('note_off', channel=11, note=56, velocity=80, time=240),
    Message('note_on', channel=11, note=58, velocity=95, time=0),
    Message('note_off', channel=11, note=58, velocity=80, time=480),
    Message('note_on', channel=11, note=56, velocity=95, time=0),
    Message('note_off', channel=11, note=56, velocity=80, time=480),
    Message('note_on', channel=11, note=58, velocity=95, time=0),
    Message('note_off', channel=11, note=58, velocity=80, time=480),
    Message('note_on', channel=11, note=56, velocity=95, time=0),
    Message('note_off', channel=11, note=56, velocity=80, time=240),
    Message('note_on', channel=11, note=58, velocity=95, time=0),
    Message('note_off', channel=11, note=58, velocity=80, time=480),
    Message('note_on', channel=11, note=58, velocity=95, time=0),
    Message('note_off', channel=11, note=58, velocity=80, time=240),
    Message('note_on', channel=11, note=60, velocity=95, time=0),
    Message('note_off', channel=11, note=60, velocity=80, time=480),
    Message('note_on', channel=11, note=58, velocity=95, time=0),
    Message('note_off', channel=11, note=58, velocity=80, time=480),
    Message('note_on', channel=11, note=56, velocity=95, time=0),
    Message('note_off', channel=11, note=56, velocity=80, time=240),
    Message('note_on', channel=11, note=53, velocity=95, time=0),
    Message('note_off', channel=11, note=53, velocity=80, time=720),
    Message('note_on', channel=11, note=60, velocity=95, time=3840),
    Message('note_off', channel=11, note=60, velocity=80, time=480),
    Message('note_on', channel=11, note=58, velocity=95, time=0),
    Message('note_off', channel=11, note=58, velocity=80, time=480),
    Message('note_on', channel=11, note=56, velocity=95, time=0),
    Message('note_off', channel=11, note=56, velocity=80, time=240),
    Message('note_on', channel=11, note=58, velocity=95, time=0),
    Message('note_off', channel=11, note=58, velocity=80, time=480),
    Message('note_on', channel=11, note=58, velocity=95, time=0),
    Message('note_off', channel=11, note=58, velocity=80, time=240),
    Message('note_on', channel=11, note=60, velocity=95, time=0),
    Message('note_off', channel=11, note=60, velocity=80, time=480),
    Message('note_on', channel=11, note=58, velocity=95, time=0),
    Message('note_off', channel=11, note=58, velocity=80, time=480),
    Message('note_on', channel=11, note=56, velocity=95, time=0),
    Message('note_off', channel=11, note=56, velocity=80, time=480),
    Message('note_on', channel=11, note=53, velocity=95, time=0),
    Message('note_off', channel=11, note=53, velocity=80, time=1920),
    Message('note_on', channel=11, note=60, velocity=95, time=2400),
    Message('note_off', channel=11, note=60, velocity=80, time=480),
    Message('note_on', channel=11, note=58, velocity=95, time=0),
    Message('note_off', channel=11, note=58, velocity=80, time=480),
    Message('note_on', channel=11, note=56, velocity=95, time=0),
    Message('note_off', channel=11, note=56, velocity=80, time=240),
    Message('note_on', channel=11, note=58, velocity=95, time=0),
    Message('note_off', channel=11, note=58, velocity=80, time=480),
    Message('note_on', channel=11, note=58, velocity=95, time=0),
    Message('note_off', channel=11, note=58, velocity=80, time=240),
    Message('note_on', channel=11, note=60, velocity=95, time=0),
    Message('note_off', channel=11, note=60, velocity=80, time=480),
    Message('note_on', channel=11, note=58, velocity=95, time=0),
    Message('note_off', channel=11, note=58, velocity=80, time=480),
    Message('note_on', channel=11, note=56, velocity=95, time=0),
    Message('note_off', channel=11, note=56, velocity=80, time=1440),
    Message('note_on', channel=11, note=65, velocity=95, time=0),
    Message('note_off', channel=11, note=65, velocity=80, time=480),
    Message('note_on', channel=11, note=63, velocity=95, time=0),
    Message('note_off', channel=11, note=63, velocity=80, time=960),
    Message('note_on', channel=11, note=56, velocity=95, time=0),
    Message('note_off', channel=11, note=56, velocity=80, time=960),
    Message('note_on', channel=11, note=58, velocity=95, time=0),
    Message('note_off', channel=11, note=58, velocity=80, time=960),
    Message('note_on', channel=11, note=56, velocity=95, time=0),
    Message('note_off', channel=11, note=56, velocity=80, time=480),
    Message('note_on', channel=11, note=58, velocity=95, time=0),
    Message('note_off', channel=11, note=58, velocity=80, time=480),
    Message('note_on', channel=11, note=56, velocity=95, time=0),
    Message('note_off', channel=11, note=56, velocity=80, time=240),
    Message('note_on', channel=11, note=58, velocity=95, time=0),
    Message('note_off', channel=11, note=58, velocity=80, time=480),
    Message('note_on', channel=11, note=58, velocity=95, time=0),
    Message('note_off', channel=11, note=58, velocity=80, time=240),
    Message('note_on', channel=11, note=60, velocity=95, time=0),
    Message('note_off', channel=11, note=60, velocity=80, time=480),
    Message('note_on', channel=11, note=58, velocity=95, time=0),
    Message('note_off', channel=11, note=58, velocity=80, time=480),
    Message('note_on', channel=11, note=53, velocity=95, time=0),
    Message('note_off', channel=11, note=53, velocity=80, time=480),
    Message('note_on', channel=11, note=65, velocity=95, time=960),
    Message('note_off', channel=11, note=65, velocity=80, time=480),
    Message('note_on', channel=11, note=63, velocity=95, time=0),
    Message('note_off', channel=11, note=63, velocity=80, time=960),
    Message('note_on', channel=11, note=56, velocity=95, time=0),
    Message('note_off', channel=11, note=56, velocity=80, time=960),
    Message('note_on', channel=11, note=58, velocity=95, time=0),
    Message('note_off', channel=11, note=58, velocity=80, time=960),
    Message('note_on', channel=11, note=56, velocity=95, time=0),
    Message('note_off', channel=11, note=56, velocity=80, time=480),
    Message('note_on', channel=11, note=58, velocity=95, time=0),
    Message('note_off', channel=11, note=58, velocity=80, time=480),
    Message('note_on', channel=11, note=56, velocity=95, time=0),
    Message('note_off', channel=11, note=56, velocity=80, time=240),
    Message('note_on', channel=11, note=58, velocity=95, time=0),
    Message('note_off', channel=11, note=58, velocity=80, time=720),
    Message('note_on', channel=11, note=60, velocity=95, time=0),
    Message('note_off', channel=11, note=60, velocity=80, time=480),
    Message('note_on', channel=11, note=58, velocity=95, time=0),
    Message('note_off', channel=11, note=58, velocity=80, time=480),
    Message('note_on', channel=11, note=53, velocity=95, time=0),
    Message('note_off', channel=11, note=53, velocity=80, time=480),
    Message('note_on', channel=11, note=65, velocity=95, time=960),
    Message('note_off', channel=11, note=65, velocity=80, time=480),
    Message('note_on', channel=11, note=63, velocity=95, time=0),
    Message('note_off', channel=11, note=63, velocity=80, time=960),
    Message('note_on', channel=11, note=56, velocity=95, time=0),
    Message('note_off', channel=11, note=56, velocity=80, time=960),
    Message('note_on', channel=11, note=58, velocity=95, time=0),
    Message('note_off', channel=11, note=58, velocity=80, time=960),
    Message('note_on', channel=11, note=56, velocity=95, time=0),
    Message('note_off', channel=11, note=56, velocity=80, time=480),
    Message('note_on', channel=11, note=58, velocity=95, time=0),
    Message('note_off', channel=11, note=58, velocity=80, time=480),
    Message('note_on', channel=11, note=56, velocity=95, time=0),
    Message('note_off', channel=11, note=56, velocity=80, time=240),
    Message('note_on', channel=11, note=58, velocity=95, time=0),
    Message('note_off', channel=11, note=58, velocity=80, time=720),
    Message('note_on', channel=11, note=60, velocity=95, time=0),
    Message('note_off', channel=11, note=60, velocity=80, time=480),
    Message('note_on', channel=11, note=58, velocity=95, time=0),
    Message('note_off', channel=11, note=58, velocity=80, time=480),
    Message('note_on', channel=11, note=53, velocity=95, time=0),
    Message('note_off', channel=11, note=53, velocity=80, time=480),
    Message('note_on', channel=11, note=65, velocity=95, time=960),
    Message('note_off', channel=11, note=65, velocity=80, time=480),
    Message('note_on', channel=11, note=63, velocity=95, time=0),
    Message('note_off', channel=11, note=63, velocity=80, time=960),
    Message('note_on', channel=11, note=60, velocity=95, time=0),
    Message('note_off', channel=11, note=60, velocity=80, time=960),
    Message('note_on', channel=12, note=63, velocity=95, time=0),
    Message('pitchwheel', channel=12, pitch=0, time=0),
    Message('pitchwheel', channel=12, pitch=128, time=96),
    Message('pitchwheel', channel=12, pitch=256, time=192),
    Message('pitchwheel', channel=12, pitch=384, time=176),
    Message('pitchwheel', channel=12, pitch=512, time=160),
    Message('pitchwheel', channel=12, pitch=640, time=192),
    Message('note_off', channel=12, note=63, velocity=80, time=144),
    Message('pitchwheel', channel=12, pitch=0, time=0),
    Message('note_on', channel=11, note=60, velocity=95, time=0),
    Message('note_off', channel=11, note=60, velocity=80, time=480),
    Message('note_on', channel=11, note=60, velocity=95, time=0),
    Message('note_off', channel=11, note=60, velocity=80, time=960),
    Message('note_on', channel=12, note=55, velocity=95, time=2880),
    Message('pitchwheel', channel=12, pitch=640, time=384),
    Message('note_off', channel=12, note=55, velocity=80, time=96),
    Message('pitchwheel', channel=12, pitch=0, time=0),
    Message('note_on', channel=11, note=56, velocity=86, time=0),
    Message('note_off', channel=11, note=56, velocity=80, time=1440),
    Message('note_on', channel=12, note=60, velocity=95, time=0),
    Message('pitchwheel', channel=12, pitch=-640, time=240),
    Message('note_off', channel=12, note=60, velocity=80, time=240),
    Message('pitchwheel', channel=12, pitch=0, time=0),
    Message('note_on', channel=11, note=58, velocity=86, time=0),
    Message('note_off', channel=11, note=58, velocity=80, time=1440),
    Message('note_on', channel=12, note=55, velocity=95, time=0),
    Message('pitchwheel', channel=12, pitch=640, time=384),
    Message('note_off', channel=12, note=55, velocity=80, time=96),
    Message('pitchwheel', channel=12, pitch=0, time=0),
    Message('note_on', channel=11, note=56, velocity=86, time=0),
    Message('note_off', channel=11, note=56, velocity=80, time=1440),
    Message('note_on', channel=12, note=56, velocity=95, time=0),
    Message('pitchwheel', channel=12, pitch=-640, time=480),
    Message('pitchwheel', channel=12, pitch=-1408, time=160),
    Message('pitchwheel', channel=12, pitch=-2048, time=160),
    Message('note_off', channel=12, note=56, velocity=80, time=160),
    Message('pitchwheel', channel=12, pitch=0, time=0),
    Message('note_on', channel=11, note=53, velocity=95, time=0),
    Message('note_off', channel=11, note=53, velocity=80, time=960),
    Message('note_on', channel=12, note=55, velocity=95, time=0),
    Message('pitchwheel', channel=12, pitch=640, time=384),
    Message('note_off', channel=12, note=55, velocity=80, time=96),
    Message('pitchwheel', channel=12, pitch=0, time=0),
    Message('note_on', channel=11, note=56, velocity=86, time=0),
    Message('note_off', channel=11, note=56, velocity=80, time=1440),
    Message('note_on', channel=12, note=60, velocity=95, time=0),
    Message('pitchwheel', channel=12, pitch=-640, time=240),
    Message('note_off', channel=12, note=60, velocity=80, time=240),
    Message('pitchwheel', channel=12, pitch=0, time=0),
    Message('note_on', channel=11, note=58, velocity=86, time=0),
    Message('note_off', channel=11, note=58, velocity=80, time=960),
    Message('note_on', channel=11, note=56, velocity=95, time=0),
    Message('note_off', channel=11, note=56, velocity=80, time=480),
    Message('note_on', channel=11, note=58, velocity=95, time=0),
    Message('note_off', channel=11, note=58, velocity=80, time=480),
    Message('note_on', channel=11, note=56, velocity=95, time=0),
    Message('note_off', channel=11, note=56, velocity=80, time=240),
    Message('note_on', channel=11, note=58, velocity=95, time=0),
    Message('note_off', channel=11, note=58, velocity=80, time=480),
    Message('note_on', channel=11, note=58, velocity=95, time=0),
    Message('note_off', channel=11, note=58, velocity=80, time=240),
    Message('note_on', channel=11, note=60, velocity=95, time=0),
    Message('note_off', channel=11, note=60, velocity=80, time=480),
    Message('note_on', channel=11, note=58, velocity=95, time=0),
    Message('note_off', channel=11, note=58, velocity=80, time=480),
    Message('note_on', channel=11, note=53, velocity=95, time=0),
    Message('note_off', channel=11, note=53, velocity=80, time=480),
    Message('note_on', channel=11, note=53, velocity=95, time=35040),
    Message('note_off', channel=11, note=53, velocity=80, time=480),
    Message('note_on', channel=11, note=53, velocity=95, time=0),
    Message('note_off', channel=11, note=53, velocity=80, time=480),
    Message('note_on', channel=11, note=55, velocity=95, time=0),
    Message('note_off', channel=11, note=55, velocity=80, time=480),
    Message('note_on', channel=11, note=56, velocity=95, time=0),
    Message('note_off', channel=11, note=56, velocity=80, time=480),
    Message('note_on', channel=11, note=63, velocity=95, time=0),
    Message('note_off', channel=11, note=63, velocity=80, time=480),
    Message('note_on', channel=11, note=60, velocity=95, time=0),
    Message('note_off', channel=11, note=60, velocity=80, time=480),
    Message('note_on', channel=11, note=58, velocity=95, time=480),
    Message('note_off', channel=11, note=58, velocity=80, time=480),
    Message('note_on', channel=11, note=56, velocity=95, time=0),
    Message('note_off', channel=11, note=56, velocity=80, time=480),
    Message('note_on', channel=11, note=58, velocity=95, time=0),
    Message('note_off', channel=11, note=58, velocity=80, time=480),
    Message('note_on', channel=11, note=56, velocity=95, time=0),
    Message('note_off', channel=11, note=56, velocity=80, time=480),
    Message('note_on', channel=11, note=58, velocity=95, time=0),
    Message('note_off', channel=11, note=58, velocity=80, time=480),
    Message('note_on', channel=11, note=60, velocity=95, time=0),
    Message('note_off', channel=11, note=60, velocity=80, time=480),
    Message('note_on', channel=11, note=58, velocity=95, time=0),
    Message('note_off', channel=11, note=58, velocity=80, time=480),
    Message('note_on', channel=11, note=56, velocity=95, time=0),
    Message('note_off', channel=11, note=56, velocity=80, time=240),
    Message('note_on', channel=11, note=53, velocity=95, time=0),
    Message('note_off', channel=11, note=53, velocity=80, time=720),
    Message('note_on', channel=11, note=53, velocity=95, time=480),
    Message('note_off', channel=11, note=53, velocity=80, time=480),
    Message('note_on', channel=11, note=55, velocity=95, time=0),
    Message('note_off', channel=11, note=55, velocity=80, time=480),
    Message('note_on', channel=11, note=56, velocity=95, time=0),
    Message('note_off', channel=11, note=56, velocity=80, time=480),
    Message('note_on', channel=11, note=63, velocity=95, time=0),
    Message('note_off', channel=11, note=63, velocity=80, time=480),
    Message('note_on', channel=11, note=60, velocity=95, time=0),
    Message('note_off', channel=11, note=60, velocity=80, time=480),
    Message('note_on', channel=11, note=56, velocity=95, time=240),
    Message('note_off', channel=11, note=56, velocity=80, time=240),
    Message('note_on', channel=11, note=58, velocity=95, time=0),
    Message('note_off', channel=11, note=58, velocity=80, time=480),
    Message('note_on', channel=11, note=56, velocity=95, time=0),
    Message('note_off', channel=11, note=56, velocity=80, time=480),
    Message('note_on', channel=11, note=58, velocity=95, time=0),
    Message('note_off', channel=11, note=58, velocity=80, time=480),
    Message('note_on', channel=11, note=56, velocity=95, time=0),
    Message('note_off', channel=11, note=56, velocity=80, time=240),
    Message('note_on', channel=11, note=58, velocity=95, time=0),
    Message('note_off', channel=11, note=58, velocity=80, time=480),
    Message('note_on', channel=11, note=58, velocity=95, time=0),
    Message('note_off', channel=11, note=58, velocity=80, time=240),
    Message('note_on', channel=11, note=60, velocity=95, time=0),
    Message('note_off', channel=11, note=60, velocity=80, time=480),
    Message('note_on', channel=11, note=58, velocity=95, time=0),
    Message('note_off', channel=11, note=58, velocity=80, time=480),
    Message('note_on', channel=11, note=56, velocity=95, time=0),
    Message('note_off', channel=11, note=56, velocity=80, time=1440),
    Message('note_on', channel=11, note=65, velocity=95, time=0),
    Message('note_off', channel=11, note=65, velocity=80, time=480),
    Message('note_on', channel=11, note=63, velocity=95, time=0),
    Message('note_off', channel=11, note=63, velocity=80, time=960),
    Message('note_on', channel=11, note=56, velocity=95, time=0),
    Message('note_off', channel=11, note=56, velocity=80, time=960),
    Message('note_on', channel=11, note=58, velocity=95, time=0),
    Message('note_off', channel=11, note=58, velocity=80, time=960),
    Message('note_on', channel=11, note=56, velocity=95, time=0),
    Message('note_off', channel=11, note=56, velocity=80, time=480),
    Message('note_on', channel=11, note=58, velocity=95, time=0),
    Message('note_off', channel=11, note=58, velocity=80, time=480),
    Message('note_on', channel=11, note=56, velocity=95, time=0),
    Message('note_off', channel=11, note=56, velocity=80, time=240),
    Message('note_on', channel=11, note=58, velocity=95, time=0),
    Message('note_off', channel=11, note=58, velocity=80, time=480),
    Message('note_on', channel=11, note=58, velocity=95, time=0),
    Message('note_off', channel=11, note=58, velocity=80, time=240),
    Message('note_on', channel=11, note=60, velocity=95, time=0),
    Message('note_off', channel=11, note=60, velocity=80, time=480),
    Message('note_on', channel=11, note=58, velocity=95, time=0),
    Message('note_off', channel=11, note=58, velocity=80, time=480),
    Message('note_on', channel=11, note=53, velocity=95, time=0),
    Message('note_off', channel=11, note=53, velocity=80, time=480),
    Message('note_on', channel=11, note=65, velocity=95, time=960),
    Message('note_off', channel=11, note=65, velocity=80, time=480),
    Message('note_on', channel=11, note=63, velocity=95, time=0),
    Message('note_off', channel=11, note=63, velocity=80, time=960),
    Message('note_on', channel=11, note=56, velocity=95, time=0),
    Message('note_off', channel=11, note=56, velocity=80, time=960),
    Message('note_on', channel=11, note=58, velocity=95, time=0),
    Message('note_off', channel=11, note=58, velocity=80, time=960),
    Message('note_on', channel=11, note=56, velocity=95, time=0),
    Message('note_off', channel=11, note=56, velocity=80, time=480),
    Message('note_on', channel=11, note=58, velocity=95, time=0),
    Message('note_off', channel=11, note=58, velocity=80, time=480),
    Message('note_on', channel=11, note=56, velocity=95, time=0),
    Message('note_off', channel=11, note=56, velocity=80, time=240),
    Message('note_on', channel=11, note=58, velocity=95, time=0),
    Message('note_off', channel=11, note=58, velocity=80, time=720),
    Message('note_on', channel=11, note=60, velocity=95, time=0),
    Message('note_off', channel=11, note=60, velocity=80, time=480),
    Message('note_on', channel=11, note=58, velocity=95, time=0),
    Message('note_off', channel=11, note=58, velocity=80, time=480),
    Message('note_on', channel=11, note=53, velocity=95, time=0),
    Message('note_off', channel=11, note=53, velocity=80, time=480),
    Message('note_on', channel=11, note=65, velocity=95, time=960),
    Message('note_off', channel=11, note=65, velocity=80, time=480),
    Message('note_on', channel=11, note=63, velocity=95, time=0),
    Message('note_off', channel=11, note=63, velocity=80, time=960),
    Message('note_on', channel=11, note=56, velocity=95, time=0),
    Message('note_off', channel=11, note=56, velocity=80, time=960),
    Message('note_on', channel=11, note=58, velocity=95, time=0),
    Message('note_off', channel=11, note=58, velocity=80, time=960),
    Message('note_on', channel=11, note=56, velocity=95, time=0),
    Message('note_off', channel=11, note=56, velocity=80, time=480),
    Message('note_on', channel=11, note=58, velocity=95, time=0),
    Message('note_off', channel=11, note=58, velocity=80, time=480),
    Message('note_on', channel=11, note=56, velocity=95, time=0),
    Message('note_off', channel=11, note=56, velocity=80, time=240),
    Message('note_on', channel=11, note=58, velocity=95, time=0),
    Message('note_off', channel=11, note=58, velocity=80, time=720),
    Message('note_on', channel=11, note=60, velocity=95, time=0),
    Message('note_off', channel=11, note=60, velocity=80, time=480),
    Message('note_on', channel=11, note=58, velocity=95, time=0),
    Message('note_off', channel=11, note=58, velocity=80, time=480),
    Message('note_on', channel=11, note=53, velocity=95, time=0),
    Message('note_off', channel=11, note=53, velocity=80, time=480),
    Message('note_on', channel=11, note=65, velocity=95, time=960),
    Message('note_off', channel=11, note=65, velocity=80, time=480),
    Message('note_on', channel=11, note=63, velocity=95, time=0),
    Message('note_off', channel=11, note=63, velocity=80, time=960),
    Message('note_on', channel=11, note=60, velocity=95, time=0),
    Message('note_off', channel=11, note=60, velocity=80, time=960),
    Message('note_on', channel=12, note=63, velocity=95, time=0),
    Message('pitchwheel', channel=12, pitch=0, time=0),
    Message('pitchwheel', channel=12, pitch=128, time=96),
    Message('pitchwheel', channel=12, pitch=256, time=192),
    Message('pitchwheel', channel=12, pitch=384, time=176),
    Message('pitchwheel', channel=12, pitch=512, time=160),
    Message('pitchwheel', channel=12, pitch=640, time=192),
    Message('note_off', channel=12, note=63, velocity=80, time=144),
    Message('pitchwheel', channel=12, pitch=0, time=0),
    Message('note_on', channel=11, note=60, velocity=95, time=0),
    Message('note_off', channel=11, note=60, velocity=80, time=480),
    Message('note_on', channel=11, note=60, velocity=95, time=0),
    Message('note_off', channel=11, note=60, velocity=80, time=960),
    MetaMessage('end_of_track', time=0)]),
  MidiTrack([
    MetaMessage('track_name', name='Billie Joe Armstrong (Guitar 1)', time=0),
    Message('control_change', channel=0, control=100, value=0, time=0),
    Message('control_change', channel=0, control=101, value=0, time=0),
    Message('control_change', channel=0, control=6, value=12, time=0),
    Message('pitchwheel', channel=0, pitch=0, time=0),
    Message('control_change', channel=1, control=100, value=0, time=0),
    Message('control_change', channel=1, control=101, value=0, time=0),
    Message('control_change', channel=1, control=6, value=12, time=0),
    Message('pitchwheel', channel=1, pitch=0, time=0),
    Message('program_change', channel=0, program=29, time=0),
    Message('program_change', channel=1, program=29, time=0),
    Message('control_change', channel=0, control=7, value=96, time=0),
    Message('control_change', channel=1, control=7, value=96, time=0),
    Message('control_change', channel=0, control=10, value=64, time=0),
    Message('control_change', channel=1, control=10, value=64, time=0),
    Message('control_change', channel=0, control=93, value=0, time=0),
    Message('control_change', channel=1, control=93, value=0, time=0),
    Message('control_change', channel=0, control=91, value=0, time=0),
    Message('control_change', channel=1, control=91, value=0, time=0),
    Message('control_change', channel=0, control=92, value=0, time=0),
    Message('control_change', channel=1, control=92, value=0, time=0),
    Message('control_change', channel=0, control=95, value=0, time=0),
    Message('control_change', channel=1, control=95, value=0, time=0),
    Message('note_on', channel=0, note=53, velocity=57, time=0),
    Message('note_on', channel=0, note=48, velocity=57, time=0),
    Message('note_on', channel=0, note=41, velocity=57, time=0),
    Message('note_off', channel=0, note=53, velocity=80, time=120),
    Message('note_off', channel=0, note=48, velocity=80, time=0),
    Message('note_off', channel=0, note=41, velocity=80, time=0),
    Message('note_on', channel=0, note=53, velocity=57, time=120),
    Message('note_on', channel=0, note=48, velocity=57, time=0),
    Message('note_on', channel=0, note=41, velocity=57, time=0),
    Message('note_off', channel=0, note=53, velocity=80, time=120),
    Message('note_off', channel=0, note=48, velocity=80, time=0),
    Message('note_off', channel=0, note=41, velocity=80, time=0),
    Message('note_on', channel=0, note=53, velocity=57, time=120),
    Message('note_on', channel=0, note=48, velocity=57, time=0),
    Message('note_on', channel=0, note=41, velocity=57, time=0),
    Message('note_off', channel=0, note=53, velocity=80, time=120),
    Message('note_off', channel=0, note=48, velocity=80, time=0),
    Message('note_off', channel=0, note=41, velocity=80, time=0),
    Message('note_on', channel=0, note=53, velocity=57, time=120),
    Message('note_on', channel=0, note=48, velocity=57, time=0),
    Message('note_on', channel=0, note=41, velocity=57, time=0),
    Message('note_off', channel=0, note=53, velocity=80, time=120),
    Message('note_off', channel=0, note=48, velocity=80, time=0),
    Message('note_off', channel=0, note=41, velocity=80, time=0),
    Message('note_on', channel=0, note=53, velocity=57, time=120),
    Message('note_on', channel=0, note=48, velocity=57, time=0),
    Message('note_on', channel=0, note=41, velocity=57, time=0),
    Message('note_off', channel=0, note=53, velocity=80, time=120),
    Message('note_off', channel=0, note=48, velocity=80, time=0),
    Message('note_off', channel=0, note=41, velocity=80, time=0),
    Message('note_on', channel=0, note=53, velocity=57, time=120),
    Message('note_on', channel=0, note=48, velocity=57, time=0),
    Message('note_on', channel=0, note=41, velocity=57, time=0),
    Message('note_off', channel=0, note=53, velocity=80, time=120),
    Message('note_off', channel=0, note=48, velocity=80, time=0),
    Message('note_off', channel=0, note=41, velocity=80, time=0),
    Message('note_on', channel=0, note=53, velocity=57, time=120),
    Message('note_on', channel=0, note=48, velocity=57, time=0),
    Message('note_on', channel=0, note=41, velocity=57, time=0),
    Message('note_off', channel=0, note=53, velocity=80, time=120),
    Message('note_off', channel=0, note=48, velocity=80, time=0),
    Message('note_off', channel=0, note=41, velocity=80, time=0),
    Message('note_on', channel=0, note=53, velocity=57, time=120),
    Message('note_on', channel=0, note=48, velocity=57, time=0),
    Message('note_on', channel=0, note=41, velocity=57, time=0),
    Message('note_off', channel=0, note=53, velocity=80, time=120),
    Message('note_off', channel=0, note=48, velocity=80, time=0),
    Message('note_off', channel=0, note=41, velocity=80, time=0),
    Message('note_on', channel=0, note=56, velocity=57, time=120),
    Message('note_on', channel=0, note=51, velocity=57, time=0),
    Message('note_on', channel=0, note=44, velocity=57, time=0),
    Message('note_off', channel=0, note=56, velocity=80, time=120),
    Message('note_off', channel=0, note=51, velocity=80, time=0),
    Message('note_off', channel=0, note=44, velocity=80, time=0),
    Message('note_on', channel=0, note=56, velocity=57, time=120),
    Message('note_on', channel=0, note=51, velocity=57, time=0),
    Message('note_on', channel=0, note=44, velocity=57, time=0),
    Message('note_off', channel=0, note=56, velocity=80, time=120),
    Message('note_off', channel=0, note=51, velocity=80, time=0),
    Message('note_off', channel=0, note=44, velocity=80, time=0),
    Message('note_on', channel=0, note=56, velocity=57, time=120),
    Message('note_on', channel=0, note=51, velocity=57, time=0),
    Message('note_on', channel=0, note=44, velocity=57, time=0),
    Message('note_off', channel=0, note=56, velocity=80, time=120),
    Message('note_off', channel=0, note=51, velocity=80, time=0),
    Message('note_off', channel=0, note=44, velocity=80, time=0),
    Message('note_on', channel=0, note=56, velocity=57, time=120),
    Message('note_on', channel=0, note=51, velocity=57, time=0),
    Message('note_on', channel=0, note=44, velocity=57, time=0),
    Message('note_off', channel=0, note=56, velocity=80, time=120),
    Message('note_off', channel=0, note=51, velocity=80, time=0),
    Message('note_off', channel=0, note=44, velocity=80, time=0),
    Message('note_on', channel=0, note=56, velocity=57, time=120),
    Message('note_on', channel=0, note=51, velocity=57, time=0),
    Message('note_on', channel=0, note=44, velocity=57, time=0),
    Message('note_off', channel=0, note=56, velocity=80, time=120),
    Message('note_off', channel=0, note=51, velocity=80, time=0),
    Message('note_off', channel=0, note=44, velocity=80, time=0),
    Message('note_on', channel=0, note=56, velocity=57, time=120),
    Message('note_on', channel=0, note=51, velocity=57, time=0),
    Message('note_on', channel=0, note=44, velocity=57, time=0),
    Message('note_off', channel=0, note=56, velocity=80, time=120),
    Message('note_off', channel=0, note=51, velocity=80, time=0),
    Message('note_off', channel=0, note=44, velocity=80, time=0),
    Message('note_on', channel=0, note=56, velocity=57, time=120),
    Message('note_on', channel=0, note=51, velocity=57, time=0),
    Message('note_on', channel=0, note=44, velocity=57, time=0),
    Message('note_off', channel=0, note=56, velocity=80, time=120),
    Message('note_off', channel=0, note=51, velocity=80, time=0),
    Message('note_off', channel=0, note=44, velocity=80, time=0),
    Message('note_on', channel=0, note=56, velocity=57, time=120),
    Message('note_on', channel=0, note=51, velocity=57, time=0),
    Message('note_on', channel=0, note=44, velocity=57, time=0),
    Message('note_off', channel=0, note=56, velocity=80, time=120),
    Message('note_off', channel=0, note=51, velocity=80, time=0),
    Message('note_off', channel=0, note=44, velocity=80, time=0),
    Message('note_on', channel=0, note=63, velocity=57, time=120),
    Message('note_on', channel=0, note=58, velocity=57, time=0),
    Message('note_on', channel=0, note=51, velocity=57, time=0),
    Message('note_off', channel=0, note=63, velocity=80, time=120),
    Message('note_off', channel=0, note=58, velocity=80, time=0),
    Message('note_off', channel=0, note=51, velocity=80, time=0),
    Message('note_on', channel=0, note=63, velocity=57, time=120),
    Message('note_on', channel=0, note=58, velocity=57, time=0),
    Message('note_on', channel=0, note=51, velocity=57, time=0),
    Message('note_off', channel=0, note=63, velocity=80, time=120),
    Message('note_off', channel=0, note=58, velocity=80, time=0),
    Message('note_off', channel=0, note=51, velocity=80, time=0),
    Message('note_on', channel=0, note=63, velocity=57, time=120),
    Message('note_on', channel=0, note=58, velocity=57, time=0),
    Message('note_on', channel=0, note=51, velocity=57, time=0),
    Message('note_off', channel=0, note=63, velocity=80, time=120),
    Message('note_off', channel=0, note=58, velocity=80, time=0),
    Message('note_off', channel=0, note=51, velocity=80, time=0),
    Message('note_on', channel=0, note=63, velocity=57, time=120),
    Message('note_on', channel=0, note=58, velocity=57, time=0),
    Message('note_on', channel=0, note=51, velocity=57, time=0),
    Message('note_off', channel=0, note=63, velocity=80, time=120),
    Message('note_off', channel=0, note=58, velocity=80, time=0),
    Message('note_off', channel=0, note=51, velocity=80, time=0),
    Message('note_on', channel=0, note=63, velocity=57, time=120),
    Message('note_on', channel=0, note=58, velocity=57, time=0),
    Message('note_on', channel=0, note=51, velocity=57, time=0),
    Message('note_off', channel=0, note=63, velocity=80, time=120),
    Message('note_off', channel=0, note=58, velocity=80, time=0),
    Message('note_off', channel=0, note=51, velocity=80, time=0),
    Message('note_on', channel=0, note=63, velocity=57, time=120),
    Message('note_on', channel=0, note=58, velocity=57, time=0),
    Message('note_on', channel=0, note=51, velocity=57, time=0),
    Message('note_off', channel=0, note=63, velocity=80, time=120),
    Message('note_off', channel=0, note=58, velocity=80, time=0),
    Message('note_off', channel=0, note=51, velocity=80, time=0),
    Message('note_on', channel=0, note=63, velocity=57, time=120),
    Message('note_on', channel=0, note=58, velocity=57, time=0),
    Message('note_on', channel=0, note=51, velocity=57, time=0),
    Message('note_off', channel=0, note=63, velocity=80, time=120),
    Message('note_off', channel=0, note=58, velocity=80, time=0),
    Message('note_off', channel=0, note=51, velocity=80, time=0),
    Message('note_on', channel=0, note=63, velocity=57, time=120),
    Message('note_on', channel=0, note=58, velocity=57, time=0),
    Message('note_on', channel=0, note=51, velocity=57, time=0),
    Message('note_off', channel=0, note=63, velocity=80, time=120),
    Message('note_off', channel=0, note=58, velocity=80, time=0),
    Message('note_off', channel=0, note=51, velocity=80, time=0),
    Message('note_on', channel=0, note=58, velocity=57, time=120),
    Message('note_on', channel=0, note=53, velocity=57, time=0),
    Message('note_on', channel=0, note=46, velocity=57, time=0),
    Message('note_off', channel=0, note=58, velocity=80, time=120),
    Message('note_off', channel=0, note=53, velocity=80, time=0),
    Message('note_off', channel=0, note=46, velocity=80, time=0),
    Message('note_on', channel=0, note=58, velocity=57, time=120),
    Message('note_on', channel=0, note=53, velocity=57, time=0),
    Message('note_on', channel=0, note=46, velocity=57, time=0),
    Message('note_off', channel=0, note=58, velocity=80, time=120),
    Message('note_off', channel=0, note=53, velocity=80, time=0),
    Message('note_off', channel=0, note=46, velocity=80, time=0),
    Message('note_on', channel=0, note=58, velocity=57, time=120),
    Message('note_on', channel=0, note=53, velocity=57, time=0),
    Message('note_on', channel=0, note=46, velocity=57, time=0),
    Message('note_off', channel=0, note=58, velocity=80, time=120),
    Message('note_off', channel=0, note=53, velocity=80, time=0),
    Message('note_off', channel=0, note=46, velocity=80, time=0),
    Message('note_on', channel=0, note=58, velocity=57, time=120),
    Message('note_on', channel=0, note=53, velocity=57, time=0),
    Message('note_on', channel=0, note=46, velocity=57, time=0),
    Message('note_off', channel=0, note=58, velocity=80, time=120),
    Message('note_off', channel=0, note=53, velocity=80, time=0),
    Message('note_off', channel=0, note=46, velocity=80, time=0),
    Message('note_on', channel=0, note=58, velocity=57, time=120),
    Message('note_on', channel=0, note=53, velocity=57, time=0),
    Message('note_on', channel=0, note=46, velocity=57, time=0),
    Message('note_off', channel=0, note=58, velocity=80, time=120),
    Message('note_off', channel=0, note=53, velocity=80, time=0),
    Message('note_off', channel=0, note=46, velocity=80, time=0),
    Message('note_on', channel=0, note=58, velocity=57, time=120),
    Message('note_on', channel=0, note=53, velocity=57, time=0),
    Message('note_on', channel=0, note=46, velocity=57, time=0),
    Message('note_off', channel=0, note=58, velocity=80, time=120),
    Message('note_off', channel=0, note=53, velocity=80, time=0),
    Message('note_off', channel=0, note=46, velocity=80, time=0),
    Message('note_on', channel=0, note=58, velocity=57, time=120),
    Message('note_on', channel=0, note=53, velocity=57, time=0),
    Message('note_on', channel=0, note=46, velocity=57, time=0),
    Message('note_off', channel=0, note=58, velocity=80, time=120),
    Message('note_off', channel=0, note=53, velocity=80, time=0),
    Message('note_off', channel=0, note=46, velocity=80, time=0),
    Message('note_on', channel=0, note=58, velocity=57, time=120),
    Message('note_on', channel=0, note=53, velocity=57, time=0),
    Message('note_on', channel=0, note=46, velocity=57, time=0),
    Message('note_off', channel=0, note=58, velocity=80, time=120),
    Message('note_off', channel=0, note=53, velocity=80, time=0),
    Message('note_off', channel=0, note=46, velocity=80, time=0),
    Message('note_on', channel=0, note=53, velocity=57, time=120),
    Message('note_on', channel=0, note=48, velocity=57, time=0),
    Message('note_on', channel=0, note=41, velocity=57, time=0),
    Message('note_off', channel=0, note=53, velocity=80, time=120),
    Message('note_off', channel=0, note=48, velocity=80, time=0),
    Message('note_off', channel=0, note=41, velocity=80, time=0),
    Message('note_on', channel=0, note=53, velocity=57, time=120),
    Message('note_on', channel=0, note=48, velocity=57, time=0),
    Message('note_on', channel=0, note=41, velocity=57, time=0),
    Message('note_off', channel=0, note=53, velocity=80, time=120),
    Message('note_off', channel=0, note=48, velocity=80, time=0),
    Message('note_off', channel=0, note=41, velocity=80, time=0),
    Message('note_on', channel=0, note=53, velocity=57, time=120),
    Message('note_on', channel=0, note=48, velocity=57, time=0),
    Message('note_on', channel=0, note=41, velocity=57, time=0),
    Message('note_off', channel=0, note=53, velocity=80, time=120),
    Message('note_off', channel=0, note=48, velocity=80, time=0),
    Message('note_off', channel=0, note=41, velocity=80, time=0),
    Message('note_on', channel=0, note=53, velocity=57, time=120),
    Message('note_on', channel=0, note=48, velocity=57, time=0),
    Message('note_on', channel=0, note=41, velocity=57, time=0),
    Message('note_off', channel=0, note=53, velocity=80, time=120),
    Message('note_off', channel=0, note=48, velocity=80, time=0),
    Message('note_off', channel=0, note=41, velocity=80, time=0),
    Message('note_on', channel=0, note=53, velocity=57, time=120),
    Message('note_on', channel=0, note=48, velocity=57, time=0),
    Message('note_on', channel=0, note=41, velocity=57, time=0),
    Message('note_off', channel=0, note=53, velocity=80, time=120),
    Message('note_off', channel=0, note=48, velocity=80, time=0),
    Message('note_off', channel=0, note=41, velocity=80, time=0),
    Message('note_on', channel=0, note=53, velocity=57, time=120),
    Message('note_on', channel=0, note=48, velocity=57, time=0),
    Message('note_on', channel=0, note=41, velocity=57, time=0),
    Message('note_off', channel=0, note=53, velocity=80, time=120),
    Message('note_off', channel=0, note=48, velocity=80, time=0),
    Message('note_off', channel=0, note=41, velocity=80, time=0),
    Message('note_on', channel=0, note=53, velocity=57, time=120),
    Message('note_on', channel=0, note=48, velocity=57, time=0),
    Message('note_on', channel=0, note=41, velocity=57, time=0),
    Message('note_off', channel=0, note=53, velocity=80, time=120),
    Message('note_off', channel=0, note=48, velocity=80, time=0),
    Message('note_off', channel=0, note=41, velocity=80, time=0),
    Message('note_on', channel=0, note=53, velocity=57, time=120),
    Message('note_on', channel=0, note=48, velocity=57, time=0),
    Message('note_on', channel=0, note=41, velocity=57, time=0),
    Message('note_off', channel=0, note=53, velocity=80, time=120),
    Message('note_off', channel=0, note=48, velocity=80, time=0),
    Message('note_off', channel=0, note=41, velocity=80, time=0),
    Message('note_on', channel=0, note=56, velocity=57, time=120),
    Message('note_on', channel=0, note=51, velocity=57, time=0),
    Message('note_on', channel=0, note=44, velocity=57, time=0),
    Message('note_off', channel=0, note=56, velocity=80, time=120),
    Message('note_off', channel=0, note=51, velocity=80, time=0),
    Message('note_off', channel=0, note=44, velocity=80, time=0),
    Message('note_on', channel=0, note=56, velocity=57, time=120),
    Message('note_on', channel=0, note=51, velocity=57, time=0),
    Message('note_on', channel=0, note=44, velocity=57, time=0),
    Message('note_off', channel=0, note=56, velocity=80, time=120),
    Message('note_off', channel=0, note=51, velocity=80, time=0),
    Message('note_off', channel=0, note=44, velocity=80, time=0),
    Message('note_on', channel=0, note=56, velocity=57, time=120),
    Message('note_on', channel=0, note=51, velocity=57, time=0),
    Message('note_on', channel=0, note=44, velocity=57, time=0),
    Message('note_off', channel=0, note=56, velocity=80, time=120),
    Message('note_off', channel=0, note=51, velocity=80, time=0),
    Message('note_off', channel=0, note=44, velocity=80, time=0),
    Message('note_on', channel=0, note=56, velocity=57, time=120),
    Message('note_on', channel=0, note=51, velocity=57, time=0),
    Message('note_on', channel=0, note=44, velocity=57, time=0),
    Message('note_off', channel=0, note=56, velocity=80, time=120),
    Message('note_off', channel=0, note=51, velocity=80, time=0),
    Message('note_off', channel=0, note=44, velocity=80, time=0),
    Message('note_on', channel=0, note=56, velocity=57, time=120),
    Message('note_on', channel=0, note=51, velocity=57, time=0),
    Message('note_on', channel=0, note=44, velocity=57, time=0),
    Message('note_off', channel=0, note=56, velocity=80, time=120),
    Message('note_off', channel=0, note=51, velocity=80, time=0),
    Message('note_off', channel=0, note=44, velocity=80, time=0),
    Message('note_on', channel=0, note=56, velocity=57, time=120),
    Message('note_on', channel=0, note=51, velocity=57, time=0),
    Message('note_on', channel=0, note=44, velocity=57, time=0),
    Message('note_off', channel=0, note=56, velocity=80, time=120),
    Message('note_off', channel=0, note=51, velocity=80, time=0),
    Message('note_off', channel=0, note=44, velocity=80, time=0),
    Message('note_on', channel=0, note=56, velocity=57, time=120),
    Message('note_on', channel=0, note=51, velocity=57, time=0),
    Message('note_on', channel=0, note=44, velocity=57, time=0),
    Message('note_off', channel=0, note=56, velocity=80, time=120),
    Message('note_off', channel=0, note=51, velocity=80, time=0),
    Message('note_off', channel=0, note=44, velocity=80, time=0),
    Message('note_on', channel=0, note=56, velocity=57, time=120),
    Message('note_on', channel=0, note=51, velocity=57, time=0),
    Message('note_on', channel=0, note=44, velocity=57, time=0),
    Message('note_off', channel=0, note=56, velocity=80, time=120),
    Message('note_off', channel=0, note=51, velocity=80, time=0),
    Message('note_off', channel=0, note=44, velocity=80, time=0),
    Message('note_on', channel=0, note=63, velocity=57, time=120),
    Message('note_on', channel=0, note=58, velocity=57, time=0),
    Message('note_on', channel=0, note=51, velocity=57, time=0),
    Message('note_off', channel=0, note=63, velocity=80, time=120),
    Message('note_off', channel=0, note=58, velocity=80, time=0),
    Message('note_off', channel=0, note=51, velocity=80, time=0),
    Message('note_on', channel=0, note=63, velocity=57, time=120),
    Message('note_on', channel=0, note=58, velocity=57, time=0),
    Message('note_on', channel=0, note=51, velocity=57, time=0),
    Message('note_off', channel=0, note=63, velocity=80, time=120),
    Message('note_off', channel=0, note=58, velocity=80, time=0),
    Message('note_off', channel=0, note=51, velocity=80, time=0),
    Message('note_on', channel=0, note=63, velocity=57, time=120),
    Message('note_on', channel=0, note=58, velocity=57, time=0),
    Message('note_on', channel=0, note=51, velocity=57, time=0),
    Message('note_off', channel=0, note=63, velocity=80, time=120),
    Message('note_off', channel=0, note=58, velocity=80, time=0),
    Message('note_off', channel=0, note=51, velocity=80, time=0),
    Message('note_on', channel=0, note=63, velocity=57, time=120),
    Message('note_on', channel=0, note=58, velocity=57, time=0),
    Message('note_on', channel=0, note=51, velocity=57, time=0),
    Message('note_off', channel=0, note=63, velocity=80, time=120),
    Message('note_off', channel=0, note=58, velocity=80, time=0),
    Message('note_off', channel=0, note=51, velocity=80, time=0),
    Message('note_on', channel=0, note=63, velocity=57, time=120),
    Message('note_on', channel=0, note=58, velocity=57, time=0),
    Message('note_on', channel=0, note=51, velocity=57, time=0),
    Message('note_off', channel=0, note=63, velocity=80, time=120),
    Message('note_off', channel=0, note=58, velocity=80, time=0),
    Message('note_off', channel=0, note=51, velocity=80, time=0),
    Message('note_on', channel=0, note=63, velocity=57, time=120),
    Message('note_on', channel=0, note=58, velocity=57, time=0),
    Message('note_on', channel=0, note=51, velocity=57, time=0),
    Message('note_off', channel=0, note=63, velocity=80, time=120),
    Message('note_off', channel=0, note=58, velocity=80, time=0),
    Message('note_off', channel=0, note=51, velocity=80, time=0),
    Message('note_on', channel=0, note=63, velocity=57, time=120),
    Message('note_on', channel=0, note=58, velocity=57, time=0),
    Message('note_on', channel=0, note=51, velocity=57, time=0),
    Message('note_off', channel=0, note=63, velocity=80, time=120),
    Message('note_off', channel=0, note=58, velocity=80, time=0),
    Message('note_off', channel=0, note=51, velocity=80, time=0),
    Message('note_on', channel=0, note=63, velocity=57, time=120),
    Message('note_on', channel=0, note=58, velocity=57, time=0),
    Message('note_on', channel=0, note=51, velocity=57, time=0),
    Message('note_off', channel=0, note=63, velocity=80, time=120),
    Message('note_off', channel=0, note=58, velocity=80, time=0),
    Message('note_off', channel=0, note=51, velocity=80, time=0),
    Message('note_on', channel=0, note=58, velocity=57, time=120),
    Message('note_on', channel=0, note=53, velocity=57, time=0),
    Message('note_on', channel=0, note=46, velocity=57, time=0),
    Message('note_off', channel=0, note=58, velocity=80, time=120),
    Message('note_off', channel=0, note=53, velocity=80, time=0),
    Message('note_off', channel=0, note=46, velocity=80, time=0),
    Message('note_on', channel=0, note=58, velocity=57, time=120),
    Message('note_on', channel=0, note=53, velocity=57, time=0),
    Message('note_on', channel=0, note=46, velocity=57, time=0),
    Message('note_off', channel=0, note=58, velocity=80, time=120),
    Message('note_off', channel=0, note=53, velocity=80, time=0),
    Message('note_off', channel=0, note=46, velocity=80, time=0),
    Message('note_on', channel=0, note=58, velocity=57, time=120),
    Message('note_on', channel=0, note=53, velocity=57, time=0),
    Message('note_on', channel=0, note=46, velocity=57, time=0),
    Message('note_off', channel=0, note=58, velocity=80, time=120),
    Message('note_off', channel=0, note=53, velocity=80, time=0),
    Message('note_off', channel=0, note=46, velocity=80, time=0),
    Message('note_on', channel=0, note=58, velocity=57, time=120),
    Message('note_on', channel=0, note=53, velocity=57, time=0),
    Message('note_on', channel=0, note=46, velocity=57, time=0),
    Message('note_off', channel=0, note=58, velocity=80, time=120),
    Message('note_off', channel=0, note=53, velocity=80, time=0),
    Message('note_off', channel=0, note=46, velocity=80, time=0),
    Message('note_on', channel=0, note=58, velocity=57, time=120),
    Message('note_on', channel=0, note=53, velocity=57, time=0),
    Message('note_on', channel=0, note=46, velocity=57, time=0),
    Message('note_off', channel=0, note=58, velocity=80, time=120),
    Message('note_off', channel=0, note=53, velocity=80, time=0),
    Message('note_off', channel=0, note=46, velocity=80, time=0),
    Message('note_on', channel=0, note=58, velocity=57, time=120),
    Message('note_on', channel=0, note=53, velocity=57, time=0),
    Message('note_on', channel=0, note=46, velocity=57, time=0),
    Message('note_off', channel=0, note=58, velocity=80, time=120),
    Message('note_off', channel=0, note=53, velocity=80, time=0),
    Message('note_off', channel=0, note=46, velocity=80, time=0),
    Message('note_on', channel=0, note=58, velocity=57, time=120),
    Message('note_on', channel=0, note=53, velocity=57, time=0),
    Message('note_on', channel=0, note=46, velocity=57, time=0),
    Message('note_off', channel=0, note=58, velocity=80, time=120),
    Message('note_off', channel=0, note=53, velocity=80, time=0),
    Message('note_off', channel=0, note=46, velocity=80, time=0),
    Message('note_on', channel=0, note=58, velocity=57, time=120),
    Message('note_on', channel=0, note=53, velocity=57, time=0),
    Message('note_on', channel=0, note=46, velocity=57, time=0),
    Message('note_off', channel=0, note=58, velocity=80, time=120),
    Message('note_off', channel=0, note=53, velocity=80, time=0),
    Message('note_off', channel=0, note=46, velocity=80, time=0),
    Message('note_on', channel=0, note=53, velocity=57, time=120),
    Message('note_on', channel=0, note=48, velocity=57, time=0),
    Message('note_on', channel=0, note=41, velocity=57, time=0),
    Message('note_off', channel=0, note=53, velocity=80, time=120),
    Message('note_off', channel=0, note=48, velocity=80, time=0),
    Message('note_off', channel=0, note=41, velocity=80, time=0),
    Message('note_on', channel=0, note=53, velocity=57, time=120),
    Message('note_on', channel=0, note=48, velocity=57, time=0),
    Message('note_on', channel=0, note=41, velocity=57, time=0),
    Message('note_off', channel=0, note=53, velocity=80, time=120),
    Message('note_off', channel=0, note=48, velocity=80, time=0),
    Message('note_off', channel=0, note=41, velocity=80, time=0),
    Message('note_on', channel=0, note=53, velocity=57, time=120),
    Message('note_on', channel=0, note=48, velocity=57, time=0),
    Message('note_on', channel=0, note=41, velocity=57, time=0),
    Message('note_off', channel=0, note=53, velocity=80, time=120),
    Message('note_off', channel=0, note=48, velocity=80, time=0),
    Message('note_off', channel=0, note=41, velocity=80, time=0),
    Message('note_on', channel=0, note=53, velocity=57, time=120),
    Message('note_on', channel=0, note=48, velocity=57, time=0),
    Message('note_on', channel=0, note=41, velocity=57, time=0),
    Message('note_off', channel=0, note=53, velocity=80, time=120),
    Message('note_off', channel=0, note=48, velocity=80, time=0),
    Message('note_off', channel=0, note=41, velocity=80, time=0),
    Message('note_on', channel=0, note=53, velocity=57, time=120),
    Message('note_on', channel=0, note=48, velocity=57, time=0),
    Message('note_on', channel=0, note=41, velocity=57, time=0),
    Message('note_off', channel=0, note=53, velocity=80, time=120),
    Message('note_off', channel=0, note=48, velocity=80, time=0),
    Message('note_off', channel=0, note=41, velocity=80, time=0),
    Message('note_on', channel=0, note=53, velocity=57, time=120),
    Message('note_on', channel=0, note=48, velocity=57, time=0),
    Message('note_on', channel=0, note=41, velocity=57, time=0),
    Message('note_off', channel=0, note=53, velocity=80, time=120),
    Message('note_off', channel=0, note=48, velocity=80, time=0),
    Message('note_off', channel=0, note=41, velocity=80, time=0),
    Message('note_on', channel=0, note=53, velocity=57, time=120),
    Message('note_on', channel=0, note=48, velocity=57, time=0),
    Message('note_on', channel=0, note=41, velocity=57, time=0),
    Message('note_off', channel=0, note=53, velocity=80, time=120),
    Message('note_off', channel=0, note=48, velocity=80, time=0),
    Message('note_off', channel=0, note=41, velocity=80, time=0),
    Message('note_on', channel=0, note=53, velocity=57, time=120),
    Message('note_on', channel=0, note=48, velocity=57, time=0),
    Message('note_on', channel=0, note=41, velocity=57, time=0),
    Message('note_off', channel=0, note=53, velocity=80, time=120),
    Message('note_off', channel=0, note=48, velocity=80, time=0),
    Message('note_off', channel=0, note=41, velocity=80, time=0),
    Message('note_on', channel=0, note=56, velocity=57, time=120),
    Message('note_on', channel=0, note=51, velocity=57, time=0),
    Message('note_on', channel=0, note=44, velocity=57, time=0),
    Message('note_off', channel=0, note=56, velocity=80, time=120),
    Message('note_off', channel=0, note=51, velocity=80, time=0),
    Message('note_off', channel=0, note=44, velocity=80, time=0),
    Message('note_on', channel=0, note=56, velocity=57, time=120),
    Message('note_on', channel=0, note=51, velocity=57, time=0),
    Message('note_on', channel=0, note=44, velocity=57, time=0),
    Message('note_off', channel=0, note=56, velocity=80, time=120),
    Message('note_off', channel=0, note=51, velocity=80, time=0),
    Message('note_off', channel=0, note=44, velocity=80, time=0),
    Message('note_on', channel=0, note=56, velocity=57, time=120),
    Message('note_on', channel=0, note=51, velocity=57, time=0),
    Message('note_on', channel=0, note=44, velocity=57, time=0),
    Message('note_off', channel=0, note=56, velocity=80, time=120),
    Message('note_off', channel=0, note=51, velocity=80, time=0),
    Message('note_off', channel=0, note=44, velocity=80, time=0),
    Message('note_on', channel=0, note=56, velocity=57, time=120),
    Message('note_on', channel=0, note=51, velocity=57, time=0),
    Message('note_on', channel=0, note=44, velocity=57, time=0),
    Message('note_off', channel=0, note=56, velocity=80, time=120),
    Message('note_off', channel=0, note=51, velocity=80, time=0),
    Message('note_off', channel=0, note=44, velocity=80, time=0),
    Message('note_on', channel=0, note=56, velocity=57, time=120),
    Message('note_on', channel=0, note=51, velocity=57, time=0),
    Message('note_on', channel=0, note=44, velocity=57, time=0),
    Message('note_off', channel=0, note=56, velocity=80, time=120),
    Message('note_off', channel=0, note=51, velocity=80, time=0),
    Message('note_off', channel=0, note=44, velocity=80, time=0),
    Message('note_on', channel=0, note=56, velocity=57, time=120),
    Message('note_on', channel=0, note=51, velocity=57, time=0),
    Message('note_on', channel=0, note=44, velocity=57, time=0),
    Message('note_off', channel=0, note=56, velocity=80, time=120),
    Message('note_off', channel=0, note=51, velocity=80, time=0),
    Message('note_off', channel=0, note=44, velocity=80, time=0),
    Message('note_on', channel=0, note=56, velocity=57, time=120),
    Message('note_on', channel=0, note=51, velocity=57, time=0),
    Message('note_on', channel=0, note=44, velocity=57, time=0),
    Message('note_off', channel=0, note=56, velocity=80, time=120),
    Message('note_off', channel=0, note=51, velocity=80, time=0),
    Message('note_off', channel=0, note=44, velocity=80, time=0),
    Message('note_on', channel=0, note=56, velocity=57, time=120),
    Message('note_on', channel=0, note=51, velocity=57, time=0),
    Message('note_on', channel=0, note=44, velocity=57, time=0),
    Message('note_off', channel=0, note=56, velocity=80, time=120),
    Message('note_off', channel=0, note=51, velocity=80, time=0),
    Message('note_off', channel=0, note=44, velocity=80, time=0),
    Message('note_on', channel=0, note=63, velocity=57, time=120),
    Message('note_on', channel=0, note=58, velocity=57, time=0),
    Message('note_on', channel=0, note=51, velocity=57, time=0),
    Message('note_off', channel=0, note=63, velocity=80, time=120),
    Message('note_off', channel=0, note=58, velocity=80, time=0),
    Message('note_off', channel=0, note=51, velocity=80, time=0),
    Message('note_on', channel=0, note=63, velocity=57, time=120),
    Message('note_on', channel=0, note=58, velocity=57, time=0),
    Message('note_on', channel=0, note=51, velocity=57, time=0),
    Message('note_off', channel=0, note=63, velocity=80, time=120),
    Message('note_off', channel=0, note=58, velocity=80, time=0),
    Message('note_off', channel=0, note=51, velocity=80, time=0),
    Message('note_on', channel=0, note=63, velocity=57, time=120),
    Message('note_on', channel=0, note=58, velocity=57, time=0),
    Message('note_on', channel=0, note=51, velocity=57, time=0),
    Message('note_off', channel=0, note=63, velocity=80, time=120),
    Message('note_off', channel=0, note=58, velocity=80, time=0),
    Message('note_off', channel=0, note=51, velocity=80, time=0),
    Message('note_on', channel=0, note=63, velocity=57, time=120),
    Message('note_on', channel=0, note=58, velocity=57, time=0),
    Message('note_on', channel=0, note=51, velocity=57, time=0),
    Message('note_off', channel=0, note=63, velocity=80, time=120),
    Message('note_off', channel=0, note=58, velocity=80, time=0),
    Message('note_off', channel=0, note=51, velocity=80, time=0),
    Message('note_on', channel=0, note=63, velocity=57, time=120),
    Message('note_on', channel=0, note=58, velocity=57, time=0),
    Message('note_on', channel=0, note=51, velocity=57, time=0),
    Message('note_off', channel=0, note=63, velocity=80, time=120),
    Message('note_off', channel=0, note=58, velocity=80, time=0),
    Message('note_off', channel=0, note=51, velocity=80, time=0),
    Message('note_on', channel=0, note=63, velocity=57, time=120),
    Message('note_on', channel=0, note=58, velocity=57, time=0),
    Message('note_on', channel=0, note=51, velocity=57, time=0),
    Message('note_off', channel=0, note=63, velocity=80, time=120),
    Message('note_off', channel=0, note=58, velocity=80, time=0),
    Message('note_off', channel=0, note=51, velocity=80, time=0),
    Message('note_on', channel=0, note=63, velocity=57, time=120),
    Message('note_on', channel=0, note=58, velocity=57, time=0),
    Message('note_on', channel=0, note=51, velocity=57, time=0),
    Message('note_off', channel=0, note=63, velocity=80, time=120),
    Message('note_off', channel=0, note=58, velocity=80, time=0),
    Message('note_off', channel=0, note=51, velocity=80, time=0),
    Message('note_on', channel=0, note=63, velocity=57, time=120),
    Message('note_on', channel=0, note=58, velocity=57, time=0),
    Message('note_on', channel=0, note=51, velocity=57, time=0),
    Message('note_off', channel=0, note=63, velocity=80, time=120),
    Message('note_off', channel=0, note=58, velocity=80, time=0),
    Message('note_off', channel=0, note=51, velocity=80, time=0),
    Message('note_on', channel=0, note=58, velocity=57, time=120),
    Message('note_on', channel=0, note=53, velocity=57, time=0),
    Message('note_on', channel=0, note=46, velocity=57, time=0),
    Message('note_off', channel=0, note=58, velocity=80, time=120),
    Message('note_off', channel=0, note=53, velocity=80, time=0),
    Message('note_off', channel=0, note=46, velocity=80, time=0),
    Message('note_on', channel=0, note=58, velocity=57, time=120),
    Message('note_on', channel=0, note=53, velocity=57, time=0),
    Message('note_on', channel=0, note=46, velocity=57, time=0),
    Message('note_off', channel=0, note=58, velocity=80, time=120),
    Message('note_off', channel=0, note=53, velocity=80, time=0),
    Message('note_off', channel=0, note=46, velocity=80, time=0),
    Message('note_on', channel=0, note=58, velocity=57, time=120),
    Message('note_on', channel=0, note=53, velocity=57, time=0),
    Message('note_on', channel=0, note=46, velocity=57, time=0),
    Message('note_off', channel=0, note=58, velocity=80, time=120),
    Message('note_off', channel=0, note=53, velocity=80, time=0),
    Message('note_off', channel=0, note=46, velocity=80, time=0),
    Message('note_on', channel=0, note=58, velocity=57, time=120),
    Message('note_on', channel=0, note=53, velocity=57, time=0),
    Message('note_on', channel=0, note=46, velocity=57, time=0),
    Message('note_off', channel=0, note=58, velocity=80, time=120),
    Message('note_off', channel=0, note=53, velocity=80, time=0),
    Message('note_off', channel=0, note=46, velocity=80, time=0),
    Message('note_on', channel=0, note=58, velocity=57, time=120),
    Message('note_on', channel=0, note=53, velocity=57, time=0),
    Message('note_on', channel=0, note=46, velocity=57, time=0),
    Message('note_off', channel=0, note=58, velocity=80, time=120),
    Message('note_off', channel=0, note=53, velocity=80, time=0),
    Message('note_off', channel=0, note=46, velocity=80, time=0),
    Message('note_on', channel=0, note=58, velocity=57, time=120),
    Message('note_on', channel=0, note=53, velocity=57, time=0),
    Message('note_on', channel=0, note=46, velocity=57, time=0),
    Message('note_off', channel=0, note=58, velocity=80, time=120),
    Message('note_off', channel=0, note=53, velocity=80, time=0),
    Message('note_off', channel=0, note=46, velocity=80, time=0),
    Message('note_on', channel=0, note=58, velocity=57, time=120),
    Message('note_on', channel=0, note=53, velocity=57, time=0),
    Message('note_on', channel=0, note=46, velocity=57, time=0),
    Message('note_off', channel=0, note=58, velocity=80, time=120),
    Message('note_off', channel=0, note=53, velocity=80, time=0),
    Message('note_off', channel=0, note=46, velocity=80, time=0),
    Message('note_on', channel=0, note=58, velocity=57, time=120),
    Message('note_on', channel=0, note=53, velocity=57, time=0),
    Message('note_on', channel=0, note=46, velocity=57, time=0),
    Message('note_off', channel=0, note=58, velocity=80, time=120),
    Message('note_off', channel=0, note=53, velocity=80, time=0),
    Message('note_off', channel=0, note=46, velocity=80, time=0),
    Message('note_on', channel=0, note=53, velocity=57, time=120),
    Message('note_on', channel=0, note=48, velocity=57, time=0),
    Message('note_on', channel=0, note=41, velocity=57, time=0),
    Message('note_off', channel=0, note=53, velocity=80, time=120),
    Message('note_off', channel=0, note=48, velocity=80, time=0),
    Message('note_off', channel=0, note=41, velocity=80, time=0),
    Message('note_on', channel=0, note=53, velocity=57, time=120),
    Message('note_on', channel=0, note=48, velocity=57, time=0),
    Message('note_on', channel=0, note=41, velocity=57, time=0),
    Message('note_off', channel=0, note=53, velocity=80, time=120),
    Message('note_off', channel=0, note=48, velocity=80, time=0),
    Message('note_off', channel=0, note=41, velocity=80, time=0),
    Message('note_on', channel=0, note=53, velocity=57, time=120),
    Message('note_on', channel=0, note=48, velocity=57, time=0),
    Message('note_on', channel=0, note=41, velocity=57, time=0),
    Message('note_off', channel=0, note=53, velocity=80, time=120),
    Message('note_off', channel=0, note=48, velocity=80, time=0),
    Message('note_off', channel=0, note=41, velocity=80, time=0),
    Message('note_on', channel=0, note=53, velocity=57, time=120),
    Message('note_on', channel=0, note=48, velocity=57, time=0),
    Message('note_on', channel=0, note=41, velocity=57, time=0),
    Message('note_off', channel=0, note=53, velocity=80, time=120),
    Message('note_off', channel=0, note=48, velocity=80, time=0),
    Message('note_off', channel=0, note=41, velocity=80, time=0),
    Message('note_on', channel=0, note=53, velocity=57, time=120),
    Message('note_on', channel=0, note=48, velocity=57, time=0),
    Message('note_on', channel=0, note=41, velocity=57, time=0),
    Message('note_off', channel=0, note=53, velocity=80, time=120),
    Message('note_off', channel=0, note=48, velocity=80, time=0),
    Message('note_off', channel=0, note=41, velocity=80, time=0),
    Message('note_on', channel=0, note=53, velocity=57, time=120),
    Message('note_on', channel=0, note=48, velocity=57, time=0),
    Message('note_on', channel=0, note=41, velocity=57, time=0),
    Message('note_off', channel=0, note=53, velocity=80, time=120),
    Message('note_off', channel=0, note=48, velocity=80, time=0),
    Message('note_off', channel=0, note=41, velocity=80, time=0),
    Message('note_on', channel=0, note=53, velocity=57, time=120),
    Message('note_on', channel=0, note=48, velocity=57, time=0),
    Message('note_on', channel=0, note=41, velocity=57, time=0),
    Message('note_off', channel=0, note=53, velocity=80, time=120),
    Message('note_off', channel=0, note=48, velocity=80, time=0),
    Message('note_off', channel=0, note=41, velocity=80, time=0),
    Message('note_on', channel=0, note=53, velocity=57, time=120),
    Message('note_on', channel=0, note=48, velocity=57, time=0),
    Message('note_on', channel=0, note=41, velocity=57, time=0),
    Message('note_off', channel=0, note=53, velocity=80, time=120),
    Message('note_off', channel=0, note=48, velocity=80, time=0),
    Message('note_off', channel=0, note=41, velocity=80, time=0),
    Message('note_on', channel=0, note=56, velocity=57, time=120),
    Message('note_on', channel=0, note=51, velocity=57, time=0),
    Message('note_on', channel=0, note=44, velocity=57, time=0),
    Message('note_off', channel=0, note=56, velocity=80, time=120),
    Message('note_off', channel=0, note=51, velocity=80, time=0),
    Message('note_off', channel=0, note=44, velocity=80, time=0),
    Message('note_on', channel=0, note=56, velocity=57, time=120),
    Message('note_on', channel=0, note=51, velocity=57, time=0),
    Message('note_on', channel=0, note=44, velocity=57, time=0),
    Message('note_off', channel=0, note=56, velocity=80, time=120),
    Message('note_off', channel=0, note=51, velocity=80, time=0),
    Message('note_off', channel=0, note=44, velocity=80, time=0),
    Message('note_on', channel=0, note=56, velocity=57, time=120),
    Message('note_on', channel=0, note=51, velocity=57, time=0),
    Message('note_on', channel=0, note=44, velocity=57, time=0),
    Message('note_off', channel=0, note=56, velocity=80, time=120),
    Message('note_off', channel=0, note=51, velocity=80, time=0),
    Message('note_off', channel=0, note=44, velocity=80, time=0),
    Message('note_on', channel=0, note=56, velocity=57, time=120),
    Message('note_on', channel=0, note=51, velocity=57, time=0),
    Message('note_on', channel=0, note=44, velocity=57, time=0),
    Message('note_off', channel=0, note=56, velocity=80, time=120),
    Message('note_off', channel=0, note=51, velocity=80, time=0),
    Message('note_off', channel=0, note=44, velocity=80, time=0),
    Message('note_on', channel=0, note=56, velocity=57, time=120),
    Message('note_on', channel=0, note=51, velocity=57, time=0),
    Message('note_on', channel=0, note=44, velocity=57, time=0),
    Message('note_off', channel=0, note=56, velocity=80, time=120),
    Message('note_off', channel=0, note=51, velocity=80, time=0),
    Message('note_off', channel=0, note=44, velocity=80, time=0),
    Message('note_on', channel=0, note=56, velocity=57, time=120),
    Message('note_on', channel=0, note=51, velocity=57, time=0),
    Message('note_on', channel=0, note=44, velocity=57, time=0),
    Message('note_off', channel=0, note=56, velocity=80, time=120),
    Message('note_off', channel=0, note=51, velocity=80, time=0),
    Message('note_off', channel=0, note=44, velocity=80, time=0),
    Message('note_on', channel=0, note=56, velocity=57, time=120),
    Message('note_on', channel=0, note=51, velocity=57, time=0),
    Message('note_on', channel=0, note=44, velocity=57, time=0),
    Message('note_off', channel=0, note=56, velocity=80, time=120),
    Message('note_off', channel=0, note=51, velocity=80, time=0),
    Message('note_off', channel=0, note=44, velocity=80, time=0),
    Message('note_on', channel=0, note=56, velocity=57, time=120),
    Message('note_on', channel=0, note=51, velocity=57, time=0),
    Message('note_on', channel=0, note=44, velocity=57, time=0),
    Message('note_off', channel=0, note=56, velocity=80, time=120),
    Message('note_off', channel=0, note=51, velocity=80, time=0),
    Message('note_off', channel=0, note=44, velocity=80, time=0),
    Message('note_on', channel=0, note=63, velocity=57, time=120),
    Message('note_on', channel=0, note=58, velocity=57, time=0),
    Message('note_on', channel=0, note=51, velocity=57, time=0),
    Message('note_off', channel=0, note=63, velocity=80, time=120),
    Message('note_off', channel=0, note=58, velocity=80, time=0),
    Message('note_off', channel=0, note=51, velocity=80, time=0),
    Message('note_on', channel=0, note=63, velocity=57, time=120),
    Message('note_on', channel=0, note=58, velocity=57, time=0),
    Message('note_on', channel=0, note=51, velocity=57, time=0),
    Message('note_off', channel=0, note=63, velocity=80, time=120),
    Message('note_off', channel=0, note=58, velocity=80, time=0),
    Message('note_off', channel=0, note=51, velocity=80, time=0),
    Message('note_on', channel=0, note=63, velocity=57, time=120),
    Message('note_on', channel=0, note=58, velocity=57, time=0),
    Message('note_on', channel=0, note=51, velocity=57, time=0),
    Message('note_off', channel=0, note=63, velocity=80, time=120),
    Message('note_off', channel=0, note=58, velocity=80, time=0),
    Message('note_off', channel=0, note=51, velocity=80, time=0),
    Message('note_on', channel=0, note=63, velocity=57, time=120),
    Message('note_on', channel=0, note=58, velocity=57, time=0),
    Message('note_on', channel=0, note=51, velocity=57, time=0),
    Message('note_off', channel=0, note=63, velocity=80, time=120),
    Message('note_off', channel=0, note=58, velocity=80, time=0),
    Message('note_off', channel=0, note=51, velocity=80, time=0),
    Message('note_on', channel=0, note=63, velocity=57, time=120),
    Message('note_on', channel=0, note=58, velocity=57, time=0),
    Message('note_on', channel=0, note=51, velocity=57, time=0),
    Message('note_off', channel=0, note=63, velocity=80, time=120),
    Message('note_off', channel=0, note=58, velocity=80, time=0),
    Message('note_off', channel=0, note=51, velocity=80, time=0),
    Message('note_on', channel=0, note=63, velocity=57, time=120),
    Message('note_on', channel=0, note=58, velocity=57, time=0),
    Message('note_on', channel=0, note=51, velocity=57, time=0),
    Message('note_off', channel=0, note=63, velocity=80, time=120),
    Message('note_off', channel=0, note=58, velocity=80, time=0),
    Message('note_off', channel=0, note=51, velocity=80, time=0),
    Message('note_on', channel=0, note=63, velocity=57, time=120),
    Message('note_on', channel=0, note=58, velocity=57, time=0),
    Message('note_on', channel=0, note=51, velocity=57, time=0),
    Message('note_off', channel=0, note=63, velocity=80, time=120),
    Message('note_off', channel=0, note=58, velocity=80, time=0),
    Message('note_off', channel=0, note=51, velocity=80, time=0),
    Message('note_on', channel=0, note=63, velocity=57, time=120),
    Message('note_on', channel=0, note=58, velocity=57, time=0),
    Message('note_on', channel=0, note=51, velocity=57, time=0),
    Message('note_off', channel=0, note=63, velocity=80, time=120),
    Message('note_off', channel=0, note=58, velocity=80, time=0),
    Message('note_off', channel=0, note=51, velocity=80, time=0),
    Message('note_on', channel=0, note=58, velocity=57, time=120),
    Message('note_on', channel=0, note=53, velocity=57, time=0),
    Message('note_on', channel=0, note=46, velocity=57, time=0),
    Message('note_off', channel=0, note=58, velocity=80, time=120),
    Message('note_off', channel=0, note=53, velocity=80, time=0),
    Message('note_off', channel=0, note=46, velocity=80, time=0),
    Message('note_on', channel=0, note=58, velocity=57, time=120),
    Message('note_on', channel=0, note=53, velocity=57, time=0),
    Message('note_on', channel=0, note=46, velocity=57, time=0),
    Message('note_off', channel=0, note=58, velocity=80, time=120),
    Message('note_off', channel=0, note=53, velocity=80, time=0),
    Message('note_off', channel=0, note=46, velocity=80, time=0),
    Message('note_on', channel=0, note=58, velocity=57, time=120),
    Message('note_on', channel=0, note=53, velocity=57, time=0),
    Message('note_on', channel=0, note=46, velocity=57, time=0),
    Message('note_off', channel=0, note=58, velocity=80, time=120),
    Message('note_off', channel=0, note=53, velocity=80, time=0),
    Message('note_off', channel=0, note=46, velocity=80, time=0),
    Message('note_on', channel=0, note=58, velocity=57, time=120),
    Message('note_on', channel=0, note=53, velocity=57, time=0),
    Message('note_on', channel=0, note=46, velocity=57, time=0),
    Message('note_off', channel=0, note=58, velocity=80, time=120),
    Message('note_off', channel=0, note=53, velocity=80, time=0),
    Message('note_off', channel=0, note=46, velocity=80, time=0),
    Message('note_on', channel=0, note=58, velocity=57, time=120),
    Message('note_on', channel=0, note=53, velocity=57, time=0),
    Message('note_on', channel=0, note=46, velocity=57, time=0),
    Message('note_off', channel=0, note=58, velocity=80, time=120),
    Message('note_off', channel=0, note=53, velocity=80, time=0),
    Message('note_off', channel=0, note=46, velocity=80, time=0),
    Message('note_on', channel=0, note=58, velocity=57, time=120),
    Message('note_on', channel=0, note=53, velocity=57, time=0),
    Message('note_on', channel=0, note=46, velocity=57, time=0),
    Message('note_off', channel=0, note=58, velocity=80, time=120),
    Message('note_off', channel=0, note=53, velocity=80, time=0),
    Message('note_off', channel=0, note=46, velocity=80, time=0),
    Message('note_on', channel=0, note=58, velocity=57, time=120),
    Message('note_on', channel=0, note=53, velocity=57, time=0),
    Message('note_on', channel=0, note=46, velocity=57, time=0),
    Message('note_off', channel=0, note=58, velocity=80, time=120),
    Message('note_off', channel=0, note=53, velocity=80, time=0),
    Message('note_off', channel=0, note=46, velocity=80, time=0),
    Message('note_on', channel=0, note=58, velocity=57, time=120),
    Message('note_on', channel=0, note=53, velocity=57, time=0),
    Message('note_on', channel=0, note=46, velocity=57, time=0),
    Message('note_off', channel=0, note=58, velocity=80, time=120),
    Message('note_off', channel=0, note=53, velocity=80, time=0),
    Message('note_off', channel=0, note=46, velocity=80, time=0),
    Message('note_on', channel=0, note=53, velocity=57, time=120),
    Message('note_on', channel=0, note=48, velocity=57, time=0),
    Message('note_on', channel=0, note=41, velocity=57, time=0),
    Message('note_off', channel=0, note=53, velocity=80, time=120),
    Message('note_off', channel=0, note=48, velocity=80, time=0),
    Message('note_off', channel=0, note=41, velocity=80, time=0),
    Message('note_on', channel=0, note=53, velocity=57, time=120),
    Message('note_on', channel=0, note=48, velocity=57, time=0),
    Message('note_on', channel=0, note=41, velocity=57, time=0),
    Message('note_off', channel=0, note=53, velocity=80, time=120),
    Message('note_off', channel=0, note=48, velocity=80, time=0),
    Message('note_off', channel=0, note=41, velocity=80, time=0),
    Message('note_on', channel=0, note=53, velocity=57, time=120),
    Message('note_on', channel=0, note=48, velocity=57, time=0),
    Message('note_on', channel=0, note=41, velocity=57, time=0),
    Message('note_off', channel=0, note=53, velocity=80, time=120),
    Message('note_off', channel=0, note=48, velocity=80, time=0),
    Message('note_off', channel=0, note=41, velocity=80, time=0),
    Message('note_on', channel=0, note=53, velocity=57, time=120),
    Message('note_on', channel=0, note=48, velocity=57, time=0),
    Message('note_on', channel=0, note=41, velocity=57, time=0),
    Message('note_off', channel=0, note=53, velocity=80, time=120),
    Message('note_off', channel=0, note=48, velocity=80, time=0),
    Message('note_off', channel=0, note=41, velocity=80, time=0),
    Message('note_on', channel=0, note=53, velocity=57, time=120),
    Message('note_on', channel=0, note=48, velocity=57, time=0),
    Message('note_on', channel=0, note=41, velocity=57, time=0),
    Message('note_off', channel=0, note=53, velocity=80, time=120),
    Message('note_off', channel=0, note=48, velocity=80, time=0),
    Message('note_off', channel=0, note=41, velocity=80, time=0),
    Message('note_on', channel=0, note=53, velocity=57, time=120),
    Message('note_on', channel=0, note=48, velocity=57, time=0),
    Message('note_on', channel=0, note=41, velocity=57, time=0),
    Message('note_off', channel=0, note=53, velocity=80, time=120),
    Message('note_off', channel=0, note=48, velocity=80, time=0),
    Message('note_off', channel=0, note=41, velocity=80, time=0),
    Message('note_on', channel=0, note=53, velocity=57, time=120),
    Message('note_on', channel=0, note=48, velocity=57, time=0),
    Message('note_on', channel=0, note=41, velocity=57, time=0),
    Message('note_off', channel=0, note=53, velocity=80, time=120),
    Message('note_off', channel=0, note=48, velocity=80, time=0),
    Message('note_off', channel=0, note=41, velocity=80, time=0),
    Message('note_on', channel=0, note=53, velocity=57, time=120),
    Message('note_on', channel=0, note=48, velocity=57, time=0),
    Message('note_on', channel=0, note=41, velocity=57, time=0),
    Message('note_off', channel=0, note=53, velocity=80, time=120),
    Message('note_off', channel=0, note=48, velocity=80, time=0),
    Message('note_off', channel=0, note=41, velocity=80, time=0),
    Message('note_on', channel=0, note=56, velocity=57, time=120),
    Message('note_on', channel=0, note=51, velocity=57, time=0),
    Message('note_on', channel=0, note=44, velocity=57, time=0),
    Message('note_off', channel=0, note=56, velocity=80, time=120),
    Message('note_off', channel=0, note=51, velocity=80, time=0),
    Message('note_off', channel=0, note=44, velocity=80, time=0),
    Message('note_on', channel=0, note=56, velocity=57, time=120),
    Message('note_on', channel=0, note=51, velocity=57, time=0),
    Message('note_on', channel=0, note=44, velocity=57, time=0),
    Message('note_off', channel=0, note=56, velocity=80, time=120),
    Message('note_off', channel=0, note=51, velocity=80, time=0),
    Message('note_off', channel=0, note=44, velocity=80, time=0),
    Message('note_on', channel=0, note=56, velocity=57, time=120),
    Message('note_on', channel=0, note=51, velocity=57, time=0),
    Message('note_on', channel=0, note=44, velocity=57, time=0),
    Message('note_off', channel=0, note=56, velocity=80, time=120),
    Message('note_off', channel=0, note=51, velocity=80, time=0),
    Message('note_off', channel=0, note=44, velocity=80, time=0),
    Message('note_on', channel=0, note=56, velocity=57, time=120),
    Message('note_on', channel=0, note=51, velocity=57, time=0),
    Message('note_on', channel=0, note=44, velocity=57, time=0),
    Message('note_off', channel=0, note=56, velocity=80, time=120),
    Message('note_off', channel=0, note=51, velocity=80, time=0),
    Message('note_off', channel=0, note=44, velocity=80, time=0),
    Message('note_on', channel=0, note=56, velocity=57, time=120),
    Message('note_on', channel=0, note=51, velocity=57, time=0),
    Message('note_on', channel=0, note=44, velocity=57, time=0),
    Message('note_off', channel=0, note=56, velocity=80, time=120),
    Message('note_off', channel=0, note=51, velocity=80, time=0),
    Message('note_off', channel=0, note=44, velocity=80, time=0),
    Message('note_on', channel=0, note=56, velocity=57, time=120),
    Message('note_on', channel=0, note=51, velocity=57, time=0),
    Message('note_on', channel=0, note=44, velocity=57, time=0),
    Message('note_off', channel=0, note=56, velocity=80, time=120),
    Message('note_off', channel=0, note=51, velocity=80, time=0),
    Message('note_off', channel=0, note=44, velocity=80, time=0),
    Message('note_on', channel=0, note=56, velocity=57, time=120),
    Message('note_on', channel=0, note=51, velocity=57, time=0),
    Message('note_on', channel=0, note=44, velocity=57, time=0),
    Message('note_off', channel=0, note=56, velocity=80, time=120),
    Message('note_off', channel=0, note=51, velocity=80, time=0),
    Message('note_off', channel=0, note=44, velocity=80, time=0),
    Message('note_on', channel=0, note=56, velocity=57, time=120),
    Message('note_on', channel=0, note=51, velocity=57, time=0),
    Message('note_on', channel=0, note=44, velocity=57, time=0),
    Message('note_off', channel=0, note=56, velocity=80, time=120),
    Message('note_off', channel=0, note=51, velocity=80, time=0),
    Message('note_off', channel=0, note=44, velocity=80, time=0),
    Message('note_on', channel=0, note=63, velocity=57, time=120),
    Message('note_on', channel=0, note=58, velocity=57, time=0),
    Message('note_on', channel=0, note=51, velocity=57, time=0),
    Message('note_off', channel=0, note=63, velocity=80, time=120),
    Message('note_off', channel=0, note=58, velocity=80, time=0),
    Message('note_off', channel=0, note=51, velocity=80, time=0),
    Message('note_on', channel=0, note=63, velocity=57, time=120),
    Message('note_on', channel=0, note=58, velocity=57, time=0),
    Message('note_on', channel=0, note=51, velocity=57, time=0),
    Message('note_off', channel=0, note=63, velocity=80, time=120),
    Message('note_off', channel=0, note=58, velocity=80, time=0),
    Message('note_off', channel=0, note=51, velocity=80, time=0),
    Message('note_on', channel=0, note=63, velocity=57, time=120),
    Message('note_on', channel=0, note=58, velocity=57, time=0),
    Message('note_on', channel=0, note=51, velocity=57, time=0),
    Message('note_off', channel=0, note=63, velocity=80, time=120),
    Message('note_off', channel=0, note=58, velocity=80, time=0),
    Message('note_off', channel=0, note=51, velocity=80, time=0),
    Message('note_on', channel=0, note=63, velocity=57, time=120),
    Message('note_on', channel=0, note=58, velocity=57, time=0),
    Message('note_on', channel=0, note=51, velocity=57, time=0),
    Message('note_off', channel=0, note=63, velocity=80, time=120),
    Message('note_off', channel=0, note=58, velocity=80, time=0),
    Message('note_off', channel=0, note=51, velocity=80, time=0),
    Message('note_on', channel=0, note=63, velocity=57, time=120),
    Message('note_on', channel=0, note=58, velocity=57, time=0),
    Message('note_on', channel=0, note=51, velocity=57, time=0),
    Message('note_off', channel=0, note=63, velocity=80, time=120),
    Message('note_off', channel=0, note=58, velocity=80, time=0),
    Message('note_off', channel=0, note=51, velocity=80, time=0),
    Message('note_on', channel=0, note=63, velocity=57, time=120),
    Message('note_on', channel=0, note=58, velocity=57, time=0),
    Message('note_on', channel=0, note=51, velocity=57, time=0),
    Message('note_off', channel=0, note=63, velocity=80, time=120),
    Message('note_off', channel=0, note=58, velocity=80, time=0),
    Message('note_off', channel=0, note=51, velocity=80, time=0),
    Message('note_on', channel=0, note=63, velocity=57, time=120),
    Message('note_on', channel=0, note=58, velocity=57, time=0),
    Message('note_on', channel=0, note=51, velocity=57, time=0),
    Message('note_off', channel=0, note=63, velocity=80, time=120),
    Message('note_off', channel=0, note=58, velocity=80, time=0),
    Message('note_off', channel=0, note=51, velocity=80, time=0),
    Message('note_on', channel=0, note=63, velocity=57, time=120),
    Message('note_on', channel=0, note=58, velocity=57, time=0),
    Message('note_on', channel=0, note=51, velocity=57, time=0),
    Message('note_off', channel=0, note=63, velocity=80, time=120),
    Message('note_off', channel=0, note=58, velocity=80, time=0),
    Message('note_off', channel=0, note=51, velocity=80, time=0),
    Message('note_on', channel=0, note=58, velocity=57, time=120),
    Message('note_on', channel=0, note=53, velocity=57, time=0),
    Message('note_on', channel=0, note=46, velocity=57, time=0),
    Message('note_off', channel=0, note=58, velocity=80, time=120),
    Message('note_off', channel=0, note=53, velocity=80, time=0),
    Message('note_off', channel=0, note=46, velocity=80, time=0),
    Message('note_on', channel=0, note=58, velocity=57, time=120),
    Message('note_on', channel=0, note=53, velocity=57, time=0),
    Message('note_on', channel=0, note=46, velocity=57, time=0),
    Message('note_off', channel=0, note=58, velocity=80, time=120),
    Message('note_off', channel=0, note=53, velocity=80, time=0),
    Message('note_off', channel=0, note=46, velocity=80, time=0),
    Message('note_on', channel=0, note=58, velocity=57, time=120),
    Message('note_on', channel=0, note=53, velocity=57, time=0),
    Message('note_on', channel=0, note=46, velocity=57, time=0),
    Message('note_off', channel=0, note=58, velocity=80, time=120),
    Message('note_off', channel=0, note=53, velocity=80, time=0),
    Message('note_off', channel=0, note=46, velocity=80, time=0),
    Message('note_on', channel=0, note=58, velocity=57, time=120),
    Message('note_on', channel=0, note=53, velocity=57, time=0),
    Message('note_on', channel=0, note=46, velocity=57, time=0),
    Message('note_off', channel=0, note=58, velocity=80, time=120),
    Message('note_off', channel=0, note=53, velocity=80, time=0),
    Message('note_off', channel=0, note=46, velocity=80, time=0),
    Message('note_on', channel=0, note=58, velocity=57, time=120),
    Message('note_on', channel=0, note=53, velocity=57, time=0),
    Message('note_on', channel=0, note=46, velocity=57, time=0),
    Message('note_off', channel=0, note=58, velocity=80, time=120),
    Message('note_off', channel=0, note=53, velocity=80, time=0),
    Message('note_off', channel=0, note=46, velocity=80, time=0),
    Message('note_on', channel=0, note=58, velocity=57, time=120),
    Message('note_on', channel=0, note=53, velocity=57, time=0),
    Message('note_on', channel=0, note=46, velocity=57, time=0),
    Message('note_off', channel=0, note=58, velocity=80, time=120),
    Message('note_off', channel=0, note=53, velocity=80, time=0),
    Message('note_off', channel=0, note=46, velocity=80, time=0),
    Message('note_on', channel=0, note=58, velocity=57, time=120),
    Message('note_on', channel=0, note=53, velocity=57, time=0),
    Message('note_on', channel=0, note=46, velocity=57, time=0),
    Message('note_off', channel=0, note=58, velocity=80, time=120),
    Message('note_off', channel=0, note=53, velocity=80, time=0),
    Message('note_off', channel=0, note=46, velocity=80, time=0),
    Message('note_on', channel=0, note=58, velocity=57, time=120),
    Message('note_on', channel=0, note=53, velocity=57, time=0),
    Message('note_on', channel=0, note=46, velocity=57, time=0),
    Message('note_off', channel=0, note=58, velocity=80, time=120),
    Message('note_off', channel=0, note=53, velocity=80, time=0),
    Message('note_off', channel=0, note=46, velocity=80, time=0),
    Message('note_on', channel=0, note=53, velocity=57, time=120),
    Message('note_on', channel=0, note=48, velocity=57, time=0),
    Message('note_on', channel=0, note=41, velocity=57, time=0),
    Message('note_off', channel=0, note=53, velocity=80, time=120),
    Message('note_off', channel=0, note=48, velocity=80, time=0),
    Message('note_off', channel=0, note=41, velocity=80, time=0),
    Message('note_on', channel=0, note=53, velocity=57, time=120),
    Message('note_on', channel=0, note=48, velocity=57, time=0),
    Message('note_on', channel=0, note=41, velocity=57, time=0),
    Message('note_off', channel=0, note=53, velocity=80, time=120),
    Message('note_off', channel=0, note=48, velocity=80, time=0),
    Message('note_off', channel=0, note=41, velocity=80, time=0),
    Message('note_on', channel=0, note=53, velocity=57, time=120),
    Message('note_on', channel=0, note=48, velocity=57, time=0),
    Message('note_on', channel=0, note=41, velocity=57, time=0),
    Message('note_off', channel=0, note=53, velocity=80, time=120),
    Message('note_off', channel=0, note=48, velocity=80, time=0),
    Message('note_off', channel=0, note=41, velocity=80, time=0),
    Message('note_on', channel=0, note=53, velocity=57, time=120),
    Message('note_on', channel=0, note=48, velocity=57, time=0),
    Message('note_on', channel=0, note=41, velocity=57, time=0),
    Message('note_off', channel=0, note=53, velocity=80, time=120),
    Message('note_off', channel=0, note=48, velocity=80, time=0),
    Message('note_off', channel=0, note=41, velocity=80, time=0),
    Message('note_on', channel=0, note=53, velocity=57, time=120),
    Message('note_on', channel=0, note=48, velocity=57, time=0),
    Message('note_on', channel=0, note=41, velocity=57, time=0),
    Message('note_off', channel=0, note=53, velocity=80, time=120),
    Message('note_off', channel=0, note=48, velocity=80, time=0),
    Message('note_off', channel=0, note=41, velocity=80, time=0),
    Message('note_on', channel=0, note=53, velocity=57, time=120),
    Message('note_on', channel=0, note=48, velocity=57, time=0),
    Message('note_on', channel=0, note=41, velocity=57, time=0),
    Message('note_off', channel=0, note=53, velocity=80, time=120),
    Message('note_off', channel=0, note=48, velocity=80, time=0),
    Message('note_off', channel=0, note=41, velocity=80, time=0),
    Message('note_on', channel=0, note=53, velocity=57, time=120),
    Message('note_on', channel=0, note=48, velocity=57, time=0),
    Message('note_on', channel=0, note=41, velocity=57, time=0),
    Message('note_off', channel=0, note=53, velocity=80, time=120),
    Message('note_off', channel=0, note=48, velocity=80, time=0),
    Message('note_off', channel=0, note=41, velocity=80, time=0),
    Message('note_on', channel=0, note=53, velocity=57, time=120),
    Message('note_on', channel=0, note=48, velocity=57, time=0),
    Message('note_on', channel=0, note=41, velocity=57, time=0),
    Message('note_off', channel=0, note=53, velocity=80, time=120),
    Message('note_off', channel=0, note=48, velocity=80, time=0),
    Message('note_off', channel=0, note=41, velocity=80, time=0),
    Message('note_on', channel=0, note=56, velocity=57, time=120),
    Message('note_on', channel=0, note=51, velocity=57, time=0),
    Message('note_on', channel=0, note=44, velocity=57, time=0),
    Message('note_off', channel=0, note=56, velocity=80, time=120),
    Message('note_off', channel=0, note=51, velocity=80, time=0),
    Message('note_off', channel=0, note=44, velocity=80, time=0),
    Message('note_on', channel=0, note=56, velocity=57, time=120),
    Message('note_on', channel=0, note=51, velocity=57, time=0),
    Message('note_on', channel=0, note=44, velocity=57, time=0),
    Message('note_off', channel=0, note=56, velocity=80, time=120),
    Message('note_off', channel=0, note=51, velocity=80, time=0),
    Message('note_off', channel=0, note=44, velocity=80, time=0),
    Message('note_on', channel=0, note=56, velocity=57, time=120),
    Message('note_on', channel=0, note=51, velocity=57, time=0),
    Message('note_on', channel=0, note=44, velocity=57, time=0),
    Message('note_off', channel=0, note=56, velocity=80, time=120),
    Message('note_off', channel=0, note=51, velocity=80, time=0),
    Message('note_off', channel=0, note=44, velocity=80, time=0),
    Message('note_on', channel=0, note=56, velocity=57, time=120),
    Message('note_on', channel=0, note=51, velocity=57, time=0),
    Message('note_on', channel=0, note=44, velocity=57, time=0),
    Message('note_off', channel=0, note=56, velocity=80, time=120),
    Message('note_off', channel=0, note=51, velocity=80, time=0),
    Message('note_off', channel=0, note=44, velocity=80, time=0),
    Message('note_on', channel=0, note=56, velocity=57, time=120),
    Message('note_on', channel=0, note=51, velocity=57, time=0),
    Message('note_on', channel=0, note=44, velocity=57, time=0),
    Message('note_off', channel=0, note=56, velocity=80, time=120),
    Message('note_off', channel=0, note=51, velocity=80, time=0),
    Message('note_off', channel=0, note=44, velocity=80, time=0),
    Message('note_on', channel=0, note=56, velocity=57, time=120),
    Message('note_on', channel=0, note=51, velocity=57, time=0),
    Message('note_on', channel=0, note=44, velocity=57, time=0),
    Message('note_off', channel=0, note=56, velocity=80, time=120),
    Message('note_off', channel=0, note=51, velocity=80, time=0),
    Message('note_off', channel=0, note=44, velocity=80, time=0),
    Message('note_on', channel=0, note=56, velocity=57, time=120),
    Message('note_on', channel=0, note=51, velocity=57, time=0),
    Message('note_on', channel=0, note=44, velocity=57, time=0),
    Message('note_off', channel=0, note=56, velocity=80, time=120),
    Message('note_off', channel=0, note=51, velocity=80, time=0),
    Message('note_off', channel=0, note=44, velocity=80, time=0),
    Message('note_on', channel=0, note=56, velocity=57, time=120),
    Message('note_on', channel=0, note=51, velocity=57, time=0),
    Message('note_on', channel=0, note=44, velocity=57, time=0),
    Message('note_off', channel=0, note=56, velocity=80, time=120),
    Message('note_off', channel=0, note=51, velocity=80, time=0),
    Message('note_off', channel=0, note=44, velocity=80, time=0),
    Message('note_on', channel=0, note=63, velocity=57, time=120),
    Message('note_on', channel=0, note=58, velocity=57, time=0),
    Message('note_on', channel=0, note=51, velocity=57, time=0),
    Message('note_off', channel=0, note=63, velocity=80, time=120),
    Message('note_off', channel=0, note=58, velocity=80, time=0),
    Message('note_off', channel=0, note=51, velocity=80, time=0),
    Message('note_on', channel=0, note=63, velocity=57, time=120),
    Message('note_on', channel=0, note=58, velocity=57, time=0),
    Message('note_on', channel=0, note=51, velocity=57, time=0),
    Message('note_off', channel=0, note=63, velocity=80, time=120),
    Message('note_off', channel=0, note=58, velocity=80, time=0),
    Message('note_off', channel=0, note=51, velocity=80, time=0),
    Message('note_on', channel=0, note=63, velocity=57, time=120),
    Message('note_on', channel=0, note=58, velocity=57, time=0),
    Message('note_on', channel=0, note=51, velocity=57, time=0),
    Message('note_off', channel=0, note=63, velocity=80, time=120),
    Message('note_off', channel=0, note=58, velocity=80, time=0),
    Message('note_off', channel=0, note=51, velocity=80, time=0),
    Message('note_on', channel=0, note=63, velocity=57, time=120),
    Message('note_on', channel=0, note=58, velocity=57, time=0),
    Message('note_on', channel=0, note=51, velocity=57, time=0),
    Message('note_off', channel=0, note=63, velocity=80, time=120),
    Message('note_off', channel=0, note=58, velocity=80, time=0),
    Message('note_off', channel=0, note=51, velocity=80, time=0),
    Message('note_on', channel=0, note=63, velocity=57, time=120),
    Message('note_on', channel=0, note=58, velocity=57, time=0),
    Message('note_on', channel=0, note=51, velocity=57, time=0),
    Message('note_off', channel=0, note=63, velocity=80, time=120),
    Message('note_off', channel=0, note=58, velocity=80, time=0),
    Message('note_off', channel=0, note=51, velocity=80, time=0),
    Message('note_on', channel=0, note=63, velocity=57, time=120),
    Message('note_on', channel=0, note=58, velocity=57, time=0),
    Message('note_on', channel=0, note=51, velocity=57, time=0),
    Message('note_off', channel=0, note=63, velocity=80, time=120),
    Message('note_off', channel=0, note=58, velocity=80, time=0),
    Message('note_off', channel=0, note=51, velocity=80, time=0),
    Message('note_on', channel=0, note=63, velocity=57, time=120),
    Message('note_on', channel=0, note=58, velocity=57, time=0),
    Message('note_on', channel=0, note=51, velocity=57, time=0),
    Message('note_off', channel=0, note=63, velocity=80, time=120),
    Message('note_off', channel=0, note=58, velocity=80, time=0),
    Message('note_off', channel=0, note=51, velocity=80, time=0),
    Message('note_on', channel=0, note=63, velocity=57, time=120),
    Message('note_on', channel=0, note=58, velocity=57, time=0),
    Message('note_on', channel=0, note=51, velocity=57, time=0),
    Message('note_off', channel=0, note=63, velocity=80, time=120),
    Message('note_off', channel=0, note=58, velocity=80, time=0),
    Message('note_off', channel=0, note=51, velocity=80, time=0),
    Message('note_on', channel=0, note=58, velocity=57, time=120),
    Message('note_on', channel=0, note=53, velocity=57, time=0),
    Message('note_on', channel=0, note=46, velocity=57, time=0),
    Message('note_off', channel=0, note=58, velocity=80, time=120),
    Message('note_off', channel=0, note=53, velocity=80, time=0),
    Message('note_off', channel=0, note=46, velocity=80, time=0),
    Message('note_on', channel=0, note=58, velocity=57, time=120),
    Message('note_on', channel=0, note=53, velocity=57, time=0),
    Message('note_on', channel=0, note=46, velocity=57, time=0),
    Message('note_off', channel=0, note=58, velocity=80, time=120),
    Message('note_off', channel=0, note=53, velocity=80, time=0),
    Message('note_off', channel=0, note=46, velocity=80, time=0),
    Message('note_on', channel=0, note=58, velocity=57, time=120),
    Message('note_on', channel=0, note=53, velocity=57, time=0),
    Message('note_on', channel=0, note=46, velocity=57, time=0),
    Message('note_off', channel=0, note=58, velocity=80, time=120),
    Message('note_off', channel=0, note=53, velocity=80, time=0),
    Message('note_off', channel=0, note=46, velocity=80, time=0),
    Message('note_on', channel=0, note=58, velocity=57, time=120),
    Message('note_on', channel=0, note=53, velocity=57, time=0),
    Message('note_on', channel=0, note=46, velocity=57, time=0),
    Message('note_off', channel=0, note=58, velocity=80, time=120),
    Message('note_off', channel=0, note=53, velocity=80, time=0),
    Message('note_off', channel=0, note=46, velocity=80, time=0),
    Message('note_on', channel=0, note=58, velocity=57, time=120),
    Message('note_on', channel=0, note=53, velocity=57, time=0),
    Message('note_on', channel=0, note=46, velocity=57, time=0),
    Message('note_off', channel=0, note=58, velocity=80, time=120),
    Message('note_off', channel=0, note=53, velocity=80, time=0),
    Message('note_off', channel=0, note=46, velocity=80, time=0),
    Message('note_on', channel=0, note=58, velocity=57, time=120),
    Message('note_on', channel=0, note=53, velocity=57, time=0),
    Message('note_on', channel=0, note=46, velocity=57, time=0),
    Message('note_off', channel=0, note=58, velocity=80, time=120),
    Message('note_off', channel=0, note=53, velocity=80, time=0),
    Message('note_off', channel=0, note=46, velocity=80, time=0),
    Message('note_on', channel=0, note=58, velocity=57, time=120),
    Message('note_on', channel=0, note=53, velocity=57, time=0),
    Message('note_on', channel=0, note=46, velocity=57, time=0),
    Message('note_off', channel=0, note=58, velocity=80, time=120),
    Message('note_off', channel=0, note=53, velocity=80, time=0),
    Message('note_off', channel=0, note=46, velocity=80, time=0),
    Message('note_on', channel=0, note=58, velocity=57, time=120),
    Message('note_on', channel=0, note=53, velocity=57, time=0),
    Message('note_on', channel=0, note=46, velocity=57, time=0),
    Message('note_off', channel=0, note=58, velocity=80, time=120),
    Message('note_off', channel=0, note=53, velocity=80, time=0),
    Message('note_off', channel=0, note=46, velocity=80, time=0),
    Message('note_on', channel=0, note=53, velocity=57, time=120),
    Message('note_on', channel=0, note=48, velocity=57, time=0),
    Message('note_on', channel=0, note=41, velocity=57, time=0),
    Message('note_off', channel=0, note=53, velocity=80, time=120),
    Message('note_off', channel=0, note=48, velocity=80, time=0),
    Message('note_off', channel=0, note=41, velocity=80, time=0),
    Message('note_on', channel=0, note=53, velocity=57, time=120),
    Message('note_on', channel=0, note=48, velocity=57, time=0),
    Message('note_on', channel=0, note=41, velocity=57, time=0),
    Message('note_off', channel=0, note=53, velocity=80, time=120),
    Message('note_off', channel=0, note=48, velocity=80, time=0),
    Message('note_off', channel=0, note=41, velocity=80, time=0),
    Message('note_on', channel=0, note=53, velocity=57, time=120),
    Message('note_on', channel=0, note=48, velocity=57, time=0),
    Message('note_on', channel=0, note=41, velocity=57, time=0),
    Message('note_off', channel=0, note=53, velocity=80, time=120),
    Message('note_off', channel=0, note=48, velocity=80, time=0),
    Message('note_off', channel=0, note=41, velocity=80, time=0),
    Message('note_on', channel=0, note=53, velocity=57, time=120),
    Message('note_on', channel=0, note=48, velocity=57, time=0),
    Message('note_on', channel=0, note=41, velocity=57, time=0),
    Message('note_off', channel=0, note=53, velocity=80, time=120),
    Message('note_off', channel=0, note=48, velocity=80, time=0),
    Message('note_off', channel=0, note=41, velocity=80, time=0),
    Message('note_on', channel=0, note=53, velocity=57, time=120),
    Message('note_on', channel=0, note=48, velocity=57, time=0),
    Message('note_on', channel=0, note=41, velocity=57, time=0),
    Message('note_off', channel=0, note=53, velocity=80, time=120),
    Message('note_off', channel=0, note=48, velocity=80, time=0),
    Message('note_off', channel=0, note=41, velocity=80, time=0),
    Message('note_on', channel=0, note=53, velocity=57, time=120),
    Message('note_on', channel=0, note=48, velocity=57, time=0),
    Message('note_on', channel=0, note=41, velocity=57, time=0),
    Message('note_off', channel=0, note=53, velocity=80, time=120),
    Message('note_off', channel=0, note=48, velocity=80, time=0),
    Message('note_off', channel=0, note=41, velocity=80, time=0),
    Message('note_on', channel=0, note=53, velocity=57, time=120),
    Message('note_on', channel=0, note=48, velocity=57, time=0),
    Message('note_on', channel=0, note=41, velocity=57, time=0),
    Message('note_off', channel=0, note=53, velocity=80, time=120),
    Message('note_off', channel=0, note=48, velocity=80, time=0),
    Message('note_off', channel=0, note=41, velocity=80, time=0),
    Message('note_on', channel=0, note=53, velocity=57, time=120),
    Message('note_on', channel=0, note=48, velocity=57, time=0),
    Message('note_on', channel=0, note=41, velocity=57, time=0),
    Message('note_off', channel=0, note=53, velocity=80, time=120),
    Message('note_off', channel=0, note=48, velocity=80, time=0),
    Message('note_off', channel=0, note=41, velocity=80, time=0),
    Message('note_on', channel=0, note=56, velocity=57, time=120),
    Message('note_on', channel=0, note=51, velocity=57, time=0),
    Message('note_on', channel=0, note=44, velocity=57, time=0),
    Message('note_off', channel=0, note=56, velocity=80, time=120),
    Message('note_off', channel=0, note=51, velocity=80, time=0),
    Message('note_off', channel=0, note=44, velocity=80, time=0),
    Message('note_on', channel=0, note=56, velocity=57, time=120),
    Message('note_on', channel=0, note=51, velocity=57, time=0),
    Message('note_on', channel=0, note=44, velocity=57, time=0),
    Message('note_off', channel=0, note=56, velocity=80, time=120),
    Message('note_off', channel=0, note=51, velocity=80, time=0),
    Message('note_off', channel=0, note=44, velocity=80, time=0),
    Message('note_on', channel=0, note=56, velocity=57, time=120),
    Message('note_on', channel=0, note=51, velocity=57, time=0),
    Message('note_on', channel=0, note=44, velocity=57, time=0),
    Message('note_off', channel=0, note=56, velocity=80, time=120),
    Message('note_off', channel=0, note=51, velocity=80, time=0),
    Message('note_off', channel=0, note=44, velocity=80, time=0),
    Message('note_on', channel=0, note=56, velocity=57, time=120),
    Message('note_on', channel=0, note=51, velocity=57, time=0),
    Message('note_on', channel=0, note=44, velocity=57, time=0),
    Message('note_off', channel=0, note=56, velocity=80, time=120),
    Message('note_off', channel=0, note=51, velocity=80, time=0),
    Message('note_off', channel=0, note=44, velocity=80, time=0),
    Message('note_on', channel=0, note=56, velocity=57, time=120),
    Message('note_on', channel=0, note=51, velocity=57, time=0),
    Message('note_on', channel=0, note=44, velocity=57, time=0),
    Message('note_off', channel=0, note=56, velocity=80, time=120),
    Message('note_off', channel=0, note=51, velocity=80, time=0),
    Message('note_off', channel=0, note=44, velocity=80, time=0),
    Message('note_on', channel=0, note=56, velocity=57, time=120),
    Message('note_on', channel=0, note=51, velocity=57, time=0),
    Message('note_on', channel=0, note=44, velocity=57, time=0),
    Message('note_off', channel=0, note=56, velocity=80, time=120),
    Message('note_off', channel=0, note=51, velocity=80, time=0),
    Message('note_off', channel=0, note=44, velocity=80, time=0),
    Message('note_on', channel=0, note=56, velocity=57, time=120),
    Message('note_on', channel=0, note=51, velocity=57, time=0),
    Message('note_on', channel=0, note=44, velocity=57, time=0),
    Message('note_off', channel=0, note=56, velocity=80, time=120),
    Message('note_off', channel=0, note=51, velocity=80, time=0),
    Message('note_off', channel=0, note=44, velocity=80, time=0),
    Message('note_on', channel=0, note=56, velocity=57, time=120),
    Message('note_on', channel=0, note=51, velocity=57, time=0),
    Message('note_on', channel=0, note=44, velocity=57, time=0),
    Message('note_off', channel=0, note=56, velocity=80, time=120),
    Message('note_off', channel=0, note=51, velocity=80, time=0),
    Message('note_off', channel=0, note=44, velocity=80, time=0),
    Message('note_on', channel=0, note=63, velocity=57, time=120),
    Message('note_on', channel=0, note=58, velocity=57, time=0),
    Message('note_on', channel=0, note=51, velocity=57, time=0),
    Message('note_off', channel=0, note=63, velocity=80, time=120),
    Message('note_off', channel=0, note=58, velocity=80, time=0),
    Message('note_off', channel=0, note=51, velocity=80, time=0),
    Message('note_on', channel=0, note=63, velocity=57, time=120),
    Message('note_on', channel=0, note=58, velocity=57, time=0),
    Message('note_on', channel=0, note=51, velocity=57, time=0),
    Message('note_off', channel=0, note=63, velocity=80, time=120),
    Message('note_off', channel=0, note=58, velocity=80, time=0),
    Message('note_off', channel=0, note=51, velocity=80, time=0),
    Message('note_on', channel=0, note=63, velocity=57, time=120),
    Message('note_on', channel=0, note=58, velocity=57, time=0),
    Message('note_on', channel=0, note=51, velocity=57, time=0),
    Message('note_off', channel=0, note=63, velocity=80, time=120),
    Message('note_off', channel=0, note=58, velocity=80, time=0),
    Message('note_off', channel=0, note=51, velocity=80, time=0),
    Message('note_on', channel=0, note=63, velocity=57, time=120),
    Message('note_on', channel=0, note=58, velocity=57, time=0),
    Message('note_on', channel=0, note=51, velocity=57, time=0),
    Message('note_off', channel=0, note=63, velocity=80, time=120),
    Message('note_off', channel=0, note=58, velocity=80, time=0),
    Message('note_off', channel=0, note=51, velocity=80, time=0),
    Message('note_on', channel=0, note=63, velocity=57, time=120),
    Message('note_on', channel=0, note=58, velocity=57, time=0),
    Message('note_on', channel=0, note=51, velocity=57, time=0),
    Message('note_off', channel=0, note=63, velocity=80, time=120),
    Message('note_off', channel=0, note=58, velocity=80, time=0),
    Message('note_off', channel=0, note=51, velocity=80, time=0),
    Message('note_on', channel=0, note=63, velocity=57, time=120),
    Message('note_on', channel=0, note=58, velocity=57, time=0),
    Message('note_on', channel=0, note=51, velocity=57, time=0),
    Message('note_off', channel=0, note=63, velocity=80, time=120),
    Message('note_off', channel=0, note=58, velocity=80, time=0),
    Message('note_off', channel=0, note=51, velocity=80, time=0),
    Message('note_on', channel=0, note=63, velocity=57, time=120),
    Message('note_on', channel=0, note=58, velocity=57, time=0),
    Message('note_on', channel=0, note=51, velocity=57, time=0),
    Message('note_off', channel=0, note=63, velocity=80, time=120),
    Message('note_off', channel=0, note=58, velocity=80, time=0),
    Message('note_off', channel=0, note=51, velocity=80, time=0),
    Message('note_on', channel=0, note=63, velocity=57, time=120),
    Message('note_on', channel=0, note=58, velocity=57, time=0),
    Message('note_on', channel=0, note=51, velocity=57, time=0),
    Message('note_off', channel=0, note=63, velocity=80, time=120),
    Message('note_off', channel=0, note=58, velocity=80, time=0),
    Message('note_off', channel=0, note=51, velocity=80, time=0),
    Message('note_on', channel=0, note=58, velocity=57, time=120),
    Message('note_on', channel=0, note=53, velocity=57, time=0),
    Message('note_on', channel=0, note=46, velocity=57, time=0),
    Message('note_off', channel=0, note=58, velocity=80, time=120),
    Message('note_off', channel=0, note=53, velocity=80, time=0),
    Message('note_off', channel=0, note=46, velocity=80, time=0),
    Message('note_on', channel=0, note=58, velocity=57, time=120),
    Message('note_on', channel=0, note=53, velocity=57, time=0),
    Message('note_on', channel=0, note=46, velocity=57, time=0),
    Message('note_off', channel=0, note=58, velocity=80, time=120),
    Message('note_off', channel=0, note=53, velocity=80, time=0),
    Message('note_off', channel=0, note=46, velocity=80, time=0),
    Message('note_on', channel=0, note=58, velocity=57, time=120),
    Message('note_on', channel=0, note=53, velocity=57, time=0),
    Message('note_on', channel=0, note=46, velocity=57, time=0),
    Message('note_off', channel=0, note=58, velocity=80, time=120),
    Message('note_off', channel=0, note=53, velocity=80, time=0),
    Message('note_off', channel=0, note=46, velocity=80, time=0),
    Message('note_on', channel=0, note=58, velocity=57, time=120),
    Message('note_on', channel=0, note=53, velocity=57, time=0),
    Message('note_on', channel=0, note=46, velocity=57, time=0),
    Message('note_off', channel=0, note=58, velocity=80, time=120),
    Message('note_off', channel=0, note=53, velocity=80, time=0),
    Message('note_off', channel=0, note=46, velocity=80, time=0),
    Message('note_on', channel=0, note=58, velocity=57, time=120),
    Message('note_on', channel=0, note=53, velocity=57, time=0),
    Message('note_on', channel=0, note=46, velocity=57, time=0),
    Message('note_off', channel=0, note=58, velocity=80, time=120),
    Message('note_off', channel=0, note=53, velocity=80, time=0),
    Message('note_off', channel=0, note=46, velocity=80, time=0),
    Message('note_on', channel=0, note=58, velocity=57, time=120),
    Message('note_on', channel=0, note=53, velocity=57, time=0),
    Message('note_on', channel=0, note=46, velocity=57, time=0),
    Message('note_off', channel=0, note=58, velocity=80, time=120),
    Message('note_off', channel=0, note=53, velocity=80, time=0),
    Message('note_off', channel=0, note=46, velocity=80, time=0),
    Message('note_on', channel=0, note=58, velocity=57, time=120),
    Message('note_on', channel=0, note=53, velocity=57, time=0),
    Message('note_on', channel=0, note=46, velocity=57, time=0),
    Message('note_off', channel=0, note=58, velocity=80, time=120),
    Message('note_off', channel=0, note=53, velocity=80, time=0),
    Message('note_off', channel=0, note=46, velocity=80, time=0),
    Message('note_on', channel=0, note=58, velocity=57, time=120),
    Message('note_on', channel=0, note=53, velocity=57, time=0),
    Message('note_on', channel=0, note=46, velocity=57, time=0),
    Message('note_off', channel=0, note=58, velocity=80, time=120),
    Message('note_off', channel=0, note=53, velocity=80, time=0),
    Message('note_off', channel=0, note=46, velocity=80, time=0),
    Message('note_on', channel=0, note=53, velocity=57, time=120),
    Message('note_on', channel=0, note=48, velocity=57, time=0),
    Message('note_on', channel=0, note=41, velocity=57, time=0),
    Message('note_off', channel=0, note=53, velocity=80, time=120),
    Message('note_off', channel=0, note=48, velocity=80, time=0),
    Message('note_off', channel=0, note=41, velocity=80, time=0),
    Message('note_on', channel=0, note=53, velocity=57, time=120),
    Message('note_on', channel=0, note=48, velocity=57, time=0),
    Message('note_on', channel=0, note=41, velocity=57, time=0),
    Message('note_off', channel=0, note=53, velocity=80, time=120),
    Message('note_off', channel=0, note=48, velocity=80, time=0),
    Message('note_off', channel=0, note=41, velocity=80, time=0),
    Message('note_on', channel=0, note=53, velocity=57, time=120),
    Message('note_on', channel=0, note=48, velocity=57, time=0),
    Message('note_on', channel=0, note=41, velocity=57, time=0),
    Message('note_off', channel=0, note=53, velocity=80, time=120),
    Message('note_off', channel=0, note=48, velocity=80, time=0),
    Message('note_off', channel=0, note=41, velocity=80, time=0),
    Message('note_on', channel=0, note=53, velocity=57, time=120),
    Message('note_on', channel=0, note=48, velocity=57, time=0),
    Message('note_on', channel=0, note=41, velocity=57, time=0),
    Message('note_off', channel=0, note=53, velocity=80, time=120),
    Message('note_off', channel=0, note=48, velocity=80, time=0),
    Message('note_off', channel=0, note=41, velocity=80, time=0),
    Message('note_on', channel=0, note=53, velocity=57, time=120),
    Message('note_on', channel=0, note=48, velocity=57, time=0),
    Message('note_on', channel=0, note=41, velocity=57, time=0),
    Message('note_off', channel=0, note=53, velocity=80, time=120),
    Message('note_off', channel=0, note=48, velocity=80, time=0),
    Message('note_off', channel=0, note=41, velocity=80, time=0),
    Message('note_on', channel=0, note=53, velocity=57, time=120),
    Message('note_on', channel=0, note=48, velocity=57, time=0),
    Message('note_on', channel=0, note=41, velocity=57, time=0),
    Message('note_off', channel=0, note=53, velocity=80, time=120),
    Message('note_off', channel=0, note=48, velocity=80, time=0),
    Message('note_off', channel=0, note=41, velocity=80, time=0),
    Message('note_on', channel=0, note=53, velocity=57, time=120),
    Message('note_on', channel=0, note=48, velocity=57, time=0),
    Message('note_on', channel=0, note=41, velocity=57, time=0),
    Message('note_off', channel=0, note=53, velocity=80, time=120),
    Message('note_off', channel=0, note=48, velocity=80, time=0),
    Message('note_off', channel=0, note=41, velocity=80, time=0),
    Message('note_on', channel=0, note=53, velocity=57, time=120),
    Message('note_on', channel=0, note=48, velocity=57, time=0),
    Message('note_on', channel=0, note=41, velocity=57, time=0),
    Message('note_off', channel=0, note=53, velocity=80, time=120),
    Message('note_off', channel=0, note=48, velocity=80, time=0),
    Message('note_off', channel=0, note=41, velocity=80, time=0),
    Message('note_on', channel=0, note=56, velocity=57, time=120),
    Message('note_on', channel=0, note=51, velocity=57, time=0),
    Message('note_on', channel=0, note=44, velocity=57, time=0),
    Message('note_off', channel=0, note=56, velocity=80, time=120),
    Message('note_off', channel=0, note=51, velocity=80, time=0),
    Message('note_off', channel=0, note=44, velocity=80, time=0),
    Message('note_on', channel=0, note=56, velocity=57, time=120),
    Message('note_on', channel=0, note=51, velocity=57, time=0),
    Message('note_on', channel=0, note=44, velocity=57, time=0),
    Message('note_off', channel=0, note=56, velocity=80, time=120),
    Message('note_off', channel=0, note=51, velocity=80, time=0),
    Message('note_off', channel=0, note=44, velocity=80, time=0),
    Message('note_on', channel=0, note=56, velocity=57, time=120),
    Message('note_on', channel=0, note=51, velocity=57, time=0),
    Message('note_on', channel=0, note=44, velocity=57, time=0),
    Message('note_off', channel=0, note=56, velocity=80, time=120),
    Message('note_off', channel=0, note=51, velocity=80, time=0),
    Message('note_off', channel=0, note=44, velocity=80, time=0),
    Message('note_on', channel=0, note=56, velocity=57, time=120),
    Message('note_on', channel=0, note=51, velocity=57, time=0),
    Message('note_on', channel=0, note=44, velocity=57, time=0),
    Message('note_off', channel=0, note=56, velocity=80, time=120),
    Message('note_off', channel=0, note=51, velocity=80, time=0),
    Message('note_off', channel=0, note=44, velocity=80, time=0),
    Message('note_on', channel=0, note=56, velocity=57, time=120),
    Message('note_on', channel=0, note=51, velocity=57, time=0),
    Message('note_on', channel=0, note=44, velocity=57, time=0),
    Message('note_off', channel=0, note=56, velocity=80, time=120),
    Message('note_off', channel=0, note=51, velocity=80, time=0),
    Message('note_off', channel=0, note=44, velocity=80, time=0),
    Message('note_on', channel=0, note=56, velocity=57, time=120),
    Message('note_on', channel=0, note=51, velocity=57, time=0),
    Message('note_on', channel=0, note=44, velocity=57, time=0),
    Message('note_off', channel=0, note=56, velocity=80, time=120),
    Message('note_off', channel=0, note=51, velocity=80, time=0),
    Message('note_off', channel=0, note=44, velocity=80, time=0),
    Message('note_on', channel=0, note=56, velocity=57, time=120),
    Message('note_on', channel=0, note=51, velocity=57, time=0),
    Message('note_on', channel=0, note=44, velocity=57, time=0),
    Message('note_off', channel=0, note=56, velocity=80, time=120),
    Message('note_off', channel=0, note=51, velocity=80, time=0),
    Message('note_off', channel=0, note=44, velocity=80, time=0),
    Message('note_on', channel=0, note=56, velocity=57, time=120),
    Message('note_on', channel=0, note=51, velocity=57, time=0),
    Message('note_on', channel=0, note=44, velocity=57, time=0),
    Message('note_off', channel=0, note=56, velocity=80, time=120),
    Message('note_off', channel=0, note=51, velocity=80, time=0),
    Message('note_off', channel=0, note=44, velocity=80, time=0),
    Message('note_on', channel=0, note=63, velocity=57, time=120),
    Message('note_on', channel=0, note=58, velocity=57, time=0),
    Message('note_on', channel=0, note=51, velocity=57, time=0),
    Message('note_off', channel=0, note=63, velocity=80, time=120),
    Message('note_off', channel=0, note=58, velocity=80, time=0),
    Message('note_off', channel=0, note=51, velocity=80, time=0),
    Message('note_on', channel=0, note=63, velocity=57, time=120),
    Message('note_on', channel=0, note=58, velocity=57, time=0),
    Message('note_on', channel=0, note=51, velocity=57, time=0),
    Message('note_off', channel=0, note=63, velocity=80, time=120),
    Message('note_off', channel=0, note=58, velocity=80, time=0),
    Message('note_off', channel=0, note=51, velocity=80, time=0),
    Message('note_on', channel=0, note=63, velocity=57, time=120),
    Message('note_on', channel=0, note=58, velocity=57, time=0),
    Message('note_on', channel=0, note=51, velocity=57, time=0),
    Message('note_off', channel=0, note=63, velocity=80, time=120),
    Message('note_off', channel=0, note=58, velocity=80, time=0),
    Message('note_off', channel=0, note=51, velocity=80, time=0),
    Message('note_on', channel=0, note=63, velocity=57, time=120),
    Message('note_on', channel=0, note=58, velocity=57, time=0),
    Message('note_on', channel=0, note=51, velocity=57, time=0),
    Message('note_off', channel=0, note=63, velocity=80, time=120),
    Message('note_off', channel=0, note=58, velocity=80, time=0),
    Message('note_off', channel=0, note=51, velocity=80, time=0),
    Message('note_on', channel=0, note=63, velocity=57, time=120),
    Message('note_on', channel=0, note=58, velocity=57, time=0),
    Message('note_on', channel=0, note=51, velocity=57, time=0),
    Message('note_off', channel=0, note=63, velocity=80, time=120),
    Message('note_off', channel=0, note=58, velocity=80, time=0),
    Message('note_off', channel=0, note=51, velocity=80, time=0),
    Message('note_on', channel=0, note=63, velocity=57, time=120),
    Message('note_on', channel=0, note=58, velocity=57, time=0),
    Message('note_on', channel=0, note=51, velocity=57, time=0),
    Message('note_off', channel=0, note=63, velocity=80, time=120),
    Message('note_off', channel=0, note=58, velocity=80, time=0),
    Message('note_off', channel=0, note=51, velocity=80, time=0),
    Message('note_on', channel=0, note=63, velocity=57, time=120),
    Message('note_on', channel=0, note=58, velocity=57, time=0),
    Message('note_on', channel=0, note=51, velocity=57, time=0),
    Message('note_off', channel=0, note=63, velocity=80, time=120),
    Message('note_off', channel=0, note=58, velocity=80, time=0),
    Message('note_off', channel=0, note=51, velocity=80, time=0),
    Message('note_on', channel=0, note=63, velocity=57, time=120),
    Message('note_on', channel=0, note=58, velocity=57, time=0),
    Message('note_on', channel=0, note=51, velocity=57, time=0),
    Message('note_off', channel=0, note=63, velocity=80, time=120),
    Message('note_off', channel=0, note=58, velocity=80, time=0),
    Message('note_off', channel=0, note=51, velocity=80, time=0),
    Message('note_on', channel=0, note=58, velocity=57, time=120),
    Message('note_on', channel=0, note=53, velocity=57, time=0),
    Message('note_on', channel=0, note=46, velocity=57, time=0),
    Message('note_off', channel=0, note=58, velocity=80, time=120),
    Message('note_off', channel=0, note=53, velocity=80, time=0),
    Message('note_off', channel=0, note=46, velocity=80, time=0),
    Message('note_on', channel=0, note=58, velocity=57, time=120),
    Message('note_on', channel=0, note=53, velocity=57, time=0),
    Message('note_on', channel=0, note=46, velocity=57, time=0),
    Message('note_off', channel=0, note=58, velocity=80, time=120),
    Message('note_off', channel=0, note=53, velocity=80, time=0),
    Message('note_off', channel=0, note=46, velocity=80, time=0),
    Message('note_on', channel=0, note=58, velocity=57, time=120),
    Message('note_on', channel=0, note=53, velocity=57, time=0),
    Message('note_on', channel=0, note=46, velocity=57, time=0),
    Message('note_off', channel=0, note=58, velocity=80, time=120),
    Message('note_off', channel=0, note=53, velocity=80, time=0),
    Message('note_off', channel=0, note=46, velocity=80, time=0),
    Message('note_on', channel=0, note=58, velocity=57, time=120),
    Message('note_on', channel=0, note=53, velocity=57, time=0),
    Message('note_on', channel=0, note=46, velocity=57, time=0),
    Message('note_off', channel=0, note=58, velocity=80, time=120),
    Message('note_off', channel=0, note=53, velocity=80, time=0),
    Message('note_off', channel=0, note=46, velocity=80, time=0),
    Message('note_on', channel=0, note=58, velocity=57, time=120),
    Message('note_on', channel=0, note=53, velocity=57, time=0),
    Message('note_on', channel=0, note=46, velocity=57, time=0),
    Message('note_off', channel=0, note=58, velocity=80, time=120),
    Message('note_off', channel=0, note=53, velocity=80, time=0),
    Message('note_off', channel=0, note=46, velocity=80, time=0),
    Message('note_on', channel=0, note=58, velocity=57, time=120),
    Message('note_on', channel=0, note=53, velocity=57, time=0),
    Message('note_on', channel=0, note=46, velocity=57, time=0),
    Message('note_off', channel=0, note=58, velocity=80, time=120),
    Message('note_off', channel=0, note=53, velocity=80, time=0),
    Message('note_off', channel=0, note=46, velocity=80, time=0),
    Message('note_on', channel=0, note=58, velocity=57, time=120),
    Message('note_on', channel=0, note=53, velocity=57, time=0),
    Message('note_on', channel=0, note=46, velocity=57, time=0),
    Message('note_off', channel=0, note=58, velocity=80, time=120),
    Message('note_off', channel=0, note=53, velocity=80, time=0),
    Message('note_off', channel=0, note=46, velocity=80, time=0),
    Message('note_on', channel=0, note=58, velocity=57, time=120),
    Message('note_on', channel=0, note=53, velocity=57, time=0),
    Message('note_on', channel=0, note=46, velocity=57, time=0),
    Message('note_off', channel=0, note=58, velocity=80, time=120),
    Message('note_off', channel=0, note=53, velocity=80, time=0),
    Message('note_off', channel=0, note=46, velocity=80, time=0),
    Message('note_on', channel=0, note=53, velocity=57, time=120),
    Message('note_on', channel=0, note=48, velocity=57, time=0),
    Message('note_on', channel=0, note=41, velocity=57, time=0),
    Message('note_off', channel=0, note=53, velocity=80, time=120),
    Message('note_off', channel=0, note=48, velocity=80, time=0),
    Message('note_off', channel=0, note=41, velocity=80, time=0),
    Message('note_on', channel=0, note=53, velocity=57, time=120),
    Message('note_on', channel=0, note=48, velocity=57, time=0),
    Message('note_on', channel=0, note=41, velocity=57, time=0),
    Message('note_off', channel=0, note=53, velocity=80, time=120),
    Message('note_off', channel=0, note=48, velocity=80, time=0),
    Message('note_off', channel=0, note=41, velocity=80, time=0),
    Message('note_on', channel=0, note=53, velocity=57, time=120),
    Message('note_on', channel=0, note=48, velocity=57, time=0),
    Message('note_on', channel=0, note=41, velocity=57, time=0),
    Message('note_off', channel=0, note=53, velocity=80, time=120),
    Message('note_off', channel=0, note=48, velocity=80, time=0),
    Message('note_off', channel=0, note=41, velocity=80, time=0),
    Message('note_on', channel=0, note=53, velocity=57, time=120),
    Message('note_on', channel=0, note=48, velocity=57, time=0),
    Message('note_on', channel=0, note=41, velocity=57, time=0),
    Message('note_off', channel=0, note=53, velocity=80, time=120),
    Message('note_off', channel=0, note=48, velocity=80, time=0),
    Message('note_off', channel=0, note=41, velocity=80, time=0),
    Message('note_on', channel=0, note=53, velocity=57, time=120),
    Message('note_on', channel=0, note=48, velocity=57, time=0),
    Message('note_on', channel=0, note=41, velocity=57, time=0),
    Message('note_off', channel=0, note=53, velocity=80, time=120),
    Message('note_off', channel=0, note=48, velocity=80, time=0),
    Message('note_off', channel=0, note=41, velocity=80, time=0),
    Message('note_on', channel=0, note=53, velocity=57, time=120),
    Message('note_on', channel=0, note=48, velocity=57, time=0),
    Message('note_on', channel=0, note=41, velocity=57, time=0),
    Message('note_off', channel=0, note=53, velocity=80, time=120),
    Message('note_off', channel=0, note=48, velocity=80, time=0),
    Message('note_off', channel=0, note=41, velocity=80, time=0),
    Message('note_on', channel=0, note=53, velocity=57, time=120),
    Message('note_on', channel=0, note=48, velocity=57, time=0),
    Message('note_on', channel=0, note=41, velocity=57, time=0),
    Message('note_off', channel=0, note=53, velocity=80, time=120),
    Message('note_off', channel=0, note=48, velocity=80, time=0),
    Message('note_off', channel=0, note=41, velocity=80, time=0),
    Message('note_on', channel=0, note=53, velocity=57, time=120),
    Message('note_on', channel=0, note=48, velocity=57, time=0),
    Message('note_on', channel=0, note=41, velocity=57, time=0),
    Message('note_off', channel=0, note=53, velocity=80, time=120),
    Message('note_off', channel=0, note=48, velocity=80, time=0),
    Message('note_off', channel=0, note=41, velocity=80, time=0),
    Message('note_on', channel=0, note=56, velocity=57, time=120),
    Message('note_on', channel=0, note=51, velocity=57, time=0),
    Message('note_on', channel=0, note=44, velocity=57, time=0),
    Message('note_off', channel=0, note=56, velocity=80, time=120),
    Message('note_off', channel=0, note=51, velocity=80, time=0),
    Message('note_off', channel=0, note=44, velocity=80, time=0),
    Message('note_on', channel=0, note=56, velocity=57, time=120),
    Message('note_on', channel=0, note=51, velocity=57, time=0),
    Message('note_on', channel=0, note=44, velocity=57, time=0),
    Message('note_off', channel=0, note=56, velocity=80, time=120),
    Message('note_off', channel=0, note=51, velocity=80, time=0),
    Message('note_off', channel=0, note=44, velocity=80, time=0),
    Message('note_on', channel=0, note=56, velocity=57, time=120),
    Message('note_on', channel=0, note=51, velocity=57, time=0),
    Message('note_on', channel=0, note=44, velocity=57, time=0),
    Message('note_off', channel=0, note=56, velocity=80, time=120),
    Message('note_off', channel=0, note=51, velocity=80, time=0),
    Message('note_off', channel=0, note=44, velocity=80, time=0),
    Message('note_on', channel=0, note=56, velocity=57, time=120),
    Message('note_on', channel=0, note=51, velocity=57, time=0),
    Message('note_on', channel=0, note=44, velocity=57, time=0),
    Message('note_off', channel=0, note=56, velocity=80, time=120),
    Message('note_off', channel=0, note=51, velocity=80, time=0),
    Message('note_off', channel=0, note=44, velocity=80, time=0),
    Message('note_on', channel=0, note=56, velocity=57, time=120),
    Message('note_on', channel=0, note=51, velocity=57, time=0),
    Message('note_on', channel=0, note=44, velocity=57, time=0),
    Message('note_off', channel=0, note=56, velocity=80, time=120),
    Message('note_off', channel=0, note=51, velocity=80, time=0),
    Message('note_off', channel=0, note=44, velocity=80, time=0),
    Message('note_on', channel=0, note=56, velocity=57, time=120),
    Message('note_on', channel=0, note=51, velocity=57, time=0),
    Message('note_on', channel=0, note=44, velocity=57, time=0),
    Message('note_off', channel=0, note=56, velocity=80, time=120),
    Message('note_off', channel=0, note=51, velocity=80, time=0),
    Message('note_off', channel=0, note=44, velocity=80, time=0),
    Message('note_on', channel=0, note=56, velocity=57, time=120),
    Message('note_on', channel=0, note=51, velocity=57, time=0),
    Message('note_on', channel=0, note=44, velocity=57, time=0),
    Message('note_off', channel=0, note=56, velocity=80, time=120),
    Message('note_off', channel=0, note=51, velocity=80, time=0),
    Message('note_off', channel=0, note=44, velocity=80, time=0),
    Message('note_on', channel=0, note=56, velocity=57, time=120),
    Message('note_on', channel=0, note=51, velocity=57, time=0),
    Message('note_on', channel=0, note=44, velocity=57, time=0),
    Message('note_off', channel=0, note=56, velocity=80, time=120),
    Message('note_off', channel=0, note=51, velocity=80, time=0),
    Message('note_off', channel=0, note=44, velocity=80, time=0),
    Message('note_on', channel=0, note=63, velocity=57, time=120),
    Message('note_on', channel=0, note=58, velocity=57, time=0),
    Message('note_on', channel=0, note=51, velocity=57, time=0),
    Message('note_off', channel=0, note=63, velocity=80, time=120),
    Message('note_off', channel=0, note=58, velocity=80, time=0),
    Message('note_off', channel=0, note=51, velocity=80, time=0),
    Message('note_on', channel=0, note=63, velocity=57, time=120),
    Message('note_on', channel=0, note=58, velocity=57, time=0),
    Message('note_on', channel=0, note=51, velocity=57, time=0),
    Message('note_off', channel=0, note=63, velocity=80, time=120),
    Message('note_off', channel=0, note=58, velocity=80, time=0),
    Message('note_off', channel=0, note=51, velocity=80, time=0),
    Message('note_on', channel=0, note=63, velocity=57, time=120),
    Message('note_on', channel=0, note=58, velocity=57, time=0),
    Message('note_on', channel=0, note=51, velocity=57, time=0),
    Message('note_off', channel=0, note=63, velocity=80, time=120),
    Message('note_off', channel=0, note=58, velocity=80, time=0),
    Message('note_off', channel=0, note=51, velocity=80, time=0),
    Message('note_on', channel=0, note=63, velocity=57, time=120),
    Message('note_on', channel=0, note=58, velocity=57, time=0),
    Message('note_on', channel=0, note=51, velocity=57, time=0),
    Message('note_off', channel=0, note=63, velocity=80, time=120),
    Message('note_off', channel=0, note=58, velocity=80, time=0),
    Message('note_off', channel=0, note=51, velocity=80, time=0),
    Message('note_on', channel=0, note=63, velocity=57, time=120),
    Message('note_on', channel=0, note=58, velocity=57, time=0),
    Message('note_on', channel=0, note=51, velocity=57, time=0),
    Message('note_off', channel=0, note=63, velocity=80, time=120),
    Message('note_off', channel=0, note=58, velocity=80, time=0),
    Message('note_off', channel=0, note=51, velocity=80, time=0),
    Message('note_on', channel=0, note=63, velocity=57, time=120),
    Message('note_on', channel=0, note=58, velocity=57, time=0),
    Message('note_on', channel=0, note=51, velocity=57, time=0),
    Message('note_off', channel=0, note=63, velocity=80, time=120),
    Message('note_off', channel=0, note=58, velocity=80, time=0),
    Message('note_off', channel=0, note=51, velocity=80, time=0),
    Message('note_on', channel=0, note=63, velocity=57, time=120),
    Message('note_on', channel=0, note=58, velocity=57, time=0),
    Message('note_on', channel=0, note=51, velocity=57, time=0),
    Message('note_off', channel=0, note=63, velocity=80, time=120),
    Message('note_off', channel=0, note=58, velocity=80, time=0),
    Message('note_off', channel=0, note=51, velocity=80, time=0),
    Message('note_on', channel=0, note=63, velocity=57, time=120),
    Message('note_on', channel=0, note=58, velocity=57, time=0),
    Message('note_on', channel=0, note=51, velocity=57, time=0),
    Message('note_off', channel=0, note=63, velocity=80, time=120),
    Message('note_off', channel=0, note=58, velocity=80, time=0),
    Message('note_off', channel=0, note=51, velocity=80, time=0),
    Message('program_change', channel=0, program=29, time=120),
    Message('program_change', channel=1, program=29, time=0),
    Message('control_change', channel=0, control=7, value=104, time=0),
    Message('control_change', channel=1, control=7, value=104, time=0),
    Message('note_on', channel=0, note=58, velocity=95, time=0),
    Message('note_on', channel=0, note=53, velocity=95, time=0),
    Message('note_on', channel=0, note=46, velocity=95, time=0),
    Message('note_off', channel=0, note=58, velocity=80, time=480),
    Message('note_off', channel=0, note=53, velocity=80, time=0),
    Message('note_off', channel=0, note=46, velocity=80, time=0),
    Message('note_on', channel=0, note=58, velocity=95, time=0),
    Message('note_on', channel=0, note=53, velocity=95, time=0),
    Message('note_on', channel=0, note=46, velocity=95, time=0),
    Message('note_off', channel=0, note=58, velocity=80, time=480),
    Message('note_off', channel=0, note=53, velocity=80, time=0),
    Message('note_off', channel=0, note=46, velocity=80, time=0),
    Message('note_on', channel=0, note=58, velocity=95, time=0),
    Message('note_on', channel=0, note=53, velocity=95, time=0),
    Message('note_on', channel=0, note=46, velocity=95, time=0),
    Message('note_off', channel=0, note=58, velocity=80, time=480),
    Message('note_off', channel=0, note=53, velocity=80, time=0),
    Message('note_off', channel=0, note=46, velocity=80, time=0),
    Message('note_on', channel=0, note=60, velocity=95, time=0),
    Message('note_on', channel=0, note=55, velocity=95, time=0),
    Message('note_on', channel=0, note=48, velocity=95, time=0),
    Message('note_off', channel=0, note=60, velocity=80, time=480),
    Message('note_off', channel=0, note=55, velocity=80, time=0),
    Message('note_off', channel=0, note=48, velocity=80, time=0),
    Message('program_change', channel=0, program=29, time=0),
    Message('program_change', channel=1, program=29, time=0),
    Message('control_change', channel=0, control=7, value=104, time=0),
    Message('control_change', channel=1, control=7, value=104, time=0),
    Message('note_on', channel=0, note=61, velocity=95, time=0),
    Message('note_on', channel=0, note=56, velocity=95, time=0),
    Message('note_on', channel=0, note=49, velocity=95, time=0),
    Message('note_off', channel=0, note=61, velocity=80, time=480),
    Message('note_off', channel=0, note=56, velocity=80, time=0),
    Message('note_off', channel=0, note=49, velocity=80, time=0),
    Message('note_on', channel=0, note=61, velocity=95, time=0),
    Message('note_on', channel=0, note=56, velocity=95, time=0),
    Message('note_on', channel=0, note=49, velocity=95, time=0),
    Message('note_off', channel=0, note=61, velocity=80, time=480),
    Message('note_off', channel=0, note=56, velocity=80, time=0),
    Message('note_off', channel=0, note=49, velocity=80, time=0),
    Message('note_on', channel=0, note=61, velocity=95, time=0),
    Message('note_on', channel=0, note=56, velocity=95, time=0),
    Message('note_on', channel=0, note=49, velocity=95, time=0),
    Message('note_off', channel=0, note=61, velocity=80, time=480),
    Message('note_off', channel=0, note=56, velocity=80, time=0),
    Message('note_off', channel=0, note=49, velocity=80, time=0),
    Message('note_on', channel=0, note=61, velocity=95, time=0),
    Message('note_on', channel=0, note=56, velocity=95, time=0),
    Message('note_on', channel=0, note=49, velocity=95, time=0),
    Message('note_off', channel=0, note=61, velocity=80, time=240),
    Message('note_off', channel=0, note=56, velocity=80, time=0),
    Message('note_off', channel=0, note=49, velocity=80, time=0),
    Message('note_on', channel=0, note=61, velocity=95, time=0),
    Message('note_on', channel=0, note=56, velocity=95, time=0),
    Message('note_on', channel=0, note=49, velocity=95, time=0),
    Message('note_off', channel=0, note=61, velocity=80, time=240),
    Message('note_off', channel=0, note=56, velocity=80, time=0),
    Message('note_off', channel=0, note=49, velocity=80, time=0),
    Message('note_on', channel=0, note=56, velocity=95, time=0),
    Message('note_on', channel=0, note=51, velocity=95, time=0),
    Message('note_on', channel=0, note=44, velocity=95, time=0),
    Message('note_off', channel=0, note=56, velocity=80, time=480),
    Message('note_off', channel=0, note=51, velocity=80, time=0),
    Message('note_off', channel=0, note=44, velocity=80, time=0),
    Message('note_on', channel=0, note=56, velocity=95, time=0),
    Message('note_on', channel=0, note=51, velocity=95, time=0),
    Message('note_on', channel=0, note=44, velocity=95, time=0),
    Message('note_off', channel=0, note=56, velocity=80, time=480),
    Message('note_off', channel=0, note=51, velocity=80, time=0),
    Message('note_off', channel=0, note=44, velocity=80, time=0),
    Message('note_on', channel=0, note=56, velocity=95, time=0),
    Message('note_on', channel=0, note=51, velocity=95, time=0),
    Message('note_on', channel=0, note=44, velocity=95, time=0),
    Message('note_off', channel=0, note=56, velocity=80, time=480),
    Message('note_off', channel=0, note=51, velocity=80, time=0),
    Message('note_off', channel=0, note=44, velocity=80, time=0),
    Message('note_on', channel=0, note=56, velocity=95, time=0),
    Message('note_on', channel=0, note=51, velocity=95, time=0),
    Message('note_on', channel=0, note=44, velocity=95, time=0),
    Message('note_off', channel=0, note=56, velocity=80, time=240),
    Message('note_off', channel=0, note=51, velocity=80, time=0),
    Message('note_off', channel=0, note=44, velocity=80, time=0),
    Message('note_on', channel=0, note=56, velocity=95, time=0),
    Message('note_on', channel=0, note=51, velocity=95, time=0),
    Message('note_on', channel=0, note=44, velocity=95, time=0),
    Message('note_off', channel=0, note=56, velocity=80, time=240),
    Message('note_off', channel=0, note=51, velocity=80, time=0),
    Message('note_off', channel=0, note=44, velocity=80, time=0),
    Message('note_on', channel=0, note=63, velocity=95, time=0),
    Message('note_on', channel=0, note=58, velocity=95, time=0),
    Message('note_on', channel=0, note=51, velocity=95, time=0),
    Message('note_off', channel=0, note=63, velocity=80, time=480),
    Message('note_off', channel=0, note=58, velocity=80, time=0),
    Message('note_off', channel=0, note=51, velocity=80, time=0),
    Message('note_on', channel=0, note=63, velocity=95, time=0),
    Message('note_on', channel=0, note=58, velocity=95, time=0),
    Message('note_on', channel=0, note=51, velocity=95, time=0),
    Message('note_off', channel=0, note=63, velocity=80, time=480),
    Message('note_off', channel=0, note=58, velocity=80, time=0),
    Message('note_off', channel=0, note=51, velocity=80, time=0),
    Message('note_on', channel=0, note=63, velocity=95, time=0),
    Message('note_on', channel=0, note=58, velocity=95, time=0),
    Message('note_on', channel=0, note=51, velocity=95, time=0),
    Message('note_off', channel=0, note=63, velocity=80, time=480),
    Message('note_off', channel=0, note=58, velocity=80, time=0),
    Message('note_off', channel=0, note=51, velocity=80, time=0),
    Message('note_on', channel=0, note=63, velocity=95, time=0),
    Message('note_on', channel=0, note=58, velocity=95, time=0),
    Message('note_on', channel=0, note=51, velocity=95, time=0),
    Message('note_off', channel=0, note=63, velocity=80, time=240),
    Message('note_off', channel=0, note=58, velocity=80, time=0),
    Message('note_off', channel=0, note=51, velocity=80, time=0),
    Message('note_on', channel=0, note=63, velocity=95, time=0),
    Message('note_on', channel=0, note=58, velocity=95, time=0),
    Message('note_on', channel=0, note=51, velocity=95, time=0),
    Message('note_off', channel=0, note=63, velocity=80, time=240),
    Message('note_off', channel=0, note=58, velocity=80, time=0),
    Message('note_off', channel=0, note=51, velocity=80, time=0),
    Message('note_on', channel=0, note=53, velocity=95, time=0),
    Message('note_on', channel=0, note=48, velocity=95, time=0),
    Message('note_on', channel=0, note=41, velocity=95, time=0),
    Message('note_off', channel=0, note=53, velocity=80, time=480),
    Message('note_off', channel=0, note=48, velocity=80, time=0),
    Message('note_off', channel=0, note=41, velocity=80, time=0),
    Message('note_on', channel=0, note=53, velocity=95, time=0),
    Message('note_on', channel=0, note=48, velocity=95, time=0),
    Message('note_on', channel=0, note=41, velocity=95, time=0),
    Message('note_off', channel=0, note=53, velocity=80, time=480),
    Message('note_off', channel=0, note=48, velocity=80, time=0),
    Message('note_off', channel=0, note=41, velocity=80, time=0),
    Message('note_on', channel=0, note=53, velocity=95, time=0),
    Message('note_on', channel=0, note=48, velocity=95, time=0),
    Message('note_on', channel=0, note=41, velocity=95, time=0),
    Message('note_off', channel=0, note=53, velocity=80, time=480),
    Message('note_off', channel=0, note=48, velocity=80, time=0),
    Message('note_off', channel=0, note=41, velocity=80, time=0),
    Message('note_on', channel=0, note=53, velocity=95, time=0),
    Message('note_on', channel=0, note=48, velocity=95, time=0),
    Message('note_on', channel=0, note=41, velocity=95, time=0),
    Message('note_off', channel=0, note=53, velocity=80, time=240),
    Message('note_off', channel=0, note=48, velocity=80, time=0),
    Message('note_off', channel=0, note=41, velocity=80, time=0),
    Message('note_on', channel=0, note=53, velocity=95, time=0),
    Message('note_on', channel=0, note=48, velocity=95, time=0),
    Message('note_on', channel=0, note=41, velocity=95, time=0),
    Message('note_off', channel=0, note=53, velocity=80, time=240),
    Message('note_off', channel=0, note=48, velocity=80, time=0),
    Message('note_off', channel=0, note=41, velocity=80, time=0),
    Message('note_on', channel=0, note=61, velocity=95, time=0),
    Message('note_on', channel=0, note=56, velocity=95, time=0),
    Message('note_on', channel=0, note=49, velocity=95, time=0),
    Message('note_off', channel=0, note=61, velocity=80, time=480),
    Message('note_off', channel=0, note=56, velocity=80, time=0),
    Message('note_off', channel=0, note=49, velocity=80, time=0),
    Message('note_on', channel=0, note=61, velocity=95, time=0),
    Message('note_on', channel=0, note=56, velocity=95, time=0),
    Message('note_on', channel=0, note=49, velocity=95, time=0),
    Message('note_off', channel=0, note=61, velocity=80, time=480),
    Message('note_off', channel=0, note=56, velocity=80, time=0),
    Message('note_off', channel=0, note=49, velocity=80, time=0),
    Message('note_on', channel=0, note=61, velocity=95, time=0),
    Message('note_on', channel=0, note=56, velocity=95, time=0),
    Message('note_on', channel=0, note=49, velocity=95, time=0),
    Message('note_off', channel=0, note=61, velocity=80, time=480),
    Message('note_off', channel=0, note=56, velocity=80, time=0),
    Message('note_off', channel=0, note=49, velocity=80, time=0),
    Message('note_on', channel=0, note=61, velocity=95, time=0),
    Message('note_on', channel=0, note=56, velocity=95, time=0),
    Message('note_on', channel=0, note=49, velocity=95, time=0),
    Message('note_off', channel=0, note=61, velocity=80, time=240),
    Message('note_off', channel=0, note=56, velocity=80, time=0),
    Message('note_off', channel=0, note=49, velocity=80, time=0),
    Message('note_on', channel=0, note=61, velocity=95, time=0),
    Message('note_on', channel=0, note=56, velocity=95, time=0),
    Message('note_on', channel=0, note=49, velocity=95, time=0),
    Message('note_off', channel=0, note=61, velocity=80, time=240),
    Message('note_off', channel=0, note=56, velocity=80, time=0),
    Message('note_off', channel=0, note=49, velocity=80, time=0),
    Message('note_on', channel=0, note=56, velocity=95, time=0),
    Message('note_on', channel=0, note=51, velocity=95, time=0),
    Message('note_on', channel=0, note=44, velocity=95, time=0),
    Message('note_off', channel=0, note=56, velocity=80, time=480),
    Message('note_off', channel=0, note=51, velocity=80, time=0),
    Message('note_off', channel=0, note=44, velocity=80, time=0),
    Message('note_on', channel=0, note=56, velocity=95, time=0),
    Message('note_on', channel=0, note=51, velocity=95, time=0),
    Message('note_on', channel=0, note=44, velocity=95, time=0),
    Message('note_off', channel=0, note=56, velocity=80, time=480),
    Message('note_off', channel=0, note=51, velocity=80, time=0),
    Message('note_off', channel=0, note=44, velocity=80, time=0),
    Message('note_on', channel=0, note=56, velocity=95, time=0),
    Message('note_on', channel=0, note=51, velocity=95, time=0),
    Message('note_on', channel=0, note=44, velocity=95, time=0),
    Message('note_off', channel=0, note=56, velocity=80, time=480),
    Message('note_off', channel=0, note=51, velocity=80, time=0),
    Message('note_off', channel=0, note=44, velocity=80, time=0),
    Message('note_on', channel=0, note=56, velocity=95, time=0),
    Message('note_on', channel=0, note=51, velocity=95, time=0),
    Message('note_on', channel=0, note=44, velocity=95, time=0),
    Message('note_off', channel=0, note=56, velocity=80, time=240),
    Message('note_off', channel=0, note=51, velocity=80, time=0),
    Message('note_off', channel=0, note=44, velocity=80, time=0),
    Message('note_on', channel=0, note=56, velocity=95, time=0),
    Message('note_on', channel=0, note=51, velocity=95, time=0),
    Message('note_on', channel=0, note=44, velocity=95, time=0),
    Message('note_off', channel=0, note=56, velocity=80, time=240),
    Message('note_off', channel=0, note=51, velocity=80, time=0),
    Message('note_off', channel=0, note=44, velocity=80, time=0),
    Message('note_on', channel=0, note=63, velocity=95, time=0),
    Message('note_on', channel=0, note=58, velocity=95, time=0),
    Message('note_on', channel=0, note=51, velocity=95, time=0),
    Message('note_off', channel=0, note=63, velocity=80, time=480),
    Message('note_off', channel=0, note=58, velocity=80, time=0),
    Message('note_off', channel=0, note=51, velocity=80, time=0),
    Message('note_on', channel=0, note=63, velocity=95, time=0),
    Message('note_on', channel=0, note=58, velocity=95, time=0),
    Message('note_on', channel=0, note=51, velocity=95, time=0),
    Message('note_off', channel=0, note=63, velocity=80, time=480),
    Message('note_off', channel=0, note=58, velocity=80, time=0),
    Message('note_off', channel=0, note=51, velocity=80, time=0),
    Message('note_on', channel=0, note=63, velocity=95, time=0),
    Message('note_on', channel=0, note=58, velocity=95, time=0),
    Message('note_on', channel=0, note=51, velocity=95, time=0),
    Message('note_off', channel=0, note=63, velocity=80, time=480),
    Message('note_off', channel=0, note=58, velocity=80, time=0),
    Message('note_off', channel=0, note=51, velocity=80, time=0),
    Message('note_on', channel=0, note=63, velocity=95, time=0),
    Message('note_on', channel=0, note=58, velocity=95, time=0),
    Message('note_on', channel=0, note=51, velocity=95, time=0),
    Message('note_off', channel=0, note=63, velocity=80, time=240),
    Message('note_off', channel=0, note=58, velocity=80, time=0),
    Message('note_off', channel=0, note=51, velocity=80, time=0),
    Message('note_on', channel=0, note=63, velocity=95, time=0),
    Message('note_on', channel=0, note=58, velocity=95, time=0),
    Message('note_on', channel=0, note=51, velocity=95, time=0),
    Message('note_off', channel=0, note=63, velocity=80, time=240),
    Message('note_off', channel=0, note=58, velocity=80, time=0),
    Message('note_off', channel=0, note=51, velocity=80, time=0),
    Message('note_on', channel=0, note=53, velocity=95, time=0),
    Message('note_on', channel=0, note=48, velocity=95, time=0),
    Message('note_on', channel=0, note=41, velocity=95, time=0),
    Message('note_off', channel=0, note=53, velocity=80, time=480),
    Message('note_off', channel=0, note=48, velocity=80, time=0),
    Message('note_off', channel=0, note=41, velocity=80, time=0),
    Message('note_on', channel=0, note=53, velocity=95, time=0),
    Message('note_on', channel=0, note=48, velocity=95, time=0),
    Message('note_on', channel=0, note=41, velocity=95, time=0),
    Message('note_off', channel=0, note=53, velocity=80, time=480),
    Message('note_off', channel=0, note=48, velocity=80, time=0),
    Message('note_off', channel=0, note=41, velocity=80, time=0),
    Message('note_on', channel=0, note=53, velocity=95, time=0),
    Message('note_on', channel=0, note=48, velocity=95, time=0),
    Message('note_on', channel=0, note=41, velocity=95, time=0),
    Message('note_off', channel=0, note=53, velocity=80, time=480),
    Message('note_off', channel=0, note=48, velocity=80, time=0),
    Message('note_off', channel=0, note=41, velocity=80, time=0),
    Message('note_on', channel=0, note=53, velocity=95, time=0),
    Message('note_on', channel=0, note=48, velocity=95, time=0),
    Message('note_on', channel=0, note=41, velocity=95, time=0),
    Message('note_off', channel=0, note=53, velocity=80, time=240),
    Message('note_off', channel=0, note=48, velocity=80, time=0),
    Message('note_off', channel=0, note=41, velocity=80, time=0),
    Message('note_on', channel=0, note=53, velocity=95, time=0),
    Message('note_on', channel=0, note=48, velocity=95, time=0),
    Message('note_on', channel=0, note=41, velocity=95, time=0),
    Message('note_off', channel=0, note=53, velocity=80, time=240),
    Message('note_off', channel=0, note=48, velocity=80, time=0),
    Message('note_off', channel=0, note=41, velocity=80, time=0),
    Message('note_on', channel=0, note=61, velocity=95, time=0),
    Message('note_on', channel=0, note=56, velocity=95, time=0),
    Message('note_on', channel=0, note=49, velocity=95, time=0),
    Message('note_off', channel=0, note=61, velocity=80, time=480),
    Message('note_off', channel=0, note=56, velocity=80, time=0),
    Message('note_off', channel=0, note=49, velocity=80, time=0),
    Message('note_on', channel=0, note=61, velocity=95, time=0),
    Message('note_on', channel=0, note=56, velocity=95, time=0),
    Message('note_on', channel=0, note=49, velocity=95, time=0),
    Message('note_off', channel=0, note=61, velocity=80, time=480),
    Message('note_off', channel=0, note=56, velocity=80, time=0),
    Message('note_off', channel=0, note=49, velocity=80, time=0),
    Message('note_on', channel=0, note=61, velocity=95, time=0),
    Message('note_on', channel=0, note=56, velocity=95, time=0),
    Message('note_on', channel=0, note=49, velocity=95, time=0),
    Message('note_off', channel=0, note=61, velocity=80, time=480),
    Message('note_off', channel=0, note=56, velocity=80, time=0),
    Message('note_off', channel=0, note=49, velocity=80, time=0),
    Message('note_on', channel=0, note=61, velocity=95, time=0),
    Message('note_on', channel=0, note=56, velocity=95, time=0),
    Message('note_on', channel=0, note=49, velocity=95, time=0),
    Message('note_off', channel=0, note=61, velocity=80, time=240),
    Message('note_off', channel=0, note=56, velocity=80, time=0),
    Message('note_off', channel=0, note=49, velocity=80, time=0),
    Message('note_on', channel=0, note=61, velocity=95, time=0),
    Message('note_on', channel=0, note=56, velocity=95, time=0),
    Message('note_on', channel=0, note=49, velocity=95, time=0),
    Message('note_off', channel=0, note=61, velocity=80, time=240),
    Message('note_off', channel=0, note=56, velocity=80, time=0),
    Message('note_off', channel=0, note=49, velocity=80, time=0),
    Message('note_on', channel=0, note=56, velocity=95, time=0),
    Message('note_on', channel=0, note=51, velocity=95, time=0),
    Message('note_on', channel=0, note=44, velocity=95, time=0),
    Message('note_off', channel=0, note=56, velocity=80, time=480),
    Message('note_off', channel=0, note=51, velocity=80, time=0),
    Message('note_off', channel=0, note=44, velocity=80, time=0),
    Message('note_on', channel=0, note=56, velocity=95, time=0),
    Message('note_on', channel=0, note=51, velocity=95, time=0),
    Message('note_on', channel=0, note=44, velocity=95, time=0),
    Message('note_off', channel=0, note=56, velocity=80, time=480),
    Message('note_off', channel=0, note=51, velocity=80, time=0),
    Message('note_off', channel=0, note=44, velocity=80, time=0),
    Message('note_on', channel=0, note=56, velocity=95, time=0),
    Message('note_on', channel=0, note=51, velocity=95, time=0),
    Message('note_on', channel=0, note=44, velocity=95, time=0),
    Message('note_off', channel=0, note=56, velocity=80, time=480),
    Message('note_off', channel=0, note=51, velocity=80, time=0),
    Message('note_off', channel=0, note=44, velocity=80, time=0),
    Message('note_on', channel=0, note=56, velocity=95, time=0),
    Message('note_on', channel=0, note=51, velocity=95, time=0),
    Message('note_on', channel=0, note=44, velocity=95, time=0),
    Message('note_off', channel=0, note=56, velocity=80, time=240),
    Message('note_off', channel=0, note=51, velocity=80, time=0),
    Message('note_off', channel=0, note=44, velocity=80, time=0),
    Message('note_on', channel=0, note=56, velocity=95, time=0),
    Message('note_on', channel=0, note=51, velocity=95, time=0),
    Message('note_on', channel=0, note=44, velocity=95, time=0),
    Message('note_off', channel=0, note=56, velocity=80, time=240),
    Message('note_off', channel=0, note=51, velocity=80, time=0),
    Message('note_off', channel=0, note=44, velocity=80, time=0),
    Message('note_on', channel=0, note=63, velocity=95, time=0),
    Message('note_on', channel=0, note=58, velocity=95, time=0),
    Message('note_on', channel=0, note=51, velocity=95, time=0),
    Message('note_off', channel=0, note=63, velocity=80, time=480),
    Message('note_off', channel=0, note=58, velocity=80, time=0),
    Message('note_off', channel=0, note=51, velocity=80, time=0),
    Message('note_on', channel=0, note=63, velocity=95, time=0),
    Message('note_on', channel=0, note=58, velocity=95, time=0),
    Message('note_on', channel=0, note=51, velocity=95, time=0),
    Message('note_off', channel=0, note=63, velocity=80, time=480),
    Message('note_off', channel=0, note=58, velocity=80, time=0),
    Message('note_off', channel=0, note=51, velocity=80, time=0),
    Message('note_on', channel=0, note=63, velocity=95, time=0),
    Message('note_on', channel=0, note=58, velocity=95, time=0),
    Message('note_on', channel=0, note=51, velocity=95, time=0),
    Message('note_off', channel=0, note=63, velocity=80, time=480),
    Message('note_off', channel=0, note=58, velocity=80, time=0),
    Message('note_off', channel=0, note=51, velocity=80, time=0),
    Message('note_on', channel=0, note=63, velocity=95, time=0),
    Message('note_on', channel=0, note=58, velocity=95, time=0),
    Message('note_on', channel=0, note=51, velocity=95, time=0),
    Message('note_off', channel=0, note=63, velocity=80, time=240),
    Message('note_off', channel=0, note=58, velocity=80, time=0),
    Message('note_off', channel=0, note=51, velocity=80, time=0),
    Message('note_on', channel=0, note=63, velocity=95, time=0),
    Message('note_on', channel=0, note=58, velocity=95, time=0),
    Message('note_on', channel=0, note=51, velocity=95, time=0),
    Message('note_off', channel=0, note=63, velocity=80, time=240),
    Message('note_off', channel=0, note=58, velocity=80, time=0),
    Message('note_off', channel=0, note=51, velocity=80, time=0),
    Message('note_on', channel=0, note=53, velocity=95, time=0),
    Message('note_on', channel=0, note=48, velocity=95, time=0),
    Message('note_on', channel=0, note=41, velocity=95, time=0),
    Message('note_off', channel=0, note=53, velocity=80, time=480),
    Message('note_off', channel=0, note=48, velocity=80, time=0),
    Message('note_off', channel=0, note=41, velocity=80, time=0),
    Message('note_on', channel=0, note=53, velocity=95, time=0),
    Message('note_on', channel=0, note=48, velocity=95, time=0),
    Message('note_on', channel=0, note=41, velocity=95, time=0),
    Message('note_off', channel=0, note=53, velocity=80, time=480),
    Message('note_off', channel=0, note=48, velocity=80, time=0),
    Message('note_off', channel=0, note=41, velocity=80, time=0),
    Message('note_on', channel=0, note=53, velocity=95, time=0),
    Message('note_on', channel=0, note=48, velocity=95, time=0),
    Message('note_on', channel=0, note=41, velocity=95, time=0),
    Message('note_off', channel=0, note=53, velocity=80, time=480),
    Message('note_off', channel=0, note=48, velocity=80, time=0),
    Message('note_off', channel=0, note=41, velocity=80, time=0),
    Message('note_on', channel=0, note=53, velocity=95, time=0),
    Message('note_on', channel=0, note=48, velocity=95, time=0),
    Message('note_on', channel=0, note=41, velocity=95, time=0),
    Message('note_off', channel=0, note=53, velocity=80, time=240),
    Message('note_off', channel=0, note=48, velocity=80, time=0),
    Message('note_off', channel=0, note=41, velocity=80, time=0),
    Message('note_on', channel=0, note=53, velocity=95, time=0),
    Message('note_on', channel=0, note=48, velocity=95, time=0),
    Message('note_on', channel=0, note=41, velocity=95, time=0),
    Message('note_off', channel=0, note=53, velocity=80, time=240),
    Message('note_off', channel=0, note=48, velocity=80, time=0),
    Message('note_off', channel=0, note=41, velocity=80, time=0),
    Message('note_on', channel=0, note=61, velocity=95, time=0),
    Message('note_on', channel=0, note=56, velocity=95, time=0),
    Message('note_on', channel=0, note=49, velocity=95, time=0),
    Message('note_off', channel=0, note=61, velocity=80, time=480),
    Message('note_off', channel=0, note=56, velocity=80, time=0),
    Message('note_off', channel=0, note=49, velocity=80, time=0),
    Message('note_on', channel=0, note=61, velocity=95, time=0),
    Message('note_on', channel=0, note=56, velocity=95, time=0),
    Message('note_on', channel=0, note=49, velocity=95, time=0),
    Message('note_off', channel=0, note=61, velocity=80, time=480),
    Message('note_off', channel=0, note=56, velocity=80, time=0),
    Message('note_off', channel=0, note=49, velocity=80, time=0),
    Message('note_on', channel=0, note=61, velocity=95, time=0),
    Message('note_on', channel=0, note=56, velocity=95, time=0),
    Message('note_on', channel=0, note=49, velocity=95, time=0),
    Message('note_off', channel=0, note=61, velocity=80, time=480),
    Message('note_off', channel=0, note=56, velocity=80, time=0),
    Message('note_off', channel=0, note=49, velocity=80, time=0),
    Message('note_on', channel=0, note=61, velocity=95, time=0),
    Message('note_on', channel=0, note=56, velocity=95, time=0),
    Message('note_on', channel=0, note=49, velocity=95, time=0),
    Message('note_off', channel=0, note=61, velocity=80, time=240),
    Message('note_off', channel=0, note=56, velocity=80, time=0),
    Message('note_off', channel=0, note=49, velocity=80, time=0),
    Message('note_on', channel=0, note=61, velocity=95, time=0),
    Message('note_on', channel=0, note=56, velocity=95, time=0),
    Message('note_on', channel=0, note=49, velocity=95, time=0),
    Message('note_off', channel=0, note=61, velocity=80, time=240),
    Message('note_off', channel=0, note=56, velocity=80, time=0),
    Message('note_off', channel=0, note=49, velocity=80, time=0),
    Message('note_on', channel=0, note=56, velocity=95, time=0),
    Message('note_on', channel=0, note=51, velocity=95, time=0),
    Message('note_on', channel=0, note=44, velocity=95, time=0),
    Message('note_off', channel=0, note=56, velocity=80, time=480),
    Message('note_off', channel=0, note=51, velocity=80, time=0),
    Message('note_off', channel=0, note=44, velocity=80, time=0),
    Message('note_on', channel=0, note=56, velocity=95, time=0),
    Message('note_on', channel=0, note=51, velocity=95, time=0),
    Message('note_on', channel=0, note=44, velocity=95, time=0),
    Message('note_off', channel=0, note=56, velocity=80, time=480),
    Message('note_off', channel=0, note=51, velocity=80, time=0),
    Message('note_off', channel=0, note=44, velocity=80, time=0),
    Message('note_on', channel=0, note=56, velocity=95, time=0),
    Message('note_on', channel=0, note=51, velocity=95, time=0),
    Message('note_on', channel=0, note=44, velocity=95, time=0),
    Message('note_off', channel=0, note=56, velocity=80, time=480),
    Message('note_off', channel=0, note=51, velocity=80, time=0),
    Message('note_off', channel=0, note=44, velocity=80, time=0),
    Message('note_on', channel=0, note=56, velocity=95, time=0),
    Message('note_on', channel=0, note=51, velocity=95, time=0),
    Message('note_on', channel=0, note=44, velocity=95, time=0),
    Message('note_off', channel=0, note=56, velocity=80, time=240),
    Message('note_off', channel=0, note=51, velocity=80, time=0),
    Message('note_off', channel=0, note=44, velocity=80, time=0),
    Message('note_on', channel=0, note=56, velocity=95, time=0),
    Message('note_on', channel=0, note=51, velocity=95, time=0),
    Message('note_on', channel=0, note=44, velocity=95, time=0),
    Message('note_off', channel=0, note=56, velocity=80, time=240),
    Message('note_off', channel=0, note=51, velocity=80, time=0),
    Message('note_off', channel=0, note=44, velocity=80, time=0),
    Message('note_on', channel=0, note=60, velocity=95, time=0),
    Message('note_on', channel=0, note=55, velocity=95, time=0),
    Message('note_on', channel=0, note=48, velocity=95, time=0),
    Message('note_off', channel=0, note=60, velocity=80, time=480),
    Message('note_off', channel=0, note=55, velocity=80, time=0),
    Message('note_off', channel=0, note=48, velocity=80, time=0),
    Message('note_on', channel=0, note=60, velocity=95, time=0),
    Message('note_on', channel=0, note=55, velocity=95, time=0),
    Message('note_on', channel=0, note=48, velocity=95, time=0),
    Message('note_off', channel=0, note=60, velocity=80, time=480),
    Message('note_off', channel=0, note=55, velocity=80, time=0),
    Message('note_off', channel=0, note=48, velocity=80, time=0),
    Message('note_on', channel=0, note=60, velocity=95, time=0),
    Message('note_on', channel=0, note=55, velocity=95, time=0),
    Message('note_on', channel=0, note=48, velocity=95, time=0),
    Message('note_off', channel=0, note=60, velocity=80, time=480),
    Message('note_off', channel=0, note=55, velocity=80, time=0),
    Message('note_off', channel=0, note=48, velocity=80, time=0),
    Message('note_on', channel=0, note=60, velocity=95, time=0),
    Message('note_on', channel=0, note=55, velocity=95, time=0),
    Message('note_on', channel=0, note=48, velocity=95, time=0),
    Message('note_off', channel=0, note=60, velocity=80, time=480),
    Message('note_off', channel=0, note=55, velocity=80, time=0),
    Message('note_off', channel=0, note=48, velocity=80, time=0),
    Message('note_on', channel=0, note=60, velocity=95, time=0),
    Message('note_on', channel=0, note=55, velocity=95, time=0),
    Message('note_on', channel=0, note=48, velocity=95, time=0),
    Message('note_off', channel=0, note=60, velocity=80, time=480),
    Message('note_off', channel=0, note=55, velocity=80, time=0),
    Message('note_off', channel=0, note=48, velocity=80, time=0),
    Message('program_change', channel=0, program=29, time=1440),
    Message('program_change', channel=1, program=29, time=0),
    Message('control_change', channel=0, control=7, value=96, time=0),
    Message('control_change', channel=1, control=7, value=96, time=0),
    Message('note_on', channel=0, note=53, velocity=57, time=0),
    Message('note_on', channel=0, note=48, velocity=57, time=0),
    Message('note_on', channel=0, note=41, velocity=57, time=0),
    Message('note_off', channel=0, note=53, velocity=80, time=120),
    Message('note_off', channel=0, note=48, velocity=80, time=0),
    Message('note_off', channel=0, note=41, velocity=80, time=0),
    Message('note_on', channel=0, note=53, velocity=57, time=120),
    Message('note_on', channel=0, note=48, velocity=57, time=0),
    Message('note_on', channel=0, note=41, velocity=57, time=0),
    Message('note_off', channel=0, note=53, velocity=80, time=120),
    Message('note_off', channel=0, note=48, velocity=80, time=0),
    Message('note_off', channel=0, note=41, velocity=80, time=0),
    Message('note_on', channel=0, note=53, velocity=57, time=120),
    Message('note_on', channel=0, note=48, velocity=57, time=0),
    Message('note_on', channel=0, note=41, velocity=57, time=0),
    Message('note_off', channel=0, note=53, velocity=80, time=120),
    Message('note_off', channel=0, note=48, velocity=80, time=0),
    Message('note_off', channel=0, note=41, velocity=80, time=0),
    Message('note_on', channel=0, note=53, velocity=57, time=120),
    Message('note_on', channel=0, note=48, velocity=57, time=0),
    Message('note_on', channel=0, note=41, velocity=57, time=0),
    Message('note_off', channel=0, note=53, velocity=80, time=120),
    Message('note_off', channel=0, note=48, velocity=80, time=0),
    Message('note_off', channel=0, note=41, velocity=80, time=0),
    Message('note_on', channel=0, note=53, velocity=57, time=120),
    Message('note_on', channel=0, note=48, velocity=57, time=0),
    Message('note_on', channel=0, note=41, velocity=57, time=0),
    Message('note_off', channel=0, note=53, velocity=80, time=120),
    Message('note_off', channel=0, note=48, velocity=80, time=0),
    Message('note_off', channel=0, note=41, velocity=80, time=0),
    Message('note_on', channel=0, note=53, velocity=57, time=120),
    Message('note_on', channel=0, note=48, velocity=57, time=0),
    Message('note_on', channel=0, note=41, velocity=57, time=0),
    Message('note_off', channel=0, note=53, velocity=80, time=120),
    Message('note_off', channel=0, note=48, velocity=80, time=0),
    Message('note_off', channel=0, note=41, velocity=80, time=0),
    Message('note_on', channel=0, note=53, velocity=57, time=120),
    Message('note_on', channel=0, note=48, velocity=57, time=0),
    Message('note_on', channel=0, note=41, velocity=57, time=0),
    Message('note_off', channel=0, note=53, velocity=80, time=120),
    Message('note_off', channel=0, note=48, velocity=80, time=0),
    Message('note_off', channel=0, note=41, velocity=80, time=0),
    Message('note_on', channel=0, note=53, velocity=57, time=120),
    Message('note_on', channel=0, note=48, velocity=57, time=0),
    Message('note_on', channel=0, note=41, velocity=57, time=0),
    Message('note_off', channel=0, note=53, velocity=80, time=120),
    Message('note_off', channel=0, note=48, velocity=80, time=0),
    Message('note_off', channel=0, note=41, velocity=80, time=0),
    Message('note_on', channel=0, note=56, velocity=57, time=120),
    Message('note_on', channel=0, note=51, velocity=57, time=0),
    Message('note_on', channel=0, note=44, velocity=57, time=0),
    Message('note_off', channel=0, note=56, velocity=80, time=120),
    Message('note_off', channel=0, note=51, velocity=80, time=0),
    Message('note_off', channel=0, note=44, velocity=80, time=0),
    Message('note_on', channel=0, note=56, velocity=57, time=120),
    Message('note_on', channel=0, note=51, velocity=57, time=0),
    Message('note_on', channel=0, note=44, velocity=57, time=0),
    Message('note_off', channel=0, note=56, velocity=80, time=120),
    Message('note_off', channel=0, note=51, velocity=80, time=0),
    Message('note_off', channel=0, note=44, velocity=80, time=0),
    Message('note_on', channel=0, note=56, velocity=57, time=120),
    Message('note_on', channel=0, note=51, velocity=57, time=0),
    Message('note_on', channel=0, note=44, velocity=57, time=0),
    Message('note_off', channel=0, note=56, velocity=80, time=120),
    Message('note_off', channel=0, note=51, velocity=80, time=0),
    Message('note_off', channel=0, note=44, velocity=80, time=0),
    Message('note_on', channel=0, note=56, velocity=57, time=120),
    Message('note_on', channel=0, note=51, velocity=57, time=0),
    Message('note_on', channel=0, note=44, velocity=57, time=0),
    Message('note_off', channel=0, note=56, velocity=80, time=120),
    Message('note_off', channel=0, note=51, velocity=80, time=0),
    Message('note_off', channel=0, note=44, velocity=80, time=0),
    Message('note_on', channel=0, note=56, velocity=57, time=120),
    Message('note_on', channel=0, note=51, velocity=57, time=0),
    Message('note_on', channel=0, note=44, velocity=57, time=0),
    Message('note_off', channel=0, note=56, velocity=80, time=120),
    Message('note_off', channel=0, note=51, velocity=80, time=0),
    Message('note_off', channel=0, note=44, velocity=80, time=0),
    Message('note_on', channel=0, note=56, velocity=57, time=120),
    Message('note_on', channel=0, note=51, velocity=57, time=0),
    Message('note_on', channel=0, note=44, velocity=57, time=0),
    Message('note_off', channel=0, note=56, velocity=80, time=120),
    Message('note_off', channel=0, note=51, velocity=80, time=0),
    Message('note_off', channel=0, note=44, velocity=80, time=0),
    Message('note_on', channel=0, note=56, velocity=57, time=120),
    Message('note_on', channel=0, note=51, velocity=57, time=0),
    Message('note_on', channel=0, note=44, velocity=57, time=0),
    Message('note_off', channel=0, note=56, velocity=80, time=120),
    Message('note_off', channel=0, note=51, velocity=80, time=0),
    Message('note_off', channel=0, note=44, velocity=80, time=0),
    Message('note_on', channel=0, note=56, velocity=57, time=120),
    Message('note_on', channel=0, note=51, velocity=57, time=0),
    Message('note_on', channel=0, note=44, velocity=57, time=0),
    Message('note_off', channel=0, note=56, velocity=80, time=120),
    Message('note_off', channel=0, note=51, velocity=80, time=0),
    Message('note_off', channel=0, note=44, velocity=80, time=0),
    Message('note_on', channel=0, note=63, velocity=57, time=120),
    Message('note_on', channel=0, note=58, velocity=57, time=0),
    Message('note_on', channel=0, note=51, velocity=57, time=0),
    Message('note_off', channel=0, note=63, velocity=80, time=120),
    Message('note_off', channel=0, note=58, velocity=80, time=0),
    Message('note_off', channel=0, note=51, velocity=80, time=0),
    Message('note_on', channel=0, note=63, velocity=57, time=120),
    Message('note_on', channel=0, note=58, velocity=57, time=0),
    Message('note_on', channel=0, note=51, velocity=57, time=0),
    Message('note_off', channel=0, note=63, velocity=80, time=120),
    Message('note_off', channel=0, note=58, velocity=80, time=0),
    Message('note_off', channel=0, note=51, velocity=80, time=0),
    Message('note_on', channel=0, note=63, velocity=57, time=120),
    Message('note_on', channel=0, note=58, velocity=57, time=0),
    Message('note_on', channel=0, note=51, velocity=57, time=0),
    Message('note_off', channel=0, note=63, velocity=80, time=120),
    Message('note_off', channel=0, note=58, velocity=80, time=0),
    Message('note_off', channel=0, note=51, velocity=80, time=0),
    Message('note_on', channel=0, note=63, velocity=57, time=120),
    Message('note_on', channel=0, note=58, velocity=57, time=0),
    Message('note_on', channel=0, note=51, velocity=57, time=0),
    Message('note_off', channel=0, note=63, velocity=80, time=120),
    Message('note_off', channel=0, note=58, velocity=80, time=0),
    Message('note_off', channel=0, note=51, velocity=80, time=0),
    Message('note_on', channel=0, note=63, velocity=57, time=120),
    Message('note_on', channel=0, note=58, velocity=57, time=0),
    Message('note_on', channel=0, note=51, velocity=57, time=0),
    Message('note_off', channel=0, note=63, velocity=80, time=120),
    Message('note_off', channel=0, note=58, velocity=80, time=0),
    Message('note_off', channel=0, note=51, velocity=80, time=0),
    Message('note_on', channel=0, note=63, velocity=57, time=120),
    Message('note_on', channel=0, note=58, velocity=57, time=0),
    Message('note_on', channel=0, note=51, velocity=57, time=0),
    Message('note_off', channel=0, note=63, velocity=80, time=120),
    Message('note_off', channel=0, note=58, velocity=80, time=0),
    Message('note_off', channel=0, note=51, velocity=80, time=0),
    Message('note_on', channel=0, note=63, velocity=57, time=120),
    Message('note_on', channel=0, note=58, velocity=57, time=0),
    Message('note_on', channel=0, note=51, velocity=57, time=0),
    Message('note_off', channel=0, note=63, velocity=80, time=120),
    Message('note_off', channel=0, note=58, velocity=80, time=0),
    Message('note_off', channel=0, note=51, velocity=80, time=0),
    Message('note_on', channel=0, note=63, velocity=57, time=120),
    Message('note_on', channel=0, note=58, velocity=57, time=0),
    Message('note_on', channel=0, note=51, velocity=57, time=0),
    Message('note_off', channel=0, note=63, velocity=80, time=120),
    Message('note_off', channel=0, note=58, velocity=80, time=0),
    Message('note_off', channel=0, note=51, velocity=80, time=0),
    Message('note_on', channel=0, note=58, velocity=57, time=120),
    Message('note_on', channel=0, note=53, velocity=57, time=0),
    Message('note_on', channel=0, note=46, velocity=57, time=0),
    Message('note_off', channel=0, note=58, velocity=80, time=120),
    Message('note_off', channel=0, note=53, velocity=80, time=0),
    Message('note_off', channel=0, note=46, velocity=80, time=0),
    Message('note_on', channel=0, note=58, velocity=57, time=120),
    Message('note_on', channel=0, note=53, velocity=57, time=0),
    Message('note_on', channel=0, note=46, velocity=57, time=0),
    Message('note_off', channel=0, note=58, velocity=80, time=120),
    Message('note_off', channel=0, note=53, velocity=80, time=0),
    Message('note_off', channel=0, note=46, velocity=80, time=0),
    Message('note_on', channel=0, note=58, velocity=57, time=120),
    Message('note_on', channel=0, note=53, velocity=57, time=0),
    Message('note_on', channel=0, note=46, velocity=57, time=0),
    Message('note_off', channel=0, note=58, velocity=80, time=120),
    Message('note_off', channel=0, note=53, velocity=80, time=0),
    Message('note_off', channel=0, note=46, velocity=80, time=0),
    Message('note_on', channel=0, note=58, velocity=57, time=120),
    Message('note_on', channel=0, note=53, velocity=57, time=0),
    Message('note_on', channel=0, note=46, velocity=57, time=0),
    Message('note_off', channel=0, note=58, velocity=80, time=120),
    Message('note_off', channel=0, note=53, velocity=80, time=0),
    Message('note_off', channel=0, note=46, velocity=80, time=0),
    Message('note_on', channel=0, note=58, velocity=57, time=120),
    Message('note_on', channel=0, note=53, velocity=57, time=0),
    Message('note_on', channel=0, note=46, velocity=57, time=0),
    Message('note_off', channel=0, note=58, velocity=80, time=120),
    Message('note_off', channel=0, note=53, velocity=80, time=0),
    Message('note_off', channel=0, note=46, velocity=80, time=0),
    Message('note_on', channel=0, note=58, velocity=57, time=120),
    Message('note_on', channel=0, note=53, velocity=57, time=0),
    Message('note_on', channel=0, note=46, velocity=57, time=0),
    Message('note_off', channel=0, note=58, velocity=80, time=120),
    Message('note_off', channel=0, note=53, velocity=80, time=0),
    Message('note_off', channel=0, note=46, velocity=80, time=0),
    Message('note_on', channel=0, note=58, velocity=57, time=120),
    Message('note_on', channel=0, note=53, velocity=57, time=0),
    Message('note_on', channel=0, note=46, velocity=57, time=0),
    Message('note_off', channel=0, note=58, velocity=80, time=120),
    Message('note_off', channel=0, note=53, velocity=80, time=0),
    Message('note_off', channel=0, note=46, velocity=80, time=0),
    Message('note_on', channel=0, note=58, velocity=57, time=120),
    Message('note_on', channel=0, note=53, velocity=57, time=0),
    Message('note_on', channel=0, note=46, velocity=57, time=0),
    Message('note_off', channel=0, note=58, velocity=80, time=120),
    Message('note_off', channel=0, note=53, velocity=80, time=0),
    Message('note_off', channel=0, note=46, velocity=80, time=0),
    Message('note_on', channel=0, note=53, velocity=57, time=120),
    Message('note_on', channel=0, note=48, velocity=57, time=0),
    Message('note_on', channel=0, note=41, velocity=57, time=0),
    Message('note_off', channel=0, note=53, velocity=80, time=120),
    Message('note_off', channel=0, note=48, velocity=80, time=0),
    Message('note_off', channel=0, note=41, velocity=80, time=0),
    Message('note_on', channel=0, note=53, velocity=57, time=120),
    Message('note_on', channel=0, note=48, velocity=57, time=0),
    Message('note_on', channel=0, note=41, velocity=57, time=0),
    Message('note_off', channel=0, note=53, velocity=80, time=120),
    Message('note_off', channel=0, note=48, velocity=80, time=0),
    Message('note_off', channel=0, note=41, velocity=80, time=0),
    Message('note_on', channel=0, note=53, velocity=57, time=120),
    Message('note_on', channel=0, note=48, velocity=57, time=0),
    Message('note_on', channel=0, note=41, velocity=57, time=0),
    Message('note_off', channel=0, note=53, velocity=80, time=120),
    Message('note_off', channel=0, note=48, velocity=80, time=0),
    Message('note_off', channel=0, note=41, velocity=80, time=0),
    Message('note_on', channel=0, note=53, velocity=57, time=120),
    Message('note_on', channel=0, note=48, velocity=57, time=0),
    Message('note_on', channel=0, note=41, velocity=57, time=0),
    Message('note_off', channel=0, note=53, velocity=80, time=120),
    Message('note_off', channel=0, note=48, velocity=80, time=0),
    Message('note_off', channel=0, note=41, velocity=80, time=0),
    Message('note_on', channel=0, note=53, velocity=57, time=120),
    Message('note_on', channel=0, note=48, velocity=57, time=0),
    Message('note_on', channel=0, note=41, velocity=57, time=0),
    Message('note_off', channel=0, note=53, velocity=80, time=120),
    Message('note_off', channel=0, note=48, velocity=80, time=0),
    Message('note_off', channel=0, note=41, velocity=80, time=0),
    Message('note_on', channel=0, note=53, velocity=57, time=120),
    Message('note_on', channel=0, note=48, velocity=57, time=0),
    Message('note_on', channel=0, note=41, velocity=57, time=0),
    Message('note_off', channel=0, note=53, velocity=80, time=120),
    Message('note_off', channel=0, note=48, velocity=80, time=0),
    Message('note_off', channel=0, note=41, velocity=80, time=0),
    Message('note_on', channel=0, note=53, velocity=57, time=120),
    Message('note_on', channel=0, note=48, velocity=57, time=0),
    Message('note_on', channel=0, note=41, velocity=57, time=0),
    Message('note_off', channel=0, note=53, velocity=80, time=120),
    Message('note_off', channel=0, note=48, velocity=80, time=0),
    Message('note_off', channel=0, note=41, velocity=80, time=0),
    Message('note_on', channel=0, note=53, velocity=57, time=120),
    Message('note_on', channel=0, note=48, velocity=57, time=0),
    Message('note_on', channel=0, note=41, velocity=57, time=0),
    Message('note_off', channel=0, note=53, velocity=80, time=120),
    Message('note_off', channel=0, note=48, velocity=80, time=0),
    Message('note_off', channel=0, note=41, velocity=80, time=0),
    Message('note_on', channel=0, note=56, velocity=57, time=120),
    Message('note_on', channel=0, note=51, velocity=57, time=0),
    Message('note_on', channel=0, note=44, velocity=57, time=0),
    Message('note_off', channel=0, note=56, velocity=80, time=120),
    Message('note_off', channel=0, note=51, velocity=80, time=0),
    Message('note_off', channel=0, note=44, velocity=80, time=0),
    Message('note_on', channel=0, note=56, velocity=57, time=120),
    Message('note_on', channel=0, note=51, velocity=57, time=0),
    Message('note_on', channel=0, note=44, velocity=57, time=0),
    Message('note_off', channel=0, note=56, velocity=80, time=120),
    Message('note_off', channel=0, note=51, velocity=80, time=0),
    Message('note_off', channel=0, note=44, velocity=80, time=0),
    Message('note_on', channel=0, note=56, velocity=57, time=120),
    Message('note_on', channel=0, note=51, velocity=57, time=0),
    Message('note_on', channel=0, note=44, velocity=57, time=0),
    Message('note_off', channel=0, note=56, velocity=80, time=120),
    Message('note_off', channel=0, note=51, velocity=80, time=0),
    Message('note_off', channel=0, note=44, velocity=80, time=0),
    Message('note_on', channel=0, note=56, velocity=57, time=120),
    Message('note_on', channel=0, note=51, velocity=57, time=0),
    Message('note_on', channel=0, note=44, velocity=57, time=0),
    Message('note_off', channel=0, note=56, velocity=80, time=120),
    Message('note_off', channel=0, note=51, velocity=80, time=0),
    Message('note_off', channel=0, note=44, velocity=80, time=0),
    Message('note_on', channel=0, note=56, velocity=57, time=120),
    Message('note_on', channel=0, note=51, velocity=57, time=0),
    Message('note_on', channel=0, note=44, velocity=57, time=0),
    Message('note_off', channel=0, note=56, velocity=80, time=120),
    Message('note_off', channel=0, note=51, velocity=80, time=0),
    Message('note_off', channel=0, note=44, velocity=80, time=0),
    Message('note_on', channel=0, note=56, velocity=57, time=120),
    Message('note_on', channel=0, note=51, velocity=57, time=0),
    Message('note_on', channel=0, note=44, velocity=57, time=0),
    Message('note_off', channel=0, note=56, velocity=80, time=120),
    Message('note_off', channel=0, note=51, velocity=80, time=0),
    Message('note_off', channel=0, note=44, velocity=80, time=0),
    Message('note_on', channel=0, note=56, velocity=57, time=120),
    Message('note_on', channel=0, note=51, velocity=57, time=0),
    Message('note_on', channel=0, note=44, velocity=57, time=0),
    Message('note_off', channel=0, note=56, velocity=80, time=120),
    Message('note_off', channel=0, note=51, velocity=80, time=0),
    Message('note_off', channel=0, note=44, velocity=80, time=0),
    Message('note_on', channel=0, note=56, velocity=57, time=120),
    Message('note_on', channel=0, note=51, velocity=57, time=0),
    Message('note_on', channel=0, note=44, velocity=57, time=0),
    Message('note_off', channel=0, note=56, velocity=80, time=120),
    Message('note_off', channel=0, note=51, velocity=80, time=0),
    Message('note_off', channel=0, note=44, velocity=80, time=0),
    Message('note_on', channel=0, note=63, velocity=57, time=120),
    Message('note_on', channel=0, note=58, velocity=57, time=0),
    Message('note_on', channel=0, note=51, velocity=57, time=0),
    Message('note_off', channel=0, note=63, velocity=80, time=120),
    Message('note_off', channel=0, note=58, velocity=80, time=0),
    Message('note_off', channel=0, note=51, velocity=80, time=0),
    Message('note_on', channel=0, note=63, velocity=57, time=120),
    Message('note_on', channel=0, note=58, velocity=57, time=0),
    Message('note_on', channel=0, note=51, velocity=57, time=0),
    Message('note_off', channel=0, note=63, velocity=80, time=120),
    Message('note_off', channel=0, note=58, velocity=80, time=0),
    Message('note_off', channel=0, note=51, velocity=80, time=0),
    Message('note_on', channel=0, note=63, velocity=57, time=120),
    Message('note_on', channel=0, note=58, velocity=57, time=0),
    Message('note_on', channel=0, note=51, velocity=57, time=0),
    Message('note_off', channel=0, note=63, velocity=80, time=120),
    Message('note_off', channel=0, note=58, velocity=80, time=0),
    Message('note_off', channel=0, note=51, velocity=80, time=0),
    Message('note_on', channel=0, note=63, velocity=57, time=120),
    Message('note_on', channel=0, note=58, velocity=57, time=0),
    Message('note_on', channel=0, note=51, velocity=57, time=0),
    Message('note_off', channel=0, note=63, velocity=80, time=120),
    Message('note_off', channel=0, note=58, velocity=80, time=0),
    Message('note_off', channel=0, note=51, velocity=80, time=0),
    Message('note_on', channel=0, note=63, velocity=57, time=120),
    Message('note_on', channel=0, note=58, velocity=57, time=0),
    Message('note_on', channel=0, note=51, velocity=57, time=0),
    Message('note_off', channel=0, note=63, velocity=80, time=120),
    Message('note_off', channel=0, note=58, velocity=80, time=0),
    Message('note_off', channel=0, note=51, velocity=80, time=0),
    Message('note_on', channel=0, note=63, velocity=57, time=120),
    Message('note_on', channel=0, note=58, velocity=57, time=0),
    Message('note_on', channel=0, note=51, velocity=57, time=0),
    Message('note_off', channel=0, note=63, velocity=80, time=120),
    Message('note_off', channel=0, note=58, velocity=80, time=0),
    Message('note_off', channel=0, note=51, velocity=80, time=0),
    Message('note_on', channel=0, note=63, velocity=57, time=120),
    Message('note_on', channel=0, note=58, velocity=57, time=0),
    Message('note_on', channel=0, note=51, velocity=57, time=0),
    Message('note_off', channel=0, note=63, velocity=80, time=120),
    Message('note_off', channel=0, note=58, velocity=80, time=0),
    Message('note_off', channel=0, note=51, velocity=80, time=0),
    Message('note_on', channel=0, note=63, velocity=57, time=120),
    Message('note_on', channel=0, note=58, velocity=57, time=0),
    Message('note_on', channel=0, note=51, velocity=57, time=0),
    Message('note_off', channel=0, note=63, velocity=80, time=120),
    Message('note_off', channel=0, note=58, velocity=80, time=0),
    Message('note_off', channel=0, note=51, velocity=80, time=0),
    Message('note_on', channel=0, note=58, velocity=57, time=120),
    Message('note_on', channel=0, note=53, velocity=57, time=0),
    Message('note_on', channel=0, note=46, velocity=57, time=0),
    Message('note_off', channel=0, note=58, velocity=80, time=120),
    Message('note_off', channel=0, note=53, velocity=80, time=0),
    Message('note_off', channel=0, note=46, velocity=80, time=0),
    Message('note_on', channel=0, note=58, velocity=57, time=120),
    Message('note_on', channel=0, note=53, velocity=57, time=0),
    Message('note_on', channel=0, note=46, velocity=57, time=0),
    Message('note_off', channel=0, note=58, velocity=80, time=120),
    Message('note_off', channel=0, note=53, velocity=80, time=0),
    Message('note_off', channel=0, note=46, velocity=80, time=0),
    Message('note_on', channel=0, note=58, velocity=57, time=120),
    Message('note_on', channel=0, note=53, velocity=57, time=0),
    Message('note_on', channel=0, note=46, velocity=57, time=0),
    Message('note_off', channel=0, note=58, velocity=80, time=120),
    Message('note_off', channel=0, note=53, velocity=80, time=0),
    Message('note_off', channel=0, note=46, velocity=80, time=0),
    Message('note_on', channel=0, note=58, velocity=57, time=120),
    Message('note_on', channel=0, note=53, velocity=57, time=0),
    Message('note_on', channel=0, note=46, velocity=57, time=0),
    Message('note_off', channel=0, note=58, velocity=80, time=120),
    Message('note_off', channel=0, note=53, velocity=80, time=0),
    Message('note_off', channel=0, note=46, velocity=80, time=0),
    Message('note_on', channel=0, note=58, velocity=57, time=120),
    Message('note_on', channel=0, note=53, velocity=57, time=0),
    Message('note_on', channel=0, note=46, velocity=57, time=0),
    Message('note_off', channel=0, note=58, velocity=80, time=120),
    Message('note_off', channel=0, note=53, velocity=80, time=0),
    Message('note_off', channel=0, note=46, velocity=80, time=0),
    Message('note_on', channel=0, note=58, velocity=57, time=120),
    Message('note_on', channel=0, note=53, velocity=57, time=0),
    Message('note_on', channel=0, note=46, velocity=57, time=0),
    Message('note_off', channel=0, note=58, velocity=80, time=120),
    Message('note_off', channel=0, note=53, velocity=80, time=0),
    Message('note_off', channel=0, note=46, velocity=80, time=0),
    Message('note_on', channel=0, note=58, velocity=57, time=120),
    Message('note_on', channel=0, note=53, velocity=57, time=0),
    Message('note_on', channel=0, note=46, velocity=57, time=0),
    Message('note_off', channel=0, note=58, velocity=80, time=120),
    Message('note_off', channel=0, note=53, velocity=80, time=0),
    Message('note_off', channel=0, note=46, velocity=80, time=0),
    Message('note_on', channel=0, note=58, velocity=57, time=120),
    Message('note_on', channel=0, note=53, velocity=57, time=0),
    Message('note_on', channel=0, note=46, velocity=57, time=0),
    Message('note_off', channel=0, note=58, velocity=80, time=120),
    Message('note_off', channel=0, note=53, velocity=80, time=0),
    Message('note_off', channel=0, note=46, velocity=80, time=0),
    Message('note_on', channel=0, note=53, velocity=57, time=120),
    Message('note_on', channel=0, note=48, velocity=57, time=0),
    Message('note_on', channel=0, note=41, velocity=57, time=0),
    Message('note_off', channel=0, note=53, velocity=80, time=120),
    Message('note_off', channel=0, note=48, velocity=80, time=0),
    Message('note_off', channel=0, note=41, velocity=80, time=0),
    Message('note_on', channel=0, note=53, velocity=57, time=120),
    Message('note_on', channel=0, note=48, velocity=57, time=0),
    Message('note_on', channel=0, note=41, velocity=57, time=0),
    Message('note_off', channel=0, note=53, velocity=80, time=120),
    Message('note_off', channel=0, note=48, velocity=80, time=0),
    Message('note_off', channel=0, note=41, velocity=80, time=0),
    Message('note_on', channel=0, note=53, velocity=57, time=120),
    Message('note_on', channel=0, note=48, velocity=57, time=0),
    Message('note_on', channel=0, note=41, velocity=57, time=0),
    Message('note_off', channel=0, note=53, velocity=80, time=120),
    Message('note_off', channel=0, note=48, velocity=80, time=0),
    Message('note_off', channel=0, note=41, velocity=80, time=0),
    Message('note_on', channel=0, note=53, velocity=57, time=120),
    Message('note_on', channel=0, note=48, velocity=57, time=0),
    Message('note_on', channel=0, note=41, velocity=57, time=0),
    Message('note_off', channel=0, note=53, velocity=80, time=120),
    Message('note_off', channel=0, note=48, velocity=80, time=0),
    Message('note_off', channel=0, note=41, velocity=80, time=0),
    Message('note_on', channel=0, note=53, velocity=57, time=120),
    Message('note_on', channel=0, note=48, velocity=57, time=0),
    Message('note_on', channel=0, note=41, velocity=57, time=0),
    Message('note_off', channel=0, note=53, velocity=80, time=120),
    Message('note_off', channel=0, note=48, velocity=80, time=0),
    Message('note_off', channel=0, note=41, velocity=80, time=0),
    Message('note_on', channel=0, note=53, velocity=57, time=120),
    Message('note_on', channel=0, note=48, velocity=57, time=0),
    Message('note_on', channel=0, note=41, velocity=57, time=0),
    Message('note_off', channel=0, note=53, velocity=80, time=120),
    Message('note_off', channel=0, note=48, velocity=80, time=0),
    Message('note_off', channel=0, note=41, velocity=80, time=0),
    Message('note_on', channel=0, note=53, velocity=57, time=120),
    Message('note_on', channel=0, note=48, velocity=57, time=0),
    Message('note_on', channel=0, note=41, velocity=57, time=0),
    Message('note_off', channel=0, note=53, velocity=80, time=120),
    Message('note_off', channel=0, note=48, velocity=80, time=0),
    Message('note_off', channel=0, note=41, velocity=80, time=0),
    Message('note_on', channel=0, note=53, velocity=57, time=120),
    Message('note_on', channel=0, note=48, velocity=57, time=0),
    Message('note_on', channel=0, note=41, velocity=57, time=0),
    Message('note_off', channel=0, note=53, velocity=80, time=120),
    Message('note_off', channel=0, note=48, velocity=80, time=0),
    Message('note_off', channel=0, note=41, velocity=80, time=0),
    Message('note_on', channel=0, note=56, velocity=57, time=120),
    Message('note_on', channel=0, note=51, velocity=57, time=0),
    Message('note_on', channel=0, note=44, velocity=57, time=0),
    Message('note_off', channel=0, note=56, velocity=80, time=120),
    Message('note_off', channel=0, note=51, velocity=80, time=0),
    Message('note_off', channel=0, note=44, velocity=80, time=0),
    Message('note_on', channel=0, note=56, velocity=57, time=120),
    Message('note_on', channel=0, note=51, velocity=57, time=0),
    Message('note_on', channel=0, note=44, velocity=57, time=0),
    Message('note_off', channel=0, note=56, velocity=80, time=120),
    Message('note_off', channel=0, note=51, velocity=80, time=0),
    Message('note_off', channel=0, note=44, velocity=80, time=0),
    Message('note_on', channel=0, note=56, velocity=57, time=120),
    Message('note_on', channel=0, note=51, velocity=57, time=0),
    Message('note_on', channel=0, note=44, velocity=57, time=0),
    Message('note_off', channel=0, note=56, velocity=80, time=120),
    Message('note_off', channel=0, note=51, velocity=80, time=0),
    Message('note_off', channel=0, note=44, velocity=80, time=0),
    Message('note_on', channel=0, note=56, velocity=57, time=120),
    Message('note_on', channel=0, note=51, velocity=57, time=0),
    Message('note_on', channel=0, note=44, velocity=57, time=0),
    Message('note_off', channel=0, note=56, velocity=80, time=120),
    Message('note_off', channel=0, note=51, velocity=80, time=0),
    Message('note_off', channel=0, note=44, velocity=80, time=0),
    Message('note_on', channel=0, note=56, velocity=57, time=120),
    Message('note_on', channel=0, note=51, velocity=57, time=0),
    Message('note_on', channel=0, note=44, velocity=57, time=0),
    Message('note_off', channel=0, note=56, velocity=80, time=120),
    Message('note_off', channel=0, note=51, velocity=80, time=0),
    Message('note_off', channel=0, note=44, velocity=80, time=0),
    Message('note_on', channel=0, note=56, velocity=57, time=120),
    Message('note_on', channel=0, note=51, velocity=57, time=0),
    Message('note_on', channel=0, note=44, velocity=57, time=0),
    Message('note_off', channel=0, note=56, velocity=80, time=120),
    Message('note_off', channel=0, note=51, velocity=80, time=0),
    Message('note_off', channel=0, note=44, velocity=80, time=0),
    Message('note_on', channel=0, note=56, velocity=57, time=120),
    Message('note_on', channel=0, note=51, velocity=57, time=0),
    Message('note_on', channel=0, note=44, velocity=57, time=0),
    Message('note_off', channel=0, note=56, velocity=80, time=120),
    Message('note_off', channel=0, note=51, velocity=80, time=0),
    Message('note_off', channel=0, note=44, velocity=80, time=0),
    Message('note_on', channel=0, note=56, velocity=57, time=120),
    Message('note_on', channel=0, note=51, velocity=57, time=0),
    Message('note_on', channel=0, note=44, velocity=57, time=0),
    Message('note_off', channel=0, note=56, velocity=80, time=120),
    Message('note_off', channel=0, note=51, velocity=80, time=0),
    Message('note_off', channel=0, note=44, velocity=80, time=0),
    Message('note_on', channel=0, note=63, velocity=57, time=120),
    Message('note_on', channel=0, note=58, velocity=57, time=0),
    Message('note_on', channel=0, note=51, velocity=57, time=0),
    Message('note_off', channel=0, note=63, velocity=80, time=120),
    Message('note_off', channel=0, note=58, velocity=80, time=0),
    Message('note_off', channel=0, note=51, velocity=80, time=0),
    Message('note_on', channel=0, note=63, velocity=57, time=120),
    Message('note_on', channel=0, note=58, velocity=57, time=0),
    Message('note_on', channel=0, note=51, velocity=57, time=0),
    Message('note_off', channel=0, note=63, velocity=80, time=120),
    Message('note_off', channel=0, note=58, velocity=80, time=0),
    Message('note_off', channel=0, note=51, velocity=80, time=0),
    Message('note_on', channel=0, note=63, velocity=57, time=120),
    Message('note_on', channel=0, note=58, velocity=57, time=0),
    Message('note_on', channel=0, note=51, velocity=57, time=0),
    Message('note_off', channel=0, note=63, velocity=80, time=120),
    Message('note_off', channel=0, note=58, velocity=80, time=0),
    Message('note_off', channel=0, note=51, velocity=80, time=0),
    Message('note_on', channel=0, note=63, velocity=57, time=120),
    Message('note_on', channel=0, note=58, velocity=57, time=0),
    Message('note_on', channel=0, note=51, velocity=57, time=0),
    Message('note_off', channel=0, note=63, velocity=80, time=120),
    Message('note_off', channel=0, note=58, velocity=80, time=0),
    Message('note_off', channel=0, note=51, velocity=80, time=0),
    Message('note_on', channel=0, note=63, velocity=57, time=120),
    Message('note_on', channel=0, note=58, velocity=57, time=0),
    Message('note_on', channel=0, note=51, velocity=57, time=0),
    Message('note_off', channel=0, note=63, velocity=80, time=120),
    Message('note_off', channel=0, note=58, velocity=80, time=0),
    Message('note_off', channel=0, note=51, velocity=80, time=0),
    Message('note_on', channel=0, note=63, velocity=57, time=120),
    Message('note_on', channel=0, note=58, velocity=57, time=0),
    Message('note_on', channel=0, note=51, velocity=57, time=0),
    Message('note_off', channel=0, note=63, velocity=80, time=120),
    Message('note_off', channel=0, note=58, velocity=80, time=0),
    Message('note_off', channel=0, note=51, velocity=80, time=0),
    Message('note_on', channel=0, note=63, velocity=57, time=120),
    Message('note_on', channel=0, note=58, velocity=57, time=0),
    Message('note_on', channel=0, note=51, velocity=57, time=0),
    Message('note_off', channel=0, note=63, velocity=80, time=120),
    Message('note_off', channel=0, note=58, velocity=80, time=0),
    Message('note_off', channel=0, note=51, velocity=80, time=0),
    Message('note_on', channel=0, note=63, velocity=57, time=120),
    Message('note_on', channel=0, note=58, velocity=57, time=0),
    Message('note_on', channel=0, note=51, velocity=57, time=0),
    Message('note_off', channel=0, note=63, velocity=80, time=120),
    Message('note_off', channel=0, note=58, velocity=80, time=0),
    Message('note_off', channel=0, note=51, velocity=80, time=0),
    Message('note_on', channel=0, note=58, velocity=57, time=120),
    Message('note_on', channel=0, note=53, velocity=57, time=0),
    Message('note_on', channel=0, note=46, velocity=57, time=0),
    Message('note_off', channel=0, note=58, velocity=80, time=120),
    Message('note_off', channel=0, note=53, velocity=80, time=0),
    Message('note_off', channel=0, note=46, velocity=80, time=0),
    Message('note_on', channel=0, note=58, velocity=57, time=120),
    Message('note_on', channel=0, note=53, velocity=57, time=0),
    Message('note_on', channel=0, note=46, velocity=57, time=0),
    Message('note_off', channel=0, note=58, velocity=80, time=120),
    Message('note_off', channel=0, note=53, velocity=80, time=0),
    Message('note_off', channel=0, note=46, velocity=80, time=0),
    Message('note_on', channel=0, note=58, velocity=57, time=120),
    Message('note_on', channel=0, note=53, velocity=57, time=0),
    Message('note_on', channel=0, note=46, velocity=57, time=0),
    Message('note_off', channel=0, note=58, velocity=80, time=120),
    Message('note_off', channel=0, note=53, velocity=80, time=0),
    Message('note_off', channel=0, note=46, velocity=80, time=0),
    Message('note_on', channel=0, note=58, velocity=57, time=120),
    Message('note_on', channel=0, note=53, velocity=57, time=0),
    Message('note_on', channel=0, note=46, velocity=57, time=0),
    Message('note_off', channel=0, note=58, velocity=80, time=120),
    Message('note_off', channel=0, note=53, velocity=80, time=0),
    Message('note_off', channel=0, note=46, velocity=80, time=0),
    Message('note_on', channel=0, note=58, velocity=57, time=120),
    Message('note_on', channel=0, note=53, velocity=57, time=0),
    Message('note_on', channel=0, note=46, velocity=57, time=0),
    Message('note_off', channel=0, note=58, velocity=80, time=120),
    Message('note_off', channel=0, note=53, velocity=80, time=0),
    Message('note_off', channel=0, note=46, velocity=80, time=0),
    Message('note_on', channel=0, note=58, velocity=57, time=120),
    Message('note_on', channel=0, note=53, velocity=57, time=0),
    Message('note_on', channel=0, note=46, velocity=57, time=0),
    Message('note_off', channel=0, note=58, velocity=80, time=120),
    Message('note_off', channel=0, note=53, velocity=80, time=0),
    Message('note_off', channel=0, note=46, velocity=80, time=0),
    Message('note_on', channel=0, note=58, velocity=57, time=120),
    Message('note_on', channel=0, note=53, velocity=57, time=0),
    Message('note_on', channel=0, note=46, velocity=57, time=0),
    Message('note_off', channel=0, note=58, velocity=80, time=120),
    Message('note_off', channel=0, note=53, velocity=80, time=0),
    Message('note_off', channel=0, note=46, velocity=80, time=0),
    Message('note_on', channel=0, note=58, velocity=57, time=120),
    Message('note_on', channel=0, note=53, velocity=57, time=0),
    Message('note_on', channel=0, note=46, velocity=57, time=0),
    Message('note_off', channel=0, note=58, velocity=80, time=120),
    Message('note_off', channel=0, note=53, velocity=80, time=0),
    Message('note_off', channel=0, note=46, velocity=80, time=0),
    Message('note_on', channel=0, note=53, velocity=57, time=120),
    Message('note_on', channel=0, note=48, velocity=57, time=0),
    Message('note_on', channel=0, note=41, velocity=57, time=0),
    Message('note_off', channel=0, note=53, velocity=80, time=120),
    Message('note_off', channel=0, note=48, velocity=80, time=0),
    Message('note_off', channel=0, note=41, velocity=80, time=0),
    Message('note_on', channel=0, note=53, velocity=57, time=120),
    Message('note_on', channel=0, note=48, velocity=57, time=0),
    Message('note_on', channel=0, note=41, velocity=57, time=0),
    Message('note_off', channel=0, note=53, velocity=80, time=120),
    Message('note_off', channel=0, note=48, velocity=80, time=0),
    Message('note_off', channel=0, note=41, velocity=80, time=0),
    Message('note_on', channel=0, note=53, velocity=57, time=120),
    Message('note_on', channel=0, note=48, velocity=57, time=0),
    Message('note_on', channel=0, note=41, velocity=57, time=0),
    Message('note_off', channel=0, note=53, velocity=80, time=120),
    Message('note_off', channel=0, note=48, velocity=80, time=0),
    Message('note_off', channel=0, note=41, velocity=80, time=0),
    Message('note_on', channel=0, note=53, velocity=57, time=120),
    Message('note_on', channel=0, note=48, velocity=57, time=0),
    Message('note_on', channel=0, note=41, velocity=57, time=0),
    Message('note_off', channel=0, note=53, velocity=80, time=120),
    Message('note_off', channel=0, note=48, velocity=80, time=0),
    Message('note_off', channel=0, note=41, velocity=80, time=0),
    Message('note_on', channel=0, note=53, velocity=57, time=120),
    Message('note_on', channel=0, note=48, velocity=57, time=0),
    Message('note_on', channel=0, note=41, velocity=57, time=0),
    Message('note_off', channel=0, note=53, velocity=80, time=120),
    Message('note_off', channel=0, note=48, velocity=80, time=0),
    Message('note_off', channel=0, note=41, velocity=80, time=0),
    Message('note_on', channel=0, note=53, velocity=57, time=120),
    Message('note_on', channel=0, note=48, velocity=57, time=0),
    Message('note_on', channel=0, note=41, velocity=57, time=0),
    Message('note_off', channel=0, note=53, velocity=80, time=120),
    Message('note_off', channel=0, note=48, velocity=80, time=0),
    Message('note_off', channel=0, note=41, velocity=80, time=0),
    Message('note_on', channel=0, note=53, velocity=57, time=120),
    Message('note_on', channel=0, note=48, velocity=57, time=0),
    Message('note_on', channel=0, note=41, velocity=57, time=0),
    Message('note_off', channel=0, note=53, velocity=80, time=120),
    Message('note_off', channel=0, note=48, velocity=80, time=0),
    Message('note_off', channel=0, note=41, velocity=80, time=0),
    Message('note_on', channel=0, note=53, velocity=57, time=120),
    Message('note_on', channel=0, note=48, velocity=57, time=0),
    Message('note_on', channel=0, note=41, velocity=57, time=0),
    Message('note_off', channel=0, note=53, velocity=80, time=120),
    Message('note_off', channel=0, note=48, velocity=80, time=0),
    Message('note_off', channel=0, note=41, velocity=80, time=0),
    Message('note_on', channel=0, note=56, velocity=57, time=120),
    Message('note_on', channel=0, note=51, velocity=57, time=0),
    Message('note_on', channel=0, note=44, velocity=57, time=0),
    Message('note_off', channel=0, note=56, velocity=80, time=120),
    Message('note_off', channel=0, note=51, velocity=80, time=0),
    Message('note_off', channel=0, note=44, velocity=80, time=0),
    Message('note_on', channel=0, note=56, velocity=57, time=120),
    Message('note_on', channel=0, note=51, velocity=57, time=0),
    Message('note_on', channel=0, note=44, velocity=57, time=0),
    Message('note_off', channel=0, note=56, velocity=80, time=120),
    Message('note_off', channel=0, note=51, velocity=80, time=0),
    Message('note_off', channel=0, note=44, velocity=80, time=0),
    Message('note_on', channel=0, note=56, velocity=57, time=120),
    Message('note_on', channel=0, note=51, velocity=57, time=0),
    Message('note_on', channel=0, note=44, velocity=57, time=0),
    Message('note_off', channel=0, note=56, velocity=80, time=120),
    Message('note_off', channel=0, note=51, velocity=80, time=0),
    Message('note_off', channel=0, note=44, velocity=80, time=0),
    Message('note_on', channel=0, note=56, velocity=57, time=120),
    Message('note_on', channel=0, note=51, velocity=57, time=0),
    Message('note_on', channel=0, note=44, velocity=57, time=0),
    Message('note_off', channel=0, note=56, velocity=80, time=120),
    Message('note_off', channel=0, note=51, velocity=80, time=0),
    Message('note_off', channel=0, note=44, velocity=80, time=0),
    Message('note_on', channel=0, note=56, velocity=57, time=120),
    Message('note_on', channel=0, note=51, velocity=57, time=0),
    Message('note_on', channel=0, note=44, velocity=57, time=0),
    Message('note_off', channel=0, note=56, velocity=80, time=120),
    Message('note_off', channel=0, note=51, velocity=80, time=0),
    Message('note_off', channel=0, note=44, velocity=80, time=0),
    Message('note_on', channel=0, note=56, velocity=57, time=120),
    Message('note_on', channel=0, note=51, velocity=57, time=0),
    Message('note_on', channel=0, note=44, velocity=57, time=0),
    Message('note_off', channel=0, note=56, velocity=80, time=120),
    Message('note_off', channel=0, note=51, velocity=80, time=0),
    Message('note_off', channel=0, note=44, velocity=80, time=0),
    Message('note_on', channel=0, note=56, velocity=57, time=120),
    Message('note_on', channel=0, note=51, velocity=57, time=0),
    Message('note_on', channel=0, note=44, velocity=57, time=0),
    Message('note_off', channel=0, note=56, velocity=80, time=120),
    Message('note_off', channel=0, note=51, velocity=80, time=0),
    Message('note_off', channel=0, note=44, velocity=80, time=0),
    Message('note_on', channel=0, note=56, velocity=57, time=120),
    Message('note_on', channel=0, note=51, velocity=57, time=0),
    Message('note_on', channel=0, note=44, velocity=57, time=0),
    Message('note_off', channel=0, note=56, velocity=80, time=120),
    Message('note_off', channel=0, note=51, velocity=80, time=0),
    Message('note_off', channel=0, note=44, velocity=80, time=0),
    Message('note_on', channel=0, note=63, velocity=57, time=120),
    Message('note_on', channel=0, note=58, velocity=57, time=0),
    Message('note_on', channel=0, note=51, velocity=57, time=0),
    Message('note_off', channel=0, note=63, velocity=80, time=120),
    Message('note_off', channel=0, note=58, velocity=80, time=0),
    Message('note_off', channel=0, note=51, velocity=80, time=0),
    Message('note_on', channel=0, note=63, velocity=57, time=120),
    Message('note_on', channel=0, note=58, velocity=57, time=0),
    Message('note_on', channel=0, note=51, velocity=57, time=0),
    Message('note_off', channel=0, note=63, velocity=80, time=120),
    Message('note_off', channel=0, note=58, velocity=80, time=0),
    Message('note_off', channel=0, note=51, velocity=80, time=0),
    Message('note_on', channel=0, note=63, velocity=57, time=120),
    Message('note_on', channel=0, note=58, velocity=57, time=0),
    Message('note_on', channel=0, note=51, velocity=57, time=0),
    Message('note_off', channel=0, note=63, velocity=80, time=120),
    Message('note_off', channel=0, note=58, velocity=80, time=0),
    Message('note_off', channel=0, note=51, velocity=80, time=0),
    Message('note_on', channel=0, note=63, velocity=57, time=120),
    Message('note_on', channel=0, note=58, velocity=57, time=0),
    Message('note_on', channel=0, note=51, velocity=57, time=0),
    Message('note_off', channel=0, note=63, velocity=80, time=120),
    Message('note_off', channel=0, note=58, velocity=80, time=0),
    Message('note_off', channel=0, note=51, velocity=80, time=0),
    Message('note_on', channel=0, note=63, velocity=57, time=120),
    Message('note_on', channel=0, note=58, velocity=57, time=0),
    Message('note_on', channel=0, note=51, velocity=57, time=0),
    Message('note_off', channel=0, note=63, velocity=80, time=120),
    Message('note_off', channel=0, note=58, velocity=80, time=0),
    Message('note_off', channel=0, note=51, velocity=80, time=0),
    Message('note_on', channel=0, note=63, velocity=57, time=120),
    Message('note_on', channel=0, note=58, velocity=57, time=0),
    Message('note_on', channel=0, note=51, velocity=57, time=0),
    Message('note_off', channel=0, note=63, velocity=80, time=120),
    Message('note_off', channel=0, note=58, velocity=80, time=0),
    Message('note_off', channel=0, note=51, velocity=80, time=0),
    Message('note_on', channel=0, note=63, velocity=57, time=120),
    Message('note_on', channel=0, note=58, velocity=57, time=0),
    Message('note_on', channel=0, note=51, velocity=57, time=0),
    Message('note_off', channel=0, note=63, velocity=80, time=120),
    Message('note_off', channel=0, note=58, velocity=80, time=0),
    Message('note_off', channel=0, note=51, velocity=80, time=0),
    Message('note_on', channel=0, note=63, velocity=57, time=120),
    Message('note_on', channel=0, note=58, velocity=57, time=0),
    Message('note_on', channel=0, note=51, velocity=57, time=0),
    Message('note_off', channel=0, note=63, velocity=80, time=120),
    Message('note_off', channel=0, note=58, velocity=80, time=0),
    Message('note_off', channel=0, note=51, velocity=80, time=0),
    Message('note_on', channel=0, note=58, velocity=57, time=120),
    Message('note_on', channel=0, note=53, velocity=57, time=0),
    Message('note_on', channel=0, note=46, velocity=57, time=0),
    Message('note_off', channel=0, note=58, velocity=80, time=120),
    Message('note_off', channel=0, note=53, velocity=80, time=0),
    Message('note_off', channel=0, note=46, velocity=80, time=0),
    Message('note_on', channel=0, note=58, velocity=57, time=120),
    Message('note_on', channel=0, note=53, velocity=57, time=0),
    Message('note_on', channel=0, note=46, velocity=57, time=0),
    Message('note_off', channel=0, note=58, velocity=80, time=120),
    Message('note_off', channel=0, note=53, velocity=80, time=0),
    Message('note_off', channel=0, note=46, velocity=80, time=0),
    Message('note_on', channel=0, note=58, velocity=57, time=120),
    Message('note_on', channel=0, note=53, velocity=57, time=0),
    Message('note_on', channel=0, note=46, velocity=57, time=0),
    Message('note_off', channel=0, note=58, velocity=80, time=120),
    Message('note_off', channel=0, note=53, velocity=80, time=0),
    Message('note_off', channel=0, note=46, velocity=80, time=0),
    Message('note_on', channel=0, note=58, velocity=57, time=120),
    Message('note_on', channel=0, note=53, velocity=57, time=0),
    Message('note_on', channel=0, note=46, velocity=57, time=0),
    Message('note_off', channel=0, note=58, velocity=80, time=120),
    Message('note_off', channel=0, note=53, velocity=80, time=0),
    Message('note_off', channel=0, note=46, velocity=80, time=0),
    Message('note_on', channel=0, note=58, velocity=57, time=120),
    Message('note_on', channel=0, note=53, velocity=57, time=0),
    Message('note_on', channel=0, note=46, velocity=57, time=0),
    Message('note_off', channel=0, note=58, velocity=80, time=120),
    Message('note_off', channel=0, note=53, velocity=80, time=0),
    Message('note_off', channel=0, note=46, velocity=80, time=0),
    Message('note_on', channel=0, note=58, velocity=57, time=120),
    Message('note_on', channel=0, note=53, velocity=57, time=0),
    Message('note_on', channel=0, note=46, velocity=57, time=0),
    Message('note_off', channel=0, note=58, velocity=80, time=120),
    Message('note_off', channel=0, note=53, velocity=80, time=0),
    Message('note_off', channel=0, note=46, velocity=80, time=0),
    Message('note_on', channel=0, note=58, velocity=57, time=120),
    Message('note_on', channel=0, note=53, velocity=57, time=0),
    Message('note_on', channel=0, note=46, velocity=57, time=0),
    Message('note_off', channel=0, note=58, velocity=80, time=120),
    Message('note_off', channel=0, note=53, velocity=80, time=0),
    Message('note_off', channel=0, note=46, velocity=80, time=0),
    Message('note_on', channel=0, note=58, velocity=57, time=120),
    Message('note_on', channel=0, note=53, velocity=57, time=0),
    Message('note_on', channel=0, note=46, velocity=57, time=0),
    Message('note_off', channel=0, note=58, velocity=80, time=120),
    Message('note_off', channel=0, note=53, velocity=80, time=0),
    Message('note_off', channel=0, note=46, velocity=80, time=0),
    Message('note_on', channel=0, note=53, velocity=57, time=120),
    Message('note_on', channel=0, note=48, velocity=57, time=0),
    Message('note_on', channel=0, note=41, velocity=57, time=0),
    Message('note_off', channel=0, note=53, velocity=80, time=120),
    Message('note_off', channel=0, note=48, velocity=80, time=0),
    Message('note_off', channel=0, note=41, velocity=80, time=0),
    Message('note_on', channel=0, note=53, velocity=57, time=120),
    Message('note_on', channel=0, note=48, velocity=57, time=0),
    Message('note_on', channel=0, note=41, velocity=57, time=0),
    Message('note_off', channel=0, note=53, velocity=80, time=120),
    Message('note_off', channel=0, note=48, velocity=80, time=0),
    Message('note_off', channel=0, note=41, velocity=80, time=0),
    Message('note_on', channel=0, note=53, velocity=57, time=120),
    Message('note_on', channel=0, note=48, velocity=57, time=0),
    Message('note_on', channel=0, note=41, velocity=57, time=0),
    Message('note_off', channel=0, note=53, velocity=80, time=120),
    Message('note_off', channel=0, note=48, velocity=80, time=0),
    Message('note_off', channel=0, note=41, velocity=80, time=0),
    Message('note_on', channel=0, note=53, velocity=57, time=120),
    Message('note_on', channel=0, note=48, velocity=57, time=0),
    Message('note_on', channel=0, note=41, velocity=57, time=0),
    Message('note_off', channel=0, note=53, velocity=80, time=120),
    Message('note_off', channel=0, note=48, velocity=80, time=0),
    Message('note_off', channel=0, note=41, velocity=80, time=0),
    Message('note_on', channel=0, note=53, velocity=57, time=120),
    Message('note_on', channel=0, note=48, velocity=57, time=0),
    Message('note_on', channel=0, note=41, velocity=57, time=0),
    Message('note_off', channel=0, note=53, velocity=80, time=120),
    Message('note_off', channel=0, note=48, velocity=80, time=0),
    Message('note_off', channel=0, note=41, velocity=80, time=0),
    Message('note_on', channel=0, note=53, velocity=57, time=120),
    Message('note_on', channel=0, note=48, velocity=57, time=0),
    Message('note_on', channel=0, note=41, velocity=57, time=0),
    Message('note_off', channel=0, note=53, velocity=80, time=120),
    Message('note_off', channel=0, note=48, velocity=80, time=0),
    Message('note_off', channel=0, note=41, velocity=80, time=0),
    Message('note_on', channel=0, note=53, velocity=57, time=120),
    Message('note_on', channel=0, note=48, velocity=57, time=0),
    Message('note_on', channel=0, note=41, velocity=57, time=0),
    Message('note_off', channel=0, note=53, velocity=80, time=120),
    Message('note_off', channel=0, note=48, velocity=80, time=0),
    Message('note_off', channel=0, note=41, velocity=80, time=0),
    Message('note_on', channel=0, note=53, velocity=57, time=120),
    Message('note_on', channel=0, note=48, velocity=57, time=0),
    Message('note_on', channel=0, note=41, velocity=57, time=0),
    Message('note_off', channel=0, note=53, velocity=80, time=120),
    Message('note_off', channel=0, note=48, velocity=80, time=0),
    Message('note_off', channel=0, note=41, velocity=80, time=0),
    Message('note_on', channel=0, note=56, velocity=57, time=120),
    Message('note_on', channel=0, note=51, velocity=57, time=0),
    Message('note_on', channel=0, note=44, velocity=57, time=0),
    Message('note_off', channel=0, note=56, velocity=80, time=120),
    Message('note_off', channel=0, note=51, velocity=80, time=0),
    Message('note_off', channel=0, note=44, velocity=80, time=0),
    Message('note_on', channel=0, note=56, velocity=57, time=120),
    Message('note_on', channel=0, note=51, velocity=57, time=0),
    Message('note_on', channel=0, note=44, velocity=57, time=0),
    Message('note_off', channel=0, note=56, velocity=80, time=120),
    Message('note_off', channel=0, note=51, velocity=80, time=0),
    Message('note_off', channel=0, note=44, velocity=80, time=0),
    Message('note_on', channel=0, note=56, velocity=57, time=120),
    Message('note_on', channel=0, note=51, velocity=57, time=0),
    Message('note_on', channel=0, note=44, velocity=57, time=0),
    Message('note_off', channel=0, note=56, velocity=80, time=120),
    Message('note_off', channel=0, note=51, velocity=80, time=0),
    Message('note_off', channel=0, note=44, velocity=80, time=0),
    Message('note_on', channel=0, note=56, velocity=57, time=120),
    Message('note_on', channel=0, note=51, velocity=57, time=0),
    Message('note_on', channel=0, note=44, velocity=57, time=0),
    Message('note_off', channel=0, note=56, velocity=80, time=120),
    Message('note_off', channel=0, note=51, velocity=80, time=0),
    Message('note_off', channel=0, note=44, velocity=80, time=0),
    Message('note_on', channel=0, note=56, velocity=57, time=120),
    Message('note_on', channel=0, note=51, velocity=57, time=0),
    Message('note_on', channel=0, note=44, velocity=57, time=0),
    Message('note_off', channel=0, note=56, velocity=80, time=120),
    Message('note_off', channel=0, note=51, velocity=80, time=0),
    Message('note_off', channel=0, note=44, velocity=80, time=0),
    Message('note_on', channel=0, note=56, velocity=57, time=120),
    Message('note_on', channel=0, note=51, velocity=57, time=0),
    Message('note_on', channel=0, note=44, velocity=57, time=0),
    Message('note_off', channel=0, note=56, velocity=80, time=120),
    Message('note_off', channel=0, note=51, velocity=80, time=0),
    Message('note_off', channel=0, note=44, velocity=80, time=0),
    Message('note_on', channel=0, note=56, velocity=57, time=120),
    Message('note_on', channel=0, note=51, velocity=57, time=0),
    Message('note_on', channel=0, note=44, velocity=57, time=0),
    Message('note_off', channel=0, note=56, velocity=80, time=120),
    Message('note_off', channel=0, note=51, velocity=80, time=0),
    Message('note_off', channel=0, note=44, velocity=80, time=0),
    Message('note_on', channel=0, note=56, velocity=57, time=120),
    Message('note_on', channel=0, note=51, velocity=57, time=0),
    Message('note_on', channel=0, note=44, velocity=57, time=0),
    Message('note_off', channel=0, note=56, velocity=80, time=120),
    Message('note_off', channel=0, note=51, velocity=80, time=0),
    Message('note_off', channel=0, note=44, velocity=80, time=0),
    Message('note_on', channel=0, note=63, velocity=57, time=120),
    Message('note_on', channel=0, note=58, velocity=57, time=0),
    Message('note_on', channel=0, note=51, velocity=57, time=0),
    Message('note_off', channel=0, note=63, velocity=80, time=120),
    Message('note_off', channel=0, note=58, velocity=80, time=0),
    Message('note_off', channel=0, note=51, velocity=80, time=0),
    Message('note_on', channel=0, note=63, velocity=57, time=120),
    Message('note_on', channel=0, note=58, velocity=57, time=0),
    Message('note_on', channel=0, note=51, velocity=57, time=0),
    Message('note_off', channel=0, note=63, velocity=80, time=120),
    Message('note_off', channel=0, note=58, velocity=80, time=0),
    Message('note_off', channel=0, note=51, velocity=80, time=0),
    Message('note_on', channel=0, note=63, velocity=57, time=120),
    Message('note_on', channel=0, note=58, velocity=57, time=0),
    Message('note_on', channel=0, note=51, velocity=57, time=0),
    Message('note_off', channel=0, note=63, velocity=80, time=120),
    Message('note_off', channel=0, note=58, velocity=80, time=0),
    Message('note_off', channel=0, note=51, velocity=80, time=0),
    Message('note_on', channel=0, note=63, velocity=57, time=120),
    Message('note_on', channel=0, note=58, velocity=57, time=0),
    Message('note_on', channel=0, note=51, velocity=57, time=0),
    Message('note_off', channel=0, note=63, velocity=80, time=120),
    Message('note_off', channel=0, note=58, velocity=80, time=0),
    Message('note_off', channel=0, note=51, velocity=80, time=0),
    Message('note_on', channel=0, note=63, velocity=57, time=120),
    Message('note_on', channel=0, note=58, velocity=57, time=0),
    Message('note_on', channel=0, note=51, velocity=57, time=0),
    Message('note_off', channel=0, note=63, velocity=80, time=120),
    Message('note_off', channel=0, note=58, velocity=80, time=0),
    Message('note_off', channel=0, note=51, velocity=80, time=0),
    Message('note_on', channel=0, note=63, velocity=57, time=120),
    Message('note_on', channel=0, note=58, velocity=57, time=0),
    Message('note_on', channel=0, note=51, velocity=57, time=0),
    Message('note_off', channel=0, note=63, velocity=80, time=120),
    Message('note_off', channel=0, note=58, velocity=80, time=0),
    Message('note_off', channel=0, note=51, velocity=80, time=0),
    Message('note_on', channel=0, note=63, velocity=57, time=120),
    Message('note_on', channel=0, note=58, velocity=57, time=0),
    Message('note_on', channel=0, note=51, velocity=57, time=0),
    Message('note_off', channel=0, note=63, velocity=80, time=120),
    Message('note_off', channel=0, note=58, velocity=80, time=0),
    Message('note_off', channel=0, note=51, velocity=80, time=0),
    Message('note_on', channel=0, note=63, velocity=57, time=120),
    Message('note_on', channel=0, note=58, velocity=57, time=0),
    Message('note_on', channel=0, note=51, velocity=57, time=0),
    Message('note_off', channel=0, note=63, velocity=80, time=120),
    Message('note_off', channel=0, note=58, velocity=80, time=0),
    Message('note_off', channel=0, note=51, velocity=80, time=0),
    Message('note_on', channel=0, note=58, velocity=57, time=120),
    Message('note_on', channel=0, note=53, velocity=57, time=0),
    Message('note_on', channel=0, note=46, velocity=57, time=0),
    Message('note_off', channel=0, note=58, velocity=80, time=120),
    Message('note_off', channel=0, note=53, velocity=80, time=0),
    Message('note_off', channel=0, note=46, velocity=80, time=0),
    Message('note_on', channel=0, note=58, velocity=57, time=120),
    Message('note_on', channel=0, note=53, velocity=57, time=0),
    Message('note_on', channel=0, note=46, velocity=57, time=0),
    Message('note_off', channel=0, note=58, velocity=80, time=120),
    Message('note_off', channel=0, note=53, velocity=80, time=0),
    Message('note_off', channel=0, note=46, velocity=80, time=0),
    Message('note_on', channel=0, note=58, velocity=57, time=120),
    Message('note_on', channel=0, note=53, velocity=57, time=0),
    Message('note_on', channel=0, note=46, velocity=57, time=0),
    Message('note_off', channel=0, note=58, velocity=80, time=120),
    Message('note_off', channel=0, note=53, velocity=80, time=0),
    Message('note_off', channel=0, note=46, velocity=80, time=0),
    Message('note_on', channel=0, note=58, velocity=57, time=120),
    Message('note_on', channel=0, note=53, velocity=57, time=0),
    Message('note_on', channel=0, note=46, velocity=57, time=0),
    Message('note_off', channel=0, note=58, velocity=80, time=120),
    Message('note_off', channel=0, note=53, velocity=80, time=0),
    Message('note_off', channel=0, note=46, velocity=80, time=0),
    Message('note_on', channel=0, note=58, velocity=57, time=120),
    Message('note_on', channel=0, note=53, velocity=57, time=0),
    Message('note_on', channel=0, note=46, velocity=57, time=0),
    Message('note_off', channel=0, note=58, velocity=80, time=120),
    Message('note_off', channel=0, note=53, velocity=80, time=0),
    Message('note_off', channel=0, note=46, velocity=80, time=0),
    Message('note_on', channel=0, note=58, velocity=57, time=120),
    Message('note_on', channel=0, note=53, velocity=57, time=0),
    Message('note_on', channel=0, note=46, velocity=57, time=0),
    Message('note_off', channel=0, note=58, velocity=80, time=120),
    Message('note_off', channel=0, note=53, velocity=80, time=0),
    Message('note_off', channel=0, note=46, velocity=80, time=0),
    Message('note_on', channel=0, note=58, velocity=57, time=120),
    Message('note_on', channel=0, note=53, velocity=57, time=0),
    Message('note_on', channel=0, note=46, velocity=57, time=0),
    Message('note_off', channel=0, note=58, velocity=80, time=120),
    Message('note_off', channel=0, note=53, velocity=80, time=0),
    Message('note_off', channel=0, note=46, velocity=80, time=0),
    Message('note_on', channel=0, note=58, velocity=57, time=120),
    Message('note_on', channel=0, note=53, velocity=57, time=0),
    Message('note_on', channel=0, note=46, velocity=57, time=0),
    Message('note_off', channel=0, note=58, velocity=80, time=120),
    Message('note_off', channel=0, note=53, velocity=80, time=0),
    Message('note_off', channel=0, note=46, velocity=80, time=0),
    Message('note_on', channel=0, note=53, velocity=57, time=120),
    Message('note_on', channel=0, note=48, velocity=57, time=0),
    Message('note_on', channel=0, note=41, velocity=57, time=0),
    Message('note_off', channel=0, note=53, velocity=80, time=120),
    Message('note_off', channel=0, note=48, velocity=80, time=0),
    Message('note_off', channel=0, note=41, velocity=80, time=0),
    Message('note_on', channel=0, note=53, velocity=57, time=120),
    Message('note_on', channel=0, note=48, velocity=57, time=0),
    Message('note_on', channel=0, note=41, velocity=57, time=0),
    Message('note_off', channel=0, note=53, velocity=80, time=120),
    Message('note_off', channel=0, note=48, velocity=80, time=0),
    Message('note_off', channel=0, note=41, velocity=80, time=0),
    Message('note_on', channel=0, note=53, velocity=57, time=120),
    Message('note_on', channel=0, note=48, velocity=57, time=0),
    Message('note_on', channel=0, note=41, velocity=57, time=0),
    Message('note_off', channel=0, note=53, velocity=80, time=120),
    Message('note_off', channel=0, note=48, velocity=80, time=0),
    Message('note_off', channel=0, note=41, velocity=80, time=0),
    Message('note_on', channel=0, note=53, velocity=57, time=120),
    Message('note_on', channel=0, note=48, velocity=57, time=0),
    Message('note_on', channel=0, note=41, velocity=57, time=0),
    Message('note_off', channel=0, note=53, velocity=80, time=120),
    Message('note_off', channel=0, note=48, velocity=80, time=0),
    Message('note_off', channel=0, note=41, velocity=80, time=0),
    Message('note_on', channel=0, note=53, velocity=57, time=120),
    Message('note_on', channel=0, note=48, velocity=57, time=0),
    Message('note_on', channel=0, note=41, velocity=57, time=0),
    Message('note_off', channel=0, note=53, velocity=80, time=120),
    Message('note_off', channel=0, note=48, velocity=80, time=0),
    Message('note_off', channel=0, note=41, velocity=80, time=0),
    Message('note_on', channel=0, note=53, velocity=57, time=120),
    Message('note_on', channel=0, note=48, velocity=57, time=0),
    Message('note_on', channel=0, note=41, velocity=57, time=0),
    Message('note_off', channel=0, note=53, velocity=80, time=120),
    Message('note_off', channel=0, note=48, velocity=80, time=0),
    Message('note_off', channel=0, note=41, velocity=80, time=0),
    Message('note_on', channel=0, note=53, velocity=57, time=120),
    Message('note_on', channel=0, note=48, velocity=57, time=0),
    Message('note_on', channel=0, note=41, velocity=57, time=0),
    Message('note_off', channel=0, note=53, velocity=80, time=120),
    Message('note_off', channel=0, note=48, velocity=80, time=0),
    Message('note_off', channel=0, note=41, velocity=80, time=0),
    Message('note_on', channel=0, note=53, velocity=57, time=120),
    Message('note_on', channel=0, note=48, velocity=57, time=0),
    Message('note_on', channel=0, note=41, velocity=57, time=0),
    Message('note_off', channel=0, note=53, velocity=80, time=120),
    Message('note_off', channel=0, note=48, velocity=80, time=0),
    Message('note_off', channel=0, note=41, velocity=80, time=0),
    Message('note_on', channel=0, note=56, velocity=57, time=120),
    Message('note_on', channel=0, note=51, velocity=57, time=0),
    Message('note_on', channel=0, note=44, velocity=57, time=0),
    Message('note_off', channel=0, note=56, velocity=80, time=120),
    Message('note_off', channel=0, note=51, velocity=80, time=0),
    Message('note_off', channel=0, note=44, velocity=80, time=0),
    Message('note_on', channel=0, note=56, velocity=57, time=120),
    Message('note_on', channel=0, note=51, velocity=57, time=0),
    Message('note_on', channel=0, note=44, velocity=57, time=0),
    Message('note_off', channel=0, note=56, velocity=80, time=120),
    Message('note_off', channel=0, note=51, velocity=80, time=0),
    Message('note_off', channel=0, note=44, velocity=80, time=0),
    Message('note_on', channel=0, note=56, velocity=57, time=120),
    Message('note_on', channel=0, note=51, velocity=57, time=0),
    Message('note_on', channel=0, note=44, velocity=57, time=0),
    Message('note_off', channel=0, note=56, velocity=80, time=120),
    Message('note_off', channel=0, note=51, velocity=80, time=0),
    Message('note_off', channel=0, note=44, velocity=80, time=0),
    Message('note_on', channel=0, note=56, velocity=57, time=120),
    Message('note_on', channel=0, note=51, velocity=57, time=0),
    Message('note_on', channel=0, note=44, velocity=57, time=0),
    Message('note_off', channel=0, note=56, velocity=80, time=120),
    Message('note_off', channel=0, note=51, velocity=80, time=0),
    Message('note_off', channel=0, note=44, velocity=80, time=0),
    Message('note_on', channel=0, note=56, velocity=57, time=120),
    Message('note_on', channel=0, note=51, velocity=57, time=0),
    Message('note_on', channel=0, note=44, velocity=57, time=0),
    Message('note_off', channel=0, note=56, velocity=80, time=120),
    Message('note_off', channel=0, note=51, velocity=80, time=0),
    Message('note_off', channel=0, note=44, velocity=80, time=0),
    Message('note_on', channel=0, note=56, velocity=57, time=120),
    Message('note_on', channel=0, note=51, velocity=57, time=0),
    Message('note_on', channel=0, note=44, velocity=57, time=0),
    Message('note_off', channel=0, note=56, velocity=80, time=120),
    Message('note_off', channel=0, note=51, velocity=80, time=0),
    Message('note_off', channel=0, note=44, velocity=80, time=0),
    Message('note_on', channel=0, note=56, velocity=57, time=120),
    Message('note_on', channel=0, note=51, velocity=57, time=0),
    Message('note_on', channel=0, note=44, velocity=57, time=0),
    Message('note_off', channel=0, note=56, velocity=80, time=120),
    Message('note_off', channel=0, note=51, velocity=80, time=0),
    Message('note_off', channel=0, note=44, velocity=80, time=0),
    Message('note_on', channel=0, note=56, velocity=57, time=120),
    Message('note_on', channel=0, note=51, velocity=57, time=0),
    Message('note_on', channel=0, note=44, velocity=57, time=0),
    Message('note_off', channel=0, note=56, velocity=80, time=120),
    Message('note_off', channel=0, note=51, velocity=80, time=0),
    Message('note_off', channel=0, note=44, velocity=80, time=0),
    Message('note_on', channel=0, note=63, velocity=57, time=120),
    Message('note_on', channel=0, note=58, velocity=57, time=0),
    Message('note_on', channel=0, note=51, velocity=57, time=0),
    Message('note_off', channel=0, note=63, velocity=80, time=120),
    Message('note_off', channel=0, note=58, velocity=80, time=0),
    Message('note_off', channel=0, note=51, velocity=80, time=0),
    Message('note_on', channel=0, note=63, velocity=57, time=120),
    Message('note_on', channel=0, note=58, velocity=57, time=0),
    Message('note_on', channel=0, note=51, velocity=57, time=0),
    Message('note_off', channel=0, note=63, velocity=80, time=120),
    Message('note_off', channel=0, note=58, velocity=80, time=0),
    Message('note_off', channel=0, note=51, velocity=80, time=0),
    Message('note_on', channel=0, note=63, velocity=57, time=120),
    Message('note_on', channel=0, note=58, velocity=57, time=0),
    Message('note_on', channel=0, note=51, velocity=57, time=0),
    Message('note_off', channel=0, note=63, velocity=80, time=120),
    Message('note_off', channel=0, note=58, velocity=80, time=0),
    Message('note_off', channel=0, note=51, velocity=80, time=0),
    Message('note_on', channel=0, note=63, velocity=57, time=120),
    Message('note_on', channel=0, note=58, velocity=57, time=0),
    Message('note_on', channel=0, note=51, velocity=57, time=0),
    Message('note_off', channel=0, note=63, velocity=80, time=120),
    Message('note_off', channel=0, note=58, velocity=80, time=0),
    Message('note_off', channel=0, note=51, velocity=80, time=0),
    Message('note_on', channel=0, note=63, velocity=57, time=120),
    Message('note_on', channel=0, note=58, velocity=57, time=0),
    Message('note_on', channel=0, note=51, velocity=57, time=0),
    Message('note_off', channel=0, note=63, velocity=80, time=120),
    Message('note_off', channel=0, note=58, velocity=80, time=0),
    Message('note_off', channel=0, note=51, velocity=80, time=0),
    Message('note_on', channel=0, note=63, velocity=57, time=120),
    Message('note_on', channel=0, note=58, velocity=57, time=0),
    Message('note_on', channel=0, note=51, velocity=57, time=0),
    Message('note_off', channel=0, note=63, velocity=80, time=120),
    Message('note_off', channel=0, note=58, velocity=80, time=0),
    Message('note_off', channel=0, note=51, velocity=80, time=0),
    Message('note_on', channel=0, note=63, velocity=57, time=120),
    Message('note_on', channel=0, note=58, velocity=57, time=0),
    Message('note_on', channel=0, note=51, velocity=57, time=0),
    Message('note_off', channel=0, note=63, velocity=80, time=120),
    Message('note_off', channel=0, note=58, velocity=80, time=0),
    Message('note_off', channel=0, note=51, velocity=80, time=0),
    Message('note_on', channel=0, note=63, velocity=57, time=120),
    Message('note_on', channel=0, note=58, velocity=57, time=0),
    Message('note_on', channel=0, note=51, velocity=57, time=0),
    Message('note_off', channel=0, note=63, velocity=80, time=120),
    Message('note_off', channel=0, note=58, velocity=80, time=0),
    Message('note_off', channel=0, note=51, velocity=80, time=0),
    Message('note_on', channel=0, note=58, velocity=57, time=120),
    Message('note_on', channel=0, note=53, velocity=57, time=0),
    Message('note_on', channel=0, note=46, velocity=57, time=0),
    Message('note_off', channel=0, note=58, velocity=80, time=120),
    Message('note_off', channel=0, note=53, velocity=80, time=0),
    Message('note_off', channel=0, note=46, velocity=80, time=0),
    Message('note_on', channel=0, note=58, velocity=57, time=120),
    Message('note_on', channel=0, note=53, velocity=57, time=0),
    Message('note_on', channel=0, note=46, velocity=57, time=0),
    Message('note_off', channel=0, note=58, velocity=80, time=120),
    Message('note_off', channel=0, note=53, velocity=80, time=0),
    Message('note_off', channel=0, note=46, velocity=80, time=0),
    Message('note_on', channel=0, note=58, velocity=57, time=120),
    Message('note_on', channel=0, note=53, velocity=57, time=0),
    Message('note_on', channel=0, note=46, velocity=57, time=0),
    Message('note_off', channel=0, note=58, velocity=80, time=120),
    Message('note_off', channel=0, note=53, velocity=80, time=0),
    Message('note_off', channel=0, note=46, velocity=80, time=0),
    Message('note_on', channel=0, note=58, velocity=57, time=120),
    Message('note_on', channel=0, note=53, velocity=57, time=0),
    Message('note_on', channel=0, note=46, velocity=57, time=0),
    Message('note_off', channel=0, note=58, velocity=80, time=120),
    Message('note_off', channel=0, note=53, velocity=80, time=0),
    Message('note_off', channel=0, note=46, velocity=80, time=0),
    Message('note_on', channel=0, note=58, velocity=57, time=120),
    Message('note_on', channel=0, note=53, velocity=57, time=0),
    Message('note_on', channel=0, note=46, velocity=57, time=0),
    Message('note_off', channel=0, note=58, velocity=80, time=120),
    Message('note_off', channel=0, note=53, velocity=80, time=0),
    Message('note_off', channel=0, note=46, velocity=80, time=0),
    Message('note_on', channel=0, note=58, velocity=57, time=120),
    Message('note_on', channel=0, note=53, velocity=57, time=0),
    Message('note_on', channel=0, note=46, velocity=57, time=0),
    Message('note_off', channel=0, note=58, velocity=80, time=120),
    Message('note_off', channel=0, note=53, velocity=80, time=0),
    Message('note_off', channel=0, note=46, velocity=80, time=0),
    Message('note_on', channel=0, note=58, velocity=57, time=120),
    Message('note_on', channel=0, note=53, velocity=57, time=0),
    Message('note_on', channel=0, note=46, velocity=57, time=0),
    Message('note_off', channel=0, note=58, velocity=80, time=120),
    Message('note_off', channel=0, note=53, velocity=80, time=0),
    Message('note_off', channel=0, note=46, velocity=80, time=0),
    Message('note_on', channel=0, note=58, velocity=57, time=120),
    Message('note_on', channel=0, note=53, velocity=57, time=0),
    Message('note_on', channel=0, note=46, velocity=57, time=0),
    Message('note_off', channel=0, note=58, velocity=80, time=120),
    Message('note_off', channel=0, note=53, velocity=80, time=0),
    Message('note_off', channel=0, note=46, velocity=80, time=0),
    Message('note_on', channel=0, note=53, velocity=57, time=120),
    Message('note_on', channel=0, note=48, velocity=57, time=0),
    Message('note_on', channel=0, note=41, velocity=57, time=0),
    Message('note_off', channel=0, note=53, velocity=80, time=120),
    Message('note_off', channel=0, note=48, velocity=80, time=0),
    Message('note_off', channel=0, note=41, velocity=80, time=0),
    Message('note_on', channel=0, note=53, velocity=57, time=120),
    Message('note_on', channel=0, note=48, velocity=57, time=0),
    Message('note_on', channel=0, note=41, velocity=57, time=0),
    Message('note_off', channel=0, note=53, velocity=80, time=120),
    Message('note_off', channel=0, note=48, velocity=80, time=0),
    Message('note_off', channel=0, note=41, velocity=80, time=0),
    Message('note_on', channel=0, note=53, velocity=57, time=120),
    Message('note_on', channel=0, note=48, velocity=57, time=0),
    Message('note_on', channel=0, note=41, velocity=57, time=0),
    Message('note_off', channel=0, note=53, velocity=80, time=120),
    Message('note_off', channel=0, note=48, velocity=80, time=0),
    Message('note_off', channel=0, note=41, velocity=80, time=0),
    Message('note_on', channel=0, note=53, velocity=57, time=120),
    Message('note_on', channel=0, note=48, velocity=57, time=0),
    Message('note_on', channel=0, note=41, velocity=57, time=0),
    Message('note_off', channel=0, note=53, velocity=80, time=120),
    Message('note_off', channel=0, note=48, velocity=80, time=0),
    Message('note_off', channel=0, note=41, velocity=80, time=0),
    Message('note_on', channel=0, note=53, velocity=57, time=120),
    Message('note_on', channel=0, note=48, velocity=57, time=0),
    Message('note_on', channel=0, note=41, velocity=57, time=0),
    Message('note_off', channel=0, note=53, velocity=80, time=120),
    Message('note_off', channel=0, note=48, velocity=80, time=0),
    Message('note_off', channel=0, note=41, velocity=80, time=0),
    Message('note_on', channel=0, note=53, velocity=57, time=120),
    Message('note_on', channel=0, note=48, velocity=57, time=0),
    Message('note_on', channel=0, note=41, velocity=57, time=0),
    Message('note_off', channel=0, note=53, velocity=80, time=120),
    Message('note_off', channel=0, note=48, velocity=80, time=0),
    Message('note_off', channel=0, note=41, velocity=80, time=0),
    Message('note_on', channel=0, note=53, velocity=57, time=120),
    Message('note_on', channel=0, note=48, velocity=57, time=0),
    Message('note_on', channel=0, note=41, velocity=57, time=0),
    Message('note_off', channel=0, note=53, velocity=80, time=120),
    Message('note_off', channel=0, note=48, velocity=80, time=0),
    Message('note_off', channel=0, note=41, velocity=80, time=0),
    Message('note_on', channel=0, note=53, velocity=57, time=120),
    Message('note_on', channel=0, note=48, velocity=57, time=0),
    Message('note_on', channel=0, note=41, velocity=57, time=0),
    Message('note_off', channel=0, note=53, velocity=80, time=120),
    Message('note_off', channel=0, note=48, velocity=80, time=0),
    Message('note_off', channel=0, note=41, velocity=80, time=0),
    Message('note_on', channel=0, note=56, velocity=57, time=120),
    Message('note_on', channel=0, note=51, velocity=57, time=0),
    Message('note_on', channel=0, note=44, velocity=57, time=0),
    Message('note_off', channel=0, note=56, velocity=80, time=120),
    Message('note_off', channel=0, note=51, velocity=80, time=0),
    Message('note_off', channel=0, note=44, velocity=80, time=0),
    Message('note_on', channel=0, note=56, velocity=57, time=120),
    Message('note_on', channel=0, note=51, velocity=57, time=0),
    Message('note_on', channel=0, note=44, velocity=57, time=0),
    Message('note_off', channel=0, note=56, velocity=80, time=120),
    Message('note_off', channel=0, note=51, velocity=80, time=0),
    Message('note_off', channel=0, note=44, velocity=80, time=0),
    Message('note_on', channel=0, note=56, velocity=57, time=120),
    Message('note_on', channel=0, note=51, velocity=57, time=0),
    Message('note_on', channel=0, note=44, velocity=57, time=0),
    Message('note_off', channel=0, note=56, velocity=80, time=120),
    Message('note_off', channel=0, note=51, velocity=80, time=0),
    Message('note_off', channel=0, note=44, velocity=80, time=0),
    Message('note_on', channel=0, note=56, velocity=57, time=120),
    Message('note_on', channel=0, note=51, velocity=57, time=0),
    Message('note_on', channel=0, note=44, velocity=57, time=0),
    Message('note_off', channel=0, note=56, velocity=80, time=120),
    Message('note_off', channel=0, note=51, velocity=80, time=0),
    Message('note_off', channel=0, note=44, velocity=80, time=0),
    Message('note_on', channel=0, note=56, velocity=57, time=120),
    Message('note_on', channel=0, note=51, velocity=57, time=0),
    Message('note_on', channel=0, note=44, velocity=57, time=0),
    Message('note_off', channel=0, note=56, velocity=80, time=120),
    Message('note_off', channel=0, note=51, velocity=80, time=0),
    Message('note_off', channel=0, note=44, velocity=80, time=0),
    Message('note_on', channel=0, note=56, velocity=57, time=120),
    Message('note_on', channel=0, note=51, velocity=57, time=0),
    Message('note_on', channel=0, note=44, velocity=57, time=0),
    Message('note_off', channel=0, note=56, velocity=80, time=120),
    Message('note_off', channel=0, note=51, velocity=80, time=0),
    Message('note_off', channel=0, note=44, velocity=80, time=0),
    Message('note_on', channel=0, note=56, velocity=57, time=120),
    Message('note_on', channel=0, note=51, velocity=57, time=0),
    Message('note_on', channel=0, note=44, velocity=57, time=0),
    Message('note_off', channel=0, note=56, velocity=80, time=120),
    Message('note_off', channel=0, note=51, velocity=80, time=0),
    Message('note_off', channel=0, note=44, velocity=80, time=0),
    Message('note_on', channel=0, note=56, velocity=57, time=120),
    Message('note_on', channel=0, note=51, velocity=57, time=0),
    Message('note_on', channel=0, note=44, velocity=57, time=0),
    Message('note_off', channel=0, note=56, velocity=80, time=120),
    Message('note_off', channel=0, note=51, velocity=80, time=0),
    Message('note_off', channel=0, note=44, velocity=80, time=0),
    Message('note_on', channel=0, note=63, velocity=57, time=120),
    Message('note_on', channel=0, note=58, velocity=57, time=0),
    Message('note_on', channel=0, note=51, velocity=57, time=0),
    Message('note_off', channel=0, note=63, velocity=80, time=120),
    Message('note_off', channel=0, note=58, velocity=80, time=0),
    Message('note_off', channel=0, note=51, velocity=80, time=0),
    Message('note_on', channel=0, note=63, velocity=57, time=120),
    Message('note_on', channel=0, note=58, velocity=57, time=0),
    Message('note_on', channel=0, note=51, velocity=57, time=0),
    Message('note_off', channel=0, note=63, velocity=80, time=120),
    Message('note_off', channel=0, note=58, velocity=80, time=0),
    Message('note_off', channel=0, note=51, velocity=80, time=0),
    Message('note_on', channel=0, note=63, velocity=57, time=120),
    Message('note_on', channel=0, note=58, velocity=57, time=0),
    Message('note_on', channel=0, note=51, velocity=57, time=0),
    Message('note_off', channel=0, note=63, velocity=80, time=120),
    Message('note_off', channel=0, note=58, velocity=80, time=0),
    Message('note_off', channel=0, note=51, velocity=80, time=0),
    Message('note_on', channel=0, note=63, velocity=57, time=120),
    Message('note_on', channel=0, note=58, velocity=57, time=0),
    Message('note_on', channel=0, note=51, velocity=57, time=0),
    Message('note_off', channel=0, note=63, velocity=80, time=120),
    Message('note_off', channel=0, note=58, velocity=80, time=0),
    Message('note_off', channel=0, note=51, velocity=80, time=0),
    Message('note_on', channel=0, note=63, velocity=57, time=120),
    Message('note_on', channel=0, note=58, velocity=57, time=0),
    Message('note_on', channel=0, note=51, velocity=57, time=0),
    Message('note_off', channel=0, note=63, velocity=80, time=120),
    Message('note_off', channel=0, note=58, velocity=80, time=0),
    Message('note_off', channel=0, note=51, velocity=80, time=0),
    Message('note_on', channel=0, note=63, velocity=57, time=120),
    Message('note_on', channel=0, note=58, velocity=57, time=0),
    Message('note_on', channel=0, note=51, velocity=57, time=0),
    Message('note_off', channel=0, note=63, velocity=80, time=120),
    Message('note_off', channel=0, note=58, velocity=80, time=0),
    Message('note_off', channel=0, note=51, velocity=80, time=0),
    Message('note_on', channel=0, note=63, velocity=57, time=120),
    Message('note_on', channel=0, note=58, velocity=57, time=0),
    Message('note_on', channel=0, note=51, velocity=57, time=0),
    Message('note_off', channel=0, note=63, velocity=80, time=120),
    Message('note_off', channel=0, note=58, velocity=80, time=0),
    Message('note_off', channel=0, note=51, velocity=80, time=0),
    Message('note_on', channel=0, note=63, velocity=57, time=120),
    Message('note_on', channel=0, note=58, velocity=57, time=0),
    Message('note_on', channel=0, note=51, velocity=57, time=0),
    Message('note_off', channel=0, note=63, velocity=80, time=120),
    Message('note_off', channel=0, note=58, velocity=80, time=0),
    Message('note_off', channel=0, note=51, velocity=80, time=0),
    Message('note_on', channel=0, note=58, velocity=57, time=120),
    Message('note_on', channel=0, note=53, velocity=57, time=0),
    Message('note_on', channel=0, note=46, velocity=57, time=0),
    Message('note_off', channel=0, note=58, velocity=80, time=120),
    Message('note_off', channel=0, note=53, velocity=80, time=0),
    Message('note_off', channel=0, note=46, velocity=80, time=0),
    Message('note_on', channel=0, note=58, velocity=57, time=120),
    Message('note_on', channel=0, note=53, velocity=57, time=0),
    Message('note_on', channel=0, note=46, velocity=57, time=0),
    Message('note_off', channel=0, note=58, velocity=80, time=120),
    Message('note_off', channel=0, note=53, velocity=80, time=0),
    Message('note_off', channel=0, note=46, velocity=80, time=0),
    Message('note_on', channel=0, note=58, velocity=57, time=120),
    Message('note_on', channel=0, note=53, velocity=57, time=0),
    Message('note_on', channel=0, note=46, velocity=57, time=0),
    Message('note_off', channel=0, note=58, velocity=80, time=120),
    Message('note_off', channel=0, note=53, velocity=80, time=0),
    Message('note_off', channel=0, note=46, velocity=80, time=0),
    Message('note_on', channel=0, note=58, velocity=57, time=120),
    Message('note_on', channel=0, note=53, velocity=57, time=0),
    Message('note_on', channel=0, note=46, velocity=57, time=0),
    Message('note_off', channel=0, note=58, velocity=80, time=120),
    Message('note_off', channel=0, note=53, velocity=80, time=0),
    Message('note_off', channel=0, note=46, velocity=80, time=0),
    Message('note_on', channel=0, note=58, velocity=57, time=120),
    Message('note_on', channel=0, note=53, velocity=57, time=0),
    Message('note_on', channel=0, note=46, velocity=57, time=0),
    Message('note_off', channel=0, note=58, velocity=80, time=120),
    Message('note_off', channel=0, note=53, velocity=80, time=0),
    Message('note_off', channel=0, note=46, velocity=80, time=0),
    Message('note_on', channel=0, note=58, velocity=57, time=120),
    Message('note_on', channel=0, note=53, velocity=57, time=0),
    Message('note_on', channel=0, note=46, velocity=57, time=0),
    Message('note_off', channel=0, note=58, velocity=80, time=120),
    Message('note_off', channel=0, note=53, velocity=80, time=0),
    Message('note_off', channel=0, note=46, velocity=80, time=0),
    Message('note_on', channel=0, note=58, velocity=57, time=120),
    Message('note_on', channel=0, note=53, velocity=57, time=0),
    Message('note_on', channel=0, note=46, velocity=57, time=0),
    Message('note_off', channel=0, note=58, velocity=80, time=120),
    Message('note_off', channel=0, note=53, velocity=80, time=0),
    Message('note_off', channel=0, note=46, velocity=80, time=0),
    Message('note_on', channel=0, note=58, velocity=57, time=120),
    Message('note_on', channel=0, note=53, velocity=57, time=0),
    Message('note_on', channel=0, note=46, velocity=57, time=0),
    Message('note_off', channel=0, note=58, velocity=80, time=120),
    Message('note_off', channel=0, note=53, velocity=80, time=0),
    Message('note_off', channel=0, note=46, velocity=80, time=0),
    Message('note_on', channel=0, note=53, velocity=57, time=120),
    Message('note_on', channel=0, note=48, velocity=57, time=0),
    Message('note_on', channel=0, note=41, velocity=57, time=0),
    Message('note_off', channel=0, note=53, velocity=80, time=120),
    Message('note_off', channel=0, note=48, velocity=80, time=0),
    Message('note_off', channel=0, note=41, velocity=80, time=0),
    Message('note_on', channel=0, note=53, velocity=57, time=120),
    Message('note_on', channel=0, note=48, velocity=57, time=0),
    Message('note_on', channel=0, note=41, velocity=57, time=0),
    Message('note_off', channel=0, note=53, velocity=80, time=120),
    Message('note_off', channel=0, note=48, velocity=80, time=0),
    Message('note_off', channel=0, note=41, velocity=80, time=0),
    Message('note_on', channel=0, note=53, velocity=57, time=120),
    Message('note_on', channel=0, note=48, velocity=57, time=0),
    Message('note_on', channel=0, note=41, velocity=57, time=0),
    Message('note_off', channel=0, note=53, velocity=80, time=120),
    Message('note_off', channel=0, note=48, velocity=80, time=0),
    Message('note_off', channel=0, note=41, velocity=80, time=0),
    Message('note_on', channel=0, note=53, velocity=57, time=120),
    Message('note_on', channel=0, note=48, velocity=57, time=0),
    Message('note_on', channel=0, note=41, velocity=57, time=0),
    Message('note_off', channel=0, note=53, velocity=80, time=120),
    Message('note_off', channel=0, note=48, velocity=80, time=0),
    Message('note_off', channel=0, note=41, velocity=80, time=0),
    Message('note_on', channel=0, note=53, velocity=57, time=120),
    Message('note_on', channel=0, note=48, velocity=57, time=0),
    Message('note_on', channel=0, note=41, velocity=57, time=0),
    Message('note_off', channel=0, note=53, velocity=80, time=120),
    Message('note_off', channel=0, note=48, velocity=80, time=0),
    Message('note_off', channel=0, note=41, velocity=80, time=0),
    Message('note_on', channel=0, note=53, velocity=57, time=120),
    Message('note_on', channel=0, note=48, velocity=57, time=0),
    Message('note_on', channel=0, note=41, velocity=57, time=0),
    Message('note_off', channel=0, note=53, velocity=80, time=120),
    Message('note_off', channel=0, note=48, velocity=80, time=0),
    Message('note_off', channel=0, note=41, velocity=80, time=0),
    Message('note_on', channel=0, note=53, velocity=57, time=120),
    Message('note_on', channel=0, note=48, velocity=57, time=0),
    Message('note_on', channel=0, note=41, velocity=57, time=0),
    Message('note_off', channel=0, note=53, velocity=80, time=120),
    Message('note_off', channel=0, note=48, velocity=80, time=0),
    Message('note_off', channel=0, note=41, velocity=80, time=0),
    Message('note_on', channel=0, note=53, velocity=57, time=120),
    Message('note_on', channel=0, note=48, velocity=57, time=0),
    Message('note_on', channel=0, note=41, velocity=57, time=0),
    Message('note_off', channel=0, note=53, velocity=80, time=120),
    Message('note_off', channel=0, note=48, velocity=80, time=0),
    Message('note_off', channel=0, note=41, velocity=80, time=0),
    Message('note_on', channel=0, note=56, velocity=57, time=120),
    Message('note_on', channel=0, note=51, velocity=57, time=0),
    Message('note_on', channel=0, note=44, velocity=57, time=0),
    Message('note_off', channel=0, note=56, velocity=80, time=120),
    Message('note_off', channel=0, note=51, velocity=80, time=0),
    Message('note_off', channel=0, note=44, velocity=80, time=0),
    Message('note_on', channel=0, note=56, velocity=57, time=120),
    Message('note_on', channel=0, note=51, velocity=57, time=0),
    Message('note_on', channel=0, note=44, velocity=57, time=0),
    Message('note_off', channel=0, note=56, velocity=80, time=120),
    Message('note_off', channel=0, note=51, velocity=80, time=0),
    Message('note_off', channel=0, note=44, velocity=80, time=0),
    Message('note_on', channel=0, note=56, velocity=57, time=120),
    Message('note_on', channel=0, note=51, velocity=57, time=0),
    Message('note_on', channel=0, note=44, velocity=57, time=0),
    Message('note_off', channel=0, note=56, velocity=80, time=120),
    Message('note_off', channel=0, note=51, velocity=80, time=0),
    Message('note_off', channel=0, note=44, velocity=80, time=0),
    Message('note_on', channel=0, note=56, velocity=57, time=120),
    Message('note_on', channel=0, note=51, velocity=57, time=0),
    Message('note_on', channel=0, note=44, velocity=57, time=0),
    Message('note_off', channel=0, note=56, velocity=80, time=120),
    Message('note_off', channel=0, note=51, velocity=80, time=0),
    Message('note_off', channel=0, note=44, velocity=80, time=0),
    Message('note_on', channel=0, note=56, velocity=57, time=120),
    Message('note_on', channel=0, note=51, velocity=57, time=0),
    Message('note_on', channel=0, note=44, velocity=57, time=0),
    Message('note_off', channel=0, note=56, velocity=80, time=120),
    Message('note_off', channel=0, note=51, velocity=80, time=0),
    Message('note_off', channel=0, note=44, velocity=80, time=0),
    Message('note_on', channel=0, note=56, velocity=57, time=120),
    Message('note_on', channel=0, note=51, velocity=57, time=0),
    Message('note_on', channel=0, note=44, velocity=57, time=0),
    Message('note_off', channel=0, note=56, velocity=80, time=120),
    Message('note_off', channel=0, note=51, velocity=80, time=0),
    Message('note_off', channel=0, note=44, velocity=80, time=0),
    Message('note_on', channel=0, note=56, velocity=57, time=120),
    Message('note_on', channel=0, note=51, velocity=57, time=0),
    Message('note_on', channel=0, note=44, velocity=57, time=0),
    Message('note_off', channel=0, note=56, velocity=80, time=120),
    Message('note_off', channel=0, note=51, velocity=80, time=0),
    Message('note_off', channel=0, note=44, velocity=80, time=0),
    Message('note_on', channel=0, note=56, velocity=57, time=120),
    Message('note_on', channel=0, note=51, velocity=57, time=0),
    Message('note_on', channel=0, note=44, velocity=57, time=0),
    Message('note_off', channel=0, note=56, velocity=80, time=120),
    Message('note_off', channel=0, note=51, velocity=80, time=0),
    Message('note_off', channel=0, note=44, velocity=80, time=0),
    Message('note_on', channel=0, note=63, velocity=57, time=120),
    Message('note_on', channel=0, note=58, velocity=57, time=0),
    Message('note_on', channel=0, note=51, velocity=57, time=0),
    Message('note_off', channel=0, note=63, velocity=80, time=120),
    Message('note_off', channel=0, note=58, velocity=80, time=0),
    Message('note_off', channel=0, note=51, velocity=80, time=0),
    Message('note_on', channel=0, note=63, velocity=57, time=120),
    Message('note_on', channel=0, note=58, velocity=57, time=0),
    Message('note_on', channel=0, note=51, velocity=57, time=0),
    Message('note_off', channel=0, note=63, velocity=80, time=120),
    Message('note_off', channel=0, note=58, velocity=80, time=0),
    Message('note_off', channel=0, note=51, velocity=80, time=0),
    Message('note_on', channel=0, note=63, velocity=57, time=120),
    Message('note_on', channel=0, note=58, velocity=57, time=0),
    Message('note_on', channel=0, note=51, velocity=57, time=0),
    Message('note_off', channel=0, note=63, velocity=80, time=120),
    Message('note_off', channel=0, note=58, velocity=80, time=0),
    Message('note_off', channel=0, note=51, velocity=80, time=0),
    Message('note_on', channel=0, note=63, velocity=57, time=120),
    Message('note_on', channel=0, note=58, velocity=57, time=0),
    Message('note_on', channel=0, note=51, velocity=57, time=0),
    Message('note_off', channel=0, note=63, velocity=80, time=120),
    Message('note_off', channel=0, note=58, velocity=80, time=0),
    Message('note_off', channel=0, note=51, velocity=80, time=0),
    Message('note_on', channel=0, note=63, velocity=57, time=120),
    Message('note_on', channel=0, note=58, velocity=57, time=0),
    Message('note_on', channel=0, note=51, velocity=57, time=0),
    Message('note_off', channel=0, note=63, velocity=80, time=120),
    Message('note_off', channel=0, note=58, velocity=80, time=0),
    Message('note_off', channel=0, note=51, velocity=80, time=0),
    Message('note_on', channel=0, note=63, velocity=57, time=120),
    Message('note_on', channel=0, note=58, velocity=57, time=0),
    Message('note_on', channel=0, note=51, velocity=57, time=0),
    Message('note_off', channel=0, note=63, velocity=80, time=120),
    Message('note_off', channel=0, note=58, velocity=80, time=0),
    Message('note_off', channel=0, note=51, velocity=80, time=0),
    Message('note_on', channel=0, note=63, velocity=57, time=120),
    Message('note_on', channel=0, note=58, velocity=57, time=0),
    Message('note_on', channel=0, note=51, velocity=57, time=0),
    Message('note_off', channel=0, note=63, velocity=80, time=120),
    Message('note_off', channel=0, note=58, velocity=80, time=0),
    Message('note_off', channel=0, note=51, velocity=80, time=0),
    Message('note_on', channel=0, note=63, velocity=57, time=120),
    Message('note_on', channel=0, note=58, velocity=57, time=0),
    Message('note_on', channel=0, note=51, velocity=57, time=0),
    Message('note_off', channel=0, note=63, velocity=80, time=120),
    Message('note_off', channel=0, note=58, velocity=80, time=0),
    Message('note_off', channel=0, note=51, velocity=80, time=0),
    Message('note_on', channel=0, note=58, velocity=57, time=120),
    Message('note_on', channel=0, note=53, velocity=57, time=0),
    Message('note_on', channel=0, note=46, velocity=57, time=0),
    Message('note_off', channel=0, note=58, velocity=80, time=120),
    Message('note_off', channel=0, note=53, velocity=80, time=0),
    Message('note_off', channel=0, note=46, velocity=80, time=0),
    Message('note_on', channel=0, note=58, velocity=57, time=120),
    Message('note_on', channel=0, note=53, velocity=57, time=0),
    Message('note_on', channel=0, note=46, velocity=57, time=0),
    Message('note_off', channel=0, note=58, velocity=80, time=120),
    Message('note_off', channel=0, note=53, velocity=80, time=0),
    Message('note_off', channel=0, note=46, velocity=80, time=0),
    Message('note_on', channel=0, note=58, velocity=57, time=120),
    Message('note_on', channel=0, note=53, velocity=57, time=0),
    Message('note_on', channel=0, note=46, velocity=57, time=0),
    Message('note_off', channel=0, note=58, velocity=80, time=120),
    Message('note_off', channel=0, note=53, velocity=80, time=0),
    Message('note_off', channel=0, note=46, velocity=80, time=0),
    Message('note_on', channel=0, note=58, velocity=57, time=120),
    Message('note_on', channel=0, note=53, velocity=57, time=0),
    Message('note_on', channel=0, note=46, velocity=57, time=0),
    Message('note_off', channel=0, note=58, velocity=80, time=120),
    Message('note_off', channel=0, note=53, velocity=80, time=0),
    Message('note_off', channel=0, note=46, velocity=80, time=0),
    Message('note_on', channel=0, note=58, velocity=57, time=120),
    Message('note_on', channel=0, note=53, velocity=57, time=0),
    Message('note_on', channel=0, note=46, velocity=57, time=0),
    Message('note_off', channel=0, note=58, velocity=80, time=120),
    Message('note_off', channel=0, note=53, velocity=80, time=0),
    Message('note_off', channel=0, note=46, velocity=80, time=0),
    Message('note_on', channel=0, note=58, velocity=57, time=120),
    Message('note_on', channel=0, note=53, velocity=57, time=0),
    Message('note_on', channel=0, note=46, velocity=57, time=0),
    Message('note_off', channel=0, note=58, velocity=80, time=120),
    Message('note_off', channel=0, note=53, velocity=80, time=0),
    Message('note_off', channel=0, note=46, velocity=80, time=0),
    Message('note_on', channel=0, note=58, velocity=57, time=120),
    Message('note_on', channel=0, note=53, velocity=57, time=0),
    Message('note_on', channel=0, note=46, velocity=57, time=0),
    Message('note_off', channel=0, note=58, velocity=80, time=120),
    Message('note_off', channel=0, note=53, velocity=80, time=0),
    Message('note_off', channel=0, note=46, velocity=80, time=0),
    Message('note_on', channel=0, note=58, velocity=57, time=120),
    Message('note_on', channel=0, note=53, velocity=57, time=0),
    Message('note_on', channel=0, note=46, velocity=57, time=0),
    Message('note_off', channel=0, note=58, velocity=80, time=120),
    Message('note_off', channel=0, note=53, velocity=80, time=0),
    Message('note_off', channel=0, note=46, velocity=80, time=0),
    Message('note_on', channel=0, note=53, velocity=57, time=120),
    Message('note_on', channel=0, note=48, velocity=57, time=0),
    Message('note_on', channel=0, note=41, velocity=57, time=0),
    Message('note_off', channel=0, note=53, velocity=80, time=120),
    Message('note_off', channel=0, note=48, velocity=80, time=0),
    Message('note_off', channel=0, note=41, velocity=80, time=0),
    Message('note_on', channel=0, note=53, velocity=57, time=120),
    Message('note_on', channel=0, note=48, velocity=57, time=0),
    Message('note_on', channel=0, note=41, velocity=57, time=0),
    Message('note_off', channel=0, note=53, velocity=80, time=120),
    Message('note_off', channel=0, note=48, velocity=80, time=0),
    Message('note_off', channel=0, note=41, velocity=80, time=0),
    Message('note_on', channel=0, note=53, velocity=57, time=120),
    Message('note_on', channel=0, note=48, velocity=57, time=0),
    Message('note_on', channel=0, note=41, velocity=57, time=0),
    Message('note_off', channel=0, note=53, velocity=80, time=120),
    Message('note_off', channel=0, note=48, velocity=80, time=0),
    Message('note_off', channel=0, note=41, velocity=80, time=0),
    Message('note_on', channel=0, note=53, velocity=57, time=120),
    Message('note_on', channel=0, note=48, velocity=57, time=0),
    Message('note_on', channel=0, note=41, velocity=57, time=0),
    Message('note_off', channel=0, note=53, velocity=80, time=120),
    Message('note_off', channel=0, note=48, velocity=80, time=0),
    Message('note_off', channel=0, note=41, velocity=80, time=0),
    Message('note_on', channel=0, note=53, velocity=57, time=120),
    Message('note_on', channel=0, note=48, velocity=57, time=0),
    Message('note_on', channel=0, note=41, velocity=57, time=0),
    Message('note_off', channel=0, note=53, velocity=80, time=120),
    Message('note_off', channel=0, note=48, velocity=80, time=0),
    Message('note_off', channel=0, note=41, velocity=80, time=0),
    Message('note_on', channel=0, note=53, velocity=57, time=120),
    Message('note_on', channel=0, note=48, velocity=57, time=0),
    Message('note_on', channel=0, note=41, velocity=57, time=0),
    Message('note_off', channel=0, note=53, velocity=80, time=120),
    Message('note_off', channel=0, note=48, velocity=80, time=0),
    Message('note_off', channel=0, note=41, velocity=80, time=0),
    Message('note_on', channel=0, note=53, velocity=57, time=120),
    Message('note_on', channel=0, note=48, velocity=57, time=0),
    Message('note_on', channel=0, note=41, velocity=57, time=0),
    Message('note_off', channel=0, note=53, velocity=80, time=120),
    Message('note_off', channel=0, note=48, velocity=80, time=0),
    Message('note_off', channel=0, note=41, velocity=80, time=0),
    Message('note_on', channel=0, note=53, velocity=57, time=120),
    Message('note_on', channel=0, note=48, velocity=57, time=0),
    Message('note_on', channel=0, note=41, velocity=57, time=0),
    Message('note_off', channel=0, note=53, velocity=80, time=120),
    Message('note_off', channel=0, note=48, velocity=80, time=0),
    Message('note_off', channel=0, note=41, velocity=80, time=0),
    Message('note_on', channel=0, note=56, velocity=57, time=120),
    Message('note_on', channel=0, note=51, velocity=57, time=0),
    Message('note_on', channel=0, note=44, velocity=57, time=0),
    Message('note_off', channel=0, note=56, velocity=80, time=120),
    Message('note_off', channel=0, note=51, velocity=80, time=0),
    Message('note_off', channel=0, note=44, velocity=80, time=0),
    Message('note_on', channel=0, note=56, velocity=57, time=120),
    Message('note_on', channel=0, note=51, velocity=57, time=0),
    Message('note_on', channel=0, note=44, velocity=57, time=0),
    Message('note_off', channel=0, note=56, velocity=80, time=120),
    Message('note_off', channel=0, note=51, velocity=80, time=0),
    Message('note_off', channel=0, note=44, velocity=80, time=0),
    Message('note_on', channel=0, note=56, velocity=57, time=120),
    Message('note_on', channel=0, note=51, velocity=57, time=0),
    Message('note_on', channel=0, note=44, velocity=57, time=0),
    Message('note_off', channel=0, note=56, velocity=80, time=120),
    Message('note_off', channel=0, note=51, velocity=80, time=0),
    Message('note_off', channel=0, note=44, velocity=80, time=0),
    Message('note_on', channel=0, note=56, velocity=57, time=120),
    Message('note_on', channel=0, note=51, velocity=57, time=0),
    Message('note_on', channel=0, note=44, velocity=57, time=0),
    Message('note_off', channel=0, note=56, velocity=80, time=120),
    Message('note_off', channel=0, note=51, velocity=80, time=0),
    Message('note_off', channel=0, note=44, velocity=80, time=0),
    Message('note_on', channel=0, note=56, velocity=57, time=120),
    Message('note_on', channel=0, note=51, velocity=57, time=0),
    Message('note_on', channel=0, note=44, velocity=57, time=0),
    Message('note_off', channel=0, note=56, velocity=80, time=120),
    Message('note_off', channel=0, note=51, velocity=80, time=0),
    Message('note_off', channel=0, note=44, velocity=80, time=0),
    Message('note_on', channel=0, note=56, velocity=57, time=120),
    Message('note_on', channel=0, note=51, velocity=57, time=0),
    Message('note_on', channel=0, note=44, velocity=57, time=0),
    Message('note_off', channel=0, note=56, velocity=80, time=120),
    Message('note_off', channel=0, note=51, velocity=80, time=0),
    Message('note_off', channel=0, note=44, velocity=80, time=0),
    Message('note_on', channel=0, note=56, velocity=57, time=120),
    Message('note_on', channel=0, note=51, velocity=57, time=0),
    Message('note_on', channel=0, note=44, velocity=57, time=0),
    Message('note_off', channel=0, note=56, velocity=80, time=120),
    Message('note_off', channel=0, note=51, velocity=80, time=0),
    Message('note_off', channel=0, note=44, velocity=80, time=0),
    Message('note_on', channel=0, note=56, velocity=57, time=120),
    Message('note_on', channel=0, note=51, velocity=57, time=0),
    Message('note_on', channel=0, note=44, velocity=57, time=0),
    Message('note_off', channel=0, note=56, velocity=80, time=120),
    Message('note_off', channel=0, note=51, velocity=80, time=0),
    Message('note_off', channel=0, note=44, velocity=80, time=0),
    Message('note_on', channel=0, note=63, velocity=57, time=120),
    Message('note_on', channel=0, note=58, velocity=57, time=0),
    Message('note_on', channel=0, note=51, velocity=57, time=0),
    Message('note_off', channel=0, note=63, velocity=80, time=120),
    Message('note_off', channel=0, note=58, velocity=80, time=0),
    Message('note_off', channel=0, note=51, velocity=80, time=0),
    Message('note_on', channel=0, note=63, velocity=57, time=120),
    Message('note_on', channel=0, note=58, velocity=57, time=0),
    Message('note_on', channel=0, note=51, velocity=57, time=0),
    Message('note_off', channel=0, note=63, velocity=80, time=120),
    Message('note_off', channel=0, note=58, velocity=80, time=0),
    Message('note_off', channel=0, note=51, velocity=80, time=0),
    Message('note_on', channel=0, note=63, velocity=57, time=120),
    Message('note_on', channel=0, note=58, velocity=57, time=0),
    Message('note_on', channel=0, note=51, velocity=57, time=0),
    Message('note_off', channel=0, note=63, velocity=80, time=120),
    Message('note_off', channel=0, note=58, velocity=80, time=0),
    Message('note_off', channel=0, note=51, velocity=80, time=0),
    Message('note_on', channel=0, note=63, velocity=57, time=120),
    Message('note_on', channel=0, note=58, velocity=57, time=0),
    Message('note_on', channel=0, note=51, velocity=57, time=0),
    Message('note_off', channel=0, note=63, velocity=80, time=120),
    Message('note_off', channel=0, note=58, velocity=80, time=0),
    Message('note_off', channel=0, note=51, velocity=80, time=0),
    Message('note_on', channel=0, note=63, velocity=57, time=120),
    Message('note_on', channel=0, note=58, velocity=57, time=0),
    Message('note_on', channel=0, note=51, velocity=57, time=0),
    Message('note_off', channel=0, note=63, velocity=80, time=120),
    Message('note_off', channel=0, note=58, velocity=80, time=0),
    Message('note_off', channel=0, note=51, velocity=80, time=0),
    Message('note_on', channel=0, note=63, velocity=57, time=120),
    Message('note_on', channel=0, note=58, velocity=57, time=0),
    Message('note_on', channel=0, note=51, velocity=57, time=0),
    Message('note_off', channel=0, note=63, velocity=80, time=120),
    Message('note_off', channel=0, note=58, velocity=80, time=0),
    Message('note_off', channel=0, note=51, velocity=80, time=0),
    Message('note_on', channel=0, note=63, velocity=57, time=120),
    Message('note_on', channel=0, note=58, velocity=57, time=0),
    Message('note_on', channel=0, note=51, velocity=57, time=0),
    Message('note_off', channel=0, note=63, velocity=80, time=120),
    Message('note_off', channel=0, note=58, velocity=80, time=0),
    Message('note_off', channel=0, note=51, velocity=80, time=0),
    Message('note_on', channel=0, note=63, velocity=57, time=120),
    Message('note_on', channel=0, note=58, velocity=57, time=0),
    Message('note_on', channel=0, note=51, velocity=57, time=0),
    Message('note_off', channel=0, note=63, velocity=80, time=120),
    Message('note_off', channel=0, note=58, velocity=80, time=0),
    Message('note_off', channel=0, note=51, velocity=80, time=0),
    Message('program_change', channel=0, program=29, time=120),
    Message('program_change', channel=1, program=29, time=0),
    Message('control_change', channel=0, control=7, value=104, time=0),
    Message('control_change', channel=1, control=7, value=104, time=0),
    Message('note_on', channel=0, note=58, velocity=95, time=0),
    Message('note_on', channel=0, note=53, velocity=95, time=0),
    Message('note_on', channel=0, note=46, velocity=95, time=0),
    Message('note_off', channel=0, note=58, velocity=80, time=480),
    Message('note_off', channel=0, note=53, velocity=80, time=0),
    Message('note_off', channel=0, note=46, velocity=80, time=0),
    Message('note_on', channel=0, note=58, velocity=95, time=0),
    Message('note_on', channel=0, note=53, velocity=95, time=0),
    Message('note_on', channel=0, note=46, velocity=95, time=0),
    Message('note_off', channel=0, note=58, velocity=80, time=480),
    Message('note_off', channel=0, note=53, velocity=80, time=0),
    Message('note_off', channel=0, note=46, velocity=80, time=0),
    Message('note_on', channel=0, note=58, velocity=95, time=0),
    Message('note_on', channel=0, note=53, velocity=95, time=0),
    Message('note_on', channel=0, note=46, velocity=95, time=0),
    Message('note_off', channel=0, note=58, velocity=80, time=480),
    Message('note_off', channel=0, note=53, velocity=80, time=0),
    Message('note_off', channel=0, note=46, velocity=80, time=0),
    Message('note_on', channel=0, note=60, velocity=95, time=0),
    Message('note_on', channel=0, note=55, velocity=95, time=0),
    Message('note_on', channel=0, note=48, velocity=95, time=0),
    Message('note_off', channel=0, note=60, velocity=80, time=480),
    Message('note_off', channel=0, note=55, velocity=80, time=0),
    Message('note_off', channel=0, note=48, velocity=80, time=0),
    Message('program_change', channel=0, program=29, time=0),
    Message('program_change', channel=1, program=29, time=0),
    Message('control_change', channel=0, control=7, value=104, time=0),
    Message('control_change', channel=1, control=7, value=104, time=0),
    Message('note_on', channel=0, note=61, velocity=95, time=0),
    Message('note_on', channel=0, note=56, velocity=95, time=0),
    Message('note_on', channel=0, note=49, velocity=95, time=0),
    Message('note_off', channel=0, note=61, velocity=80, time=480),
    Message('note_off', channel=0, note=56, velocity=80, time=0),
    Message('note_off', channel=0, note=49, velocity=80, time=0),
    Message('note_on', channel=0, note=61, velocity=95, time=0),
    Message('note_on', channel=0, note=56, velocity=95, time=0),
    Message('note_on', channel=0, note=49, velocity=95, time=0),
    Message('note_off', channel=0, note=61, velocity=80, time=480),
    Message('note_off', channel=0, note=56, velocity=80, time=0),
    Message('note_off', channel=0, note=49, velocity=80, time=0),
    Message('note_on', channel=0, note=61, velocity=95, time=0),
    Message('note_on', channel=0, note=56, velocity=95, time=0),
    Message('note_on', channel=0, note=49, velocity=95, time=0),
    Message('note_off', channel=0, note=61, velocity=80, time=480),
    Message('note_off', channel=0, note=56, velocity=80, time=0),
    Message('note_off', channel=0, note=49, velocity=80, time=0),
    Message('note_on', channel=0, note=61, velocity=95, time=0),
    Message('note_on', channel=0, note=56, velocity=95, time=0),
    Message('note_on', channel=0, note=49, velocity=95, time=0),
    Message('note_off', channel=0, note=61, velocity=80, time=240),
    Message('note_off', channel=0, note=56, velocity=80, time=0),
    Message('note_off', channel=0, note=49, velocity=80, time=0),
    Message('note_on', channel=0, note=61, velocity=95, time=0),
    Message('note_on', channel=0, note=56, velocity=95, time=0),
    Message('note_on', channel=0, note=49, velocity=95, time=0),
    Message('note_off', channel=0, note=61, velocity=80, time=240),
    Message('note_off', channel=0, note=56, velocity=80, time=0),
    Message('note_off', channel=0, note=49, velocity=80, time=0),
    Message('note_on', channel=0, note=56, velocity=95, time=0),
    Message('note_on', channel=0, note=51, velocity=95, time=0),
    Message('note_on', channel=0, note=44, velocity=95, time=0),
    Message('note_off', channel=0, note=56, velocity=80, time=480),
    Message('note_off', channel=0, note=51, velocity=80, time=0),
    Message('note_off', channel=0, note=44, velocity=80, time=0),
    Message('note_on', channel=0, note=56, velocity=95, time=0),
    Message('note_on', channel=0, note=51, velocity=95, time=0),
    Message('note_on', channel=0, note=44, velocity=95, time=0),
    Message('note_off', channel=0, note=56, velocity=80, time=480),
    Message('note_off', channel=0, note=51, velocity=80, time=0),
    Message('note_off', channel=0, note=44, velocity=80, time=0),
    Message('note_on', channel=0, note=56, velocity=95, time=0),
    Message('note_on', channel=0, note=51, velocity=95, time=0),
    Message('note_on', channel=0, note=44, velocity=95, time=0),
    Message('note_off', channel=0, note=56, velocity=80, time=480),
    Message('note_off', channel=0, note=51, velocity=80, time=0),
    Message('note_off', channel=0, note=44, velocity=80, time=0),
    Message('note_on', channel=0, note=56, velocity=95, time=0),
    Message('note_on', channel=0, note=51, velocity=95, time=0),
    Message('note_on', channel=0, note=44, velocity=95, time=0),
    Message('note_off', channel=0, note=56, velocity=80, time=240),
    Message('note_off', channel=0, note=51, velocity=80, time=0),
    Message('note_off', channel=0, note=44, velocity=80, time=0),
    Message('note_on', channel=0, note=56, velocity=95, time=0),
    Message('note_on', channel=0, note=51, velocity=95, time=0),
    Message('note_on', channel=0, note=44, velocity=95, time=0),
    Message('note_off', channel=0, note=56, velocity=80, time=240),
    Message('note_off', channel=0, note=51, velocity=80, time=0),
    Message('note_off', channel=0, note=44, velocity=80, time=0),
    Message('note_on', channel=0, note=63, velocity=95, time=0),
    Message('note_on', channel=0, note=58, velocity=95, time=0),
    Message('note_on', channel=0, note=51, velocity=95, time=0),
    Message('note_off', channel=0, note=63, velocity=80, time=480),
    Message('note_off', channel=0, note=58, velocity=80, time=0),
    Message('note_off', channel=0, note=51, velocity=80, time=0),
    Message('note_on', channel=0, note=63, velocity=95, time=0),
    Message('note_on', channel=0, note=58, velocity=95, time=0),
    Message('note_on', channel=0, note=51, velocity=95, time=0),
    Message('note_off', channel=0, note=63, velocity=80, time=480),
    Message('note_off', channel=0, note=58, velocity=80, time=0),
    Message('note_off', channel=0, note=51, velocity=80, time=0),
    Message('note_on', channel=0, note=63, velocity=95, time=0),
    Message('note_on', channel=0, note=58, velocity=95, time=0),
    Message('note_on', channel=0, note=51, velocity=95, time=0),
    Message('note_off', channel=0, note=63, velocity=80, time=480),
    Message('note_off', channel=0, note=58, velocity=80, time=0),
    Message('note_off', channel=0, note=51, velocity=80, time=0),
    Message('note_on', channel=0, note=63, velocity=95, time=0),
    Message('note_on', channel=0, note=58, velocity=95, time=0),
    Message('note_on', channel=0, note=51, velocity=95, time=0),
    Message('note_off', channel=0, note=63, velocity=80, time=240),
    Message('note_off', channel=0, note=58, velocity=80, time=0),
    Message('note_off', channel=0, note=51, velocity=80, time=0),
    Message('note_on', channel=0, note=63, velocity=95, time=0),
    Message('note_on', channel=0, note=58, velocity=95, time=0),
    Message('note_on', channel=0, note=51, velocity=95, time=0),
    Message('note_off', channel=0, note=63, velocity=80, time=240),
    Message('note_off', channel=0, note=58, velocity=80, time=0),
    Message('note_off', channel=0, note=51, velocity=80, time=0),
    Message('note_on', channel=0, note=53, velocity=95, time=0),
    Message('note_on', channel=0, note=48, velocity=95, time=0),
    Message('note_on', channel=0, note=41, velocity=95, time=0),
    Message('note_off', channel=0, note=53, velocity=80, time=480),
    Message('note_off', channel=0, note=48, velocity=80, time=0),
    Message('note_off', channel=0, note=41, velocity=80, time=0),
    Message('note_on', channel=0, note=53, velocity=95, time=0),
    Message('note_on', channel=0, note=48, velocity=95, time=0),
    Message('note_on', channel=0, note=41, velocity=95, time=0),
    Message('note_off', channel=0, note=53, velocity=80, time=480),
    Message('note_off', channel=0, note=48, velocity=80, time=0),
    Message('note_off', channel=0, note=41, velocity=80, time=0),
    Message('note_on', channel=0, note=53, velocity=95, time=0),
    Message('note_on', channel=0, note=48, velocity=95, time=0),
    Message('note_on', channel=0, note=41, velocity=95, time=0),
    Message('note_off', channel=0, note=53, velocity=80, time=480),
    Message('note_off', channel=0, note=48, velocity=80, time=0),
    Message('note_off', channel=0, note=41, velocity=80, time=0),
    Message('note_on', channel=0, note=53, velocity=95, time=0),
    Message('note_on', channel=0, note=48, velocity=95, time=0),
    Message('note_on', channel=0, note=41, velocity=95, time=0),
    Message('note_off', channel=0, note=53, velocity=80, time=240),
    Message('note_off', channel=0, note=48, velocity=80, time=0),
    Message('note_off', channel=0, note=41, velocity=80, time=0),
    Message('note_on', channel=0, note=53, velocity=95, time=0),
    Message('note_on', channel=0, note=48, velocity=95, time=0),
    Message('note_on', channel=0, note=41, velocity=95, time=0),
    Message('note_off', channel=0, note=53, velocity=80, time=240),
    Message('note_off', channel=0, note=48, velocity=80, time=0),
    Message('note_off', channel=0, note=41, velocity=80, time=0),
    Message('note_on', channel=0, note=61, velocity=95, time=0),
    Message('note_on', channel=0, note=56, velocity=95, time=0),
    Message('note_on', channel=0, note=49, velocity=95, time=0),
    Message('note_off', channel=0, note=61, velocity=80, time=480),
    Message('note_off', channel=0, note=56, velocity=80, time=0),
    Message('note_off', channel=0, note=49, velocity=80, time=0),
    Message('note_on', channel=0, note=61, velocity=95, time=0),
    Message('note_on', channel=0, note=56, velocity=95, time=0),
    Message('note_on', channel=0, note=49, velocity=95, time=0),
    Message('note_off', channel=0, note=61, velocity=80, time=480),
    Message('note_off', channel=0, note=56, velocity=80, time=0),
    Message('note_off', channel=0, note=49, velocity=80, time=0),
    Message('note_on', channel=0, note=61, velocity=95, time=0),
    Message('note_on', channel=0, note=56, velocity=95, time=0),
    Message('note_on', channel=0, note=49, velocity=95, time=0),
    Message('note_off', channel=0, note=61, velocity=80, time=480),
    Message('note_off', channel=0, note=56, velocity=80, time=0),
    Message('note_off', channel=0, note=49, velocity=80, time=0),
    Message('note_on', channel=0, note=61, velocity=95, time=0),
    Message('note_on', channel=0, note=56, velocity=95, time=0),
    Message('note_on', channel=0, note=49, velocity=95, time=0),
    Message('note_off', channel=0, note=61, velocity=80, time=240),
    Message('note_off', channel=0, note=56, velocity=80, time=0),
    Message('note_off', channel=0, note=49, velocity=80, time=0),
    Message('note_on', channel=0, note=61, velocity=95, time=0),
    Message('note_on', channel=0, note=56, velocity=95, time=0),
    Message('note_on', channel=0, note=49, velocity=95, time=0),
    Message('note_off', channel=0, note=61, velocity=80, time=240),
    Message('note_off', channel=0, note=56, velocity=80, time=0),
    Message('note_off', channel=0, note=49, velocity=80, time=0),
    Message('note_on', channel=0, note=56, velocity=95, time=0),
    Message('note_on', channel=0, note=51, velocity=95, time=0),
    Message('note_on', channel=0, note=44, velocity=95, time=0),
    Message('note_off', channel=0, note=56, velocity=80, time=480),
    Message('note_off', channel=0, note=51, velocity=80, time=0),
    Message('note_off', channel=0, note=44, velocity=80, time=0),
    Message('note_on', channel=0, note=56, velocity=95, time=0),
    Message('note_on', channel=0, note=51, velocity=95, time=0),
    Message('note_on', channel=0, note=44, velocity=95, time=0),
    Message('note_off', channel=0, note=56, velocity=80, time=480),
    Message('note_off', channel=0, note=51, velocity=80, time=0),
    Message('note_off', channel=0, note=44, velocity=80, time=0),
    Message('note_on', channel=0, note=56, velocity=95, time=0),
    Message('note_on', channel=0, note=51, velocity=95, time=0),
    Message('note_on', channel=0, note=44, velocity=95, time=0),
    Message('note_off', channel=0, note=56, velocity=80, time=480),
    Message('note_off', channel=0, note=51, velocity=80, time=0),
    Message('note_off', channel=0, note=44, velocity=80, time=0),
    Message('note_on', channel=0, note=56, velocity=95, time=0),
    Message('note_on', channel=0, note=51, velocity=95, time=0),
    Message('note_on', channel=0, note=44, velocity=95, time=0),
    Message('note_off', channel=0, note=56, velocity=80, time=240),
    Message('note_off', channel=0, note=51, velocity=80, time=0),
    Message('note_off', channel=0, note=44, velocity=80, time=0),
    Message('note_on', channel=0, note=56, velocity=95, time=0),
    Message('note_on', channel=0, note=51, velocity=95, time=0),
    Message('note_on', channel=0, note=44, velocity=95, time=0),
    Message('note_off', channel=0, note=56, velocity=80, time=240),
    Message('note_off', channel=0, note=51, velocity=80, time=0),
    Message('note_off', channel=0, note=44, velocity=80, time=0),
    Message('note_on', channel=0, note=63, velocity=95, time=0),
    Message('note_on', channel=0, note=58, velocity=95, time=0),
    Message('note_on', channel=0, note=51, velocity=95, time=0),
    Message('note_off', channel=0, note=63, velocity=80, time=480),
    Message('note_off', channel=0, note=58, velocity=80, time=0),
    Message('note_off', channel=0, note=51, velocity=80, time=0),
    Message('note_on', channel=0, note=63, velocity=95, time=0),
    Message('note_on', channel=0, note=58, velocity=95, time=0),
    Message('note_on', channel=0, note=51, velocity=95, time=0),
    Message('note_off', channel=0, note=63, velocity=80, time=480),
    Message('note_off', channel=0, note=58, velocity=80, time=0),
    Message('note_off', channel=0, note=51, velocity=80, time=0),
    Message('note_on', channel=0, note=63, velocity=95, time=0),
    Message('note_on', channel=0, note=58, velocity=95, time=0),
    Message('note_on', channel=0, note=51, velocity=95, time=0),
    Message('note_off', channel=0, note=63, velocity=80, time=480),
    Message('note_off', channel=0, note=58, velocity=80, time=0),
    Message('note_off', channel=0, note=51, velocity=80, time=0),
    Message('note_on', channel=0, note=63, velocity=95, time=0),
    Message('note_on', channel=0, note=58, velocity=95, time=0),
    Message('note_on', channel=0, note=51, velocity=95, time=0),
    Message('note_off', channel=0, note=63, velocity=80, time=240),
    Message('note_off', channel=0, note=58, velocity=80, time=0),
    Message('note_off', channel=0, note=51, velocity=80, time=0),
    Message('note_on', channel=0, note=63, velocity=95, time=0),
    Message('note_on', channel=0, note=58, velocity=95, time=0),
    Message('note_on', channel=0, note=51, velocity=95, time=0),
    Message('note_off', channel=0, note=63, velocity=80, time=240),
    Message('note_off', channel=0, note=58, velocity=80, time=0),
    Message('note_off', channel=0, note=51, velocity=80, time=0),
    Message('note_on', channel=0, note=53, velocity=95, time=0),
    Message('note_on', channel=0, note=48, velocity=95, time=0),
    Message('note_on', channel=0, note=41, velocity=95, time=0),
    Message('note_off', channel=0, note=53, velocity=80, time=480),
    Message('note_off', channel=0, note=48, velocity=80, time=0),
    Message('note_off', channel=0, note=41, velocity=80, time=0),
    Message('note_on', channel=0, note=53, velocity=95, time=0),
    Message('note_on', channel=0, note=48, velocity=95, time=0),
    Message('note_on', channel=0, note=41, velocity=95, time=0),
    Message('note_off', channel=0, note=53, velocity=80, time=480),
    Message('note_off', channel=0, note=48, velocity=80, time=0),
    Message('note_off', channel=0, note=41, velocity=80, time=0),
    Message('note_on', channel=0, note=53, velocity=95, time=0),
    Message('note_on', channel=0, note=48, velocity=95, time=0),
    Message('note_on', channel=0, note=41, velocity=95, time=0),
    Message('note_off', channel=0, note=53, velocity=80, time=480),
    Message('note_off', channel=0, note=48, velocity=80, time=0),
    Message('note_off', channel=0, note=41, velocity=80, time=0),
    Message('note_on', channel=0, note=53, velocity=95, time=0),
    Message('note_on', channel=0, note=48, velocity=95, time=0),
    Message('note_on', channel=0, note=41, velocity=95, time=0),
    Message('note_off', channel=0, note=53, velocity=80, time=240),
    Message('note_off', channel=0, note=48, velocity=80, time=0),
    Message('note_off', channel=0, note=41, velocity=80, time=0),
    Message('note_on', channel=0, note=53, velocity=95, time=0),
    Message('note_on', channel=0, note=48, velocity=95, time=0),
    Message('note_on', channel=0, note=41, velocity=95, time=0),
    Message('note_off', channel=0, note=53, velocity=80, time=240),
    Message('note_off', channel=0, note=48, velocity=80, time=0),
    Message('note_off', channel=0, note=41, velocity=80, time=0),
    Message('note_on', channel=0, note=61, velocity=95, time=0),
    Message('note_on', channel=0, note=56, velocity=95, time=0),
    Message('note_on', channel=0, note=49, velocity=95, time=0),
    Message('note_off', channel=0, note=61, velocity=80, time=480),
    Message('note_off', channel=0, note=56, velocity=80, time=0),
    Message('note_off', channel=0, note=49, velocity=80, time=0),
    Message('note_on', channel=0, note=61, velocity=95, time=0),
    Message('note_on', channel=0, note=56, velocity=95, time=0),
    Message('note_on', channel=0, note=49, velocity=95, time=0),
    Message('note_off', channel=0, note=61, velocity=80, time=480),
    Message('note_off', channel=0, note=56, velocity=80, time=0),
    Message('note_off', channel=0, note=49, velocity=80, time=0),
    Message('note_on', channel=0, note=61, velocity=95, time=0),
    Message('note_on', channel=0, note=56, velocity=95, time=0),
    Message('note_on', channel=0, note=49, velocity=95, time=0),
    Message('note_off', channel=0, note=61, velocity=80, time=480),
    Message('note_off', channel=0, note=56, velocity=80, time=0),
    Message('note_off', channel=0, note=49, velocity=80, time=0),
    Message('note_on', channel=0, note=61, velocity=95, time=0),
    Message('note_on', channel=0, note=56, velocity=95, time=0),
    Message('note_on', channel=0, note=49, velocity=95, time=0),
    Message('note_off', channel=0, note=61, velocity=80, time=240),
    Message('note_off', channel=0, note=56, velocity=80, time=0),
    Message('note_off', channel=0, note=49, velocity=80, time=0),
    Message('note_on', channel=0, note=61, velocity=95, time=0),
    Message('note_on', channel=0, note=56, velocity=95, time=0),
    Message('note_on', channel=0, note=49, velocity=95, time=0),
    Message('note_off', channel=0, note=61, velocity=80, time=240),
    Message('note_off', channel=0, note=56, velocity=80, time=0),
    Message('note_off', channel=0, note=49, velocity=80, time=0),
    Message('note_on', channel=0, note=56, velocity=95, time=0),
    Message('note_on', channel=0, note=51, velocity=95, time=0),
    Message('note_on', channel=0, note=44, velocity=95, time=0),
    Message('note_off', channel=0, note=56, velocity=80, time=480),
    Message('note_off', channel=0, note=51, velocity=80, time=0),
    Message('note_off', channel=0, note=44, velocity=80, time=0),
    Message('note_on', channel=0, note=56, velocity=95, time=0),
    Message('note_on', channel=0, note=51, velocity=95, time=0),
    Message('note_on', channel=0, note=44, velocity=95, time=0),
    Message('note_off', channel=0, note=56, velocity=80, time=480),
    Message('note_off', channel=0, note=51, velocity=80, time=0),
    Message('note_off', channel=0, note=44, velocity=80, time=0),
    Message('note_on', channel=0, note=56, velocity=95, time=0),
    Message('note_on', channel=0, note=51, velocity=95, time=0),
    Message('note_on', channel=0, note=44, velocity=95, time=0),
    Message('note_off', channel=0, note=56, velocity=80, time=480),
    Message('note_off', channel=0, note=51, velocity=80, time=0),
    Message('note_off', channel=0, note=44, velocity=80, time=0),
    Message('note_on', channel=0, note=56, velocity=95, time=0),
    Message('note_on', channel=0, note=51, velocity=95, time=0),
    Message('note_on', channel=0, note=44, velocity=95, time=0),
    Message('note_off', channel=0, note=56, velocity=80, time=240),
    Message('note_off', channel=0, note=51, velocity=80, time=0),
    Message('note_off', channel=0, note=44, velocity=80, time=0),
    Message('note_on', channel=0, note=56, velocity=95, time=0),
    Message('note_on', channel=0, note=51, velocity=95, time=0),
    Message('note_on', channel=0, note=44, velocity=95, time=0),
    Message('note_off', channel=0, note=56, velocity=80, time=240),
    Message('note_off', channel=0, note=51, velocity=80, time=0),
    Message('note_off', channel=0, note=44, velocity=80, time=0),
    Message('note_on', channel=0, note=63, velocity=95, time=0),
    Message('note_on', channel=0, note=58, velocity=95, time=0),
    Message('note_on', channel=0, note=51, velocity=95, time=0),
    Message('note_off', channel=0, note=63, velocity=80, time=480),
    Message('note_off', channel=0, note=58, velocity=80, time=0),
    Message('note_off', channel=0, note=51, velocity=80, time=0),
    Message('note_on', channel=0, note=63, velocity=95, time=0),
    Message('note_on', channel=0, note=58, velocity=95, time=0),
    Message('note_on', channel=0, note=51, velocity=95, time=0),
    Message('note_off', channel=0, note=63, velocity=80, time=480),
    Message('note_off', channel=0, note=58, velocity=80, time=0),
    Message('note_off', channel=0, note=51, velocity=80, time=0),
    Message('note_on', channel=0, note=63, velocity=95, time=0),
    Message('note_on', channel=0, note=58, velocity=95, time=0),
    Message('note_on', channel=0, note=51, velocity=95, time=0),
    Message('note_off', channel=0, note=63, velocity=80, time=480),
    Message('note_off', channel=0, note=58, velocity=80, time=0),
    Message('note_off', channel=0, note=51, velocity=80, time=0),
    Message('note_on', channel=0, note=63, velocity=95, time=0),
    Message('note_on', channel=0, note=58, velocity=95, time=0),
    Message('note_on', channel=0, note=51, velocity=95, time=0),
    Message('note_off', channel=0, note=63, velocity=80, time=240),
    Message('note_off', channel=0, note=58, velocity=80, time=0),
    Message('note_off', channel=0, note=51, velocity=80, time=0),
    Message('note_on', channel=0, note=63, velocity=95, time=0),
    Message('note_on', channel=0, note=58, velocity=95, time=0),
    Message('note_on', channel=0, note=51, velocity=95, time=0),
    Message('note_off', channel=0, note=63, velocity=80, time=240),
    Message('note_off', channel=0, note=58, velocity=80, time=0),
    Message('note_off', channel=0, note=51, velocity=80, time=0),
    Message('note_on', channel=0, note=53, velocity=95, time=0),
    Message('note_on', channel=0, note=48, velocity=95, time=0),
    Message('note_on', channel=0, note=41, velocity=95, time=0),
    Message('note_off', channel=0, note=53, velocity=80, time=480),
    Message('note_off', channel=0, note=48, velocity=80, time=0),
    Message('note_off', channel=0, note=41, velocity=80, time=0),
    Message('note_on', channel=0, note=53, velocity=95, time=0),
    Message('note_on', channel=0, note=48, velocity=95, time=0),
    Message('note_on', channel=0, note=41, velocity=95, time=0),
    Message('note_off', channel=0, note=53, velocity=80, time=480),
    Message('note_off', channel=0, note=48, velocity=80, time=0),
    Message('note_off', channel=0, note=41, velocity=80, time=0),
    Message('note_on', channel=0, note=53, velocity=95, time=0),
    Message('note_on', channel=0, note=48, velocity=95, time=0),
    Message('note_on', channel=0, note=41, velocity=95, time=0),
    Message('note_off', channel=0, note=53, velocity=80, time=480),
    Message('note_off', channel=0, note=48, velocity=80, time=0),
    Message('note_off', channel=0, note=41, velocity=80, time=0),
    Message('note_on', channel=0, note=53, velocity=95, time=0),
    Message('note_on', channel=0, note=48, velocity=95, time=0),
    Message('note_on', channel=0, note=41, velocity=95, time=0),
    Message('note_off', channel=0, note=53, velocity=80, time=240),
    Message('note_off', channel=0, note=48, velocity=80, time=0),
    Message('note_off', channel=0, note=41, velocity=80, time=0),
    Message('note_on', channel=0, note=53, velocity=95, time=0),
    Message('note_on', channel=0, note=48, velocity=95, time=0),
    Message('note_on', channel=0, note=41, velocity=95, time=0),
    Message('note_off', channel=0, note=53, velocity=80, time=240),
    Message('note_off', channel=0, note=48, velocity=80, time=0),
    Message('note_off', channel=0, note=41, velocity=80, time=0),
    Message('note_on', channel=0, note=61, velocity=95, time=0),
    Message('note_on', channel=0, note=56, velocity=95, time=0),
    Message('note_on', channel=0, note=49, velocity=95, time=0),
    Message('note_off', channel=0, note=61, velocity=80, time=480),
    Message('note_off', channel=0, note=56, velocity=80, time=0),
    Message('note_off', channel=0, note=49, velocity=80, time=0),
    Message('note_on', channel=0, note=61, velocity=95, time=0),
    Message('note_on', channel=0, note=56, velocity=95, time=0),
    Message('note_on', channel=0, note=49, velocity=95, time=0),
    Message('note_off', channel=0, note=61, velocity=80, time=480),
    Message('note_off', channel=0, note=56, velocity=80, time=0),
    Message('note_off', channel=0, note=49, velocity=80, time=0),
    Message('note_on', channel=0, note=61, velocity=95, time=0),
    Message('note_on', channel=0, note=56, velocity=95, time=0),
    Message('note_on', channel=0, note=49, velocity=95, time=0),
    Message('note_off', channel=0, note=61, velocity=80, time=480),
    Message('note_off', channel=0, note=56, velocity=80, time=0),
    Message('note_off', channel=0, note=49, velocity=80, time=0),
    Message('note_on', channel=0, note=61, velocity=95, time=0),
    Message('note_on', channel=0, note=56, velocity=95, time=0),
    Message('note_on', channel=0, note=49, velocity=95, time=0),
    Message('note_off', channel=0, note=61, velocity=80, time=240),
    Message('note_off', channel=0, note=56, velocity=80, time=0),
    Message('note_off', channel=0, note=49, velocity=80, time=0),
    Message('note_on', channel=0, note=61, velocity=95, time=0),
    Message('note_on', channel=0, note=56, velocity=95, time=0),
    Message('note_on', channel=0, note=49, velocity=95, time=0),
    Message('note_off', channel=0, note=61, velocity=80, time=240),
    Message('note_off', channel=0, note=56, velocity=80, time=0),
    Message('note_off', channel=0, note=49, velocity=80, time=0),
    Message('note_on', channel=0, note=56, velocity=95, time=0),
    Message('note_on', channel=0, note=51, velocity=95, time=0),
    Message('note_on', channel=0, note=44, velocity=95, time=0),
    Message('note_off', channel=0, note=56, velocity=80, time=480),
    Message('note_off', channel=0, note=51, velocity=80, time=0),
    Message('note_off', channel=0, note=44, velocity=80, time=0),
    Message('note_on', channel=0, note=56, velocity=95, time=0),
    Message('note_on', channel=0, note=51, velocity=95, time=0),
    Message('note_on', channel=0, note=44, velocity=95, time=0),
    Message('note_off', channel=0, note=56, velocity=80, time=480),
    Message('note_off', channel=0, note=51, velocity=80, time=0),
    Message('note_off', channel=0, note=44, velocity=80, time=0),
    Message('note_on', channel=0, note=56, velocity=95, time=0),
    Message('note_on', channel=0, note=51, velocity=95, time=0),
    Message('note_on', channel=0, note=44, velocity=95, time=0),
    Message('note_off', channel=0, note=56, velocity=80, time=480),
    Message('note_off', channel=0, note=51, velocity=80, time=0),
    Message('note_off', channel=0, note=44, velocity=80, time=0),
    Message('note_on', channel=0, note=56, velocity=95, time=0),
    Message('note_on', channel=0, note=51, velocity=95, time=0),
    Message('note_on', channel=0, note=44, velocity=95, time=0),
    Message('note_off', channel=0, note=56, velocity=80, time=240),
    Message('note_off', channel=0, note=51, velocity=80, time=0),
    Message('note_off', channel=0, note=44, velocity=80, time=0),
    Message('note_on', channel=0, note=56, velocity=95, time=0),
    Message('note_on', channel=0, note=51, velocity=95, time=0),
    Message('note_on', channel=0, note=44, velocity=95, time=0),
    Message('note_off', channel=0, note=56, velocity=80, time=240),
    Message('note_off', channel=0, note=51, velocity=80, time=0),
    Message('note_off', channel=0, note=44, velocity=80, time=0),
    Message('note_on', channel=0, note=60, velocity=95, time=0),
    Message('note_on', channel=0, note=55, velocity=95, time=0),
    Message('note_on', channel=0, note=48, velocity=95, time=0),
    Message('note_off', channel=0, note=60, velocity=80, time=480),
    Message('note_off', channel=0, note=55, velocity=80, time=0),
    Message('note_off', channel=0, note=48, velocity=80, time=0),
    Message('note_on', channel=0, note=60, velocity=95, time=0),
    Message('note_on', channel=0, note=55, velocity=95, time=0),
    Message('note_on', channel=0, note=48, velocity=95, time=0),
    Message('note_off', channel=0, note=60, velocity=80, time=480),
    Message('note_off', channel=0, note=55, velocity=80, time=0),
    Message('note_off', channel=0, note=48, velocity=80, time=0),
    Message('note_on', channel=0, note=60, velocity=95, time=0),
    Message('note_on', channel=0, note=55, velocity=95, time=0),
    Message('note_on', channel=0, note=48, velocity=95, time=0),
    Message('note_off', channel=0, note=60, velocity=80, time=480),
    Message('note_off', channel=0, note=55, velocity=80, time=0),
    Message('note_off', channel=0, note=48, velocity=80, time=0),
    Message('note_on', channel=0, note=60, velocity=95, time=0),
    Message('note_on', channel=0, note=55, velocity=95, time=0),
    Message('note_on', channel=0, note=48, velocity=95, time=0),
    Message('note_off', channel=0, note=60, velocity=80, time=480),
    Message('note_off', channel=0, note=55, velocity=80, time=0),
    Message('note_off', channel=0, note=48, velocity=80, time=0),
    Message('note_on', channel=0, note=60, velocity=95, time=0),
    Message('note_on', channel=0, note=55, velocity=95, time=0),
    Message('note_on', channel=0, note=48, velocity=95, time=0),
    Message('note_off', channel=0, note=60, velocity=80, time=480),
    Message('note_off', channel=0, note=55, velocity=80, time=0),
    Message('note_off', channel=0, note=48, velocity=80, time=0),
    Message('program_change', channel=0, program=29, time=1440),
    Message('program_change', channel=1, program=29, time=0),
    Message('control_change', channel=0, control=7, value=96, time=0),
    Message('control_change', channel=1, control=7, value=96, time=0),
    Message('note_on', channel=0, note=53, velocity=57, time=0),
    Message('note_on', channel=0, note=48, velocity=57, time=0),
    Message('note_on', channel=0, note=41, velocity=57, time=0),
    Message('note_off', channel=0, note=53, velocity=80, time=120),
    Message('note_off', channel=0, note=48, velocity=80, time=0),
    Message('note_off', channel=0, note=41, velocity=80, time=0),
    Message('note_on', channel=0, note=53, velocity=57, time=120),
    Message('note_on', channel=0, note=48, velocity=57, time=0),
    Message('note_on', channel=0, note=41, velocity=57, time=0),
    Message('note_off', channel=0, note=53, velocity=80, time=120),
    Message('note_off', channel=0, note=48, velocity=80, time=0),
    Message('note_off', channel=0, note=41, velocity=80, time=0),
    Message('note_on', channel=0, note=53, velocity=57, time=120),
    Message('note_on', channel=0, note=48, velocity=57, time=0),
    Message('note_on', channel=0, note=41, velocity=57, time=0),
    Message('note_off', channel=0, note=53, velocity=80, time=120),
    Message('note_off', channel=0, note=48, velocity=80, time=0),
    Message('note_off', channel=0, note=41, velocity=80, time=0),
    Message('note_on', channel=0, note=53, velocity=57, time=120),
    Message('note_on', channel=0, note=48, velocity=57, time=0),
    Message('note_on', channel=0, note=41, velocity=57, time=0),
    Message('note_off', channel=0, note=53, velocity=80, time=120),
    Message('note_off', channel=0, note=48, velocity=80, time=0),
    Message('note_off', channel=0, note=41, velocity=80, time=0),
    Message('note_on', channel=0, note=53, velocity=57, time=120),
    Message('note_on', channel=0, note=48, velocity=57, time=0),
    Message('note_on', channel=0, note=41, velocity=57, time=0),
    Message('note_off', channel=0, note=53, velocity=80, time=120),
    Message('note_off', channel=0, note=48, velocity=80, time=0),
    Message('note_off', channel=0, note=41, velocity=80, time=0),
    Message('note_on', channel=0, note=53, velocity=57, time=120),
    Message('note_on', channel=0, note=48, velocity=57, time=0),
    Message('note_on', channel=0, note=41, velocity=57, time=0),
    Message('note_off', channel=0, note=53, velocity=80, time=120),
    Message('note_off', channel=0, note=48, velocity=80, time=0),
    Message('note_off', channel=0, note=41, velocity=80, time=0),
    Message('note_on', channel=0, note=53, velocity=57, time=120),
    Message('note_on', channel=0, note=48, velocity=57, time=0),
    Message('note_on', channel=0, note=41, velocity=57, time=0),
    Message('note_off', channel=0, note=53, velocity=80, time=120),
    Message('note_off', channel=0, note=48, velocity=80, time=0),
    Message('note_off', channel=0, note=41, velocity=80, time=0),
    Message('note_on', channel=0, note=53, velocity=57, time=120),
    Message('note_on', channel=0, note=48, velocity=57, time=0),
    Message('note_on', channel=0, note=41, velocity=57, time=0),
    Message('note_off', channel=0, note=53, velocity=80, time=120),
    Message('note_off', channel=0, note=48, velocity=80, time=0),
    Message('note_off', channel=0, note=41, velocity=80, time=0),
    Message('note_on', channel=0, note=56, velocity=57, time=120),
    Message('note_on', channel=0, note=51, velocity=57, time=0),
    Message('note_on', channel=0, note=44, velocity=57, time=0),
    Message('note_off', channel=0, note=56, velocity=80, time=120),
    Message('note_off', channel=0, note=51, velocity=80, time=0),
    Message('note_off', channel=0, note=44, velocity=80, time=0),
    Message('note_on', channel=0, note=56, velocity=57, time=120),
    Message('note_on', channel=0, note=51, velocity=57, time=0),
    Message('note_on', channel=0, note=44, velocity=57, time=0),
    Message('note_off', channel=0, note=56, velocity=80, time=120),
    Message('note_off', channel=0, note=51, velocity=80, time=0),
    Message('note_off', channel=0, note=44, velocity=80, time=0),
    Message('note_on', channel=0, note=56, velocity=57, time=120),
    Message('note_on', channel=0, note=51, velocity=57, time=0),
    Message('note_on', channel=0, note=44, velocity=57, time=0),
    Message('note_off', channel=0, note=56, velocity=80, time=120),
    Message('note_off', channel=0, note=51, velocity=80, time=0),
    Message('note_off', channel=0, note=44, velocity=80, time=0),
    Message('note_on', channel=0, note=56, velocity=57, time=120),
    Message('note_on', channel=0, note=51, velocity=57, time=0),
    Message('note_on', channel=0, note=44, velocity=57, time=0),
    Message('note_off', channel=0, note=56, velocity=80, time=120),
    Message('note_off', channel=0, note=51, velocity=80, time=0),
    Message('note_off', channel=0, note=44, velocity=80, time=0),
    Message('note_on', channel=0, note=56, velocity=57, time=120),
    Message('note_on', channel=0, note=51, velocity=57, time=0),
    Message('note_on', channel=0, note=44, velocity=57, time=0),
    Message('note_off', channel=0, note=56, velocity=80, time=120),
    Message('note_off', channel=0, note=51, velocity=80, time=0),
    Message('note_off', channel=0, note=44, velocity=80, time=0),
    Message('note_on', channel=0, note=56, velocity=57, time=120),
    Message('note_on', channel=0, note=51, velocity=57, time=0),
    Message('note_on', channel=0, note=44, velocity=57, time=0),
    Message('note_off', channel=0, note=56, velocity=80, time=120),
    Message('note_off', channel=0, note=51, velocity=80, time=0),
    Message('note_off', channel=0, note=44, velocity=80, time=0),
    Message('note_on', channel=0, note=56, velocity=57, time=120),
    Message('note_on', channel=0, note=51, velocity=57, time=0),
    Message('note_on', channel=0, note=44, velocity=57, time=0),
    Message('note_off', channel=0, note=56, velocity=80, time=120),
    Message('note_off', channel=0, note=51, velocity=80, time=0),
    Message('note_off', channel=0, note=44, velocity=80, time=0),
    Message('note_on', channel=0, note=56, velocity=57, time=120),
    Message('note_on', channel=0, note=51, velocity=57, time=0),
    Message('note_on', channel=0, note=44, velocity=57, time=0),
    Message('note_off', channel=0, note=56, velocity=80, time=120),
    Message('note_off', channel=0, note=51, velocity=80, time=0),
    Message('note_off', channel=0, note=44, velocity=80, time=0),
    Message('note_on', channel=0, note=63, velocity=57, time=120),
    Message('note_on', channel=0, note=58, velocity=57, time=0),
    Message('note_on', channel=0, note=51, velocity=57, time=0),
    Message('note_off', channel=0, note=63, velocity=80, time=120),
    Message('note_off', channel=0, note=58, velocity=80, time=0),
    Message('note_off', channel=0, note=51, velocity=80, time=0),
    Message('note_on', channel=0, note=63, velocity=57, time=120),
    Message('note_on', channel=0, note=58, velocity=57, time=0),
    Message('note_on', channel=0, note=51, velocity=57, time=0),
    Message('note_off', channel=0, note=63, velocity=80, time=120),
    Message('note_off', channel=0, note=58, velocity=80, time=0),
    Message('note_off', channel=0, note=51, velocity=80, time=0),
    Message('note_on', channel=0, note=63, velocity=57, time=120),
    Message('note_on', channel=0, note=58, velocity=57, time=0),
    Message('note_on', channel=0, note=51, velocity=57, time=0),
    Message('note_off', channel=0, note=63, velocity=80, time=120),
    Message('note_off', channel=0, note=58, velocity=80, time=0),
    Message('note_off', channel=0, note=51, velocity=80, time=0),
    Message('note_on', channel=0, note=63, velocity=57, time=120),
    Message('note_on', channel=0, note=58, velocity=57, time=0),
    Message('note_on', channel=0, note=51, velocity=57, time=0),
    Message('note_off', channel=0, note=63, velocity=80, time=120),
    Message('note_off', channel=0, note=58, velocity=80, time=0),
    Message('note_off', channel=0, note=51, velocity=80, time=0),
    Message('note_on', channel=0, note=63, velocity=57, time=120),
    Message('note_on', channel=0, note=58, velocity=57, time=0),
    Message('note_on', channel=0, note=51, velocity=57, time=0),
    Message('note_off', channel=0, note=63, velocity=80, time=120),
    Message('note_off', channel=0, note=58, velocity=80, time=0),
    Message('note_off', channel=0, note=51, velocity=80, time=0),
    Message('note_on', channel=0, note=63, velocity=57, time=120),
    Message('note_on', channel=0, note=58, velocity=57, time=0),
    Message('note_on', channel=0, note=51, velocity=57, time=0),
    Message('note_off', channel=0, note=63, velocity=80, time=120),
    Message('note_off', channel=0, note=58, velocity=80, time=0),
    Message('note_off', channel=0, note=51, velocity=80, time=0),
    Message('note_on', channel=0, note=63, velocity=57, time=120),
    Message('note_on', channel=0, note=58, velocity=57, time=0),
    Message('note_on', channel=0, note=51, velocity=57, time=0),
    Message('note_off', channel=0, note=63, velocity=80, time=120),
    Message('note_off', channel=0, note=58, velocity=80, time=0),
    Message('note_off', channel=0, note=51, velocity=80, time=0),
    Message('note_on', channel=0, note=63, velocity=57, time=120),
    Message('note_on', channel=0, note=58, velocity=57, time=0),
    Message('note_on', channel=0, note=51, velocity=57, time=0),
    Message('note_off', channel=0, note=63, velocity=80, time=120),
    Message('note_off', channel=0, note=58, velocity=80, time=0),
    Message('note_off', channel=0, note=51, velocity=80, time=0),
    Message('note_on', channel=0, note=58, velocity=57, time=120),
    Message('note_on', channel=0, note=53, velocity=57, time=0),
    Message('note_on', channel=0, note=46, velocity=57, time=0),
    Message('note_off', channel=0, note=58, velocity=80, time=120),
    Message('note_off', channel=0, note=53, velocity=80, time=0),
    Message('note_off', channel=0, note=46, velocity=80, time=0),
    Message('note_on', channel=0, note=58, velocity=57, time=120),
    Message('note_on', channel=0, note=53, velocity=57, time=0),
    Message('note_on', channel=0, note=46, velocity=57, time=0),
    Message('note_off', channel=0, note=58, velocity=80, time=120),
    Message('note_off', channel=0, note=53, velocity=80, time=0),
    Message('note_off', channel=0, note=46, velocity=80, time=0),
    Message('note_on', channel=0, note=58, velocity=57, time=120),
    Message('note_on', channel=0, note=53, velocity=57, time=0),
    Message('note_on', channel=0, note=46, velocity=57, time=0),
    Message('note_off', channel=0, note=58, velocity=80, time=120),
    Message('note_off', channel=0, note=53, velocity=80, time=0),
    Message('note_off', channel=0, note=46, velocity=80, time=0),
    Message('note_on', channel=0, note=58, velocity=57, time=120),
    Message('note_on', channel=0, note=53, velocity=57, time=0),
    Message('note_on', channel=0, note=46, velocity=57, time=0),
    Message('note_off', channel=0, note=58, velocity=80, time=120),
    Message('note_off', channel=0, note=53, velocity=80, time=0),
    Message('note_off', channel=0, note=46, velocity=80, time=0),
    Message('note_on', channel=0, note=58, velocity=57, time=120),
    Message('note_on', channel=0, note=53, velocity=57, time=0),
    Message('note_on', channel=0, note=46, velocity=57, time=0),
    Message('note_off', channel=0, note=58, velocity=80, time=120),
    Message('note_off', channel=0, note=53, velocity=80, time=0),
    Message('note_off', channel=0, note=46, velocity=80, time=0),
    Message('note_on', channel=0, note=58, velocity=57, time=120),
    Message('note_on', channel=0, note=53, velocity=57, time=0),
    Message('note_on', channel=0, note=46, velocity=57, time=0),
    Message('note_off', channel=0, note=58, velocity=80, time=120),
    Message('note_off', channel=0, note=53, velocity=80, time=0),
    Message('note_off', channel=0, note=46, velocity=80, time=0),
    Message('note_on', channel=0, note=58, velocity=57, time=120),
    Message('note_on', channel=0, note=53, velocity=57, time=0),
    Message('note_on', channel=0, note=46, velocity=57, time=0),
    Message('note_off', channel=0, note=58, velocity=80, time=120),
    Message('note_off', channel=0, note=53, velocity=80, time=0),
    Message('note_off', channel=0, note=46, velocity=80, time=0),
    Message('note_on', channel=0, note=58, velocity=57, time=120),
    Message('note_on', channel=0, note=53, velocity=57, time=0),
    Message('note_on', channel=0, note=46, velocity=57, time=0),
    Message('note_off', channel=0, note=58, velocity=80, time=120),
    Message('note_off', channel=0, note=53, velocity=80, time=0),
    Message('note_off', channel=0, note=46, velocity=80, time=0),
    Message('note_on', channel=0, note=53, velocity=57, time=120),
    Message('note_on', channel=0, note=48, velocity=57, time=0),
    Message('note_on', channel=0, note=41, velocity=57, time=0),
    Message('note_off', channel=0, note=53, velocity=80, time=120),
    Message('note_off', channel=0, note=48, velocity=80, time=0),
    Message('note_off', channel=0, note=41, velocity=80, time=0),
    Message('note_on', channel=0, note=53, velocity=57, time=120),
    Message('note_on', channel=0, note=48, velocity=57, time=0),
    Message('note_on', channel=0, note=41, velocity=57, time=0),
    Message('note_off', channel=0, note=53, velocity=80, time=120),
    Message('note_off', channel=0, note=48, velocity=80, time=0),
    Message('note_off', channel=0, note=41, velocity=80, time=0),
    Message('note_on', channel=0, note=53, velocity=57, time=120),
    Message('note_on', channel=0, note=48, velocity=57, time=0),
    Message('note_on', channel=0, note=41, velocity=57, time=0),
    Message('note_off', channel=0, note=53, velocity=80, time=120),
    Message('note_off', channel=0, note=48, velocity=80, time=0),
    Message('note_off', channel=0, note=41, velocity=80, time=0),
    Message('note_on', channel=0, note=53, velocity=57, time=120),
    Message('note_on', channel=0, note=48, velocity=57, time=0),
    Message('note_on', channel=0, note=41, velocity=57, time=0),
    Message('note_off', channel=0, note=53, velocity=80, time=120),
    Message('note_off', channel=0, note=48, velocity=80, time=0),
    Message('note_off', channel=0, note=41, velocity=80, time=0),
    Message('note_on', channel=0, note=53, velocity=57, time=120),
    Message('note_on', channel=0, note=48, velocity=57, time=0),
    Message('note_on', channel=0, note=41, velocity=57, time=0),
    Message('note_off', channel=0, note=53, velocity=80, time=120),
    Message('note_off', channel=0, note=48, velocity=80, time=0),
    Message('note_off', channel=0, note=41, velocity=80, time=0),
    Message('note_on', channel=0, note=53, velocity=57, time=120),
    Message('note_on', channel=0, note=48, velocity=57, time=0),
    Message('note_on', channel=0, note=41, velocity=57, time=0),
    Message('note_off', channel=0, note=53, velocity=80, time=120),
    Message('note_off', channel=0, note=48, velocity=80, time=0),
    Message('note_off', channel=0, note=41, velocity=80, time=0),
    Message('note_on', channel=0, note=53, velocity=57, time=120),
    Message('note_on', channel=0, note=48, velocity=57, time=0),
    Message('note_on', channel=0, note=41, velocity=57, time=0),
    Message('note_off', channel=0, note=53, velocity=80, time=120),
    Message('note_off', channel=0, note=48, velocity=80, time=0),
    Message('note_off', channel=0, note=41, velocity=80, time=0),
    Message('note_on', channel=0, note=53, velocity=57, time=120),
    Message('note_on', channel=0, note=48, velocity=57, time=0),
    Message('note_on', channel=0, note=41, velocity=57, time=0),
    Message('note_off', channel=0, note=53, velocity=80, time=120),
    Message('note_off', channel=0, note=48, velocity=80, time=0),
    Message('note_off', channel=0, note=41, velocity=80, time=0),
    Message('note_on', channel=0, note=56, velocity=57, time=120),
    Message('note_on', channel=0, note=51, velocity=57, time=0),
    Message('note_on', channel=0, note=44, velocity=57, time=0),
    Message('note_off', channel=0, note=56, velocity=80, time=120),
    Message('note_off', channel=0, note=51, velocity=80, time=0),
    Message('note_off', channel=0, note=44, velocity=80, time=0),
    Message('note_on', channel=0, note=56, velocity=57, time=120),
    Message('note_on', channel=0, note=51, velocity=57, time=0),
    Message('note_on', channel=0, note=44, velocity=57, time=0),
    Message('note_off', channel=0, note=56, velocity=80, time=120),
    Message('note_off', channel=0, note=51, velocity=80, time=0),
    Message('note_off', channel=0, note=44, velocity=80, time=0),
    Message('note_on', channel=0, note=56, velocity=57, time=120),
    Message('note_on', channel=0, note=51, velocity=57, time=0),
    Message('note_on', channel=0, note=44, velocity=57, time=0),
    Message('note_off', channel=0, note=56, velocity=80, time=120),
    Message('note_off', channel=0, note=51, velocity=80, time=0),
    Message('note_off', channel=0, note=44, velocity=80, time=0),
    Message('note_on', channel=0, note=56, velocity=57, time=120),
    Message('note_on', channel=0, note=51, velocity=57, time=0),
    Message('note_on', channel=0, note=44, velocity=57, time=0),
    Message('note_off', channel=0, note=56, velocity=80, time=120),
    Message('note_off', channel=0, note=51, velocity=80, time=0),
    Message('note_off', channel=0, note=44, velocity=80, time=0),
    Message('note_on', channel=0, note=56, velocity=57, time=120),
    Message('note_on', channel=0, note=51, velocity=57, time=0),
    Message('note_on', channel=0, note=44, velocity=57, time=0),
    Message('note_off', channel=0, note=56, velocity=80, time=120),
    Message('note_off', channel=0, note=51, velocity=80, time=0),
    Message('note_off', channel=0, note=44, velocity=80, time=0),
    Message('note_on', channel=0, note=56, velocity=57, time=120),
    Message('note_on', channel=0, note=51, velocity=57, time=0),
    Message('note_on', channel=0, note=44, velocity=57, time=0),
    Message('note_off', channel=0, note=56, velocity=80, time=120),
    Message('note_off', channel=0, note=51, velocity=80, time=0),
    Message('note_off', channel=0, note=44, velocity=80, time=0),
    Message('note_on', channel=0, note=56, velocity=57, time=120),
    Message('note_on', channel=0, note=51, velocity=57, time=0),
    Message('note_on', channel=0, note=44, velocity=57, time=0),
    Message('note_off', channel=0, note=56, velocity=80, time=120),
    Message('note_off', channel=0, note=51, velocity=80, time=0),
    Message('note_off', channel=0, note=44, velocity=80, time=0),
    Message('note_on', channel=0, note=56, velocity=57, time=120),
    Message('note_on', channel=0, note=51, velocity=57, time=0),
    Message('note_on', channel=0, note=44, velocity=57, time=0),
    Message('note_off', channel=0, note=56, velocity=80, time=120),
    Message('note_off', channel=0, note=51, velocity=80, time=0),
    Message('note_off', channel=0, note=44, velocity=80, time=0),
    Message('note_on', channel=0, note=63, velocity=57, time=120),
    Message('note_on', channel=0, note=58, velocity=57, time=0),
    Message('note_on', channel=0, note=51, velocity=57, time=0),
    Message('note_off', channel=0, note=63, velocity=80, time=120),
    Message('note_off', channel=0, note=58, velocity=80, time=0),
    Message('note_off', channel=0, note=51, velocity=80, time=0),
    Message('note_on', channel=0, note=63, velocity=57, time=120),
    Message('note_on', channel=0, note=58, velocity=57, time=0),
    Message('note_on', channel=0, note=51, velocity=57, time=0),
    Message('note_off', channel=0, note=63, velocity=80, time=120),
    Message('note_off', channel=0, note=58, velocity=80, time=0),
    Message('note_off', channel=0, note=51, velocity=80, time=0),
    Message('note_on', channel=0, note=63, velocity=57, time=120),
    Message('note_on', channel=0, note=58, velocity=57, time=0),
    Message('note_on', channel=0, note=51, velocity=57, time=0),
    Message('note_off', channel=0, note=63, velocity=80, time=120),
    Message('note_off', channel=0, note=58, velocity=80, time=0),
    Message('note_off', channel=0, note=51, velocity=80, time=0),
    Message('note_on', channel=0, note=63, velocity=57, time=120),
    Message('note_on', channel=0, note=58, velocity=57, time=0),
    Message('note_on', channel=0, note=51, velocity=57, time=0),
    Message('note_off', channel=0, note=63, velocity=80, time=120),
    Message('note_off', channel=0, note=58, velocity=80, time=0),
    Message('note_off', channel=0, note=51, velocity=80, time=0),
    Message('note_on', channel=0, note=63, velocity=57, time=120),
    Message('note_on', channel=0, note=58, velocity=57, time=0),
    Message('note_on', channel=0, note=51, velocity=57, time=0),
    Message('note_off', channel=0, note=63, velocity=80, time=120),
    Message('note_off', channel=0, note=58, velocity=80, time=0),
    Message('note_off', channel=0, note=51, velocity=80, time=0),
    Message('note_on', channel=0, note=63, velocity=57, time=120),
    Message('note_on', channel=0, note=58, velocity=57, time=0),
    Message('note_on', channel=0, note=51, velocity=57, time=0),
    Message('note_off', channel=0, note=63, velocity=80, time=120),
    Message('note_off', channel=0, note=58, velocity=80, time=0),
    Message('note_off', channel=0, note=51, velocity=80, time=0),
    Message('note_on', channel=0, note=63, velocity=57, time=120),
    Message('note_on', channel=0, note=58, velocity=57, time=0),
    Message('note_on', channel=0, note=51, velocity=57, time=0),
    Message('note_off', channel=0, note=63, velocity=80, time=120),
    Message('note_off', channel=0, note=58, velocity=80, time=0),
    Message('note_off', channel=0, note=51, velocity=80, time=0),
    Message('note_on', channel=0, note=63, velocity=57, time=120),
    Message('note_on', channel=0, note=58, velocity=57, time=0),
    Message('note_on', channel=0, note=51, velocity=57, time=0),
    Message('note_off', channel=0, note=63, velocity=80, time=120),
    Message('note_off', channel=0, note=58, velocity=80, time=0),
    Message('note_off', channel=0, note=51, velocity=80, time=0),
    Message('program_change', channel=0, program=29, time=120),
    Message('program_change', channel=1, program=29, time=0),
    Message('control_change', channel=0, control=7, value=104, time=0),
    Message('control_change', channel=1, control=7, value=104, time=0),
    Message('note_on', channel=0, note=58, velocity=95, time=0),
    Message('note_on', channel=0, note=53, velocity=95, time=0),
    Message('note_on', channel=0, note=46, velocity=95, time=0),
    Message('note_off', channel=0, note=58, velocity=80, time=480),
    Message('note_off', channel=0, note=53, velocity=80, time=0),
    Message('note_off', channel=0, note=46, velocity=80, time=0),
    Message('note_on', channel=0, note=58, velocity=95, time=0),
    Message('note_on', channel=0, note=53, velocity=95, time=0),
    Message('note_on', channel=0, note=46, velocity=95, time=0),
    Message('note_off', channel=0, note=58, velocity=80, time=480),
    Message('note_off', channel=0, note=53, velocity=80, time=0),
    Message('note_off', channel=0, note=46, velocity=80, time=0),
    Message('note_on', channel=0, note=58, velocity=95, time=0),
    Message('note_on', channel=0, note=53, velocity=95, time=0),
    Message('note_on', channel=0, note=46, velocity=95, time=0),
    Message('note_off', channel=0, note=58, velocity=80, time=480),
    Message('note_off', channel=0, note=53, velocity=80, time=0),
    Message('note_off', channel=0, note=46, velocity=80, time=0),
    Message('note_on', channel=0, note=60, velocity=95, time=0),
    Message('note_on', channel=0, note=55, velocity=95, time=0),
    Message('note_on', channel=0, note=48, velocity=95, time=0),
    Message('note_off', channel=0, note=60, velocity=80, time=480),
    Message('note_off', channel=0, note=55, velocity=80, time=0),
    Message('note_off', channel=0, note=48, velocity=80, time=0),
    Message('program_change', channel=0, program=29, time=0),
    Message('program_change', channel=1, program=29, time=0),
    Message('control_change', channel=0, control=7, value=104, time=0),
    Message('control_change', channel=1, control=7, value=104, time=0),
    Message('note_on', channel=0, note=61, velocity=95, time=0),
    Message('note_on', channel=0, note=56, velocity=95, time=0),
    Message('note_on', channel=0, note=49, velocity=95, time=0),
    Message('note_off', channel=0, note=61, velocity=80, time=480),
    Message('note_off', channel=0, note=56, velocity=80, time=0),
    Message('note_off', channel=0, note=49, velocity=80, time=0),
    Message('note_on', channel=0, note=61, velocity=95, time=0),
    Message('note_on', channel=0, note=56, velocity=95, time=0),
    Message('note_on', channel=0, note=49, velocity=95, time=0),
    Message('note_off', channel=0, note=61, velocity=80, time=480),
    Message('note_off', channel=0, note=56, velocity=80, time=0),
    Message('note_off', channel=0, note=49, velocity=80, time=0),
    Message('note_on', channel=0, note=61, velocity=95, time=0),
    Message('note_on', channel=0, note=56, velocity=95, time=0),
    Message('note_on', channel=0, note=49, velocity=95, time=0),
    Message('note_off', channel=0, note=61, velocity=80, time=480),
    Message('note_off', channel=0, note=56, velocity=80, time=0),
    Message('note_off', channel=0, note=49, velocity=80, time=0),
    Message('note_on', channel=0, note=61, velocity=95, time=0),
    Message('note_on', channel=0, note=56, velocity=95, time=0),
    Message('note_on', channel=0, note=49, velocity=95, time=0),
    Message('note_off', channel=0, note=61, velocity=80, time=240),
    Message('note_off', channel=0, note=56, velocity=80, time=0),
    Message('note_off', channel=0, note=49, velocity=80, time=0),
    Message('note_on', channel=0, note=61, velocity=95, time=0),
    Message('note_on', channel=0, note=56, velocity=95, time=0),
    Message('note_on', channel=0, note=49, velocity=95, time=0),
    Message('note_off', channel=0, note=61, velocity=80, time=240),
    Message('note_off', channel=0, note=56, velocity=80, time=0),
    Message('note_off', channel=0, note=49, velocity=80, time=0),
    Message('note_on', channel=0, note=56, velocity=95, time=0),
    Message('note_on', channel=0, note=51, velocity=95, time=0),
    Message('note_on', channel=0, note=44, velocity=95, time=0),
    Message('note_off', channel=0, note=56, velocity=80, time=480),
    Message('note_off', channel=0, note=51, velocity=80, time=0),
    Message('note_off', channel=0, note=44, velocity=80, time=0),
    Message('note_on', channel=0, note=56, velocity=95, time=0),
    Message('note_on', channel=0, note=51, velocity=95, time=0),
    Message('note_on', channel=0, note=44, velocity=95, time=0),
    Message('note_off', channel=0, note=56, velocity=80, time=480),
    Message('note_off', channel=0, note=51, velocity=80, time=0),
    Message('note_off', channel=0, note=44, velocity=80, time=0),
    Message('note_on', channel=0, note=56, velocity=95, time=0),
    Message('note_on', channel=0, note=51, velocity=95, time=0),
    Message('note_on', channel=0, note=44, velocity=95, time=0),
    Message('note_off', channel=0, note=56, velocity=80, time=480),
    Message('note_off', channel=0, note=51, velocity=80, time=0),
    Message('note_off', channel=0, note=44, velocity=80, time=0),
    Message('note_on', channel=0, note=56, velocity=95, time=0),
    Message('note_on', channel=0, note=51, velocity=95, time=0),
    Message('note_on', channel=0, note=44, velocity=95, time=0),
    Message('note_off', channel=0, note=56, velocity=80, time=240),
    Message('note_off', channel=0, note=51, velocity=80, time=0),
    Message('note_off', channel=0, note=44, velocity=80, time=0),
    Message('note_on', channel=0, note=56, velocity=95, time=0),
    Message('note_on', channel=0, note=51, velocity=95, time=0),
    Message('note_on', channel=0, note=44, velocity=95, time=0),
    Message('note_off', channel=0, note=56, velocity=80, time=240),
    Message('note_off', channel=0, note=51, velocity=80, time=0),
    Message('note_off', channel=0, note=44, velocity=80, time=0),
    Message('note_on', channel=0, note=63, velocity=95, time=0),
    Message('note_on', channel=0, note=58, velocity=95, time=0),
    Message('note_on', channel=0, note=51, velocity=95, time=0),
    Message('note_off', channel=0, note=63, velocity=80, time=480),
    Message('note_off', channel=0, note=58, velocity=80, time=0),
    Message('note_off', channel=0, note=51, velocity=80, time=0),
    Message('note_on', channel=0, note=63, velocity=95, time=0),
    Message('note_on', channel=0, note=58, velocity=95, time=0),
    Message('note_on', channel=0, note=51, velocity=95, time=0),
    Message('note_off', channel=0, note=63, velocity=80, time=480),
    Message('note_off', channel=0, note=58, velocity=80, time=0),
    Message('note_off', channel=0, note=51, velocity=80, time=0),
    Message('note_on', channel=0, note=63, velocity=95, time=0),
    Message('note_on', channel=0, note=58, velocity=95, time=0),
    Message('note_on', channel=0, note=51, velocity=95, time=0),
    Message('note_off', channel=0, note=63, velocity=80, time=480),
    Message('note_off', channel=0, note=58, velocity=80, time=0),
    Message('note_off', channel=0, note=51, velocity=80, time=0),
    Message('note_on', channel=0, note=63, velocity=95, time=0),
    Message('note_on', channel=0, note=58, velocity=95, time=0),
    Message('note_on', channel=0, note=51, velocity=95, time=0),
    Message('note_off', channel=0, note=63, velocity=80, time=240),
    Message('note_off', channel=0, note=58, velocity=80, time=0),
    Message('note_off', channel=0, note=51, velocity=80, time=0),
    Message('note_on', channel=0, note=63, velocity=95, time=0),
    Message('note_on', channel=0, note=58, velocity=95, time=0),
    Message('note_on', channel=0, note=51, velocity=95, time=0),
    Message('note_off', channel=0, note=63, velocity=80, time=240),
    Message('note_off', channel=0, note=58, velocity=80, time=0),
    Message('note_off', channel=0, note=51, velocity=80, time=0),
    Message('note_on', channel=0, note=53, velocity=95, time=0),
    Message('note_on', channel=0, note=48, velocity=95, time=0),
    Message('note_on', channel=0, note=41, velocity=95, time=0),
    Message('note_off', channel=0, note=53, velocity=80, time=480),
    Message('note_off', channel=0, note=48, velocity=80, time=0),
    Message('note_off', channel=0, note=41, velocity=80, time=0),
    Message('note_on', channel=0, note=53, velocity=95, time=0),
    Message('note_on', channel=0, note=48, velocity=95, time=0),
    Message('note_on', channel=0, note=41, velocity=95, time=0),
    Message('note_off', channel=0, note=53, velocity=80, time=480),
    Message('note_off', channel=0, note=48, velocity=80, time=0),
    Message('note_off', channel=0, note=41, velocity=80, time=0),
    Message('note_on', channel=0, note=53, velocity=95, time=0),
    Message('note_on', channel=0, note=48, velocity=95, time=0),
    Message('note_on', channel=0, note=41, velocity=95, time=0),
    Message('note_off', channel=0, note=53, velocity=80, time=480),
    Message('note_off', channel=0, note=48, velocity=80, time=0),
    Message('note_off', channel=0, note=41, velocity=80, time=0),
    Message('note_on', channel=0, note=53, velocity=95, time=0),
    Message('note_on', channel=0, note=48, velocity=95, time=0),
    Message('note_on', channel=0, note=41, velocity=95, time=0),
    Message('note_off', channel=0, note=53, velocity=80, time=240),
    Message('note_off', channel=0, note=48, velocity=80, time=0),
    Message('note_off', channel=0, note=41, velocity=80, time=0),
    Message('note_on', channel=0, note=53, velocity=95, time=0),
    Message('note_on', channel=0, note=48, velocity=95, time=0),
    Message('note_on', channel=0, note=41, velocity=95, time=0),
    Message('note_off', channel=0, note=53, velocity=80, time=240),
    Message('note_off', channel=0, note=48, velocity=80, time=0),
    Message('note_off', channel=0, note=41, velocity=80, time=0),
    Message('note_on', channel=0, note=61, velocity=95, time=0),
    Message('note_on', channel=0, note=56, velocity=95, time=0),
    Message('note_on', channel=0, note=49, velocity=95, time=0),
    Message('note_off', channel=0, note=61, velocity=80, time=480),
    Message('note_off', channel=0, note=56, velocity=80, time=0),
    Message('note_off', channel=0, note=49, velocity=80, time=0),
    Message('note_on', channel=0, note=61, velocity=95, time=0),
    Message('note_on', channel=0, note=56, velocity=95, time=0),
    Message('note_on', channel=0, note=49, velocity=95, time=0),
    Message('note_off', channel=0, note=61, velocity=80, time=480),
    Message('note_off', channel=0, note=56, velocity=80, time=0),
    Message('note_off', channel=0, note=49, velocity=80, time=0),
    Message('note_on', channel=0, note=61, velocity=95, time=0),
    Message('note_on', channel=0, note=56, velocity=95, time=0),
    Message('note_on', channel=0, note=49, velocity=95, time=0),
    Message('note_off', channel=0, note=61, velocity=80, time=480),
    Message('note_off', channel=0, note=56, velocity=80, time=0),
    Message('note_off', channel=0, note=49, velocity=80, time=0),
    Message('note_on', channel=0, note=61, velocity=95, time=0),
    Message('note_on', channel=0, note=56, velocity=95, time=0),
    Message('note_on', channel=0, note=49, velocity=95, time=0),
    Message('note_off', channel=0, note=61, velocity=80, time=240),
    Message('note_off', channel=0, note=56, velocity=80, time=0),
    Message('note_off', channel=0, note=49, velocity=80, time=0),
    Message('note_on', channel=0, note=61, velocity=95, time=0),
    Message('note_on', channel=0, note=56, velocity=95, time=0),
    Message('note_on', channel=0, note=49, velocity=95, time=0),
    Message('note_off', channel=0, note=61, velocity=80, time=240),
    Message('note_off', channel=0, note=56, velocity=80, time=0),
    Message('note_off', channel=0, note=49, velocity=80, time=0),
    Message('note_on', channel=0, note=56, velocity=95, time=0),
    Message('note_on', channel=0, note=51, velocity=95, time=0),
    Message('note_on', channel=0, note=44, velocity=95, time=0),
    Message('note_off', channel=0, note=56, velocity=80, time=480),
    Message('note_off', channel=0, note=51, velocity=80, time=0),
    Message('note_off', channel=0, note=44, velocity=80, time=0),
    Message('note_on', channel=0, note=56, velocity=95, time=0),
    Message('note_on', channel=0, note=51, velocity=95, time=0),
    Message('note_on', channel=0, note=44, velocity=95, time=0),
    Message('note_off', channel=0, note=56, velocity=80, time=480),
    Message('note_off', channel=0, note=51, velocity=80, time=0),
    Message('note_off', channel=0, note=44, velocity=80, time=0),
    Message('note_on', channel=0, note=56, velocity=95, time=0),
    Message('note_on', channel=0, note=51, velocity=95, time=0),
    Message('note_on', channel=0, note=44, velocity=95, time=0),
    Message('note_off', channel=0, note=56, velocity=80, time=480),
    Message('note_off', channel=0, note=51, velocity=80, time=0),
    Message('note_off', channel=0, note=44, velocity=80, time=0),
    Message('note_on', channel=0, note=56, velocity=95, time=0),
    Message('note_on', channel=0, note=51, velocity=95, time=0),
    Message('note_on', channel=0, note=44, velocity=95, time=0),
    Message('note_off', channel=0, note=56, velocity=80, time=240),
    Message('note_off', channel=0, note=51, velocity=80, time=0),
    Message('note_off', channel=0, note=44, velocity=80, time=0),
    Message('note_on', channel=0, note=56, velocity=95, time=0),
    Message('note_on', channel=0, note=51, velocity=95, time=0),
    Message('note_on', channel=0, note=44, velocity=95, time=0),
    Message('note_off', channel=0, note=56, velocity=80, time=240),
    Message('note_off', channel=0, note=51, velocity=80, time=0),
    Message('note_off', channel=0, note=44, velocity=80, time=0),
    Message('note_on', channel=0, note=63, velocity=95, time=0),
    Message('note_on', channel=0, note=58, velocity=95, time=0),
    Message('note_on', channel=0, note=51, velocity=95, time=0),
    Message('note_off', channel=0, note=63, velocity=80, time=480),
    Message('note_off', channel=0, note=58, velocity=80, time=0),
    Message('note_off', channel=0, note=51, velocity=80, time=0),
    Message('note_on', channel=0, note=63, velocity=95, time=0),
    Message('note_on', channel=0, note=58, velocity=95, time=0),
    Message('note_on', channel=0, note=51, velocity=95, time=0),
    Message('note_off', channel=0, note=63, velocity=80, time=480),
    Message('note_off', channel=0, note=58, velocity=80, time=0),
    Message('note_off', channel=0, note=51, velocity=80, time=0),
    Message('note_on', channel=0, note=63, velocity=95, time=0),
    Message('note_on', channel=0, note=58, velocity=95, time=0),
    Message('note_on', channel=0, note=51, velocity=95, time=0),
    Message('note_off', channel=0, note=63, velocity=80, time=480),
    Message('note_off', channel=0, note=58, velocity=80, time=0),
    Message('note_off', channel=0, note=51, velocity=80, time=0),
    Message('note_on', channel=0, note=63, velocity=95, time=0),
    Message('note_on', channel=0, note=58, velocity=95, time=0),
    Message('note_on', channel=0, note=51, velocity=95, time=0),
    Message('note_off', channel=0, note=63, velocity=80, time=240),
    Message('note_off', channel=0, note=58, velocity=80, time=0),
    Message('note_off', channel=0, note=51, velocity=80, time=0),
    Message('note_on', channel=0, note=63, velocity=95, time=0),
    Message('note_on', channel=0, note=58, velocity=95, time=0),
    Message('note_on', channel=0, note=51, velocity=95, time=0),
    Message('note_off', channel=0, note=63, velocity=80, time=240),
    Message('note_off', channel=0, note=58, velocity=80, time=0),
    Message('note_off', channel=0, note=51, velocity=80, time=0),
    Message('note_on', channel=0, note=53, velocity=95, time=0),
    Message('note_on', channel=0, note=48, velocity=95, time=0),
    Message('note_on', channel=0, note=41, velocity=95, time=0),
    Message('note_off', channel=0, note=53, velocity=80, time=480),
    Message('note_off', channel=0, note=48, velocity=80, time=0),
    Message('note_off', channel=0, note=41, velocity=80, time=0),
    Message('note_on', channel=0, note=53, velocity=95, time=0),
    Message('note_on', channel=0, note=48, velocity=95, time=0),
    Message('note_on', channel=0, note=41, velocity=95, time=0),
    Message('note_off', channel=0, note=53, velocity=80, time=480),
    Message('note_off', channel=0, note=48, velocity=80, time=0),
    Message('note_off', channel=0, note=41, velocity=80, time=0),
    Message('note_on', channel=0, note=53, velocity=95, time=0),
    Message('note_on', channel=0, note=48, velocity=95, time=0),
    Message('note_on', channel=0, note=41, velocity=95, time=0),
    Message('note_off', channel=0, note=53, velocity=80, time=480),
    Message('note_off', channel=0, note=48, velocity=80, time=0),
    Message('note_off', channel=0, note=41, velocity=80, time=0),
    Message('note_on', channel=0, note=53, velocity=95, time=0),
    Message('note_on', channel=0, note=48, velocity=95, time=0),
    Message('note_on', channel=0, note=41, velocity=95, time=0),
    Message('note_off', channel=0, note=53, velocity=80, time=240),
    Message('note_off', channel=0, note=48, velocity=80, time=0),
    Message('note_off', channel=0, note=41, velocity=80, time=0),
    Message('note_on', channel=0, note=53, velocity=95, time=0),
    Message('note_on', channel=0, note=48, velocity=95, time=0),
    Message('note_on', channel=0, note=41, velocity=95, time=0),
    Message('note_off', channel=0, note=53, velocity=80, time=240),
    Message('note_off', channel=0, note=48, velocity=80, time=0),
    Message('note_off', channel=0, note=41, velocity=80, time=0),
    Message('note_on', channel=0, note=61, velocity=95, time=0),
    Message('note_on', channel=0, note=56, velocity=95, time=0),
    Message('note_on', channel=0, note=49, velocity=95, time=0),
    Message('note_off', channel=0, note=61, velocity=80, time=480),
    Message('note_off', channel=0, note=56, velocity=80, time=0),
    Message('note_off', channel=0, note=49, velocity=80, time=0),
    Message('note_on', channel=0, note=61, velocity=95, time=0),
    Message('note_on', channel=0, note=56, velocity=95, time=0),
    Message('note_on', channel=0, note=49, velocity=95, time=0),
    Message('note_off', channel=0, note=61, velocity=80, time=480),
    Message('note_off', channel=0, note=56, velocity=80, time=0),
    Message('note_off', channel=0, note=49, velocity=80, time=0),
    Message('note_on', channel=0, note=56, velocity=95, time=960),
    Message('note_on', channel=0, note=51, velocity=95, time=0),
    Message('note_on', channel=0, note=44, velocity=95, time=0),
    Message('note_off', channel=0, note=56, velocity=80, time=480),
    Message('note_off', channel=0, note=51, velocity=80, time=0),
    Message('note_off', channel=0, note=44, velocity=80, time=0),
    Message('note_on', channel=0, note=56, velocity=95, time=0),
    Message('note_on', channel=0, note=51, velocity=95, time=0),
    Message('note_on', channel=0, note=44, velocity=95, time=0),
    Message('note_off', channel=0, note=56, velocity=80, time=480),
    Message('note_off', channel=0, note=51, velocity=80, time=0),
    Message('note_off', channel=0, note=44, velocity=80, time=0),
    Message('note_on', channel=0, note=63, velocity=95, time=960),
    Message('note_on', channel=0, note=58, velocity=95, time=0),
    Message('note_on', channel=0, note=51, velocity=95, time=0),
    Message('note_off', channel=0, note=63, velocity=80, time=480),
    Message('note_off', channel=0, note=58, velocity=80, time=0),
    Message('note_off', channel=0, note=51, velocity=80, time=0),
    Message('note_on', channel=0, note=63, velocity=95, time=0),
    Message('note_on', channel=0, note=58, velocity=95, time=0),
    Message('note_on', channel=0, note=51, velocity=95, time=0),
    Message('note_off', channel=0, note=63, velocity=80, time=480),
    Message('note_off', channel=0, note=58, velocity=80, time=0),
    Message('note_off', channel=0, note=51, velocity=80, time=0),
    Message('note_on', channel=0, note=63, velocity=95, time=0),
    Message('note_on', channel=0, note=58, velocity=95, time=0),
    Message('note_on', channel=0, note=51, velocity=95, time=0),
    Message('note_off', channel=0, note=63, velocity=80, time=480),
    Message('note_off', channel=0, note=58, velocity=80, time=0),
    Message('note_off', channel=0, note=51, velocity=80, time=0),
    Message('note_on', channel=0, note=63, velocity=95, time=0),
    Message('note_on', channel=0, note=58, velocity=95, time=0),
    Message('note_on', channel=0, note=51, velocity=95, time=0),
    Message('note_off', channel=0, note=63, velocity=80, time=240),
    Message('note_off', channel=0, note=58, velocity=80, time=0),
    Message('note_off', channel=0, note=51, velocity=80, time=0),
    Message('note_on', channel=0, note=63, velocity=95, time=0),
    Message('note_on', channel=0, note=58, velocity=95, time=0),
    Message('note_on', channel=0, note=51, velocity=95, time=0),
    Message('note_off', channel=0, note=63, velocity=80, time=240),
    Message('note_off', channel=0, note=58, velocity=80, time=0),
    Message('note_off', channel=0, note=51, velocity=80, time=0),
    Message('note_on', channel=0, note=53, velocity=95, time=0),
    Message('note_on', channel=0, note=48, velocity=95, time=0),
    Message('note_on', channel=0, note=41, velocity=95, time=0),
    Message('note_off', channel=0, note=53, velocity=80, time=480),
    Message('note_off', channel=0, note=48, velocity=80, time=0),
    Message('note_off', channel=0, note=41, velocity=80, time=0),
    Message('note_on', channel=0, note=53, velocity=95, time=0),
    Message('note_on', channel=0, note=48, velocity=95, time=0),
    Message('note_on', channel=0, note=41, velocity=95, time=0),
    Message('note_off', channel=0, note=53, velocity=80, time=480),
    Message('note_off', channel=0, note=48, velocity=80, time=0),
    Message('note_off', channel=0, note=41, velocity=80, time=0),
    Message('note_on', channel=0, note=53, velocity=95, time=0),
    Message('note_on', channel=0, note=48, velocity=95, time=0),
    Message('note_on', channel=0, note=41, velocity=95, time=0),
    Message('note_off', channel=0, note=53, velocity=80, time=480),
    Message('note_off', channel=0, note=48, velocity=80, time=0),
    Message('note_off', channel=0, note=41, velocity=80, time=0),
    Message('note_on', channel=0, note=53, velocity=95, time=0),
    Message('note_on', channel=0, note=48, velocity=95, time=0),
    Message('note_on', channel=0, note=41, velocity=95, time=0),
    Message('note_off', channel=0, note=53, velocity=80, time=240),
    Message('note_off', channel=0, note=48, velocity=80, time=0),
    Message('note_off', channel=0, note=41, velocity=80, time=0),
    Message('note_on', channel=0, note=53, velocity=95, time=0),
    Message('note_on', channel=0, note=48, velocity=95, time=0),
    Message('note_on', channel=0, note=41, velocity=95, time=0),
    Message('note_off', channel=0, note=53, velocity=80, time=240),
    Message('note_off', channel=0, note=48, velocity=80, time=0),
    Message('note_off', channel=0, note=41, velocity=80, time=0),
    Message('program_change', channel=0, program=29, time=0),
    Message('program_change', channel=1, program=29, time=0),
    Message('control_change', channel=0, control=7, value=104, time=0),
    Message('control_change', channel=1, control=7, value=104, time=0),
    Message('note_on', channel=0, note=61, velocity=95, time=0),
    Message('note_on', channel=0, note=56, velocity=95, time=0),
    Message('note_on', channel=0, note=49, velocity=95, time=0),
    Message('note_off', channel=0, note=61, velocity=80, time=480),
    Message('note_off', channel=0, note=56, velocity=80, time=0),
    Message('note_off', channel=0, note=49, velocity=80, time=0),
    Message('note_on', channel=0, note=61, velocity=95, time=0),
    Message('note_on', channel=0, note=56, velocity=95, time=0),
    Message('note_on', channel=0, note=49, velocity=95, time=0),
    Message('note_off', channel=0, note=61, velocity=80, time=480),
    Message('note_off', channel=0, note=56, velocity=80, time=0),
    Message('note_off', channel=0, note=49, velocity=80, time=0),
    Message('note_on', channel=0, note=56, velocity=95, time=960),
    Message('note_on', channel=0, note=51, velocity=95, time=0),
    Message('note_on', channel=0, note=44, velocity=95, time=0),
    Message('note_off', channel=0, note=56, velocity=80, time=480),
    Message('note_off', channel=0, note=51, velocity=80, time=0),
    Message('note_off', channel=0, note=44, velocity=80, time=0),
    Message('note_on', channel=0, note=56, velocity=95, time=0),
    Message('note_on', channel=0, note=51, velocity=95, time=0),
    Message('note_on', channel=0, note=44, velocity=95, time=0),
    Message('note_off', channel=0, note=56, velocity=80, time=480),
    Message('note_off', channel=0, note=51, velocity=80, time=0),
    Message('note_off', channel=0, note=44, velocity=80, time=0),
    Message('note_on', channel=1, note=55, velocity=95, time=480),
    Message('pitchwheel', channel=1, pitch=-640, time=240),
    Message('pitchwheel', channel=1, pitch=-1408, time=40),
    Message('pitchwheel', channel=1, pitch=-2048, time=40),
    Message('pitchwheel', channel=1, pitch=-2688, time=40),
    Message('pitchwheel', channel=1, pitch=-3456, time=40),
    Message('pitchwheel', channel=1, pitch=-4096, time=40),
    Message('note_off', channel=1, note=55, velocity=80, time=40),
    Message('pitchwheel', channel=1, pitch=0, time=0),
    Message('note_on', channel=0, note=60, velocity=95, time=0),
    Message('note_on', channel=0, note=55, velocity=95, time=0),
    Message('note_on', channel=0, note=48, velocity=86, time=0),
    Message('note_off', channel=0, note=60, velocity=80, time=480),
    Message('note_off', channel=0, note=55, velocity=80, time=0),
    Message('note_off', channel=0, note=48, velocity=80, time=0),
    Message('note_on', channel=0, note=60, velocity=95, time=0),
    Message('note_on', channel=0, note=55, velocity=95, time=0),
    Message('note_on', channel=0, note=48, velocity=95, time=0),
    Message('note_off', channel=0, note=60, velocity=80, time=480),
    Message('note_off', channel=0, note=55, velocity=80, time=0),
    Message('note_off', channel=0, note=48, velocity=80, time=0),
    Message('note_on', channel=0, note=60, velocity=95, time=0),
    Message('note_on', channel=0, note=55, velocity=95, time=0),
    Message('note_on', channel=0, note=48, velocity=95, time=0),
    Message('note_off', channel=0, note=60, velocity=80, time=480),
    Message('note_off', channel=0, note=55, velocity=80, time=0),
    Message('note_off', channel=0, note=48, velocity=80, time=0),
    Message('note_on', channel=0, note=60, velocity=95, time=0),
    Message('note_on', channel=0, note=55, velocity=95, time=0),
    Message('note_on', channel=0, note=48, velocity=95, time=0),
    Message('note_off', channel=0, note=60, velocity=80, time=480),
    Message('note_off', channel=0, note=55, velocity=80, time=0),
    Message('note_off', channel=0, note=48, velocity=80, time=0),
    Message('note_on', channel=0, note=60, velocity=95, time=0),
    Message('note_on', channel=0, note=55, velocity=95, time=0),
    Message('note_on', channel=0, note=48, velocity=95, time=0),
    Message('note_off', channel=0, note=60, velocity=80, time=480),
    Message('note_off', channel=0, note=55, velocity=80, time=0),
    Message('note_off', channel=0, note=48, velocity=80, time=0),
    Message('note_on', channel=0, note=60, velocity=95, time=0),
    Message('note_on', channel=0, note=55, velocity=95, time=0),
    Message('note_on', channel=0, note=48, velocity=95, time=0),
    Message('note_off', channel=0, note=60, velocity=80, time=480),
    Message('note_off', channel=0, note=55, velocity=80, time=0),
    Message('note_off', channel=0, note=48, velocity=80, time=0),
    Message('note_on', channel=0, note=60, velocity=95, time=0),
    Message('note_on', channel=0, note=55, velocity=95, time=0),
    Message('note_on', channel=0, note=48, velocity=95, time=0),
    Message('note_off', channel=0, note=60, velocity=80, time=480),
    Message('note_off', channel=0, note=55, velocity=80, time=0),
    Message('note_off', channel=0, note=48, velocity=80, time=0),
    Message('note_on', channel=0, note=60, velocity=95, time=0),
    Message('note_on', channel=0, note=55, velocity=95, time=0),
    Message('note_on', channel=0, note=48, velocity=95, time=0),
    Message('note_off', channel=0, note=60, velocity=80, time=480),
    Message('note_off', channel=0, note=55, velocity=80, time=0),
    Message('note_off', channel=0, note=48, velocity=80, time=0),
    Message('note_on', channel=0, note=60, velocity=95, time=0),
    Message('note_on', channel=0, note=55, velocity=95, time=0),
    Message('note_on', channel=0, note=48, velocity=95, time=0),
    Message('note_off', channel=0, note=60, velocity=80, time=480),
    Message('note_off', channel=0, note=55, velocity=80, time=0),
    Message('note_off', channel=0, note=48, velocity=80, time=0),
    Message('note_on', channel=0, note=60, velocity=95, time=0),
    Message('note_on', channel=0, note=55, velocity=95, time=0),
    Message('note_on', channel=0, note=48, velocity=95, time=0),
    Message('note_off', channel=0, note=60, velocity=80, time=480),
    Message('note_off', channel=0, note=55, velocity=80, time=0),
    Message('note_off', channel=0, note=48, velocity=80, time=0),
    Message('note_on', channel=0, note=60, velocity=95, time=0),
    Message('note_on', channel=0, note=55, velocity=95, time=0),
    Message('note_on', channel=0, note=48, velocity=95, time=0),
    Message('note_off', channel=0, note=60, velocity=80, time=480),
    Message('note_off', channel=0, note=55, velocity=80, time=0),
    Message('note_off', channel=0, note=48, velocity=80, time=0),
    Message('note_on', channel=0, note=60, velocity=95, time=0),
    Message('note_on', channel=0, note=55, velocity=95, time=0),
    Message('note_on', channel=0, note=48, velocity=95, time=0),
    Message('note_off', channel=0, note=60, velocity=80, time=480),
    Message('note_off', channel=0, note=55, velocity=80, time=0),
    Message('note_off', channel=0, note=48, velocity=80, time=0),
    Message('note_on', channel=0, note=60, velocity=95, time=0),
    Message('note_on', channel=0, note=55, velocity=95, time=0),
    Message('note_on', channel=0, note=48, velocity=95, time=0),
    Message('note_off', channel=0, note=60, velocity=80, time=480),
    Message('note_off', channel=0, note=55, velocity=80, time=0),
    Message('note_off', channel=0, note=48, velocity=80, time=0),
    Message('program_change', channel=0, program=29, time=15360),
    Message('program_change', channel=1, program=29, time=0),
    Message('control_change', channel=0, control=7, value=104, time=0),
    Message('control_change', channel=1, control=7, value=104, time=0),
    Message('note_on', channel=0, note=58, velocity=95, time=0),
    Message('note_on', channel=0, note=53, velocity=95, time=0),
    Message('note_on', channel=0, note=46, velocity=95, time=0),
    Message('note_off', channel=0, note=58, velocity=80, time=480),
    Message('note_off', channel=0, note=53, velocity=80, time=0),
    Message('note_off', channel=0, note=46, velocity=80, time=0),
    Message('note_on', channel=0, note=58, velocity=95, time=0),
    Message('note_on', channel=0, note=53, velocity=95, time=0),
    Message('note_on', channel=0, note=46, velocity=95, time=0),
    Message('note_off', channel=0, note=58, velocity=80, time=480),
    Message('note_off', channel=0, note=53, velocity=80, time=0),
    Message('note_off', channel=0, note=46, velocity=80, time=0),
    Message('note_on', channel=0, note=60, velocity=95, time=0),
    Message('note_on', channel=0, note=55, velocity=95, time=0),
    Message('note_on', channel=0, note=48, velocity=95, time=0),
    Message('note_off', channel=0, note=60, velocity=80, time=480),
    Message('note_off', channel=0, note=55, velocity=80, time=0),
    Message('note_off', channel=0, note=48, velocity=80, time=0),
    Message('program_change', channel=0, program=29, time=0),
    Message('program_change', channel=1, program=29, time=0),
    Message('control_change', channel=0, control=7, value=104, time=0),
    Message('control_change', channel=1, control=7, value=104, time=0),
    Message('note_on', channel=0, note=61, velocity=95, time=0),
    Message('note_on', channel=0, note=56, velocity=95, time=0),
    Message('note_on', channel=0, note=49, velocity=95, time=0),
    Message('note_off', channel=0, note=61, velocity=80, time=480),
    Message('note_off', channel=0, note=56, velocity=80, time=0),
    Message('note_off', channel=0, note=49, velocity=80, time=0),
    Message('note_on', channel=0, note=61, velocity=95, time=0),
    Message('note_on', channel=0, note=56, velocity=95, time=0),
    Message('note_on', channel=0, note=49, velocity=95, time=0),
    Message('note_off', channel=0, note=61, velocity=80, time=480),
    Message('note_off', channel=0, note=56, velocity=80, time=0),
    Message('note_off', channel=0, note=49, velocity=80, time=0),
    Message('note_on', channel=0, note=61, velocity=95, time=0),
    Message('note_on', channel=0, note=56, velocity=95, time=0),
    Message('note_on', channel=0, note=49, velocity=95, time=0),
    Message('note_off', channel=0, note=61, velocity=80, time=480),
    Message('note_off', channel=0, note=56, velocity=80, time=0),
    Message('note_off', channel=0, note=49, velocity=80, time=0),
    Message('note_on', channel=0, note=61, velocity=95, time=0),
    Message('note_on', channel=0, note=56, velocity=95, time=0),
    Message('note_on', channel=0, note=49, velocity=95, time=0),
    Message('note_off', channel=0, note=61, velocity=80, time=240),
    Message('note_off', channel=0, note=56, velocity=80, time=0),
    Message('note_off', channel=0, note=49, velocity=80, time=0),
    Message('note_on', channel=0, note=61, velocity=95, time=0),
    Message('note_on', channel=0, note=56, velocity=95, time=0),
    Message('note_on', channel=0, note=49, velocity=95, time=0),
    Message('note_off', channel=0, note=61, velocity=80, time=240),
    Message('note_off', channel=0, note=56, velocity=80, time=0),
    Message('note_off', channel=0, note=49, velocity=80, time=0),
    Message('note_on', channel=0, note=56, velocity=95, time=0),
    Message('note_on', channel=0, note=51, velocity=95, time=0),
    Message('note_on', channel=0, note=44, velocity=95, time=0),
    Message('note_off', channel=0, note=56, velocity=80, time=480),
    Message('note_off', channel=0, note=51, velocity=80, time=0),
    Message('note_off', channel=0, note=44, velocity=80, time=0),
    Message('note_on', channel=0, note=56, velocity=95, time=0),
    Message('note_on', channel=0, note=51, velocity=95, time=0),
    Message('note_on', channel=0, note=44, velocity=95, time=0),
    Message('note_off', channel=0, note=56, velocity=80, time=480),
    Message('note_off', channel=0, note=51, velocity=80, time=0),
    Message('note_off', channel=0, note=44, velocity=80, time=0),
    Message('note_on', channel=0, note=56, velocity=95, time=0),
    Message('note_on', channel=0, note=51, velocity=95, time=0),
    Message('note_on', channel=0, note=44, velocity=95, time=0),
    Message('note_off', channel=0, note=56, velocity=80, time=480),
    Message('note_off', channel=0, note=51, velocity=80, time=0),
    Message('note_off', channel=0, note=44, velocity=80, time=0),
    Message('note_on', channel=0, note=56, velocity=95, time=0),
    Message('note_on', channel=0, note=51, velocity=95, time=0),
    Message('note_on', channel=0, note=44, velocity=95, time=0),
    Message('note_off', channel=0, note=56, velocity=80, time=240),
    Message('note_off', channel=0, note=51, velocity=80, time=0),
    Message('note_off', channel=0, note=44, velocity=80, time=0),
    Message('note_on', channel=0, note=56, velocity=95, time=0),
    Message('note_on', channel=0, note=51, velocity=95, time=0),
    Message('note_on', channel=0, note=44, velocity=95, time=0),
    Message('note_off', channel=0, note=56, velocity=80, time=240),
    Message('note_off', channel=0, note=51, velocity=80, time=0),
    Message('note_off', channel=0, note=44, velocity=80, time=0),
    Message('note_on', channel=0, note=63, velocity=95, time=0),
    Message('note_on', channel=0, note=58, velocity=95, time=0),
    Message('note_on', channel=0, note=51, velocity=95, time=0),
    Message('note_off', channel=0, note=63, velocity=80, time=480),
    Message('note_off', channel=0, note=58, velocity=80, time=0),
    Message('note_off', channel=0, note=51, velocity=80, time=0),
    Message('note_on', channel=0, note=63, velocity=95, time=0),
    Message('note_on', channel=0, note=58, velocity=95, time=0),
    Message('note_on', channel=0, note=51, velocity=95, time=0),
    Message('note_off', channel=0, note=63, velocity=80, time=480),
    Message('note_off', channel=0, note=58, velocity=80, time=0),
    Message('note_off', channel=0, note=51, velocity=80, time=0),
    Message('note_on', channel=0, note=63, velocity=95, time=0),
    Message('note_on', channel=0, note=58, velocity=95, time=0),
    Message('note_on', channel=0, note=51, velocity=95, time=0),
    Message('note_off', channel=0, note=63, velocity=80, time=480),
    Message('note_off', channel=0, note=58, velocity=80, time=0),
    Message('note_off', channel=0, note=51, velocity=80, time=0),
    Message('note_on', channel=0, note=63, velocity=95, time=0),
    Message('note_on', channel=0, note=58, velocity=95, time=0),
    Message('note_on', channel=0, note=51, velocity=95, time=0),
    Message('note_off', channel=0, note=63, velocity=80, time=240),
    Message('note_off', channel=0, note=58, velocity=80, time=0),
    Message('note_off', channel=0, note=51, velocity=80, time=0),
    Message('note_on', channel=0, note=63, velocity=95, time=0),
    Message('note_on', channel=0, note=58, velocity=95, time=0),
    Message('note_on', channel=0, note=51, velocity=95, time=0),
    Message('note_off', channel=0, note=63, velocity=80, time=240),
    Message('note_off', channel=0, note=58, velocity=80, time=0),
    Message('note_off', channel=0, note=51, velocity=80, time=0),
    Message('note_on', channel=0, note=53, velocity=95, time=0),
    Message('note_on', channel=0, note=48, velocity=95, time=0),
    Message('note_on', channel=0, note=41, velocity=95, time=0),
    Message('note_off', channel=0, note=53, velocity=80, time=480),
    Message('note_off', channel=0, note=48, velocity=80, time=0),
    Message('note_off', channel=0, note=41, velocity=80, time=0),
    Message('note_on', channel=0, note=53, velocity=95, time=0),
    Message('note_on', channel=0, note=48, velocity=95, time=0),
    Message('note_on', channel=0, note=41, velocity=95, time=0),
    Message('note_off', channel=0, note=53, velocity=80, time=480),
    Message('note_off', channel=0, note=48, velocity=80, time=0),
    Message('note_off', channel=0, note=41, velocity=80, time=0),
    Message('note_on', channel=0, note=53, velocity=95, time=0),
    Message('note_on', channel=0, note=48, velocity=95, time=0),
    Message('note_on', channel=0, note=41, velocity=95, time=0),
    Message('note_off', channel=0, note=53, velocity=80, time=480),
    Message('note_off', channel=0, note=48, velocity=80, time=0),
    Message('note_off', channel=0, note=41, velocity=80, time=0),
    Message('note_on', channel=0, note=53, velocity=95, time=0),
    Message('note_on', channel=0, note=48, velocity=95, time=0),
    Message('note_on', channel=0, note=41, velocity=95, time=0),
    Message('note_off', channel=0, note=53, velocity=80, time=240),
    Message('note_off', channel=0, note=48, velocity=80, time=0),
    Message('note_off', channel=0, note=41, velocity=80, time=0),
    Message('note_on', channel=0, note=53, velocity=95, time=0),
    Message('note_on', channel=0, note=48, velocity=95, time=0),
    Message('note_on', channel=0, note=41, velocity=95, time=0),
    Message('note_off', channel=0, note=53, velocity=80, time=240),
    Message('note_off', channel=0, note=48, velocity=80, time=0),
    Message('note_off', channel=0, note=41, velocity=80, time=0),
    Message('program_change', channel=0, program=29, time=0),
    Message('program_change', channel=1, program=29, time=0),
    Message('control_change', channel=0, control=7, value=104, time=0),
    Message('control_change', channel=1, control=7, value=104, time=0),
    Message('note_on', channel=0, note=61, velocity=95, time=0),
    Message('note_on', channel=0, note=56, velocity=95, time=0),
    Message('note_on', channel=0, note=49, velocity=95, time=0),
    Message('note_off', channel=0, note=61, velocity=80, time=480),
    Message('note_off', channel=0, note=56, velocity=80, time=0),
    Message('note_off', channel=0, note=49, velocity=80, time=0),
    Message('note_on', channel=0, note=61, velocity=95, time=0),
    Message('note_on', channel=0, note=56, velocity=95, time=0),
    Message('note_on', channel=0, note=49, velocity=95, time=0),
    Message('note_off', channel=0, note=61, velocity=80, time=480),
    Message('note_off', channel=0, note=56, velocity=80, time=0),
    Message('note_off', channel=0, note=49, velocity=80, time=0),
    Message('note_on', channel=0, note=61, velocity=95, time=0),
    Message('note_on', channel=0, note=56, velocity=95, time=0),
    Message('note_on', channel=0, note=49, velocity=95, time=0),
    Message('note_off', channel=0, note=61, velocity=80, time=480),
    Message('note_off', channel=0, note=56, velocity=80, time=0),
    Message('note_off', channel=0, note=49, velocity=80, time=0),
    Message('note_on', channel=0, note=61, velocity=95, time=0),
    Message('note_on', channel=0, note=56, velocity=95, time=0),
    Message('note_on', channel=0, note=49, velocity=95, time=0),
    Message('note_off', channel=0, note=61, velocity=80, time=240),
    Message('note_off', channel=0, note=56, velocity=80, time=0),
    Message('note_off', channel=0, note=49, velocity=80, time=0),
    Message('note_on', channel=0, note=61, velocity=95, time=0),
    Message('note_on', channel=0, note=56, velocity=95, time=0),
    Message('note_on', channel=0, note=49, velocity=95, time=0),
    Message('note_off', channel=0, note=61, velocity=80, time=240),
    Message('note_off', channel=0, note=56, velocity=80, time=0),
    Message('note_off', channel=0, note=49, velocity=80, time=0),
    Message('note_on', channel=0, note=56, velocity=95, time=0),
    Message('note_on', channel=0, note=51, velocity=95, time=0),
    Message('note_on', channel=0, note=44, velocity=95, time=0),
    Message('note_off', channel=0, note=56, velocity=80, time=480),
    Message('note_off', channel=0, note=51, velocity=80, time=0),
    Message('note_off', channel=0, note=44, velocity=80, time=0),
    Message('note_on', channel=0, note=56, velocity=95, time=0),
    Message('note_on', channel=0, note=51, velocity=95, time=0),
    Message('note_on', channel=0, note=44, velocity=95, time=0),
    Message('note_off', channel=0, note=56, velocity=80, time=480),
    Message('note_off', channel=0, note=51, velocity=80, time=0),
    Message('note_off', channel=0, note=44, velocity=80, time=0),
    Message('note_on', channel=0, note=56, velocity=95, time=0),
    Message('note_on', channel=0, note=51, velocity=95, time=0),
    Message('note_on', channel=0, note=44, velocity=95, time=0),
    Message('note_off', channel=0, note=56, velocity=80, time=480),
    Message('note_off', channel=0, note=51, velocity=80, time=0),
    Message('note_off', channel=0, note=44, velocity=80, time=0),
    Message('note_on', channel=0, note=56, velocity=95, time=0),
    Message('note_on', channel=0, note=51, velocity=95, time=0),
    Message('note_on', channel=0, note=44, velocity=95, time=0),
    Message('note_off', channel=0, note=56, velocity=80, time=240),
    Message('note_off', channel=0, note=51, velocity=80, time=0),
    Message('note_off', channel=0, note=44, velocity=80, time=0),
    Message('note_on', channel=0, note=56, velocity=95, time=0),
    Message('note_on', channel=0, note=51, velocity=95, time=0),
    Message('note_on', channel=0, note=44, velocity=95, time=0),
    Message('note_off', channel=0, note=56, velocity=80, time=240),
    Message('note_off', channel=0, note=51, velocity=80, time=0),
    Message('note_off', channel=0, note=44, velocity=80, time=0),
    Message('note_on', channel=0, note=63, velocity=95, time=0),
    Message('note_on', channel=0, note=58, velocity=95, time=0),
    Message('note_on', channel=0, note=51, velocity=95, time=0),
    Message('note_off', channel=0, note=63, velocity=80, time=480),
    Message('note_off', channel=0, note=58, velocity=80, time=0),
    Message('note_off', channel=0, note=51, velocity=80, time=0),
    Message('note_on', channel=0, note=63, velocity=95, time=0),
    Message('note_on', channel=0, note=58, velocity=95, time=0),
    Message('note_on', channel=0, note=51, velocity=95, time=0),
    Message('note_off', channel=0, note=63, velocity=80, time=480),
    Message('note_off', channel=0, note=58, velocity=80, time=0),
    Message('note_off', channel=0, note=51, velocity=80, time=0),
    Message('note_on', channel=0, note=63, velocity=95, time=0),
    Message('note_on', channel=0, note=58, velocity=95, time=0),
    Message('note_on', channel=0, note=51, velocity=95, time=0),
    Message('note_off', channel=0, note=63, velocity=80, time=480),
    Message('note_off', channel=0, note=58, velocity=80, time=0),
    Message('note_off', channel=0, note=51, velocity=80, time=0),
    Message('note_on', channel=0, note=63, velocity=95, time=0),
    Message('note_on', channel=0, note=58, velocity=95, time=0),
    Message('note_on', channel=0, note=51, velocity=95, time=0),
    Message('note_off', channel=0, note=63, velocity=80, time=240),
    Message('note_off', channel=0, note=58, velocity=80, time=0),
    Message('note_off', channel=0, note=51, velocity=80, time=0),
    Message('note_on', channel=0, note=63, velocity=95, time=0),
    Message('note_on', channel=0, note=58, velocity=95, time=0),
    Message('note_on', channel=0, note=51, velocity=95, time=0),
    Message('note_off', channel=0, note=63, velocity=80, time=240),
    Message('note_off', channel=0, note=58, velocity=80, time=0),
    Message('note_off', channel=0, note=51, velocity=80, time=0),
    Message('note_on', channel=0, note=53, velocity=95, time=0),
    Message('note_on', channel=0, note=48, velocity=95, time=0),
    Message('note_on', channel=0, note=41, velocity=95, time=0),
    Message('note_off', channel=0, note=53, velocity=80, time=480),
    Message('note_off', channel=0, note=48, velocity=80, time=0),
    Message('note_off', channel=0, note=41, velocity=80, time=0),
    Message('note_on', channel=0, note=53, velocity=95, time=0),
    Message('note_on', channel=0, note=48, velocity=95, time=0),
    Message('note_on', channel=0, note=41, velocity=95, time=0),
    Message('note_off', channel=0, note=53, velocity=80, time=480),
    Message('note_off', channel=0, note=48, velocity=80, time=0),
    Message('note_off', channel=0, note=41, velocity=80, time=0),
    Message('note_on', channel=0, note=53, velocity=95, time=0),
    Message('note_on', channel=0, note=48, velocity=95, time=0),
    Message('note_on', channel=0, note=41, velocity=95, time=0),
    Message('note_off', channel=0, note=53, velocity=80, time=480),
    Message('note_off', channel=0, note=48, velocity=80, time=0),
    Message('note_off', channel=0, note=41, velocity=80, time=0),
    Message('note_on', channel=0, note=53, velocity=95, time=0),
    Message('note_on', channel=0, note=48, velocity=95, time=0),
    Message('note_on', channel=0, note=41, velocity=95, time=0),
    Message('note_off', channel=0, note=53, velocity=80, time=240),
    Message('note_off', channel=0, note=48, velocity=80, time=0),
    Message('note_off', channel=0, note=41, velocity=80, time=0),
    Message('note_on', channel=0, note=53, velocity=95, time=0),
    Message('note_on', channel=0, note=48, velocity=95, time=0),
    Message('note_on', channel=0, note=41, velocity=95, time=0),
    Message('note_off', channel=0, note=53, velocity=80, time=240),
    Message('note_off', channel=0, note=48, velocity=80, time=0),
    Message('note_off', channel=0, note=41, velocity=80, time=0),
    Message('program_change', channel=0, program=29, time=0),
    Message('program_change', channel=1, program=29, time=0),
    Message('control_change', channel=0, control=7, value=104, time=0),
    Message('control_change', channel=1, control=7, value=104, time=0),
    Message('note_on', channel=0, note=61, velocity=95, time=0),
    Message('note_on', channel=0, note=56, velocity=95, time=0),
    Message('note_on', channel=0, note=49, velocity=95, time=0),
    Message('note_off', channel=0, note=61, velocity=80, time=480),
    Message('note_off', channel=0, note=56, velocity=80, time=0),
    Message('note_off', channel=0, note=49, velocity=80, time=0),
    Message('note_on', channel=0, note=61, velocity=95, time=0),
    Message('note_on', channel=0, note=56, velocity=95, time=0),
    Message('note_on', channel=0, note=49, velocity=95, time=0),
    Message('note_off', channel=0, note=61, velocity=80, time=480),
    Message('note_off', channel=0, note=56, velocity=80, time=0),
    Message('note_off', channel=0, note=49, velocity=80, time=0),
    Message('note_on', channel=0, note=61, velocity=95, time=0),
    Message('note_on', channel=0, note=56, velocity=95, time=0),
    Message('note_on', channel=0, note=49, velocity=95, time=0),
    Message('note_off', channel=0, note=61, velocity=80, time=480),
    Message('note_off', channel=0, note=56, velocity=80, time=0),
    Message('note_off', channel=0, note=49, velocity=80, time=0),
    Message('note_on', channel=0, note=61, velocity=95, time=0),
    Message('note_on', channel=0, note=56, velocity=95, time=0),
    Message('note_on', channel=0, note=49, velocity=95, time=0),
    Message('note_off', channel=0, note=61, velocity=80, time=240),
    Message('note_off', channel=0, note=56, velocity=80, time=0),
    Message('note_off', channel=0, note=49, velocity=80, time=0),
    Message('note_on', channel=0, note=61, velocity=95, time=0),
    Message('note_on', channel=0, note=56, velocity=95, time=0),
    Message('note_on', channel=0, note=49, velocity=95, time=0),
    Message('note_off', channel=0, note=61, velocity=80, time=240),
    Message('note_off', channel=0, note=56, velocity=80, time=0),
    Message('note_off', channel=0, note=49, velocity=80, time=0),
    Message('note_on', channel=0, note=56, velocity=95, time=0),
    Message('note_on', channel=0, note=51, velocity=95, time=0),
    Message('note_on', channel=0, note=44, velocity=95, time=0),
    Message('note_off', channel=0, note=56, velocity=80, time=480),
    Message('note_off', channel=0, note=51, velocity=80, time=0),
    Message('note_off', channel=0, note=44, velocity=80, time=0),
    Message('note_on', channel=0, note=56, velocity=95, time=0),
    Message('note_on', channel=0, note=51, velocity=95, time=0),
    Message('note_on', channel=0, note=44, velocity=95, time=0),
    Message('note_off', channel=0, note=56, velocity=80, time=480),
    Message('note_off', channel=0, note=51, velocity=80, time=0),
    Message('note_off', channel=0, note=44, velocity=80, time=0),
    Message('note_on', channel=0, note=56, velocity=95, time=0),
    Message('note_on', channel=0, note=51, velocity=95, time=0),
    Message('note_on', channel=0, note=44, velocity=95, time=0),
    Message('note_off', channel=0, note=56, velocity=80, time=480),
    Message('note_off', channel=0, note=51, velocity=80, time=0),
    Message('note_off', channel=0, note=44, velocity=80, time=0),
    Message('note_on', channel=0, note=56, velocity=95, time=0),
    Message('note_on', channel=0, note=51, velocity=95, time=0),
    Message('note_on', channel=0, note=44, velocity=95, time=0),
    Message('note_off', channel=0, note=56, velocity=80, time=240),
    Message('note_off', channel=0, note=51, velocity=80, time=0),
    Message('note_off', channel=0, note=44, velocity=80, time=0),
    Message('note_on', channel=0, note=56, velocity=95, time=0),
    Message('note_on', channel=0, note=51, velocity=95, time=0),
    Message('note_on', channel=0, note=44, velocity=95, time=0),
    Message('note_off', channel=0, note=56, velocity=80, time=240),
    Message('note_off', channel=0, note=51, velocity=80, time=0),
    Message('note_off', channel=0, note=44, velocity=80, time=0),
    Message('note_on', channel=0, note=63, velocity=95, time=0),
    Message('note_on', channel=0, note=58, velocity=95, time=0),
    Message('note_on', channel=0, note=51, velocity=95, time=0),
    Message('note_off', channel=0, note=63, velocity=80, time=480),
    Message('note_off', channel=0, note=58, velocity=80, time=0),
    Message('note_off', channel=0, note=51, velocity=80, time=0),
    Message('note_on', channel=0, note=63, velocity=95, time=0),
    Message('note_on', channel=0, note=58, velocity=95, time=0),
    Message('note_on', channel=0, note=51, velocity=95, time=0),
    Message('note_off', channel=0, note=63, velocity=80, time=480),
    Message('note_off', channel=0, note=58, velocity=80, time=0),
    Message('note_off', channel=0, note=51, velocity=80, time=0),
    Message('note_on', channel=0, note=63, velocity=95, time=0),
    Message('note_on', channel=0, note=58, velocity=95, time=0),
    Message('note_on', channel=0, note=51, velocity=95, time=0),
    Message('note_off', channel=0, note=63, velocity=80, time=480),
    Message('note_off', channel=0, note=58, velocity=80, time=0),
    Message('note_off', channel=0, note=51, velocity=80, time=0),
    Message('note_on', channel=0, note=63, velocity=95, time=0),
    Message('note_on', channel=0, note=58, velocity=95, time=0),
    Message('note_on', channel=0, note=51, velocity=95, time=0),
    Message('note_off', channel=0, note=63, velocity=80, time=240),
    Message('note_off', channel=0, note=58, velocity=80, time=0),
    Message('note_off', channel=0, note=51, velocity=80, time=0),
    Message('note_on', channel=0, note=63, velocity=95, time=0),
    Message('note_on', channel=0, note=58, velocity=95, time=0),
    Message('note_on', channel=0, note=51, velocity=95, time=0),
    Message('note_off', channel=0, note=63, velocity=80, time=240),
    Message('note_off', channel=0, note=58, velocity=80, time=0),
    Message('note_off', channel=0, note=51, velocity=80, time=0),
    Message('note_on', channel=0, note=53, velocity=95, time=0),
    Message('note_on', channel=0, note=48, velocity=95, time=0),
    Message('note_on', channel=0, note=41, velocity=95, time=0),
    Message('note_off', channel=0, note=53, velocity=80, time=480),
    Message('note_off', channel=0, note=48, velocity=80, time=0),
    Message('note_off', channel=0, note=41, velocity=80, time=0),
    Message('note_on', channel=0, note=53, velocity=95, time=0),
    Message('note_on', channel=0, note=48, velocity=95, time=0),
    Message('note_on', channel=0, note=41, velocity=95, time=0),
    Message('note_off', channel=0, note=53, velocity=80, time=480),
    Message('note_off', channel=0, note=48, velocity=80, time=0),
    Message('note_off', channel=0, note=41, velocity=80, time=0),
    Message('note_on', channel=0, note=53, velocity=95, time=0),
    Message('note_on', channel=0, note=48, velocity=95, time=0),
    Message('note_on', channel=0, note=41, velocity=95, time=0),
    Message('note_off', channel=0, note=53, velocity=80, time=480),
    Message('note_off', channel=0, note=48, velocity=80, time=0),
    Message('note_off', channel=0, note=41, velocity=80, time=0),
    Message('note_on', channel=0, note=53, velocity=95, time=0),
    Message('note_on', channel=0, note=48, velocity=95, time=0),
    Message('note_on', channel=0, note=41, velocity=95, time=0),
    Message('note_off', channel=0, note=53, velocity=80, time=240),
    Message('note_off', channel=0, note=48, velocity=80, time=0),
    Message('note_off', channel=0, note=41, velocity=80, time=0),
    Message('note_on', channel=0, note=53, velocity=95, time=0),
    Message('note_on', channel=0, note=48, velocity=95, time=0),
    Message('note_on', channel=0, note=41, velocity=95, time=0),
    Message('note_off', channel=0, note=53, velocity=80, time=240),
    Message('note_off', channel=0, note=48, velocity=80, time=0),
    Message('note_off', channel=0, note=41, velocity=80, time=0),
    Message('program_change', channel=0, program=29, time=0),
    Message('program_change', channel=1, program=29, time=0),
    Message('control_change', channel=0, control=7, value=104, time=0),
    Message('control_change', channel=1, control=7, value=104, time=0),
    Message('note_on', channel=0, note=61, velocity=95, time=0),
    Message('note_on', channel=0, note=56, velocity=95, time=0),
    Message('note_on', channel=0, note=49, velocity=95, time=0),
    Message('note_off', channel=0, note=61, velocity=80, time=480),
    Message('note_off', channel=0, note=56, velocity=80, time=0),
    Message('note_off', channel=0, note=49, velocity=80, time=0),
    Message('note_on', channel=0, note=61, velocity=95, time=0),
    Message('note_on', channel=0, note=56, velocity=95, time=0),
    Message('note_on', channel=0, note=49, velocity=95, time=0),
    Message('note_off', channel=0, note=61, velocity=80, time=480),
    Message('note_off', channel=0, note=56, velocity=80, time=0),
    Message('note_off', channel=0, note=49, velocity=80, time=0),
    Message('note_on', channel=0, note=61, velocity=95, time=0),
    Message('note_on', channel=0, note=56, velocity=95, time=0),
    Message('note_on', channel=0, note=49, velocity=95, time=0),
    Message('note_off', channel=0, note=61, velocity=80, time=480),
    Message('note_off', channel=0, note=56, velocity=80, time=0),
    Message('note_off', channel=0, note=49, velocity=80, time=0),
    Message('note_on', channel=0, note=61, velocity=95, time=0),
    Message('note_on', channel=0, note=56, velocity=95, time=0),
    Message('note_on', channel=0, note=49, velocity=95, time=0),
    Message('note_off', channel=0, note=61, velocity=80, time=240),
    Message('note_off', channel=0, note=56, velocity=80, time=0),
    Message('note_off', channel=0, note=49, velocity=80, time=0),
    Message('note_on', channel=0, note=61, velocity=95, time=0),
    Message('note_on', channel=0, note=56, velocity=95, time=0),
    Message('note_on', channel=0, note=49, velocity=95, time=0),
    Message('note_off', channel=0, note=61, velocity=80, time=240),
    Message('note_off', channel=0, note=56, velocity=80, time=0),
    Message('note_off', channel=0, note=49, velocity=80, time=0),
    Message('note_on', channel=0, note=56, velocity=95, time=0),
    Message('note_on', channel=0, note=51, velocity=95, time=0),
    Message('note_on', channel=0, note=44, velocity=95, time=0),
    Message('note_off', channel=0, note=56, velocity=80, time=480),
    Message('note_off', channel=0, note=51, velocity=80, time=0),
    Message('note_off', channel=0, note=44, velocity=80, time=0),
    Message('note_on', channel=0, note=56, velocity=95, time=0),
    Message('note_on', channel=0, note=51, velocity=95, time=0),
    Message('note_on', channel=0, note=44, velocity=95, time=0),
    Message('note_off', channel=0, note=56, velocity=80, time=480),
    Message('note_off', channel=0, note=51, velocity=80, time=0),
    Message('note_off', channel=0, note=44, velocity=80, time=0),
    Message('note_on', channel=0, note=56, velocity=95, time=0),
    Message('note_on', channel=0, note=51, velocity=95, time=0),
    Message('note_on', channel=0, note=44, velocity=95, time=0),
    Message('note_off', channel=0, note=56, velocity=80, time=480),
    Message('note_off', channel=0, note=51, velocity=80, time=0),
    Message('note_off', channel=0, note=44, velocity=80, time=0),
    Message('note_on', channel=0, note=56, velocity=95, time=0),
    Message('note_on', channel=0, note=51, velocity=95, time=0),
    Message('note_on', channel=0, note=44, velocity=95, time=0),
    Message('note_off', channel=0, note=56, velocity=80, time=240),
    Message('note_off', channel=0, note=51, velocity=80, time=0),
    Message('note_off', channel=0, note=44, velocity=80, time=0),
    Message('note_on', channel=0, note=56, velocity=95, time=0),
    Message('note_on', channel=0, note=51, velocity=95, time=0),
    Message('note_on', channel=0, note=44, velocity=95, time=0),
    Message('note_off', channel=0, note=56, velocity=80, time=240),
    Message('note_off', channel=0, note=51, velocity=80, time=0),
    Message('note_off', channel=0, note=44, velocity=80, time=0),
    Message('note_on', channel=0, note=60, velocity=95, time=0),
    Message('note_on', channel=0, note=55, velocity=95, time=0),
    Message('note_on', channel=0, note=48, velocity=95, time=0),
    Message('note_off', channel=0, note=60, velocity=80, time=480),
    Message('note_off', channel=0, note=55, velocity=80, time=0),
    Message('note_off', channel=0, note=48, velocity=80, time=0),
    Message('note_on', channel=0, note=60, velocity=95, time=0),
    Message('note_on', channel=0, note=55, velocity=95, time=0),
    Message('note_on', channel=0, note=48, velocity=95, time=0),
    Message('note_off', channel=0, note=60, velocity=80, time=480),
    Message('note_off', channel=0, note=55, velocity=80, time=0),
    Message('note_off', channel=0, note=48, velocity=80, time=0),
    Message('note_on', channel=0, note=60, velocity=95, time=0),
    Message('note_on', channel=0, note=55, velocity=95, time=0),
    Message('note_on', channel=0, note=48, velocity=95, time=0),
    Message('note_off', channel=0, note=60, velocity=80, time=480),
    Message('note_off', channel=0, note=55, velocity=80, time=0),
    Message('note_off', channel=0, note=48, velocity=80, time=0),
    Message('note_on', channel=0, note=60, velocity=95, time=0),
    Message('note_on', channel=0, note=55, velocity=95, time=0),
    Message('note_on', channel=0, note=48, velocity=95, time=0),
    Message('note_off', channel=0, note=60, velocity=80, time=480),
    Message('note_off', channel=0, note=55, velocity=80, time=0),
    Message('note_off', channel=0, note=48, velocity=80, time=0),
    Message('note_on', channel=0, note=60, velocity=95, time=0),
    Message('note_on', channel=0, note=55, velocity=95, time=0),
    Message('note_on', channel=0, note=48, velocity=95, time=0),
    Message('note_off', channel=0, note=60, velocity=80, time=480),
    Message('note_off', channel=0, note=55, velocity=80, time=0),
    Message('note_off', channel=0, note=48, velocity=80, time=0),
    Message('note_on', channel=0, note=60, velocity=95, time=0),
    Message('note_on', channel=0, note=55, velocity=95, time=0),
    Message('note_on', channel=0, note=48, velocity=95, time=0),
    Message('note_off', channel=0, note=60, velocity=80, time=480),
    Message('note_off', channel=0, note=55, velocity=80, time=0),
    Message('note_off', channel=0, note=48, velocity=80, time=0),
    Message('note_on', channel=0, note=60, velocity=95, time=0),
    Message('note_on', channel=0, note=55, velocity=95, time=0),
    Message('note_on', channel=0, note=48, velocity=95, time=0),
    Message('note_off', channel=0, note=60, velocity=80, time=480),
    Message('note_off', channel=0, note=55, velocity=80, time=0),
    Message('note_off', channel=0, note=48, velocity=80, time=0),
    Message('note_on', channel=0, note=60, velocity=95, time=0),
    Message('note_on', channel=0, note=55, velocity=95, time=0),
    Message('note_on', channel=0, note=48, velocity=95, time=0),
    Message('note_off', channel=0, note=60, velocity=80, time=480),
    Message('note_off', channel=0, note=55, velocity=80, time=0),
    Message('note_off', channel=0, note=48, velocity=80, time=0),
    Message('note_on', channel=0, note=60, velocity=95, time=0),
    Message('note_on', channel=0, note=55, velocity=95, time=0),
    Message('note_on', channel=0, note=48, velocity=95, time=0),
    Message('note_off', channel=0, note=60, velocity=80, time=480),
    Message('note_off', channel=0, note=55, velocity=80, time=0),
    Message('note_off', channel=0, note=48, velocity=80, time=0),
    Message('note_on', channel=0, note=60, velocity=95, time=0),
    Message('note_on', channel=0, note=55, velocity=95, time=0),
    Message('note_on', channel=0, note=48, velocity=95, time=0),
    Message('note_off', channel=0, note=60, velocity=80, time=480),
    Message('note_off', channel=0, note=55, velocity=80, time=0),
    Message('note_off', channel=0, note=48, velocity=80, time=0),
    Message('note_on', channel=0, note=60, velocity=95, time=0),
    Message('note_on', channel=0, note=55, velocity=95, time=0),
    Message('note_on', channel=0, note=48, velocity=95, time=0),
    Message('note_off', channel=0, note=60, velocity=80, time=480),
    Message('note_off', channel=0, note=55, velocity=80, time=0),
    Message('note_off', channel=0, note=48, velocity=80, time=0),
    Message('note_on', channel=0, note=60, velocity=95, time=0),
    Message('note_on', channel=0, note=55, velocity=95, time=0),
    Message('note_on', channel=0, note=48, velocity=95, time=0),
    Message('note_off', channel=0, note=60, velocity=80, time=480),
    Message('note_off', channel=0, note=55, velocity=80, time=0),
    Message('note_off', channel=0, note=48, velocity=80, time=0),
    Message('note_on', channel=0, note=60, velocity=95, time=0),
    Message('note_on', channel=0, note=55, velocity=95, time=0),
    Message('note_on', channel=0, note=48, velocity=95, time=0),
    Message('note_off', channel=0, note=60, velocity=80, time=480),
    Message('note_off', channel=0, note=55, velocity=80, time=0),
    Message('note_off', channel=0, note=48, velocity=80, time=0),
    Message('note_on', channel=0, note=60, velocity=95, time=0),
    Message('note_on', channel=0, note=55, velocity=95, time=0),
    Message('note_on', channel=0, note=48, velocity=95, time=0),
    Message('note_off', channel=0, note=60, velocity=80, time=480),
    Message('note_off', channel=0, note=55, velocity=80, time=0),
    Message('note_off', channel=0, note=48, velocity=80, time=0),
    Message('note_on', channel=0, note=60, velocity=95, time=0),
    Message('note_on', channel=0, note=55, velocity=95, time=0),
    Message('note_on', channel=0, note=48, velocity=95, time=0),
    Message('note_off', channel=0, note=60, velocity=80, time=480),
    Message('note_off', channel=0, note=55, velocity=80, time=0),
    Message('note_off', channel=0, note=48, velocity=80, time=0),
    Message('note_on', channel=1, note=60, velocity=95, time=0),
    Message('note_on', channel=1, note=55, velocity=95, time=0),
    Message('note_on', channel=1, note=48, velocity=95, time=0),
    Message('pitchwheel', channel=1, pitch=-640, time=240),
    Message('pitchwheel', channel=1, pitch=-640, time=0),
    Message('pitchwheel', channel=1, pitch=-1408, time=60),
    Message('pitchwheel', channel=1, pitch=-1408, time=0),
    Message('pitchwheel', channel=1, pitch=-2048, time=60),
    Message('pitchwheel', channel=1, pitch=-2048, time=0),
    Message('pitchwheel', channel=1, pitch=640, time=24),
    Message('pitchwheel', channel=1, pitch=-2688, time=36),
    Message('pitchwheel', channel=1, pitch=-2688, time=0),
    Message('note_off', channel=1, note=60, velocity=80, time=60),
    Message('pitchwheel', channel=1, pitch=0, time=0),
    Message('note_off', channel=1, note=55, velocity=80, time=0),
    Message('pitchwheel', channel=1, pitch=0, time=0),
    Message('note_off', channel=1, note=48, velocity=80, time=0),
    Message('pitchwheel', channel=1, pitch=0, time=0),
    Message('program_change', channel=0, program=29, time=0),
    Message('program_change', channel=1, program=29, time=0),
    Message('control_change', channel=0, control=7, value=104, time=0),
    Message('control_change', channel=1, control=7, value=104, time=0),
    Message('note_on', channel=1, note=41, velocity=95, time=0),
    Message('pitchwheel', channel=1, pitch=0, time=80),
    Message('pitchwheel', channel=1, pitch=256, time=80),
    Message('pitchwheel', channel=1, pitch=0, time=80),
    Message('pitchwheel', channel=1, pitch=256, time=80),
    Message('pitchwheel', channel=1, pitch=0, time=80),
    Message('pitchwheel', channel=1, pitch=256, time=80),
    Message('pitchwheel', channel=1, pitch=0, time=80),
    Message('pitchwheel', channel=1, pitch=256, time=80),
    Message('pitchwheel', channel=1, pitch=0, time=80),
    Message('pitchwheel', channel=1, pitch=256, time=80),
    Message('pitchwheel', channel=1, pitch=0, time=80),
    Message('pitchwheel', channel=1, pitch=256, time=80),
    Message('pitchwheel', channel=1, pitch=0, time=80),
    Message('pitchwheel', channel=1, pitch=256, time=80),
    Message('pitchwheel', channel=1, pitch=0, time=80),
    Message('pitchwheel', channel=1, pitch=256, time=80),
    Message('pitchwheel', channel=1, pitch=0, time=80),
    Message('pitchwheel', channel=1, pitch=256, time=80),
    Message('pitchwheel', channel=1, pitch=0, time=80),
    Message('pitchwheel', channel=1, pitch=256, time=80),
    Message('pitchwheel', channel=1, pitch=0, time=80),
    Message('pitchwheel', channel=1, pitch=256, time=80),
    Message('pitchwheel', channel=1, pitch=0, time=80),
    Message('note_off', channel=1, note=41, velocity=80, time=80),
    Message('pitchwheel', channel=1, pitch=256, time=0),
    Message('pitchwheel', channel=1, pitch=0, time=0),
    Message('note_on', channel=1, note=49, velocity=86, time=0),
    Message('pitchwheel', channel=1, pitch=0, time=80),
    Message('pitchwheel', channel=1, pitch=256, time=80),
    Message('pitchwheel', channel=1, pitch=0, time=80),
    Message('pitchwheel', channel=1, pitch=256, time=80),
    Message('pitchwheel', channel=1, pitch=0, time=80),
    Message('pitchwheel', channel=1, pitch=256, time=80),
    Message('pitchwheel', channel=1, pitch=0, time=80),
    Message('pitchwheel', channel=1, pitch=256, time=80),
    Message('pitchwheel', channel=1, pitch=0, time=80),
    Message('pitchwheel', channel=1, pitch=256, time=80),
    Message('pitchwheel', channel=1, pitch=0, time=80),
    Message('pitchwheel', channel=1, pitch=256, time=80),
    Message('pitchwheel', channel=1, pitch=0, time=80),
    Message('pitchwheel', channel=1, pitch=256, time=80),
    Message('pitchwheel', channel=1, pitch=0, time=80),
    Message('pitchwheel', channel=1, pitch=256, time=80),
    Message('pitchwheel', channel=1, pitch=0, time=80),
    Message('pitchwheel', channel=1, pitch=256, time=80),
    Message('pitchwheel', channel=1, pitch=0, time=80),
    Message('pitchwheel', channel=1, pitch=256, time=80),
    Message('pitchwheel', channel=1, pitch=0, time=80),
    Message('pitchwheel', channel=1, pitch=256, time=80),
    Message('pitchwheel', channel=1, pitch=0, time=80),
    Message('note_off', channel=1, note=49, velocity=80, time=80),
    Message('pitchwheel', channel=1, pitch=256, time=0),
    Message('pitchwheel', channel=1, pitch=0, time=0),
    Message('note_on', channel=1, note=51, velocity=95, time=0),
    Message('pitchwheel', channel=1, pitch=0, time=80),
    Message('pitchwheel', channel=1, pitch=256, time=80),
    Message('pitchwheel', channel=1, pitch=0, time=80),
    Message('pitchwheel', channel=1, pitch=256, time=80),
    Message('pitchwheel', channel=1, pitch=0, time=80),
    Message('pitchwheel', channel=1, pitch=256, time=80),
    Message('pitchwheel', channel=1, pitch=0, time=80),
    Message('pitchwheel', channel=1, pitch=256, time=80),
    Message('pitchwheel', channel=1, pitch=0, time=80),
    Message('pitchwheel', channel=1, pitch=256, time=80),
    Message('pitchwheel', channel=1, pitch=0, time=80),
    Message('pitchwheel', channel=1, pitch=256, time=80),
    Message('pitchwheel', channel=1, pitch=0, time=80),
    Message('pitchwheel', channel=1, pitch=256, time=80),
    Message('pitchwheel', channel=1, pitch=0, time=80),
    Message('pitchwheel', channel=1, pitch=256, time=80),
    Message('pitchwheel', channel=1, pitch=0, time=80),
    Message('pitchwheel', channel=1, pitch=256, time=80),
    Message('pitchwheel', channel=1, pitch=0, time=80),
    Message('pitchwheel', channel=1, pitch=256, time=80),
    Message('pitchwheel', channel=1, pitch=0, time=80),
    Message('pitchwheel', channel=1, pitch=256, time=80),
    Message('pitchwheel', channel=1, pitch=0, time=80),
    Message('note_off', channel=1, note=51, velocity=80, time=80),
    Message('pitchwheel', channel=1, pitch=256, time=0),
    Message('pitchwheel', channel=1, pitch=0, time=0),
    Message('note_on', channel=1, note=50, velocity=95, time=0),
    Message('pitchwheel', channel=1, pitch=0, time=80),
    Message('pitchwheel', channel=1, pitch=256, time=80),
    Message('pitchwheel', channel=1, pitch=0, time=80),
    Message('pitchwheel', channel=1, pitch=256, time=80),
    Message('pitchwheel', channel=1, pitch=0, time=80),
    Message('pitchwheel', channel=1, pitch=256, time=80),
    Message('pitchwheel', channel=1, pitch=0, time=80),
    Message('pitchwheel', channel=1, pitch=256, time=80),
    Message('pitchwheel', channel=1, pitch=0, time=80),
    Message('pitchwheel', channel=1, pitch=256, time=80),
    Message('pitchwheel', channel=1, pitch=0, time=80),
    Message('pitchwheel', channel=1, pitch=256, time=80),
    Message('pitchwheel', channel=1, pitch=0, time=80),
    Message('pitchwheel', channel=1, pitch=256, time=80),
    Message('pitchwheel', channel=1, pitch=0, time=80),
    Message('pitchwheel', channel=1, pitch=256, time=80),
    Message('pitchwheel', channel=1, pitch=0, time=80),
    Message('pitchwheel', channel=1, pitch=256, time=80),
    Message('pitchwheel', channel=1, pitch=0, time=80),
    Message('pitchwheel', channel=1, pitch=256, time=80),
    Message('pitchwheel', channel=1, pitch=0, time=80),
    Message('pitchwheel', channel=1, pitch=256, time=80),
    Message('pitchwheel', channel=1, pitch=0, time=80),
    Message('note_off', channel=1, note=50, velocity=80, time=80),
    Message('pitchwheel', channel=1, pitch=256, time=0),
    Message('pitchwheel', channel=1, pitch=0, time=0),
    Message('note_on', channel=1, note=44, velocity=95, time=0),
    Message('pitchwheel', channel=1, pitch=0, time=80),
    Message('pitchwheel', channel=1, pitch=256, time=80),
    Message('pitchwheel', channel=1, pitch=0, time=80),
    Message('pitchwheel', channel=1, pitch=256, time=80),
    Message('pitchwheel', channel=1, pitch=0, time=80),
    Message('pitchwheel', channel=1, pitch=256, time=80),
    Message('pitchwheel', channel=1, pitch=0, time=80),
    Message('pitchwheel', channel=1, pitch=256, time=80),
    Message('pitchwheel', channel=1, pitch=0, time=80),
    Message('pitchwheel', channel=1, pitch=256, time=80),
    Message('pitchwheel', channel=1, pitch=0, time=80),
    Message('pitchwheel', channel=1, pitch=256, time=80),
    Message('pitchwheel', channel=1, pitch=0, time=80),
    Message('pitchwheel', channel=1, pitch=256, time=80),
    Message('pitchwheel', channel=1, pitch=0, time=80),
    Message('pitchwheel', channel=1, pitch=256, time=80),
    Message('pitchwheel', channel=1, pitch=0, time=80),
    Message('pitchwheel', channel=1, pitch=256, time=80),
    Message('pitchwheel', channel=1, pitch=0, time=80),
    Message('pitchwheel', channel=1, pitch=256, time=80),
    Message('pitchwheel', channel=1, pitch=0, time=80),
    Message('pitchwheel', channel=1, pitch=256, time=80),
    Message('pitchwheel', channel=1, pitch=0, time=80),
    Message('note_off', channel=1, note=44, velocity=80, time=80),
    Message('pitchwheel', channel=1, pitch=256, time=0),
    Message('pitchwheel', channel=1, pitch=0, time=0),
    Message('note_on', channel=1, note=40, velocity=95, time=0),
    Message('pitchwheel', channel=1, pitch=0, time=80),
    Message('pitchwheel', channel=1, pitch=256, time=80),
    Message('pitchwheel', channel=1, pitch=0, time=80),
    Message('pitchwheel', channel=1, pitch=256, time=80),
    Message('pitchwheel', channel=1, pitch=0, time=80),
    Message('pitchwheel', channel=1, pitch=256, time=80),
    Message('pitchwheel', channel=1, pitch=0, time=80),
    Message('pitchwheel', channel=1, pitch=256, time=80),
    Message('pitchwheel', channel=1, pitch=0, time=80),
    Message('pitchwheel', channel=1, pitch=256, time=80),
    Message('pitchwheel', channel=1, pitch=0, time=80),
    Message('pitchwheel', channel=1, pitch=256, time=80),
    Message('pitchwheel', channel=1, pitch=0, time=80),
    Message('pitchwheel', channel=1, pitch=256, time=80),
    Message('pitchwheel', channel=1, pitch=0, time=80),
    Message('pitchwheel', channel=1, pitch=256, time=80),
    Message('pitchwheel', channel=1, pitch=0, time=80),
    Message('pitchwheel', channel=1, pitch=256, time=80),
    Message('pitchwheel', channel=1, pitch=0, time=80),
    Message('pitchwheel', channel=1, pitch=256, time=80),
    Message('pitchwheel', channel=1, pitch=0, time=80),
    Message('pitchwheel', channel=1, pitch=256, time=80),
    Message('pitchwheel', channel=1, pitch=0, time=80),
    Message('note_off', channel=1, note=40, velocity=80, time=80),
    Message('pitchwheel', channel=1, pitch=256, time=0),
    Message('pitchwheel', channel=1, pitch=0, time=0),
    Message('program_change', channel=0, program=29, time=0),
    Message('program_change', channel=1, program=29, time=0),
    Message('control_change', channel=0, control=7, value=104, time=0),
    Message('control_change', channel=1, control=7, value=104, time=0),
    Message('note_on', channel=1, note=41, velocity=95, time=0),
    Message('pitchwheel', channel=1, pitch=0, time=80),
    Message('pitchwheel', channel=1, pitch=256, time=80),
    Message('pitchwheel', channel=1, pitch=0, time=80),
    Message('pitchwheel', channel=1, pitch=256, time=80),
    Message('pitchwheel', channel=1, pitch=0, time=80),
    Message('pitchwheel', channel=1, pitch=256, time=80),
    Message('pitchwheel', channel=1, pitch=0, time=80),
    Message('pitchwheel', channel=1, pitch=256, time=80),
    Message('pitchwheel', channel=1, pitch=0, time=80),
    Message('pitchwheel', channel=1, pitch=256, time=80),
    Message('pitchwheel', channel=1, pitch=0, time=80),
    Message('pitchwheel', channel=1, pitch=256, time=80),
    Message('pitchwheel', channel=1, pitch=0, time=80),
    Message('pitchwheel', channel=1, pitch=256, time=80),
    Message('pitchwheel', channel=1, pitch=0, time=80),
    Message('pitchwheel', channel=1, pitch=256, time=80),
    Message('pitchwheel', channel=1, pitch=0, time=80),
    Message('pitchwheel', channel=1, pitch=256, time=80),
    Message('pitchwheel', channel=1, pitch=0, time=80),
    Message('pitchwheel', channel=1, pitch=256, time=80),
    Message('pitchwheel', channel=1, pitch=0, time=80),
    Message('pitchwheel', channel=1, pitch=256, time=80),
    Message('pitchwheel', channel=1, pitch=0, time=80),
    Message('note_off', channel=1, note=41, velocity=80, time=80),
    Message('pitchwheel', channel=1, pitch=256, time=0),
    Message('pitchwheel', channel=1, pitch=0, time=0),
    Message('note_on', channel=1, note=49, velocity=95, time=0),
    Message('pitchwheel', channel=1, pitch=0, time=80),
    Message('pitchwheel', channel=1, pitch=256, time=80),
    Message('pitchwheel', channel=1, pitch=0, time=80),
    Message('pitchwheel', channel=1, pitch=256, time=80),
    Message('pitchwheel', channel=1, pitch=0, time=80),
    Message('pitchwheel', channel=1, pitch=256, time=80),
    Message('pitchwheel', channel=1, pitch=0, time=80),
    Message('pitchwheel', channel=1, pitch=256, time=80),
    Message('pitchwheel', channel=1, pitch=0, time=80),
    Message('pitchwheel', channel=1, pitch=256, time=80),
    Message('pitchwheel', channel=1, pitch=0, time=80),
    Message('pitchwheel', channel=1, pitch=256, time=80),
    Message('pitchwheel', channel=1, pitch=0, time=80),
    Message('pitchwheel', channel=1, pitch=256, time=80),
    Message('pitchwheel', channel=1, pitch=0, time=80),
    Message('pitchwheel', channel=1, pitch=256, time=80),
    Message('pitchwheel', channel=1, pitch=0, time=80),
    Message('pitchwheel', channel=1, pitch=256, time=80),
    Message('pitchwheel', channel=1, pitch=0, time=80),
    Message('pitchwheel', channel=1, pitch=256, time=80),
    Message('pitchwheel', channel=1, pitch=0, time=80),
    Message('pitchwheel', channel=1, pitch=256, time=80),
    Message('pitchwheel', channel=1, pitch=0, time=80),
    Message('note_off', channel=1, note=49, velocity=80, time=80),
    Message('pitchwheel', channel=1, pitch=256, time=0),
    Message('pitchwheel', channel=1, pitch=0, time=0),
    Message('note_on', channel=1, note=51, velocity=95, time=0),
    Message('pitchwheel', channel=1, pitch=0, time=80),
    Message('pitchwheel', channel=1, pitch=256, time=80),
    Message('pitchwheel', channel=1, pitch=0, time=80),
    Message('pitchwheel', channel=1, pitch=256, time=80),
    Message('pitchwheel', channel=1, pitch=0, time=80),
    Message('pitchwheel', channel=1, pitch=256, time=80),
    Message('pitchwheel', channel=1, pitch=0, time=80),
    Message('pitchwheel', channel=1, pitch=256, time=80),
    Message('pitchwheel', channel=1, pitch=0, time=80),
    Message('pitchwheel', channel=1, pitch=256, time=80),
    Message('pitchwheel', channel=1, pitch=0, time=80),
    Message('pitchwheel', channel=1, pitch=256, time=80),
    Message('pitchwheel', channel=1, pitch=0, time=80),
    Message('pitchwheel', channel=1, pitch=256, time=80),
    Message('pitchwheel', channel=1, pitch=0, time=80),
    Message('pitchwheel', channel=1, pitch=256, time=80),
    Message('pitchwheel', channel=1, pitch=0, time=80),
    Message('pitchwheel', channel=1, pitch=256, time=80),
    Message('pitchwheel', channel=1, pitch=0, time=80),
    Message('pitchwheel', channel=1, pitch=256, time=80),
    Message('pitchwheel', channel=1, pitch=0, time=80),
    Message('pitchwheel', channel=1, pitch=256, time=80),
    Message('pitchwheel', channel=1, pitch=0, time=80),
    Message('note_off', channel=1, note=51, velocity=80, time=80),
    Message('pitchwheel', channel=1, pitch=256, time=0),
    Message('pitchwheel', channel=1, pitch=0, time=0),
    Message('note_on', channel=1, note=50, velocity=95, time=0),
    Message('pitchwheel', channel=1, pitch=0, time=80),
    Message('pitchwheel', channel=1, pitch=256, time=80),
    Message('pitchwheel', channel=1, pitch=0, time=80),
    Message('pitchwheel', channel=1, pitch=256, time=80),
    Message('pitchwheel', channel=1, pitch=0, time=80),
    Message('pitchwheel', channel=1, pitch=256, time=80),
    Message('pitchwheel', channel=1, pitch=0, time=80),
    Message('pitchwheel', channel=1, pitch=256, time=80),
    Message('pitchwheel', channel=1, pitch=0, time=80),
    Message('pitchwheel', channel=1, pitch=256, time=80),
    Message('pitchwheel', channel=1, pitch=0, time=80),
    Message('pitchwheel', channel=1, pitch=256, time=80),
    Message('pitchwheel', channel=1, pitch=0, time=80),
    Message('pitchwheel', channel=1, pitch=256, time=80),
    Message('pitchwheel', channel=1, pitch=0, time=80),
    Message('pitchwheel', channel=1, pitch=256, time=80),
    Message('pitchwheel', channel=1, pitch=0, time=80),
    Message('pitchwheel', channel=1, pitch=256, time=80),
    Message('pitchwheel', channel=1, pitch=0, time=80),
    Message('pitchwheel', channel=1, pitch=256, time=80),
    Message('pitchwheel', channel=1, pitch=0, time=80),
    Message('pitchwheel', channel=1, pitch=256, time=80),
    Message('pitchwheel', channel=1, pitch=0, time=80),
    Message('note_off', channel=1, note=50, velocity=80, time=80),
    Message('pitchwheel', channel=1, pitch=256, time=0),
    Message('pitchwheel', channel=1, pitch=0, time=0),
    Message('note_on', channel=1, note=44, velocity=95, time=0),
    Message('pitchwheel', channel=1, pitch=0, time=80),
    Message('pitchwheel', channel=1, pitch=256, time=80),
    Message('pitchwheel', channel=1, pitch=0, time=80),
    Message('pitchwheel', channel=1, pitch=256, time=80),
    Message('pitchwheel', channel=1, pitch=0, time=80),
    Message('pitchwheel', channel=1, pitch=256, time=80),
    Message('pitchwheel', channel=1, pitch=0, time=80),
    Message('pitchwheel', channel=1, pitch=256, time=80),
    Message('pitchwheel', channel=1, pitch=0, time=80),
    Message('pitchwheel', channel=1, pitch=256, time=80),
    Message('pitchwheel', channel=1, pitch=0, time=80),
    Message('pitchwheel', channel=1, pitch=256, time=80),
    Message('pitchwheel', channel=1, pitch=0, time=80),
    Message('pitchwheel', channel=1, pitch=256, time=80),
    Message('pitchwheel', channel=1, pitch=0, time=80),
    Message('pitchwheel', channel=1, pitch=256, time=80),
    Message('pitchwheel', channel=1, pitch=0, time=80),
    Message('pitchwheel', channel=1, pitch=256, time=80),
    Message('pitchwheel', channel=1, pitch=0, time=80),
    Message('pitchwheel', channel=1, pitch=256, time=80),
    Message('pitchwheel', channel=1, pitch=0, time=80),
    Message('pitchwheel', channel=1, pitch=256, time=80),
    Message('pitchwheel', channel=1, pitch=0, time=80),
    Message('note_off', channel=1, note=44, velocity=80, time=80),
    Message('pitchwheel', channel=1, pitch=256, time=0),
    Message('pitchwheel', channel=1, pitch=0, time=0),
    Message('note_on', channel=1, note=40, velocity=95, time=0),
    Message('pitchwheel', channel=1, pitch=0, time=80),
    Message('pitchwheel', channel=1, pitch=256, time=80),
    Message('pitchwheel', channel=1, pitch=0, time=80),
    Message('pitchwheel', channel=1, pitch=256, time=80),
    Message('pitchwheel', channel=1, pitch=0, time=80),
    Message('pitchwheel', channel=1, pitch=256, time=80),
    Message('pitchwheel', channel=1, pitch=0, time=80),
    Message('pitchwheel', channel=1, pitch=256, time=80),
    Message('pitchwheel', channel=1, pitch=0, time=80),
    Message('pitchwheel', channel=1, pitch=256, time=80),
    Message('pitchwheel', channel=1, pitch=0, time=80),
    Message('pitchwheel', channel=1, pitch=256, time=80),
    Message('pitchwheel', channel=1, pitch=0, time=80),
    Message('pitchwheel', channel=1, pitch=256, time=80),
    Message('pitchwheel', channel=1, pitch=0, time=80),
    Message('pitchwheel', channel=1, pitch=256, time=80),
    Message('pitchwheel', channel=1, pitch=0, time=80),
    Message('pitchwheel', channel=1, pitch=256, time=80),
    Message('pitchwheel', channel=1, pitch=0, time=80),
    Message('pitchwheel', channel=1, pitch=256, time=80),
    Message('pitchwheel', channel=1, pitch=0, time=80),
    Message('pitchwheel', channel=1, pitch=256, time=80),
    Message('pitchwheel', channel=1, pitch=0, time=80),
    Message('note_off', channel=1, note=40, velocity=80, time=80),
    Message('pitchwheel', channel=1, pitch=256, time=0),
    Message('pitchwheel', channel=1, pitch=0, time=0),
    Message('program_change', channel=0, program=29, time=0),
    Message('program_change', channel=1, program=29, time=0),
    Message('control_change', channel=0, control=7, value=104, time=0),
    Message('control_change', channel=1, control=7, value=104, time=0),
    Message('note_on', channel=1, note=41, velocity=95, time=0),
    Message('pitchwheel', channel=1, pitch=0, time=80),
    Message('pitchwheel', channel=1, pitch=256, time=80),
    Message('pitchwheel', channel=1, pitch=0, time=80),
    Message('pitchwheel', channel=1, pitch=256, time=80),
    Message('pitchwheel', channel=1, pitch=0, time=80),
    Message('pitchwheel', channel=1, pitch=256, time=80),
    Message('pitchwheel', channel=1, pitch=0, time=80),
    Message('pitchwheel', channel=1, pitch=256, time=80),
    Message('pitchwheel', channel=1, pitch=0, time=80),
    Message('pitchwheel', channel=1, pitch=256, time=80),
    Message('pitchwheel', channel=1, pitch=0, time=80),
    Message('pitchwheel', channel=1, pitch=256, time=80),
    Message('pitchwheel', channel=1, pitch=0, time=80),
    Message('pitchwheel', channel=1, pitch=256, time=80),
    Message('pitchwheel', channel=1, pitch=0, time=80),
    Message('pitchwheel', channel=1, pitch=256, time=80),
    Message('pitchwheel', channel=1, pitch=0, time=80),
    Message('pitchwheel', channel=1, pitch=256, time=80),
    Message('pitchwheel', channel=1, pitch=0, time=80),
    Message('pitchwheel', channel=1, pitch=256, time=80),
    Message('pitchwheel', channel=1, pitch=0, time=80),
    Message('pitchwheel', channel=1, pitch=256, time=80),
    Message('pitchwheel', channel=1, pitch=0, time=80),
    Message('note_off', channel=1, note=41, velocity=80, time=80),
    Message('pitchwheel', channel=1, pitch=256, time=0),
    Message('pitchwheel', channel=1, pitch=0, time=0),
    Message('note_on', channel=1, note=49, velocity=95, time=0),
    Message('pitchwheel', channel=1, pitch=0, time=80),
    Message('pitchwheel', channel=1, pitch=256, time=80),
    Message('pitchwheel', channel=1, pitch=0, time=80),
    Message('pitchwheel', channel=1, pitch=256, time=80),
    Message('pitchwheel', channel=1, pitch=0, time=80),
    Message('pitchwheel', channel=1, pitch=256, time=80),
    Message('pitchwheel', channel=1, pitch=0, time=80),
    Message('pitchwheel', channel=1, pitch=256, time=80),
    Message('pitchwheel', channel=1, pitch=0, time=80),
    Message('pitchwheel', channel=1, pitch=256, time=80),
    Message('pitchwheel', channel=1, pitch=0, time=80),
    Message('pitchwheel', channel=1, pitch=256, time=80),
    Message('pitchwheel', channel=1, pitch=0, time=80),
    Message('pitchwheel', channel=1, pitch=256, time=80),
    Message('pitchwheel', channel=1, pitch=0, time=80),
    Message('pitchwheel', channel=1, pitch=256, time=80),
    Message('pitchwheel', channel=1, pitch=0, time=80),
    Message('pitchwheel', channel=1, pitch=256, time=80),
    Message('pitchwheel', channel=1, pitch=0, time=80),
    Message('pitchwheel', channel=1, pitch=256, time=80),
    Message('pitchwheel', channel=1, pitch=0, time=80),
    Message('pitchwheel', channel=1, pitch=256, time=80),
    Message('pitchwheel', channel=1, pitch=0, time=80),
    Message('note_off', channel=1, note=49, velocity=80, time=80),
    Message('pitchwheel', channel=1, pitch=256, time=0),
    Message('pitchwheel', channel=1, pitch=0, time=0),
    Message('note_on', channel=1, note=51, velocity=95, time=0),
    Message('pitchwheel', channel=1, pitch=0, time=80),
    Message('pitchwheel', channel=1, pitch=256, time=80),
    Message('pitchwheel', channel=1, pitch=0, time=80),
    Message('pitchwheel', channel=1, pitch=256, time=80),
    Message('pitchwheel', channel=1, pitch=0, time=80),
    Message('pitchwheel', channel=1, pitch=256, time=80),
    Message('pitchwheel', channel=1, pitch=0, time=80),
    Message('pitchwheel', channel=1, pitch=256, time=80),
    Message('pitchwheel', channel=1, pitch=0, time=80),
    Message('pitchwheel', channel=1, pitch=256, time=80),
    Message('pitchwheel', channel=1, pitch=0, time=80),
    Message('pitchwheel', channel=1, pitch=256, time=80),
    Message('pitchwheel', channel=1, pitch=0, time=80),
    Message('pitchwheel', channel=1, pitch=256, time=80),
    Message('pitchwheel', channel=1, pitch=0, time=80),
    Message('pitchwheel', channel=1, pitch=256, time=80),
    Message('pitchwheel', channel=1, pitch=0, time=80),
    Message('pitchwheel', channel=1, pitch=256, time=80),
    Message('pitchwheel', channel=1, pitch=0, time=80),
    Message('pitchwheel', channel=1, pitch=256, time=80),
    Message('pitchwheel', channel=1, pitch=0, time=80),
    Message('pitchwheel', channel=1, pitch=256, time=80),
    Message('pitchwheel', channel=1, pitch=0, time=80),
    Message('note_off', channel=1, note=51, velocity=80, time=80),
    Message('pitchwheel', channel=1, pitch=256, time=0),
    Message('pitchwheel', channel=1, pitch=0, time=0),
    Message('note_on', channel=1, note=50, velocity=95, time=0),
    Message('pitchwheel', channel=1, pitch=0, time=80),
    Message('pitchwheel', channel=1, pitch=256, time=80),
    Message('pitchwheel', channel=1, pitch=0, time=80),
    Message('pitchwheel', channel=1, pitch=256, time=80),
    Message('pitchwheel', channel=1, pitch=0, time=80),
    Message('pitchwheel', channel=1, pitch=256, time=80),
    Message('pitchwheel', channel=1, pitch=0, time=80),
    Message('pitchwheel', channel=1, pitch=256, time=80),
    Message('pitchwheel', channel=1, pitch=0, time=80),
    Message('pitchwheel', channel=1, pitch=256, time=80),
    Message('pitchwheel', channel=1, pitch=0, time=80),
    Message('pitchwheel', channel=1, pitch=256, time=80),
    Message('pitchwheel', channel=1, pitch=0, time=80),
    Message('pitchwheel', channel=1, pitch=256, time=80),
    Message('pitchwheel', channel=1, pitch=0, time=80),
    Message('pitchwheel', channel=1, pitch=256, time=80),
    Message('pitchwheel', channel=1, pitch=0, time=80),
    Message('pitchwheel', channel=1, pitch=256, time=80),
    Message('pitchwheel', channel=1, pitch=0, time=80),
    Message('pitchwheel', channel=1, pitch=256, time=80),
    Message('pitchwheel', channel=1, pitch=0, time=80),
    Message('pitchwheel', channel=1, pitch=256, time=80),
    Message('pitchwheel', channel=1, pitch=0, time=80),
    Message('note_off', channel=1, note=50, velocity=80, time=80),
    Message('pitchwheel', channel=1, pitch=256, time=0),
    Message('pitchwheel', channel=1, pitch=0, time=0),
    Message('note_on', channel=1, note=44, velocity=95, time=0),
    Message('pitchwheel', channel=1, pitch=0, time=80),
    Message('pitchwheel', channel=1, pitch=256, time=80),
    Message('pitchwheel', channel=1, pitch=0, time=80),
    Message('pitchwheel', channel=1, pitch=256, time=80),
    Message('pitchwheel', channel=1, pitch=0, time=80),
    Message('pitchwheel', channel=1, pitch=256, time=80),
    Message('pitchwheel', channel=1, pitch=0, time=80),
    Message('pitchwheel', channel=1, pitch=256, time=80),
    Message('pitchwheel', channel=1, pitch=0, time=80),
    Message('pitchwheel', channel=1, pitch=256, time=80),
    Message('pitchwheel', channel=1, pitch=0, time=80),
    Message('pitchwheel', channel=1, pitch=256, time=80),
    Message('pitchwheel', channel=1, pitch=0, time=80),
    Message('pitchwheel', channel=1, pitch=256, time=80),
    Message('pitchwheel', channel=1, pitch=0, time=80),
    Message('pitchwheel', channel=1, pitch=256, time=80),
    Message('pitchwheel', channel=1, pitch=0, time=80),
    Message('pitchwheel', channel=1, pitch=256, time=80),
    Message('pitchwheel', channel=1, pitch=0, time=80),
    Message('pitchwheel', channel=1, pitch=256, time=80),
    Message('pitchwheel', channel=1, pitch=0, time=80),
    Message('pitchwheel', channel=1, pitch=256, time=80),
    Message('pitchwheel', channel=1, pitch=0, time=80),
    Message('note_off', channel=1, note=44, velocity=80, time=80),
    Message('pitchwheel', channel=1, pitch=256, time=0),
    Message('pitchwheel', channel=1, pitch=0, time=0),
    Message('note_on', channel=1, note=40, velocity=95, time=0),
    Message('pitchwheel', channel=1, pitch=0, time=80),
    Message('pitchwheel', channel=1, pitch=256, time=80),
    Message('pitchwheel', channel=1, pitch=0, time=80),
    Message('pitchwheel', channel=1, pitch=256, time=80),
    Message('pitchwheel', channel=1, pitch=0, time=80),
    Message('pitchwheel', channel=1, pitch=256, time=80),
    Message('pitchwheel', channel=1, pitch=0, time=80),
    Message('pitchwheel', channel=1, pitch=256, time=80),
    Message('pitchwheel', channel=1, pitch=0, time=80),
    Message('pitchwheel', channel=1, pitch=256, time=80),
    Message('pitchwheel', channel=1, pitch=0, time=80),
    Message('pitchwheel', channel=1, pitch=256, time=80),
    Message('pitchwheel', channel=1, pitch=0, time=80),
    Message('pitchwheel', channel=1, pitch=256, time=80),
    Message('pitchwheel', channel=1, pitch=0, time=80),
    Message('pitchwheel', channel=1, pitch=256, time=80),
    Message('pitchwheel', channel=1, pitch=0, time=80),
    Message('pitchwheel', channel=1, pitch=256, time=80),
    Message('pitchwheel', channel=1, pitch=0, time=80),
    Message('pitchwheel', channel=1, pitch=256, time=80),
    Message('pitchwheel', channel=1, pitch=0, time=80),
    Message('pitchwheel', channel=1, pitch=256, time=80),
    Message('pitchwheel', channel=1, pitch=0, time=80),
    Message('note_off', channel=1, note=40, velocity=80, time=80),
    Message('pitchwheel', channel=1, pitch=256, time=0),
    Message('pitchwheel', channel=1, pitch=0, time=0),
    Message('program_change', channel=0, program=29, time=0),
    Message('program_change', channel=1, program=29, time=0),
    Message('control_change', channel=0, control=7, value=104, time=0),
    Message('control_change', channel=1, control=7, value=104, time=0),
    Message('note_on', channel=1, note=41, velocity=95, time=0),
    Message('pitchwheel', channel=1, pitch=0, time=80),
    Message('pitchwheel', channel=1, pitch=256, time=80),
    Message('pitchwheel', channel=1, pitch=0, time=80),
    Message('pitchwheel', channel=1, pitch=256, time=80),
    Message('pitchwheel', channel=1, pitch=0, time=80),
    Message('pitchwheel', channel=1, pitch=256, time=80),
    Message('pitchwheel', channel=1, pitch=0, time=80),
    Message('pitchwheel', channel=1, pitch=256, time=80),
    Message('pitchwheel', channel=1, pitch=0, time=80),
    Message('pitchwheel', channel=1, pitch=256, time=80),
    Message('pitchwheel', channel=1, pitch=0, time=80),
    Message('pitchwheel', channel=1, pitch=256, time=80),
    Message('pitchwheel', channel=1, pitch=0, time=80),
    Message('pitchwheel', channel=1, pitch=256, time=80),
    Message('pitchwheel', channel=1, pitch=0, time=80),
    Message('pitchwheel', channel=1, pitch=256, time=80),
    Message('pitchwheel', channel=1, pitch=0, time=80),
    Message('pitchwheel', channel=1, pitch=256, time=80),
    Message('pitchwheel', channel=1, pitch=0, time=80),
    Message('pitchwheel', channel=1, pitch=256, time=80),
    Message('pitchwheel', channel=1, pitch=0, time=80),
    Message('pitchwheel', channel=1, pitch=256, time=80),
    Message('pitchwheel', channel=1, pitch=0, time=80),
    Message('note_off', channel=1, note=41, velocity=80, time=80),
    Message('pitchwheel', channel=1, pitch=256, time=0),
    Message('pitchwheel', channel=1, pitch=0, time=0),
    Message('note_on', channel=1, note=49, velocity=95, time=0),
    Message('pitchwheel', channel=1, pitch=0, time=80),
    Message('pitchwheel', channel=1, pitch=256, time=80),
    Message('pitchwheel', channel=1, pitch=0, time=80),
    Message('pitchwheel', channel=1, pitch=256, time=80),
    Message('pitchwheel', channel=1, pitch=0, time=80),
    Message('pitchwheel', channel=1, pitch=256, time=80),
    Message('pitchwheel', channel=1, pitch=0, time=80),
    Message('pitchwheel', channel=1, pitch=256, time=80),
    Message('pitchwheel', channel=1, pitch=0, time=80),
    Message('pitchwheel', channel=1, pitch=256, time=80),
    Message('pitchwheel', channel=1, pitch=0, time=80),
    Message('pitchwheel', channel=1, pitch=256, time=80),
    Message('pitchwheel', channel=1, pitch=0, time=80),
    Message('pitchwheel', channel=1, pitch=256, time=80),
    Message('pitchwheel', channel=1, pitch=0, time=80),
    Message('pitchwheel', channel=1, pitch=256, time=80),
    Message('pitchwheel', channel=1, pitch=0, time=80),
    Message('pitchwheel', channel=1, pitch=256, time=80),
    Message('pitchwheel', channel=1, pitch=0, time=80),
    Message('pitchwheel', channel=1, pitch=256, time=80),
    Message('pitchwheel', channel=1, pitch=0, time=80),
    Message('pitchwheel', channel=1, pitch=256, time=80),
    Message('pitchwheel', channel=1, pitch=0, time=80),
    Message('note_off', channel=1, note=49, velocity=80, time=80),
    Message('pitchwheel', channel=1, pitch=256, time=0),
    Message('pitchwheel', channel=1, pitch=0, time=0),
    Message('note_on', channel=1, note=51, velocity=95, time=0),
    Message('pitchwheel', channel=1, pitch=0, time=80),
    Message('pitchwheel', channel=1, pitch=256, time=80),
    Message('pitchwheel', channel=1, pitch=0, time=80),
    Message('pitchwheel', channel=1, pitch=256, time=80),
    Message('pitchwheel', channel=1, pitch=0, time=80),
    Message('pitchwheel', channel=1, pitch=256, time=80),
    Message('pitchwheel', channel=1, pitch=0, time=80),
    Message('pitchwheel', channel=1, pitch=256, time=80),
    Message('pitchwheel', channel=1, pitch=0, time=80),
    Message('pitchwheel', channel=1, pitch=256, time=80),
    Message('pitchwheel', channel=1, pitch=0, time=80),
    Message('pitchwheel', channel=1, pitch=256, time=80),
    Message('pitchwheel', channel=1, pitch=0, time=80),
    Message('pitchwheel', channel=1, pitch=256, time=80),
    Message('pitchwheel', channel=1, pitch=0, time=80),
    Message('pitchwheel', channel=1, pitch=256, time=80),
    Message('pitchwheel', channel=1, pitch=0, time=80),
    Message('pitchwheel', channel=1, pitch=256, time=80),
    Message('pitchwheel', channel=1, pitch=0, time=80),
    Message('pitchwheel', channel=1, pitch=256, time=80),
    Message('pitchwheel', channel=1, pitch=0, time=80),
    Message('pitchwheel', channel=1, pitch=256, time=80),
    Message('pitchwheel', channel=1, pitch=0, time=80),
    Message('note_off', channel=1, note=51, velocity=80, time=80),
    Message('pitchwheel', channel=1, pitch=256, time=0),
    Message('pitchwheel', channel=1, pitch=0, time=0),
    Message('note_on', channel=1, note=50, velocity=95, time=0),
    Message('pitchwheel', channel=1, pitch=0, time=80),
    Message('pitchwheel', channel=1, pitch=256, time=80),
    Message('pitchwheel', channel=1, pitch=0, time=80),
    Message('pitchwheel', channel=1, pitch=256, time=80),
    Message('pitchwheel', channel=1, pitch=0, time=80),
    Message('pitchwheel', channel=1, pitch=256, time=80),
    Message('pitchwheel', channel=1, pitch=0, time=80),
    Message('pitchwheel', channel=1, pitch=256, time=80),
    Message('pitchwheel', channel=1, pitch=0, time=80),
    Message('pitchwheel', channel=1, pitch=256, time=80),
    Message('pitchwheel', channel=1, pitch=0, time=80),
    Message('pitchwheel', channel=1, pitch=256, time=80),
    Message('pitchwheel', channel=1, pitch=0, time=80),
    Message('pitchwheel', channel=1, pitch=256, time=80),
    Message('pitchwheel', channel=1, pitch=0, time=80),
    Message('pitchwheel', channel=1, pitch=256, time=80),
    Message('pitchwheel', channel=1, pitch=0, time=80),
    Message('pitchwheel', channel=1, pitch=256, time=80),
    Message('pitchwheel', channel=1, pitch=0, time=80),
    Message('pitchwheel', channel=1, pitch=256, time=80),
    Message('pitchwheel', channel=1, pitch=0, time=80),
    Message('pitchwheel', channel=1, pitch=256, time=80),
    Message('pitchwheel', channel=1, pitch=0, time=80),
    Message('note_off', channel=1, note=50, velocity=80, time=80),
    Message('pitchwheel', channel=1, pitch=256, time=0),
    Message('pitchwheel', channel=1, pitch=0, time=0),
    Message('note_on', channel=0, note=44, velocity=95, time=0),
    Message('note_off', channel=0, note=44, velocity=80, time=480),
    Message('note_on', channel=0, note=44, velocity=95, time=0),
    Message('note_off', channel=0, note=44, velocity=80, time=480),
    Message('note_on', channel=0, note=40, velocity=95, time=0),
    Message('note_off', channel=0, note=40, velocity=80, time=480),
    Message('note_on', channel=0, note=40, velocity=95, time=0),
    Message('note_off', channel=0, note=40, velocity=80, time=480),
    MetaMessage('end_of_track', time=0)]),
  MidiTrack([
    MetaMessage('track_name', name='Billie Joe Armstrong (Guitar 2)', time=0),
    Message('control_change', channel=2, control=100, value=0, time=0),
    Message('control_change', channel=2, control=101, value=0, time=0),
    Message('control_change', channel=2, control=6, value=12, time=0),
    Message('pitchwheel', channel=2, pitch=0, time=0),
    Message('control_change', channel=3, control=100, value=0, time=0),
    Message('control_change', channel=3, control=101, value=0, time=0),
    Message('control_change', channel=3, control=6, value=12, time=0),
    Message('pitchwheel', channel=3, pitch=0, time=0),
    Message('program_change', channel=2, program=25, time=0),
    Message('program_change', channel=3, program=25, time=0),
    Message('control_change', channel=2, control=7, value=88, time=0),
    Message('control_change', channel=3, control=7, value=88, time=0),
    Message('control_change', channel=2, control=10, value=64, time=0),
    Message('control_change', channel=3, control=10, value=64, time=0),
    Message('control_change', channel=2, control=93, value=0, time=0),
    Message('control_change', channel=3, control=93, value=0, time=0),
    Message('control_change', channel=2, control=91, value=0, time=0),
    Message('control_change', channel=3, control=91, value=0, time=0),
    Message('control_change', channel=2, control=92, value=0, time=0),
    Message('control_change', channel=3, control=92, value=0, time=0),
    Message('control_change', channel=2, control=95, value=0, time=0),
    Message('control_change', channel=3, control=95, value=0, time=0),
    Message('program_change', channel=2, program=30, time=0),
    Message('program_change', channel=3, program=30, time=0),
    Message('note_on', channel=2, note=53, velocity=95, time=0),
    Message('note_on', channel=2, note=48, velocity=95, time=0),
    Message('note_on', channel=2, note=41, velocity=95, time=0),
    Message('control_change', channel=2, control=7, value=88, time=5760),
    Message('control_change', channel=3, control=7, value=88, time=0),
    Message('control_change', channel=2, control=7, value=80, time=1920),
    Message('control_change', channel=3, control=7, value=80, time=0),
    Message('control_change', channel=2, control=7, value=64, time=1920),
    Message('control_change', channel=3, control=7, value=64, time=0),
    Message('control_change', channel=2, control=7, value=48, time=1920),
    Message('control_change', channel=3, control=7, value=48, time=0),
    Message('control_change', channel=2, control=7, value=32, time=1920),
    Message('control_change', channel=3, control=7, value=32, time=0),
    Message('note_off', channel=2, note=53, velocity=80, time=1920),
    Message('note_off', channel=2, note=48, velocity=80, time=0),
    Message('note_off', channel=2, note=41, velocity=80, time=0),
    Message('program_change', channel=2, program=25, time=0),
    Message('program_change', channel=3, program=25, time=0),
    Message('control_change', channel=2, control=7, value=80, time=0),
    Message('control_change', channel=3, control=7, value=80, time=0),
    Message('note_on', channel=2, note=41, velocity=95, time=0),
    Message('note_on', channel=2, note=48, velocity=95, time=20),
    Message('note_on', channel=2, note=53, velocity=95, time=20),
    Message('note_on', channel=2, note=55, velocity=95, time=20),
    Message('note_off', channel=2, note=55, velocity=80, time=20),
    Message('note_on', channel=2, note=60, velocity=95, time=0),
    Message('note_on', channel=2, note=64, velocity=95, time=20),
    Message('note_off', channel=2, note=64, velocity=80, time=20),
    Message('note_off', channel=2, note=41, velocity=80, time=840),
    Message('note_off', channel=2, note=48, velocity=80, time=0),
    Message('note_off', channel=2, note=53, velocity=80, time=0),
    Message('note_off', channel=2, note=60, velocity=80, time=0),
    Message('note_on', channel=2, note=41, velocity=95, time=0),
    Message('note_on', channel=2, note=48, velocity=95, time=10),
    Message('note_on', channel=2, note=53, velocity=95, time=10),
    Message('note_on', channel=2, note=55, velocity=95, time=10),
    Message('note_on', channel=2, note=60, velocity=95, time=10),
    Message('note_off', channel=2, note=55, velocity=80, time=10),
    Message('note_on', channel=2, note=64, velocity=95, time=0),
    Message('note_off', channel=2, note=64, velocity=80, time=20),
    Message('note_off', channel=2, note=41, velocity=80, time=890),
    Message('note_off', channel=2, note=48, velocity=80, time=0),
    Message('note_off', channel=2, note=53, velocity=80, time=0),
    Message('note_off', channel=2, note=60, velocity=80, time=0),
    Message('note_on', channel=2, note=44, velocity=95, time=0),
    Message('note_on', channel=2, note=51, velocity=95, time=20),
    Message('note_on', channel=2, note=56, velocity=95, time=20),
    Message('note_on', channel=2, note=55, velocity=95, time=20),
    Message('note_off', channel=2, note=55, velocity=80, time=20),
    Message('note_on', channel=2, note=63, velocity=95, time=0),
    Message('note_on', channel=2, note=64, velocity=95, time=20),
    Message('note_off', channel=2, note=64, velocity=80, time=20),
    Message('note_off', channel=2, note=44, velocity=80, time=840),
    Message('note_off', channel=2, note=51, velocity=80, time=0),
    Message('note_off', channel=2, note=56, velocity=80, time=0),
    Message('note_off', channel=2, note=63, velocity=80, time=0),
    Message('note_on', channel=2, note=44, velocity=95, time=0),
    Message('note_on', channel=2, note=51, velocity=95, time=20),
    Message('note_on', channel=2, note=56, velocity=95, time=20),
    Message('note_on', channel=2, note=55, velocity=95, time=20),
    Message('note_off', channel=2, note=55, velocity=80, time=20),
    Message('note_on', channel=2, note=63, velocity=95, time=0),
    Message('note_on', channel=2, note=64, velocity=95, time=20),
    Message('note_off', channel=2, note=64, velocity=80, time=20),
    Message('note_off', channel=2, note=44, velocity=80, time=840),
    Message('note_off', channel=2, note=51, velocity=80, time=0),
    Message('note_off', channel=2, note=56, velocity=80, time=0),
    Message('note_off', channel=2, note=63, velocity=80, time=0),
    Message('note_on', channel=2, note=51, velocity=95, time=0),
    Message('note_on', channel=2, note=58, velocity=95, time=10),
    Message('note_on', channel=2, note=63, velocity=95, time=10),
    Message('note_on', channel=2, note=59, velocity=95, time=10),
    Message('note_on', channel=2, note=70, velocity=95, time=10),
    Message('note_off', channel=2, note=59, velocity=80, time=10),
    Message('note_off', channel=2, note=51, velocity=80, time=910),
    Message('note_off', channel=2, note=58, velocity=80, time=0),
    Message('note_off', channel=2, note=63, velocity=80, time=0),
    Message('note_off', channel=2, note=70, velocity=80, time=0),
    Message('note_on', channel=2, note=51, velocity=95, time=0),
    Message('note_on', channel=2, note=58, velocity=95, time=10),
    Message('note_on', channel=2, note=63, velocity=95, time=10),
    Message('note_on', channel=2, note=59, velocity=95, time=10),
    Message('note_on', channel=2, note=70, velocity=95, time=10),
    Message('note_off', channel=2, note=59, velocity=80, time=10),
    Message('note_off', channel=2, note=51, velocity=80, time=910),
    Message('note_off', channel=2, note=58, velocity=80, time=0),
    Message('note_off', channel=2, note=63, velocity=80, time=0),
    Message('note_off', channel=2, note=70, velocity=80, time=0),
    Message('note_on', channel=2, note=46, velocity=95, time=0),
    Message('note_on', channel=2, note=53, velocity=95, time=10),
    Message('note_on', channel=2, note=58, velocity=95, time=10),
    Message('note_on', channel=2, note=55, velocity=95, time=10),
    Message('note_on', channel=2, note=65, velocity=95, time=10),
    Message('note_off', channel=2, note=55, velocity=80, time=10),
    Message('note_on', channel=2, note=64, velocity=95, time=0),
    Message('note_off', channel=2, note=64, velocity=80, time=20),
    Message('note_off', channel=2, note=46, velocity=80, time=890),
    Message('note_off', channel=2, note=53, velocity=80, time=0),
    Message('note_off', channel=2, note=58, velocity=80, time=0),
    Message('note_off', channel=2, note=65, velocity=80, time=0),
    Message('note_on', channel=2, note=46, velocity=95, time=0),
    Message('note_on', channel=2, note=53, velocity=95, time=10),
    Message('note_on', channel=2, note=58, velocity=95, time=10),
    Message('note_on', channel=2, note=55, velocity=95, time=10),
    Message('note_on', channel=2, note=65, velocity=95, time=10),
    Message('note_off', channel=2, note=55, velocity=80, time=10),
    Message('note_on', channel=2, note=64, velocity=95, time=0),
    Message('note_off', channel=2, note=64, velocity=80, time=20),
    Message('note_off', channel=2, note=46, velocity=80, time=890),
    Message('note_off', channel=2, note=53, velocity=80, time=0),
    Message('note_off', channel=2, note=58, velocity=80, time=0),
    Message('note_off', channel=2, note=65, velocity=80, time=0),
    Message('note_on', channel=2, note=53, velocity=95, time=0),
    Message('note_on', channel=2, note=48, velocity=95, time=0),
    Message('note_on', channel=2, note=41, velocity=95, time=0),
    Message('note_off', channel=2, note=53, velocity=80, time=480),
    Message('note_off', channel=2, note=48, velocity=80, time=0),
    Message('note_off', channel=2, note=41, velocity=80, time=0),
    Message('note_on', channel=2, note=53, velocity=63, time=0),
    Message('note_on', channel=2, note=48, velocity=63, time=0),
    Message('note_on', channel=2, note=41, velocity=63, time=0),
    Message('note_off', channel=2, note=53, velocity=80, time=480),
    Message('note_off', channel=2, note=48, velocity=80, time=0),
    Message('note_off', channel=2, note=41, velocity=80, time=0),
    Message('note_on', channel=2, note=53, velocity=95, time=0),
    Message('note_on', channel=2, note=48, velocity=95, time=0),
    Message('note_on', channel=2, note=41, velocity=95, time=0),
    Message('note_off', channel=2, note=53, velocity=80, time=480),
    Message('note_off', channel=2, note=48, velocity=80, time=0),
    Message('note_off', channel=2, note=41, velocity=80, time=0),
    Message('note_on', channel=2, note=50, velocity=95, time=0),
    Message('note_on', channel=2, note=45, velocity=95, time=0),
    Message('note_on', channel=2, note=40, velocity=95, time=0),
    Message('note_off', channel=2, note=50, velocity=80, time=20),
    Message('note_off', channel=2, note=45, velocity=80, time=0),
    Message('note_off', channel=2, note=40, velocity=80, time=0),
    Message('note_on', channel=2, note=50, velocity=95, time=220),
    Message('note_on', channel=2, note=45, velocity=95, time=0),
    Message('note_on', channel=2, note=40, velocity=95, time=0),
    Message('note_off', channel=2, note=50, velocity=80, time=20),
    Message('note_off', channel=2, note=45, velocity=80, time=0),
    Message('note_off', channel=2, note=40, velocity=80, time=0),
    Message('note_on', channel=2, note=56, velocity=95, time=220),
    Message('note_on', channel=2, note=51, velocity=95, time=0),
    Message('note_on', channel=2, note=44, velocity=95, time=0),
    Message('note_off', channel=2, note=56, velocity=80, time=480),
    Message('note_off', channel=2, note=51, velocity=80, time=0),
    Message('note_off', channel=2, note=44, velocity=80, time=0),
    Message('note_on', channel=2, note=56, velocity=63, time=0),
    Message('note_on', channel=2, note=51, velocity=63, time=0),
    Message('note_on', channel=2, note=44, velocity=63, time=0),
    Message('note_off', channel=2, note=56, velocity=80, time=480),
    Message('note_off', channel=2, note=51, velocity=80, time=0),
    Message('note_off', channel=2, note=44, velocity=80, time=0),
    Message('note_on', channel=2, note=56, velocity=95, time=0),
    Message('note_on', channel=2, note=51, velocity=95, time=0),
    Message('note_on', channel=2, note=44, velocity=95, time=0),
    Message('note_off', channel=2, note=56, velocity=80, time=480),
    Message('note_off', channel=2, note=51, velocity=80, time=0),
    Message('note_off', channel=2, note=44, velocity=80, time=0),
    Message('note_on', channel=2, note=50, velocity=95, time=0),
    Message('note_on', channel=2, note=45, velocity=95, time=0),
    Message('note_on', channel=2, note=40, velocity=95, time=0),
    Message('note_off', channel=2, note=50, velocity=80, time=20),
    Message('note_off', channel=2, note=45, velocity=80, time=0),
    Message('note_off', channel=2, note=40, velocity=80, time=0),
    Message('note_on', channel=2, note=50, velocity=95, time=220),
    Message('note_on', channel=2, note=45, velocity=95, time=0),
    Message('note_on', channel=2, note=40, velocity=95, time=0),
    Message('note_off', channel=2, note=50, velocity=80, time=20),
    Message('note_off', channel=2, note=45, velocity=80, time=0),
    Message('note_off', channel=2, note=40, velocity=80, time=0),
    Message('note_on', channel=2, note=63, velocity=95, time=220),
    Message('note_on', channel=2, note=58, velocity=95, time=0),
    Message('note_on', channel=2, note=51, velocity=95, time=0),
    Message('note_off', channel=2, note=63, velocity=80, time=480),
    Message('note_off', channel=2, note=58, velocity=80, time=0),
    Message('note_off', channel=2, note=51, velocity=80, time=0),
    Message('note_on', channel=2, note=63, velocity=63, time=0),
    Message('note_on', channel=2, note=58, velocity=63, time=0),
    Message('note_on', channel=2, note=51, velocity=63, time=0),
    Message('note_off', channel=2, note=63, velocity=80, time=480),
    Message('note_off', channel=2, note=58, velocity=80, time=0),
    Message('note_off', channel=2, note=51, velocity=80, time=0),
    Message('note_on', channel=2, note=63, velocity=95, time=0),
    Message('note_on', channel=2, note=58, velocity=95, time=0),
    Message('note_on', channel=2, note=51, velocity=95, time=0),
    Message('note_off', channel=2, note=63, velocity=80, time=480),
    Message('note_off', channel=2, note=58, velocity=80, time=0),
    Message('note_off', channel=2, note=51, velocity=80, time=0),
    Message('note_on', channel=2, note=55, velocity=95, time=0),
    Message('note_on', channel=2, note=50, velocity=95, time=0),
    Message('note_on', channel=2, note=45, velocity=95, time=0),
    Message('note_off', channel=2, note=55, velocity=80, time=20),
    Message('note_off', channel=2, note=50, velocity=80, time=0),
    Message('note_off', channel=2, note=45, velocity=80, time=0),
    Message('note_on', channel=2, note=55, velocity=95, time=220),
    Message('note_on', channel=2, note=50, velocity=95, time=0),
    Message('note_on', channel=2, note=45, velocity=95, time=0),
    Message('note_off', channel=2, note=55, velocity=80, time=20),
    Message('note_off', channel=2, note=50, velocity=80, time=0),
    Message('note_off', channel=2, note=45, velocity=80, time=0),
    Message('note_on', channel=2, note=58, velocity=95, time=220),
    Message('note_on', channel=2, note=53, velocity=95, time=0),
    Message('note_on', channel=2, note=46, velocity=95, time=0),
    Message('note_off', channel=2, note=58, velocity=80, time=480),
    Message('note_off', channel=2, note=53, velocity=80, time=0),
    Message('note_off', channel=2, note=46, velocity=80, time=0),
    Message('note_on', channel=2, note=58, velocity=63, time=0),
    Message('note_on', channel=2, note=53, velocity=63, time=0),
    Message('note_on', channel=2, note=46, velocity=63, time=0),
    Message('note_off', channel=2, note=58, velocity=80, time=480),
    Message('note_off', channel=2, note=53, velocity=80, time=0),
    Message('note_off', channel=2, note=46, velocity=80, time=0),
    Message('note_on', channel=2, note=58, velocity=95, time=0),
    Message('note_on', channel=2, note=53, velocity=95, time=0),
    Message('note_on', channel=2, note=46, velocity=95, time=0),
    Message('note_off', channel=2, note=58, velocity=80, time=480),
    Message('note_off', channel=2, note=53, velocity=80, time=0),
    Message('note_off', channel=2, note=46, velocity=80, time=0),
    Message('note_on', channel=2, note=50, velocity=95, time=0),
    Message('note_on', channel=2, note=45, velocity=95, time=0),
    Message('note_on', channel=2, note=40, velocity=95, time=0),
    Message('note_off', channel=2, note=50, velocity=80, time=20),
    Message('note_off', channel=2, note=45, velocity=80, time=0),
    Message('note_off', channel=2, note=40, velocity=80, time=0),
    Message('note_on', channel=2, note=50, velocity=95, time=220),
    Message('note_on', channel=2, note=45, velocity=95, time=0),
    Message('note_on', channel=2, note=40, velocity=95, time=0),
    Message('note_off', channel=2, note=50, velocity=80, time=20),
    Message('note_off', channel=2, note=45, velocity=80, time=0),
    Message('note_off', channel=2, note=40, velocity=80, time=0),
    Message('note_on', channel=2, note=53, velocity=95, time=220),
    Message('note_on', channel=2, note=48, velocity=95, time=0),
    Message('note_on', channel=2, note=41, velocity=95, time=0),
    Message('note_off', channel=2, note=53, velocity=80, time=480),
    Message('note_off', channel=2, note=48, velocity=80, time=0),
    Message('note_off', channel=2, note=41, velocity=80, time=0),
    Message('note_on', channel=2, note=53, velocity=63, time=0),
    Message('note_on', channel=2, note=48, velocity=63, time=0),
    Message('note_on', channel=2, note=41, velocity=63, time=0),
    Message('note_off', channel=2, note=53, velocity=80, time=480),
    Message('note_off', channel=2, note=48, velocity=80, time=0),
    Message('note_off', channel=2, note=41, velocity=80, time=0),
    Message('note_on', channel=2, note=53, velocity=95, time=0),
    Message('note_on', channel=2, note=48, velocity=95, time=0),
    Message('note_on', channel=2, note=41, velocity=95, time=0),
    Message('note_off', channel=2, note=53, velocity=80, time=480),
    Message('note_off', channel=2, note=48, velocity=80, time=0),
    Message('note_off', channel=2, note=41, velocity=80, time=0),
    Message('note_on', channel=2, note=50, velocity=95, time=0),
    Message('note_on', channel=2, note=45, velocity=95, time=0),
    Message('note_on', channel=2, note=40, velocity=95, time=0),
    Message('note_off', channel=2, note=50, velocity=80, time=20),
    Message('note_off', channel=2, note=45, velocity=80, time=0),
    Message('note_off', channel=2, note=40, velocity=80, time=0),
    Message('note_on', channel=2, note=50, velocity=95, time=220),
    Message('note_on', channel=2, note=45, velocity=95, time=0),
    Message('note_on', channel=2, note=40, velocity=95, time=0),
    Message('note_off', channel=2, note=50, velocity=80, time=20),
    Message('note_off', channel=2, note=45, velocity=80, time=0),
    Message('note_off', channel=2, note=40, velocity=80, time=0),
    Message('note_on', channel=2, note=56, velocity=95, time=220),
    Message('note_on', channel=2, note=51, velocity=95, time=0),
    Message('note_on', channel=2, note=44, velocity=95, time=0),
    Message('note_off', channel=2, note=56, velocity=80, time=480),
    Message('note_off', channel=2, note=51, velocity=80, time=0),
    Message('note_off', channel=2, note=44, velocity=80, time=0),
    Message('note_on', channel=2, note=56, velocity=63, time=0),
    Message('note_on', channel=2, note=51, velocity=63, time=0),
    Message('note_on', channel=2, note=44, velocity=63, time=0),
    Message('note_off', channel=2, note=56, velocity=80, time=480),
    Message('note_off', channel=2, note=51, velocity=80, time=0),
    Message('note_off', channel=2, note=44, velocity=80, time=0),
    Message('note_on', channel=2, note=56, velocity=95, time=0),
    Message('note_on', channel=2, note=51, velocity=95, time=0),
    Message('note_on', channel=2, note=44, velocity=95, time=0),
    Message('note_off', channel=2, note=56, velocity=80, time=480),
    Message('note_off', channel=2, note=51, velocity=80, time=0),
    Message('note_off', channel=2, note=44, velocity=80, time=0),
    Message('note_on', channel=2, note=50, velocity=95, time=0),
    Message('note_on', channel=2, note=45, velocity=95, time=0),
    Message('note_on', channel=2, note=40, velocity=95, time=0),
    Message('note_off', channel=2, note=50, velocity=80, time=20),
    Message('note_off', channel=2, note=45, velocity=80, time=0),
    Message('note_off', channel=2, note=40, velocity=80, time=0),
    Message('note_on', channel=2, note=50, velocity=95, time=220),
    Message('note_on', channel=2, note=45, velocity=95, time=0),
    Message('note_on', channel=2, note=40, velocity=95, time=0),
    Message('note_off', channel=2, note=50, velocity=80, time=20),
    Message('note_off', channel=2, note=45, velocity=80, time=0),
    Message('note_off', channel=2, note=40, velocity=80, time=0),
    Message('note_on', channel=2, note=63, velocity=95, time=220),
    Message('note_on', channel=2, note=58, velocity=95, time=0),
    Message('note_on', channel=2, note=51, velocity=95, time=0),
    Message('note_off', channel=2, note=63, velocity=80, time=480),
    Message('note_off', channel=2, note=58, velocity=80, time=0),
    Message('note_off', channel=2, note=51, velocity=80, time=0),
    Message('note_on', channel=2, note=63, velocity=63, time=0),
    Message('note_on', channel=2, note=58, velocity=63, time=0),
    Message('note_on', channel=2, note=51, velocity=63, time=0),
    Message('note_off', channel=2, note=63, velocity=80, time=480),
    Message('note_off', channel=2, note=58, velocity=80, time=0),
    Message('note_off', channel=2, note=51, velocity=80, time=0),
    Message('note_on', channel=2, note=63, velocity=95, time=0),
    Message('note_on', channel=2, note=58, velocity=95, time=0),
    Message('note_on', channel=2, note=51, velocity=95, time=0),
    Message('note_off', channel=2, note=63, velocity=80, time=480),
    Message('note_off', channel=2, note=58, velocity=80, time=0),
    Message('note_off', channel=2, note=51, velocity=80, time=0),
    Message('note_on', channel=2, note=55, velocity=95, time=0),
    Message('note_on', channel=2, note=50, velocity=95, time=0),
    Message('note_on', channel=2, note=45, velocity=95, time=0),
    Message('note_off', channel=2, note=55, velocity=80, time=20),
    Message('note_off', channel=2, note=50, velocity=80, time=0),
    Message('note_off', channel=2, note=45, velocity=80, time=0),
    Message('note_on', channel=2, note=55, velocity=95, time=220),
    Message('note_on', channel=2, note=50, velocity=95, time=0),
    Message('note_on', channel=2, note=45, velocity=95, time=0),
    Message('note_off', channel=2, note=55, velocity=80, time=20),
    Message('note_off', channel=2, note=50, velocity=80, time=0),
    Message('note_off', channel=2, note=45, velocity=80, time=0),
    Message('note_on', channel=2, note=58, velocity=95, time=220),
    Message('note_on', channel=2, note=53, velocity=95, time=0),
    Message('note_on', channel=2, note=46, velocity=95, time=0),
    Message('note_off', channel=2, note=58, velocity=80, time=480),
    Message('note_off', channel=2, note=53, velocity=80, time=0),
    Message('note_off', channel=2, note=46, velocity=80, time=0),
    Message('note_on', channel=2, note=58, velocity=63, time=0),
    Message('note_on', channel=2, note=53, velocity=63, time=0),
    Message('note_on', channel=2, note=46, velocity=63, time=0),
    Message('note_off', channel=2, note=58, velocity=80, time=480),
    Message('note_off', channel=2, note=53, velocity=80, time=0),
    Message('note_off', channel=2, note=46, velocity=80, time=0),
    Message('note_on', channel=2, note=58, velocity=95, time=0),
    Message('note_on', channel=2, note=53, velocity=95, time=0),
    Message('note_on', channel=2, note=46, velocity=95, time=0),
    Message('note_off', channel=2, note=58, velocity=80, time=480),
    Message('note_off', channel=2, note=53, velocity=80, time=0),
    Message('note_off', channel=2, note=46, velocity=80, time=0),
    Message('note_on', channel=2, note=50, velocity=95, time=0),
    Message('note_on', channel=2, note=45, velocity=95, time=0),
    Message('note_on', channel=2, note=40, velocity=95, time=0),
    Message('note_off', channel=2, note=50, velocity=80, time=20),
    Message('note_off', channel=2, note=45, velocity=80, time=0),
    Message('note_off', channel=2, note=40, velocity=80, time=0),
    Message('note_on', channel=2, note=50, velocity=95, time=220),
    Message('note_on', channel=2, note=45, velocity=95, time=0),
    Message('note_on', channel=2, note=40, velocity=95, time=0),
    Message('note_off', channel=2, note=50, velocity=80, time=20),
    Message('note_off', channel=2, note=45, velocity=80, time=0),
    Message('note_off', channel=2, note=40, velocity=80, time=0),
    Message('note_on', channel=2, note=53, velocity=95, time=220),
    Message('note_on', channel=2, note=48, velocity=95, time=0),
    Message('note_on', channel=2, note=41, velocity=95, time=0),
    Message('note_off', channel=2, note=53, velocity=80, time=480),
    Message('note_off', channel=2, note=48, velocity=80, time=0),
    Message('note_off', channel=2, note=41, velocity=80, time=0),
    Message('note_on', channel=2, note=53, velocity=63, time=0),
    Message('note_on', channel=2, note=48, velocity=63, time=0),
    Message('note_on', channel=2, note=41, velocity=63, time=0),
    Message('note_off', channel=2, note=53, velocity=80, time=480),
    Message('note_off', channel=2, note=48, velocity=80, time=0),
    Message('note_off', channel=2, note=41, velocity=80, time=0),
    Message('note_on', channel=2, note=53, velocity=95, time=0),
    Message('note_on', channel=2, note=48, velocity=95, time=0),
    Message('note_on', channel=2, note=41, velocity=95, time=0),
    Message('note_off', channel=2, note=53, velocity=80, time=480),
    Message('note_off', channel=2, note=48, velocity=80, time=0),
    Message('note_off', channel=2, note=41, velocity=80, time=0),
    Message('note_on', channel=2, note=50, velocity=95, time=0),
    Message('note_on', channel=2, note=45, velocity=95, time=0),
    Message('note_on', channel=2, note=40, velocity=95, time=0),
    Message('note_off', channel=2, note=50, velocity=80, time=20),
    Message('note_off', channel=2, note=45, velocity=80, time=0),
    Message('note_off', channel=2, note=40, velocity=80, time=0),
    Message('note_on', channel=2, note=50, velocity=95, time=220),
    Message('note_on', channel=2, note=45, velocity=95, time=0),
    Message('note_on', channel=2, note=40, velocity=95, time=0),
    Message('note_off', channel=2, note=50, velocity=80, time=20),
    Message('note_off', channel=2, note=45, velocity=80, time=0),
    Message('note_off', channel=2, note=40, velocity=80, time=0),
    Message('note_on', channel=2, note=56, velocity=95, time=220),
    Message('note_on', channel=2, note=51, velocity=95, time=0),
    Message('note_on', channel=2, note=44, velocity=95, time=0),
    Message('note_off', channel=2, note=56, velocity=80, time=480),
    Message('note_off', channel=2, note=51, velocity=80, time=0),
    Message('note_off', channel=2, note=44, velocity=80, time=0),
    Message('note_on', channel=2, note=56, velocity=63, time=0),
    Message('note_on', channel=2, note=51, velocity=63, time=0),
    Message('note_on', channel=2, note=44, velocity=63, time=0),
    Message('note_off', channel=2, note=56, velocity=80, time=480),
    Message('note_off', channel=2, note=51, velocity=80, time=0),
    Message('note_off', channel=2, note=44, velocity=80, time=0),
    Message('note_on', channel=2, note=56, velocity=95, time=0),
    Message('note_on', channel=2, note=51, velocity=95, time=0),
    Message('note_on', channel=2, note=44, velocity=95, time=0),
    Message('note_off', channel=2, note=56, velocity=80, time=480),
    Message('note_off', channel=2, note=51, velocity=80, time=0),
    Message('note_off', channel=2, note=44, velocity=80, time=0),
    Message('note_on', channel=2, note=50, velocity=95, time=0),
    Message('note_on', channel=2, note=45, velocity=95, time=0),
    Message('note_on', channel=2, note=40, velocity=95, time=0),
    Message('note_off', channel=2, note=50, velocity=80, time=20),
    Message('note_off', channel=2, note=45, velocity=80, time=0),
    Message('note_off', channel=2, note=40, velocity=80, time=0),
    Message('note_on', channel=2, note=50, velocity=95, time=220),
    Message('note_on', channel=2, note=45, velocity=95, time=0),
    Message('note_on', channel=2, note=40, velocity=95, time=0),
    Message('note_off', channel=2, note=50, velocity=80, time=20),
    Message('note_off', channel=2, note=45, velocity=80, time=0),
    Message('note_off', channel=2, note=40, velocity=80, time=0),
    Message('note_on', channel=2, note=63, velocity=95, time=220),
    Message('note_on', channel=2, note=58, velocity=95, time=0),
    Message('note_on', channel=2, note=51, velocity=95, time=0),
    Message('note_off', channel=2, note=63, velocity=80, time=480),
    Message('note_off', channel=2, note=58, velocity=80, time=0),
    Message('note_off', channel=2, note=51, velocity=80, time=0),
    Message('note_on', channel=2, note=63, velocity=63, time=0),
    Message('note_on', channel=2, note=58, velocity=63, time=0),
    Message('note_on', channel=2, note=51, velocity=63, time=0),
    Message('note_off', channel=2, note=63, velocity=80, time=480),
    Message('note_off', channel=2, note=58, velocity=80, time=0),
    Message('note_off', channel=2, note=51, velocity=80, time=0),
    Message('note_on', channel=2, note=63, velocity=95, time=0),
    Message('note_on', channel=2, note=58, velocity=95, time=0),
    Message('note_on', channel=2, note=51, velocity=95, time=0),
    Message('note_off', channel=2, note=63, velocity=80, time=480),
    Message('note_off', channel=2, note=58, velocity=80, time=0),
    Message('note_off', channel=2, note=51, velocity=80, time=0),
    Message('note_on', channel=2, note=55, velocity=95, time=0),
    Message('note_on', channel=2, note=50, velocity=95, time=0),
    Message('note_on', channel=2, note=45, velocity=95, time=0),
    Message('note_off', channel=2, note=55, velocity=80, time=20),
    Message('note_off', channel=2, note=50, velocity=80, time=0),
    Message('note_off', channel=2, note=45, velocity=80, time=0),
    Message('note_on', channel=2, note=55, velocity=95, time=220),
    Message('note_on', channel=2, note=50, velocity=95, time=0),
    Message('note_on', channel=2, note=45, velocity=95, time=0),
    Message('note_off', channel=2, note=55, velocity=80, time=20),
    Message('note_off', channel=2, note=50, velocity=80, time=0),
    Message('note_off', channel=2, note=45, velocity=80, time=0),
    Message('note_on', channel=2, note=58, velocity=95, time=220),
    Message('note_on', channel=2, note=53, velocity=95, time=0),
    Message('note_on', channel=2, note=46, velocity=95, time=0),
    Message('note_off', channel=2, note=58, velocity=80, time=480),
    Message('note_off', channel=2, note=53, velocity=80, time=0),
    Message('note_off', channel=2, note=46, velocity=80, time=0),
    Message('note_on', channel=2, note=58, velocity=63, time=0),
    Message('note_on', channel=2, note=53, velocity=63, time=0),
    Message('note_on', channel=2, note=46, velocity=63, time=0),
    Message('note_off', channel=2, note=58, velocity=80, time=480),
    Message('note_off', channel=2, note=53, velocity=80, time=0),
    Message('note_off', channel=2, note=46, velocity=80, time=0),
    Message('note_on', channel=2, note=58, velocity=95, time=0),
    Message('note_on', channel=2, note=53, velocity=95, time=0),
    Message('note_on', channel=2, note=46, velocity=95, time=0),
    Message('note_off', channel=2, note=58, velocity=80, time=480),
    Message('note_off', channel=2, note=53, velocity=80, time=0),
    Message('note_off', channel=2, note=46, velocity=80, time=0),
    Message('note_on', channel=2, note=50, velocity=95, time=0),
    Message('note_on', channel=2, note=45, velocity=95, time=0),
    Message('note_on', channel=2, note=40, velocity=95, time=0),
    Message('note_off', channel=2, note=50, velocity=80, time=20),
    Message('note_off', channel=2, note=45, velocity=80, time=0),
    Message('note_off', channel=2, note=40, velocity=80, time=0),
    Message('note_on', channel=2, note=50, velocity=95, time=220),
    Message('note_on', channel=2, note=45, velocity=95, time=0),
    Message('note_on', channel=2, note=40, velocity=95, time=0),
    Message('note_off', channel=2, note=50, velocity=80, time=20),
    Message('note_off', channel=2, note=45, velocity=80, time=0),
    Message('note_off', channel=2, note=40, velocity=80, time=0),
    Message('note_on', channel=2, note=53, velocity=95, time=220),
    Message('note_on', channel=2, note=48, velocity=95, time=0),
    Message('note_on', channel=2, note=41, velocity=95, time=0),
    Message('note_off', channel=2, note=53, velocity=80, time=480),
    Message('note_off', channel=2, note=48, velocity=80, time=0),
    Message('note_off', channel=2, note=41, velocity=80, time=0),
    Message('note_on', channel=2, note=53, velocity=63, time=0),
    Message('note_on', channel=2, note=48, velocity=63, time=0),
    Message('note_on', channel=2, note=41, velocity=63, time=0),
    Message('note_off', channel=2, note=53, velocity=80, time=480),
    Message('note_off', channel=2, note=48, velocity=80, time=0),
    Message('note_off', channel=2, note=41, velocity=80, time=0),
    Message('note_on', channel=2, note=53, velocity=95, time=0),
    Message('note_on', channel=2, note=48, velocity=95, time=0),
    Message('note_on', channel=2, note=41, velocity=95, time=0),
    Message('note_off', channel=2, note=53, velocity=80, time=480),
    Message('note_off', channel=2, note=48, velocity=80, time=0),
    Message('note_off', channel=2, note=41, velocity=80, time=0),
    Message('note_on', channel=2, note=50, velocity=95, time=0),
    Message('note_on', channel=2, note=45, velocity=95, time=0),
    Message('note_on', channel=2, note=40, velocity=95, time=0),
    Message('note_off', channel=2, note=50, velocity=80, time=20),
    Message('note_off', channel=2, note=45, velocity=80, time=0),
    Message('note_off', channel=2, note=40, velocity=80, time=0),
    Message('note_on', channel=2, note=50, velocity=95, time=220),
    Message('note_on', channel=2, note=45, velocity=95, time=0),
    Message('note_on', channel=2, note=40, velocity=95, time=0),
    Message('note_off', channel=2, note=50, velocity=80, time=20),
    Message('note_off', channel=2, note=45, velocity=80, time=0),
    Message('note_off', channel=2, note=40, velocity=80, time=0),
    Message('note_on', channel=2, note=56, velocity=95, time=220),
    Message('note_on', channel=2, note=51, velocity=95, time=0),
    Message('note_on', channel=2, note=44, velocity=95, time=0),
    Message('note_off', channel=2, note=56, velocity=80, time=480),
    Message('note_off', channel=2, note=51, velocity=80, time=0),
    Message('note_off', channel=2, note=44, velocity=80, time=0),
    Message('note_on', channel=2, note=56, velocity=63, time=0),
    Message('note_on', channel=2, note=51, velocity=63, time=0),
    Message('note_on', channel=2, note=44, velocity=63, time=0),
    Message('note_off', channel=2, note=56, velocity=80, time=480),
    Message('note_off', channel=2, note=51, velocity=80, time=0),
    Message('note_off', channel=2, note=44, velocity=80, time=0),
    Message('note_on', channel=2, note=56, velocity=95, time=0),
    Message('note_on', channel=2, note=51, velocity=95, time=0),
    Message('note_on', channel=2, note=44, velocity=95, time=0),
    Message('note_off', channel=2, note=56, velocity=80, time=480),
    Message('note_off', channel=2, note=51, velocity=80, time=0),
    Message('note_off', channel=2, note=44, velocity=80, time=0),
    Message('note_on', channel=2, note=50, velocity=95, time=0),
    Message('note_on', channel=2, note=45, velocity=95, time=0),
    Message('note_on', channel=2, note=40, velocity=95, time=0),
    Message('note_off', channel=2, note=50, velocity=80, time=20),
    Message('note_off', channel=2, note=45, velocity=80, time=0),
    Message('note_off', channel=2, note=40, velocity=80, time=0),
    Message('note_on', channel=2, note=50, velocity=95, time=220),
    Message('note_on', channel=2, note=45, velocity=95, time=0),
    Message('note_on', channel=2, note=40, velocity=95, time=0),
    Message('note_off', channel=2, note=50, velocity=80, time=20),
    Message('note_off', channel=2, note=45, velocity=80, time=0),
    Message('note_off', channel=2, note=40, velocity=80, time=0),
    Message('note_on', channel=2, note=63, velocity=95, time=220),
    Message('note_on', channel=2, note=58, velocity=95, time=0),
    Message('note_on', channel=2, note=51, velocity=95, time=0),
    Message('note_off', channel=2, note=63, velocity=80, time=480),
    Message('note_off', channel=2, note=58, velocity=80, time=0),
    Message('note_off', channel=2, note=51, velocity=80, time=0),
    Message('note_on', channel=2, note=63, velocity=63, time=0),
    Message('note_on', channel=2, note=58, velocity=63, time=0),
    Message('note_on', channel=2, note=51, velocity=63, time=0),
    Message('note_off', channel=2, note=63, velocity=80, time=480),
    Message('note_off', channel=2, note=58, velocity=80, time=0),
    Message('note_off', channel=2, note=51, velocity=80, time=0),
    Message('note_on', channel=2, note=63, velocity=95, time=0),
    Message('note_on', channel=2, note=58, velocity=95, time=0),
    Message('note_on', channel=2, note=51, velocity=95, time=0),
    Message('note_off', channel=2, note=63, velocity=80, time=480),
    Message('note_off', channel=2, note=58, velocity=80, time=0),
    Message('note_off', channel=2, note=51, velocity=80, time=0),
    Message('note_on', channel=2, note=55, velocity=95, time=0),
    Message('note_on', channel=2, note=50, velocity=95, time=0),
    Message('note_on', channel=2, note=45, velocity=95, time=0),
    Message('note_off', channel=2, note=55, velocity=80, time=20),
    Message('note_off', channel=2, note=50, velocity=80, time=0),
    Message('note_off', channel=2, note=45, velocity=80, time=0),
    Message('note_on', channel=2, note=55, velocity=95, time=220),
    Message('note_on', channel=2, note=50, velocity=95, time=0),
    Message('note_on', channel=2, note=45, velocity=95, time=0),
    Message('note_off', channel=2, note=55, velocity=80, time=20),
    Message('note_off', channel=2, note=50, velocity=80, time=0),
    Message('note_off', channel=2, note=45, velocity=80, time=0),
    Message('note_on', channel=2, note=58, velocity=95, time=220),
    Message('note_on', channel=2, note=53, velocity=95, time=0),
    Message('note_on', channel=2, note=46, velocity=95, time=0),
    Message('note_off', channel=2, note=58, velocity=80, time=480),
    Message('note_off', channel=2, note=53, velocity=80, time=0),
    Message('note_off', channel=2, note=46, velocity=80, time=0),
    Message('note_on', channel=2, note=58, velocity=63, time=0),
    Message('note_on', channel=2, note=53, velocity=63, time=0),
    Message('note_on', channel=2, note=46, velocity=63, time=0),
    Message('note_off', channel=2, note=58, velocity=80, time=480),
    Message('note_off', channel=2, note=53, velocity=80, time=0),
    Message('note_off', channel=2, note=46, velocity=80, time=0),
    Message('note_on', channel=2, note=58, velocity=95, time=0),
    Message('note_on', channel=2, note=53, velocity=95, time=0),
    Message('note_on', channel=2, note=46, velocity=95, time=0),
    Message('note_off', channel=2, note=58, velocity=80, time=480),
    Message('note_off', channel=2, note=53, velocity=80, time=0),
    Message('note_off', channel=2, note=46, velocity=80, time=0),
    Message('note_on', channel=2, note=50, velocity=95, time=0),
    Message('note_on', channel=2, note=45, velocity=95, time=0),
    Message('note_on', channel=2, note=40, velocity=95, time=0),
    Message('note_off', channel=2, note=50, velocity=80, time=20),
    Message('note_off', channel=2, note=45, velocity=80, time=0),
    Message('note_off', channel=2, note=40, velocity=80, time=0),
    Message('note_on', channel=2, note=50, velocity=95, time=220),
    Message('note_on', channel=2, note=45, velocity=95, time=0),
    Message('note_on', channel=2, note=40, velocity=95, time=0),
    Message('note_off', channel=2, note=50, velocity=80, time=20),
    Message('note_off', channel=2, note=45, velocity=80, time=0),
    Message('note_off', channel=2, note=40, velocity=80, time=0),
    Message('note_on', channel=2, note=53, velocity=95, time=220),
    Message('note_on', channel=2, note=48, velocity=95, time=0),
    Message('note_on', channel=2, note=41, velocity=95, time=0),
    Message('note_off', channel=2, note=53, velocity=80, time=480),
    Message('note_off', channel=2, note=48, velocity=80, time=0),
    Message('note_off', channel=2, note=41, velocity=80, time=0),
    Message('note_on', channel=2, note=53, velocity=63, time=0),
    Message('note_on', channel=2, note=48, velocity=63, time=0),
    Message('note_on', channel=2, note=41, velocity=63, time=0),
    Message('note_off', channel=2, note=53, velocity=80, time=480),
    Message('note_off', channel=2, note=48, velocity=80, time=0),
    Message('note_off', channel=2, note=41, velocity=80, time=0),
    Message('note_on', channel=2, note=53, velocity=95, time=0),
    Message('note_on', channel=2, note=48, velocity=95, time=0),
    Message('note_on', channel=2, note=41, velocity=95, time=0),
    Message('note_off', channel=2, note=53, velocity=80, time=480),
    Message('note_off', channel=2, note=48, velocity=80, time=0),
    Message('note_off', channel=2, note=41, velocity=80, time=0),
    Message('note_on', channel=2, note=50, velocity=95, time=0),
    Message('note_on', channel=2, note=45, velocity=95, time=0),
    Message('note_on', channel=2, note=40, velocity=95, time=0),
    Message('note_off', channel=2, note=50, velocity=80, time=20),
    Message('note_off', channel=2, note=45, velocity=80, time=0),
    Message('note_off', channel=2, note=40, velocity=80, time=0),
    Message('note_on', channel=2, note=50, velocity=95, time=220),
    Message('note_on', channel=2, note=45, velocity=95, time=0),
    Message('note_on', channel=2, note=40, velocity=95, time=0),
    Message('note_off', channel=2, note=50, velocity=80, time=20),
    Message('note_off', channel=2, note=45, velocity=80, time=0),
    Message('note_off', channel=2, note=40, velocity=80, time=0),
    Message('note_on', channel=2, note=56, velocity=95, time=220),
    Message('note_on', channel=2, note=51, velocity=95, time=0),
    Message('note_on', channel=2, note=44, velocity=95, time=0),
    Message('note_off', channel=2, note=56, velocity=80, time=480),
    Message('note_off', channel=2, note=51, velocity=80, time=0),
    Message('note_off', channel=2, note=44, velocity=80, time=0),
    Message('note_on', channel=2, note=56, velocity=63, time=0),
    Message('note_on', channel=2, note=51, velocity=63, time=0),
    Message('note_on', channel=2, note=44, velocity=63, time=0),
    Message('note_off', channel=2, note=56, velocity=80, time=480),
    Message('note_off', channel=2, note=51, velocity=80, time=0),
    Message('note_off', channel=2, note=44, velocity=80, time=0),
    Message('note_on', channel=2, note=56, velocity=95, time=0),
    Message('note_on', channel=2, note=51, velocity=95, time=0),
    Message('note_on', channel=2, note=44, velocity=95, time=0),
    Message('note_off', channel=2, note=56, velocity=80, time=480),
    Message('note_off', channel=2, note=51, velocity=80, time=0),
    Message('note_off', channel=2, note=44, velocity=80, time=0),
    Message('note_on', channel=2, note=50, velocity=95, time=0),
    Message('note_on', channel=2, note=45, velocity=95, time=0),
    Message('note_on', channel=2, note=40, velocity=95, time=0),
    Message('note_off', channel=2, note=50, velocity=80, time=20),
    Message('note_off', channel=2, note=45, velocity=80, time=0),
    Message('note_off', channel=2, note=40, velocity=80, time=0),
    Message('note_on', channel=2, note=50, velocity=95, time=220),
    Message('note_on', channel=2, note=45, velocity=95, time=0),
    Message('note_on', channel=2, note=40, velocity=95, time=0),
    Message('note_off', channel=2, note=50, velocity=80, time=20),
    Message('note_off', channel=2, note=45, velocity=80, time=0),
    Message('note_off', channel=2, note=40, velocity=80, time=0),
    Message('note_on', channel=2, note=63, velocity=95, time=220),
    Message('note_on', channel=2, note=58, velocity=95, time=0),
    Message('note_on', channel=2, note=51, velocity=95, time=0),
    Message('note_off', channel=2, note=63, velocity=80, time=480),
    Message('note_off', channel=2, note=58, velocity=80, time=0),
    Message('note_off', channel=2, note=51, velocity=80, time=0),
    Message('note_on', channel=2, note=63, velocity=63, time=0),
    Message('note_on', channel=2, note=58, velocity=63, time=0),
    Message('note_on', channel=2, note=51, velocity=63, time=0),
    Message('note_off', channel=2, note=63, velocity=80, time=480),
    Message('note_off', channel=2, note=58, velocity=80, time=0),
    Message('note_off', channel=2, note=51, velocity=80, time=0),
    Message('note_on', channel=2, note=63, velocity=95, time=0),
    Message('note_on', channel=2, note=58, velocity=95, time=0),
    Message('note_on', channel=2, note=51, velocity=95, time=0),
    Message('note_off', channel=2, note=63, velocity=80, time=480),
    Message('note_off', channel=2, note=58, velocity=80, time=0),
    Message('note_off', channel=2, note=51, velocity=80, time=0),
    Message('note_on', channel=2, note=55, velocity=95, time=0),
    Message('note_on', channel=2, note=50, velocity=95, time=0),
    Message('note_on', channel=2, note=45, velocity=95, time=0),
    Message('note_off', channel=2, note=55, velocity=80, time=20),
    Message('note_off', channel=2, note=50, velocity=80, time=0),
    Message('note_off', channel=2, note=45, velocity=80, time=0),
    Message('note_on', channel=2, note=55, velocity=95, time=220),
    Message('note_on', channel=2, note=50, velocity=95, time=0),
    Message('note_on', channel=2, note=45, velocity=95, time=0),
    Message('note_off', channel=2, note=55, velocity=80, time=20),
    Message('note_off', channel=2, note=50, velocity=80, time=0),
    Message('note_off', channel=2, note=45, velocity=80, time=0),
    Message('note_on', channel=2, note=58, velocity=95, time=220),
    Message('note_on', channel=2, note=53, velocity=95, time=0),
    Message('note_on', channel=2, note=46, velocity=95, time=0),
    Message('note_off', channel=2, note=58, velocity=80, time=480),
    Message('note_off', channel=2, note=53, velocity=80, time=0),
    Message('note_off', channel=2, note=46, velocity=80, time=0),
    Message('note_on', channel=2, note=58, velocity=63, time=0),
    Message('note_on', channel=2, note=53, velocity=63, time=0),
    Message('note_on', channel=2, note=46, velocity=63, time=0),
    Message('note_off', channel=2, note=58, velocity=80, time=480),
    Message('note_off', channel=2, note=53, velocity=80, time=0),
    Message('note_off', channel=2, note=46, velocity=80, time=0),
    Message('note_on', channel=2, note=58, velocity=95, time=0),
    Message('note_on', channel=2, note=53, velocity=95, time=0),
    Message('note_on', channel=2, note=46, velocity=95, time=0),
    Message('note_off', channel=2, note=58, velocity=80, time=480),
    Message('note_off', channel=2, note=53, velocity=80, time=0),
    Message('note_off', channel=2, note=46, velocity=80, time=0),
    Message('note_on', channel=2, note=50, velocity=95, time=0),
    Message('note_on', channel=2, note=45, velocity=95, time=0),
    Message('note_on', channel=2, note=40, velocity=95, time=0),
    Message('note_off', channel=2, note=50, velocity=80, time=20),
    Message('note_off', channel=2, note=45, velocity=80, time=0),
    Message('note_off', channel=2, note=40, velocity=80, time=0),
    Message('note_on', channel=2, note=50, velocity=95, time=220),
    Message('note_on', channel=2, note=45, velocity=95, time=0),
    Message('note_on', channel=2, note=40, velocity=95, time=0),
    Message('note_off', channel=2, note=50, velocity=80, time=20),
    Message('note_off', channel=2, note=45, velocity=80, time=0),
    Message('note_off', channel=2, note=40, velocity=80, time=0),
    Message('note_on', channel=2, note=53, velocity=95, time=220),
    Message('note_on', channel=2, note=48, velocity=95, time=0),
    Message('note_on', channel=2, note=41, velocity=95, time=0),
    Message('note_off', channel=2, note=53, velocity=80, time=480),
    Message('note_off', channel=2, note=48, velocity=80, time=0),
    Message('note_off', channel=2, note=41, velocity=80, time=0),
    Message('note_on', channel=2, note=53, velocity=63, time=0),
    Message('note_on', channel=2, note=48, velocity=63, time=0),
    Message('note_on', channel=2, note=41, velocity=63, time=0),
    Message('note_off', channel=2, note=53, velocity=80, time=480),
    Message('note_off', channel=2, note=48, velocity=80, time=0),
    Message('note_off', channel=2, note=41, velocity=80, time=0),
    Message('note_on', channel=2, note=53, velocity=95, time=0),
    Message('note_on', channel=2, note=48, velocity=95, time=0),
    Message('note_on', channel=2, note=41, velocity=95, time=0),
    Message('note_off', channel=2, note=53, velocity=80, time=480),
    Message('note_off', channel=2, note=48, velocity=80, time=0),
    Message('note_off', channel=2, note=41, velocity=80, time=0),
    Message('note_on', channel=2, note=50, velocity=95, time=0),
    Message('note_on', channel=2, note=45, velocity=95, time=0),
    Message('note_on', channel=2, note=40, velocity=95, time=0),
    Message('note_off', channel=2, note=50, velocity=80, time=20),
    Message('note_off', channel=2, note=45, velocity=80, time=0),
    Message('note_off', channel=2, note=40, velocity=80, time=0),
    Message('note_on', channel=2, note=50, velocity=95, time=220),
    Message('note_on', channel=2, note=45, velocity=95, time=0),
    Message('note_on', channel=2, note=40, velocity=95, time=0),
    Message('note_off', channel=2, note=50, velocity=80, time=20),
    Message('note_off', channel=2, note=45, velocity=80, time=0),
    Message('note_off', channel=2, note=40, velocity=80, time=0),
    Message('note_on', channel=2, note=56, velocity=95, time=220),
    Message('note_on', channel=2, note=51, velocity=95, time=0),
    Message('note_on', channel=2, note=44, velocity=95, time=0),
    Message('note_off', channel=2, note=56, velocity=80, time=480),
    Message('note_off', channel=2, note=51, velocity=80, time=0),
    Message('note_off', channel=2, note=44, velocity=80, time=0),
    Message('note_on', channel=2, note=56, velocity=63, time=0),
    Message('note_on', channel=2, note=51, velocity=63, time=0),
    Message('note_on', channel=2, note=44, velocity=63, time=0),
    Message('note_off', channel=2, note=56, velocity=80, time=480),
    Message('note_off', channel=2, note=51, velocity=80, time=0),
    Message('note_off', channel=2, note=44, velocity=80, time=0),
    Message('note_on', channel=2, note=56, velocity=95, time=0),
    Message('note_on', channel=2, note=51, velocity=95, time=0),
    Message('note_on', channel=2, note=44, velocity=95, time=0),
    Message('note_off', channel=2, note=56, velocity=80, time=480),
    Message('note_off', channel=2, note=51, velocity=80, time=0),
    Message('note_off', channel=2, note=44, velocity=80, time=0),
    Message('note_on', channel=2, note=50, velocity=95, time=0),
    Message('note_on', channel=2, note=45, velocity=95, time=0),
    Message('note_on', channel=2, note=40, velocity=95, time=0),
    Message('note_off', channel=2, note=50, velocity=80, time=20),
    Message('note_off', channel=2, note=45, velocity=80, time=0),
    Message('note_off', channel=2, note=40, velocity=80, time=0),
    Message('note_on', channel=2, note=50, velocity=95, time=220),
    Message('note_on', channel=2, note=45, velocity=95, time=0),
    Message('note_on', channel=2, note=40, velocity=95, time=0),
    Message('note_off', channel=2, note=50, velocity=80, time=20),
    Message('note_off', channel=2, note=45, velocity=80, time=0),
    Message('note_off', channel=2, note=40, velocity=80, time=0),
    Message('note_on', channel=2, note=63, velocity=95, time=220),
    Message('note_on', channel=2, note=58, velocity=95, time=0),
    Message('note_on', channel=2, note=51, velocity=95, time=0),
    Message('note_off', channel=2, note=63, velocity=80, time=480),
    Message('note_off', channel=2, note=58, velocity=80, time=0),
    Message('note_off', channel=2, note=51, velocity=80, time=0),
    Message('note_on', channel=2, note=63, velocity=63, time=0),
    Message('note_on', channel=2, note=58, velocity=63, time=0),
    Message('note_on', channel=2, note=51, velocity=63, time=0),
    Message('note_off', channel=2, note=63, velocity=80, time=480),
    Message('note_off', channel=2, note=58, velocity=80, time=0),
    Message('note_off', channel=2, note=51, velocity=80, time=0),
    Message('note_on', channel=2, note=63, velocity=95, time=0),
    Message('note_on', channel=2, note=58, velocity=95, time=0),
    Message('note_on', channel=2, note=51, velocity=95, time=0),
    Message('note_off', channel=2, note=63, velocity=80, time=480),
    Message('note_off', channel=2, note=58, velocity=80, time=0),
    Message('note_off', channel=2, note=51, velocity=80, time=0),
    Message('note_on', channel=2, note=55, velocity=95, time=0),
    Message('note_on', channel=2, note=50, velocity=95, time=0),
    Message('note_on', channel=2, note=45, velocity=95, time=0),
    Message('note_off', channel=2, note=55, velocity=80, time=20),
    Message('note_off', channel=2, note=50, velocity=80, time=0),
    Message('note_off', channel=2, note=45, velocity=80, time=0),
    Message('note_on', channel=2, note=55, velocity=95, time=220),
    Message('note_on', channel=2, note=50, velocity=95, time=0),
    Message('note_on', channel=2, note=45, velocity=95, time=0),
    Message('note_off', channel=2, note=55, velocity=80, time=20),
    Message('note_off', channel=2, note=50, velocity=80, time=0),
    Message('note_off', channel=2, note=45, velocity=80, time=0),
    Message('program_change', channel=2, program=29, time=220),
    Message('program_change', channel=3, program=29, time=0),
    Message('control_change', channel=2, control=7, value=104, time=0),
    Message('control_change', channel=3, control=7, value=104, time=0),
    Message('note_on', channel=2, note=58, velocity=95, time=0),
    Message('note_on', channel=2, note=53, velocity=95, time=0),
    Message('note_on', channel=2, note=46, velocity=95, time=0),
    Message('note_off', channel=2, note=58, velocity=80, time=480),
    Message('note_off', channel=2, note=53, velocity=80, time=0),
    Message('note_off', channel=2, note=46, velocity=80, time=0),
    Message('note_on', channel=2, note=58, velocity=95, time=0),
    Message('note_on', channel=2, note=53, velocity=95, time=0),
    Message('note_on', channel=2, note=46, velocity=95, time=0),
    Message('note_off', channel=2, note=58, velocity=80, time=480),
    Message('note_off', channel=2, note=53, velocity=80, time=0),
    Message('note_off', channel=2, note=46, velocity=80, time=0),
    Message('note_on', channel=2, note=58, velocity=95, time=0),
    Message('note_on', channel=2, note=53, velocity=95, time=0),
    Message('note_on', channel=2, note=46, velocity=95, time=0),
    Message('note_off', channel=2, note=58, velocity=80, time=480),
    Message('note_off', channel=2, note=53, velocity=80, time=0),
    Message('note_off', channel=2, note=46, velocity=80, time=0),
    Message('note_on', channel=2, note=60, velocity=95, time=0),
    Message('note_on', channel=2, note=55, velocity=95, time=0),
    Message('note_on', channel=2, note=48, velocity=95, time=0),
    Message('note_off', channel=2, note=60, velocity=80, time=480),
    Message('note_off', channel=2, note=55, velocity=80, time=0),
    Message('note_off', channel=2, note=48, velocity=80, time=0),
    Message('note_on', channel=2, note=61, velocity=95, time=0),
    Message('note_on', channel=2, note=56, velocity=95, time=0),
    Message('note_on', channel=2, note=49, velocity=95, time=0),
    Message('note_off', channel=2, note=61, velocity=80, time=480),
    Message('note_off', channel=2, note=56, velocity=80, time=0),
    Message('note_off', channel=2, note=49, velocity=80, time=0),
    Message('note_on', channel=2, note=61, velocity=95, time=0),
    Message('note_on', channel=2, note=56, velocity=95, time=0),
    Message('note_on', channel=2, note=49, velocity=95, time=0),
    Message('note_off', channel=2, note=61, velocity=80, time=480),
    Message('note_off', channel=2, note=56, velocity=80, time=0),
    Message('note_off', channel=2, note=49, velocity=80, time=0),
    Message('note_on', channel=2, note=61, velocity=95, time=0),
    Message('note_on', channel=2, note=56, velocity=95, time=0),
    Message('note_on', channel=2, note=49, velocity=95, time=0),
    Message('note_off', channel=2, note=61, velocity=80, time=480),
    Message('note_off', channel=2, note=56, velocity=80, time=0),
    Message('note_off', channel=2, note=49, velocity=80, time=0),
    Message('note_on', channel=2, note=61, velocity=95, time=0),
    Message('note_on', channel=2, note=56, velocity=95, time=0),
    Message('note_on', channel=2, note=49, velocity=95, time=0),
    Message('note_off', channel=2, note=61, velocity=80, time=240),
    Message('note_off', channel=2, note=56, velocity=80, time=0),
    Message('note_off', channel=2, note=49, velocity=80, time=0),
    Message('note_on', channel=2, note=61, velocity=95, time=0),
    Message('note_on', channel=2, note=56, velocity=95, time=0),
    Message('note_on', channel=2, note=49, velocity=95, time=0),
    Message('note_off', channel=2, note=61, velocity=80, time=240),
    Message('note_off', channel=2, note=56, velocity=80, time=0),
    Message('note_off', channel=2, note=49, velocity=80, time=0),
    Message('note_on', channel=2, note=56, velocity=95, time=0),
    Message('note_on', channel=2, note=51, velocity=95, time=0),
    Message('note_on', channel=2, note=44, velocity=95, time=0),
    Message('note_off', channel=2, note=56, velocity=80, time=480),
    Message('note_off', channel=2, note=51, velocity=80, time=0),
    Message('note_off', channel=2, note=44, velocity=80, time=0),
    Message('note_on', channel=2, note=56, velocity=95, time=0),
    Message('note_on', channel=2, note=51, velocity=95, time=0),
    Message('note_on', channel=2, note=44, velocity=95, time=0),
    Message('note_off', channel=2, note=56, velocity=80, time=480),
    Message('note_off', channel=2, note=51, velocity=80, time=0),
    Message('note_off', channel=2, note=44, velocity=80, time=0),
    Message('note_on', channel=2, note=56, velocity=95, time=0),
    Message('note_on', channel=2, note=51, velocity=95, time=0),
    Message('note_on', channel=2, note=44, velocity=95, time=0),
    Message('note_off', channel=2, note=56, velocity=80, time=480),
    Message('note_off', channel=2, note=51, velocity=80, time=0),
    Message('note_off', channel=2, note=44, velocity=80, time=0),
    Message('note_on', channel=2, note=56, velocity=95, time=0),
    Message('note_on', channel=2, note=51, velocity=95, time=0),
    Message('note_on', channel=2, note=44, velocity=95, time=0),
    Message('note_off', channel=2, note=56, velocity=80, time=240),
    Message('note_off', channel=2, note=51, velocity=80, time=0),
    Message('note_off', channel=2, note=44, velocity=80, time=0),
    Message('note_on', channel=2, note=56, velocity=95, time=0),
    Message('note_on', channel=2, note=51, velocity=95, time=0),
    Message('note_on', channel=2, note=44, velocity=95, time=0),
    Message('note_off', channel=2, note=56, velocity=80, time=240),
    Message('note_off', channel=2, note=51, velocity=80, time=0),
    Message('note_off', channel=2, note=44, velocity=80, time=0),
    Message('note_on', channel=2, note=63, velocity=95, time=0),
    Message('note_on', channel=2, note=58, velocity=95, time=0),
    Message('note_on', channel=2, note=51, velocity=95, time=0),
    Message('note_off', channel=2, note=63, velocity=80, time=480),
    Message('note_off', channel=2, note=58, velocity=80, time=0),
    Message('note_off', channel=2, note=51, velocity=80, time=0),
    Message('note_on', channel=2, note=63, velocity=95, time=0),
    Message('note_on', channel=2, note=58, velocity=95, time=0),
    Message('note_on', channel=2, note=51, velocity=95, time=0),
    Message('note_off', channel=2, note=63, velocity=80, time=480),
    Message('note_off', channel=2, note=58, velocity=80, time=0),
    Message('note_off', channel=2, note=51, velocity=80, time=0),
    Message('note_on', channel=2, note=63, velocity=95, time=0),
    Message('note_on', channel=2, note=58, velocity=95, time=0),
    Message('note_on', channel=2, note=51, velocity=95, time=0),
    Message('note_off', channel=2, note=63, velocity=80, time=480),
    Message('note_off', channel=2, note=58, velocity=80, time=0),
    Message('note_off', channel=2, note=51, velocity=80, time=0),
    Message('note_on', channel=2, note=63, velocity=95, time=0),
    Message('note_on', channel=2, note=58, velocity=95, time=0),
    Message('note_on', channel=2, note=51, velocity=95, time=0),
    Message('note_off', channel=2, note=63, velocity=80, time=240),
    Message('note_off', channel=2, note=58, velocity=80, time=0),
    Message('note_off', channel=2, note=51, velocity=80, time=0),
    Message('note_on', channel=2, note=63, velocity=95, time=0),
    Message('note_on', channel=2, note=58, velocity=95, time=0),
    Message('note_on', channel=2, note=51, velocity=95, time=0),
    Message('note_off', channel=2, note=63, velocity=80, time=240),
    Message('note_off', channel=2, note=58, velocity=80, time=0),
    Message('note_off', channel=2, note=51, velocity=80, time=0),
    Message('note_on', channel=2, note=53, velocity=95, time=0),
    Message('note_on', channel=2, note=48, velocity=95, time=0),
    Message('note_on', channel=2, note=41, velocity=95, time=0),
    Message('note_off', channel=2, note=53, velocity=80, time=480),
    Message('note_off', channel=2, note=48, velocity=80, time=0),
    Message('note_off', channel=2, note=41, velocity=80, time=0),
    Message('note_on', channel=2, note=53, velocity=95, time=0),
    Message('note_on', channel=2, note=48, velocity=95, time=0),
    Message('note_on', channel=2, note=41, velocity=95, time=0),
    Message('note_off', channel=2, note=53, velocity=80, time=480),
    Message('note_off', channel=2, note=48, velocity=80, time=0),
    Message('note_off', channel=2, note=41, velocity=80, time=0),
    Message('note_on', channel=2, note=53, velocity=95, time=0),
    Message('note_on', channel=2, note=48, velocity=95, time=0),
    Message('note_on', channel=2, note=41, velocity=95, time=0),
    Message('note_off', channel=2, note=53, velocity=80, time=480),
    Message('note_off', channel=2, note=48, velocity=80, time=0),
    Message('note_off', channel=2, note=41, velocity=80, time=0),
    Message('note_on', channel=2, note=53, velocity=95, time=0),
    Message('note_on', channel=2, note=48, velocity=95, time=0),
    Message('note_on', channel=2, note=41, velocity=95, time=0),
    Message('note_off', channel=2, note=53, velocity=80, time=240),
    Message('note_off', channel=2, note=48, velocity=80, time=0),
    Message('note_off', channel=2, note=41, velocity=80, time=0),
    Message('note_on', channel=2, note=53, velocity=95, time=0),
    Message('note_on', channel=2, note=48, velocity=95, time=0),
    Message('note_on', channel=2, note=41, velocity=95, time=0),
    Message('note_off', channel=2, note=53, velocity=80, time=240),
    Message('note_off', channel=2, note=48, velocity=80, time=0),
    Message('note_off', channel=2, note=41, velocity=80, time=0),
    Message('note_on', channel=2, note=61, velocity=95, time=0),
    Message('note_on', channel=2, note=56, velocity=95, time=0),
    Message('note_on', channel=2, note=49, velocity=95, time=0),
    Message('note_off', channel=2, note=61, velocity=80, time=480),
    Message('note_off', channel=2, note=56, velocity=80, time=0),
    Message('note_off', channel=2, note=49, velocity=80, time=0),
    Message('note_on', channel=2, note=61, velocity=95, time=0),
    Message('note_on', channel=2, note=56, velocity=95, time=0),
    Message('note_on', channel=2, note=49, velocity=95, time=0),
    Message('note_off', channel=2, note=61, velocity=80, time=480),
    Message('note_off', channel=2, note=56, velocity=80, time=0),
    Message('note_off', channel=2, note=49, velocity=80, time=0),
    Message('note_on', channel=2, note=61, velocity=95, time=0),
    Message('note_on', channel=2, note=56, velocity=95, time=0),
    Message('note_on', channel=2, note=49, velocity=95, time=0),
    Message('note_off', channel=2, note=61, velocity=80, time=480),
    Message('note_off', channel=2, note=56, velocity=80, time=0),
    Message('note_off', channel=2, note=49, velocity=80, time=0),
    Message('note_on', channel=2, note=61, velocity=95, time=0),
    Message('note_on', channel=2, note=56, velocity=95, time=0),
    Message('note_on', channel=2, note=49, velocity=95, time=0),
    Message('note_off', channel=2, note=61, velocity=80, time=240),
    Message('note_off', channel=2, note=56, velocity=80, time=0),
    Message('note_off', channel=2, note=49, velocity=80, time=0),
    Message('note_on', channel=2, note=61, velocity=95, time=0),
    Message('note_on', channel=2, note=56, velocity=95, time=0),
    Message('note_on', channel=2, note=49, velocity=95, time=0),
    Message('note_off', channel=2, note=61, velocity=80, time=240),
    Message('note_off', channel=2, note=56, velocity=80, time=0),
    Message('note_off', channel=2, note=49, velocity=80, time=0),
    Message('note_on', channel=2, note=56, velocity=95, time=0),
    Message('note_on', channel=2, note=51, velocity=95, time=0),
    Message('note_on', channel=2, note=44, velocity=95, time=0),
    Message('note_off', channel=2, note=56, velocity=80, time=480),
    Message('note_off', channel=2, note=51, velocity=80, time=0),
    Message('note_off', channel=2, note=44, velocity=80, time=0),
    Message('note_on', channel=2, note=56, velocity=95, time=0),
    Message('note_on', channel=2, note=51, velocity=95, time=0),
    Message('note_on', channel=2, note=44, velocity=95, time=0),
    Message('note_off', channel=2, note=56, velocity=80, time=480),
    Message('note_off', channel=2, note=51, velocity=80, time=0),
    Message('note_off', channel=2, note=44, velocity=80, time=0),
    Message('note_on', channel=2, note=56, velocity=95, time=0),
    Message('note_on', channel=2, note=51, velocity=95, time=0),
    Message('note_on', channel=2, note=44, velocity=95, time=0),
    Message('note_off', channel=2, note=56, velocity=80, time=480),
    Message('note_off', channel=2, note=51, velocity=80, time=0),
    Message('note_off', channel=2, note=44, velocity=80, time=0),
    Message('note_on', channel=2, note=56, velocity=95, time=0),
    Message('note_on', channel=2, note=51, velocity=95, time=0),
    Message('note_on', channel=2, note=44, velocity=95, time=0),
    Message('note_off', channel=2, note=56, velocity=80, time=240),
    Message('note_off', channel=2, note=51, velocity=80, time=0),
    Message('note_off', channel=2, note=44, velocity=80, time=0),
    Message('note_on', channel=2, note=56, velocity=95, time=0),
    Message('note_on', channel=2, note=51, velocity=95, time=0),
    Message('note_on', channel=2, note=44, velocity=95, time=0),
    Message('note_off', channel=2, note=56, velocity=80, time=240),
    Message('note_off', channel=2, note=51, velocity=80, time=0),
    Message('note_off', channel=2, note=44, velocity=80, time=0),
    Message('note_on', channel=2, note=63, velocity=95, time=0),
    Message('note_on', channel=2, note=58, velocity=95, time=0),
    Message('note_on', channel=2, note=51, velocity=95, time=0),
    Message('note_off', channel=2, note=63, velocity=80, time=480),
    Message('note_off', channel=2, note=58, velocity=80, time=0),
    Message('note_off', channel=2, note=51, velocity=80, time=0),
    Message('note_on', channel=2, note=63, velocity=95, time=0),
    Message('note_on', channel=2, note=58, velocity=95, time=0),
    Message('note_on', channel=2, note=51, velocity=95, time=0),
    Message('note_off', channel=2, note=63, velocity=80, time=480),
    Message('note_off', channel=2, note=58, velocity=80, time=0),
    Message('note_off', channel=2, note=51, velocity=80, time=0),
    Message('note_on', channel=2, note=63, velocity=95, time=0),
    Message('note_on', channel=2, note=58, velocity=95, time=0),
    Message('note_on', channel=2, note=51, velocity=95, time=0),
    Message('note_off', channel=2, note=63, velocity=80, time=480),
    Message('note_off', channel=2, note=58, velocity=80, time=0),
    Message('note_off', channel=2, note=51, velocity=80, time=0),
    Message('note_on', channel=2, note=63, velocity=95, time=0),
    Message('note_on', channel=2, note=58, velocity=95, time=0),
    Message('note_on', channel=2, note=51, velocity=95, time=0),
    Message('note_off', channel=2, note=63, velocity=80, time=240),
    Message('note_off', channel=2, note=58, velocity=80, time=0),
    Message('note_off', channel=2, note=51, velocity=80, time=0),
    Message('note_on', channel=2, note=63, velocity=95, time=0),
    Message('note_on', channel=2, note=58, velocity=95, time=0),
    Message('note_on', channel=2, note=51, velocity=95, time=0),
    Message('note_off', channel=2, note=63, velocity=80, time=240),
    Message('note_off', channel=2, note=58, velocity=80, time=0),
    Message('note_off', channel=2, note=51, velocity=80, time=0),
    Message('note_on', channel=2, note=53, velocity=95, time=0),
    Message('note_on', channel=2, note=48, velocity=95, time=0),
    Message('note_on', channel=2, note=41, velocity=95, time=0),
    Message('note_off', channel=2, note=53, velocity=80, time=480),
    Message('note_off', channel=2, note=48, velocity=80, time=0),
    Message('note_off', channel=2, note=41, velocity=80, time=0),
    Message('note_on', channel=2, note=53, velocity=95, time=0),
    Message('note_on', channel=2, note=48, velocity=95, time=0),
    Message('note_on', channel=2, note=41, velocity=95, time=0),
    Message('note_off', channel=2, note=53, velocity=80, time=480),
    Message('note_off', channel=2, note=48, velocity=80, time=0),
    Message('note_off', channel=2, note=41, velocity=80, time=0),
    Message('note_on', channel=2, note=53, velocity=95, time=0),
    Message('note_on', channel=2, note=48, velocity=95, time=0),
    Message('note_on', channel=2, note=41, velocity=95, time=0),
    Message('note_off', channel=2, note=53, velocity=80, time=480),
    Message('note_off', channel=2, note=48, velocity=80, time=0),
    Message('note_off', channel=2, note=41, velocity=80, time=0),
    Message('note_on', channel=2, note=53, velocity=95, time=0),
    Message('note_on', channel=2, note=48, velocity=95, time=0),
    Message('note_on', channel=2, note=41, velocity=95, time=0),
    Message('note_off', channel=2, note=53, velocity=80, time=240),
    Message('note_off', channel=2, note=48, velocity=80, time=0),
    Message('note_off', channel=2, note=41, velocity=80, time=0),
    Message('note_on', channel=2, note=53, velocity=95, time=0),
    Message('note_on', channel=2, note=48, velocity=95, time=0),
    Message('note_on', channel=2, note=41, velocity=95, time=0),
    Message('note_off', channel=2, note=53, velocity=80, time=240),
    Message('note_off', channel=2, note=48, velocity=80, time=0),
    Message('note_off', channel=2, note=41, velocity=80, time=0),
    Message('note_on', channel=2, note=61, velocity=95, time=0),
    Message('note_on', channel=2, note=56, velocity=95, time=0),
    Message('note_on', channel=2, note=49, velocity=95, time=0),
    Message('note_off', channel=2, note=61, velocity=80, time=480),
    Message('note_off', channel=2, note=56, velocity=80, time=0),
    Message('note_off', channel=2, note=49, velocity=80, time=0),
    Message('note_on', channel=2, note=61, velocity=95, time=0),
    Message('note_on', channel=2, note=56, velocity=95, time=0),
    Message('note_on', channel=2, note=49, velocity=95, time=0),
    Message('note_off', channel=2, note=61, velocity=80, time=480),
    Message('note_off', channel=2, note=56, velocity=80, time=0),
    Message('note_off', channel=2, note=49, velocity=80, time=0),
    Message('note_on', channel=2, note=61, velocity=95, time=0),
    Message('note_on', channel=2, note=56, velocity=95, time=0),
    Message('note_on', channel=2, note=49, velocity=95, time=0),
    Message('note_off', channel=2, note=61, velocity=80, time=480),
    Message('note_off', channel=2, note=56, velocity=80, time=0),
    Message('note_off', channel=2, note=49, velocity=80, time=0),
    Message('note_on', channel=2, note=61, velocity=95, time=0),
    Message('note_on', channel=2, note=56, velocity=95, time=0),
    Message('note_on', channel=2, note=49, velocity=95, time=0),
    Message('note_off', channel=2, note=61, velocity=80, time=240),
    Message('note_off', channel=2, note=56, velocity=80, time=0),
    Message('note_off', channel=2, note=49, velocity=80, time=0),
    Message('note_on', channel=2, note=61, velocity=95, time=0),
    Message('note_on', channel=2, note=56, velocity=95, time=0),
    Message('note_on', channel=2, note=49, velocity=95, time=0),
    Message('note_off', channel=2, note=61, velocity=80, time=240),
    Message('note_off', channel=2, note=56, velocity=80, time=0),
    Message('note_off', channel=2, note=49, velocity=80, time=0),
    Message('note_on', channel=2, note=56, velocity=95, time=0),
    Message('note_on', channel=2, note=51, velocity=95, time=0),
    Message('note_on', channel=2, note=44, velocity=95, time=0),
    Message('note_off', channel=2, note=56, velocity=80, time=480),
    Message('note_off', channel=2, note=51, velocity=80, time=0),
    Message('note_off', channel=2, note=44, velocity=80, time=0),
    Message('note_on', channel=2, note=56, velocity=95, time=0),
    Message('note_on', channel=2, note=51, velocity=95, time=0),
    Message('note_on', channel=2, note=44, velocity=95, time=0),
    Message('note_off', channel=2, note=56, velocity=80, time=480),
    Message('note_off', channel=2, note=51, velocity=80, time=0),
    Message('note_off', channel=2, note=44, velocity=80, time=0),
    Message('note_on', channel=2, note=56, velocity=95, time=0),
    Message('note_on', channel=2, note=51, velocity=95, time=0),
    Message('note_on', channel=2, note=44, velocity=95, time=0),
    Message('note_off', channel=2, note=56, velocity=80, time=480),
    Message('note_off', channel=2, note=51, velocity=80, time=0),
    Message('note_off', channel=2, note=44, velocity=80, time=0),
    Message('note_on', channel=2, note=56, velocity=95, time=0),
    Message('note_on', channel=2, note=51, velocity=95, time=0),
    Message('note_on', channel=2, note=44, velocity=95, time=0),
    Message('note_off', channel=2, note=56, velocity=80, time=240),
    Message('note_off', channel=2, note=51, velocity=80, time=0),
    Message('note_off', channel=2, note=44, velocity=80, time=0),
    Message('note_on', channel=2, note=56, velocity=95, time=0),
    Message('note_on', channel=2, note=51, velocity=95, time=0),
    Message('note_on', channel=2, note=44, velocity=95, time=0),
    Message('note_off', channel=2, note=56, velocity=80, time=240),
    Message('note_off', channel=2, note=51, velocity=80, time=0),
    Message('note_off', channel=2, note=44, velocity=80, time=0),
    Message('note_on', channel=2, note=63, velocity=95, time=0),
    Message('note_on', channel=2, note=58, velocity=95, time=0),
    Message('note_on', channel=2, note=51, velocity=95, time=0),
    Message('note_off', channel=2, note=63, velocity=80, time=480),
    Message('note_off', channel=2, note=58, velocity=80, time=0),
    Message('note_off', channel=2, note=51, velocity=80, time=0),
    Message('note_on', channel=2, note=63, velocity=95, time=0),
    Message('note_on', channel=2, note=58, velocity=95, time=0),
    Message('note_on', channel=2, note=51, velocity=95, time=0),
    Message('note_off', channel=2, note=63, velocity=80, time=480),
    Message('note_off', channel=2, note=58, velocity=80, time=0),
    Message('note_off', channel=2, note=51, velocity=80, time=0),
    Message('note_on', channel=2, note=63, velocity=95, time=0),
    Message('note_on', channel=2, note=58, velocity=95, time=0),
    Message('note_on', channel=2, note=51, velocity=95, time=0),
    Message('note_off', channel=2, note=63, velocity=80, time=480),
    Message('note_off', channel=2, note=58, velocity=80, time=0),
    Message('note_off', channel=2, note=51, velocity=80, time=0),
    Message('note_on', channel=2, note=63, velocity=95, time=0),
    Message('note_on', channel=2, note=58, velocity=95, time=0),
    Message('note_on', channel=2, note=51, velocity=95, time=0),
    Message('note_off', channel=2, note=63, velocity=80, time=240),
    Message('note_off', channel=2, note=58, velocity=80, time=0),
    Message('note_off', channel=2, note=51, velocity=80, time=0),
    Message('note_on', channel=2, note=63, velocity=95, time=0),
    Message('note_on', channel=2, note=58, velocity=95, time=0),
    Message('note_on', channel=2, note=51, velocity=95, time=0),
    Message('note_off', channel=2, note=63, velocity=80, time=240),
    Message('note_off', channel=2, note=58, velocity=80, time=0),
    Message('note_off', channel=2, note=51, velocity=80, time=0),
    Message('note_on', channel=2, note=53, velocity=95, time=0),
    Message('note_on', channel=2, note=48, velocity=95, time=0),
    Message('note_on', channel=2, note=41, velocity=95, time=0),
    Message('note_off', channel=2, note=53, velocity=80, time=480),
    Message('note_off', channel=2, note=48, velocity=80, time=0),
    Message('note_off', channel=2, note=41, velocity=80, time=0),
    Message('note_on', channel=2, note=53, velocity=95, time=0),
    Message('note_on', channel=2, note=48, velocity=95, time=0),
    Message('note_on', channel=2, note=41, velocity=95, time=0),
    Message('note_off', channel=2, note=53, velocity=80, time=480),
    Message('note_off', channel=2, note=48, velocity=80, time=0),
    Message('note_off', channel=2, note=41, velocity=80, time=0),
    Message('note_on', channel=2, note=53, velocity=95, time=0),
    Message('note_on', channel=2, note=48, velocity=95, time=0),
    Message('note_on', channel=2, note=41, velocity=95, time=0),
    Message('note_off', channel=2, note=53, velocity=80, time=480),
    Message('note_off', channel=2, note=48, velocity=80, time=0),
    Message('note_off', channel=2, note=41, velocity=80, time=0),
    Message('note_on', channel=2, note=53, velocity=95, time=0),
    Message('note_on', channel=2, note=48, velocity=95, time=0),
    Message('note_on', channel=2, note=41, velocity=95, time=0),
    Message('note_off', channel=2, note=53, velocity=80, time=240),
    Message('note_off', channel=2, note=48, velocity=80, time=0),
    Message('note_off', channel=2, note=41, velocity=80, time=0),
    Message('note_on', channel=2, note=53, velocity=95, time=0),
    Message('note_on', channel=2, note=48, velocity=95, time=0),
    Message('note_on', channel=2, note=41, velocity=95, time=0),
    Message('note_off', channel=2, note=53, velocity=80, time=240),
    Message('note_off', channel=2, note=48, velocity=80, time=0),
    Message('note_off', channel=2, note=41, velocity=80, time=0),
    Message('note_on', channel=2, note=61, velocity=95, time=0),
    Message('note_on', channel=2, note=56, velocity=95, time=0),
    Message('note_on', channel=2, note=49, velocity=95, time=0),
    Message('note_off', channel=2, note=61, velocity=80, time=480),
    Message('note_off', channel=2, note=56, velocity=80, time=0),
    Message('note_off', channel=2, note=49, velocity=80, time=0),
    Message('note_on', channel=2, note=61, velocity=95, time=0),
    Message('note_on', channel=2, note=56, velocity=95, time=0),
    Message('note_on', channel=2, note=49, velocity=95, time=0),
    Message('note_off', channel=2, note=61, velocity=80, time=480),
    Message('note_off', channel=2, note=56, velocity=80, time=0),
    Message('note_off', channel=2, note=49, velocity=80, time=0),
    Message('note_on', channel=2, note=61, velocity=95, time=0),
    Message('note_on', channel=2, note=56, velocity=95, time=0),
    Message('note_on', channel=2, note=49, velocity=95, time=0),
    Message('note_off', channel=2, note=61, velocity=80, time=480),
    Message('note_off', channel=2, note=56, velocity=80, time=0),
    Message('note_off', channel=2, note=49, velocity=80, time=0),
    Message('note_on', channel=2, note=61, velocity=95, time=0),
    Message('note_on', channel=2, note=56, velocity=95, time=0),
    Message('note_on', channel=2, note=49, velocity=95, time=0),
    Message('note_off', channel=2, note=61, velocity=80, time=240),
    Message('note_off', channel=2, note=56, velocity=80, time=0),
    Message('note_off', channel=2, note=49, velocity=80, time=0),
    Message('note_on', channel=2, note=61, velocity=95, time=0),
    Message('note_on', channel=2, note=56, velocity=95, time=0),
    Message('note_on', channel=2, note=49, velocity=95, time=0),
    Message('note_off', channel=2, note=61, velocity=80, time=240),
    Message('note_off', channel=2, note=56, velocity=80, time=0),
    Message('note_off', channel=2, note=49, velocity=80, time=0),
    Message('note_on', channel=2, note=56, velocity=95, time=0),
    Message('note_on', channel=2, note=51, velocity=95, time=0),
    Message('note_on', channel=2, note=44, velocity=95, time=0),
    Message('note_off', channel=2, note=56, velocity=80, time=480),
    Message('note_off', channel=2, note=51, velocity=80, time=0),
    Message('note_off', channel=2, note=44, velocity=80, time=0),
    Message('note_on', channel=2, note=56, velocity=95, time=0),
    Message('note_on', channel=2, note=51, velocity=95, time=0),
    Message('note_on', channel=2, note=44, velocity=95, time=0),
    Message('note_off', channel=2, note=56, velocity=80, time=480),
    Message('note_off', channel=2, note=51, velocity=80, time=0),
    Message('note_off', channel=2, note=44, velocity=80, time=0),
    Message('note_on', channel=2, note=56, velocity=95, time=0),
    Message('note_on', channel=2, note=51, velocity=95, time=0),
    Message('note_on', channel=2, note=44, velocity=95, time=0),
    Message('note_off', channel=2, note=56, velocity=80, time=480),
    Message('note_off', channel=2, note=51, velocity=80, time=0),
    Message('note_off', channel=2, note=44, velocity=80, time=0),
    Message('note_on', channel=2, note=56, velocity=95, time=0),
    Message('note_on', channel=2, note=51, velocity=95, time=0),
    Message('note_on', channel=2, note=44, velocity=95, time=0),
    Message('note_off', channel=2, note=56, velocity=80, time=240),
    Message('note_off', channel=2, note=51, velocity=80, time=0),
    Message('note_off', channel=2, note=44, velocity=80, time=0),
    Message('note_on', channel=2, note=56, velocity=95, time=0),
    Message('note_on', channel=2, note=51, velocity=95, time=0),
    Message('note_on', channel=2, note=44, velocity=95, time=0),
    Message('note_off', channel=2, note=56, velocity=80, time=240),
    Message('note_off', channel=2, note=51, velocity=80, time=0),
    Message('note_off', channel=2, note=44, velocity=80, time=0),
    Message('note_on', channel=2, note=60, velocity=95, time=0),
    Message('note_on', channel=2, note=55, velocity=95, time=0),
    Message('note_on', channel=2, note=48, velocity=95, time=0),
    Message('note_off', channel=2, note=60, velocity=80, time=480),
    Message('note_off', channel=2, note=55, velocity=80, time=0),
    Message('note_off', channel=2, note=48, velocity=80, time=0),
    Message('note_on', channel=2, note=60, velocity=95, time=0),
    Message('note_on', channel=2, note=55, velocity=95, time=0),
    Message('note_on', channel=2, note=48, velocity=95, time=0),
    Message('note_off', channel=2, note=60, velocity=80, time=480),
    Message('note_off', channel=2, note=55, velocity=80, time=0),
    Message('note_off', channel=2, note=48, velocity=80, time=0),
    Message('note_on', channel=2, note=60, velocity=95, time=0),
    Message('note_on', channel=2, note=55, velocity=95, time=0),
    Message('note_on', channel=2, note=48, velocity=95, time=0),
    Message('note_off', channel=2, note=60, velocity=80, time=480),
    Message('note_off', channel=2, note=55, velocity=80, time=0),
    Message('note_off', channel=2, note=48, velocity=80, time=0),
    Message('note_on', channel=2, note=60, velocity=95, time=0),
    Message('note_on', channel=2, note=55, velocity=95, time=0),
    Message('note_on', channel=2, note=48, velocity=95, time=0),
    Message('note_off', channel=2, note=60, velocity=80, time=480),
    Message('note_off', channel=2, note=55, velocity=80, time=0),
    Message('note_off', channel=2, note=48, velocity=80, time=0),
    Message('note_on', channel=2, note=60, velocity=95, time=0),
    Message('note_on', channel=2, note=55, velocity=95, time=0),
    Message('note_on', channel=2, note=48, velocity=95, time=0),
    Message('note_off', channel=2, note=60, velocity=80, time=480),
    Message('note_off', channel=2, note=55, velocity=80, time=0),
    Message('note_off', channel=2, note=48, velocity=80, time=0),
    Message('program_change', channel=2, program=25, time=1440),
    Message('program_change', channel=3, program=25, time=0),
    Message('control_change', channel=2, control=7, value=88, time=0),
    Message('control_change', channel=3, control=7, value=88, time=0),
    Message('note_on', channel=2, note=53, velocity=95, time=0),
    Message('note_on', channel=2, note=48, velocity=95, time=0),
    Message('note_on', channel=2, note=41, velocity=95, time=0),
    Message('note_off', channel=2, note=53, velocity=80, time=480),
    Message('note_off', channel=2, note=48, velocity=80, time=0),
    Message('note_off', channel=2, note=41, velocity=80, time=0),
    Message('note_on', channel=2, note=53, velocity=63, time=0),
    Message('note_on', channel=2, note=48, velocity=63, time=0),
    Message('note_on', channel=2, note=41, velocity=63, time=0),
    Message('note_off', channel=2, note=53, velocity=80, time=480),
    Message('note_off', channel=2, note=48, velocity=80, time=0),
    Message('note_off', channel=2, note=41, velocity=80, time=0),
    Message('note_on', channel=2, note=53, velocity=95, time=0),
    Message('note_on', channel=2, note=48, velocity=95, time=0),
    Message('note_on', channel=2, note=41, velocity=95, time=0),
    Message('note_off', channel=2, note=53, velocity=80, time=480),
    Message('note_off', channel=2, note=48, velocity=80, time=0),
    Message('note_off', channel=2, note=41, velocity=80, time=0),
    Message('note_on', channel=2, note=50, velocity=95, time=0),
    Message('note_on', channel=2, note=45, velocity=95, time=0),
    Message('note_on', channel=2, note=40, velocity=95, time=0),
    Message('note_off', channel=2, note=50, velocity=80, time=20),
    Message('note_off', channel=2, note=45, velocity=80, time=0),
    Message('note_off', channel=2, note=40, velocity=80, time=0),
    Message('note_on', channel=2, note=50, velocity=95, time=220),
    Message('note_on', channel=2, note=45, velocity=95, time=0),
    Message('note_on', channel=2, note=40, velocity=95, time=0),
    Message('note_off', channel=2, note=50, velocity=80, time=20),
    Message('note_off', channel=2, note=45, velocity=80, time=0),
    Message('note_off', channel=2, note=40, velocity=80, time=0),
    Message('note_on', channel=2, note=56, velocity=95, time=220),
    Message('note_on', channel=2, note=51, velocity=95, time=0),
    Message('note_on', channel=2, note=44, velocity=95, time=0),
    Message('note_off', channel=2, note=56, velocity=80, time=480),
    Message('note_off', channel=2, note=51, velocity=80, time=0),
    Message('note_off', channel=2, note=44, velocity=80, time=0),
    Message('note_on', channel=2, note=56, velocity=63, time=0),
    Message('note_on', channel=2, note=51, velocity=63, time=0),
    Message('note_on', channel=2, note=44, velocity=63, time=0),
    Message('note_off', channel=2, note=56, velocity=80, time=480),
    Message('note_off', channel=2, note=51, velocity=80, time=0),
    Message('note_off', channel=2, note=44, velocity=80, time=0),
    Message('note_on', channel=2, note=56, velocity=95, time=0),
    Message('note_on', channel=2, note=51, velocity=95, time=0),
    Message('note_on', channel=2, note=44, velocity=95, time=0),
    Message('note_off', channel=2, note=56, velocity=80, time=480),
    Message('note_off', channel=2, note=51, velocity=80, time=0),
    Message('note_off', channel=2, note=44, velocity=80, time=0),
    Message('note_on', channel=2, note=50, velocity=95, time=0),
    Message('note_on', channel=2, note=45, velocity=95, time=0),
    Message('note_on', channel=2, note=40, velocity=95, time=0),
    Message('note_off', channel=2, note=50, velocity=80, time=20),
    Message('note_off', channel=2, note=45, velocity=80, time=0),
    Message('note_off', channel=2, note=40, velocity=80, time=0),
    Message('note_on', channel=2, note=50, velocity=95, time=220),
    Message('note_on', channel=2, note=45, velocity=95, time=0),
    Message('note_on', channel=2, note=40, velocity=95, time=0),
    Message('note_off', channel=2, note=50, velocity=80, time=20),
    Message('note_off', channel=2, note=45, velocity=80, time=0),
    Message('note_off', channel=2, note=40, velocity=80, time=0),
    Message('note_on', channel=2, note=63, velocity=95, time=220),
    Message('note_on', channel=2, note=58, velocity=95, time=0),
    Message('note_on', channel=2, note=51, velocity=95, time=0),
    Message('note_off', channel=2, note=63, velocity=80, time=480),
    Message('note_off', channel=2, note=58, velocity=80, time=0),
    Message('note_off', channel=2, note=51, velocity=80, time=0),
    Message('note_on', channel=2, note=63, velocity=63, time=0),
    Message('note_on', channel=2, note=58, velocity=63, time=0),
    Message('note_on', channel=2, note=51, velocity=63, time=0),
    Message('note_off', channel=2, note=63, velocity=80, time=480),
    Message('note_off', channel=2, note=58, velocity=80, time=0),
    Message('note_off', channel=2, note=51, velocity=80, time=0),
    Message('note_on', channel=2, note=63, velocity=95, time=0),
    Message('note_on', channel=2, note=58, velocity=95, time=0),
    Message('note_on', channel=2, note=51, velocity=95, time=0),
    Message('note_off', channel=2, note=63, velocity=80, time=480),
    Message('note_off', channel=2, note=58, velocity=80, time=0),
    Message('note_off', channel=2, note=51, velocity=80, time=0),
    Message('note_on', channel=2, note=55, velocity=95, time=0),
    Message('note_on', channel=2, note=50, velocity=95, time=0),
    Message('note_on', channel=2, note=45, velocity=95, time=0),
    Message('note_off', channel=2, note=55, velocity=80, time=20),
    Message('note_off', channel=2, note=50, velocity=80, time=0),
    Message('note_off', channel=2, note=45, velocity=80, time=0),
    Message('note_on', channel=2, note=55, velocity=95, time=220),
    Message('note_on', channel=2, note=50, velocity=95, time=0),
    Message('note_on', channel=2, note=45, velocity=95, time=0),
    Message('note_off', channel=2, note=55, velocity=80, time=20),
    Message('note_off', channel=2, note=50, velocity=80, time=0),
    Message('note_off', channel=2, note=45, velocity=80, time=0),
    Message('note_on', channel=2, note=58, velocity=95, time=220),
    Message('note_on', channel=2, note=53, velocity=95, time=0),
    Message('note_on', channel=2, note=46, velocity=95, time=0),
    Message('note_off', channel=2, note=58, velocity=80, time=480),
    Message('note_off', channel=2, note=53, velocity=80, time=0),
    Message('note_off', channel=2, note=46, velocity=80, time=0),
    Message('note_on', channel=2, note=58, velocity=63, time=0),
    Message('note_on', channel=2, note=53, velocity=63, time=0),
    Message('note_on', channel=2, note=46, velocity=63, time=0),
    Message('note_off', channel=2, note=58, velocity=80, time=480),
    Message('note_off', channel=2, note=53, velocity=80, time=0),
    Message('note_off', channel=2, note=46, velocity=80, time=0),
    Message('note_on', channel=2, note=58, velocity=95, time=0),
    Message('note_on', channel=2, note=53, velocity=95, time=0),
    Message('note_on', channel=2, note=46, velocity=95, time=0),
    Message('note_off', channel=2, note=58, velocity=80, time=480),
    Message('note_off', channel=2, note=53, velocity=80, time=0),
    Message('note_off', channel=2, note=46, velocity=80, time=0),
    Message('note_on', channel=2, note=50, velocity=95, time=0),
    Message('note_on', channel=2, note=45, velocity=95, time=0),
    Message('note_on', channel=2, note=40, velocity=95, time=0),
    Message('note_off', channel=2, note=50, velocity=80, time=20),
    Message('note_off', channel=2, note=45, velocity=80, time=0),
    Message('note_off', channel=2, note=40, velocity=80, time=0),
    Message('note_on', channel=2, note=50, velocity=95, time=220),
    Message('note_on', channel=2, note=45, velocity=95, time=0),
    Message('note_on', channel=2, note=40, velocity=95, time=0),
    Message('note_off', channel=2, note=50, velocity=80, time=20),
    Message('note_off', channel=2, note=45, velocity=80, time=0),
    Message('note_off', channel=2, note=40, velocity=80, time=0),
    Message('note_on', channel=2, note=53, velocity=95, time=220),
    Message('note_on', channel=2, note=48, velocity=95, time=0),
    Message('note_on', channel=2, note=41, velocity=95, time=0),
    Message('note_off', channel=2, note=53, velocity=80, time=480),
    Message('note_off', channel=2, note=48, velocity=80, time=0),
    Message('note_off', channel=2, note=41, velocity=80, time=0),
    Message('note_on', channel=2, note=53, velocity=63, time=0),
    Message('note_on', channel=2, note=48, velocity=63, time=0),
    Message('note_on', channel=2, note=41, velocity=63, time=0),
    Message('note_off', channel=2, note=53, velocity=80, time=480),
    Message('note_off', channel=2, note=48, velocity=80, time=0),
    Message('note_off', channel=2, note=41, velocity=80, time=0),
    Message('note_on', channel=2, note=53, velocity=95, time=0),
    Message('note_on', channel=2, note=48, velocity=95, time=0),
    Message('note_on', channel=2, note=41, velocity=95, time=0),
    Message('note_off', channel=2, note=53, velocity=80, time=480),
    Message('note_off', channel=2, note=48, velocity=80, time=0),
    Message('note_off', channel=2, note=41, velocity=80, time=0),
    Message('note_on', channel=2, note=50, velocity=95, time=0),
    Message('note_on', channel=2, note=45, velocity=95, time=0),
    Message('note_on', channel=2, note=40, velocity=95, time=0),
    Message('note_off', channel=2, note=50, velocity=80, time=20),
    Message('note_off', channel=2, note=45, velocity=80, time=0),
    Message('note_off', channel=2, note=40, velocity=80, time=0),
    Message('note_on', channel=2, note=50, velocity=95, time=220),
    Message('note_on', channel=2, note=45, velocity=95, time=0),
    Message('note_on', channel=2, note=40, velocity=95, time=0),
    Message('note_off', channel=2, note=50, velocity=80, time=20),
    Message('note_off', channel=2, note=45, velocity=80, time=0),
    Message('note_off', channel=2, note=40, velocity=80, time=0),
    Message('note_on', channel=2, note=56, velocity=95, time=220),
    Message('note_on', channel=2, note=51, velocity=95, time=0),
    Message('note_on', channel=2, note=44, velocity=95, time=0),
    Message('note_off', channel=2, note=56, velocity=80, time=480),
    Message('note_off', channel=2, note=51, velocity=80, time=0),
    Message('note_off', channel=2, note=44, velocity=80, time=0),
    Message('note_on', channel=2, note=56, velocity=63, time=0),
    Message('note_on', channel=2, note=51, velocity=63, time=0),
    Message('note_on', channel=2, note=44, velocity=63, time=0),
    Message('note_off', channel=2, note=56, velocity=80, time=480),
    Message('note_off', channel=2, note=51, velocity=80, time=0),
    Message('note_off', channel=2, note=44, velocity=80, time=0),
    Message('note_on', channel=2, note=56, velocity=95, time=0),
    Message('note_on', channel=2, note=51, velocity=95, time=0),
    Message('note_on', channel=2, note=44, velocity=95, time=0),
    Message('note_off', channel=2, note=56, velocity=80, time=480),
    Message('note_off', channel=2, note=51, velocity=80, time=0),
    Message('note_off', channel=2, note=44, velocity=80, time=0),
    Message('note_on', channel=2, note=50, velocity=95, time=0),
    Message('note_on', channel=2, note=45, velocity=95, time=0),
    Message('note_on', channel=2, note=40, velocity=95, time=0),
    Message('note_off', channel=2, note=50, velocity=80, time=20),
    Message('note_off', channel=2, note=45, velocity=80, time=0),
    Message('note_off', channel=2, note=40, velocity=80, time=0),
    Message('note_on', channel=2, note=50, velocity=95, time=220),
    Message('note_on', channel=2, note=45, velocity=95, time=0),
    Message('note_on', channel=2, note=40, velocity=95, time=0),
    Message('note_off', channel=2, note=50, velocity=80, time=20),
    Message('note_off', channel=2, note=45, velocity=80, time=0),
    Message('note_off', channel=2, note=40, velocity=80, time=0),
    Message('note_on', channel=2, note=63, velocity=95, time=220),
    Message('note_on', channel=2, note=58, velocity=95, time=0),
    Message('note_on', channel=2, note=51, velocity=95, time=0),
    Message('note_off', channel=2, note=63, velocity=80, time=480),
    Message('note_off', channel=2, note=58, velocity=80, time=0),
    Message('note_off', channel=2, note=51, velocity=80, time=0),
    Message('note_on', channel=2, note=63, velocity=63, time=0),
    Message('note_on', channel=2, note=58, velocity=63, time=0),
    Message('note_on', channel=2, note=51, velocity=63, time=0),
    Message('note_off', channel=2, note=63, velocity=80, time=480),
    Message('note_off', channel=2, note=58, velocity=80, time=0),
    Message('note_off', channel=2, note=51, velocity=80, time=0),
    Message('note_on', channel=2, note=63, velocity=95, time=0),
    Message('note_on', channel=2, note=58, velocity=95, time=0),
    Message('note_on', channel=2, note=51, velocity=95, time=0),
    Message('note_off', channel=2, note=63, velocity=80, time=480),
    Message('note_off', channel=2, note=58, velocity=80, time=0),
    Message('note_off', channel=2, note=51, velocity=80, time=0),
    Message('note_on', channel=2, note=55, velocity=95, time=0),
    Message('note_on', channel=2, note=50, velocity=95, time=0),
    Message('note_on', channel=2, note=45, velocity=95, time=0),
    Message('note_off', channel=2, note=55, velocity=80, time=20),
    Message('note_off', channel=2, note=50, velocity=80, time=0),
    Message('note_off', channel=2, note=45, velocity=80, time=0),
    Message('note_on', channel=2, note=55, velocity=95, time=220),
    Message('note_on', channel=2, note=50, velocity=95, time=0),
    Message('note_on', channel=2, note=45, velocity=95, time=0),
    Message('note_off', channel=2, note=55, velocity=80, time=20),
    Message('note_off', channel=2, note=50, velocity=80, time=0),
    Message('note_off', channel=2, note=45, velocity=80, time=0),
    Message('note_on', channel=2, note=58, velocity=95, time=220),
    Message('note_on', channel=2, note=53, velocity=95, time=0),
    Message('note_on', channel=2, note=46, velocity=95, time=0),
    Message('note_off', channel=2, note=58, velocity=80, time=480),
    Message('note_off', channel=2, note=53, velocity=80, time=0),
    Message('note_off', channel=2, note=46, velocity=80, time=0),
    Message('note_on', channel=2, note=58, velocity=63, time=0),
    Message('note_on', channel=2, note=53, velocity=63, time=0),
    Message('note_on', channel=2, note=46, velocity=63, time=0),
    Message('note_off', channel=2, note=58, velocity=80, time=480),
    Message('note_off', channel=2, note=53, velocity=80, time=0),
    Message('note_off', channel=2, note=46, velocity=80, time=0),
    Message('note_on', channel=2, note=58, velocity=95, time=0),
    Message('note_on', channel=2, note=53, velocity=95, time=0),
    Message('note_on', channel=2, note=46, velocity=95, time=0),
    Message('note_off', channel=2, note=58, velocity=80, time=480),
    Message('note_off', channel=2, note=53, velocity=80, time=0),
    Message('note_off', channel=2, note=46, velocity=80, time=0),
    Message('note_on', channel=2, note=50, velocity=95, time=0),
    Message('note_on', channel=2, note=45, velocity=95, time=0),
    Message('note_on', channel=2, note=40, velocity=95, time=0),
    Message('note_off', channel=2, note=50, velocity=80, time=20),
    Message('note_off', channel=2, note=45, velocity=80, time=0),
    Message('note_off', channel=2, note=40, velocity=80, time=0),
    Message('note_on', channel=2, note=50, velocity=95, time=220),
    Message('note_on', channel=2, note=45, velocity=95, time=0),
    Message('note_on', channel=2, note=40, velocity=95, time=0),
    Message('note_off', channel=2, note=50, velocity=80, time=20),
    Message('note_off', channel=2, note=45, velocity=80, time=0),
    Message('note_off', channel=2, note=40, velocity=80, time=0),
    Message('note_on', channel=2, note=53, velocity=95, time=220),
    Message('note_on', channel=2, note=48, velocity=95, time=0),
    Message('note_on', channel=2, note=41, velocity=95, time=0),
    Message('note_off', channel=2, note=53, velocity=80, time=480),
    Message('note_off', channel=2, note=48, velocity=80, time=0),
    Message('note_off', channel=2, note=41, velocity=80, time=0),
    Message('note_on', channel=2, note=53, velocity=63, time=0),
    Message('note_on', channel=2, note=48, velocity=63, time=0),
    Message('note_on', channel=2, note=41, velocity=63, time=0),
    Message('note_off', channel=2, note=53, velocity=80, time=480),
    Message('note_off', channel=2, note=48, velocity=80, time=0),
    Message('note_off', channel=2, note=41, velocity=80, time=0),
    Message('note_on', channel=2, note=53, velocity=95, time=0),
    Message('note_on', channel=2, note=48, velocity=95, time=0),
    Message('note_on', channel=2, note=41, velocity=95, time=0),
    Message('note_off', channel=2, note=53, velocity=80, time=480),
    Message('note_off', channel=2, note=48, velocity=80, time=0),
    Message('note_off', channel=2, note=41, velocity=80, time=0),
    Message('note_on', channel=2, note=50, velocity=95, time=0),
    Message('note_on', channel=2, note=45, velocity=95, time=0),
    Message('note_on', channel=2, note=40, velocity=95, time=0),
    Message('note_off', channel=2, note=50, velocity=80, time=20),
    Message('note_off', channel=2, note=45, velocity=80, time=0),
    Message('note_off', channel=2, note=40, velocity=80, time=0),
    Message('note_on', channel=2, note=50, velocity=95, time=220),
    Message('note_on', channel=2, note=45, velocity=95, time=0),
    Message('note_on', channel=2, note=40, velocity=95, time=0),
    Message('note_off', channel=2, note=50, velocity=80, time=20),
    Message('note_off', channel=2, note=45, velocity=80, time=0),
    Message('note_off', channel=2, note=40, velocity=80, time=0),
    Message('note_on', channel=2, note=56, velocity=95, time=220),
    Message('note_on', channel=2, note=51, velocity=95, time=0),
    Message('note_on', channel=2, note=44, velocity=95, time=0),
    Message('note_off', channel=2, note=56, velocity=80, time=480),
    Message('note_off', channel=2, note=51, velocity=80, time=0),
    Message('note_off', channel=2, note=44, velocity=80, time=0),
    Message('note_on', channel=2, note=56, velocity=63, time=0),
    Message('note_on', channel=2, note=51, velocity=63, time=0),
    Message('note_on', channel=2, note=44, velocity=63, time=0),
    Message('note_off', channel=2, note=56, velocity=80, time=480),
    Message('note_off', channel=2, note=51, velocity=80, time=0),
    Message('note_off', channel=2, note=44, velocity=80, time=0),
    Message('note_on', channel=2, note=56, velocity=95, time=0),
    Message('note_on', channel=2, note=51, velocity=95, time=0),
    Message('note_on', channel=2, note=44, velocity=95, time=0),
    Message('note_off', channel=2, note=56, velocity=80, time=480),
    Message('note_off', channel=2, note=51, velocity=80, time=0),
    Message('note_off', channel=2, note=44, velocity=80, time=0),
    Message('note_on', channel=2, note=50, velocity=95, time=0),
    Message('note_on', channel=2, note=45, velocity=95, time=0),
    Message('note_on', channel=2, note=40, velocity=95, time=0),
    Message('note_off', channel=2, note=50, velocity=80, time=20),
    Message('note_off', channel=2, note=45, velocity=80, time=0),
    Message('note_off', channel=2, note=40, velocity=80, time=0),
    Message('note_on', channel=2, note=50, velocity=95, time=220),
    Message('note_on', channel=2, note=45, velocity=95, time=0),
    Message('note_on', channel=2, note=40, velocity=95, time=0),
    Message('note_off', channel=2, note=50, velocity=80, time=20),
    Message('note_off', channel=2, note=45, velocity=80, time=0),
    Message('note_off', channel=2, note=40, velocity=80, time=0),
    Message('note_on', channel=2, note=63, velocity=95, time=220),
    Message('note_on', channel=2, note=58, velocity=95, time=0),
    Message('note_on', channel=2, note=51, velocity=95, time=0),
    Message('note_off', channel=2, note=63, velocity=80, time=480),
    Message('note_off', channel=2, note=58, velocity=80, time=0),
    Message('note_off', channel=2, note=51, velocity=80, time=0),
    Message('note_on', channel=2, note=63, velocity=63, time=0),
    Message('note_on', channel=2, note=58, velocity=63, time=0),
    Message('note_on', channel=2, note=51, velocity=63, time=0),
    Message('note_off', channel=2, note=63, velocity=80, time=480),
    Message('note_off', channel=2, note=58, velocity=80, time=0),
    Message('note_off', channel=2, note=51, velocity=80, time=0),
    Message('note_on', channel=2, note=63, velocity=95, time=0),
    Message('note_on', channel=2, note=58, velocity=95, time=0),
    Message('note_on', channel=2, note=51, velocity=95, time=0),
    Message('note_off', channel=2, note=63, velocity=80, time=480),
    Message('note_off', channel=2, note=58, velocity=80, time=0),
    Message('note_off', channel=2, note=51, velocity=80, time=0),
    Message('note_on', channel=2, note=55, velocity=95, time=0),
    Message('note_on', channel=2, note=50, velocity=95, time=0),
    Message('note_on', channel=2, note=45, velocity=95, time=0),
    Message('note_off', channel=2, note=55, velocity=80, time=20),
    Message('note_off', channel=2, note=50, velocity=80, time=0),
    Message('note_off', channel=2, note=45, velocity=80, time=0),
    Message('note_on', channel=2, note=55, velocity=95, time=220),
    Message('note_on', channel=2, note=50, velocity=95, time=0),
    Message('note_on', channel=2, note=45, velocity=95, time=0),
    Message('note_off', channel=2, note=55, velocity=80, time=20),
    Message('note_off', channel=2, note=50, velocity=80, time=0),
    Message('note_off', channel=2, note=45, velocity=80, time=0),
    Message('note_on', channel=2, note=58, velocity=95, time=220),
    Message('note_on', channel=2, note=53, velocity=95, time=0),
    Message('note_on', channel=2, note=46, velocity=95, time=0),
    Message('note_off', channel=2, note=58, velocity=80, time=480),
    Message('note_off', channel=2, note=53, velocity=80, time=0),
    Message('note_off', channel=2, note=46, velocity=80, time=0),
    Message('note_on', channel=2, note=58, velocity=63, time=0),
    Message('note_on', channel=2, note=53, velocity=63, time=0),
    Message('note_on', channel=2, note=46, velocity=63, time=0),
    Message('note_off', channel=2, note=58, velocity=80, time=480),
    Message('note_off', channel=2, note=53, velocity=80, time=0),
    Message('note_off', channel=2, note=46, velocity=80, time=0),
    Message('note_on', channel=2, note=58, velocity=95, time=0),
    Message('note_on', channel=2, note=53, velocity=95, time=0),
    Message('note_on', channel=2, note=46, velocity=95, time=0),
    Message('note_off', channel=2, note=58, velocity=80, time=480),
    Message('note_off', channel=2, note=53, velocity=80, time=0),
    Message('note_off', channel=2, note=46, velocity=80, time=0),
    Message('note_on', channel=2, note=50, velocity=95, time=0),
    Message('note_on', channel=2, note=45, velocity=95, time=0),
    Message('note_on', channel=2, note=40, velocity=95, time=0),
    Message('note_off', channel=2, note=50, velocity=80, time=20),
    Message('note_off', channel=2, note=45, velocity=80, time=0),
    Message('note_off', channel=2, note=40, velocity=80, time=0),
    Message('note_on', channel=2, note=50, velocity=95, time=220),
    Message('note_on', channel=2, note=45, velocity=95, time=0),
    Message('note_on', channel=2, note=40, velocity=95, time=0),
    Message('note_off', channel=2, note=50, velocity=80, time=20),
    Message('note_off', channel=2, note=45, velocity=80, time=0),
    Message('note_off', channel=2, note=40, velocity=80, time=0),
    Message('note_on', channel=2, note=53, velocity=95, time=220),
    Message('note_on', channel=2, note=48, velocity=95, time=0),
    Message('note_on', channel=2, note=41, velocity=95, time=0),
    Message('note_off', channel=2, note=53, velocity=80, time=480),
    Message('note_off', channel=2, note=48, velocity=80, time=0),
    Message('note_off', channel=2, note=41, velocity=80, time=0),
    Message('note_on', channel=2, note=53, velocity=63, time=0),
    Message('note_on', channel=2, note=48, velocity=63, time=0),
    Message('note_on', channel=2, note=41, velocity=63, time=0),
    Message('note_off', channel=2, note=53, velocity=80, time=480),
    Message('note_off', channel=2, note=48, velocity=80, time=0),
    Message('note_off', channel=2, note=41, velocity=80, time=0),
    Message('note_on', channel=2, note=53, velocity=95, time=0),
    Message('note_on', channel=2, note=48, velocity=95, time=0),
    Message('note_on', channel=2, note=41, velocity=95, time=0),
    Message('note_off', channel=2, note=53, velocity=80, time=480),
    Message('note_off', channel=2, note=48, velocity=80, time=0),
    Message('note_off', channel=2, note=41, velocity=80, time=0),
    Message('note_on', channel=2, note=50, velocity=95, time=0),
    Message('note_on', channel=2, note=45, velocity=95, time=0),
    Message('note_on', channel=2, note=40, velocity=95, time=0),
    Message('note_off', channel=2, note=50, velocity=80, time=20),
    Message('note_off', channel=2, note=45, velocity=80, time=0),
    Message('note_off', channel=2, note=40, velocity=80, time=0),
    Message('note_on', channel=2, note=50, velocity=95, time=220),
    Message('note_on', channel=2, note=45, velocity=95, time=0),
    Message('note_on', channel=2, note=40, velocity=95, time=0),
    Message('note_off', channel=2, note=50, velocity=80, time=20),
    Message('note_off', channel=2, note=45, velocity=80, time=0),
    Message('note_off', channel=2, note=40, velocity=80, time=0),
    Message('note_on', channel=2, note=56, velocity=95, time=220),
    Message('note_on', channel=2, note=51, velocity=95, time=0),
    Message('note_on', channel=2, note=44, velocity=95, time=0),
    Message('note_off', channel=2, note=56, velocity=80, time=480),
    Message('note_off', channel=2, note=51, velocity=80, time=0),
    Message('note_off', channel=2, note=44, velocity=80, time=0),
    Message('note_on', channel=2, note=56, velocity=63, time=0),
    Message('note_on', channel=2, note=51, velocity=63, time=0),
    Message('note_on', channel=2, note=44, velocity=63, time=0),
    Message('note_off', channel=2, note=56, velocity=80, time=480),
    Message('note_off', channel=2, note=51, velocity=80, time=0),
    Message('note_off', channel=2, note=44, velocity=80, time=0),
    Message('note_on', channel=2, note=56, velocity=95, time=0),
    Message('note_on', channel=2, note=51, velocity=95, time=0),
    Message('note_on', channel=2, note=44, velocity=95, time=0),
    Message('note_off', channel=2, note=56, velocity=80, time=480),
    Message('note_off', channel=2, note=51, velocity=80, time=0),
    Message('note_off', channel=2, note=44, velocity=80, time=0),
    Message('note_on', channel=2, note=50, velocity=95, time=0),
    Message('note_on', channel=2, note=45, velocity=95, time=0),
    Message('note_on', channel=2, note=40, velocity=95, time=0),
    Message('note_off', channel=2, note=50, velocity=80, time=20),
    Message('note_off', channel=2, note=45, velocity=80, time=0),
    Message('note_off', channel=2, note=40, velocity=80, time=0),
    Message('note_on', channel=2, note=50, velocity=95, time=220),
    Message('note_on', channel=2, note=45, velocity=95, time=0),
    Message('note_on', channel=2, note=40, velocity=95, time=0),
    Message('note_off', channel=2, note=50, velocity=80, time=20),
    Message('note_off', channel=2, note=45, velocity=80, time=0),
    Message('note_off', channel=2, note=40, velocity=80, time=0),
    Message('note_on', channel=2, note=63, velocity=95, time=220),
    Message('note_on', channel=2, note=58, velocity=95, time=0),
    Message('note_on', channel=2, note=51, velocity=95, time=0),
    Message('note_off', channel=2, note=63, velocity=80, time=480),
    Message('note_off', channel=2, note=58, velocity=80, time=0),
    Message('note_off', channel=2, note=51, velocity=80, time=0),
    Message('note_on', channel=2, note=63, velocity=63, time=0),
    Message('note_on', channel=2, note=58, velocity=63, time=0),
    Message('note_on', channel=2, note=51, velocity=63, time=0),
    Message('note_off', channel=2, note=63, velocity=80, time=480),
    Message('note_off', channel=2, note=58, velocity=80, time=0),
    Message('note_off', channel=2, note=51, velocity=80, time=0),
    Message('note_on', channel=2, note=63, velocity=95, time=0),
    Message('note_on', channel=2, note=58, velocity=95, time=0),
    Message('note_on', channel=2, note=51, velocity=95, time=0),
    Message('note_off', channel=2, note=63, velocity=80, time=480),
    Message('note_off', channel=2, note=58, velocity=80, time=0),
    Message('note_off', channel=2, note=51, velocity=80, time=0),
    Message('note_on', channel=2, note=55, velocity=95, time=0),
    Message('note_on', channel=2, note=50, velocity=95, time=0),
    Message('note_on', channel=2, note=45, velocity=95, time=0),
    Message('note_off', channel=2, note=55, velocity=80, time=20),
    Message('note_off', channel=2, note=50, velocity=80, time=0),
    Message('note_off', channel=2, note=45, velocity=80, time=0),
    Message('note_on', channel=2, note=55, velocity=95, time=220),
    Message('note_on', channel=2, note=50, velocity=95, time=0),
    Message('note_on', channel=2, note=45, velocity=95, time=0),
    Message('note_off', channel=2, note=55, velocity=80, time=20),
    Message('note_off', channel=2, note=50, velocity=80, time=0),
    Message('note_off', channel=2, note=45, velocity=80, time=0),
    Message('note_on', channel=2, note=58, velocity=95, time=220),
    Message('note_on', channel=2, note=53, velocity=95, time=0),
    Message('note_on', channel=2, note=46, velocity=95, time=0),
    Message('note_off', channel=2, note=58, velocity=80, time=480),
    Message('note_off', channel=2, note=53, velocity=80, time=0),
    Message('note_off', channel=2, note=46, velocity=80, time=0),
    Message('note_on', channel=2, note=58, velocity=63, time=0),
    Message('note_on', channel=2, note=53, velocity=63, time=0),
    Message('note_on', channel=2, note=46, velocity=63, time=0),
    Message('note_off', channel=2, note=58, velocity=80, time=480),
    Message('note_off', channel=2, note=53, velocity=80, time=0),
    Message('note_off', channel=2, note=46, velocity=80, time=0),
    Message('note_on', channel=2, note=58, velocity=95, time=0),
    Message('note_on', channel=2, note=53, velocity=95, time=0),
    Message('note_on', channel=2, note=46, velocity=95, time=0),
    Message('note_off', channel=2, note=58, velocity=80, time=480),
    Message('note_off', channel=2, note=53, velocity=80, time=0),
    Message('note_off', channel=2, note=46, velocity=80, time=0),
    Message('note_on', channel=2, note=50, velocity=95, time=0),
    Message('note_on', channel=2, note=45, velocity=95, time=0),
    Message('note_on', channel=2, note=40, velocity=95, time=0),
    Message('note_off', channel=2, note=50, velocity=80, time=20),
    Message('note_off', channel=2, note=45, velocity=80, time=0),
    Message('note_off', channel=2, note=40, velocity=80, time=0),
    Message('note_on', channel=2, note=50, velocity=95, time=220),
    Message('note_on', channel=2, note=45, velocity=95, time=0),
    Message('note_on', channel=2, note=40, velocity=95, time=0),
    Message('note_off', channel=2, note=50, velocity=80, time=20),
    Message('note_off', channel=2, note=45, velocity=80, time=0),
    Message('note_off', channel=2, note=40, velocity=80, time=0),
    Message('note_on', channel=2, note=53, velocity=95, time=220),
    Message('note_on', channel=2, note=48, velocity=95, time=0),
    Message('note_on', channel=2, note=41, velocity=95, time=0),
    Message('note_off', channel=2, note=53, velocity=80, time=480),
    Message('note_off', channel=2, note=48, velocity=80, time=0),
    Message('note_off', channel=2, note=41, velocity=80, time=0),
    Message('note_on', channel=2, note=53, velocity=63, time=0),
    Message('note_on', channel=2, note=48, velocity=63, time=0),
    Message('note_on', channel=2, note=41, velocity=63, time=0),
    Message('note_off', channel=2, note=53, velocity=80, time=480),
    Message('note_off', channel=2, note=48, velocity=80, time=0),
    Message('note_off', channel=2, note=41, velocity=80, time=0),
    Message('note_on', channel=2, note=53, velocity=95, time=0),
    Message('note_on', channel=2, note=48, velocity=95, time=0),
    Message('note_on', channel=2, note=41, velocity=95, time=0),
    Message('note_off', channel=2, note=53, velocity=80, time=480),
    Message('note_off', channel=2, note=48, velocity=80, time=0),
    Message('note_off', channel=2, note=41, velocity=80, time=0),
    Message('note_on', channel=2, note=50, velocity=95, time=0),
    Message('note_on', channel=2, note=45, velocity=95, time=0),
    Message('note_on', channel=2, note=40, velocity=95, time=0),
    Message('note_off', channel=2, note=50, velocity=80, time=20),
    Message('note_off', channel=2, note=45, velocity=80, time=0),
    Message('note_off', channel=2, note=40, velocity=80, time=0),
    Message('note_on', channel=2, note=50, velocity=95, time=220),
    Message('note_on', channel=2, note=45, velocity=95, time=0),
    Message('note_on', channel=2, note=40, velocity=95, time=0),
    Message('note_off', channel=2, note=50, velocity=80, time=20),
    Message('note_off', channel=2, note=45, velocity=80, time=0),
    Message('note_off', channel=2, note=40, velocity=80, time=0),
    Message('note_on', channel=2, note=56, velocity=95, time=220),
    Message('note_on', channel=2, note=51, velocity=95, time=0),
    Message('note_on', channel=2, note=44, velocity=95, time=0),
    Message('note_off', channel=2, note=56, velocity=80, time=480),
    Message('note_off', channel=2, note=51, velocity=80, time=0),
    Message('note_off', channel=2, note=44, velocity=80, time=0),
    Message('note_on', channel=2, note=56, velocity=63, time=0),
    Message('note_on', channel=2, note=51, velocity=63, time=0),
    Message('note_on', channel=2, note=44, velocity=63, time=0),
    Message('note_off', channel=2, note=56, velocity=80, time=480),
    Message('note_off', channel=2, note=51, velocity=80, time=0),
    Message('note_off', channel=2, note=44, velocity=80, time=0),
    Message('note_on', channel=2, note=56, velocity=95, time=0),
    Message('note_on', channel=2, note=51, velocity=95, time=0),
    Message('note_on', channel=2, note=44, velocity=95, time=0),
    Message('note_off', channel=2, note=56, velocity=80, time=480),
    Message('note_off', channel=2, note=51, velocity=80, time=0),
    Message('note_off', channel=2, note=44, velocity=80, time=0),
    Message('note_on', channel=2, note=50, velocity=95, time=0),
    Message('note_on', channel=2, note=45, velocity=95, time=0),
    Message('note_on', channel=2, note=40, velocity=95, time=0),
    Message('note_off', channel=2, note=50, velocity=80, time=20),
    Message('note_off', channel=2, note=45, velocity=80, time=0),
    Message('note_off', channel=2, note=40, velocity=80, time=0),
    Message('note_on', channel=2, note=50, velocity=95, time=220),
    Message('note_on', channel=2, note=45, velocity=95, time=0),
    Message('note_on', channel=2, note=40, velocity=95, time=0),
    Message('note_off', channel=2, note=50, velocity=80, time=20),
    Message('note_off', channel=2, note=45, velocity=80, time=0),
    Message('note_off', channel=2, note=40, velocity=80, time=0),
    Message('note_on', channel=2, note=63, velocity=95, time=220),
    Message('note_on', channel=2, note=58, velocity=95, time=0),
    Message('note_on', channel=2, note=51, velocity=95, time=0),
    Message('note_off', channel=2, note=63, velocity=80, time=480),
    Message('note_off', channel=2, note=58, velocity=80, time=0),
    Message('note_off', channel=2, note=51, velocity=80, time=0),
    Message('note_on', channel=2, note=63, velocity=63, time=0),
    Message('note_on', channel=2, note=58, velocity=63, time=0),
    Message('note_on', channel=2, note=51, velocity=63, time=0),
    Message('note_off', channel=2, note=63, velocity=80, time=480),
    Message('note_off', channel=2, note=58, velocity=80, time=0),
    Message('note_off', channel=2, note=51, velocity=80, time=0),
    Message('note_on', channel=2, note=63, velocity=95, time=0),
    Message('note_on', channel=2, note=58, velocity=95, time=0),
    Message('note_on', channel=2, note=51, velocity=95, time=0),
    Message('note_off', channel=2, note=63, velocity=80, time=480),
    Message('note_off', channel=2, note=58, velocity=80, time=0),
    Message('note_off', channel=2, note=51, velocity=80, time=0),
    Message('note_on', channel=2, note=55, velocity=95, time=0),
    Message('note_on', channel=2, note=50, velocity=95, time=0),
    Message('note_on', channel=2, note=45, velocity=95, time=0),
    Message('note_off', channel=2, note=55, velocity=80, time=20),
    Message('note_off', channel=2, note=50, velocity=80, time=0),
    Message('note_off', channel=2, note=45, velocity=80, time=0),
    Message('note_on', channel=2, note=55, velocity=95, time=220),
    Message('note_on', channel=2, note=50, velocity=95, time=0),
    Message('note_on', channel=2, note=45, velocity=95, time=0),
    Message('note_off', channel=2, note=55, velocity=80, time=20),
    Message('note_off', channel=2, note=50, velocity=80, time=0),
    Message('note_off', channel=2, note=45, velocity=80, time=0),
    Message('note_on', channel=2, note=58, velocity=95, time=220),
    Message('note_on', channel=2, note=53, velocity=95, time=0),
    Message('note_on', channel=2, note=46, velocity=95, time=0),
    Message('note_off', channel=2, note=58, velocity=80, time=480),
    Message('note_off', channel=2, note=53, velocity=80, time=0),
    Message('note_off', channel=2, note=46, velocity=80, time=0),
    Message('note_on', channel=2, note=58, velocity=63, time=0),
    Message('note_on', channel=2, note=53, velocity=63, time=0),
    Message('note_on', channel=2, note=46, velocity=63, time=0),
    Message('note_off', channel=2, note=58, velocity=80, time=480),
    Message('note_off', channel=2, note=53, velocity=80, time=0),
    Message('note_off', channel=2, note=46, velocity=80, time=0),
    Message('note_on', channel=2, note=58, velocity=95, time=0),
    Message('note_on', channel=2, note=53, velocity=95, time=0),
    Message('note_on', channel=2, note=46, velocity=95, time=0),
    Message('note_off', channel=2, note=58, velocity=80, time=480),
    Message('note_off', channel=2, note=53, velocity=80, time=0),
    Message('note_off', channel=2, note=46, velocity=80, time=0),
    Message('note_on', channel=2, note=50, velocity=95, time=0),
    Message('note_on', channel=2, note=45, velocity=95, time=0),
    Message('note_on', channel=2, note=40, velocity=95, time=0),
    Message('note_off', channel=2, note=50, velocity=80, time=20),
    Message('note_off', channel=2, note=45, velocity=80, time=0),
    Message('note_off', channel=2, note=40, velocity=80, time=0),
    Message('note_on', channel=2, note=50, velocity=95, time=220),
    Message('note_on', channel=2, note=45, velocity=95, time=0),
    Message('note_on', channel=2, note=40, velocity=95, time=0),
    Message('note_off', channel=2, note=50, velocity=80, time=20),
    Message('note_off', channel=2, note=45, velocity=80, time=0),
    Message('note_off', channel=2, note=40, velocity=80, time=0),
    Message('note_on', channel=2, note=53, velocity=95, time=220),
    Message('note_on', channel=2, note=48, velocity=95, time=0),
    Message('note_on', channel=2, note=41, velocity=95, time=0),
    Message('note_off', channel=2, note=53, velocity=80, time=480),
    Message('note_off', channel=2, note=48, velocity=80, time=0),
    Message('note_off', channel=2, note=41, velocity=80, time=0),
    Message('note_on', channel=2, note=53, velocity=63, time=0),
    Message('note_on', channel=2, note=48, velocity=63, time=0),
    Message('note_on', channel=2, note=41, velocity=63, time=0),
    Message('note_off', channel=2, note=53, velocity=80, time=480),
    Message('note_off', channel=2, note=48, velocity=80, time=0),
    Message('note_off', channel=2, note=41, velocity=80, time=0),
    Message('note_on', channel=2, note=53, velocity=95, time=0),
    Message('note_on', channel=2, note=48, velocity=95, time=0),
    Message('note_on', channel=2, note=41, velocity=95, time=0),
    Message('note_off', channel=2, note=53, velocity=80, time=480),
    Message('note_off', channel=2, note=48, velocity=80, time=0),
    Message('note_off', channel=2, note=41, velocity=80, time=0),
    Message('note_on', channel=2, note=50, velocity=95, time=0),
    Message('note_on', channel=2, note=45, velocity=95, time=0),
    Message('note_on', channel=2, note=40, velocity=95, time=0),
    Message('note_off', channel=2, note=50, velocity=80, time=20),
    Message('note_off', channel=2, note=45, velocity=80, time=0),
    Message('note_off', channel=2, note=40, velocity=80, time=0),
    Message('note_on', channel=2, note=50, velocity=95, time=220),
    Message('note_on', channel=2, note=45, velocity=95, time=0),
    Message('note_on', channel=2, note=40, velocity=95, time=0),
    Message('note_off', channel=2, note=50, velocity=80, time=20),
    Message('note_off', channel=2, note=45, velocity=80, time=0),
    Message('note_off', channel=2, note=40, velocity=80, time=0),
    Message('note_on', channel=2, note=56, velocity=95, time=220),
    Message('note_on', channel=2, note=51, velocity=95, time=0),
    Message('note_on', channel=2, note=44, velocity=95, time=0),
    Message('note_off', channel=2, note=56, velocity=80, time=480),
    Message('note_off', channel=2, note=51, velocity=80, time=0),
    Message('note_off', channel=2, note=44, velocity=80, time=0),
    Message('note_on', channel=2, note=56, velocity=63, time=0),
    Message('note_on', channel=2, note=51, velocity=63, time=0),
    Message('note_on', channel=2, note=44, velocity=63, time=0),
    Message('note_off', channel=2, note=56, velocity=80, time=480),
    Message('note_off', channel=2, note=51, velocity=80, time=0),
    Message('note_off', channel=2, note=44, velocity=80, time=0),
    Message('note_on', channel=2, note=56, velocity=95, time=0),
    Message('note_on', channel=2, note=51, velocity=95, time=0),
    Message('note_on', channel=2, note=44, velocity=95, time=0),
    Message('note_off', channel=2, note=56, velocity=80, time=480),
    Message('note_off', channel=2, note=51, velocity=80, time=0),
    Message('note_off', channel=2, note=44, velocity=80, time=0),
    Message('note_on', channel=2, note=50, velocity=95, time=0),
    Message('note_on', channel=2, note=45, velocity=95, time=0),
    Message('note_on', channel=2, note=40, velocity=95, time=0),
    Message('note_off', channel=2, note=50, velocity=80, time=20),
    Message('note_off', channel=2, note=45, velocity=80, time=0),
    Message('note_off', channel=2, note=40, velocity=80, time=0),
    Message('note_on', channel=2, note=50, velocity=95, time=220),
    Message('note_on', channel=2, note=45, velocity=95, time=0),
    Message('note_on', channel=2, note=40, velocity=95, time=0),
    Message('note_off', channel=2, note=50, velocity=80, time=20),
    Message('note_off', channel=2, note=45, velocity=80, time=0),
    Message('note_off', channel=2, note=40, velocity=80, time=0),
    Message('note_on', channel=2, note=63, velocity=95, time=220),
    Message('note_on', channel=2, note=58, velocity=95, time=0),
    Message('note_on', channel=2, note=51, velocity=95, time=0),
    Message('note_off', channel=2, note=63, velocity=80, time=480),
    Message('note_off', channel=2, note=58, velocity=80, time=0),
    Message('note_off', channel=2, note=51, velocity=80, time=0),
    Message('note_on', channel=2, note=63, velocity=63, time=0),
    Message('note_on', channel=2, note=58, velocity=63, time=0),
    Message('note_on', channel=2, note=51, velocity=63, time=0),
    Message('note_off', channel=2, note=63, velocity=80, time=480),
    Message('note_off', channel=2, note=58, velocity=80, time=0),
    Message('note_off', channel=2, note=51, velocity=80, time=0),
    Message('note_on', channel=2, note=63, velocity=95, time=0),
    Message('note_on', channel=2, note=58, velocity=95, time=0),
    Message('note_on', channel=2, note=51, velocity=95, time=0),
    Message('note_off', channel=2, note=63, velocity=80, time=480),
    Message('note_off', channel=2, note=58, velocity=80, time=0),
    Message('note_off', channel=2, note=51, velocity=80, time=0),
    Message('note_on', channel=2, note=55, velocity=95, time=0),
    Message('note_on', channel=2, note=50, velocity=95, time=0),
    Message('note_on', channel=2, note=45, velocity=95, time=0),
    Message('note_off', channel=2, note=55, velocity=80, time=20),
    Message('note_off', channel=2, note=50, velocity=80, time=0),
    Message('note_off', channel=2, note=45, velocity=80, time=0),
    Message('note_on', channel=2, note=55, velocity=95, time=220),
    Message('note_on', channel=2, note=50, velocity=95, time=0),
    Message('note_on', channel=2, note=45, velocity=95, time=0),
    Message('note_off', channel=2, note=55, velocity=80, time=20),
    Message('note_off', channel=2, note=50, velocity=80, time=0),
    Message('note_off', channel=2, note=45, velocity=80, time=0),
    Message('note_on', channel=2, note=58, velocity=95, time=220),
    Message('note_on', channel=2, note=53, velocity=95, time=0),
    Message('note_on', channel=2, note=46, velocity=95, time=0),
    Message('note_off', channel=2, note=58, velocity=80, time=480),
    Message('note_off', channel=2, note=53, velocity=80, time=0),
    Message('note_off', channel=2, note=46, velocity=80, time=0),
    Message('note_on', channel=2, note=58, velocity=63, time=0),
    Message('note_on', channel=2, note=53, velocity=63, time=0),
    Message('note_on', channel=2, note=46, velocity=63, time=0),
    Message('note_off', channel=2, note=58, velocity=80, time=480),
    Message('note_off', channel=2, note=53, velocity=80, time=0),
    Message('note_off', channel=2, note=46, velocity=80, time=0),
    Message('note_on', channel=2, note=58, velocity=95, time=0),
    Message('note_on', channel=2, note=53, velocity=95, time=0),
    Message('note_on', channel=2, note=46, velocity=95, time=0),
    Message('note_off', channel=2, note=58, velocity=80, time=480),
    Message('note_off', channel=2, note=53, velocity=80, time=0),
    Message('note_off', channel=2, note=46, velocity=80, time=0),
    Message('note_on', channel=2, note=50, velocity=95, time=0),
    Message('note_on', channel=2, note=45, velocity=95, time=0),
    Message('note_on', channel=2, note=40, velocity=95, time=0),
    Message('note_off', channel=2, note=50, velocity=80, time=20),
    Message('note_off', channel=2, note=45, velocity=80, time=0),
    Message('note_off', channel=2, note=40, velocity=80, time=0),
    Message('note_on', channel=2, note=50, velocity=95, time=220),
    Message('note_on', channel=2, note=45, velocity=95, time=0),
    Message('note_on', channel=2, note=40, velocity=95, time=0),
    Message('note_off', channel=2, note=50, velocity=80, time=20),
    Message('note_off', channel=2, note=45, velocity=80, time=0),
    Message('note_off', channel=2, note=40, velocity=80, time=0),
    Message('note_on', channel=2, note=53, velocity=95, time=220),
    Message('note_on', channel=2, note=48, velocity=95, time=0),
    Message('note_on', channel=2, note=41, velocity=95, time=0),
    Message('note_off', channel=2, note=53, velocity=80, time=480),
    Message('note_off', channel=2, note=48, velocity=80, time=0),
    Message('note_off', channel=2, note=41, velocity=80, time=0),
    Message('note_on', channel=2, note=53, velocity=63, time=0),
    Message('note_on', channel=2, note=48, velocity=63, time=0),
    Message('note_on', channel=2, note=41, velocity=63, time=0),
    Message('note_off', channel=2, note=53, velocity=80, time=480),
    Message('note_off', channel=2, note=48, velocity=80, time=0),
    Message('note_off', channel=2, note=41, velocity=80, time=0),
    Message('note_on', channel=2, note=53, velocity=95, time=0),
    Message('note_on', channel=2, note=48, velocity=95, time=0),
    Message('note_on', channel=2, note=41, velocity=95, time=0),
    Message('note_off', channel=2, note=53, velocity=80, time=480),
    Message('note_off', channel=2, note=48, velocity=80, time=0),
    Message('note_off', channel=2, note=41, velocity=80, time=0),
    Message('note_on', channel=2, note=50, velocity=95, time=0),
    Message('note_on', channel=2, note=45, velocity=95, time=0),
    Message('note_on', channel=2, note=40, velocity=95, time=0),
    Message('note_off', channel=2, note=50, velocity=80, time=20),
    Message('note_off', channel=2, note=45, velocity=80, time=0),
    Message('note_off', channel=2, note=40, velocity=80, time=0),
    Message('note_on', channel=2, note=50, velocity=95, time=220),
    Message('note_on', channel=2, note=45, velocity=95, time=0),
    Message('note_on', channel=2, note=40, velocity=95, time=0),
    Message('note_off', channel=2, note=50, velocity=80, time=20),
    Message('note_off', channel=2, note=45, velocity=80, time=0),
    Message('note_off', channel=2, note=40, velocity=80, time=0),
    Message('note_on', channel=2, note=56, velocity=95, time=220),
    Message('note_on', channel=2, note=51, velocity=95, time=0),
    Message('note_on', channel=2, note=44, velocity=95, time=0),
    Message('note_off', channel=2, note=56, velocity=80, time=480),
    Message('note_off', channel=2, note=51, velocity=80, time=0),
    Message('note_off', channel=2, note=44, velocity=80, time=0),
    Message('note_on', channel=2, note=56, velocity=63, time=0),
    Message('note_on', channel=2, note=51, velocity=63, time=0),
    Message('note_on', channel=2, note=44, velocity=63, time=0),
    Message('note_off', channel=2, note=56, velocity=80, time=480),
    Message('note_off', channel=2, note=51, velocity=80, time=0),
    Message('note_off', channel=2, note=44, velocity=80, time=0),
    Message('note_on', channel=2, note=56, velocity=95, time=0),
    Message('note_on', channel=2, note=51, velocity=95, time=0),
    Message('note_on', channel=2, note=44, velocity=95, time=0),
    Message('note_off', channel=2, note=56, velocity=80, time=480),
    Message('note_off', channel=2, note=51, velocity=80, time=0),
    Message('note_off', channel=2, note=44, velocity=80, time=0),
    Message('note_on', channel=2, note=50, velocity=95, time=0),
    Message('note_on', channel=2, note=45, velocity=95, time=0),
    Message('note_on', channel=2, note=40, velocity=95, time=0),
    Message('note_off', channel=2, note=50, velocity=80, time=20),
    Message('note_off', channel=2, note=45, velocity=80, time=0),
    Message('note_off', channel=2, note=40, velocity=80, time=0),
    Message('note_on', channel=2, note=50, velocity=95, time=220),
    Message('note_on', channel=2, note=45, velocity=95, time=0),
    Message('note_on', channel=2, note=40, velocity=95, time=0),
    Message('note_off', channel=2, note=50, velocity=80, time=20),
    Message('note_off', channel=2, note=45, velocity=80, time=0),
    Message('note_off', channel=2, note=40, velocity=80, time=0),
    Message('note_on', channel=2, note=63, velocity=95, time=220),
    Message('note_on', channel=2, note=58, velocity=95, time=0),
    Message('note_on', channel=2, note=51, velocity=95, time=0),
    Message('note_off', channel=2, note=63, velocity=80, time=480),
    Message('note_off', channel=2, note=58, velocity=80, time=0),
    Message('note_off', channel=2, note=51, velocity=80, time=0),
    Message('note_on', channel=2, note=63, velocity=63, time=0),
    Message('note_on', channel=2, note=58, velocity=63, time=0),
    Message('note_on', channel=2, note=51, velocity=63, time=0),
    Message('note_off', channel=2, note=63, velocity=80, time=480),
    Message('note_off', channel=2, note=58, velocity=80, time=0),
    Message('note_off', channel=2, note=51, velocity=80, time=0),
    Message('note_on', channel=2, note=63, velocity=95, time=0),
    Message('note_on', channel=2, note=58, velocity=95, time=0),
    Message('note_on', channel=2, note=51, velocity=95, time=0),
    Message('note_off', channel=2, note=63, velocity=80, time=480),
    Message('note_off', channel=2, note=58, velocity=80, time=0),
    Message('note_off', channel=2, note=51, velocity=80, time=0),
    Message('note_on', channel=2, note=55, velocity=95, time=0),
    Message('note_on', channel=2, note=50, velocity=95, time=0),
    Message('note_on', channel=2, note=45, velocity=95, time=0),
    Message('note_off', channel=2, note=55, velocity=80, time=20),
    Message('note_off', channel=2, note=50, velocity=80, time=0),
    Message('note_off', channel=2, note=45, velocity=80, time=0),
    Message('note_on', channel=2, note=55, velocity=95, time=220),
    Message('note_on', channel=2, note=50, velocity=95, time=0),
    Message('note_on', channel=2, note=45, velocity=95, time=0),
    Message('note_off', channel=2, note=55, velocity=80, time=20),
    Message('note_off', channel=2, note=50, velocity=80, time=0),
    Message('note_off', channel=2, note=45, velocity=80, time=0),
    Message('note_on', channel=2, note=58, velocity=95, time=220),
    Message('note_on', channel=2, note=53, velocity=95, time=0),
    Message('note_on', channel=2, note=46, velocity=95, time=0),
    Message('note_off', channel=2, note=58, velocity=80, time=480),
    Message('note_off', channel=2, note=53, velocity=80, time=0),
    Message('note_off', channel=2, note=46, velocity=80, time=0),
    Message('note_on', channel=2, note=58, velocity=63, time=0),
    Message('note_on', channel=2, note=53, velocity=63, time=0),
    Message('note_on', channel=2, note=46, velocity=63, time=0),
    Message('note_off', channel=2, note=58, velocity=80, time=480),
    Message('note_off', channel=2, note=53, velocity=80, time=0),
    Message('note_off', channel=2, note=46, velocity=80, time=0),
    Message('note_on', channel=2, note=58, velocity=95, time=0),
    Message('note_on', channel=2, note=53, velocity=95, time=0),
    Message('note_on', channel=2, note=46, velocity=95, time=0),
    Message('note_off', channel=2, note=58, velocity=80, time=480),
    Message('note_off', channel=2, note=53, velocity=80, time=0),
    Message('note_off', channel=2, note=46, velocity=80, time=0),
    Message('note_on', channel=2, note=50, velocity=95, time=0),
    Message('note_on', channel=2, note=45, velocity=95, time=0),
    Message('note_on', channel=2, note=40, velocity=95, time=0),
    Message('note_off', channel=2, note=50, velocity=80, time=20),
    Message('note_off', channel=2, note=45, velocity=80, time=0),
    Message('note_off', channel=2, note=40, velocity=80, time=0),
    Message('note_on', channel=2, note=50, velocity=95, time=220),
    Message('note_on', channel=2, note=45, velocity=95, time=0),
    Message('note_on', channel=2, note=40, velocity=95, time=0),
    Message('note_off', channel=2, note=50, velocity=80, time=20),
    Message('note_off', channel=2, note=45, velocity=80, time=0),
    Message('note_off', channel=2, note=40, velocity=80, time=0),
    Message('note_on', channel=2, note=53, velocity=95, time=220),
    Message('note_on', channel=2, note=48, velocity=95, time=0),
    Message('note_on', channel=2, note=41, velocity=95, time=0),
    Message('note_off', channel=2, note=53, velocity=80, time=480),
    Message('note_off', channel=2, note=48, velocity=80, time=0),
    Message('note_off', channel=2, note=41, velocity=80, time=0),
    Message('note_on', channel=2, note=53, velocity=63, time=0),
    Message('note_on', channel=2, note=48, velocity=63, time=0),
    Message('note_on', channel=2, note=41, velocity=63, time=0),
    Message('note_off', channel=2, note=53, velocity=80, time=480),
    Message('note_off', channel=2, note=48, velocity=80, time=0),
    Message('note_off', channel=2, note=41, velocity=80, time=0),
    Message('note_on', channel=2, note=53, velocity=95, time=0),
    Message('note_on', channel=2, note=48, velocity=95, time=0),
    Message('note_on', channel=2, note=41, velocity=95, time=0),
    Message('note_off', channel=2, note=53, velocity=80, time=480),
    Message('note_off', channel=2, note=48, velocity=80, time=0),
    Message('note_off', channel=2, note=41, velocity=80, time=0),
    Message('note_on', channel=2, note=50, velocity=95, time=0),
    Message('note_on', channel=2, note=45, velocity=95, time=0),
    Message('note_on', channel=2, note=40, velocity=95, time=0),
    Message('note_off', channel=2, note=50, velocity=80, time=20),
    Message('note_off', channel=2, note=45, velocity=80, time=0),
    Message('note_off', channel=2, note=40, velocity=80, time=0),
    Message('note_on', channel=2, note=50, velocity=95, time=220),
    Message('note_on', channel=2, note=45, velocity=95, time=0),
    Message('note_on', channel=2, note=40, velocity=95, time=0),
    Message('note_off', channel=2, note=50, velocity=80, time=20),
    Message('note_off', channel=2, note=45, velocity=80, time=0),
    Message('note_off', channel=2, note=40, velocity=80, time=0),
    Message('note_on', channel=2, note=56, velocity=95, time=220),
    Message('note_on', channel=2, note=51, velocity=95, time=0),
    Message('note_on', channel=2, note=44, velocity=95, time=0),
    Message('note_off', channel=2, note=56, velocity=80, time=480),
    Message('note_off', channel=2, note=51, velocity=80, time=0),
    Message('note_off', channel=2, note=44, velocity=80, time=0),
    Message('note_on', channel=2, note=56, velocity=63, time=0),
    Message('note_on', channel=2, note=51, velocity=63, time=0),
    Message('note_on', channel=2, note=44, velocity=63, time=0),
    Message('note_off', channel=2, note=56, velocity=80, time=480),
    Message('note_off', channel=2, note=51, velocity=80, time=0),
    Message('note_off', channel=2, note=44, velocity=80, time=0),
    Message('note_on', channel=2, note=56, velocity=95, time=0),
    Message('note_on', channel=2, note=51, velocity=95, time=0),
    Message('note_on', channel=2, note=44, velocity=95, time=0),
    Message('note_off', channel=2, note=56, velocity=80, time=480),
    Message('note_off', channel=2, note=51, velocity=80, time=0),
    Message('note_off', channel=2, note=44, velocity=80, time=0),
    Message('note_on', channel=2, note=50, velocity=95, time=0),
    Message('note_on', channel=2, note=45, velocity=95, time=0),
    Message('note_on', channel=2, note=40, velocity=95, time=0),
    Message('note_off', channel=2, note=50, velocity=80, time=20),
    Message('note_off', channel=2, note=45, velocity=80, time=0),
    Message('note_off', channel=2, note=40, velocity=80, time=0),
    Message('note_on', channel=2, note=50, velocity=95, time=220),
    Message('note_on', channel=2, note=45, velocity=95, time=0),
    Message('note_on', channel=2, note=40, velocity=95, time=0),
    Message('note_off', channel=2, note=50, velocity=80, time=20),
    Message('note_off', channel=2, note=45, velocity=80, time=0),
    Message('note_off', channel=2, note=40, velocity=80, time=0),
    Message('note_on', channel=2, note=63, velocity=95, time=220),
    Message('note_on', channel=2, note=58, velocity=95, time=0),
    Message('note_on', channel=2, note=51, velocity=95, time=0),
    Message('note_off', channel=2, note=63, velocity=80, time=480),
    Message('note_off', channel=2, note=58, velocity=80, time=0),
    Message('note_off', channel=2, note=51, velocity=80, time=0),
    Message('note_on', channel=2, note=63, velocity=63, time=0),
    Message('note_on', channel=2, note=58, velocity=63, time=0),
    Message('note_on', channel=2, note=51, velocity=63, time=0),
    Message('note_off', channel=2, note=63, velocity=80, time=480),
    Message('note_off', channel=2, note=58, velocity=80, time=0),
    Message('note_off', channel=2, note=51, velocity=80, time=0),
    Message('note_on', channel=2, note=63, velocity=95, time=0),
    Message('note_on', channel=2, note=58, velocity=95, time=0),
    Message('note_on', channel=2, note=51, velocity=95, time=0),
    Message('note_off', channel=2, note=63, velocity=80, time=480),
    Message('note_off', channel=2, note=58, velocity=80, time=0),
    Message('note_off', channel=2, note=51, velocity=80, time=0),
    Message('note_on', channel=2, note=55, velocity=95, time=0),
    Message('note_on', channel=2, note=50, velocity=95, time=0),
    Message('note_on', channel=2, note=45, velocity=95, time=0),
    Message('note_off', channel=2, note=55, velocity=80, time=20),
    Message('note_off', channel=2, note=50, velocity=80, time=0),
    Message('note_off', channel=2, note=45, velocity=80, time=0),
    Message('note_on', channel=2, note=55, velocity=95, time=220),
    Message('note_on', channel=2, note=50, velocity=95, time=0),
    Message('note_on', channel=2, note=45, velocity=95, time=0),
    Message('note_off', channel=2, note=55, velocity=80, time=20),
    Message('note_off', channel=2, note=50, velocity=80, time=0),
    Message('note_off', channel=2, note=45, velocity=80, time=0),
    Message('note_on', channel=2, note=58, velocity=95, time=220),
    Message('note_on', channel=2, note=53, velocity=95, time=0),
    Message('note_on', channel=2, note=46, velocity=95, time=0),
    Message('note_off', channel=2, note=58, velocity=80, time=480),
    Message('note_off', channel=2, note=53, velocity=80, time=0),
    Message('note_off', channel=2, note=46, velocity=80, time=0),
    Message('note_on', channel=2, note=58, velocity=63, time=0),
    Message('note_on', channel=2, note=53, velocity=63, time=0),
    Message('note_on', channel=2, note=46, velocity=63, time=0),
    Message('note_off', channel=2, note=58, velocity=80, time=480),
    Message('note_off', channel=2, note=53, velocity=80, time=0),
    Message('note_off', channel=2, note=46, velocity=80, time=0),
    Message('note_on', channel=2, note=58, velocity=95, time=0),
    Message('note_on', channel=2, note=53, velocity=95, time=0),
    Message('note_on', channel=2, note=46, velocity=95, time=0),
    Message('note_off', channel=2, note=58, velocity=80, time=480),
    Message('note_off', channel=2, note=53, velocity=80, time=0),
    Message('note_off', channel=2, note=46, velocity=80, time=0),
    Message('note_on', channel=2, note=50, velocity=95, time=0),
    Message('note_on', channel=2, note=45, velocity=95, time=0),
    Message('note_on', channel=2, note=40, velocity=95, time=0),
    Message('note_off', channel=2, note=50, velocity=80, time=20),
    Message('note_off', channel=2, note=45, velocity=80, time=0),
    Message('note_off', channel=2, note=40, velocity=80, time=0),
    Message('note_on', channel=2, note=50, velocity=95, time=220),
    Message('note_on', channel=2, note=45, velocity=95, time=0),
    Message('note_on', channel=2, note=40, velocity=95, time=0),
    Message('note_off', channel=2, note=50, velocity=80, time=20),
    Message('note_off', channel=2, note=45, velocity=80, time=0),
    Message('note_off', channel=2, note=40, velocity=80, time=0),
    Message('note_on', channel=2, note=53, velocity=95, time=220),
    Message('note_on', channel=2, note=48, velocity=95, time=0),
    Message('note_on', channel=2, note=41, velocity=95, time=0),
    Message('note_off', channel=2, note=53, velocity=80, time=480),
    Message('note_off', channel=2, note=48, velocity=80, time=0),
    Message('note_off', channel=2, note=41, velocity=80, time=0),
    Message('note_on', channel=2, note=53, velocity=63, time=0),
    Message('note_on', channel=2, note=48, velocity=63, time=0),
    Message('note_on', channel=2, note=41, velocity=63, time=0),
    Message('note_off', channel=2, note=53, velocity=80, time=480),
    Message('note_off', channel=2, note=48, velocity=80, time=0),
    Message('note_off', channel=2, note=41, velocity=80, time=0),
    Message('note_on', channel=2, note=53, velocity=95, time=0),
    Message('note_on', channel=2, note=48, velocity=95, time=0),
    Message('note_on', channel=2, note=41, velocity=95, time=0),
    Message('note_off', channel=2, note=53, velocity=80, time=480),
    Message('note_off', channel=2, note=48, velocity=80, time=0),
    Message('note_off', channel=2, note=41, velocity=80, time=0),
    Message('note_on', channel=2, note=50, velocity=95, time=0),
    Message('note_on', channel=2, note=45, velocity=95, time=0),
    Message('note_on', channel=2, note=40, velocity=95, time=0),
    Message('note_off', channel=2, note=50, velocity=80, time=20),
    Message('note_off', channel=2, note=45, velocity=80, time=0),
    Message('note_off', channel=2, note=40, velocity=80, time=0),
    Message('note_on', channel=2, note=50, velocity=95, time=220),
    Message('note_on', channel=2, note=45, velocity=95, time=0),
    Message('note_on', channel=2, note=40, velocity=95, time=0),
    Message('note_off', channel=2, note=50, velocity=80, time=20),
    Message('note_off', channel=2, note=45, velocity=80, time=0),
    Message('note_off', channel=2, note=40, velocity=80, time=0),
    Message('note_on', channel=2, note=56, velocity=95, time=220),
    Message('note_on', channel=2, note=51, velocity=95, time=0),
    Message('note_on', channel=2, note=44, velocity=95, time=0),
    Message('note_off', channel=2, note=56, velocity=80, time=480),
    Message('note_off', channel=2, note=51, velocity=80, time=0),
    Message('note_off', channel=2, note=44, velocity=80, time=0),
    Message('note_on', channel=2, note=56, velocity=63, time=0),
    Message('note_on', channel=2, note=51, velocity=63, time=0),
    Message('note_on', channel=2, note=44, velocity=63, time=0),
    Message('note_off', channel=2, note=56, velocity=80, time=480),
    Message('note_off', channel=2, note=51, velocity=80, time=0),
    Message('note_off', channel=2, note=44, velocity=80, time=0),
    Message('note_on', channel=2, note=56, velocity=95, time=0),
    Message('note_on', channel=2, note=51, velocity=95, time=0),
    Message('note_on', channel=2, note=44, velocity=95, time=0),
    Message('note_off', channel=2, note=56, velocity=80, time=480),
    Message('note_off', channel=2, note=51, velocity=80, time=0),
    Message('note_off', channel=2, note=44, velocity=80, time=0),
    Message('note_on', channel=2, note=50, velocity=95, time=0),
    Message('note_on', channel=2, note=45, velocity=95, time=0),
    Message('note_on', channel=2, note=40, velocity=95, time=0),
    Message('note_off', channel=2, note=50, velocity=80, time=20),
    Message('note_off', channel=2, note=45, velocity=80, time=0),
    Message('note_off', channel=2, note=40, velocity=80, time=0),
    Message('note_on', channel=2, note=50, velocity=95, time=220),
    Message('note_on', channel=2, note=45, velocity=95, time=0),
    Message('note_on', channel=2, note=40, velocity=95, time=0),
    Message('note_off', channel=2, note=50, velocity=80, time=20),
    Message('note_off', channel=2, note=45, velocity=80, time=0),
    Message('note_off', channel=2, note=40, velocity=80, time=0),
    Message('note_on', channel=2, note=63, velocity=95, time=220),
    Message('note_on', channel=2, note=58, velocity=95, time=0),
    Message('note_on', channel=2, note=51, velocity=95, time=0),
    Message('note_off', channel=2, note=63, velocity=80, time=480),
    Message('note_off', channel=2, note=58, velocity=80, time=0),
    Message('note_off', channel=2, note=51, velocity=80, time=0),
    Message('note_on', channel=2, note=63, velocity=63, time=0),
    Message('note_on', channel=2, note=58, velocity=63, time=0),
    Message('note_on', channel=2, note=51, velocity=63, time=0),
    Message('note_off', channel=2, note=63, velocity=80, time=480),
    Message('note_off', channel=2, note=58, velocity=80, time=0),
    Message('note_off', channel=2, note=51, velocity=80, time=0),
    Message('note_on', channel=2, note=63, velocity=95, time=0),
    Message('note_on', channel=2, note=58, velocity=95, time=0),
    Message('note_on', channel=2, note=51, velocity=95, time=0),
    Message('note_off', channel=2, note=63, velocity=80, time=480),
    Message('note_off', channel=2, note=58, velocity=80, time=0),
    Message('note_off', channel=2, note=51, velocity=80, time=0),
    Message('note_on', channel=2, note=55, velocity=95, time=0),
    Message('note_on', channel=2, note=50, velocity=95, time=0),
    Message('note_on', channel=2, note=45, velocity=95, time=0),
    Message('note_off', channel=2, note=55, velocity=80, time=20),
    Message('note_off', channel=2, note=50, velocity=80, time=0),
    Message('note_off', channel=2, note=45, velocity=80, time=0),
    Message('note_on', channel=2, note=55, velocity=95, time=220),
    Message('note_on', channel=2, note=50, velocity=95, time=0),
    Message('note_on', channel=2, note=45, velocity=95, time=0),
    Message('note_off', channel=2, note=55, velocity=80, time=20),
    Message('note_off', channel=2, note=50, velocity=80, time=0),
    Message('note_off', channel=2, note=45, velocity=80, time=0),
    Message('program_change', channel=2, program=29, time=220),
    Message('program_change', channel=3, program=29, time=0),
    Message('control_change', channel=2, control=7, value=104, time=0),
    Message('control_change', channel=3, control=7, value=104, time=0),
    Message('note_on', channel=2, note=58, velocity=95, time=0),
    Message('note_on', channel=2, note=53, velocity=95, time=0),
    Message('note_on', channel=2, note=46, velocity=95, time=0),
    Message('note_off', channel=2, note=58, velocity=80, time=480),
    Message('note_off', channel=2, note=53, velocity=80, time=0),
    Message('note_off', channel=2, note=46, velocity=80, time=0),
    Message('note_on', channel=2, note=58, velocity=95, time=0),
    Message('note_on', channel=2, note=53, velocity=95, time=0),
    Message('note_on', channel=2, note=46, velocity=95, time=0),
    Message('note_off', channel=2, note=58, velocity=80, time=480),
    Message('note_off', channel=2, note=53, velocity=80, time=0),
    Message('note_off', channel=2, note=46, velocity=80, time=0),
    Message('note_on', channel=2, note=58, velocity=95, time=0),
    Message('note_on', channel=2, note=53, velocity=95, time=0),
    Message('note_on', channel=2, note=46, velocity=95, time=0),
    Message('note_off', channel=2, note=58, velocity=80, time=480),
    Message('note_off', channel=2, note=53, velocity=80, time=0),
    Message('note_off', channel=2, note=46, velocity=80, time=0),
    Message('note_on', channel=2, note=60, velocity=95, time=0),
    Message('note_on', channel=2, note=55, velocity=95, time=0),
    Message('note_on', channel=2, note=48, velocity=95, time=0),
    Message('note_off', channel=2, note=60, velocity=80, time=480),
    Message('note_off', channel=2, note=55, velocity=80, time=0),
    Message('note_off', channel=2, note=48, velocity=80, time=0),
    Message('note_on', channel=2, note=61, velocity=95, time=0),
    Message('note_on', channel=2, note=56, velocity=95, time=0),
    Message('note_on', channel=2, note=49, velocity=95, time=0),
    Message('note_off', channel=2, note=61, velocity=80, time=480),
    Message('note_off', channel=2, note=56, velocity=80, time=0),
    Message('note_off', channel=2, note=49, velocity=80, time=0),
    Message('note_on', channel=2, note=61, velocity=95, time=0),
    Message('note_on', channel=2, note=56, velocity=95, time=0),
    Message('note_on', channel=2, note=49, velocity=95, time=0),
    Message('note_off', channel=2, note=61, velocity=80, time=480),
    Message('note_off', channel=2, note=56, velocity=80, time=0),
    Message('note_off', channel=2, note=49, velocity=80, time=0),
    Message('note_on', channel=2, note=61, velocity=95, time=0),
    Message('note_on', channel=2, note=56, velocity=95, time=0),
    Message('note_on', channel=2, note=49, velocity=95, time=0),
    Message('note_off', channel=2, note=61, velocity=80, time=480),
    Message('note_off', channel=2, note=56, velocity=80, time=0),
    Message('note_off', channel=2, note=49, velocity=80, time=0),
    Message('note_on', channel=2, note=61, velocity=95, time=0),
    Message('note_on', channel=2, note=56, velocity=95, time=0),
    Message('note_on', channel=2, note=49, velocity=95, time=0),
    Message('note_off', channel=2, note=61, velocity=80, time=240),
    Message('note_off', channel=2, note=56, velocity=80, time=0),
    Message('note_off', channel=2, note=49, velocity=80, time=0),
    Message('note_on', channel=2, note=61, velocity=95, time=0),
    Message('note_on', channel=2, note=56, velocity=95, time=0),
    Message('note_on', channel=2, note=49, velocity=95, time=0),
    Message('note_off', channel=2, note=61, velocity=80, time=240),
    Message('note_off', channel=2, note=56, velocity=80, time=0),
    Message('note_off', channel=2, note=49, velocity=80, time=0),
    Message('note_on', channel=2, note=56, velocity=95, time=0),
    Message('note_on', channel=2, note=51, velocity=95, time=0),
    Message('note_on', channel=2, note=44, velocity=95, time=0),
    Message('note_off', channel=2, note=56, velocity=80, time=480),
    Message('note_off', channel=2, note=51, velocity=80, time=0),
    Message('note_off', channel=2, note=44, velocity=80, time=0),
    Message('note_on', channel=2, note=56, velocity=95, time=0),
    Message('note_on', channel=2, note=51, velocity=95, time=0),
    Message('note_on', channel=2, note=44, velocity=95, time=0),
    Message('note_off', channel=2, note=56, velocity=80, time=480),
    Message('note_off', channel=2, note=51, velocity=80, time=0),
    Message('note_off', channel=2, note=44, velocity=80, time=0),
    Message('note_on', channel=2, note=56, velocity=95, time=0),
    Message('note_on', channel=2, note=51, velocity=95, time=0),
    Message('note_on', channel=2, note=44, velocity=95, time=0),
    Message('note_off', channel=2, note=56, velocity=80, time=480),
    Message('note_off', channel=2, note=51, velocity=80, time=0),
    Message('note_off', channel=2, note=44, velocity=80, time=0),
    Message('note_on', channel=2, note=56, velocity=95, time=0),
    Message('note_on', channel=2, note=51, velocity=95, time=0),
    Message('note_on', channel=2, note=44, velocity=95, time=0),
    Message('note_off', channel=2, note=56, velocity=80, time=240),
    Message('note_off', channel=2, note=51, velocity=80, time=0),
    Message('note_off', channel=2, note=44, velocity=80, time=0),
    Message('note_on', channel=2, note=56, velocity=95, time=0),
    Message('note_on', channel=2, note=51, velocity=95, time=0),
    Message('note_on', channel=2, note=44, velocity=95, time=0),
    Message('note_off', channel=2, note=56, velocity=80, time=240),
    Message('note_off', channel=2, note=51, velocity=80, time=0),
    Message('note_off', channel=2, note=44, velocity=80, time=0),
    Message('note_on', channel=2, note=63, velocity=95, time=0),
    Message('note_on', channel=2, note=58, velocity=95, time=0),
    Message('note_on', channel=2, note=51, velocity=95, time=0),
    Message('note_off', channel=2, note=63, velocity=80, time=480),
    Message('note_off', channel=2, note=58, velocity=80, time=0),
    Message('note_off', channel=2, note=51, velocity=80, time=0),
    Message('note_on', channel=2, note=63, velocity=95, time=0),
    Message('note_on', channel=2, note=58, velocity=95, time=0),
    Message('note_on', channel=2, note=51, velocity=95, time=0),
    Message('note_off', channel=2, note=63, velocity=80, time=480),
    Message('note_off', channel=2, note=58, velocity=80, time=0),
    Message('note_off', channel=2, note=51, velocity=80, time=0),
    Message('note_on', channel=2, note=63, velocity=95, time=0),
    Message('note_on', channel=2, note=58, velocity=95, time=0),
    Message('note_on', channel=2, note=51, velocity=95, time=0),
    Message('note_off', channel=2, note=63, velocity=80, time=480),
    Message('note_off', channel=2, note=58, velocity=80, time=0),
    Message('note_off', channel=2, note=51, velocity=80, time=0),
    Message('note_on', channel=2, note=63, velocity=95, time=0),
    Message('note_on', channel=2, note=58, velocity=95, time=0),
    Message('note_on', channel=2, note=51, velocity=95, time=0),
    Message('note_off', channel=2, note=63, velocity=80, time=240),
    Message('note_off', channel=2, note=58, velocity=80, time=0),
    Message('note_off', channel=2, note=51, velocity=80, time=0),
    Message('note_on', channel=2, note=63, velocity=95, time=0),
    Message('note_on', channel=2, note=58, velocity=95, time=0),
    Message('note_on', channel=2, note=51, velocity=95, time=0),
    Message('note_off', channel=2, note=63, velocity=80, time=240),
    Message('note_off', channel=2, note=58, velocity=80, time=0),
    Message('note_off', channel=2, note=51, velocity=80, time=0),
    Message('note_on', channel=2, note=53, velocity=95, time=0),
    Message('note_on', channel=2, note=48, velocity=95, time=0),
    Message('note_on', channel=2, note=41, velocity=95, time=0),
    Message('note_off', channel=2, note=53, velocity=80, time=480),
    Message('note_off', channel=2, note=48, velocity=80, time=0),
    Message('note_off', channel=2, note=41, velocity=80, time=0),
    Message('note_on', channel=2, note=53, velocity=95, time=0),
    Message('note_on', channel=2, note=48, velocity=95, time=0),
    Message('note_on', channel=2, note=41, velocity=95, time=0),
    Message('note_off', channel=2, note=53, velocity=80, time=480),
    Message('note_off', channel=2, note=48, velocity=80, time=0),
    Message('note_off', channel=2, note=41, velocity=80, time=0),
    Message('note_on', channel=2, note=53, velocity=95, time=0),
    Message('note_on', channel=2, note=48, velocity=95, time=0),
    Message('note_on', channel=2, note=41, velocity=95, time=0),
    Message('note_off', channel=2, note=53, velocity=80, time=480),
    Message('note_off', channel=2, note=48, velocity=80, time=0),
    Message('note_off', channel=2, note=41, velocity=80, time=0),
    Message('note_on', channel=2, note=53, velocity=95, time=0),
    Message('note_on', channel=2, note=48, velocity=95, time=0),
    Message('note_on', channel=2, note=41, velocity=95, time=0),
    Message('note_off', channel=2, note=53, velocity=80, time=240),
    Message('note_off', channel=2, note=48, velocity=80, time=0),
    Message('note_off', channel=2, note=41, velocity=80, time=0),
    Message('note_on', channel=2, note=53, velocity=95, time=0),
    Message('note_on', channel=2, note=48, velocity=95, time=0),
    Message('note_on', channel=2, note=41, velocity=95, time=0),
    Message('note_off', channel=2, note=53, velocity=80, time=240),
    Message('note_off', channel=2, note=48, velocity=80, time=0),
    Message('note_off', channel=2, note=41, velocity=80, time=0),
    Message('note_on', channel=2, note=61, velocity=95, time=0),
    Message('note_on', channel=2, note=56, velocity=95, time=0),
    Message('note_on', channel=2, note=49, velocity=95, time=0),
    Message('note_off', channel=2, note=61, velocity=80, time=480),
    Message('note_off', channel=2, note=56, velocity=80, time=0),
    Message('note_off', channel=2, note=49, velocity=80, time=0),
    Message('note_on', channel=2, note=61, velocity=95, time=0),
    Message('note_on', channel=2, note=56, velocity=95, time=0),
    Message('note_on', channel=2, note=49, velocity=95, time=0),
    Message('note_off', channel=2, note=61, velocity=80, time=480),
    Message('note_off', channel=2, note=56, velocity=80, time=0),
    Message('note_off', channel=2, note=49, velocity=80, time=0),
    Message('note_on', channel=2, note=61, velocity=95, time=0),
    Message('note_on', channel=2, note=56, velocity=95, time=0),
    Message('note_on', channel=2, note=49, velocity=95, time=0),
    Message('note_off', channel=2, note=61, velocity=80, time=480),
    Message('note_off', channel=2, note=56, velocity=80, time=0),
    Message('note_off', channel=2, note=49, velocity=80, time=0),
    Message('note_on', channel=2, note=61, velocity=95, time=0),
    Message('note_on', channel=2, note=56, velocity=95, time=0),
    Message('note_on', channel=2, note=49, velocity=95, time=0),
    Message('note_off', channel=2, note=61, velocity=80, time=240),
    Message('note_off', channel=2, note=56, velocity=80, time=0),
    Message('note_off', channel=2, note=49, velocity=80, time=0),
    Message('note_on', channel=2, note=61, velocity=95, time=0),
    Message('note_on', channel=2, note=56, velocity=95, time=0),
    Message('note_on', channel=2, note=49, velocity=95, time=0),
    Message('note_off', channel=2, note=61, velocity=80, time=240),
    Message('note_off', channel=2, note=56, velocity=80, time=0),
    Message('note_off', channel=2, note=49, velocity=80, time=0),
    Message('note_on', channel=2, note=56, velocity=95, time=0),
    Message('note_on', channel=2, note=51, velocity=95, time=0),
    Message('note_on', channel=2, note=44, velocity=95, time=0),
    Message('note_off', channel=2, note=56, velocity=80, time=480),
    Message('note_off', channel=2, note=51, velocity=80, time=0),
    Message('note_off', channel=2, note=44, velocity=80, time=0),
    Message('note_on', channel=2, note=56, velocity=95, time=0),
    Message('note_on', channel=2, note=51, velocity=95, time=0),
    Message('note_on', channel=2, note=44, velocity=95, time=0),
    Message('note_off', channel=2, note=56, velocity=80, time=480),
    Message('note_off', channel=2, note=51, velocity=80, time=0),
    Message('note_off', channel=2, note=44, velocity=80, time=0),
    Message('note_on', channel=2, note=56, velocity=95, time=0),
    Message('note_on', channel=2, note=51, velocity=95, time=0),
    Message('note_on', channel=2, note=44, velocity=95, time=0),
    Message('note_off', channel=2, note=56, velocity=80, time=480),
    Message('note_off', channel=2, note=51, velocity=80, time=0),
    Message('note_off', channel=2, note=44, velocity=80, time=0),
    Message('note_on', channel=2, note=56, velocity=95, time=0),
    Message('note_on', channel=2, note=51, velocity=95, time=0),
    Message('note_on', channel=2, note=44, velocity=95, time=0),
    Message('note_off', channel=2, note=56, velocity=80, time=240),
    Message('note_off', channel=2, note=51, velocity=80, time=0),
    Message('note_off', channel=2, note=44, velocity=80, time=0),
    Message('note_on', channel=2, note=56, velocity=95, time=0),
    Message('note_on', channel=2, note=51, velocity=95, time=0),
    Message('note_on', channel=2, note=44, velocity=95, time=0),
    Message('note_off', channel=2, note=56, velocity=80, time=240),
    Message('note_off', channel=2, note=51, velocity=80, time=0),
    Message('note_off', channel=2, note=44, velocity=80, time=0),
    Message('note_on', channel=2, note=63, velocity=95, time=0),
    Message('note_on', channel=2, note=58, velocity=95, time=0),
    Message('note_on', channel=2, note=51, velocity=95, time=0),
    Message('note_off', channel=2, note=63, velocity=80, time=480),
    Message('note_off', channel=2, note=58, velocity=80, time=0),
    Message('note_off', channel=2, note=51, velocity=80, time=0),
    Message('note_on', channel=2, note=63, velocity=95, time=0),
    Message('note_on', channel=2, note=58, velocity=95, time=0),
    Message('note_on', channel=2, note=51, velocity=95, time=0),
    Message('note_off', channel=2, note=63, velocity=80, time=480),
    Message('note_off', channel=2, note=58, velocity=80, time=0),
    Message('note_off', channel=2, note=51, velocity=80, time=0),
    Message('note_on', channel=2, note=63, velocity=95, time=0),
    Message('note_on', channel=2, note=58, velocity=95, time=0),
    Message('note_on', channel=2, note=51, velocity=95, time=0),
    Message('note_off', channel=2, note=63, velocity=80, time=480),
    Message('note_off', channel=2, note=58, velocity=80, time=0),
    Message('note_off', channel=2, note=51, velocity=80, time=0),
    Message('note_on', channel=2, note=63, velocity=95, time=0),
    Message('note_on', channel=2, note=58, velocity=95, time=0),
    Message('note_on', channel=2, note=51, velocity=95, time=0),
    Message('note_off', channel=2, note=63, velocity=80, time=240),
    Message('note_off', channel=2, note=58, velocity=80, time=0),
    Message('note_off', channel=2, note=51, velocity=80, time=0),
    Message('note_on', channel=2, note=63, velocity=95, time=0),
    Message('note_on', channel=2, note=58, velocity=95, time=0),
    Message('note_on', channel=2, note=51, velocity=95, time=0),
    Message('note_off', channel=2, note=63, velocity=80, time=240),
    Message('note_off', channel=2, note=58, velocity=80, time=0),
    Message('note_off', channel=2, note=51, velocity=80, time=0),
    Message('note_on', channel=2, note=53, velocity=95, time=0),
    Message('note_on', channel=2, note=48, velocity=95, time=0),
    Message('note_on', channel=2, note=41, velocity=95, time=0),
    Message('note_off', channel=2, note=53, velocity=80, time=480),
    Message('note_off', channel=2, note=48, velocity=80, time=0),
    Message('note_off', channel=2, note=41, velocity=80, time=0),
    Message('note_on', channel=2, note=53, velocity=95, time=0),
    Message('note_on', channel=2, note=48, velocity=95, time=0),
    Message('note_on', channel=2, note=41, velocity=95, time=0),
    Message('note_off', channel=2, note=53, velocity=80, time=480),
    Message('note_off', channel=2, note=48, velocity=80, time=0),
    Message('note_off', channel=2, note=41, velocity=80, time=0),
    Message('note_on', channel=2, note=53, velocity=95, time=0),
    Message('note_on', channel=2, note=48, velocity=95, time=0),
    Message('note_on', channel=2, note=41, velocity=95, time=0),
    Message('note_off', channel=2, note=53, velocity=80, time=480),
    Message('note_off', channel=2, note=48, velocity=80, time=0),
    Message('note_off', channel=2, note=41, velocity=80, time=0),
    Message('note_on', channel=2, note=53, velocity=95, time=0),
    Message('note_on', channel=2, note=48, velocity=95, time=0),
    Message('note_on', channel=2, note=41, velocity=95, time=0),
    Message('note_off', channel=2, note=53, velocity=80, time=240),
    Message('note_off', channel=2, note=48, velocity=80, time=0),
    Message('note_off', channel=2, note=41, velocity=80, time=0),
    Message('note_on', channel=2, note=53, velocity=95, time=0),
    Message('note_on', channel=2, note=48, velocity=95, time=0),
    Message('note_on', channel=2, note=41, velocity=95, time=0),
    Message('note_off', channel=2, note=53, velocity=80, time=240),
    Message('note_off', channel=2, note=48, velocity=80, time=0),
    Message('note_off', channel=2, note=41, velocity=80, time=0),
    Message('note_on', channel=2, note=61, velocity=95, time=0),
    Message('note_on', channel=2, note=56, velocity=95, time=0),
    Message('note_on', channel=2, note=49, velocity=95, time=0),
    Message('note_off', channel=2, note=61, velocity=80, time=480),
    Message('note_off', channel=2, note=56, velocity=80, time=0),
    Message('note_off', channel=2, note=49, velocity=80, time=0),
    Message('note_on', channel=2, note=61, velocity=95, time=0),
    Message('note_on', channel=2, note=56, velocity=95, time=0),
    Message('note_on', channel=2, note=49, velocity=95, time=0),
    Message('note_off', channel=2, note=61, velocity=80, time=480),
    Message('note_off', channel=2, note=56, velocity=80, time=0),
    Message('note_off', channel=2, note=49, velocity=80, time=0),
    Message('note_on', channel=2, note=61, velocity=95, time=0),
    Message('note_on', channel=2, note=56, velocity=95, time=0),
    Message('note_on', channel=2, note=49, velocity=95, time=0),
    Message('note_off', channel=2, note=61, velocity=80, time=480),
    Message('note_off', channel=2, note=56, velocity=80, time=0),
    Message('note_off', channel=2, note=49, velocity=80, time=0),
    Message('note_on', channel=2, note=61, velocity=95, time=0),
    Message('note_on', channel=2, note=56, velocity=95, time=0),
    Message('note_on', channel=2, note=49, velocity=95, time=0),
    Message('note_off', channel=2, note=61, velocity=80, time=240),
    Message('note_off', channel=2, note=56, velocity=80, time=0),
    Message('note_off', channel=2, note=49, velocity=80, time=0),
    Message('note_on', channel=2, note=61, velocity=95, time=0),
    Message('note_on', channel=2, note=56, velocity=95, time=0),
    Message('note_on', channel=2, note=49, velocity=95, time=0),
    Message('note_off', channel=2, note=61, velocity=80, time=240),
    Message('note_off', channel=2, note=56, velocity=80, time=0),
    Message('note_off', channel=2, note=49, velocity=80, time=0),
    Message('note_on', channel=2, note=56, velocity=95, time=0),
    Message('note_on', channel=2, note=51, velocity=95, time=0),
    Message('note_on', channel=2, note=44, velocity=95, time=0),
    Message('note_off', channel=2, note=56, velocity=80, time=480),
    Message('note_off', channel=2, note=51, velocity=80, time=0),
    Message('note_off', channel=2, note=44, velocity=80, time=0),
    Message('note_on', channel=2, note=56, velocity=95, time=0),
    Message('note_on', channel=2, note=51, velocity=95, time=0),
    Message('note_on', channel=2, note=44, velocity=95, time=0),
    Message('note_off', channel=2, note=56, velocity=80, time=480),
    Message('note_off', channel=2, note=51, velocity=80, time=0),
    Message('note_off', channel=2, note=44, velocity=80, time=0),
    Message('note_on', channel=2, note=56, velocity=95, time=0),
    Message('note_on', channel=2, note=51, velocity=95, time=0),
    Message('note_on', channel=2, note=44, velocity=95, time=0),
    Message('note_off', channel=2, note=56, velocity=80, time=480),
    Message('note_off', channel=2, note=51, velocity=80, time=0),
    Message('note_off', channel=2, note=44, velocity=80, time=0),
    Message('note_on', channel=2, note=56, velocity=95, time=0),
    Message('note_on', channel=2, note=51, velocity=95, time=0),
    Message('note_on', channel=2, note=44, velocity=95, time=0),
    Message('note_off', channel=2, note=56, velocity=80, time=240),
    Message('note_off', channel=2, note=51, velocity=80, time=0),
    Message('note_off', channel=2, note=44, velocity=80, time=0),
    Message('note_on', channel=2, note=56, velocity=95, time=0),
    Message('note_on', channel=2, note=51, velocity=95, time=0),
    Message('note_on', channel=2, note=44, velocity=95, time=0),
    Message('note_off', channel=2, note=56, velocity=80, time=240),
    Message('note_off', channel=2, note=51, velocity=80, time=0),
    Message('note_off', channel=2, note=44, velocity=80, time=0),
    Message('note_on', channel=2, note=63, velocity=95, time=0),
    Message('note_on', channel=2, note=58, velocity=95, time=0),
    Message('note_on', channel=2, note=51, velocity=95, time=0),
    Message('note_off', channel=2, note=63, velocity=80, time=480),
    Message('note_off', channel=2, note=58, velocity=80, time=0),
    Message('note_off', channel=2, note=51, velocity=80, time=0),
    Message('note_on', channel=2, note=63, velocity=95, time=0),
    Message('note_on', channel=2, note=58, velocity=95, time=0),
    Message('note_on', channel=2, note=51, velocity=95, time=0),
    Message('note_off', channel=2, note=63, velocity=80, time=480),
    Message('note_off', channel=2, note=58, velocity=80, time=0),
    Message('note_off', channel=2, note=51, velocity=80, time=0),
    Message('note_on', channel=2, note=63, velocity=95, time=0),
    Message('note_on', channel=2, note=58, velocity=95, time=0),
    Message('note_on', channel=2, note=51, velocity=95, time=0),
    Message('note_off', channel=2, note=63, velocity=80, time=480),
    Message('note_off', channel=2, note=58, velocity=80, time=0),
    Message('note_off', channel=2, note=51, velocity=80, time=0),
    Message('note_on', channel=2, note=63, velocity=95, time=0),
    Message('note_on', channel=2, note=58, velocity=95, time=0),
    Message('note_on', channel=2, note=51, velocity=95, time=0),
    Message('note_off', channel=2, note=63, velocity=80, time=240),
    Message('note_off', channel=2, note=58, velocity=80, time=0),
    Message('note_off', channel=2, note=51, velocity=80, time=0),
    Message('note_on', channel=2, note=63, velocity=95, time=0),
    Message('note_on', channel=2, note=58, velocity=95, time=0),
    Message('note_on', channel=2, note=51, velocity=95, time=0),
    Message('note_off', channel=2, note=63, velocity=80, time=240),
    Message('note_off', channel=2, note=58, velocity=80, time=0),
    Message('note_off', channel=2, note=51, velocity=80, time=0),
    Message('note_on', channel=2, note=53, velocity=95, time=0),
    Message('note_on', channel=2, note=48, velocity=95, time=0),
    Message('note_on', channel=2, note=41, velocity=95, time=0),
    Message('note_off', channel=2, note=53, velocity=80, time=480),
    Message('note_off', channel=2, note=48, velocity=80, time=0),
    Message('note_off', channel=2, note=41, velocity=80, time=0),
    Message('note_on', channel=2, note=53, velocity=95, time=0),
    Message('note_on', channel=2, note=48, velocity=95, time=0),
    Message('note_on', channel=2, note=41, velocity=95, time=0),
    Message('note_off', channel=2, note=53, velocity=80, time=480),
    Message('note_off', channel=2, note=48, velocity=80, time=0),
    Message('note_off', channel=2, note=41, velocity=80, time=0),
    Message('note_on', channel=2, note=53, velocity=95, time=0),
    Message('note_on', channel=2, note=48, velocity=95, time=0),
    Message('note_on', channel=2, note=41, velocity=95, time=0),
    Message('note_off', channel=2, note=53, velocity=80, time=480),
    Message('note_off', channel=2, note=48, velocity=80, time=0),
    Message('note_off', channel=2, note=41, velocity=80, time=0),
    Message('note_on', channel=2, note=53, velocity=95, time=0),
    Message('note_on', channel=2, note=48, velocity=95, time=0),
    Message('note_on', channel=2, note=41, velocity=95, time=0),
    Message('note_off', channel=2, note=53, velocity=80, time=240),
    Message('note_off', channel=2, note=48, velocity=80, time=0),
    Message('note_off', channel=2, note=41, velocity=80, time=0),
    Message('note_on', channel=2, note=53, velocity=95, time=0),
    Message('note_on', channel=2, note=48, velocity=95, time=0),
    Message('note_on', channel=2, note=41, velocity=95, time=0),
    Message('note_off', channel=2, note=53, velocity=80, time=240),
    Message('note_off', channel=2, note=48, velocity=80, time=0),
    Message('note_off', channel=2, note=41, velocity=80, time=0),
    Message('note_on', channel=2, note=61, velocity=95, time=0),
    Message('note_on', channel=2, note=56, velocity=95, time=0),
    Message('note_on', channel=2, note=49, velocity=95, time=0),
    Message('note_off', channel=2, note=61, velocity=80, time=480),
    Message('note_off', channel=2, note=56, velocity=80, time=0),
    Message('note_off', channel=2, note=49, velocity=80, time=0),
    Message('note_on', channel=2, note=61, velocity=95, time=0),
    Message('note_on', channel=2, note=56, velocity=95, time=0),
    Message('note_on', channel=2, note=49, velocity=95, time=0),
    Message('note_off', channel=2, note=61, velocity=80, time=480),
    Message('note_off', channel=2, note=56, velocity=80, time=0),
    Message('note_off', channel=2, note=49, velocity=80, time=0),
    Message('note_on', channel=2, note=61, velocity=95, time=0),
    Message('note_on', channel=2, note=56, velocity=95, time=0),
    Message('note_on', channel=2, note=49, velocity=95, time=0),
    Message('note_off', channel=2, note=61, velocity=80, time=480),
    Message('note_off', channel=2, note=56, velocity=80, time=0),
    Message('note_off', channel=2, note=49, velocity=80, time=0),
    Message('note_on', channel=2, note=61, velocity=95, time=0),
    Message('note_on', channel=2, note=56, velocity=95, time=0),
    Message('note_on', channel=2, note=49, velocity=95, time=0),
    Message('note_off', channel=2, note=61, velocity=80, time=240),
    Message('note_off', channel=2, note=56, velocity=80, time=0),
    Message('note_off', channel=2, note=49, velocity=80, time=0),
    Message('note_on', channel=2, note=61, velocity=95, time=0),
    Message('note_on', channel=2, note=56, velocity=95, time=0),
    Message('note_on', channel=2, note=49, velocity=95, time=0),
    Message('note_off', channel=2, note=61, velocity=80, time=240),
    Message('note_off', channel=2, note=56, velocity=80, time=0),
    Message('note_off', channel=2, note=49, velocity=80, time=0),
    Message('note_on', channel=2, note=56, velocity=95, time=0),
    Message('note_on', channel=2, note=51, velocity=95, time=0),
    Message('note_on', channel=2, note=44, velocity=95, time=0),
    Message('note_off', channel=2, note=56, velocity=80, time=480),
    Message('note_off', channel=2, note=51, velocity=80, time=0),
    Message('note_off', channel=2, note=44, velocity=80, time=0),
    Message('note_on', channel=2, note=56, velocity=95, time=0),
    Message('note_on', channel=2, note=51, velocity=95, time=0),
    Message('note_on', channel=2, note=44, velocity=95, time=0),
    Message('note_off', channel=2, note=56, velocity=80, time=480),
    Message('note_off', channel=2, note=51, velocity=80, time=0),
    Message('note_off', channel=2, note=44, velocity=80, time=0),
    Message('note_on', channel=2, note=56, velocity=95, time=0),
    Message('note_on', channel=2, note=51, velocity=95, time=0),
    Message('note_on', channel=2, note=44, velocity=95, time=0),
    Message('note_off', channel=2, note=56, velocity=80, time=480),
    Message('note_off', channel=2, note=51, velocity=80, time=0),
    Message('note_off', channel=2, note=44, velocity=80, time=0),
    Message('note_on', channel=2, note=56, velocity=95, time=0),
    Message('note_on', channel=2, note=51, velocity=95, time=0),
    Message('note_on', channel=2, note=44, velocity=95, time=0),
    Message('note_off', channel=2, note=56, velocity=80, time=240),
    Message('note_off', channel=2, note=51, velocity=80, time=0),
    Message('note_off', channel=2, note=44, velocity=80, time=0),
    Message('note_on', channel=2, note=56, velocity=95, time=0),
    Message('note_on', channel=2, note=51, velocity=95, time=0),
    Message('note_on', channel=2, note=44, velocity=95, time=0),
    Message('note_off', channel=2, note=56, velocity=80, time=240),
    Message('note_off', channel=2, note=51, velocity=80, time=0),
    Message('note_off', channel=2, note=44, velocity=80, time=0),
    Message('note_on', channel=2, note=60, velocity=95, time=0),
    Message('note_on', channel=2, note=55, velocity=95, time=0),
    Message('note_on', channel=2, note=48, velocity=95, time=0),
    Message('note_off', channel=2, note=60, velocity=80, time=480),
    Message('note_off', channel=2, note=55, velocity=80, time=0),
    Message('note_off', channel=2, note=48, velocity=80, time=0),
    Message('note_on', channel=2, note=60, velocity=95, time=0),
    Message('note_on', channel=2, note=55, velocity=95, time=0),
    Message('note_on', channel=2, note=48, velocity=95, time=0),
    Message('note_off', channel=2, note=60, velocity=80, time=480),
    Message('note_off', channel=2, note=55, velocity=80, time=0),
    Message('note_off', channel=2, note=48, velocity=80, time=0),
    Message('note_on', channel=2, note=60, velocity=95, time=0),
    Message('note_on', channel=2, note=55, velocity=95, time=0),
    Message('note_on', channel=2, note=48, velocity=95, time=0),
    Message('note_off', channel=2, note=60, velocity=80, time=480),
    Message('note_off', channel=2, note=55, velocity=80, time=0),
    Message('note_off', channel=2, note=48, velocity=80, time=0),
    Message('note_on', channel=2, note=60, velocity=95, time=0),
    Message('note_on', channel=2, note=55, velocity=95, time=0),
    Message('note_on', channel=2, note=48, velocity=95, time=0),
    Message('note_off', channel=2, note=60, velocity=80, time=480),
    Message('note_off', channel=2, note=55, velocity=80, time=0),
    Message('note_off', channel=2, note=48, velocity=80, time=0),
    Message('note_on', channel=2, note=60, velocity=95, time=0),
    Message('note_on', channel=2, note=55, velocity=95, time=0),
    Message('note_on', channel=2, note=48, velocity=95, time=0),
    Message('note_off', channel=2, note=60, velocity=80, time=480),
    Message('note_off', channel=2, note=55, velocity=80, time=0),
    Message('note_off', channel=2, note=48, velocity=80, time=0),
    Message('program_change', channel=2, program=25, time=1440),
    Message('program_change', channel=3, program=25, time=0),
    Message('control_change', channel=2, control=7, value=88, time=0),
    Message('control_change', channel=3, control=7, value=88, time=0),
    Message('note_on', channel=2, note=53, velocity=95, time=0),
    Message('note_on', channel=2, note=48, velocity=95, time=0),
    Message('note_on', channel=2, note=41, velocity=95, time=0),
    Message('note_off', channel=2, note=53, velocity=80, time=480),
    Message('note_off', channel=2, note=48, velocity=80, time=0),
    Message('note_off', channel=2, note=41, velocity=80, time=0),
    Message('note_on', channel=2, note=53, velocity=63, time=0),
    Message('note_on', channel=2, note=48, velocity=63, time=0),
    Message('note_on', channel=2, note=41, velocity=63, time=0),
    Message('note_off', channel=2, note=53, velocity=80, time=480),
    Message('note_off', channel=2, note=48, velocity=80, time=0),
    Message('note_off', channel=2, note=41, velocity=80, time=0),
    Message('note_on', channel=2, note=53, velocity=95, time=0),
    Message('note_on', channel=2, note=48, velocity=95, time=0),
    Message('note_on', channel=2, note=41, velocity=95, time=0),
    Message('note_off', channel=2, note=53, velocity=80, time=480),
    Message('note_off', channel=2, note=48, velocity=80, time=0),
    Message('note_off', channel=2, note=41, velocity=80, time=0),
    Message('note_on', channel=2, note=50, velocity=95, time=0),
    Message('note_on', channel=2, note=45, velocity=95, time=0),
    Message('note_on', channel=2, note=40, velocity=95, time=0),
    Message('note_off', channel=2, note=50, velocity=80, time=20),
    Message('note_off', channel=2, note=45, velocity=80, time=0),
    Message('note_off', channel=2, note=40, velocity=80, time=0),
    Message('note_on', channel=2, note=50, velocity=95, time=220),
    Message('note_on', channel=2, note=45, velocity=95, time=0),
    Message('note_on', channel=2, note=40, velocity=95, time=0),
    Message('note_off', channel=2, note=50, velocity=80, time=20),
    Message('note_off', channel=2, note=45, velocity=80, time=0),
    Message('note_off', channel=2, note=40, velocity=80, time=0),
    Message('note_on', channel=2, note=56, velocity=95, time=220),
    Message('note_on', channel=2, note=51, velocity=95, time=0),
    Message('note_on', channel=2, note=44, velocity=95, time=0),
    Message('note_off', channel=2, note=56, velocity=80, time=480),
    Message('note_off', channel=2, note=51, velocity=80, time=0),
    Message('note_off', channel=2, note=44, velocity=80, time=0),
    Message('note_on', channel=2, note=56, velocity=63, time=0),
    Message('note_on', channel=2, note=51, velocity=63, time=0),
    Message('note_on', channel=2, note=44, velocity=63, time=0),
    Message('note_off', channel=2, note=56, velocity=80, time=480),
    Message('note_off', channel=2, note=51, velocity=80, time=0),
    Message('note_off', channel=2, note=44, velocity=80, time=0),
    Message('note_on', channel=2, note=56, velocity=95, time=0),
    Message('note_on', channel=2, note=51, velocity=95, time=0),
    Message('note_on', channel=2, note=44, velocity=95, time=0),
    Message('note_off', channel=2, note=56, velocity=80, time=480),
    Message('note_off', channel=2, note=51, velocity=80, time=0),
    Message('note_off', channel=2, note=44, velocity=80, time=0),
    Message('note_on', channel=2, note=50, velocity=95, time=0),
    Message('note_on', channel=2, note=45, velocity=95, time=0),
    Message('note_on', channel=2, note=40, velocity=95, time=0),
    Message('note_off', channel=2, note=50, velocity=80, time=20),
    Message('note_off', channel=2, note=45, velocity=80, time=0),
    Message('note_off', channel=2, note=40, velocity=80, time=0),
    Message('note_on', channel=2, note=50, velocity=95, time=220),
    Message('note_on', channel=2, note=45, velocity=95, time=0),
    Message('note_on', channel=2, note=40, velocity=95, time=0),
    Message('note_off', channel=2, note=50, velocity=80, time=20),
    Message('note_off', channel=2, note=45, velocity=80, time=0),
    Message('note_off', channel=2, note=40, velocity=80, time=0),
    Message('note_on', channel=2, note=63, velocity=95, time=220),
    Message('note_on', channel=2, note=58, velocity=95, time=0),
    Message('note_on', channel=2, note=51, velocity=95, time=0),
    Message('note_off', channel=2, note=63, velocity=80, time=480),
    Message('note_off', channel=2, note=58, velocity=80, time=0),
    Message('note_off', channel=2, note=51, velocity=80, time=0),
    Message('note_on', channel=2, note=63, velocity=63, time=0),
    Message('note_on', channel=2, note=58, velocity=63, time=0),
    Message('note_on', channel=2, note=51, velocity=63, time=0),
    Message('note_off', channel=2, note=63, velocity=80, time=480),
    Message('note_off', channel=2, note=58, velocity=80, time=0),
    Message('note_off', channel=2, note=51, velocity=80, time=0),
    Message('note_on', channel=2, note=63, velocity=95, time=0),
    Message('note_on', channel=2, note=58, velocity=95, time=0),
    Message('note_on', channel=2, note=51, velocity=95, time=0),
    Message('note_off', channel=2, note=63, velocity=80, time=480),
    Message('note_off', channel=2, note=58, velocity=80, time=0),
    Message('note_off', channel=2, note=51, velocity=80, time=0),
    Message('note_on', channel=2, note=55, velocity=95, time=0),
    Message('note_on', channel=2, note=50, velocity=95, time=0),
    Message('note_on', channel=2, note=45, velocity=95, time=0),
    Message('note_off', channel=2, note=55, velocity=80, time=20),
    Message('note_off', channel=2, note=50, velocity=80, time=0),
    Message('note_off', channel=2, note=45, velocity=80, time=0),
    Message('note_on', channel=2, note=55, velocity=95, time=220),
    Message('note_on', channel=2, note=50, velocity=95, time=0),
    Message('note_on', channel=2, note=45, velocity=95, time=0),
    Message('note_off', channel=2, note=55, velocity=80, time=20),
    Message('note_off', channel=2, note=50, velocity=80, time=0),
    Message('note_off', channel=2, note=45, velocity=80, time=0),
    Message('note_on', channel=2, note=58, velocity=95, time=220),
    Message('note_on', channel=2, note=53, velocity=95, time=0),
    Message('note_on', channel=2, note=46, velocity=95, time=0),
    Message('note_off', channel=2, note=58, velocity=80, time=480),
    Message('note_off', channel=2, note=53, velocity=80, time=0),
    Message('note_off', channel=2, note=46, velocity=80, time=0),
    Message('note_on', channel=2, note=58, velocity=63, time=0),
    Message('note_on', channel=2, note=53, velocity=63, time=0),
    Message('note_on', channel=2, note=46, velocity=63, time=0),
    Message('note_off', channel=2, note=58, velocity=80, time=480),
    Message('note_off', channel=2, note=53, velocity=80, time=0),
    Message('note_off', channel=2, note=46, velocity=80, time=0),
    Message('note_on', channel=2, note=58, velocity=95, time=0),
    Message('note_on', channel=2, note=53, velocity=95, time=0),
    Message('note_on', channel=2, note=46, velocity=95, time=0),
    Message('note_off', channel=2, note=58, velocity=80, time=480),
    Message('note_off', channel=2, note=53, velocity=80, time=0),
    Message('note_off', channel=2, note=46, velocity=80, time=0),
    Message('note_on', channel=2, note=50, velocity=95, time=0),
    Message('note_on', channel=2, note=45, velocity=95, time=0),
    Message('note_on', channel=2, note=40, velocity=95, time=0),
    Message('note_off', channel=2, note=50, velocity=80, time=20),
    Message('note_off', channel=2, note=45, velocity=80, time=0),
    Message('note_off', channel=2, note=40, velocity=80, time=0),
    Message('note_on', channel=2, note=50, velocity=95, time=220),
    Message('note_on', channel=2, note=45, velocity=95, time=0),
    Message('note_on', channel=2, note=40, velocity=95, time=0),
    Message('note_off', channel=2, note=50, velocity=80, time=20),
    Message('note_off', channel=2, note=45, velocity=80, time=0),
    Message('note_off', channel=2, note=40, velocity=80, time=0),
    Message('note_on', channel=2, note=53, velocity=95, time=220),
    Message('note_on', channel=2, note=48, velocity=95, time=0),
    Message('note_on', channel=2, note=41, velocity=95, time=0),
    Message('note_off', channel=2, note=53, velocity=80, time=480),
    Message('note_off', channel=2, note=48, velocity=80, time=0),
    Message('note_off', channel=2, note=41, velocity=80, time=0),
    Message('note_on', channel=2, note=53, velocity=63, time=0),
    Message('note_on', channel=2, note=48, velocity=63, time=0),
    Message('note_on', channel=2, note=41, velocity=63, time=0),
    Message('note_off', channel=2, note=53, velocity=80, time=480),
    Message('note_off', channel=2, note=48, velocity=80, time=0),
    Message('note_off', channel=2, note=41, velocity=80, time=0),
    Message('note_on', channel=2, note=53, velocity=95, time=0),
    Message('note_on', channel=2, note=48, velocity=95, time=0),
    Message('note_on', channel=2, note=41, velocity=95, time=0),
    Message('note_off', channel=2, note=53, velocity=80, time=480),
    Message('note_off', channel=2, note=48, velocity=80, time=0),
    Message('note_off', channel=2, note=41, velocity=80, time=0),
    Message('note_on', channel=2, note=50, velocity=95, time=0),
    Message('note_on', channel=2, note=45, velocity=95, time=0),
    Message('note_on', channel=2, note=40, velocity=95, time=0),
    Message('note_off', channel=2, note=50, velocity=80, time=20),
    Message('note_off', channel=2, note=45, velocity=80, time=0),
    Message('note_off', channel=2, note=40, velocity=80, time=0),
    Message('note_on', channel=2, note=50, velocity=95, time=220),
    Message('note_on', channel=2, note=45, velocity=95, time=0),
    Message('note_on', channel=2, note=40, velocity=95, time=0),
    Message('note_off', channel=2, note=50, velocity=80, time=20),
    Message('note_off', channel=2, note=45, velocity=80, time=0),
    Message('note_off', channel=2, note=40, velocity=80, time=0),
    Message('note_on', channel=2, note=56, velocity=95, time=220),
    Message('note_on', channel=2, note=51, velocity=95, time=0),
    Message('note_on', channel=2, note=44, velocity=95, time=0),
    Message('note_off', channel=2, note=56, velocity=80, time=480),
    Message('note_off', channel=2, note=51, velocity=80, time=0),
    Message('note_off', channel=2, note=44, velocity=80, time=0),
    Message('note_on', channel=2, note=56, velocity=63, time=0),
    Message('note_on', channel=2, note=51, velocity=63, time=0),
    Message('note_on', channel=2, note=44, velocity=63, time=0),
    Message('note_off', channel=2, note=56, velocity=80, time=480),
    Message('note_off', channel=2, note=51, velocity=80, time=0),
    Message('note_off', channel=2, note=44, velocity=80, time=0),
    Message('note_on', channel=2, note=56, velocity=95, time=0),
    Message('note_on', channel=2, note=51, velocity=95, time=0),
    Message('note_on', channel=2, note=44, velocity=95, time=0),
    Message('note_off', channel=2, note=56, velocity=80, time=480),
    Message('note_off', channel=2, note=51, velocity=80, time=0),
    Message('note_off', channel=2, note=44, velocity=80, time=0),
    Message('note_on', channel=2, note=50, velocity=95, time=0),
    Message('note_on', channel=2, note=45, velocity=95, time=0),
    Message('note_on', channel=2, note=40, velocity=95, time=0),
    Message('note_off', channel=2, note=50, velocity=80, time=20),
    Message('note_off', channel=2, note=45, velocity=80, time=0),
    Message('note_off', channel=2, note=40, velocity=80, time=0),
    Message('note_on', channel=2, note=50, velocity=95, time=220),
    Message('note_on', channel=2, note=45, velocity=95, time=0),
    Message('note_on', channel=2, note=40, velocity=95, time=0),
    Message('note_off', channel=2, note=50, velocity=80, time=20),
    Message('note_off', channel=2, note=45, velocity=80, time=0),
    Message('note_off', channel=2, note=40, velocity=80, time=0),
    Message('note_on', channel=2, note=63, velocity=95, time=220),
    Message('note_on', channel=2, note=58, velocity=95, time=0),
    Message('note_on', channel=2, note=51, velocity=95, time=0),
    Message('note_off', channel=2, note=63, velocity=80, time=480),
    Message('note_off', channel=2, note=58, velocity=80, time=0),
    Message('note_off', channel=2, note=51, velocity=80, time=0),
    Message('note_on', channel=2, note=63, velocity=63, time=0),
    Message('note_on', channel=2, note=58, velocity=63, time=0),
    Message('note_on', channel=2, note=51, velocity=63, time=0),
    Message('note_off', channel=2, note=63, velocity=80, time=480),
    Message('note_off', channel=2, note=58, velocity=80, time=0),
    Message('note_off', channel=2, note=51, velocity=80, time=0),
    Message('note_on', channel=2, note=63, velocity=95, time=0),
    Message('note_on', channel=2, note=58, velocity=95, time=0),
    Message('note_on', channel=2, note=51, velocity=95, time=0),
    Message('note_off', channel=2, note=63, velocity=80, time=480),
    Message('note_off', channel=2, note=58, velocity=80, time=0),
    Message('note_off', channel=2, note=51, velocity=80, time=0),
    Message('note_on', channel=2, note=55, velocity=95, time=0),
    Message('note_on', channel=2, note=50, velocity=95, time=0),
    Message('note_on', channel=2, note=45, velocity=95, time=0),
    Message('note_off', channel=2, note=55, velocity=80, time=20),
    Message('note_off', channel=2, note=50, velocity=80, time=0),
    Message('note_off', channel=2, note=45, velocity=80, time=0),
    Message('note_on', channel=2, note=55, velocity=95, time=220),
    Message('note_on', channel=2, note=50, velocity=95, time=0),
    Message('note_on', channel=2, note=45, velocity=95, time=0),
    Message('note_off', channel=2, note=55, velocity=80, time=20),
    Message('note_off', channel=2, note=50, velocity=80, time=0),
    Message('note_off', channel=2, note=45, velocity=80, time=0),
    Message('program_change', channel=2, program=29, time=220),
    Message('program_change', channel=3, program=29, time=0),
    Message('control_change', channel=2, control=7, value=104, time=0),
    Message('control_change', channel=3, control=7, value=104, time=0),
    Message('note_on', channel=2, note=58, velocity=95, time=0),
    Message('note_on', channel=2, note=53, velocity=95, time=0),
    Message('note_on', channel=2, note=46, velocity=95, time=0),
    Message('note_off', channel=2, note=58, velocity=80, time=480),
    Message('note_off', channel=2, note=53, velocity=80, time=0),
    Message('note_off', channel=2, note=46, velocity=80, time=0),
    Message('note_on', channel=2, note=58, velocity=95, time=0),
    Message('note_on', channel=2, note=53, velocity=95, time=0),
    Message('note_on', channel=2, note=46, velocity=95, time=0),
    Message('note_off', channel=2, note=58, velocity=80, time=480),
    Message('note_off', channel=2, note=53, velocity=80, time=0),
    Message('note_off', channel=2, note=46, velocity=80, time=0),
    Message('note_on', channel=2, note=58, velocity=95, time=0),
    Message('note_on', channel=2, note=53, velocity=95, time=0),
    Message('note_on', channel=2, note=46, velocity=95, time=0),
    Message('note_off', channel=2, note=58, velocity=80, time=480),
    Message('note_off', channel=2, note=53, velocity=80, time=0),
    Message('note_off', channel=2, note=46, velocity=80, time=0),
    Message('note_on', channel=2, note=60, velocity=95, time=0),
    Message('note_on', channel=2, note=55, velocity=95, time=0),
    Message('note_on', channel=2, note=48, velocity=95, time=0),
    Message('note_off', channel=2, note=60, velocity=80, time=480),
    Message('note_off', channel=2, note=55, velocity=80, time=0),
    Message('note_off', channel=2, note=48, velocity=80, time=0),
    Message('note_on', channel=2, note=61, velocity=95, time=0),
    Message('note_on', channel=2, note=56, velocity=95, time=0),
    Message('note_on', channel=2, note=49, velocity=95, time=0),
    Message('note_off', channel=2, note=61, velocity=80, time=480),
    Message('note_off', channel=2, note=56, velocity=80, time=0),
    Message('note_off', channel=2, note=49, velocity=80, time=0),
    Message('note_on', channel=2, note=61, velocity=95, time=0),
    Message('note_on', channel=2, note=56, velocity=95, time=0),
    Message('note_on', channel=2, note=49, velocity=95, time=0),
    Message('note_off', channel=2, note=61, velocity=80, time=480),
    Message('note_off', channel=2, note=56, velocity=80, time=0),
    Message('note_off', channel=2, note=49, velocity=80, time=0),
    Message('note_on', channel=2, note=61, velocity=95, time=0),
    Message('note_on', channel=2, note=56, velocity=95, time=0),
    Message('note_on', channel=2, note=49, velocity=95, time=0),
    Message('note_off', channel=2, note=61, velocity=80, time=480),
    Message('note_off', channel=2, note=56, velocity=80, time=0),
    Message('note_off', channel=2, note=49, velocity=80, time=0),
    Message('note_on', channel=2, note=61, velocity=95, time=0),
    Message('note_on', channel=2, note=56, velocity=95, time=0),
    Message('note_on', channel=2, note=49, velocity=95, time=0),
    Message('note_off', channel=2, note=61, velocity=80, time=240),
    Message('note_off', channel=2, note=56, velocity=80, time=0),
    Message('note_off', channel=2, note=49, velocity=80, time=0),
    Message('note_on', channel=2, note=61, velocity=95, time=0),
    Message('note_on', channel=2, note=56, velocity=95, time=0),
    Message('note_on', channel=2, note=49, velocity=95, time=0),
    Message('note_off', channel=2, note=61, velocity=80, time=240),
    Message('note_off', channel=2, note=56, velocity=80, time=0),
    Message('note_off', channel=2, note=49, velocity=80, time=0),
    Message('note_on', channel=2, note=56, velocity=95, time=0),
    Message('note_on', channel=2, note=51, velocity=95, time=0),
    Message('note_on', channel=2, note=44, velocity=95, time=0),
    Message('note_off', channel=2, note=56, velocity=80, time=480),
    Message('note_off', channel=2, note=51, velocity=80, time=0),
    Message('note_off', channel=2, note=44, velocity=80, time=0),
    Message('note_on', channel=2, note=56, velocity=95, time=0),
    Message('note_on', channel=2, note=51, velocity=95, time=0),
    Message('note_on', channel=2, note=44, velocity=95, time=0),
    Message('note_off', channel=2, note=56, velocity=80, time=480),
    Message('note_off', channel=2, note=51, velocity=80, time=0),
    Message('note_off', channel=2, note=44, velocity=80, time=0),
    Message('note_on', channel=2, note=56, velocity=95, time=0),
    Message('note_on', channel=2, note=51, velocity=95, time=0),
    Message('note_on', channel=2, note=44, velocity=95, time=0),
    Message('note_off', channel=2, note=56, velocity=80, time=480),
    Message('note_off', channel=2, note=51, velocity=80, time=0),
    Message('note_off', channel=2, note=44, velocity=80, time=0),
    Message('note_on', channel=2, note=56, velocity=95, time=0),
    Message('note_on', channel=2, note=51, velocity=95, time=0),
    Message('note_on', channel=2, note=44, velocity=95, time=0),
    Message('note_off', channel=2, note=56, velocity=80, time=240),
    Message('note_off', channel=2, note=51, velocity=80, time=0),
    Message('note_off', channel=2, note=44, velocity=80, time=0),
    Message('note_on', channel=2, note=56, velocity=95, time=0),
    Message('note_on', channel=2, note=51, velocity=95, time=0),
    Message('note_on', channel=2, note=44, velocity=95, time=0),
    Message('note_off', channel=2, note=56, velocity=80, time=240),
    Message('note_off', channel=2, note=51, velocity=80, time=0),
    Message('note_off', channel=2, note=44, velocity=80, time=0),
    Message('note_on', channel=2, note=63, velocity=95, time=0),
    Message('note_on', channel=2, note=58, velocity=95, time=0),
    Message('note_on', channel=2, note=51, velocity=95, time=0),
    Message('note_off', channel=2, note=63, velocity=80, time=480),
    Message('note_off', channel=2, note=58, velocity=80, time=0),
    Message('note_off', channel=2, note=51, velocity=80, time=0),
    Message('note_on', channel=2, note=63, velocity=95, time=0),
    Message('note_on', channel=2, note=58, velocity=95, time=0),
    Message('note_on', channel=2, note=51, velocity=95, time=0),
    Message('note_off', channel=2, note=63, velocity=80, time=480),
    Message('note_off', channel=2, note=58, velocity=80, time=0),
    Message('note_off', channel=2, note=51, velocity=80, time=0),
    Message('note_on', channel=2, note=63, velocity=95, time=0),
    Message('note_on', channel=2, note=58, velocity=95, time=0),
    Message('note_on', channel=2, note=51, velocity=95, time=0),
    Message('note_off', channel=2, note=63, velocity=80, time=480),
    Message('note_off', channel=2, note=58, velocity=80, time=0),
    Message('note_off', channel=2, note=51, velocity=80, time=0),
    Message('note_on', channel=2, note=63, velocity=95, time=0),
    Message('note_on', channel=2, note=58, velocity=95, time=0),
    Message('note_on', channel=2, note=51, velocity=95, time=0),
    Message('note_off', channel=2, note=63, velocity=80, time=240),
    Message('note_off', channel=2, note=58, velocity=80, time=0),
    Message('note_off', channel=2, note=51, velocity=80, time=0),
    Message('note_on', channel=2, note=63, velocity=95, time=0),
    Message('note_on', channel=2, note=58, velocity=95, time=0),
    Message('note_on', channel=2, note=51, velocity=95, time=0),
    Message('note_off', channel=2, note=63, velocity=80, time=240),
    Message('note_off', channel=2, note=58, velocity=80, time=0),
    Message('note_off', channel=2, note=51, velocity=80, time=0),
    Message('note_on', channel=2, note=53, velocity=95, time=0),
    Message('note_on', channel=2, note=48, velocity=95, time=0),
    Message('note_on', channel=2, note=41, velocity=95, time=0),
    Message('note_off', channel=2, note=53, velocity=80, time=480),
    Message('note_off', channel=2, note=48, velocity=80, time=0),
    Message('note_off', channel=2, note=41, velocity=80, time=0),
    Message('note_on', channel=2, note=53, velocity=95, time=0),
    Message('note_on', channel=2, note=48, velocity=95, time=0),
    Message('note_on', channel=2, note=41, velocity=95, time=0),
    Message('note_off', channel=2, note=53, velocity=80, time=480),
    Message('note_off', channel=2, note=48, velocity=80, time=0),
    Message('note_off', channel=2, note=41, velocity=80, time=0),
    Message('note_on', channel=2, note=53, velocity=95, time=0),
    Message('note_on', channel=2, note=48, velocity=95, time=0),
    Message('note_on', channel=2, note=41, velocity=95, time=0),
    Message('note_off', channel=2, note=53, velocity=80, time=480),
    Message('note_off', channel=2, note=48, velocity=80, time=0),
    Message('note_off', channel=2, note=41, velocity=80, time=0),
    Message('note_on', channel=2, note=53, velocity=95, time=0),
    Message('note_on', channel=2, note=48, velocity=95, time=0),
    Message('note_on', channel=2, note=41, velocity=95, time=0),
    Message('note_off', channel=2, note=53, velocity=80, time=240),
    Message('note_off', channel=2, note=48, velocity=80, time=0),
    Message('note_off', channel=2, note=41, velocity=80, time=0),
    Message('note_on', channel=2, note=53, velocity=95, time=0),
    Message('note_on', channel=2, note=48, velocity=95, time=0),
    Message('note_on', channel=2, note=41, velocity=95, time=0),
    Message('note_off', channel=2, note=53, velocity=80, time=240),
    Message('note_off', channel=2, note=48, velocity=80, time=0),
    Message('note_off', channel=2, note=41, velocity=80, time=0),
    Message('program_change', channel=2, program=29, time=0),
    Message('program_change', channel=3, program=29, time=0),
    Message('control_change', channel=2, control=7, value=104, time=0),
    Message('control_change', channel=3, control=7, value=104, time=0),
    Message('note_on', channel=2, note=61, velocity=95, time=0),
    Message('note_on', channel=2, note=56, velocity=95, time=0),
    Message('note_on', channel=2, note=49, velocity=95, time=0),
    Message('note_off', channel=2, note=61, velocity=80, time=480),
    Message('note_off', channel=2, note=56, velocity=80, time=0),
    Message('note_off', channel=2, note=49, velocity=80, time=0),
    Message('note_on', channel=2, note=61, velocity=95, time=0),
    Message('note_on', channel=2, note=56, velocity=95, time=0),
    Message('note_on', channel=2, note=49, velocity=95, time=0),
    Message('note_off', channel=2, note=61, velocity=80, time=480),
    Message('note_off', channel=2, note=56, velocity=80, time=0),
    Message('note_off', channel=2, note=49, velocity=80, time=0),
    Message('note_on', channel=2, note=61, velocity=95, time=0),
    Message('note_on', channel=2, note=56, velocity=95, time=0),
    Message('note_on', channel=2, note=49, velocity=95, time=0),
    Message('note_off', channel=2, note=61, velocity=80, time=480),
    Message('note_off', channel=2, note=56, velocity=80, time=0),
    Message('note_off', channel=2, note=49, velocity=80, time=0),
    Message('note_on', channel=2, note=61, velocity=95, time=0),
    Message('note_on', channel=2, note=56, velocity=95, time=0),
    Message('note_on', channel=2, note=49, velocity=95, time=0),
    Message('note_off', channel=2, note=61, velocity=80, time=240),
    Message('note_off', channel=2, note=56, velocity=80, time=0),
    Message('note_off', channel=2, note=49, velocity=80, time=0),
    Message('note_on', channel=2, note=61, velocity=95, time=0),
    Message('note_on', channel=2, note=56, velocity=95, time=0),
    Message('note_on', channel=2, note=49, velocity=95, time=0),
    Message('note_off', channel=2, note=61, velocity=80, time=240),
    Message('note_off', channel=2, note=56, velocity=80, time=0),
    Message('note_off', channel=2, note=49, velocity=80, time=0),
    Message('note_on', channel=2, note=56, velocity=95, time=0),
    Message('note_on', channel=2, note=51, velocity=95, time=0),
    Message('note_on', channel=2, note=44, velocity=95, time=0),
    Message('note_off', channel=2, note=56, velocity=80, time=480),
    Message('note_off', channel=2, note=51, velocity=80, time=0),
    Message('note_off', channel=2, note=44, velocity=80, time=0),
    Message('note_on', channel=2, note=56, velocity=95, time=0),
    Message('note_on', channel=2, note=51, velocity=95, time=0),
    Message('note_on', channel=2, note=44, velocity=95, time=0),
    Message('note_off', channel=2, note=56, velocity=80, time=480),
    Message('note_off', channel=2, note=51, velocity=80, time=0),
    Message('note_off', channel=2, note=44, velocity=80, time=0),
    Message('note_on', channel=2, note=56, velocity=95, time=0),
    Message('note_on', channel=2, note=51, velocity=95, time=0),
    Message('note_on', channel=2, note=44, velocity=95, time=0),
    Message('note_off', channel=2, note=56, velocity=80, time=480),
    Message('note_off', channel=2, note=51, velocity=80, time=0),
    Message('note_off', channel=2, note=44, velocity=80, time=0),
    Message('note_on', channel=2, note=56, velocity=95, time=0),
    Message('note_on', channel=2, note=51, velocity=95, time=0),
    Message('note_on', channel=2, note=44, velocity=95, time=0),
    Message('note_off', channel=2, note=56, velocity=80, time=240),
    Message('note_off', channel=2, note=51, velocity=80, time=0),
    Message('note_off', channel=2, note=44, velocity=80, time=0),
    Message('note_on', channel=2, note=56, velocity=95, time=0),
    Message('note_on', channel=2, note=51, velocity=95, time=0),
    Message('note_on', channel=2, note=44, velocity=95, time=0),
    Message('note_off', channel=2, note=56, velocity=80, time=240),
    Message('note_off', channel=2, note=51, velocity=80, time=0),
    Message('note_off', channel=2, note=44, velocity=80, time=0),
    Message('note_on', channel=2, note=63, velocity=95, time=0),
    Message('note_on', channel=2, note=58, velocity=95, time=0),
    Message('note_on', channel=2, note=51, velocity=95, time=0),
    Message('note_off', channel=2, note=63, velocity=80, time=480),
    Message('note_off', channel=2, note=58, velocity=80, time=0),
    Message('note_off', channel=2, note=51, velocity=80, time=0),
    Message('note_on', channel=2, note=63, velocity=95, time=0),
    Message('note_on', channel=2, note=58, velocity=95, time=0),
    Message('note_on', channel=2, note=51, velocity=95, time=0),
    Message('note_off', channel=2, note=63, velocity=80, time=480),
    Message('note_off', channel=2, note=58, velocity=80, time=0),
    Message('note_off', channel=2, note=51, velocity=80, time=0),
    Message('note_on', channel=2, note=63, velocity=95, time=0),
    Message('note_on', channel=2, note=58, velocity=95, time=0),
    Message('note_on', channel=2, note=51, velocity=95, time=0),
    Message('note_off', channel=2, note=63, velocity=80, time=480),
    Message('note_off', channel=2, note=58, velocity=80, time=0),
    Message('note_off', channel=2, note=51, velocity=80, time=0),
    Message('note_on', channel=2, note=63, velocity=95, time=0),
    Message('note_on', channel=2, note=58, velocity=95, time=0),
    Message('note_on', channel=2, note=51, velocity=95, time=0),
    Message('note_off', channel=2, note=63, velocity=80, time=240),
    Message('note_off', channel=2, note=58, velocity=80, time=0),
    Message('note_off', channel=2, note=51, velocity=80, time=0),
    Message('note_on', channel=2, note=63, velocity=95, time=0),
    Message('note_on', channel=2, note=58, velocity=95, time=0),
    Message('note_on', channel=2, note=51, velocity=95, time=0),
    Message('note_off', channel=2, note=63, velocity=80, time=240),
    Message('note_off', channel=2, note=58, velocity=80, time=0),
    Message('note_off', channel=2, note=51, velocity=80, time=0),
    Message('note_on', channel=2, note=53, velocity=95, time=0),
    Message('note_on', channel=2, note=48, velocity=95, time=0),
    Message('note_on', channel=2, note=41, velocity=95, time=0),
    Message('note_off', channel=2, note=53, velocity=80, time=480),
    Message('note_off', channel=2, note=48, velocity=80, time=0),
    Message('note_off', channel=2, note=41, velocity=80, time=0),
    Message('note_on', channel=2, note=53, velocity=95, time=0),
    Message('note_on', channel=2, note=48, velocity=95, time=0),
    Message('note_on', channel=2, note=41, velocity=95, time=0),
    Message('note_off', channel=2, note=53, velocity=80, time=480),
    Message('note_off', channel=2, note=48, velocity=80, time=0),
    Message('note_off', channel=2, note=41, velocity=80, time=0),
    Message('note_on', channel=2, note=53, velocity=95, time=0),
    Message('note_on', channel=2, note=48, velocity=95, time=0),
    Message('note_on', channel=2, note=41, velocity=95, time=0),
    Message('note_off', channel=2, note=53, velocity=80, time=480),
    Message('note_off', channel=2, note=48, velocity=80, time=0),
    Message('note_off', channel=2, note=41, velocity=80, time=0),
    Message('note_on', channel=2, note=53, velocity=95, time=0),
    Message('note_on', channel=2, note=48, velocity=95, time=0),
    Message('note_on', channel=2, note=41, velocity=95, time=0),
    Message('note_off', channel=2, note=53, velocity=80, time=240),
    Message('note_off', channel=2, note=48, velocity=80, time=0),
    Message('note_off', channel=2, note=41, velocity=80, time=0),
    Message('note_on', channel=2, note=53, velocity=95, time=0),
    Message('note_on', channel=2, note=48, velocity=95, time=0),
    Message('note_on', channel=2, note=41, velocity=95, time=0),
    Message('note_off', channel=2, note=53, velocity=80, time=240),
    Message('note_off', channel=2, note=48, velocity=80, time=0),
    Message('note_off', channel=2, note=41, velocity=80, time=0),
    Message('note_on', channel=2, note=61, velocity=95, time=0),
    Message('note_on', channel=2, note=56, velocity=95, time=0),
    Message('note_on', channel=2, note=49, velocity=95, time=0),
    Message('note_off', channel=2, note=61, velocity=80, time=480),
    Message('note_off', channel=2, note=56, velocity=80, time=0),
    Message('note_off', channel=2, note=49, velocity=80, time=0),
    Message('note_on', channel=2, note=61, velocity=95, time=0),
    Message('note_on', channel=2, note=56, velocity=95, time=0),
    Message('note_on', channel=2, note=49, velocity=95, time=0),
    Message('note_off', channel=2, note=61, velocity=80, time=480),
    Message('note_off', channel=2, note=56, velocity=80, time=0),
    Message('note_off', channel=2, note=49, velocity=80, time=0),
    Message('note_on', channel=2, note=56, velocity=95, time=960),
    Message('note_on', channel=2, note=51, velocity=95, time=0),
    Message('note_on', channel=2, note=44, velocity=95, time=0),
    Message('note_off', channel=2, note=56, velocity=80, time=480),
    Message('note_off', channel=2, note=51, velocity=80, time=0),
    Message('note_off', channel=2, note=44, velocity=80, time=0),
    Message('note_on', channel=2, note=56, velocity=95, time=0),
    Message('note_on', channel=2, note=51, velocity=95, time=0),
    Message('note_on', channel=2, note=44, velocity=95, time=0),
    Message('note_off', channel=2, note=56, velocity=80, time=480),
    Message('note_off', channel=2, note=51, velocity=80, time=0),
    Message('note_off', channel=2, note=44, velocity=80, time=0),
    Message('note_on', channel=2, note=63, velocity=95, time=960),
    Message('note_on', channel=2, note=58, velocity=95, time=0),
    Message('note_on', channel=2, note=51, velocity=95, time=0),
    Message('note_off', channel=2, note=63, velocity=80, time=480),
    Message('note_off', channel=2, note=58, velocity=80, time=0),
    Message('note_off', channel=2, note=51, velocity=80, time=0),
    Message('note_on', channel=2, note=63, velocity=95, time=0),
    Message('note_on', channel=2, note=58, velocity=95, time=0),
    Message('note_on', channel=2, note=51, velocity=95, time=0),
    Message('note_off', channel=2, note=63, velocity=80, time=480),
    Message('note_off', channel=2, note=58, velocity=80, time=0),
    Message('note_off', channel=2, note=51, velocity=80, time=0),
    Message('note_on', channel=2, note=63, velocity=95, time=0),
    Message('note_on', channel=2, note=58, velocity=95, time=0),
    Message('note_on', channel=2, note=51, velocity=95, time=0),
    Message('note_off', channel=2, note=63, velocity=80, time=480),
    Message('note_off', channel=2, note=58, velocity=80, time=0),
    Message('note_off', channel=2, note=51, velocity=80, time=0),
    Message('note_on', channel=2, note=63, velocity=95, time=0),
    Message('note_on', channel=2, note=58, velocity=95, time=0),
    Message('note_on', channel=2, note=51, velocity=95, time=0),
    Message('note_off', channel=2, note=63, velocity=80, time=240),
    Message('note_off', channel=2, note=58, velocity=80, time=0),
    Message('note_off', channel=2, note=51, velocity=80, time=0),
    Message('note_on', channel=2, note=63, velocity=95, time=0),
    Message('note_on', channel=2, note=58, velocity=95, time=0),
    Message('note_on', channel=2, note=51, velocity=95, time=0),
    Message('note_off', channel=2, note=63, velocity=80, time=240),
    Message('note_off', channel=2, note=58, velocity=80, time=0),
    Message('note_off', channel=2, note=51, velocity=80, time=0),
    Message('note_on', channel=2, note=53, velocity=95, time=0),
    Message('note_on', channel=2, note=48, velocity=95, time=0),
    Message('note_on', channel=2, note=41, velocity=95, time=0),
    Message('note_off', channel=2, note=53, velocity=80, time=480),
    Message('note_off', channel=2, note=48, velocity=80, time=0),
    Message('note_off', channel=2, note=41, velocity=80, time=0),
    Message('note_on', channel=2, note=53, velocity=95, time=0),
    Message('note_on', channel=2, note=48, velocity=95, time=0),
    Message('note_on', channel=2, note=41, velocity=95, time=0),
    Message('note_off', channel=2, note=53, velocity=80, time=480),
    Message('note_off', channel=2, note=48, velocity=80, time=0),
    Message('note_off', channel=2, note=41, velocity=80, time=0),
    Message('note_on', channel=2, note=53, velocity=95, time=0),
    Message('note_on', channel=2, note=48, velocity=95, time=0),
    Message('note_on', channel=2, note=41, velocity=95, time=0),
    Message('note_off', channel=2, note=53, velocity=80, time=480),
    Message('note_off', channel=2, note=48, velocity=80, time=0),
    Message('note_off', channel=2, note=41, velocity=80, time=0),
    Message('note_on', channel=2, note=53, velocity=95, time=0),
    Message('note_on', channel=2, note=48, velocity=95, time=0),
    Message('note_on', channel=2, note=41, velocity=95, time=0),
    Message('note_off', channel=2, note=53, velocity=80, time=240),
    Message('note_off', channel=2, note=48, velocity=80, time=0),
    Message('note_off', channel=2, note=41, velocity=80, time=0),
    Message('note_on', channel=2, note=53, velocity=95, time=0),
    Message('note_on', channel=2, note=48, velocity=95, time=0),
    Message('note_on', channel=2, note=41, velocity=95, time=0),
    Message('note_off', channel=2, note=53, velocity=80, time=240),
    Message('note_off', channel=2, note=48, velocity=80, time=0),
    Message('note_off', channel=2, note=41, velocity=80, time=0),
    Message('program_change', channel=2, program=29, time=0),
    Message('program_change', channel=3, program=29, time=0),
    Message('control_change', channel=2, control=7, value=104, time=0),
    Message('control_change', channel=3, control=7, value=104, time=0),
    Message('note_on', channel=2, note=61, velocity=95, time=0),
    Message('note_on', channel=2, note=56, velocity=95, time=0),
    Message('note_on', channel=2, note=49, velocity=95, time=0),
    Message('note_off', channel=2, note=61, velocity=80, time=480),
    Message('note_off', channel=2, note=56, velocity=80, time=0),
    Message('note_off', channel=2, note=49, velocity=80, time=0),
    Message('note_on', channel=2, note=61, velocity=95, time=0),
    Message('note_on', channel=2, note=56, velocity=95, time=0),
    Message('note_on', channel=2, note=49, velocity=95, time=0),
    Message('note_off', channel=2, note=61, velocity=80, time=480),
    Message('note_off', channel=2, note=56, velocity=80, time=0),
    Message('note_off', channel=2, note=49, velocity=80, time=0),
    Message('note_on', channel=2, note=56, velocity=95, time=960),
    Message('note_on', channel=2, note=51, velocity=95, time=0),
    Message('note_on', channel=2, note=44, velocity=95, time=0),
    Message('note_off', channel=2, note=56, velocity=80, time=480),
    Message('note_off', channel=2, note=51, velocity=80, time=0),
    Message('note_off', channel=2, note=44, velocity=80, time=0),
    Message('note_on', channel=2, note=56, velocity=95, time=0),
    Message('note_on', channel=2, note=51, velocity=95, time=0),
    Message('note_on', channel=2, note=44, velocity=95, time=0),
    Message('note_off', channel=2, note=56, velocity=80, time=480),
    Message('note_off', channel=2, note=51, velocity=80, time=0),
    Message('note_off', channel=2, note=44, velocity=80, time=0),
    Message('note_on', channel=3, note=55, velocity=95, time=480),
    Message('pitchwheel', channel=3, pitch=-640, time=240),
    Message('pitchwheel', channel=3, pitch=-1408, time=40),
    Message('pitchwheel', channel=3, pitch=-2048, time=40),
    Message('pitchwheel', channel=3, pitch=-2688, time=40),
    Message('pitchwheel', channel=3, pitch=-3456, time=40),
    Message('pitchwheel', channel=3, pitch=-4096, time=40),
    Message('note_off', channel=3, note=55, velocity=80, time=40),
    Message('pitchwheel', channel=3, pitch=0, time=0),
    Message('note_on', channel=2, note=60, velocity=95, time=0),
    Message('note_on', channel=2, note=55, velocity=95, time=0),
    Message('note_on', channel=2, note=48, velocity=86, time=0),
    Message('note_off', channel=2, note=60, velocity=80, time=480),
    Message('note_off', channel=2, note=55, velocity=80, time=0),
    Message('note_off', channel=2, note=48, velocity=80, time=0),
    Message('note_on', channel=2, note=60, velocity=95, time=0),
    Message('note_on', channel=2, note=55, velocity=95, time=0),
    Message('note_on', channel=2, note=48, velocity=95, time=0),
    Message('note_off', channel=2, note=60, velocity=80, time=480),
    Message('note_off', channel=2, note=55, velocity=80, time=0),
    Message('note_off', channel=2, note=48, velocity=80, time=0),
    Message('note_on', channel=2, note=60, velocity=95, time=0),
    Message('note_on', channel=2, note=55, velocity=95, time=0),
    Message('note_on', channel=2, note=48, velocity=95, time=0),
    Message('note_off', channel=2, note=60, velocity=80, time=480),
    Message('note_off', channel=2, note=55, velocity=80, time=0),
    Message('note_off', channel=2, note=48, velocity=80, time=0),
    Message('note_on', channel=2, note=60, velocity=95, time=0),
    Message('note_on', channel=2, note=55, velocity=95, time=0),
    Message('note_on', channel=2, note=48, velocity=95, time=0),
    Message('note_off', channel=2, note=60, velocity=80, time=480),
    Message('note_off', channel=2, note=55, velocity=80, time=0),
    Message('note_off', channel=2, note=48, velocity=80, time=0),
    Message('note_on', channel=2, note=60, velocity=95, time=0),
    Message('note_on', channel=2, note=55, velocity=95, time=0),
    Message('note_on', channel=2, note=48, velocity=95, time=0),
    Message('note_off', channel=2, note=60, velocity=80, time=480),
    Message('note_off', channel=2, note=55, velocity=80, time=0),
    Message('note_off', channel=2, note=48, velocity=80, time=0),
    Message('note_on', channel=2, note=60, velocity=95, time=0),
    Message('note_on', channel=2, note=55, velocity=95, time=0),
    Message('note_on', channel=2, note=48, velocity=95, time=0),
    Message('note_off', channel=2, note=60, velocity=80, time=480),
    Message('note_off', channel=2, note=55, velocity=80, time=0),
    Message('note_off', channel=2, note=48, velocity=80, time=0),
    Message('note_on', channel=2, note=60, velocity=95, time=0),
    Message('note_on', channel=2, note=55, velocity=95, time=0),
    Message('note_on', channel=2, note=48, velocity=95, time=0),
    Message('note_off', channel=2, note=60, velocity=80, time=480),
    Message('note_off', channel=2, note=55, velocity=80, time=0),
    Message('note_off', channel=2, note=48, velocity=80, time=0),
    Message('note_on', channel=2, note=60, velocity=95, time=0),
    Message('note_on', channel=2, note=55, velocity=95, time=0),
    Message('note_on', channel=2, note=48, velocity=95, time=0),
    Message('note_off', channel=2, note=60, velocity=80, time=480),
    Message('note_off', channel=2, note=55, velocity=80, time=0),
    Message('note_off', channel=2, note=48, velocity=80, time=0),
    Message('note_on', channel=2, note=60, velocity=95, time=0),
    Message('note_on', channel=2, note=55, velocity=95, time=0),
    Message('note_on', channel=2, note=48, velocity=95, time=0),
    Message('note_off', channel=2, note=60, velocity=80, time=480),
    Message('note_off', channel=2, note=55, velocity=80, time=0),
    Message('note_off', channel=2, note=48, velocity=80, time=0),
    Message('note_on', channel=2, note=60, velocity=95, time=0),
    Message('note_on', channel=2, note=55, velocity=95, time=0),
    Message('note_on', channel=2, note=48, velocity=95, time=0),
    Message('note_off', channel=2, note=60, velocity=80, time=480),
    Message('note_off', channel=2, note=55, velocity=80, time=0),
    Message('note_off', channel=2, note=48, velocity=80, time=0),
    Message('note_on', channel=2, note=60, velocity=95, time=0),
    Message('note_on', channel=2, note=55, velocity=95, time=0),
    Message('note_on', channel=2, note=48, velocity=95, time=0),
    Message('note_off', channel=2, note=60, velocity=80, time=480),
    Message('note_off', channel=2, note=55, velocity=80, time=0),
    Message('note_off', channel=2, note=48, velocity=80, time=0),
    Message('note_on', channel=2, note=60, velocity=95, time=0),
    Message('note_on', channel=2, note=55, velocity=95, time=0),
    Message('note_on', channel=2, note=48, velocity=95, time=0),
    Message('note_off', channel=2, note=60, velocity=80, time=480),
    Message('note_off', channel=2, note=55, velocity=80, time=0),
    Message('note_off', channel=2, note=48, velocity=80, time=0),
    Message('note_on', channel=2, note=60, velocity=95, time=0),
    Message('note_on', channel=2, note=55, velocity=95, time=0),
    Message('note_on', channel=2, note=48, velocity=95, time=0),
    Message('note_off', channel=2, note=60, velocity=80, time=480),
    Message('note_off', channel=2, note=55, velocity=80, time=0),
    Message('note_off', channel=2, note=48, velocity=80, time=0),
    Message('program_change', channel=2, program=25, time=1440),
    Message('program_change', channel=3, program=25, time=0),
    Message('control_change', channel=2, control=7, value=88, time=0),
    Message('control_change', channel=3, control=7, value=88, time=0),
    Message('note_on', channel=2, note=53, velocity=95, time=0),
    Message('note_on', channel=2, note=48, velocity=95, time=0),
    Message('note_on', channel=2, note=41, velocity=95, time=0),
    Message('note_off', channel=2, note=53, velocity=80, time=480),
    Message('note_off', channel=2, note=48, velocity=80, time=0),
    Message('note_off', channel=2, note=41, velocity=80, time=0),
    Message('note_on', channel=2, note=53, velocity=63, time=0),
    Message('note_on', channel=2, note=48, velocity=63, time=0),
    Message('note_on', channel=2, note=41, velocity=63, time=0),
    Message('note_off', channel=2, note=53, velocity=80, time=480),
    Message('note_off', channel=2, note=48, velocity=80, time=0),
    Message('note_off', channel=2, note=41, velocity=80, time=0),
    Message('note_on', channel=2, note=53, velocity=95, time=0),
    Message('note_on', channel=2, note=48, velocity=95, time=0),
    Message('note_on', channel=2, note=41, velocity=95, time=0),
    Message('note_off', channel=2, note=53, velocity=80, time=480),
    Message('note_off', channel=2, note=48, velocity=80, time=0),
    Message('note_off', channel=2, note=41, velocity=80, time=0),
    Message('note_on', channel=2, note=50, velocity=95, time=0),
    Message('note_on', channel=2, note=45, velocity=95, time=0),
    Message('note_on', channel=2, note=40, velocity=95, time=0),
    Message('note_off', channel=2, note=50, velocity=80, time=20),
    Message('note_off', channel=2, note=45, velocity=80, time=0),
    Message('note_off', channel=2, note=40, velocity=80, time=0),
    Message('note_on', channel=2, note=50, velocity=95, time=220),
    Message('note_on', channel=2, note=45, velocity=95, time=0),
    Message('note_on', channel=2, note=40, velocity=95, time=0),
    Message('note_off', channel=2, note=50, velocity=80, time=20),
    Message('note_off', channel=2, note=45, velocity=80, time=0),
    Message('note_off', channel=2, note=40, velocity=80, time=0),
    Message('note_on', channel=2, note=56, velocity=95, time=220),
    Message('note_on', channel=2, note=51, velocity=95, time=0),
    Message('note_on', channel=2, note=44, velocity=95, time=0),
    Message('note_off', channel=2, note=56, velocity=80, time=480),
    Message('note_off', channel=2, note=51, velocity=80, time=0),
    Message('note_off', channel=2, note=44, velocity=80, time=0),
    Message('note_on', channel=2, note=56, velocity=63, time=0),
    Message('note_on', channel=2, note=51, velocity=63, time=0),
    Message('note_on', channel=2, note=44, velocity=63, time=0),
    Message('note_off', channel=2, note=56, velocity=80, time=480),
    Message('note_off', channel=2, note=51, velocity=80, time=0),
    Message('note_off', channel=2, note=44, velocity=80, time=0),
    Message('note_on', channel=2, note=56, velocity=95, time=0),
    Message('note_on', channel=2, note=51, velocity=95, time=0),
    Message('note_on', channel=2, note=44, velocity=95, time=0),
    Message('note_off', channel=2, note=56, velocity=80, time=480),
    Message('note_off', channel=2, note=51, velocity=80, time=0),
    Message('note_off', channel=2, note=44, velocity=80, time=0),
    Message('note_on', channel=2, note=50, velocity=95, time=0),
    Message('note_on', channel=2, note=45, velocity=95, time=0),
    Message('note_on', channel=2, note=40, velocity=95, time=0),
    Message('note_off', channel=2, note=50, velocity=80, time=20),
    Message('note_off', channel=2, note=45, velocity=80, time=0),
    Message('note_off', channel=2, note=40, velocity=80, time=0),
    Message('note_on', channel=2, note=50, velocity=95, time=220),
    Message('note_on', channel=2, note=45, velocity=95, time=0),
    Message('note_on', channel=2, note=40, velocity=95, time=0),
    Message('note_off', channel=2, note=50, velocity=80, time=20),
    Message('note_off', channel=2, note=45, velocity=80, time=0),
    Message('note_off', channel=2, note=40, velocity=80, time=0),
    Message('note_on', channel=2, note=63, velocity=95, time=220),
    Message('note_on', channel=2, note=58, velocity=95, time=0),
    Message('note_on', channel=2, note=51, velocity=95, time=0),
    Message('note_off', channel=2, note=63, velocity=80, time=480),
    Message('note_off', channel=2, note=58, velocity=80, time=0),
    Message('note_off', channel=2, note=51, velocity=80, time=0),
    Message('note_on', channel=2, note=63, velocity=63, time=0),
    Message('note_on', channel=2, note=58, velocity=63, time=0),
    Message('note_on', channel=2, note=51, velocity=63, time=0),
    Message('note_off', channel=2, note=63, velocity=80, time=480),
    Message('note_off', channel=2, note=58, velocity=80, time=0),
    Message('note_off', channel=2, note=51, velocity=80, time=0),
    Message('note_on', channel=2, note=63, velocity=95, time=0),
    Message('note_on', channel=2, note=58, velocity=95, time=0),
    Message('note_on', channel=2, note=51, velocity=95, time=0),
    Message('note_off', channel=2, note=63, velocity=80, time=480),
    Message('note_off', channel=2, note=58, velocity=80, time=0),
    Message('note_off', channel=2, note=51, velocity=80, time=0),
    Message('note_on', channel=2, note=55, velocity=95, time=0),
    Message('note_on', channel=2, note=50, velocity=95, time=0),
    Message('note_on', channel=2, note=45, velocity=95, time=0),
    Message('note_off', channel=2, note=55, velocity=80, time=20),
    Message('note_off', channel=2, note=50, velocity=80, time=0),
    Message('note_off', channel=2, note=45, velocity=80, time=0),
    Message('note_on', channel=2, note=55, velocity=95, time=220),
    Message('note_on', channel=2, note=50, velocity=95, time=0),
    Message('note_on', channel=2, note=45, velocity=95, time=0),
    Message('note_off', channel=2, note=55, velocity=80, time=20),
    Message('note_off', channel=2, note=50, velocity=80, time=0),
    Message('note_off', channel=2, note=45, velocity=80, time=0),
    Message('note_on', channel=2, note=58, velocity=95, time=220),
    Message('note_on', channel=2, note=53, velocity=95, time=0),
    Message('note_on', channel=2, note=46, velocity=95, time=0),
    Message('note_off', channel=2, note=58, velocity=80, time=480),
    Message('note_off', channel=2, note=53, velocity=80, time=0),
    Message('note_off', channel=2, note=46, velocity=80, time=0),
    Message('note_on', channel=2, note=58, velocity=63, time=0),
    Message('note_on', channel=2, note=53, velocity=63, time=0),
    Message('note_on', channel=2, note=46, velocity=63, time=0),
    Message('note_off', channel=2, note=58, velocity=80, time=480),
    Message('note_off', channel=2, note=53, velocity=80, time=0),
    Message('note_off', channel=2, note=46, velocity=80, time=0),
    Message('note_on', channel=2, note=58, velocity=95, time=0),
    Message('note_on', channel=2, note=53, velocity=95, time=0),
    Message('note_on', channel=2, note=46, velocity=95, time=0),
    Message('note_off', channel=2, note=58, velocity=80, time=480),
    Message('note_off', channel=2, note=53, velocity=80, time=0),
    Message('note_off', channel=2, note=46, velocity=80, time=0),
    Message('note_on', channel=2, note=50, velocity=95, time=0),
    Message('note_on', channel=2, note=45, velocity=95, time=0),
    Message('note_on', channel=2, note=40, velocity=95, time=0),
    Message('note_off', channel=2, note=50, velocity=80, time=20),
    Message('note_off', channel=2, note=45, velocity=80, time=0),
    Message('note_off', channel=2, note=40, velocity=80, time=0),
    Message('note_on', channel=2, note=50, velocity=95, time=220),
    Message('note_on', channel=2, note=45, velocity=95, time=0),
    Message('note_on', channel=2, note=40, velocity=95, time=0),
    Message('note_off', channel=2, note=50, velocity=80, time=20),
    Message('note_off', channel=2, note=45, velocity=80, time=0),
    Message('note_off', channel=2, note=40, velocity=80, time=0),
    Message('note_on', channel=2, note=53, velocity=95, time=220),
    Message('note_on', channel=2, note=48, velocity=95, time=0),
    Message('note_on', channel=2, note=41, velocity=95, time=0),
    Message('note_off', channel=2, note=53, velocity=80, time=480),
    Message('note_off', channel=2, note=48, velocity=80, time=0),
    Message('note_off', channel=2, note=41, velocity=80, time=0),
    Message('note_on', channel=2, note=53, velocity=63, time=0),
    Message('note_on', channel=2, note=48, velocity=63, time=0),
    Message('note_on', channel=2, note=41, velocity=63, time=0),
    Message('note_off', channel=2, note=53, velocity=80, time=480),
    Message('note_off', channel=2, note=48, velocity=80, time=0),
    Message('note_off', channel=2, note=41, velocity=80, time=0),
    Message('note_on', channel=2, note=53, velocity=95, time=0),
    Message('note_on', channel=2, note=48, velocity=95, time=0),
    Message('note_on', channel=2, note=41, velocity=95, time=0),
    Message('note_off', channel=2, note=53, velocity=80, time=480),
    Message('note_off', channel=2, note=48, velocity=80, time=0),
    Message('note_off', channel=2, note=41, velocity=80, time=0),
    Message('note_on', channel=2, note=50, velocity=95, time=0),
    Message('note_on', channel=2, note=45, velocity=95, time=0),
    Message('note_on', channel=2, note=40, velocity=95, time=0),
    Message('note_off', channel=2, note=50, velocity=80, time=20),
    Message('note_off', channel=2, note=45, velocity=80, time=0),
    Message('note_off', channel=2, note=40, velocity=80, time=0),
    Message('note_on', channel=2, note=50, velocity=95, time=220),
    Message('note_on', channel=2, note=45, velocity=95, time=0),
    Message('note_on', channel=2, note=40, velocity=95, time=0),
    Message('note_off', channel=2, note=50, velocity=80, time=20),
    Message('note_off', channel=2, note=45, velocity=80, time=0),
    Message('note_off', channel=2, note=40, velocity=80, time=0),
    Message('note_on', channel=2, note=56, velocity=95, time=220),
    Message('note_on', channel=2, note=51, velocity=95, time=0),
    Message('note_on', channel=2, note=44, velocity=95, time=0),
    Message('note_off', channel=2, note=56, velocity=80, time=480),
    Message('note_off', channel=2, note=51, velocity=80, time=0),
    Message('note_off', channel=2, note=44, velocity=80, time=0),
    Message('note_on', channel=2, note=56, velocity=63, time=0),
    Message('note_on', channel=2, note=51, velocity=63, time=0),
    Message('note_on', channel=2, note=44, velocity=63, time=0),
    Message('note_off', channel=2, note=56, velocity=80, time=480),
    Message('note_off', channel=2, note=51, velocity=80, time=0),
    Message('note_off', channel=2, note=44, velocity=80, time=0),
    Message('note_on', channel=2, note=56, velocity=95, time=0),
    Message('note_on', channel=2, note=51, velocity=95, time=0),
    Message('note_on', channel=2, note=44, velocity=95, time=0),
    Message('note_off', channel=2, note=56, velocity=80, time=480),
    Message('note_off', channel=2, note=51, velocity=80, time=0),
    Message('note_off', channel=2, note=44, velocity=80, time=0),
    Message('note_on', channel=2, note=50, velocity=95, time=0),
    Message('note_on', channel=2, note=45, velocity=95, time=0),
    Message('note_on', channel=2, note=40, velocity=95, time=0),
    Message('note_off', channel=2, note=50, velocity=80, time=20),
    Message('note_off', channel=2, note=45, velocity=80, time=0),
    Message('note_off', channel=2, note=40, velocity=80, time=0),
    Message('note_on', channel=2, note=50, velocity=95, time=220),
    Message('note_on', channel=2, note=45, velocity=95, time=0),
    Message('note_on', channel=2, note=40, velocity=95, time=0),
    Message('note_off', channel=2, note=50, velocity=80, time=20),
    Message('note_off', channel=2, note=45, velocity=80, time=0),
    Message('note_off', channel=2, note=40, velocity=80, time=0),
    Message('note_on', channel=2, note=63, velocity=95, time=220),
    Message('note_on', channel=2, note=58, velocity=95, time=0),
    Message('note_on', channel=2, note=51, velocity=95, time=0),
    Message('note_off', channel=2, note=63, velocity=80, time=480),
    Message('note_off', channel=2, note=58, velocity=80, time=0),
    Message('note_off', channel=2, note=51, velocity=80, time=0),
    Message('note_on', channel=2, note=63, velocity=63, time=0),
    Message('note_on', channel=2, note=58, velocity=63, time=0),
    Message('note_on', channel=2, note=51, velocity=63, time=0),
    Message('note_off', channel=2, note=63, velocity=80, time=480),
    Message('note_off', channel=2, note=58, velocity=80, time=0),
    Message('note_off', channel=2, note=51, velocity=80, time=0),
    Message('note_on', channel=2, note=63, velocity=95, time=0),
    Message('note_on', channel=2, note=58, velocity=95, time=0),
    Message('note_on', channel=2, note=51, velocity=95, time=0),
    Message('note_off', channel=2, note=63, velocity=80, time=480),
    Message('note_off', channel=2, note=58, velocity=80, time=0),
    Message('note_off', channel=2, note=51, velocity=80, time=0),
    Message('note_on', channel=2, note=55, velocity=95, time=0),
    Message('note_on', channel=2, note=50, velocity=95, time=0),
    Message('note_on', channel=2, note=45, velocity=95, time=0),
    Message('note_off', channel=2, note=55, velocity=80, time=20),
    Message('note_off', channel=2, note=50, velocity=80, time=0),
    Message('note_off', channel=2, note=45, velocity=80, time=0),
    Message('note_on', channel=2, note=55, velocity=95, time=220),
    Message('note_on', channel=2, note=50, velocity=95, time=0),
    Message('note_on', channel=2, note=45, velocity=95, time=0),
    Message('note_off', channel=2, note=55, velocity=80, time=20),
    Message('note_off', channel=2, note=50, velocity=80, time=0),
    Message('note_off', channel=2, note=45, velocity=80, time=0),
    Message('note_on', channel=2, note=58, velocity=95, time=220),
    Message('note_on', channel=2, note=53, velocity=95, time=0),
    Message('note_on', channel=2, note=46, velocity=95, time=0),
    Message('note_off', channel=2, note=58, velocity=80, time=480),
    Message('note_off', channel=2, note=53, velocity=80, time=0),
    Message('note_off', channel=2, note=46, velocity=80, time=0),
    Message('program_change', channel=2, program=29, time=0),
    Message('program_change', channel=3, program=29, time=0),
    Message('control_change', channel=2, control=7, value=104, time=0),
    Message('control_change', channel=3, control=7, value=104, time=0),
    Message('note_on', channel=2, note=58, velocity=95, time=0),
    Message('note_on', channel=2, note=53, velocity=95, time=0),
    Message('note_on', channel=2, note=46, velocity=95, time=0),
    Message('note_off', channel=2, note=58, velocity=80, time=480),
    Message('note_off', channel=2, note=53, velocity=80, time=0),
    Message('note_off', channel=2, note=46, velocity=80, time=0),
    Message('note_on', channel=2, note=58, velocity=95, time=0),
    Message('note_on', channel=2, note=53, velocity=95, time=0),
    Message('note_on', channel=2, note=46, velocity=95, time=0),
    Message('note_off', channel=2, note=58, velocity=80, time=480),
    Message('note_off', channel=2, note=53, velocity=80, time=0),
    Message('note_off', channel=2, note=46, velocity=80, time=0),
    Message('note_on', channel=2, note=60, velocity=95, time=0),
    Message('note_on', channel=2, note=55, velocity=95, time=0),
    Message('note_on', channel=2, note=48, velocity=95, time=0),
    Message('note_off', channel=2, note=60, velocity=80, time=480),
    Message('note_off', channel=2, note=55, velocity=80, time=0),
    Message('note_off', channel=2, note=48, velocity=80, time=0),
    Message('note_on', channel=2, note=61, velocity=95, time=0),
    Message('note_on', channel=2, note=56, velocity=95, time=0),
    Message('note_on', channel=2, note=49, velocity=95, time=0),
    Message('note_off', channel=2, note=61, velocity=80, time=480),
    Message('note_off', channel=2, note=56, velocity=80, time=0),
    Message('note_off', channel=2, note=49, velocity=80, time=0),
    Message('note_on', channel=2, note=61, velocity=95, time=0),
    Message('note_on', channel=2, note=56, velocity=95, time=0),
    Message('note_on', channel=2, note=49, velocity=95, time=0),
    Message('note_off', channel=2, note=61, velocity=80, time=480),
    Message('note_off', channel=2, note=56, velocity=80, time=0),
    Message('note_off', channel=2, note=49, velocity=80, time=0),
    Message('note_on', channel=2, note=61, velocity=95, time=0),
    Message('note_on', channel=2, note=56, velocity=95, time=0),
    Message('note_on', channel=2, note=49, velocity=95, time=0),
    Message('note_off', channel=2, note=61, velocity=80, time=480),
    Message('note_off', channel=2, note=56, velocity=80, time=0),
    Message('note_off', channel=2, note=49, velocity=80, time=0),
    Message('note_on', channel=2, note=61, velocity=95, time=0),
    Message('note_on', channel=2, note=56, velocity=95, time=0),
    Message('note_on', channel=2, note=49, velocity=95, time=0),
    Message('note_off', channel=2, note=61, velocity=80, time=240),
    Message('note_off', channel=2, note=56, velocity=80, time=0),
    Message('note_off', channel=2, note=49, velocity=80, time=0),
    Message('note_on', channel=2, note=61, velocity=95, time=0),
    Message('note_on', channel=2, note=56, velocity=95, time=0),
    Message('note_on', channel=2, note=49, velocity=95, time=0),
    Message('note_off', channel=2, note=61, velocity=80, time=240),
    Message('note_off', channel=2, note=56, velocity=80, time=0),
    Message('note_off', channel=2, note=49, velocity=80, time=0),
    Message('note_on', channel=2, note=56, velocity=95, time=0),
    Message('note_on', channel=2, note=51, velocity=95, time=0),
    Message('note_on', channel=2, note=44, velocity=95, time=0),
    Message('note_off', channel=2, note=56, velocity=80, time=480),
    Message('note_off', channel=2, note=51, velocity=80, time=0),
    Message('note_off', channel=2, note=44, velocity=80, time=0),
    Message('note_on', channel=2, note=56, velocity=95, time=0),
    Message('note_on', channel=2, note=51, velocity=95, time=0),
    Message('note_on', channel=2, note=44, velocity=95, time=0),
    Message('note_off', channel=2, note=56, velocity=80, time=480),
    Message('note_off', channel=2, note=51, velocity=80, time=0),
    Message('note_off', channel=2, note=44, velocity=80, time=0),
    Message('note_on', channel=2, note=56, velocity=95, time=0),
    Message('note_on', channel=2, note=51, velocity=95, time=0),
    Message('note_on', channel=2, note=44, velocity=95, time=0),
    Message('note_off', channel=2, note=56, velocity=80, time=480),
    Message('note_off', channel=2, note=51, velocity=80, time=0),
    Message('note_off', channel=2, note=44, velocity=80, time=0),
    Message('note_on', channel=2, note=56, velocity=95, time=0),
    Message('note_on', channel=2, note=51, velocity=95, time=0),
    Message('note_on', channel=2, note=44, velocity=95, time=0),
    Message('note_off', channel=2, note=56, velocity=80, time=240),
    Message('note_off', channel=2, note=51, velocity=80, time=0),
    Message('note_off', channel=2, note=44, velocity=80, time=0),
    Message('note_on', channel=2, note=56, velocity=95, time=0),
    Message('note_on', channel=2, note=51, velocity=95, time=0),
    Message('note_on', channel=2, note=44, velocity=95, time=0),
    Message('note_off', channel=2, note=56, velocity=80, time=240),
    Message('note_off', channel=2, note=51, velocity=80, time=0),
    Message('note_off', channel=2, note=44, velocity=80, time=0),
    Message('note_on', channel=2, note=63, velocity=95, time=0),
    Message('note_on', channel=2, note=58, velocity=95, time=0),
    Message('note_on', channel=2, note=51, velocity=95, time=0),
    Message('note_off', channel=2, note=63, velocity=80, time=480),
    Message('note_off', channel=2, note=58, velocity=80, time=0),
    Message('note_off', channel=2, note=51, velocity=80, time=0),
    Message('note_on', channel=2, note=63, velocity=95, time=0),
    Message('note_on', channel=2, note=58, velocity=95, time=0),
    Message('note_on', channel=2, note=51, velocity=95, time=0),
    Message('note_off', channel=2, note=63, velocity=80, time=480),
    Message('note_off', channel=2, note=58, velocity=80, time=0),
    Message('note_off', channel=2, note=51, velocity=80, time=0),
    Message('note_on', channel=2, note=63, velocity=95, time=0),
    Message('note_on', channel=2, note=58, velocity=95, time=0),
    Message('note_on', channel=2, note=51, velocity=95, time=0),
    Message('note_off', channel=2, note=63, velocity=80, time=480),
    Message('note_off', channel=2, note=58, velocity=80, time=0),
    Message('note_off', channel=2, note=51, velocity=80, time=0),
    Message('note_on', channel=2, note=63, velocity=95, time=0),
    Message('note_on', channel=2, note=58, velocity=95, time=0),
    Message('note_on', channel=2, note=51, velocity=95, time=0),
    Message('note_off', channel=2, note=63, velocity=80, time=240),
    Message('note_off', channel=2, note=58, velocity=80, time=0),
    Message('note_off', channel=2, note=51, velocity=80, time=0),
    Message('note_on', channel=2, note=63, velocity=95, time=0),
    Message('note_on', channel=2, note=58, velocity=95, time=0),
    Message('note_on', channel=2, note=51, velocity=95, time=0),
    Message('note_off', channel=2, note=63, velocity=80, time=240),
    Message('note_off', channel=2, note=58, velocity=80, time=0),
    Message('note_off', channel=2, note=51, velocity=80, time=0),
    Message('note_on', channel=2, note=53, velocity=95, time=0),
    Message('note_on', channel=2, note=48, velocity=95, time=0),
    Message('note_on', channel=2, note=41, velocity=95, time=0),
    Message('note_off', channel=2, note=53, velocity=80, time=480),
    Message('note_off', channel=2, note=48, velocity=80, time=0),
    Message('note_off', channel=2, note=41, velocity=80, time=0),
    Message('note_on', channel=2, note=53, velocity=95, time=0),
    Message('note_on', channel=2, note=48, velocity=95, time=0),
    Message('note_on', channel=2, note=41, velocity=95, time=0),
    Message('note_off', channel=2, note=53, velocity=80, time=480),
    Message('note_off', channel=2, note=48, velocity=80, time=0),
    Message('note_off', channel=2, note=41, velocity=80, time=0),
    Message('note_on', channel=2, note=53, velocity=95, time=0),
    Message('note_on', channel=2, note=48, velocity=95, time=0),
    Message('note_on', channel=2, note=41, velocity=95, time=0),
    Message('note_off', channel=2, note=53, velocity=80, time=480),
    Message('note_off', channel=2, note=48, velocity=80, time=0),
    Message('note_off', channel=2, note=41, velocity=80, time=0),
    Message('note_on', channel=2, note=53, velocity=95, time=0),
    Message('note_on', channel=2, note=48, velocity=95, time=0),
    Message('note_on', channel=2, note=41, velocity=95, time=0),
    Message('note_off', channel=2, note=53, velocity=80, time=240),
    Message('note_off', channel=2, note=48, velocity=80, time=0),
    Message('note_off', channel=2, note=41, velocity=80, time=0),
    Message('note_on', channel=2, note=53, velocity=95, time=0),
    Message('note_on', channel=2, note=48, velocity=95, time=0),
    Message('note_on', channel=2, note=41, velocity=95, time=0),
    Message('note_off', channel=2, note=53, velocity=80, time=240),
    Message('note_off', channel=2, note=48, velocity=80, time=0),
    Message('note_off', channel=2, note=41, velocity=80, time=0),
    Message('note_on', channel=2, note=61, velocity=95, time=0),
    Message('note_on', channel=2, note=56, velocity=95, time=0),
    Message('note_on', channel=2, note=49, velocity=95, time=0),
    Message('note_off', channel=2, note=61, velocity=80, time=480),
    Message('note_off', channel=2, note=56, velocity=80, time=0),
    Message('note_off', channel=2, note=49, velocity=80, time=0),
    Message('note_on', channel=2, note=61, velocity=95, time=0),
    Message('note_on', channel=2, note=56, velocity=95, time=0),
    Message('note_on', channel=2, note=49, velocity=95, time=0),
    Message('note_off', channel=2, note=61, velocity=80, time=480),
    Message('note_off', channel=2, note=56, velocity=80, time=0),
    Message('note_off', channel=2, note=49, velocity=80, time=0),
    Message('note_on', channel=2, note=61, velocity=95, time=0),
    Message('note_on', channel=2, note=56, velocity=95, time=0),
    Message('note_on', channel=2, note=49, velocity=95, time=0),
    Message('note_off', channel=2, note=61, velocity=80, time=480),
    Message('note_off', channel=2, note=56, velocity=80, time=0),
    Message('note_off', channel=2, note=49, velocity=80, time=0),
    Message('note_on', channel=2, note=61, velocity=95, time=0),
    Message('note_on', channel=2, note=56, velocity=95, time=0),
    Message('note_on', channel=2, note=49, velocity=95, time=0),
    Message('note_off', channel=2, note=61, velocity=80, time=240),
    Message('note_off', channel=2, note=56, velocity=80, time=0),
    Message('note_off', channel=2, note=49, velocity=80, time=0),
    Message('note_on', channel=2, note=61, velocity=95, time=0),
    Message('note_on', channel=2, note=56, velocity=95, time=0),
    Message('note_on', channel=2, note=49, velocity=95, time=0),
    Message('note_off', channel=2, note=61, velocity=80, time=240),
    Message('note_off', channel=2, note=56, velocity=80, time=0),
    Message('note_off', channel=2, note=49, velocity=80, time=0),
    Message('note_on', channel=2, note=56, velocity=95, time=0),
    Message('note_on', channel=2, note=51, velocity=95, time=0),
    Message('note_on', channel=2, note=44, velocity=95, time=0),
    Message('note_off', channel=2, note=56, velocity=80, time=480),
    Message('note_off', channel=2, note=51, velocity=80, time=0),
    Message('note_off', channel=2, note=44, velocity=80, time=0),
    Message('note_on', channel=2, note=56, velocity=95, time=0),
    Message('note_on', channel=2, note=51, velocity=95, time=0),
    Message('note_on', channel=2, note=44, velocity=95, time=0),
    Message('note_off', channel=2, note=56, velocity=80, time=480),
    Message('note_off', channel=2, note=51, velocity=80, time=0),
    Message('note_off', channel=2, note=44, velocity=80, time=0),
    Message('note_on', channel=2, note=56, velocity=95, time=0),
    Message('note_on', channel=2, note=51, velocity=95, time=0),
    Message('note_on', channel=2, note=44, velocity=95, time=0),
    Message('note_off', channel=2, note=56, velocity=80, time=480),
    Message('note_off', channel=2, note=51, velocity=80, time=0),
    Message('note_off', channel=2, note=44, velocity=80, time=0),
    Message('note_on', channel=2, note=56, velocity=95, time=0),
    Message('note_on', channel=2, note=51, velocity=95, time=0),
    Message('note_on', channel=2, note=44, velocity=95, time=0),
    Message('note_off', channel=2, note=56, velocity=80, time=240),
    Message('note_off', channel=2, note=51, velocity=80, time=0),
    Message('note_off', channel=2, note=44, velocity=80, time=0),
    Message('note_on', channel=2, note=56, velocity=95, time=0),
    Message('note_on', channel=2, note=51, velocity=95, time=0),
    Message('note_on', channel=2, note=44, velocity=95, time=0),
    Message('note_off', channel=2, note=56, velocity=80, time=240),
    Message('note_off', channel=2, note=51, velocity=80, time=0),
    Message('note_off', channel=2, note=44, velocity=80, time=0),
    Message('note_on', channel=2, note=63, velocity=95, time=0),
    Message('note_on', channel=2, note=58, velocity=95, time=0),
    Message('note_on', channel=2, note=51, velocity=95, time=0),
    Message('note_off', channel=2, note=63, velocity=80, time=480),
    Message('note_off', channel=2, note=58, velocity=80, time=0),
    Message('note_off', channel=2, note=51, velocity=80, time=0),
    Message('note_on', channel=2, note=63, velocity=95, time=0),
    Message('note_on', channel=2, note=58, velocity=95, time=0),
    Message('note_on', channel=2, note=51, velocity=95, time=0),
    Message('note_off', channel=2, note=63, velocity=80, time=480),
    Message('note_off', channel=2, note=58, velocity=80, time=0),
    Message('note_off', channel=2, note=51, velocity=80, time=0),
    Message('note_on', channel=2, note=63, velocity=95, time=0),
    Message('note_on', channel=2, note=58, velocity=95, time=0),
    Message('note_on', channel=2, note=51, velocity=95, time=0),
    Message('note_off', channel=2, note=63, velocity=80, time=480),
    Message('note_off', channel=2, note=58, velocity=80, time=0),
    Message('note_off', channel=2, note=51, velocity=80, time=0),
    Message('note_on', channel=2, note=63, velocity=95, time=0),
    Message('note_on', channel=2, note=58, velocity=95, time=0),
    Message('note_on', channel=2, note=51, velocity=95, time=0),
    Message('note_off', channel=2, note=63, velocity=80, time=240),
    Message('note_off', channel=2, note=58, velocity=80, time=0),
    Message('note_off', channel=2, note=51, velocity=80, time=0),
    Message('note_on', channel=2, note=63, velocity=95, time=0),
    Message('note_on', channel=2, note=58, velocity=95, time=0),
    Message('note_on', channel=2, note=51, velocity=95, time=0),
    Message('note_off', channel=2, note=63, velocity=80, time=240),
    Message('note_off', channel=2, note=58, velocity=80, time=0),
    Message('note_off', channel=2, note=51, velocity=80, time=0),
    Message('note_on', channel=2, note=53, velocity=95, time=0),
    Message('note_on', channel=2, note=48, velocity=95, time=0),
    Message('note_on', channel=2, note=41, velocity=95, time=0),
    Message('note_off', channel=2, note=53, velocity=80, time=480),
    Message('note_off', channel=2, note=48, velocity=80, time=0),
    Message('note_off', channel=2, note=41, velocity=80, time=0),
    Message('note_on', channel=2, note=53, velocity=95, time=0),
    Message('note_on', channel=2, note=48, velocity=95, time=0),
    Message('note_on', channel=2, note=41, velocity=95, time=0),
    Message('note_off', channel=2, note=53, velocity=80, time=480),
    Message('note_off', channel=2, note=48, velocity=80, time=0),
    Message('note_off', channel=2, note=41, velocity=80, time=0),
    Message('note_on', channel=2, note=53, velocity=95, time=0),
    Message('note_on', channel=2, note=48, velocity=95, time=0),
    Message('note_on', channel=2, note=41, velocity=95, time=0),
    Message('note_off', channel=2, note=53, velocity=80, time=480),
    Message('note_off', channel=2, note=48, velocity=80, time=0),
    Message('note_off', channel=2, note=41, velocity=80, time=0),
    Message('note_on', channel=2, note=53, velocity=95, time=0),
    Message('note_on', channel=2, note=48, velocity=95, time=0),
    Message('note_on', channel=2, note=41, velocity=95, time=0),
    Message('note_off', channel=2, note=53, velocity=80, time=240),
    Message('note_off', channel=2, note=48, velocity=80, time=0),
    Message('note_off', channel=2, note=41, velocity=80, time=0),
    Message('note_on', channel=2, note=53, velocity=95, time=0),
    Message('note_on', channel=2, note=48, velocity=95, time=0),
    Message('note_on', channel=2, note=41, velocity=95, time=0),
    Message('note_off', channel=2, note=53, velocity=80, time=240),
    Message('note_off', channel=2, note=48, velocity=80, time=0),
    Message('note_off', channel=2, note=41, velocity=80, time=0),
    Message('note_on', channel=2, note=61, velocity=95, time=0),
    Message('note_on', channel=2, note=56, velocity=95, time=0),
    Message('note_on', channel=2, note=49, velocity=95, time=0),
    Message('note_off', channel=2, note=61, velocity=80, time=480),
    Message('note_off', channel=2, note=56, velocity=80, time=0),
    Message('note_off', channel=2, note=49, velocity=80, time=0),
    Message('note_on', channel=2, note=61, velocity=95, time=0),
    Message('note_on', channel=2, note=56, velocity=95, time=0),
    Message('note_on', channel=2, note=49, velocity=95, time=0),
    Message('note_off', channel=2, note=61, velocity=80, time=480),
    Message('note_off', channel=2, note=56, velocity=80, time=0),
    Message('note_off', channel=2, note=49, velocity=80, time=0),
    Message('note_on', channel=2, note=61, velocity=95, time=0),
    Message('note_on', channel=2, note=56, velocity=95, time=0),
    Message('note_on', channel=2, note=49, velocity=95, time=0),
    Message('note_off', channel=2, note=61, velocity=80, time=480),
    Message('note_off', channel=2, note=56, velocity=80, time=0),
    Message('note_off', channel=2, note=49, velocity=80, time=0),
    Message('note_on', channel=2, note=61, velocity=95, time=0),
    Message('note_on', channel=2, note=56, velocity=95, time=0),
    Message('note_on', channel=2, note=49, velocity=95, time=0),
    Message('note_off', channel=2, note=61, velocity=80, time=240),
    Message('note_off', channel=2, note=56, velocity=80, time=0),
    Message('note_off', channel=2, note=49, velocity=80, time=0),
    Message('note_on', channel=2, note=61, velocity=95, time=0),
    Message('note_on', channel=2, note=56, velocity=95, time=0),
    Message('note_on', channel=2, note=49, velocity=95, time=0),
    Message('note_off', channel=2, note=61, velocity=80, time=240),
    Message('note_off', channel=2, note=56, velocity=80, time=0),
    Message('note_off', channel=2, note=49, velocity=80, time=0),
    Message('note_on', channel=2, note=56, velocity=95, time=0),
    Message('note_on', channel=2, note=51, velocity=95, time=0),
    Message('note_on', channel=2, note=44, velocity=95, time=0),
    Message('note_off', channel=2, note=56, velocity=80, time=480),
    Message('note_off', channel=2, note=51, velocity=80, time=0),
    Message('note_off', channel=2, note=44, velocity=80, time=0),
    Message('note_on', channel=2, note=56, velocity=95, time=0),
    Message('note_on', channel=2, note=51, velocity=95, time=0),
    Message('note_on', channel=2, note=44, velocity=95, time=0),
    Message('note_off', channel=2, note=56, velocity=80, time=480),
    Message('note_off', channel=2, note=51, velocity=80, time=0),
    Message('note_off', channel=2, note=44, velocity=80, time=0),
    Message('note_on', channel=2, note=56, velocity=95, time=0),
    Message('note_on', channel=2, note=51, velocity=95, time=0),
    Message('note_on', channel=2, note=44, velocity=95, time=0),
    Message('note_off', channel=2, note=56, velocity=80, time=480),
    Message('note_off', channel=2, note=51, velocity=80, time=0),
    Message('note_off', channel=2, note=44, velocity=80, time=0),
    Message('note_on', channel=2, note=56, velocity=95, time=0),
    Message('note_on', channel=2, note=51, velocity=95, time=0),
    Message('note_on', channel=2, note=44, velocity=95, time=0),
    Message('note_off', channel=2, note=56, velocity=80, time=240),
    Message('note_off', channel=2, note=51, velocity=80, time=0),
    Message('note_off', channel=2, note=44, velocity=80, time=0),
    Message('note_on', channel=2, note=56, velocity=95, time=0),
    Message('note_on', channel=2, note=51, velocity=95, time=0),
    Message('note_on', channel=2, note=44, velocity=95, time=0),
    Message('note_off', channel=2, note=56, velocity=80, time=240),
    Message('note_off', channel=2, note=51, velocity=80, time=0),
    Message('note_off', channel=2, note=44, velocity=80, time=0),
    Message('note_on', channel=2, note=63, velocity=95, time=0),
    Message('note_on', channel=2, note=58, velocity=95, time=0),
    Message('note_on', channel=2, note=51, velocity=95, time=0),
    Message('note_off', channel=2, note=63, velocity=80, time=480),
    Message('note_off', channel=2, note=58, velocity=80, time=0),
    Message('note_off', channel=2, note=51, velocity=80, time=0),
    Message('note_on', channel=2, note=63, velocity=95, time=0),
    Message('note_on', channel=2, note=58, velocity=95, time=0),
    Message('note_on', channel=2, note=51, velocity=95, time=0),
    Message('note_off', channel=2, note=63, velocity=80, time=480),
    Message('note_off', channel=2, note=58, velocity=80, time=0),
    Message('note_off', channel=2, note=51, velocity=80, time=0),
    Message('note_on', channel=2, note=63, velocity=95, time=0),
    Message('note_on', channel=2, note=58, velocity=95, time=0),
    Message('note_on', channel=2, note=51, velocity=95, time=0),
    Message('note_off', channel=2, note=63, velocity=80, time=480),
    Message('note_off', channel=2, note=58, velocity=80, time=0),
    Message('note_off', channel=2, note=51, velocity=80, time=0),
    Message('note_on', channel=2, note=63, velocity=95, time=0),
    Message('note_on', channel=2, note=58, velocity=95, time=0),
    Message('note_on', channel=2, note=51, velocity=95, time=0),
    Message('note_off', channel=2, note=63, velocity=80, time=240),
    Message('note_off', channel=2, note=58, velocity=80, time=0),
    Message('note_off', channel=2, note=51, velocity=80, time=0),
    Message('note_on', channel=2, note=63, velocity=95, time=0),
    Message('note_on', channel=2, note=58, velocity=95, time=0),
    Message('note_on', channel=2, note=51, velocity=95, time=0),
    Message('note_off', channel=2, note=63, velocity=80, time=240),
    Message('note_off', channel=2, note=58, velocity=80, time=0),
    Message('note_off', channel=2, note=51, velocity=80, time=0),
    Message('note_on', channel=2, note=53, velocity=95, time=0),
    Message('note_on', channel=2, note=48, velocity=95, time=0),
    Message('note_on', channel=2, note=41, velocity=95, time=0),
    Message('note_off', channel=2, note=53, velocity=80, time=480),
    Message('note_off', channel=2, note=48, velocity=80, time=0),
    Message('note_off', channel=2, note=41, velocity=80, time=0),
    Message('note_on', channel=2, note=53, velocity=95, time=0),
    Message('note_on', channel=2, note=48, velocity=95, time=0),
    Message('note_on', channel=2, note=41, velocity=95, time=0),
    Message('note_off', channel=2, note=53, velocity=80, time=480),
    Message('note_off', channel=2, note=48, velocity=80, time=0),
    Message('note_off', channel=2, note=41, velocity=80, time=0),
    Message('note_on', channel=2, note=53, velocity=95, time=0),
    Message('note_on', channel=2, note=48, velocity=95, time=0),
    Message('note_on', channel=2, note=41, velocity=95, time=0),
    Message('note_off', channel=2, note=53, velocity=80, time=480),
    Message('note_off', channel=2, note=48, velocity=80, time=0),
    Message('note_off', channel=2, note=41, velocity=80, time=0),
    Message('note_on', channel=2, note=53, velocity=95, time=0),
    Message('note_on', channel=2, note=48, velocity=95, time=0),
    Message('note_on', channel=2, note=41, velocity=95, time=0),
    Message('note_off', channel=2, note=53, velocity=80, time=240),
    Message('note_off', channel=2, note=48, velocity=80, time=0),
    Message('note_off', channel=2, note=41, velocity=80, time=0),
    Message('note_on', channel=2, note=53, velocity=95, time=0),
    Message('note_on', channel=2, note=48, velocity=95, time=0),
    Message('note_on', channel=2, note=41, velocity=95, time=0),
    Message('note_off', channel=2, note=53, velocity=80, time=240),
    Message('note_off', channel=2, note=48, velocity=80, time=0),
    Message('note_off', channel=2, note=41, velocity=80, time=0),
    Message('note_on', channel=2, note=61, velocity=95, time=0),
    Message('note_on', channel=2, note=56, velocity=95, time=0),
    Message('note_on', channel=2, note=49, velocity=95, time=0),
    Message('note_off', channel=2, note=61, velocity=80, time=480),
    Message('note_off', channel=2, note=56, velocity=80, time=0),
    Message('note_off', channel=2, note=49, velocity=80, time=0),
    Message('note_on', channel=2, note=61, velocity=95, time=0),
    Message('note_on', channel=2, note=56, velocity=95, time=0),
    Message('note_on', channel=2, note=49, velocity=95, time=0),
    Message('note_off', channel=2, note=61, velocity=80, time=480),
    Message('note_off', channel=2, note=56, velocity=80, time=0),
    Message('note_off', channel=2, note=49, velocity=80, time=0),
    Message('note_on', channel=2, note=61, velocity=95, time=0),
    Message('note_on', channel=2, note=56, velocity=95, time=0),
    Message('note_on', channel=2, note=49, velocity=95, time=0),
    Message('note_off', channel=2, note=61, velocity=80, time=480),
    Message('note_off', channel=2, note=56, velocity=80, time=0),
    Message('note_off', channel=2, note=49, velocity=80, time=0),
    Message('note_on', channel=2, note=61, velocity=95, time=0),
    Message('note_on', channel=2, note=56, velocity=95, time=0),
    Message('note_on', channel=2, note=49, velocity=95, time=0),
    Message('note_off', channel=2, note=61, velocity=80, time=240),
    Message('note_off', channel=2, note=56, velocity=80, time=0),
    Message('note_off', channel=2, note=49, velocity=80, time=0),
    Message('note_on', channel=2, note=61, velocity=95, time=0),
    Message('note_on', channel=2, note=56, velocity=95, time=0),
    Message('note_on', channel=2, note=49, velocity=95, time=0),
    Message('note_off', channel=2, note=61, velocity=80, time=240),
    Message('note_off', channel=2, note=56, velocity=80, time=0),
    Message('note_off', channel=2, note=49, velocity=80, time=0),
    Message('note_on', channel=2, note=56, velocity=95, time=0),
    Message('note_on', channel=2, note=51, velocity=95, time=0),
    Message('note_on', channel=2, note=44, velocity=95, time=0),
    Message('note_off', channel=2, note=56, velocity=80, time=480),
    Message('note_off', channel=2, note=51, velocity=80, time=0),
    Message('note_off', channel=2, note=44, velocity=80, time=0),
    Message('note_on', channel=2, note=56, velocity=95, time=0),
    Message('note_on', channel=2, note=51, velocity=95, time=0),
    Message('note_on', channel=2, note=44, velocity=95, time=0),
    Message('note_off', channel=2, note=56, velocity=80, time=480),
    Message('note_off', channel=2, note=51, velocity=80, time=0),
    Message('note_off', channel=2, note=44, velocity=80, time=0),
    Message('note_on', channel=2, note=56, velocity=95, time=0),
    Message('note_on', channel=2, note=51, velocity=95, time=0),
    Message('note_on', channel=2, note=44, velocity=95, time=0),
    Message('note_off', channel=2, note=56, velocity=80, time=480),
    Message('note_off', channel=2, note=51, velocity=80, time=0),
    Message('note_off', channel=2, note=44, velocity=80, time=0),
    Message('note_on', channel=2, note=56, velocity=95, time=0),
    Message('note_on', channel=2, note=51, velocity=95, time=0),
    Message('note_on', channel=2, note=44, velocity=95, time=0),
    Message('note_off', channel=2, note=56, velocity=80, time=240),
    Message('note_off', channel=2, note=51, velocity=80, time=0),
    Message('note_off', channel=2, note=44, velocity=80, time=0),
    Message('note_on', channel=2, note=56, velocity=95, time=0),
    Message('note_on', channel=2, note=51, velocity=95, time=0),
    Message('note_on', channel=2, note=44, velocity=95, time=0),
    Message('note_off', channel=2, note=56, velocity=80, time=240),
    Message('note_off', channel=2, note=51, velocity=80, time=0),
    Message('note_off', channel=2, note=44, velocity=80, time=0),
    Message('note_on', channel=2, note=60, velocity=95, time=0),
    Message('note_on', channel=2, note=55, velocity=95, time=0),
    Message('note_on', channel=2, note=48, velocity=95, time=0),
    Message('note_off', channel=2, note=60, velocity=80, time=480),
    Message('note_off', channel=2, note=55, velocity=80, time=0),
    Message('note_off', channel=2, note=48, velocity=80, time=0),
    Message('note_on', channel=2, note=60, velocity=95, time=0),
    Message('note_on', channel=2, note=55, velocity=95, time=0),
    Message('note_on', channel=2, note=48, velocity=95, time=0),
    Message('note_off', channel=2, note=60, velocity=80, time=480),
    Message('note_off', channel=2, note=55, velocity=80, time=0),
    Message('note_off', channel=2, note=48, velocity=80, time=0),
    Message('note_on', channel=2, note=60, velocity=95, time=0),
    Message('note_on', channel=2, note=55, velocity=95, time=0),
    Message('note_on', channel=2, note=48, velocity=95, time=0),
    Message('note_off', channel=2, note=60, velocity=80, time=480),
    Message('note_off', channel=2, note=55, velocity=80, time=0),
    Message('note_off', channel=2, note=48, velocity=80, time=0),
    Message('note_on', channel=2, note=60, velocity=95, time=0),
    Message('note_on', channel=2, note=55, velocity=95, time=0),
    Message('note_on', channel=2, note=48, velocity=95, time=0),
    Message('note_off', channel=2, note=60, velocity=80, time=480),
    Message('note_off', channel=2, note=55, velocity=80, time=0),
    Message('note_off', channel=2, note=48, velocity=80, time=0),
    Message('note_on', channel=2, note=60, velocity=95, time=0),
    Message('note_on', channel=2, note=55, velocity=95, time=0),
    Message('note_on', channel=2, note=48, velocity=95, time=0),
    Message('note_off', channel=2, note=60, velocity=80, time=480),
    Message('note_off', channel=2, note=55, velocity=80, time=0),
    Message('note_off', channel=2, note=48, velocity=80, time=0),
    Message('note_on', channel=2, note=60, velocity=95, time=0),
    Message('note_on', channel=2, note=55, velocity=95, time=0),
    Message('note_on', channel=2, note=48, velocity=95, time=0),
    Message('note_off', channel=2, note=60, velocity=80, time=480),
    Message('note_off', channel=2, note=55, velocity=80, time=0),
    Message('note_off', channel=2, note=48, velocity=80, time=0),
    Message('note_on', channel=2, note=60, velocity=95, time=0),
    Message('note_on', channel=2, note=55, velocity=95, time=0),
    Message('note_on', channel=2, note=48, velocity=95, time=0),
    Message('note_off', channel=2, note=60, velocity=80, time=480),
    Message('note_off', channel=2, note=55, velocity=80, time=0),
    Message('note_off', channel=2, note=48, velocity=80, time=0),
    Message('note_on', channel=2, note=60, velocity=95, time=0),
    Message('note_on', channel=2, note=55, velocity=95, time=0),
    Message('note_on', channel=2, note=48, velocity=95, time=0),
    Message('note_off', channel=2, note=60, velocity=80, time=480),
    Message('note_off', channel=2, note=55, velocity=80, time=0),
    Message('note_off', channel=2, note=48, velocity=80, time=0),
    Message('note_on', channel=2, note=60, velocity=95, time=0),
    Message('note_on', channel=2, note=55, velocity=95, time=0),
    Message('note_on', channel=2, note=48, velocity=95, time=0),
    Message('note_off', channel=2, note=60, velocity=80, time=480),
    Message('note_off', channel=2, note=55, velocity=80, time=0),
    Message('note_off', channel=2, note=48, velocity=80, time=0),
    Message('note_on', channel=2, note=60, velocity=95, time=0),
    Message('note_on', channel=2, note=55, velocity=95, time=0),
    Message('note_on', channel=2, note=48, velocity=95, time=0),
    Message('note_off', channel=2, note=60, velocity=80, time=480),
    Message('note_off', channel=2, note=55, velocity=80, time=0),
    Message('note_off', channel=2, note=48, velocity=80, time=0),
    Message('note_on', channel=2, note=60, velocity=95, time=0),
    Message('note_on', channel=2, note=55, velocity=95, time=0),
    Message('note_on', channel=2, note=48, velocity=95, time=0),
    Message('note_off', channel=2, note=60, velocity=80, time=480),
    Message('note_off', channel=2, note=55, velocity=80, time=0),
    Message('note_off', channel=2, note=48, velocity=80, time=0),
    Message('note_on', channel=2, note=60, velocity=95, time=0),
    Message('note_on', channel=2, note=55, velocity=95, time=0),
    Message('note_on', channel=2, note=48, velocity=95, time=0),
    Message('note_off', channel=2, note=60, velocity=80, time=480),
    Message('note_off', channel=2, note=55, velocity=80, time=0),
    Message('note_off', channel=2, note=48, velocity=80, time=0),
    Message('note_on', channel=2, note=60, velocity=95, time=0),
    Message('note_on', channel=2, note=55, velocity=95, time=0),
    Message('note_on', channel=2, note=48, velocity=95, time=0),
    Message('note_off', channel=2, note=60, velocity=80, time=480),
    Message('note_off', channel=2, note=55, velocity=80, time=0),
    Message('note_off', channel=2, note=48, velocity=80, time=0),
    Message('note_on', channel=2, note=60, velocity=95, time=0),
    Message('note_on', channel=2, note=55, velocity=95, time=0),
    Message('note_on', channel=2, note=48, velocity=95, time=0),
    Message('note_off', channel=2, note=60, velocity=80, time=480),
    Message('note_off', channel=2, note=55, velocity=80, time=0),
    Message('note_off', channel=2, note=48, velocity=80, time=0),
    Message('note_on', channel=2, note=60, velocity=95, time=0),
    Message('note_on', channel=2, note=55, velocity=95, time=0),
    Message('note_on', channel=2, note=48, velocity=95, time=0),
    Message('note_off', channel=2, note=60, velocity=80, time=480),
    Message('note_off', channel=2, note=55, velocity=80, time=0),
    Message('note_off', channel=2, note=48, velocity=80, time=0),
    Message('note_on', channel=3, note=60, velocity=95, time=0),
    Message('note_on', channel=3, note=55, velocity=95, time=0),
    Message('note_on', channel=3, note=48, velocity=95, time=0),
    Message('pitchwheel', channel=3, pitch=-640, time=240),
    Message('pitchwheel', channel=3, pitch=-1408, time=60),
    Message('pitchwheel', channel=3, pitch=-2048, time=60),
    Message('pitchwheel', channel=3, pitch=640, time=24),
    Message('pitchwheel', channel=3, pitch=640, time=0),
    Message('pitchwheel', channel=3, pitch=-2688, time=36),
    Message('note_off', channel=3, note=60, velocity=80, time=60),
    Message('pitchwheel', channel=3, pitch=0, time=0),
    Message('note_off', channel=3, note=55, velocity=80, time=0),
    Message('pitchwheel', channel=3, pitch=0, time=0),
    Message('note_off', channel=3, note=48, velocity=80, time=0),
    Message('pitchwheel', channel=3, pitch=0, time=0),
    Message('program_change', channel=2, program=29, time=0),
    Message('program_change', channel=3, program=29, time=0),
    Message('control_change', channel=2, control=7, value=104, time=0),
    Message('control_change', channel=3, control=7, value=104, time=0),
    Message('note_on', channel=2, note=48, velocity=86, time=0),
    Message('note_on', channel=2, note=41, velocity=95, time=0),
    Message('note_off', channel=2, note=48, velocity=80, time=960),
    Message('note_off', channel=2, note=41, velocity=80, time=0),
    Message('note_on', channel=2, note=48, velocity=95, time=0),
    Message('note_on', channel=2, note=41, velocity=95, time=0),
    Message('note_off', channel=2, note=48, velocity=80, time=480),
    Message('note_off', channel=2, note=41, velocity=80, time=0),
    Message('note_on', channel=2, note=48, velocity=95, time=0),
    Message('note_on', channel=2, note=41, velocity=95, time=0),
    Message('note_off', channel=2, note=48, velocity=80, time=480),
    Message('note_off', channel=2, note=41, velocity=80, time=0),
    Message('note_on', channel=2, note=56, velocity=86, time=0),
    Message('note_on', channel=2, note=49, velocity=95, time=0),
    Message('note_off', channel=2, note=56, velocity=80, time=960),
    Message('note_off', channel=2, note=49, velocity=80, time=0),
    Message('note_on', channel=2, note=56, velocity=95, time=0),
    Message('note_on', channel=2, note=49, velocity=95, time=0),
    Message('note_off', channel=2, note=56, velocity=80, time=480),
    Message('note_off', channel=2, note=49, velocity=80, time=0),
    Message('note_on', channel=2, note=56, velocity=95, time=0),
    Message('note_on', channel=2, note=49, velocity=95, time=0),
    Message('note_off', channel=2, note=56, velocity=80, time=480),
    Message('note_off', channel=2, note=49, velocity=80, time=0),
    Message('note_on', channel=2, note=58, velocity=95, time=0),
    Message('note_on', channel=2, note=51, velocity=95, time=0),
    Message('note_off', channel=2, note=58, velocity=80, time=960),
    Message('note_off', channel=2, note=51, velocity=80, time=0),
    Message('note_on', channel=2, note=58, velocity=95, time=0),
    Message('note_on', channel=2, note=51, velocity=95, time=0),
    Message('note_off', channel=2, note=58, velocity=80, time=480),
    Message('note_off', channel=2, note=51, velocity=80, time=0),
    Message('note_on', channel=2, note=58, velocity=95, time=0),
    Message('note_on', channel=2, note=51, velocity=95, time=0),
    Message('note_off', channel=2, note=58, velocity=80, time=480),
    Message('note_off', channel=2, note=51, velocity=80, time=0),
    Message('note_on', channel=2, note=57, velocity=95, time=0),
    Message('note_on', channel=2, note=50, velocity=95, time=0),
    Message('note_off', channel=2, note=57, velocity=80, time=960),
    Message('note_off', channel=2, note=50, velocity=80, time=0),
    Message('note_on', channel=2, note=57, velocity=95, time=0),
    Message('note_on', channel=2, note=50, velocity=95, time=0),
    Message('note_off', channel=2, note=57, velocity=80, time=480),
    Message('note_off', channel=2, note=50, velocity=80, time=0),
    Message('note_on', channel=2, note=57, velocity=95, time=0),
    Message('note_on', channel=2, note=50, velocity=95, time=0),
    Message('note_off', channel=2, note=57, velocity=80, time=480),
    Message('note_off', channel=2, note=50, velocity=80, time=0),
    Message('note_on', channel=2, note=51, velocity=95, time=0),
    Message('note_on', channel=2, note=44, velocity=95, time=0),
    Message('note_off', channel=2, note=51, velocity=80, time=960),
    Message('note_off', channel=2, note=44, velocity=80, time=0),
    Message('note_on', channel=2, note=51, velocity=95, time=0),
    Message('note_on', channel=2, note=44, velocity=95, time=0),
    Message('note_off', channel=2, note=51, velocity=80, time=480),
    Message('note_off', channel=2, note=44, velocity=80, time=0),
    Message('note_on', channel=2, note=51, velocity=95, time=0),
    Message('note_on', channel=2, note=44, velocity=95, time=0),
    Message('note_off', channel=2, note=51, velocity=80, time=480),
    Message('note_off', channel=2, note=44, velocity=80, time=0),
    Message('note_on', channel=2, note=47, velocity=95, time=0),
    Message('note_on', channel=2, note=40, velocity=95, time=0),
    Message('note_off', channel=2, note=47, velocity=80, time=960),
    Message('note_off', channel=2, note=40, velocity=80, time=0),
    Message('note_on', channel=2, note=47, velocity=95, time=0),
    Message('note_on', channel=2, note=40, velocity=95, time=0),
    Message('note_off', channel=2, note=47, velocity=80, time=480),
    Message('note_off', channel=2, note=40, velocity=80, time=0),
    Message('note_on', channel=2, note=47, velocity=95, time=0),
    Message('note_on', channel=2, note=40, velocity=95, time=0),
    Message('note_off', channel=2, note=47, velocity=80, time=480),
    Message('note_off', channel=2, note=40, velocity=80, time=0),
    Message('program_change', channel=2, program=29, time=0),
    Message('program_change', channel=3, program=29, time=0),
    Message('control_change', channel=2, control=7, value=104, time=0),
    Message('control_change', channel=3, control=7, value=104, time=0),
    Message('note_on', channel=2, note=48, velocity=95, time=0),
    Message('note_on', channel=2, note=41, velocity=95, time=0),
    Message('note_off', channel=2, note=48, velocity=80, time=960),
    Message('note_off', channel=2, note=41, velocity=80, time=0),
    Message('note_on', channel=2, note=48, velocity=95, time=0),
    Message('note_on', channel=2, note=41, velocity=95, time=0),
    Message('note_off', channel=2, note=48, velocity=80, time=480),
    Message('note_off', channel=2, note=41, velocity=80, time=0),
    Message('note_on', channel=2, note=48, velocity=95, time=0),
    Message('note_on', channel=2, note=41, velocity=95, time=0),
    Message('note_off', channel=2, note=48, velocity=80, time=480),
    Message('note_off', channel=2, note=41, velocity=80, time=0),
    Message('note_on', channel=2, note=56, velocity=95, time=0),
    Message('note_on', channel=2, note=49, velocity=95, time=0),
    Message('note_off', channel=2, note=56, velocity=80, time=960),
    Message('note_off', channel=2, note=49, velocity=80, time=0),
    Message('note_on', channel=2, note=56, velocity=95, time=0),
    Message('note_on', channel=2, note=49, velocity=95, time=0),
    Message('note_off', channel=2, note=56, velocity=80, time=480),
    Message('note_off', channel=2, note=49, velocity=80, time=0),
    Message('note_on', channel=2, note=56, velocity=95, time=0),
    Message('note_on', channel=2, note=49, velocity=95, time=0),
    Message('note_off', channel=2, note=56, velocity=80, time=480),
    Message('note_off', channel=2, note=49, velocity=80, time=0),
    Message('note_on', channel=2, note=58, velocity=95, time=0),
    Message('note_on', channel=2, note=51, velocity=95, time=0),
    Message('note_off', channel=2, note=58, velocity=80, time=960),
    Message('note_off', channel=2, note=51, velocity=80, time=0),
    Message('note_on', channel=2, note=58, velocity=95, time=0),
    Message('note_on', channel=2, note=51, velocity=95, time=0),
    Message('note_off', channel=2, note=58, velocity=80, time=480),
    Message('note_off', channel=2, note=51, velocity=80, time=0),
    Message('note_on', channel=2, note=58, velocity=95, time=0),
    Message('note_on', channel=2, note=51, velocity=95, time=0),
    Message('note_off', channel=2, note=58, velocity=80, time=480),
    Message('note_off', channel=2, note=51, velocity=80, time=0),
    Message('note_on', channel=2, note=57, velocity=95, time=0),
    Message('note_on', channel=2, note=50, velocity=95, time=0),
    Message('note_off', channel=2, note=57, velocity=80, time=960),
    Message('note_off', channel=2, note=50, velocity=80, time=0),
    Message('note_on', channel=2, note=57, velocity=95, time=0),
    Message('note_on', channel=2, note=50, velocity=95, time=0),
    Message('note_off', channel=2, note=57, velocity=80, time=480),
    Message('note_off', channel=2, note=50, velocity=80, time=0),
    Message('note_on', channel=2, note=57, velocity=95, time=0),
    Message('note_on', channel=2, note=50, velocity=95, time=0),
    Message('note_off', channel=2, note=57, velocity=80, time=480),
    Message('note_off', channel=2, note=50, velocity=80, time=0),
    Message('note_on', channel=2, note=51, velocity=95, time=0),
    Message('note_on', channel=2, note=44, velocity=95, time=0),
    Message('note_off', channel=2, note=51, velocity=80, time=960),
    Message('note_off', channel=2, note=44, velocity=80, time=0),
    Message('note_on', channel=2, note=51, velocity=95, time=0),
    Message('note_on', channel=2, note=44, velocity=95, time=0),
    Message('note_off', channel=2, note=51, velocity=80, time=480),
    Message('note_off', channel=2, note=44, velocity=80, time=0),
    Message('note_on', channel=2, note=51, velocity=95, time=0),
    Message('note_on', channel=2, note=44, velocity=95, time=0),
    Message('note_off', channel=2, note=51, velocity=80, time=480),
    Message('note_off', channel=2, note=44, velocity=80, time=0),
    Message('note_on', channel=2, note=47, velocity=95, time=0),
    Message('note_on', channel=2, note=40, velocity=95, time=0),
    Message('note_off', channel=2, note=47, velocity=80, time=960),
    Message('note_off', channel=2, note=40, velocity=80, time=0),
    Message('note_on', channel=2, note=47, velocity=95, time=0),
    Message('note_on', channel=2, note=40, velocity=95, time=0),
    Message('note_off', channel=2, note=47, velocity=80, time=480),
    Message('note_off', channel=2, note=40, velocity=80, time=0),
    Message('note_on', channel=2, note=47, velocity=95, time=0),
    Message('note_on', channel=2, note=40, velocity=95, time=0),
    Message('note_off', channel=2, note=47, velocity=80, time=480),
    Message('note_off', channel=2, note=40, velocity=80, time=0),
    Message('program_change', channel=2, program=29, time=0),
    Message('program_change', channel=3, program=29, time=0),
    Message('control_change', channel=2, control=7, value=104, time=0),
    Message('control_change', channel=3, control=7, value=104, time=0),
    Message('note_on', channel=2, note=48, velocity=95, time=0),
    Message('note_on', channel=2, note=41, velocity=95, time=0),
    Message('note_off', channel=2, note=48, velocity=80, time=960),
    Message('note_off', channel=2, note=41, velocity=80, time=0),
    Message('note_on', channel=2, note=48, velocity=95, time=0),
    Message('note_on', channel=2, note=41, velocity=95, time=0),
    Message('note_off', channel=2, note=48, velocity=80, time=480),
    Message('note_off', channel=2, note=41, velocity=80, time=0),
    Message('note_on', channel=2, note=48, velocity=95, time=0),
    Message('note_on', channel=2, note=41, velocity=95, time=0),
    Message('note_off', channel=2, note=48, velocity=80, time=480),
    Message('note_off', channel=2, note=41, velocity=80, time=0),
    Message('note_on', channel=2, note=56, velocity=95, time=0),
    Message('note_on', channel=2, note=49, velocity=95, time=0),
    Message('note_off', channel=2, note=56, velocity=80, time=960),
    Message('note_off', channel=2, note=49, velocity=80, time=0),
    Message('note_on', channel=2, note=56, velocity=95, time=0),
    Message('note_on', channel=2, note=49, velocity=95, time=0),
    Message('note_off', channel=2, note=56, velocity=80, time=480),
    Message('note_off', channel=2, note=49, velocity=80, time=0),
    Message('note_on', channel=2, note=56, velocity=95, time=0),
    Message('note_on', channel=2, note=49, velocity=95, time=0),
    Message('note_off', channel=2, note=56, velocity=80, time=480),
    Message('note_off', channel=2, note=49, velocity=80, time=0),
    Message('note_on', channel=2, note=58, velocity=95, time=0),
    Message('note_on', channel=2, note=51, velocity=95, time=0),
    Message('note_off', channel=2, note=58, velocity=80, time=960),
    Message('note_off', channel=2, note=51, velocity=80, time=0),
    Message('note_on', channel=2, note=58, velocity=95, time=0),
    Message('note_on', channel=2, note=51, velocity=95, time=0),
    Message('note_off', channel=2, note=58, velocity=80, time=480),
    Message('note_off', channel=2, note=51, velocity=80, time=0),
    Message('note_on', channel=2, note=58, velocity=95, time=0),
    Message('note_on', channel=2, note=51, velocity=95, time=0),
    Message('note_off', channel=2, note=58, velocity=80, time=480),
    Message('note_off', channel=2, note=51, velocity=80, time=0),
    Message('note_on', channel=2, note=57, velocity=95, time=0),
    Message('note_on', channel=2, note=50, velocity=95, time=0),
    Message('note_off', channel=2, note=57, velocity=80, time=960),
    Message('note_off', channel=2, note=50, velocity=80, time=0),
    Message('note_on', channel=2, note=57, velocity=95, time=0),
    Message('note_on', channel=2, note=50, velocity=95, time=0),
    Message('note_off', channel=2, note=57, velocity=80, time=480),
    Message('note_off', channel=2, note=50, velocity=80, time=0),
    Message('note_on', channel=2, note=57, velocity=95, time=0),
    Message('note_on', channel=2, note=50, velocity=95, time=0),
    Message('note_off', channel=2, note=57, velocity=80, time=480),
    Message('note_off', channel=2, note=50, velocity=80, time=0),
    Message('note_on', channel=2, note=51, velocity=95, time=0),
    Message('note_on', channel=2, note=44, velocity=95, time=0),
    Message('note_off', channel=2, note=51, velocity=80, time=960),
    Message('note_off', channel=2, note=44, velocity=80, time=0),
    Message('note_on', channel=2, note=51, velocity=95, time=0),
    Message('note_on', channel=2, note=44, velocity=95, time=0),
    Message('note_off', channel=2, note=51, velocity=80, time=480),
    Message('note_off', channel=2, note=44, velocity=80, time=0),
    Message('note_on', channel=2, note=51, velocity=95, time=0),
    Message('note_on', channel=2, note=44, velocity=95, time=0),
    Message('note_off', channel=2, note=51, velocity=80, time=480),
    Message('note_off', channel=2, note=44, velocity=80, time=0),
    Message('note_on', channel=2, note=47, velocity=95, time=0),
    Message('note_on', channel=2, note=40, velocity=95, time=0),
    Message('note_off', channel=2, note=47, velocity=80, time=960),
    Message('note_off', channel=2, note=40, velocity=80, time=0),
    Message('note_on', channel=2, note=47, velocity=95, time=0),
    Message('note_on', channel=2, note=40, velocity=95, time=0),
    Message('note_off', channel=2, note=47, velocity=80, time=480),
    Message('note_off', channel=2, note=40, velocity=80, time=0),
    Message('note_on', channel=2, note=47, velocity=95, time=0),
    Message('note_on', channel=2, note=40, velocity=95, time=0),
    Message('note_off', channel=2, note=47, velocity=80, time=480),
    Message('note_off', channel=2, note=40, velocity=80, time=0),
    Message('program_change', channel=2, program=29, time=0),
    Message('program_change', channel=3, program=29, time=0),
    Message('control_change', channel=2, control=7, value=104, time=0),
    Message('control_change', channel=3, control=7, value=104, time=0),
    Message('note_on', channel=2, note=48, velocity=95, time=0),
    Message('note_on', channel=2, note=41, velocity=95, time=0),
    Message('note_off', channel=2, note=48, velocity=80, time=960),
    Message('note_off', channel=2, note=41, velocity=80, time=0),
    Message('note_on', channel=2, note=48, velocity=95, time=0),
    Message('note_on', channel=2, note=41, velocity=95, time=0),
    Message('note_off', channel=2, note=48, velocity=80, time=480),
    Message('note_off', channel=2, note=41, velocity=80, time=0),
    Message('note_on', channel=2, note=48, velocity=95, time=0),
    Message('note_on', channel=2, note=41, velocity=95, time=0),
    Message('note_off', channel=2, note=48, velocity=80, time=480),
    Message('note_off', channel=2, note=41, velocity=80, time=0),
    Message('note_on', channel=2, note=56, velocity=95, time=0),
    Message('note_on', channel=2, note=49, velocity=95, time=0),
    Message('note_off', channel=2, note=56, velocity=80, time=960),
    Message('note_off', channel=2, note=49, velocity=80, time=0),
    Message('note_on', channel=2, note=56, velocity=95, time=0),
    Message('note_on', channel=2, note=49, velocity=95, time=0),
    Message('note_off', channel=2, note=56, velocity=80, time=480),
    Message('note_off', channel=2, note=49, velocity=80, time=0),
    Message('note_on', channel=2, note=56, velocity=95, time=0),
    Message('note_on', channel=2, note=49, velocity=95, time=0),
    Message('note_off', channel=2, note=56, velocity=80, time=480),
    Message('note_off', channel=2, note=49, velocity=80, time=0),
    Message('note_on', channel=2, note=58, velocity=95, time=0),
    Message('note_on', channel=2, note=51, velocity=95, time=0),
    Message('note_off', channel=2, note=58, velocity=80, time=960),
    Message('note_off', channel=2, note=51, velocity=80, time=0),
    Message('note_on', channel=2, note=58, velocity=95, time=0),
    Message('note_on', channel=2, note=51, velocity=95, time=0),
    Message('note_off', channel=2, note=58, velocity=80, time=480),
    Message('note_off', channel=2, note=51, velocity=80, time=0),
    Message('note_on', channel=2, note=58, velocity=95, time=0),
    Message('note_on', channel=2, note=51, velocity=95, time=0),
    Message('note_off', channel=2, note=58, velocity=80, time=480),
    Message('note_off', channel=2, note=51, velocity=80, time=0),
    Message('note_on', channel=2, note=57, velocity=95, time=0),
    Message('note_on', channel=2, note=50, velocity=95, time=0),
    Message('note_off', channel=2, note=57, velocity=80, time=960),
    Message('note_off', channel=2, note=50, velocity=80, time=0),
    Message('note_on', channel=2, note=57, velocity=95, time=0),
    Message('note_on', channel=2, note=50, velocity=95, time=0),
    Message('note_off', channel=2, note=57, velocity=80, time=480),
    Message('note_off', channel=2, note=50, velocity=80, time=0),
    Message('note_on', channel=2, note=57, velocity=95, time=0),
    Message('note_on', channel=2, note=50, velocity=95, time=0),
    Message('note_off', channel=2, note=57, velocity=80, time=480),
    Message('note_off', channel=2, note=50, velocity=80, time=0),
    Message('program_change', channel=2, program=29, time=0),
    Message('program_change', channel=3, program=29, time=0),
    Message('control_change', channel=2, control=7, value=104, time=0),
    Message('control_change', channel=3, control=7, value=104, time=0),
    Message('note_on', channel=2, note=51, velocity=95, time=0),
    Message('note_on', channel=2, note=44, velocity=95, time=0),
    Message('note_off', channel=2, note=51, velocity=80, time=480),
    Message('note_off', channel=2, note=44, velocity=80, time=0),
    Message('note_on', channel=2, note=51, velocity=95, time=0),
    Message('note_on', channel=2, note=44, velocity=95, time=0),
    Message('note_off', channel=2, note=51, velocity=80, time=480),
    Message('note_off', channel=2, note=44, velocity=80, time=0),
    Message('note_on', channel=2, note=47, velocity=95, time=0),
    Message('note_on', channel=2, note=40, velocity=95, time=0),
    Message('note_off', channel=2, note=47, velocity=80, time=480),
    Message('note_off', channel=2, note=40, velocity=80, time=0),
    Message('note_on', channel=2, note=47, velocity=95, time=0),
    Message('note_on', channel=2, note=40, velocity=95, time=0),
    Message('note_off', channel=2, note=47, velocity=80, time=480),
    Message('note_off', channel=2, note=40, velocity=80, time=0),
    MetaMessage('end_of_track', time=0)]),
  MidiTrack([
    MetaMessage('track_name', name='Billie Joe Armstrong (Solo)', time=0),
    Message('control_change', channel=4, control=100, value=0, time=0),
    Message('control_change', channel=4, control=101, value=0, time=0),
    Message('control_change', channel=4, control=6, value=12, time=0),
    Message('pitchwheel', channel=4, pitch=0, time=0),
    Message('control_change', channel=5, control=100, value=0, time=0),
    Message('control_change', channel=5, control=101, value=0, time=0),
    Message('control_change', channel=5, control=6, value=12, time=0),
    Message('pitchwheel', channel=5, pitch=0, time=0),
    Message('program_change', channel=4, program=30, time=0),
    Message('program_change', channel=5, program=30, time=0),
    Message('control_change', channel=4, control=7, value=104, time=0),
    Message('control_change', channel=5, control=7, value=104, time=0),
    Message('control_change', channel=4, control=10, value=64, time=0),
    Message('control_change', channel=5, control=10, value=64, time=0),
    Message('control_change', channel=4, control=93, value=0, time=0),
    Message('control_change', channel=5, control=93, value=0, time=0),
    Message('control_change', channel=4, control=91, value=0, time=0),
    Message('control_change', channel=5, control=91, value=0, time=0),
    Message('control_change', channel=4, control=92, value=0, time=0),
    Message('control_change', channel=5, control=92, value=0, time=0),
    Message('control_change', channel=4, control=95, value=0, time=0),
    Message('control_change', channel=5, control=95, value=0, time=0),
    Message('control_change', channel=4, control=93, value=127, time=30720),
    Message('control_change', channel=5, control=93, value=127, time=0),
    Message('control_change', channel=4, control=91, value=127, time=0),
    Message('control_change', channel=5, control=91, value=127, time=0),
    Message('control_change', channel=4, control=95, value=127, time=0),
    Message('control_change', channel=5, control=95, value=127, time=0),
    Message('note_on', channel=4, note=65, velocity=63, time=0),
    Message('note_off', channel=4, note=65, velocity=80, time=960),
    Message('note_on', channel=5, note=67, velocity=95, time=0),
    Message('pitchwheel', channel=5, pitch=640, time=384),
    Message('note_off', channel=5, note=67, velocity=80, time=96),
    Message('pitchwheel', channel=5, pitch=0, time=0),
    Message('note_on', channel=4, note=68, velocity=86, time=0),
    Message('note_off', channel=4, note=68, velocity=80, time=1440),
    Message('note_on', channel=5, note=72, velocity=95, time=0),
    Message('pitchwheel', channel=5, pitch=-640, time=240),
    Message('note_off', channel=5, note=72, velocity=80, time=240),
    Message('pitchwheel', channel=5, pitch=0, time=0),
    Message('note_on', channel=4, note=70, velocity=86, time=0),
    Message('note_off', channel=4, note=70, velocity=80, time=1440),
    Message('note_on', channel=5, note=67, velocity=95, time=0),
    Message('pitchwheel', channel=5, pitch=640, time=384),
    Message('note_off', channel=5, note=67, velocity=80, time=96),
    Message('pitchwheel', channel=5, pitch=0, time=0),
    Message('note_on', channel=4, note=68, velocity=86, time=0),
    Message('note_off', channel=4, note=68, velocity=80, time=2400),
    Message('control_change', channel=4, control=93, value=127, time=15360),
    Message('control_change', channel=5, control=93, value=127, time=0),
    Message('control_change', channel=4, control=91, value=127, time=0),
    Message('control_change', channel=5, control=91, value=127, time=0),
    Message('control_change', channel=4, control=95, value=127, time=0),
    Message('control_change', channel=5, control=95, value=127, time=0),
    Message('note_on', channel=4, note=65, velocity=63, time=0),
    Message('note_off', channel=4, note=65, velocity=80, time=960),
    Message('note_on', channel=5, note=67, velocity=95, time=0),
    Message('pitchwheel', channel=5, pitch=640, time=384),
    Message('note_off', channel=5, note=67, velocity=80, time=96),
    Message('pitchwheel', channel=5, pitch=0, time=0),
    Message('note_on', channel=4, note=68, velocity=86, time=0),
    Message('note_off', channel=4, note=68, velocity=80, time=1440),
    Message('note_on', channel=5, note=72, velocity=95, time=0),
    Message('pitchwheel', channel=5, pitch=-640, time=240),
    Message('note_off', channel=5, note=72, velocity=80, time=240),
    Message('pitchwheel', channel=5, pitch=0, time=0),
    Message('note_on', channel=4, note=70, velocity=86, time=0),
    Message('note_off', channel=4, note=70, velocity=80, time=1440),
    Message('note_on', channel=5, note=67, velocity=95, time=0),
    Message('pitchwheel', channel=5, pitch=640, time=384),
    Message('note_off', channel=5, note=67, velocity=80, time=96),
    Message('pitchwheel', channel=5, pitch=0, time=0),
    Message('note_on', channel=4, note=68, velocity=86, time=0),
    Message('note_off', channel=4, note=68, velocity=80, time=2400),
    Message('control_change', channel=4, control=93, value=127, time=0),
    Message('control_change', channel=5, control=93, value=127, time=0),
    Message('control_change', channel=4, control=91, value=127, time=0),
    Message('control_change', channel=5, control=91, value=127, time=0),
    Message('control_change', channel=4, control=95, value=127, time=0),
    Message('control_change', channel=5, control=95, value=127, time=0),
    Message('note_on', channel=4, note=65, velocity=63, time=0),
    Message('note_off', channel=4, note=65, velocity=80, time=960),
    Message('note_on', channel=5, note=67, velocity=95, time=0),
    Message('pitchwheel', channel=5, pitch=640, time=384),
    Message('note_off', channel=5, note=67, velocity=80, time=96),
    Message('pitchwheel', channel=5, pitch=0, time=0),
    Message('note_on', channel=4, note=68, velocity=86, time=0),
    Message('note_off', channel=4, note=68, velocity=80, time=1440),
    Message('note_on', channel=5, note=72, velocity=95, time=0),
    Message('pitchwheel', channel=5, pitch=-640, time=240),
    Message('note_off', channel=5, note=72, velocity=80, time=240),
    Message('pitchwheel', channel=5, pitch=0, time=0),
    Message('note_on', channel=4, note=70, velocity=86, time=0),
    Message('note_off', channel=4, note=70, velocity=80, time=1440),
    Message('note_on', channel=5, note=67, velocity=95, time=0),
    Message('pitchwheel', channel=5, pitch=640, time=384),
    Message('note_off', channel=5, note=67, velocity=80, time=96),
    Message('pitchwheel', channel=5, pitch=0, time=0),
    Message('note_on', channel=4, note=68, velocity=86, time=0),
    Message('note_off', channel=4, note=68, velocity=80, time=2400),
    Message('control_change', channel=4, control=93, value=127, time=61440),
    Message('control_change', channel=5, control=93, value=127, time=0),
    Message('control_change', channel=4, control=91, value=127, time=0),
    Message('control_change', channel=5, control=91, value=127, time=0),
    Message('note_on', channel=4, note=65, velocity=63, time=0),
    Message('note_off', channel=4, note=65, velocity=80, time=960),
    Message('note_on', channel=5, note=67, velocity=95, time=0),
    Message('pitchwheel', channel=5, pitch=640, time=384),
    Message('note_off', channel=5, note=67, velocity=80, time=96),
    Message('pitchwheel', channel=5, pitch=0, time=0),
    Message('note_on', channel=4, note=68, velocity=86, time=0),
    Message('note_off', channel=4, note=68, velocity=80, time=1440),
    Message('note_on', channel=5, note=72, velocity=95, time=0),
    Message('pitchwheel', channel=5, pitch=-640, time=240),
    Message('note_off', channel=5, note=72, velocity=80, time=240),
    Message('pitchwheel', channel=5, pitch=0, time=0),
    Message('note_on', channel=4, note=70, velocity=86, time=0),
    Message('note_off', channel=4, note=70, velocity=80, time=1440),
    Message('note_on', channel=5, note=67, velocity=95, time=0),
    Message('pitchwheel', channel=5, pitch=640, time=384),
    Message('note_off', channel=5, note=67, velocity=80, time=96),
    Message('pitchwheel', channel=5, pitch=0, time=0),
    Message('note_on', channel=4, note=68, velocity=86, time=0),
    Message('note_off', channel=4, note=68, velocity=80, time=2400),
    Message('control_change', channel=4, control=93, value=127, time=15360),
    Message('control_change', channel=5, control=93, value=127, time=0),
    Message('control_change', channel=4, control=91, value=127, time=0),
    Message('control_change', channel=5, control=91, value=127, time=0),
    Message('control_change', channel=4, control=95, value=127, time=0),
    Message('control_change', channel=5, control=95, value=127, time=0),
    Message('note_on', channel=4, note=65, velocity=63, time=0),
    Message('note_off', channel=4, note=65, velocity=80, time=960),
    Message('note_on', channel=5, note=67, velocity=95, time=0),
    Message('pitchwheel', channel=5, pitch=640, time=384),
    Message('note_off', channel=5, note=67, velocity=80, time=96),
    Message('pitchwheel', channel=5, pitch=0, time=0),
    Message('note_on', channel=4, note=68, velocity=86, time=0),
    Message('note_off', channel=4, note=68, velocity=80, time=1440),
    Message('note_on', channel=5, note=72, velocity=95, time=0),
    Message('pitchwheel', channel=5, pitch=-640, time=240),
    Message('note_off', channel=5, note=72, velocity=80, time=240),
    Message('pitchwheel', channel=5, pitch=0, time=0),
    Message('note_on', channel=4, note=70, velocity=86, time=0),
    Message('note_off', channel=4, note=70, velocity=80, time=1440),
    Message('note_on', channel=5, note=67, velocity=95, time=0),
    Message('pitchwheel', channel=5, pitch=640, time=384),
    Message('note_off', channel=5, note=67, velocity=80, time=96),
    Message('pitchwheel', channel=5, pitch=0, time=0),
    Message('note_on', channel=4, note=68, velocity=86, time=0),
    Message('note_off', channel=4, note=68, velocity=80, time=2400),
    Message('control_change', channel=4, control=93, value=127, time=0),
    Message('control_change', channel=5, control=93, value=127, time=0),
    Message('control_change', channel=4, control=91, value=127, time=0),
    Message('control_change', channel=5, control=91, value=127, time=0),
    Message('control_change', channel=4, control=95, value=127, time=0),
    Message('control_change', channel=5, control=95, value=127, time=0),
    Message('note_on', channel=4, note=65, velocity=63, time=0),
    Message('note_off', channel=4, note=65, velocity=80, time=960),
    Message('note_on', channel=5, note=67, velocity=95, time=0),
    Message('pitchwheel', channel=5, pitch=640, time=384),
    Message('note_off', channel=5, note=67, velocity=80, time=96),
    Message('pitchwheel', channel=5, pitch=0, time=0),
    Message('note_on', channel=4, note=68, velocity=86, time=0),
    Message('note_off', channel=4, note=68, velocity=80, time=1440),
    Message('note_on', channel=5, note=72, velocity=95, time=0),
    Message('pitchwheel', channel=5, pitch=-640, time=240),
    Message('note_off', channel=5, note=72, velocity=80, time=240),
    Message('pitchwheel', channel=5, pitch=0, time=0),
    Message('note_on', channel=4, note=70, velocity=86, time=0),
    Message('note_off', channel=4, note=70, velocity=80, time=1440),
    Message('note_on', channel=5, note=67, velocity=95, time=0),
    Message('pitchwheel', channel=5, pitch=640, time=384),
    Message('note_off', channel=5, note=67, velocity=80, time=96),
    Message('pitchwheel', channel=5, pitch=0, time=0),
    Message('note_on', channel=4, note=68, velocity=86, time=0),
    Message('note_off', channel=4, note=68, velocity=80, time=2400),
    Message('program_change', channel=4, program=30, time=46080),
    Message('program_change', channel=5, program=30, time=0),
    Message('control_change', channel=4, control=7, value=112, time=0),
    Message('control_change', channel=5, control=7, value=112, time=0),
    Message('control_change', channel=4, control=93, value=127, time=0),
    Message('control_change', channel=5, control=93, value=127, time=0),
    Message('control_change', channel=4, control=91, value=127, time=0),
    Message('control_change', channel=5, control=91, value=127, time=0),
    Message('control_change', channel=4, control=95, value=48, time=0),
    Message('control_change', channel=5, control=95, value=48, time=0),
    Message('note_on', channel=5, note=65, velocity=95, time=0),
    Message('pitchwheel', channel=5, pitch=0, time=80),
    Message('pitchwheel', channel=5, pitch=256, time=80),
    Message('pitchwheel', channel=5, pitch=0, time=80),
    Message('pitchwheel', channel=5, pitch=256, time=80),
    Message('pitchwheel', channel=5, pitch=0, time=80),
    Message('note_off', channel=5, note=65, velocity=80, time=80),
    Message('pitchwheel', channel=5, pitch=256, time=0),
    Message('pitchwheel', channel=5, pitch=0, time=0),
    Message('note_on', channel=5, note=65, velocity=95, time=0),
    Message('pitchwheel', channel=5, pitch=0, time=80),
    Message('pitchwheel', channel=5, pitch=256, time=80),
    Message('pitchwheel', channel=5, pitch=0, time=80),
    Message('pitchwheel', channel=5, pitch=256, time=80),
    Message('pitchwheel', channel=5, pitch=0, time=80),
    Message('note_off', channel=5, note=65, velocity=80, time=80),
    Message('pitchwheel', channel=5, pitch=256, time=0),
    Message('pitchwheel', channel=5, pitch=0, time=0),
    Message('note_on', channel=5, note=67, velocity=95, time=0),
    Message('pitchwheel', channel=5, pitch=640, time=384),
    Message('note_off', channel=5, note=67, velocity=80, time=96),
    Message('pitchwheel', channel=5, pitch=0, time=0),
    Message('note_on', channel=5, note=68, velocity=86, time=0),
    Message('pitchwheel', channel=5, pitch=0, time=80),
    Message('pitchwheel', channel=5, pitch=256, time=80),
    Message('pitchwheel', channel=5, pitch=0, time=80),
    Message('pitchwheel', channel=5, pitch=256, time=80),
    Message('pitchwheel', channel=5, pitch=0, time=80),
    Message('pitchwheel', channel=5, pitch=256, time=80),
    Message('pitchwheel', channel=5, pitch=0, time=80),
    Message('pitchwheel', channel=5, pitch=256, time=80),
    Message('pitchwheel', channel=5, pitch=0, time=80),
    Message('pitchwheel', channel=5, pitch=256, time=80),
    Message('pitchwheel', channel=5, pitch=0, time=80),
    Message('pitchwheel', channel=5, pitch=256, time=80),
    Message('pitchwheel', channel=5, pitch=0, time=80),
    Message('pitchwheel', channel=5, pitch=256, time=80),
    Message('pitchwheel', channel=5, pitch=0, time=80),
    Message('pitchwheel', channel=5, pitch=256, time=80),
    Message('pitchwheel', channel=5, pitch=0, time=80),
    Message('note_off', channel=5, note=68, velocity=80, time=80),
    Message('pitchwheel', channel=5, pitch=256, time=0),
    Message('pitchwheel', channel=5, pitch=0, time=0),
    Message('note_on', channel=5, note=72, velocity=95, time=0),
    Message('pitchwheel', channel=5, pitch=-640, time=240),
    Message('note_off', channel=5, note=72, velocity=80, time=240),
    Message('pitchwheel', channel=5, pitch=0, time=0),
    Message('note_on', channel=5, note=70, velocity=86, time=0),
    Message('pitchwheel', channel=5, pitch=0, time=80),
    Message('pitchwheel', channel=5, pitch=256, time=80),
    Message('pitchwheel', channel=5, pitch=0, time=80),
    Message('pitchwheel', channel=5, pitch=256, time=80),
    Message('pitchwheel', channel=5, pitch=0, time=80),
    Message('pitchwheel', channel=5, pitch=256, time=80),
    Message('pitchwheel', channel=5, pitch=0, time=80),
    Message('pitchwheel', channel=5, pitch=256, time=80),
    Message('pitchwheel', channel=5, pitch=0, time=80),
    Message('pitchwheel', channel=5, pitch=256, time=80),
    Message('pitchwheel', channel=5, pitch=0, time=80),
    Message('pitchwheel', channel=5, pitch=256, time=80),
    Message('pitchwheel', channel=5, pitch=0, time=80),
    Message('pitchwheel', channel=5, pitch=256, time=80),
    Message('pitchwheel', channel=5, pitch=0, time=80),
    Message('pitchwheel', channel=5, pitch=256, time=80),
    Message('pitchwheel', channel=5, pitch=0, time=80),
    Message('note_off', channel=5, note=70, velocity=80, time=80),
    Message('pitchwheel', channel=5, pitch=256, time=0),
    Message('pitchwheel', channel=5, pitch=0, time=0),
    Message('note_on', channel=5, note=67, velocity=95, time=0),
    Message('pitchwheel', channel=5, pitch=640, time=384),
    Message('note_off', channel=5, note=67, velocity=80, time=96),
    Message('pitchwheel', channel=5, pitch=0, time=0),
    Message('note_on', channel=5, note=68, velocity=86, time=0),
    Message('pitchwheel', channel=5, pitch=0, time=80),
    Message('pitchwheel', channel=5, pitch=256, time=80),
    Message('pitchwheel', channel=5, pitch=0, time=80),
    Message('pitchwheel', channel=5, pitch=256, time=80),
    Message('pitchwheel', channel=5, pitch=0, time=80),
    Message('pitchwheel', channel=5, pitch=256, time=80),
    Message('pitchwheel', channel=5, pitch=0, time=80),
    Message('pitchwheel', channel=5, pitch=256, time=80),
    Message('pitchwheel', channel=5, pitch=0, time=80),
    Message('pitchwheel', channel=5, pitch=256, time=80),
    Message('pitchwheel', channel=5, pitch=0, time=80),
    Message('note_off', channel=5, note=68, velocity=80, time=80),
    Message('pitchwheel', channel=5, pitch=256, time=0),
    Message('pitchwheel', channel=5, pitch=0, time=0),
    Message('note_on', channel=5, note=68, velocity=95, time=0),
    Message('pitchwheel', channel=5, pitch=0, time=80),
    Message('pitchwheel', channel=5, pitch=256, time=80),
    Message('pitchwheel', channel=5, pitch=0, time=80),
    Message('pitchwheel', channel=5, pitch=256, time=80),
    Message('pitchwheel', channel=5, pitch=0, time=80),
    Message('pitchwheel', channel=5, pitch=256, time=80),
    Message('pitchwheel', channel=5, pitch=0, time=80),
    Message('pitchwheel', channel=5, pitch=256, time=80),
    Message('pitchwheel', channel=5, pitch=0, time=80),
    Message('pitchwheel', channel=5, pitch=256, time=80),
    Message('pitchwheel', channel=5, pitch=0, time=80),
    Message('pitchwheel', channel=5, pitch=256, time=80),
    Message('pitchwheel', channel=5, pitch=0, time=80),
    Message('pitchwheel', channel=5, pitch=256, time=80),
    Message('pitchwheel', channel=5, pitch=0, time=80),
    Message('pitchwheel', channel=5, pitch=256, time=80),
    Message('pitchwheel', channel=5, pitch=0, time=80),
    Message('note_off', channel=5, note=68, velocity=80, time=80),
    Message('pitchwheel', channel=5, pitch=256, time=0),
    Message('pitchwheel', channel=5, pitch=0, time=0),
    Message('note_on', channel=5, note=65, velocity=95, time=0),
    Message('pitchwheel', channel=5, pitch=0, time=80),
    Message('pitchwheel', channel=5, pitch=256, time=80),
    Message('pitchwheel', channel=5, pitch=0, time=80),
    Message('pitchwheel', channel=5, pitch=256, time=80),
    Message('pitchwheel', channel=5, pitch=0, time=80),
    Message('note_off', channel=5, note=65, velocity=80, time=80),
    Message('pitchwheel', channel=5, pitch=256, time=0),
    Message('pitchwheel', channel=5, pitch=0, time=0),
    Message('note_on', channel=5, note=65, velocity=95, time=0),
    Message('pitchwheel', channel=5, pitch=0, time=80),
    Message('pitchwheel', channel=5, pitch=256, time=80),
    Message('pitchwheel', channel=5, pitch=0, time=80),
    Message('pitchwheel', channel=5, pitch=256, time=80),
    Message('pitchwheel', channel=5, pitch=0, time=80),
    Message('note_off', channel=5, note=65, velocity=80, time=80),
    Message('pitchwheel', channel=5, pitch=256, time=0),
    Message('pitchwheel', channel=5, pitch=0, time=0),
    Message('note_on', channel=5, note=67, velocity=95, time=0),
    Message('pitchwheel', channel=5, pitch=640, time=384),
    Message('note_off', channel=5, note=67, velocity=80, time=96),
    Message('pitchwheel', channel=5, pitch=0, time=0),
    Message('note_on', channel=5, note=68, velocity=86, time=0),
    Message('pitchwheel', channel=5, pitch=0, time=80),
    Message('pitchwheel', channel=5, pitch=256, time=80),
    Message('pitchwheel', channel=5, pitch=0, time=80),
    Message('pitchwheel', channel=5, pitch=256, time=80),
    Message('pitchwheel', channel=5, pitch=0, time=80),
    Message('pitchwheel', channel=5, pitch=256, time=80),
    Message('pitchwheel', channel=5, pitch=0, time=80),
    Message('pitchwheel', channel=5, pitch=256, time=80),
    Message('pitchwheel', channel=5, pitch=0, time=80),
    Message('pitchwheel', channel=5, pitch=256, time=80),
    Message('pitchwheel', channel=5, pitch=0, time=80),
    Message('pitchwheel', channel=5, pitch=256, time=80),
    Message('pitchwheel', channel=5, pitch=0, time=80),
    Message('pitchwheel', channel=5, pitch=256, time=80),
    Message('pitchwheel', channel=5, pitch=0, time=80),
    Message('pitchwheel', channel=5, pitch=256, time=80),
    Message('pitchwheel', channel=5, pitch=0, time=80),
    Message('note_off', channel=5, note=68, velocity=80, time=80),
    Message('pitchwheel', channel=5, pitch=256, time=0),
    Message('pitchwheel', channel=5, pitch=0, time=0),
    Message('note_on', channel=5, note=72, velocity=95, time=0),
    Message('pitchwheel', channel=5, pitch=-640, time=240),
    Message('note_off', channel=5, note=72, velocity=80, time=240),
    Message('pitchwheel', channel=5, pitch=0, time=0),
    Message('note_on', channel=5, note=70, velocity=86, time=0),
    Message('pitchwheel', channel=5, pitch=0, time=80),
    Message('pitchwheel', channel=5, pitch=256, time=80),
    Message('pitchwheel', channel=5, pitch=0, time=80),
    Message('pitchwheel', channel=5, pitch=256, time=80),
    Message('pitchwheel', channel=5, pitch=0, time=80),
    Message('pitchwheel', channel=5, pitch=256, time=80),
    Message('pitchwheel', channel=5, pitch=0, time=80),
    Message('pitchwheel', channel=5, pitch=256, time=80),
    Message('pitchwheel', channel=5, pitch=0, time=80),
    Message('pitchwheel', channel=5, pitch=256, time=80),
    Message('pitchwheel', channel=5, pitch=0, time=80),
    Message('pitchwheel', channel=5, pitch=256, time=80),
    Message('pitchwheel', channel=5, pitch=0, time=80),
    Message('pitchwheel', channel=5, pitch=256, time=80),
    Message('pitchwheel', channel=5, pitch=0, time=80),
    Message('pitchwheel', channel=5, pitch=256, time=80),
    Message('pitchwheel', channel=5, pitch=0, time=80),
    Message('note_off', channel=5, note=70, velocity=80, time=80),
    Message('pitchwheel', channel=5, pitch=256, time=0),
    Message('pitchwheel', channel=5, pitch=0, time=0),
    Message('note_on', channel=5, note=67, velocity=95, time=0),
    Message('pitchwheel', channel=5, pitch=640, time=384),
    Message('note_off', channel=5, note=67, velocity=80, time=96),
    Message('pitchwheel', channel=5, pitch=0, time=0),
    Message('note_on', channel=5, note=68, velocity=86, time=0),
    Message('pitchwheel', channel=5, pitch=0, time=80),
    Message('pitchwheel', channel=5, pitch=256, time=80),
    Message('pitchwheel', channel=5, pitch=0, time=80),
    Message('pitchwheel', channel=5, pitch=256, time=80),
    Message('pitchwheel', channel=5, pitch=0, time=80),
    Message('pitchwheel', channel=5, pitch=256, time=80),
    Message('pitchwheel', channel=5, pitch=0, time=80),
    Message('pitchwheel', channel=5, pitch=256, time=80),
    Message('pitchwheel', channel=5, pitch=0, time=80),
    Message('pitchwheel', channel=5, pitch=256, time=80),
    Message('pitchwheel', channel=5, pitch=0, time=80),
    Message('note_off', channel=5, note=68, velocity=80, time=80),
    Message('pitchwheel', channel=5, pitch=256, time=0),
    Message('pitchwheel', channel=5, pitch=0, time=0),
    Message('note_on', channel=5, note=68, velocity=95, time=0),
    Message('pitchwheel', channel=5, pitch=0, time=80),
    Message('pitchwheel', channel=5, pitch=256, time=80),
    Message('pitchwheel', channel=5, pitch=0, time=80),
    Message('pitchwheel', channel=5, pitch=256, time=80),
    Message('pitchwheel', channel=5, pitch=0, time=80),
    Message('pitchwheel', channel=5, pitch=256, time=80),
    Message('pitchwheel', channel=5, pitch=0, time=80),
    Message('pitchwheel', channel=5, pitch=256, time=80),
    Message('pitchwheel', channel=5, pitch=0, time=80),
    Message('pitchwheel', channel=5, pitch=256, time=80),
    Message('pitchwheel', channel=5, pitch=0, time=80),
    Message('pitchwheel', channel=5, pitch=256, time=80),
    Message('pitchwheel', channel=5, pitch=0, time=80),
    Message('pitchwheel', channel=5, pitch=256, time=80),
    Message('pitchwheel', channel=5, pitch=0, time=80),
    Message('pitchwheel', channel=5, pitch=256, time=80),
    Message('pitchwheel', channel=5, pitch=0, time=80),
    Message('note_off', channel=5, note=68, velocity=80, time=80),
    Message('pitchwheel', channel=5, pitch=256, time=0),
    Message('pitchwheel', channel=5, pitch=0, time=0),
    Message('note_on', channel=5, note=65, velocity=95, time=0),
    Message('pitchwheel', channel=5, pitch=0, time=80),
    Message('pitchwheel', channel=5, pitch=256, time=80),
    Message('pitchwheel', channel=5, pitch=0, time=80),
    Message('pitchwheel', channel=5, pitch=256, time=80),
    Message('pitchwheel', channel=5, pitch=0, time=80),
    Message('note_off', channel=5, note=65, velocity=80, time=80),
    Message('pitchwheel', channel=5, pitch=256, time=0),
    Message('pitchwheel', channel=5, pitch=0, time=0),
    Message('note_on', channel=5, note=65, velocity=95, time=0),
    Message('pitchwheel', channel=5, pitch=0, time=80),
    Message('pitchwheel', channel=5, pitch=256, time=80),
    Message('pitchwheel', channel=5, pitch=0, time=80),
    Message('pitchwheel', channel=5, pitch=256, time=80),
    Message('pitchwheel', channel=5, pitch=0, time=80),
    Message('note_off', channel=5, note=65, velocity=80, time=80),
    Message('pitchwheel', channel=5, pitch=256, time=0),
    Message('pitchwheel', channel=5, pitch=0, time=0),
    Message('note_on', channel=5, note=67, velocity=95, time=0),
    Message('pitchwheel', channel=5, pitch=640, time=384),
    Message('note_off', channel=5, note=67, velocity=80, time=96),
    Message('pitchwheel', channel=5, pitch=0, time=0),
    Message('note_on', channel=5, note=68, velocity=86, time=0),
    Message('pitchwheel', channel=5, pitch=0, time=80),
    Message('pitchwheel', channel=5, pitch=256, time=80),
    Message('pitchwheel', channel=5, pitch=0, time=80),
    Message('pitchwheel', channel=5, pitch=256, time=80),
    Message('pitchwheel', channel=5, pitch=0, time=80),
    Message('pitchwheel', channel=5, pitch=256, time=80),
    Message('pitchwheel', channel=5, pitch=0, time=80),
    Message('pitchwheel', channel=5, pitch=256, time=80),
    Message('pitchwheel', channel=5, pitch=0, time=80),
    Message('pitchwheel', channel=5, pitch=256, time=80),
    Message('pitchwheel', channel=5, pitch=0, time=80),
    Message('pitchwheel', channel=5, pitch=256, time=80),
    Message('pitchwheel', channel=5, pitch=0, time=80),
    Message('pitchwheel', channel=5, pitch=256, time=80),
    Message('pitchwheel', channel=5, pitch=0, time=80),
    Message('pitchwheel', channel=5, pitch=256, time=80),
    Message('pitchwheel', channel=5, pitch=0, time=80),
    Message('note_off', channel=5, note=68, velocity=80, time=80),
    Message('pitchwheel', channel=5, pitch=256, time=0),
    Message('pitchwheel', channel=5, pitch=0, time=0),
    Message('note_on', channel=5, note=72, velocity=95, time=0),
    Message('pitchwheel', channel=5, pitch=-640, time=240),
    Message('note_off', channel=5, note=72, velocity=80, time=240),
    Message('pitchwheel', channel=5, pitch=0, time=0),
    Message('note_on', channel=5, note=70, velocity=86, time=0),
    Message('pitchwheel', channel=5, pitch=0, time=80),
    Message('pitchwheel', channel=5, pitch=256, time=80),
    Message('pitchwheel', channel=5, pitch=0, time=80),
    Message('pitchwheel', channel=5, pitch=256, time=80),
    Message('pitchwheel', channel=5, pitch=0, time=80),
    Message('pitchwheel', channel=5, pitch=256, time=80),
    Message('pitchwheel', channel=5, pitch=0, time=80),
    Message('pitchwheel', channel=5, pitch=256, time=80),
    Message('pitchwheel', channel=5, pitch=0, time=80),
    Message('pitchwheel', channel=5, pitch=256, time=80),
    Message('pitchwheel', channel=5, pitch=0, time=80),
    Message('pitchwheel', channel=5, pitch=256, time=80),
    Message('pitchwheel', channel=5, pitch=0, time=80),
    Message('pitchwheel', channel=5, pitch=256, time=80),
    Message('pitchwheel', channel=5, pitch=0, time=80),
    Message('pitchwheel', channel=5, pitch=256, time=80),
    Message('pitchwheel', channel=5, pitch=0, time=80),
    Message('note_off', channel=5, note=70, velocity=80, time=80),
    Message('pitchwheel', channel=5, pitch=256, time=0),
    Message('pitchwheel', channel=5, pitch=0, time=0),
    Message('note_on', channel=5, note=67, velocity=95, time=0),
    Message('pitchwheel', channel=5, pitch=640, time=384),
    Message('note_off', channel=5, note=67, velocity=80, time=96),
    Message('pitchwheel', channel=5, pitch=0, time=0),
    Message('note_on', channel=5, note=68, velocity=86, time=0),
    Message('pitchwheel', channel=5, pitch=0, time=80),
    Message('pitchwheel', channel=5, pitch=256, time=80),
    Message('pitchwheel', channel=5, pitch=0, time=80),
    Message('pitchwheel', channel=5, pitch=256, time=80),
    Message('pitchwheel', channel=5, pitch=0, time=80),
    Message('pitchwheel', channel=5, pitch=256, time=80),
    Message('pitchwheel', channel=5, pitch=0, time=80),
    Message('pitchwheel', channel=5, pitch=256, time=80),
    Message('pitchwheel', channel=5, pitch=0, time=80),
    Message('pitchwheel', channel=5, pitch=256, time=80),
    Message('pitchwheel', channel=5, pitch=0, time=80),
    Message('note_off', channel=5, note=68, velocity=80, time=80),
    Message('pitchwheel', channel=5, pitch=256, time=0),
    Message('pitchwheel', channel=5, pitch=0, time=0),
    Message('note_on', channel=5, note=68, velocity=95, time=0),
    Message('pitchwheel', channel=5, pitch=0, time=80),
    Message('pitchwheel', channel=5, pitch=256, time=80),
    Message('pitchwheel', channel=5, pitch=0, time=80),
    Message('pitchwheel', channel=5, pitch=256, time=80),
    Message('pitchwheel', channel=5, pitch=0, time=80),
    Message('pitchwheel', channel=5, pitch=256, time=80),
    Message('pitchwheel', channel=5, pitch=0, time=80),
    Message('pitchwheel', channel=5, pitch=256, time=80),
    Message('pitchwheel', channel=5, pitch=0, time=80),
    Message('pitchwheel', channel=5, pitch=256, time=80),
    Message('pitchwheel', channel=5, pitch=0, time=80),
    Message('pitchwheel', channel=5, pitch=256, time=80),
    Message('pitchwheel', channel=5, pitch=0, time=80),
    Message('pitchwheel', channel=5, pitch=256, time=80),
    Message('pitchwheel', channel=5, pitch=0, time=80),
    Message('pitchwheel', channel=5, pitch=256, time=80),
    Message('pitchwheel', channel=5, pitch=0, time=80),
    Message('note_off', channel=5, note=68, velocity=80, time=80),
    Message('pitchwheel', channel=5, pitch=256, time=0),
    Message('pitchwheel', channel=5, pitch=0, time=0),
    Message('note_on', channel=5, note=65, velocity=95, time=0),
    Message('pitchwheel', channel=5, pitch=0, time=80),
    Message('pitchwheel', channel=5, pitch=256, time=80),
    Message('pitchwheel', channel=5, pitch=0, time=80),
    Message('pitchwheel', channel=5, pitch=256, time=80),
    Message('pitchwheel', channel=5, pitch=0, time=80),
    Message('note_off', channel=5, note=65, velocity=80, time=80),
    Message('pitchwheel', channel=5, pitch=256, time=0),
    Message('pitchwheel', channel=5, pitch=0, time=0),
    Message('note_on', channel=5, note=65, velocity=95, time=0),
    Message('pitchwheel', channel=5, pitch=0, time=80),
    Message('pitchwheel', channel=5, pitch=256, time=80),
    Message('pitchwheel', channel=5, pitch=0, time=80),
    Message('pitchwheel', channel=5, pitch=256, time=80),
    Message('pitchwheel', channel=5, pitch=0, time=80),
    Message('note_off', channel=5, note=65, velocity=80, time=80),
    Message('pitchwheel', channel=5, pitch=256, time=0),
    Message('pitchwheel', channel=5, pitch=0, time=0),
    Message('note_on', channel=5, note=67, velocity=95, time=0),
    Message('pitchwheel', channel=5, pitch=640, time=384),
    Message('note_off', channel=5, note=67, velocity=80, time=96),
    Message('pitchwheel', channel=5, pitch=0, time=0),
    Message('note_on', channel=5, note=68, velocity=86, time=0),
    Message('pitchwheel', channel=5, pitch=0, time=80),
    Message('pitchwheel', channel=5, pitch=256, time=80),
    Message('pitchwheel', channel=5, pitch=0, time=80),
    Message('pitchwheel', channel=5, pitch=256, time=80),
    Message('pitchwheel', channel=5, pitch=0, time=80),
    Message('pitchwheel', channel=5, pitch=256, time=80),
    Message('pitchwheel', channel=5, pitch=0, time=80),
    Message('pitchwheel', channel=5, pitch=256, time=80),
    Message('pitchwheel', channel=5, pitch=0, time=80),
    Message('pitchwheel', channel=5, pitch=256, time=80),
    Message('pitchwheel', channel=5, pitch=0, time=80),
    Message('pitchwheel', channel=5, pitch=256, time=80),
    Message('pitchwheel', channel=5, pitch=0, time=80),
    Message('pitchwheel', channel=5, pitch=256, time=80),
    Message('pitchwheel', channel=5, pitch=0, time=80),
    Message('pitchwheel', channel=5, pitch=256, time=80),
    Message('pitchwheel', channel=5, pitch=0, time=80),
    Message('note_off', channel=5, note=68, velocity=80, time=80),
    Message('pitchwheel', channel=5, pitch=256, time=0),
    Message('pitchwheel', channel=5, pitch=0, time=0),
    Message('note_on', channel=5, note=72, velocity=95, time=0),
    Message('pitchwheel', channel=5, pitch=-640, time=240),
    Message('note_off', channel=5, note=72, velocity=80, time=240),
    Message('pitchwheel', channel=5, pitch=0, time=0),
    Message('note_on', channel=5, note=70, velocity=86, time=0),
    Message('pitchwheel', channel=5, pitch=0, time=80),
    Message('pitchwheel', channel=5, pitch=256, time=80),
    Message('pitchwheel', channel=5, pitch=0, time=80),
    Message('pitchwheel', channel=5, pitch=256, time=80),
    Message('pitchwheel', channel=5, pitch=0, time=80),
    Message('note_off', channel=5, note=70, velocity=80, time=80),
    Message('pitchwheel', channel=5, pitch=256, time=0),
    Message('pitchwheel', channel=5, pitch=0, time=0),
    Message('note_on', channel=5, note=72, velocity=95, time=0),
    Message('pitchwheel', channel=5, pitch=0, time=80),
    Message('pitchwheel', channel=5, pitch=256, time=80),
    Message('pitchwheel', channel=5, pitch=0, time=80),
    Message('pitchwheel', channel=5, pitch=256, time=80),
    Message('pitchwheel', channel=5, pitch=0, time=80),
    Message('note_off', channel=5, note=72, velocity=80, time=80),
    Message('pitchwheel', channel=5, pitch=256, time=0),
    Message('pitchwheel', channel=5, pitch=0, time=0),
    Message('note_on', channel=5, note=72, velocity=95, time=0),
    Message('pitchwheel', channel=5, pitch=0, time=80),
    Message('pitchwheel', channel=5, pitch=256, time=80),
    Message('pitchwheel', channel=5, pitch=0, time=80),
    Message('pitchwheel', channel=5, pitch=256, time=80),
    Message('pitchwheel', channel=5, pitch=0, time=80),
    Message('note_off', channel=5, note=72, velocity=80, time=80),
    Message('pitchwheel', channel=5, pitch=256, time=0),
    Message('pitchwheel', channel=5, pitch=0, time=0),
    Message('note_on', channel=5, note=72, velocity=95, time=0),
    Message('pitchwheel', channel=5, pitch=0, time=80),
    Message('pitchwheel', channel=5, pitch=256, time=80),
    Message('pitchwheel', channel=5, pitch=0, time=80),
    Message('pitchwheel', channel=5, pitch=256, time=80),
    Message('pitchwheel', channel=5, pitch=0, time=80),
    Message('note_off', channel=5, note=72, velocity=80, time=80),
    Message('pitchwheel', channel=5, pitch=256, time=0),
    Message('pitchwheel', channel=5, pitch=0, time=0),
    Message('note_on', channel=5, note=72, velocity=95, time=0),
    Message('pitchwheel', channel=5, pitch=0, time=80),
    Message('pitchwheel', channel=5, pitch=256, time=80),
    Message('pitchwheel', channel=5, pitch=0, time=80),
    Message('pitchwheel', channel=5, pitch=256, time=80),
    Message('pitchwheel', channel=5, pitch=0, time=80),
    Message('note_off', channel=5, note=72, velocity=80, time=80),
    Message('pitchwheel', channel=5, pitch=256, time=0),
    Message('pitchwheel', channel=5, pitch=0, time=0),
    Message('note_on', channel=5, note=72, velocity=95, time=0),
    Message('pitchwheel', channel=5, pitch=0, time=80),
    Message('pitchwheel', channel=5, pitch=256, time=80),
    Message('pitchwheel', channel=5, pitch=0, time=80),
    Message('pitchwheel', channel=5, pitch=256, time=80),
    Message('pitchwheel', channel=5, pitch=0, time=80),
    Message('note_off', channel=5, note=72, velocity=80, time=80),
    Message('pitchwheel', channel=5, pitch=256, time=0),
    Message('pitchwheel', channel=5, pitch=0, time=0),
    Message('note_on', channel=5, note=72, velocity=95, time=0),
    Message('pitchwheel', channel=5, pitch=0, time=80),
    Message('pitchwheel', channel=5, pitch=256, time=80),
    Message('pitchwheel', channel=5, pitch=0, time=80),
    Message('pitchwheel', channel=5, pitch=256, time=80),
    Message('pitchwheel', channel=5, pitch=0, time=80),
    Message('note_off', channel=5, note=72, velocity=80, time=80),
    Message('pitchwheel', channel=5, pitch=256, time=0),
    Message('pitchwheel', channel=5, pitch=0, time=0),
    Message('note_on', channel=5, note=72, velocity=95, time=0),
    Message('pitchwheel', channel=5, pitch=0, time=80),
    Message('pitchwheel', channel=5, pitch=256, time=80),
    Message('pitchwheel', channel=5, pitch=0, time=80),
    Message('pitchwheel', channel=5, pitch=256, time=80),
    Message('pitchwheel', channel=5, pitch=0, time=80),
    Message('note_off', channel=5, note=72, velocity=80, time=80),
    Message('pitchwheel', channel=5, pitch=256, time=0),
    Message('pitchwheel', channel=5, pitch=0, time=0),
    Message('note_on', channel=5, note=72, velocity=95, time=0),
    Message('pitchwheel', channel=5, pitch=0, time=80),
    Message('pitchwheel', channel=5, pitch=256, time=80),
    Message('pitchwheel', channel=5, pitch=0, time=80),
    Message('pitchwheel', channel=5, pitch=256, time=80),
    Message('pitchwheel', channel=5, pitch=0, time=80),
    Message('note_off', channel=5, note=72, velocity=80, time=80),
    Message('pitchwheel', channel=5, pitch=256, time=0),
    Message('pitchwheel', channel=5, pitch=0, time=0),
    Message('note_on', channel=5, note=72, velocity=95, time=0),
    Message('pitchwheel', channel=5, pitch=0, time=80),
    Message('pitchwheel', channel=5, pitch=256, time=80),
    Message('pitchwheel', channel=5, pitch=0, time=80),
    Message('pitchwheel', channel=5, pitch=256, time=80),
    Message('pitchwheel', channel=5, pitch=0, time=80),
    Message('note_off', channel=5, note=72, velocity=80, time=80),
    Message('pitchwheel', channel=5, pitch=256, time=0),
    Message('pitchwheel', channel=5, pitch=0, time=0),
    Message('note_on', channel=5, note=72, velocity=95, time=0),
    Message('pitchwheel', channel=5, pitch=0, time=80),
    Message('pitchwheel', channel=5, pitch=256, time=80),
    Message('pitchwheel', channel=5, pitch=0, time=80),
    Message('pitchwheel', channel=5, pitch=256, time=80),
    Message('pitchwheel', channel=5, pitch=0, time=80),
    Message('note_off', channel=5, note=72, velocity=80, time=80),
    Message('pitchwheel', channel=5, pitch=256, time=0),
    Message('pitchwheel', channel=5, pitch=0, time=0),
    Message('note_on', channel=5, note=72, velocity=95, time=0),
    Message('pitchwheel', channel=5, pitch=0, time=80),
    Message('pitchwheel', channel=5, pitch=256, time=80),
    Message('pitchwheel', channel=5, pitch=0, time=80),
    Message('pitchwheel', channel=5, pitch=256, time=80),
    Message('pitchwheel', channel=5, pitch=0, time=80),
    Message('note_off', channel=5, note=72, velocity=80, time=80),
    Message('pitchwheel', channel=5, pitch=256, time=0),
    Message('pitchwheel', channel=5, pitch=0, time=0),
    Message('note_on', channel=5, note=72, velocity=95, time=0),
    Message('pitchwheel', channel=5, pitch=0, time=80),
    Message('pitchwheel', channel=5, pitch=256, time=80),
    Message('pitchwheel', channel=5, pitch=0, time=80),
    Message('pitchwheel', channel=5, pitch=256, time=80),
    Message('pitchwheel', channel=5, pitch=0, time=80),
    Message('note_off', channel=5, note=72, velocity=80, time=80),
    Message('pitchwheel', channel=5, pitch=256, time=0),
    Message('pitchwheel', channel=5, pitch=0, time=0),
    Message('note_on', channel=5, note=72, velocity=95, time=0),
    Message('pitchwheel', channel=5, pitch=0, time=80),
    Message('pitchwheel', channel=5, pitch=256, time=80),
    Message('pitchwheel', channel=5, pitch=0, time=80),
    Message('pitchwheel', channel=5, pitch=256, time=80),
    Message('pitchwheel', channel=5, pitch=0, time=80),
    Message('note_off', channel=5, note=72, velocity=80, time=80),
    Message('pitchwheel', channel=5, pitch=256, time=0),
    Message('pitchwheel', channel=5, pitch=0, time=0),
    Message('control_change', channel=4, control=7, value=80, time=32160),
    Message('control_change', channel=5, control=7, value=80, time=0),
    Message('control_change', channel=4, control=93, value=127, time=0),
    Message('control_change', channel=5, control=93, value=127, time=0),
    Message('control_change', channel=4, control=91, value=127, time=0),
    Message('control_change', channel=5, control=91, value=127, time=0),
    Message('control_change', channel=4, control=95, value=127, time=0),
    Message('control_change', channel=5, control=95, value=127, time=0),
    Message('note_on', channel=4, note=65, velocity=63, time=0),
    Message('note_on', channel=5, note=61, velocity=95, time=0),
    Message('note_on', channel=5, note=49, velocity=95, time=0),
    Message('pitchwheel', channel=5, pitch=-640, time=480),
    Message('pitchwheel', channel=5, pitch=-640, time=0),
    Message('pitchwheel', channel=5, pitch=-1408, time=48),
    Message('pitchwheel', channel=5, pitch=-2048, time=48),
    Message('pitchwheel', channel=5, pitch=-2688, time=48),
    Message('pitchwheel', channel=5, pitch=-1408, time=16),
    Message('pitchwheel', channel=5, pitch=-3456, time=32),
    Message('pitchwheel', channel=5, pitch=-4096, time=48),
    Message('pitchwheel', channel=5, pitch=-4736, time=48),
    Message('pitchwheel', channel=5, pitch=-2048, time=32),
    Message('pitchwheel', channel=5, pitch=-5504, time=16),
    Message('pitchwheel', channel=5, pitch=-6144, time=48),
    Message('pitchwheel', channel=5, pitch=-6784, time=48),
    Message('note_off', channel=4, note=65, velocity=80, time=48),
    Message('note_off', channel=5, note=61, velocity=80, time=0),
    Message('pitchwheel', channel=5, pitch=0, time=0),
    Message('note_off', channel=5, note=49, velocity=80, time=0),
    Message('pitchwheel', channel=5, pitch=0, time=0),
    Message('note_on', channel=5, note=67, velocity=95, time=0),
    Message('pitchwheel', channel=5, pitch=640, time=384),
    Message('note_off', channel=5, note=67, velocity=80, time=96),
    Message('pitchwheel', channel=5, pitch=0, time=0),
    Message('note_on', channel=4, note=68, velocity=86, time=0),
    Message('note_off', channel=4, note=68, velocity=80, time=1440),
    Message('note_on', channel=5, note=72, velocity=95, time=0),
    Message('pitchwheel', channel=5, pitch=-640, time=240),
    Message('note_off', channel=5, note=72, velocity=80, time=240),
    Message('pitchwheel', channel=5, pitch=0, time=0),
    Message('note_on', channel=4, note=70, velocity=86, time=0),
    Message('note_off', channel=4, note=70, velocity=80, time=1440),
    Message('note_on', channel=5, note=67, velocity=95, time=0),
    Message('pitchwheel', channel=5, pitch=640, time=384),
    Message('note_off', channel=5, note=67, velocity=80, time=96),
    Message('pitchwheel', channel=5, pitch=0, time=0),
    Message('note_on', channel=4, note=68, velocity=86, time=0),
    Message('note_off', channel=4, note=68, velocity=80, time=2400),
    Message('control_change', channel=4, control=93, value=127, time=0),
    Message('control_change', channel=5, control=93, value=127, time=0),
    Message('control_change', channel=4, control=91, value=127, time=0),
    Message('control_change', channel=5, control=91, value=127, time=0),
    Message('control_change', channel=4, control=95, value=127, time=0),
    Message('control_change', channel=5, control=95, value=127, time=0),
    Message('note_on', channel=4, note=65, velocity=63, time=0),
    Message('note_off', channel=4, note=65, velocity=80, time=960),
    Message('note_on', channel=5, note=67, velocity=95, time=0),
    Message('pitchwheel', channel=5, pitch=640, time=384),
    Message('note_off', channel=5, note=67, velocity=80, time=96),
    Message('pitchwheel', channel=5, pitch=0, time=0),
    Message('note_on', channel=4, note=68, velocity=86, time=0),
    Message('note_off', channel=4, note=68, velocity=80, time=1440),
    Message('note_on', channel=5, note=72, velocity=95, time=0),
    Message('pitchwheel', channel=5, pitch=-640, time=240),
    Message('note_off', channel=5, note=72, velocity=80, time=240),
    Message('pitchwheel', channel=5, pitch=0, time=0),
    Message('note_on', channel=4, note=70, velocity=86, time=0),
    Message('note_off', channel=4, note=70, velocity=80, time=480),
    Message('note_on', channel=4, note=72, velocity=95, time=0),
    Message('note_off', channel=4, note=72, velocity=80, time=480),
    Message('note_on', channel=4, note=72, velocity=95, time=0),
    Message('note_off', channel=4, note=72, velocity=80, time=480),
    Message('note_on', channel=4, note=72, velocity=95, time=0),
    Message('note_off', channel=4, note=72, velocity=80, time=480),
    Message('note_on', channel=4, note=72, velocity=95, time=0),
    Message('note_off', channel=4, note=72, velocity=80, time=480),
    Message('note_on', channel=4, note=72, velocity=95, time=0),
    Message('note_off', channel=4, note=72, velocity=80, time=480),
    Message('note_on', channel=4, note=72, velocity=95, time=0),
    Message('note_off', channel=4, note=72, velocity=80, time=480),
    Message('note_on', channel=4, note=72, velocity=95, time=0),
    Message('note_off', channel=4, note=72, velocity=80, time=480),
    Message('note_on', channel=4, note=72, velocity=95, time=0),
    Message('note_off', channel=4, note=72, velocity=80, time=480),
    Message('note_on', channel=4, note=72, velocity=95, time=0),
    Message('note_off', channel=4, note=72, velocity=80, time=480),
    Message('note_on', channel=4, note=72, velocity=95, time=0),
    Message('note_off', channel=4, note=72, velocity=80, time=480),
    Message('note_on', channel=4, note=72, velocity=95, time=0),
    Message('note_off', channel=4, note=72, velocity=80, time=480),
    Message('note_on', channel=4, note=72, velocity=95, time=0),
    Message('note_off', channel=4, note=72, velocity=80, time=480),
    Message('note_on', channel=4, note=72, velocity=95, time=0),
    Message('note_off', channel=4, note=72, velocity=80, time=480),
    Message('note_on', channel=4, note=72, velocity=95, time=0),
    Message('note_off', channel=4, note=72, velocity=80, time=480),
    Message('note_on', channel=4, note=72, velocity=95, time=0),
    Message('note_off', channel=4, note=72, velocity=80, time=480),
    Message('note_on', channel=4, note=72, velocity=95, time=0),
    Message('note_off', channel=4, note=72, velocity=80, time=480),
    MetaMessage('end_of_track', time=0)]),
  MidiTrack([
    MetaMessage('track_name', name='Piano', time=0),
    Message('control_change', channel=6, control=100, value=0, time=0),
    Message('control_change', channel=6, control=101, value=0, time=0),
    Message('control_change', channel=6, control=6, value=12, time=0),
    Message('pitchwheel', channel=6, pitch=0, time=0),
    Message('control_change', channel=7, control=100, value=0, time=0),
    Message('control_change', channel=7, control=101, value=0, time=0),
    Message('control_change', channel=7, control=6, value=12, time=0),
    Message('pitchwheel', channel=7, pitch=0, time=0),
    Message('program_change', channel=6, program=2, time=0),
    Message('program_change', channel=7, program=2, time=0),
    Message('control_change', channel=6, control=7, value=72, time=0),
    Message('control_change', channel=7, control=7, value=72, time=0),
    Message('control_change', channel=6, control=10, value=64, time=0),
    Message('control_change', channel=7, control=10, value=64, time=0),
    Message('control_change', channel=6, control=93, value=0, time=0),
    Message('control_change', channel=7, control=93, value=0, time=0),
    Message('control_change', channel=6, control=91, value=0, time=0),
    Message('control_change', channel=7, control=91, value=0, time=0),
    Message('control_change', channel=6, control=92, value=0, time=0),
    Message('control_change', channel=7, control=92, value=0, time=0),
    Message('control_change', channel=6, control=95, value=0, time=0),
    Message('control_change', channel=7, control=95, value=0, time=0),
    Message('note_on', channel=6, note=53, velocity=95, time=23040),
    Message('note_on', channel=6, note=48, velocity=95, time=0),
    Message('note_on', channel=6, note=41, velocity=95, time=0),
    Message('note_off', channel=6, note=53, velocity=80, time=960),
    Message('note_off', channel=6, note=48, velocity=80, time=0),
    Message('note_off', channel=6, note=41, velocity=80, time=0),
    Message('note_on', channel=6, note=53, velocity=95, time=0),
    Message('note_on', channel=6, note=48, velocity=95, time=0),
    Message('note_on', channel=6, note=41, velocity=95, time=0),
    Message('note_off', channel=6, note=53, velocity=80, time=960),
    Message('note_off', channel=6, note=48, velocity=80, time=0),
    Message('note_off', channel=6, note=41, velocity=80, time=0),
    Message('note_on', channel=6, note=56, velocity=95, time=0),
    Message('note_on', channel=6, note=51, velocity=95, time=0),
    Message('note_on', channel=6, note=44, velocity=95, time=0),
    Message('note_off', channel=6, note=56, velocity=80, time=960),
    Message('note_off', channel=6, note=51, velocity=80, time=0),
    Message('note_off', channel=6, note=44, velocity=80, time=0),
    Message('note_on', channel=6, note=56, velocity=95, time=0),
    Message('note_on', channel=6, note=51, velocity=95, time=0),
    Message('note_on', channel=6, note=44, velocity=95, time=0),
    Message('note_off', channel=6, note=56, velocity=80, time=960),
    Message('note_off', channel=6, note=51, velocity=80, time=0),
    Message('note_off', channel=6, note=44, velocity=80, time=0),
    Message('note_on', channel=6, note=63, velocity=95, time=0),
    Message('note_on', channel=6, note=58, velocity=95, time=0),
    Message('note_on', channel=6, note=51, velocity=95, time=0),
    Message('note_off', channel=6, note=63, velocity=80, time=960),
    Message('note_off', channel=6, note=58, velocity=80, time=0),
    Message('note_off', channel=6, note=51, velocity=80, time=0),
    Message('note_on', channel=6, note=63, velocity=95, time=0),
    Message('note_on', channel=6, note=58, velocity=95, time=0),
    Message('note_on', channel=6, note=51, velocity=95, time=0),
    Message('note_off', channel=6, note=63, velocity=80, time=960),
    Message('note_off', channel=6, note=58, velocity=80, time=0),
    Message('note_off', channel=6, note=51, velocity=80, time=0),
    Message('note_on', channel=6, note=58, velocity=95, time=0),
    Message('note_on', channel=6, note=53, velocity=95, time=0),
    Message('note_on', channel=6, note=46, velocity=95, time=0),
    Message('note_off', channel=6, note=58, velocity=80, time=960),
    Message('note_off', channel=6, note=53, velocity=80, time=0),
    Message('note_off', channel=6, note=46, velocity=80, time=0),
    Message('note_on', channel=6, note=58, velocity=95, time=0),
    Message('note_on', channel=6, note=53, velocity=95, time=0),
    Message('note_on', channel=6, note=46, velocity=95, time=0),
    Message('note_off', channel=6, note=58, velocity=80, time=960),
    Message('note_off', channel=6, note=53, velocity=80, time=0),
    Message('note_off', channel=6, note=46, velocity=80, time=0),
    Message('note_on', channel=6, note=53, velocity=95, time=0),
    Message('note_on', channel=6, note=48, velocity=95, time=0),
    Message('note_on', channel=6, note=41, velocity=95, time=0),
    Message('note_off', channel=6, note=53, velocity=80, time=960),
    Message('note_off', channel=6, note=48, velocity=80, time=0),
    Message('note_off', channel=6, note=41, velocity=80, time=0),
    Message('note_on', channel=6, note=53, velocity=95, time=0),
    Message('note_on', channel=6, note=48, velocity=95, time=0),
    Message('note_on', channel=6, note=41, velocity=95, time=0),
    Message('note_off', channel=6, note=53, velocity=80, time=960),
    Message('note_off', channel=6, note=48, velocity=80, time=0),
    Message('note_off', channel=6, note=41, velocity=80, time=0),
    Message('note_on', channel=6, note=56, velocity=95, time=0),
    Message('note_on', channel=6, note=51, velocity=95, time=0),
    Message('note_on', channel=6, note=44, velocity=95, time=0),
    Message('note_off', channel=6, note=56, velocity=80, time=960),
    Message('note_off', channel=6, note=51, velocity=80, time=0),
    Message('note_off', channel=6, note=44, velocity=80, time=0),
    Message('note_on', channel=6, note=56, velocity=95, time=0),
    Message('note_on', channel=6, note=51, velocity=95, time=0),
    Message('note_on', channel=6, note=44, velocity=95, time=0),
    Message('note_off', channel=6, note=56, velocity=80, time=960),
    Message('note_off', channel=6, note=51, velocity=80, time=0),
    Message('note_off', channel=6, note=44, velocity=80, time=0),
    Message('note_on', channel=6, note=63, velocity=95, time=0),
    Message('note_on', channel=6, note=58, velocity=95, time=0),
    Message('note_on', channel=6, note=51, velocity=95, time=0),
    Message('note_off', channel=6, note=63, velocity=80, time=960),
    Message('note_off', channel=6, note=58, velocity=80, time=0),
    Message('note_off', channel=6, note=51, velocity=80, time=0),
    Message('note_on', channel=6, note=63, velocity=95, time=0),
    Message('note_on', channel=6, note=58, velocity=95, time=0),
    Message('note_on', channel=6, note=51, velocity=95, time=0),
    Message('note_off', channel=6, note=63, velocity=80, time=960),
    Message('note_off', channel=6, note=58, velocity=80, time=0),
    Message('note_off', channel=6, note=51, velocity=80, time=0),
    Message('note_on', channel=6, note=58, velocity=95, time=0),
    Message('note_on', channel=6, note=53, velocity=95, time=0),
    Message('note_on', channel=6, note=46, velocity=95, time=0),
    Message('note_off', channel=6, note=58, velocity=80, time=960),
    Message('note_off', channel=6, note=53, velocity=80, time=0),
    Message('note_off', channel=6, note=46, velocity=80, time=0),
    Message('note_on', channel=6, note=58, velocity=95, time=0),
    Message('note_on', channel=6, note=53, velocity=95, time=0),
    Message('note_on', channel=6, note=46, velocity=95, time=0),
    Message('note_off', channel=6, note=58, velocity=80, time=960),
    Message('note_off', channel=6, note=53, velocity=80, time=0),
    Message('note_off', channel=6, note=46, velocity=80, time=0),
    Message('note_on', channel=6, note=53, velocity=95, time=0),
    Message('note_on', channel=6, note=48, velocity=95, time=0),
    Message('note_on', channel=6, note=41, velocity=95, time=0),
    Message('note_off', channel=6, note=53, velocity=80, time=960),
    Message('note_off', channel=6, note=48, velocity=80, time=0),
    Message('note_off', channel=6, note=41, velocity=80, time=0),
    Message('note_on', channel=6, note=53, velocity=95, time=0),
    Message('note_on', channel=6, note=48, velocity=95, time=0),
    Message('note_on', channel=6, note=41, velocity=95, time=0),
    Message('note_off', channel=6, note=53, velocity=80, time=960),
    Message('note_off', channel=6, note=48, velocity=80, time=0),
    Message('note_off', channel=6, note=41, velocity=80, time=0),
    Message('note_on', channel=6, note=56, velocity=95, time=0),
    Message('note_on', channel=6, note=51, velocity=95, time=0),
    Message('note_on', channel=6, note=44, velocity=95, time=0),
    Message('note_off', channel=6, note=56, velocity=80, time=960),
    Message('note_off', channel=6, note=51, velocity=80, time=0),
    Message('note_off', channel=6, note=44, velocity=80, time=0),
    Message('note_on', channel=6, note=56, velocity=95, time=0),
    Message('note_on', channel=6, note=51, velocity=95, time=0),
    Message('note_on', channel=6, note=44, velocity=95, time=0),
    Message('note_off', channel=6, note=56, velocity=80, time=960),
    Message('note_off', channel=6, note=51, velocity=80, time=0),
    Message('note_off', channel=6, note=44, velocity=80, time=0),
    Message('note_on', channel=6, note=63, velocity=95, time=0),
    Message('note_on', channel=6, note=58, velocity=95, time=0),
    Message('note_on', channel=6, note=51, velocity=95, time=0),
    Message('note_off', channel=6, note=63, velocity=80, time=960),
    Message('note_off', channel=6, note=58, velocity=80, time=0),
    Message('note_off', channel=6, note=51, velocity=80, time=0),
    Message('note_on', channel=6, note=63, velocity=95, time=0),
    Message('note_on', channel=6, note=58, velocity=95, time=0),
    Message('note_on', channel=6, note=51, velocity=95, time=0),
    Message('note_off', channel=6, note=63, velocity=80, time=960),
    Message('note_off', channel=6, note=58, velocity=80, time=0),
    Message('note_off', channel=6, note=51, velocity=80, time=0),
    Message('note_on', channel=6, note=58, velocity=95, time=0),
    Message('note_on', channel=6, note=53, velocity=95, time=0),
    Message('note_on', channel=6, note=46, velocity=95, time=0),
    Message('note_off', channel=6, note=58, velocity=80, time=960),
    Message('note_off', channel=6, note=53, velocity=80, time=0),
    Message('note_off', channel=6, note=46, velocity=80, time=0),
    Message('note_on', channel=6, note=58, velocity=95, time=0),
    Message('note_on', channel=6, note=53, velocity=95, time=0),
    Message('note_on', channel=6, note=46, velocity=95, time=0),
    Message('note_off', channel=6, note=58, velocity=80, time=960),
    Message('note_off', channel=6, note=53, velocity=80, time=0),
    Message('note_off', channel=6, note=46, velocity=80, time=0),
    Message('note_on', channel=6, note=53, velocity=95, time=0),
    Message('note_on', channel=6, note=48, velocity=95, time=0),
    Message('note_on', channel=6, note=41, velocity=95, time=0),
    Message('note_off', channel=6, note=53, velocity=80, time=960),
    Message('note_off', channel=6, note=48, velocity=80, time=0),
    Message('note_off', channel=6, note=41, velocity=80, time=0),
    Message('note_on', channel=6, note=53, velocity=95, time=0),
    Message('note_on', channel=6, note=48, velocity=95, time=0),
    Message('note_on', channel=6, note=41, velocity=95, time=0),
    Message('note_off', channel=6, note=53, velocity=80, time=960),
    Message('note_off', channel=6, note=48, velocity=80, time=0),
    Message('note_off', channel=6, note=41, velocity=80, time=0),
    Message('note_on', channel=6, note=56, velocity=95, time=0),
    Message('note_on', channel=6, note=51, velocity=95, time=0),
    Message('note_on', channel=6, note=44, velocity=95, time=0),
    Message('note_off', channel=6, note=56, velocity=80, time=960),
    Message('note_off', channel=6, note=51, velocity=80, time=0),
    Message('note_off', channel=6, note=44, velocity=80, time=0),
    Message('note_on', channel=6, note=56, velocity=95, time=0),
    Message('note_on', channel=6, note=51, velocity=95, time=0),
    Message('note_on', channel=6, note=44, velocity=95, time=0),
    Message('note_off', channel=6, note=56, velocity=80, time=960),
    Message('note_off', channel=6, note=51, velocity=80, time=0),
    Message('note_off', channel=6, note=44, velocity=80, time=0),
    Message('note_on', channel=6, note=63, velocity=95, time=0),
    Message('note_on', channel=6, note=58, velocity=95, time=0),
    Message('note_on', channel=6, note=51, velocity=95, time=0),
    Message('note_off', channel=6, note=63, velocity=80, time=960),
    Message('note_off', channel=6, note=58, velocity=80, time=0),
    Message('note_off', channel=6, note=51, velocity=80, time=0),
    Message('note_on', channel=6, note=63, velocity=95, time=0),
    Message('note_on', channel=6, note=58, velocity=95, time=0),
    Message('note_on', channel=6, note=51, velocity=95, time=0),
    Message('note_off', channel=6, note=63, velocity=80, time=960),
    Message('note_off', channel=6, note=58, velocity=80, time=0),
    Message('note_off', channel=6, note=51, velocity=80, time=0),
    Message('note_on', channel=6, note=58, velocity=95, time=0),
    Message('note_on', channel=6, note=53, velocity=95, time=0),
    Message('note_on', channel=6, note=46, velocity=95, time=0),
    Message('note_off', channel=6, note=58, velocity=80, time=960),
    Message('note_off', channel=6, note=53, velocity=80, time=0),
    Message('note_off', channel=6, note=46, velocity=80, time=0),
    Message('note_on', channel=6, note=58, velocity=95, time=0),
    Message('note_on', channel=6, note=53, velocity=95, time=0),
    Message('note_on', channel=6, note=46, velocity=95, time=0),
    Message('note_off', channel=6, note=58, velocity=80, time=960),
    Message('note_off', channel=6, note=53, velocity=80, time=0),
    Message('note_off', channel=6, note=46, velocity=80, time=0),
    Message('note_on', channel=6, note=53, velocity=95, time=0),
    Message('note_on', channel=6, note=48, velocity=95, time=0),
    Message('note_on', channel=6, note=41, velocity=95, time=0),
    Message('note_off', channel=6, note=53, velocity=80, time=960),
    Message('note_off', channel=6, note=48, velocity=80, time=0),
    Message('note_off', channel=6, note=41, velocity=80, time=0),
    Message('note_on', channel=6, note=53, velocity=95, time=0),
    Message('note_on', channel=6, note=48, velocity=95, time=0),
    Message('note_on', channel=6, note=41, velocity=95, time=0),
    Message('note_off', channel=6, note=53, velocity=80, time=960),
    Message('note_off', channel=6, note=48, velocity=80, time=0),
    Message('note_off', channel=6, note=41, velocity=80, time=0),
    Message('note_on', channel=6, note=56, velocity=95, time=0),
    Message('note_on', channel=6, note=51, velocity=95, time=0),
    Message('note_on', channel=6, note=44, velocity=95, time=0),
    Message('note_off', channel=6, note=56, velocity=80, time=960),
    Message('note_off', channel=6, note=51, velocity=80, time=0),
    Message('note_off', channel=6, note=44, velocity=80, time=0),
    Message('note_on', channel=6, note=56, velocity=95, time=0),
    Message('note_on', channel=6, note=51, velocity=95, time=0),
    Message('note_on', channel=6, note=44, velocity=95, time=0),
    Message('note_off', channel=6, note=56, velocity=80, time=960),
    Message('note_off', channel=6, note=51, velocity=80, time=0),
    Message('note_off', channel=6, note=44, velocity=80, time=0),
    Message('note_on', channel=6, note=63, velocity=95, time=0),
    Message('note_on', channel=6, note=58, velocity=95, time=0),
    Message('note_on', channel=6, note=51, velocity=95, time=0),
    Message('note_off', channel=6, note=63, velocity=80, time=960),
    Message('note_off', channel=6, note=58, velocity=80, time=0),
    Message('note_off', channel=6, note=51, velocity=80, time=0),
    Message('note_on', channel=6, note=63, velocity=95, time=0),
    Message('note_on', channel=6, note=58, velocity=95, time=0),
    Message('note_on', channel=6, note=51, velocity=95, time=0),
    Message('note_off', channel=6, note=63, velocity=80, time=960),
    Message('note_off', channel=6, note=58, velocity=80, time=0),
    Message('note_off', channel=6, note=51, velocity=80, time=0),
    Message('note_on', channel=6, note=58, velocity=95, time=0),
    Message('note_on', channel=6, note=53, velocity=95, time=0),
    Message('note_on', channel=6, note=46, velocity=95, time=0),
    Message('note_off', channel=6, note=58, velocity=80, time=960),
    Message('note_off', channel=6, note=53, velocity=80, time=0),
    Message('note_off', channel=6, note=46, velocity=80, time=0),
    Message('note_on', channel=6, note=58, velocity=95, time=0),
    Message('note_on', channel=6, note=53, velocity=95, time=0),
    Message('note_on', channel=6, note=46, velocity=95, time=0),
    Message('note_off', channel=6, note=58, velocity=80, time=960),
    Message('note_off', channel=6, note=53, velocity=80, time=0),
    Message('note_off', channel=6, note=46, velocity=80, time=0),
    Message('note_on', channel=6, note=53, velocity=95, time=0),
    Message('note_on', channel=6, note=48, velocity=95, time=0),
    Message('note_on', channel=6, note=41, velocity=95, time=0),
    Message('note_off', channel=6, note=53, velocity=80, time=960),
    Message('note_off', channel=6, note=48, velocity=80, time=0),
    Message('note_off', channel=6, note=41, velocity=80, time=0),
    Message('note_on', channel=6, note=53, velocity=95, time=0),
    Message('note_on', channel=6, note=48, velocity=95, time=0),
    Message('note_on', channel=6, note=41, velocity=95, time=0),
    Message('note_off', channel=6, note=53, velocity=80, time=960),
    Message('note_off', channel=6, note=48, velocity=80, time=0),
    Message('note_off', channel=6, note=41, velocity=80, time=0),
    Message('note_on', channel=6, note=56, velocity=95, time=0),
    Message('note_on', channel=6, note=51, velocity=95, time=0),
    Message('note_on', channel=6, note=44, velocity=95, time=0),
    Message('note_off', channel=6, note=56, velocity=80, time=960),
    Message('note_off', channel=6, note=51, velocity=80, time=0),
    Message('note_off', channel=6, note=44, velocity=80, time=0),
    Message('note_on', channel=6, note=56, velocity=95, time=0),
    Message('note_on', channel=6, note=51, velocity=95, time=0),
    Message('note_on', channel=6, note=44, velocity=95, time=0),
    Message('note_off', channel=6, note=56, velocity=80, time=960),
    Message('note_off', channel=6, note=51, velocity=80, time=0),
    Message('note_off', channel=6, note=44, velocity=80, time=0),
    Message('note_on', channel=6, note=63, velocity=95, time=0),
    Message('note_on', channel=6, note=58, velocity=95, time=0),
    Message('note_on', channel=6, note=51, velocity=95, time=0),
    Message('note_off', channel=6, note=63, velocity=80, time=960),
    Message('note_off', channel=6, note=58, velocity=80, time=0),
    Message('note_off', channel=6, note=51, velocity=80, time=0),
    Message('note_on', channel=6, note=63, velocity=95, time=0),
    Message('note_on', channel=6, note=58, velocity=95, time=0),
    Message('note_on', channel=6, note=51, velocity=95, time=0),
    Message('note_off', channel=6, note=63, velocity=80, time=960),
    Message('note_off', channel=6, note=58, velocity=80, time=0),
    Message('note_off', channel=6, note=51, velocity=80, time=0),
    Message('control_change', channel=6, control=7, value=88, time=1920),
    Message('control_change', channel=7, control=7, value=88, time=0),
    Message('note_on', channel=6, note=61, velocity=95, time=0),
    Message('note_on', channel=6, note=56, velocity=95, time=0),
    Message('note_on', channel=6, note=49, velocity=95, time=0),
    Message('note_off', channel=6, note=61, velocity=80, time=1920),
    Message('note_off', channel=6, note=56, velocity=80, time=0),
    Message('note_off', channel=6, note=49, velocity=80, time=0),
    Message('note_on', channel=6, note=56, velocity=95, time=0),
    Message('note_on', channel=6, note=51, velocity=95, time=0),
    Message('note_on', channel=6, note=44, velocity=95, time=0),
    Message('note_off', channel=6, note=56, velocity=80, time=1920),
    Message('note_off', channel=6, note=51, velocity=80, time=0),
    Message('note_off', channel=6, note=44, velocity=80, time=0),
    Message('note_on', channel=6, note=63, velocity=95, time=0),
    Message('note_on', channel=6, note=58, velocity=95, time=0),
    Message('note_on', channel=6, note=51, velocity=95, time=0),
    Message('note_off', channel=6, note=63, velocity=80, time=1920),
    Message('note_off', channel=6, note=58, velocity=80, time=0),
    Message('note_off', channel=6, note=51, velocity=80, time=0),
    Message('note_on', channel=6, note=53, velocity=95, time=0),
    Message('note_on', channel=6, note=48, velocity=95, time=0),
    Message('note_on', channel=6, note=41, velocity=95, time=0),
    Message('note_off', channel=6, note=53, velocity=80, time=1920),
    Message('note_off', channel=6, note=48, velocity=80, time=0),
    Message('note_off', channel=6, note=41, velocity=80, time=0),
    Message('note_on', channel=6, note=61, velocity=95, time=0),
    Message('note_on', channel=6, note=56, velocity=95, time=0),
    Message('note_on', channel=6, note=49, velocity=95, time=0),
    Message('note_off', channel=6, note=61, velocity=80, time=1920),
    Message('note_off', channel=6, note=56, velocity=80, time=0),
    Message('note_off', channel=6, note=49, velocity=80, time=0),
    Message('note_on', channel=6, note=56, velocity=95, time=0),
    Message('note_on', channel=6, note=51, velocity=95, time=0),
    Message('note_on', channel=6, note=44, velocity=95, time=0),
    Message('note_off', channel=6, note=56, velocity=80, time=1920),
    Message('note_off', channel=6, note=51, velocity=80, time=0),
    Message('note_off', channel=6, note=44, velocity=80, time=0),
    Message('note_on', channel=6, note=63, velocity=95, time=0),
    Message('note_on', channel=6, note=58, velocity=95, time=0),
    Message('note_on', channel=6, note=51, velocity=95, time=0),
    Message('note_off', channel=6, note=63, velocity=80, time=1920),
    Message('note_off', channel=6, note=58, velocity=80, time=0),
    Message('note_off', channel=6, note=51, velocity=80, time=0),
    Message('note_on', channel=6, note=53, velocity=95, time=0),
    Message('note_on', channel=6, note=48, velocity=95, time=0),
    Message('note_on', channel=6, note=41, velocity=95, time=0),
    Message('note_off', channel=6, note=53, velocity=80, time=1920),
    Message('note_off', channel=6, note=48, velocity=80, time=0),
    Message('note_off', channel=6, note=41, velocity=80, time=0),
    Message('note_on', channel=6, note=61, velocity=95, time=0),
    Message('note_on', channel=6, note=56, velocity=95, time=0),
    Message('note_on', channel=6, note=49, velocity=95, time=0),
    Message('note_off', channel=6, note=61, velocity=80, time=1920),
    Message('note_off', channel=6, note=56, velocity=80, time=0),
    Message('note_off', channel=6, note=49, velocity=80, time=0),
    Message('note_on', channel=6, note=56, velocity=95, time=0),
    Message('note_on', channel=6, note=51, velocity=95, time=0),
    Message('note_on', channel=6, note=44, velocity=95, time=0),
    Message('note_off', channel=6, note=56, velocity=80, time=1920),
    Message('note_off', channel=6, note=51, velocity=80, time=0),
    Message('note_off', channel=6, note=44, velocity=80, time=0),
    Message('note_on', channel=6, note=63, velocity=95, time=0),
    Message('note_on', channel=6, note=58, velocity=95, time=0),
    Message('note_on', channel=6, note=51, velocity=95, time=0),
    Message('note_off', channel=6, note=63, velocity=80, time=1920),
    Message('note_off', channel=6, note=58, velocity=80, time=0),
    Message('note_off', channel=6, note=51, velocity=80, time=0),
    Message('note_on', channel=6, note=53, velocity=95, time=0),
    Message('note_on', channel=6, note=48, velocity=95, time=0),
    Message('note_on', channel=6, note=41, velocity=95, time=0),
    Message('note_off', channel=6, note=53, velocity=80, time=1920),
    Message('note_off', channel=6, note=48, velocity=80, time=0),
    Message('note_off', channel=6, note=41, velocity=80, time=0),
    Message('note_on', channel=6, note=61, velocity=95, time=0),
    Message('note_on', channel=6, note=56, velocity=95, time=0),
    Message('note_on', channel=6, note=49, velocity=95, time=0),
    Message('note_off', channel=6, note=61, velocity=80, time=1920),
    Message('note_off', channel=6, note=56, velocity=80, time=0),
    Message('note_off', channel=6, note=49, velocity=80, time=0),
    Message('note_on', channel=6, note=56, velocity=95, time=0),
    Message('note_on', channel=6, note=51, velocity=95, time=0),
    Message('note_on', channel=6, note=44, velocity=95, time=0),
    Message('note_off', channel=6, note=56, velocity=80, time=1920),
    Message('note_off', channel=6, note=51, velocity=80, time=0),
    Message('note_off', channel=6, note=44, velocity=80, time=0),
    Message('note_on', channel=6, note=60, velocity=95, time=0),
    Message('note_on', channel=6, note=55, velocity=95, time=0),
    Message('note_on', channel=6, note=48, velocity=95, time=0),
    Message('note_off', channel=6, note=60, velocity=80, time=1920),
    Message('note_off', channel=6, note=55, velocity=80, time=0),
    Message('note_off', channel=6, note=48, velocity=80, time=0),
    Message('control_change', channel=6, control=7, value=72, time=1920),
    Message('control_change', channel=7, control=7, value=72, time=0),
    Message('note_on', channel=6, note=53, velocity=95, time=0),
    Message('note_on', channel=6, note=48, velocity=95, time=0),
    Message('note_on', channel=6, note=41, velocity=95, time=0),
    Message('note_off', channel=6, note=53, velocity=80, time=960),
    Message('note_off', channel=6, note=48, velocity=80, time=0),
    Message('note_off', channel=6, note=41, velocity=80, time=0),
    Message('note_on', channel=6, note=53, velocity=95, time=0),
    Message('note_on', channel=6, note=48, velocity=95, time=0),
    Message('note_on', channel=6, note=41, velocity=95, time=0),
    Message('note_off', channel=6, note=53, velocity=80, time=960),
    Message('note_off', channel=6, note=48, velocity=80, time=0),
    Message('note_off', channel=6, note=41, velocity=80, time=0),
    Message('note_on', channel=6, note=56, velocity=95, time=0),
    Message('note_on', channel=6, note=51, velocity=95, time=0),
    Message('note_on', channel=6, note=44, velocity=95, time=0),
    Message('note_off', channel=6, note=56, velocity=80, time=960),
    Message('note_off', channel=6, note=51, velocity=80, time=0),
    Message('note_off', channel=6, note=44, velocity=80, time=0),
    Message('note_on', channel=6, note=56, velocity=95, time=0),
    Message('note_on', channel=6, note=51, velocity=95, time=0),
    Message('note_on', channel=6, note=44, velocity=95, time=0),
    Message('note_off', channel=6, note=56, velocity=80, time=960),
    Message('note_off', channel=6, note=51, velocity=80, time=0),
    Message('note_off', channel=6, note=44, velocity=80, time=0),
    Message('note_on', channel=6, note=63, velocity=95, time=0),
    Message('note_on', channel=6, note=58, velocity=95, time=0),
    Message('note_on', channel=6, note=51, velocity=95, time=0),
    Message('note_off', channel=6, note=63, velocity=80, time=960),
    Message('note_off', channel=6, note=58, velocity=80, time=0),
    Message('note_off', channel=6, note=51, velocity=80, time=0),
    Message('note_on', channel=6, note=63, velocity=95, time=0),
    Message('note_on', channel=6, note=58, velocity=95, time=0),
    Message('note_on', channel=6, note=51, velocity=95, time=0),
    Message('note_off', channel=6, note=63, velocity=80, time=960),
    Message('note_off', channel=6, note=58, velocity=80, time=0),
    Message('note_off', channel=6, note=51, velocity=80, time=0),
    Message('note_on', channel=6, note=58, velocity=95, time=0),
    Message('note_on', channel=6, note=53, velocity=95, time=0),
    Message('note_on', channel=6, note=46, velocity=95, time=0),
    Message('note_off', channel=6, note=58, velocity=80, time=960),
    Message('note_off', channel=6, note=53, velocity=80, time=0),
    Message('note_off', channel=6, note=46, velocity=80, time=0),
    Message('note_on', channel=6, note=58, velocity=95, time=0),
    Message('note_on', channel=6, note=53, velocity=95, time=0),
    Message('note_on', channel=6, note=46, velocity=95, time=0),
    Message('note_off', channel=6, note=58, velocity=80, time=960),
    Message('note_off', channel=6, note=53, velocity=80, time=0),
    Message('note_off', channel=6, note=46, velocity=80, time=0),
    Message('note_on', channel=6, note=53, velocity=95, time=0),
    Message('note_on', channel=6, note=48, velocity=95, time=0),
    Message('note_on', channel=6, note=41, velocity=95, time=0),
    Message('note_off', channel=6, note=53, velocity=80, time=960),
    Message('note_off', channel=6, note=48, velocity=80, time=0),
    Message('note_off', channel=6, note=41, velocity=80, time=0),
    Message('note_on', channel=6, note=53, velocity=95, time=0),
    Message('note_on', channel=6, note=48, velocity=95, time=0),
    Message('note_on', channel=6, note=41, velocity=95, time=0),
    Message('note_off', channel=6, note=53, velocity=80, time=960),
    Message('note_off', channel=6, note=48, velocity=80, time=0),
    Message('note_off', channel=6, note=41, velocity=80, time=0),
    Message('note_on', channel=6, note=56, velocity=95, time=0),
    Message('note_on', channel=6, note=51, velocity=95, time=0),
    Message('note_on', channel=6, note=44, velocity=95, time=0),
    Message('note_off', channel=6, note=56, velocity=80, time=960),
    Message('note_off', channel=6, note=51, velocity=80, time=0),
    Message('note_off', channel=6, note=44, velocity=80, time=0),
    Message('note_on', channel=6, note=56, velocity=95, time=0),
    Message('note_on', channel=6, note=51, velocity=95, time=0),
    Message('note_on', channel=6, note=44, velocity=95, time=0),
    Message('note_off', channel=6, note=56, velocity=80, time=960),
    Message('note_off', channel=6, note=51, velocity=80, time=0),
    Message('note_off', channel=6, note=44, velocity=80, time=0),
    Message('note_on', channel=6, note=63, velocity=95, time=0),
    Message('note_on', channel=6, note=58, velocity=95, time=0),
    Message('note_on', channel=6, note=51, velocity=95, time=0),
    Message('note_off', channel=6, note=63, velocity=80, time=960),
    Message('note_off', channel=6, note=58, velocity=80, time=0),
    Message('note_off', channel=6, note=51, velocity=80, time=0),
    Message('note_on', channel=6, note=63, velocity=95, time=0),
    Message('note_on', channel=6, note=58, velocity=95, time=0),
    Message('note_on', channel=6, note=51, velocity=95, time=0),
    Message('note_off', channel=6, note=63, velocity=80, time=960),
    Message('note_off', channel=6, note=58, velocity=80, time=0),
    Message('note_off', channel=6, note=51, velocity=80, time=0),
    Message('note_on', channel=6, note=58, velocity=95, time=0),
    Message('note_on', channel=6, note=53, velocity=95, time=0),
    Message('note_on', channel=6, note=46, velocity=95, time=0),
    Message('control_change', channel=6, control=7, value=104, time=960),
    Message('control_change', channel=7, control=7, value=104, time=0),
    Message('note_on', channel=6, note=70, velocity=95, time=0),
    Message('note_off', channel=6, note=70, velocity=80, time=240),
    Message('note_on', channel=6, note=68, velocity=95, time=0),
    Message('note_off', channel=6, note=58, velocity=80, time=480),
    Message('note_off', channel=6, note=53, velocity=80, time=0),
    Message('note_off', channel=6, note=46, velocity=80, time=0),
    Message('note_off', channel=6, note=68, velocity=80, time=0),
    Message('note_on', channel=6, note=65, velocity=95, time=0),
    Message('note_off', channel=6, note=65, velocity=80, time=240),
    Message('control_change', channel=6, control=7, value=72, time=0),
    Message('control_change', channel=7, control=7, value=72, time=0),
    Message('note_on', channel=6, note=53, velocity=95, time=0),
    Message('note_on', channel=6, note=48, velocity=95, time=0),
    Message('note_on', channel=6, note=41, velocity=95, time=0),
    Message('note_off', channel=6, note=53, velocity=80, time=960),
    Message('note_off', channel=6, note=48, velocity=80, time=0),
    Message('note_off', channel=6, note=41, velocity=80, time=0),
    Message('note_on', channel=6, note=53, velocity=95, time=0),
    Message('note_on', channel=6, note=48, velocity=95, time=0),
    Message('note_on', channel=6, note=41, velocity=95, time=0),
    Message('note_off', channel=6, note=53, velocity=80, time=960),
    Message('note_off', channel=6, note=48, velocity=80, time=0),
    Message('note_off', channel=6, note=41, velocity=80, time=0),
    Message('note_on', channel=6, note=56, velocity=95, time=0),
    Message('note_on', channel=6, note=51, velocity=95, time=0),
    Message('note_on', channel=6, note=44, velocity=95, time=0),
    Message('note_off', channel=6, note=56, velocity=80, time=960),
    Message('note_off', channel=6, note=51, velocity=80, time=0),
    Message('note_off', channel=6, note=44, velocity=80, time=0),
    Message('note_on', channel=6, note=56, velocity=95, time=0),
    Message('note_on', channel=6, note=51, velocity=95, time=0),
    Message('note_on', channel=6, note=44, velocity=95, time=0),
    Message('note_off', channel=6, note=56, velocity=80, time=960),
    Message('note_off', channel=6, note=51, velocity=80, time=0),
    Message('note_off', channel=6, note=44, velocity=80, time=0),
    Message('note_on', channel=6, note=63, velocity=95, time=0),
    Message('note_on', channel=6, note=58, velocity=95, time=0),
    Message('note_on', channel=6, note=51, velocity=95, time=0),
    Message('note_off', channel=6, note=63, velocity=80, time=960),
    Message('note_off', channel=6, note=58, velocity=80, time=0),
    Message('note_off', channel=6, note=51, velocity=80, time=0),
    Message('note_on', channel=6, note=63, velocity=95, time=0),
    Message('note_on', channel=6, note=58, velocity=95, time=0),
    Message('note_on', channel=6, note=51, velocity=95, time=0),
    Message('note_off', channel=6, note=63, velocity=80, time=960),
    Message('note_off', channel=6, note=58, velocity=80, time=0),
    Message('note_off', channel=6, note=51, velocity=80, time=0),
    Message('note_on', channel=6, note=58, velocity=95, time=0),
    Message('note_on', channel=6, note=53, velocity=95, time=0),
    Message('note_on', channel=6, note=46, velocity=95, time=0),
    Message('note_off', channel=6, note=58, velocity=80, time=960),
    Message('note_off', channel=6, note=53, velocity=80, time=0),
    Message('note_off', channel=6, note=46, velocity=80, time=0),
    Message('note_on', channel=6, note=58, velocity=95, time=0),
    Message('note_on', channel=6, note=53, velocity=95, time=0),
    Message('note_on', channel=6, note=46, velocity=95, time=0),
    Message('note_off', channel=6, note=58, velocity=80, time=960),
    Message('note_off', channel=6, note=53, velocity=80, time=0),
    Message('note_off', channel=6, note=46, velocity=80, time=0),
    Message('note_on', channel=6, note=53, velocity=95, time=0),
    Message('note_on', channel=6, note=48, velocity=95, time=0),
    Message('note_on', channel=6, note=41, velocity=95, time=0),
    Message('note_off', channel=6, note=53, velocity=80, time=960),
    Message('note_off', channel=6, note=48, velocity=80, time=0),
    Message('note_off', channel=6, note=41, velocity=80, time=0),
    Message('note_on', channel=6, note=53, velocity=95, time=0),
    Message('note_on', channel=6, note=48, velocity=95, time=0),
    Message('note_on', channel=6, note=41, velocity=95, time=0),
    Message('note_off', channel=6, note=53, velocity=80, time=960),
    Message('note_off', channel=6, note=48, velocity=80, time=0),
    Message('note_off', channel=6, note=41, velocity=80, time=0),
    Message('note_on', channel=6, note=56, velocity=95, time=0),
    Message('note_on', channel=6, note=51, velocity=95, time=0),
    Message('note_on', channel=6, note=44, velocity=95, time=0),
    Message('note_off', channel=6, note=56, velocity=80, time=960),
    Message('note_off', channel=6, note=51, velocity=80, time=0),
    Message('note_off', channel=6, note=44, velocity=80, time=0),
    Message('note_on', channel=6, note=56, velocity=95, time=0),
    Message('note_on', channel=6, note=51, velocity=95, time=0),
    Message('note_on', channel=6, note=44, velocity=95, time=0),
    Message('note_off', channel=6, note=56, velocity=80, time=960),
    Message('note_off', channel=6, note=51, velocity=80, time=0),
    Message('note_off', channel=6, note=44, velocity=80, time=0),
    Message('note_on', channel=6, note=63, velocity=95, time=0),
    Message('note_on', channel=6, note=58, velocity=95, time=0),
    Message('note_on', channel=6, note=51, velocity=95, time=0),
    Message('note_off', channel=6, note=63, velocity=80, time=960),
    Message('note_off', channel=6, note=58, velocity=80, time=0),
    Message('note_off', channel=6, note=51, velocity=80, time=0),
    Message('note_on', channel=6, note=63, velocity=95, time=0),
    Message('note_on', channel=6, note=58, velocity=95, time=0),
    Message('note_on', channel=6, note=51, velocity=95, time=0),
    Message('note_off', channel=6, note=63, velocity=80, time=960),
    Message('note_off', channel=6, note=58, velocity=80, time=0),
    Message('note_off', channel=6, note=51, velocity=80, time=0),
    Message('note_on', channel=6, note=58, velocity=95, time=0),
    Message('note_on', channel=6, note=53, velocity=95, time=0),
    Message('note_on', channel=6, note=46, velocity=95, time=0),
    Message('note_off', channel=6, note=58, velocity=80, time=960),
    Message('note_off', channel=6, note=53, velocity=80, time=0),
    Message('note_off', channel=6, note=46, velocity=80, time=0),
    Message('note_on', channel=6, note=58, velocity=95, time=0),
    Message('note_on', channel=6, note=53, velocity=95, time=0),
    Message('note_on', channel=6, note=46, velocity=95, time=0),
    Message('note_off', channel=6, note=58, velocity=80, time=960),
    Message('note_off', channel=6, note=53, velocity=80, time=0),
    Message('note_off', channel=6, note=46, velocity=80, time=0),
    Message('note_on', channel=6, note=53, velocity=95, time=0),
    Message('note_on', channel=6, note=48, velocity=95, time=0),
    Message('note_on', channel=6, note=41, velocity=95, time=0),
    Message('note_off', channel=6, note=53, velocity=80, time=960),
    Message('note_off', channel=6, note=48, velocity=80, time=0),
    Message('note_off', channel=6, note=41, velocity=80, time=0),
    Message('note_on', channel=6, note=53, velocity=95, time=0),
    Message('note_on', channel=6, note=48, velocity=95, time=0),
    Message('note_on', channel=6, note=41, velocity=95, time=0),
    Message('note_off', channel=6, note=53, velocity=80, time=960),
    Message('note_off', channel=6, note=48, velocity=80, time=0),
    Message('note_off', channel=6, note=41, velocity=80, time=0),
    Message('note_on', channel=6, note=56, velocity=95, time=0),
    Message('note_on', channel=6, note=51, velocity=95, time=0),
    Message('note_on', channel=6, note=44, velocity=95, time=0),
    Message('note_off', channel=6, note=56, velocity=80, time=960),
    Message('note_off', channel=6, note=51, velocity=80, time=0),
    Message('note_off', channel=6, note=44, velocity=80, time=0),
    Message('note_on', channel=6, note=56, velocity=95, time=0),
    Message('note_on', channel=6, note=51, velocity=95, time=0),
    Message('note_on', channel=6, note=44, velocity=95, time=0),
    Message('note_off', channel=6, note=56, velocity=80, time=960),
    Message('note_off', channel=6, note=51, velocity=80, time=0),
    Message('note_off', channel=6, note=44, velocity=80, time=0),
    Message('note_on', channel=6, note=63, velocity=95, time=0),
    Message('note_on', channel=6, note=58, velocity=95, time=0),
    Message('note_on', channel=6, note=51, velocity=95, time=0),
    Message('note_off', channel=6, note=63, velocity=80, time=960),
    Message('note_off', channel=6, note=58, velocity=80, time=0),
    Message('note_off', channel=6, note=51, velocity=80, time=0),
    Message('note_on', channel=6, note=63, velocity=95, time=0),
    Message('note_on', channel=6, note=58, velocity=95, time=0),
    Message('note_on', channel=6, note=51, velocity=95, time=0),
    Message('note_off', channel=6, note=63, velocity=80, time=960),
    Message('note_off', channel=6, note=58, velocity=80, time=0),
    Message('note_off', channel=6, note=51, velocity=80, time=0),
    Message('note_on', channel=6, note=58, velocity=95, time=0),
    Message('note_on', channel=6, note=53, velocity=95, time=0),
    Message('note_on', channel=6, note=46, velocity=95, time=0),
    Message('note_off', channel=6, note=58, velocity=80, time=960),
    Message('note_off', channel=6, note=53, velocity=80, time=0),
    Message('note_off', channel=6, note=46, velocity=80, time=0),
    Message('note_on', channel=6, note=58, velocity=95, time=0),
    Message('note_on', channel=6, note=53, velocity=95, time=0),
    Message('note_on', channel=6, note=46, velocity=95, time=0),
    Message('note_off', channel=6, note=58, velocity=80, time=960),
    Message('note_off', channel=6, note=53, velocity=80, time=0),
    Message('note_off', channel=6, note=46, velocity=80, time=0),
    Message('note_on', channel=6, note=53, velocity=95, time=0),
    Message('note_on', channel=6, note=48, velocity=95, time=0),
    Message('note_on', channel=6, note=41, velocity=95, time=0),
    Message('note_off', channel=6, note=53, velocity=80, time=960),
    Message('note_off', channel=6, note=48, velocity=80, time=0),
    Message('note_off', channel=6, note=41, velocity=80, time=0),
    Message('note_on', channel=6, note=53, velocity=95, time=0),
    Message('note_on', channel=6, note=48, velocity=95, time=0),
    Message('note_on', channel=6, note=41, velocity=95, time=0),
    Message('note_off', channel=6, note=53, velocity=80, time=960),
    Message('note_off', channel=6, note=48, velocity=80, time=0),
    Message('note_off', channel=6, note=41, velocity=80, time=0),
    Message('note_on', channel=6, note=56, velocity=95, time=0),
    Message('note_on', channel=6, note=51, velocity=95, time=0),
    Message('note_on', channel=6, note=44, velocity=95, time=0),
    Message('note_off', channel=6, note=56, velocity=80, time=960),
    Message('note_off', channel=6, note=51, velocity=80, time=0),
    Message('note_off', channel=6, note=44, velocity=80, time=0),
    Message('note_on', channel=6, note=56, velocity=95, time=0),
    Message('note_on', channel=6, note=51, velocity=95, time=0),
    Message('note_on', channel=6, note=44, velocity=95, time=0),
    Message('note_off', channel=6, note=56, velocity=80, time=960),
    Message('note_off', channel=6, note=51, velocity=80, time=0),
    Message('note_off', channel=6, note=44, velocity=80, time=0),
    Message('note_on', channel=6, note=63, velocity=95, time=0),
    Message('note_on', channel=6, note=58, velocity=95, time=0),
    Message('note_on', channel=6, note=51, velocity=95, time=0),
    Message('note_off', channel=6, note=63, velocity=80, time=960),
    Message('note_off', channel=6, note=58, velocity=80, time=0),
    Message('note_off', channel=6, note=51, velocity=80, time=0),
    Message('note_on', channel=6, note=63, velocity=95, time=0),
    Message('note_on', channel=6, note=58, velocity=95, time=0),
    Message('note_on', channel=6, note=51, velocity=95, time=0),
    Message('note_off', channel=6, note=63, velocity=80, time=960),
    Message('note_off', channel=6, note=58, velocity=80, time=0),
    Message('note_off', channel=6, note=51, velocity=80, time=0),
    Message('note_on', channel=6, note=58, velocity=95, time=0),
    Message('note_on', channel=6, note=53, velocity=95, time=0),
    Message('note_on', channel=6, note=46, velocity=95, time=0),
    Message('note_off', channel=6, note=58, velocity=80, time=960),
    Message('note_off', channel=6, note=53, velocity=80, time=0),
    Message('note_off', channel=6, note=46, velocity=80, time=0),
    Message('note_on', channel=6, note=58, velocity=95, time=0),
    Message('note_on', channel=6, note=53, velocity=95, time=0),
    Message('note_on', channel=6, note=46, velocity=95, time=0),
    Message('note_off', channel=6, note=58, velocity=80, time=960),
    Message('note_off', channel=6, note=53, velocity=80, time=0),
    Message('note_off', channel=6, note=46, velocity=80, time=0),
    Message('note_on', channel=6, note=53, velocity=95, time=0),
    Message('note_on', channel=6, note=48, velocity=95, time=0),
    Message('note_on', channel=6, note=41, velocity=95, time=0),
    Message('note_off', channel=6, note=53, velocity=80, time=960),
    Message('note_off', channel=6, note=48, velocity=80, time=0),
    Message('note_off', channel=6, note=41, velocity=80, time=0),
    Message('note_on', channel=6, note=53, velocity=95, time=0),
    Message('note_on', channel=6, note=48, velocity=95, time=0),
    Message('note_on', channel=6, note=41, velocity=95, time=0),
    Message('note_off', channel=6, note=53, velocity=80, time=960),
    Message('note_off', channel=6, note=48, velocity=80, time=0),
    Message('note_off', channel=6, note=41, velocity=80, time=0),
    Message('note_on', channel=6, note=56, velocity=95, time=0),
    Message('note_on', channel=6, note=51, velocity=95, time=0),
    Message('note_on', channel=6, note=44, velocity=95, time=0),
    Message('note_off', channel=6, note=56, velocity=80, time=960),
    Message('note_off', channel=6, note=51, velocity=80, time=0),
    Message('note_off', channel=6, note=44, velocity=80, time=0),
    Message('note_on', channel=6, note=56, velocity=95, time=0),
    Message('note_on', channel=6, note=51, velocity=95, time=0),
    Message('note_on', channel=6, note=44, velocity=95, time=0),
    Message('note_off', channel=6, note=56, velocity=80, time=960),
    Message('note_off', channel=6, note=51, velocity=80, time=0),
    Message('note_off', channel=6, note=44, velocity=80, time=0),
    Message('note_on', channel=6, note=63, velocity=95, time=0),
    Message('note_on', channel=6, note=58, velocity=95, time=0),
    Message('note_on', channel=6, note=51, velocity=95, time=0),
    Message('note_off', channel=6, note=63, velocity=80, time=960),
    Message('note_off', channel=6, note=58, velocity=80, time=0),
    Message('note_off', channel=6, note=51, velocity=80, time=0),
    Message('note_on', channel=6, note=63, velocity=95, time=0),
    Message('note_on', channel=6, note=58, velocity=95, time=0),
    Message('note_on', channel=6, note=51, velocity=95, time=0),
    Message('note_off', channel=6, note=63, velocity=80, time=960),
    Message('note_off', channel=6, note=58, velocity=80, time=0),
    Message('note_off', channel=6, note=51, velocity=80, time=0),
    Message('note_on', channel=6, note=58, velocity=95, time=0),
    Message('note_on', channel=6, note=53, velocity=95, time=0),
    Message('note_on', channel=6, note=46, velocity=95, time=0),
    Message('note_off', channel=6, note=58, velocity=80, time=960),
    Message('note_off', channel=6, note=53, velocity=80, time=0),
    Message('note_off', channel=6, note=46, velocity=80, time=0),
    Message('note_on', channel=6, note=58, velocity=95, time=0),
    Message('note_on', channel=6, note=53, velocity=95, time=0),
    Message('note_on', channel=6, note=46, velocity=95, time=0),
    Message('note_off', channel=6, note=58, velocity=80, time=960),
    Message('note_off', channel=6, note=53, velocity=80, time=0),
    Message('note_off', channel=6, note=46, velocity=80, time=0),
    Message('note_on', channel=6, note=53, velocity=95, time=0),
    Message('note_on', channel=6, note=48, velocity=95, time=0),
    Message('note_on', channel=6, note=41, velocity=95, time=0),
    Message('note_off', channel=6, note=53, velocity=80, time=960),
    Message('note_off', channel=6, note=48, velocity=80, time=0),
    Message('note_off', channel=6, note=41, velocity=80, time=0),
    Message('note_on', channel=6, note=53, velocity=95, time=0),
    Message('note_on', channel=6, note=48, velocity=95, time=0),
    Message('note_on', channel=6, note=41, velocity=95, time=0),
    Message('note_off', channel=6, note=53, velocity=80, time=960),
    Message('note_off', channel=6, note=48, velocity=80, time=0),
    Message('note_off', channel=6, note=41, velocity=80, time=0),
    Message('note_on', channel=6, note=56, velocity=95, time=0),
    Message('note_on', channel=6, note=51, velocity=95, time=0),
    Message('note_on', channel=6, note=44, velocity=95, time=0),
    Message('note_off', channel=6, note=56, velocity=80, time=960),
    Message('note_off', channel=6, note=51, velocity=80, time=0),
    Message('note_off', channel=6, note=44, velocity=80, time=0),
    Message('note_on', channel=6, note=56, velocity=95, time=0),
    Message('note_on', channel=6, note=51, velocity=95, time=0),
    Message('note_on', channel=6, note=44, velocity=95, time=0),
    Message('note_off', channel=6, note=56, velocity=80, time=960),
    Message('note_off', channel=6, note=51, velocity=80, time=0),
    Message('note_off', channel=6, note=44, velocity=80, time=0),
    Message('note_on', channel=6, note=63, velocity=95, time=0),
    Message('note_on', channel=6, note=58, velocity=95, time=0),
    Message('note_on', channel=6, note=51, velocity=95, time=0),
    Message('note_off', channel=6, note=63, velocity=80, time=960),
    Message('note_off', channel=6, note=58, velocity=80, time=0),
    Message('note_off', channel=6, note=51, velocity=80, time=0),
    Message('note_on', channel=6, note=63, velocity=95, time=0),
    Message('note_on', channel=6, note=58, velocity=95, time=0),
    Message('note_on', channel=6, note=51, velocity=95, time=0),
    Message('note_off', channel=6, note=63, velocity=80, time=960),
    Message('note_off', channel=6, note=58, velocity=80, time=0),
    Message('note_off', channel=6, note=51, velocity=80, time=0),
    Message('note_on', channel=6, note=58, velocity=95, time=0),
    Message('note_on', channel=6, note=53, velocity=95, time=0),
    Message('note_on', channel=6, note=46, velocity=95, time=0),
    Message('note_off', channel=6, note=58, velocity=80, time=960),
    Message('note_off', channel=6, note=53, velocity=80, time=0),
    Message('note_off', channel=6, note=46, velocity=80, time=0),
    Message('note_on', channel=6, note=58, velocity=95, time=0),
    Message('note_on', channel=6, note=53, velocity=95, time=0),
    Message('note_on', channel=6, note=46, velocity=95, time=0),
    Message('note_off', channel=6, note=58, velocity=80, time=960),
    Message('note_off', channel=6, note=53, velocity=80, time=0),
    Message('note_off', channel=6, note=46, velocity=80, time=0),
    Message('note_on', channel=6, note=53, velocity=95, time=0),
    Message('note_on', channel=6, note=48, velocity=95, time=0),
    Message('note_on', channel=6, note=41, velocity=95, time=0),
    Message('note_off', channel=6, note=53, velocity=80, time=960),
    Message('note_off', channel=6, note=48, velocity=80, time=0),
    Message('note_off', channel=6, note=41, velocity=80, time=0),
    Message('note_on', channel=6, note=53, velocity=95, time=0),
    Message('note_on', channel=6, note=48, velocity=95, time=0),
    Message('note_on', channel=6, note=41, velocity=95, time=0),
    Message('note_off', channel=6, note=53, velocity=80, time=960),
    Message('note_off', channel=6, note=48, velocity=80, time=0),
    Message('note_off', channel=6, note=41, velocity=80, time=0),
    Message('note_on', channel=6, note=56, velocity=95, time=0),
    Message('note_on', channel=6, note=51, velocity=95, time=0),
    Message('note_on', channel=6, note=44, velocity=95, time=0),
    Message('note_off', channel=6, note=56, velocity=80, time=960),
    Message('note_off', channel=6, note=51, velocity=80, time=0),
    Message('note_off', channel=6, note=44, velocity=80, time=0),
    Message('note_on', channel=6, note=56, velocity=95, time=0),
    Message('note_on', channel=6, note=51, velocity=95, time=0),
    Message('note_on', channel=6, note=44, velocity=95, time=0),
    Message('note_off', channel=6, note=56, velocity=80, time=960),
    Message('note_off', channel=6, note=51, velocity=80, time=0),
    Message('note_off', channel=6, note=44, velocity=80, time=0),
    Message('note_on', channel=6, note=63, velocity=95, time=0),
    Message('note_on', channel=6, note=58, velocity=95, time=0),
    Message('note_on', channel=6, note=51, velocity=95, time=0),
    Message('note_off', channel=6, note=63, velocity=80, time=960),
    Message('note_off', channel=6, note=58, velocity=80, time=0),
    Message('note_off', channel=6, note=51, velocity=80, time=0),
    Message('note_on', channel=6, note=63, velocity=95, time=0),
    Message('note_on', channel=6, note=58, velocity=95, time=0),
    Message('note_on', channel=6, note=51, velocity=95, time=0),
    Message('note_off', channel=6, note=63, velocity=80, time=960),
    Message('note_off', channel=6, note=58, velocity=80, time=0),
    Message('note_off', channel=6, note=51, velocity=80, time=0),
    Message('control_change', channel=6, control=7, value=88, time=1920),
    Message('control_change', channel=7, control=7, value=88, time=0),
    Message('note_on', channel=6, note=61, velocity=95, time=0),
    Message('note_on', channel=6, note=56, velocity=95, time=0),
    Message('note_on', channel=6, note=49, velocity=95, time=0),
    Message('note_off', channel=6, note=61, velocity=80, time=1920),
    Message('note_off', channel=6, note=56, velocity=80, time=0),
    Message('note_off', channel=6, note=49, velocity=80, time=0),
    Message('note_on', channel=6, note=56, velocity=95, time=0),
    Message('note_on', channel=6, note=51, velocity=95, time=0),
    Message('note_on', channel=6, note=44, velocity=95, time=0),
    Message('note_off', channel=6, note=56, velocity=80, time=1920),
    Message('note_off', channel=6, note=51, velocity=80, time=0),
    Message('note_off', channel=6, note=44, velocity=80, time=0),
    Message('note_on', channel=6, note=63, velocity=95, time=0),
    Message('note_on', channel=6, note=58, velocity=95, time=0),
    Message('note_on', channel=6, note=51, velocity=95, time=0),
    Message('note_off', channel=6, note=63, velocity=80, time=1920),
    Message('note_off', channel=6, note=58, velocity=80, time=0),
    Message('note_off', channel=6, note=51, velocity=80, time=0),
    Message('note_on', channel=6, note=53, velocity=95, time=0),
    Message('note_on', channel=6, note=48, velocity=95, time=0),
    Message('note_on', channel=6, note=41, velocity=95, time=0),
    Message('note_off', channel=6, note=53, velocity=80, time=1920),
    Message('note_off', channel=6, note=48, velocity=80, time=0),
    Message('note_off', channel=6, note=41, velocity=80, time=0),
    Message('note_on', channel=6, note=61, velocity=95, time=0),
    Message('note_on', channel=6, note=56, velocity=95, time=0),
    Message('note_on', channel=6, note=49, velocity=95, time=0),
    Message('note_off', channel=6, note=61, velocity=80, time=1920),
    Message('note_off', channel=6, note=56, velocity=80, time=0),
    Message('note_off', channel=6, note=49, velocity=80, time=0),
    Message('note_on', channel=6, note=56, velocity=95, time=0),
    Message('note_on', channel=6, note=51, velocity=95, time=0),
    Message('note_on', channel=6, note=44, velocity=95, time=0),
    Message('note_off', channel=6, note=56, velocity=80, time=1920),
    Message('note_off', channel=6, note=51, velocity=80, time=0),
    Message('note_off', channel=6, note=44, velocity=80, time=0),
    Message('note_on', channel=6, note=63, velocity=95, time=0),
    Message('note_on', channel=6, note=58, velocity=95, time=0),
    Message('note_on', channel=6, note=51, velocity=95, time=0),
    Message('note_off', channel=6, note=63, velocity=80, time=1920),
    Message('note_off', channel=6, note=58, velocity=80, time=0),
    Message('note_off', channel=6, note=51, velocity=80, time=0),
    Message('note_on', channel=6, note=53, velocity=95, time=0),
    Message('note_on', channel=6, note=48, velocity=95, time=0),
    Message('note_on', channel=6, note=41, velocity=95, time=0),
    Message('note_off', channel=6, note=53, velocity=80, time=1920),
    Message('note_off', channel=6, note=48, velocity=80, time=0),
    Message('note_off', channel=6, note=41, velocity=80, time=0),
    Message('note_on', channel=6, note=61, velocity=95, time=0),
    Message('note_on', channel=6, note=56, velocity=95, time=0),
    Message('note_on', channel=6, note=49, velocity=95, time=0),
    Message('note_off', channel=6, note=61, velocity=80, time=1920),
    Message('note_off', channel=6, note=56, velocity=80, time=0),
    Message('note_off', channel=6, note=49, velocity=80, time=0),
    Message('note_on', channel=6, note=56, velocity=95, time=0),
    Message('note_on', channel=6, note=51, velocity=95, time=0),
    Message('note_on', channel=6, note=44, velocity=95, time=0),
    Message('note_off', channel=6, note=56, velocity=80, time=1920),
    Message('note_off', channel=6, note=51, velocity=80, time=0),
    Message('note_off', channel=6, note=44, velocity=80, time=0),
    Message('note_on', channel=6, note=63, velocity=95, time=0),
    Message('note_on', channel=6, note=58, velocity=95, time=0),
    Message('note_on', channel=6, note=51, velocity=95, time=0),
    Message('note_off', channel=6, note=63, velocity=80, time=1920),
    Message('note_off', channel=6, note=58, velocity=80, time=0),
    Message('note_off', channel=6, note=51, velocity=80, time=0),
    Message('note_on', channel=6, note=53, velocity=95, time=0),
    Message('note_on', channel=6, note=48, velocity=95, time=0),
    Message('note_on', channel=6, note=41, velocity=95, time=0),
    Message('note_off', channel=6, note=53, velocity=80, time=1920),
    Message('note_off', channel=6, note=48, velocity=80, time=0),
    Message('note_off', channel=6, note=41, velocity=80, time=0),
    Message('note_on', channel=6, note=61, velocity=95, time=0),
    Message('note_on', channel=6, note=56, velocity=95, time=0),
    Message('note_on', channel=6, note=49, velocity=95, time=0),
    Message('note_off', channel=6, note=61, velocity=80, time=1920),
    Message('note_off', channel=6, note=56, velocity=80, time=0),
    Message('note_off', channel=6, note=49, velocity=80, time=0),
    Message('note_on', channel=6, note=56, velocity=95, time=0),
    Message('note_on', channel=6, note=51, velocity=95, time=0),
    Message('note_on', channel=6, note=44, velocity=95, time=0),
    Message('note_off', channel=6, note=56, velocity=80, time=1920),
    Message('note_off', channel=6, note=51, velocity=80, time=0),
    Message('note_off', channel=6, note=44, velocity=80, time=0),
    Message('note_on', channel=6, note=60, velocity=95, time=0),
    Message('note_on', channel=6, note=55, velocity=95, time=0),
    Message('note_on', channel=6, note=48, velocity=95, time=0),
    Message('note_off', channel=6, note=60, velocity=80, time=1920),
    Message('note_off', channel=6, note=55, velocity=80, time=0),
    Message('note_off', channel=6, note=48, velocity=80, time=0),
    Message('control_change', channel=6, control=7, value=72, time=1920),
    Message('control_change', channel=7, control=7, value=72, time=0),
    Message('note_on', channel=6, note=53, velocity=95, time=0),
    Message('note_on', channel=6, note=48, velocity=95, time=0),
    Message('note_on', channel=6, note=41, velocity=95, time=0),
    Message('note_off', channel=6, note=53, velocity=80, time=960),
    Message('note_off', channel=6, note=48, velocity=80, time=0),
    Message('note_off', channel=6, note=41, velocity=80, time=0),
    Message('note_on', channel=6, note=53, velocity=95, time=0),
    Message('note_on', channel=6, note=48, velocity=95, time=0),
    Message('note_on', channel=6, note=41, velocity=95, time=0),
    Message('note_off', channel=6, note=53, velocity=80, time=960),
    Message('note_off', channel=6, note=48, velocity=80, time=0),
    Message('note_off', channel=6, note=41, velocity=80, time=0),
    Message('note_on', channel=6, note=56, velocity=95, time=0),
    Message('note_on', channel=6, note=51, velocity=95, time=0),
    Message('note_on', channel=6, note=44, velocity=95, time=0),
    Message('note_off', channel=6, note=56, velocity=80, time=960),
    Message('note_off', channel=6, note=51, velocity=80, time=0),
    Message('note_off', channel=6, note=44, velocity=80, time=0),
    Message('note_on', channel=6, note=56, velocity=95, time=0),
    Message('note_on', channel=6, note=51, velocity=95, time=0),
    Message('note_on', channel=6, note=44, velocity=95, time=0),
    Message('note_off', channel=6, note=56, velocity=80, time=960),
    Message('note_off', channel=6, note=51, velocity=80, time=0),
    Message('note_off', channel=6, note=44, velocity=80, time=0),
    Message('note_on', channel=6, note=63, velocity=95, time=0),
    Message('note_on', channel=6, note=58, velocity=95, time=0),
    Message('note_on', channel=6, note=51, velocity=95, time=0),
    Message('note_off', channel=6, note=63, velocity=80, time=960),
    Message('note_off', channel=6, note=58, velocity=80, time=0),
    Message('note_off', channel=6, note=51, velocity=80, time=0),
    Message('note_on', channel=6, note=63, velocity=95, time=0),
    Message('note_on', channel=6, note=58, velocity=95, time=0),
    Message('note_on', channel=6, note=51, velocity=95, time=0),
    Message('note_off', channel=6, note=63, velocity=80, time=960),
    Message('note_off', channel=6, note=58, velocity=80, time=0),
    Message('note_off', channel=6, note=51, velocity=80, time=0),
    Message('note_on', channel=6, note=58, velocity=95, time=0),
    Message('note_on', channel=6, note=53, velocity=95, time=0),
    Message('note_on', channel=6, note=46, velocity=95, time=0),
    Message('note_off', channel=6, note=58, velocity=80, time=960),
    Message('note_off', channel=6, note=53, velocity=80, time=0),
    Message('note_off', channel=6, note=46, velocity=80, time=0),
    Message('note_on', channel=6, note=58, velocity=95, time=0),
    Message('note_on', channel=6, note=53, velocity=95, time=0),
    Message('note_on', channel=6, note=46, velocity=95, time=0),
    Message('note_off', channel=6, note=58, velocity=80, time=960),
    Message('note_off', channel=6, note=53, velocity=80, time=0),
    Message('note_off', channel=6, note=46, velocity=80, time=0),
    Message('note_on', channel=6, note=53, velocity=95, time=0),
    Message('note_on', channel=6, note=48, velocity=95, time=0),
    Message('note_on', channel=6, note=41, velocity=95, time=0),
    Message('note_off', channel=6, note=53, velocity=80, time=960),
    Message('note_off', channel=6, note=48, velocity=80, time=0),
    Message('note_off', channel=6, note=41, velocity=80, time=0),
    Message('note_on', channel=6, note=53, velocity=95, time=0),
    Message('note_on', channel=6, note=48, velocity=95, time=0),
    Message('note_on', channel=6, note=41, velocity=95, time=0),
    Message('note_off', channel=6, note=53, velocity=80, time=960),
    Message('note_off', channel=6, note=48, velocity=80, time=0),
    Message('note_off', channel=6, note=41, velocity=80, time=0),
    Message('note_on', channel=6, note=56, velocity=95, time=0),
    Message('note_on', channel=6, note=51, velocity=95, time=0),
    Message('note_on', channel=6, note=44, velocity=95, time=0),
    Message('note_off', channel=6, note=56, velocity=80, time=960),
    Message('note_off', channel=6, note=51, velocity=80, time=0),
    Message('note_off', channel=6, note=44, velocity=80, time=0),
    Message('note_on', channel=6, note=56, velocity=95, time=0),
    Message('note_on', channel=6, note=51, velocity=95, time=0),
    Message('note_on', channel=6, note=44, velocity=95, time=0),
    Message('note_off', channel=6, note=56, velocity=80, time=960),
    Message('note_off', channel=6, note=51, velocity=80, time=0),
    Message('note_off', channel=6, note=44, velocity=80, time=0),
    Message('note_on', channel=6, note=63, velocity=95, time=0),
    Message('note_on', channel=6, note=58, velocity=95, time=0),
    Message('note_on', channel=6, note=51, velocity=95, time=0),
    Message('note_off', channel=6, note=63, velocity=80, time=960),
    Message('note_off', channel=6, note=58, velocity=80, time=0),
    Message('note_off', channel=6, note=51, velocity=80, time=0),
    Message('note_on', channel=6, note=63, velocity=95, time=0),
    Message('note_on', channel=6, note=58, velocity=95, time=0),
    Message('note_on', channel=6, note=51, velocity=95, time=0),
    Message('note_off', channel=6, note=63, velocity=80, time=960),
    Message('note_off', channel=6, note=58, velocity=80, time=0),
    Message('note_off', channel=6, note=51, velocity=80, time=0),
    Message('control_change', channel=6, control=7, value=88, time=1920),
    Message('control_change', channel=7, control=7, value=88, time=0),
    Message('note_on', channel=6, note=61, velocity=95, time=0),
    Message('note_on', channel=6, note=56, velocity=95, time=0),
    Message('note_on', channel=6, note=49, velocity=95, time=0),
    Message('note_off', channel=6, note=61, velocity=80, time=1920),
    Message('note_off', channel=6, note=56, velocity=80, time=0),
    Message('note_off', channel=6, note=49, velocity=80, time=0),
    Message('note_on', channel=6, note=56, velocity=95, time=0),
    Message('note_on', channel=6, note=51, velocity=95, time=0),
    Message('note_on', channel=6, note=44, velocity=95, time=0),
    Message('note_off', channel=6, note=56, velocity=80, time=1920),
    Message('note_off', channel=6, note=51, velocity=80, time=0),
    Message('note_off', channel=6, note=44, velocity=80, time=0),
    Message('note_on', channel=6, note=63, velocity=95, time=0),
    Message('note_on', channel=6, note=58, velocity=95, time=0),
    Message('note_on', channel=6, note=51, velocity=95, time=0),
    Message('note_off', channel=6, note=63, velocity=80, time=1920),
    Message('note_off', channel=6, note=58, velocity=80, time=0),
    Message('note_off', channel=6, note=51, velocity=80, time=0),
    Message('note_on', channel=6, note=53, velocity=95, time=0),
    Message('note_on', channel=6, note=48, velocity=95, time=0),
    Message('note_on', channel=6, note=41, velocity=95, time=0),
    Message('note_off', channel=6, note=53, velocity=80, time=1920),
    Message('note_off', channel=6, note=48, velocity=80, time=0),
    Message('note_off', channel=6, note=41, velocity=80, time=0),
    Message('note_on', channel=6, note=61, velocity=95, time=0),
    Message('note_on', channel=6, note=56, velocity=95, time=0),
    Message('note_on', channel=6, note=49, velocity=95, time=0),
    Message('note_off', channel=6, note=61, velocity=80, time=1920),
    Message('note_off', channel=6, note=56, velocity=80, time=0),
    Message('note_off', channel=6, note=49, velocity=80, time=0),
    Message('note_on', channel=6, note=56, velocity=95, time=0),
    Message('note_on', channel=6, note=51, velocity=95, time=0),
    Message('note_on', channel=6, note=44, velocity=95, time=0),
    Message('note_off', channel=6, note=56, velocity=80, time=1920),
    Message('note_off', channel=6, note=51, velocity=80, time=0),
    Message('note_off', channel=6, note=44, velocity=80, time=0),
    Message('note_on', channel=6, note=63, velocity=95, time=0),
    Message('note_on', channel=6, note=58, velocity=95, time=0),
    Message('note_on', channel=6, note=51, velocity=95, time=0),
    Message('note_off', channel=6, note=63, velocity=80, time=1920),
    Message('note_off', channel=6, note=58, velocity=80, time=0),
    Message('note_off', channel=6, note=51, velocity=80, time=0),
    Message('note_on', channel=6, note=53, velocity=95, time=0),
    Message('note_on', channel=6, note=48, velocity=95, time=0),
    Message('note_on', channel=6, note=41, velocity=95, time=0),
    Message('note_off', channel=6, note=53, velocity=80, time=1920),
    Message('note_off', channel=6, note=48, velocity=80, time=0),
    Message('note_off', channel=6, note=41, velocity=80, time=0),
    Message('note_on', channel=6, note=61, velocity=95, time=0),
    Message('note_on', channel=6, note=56, velocity=95, time=0),
    Message('note_on', channel=6, note=49, velocity=95, time=0),
    Message('note_off', channel=6, note=61, velocity=80, time=1920),
    Message('note_off', channel=6, note=56, velocity=80, time=0),
    Message('note_off', channel=6, note=49, velocity=80, time=0),
    Message('note_on', channel=6, note=56, velocity=95, time=0),
    Message('note_on', channel=6, note=51, velocity=95, time=0),
    Message('note_on', channel=6, note=44, velocity=95, time=0),
    Message('note_off', channel=6, note=56, velocity=80, time=1920),
    Message('note_off', channel=6, note=51, velocity=80, time=0),
    Message('note_off', channel=6, note=44, velocity=80, time=0),
    Message('note_on', channel=6, note=63, velocity=95, time=0),
    Message('note_on', channel=6, note=58, velocity=95, time=0),
    Message('note_on', channel=6, note=51, velocity=95, time=0),
    Message('note_off', channel=6, note=63, velocity=80, time=1920),
    Message('note_off', channel=6, note=58, velocity=80, time=0),
    Message('note_off', channel=6, note=51, velocity=80, time=0),
    Message('note_on', channel=6, note=53, velocity=95, time=0),
    Message('note_on', channel=6, note=48, velocity=95, time=0),
    Message('note_on', channel=6, note=41, velocity=95, time=0),
    Message('note_off', channel=6, note=53, velocity=80, time=1920),
    Message('note_off', channel=6, note=48, velocity=80, time=0),
    Message('note_off', channel=6, note=41, velocity=80, time=0),
    Message('note_on', channel=6, note=61, velocity=95, time=0),
    Message('note_on', channel=6, note=56, velocity=95, time=0),
    Message('note_on', channel=6, note=49, velocity=95, time=0),
    Message('note_off', channel=6, note=61, velocity=80, time=1920),
    Message('note_off', channel=6, note=56, velocity=80, time=0),
    Message('note_off', channel=6, note=49, velocity=80, time=0),
    Message('note_on', channel=6, note=56, velocity=95, time=0),
    Message('note_on', channel=6, note=51, velocity=95, time=0),
    Message('note_on', channel=6, note=44, velocity=95, time=0),
    Message('note_off', channel=6, note=56, velocity=80, time=1920),
    Message('note_off', channel=6, note=51, velocity=80, time=0),
    Message('note_off', channel=6, note=44, velocity=80, time=0),
    Message('note_on', channel=6, note=60, velocity=95, time=0),
    Message('note_on', channel=6, note=55, velocity=95, time=0),
    Message('note_on', channel=6, note=48, velocity=95, time=0),
    Message('note_off', channel=6, note=60, velocity=80, time=1920),
    Message('note_off', channel=6, note=55, velocity=80, time=0),
    Message('note_off', channel=6, note=48, velocity=80, time=0),
    Message('note_on', channel=6, note=60, velocity=95, time=1920),
    Message('note_on', channel=6, note=55, velocity=95, time=0),
    Message('note_on', channel=6, note=48, velocity=95, time=0),
    Message('note_off', channel=6, note=60, velocity=80, time=1920),
    Message('note_off', channel=6, note=55, velocity=80, time=0),
    Message('note_off', channel=6, note=48, velocity=80, time=0),
    Message('control_change', channel=6, control=7, value=88, time=17280),
    Message('control_change', channel=7, control=7, value=88, time=0),
    Message('note_on', channel=6, note=61, velocity=95, time=0),
    Message('note_on', channel=6, note=56, velocity=95, time=0),
    Message('note_on', channel=6, note=49, velocity=95, time=0),
    Message('note_off', channel=6, note=61, velocity=80, time=1920),
    Message('note_off', channel=6, note=56, velocity=80, time=0),
    Message('note_off', channel=6, note=49, velocity=80, time=0),
    Message('note_on', channel=6, note=56, velocity=95, time=0),
    Message('note_on', channel=6, note=51, velocity=95, time=0),
    Message('note_on', channel=6, note=44, velocity=95, time=0),
    Message('note_off', channel=6, note=56, velocity=80, time=1920),
    Message('note_off', channel=6, note=51, velocity=80, time=0),
    Message('note_off', channel=6, note=44, velocity=80, time=0),
    Message('note_on', channel=6, note=63, velocity=95, time=0),
    Message('note_on', channel=6, note=58, velocity=95, time=0),
    Message('note_on', channel=6, note=51, velocity=95, time=0),
    Message('note_off', channel=6, note=63, velocity=80, time=1920),
    Message('note_off', channel=6, note=58, velocity=80, time=0),
    Message('note_off', channel=6, note=51, velocity=80, time=0),
    Message('note_on', channel=6, note=53, velocity=95, time=0),
    Message('note_on', channel=6, note=48, velocity=95, time=0),
    Message('note_on', channel=6, note=41, velocity=95, time=0),
    Message('note_off', channel=6, note=53, velocity=80, time=1920),
    Message('note_off', channel=6, note=48, velocity=80, time=0),
    Message('note_off', channel=6, note=41, velocity=80, time=0),
    Message('control_change', channel=6, control=7, value=88, time=0),
    Message('control_change', channel=7, control=7, value=88, time=0),
    Message('note_on', channel=6, note=61, velocity=95, time=0),
    Message('note_on', channel=6, note=56, velocity=95, time=0),
    Message('note_on', channel=6, note=49, velocity=95, time=0),
    Message('note_off', channel=6, note=61, velocity=80, time=1920),
    Message('note_off', channel=6, note=56, velocity=80, time=0),
    Message('note_off', channel=6, note=49, velocity=80, time=0),
    Message('note_on', channel=6, note=56, velocity=95, time=0),
    Message('note_on', channel=6, note=51, velocity=95, time=0),
    Message('note_on', channel=6, note=44, velocity=95, time=0),
    Message('note_off', channel=6, note=56, velocity=80, time=1920),
    Message('note_off', channel=6, note=51, velocity=80, time=0),
    Message('note_off', channel=6, note=44, velocity=80, time=0),
    Message('note_on', channel=6, note=63, velocity=95, time=0),
    Message('note_on', channel=6, note=58, velocity=95, time=0),
    Message('note_on', channel=6, note=51, velocity=95, time=0),
    Message('note_off', channel=6, note=63, velocity=80, time=1920),
    Message('note_off', channel=6, note=58, velocity=80, time=0),
    Message('note_off', channel=6, note=51, velocity=80, time=0),
    Message('note_on', channel=6, note=53, velocity=95, time=0),
    Message('note_on', channel=6, note=48, velocity=95, time=0),
    Message('note_on', channel=6, note=41, velocity=95, time=0),
    Message('note_off', channel=6, note=53, velocity=80, time=1920),
    Message('note_off', channel=6, note=48, velocity=80, time=0),
    Message('note_off', channel=6, note=41, velocity=80, time=0),
    Message('control_change', channel=6, control=7, value=88, time=0),
    Message('control_change', channel=7, control=7, value=88, time=0),
    Message('note_on', channel=6, note=61, velocity=95, time=0),
    Message('note_on', channel=6, note=56, velocity=95, time=0),
    Message('note_on', channel=6, note=49, velocity=95, time=0),
    Message('note_off', channel=6, note=61, velocity=80, time=1920),
    Message('note_off', channel=6, note=56, velocity=80, time=0),
    Message('note_off', channel=6, note=49, velocity=80, time=0),
    Message('note_on', channel=6, note=56, velocity=95, time=0),
    Message('note_on', channel=6, note=51, velocity=95, time=0),
    Message('note_on', channel=6, note=44, velocity=95, time=0),
    Message('note_off', channel=6, note=56, velocity=80, time=1920),
    Message('note_off', channel=6, note=51, velocity=80, time=0),
    Message('note_off', channel=6, note=44, velocity=80, time=0),
    Message('note_on', channel=6, note=63, velocity=95, time=0),
    Message('note_on', channel=6, note=58, velocity=95, time=0),
    Message('note_on', channel=6, note=51, velocity=95, time=0),
    Message('note_off', channel=6, note=63, velocity=80, time=1920),
    Message('note_off', channel=6, note=58, velocity=80, time=0),
    Message('note_off', channel=6, note=51, velocity=80, time=0),
    Message('note_on', channel=6, note=53, velocity=95, time=0),
    Message('note_on', channel=6, note=48, velocity=95, time=0),
    Message('note_on', channel=6, note=41, velocity=95, time=0),
    Message('note_off', channel=6, note=53, velocity=80, time=1920),
    Message('note_off', channel=6, note=48, velocity=80, time=0),
    Message('note_off', channel=6, note=41, velocity=80, time=0),
    Message('control_change', channel=6, control=7, value=88, time=0),
    Message('control_change', channel=7, control=7, value=88, time=0),
    Message('note_on', channel=6, note=61, velocity=95, time=0),
    Message('note_on', channel=6, note=56, velocity=95, time=0),
    Message('note_on', channel=6, note=49, velocity=95, time=0),
    Message('note_off', channel=6, note=61, velocity=80, time=1920),
    Message('note_off', channel=6, note=56, velocity=80, time=0),
    Message('note_off', channel=6, note=49, velocity=80, time=0),
    Message('note_on', channel=6, note=56, velocity=95, time=0),
    Message('note_on', channel=6, note=51, velocity=95, time=0),
    Message('note_on', channel=6, note=44, velocity=95, time=0),
    Message('note_off', channel=6, note=56, velocity=80, time=1920),
    Message('note_off', channel=6, note=51, velocity=80, time=0),
    Message('note_off', channel=6, note=44, velocity=80, time=0),
    Message('note_on', channel=6, note=60, velocity=95, time=0),
    Message('note_on', channel=6, note=55, velocity=95, time=0),
    Message('note_on', channel=6, note=48, velocity=95, time=0),
    Message('note_off', channel=6, note=60, velocity=80, time=1920),
    Message('note_off', channel=6, note=55, velocity=80, time=0),
    Message('note_off', channel=6, note=48, velocity=80, time=0),
    Message('note_on', channel=6, note=60, velocity=95, time=0),
    Message('note_on', channel=6, note=55, velocity=95, time=0),
    Message('note_on', channel=6, note=48, velocity=95, time=0),
    Message('note_off', channel=6, note=60, velocity=80, time=1920),
    Message('note_off', channel=6, note=55, velocity=80, time=0),
    Message('note_off', channel=6, note=48, velocity=80, time=0),
    Message('note_on', channel=6, note=60, velocity=95, time=0),
    Message('note_on', channel=6, note=55, velocity=95, time=0),
    Message('note_on', channel=6, note=48, velocity=95, time=0),
    Message('note_off', channel=6, note=60, velocity=80, time=1920),
    Message('note_off', channel=6, note=55, velocity=80, time=0),
    Message('note_off', channel=6, note=48, velocity=80, time=0),
    Message('note_on', channel=6, note=60, velocity=95, time=0),
    Message('note_on', channel=6, note=55, velocity=95, time=0),
    Message('note_on', channel=6, note=48, velocity=95, time=0),
    Message('note_off', channel=6, note=60, velocity=80, time=1920),
    Message('note_off', channel=6, note=55, velocity=80, time=0),
    Message('note_off', channel=6, note=48, velocity=80, time=0),
    Message('note_on', channel=6, note=48, velocity=95, time=0),
    Message('note_on', channel=6, note=41, velocity=95, time=0),
    Message('note_off', channel=6, note=48, velocity=80, time=1920),
    Message('note_off', channel=6, note=41, velocity=80, time=0),
    Message('note_on', channel=6, note=56, velocity=95, time=0),
    Message('note_on', channel=6, note=49, velocity=95, time=0),
    Message('note_off', channel=6, note=56, velocity=80, time=1920),
    Message('note_off', channel=6, note=49, velocity=80, time=0),
    Message('note_on', channel=6, note=58, velocity=95, time=0),
    Message('note_on', channel=6, note=51, velocity=95, time=0),
    Message('note_off', channel=6, note=58, velocity=80, time=1920),
    Message('note_off', channel=6, note=51, velocity=80, time=0),
    Message('note_on', channel=6, note=57, velocity=95, time=0),
    Message('note_on', channel=6, note=50, velocity=95, time=0),
    Message('note_off', channel=6, note=57, velocity=80, time=1920),
    Message('note_off', channel=6, note=50, velocity=80, time=0),
    Message('note_on', channel=6, note=51, velocity=95, time=0),
    Message('note_on', channel=6, note=44, velocity=95, time=0),
    Message('note_off', channel=6, note=51, velocity=80, time=1920),
    Message('note_off', channel=6, note=44, velocity=80, time=0),
    Message('note_on', channel=6, note=47, velocity=95, time=0),
    Message('note_on', channel=6, note=40, velocity=95, time=0),
    Message('note_off', channel=6, note=47, velocity=80, time=1920),
    Message('note_off', channel=6, note=40, velocity=80, time=0),
    Message('note_on', channel=6, note=48, velocity=95, time=0),
    Message('note_on', channel=6, note=41, velocity=95, time=0),
    Message('note_off', channel=6, note=48, velocity=80, time=1920),
    Message('note_off', channel=6, note=41, velocity=80, time=0),
    Message('note_on', channel=6, note=56, velocity=95, time=0),
    Message('note_on', channel=6, note=49, velocity=95, time=0),
    Message('note_off', channel=6, note=56, velocity=80, time=1920),
    Message('note_off', channel=6, note=49, velocity=80, time=0),
    Message('note_on', channel=6, note=58, velocity=95, time=0),
    Message('note_on', channel=6, note=51, velocity=95, time=0),
    Message('note_off', channel=6, note=58, velocity=80, time=1920),
    Message('note_off', channel=6, note=51, velocity=80, time=0),
    Message('note_on', channel=6, note=57, velocity=95, time=0),
    Message('note_on', channel=6, note=50, velocity=95, time=0),
    Message('note_off', channel=6, note=57, velocity=80, time=1920),
    Message('note_off', channel=6, note=50, velocity=80, time=0),
    Message('note_on', channel=6, note=51, velocity=95, time=0),
    Message('note_on', channel=6, note=44, velocity=95, time=0),
    Message('note_off', channel=6, note=51, velocity=80, time=1920),
    Message('note_off', channel=6, note=44, velocity=80, time=0),
    Message('note_on', channel=6, note=47, velocity=95, time=0),
    Message('note_on', channel=6, note=40, velocity=95, time=0),
    Message('note_off', channel=6, note=47, velocity=80, time=1920),
    Message('note_off', channel=6, note=40, velocity=80, time=0),
    Message('note_on', channel=6, note=48, velocity=95, time=0),
    Message('note_on', channel=6, note=41, velocity=95, time=0),
    Message('note_off', channel=6, note=48, velocity=80, time=1920),
    Message('note_off', channel=6, note=41, velocity=80, time=0),
    Message('note_on', channel=6, note=56, velocity=95, time=0),
    Message('note_on', channel=6, note=49, velocity=95, time=0),
    Message('note_off', channel=6, note=56, velocity=80, time=1920),
    Message('note_off', channel=6, note=49, velocity=80, time=0),
    Message('note_on', channel=6, note=58, velocity=95, time=0),
    Message('note_on', channel=6, note=51, velocity=95, time=0),
    Message('note_off', channel=6, note=58, velocity=80, time=1920),
    Message('note_off', channel=6, note=51, velocity=80, time=0),
    Message('note_on', channel=6, note=57, velocity=95, time=0),
    Message('note_on', channel=6, note=50, velocity=95, time=0),
    Message('note_off', channel=6, note=57, velocity=80, time=1920),
    Message('note_off', channel=6, note=50, velocity=80, time=0),
    Message('note_on', channel=6, note=51, velocity=95, time=0),
    Message('note_on', channel=6, note=44, velocity=95, time=0),
    Message('note_off', channel=6, note=51, velocity=80, time=1920),
    Message('note_off', channel=6, note=44, velocity=80, time=0),
    Message('note_on', channel=6, note=47, velocity=95, time=0),
    Message('note_on', channel=6, note=40, velocity=95, time=0),
    Message('note_off', channel=6, note=47, velocity=80, time=1920),
    Message('note_off', channel=6, note=40, velocity=80, time=0),
    Message('note_on', channel=6, note=48, velocity=95, time=0),
    Message('note_on', channel=6, note=41, velocity=95, time=0),
    Message('note_off', channel=6, note=48, velocity=80, time=1920),
    Message('note_off', channel=6, note=41, velocity=80, time=0),
    Message('note_on', channel=6, note=56, velocity=95, time=0),
    Message('note_on', channel=6, note=49, velocity=95, time=0),
    Message('note_off', channel=6, note=56, velocity=80, time=1920),
    Message('note_off', channel=6, note=49, velocity=80, time=0),
    Message('note_on', channel=6, note=58, velocity=95, time=0),
    Message('note_on', channel=6, note=51, velocity=95, time=0),
    Message('note_off', channel=6, note=58, velocity=80, time=1920),
    Message('note_off', channel=6, note=51, velocity=80, time=0),
    Message('note_on', channel=6, note=57, velocity=95, time=0),
    Message('note_on', channel=6, note=50, velocity=95, time=0),
    Message('note_off', channel=6, note=57, velocity=80, time=1920),
    Message('note_off', channel=6, note=50, velocity=80, time=0),
    Message('note_on', channel=6, note=44, velocity=95, time=0),
    Message('note_off', channel=6, note=44, velocity=80, time=480),
    Message('note_on', channel=6, note=44, velocity=95, time=0),
    Message('note_off', channel=6, note=44, velocity=80, time=480),
    Message('note_on', channel=6, note=40, velocity=95, time=0),
    Message('note_off', channel=6, note=40, velocity=80, time=480),
    Message('note_on', channel=6, note=40, velocity=95, time=0),
    Message('note_off', channel=6, note=40, velocity=80, time=480),
    MetaMessage('end_of_track', time=0)]),
  MidiTrack([
    MetaMessage('track_name', name='Mike Dirnt (Bass)', time=0),
    Message('control_change', channel=8, control=100, value=0, time=0),
    Message('control_change', channel=8, control=101, value=0, time=0),
    Message('control_change', channel=8, control=6, value=12, time=0),
    Message('pitchwheel', channel=8, pitch=0, time=0),
    Message('control_change', channel=10, control=100, value=0, time=0),
    Message('control_change', channel=10, control=101, value=0, time=0),
    Message('control_change', channel=10, control=6, value=12, time=0),
    Message('pitchwheel', channel=10, pitch=0, time=0),
    Message('program_change', channel=8, program=33, time=0),
    Message('program_change', channel=10, program=33, time=0),
    Message('control_change', channel=8, control=7, value=120, time=0),
    Message('control_change', channel=10, control=7, value=120, time=0),
    Message('control_change', channel=8, control=10, value=64, time=0),
    Message('control_change', channel=10, control=10, value=64, time=0),
    Message('control_change', channel=8, control=93, value=0, time=0),
    Message('control_change', channel=10, control=93, value=0, time=0),
    Message('control_change', channel=8, control=91, value=0, time=0),
    Message('control_change', channel=10, control=91, value=0, time=0),
    Message('control_change', channel=8, control=92, value=0, time=0),
    Message('control_change', channel=10, control=92, value=0, time=0),
    Message('control_change', channel=8, control=95, value=0, time=0),
    Message('control_change', channel=10, control=95, value=0, time=0),
    Message('note_on', channel=8, note=29, velocity=95, time=0),
    Message('note_off', channel=8, note=29, velocity=80, time=15360),
    Message('note_on', channel=8, note=29, velocity=95, time=7680),
    Message('note_off', channel=8, note=29, velocity=80, time=960),
    Message('note_on', channel=8, note=29, velocity=95, time=0),
    Message('note_off', channel=8, note=29, velocity=80, time=480),
    Message('note_on', channel=8, note=29, velocity=95, time=0),
    Message('note_off', channel=8, note=29, velocity=80, time=480),
    Message('note_on', channel=8, note=32, velocity=95, time=0),
    Message('note_off', channel=8, note=32, velocity=80, time=480),
    Message('note_on', channel=8, note=32, velocity=95, time=0),
    Message('note_off', channel=8, note=32, velocity=80, time=480),
    Message('note_on', channel=8, note=32, velocity=95, time=0),
    Message('note_off', channel=8, note=32, velocity=80, time=480),
    Message('note_on', channel=8, note=32, velocity=95, time=0),
    Message('note_off', channel=8, note=32, velocity=80, time=480),
    Message('note_on', channel=8, note=39, velocity=95, time=0),
    Message('note_off', channel=8, note=39, velocity=80, time=960),
    Message('note_on', channel=8, note=39, velocity=95, time=0),
    Message('note_off', channel=8, note=39, velocity=80, time=480),
    Message('note_on', channel=8, note=39, velocity=95, time=0),
    Message('note_off', channel=8, note=39, velocity=80, time=480),
    Message('note_on', channel=8, note=34, velocity=95, time=0),
    Message('note_off', channel=8, note=34, velocity=80, time=480),
    Message('note_on', channel=8, note=34, velocity=95, time=0),
    Message('note_off', channel=8, note=34, velocity=80, time=480),
    Message('note_on', channel=8, note=34, velocity=95, time=0),
    Message('note_off', channel=8, note=34, velocity=80, time=480),
    Message('note_on', channel=8, note=32, velocity=95, time=0),
    Message('note_off', channel=8, note=32, velocity=80, time=480),
    Message('note_on', channel=8, note=29, velocity=95, time=0),
    Message('note_off', channel=8, note=29, velocity=80, time=960),
    Message('note_on', channel=8, note=29, velocity=95, time=0),
    Message('note_off', channel=8, note=29, velocity=80, time=480),
    Message('note_on', channel=8, note=29, velocity=95, time=0),
    Message('note_off', channel=8, note=29, velocity=80, time=480),
    Message('note_on', channel=8, note=32, velocity=95, time=0),
    Message('note_off', channel=8, note=32, velocity=80, time=480),
    Message('note_on', channel=8, note=32, velocity=95, time=0),
    Message('note_off', channel=8, note=32, velocity=80, time=480),
    Message('note_on', channel=8, note=32, velocity=95, time=0),
    Message('note_off', channel=8, note=32, velocity=80, time=480),
    Message('note_on', channel=8, note=32, velocity=95, time=0),
    Message('note_off', channel=8, note=32, velocity=80, time=480),
    Message('note_on', channel=8, note=39, velocity=95, time=0),
    Message('note_off', channel=8, note=39, velocity=80, time=960),
    Message('note_on', channel=8, note=39, velocity=95, time=0),
    Message('note_off', channel=8, note=39, velocity=80, time=480),
    Message('note_on', channel=8, note=39, velocity=95, time=0),
    Message('note_off', channel=8, note=39, velocity=80, time=480),
    Message('note_on', channel=8, note=34, velocity=95, time=0),
    Message('note_off', channel=8, note=34, velocity=80, time=480),
    Message('note_on', channel=8, note=34, velocity=95, time=0),
    Message('note_off', channel=8, note=34, velocity=80, time=480),
    Message('note_on', channel=8, note=34, velocity=95, time=0),
    Message('note_off', channel=8, note=34, velocity=80, time=480),
    Message('note_on', channel=8, note=32, velocity=95, time=0),
    Message('note_off', channel=8, note=32, velocity=80, time=480),
    Message('note_on', channel=8, note=29, velocity=95, time=0),
    Message('note_off', channel=8, note=29, velocity=80, time=960),
    Message('note_on', channel=8, note=29, velocity=95, time=0),
    Message('note_off', channel=8, note=29, velocity=80, time=480),
    Message('note_on', channel=8, note=29, velocity=95, time=0),
    Message('note_off', channel=8, note=29, velocity=80, time=480),
    Message('note_on', channel=8, note=32, velocity=95, time=0),
    Message('note_off', channel=8, note=32, velocity=80, time=480),
    Message('note_on', channel=8, note=32, velocity=95, time=0),
    Message('note_off', channel=8, note=32, velocity=80, time=480),
    Message('note_on', channel=8, note=32, velocity=95, time=0),
    Message('note_off', channel=8, note=32, velocity=80, time=480),
    Message('note_on', channel=8, note=32, velocity=95, time=0),
    Message('note_off', channel=8, note=32, velocity=80, time=480),
    Message('note_on', channel=8, note=39, velocity=95, time=0),
    Message('note_off', channel=8, note=39, velocity=80, time=960),
    Message('note_on', channel=8, note=39, velocity=95, time=0),
    Message('note_off', channel=8, note=39, velocity=80, time=480),
    Message('note_on', channel=8, note=39, velocity=95, time=0),
    Message('note_off', channel=8, note=39, velocity=80, time=480),
    Message('note_on', channel=8, note=34, velocity=95, time=0),
    Message('note_off', channel=8, note=34, velocity=80, time=480),
    Message('note_on', channel=8, note=34, velocity=95, time=0),
    Message('note_off', channel=8, note=34, velocity=80, time=480),
    Message('note_on', channel=8, note=34, velocity=95, time=0),
    Message('note_off', channel=8, note=34, velocity=80, time=480),
    Message('note_on', channel=8, note=32, velocity=95, time=0),
    Message('note_off', channel=8, note=32, velocity=80, time=480),
    Message('note_on', channel=8, note=29, velocity=95, time=0),
    Message('note_off', channel=8, note=29, velocity=80, time=960),
    Message('note_on', channel=8, note=29, velocity=95, time=0),
    Message('note_off', channel=8, note=29, velocity=80, time=480),
    Message('note_on', channel=8, note=29, velocity=95, time=0),
    Message('note_off', channel=8, note=29, velocity=80, time=480),
    Message('note_on', channel=8, note=32, velocity=95, time=0),
    Message('note_off', channel=8, note=32, velocity=80, time=480),
    Message('note_on', channel=8, note=32, velocity=95, time=0),
    Message('note_off', channel=8, note=32, velocity=80, time=480),
    Message('note_on', channel=8, note=32, velocity=95, time=0),
    Message('note_off', channel=8, note=32, velocity=80, time=480),
    Message('note_on', channel=8, note=32, velocity=95, time=0),
    Message('note_off', channel=8, note=32, velocity=80, time=480),
    Message('note_on', channel=8, note=39, velocity=95, time=0),
    Message('note_off', channel=8, note=39, velocity=80, time=960),
    Message('note_on', channel=8, note=39, velocity=95, time=0),
    Message('note_off', channel=8, note=39, velocity=80, time=480),
    Message('note_on', channel=8, note=39, velocity=95, time=0),
    Message('note_off', channel=8, note=39, velocity=80, time=480),
    Message('note_on', channel=8, note=34, velocity=95, time=0),
    Message('note_off', channel=8, note=34, velocity=80, time=480),
    Message('note_on', channel=8, note=34, velocity=95, time=0),
    Message('note_off', channel=8, note=34, velocity=80, time=480),
    Message('note_on', channel=8, note=34, velocity=95, time=0),
    Message('note_off', channel=8, note=34, velocity=80, time=480),
    Message('note_on', channel=8, note=32, velocity=95, time=0),
    Message('note_off', channel=8, note=32, velocity=80, time=480),
    Message('note_on', channel=8, note=29, velocity=95, time=0),
    Message('note_off', channel=8, note=29, velocity=80, time=960),
    Message('note_on', channel=8, note=29, velocity=95, time=0),
    Message('note_off', channel=8, note=29, velocity=80, time=480),
    Message('note_on', channel=8, note=29, velocity=95, time=0),
    Message('note_off', channel=8, note=29, velocity=80, time=480),
    Message('note_on', channel=8, note=32, velocity=95, time=0),
    Message('note_off', channel=8, note=32, velocity=80, time=480),
    Message('note_on', channel=8, note=32, velocity=95, time=0),
    Message('note_off', channel=8, note=32, velocity=80, time=480),
    Message('note_on', channel=8, note=32, velocity=95, time=0),
    Message('note_off', channel=8, note=32, velocity=80, time=480),
    Message('note_on', channel=8, note=32, velocity=95, time=0),
    Message('note_off', channel=8, note=32, velocity=80, time=480),
    Message('note_on', channel=8, note=39, velocity=95, time=0),
    Message('note_off', channel=8, note=39, velocity=80, time=960),
    Message('note_on', channel=8, note=39, velocity=95, time=0),
    Message('note_off', channel=8, note=39, velocity=80, time=480),
    Message('note_on', channel=8, note=39, velocity=95, time=0),
    Message('note_off', channel=8, note=39, velocity=80, time=480),
    Message('note_on', channel=8, note=34, velocity=95, time=0),
    Message('note_off', channel=8, note=34, velocity=80, time=480),
    Message('note_on', channel=8, note=34, velocity=95, time=0),
    Message('note_off', channel=8, note=34, velocity=80, time=480),
    Message('note_on', channel=8, note=34, velocity=95, time=0),
    Message('note_off', channel=8, note=34, velocity=80, time=480),
    Message('note_on', channel=8, note=32, velocity=95, time=0),
    Message('note_off', channel=8, note=32, velocity=80, time=480),
    Message('note_on', channel=8, note=29, velocity=95, time=0),
    Message('note_off', channel=8, note=29, velocity=80, time=960),
    Message('note_on', channel=8, note=29, velocity=95, time=0),
    Message('note_off', channel=8, note=29, velocity=80, time=480),
    Message('note_on', channel=8, note=29, velocity=95, time=0),
    Message('note_off', channel=8, note=29, velocity=80, time=480),
    Message('note_on', channel=8, note=32, velocity=95, time=0),
    Message('note_off', channel=8, note=32, velocity=80, time=480),
    Message('note_on', channel=8, note=32, velocity=95, time=0),
    Message('note_off', channel=8, note=32, velocity=80, time=480),
    Message('note_on', channel=8, note=32, velocity=95, time=0),
    Message('note_off', channel=8, note=32, velocity=80, time=480),
    Message('note_on', channel=8, note=32, velocity=95, time=0),
    Message('note_off', channel=8, note=32, velocity=80, time=480),
    Message('note_on', channel=8, note=39, velocity=95, time=0),
    Message('note_off', channel=8, note=39, velocity=80, time=960),
    Message('note_on', channel=8, note=39, velocity=95, time=0),
    Message('note_off', channel=8, note=39, velocity=80, time=480),
    Message('note_on', channel=8, note=39, velocity=95, time=0),
    Message('note_off', channel=8, note=39, velocity=80, time=480),
    Message('program_change', channel=8, program=34, time=0),
    Message('program_change', channel=10, program=34, time=0),
    Message('note_on', channel=8, note=34, velocity=95, time=0),
    Message('note_off', channel=8, note=34, velocity=80, time=480),
    Message('note_on', channel=8, note=34, velocity=95, time=0),
    Message('note_off', channel=8, note=34, velocity=80, time=480),
    Message('note_on', channel=8, note=34, velocity=95, time=0),
    Message('note_off', channel=8, note=34, velocity=80, time=480),
    Message('note_on', channel=8, note=36, velocity=95, time=0),
    Message('note_off', channel=8, note=36, velocity=80, time=480),
    Message('note_on', channel=8, note=37, velocity=95, time=0),
    Message('note_off', channel=8, note=37, velocity=80, time=480),
    Message('note_on', channel=8, note=37, velocity=95, time=0),
    Message('note_off', channel=8, note=37, velocity=80, time=480),
    Message('note_on', channel=8, note=37, velocity=95, time=0),
    Message('note_off', channel=8, note=37, velocity=80, time=480),
    Message('note_on', channel=8, note=37, velocity=95, time=0),
    Message('note_off', channel=8, note=37, velocity=80, time=480),
    Message('note_on', channel=8, note=32, velocity=95, time=0),
    Message('note_off', channel=8, note=32, velocity=80, time=480),
    Message('note_on', channel=8, note=32, velocity=95, time=0),
    Message('note_off', channel=8, note=32, velocity=80, time=480),
    Message('note_on', channel=8, note=32, velocity=95, time=0),
    Message('note_off', channel=8, note=32, velocity=80, time=480),
    Message('note_on', channel=8, note=32, velocity=95, time=0),
    Message('note_off', channel=8, note=32, velocity=80, time=480),
    Message('note_on', channel=8, note=39, velocity=95, time=0),
    Message('note_off', channel=8, note=39, velocity=80, time=480),
    Message('note_on', channel=8, note=39, velocity=95, time=0),
    Message('note_off', channel=8, note=39, velocity=80, time=480),
    Message('note_on', channel=8, note=39, velocity=95, time=0),
    Message('note_off', channel=8, note=39, velocity=80, time=480),
    Message('note_on', channel=8, note=39, velocity=95, time=0),
    Message('note_off', channel=8, note=39, velocity=80, time=480),
    Message('note_on', channel=8, note=29, velocity=95, time=0),
    Message('note_off', channel=8, note=29, velocity=80, time=480),
    Message('note_on', channel=8, note=29, velocity=95, time=0),
    Message('note_off', channel=8, note=29, velocity=80, time=480),
    Message('note_on', channel=8, note=29, velocity=95, time=0),
    Message('note_off', channel=8, note=29, velocity=80, time=480),
    Message('note_on', channel=8, note=29, velocity=95, time=0),
    Message('note_off', channel=8, note=29, velocity=80, time=480),
    Message('note_on', channel=8, note=37, velocity=95, time=0),
    Message('note_off', channel=8, note=37, velocity=80, time=480),
    Message('note_on', channel=8, note=37, velocity=95, time=0),
    Message('note_off', channel=8, note=37, velocity=80, time=480),
    Message('note_on', channel=8, note=37, velocity=95, time=0),
    Message('note_off', channel=8, note=37, velocity=80, time=480),
    Message('note_on', channel=8, note=37, velocity=95, time=0),
    Message('note_off', channel=8, note=37, velocity=80, time=480),
    Message('note_on', channel=8, note=32, velocity=95, time=0),
    Message('note_off', channel=8, note=32, velocity=80, time=480),
    Message('note_on', channel=8, note=32, velocity=95, time=0),
    Message('note_off', channel=8, note=32, velocity=80, time=480),
    Message('note_on', channel=8, note=32, velocity=95, time=0),
    Message('note_off', channel=8, note=32, velocity=80, time=480),
    Message('note_on', channel=8, note=32, velocity=95, time=0),
    Message('note_off', channel=8, note=32, velocity=80, time=480),
    Message('note_on', channel=8, note=39, velocity=95, time=0),
    Message('note_off', channel=8, note=39, velocity=80, time=480),
    Message('note_on', channel=8, note=39, velocity=95, time=0),
    Message('note_off', channel=8, note=39, velocity=80, time=480),
    Message('note_on', channel=8, note=39, velocity=95, time=0),
    Message('note_off', channel=8, note=39, velocity=80, time=480),
    Message('note_on', channel=8, note=39, velocity=95, time=0),
    Message('note_off', channel=8, note=39, velocity=80, time=480),
    Message('note_on', channel=8, note=29, velocity=95, time=0),
    Message('note_off', channel=8, note=29, velocity=80, time=480),
    Message('note_on', channel=8, note=29, velocity=95, time=0),
    Message('note_off', channel=8, note=29, velocity=80, time=480),
    Message('note_on', channel=8, note=29, velocity=95, time=0),
    Message('note_off', channel=8, note=29, velocity=80, time=480),
    Message('note_on', channel=8, note=29, velocity=95, time=0),
    Message('note_off', channel=8, note=29, velocity=80, time=480),
    Message('note_on', channel=8, note=37, velocity=95, time=0),
    Message('note_off', channel=8, note=37, velocity=80, time=480),
    Message('note_on', channel=8, note=37, velocity=95, time=0),
    Message('note_off', channel=8, note=37, velocity=80, time=480),
    Message('note_on', channel=8, note=37, velocity=95, time=0),
    Message('note_off', channel=8, note=37, velocity=80, time=480),
    Message('note_on', channel=8, note=37, velocity=95, time=0),
    Message('note_off', channel=8, note=37, velocity=80, time=480),
    Message('note_on', channel=8, note=32, velocity=95, time=0),
    Message('note_off', channel=8, note=32, velocity=80, time=480),
    Message('note_on', channel=8, note=32, velocity=95, time=0),
    Message('note_off', channel=8, note=32, velocity=80, time=480),
    Message('note_on', channel=8, note=32, velocity=95, time=0),
    Message('note_off', channel=8, note=32, velocity=80, time=480),
    Message('note_on', channel=8, note=32, velocity=95, time=0),
    Message('note_off', channel=8, note=32, velocity=80, time=480),
    Message('note_on', channel=8, note=39, velocity=95, time=0),
    Message('note_off', channel=8, note=39, velocity=80, time=480),
    Message('note_on', channel=8, note=39, velocity=95, time=0),
    Message('note_off', channel=8, note=39, velocity=80, time=480),
    Message('note_on', channel=8, note=39, velocity=95, time=0),
    Message('note_off', channel=8, note=39, velocity=80, time=480),
    Message('note_on', channel=8, note=39, velocity=95, time=0),
    Message('note_off', channel=8, note=39, velocity=80, time=480),
    Message('note_on', channel=8, note=29, velocity=95, time=0),
    Message('note_off', channel=8, note=29, velocity=80, time=480),
    Message('note_on', channel=8, note=29, velocity=95, time=0),
    Message('note_off', channel=8, note=29, velocity=80, time=480),
    Message('note_on', channel=8, note=29, velocity=95, time=0),
    Message('note_off', channel=8, note=29, velocity=80, time=480),
    Message('note_on', channel=8, note=29, velocity=95, time=0),
    Message('note_off', channel=8, note=29, velocity=80, time=480),
    Message('note_on', channel=8, note=37, velocity=95, time=0),
    Message('note_off', channel=8, note=37, velocity=80, time=480),
    Message('note_on', channel=8, note=37, velocity=95, time=0),
    Message('note_off', channel=8, note=37, velocity=80, time=480),
    Message('note_on', channel=8, note=37, velocity=95, time=0),
    Message('note_off', channel=8, note=37, velocity=80, time=480),
    Message('note_on', channel=8, note=37, velocity=95, time=0),
    Message('note_off', channel=8, note=37, velocity=80, time=480),
    Message('note_on', channel=8, note=32, velocity=95, time=0),
    Message('note_off', channel=8, note=32, velocity=80, time=480),
    Message('note_on', channel=8, note=32, velocity=95, time=0),
    Message('note_off', channel=8, note=32, velocity=80, time=480),
    Message('note_on', channel=8, note=32, velocity=95, time=0),
    Message('note_off', channel=8, note=32, velocity=80, time=480),
    Message('note_on', channel=8, note=32, velocity=95, time=0),
    Message('note_off', channel=8, note=32, velocity=80, time=480),
    Message('note_on', channel=8, note=36, velocity=95, time=0),
    Message('note_off', channel=8, note=36, velocity=80, time=480),
    Message('note_on', channel=8, note=36, velocity=95, time=0),
    Message('note_off', channel=8, note=36, velocity=80, time=480),
    Message('note_on', channel=8, note=36, velocity=95, time=0),
    Message('note_off', channel=8, note=36, velocity=80, time=480),
    Message('note_on', channel=8, note=36, velocity=95, time=0),
    Message('note_off', channel=8, note=36, velocity=80, time=480),
    Message('note_on', channel=8, note=36, velocity=95, time=0),
    Message('note_off', channel=8, note=36, velocity=80, time=480),
    Message('program_change', channel=8, program=33, time=1440),
    Message('program_change', channel=10, program=33, time=0),
    Message('note_on', channel=8, note=29, velocity=95, time=0),
    Message('note_off', channel=8, note=29, velocity=80, time=960),
    Message('note_on', channel=8, note=29, velocity=95, time=0),
    Message('note_off', channel=8, note=29, velocity=80, time=480),
    Message('note_on', channel=8, note=29, velocity=95, time=0),
    Message('note_off', channel=8, note=29, velocity=80, time=480),
    Message('note_on', channel=8, note=32, velocity=95, time=0),
    Message('note_off', channel=8, note=32, velocity=80, time=480),
    Message('note_on', channel=8, note=32, velocity=95, time=0),
    Message('note_off', channel=8, note=32, velocity=80, time=480),
    Message('note_on', channel=8, note=32, velocity=95, time=0),
    Message('note_off', channel=8, note=32, velocity=80, time=480),
    Message('note_on', channel=8, note=32, velocity=95, time=0),
    Message('note_off', channel=8, note=32, velocity=80, time=480),
    Message('note_on', channel=8, note=39, velocity=95, time=0),
    Message('note_off', channel=8, note=39, velocity=80, time=960),
    Message('note_on', channel=8, note=39, velocity=95, time=0),
    Message('note_off', channel=8, note=39, velocity=80, time=480),
    Message('note_on', channel=8, note=39, velocity=95, time=0),
    Message('note_off', channel=8, note=39, velocity=80, time=480),
    Message('note_on', channel=8, note=34, velocity=95, time=0),
    Message('note_off', channel=8, note=34, velocity=80, time=480),
    Message('note_on', channel=8, note=34, velocity=95, time=0),
    Message('note_off', channel=8, note=34, velocity=80, time=480),
    Message('note_on', channel=8, note=34, velocity=95, time=0),
    Message('note_off', channel=8, note=34, velocity=80, time=480),
    Message('note_on', channel=8, note=32, velocity=95, time=0),
    Message('note_off', channel=8, note=32, velocity=80, time=480),
    Message('note_on', channel=8, note=29, velocity=95, time=0),
    Message('note_off', channel=8, note=29, velocity=80, time=960),
    Message('note_on', channel=8, note=29, velocity=95, time=0),
    Message('note_off', channel=8, note=29, velocity=80, time=480),
    Message('note_on', channel=8, note=29, velocity=95, time=0),
    Message('note_off', channel=8, note=29, velocity=80, time=480),
    Message('note_on', channel=8, note=32, velocity=95, time=0),
    Message('note_off', channel=8, note=32, velocity=80, time=480),
    Message('note_on', channel=8, note=32, velocity=95, time=0),
    Message('note_off', channel=8, note=32, velocity=80, time=480),
    Message('note_on', channel=8, note=32, velocity=95, time=0),
    Message('note_off', channel=8, note=32, velocity=80, time=480),
    Message('note_on', channel=8, note=32, velocity=95, time=0),
    Message('note_off', channel=8, note=32, velocity=80, time=480),
    Message('note_on', channel=8, note=39, velocity=95, time=0),
    Message('note_off', channel=8, note=39, velocity=80, time=960),
    Message('note_on', channel=8, note=39, velocity=95, time=0),
    Message('note_off', channel=8, note=39, velocity=80, time=480),
    Message('note_on', channel=8, note=39, velocity=95, time=0),
    Message('note_off', channel=8, note=39, velocity=80, time=480),
    Message('note_on', channel=8, note=34, velocity=95, time=0),
    Message('note_off', channel=8, note=34, velocity=80, time=480),
    Message('note_on', channel=8, note=34, velocity=95, time=0),
    Message('note_off', channel=8, note=34, velocity=80, time=480),
    Message('note_on', channel=8, note=34, velocity=95, time=0),
    Message('note_off', channel=8, note=34, velocity=80, time=480),
    Message('note_on', channel=8, note=32, velocity=95, time=0),
    Message('note_off', channel=8, note=32, velocity=80, time=480),
    Message('note_on', channel=8, note=29, velocity=95, time=0),
    Message('note_off', channel=8, note=29, velocity=80, time=960),
    Message('note_on', channel=8, note=29, velocity=95, time=0),
    Message('note_off', channel=8, note=29, velocity=80, time=480),
    Message('note_on', channel=8, note=29, velocity=95, time=0),
    Message('note_off', channel=8, note=29, velocity=80, time=480),
    Message('note_on', channel=8, note=32, velocity=95, time=0),
    Message('note_off', channel=8, note=32, velocity=80, time=480),
    Message('note_on', channel=8, note=32, velocity=95, time=0),
    Message('note_off', channel=8, note=32, velocity=80, time=480),
    Message('note_on', channel=8, note=32, velocity=95, time=0),
    Message('note_off', channel=8, note=32, velocity=80, time=480),
    Message('note_on', channel=8, note=32, velocity=95, time=0),
    Message('note_off', channel=8, note=32, velocity=80, time=480),
    Message('note_on', channel=8, note=39, velocity=95, time=0),
    Message('note_off', channel=8, note=39, velocity=80, time=960),
    Message('note_on', channel=8, note=39, velocity=95, time=0),
    Message('note_off', channel=8, note=39, velocity=80, time=480),
    Message('note_on', channel=8, note=39, velocity=95, time=0),
    Message('note_off', channel=8, note=39, velocity=80, time=480),
    Message('note_on', channel=8, note=34, velocity=95, time=0),
    Message('note_off', channel=8, note=34, velocity=80, time=480),
    Message('note_on', channel=8, note=34, velocity=95, time=0),
    Message('note_off', channel=8, note=34, velocity=80, time=480),
    Message('note_on', channel=8, note=34, velocity=95, time=0),
    Message('note_off', channel=8, note=34, velocity=80, time=480),
    Message('note_on', channel=8, note=32, velocity=95, time=0),
    Message('note_off', channel=8, note=32, velocity=80, time=480),
    Message('note_on', channel=8, note=29, velocity=95, time=0),
    Message('note_off', channel=8, note=29, velocity=80, time=960),
    Message('note_on', channel=8, note=29, velocity=95, time=0),
    Message('note_off', channel=8, note=29, velocity=80, time=480),
    Message('note_on', channel=8, note=29, velocity=95, time=0),
    Message('note_off', channel=8, note=29, velocity=80, time=480),
    Message('note_on', channel=8, note=32, velocity=95, time=0),
    Message('note_off', channel=8, note=32, velocity=80, time=480),
    Message('note_on', channel=8, note=32, velocity=95, time=0),
    Message('note_off', channel=8, note=32, velocity=80, time=480),
    Message('note_on', channel=8, note=32, velocity=95, time=0),
    Message('note_off', channel=8, note=32, velocity=80, time=480),
    Message('note_on', channel=8, note=32, velocity=95, time=0),
    Message('note_off', channel=8, note=32, velocity=80, time=480),
    Message('note_on', channel=8, note=39, velocity=95, time=0),
    Message('note_off', channel=8, note=39, velocity=80, time=960),
    Message('note_on', channel=8, note=39, velocity=95, time=0),
    Message('note_off', channel=8, note=39, velocity=80, time=480),
    Message('note_on', channel=8, note=39, velocity=95, time=0),
    Message('note_off', channel=8, note=39, velocity=80, time=480),
    Message('note_on', channel=8, note=34, velocity=95, time=0),
    Message('note_off', channel=8, note=34, velocity=80, time=480),
    Message('note_on', channel=8, note=34, velocity=95, time=0),
    Message('note_off', channel=8, note=34, velocity=80, time=480),
    Message('note_on', channel=8, note=34, velocity=95, time=0),
    Message('note_off', channel=8, note=34, velocity=80, time=480),
    Message('note_on', channel=8, note=32, velocity=95, time=0),
    Message('note_off', channel=8, note=32, velocity=80, time=480),
    Message('note_on', channel=8, note=29, velocity=95, time=0),
    Message('note_off', channel=8, note=29, velocity=80, time=960),
    Message('note_on', channel=8, note=29, velocity=95, time=0),
    Message('note_off', channel=8, note=29, velocity=80, time=480),
    Message('note_on', channel=8, note=29, velocity=95, time=0),
    Message('note_off', channel=8, note=29, velocity=80, time=480),
    Message('note_on', channel=8, note=32, velocity=95, time=0),
    Message('note_off', channel=8, note=32, velocity=80, time=480),
    Message('note_on', channel=8, note=32, velocity=95, time=0),
    Message('note_off', channel=8, note=32, velocity=80, time=480),
    Message('note_on', channel=8, note=32, velocity=95, time=0),
    Message('note_off', channel=8, note=32, velocity=80, time=480),
    Message('note_on', channel=8, note=32, velocity=95, time=0),
    Message('note_off', channel=8, note=32, velocity=80, time=480),
    Message('note_on', channel=8, note=39, velocity=95, time=0),
    Message('note_off', channel=8, note=39, velocity=80, time=960),
    Message('note_on', channel=8, note=39, velocity=95, time=0),
    Message('note_off', channel=8, note=39, velocity=80, time=480),
    Message('note_on', channel=8, note=39, velocity=95, time=0),
    Message('note_off', channel=8, note=39, velocity=80, time=480),
    Message('note_on', channel=8, note=34, velocity=95, time=0),
    Message('note_off', channel=8, note=34, velocity=80, time=480),
    Message('note_on', channel=8, note=34, velocity=95, time=0),
    Message('note_off', channel=8, note=34, velocity=80, time=480),
    Message('note_on', channel=8, note=34, velocity=95, time=0),
    Message('note_off', channel=8, note=34, velocity=80, time=480),
    Message('note_on', channel=8, note=32, velocity=95, time=0),
    Message('note_off', channel=8, note=32, velocity=80, time=480),
    Message('note_on', channel=8, note=29, velocity=95, time=0),
    Message('note_off', channel=8, note=29, velocity=80, time=960),
    Message('note_on', channel=8, note=29, velocity=95, time=0),
    Message('note_off', channel=8, note=29, velocity=80, time=480),
    Message('note_on', channel=8, note=29, velocity=95, time=0),
    Message('note_off', channel=8, note=29, velocity=80, time=480),
    Message('note_on', channel=8, note=32, velocity=95, time=0),
    Message('note_off', channel=8, note=32, velocity=80, time=480),
    Message('note_on', channel=8, note=32, velocity=95, time=0),
    Message('note_off', channel=8, note=32, velocity=80, time=480),
    Message('note_on', channel=8, note=32, velocity=95, time=0),
    Message('note_off', channel=8, note=32, velocity=80, time=480),
    Message('note_on', channel=8, note=32, velocity=95, time=0),
    Message('note_off', channel=8, note=32, velocity=80, time=480),
    Message('note_on', channel=8, note=39, velocity=95, time=0),
    Message('note_off', channel=8, note=39, velocity=80, time=960),
    Message('note_on', channel=8, note=39, velocity=95, time=0),
    Message('note_off', channel=8, note=39, velocity=80, time=480),
    Message('note_on', channel=8, note=39, velocity=95, time=0),
    Message('note_off', channel=8, note=39, velocity=80, time=480),
    Message('note_on', channel=8, note=34, velocity=95, time=0),
    Message('note_off', channel=8, note=34, velocity=80, time=480),
    Message('note_on', channel=8, note=34, velocity=95, time=0),
    Message('note_off', channel=8, note=34, velocity=80, time=480),
    Message('note_on', channel=8, note=34, velocity=95, time=0),
    Message('note_off', channel=8, note=34, velocity=80, time=480),
    Message('note_on', channel=8, note=32, velocity=95, time=0),
    Message('note_off', channel=8, note=32, velocity=80, time=480),
    Message('note_on', channel=8, note=29, velocity=95, time=0),
    Message('note_off', channel=8, note=29, velocity=80, time=960),
    Message('note_on', channel=8, note=29, velocity=95, time=0),
    Message('note_off', channel=8, note=29, velocity=80, time=480),
    Message('note_on', channel=8, note=29, velocity=95, time=0),
    Message('note_off', channel=8, note=29, velocity=80, time=480),
    Message('note_on', channel=8, note=32, velocity=95, time=0),
    Message('note_off', channel=8, note=32, velocity=80, time=480),
    Message('note_on', channel=8, note=32, velocity=95, time=0),
    Message('note_off', channel=8, note=32, velocity=80, time=480),
    Message('note_on', channel=8, note=32, velocity=95, time=0),
    Message('note_off', channel=8, note=32, velocity=80, time=480),
    Message('note_on', channel=8, note=32, velocity=95, time=0),
    Message('note_off', channel=8, note=32, velocity=80, time=480),
    Message('note_on', channel=8, note=39, velocity=95, time=0),
    Message('note_off', channel=8, note=39, velocity=80, time=960),
    Message('note_on', channel=8, note=39, velocity=95, time=0),
    Message('note_off', channel=8, note=39, velocity=80, time=480),
    Message('note_on', channel=8, note=39, velocity=95, time=0),
    Message('note_off', channel=8, note=39, velocity=80, time=480),
    Message('note_on', channel=8, note=34, velocity=95, time=0),
    Message('note_off', channel=8, note=34, velocity=80, time=480),
    Message('note_on', channel=8, note=34, velocity=95, time=0),
    Message('note_off', channel=8, note=34, velocity=80, time=480),
    Message('note_on', channel=8, note=34, velocity=95, time=0),
    Message('note_off', channel=8, note=34, velocity=80, time=480),
    Message('note_on', channel=8, note=32, velocity=95, time=0),
    Message('note_off', channel=8, note=32, velocity=80, time=480),
    Message('note_on', channel=8, note=29, velocity=95, time=0),
    Message('note_off', channel=8, note=29, velocity=80, time=960),
    Message('note_on', channel=8, note=29, velocity=95, time=0),
    Message('note_off', channel=8, note=29, velocity=80, time=480),
    Message('note_on', channel=8, note=29, velocity=95, time=0),
    Message('note_off', channel=8, note=29, velocity=80, time=480),
    Message('note_on', channel=8, note=32, velocity=95, time=0),
    Message('note_off', channel=8, note=32, velocity=80, time=480),
    Message('note_on', channel=8, note=32, velocity=95, time=0),
    Message('note_off', channel=8, note=32, velocity=80, time=480),
    Message('note_on', channel=8, note=32, velocity=95, time=0),
    Message('note_off', channel=8, note=32, velocity=80, time=480),
    Message('note_on', channel=8, note=32, velocity=95, time=0),
    Message('note_off', channel=8, note=32, velocity=80, time=480),
    Message('note_on', channel=8, note=39, velocity=95, time=0),
    Message('note_off', channel=8, note=39, velocity=80, time=960),
    Message('note_on', channel=8, note=39, velocity=95, time=0),
    Message('note_off', channel=8, note=39, velocity=80, time=480),
    Message('note_on', channel=8, note=39, velocity=95, time=0),
    Message('note_off', channel=8, note=39, velocity=80, time=480),
    Message('note_on', channel=8, note=34, velocity=95, time=0),
    Message('note_off', channel=8, note=34, velocity=80, time=480),
    Message('note_on', channel=8, note=34, velocity=95, time=0),
    Message('note_off', channel=8, note=34, velocity=80, time=480),
    Message('note_on', channel=8, note=34, velocity=95, time=0),
    Message('note_off', channel=8, note=34, velocity=80, time=480),
    Message('note_on', channel=8, note=32, velocity=95, time=0),
    Message('note_off', channel=8, note=32, velocity=80, time=480),
    Message('note_on', channel=8, note=29, velocity=95, time=0),
    Message('note_off', channel=8, note=29, velocity=80, time=960),
    Message('note_on', channel=8, note=29, velocity=95, time=0),
    Message('note_off', channel=8, note=29, velocity=80, time=480),
    Message('note_on', channel=8, note=29, velocity=95, time=0),
    Message('note_off', channel=8, note=29, velocity=80, time=480),
    Message('note_on', channel=8, note=32, velocity=95, time=0),
    Message('note_off', channel=8, note=32, velocity=80, time=480),
    Message('note_on', channel=8, note=32, velocity=95, time=0),
    Message('note_off', channel=8, note=32, velocity=80, time=480),
    Message('note_on', channel=8, note=32, velocity=95, time=0),
    Message('note_off', channel=8, note=32, velocity=80, time=480),
    Message('note_on', channel=8, note=32, velocity=95, time=0),
    Message('note_off', channel=8, note=32, velocity=80, time=480),
    Message('note_on', channel=8, note=39, velocity=95, time=0),
    Message('note_off', channel=8, note=39, velocity=80, time=960),
    Message('note_on', channel=8, note=39, velocity=95, time=0),
    Message('note_off', channel=8, note=39, velocity=80, time=480),
    Message('note_on', channel=8, note=39, velocity=95, time=0),
    Message('note_off', channel=8, note=39, velocity=80, time=480),
    Message('program_change', channel=8, program=34, time=0),
    Message('program_change', channel=10, program=34, time=0),
    Message('note_on', channel=8, note=34, velocity=95, time=0),
    Message('note_off', channel=8, note=34, velocity=80, time=480),
    Message('note_on', channel=8, note=34, velocity=95, time=0),
    Message('note_off', channel=8, note=34, velocity=80, time=480),
    Message('note_on', channel=8, note=34, velocity=95, time=0),
    Message('note_off', channel=8, note=34, velocity=80, time=480),
    Message('note_on', channel=8, note=36, velocity=95, time=0),
    Message('note_off', channel=8, note=36, velocity=80, time=480),
    Message('note_on', channel=8, note=37, velocity=95, time=0),
    Message('note_off', channel=8, note=37, velocity=80, time=480),
    Message('note_on', channel=8, note=37, velocity=95, time=0),
    Message('note_off', channel=8, note=37, velocity=80, time=480),
    Message('note_on', channel=8, note=37, velocity=95, time=0),
    Message('note_off', channel=8, note=37, velocity=80, time=480),
    Message('note_on', channel=8, note=37, velocity=95, time=0),
    Message('note_off', channel=8, note=37, velocity=80, time=480),
    Message('note_on', channel=8, note=32, velocity=95, time=0),
    Message('note_off', channel=8, note=32, velocity=80, time=480),
    Message('note_on', channel=8, note=32, velocity=95, time=0),
    Message('note_off', channel=8, note=32, velocity=80, time=480),
    Message('note_on', channel=8, note=32, velocity=95, time=0),
    Message('note_off', channel=8, note=32, velocity=80, time=480),
    Message('note_on', channel=8, note=32, velocity=95, time=0),
    Message('note_off', channel=8, note=32, velocity=80, time=480),
    Message('note_on', channel=8, note=39, velocity=95, time=0),
    Message('note_off', channel=8, note=39, velocity=80, time=480),
    Message('note_on', channel=8, note=39, velocity=95, time=0),
    Message('note_off', channel=8, note=39, velocity=80, time=480),
    Message('note_on', channel=8, note=39, velocity=95, time=0),
    Message('note_off', channel=8, note=39, velocity=80, time=480),
    Message('note_on', channel=8, note=39, velocity=95, time=0),
    Message('note_off', channel=8, note=39, velocity=80, time=480),
    Message('note_on', channel=8, note=29, velocity=95, time=0),
    Message('note_off', channel=8, note=29, velocity=80, time=480),
    Message('note_on', channel=8, note=29, velocity=95, time=0),
    Message('note_off', channel=8, note=29, velocity=80, time=480),
    Message('note_on', channel=8, note=29, velocity=95, time=0),
    Message('note_off', channel=8, note=29, velocity=80, time=480),
    Message('note_on', channel=8, note=29, velocity=95, time=0),
    Message('note_off', channel=8, note=29, velocity=80, time=480),
    Message('note_on', channel=8, note=37, velocity=95, time=0),
    Message('note_off', channel=8, note=37, velocity=80, time=480),
    Message('note_on', channel=8, note=37, velocity=95, time=0),
    Message('note_off', channel=8, note=37, velocity=80, time=480),
    Message('note_on', channel=8, note=37, velocity=95, time=0),
    Message('note_off', channel=8, note=37, velocity=80, time=480),
    Message('note_on', channel=8, note=37, velocity=95, time=0),
    Message('note_off', channel=8, note=37, velocity=80, time=480),
    Message('note_on', channel=8, note=32, velocity=95, time=0),
    Message('note_off', channel=8, note=32, velocity=80, time=480),
    Message('note_on', channel=8, note=32, velocity=95, time=0),
    Message('note_off', channel=8, note=32, velocity=80, time=480),
    Message('note_on', channel=8, note=32, velocity=95, time=0),
    Message('note_off', channel=8, note=32, velocity=80, time=480),
    Message('note_on', channel=8, note=32, velocity=95, time=0),
    Message('note_off', channel=8, note=32, velocity=80, time=480),
    Message('note_on', channel=8, note=39, velocity=95, time=0),
    Message('note_off', channel=8, note=39, velocity=80, time=480),
    Message('note_on', channel=8, note=39, velocity=95, time=0),
    Message('note_off', channel=8, note=39, velocity=80, time=480),
    Message('note_on', channel=8, note=39, velocity=95, time=0),
    Message('note_off', channel=8, note=39, velocity=80, time=480),
    Message('note_on', channel=8, note=39, velocity=95, time=0),
    Message('note_off', channel=8, note=39, velocity=80, time=480),
    Message('note_on', channel=8, note=29, velocity=95, time=0),
    Message('note_off', channel=8, note=29, velocity=80, time=480),
    Message('note_on', channel=8, note=29, velocity=95, time=0),
    Message('note_off', channel=8, note=29, velocity=80, time=480),
    Message('note_on', channel=8, note=29, velocity=95, time=0),
    Message('note_off', channel=8, note=29, velocity=80, time=480),
    Message('note_on', channel=8, note=29, velocity=95, time=0),
    Message('note_off', channel=8, note=29, velocity=80, time=480),
    Message('note_on', channel=8, note=37, velocity=95, time=0),
    Message('note_off', channel=8, note=37, velocity=80, time=480),
    Message('note_on', channel=8, note=37, velocity=95, time=0),
    Message('note_off', channel=8, note=37, velocity=80, time=480),
    Message('note_on', channel=8, note=37, velocity=95, time=0),
    Message('note_off', channel=8, note=37, velocity=80, time=480),
    Message('note_on', channel=8, note=37, velocity=95, time=0),
    Message('note_off', channel=8, note=37, velocity=80, time=480),
    Message('note_on', channel=8, note=32, velocity=95, time=0),
    Message('note_off', channel=8, note=32, velocity=80, time=480),
    Message('note_on', channel=8, note=32, velocity=95, time=0),
    Message('note_off', channel=8, note=32, velocity=80, time=480),
    Message('note_on', channel=8, note=32, velocity=95, time=0),
    Message('note_off', channel=8, note=32, velocity=80, time=480),
    Message('note_on', channel=8, note=32, velocity=95, time=0),
    Message('note_off', channel=8, note=32, velocity=80, time=480),
    Message('note_on', channel=8, note=39, velocity=95, time=0),
    Message('note_off', channel=8, note=39, velocity=80, time=480),
    Message('note_on', channel=8, note=39, velocity=95, time=0),
    Message('note_off', channel=8, note=39, velocity=80, time=480),
    Message('note_on', channel=8, note=39, velocity=95, time=0),
    Message('note_off', channel=8, note=39, velocity=80, time=480),
    Message('note_on', channel=8, note=39, velocity=95, time=0),
    Message('note_off', channel=8, note=39, velocity=80, time=480),
    Message('note_on', channel=8, note=29, velocity=95, time=0),
    Message('note_off', channel=8, note=29, velocity=80, time=480),
    Message('note_on', channel=8, note=29, velocity=95, time=0),
    Message('note_off', channel=8, note=29, velocity=80, time=480),
    Message('note_on', channel=8, note=29, velocity=95, time=0),
    Message('note_off', channel=8, note=29, velocity=80, time=480),
    Message('note_on', channel=8, note=29, velocity=95, time=0),
    Message('note_off', channel=8, note=29, velocity=80, time=480),
    Message('note_on', channel=8, note=37, velocity=95, time=0),
    Message('note_off', channel=8, note=37, velocity=80, time=480),
    Message('note_on', channel=8, note=37, velocity=95, time=0),
    Message('note_off', channel=8, note=37, velocity=80, time=480),
    Message('note_on', channel=8, note=37, velocity=95, time=0),
    Message('note_off', channel=8, note=37, velocity=80, time=480),
    Message('note_on', channel=8, note=37, velocity=95, time=0),
    Message('note_off', channel=8, note=37, velocity=80, time=480),
    Message('note_on', channel=8, note=32, velocity=95, time=0),
    Message('note_off', channel=8, note=32, velocity=80, time=480),
    Message('note_on', channel=8, note=32, velocity=95, time=0),
    Message('note_off', channel=8, note=32, velocity=80, time=480),
    Message('note_on', channel=8, note=32, velocity=95, time=0),
    Message('note_off', channel=8, note=32, velocity=80, time=480),
    Message('note_on', channel=8, note=32, velocity=95, time=0),
    Message('note_off', channel=8, note=32, velocity=80, time=480),
    Message('note_on', channel=8, note=36, velocity=95, time=0),
    Message('note_off', channel=8, note=36, velocity=80, time=480),
    Message('note_on', channel=8, note=36, velocity=95, time=0),
    Message('note_off', channel=8, note=36, velocity=80, time=480),
    Message('note_on', channel=8, note=36, velocity=95, time=0),
    Message('note_off', channel=8, note=36, velocity=80, time=480),
    Message('note_on', channel=8, note=36, velocity=95, time=0),
    Message('note_off', channel=8, note=36, velocity=80, time=480),
    Message('note_on', channel=8, note=36, velocity=95, time=0),
    Message('note_off', channel=8, note=36, velocity=80, time=480),
    Message('program_change', channel=8, program=33, time=1440),
    Message('program_change', channel=10, program=33, time=0),
    Message('note_on', channel=8, note=29, velocity=95, time=0),
    Message('note_off', channel=8, note=29, velocity=80, time=960),
    Message('note_on', channel=8, note=29, velocity=95, time=0),
    Message('note_off', channel=8, note=29, velocity=80, time=480),
    Message('note_on', channel=8, note=29, velocity=95, time=0),
    Message('note_off', channel=8, note=29, velocity=80, time=480),
    Message('note_on', channel=8, note=32, velocity=95, time=0),
    Message('note_off', channel=8, note=32, velocity=80, time=480),
    Message('note_on', channel=8, note=32, velocity=95, time=0),
    Message('note_off', channel=8, note=32, velocity=80, time=480),
    Message('note_on', channel=8, note=32, velocity=95, time=0),
    Message('note_off', channel=8, note=32, velocity=80, time=480),
    Message('note_on', channel=8, note=32, velocity=95, time=0),
    Message('note_off', channel=8, note=32, velocity=80, time=480),
    Message('note_on', channel=8, note=39, velocity=95, time=0),
    Message('note_off', channel=8, note=39, velocity=80, time=960),
    Message('note_on', channel=8, note=39, velocity=95, time=0),
    Message('note_off', channel=8, note=39, velocity=80, time=480),
    Message('note_on', channel=8, note=39, velocity=95, time=0),
    Message('note_off', channel=8, note=39, velocity=80, time=480),
    Message('note_on', channel=8, note=34, velocity=95, time=0),
    Message('note_off', channel=8, note=34, velocity=80, time=480),
    Message('note_on', channel=8, note=34, velocity=95, time=0),
    Message('note_off', channel=8, note=34, velocity=80, time=480),
    Message('note_on', channel=8, note=34, velocity=95, time=0),
    Message('note_off', channel=8, note=34, velocity=80, time=480),
    Message('note_on', channel=8, note=32, velocity=95, time=0),
    Message('note_off', channel=8, note=32, velocity=80, time=480),
    Message('note_on', channel=8, note=29, velocity=95, time=0),
    Message('note_off', channel=8, note=29, velocity=80, time=960),
    Message('note_on', channel=8, note=29, velocity=95, time=0),
    Message('note_off', channel=8, note=29, velocity=80, time=480),
    Message('note_on', channel=8, note=29, velocity=95, time=0),
    Message('note_off', channel=8, note=29, velocity=80, time=480),
    Message('note_on', channel=8, note=32, velocity=95, time=0),
    Message('note_off', channel=8, note=32, velocity=80, time=480),
    Message('note_on', channel=8, note=32, velocity=95, time=0),
    Message('note_off', channel=8, note=32, velocity=80, time=480),
    Message('note_on', channel=8, note=32, velocity=95, time=0),
    Message('note_off', channel=8, note=32, velocity=80, time=480),
    Message('note_on', channel=8, note=32, velocity=95, time=0),
    Message('note_off', channel=8, note=32, velocity=80, time=480),
    Message('note_on', channel=8, note=39, velocity=95, time=0),
    Message('note_off', channel=8, note=39, velocity=80, time=960),
    Message('note_on', channel=8, note=39, velocity=95, time=0),
    Message('note_off', channel=8, note=39, velocity=80, time=480),
    Message('note_on', channel=8, note=39, velocity=95, time=0),
    Message('note_off', channel=8, note=39, velocity=80, time=480),
    Message('program_change', channel=8, program=34, time=0),
    Message('program_change', channel=10, program=34, time=0),
    Message('note_on', channel=8, note=34, velocity=95, time=0),
    Message('note_off', channel=8, note=34, velocity=80, time=480),
    Message('note_on', channel=8, note=34, velocity=95, time=0),
    Message('note_off', channel=8, note=34, velocity=80, time=480),
    Message('note_on', channel=8, note=34, velocity=95, time=0),
    Message('note_off', channel=8, note=34, velocity=80, time=480),
    Message('note_on', channel=8, note=36, velocity=95, time=0),
    Message('note_off', channel=8, note=36, velocity=80, time=480),
    Message('note_on', channel=8, note=37, velocity=95, time=0),
    Message('note_off', channel=8, note=37, velocity=80, time=480),
    Message('note_on', channel=8, note=37, velocity=95, time=0),
    Message('note_off', channel=8, note=37, velocity=80, time=480),
    Message('note_on', channel=8, note=37, velocity=95, time=0),
    Message('note_off', channel=8, note=37, velocity=80, time=480),
    Message('note_on', channel=8, note=37, velocity=95, time=0),
    Message('note_off', channel=8, note=37, velocity=80, time=480),
    Message('note_on', channel=8, note=32, velocity=95, time=0),
    Message('note_off', channel=8, note=32, velocity=80, time=480),
    Message('note_on', channel=8, note=32, velocity=95, time=0),
    Message('note_off', channel=8, note=32, velocity=80, time=480),
    Message('note_on', channel=8, note=32, velocity=95, time=0),
    Message('note_off', channel=8, note=32, velocity=80, time=480),
    Message('note_on', channel=8, note=32, velocity=95, time=0),
    Message('note_off', channel=8, note=32, velocity=80, time=480),
    Message('note_on', channel=8, note=39, velocity=95, time=0),
    Message('note_off', channel=8, note=39, velocity=80, time=480),
    Message('note_on', channel=8, note=39, velocity=95, time=0),
    Message('note_off', channel=8, note=39, velocity=80, time=480),
    Message('note_on', channel=8, note=39, velocity=95, time=0),
    Message('note_off', channel=8, note=39, velocity=80, time=480),
    Message('note_on', channel=8, note=39, velocity=95, time=0),
    Message('note_off', channel=8, note=39, velocity=80, time=480),
    Message('note_on', channel=8, note=29, velocity=95, time=0),
    Message('note_off', channel=8, note=29, velocity=80, time=480),
    Message('note_on', channel=8, note=29, velocity=95, time=0),
    Message('note_off', channel=8, note=29, velocity=80, time=480),
    Message('note_on', channel=8, note=29, velocity=95, time=0),
    Message('note_off', channel=8, note=29, velocity=80, time=480),
    Message('note_on', channel=8, note=29, velocity=95, time=0),
    Message('note_off', channel=8, note=29, velocity=80, time=480),
    Message('note_on', channel=8, note=37, velocity=95, time=0),
    Message('note_off', channel=8, note=37, velocity=80, time=480),
    Message('note_on', channel=8, note=37, velocity=95, time=0),
    Message('note_off', channel=8, note=37, velocity=80, time=480),
    Message('note_on', channel=8, note=37, velocity=95, time=0),
    Message('note_off', channel=8, note=37, velocity=80, time=480),
    Message('note_on', channel=8, note=37, velocity=95, time=0),
    Message('note_off', channel=8, note=37, velocity=80, time=480),
    Message('note_on', channel=8, note=32, velocity=95, time=0),
    Message('note_off', channel=8, note=32, velocity=80, time=480),
    Message('note_on', channel=8, note=32, velocity=95, time=0),
    Message('note_off', channel=8, note=32, velocity=80, time=480),
    Message('note_on', channel=8, note=32, velocity=95, time=0),
    Message('note_off', channel=8, note=32, velocity=80, time=480),
    Message('note_on', channel=8, note=32, velocity=95, time=0),
    Message('note_off', channel=8, note=32, velocity=80, time=480),
    Message('note_on', channel=8, note=39, velocity=95, time=0),
    Message('note_off', channel=8, note=39, velocity=80, time=480),
    Message('note_on', channel=8, note=39, velocity=95, time=0),
    Message('note_off', channel=8, note=39, velocity=80, time=480),
    Message('note_on', channel=8, note=39, velocity=95, time=0),
    Message('note_off', channel=8, note=39, velocity=80, time=480),
    Message('note_on', channel=8, note=39, velocity=95, time=0),
    Message('note_off', channel=8, note=39, velocity=80, time=480),
    Message('note_on', channel=8, note=29, velocity=95, time=0),
    Message('note_off', channel=8, note=29, velocity=80, time=480),
    Message('note_on', channel=8, note=29, velocity=95, time=0),
    Message('note_off', channel=8, note=29, velocity=80, time=480),
    Message('note_on', channel=8, note=29, velocity=95, time=0),
    Message('note_off', channel=8, note=29, velocity=80, time=480),
    Message('note_on', channel=8, note=29, velocity=95, time=0),
    Message('note_off', channel=8, note=29, velocity=80, time=480),
    Message('note_on', channel=8, note=37, velocity=95, time=0),
    Message('note_off', channel=8, note=37, velocity=80, time=480),
    Message('note_on', channel=8, note=37, velocity=95, time=0),
    Message('note_off', channel=8, note=37, velocity=80, time=480),
    Message('note_on', channel=8, note=32, velocity=95, time=960),
    Message('note_off', channel=8, note=32, velocity=80, time=480),
    Message('note_on', channel=8, note=32, velocity=95, time=0),
    Message('note_off', channel=8, note=32, velocity=80, time=480),
    Message('note_on', channel=8, note=39, velocity=95, time=960),
    Message('note_off', channel=8, note=39, velocity=80, time=480),
    Message('note_on', channel=8, note=39, velocity=95, time=0),
    Message('note_off', channel=8, note=39, velocity=80, time=480),
    Message('note_on', channel=8, note=39, velocity=95, time=0),
    Message('note_off', channel=8, note=39, velocity=80, time=480),
    Message('note_on', channel=8, note=39, velocity=95, time=0),
    Message('note_off', channel=8, note=39, velocity=80, time=480),
    Message('note_on', channel=8, note=29, velocity=95, time=0),
    Message('note_off', channel=8, note=29, velocity=80, time=480),
    Message('note_on', channel=8, note=29, velocity=95, time=0),
    Message('note_off', channel=8, note=29, velocity=80, time=480),
    Message('note_on', channel=8, note=29, velocity=95, time=0),
    Message('note_off', channel=8, note=29, velocity=80, time=480),
    Message('note_on', channel=8, note=29, velocity=95, time=0),
    Message('note_off', channel=8, note=29, velocity=80, time=480),
    Message('note_on', channel=8, note=37, velocity=95, time=0),
    Message('note_off', channel=8, note=37, velocity=80, time=480),
    Message('note_on', channel=8, note=37, velocity=95, time=0),
    Message('note_off', channel=8, note=37, velocity=80, time=480),
    Message('note_on', channel=8, note=32, velocity=95, time=960),
    Message('note_off', channel=8, note=32, velocity=80, time=480),
    Message('note_on', channel=8, note=32, velocity=95, time=0),
    Message('note_off', channel=8, note=32, velocity=80, time=480),
    Message('note_on', channel=10, note=43, velocity=95, time=480),
    Message('pitchwheel', channel=10, pitch=-640, time=240),
    Message('pitchwheel', channel=10, pitch=-1408, time=40),
    Message('pitchwheel', channel=10, pitch=-2048, time=40),
    Message('pitchwheel', channel=10, pitch=-2688, time=40),
    Message('pitchwheel', channel=10, pitch=-3456, time=40),
    Message('pitchwheel', channel=10, pitch=-4096, time=40),
    Message('note_off', channel=10, note=43, velocity=80, time=40),
    Message('pitchwheel', channel=10, pitch=0, time=0),
    Message('note_on', channel=8, note=36, velocity=86, time=0),
    Message('note_off', channel=8, note=36, velocity=80, time=480),
    Message('note_on', channel=8, note=36, velocity=95, time=0),
    Message('note_off', channel=8, note=36, velocity=80, time=480),
    Message('note_on', channel=8, note=36, velocity=95, time=0),
    Message('note_off', channel=8, note=36, velocity=80, time=480),
    Message('note_on', channel=8, note=36, velocity=95, time=0),
    Message('note_off', channel=8, note=36, velocity=80, time=480),
    Message('note_on', channel=8, note=36, velocity=95, time=0),
    Message('note_off', channel=8, note=36, velocity=80, time=480),
    Message('note_on', channel=8, note=36, velocity=95, time=0),
    Message('note_off', channel=8, note=36, velocity=80, time=480),
    Message('note_on', channel=8, note=36, velocity=95, time=0),
    Message('note_off', channel=8, note=36, velocity=80, time=480),
    Message('note_on', channel=8, note=36, velocity=95, time=0),
    Message('note_off', channel=8, note=36, velocity=80, time=480),
    Message('note_on', channel=8, note=36, velocity=95, time=0),
    Message('note_off', channel=8, note=36, velocity=80, time=480),
    Message('note_on', channel=8, note=36, velocity=95, time=0),
    Message('note_off', channel=8, note=36, velocity=80, time=480),
    Message('note_on', channel=8, note=36, velocity=95, time=0),
    Message('note_off', channel=8, note=36, velocity=80, time=480),
    Message('note_on', channel=8, note=36, velocity=95, time=0),
    Message('note_off', channel=8, note=36, velocity=80, time=480),
    Message('note_on', channel=8, note=36, velocity=95, time=0),
    Message('note_off', channel=8, note=36, velocity=80, time=480),
    Message('program_change', channel=8, program=34, time=14880),
    Message('program_change', channel=10, program=34, time=0),
    Message('note_on', channel=8, note=34, velocity=95, time=480),
    Message('note_off', channel=8, note=34, velocity=80, time=480),
    Message('note_on', channel=8, note=34, velocity=95, time=0),
    Message('note_off', channel=8, note=34, velocity=80, time=480),
    Message('note_on', channel=8, note=36, velocity=95, time=0),
    Message('note_off', channel=8, note=36, velocity=80, time=480),
    Message('note_on', channel=8, note=37, velocity=95, time=0),
    Message('note_off', channel=8, note=37, velocity=80, time=480),
    Message('note_on', channel=8, note=37, velocity=95, time=0),
    Message('note_off', channel=8, note=37, velocity=80, time=480),
    Message('note_on', channel=8, note=37, velocity=95, time=0),
    Message('note_off', channel=8, note=37, velocity=80, time=480),
    Message('note_on', channel=8, note=37, velocity=95, time=0),
    Message('note_off', channel=8, note=37, velocity=80, time=480),
    Message('note_on', channel=8, note=32, velocity=95, time=0),
    Message('note_off', channel=8, note=32, velocity=80, time=480),
    Message('note_on', channel=8, note=32, velocity=95, time=0),
    Message('note_off', channel=8, note=32, velocity=80, time=480),
    Message('note_on', channel=8, note=32, velocity=95, time=0),
    Message('note_off', channel=8, note=32, velocity=80, time=480),
    Message('note_on', channel=8, note=32, velocity=95, time=0),
    Message('note_off', channel=8, note=32, velocity=80, time=480),
    Message('note_on', channel=8, note=39, velocity=95, time=0),
    Message('note_off', channel=8, note=39, velocity=80, time=480),
    Message('note_on', channel=8, note=39, velocity=95, time=0),
    Message('note_off', channel=8, note=39, velocity=80, time=480),
    Message('note_on', channel=8, note=39, velocity=95, time=0),
    Message('note_off', channel=8, note=39, velocity=80, time=480),
    Message('note_on', channel=8, note=39, velocity=95, time=0),
    Message('note_off', channel=8, note=39, velocity=80, time=480),
    Message('note_on', channel=8, note=29, velocity=95, time=0),
    Message('note_off', channel=8, note=29, velocity=80, time=480),
    Message('note_on', channel=8, note=29, velocity=95, time=0),
    Message('note_off', channel=8, note=29, velocity=80, time=480),
    Message('note_on', channel=8, note=29, velocity=95, time=0),
    Message('note_off', channel=8, note=29, velocity=80, time=480),
    Message('note_on', channel=8, note=29, velocity=95, time=0),
    Message('note_off', channel=8, note=29, velocity=80, time=480),
    Message('note_on', channel=8, note=37, velocity=95, time=0),
    Message('note_off', channel=8, note=37, velocity=80, time=480),
    Message('note_on', channel=8, note=37, velocity=95, time=0),
    Message('note_off', channel=8, note=37, velocity=80, time=480),
    Message('note_on', channel=8, note=37, velocity=95, time=0),
    Message('note_off', channel=8, note=37, velocity=80, time=480),
    Message('note_on', channel=8, note=37, velocity=95, time=0),
    Message('note_off', channel=8, note=37, velocity=80, time=480),
    Message('note_on', channel=8, note=32, velocity=95, time=0),
    Message('note_off', channel=8, note=32, velocity=80, time=480),
    Message('note_on', channel=8, note=32, velocity=95, time=0),
    Message('note_off', channel=8, note=32, velocity=80, time=480),
    Message('note_on', channel=8, note=32, velocity=95, time=0),
    Message('note_off', channel=8, note=32, velocity=80, time=480),
    Message('note_on', channel=8, note=32, velocity=95, time=0),
    Message('note_off', channel=8, note=32, velocity=80, time=480),
    Message('note_on', channel=8, note=39, velocity=95, time=0),
    Message('note_off', channel=8, note=39, velocity=80, time=480),
    Message('note_on', channel=8, note=39, velocity=95, time=0),
    Message('note_off', channel=8, note=39, velocity=80, time=480),
    Message('note_on', channel=8, note=39, velocity=95, time=0),
    Message('note_off', channel=8, note=39, velocity=80, time=480),
    Message('note_on', channel=8, note=39, velocity=95, time=0),
    Message('note_off', channel=8, note=39, velocity=80, time=480),
    Message('note_on', channel=8, note=29, velocity=95, time=0),
    Message('note_off', channel=8, note=29, velocity=80, time=480),
    Message('note_on', channel=8, note=29, velocity=95, time=0),
    Message('note_off', channel=8, note=29, velocity=80, time=480),
    Message('note_on', channel=8, note=29, velocity=95, time=0),
    Message('note_off', channel=8, note=29, velocity=80, time=480),
    Message('note_on', channel=8, note=29, velocity=95, time=0),
    Message('note_off', channel=8, note=29, velocity=80, time=480),
    Message('note_on', channel=8, note=37, velocity=95, time=0),
    Message('note_off', channel=8, note=37, velocity=80, time=480),
    Message('note_on', channel=8, note=37, velocity=95, time=0),
    Message('note_off', channel=8, note=37, velocity=80, time=480),
    Message('note_on', channel=8, note=37, velocity=95, time=0),
    Message('note_off', channel=8, note=37, velocity=80, time=480),
    Message('note_on', channel=8, note=37, velocity=95, time=0),
    Message('note_off', channel=8, note=37, velocity=80, time=480),
    Message('note_on', channel=8, note=32, velocity=95, time=0),
    Message('note_off', channel=8, note=32, velocity=80, time=480),
    Message('note_on', channel=8, note=32, velocity=95, time=0),
    Message('note_off', channel=8, note=32, velocity=80, time=480),
    Message('note_on', channel=8, note=32, velocity=95, time=0),
    Message('note_off', channel=8, note=32, velocity=80, time=480),
    Message('note_on', channel=8, note=32, velocity=95, time=0),
    Message('note_off', channel=8, note=32, velocity=80, time=480),
    Message('note_on', channel=8, note=39, velocity=95, time=0),
    Message('note_off', channel=8, note=39, velocity=80, time=480),
    Message('note_on', channel=8, note=39, velocity=95, time=0),
    Message('note_off', channel=8, note=39, velocity=80, time=480),
    Message('note_on', channel=8, note=39, velocity=95, time=0),
    Message('note_off', channel=8, note=39, velocity=80, time=480),
    Message('note_on', channel=8, note=39, velocity=95, time=0),
    Message('note_off', channel=8, note=39, velocity=80, time=480),
    Message('note_on', channel=8, note=29, velocity=95, time=0),
    Message('note_off', channel=8, note=29, velocity=80, time=480),
    Message('note_on', channel=8, note=29, velocity=95, time=0),
    Message('note_off', channel=8, note=29, velocity=80, time=480),
    Message('note_on', channel=8, note=29, velocity=95, time=0),
    Message('note_off', channel=8, note=29, velocity=80, time=480),
    Message('note_on', channel=8, note=29, velocity=95, time=0),
    Message('note_off', channel=8, note=29, velocity=80, time=480),
    Message('note_on', channel=8, note=37, velocity=95, time=0),
    Message('note_off', channel=8, note=37, velocity=80, time=480),
    Message('note_on', channel=8, note=37, velocity=95, time=0),
    Message('note_off', channel=8, note=37, velocity=80, time=480),
    Message('note_on', channel=8, note=37, velocity=95, time=0),
    Message('note_off', channel=8, note=37, velocity=80, time=480),
    Message('note_on', channel=8, note=37, velocity=95, time=0),
    Message('note_off', channel=8, note=37, velocity=80, time=480),
    Message('note_on', channel=8, note=32, velocity=95, time=0),
    Message('note_off', channel=8, note=32, velocity=80, time=480),
    Message('note_on', channel=8, note=32, velocity=95, time=0),
    Message('note_off', channel=8, note=32, velocity=80, time=480),
    Message('note_on', channel=8, note=32, velocity=95, time=0),
    Message('note_off', channel=8, note=32, velocity=80, time=480),
    Message('note_on', channel=8, note=32, velocity=95, time=0),
    Message('note_off', channel=8, note=32, velocity=80, time=480),
    Message('note_on', channel=8, note=36, velocity=95, time=0),
    Message('note_off', channel=8, note=36, velocity=80, time=480),
    Message('note_on', channel=8, note=36, velocity=95, time=0),
    Message('note_off', channel=8, note=36, velocity=80, time=480),
    Message('note_on', channel=8, note=36, velocity=95, time=0),
    Message('note_off', channel=8, note=36, velocity=80, time=480),
    Message('note_on', channel=8, note=36, velocity=95, time=0),
    Message('note_off', channel=8, note=36, velocity=80, time=480),
    Message('note_on', channel=8, note=36, velocity=95, time=0),
    Message('note_off', channel=8, note=36, velocity=80, time=480),
    Message('note_on', channel=8, note=36, velocity=95, time=0),
    Message('note_off', channel=8, note=36, velocity=80, time=480),
    Message('note_on', channel=8, note=36, velocity=95, time=0),
    Message('note_off', channel=8, note=36, velocity=80, time=480),
    Message('note_on', channel=8, note=36, velocity=95, time=0),
    Message('note_off', channel=8, note=36, velocity=80, time=480),
    Message('note_on', channel=8, note=36, velocity=95, time=0),
    Message('note_off', channel=8, note=36, velocity=80, time=480),
    Message('note_on', channel=8, note=36, velocity=95, time=0),
    Message('note_off', channel=8, note=36, velocity=80, time=480),
    Message('note_on', channel=8, note=36, velocity=95, time=0),
    Message('note_off', channel=8, note=36, velocity=80, time=480),
    Message('note_on', channel=8, note=36, velocity=95, time=0),
    Message('note_off', channel=8, note=36, velocity=80, time=480),
    Message('note_on', channel=8, note=36, velocity=95, time=0),
    Message('note_off', channel=8, note=36, velocity=80, time=480),
    Message('note_on', channel=8, note=36, velocity=95, time=0),
    Message('note_off', channel=8, note=36, velocity=80, time=480),
    Message('note_on', channel=8, note=36, velocity=95, time=0),
    Message('note_off', channel=8, note=36, velocity=80, time=480),
    Message('note_on', channel=10, note=36, velocity=95, time=0),
    Message('pitchwheel', channel=10, pitch=640, time=384),
    Message('note_off', channel=10, note=36, velocity=80, time=96),
    Message('pitchwheel', channel=10, pitch=0, time=0),
    Message('note_on', channel=8, note=29, velocity=95, time=0),
    Message('note_off', channel=8, note=29, velocity=80, time=960),
    Message('note_on', channel=8, note=29, velocity=95, time=0),
    Message('note_off', channel=8, note=29, velocity=80, time=480),
    Message('note_on', channel=8, note=29, velocity=95, time=0),
    Message('note_off', channel=8, note=29, velocity=80, time=480),
    Message('note_on', channel=8, note=37, velocity=86, time=0),
    Message('note_off', channel=8, note=37, velocity=80, time=960),
    Message('note_on', channel=8, note=37, velocity=95, time=0),
    Message('note_off', channel=8, note=37, velocity=80, time=480),
    Message('note_on', channel=8, note=37, velocity=95, time=0),
    Message('note_off', channel=8, note=37, velocity=80, time=480),
    Message('note_on', channel=8, note=39, velocity=95, time=0),
    Message('note_off', channel=8, note=39, velocity=80, time=960),
    Message('note_on', channel=8, note=39, velocity=95, time=0),
    Message('note_off', channel=8, note=39, velocity=80, time=480),
    Message('note_on', channel=8, note=39, velocity=95, time=0),
    Message('note_off', channel=8, note=39, velocity=80, time=480),
    Message('note_on', channel=8, note=38, velocity=95, time=0),
    Message('note_off', channel=8, note=38, velocity=80, time=960),
    Message('note_on', channel=8, note=38, velocity=95, time=0),
    Message('note_off', channel=8, note=38, velocity=80, time=480),
    Message('note_on', channel=8, note=38, velocity=95, time=0),
    Message('note_off', channel=8, note=38, velocity=80, time=480),
    Message('note_on', channel=8, note=32, velocity=95, time=0),
    Message('note_off', channel=8, note=32, velocity=80, time=960),
    Message('note_on', channel=8, note=32, velocity=95, time=0),
    Message('note_off', channel=8, note=32, velocity=80, time=480),
    Message('note_on', channel=8, note=32, velocity=95, time=0),
    Message('note_off', channel=8, note=32, velocity=80, time=480),
    Message('note_on', channel=8, note=28, velocity=95, time=0),
    Message('note_off', channel=8, note=28, velocity=80, time=960),
    Message('note_on', channel=8, note=28, velocity=95, time=0),
    Message('note_off', channel=8, note=28, velocity=80, time=480),
    Message('note_on', channel=8, note=28, velocity=95, time=0),
    Message('note_off', channel=8, note=28, velocity=80, time=480),
    Message('note_on', channel=8, note=29, velocity=95, time=0),
    Message('note_off', channel=8, note=29, velocity=80, time=960),
    Message('note_on', channel=8, note=29, velocity=95, time=0),
    Message('note_off', channel=8, note=29, velocity=80, time=480),
    Message('note_on', channel=8, note=29, velocity=95, time=0),
    Message('note_off', channel=8, note=29, velocity=80, time=480),
    Message('note_on', channel=8, note=37, velocity=95, time=0),
    Message('note_off', channel=8, note=37, velocity=80, time=960),
    Message('note_on', channel=8, note=37, velocity=95, time=0),
    Message('note_off', channel=8, note=37, velocity=80, time=480),
    Message('note_on', channel=8, note=37, velocity=95, time=0),
    Message('note_off', channel=8, note=37, velocity=80, time=480),
    Message('note_on', channel=8, note=39, velocity=95, time=0),
    Message('note_off', channel=8, note=39, velocity=80, time=960),
    Message('note_on', channel=8, note=39, velocity=95, time=0),
    Message('note_off', channel=8, note=39, velocity=80, time=480),
    Message('note_on', channel=8, note=39, velocity=95, time=0),
    Message('note_off', channel=8, note=39, velocity=80, time=480),
    Message('note_on', channel=8, note=38, velocity=95, time=0),
    Message('note_off', channel=8, note=38, velocity=80, time=960),
    Message('note_on', channel=8, note=38, velocity=95, time=0),
    Message('note_off', channel=8, note=38, velocity=80, time=480),
    Message('note_on', channel=8, note=38, velocity=95, time=0),
    Message('note_off', channel=8, note=38, velocity=80, time=480),
    Message('note_on', channel=8, note=32, velocity=95, time=0),
    Message('note_off', channel=8, note=32, velocity=80, time=960),
    Message('note_on', channel=8, note=32, velocity=95, time=0),
    Message('note_off', channel=8, note=32, velocity=80, time=480),
    Message('note_on', channel=8, note=32, velocity=95, time=0),
    Message('note_off', channel=8, note=32, velocity=80, time=480),
    Message('note_on', channel=8, note=28, velocity=95, time=0),
    Message('note_off', channel=8, note=28, velocity=80, time=960),
    Message('note_on', channel=8, note=28, velocity=95, time=0),
    Message('note_off', channel=8, note=28, velocity=80, time=480),
    Message('note_on', channel=8, note=28, velocity=95, time=0),
    Message('note_off', channel=8, note=28, velocity=80, time=480),
    Message('note_on', channel=8, note=29, velocity=95, time=0),
    Message('note_off', channel=8, note=29, velocity=80, time=960),
    Message('note_on', channel=8, note=29, velocity=95, time=0),
    Message('note_off', channel=8, note=29, velocity=80, time=480),
    Message('note_on', channel=8, note=29, velocity=95, time=0),
    Message('note_off', channel=8, note=29, velocity=80, time=480),
    Message('note_on', channel=8, note=37, velocity=95, time=0),
    Message('note_off', channel=8, note=37, velocity=80, time=960),
    Message('note_on', channel=8, note=37, velocity=95, time=0),
    Message('note_off', channel=8, note=37, velocity=80, time=480),
    Message('note_on', channel=8, note=37, velocity=95, time=0),
    Message('note_off', channel=8, note=37, velocity=80, time=480),
    Message('note_on', channel=8, note=39, velocity=95, time=0),
    Message('note_off', channel=8, note=39, velocity=80, time=960),
    Message('note_on', channel=8, note=39, velocity=95, time=0),
    Message('note_off', channel=8, note=39, velocity=80, time=480),
    Message('note_on', channel=8, note=39, velocity=95, time=0),
    Message('note_off', channel=8, note=39, velocity=80, time=480),
    Message('note_on', channel=8, note=38, velocity=95, time=0),
    Message('note_off', channel=8, note=38, velocity=80, time=960),
    Message('note_on', channel=8, note=38, velocity=95, time=0),
    Message('note_off', channel=8, note=38, velocity=80, time=480),
    Message('note_on', channel=8, note=38, velocity=95, time=0),
    Message('note_off', channel=8, note=38, velocity=80, time=480),
    Message('note_on', channel=8, note=32, velocity=95, time=0),
    Message('note_off', channel=8, note=32, velocity=80, time=960),
    Message('note_on', channel=8, note=32, velocity=95, time=0),
    Message('note_off', channel=8, note=32, velocity=80, time=480),
    Message('note_on', channel=8, note=32, velocity=95, time=0),
    Message('note_off', channel=8, note=32, velocity=80, time=480),
    Message('note_on', channel=8, note=28, velocity=95, time=0),
    Message('note_off', channel=8, note=28, velocity=80, time=960),
    Message('note_on', channel=8, note=28, velocity=95, time=0),
    Message('note_off', channel=8, note=28, velocity=80, time=480),
    Message('note_on', channel=8, note=28, velocity=95, time=0),
    Message('note_off', channel=8, note=28, velocity=80, time=480),
    Message('note_on', channel=8, note=29, velocity=95, time=0),
    Message('note_off', channel=8, note=29, velocity=80, time=960),
    Message('note_on', channel=8, note=29, velocity=95, time=0),
    Message('note_off', channel=8, note=29, velocity=80, time=480),
    Message('note_on', channel=8, note=29, velocity=95, time=0),
    Message('note_off', channel=8, note=29, velocity=80, time=480),
    Message('note_on', channel=8, note=37, velocity=95, time=0),
    Message('note_off', channel=8, note=37, velocity=80, time=960),
    Message('note_on', channel=8, note=37, velocity=95, time=0),
    Message('note_off', channel=8, note=37, velocity=80, time=480),
    Message('note_on', channel=8, note=37, velocity=95, time=0),
    Message('note_off', channel=8, note=37, velocity=80, time=480),
    Message('note_on', channel=8, note=39, velocity=95, time=0),
    Message('note_off', channel=8, note=39, velocity=80, time=960),
    Message('note_on', channel=8, note=39, velocity=95, time=0),
    Message('note_off', channel=8, note=39, velocity=80, time=480),
    Message('note_on', channel=8, note=39, velocity=95, time=0),
    Message('note_off', channel=8, note=39, velocity=80, time=480),
    Message('note_on', channel=8, note=38, velocity=95, time=0),
    Message('note_off', channel=8, note=38, velocity=80, time=960),
    Message('note_on', channel=8, note=38, velocity=95, time=0),
    Message('note_off', channel=8, note=38, velocity=80, time=480),
    Message('note_on', channel=8, note=38, velocity=95, time=0),
    Message('note_off', channel=8, note=38, velocity=80, time=480),
    Message('note_on', channel=8, note=32, velocity=95, time=0),
    Message('note_off', channel=8, note=32, velocity=80, time=480),
    Message('note_on', channel=8, note=32, velocity=95, time=0),
    Message('note_off', channel=8, note=32, velocity=80, time=480),
    Message('note_on', channel=8, note=28, velocity=95, time=0),
    Message('note_off', channel=8, note=28, velocity=80, time=480),
    Message('note_on', channel=8, note=28, velocity=95, time=0),
    Message('note_off', channel=8, note=28, velocity=80, time=480),
    MetaMessage('end_of_track', time=0)]),
  MidiTrack([
    MetaMessage('track_name', name='Tr Cool (Drums)', time=0),
    Message('control_change', channel=9, control=100, value=0, time=0),
    Message('control_change', channel=9, control=101, value=0, time=0),
    Message('control_change', channel=9, control=6, value=12, time=0),
    Message('pitchwheel', channel=9, pitch=0, time=0),
    Message('program_change', channel=9, program=0, time=0),
    Message('control_change', channel=9, control=7, value=104, time=0),
    Message('control_change', channel=9, control=10, value=64, time=0),
    Message('control_change', channel=9, control=93, value=0, time=0),
    Message('control_change', channel=9, control=91, value=0, time=0),
    Message('control_change', channel=9, control=92, value=0, time=0),
    Message('control_change', channel=9, control=95, value=0, time=0),
    Message('control_change', channel=9, control=93, value=127, time=0),
    Message('control_change', channel=9, control=91, value=127, time=0),
    Message('control_change', channel=9, control=93, value=127, time=23040),
    Message('control_change', channel=9, control=91, value=127, time=0),
    Message('note_on', channel=9, note=57, velocity=95, time=0),
    Message('note_on', channel=9, note=49, velocity=95, time=0),
    Message('note_on', channel=9, note=36, velocity=95, time=0),
    Message('note_on', channel=9, note=36, velocity=95, time=0),
    Message('note_off', channel=9, note=57, velocity=80, time=480),
    Message('note_off', channel=9, note=49, velocity=80, time=0),
    Message('note_off', channel=9, note=36, velocity=80, time=0),
    Message('note_off', channel=9, note=36, velocity=80, time=0),
    Message('note_on', channel=9, note=44, velocity=95, time=480),
    Message('note_on', channel=9, note=38, velocity=95, time=0),
    Message('note_on', channel=9, note=38, velocity=95, time=0),
    Message('note_off', channel=9, note=44, velocity=80, time=480),
    Message('note_off', channel=9, note=38, velocity=80, time=0),
    Message('note_off', channel=9, note=38, velocity=80, time=0),
    Message('note_on', channel=9, note=44, velocity=95, time=0),
    Message('note_on', channel=9, note=36, velocity=95, time=0),
    Message('note_on', channel=9, note=36, velocity=95, time=0),
    Message('note_off', channel=9, note=44, velocity=80, time=480),
    Message('note_off', channel=9, note=36, velocity=80, time=0),
    Message('note_off', channel=9, note=36, velocity=80, time=0),
    Message('note_on', channel=9, note=44, velocity=95, time=0),
    Message('note_on', channel=9, note=36, velocity=95, time=0),
    Message('note_on', channel=9, note=36, velocity=95, time=0),
    Message('note_off', channel=9, note=44, velocity=80, time=480),
    Message('note_off', channel=9, note=36, velocity=80, time=0),
    Message('note_off', channel=9, note=36, velocity=80, time=0),
    Message('note_on', channel=9, note=44, velocity=95, time=0),
    Message('note_on', channel=9, note=36, velocity=95, time=0),
    Message('note_on', channel=9, note=36, velocity=95, time=0),
    Message('note_off', channel=9, note=44, velocity=80, time=480),
    Message('note_off', channel=9, note=36, velocity=80, time=0),
    Message('note_off', channel=9, note=36, velocity=80, time=0),
    Message('note_on', channel=9, note=44, velocity=95, time=0),
    Message('note_on', channel=9, note=38, velocity=95, time=0),
    Message('note_on', channel=9, note=38, velocity=95, time=0),
    Message('note_off', channel=9, note=44, velocity=80, time=480),
    Message('note_off', channel=9, note=38, velocity=80, time=0),
    Message('note_off', channel=9, note=38, velocity=80, time=0),
    Message('note_on', channel=9, note=44, velocity=95, time=0),
    Message('note_on', channel=9, note=36, velocity=95, time=0),
    Message('note_on', channel=9, note=36, velocity=95, time=0),
    Message('note_off', channel=9, note=44, velocity=80, time=480),
    Message('note_off', channel=9, note=36, velocity=80, time=0),
    Message('note_off', channel=9, note=36, velocity=80, time=0),
    Message('note_on', channel=9, note=44, velocity=95, time=0),
    Message('note_on', channel=9, note=36, velocity=95, time=0),
    Message('note_on', channel=9, note=36, velocity=95, time=0),
    Message('note_off', channel=9, note=44, velocity=80, time=480),
    Message('note_off', channel=9, note=36, velocity=80, time=0),
    Message('note_off', channel=9, note=36, velocity=80, time=0),
    Message('note_on', channel=9, note=44, velocity=95, time=0),
    Message('note_on', channel=9, note=36, velocity=95, time=0),
    Message('note_on', channel=9, note=36, velocity=95, time=0),
    Message('note_off', channel=9, note=44, velocity=80, time=480),
    Message('note_off', channel=9, note=36, velocity=80, time=0),
    Message('note_off', channel=9, note=36, velocity=80, time=0),
    Message('note_on', channel=9, note=44, velocity=95, time=0),
    Message('note_on', channel=9, note=38, velocity=95, time=0),
    Message('note_on', channel=9, note=38, velocity=95, time=0),
    Message('note_off', channel=9, note=44, velocity=80, time=480),
    Message('note_off', channel=9, note=38, velocity=80, time=0),
    Message('note_off', channel=9, note=38, velocity=80, time=0),
    Message('note_on', channel=9, note=44, velocity=95, time=0),
    Message('note_on', channel=9, note=36, velocity=95, time=0),
    Message('note_on', channel=9, note=36, velocity=95, time=0),
    Message('note_off', channel=9, note=44, velocity=80, time=480),
    Message('note_off', channel=9, note=36, velocity=80, time=0),
    Message('note_off', channel=9, note=36, velocity=80, time=0),
    Message('note_on', channel=9, note=44, velocity=95, time=0),
    Message('note_on', channel=9, note=36, velocity=95, time=0),
    Message('note_on', channel=9, note=36, velocity=95, time=0),
    Message('note_off', channel=9, note=44, velocity=80, time=480),
    Message('note_off', channel=9, note=36, velocity=80, time=0),
    Message('note_off', channel=9, note=36, velocity=80, time=0),
    Message('note_on', channel=9, note=44, velocity=95, time=0),
    Message('note_on', channel=9, note=36, velocity=95, time=0),
    Message('note_on', channel=9, note=36, velocity=95, time=0),
    Message('note_off', channel=9, note=44, velocity=80, time=480),
    Message('note_off', channel=9, note=36, velocity=80, time=0),
    Message('note_off', channel=9, note=36, velocity=80, time=0),
    Message('note_on', channel=9, note=44, velocity=95, time=0),
    Message('note_on', channel=9, note=38, velocity=95, time=0),
    Message('note_on', channel=9, note=38, velocity=95, time=0),
    Message('note_off', channel=9, note=44, velocity=80, time=480),
    Message('note_off', channel=9, note=38, velocity=80, time=0),
    Message('note_off', channel=9, note=38, velocity=80, time=0),
    Message('note_on', channel=9, note=44, velocity=95, time=0),
    Message('note_on', channel=9, note=36, velocity=95, time=0),
    Message('note_on', channel=9, note=36, velocity=95, time=0),
    Message('note_off', channel=9, note=44, velocity=80, time=480),
    Message('note_off', channel=9, note=36, velocity=80, time=0),
    Message('note_off', channel=9, note=36, velocity=80, time=0),
    Message('note_on', channel=9, note=44, velocity=95, time=0),
    Message('note_on', channel=9, note=36, velocity=95, time=0),
    Message('note_on', channel=9, note=36, velocity=95, time=0),
    Message('note_off', channel=9, note=44, velocity=80, time=480),
    Message('note_off', channel=9, note=36, velocity=80, time=0),
    Message('note_off', channel=9, note=36, velocity=80, time=0),
    Message('note_on', channel=9, note=44, velocity=95, time=0),
    Message('note_on', channel=9, note=36, velocity=95, time=0),
    Message('note_on', channel=9, note=36, velocity=95, time=0),
    Message('note_off', channel=9, note=44, velocity=80, time=480),
    Message('note_off', channel=9, note=36, velocity=80, time=0),
    Message('note_off', channel=9, note=36, velocity=80, time=0),
    Message('note_on', channel=9, note=44, velocity=95, time=0),
    Message('note_on', channel=9, note=38, velocity=95, time=0),
    Message('note_on', channel=9, note=38, velocity=95, time=0),
    Message('note_off', channel=9, note=44, velocity=80, time=480),
    Message('note_off', channel=9, note=38, velocity=80, time=0),
    Message('note_off', channel=9, note=38, velocity=80, time=0),
    Message('note_on', channel=9, note=44, velocity=95, time=0),
    Message('note_on', channel=9, note=36, velocity=95, time=0),
    Message('note_on', channel=9, note=36, velocity=95, time=0),
    Message('note_off', channel=9, note=44, velocity=80, time=480),
    Message('note_off', channel=9, note=36, velocity=80, time=0),
    Message('note_off', channel=9, note=36, velocity=80, time=0),
    Message('note_on', channel=9, note=44, velocity=95, time=0),
    Message('note_on', channel=9, note=36, velocity=95, time=0),
    Message('note_on', channel=9, note=36, velocity=95, time=0),
    Message('note_off', channel=9, note=44, velocity=80, time=480),
    Message('note_off', channel=9, note=36, velocity=80, time=0),
    Message('note_off', channel=9, note=36, velocity=80, time=0),
    Message('note_on', channel=9, note=44, velocity=95, time=0),
    Message('note_on', channel=9, note=36, velocity=95, time=0),
    Message('note_on', channel=9, note=36, velocity=95, time=0),
    Message('note_off', channel=9, note=44, velocity=80, time=480),
    Message('note_off', channel=9, note=36, velocity=80, time=0),
    Message('note_off', channel=9, note=36, velocity=80, time=0),
    Message('note_on', channel=9, note=44, velocity=95, time=0),
    Message('note_on', channel=9, note=38, velocity=95, time=0),
    Message('note_on', channel=9, note=38, velocity=95, time=0),
    Message('note_off', channel=9, note=44, velocity=80, time=480),
    Message('note_off', channel=9, note=38, velocity=80, time=0),
    Message('note_off', channel=9, note=38, velocity=80, time=0),
    Message('note_on', channel=9, note=44, velocity=95, time=0),
    Message('note_on', channel=9, note=36, velocity=95, time=0),
    Message('note_on', channel=9, note=36, velocity=95, time=0),
    Message('note_off', channel=9, note=44, velocity=80, time=480),
    Message('note_off', channel=9, note=36, velocity=80, time=0),
    Message('note_off', channel=9, note=36, velocity=80, time=0),
    Message('note_on', channel=9, note=44, velocity=95, time=0),
    Message('note_on', channel=9, note=36, velocity=95, time=0),
    Message('note_on', channel=9, note=36, velocity=95, time=0),
    Message('note_off', channel=9, note=44, velocity=80, time=480),
    Message('note_off', channel=9, note=36, velocity=80, time=0),
    Message('note_off', channel=9, note=36, velocity=80, time=0),
    Message('note_on', channel=9, note=44, velocity=95, time=0),
    Message('note_on', channel=9, note=36, velocity=95, time=0),
    Message('note_on', channel=9, note=36, velocity=95, time=0),
    Message('note_off', channel=9, note=44, velocity=80, time=480),
    Message('note_off', channel=9, note=36, velocity=80, time=0),
    Message('note_off', channel=9, note=36, velocity=80, time=0),
    Message('note_on', channel=9, note=44, velocity=95, time=0),
    Message('note_on', channel=9, note=38, velocity=95, time=0),
    Message('note_on', channel=9, note=38, velocity=95, time=0),
    Message('note_off', channel=9, note=44, velocity=80, time=480),
    Message('note_off', channel=9, note=38, velocity=80, time=0),
    Message('note_off', channel=9, note=38, velocity=80, time=0),
    Message('note_on', channel=9, note=44, velocity=95, time=0),
    Message('note_on', channel=9, note=36, velocity=95, time=0),
    Message('note_on', channel=9, note=36, velocity=95, time=0),
    Message('note_off', channel=9, note=44, velocity=80, time=480),
    Message('note_off', channel=9, note=36, velocity=80, time=0),
    Message('note_off', channel=9, note=36, velocity=80, time=0),
    Message('note_on', channel=9, note=44, velocity=95, time=0),
    Message('note_on', channel=9, note=36, velocity=95, time=0),
    Message('note_on', channel=9, note=36, velocity=95, time=0),
    Message('note_off', channel=9, note=44, velocity=80, time=480),
    Message('note_off', channel=9, note=36, velocity=80, time=0),
    Message('note_off', channel=9, note=36, velocity=80, time=0),
    Message('note_on', channel=9, note=44, velocity=95, time=0),
    Message('note_on', channel=9, note=36, velocity=95, time=0),
    Message('note_on', channel=9, note=36, velocity=95, time=0),
    Message('note_off', channel=9, note=44, velocity=80, time=480),
    Message('note_off', channel=9, note=36, velocity=80, time=0),
    Message('note_off', channel=9, note=36, velocity=80, time=0),
    Message('note_on', channel=9, note=44, velocity=95, time=0),
    Message('note_on', channel=9, note=38, velocity=95, time=0),
    Message('note_on', channel=9, note=38, velocity=95, time=0),
    Message('note_off', channel=9, note=44, velocity=80, time=480),
    Message('note_off', channel=9, note=38, velocity=80, time=0),
    Message('note_off', channel=9, note=38, velocity=80, time=0),
    Message('note_on', channel=9, note=44, velocity=95, time=0),
    Message('note_on', channel=9, note=36, velocity=95, time=0),
    Message('note_on', channel=9, note=36, velocity=95, time=0),
    Message('note_off', channel=9, note=44, velocity=80, time=480),
    Message('note_off', channel=9, note=36, velocity=80, time=0),
    Message('note_off', channel=9, note=36, velocity=80, time=0),
    Message('note_on', channel=9, note=57, velocity=95, time=0),
    Message('note_on', channel=9, note=49, velocity=95, time=0),
    Message('note_on', channel=9, note=36, velocity=95, time=0),
    Message('note_on', channel=9, note=36, velocity=95, time=0),
    Message('note_off', channel=9, note=57, velocity=80, time=480),
    Message('note_off', channel=9, note=49, velocity=80, time=0),
    Message('note_off', channel=9, note=36, velocity=80, time=0),
    Message('note_off', channel=9, note=36, velocity=80, time=0),
    Message('note_on', channel=9, note=44, velocity=95, time=480),
    Message('note_on', channel=9, note=38, velocity=95, time=0),
    Message('note_on', channel=9, note=38, velocity=95, time=0),
    Message('note_off', channel=9, note=44, velocity=80, time=480),
    Message('note_off', channel=9, note=38, velocity=80, time=0),
    Message('note_off', channel=9, note=38, velocity=80, time=0),
    Message('note_on', channel=9, note=44, velocity=95, time=0),
    Message('note_on', channel=9, note=36, velocity=95, time=0),
    Message('note_on', channel=9, note=36, velocity=95, time=0),
    Message('note_off', channel=9, note=44, velocity=80, time=480),
    Message('note_off', channel=9, note=36, velocity=80, time=0),
    Message('note_off', channel=9, note=36, velocity=80, time=0),
    Message('note_on', channel=9, note=44, velocity=95, time=0),
    Message('note_on', channel=9, note=36, velocity=95, time=0),
    Message('note_on', channel=9, note=36, velocity=95, time=0),
    Message('note_off', channel=9, note=44, velocity=80, time=480),
    Message('note_off', channel=9, note=36, velocity=80, time=0),
    Message('note_off', channel=9, note=36, velocity=80, time=0),
    Message('note_on', channel=9, note=44, velocity=95, time=0),
    Message('note_on', channel=9, note=36, velocity=95, time=0),
    Message('note_on', channel=9, note=36, velocity=95, time=0),
    Message('note_off', channel=9, note=44, velocity=80, time=480),
    Message('note_off', channel=9, note=36, velocity=80, time=0),
    Message('note_off', channel=9, note=36, velocity=80, time=0),
    Message('note_on', channel=9, note=44, velocity=95, time=0),
    Message('note_on', channel=9, note=38, velocity=95, time=0),
    Message('note_on', channel=9, note=38, velocity=95, time=0),
    Message('note_off', channel=9, note=44, velocity=80, time=480),
    Message('note_off', channel=9, note=38, velocity=80, time=0),
    Message('note_off', channel=9, note=38, velocity=80, time=0),
    Message('note_on', channel=9, note=44, velocity=95, time=0),
    Message('note_on', channel=9, note=36, velocity=95, time=0),
    Message('note_on', channel=9, note=36, velocity=95, time=0),
    Message('note_off', channel=9, note=44, velocity=80, time=480),
    Message('note_off', channel=9, note=36, velocity=80, time=0),
    Message('note_off', channel=9, note=36, velocity=80, time=0),
    Message('note_on', channel=9, note=44, velocity=95, time=0),
    Message('note_on', channel=9, note=36, velocity=95, time=0),
    Message('note_on', channel=9, note=36, velocity=95, time=0),
    Message('note_off', channel=9, note=44, velocity=80, time=480),
    Message('note_off', channel=9, note=36, velocity=80, time=0),
    Message('note_off', channel=9, note=36, velocity=80, time=0),
    Message('note_on', channel=9, note=44, velocity=95, time=0),
    Message('note_on', channel=9, note=36, velocity=95, time=0),
    Message('note_on', channel=9, note=36, velocity=95, time=0),
    Message('note_off', channel=9, note=44, velocity=80, time=480),
    Message('note_off', channel=9, note=36, velocity=80, time=0),
    Message('note_off', channel=9, note=36, velocity=80, time=0),
    Message('note_on', channel=9, note=44, velocity=95, time=0),
    Message('note_on', channel=9, note=38, velocity=95, time=0),
    Message('note_on', channel=9, note=38, velocity=95, time=0),
    Message('note_off', channel=9, note=44, velocity=80, time=480),
    Message('note_off', channel=9, note=38, velocity=80, time=0),
    Message('note_off', channel=9, note=38, velocity=80, time=0),
    Message('note_on', channel=9, note=44, velocity=95, time=0),
    Message('note_on', channel=9, note=36, velocity=95, time=0),
    Message('note_on', channel=9, note=36, velocity=95, time=0),
    Message('note_off', channel=9, note=44, velocity=80, time=480),
    Message('note_off', channel=9, note=36, velocity=80, time=0),
    Message('note_off', channel=9, note=36, velocity=80, time=0),
    Message('note_on', channel=9, note=44, velocity=95, time=0),
    Message('note_on', channel=9, note=36, velocity=95, time=0),
    Message('note_on', channel=9, note=36, velocity=95, time=0),
    Message('note_off', channel=9, note=44, velocity=80, time=480),
    Message('note_off', channel=9, note=36, velocity=80, time=0),
    Message('note_off', channel=9, note=36, velocity=80, time=0),
    Message('note_on', channel=9, note=44, velocity=95, time=0),
    Message('note_on', channel=9, note=36, velocity=95, time=0),
    Message('note_on', channel=9, note=36, velocity=95, time=0),
    Message('note_off', channel=9, note=44, velocity=80, time=480),
    Message('note_off', channel=9, note=36, velocity=80, time=0),
    Message('note_off', channel=9, note=36, velocity=80, time=0),
    Message('note_on', channel=9, note=44, velocity=95, time=0),
    Message('note_on', channel=9, note=38, velocity=95, time=0),
    Message('note_on', channel=9, note=38, velocity=95, time=0),
    Message('note_off', channel=9, note=44, velocity=80, time=480),
    Message('note_off', channel=9, note=38, velocity=80, time=0),
    Message('note_off', channel=9, note=38, velocity=80, time=0),
    Message('note_on', channel=9, note=44, velocity=95, time=0),
    Message('note_on', channel=9, note=36, velocity=95, time=0),
    Message('note_on', channel=9, note=36, velocity=95, time=0),
    Message('note_off', channel=9, note=44, velocity=80, time=480),
    Message('note_off', channel=9, note=36, velocity=80, time=0),
    Message('note_off', channel=9, note=36, velocity=80, time=0),
    Message('note_on', channel=9, note=44, velocity=95, time=0),
    Message('note_on', channel=9, note=36, velocity=95, time=0),
    Message('note_on', channel=9, note=36, velocity=95, time=0),
    Message('note_off', channel=9, note=44, velocity=80, time=480),
    Message('note_off', channel=9, note=36, velocity=80, time=0),
    Message('note_off', channel=9, note=36, velocity=80, time=0),
    Message('note_on', channel=9, note=44, velocity=95, time=0),
    Message('note_on', channel=9, note=36, velocity=95, time=0),
    Message('note_on', channel=9, note=36, velocity=95, time=0),
    Message('note_off', channel=9, note=44, velocity=80, time=480),
    Message('note_off', channel=9, note=36, velocity=80, time=0),
    Message('note_off', channel=9, note=36, velocity=80, time=0),
    Message('note_on', channel=9, note=44, velocity=95, time=0),
    Message('note_on', channel=9, note=38, velocity=95, time=0),
    Message('note_on', channel=9, note=38, velocity=95, time=0),
    Message('note_off', channel=9, note=44, velocity=80, time=480),
    Message('note_off', channel=9, note=38, velocity=80, time=0),
    Message('note_off', channel=9, note=38, velocity=80, time=0),
    Message('note_on', channel=9, note=44, velocity=95, time=0),
    Message('note_on', channel=9, note=36, velocity=95, time=0),
    Message('note_on', channel=9, note=36, velocity=95, time=0),
    Message('note_off', channel=9, note=44, velocity=80, time=480),
    Message('note_off', channel=9, note=36, velocity=80, time=0),
    Message('note_off', channel=9, note=36, velocity=80, time=0),
    Message('note_on', channel=9, note=44, velocity=95, time=0),
    Message('note_on', channel=9, note=36, velocity=95, time=0),
    Message('note_on', channel=9, note=36, velocity=95, time=0),
    Message('note_off', channel=9, note=44, velocity=80, time=480),
    Message('note_off', channel=9, note=36, velocity=80, time=0),
    Message('note_off', channel=9, note=36, velocity=80, time=0),
    Message('note_on', channel=9, note=44, velocity=95, time=0),
    Message('note_on', channel=9, note=36, velocity=95, time=0),
    Message('note_on', channel=9, note=36, velocity=95, time=0),
    Message('note_off', channel=9, note=44, velocity=80, time=480),
    Message('note_off', channel=9, note=36, velocity=80, time=0),
    Message('note_off', channel=9, note=36, velocity=80, time=0),
    Message('note_on', channel=9, note=44, velocity=95, time=0),
    Message('note_on', channel=9, note=38, velocity=95, time=0),
    Message('note_on', channel=9, note=38, velocity=95, time=0),
    Message('note_off', channel=9, note=44, velocity=80, time=480),
    Message('note_off', channel=9, note=38, velocity=80, time=0),
    Message('note_off', channel=9, note=38, velocity=80, time=0),
    Message('note_on', channel=9, note=44, velocity=95, time=0),
    Message('note_on', channel=9, note=36, velocity=95, time=0),
    Message('note_on', channel=9, note=36, velocity=95, time=0),
    Message('note_off', channel=9, note=44, velocity=80, time=480),
    Message('note_off', channel=9, note=36, velocity=80, time=0),
    Message('note_off', channel=9, note=36, velocity=80, time=0),
    Message('note_on', channel=9, note=44, velocity=95, time=0),
    Message('note_on', channel=9, note=36, velocity=95, time=0),
    Message('note_on', channel=9, note=36, velocity=95, time=0),
    Message('note_off', channel=9, note=44, velocity=80, time=480),
    Message('note_off', channel=9, note=36, velocity=80, time=0),
    Message('note_off', channel=9, note=36, velocity=80, time=0),
    Message('note_on', channel=9, note=44, velocity=95, time=0),
    Message('note_on', channel=9, note=36, velocity=95, time=0),
    Message('note_on', channel=9, note=36, velocity=95, time=0),
    Message('note_off', channel=9, note=44, velocity=80, time=480),
    Message('note_off', channel=9, note=36, velocity=80, time=0),
    Message('note_off', channel=9, note=36, velocity=80, time=0),
    Message('note_on', channel=9, note=44, velocity=95, time=0),
    Message('note_on', channel=9, note=38, velocity=95, time=0),
    Message('note_on', channel=9, note=38, velocity=95, time=0),
    Message('note_off', channel=9, note=44, velocity=80, time=480),
    Message('note_off', channel=9, note=38, velocity=80, time=0),
    Message('note_off', channel=9, note=38, velocity=80, time=0),
    Message('note_on', channel=9, note=44, velocity=95, time=0),
    Message('note_on', channel=9, note=36, velocity=95, time=0),
    Message('note_on', channel=9, note=36, velocity=95, time=0),
    Message('note_off', channel=9, note=44, velocity=80, time=480),
    Message('note_off', channel=9, note=36, velocity=80, time=0),
    Message('note_off', channel=9, note=36, velocity=80, time=0),
    Message('note_on', channel=9, note=44, velocity=95, time=0),
    Message('note_on', channel=9, note=36, velocity=95, time=0),
    Message('note_on', channel=9, note=36, velocity=95, time=0),
    Message('note_off', channel=9, note=44, velocity=80, time=480),
    Message('note_off', channel=9, note=36, velocity=80, time=0),
    Message('note_off', channel=9, note=36, velocity=80, time=0),
    Message('note_on', channel=9, note=44, velocity=95, time=0),
    Message('note_on', channel=9, note=36, velocity=95, time=0),
    Message('note_on', channel=9, note=36, velocity=95, time=0),
    Message('note_off', channel=9, note=44, velocity=80, time=480),
    Message('note_off', channel=9, note=36, velocity=80, time=0),
    Message('note_off', channel=9, note=36, velocity=80, time=0),
    Message('note_on', channel=9, note=44, velocity=95, time=0),
    Message('note_on', channel=9, note=38, velocity=95, time=0),
    Message('note_on', channel=9, note=38, velocity=95, time=0),
    Message('note_off', channel=9, note=44, velocity=80, time=480),
    Message('note_off', channel=9, note=38, velocity=80, time=0),
    Message('note_off', channel=9, note=38, velocity=80, time=0),
    Message('note_on', channel=9, note=44, velocity=95, time=0),
    Message('note_on', channel=9, note=36, velocity=95, time=0),
    Message('note_on', channel=9, note=36, velocity=95, time=0),
    Message('note_off', channel=9, note=44, velocity=80, time=480),
    Message('note_off', channel=9, note=36, velocity=80, time=0),
    Message('note_off', channel=9, note=36, velocity=80, time=0),
    Message('note_on', channel=9, note=44, velocity=95, time=0),
    Message('note_on', channel=9, note=36, velocity=95, time=0),
    Message('note_on', channel=9, note=36, velocity=95, time=0),
    Message('note_off', channel=9, note=44, velocity=80, time=480),
    Message('note_off', channel=9, note=36, velocity=80, time=0),
    Message('note_off', channel=9, note=36, velocity=80, time=0),
    Message('note_on', channel=9, note=44, velocity=95, time=0),
    Message('note_on', channel=9, note=36, velocity=95, time=0),
    Message('note_on', channel=9, note=36, velocity=95, time=0),
    Message('note_off', channel=9, note=44, velocity=80, time=480),
    Message('note_off', channel=9, note=36, velocity=80, time=0),
    Message('note_off', channel=9, note=36, velocity=80, time=0),
    Message('note_on', channel=9, note=44, velocity=95, time=0),
    Message('note_on', channel=9, note=38, velocity=95, time=0),
    Message('note_on', channel=9, note=38, velocity=95, time=0),
    Message('note_off', channel=9, note=44, velocity=80, time=480),
    Message('note_off', channel=9, note=38, velocity=80, time=0),
    Message('note_off', channel=9, note=38, velocity=80, time=0),
    Message('note_on', channel=9, note=44, velocity=95, time=0),
    Message('note_on', channel=9, note=36, velocity=95, time=0),
    Message('note_on', channel=9, note=36, velocity=95, time=0),
    Message('note_off', channel=9, note=44, velocity=80, time=480),
    Message('note_off', channel=9, note=36, velocity=80, time=0),
    Message('note_off', channel=9, note=36, velocity=80, time=0),
    Message('note_on', channel=9, note=44, velocity=95, time=0),
    Message('note_on', channel=9, note=36, velocity=95, time=0),
    Message('note_on', channel=9, note=36, velocity=95, time=0),
    Message('note_off', channel=9, note=44, velocity=80, time=480),
    Message('note_off', channel=9, note=36, velocity=80, time=0),
    Message('note_off', channel=9, note=36, velocity=80, time=0),
    Message('note_on', channel=9, note=44, velocity=95, time=0),
    Message('note_on', channel=9, note=36, velocity=95, time=0),
    Message('note_on', channel=9, note=36, velocity=95, time=0),
    Message('note_off', channel=9, note=44, velocity=80, time=480),
    Message('note_off', channel=9, note=36, velocity=80, time=0),
    Message('note_off', channel=9, note=36, velocity=80, time=0),
    Message('note_on', channel=9, note=44, velocity=95, time=0),
    Message('note_on', channel=9, note=38, velocity=95, time=0),
    Message('note_on', channel=9, note=38, velocity=95, time=0),
    Message('note_off', channel=9, note=44, velocity=80, time=480),
    Message('note_off', channel=9, note=38, velocity=80, time=0),
    Message('note_off', channel=9, note=38, velocity=80, time=0),
    Message('note_on', channel=9, note=44, velocity=95, time=0),
    Message('note_on', channel=9, note=36, velocity=95, time=0),
    Message('note_on', channel=9, note=36, velocity=95, time=0),
    Message('note_off', channel=9, note=44, velocity=80, time=480),
    Message('note_off', channel=9, note=36, velocity=80, time=0),
    Message('note_off', channel=9, note=36, velocity=80, time=0),
    Message('note_on', channel=9, note=44, velocity=95, time=0),
    Message('note_on', channel=9, note=36, velocity=95, time=0),
    Message('note_on', channel=9, note=36, velocity=95, time=0),
    Message('note_off', channel=9, note=44, velocity=80, time=480),
    Message('note_off', channel=9, note=36, velocity=80, time=0),
    Message('note_off', channel=9, note=36, velocity=80, time=0),
    Message('note_on', channel=9, note=44, velocity=95, time=0),
    Message('note_on', channel=9, note=36, velocity=95, time=0),
    Message('note_on', channel=9, note=36, velocity=95, time=0),
    Message('note_off', channel=9, note=44, velocity=80, time=480),
    Message('note_off', channel=9, note=36, velocity=80, time=0),
    Message('note_off', channel=9, note=36, velocity=80, time=0),
    Message('note_on', channel=9, note=44, velocity=95, time=0),
    Message('note_on', channel=9, note=38, velocity=95, time=0),
    Message('note_on', channel=9, note=38, velocity=95, time=0),
    Message('note_off', channel=9, note=44, velocity=80, time=480),
    Message('note_off', channel=9, note=38, velocity=80, time=0),
    Message('note_off', channel=9, note=38, velocity=80, time=0),
    Message('note_on', channel=9, note=44, velocity=95, time=0),
    Message('note_on', channel=9, note=36, velocity=95, time=0),
    Message('note_on', channel=9, note=36, velocity=95, time=0),
    Message('note_off', channel=9, note=44, velocity=80, time=480),
    Message('note_off', channel=9, note=36, velocity=80, time=0),
    Message('note_off', channel=9, note=36, velocity=80, time=0),
    Message('note_on', channel=9, note=44, velocity=95, time=0),
    Message('note_on', channel=9, note=36, velocity=95, time=0),
    Message('note_on', channel=9, note=36, velocity=95, time=0),
    Message('note_off', channel=9, note=44, velocity=80, time=480),
    Message('note_off', channel=9, note=36, velocity=80, time=0),
    Message('note_off', channel=9, note=36, velocity=80, time=0),
    Message('note_on', channel=9, note=44, velocity=95, time=0),
    Message('note_on', channel=9, note=36, velocity=95, time=0),
    Message('note_on', channel=9, note=36, velocity=95, time=0),
    Message('note_off', channel=9, note=44, velocity=80, time=480),
    Message('note_off', channel=9, note=36, velocity=80, time=0),
    Message('note_off', channel=9, note=36, velocity=80, time=0),
    Message('note_on', channel=9, note=44, velocity=95, time=0),
    Message('note_on', channel=9, note=38, velocity=95, time=0),
    Message('note_on', channel=9, note=38, velocity=95, time=0),
    Message('note_off', channel=9, note=44, velocity=80, time=480),
    Message('note_off', channel=9, note=38, velocity=80, time=0),
    Message('note_off', channel=9, note=38, velocity=80, time=0),
    Message('note_on', channel=9, note=44, velocity=95, time=0),
    Message('note_on', channel=9, note=36, velocity=95, time=0),
    Message('note_on', channel=9, note=36, velocity=95, time=0),
    Message('note_off', channel=9, note=44, velocity=80, time=480),
    Message('note_off', channel=9, note=36, velocity=80, time=0),
    Message('note_off', channel=9, note=36, velocity=80, time=0),
    Message('note_on', channel=9, note=44, velocity=95, time=0),
    Message('note_on', channel=9, note=36, velocity=95, time=0),
    Message('note_on', channel=9, note=36, velocity=95, time=0),
    Message('note_off', channel=9, note=44, velocity=80, time=480),
    Message('note_off', channel=9, note=36, velocity=80, time=0),
    Message('note_off', channel=9, note=36, velocity=80, time=0),
    Message('note_on', channel=9, note=44, velocity=95, time=0),
    Message('note_on', channel=9, note=36, velocity=95, time=0),
    Message('note_on', channel=9, note=36, velocity=95, time=0),
    Message('note_off', channel=9, note=44, velocity=80, time=480),
    Message('note_off', channel=9, note=36, velocity=80, time=0),
    Message('note_off', channel=9, note=36, velocity=80, time=0),
    Message('note_on', channel=9, note=44, velocity=95, time=0),
    Message('note_on', channel=9, note=38, velocity=95, time=0),
    Message('note_on', channel=9, note=38, velocity=95, time=0),
    Message('note_off', channel=9, note=44, velocity=80, time=480),
    Message('note_off', channel=9, note=38, velocity=80, time=0),
    Message('note_off', channel=9, note=38, velocity=80, time=0),
    Message('note_on', channel=9, note=44, velocity=95, time=0),
    Message('note_on', channel=9, note=36, velocity=95, time=0),
    Message('note_on', channel=9, note=36, velocity=95, time=0),
    Message('note_off', channel=9, note=44, velocity=80, time=480),
    Message('note_off', channel=9, note=36, velocity=80, time=0),
    Message('note_off', channel=9, note=36, velocity=80, time=0),
    Message('note_on', channel=9, note=44, velocity=95, time=0),
    Message('note_on', channel=9, note=36, velocity=95, time=0),
    Message('note_on', channel=9, note=36, velocity=95, time=0),
    Message('note_off', channel=9, note=44, velocity=80, time=480),
    Message('note_off', channel=9, note=36, velocity=80, time=0),
    Message('note_off', channel=9, note=36, velocity=80, time=0),
    Message('note_on', channel=9, note=44, velocity=95, time=0),
    Message('note_on', channel=9, note=36, velocity=95, time=0),
    Message('note_on', channel=9, note=36, velocity=95, time=0),
    Message('note_off', channel=9, note=44, velocity=80, time=480),
    Message('note_off', channel=9, note=36, velocity=80, time=0),
    Message('note_off', channel=9, note=36, velocity=80, time=0),
    Message('note_on', channel=9, note=44, velocity=95, time=0),
    Message('note_on', channel=9, note=38, velocity=95, time=0),
    Message('note_on', channel=9, note=38, velocity=95, time=0),
    Message('note_off', channel=9, note=44, velocity=80, time=480),
    Message('note_off', channel=9, note=38, velocity=80, time=0),
    Message('note_off', channel=9, note=38, velocity=80, time=0),
    Message('note_on', channel=9, note=44, velocity=95, time=0),
    Message('note_on', channel=9, note=36, velocity=95, time=0),
    Message('note_on', channel=9, note=36, velocity=95, time=0),
    Message('note_off', channel=9, note=44, velocity=80, time=480),
    Message('note_off', channel=9, note=36, velocity=80, time=0),
    Message('note_off', channel=9, note=36, velocity=80, time=0),
    Message('note_on', channel=9, note=44, velocity=95, time=0),
    Message('note_on', channel=9, note=36, velocity=95, time=0),
    Message('note_on', channel=9, note=36, velocity=95, time=0),
    Message('note_off', channel=9, note=44, velocity=80, time=480),
    Message('note_off', channel=9, note=36, velocity=80, time=0),
    Message('note_off', channel=9, note=36, velocity=80, time=0),
    Message('note_on', channel=9, note=44, velocity=95, time=0),
    Message('note_on', channel=9, note=36, velocity=95, time=0),
    Message('note_on', channel=9, note=36, velocity=95, time=0),
    Message('note_off', channel=9, note=44, velocity=80, time=480),
    Message('note_off', channel=9, note=36, velocity=80, time=0),
    Message('note_off', channel=9, note=36, velocity=80, time=0),
    Message('note_on', channel=9, note=49, velocity=95, time=0),
    Message('note_on', channel=9, note=57, velocity=95, time=0),
    Message('note_on', channel=9, note=38, velocity=95, time=0),
    Message('note_on', channel=9, note=38, velocity=95, time=0),
    Message('note_off', channel=9, note=49, velocity=80, time=960),
    Message('note_off', channel=9, note=57, velocity=80, time=0),
    Message('note_off', channel=9, note=38, velocity=80, time=0),
    Message('note_off', channel=9, note=38, velocity=80, time=0),
    Message('note_on', channel=9, note=49, velocity=95, time=0),
    Message('note_on', channel=9, note=36, velocity=95, time=0),
    Message('note_on', channel=9, note=36, velocity=95, time=0),
    Message('note_off', channel=9, note=49, velocity=80, time=480),
    Message('note_off', channel=9, note=36, velocity=80, time=0),
    Message('note_off', channel=9, note=36, velocity=80, time=0),
    Message('note_on', channel=9, note=49, velocity=95, time=0),
    Message('note_on', channel=9, note=36, velocity=95, time=0),
    Message('note_on', channel=9, note=36, velocity=95, time=0),
    Message('note_off', channel=9, note=49, velocity=80, time=480),
    Message('note_off', channel=9, note=36, velocity=80, time=0),
    Message('note_off', channel=9, note=36, velocity=80, time=0),
    Message('note_on', channel=9, note=38, velocity=95, time=0),
    Message('note_on', channel=9, note=38, velocity=95, time=0),
    Message('note_off', channel=9, note=38, velocity=80, time=240),
    Message('note_off', channel=9, note=38, velocity=80, time=0),
    Message('note_on', channel=9, note=38, velocity=95, time=0),
    Message('note_on', channel=9, note=38, velocity=95, time=0),
    Message('note_off', channel=9, note=38, velocity=80, time=240),
    Message('note_off', channel=9, note=38, velocity=80, time=0),
    Message('note_on', channel=9, note=38, velocity=95, time=0),
    Message('note_on', channel=9, note=38, velocity=95, time=0),
    Message('note_off', channel=9, note=38, velocity=80, time=240),
    Message('note_off', channel=9, note=38, velocity=80, time=0),
    Message('note_on', channel=9, note=38, velocity=95, time=0),
    Message('note_on', channel=9, note=38, velocity=95, time=0),
    Message('note_off', channel=9, note=38, velocity=80, time=240),
    Message('note_off', channel=9, note=38, velocity=80, time=0),
    Message('note_on', channel=9, note=57, velocity=95, time=0),
    Message('note_on', channel=9, note=49, velocity=95, time=0),
    Message('note_on', channel=9, note=36, velocity=95, time=0),
    Message('note_on', channel=9, note=36, velocity=95, time=0),
    Message('note_off', channel=9, note=57, velocity=80, time=480),
    Message('note_off', channel=9, note=49, velocity=80, time=0),
    Message('note_off', channel=9, note=36, velocity=80, time=0),
    Message('note_off', channel=9, note=36, velocity=80, time=0),
    Message('note_on', channel=9, note=49, velocity=95, time=0),
    Message('note_on', channel=9, note=36, velocity=95, time=0),
    Message('note_on', channel=9, note=36, velocity=95, time=0),
    Message('note_off', channel=9, note=49, velocity=80, time=480),
    Message('note_off', channel=9, note=36, velocity=80, time=0),
    Message('note_off', channel=9, note=36, velocity=80, time=0),
    Message('note_on', channel=9, note=49, velocity=95, time=0),
    Message('note_on', channel=9, note=38, velocity=95, time=0),
    Message('note_on', channel=9, note=38, velocity=95, time=0),
    Message('note_off', channel=9, note=49, velocity=80, time=480),
    Message('note_off', channel=9, note=38, velocity=80, time=0),
    Message('note_off', channel=9, note=38, velocity=80, time=0),
    Message('note_on', channel=9, note=49, velocity=95, time=0),
    Message('note_off', channel=9, note=49, velocity=80, time=480),
    Message('note_on', channel=9, note=49, velocity=95, time=0),
    Message('note_on', channel=9, note=36, velocity=95, time=0),
    Message('note_on', channel=9, note=36, velocity=95, time=0),
    Message('note_off', channel=9, note=49, velocity=80, time=480),
    Message('note_off', channel=9, note=36, velocity=80, time=0),
    Message('note_off', channel=9, note=36, velocity=80, time=0),
    Message('note_on', channel=9, note=49, velocity=95, time=0),
    Message('note_on', channel=9, note=36, velocity=95, time=0),
    Message('note_on', channel=9, note=36, velocity=95, time=0),
    Message('note_off', channel=9, note=49, velocity=80, time=480),
    Message('note_off', channel=9, note=36, velocity=80, time=0),
    Message('note_off', channel=9, note=36, velocity=80, time=0),
    Message('note_on', channel=9, note=49, velocity=95, time=0),
    Message('note_on', channel=9, note=38, velocity=95, time=0),
    Message('note_on', channel=9, note=38, velocity=95, time=0),
    Message('note_off', channel=9, note=49, velocity=80, time=480),
    Message('note_off', channel=9, note=38, velocity=80, time=0),
    Message('note_off', channel=9, note=38, velocity=80, time=0),
    Message('note_on', channel=9, note=49, velocity=95, time=0),
    Message('note_off', channel=9, note=49, velocity=80, time=480),
    Message('note_on', channel=9, note=49, velocity=95, time=0),
    Message('note_on', channel=9, note=36, velocity=95, time=0),
    Message('note_on', channel=9, note=36, velocity=95, time=0),
    Message('note_off', channel=9, note=49, velocity=80, time=480),
    Message('note_off', channel=9, note=36, velocity=80, time=0),
    Message('note_off', channel=9, note=36, velocity=80, time=0),
    Message('note_on', channel=9, note=49, velocity=95, time=0),
    Message('note_on', channel=9, note=36, velocity=95, time=0),
    Message('note_on', channel=9, note=36, velocity=95, time=0),
    Message('note_off', channel=9, note=49, velocity=80, time=480),
    Message('note_off', channel=9, note=36, velocity=80, time=0),
    Message('note_off', channel=9, note=36, velocity=80, time=0),
    Message('note_on', channel=9, note=49, velocity=95, time=0),
    Message('note_on', channel=9, note=38, velocity=95, time=0),
    Message('note_on', channel=9, note=38, velocity=95, time=0),
    Message('note_off', channel=9, note=49, velocity=80, time=480),
    Message('note_off', channel=9, note=38, velocity=80, time=0),
    Message('note_off', channel=9, note=38, velocity=80, time=0),
    Message('note_on', channel=9, note=49, velocity=95, time=0),
    Message('note_off', channel=9, note=49, velocity=80, time=480),
    Message('note_on', channel=9, note=49, velocity=95, time=0),
    Message('note_on', channel=9, note=36, velocity=95, time=0),
    Message('note_on', channel=9, note=36, velocity=95, time=0),
    Message('note_off', channel=9, note=49, velocity=80, time=480),
    Message('note_off', channel=9, note=36, velocity=80, time=0),
    Message('note_off', channel=9, note=36, velocity=80, time=0),
    Message('note_on', channel=9, note=49, velocity=95, time=0),
    Message('note_on', channel=9, note=36, velocity=95, time=0),
    Message('note_on', channel=9, note=36, velocity=95, time=0),
    Message('note_off', channel=9, note=49, velocity=80, time=480),
    Message('note_off', channel=9, note=36, velocity=80, time=0),
    Message('note_off', channel=9, note=36, velocity=80, time=0),
    Message('note_on', channel=9, note=49, velocity=95, time=0),
    Message('note_on', channel=9, note=38, velocity=95, time=0),
    Message('note_on', channel=9, note=38, velocity=95, time=0),
    Message('note_off', channel=9, note=49, velocity=80, time=480),
    Message('note_off', channel=9, note=38, velocity=80, time=0),
    Message('note_off', channel=9, note=38, velocity=80, time=0),
    Message('note_on', channel=9, note=49, velocity=95, time=0),
    Message('note_off', channel=9, note=49, velocity=80, time=480),
    Message('note_on', channel=9, note=49, velocity=95, time=0),
    Message('note_on', channel=9, note=36, velocity=95, time=0),
    Message('note_on', channel=9, note=36, velocity=95, time=0),
    Message('note_off', channel=9, note=49, velocity=80, time=480),
    Message('note_off', channel=9, note=36, velocity=80, time=0),
    Message('note_off', channel=9, note=36, velocity=80, time=0),
    Message('note_on', channel=9, note=49, velocity=95, time=0),
    Message('note_on', channel=9, note=36, velocity=95, time=0),
    Message('note_on', channel=9, note=36, velocity=95, time=0),
    Message('note_off', channel=9, note=49, velocity=80, time=480),
    Message('note_off', channel=9, note=36, velocity=80, time=0),
    Message('note_off', channel=9, note=36, velocity=80, time=0),
    Message('note_on', channel=9, note=49, velocity=95, time=0),
    Message('note_on', channel=9, note=38, velocity=95, time=0),
    Message('note_on', channel=9, note=38, velocity=95, time=0),
    Message('note_off', channel=9, note=49, velocity=80, time=480),
    Message('note_off', channel=9, note=38, velocity=80, time=0),
    Message('note_off', channel=9, note=38, velocity=80, time=0),
    Message('note_on', channel=9, note=49, velocity=95, time=0),
    Message('note_off', channel=9, note=49, velocity=80, time=480),
    Message('note_on', channel=9, note=49, velocity=95, time=0),
    Message('note_on', channel=9, note=36, velocity=95, time=0),
    Message('note_on', channel=9, note=36, velocity=95, time=0),
    Message('note_off', channel=9, note=49, velocity=80, time=480),
    Message('note_off', channel=9, note=36, velocity=80, time=0),
    Message('note_off', channel=9, note=36, velocity=80, time=0),
    Message('note_on', channel=9, note=49, velocity=95, time=0),
    Message('note_on', channel=9, note=36, velocity=95, time=0),
    Message('note_on', channel=9, note=36, velocity=95, time=0),
    Message('note_off', channel=9, note=49, velocity=80, time=480),
    Message('note_off', channel=9, note=36, velocity=80, time=0),
    Message('note_off', channel=9, note=36, velocity=80, time=0),
    Message('note_on', channel=9, note=49, velocity=95, time=0),
    Message('note_on', channel=9, note=38, velocity=95, time=0),
    Message('note_on', channel=9, note=38, velocity=95, time=0),
    Message('note_off', channel=9, note=49, velocity=80, time=480),
    Message('note_off', channel=9, note=38, velocity=80, time=0),
    Message('note_off', channel=9, note=38, velocity=80, time=0),
    Message('note_on', channel=9, note=49, velocity=95, time=0),
    Message('note_off', channel=9, note=49, velocity=80, time=480),
    Message('note_on', channel=9, note=49, velocity=95, time=0),
    Message('note_on', channel=9, note=36, velocity=95, time=0),
    Message('note_on', channel=9, note=36, velocity=95, time=0),
    Message('note_off', channel=9, note=49, velocity=80, time=480),
    Message('note_off', channel=9, note=36, velocity=80, time=0),
    Message('note_off', channel=9, note=36, velocity=80, time=0),
    Message('note_on', channel=9, note=49, velocity=95, time=0),
    Message('note_on', channel=9, note=36, velocity=95, time=0),
    Message('note_on', channel=9, note=36, velocity=95, time=0),
    Message('note_off', channel=9, note=49, velocity=80, time=480),
    Message('note_off', channel=9, note=36, velocity=80, time=0),
    Message('note_off', channel=9, note=36, velocity=80, time=0),
    Message('note_on', channel=9, note=49, velocity=95, time=0),
    Message('note_on', channel=9, note=38, velocity=95, time=0),
    Message('note_on', channel=9, note=38, velocity=95, time=0),
    Message('note_off', channel=9, note=49, velocity=80, time=480),
    Message('note_off', channel=9, note=38, velocity=80, time=0),
    Message('note_off', channel=9, note=38, velocity=80, time=0),
    Message('note_on', channel=9, note=49, velocity=95, time=0),
    Message('note_off', channel=9, note=49, velocity=80, time=240),
    Message('note_on', channel=9, note=38, velocity=95, time=0),
    Message('note_on', channel=9, note=38, velocity=95, time=0),
    Message('note_off', channel=9, note=38, velocity=80, time=240),
    Message('note_off', channel=9, note=38, velocity=80, time=0),
    Message('note_on', channel=9, note=49, velocity=95, time=0),
    Message('note_on', channel=9, note=36, velocity=95, time=0),
    Message('note_on', channel=9, note=36, velocity=95, time=0),
    Message('note_off', channel=9, note=49, velocity=80, time=480),
    Message('note_off', channel=9, note=36, velocity=80, time=0),
    Message('note_off', channel=9, note=36, velocity=80, time=0),
    Message('note_on', channel=9, note=49, velocity=95, time=0),
    Message('note_on', channel=9, note=36, velocity=95, time=0),
    Message('note_on', channel=9, note=36, velocity=95, time=0),
    Message('note_off', channel=9, note=49, velocity=80, time=480),
    Message('note_off', channel=9, note=36, velocity=80, time=0),
    Message('note_off', channel=9, note=36, velocity=80, time=0),
    Message('note_on', channel=9, note=49, velocity=95, time=0),
    Message('note_on', channel=9, note=38, velocity=95, time=0),
    Message('note_on', channel=9, note=38, velocity=95, time=0),
    Message('note_off', channel=9, note=49, velocity=80, time=480),
    Message('note_off', channel=9, note=38, velocity=80, time=0),
    Message('note_off', channel=9, note=38, velocity=80, time=0),
    Message('note_on', channel=9, note=49, velocity=95, time=0),
    Message('note_off', channel=9, note=49, velocity=80, time=480),
    Message('note_on', channel=9, note=49, velocity=95, time=0),
    Message('note_on', channel=9, note=36, velocity=95, time=0),
    Message('note_on', channel=9, note=36, velocity=95, time=0),
    Message('note_off', channel=9, note=49, velocity=80, time=480),
    Message('note_off', channel=9, note=36, velocity=80, time=0),
    Message('note_off', channel=9, note=36, velocity=80, time=0),
    Message('note_on', channel=9, note=49, velocity=95, time=0),
    Message('note_on', channel=9, note=36, velocity=95, time=0),
    Message('note_on', channel=9, note=36, velocity=95, time=0),
    Message('note_off', channel=9, note=49, velocity=80, time=480),
    Message('note_off', channel=9, note=36, velocity=80, time=0),
    Message('note_off', channel=9, note=36, velocity=80, time=0),
    Message('note_on', channel=9, note=49, velocity=95, time=0),
    Message('note_on', channel=9, note=38, velocity=95, time=0),
    Message('note_on', channel=9, note=38, velocity=95, time=0),
    Message('note_off', channel=9, note=49, velocity=80, time=480),
    Message('note_off', channel=9, note=38, velocity=80, time=0),
    Message('note_off', channel=9, note=38, velocity=80, time=0),
    Message('note_on', channel=9, note=49, velocity=95, time=0),
    Message('note_off', channel=9, note=49, velocity=80, time=480),
    Message('note_on', channel=9, note=49, velocity=95, time=0),
    Message('note_on', channel=9, note=36, velocity=95, time=0),
    Message('note_on', channel=9, note=36, velocity=95, time=0),
    Message('note_off', channel=9, note=49, velocity=80, time=480),
    Message('note_off', channel=9, note=36, velocity=80, time=0),
    Message('note_off', channel=9, note=36, velocity=80, time=0),
    Message('note_on', channel=9, note=49, velocity=95, time=0),
    Message('note_on', channel=9, note=36, velocity=95, time=0),
    Message('note_on', channel=9, note=36, velocity=95, time=0),
    Message('note_off', channel=9, note=49, velocity=80, time=480),
    Message('note_off', channel=9, note=36, velocity=80, time=0),
    Message('note_off', channel=9, note=36, velocity=80, time=0),
    Message('note_on', channel=9, note=49, velocity=95, time=0),
    Message('note_on', channel=9, note=38, velocity=95, time=0),
    Message('note_on', channel=9, note=38, velocity=95, time=0),
    Message('note_off', channel=9, note=49, velocity=80, time=480),
    Message('note_off', channel=9, note=38, velocity=80, time=0),
    Message('note_off', channel=9, note=38, velocity=80, time=0),
    Message('note_on', channel=9, note=49, velocity=95, time=0),
    Message('note_off', channel=9, note=49, velocity=80, time=480),
    Message('note_on', channel=9, note=49, velocity=95, time=0),
    Message('note_on', channel=9, note=36, velocity=95, time=0),
    Message('note_on', channel=9, note=36, velocity=95, time=0),
    Message('note_off', channel=9, note=49, velocity=80, time=480),
    Message('note_off', channel=9, note=36, velocity=80, time=0),
    Message('note_off', channel=9, note=36, velocity=80, time=0),
    Message('note_on', channel=9, note=49, velocity=95, time=0),
    Message('note_on', channel=9, note=36, velocity=95, time=0),
    Message('note_on', channel=9, note=36, velocity=95, time=0),
    Message('note_off', channel=9, note=49, velocity=80, time=480),
    Message('note_off', channel=9, note=36, velocity=80, time=0),
    Message('note_off', channel=9, note=36, velocity=80, time=0),
    Message('note_on', channel=9, note=49, velocity=95, time=0),
    Message('note_on', channel=9, note=38, velocity=95, time=0),
    Message('note_on', channel=9, note=38, velocity=95, time=0),
    Message('note_off', channel=9, note=49, velocity=80, time=480),
    Message('note_off', channel=9, note=38, velocity=80, time=0),
    Message('note_off', channel=9, note=38, velocity=80, time=0),
    Message('note_on', channel=9, note=49, velocity=95, time=0),
    Message('note_off', channel=9, note=49, velocity=80, time=240),
    Message('note_on', channel=9, note=38, velocity=95, time=0),
    Message('note_on', channel=9, note=38, velocity=95, time=0),
    Message('note_off', channel=9, note=38, velocity=80, time=240),
    Message('note_off', channel=9, note=38, velocity=80, time=0),
    Message('note_on', channel=9, note=49, velocity=95, time=0),
    Message('note_on', channel=9, note=36, velocity=95, time=0),
    Message('note_on', channel=9, note=36, velocity=95, time=0),
    Message('note_off', channel=9, note=49, velocity=80, time=480),
    Message('note_off', channel=9, note=36, velocity=80, time=0),
    Message('note_off', channel=9, note=36, velocity=80, time=0),
    Message('note_on', channel=9, note=49, velocity=95, time=0),
    Message('note_on', channel=9, note=36, velocity=95, time=0),
    Message('note_on', channel=9, note=36, velocity=95, time=0),
    Message('note_off', channel=9, note=49, velocity=80, time=480),
    Message('note_off', channel=9, note=36, velocity=80, time=0),
    Message('note_off', channel=9, note=36, velocity=80, time=0),
    Message('note_on', channel=9, note=49, velocity=95, time=0),
    Message('note_on', channel=9, note=38, velocity=95, time=0),
    Message('note_on', channel=9, note=38, velocity=95, time=0),
    Message('note_off', channel=9, note=49, velocity=80, time=480),
    Message('note_off', channel=9, note=38, velocity=80, time=0),
    Message('note_off', channel=9, note=38, velocity=80, time=0),
    Message('note_on', channel=9, note=49, velocity=95, time=0),
    Message('note_off', channel=9, note=49, velocity=80, time=480),
    Message('note_on', channel=9, note=49, velocity=95, time=0),
    Message('note_on', channel=9, note=36, velocity=95, time=0),
    Message('note_on', channel=9, note=36, velocity=95, time=0),
    Message('note_off', channel=9, note=49, velocity=80, time=480),
    Message('note_off', channel=9, note=36, velocity=80, time=0),
    Message('note_off', channel=9, note=36, velocity=80, time=0),
    Message('note_on', channel=9, note=49, velocity=95, time=0),
    Message('note_on', channel=9, note=36, velocity=95, time=0),
    Message('note_on', channel=9, note=36, velocity=95, time=0),
    Message('note_off', channel=9, note=49, velocity=80, time=480),
    Message('note_off', channel=9, note=36, velocity=80, time=0),
    Message('note_off', channel=9, note=36, velocity=80, time=0),
    Message('note_on', channel=9, note=49, velocity=95, time=0),
    Message('note_on', channel=9, note=38, velocity=95, time=0),
    Message('note_on', channel=9, note=38, velocity=95, time=0),
    Message('note_off', channel=9, note=49, velocity=80, time=480),
    Message('note_off', channel=9, note=38, velocity=80, time=0),
    Message('note_off', channel=9, note=38, velocity=80, time=0),
    Message('note_on', channel=9, note=49, velocity=95, time=0),
    Message('note_off', channel=9, note=49, velocity=80, time=480),
    Message('note_on', channel=9, note=49, velocity=95, time=0),
    Message('note_on', channel=9, note=36, velocity=95, time=0),
    Message('note_on', channel=9, note=36, velocity=95, time=0),
    Message('note_off', channel=9, note=49, velocity=80, time=480),
    Message('note_off', channel=9, note=36, velocity=80, time=0),
    Message('note_off', channel=9, note=36, velocity=80, time=0),
    Message('note_on', channel=9, note=49, velocity=95, time=0),
    Message('note_on', channel=9, note=36, velocity=95, time=0),
    Message('note_on', channel=9, note=36, velocity=95, time=0),
    Message('note_off', channel=9, note=49, velocity=80, time=480),
    Message('note_off', channel=9, note=36, velocity=80, time=0),
    Message('note_off', channel=9, note=36, velocity=80, time=0),
    Message('note_on', channel=9, note=49, velocity=95, time=0),
    Message('note_on', channel=9, note=38, velocity=95, time=0),
    Message('note_on', channel=9, note=38, velocity=95, time=0),
    Message('note_off', channel=9, note=49, velocity=80, time=480),
    Message('note_off', channel=9, note=38, velocity=80, time=0),
    Message('note_off', channel=9, note=38, velocity=80, time=0),
    Message('note_on', channel=9, note=49, velocity=95, time=0),
    Message('note_on', channel=9, note=36, velocity=95, time=0),
    Message('note_on', channel=9, note=36, velocity=95, time=0),
    Message('note_off', channel=9, note=49, velocity=80, time=480),
    Message('note_off', channel=9, note=36, velocity=80, time=0),
    Message('note_off', channel=9, note=36, velocity=80, time=0),
    Message('note_on', channel=9, note=49, velocity=95, time=0),
    Message('note_on', channel=9, note=38, velocity=95, time=0),
    Message('note_on', channel=9, note=38, velocity=95, time=0),
    Message('note_off', channel=9, note=49, velocity=80, time=480),
    Message('note_off', channel=9, note=38, velocity=80, time=0),
    Message('note_off', channel=9, note=38, velocity=80, time=0),
    Message('note_on', channel=9, note=49, velocity=95, time=0),
    Message('note_on', channel=9, note=38, velocity=95, time=0),
    Message('note_on', channel=9, note=38, velocity=95, time=0),
    Message('note_off', channel=9, note=49, velocity=80, time=480),
    Message('note_off', channel=9, note=38, velocity=80, time=0),
    Message('note_off', channel=9, note=38, velocity=80, time=0),
    Message('note_on', channel=9, note=49, velocity=95, time=0),
    Message('note_on', channel=9, note=38, velocity=95, time=0),
    Message('note_on', channel=9, note=38, velocity=95, time=0),
    Message('note_off', channel=9, note=49, velocity=80, time=480),
    Message('note_off', channel=9, note=38, velocity=80, time=0),
    Message('note_off', channel=9, note=38, velocity=80, time=0),
    Message('note_on', channel=9, note=49, velocity=95, time=0),
    Message('note_on', channel=9, note=38, velocity=95, time=0),
    Message('note_on', channel=9, note=38, velocity=95, time=0),
    Message('note_off', channel=9, note=49, velocity=80, time=480),
    Message('note_off', channel=9, note=38, velocity=80, time=0),
    Message('note_off', channel=9, note=38, velocity=80, time=0),
    Message('note_on', channel=9, note=49, velocity=95, time=0),
    Message('note_on', channel=9, note=57, velocity=95, time=0),
    Message('note_on', channel=9, note=38, velocity=95, time=0),
    Message('note_on', channel=9, note=38, velocity=95, time=0),
    Message('note_off', channel=9, note=49, velocity=80, time=720),
    Message('note_off', channel=9, note=57, velocity=80, time=0),
    Message('note_off', channel=9, note=38, velocity=80, time=0),
    Message('note_off', channel=9, note=38, velocity=80, time=0),
    Message('control_change', channel=9, control=7, value=127, time=0),
    Message('control_change', channel=9, control=93, value=127, time=0),
    Message('control_change', channel=9, control=91, value=127, time=0),
    Message('note_on', channel=9, note=38, velocity=95, time=0),
    Message('note_on', channel=9, note=38, velocity=95, time=0),
    Message('note_off', channel=9, note=38, velocity=80, time=60),
    Message('note_off', channel=9, note=38, velocity=80, time=0),
    Message('note_on', channel=9, note=38, velocity=95, time=0),
    Message('note_on', channel=9, note=38, velocity=95, time=0),
    Message('note_off', channel=9, note=38, velocity=80, time=60),
    Message('note_off', channel=9, note=38, velocity=80, time=0),
    Message('note_on', channel=9, note=38, velocity=95, time=0),
    Message('note_on', channel=9, note=38, velocity=95, time=0),
    Message('note_off', channel=9, note=38, velocity=80, time=120),
    Message('note_off', channel=9, note=38, velocity=80, time=0),
    Message('note_on', channel=9, note=48, velocity=95, time=0),
    Message('note_on', channel=9, note=48, velocity=95, time=0),
    Message('note_off', channel=9, note=48, velocity=80, time=240),
    Message('note_off', channel=9, note=48, velocity=80, time=0),
    Message('note_on', channel=9, note=47, velocity=95, time=0),
    Message('note_on', channel=9, note=47, velocity=95, time=0),
    Message('note_off', channel=9, note=47, velocity=80, time=240),
    Message('note_off', channel=9, note=47, velocity=80, time=0),
    Message('note_on', channel=9, note=45, velocity=95, time=0),
    Message('note_on', channel=9, note=45, velocity=95, time=0),
    Message('note_off', channel=9, note=45, velocity=80, time=480),
    Message('note_off', channel=9, note=45, velocity=80, time=0),
    Message('control_change', channel=9, control=7, value=104, time=0),
    Message('control_change', channel=9, control=93, value=127, time=0),
    Message('control_change', channel=9, control=91, value=127, time=0),
    Message('note_on', channel=9, note=57, velocity=95, time=0),
    Message('note_on', channel=9, note=49, velocity=95, time=0),
    Message('note_on', channel=9, note=36, velocity=95, time=0),
    Message('note_on', channel=9, note=36, velocity=95, time=0),
    Message('note_off', channel=9, note=57, velocity=80, time=480),
    Message('note_off', channel=9, note=49, velocity=80, time=0),
    Message('note_off', channel=9, note=36, velocity=80, time=0),
    Message('note_off', channel=9, note=36, velocity=80, time=0),
    Message('note_on', channel=9, note=44, velocity=95, time=480),
    Message('note_on', channel=9, note=38, velocity=95, time=0),
    Message('note_on', channel=9, note=38, velocity=95, time=0),
    Message('note_off', channel=9, note=44, velocity=80, time=480),
    Message('note_off', channel=9, note=38, velocity=80, time=0),
    Message('note_off', channel=9, note=38, velocity=80, time=0),
    Message('note_on', channel=9, note=44, velocity=95, time=0),
    Message('note_on', channel=9, note=36, velocity=95, time=0),
    Message('note_on', channel=9, note=36, velocity=95, time=0),
    Message('note_off', channel=9, note=44, velocity=80, time=480),
    Message('note_off', channel=9, note=36, velocity=80, time=0),
    Message('note_off', channel=9, note=36, velocity=80, time=0),
    Message('note_on', channel=9, note=44, velocity=95, time=0),
    Message('note_on', channel=9, note=36, velocity=95, time=0),
    Message('note_on', channel=9, note=36, velocity=95, time=0),
    Message('note_off', channel=9, note=44, velocity=80, time=480),
    Message('note_off', channel=9, note=36, velocity=80, time=0),
    Message('note_off', channel=9, note=36, velocity=80, time=0),
    Message('note_on', channel=9, note=44, velocity=95, time=0),
    Message('note_on', channel=9, note=36, velocity=95, time=0),
    Message('note_on', channel=9, note=36, velocity=95, time=0),
    Message('note_off', channel=9, note=44, velocity=80, time=480),
    Message('note_off', channel=9, note=36, velocity=80, time=0),
    Message('note_off', channel=9, note=36, velocity=80, time=0),
    Message('note_on', channel=9, note=44, velocity=95, time=0),
    Message('note_on', channel=9, note=38, velocity=95, time=0),
    Message('note_on', channel=9, note=38, velocity=95, time=0),
    Message('note_off', channel=9, note=44, velocity=80, time=480),
    Message('note_off', channel=9, note=38, velocity=80, time=0),
    Message('note_off', channel=9, note=38, velocity=80, time=0),
    Message('note_on', channel=9, note=44, velocity=95, time=0),
    Message('note_on', channel=9, note=36, velocity=95, time=0),
    Message('note_on', channel=9, note=36, velocity=95, time=0),
    Message('note_off', channel=9, note=44, velocity=80, time=480),
    Message('note_off', channel=9, note=36, velocity=80, time=0),
    Message('note_off', channel=9, note=36, velocity=80, time=0),
    Message('note_on', channel=9, note=44, velocity=95, time=0),
    Message('note_on', channel=9, note=36, velocity=95, time=0),
    Message('note_on', channel=9, note=36, velocity=95, time=0),
    Message('note_off', channel=9, note=44, velocity=80, time=480),
    Message('note_off', channel=9, note=36, velocity=80, time=0),
    Message('note_off', channel=9, note=36, velocity=80, time=0),
    Message('note_on', channel=9, note=44, velocity=95, time=0),
    Message('note_on', channel=9, note=36, velocity=95, time=0),
    Message('note_on', channel=9, note=36, velocity=95, time=0),
    Message('note_off', channel=9, note=44, velocity=80, time=480),
    Message('note_off', channel=9, note=36, velocity=80, time=0),
    Message('note_off', channel=9, note=36, velocity=80, time=0),
    Message('note_on', channel=9, note=44, velocity=95, time=0),
    Message('note_on', channel=9, note=38, velocity=95, time=0),
    Message('note_on', channel=9, note=38, velocity=95, time=0),
    Message('note_off', channel=9, note=44, velocity=80, time=480),
    Message('note_off', channel=9, note=38, velocity=80, time=0),
    Message('note_off', channel=9, note=38, velocity=80, time=0),
    Message('note_on', channel=9, note=44, velocity=95, time=0),
    Message('note_on', channel=9, note=36, velocity=95, time=0),
    Message('note_on', channel=9, note=36, velocity=95, time=0),
    Message('note_off', channel=9, note=44, velocity=80, time=480),
    Message('note_off', channel=9, note=36, velocity=80, time=0),
    Message('note_off', channel=9, note=36, velocity=80, time=0),
    Message('note_on', channel=9, note=44, velocity=95, time=0),
    Message('note_on', channel=9, note=36, velocity=95, time=0),
    Message('note_on', channel=9, note=36, velocity=95, time=0),
    Message('note_off', channel=9, note=44, velocity=80, time=480),
    Message('note_off', channel=9, note=36, velocity=80, time=0),
    Message('note_off', channel=9, note=36, velocity=80, time=0),
    Message('note_on', channel=9, note=44, velocity=95, time=0),
    Message('note_on', channel=9, note=36, velocity=95, time=0),
    Message('note_on', channel=9, note=36, velocity=95, time=0),
    Message('note_off', channel=9, note=44, velocity=80, time=480),
    Message('note_off', channel=9, note=36, velocity=80, time=0),
    Message('note_off', channel=9, note=36, velocity=80, time=0),
    Message('note_on', channel=9, note=44, velocity=95, time=0),
    Message('note_on', channel=9, note=38, velocity=95, time=0),
    Message('note_on', channel=9, note=38, velocity=95, time=0),
    Message('note_off', channel=9, note=44, velocity=80, time=480),
    Message('note_off', channel=9, note=38, velocity=80, time=0),
    Message('note_off', channel=9, note=38, velocity=80, time=0),
    Message('note_on', channel=9, note=44, velocity=95, time=0),
    Message('note_on', channel=9, note=36, velocity=95, time=0),
    Message('note_on', channel=9, note=36, velocity=95, time=0),
    Message('note_off', channel=9, note=44, velocity=80, time=480),
    Message('note_off', channel=9, note=36, velocity=80, time=0),
    Message('note_off', channel=9, note=36, velocity=80, time=0),
    Message('control_change', channel=9, control=93, value=127, time=0),
    Message('control_change', channel=9, control=91, value=127, time=0),
    Message('note_on', channel=9, note=57, velocity=95, time=0),
    Message('note_on', channel=9, note=49, velocity=95, time=0),
    Message('note_on', channel=9, note=36, velocity=95, time=0),
    Message('note_on', channel=9, note=36, velocity=95, time=0),
    Message('note_off', channel=9, note=57, velocity=80, time=480),
    Message('note_off', channel=9, note=49, velocity=80, time=0),
    Message('note_off', channel=9, note=36, velocity=80, time=0),
    Message('note_off', channel=9, note=36, velocity=80, time=0),
    Message('note_on', channel=9, note=44, velocity=95, time=480),
    Message('note_on', channel=9, note=38, velocity=95, time=0),
    Message('note_on', channel=9, note=38, velocity=95, time=0),
    Message('note_off', channel=9, note=44, velocity=80, time=480),
    Message('note_off', channel=9, note=38, velocity=80, time=0),
    Message('note_off', channel=9, note=38, velocity=80, time=0),
    Message('note_on', channel=9, note=44, velocity=95, time=0),
    Message('note_on', channel=9, note=36, velocity=95, time=0),
    Message('note_on', channel=9, note=36, velocity=95, time=0),
    Message('note_off', channel=9, note=44, velocity=80, time=480),
    Message('note_off', channel=9, note=36, velocity=80, time=0),
    Message('note_off', channel=9, note=36, velocity=80, time=0),
    Message('note_on', channel=9, note=44, velocity=95, time=0),
    Message('note_on', channel=9, note=36, velocity=95, time=0),
    Message('note_on', channel=9, note=36, velocity=95, time=0),
    Message('note_off', channel=9, note=44, velocity=80, time=480),
    Message('note_off', channel=9, note=36, velocity=80, time=0),
    Message('note_off', channel=9, note=36, velocity=80, time=0),
    Message('note_on', channel=9, note=44, velocity=95, time=0),
    Message('note_on', channel=9, note=36, velocity=95, time=0),
    Message('note_on', channel=9, note=36, velocity=95, time=0),
    Message('note_off', channel=9, note=44, velocity=80, time=480),
    Message('note_off', channel=9, note=36, velocity=80, time=0),
    Message('note_off', channel=9, note=36, velocity=80, time=0),
    Message('note_on', channel=9, note=44, velocity=95, time=0),
    Message('note_on', channel=9, note=38, velocity=95, time=0),
    Message('note_on', channel=9, note=38, velocity=95, time=0),
    Message('note_off', channel=9, note=44, velocity=80, time=480),
    Message('note_off', channel=9, note=38, velocity=80, time=0),
    Message('note_off', channel=9, note=38, velocity=80, time=0),
    Message('note_on', channel=9, note=44, velocity=95, time=0),
    Message('note_on', channel=9, note=36, velocity=95, time=0),
    Message('note_on', channel=9, note=36, velocity=95, time=0),
    Message('note_off', channel=9, note=44, velocity=80, time=480),
    Message('note_off', channel=9, note=36, velocity=80, time=0),
    Message('note_off', channel=9, note=36, velocity=80, time=0),
    Message('note_on', channel=9, note=44, velocity=95, time=0),
    Message('note_on', channel=9, note=36, velocity=95, time=0),
    Message('note_on', channel=9, note=36, velocity=95, time=0),
    Message('note_off', channel=9, note=44, velocity=80, time=480),
    Message('note_off', channel=9, note=36, velocity=80, time=0),
    Message('note_off', channel=9, note=36, velocity=80, time=0),
    Message('note_on', channel=9, note=44, velocity=95, time=0),
    Message('note_on', channel=9, note=36, velocity=95, time=0),
    Message('note_on', channel=9, note=36, velocity=95, time=0),
    Message('note_off', channel=9, note=44, velocity=80, time=480),
    Message('note_off', channel=9, note=36, velocity=80, time=0),
    Message('note_off', channel=9, note=36, velocity=80, time=0),
    Message('note_on', channel=9, note=44, velocity=95, time=0),
    Message('note_on', channel=9, note=38, velocity=95, time=0),
    Message('note_on', channel=9, note=38, velocity=95, time=0),
    Message('note_off', channel=9, note=44, velocity=80, time=480),
    Message('note_off', channel=9, note=38, velocity=80, time=0),
    Message('note_off', channel=9, note=38, velocity=80, time=0),
    Message('note_on', channel=9, note=44, velocity=95, time=0),
    Message('note_on', channel=9, note=36, velocity=95, time=0),
    Message('note_on', channel=9, note=36, velocity=95, time=0),
    Message('note_off', channel=9, note=44, velocity=80, time=480),
    Message('note_off', channel=9, note=36, velocity=80, time=0),
    Message('note_off', channel=9, note=36, velocity=80, time=0),
    Message('note_on', channel=9, note=44, velocity=95, time=0),
    Message('note_on', channel=9, note=36, velocity=95, time=0),
    Message('note_on', channel=9, note=36, velocity=95, time=0),
    Message('note_off', channel=9, note=44, velocity=80, time=480),
    Message('note_off', channel=9, note=36, velocity=80, time=0),
    Message('note_off', channel=9, note=36, velocity=80, time=0),
    Message('note_on', channel=9, note=44, velocity=95, time=0),
    Message('note_on', channel=9, note=36, velocity=95, time=0),
    Message('note_on', channel=9, note=36, velocity=95, time=0),
    Message('note_off', channel=9, note=44, velocity=80, time=480),
    Message('note_off', channel=9, note=36, velocity=80, time=0),
    Message('note_off', channel=9, note=36, velocity=80, time=0),
    Message('note_on', channel=9, note=44, velocity=95, time=0),
    Message('note_on', channel=9, note=38, velocity=95, time=0),
    Message('note_on', channel=9, note=38, velocity=95, time=0),
    Message('note_off', channel=9, note=44, velocity=80, time=480),
    Message('note_off', channel=9, note=38, velocity=80, time=0),
    Message('note_off', channel=9, note=38, velocity=80, time=0),
    Message('note_on', channel=9, note=44, velocity=95, time=0),
    Message('note_on', channel=9, note=36, velocity=95, time=0),
    Message('note_on', channel=9, note=36, velocity=95, time=0),
    Message('note_off', channel=9, note=44, velocity=80, time=480),
    Message('note_off', channel=9, note=36, velocity=80, time=0),
    Message('note_off', channel=9, note=36, velocity=80, time=0),
    Message('control_change', channel=9, control=93, value=127, time=0),
    Message('control_change', channel=9, control=91, value=127, time=0),
    Message('note_on', channel=9, note=57, velocity=95, time=0),
    Message('note_on', channel=9, note=49, velocity=95, time=0),
    Message('note_on', channel=9, note=36, velocity=95, time=0),
    Message('note_on', channel=9, note=36, velocity=95, time=0),
    Message('note_off', channel=9, note=57, velocity=80, time=480),
    Message('note_off', channel=9, note=49, velocity=80, time=0),
    Message('note_off', channel=9, note=36, velocity=80, time=0),
    Message('note_off', channel=9, note=36, velocity=80, time=0),
    Message('note_on', channel=9, note=44, velocity=95, time=480),
    Message('note_on', channel=9, note=38, velocity=95, time=0),
    Message('note_on', channel=9, note=38, velocity=95, time=0),
    Message('note_off', channel=9, note=44, velocity=80, time=480),
    Message('note_off', channel=9, note=38, velocity=80, time=0),
    Message('note_off', channel=9, note=38, velocity=80, time=0),
    Message('note_on', channel=9, note=44, velocity=95, time=0),
    Message('note_on', channel=9, note=36, velocity=95, time=0),
    Message('note_on', channel=9, note=36, velocity=95, time=0),
    Message('note_off', channel=9, note=44, velocity=80, time=480),
    Message('note_off', channel=9, note=36, velocity=80, time=0),
    Message('note_off', channel=9, note=36, velocity=80, time=0),
    Message('note_on', channel=9, note=44, velocity=95, time=0),
    Message('note_on', channel=9, note=36, velocity=95, time=0),
    Message('note_on', channel=9, note=36, velocity=95, time=0),
    Message('note_off', channel=9, note=44, velocity=80, time=480),
    Message('note_off', channel=9, note=36, velocity=80, time=0),
    Message('note_off', channel=9, note=36, velocity=80, time=0),
    Message('note_on', channel=9, note=44, velocity=95, time=0),
    Message('note_on', channel=9, note=36, velocity=95, time=0),
    Message('note_on', channel=9, note=36, velocity=95, time=0),
    Message('note_off', channel=9, note=44, velocity=80, time=480),
    Message('note_off', channel=9, note=36, velocity=80, time=0),
    Message('note_off', channel=9, note=36, velocity=80, time=0),
    Message('note_on', channel=9, note=44, velocity=95, time=0),
    Message('note_on', channel=9, note=38, velocity=95, time=0),
    Message('note_on', channel=9, note=38, velocity=95, time=0),
    Message('note_off', channel=9, note=44, velocity=80, time=480),
    Message('note_off', channel=9, note=38, velocity=80, time=0),
    Message('note_off', channel=9, note=38, velocity=80, time=0),
    Message('note_on', channel=9, note=44, velocity=95, time=0),
    Message('note_on', channel=9, note=36, velocity=95, time=0),
    Message('note_on', channel=9, note=36, velocity=95, time=0),
    Message('note_off', channel=9, note=44, velocity=80, time=480),
    Message('note_off', channel=9, note=36, velocity=80, time=0),
    Message('note_off', channel=9, note=36, velocity=80, time=0),
    Message('note_on', channel=9, note=44, velocity=95, time=0),
    Message('note_on', channel=9, note=36, velocity=95, time=0),
    Message('note_on', channel=9, note=36, velocity=95, time=0),
    Message('note_off', channel=9, note=44, velocity=80, time=480),
    Message('note_off', channel=9, note=36, velocity=80, time=0),
    Message('note_off', channel=9, note=36, velocity=80, time=0),
    Message('note_on', channel=9, note=44, velocity=95, time=0),
    Message('note_on', channel=9, note=36, velocity=95, time=0),
    Message('note_on', channel=9, note=36, velocity=95, time=0),
    Message('note_off', channel=9, note=44, velocity=80, time=480),
    Message('note_off', channel=9, note=36, velocity=80, time=0),
    Message('note_off', channel=9, note=36, velocity=80, time=0),
    Message('note_on', channel=9, note=44, velocity=95, time=0),
    Message('note_on', channel=9, note=38, velocity=95, time=0),
    Message('note_on', channel=9, note=38, velocity=95, time=0),
    Message('note_off', channel=9, note=44, velocity=80, time=480),
    Message('note_off', channel=9, note=38, velocity=80, time=0),
    Message('note_off', channel=9, note=38, velocity=80, time=0),
    Message('note_on', channel=9, note=44, velocity=95, time=0),
    Message('note_on', channel=9, note=36, velocity=95, time=0),
    Message('note_on', channel=9, note=36, velocity=95, time=0),
    Message('note_off', channel=9, note=44, velocity=80, time=480),
    Message('note_off', channel=9, note=36, velocity=80, time=0),
    Message('note_off', channel=9, note=36, velocity=80, time=0),
    Message('note_on', channel=9, note=44, velocity=95, time=0),
    Message('note_on', channel=9, note=36, velocity=95, time=0),
    Message('note_on', channel=9, note=36, velocity=95, time=0),
    Message('note_off', channel=9, note=44, velocity=80, time=480),
    Message('note_off', channel=9, note=36, velocity=80, time=0),
    Message('note_off', channel=9, note=36, velocity=80, time=0),
    Message('note_on', channel=9, note=44, velocity=95, time=0),
    Message('note_on', channel=9, note=36, velocity=95, time=0),
    Message('note_on', channel=9, note=36, velocity=95, time=0),
    Message('note_off', channel=9, note=44, velocity=80, time=480),
    Message('note_off', channel=9, note=36, velocity=80, time=0),
    Message('note_off', channel=9, note=36, velocity=80, time=0),
    Message('note_on', channel=9, note=44, velocity=95, time=0),
    Message('note_on', channel=9, note=38, velocity=95, time=0),
    Message('note_on', channel=9, note=38, velocity=95, time=0),
    Message('note_off', channel=9, note=44, velocity=80, time=480),
    Message('note_off', channel=9, note=38, velocity=80, time=0),
    Message('note_off', channel=9, note=38, velocity=80, time=0),
    Message('note_on', channel=9, note=44, velocity=95, time=0),
    Message('note_on', channel=9, note=36, velocity=95, time=0),
    Message('note_on', channel=9, note=36, velocity=95, time=0),
    Message('note_off', channel=9, note=44, velocity=80, time=480),
    Message('note_off', channel=9, note=36, velocity=80, time=0),
    Message('note_off', channel=9, note=36, velocity=80, time=0),
    Message('control_change', channel=9, control=93, value=127, time=0),
    Message('control_change', channel=9, control=91, value=127, time=0),
    Message('note_on', channel=9, note=57, velocity=95, time=0),
    Message('note_on', channel=9, note=49, velocity=95, time=0),
    Message('note_on', channel=9, note=36, velocity=95, time=0),
    Message('note_on', channel=9, note=36, velocity=95, time=0),
    Message('note_off', channel=9, note=57, velocity=80, time=480),
    Message('note_off', channel=9, note=49, velocity=80, time=0),
    Message('note_off', channel=9, note=36, velocity=80, time=0),
    Message('note_off', channel=9, note=36, velocity=80, time=0),
    Message('note_on', channel=9, note=44, velocity=95, time=480),
    Message('note_on', channel=9, note=38, velocity=95, time=0),
    Message('note_on', channel=9, note=38, velocity=95, time=0),
    Message('note_off', channel=9, note=44, velocity=80, time=480),
    Message('note_off', channel=9, note=38, velocity=80, time=0),
    Message('note_off', channel=9, note=38, velocity=80, time=0),
    Message('note_on', channel=9, note=44, velocity=95, time=0),
    Message('note_on', channel=9, note=36, velocity=95, time=0),
    Message('note_on', channel=9, note=36, velocity=95, time=0),
    Message('note_off', channel=9, note=44, velocity=80, time=480),
    Message('note_off', channel=9, note=36, velocity=80, time=0),
    Message('note_off', channel=9, note=36, velocity=80, time=0),
    Message('note_on', channel=9, note=44, velocity=95, time=0),
    Message('note_on', channel=9, note=36, velocity=95, time=0),
    Message('note_on', channel=9, note=36, velocity=95, time=0),
    Message('note_off', channel=9, note=44, velocity=80, time=480),
    Message('note_off', channel=9, note=36, velocity=80, time=0),
    Message('note_off', channel=9, note=36, velocity=80, time=0),
    Message('note_on', channel=9, note=44, velocity=95, time=0),
    Message('note_on', channel=9, note=36, velocity=95, time=0),
    Message('note_on', channel=9, note=36, velocity=95, time=0),
    Message('note_off', channel=9, note=44, velocity=80, time=480),
    Message('note_off', channel=9, note=36, velocity=80, time=0),
    Message('note_off', channel=9, note=36, velocity=80, time=0),
    Message('note_on', channel=9, note=44, velocity=95, time=0),
    Message('note_on', channel=9, note=38, velocity=95, time=0),
    Message('note_on', channel=9, note=38, velocity=95, time=0),
    Message('note_off', channel=9, note=44, velocity=80, time=480),
    Message('note_off', channel=9, note=38, velocity=80, time=0),
    Message('note_off', channel=9, note=38, velocity=80, time=0),
    Message('note_on', channel=9, note=44, velocity=95, time=0),
    Message('note_on', channel=9, note=36, velocity=95, time=0),
    Message('note_on', channel=9, note=36, velocity=95, time=0),
    Message('note_off', channel=9, note=44, velocity=80, time=480),
    Message('note_off', channel=9, note=36, velocity=80, time=0),
    Message('note_off', channel=9, note=36, velocity=80, time=0),
    Message('note_on', channel=9, note=44, velocity=95, time=0),
    Message('note_on', channel=9, note=36, velocity=95, time=0),
    Message('note_on', channel=9, note=36, velocity=95, time=0),
    Message('note_off', channel=9, note=44, velocity=80, time=480),
    Message('note_off', channel=9, note=36, velocity=80, time=0),
    Message('note_off', channel=9, note=36, velocity=80, time=0),
    Message('note_on', channel=9, note=44, velocity=95, time=0),
    Message('note_on', channel=9, note=36, velocity=95, time=0),
    Message('note_on', channel=9, note=36, velocity=95, time=0),
    Message('note_off', channel=9, note=44, velocity=80, time=480),
    Message('note_off', channel=9, note=36, velocity=80, time=0),
    Message('note_off', channel=9, note=36, velocity=80, time=0),
    Message('note_on', channel=9, note=44, velocity=95, time=0),
    Message('note_on', channel=9, note=38, velocity=95, time=0),
    Message('note_on', channel=9, note=38, velocity=95, time=0),
    Message('note_off', channel=9, note=44, velocity=80, time=480),
    Message('note_off', channel=9, note=38, velocity=80, time=0),
    Message('note_off', channel=9, note=38, velocity=80, time=0),
    Message('note_on', channel=9, note=44, velocity=95, time=0),
    Message('note_on', channel=9, note=36, velocity=95, time=0),
    Message('note_on', channel=9, note=36, velocity=95, time=0),
    Message('note_off', channel=9, note=44, velocity=80, time=480),
    Message('note_off', channel=9, note=36, velocity=80, time=0),
    Message('note_off', channel=9, note=36, velocity=80, time=0),
    Message('note_on', channel=9, note=44, velocity=95, time=0),
    Message('note_on', channel=9, note=36, velocity=95, time=0),
    Message('note_on', channel=9, note=36, velocity=95, time=0),
    Message('note_off', channel=9, note=44, velocity=80, time=480),
    Message('note_off', channel=9, note=36, velocity=80, time=0),
    Message('note_off', channel=9, note=36, velocity=80, time=0),
    Message('note_on', channel=9, note=44, velocity=95, time=0),
    Message('note_on', channel=9, note=36, velocity=95, time=0),
    Message('note_on', channel=9, note=36, velocity=95, time=0),
    Message('note_off', channel=9, note=44, velocity=80, time=480),
    Message('note_off', channel=9, note=36, velocity=80, time=0),
    Message('note_off', channel=9, note=36, velocity=80, time=0),
    Message('note_on', channel=9, note=44, velocity=95, time=0),
    Message('note_on', channel=9, note=38, velocity=95, time=0),
    Message('note_on', channel=9, note=38, velocity=95, time=0),
    Message('note_off', channel=9, note=44, velocity=80, time=480),
    Message('note_off', channel=9, note=38, velocity=80, time=0),
    Message('note_off', channel=9, note=38, velocity=80, time=0),
    Message('note_on', channel=9, note=44, velocity=95, time=0),
    Message('note_on', channel=9, note=36, velocity=95, time=0),
    Message('note_on', channel=9, note=36, velocity=95, time=0),
    Message('note_off', channel=9, note=44, velocity=80, time=480),
    Message('note_off', channel=9, note=36, velocity=80, time=0),
    Message('note_off', channel=9, note=36, velocity=80, time=0),
    Message('note_on', channel=9, note=44, velocity=95, time=0),
    Message('note_on', channel=9, note=36, velocity=95, time=0),
    Message('note_on', channel=9, note=36, velocity=95, time=0),
    Message('note_off', channel=9, note=44, velocity=80, time=480),
    Message('note_off', channel=9, note=36, velocity=80, time=0),
    Message('note_off', channel=9, note=36, velocity=80, time=0),
    Message('note_on', channel=9, note=44, velocity=95, time=0),
    Message('note_on', channel=9, note=36, velocity=95, time=0),
    Message('note_on', channel=9, note=36, velocity=95, time=0),
    Message('note_off', channel=9, note=44, velocity=80, time=480),
    Message('note_off', channel=9, note=36, velocity=80, time=0),
    Message('note_off', channel=9, note=36, velocity=80, time=0),
    Message('note_on', channel=9, note=44, velocity=95, time=0),
    Message('note_on', channel=9, note=38, velocity=95, time=0),
    Message('note_on', channel=9, note=38, velocity=95, time=0),
    Message('note_off', channel=9, note=44, velocity=80, time=480),
    Message('note_off', channel=9, note=38, velocity=80, time=0),
    Message('note_off', channel=9, note=38, velocity=80, time=0),
    Message('note_on', channel=9, note=44, velocity=95, time=0),
    Message('note_on', channel=9, note=36, velocity=95, time=0),
    Message('note_on', channel=9, note=36, velocity=95, time=0),
    Message('note_off', channel=9, note=44, velocity=80, time=480),
    Message('note_off', channel=9, note=36, velocity=80, time=0),
    Message('note_off', channel=9, note=36, velocity=80, time=0),
    Message('note_on', channel=9, note=44, velocity=95, time=0),
    Message('note_on', channel=9, note=36, velocity=95, time=0),
    Message('note_on', channel=9, note=36, velocity=95, time=0),
    Message('note_off', channel=9, note=44, velocity=80, time=480),
    Message('note_off', channel=9, note=36, velocity=80, time=0),
    Message('note_off', channel=9, note=36, velocity=80, time=0),
    Message('note_on', channel=9, note=44, velocity=95, time=0),
    Message('note_on', channel=9, note=36, velocity=95, time=0),
    Message('note_on', channel=9, note=36, velocity=95, time=0),
    Message('note_off', channel=9, note=44, velocity=80, time=480),
    Message('note_off', channel=9, note=36, velocity=80, time=0),
    Message('note_off', channel=9, note=36, velocity=80, time=0),
    Message('note_on', channel=9, note=44, velocity=95, time=0),
    Message('note_on', channel=9, note=38, velocity=95, time=0),
    Message('note_on', channel=9, note=38, velocity=95, time=0),
    Message('note_off', channel=9, note=44, velocity=80, time=480),
    Message('note_off', channel=9, note=38, velocity=80, time=0),
    Message('note_off', channel=9, note=38, velocity=80, time=0),
    Message('note_on', channel=9, note=44, velocity=95, time=0),
    Message('note_on', channel=9, note=36, velocity=95, time=0),
    Message('note_on', channel=9, note=36, velocity=95, time=0),
    Message('note_off', channel=9, note=44, velocity=80, time=480),
    Message('note_off', channel=9, note=36, velocity=80, time=0),
    Message('note_off', channel=9, note=36, velocity=80, time=0),
    Message('note_on', channel=9, note=44, velocity=95, time=0),
    Message('note_on', channel=9, note=36, velocity=95, time=0),
    Message('note_on', channel=9, note=36, velocity=95, time=0),
    Message('note_off', channel=9, note=44, velocity=80, time=480),
    Message('note_off', channel=9, note=36, velocity=80, time=0),
    Message('note_off', channel=9, note=36, velocity=80, time=0),
    Message('note_on', channel=9, note=44, velocity=95, time=0),
    Message('note_on', channel=9, note=36, velocity=95, time=0),
    Message('note_on', channel=9, note=36, velocity=95, time=0),
    Message('note_off', channel=9, note=44, velocity=80, time=480),
    Message('note_off', channel=9, note=36, velocity=80, time=0),
    Message('note_off', channel=9, note=36, velocity=80, time=0),
    Message('note_on', channel=9, note=44, velocity=95, time=0),
    Message('note_on', channel=9, note=38, velocity=95, time=0),
    Message('note_on', channel=9, note=38, velocity=95, time=0),
    Message('note_off', channel=9, note=44, velocity=80, time=480),
    Message('note_off', channel=9, note=38, velocity=80, time=0),
    Message('note_off', channel=9, note=38, velocity=80, time=0),
    Message('note_on', channel=9, note=44, velocity=95, time=0),
    Message('note_on', channel=9, note=36, velocity=95, time=0),
    Message('note_on', channel=9, note=36, velocity=95, time=0),
    Message('note_off', channel=9, note=44, velocity=80, time=480),
    Message('note_off', channel=9, note=36, velocity=80, time=0),
    Message('note_off', channel=9, note=36, velocity=80, time=0),
    Message('note_on', channel=9, note=44, velocity=95, time=0),
    Message('note_on', channel=9, note=36, velocity=95, time=0),
    Message('note_on', channel=9, note=36, velocity=95, time=0),
    Message('note_off', channel=9, note=44, velocity=80, time=480),
    Message('note_off', channel=9, note=36, velocity=80, time=0),
    Message('note_off', channel=9, note=36, velocity=80, time=0),
    Message('note_on', channel=9, note=44, velocity=95, time=0),
    Message('note_on', channel=9, note=36, velocity=95, time=0),
    Message('note_on', channel=9, note=36, velocity=95, time=0),
    Message('note_off', channel=9, note=44, velocity=80, time=480),
    Message('note_off', channel=9, note=36, velocity=80, time=0),
    Message('note_off', channel=9, note=36, velocity=80, time=0),
    Message('note_on', channel=9, note=44, velocity=95, time=0),
    Message('note_on', channel=9, note=38, velocity=95, time=0),
    Message('note_on', channel=9, note=38, velocity=95, time=0),
    Message('note_off', channel=9, note=44, velocity=80, time=480),
    Message('note_off', channel=9, note=38, velocity=80, time=0),
    Message('note_off', channel=9, note=38, velocity=80, time=0),
    Message('note_on', channel=9, note=44, velocity=95, time=0),
    Message('note_on', channel=9, note=36, velocity=95, time=0),
    Message('note_on', channel=9, note=36, velocity=95, time=0),
    Message('note_off', channel=9, note=44, velocity=80, time=480),
    Message('note_off', channel=9, note=36, velocity=80, time=0),
    Message('note_off', channel=9, note=36, velocity=80, time=0),
    Message('note_on', channel=9, note=57, velocity=95, time=0),
    Message('note_on', channel=9, note=49, velocity=95, time=0),
    Message('note_on', channel=9, note=36, velocity=95, time=0),
    Message('note_on', channel=9, note=36, velocity=95, time=0),
    Message('note_off', channel=9, note=57, velocity=80, time=480),
    Message('note_off', channel=9, note=49, velocity=80, time=0),
    Message('note_off', channel=9, note=36, velocity=80, time=0),
    Message('note_off', channel=9, note=36, velocity=80, time=0),
    Message('note_on', channel=9, note=44, velocity=95, time=480),
    Message('note_on', channel=9, note=38, velocity=95, time=0),
    Message('note_on', channel=9, note=38, velocity=95, time=0),
    Message('note_off', channel=9, note=44, velocity=80, time=480),
    Message('note_off', channel=9, note=38, velocity=80, time=0),
    Message('note_off', channel=9, note=38, velocity=80, time=0),
    Message('note_on', channel=9, note=44, velocity=95, time=0),
    Message('note_on', channel=9, note=36, velocity=95, time=0),
    Message('note_on', channel=9, note=36, velocity=95, time=0),
    Message('note_off', channel=9, note=44, velocity=80, time=480),
    Message('note_off', channel=9, note=36, velocity=80, time=0),
    Message('note_off', channel=9, note=36, velocity=80, time=0),
    Message('note_on', channel=9, note=44, velocity=95, time=0),
    Message('note_on', channel=9, note=36, velocity=95, time=0),
    Message('note_on', channel=9, note=36, velocity=95, time=0),
    Message('note_off', channel=9, note=44, velocity=80, time=480),
    Message('note_off', channel=9, note=36, velocity=80, time=0),
    Message('note_off', channel=9, note=36, velocity=80, time=0),
    Message('note_on', channel=9, note=44, velocity=95, time=0),
    Message('note_on', channel=9, note=36, velocity=95, time=0),
    Message('note_on', channel=9, note=36, velocity=95, time=0),
    Message('note_off', channel=9, note=44, velocity=80, time=480),
    Message('note_off', channel=9, note=36, velocity=80, time=0),
    Message('note_off', channel=9, note=36, velocity=80, time=0),
    Message('note_on', channel=9, note=44, velocity=95, time=0),
    Message('note_on', channel=9, note=38, velocity=95, time=0),
    Message('note_on', channel=9, note=38, velocity=95, time=0),
    Message('note_off', channel=9, note=44, velocity=80, time=480),
    Message('note_off', channel=9, note=38, velocity=80, time=0),
    Message('note_off', channel=9, note=38, velocity=80, time=0),
    Message('note_on', channel=9, note=44, velocity=95, time=0),
    Message('note_on', channel=9, note=36, velocity=95, time=0),
    Message('note_on', channel=9, note=36, velocity=95, time=0),
    Message('note_off', channel=9, note=44, velocity=80, time=480),
    Message('note_off', channel=9, note=36, velocity=80, time=0),
    Message('note_off', channel=9, note=36, velocity=80, time=0),
    Message('note_on', channel=9, note=44, velocity=95, time=0),
    Message('note_on', channel=9, note=36, velocity=95, time=0),
    Message('note_on', channel=9, note=36, velocity=95, time=0),
    Message('note_off', channel=9, note=44, velocity=80, time=480),
    Message('note_off', channel=9, note=36, velocity=80, time=0),
    Message('note_off', channel=9, note=36, velocity=80, time=0),
    Message('note_on', channel=9, note=44, velocity=95, time=0),
    Message('note_on', channel=9, note=36, velocity=95, time=0),
    Message('note_on', channel=9, note=36, velocity=95, time=0),
    Message('note_off', channel=9, note=44, velocity=80, time=480),
    Message('note_off', channel=9, note=36, velocity=80, time=0),
    Message('note_off', channel=9, note=36, velocity=80, time=0),
    Message('note_on', channel=9, note=44, velocity=95, time=0),
    Message('note_on', channel=9, note=38, velocity=95, time=0),
    Message('note_on', channel=9, note=38, velocity=95, time=0),
    Message('note_off', channel=9, note=44, velocity=80, time=480),
    Message('note_off', channel=9, note=38, velocity=80, time=0),
    Message('note_off', channel=9, note=38, velocity=80, time=0),
    Message('note_on', channel=9, note=44, velocity=95, time=0),
    Message('note_on', channel=9, note=36, velocity=95, time=0),
    Message('note_on', channel=9, note=36, velocity=95, time=0),
    Message('note_off', channel=9, note=44, velocity=80, time=480),
    Message('note_off', channel=9, note=36, velocity=80, time=0),
    Message('note_off', channel=9, note=36, velocity=80, time=0),
    Message('note_on', channel=9, note=44, velocity=95, time=0),
    Message('note_on', channel=9, note=36, velocity=95, time=0),
    Message('note_on', channel=9, note=36, velocity=95, time=0),
    Message('note_off', channel=9, note=44, velocity=80, time=480),
    Message('note_off', channel=9, note=36, velocity=80, time=0),
    Message('note_off', channel=9, note=36, velocity=80, time=0),
    Message('note_on', channel=9, note=44, velocity=95, time=0),
    Message('note_on', channel=9, note=36, velocity=95, time=0),
    Message('note_on', channel=9, note=36, velocity=95, time=0),
    Message('note_off', channel=9, note=44, velocity=80, time=480),
    Message('note_off', channel=9, note=36, velocity=80, time=0),
    Message('note_off', channel=9, note=36, velocity=80, time=0),
    Message('note_on', channel=9, note=44, velocity=95, time=0),
    Message('note_on', channel=9, note=38, velocity=95, time=0),
    Message('note_on', channel=9, note=38, velocity=95, time=0),
    Message('note_off', channel=9, note=44, velocity=80, time=480),
    Message('note_off', channel=9, note=38, velocity=80, time=0),
    Message('note_off', channel=9, note=38, velocity=80, time=0),
    Message('note_on', channel=9, note=44, velocity=95, time=0),
    Message('note_on', channel=9, note=36, velocity=95, time=0),
    Message('note_on', channel=9, note=36, velocity=95, time=0),
    Message('note_off', channel=9, note=44, velocity=80, time=480),
    Message('note_off', channel=9, note=36, velocity=80, time=0),
    Message('note_off', channel=9, note=36, velocity=80, time=0),
    Message('note_on', channel=9, note=44, velocity=95, time=0),
    Message('note_on', channel=9, note=36, velocity=95, time=0),
    Message('note_on', channel=9, note=36, velocity=95, time=0),
    Message('note_off', channel=9, note=44, velocity=80, time=480),
    Message('note_off', channel=9, note=36, velocity=80, time=0),
    Message('note_off', channel=9, note=36, velocity=80, time=0),
    Message('note_on', channel=9, note=44, velocity=95, time=0),
    Message('note_on', channel=9, note=36, velocity=95, time=0),
    Message('note_on', channel=9, note=36, velocity=95, time=0),
    Message('note_off', channel=9, note=44, velocity=80, time=480),
    Message('note_off', channel=9, note=36, velocity=80, time=0),
    Message('note_off', channel=9, note=36, velocity=80, time=0),
    Message('note_on', channel=9, note=44, velocity=95, time=0),
    Message('note_on', channel=9, note=38, velocity=95, time=0),
    Message('note_on', channel=9, note=38, velocity=95, time=0),
    Message('note_off', channel=9, note=44, velocity=80, time=480),
    Message('note_off', channel=9, note=38, velocity=80, time=0),
    Message('note_off', channel=9, note=38, velocity=80, time=0),
    Message('note_on', channel=9, note=44, velocity=95, time=0),
    Message('note_on', channel=9, note=36, velocity=95, time=0),
    Message('note_on', channel=9, note=36, velocity=95, time=0),
    Message('note_off', channel=9, note=44, velocity=80, time=480),
    Message('note_off', channel=9, note=36, velocity=80, time=0),
    Message('note_off', channel=9, note=36, velocity=80, time=0),
    Message('note_on', channel=9, note=44, velocity=95, time=0),
    Message('note_on', channel=9, note=36, velocity=95, time=0),
    Message('note_on', channel=9, note=36, velocity=95, time=0),
    Message('note_off', channel=9, note=44, velocity=80, time=480),
    Message('note_off', channel=9, note=36, velocity=80, time=0),
    Message('note_off', channel=9, note=36, velocity=80, time=0),
    Message('note_on', channel=9, note=44, velocity=95, time=0),
    Message('note_on', channel=9, note=36, velocity=95, time=0),
    Message('note_on', channel=9, note=36, velocity=95, time=0),
    Message('note_off', channel=9, note=44, velocity=80, time=480),
    Message('note_off', channel=9, note=36, velocity=80, time=0),
    Message('note_off', channel=9, note=36, velocity=80, time=0),
    Message('note_on', channel=9, note=44, velocity=95, time=0),
    Message('note_on', channel=9, note=38, velocity=95, time=0),
    Message('note_on', channel=9, note=38, velocity=95, time=0),
    Message('note_off', channel=9, note=44, velocity=80, time=480),
    Message('note_off', channel=9, note=38, velocity=80, time=0),
    Message('note_off', channel=9, note=38, velocity=80, time=0),
    Message('note_on', channel=9, note=44, velocity=95, time=0),
    Message('note_on', channel=9, note=36, velocity=95, time=0),
    Message('note_on', channel=9, note=36, velocity=95, time=0),
    Message('note_off', channel=9, note=44, velocity=80, time=480),
    Message('note_off', channel=9, note=36, velocity=80, time=0),
    Message('note_off', channel=9, note=36, velocity=80, time=0),
    Message('note_on', channel=9, note=44, velocity=95, time=0),
    Message('note_on', channel=9, note=36, velocity=95, time=0),
    Message('note_on', channel=9, note=36, velocity=95, time=0),
    Message('note_off', channel=9, note=44, velocity=80, time=480),
    Message('note_off', channel=9, note=36, velocity=80, time=0),
    Message('note_off', channel=9, note=36, velocity=80, time=0),
    Message('note_on', channel=9, note=44, velocity=95, time=0),
    Message('note_on', channel=9, note=36, velocity=95, time=0),
    Message('note_on', channel=9, note=36, velocity=95, time=0),
    Message('note_off', channel=9, note=44, velocity=80, time=480),
    Message('note_off', channel=9, note=36, velocity=80, time=0),
    Message('note_off', channel=9, note=36, velocity=80, time=0),
    Message('note_on', channel=9, note=44, velocity=95, time=0),
    Message('note_on', channel=9, note=38, velocity=95, time=0),
    Message('note_on', channel=9, note=38, velocity=95, time=0),
    Message('note_off', channel=9, note=44, velocity=80, time=480),
    Message('note_off', channel=9, note=38, velocity=80, time=0),
    Message('note_off', channel=9, note=38, velocity=80, time=0),
    Message('note_on', channel=9, note=44, velocity=95, time=0),
    Message('note_on', channel=9, note=36, velocity=95, time=0),
    Message('note_on', channel=9, note=36, velocity=95, time=0),
    Message('note_off', channel=9, note=44, velocity=80, time=480),
    Message('note_off', channel=9, note=36, velocity=80, time=0),
    Message('note_off', channel=9, note=36, velocity=80, time=0),
    Message('note_on', channel=9, note=44, velocity=95, time=0),
    Message('note_on', channel=9, note=36, velocity=95, time=0),
    Message('note_on', channel=9, note=36, velocity=95, time=0),
    Message('note_off', channel=9, note=44, velocity=80, time=480),
    Message('note_off', channel=9, note=36, velocity=80, time=0),
    Message('note_off', channel=9, note=36, velocity=80, time=0),
    Message('note_on', channel=9, note=44, velocity=95, time=0),
    Message('note_on', channel=9, note=36, velocity=95, time=0),
    Message('note_on', channel=9, note=36, velocity=95, time=0),
    Message('note_off', channel=9, note=44, velocity=80, time=480),
    Message('note_off', channel=9, note=36, velocity=80, time=0),
    Message('note_off', channel=9, note=36, velocity=80, time=0),
    Message('note_on', channel=9, note=44, velocity=95, time=0),
    Message('note_on', channel=9, note=38, velocity=95, time=0),
    Message('note_on', channel=9, note=38, velocity=95, time=0),
    Message('note_off', channel=9, note=44, velocity=80, time=480),
    Message('note_off', channel=9, note=38, velocity=80, time=0),
    Message('note_off', channel=9, note=38, velocity=80, time=0),
    Message('note_on', channel=9, note=44, velocity=95, time=0),
    Message('note_on', channel=9, note=36, velocity=95, time=0),
    Message('note_on', channel=9, note=36, velocity=95, time=0),
    Message('note_off', channel=9, note=44, velocity=80, time=480),
    Message('note_off', channel=9, note=36, velocity=80, time=0),
    Message('note_off', channel=9, note=36, velocity=80, time=0),
    Message('note_on', channel=9, note=44, velocity=95, time=0),
    Message('note_on', channel=9, note=36, velocity=95, time=0),
    Message('note_on', channel=9, note=36, velocity=95, time=0),
    Message('note_off', channel=9, note=44, velocity=80, time=480),
    Message('note_off', channel=9, note=36, velocity=80, time=0),
    Message('note_off', channel=9, note=36, velocity=80, time=0),
    Message('note_on', channel=9, note=44, velocity=95, time=0),
    Message('note_on', channel=9, note=36, velocity=95, time=0),
    Message('note_on', channel=9, note=36, velocity=95, time=0),
    Message('note_off', channel=9, note=44, velocity=80, time=480),
    Message('note_off', channel=9, note=36, velocity=80, time=0),
    Message('note_off', channel=9, note=36, velocity=80, time=0),
    Message('note_on', channel=9, note=44, velocity=95, time=0),
    Message('note_on', channel=9, note=38, velocity=95, time=0),
    Message('note_on', channel=9, note=38, velocity=95, time=0),
    Message('note_off', channel=9, note=44, velocity=80, time=480),
    Message('note_off', channel=9, note=38, velocity=80, time=0),
    Message('note_off', channel=9, note=38, velocity=80, time=0),
    Message('note_on', channel=9, note=44, velocity=95, time=0),
    Message('note_on', channel=9, note=36, velocity=95, time=0),
    Message('note_on', channel=9, note=36, velocity=95, time=0),
    Message('note_off', channel=9, note=44, velocity=80, time=480),
    Message('note_off', channel=9, note=36, velocity=80, time=0),
    Message('note_off', channel=9, note=36, velocity=80, time=0),
    Message('note_on', channel=9, note=44, velocity=95, time=0),
    Message('note_on', channel=9, note=36, velocity=95, time=0),
    Message('note_on', channel=9, note=36, velocity=95, time=0),
    Message('note_off', channel=9, note=44, velocity=80, time=480),
    Message('note_off', channel=9, note=36, velocity=80, time=0),
    Message('note_off', channel=9, note=36, velocity=80, time=0),
    Message('note_on', channel=9, note=44, velocity=95, time=0),
    Message('note_on', channel=9, note=36, velocity=95, time=0),
    Message('note_on', channel=9, note=36, velocity=95, time=0),
    Message('note_off', channel=9, note=44, velocity=80, time=480),
    Message('note_off', channel=9, note=36, velocity=80, time=0),
    Message('note_off', channel=9, note=36, velocity=80, time=0),
    Message('note_on', channel=9, note=44, velocity=95, time=0),
    Message('note_on', channel=9, note=38, velocity=95, time=0),
    Message('note_on', channel=9, note=38, velocity=95, time=0),
    Message('note_off', channel=9, note=44, velocity=80, time=480),
    Message('note_off', channel=9, note=38, velocity=80, time=0),
    Message('note_off', channel=9, note=38, velocity=80, time=0),
    Message('note_on', channel=9, note=44, velocity=95, time=0),
    Message('note_on', channel=9, note=36, velocity=95, time=0),
    Message('note_on', channel=9, note=36, velocity=95, time=0),
    Message('note_off', channel=9, note=44, velocity=80, time=480),
    Message('note_off', channel=9, note=36, velocity=80, time=0),
    Message('note_off', channel=9, note=36, velocity=80, time=0),
    Message('note_on', channel=9, note=44, velocity=95, time=0),
    Message('note_on', channel=9, note=36, velocity=95, time=0),
    Message('note_on', channel=9, note=36, velocity=95, time=0),
    Message('note_off', channel=9, note=44, velocity=80, time=480),
    Message('note_off', channel=9, note=36, velocity=80, time=0),
    Message('note_off', channel=9, note=36, velocity=80, time=0),
    Message('note_on', channel=9, note=44, velocity=95, time=0),
    Message('note_on', channel=9, note=36, velocity=95, time=0),
    Message('note_on', channel=9, note=36, velocity=95, time=0),
    Message('note_off', channel=9, note=44, velocity=80, time=480),
    Message('note_off', channel=9, note=36, velocity=80, time=0),
    Message('note_off', channel=9, note=36, velocity=80, time=0),
    Message('note_on', channel=9, note=44, velocity=95, time=0),
    Message('note_on', channel=9, note=38, velocity=95, time=0),
    Message('note_on', channel=9, note=38, velocity=95, time=0),
    Message('note_off', channel=9, note=44, velocity=80, time=480),
    Message('note_off', channel=9, note=38, velocity=80, time=0),
    Message('note_off', channel=9, note=38, velocity=80, time=0),
    Message('note_on', channel=9, note=44, velocity=95, time=0),
    Message('note_on', channel=9, note=36, velocity=95, time=0),
    Message('note_on', channel=9, note=36, velocity=95, time=0),
    Message('note_off', channel=9, note=44, velocity=80, time=480),
    Message('note_off', channel=9, note=36, velocity=80, time=0),
    Message('note_off', channel=9, note=36, velocity=80, time=0),
    Message('note_on', channel=9, note=44, velocity=95, time=0),
    Message('note_on', channel=9, note=36, velocity=95, time=0),
    Message('note_on', channel=9, note=36, velocity=95, time=0),
    Message('note_off', channel=9, note=44, velocity=80, time=480),
    Message('note_off', channel=9, note=36, velocity=80, time=0),
    Message('note_off', channel=9, note=36, velocity=80, time=0),
    Message('note_on', channel=9, note=44, velocity=95, time=0),
    Message('note_on', channel=9, note=36, velocity=95, time=0),
    Message('note_on', channel=9, note=36, velocity=95, time=0),
    Message('note_off', channel=9, note=44, velocity=80, time=480),
    Message('note_off', channel=9, note=36, velocity=80, time=0),
    Message('note_off', channel=9, note=36, velocity=80, time=0),
    Message('note_on', channel=9, note=44, velocity=95, time=0),
    Message('note_on', channel=9, note=38, velocity=95, time=0),
    Message('note_on', channel=9, note=38, velocity=95, time=0),
    Message('note_off', channel=9, note=44, velocity=80, time=480),
    Message('note_off', channel=9, note=38, velocity=80, time=0),
    Message('note_off', channel=9, note=38, velocity=80, time=0),
    Message('note_on', channel=9, note=44, velocity=95, time=0),
    Message('note_on', channel=9, note=36, velocity=95, time=0),
    Message('note_on', channel=9, note=36, velocity=95, time=0),
    Message('note_off', channel=9, note=44, velocity=80, time=480),
    Message('note_off', channel=9, note=36, velocity=80, time=0),
    Message('note_off', channel=9, note=36, velocity=80, time=0),
    Message('note_on', channel=9, note=44, velocity=95, time=0),
    Message('note_on', channel=9, note=36, velocity=95, time=0),
    Message('note_on', channel=9, note=36, velocity=95, time=0),
    Message('note_off', channel=9, note=44, velocity=80, time=480),
    Message('note_off', channel=9, note=36, velocity=80, time=0),
    Message('note_off', channel=9, note=36, velocity=80, time=0),
    Message('note_on', channel=9, note=44, velocity=95, time=0),
    Message('note_on', channel=9, note=36, velocity=95, time=0),
    Message('note_on', channel=9, note=36, velocity=95, time=0),
    Message('note_off', channel=9, note=44, velocity=80, time=480),
    Message('note_off', channel=9, note=36, velocity=80, time=0),
    Message('note_off', channel=9, note=36, velocity=80, time=0),
    Message('note_on', channel=9, note=44, velocity=95, time=0),
    Message('note_on', channel=9, note=38, velocity=95, time=0),
    Message('note_on', channel=9, note=38, velocity=95, time=0),
    Message('note_off', channel=9, note=44, velocity=80, time=480),
    Message('note_off', channel=9, note=38, velocity=80, time=0),
    Message('note_off', channel=9, note=38, velocity=80, time=0),
    Message('note_on', channel=9, note=44, velocity=95, time=0),
    Message('note_on', channel=9, note=36, velocity=95, time=0),
    Message('note_on', channel=9, note=36, velocity=95, time=0),
    Message('note_off', channel=9, note=44, velocity=80, time=480),
    Message('note_off', channel=9, note=36, velocity=80, time=0),
    Message('note_off', channel=9, note=36, velocity=80, time=0),
    Message('note_on', channel=9, note=44, velocity=95, time=0),
    Message('note_on', channel=9, note=36, velocity=95, time=0),
    Message('note_on', channel=9, note=36, velocity=95, time=0),
    Message('note_off', channel=9, note=44, velocity=80, time=480),
    Message('note_off', channel=9, note=36, velocity=80, time=0),
    Message('note_off', channel=9, note=36, velocity=80, time=0),
    Message('note_on', channel=9, note=44, velocity=95, time=0),
    Message('note_on', channel=9, note=36, velocity=95, time=0),
    Message('note_on', channel=9, note=36, velocity=95, time=0),
    Message('note_off', channel=9, note=44, velocity=80, time=480),
    Message('note_off', channel=9, note=36, velocity=80, time=0),
    Message('note_off', channel=9, note=36, velocity=80, time=0),
    Message('note_on', channel=9, note=44, velocity=95, time=0),
    Message('note_on', channel=9, note=38, velocity=95, time=0),
    Message('note_on', channel=9, note=38, velocity=95, time=0),
    Message('note_off', channel=9, note=44, velocity=80, time=480),
    Message('note_off', channel=9, note=38, velocity=80, time=0),
    Message('note_off', channel=9, note=38, velocity=80, time=0),
    Message('note_on', channel=9, note=44, velocity=95, time=0),
    Message('note_on', channel=9, note=36, velocity=95, time=0),
    Message('note_on', channel=9, note=36, velocity=95, time=0),
    Message('note_off', channel=9, note=44, velocity=80, time=480),
    Message('note_off', channel=9, note=36, velocity=80, time=0),
    Message('note_off', channel=9, note=36, velocity=80, time=0),
    Message('note_on', channel=9, note=44, velocity=95, time=0),
    Message('note_on', channel=9, note=36, velocity=95, time=0),
    Message('note_on', channel=9, note=36, velocity=95, time=0),
    Message('note_off', channel=9, note=44, velocity=80, time=480),
    Message('note_off', channel=9, note=36, velocity=80, time=0),
    Message('note_off', channel=9, note=36, velocity=80, time=0),
    Message('note_on', channel=9, note=44, velocity=95, time=0),
    Message('note_on', channel=9, note=36, velocity=95, time=0),
    Message('note_on', channel=9, note=36, velocity=95, time=0),
    Message('note_off', channel=9, note=44, velocity=80, time=480),
    Message('note_off', channel=9, note=36, velocity=80, time=0),
    Message('note_off', channel=9, note=36, velocity=80, time=0),
    Message('note_on', channel=9, note=49, velocity=95, time=0),
    Message('note_on', channel=9, note=57, velocity=95, time=0),
    Message('note_on', channel=9, note=38, velocity=95, time=0),
    Message('note_on', channel=9, note=38, velocity=95, time=0),
    Message('note_off', channel=9, note=49, velocity=80, time=960),
    Message('note_off', channel=9, note=57, velocity=80, time=0),
    Message('note_off', channel=9, note=38, velocity=80, time=0),
    Message('note_off', channel=9, note=38, velocity=80, time=0),
    Message('note_on', channel=9, note=49, velocity=95, time=0),
    Message('note_on', channel=9, note=36, velocity=95, time=0),
    Message('note_on', channel=9, note=36, velocity=95, time=0),
    Message('note_off', channel=9, note=49, velocity=80, time=480),
    Message('note_off', channel=9, note=36, velocity=80, time=0),
    Message('note_off', channel=9, note=36, velocity=80, time=0),
    Message('note_on', channel=9, note=49, velocity=95, time=0),
    Message('note_on', channel=9, note=36, velocity=95, time=0),
    Message('note_on', channel=9, note=36, velocity=95, time=0),
    Message('note_off', channel=9, note=49, velocity=80, time=480),
    Message('note_off', channel=9, note=36, velocity=80, time=0),
    Message('note_off', channel=9, note=36, velocity=80, time=0),
    Message('note_on', channel=9, note=38, velocity=95, time=0),
    Message('note_on', channel=9, note=38, velocity=95, time=0),
    Message('note_off', channel=9, note=38, velocity=80, time=240),
    Message('note_off', channel=9, note=38, velocity=80, time=0),
    Message('note_on', channel=9, note=38, velocity=95, time=0),
    Message('note_on', channel=9, note=38, velocity=95, time=0),
    Message('note_off', channel=9, note=38, velocity=80, time=240),
    Message('note_off', channel=9, note=38, velocity=80, time=0),
    Message('note_on', channel=9, note=38, velocity=95, time=0),
    Message('note_on', channel=9, note=38, velocity=95, time=0),
    Message('note_off', channel=9, note=38, velocity=80, time=240),
    Message('note_off', channel=9, note=38, velocity=80, time=0),
    Message('note_on', channel=9, note=38, velocity=95, time=0),
    Message('note_on', channel=9, note=38, velocity=95, time=0),
    Message('note_off', channel=9, note=38, velocity=80, time=240),
    Message('note_off', channel=9, note=38, velocity=80, time=0),
    Message('note_on', channel=9, note=57, velocity=95, time=0),
    Message('note_on', channel=9, note=49, velocity=95, time=0),
    Message('note_on', channel=9, note=36, velocity=95, time=0),
    Message('note_on', channel=9, note=36, velocity=95, time=0),
    Message('note_off', channel=9, note=57, velocity=80, time=480),
    Message('note_off', channel=9, note=49, velocity=80, time=0),
    Message('note_off', channel=9, note=36, velocity=80, time=0),
    Message('note_off', channel=9, note=36, velocity=80, time=0),
    Message('note_on', channel=9, note=49, velocity=95, time=0),
    Message('note_on', channel=9, note=36, velocity=95, time=0),
    Message('note_on', channel=9, note=36, velocity=95, time=0),
    Message('note_off', channel=9, note=49, velocity=80, time=480),
    Message('note_off', channel=9, note=36, velocity=80, time=0),
    Message('note_off', channel=9, note=36, velocity=80, time=0),
    Message('note_on', channel=9, note=49, velocity=95, time=0),
    Message('note_on', channel=9, note=38, velocity=95, time=0),
    Message('note_on', channel=9, note=38, velocity=95, time=0),
    Message('note_off', channel=9, note=49, velocity=80, time=480),
    Message('note_off', channel=9, note=38, velocity=80, time=0),
    Message('note_off', channel=9, note=38, velocity=80, time=0),
    Message('note_on', channel=9, note=49, velocity=95, time=0),
    Message('note_off', channel=9, note=49, velocity=80, time=480),
    Message('note_on', channel=9, note=49, velocity=95, time=0),
    Message('note_on', channel=9, note=36, velocity=95, time=0),
    Message('note_on', channel=9, note=36, velocity=95, time=0),
    Message('note_off', channel=9, note=49, velocity=80, time=480),
    Message('note_off', channel=9, note=36, velocity=80, time=0),
    Message('note_off', channel=9, note=36, velocity=80, time=0),
    Message('note_on', channel=9, note=49, velocity=95, time=0),
    Message('note_on', channel=9, note=36, velocity=95, time=0),
    Message('note_on', channel=9, note=36, velocity=95, time=0),
    Message('note_off', channel=9, note=49, velocity=80, time=480),
    Message('note_off', channel=9, note=36, velocity=80, time=0),
    Message('note_off', channel=9, note=36, velocity=80, time=0),
    Message('note_on', channel=9, note=49, velocity=95, time=0),
    Message('note_on', channel=9, note=38, velocity=95, time=0),
    Message('note_on', channel=9, note=38, velocity=95, time=0),
    Message('note_off', channel=9, note=49, velocity=80, time=480),
    Message('note_off', channel=9, note=38, velocity=80, time=0),
    Message('note_off', channel=9, note=38, velocity=80, time=0),
    Message('note_on', channel=9, note=49, velocity=95, time=0),
    Message('note_off', channel=9, note=49, velocity=80, time=480),
    Message('note_on', channel=9, note=49, velocity=95, time=0),
    Message('note_on', channel=9, note=36, velocity=95, time=0),
    Message('note_on', channel=9, note=36, velocity=95, time=0),
    Message('note_off', channel=9, note=49, velocity=80, time=480),
    Message('note_off', channel=9, note=36, velocity=80, time=0),
    Message('note_off', channel=9, note=36, velocity=80, time=0),
    Message('note_on', channel=9, note=49, velocity=95, time=0),
    Message('note_on', channel=9, note=36, velocity=95, time=0),
    Message('note_on', channel=9, note=36, velocity=95, time=0),
    Message('note_off', channel=9, note=49, velocity=80, time=480),
    Message('note_off', channel=9, note=36, velocity=80, time=0),
    Message('note_off', channel=9, note=36, velocity=80, time=0),
    Message('note_on', channel=9, note=49, velocity=95, time=0),
    Message('note_on', channel=9, note=38, velocity=95, time=0),
    Message('note_on', channel=9, note=38, velocity=95, time=0),
    Message('note_off', channel=9, note=49, velocity=80, time=480),
    Message('note_off', channel=9, note=38, velocity=80, time=0),
    Message('note_off', channel=9, note=38, velocity=80, time=0),
    Message('note_on', channel=9, note=49, velocity=95, time=0),
    Message('note_off', channel=9, note=49, velocity=80, time=480),
    Message('note_on', channel=9, note=49, velocity=95, time=0),
    Message('note_on', channel=9, note=36, velocity=95, time=0),
    Message('note_on', channel=9, note=36, velocity=95, time=0),
    Message('note_off', channel=9, note=49, velocity=80, time=480),
    Message('note_off', channel=9, note=36, velocity=80, time=0),
    Message('note_off', channel=9, note=36, velocity=80, time=0),
    Message('note_on', channel=9, note=49, velocity=95, time=0),
    Message('note_on', channel=9, note=36, velocity=95, time=0),
    Message('note_on', channel=9, note=36, velocity=95, time=0),
    Message('note_off', channel=9, note=49, velocity=80, time=480),
    Message('note_off', channel=9, note=36, velocity=80, time=0),
    Message('note_off', channel=9, note=36, velocity=80, time=0),
    Message('note_on', channel=9, note=49, velocity=95, time=0),
    Message('note_on', channel=9, note=38, velocity=95, time=0),
    Message('note_on', channel=9, note=38, velocity=95, time=0),
    Message('note_off', channel=9, note=49, velocity=80, time=480),
    Message('note_off', channel=9, note=38, velocity=80, time=0),
    Message('note_off', channel=9, note=38, velocity=80, time=0),
    Message('note_on', channel=9, note=49, velocity=95, time=0),
    Message('note_off', channel=9, note=49, velocity=80, time=480),
    Message('note_on', channel=9, note=49, velocity=95, time=0),
    Message('note_on', channel=9, note=36, velocity=95, time=0),
    Message('note_on', channel=9, note=36, velocity=95, time=0),
    Message('note_off', channel=9, note=49, velocity=80, time=480),
    Message('note_off', channel=9, note=36, velocity=80, time=0),
    Message('note_off', channel=9, note=36, velocity=80, time=0),
    Message('note_on', channel=9, note=49, velocity=95, time=0),
    Message('note_on', channel=9, note=36, velocity=95, time=0),
    Message('note_on', channel=9, note=36, velocity=95, time=0),
    Message('note_off', channel=9, note=49, velocity=80, time=480),
    Message('note_off', channel=9, note=36, velocity=80, time=0),
    Message('note_off', channel=9, note=36, velocity=80, time=0),
    Message('note_on', channel=9, note=49, velocity=95, time=0),
    Message('note_on', channel=9, note=38, velocity=95, time=0),
    Message('note_on', channel=9, note=38, velocity=95, time=0),
    Message('note_off', channel=9, note=49, velocity=80, time=480),
    Message('note_off', channel=9, note=38, velocity=80, time=0),
    Message('note_off', channel=9, note=38, velocity=80, time=0),
    Message('note_on', channel=9, note=49, velocity=95, time=0),
    Message('note_off', channel=9, note=49, velocity=80, time=480),
    Message('note_on', channel=9, note=49, velocity=95, time=0),
    Message('note_on', channel=9, note=36, velocity=95, time=0),
    Message('note_on', channel=9, note=36, velocity=95, time=0),
    Message('note_off', channel=9, note=49, velocity=80, time=480),
    Message('note_off', channel=9, note=36, velocity=80, time=0),
    Message('note_off', channel=9, note=36, velocity=80, time=0),
    Message('note_on', channel=9, note=49, velocity=95, time=0),
    Message('note_on', channel=9, note=36, velocity=95, time=0),
    Message('note_on', channel=9, note=36, velocity=95, time=0),
    Message('note_off', channel=9, note=49, velocity=80, time=480),
    Message('note_off', channel=9, note=36, velocity=80, time=0),
    Message('note_off', channel=9, note=36, velocity=80, time=0),
    Message('note_on', channel=9, note=49, velocity=95, time=0),
    Message('note_on', channel=9, note=38, velocity=95, time=0),
    Message('note_on', channel=9, note=38, velocity=95, time=0),
    Message('note_off', channel=9, note=49, velocity=80, time=480),
    Message('note_off', channel=9, note=38, velocity=80, time=0),
    Message('note_off', channel=9, note=38, velocity=80, time=0),
    Message('note_on', channel=9, note=49, velocity=95, time=0),
    Message('note_off', channel=9, note=49, velocity=80, time=480),
    Message('note_on', channel=9, note=49, velocity=95, time=0),
    Message('note_on', channel=9, note=36, velocity=95, time=0),
    Message('note_on', channel=9, note=36, velocity=95, time=0),
    Message('note_off', channel=9, note=49, velocity=80, time=480),
    Message('note_off', channel=9, note=36, velocity=80, time=0),
    Message('note_off', channel=9, note=36, velocity=80, time=0),
    Message('note_on', channel=9, note=49, velocity=95, time=0),
    Message('note_on', channel=9, note=36, velocity=95, time=0),
    Message('note_on', channel=9, note=36, velocity=95, time=0),
    Message('note_off', channel=9, note=49, velocity=80, time=480),
    Message('note_off', channel=9, note=36, velocity=80, time=0),
    Message('note_off', channel=9, note=36, velocity=80, time=0),
    Message('note_on', channel=9, note=49, velocity=95, time=0),
    Message('note_on', channel=9, note=38, velocity=95, time=0),
    Message('note_on', channel=9, note=38, velocity=95, time=0),
    Message('note_off', channel=9, note=49, velocity=80, time=480),
    Message('note_off', channel=9, note=38, velocity=80, time=0),
    Message('note_off', channel=9, note=38, velocity=80, time=0),
    Message('note_on', channel=9, note=49, velocity=95, time=0),
    Message('note_off', channel=9, note=49, velocity=80, time=240),
    Message('note_on', channel=9, note=38, velocity=95, time=0),
    Message('note_on', channel=9, note=38, velocity=95, time=0),
    Message('note_off', channel=9, note=38, velocity=80, time=240),
    Message('note_off', channel=9, note=38, velocity=80, time=0),
    Message('note_on', channel=9, note=49, velocity=95, time=0),
    Message('note_on', channel=9, note=36, velocity=95, time=0),
    Message('note_on', channel=9, note=36, velocity=95, time=0),
    Message('note_off', channel=9, note=49, velocity=80, time=480),
    Message('note_off', channel=9, note=36, velocity=80, time=0),
    Message('note_off', channel=9, note=36, velocity=80, time=0),
    Message('note_on', channel=9, note=49, velocity=95, time=0),
    Message('note_on', channel=9, note=36, velocity=95, time=0),
    Message('note_on', channel=9, note=36, velocity=95, time=0),
    Message('note_off', channel=9, note=49, velocity=80, time=480),
    Message('note_off', channel=9, note=36, velocity=80, time=0),
    Message('note_off', channel=9, note=36, velocity=80, time=0),
    Message('note_on', channel=9, note=49, velocity=95, time=0),
    Message('note_on', channel=9, note=38, velocity=95, time=0),
    Message('note_on', channel=9, note=38, velocity=95, time=0),
    Message('note_off', channel=9, note=49, velocity=80, time=480),
    Message('note_off', channel=9, note=38, velocity=80, time=0),
    Message('note_off', channel=9, note=38, velocity=80, time=0),
    Message('note_on', channel=9, note=49, velocity=95, time=0),
    Message('note_off', channel=9, note=49, velocity=80, time=480),
    Message('note_on', channel=9, note=49, velocity=95, time=0),
    Message('note_on', channel=9, note=36, velocity=95, time=0),
    Message('note_on', channel=9, note=36, velocity=95, time=0),
    Message('note_off', channel=9, note=49, velocity=80, time=480),
    Message('note_off', channel=9, note=36, velocity=80, time=0),
    Message('note_off', channel=9, note=36, velocity=80, time=0),
    Message('note_on', channel=9, note=49, velocity=95, time=0),
    Message('note_on', channel=9, note=36, velocity=95, time=0),
    Message('note_on', channel=9, note=36, velocity=95, time=0),
    Message('note_off', channel=9, note=49, velocity=80, time=480),
    Message('note_off', channel=9, note=36, velocity=80, time=0),
    Message('note_off', channel=9, note=36, velocity=80, time=0),
    Message('note_on', channel=9, note=49, velocity=95, time=0),
    Message('note_on', channel=9, note=38, velocity=95, time=0),
    Message('note_on', channel=9, note=38, velocity=95, time=0),
    Message('note_off', channel=9, note=49, velocity=80, time=480),
    Message('note_off', channel=9, note=38, velocity=80, time=0),
    Message('note_off', channel=9, note=38, velocity=80, time=0),
    Message('note_on', channel=9, note=49, velocity=95, time=0),
    Message('note_off', channel=9, note=49, velocity=80, time=480),
    Message('note_on', channel=9, note=49, velocity=95, time=0),
    Message('note_on', channel=9, note=36, velocity=95, time=0),
    Message('note_on', channel=9, note=36, velocity=95, time=0),
    Message('note_off', channel=9, note=49, velocity=80, time=480),
    Message('note_off', channel=9, note=36, velocity=80, time=0),
    Message('note_off', channel=9, note=36, velocity=80, time=0),
    Message('note_on', channel=9, note=49, velocity=95, time=0),
    Message('note_on', channel=9, note=36, velocity=95, time=0),
    Message('note_on', channel=9, note=36, velocity=95, time=0),
    Message('note_off', channel=9, note=49, velocity=80, time=480),
    Message('note_off', channel=9, note=36, velocity=80, time=0),
    Message('note_off', channel=9, note=36, velocity=80, time=0),
    Message('note_on', channel=9, note=49, velocity=95, time=0),
    Message('note_on', channel=9, note=38, velocity=95, time=0),
    Message('note_on', channel=9, note=38, velocity=95, time=0),
    Message('note_off', channel=9, note=49, velocity=80, time=480),
    Message('note_off', channel=9, note=38, velocity=80, time=0),
    Message('note_off', channel=9, note=38, velocity=80, time=0),
    Message('note_on', channel=9, note=49, velocity=95, time=0),
    Message('note_off', channel=9, note=49, velocity=80, time=480),
    Message('note_on', channel=9, note=49, velocity=95, time=0),
    Message('note_on', channel=9, note=36, velocity=95, time=0),
    Message('note_on', channel=9, note=36, velocity=95, time=0),
    Message('note_off', channel=9, note=49, velocity=80, time=480),
    Message('note_off', channel=9, note=36, velocity=80, time=0),
    Message('note_off', channel=9, note=36, velocity=80, time=0),
    Message('note_on', channel=9, note=49, velocity=95, time=0),
    Message('note_on', channel=9, note=36, velocity=95, time=0),
    Message('note_on', channel=9, note=36, velocity=95, time=0),
    Message('note_off', channel=9, note=49, velocity=80, time=480),
    Message('note_off', channel=9, note=36, velocity=80, time=0),
    Message('note_off', channel=9, note=36, velocity=80, time=0),
    Message('note_on', channel=9, note=49, velocity=95, time=0),
    Message('note_on', channel=9, note=38, velocity=95, time=0),
    Message('note_on', channel=9, note=38, velocity=95, time=0),
    Message('note_off', channel=9, note=49, velocity=80, time=480),
    Message('note_off', channel=9, note=38, velocity=80, time=0),
    Message('note_off', channel=9, note=38, velocity=80, time=0),
    Message('note_on', channel=9, note=49, velocity=95, time=0),
    Message('note_off', channel=9, note=49, velocity=80, time=240),
    Message('note_on', channel=9, note=38, velocity=95, time=0),
    Message('note_on', channel=9, note=38, velocity=95, time=0),
    Message('note_off', channel=9, note=38, velocity=80, time=240),
    Message('note_off', channel=9, note=38, velocity=80, time=0),
    Message('note_on', channel=9, note=49, velocity=95, time=0),
    Message('note_on', channel=9, note=36, velocity=95, time=0),
    Message('note_on', channel=9, note=36, velocity=95, time=0),
    Message('note_off', channel=9, note=49, velocity=80, time=480),
    Message('note_off', channel=9, note=36, velocity=80, time=0),
    Message('note_off', channel=9, note=36, velocity=80, time=0),
    Message('note_on', channel=9, note=49, velocity=95, time=0),
    Message('note_on', channel=9, note=36, velocity=95, time=0),
    Message('note_on', channel=9, note=36, velocity=95, time=0),
    Message('note_off', channel=9, note=49, velocity=80, time=480),
    Message('note_off', channel=9, note=36, velocity=80, time=0),
    Message('note_off', channel=9, note=36, velocity=80, time=0),
    Message('note_on', channel=9, note=49, velocity=95, time=0),
    Message('note_on', channel=9, note=38, velocity=95, time=0),
    Message('note_on', channel=9, note=38, velocity=95, time=0),
    Message('note_off', channel=9, note=49, velocity=80, time=480),
    Message('note_off', channel=9, note=38, velocity=80, time=0),
    Message('note_off', channel=9, note=38, velocity=80, time=0),
    Message('note_on', channel=9, note=49, velocity=95, time=0),
    Message('note_off', channel=9, note=49, velocity=80, time=480),
    Message('note_on', channel=9, note=49, velocity=95, time=0),
    Message('note_on', channel=9, note=36, velocity=95, time=0),
    Message('note_on', channel=9, note=36, velocity=95, time=0),
    Message('note_off', channel=9, note=49, velocity=80, time=480),
    Message('note_off', channel=9, note=36, velocity=80, time=0),
    Message('note_off', channel=9, note=36, velocity=80, time=0),
    Message('note_on', channel=9, note=49, velocity=95, time=0),
    Message('note_on', channel=9, note=36, velocity=95, time=0),
    Message('note_on', channel=9, note=36, velocity=95, time=0),
    Message('note_off', channel=9, note=49, velocity=80, time=480),
    Message('note_off', channel=9, note=36, velocity=80, time=0),
    Message('note_off', channel=9, note=36, velocity=80, time=0),
    Message('note_on', channel=9, note=49, velocity=95, time=0),
    Message('note_on', channel=9, note=38, velocity=95, time=0),
    Message('note_on', channel=9, note=38, velocity=95, time=0),
    Message('note_off', channel=9, note=49, velocity=80, time=480),
    Message('note_off', channel=9, note=38, velocity=80, time=0),
    Message('note_off', channel=9, note=38, velocity=80, time=0),
    Message('note_on', channel=9, note=49, velocity=95, time=0),
    Message('note_off', channel=9, note=49, velocity=80, time=480),
    Message('note_on', channel=9, note=49, velocity=95, time=0),
    Message('note_on', channel=9, note=36, velocity=95, time=0),
    Message('note_on', channel=9, note=36, velocity=95, time=0),
    Message('note_off', channel=9, note=49, velocity=80, time=480),
    Message('note_off', channel=9, note=36, velocity=80, time=0),
    Message('note_off', channel=9, note=36, velocity=80, time=0),
    Message('note_on', channel=9, note=49, velocity=95, time=0),
    Message('note_on', channel=9, note=36, velocity=95, time=0),
    Message('note_on', channel=9, note=36, velocity=95, time=0),
    Message('note_off', channel=9, note=49, velocity=80, time=480),
    Message('note_off', channel=9, note=36, velocity=80, time=0),
    Message('note_off', channel=9, note=36, velocity=80, time=0),
    Message('note_on', channel=9, note=49, velocity=95, time=0),
    Message('note_on', channel=9, note=38, velocity=95, time=0),
    Message('note_on', channel=9, note=38, velocity=95, time=0),
    Message('note_off', channel=9, note=49, velocity=80, time=480),
    Message('note_off', channel=9, note=38, velocity=80, time=0),
    Message('note_off', channel=9, note=38, velocity=80, time=0),
    Message('note_on', channel=9, note=49, velocity=95, time=0),
    Message('note_on', channel=9, note=36, velocity=95, time=0),
    Message('note_on', channel=9, note=36, velocity=95, time=0),
    Message('note_off', channel=9, note=49, velocity=80, time=480),
    Message('note_off', channel=9, note=36, velocity=80, time=0),
    Message('note_off', channel=9, note=36, velocity=80, time=0),
    Message('note_on', channel=9, note=49, velocity=95, time=0),
    Message('note_on', channel=9, note=36, velocity=95, time=0),
    Message('note_on', channel=9, note=36, velocity=95, time=0),
    Message('note_off', channel=9, note=49, velocity=80, time=480),
    Message('note_off', channel=9, note=36, velocity=80, time=0),
    Message('note_off', channel=9, note=36, velocity=80, time=0),
    Message('note_on', channel=9, note=49, velocity=95, time=0),
    Message('note_on', channel=9, note=36, velocity=95, time=0),
    Message('note_on', channel=9, note=36, velocity=95, time=0),
    Message('note_off', channel=9, note=49, velocity=80, time=480),
    Message('note_off', channel=9, note=36, velocity=80, time=0),
    Message('note_off', channel=9, note=36, velocity=80, time=0),
    Message('note_on', channel=9, note=49, velocity=95, time=0),
    Message('note_on', channel=9, note=36, velocity=95, time=0),
    Message('note_on', channel=9, note=36, velocity=95, time=0),
    Message('note_off', channel=9, note=49, velocity=80, time=480),
    Message('note_off', channel=9, note=36, velocity=80, time=0),
    Message('note_off', channel=9, note=36, velocity=80, time=0),
    Message('note_on', channel=9, note=49, velocity=95, time=0),
    Message('note_on', channel=9, note=36, velocity=95, time=0),
    Message('note_on', channel=9, note=36, velocity=95, time=0),
    Message('note_off', channel=9, note=49, velocity=80, time=480),
    Message('note_off', channel=9, note=36, velocity=80, time=0),
    Message('note_off', channel=9, note=36, velocity=80, time=0),
    Message('note_on', channel=9, note=49, velocity=95, time=0),
    Message('note_on', channel=9, note=57, velocity=95, time=0),
    Message('note_on', channel=9, note=36, velocity=95, time=0),
    Message('note_on', channel=9, note=36, velocity=95, time=0),
    Message('note_off', channel=9, note=49, velocity=80, time=1920),
    Message('note_off', channel=9, note=57, velocity=80, time=0),
    Message('note_off', channel=9, note=36, velocity=80, time=0),
    Message('note_off', channel=9, note=36, velocity=80, time=0),
    Message('control_change', channel=9, control=7, value=104, time=0),
    Message('control_change', channel=9, control=93, value=127, time=0),
    Message('control_change', channel=9, control=91, value=127, time=0),
    Message('note_on', channel=9, note=57, velocity=95, time=0),
    Message('note_on', channel=9, note=49, velocity=95, time=0),
    Message('note_on', channel=9, note=36, velocity=95, time=0),
    Message('note_on', channel=9, note=36, velocity=95, time=0),
    Message('note_off', channel=9, note=57, velocity=80, time=480),
    Message('note_off', channel=9, note=49, velocity=80, time=0),
    Message('note_off', channel=9, note=36, velocity=80, time=0),
    Message('note_off', channel=9, note=36, velocity=80, time=0),
    Message('note_on', channel=9, note=44, velocity=95, time=480),
    Message('note_on', channel=9, note=38, velocity=95, time=0),
    Message('note_on', channel=9, note=38, velocity=95, time=0),
    Message('note_off', channel=9, note=44, velocity=80, time=480),
    Message('note_off', channel=9, note=38, velocity=80, time=0),
    Message('note_off', channel=9, note=38, velocity=80, time=0),
    Message('note_on', channel=9, note=44, velocity=95, time=0),
    Message('note_on', channel=9, note=36, velocity=95, time=0),
    Message('note_on', channel=9, note=36, velocity=95, time=0),
    Message('note_off', channel=9, note=44, velocity=80, time=480),
    Message('note_off', channel=9, note=36, velocity=80, time=0),
    Message('note_off', channel=9, note=36, velocity=80, time=0),
    Message('note_on', channel=9, note=44, velocity=95, time=0),
    Message('note_on', channel=9, note=36, velocity=95, time=0),
    Message('note_on', channel=9, note=36, velocity=95, time=0),
    Message('note_off', channel=9, note=44, velocity=80, time=480),
    Message('note_off', channel=9, note=36, velocity=80, time=0),
    Message('note_off', channel=9, note=36, velocity=80, time=0),
    Message('note_on', channel=9, note=44, velocity=95, time=0),
    Message('note_on', channel=9, note=36, velocity=95, time=0),
    Message('note_on', channel=9, note=36, velocity=95, time=0),
    Message('note_off', channel=9, note=44, velocity=80, time=480),
    Message('note_off', channel=9, note=36, velocity=80, time=0),
    Message('note_off', channel=9, note=36, velocity=80, time=0),
    Message('note_on', channel=9, note=44, velocity=95, time=0),
    Message('note_on', channel=9, note=38, velocity=95, time=0),
    Message('note_on', channel=9, note=38, velocity=95, time=0),
    Message('note_off', channel=9, note=44, velocity=80, time=480),
    Message('note_off', channel=9, note=38, velocity=80, time=0),
    Message('note_off', channel=9, note=38, velocity=80, time=0),
    Message('note_on', channel=9, note=44, velocity=95, time=0),
    Message('note_on', channel=9, note=36, velocity=95, time=0),
    Message('note_on', channel=9, note=36, velocity=95, time=0),
    Message('note_off', channel=9, note=44, velocity=80, time=480),
    Message('note_off', channel=9, note=36, velocity=80, time=0),
    Message('note_off', channel=9, note=36, velocity=80, time=0),
    Message('note_on', channel=9, note=44, velocity=95, time=0),
    Message('note_on', channel=9, note=36, velocity=95, time=0),
    Message('note_on', channel=9, note=36, velocity=95, time=0),
    Message('note_off', channel=9, note=44, velocity=80, time=480),
    Message('note_off', channel=9, note=36, velocity=80, time=0),
    Message('note_off', channel=9, note=36, velocity=80, time=0),
    Message('note_on', channel=9, note=44, velocity=95, time=0),
    Message('note_on', channel=9, note=36, velocity=95, time=0),
    Message('note_on', channel=9, note=36, velocity=95, time=0),
    Message('note_off', channel=9, note=44, velocity=80, time=480),
    Message('note_off', channel=9, note=36, velocity=80, time=0),
    Message('note_off', channel=9, note=36, velocity=80, time=0),
    Message('note_on', channel=9, note=44, velocity=95, time=0),
    Message('note_on', channel=9, note=38, velocity=95, time=0),
    Message('note_on', channel=9, note=38, velocity=95, time=0),
    Message('note_off', channel=9, note=44, velocity=80, time=480),
    Message('note_off', channel=9, note=38, velocity=80, time=0),
    Message('note_off', channel=9, note=38, velocity=80, time=0),
    Message('note_on', channel=9, note=44, velocity=95, time=0),
    Message('note_on', channel=9, note=36, velocity=95, time=0),
    Message('note_on', channel=9, note=36, velocity=95, time=0),
    Message('note_off', channel=9, note=44, velocity=80, time=480),
    Message('note_off', channel=9, note=36, velocity=80, time=0),
    Message('note_off', channel=9, note=36, velocity=80, time=0),
    Message('note_on', channel=9, note=44, velocity=95, time=0),
    Message('note_on', channel=9, note=36, velocity=95, time=0),
    Message('note_on', channel=9, note=36, velocity=95, time=0),
    Message('note_off', channel=9, note=44, velocity=80, time=480),
    Message('note_off', channel=9, note=36, velocity=80, time=0),
    Message('note_off', channel=9, note=36, velocity=80, time=0),
    Message('note_on', channel=9, note=44, velocity=95, time=0),
    Message('note_on', channel=9, note=36, velocity=95, time=0),
    Message('note_on', channel=9, note=36, velocity=95, time=0),
    Message('note_off', channel=9, note=44, velocity=80, time=480),
    Message('note_off', channel=9, note=36, velocity=80, time=0),
    Message('note_off', channel=9, note=36, velocity=80, time=0),
    Message('note_on', channel=9, note=44, velocity=95, time=0),
    Message('note_on', channel=9, note=38, velocity=95, time=0),
    Message('note_on', channel=9, note=38, velocity=95, time=0),
    Message('note_off', channel=9, note=44, velocity=80, time=480),
    Message('note_off', channel=9, note=38, velocity=80, time=0),
    Message('note_off', channel=9, note=38, velocity=80, time=0),
    Message('note_on', channel=9, note=44, velocity=95, time=0),
    Message('note_on', channel=9, note=36, velocity=95, time=0),
    Message('note_on', channel=9, note=36, velocity=95, time=0),
    Message('note_off', channel=9, note=44, velocity=80, time=480),
    Message('note_off', channel=9, note=36, velocity=80, time=0),
    Message('note_off', channel=9, note=36, velocity=80, time=0),
    Message('control_change', channel=9, control=93, value=127, time=0),
    Message('control_change', channel=9, control=91, value=127, time=0),
    Message('note_on', channel=9, note=57, velocity=95, time=0),
    Message('note_on', channel=9, note=49, velocity=95, time=0),
    Message('note_on', channel=9, note=36, velocity=95, time=0),
    Message('note_on', channel=9, note=36, velocity=95, time=0),
    Message('note_off', channel=9, note=57, velocity=80, time=480),
    Message('note_off', channel=9, note=49, velocity=80, time=0),
    Message('note_off', channel=9, note=36, velocity=80, time=0),
    Message('note_off', channel=9, note=36, velocity=80, time=0),
    Message('note_on', channel=9, note=44, velocity=95, time=480),
    Message('note_on', channel=9, note=38, velocity=95, time=0),
    Message('note_on', channel=9, note=38, velocity=95, time=0),
    Message('note_off', channel=9, note=44, velocity=80, time=480),
    Message('note_off', channel=9, note=38, velocity=80, time=0),
    Message('note_off', channel=9, note=38, velocity=80, time=0),
    Message('note_on', channel=9, note=44, velocity=95, time=0),
    Message('note_on', channel=9, note=36, velocity=95, time=0),
    Message('note_on', channel=9, note=36, velocity=95, time=0),
    Message('note_off', channel=9, note=44, velocity=80, time=480),
    Message('note_off', channel=9, note=36, velocity=80, time=0),
    Message('note_off', channel=9, note=36, velocity=80, time=0),
    Message('note_on', channel=9, note=44, velocity=95, time=0),
    Message('note_on', channel=9, note=36, velocity=95, time=0),
    Message('note_on', channel=9, note=36, velocity=95, time=0),
    Message('note_off', channel=9, note=44, velocity=80, time=480),
    Message('note_off', channel=9, note=36, velocity=80, time=0),
    Message('note_off', channel=9, note=36, velocity=80, time=0),
    Message('note_on', channel=9, note=44, velocity=95, time=0),
    Message('note_on', channel=9, note=36, velocity=95, time=0),
    Message('note_on', channel=9, note=36, velocity=95, time=0),
    Message('note_off', channel=9, note=44, velocity=80, time=480),
    Message('note_off', channel=9, note=36, velocity=80, time=0),
    Message('note_off', channel=9, note=36, velocity=80, time=0),
    Message('note_on', channel=9, note=44, velocity=95, time=0),
    Message('note_on', channel=9, note=38, velocity=95, time=0),
    Message('note_on', channel=9, note=38, velocity=95, time=0),
    Message('note_off', channel=9, note=44, velocity=80, time=480),
    Message('note_off', channel=9, note=38, velocity=80, time=0),
    Message('note_off', channel=9, note=38, velocity=80, time=0),
    Message('note_on', channel=9, note=44, velocity=95, time=0),
    Message('note_on', channel=9, note=36, velocity=95, time=0),
    Message('note_on', channel=9, note=36, velocity=95, time=0),
    Message('note_off', channel=9, note=44, velocity=80, time=480),
    Message('note_off', channel=9, note=36, velocity=80, time=0),
    Message('note_off', channel=9, note=36, velocity=80, time=0),
    Message('note_on', channel=9, note=44, velocity=95, time=0),
    Message('note_on', channel=9, note=36, velocity=95, time=0),
    Message('note_on', channel=9, note=36, velocity=95, time=0),
    Message('note_off', channel=9, note=44, velocity=80, time=480),
    Message('note_off', channel=9, note=36, velocity=80, time=0),
    Message('note_off', channel=9, note=36, velocity=80, time=0),
    Message('note_on', channel=9, note=44, velocity=95, time=0),
    Message('note_on', channel=9, note=36, velocity=95, time=0),
    Message('note_on', channel=9, note=36, velocity=95, time=0),
    Message('note_off', channel=9, note=44, velocity=80, time=480),
    Message('note_off', channel=9, note=36, velocity=80, time=0),
    Message('note_off', channel=9, note=36, velocity=80, time=0),
    Message('note_on', channel=9, note=49, velocity=95, time=0),
    Message('note_on', channel=9, note=57, velocity=95, time=0),
    Message('note_on', channel=9, note=38, velocity=95, time=0),
    Message('note_on', channel=9, note=38, velocity=95, time=0),
    Message('note_off', channel=9, note=49, velocity=80, time=960),
    Message('note_off', channel=9, note=57, velocity=80, time=0),
    Message('note_off', channel=9, note=38, velocity=80, time=0),
    Message('note_off', channel=9, note=38, velocity=80, time=0),
    Message('note_on', channel=9, note=49, velocity=95, time=0),
    Message('note_on', channel=9, note=36, velocity=95, time=0),
    Message('note_on', channel=9, note=36, velocity=95, time=0),
    Message('note_off', channel=9, note=49, velocity=80, time=480),
    Message('note_off', channel=9, note=36, velocity=80, time=0),
    Message('note_off', channel=9, note=36, velocity=80, time=0),
    Message('note_on', channel=9, note=49, velocity=95, time=0),
    Message('note_on', channel=9, note=36, velocity=95, time=0),
    Message('note_on', channel=9, note=36, velocity=95, time=0),
    Message('note_off', channel=9, note=49, velocity=80, time=480),
    Message('note_off', channel=9, note=36, velocity=80, time=0),
    Message('note_off', channel=9, note=36, velocity=80, time=0),
    Message('note_on', channel=9, note=38, velocity=95, time=0),
    Message('note_on', channel=9, note=38, velocity=95, time=0),
    Message('note_off', channel=9, note=38, velocity=80, time=240),
    Message('note_off', channel=9, note=38, velocity=80, time=0),
    Message('note_on', channel=9, note=38, velocity=95, time=0),
    Message('note_on', channel=9, note=38, velocity=95, time=0),
    Message('note_off', channel=9, note=38, velocity=80, time=240),
    Message('note_off', channel=9, note=38, velocity=80, time=0),
    Message('note_on', channel=9, note=38, velocity=95, time=0),
    Message('note_on', channel=9, note=38, velocity=95, time=0),
    Message('note_off', channel=9, note=38, velocity=80, time=240),
    Message('note_off', channel=9, note=38, velocity=80, time=0),
    Message('note_on', channel=9, note=38, velocity=95, time=0),
    Message('note_on', channel=9, note=38, velocity=95, time=0),
    Message('note_off', channel=9, note=38, velocity=80, time=240),
    Message('note_off', channel=9, note=38, velocity=80, time=0),
    Message('note_on', channel=9, note=57, velocity=95, time=0),
    Message('note_on', channel=9, note=49, velocity=95, time=0),
    Message('note_on', channel=9, note=36, velocity=95, time=0),
    Message('note_on', channel=9, note=36, velocity=95, time=0),
    Message('note_off', channel=9, note=57, velocity=80, time=480),
    Message('note_off', channel=9, note=49, velocity=80, time=0),
    Message('note_off', channel=9, note=36, velocity=80, time=0),
    Message('note_off', channel=9, note=36, velocity=80, time=0),
    Message('note_on', channel=9, note=49, velocity=95, time=0),
    Message('note_on', channel=9, note=36, velocity=95, time=0),
    Message('note_on', channel=9, note=36, velocity=95, time=0),
    Message('note_off', channel=9, note=49, velocity=80, time=480),
    Message('note_off', channel=9, note=36, velocity=80, time=0),
    Message('note_off', channel=9, note=36, velocity=80, time=0),
    Message('note_on', channel=9, note=49, velocity=95, time=0),
    Message('note_on', channel=9, note=38, velocity=95, time=0),
    Message('note_on', channel=9, note=38, velocity=95, time=0),
    Message('note_off', channel=9, note=49, velocity=80, time=480),
    Message('note_off', channel=9, note=38, velocity=80, time=0),
    Message('note_off', channel=9, note=38, velocity=80, time=0),
    Message('note_on', channel=9, note=49, velocity=95, time=0),
    Message('note_off', channel=9, note=49, velocity=80, time=480),
    Message('note_on', channel=9, note=49, velocity=95, time=0),
    Message('note_on', channel=9, note=36, velocity=95, time=0),
    Message('note_on', channel=9, note=36, velocity=95, time=0),
    Message('note_off', channel=9, note=49, velocity=80, time=480),
    Message('note_off', channel=9, note=36, velocity=80, time=0),
    Message('note_off', channel=9, note=36, velocity=80, time=0),
    Message('note_on', channel=9, note=49, velocity=95, time=0),
    Message('note_on', channel=9, note=36, velocity=95, time=0),
    Message('note_on', channel=9, note=36, velocity=95, time=0),
    Message('note_off', channel=9, note=49, velocity=80, time=480),
    Message('note_off', channel=9, note=36, velocity=80, time=0),
    Message('note_off', channel=9, note=36, velocity=80, time=0),
    Message('note_on', channel=9, note=49, velocity=95, time=0),
    Message('note_on', channel=9, note=38, velocity=95, time=0),
    Message('note_on', channel=9, note=38, velocity=95, time=0),
    Message('note_off', channel=9, note=49, velocity=80, time=480),
    Message('note_off', channel=9, note=38, velocity=80, time=0),
    Message('note_off', channel=9, note=38, velocity=80, time=0),
    Message('note_on', channel=9, note=49, velocity=95, time=0),
    Message('note_off', channel=9, note=49, velocity=80, time=480),
    Message('note_on', channel=9, note=49, velocity=95, time=0),
    Message('note_on', channel=9, note=36, velocity=95, time=0),
    Message('note_on', channel=9, note=36, velocity=95, time=0),
    Message('note_off', channel=9, note=49, velocity=80, time=480),
    Message('note_off', channel=9, note=36, velocity=80, time=0),
    Message('note_off', channel=9, note=36, velocity=80, time=0),
    Message('note_on', channel=9, note=49, velocity=95, time=0),
    Message('note_on', channel=9, note=36, velocity=95, time=0),
    Message('note_on', channel=9, note=36, velocity=95, time=0),
    Message('note_off', channel=9, note=49, velocity=80, time=480),
    Message('note_off', channel=9, note=36, velocity=80, time=0),
    Message('note_off', channel=9, note=36, velocity=80, time=0),
    Message('note_on', channel=9, note=49, velocity=95, time=0),
    Message('note_on', channel=9, note=38, velocity=95, time=0),
    Message('note_on', channel=9, note=38, velocity=95, time=0),
    Message('note_off', channel=9, note=49, velocity=80, time=480),
    Message('note_off', channel=9, note=38, velocity=80, time=0),
    Message('note_off', channel=9, note=38, velocity=80, time=0),
    Message('note_on', channel=9, note=49, velocity=95, time=0),
    Message('note_off', channel=9, note=49, velocity=80, time=480),
    Message('note_on', channel=9, note=49, velocity=95, time=0),
    Message('note_on', channel=9, note=36, velocity=95, time=0),
    Message('note_on', channel=9, note=36, velocity=95, time=0),
    Message('note_off', channel=9, note=49, velocity=80, time=480),
    Message('note_off', channel=9, note=36, velocity=80, time=0),
    Message('note_off', channel=9, note=36, velocity=80, time=0),
    Message('note_on', channel=9, note=49, velocity=95, time=0),
    Message('note_on', channel=9, note=36, velocity=95, time=0),
    Message('note_on', channel=9, note=36, velocity=95, time=0),
    Message('note_off', channel=9, note=49, velocity=80, time=480),
    Message('note_off', channel=9, note=36, velocity=80, time=0),
    Message('note_off', channel=9, note=36, velocity=80, time=0),
    Message('note_on', channel=9, note=49, velocity=95, time=0),
    Message('note_on', channel=9, note=38, velocity=95, time=0),
    Message('note_on', channel=9, note=38, velocity=95, time=0),
    Message('note_off', channel=9, note=49, velocity=80, time=480),
    Message('note_off', channel=9, note=38, velocity=80, time=0),
    Message('note_off', channel=9, note=38, velocity=80, time=0),
    Message('note_on', channel=9, note=49, velocity=95, time=0),
    Message('note_off', channel=9, note=49, velocity=80, time=480),
    Message('note_on', channel=9, note=49, velocity=95, time=0),
    Message('note_on', channel=9, note=36, velocity=95, time=0),
    Message('note_on', channel=9, note=36, velocity=95, time=0),
    Message('note_off', channel=9, note=49, velocity=80, time=480),
    Message('note_off', channel=9, note=36, velocity=80, time=0),
    Message('note_off', channel=9, note=36, velocity=80, time=0),
    Message('note_on', channel=9, note=49, velocity=95, time=0),
    Message('note_on', channel=9, note=36, velocity=95, time=0),
    Message('note_on', channel=9, note=36, velocity=95, time=0),
    Message('note_off', channel=9, note=49, velocity=80, time=480),
    Message('note_off', channel=9, note=36, velocity=80, time=0),
    Message('note_off', channel=9, note=36, velocity=80, time=0),
    Message('note_on', channel=9, note=49, velocity=95, time=0),
    Message('note_on', channel=9, note=38, velocity=95, time=0),
    Message('note_on', channel=9, note=38, velocity=95, time=0),
    Message('note_off', channel=9, note=49, velocity=80, time=480),
    Message('note_off', channel=9, note=38, velocity=80, time=0),
    Message('note_off', channel=9, note=38, velocity=80, time=0),
    Message('note_on', channel=9, note=49, velocity=95, time=0),
    Message('note_off', channel=9, note=49, velocity=80, time=480),
    Message('note_on', channel=9, note=49, velocity=95, time=0),
    Message('note_on', channel=9, note=36, velocity=95, time=0),
    Message('note_on', channel=9, note=36, velocity=95, time=0),
    Message('note_off', channel=9, note=49, velocity=80, time=480),
    Message('note_off', channel=9, note=36, velocity=80, time=0),
    Message('note_off', channel=9, note=36, velocity=80, time=0),
    Message('note_on', channel=9, note=49, velocity=95, time=0),
    Message('note_on', channel=9, note=36, velocity=95, time=0),
    Message('note_on', channel=9, note=36, velocity=95, time=0),
    Message('note_off', channel=9, note=49, velocity=80, time=480),
    Message('note_off', channel=9, note=36, velocity=80, time=0),
    Message('note_off', channel=9, note=36, velocity=80, time=0),
    Message('note_on', channel=9, note=49, velocity=95, time=0),
    Message('note_on', channel=9, note=38, velocity=95, time=0),
    Message('note_on', channel=9, note=38, velocity=95, time=0),
    Message('note_off', channel=9, note=49, velocity=80, time=480),
    Message('note_off', channel=9, note=38, velocity=80, time=0),
    Message('note_off', channel=9, note=38, velocity=80, time=0),
    Message('note_on', channel=9, note=49, velocity=95, time=0),
    Message('note_off', channel=9, note=49, velocity=80, time=480),
    Message('note_on', channel=9, note=49, velocity=95, time=0),
    Message('note_on', channel=9, note=36, velocity=95, time=0),
    Message('note_on', channel=9, note=36, velocity=95, time=0),
    Message('note_off', channel=9, note=49, velocity=80, time=480),
    Message('note_off', channel=9, note=36, velocity=80, time=0),
    Message('note_off', channel=9, note=36, velocity=80, time=0),
    Message('note_on', channel=9, note=49, velocity=95, time=0),
    Message('note_on', channel=9, note=36, velocity=95, time=0),
    Message('note_on', channel=9, note=36, velocity=95, time=0),
    Message('note_off', channel=9, note=49, velocity=80, time=480),
    Message('note_off', channel=9, note=36, velocity=80, time=0),
    Message('note_off', channel=9, note=36, velocity=80, time=0),
    Message('note_on', channel=9, note=49, velocity=95, time=0),
    Message('note_on', channel=9, note=38, velocity=95, time=0),
    Message('note_on', channel=9, note=38, velocity=95, time=0),
    Message('note_off', channel=9, note=49, velocity=80, time=480),
    Message('note_off', channel=9, note=38, velocity=80, time=0),
    Message('note_off', channel=9, note=38, velocity=80, time=0),
    Message('note_on', channel=9, note=49, velocity=95, time=0),
    Message('note_off', channel=9, note=49, velocity=80, time=240),
    Message('note_on', channel=9, note=38, velocity=95, time=0),
    Message('note_on', channel=9, note=38, velocity=95, time=0),
    Message('note_off', channel=9, note=38, velocity=80, time=240),
    Message('note_off', channel=9, note=38, velocity=80, time=0),
    Message('note_on', channel=9, note=49, velocity=95, time=0),
    Message('note_on', channel=9, note=36, velocity=95, time=0),
    Message('note_on', channel=9, note=36, velocity=95, time=0),
    Message('note_off', channel=9, note=49, velocity=80, time=480),
    Message('note_off', channel=9, note=36, velocity=80, time=0),
    Message('note_off', channel=9, note=36, velocity=80, time=0),
    Message('note_on', channel=9, note=49, velocity=95, time=0),
    Message('note_on', channel=9, note=36, velocity=95, time=0),
    Message('note_on', channel=9, note=36, velocity=95, time=0),
    Message('note_off', channel=9, note=49, velocity=80, time=480),
    Message('note_off', channel=9, note=36, velocity=80, time=0),
    Message('note_off', channel=9, note=36, velocity=80, time=0),
    Message('note_on', channel=9, note=49, velocity=95, time=0),
    Message('note_on', channel=9, note=38, velocity=95, time=0),
    Message('note_on', channel=9, note=38, velocity=95, time=0),
    Message('note_off', channel=9, note=49, velocity=80, time=60),
    Message('note_off', channel=9, note=38, velocity=80, time=0),
    Message('note_off', channel=9, note=38, velocity=80, time=0),
    Message('note_on', channel=9, note=38, velocity=95, time=0),
    Message('note_on', channel=9, note=38, velocity=95, time=0),
    Message('note_off', channel=9, note=38, velocity=80, time=60),
    Message('note_off', channel=9, note=38, velocity=80, time=0),
    Message('note_on', channel=9, note=36, velocity=95, time=360),
    Message('note_on', channel=9, note=36, velocity=95, time=0),
    Message('note_on', channel=9, note=48, velocity=95, time=0),
    Message('note_on', channel=9, note=47, velocity=95, time=0),
    Message('note_on', channel=9, note=45, velocity=95, time=0),
    Message('note_off', channel=9, note=36, velocity=80, time=480),
    Message('note_off', channel=9, note=36, velocity=80, time=0),
    Message('note_off', channel=9, note=48, velocity=80, time=0),
    Message('note_off', channel=9, note=47, velocity=80, time=0),
    Message('note_off', channel=9, note=45, velocity=80, time=0),
    Message('note_on', channel=9, note=48, velocity=95, time=0),
    Message('note_on', channel=9, note=47, velocity=95, time=0),
    Message('note_on', channel=9, note=45, velocity=95, time=0),
    Message('note_on', channel=9, note=45, velocity=95, time=0),
    Message('note_on', channel=9, note=36, velocity=95, time=0),
    Message('note_on', channel=9, note=36, velocity=95, time=0),
    Message('note_off', channel=9, note=48, velocity=80, time=480),
    Message('note_off', channel=9, note=47, velocity=80, time=0),
    Message('note_off', channel=9, note=45, velocity=80, time=0),
    Message('note_off', channel=9, note=45, velocity=80, time=0),
    Message('note_off', channel=9, note=36, velocity=80, time=0),
    Message('note_off', channel=9, note=36, velocity=80, time=0),
    Message('note_on', channel=9, note=48, velocity=95, time=0),
    Message('note_on', channel=9, note=47, velocity=95, time=0),
    Message('note_on', channel=9, note=45, velocity=95, time=0),
    Message('note_on', channel=9, note=45, velocity=95, time=0),
    Message('note_on', channel=9, note=36, velocity=95, time=0),
    Message('note_on', channel=9, note=36, velocity=95, time=0),
    Message('note_off', channel=9, note=48, velocity=80, time=480),
    Message('note_off', channel=9, note=47, velocity=80, time=0),
    Message('note_off', channel=9, note=45, velocity=80, time=0),
    Message('note_off', channel=9, note=45, velocity=80, time=0),
    Message('note_off', channel=9, note=36, velocity=80, time=0),
    Message('note_off', channel=9, note=36, velocity=80, time=0),
    Message('note_on', channel=9, note=47, velocity=95, time=960),
    Message('note_on', channel=9, note=48, velocity=95, time=0),
    Message('note_on', channel=9, note=45, velocity=95, time=0),
    Message('note_on', channel=9, note=45, velocity=95, time=0),
    Message('note_on', channel=9, note=36, velocity=95, time=0),
    Message('note_on', channel=9, note=36, velocity=95, time=0),
    Message('note_off', channel=9, note=47, velocity=80, time=480),
    Message('note_off', channel=9, note=48, velocity=80, time=0),
    Message('note_off', channel=9, note=45, velocity=80, time=0),
    Message('note_off', channel=9, note=45, velocity=80, time=0),
    Message('note_off', channel=9, note=36, velocity=80, time=0),
    Message('note_off', channel=9, note=36, velocity=80, time=0),
    Message('note_on', channel=9, note=47, velocity=95, time=0),
    Message('note_on', channel=9, note=48, velocity=95, time=0),
    Message('note_on', channel=9, note=45, velocity=95, time=0),
    Message('note_on', channel=9, note=45, velocity=95, time=0),
    Message('note_on', channel=9, note=36, velocity=95, time=0),
    Message('note_on', channel=9, note=36, velocity=95, time=0),
    Message('note_off', channel=9, note=47, velocity=80, time=480),
    Message('note_off', channel=9, note=48, velocity=80, time=0),
    Message('note_off', channel=9, note=45, velocity=80, time=0),
    Message('note_off', channel=9, note=45, velocity=80, time=0),
    Message('note_off', channel=9, note=36, velocity=80, time=0),
    Message('note_off', channel=9, note=36, velocity=80, time=0),
    Message('note_on', channel=9, note=49, velocity=95, time=960),
    Message('note_on', channel=9, note=36, velocity=95, time=0),
    Message('note_on', channel=9, note=36, velocity=95, time=0),
    Message('note_off', channel=9, note=49, velocity=80, time=480),
    Message('note_off', channel=9, note=36, velocity=80, time=0),
    Message('note_off', channel=9, note=36, velocity=80, time=0),
    Message('note_on', channel=9, note=49, velocity=95, time=0),
    Message('note_on', channel=9, note=36, velocity=95, time=0),
    Message('note_on', channel=9, note=36, velocity=95, time=0),
    Message('note_off', channel=9, note=49, velocity=80, time=480),
    Message('note_off', channel=9, note=36, velocity=80, time=0),
    Message('note_off', channel=9, note=36, velocity=80, time=0),
    Message('note_on', channel=9, note=49, velocity=95, time=0),
    Message('note_on', channel=9, note=38, velocity=95, time=0),
    Message('note_on', channel=9, note=38, velocity=95, time=0),
    Message('note_off', channel=9, note=49, velocity=80, time=480),
    Message('note_off', channel=9, note=38, velocity=80, time=0),
    Message('note_off', channel=9, note=38, velocity=80, time=0),
    Message('note_on', channel=9, note=49, velocity=95, time=0),
    Message('note_off', channel=9, note=49, velocity=80, time=240),
    Message('note_on', channel=9, note=38, velocity=95, time=0),
    Message('note_on', channel=9, note=38, velocity=95, time=0),
    Message('note_off', channel=9, note=38, velocity=80, time=240),
    Message('note_off', channel=9, note=38, velocity=80, time=0),
    Message('note_on', channel=9, note=49, velocity=95, time=0),
    Message('note_on', channel=9, note=36, velocity=95, time=0),
    Message('note_on', channel=9, note=36, velocity=95, time=0),
    Message('note_off', channel=9, note=49, velocity=80, time=480),
    Message('note_off', channel=9, note=36, velocity=80, time=0),
    Message('note_off', channel=9, note=36, velocity=80, time=0),
    Message('note_on', channel=9, note=49, velocity=95, time=0),
    Message('note_on', channel=9, note=36, velocity=95, time=0),
    Message('note_on', channel=9, note=36, velocity=95, time=0),
    Message('note_off', channel=9, note=49, velocity=80, time=480),
    Message('note_off', channel=9, note=36, velocity=80, time=0),
    Message('note_off', channel=9, note=36, velocity=80, time=0),
    Message('note_on', channel=9, note=49, velocity=95, time=0),
    Message('note_on', channel=9, note=38, velocity=95, time=0),
    Message('note_on', channel=9, note=38, velocity=95, time=0),
    Message('note_off', channel=9, note=49, velocity=80, time=60),
    Message('note_off', channel=9, note=38, velocity=80, time=0),
    Message('note_off', channel=9, note=38, velocity=80, time=0),
    Message('note_on', channel=9, note=38, velocity=95, time=0),
    Message('note_on', channel=9, note=38, velocity=95, time=0),
    Message('note_off', channel=9, note=38, velocity=80, time=60),
    Message('note_off', channel=9, note=38, velocity=80, time=0),
    Message('note_on', channel=9, note=36, velocity=95, time=360),
    Message('note_on', channel=9, note=36, velocity=95, time=0),
    Message('note_on', channel=9, note=48, velocity=95, time=0),
    Message('note_on', channel=9, note=47, velocity=95, time=0),
    Message('note_on', channel=9, note=45, velocity=95, time=0),
    Message('note_off', channel=9, note=36, velocity=80, time=480),
    Message('note_off', channel=9, note=36, velocity=80, time=0),
    Message('note_off', channel=9, note=48, velocity=80, time=0),
    Message('note_off', channel=9, note=47, velocity=80, time=0),
    Message('note_off', channel=9, note=45, velocity=80, time=0),
    Message('note_on', channel=9, note=47, velocity=95, time=0),
    Message('note_on', channel=9, note=48, velocity=95, time=0),
    Message('note_on', channel=9, note=45, velocity=95, time=0),
    Message('note_on', channel=9, note=45, velocity=95, time=0),
    Message('note_on', channel=9, note=36, velocity=95, time=0),
    Message('note_on', channel=9, note=36, velocity=95, time=0),
    Message('note_off', channel=9, note=47, velocity=80, time=480),
    Message('note_off', channel=9, note=48, velocity=80, time=0),
    Message('note_off', channel=9, note=45, velocity=80, time=0),
    Message('note_off', channel=9, note=45, velocity=80, time=0),
    Message('note_off', channel=9, note=36, velocity=80, time=0),
    Message('note_off', channel=9, note=36, velocity=80, time=0),
    Message('note_on', channel=9, note=47, velocity=95, time=0),
    Message('note_on', channel=9, note=48, velocity=95, time=0),
    Message('note_on', channel=9, note=45, velocity=95, time=0),
    Message('note_on', channel=9, note=45, velocity=95, time=0),
    Message('note_on', channel=9, note=36, velocity=95, time=0),
    Message('note_on', channel=9, note=36, velocity=95, time=0),
    Message('note_off', channel=9, note=47, velocity=80, time=480),
    Message('note_off', channel=9, note=48, velocity=80, time=0),
    Message('note_off', channel=9, note=45, velocity=80, time=0),
    Message('note_off', channel=9, note=45, velocity=80, time=0),
    Message('note_off', channel=9, note=36, velocity=80, time=0),
    Message('note_off', channel=9, note=36, velocity=80, time=0),
    Message('note_on', channel=9, note=48, velocity=95, time=960),
    Message('note_on', channel=9, note=47, velocity=95, time=0),
    Message('note_on', channel=9, note=45, velocity=95, time=0),
    Message('note_on', channel=9, note=45, velocity=95, time=0),
    Message('note_on', channel=9, note=36, velocity=95, time=0),
    Message('note_on', channel=9, note=36, velocity=95, time=0),
    Message('note_off', channel=9, note=48, velocity=80, time=480),
    Message('note_off', channel=9, note=47, velocity=80, time=0),
    Message('note_off', channel=9, note=45, velocity=80, time=0),
    Message('note_off', channel=9, note=45, velocity=80, time=0),
    Message('note_off', channel=9, note=36, velocity=80, time=0),
    Message('note_off', channel=9, note=36, velocity=80, time=0),
    Message('note_on', channel=9, note=48, velocity=95, time=0),
    Message('note_on', channel=9, note=47, velocity=95, time=0),
    Message('note_on', channel=9, note=45, velocity=95, time=0),
    Message('note_on', channel=9, note=45, velocity=95, time=0),
    Message('note_on', channel=9, note=36, velocity=95, time=0),
    Message('note_on', channel=9, note=36, velocity=95, time=0),
    Message('note_off', channel=9, note=48, velocity=80, time=480),
    Message('note_off', channel=9, note=47, velocity=80, time=0),
    Message('note_off', channel=9, note=45, velocity=80, time=0),
    Message('note_off', channel=9, note=45, velocity=80, time=0),
    Message('note_off', channel=9, note=36, velocity=80, time=0),
    Message('note_off', channel=9, note=36, velocity=80, time=0),
    Message('note_on', channel=9, note=49, velocity=95, time=480),
    Message('note_on', channel=9, note=38, velocity=95, time=0),
    Message('note_on', channel=9, note=38, velocity=95, time=0),
    Message('note_off', channel=9, note=49, velocity=80, time=480),
    Message('note_off', channel=9, note=38, velocity=80, time=0),
    Message('note_off', channel=9, note=38, velocity=80, time=0),
    Message('note_on', channel=9, note=49, velocity=95, time=0),
    Message('note_on', channel=9, note=36, velocity=95, time=0),
    Message('note_on', channel=9, note=36, velocity=95, time=0),
    Message('note_off', channel=9, note=49, velocity=80, time=480),
    Message('note_off', channel=9, note=36, velocity=80, time=0),
    Message('note_off', channel=9, note=36, velocity=80, time=0),
    Message('note_on', channel=9, note=49, velocity=95, time=0),
    Message('note_on', channel=9, note=36, velocity=95, time=0),
    Message('note_on', channel=9, note=36, velocity=95, time=0),
    Message('note_off', channel=9, note=49, velocity=80, time=480),
    Message('note_off', channel=9, note=36, velocity=80, time=0),
    Message('note_off', channel=9, note=36, velocity=80, time=0),
    Message('note_on', channel=9, note=49, velocity=95, time=0),
    Message('note_on', channel=9, note=38, velocity=95, time=0),
    Message('note_on', channel=9, note=38, velocity=95, time=0),
    Message('note_off', channel=9, note=49, velocity=80, time=480),
    Message('note_off', channel=9, note=38, velocity=80, time=0),
    Message('note_off', channel=9, note=38, velocity=80, time=0),
    Message('note_on', channel=9, note=49, velocity=95, time=0),
    Message('note_off', channel=9, note=49, velocity=80, time=480),
    Message('note_on', channel=9, note=49, velocity=95, time=0),
    Message('note_on', channel=9, note=36, velocity=95, time=0),
    Message('note_on', channel=9, note=36, velocity=95, time=0),
    Message('note_off', channel=9, note=49, velocity=80, time=480),
    Message('note_off', channel=9, note=36, velocity=80, time=0),
    Message('note_off', channel=9, note=36, velocity=80, time=0),
    Message('note_on', channel=9, note=49, velocity=95, time=0),
    Message('note_on', channel=9, note=36, velocity=95, time=0),
    Message('note_on', channel=9, note=36, velocity=95, time=0),
    Message('note_off', channel=9, note=49, velocity=80, time=480),
    Message('note_off', channel=9, note=36, velocity=80, time=0),
    Message('note_off', channel=9, note=36, velocity=80, time=0),
    Message('note_on', channel=9, note=49, velocity=95, time=0),
    Message('note_on', channel=9, note=38, velocity=95, time=0),
    Message('note_on', channel=9, note=38, velocity=95, time=0),
    Message('note_off', channel=9, note=49, velocity=80, time=480),
    Message('note_off', channel=9, note=38, velocity=80, time=0),
    Message('note_off', channel=9, note=38, velocity=80, time=0),
    Message('note_on', channel=9, note=49, velocity=95, time=0),
    Message('note_off', channel=9, note=49, velocity=80, time=480),
    Message('note_on', channel=9, note=49, velocity=95, time=0),
    Message('note_on', channel=9, note=38, velocity=95, time=0),
    Message('note_on', channel=9, note=38, velocity=95, time=0),
    Message('note_off', channel=9, note=49, velocity=80, time=480),
    Message('note_off', channel=9, note=38, velocity=80, time=0),
    Message('note_off', channel=9, note=38, velocity=80, time=0),
    Message('note_on', channel=9, note=49, velocity=95, time=0),
    Message('note_on', channel=9, note=38, velocity=95, time=0),
    Message('note_on', channel=9, note=38, velocity=95, time=0),
    Message('note_off', channel=9, note=49, velocity=80, time=480),
    Message('note_off', channel=9, note=38, velocity=80, time=0),
    Message('note_off', channel=9, note=38, velocity=80, time=0),
    Message('note_on', channel=9, note=49, velocity=95, time=0),
    Message('note_on', channel=9, note=38, velocity=95, time=0),
    Message('note_on', channel=9, note=38, velocity=95, time=0),
    Message('note_off', channel=9, note=49, velocity=80, time=480),
    Message('note_off', channel=9, note=38, velocity=80, time=0),
    Message('note_off', channel=9, note=38, velocity=80, time=0),
    Message('note_on', channel=9, note=49, velocity=95, time=0),
    Message('note_on', channel=9, note=38, velocity=95, time=0),
    Message('note_on', channel=9, note=38, velocity=95, time=0),
    Message('note_off', channel=9, note=49, velocity=80, time=480),
    Message('note_off', channel=9, note=38, velocity=80, time=0),
    Message('note_off', channel=9, note=38, velocity=80, time=0),
    Message('note_on', channel=9, note=49, velocity=95, time=0),
    Message('note_on', channel=9, note=57, velocity=95, time=0),
    Message('note_on', channel=9, note=38, velocity=95, time=0),
    Message('note_on', channel=9, note=38, velocity=95, time=0),
    Message('note_off', channel=9, note=49, velocity=80, time=1920),
    Message('note_off', channel=9, note=57, velocity=80, time=0),
    Message('note_off', channel=9, note=38, velocity=80, time=0),
    Message('note_off', channel=9, note=38, velocity=80, time=0),
    Message('note_on', channel=9, note=48, velocity=95, time=13920),
    Message('note_on', channel=9, note=47, velocity=95, time=0),
    Message('note_on', channel=9, note=45, velocity=95, time=0),
    Message('note_on', channel=9, note=36, velocity=95, time=0),
    Message('note_on', channel=9, note=36, velocity=95, time=0),
    Message('note_off', channel=9, note=48, velocity=80, time=480),
    Message('note_off', channel=9, note=47, velocity=80, time=0),
    Message('note_off', channel=9, note=45, velocity=80, time=0),
    Message('note_off', channel=9, note=36, velocity=80, time=0),
    Message('note_off', channel=9, note=36, velocity=80, time=0),
    Message('note_on', channel=9, note=48, velocity=95, time=0),
    Message('note_on', channel=9, note=47, velocity=95, time=0),
    Message('note_on', channel=9, note=45, velocity=95, time=0),
    Message('note_on', channel=9, note=36, velocity=95, time=0),
    Message('note_on', channel=9, note=36, velocity=95, time=0),
    Message('note_off', channel=9, note=48, velocity=80, time=480),
    Message('note_off', channel=9, note=47, velocity=80, time=0),
    Message('note_off', channel=9, note=45, velocity=80, time=0),
    Message('note_off', channel=9, note=36, velocity=80, time=0),
    Message('note_off', channel=9, note=36, velocity=80, time=0),
    Message('note_on', channel=9, note=48, velocity=95, time=0),
    Message('note_on', channel=9, note=47, velocity=95, time=0),
    Message('note_on', channel=9, note=45, velocity=95, time=0),
    Message('note_on', channel=9, note=36, velocity=95, time=0),
    Message('note_on', channel=9, note=36, velocity=95, time=0),
    Message('note_off', channel=9, note=48, velocity=80, time=480),
    Message('note_off', channel=9, note=47, velocity=80, time=0),
    Message('note_off', channel=9, note=45, velocity=80, time=0),
    Message('note_off', channel=9, note=36, velocity=80, time=0),
    Message('note_off', channel=9, note=36, velocity=80, time=0),
    Message('note_on', channel=9, note=57, velocity=95, time=0),
    Message('note_on', channel=9, note=49, velocity=95, time=0),
    Message('note_on', channel=9, note=36, velocity=95, time=0),
    Message('note_on', channel=9, note=36, velocity=95, time=0),
    Message('note_off', channel=9, note=57, velocity=80, time=480),
    Message('note_off', channel=9, note=49, velocity=80, time=0),
    Message('note_off', channel=9, note=36, velocity=80, time=0),
    Message('note_off', channel=9, note=36, velocity=80, time=0),
    Message('note_on', channel=9, note=49, velocity=95, time=0),
    Message('note_on', channel=9, note=36, velocity=95, time=0),
    Message('note_on', channel=9, note=36, velocity=95, time=0),
    Message('note_off', channel=9, note=49, velocity=80, time=480),
    Message('note_off', channel=9, note=36, velocity=80, time=0),
    Message('note_off', channel=9, note=36, velocity=80, time=0),
    Message('note_on', channel=9, note=49, velocity=95, time=0),
    Message('note_on', channel=9, note=38, velocity=95, time=0),
    Message('note_on', channel=9, note=38, velocity=95, time=0),
    Message('note_off', channel=9, note=49, velocity=80, time=480),
    Message('note_off', channel=9, note=38, velocity=80, time=0),
    Message('note_off', channel=9, note=38, velocity=80, time=0),
    Message('note_on', channel=9, note=49, velocity=95, time=0),
    Message('note_off', channel=9, note=49, velocity=80, time=480),
    Message('note_on', channel=9, note=49, velocity=95, time=0),
    Message('note_on', channel=9, note=36, velocity=95, time=0),
    Message('note_on', channel=9, note=36, velocity=95, time=0),
    Message('note_off', channel=9, note=49, velocity=80, time=480),
    Message('note_off', channel=9, note=36, velocity=80, time=0),
    Message('note_off', channel=9, note=36, velocity=80, time=0),
    Message('note_on', channel=9, note=49, velocity=95, time=0),
    Message('note_on', channel=9, note=36, velocity=95, time=0),
    Message('note_on', channel=9, note=36, velocity=95, time=0),
    Message('note_off', channel=9, note=49, velocity=80, time=480),
    Message('note_off', channel=9, note=36, velocity=80, time=0),
    Message('note_off', channel=9, note=36, velocity=80, time=0),
    Message('note_on', channel=9, note=49, velocity=95, time=0),
    Message('note_on', channel=9, note=38, velocity=95, time=0),
    Message('note_on', channel=9, note=38, velocity=95, time=0),
    Message('note_off', channel=9, note=49, velocity=80, time=480),
    Message('note_off', channel=9, note=38, velocity=80, time=0),
    Message('note_off', channel=9, note=38, velocity=80, time=0),
    Message('note_on', channel=9, note=49, velocity=95, time=0),
    Message('note_off', channel=9, note=49, velocity=80, time=480),
    Message('note_on', channel=9, note=49, velocity=95, time=0),
    Message('note_on', channel=9, note=36, velocity=95, time=0),
    Message('note_on', channel=9, note=36, velocity=95, time=0),
    Message('note_off', channel=9, note=49, velocity=80, time=480),
    Message('note_off', channel=9, note=36, velocity=80, time=0),
    Message('note_off', channel=9, note=36, velocity=80, time=0),
    Message('note_on', channel=9, note=49, velocity=95, time=0),
    Message('note_on', channel=9, note=36, velocity=95, time=0),
    Message('note_on', channel=9, note=36, velocity=95, time=0),
    Message('note_off', channel=9, note=49, velocity=80, time=480),
    Message('note_off', channel=9, note=36, velocity=80, time=0),
    Message('note_off', channel=9, note=36, velocity=80, time=0),
    Message('note_on', channel=9, note=49, velocity=95, time=0),
    Message('note_on', channel=9, note=38, velocity=95, time=0),
    Message('note_on', channel=9, note=38, velocity=95, time=0),
    Message('note_off', channel=9, note=49, velocity=80, time=480),
    Message('note_off', channel=9, note=38, velocity=80, time=0),
    Message('note_off', channel=9, note=38, velocity=80, time=0),
    Message('note_on', channel=9, note=49, velocity=95, time=0),
    Message('note_off', channel=9, note=49, velocity=80, time=480),
    Message('note_on', channel=9, note=49, velocity=95, time=0),
    Message('note_on', channel=9, note=36, velocity=95, time=0),
    Message('note_on', channel=9, note=36, velocity=95, time=0),
    Message('note_off', channel=9, note=49, velocity=80, time=480),
    Message('note_off', channel=9, note=36, velocity=80, time=0),
    Message('note_off', channel=9, note=36, velocity=80, time=0),
    Message('note_on', channel=9, note=49, velocity=95, time=0),
    Message('note_on', channel=9, note=36, velocity=95, time=0),
    Message('note_on', channel=9, note=36, velocity=95, time=0),
    Message('note_off', channel=9, note=49, velocity=80, time=480),
    Message('note_off', channel=9, note=36, velocity=80, time=0),
    Message('note_off', channel=9, note=36, velocity=80, time=0),
    Message('note_on', channel=9, note=49, velocity=95, time=0),
    Message('note_on', channel=9, note=38, velocity=95, time=0),
    Message('note_on', channel=9, note=38, velocity=95, time=0),
    Message('note_off', channel=9, note=49, velocity=80, time=480),
    Message('note_off', channel=9, note=38, velocity=80, time=0),
    Message('note_off', channel=9, note=38, velocity=80, time=0),
    Message('note_on', channel=9, note=49, velocity=95, time=0),
    Message('note_off', channel=9, note=49, velocity=80, time=480),
    Message('note_on', channel=9, note=57, velocity=95, time=0),
    Message('note_on', channel=9, note=49, velocity=95, time=0),
    Message('note_on', channel=9, note=36, velocity=95, time=0),
    Message('note_on', channel=9, note=36, velocity=95, time=0),
    Message('note_off', channel=9, note=57, velocity=80, time=480),
    Message('note_off', channel=9, note=49, velocity=80, time=0),
    Message('note_off', channel=9, note=36, velocity=80, time=0),
    Message('note_off', channel=9, note=36, velocity=80, time=0),
    Message('note_on', channel=9, note=49, velocity=95, time=0),
    Message('note_on', channel=9, note=36, velocity=95, time=0),
    Message('note_on', channel=9, note=36, velocity=95, time=0),
    Message('note_off', channel=9, note=49, velocity=80, time=480),
    Message('note_off', channel=9, note=36, velocity=80, time=0),
    Message('note_off', channel=9, note=36, velocity=80, time=0),
    Message('note_on', channel=9, note=49, velocity=95, time=0),
    Message('note_on', channel=9, note=38, velocity=95, time=0),
    Message('note_on', channel=9, note=38, velocity=95, time=0),
    Message('note_off', channel=9, note=49, velocity=80, time=480),
    Message('note_off', channel=9, note=38, velocity=80, time=0),
    Message('note_off', channel=9, note=38, velocity=80, time=0),
    Message('note_on', channel=9, note=49, velocity=95, time=0),
    Message('note_off', channel=9, note=49, velocity=80, time=480),
    Message('note_on', channel=9, note=49, velocity=95, time=0),
    Message('note_on', channel=9, note=36, velocity=95, time=0),
    Message('note_on', channel=9, note=36, velocity=95, time=0),
    Message('note_off', channel=9, note=49, velocity=80, time=480),
    Message('note_off', channel=9, note=36, velocity=80, time=0),
    Message('note_off', channel=9, note=36, velocity=80, time=0),
    Message('note_on', channel=9, note=49, velocity=95, time=0),
    Message('note_on', channel=9, note=36, velocity=95, time=0),
    Message('note_on', channel=9, note=36, velocity=95, time=0),
    Message('note_off', channel=9, note=49, velocity=80, time=480),
    Message('note_off', channel=9, note=36, velocity=80, time=0),
    Message('note_off', channel=9, note=36, velocity=80, time=0),
    Message('note_on', channel=9, note=49, velocity=95, time=0),
    Message('note_on', channel=9, note=38, velocity=95, time=0),
    Message('note_on', channel=9, note=38, velocity=95, time=0),
    Message('note_off', channel=9, note=49, velocity=80, time=480),
    Message('note_off', channel=9, note=38, velocity=80, time=0),
    Message('note_off', channel=9, note=38, velocity=80, time=0),
    Message('note_on', channel=9, note=49, velocity=95, time=0),
    Message('note_off', channel=9, note=49, velocity=80, time=480),
    Message('note_on', channel=9, note=49, velocity=95, time=0),
    Message('note_on', channel=9, note=36, velocity=95, time=0),
    Message('note_on', channel=9, note=36, velocity=95, time=0),
    Message('note_off', channel=9, note=49, velocity=80, time=480),
    Message('note_off', channel=9, note=36, velocity=80, time=0),
    Message('note_off', channel=9, note=36, velocity=80, time=0),
    Message('note_on', channel=9, note=49, velocity=95, time=0),
    Message('note_on', channel=9, note=36, velocity=95, time=0),
    Message('note_on', channel=9, note=36, velocity=95, time=0),
    Message('note_off', channel=9, note=49, velocity=80, time=480),
    Message('note_off', channel=9, note=36, velocity=80, time=0),
    Message('note_off', channel=9, note=36, velocity=80, time=0),
    Message('note_on', channel=9, note=49, velocity=95, time=0),
    Message('note_on', channel=9, note=38, velocity=95, time=0),
    Message('note_on', channel=9, note=38, velocity=95, time=0),
    Message('note_off', channel=9, note=49, velocity=80, time=480),
    Message('note_off', channel=9, note=38, velocity=80, time=0),
    Message('note_off', channel=9, note=38, velocity=80, time=0),
    Message('note_on', channel=9, note=49, velocity=95, time=0),
    Message('note_off', channel=9, note=49, velocity=80, time=480),
    Message('note_on', channel=9, note=49, velocity=95, time=0),
    Message('note_on', channel=9, note=36, velocity=95, time=0),
    Message('note_on', channel=9, note=36, velocity=95, time=0),
    Message('note_off', channel=9, note=49, velocity=80, time=480),
    Message('note_off', channel=9, note=36, velocity=80, time=0),
    Message('note_off', channel=9, note=36, velocity=80, time=0),
    Message('note_on', channel=9, note=49, velocity=95, time=0),
    Message('note_on', channel=9, note=36, velocity=95, time=0),
    Message('note_on', channel=9, note=36, velocity=95, time=0),
    Message('note_off', channel=9, note=49, velocity=80, time=480),
    Message('note_off', channel=9, note=36, velocity=80, time=0),
    Message('note_off', channel=9, note=36, velocity=80, time=0),
    Message('note_on', channel=9, note=49, velocity=95, time=0),
    Message('note_on', channel=9, note=38, velocity=95, time=0),
    Message('note_on', channel=9, note=38, velocity=95, time=0),
    Message('note_off', channel=9, note=49, velocity=80, time=480),
    Message('note_off', channel=9, note=38, velocity=80, time=0),
    Message('note_off', channel=9, note=38, velocity=80, time=0),
    Message('note_on', channel=9, note=49, velocity=95, time=0),
    Message('note_off', channel=9, note=49, velocity=80, time=480),
    Message('note_on', channel=9, note=57, velocity=95, time=0),
    Message('note_on', channel=9, note=49, velocity=95, time=0),
    Message('note_on', channel=9, note=36, velocity=95, time=0),
    Message('note_on', channel=9, note=36, velocity=95, time=0),
    Message('note_off', channel=9, note=57, velocity=80, time=480),
    Message('note_off', channel=9, note=49, velocity=80, time=0),
    Message('note_off', channel=9, note=36, velocity=80, time=0),
    Message('note_off', channel=9, note=36, velocity=80, time=0),
    Message('note_on', channel=9, note=49, velocity=95, time=0),
    Message('note_on', channel=9, note=36, velocity=95, time=0),
    Message('note_on', channel=9, note=36, velocity=95, time=0),
    Message('note_off', channel=9, note=49, velocity=80, time=480),
    Message('note_off', channel=9, note=36, velocity=80, time=0),
    Message('note_off', channel=9, note=36, velocity=80, time=0),
    Message('note_on', channel=9, note=49, velocity=95, time=0),
    Message('note_on', channel=9, note=38, velocity=95, time=0),
    Message('note_on', channel=9, note=38, velocity=95, time=0),
    Message('note_off', channel=9, note=49, velocity=80, time=480),
    Message('note_off', channel=9, note=38, velocity=80, time=0),
    Message('note_off', channel=9, note=38, velocity=80, time=0),
    Message('note_on', channel=9, note=49, velocity=95, time=0),
    Message('note_off', channel=9, note=49, velocity=80, time=480),
    Message('note_on', channel=9, note=49, velocity=95, time=0),
    Message('note_on', channel=9, note=36, velocity=95, time=0),
    Message('note_on', channel=9, note=36, velocity=95, time=0),
    Message('note_off', channel=9, note=49, velocity=80, time=480),
    Message('note_off', channel=9, note=36, velocity=80, time=0),
    Message('note_off', channel=9, note=36, velocity=80, time=0),
    Message('note_on', channel=9, note=49, velocity=95, time=0),
    Message('note_on', channel=9, note=36, velocity=95, time=0),
    Message('note_on', channel=9, note=36, velocity=95, time=0),
    Message('note_off', channel=9, note=49, velocity=80, time=480),
    Message('note_off', channel=9, note=36, velocity=80, time=0),
    Message('note_off', channel=9, note=36, velocity=80, time=0),
    Message('note_on', channel=9, note=49, velocity=95, time=0),
    Message('note_on', channel=9, note=38, velocity=95, time=0),
    Message('note_on', channel=9, note=38, velocity=95, time=0),
    Message('note_off', channel=9, note=49, velocity=80, time=480),
    Message('note_off', channel=9, note=38, velocity=80, time=0),
    Message('note_off', channel=9, note=38, velocity=80, time=0),
    Message('note_on', channel=9, note=49, velocity=95, time=0),
    Message('note_off', channel=9, note=49, velocity=80, time=480),
    Message('note_on', channel=9, note=49, velocity=95, time=0),
    Message('note_on', channel=9, note=36, velocity=95, time=0),
    Message('note_on', channel=9, note=36, velocity=95, time=0),
    Message('note_off', channel=9, note=49, velocity=80, time=480),
    Message('note_off', channel=9, note=36, velocity=80, time=0),
    Message('note_off', channel=9, note=36, velocity=80, time=0),
    Message('note_on', channel=9, note=49, velocity=95, time=0),
    Message('note_on', channel=9, note=36, velocity=95, time=0),
    Message('note_on', channel=9, note=36, velocity=95, time=0),
    Message('note_off', channel=9, note=49, velocity=80, time=480),
    Message('note_off', channel=9, note=36, velocity=80, time=0),
    Message('note_off', channel=9, note=36, velocity=80, time=0),
    Message('note_on', channel=9, note=49, velocity=95, time=0),
    Message('note_on', channel=9, note=38, velocity=95, time=0),
    Message('note_on', channel=9, note=38, velocity=95, time=0),
    Message('note_off', channel=9, note=49, velocity=80, time=480),
    Message('note_off', channel=9, note=38, velocity=80, time=0),
    Message('note_off', channel=9, note=38, velocity=80, time=0),
    Message('note_on', channel=9, note=49, velocity=95, time=0),
    Message('note_off', channel=9, note=49, velocity=80, time=480),
    Message('note_on', channel=9, note=49, velocity=95, time=0),
    Message('note_on', channel=9, note=36, velocity=95, time=0),
    Message('note_on', channel=9, note=36, velocity=95, time=0),
    Message('note_off', channel=9, note=49, velocity=80, time=480),
    Message('note_off', channel=9, note=36, velocity=80, time=0),
    Message('note_off', channel=9, note=36, velocity=80, time=0),
    Message('note_on', channel=9, note=49, velocity=95, time=0),
    Message('note_on', channel=9, note=36, velocity=95, time=0),
    Message('note_on', channel=9, note=36, velocity=95, time=0),
    Message('note_off', channel=9, note=49, velocity=80, time=480),
    Message('note_off', channel=9, note=36, velocity=80, time=0),
    Message('note_off', channel=9, note=36, velocity=80, time=0),
    Message('note_on', channel=9, note=49, velocity=95, time=0),
    Message('note_on', channel=9, note=38, velocity=95, time=0),
    Message('note_on', channel=9, note=38, velocity=95, time=0),
    Message('note_off', channel=9, note=49, velocity=80, time=480),
    Message('note_off', channel=9, note=38, velocity=80, time=0),
    Message('note_off', channel=9, note=38, velocity=80, time=0),
    Message('note_on', channel=9, note=49, velocity=95, time=0),
    Message('note_off', channel=9, note=49, velocity=80, time=480),
    Message('note_on', channel=9, note=57, velocity=95, time=0),
    Message('note_on', channel=9, note=49, velocity=95, time=0),
    Message('note_on', channel=9, note=36, velocity=95, time=0),
    Message('note_on', channel=9, note=36, velocity=95, time=0),
    Message('note_off', channel=9, note=57, velocity=80, time=480),
    Message('note_off', channel=9, note=49, velocity=80, time=0),
    Message('note_off', channel=9, note=36, velocity=80, time=0),
    Message('note_off', channel=9, note=36, velocity=80, time=0),
    Message('note_on', channel=9, note=49, velocity=95, time=0),
    Message('note_on', channel=9, note=36, velocity=95, time=0),
    Message('note_on', channel=9, note=36, velocity=95, time=0),
    Message('note_off', channel=9, note=49, velocity=80, time=480),
    Message('note_off', channel=9, note=36, velocity=80, time=0),
    Message('note_off', channel=9, note=36, velocity=80, time=0),
    Message('note_on', channel=9, note=49, velocity=95, time=0),
    Message('note_on', channel=9, note=38, velocity=95, time=0),
    Message('note_on', channel=9, note=38, velocity=95, time=0),
    Message('note_off', channel=9, note=49, velocity=80, time=480),
    Message('note_off', channel=9, note=38, velocity=80, time=0),
    Message('note_off', channel=9, note=38, velocity=80, time=0),
    Message('note_on', channel=9, note=49, velocity=95, time=0),
    Message('note_off', channel=9, note=49, velocity=80, time=480),
    Message('note_on', channel=9, note=49, velocity=95, time=0),
    Message('note_on', channel=9, note=36, velocity=95, time=0),
    Message('note_on', channel=9, note=36, velocity=95, time=0),
    Message('note_off', channel=9, note=49, velocity=80, time=480),
    Message('note_off', channel=9, note=36, velocity=80, time=0),
    Message('note_off', channel=9, note=36, velocity=80, time=0),
    Message('note_on', channel=9, note=49, velocity=95, time=0),
    Message('note_on', channel=9, note=36, velocity=95, time=0),
    Message('note_on', channel=9, note=36, velocity=95, time=0),
    Message('note_off', channel=9, note=49, velocity=80, time=480),
    Message('note_off', channel=9, note=36, velocity=80, time=0),
    Message('note_off', channel=9, note=36, velocity=80, time=0),
    Message('note_on', channel=9, note=49, velocity=95, time=0),
    Message('note_on', channel=9, note=38, velocity=95, time=0),
    Message('note_on', channel=9, note=38, velocity=95, time=0),
    Message('note_off', channel=9, note=49, velocity=80, time=480),
    Message('note_off', channel=9, note=38, velocity=80, time=0),
    Message('note_off', channel=9, note=38, velocity=80, time=0),
    Message('note_on', channel=9, note=49, velocity=95, time=0),
    Message('note_off', channel=9, note=49, velocity=80, time=480),
    Message('note_on', channel=9, note=38, velocity=95, time=0),
    Message('note_on', channel=9, note=38, velocity=95, time=0),
    Message('note_off', channel=9, note=38, velocity=80, time=480),
    Message('note_off', channel=9, note=38, velocity=80, time=0),
    Message('note_on', channel=9, note=38, velocity=95, time=0),
    Message('note_on', channel=9, note=38, velocity=95, time=0),
    Message('note_off', channel=9, note=38, velocity=80, time=480),
    Message('note_off', channel=9, note=38, velocity=80, time=0),
    Message('note_on', channel=9, note=38, velocity=95, time=0),
    Message('note_on', channel=9, note=38, velocity=95, time=0),
    Message('note_off', channel=9, note=38, velocity=80, time=480),
    Message('note_off', channel=9, note=38, velocity=80, time=0),
    Message('note_on', channel=9, note=38, velocity=95, time=0),
    Message('note_on', channel=9, note=38, velocity=95, time=0),
    Message('note_off', channel=9, note=38, velocity=80, time=480),
    Message('note_off', channel=9, note=38, velocity=80, time=0),
    Message('note_on', channel=9, note=38, velocity=95, time=0),
    Message('note_on', channel=9, note=38, velocity=95, time=0),
    Message('note_off', channel=9, note=38, velocity=80, time=480),
    Message('note_off', channel=9, note=38, velocity=80, time=0),
    Message('note_on', channel=9, note=38, velocity=95, time=0),
    Message('note_on', channel=9, note=38, velocity=95, time=0),
    Message('note_off', channel=9, note=38, velocity=80, time=480),
    Message('note_off', channel=9, note=38, velocity=80, time=0),
    Message('note_on', channel=9, note=38, velocity=95, time=0),
    Message('note_on', channel=9, note=38, velocity=95, time=0),
    Message('note_off', channel=9, note=38, velocity=80, time=480),
    Message('note_off', channel=9, note=38, velocity=80, time=0),
    Message('note_on', channel=9, note=38, velocity=95, time=0),
    Message('note_on', channel=9, note=38, velocity=95, time=0),
    Message('note_off', channel=9, note=38, velocity=80, time=480),
    Message('note_off', channel=9, note=38, velocity=80, time=0),
    Message('note_on', channel=9, note=38, velocity=95, time=0),
    Message('note_on', channel=9, note=38, velocity=95, time=0),
    Message('note_off', channel=9, note=38, velocity=80, time=480),
    Message('note_off', channel=9, note=38, velocity=80, time=0),
    Message('note_on', channel=9, note=38, velocity=95, time=0),
    Message('note_on', channel=9, note=38, velocity=95, time=0),
    Message('note_off', channel=9, note=38, velocity=80, time=480),
    Message('note_off', channel=9, note=38, velocity=80, time=0),
    Message('note_on', channel=9, note=38, velocity=95, time=0),
    Message('note_on', channel=9, note=38, velocity=95, time=0),
    Message('note_off', channel=9, note=38, velocity=80, time=480),
    Message('note_off', channel=9, note=38, velocity=80, time=0),
    Message('note_on', channel=9, note=38, velocity=95, time=0),
    Message('note_on', channel=9, note=38, velocity=95, time=0),
    Message('note_off', channel=9, note=38, velocity=80, time=480),
    Message('note_off', channel=9, note=38, velocity=80, time=0),
    Message('note_on', channel=9, note=38, velocity=95, time=0),
    Message('note_on', channel=9, note=38, velocity=95, time=0),
    Message('note_off', channel=9, note=38, velocity=80, time=480),
    Message('note_off', channel=9, note=38, velocity=80, time=0),
    Message('note_on', channel=9, note=38, velocity=95, time=0),
    Message('note_on', channel=9, note=38, velocity=95, time=0),
    Message('note_off', channel=9, note=38, velocity=80, time=480),
    Message('note_off', channel=9, note=38, velocity=80, time=0),
    Message('note_on', channel=9, note=38, velocity=95, time=0),
    Message('note_on', channel=9, note=38, velocity=95, time=0),
    Message('note_off', channel=9, note=38, velocity=80, time=480),
    Message('note_off', channel=9, note=38, velocity=80, time=0),
    Message('note_on', channel=9, note=38, velocity=95, time=0),
    Message('note_on', channel=9, note=38, velocity=95, time=0),
    Message('note_off', channel=9, note=38, velocity=80, time=480),
    Message('note_off', channel=9, note=38, velocity=80, time=0),
    Message('control_change', channel=9, control=93, value=127, time=0),
    Message('control_change', channel=9, control=91, value=127, time=0),
    Message('note_on', channel=9, note=57, velocity=95, time=0),
    Message('note_on', channel=9, note=49, velocity=95, time=0),
    Message('note_on', channel=9, note=36, velocity=95, time=0),
    Message('note_on', channel=9, note=36, velocity=95, time=0),
    Message('note_off', channel=9, note=57, velocity=80, time=480),
    Message('note_off', channel=9, note=49, velocity=80, time=0),
    Message('note_off', channel=9, note=36, velocity=80, time=0),
    Message('note_off', channel=9, note=36, velocity=80, time=0),
    Message('note_on', channel=9, note=57, velocity=95, time=0),
    Message('note_on', channel=9, note=49, velocity=95, time=0),
    Message('note_on', channel=9, note=36, velocity=95, time=0),
    Message('note_on', channel=9, note=36, velocity=95, time=0),
    Message('note_off', channel=9, note=57, velocity=80, time=480),
    Message('note_off', channel=9, note=49, velocity=80, time=0),
    Message('note_off', channel=9, note=36, velocity=80, time=0),
    Message('note_off', channel=9, note=36, velocity=80, time=0),
    Message('note_on', channel=9, note=57, velocity=95, time=0),
    Message('note_on', channel=9, note=59, velocity=95, time=0),
    Message('note_on', channel=9, note=38, velocity=95, time=0),
    Message('note_on', channel=9, note=38, velocity=95, time=0),
    Message('note_off', channel=9, note=57, velocity=80, time=480),
    Message('note_off', channel=9, note=59, velocity=80, time=0),
    Message('note_off', channel=9, note=38, velocity=80, time=0),
    Message('note_off', channel=9, note=38, velocity=80, time=0),
    Message('note_on', channel=9, note=57, velocity=95, time=0),
    Message('note_on', channel=9, note=59, velocity=95, time=0),
    Message('note_on', channel=9, note=36, velocity=95, time=0),
    Message('note_on', channel=9, note=36, velocity=95, time=0),
    Message('note_off', channel=9, note=57, velocity=80, time=480),
    Message('note_off', channel=9, note=59, velocity=80, time=0),
    Message('note_off', channel=9, note=36, velocity=80, time=0),
    Message('note_off', channel=9, note=36, velocity=80, time=0),
    Message('control_change', channel=9, control=93, value=127, time=0),
    Message('control_change', channel=9, control=91, value=127, time=0),
    Message('note_on', channel=9, note=57, velocity=95, time=0),
    Message('note_on', channel=9, note=49, velocity=95, time=0),
    Message('note_on', channel=9, note=36, velocity=95, time=0),
    Message('note_on', channel=9, note=36, velocity=95, time=0),
    Message('note_off', channel=9, note=57, velocity=80, time=480),
    Message('note_off', channel=9, note=49, velocity=80, time=0),
    Message('note_off', channel=9, note=36, velocity=80, time=0),
    Message('note_off', channel=9, note=36, velocity=80, time=0),
    Message('note_on', channel=9, note=57, velocity=95, time=0),
    Message('note_on', channel=9, note=49, velocity=95, time=0),
    Message('note_on', channel=9, note=36, velocity=95, time=0),
    Message('note_on', channel=9, note=36, velocity=95, time=0),
    Message('note_off', channel=9, note=57, velocity=80, time=480),
    Message('note_off', channel=9, note=49, velocity=80, time=0),
    Message('note_off', channel=9, note=36, velocity=80, time=0),
    Message('note_off', channel=9, note=36, velocity=80, time=0),
    Message('note_on', channel=9, note=57, velocity=95, time=0),
    Message('note_on', channel=9, note=59, velocity=95, time=0),
    Message('note_on', channel=9, note=38, velocity=95, time=0),
    Message('note_on', channel=9, note=38, velocity=95, time=0),
    Message('note_off', channel=9, note=57, velocity=80, time=480),
    Message('note_off', channel=9, note=59, velocity=80, time=0),
    Message('note_off', channel=9, note=38, velocity=80, time=0),
    Message('note_off', channel=9, note=38, velocity=80, time=0),
    Message('note_on', channel=9, note=57, velocity=95, time=0),
    Message('note_on', channel=9, note=59, velocity=95, time=0),
    Message('note_on', channel=9, note=36, velocity=95, time=0),
    Message('note_on', channel=9, note=36, velocity=95, time=0),
    Message('note_off', channel=9, note=57, velocity=80, time=480),
    Message('note_off', channel=9, note=59, velocity=80, time=0),
    Message('note_off', channel=9, note=36, velocity=80, time=0),
    Message('note_off', channel=9, note=36, velocity=80, time=0),
    Message('control_change', channel=9, control=93, value=127, time=0),
    Message('control_change', channel=9, control=91, value=127, time=0),
    Message('note_on', channel=9, note=57, velocity=95, time=0),
    Message('note_on', channel=9, note=49, velocity=95, time=0),
    Message('note_on', channel=9, note=36, velocity=95, time=0),
    Message('note_on', channel=9, note=36, velocity=95, time=0),
    Message('note_off', channel=9, note=57, velocity=80, time=480),
    Message('note_off', channel=9, note=49, velocity=80, time=0),
    Message('note_off', channel=9, note=36, velocity=80, time=0),
    Message('note_off', channel=9, note=36, velocity=80, time=0),
    Message('note_on', channel=9, note=57, velocity=95, time=0),
    Message('note_on', channel=9, note=49, velocity=95, time=0),
    Message('note_on', channel=9, note=36, velocity=95, time=0),
    Message('note_on', channel=9, note=36, velocity=95, time=0),
    Message('note_off', channel=9, note=57, velocity=80, time=480),
    Message('note_off', channel=9, note=49, velocity=80, time=0),
    Message('note_off', channel=9, note=36, velocity=80, time=0),
    Message('note_off', channel=9, note=36, velocity=80, time=0),
    Message('note_on', channel=9, note=57, velocity=95, time=0),
    Message('note_on', channel=9, note=59, velocity=95, time=0),
    Message('note_on', channel=9, note=38, velocity=95, time=0),
    Message('note_on', channel=9, note=38, velocity=95, time=0),
    Message('note_off', channel=9, note=57, velocity=80, time=480),
    Message('note_off', channel=9, note=59, velocity=80, time=0),
    Message('note_off', channel=9, note=38, velocity=80, time=0),
    Message('note_off', channel=9, note=38, velocity=80, time=0),
    Message('note_on', channel=9, note=57, velocity=95, time=0),
    Message('note_on', channel=9, note=59, velocity=95, time=0),
    Message('note_on', channel=9, note=36, velocity=95, time=0),
    Message('note_on', channel=9, note=36, velocity=95, time=0),
    Message('note_off', channel=9, note=57, velocity=80, time=480),
    Message('note_off', channel=9, note=59, velocity=80, time=0),
    Message('note_off', channel=9, note=36, velocity=80, time=0),
    Message('note_off', channel=9, note=36, velocity=80, time=0),
    Message('control_change', channel=9, control=93, value=127, time=0),
    Message('control_change', channel=9, control=91, value=127, time=0),
    Message('note_on', channel=9, note=57, velocity=95, time=0),
    Message('note_on', channel=9, note=49, velocity=95, time=0),
    Message('note_on', channel=9, note=36, velocity=95, time=0),
    Message('note_on', channel=9, note=36, velocity=95, time=0),
    Message('note_off', channel=9, note=57, velocity=80, time=480),
    Message('note_off', channel=9, note=49, velocity=80, time=0),
    Message('note_off', channel=9, note=36, velocity=80, time=0),
    Message('note_off', channel=9, note=36, velocity=80, time=0),
    Message('note_on', channel=9, note=57, velocity=95, time=0),
    Message('note_on', channel=9, note=49, velocity=95, time=0),
    Message('note_on', channel=9, note=36, velocity=95, time=0),
    Message('note_on', channel=9, note=36, velocity=95, time=0),
    Message('note_off', channel=9, note=57, velocity=80, time=480),
    Message('note_off', channel=9, note=49, velocity=80, time=0),
    Message('note_off', channel=9, note=36, velocity=80, time=0),
    Message('note_off', channel=9, note=36, velocity=80, time=0),
    Message('note_on', channel=9, note=57, velocity=95, time=0),
    Message('note_on', channel=9, note=59, velocity=95, time=0),
    Message('note_on', channel=9, note=38, velocity=95, time=0),
    Message('note_on', channel=9, note=38, velocity=95, time=0),
    Message('note_off', channel=9, note=57, velocity=80, time=480),
    Message('note_off', channel=9, note=59, velocity=80, time=0),
    Message('note_off', channel=9, note=38, velocity=80, time=0),
    Message('note_off', channel=9, note=38, velocity=80, time=0),
    Message('note_on', channel=9, note=57, velocity=95, time=0),
    Message('note_on', channel=9, note=59, velocity=95, time=0),
    Message('note_on', channel=9, note=36, velocity=95, time=0),
    Message('note_on', channel=9, note=36, velocity=95, time=0),
    Message('note_off', channel=9, note=57, velocity=80, time=480),
    Message('note_off', channel=9, note=59, velocity=80, time=0),
    Message('note_off', channel=9, note=36, velocity=80, time=0),
    Message('note_off', channel=9, note=36, velocity=80, time=0),
    Message('control_change', channel=9, control=93, value=127, time=0),
    Message('control_change', channel=9, control=91, value=127, time=0),
    Message('note_on', channel=9, note=57, velocity=95, time=0),
    Message('note_on', channel=9, note=49, velocity=95, time=0),
    Message('note_on', channel=9, note=36, velocity=95, time=0),
    Message('note_on', channel=9, note=36, velocity=95, time=0),
    Message('note_off', channel=9, note=57, velocity=80, time=480),
    Message('note_off', channel=9, note=49, velocity=80, time=0),
    Message('note_off', channel=9, note=36, velocity=80, time=0),
    Message('note_off', channel=9, note=36, velocity=80, time=0),
    Message('note_on', channel=9, note=57, velocity=95, time=0),
    Message('note_on', channel=9, note=49, velocity=95, time=0),
    Message('note_on', channel=9, note=36, velocity=95, time=0),
    Message('note_on', channel=9, note=36, velocity=95, time=0),
    Message('note_off', channel=9, note=57, velocity=80, time=480),
    Message('note_off', channel=9, note=49, velocity=80, time=0),
    Message('note_off', channel=9, note=36, velocity=80, time=0),
    Message('note_off', channel=9, note=36, velocity=80, time=0),
    Message('note_on', channel=9, note=57, velocity=95, time=0),
    Message('note_on', channel=9, note=59, velocity=95, time=0),
    Message('note_on', channel=9, note=38, velocity=95, time=0),
    Message('note_on', channel=9, note=38, velocity=95, time=0),
    Message('note_off', channel=9, note=57, velocity=80, time=480),
    Message('note_off', channel=9, note=59, velocity=80, time=0),
    Message('note_off', channel=9, note=38, velocity=80, time=0),
    Message('note_off', channel=9, note=38, velocity=80, time=0),
    Message('note_on', channel=9, note=57, velocity=95, time=0),
    Message('note_on', channel=9, note=59, velocity=95, time=0),
    Message('note_on', channel=9, note=36, velocity=95, time=0),
    Message('note_on', channel=9, note=36, velocity=95, time=0),
    Message('note_off', channel=9, note=57, velocity=80, time=480),
    Message('note_off', channel=9, note=59, velocity=80, time=0),
    Message('note_off', channel=9, note=36, velocity=80, time=0),
    Message('note_off', channel=9, note=36, velocity=80, time=0),
    Message('control_change', channel=9, control=93, value=127, time=0),
    Message('control_change', channel=9, control=91, value=127, time=0),
    Message('note_on', channel=9, note=57, velocity=95, time=0),
    Message('note_on', channel=9, note=49, velocity=95, time=0),
    Message('note_on', channel=9, note=36, velocity=95, time=0),
    Message('note_on', channel=9, note=36, velocity=95, time=0),
    Message('note_off', channel=9, note=57, velocity=80, time=480),
    Message('note_off', channel=9, note=49, velocity=80, time=0),
    Message('note_off', channel=9, note=36, velocity=80, time=0),
    Message('note_off', channel=9, note=36, velocity=80, time=0),
    Message('note_on', channel=9, note=57, velocity=95, time=0),
    Message('note_on', channel=9, note=49, velocity=95, time=0),
    Message('note_on', channel=9, note=36, velocity=95, time=0),
    Message('note_on', channel=9, note=36, velocity=95, time=0),
    Message('note_off', channel=9, note=57, velocity=80, time=480),
    Message('note_off', channel=9, note=49, velocity=80, time=0),
    Message('note_off', channel=9, note=36, velocity=80, time=0),
    Message('note_off', channel=9, note=36, velocity=80, time=0),
    Message('note_on', channel=9, note=57, velocity=95, time=0),
    Message('note_on', channel=9, note=59, velocity=95, time=0),
    Message('note_on', channel=9, note=38, velocity=95, time=0),
    Message('note_on', channel=9, note=38, velocity=95, time=0),
    Message('note_off', channel=9, note=57, velocity=80, time=480),
    Message('note_off', channel=9, note=59, velocity=80, time=0),
    Message('note_off', channel=9, note=38, velocity=80, time=0),
    Message('note_off', channel=9, note=38, velocity=80, time=0),
    Message('note_on', channel=9, note=57, velocity=95, time=0),
    Message('note_on', channel=9, note=59, velocity=95, time=0),
    Message('note_on', channel=9, note=36, velocity=95, time=0),
    Message('note_on', channel=9, note=36, velocity=95, time=0),
    Message('note_off', channel=9, note=57, velocity=80, time=480),
    Message('note_off', channel=9, note=59, velocity=80, time=0),
    Message('note_off', channel=9, note=36, velocity=80, time=0),
    Message('note_off', channel=9, note=36, velocity=80, time=0),
    Message('control_change', channel=9, control=93, value=127, time=0),
    Message('control_change', channel=9, control=91, value=127, time=0),
    Message('note_on', channel=9, note=57, velocity=95, time=0),
    Message('note_on', channel=9, note=49, velocity=95, time=0),
    Message('note_on', channel=9, note=36, velocity=95, time=0),
    Message('note_on', channel=9, note=36, velocity=95, time=0),
    Message('note_off', channel=9, note=57, velocity=80, time=480),
    Message('note_off', channel=9, note=49, velocity=80, time=0),
    Message('note_off', channel=9, note=36, velocity=80, time=0),
    Message('note_off', channel=9, note=36, velocity=80, time=0),
    Message('note_on', channel=9, note=57, velocity=95, time=0),
    Message('note_on', channel=9, note=49, velocity=95, time=0),
    Message('note_on', channel=9, note=36, velocity=95, time=0),
    Message('note_on', channel=9, note=36, velocity=95, time=0),
    Message('note_off', channel=9, note=57, velocity=80, time=480),
    Message('note_off', channel=9, note=49, velocity=80, time=0),
    Message('note_off', channel=9, note=36, velocity=80, time=0),
    Message('note_off', channel=9, note=36, velocity=80, time=0),
    Message('note_on', channel=9, note=57, velocity=95, time=0),
    Message('note_on', channel=9, note=59, velocity=95, time=0),
    Message('note_on', channel=9, note=38, velocity=95, time=0),
    Message('note_on', channel=9, note=38, velocity=95, time=0),
    Message('note_off', channel=9, note=57, velocity=80, time=480),
    Message('note_off', channel=9, note=59, velocity=80, time=0),
    Message('note_off', channel=9, note=38, velocity=80, time=0),
    Message('note_off', channel=9, note=38, velocity=80, time=0),
    Message('note_on', channel=9, note=57, velocity=95, time=0),
    Message('note_on', channel=9, note=59, velocity=95, time=0),
    Message('note_on', channel=9, note=36, velocity=95, time=0),
    Message('note_on', channel=9, note=36, velocity=95, time=0),
    Message('note_off', channel=9, note=57, velocity=80, time=480),
    Message('note_off', channel=9, note=59, velocity=80, time=0),
    Message('note_off', channel=9, note=36, velocity=80, time=0),
    Message('note_off', channel=9, note=36, velocity=80, time=0),
    Message('control_change', channel=9, control=93, value=127, time=0),
    Message('control_change', channel=9, control=91, value=127, time=0),
    Message('note_on', channel=9, note=57, velocity=95, time=0),
    Message('note_on', channel=9, note=49, velocity=95, time=0),
    Message('note_on', channel=9, note=36, velocity=95, time=0),
    Message('note_on', channel=9, note=36, velocity=95, time=0),
    Message('note_off', channel=9, note=57, velocity=80, time=480),
    Message('note_off', channel=9, note=49, velocity=80, time=0),
    Message('note_off', channel=9, note=36, velocity=80, time=0),
    Message('note_off', channel=9, note=36, velocity=80, time=0),
    Message('note_on', channel=9, note=57, velocity=95, time=0),
    Message('note_on', channel=9, note=49, velocity=95, time=0),
    Message('note_on', channel=9, note=36, velocity=95, time=0),
    Message('note_on', channel=9, note=36, velocity=95, time=0),
    Message('note_off', channel=9, note=57, velocity=80, time=480),
    Message('note_off', channel=9, note=49, velocity=80, time=0),
    Message('note_off', channel=9, note=36, velocity=80, time=0),
    Message('note_off', channel=9, note=36, velocity=80, time=0),
    Message('note_on', channel=9, note=57, velocity=95, time=0),
    Message('note_on', channel=9, note=59, velocity=95, time=0),
    Message('note_on', channel=9, note=38, velocity=95, time=0),
    Message('note_on', channel=9, note=38, velocity=95, time=0),
    Message('note_off', channel=9, note=57, velocity=80, time=480),
    Message('note_off', channel=9, note=59, velocity=80, time=0),
    Message('note_off', channel=9, note=38, velocity=80, time=0),
    Message('note_off', channel=9, note=38, velocity=80, time=0),
    Message('note_on', channel=9, note=57, velocity=95, time=0),
    Message('note_on', channel=9, note=59, velocity=95, time=0),
    Message('note_on', channel=9, note=36, velocity=95, time=0),
    Message('note_on', channel=9, note=36, velocity=95, time=0),
    Message('note_off', channel=9, note=57, velocity=80, time=480),
    Message('note_off', channel=9, note=59, velocity=80, time=0),
    Message('note_off', channel=9, note=36, velocity=80, time=0),
    Message('note_off', channel=9, note=36, velocity=80, time=0),
    Message('control_change', channel=9, control=93, value=127, time=0),
    Message('control_change', channel=9, control=91, value=127, time=0),
    Message('note_on', channel=9, note=57, velocity=95, time=0),
    Message('note_on', channel=9, note=49, velocity=95, time=0),
    Message('note_on', channel=9, note=36, velocity=95, time=0),
    Message('note_on', channel=9, note=36, velocity=95, time=0),
    Message('note_off', channel=9, note=57, velocity=80, time=480),
    Message('note_off', channel=9, note=49, velocity=80, time=0),
    Message('note_off', channel=9, note=36, velocity=80, time=0),
    Message('note_off', channel=9, note=36, velocity=80, time=0),
    Message('note_on', channel=9, note=57, velocity=95, time=0),
    Message('note_on', channel=9, note=49, velocity=95, time=0),
    Message('note_on', channel=9, note=36, velocity=95, time=0),
    Message('note_on', channel=9, note=36, velocity=95, time=0),
    Message('note_off', channel=9, note=57, velocity=80, time=480),
    Message('note_off', channel=9, note=49, velocity=80, time=0),
    Message('note_off', channel=9, note=36, velocity=80, time=0),
    Message('note_off', channel=9, note=36, velocity=80, time=0),
    Message('note_on', channel=9, note=57, velocity=95, time=0),
    Message('note_on', channel=9, note=59, velocity=95, time=0),
    Message('note_on', channel=9, note=38, velocity=95, time=0),
    Message('note_on', channel=9, note=38, velocity=95, time=0),
    Message('note_off', channel=9, note=57, velocity=80, time=480),
    Message('note_off', channel=9, note=59, velocity=80, time=0),
    Message('note_off', channel=9, note=38, velocity=80, time=0),
    Message('note_off', channel=9, note=38, velocity=80, time=0),
    Message('note_on', channel=9, note=57, velocity=95, time=0),
    Message('note_on', channel=9, note=59, velocity=95, time=0),
    Message('note_on', channel=9, note=36, velocity=95, time=0),
    Message('note_on', channel=9, note=36, velocity=95, time=0),
    Message('note_off', channel=9, note=57, velocity=80, time=480),
    Message('note_off', channel=9, note=59, velocity=80, time=0),
    Message('note_off', channel=9, note=36, velocity=80, time=0),
    Message('note_off', channel=9, note=36, velocity=80, time=0),
    Message('control_change', channel=9, control=93, value=127, time=0),
    Message('control_change', channel=9, control=91, value=127, time=0),
    Message('note_on', channel=9, note=57, velocity=95, time=0),
    Message('note_on', channel=9, note=49, velocity=95, time=0),
    Message('note_on', channel=9, note=36, velocity=95, time=0),
    Message('note_on', channel=9, note=36, velocity=95, time=0),
    Message('note_off', channel=9, note=57, velocity=80, time=480),
    Message('note_off', channel=9, note=49, velocity=80, time=0),
    Message('note_off', channel=9, note=36, velocity=80, time=0),
    Message('note_off', channel=9, note=36, velocity=80, time=0),
    Message('note_on', channel=9, note=57, velocity=95, time=0),
    Message('note_on', channel=9, note=49, velocity=95, time=0),
    Message('note_on', channel=9, note=36, velocity=95, time=0),
    Message('note_on', channel=9, note=36, velocity=95, time=0),
    Message('note_off', channel=9, note=57, velocity=80, time=480),
    Message('note_off', channel=9, note=49, velocity=80, time=0),
    Message('note_off', channel=9, note=36, velocity=80, time=0),
    Message('note_off', channel=9, note=36, velocity=80, time=0),
    Message('note_on', channel=9, note=57, velocity=95, time=0),
    Message('note_on', channel=9, note=59, velocity=95, time=0),
    Message('note_on', channel=9, note=38, velocity=95, time=0),
    Message('note_on', channel=9, note=38, velocity=95, time=0),
    Message('note_off', channel=9, note=57, velocity=80, time=480),
    Message('note_off', channel=9, note=59, velocity=80, time=0),
    Message('note_off', channel=9, note=38, velocity=80, time=0),
    Message('note_off', channel=9, note=38, velocity=80, time=0),
    Message('note_on', channel=9, note=57, velocity=95, time=0),
    Message('note_on', channel=9, note=59, velocity=95, time=0),
    Message('note_on', channel=9, note=36, velocity=95, time=0),
    Message('note_on', channel=9, note=36, velocity=95, time=0),
    Message('note_off', channel=9, note=57, velocity=80, time=480),
    Message('note_off', channel=9, note=59, velocity=80, time=0),
    Message('note_off', channel=9, note=36, velocity=80, time=0),
    Message('note_off', channel=9, note=36, velocity=80, time=0),
    Message('control_change', channel=9, control=93, value=127, time=0),
    Message('control_change', channel=9, control=91, value=127, time=0),
    Message('note_on', channel=9, note=57, velocity=95, time=0),
    Message('note_on', channel=9, note=49, velocity=95, time=0),
    Message('note_on', channel=9, note=36, velocity=95, time=0),
    Message('note_on', channel=9, note=36, velocity=95, time=0),
    Message('note_off', channel=9, note=57, velocity=80, time=480),
    Message('note_off', channel=9, note=49, velocity=80, time=0),
    Message('note_off', channel=9, note=36, velocity=80, time=0),
    Message('note_off', channel=9, note=36, velocity=80, time=0),
    Message('note_on', channel=9, note=57, velocity=95, time=0),
    Message('note_on', channel=9, note=49, velocity=95, time=0),
    Message('note_on', channel=9, note=36, velocity=95, time=0),
    Message('note_on', channel=9, note=36, velocity=95, time=0),
    Message('note_off', channel=9, note=57, velocity=80, time=480),
    Message('note_off', channel=9, note=49, velocity=80, time=0),
    Message('note_off', channel=9, note=36, velocity=80, time=0),
    Message('note_off', channel=9, note=36, velocity=80, time=0),
    Message('note_on', channel=9, note=57, velocity=95, time=0),
    Message('note_on', channel=9, note=59, velocity=95, time=0),
    Message('note_on', channel=9, note=38, velocity=95, time=0),
    Message('note_on', channel=9, note=38, velocity=95, time=0),
    Message('note_off', channel=9, note=57, velocity=80, time=480),
    Message('note_off', channel=9, note=59, velocity=80, time=0),
    Message('note_off', channel=9, note=38, velocity=80, time=0),
    Message('note_off', channel=9, note=38, velocity=80, time=0),
    Message('note_on', channel=9, note=57, velocity=95, time=0),
    Message('note_on', channel=9, note=59, velocity=95, time=0),
    Message('note_on', channel=9, note=36, velocity=95, time=0),
    Message('note_on', channel=9, note=36, velocity=95, time=0),
    Message('note_off', channel=9, note=57, velocity=80, time=480),
    Message('note_off', channel=9, note=59, velocity=80, time=0),
    Message('note_off', channel=9, note=36, velocity=80, time=0),
    Message('note_off', channel=9, note=36, velocity=80, time=0),
    Message('control_change', channel=9, control=93, value=127, time=0),
    Message('control_change', channel=9, control=91, value=127, time=0),
    Message('note_on', channel=9, note=57, velocity=95, time=0),
    Message('note_on', channel=9, note=49, velocity=95, time=0),
    Message('note_on', channel=9, note=36, velocity=95, time=0),
    Message('note_on', channel=9, note=36, velocity=95, time=0),
    Message('note_off', channel=9, note=57, velocity=80, time=480),
    Message('note_off', channel=9, note=49, velocity=80, time=0),
    Message('note_off', channel=9, note=36, velocity=80, time=0),
    Message('note_off', channel=9, note=36, velocity=80, time=0),
    Message('note_on', channel=9, note=57, velocity=95, time=0),
    Message('note_on', channel=9, note=49, velocity=95, time=0),
    Message('note_on', channel=9, note=36, velocity=95, time=0),
    Message('note_on', channel=9, note=36, velocity=95, time=0),
    Message('note_off', channel=9, note=57, velocity=80, time=480),
    Message('note_off', channel=9, note=49, velocity=80, time=0),
    Message('note_off', channel=9, note=36, velocity=80, time=0),
    Message('note_off', channel=9, note=36, velocity=80, time=0),
    Message('note_on', channel=9, note=57, velocity=95, time=0),
    Message('note_on', channel=9, note=59, velocity=95, time=0),
    Message('note_on', channel=9, note=38, velocity=95, time=0),
    Message('note_on', channel=9, note=38, velocity=95, time=0),
    Message('note_off', channel=9, note=57, velocity=80, time=480),
    Message('note_off', channel=9, note=59, velocity=80, time=0),
    Message('note_off', channel=9, note=38, velocity=80, time=0),
    Message('note_off', channel=9, note=38, velocity=80, time=0),
    Message('note_on', channel=9, note=57, velocity=95, time=0),
    Message('note_on', channel=9, note=59, velocity=95, time=0),
    Message('note_on', channel=9, note=36, velocity=95, time=0),
    Message('note_on', channel=9, note=36, velocity=95, time=0),
    Message('note_off', channel=9, note=57, velocity=80, time=480),
    Message('note_off', channel=9, note=59, velocity=80, time=0),
    Message('note_off', channel=9, note=36, velocity=80, time=0),
    Message('note_off', channel=9, note=36, velocity=80, time=0),
    Message('control_change', channel=9, control=93, value=127, time=0),
    Message('control_change', channel=9, control=91, value=127, time=0),
    Message('note_on', channel=9, note=57, velocity=95, time=0),
    Message('note_on', channel=9, note=49, velocity=95, time=0),
    Message('note_on', channel=9, note=36, velocity=95, time=0),
    Message('note_on', channel=9, note=36, velocity=95, time=0),
    Message('note_off', channel=9, note=57, velocity=80, time=480),
    Message('note_off', channel=9, note=49, velocity=80, time=0),
    Message('note_off', channel=9, note=36, velocity=80, time=0),
    Message('note_off', channel=9, note=36, velocity=80, time=0),
    Message('note_on', channel=9, note=57, velocity=95, time=0),
    Message('note_on', channel=9, note=49, velocity=95, time=0),
    Message('note_on', channel=9, note=36, velocity=95, time=0),
    Message('note_on', channel=9, note=36, velocity=95, time=0),
    Message('note_off', channel=9, note=57, velocity=80, time=480),
    Message('note_off', channel=9, note=49, velocity=80, time=0),
    Message('note_off', channel=9, note=36, velocity=80, time=0),
    Message('note_off', channel=9, note=36, velocity=80, time=0),
    Message('note_on', channel=9, note=57, velocity=95, time=0),
    Message('note_on', channel=9, note=59, velocity=95, time=0),
    Message('note_on', channel=9, note=38, velocity=95, time=0),
    Message('note_on', channel=9, note=38, velocity=95, time=0),
    Message('note_off', channel=9, note=57, velocity=80, time=480),
    Message('note_off', channel=9, note=59, velocity=80, time=0),
    Message('note_off', channel=9, note=38, velocity=80, time=0),
    Message('note_off', channel=9, note=38, velocity=80, time=0),
    Message('note_on', channel=9, note=57, velocity=95, time=0),
    Message('note_on', channel=9, note=59, velocity=95, time=0),
    Message('note_on', channel=9, note=36, velocity=95, time=0),
    Message('note_on', channel=9, note=36, velocity=95, time=0),
    Message('note_off', channel=9, note=57, velocity=80, time=480),
    Message('note_off', channel=9, note=59, velocity=80, time=0),
    Message('note_off', channel=9, note=36, velocity=80, time=0),
    Message('note_off', channel=9, note=36, velocity=80, time=0),
    Message('control_change', channel=9, control=93, value=127, time=0),
    Message('control_change', channel=9, control=91, value=127, time=0),
    Message('note_on', channel=9, note=57, velocity=95, time=0),
    Message('note_on', channel=9, note=49, velocity=95, time=0),
    Message('note_on', channel=9, note=36, velocity=95, time=0),
    Message('note_on', channel=9, note=36, velocity=95, time=0),
    Message('note_off', channel=9, note=57, velocity=80, time=480),
    Message('note_off', channel=9, note=49, velocity=80, time=0),
    Message('note_off', channel=9, note=36, velocity=80, time=0),
    Message('note_off', channel=9, note=36, velocity=80, time=0),
    Message('note_on', channel=9, note=57, velocity=95, time=0),
    Message('note_on', channel=9, note=49, velocity=95, time=0),
    Message('note_on', channel=9, note=36, velocity=95, time=0),
    Message('note_on', channel=9, note=36, velocity=95, time=0),
    Message('note_off', channel=9, note=57, velocity=80, time=480),
    Message('note_off', channel=9, note=49, velocity=80, time=0),
    Message('note_off', channel=9, note=36, velocity=80, time=0),
    Message('note_off', channel=9, note=36, velocity=80, time=0),
    Message('note_on', channel=9, note=57, velocity=95, time=0),
    Message('note_on', channel=9, note=59, velocity=95, time=0),
    Message('note_on', channel=9, note=38, velocity=95, time=0),
    Message('note_on', channel=9, note=38, velocity=95, time=0),
    Message('note_off', channel=9, note=57, velocity=80, time=480),
    Message('note_off', channel=9, note=59, velocity=80, time=0),
    Message('note_off', channel=9, note=38, velocity=80, time=0),
    Message('note_off', channel=9, note=38, velocity=80, time=0),
    Message('note_on', channel=9, note=57, velocity=95, time=0),
    Message('note_on', channel=9, note=59, velocity=95, time=0),
    Message('note_on', channel=9, note=36, velocity=95, time=0),
    Message('note_on', channel=9, note=36, velocity=95, time=0),
    Message('note_off', channel=9, note=57, velocity=80, time=480),
    Message('note_off', channel=9, note=59, velocity=80, time=0),
    Message('note_off', channel=9, note=36, velocity=80, time=0),
    Message('note_off', channel=9, note=36, velocity=80, time=0),
    Message('control_change', channel=9, control=93, value=127, time=0),
    Message('control_change', channel=9, control=91, value=127, time=0),
    Message('note_on', channel=9, note=57, velocity=95, time=0),
    Message('note_on', channel=9, note=49, velocity=95, time=0),
    Message('note_on', channel=9, note=36, velocity=95, time=0),
    Message('note_on', channel=9, note=36, velocity=95, time=0),
    Message('note_off', channel=9, note=57, velocity=80, time=480),
    Message('note_off', channel=9, note=49, velocity=80, time=0),
    Message('note_off', channel=9, note=36, velocity=80, time=0),
    Message('note_off', channel=9, note=36, velocity=80, time=0),
    Message('note_on', channel=9, note=57, velocity=95, time=0),
    Message('note_on', channel=9, note=49, velocity=95, time=0),
    Message('note_on', channel=9, note=36, velocity=95, time=0),
    Message('note_on', channel=9, note=36, velocity=95, time=0),
    Message('note_off', channel=9, note=57, velocity=80, time=480),
    Message('note_off', channel=9, note=49, velocity=80, time=0),
    Message('note_off', channel=9, note=36, velocity=80, time=0),
    Message('note_off', channel=9, note=36, velocity=80, time=0),
    Message('note_on', channel=9, note=57, velocity=95, time=0),
    Message('note_on', channel=9, note=59, velocity=95, time=0),
    Message('note_on', channel=9, note=38, velocity=95, time=0),
    Message('note_on', channel=9, note=38, velocity=95, time=0),
    Message('note_off', channel=9, note=57, velocity=80, time=480),
    Message('note_off', channel=9, note=59, velocity=80, time=0),
    Message('note_off', channel=9, note=38, velocity=80, time=0),
    Message('note_off', channel=9, note=38, velocity=80, time=0),
    Message('note_on', channel=9, note=57, velocity=95, time=0),
    Message('note_on', channel=9, note=59, velocity=95, time=0),
    Message('note_on', channel=9, note=36, velocity=95, time=0),
    Message('note_on', channel=9, note=36, velocity=95, time=0),
    Message('note_off', channel=9, note=57, velocity=80, time=480),
    Message('note_off', channel=9, note=59, velocity=80, time=0),
    Message('note_off', channel=9, note=36, velocity=80, time=0),
    Message('note_off', channel=9, note=36, velocity=80, time=0),
    Message('control_change', channel=9, control=93, value=127, time=0),
    Message('control_change', channel=9, control=91, value=127, time=0),
    Message('note_on', channel=9, note=57, velocity=95, time=0),
    Message('note_on', channel=9, note=49, velocity=95, time=0),
    Message('note_on', channel=9, note=36, velocity=95, time=0),
    Message('note_on', channel=9, note=36, velocity=95, time=0),
    Message('note_off', channel=9, note=57, velocity=80, time=480),
    Message('note_off', channel=9, note=49, velocity=80, time=0),
    Message('note_off', channel=9, note=36, velocity=80, time=0),
    Message('note_off', channel=9, note=36, velocity=80, time=0),
    Message('note_on', channel=9, note=57, velocity=95, time=0),
    Message('note_on', channel=9, note=49, velocity=95, time=0),
    Message('note_on', channel=9, note=36, velocity=95, time=0),
    Message('note_on', channel=9, note=36, velocity=95, time=0),
    Message('note_off', channel=9, note=57, velocity=80, time=480),
    Message('note_off', channel=9, note=49, velocity=80, time=0),
    Message('note_off', channel=9, note=36, velocity=80, time=0),
    Message('note_off', channel=9, note=36, velocity=80, time=0),
    Message('note_on', channel=9, note=57, velocity=95, time=0),
    Message('note_on', channel=9, note=59, velocity=95, time=0),
    Message('note_on', channel=9, note=38, velocity=95, time=0),
    Message('note_on', channel=9, note=38, velocity=95, time=0),
    Message('note_off', channel=9, note=57, velocity=80, time=480),
    Message('note_off', channel=9, note=59, velocity=80, time=0),
    Message('note_off', channel=9, note=38, velocity=80, time=0),
    Message('note_off', channel=9, note=38, velocity=80, time=0),
    Message('note_on', channel=9, note=57, velocity=95, time=0),
    Message('note_on', channel=9, note=59, velocity=95, time=0),
    Message('note_on', channel=9, note=36, velocity=95, time=0),
    Message('note_on', channel=9, note=36, velocity=95, time=0),
    Message('note_off', channel=9, note=57, velocity=80, time=480),
    Message('note_off', channel=9, note=59, velocity=80, time=0),
    Message('note_off', channel=9, note=36, velocity=80, time=0),
    Message('note_off', channel=9, note=36, velocity=80, time=0),
    Message('control_change', channel=9, control=93, value=127, time=0),
    Message('control_change', channel=9, control=91, value=127, time=0),
    Message('note_on', channel=9, note=57, velocity=95, time=0),
    Message('note_on', channel=9, note=49, velocity=95, time=0),
    Message('note_on', channel=9, note=36, velocity=95, time=0),
    Message('note_on', channel=9, note=36, velocity=95, time=0),
    Message('note_off', channel=9, note=57, velocity=80, time=480),
    Message('note_off', channel=9, note=49, velocity=80, time=0),
    Message('note_off', channel=9, note=36, velocity=80, time=0),
    Message('note_off', channel=9, note=36, velocity=80, time=0),
    Message('note_on', channel=9, note=57, velocity=95, time=0),
    Message('note_on', channel=9, note=49, velocity=95, time=0),
    Message('note_on', channel=9, note=36, velocity=95, time=0),
    Message('note_on', channel=9, note=36, velocity=95, time=0),
    Message('note_off', channel=9, note=57, velocity=80, time=480),
    Message('note_off', channel=9, note=49, velocity=80, time=0),
    Message('note_off', channel=9, note=36, velocity=80, time=0),
    Message('note_off', channel=9, note=36, velocity=80, time=0),
    Message('note_on', channel=9, note=57, velocity=95, time=0),
    Message('note_on', channel=9, note=59, velocity=95, time=0),
    Message('note_on', channel=9, note=38, velocity=95, time=0),
    Message('note_on', channel=9, note=38, velocity=95, time=0),
    Message('note_off', channel=9, note=57, velocity=80, time=480),
    Message('note_off', channel=9, note=59, velocity=80, time=0),
    Message('note_off', channel=9, note=38, velocity=80, time=0),
    Message('note_off', channel=9, note=38, velocity=80, time=0),
    Message('note_on', channel=9, note=57, velocity=95, time=0),
    Message('note_on', channel=9, note=59, velocity=95, time=0),
    Message('note_on', channel=9, note=36, velocity=95, time=0),
    Message('note_on', channel=9, note=36, velocity=95, time=0),
    Message('note_off', channel=9, note=57, velocity=80, time=480),
    Message('note_off', channel=9, note=59, velocity=80, time=0),
    Message('note_off', channel=9, note=36, velocity=80, time=0),
    Message('note_off', channel=9, note=36, velocity=80, time=0),
    Message('control_change', channel=9, control=93, value=127, time=0),
    Message('control_change', channel=9, control=91, value=127, time=0),
    Message('note_on', channel=9, note=57, velocity=95, time=0),
    Message('note_on', channel=9, note=49, velocity=95, time=0),
    Message('note_on', channel=9, note=36, velocity=95, time=0),
    Message('note_on', channel=9, note=36, velocity=95, time=0),
    Message('note_off', channel=9, note=57, velocity=80, time=480),
    Message('note_off', channel=9, note=49, velocity=80, time=0),
    Message('note_off', channel=9, note=36, velocity=80, time=0),
    Message('note_off', channel=9, note=36, velocity=80, time=0),
    Message('note_on', channel=9, note=57, velocity=95, time=0),
    Message('note_on', channel=9, note=49, velocity=95, time=0),
    Message('note_on', channel=9, note=36, velocity=95, time=0),
    Message('note_on', channel=9, note=36, velocity=95, time=0),
    Message('note_off', channel=9, note=57, velocity=80, time=480),
    Message('note_off', channel=9, note=49, velocity=80, time=0),
    Message('note_off', channel=9, note=36, velocity=80, time=0),
    Message('note_off', channel=9, note=36, velocity=80, time=0),
    Message('note_on', channel=9, note=57, velocity=95, time=0),
    Message('note_on', channel=9, note=59, velocity=95, time=0),
    Message('note_on', channel=9, note=38, velocity=95, time=0),
    Message('note_on', channel=9, note=38, velocity=95, time=0),
    Message('note_off', channel=9, note=57, velocity=80, time=480),
    Message('note_off', channel=9, note=59, velocity=80, time=0),
    Message('note_off', channel=9, note=38, velocity=80, time=0),
    Message('note_off', channel=9, note=38, velocity=80, time=0),
    Message('note_on', channel=9, note=57, velocity=95, time=0),
    Message('note_on', channel=9, note=59, velocity=95, time=0),
    Message('note_on', channel=9, note=36, velocity=95, time=0),
    Message('note_on', channel=9, note=36, velocity=95, time=0),
    Message('note_off', channel=9, note=57, velocity=80, time=480),
    Message('note_off', channel=9, note=59, velocity=80, time=0),
    Message('note_off', channel=9, note=36, velocity=80, time=0),
    Message('note_off', channel=9, note=36, velocity=80, time=0),
    Message('control_change', channel=9, control=93, value=127, time=0),
    Message('control_change', channel=9, control=91, value=127, time=0),
    Message('note_on', channel=9, note=57, velocity=95, time=0),
    Message('note_on', channel=9, note=49, velocity=95, time=0),
    Message('note_on', channel=9, note=36, velocity=95, time=0),
    Message('note_on', channel=9, note=36, velocity=95, time=0),
    Message('note_off', channel=9, note=57, velocity=80, time=480),
    Message('note_off', channel=9, note=49, velocity=80, time=0),
    Message('note_off', channel=9, note=36, velocity=80, time=0),
    Message('note_off', channel=9, note=36, velocity=80, time=0),
    Message('note_on', channel=9, note=57, velocity=95, time=0),
    Message('note_on', channel=9, note=49, velocity=95, time=0),
    Message('note_on', channel=9, note=36, velocity=95, time=0),
    Message('note_on', channel=9, note=36, velocity=95, time=0),
    Message('note_off', channel=9, note=57, velocity=80, time=480),
    Message('note_off', channel=9, note=49, velocity=80, time=0),
    Message('note_off', channel=9, note=36, velocity=80, time=0),
    Message('note_off', channel=9, note=36, velocity=80, time=0),
    Message('note_on', channel=9, note=57, velocity=95, time=0),
    Message('note_on', channel=9, note=59, velocity=95, time=0),
    Message('note_on', channel=9, note=38, velocity=95, time=0),
    Message('note_on', channel=9, note=38, velocity=95, time=0),
    Message('note_off', channel=9, note=57, velocity=80, time=480),
    Message('note_off', channel=9, note=59, velocity=80, time=0),
    Message('note_off', channel=9, note=38, velocity=80, time=0),
    Message('note_off', channel=9, note=38, velocity=80, time=0),
    Message('note_on', channel=9, note=57, velocity=95, time=0),
    Message('note_on', channel=9, note=59, velocity=95, time=0),
    Message('note_on', channel=9, note=36, velocity=95, time=0),
    Message('note_on', channel=9, note=36, velocity=95, time=0),
    Message('note_off', channel=9, note=57, velocity=80, time=480),
    Message('note_off', channel=9, note=59, velocity=80, time=0),
    Message('note_off', channel=9, note=36, velocity=80, time=0),
    Message('note_off', channel=9, note=36, velocity=80, time=0),
    Message('control_change', channel=9, control=93, value=127, time=0),
    Message('control_change', channel=9, control=91, value=127, time=0),
    Message('note_on', channel=9, note=57, velocity=95, time=0),
    Message('note_on', channel=9, note=49, velocity=95, time=0),
    Message('note_on', channel=9, note=36, velocity=95, time=0),
    Message('note_on', channel=9, note=36, velocity=95, time=0),
    Message('note_off', channel=9, note=57, velocity=80, time=480),
    Message('note_off', channel=9, note=49, velocity=80, time=0),
    Message('note_off', channel=9, note=36, velocity=80, time=0),
    Message('note_off', channel=9, note=36, velocity=80, time=0),
    Message('note_on', channel=9, note=57, velocity=95, time=0),
    Message('note_on', channel=9, note=49, velocity=95, time=0),
    Message('note_on', channel=9, note=36, velocity=95, time=0),
    Message('note_on', channel=9, note=36, velocity=95, time=0),
    Message('note_off', channel=9, note=57, velocity=80, time=480),
    Message('note_off', channel=9, note=49, velocity=80, time=0),
    Message('note_off', channel=9, note=36, velocity=80, time=0),
    Message('note_off', channel=9, note=36, velocity=80, time=0),
    Message('note_on', channel=9, note=57, velocity=95, time=0),
    Message('note_on', channel=9, note=59, velocity=95, time=0),
    Message('note_on', channel=9, note=38, velocity=95, time=0),
    Message('note_on', channel=9, note=38, velocity=95, time=0),
    Message('note_off', channel=9, note=57, velocity=80, time=480),
    Message('note_off', channel=9, note=59, velocity=80, time=0),
    Message('note_off', channel=9, note=38, velocity=80, time=0),
    Message('note_off', channel=9, note=38, velocity=80, time=0),
    Message('note_on', channel=9, note=57, velocity=95, time=0),
    Message('note_on', channel=9, note=59, velocity=95, time=0),
    Message('note_on', channel=9, note=36, velocity=95, time=0),
    Message('note_on', channel=9, note=36, velocity=95, time=0),
    Message('note_off', channel=9, note=57, velocity=80, time=480),
    Message('note_off', channel=9, note=59, velocity=80, time=0),
    Message('note_off', channel=9, note=36, velocity=80, time=0),
    Message('note_off', channel=9, note=36, velocity=80, time=0),
    Message('control_change', channel=9, control=93, value=127, time=0),
    Message('control_change', channel=9, control=91, value=127, time=0),
    Message('note_on', channel=9, note=57, velocity=95, time=0),
    Message('note_on', channel=9, note=49, velocity=95, time=0),
    Message('note_on', channel=9, note=36, velocity=95, time=0),
    Message('note_on', channel=9, note=36, velocity=95, time=0),
    Message('note_off', channel=9, note=57, velocity=80, time=480),
    Message('note_off', channel=9, note=49, velocity=80, time=0),
    Message('note_off', channel=9, note=36, velocity=80, time=0),
    Message('note_off', channel=9, note=36, velocity=80, time=0),
    Message('note_on', channel=9, note=57, velocity=95, time=0),
    Message('note_on', channel=9, note=49, velocity=95, time=0),
    Message('note_on', channel=9, note=36, velocity=95, time=0),
    Message('note_on', channel=9, note=36, velocity=95, time=0),
    Message('note_off', channel=9, note=57, velocity=80, time=480),
    Message('note_off', channel=9, note=49, velocity=80, time=0),
    Message('note_off', channel=9, note=36, velocity=80, time=0),
    Message('note_off', channel=9, note=36, velocity=80, time=0),
    Message('note_on', channel=9, note=57, velocity=95, time=0),
    Message('note_on', channel=9, note=59, velocity=95, time=0),
    Message('note_on', channel=9, note=38, velocity=95, time=0),
    Message('note_on', channel=9, note=38, velocity=95, time=0),
    Message('note_off', channel=9, note=57, velocity=80, time=480),
    Message('note_off', channel=9, note=59, velocity=80, time=0),
    Message('note_off', channel=9, note=38, velocity=80, time=0),
    Message('note_off', channel=9, note=38, velocity=80, time=0),
    Message('note_on', channel=9, note=57, velocity=95, time=0),
    Message('note_on', channel=9, note=59, velocity=95, time=0),
    Message('note_on', channel=9, note=36, velocity=95, time=0),
    Message('note_on', channel=9, note=36, velocity=95, time=0),
    Message('note_off', channel=9, note=57, velocity=80, time=480),
    Message('note_off', channel=9, note=59, velocity=80, time=0),
    Message('note_off', channel=9, note=36, velocity=80, time=0),
    Message('note_off', channel=9, note=36, velocity=80, time=0),
    Message('control_change', channel=9, control=93, value=127, time=0),
    Message('control_change', channel=9, control=91, value=127, time=0),
    Message('note_on', channel=9, note=57, velocity=95, time=0),
    Message('note_on', channel=9, note=49, velocity=95, time=0),
    Message('note_on', channel=9, note=36, velocity=95, time=0),
    Message('note_on', channel=9, note=36, velocity=95, time=0),
    Message('note_off', channel=9, note=57, velocity=80, time=480),
    Message('note_off', channel=9, note=49, velocity=80, time=0),
    Message('note_off', channel=9, note=36, velocity=80, time=0),
    Message('note_off', channel=9, note=36, velocity=80, time=0),
    Message('note_on', channel=9, note=57, velocity=95, time=0),
    Message('note_on', channel=9, note=49, velocity=95, time=0),
    Message('note_on', channel=9, note=36, velocity=95, time=0),
    Message('note_on', channel=9, note=36, velocity=95, time=0),
    Message('note_off', channel=9, note=57, velocity=80, time=480),
    Message('note_off', channel=9, note=49, velocity=80, time=0),
    Message('note_off', channel=9, note=36, velocity=80, time=0),
    Message('note_off', channel=9, note=36, velocity=80, time=0),
    Message('note_on', channel=9, note=57, velocity=95, time=0),
    Message('note_on', channel=9, note=59, velocity=95, time=0),
    Message('note_on', channel=9, note=38, velocity=95, time=0),
    Message('note_on', channel=9, note=38, velocity=95, time=0),
    Message('note_off', channel=9, note=57, velocity=80, time=480),
    Message('note_off', channel=9, note=59, velocity=80, time=0),
    Message('note_off', channel=9, note=38, velocity=80, time=0),
    Message('note_off', channel=9, note=38, velocity=80, time=0),
    Message('note_on', channel=9, note=57, velocity=95, time=0),
    Message('note_on', channel=9, note=59, velocity=95, time=0),
    Message('note_on', channel=9, note=36, velocity=95, time=0),
    Message('note_on', channel=9, note=36, velocity=95, time=0),
    Message('note_off', channel=9, note=57, velocity=80, time=480),
    Message('note_off', channel=9, note=59, velocity=80, time=0),
    Message('note_off', channel=9, note=36, velocity=80, time=0),
    Message('note_off', channel=9, note=36, velocity=80, time=0),
    Message('control_change', channel=9, control=7, value=127, time=0),
    Message('control_change', channel=9, control=93, value=127, time=0),
    Message('control_change', channel=9, control=91, value=127, time=0),
    Message('note_on', channel=9, note=40, velocity=95, time=0),
    Message('note_on', channel=9, note=38, velocity=95, time=0),
    Message('note_on', channel=9, note=38, velocity=95, time=0),
    Message('note_off', channel=9, note=40, velocity=80, time=480),
    Message('note_off', channel=9, note=38, velocity=80, time=0),
    Message('note_off', channel=9, note=38, velocity=80, time=0),
    Message('note_on', channel=9, note=40, velocity=95, time=0),
    Message('note_on', channel=9, note=38, velocity=95, time=0),
    Message('note_on', channel=9, note=38, velocity=95, time=0),
    Message('note_off', channel=9, note=40, velocity=80, time=480),
    Message('note_off', channel=9, note=38, velocity=80, time=0),
    Message('note_off', channel=9, note=38, velocity=80, time=0),
    Message('note_on', channel=9, note=40, velocity=95, time=0),
    Message('note_on', channel=9, note=38, velocity=95, time=0),
    Message('note_on', channel=9, note=38, velocity=95, time=0),
    Message('note_off', channel=9, note=40, velocity=80, time=480),
    Message('note_off', channel=9, note=38, velocity=80, time=0),
    Message('note_off', channel=9, note=38, velocity=80, time=0),
    Message('note_on', channel=9, note=40, velocity=95, time=0),
    Message('note_on', channel=9, note=38, velocity=95, time=0),
    Message('note_on', channel=9, note=38, velocity=95, time=0),
    Message('note_off', channel=9, note=40, velocity=80, time=480),
    Message('note_off', channel=9, note=38, velocity=80, time=0),
    Message('note_off', channel=9, note=38, velocity=80, time=0),
    MetaMessage('end_of_track', time=0)])
])
