MidiFile(type=0, ticks_per_beat=96, tracks=[
  MidiTrack([
    MetaMessage('track_name', name="I STILL HAVEN'T FOUND WHAT I'M LOOKING FOR;P. Hewson / D. Evans / A. Clayton / L. Mullen", time=0),
    MetaMessage('copyright', text='(C) 1994 Tune 1000 Corporation  ;1981, Polygram International Music Publishing B.V.', time=0),
    MetaMessage('time_signature', numerator=4, denominator=4, clocks_per_click=24, notated_32nd_notes_per_beat=8, time=0),
    MetaMessage('set_tempo', tempo=588235, time=0),
    MetaMessage('key_signature', key='Db', time=0),
    Message('sysex', data=(126, 127, 9, 1), time=0),
    MetaMessage('text', text='Back Vocal', time=0),
    MetaMessage('lyrics', text='ALL rights reserved. Not for broadcast or ', time=0),
    MetaMessage('lyrics', text='\r', time=0),
    MetaMessage('lyrics', text='transmission of any kind. ', time=0),
    MetaMessage('lyrics', text='\r', time=0),
    MetaMessage('lyrics', text='DO NOT DUPLICATE. NOT FOR RENTAL. ', time=0),
    MetaMessage('lyrics', text='\r', time=0),
    Message('program_change', channel=0, program=27, time=98),
    Message('control_change', channel=0, control=7, value=105, time=1),
    Message('control_change', channel=0, control=10, value=45, time=0),
    Message('control_change', channel=0, control=11, value=127, time=0),
    Message('control_change', channel=0, control=91, value=80, time=1),
    Message('control_change', channel=0, control=93, value=30, time=0),
    Message('program_change', channel=1, program=39, time=3),
    Message('control_change', channel=1, control=7, value=105, time=1),
    Message('control_change', channel=1, control=10, value=64, time=0),
    Message('control_change', channel=1, control=11, value=127, time=0),
    Message('control_change', channel=1, control=91, value=20, time=1),
    Message('control_change', channel=1, control=93, value=30, time=0),
    Message('program_change', channel=2, program=28, time=3),
    Message('control_change', channel=2, control=7, value=105, time=1),
    Message('control_change', channel=2, control=10, value=75, time=0),
    Message('control_change', channel=2, control=11, value=127, time=0),
    Message('control_change', channel=2, control=91, value=55, time=1),
    Message('control_change', channel=2, control=93, value=0, time=0),
    Message('program_change', channel=3, program=103, time=3),
    Message('control_change', channel=3, control=7, value=100, time=1),
    Message('control_change', channel=3, control=10, value=64, time=0),
    Message('control_change', channel=3, control=11, value=127, time=0),
    Message('control_change', channel=3, control=91, value=60, time=1),
    Message('control_change', channel=3, control=93, value=10, time=0),
    Message('program_change', channel=4, program=50, time=3),
    Message('control_change', channel=4, control=7, value=85, time=1),
    Message('control_change', channel=4, control=10, value=60, time=0),
    Message('control_change', channel=4, control=11, value=127, time=0),
    Message('control_change', channel=4, control=91, value=85, time=1),
    Message('control_change', channel=4, control=93, value=64, time=0),
    Message('program_change', channel=5, program=5, time=3),
    Message('control_change', channel=5, control=7, value=105, time=1),
    Message('control_change', channel=5, control=10, value=35, time=0),
    Message('control_change', channel=5, control=11, value=127, time=0),
    Message('control_change', channel=5, control=91, value=100, time=1),
    Message('control_change', channel=5, control=93, value=64, time=0),
    Message('program_change', channel=6, program=51, time=3),
    Message('control_change', channel=6, control=7, value=105, time=1),
    Message('control_change', channel=6, control=10, value=50, time=0),
    Message('control_change', channel=6, control=11, value=127, time=0),
    Message('control_change', channel=6, control=91, value=60, time=1),
    Message('control_change', channel=6, control=93, value=64, time=0),
    Message('program_change', channel=7, program=27, time=3),
    Message('control_change', channel=7, control=7, value=105, time=1),
    Message('control_change', channel=7, control=10, value=125, time=0),
    Message('control_change', channel=7, control=11, value=127, time=0),
    Message('control_change', channel=7, control=91, value=80, time=1),
    Message('control_change', channel=7, control=93, value=30, time=0),
    Message('program_change', channel=8, program=27, time=3),
    Message('control_change', channel=8, control=7, value=105, time=1),
    Message('control_change', channel=8, control=10, value=3, time=0),
    Message('control_change', channel=8, control=11, value=127, time=0),
    Message('control_change', channel=8, control=91, value=80, time=1),
    Message('control_change', channel=8, control=93, value=30, time=0),
    Message('program_change', channel=9, program=16, time=3),
    Message('control_change', channel=9, control=7, value=105, time=1),
    Message('control_change', channel=9, control=11, value=127, time=0),
    Message('control_change', channel=9, control=91, value=41, time=1),
    Message('control_change', channel=9, control=93, value=0, time=0),
    Message('program_change', channel=10, program=28, time=3),
    Message('control_change', channel=10, control=7, value=105, time=1),
    Message('control_change', channel=10, control=10, value=113, time=0),
    Message('control_change', channel=10, control=11, value=127, time=0),
    Message('control_change', channel=10, control=91, value=60, time=1),
    Message('control_change', channel=10, control=93, value=0, time=0),
    Message('program_change', channel=11, program=28, time=3),
    Message('control_change', channel=11, control=7, value=105, time=1),
    Message('control_change', channel=11, control=10, value=5, time=0),
    Message('control_change', channel=11, control=11, value=127, time=0),
    Message('control_change', channel=11, control=91, value=60, time=1),
    Message('control_change', channel=11, control=93, value=0, time=0),
    MetaMessage('time_signature', numerator=4, denominator=4, clocks_per_click=24, notated_32nd_notes_per_beat=8, time=229),
    Message('note_on', channel=9, note=42, velocity=69, time=0),
    Message('note_on', channel=9, note=70, velocity=51, time=0),
    Message('control_change', channel=9, control=1, value=0, time=1),
    Message('pitchwheel', channel=9, pitch=0, time=0),
    Message('note_on', channel=0, note=49, velocity=88, time=0),
    Message('control_change', channel=9, control=1, value=0, time=0),
    Message('pitchwheel', channel=9, pitch=0, time=0),
    Message('control_change', channel=0, control=1, value=0, time=1),
    Message('pitchwheel', channel=0, pitch=0, time=0),
    Message('note_off', channel=9, note=42, velocity=64, time=4),
    Message('note_off', channel=9, note=70, velocity=64, time=0),
    Message('note_on', channel=9, note=70, velocity=21, time=18),
    Message('note_on', channel=7, note=49, velocity=48, time=1),
    Message('control_change', channel=7, control=1, value=0, time=1),
    Message('pitchwheel', channel=7, pitch=0, time=0),
    Message('note_off', channel=9, note=70, velocity=64, time=4),
    Message('note_on', channel=9, note=42, velocity=64, time=18),
    Message('note_on', channel=9, note=70, velocity=42, time=0),
    Message('note_on', channel=0, note=61, velocity=79, time=2),
    Message('note_off', channel=9, note=42, velocity=64, time=4),
    Message('note_off', channel=9, note=70, velocity=64, time=0),
    Message('note_on', channel=9, note=70, velocity=43, time=18),
    Message('note_on', channel=7, note=61, velocity=47, time=2),
    Message('note_off', channel=9, note=70, velocity=64, time=4),
    Message('note_on', channel=9, note=46, velocity=56, time=17),
    Message('note_on', channel=9, note=70, velocity=71, time=1),
    Message('note_on', channel=0, note=68, velocity=82, time=1),
    Message('note_off', channel=9, note=46, velocity=64, time=4),
    Message('note_off', channel=9, note=70, velocity=64, time=1),
    Message('note_on', channel=9, note=70, velocity=36, time=18),
    Message('note_on', channel=7, note=68, velocity=50, time=1),
    Message('note_off', channel=9, note=70, velocity=64, time=5),
    Message('note_on', channel=9, note=42, velocity=60, time=17),
    Message('note_on', channel=9, note=70, velocity=43, time=1),
    Message('note_off', channel=9, note=42, velocity=64, time=5),
    Message('note_off', channel=9, note=70, velocity=64, time=1),
    Message('note_off', channel=0, note=61, velocity=64, time=14),
    Message('note_on', channel=9, note=70, velocity=58, time=4),
    Message('note_off', channel=9, note=70, velocity=64, time=6),
    Message('note_off', channel=7, note=61, velocity=64, time=14),
    Message('note_on', channel=0, note=61, velocity=81, time=3),
    Message('note_on', channel=9, note=42, velocity=78, time=1),
    Message('note_on', channel=9, note=70, velocity=61, time=0),
    Message('note_off', channel=9, note=42, velocity=64, time=6),
    Message('note_off', channel=9, note=70, velocity=64, time=0),
    Message('note_on', channel=7, note=61, velocity=49, time=17),
    Message('note_on', channel=9, note=70, velocity=34, time=1),
    Message('note_off', channel=0, note=68, velocity=64, time=3),
    Message('note_off', channel=9, note=70, velocity=64, time=3),
    Message('note_on', channel=9, note=42, velocity=54, time=17),
    Message('note_on', channel=9, note=70, velocity=47, time=1),
    Message('note_on', channel=0, note=68, velocity=77, time=1),
    Message('note_off', channel=7, note=68, velocity=64, time=2),
    Message('note_off', channel=9, note=42, velocity=64, time=2),
    Message('note_off', channel=9, note=70, velocity=64, time=1),
    Message('note_on', channel=9, note=70, velocity=65, time=18),
    Message('note_on', channel=7, note=68, velocity=45, time=1),
    Message('note_off', channel=9, note=70, velocity=64, time=5),
    Message('note_on', channel=9, note=46, velocity=54, time=18),
    Message('note_on', channel=9, note=70, velocity=67, time=0),
    Message('note_off', channel=9, note=46, velocity=64, time=6),
    Message('note_off', channel=9, note=70, velocity=64, time=0),
    Message('note_off', channel=0, note=49, velocity=64, time=18),
    Message('note_on', channel=9, note=70, velocity=36, time=0),
    Message('note_off', channel=9, note=70, velocity=64, time=6),
    Message('note_on', channel=9, note=46, velocity=44, time=17),
    Message('note_off', channel=7, note=49, velocity=64, time=1),
    Message('note_on', channel=9, note=70, velocity=43, time=0),
    Message('note_on', channel=0, note=49, velocity=67, time=2),
    Message('note_off', channel=9, note=46, velocity=64, time=3),
    Message('note_off', channel=9, note=70, velocity=64, time=1),
    Message('note_on', channel=9, note=70, velocity=71, time=18),
    Message('note_on', channel=7, note=49, velocity=35, time=2),
    Message('note_off', channel=9, note=70, velocity=64, time=4),
    Message('note_off', channel=0, note=49, velocity=64, time=13),
    Message('note_on', channel=0, note=49, velocity=88, time=3),
    Message('note_on', channel=9, note=42, velocity=72, time=2),
    Message('note_on', channel=9, note=70, velocity=77, time=0),
    Message('note_off', channel=9, note=42, velocity=64, time=6),
    Message('note_off', channel=9, note=70, velocity=64, time=0),
    Message('note_off', channel=0, note=68, velocity=64, time=9),
    Message('note_off', channel=7, note=49, velocity=64, time=4),
    Message('note_on', channel=7, note=49, velocity=56, time=3),
    Message('note_on', channel=9, note=70, velocity=32, time=2),
    Message('note_off', channel=9, note=70, velocity=64, time=6),
    Message('pitchwheel', channel=0, pitch=367, time=3),
    Message('note_off', channel=0, note=61, velocity=64, time=1),
    Message('note_off', channel=7, note=68, velocity=64, time=5),
    Message('note_on', channel=9, note=42, velocity=49, time=8),
    Message('pitchwheel', channel=0, pitch=0, time=1),
    Message('note_on', channel=9, note=70, velocity=44, time=0),
    Message('note_on', channel=0, note=61, velocity=76, time=1),
    Message('note_off', channel=9, note=42, velocity=64, time=4),
    Message('note_off', channel=9, note=70, velocity=64, time=1),
    Message('pitchwheel', channel=7, pitch=367, time=3),
    Message('note_off', channel=7, note=61, velocity=64, time=1),
    Message('pitchwheel', channel=7, pitch=0, time=14),
    Message('note_on', channel=9, note=70, velocity=58, time=0),
    Message('note_on', channel=7, note=61, velocity=44, time=1),
    Message('note_off', channel=9, note=70, velocity=64, time=5),
    Message('note_on', channel=0, note=68, velocity=82, time=16),
    Message('note_on', channel=9, note=46, velocity=60, time=1),
    Message('note_on', channel=9, note=70, velocity=80, time=1),
    Message('note_off', channel=9, note=46, velocity=64, time=5),
    Message('note_off', channel=9, note=70, velocity=64, time=1),
    Message('note_on', channel=7, note=68, velocity=50, time=16),
    Message('note_on', channel=9, note=70, velocity=38, time=2),
    Message('note_off', channel=0, note=61, velocity=64, time=3),
    Message('note_off', channel=9, note=70, velocity=64, time=3),
    Message('note_on', channel=0, note=61, velocity=79, time=15),
    Message('note_on', channel=9, note=42, velocity=72, time=2),
    Message('note_on', channel=9, note=70, velocity=51, time=1),
    Message('note_off', channel=7, note=61, velocity=64, time=3),
    Message('note_off', channel=9, note=42, velocity=64, time=2),
    Message('note_off', channel=9, note=70, velocity=64, time=1),
    Message('note_on', channel=7, note=61, velocity=47, time=15),
    Message('note_on', channel=9, note=70, velocity=51, time=3),
    Message('note_off', channel=9, note=70, velocity=64, time=6),
    Message('note_off', channel=0, note=68, velocity=64, time=4),
    Message('note_on', channel=0, note=72, velocity=77, time=12),
    Message('note_on', channel=9, note=42, velocity=92, time=1),
    Message('note_on', channel=9, note=70, velocity=80, time=1),
    Message('note_off', channel=9, note=42, velocity=64, time=5),
    Message('note_off', channel=9, note=70, velocity=64, time=1),
    Message('note_off', channel=7, note=68, velocity=64, time=4),
    Message('note_on', channel=7, note=72, velocity=45, time=12),
    Message('note_on', channel=9, note=42, velocity=49, time=2),
    Message('note_on', channel=9, note=70, velocity=43, time=0),
    Message('note_off', channel=9, note=42, velocity=64, time=6),
    Message('note_off', channel=9, note=70, velocity=64, time=0),
    Message('note_off', channel=0, note=72, velocity=64, time=9),
    Message('note_on', channel=0, note=68, velocity=78, time=7),
    Message('note_on', channel=9, note=42, velocity=46, time=2),
    Message('note_on', channel=9, note=70, velocity=43, time=0),
    Message('note_off', channel=9, note=42, velocity=64, time=6),
    Message('note_off', channel=9, note=70, velocity=64, time=0),
    Message('note_off', channel=7, note=72, velocity=64, time=9),
    Message('note_on', channel=7, note=68, velocity=46, time=7),
    Message('note_on', channel=9, note=70, velocity=67, time=2),
    Message('note_off', channel=9, note=70, velocity=64, time=6),
    Message('note_off', channel=0, note=61, velocity=64, time=8),
    Message('note_on', channel=0, note=61, velocity=71, time=8),
    Message('note_on', channel=9, note=46, velocity=54, time=2),
    Message('note_on', channel=9, note=70, velocity=83, time=0),
    Message('note_off', channel=9, note=46, velocity=64, time=6),
    Message('note_off', channel=9, note=70, velocity=64, time=0),
    Message('note_off', channel=7, note=61, velocity=64, time=8),
    Message('note_on', channel=7, note=61, velocity=39, time=8),
    Message('note_on', channel=9, note=70, velocity=22, time=2),
    Message('note_off', channel=9, note=70, velocity=64, time=6),
    Message('note_off', channel=0, note=61, velocity=64, time=11),
    Message('note_on', channel=0, note=61, velocity=77, time=5),
    Message('note_on', channel=9, note=46, velocity=60, time=1),
    Message('note_on', channel=9, note=70, velocity=58, time=1),
    Message('note_off', channel=9, note=46, velocity=64, time=5),
    Message('note_off', channel=9, note=70, velocity=64, time=1),
    Message('note_off', channel=7, note=61, velocity=64, time=11),
    Message('note_on', channel=7, note=61, velocity=45, time=5),
    Message('note_on', channel=9, note=70, velocity=75, time=2),
    Message('note_off', channel=9, note=70, velocity=64, time=6),
    Message('note_off', channel=0, note=49, velocity=64, time=15),
    Message('note_on', channel=0, note=49, velocity=85, time=2),
    Message('note_on', channel=9, note=42, velocity=88, time=1),
    Message('note_on', channel=9, note=70, velocity=51, time=0),
    Message('note_off', channel=9, note=42, velocity=64, time=6),
    Message('note_off', channel=9, note=70, velocity=64, time=0),
    Message('note_off', channel=7, note=49, velocity=64, time=15),
    Message('note_on', channel=7, note=49, velocity=53, time=2),
    Message('note_on', channel=9, note=70, velocity=21, time=1),
    Message('note_off', channel=9, note=70, velocity=64, time=6),
    Message('note_off', channel=0, note=61, velocity=64, time=3),
    Message('note_on', channel=0, note=61, velocity=77, time=13),
    Message('note_on', channel=9, note=42, velocity=62, time=1),
    Message('note_on', channel=9, note=70, velocity=42, time=1),
    Message('note_off', channel=9, note=42, velocity=64, time=5),
    Message('note_off', channel=9, note=70, velocity=64, time=1),
    Message('note_off', channel=7, note=61, velocity=64, time=3),
    Message('note_off', channel=0, note=68, velocity=64, time=8),
    Message('note_on', channel=7, note=61, velocity=45, time=5),
    Message('note_on', channel=9, note=70, velocity=43, time=2),
    Message('note_off', channel=9, note=70, velocity=64, time=6),
    Message('note_off', channel=7, note=68, velocity=64, time=11),
    Message('note_on', channel=0, note=68, velocity=78, time=6),
    Message('note_on', channel=9, note=46, velocity=58, time=1),
    Message('note_on', channel=9, note=70, velocity=71, time=0),
    Message('note_off', channel=9, note=46, velocity=64, time=6),
    Message('note_off', channel=9, note=70, velocity=64, time=0),
    Message('note_on', channel=7, note=68, velocity=46, time=17),
    Message('note_on', channel=9, note=70, velocity=36, time=1),
    Message('note_off', channel=9, note=70, velocity=64, time=6),
    Message('note_on', channel=9, note=42, velocity=75, time=17),
    Message('note_on', channel=9, note=70, velocity=43, time=1),
    Message('note_off', channel=9, note=42, velocity=64, time=5),
    Message('note_off', channel=9, note=70, velocity=64, time=1),
    Message('note_on', channel=9, note=70, velocity=58, time=18),
    Message('note_off', channel=0, note=61, velocity=64, time=6),
    Message('note_off', channel=9, note=70, velocity=64, time=0),
    Message('note_on', channel=9, note=42, velocity=92, time=18),
    Message('note_on', channel=9, note=70, velocity=61, time=0),
    Message('note_on', channel=0, note=61, velocity=74, time=1),
    Message('note_off', channel=9, note=42, velocity=64, time=5),
    Message('note_off', channel=7, note=61, velocity=64, time=0),
    Message('note_off', channel=9, note=70, velocity=64, time=0),
    Message('note_on', channel=9, note=42, velocity=58, time=18),
    Message('note_on', channel=9, note=70, velocity=34, time=0),
    Message('note_on', channel=7, note=61, velocity=42, time=1),
    Message('note_off', channel=9, note=42, velocity=64, time=5),
    Message('note_off', channel=9, note=70, velocity=64, time=0),
    Message('note_off', channel=0, note=68, velocity=64, time=6),
    Message('note_on', channel=9, note=42, velocity=66, time=12),
    Message('note_on', channel=9, note=70, velocity=47, time=0),
    Message('note_on', channel=0, note=68, velocity=74, time=1),
    Message('note_off', channel=9, note=42, velocity=64, time=5),
    Message('note_off', channel=9, note=70, velocity=64, time=0),
    Message('note_off', channel=7, note=68, velocity=64, time=6),
    Message('note_on', channel=9, note=70, velocity=65, time=12),
    Message('note_on', channel=7, note=68, velocity=42, time=1),
    Message('note_off', channel=9, note=70, velocity=64, time=5),
    Message('note_on', channel=9, note=46, velocity=60, time=17),
    Message('note_on', channel=9, note=70, velocity=67, time=1),
    Message('note_off', channel=9, note=46, velocity=64, time=5),
    Message('note_off', channel=9, note=70, velocity=64, time=1),
    MetaMessage('lyrics', text='\n', time=3),
    Message('note_on', channel=9, note=70, velocity=36, time=15),
    Message('note_off', channel=9, note=70, velocity=64, time=6),
    Message('note_off', channel=0, note=49, velocity=64, time=11),
    Message('note_on', channel=9, note=42, velocity=50, time=7),
    Message('note_on', channel=9, note=70, velocity=43, time=0),
    Message('note_on', channel=0, note=49, velocity=73, time=2),
    Message('note_off', channel=9, note=42, velocity=64, time=4),
    Message('note_off', channel=9, note=70, velocity=64, time=0),
    Message('note_off', channel=7, note=49, velocity=64, time=11),
    Message('note_on', channel=9, note=70, velocity=71, time=7),
    Message('note_on', channel=7, note=49, velocity=41, time=2),
    Message('note_off', channel=9, note=70, velocity=64, time=4),
    Message('note_off', channel=0, note=49, velocity=64, time=16),
    Message('note_on', channel=9, note=42, velocity=81, time=1),
    Message('note_on', channel=9, note=70, velocity=77, time=1),
    Message('note_on', channel=0, note=49, velocity=80, time=1),
    Message('note_off', channel=9, note=42, velocity=64, time=4),
    Message('note_off', channel=9, note=70, velocity=64, time=1),
    Message('note_off', channel=7, note=49, velocity=64, time=16),
    Message('note_on', channel=9, note=70, velocity=32, time=2),
    Message('note_on', channel=7, note=49, velocity=48, time=1),
    Message('note_off', channel=9, note=70, velocity=64, time=5),
    Message('note_off', channel=0, note=61, velocity=64, time=9),
    Message('note_on', channel=9, note=42, velocity=64, time=8),
    Message('note_on', channel=0, note=61, velocity=70, time=1),
    Message('note_on', channel=9, note=70, velocity=44, time=0),
    Message('note_off', channel=9, note=42, velocity=64, time=5),
    Message('note_off', channel=9, note=70, velocity=64, time=1),
    Message('note_off', channel=7, note=61, velocity=64, time=9),
    Message('note_on', channel=7, note=61, velocity=38, time=9),
    Message('note_on', channel=9, note=70, velocity=58, time=0),
    Message('note_off', channel=9, note=70, velocity=64, time=6),
    Message('note_off', channel=0, note=68, velocity=64, time=1),
    Message('note_on', channel=9, note=46, velocity=58, time=16),
    Message('note_on', channel=0, note=68, velocity=77, time=1),
    Message('note_on', channel=9, note=70, velocity=80, time=0),
    Message('note_off', channel=9, note=46, velocity=64, time=5),
    Message('note_off', channel=9, note=70, velocity=64, time=1),
    Message('note_off', channel=7, note=68, velocity=64, time=1),
    Message('note_on', channel=7, note=68, velocity=45, time=17),
    Message('note_on', channel=9, note=70, velocity=38, time=0),
    Message('note_off', channel=9, note=70, velocity=64, time=6),
    Message('note_off', channel=0, note=61, velocity=64, time=5),
    Message('note_on', channel=9, note=42, velocity=64, time=12),
    Message('note_on', channel=0, note=61, velocity=73, time=1),
    Message('note_on', channel=9, note=70, velocity=51, time=0),
    Message('note_off', channel=9, note=42, velocity=64, time=5),
    Message('note_off', channel=9, note=70, velocity=64, time=1),
    Message('note_off', channel=7, note=61, velocity=64, time=5),
    Message('note_on', channel=7, note=61, velocity=41, time=13),
    Message('note_on', channel=9, note=70, velocity=51, time=0),
    Message('note_off', channel=9, note=70, velocity=64, time=6),
    Message('note_on', channel=9, note=42, velocity=84, time=17),
    Message('note_on', channel=9, note=70, velocity=80, time=1),
    Message('note_on', channel=0, note=72, velocity=64, time=2),
    Message('note_off', channel=9, note=42, velocity=64, time=3),
    Message('note_off', channel=0, note=68, velocity=64, time=0),
    Message('note_off', channel=9, note=70, velocity=64, time=1),
    Message('note_on', channel=9, note=42, velocity=47, time=17),
    Message('note_on', channel=9, note=70, velocity=43, time=1),
    Message('note_on', channel=7, note=72, velocity=32, time=2),
    Message('note_off', channel=9, note=42, velocity=64, time=3),
    Message('note_off', channel=7, note=68, velocity=64, time=0),
    Message('note_off', channel=9, note=70, velocity=64, time=1),
    MetaMessage('lyrics', text='I ', time=17),
    Message('note_on', channel=3, note=77, velocity=75, time=0),
    Message('note_on', channel=9, note=42, velocity=50, time=0),
    Message('control_change', channel=3, control=1, value=0, time=1),
    Message('pitchwheel', channel=3, pitch=0, time=0),
    Message('note_on', channel=9, note=70, velocity=43, time=0),
    Message('note_off', channel=0, note=72, velocity=64, time=1),
    Message('note_on', channel=0, note=68, velocity=63, time=1),
    Message('note_off', channel=9, note=42, velocity=64, time=3),
    Message('note_off', channel=9, note=70, velocity=64, time=1),
    Message('note_on', channel=9, note=70, velocity=67, time=18),
    Message('note_off', channel=7, note=72, velocity=64, time=1),
    Message('note_on', channel=7, note=68, velocity=31, time=1),
    Message('note_off', channel=9, note=70, velocity=64, time=4),
    Message('note_off', channel=0, note=61, velocity=64, time=8),
    Message('note_on', channel=9, note=46, velocity=47, time=9),
    Message('note_on', channel=0, note=61, velocity=70, time=1),
    Message('note_on', channel=9, note=70, velocity=83, time=0),
    Message('note_off', channel=9, note=46, velocity=64, time=5),
    Message('note_off', channel=9, note=70, velocity=64, time=1),
    Message('note_off', channel=3, note=77, velocity=64, time=7),
    Message('note_off', channel=7, note=61, velocity=64, time=1),
    MetaMessage('lyrics', text='have ', time=8),
    Message('note_on', channel=3, note=80, velocity=71, time=0),
    Message('note_on', channel=7, note=61, velocity=38, time=2),
    Message('note_on', channel=9, note=70, velocity=22, time=0),
    Message('note_off', channel=9, note=70, velocity=64, time=6),
    Message('note_off', channel=0, note=61, velocity=64, time=9),
    Message('note_on', channel=9, note=46, velocity=54, time=8),
    Message('note_on', channel=0, note=61, velocity=74, time=0),
    Message('note_on', channel=9, note=70, velocity=58, time=1),
    Message('note_off', channel=9, note=46, velocity=64, time=5),
    Message('note_off', channel=9, note=70, velocity=64, time=1),
    Message('note_off', channel=7, note=61, velocity=64, time=9),
    Message('note_on', channel=7, note=61, velocity=42, time=8),
    Message('note_on', channel=9, note=70, velocity=75, time=1),
    Message('note_off', channel=3, note=80, velocity=64, time=3),
    Message('note_off', channel=9, note=70, velocity=64, time=3),
    MetaMessage('lyrics', text='climbed ', time=14),
    Message('note_on', channel=3, note=80, velocity=64, time=0),
    Message('note_off', channel=0, note=49, velocity=64, time=1),
    Message('note_on', channel=9, note=42, velocity=81, time=2),
    Message('note_on', channel=0, note=49, velocity=82, time=1),
    Message('note_on', channel=9, note=70, velocity=51, time=0),
    Message('note_off', channel=9, note=42, velocity=64, time=5),
    Message('note_off', channel=9, note=70, velocity=64, time=1),
    Message('note_off', channel=7, note=49, velocity=64, time=15),
    Message('note_on', channel=7, note=49, velocity=50, time=3),
    Message('note_on', channel=9, note=70, velocity=21, time=0),
    Message('note_off', channel=9, note=70, velocity=64, time=6),
    Message('note_off', channel=0, note=61, velocity=64, time=13),
    Message('note_on', channel=9, note=42, velocity=47, time=4),
    Message('note_on', channel=9, note=70, velocity=42, time=1),
    Message('note_on', channel=0, note=61, velocity=64, time=3),
    Message('note_off', channel=9, note=42, velocity=64, time=2),
    Message('note_off', channel=9, note=70, velocity=64, time=1),
    Message('note_off', channel=3, note=80, velocity=64, time=2),
    Message('note_off', channel=7, note=61, velocity=64, time=11),
    Message('note_on', channel=9, note=70, velocity=43, time=5),
    Message('note_on', channel=3, note=77, velocity=59, time=2),
    Message('note_off', channel=0, note=68, velocity=64, time=1),
    Message('note_on', channel=7, note=61, velocity=32, time=0),
    Message('note_off', channel=9, note=70, velocity=64, time=3),
    Message('note_on', channel=9, note=46, velocity=58, time=17),
    Message('note_on', channel=9, note=70, velocity=71, time=1),
    Message('note_on', channel=0, note=68, velocity=67, time=3),
    Message('note_off', channel=7, note=68, velocity=64, time=0),
    Message('note_off', channel=9, note=46, velocity=64, time=2),
    Message('note_off', channel=9, note=70, velocity=64, time=1),
    Message('note_on', channel=9, note=70, velocity=36, time=18),
    Message('note_on', channel=7, note=68, velocity=35, time=3),
    Message('note_off', channel=9, note=70, velocity=64, time=3),
    Message('note_off', channel=3, note=77, velocity=64, time=7),
    Message('note_on', channel=9, note=42, velocity=60, time=10),
    Message('note_on', channel=9, note=70, velocity=43, time=1),
    Message('note_off', channel=9, note=42, velocity=64, time=5),
    Message('note_off', channel=9, note=70, velocity=64, time=1),
    Message('note_on', channel=9, note=70, velocity=58, time=18),
    Message('note_off', channel=9, note=70, velocity=64, time=6),
    Message('note_off', channel=0, note=61, velocity=64, time=8),
    Message('note_on', channel=9, note=42, velocity=81, time=9),
    Message('note_on', channel=9, note=70, velocity=61, time=1),
    Message('note_on', channel=0, note=61, velocity=67, time=3),
    Message('note_off', channel=9, note=42, velocity=64, time=2),
    Message('note_off', channel=9, note=70, velocity=64, time=1),
    Message('note_off', channel=7, note=61, velocity=64, time=8),
    Message('note_on', channel=9, note=70, velocity=34, time=10),
    Message('note_on', channel=7, note=61, velocity=35, time=3),
    Message('note_off', channel=9, note=70, velocity=64, time=3),
    Message('note_off', channel=0, note=68, velocity=64, time=7),
    MetaMessage('lyrics', text='high', time=10),
    Message('note_on', channel=3, note=82, velocity=75, time=0),
    Message('note_on', channel=9, note=42, velocity=47, time=0),
    Message('note_on', channel=9, note=70, velocity=47, time=1),
    Message('note_on', channel=0, note=68, velocity=70, time=2),
    Message('note_off', channel=9, note=42, velocity=64, time=3),
    Message('note_off', channel=9, note=70, velocity=64, time=1),
    Message('note_off', channel=7, note=68, velocity=64, time=7),
    Message('note_on', channel=9, note=70, velocity=65, time=11),
    Message('note_on', channel=7, note=68, velocity=38, time=2),
    Message('note_off', channel=9, note=70, velocity=64, time=4),
    Message('note_on', channel=9, note=46, velocity=62, time=18),
    Message('note_on', channel=9, note=70, velocity=67, time=0),
    Message('note_off', channel=9, note=46, velocity=64, time=6),
    Message('note_off', channel=9, note=70, velocity=64, time=0),
    Message('note_off', channel=3, note=82, velocity=64, time=15),
    Message('note_on', channel=9, note=70, velocity=36, time=3),
    MetaMessage('lyrics', text='est ', time=2),
    Message('note_on', channel=3, note=80, velocity=71, time=0),
    Message('note_off', channel=9, note=70, velocity=64, time=4),
    Message('note_off', channel=0, note=49, velocity=64, time=9),
    Message('note_on', channel=9, note=42, velocity=58, time=8),
    Message('note_on', channel=9, note=70, velocity=43, time=1),
    Message('note_on', channel=0, note=49, velocity=56, time=2),
    Message('note_off', channel=9, note=42, velocity=64, time=3),
    Message('note_off', channel=9, note=70, velocity=64, time=1),
    Message('note_off', channel=7, note=49, velocity=64, time=9),
    Message('note_on', channel=9, note=70, velocity=71, time=9),
    Message('note_on', channel=7, note=49, velocity=24, time=2),
    Message('note_off', channel=9, note=70, velocity=64, time=4),
    Message('note_off', channel=3, note=80, velocity=64, time=7),
    Message('note_off', channel=0, note=49, velocity=64, time=6),
    Message('note_on', channel=0, note=49, velocity=75, time=4),
    Message('note_on', channel=9, note=42, velocity=81, time=1),
    Message('note_on', channel=9, note=70, velocity=77, time=0),
    MetaMessage('lyrics', text='moun', time=2),
    Message('note_on', channel=3, note=80, velocity=74, time=0),
    Message('note_off', channel=9, note=42, velocity=64, time=4),
    Message('note_off', channel=9, note=70, velocity=64, time=0),
    Message('note_off', channel=7, note=49, velocity=64, time=13),
    Message('note_on', channel=7, note=49, velocity=43, time=4),
    Message('note_on', channel=9, note=70, velocity=32, time=1),
    Message('note_off', channel=9, note=70, velocity=64, time=6),
    Message('note_off', channel=0, note=61, velocity=64, time=3),
    Message('note_on', channel=9, note=42, velocity=47, time=14),
    Message('note_on', channel=9, note=70, velocity=44, time=1),
    Message('note_on', channel=0, note=61, velocity=75, time=1),
    Message('note_off', channel=9, note=42, velocity=64, time=4),
    Message('note_off', channel=9, note=70, velocity=64, time=1),
    Message('note_off', channel=0, note=68, velocity=64, time=3),
    Message('note_off', channel=7, note=61, velocity=64, time=0),
    Message('note_off', channel=3, note=80, velocity=64, time=12),
    Message('note_on', channel=9, note=70, velocity=58, time=3),
    Message('note_on', channel=7, note=61, velocity=43, time=1),
    MetaMessage('lyrics', text='tains, ', time=2),
    MetaMessage('lyrics', text='\r', time=0),
    Message('note_on', channel=3, note=77, velocity=64, time=0),
    Message('note_off', channel=9, note=70, velocity=64, time=3),
    Message('note_off', channel=7, note=68, velocity=64, time=3),
    Message('note_on', channel=9, note=46, velocity=62, time=14),
    Message('note_on', channel=0, note=68, velocity=74, time=0),
    Message('note_on', channel=9, note=70, velocity=80, time=1),
    Message('note_off', channel=9, note=46, velocity=64, time=5),
    Message('note_off', channel=9, note=70, velocity=64, time=1),
    Message('note_on', channel=7, note=68, velocity=42, time=17),
    Message('note_on', channel=9, note=70, velocity=38, time=1),
    Message('note_off', channel=9, note=70, velocity=64, time=6),
    Message('note_off', channel=3, note=77, velocity=64, time=5),
    Message('note_off', channel=0, note=61, velocity=64, time=2),
    Message('note_on', channel=9, note=42, velocity=54, time=11),
    Message('note_on', channel=0, note=61, velocity=72, time=0),
    Message('note_on', channel=9, note=70, velocity=51, time=0),
    Message('note_off', channel=9, note=42, velocity=64, time=6),
    Message('note_off', channel=9, note=70, velocity=64, time=0),
    Message('note_off', channel=7, note=61, velocity=64, time=7),
    Message('note_on', channel=7, note=61, velocity=40, time=11),
    Message('note_on', channel=9, note=70, velocity=51, time=0),
    Message('note_off', channel=9, note=70, velocity=64, time=6),
    Message('note_off', channel=0, note=68, velocity=64, time=12),
    Message('note_on', channel=9, note=42, velocity=72, time=5),
    Message('note_on', channel=9, note=70, velocity=80, time=1),
    Message('note_on', channel=0, note=72, velocity=77, time=2),
    Message('note_off', channel=9, note=42, velocity=64, time=3),
    Message('note_off', channel=9, note=70, velocity=64, time=1),
    Message('note_off', channel=7, note=68, velocity=64, time=12),
    Message('note_on', channel=9, note=70, velocity=43, time=6),
    Message('note_on', channel=7, note=72, velocity=45, time=2),
    Message('note_off', channel=9, note=70, velocity=64, time=4),
    Message('note_off', channel=0, note=72, velocity=64, time=11),
    Message('note_on', channel=9, note=42, velocity=52, time=7),
    Message('note_on', channel=9, note=70, velocity=43, time=0),
    Message('note_on', channel=0, note=68, velocity=72, time=1),
    MetaMessage('lyrics', text='I ', time=4),
    Message('note_on', channel=3, note=77, velocity=81, time=0),
    Message('note_off', channel=9, note=42, velocity=64, time=1),
    Message('note_off', channel=9, note=70, velocity=64, time=0),
    Message('note_off', channel=7, note=72, velocity=64, time=11),
    Message('note_on', channel=9, note=70, velocity=67, time=7),
    Message('note_on', channel=7, note=68, velocity=40, time=1),
    Message('note_off', channel=9, note=70, velocity=64, time=5),
    Message('note_off', channel=0, note=61, velocity=64, time=11),
    Message('note_on', channel=9, note=46, velocity=46, time=7),
    Message('note_on', channel=9, note=70, velocity=83, time=0),
    Message('note_on', channel=0, note=61, velocity=69, time=1),
    Message('note_off', channel=9, note=46, velocity=64, time=5),
    Message('note_off', channel=9, note=70, velocity=64, time=0),
    Message('note_off', channel=3, note=77, velocity=64, time=6),
    Message('note_off', channel=7, note=61, velocity=64, time=5),
    MetaMessage('lyrics', text='have ', time=5),
    Message('note_on', channel=3, note=80, velocity=75, time=0),
    Message('note_on', channel=9, note=70, velocity=22, time=2),
    Message('note_on', channel=7, note=61, velocity=37, time=1),
    Message('note_off', channel=9, note=70, velocity=64, time=5),
    Message('note_off', channel=0, note=61, velocity=64, time=12),
    Message('note_on', channel=9, note=46, velocity=64, time=5),
    Message('note_on', channel=9, note=70, velocity=58, time=1),
    Message('note_on', channel=0, note=61, velocity=71, time=2),
    Message('note_off', channel=9, note=46, velocity=64, time=3),
    Message('note_off', channel=9, note=70, velocity=64, time=1),
    Message('note_off', channel=7, note=61, velocity=64, time=12),
    Message('note_on', channel=9, note=70, velocity=75, time=6),
    Message('note_on', channel=7, note=61, velocity=39, time=2),
    Message('note_off', channel=9, note=70, velocity=64, time=4),
    Message('note_off', channel=3, note=80, velocity=64, time=1),
    MetaMessage('lyrics', text='run ', time=13),
    Message('note_on', channel=3, note=80, velocity=84, time=0),
    Message('note_on', channel=9, note=42, velocity=81, time=3),
    Message('note_on', channel=9, note=70, velocity=51, time=1),
    Message('note_off', channel=0, note=49, velocity=64, time=1),
    Message('note_on', channel=0, note=49, velocity=79, time=1),
    Message('note_off', channel=9, note=42, velocity=64, time=3),
    Message('note_off', channel=9, note=70, velocity=64, time=1),
    Message('note_on', channel=9, note=70, velocity=21, time=18),
    Message('note_off', channel=7, note=49, velocity=64, time=1),
    Message('note_on', channel=7, note=49, velocity=47, time=1),
    Message('note_off', channel=9, note=70, velocity=64, time=4),
    Message('note_off', channel=0, note=61, velocity=64, time=6),
    Message('note_on', channel=9, note=42, velocity=69, time=11),
    Message('note_on', channel=9, note=70, velocity=42, time=1),
    Message('note_on', channel=0, note=61, velocity=71, time=2),
    Message('note_off', channel=9, note=42, velocity=64, time=3),
    Message('note_off', channel=9, note=70, velocity=64, time=1),
    Message('note_off', channel=7, note=61, velocity=64, time=6),
    Message('note_off', channel=0, note=68, velocity=64, time=5),
    Message('note_on', channel=9, note=42, velocity=58, time=6),
    Message('note_off', channel=3, note=80, velocity=64, time=1),
    Message('note_on', channel=9, note=70, velocity=43, time=0),
    Message('note_on', channel=7, note=61, velocity=39, time=2),
    Message('note_on', channel=3, note=77, velocity=68, time=2),
    Message('note_off', channel=9, note=42, velocity=64, time=1),
    Message('note_off', channel=9, note=70, velocity=64, time=1),
    Message('note_off', channel=7, note=68, velocity=64, time=11),
    Message('note_on', channel=9, note=46, velocity=52, time=7),
    Message('note_on', channel=0, note=68, velocity=77, time=0),
    Message('note_on', channel=9, note=70, velocity=71, time=0),
    Message('note_off', channel=9, note=46, velocity=64, time=6),
    Message('note_off', channel=9, note=70, velocity=64, time=0),
    Message('note_on', channel=7, note=68, velocity=45, time=18),
    Message('note_on', channel=9, note=70, velocity=36, time=0),
    Message('note_off', channel=9, note=70, velocity=64, time=6),
    Message('note_off', channel=3, note=77, velocity=64, time=11),
    Message('note_on', channel=9, note=42, velocity=69, time=7),
    Message('note_on', channel=9, note=70, velocity=43, time=0),
    Message('note_off', channel=9, note=42, velocity=64, time=6),
    Message('note_off', channel=9, note=70, velocity=64, time=0),
    Message('note_on', channel=9, note=70, velocity=58, time=18),
    Message('note_off', channel=9, note=70, velocity=64, time=6),
    Message('note_off', channel=0, note=61, velocity=64, time=3),
    Message('note_on', channel=9, note=42, velocity=84, time=14),
    Message('note_on', channel=9, note=70, velocity=61, time=1),
    Message('note_on', channel=0, note=61, velocity=74, time=2),
    Message('note_off', channel=9, note=42, velocity=64, time=3),
    Message('note_off', channel=9, note=70, velocity=64, time=1),
    Message('note_off', channel=7, note=61, velocity=64, time=3),
    Message('note_on', channel=9, note=70, velocity=34, time=15),
    Message('note_on', channel=7, note=61, velocity=42, time=2),
    Message('note_off', channel=9, note=70, velocity=64, time=4),
    Message('note_off', channel=0, note=68, velocity=64, time=1),
    Message('note_on', channel=9, note=42, velocity=46, time=16),
    MetaMessage('lyrics', text='through ', time=1),
    Message('note_on', channel=3, note=82, velocity=72, time=0),
    Message('note_on', channel=9, note=70, velocity=47, time=0),
    Message('note_on', channel=0, note=68, velocity=76, time=1),
    Message('note_off', channel=9, note=42, velocity=64, time=4),
    Message('note_off', channel=9, note=70, velocity=64, time=1),
    Message('note_off', channel=7, note=68, velocity=64, time=1),
    Message('note_on', channel=9, note=70, velocity=65, time=17),
    Message('note_on', channel=7, note=68, velocity=44, time=1),
    Message('note_off', channel=9, note=70, velocity=64, time=5),
    Message('note_on', channel=9, note=46, velocity=75, time=18),
    Message('note_on', channel=9, note=70, velocity=67, time=0),
    Message('note_off', channel=9, note=46, velocity=64, time=6),
    Message('note_off', channel=9, note=70, velocity=64, time=0),
    Message('note_off', channel=3, note=82, velocity=64, time=6),
    MetaMessage('lyrics', text='the ', time=11),
    Message('note_on', channel=3, note=80, velocity=81, time=0),
    Message('note_off', channel=0, note=49, velocity=64, time=0),
    Message('note_on', channel=9, note=70, velocity=36, time=1),
    Message('note_off', channel=9, note=70, velocity=64, time=6),
    Message('note_off', channel=7, note=49, velocity=64, time=17),
    Message('note_on', channel=9, note=42, velocity=46, time=1),
    Message('note_on', channel=9, note=70, velocity=43, time=0),
    Message('note_on', channel=0, note=49, velocity=74, time=1),
    Message('note_off', channel=9, note=42, velocity=64, time=5),
    Message('note_off', channel=9, note=70, velocity=64, time=0),
    Message('note_on', channel=9, note=70, velocity=71, time=18),
    Message('note_on', channel=7, note=49, velocity=42, time=1),
    Message('note_off', channel=9, note=70, velocity=64, time=5),
    Message('note_off', channel=3, note=80, velocity=64, time=14),
    Message('note_off', channel=0, note=49, velocity=64, time=1),
    Message('note_on', channel=9, note=42, velocity=75, time=2),
    Message('note_on', channel=9, note=70, velocity=77, time=1),
    MetaMessage('lyrics', text='fields ', time=1),
    MetaMessage('lyrics', text='\r', time=0),
    Message('note_on', channel=3, note=77, velocity=60, time=0),
    Message('note_on', channel=0, note=49, velocity=82, time=0),
    Message('note_off', channel=9, note=42, velocity=64, time=4),
    Message('note_off', channel=9, note=70, velocity=64, time=1),
    Message('note_off', channel=7, note=49, velocity=64, time=15),
    Message('note_on', channel=9, note=70, velocity=32, time=3),
    Message('note_on', channel=7, note=49, velocity=50, time=1),
    Message('note_off', channel=9, note=70, velocity=64, time=5),
    Message('note_off', channel=0, note=61, velocity=64, time=9),
    Message('note_on', channel=9, note=42, velocity=50, time=8),
    Message('note_on', channel=9, note=70, velocity=44, time=1),
    Message('note_on', channel=0, note=61, velocity=74, time=1),
    Message('note_off', channel=9, note=42, velocity=64, time=4),
    Message('note_off', channel=9, note=70, velocity=64, time=1),
    Message('note_off', channel=3, note=77, velocity=64, time=9),
    Message('note_off', channel=7, note=61, velocity=64, time=0),
    Message('note_off', channel=0, note=68, velocity=64, time=8),
    Message('note_on', channel=9, note=70, velocity=58, time=1),
    Message('note_on', channel=7, note=61, velocity=42, time=1),
    Message('note_off', channel=9, note=70, velocity=64, time=5),
    Message('note_on', channel=9, note=46, velocity=60, time=17),
    Message('note_on', channel=0, note=68, velocity=71, time=0),
    Message('note_off', channel=7, note=68, velocity=64, time=0),
    Message('note_on', channel=9, note=70, velocity=80, time=1),
    Message('note_off', channel=9, note=46, velocity=64, time=5),
    Message('note_off', channel=9, note=70, velocity=64, time=1),
    Message('note_on', channel=7, note=68, velocity=39, time=17),
    Message('note_on', channel=9, note=70, velocity=38, time=1),
    Message('note_off', channel=9, note=70, velocity=64, time=6),
    Message('note_off', channel=0, note=61, velocity=64, time=6),
    Message('note_on', channel=9, note=42, velocity=69, time=11),
    Message('note_on', channel=0, note=61, velocity=69, time=1),
    Message('note_on', channel=9, note=70, velocity=51, time=0),
    Message('note_off', channel=9, note=42, velocity=64, time=5),
    Message('note_off', channel=9, note=70, velocity=64, time=1),
    Message('note_off', channel=7, note=61, velocity=64, time=6),
    Message('note_on', channel=7, note=61, velocity=37, time=12),
    Message('note_on', channel=9, note=70, velocity=51, time=0),
    Message('note_off', channel=9, note=70, velocity=64, time=6),
    MetaMessage('lyrics', text='on', time=13),
    Message('note_on', channel=3, note=77, velocity=75, time=0),
    Message('note_on', channel=9, note=42, velocity=69, time=5),
    Message('note_off', channel=0, note=68, velocity=64, time=0),
    Message('note_on', channel=9, note=70, velocity=80, time=0),
    Message('note_on', channel=0, note=72, velocity=71, time=2),
    Message('note_off', channel=9, note=42, velocity=64, time=4),
    Message('note_off', channel=9, note=70, velocity=64, time=0),
    Message('note_off', channel=7, note=68, velocity=64, time=18),
    Message('note_on', channel=9, note=70, velocity=43, time=0),
    Message('note_on', channel=7, note=72, velocity=39, time=2),
    Message('note_off', channel=9, note=70, velocity=64, time=4),
    Message('note_on', channel=9, note=42, velocity=62, time=17),
    Message('note_on', channel=9, note=70, velocity=43, time=1),
    Message('note_off', channel=0, note=72, velocity=64, time=2),
    Message('note_on', channel=0, note=68, velocity=61, time=0),
    Message('note_off', channel=9, note=42, velocity=64, time=3),
    Message('note_off', channel=9, note=70, velocity=64, time=1),
    MetaMessage('lyrics', text='ly ', time=14),
    Message('note_off', channel=3, note=77, velocity=64, time=0),
    Message('note_on', channel=3, note=75, velocity=74, time=0),
    Message('note_on', channel=9, note=70, velocity=67, time=4),
    Message('note_off', channel=7, note=72, velocity=64, time=2),
    Message('note_on', channel=7, note=68, velocity=29, time=0),
    Message('note_off', channel=9, note=70, velocity=64, time=4),
    Message('note_off', channel=0, note=61, velocity=64, time=11),
    Message('note_on', channel=9, note=70, velocity=83, time=7),
    Message('note_on', channel=0, note=61, velocity=60, time=1),
    Message('note_off', channel=9, note=70, velocity=64, time=5),
    Message('note_off', channel=7, note=61, velocity=64, time=11),
    Message('note_on', channel=9, note=70, velocity=22, time=7),
    Message('note_on', channel=7, note=61, velocity=28, time=1),
    Message('note_off', channel=9, note=70, velocity=64, time=5),
    MetaMessage('lyrics', text='to ', time=9),
    Message('note_off', channel=3, note=75, velocity=64, time=0),
    Message('note_on', channel=3, note=73, velocity=66, time=0),
    Message('note_on', channel=9, note=46, velocity=75, time=8),
    Message('note_on', channel=9, note=70, velocity=58, time=1),
    Message('note_off', channel=9, note=46, velocity=64, time=5),
    Message('note_off', channel=9, note=70, velocity=64, time=1),
    Message('note_on', channel=9, note=70, velocity=75, time=18),
    Message('note_off', channel=9, note=70, velocity=64, time=6),
    Message('note_off', channel=3, note=73, velocity=64, time=9),
    Message('note_on', channel=9, note=42, velocity=75, time=9),
    Message('note_on', channel=9, note=70, velocity=51, time=0),
    MetaMessage('lyrics', text='be ', time=4),
    Message('note_on', channel=3, note=75, velocity=60, time=0),
    Message('note_on', channel=0, note=54, velocity=74, time=0),
    Message('note_off', channel=9, note=42, velocity=64, time=2),
    Message('note_off', channel=9, note=70, velocity=64, time=0),
    Message('note_on', channel=9, note=70, velocity=21, time=18),
    Message('note_on', channel=7, note=54, velocity=42, time=4),
    Message('note_off', channel=9, note=70, velocity=64, time=2),
    Message('note_off', channel=0, note=61, velocity=64, time=14),
    Message('note_on', channel=9, note=42, velocity=62, time=3),
    Message('note_on', channel=9, note=70, velocity=42, time=1),
    Message('note_on', channel=0, note=61, velocity=67, time=2),
    Message('note_off', channel=9, note=42, velocity=64, time=3),
    Message('note_off', channel=9, note=70, velocity=64, time=1),
    Message('note_off', channel=0, note=68, velocity=64, time=8),
    Message('note_off', channel=7, note=61, velocity=64, time=6),
    Message('note_on', channel=9, note=42, velocity=54, time=3),
    Message('note_on', channel=9, note=70, velocity=43, time=1),
    Message('note_on', channel=7, note=61, velocity=35, time=2),
    Message('note_off', channel=9, note=42, velocity=64, time=3),
    Message('note_off', channel=9, note=70, velocity=64, time=1),
    Message('note_off', channel=7, note=68, velocity=64, time=8),
    Message('note_on', channel=9, note=46, velocity=56, time=9),
    Message('note_on', channel=9, note=70, velocity=71, time=1),
    Message('note_on', channel=0, note=68, velocity=71, time=3),
    Message('note_off', channel=9, note=46, velocity=64, time=2),
    Message('note_off', channel=9, note=70, velocity=64, time=1),
    Message('note_on', channel=9, note=70, velocity=36, time=18),
    Message('note_on', channel=7, note=68, velocity=39, time=3),
    Message('note_off', channel=9, note=70, velocity=64, time=3),
    Message('note_off', channel=3, note=75, velocity=64, time=5),
    MetaMessage('lyrics', text='with ', time=5),
    Message('note_on', channel=3, note=73, velocity=51, time=0),
    Message('note_on', channel=9, note=42, velocity=81, time=7),
    Message('note_on', channel=9, note=70, velocity=43, time=1),
    Message('note_off', channel=9, note=42, velocity=64, time=5),
    Message('note_off', channel=9, note=70, velocity=64, time=1),
    Message('note_on', channel=9, note=70, velocity=58, time=18),
    Message('note_off', channel=9, note=70, velocity=64, time=6),
    Message('note_off', channel=3, note=73, velocity=64, time=1),
    Message('note_off', channel=0, note=61, velocity=64, time=7),
    Message('note_on', channel=9, note=42, velocity=84, time=9),
    Message('note_on', channel=9, note=70, velocity=61, time=1),
    Message('note_on', channel=0, note=61, velocity=70, time=2),
    Message('note_off', channel=9, note=42, velocity=64, time=3),
    MetaMessage('lyrics', text='you, ', time=1),
    Message('note_on', channel=3, note=73, velocity=55, time=0),
    Message('note_off', channel=9, note=70, velocity=64, time=0),
    Message('note_off', channel=7, note=61, velocity=64, time=8),
    Message('note_on', channel=9, note=70, velocity=34, time=10),
    Message('note_on', channel=7, note=61, velocity=38, time=2),
    Message('note_off', channel=9, note=70, velocity=64, time=4),
    Message('note_off', channel=0, note=68, velocity=64, time=7),
    Message('note_on', channel=9, note=42, velocity=49, time=10),
    Message('note_on', channel=9, note=70, velocity=47, time=1),
    Message('note_on', channel=0, note=68, velocity=74, time=2),
    Message('note_off', channel=9, note=42, velocity=64, time=3),
    Message('note_off', channel=9, note=70, velocity=64, time=1),
    Message('note_off', channel=7, note=68, velocity=64, time=7),
    Message('note_on', channel=9, note=70, velocity=65, time=11),
    Message('note_on', channel=7, note=68, velocity=42, time=2),
    Message('note_off', channel=9, note=70, velocity=64, time=4),
    Message('note_on', channel=9, note=46, velocity=62, time=17),
    Message('note_on', channel=9, note=70, velocity=67, time=1),
    Message('note_off', channel=9, note=46, velocity=64, time=5),
    Message('note_off', channel=9, note=70, velocity=64, time=1),
    Message('note_off', channel=0, note=54, velocity=64, time=14),
    Message('note_on', channel=9, note=70, velocity=36, time=4),
    Message('note_off', channel=9, note=70, velocity=64, time=6),
    Message('note_off', channel=0, note=49, velocity=64, time=4),
    Message('note_off', channel=7, note=54, velocity=64, time=10),
    Message('note_on', channel=9, note=42, velocity=54, time=3),
    Message('note_on', channel=0, note=54, velocity=64, time=0),
    Message('note_on', channel=9, note=70, velocity=43, time=1),
    Message('note_off', channel=9, note=42, velocity=64, time=5),
    Message('note_off', channel=9, note=70, velocity=64, time=1),
    Message('note_off', channel=7, note=49, velocity=64, time=4),
    Message('note_on', channel=7, note=54, velocity=32, time=13),
    Message('note_on', channel=9, note=70, velocity=71, time=1),
    Message('note_off', channel=9, note=70, velocity=64, time=6),
    Message('note_off', channel=3, note=73, velocity=64, time=5),
    Message('note_off', channel=0, note=54, velocity=64, time=8),
    Message('note_on', channel=9, note=42, velocity=84, time=5),
    Message('note_on', channel=0, note=54, velocity=80, time=0),
    Message('note_on', channel=9, note=70, velocity=77, time=0),
    Message('note_off', channel=9, note=42, velocity=64, time=6),
    Message('note_off', channel=9, note=70, velocity=64, time=0),
    Message('note_off', channel=7, note=54, velocity=64, time=13),
    Message('note_on', channel=7, note=54, velocity=48, time=5),
    Message('note_on', channel=9, note=70, velocity=32, time=0),
    Message('note_off', channel=9, note=70, velocity=64, time=6),
    Message('note_off', channel=0, note=61, velocity=64, time=13),
    Message('note_off', channel=0, note=68, velocity=64, time=1),
    Message('note_on', channel=0, note=61, velocity=57, time=2),
    Message('note_on', channel=9, note=42, velocity=58, time=1),
    Message('note_on', channel=9, note=70, velocity=44, time=1),
    Message('note_off', channel=9, note=42, velocity=64, time=5),
    Message('note_off', channel=9, note=70, velocity=64, time=1),
    Message('note_off', channel=7, note=61, velocity=64, time=13),
    Message('note_off', channel=7, note=68, velocity=64, time=1),
    Message('note_on', channel=7, note=61, velocity=25, time=2),
    Message('note_on', channel=9, note=70, velocity=58, time=2),
    Message('note_off', channel=9, note=70, velocity=64, time=6),
    Message('note_on', channel=9, note=46, velocity=62, time=18),
    Message('note_on', channel=0, note=68, velocity=74, time=0),
    Message('note_on', channel=9, note=70, velocity=80, time=0),
    Message('note_off', channel=9, note=46, velocity=64, time=6),
    Message('note_off', channel=9, note=70, velocity=64, time=0),
    Message('note_on', channel=7, note=68, velocity=42, time=18),
    Message('note_on', channel=9, note=70, velocity=38, time=0),
    Message('note_off', channel=9, note=70, velocity=64, time=6),
    Message('note_off', channel=0, note=61, velocity=64, time=12),
    Message('note_on', channel=9, note=42, velocity=62, time=5),
    Message('note_on', channel=9, note=70, velocity=51, time=1),
    Message('note_on', channel=0, note=61, velocity=71, time=1),
    Message('note_off', channel=9, note=42, velocity=64, time=4),
    Message('note_off', channel=9, note=70, velocity=64, time=1),
    Message('note_off', channel=7, note=61, velocity=64, time=12),
    Message('note_on', channel=9, note=70, velocity=51, time=6),
    Message('note_on', channel=7, note=61, velocity=39, time=1),
    Message('note_off', channel=9, note=70, velocity=64, time=5),
    Message('note_off', channel=0, note=68, velocity=64, time=12),
    MetaMessage('lyrics', text='on', time=2),
    Message('note_on', channel=3, note=77, velocity=73, time=0),
    Message('note_on', channel=9, note=42, velocity=92, time=3),
    Message('note_on', channel=9, note=70, velocity=80, time=1),
    Message('note_on', channel=0, note=72, velocity=75, time=1),
    Message('note_off', channel=9, note=42, velocity=64, time=4),
    Message('note_off', channel=9, note=70, velocity=64, time=1),
    Message('note_off', channel=7, note=68, velocity=64, time=12),
    Message('note_on', channel=9, note=42, velocity=50, time=6),
    Message('note_on', channel=9, note=70, velocity=43, time=0),
    Message('note_on', channel=7, note=72, velocity=43, time=1),
    Message('note_off', channel=9, note=42, velocity=64, time=5),
    Message('note_off', channel=9, note=70, velocity=64, time=0),
    Message('note_off', channel=0, note=72, velocity=64, time=13),
    Message('note_on', channel=9, note=42, velocity=46, time=5),
    Message('note_on', channel=9, note=70, velocity=43, time=0),
    Message('note_on', channel=0, note=68, velocity=74, time=2),
    Message('note_off', channel=9, note=42, velocity=64, time=4),
    Message('note_off', channel=9, note=70, velocity=64, time=0),
    MetaMessage('lyrics', text='ly ', time=13),
    Message('note_on', channel=3, note=75, velocity=82, time=0),
    Message('note_off', channel=7, note=72, velocity=64, time=0),
    Message('note_off', channel=3, note=77, velocity=64, time=4),
    Message('note_on', channel=9, note=70, velocity=67, time=1),
    Message('note_on', channel=7, note=68, velocity=42, time=2),
    Message('note_off', channel=9, note=70, velocity=64, time=4),
    Message('note_off', channel=0, note=61, velocity=64, time=7),
    Message('note_on', channel=9, note=46, velocity=52, time=11),
    Message('note_on', channel=9, note=70, velocity=83, time=0),
    Message('note_on', channel=0, note=61, velocity=67, time=1),
    Message('note_off', channel=9, note=46, velocity=64, time=5),
    Message('note_off', channel=9, note=70, velocity=64, time=0),
    Message('note_off', channel=7, note=61, velocity=64, time=7),
    Message('note_on', channel=9, note=70, velocity=22, time=11),
    Message('note_on', channel=7, note=61, velocity=35, time=1),
    Message('note_off', channel=9, note=70, velocity=64, time=5),
    Message('note_off', channel=3, note=75, velocity=64, time=2),
    MetaMessage('lyrics', text='to ', time=1),
    Message('note_on', channel=3, note=73, velocity=77, time=0),
    Message('note_off', channel=0, note=61, velocity=64, time=4),
    Message('note_on', channel=9, note=46, velocity=60, time=11),
    Message('note_on', channel=0, note=61, velocity=74, time=0),
    Message('note_on', channel=9, note=70, velocity=58, time=0),
    Message('note_off', channel=9, note=46, velocity=64, time=6),
    Message('note_off', channel=9, note=70, velocity=64, time=0),
    Message('note_off', channel=7, note=61, velocity=64, time=7),
    Message('note_on', channel=7, note=61, velocity=42, time=11),
    Message('note_on', channel=9, note=70, velocity=75, time=0),
    Message('note_off', channel=9, note=70, velocity=64, time=6),
    Message('note_off', channel=3, note=73, velocity=64, time=9),
    MetaMessage('lyrics', text='be ', time=8),
    Message('note_on', channel=3, note=75, velocity=67, time=0),
    Message('note_on', channel=9, note=42, velocity=78, time=1),
    Message('note_on', channel=9, note=70, velocity=51, time=0),
    Message('note_on', channel=0, note=49, velocity=86, time=1),
    Message('note_off', channel=9, note=42, velocity=64, time=5),
    Message('note_off', channel=9, note=70, velocity=64, time=0),
    Message('note_off', channel=0, note=68, velocity=64, time=17),
    Message('note_on', channel=9, note=70, velocity=21, time=1),
    Message('note_on', channel=7, note=49, velocity=54, time=1),
    Message('note_off', channel=9, note=70, velocity=64, time=5),
    Message('note_off', channel=0, note=61, velocity=64, time=8),
    Message('note_on', channel=9, note=42, velocity=52, time=9),
    Message('note_off', channel=7, note=68, velocity=64, time=0),
    Message('note_on', channel=9, note=70, velocity=42, time=1),
    Message('note_on', channel=0, note=61, velocity=73, time=2),
    Message('note_off', channel=9, note=42, velocity=64, time=3),
    Message('note_off', channel=9, note=70, velocity=64, time=1),
    Message('note_off', channel=7, note=61, velocity=64, time=8),
    Message('note_on', channel=9, note=70, velocity=43, time=10),
    Message('note_on', channel=7, note=61, velocity=41, time=2),
    Message('note_off', channel=9, note=70, velocity=64, time=4),
    Message('note_on', channel=9, note=46, velocity=66, time=17),
    Message('note_on', channel=9, note=70, velocity=71, time=1),
    Message('note_on', channel=0, note=68, velocity=70, time=1),
    Message('note_off', channel=9, note=46, velocity=64, time=4),
    Message('note_off', channel=9, note=70, velocity=64, time=1),
    Message('note_on', channel=9, note=70, velocity=36, time=18),
    Message('note_on', channel=7, note=68, velocity=38, time=1),
    Message('note_off', channel=3, note=75, velocity=64, time=2),
    Message('note_off', channel=9, note=70, velocity=64, time=3),
    MetaMessage('lyrics', text='with ', time=12),
    Message('note_on', channel=3, note=73, velocity=62, time=0),
    Message('note_on', channel=9, note=42, velocity=69, time=5),
    Message('note_on', channel=9, note=70, velocity=43, time=1),
    Message('note_off', channel=9, note=42, velocity=64, time=5),
    Message('note_off', channel=9, note=70, velocity=64, time=1),
    Message('note_on', channel=9, note=70, velocity=58, time=18),
    Message('note_off', channel=9, note=70, velocity=64, time=6),
    Message('note_off', channel=0, note=61, velocity=64, time=4),
    Message('note_off', channel=3, note=73, velocity=64, time=3),
    Message('note_on', channel=9, note=42, velocity=75, time=11),
    Message('note_on', channel=9, note=70, velocity=61, time=0),
    Message('note_on', channel=0, note=61, velocity=67, time=2),
    Message('note_off', channel=9, note=42, velocity=64, time=4),
    Message('note_off', channel=9, note=70, velocity=64, time=0),
    MetaMessage('lyrics', text='you. ', time=4),
    MetaMessage('lyrics', text='\r', time=0),
    Message('note_on', channel=3, note=73, velocity=49, time=0),
    Message('note_off', channel=7, note=61, velocity=64, time=0),
    Message('note_on', channel=9, note=70, velocity=34, time=14),
    Message('note_on', channel=7, note=61, velocity=35, time=2),
    Message('note_off', channel=9, note=70, velocity=64, time=4),
    Message('note_off', channel=0, note=68, velocity=64, time=9),
    Message('note_on', channel=9, note=42, velocity=54, time=8),
    Message('note_on', channel=9, note=70, velocity=47, time=1),
    Message('note_on', channel=0, note=68, velocity=72, time=1),
    Message('note_off', channel=9, note=42, velocity=64, time=4),
    Message('note_off', channel=9, note=70, velocity=64, time=1),
    Message('note_off', channel=7, note=68, velocity=64, time=9),
    Message('note_on', channel=9, note=70, velocity=65, time=9),
    Message('note_on', channel=7, note=68, velocity=40, time=1),
    Message('note_off', channel=9, note=70, velocity=64, time=5),
    Message('note_on', channel=9, note=46, velocity=78, time=17),
    Message('note_on', channel=9, note=70, velocity=67, time=1),
    Message('note_off', channel=9, note=46, velocity=64, time=5),
    Message('note_off', channel=9, note=70, velocity=64, time=1),
    Message('note_on', channel=9, note=70, velocity=36, time=18),
    Message('note_off', channel=0, note=49, velocity=64, time=3),
    Message('note_off', channel=9, note=70, velocity=64, time=3),
    Message('note_on', channel=9, note=42, velocity=58, time=18),
    Message('note_on', channel=9, note=70, velocity=43, time=0),
    Message('note_off', channel=3, note=73, velocity=64, time=1),
    Message('note_on', channel=0, note=49, velocity=64, time=0),
    Message('note_off', channel=7, note=49, velocity=64, time=2),
    MetaMessage('lyrics', text='\n', time=3),
    Message('note_off', channel=9, note=42, velocity=64, time=0),
    Message('note_off', channel=9, note=70, velocity=64, time=0),
    Message('note_on', channel=9, note=70, velocity=71, time=18),
    Message('note_on', channel=7, note=49, velocity=32, time=1),
    Message('note_off', channel=9, note=70, velocity=64, time=5),
    Message('note_off', channel=0, note=49, velocity=64, time=13),
    Message('note_on', channel=9, note=42, velocity=81, time=4),
    Message('note_on', channel=0, note=49, velocity=82, time=0),
    Message('note_on', channel=9, note=70, velocity=77, time=1),
    Message('note_off', channel=9, note=42, velocity=64, time=5),
    Message('note_off', channel=9, note=70, velocity=64, time=1),
    Message('note_off', channel=7, note=49, velocity=64, time=13),
    Message('note_on', channel=9, note=42, velocity=46, time=4),
    Message('note_on', channel=7, note=49, velocity=50, time=0),
    Message('note_on', channel=9, note=70, velocity=32, time=1),
    Message('note_off', channel=9, note=42, velocity=64, time=5),
    Message('note_off', channel=9, note=70, velocity=64, time=1),
    Message('note_off', channel=0, note=61, velocity=64, time=7),
    Message('note_off', channel=0, note=68, velocity=64, time=1),
    Message('note_on', channel=9, note=42, velocity=19, time=10),
    Message('note_on', channel=9, note=70, velocity=44, time=0),
    Message('note_on', channel=0, note=61, velocity=74, time=1),
    Message('note_off', channel=9, note=42, velocity=64, time=5),
    Message('note_off', channel=9, note=70, velocity=64, time=0),
    Message('note_off', channel=7, note=61, velocity=64, time=7),
    Message('note_off', channel=7, note=68, velocity=64, time=1),
    Message('note_on', channel=9, note=70, velocity=58, time=10),
    Message('note_on', channel=7, note=61, velocity=42, time=1),
    Message('note_off', channel=9, note=70, velocity=64, time=5),
    Message('note_off', channel=0, note=54, velocity=64, time=10),
    Message('note_on', channel=9, note=46, velocity=78, time=7),
    Message('note_on', channel=9, note=70, velocity=80, time=1),
    Message('note_on', channel=0, note=68, velocity=73, time=1),
    Message('note_off', channel=9, note=46, velocity=64, time=4),
    Message('note_off', channel=9, note=70, velocity=64, time=1),
    Message('note_off', channel=7, note=54, velocity=64, time=10),
    Message('note_on', channel=9, note=70, velocity=38, time=8),
    Message('note_on', channel=7, note=68, velocity=41, time=1),
    Message('note_off', channel=9, note=70, velocity=64, time=5),
    Message('note_off', channel=0, note=61, velocity=64, time=6),
    Message('note_on', channel=9, note=42, velocity=81, time=12),
    Message('note_on', channel=9, note=70, velocity=51, time=0),
    Message('note_on', channel=0, note=61, velocity=71, time=2),
    Message('note_off', channel=9, note=42, velocity=64, time=4),
    Message('note_off', channel=9, note=70, velocity=64, time=0),
    Message('note_off', channel=7, note=61, velocity=64, time=6),
    Message('note_on', channel=9, note=70, velocity=51, time=12),
    Message('note_on', channel=7, note=61, velocity=39, time=2),
    Message('note_off', channel=9, note=70, velocity=64, time=4),
    Message('note_off', channel=0, note=68, velocity=64, time=6),
    Message('note_on', channel=9, note=42, velocity=92, time=11),
    Message('note_on', channel=9, note=70, velocity=80, time=1),
    Message('note_on', channel=0, note=72, velocity=71, time=2),
    Message('note_off', channel=9, note=42, velocity=64, time=3),
    Message('note_off', channel=9, note=70, velocity=64, time=1),
    Message('note_off', channel=7, note=68, velocity=64, time=6),
    Message('note_on', channel=9, note=42, velocity=52, time=11),
    Message('note_on', channel=9, note=70, velocity=43, time=1),
    Message('note_on', channel=7, note=72, velocity=39, time=2),
    Message('note_off', channel=9, note=42, velocity=64, time=3),
    Message('note_off', channel=9, note=70, velocity=64, time=1),
    Message('note_off', channel=0, note=72, velocity=64, time=13),
    MetaMessage('lyrics', text='I ', time=2),
    Message('note_on', channel=3, note=77, velocity=85, time=0),
    Message('note_on', channel=9, note=42, velocity=50, time=2),
    Message('note_on', channel=9, note=70, velocity=43, time=1),
    Message('note_on', channel=0, note=68, velocity=74, time=1),
    Message('note_off', channel=9, note=42, velocity=64, time=4),
    Message('note_off', channel=9, note=70, velocity=64, time=1),
    Message('note_off', channel=7, note=72, velocity=64, time=13),
    Message('note_on', channel=9, note=70, velocity=67, time=5),
    Message('note_on', channel=7, note=68, velocity=42, time=1),
    Message('note_off', channel=9, note=70, velocity=64, time=5),
    Message('note_off', channel=0, note=61, velocity=64, time=8),
    Message('note_on', channel=9, note=46, velocity=43, time=10),
    Message('note_on', channel=0, note=61, velocity=71, time=0),
    Message('note_on', channel=9, note=70, velocity=83, time=0),
    Message('note_off', channel=9, note=46, velocity=64, time=6),
    Message('note_off', channel=9, note=70, velocity=64, time=0),
    Message('note_off', channel=3, note=77, velocity=64, time=5),
    Message('note_off', channel=7, note=61, velocity=64, time=3),
    MetaMessage('lyrics', text='have ', time=7),
    Message('note_on', channel=3, note=80, velocity=91, time=0),
    Message('note_on', channel=7, note=61, velocity=39, time=3),
    Message('note_on', channel=9, note=70, velocity=22, time=0),
    Message('note_off', channel=9, note=70, velocity=64, time=6),
    Message('note_off', channel=0, note=61, velocity=64, time=7),
    Message('note_on', channel=9, note=46, velocity=78, time=10),
    Message('note_on', channel=0, note=61, velocity=74, time=1),
    Message('note_on', channel=9, note=70, velocity=58, time=0),
    Message('note_off', channel=9, note=46, velocity=64, time=5),
    Message('note_off', channel=9, note=70, velocity=64, time=1),
    Message('note_off', channel=7, note=61, velocity=64, time=7),
    Message('note_on', channel=7, note=61, velocity=42, time=11),
    Message('note_on', channel=9, note=70, velocity=75, time=0),
    Message('note_off', channel=3, note=80, velocity=64, time=6),
    Message('note_off', channel=9, note=70, velocity=64, time=0),
    Message('note_off', channel=0, note=49, velocity=64, time=13),
    Message('note_off', channel=0, note=61, velocity=64, time=1),
    MetaMessage('lyrics', text='run, ', time=1),
    Message('note_on', channel=3, note=80, velocity=87, time=0),
    Message('note_off', channel=0, note=68, velocity=64, time=0),
    Message('pitchwheel', channel=0, pitch=127, time=1),
    Message('note_on', channel=9, note=42, velocity=84, time=2),
    Message('note_on', channel=0, note=49, velocity=82, time=0),
    Message('note_on', channel=9, note=70, velocity=51, time=0),
    Message('note_off', channel=9, note=42, velocity=64, time=6),
    Message('note_off', channel=9, note=70, velocity=64, time=0),
    Message('note_off', channel=7, note=49, velocity=64, time=13),
    Message('note_off', channel=7, note=61, velocity=64, time=1),
    Message('note_off', channel=7, note=68, velocity=64, time=1),
    Message('pitchwheel', channel=7, pitch=127, time=1),
    Message('note_on', channel=7, note=49, velocity=50, time=2),
    Message('note_on', channel=9, note=70, velocity=21, time=0),
    Message('note_off', channel=9, note=70, velocity=64, time=6),
    Message('note_on', channel=9, note=42, velocity=72, time=17),
    Message('note_on', channel=9, note=70, velocity=42, time=1),
    Message('note_on', channel=0, note=61, velocity=64, time=3),
    Message('note_off', channel=9, note=42, velocity=64, time=2),
    Message('note_off', channel=9, note=70, velocity=64, time=1),
    Message('note_off', channel=3, note=80, velocity=64, time=3),
    Message('note_on', channel=3, note=77, velocity=79, time=13),
    Message('note_on', channel=9, note=42, velocity=27, time=1),
    Message('note_on', channel=9, note=70, velocity=43, time=1),
    Message('note_on', channel=7, note=61, velocity=32, time=3),
    Message('note_off', channel=9, note=42, velocity=64, time=2),
    Message('note_off', channel=9, note=70, velocity=64, time=1),
    Message('note_on', channel=9, note=46, velocity=64, time=17),
    Message('note_on', channel=9, note=70, velocity=71, time=1),
    Message('note_on', channel=0, note=68, velocity=67, time=3),
    Message('note_off', channel=9, note=46, velocity=64, time=2),
    Message('note_off', channel=9, note=70, velocity=64, time=1),
    Message('note_on', channel=9, note=70, velocity=36, time=18),
    Message('note_on', channel=7, note=68, velocity=35, time=3),
    Message('note_off', channel=9, note=70, velocity=64, time=3),
    Message('note_on', channel=9, note=42, velocity=62, time=17),
    Message('note_on', channel=9, note=70, velocity=43, time=1),
    Message('note_off', channel=9, note=42, velocity=64, time=5),
    Message('note_off', channel=9, note=70, velocity=64, time=1),
    Message('note_off', channel=3, note=77, velocity=64, time=4),
    Message('note_on', channel=9, note=70, velocity=58, time=14),
    Message('note_off', channel=9, note=70, velocity=64, time=6),
    Message('note_off', channel=0, note=61, velocity=64, time=8),
    Message('note_on', channel=9, note=42, velocity=88, time=9),
    Message('note_on', channel=9, note=70, velocity=61, time=1),
    Message('note_on', channel=0, note=61, velocity=67, time=3),
    Message('note_off', channel=9, note=42, velocity=64, time=2),
    Message('note_off', channel=9, note=70, velocity=64, time=1),
    Message('note_off', channel=7, note=61, velocity=64, time=8),
    Message('note_on', channel=9, note=70, velocity=34, time=10),
    Message('note_on', channel=7, note=61, velocity=35, time=3),
    Message('note_off', channel=9, note=70, velocity=64, time=3),
    Message('note_off', channel=0, note=68, velocity=64, time=7),
    Message('note_on', channel=9, note=42, velocity=60, time=10),
    MetaMessage('lyrics', text='I ', time=1),
    Message('note_on', channel=3, note=82, velocity=87, time=0),
    Message('note_on', channel=9, note=70, velocity=47, time=0),
    Message('note_on', channel=0, note=68, velocity=70, time=2),
    Message('note_off', channel=9, note=42, velocity=64, time=3),
    Message('note_off', channel=9, note=70, velocity=64, time=1),
    Message('note_off', channel=7, note=68, velocity=64, time=7),
    Message('note_on', channel=9, note=70, velocity=65, time=11),
    Message('note_on', channel=7, note=68, velocity=38, time=2),
    Message('note_off', channel=9, note=70, velocity=64, time=4),
    Message('note_on', channel=9, note=46, velocity=56, time=17),
    Message('note_on', channel=9, note=70, velocity=67, time=1),
    Message('note_off', channel=9, note=46, velocity=64, time=5),
    Message('note_off', channel=9, note=70, velocity=64, time=1),
    Message('note_off', channel=3, note=82, velocity=64, time=6),
    Message('note_on', channel=9, note=70, velocity=36, time=12),
    MetaMessage('lyrics', text='have ', time=3),
    Message('note_on', channel=3, note=80, velocity=79, time=0),
    Message('note_off', channel=9, note=70, velocity=64, time=3),
    Message('note_off', channel=0, note=49, velocity=64, time=9),
    Message('note_on', channel=9, note=42, velocity=62, time=8),
    Message('note_on', channel=9, note=70, velocity=43, time=1),
    Message('note_on', channel=0, note=49, velocity=56, time=2),
    Message('note_off', channel=9, note=42, velocity=64, time=3),
    Message('note_off', channel=9, note=70, velocity=64, time=1),
    Message('note_off', channel=7, note=49, velocity=64, time=9),
    Message('note_on', channel=9, note=70, velocity=71, time=9),
    Message('note_on', channel=7, note=49, velocity=24, time=2),
    Message('note_off', channel=9, note=70, velocity=64, time=4),
    Message('note_off', channel=3, note=80, velocity=64, time=8),
    Message('note_off', channel=0, note=49, velocity=64, time=5),
    Message('note_on', channel=9, note=42, velocity=88, time=4),
    Message('note_on', channel=0, note=49, velocity=75, time=0),
    Message('note_on', channel=9, note=70, velocity=77, time=1),
    MetaMessage('lyrics', text='crawled. ', time=5),
    MetaMessage('lyrics', text='\r', time=0),
    Message('note_on', channel=3, note=77, velocity=70, time=0),
    Message('note_off', channel=9, note=42, velocity=64, time=0),
    Message('note_off', channel=9, note=70, velocity=64, time=1),
    Message('note_off', channel=7, note=49, velocity=64, time=13),
    Message('note_on', channel=7, note=49, velocity=43, time=4),
    Message('note_on', channel=9, note=70, velocity=32, time=1),
    Message('note_off', channel=9, note=70, velocity=64, time=6),
    Message('note_off', channel=0, note=61, velocity=64, time=3),
    Message('note_on', channel=9, note=42, velocity=62, time=14),
    Message('note_on', channel=9, note=70, velocity=44, time=1),
    Message('note_on', channel=0, note=61, velocity=75, time=1),
    Message('note_off', channel=9, note=42, velocity=64, time=4),
    Message('note_off', channel=9, note=70, velocity=64, time=1),
    Message('note_off', channel=0, note=68, velocity=64, time=3),
    Message('note_off', channel=7, note=61, velocity=64, time=0),
    Message('note_on', channel=9, note=70, velocity=58, time=15),
    Message('note_on', channel=7, note=61, velocity=43, time=1),
    Message('note_off', channel=9, note=70, velocity=64, time=5),
    Message('note_off', channel=7, note=68, velocity=64, time=3),
    Message('note_on', channel=9, note=46, velocity=72, time=14),
    Message('note_on', channel=0, note=68, velocity=74, time=0),
    Message('note_on', channel=9, note=70, velocity=80, time=1),
    Message('note_off', channel=3, note=77, velocity=64, time=2),
    Message('note_off', channel=9, note=46, velocity=64, time=3),
    Message('note_off', channel=9, note=70, velocity=64, time=1),
    Message('note_on', channel=7, note=68, velocity=42, time=17),
    Message('note_on', channel=9, note=70, velocity=38, time=1),
    Message('note_off', channel=9, note=70, velocity=64, time=6),
    Message('note_off', channel=0, note=61, velocity=64, time=7),
    Message('note_on', channel=9, note=42, velocity=69, time=10),
    Message('note_on', channel=0, note=61, velocity=72, time=1),
    Message('note_on', channel=9, note=70, velocity=51, time=0),
    Message('note_off', channel=9, note=42, velocity=64, time=5),
    Message('note_off', channel=9, note=70, velocity=64, time=1),
    Message('note_off', channel=7, note=61, velocity=64, time=7),
    Message('note_on', channel=7, note=61, velocity=40, time=11),
    Message('note_on', channel=9, note=70, velocity=51, time=0),
    Message('note_off', channel=9, note=70, velocity=64, time=6),
    Message('note_off', channel=0, note=68, velocity=64, time=12),
    Message('note_on', channel=9, note=42, velocity=88, time=5),
    Message('note_on', channel=9, note=70, velocity=80, time=1),
    Message('note_on', channel=0, note=72, velocity=77, time=2),
    Message('note_off', channel=9, note=42, velocity=64, time=3),
    Message('note_off', channel=9, note=70, velocity=64, time=1),
    Message('note_off', channel=7, note=68, velocity=64, time=12),
    Message('note_on', channel=9, note=42, velocity=58, time=5),
    Message('note_on', channel=9, note=70, velocity=43, time=1),
    Message('note_on', channel=7, note=72, velocity=45, time=2),
    Message('note_off', channel=9, note=42, velocity=64, time=3),
    Message('note_off', channel=9, note=70, velocity=64, time=1),
    Message('note_off', channel=0, note=72, velocity=64, time=11),
    Message('note_on', channel=9, note=42, velocity=40, time=6),
    Message('note_on', channel=9, note=70, velocity=43, time=1),
    Message('note_on', channel=0, note=68, velocity=72, time=1),
    MetaMessage('lyrics', text='I ', time=3),
    Message('note_on', channel=3, note=77, velocity=85, time=0),
    Message('note_off', channel=9, note=42, velocity=64, time=1),
    Message('note_off', channel=9, note=70, velocity=64, time=1),
    Message('note_off', channel=7, note=72, velocity=64, time=11),
    Message('note_on', channel=9, note=70, velocity=67, time=7),
    Message('note_on', channel=7, note=68, velocity=40, time=1),
    Message('note_off', channel=9, note=70, velocity=64, time=5),
    Message('note_off', channel=0, note=61, velocity=64, time=11),
    Message('note_on', channel=9, note=46, velocity=32, time=6),
    Message('note_on', channel=9, note=70, velocity=83, time=1),
    Message('note_on', channel=0, note=61, velocity=69, time=1),
    Message('note_off', channel=9, note=46, velocity=64, time=4),
    Message('note_off', channel=9, note=70, velocity=64, time=1),
    Message('note_off', channel=3, note=77, velocity=64, time=11),
    Message('note_off', channel=7, note=61, velocity=64, time=0),
    Message('note_on', channel=9, note=70, velocity=22, time=7),
    MetaMessage('lyrics', text='have ', time=1),
    Message('note_on', channel=3, note=80, velocity=82, time=0),
    Message('note_on', channel=7, note=61, velocity=37, time=0),
    Message('note_off', channel=9, note=70, velocity=64, time=5),
    Message('note_off', channel=0, note=61, velocity=64, time=12),
    Message('note_on', channel=9, note=46, velocity=72, time=5),
    Message('note_on', channel=9, note=70, velocity=58, time=1),
    Message('note_on', channel=0, note=61, velocity=71, time=2),
    Message('note_off', channel=9, note=46, velocity=64, time=3),
    Message('note_off', channel=9, note=70, velocity=64, time=1),
    Message('note_off', channel=7, note=61, velocity=64, time=12),
    Message('note_on', channel=9, note=70, velocity=75, time=6),
    Message('note_on', channel=7, note=61, velocity=39, time=2),
    Message('note_off', channel=9, note=70, velocity=64, time=4),
    Message('note_off', channel=3, note=80, velocity=64, time=1),
    MetaMessage('lyrics', text='scaled ', time=15),
    Message('note_on', channel=3, note=80, velocity=77, time=0),
    Message('note_on', channel=9, note=42, velocity=78, time=1),
    Message('note_on', channel=9, note=70, velocity=51, time=1),
    Message('note_off', channel=0, note=49, velocity=64, time=1),
    Message('note_on', channel=0, note=49, velocity=79, time=1),
    Message('note_off', channel=9, note=42, velocity=64, time=3),
    Message('note_off', channel=9, note=70, velocity=64, time=1),
    Message('note_on', channel=9, note=70, velocity=21, time=18),
    Message('note_off', channel=7, note=49, velocity=64, time=1),
    Message('note_on', channel=7, note=49, velocity=47, time=1),
    Message('note_off', channel=9, note=70, velocity=64, time=4),
    Message('note_off', channel=0, note=61, velocity=64, time=6),
    Message('note_on', channel=9, note=42, velocity=62, time=11),
    Message('note_on', channel=9, note=70, velocity=42, time=1),
    Message('note_on', channel=0, note=61, velocity=71, time=2),
    Message('note_off', channel=9, note=42, velocity=64, time=3),
    Message('note_off', channel=9, note=70, velocity=64, time=1),
    Message('note_off', channel=7, note=61, velocity=64, time=6),
    Message('note_off', channel=0, note=68, velocity=64, time=5),
    Message('note_off', channel=3, note=80, velocity=64, time=4),
    Message('note_on', channel=9, note=42, velocity=64, time=2),
    Message('note_on', channel=9, note=70, velocity=43, time=1),
    Message('note_on', channel=3, note=77, velocity=78, time=2),
    Message('note_on', channel=7, note=61, velocity=39, time=0),
    Message('note_off', channel=9, note=42, velocity=64, time=3),
    Message('note_off', channel=9, note=70, velocity=64, time=1),
    Message('note_off', channel=7, note=68, velocity=64, time=11),
    Message('note_on', channel=9, note=46, velocity=72, time=7),
    Message('note_on', channel=0, note=68, velocity=77, time=0),
    Message('note_on', channel=9, note=70, velocity=71, time=0),
    Message('note_off', channel=9, note=46, velocity=64, time=6),
    Message('note_off', channel=9, note=70, velocity=64, time=0),
    Message('note_on', channel=7, note=68, velocity=45, time=18),
    Message('note_on', channel=9, note=70, velocity=36, time=0),
    Message('note_off', channel=9, note=70, velocity=64, time=6),
    Message('note_off', channel=3, note=77, velocity=64, time=9),
    Message('note_on', channel=9, note=42, velocity=69, time=9),
    Message('note_on', channel=9, note=70, velocity=43, time=0),
    Message('note_off', channel=9, note=42, velocity=64, time=6),
    Message('note_off', channel=9, note=70, velocity=64, time=0),
    Message('note_on', channel=9, note=70, velocity=58, time=18),
    Message('note_off', channel=9, note=70, velocity=64, time=6),
    Message('note_off', channel=0, note=61, velocity=64, time=3),
    Message('note_on', channel=9, note=42, velocity=84, time=15),
    Message('note_on', channel=9, note=70, velocity=61, time=0),
    Message('note_on', channel=0, note=61, velocity=74, time=2),
    Message('note_off', channel=9, note=42, velocity=64, time=4),
    Message('note_off', channel=9, note=70, velocity=64, time=0),
    Message('note_off', channel=7, note=61, velocity=64, time=3),
    Message('note_on', channel=9, note=70, velocity=34, time=15),
    Message('note_on', channel=7, note=61, velocity=42, time=2),
    Message('note_off', channel=9, note=70, velocity=64, time=4),
    Message('note_off', channel=0, note=68, velocity=64, time=1),
    Message('note_on', channel=9, note=42, velocity=56, time=17),
    Message('note_on', channel=9, note=70, velocity=47, time=0),
    MetaMessage('lyrics', text='these ', time=1),
    Message('note_on', channel=3, note=82, velocity=70, time=0),
    Message('note_on', channel=0, note=68, velocity=76, time=0),
    Message('note_off', channel=9, note=42, velocity=64, time=5),
    Message('note_off', channel=9, note=70, velocity=64, time=0),
    Message('note_off', channel=7, note=68, velocity=64, time=1),
    Message('note_on', channel=9, note=70, velocity=65, time=17),
    Message('note_on', channel=7, note=68, velocity=44, time=1),
    Message('note_off', channel=9, note=70, velocity=64, time=5),
    Message('note_on', channel=9, note=46, velocity=75, time=18),
    Message('note_on', channel=9, note=70, velocity=67, time=0),
    Message('note_off', channel=9, note=46, velocity=64, time=6),
    Message('note_off', channel=9, note=70, velocity=64, time=0),
    Message('note_off', channel=0, note=49, velocity=64, time=17),
    Message('note_on', channel=9, note=70, velocity=36, time=1),
    Message('note_off', channel=3, note=82, velocity=64, time=1),
    MetaMessage('lyrics', text='cit', time=4),
    Message('note_on', channel=3, note=80, velocity=65, time=0),
    Message('note_off', channel=9, note=70, velocity=64, time=1),
    Message('note_off', channel=7, note=49, velocity=64, time=17),
    Message('note_on', channel=9, note=42, velocity=62, time=1),
    Message('note_on', channel=9, note=70, velocity=43, time=0),
    Message('note_on', channel=0, note=49, velocity=74, time=1),
    Message('note_off', channel=9, note=42, velocity=64, time=5),
    Message('note_off', channel=9, note=70, velocity=64, time=0),
    Message('note_off', channel=3, note=80, velocity=64, time=3),
    MetaMessage('lyrics', text='y ', time=5),
    Message('note_on', channel=3, note=77, velocity=67, time=0),
    Message('note_on', channel=9, note=70, velocity=71, time=10),
    Message('note_on', channel=7, note=49, velocity=42, time=1),
    Message('note_off', channel=9, note=70, velocity=64, time=5),
    Message('note_off', channel=0, note=49, velocity=64, time=15),
    Message('note_off', channel=3, note=77, velocity=64, time=3),
    Message('note_on', channel=9, note=42, velocity=88, time=0),
    Message('note_on', channel=9, note=70, velocity=77, time=0),
    Message('note_on', channel=0, note=49, velocity=82, time=1),
    MetaMessage('lyrics', text='walls, ', time=2),
    Message('note_on', channel=3, note=75, velocity=76, time=0),
    Message('note_off', channel=9, note=42, velocity=64, time=3),
    Message('note_off', channel=9, note=70, velocity=64, time=0),
    Message('note_off', channel=7, note=49, velocity=64, time=15),
    Message('note_on', channel=9, note=70, velocity=32, time=3),
    Message('note_on', channel=7, note=49, velocity=50, time=1),
    Message('note_off', channel=9, note=70, velocity=64, time=5),
    Message('note_off', channel=0, note=61, velocity=64, time=9),
    Message('note_on', channel=9, note=42, velocity=56, time=9),
    Message('note_on', channel=9, note=70, velocity=44, time=0),
    Message('note_on', channel=0, note=61, velocity=74, time=1),
    Message('note_off', channel=9, note=42, velocity=64, time=5),
    Message('note_off', channel=9, note=70, velocity=64, time=0),
    Message('note_off', channel=3, note=75, velocity=64, time=7),
    Message('note_off', channel=7, note=61, velocity=64, time=2),
    Message('note_on', channel=3, note=73, velocity=59, time=6),
    Message('note_off', channel=0, note=68, velocity=64, time=2),
    Message('note_on', channel=9, note=70, velocity=58, time=1),
    Message('note_on', channel=7, note=61, velocity=42, time=1),
    Message('note_off', channel=9, note=70, velocity=64, time=5),
    Message('note_on', channel=0, note=68, velocity=71, time=17),
    Message('note_off', channel=7, note=68, velocity=64, time=0),
    Message('note_on', channel=9, note=46, velocity=81, time=1),
    Message('note_on', channel=9, note=70, velocity=80, time=0),
    Message('note_off', channel=9, note=46, velocity=64, time=6),
    Message('note_off', channel=9, note=70, velocity=64, time=0),
    Message('note_on', channel=7, note=68, velocity=39, time=17),
    Message('note_on', channel=9, note=70, velocity=38, time=1),
    Message('note_off', channel=9, note=70, velocity=64, time=6),
    Message('note_off', channel=0, note=61, velocity=64, time=6),
    Message('note_on', channel=9, note=42, velocity=64, time=12),
    Message('note_on', channel=0, note=61, velocity=69, time=0),
    Message('note_on', channel=9, note=70, velocity=51, time=0),
    Message('note_off', channel=9, note=42, velocity=64, time=6),
    Message('note_off', channel=9, note=70, velocity=64, time=0),
    Message('note_off', channel=7, note=61, velocity=64, time=6),
    Message('note_off', channel=3, note=73, velocity=64, time=11),
    Message('note_on', channel=7, note=61, velocity=37, time=1),
    Message('note_on', channel=9, note=70, velocity=51, time=0),
    Message('note_off', channel=9, note=70, velocity=64, time=6),
    Message('note_on', channel=9, note=42, velocity=88, time=18),
    Message('note_off', channel=0, note=68, velocity=64, time=0),
    Message('note_on', channel=9, note=70, velocity=80, time=0),
    Message('note_on', channel=0, note=72, velocity=71, time=2),
    Message('note_off', channel=9, note=42, velocity=64, time=4),
    Message('note_off', channel=9, note=70, velocity=64, time=0),
    Message('note_off', channel=7, note=68, velocity=64, time=18),
    Message('note_on', channel=9, note=70, velocity=43, time=0),
    Message('note_on', channel=7, note=72, velocity=39, time=2),
    Message('note_off', channel=9, note=70, velocity=64, time=4),
    MetaMessage('lyrics', text='these ', time=18),
    Message('note_on', channel=3, note=82, velocity=91, time=0),
    Message('note_on', channel=9, note=42, velocity=69, time=0),
    Message('note_on', channel=9, note=70, velocity=43, time=0),
    Message('note_off', channel=0, note=72, velocity=64, time=2),
    Message('note_on', channel=0, note=68, velocity=61, time=0),
    Message('note_off', channel=9, note=42, velocity=64, time=4),
    Message('note_off', channel=9, note=70, velocity=64, time=0),
    Message('note_on', channel=9, note=42, velocity=66, time=17),
    Message('note_on', channel=9, note=70, velocity=67, time=1),
    Message('note_off', channel=7, note=72, velocity=64, time=2),
    Message('note_on', channel=7, note=68, velocity=29, time=0),
    Message('note_off', channel=9, note=42, velocity=64, time=3),
    Message('note_off', channel=9, note=70, velocity=64, time=1),
    Message('note_off', channel=0, note=61, velocity=64, time=11),
    Message('note_on', channel=9, note=46, velocity=64, time=6),
    Message('note_on', channel=9, note=70, velocity=83, time=1),
    Message('note_on', channel=0, note=61, velocity=60, time=1),
    Message('note_off', channel=9, note=46, velocity=64, time=4),
    Message('note_off', channel=9, note=70, velocity=64, time=1),
    Message('note_off', channel=7, note=61, velocity=64, time=11),
    Message('note_on', channel=9, note=70, velocity=22, time=7),
    Message('note_on', channel=7, note=61, velocity=28, time=1),
    Message('note_off', channel=9, note=70, velocity=64, time=5),
    MetaMessage('lyrics', text='cit', time=4),
    Message('note_on', channel=3, note=80, velocity=82, time=0),
    Message('note_off', channel=3, note=82, velocity=64, time=5),
    Message('note_on', channel=9, note=46, velocity=43, time=8),
    Message('note_on', channel=9, note=70, velocity=58, time=1),
    Message('note_off', channel=9, note=46, velocity=64, time=5),
    Message('note_off', channel=9, note=70, velocity=64, time=1),
    Message('note_off', channel=3, note=80, velocity=64, time=11),
    MetaMessage('lyrics', text='y ', time=2),
    Message('note_on', channel=3, note=77, velocity=84, time=0),
    Message('note_on', channel=9, note=70, velocity=75, time=5),
    Message('note_off', channel=9, note=70, velocity=64, time=6),
    Message('note_off', channel=3, note=77, velocity=64, time=18),
    Message('note_on', channel=9, note=42, velocity=66, time=0),
    Message('note_on', channel=9, note=70, velocity=51, time=0),
    Message('note_on', channel=0, note=54, velocity=74, time=4),
    Message('note_off', channel=9, note=42, velocity=64, time=2),
    Message('note_off', channel=9, note=70, velocity=64, time=0),
    MetaMessage('lyrics', text='walls ', time=7),
    MetaMessage('lyrics', text='\r', time=0),
    Message('note_on', channel=3, note=75, velocity=82, time=0),
    Message('note_on', channel=9, note=70, velocity=21, time=11),
    Message('note_on', channel=7, note=54, velocity=42, time=4),
    Message('note_off', channel=9, note=70, velocity=64, time=2),
    Message('note_off', channel=0, note=61, velocity=64, time=14),
    Message('note_on', channel=9, note=42, velocity=49, time=3),
    Message('note_on', channel=9, note=70, velocity=42, time=1),
    Message('note_on', channel=0, note=61, velocity=67, time=2),
    Message('note_off', channel=9, note=42, velocity=64, time=3),
    Message('note_off', channel=9, note=70, velocity=64, time=1),
    Message('note_off', channel=0, note=68, velocity=64, time=8),
    Message('note_off', channel=7, note=61, velocity=64, time=6),
    Message('note_on', channel=9, note=70, velocity=43, time=4),
    Message('note_on', channel=7, note=61, velocity=35, time=2),
    Message('note_off', channel=9, note=70, velocity=64, time=4),
    Message('note_off', channel=7, note=68, velocity=64, time=8),
    Message('note_off', channel=3, note=75, velocity=64, time=9),
    Message('note_on', channel=9, note=46, velocity=62, time=1),
    Message('note_on', channel=9, note=70, velocity=71, time=0),
    Message('note_on', channel=3, note=73, velocity=58, time=2),
    Message('note_on', channel=0, note=68, velocity=71, time=1),
    Message('note_off', channel=9, note=46, velocity=64, time=3),
    Message('note_off', channel=9, note=70, velocity=64, time=0),
    Message('note_on', channel=9, note=70, velocity=36, time=18),
    Message('note_on', channel=7, note=68, velocity=39, time=3),
    Message('note_off', channel=9, note=70, velocity=64, time=3),
    Message('note_on', channel=9, note=42, velocity=66, time=17),
    Message('note_on', channel=9, note=70, velocity=43, time=1),
    Message('note_off', channel=9, note=42, velocity=64, time=5),
    Message('note_off', channel=9, note=70, velocity=64, time=1),
    Message('note_on', channel=9, note=70, velocity=58, time=18),
    Message('note_off', channel=9, note=70, velocity=64, time=6),
    Message('note_off', channel=0, note=61, velocity=64, time=8),
    Message('note_on', channel=9, note=42, velocity=84, time=10),
    Message('note_on', channel=9, note=70, velocity=61, time=0),
    Message('note_on', channel=0, note=61, velocity=70, time=2),
    Message('note_off', channel=9, note=42, velocity=64, time=4),
    Message('note_off', channel=9, note=70, velocity=64, time=0),
    Message('note_off', channel=7, note=61, velocity=64, time=8),
    Message('note_on', channel=9, note=70, velocity=34, time=10),
    Message('note_on', channel=7, note=61, velocity=38, time=2),
    Message('note_off', channel=9, note=70, velocity=64, time=4),
    Message('note_off', channel=0, note=68, velocity=64, time=7),
    Message('note_on', channel=9, note=42, velocity=44, time=11),
    Message('note_on', channel=9, note=70, velocity=47, time=0),
    Message('note_on', channel=0, note=68, velocity=74, time=2),
    Message('note_off', channel=9, note=42, velocity=64, time=4),
    Message('note_off', channel=9, note=70, velocity=64, time=0),
    Message('note_off', channel=7, note=68, velocity=64, time=7),
    Message('note_on', channel=9, note=70, velocity=65, time=11),
    Message('note_on', channel=7, note=68, velocity=42, time=2),
    Message('note_off', channel=9, note=70, velocity=64, time=4),
    Message('note_on', channel=9, note=46, velocity=66, time=18),
    Message('note_on', channel=9, note=70, velocity=67, time=0),
    Message('note_off', channel=3, note=73, velocity=64, time=1),
    Message('note_off', channel=9, note=46, velocity=64, time=5),
    Message('note_off', channel=9, note=70, velocity=64, time=0),
    Message('note_off', channel=0, note=54, velocity=64, time=14),
    Message('note_on', channel=9, note=70, velocity=36, time=4),
    Message('note_off', channel=9, note=70, velocity=64, time=6),
    Message('note_off', channel=0, note=49, velocity=64, time=4),
    Message('note_off', channel=7, note=54, velocity=64, time=10),
    Message('note_on', channel=0, note=54, velocity=64, time=3),
    Message('note_on', channel=9, note=42, velocity=75, time=1),
    Message('note_on', channel=9, note=70, velocity=43, time=0),
    Message('note_off', channel=9, note=42, velocity=64, time=6),
    Message('note_off', channel=9, note=70, velocity=64, time=0),
    Message('note_off', channel=7, note=49, velocity=64, time=4),
    Message('note_on', channel=7, note=54, velocity=32, time=13),
    Message('note_on', channel=9, note=70, velocity=71, time=1),
    Message('note_off', channel=9, note=70, velocity=64, time=6),
    Message('note_off', channel=0, note=54, velocity=64, time=13),
    Message('note_on', channel=9, note=42, velocity=92, time=5),
    Message('note_on', channel=0, note=54, velocity=80, time=0),
    Message('note_on', channel=9, note=70, velocity=77, time=0),
    Message('note_off', channel=9, note=42, velocity=64, time=6),
    Message('note_off', channel=9, note=70, velocity=64, time=0),
    Message('note_off', channel=7, note=54, velocity=64, time=13),
    Message('note_on', channel=7, note=54, velocity=48, time=5),
    Message('note_on', channel=9, note=70, velocity=32, time=0),
    Message('note_off', channel=9, note=70, velocity=64, time=6),
    Message('note_off', channel=0, note=61, velocity=64, time=13),
    Message('note_off', channel=0, note=68, velocity=64, time=1),
    Message('note_on', channel=0, note=61, velocity=57, time=2),
    Message('note_on', channel=9, note=42, velocity=62, time=2),
    Message('note_on', channel=9, note=70, velocity=44, time=0),
    Message('note_off', channel=9, note=42, velocity=64, time=6),
    Message('note_off', channel=9, note=70, velocity=64, time=0),
    Message('note_off', channel=7, note=61, velocity=64, time=13),
    Message('note_off', channel=7, note=68, velocity=64, time=1),
    Message('note_on', channel=7, note=61, velocity=25, time=2),
    Message('note_on', channel=9, note=70, velocity=58, time=2),
    Message('note_off', channel=9, note=70, velocity=64, time=6),
    Message('note_on', channel=9, note=46, velocity=69, time=17),
    Message('note_on', channel=0, note=68, velocity=74, time=1),
    Message('note_on', channel=9, note=70, velocity=80, time=0),
    Message('note_off', channel=9, note=46, velocity=64, time=5),
    Message('note_off', channel=9, note=70, velocity=64, time=1),
    Message('note_on', channel=7, note=68, velocity=42, time=18),
    Message('note_on', channel=9, note=70, velocity=38, time=0),
    Message('note_off', channel=9, note=70, velocity=64, time=6),
    Message('note_off', channel=0, note=61, velocity=64, time=12),
    Message('note_on', channel=9, note=42, velocity=66, time=6),
    Message('note_on', channel=9, note=70, velocity=51, time=0),
    Message('note_on', channel=0, note=61, velocity=71, time=1),
    Message('note_off', channel=9, note=42, velocity=64, time=5),
    Message('note_off', channel=9, note=70, velocity=64, time=0),
    Message('note_off', channel=7, note=61, velocity=64, time=12),
    Message('note_on', channel=9, note=70, velocity=51, time=6),
    Message('note_on', channel=7, note=61, velocity=39, time=1),
    Message('note_off', channel=9, note=70, velocity=64, time=5),
    Message('note_off', channel=0, note=68, velocity=64, time=12),
    MetaMessage('lyrics', text='on', time=3),
    Message('note_on', channel=3, note=77, velocity=88, time=0),
    Message('note_on', channel=9, note=42, velocity=92, time=3),
    Message('note_on', channel=9, note=70, velocity=80, time=0),
    Message('note_on', channel=0, note=72, velocity=75, time=1),
    Message('note_off', channel=9, note=42, velocity=64, time=5),
    Message('note_off', channel=9, note=70, velocity=64, time=0),
    Message('note_off', channel=7, note=68, velocity=64, time=12),
    Message('note_on', channel=9, note=42, velocity=54, time=6),
    Message('note_on', channel=9, note=70, velocity=43, time=0),
    Message('note_on', channel=7, note=72, velocity=43, time=1),
    Message('note_off', channel=9, note=42, velocity=64, time=5),
    Message('note_off', channel=9, note=70, velocity=64, time=0),
    Message('note_off', channel=0, note=72, velocity=64, time=13),
    Message('note_on', channel=9, note=42, velocity=60, time=5),
    Message('note_on', channel=9, note=70, velocity=43, time=0),
    Message('note_on', channel=0, note=68, velocity=74, time=2),
    Message('note_off', channel=9, note=42, velocity=64, time=4),
    Message('note_off', channel=9, note=70, velocity=64, time=0),
    Message('note_off', channel=3, note=77, velocity=64, time=3),
    Message('note_off', channel=7, note=72, velocity=64, time=10),
    MetaMessage('lyrics', text='ly ', time=2),
    Message('note_on', channel=3, note=75, velocity=77, time=0),
    Message('note_on', channel=9, note=70, velocity=67, time=3),
    Message('note_on', channel=7, note=68, velocity=42, time=2),
    Message('note_off', channel=9, note=70, velocity=64, time=4),
    Message('note_off', channel=0, note=61, velocity=64, time=7),
    Message('note_on', channel=9, note=46, velocity=56, time=11),
    Message('note_on', channel=9, note=70, velocity=83, time=0),
    Message('note_on', channel=0, note=61, velocity=67, time=1),
    Message('note_off', channel=9, note=46, velocity=64, time=5),
    Message('note_off', channel=9, note=70, velocity=64, time=0),
    Message('note_off', channel=7, note=61, velocity=64, time=7),
    Message('note_on', channel=9, note=70, velocity=22, time=11),
    Message('note_on', channel=7, note=61, velocity=35, time=1),
    Message('note_off', channel=3, note=75, velocity=64, time=3),
    Message('note_off', channel=9, note=70, velocity=64, time=2),
    MetaMessage('lyrics', text='to ', time=1),
    Message('note_on', channel=3, note=73, velocity=65, time=0),
    Message('note_off', channel=0, note=61, velocity=64, time=6),
    Message('note_on', channel=9, note=46, velocity=75, time=10),
    Message('note_on', channel=0, note=61, velocity=74, time=1),
    Message('note_on', channel=9, note=70, velocity=58, time=0),
    Message('note_off', channel=9, note=46, velocity=64, time=5),
    Message('note_off', channel=9, note=70, velocity=64, time=1),
    Message('note_off', channel=7, note=61, velocity=64, time=7),
    Message('note_on', channel=7, note=61, velocity=42, time=11),
    Message('note_on', channel=9, note=70, velocity=75, time=0),
    Message('note_off', channel=9, note=70, velocity=64, time=6),
    Message('note_off', channel=3, note=73, velocity=64, time=14),
    Message('note_on', channel=9, note=42, velocity=81, time=4),
    Message('note_on', channel=9, note=70, velocity=51, time=0),
    MetaMessage('lyrics', text='be ', time=1),
    Message('note_on', channel=3, note=75, velocity=66, time=0),
    Message('note_on', channel=0, note=49, velocity=86, time=0),
    Message('note_off', channel=9, note=42, velocity=64, time=5),
    Message('note_off', channel=9, note=70, velocity=64, time=0),
    Message('note_off', channel=0, note=68, velocity=64, time=17),
    Message('note_on', channel=9, note=70, velocity=21, time=1),
    Message('note_on', channel=7, note=49, velocity=54, time=1),
    Message('note_off', channel=9, note=70, velocity=64, time=5),
    Message('note_off', channel=0, note=61, velocity=64, time=8),
    Message('note_on', channel=9, note=42, velocity=58, time=9),
    Message('note_off', channel=7, note=68, velocity=64, time=0),
    Message('note_on', channel=9, note=70, velocity=42, time=1),
    Message('note_on', channel=0, note=61, velocity=73, time=2),
    Message('note_off', channel=9, note=42, velocity=64, time=3),
    Message('note_off', channel=9, note=70, velocity=64, time=1),
    Message('note_off', channel=7, note=61, velocity=64, time=8),
    Message('note_on', channel=9, note=70, velocity=43, time=10),
    Message('note_on', channel=7, note=61, velocity=41, time=2),
    Message('note_off', channel=9, note=70, velocity=64, time=4),
    Message('note_on', channel=9, note=46, velocity=60, time=18),
    Message('note_on', channel=9, note=70, velocity=71, time=0),
    Message('note_on', channel=0, note=68, velocity=70, time=1),
    Message('note_off', channel=9, note=46, velocity=64, time=5),
    Message('note_off', channel=9, note=70, velocity=64, time=0),
    Message('note_on', channel=9, note=70, velocity=36, time=18),
    Message('note_on', channel=7, note=68, velocity=38, time=1),
    Message('note_off', channel=9, note=70, velocity=64, time=5),
    MetaMessage('lyrics', text='with ', time=5),
    Message('note_on', channel=3, note=73, velocity=59, time=0),
    Message('note_off', channel=3, note=75, velocity=64, time=2),
    Message('note_on', channel=9, note=42, velocity=58, time=10),
    Message('note_on', channel=9, note=70, velocity=43, time=1),
    Message('note_off', channel=9, note=42, velocity=64, time=5),
    Message('note_off', channel=9, note=70, velocity=64, time=1),
    Message('note_on', channel=9, note=70, velocity=58, time=18),
    Message('note_off', channel=9, note=70, velocity=64, time=6),
    Message('note_off', channel=0, note=61, velocity=64, time=4),
    Message('note_off', channel=3, note=73, velocity=64, time=2),
    Message('note_on', channel=9, note=42, velocity=88, time=11),
    Message('note_on', channel=9, note=70, velocity=61, time=1),
    Message('note_on', channel=0, note=61, velocity=67, time=2),
    MetaMessage('lyrics', text='you. ', time=1),
    MetaMessage('lyrics', text='\r', time=0),
    Message('note_on', channel=3, note=73, velocity=62, time=0),
    Message('note_off', channel=9, note=42, velocity=64, time=2),
    Message('note_off', channel=9, note=70, velocity=64, time=1),
    Message('note_off', channel=7, note=61, velocity=64, time=4),
    Message('note_on', channel=9, note=70, velocity=34, time=14),
    Message('note_on', channel=7, note=61, velocity=35, time=2),
    Message('note_off', channel=9, note=70, velocity=64, time=4),
    Message('note_off', channel=0, note=68, velocity=64, time=9),
    Message('note_on', channel=9, note=42, velocity=49, time=8),
    Message('note_on', channel=9, note=70, velocity=47, time=1),
    Message('note_on', channel=0, note=68, velocity=72, time=1),
    Message('note_off', channel=9, note=42, velocity=64, time=4),
    Message('note_off', channel=9, note=70, velocity=64, time=1),
    Message('note_off', channel=7, note=68, velocity=64, time=9),
    Message('note_on', channel=9, note=70, velocity=65, time=9),
    Message('note_on', channel=7, note=68, velocity=40, time=1),
    Message('note_off', channel=9, note=70, velocity=64, time=5),
    Message('note_on', channel=9, note=46, velocity=62, time=17),
    Message('note_on', channel=9, note=70, velocity=67, time=1),
    Message('note_off', channel=9, note=46, velocity=64, time=5),
    Message('note_off', channel=9, note=70, velocity=64, time=1),
    Message('note_on', channel=9, note=70, velocity=36, time=18),
    Message('note_off', channel=0, note=49, velocity=64, time=3),
    Message('note_off', channel=9, note=70, velocity=64, time=3),
    Message('note_on', channel=9, note=42, velocity=75, time=17),
    Message('note_on', channel=9, note=70, velocity=43, time=1),
    Message('note_on', channel=0, note=49, velocity=64, time=1),
    MetaMessage('lyrics', text='\n', time=1),
    Message('note_off', channel=7, note=49, velocity=64, time=1),
    Message('note_off', channel=9, note=42, velocity=64, time=2),
    Message('note_off', channel=9, note=70, velocity=64, time=1),
    Message('note_on', channel=9, note=70, velocity=71, time=18),
    Message('note_on', channel=7, note=49, velocity=32, time=1),
    Message('note_off', channel=9, note=70, velocity=64, time=5),
    Message('note_off', channel=3, note=73, velocity=64, time=8),
    Message('note_off', channel=0, note=49, velocity=64, time=5),
    Message('note_on', channel=0, note=49, velocity=82, time=4),
    Message('note_on', channel=9, note=42, velocity=92, time=1),
    Message('note_on', channel=9, note=70, velocity=77, time=0),
    Message('note_off', channel=9, note=42, velocity=64, time=6),
    Message('note_off', channel=9, note=70, velocity=64, time=0),
    Message('note_off', channel=7, note=49, velocity=64, time=13),
    Message('note_on', channel=7, note=49, velocity=50, time=4),
    Message('note_on', channel=9, note=70, velocity=32, time=1),
    Message('note_off', channel=9, note=70, velocity=64, time=6),
    Message('note_off', channel=0, note=61, velocity=64, time=7),
    Message('note_off', channel=0, note=68, velocity=64, time=1),
    Message('note_on', channel=9, note=42, velocity=58, time=10),
    Message('note_on', channel=9, note=70, velocity=44, time=0),
    Message('note_on', channel=0, note=61, velocity=74, time=1),
    Message('note_off', channel=9, note=42, velocity=64, time=5),
    Message('note_off', channel=9, note=70, velocity=64, time=0),
    Message('note_off', channel=7, note=61, velocity=64, time=7),
    Message('note_off', channel=7, note=68, velocity=64, time=1),
    Message('note_on', channel=9, note=70, velocity=58, time=10),
    Message('note_on', channel=7, note=61, velocity=42, time=1),
    Message('note_off', channel=9, note=70, velocity=64, time=5),
    Message('note_off', channel=0, note=54, velocity=64, time=10),
    Message('note_on', channel=9, note=46, velocity=56, time=8),
    Message('note_on', channel=9, note=70, velocity=80, time=0),
    Message('note_on', channel=0, note=68, velocity=73, time=1),
    Message('note_off', channel=9, note=46, velocity=64, time=5),
    Message('note_off', channel=9, note=70, velocity=64, time=0),
    Message('note_off', channel=7, note=54, velocity=64, time=10),
    Message('note_on', channel=9, note=70, velocity=38, time=8),
    Message('note_on', channel=7, note=68, velocity=41, time=1),
    Message('note_off', channel=9, note=70, velocity=64, time=5),
    Message('note_off', channel=0, note=61, velocity=64, time=6),
    Message('note_on', channel=9, note=42, velocity=72, time=11),
    Message('note_on', channel=9, note=70, velocity=51, time=1),
    Message('note_on', channel=0, note=61, velocity=71, time=2),
    Message('note_off', channel=9, note=42, velocity=64, time=3),
    Message('note_off', channel=9, note=70, velocity=64, time=1),
    Message('note_off', channel=7, note=61, velocity=64, time=6),
    Message('note_on', channel=9, note=70, velocity=51, time=12),
    Message('note_on', channel=7, note=61, velocity=39, time=2),
    Message('note_off', channel=9, note=70, velocity=64, time=4),
    Message('note_off', channel=0, note=68, velocity=64, time=6),
    Message('note_on', channel=9, note=42, velocity=92, time=12),
    Message('note_on', channel=9, note=70, velocity=80, time=0),
    Message('note_on', channel=0, note=72, velocity=71, time=2),
    Message('note_off', channel=9, note=42, velocity=64, time=4),
    Message('note_off', channel=9, note=70, velocity=64, time=0),
    Message('note_off', channel=7, note=68, velocity=64, time=6),
    Message('note_on', channel=9, note=42, velocity=56, time=11),
    Message('note_on', channel=9, note=70, velocity=43, time=1),
    Message('note_on', channel=7, note=72, velocity=39, time=2),
    Message('note_off', channel=9, note=42, velocity=64, time=3),
    Message('note_off', channel=9, note=70, velocity=64, time=1),
    Message('note_off', channel=0, note=72, velocity=64, time=13),
    Message('note_on', channel=4, note=61, velocity=69, time=3),
    Message('note_on', channel=4, note=56, velocity=65, time=0),
    Message('control_change', channel=4, control=1, value=0, time=1),
    Message('pitchwheel', channel=4, pitch=0, time=0),
    Message('note_on', channel=9, note=42, velocity=69, time=0),
    MetaMessage('lyrics', text='But ', time=1),
    Message('note_on', channel=3, note=73, velocity=84, time=0),
    Message('note_on', channel=9, note=70, velocity=43, time=0),
    Message('note_on', channel=0, note=68, velocity=74, time=1),
    Message('note_off', channel=9, note=42, velocity=64, time=4),
    Message('note_off', channel=9, note=70, velocity=64, time=1),
    Message('note_off', channel=7, note=72, velocity=64, time=13),
    Message('note_on', channel=9, note=70, velocity=67, time=5),
    Message('note_on', channel=7, note=68, velocity=42, time=1),
    Message('note_off', channel=9, note=70, velocity=64, time=5),
    Message('note_off', channel=3, note=73, velocity=64, time=4),
    Message('note_off', channel=0, note=61, velocity=64, time=4),
    Message('note_off', channel=4, note=56, velocity=64, time=8),
    Message('note_off', channel=4, note=61, velocity=64, time=0),
    Message('note_on', channel=4, note=61, velocity=73, time=1),
    Message('note_on', channel=4, note=56, velocity=67, time=0),
    Message('note_on', channel=9, note=46, velocity=62, time=0),
    Message('note_on', channel=0, note=61, velocity=71, time=1),
    Message('note_on', channel=9, note=70, velocity=83, time=0),
    MetaMessage('lyrics', text='I ', time=1),
    Message('note_on', channel=3, note=73, velocity=80, time=0),
    Message('note_off', channel=9, note=46, velocity=64, time=4),
    Message('note_off', channel=9, note=70, velocity=64, time=1),
    Message('note_off', channel=7, note=61, velocity=64, time=8),
    Message('note_on', channel=7, note=61, velocity=39, time=10),
    Message('note_on', channel=9, note=70, velocity=22, time=0),
    Message('note_off', channel=9, note=70, velocity=64, time=6),
    Message('note_off', channel=0, note=61, velocity=64, time=7),
    Message('note_off', channel=3, note=73, velocity=64, time=2),
    Message('note_off', channel=4, note=56, velocity=64, time=5),
    Message('note_off', channel=4, note=61, velocity=64, time=0),
    Message('note_on', channel=4, note=56, velocity=64, time=2),
    Message('note_on', channel=4, note=60, velocity=57, time=1),
    Message('note_on', channel=4, note=63, velocity=67, time=0),
    Message('note_on', channel=9, note=46, velocity=75, time=0),
    MetaMessage('lyrics', text='still ', time=1),
    Message('note_on', channel=3, note=80, velocity=91, time=0),
    Message('note_on', channel=0, note=61, velocity=74, time=0),
    Message('note_on', channel=9, note=70, velocity=58, time=0),
    Message('note_off', channel=9, note=46, velocity=64, time=5),
    Message('note_off', channel=9, note=70, velocity=64, time=1),
    Message('note_off', channel=7, note=61, velocity=64, time=7),
    Message('note_on', channel=7, note=61, velocity=42, time=11),
    Message('note_on', channel=9, note=70, velocity=75, time=0),
    Message('note_off', channel=9, note=70, velocity=64, time=6),
    Message('note_off', channel=0, note=49, velocity=64, time=13),
    Message('note_off', channel=0, note=61, velocity=64, time=1),
    Message('note_off', channel=0, note=68, velocity=64, time=1),
    Message('note_on', channel=9, note=42, velocity=75, time=2),
    Message('note_on', channel=9, note=70, velocity=51, time=1),
    Message('note_on', channel=0, note=56, velocity=88, time=1),
    Message('pitchwheel', channel=0, pitch=-175, time=1),
    Message('note_off', channel=9, note=42, velocity=64, time=3),
    Message('note_off', channel=9, note=70, velocity=64, time=1),
    Message('note_off', channel=7, note=49, velocity=64, time=13),
    Message('note_off', channel=7, note=61, velocity=64, time=1),
    Message('note_off', channel=7, note=68, velocity=64, time=1),
    Message('note_on', channel=9, note=70, velocity=21, time=3),
    Message('note_on', channel=7, note=56, velocity=56, time=1),
    Message('pitchwheel', channel=7, pitch=-175, time=1),
    Message('note_off', channel=9, note=70, velocity=64, time=4),
    Message('pitchwheel', channel=0, pitch=0, time=16),
    Message('note_on', channel=9, note=42, velocity=64, time=1),
    Message('note_on', channel=0, note=63, velocity=89, time=1),
    Message('note_on', channel=9, note=70, velocity=42, time=0),
    Message('note_off', channel=9, note=42, velocity=64, time=5),
    Message('note_off', channel=9, note=70, velocity=64, time=1),
    Message('pitchwheel', channel=7, pitch=0, time=16),
    Message('note_on', channel=7, note=63, velocity=57, time=2),
    Message('note_on', channel=9, note=70, velocity=43, time=0),
    Message('note_off', channel=9, note=70, velocity=64, time=6),
    Message('note_on', channel=9, note=46, velocity=69, time=18),
    Message('note_on', channel=9, note=70, velocity=71, time=0),
    Message('note_on', channel=0, note=68, velocity=70, time=1),
    Message('note_off', channel=9, note=46, velocity=64, time=5),
    Message('note_off', channel=9, note=70, velocity=64, time=0),
    Message('note_on', channel=9, note=70, velocity=36, time=18),
    Message('note_on', channel=7, note=68, velocity=38, time=1),
    Message('note_off', channel=9, note=70, velocity=64, time=5),
    Message('note_off', channel=0, note=56, velocity=64, time=5),
    Message('note_on', channel=0, note=56, velocity=83, time=11),
    Message('note_on', channel=9, note=42, velocity=72, time=1),
    Message('note_on', channel=9, note=70, velocity=43, time=1),
    Message('note_off', channel=9, note=42, velocity=64, time=5),
    Message('note_off', channel=9, note=70, velocity=64, time=1),
    Message('note_off', channel=7, note=56, velocity=64, time=5),
    Message('note_off', channel=3, note=80, velocity=64, time=11),
    Message('note_on', channel=7, note=56, velocity=51, time=0),
    Message('note_on', channel=9, note=70, velocity=58, time=2),
    Message('note_off', channel=9, note=70, velocity=64, time=6),
    Message('note_off', channel=0, note=63, velocity=64, time=6),
    Message('note_on', channel=9, note=42, velocity=81, time=11),
    Message('note_on', channel=0, note=63, velocity=93, time=0),
    Message('note_on', channel=9, note=70, velocity=61, time=1),
    Message('note_off', channel=9, note=42, velocity=64, time=5),
    Message('note_off', channel=9, note=70, velocity=64, time=1),
    Message('note_off', channel=7, note=63, velocity=64, time=6),
    Message('note_on', channel=7, note=63, velocity=61, time=11),
    Message('note_on', channel=9, note=70, velocity=34, time=1),
    Message('note_off', channel=9, note=70, velocity=64, time=6),
    Message('note_off', channel=0, note=68, velocity=64, time=9),
    Message('note_off', channel=4, note=60, velocity=64, time=5),
    Message('note_off', channel=4, note=56, velocity=64, time=0),
    Message('note_off', channel=4, note=63, velocity=64, time=1),
    Message('note_on', channel=4, note=56, velocity=64, time=1),
    Message('note_on', channel=0, note=68, velocity=67, time=0),
    MetaMessage('lyrics', text='have', time=1),
    Message('note_on', channel=3, note=78, velocity=91, time=0),
    Message('note_on', channel=4, note=66, velocity=62, time=0),
    Message('note_on', channel=4, note=61, velocity=62, time=0),
    Message('note_on', channel=9, note=42, velocity=58, time=0),
    Message('note_on', channel=9, note=70, velocity=47, time=1),
    Message('note_off', channel=9, note=42, velocity=64, time=5),
    Message('note_off', channel=9, note=70, velocity=64, time=1),
    Message('note_off', channel=7, note=68, velocity=64, time=9),
    Message('note_on', channel=7, note=68, velocity=35, time=7),
    Message('note_on', channel=9, note=70, velocity=65, time=2),
    Message('note_off', channel=9, note=70, velocity=64, time=6),
    Message('note_off', channel=0, note=56, velocity=64, time=11),
    Message('note_off', channel=3, note=78, velocity=64, time=3),
    Message('note_off', channel=4, note=61, velocity=64, time=2),
    MetaMessage('lyrics', text="n't ", time=1),
    Message('note_on', channel=3, note=77, velocity=81, time=0),
    Message('note_on', channel=4, note=61, velocity=72, time=0),
    Message('note_on', channel=9, note=46, velocity=66, time=0),
    Message('note_on', channel=0, note=56, velocity=82, time=0),
    Message('note_on', channel=9, note=70, velocity=67, time=1),
    Message('note_off', channel=9, note=46, velocity=64, time=5),
    Message('note_off', channel=9, note=70, velocity=64, time=1),
    Message('note_off', channel=7, note=56, velocity=64, time=11),
    Message('note_on', channel=7, note=56, velocity=50, time=6),
    Message('note_on', channel=9, note=70, velocity=36, time=1),
    Message('note_off', channel=9, note=70, velocity=64, time=6),
    Message('note_off', channel=0, note=68, velocity=64, time=7),
    Message('note_off', channel=3, note=77, velocity=64, time=3),
    MetaMessage('lyrics', text='found ', time=7),
    MetaMessage('lyrics', text='\r', time=0),
    Message('note_on', channel=3, note=73, velocity=66, time=0),
    Message('note_off', channel=4, note=66, velocity=64, time=0),
    Message('note_on', channel=4, note=65, velocity=69, time=0),
    Message('note_on', channel=9, note=42, velocity=69, time=0),
    Message('note_on', channel=9, note=70, velocity=43, time=1),
    Message('note_on', channel=0, note=68, velocity=64, time=1),
    Message('note_off', channel=9, note=42, velocity=64, time=4),
    Message('note_off', channel=9, note=70, velocity=64, time=1),
    Message('note_off', channel=7, note=68, velocity=64, time=7),
    Message('note_on', channel=9, note=70, velocity=71, time=11),
    Message('note_on', channel=7, note=68, velocity=32, time=1),
    Message('note_off', channel=9, note=70, velocity=64, time=5),
    Message('note_off', channel=0, note=56, velocity=64, time=11),
    Message('note_on', channel=9, note=42, velocity=88, time=6),
    Message('note_off', channel=4, note=56, velocity=64, time=1),
    Message('note_on', channel=0, note=54, velocity=90, time=0),
    Message('note_on', channel=9, note=70, velocity=77, time=0),
    Message('note_on', channel=4, note=58, velocity=59, time=1),
    Message('note_off', channel=9, note=42, velocity=64, time=4),
    Message('note_off', channel=9, note=70, velocity=64, time=1),
    Message('note_off', channel=7, note=56, velocity=64, time=11),
    Message('note_on', channel=7, note=54, velocity=58, time=7),
    Message('note_on', channel=9, note=70, velocity=32, time=0),
    Message('note_off', channel=9, note=70, velocity=64, time=6),
    Message('note_off', channel=0, note=63, velocity=64, time=9),
    Message('note_on', channel=9, note=42, velocity=52, time=8),
    Message('note_on', channel=0, note=63, velocity=79, time=1),
    Message('note_on', channel=9, note=70, velocity=44, time=0),
    Message('note_off', channel=9, note=42, velocity=64, time=5),
    Message('note_off', channel=9, note=70, velocity=64, time=1),
    Message('note_off', channel=7, note=63, velocity=64, time=9),
    Message('note_on', channel=7, note=63, velocity=47, time=9),
    Message('note_on', channel=9, note=70, velocity=58, time=0),
    Message('note_off', channel=0, note=68, velocity=64, time=4),
    Message('note_off', channel=9, note=70, velocity=64, time=2),
    Message('note_on', channel=0, note=68, velocity=60, time=17),
    Message('note_on', channel=9, note=46, velocity=66, time=1),
    Message('note_on', channel=9, note=70, velocity=80, time=0),
    Message('note_off', channel=7, note=68, velocity=64, time=4),
    Message('note_off', channel=9, note=46, velocity=64, time=2),
    Message('note_off', channel=9, note=70, velocity=64, time=0),
    Message('note_on', channel=7, note=68, velocity=28, time=17),
    Message('note_on', channel=9, note=70, velocity=38, time=1),
    Message('note_off', channel=3, note=73, velocity=64, time=4),
    Message('note_off', channel=9, note=70, velocity=64, time=2),
    Message('note_off', channel=0, note=63, velocity=64, time=6),
    Message('note_on', channel=9, note=42, velocity=69, time=12),
    Message('note_on', channel=0, note=63, velocity=71, time=0),
    Message('note_on', channel=9, note=70, velocity=51, time=0),
    Message('note_off', channel=9, note=42, velocity=64, time=6),
    Message('note_off', channel=9, note=70, velocity=64, time=0),
    Message('note_off', channel=7, note=63, velocity=64, time=6),
    Message('note_off', channel=0, note=63, velocity=64, time=11),
    Message('note_on', channel=7, note=63, velocity=39, time=1),
    Message('note_on', channel=9, note=70, velocity=51, time=0),
    Message('note_on', channel=0, note=63, velocity=76, time=1),
    Message('note_off', channel=9, note=70, velocity=64, time=5),
    Message('note_off', channel=0, note=63, velocity=64, time=16),
    Message('note_on', channel=9, note=42, velocity=78, time=1),
    Message('note_off', channel=7, note=63, velocity=64, time=0),
    Message('note_on', channel=9, note=70, velocity=80, time=1),
    Message('note_on', channel=7, note=63, velocity=44, time=1),
    Message('note_on', channel=0, note=63, velocity=72, time=2),
    Message('note_off', channel=9, note=42, velocity=64, time=2),
    Message('note_off', channel=9, note=70, velocity=64, time=1),
    Message('note_off', channel=7, note=63, velocity=64, time=16),
    Message('note_on', channel=9, note=70, velocity=43, time=2),
    Message('note_off', channel=4, note=65, velocity=64, time=1),
    Message('note_off', channel=4, note=58, velocity=64, time=1),
    Message('note_off', channel=4, note=61, velocity=64, time=0),
    Message('note_on', channel=7, note=63, velocity=40, time=1),
    Message('note_off', channel=9, note=70, velocity=64, time=3),
    Message('note_off', channel=0, note=68, velocity=64, time=15),
    MetaMessage('lyrics', text='what ', time=2),
    Message('note_on', channel=3, note=70, velocity=73, time=0),
    Message('note_on', channel=4, note=58, velocity=52, time=1),
    Message('note_on', channel=4, note=66, velocity=55, time=0),
    Message('note_on', channel=4, note=61, velocity=49, time=0),
    Message('note_on', channel=9, note=42, velocity=69, time=0),
    Message('note_on', channel=9, note=70, velocity=43, time=0),
    Message('note_on', channel=0, note=68, velocity=77, time=2),
    Message('note_off', channel=9, note=42, velocity=64, time=4),
    Message('note_off', channel=9, note=70, velocity=64, time=0),
    Message('note_off', channel=7, note=68, velocity=64, time=15),
    Message('note_on', channel=9, note=70, velocity=67, time=3),
    Message('note_on', channel=7, note=68, velocity=45, time=2),
    Message('note_off', channel=3, note=70, velocity=64, time=4),
    Message('note_off', channel=9, note=70, velocity=64, time=0),
    Message('note_off', channel=0, note=54, velocity=64, time=14),
    Message('note_off', channel=4, note=61, velocity=64, time=1),
    Message('note_off', channel=4, note=66, velocity=64, time=0),
    Message('note_off', channel=4, note=58, velocity=64, time=0),
    Message('note_on', channel=4, note=61, velocity=75, time=2),
    Message('note_on', channel=4, note=66, velocity=78, time=0),
    Message('note_on', channel=4, note=58, velocity=70, time=0),
    Message('note_on', channel=9, note=46, velocity=29, time=0),
    MetaMessage('lyrics', text="I'm ", time=1),
    Message('note_on', channel=3, note=70, velocity=78, time=0),
    Message('note_on', channel=9, note=70, velocity=83, time=0),
    Message('note_on', channel=0, note=54, velocity=86, time=2),
    Message('note_off', channel=9, note=46, velocity=64, time=3),
    Message('note_off', channel=9, note=70, velocity=64, time=1),
    Message('note_off', channel=7, note=54, velocity=64, time=14),
    Message('note_on', channel=9, note=70, velocity=22, time=4),
    Message('note_on', channel=7, note=54, velocity=54, time=2),
    Message('note_off', channel=3, note=70, velocity=64, time=2),
    Message('note_off', channel=9, note=70, velocity=64, time=2),
    Message('note_off', channel=4, note=58, velocity=64, time=14),
    Message('note_off', channel=4, note=66, velocity=64, time=0),
    Message('note_off', channel=4, note=61, velocity=64, time=0),
    MetaMessage('lyrics', text='look', time=2),
    Message('note_on', channel=3, note=70, velocity=89, time=0),
    Message('note_on', channel=4, note=58, velocity=84, time=0),
    Message('note_on', channel=4, note=61, velocity=85, time=0),
    Message('note_on', channel=4, note=66, velocity=81, time=1),
    Message('note_on', channel=9, note=46, velocity=81, time=0),
    Message('note_on', channel=0, note=61, velocity=74, time=0),
    Message('note_on', channel=9, note=70, velocity=58, time=1),
    Message('note_off', channel=9, note=46, velocity=64, time=5),
    Message('note_off', channel=9, note=70, velocity=64, time=1),
    Message('note_on', channel=7, note=61, velocity=42, time=17),
    Message('note_on', channel=9, note=70, velocity=75, time=1),
    Message('note_off', channel=9, note=70, velocity=64, time=6),
    Message('note_off', channel=3, note=70, velocity=64, time=14),
    Message('note_off', channel=4, note=58, velocity=64, time=2),
    Message('note_off', channel=4, note=66, velocity=64, time=1),
    Message('note_on', channel=4, note=65, velocity=60, time=0),
    Message('note_on', channel=4, note=56, velocity=60, time=0),
    Message('note_on', channel=9, note=42, velocity=81, time=1),
    Message('note_on', channel=9, note=70, velocity=51, time=0),
    MetaMessage('lyrics', text='ing ', time=1),
    Message('note_on', channel=3, note=73, velocity=71, time=0),
    Message('note_on', channel=0, note=49, velocity=86, time=2),
    Message('note_off', channel=9, note=42, velocity=64, time=3),
    Message('note_off', channel=9, note=70, velocity=64, time=0),
    Message('note_on', channel=9, note=70, velocity=21, time=18),
    Message('note_on', channel=7, note=49, velocity=54, time=3),
    Message('note_off', channel=9, note=70, velocity=64, time=3),
    Message('note_off', channel=3, note=73, velocity=64, time=7),
    Message('note_off', channel=0, note=61, velocity=64, time=2),
    Message('note_off', channel=4, note=56, velocity=64, time=6),
    Message('note_off', channel=4, note=65, velocity=64, time=0),
    Message('note_off', channel=4, note=61, velocity=64, time=0),
    Message('note_on', channel=4, note=56, velocity=64, time=1),
    Message('note_on', channel=4, note=61, velocity=58, time=0),
    Message('note_on', channel=4, note=65, velocity=62, time=0),
    Message('note_on', channel=9, note=42, velocity=58, time=1),
    Message('note_on', channel=0, note=61, velocity=72, time=0),
    MetaMessage('lyrics', text='for. ', time=1),
    MetaMessage('lyrics', text='\r', time=0),
    Message('note_on', channel=3, note=73, velocity=68, time=0),
    Message('note_on', channel=9, note=70, velocity=42, time=0),
    Message('note_off', channel=9, note=42, velocity=64, time=5),
    Message('note_off', channel=9, note=70, velocity=64, time=1),
    Message('note_off', channel=0, note=68, velocity=64, time=3),
    Message('note_off', channel=7, note=61, velocity=64, time=6),
    Message('note_on', channel=7, note=61, velocity=40, time=8),
    Message('note_on', channel=9, note=70, velocity=43, time=1),
    Message('note_off', channel=9, note=70, velocity=64, time=6),
    Message('note_off', channel=7, note=68, velocity=64, time=3),
    Message('note_off', channel=0, note=63, velocity=64, time=8),
    Message('note_on', channel=9, note=46, velocity=69, time=7),
    Message('note_on', channel=0, note=68, velocity=71, time=0),
    Message('note_on', channel=9, note=70, velocity=71, time=0),
    Message('note_off', channel=9, note=46, velocity=64, time=6),
    Message('note_off', channel=9, note=70, velocity=64, time=0),
    Message('note_off', channel=7, note=63, velocity=64, time=11),
    Message('note_on', channel=7, note=68, velocity=39, time=7),
    Message('note_on', channel=9, note=70, velocity=36, time=0),
    Message('note_off', channel=9, note=70, velocity=64, time=6),
    Message('note_off', channel=0, note=49, velocity=64, time=3),
    Message('note_on', channel=9, note=42, velocity=49, time=15),
    Message('note_on', channel=9, note=70, velocity=43, time=0),
    Message('note_on', channel=0, note=49, velocity=79, time=1),
    Message('note_off', channel=9, note=42, velocity=64, time=5),
    Message('note_off', channel=9, note=70, velocity=64, time=0),
    Message('note_off', channel=7, note=49, velocity=64, time=3),
    Message('note_on', channel=9, note=70, velocity=58, time=15),
    Message('note_on', channel=7, note=49, velocity=47, time=1),
    Message('note_off', channel=9, note=70, velocity=64, time=5),
    Message('note_off', channel=0, note=61, velocity=64, time=8),
    Message('note_on', channel=9, note=42, velocity=88, time=10),
    Message('note_on', channel=9, note=70, velocity=61, time=0),
    Message('note_on', channel=0, note=61, velocity=71, time=2),
    Message('note_off', channel=9, note=42, velocity=64, time=4),
    Message('note_off', channel=9, note=70, velocity=64, time=0),
    Message('note_off', channel=7, note=61, velocity=64, time=8),
    Message('note_on', channel=9, note=70, velocity=34, time=10),
    Message('note_on', channel=7, note=61, velocity=39, time=2),
    Message('note_off', channel=9, note=70, velocity=64, time=4),
    Message('note_off', channel=0, note=68, velocity=64, time=6),
    Message('note_on', channel=9, note=42, velocity=56, time=12),
    Message('note_on', channel=9, note=70, velocity=47, time=0),
    Message('note_on', channel=0, note=68, velocity=74, time=2),
    Message('note_off', channel=9, note=42, velocity=64, time=4),
    Message('note_off', channel=9, note=70, velocity=64, time=0),
    Message('note_off', channel=7, note=68, velocity=64, time=6),
    Message('note_on', channel=9, note=70, velocity=65, time=12),
    Message('note_on', channel=7, note=68, velocity=42, time=2),
    Message('note_off', channel=3, note=73, velocity=64, time=2),
    Message('note_off', channel=9, note=70, velocity=64, time=2),
    Message('note_on', channel=9, note=46, velocity=64, time=17),
    Message('note_off', channel=0, note=49, velocity=64, time=0),
    Message('note_on', channel=9, note=70, velocity=67, time=1),
    Message('note_on', channel=0, note=49, velocity=67, time=2),
    Message('note_off', channel=9, note=46, velocity=64, time=3),
    Message('note_off', channel=9, note=70, velocity=64, time=1),
    MetaMessage('lyrics', text='\n', time=4),
    Message('note_off', channel=7, note=49, velocity=64, time=13),
    Message('note_on', channel=9, note=70, velocity=36, time=1),
    Message('note_on', channel=7, note=49, velocity=35, time=2),
    Message('note_off', channel=9, note=70, velocity=64, time=4),
    Message('note_off', channel=0, note=61, velocity=64, time=6),
    Message('note_on', channel=9, note=42, velocity=66, time=11),
    Message('note_on', channel=0, note=61, velocity=67, time=1),
    Message('note_on', channel=9, note=70, velocity=43, time=0),
    Message('note_off', channel=9, note=42, velocity=64, time=5),
    Message('note_off', channel=9, note=70, velocity=64, time=1),
    Message('note_off', channel=7, note=61, velocity=64, time=6),
    Message('note_on', channel=7, note=61, velocity=35, time=12),
    Message('note_on', channel=9, note=70, velocity=71, time=0),
    Message('note_off', channel=9, note=70, velocity=64, time=6),
    Message('note_on', channel=9, note=42, velocity=92, time=17),
    Message('note_off', channel=0, note=49, velocity=64, time=0),
    Message('note_on', channel=9, note=70, velocity=77, time=1),
    Message('note_on', channel=0, note=49, velocity=84, time=1),
    Message('note_off', channel=9, note=42, velocity=64, time=4),
    Message('note_off', channel=9, note=70, velocity=64, time=1),
    Message('note_off', channel=7, note=49, velocity=64, time=17),
    Message('note_on', channel=9, note=70, velocity=32, time=1),
    Message('note_on', channel=7, note=49, velocity=52, time=1),
    Message('note_off', channel=9, note=70, velocity=64, time=5),
    Message('note_off', channel=0, note=68, velocity=64, time=1),
    Message('note_off', channel=0, note=61, velocity=64, time=9),
    Message('note_on', channel=9, note=42, velocity=50, time=7),
    Message('note_on', channel=9, note=70, velocity=44, time=1),
    Message('note_on', channel=0, note=61, velocity=71, time=1),
    Message('note_off', channel=4, note=65, velocity=64, time=1),
    Message('note_off', channel=4, note=61, velocity=64, time=0),
    Message('note_off', channel=4, note=56, velocity=64, time=0),
    Message('note_off', channel=9, note=42, velocity=64, time=3),
    Message('note_off', channel=9, note=70, velocity=64, time=1),
    Message('note_off', channel=7, note=68, velocity=64, time=1),
    Message('note_off', channel=7, note=61, velocity=64, time=9),
    Message('note_on', channel=9, note=70, velocity=58, time=8),
    Message('note_on', channel=7, note=61, velocity=39, time=1),
    Message('note_off', channel=9, note=70, velocity=64, time=5),
    Message('note_on', channel=9, note=46, velocity=64, time=18),
    Message('note_on', channel=9, note=70, velocity=80, time=0),
    Message('note_on', channel=0, note=68, velocity=70, time=2),
    Message('note_off', channel=9, note=46, velocity=64, time=4),
    Message('note_off', channel=9, note=70, velocity=64, time=0),
    Message('note_on', channel=9, note=70, velocity=38, time=18),
    Message('note_on', channel=7, note=68, velocity=38, time=2),
    Message('note_off', channel=9, note=70, velocity=64, time=4),
    Message('note_off', channel=0, note=49, velocity=64, time=11),
    Message('note_on', channel=9, note=42, velocity=72, time=6),
    Message('note_on', channel=9, note=70, velocity=51, time=1),
    Message('note_on', channel=0, note=49, velocity=78, time=1),
    Message('note_off', channel=9, note=42, velocity=64, time=4),
    Message('note_off', channel=9, note=70, velocity=64, time=1),
    Message('note_off', channel=7, note=49, velocity=64, time=11),
    Message('note_on', channel=9, note=70, velocity=51, time=7),
    Message('note_on', channel=7, note=49, velocity=46, time=1),
    Message('note_off', channel=9, note=70, velocity=64, time=5),
    Message('note_off', channel=0, note=61, velocity=64, time=9),
    Message('note_on', channel=9, note=42, velocity=92, time=8),
    Message('note_on', channel=9, note=70, velocity=80, time=1),
    Message('note_on', channel=0, note=61, velocity=77, time=2),
    Message('note_off', channel=9, note=42, velocity=64, time=3),
    Message('note_off', channel=9, note=70, velocity=64, time=1),
    Message('note_off', channel=7, note=61, velocity=64, time=9),
    Message('note_on', channel=9, note=42, velocity=60, time=8),
    Message('note_on', channel=9, note=70, velocity=43, time=1),
    Message('note_on', channel=7, note=61, velocity=45, time=2),
    Message('note_off', channel=9, note=42, velocity=64, time=3),
    Message('note_off', channel=9, note=70, velocity=64, time=1),
    Message('note_off', channel=0, note=68, velocity=64, time=3),
    Message('note_on', channel=4, note=56, velocity=71, time=14),
    Message('note_on', channel=4, note=61, velocity=69, time=0),
    Message('note_on', channel=9, note=42, velocity=54, time=0),
    Message('note_on', channel=0, note=68, velocity=75, time=0),
    MetaMessage('lyrics', text='But ', time=1),
    Message('note_on', channel=3, note=73, velocity=77, time=0),
    Message('note_on', channel=9, note=70, velocity=43, time=0),
    Message('note_off', channel=9, note=42, velocity=64, time=5),
    Message('note_off', channel=9, note=70, velocity=64, time=1),
    Message('note_off', channel=7, note=68, velocity=64, time=3),
    Message('note_on', channel=7, note=68, velocity=43, time=14),
    Message('note_on', channel=9, note=70, velocity=67, time=1),
    Message('note_off', channel=9, note=70, velocity=64, time=6),
    Message('note_off', channel=3, note=73, velocity=64, time=2),
    Message('note_off', channel=0, note=49, velocity=64, time=12),
    Message('note_off', channel=4, note=61, velocity=64, time=2),
    Message('note_off', channel=4, note=56, velocity=64, time=0),
    MetaMessage('lyrics', text='I ', time=1),
    Message('note_on', channel=3, note=73, velocity=76, time=0),
    Message('note_on', channel=4, note=56, velocity=69, time=0),
    Message('note_on', channel=4, note=61, velocity=73, time=0),
    Message('note_on', channel=9, note=46, velocity=47, time=1),
    Message('note_on', channel=9, note=70, velocity=83, time=0),
    Message('note_on', channel=0, note=49, velocity=76, time=2),
    Message('note_off', channel=9, note=46, velocity=64, time=4),
    Message('note_off', channel=9, note=70, velocity=64, time=0),
    Message('note_off', channel=7, note=49, velocity=64, time=14),
    Message('note_on', channel=9, note=70, velocity=22, time=4),
    Message('note_on', channel=7, note=49, velocity=44, time=2),
    Message('note_off', channel=9, note=70, velocity=64, time=4),
    Message('note_off', channel=3, note=73, velocity=64, time=8),
    Message('note_off', channel=0, note=61, velocity=64, time=4),
    MetaMessage('lyrics', text='still ', time=1),
    Message('note_on', channel=3, note=80, velocity=82, time=0),
    Message('note_off', channel=4, note=61, velocity=64, time=3),
    Message('note_off', channel=4, note=56, velocity=64, time=0),
    Message('note_on', channel=4, note=60, velocity=49, time=0),
    Message('note_on', channel=4, note=56, velocity=69, time=1),
    Message('note_on', channel=4, note=63, velocity=71, time=0),
    Message('note_on', channel=9, note=46, velocity=75, time=1),
    Message('note_on', channel=9, note=70, velocity=58, time=0),
    Message('note_on', channel=0, note=61, velocity=74, time=2),
    Message('note_off', channel=9, note=46, velocity=64, time=4),
    Message('note_off', channel=9, note=70, velocity=64, time=0),
    Message('note_off', channel=7, note=61, velocity=64, time=12),
    Message('note_on', channel=9, note=70, velocity=75, time=6),
    Message('note_on', channel=7, note=61, velocity=42, time=2),
    Message('note_off', channel=9, note=70, velocity=64, time=4),
    Message('note_off', channel=0, note=68, velocity=64, time=5),
    Message('note_off', channel=0, note=49, velocity=64, time=11),
    Message('note_off', channel=0, note=54, velocity=64, time=0),
    Message('note_off', channel=0, note=61, velocity=64, time=0),
    Message('pitchwheel', channel=0, pitch=103, time=1),
    Message('note_on', channel=9, note=42, velocity=84, time=1),
    Message('note_on', channel=9, note=70, velocity=51, time=0),
    Message('note_on', channel=0, note=56, velocity=88, time=1),
    Message('pitchwheel', channel=0, pitch=-175, time=1),
    Message('note_off', channel=9, note=42, velocity=64, time=4),
    Message('note_off', channel=9, note=70, velocity=64, time=0),
    Message('note_off', channel=7, note=68, velocity=64, time=5),
    Message('note_off', channel=7, note=49, velocity=64, time=11),
    Message('note_off', channel=7, note=54, velocity=64, time=0),
    Message('note_off', channel=7, note=61, velocity=64, time=0),
    Message('pitchwheel', channel=7, pitch=103, time=1),
    Message('note_on', channel=9, note=70, velocity=21, time=1),
    Message('note_on', channel=7, note=56, velocity=56, time=1),
    Message('pitchwheel', channel=7, pitch=-175, time=1),
    Message('note_off', channel=9, note=70, velocity=64, time=4),
    Message('pitchwheel', channel=0, pitch=0, time=16),
    Message('note_on', channel=9, note=42, velocity=75, time=2),
    Message('note_on', channel=0, note=63, velocity=89, time=0),
    Message('note_on', channel=9, note=70, velocity=42, time=0),
    Message('note_off', channel=9, note=42, velocity=64, time=6),
    Message('note_off', channel=9, note=70, velocity=64, time=0),
    Message('pitchwheel', channel=7, pitch=0, time=16),
    Message('note_on', channel=7, note=63, velocity=57, time=2),
    Message('note_on', channel=9, note=70, velocity=43, time=0),
    Message('note_off', channel=9, note=70, velocity=64, time=6),
    Message('note_on', channel=9, note=46, velocity=69, time=18),
    Message('note_on', channel=9, note=70, velocity=71, time=0),
    Message('note_on', channel=0, note=68, velocity=70, time=1),
    Message('note_off', channel=9, note=46, velocity=64, time=5),
    Message('note_off', channel=9, note=70, velocity=64, time=0),
    Message('note_on', channel=9, note=70, velocity=36, time=18),
    Message('note_on', channel=7, note=68, velocity=38, time=1),
    Message('note_off', channel=9, note=70, velocity=64, time=5),
    Message('note_off', channel=0, note=56, velocity=64, time=5),
    Message('note_on', channel=0, note=56, velocity=83, time=11),
    Message('note_on', channel=9, note=42, velocity=69, time=2),
    Message('note_on', channel=9, note=70, velocity=43, time=0),
    Message('note_off', channel=3, note=80, velocity=64, time=6),
    Message('note_off', channel=9, note=42, velocity=64, time=0),
    Message('note_off', channel=9, note=70, velocity=64, time=0),
    Message('note_off', channel=7, note=56, velocity=64, time=5),
    Message('note_on', channel=7, note=56, velocity=51, time=11),
    Message('note_on', channel=9, note=70, velocity=58, time=2),
    Message('note_off', channel=9, note=70, velocity=64, time=6),
    Message('note_off', channel=0, note=63, velocity=64, time=6),
    Message('note_on', channel=0, note=63, velocity=93, time=11),
    Message('note_on', channel=9, note=42, velocity=88, time=1),
    Message('note_on', channel=9, note=70, velocity=61, time=0),
    Message('note_off', channel=9, note=42, velocity=64, time=6),
    Message('note_off', channel=9, note=70, velocity=64, time=0),
    Message('note_off', channel=7, note=63, velocity=64, time=6),
    Message('note_on', channel=7, note=63, velocity=61, time=11),
    Message('note_on', channel=9, note=70, velocity=34, time=1),
    Message('note_off', channel=9, note=70, velocity=64, time=6),
    Message('note_off', channel=0, note=68, velocity=64, time=9),
    Message('note_off', channel=4, note=56, velocity=64, time=4),
    Message('note_off', channel=4, note=60, velocity=64, time=0),
    Message('note_off', channel=4, note=63, velocity=64, time=1),
    Message('note_on', channel=4, note=61, velocity=60, time=2),
    Message('note_on', channel=4, note=56, velocity=64, time=0),
    Message('note_on', channel=4, note=66, velocity=55, time=0),
    Message('note_on', channel=0, note=68, velocity=67, time=0),
    MetaMessage('lyrics', text='have', time=1),
    Message('note_on', channel=3, note=78, velocity=88, time=0),
    Message('note_on', channel=9, note=42, velocity=62, time=1),
    Message('note_on', channel=9, note=70, velocity=47, time=0),
    Message('note_off', channel=9, note=42, velocity=64, time=6),
    Message('note_off', channel=9, note=70, velocity=64, time=0),
    Message('note_off', channel=7, note=68, velocity=64, time=9),
    Message('note_on', channel=7, note=68, velocity=35, time=7),
    Message('note_on', channel=9, note=70, velocity=65, time=2),
    Message('note_off', channel=9, note=70, velocity=64, time=6),
    Message('note_off', channel=3, note=78, velocity=64, time=10),
    Message('note_off', channel=0, note=56, velocity=64, time=1),
    Message('note_off', channel=4, note=66, velocity=64, time=4),
    Message('note_off', channel=4, note=56, velocity=64, time=0),
    Message('note_off', channel=4, note=61, velocity=64, time=0),
    Message('note_on', channel=4, note=66, velocity=71, time=1),
    Message('note_on', channel=4, note=61, velocity=71, time=0),
    Message('note_on', channel=4, note=56, velocity=75, time=0),
    MetaMessage('lyrics', text="n't ", time=1),
    Message('note_on', channel=3, note=77, velocity=85, time=0),
    Message('note_on', channel=0, note=56, velocity=82, time=0),
    Message('note_on', channel=9, note=46, velocity=75, time=1),
    Message('note_on', channel=9, note=70, velocity=67, time=0),
    Message('note_off', channel=9, note=46, velocity=64, time=6),
    Message('note_off', channel=9, note=70, velocity=64, time=0),
    Message('note_off', channel=7, note=56, velocity=64, time=11),
    Message('note_on', channel=7, note=56, velocity=50, time=6),
    Message('note_on', channel=9, note=70, velocity=36, time=1),
    Message('note_off', channel=9, note=70, velocity=64, time=6),
    Message('note_off', channel=0, note=68, velocity=64, time=7),
    Message('note_off', channel=3, note=77, velocity=64, time=1),
    Message('note_off', channel=4, note=56, velocity=64, time=8),
    Message('note_off', channel=4, note=61, velocity=64, time=0),
    Message('note_off', channel=4, note=66, velocity=64, time=0),
    Message('note_on', channel=4, note=56, velocity=77, time=1),
    Message('note_on', channel=4, note=65, velocity=78, time=0),
    Message('note_on', channel=4, note=61, velocity=70, time=0),
    MetaMessage('lyrics', text='found ', time=1),
    MetaMessage('lyrics', text='\r', time=0),
    Message('note_on', channel=3, note=73, velocity=70, time=0),
    Message('note_on', channel=9, note=42, velocity=66, time=0),
    Message('note_on', channel=9, note=70, velocity=43, time=0),
    Message('note_on', channel=0, note=68, velocity=64, time=1),
    Message('note_off', channel=9, note=42, velocity=64, time=5),
    Message('note_off', channel=9, note=70, velocity=64, time=0),
    Message('note_off', channel=7, note=68, velocity=64, time=7),
    Message('note_on', channel=9, note=70, velocity=71, time=11),
    Message('note_on', channel=7, note=68, velocity=32, time=1),
    Message('note_off', channel=9, note=70, velocity=64, time=5),
    Message('note_off', channel=0, note=56, velocity=64, time=11),
    Message('note_off', channel=4, note=56, velocity=64, time=6),
    Message('note_on', channel=4, note=58, velocity=72, time=0),
    Message('note_on', channel=9, note=42, velocity=92, time=1),
    Message('note_on', channel=0, note=54, velocity=90, time=0),
    Message('note_on', channel=9, note=70, velocity=77, time=0),
    Message('note_off', channel=9, note=42, velocity=64, time=6),
    Message('note_off', channel=9, note=70, velocity=64, time=0),
    Message('note_off', channel=7, note=56, velocity=64, time=11),
    Message('note_on', channel=7, note=54, velocity=58, time=7),
    Message('note_on', channel=9, note=70, velocity=32, time=0),
    Message('note_off', channel=9, note=70, velocity=64, time=6),
    Message('note_off', channel=0, note=63, velocity=64, time=9),
    Message('note_on', channel=9, note=42, velocity=58, time=8),
    Message('note_on', channel=0, note=63, velocity=79, time=1),
    Message('note_on', channel=9, note=70, velocity=44, time=0),
    Message('note_off', channel=9, note=42, velocity=64, time=5),
    Message('note_off', channel=9, note=70, velocity=64, time=1),
    Message('note_off', channel=7, note=63, velocity=64, time=9),
    Message('note_on', channel=7, note=63, velocity=47, time=9),
    Message('note_on', channel=9, note=70, velocity=58, time=0),
    Message('note_off', channel=0, note=68, velocity=64, time=4),
    Message('note_off', channel=9, note=70, velocity=64, time=2),
    Message('note_on', channel=9, note=46, velocity=64, time=17),
    Message('note_on', channel=0, note=68, velocity=60, time=0),
    Message('note_on', channel=9, note=70, velocity=80, time=1),
    Message('note_off', channel=7, note=68, velocity=64, time=4),
    Message('note_off', channel=9, note=46, velocity=64, time=1),
    Message('note_off', channel=9, note=70, velocity=64, time=1),
    Message('note_on', channel=7, note=68, velocity=28, time=17),
    Message('note_on', channel=9, note=70, velocity=38, time=1),
    Message('note_off', channel=3, note=73, velocity=64, time=3),
    Message('note_off', channel=9, note=70, velocity=64, time=3),
    Message('note_off', channel=0, note=63, velocity=64, time=6),
    Message('note_on', channel=9, note=42, velocity=81, time=11),
    Message('note_on', channel=0, note=63, velocity=71, time=1),
    Message('note_on', channel=9, note=70, velocity=51, time=0),
    Message('note_off', channel=9, note=42, velocity=64, time=5),
    Message('note_off', channel=9, note=70, velocity=64, time=1),
    Message('note_off', channel=7, note=63, velocity=64, time=6),
    Message('note_off', channel=0, note=63, velocity=64, time=11),
    Message('note_on', channel=7, note=63, velocity=39, time=1),
    Message('note_on', channel=9, note=70, velocity=51, time=0),
    Message('note_on', channel=0, note=63, velocity=76, time=1),
    Message('note_off', channel=9, note=70, velocity=64, time=5),
    Message('note_off', channel=0, note=63, velocity=64, time=16),
    Message('note_on', channel=9, note=42, velocity=88, time=1),
    Message('note_off', channel=7, note=63, velocity=64, time=0),
    Message('note_on', channel=9, note=70, velocity=80, time=1),
    Message('note_on', channel=7, note=63, velocity=44, time=1),
    Message('note_on', channel=0, note=63, velocity=72, time=2),
    Message('note_off', channel=9, note=42, velocity=64, time=2),
    Message('note_off', channel=9, note=70, velocity=64, time=1),
    Message('note_off', channel=4, note=65, velocity=64, time=7),
    Message('note_off', channel=4, note=58, velocity=64, time=1),
    Message('note_off', channel=4, note=61, velocity=64, time=1),
    Message('note_off', channel=7, note=63, velocity=64, time=7),
    Message('note_on', channel=9, note=42, velocity=62, time=2),
    Message('note_on', channel=9, note=70, velocity=43, time=0),
    Message('note_on', channel=7, note=63, velocity=40, time=3),
    Message('note_off', channel=9, note=42, velocity=64, time=3),
    Message('note_off', channel=9, note=70, velocity=64, time=0),
    Message('note_off', channel=0, note=68, velocity=64, time=15),
    Message('note_on', channel=4, note=66, velocity=59, time=1),
    MetaMessage('lyrics', text='what ', time=1),
    Message('note_on', channel=3, note=70, velocity=67, time=0),
    Message('note_on', channel=4, note=61, velocity=67, time=0),
    Message('note_on', channel=4, note=58, velocity=74, time=0),
    Message('note_on', channel=9, note=42, velocity=46, time=0),
    Message('note_on', channel=9, note=70, velocity=43, time=1),
    Message('note_on', channel=0, note=68, velocity=77, time=2),
    Message('note_off', channel=9, note=42, velocity=64, time=3),
    Message('note_off', channel=9, note=70, velocity=64, time=1),
    Message('note_off', channel=7, note=68, velocity=64, time=15),
    Message('note_on', channel=9, note=70, velocity=67, time=3),
    Message('note_on', channel=7, note=68, velocity=45, time=2),
    Message('note_off', channel=3, note=70, velocity=64, time=2),
    Message('note_off', channel=9, note=70, velocity=64, time=2),
    Message('note_off', channel=0, note=54, velocity=64, time=14),
    MetaMessage('lyrics', text="I'm ", time=3),
    Message('note_on', channel=3, note=70, velocity=82, time=0),
    Message('note_on', channel=9, note=46, velocity=69, time=0),
    Message('note_off', channel=4, note=58, velocity=64, time=1),
    Message('note_off', channel=4, note=61, velocity=64, time=0),
    Message('note_off', channel=4, note=66, velocity=64, time=0),
    Message('note_on', channel=9, note=70, velocity=83, time=0),
    Message('note_on', channel=4, note=58, velocity=76, time=1),
    Message('note_on', channel=4, note=61, velocity=78, time=0),
    Message('note_on', channel=4, note=66, velocity=76, time=0),
    Message('note_on', channel=0, note=54, velocity=86, time=1),
    Message('note_off', channel=9, note=46, velocity=64, time=3),
    Message('note_off', channel=9, note=70, velocity=64, time=1),
    Message('note_off', channel=7, note=54, velocity=64, time=14),
    Message('note_on', channel=9, note=70, velocity=22, time=4),
    Message('note_on', channel=7, note=54, velocity=54, time=2),
    Message('note_off', channel=9, note=70, velocity=64, time=4),
    Message('note_off', channel=3, note=70, velocity=64, time=1),
    Message('note_off', channel=4, note=66, velocity=64, time=14),
    Message('note_off', channel=4, note=61, velocity=64, time=0),
    Message('note_off', channel=4, note=58, velocity=64, time=0),
    MetaMessage('lyrics', text='look', time=2),
    Message('note_on', channel=3, note=70, velocity=93, time=0),
    Message('note_on', channel=4, note=66, velocity=81, time=0),
    Message('note_on', channel=4, note=61, velocity=78, time=0),
    Message('note_on', channel=4, note=58, velocity=78, time=0),
    Message('note_on', channel=0, note=61, velocity=74, time=0),
    Message('note_on', channel=9, note=46, velocity=62, time=1),
    Message('note_on', channel=9, note=70, velocity=58, time=0),
    Message('note_off', channel=9, note=46, velocity=64, time=6),
    Message('note_off', channel=9, note=70, velocity=64, time=0),
    Message('note_on', channel=7, note=61, velocity=42, time=17),
    Message('note_on', channel=9, note=70, velocity=75, time=1),
    Message('note_off', channel=9, note=70, velocity=64, time=6),
    Message('note_off', channel=3, note=70, velocity=64, time=7),
    Message('note_off', channel=4, note=58, velocity=64, time=10),
    Message('note_off', channel=4, note=66, velocity=64, time=0),
    Message('note_on', channel=4, note=65, velocity=71, time=0),
    Message('note_on', channel=4, note=56, velocity=67, time=0),
    Message('note_on', channel=9, note=42, velocity=84, time=1),
    Message('note_on', channel=9, note=70, velocity=51, time=0),
    MetaMessage('lyrics', text='ing ', time=2),
    Message('note_on', channel=3, note=73, velocity=75, time=0),
    Message('note_on', channel=0, note=49, velocity=86, time=1),
    Message('note_off', channel=9, note=42, velocity=64, time=3),
    Message('note_off', channel=9, note=70, velocity=64, time=0),
    Message('note_on', channel=9, note=70, velocity=21, time=18),
    Message('note_on', channel=7, note=49, velocity=54, time=3),
    Message('note_off', channel=9, note=70, velocity=64, time=3),
    Message('note_off', channel=3, note=73, velocity=64, time=1),
    Message('note_off', channel=0, note=61, velocity=64, time=8),
    Message('note_off', channel=4, note=56, velocity=64, time=7),
    Message('note_off', channel=4, note=65, velocity=64, time=0),
    Message('note_off', channel=4, note=61, velocity=64, time=0),
    Message('note_on', channel=4, note=65, velocity=72, time=1),
    Message('note_on', channel=9, note=42, velocity=81, time=0),
    Message('note_on', channel=0, note=61, velocity=72, time=0),
    Message('note_on', channel=4, note=56, velocity=64, time=1),
    Message('note_on', channel=4, note=61, velocity=52, time=0),
    Message('note_on', channel=9, note=70, velocity=42, time=0),
    MetaMessage('lyrics', text='for. ', time=3),
    MetaMessage('lyrics', text='\r', time=0),
    Message('note_on', channel=3, note=73, velocity=68, time=0),
    Message('note_off', channel=9, note=42, velocity=64, time=2),
    Message('note_off', channel=9, note=70, velocity=64, time=1),
    Message('note_off', channel=0, note=68, velocity=64, time=3),
    Message('note_off', channel=7, note=61, velocity=64, time=6),
    Message('note_on', channel=7, note=61, velocity=40, time=8),
    Message('note_on', channel=9, note=70, velocity=43, time=1),
    Message('note_off', channel=9, note=70, velocity=64, time=6),
    Message('note_off', channel=7, note=68, velocity=64, time=3),
    Message('note_off', channel=0, note=63, velocity=64, time=8),
    Message('note_on', channel=9, note=46, velocity=78, time=7),
    Message('note_on', channel=0, note=68, velocity=71, time=0),
    Message('note_on', channel=9, note=70, velocity=71, time=0),
    Message('note_off', channel=9, note=46, velocity=64, time=6),
    Message('note_off', channel=9, note=70, velocity=64, time=0),
    Message('note_off', channel=7, note=63, velocity=64, time=11),
    Message('note_on', channel=7, note=68, velocity=39, time=7),
    Message('note_on', channel=9, note=70, velocity=36, time=0),
    Message('note_off', channel=9, note=70, velocity=64, time=6),
    Message('note_off', channel=0, note=49, velocity=64, time=3),
    Message('note_on', channel=9, note=42, velocity=81, time=14),
    Message('note_on', channel=9, note=70, velocity=43, time=1),
    Message('note_on', channel=0, note=49, velocity=79, time=1),
    Message('note_off', channel=9, note=42, velocity=64, time=4),
    Message('note_off', channel=9, note=70, velocity=64, time=1),
    Message('note_off', channel=7, note=49, velocity=64, time=3),
    Message('note_on', channel=9, note=70, velocity=58, time=15),
    Message('note_on', channel=7, note=49, velocity=47, time=1),
    Message('note_off', channel=9, note=70, velocity=64, time=5),
    Message('note_off', channel=0, note=61, velocity=64, time=8),
    Message('note_on', channel=9, note=42, velocity=88, time=10),
    Message('note_on', channel=9, note=70, velocity=61, time=0),
    Message('note_on', channel=0, note=61, velocity=71, time=2),
    Message('note_off', channel=9, note=42, velocity=64, time=4),
    Message('note_off', channel=9, note=70, velocity=64, time=0),
    Message('note_off', channel=7, note=61, velocity=64, time=8),
    Message('note_on', channel=9, note=42, velocity=60, time=10),
    Message('note_on', channel=9, note=70, velocity=34, time=0),
    Message('note_on', channel=7, note=61, velocity=39, time=2),
    Message('note_off', channel=9, note=42, velocity=64, time=4),
    Message('note_off', channel=9, note=70, velocity=64, time=0),
    Message('note_off', channel=0, note=68, velocity=64, time=6),
    Message('note_on', channel=9, note=42, velocity=62, time=11),
    Message('note_on', channel=9, note=70, velocity=47, time=1),
    Message('note_on', channel=0, note=68, velocity=74, time=2),
    Message('note_off', channel=9, note=42, velocity=64, time=3),
    Message('note_off', channel=9, note=70, velocity=64, time=1),
    Message('note_off', channel=7, note=68, velocity=64, time=6),
    Message('note_off', channel=3, note=73, velocity=64, time=4),
    Message('note_on', channel=9, note=70, velocity=65, time=8),
    Message('note_on', channel=7, note=68, velocity=42, time=2),
    Message('note_off', channel=9, note=70, velocity=64, time=4),
    Message('note_on', channel=9, note=46, velocity=75, time=17),
    Message('note_off', channel=0, note=49, velocity=64, time=0),
    Message('note_on', channel=9, note=70, velocity=67, time=1),
    Message('note_on', channel=0, note=49, velocity=67, time=2),
    Message('note_off', channel=9, note=46, velocity=64, time=3),
    Message('note_off', channel=9, note=70, velocity=64, time=1),
    MetaMessage('lyrics', text='\n', time=7),
    Message('note_off', channel=7, note=49, velocity=64, time=10),
    Message('note_on', channel=9, note=70, velocity=36, time=1),
    Message('note_on', channel=7, note=49, velocity=35, time=2),
    Message('note_off', channel=9, note=70, velocity=64, time=4),
    Message('note_off', channel=0, note=61, velocity=64, time=6),
    Message('note_on', channel=9, note=42, velocity=88, time=12),
    Message('note_on', channel=0, note=61, velocity=67, time=0),
    Message('note_on', channel=9, note=70, velocity=43, time=0),
    Message('note_off', channel=9, note=42, velocity=64, time=6),
    Message('note_off', channel=9, note=70, velocity=64, time=0),
    Message('note_off', channel=7, note=61, velocity=64, time=6),
    Message('note_on', channel=7, note=61, velocity=35, time=12),
    Message('note_on', channel=9, note=70, velocity=71, time=0),
    Message('note_off', channel=9, note=70, velocity=64, time=6),
    Message('note_on', channel=9, note=42, velocity=92, time=17),
    Message('note_off', channel=0, note=49, velocity=64, time=0),
    Message('note_on', channel=9, note=70, velocity=77, time=1),
    Message('note_on', channel=0, note=49, velocity=84, time=1),
    Message('note_off', channel=9, note=42, velocity=64, time=4),
    Message('note_off', channel=9, note=70, velocity=64, time=1),
    Message('note_off', channel=7, note=49, velocity=64, time=17),
    Message('note_on', channel=9, note=42, velocity=56, time=1),
    Message('note_on', channel=9, note=70, velocity=32, time=0),
    Message('note_on', channel=7, note=49, velocity=52, time=1),
    Message('note_off', channel=9, note=42, velocity=64, time=5),
    Message('note_off', channel=9, note=70, velocity=64, time=0),
    Message('note_off', channel=0, note=68, velocity=64, time=1),
    Message('note_off', channel=0, note=61, velocity=64, time=9),
    Message('note_on', channel=9, note=42, velocity=62, time=7),
    Message('note_off', channel=4, note=61, velocity=64, time=1),
    Message('note_on', channel=9, note=70, velocity=44, time=0),
    Message('note_off', channel=4, note=56, velocity=64, time=1),
    Message('note_off', channel=4, note=65, velocity=64, time=0),
    Message('note_on', channel=0, note=61, velocity=71, time=0),
    Message('note_off', channel=9, note=42, velocity=64, time=4),
    Message('note_off', channel=9, note=70, velocity=64, time=1),
    Message('note_off', channel=7, note=68, velocity=64, time=1),
    Message('note_off', channel=7, note=61, velocity=64, time=9),
    Message('note_on', channel=9, note=70, velocity=58, time=8),
    Message('note_on', channel=7, note=61, velocity=39, time=1),
    Message('note_off', channel=9, note=70, velocity=64, time=5),
    Message('note_on', channel=9, note=46, velocity=75, time=17),
    Message('note_on', channel=9, note=70, velocity=80, time=1),
    Message('note_on', channel=0, note=68, velocity=70, time=2),
    Message('note_off', channel=9, note=46, velocity=64, time=3),
    Message('note_off', channel=9, note=70, velocity=64, time=1),
    Message('note_on', channel=9, note=70, velocity=38, time=18),
    Message('note_on', channel=7, note=68, velocity=38, time=2),
    Message('note_off', channel=9, note=70, velocity=64, time=4),
    Message('note_off', channel=0, note=49, velocity=64, time=11),
    Message('note_on', channel=9, note=46, velocity=84, time=7),
    Message('note_on', channel=9, note=70, velocity=51, time=0),
    Message('note_on', channel=0, note=49, velocity=78, time=1),
    Message('note_off', channel=9, note=46, velocity=64, time=5),
    Message('note_off', channel=9, note=70, velocity=64, time=0),
    Message('note_off', channel=7, note=49, velocity=64, time=11),
    Message('note_on', channel=9, note=70, velocity=51, time=7),
    Message('note_on', channel=7, note=49, velocity=46, time=1),
    Message('note_off', channel=9, note=70, velocity=64, time=5),
    Message('note_off', channel=0, note=61, velocity=64, time=9),
    Message('note_on', channel=9, note=42, velocity=69, time=9),
    Message('note_on', channel=9, note=70, velocity=80, time=0),
    Message('note_on', channel=0, note=61, velocity=77, time=2),
    Message('note_off', channel=9, note=42, velocity=64, time=4),
    Message('note_off', channel=9, note=70, velocity=64, time=0),
    Message('note_off', channel=7, note=61, velocity=64, time=9),
    Message('note_on', channel=9, note=70, velocity=43, time=9),
    Message('note_on', channel=7, note=61, velocity=45, time=2),
    Message('note_off', channel=9, note=70, velocity=64, time=4),
    Message('note_off', channel=0, note=68, velocity=64, time=3),
    Message('note_on', channel=9, note=46, velocity=60, time=14),
    Message('note_on', channel=0, note=68, velocity=75, time=0),
    Message('note_on', channel=9, note=70, velocity=43, time=1),
    MetaMessage('lyrics', text='I ', time=3),
    Message('note_on', channel=3, note=77, velocity=85, time=0),
    Message('note_off', channel=9, note=46, velocity=64, time=2),
    Message('note_off', channel=9, note=70, velocity=64, time=1),
    Message('note_off', channel=7, note=68, velocity=64, time=3),
    Message('note_on', channel=7, note=68, velocity=43, time=14),
    Message('note_on', channel=9, note=70, velocity=67, time=1),
    Message('note_off', channel=9, note=70, velocity=64, time=6),
    Message('note_off', channel=0, note=49, velocity=64, time=14),
    Message('note_on', channel=9, note=70, velocity=83, time=4),
    Message('note_on', channel=0, note=49, velocity=76, time=2),
    Message('note_off', channel=9, note=70, velocity=64, time=4),
    Message('note_off', channel=3, note=77, velocity=64, time=6),
    Message('note_off', channel=7, note=49, velocity=64, time=8),
    MetaMessage('lyrics', text='have ', time=3),
    Message('note_on', channel=3, note=80, velocity=93, time=0),
    Message('note_on', channel=9, note=70, velocity=22, time=1),
    Message('note_on', channel=7, note=49, velocity=44, time=2),
    Message('note_off', channel=9, note=70, velocity=64, time=4),
    Message('note_off', channel=0, note=61, velocity=64, time=12),
    Message('note_on', channel=9, note=46, velocity=88, time=5),
    Message('note_on', channel=9, note=70, velocity=58, time=1),
    Message('note_on', channel=0, note=61, velocity=74, time=2),
    Message('note_off', channel=9, note=46, velocity=64, time=3),
    Message('note_off', channel=9, note=70, velocity=64, time=1),
    Message('note_off', channel=7, note=61, velocity=64, time=12),
    Message('note_on', channel=9, note=70, velocity=75, time=6),
    Message('note_on', channel=7, note=61, velocity=42, time=2),
    Message('note_off', channel=3, note=80, velocity=64, time=2),
    Message('note_off', channel=9, note=70, velocity=64, time=2),
    Message('note_off', channel=0, note=68, velocity=64, time=5),
    MetaMessage('lyrics', text='kissed ', time=9),
    Message('note_on', channel=3, note=80, velocity=81, time=0),
    Message('note_off', channel=0, note=49, velocity=64, time=2),
    Message('note_off', channel=0, note=54, velocity=64, time=0),
    Message('note_off', channel=0, note=61, velocity=64, time=0),
    Message('pitchwheel', channel=0, pitch=103, time=1),
    Message('note_on', channel=9, note=42, velocity=84, time=1),
    Message('note_on', channel=0, note=49, velocity=82, time=0),
    Message('note_on', channel=9, note=70, velocity=51, time=0),
    Message('note_off', channel=9, note=42, velocity=64, time=6),
    Message('note_off', channel=9, note=70, velocity=64, time=0),
    Message('note_off', channel=7, note=68, velocity=64, time=5),
    Message('note_off', channel=7, note=49, velocity=64, time=11),
    Message('note_off', channel=7, note=54, velocity=64, time=0),
    Message('note_off', channel=7, note=61, velocity=64, time=0),
    Message('pitchwheel', channel=7, pitch=103, time=1),
    Message('note_on', channel=7, note=49, velocity=50, time=1),
    Message('note_on', channel=9, note=70, velocity=21, time=0),
    Message('note_off', channel=9, note=70, velocity=64, time=6),
    Message('note_on', channel=9, note=42, velocity=64, time=17),
    Message('note_on', channel=9, note=70, velocity=42, time=1),
    Message('note_on', channel=0, note=61, velocity=64, time=3),
    Message('note_off', channel=3, note=80, velocity=64, time=2),
    Message('note_off', channel=9, note=42, velocity=64, time=0),
    Message('note_off', channel=9, note=70, velocity=64, time=1),
    Message('note_on', channel=3, note=77, velocity=70, time=9),
    Message('note_on', channel=9, note=70, velocity=43, time=9),
    Message('note_on', channel=7, note=61, velocity=32, time=3),
    Message('note_off', channel=9, note=70, velocity=64, time=3),
    Message('note_on', channel=9, note=46, velocity=81, time=17),
    Message('note_on', channel=9, note=70, velocity=71, time=1),
    Message('note_on', channel=0, note=68, velocity=67, time=3),
    Message('note_off', channel=9, note=46, velocity=64, time=2),
    Message('note_off', channel=9, note=70, velocity=64, time=1),
    Message('note_off', channel=3, note=77, velocity=64, time=18),
    Message('note_on', channel=9, note=70, velocity=36, time=0),
    Message('note_on', channel=7, note=68, velocity=35, time=3),
    Message('note_off', channel=9, note=70, velocity=64, time=3),
    Message('note_on', channel=9, note=42, velocity=69, time=17),
    Message('note_on', channel=9, note=70, velocity=43, time=1),
    Message('note_off', channel=9, note=42, velocity=64, time=5),
    Message('note_off', channel=9, note=70, velocity=64, time=1),
    Message('note_on', channel=9, note=70, velocity=58, time=18),
    Message('note_off', channel=9, note=70, velocity=64, time=6),
    Message('note_off', channel=0, note=61, velocity=64, time=8),
    Message('note_on', channel=9, note=42, velocity=78, time=9),
    Message('note_on', channel=9, note=70, velocity=61, time=1),
    Message('note_on', channel=0, note=61, velocity=67, time=3),
    Message('note_off', channel=9, note=42, velocity=64, time=2),
    Message('note_off', channel=9, note=70, velocity=64, time=1),
    Message('note_off', channel=7, note=61, velocity=64, time=8),
    Message('note_on', channel=9, note=70, velocity=34, time=10),
    Message('note_on', channel=7, note=61, velocity=35, time=3),
    Message('note_off', channel=9, note=70, velocity=64, time=3),
    Message('note_off', channel=0, note=68, velocity=64, time=7),
    MetaMessage('lyrics', text='hon', time=10),
    Message('note_on', channel=3, note=82, velocity=81, time=0),
    Message('note_on', channel=9, note=42, velocity=64, time=0),
    Message('note_on', channel=9, note=70, velocity=47, time=1),
    Message('note_on', channel=0, note=68, velocity=70, time=2),
    Message('note_off', channel=9, note=42, velocity=64, time=3),
    Message('note_off', channel=9, note=70, velocity=64, time=1),
    Message('note_off', channel=7, note=68, velocity=64, time=7),
    Message('note_on', channel=9, note=70, velocity=65, time=11),
    Message('note_on', channel=7, note=68, velocity=38, time=2),
    Message('note_off', channel=9, note=70, velocity=64, time=4),
    Message('note_on', channel=9, note=46, velocity=78, time=18),
    Message('note_on', channel=9, note=70, velocity=67, time=0),
    Message('note_off', channel=9, note=46, velocity=64, time=6),
    Message('note_off', channel=9, note=70, velocity=64, time=0),
    Message('note_off', channel=3, note=82, velocity=64, time=10),
    Message('note_on', channel=9, note=70, velocity=36, time=8),
    MetaMessage('lyrics', text='ey ', time=1),
    Message('note_on', channel=3, note=80, velocity=87, time=0),
    Message('note_off', channel=9, note=70, velocity=64, time=5),
    Message('note_off', channel=0, note=49, velocity=64, time=9),
    Message('note_on', channel=9, note=42, velocity=49, time=8),
    Message('note_on', channel=9, note=70, velocity=43, time=1),
    Message('note_on', channel=0, note=49, velocity=56, time=2),
    Message('note_off', channel=9, note=42, velocity=64, time=3),
    Message('note_off', channel=9, note=70, velocity=64, time=1),
    Message('note_off', channel=7, note=49, velocity=64, time=9),
    Message('note_on', channel=9, note=70, velocity=71, time=9),
    Message('note_on', channel=7, note=49, velocity=24, time=2),
    Message('note_off', channel=3, note=80, velocity=64, time=4),
    Message('note_off', channel=9, note=70, velocity=64, time=0),
    Message('note_off', channel=0, note=49, velocity=64, time=13),
    MetaMessage('lyrics', text='lips, ', time=3),
    MetaMessage('lyrics', text='\r', time=0),
    Message('note_on', channel=3, note=80, velocity=85, time=0),
    Message('note_on', channel=0, note=49, velocity=75, time=1),
    Message('note_on', channel=9, note=42, velocity=84, time=1),
    Message('note_on', channel=9, note=70, velocity=77, time=0),
    Message('note_off', channel=9, note=42, velocity=64, time=6),
    Message('note_off', channel=9, note=70, velocity=64, time=0),
    Message('note_off', channel=7, note=49, velocity=64, time=13),
    Message('note_on', channel=7, note=49, velocity=43, time=4),
    Message('note_on', channel=9, note=70, velocity=32, time=1),
    Message('note_off', channel=9, note=70, velocity=64, time=6),
    Message('note_off', channel=0, note=61, velocity=64, time=3),
    Message('note_on', channel=9, note=42, velocity=50, time=14),
    Message('note_on', channel=9, note=70, velocity=44, time=1),
    Message('note_on', channel=0, note=61, velocity=75, time=1),
    Message('note_off', channel=9, note=42, velocity=64, time=4),
    Message('note_off', channel=9, note=70, velocity=64, time=1),
    Message('note_off', channel=0, note=68, velocity=64, time=3),
    Message('note_off', channel=7, note=61, velocity=64, time=0),
    Message('note_on', channel=3, note=77, velocity=62, time=15),
    Message('note_on', channel=9, note=70, velocity=58, time=0),
    Message('note_on', channel=7, note=61, velocity=43, time=1),
    Message('note_off', channel=9, note=70, velocity=64, time=5),
    Message('note_off', channel=7, note=68, velocity=64, time=3),
    Message('note_off', channel=3, note=80, velocity=64, time=1),
    Message('note_on', channel=0, note=68, velocity=74, time=13),
    Message('note_on', channel=9, note=46, velocity=78, time=1),
    Message('note_on', channel=9, note=70, velocity=80, time=0),
    Message('note_off', channel=9, note=46, velocity=64, time=6),
    Message('note_off', channel=9, note=70, velocity=64, time=0),
    Message('note_off', channel=3, note=77, velocity=64, time=11),
    Message('note_on', channel=7, note=68, velocity=42, time=6),
    Message('note_on', channel=9, note=70, velocity=38, time=1),
    Message('note_off', channel=9, note=70, velocity=64, time=6),
    Message('note_off', channel=0, note=61, velocity=64, time=7),
    Message('note_on', channel=9, note=42, velocity=56, time=11),
    Message('note_on', channel=0, note=61, velocity=72, time=0),
    Message('note_on', channel=9, note=70, velocity=51, time=0),
    Message('note_off', channel=9, note=42, velocity=64, time=6),
    Message('note_off', channel=9, note=70, velocity=64, time=0),
    Message('note_off', channel=7, note=61, velocity=64, time=7),
    Message('note_on', channel=7, note=61, velocity=40, time=11),
    Message('note_on', channel=9, note=70, velocity=51, time=0),
    Message('note_off', channel=9, note=70, velocity=64, time=6),
    Message('note_off', channel=0, note=68, velocity=64, time=12),
    Message('note_on', channel=9, note=42, velocity=81, time=6),
    Message('note_on', channel=9, note=70, velocity=80, time=0),
    Message('note_on', channel=0, note=72, velocity=77, time=2),
    Message('note_off', channel=9, note=42, velocity=64, time=4),
    Message('note_off', channel=9, note=70, velocity=64, time=0),
    Message('note_off', channel=7, note=68, velocity=64, time=12),
    Message('note_on', channel=9, note=70, velocity=43, time=6),
    Message('note_on', channel=7, note=72, velocity=45, time=2),
    Message('note_off', channel=9, note=70, velocity=64, time=4),
    Message('note_off', channel=0, note=72, velocity=64, time=11),
    MetaMessage('lyrics', text='felt ', time=7),
    Message('note_on', channel=3, note=77, velocity=87, time=0),
    Message('note_on', channel=9, note=42, velocity=52, time=0),
    Message('note_on', channel=9, note=70, velocity=43, time=0),
    Message('note_on', channel=0, note=68, velocity=72, time=1),
    Message('note_off', channel=9, note=42, velocity=64, time=5),
    Message('note_off', channel=9, note=70, velocity=64, time=0),
    Message('note_off', channel=7, note=72, velocity=64, time=11),
    Message('note_on', channel=9, note=70, velocity=67, time=7),
    Message('note_on', channel=7, note=68, velocity=40, time=1),
    Message('note_off', channel=9, note=70, velocity=64, time=5),
    Message('note_off', channel=0, note=61, velocity=64, time=11),
    Message('note_on', channel=9, note=46, velocity=44, time=6),
    Message('note_on', channel=9, note=70, velocity=83, time=1),
    Message('note_on', channel=0, note=61, velocity=69, time=1),
    Message('note_off', channel=9, note=46, velocity=64, time=4),
    Message('note_off', channel=9, note=70, velocity=64, time=1),
    Message('note_off', channel=3, note=77, velocity=64, time=2),
    Message('note_off', channel=7, note=61, velocity=64, time=9),
    MetaMessage('lyrics', text='the ', time=2),
    Message('note_on', channel=3, note=80, velocity=91, time=0),
    Message('note_on', channel=9, note=70, velocity=22, time=5),
    Message('note_on', channel=7, note=61, velocity=37, time=1),
    Message('note_off', channel=9, note=70, velocity=64, time=5),
    Message('note_off', channel=0, note=61, velocity=64, time=12),
    Message('note_on', channel=9, note=46, velocity=56, time=5),
    Message('note_on', channel=9, note=70, velocity=58, time=1),
    Message('note_on', channel=0, note=61, velocity=71, time=2),
    Message('note_off', channel=9, note=46, velocity=64, time=3),
    Message('note_off', channel=9, note=70, velocity=64, time=1),
    Message('note_off', channel=7, note=61, velocity=64, time=12),
    Message('note_off', channel=3, note=80, velocity=64, time=4),
    Message('note_on', channel=9, note=70, velocity=75, time=2),
    Message('note_on', channel=7, note=61, velocity=39, time=2),
    Message('note_off', channel=9, note=70, velocity=64, time=4),
    MetaMessage('lyrics', text='heal', time=8),
    Message('note_on', channel=3, note=80, velocity=79, time=0),
    Message('note_on', channel=9, note=42, velocity=81, time=10),
    Message('note_on', channel=9, note=70, velocity=51, time=0),
    Message('note_off', channel=0, note=49, velocity=64, time=1),
    Message('note_on', channel=0, note=49, velocity=79, time=1),
    Message('note_off', channel=9, note=42, velocity=64, time=4),
    Message('note_off', channel=9, note=70, velocity=64, time=0),
    Message('note_on', channel=9, note=70, velocity=21, time=18),
    Message('note_off', channel=7, note=49, velocity=64, time=1),
    Message('note_on', channel=7, note=49, velocity=47, time=1),
    Message('note_off', channel=9, note=70, velocity=64, time=4),
    Message('note_off', channel=0, note=61, velocity=64, time=6),
    Message('note_off', channel=3, note=80, velocity=64, time=11),
    Message('note_on', channel=9, note=42, velocity=66, time=0),
    Message('note_on', channel=9, note=70, velocity=42, time=1),
    Message('note_on', channel=0, note=61, velocity=71, time=2),
    Message('note_off', channel=9, note=42, velocity=64, time=3),
    Message('note_off', channel=9, note=70, velocity=64, time=1),
    MetaMessage('lyrics', text='ing ', time=6),
    Message('note_on', channel=3, note=77, velocity=78, time=0),
    Message('note_off', channel=7, note=61, velocity=64, time=0),
    Message('note_off', channel=0, note=68, velocity=64, time=5),
    Message('note_on', channel=9, note=70, velocity=43, time=7),
    Message('note_on', channel=7, note=61, velocity=39, time=2),
    Message('note_off', channel=9, note=70, velocity=64, time=4),
    Message('note_off', channel=7, note=68, velocity=64, time=11),
    Message('note_on', channel=9, note=46, velocity=78, time=7),
    Message('note_on', channel=0, note=68, velocity=77, time=0),
    Message('note_on', channel=9, note=70, velocity=71, time=0),
    Message('note_off', channel=9, note=46, velocity=64, time=6),
    Message('note_off', channel=9, note=70, velocity=64, time=0),
    Message('note_off', channel=3, note=77, velocity=64, time=15),
    Message('note_on', channel=7, note=68, velocity=45, time=3),
    Message('note_on', channel=9, note=70, velocity=36, time=0),
    Message('note_off', channel=9, note=70, velocity=64, time=6),
    MetaMessage('lyrics', text='in ', time=5),
    Message('note_on', channel=3, note=75, velocity=46, time=0),
    Message('note_on', channel=9, note=42, velocity=75, time=12),
    Message('note_on', channel=9, note=70, velocity=43, time=1),
    Message('note_off', channel=9, note=42, velocity=64, time=5),
    Message('note_off', channel=9, note=70, velocity=64, time=1),
    MetaMessage('lyrics', text='her ', time=2),
    Message('note_on', channel=3, note=73, velocity=56, time=0),
    Message('note_off', channel=3, note=75, velocity=64, time=2),
    Message('note_on', channel=9, note=70, velocity=58, time=14),
    Message('note_off', channel=9, note=70, velocity=64, time=6),
    Message('note_off', channel=0, note=61, velocity=64, time=3),
    Message('note_off', channel=3, note=73, velocity=64, time=1),
    Message('note_on', channel=9, note=42, velocity=75, time=14),
    Message('note_on', channel=9, note=70, velocity=61, time=0),
    Message('note_on', channel=0, note=61, velocity=74, time=2),
    Message('note_off', channel=9, note=42, velocity=64, time=4),
    Message('note_off', channel=9, note=70, velocity=64, time=0),
    Message('note_off', channel=7, note=61, velocity=64, time=3),
    Message('note_on', channel=9, note=70, velocity=34, time=15),
    Message('note_on', channel=7, note=61, velocity=42, time=2),
    Message('note_off', channel=9, note=70, velocity=64, time=4),
    Message('note_off', channel=0, note=68, velocity=64, time=1),
    Message('note_on', channel=9, note=42, velocity=72, time=17),
    Message('note_on', channel=9, note=70, velocity=47, time=0),
    Message('note_on', channel=0, note=68, velocity=76, time=1),
    Message('note_off', channel=9, note=42, velocity=64, time=5),
    Message('note_off', channel=9, note=70, velocity=64, time=0),
    Message('note_off', channel=7, note=68, velocity=64, time=1),
    MetaMessage('lyrics', text='fin', time=1),
    Message('note_on', channel=3, note=82, velocity=95, time=0),
    Message('note_on', channel=9, note=70, velocity=65, time=16),
    Message('note_on', channel=7, note=68, velocity=44, time=1),
    Message('note_off', channel=9, note=70, velocity=64, time=5),
    Message('note_on', channel=9, note=46, velocity=64, time=18),
    Message('note_on', channel=9, note=70, velocity=67, time=0),
    Message('note_off', channel=9, note=46, velocity=64, time=6),
    Message('note_off', channel=9, note=70, velocity=64, time=0),
    Message('note_off', channel=3, note=82, velocity=64, time=9),
    Message('note_off', channel=0, note=49, velocity=64, time=8),
    Message('note_on', channel=9, note=70, velocity=36, time=1),
    MetaMessage('lyrics', text='ger', time=1),
    Message('note_on', channel=3, note=80, velocity=91, time=0),
    Message('note_off', channel=9, note=70, velocity=64, time=5),
    Message('note_off', channel=7, note=49, velocity=64, time=17),
    Message('note_on', channel=9, note=42, velocity=75, time=1),
    Message('note_on', channel=9, note=70, velocity=43, time=0),
    Message('note_on', channel=0, note=49, velocity=74, time=1),
    Message('note_off', channel=9, note=42, velocity=64, time=5),
    Message('note_off', channel=9, note=70, velocity=64, time=0),
    Message('note_on', channel=9, note=70, velocity=71, time=18),
    Message('note_on', channel=7, note=49, velocity=42, time=1),
    Message('note_off', channel=9, note=70, velocity=64, time=5),
    Message('note_off', channel=3, note=80, velocity=64, time=3),
    Message('note_off', channel=0, note=49, velocity=64, time=12),
    MetaMessage('lyrics', text='tips; ', time=2),
    MetaMessage('lyrics', text='\r', time=0),
    Message('note_on', channel=3, note=77, velocity=67, time=0),
    Message('note_on', channel=9, note=42, velocity=92, time=1),
    Message('note_on', channel=9, note=70, velocity=77, time=0),
    Message('note_on', channel=0, note=49, velocity=82, time=1),
    Message('note_off', channel=9, note=42, velocity=64, time=5),
    Message('note_off', channel=9, note=70, velocity=64, time=0),
    Message('note_off', channel=7, note=49, velocity=64, time=15),
    Message('note_on', channel=9, note=42, velocity=50, time=3),
    Message('note_on', channel=9, note=70, velocity=32, time=0),
    Message('note_on', channel=7, note=49, velocity=50, time=1),
    Message('note_off', channel=9, note=42, velocity=64, time=5),
    Message('note_off', channel=9, note=70, velocity=64, time=0),
    Message('note_off', channel=0, note=61, velocity=64, time=9),
    MetaMessage('lyrics', text='\n', time=9),
    Message('note_on', channel=9, note=42, velocity=50, time=0),
    Message('note_on', channel=9, note=70, velocity=44, time=0),
    Message('note_on', channel=0, note=61, velocity=74, time=1),
    Message('note_off', channel=3, note=77, velocity=64, time=1),
    Message('note_off', channel=9, note=42, velocity=64, time=4),
    Message('note_off', channel=9, note=70, velocity=64, time=0),
    Message('note_off', channel=7, note=61, velocity=64, time=9),
    Message('note_off', channel=0, note=68, velocity=64, time=8),
    Message('note_on', channel=9, note=70, velocity=58, time=1),
    Message('note_on', channel=7, note=61, velocity=42, time=1),
    Message('note_off', channel=9, note=70, velocity=64, time=5),
    Message('note_on', channel=9, note=46, velocity=78, time=17),
    Message('note_on', channel=0, note=68, velocity=71, time=0),
    Message('note_off', channel=7, note=68, velocity=64, time=0),
    Message('note_on', channel=9, note=70, velocity=80, time=1),
    Message('note_off', channel=9, note=46, velocity=64, time=5),
    Message('note_off', channel=9, note=70, velocity=64, time=1),
    Message('note_on', channel=7, note=68, velocity=39, time=17),
    Message('note_on', channel=9, note=70, velocity=38, time=1),
    Message('note_off', channel=9, note=70, velocity=64, time=6),
    Message('note_off', channel=0, note=61, velocity=64, time=6),
    Message('note_on', channel=9, note=42, velocity=84, time=11),
    Message('note_on', channel=0, note=61, velocity=69, time=1),
    Message('note_on', channel=9, note=70, velocity=51, time=0),
    MetaMessage('lyrics', text='it ', time=1),
    Message('note_on', channel=3, note=73, velocity=58, time=0),
    Message('note_off', channel=9, note=42, velocity=64, time=4),
    Message('note_off', channel=9, note=70, velocity=64, time=1),
    Message('note_off', channel=7, note=61, velocity=64, time=6),
    Message('note_on', channel=7, note=61, velocity=37, time=12),
    Message('note_on', channel=9, note=70, velocity=51, time=0),
    Message('note_off', channel=3, note=73, velocity=64, time=3),
    Message('note_off', channel=9, note=70, velocity=64, time=3),
    Message('note_on', channel=9, note=42, velocity=84, time=17),
    Message('note_off', channel=0, note=68, velocity=64, time=1),
    Message('note_on', channel=9, note=70, velocity=80, time=0),
    MetaMessage('lyrics', text='burned ', time=2),
    Message('note_on', channel=3, note=82, velocity=81, time=0),
    Message('note_on', channel=0, note=72, velocity=71, time=0),
    Message('note_off', channel=9, note=42, velocity=64, time=3),
    Message('note_off', channel=9, note=70, velocity=64, time=1),
    Message('note_off', channel=7, note=68, velocity=64, time=18),
    Message('note_on', channel=9, note=70, velocity=43, time=0),
    Message('note_on', channel=7, note=72, velocity=39, time=2),
    Message('note_off', channel=9, note=70, velocity=64, time=4),
    Message('note_on', channel=9, note=42, velocity=60, time=17),
    Message('note_on', channel=9, note=70, velocity=43, time=1),
    Message('note_off', channel=0, note=72, velocity=64, time=2),
    Message('note_on', channel=0, note=68, velocity=61, time=0),
    Message('note_off', channel=9, note=42, velocity=64, time=3),
    Message('note_off', channel=9, note=70, velocity=64, time=1),
    Message('note_on', channel=9, note=70, velocity=67, time=18),
    Message('note_off', channel=7, note=72, velocity=64, time=2),
    Message('note_on', channel=7, note=68, velocity=29, time=0),
    Message('note_off', channel=9, note=70, velocity=64, time=4),
    Message('note_off', channel=0, note=61, velocity=64, time=11),
    Message('note_on', channel=9, note=46, velocity=72, time=6),
    Message('note_on', channel=9, note=70, velocity=83, time=1),
    Message('note_on', channel=0, note=61, velocity=60, time=1),
    Message('note_off', channel=9, note=46, velocity=64, time=4),
    Message('note_off', channel=9, note=70, velocity=64, time=1),
    Message('note_off', channel=7, note=61, velocity=64, time=11),
    Message('note_on', channel=9, note=70, velocity=22, time=7),
    Message('note_on', channel=7, note=61, velocity=28, time=1),
    Message('note_off', channel=9, note=70, velocity=64, time=5),
    Message('note_off', channel=3, note=82, velocity=64, time=5),
    MetaMessage('lyrics', text='like ', time=8),
    Message('note_on', channel=3, note=80, velocity=79, time=0),
    Message('note_on', channel=9, note=46, velocity=78, time=4),
    Message('note_on', channel=9, note=70, velocity=58, time=1),
    Message('note_off', channel=9, note=46, velocity=64, time=5),
    Message('note_off', channel=9, note=70, velocity=64, time=1),
    Message('note_on', channel=9, note=70, velocity=75, time=18),
    Message('note_off', channel=9, note=70, velocity=64, time=6),
    Message('note_on', channel=9, note=42, velocity=69, time=18),
    Message('note_on', channel=9, note=70, velocity=51, time=0),
    Message('note_on', channel=0, note=54, velocity=74, time=4),
    Message('note_off', channel=9, note=42, velocity=64, time=2),
    Message('note_off', channel=9, note=70, velocity=64, time=0),
    Message('note_on', channel=9, note=70, velocity=21, time=18),
    Message('note_on', channel=7, note=54, velocity=42, time=4),
    Message('note_off', channel=9, note=70, velocity=64, time=2),
    Message('note_off', channel=3, note=80, velocity=64, time=13),
    Message('note_off', channel=0, note=61, velocity=64, time=1),
    Message('note_on', channel=9, note=42, velocity=64, time=3),
    Message('note_on', channel=9, note=70, velocity=42, time=1),
    Message('note_on', channel=0, note=61, velocity=67, time=2),
    MetaMessage('lyrics', text='fire, ', time=1),
    MetaMessage('lyrics', text='\r', time=0),
    Message('note_on', channel=3, note=75, velocity=67, time=0),
    Message('note_off', channel=9, note=42, velocity=64, time=2),
    Message('note_off', channel=9, note=70, velocity=64, time=1),
    Message('note_off', channel=0, note=68, velocity=64, time=8),
    Message('note_off', channel=7, note=61, velocity=64, time=6),
    Message('note_on', channel=9, note=70, velocity=43, time=4),
    Message('note_on', channel=7, note=61, velocity=35, time=2),
    Message('note_off', channel=9, note=70, velocity=64, time=4),
    Message('note_off', channel=7, note=68, velocity=64, time=8),
    Message('note_on', channel=9, note=46, velocity=78, time=9),
    Message('note_on', channel=9, note=70, velocity=71, time=1),
    Message('note_on', channel=0, note=68, velocity=71, time=3),
    Message('note_off', channel=9, note=46, velocity=64, time=2),
    Message('note_off', channel=9, note=70, velocity=64, time=1),
    Message('note_on', channel=9, note=70, velocity=36, time=18),
    Message('note_on', channel=7, note=68, velocity=39, time=3),
    Message('note_off', channel=9, note=70, velocity=64, time=3),
    Message('note_off', channel=3, note=75, velocity=64, time=9),
    Message('note_on', channel=9, note=42, velocity=72, time=8),
    Message('note_on', channel=3, note=73, velocity=66, time=1),
    Message('note_on', channel=9, note=70, velocity=43, time=0),
    Message('note_off', channel=9, note=42, velocity=64, time=5),
    Message('note_off', channel=9, note=70, velocity=64, time=1),
    Message('note_on', channel=9, note=70, velocity=58, time=18),
    Message('note_off', channel=9, note=70, velocity=64, time=6),
    Message('note_off', channel=0, note=61, velocity=64, time=8),
    Message('note_on', channel=9, note=42, velocity=64, time=9),
    Message('note_on', channel=9, note=70, velocity=61, time=1),
    Message('note_on', channel=0, note=61, velocity=70, time=2),
    Message('note_off', channel=9, note=42, velocity=64, time=3),
    Message('note_off', channel=9, note=70, velocity=64, time=1),
    Message('note_off', channel=7, note=61, velocity=64, time=8),
    Message('note_on', channel=9, note=70, velocity=34, time=10),
    Message('note_on', channel=7, note=61, velocity=38, time=2),
    Message('note_off', channel=9, note=70, velocity=64, time=4),
    Message('note_off', channel=0, note=68, velocity=64, time=7),
    Message('note_on', channel=9, note=42, velocity=64, time=10),
    Message('note_on', channel=9, note=70, velocity=47, time=1),
    Message('note_on', channel=0, note=68, velocity=74, time=2),
    Message('note_off', channel=9, note=42, velocity=64, time=3),
    Message('note_off', channel=9, note=70, velocity=64, time=1),
    Message('note_off', channel=7, note=68, velocity=64, time=7),
    Message('note_on', channel=9, note=70, velocity=65, time=11),
    Message('note_on', channel=7, note=68, velocity=42, time=2),
    Message('note_off', channel=9, note=70, velocity=64, time=4),
    Message('note_on', channel=9, note=46, velocity=88, time=17),
    Message('note_on', channel=9, note=70, velocity=67, time=1),
    Message('note_off', channel=9, note=46, velocity=64, time=5),
    Message('note_off', channel=9, note=70, velocity=64, time=1),
    Message('note_off', channel=0, note=54, velocity=64, time=14),
    Message('note_on', channel=9, note=70, velocity=36, time=4),
    Message('note_off', channel=9, note=70, velocity=64, time=6),
    Message('note_off', channel=0, note=49, velocity=64, time=4),
    Message('note_off', channel=7, note=54, velocity=64, time=10),
    Message('note_on', channel=0, note=54, velocity=64, time=3),
    Message('note_on', channel=9, note=42, velocity=64, time=1),
    Message('note_on', channel=9, note=70, velocity=43, time=0),
    Message('note_off', channel=9, note=42, velocity=64, time=6),
    Message('note_off', channel=9, note=70, velocity=64, time=0),
    Message('note_off', channel=3, note=73, velocity=64, time=4),
    Message('note_off', channel=7, note=49, velocity=64, time=0),
    Message('note_on', channel=7, note=54, velocity=32, time=13),
    Message('note_on', channel=9, note=70, velocity=71, time=1),
    Message('note_off', channel=9, note=70, velocity=64, time=6),
    Message('note_off', channel=0, note=54, velocity=64, time=13),
    Message('note_on', channel=9, note=42, velocity=92, time=5),
    Message('note_on', channel=0, note=54, velocity=80, time=0),
    Message('note_on', channel=9, note=70, velocity=77, time=0),
    Message('note_off', channel=9, note=42, velocity=64, time=6),
    Message('note_off', channel=9, note=70, velocity=64, time=0),
    Message('note_off', channel=7, note=54, velocity=64, time=13),
    Message('note_on', channel=7, note=54, velocity=48, time=5),
    Message('note_on', channel=9, note=70, velocity=32, time=0),
    Message('note_off', channel=9, note=70, velocity=64, time=6),
    Message('note_off', channel=0, note=61, velocity=64, time=13),
    Message('note_off', channel=0, note=68, velocity=64, time=1),
    Message('note_on', channel=0, note=61, velocity=57, time=2),
    Message('note_on', channel=9, note=42, velocity=49, time=1),
    Message('note_on', channel=9, note=70, velocity=44, time=1),
    Message('note_off', channel=9, note=42, velocity=64, time=5),
    Message('note_off', channel=9, note=70, velocity=64, time=1),
    Message('note_off', channel=7, note=61, velocity=64, time=13),
    Message('note_off', channel=7, note=68, velocity=64, time=1),
    Message('note_on', channel=7, note=61, velocity=25, time=2),
    Message('note_on', channel=9, note=42, velocity=58, time=1),
    Message('note_on', channel=9, note=70, velocity=58, time=1),
    Message('note_off', channel=9, note=42, velocity=64, time=5),
    Message('note_off', channel=9, note=70, velocity=64, time=1),
    Message('note_on', channel=9, note=46, velocity=62, time=18),
    Message('note_on', channel=0, note=68, velocity=74, time=0),
    Message('note_on', channel=9, note=70, velocity=80, time=0),
    Message('note_off', channel=9, note=46, velocity=64, time=6),
    Message('note_off', channel=9, note=70, velocity=64, time=0),
    Message('note_on', channel=7, note=68, velocity=42, time=18),
    Message('note_on', channel=9, note=70, velocity=38, time=0),
    Message('note_off', channel=9, note=70, velocity=64, time=6),
    Message('note_off', channel=0, note=61, velocity=64, time=12),
    MetaMessage('lyrics', text='this ', time=5),
    Message('note_on', channel=3, note=73, velocity=78, time=0),
    Message('note_on', channel=9, note=42, velocity=88, time=1),
    Message('note_on', channel=9, note=70, velocity=51, time=0),
    Message('note_on', channel=0, note=61, velocity=71, time=1),
    Message('note_off', channel=9, note=42, velocity=64, time=5),
    Message('note_off', channel=9, note=70, velocity=64, time=0),
    Message('note_off', channel=7, note=61, velocity=64, time=12),
    Message('note_on', channel=9, note=70, velocity=51, time=6),
    Message('note_on', channel=7, note=61, velocity=39, time=1),
    Message('note_off', channel=3, note=73, velocity=64, time=1),
    Message('note_off', channel=9, note=70, velocity=64, time=4),
    Message('note_off', channel=0, note=68, velocity=64, time=12),
    Message('note_on', channel=9, note=42, velocity=81, time=6),
    Message('note_on', channel=9, note=70, velocity=80, time=0),
    Message('note_on', channel=0, note=72, velocity=75, time=1),
    MetaMessage('lyrics', text='burn', time=5),
    Message('note_on', channel=3, note=82, velocity=91, time=0),
    Message('note_off', channel=9, note=42, velocity=64, time=0),
    Message('note_off', channel=9, note=70, velocity=64, time=0),
    Message('note_off', channel=7, note=68, velocity=64, time=12),
    Message('note_on', channel=9, note=70, velocity=43, time=6),
    Message('note_on', channel=7, note=72, velocity=43, time=1),
    Message('note_off', channel=9, note=70, velocity=64, time=5),
    Message('note_off', channel=0, note=72, velocity=64, time=13),
    Message('note_on', channel=9, note=42, velocity=72, time=4),
    Message('note_on', channel=9, note=70, velocity=43, time=1),
    Message('note_on', channel=0, note=68, velocity=74, time=2),
    Message('note_off', channel=9, note=42, velocity=64, time=3),
    Message('note_off', channel=9, note=70, velocity=64, time=1),
    Message('note_off', channel=3, note=82, velocity=64, time=3),
    Message('note_off', channel=7, note=72, velocity=64, time=10),
    MetaMessage('lyrics', text="in' ", time=3),
    Message('note_on', channel=3, note=80, velocity=70, time=0),
    Message('note_on', channel=9, note=70, velocity=67, time=2),
    Message('note_on', channel=7, note=68, velocity=42, time=2),
    Message('note_off', channel=9, note=70, velocity=64, time=4),
    Message('note_off', channel=0, note=61, velocity=64, time=7),
    Message('note_on', channel=9, note=46, velocity=66, time=11),
    Message('note_on', channel=9, note=70, velocity=83, time=0),
    Message('note_on', channel=0, note=61, velocity=67, time=1),
    Message('note_off', channel=9, note=46, velocity=64, time=5),
    Message('note_off', channel=9, note=70, velocity=64, time=0),
    Message('note_off', channel=7, note=61, velocity=64, time=7),
    Message('note_off', channel=3, note=80, velocity=64, time=2),
    Message('note_on', channel=9, note=70, velocity=22, time=9),
    Message('note_on', channel=7, note=61, velocity=35, time=1),
    MetaMessage('lyrics', text='de', time=5),
    Message('note_on', channel=3, note=80, velocity=82, time=0),
    Message('note_off', channel=9, note=70, velocity=64, time=0),
    Message('note_off', channel=0, note=61, velocity=64, time=7),
    Message('note_on', channel=9, note=46, velocity=72, time=11),
    Message('note_on', channel=0, note=61, velocity=74, time=0),
    Message('note_on', channel=9, note=70, velocity=58, time=0),
    Message('note_off', channel=9, note=46, velocity=64, time=6),
    Message('note_off', channel=9, note=70, velocity=64, time=0),
    Message('note_off', channel=7, note=61, velocity=64, time=7),
    Message('note_off', channel=3, note=80, velocity=64, time=5),
    Message('note_on', channel=3, note=77, velocity=65, time=0),
    Message('note_on', channel=7, note=61, velocity=42, time=6),
    Message('note_on', channel=9, note=70, velocity=75, time=0),
    Message('note_off', channel=9, note=70, velocity=64, time=6),
    Message('note_on', channel=9, note=42, velocity=84, time=18),
    Message('note_on', channel=9, note=70, velocity=51, time=0),
    Message('note_on', channel=0, note=49, velocity=86, time=1),
    Message('note_off', channel=3, note=77, velocity=64, time=3),
    Message('note_off', channel=9, note=42, velocity=64, time=2),
    Message('note_off', channel=9, note=70, velocity=64, time=0),
    MetaMessage('lyrics', text='sire. ', time=6),
    MetaMessage('lyrics', text='\r', time=0),
    Message('note_on', channel=3, note=80, velocity=75, time=0),
    Message('note_off', channel=0, note=68, velocity=64, time=11),
    Message('note_on', channel=9, note=70, velocity=21, time=1),
    Message('note_on', channel=7, note=49, velocity=54, time=1),
    Message('note_off', channel=9, note=70, velocity=64, time=5),
    Message('note_off', channel=0, note=61, velocity=64, time=8),
    Message('note_off', channel=7, note=68, velocity=64, time=9),
    Message('note_on', channel=9, note=42, velocity=45, time=1),
    Message('note_on', channel=9, note=70, velocity=42, time=0),
    Message('note_on', channel=0, note=61, velocity=73, time=2),
    Message('note_off', channel=9, note=42, velocity=64, time=4),
    Message('note_off', channel=9, note=70, velocity=64, time=0),
    Message('note_off', channel=7, note=61, velocity=64, time=8),
    Message('note_on', channel=9, note=70, velocity=43, time=10),
    Message('note_on', channel=7, note=61, velocity=41, time=2),
    Message('note_off', channel=9, note=70, velocity=64, time=4),
    Message('note_on', channel=9, note=46, velocity=81, time=17),
    Message('note_on', channel=9, note=70, velocity=71, time=1),
    Message('note_on', channel=0, note=68, velocity=70, time=1),
    Message('note_off', channel=9, note=46, velocity=64, time=4),
    Message('note_off', channel=9, note=70, velocity=64, time=1),
    Message('note_on', channel=9, note=70, velocity=36, time=18),
    Message('note_on', channel=7, note=68, velocity=38, time=1),
    Message('note_off', channel=9, note=70, velocity=64, time=5),
    Message('note_on', channel=9, note=42, velocity=62, time=17),
    Message('note_off', channel=3, note=80, velocity=64, time=1),
    Message('note_on', channel=3, note=77, velocity=62, time=0),
    Message('note_on', channel=9, note=70, velocity=43, time=0),
    Message('note_off', channel=9, note=42, velocity=64, time=5),
    Message('note_off', channel=9, note=70, velocity=64, time=1),
    Message('note_on', channel=9, note=70, velocity=58, time=18),
    Message('note_off', channel=9, note=70, velocity=64, time=6),
    Message('note_off', channel=0, note=61, velocity=64, time=4),
    Message('note_on', channel=9, note=42, velocity=75, time=13),
    Message('note_on', channel=9, note=70, velocity=61, time=1),
    Message('note_on', channel=0, note=61, velocity=67, time=2),
    Message('note_off', channel=9, note=42, velocity=64, time=3),
    Message('note_off', channel=9, note=70, velocity=64, time=1),
    Message('note_off', channel=7, note=61, velocity=64, time=4),
    Message('note_on', channel=9, note=70, velocity=34, time=14),
    Message('note_on', channel=7, note=61, velocity=35, time=2),
    Message('note_off', channel=9, note=70, velocity=64, time=4),
    Message('note_off', channel=0, note=68, velocity=64, time=9),
    Message('note_on', channel=9, note=42, velocity=66, time=8),
    Message('note_on', channel=9, note=70, velocity=47, time=1),
    Message('note_on', channel=0, note=68, velocity=72, time=1),
    Message('note_off', channel=9, note=42, velocity=64, time=4),
    Message('note_off', channel=9, note=70, velocity=64, time=1),
    Message('note_off', channel=7, note=68, velocity=64, time=9),
    Message('note_on', channel=9, note=70, velocity=65, time=9),
    Message('note_on', channel=7, note=68, velocity=40, time=1),
    Message('note_off', channel=9, note=70, velocity=64, time=5),
    Message('note_on', channel=9, note=46, velocity=60, time=17),
    Message('note_on', channel=9, note=70, velocity=67, time=1),
    Message('note_off', channel=9, note=46, velocity=64, time=5),
    Message('note_off', channel=9, note=70, velocity=64, time=1),
    MetaMessage('lyrics', text='\n', time=4),
    Message('note_on', channel=9, note=70, velocity=36, time=14),
    Message('note_off', channel=0, note=49, velocity=64, time=3),
    Message('note_off', channel=9, note=70, velocity=64, time=3),
    Message('note_on', channel=9, note=42, velocity=72, time=17),
    Message('note_on', channel=9, note=70, velocity=43, time=1),
    Message('note_on', channel=0, note=49, velocity=64, time=1),
    Message('note_off', channel=7, note=49, velocity=64, time=2),
    Message('note_off', channel=3, note=77, velocity=64, time=2),
    Message('note_off', channel=9, note=42, velocity=64, time=0),
    Message('note_off', channel=9, note=70, velocity=64, time=1),
    Message('note_on', channel=9, note=70, velocity=71, time=18),
    Message('note_on', channel=7, note=49, velocity=32, time=1),
    Message('note_off', channel=9, note=70, velocity=64, time=5),
    Message('note_off', channel=0, note=49, velocity=64, time=13),
    Message('note_on', channel=9, note=42, velocity=84, time=4),
    Message('note_on', channel=0, note=49, velocity=82, time=0),
    Message('note_on', channel=9, note=70, velocity=77, time=1),
    Message('note_off', channel=9, note=42, velocity=64, time=5),
    Message('note_off', channel=9, note=70, velocity=64, time=1),
    Message('note_off', channel=7, note=49, velocity=64, time=13),
    Message('note_on', channel=7, note=49, velocity=50, time=4),
    Message('note_on', channel=9, note=70, velocity=32, time=1),
    Message('note_off', channel=9, note=70, velocity=64, time=6),
    Message('note_off', channel=0, note=61, velocity=64, time=7),
    Message('note_off', channel=0, note=68, velocity=64, time=1),
    Message('note_on', channel=9, note=42, velocity=56, time=9),
    Message('note_on', channel=9, note=70, velocity=44, time=1),
    Message('note_on', channel=0, note=61, velocity=74, time=1),
    Message('note_off', channel=9, note=42, velocity=64, time=4),
    Message('note_off', channel=9, note=70, velocity=64, time=1),
    Message('note_off', channel=7, note=61, velocity=64, time=7),
    Message('note_off', channel=7, note=68, velocity=64, time=1),
    Message('note_on', channel=9, note=70, velocity=58, time=10),
    Message('note_on', channel=7, note=61, velocity=42, time=1),
    Message('note_off', channel=9, note=70, velocity=64, time=5),
    Message('note_off', channel=0, note=54, velocity=64, time=10),
    Message('note_on', channel=9, note=46, velocity=69, time=7),
    Message('note_on', channel=9, note=70, velocity=80, time=1),
    Message('note_on', channel=0, note=68, velocity=73, time=1),
    Message('note_off', channel=9, note=46, velocity=64, time=4),
    Message('note_off', channel=9, note=70, velocity=64, time=1),
    Message('note_off', channel=7, note=54, velocity=64, time=10),
    Message('note_on', channel=9, note=70, velocity=38, time=8),
    Message('note_on', channel=7, note=68, velocity=41, time=1),
    Message('note_off', channel=9, note=70, velocity=64, time=5),
    Message('note_off', channel=0, note=61, velocity=64, time=6),
    Message('note_on', channel=9, note=42, velocity=56, time=11),
    Message('note_on', channel=9, note=70, velocity=51, time=1),
    Message('note_on', channel=0, note=61, velocity=71, time=2),
    Message('note_off', channel=9, note=42, velocity=64, time=3),
    Message('note_off', channel=9, note=70, velocity=64, time=1),
    Message('note_off', channel=7, note=61, velocity=64, time=6),
    Message('note_on', channel=9, note=70, velocity=51, time=12),
    Message('note_on', channel=7, note=61, velocity=39, time=2),
    Message('note_off', channel=9, note=70, velocity=64, time=4),
    Message('note_off', channel=0, note=68, velocity=64, time=6),
    Message('note_on', channel=9, note=42, velocity=84, time=11),
    Message('note_on', channel=9, note=70, velocity=80, time=1),
    Message('note_on', channel=0, note=72, velocity=71, time=2),
    Message('note_off', channel=9, note=42, velocity=64, time=3),
    Message('note_off', channel=9, note=70, velocity=64, time=1),
    Message('note_off', channel=7, note=68, velocity=64, time=6),
    Message('note_on', channel=9, note=70, velocity=43, time=12),
    Message('note_on', channel=7, note=72, velocity=39, time=2),
    Message('note_off', channel=9, note=70, velocity=64, time=4),
    Message('note_off', channel=0, note=72, velocity=64, time=13),
    Message('note_on', channel=9, note=42, velocity=64, time=4),
    MetaMessage('lyrics', text='I ', time=1),
    Message('note_on', channel=3, note=77, velocity=88, time=0),
    Message('note_on', channel=9, note=70, velocity=43, time=0),
    Message('note_on', channel=0, note=68, velocity=74, time=1),
    Message('note_off', channel=9, note=42, velocity=64, time=4),
    Message('note_off', channel=9, note=70, velocity=64, time=1),
    Message('note_off', channel=7, note=72, velocity=64, time=13),
    Message('note_on', channel=9, note=70, velocity=67, time=5),
    Message('note_on', channel=7, note=68, velocity=42, time=1),
    Message('note_off', channel=9, note=70, velocity=64, time=5),
    Message('note_off', channel=0, note=61, velocity=64, time=8),
    Message('note_on', channel=9, note=46, velocity=60, time=9),
    Message('note_on', channel=0, note=61, velocity=71, time=1),
    Message('note_on', channel=9, note=70, velocity=83, time=0),
    Message('note_off', channel=9, note=46, velocity=64, time=5),
    Message('note_off', channel=9, note=70, velocity=64, time=1),
    Message('note_off', channel=3, note=77, velocity=64, time=3),
    Message('note_off', channel=7, note=61, velocity=64, time=5),
    MetaMessage('lyrics', text='have ', time=6),
    Message('note_on', channel=3, note=80, velocity=85, time=0),
    Message('note_on', channel=7, note=61, velocity=39, time=4),
    Message('note_on', channel=9, note=70, velocity=22, time=0),
    Message('note_off', channel=9, note=70, velocity=64, time=6),
    Message('note_off', channel=0, note=61, velocity=64, time=7),
    Message('note_on', channel=9, note=46, velocity=56, time=10),
    Message('note_on', channel=0, note=61, velocity=74, time=1),
    Message('note_on', channel=9, note=70, velocity=58, time=0),
    Message('note_off', channel=9, note=46, velocity=64, time=5),
    Message('note_off', channel=9, note=70, velocity=64, time=1),
    Message('note_off', channel=7, note=61, velocity=64, time=7),
    Message('note_off', channel=3, note=80, velocity=64, time=11),
    Message('note_on', channel=7, note=61, velocity=42, time=0),
    Message('note_on', channel=9, note=70, velocity=75, time=0),
    Message('note_off', channel=9, note=70, velocity=64, time=6),
    Message('note_off', channel=0, note=49, velocity=64, time=13),
    Message('note_off', channel=0, note=61, velocity=64, time=1),
    Message('note_off', channel=0, note=68, velocity=64, time=1),
    MetaMessage('lyrics', text='spoke ', time=1),
    Message('note_on', channel=3, note=80, velocity=85, time=0),
    Message('pitchwheel', channel=0, pitch=127, time=0),
    Message('note_on', channel=9, note=42, velocity=92, time=1),
    Message('note_on', channel=0, note=49, velocity=82, time=1),
    Message('note_on', channel=9, note=70, velocity=51, time=0),
    Message('note_off', channel=9, note=42, velocity=64, time=5),
    Message('note_off', channel=9, note=70, velocity=64, time=1),
    Message('note_off', channel=7, note=49, velocity=64, time=13),
    Message('note_off', channel=7, note=61, velocity=64, time=1),
    Message('note_off', channel=7, note=68, velocity=64, time=1),
    Message('pitchwheel', channel=7, pitch=127, time=1),
    Message('note_on', channel=7, note=49, velocity=50, time=2),
    Message('note_on', channel=9, note=70, velocity=21, time=0),
    Message('note_off', channel=9, note=70, velocity=64, time=6),
    Message('note_on', channel=9, note=42, velocity=66, time=17),
    Message('note_off', channel=3, note=80, velocity=64, time=1),
    Message('note_on', channel=9, note=70, velocity=42, time=0),
    Message('note_on', channel=3, note=77, velocity=70, time=2),
    Message('note_on', channel=0, note=61, velocity=64, time=1),
    Message('note_off', channel=9, note=42, velocity=64, time=2),
    Message('note_off', channel=9, note=70, velocity=64, time=1),
    Message('note_on', channel=9, note=70, velocity=43, time=18),
    Message('note_on', channel=7, note=61, velocity=32, time=3),
    Message('note_off', channel=9, note=70, velocity=64, time=3),
    Message('note_on', channel=9, note=46, velocity=81, time=18),
    Message('note_on', channel=9, note=70, velocity=71, time=0),
    Message('note_on', channel=0, note=68, velocity=67, time=3),
    Message('note_off', channel=9, note=46, velocity=64, time=3),
    Message('note_off', channel=9, note=70, velocity=64, time=0),
    Message('note_on', channel=9, note=70, velocity=36, time=18),
    Message('note_on', channel=7, note=68, velocity=35, time=3),
    Message('note_off', channel=9, note=70, velocity=64, time=3),
    Message('note_off', channel=3, note=77, velocity=64, time=6),
    MetaMessage('lyrics', text='with ', time=4),
    Message('note_on', channel=3, note=75, velocity=57, time=0),
    Message('note_on', channel=9, note=42, velocity=72, time=7),
    Message('note_on', channel=9, note=70, velocity=43, time=1),
    Message('note_off', channel=9, note=42, velocity=64, time=5),
    Message('note_off', channel=9, note=70, velocity=64, time=1),
    MetaMessage('lyrics', text='the ', time=6),
    Message('note_on', channel=3, note=73, velocity=52, time=0),
    Message('note_off', channel=3, note=75, velocity=64, time=5),
    Message('note_on', channel=9, note=70, velocity=58, time=7),
    Message('note_off', channel=9, note=70, velocity=64, time=6),
    Message('note_off', channel=0, note=61, velocity=64, time=8),
    Message('note_off', channel=3, note=73, velocity=64, time=2),
    Message('note_on', channel=9, note=42, velocity=92, time=7),
    Message('note_on', channel=9, note=70, velocity=61, time=1),
    Message('note_on', channel=0, note=61, velocity=67, time=3),
    Message('note_off', channel=9, note=42, velocity=64, time=2),
    Message('note_off', channel=9, note=70, velocity=64, time=1),
    Message('note_off', channel=7, note=61, velocity=64, time=8),
    Message('note_on', channel=9, note=42, velocity=47, time=10),
    Message('note_on', channel=9, note=70, velocity=34, time=0),
    Message('note_on', channel=7, note=61, velocity=35, time=3),
    Message('note_off', channel=9, note=42, velocity=64, time=3),
    Message('note_off', channel=9, note=70, velocity=64, time=0),
    Message('note_off', channel=0, note=68, velocity=64, time=7),
    MetaMessage('lyrics', text='tongue ', time=10),
    Message('note_on', channel=3, note=82, velocity=87, time=0),
    Message('note_on', channel=9, note=42, velocity=52, time=0),
    Message('note_on', channel=9, note=70, velocity=47, time=1),
    Message('note_on', channel=0, note=68, velocity=70, time=2),
    Message('note_off', channel=9, note=42, velocity=64, time=3),
    Message('note_off', channel=9, note=70, velocity=64, time=1),
    Message('note_off', channel=7, note=68, velocity=64, time=7),
    Message('note_on', channel=9, note=70, velocity=65, time=11),
    Message('note_on', channel=7, note=68, velocity=38, time=2),
    Message('note_off', channel=9, note=70, velocity=64, time=4),
    Message('note_on', channel=9, note=46, velocity=72, time=17),
    Message('note_on', channel=9, note=70, velocity=67, time=1),
    Message('note_off', channel=9, note=46, velocity=64, time=5),
    Message('note_off', channel=9, note=70, velocity=64, time=1),
    Message('note_on', channel=9, note=70, velocity=36, time=18),
    Message('note_off', channel=9, note=70, velocity=64, time=6),
    Message('note_off', channel=0, note=49, velocity=64, time=9),
    MetaMessage('lyrics', text='of ', time=7),
    Message('note_off', channel=3, note=82, velocity=64, time=0),
    Message('note_on', channel=3, note=80, velocity=79, time=0),
    Message('note_on', channel=9, note=70, velocity=43, time=2),
    Message('note_on', channel=0, note=49, velocity=56, time=2),
    Message('note_off', channel=9, note=70, velocity=64, time=4),
    Message('note_off', channel=7, note=49, velocity=64, time=9),
    Message('note_off', channel=3, note=80, velocity=64, time=4),
    Message('note_on', channel=3, note=77, velocity=68, time=3),
    Message('note_on', channel=9, note=70, velocity=71, time=2),
    Message('note_on', channel=7, note=49, velocity=24, time=2),
    Message('note_off', channel=9, note=70, velocity=64, time=4),
    Message('note_off', channel=3, note=77, velocity=64, time=13),
    Message('note_off', channel=0, note=49, velocity=64, time=0),
    MetaMessage('lyrics', text='an', time=2),
    Message('note_on', channel=3, note=80, velocity=71, time=0),
    Message('note_on', channel=0, note=49, velocity=75, time=2),
    Message('note_on', channel=9, note=42, velocity=88, time=1),
    Message('note_on', channel=9, note=70, velocity=77, time=0),
    Message('note_off', channel=9, note=42, velocity=64, time=6),
    Message('note_off', channel=9, note=70, velocity=64, time=0),
    Message('note_off', channel=7, note=49, velocity=64, time=13),
    Message('note_on', channel=7, note=49, velocity=43, time=4),
    Message('note_on', channel=9, note=70, velocity=32, time=1),
    Message('note_off', channel=9, note=70, velocity=64, time=6),
    Message('note_off', channel=0, note=61, velocity=64, time=3),
    Message('note_off', channel=3, note=80, velocity=64, time=3),
    Message('note_on', channel=9, note=42, velocity=66, time=11),
    MetaMessage('lyrics', text='gels, ', time=1),
    MetaMessage('lyrics', text='\r', time=0),
    Message('note_on', channel=3, note=77, velocity=71, time=0),
    Message('note_on', channel=9, note=70, velocity=44, time=0),
    Message('note_on', channel=0, note=61, velocity=75, time=1),
    Message('note_off', channel=9, note=42, velocity=64, time=4),
    Message('note_off', channel=9, note=70, velocity=64, time=1),
    Message('note_off', channel=0, note=68, velocity=64, time=3),
    Message('note_off', channel=7, note=61, velocity=64, time=0),
    Message('note_on', channel=9, note=70, velocity=58, time=15),
    Message('note_on', channel=7, note=61, velocity=43, time=1),
    Message('note_off', channel=9, note=70, velocity=64, time=5),
    Message('note_off', channel=7, note=68, velocity=64, time=3),
    Message('pitchwheel', channel=3, pitch=-118, time=1),
    Message('pitchwheel', channel=3, pitch=-469, time=2),
    Message('pitchwheel', channel=3, pitch=-703, time=3),
    Message('pitchwheel', channel=3, pitch=-1054, time=3),
    Message('pitchwheel', channel=3, pitch=-1405, time=2),
    Message('pitchwheel', channel=3, pitch=-1756, time=3),
    Message('note_on', channel=0, note=68, velocity=74, time=0),
    Message('note_on', channel=9, note=46, velocity=64, time=1),
    Message('note_on', channel=9, note=70, velocity=80, time=0),
    Message('pitchwheel', channel=3, pitch=-2224, time=1),
    Message('pitchwheel', channel=3, pitch=-2575, time=3),
    Message('note_off', channel=9, note=46, velocity=64, time=2),
    Message('note_off', channel=9, note=70, velocity=64, time=0),
    Message('pitchwheel', channel=3, pitch=-2926, time=1),
    Message('pitchwheel', channel=3, pitch=-3160, time=2),
    Message('pitchwheel', channel=3, pitch=-3394, time=3),
    Message('pitchwheel', channel=3, pitch=-3511, time=2),
    Message('pitchwheel', channel=3, pitch=-3745, time=3),
    Message('pitchwheel', channel=3, pitch=-3979, time=3),
    Message('pitchwheel', channel=3, pitch=-4213, time=2),
    Message('note_on', channel=7, note=68, velocity=42, time=1),
    Message('note_off', channel=3, note=77, velocity=64, time=1),
    Message('pitchwheel', channel=3, pitch=-4447, time=0),
    Message('note_on', channel=9, note=70, velocity=38, time=0),
    Message('note_off', channel=9, note=70, velocity=64, time=6),
    Message('pitchwheel', channel=3, pitch=-4213, time=2),
    Message('pitchwheel', channel=3, pitch=-3394, time=3),
    Message('pitchwheel', channel=3, pitch=-1288, time=2),
    Message('note_off', channel=0, note=61, velocity=64, time=0),
    Message('pitchwheel', channel=3, pitch=0, time=3),
    Message('note_on', channel=9, note=42, velocity=64, time=7),
    Message('note_on', channel=0, note=61, velocity=72, time=1),
    Message('note_on', channel=9, note=70, velocity=51, time=0),
    Message('note_on', channel=3, note=73, velocity=58, time=2),
    Message('note_off', channel=9, note=42, velocity=64, time=3),
    Message('note_off', channel=9, note=70, velocity=64, time=1),
    Message('note_off', channel=7, note=61, velocity=64, time=7),
    Message('note_on', channel=7, note=61, velocity=40, time=11),
    Message('note_on', channel=9, note=70, velocity=51, time=0),
    Message('note_off', channel=3, note=73, velocity=64, time=6),
    Message('note_off', channel=9, note=70, velocity=64, time=0),
    Message('note_off', channel=0, note=68, velocity=64, time=12),
    Message('note_on', channel=9, note=42, velocity=88, time=5),
    Message('note_on', channel=9, note=70, velocity=80, time=1),
    Message('note_on', channel=0, note=72, velocity=77, time=2),
    Message('note_off', channel=9, note=42, velocity=64, time=3),
    Message('note_off', channel=9, note=70, velocity=64, time=1),
    Message('note_off', channel=7, note=68, velocity=64, time=12),
    Message('note_on', channel=9, note=70, velocity=43, time=6),
    Message('note_on', channel=7, note=72, velocity=45, time=2),
    Message('note_off', channel=9, note=70, velocity=64, time=4),
    Message('note_off', channel=0, note=72, velocity=64, time=11),
    MetaMessage('lyrics', text='I ', time=6),
    Message('note_on', channel=3, note=77, velocity=73, time=0),
    Message('note_on', channel=9, note=42, velocity=66, time=0),
    Message('note_on', channel=9, note=70, velocity=43, time=1),
    Message('note_on', channel=0, note=68, velocity=72, time=1),
    Message('note_off', channel=9, note=42, velocity=64, time=4),
    Message('note_off', channel=9, note=70, velocity=64, time=1),
    Message('note_off', channel=7, note=72, velocity=64, time=11),
    Message('note_on', channel=9, note=70, velocity=67, time=7),
    Message('note_on', channel=7, note=68, velocity=40, time=1),
    Message('note_off', channel=9, note=70, velocity=64, time=5),
    Message('note_off', channel=0, note=61, velocity=64, time=11),
    Message('note_on', channel=9, note=46, velocity=50, time=6),
    Message('note_on', channel=9, note=70, velocity=83, time=1),
    Message('note_on', channel=0, note=61, velocity=69, time=1),
    Message('note_off', channel=9, note=46, velocity=64, time=4),
    Message('note_off', channel=9, note=70, velocity=64, time=1),
    Message('note_off', channel=7, note=61, velocity=64, time=11),
    Message('note_off', channel=3, note=77, velocity=64, time=4),
    MetaMessage('lyrics', text='have ', time=3),
    Message('note_on', channel=3, note=80, velocity=84, time=0),
    Message('note_on', channel=9, note=70, velocity=22, time=0),
    Message('note_on', channel=7, note=61, velocity=37, time=1),
    Message('note_off', channel=9, note=70, velocity=64, time=5),
    Message('note_off', channel=0, note=61, velocity=64, time=12),
    Message('note_on', channel=9, note=70, velocity=58, time=6),
    Message('note_on', channel=0, note=61, velocity=71, time=2),
    Message('note_off', channel=9, note=70, velocity=64, time=4),
    Message('note_off', channel=7, note=61, velocity=64, time=12),
    Message('note_on', channel=9, note=70, velocity=75, time=6),
    Message('note_on', channel=7, note=61, velocity=39, time=2),
    Message('note_off', channel=3, note=80, velocity=64, time=2),
    Message('note_off', channel=9, note=70, velocity=64, time=2),
    MetaMessage('lyrics', text='held ', time=16),
    Message('note_on', channel=3, note=80, velocity=75, time=0),
    Message('note_on', channel=9, note=42, velocity=92, time=2),
    Message('note_on', channel=9, note=70, velocity=51, time=0),
    Message('note_off', channel=0, note=49, velocity=64, time=1),
    Message('note_on', channel=0, note=49, velocity=79, time=1),
    Message('note_off', channel=9, note=42, velocity=64, time=4),
    Message('note_off', channel=9, note=70, velocity=64, time=0),
    Message('note_on', channel=9, note=70, velocity=21, time=18),
    Message('note_off', channel=7, note=49, velocity=64, time=1),
    Message('note_on', channel=7, note=49, velocity=47, time=1),
    Message('note_off', channel=9, note=70, velocity=64, time=4),
    Message('note_off', channel=0, note=61, velocity=64, time=6),
    Message('note_on', channel=9, note=42, velocity=62, time=12),
    Message('note_on', channel=9, note=70, velocity=42, time=0),
    Message('note_on', channel=0, note=61, velocity=71, time=2),
    Message('note_off', channel=9, note=42, velocity=64, time=4),
    Message('note_off', channel=9, note=70, velocity=64, time=0),
    Message('note_on', channel=3, note=77, velocity=76, time=4),
    Message('note_off', channel=7, note=61, velocity=64, time=2),
    Message('note_off', channel=3, note=80, velocity=64, time=1),
    Message('note_off', channel=0, note=68, velocity=64, time=4),
    Message('note_on', channel=9, note=70, velocity=43, time=7),
    Message('note_on', channel=7, note=61, velocity=39, time=2),
    Message('note_off', channel=9, note=70, velocity=64, time=4),
    Message('note_off', channel=7, note=68, velocity=64, time=11),
    Message('note_on', channel=9, note=46, velocity=64, time=6),
    Message('note_on', channel=0, note=68, velocity=77, time=1),
    Message('note_on', channel=9, note=70, velocity=71, time=0),
    Message('note_off', channel=9, note=46, velocity=64, time=5),
    Message('note_off', channel=9, note=70, velocity=64, time=1),
    Message('note_on', channel=7, note=68, velocity=45, time=18),
    Message('note_on', channel=9, note=70, velocity=36, time=0),
    Message('note_off', channel=9, note=70, velocity=64, time=6),
    Message('note_off', channel=3, note=77, velocity=64, time=2),
    MetaMessage('lyrics', text='the ', time=15),
    Message('note_on', channel=3, note=73, velocity=66, time=0),
    Message('note_on', channel=9, note=42, velocity=64, time=0),
    Message('note_on', channel=9, note=70, velocity=43, time=1),
    Message('note_off', channel=9, note=42, velocity=64, time=5),
    Message('note_off', channel=9, note=70, velocity=64, time=1),
    Message('note_on', channel=9, note=70, velocity=58, time=18),
    Message('note_off', channel=9, note=70, velocity=64, time=6),
    Message('note_off', channel=0, note=61, velocity=64, time=3),
    Message('note_off', channel=3, note=73, velocity=64, time=5),
    Message('note_on', channel=9, note=42, velocity=92, time=9),
    Message('note_on', channel=9, note=70, velocity=61, time=1),
    Message('note_on', channel=0, note=61, velocity=74, time=2),
    Message('note_off', channel=9, note=42, velocity=64, time=3),
    Message('note_off', channel=9, note=70, velocity=64, time=1),
    Message('note_off', channel=7, note=61, velocity=64, time=3),
    Message('note_on', channel=9, note=42, velocity=43, time=15),
    Message('note_on', channel=9, note=70, velocity=34, time=0),
    Message('note_on', channel=7, note=61, velocity=42, time=2),
    Message('note_off', channel=9, note=42, velocity=64, time=4),
    Message('note_off', channel=9, note=70, velocity=64, time=0),
    Message('note_off', channel=0, note=68, velocity=64, time=1),
    MetaMessage('lyrics', text='hand ', time=17),
    Message('note_on', channel=3, note=82, velocity=84, time=0),
    Message('note_on', channel=9, note=42, velocity=39, time=0),
    Message('note_on', channel=9, note=70, velocity=47, time=0),
    Message('note_on', channel=0, note=68, velocity=76, time=1),
    Message('note_off', channel=9, note=42, velocity=64, time=5),
    Message('note_off', channel=9, note=70, velocity=64, time=0),
    Message('note_off', channel=7, note=68, velocity=64, time=1),
    Message('note_on', channel=9, note=70, velocity=65, time=17),
    Message('note_on', channel=7, note=68, velocity=44, time=1),
    Message('note_off', channel=9, note=70, velocity=64, time=5),
    Message('note_on', channel=9, note=46, velocity=78, time=17),
    Message('note_on', channel=9, note=70, velocity=67, time=1),
    Message('note_off', channel=9, note=46, velocity=64, time=5),
    Message('note_off', channel=9, note=70, velocity=64, time=1),
    Message('note_off', channel=3, note=82, velocity=64, time=11),
    Message('note_off', channel=0, note=49, velocity=64, time=6),
    Message('note_on', channel=9, note=70, velocity=36, time=1),
    Message('note_off', channel=9, note=70, velocity=64, time=6),
    MetaMessage('lyrics', text='of ', time=6),
    Message('note_on', channel=3, note=80, velocity=68, time=0),
    Message('note_on', channel=9, note=46, velocity=72, time=11),
    Message('note_off', channel=7, note=49, velocity=64, time=0),
    Message('note_on', channel=9, note=70, velocity=43, time=1),
    Message('note_on', channel=0, note=49, velocity=74, time=1),
    Message('note_off', channel=9, note=46, velocity=64, time=4),
    Message('note_off', channel=9, note=70, velocity=64, time=1),
    Message('note_off', channel=3, note=80, velocity=64, time=8),
    MetaMessage('lyrics', text='a ', time=6),
    Message('note_on', channel=3, note=77, velocity=70, time=0),
    Message('note_on', channel=9, note=70, velocity=71, time=4),
    Message('note_on', channel=7, note=49, velocity=42, time=1),
    Message('note_off', channel=9, note=70, velocity=64, time=5),
    Message('note_off', channel=3, note=77, velocity=64, time=8),
    Message('note_off', channel=0, note=49, velocity=64, time=7),
    MetaMessage('lyrics', text='dev', time=1),
    Message('note_on', channel=3, note=80, velocity=77, time=0),
    Message('note_on', channel=9, note=42, velocity=62, time=2),
    Message('note_on', channel=9, note=70, velocity=77, time=0),
    Message('note_on', channel=0, note=49, velocity=82, time=1),
    Message('note_off', channel=9, note=42, velocity=64, time=5),
    Message('note_off', channel=9, note=70, velocity=64, time=0),
    Message('note_off', channel=7, note=49, velocity=64, time=15),
    Message('note_on', channel=9, note=70, velocity=32, time=3),
    Message('note_on', channel=7, note=49, velocity=50, time=1),
    Message('note_off', channel=9, note=70, velocity=64, time=5),
    Message('note_off', channel=0, note=61, velocity=64, time=9),
    Message('note_off', channel=3, note=80, velocity=64, time=5),
    Message('note_on', channel=9, note=42, velocity=81, time=3),
    Message('note_on', channel=9, note=70, velocity=44, time=1),
    Message('note_on', channel=0, note=61, velocity=74, time=1),
    MetaMessage('lyrics', text='il; ', time=2),
    MetaMessage('lyrics', text='\r', time=0),
    Message('note_on', channel=3, note=77, velocity=66, time=0),
    Message('note_off', channel=9, note=42, velocity=64, time=2),
    Message('note_off', channel=9, note=70, velocity=64, time=1),
    Message('note_off', channel=7, note=61, velocity=64, time=9),
    Message('note_off', channel=0, note=68, velocity=64, time=8),
    Message('note_on', channel=9, note=70, velocity=58, time=1),
    Message('note_on', channel=7, note=61, velocity=42, time=1),
    Message('note_off', channel=9, note=70, velocity=64, time=5),
    MetaMessage('lyrics', text='\n', time=4),
    Message('note_on', channel=9, note=46, velocity=81, time=13),
    Message('note_on', channel=0, note=68, velocity=71, time=0),
    Message('note_off', channel=7, note=68, velocity=64, time=0),
    Message('note_on', channel=9, note=70, velocity=80, time=1),
    Message('note_off', channel=3, note=77, velocity=64, time=4),
    Message('note_off', channel=9, note=46, velocity=64, time=1),
    Message('note_off', channel=9, note=70, velocity=64, time=1),
    Message('note_on', channel=7, note=68, velocity=39, time=17),
    Message('note_on', channel=9, note=70, velocity=38, time=1),
    Message('note_off', channel=9, note=70, velocity=64, time=6),
    Message('note_off', channel=0, note=61, velocity=64, time=6),
    MetaMessage('lyrics', text='it ', time=10),
    Message('note_on', channel=3, note=73, velocity=67, time=0),
    Message('note_on', channel=9, note=42, velocity=81, time=1),
    Message('note_on', channel=0, note=61, velocity=69, time=1),
    Message('note_on', channel=9, note=70, velocity=51, time=0),
    Message('note_off', channel=9, note=42, velocity=64, time=5),
    Message('note_off', channel=9, note=70, velocity=64, time=1),
    Message('note_off', channel=7, note=61, velocity=64, time=6),
    Message('note_off', channel=3, note=73, velocity=64, time=3),
    MetaMessage('lyrics', text='was ', time=9),
    Message('note_on', channel=3, note=73, velocity=66, time=0),
    Message('note_on', channel=7, note=61, velocity=37, time=0),
    Message('note_on', channel=9, note=70, velocity=51, time=0),
    Message('note_off', channel=9, note=70, velocity=64, time=6),
    Message('note_off', channel=3, note=73, velocity=64, time=14),
    Message('note_on', channel=9, note=42, velocity=84, time=3),
    Message('note_off', channel=0, note=68, velocity=64, time=1),
    Message('note_on', channel=9, note=70, velocity=80, time=0),
    MetaMessage('lyrics', text='warm ', time=2),
    Message('note_on', channel=3, note=82, velocity=79, time=0),
    Message('note_on', channel=0, note=72, velocity=71, time=0),
    Message('note_off', channel=9, note=42, velocity=64, time=3),
    Message('note_off', channel=9, note=70, velocity=64, time=1),
    Message('note_off', channel=7, note=68, velocity=64, time=18),
    Message('note_on', channel=9, note=70, velocity=43, time=0),
    Message('note_on', channel=7, note=72, velocity=39, time=2),
    Message('note_off', channel=9, note=70, velocity=64, time=4),
    Message('note_on', channel=9, note=42, velocity=40, time=17),
    Message('note_on', channel=9, note=70, velocity=43, time=1),
    Message('note_off', channel=0, note=72, velocity=64, time=2),
    Message('note_on', channel=0, note=68, velocity=61, time=0),
    Message('note_off', channel=9, note=42, velocity=64, time=3),
    Message('note_off', channel=9, note=70, velocity=64, time=1),
    Message('note_on', channel=9, note=70, velocity=67, time=18),
    Message('note_off', channel=7, note=72, velocity=64, time=2),
    Message('note_on', channel=7, note=68, velocity=29, time=0),
    Message('note_off', channel=9, note=70, velocity=64, time=4),
    Message('note_off', channel=0, note=61, velocity=64, time=11),
    Message('note_on', channel=9, note=46, velocity=26, time=6),
    Message('note_on', channel=9, note=70, velocity=83, time=1),
    Message('note_on', channel=0, note=61, velocity=60, time=1),
    Message('note_off', channel=9, note=46, velocity=64, time=4),
    Message('note_off', channel=9, note=70, velocity=64, time=1),
    Message('note_off', channel=7, note=61, velocity=64, time=11),
    Message('note_on', channel=9, note=70, velocity=22, time=7),
    Message('note_on', channel=7, note=61, velocity=28, time=1),
    Message('note_off', channel=9, note=70, velocity=64, time=5),
    Message('note_on', channel=9, note=46, velocity=69, time=17),
    Message('note_on', channel=9, note=70, velocity=58, time=1),
    MetaMessage('lyrics', text='in ', time=1),
    Message('note_on', channel=3, note=80, velocity=82, time=0),
    Message('note_off', channel=3, note=82, velocity=64, time=1),
    Message('note_off', channel=9, note=46, velocity=64, time=3),
    Message('note_off', channel=9, note=70, velocity=64, time=1),
    Message('note_on', channel=9, note=70, velocity=75, time=18),
    Message('note_off', channel=9, note=70, velocity=64, time=6),
    Message('note_on', channel=9, note=42, velocity=84, time=17),
    Message('note_on', channel=9, note=70, velocity=51, time=1),
    MetaMessage('lyrics', text='the ', time=2),
    Message('note_off', channel=3, note=80, velocity=64, time=0),
    Message('note_on', channel=3, note=77, velocity=77, time=0),
    Message('note_on', channel=0, note=54, velocity=74, time=2),
    Message('note_off', channel=9, note=42, velocity=64, time=1),
    Message('note_off', channel=9, note=70, velocity=64, time=1),
    Message('note_on', channel=9, note=70, velocity=21, time=18),
    Message('note_on', channel=7, note=54, velocity=42, time=4),
    Message('note_off', channel=9, note=70, velocity=64, time=2),
    Message('note_off', channel=0, note=61, velocity=64, time=14),
    Message('note_on', channel=9, note=42, velocity=78, time=3),
    Message('note_on', channel=9, note=70, velocity=42, time=1),
    Message('note_off', channel=3, note=77, velocity=64, time=2),
    Message('note_on', channel=0, note=61, velocity=67, time=0),
    Message('note_off', channel=9, note=42, velocity=64, time=3),
    Message('note_off', channel=9, note=70, velocity=64, time=1),
    MetaMessage('lyrics', text='night, ', time=6),
    MetaMessage('lyrics', text='\r', time=0),
    Message('note_on', channel=3, note=75, velocity=71, time=0),
    Message('note_off', channel=0, note=68, velocity=64, time=2),
    Message('note_off', channel=7, note=61, velocity=64, time=6),
    Message('note_on', channel=9, note=70, velocity=43, time=4),
    Message('note_on', channel=7, note=61, velocity=35, time=2),
    Message('note_off', channel=9, note=70, velocity=64, time=4),
    Message('note_off', channel=7, note=68, velocity=64, time=8),
    Message('note_on', channel=9, note=46, velocity=60, time=9),
    Message('note_on', channel=9, note=70, velocity=71, time=1),
    Message('note_on', channel=0, note=68, velocity=71, time=3),
    Message('note_off', channel=9, note=46, velocity=64, time=2),
    Message('note_off', channel=9, note=70, velocity=64, time=1),
    Message('note_on', channel=9, note=70, velocity=36, time=18),
    Message('note_on', channel=7, note=68, velocity=39, time=3),
    Message('note_off', channel=9, note=70, velocity=64, time=3),
    Message('note_on', channel=9, note=42, velocity=78, time=17),
    Message('note_on', channel=9, note=70, velocity=43, time=1),
    Message('note_off', channel=9, note=42, velocity=64, time=5),
    Message('note_off', channel=9, note=70, velocity=64, time=1),
    Message('note_off', channel=3, note=75, velocity=64, time=3),
    Message('note_on', channel=3, note=73, velocity=57, time=3),
    Message('note_on', channel=9, note=70, velocity=58, time=12),
    Message('note_off', channel=9, note=70, velocity=64, time=6),
    Message('note_off', channel=0, note=61, velocity=64, time=8),
    Message('note_on', channel=9, note=42, velocity=92, time=9),
    Message('note_on', channel=9, note=70, velocity=61, time=1),
    Message('note_on', channel=0, note=61, velocity=70, time=2),
    Message('note_off', channel=9, note=42, velocity=64, time=3),
    Message('note_off', channel=9, note=70, velocity=64, time=1),
    Message('note_off', channel=7, note=61, velocity=64, time=8),
    Message('note_on', channel=9, note=42, velocity=50, time=9),
    Message('note_on', channel=9, note=70, velocity=34, time=1),
    Message('note_on', channel=7, note=61, velocity=38, time=2),
    Message('note_off', channel=9, note=42, velocity=64, time=3),
    Message('note_off', channel=9, note=70, velocity=64, time=1),
    Message('note_off', channel=0, note=68, velocity=64, time=7),
    Message('note_on', channel=9, note=42, velocity=58, time=10),
    Message('note_on', channel=9, note=70, velocity=47, time=1),
    Message('note_on', channel=0, note=68, velocity=74, time=2),
    Message('note_off', channel=9, note=42, velocity=64, time=3),
    Message('note_off', channel=9, note=70, velocity=64, time=1),
    Message('note_off', channel=7, note=68, velocity=64, time=7),
    Message('note_on', channel=9, note=70, velocity=65, time=11),
    Message('note_on', channel=7, note=68, velocity=42, time=2),
    Message('note_off', channel=9, note=70, velocity=64, time=4),
    Message('note_on', channel=9, note=46, velocity=60, time=17),
    Message('note_on', channel=9, note=70, velocity=67, time=1),
    Message('note_off', channel=9, note=46, velocity=64, time=5),
    Message('note_off', channel=9, note=70, velocity=64, time=1),
    Message('note_off', channel=0, note=54, velocity=64, time=14),
    Message('note_on', channel=9, note=70, velocity=36, time=4),
    Message('note_off', channel=9, note=70, velocity=64, time=6),
    Message('note_off', channel=0, note=49, velocity=64, time=4),
    Message('note_off', channel=7, note=54, velocity=64, time=10),
    Message('note_on', channel=0, note=54, velocity=64, time=3),
    Message('note_on', channel=9, note=70, velocity=43, time=1),
    Message('note_off', channel=9, note=70, velocity=64, time=6),
    Message('note_off', channel=7, note=49, velocity=64, time=4),
    Message('note_off', channel=3, note=73, velocity=64, time=2),
    Message('note_on', channel=7, note=54, velocity=32, time=11),
    Message('note_on', channel=9, note=70, velocity=71, time=1),
    Message('note_off', channel=9, note=70, velocity=64, time=6),
    Message('note_off', channel=0, note=54, velocity=64, time=13),
    Message('note_on', channel=9, note=42, velocity=92, time=4),
    Message('note_on', channel=0, note=54, velocity=80, time=1),
    Message('note_on', channel=9, note=70, velocity=77, time=0),
    Message('note_off', channel=9, note=42, velocity=64, time=5),
    Message('note_off', channel=9, note=70, velocity=64, time=1),
    Message('note_off', channel=7, note=54, velocity=64, time=13),
    Message('note_on', channel=7, note=54, velocity=48, time=5),
    Message('note_on', channel=9, note=70, velocity=32, time=0),
    Message('note_off', channel=9, note=70, velocity=64, time=6),
    Message('note_off', channel=0, note=61, velocity=64, time=13),
    Message('note_off', channel=0, note=68, velocity=64, time=1),
    Message('note_on', channel=0, note=61, velocity=57, time=2),
    Message('note_on', channel=9, note=42, velocity=54, time=1),
    Message('note_on', channel=9, note=70, velocity=44, time=1),
    Message('note_off', channel=9, note=42, velocity=64, time=5),
    Message('note_off', channel=9, note=70, velocity=64, time=1),
    Message('note_off', channel=7, note=61, velocity=64, time=13),
    Message('note_off', channel=7, note=68, velocity=64, time=1),
    Message('note_on', channel=7, note=61, velocity=25, time=2),
    Message('note_on', channel=9, note=70, velocity=58, time=2),
    Message('note_off', channel=9, note=70, velocity=64, time=6),
    Message('note_on', channel=9, note=46, velocity=81, time=17),
    Message('note_on', channel=0, note=68, velocity=74, time=1),
    Message('note_on', channel=9, note=70, velocity=80, time=0),
    Message('note_off', channel=9, note=46, velocity=64, time=5),
    Message('note_off', channel=9, note=70, velocity=64, time=1),
    Message('note_on', channel=7, note=68, velocity=42, time=18),
    Message('note_on', channel=9, note=70, velocity=38, time=0),
    Message('note_off', channel=9, note=70, velocity=64, time=6),
    MetaMessage('lyrics', text='I ', time=3),
    Message('note_on', channel=3, note=73, velocity=57, time=0),
    Message('note_off', channel=0, note=61, velocity=64, time=9),
    Message('note_on', channel=9, note=42, velocity=66, time=5),
    Message('note_on', channel=9, note=70, velocity=51, time=1),
    Message('note_on', channel=0, note=61, velocity=71, time=1),
    Message('note_off', channel=3, note=73, velocity=64, time=2),
    Message('note_off', channel=9, note=42, velocity=64, time=2),
    Message('note_off', channel=9, note=70, velocity=64, time=1),
    MetaMessage('lyrics', text='was ', time=6),
    Message('note_on', channel=3, note=73, velocity=67, time=0),
    Message('note_off', channel=7, note=61, velocity=64, time=6),
    Message('note_on', channel=9, note=70, velocity=51, time=6),
    Message('note_on', channel=7, note=61, velocity=39, time=1),
    Message('note_off', channel=9, note=70, velocity=64, time=5),
    Message('note_off', channel=3, note=73, velocity=64, time=12),
    Message('note_off', channel=0, note=68, velocity=64, time=0),
    Message('note_on', channel=9, note=42, velocity=88, time=5),
    Message('note_on', channel=9, note=70, velocity=80, time=1),
    Message('note_on', channel=0, note=72, velocity=75, time=1),
    MetaMessage('lyrics', text='cold ', time=4),
    Message('note_on', channel=3, note=82, velocity=73, time=0),
    Message('note_off', channel=9, note=42, velocity=64, time=0),
    Message('note_off', channel=9, note=70, velocity=64, time=1),
    Message('note_off', channel=7, note=68, velocity=64, time=12),
    Message('note_on', channel=9, note=42, velocity=39, time=5),
    Message('note_on', channel=9, note=70, velocity=43, time=1),
    Message('note_on', channel=7, note=72, velocity=43, time=1),
    Message('note_off', channel=9, note=42, velocity=64, time=4),
    Message('note_off', channel=9, note=70, velocity=64, time=1),
    Message('note_off', channel=0, note=72, velocity=64, time=13),
    Message('note_on', channel=9, note=42, velocity=32, time=4),
    Message('note_on', channel=9, note=70, velocity=43, time=1),
    Message('note_on', channel=0, note=68, velocity=74, time=2),
    Message('note_off', channel=9, note=42, velocity=64, time=3),
    Message('note_off', channel=9, note=70, velocity=64, time=1),
    Message('note_off', channel=7, note=72, velocity=64, time=13),
    Message('note_on', channel=9, note=70, velocity=67, time=5),
    Message('note_on', channel=7, note=68, velocity=42, time=2),
    Message('note_off', channel=9, note=70, velocity=64, time=4),
    Message('note_off', channel=0, note=61, velocity=64, time=7),
    Message('note_on', channel=9, note=46, velocity=56, time=10),
    Message('note_on', channel=9, note=70, velocity=83, time=1),
    Message('note_on', channel=0, note=61, velocity=67, time=1),
    Message('note_off', channel=9, note=46, velocity=64, time=4),
    Message('note_off', channel=9, note=70, velocity=64, time=1),
    Message('note_off', channel=7, note=61, velocity=64, time=7),
    Message('note_off', channel=3, note=82, velocity=64, time=4),
    Message('note_on', channel=9, note=70, velocity=22, time=7),
    MetaMessage('lyrics', text='as ', time=1),
    Message('note_on', channel=3, note=80, velocity=74, time=0),
    Message('note_on', channel=7, note=61, velocity=35, time=0),
    Message('note_off', channel=9, note=70, velocity=64, time=5),
    Message('note_off', channel=0, note=61, velocity=64, time=7),
    Message('note_on', channel=9, note=46, velocity=81, time=10),
    Message('note_on', channel=0, note=61, velocity=74, time=1),
    Message('note_on', channel=9, note=70, velocity=58, time=0),
    Message('note_off', channel=9, note=46, velocity=64, time=5),
    Message('note_off', channel=9, note=70, velocity=64, time=1),
    Message('note_off', channel=7, note=61, velocity=64, time=7),
    Message('note_off', channel=3, note=80, velocity=64, time=6),
    MetaMessage('lyrics', text='a ', time=4),
    Message('note_on', channel=3, note=77, velocity=65, time=0),
    Message('note_on', channel=7, note=61, velocity=42, time=1),
    Message('note_on', channel=9, note=70, velocity=75, time=0),
    Message('note_off', channel=9, note=70, velocity=64, time=6),
    Message('note_on', channel=9, note=42, velocity=72, time=17),
    Message('note_on', channel=9, note=70, velocity=51, time=1),
    Message('note_on', channel=0, note=49, velocity=86, time=1),
    Message('note_off', channel=9, note=42, velocity=64, time=4),
    Message('note_off', channel=9, note=70, velocity=64, time=1),
    Message('note_off', channel=0, note=68, velocity=64, time=17),
    Message('note_on', channel=9, note=70, velocity=21, time=1),
    Message('note_off', channel=3, note=77, velocity=64, time=1),
    Message('note_on', channel=7, note=49, velocity=54, time=0),
    MetaMessage('lyrics', text='stone, ', time=2),
    Message('note_on', channel=3, note=75, velocity=65, time=0),
    Message('note_off', channel=9, note=70, velocity=64, time=3),
    Message('note_off', channel=0, note=61, velocity=64, time=8),
    Message('note_on', channel=9, note=42, velocity=66, time=9),
    Message('note_off', channel=7, note=68, velocity=64, time=0),
    Message('note_on', channel=9, note=70, velocity=42, time=1),
    Message('note_on', channel=0, note=61, velocity=73, time=2),
    Message('note_off', channel=9, note=42, velocity=64, time=3),
    Message('note_off', channel=9, note=70, velocity=64, time=1),
    Message('note_off', channel=7, note=61, velocity=64, time=8),
    Message('note_on', channel=9, note=70, velocity=43, time=10),
    Message('note_on', channel=7, note=61, velocity=41, time=2),
    Message('note_off', channel=9, note=70, velocity=64, time=4),
    Message('note_off', channel=3, note=75, velocity=64, time=13),
    Message('note_on', channel=3, note=73, velocity=46, time=0),
    Message('note_on', channel=9, note=46, velocity=81, time=4),
    Message('note_on', channel=9, note=70, velocity=71, time=1),
    Message('note_on', channel=0, note=68, velocity=70, time=1),
    Message('note_off', channel=9, note=46, velocity=64, time=4),
    Message('note_off', channel=9, note=70, velocity=64, time=1),
    Message('note_on', channel=9, note=70, velocity=36, time=18),
    Message('note_on', channel=7, note=68, velocity=38, time=1),
    Message('note_off', channel=9, note=70, velocity=64, time=5),
    Message('note_on', channel=9, note=42, velocity=66, time=17),
    Message('note_on', channel=9, note=70, velocity=43, time=1),
    Message('note_off', channel=9, note=42, velocity=64, time=5),
    Message('note_off', channel=9, note=70, velocity=64, time=1),
    Message('note_on', channel=9, note=70, velocity=58, time=18),
    Message('note_off', channel=9, note=70, velocity=64, time=6),
    Message('note_off', channel=0, note=61, velocity=64, time=4),
    Message('note_on', channel=9, note=42, velocity=84, time=13),
    Message('note_on', channel=9, note=70, velocity=61, time=1),
    Message('note_on', channel=0, note=61, velocity=67, time=2),
    Message('note_off', channel=3, note=73, velocity=64, time=1),
    Message('note_off', channel=9, note=42, velocity=64, time=2),
    Message('note_off', channel=9, note=70, velocity=64, time=1),
    Message('note_off', channel=7, note=61, velocity=64, time=4),
    Message('note_on', channel=9, note=70, velocity=34, time=14),
    Message('note_on', channel=7, note=61, velocity=35, time=2),
    Message('note_off', channel=9, note=70, velocity=64, time=4),
    Message('note_off', channel=0, note=68, velocity=64, time=9),
    Message('note_on', channel=9, note=42, velocity=72, time=8),
    Message('note_on', channel=9, note=70, velocity=47, time=1),
    Message('note_on', channel=0, note=68, velocity=72, time=1),
    Message('note_off', channel=9, note=42, velocity=64, time=4),
    Message('note_off', channel=9, note=70, velocity=64, time=1),
    Message('note_off', channel=7, note=68, velocity=64, time=9),
    Message('note_on', channel=9, note=70, velocity=65, time=9),
    Message('note_on', channel=7, note=68, velocity=40, time=1),
    Message('note_off', channel=9, note=70, velocity=64, time=5),
    Message('note_on', channel=9, note=46, velocity=75, time=18),
    Message('note_on', channel=9, note=70, velocity=67, time=0),
    Message('note_off', channel=9, note=46, velocity=64, time=6),
    Message('note_off', channel=9, note=70, velocity=64, time=0),
    Message('note_on', channel=9, note=70, velocity=36, time=18),
    Message('note_off', channel=0, note=49, velocity=64, time=3),
    Message('note_off', channel=9, note=70, velocity=64, time=3),
    Message('note_on', channel=9, note=42, velocity=69, time=18),
    Message('note_on', channel=9, note=70, velocity=43, time=0),
    Message('note_on', channel=0, note=49, velocity=64, time=1),
    Message('note_off', channel=7, note=49, velocity=64, time=2),
    Message('note_off', channel=9, note=42, velocity=64, time=3),
    Message('note_off', channel=9, note=70, velocity=64, time=0),
    Message('note_on', channel=9, note=70, velocity=71, time=18),
    Message('note_on', channel=7, note=49, velocity=32, time=1),
    Message('note_off', channel=9, note=70, velocity=64, time=5),
    Message('note_off', channel=0, note=49, velocity=64, time=13),
    Message('note_on', channel=0, note=49, velocity=82, time=4),
    Message('note_on', channel=9, note=42, velocity=92, time=1),
    Message('note_on', channel=9, note=70, velocity=77, time=0),
    Message('note_off', channel=9, note=42, velocity=64, time=6),
    Message('note_off', channel=9, note=70, velocity=64, time=0),
    Message('note_off', channel=7, note=49, velocity=64, time=13),
    Message('note_on', channel=7, note=49, velocity=50, time=4),
    Message('note_on', channel=9, note=70, velocity=32, time=1),
    Message('note_off', channel=9, note=70, velocity=64, time=6),
    Message('note_off', channel=0, note=61, velocity=64, time=7),
    Message('note_off', channel=0, note=68, velocity=64, time=1),
    MetaMessage('lyrics', text='mm. ', time=8),
    MetaMessage('lyrics', text='\r', time=0),
    Message('note_on', channel=3, note=75, velocity=60, time=0),
    Message('note_on', channel=9, note=42, velocity=37, time=2),
    Message('note_on', channel=9, note=70, velocity=44, time=0),
    Message('note_on', channel=0, note=61, velocity=74, time=1),
    Message('note_off', channel=9, note=42, velocity=64, time=5),
    Message('note_off', channel=9, note=70, velocity=64, time=0),
    Message('note_off', channel=7, note=61, velocity=64, time=7),
    Message('note_off', channel=7, note=68, velocity=64, time=1),
    Message('note_on', channel=9, note=70, velocity=58, time=10),
    Message('note_on', channel=7, note=61, velocity=42, time=1),
    Message('note_off', channel=9, note=70, velocity=64, time=5),
    Message('note_off', channel=0, note=54, velocity=64, time=10),
    Message('note_on', channel=9, note=46, velocity=54, time=8),
    Message('note_on', channel=9, note=70, velocity=80, time=0),
    Message('note_off', channel=3, note=75, velocity=64, time=1),
    Message('note_on', channel=3, note=73, velocity=51, time=0),
    Message('note_on', channel=0, note=68, velocity=73, time=0),
    Message('note_off', channel=9, note=46, velocity=64, time=5),
    Message('note_off', channel=9, note=70, velocity=64, time=0),
    MetaMessage('lyrics', text='\n', time=9),
    Message('note_off', channel=7, note=54, velocity=64, time=1),
    Message('note_on', channel=9, note=70, velocity=38, time=8),
    Message('note_on', channel=7, note=68, velocity=41, time=1),
    Message('note_off', channel=9, note=70, velocity=64, time=5),
    Message('note_off', channel=0, note=61, velocity=64, time=6),
    Message('note_on', channel=9, note=42, velocity=84, time=12),
    Message('note_on', channel=9, note=70, velocity=51, time=0),
    Message('note_on', channel=0, note=61, velocity=71, time=2),
    Message('note_off', channel=9, note=42, velocity=64, time=4),
    Message('note_off', channel=9, note=70, velocity=64, time=0),
    Message('note_off', channel=3, note=73, velocity=64, time=4),
    Message('note_off', channel=7, note=61, velocity=64, time=2),
    Message('note_on', channel=9, note=70, velocity=51, time=12),
    Message('note_on', channel=7, note=61, velocity=39, time=2),
    Message('note_off', channel=9, note=70, velocity=64, time=4),
    Message('note_off', channel=0, note=68, velocity=64, time=6),
    Message('note_on', channel=9, note=42, velocity=92, time=12),
    Message('note_on', channel=9, note=70, velocity=80, time=0),
    Message('note_on', channel=0, note=72, velocity=71, time=2),
    Message('note_off', channel=9, note=42, velocity=64, time=4),
    Message('note_off', channel=9, note=70, velocity=64, time=0),
    Message('note_off', channel=7, note=68, velocity=64, time=6),
    Message('note_on', channel=9, note=70, velocity=43, time=12),
    Message('note_on', channel=7, note=72, velocity=39, time=2),
    Message('note_off', channel=9, note=70, velocity=64, time=4),
    Message('note_off', channel=0, note=72, velocity=64, time=13),
    Message('note_on', channel=4, note=61, velocity=69, time=3),
    Message('note_on', channel=4, note=56, velocity=65, time=0),
    MetaMessage('lyrics', text='But ', time=1),
    Message('note_on', channel=3, note=73, velocity=84, time=0),
    Message('note_on', channel=9, note=42, velocity=62, time=1),
    Message('note_on', channel=9, note=70, velocity=43, time=0),
    Message('note_on', channel=0, note=68, velocity=74, time=1),
    Message('note_off', channel=9, note=42, velocity=64, time=5),
    Message('note_off', channel=9, note=70, velocity=64, time=0),
    Message('note_off', channel=7, note=72, velocity=64, time=13),
    Message('note_on', channel=9, note=70, velocity=67, time=5),
    Message('note_on', channel=7, note=68, velocity=42, time=1),
    Message('note_off', channel=9, note=70, velocity=64, time=5),
    Message('note_off', channel=3, note=73, velocity=64, time=3),
    Message('note_off', channel=0, note=61, velocity=64, time=5),
    Message('note_off', channel=4, note=56, velocity=64, time=8),
    Message('note_off', channel=4, note=61, velocity=64, time=0),
    Message('note_on', channel=4, note=61, velocity=73, time=1),
    Message('note_on', channel=4, note=56, velocity=67, time=0),
    MetaMessage('lyrics', text='I ', time=1),
    Message('note_on', channel=3, note=73, velocity=75, time=0),
    Message('note_on', channel=9, note=46, velocity=50, time=0),
    Message('note_on', channel=0, note=61, velocity=71, time=0),
    Message('note_on', channel=9, note=70, velocity=83, time=0),
    Message('note_off', channel=9, note=46, velocity=64, time=6),
    Message('note_off', channel=9, note=70, velocity=64, time=0),
    Message('note_off', channel=7, note=61, velocity=64, time=8),
    Message('note_on', channel=7, note=61, velocity=39, time=10),
    Message('note_on', channel=9, note=70, velocity=22, time=0),
    Message('note_off', channel=9, note=70, velocity=64, time=6),
    Message('note_off', channel=0, note=61, velocity=64, time=7),
    Message('note_off', channel=3, note=73, velocity=64, time=2),
    Message('note_off', channel=4, note=56, velocity=64, time=5),
    Message('note_off', channel=4, note=61, velocity=64, time=0),
    Message('note_on', channel=4, note=56, velocity=64, time=2),
    Message('note_on', channel=4, note=60, velocity=57, time=1),
    Message('note_on', channel=4, note=63, velocity=67, time=0),
    Message('note_on', channel=9, note=46, velocity=75, time=1),
    Message('note_on', channel=0, note=61, velocity=74, time=0),
    Message('note_on', channel=9, note=70, velocity=58, time=0),
    MetaMessage('lyrics', text='still ', time=1),
    Message('note_on', channel=3, note=80, velocity=89, time=0),
    Message('note_off', channel=9, note=46, velocity=64, time=5),
    Message('note_off', channel=9, note=70, velocity=64, time=0),
    Message('note_off', channel=7, note=61, velocity=64, time=7),
    Message('note_on', channel=7, note=61, velocity=42, time=11),
    Message('note_on', channel=9, note=70, velocity=75, time=0),
    Message('note_off', channel=9, note=70, velocity=64, time=6),
    Message('note_off', channel=0, note=49, velocity=64, time=13),
    Message('note_off', channel=0, note=61, velocity=64, time=1),
    Message('note_off', channel=0, note=68, velocity=64, time=1),
    Message('note_on', channel=9, note=42, velocity=64, time=3),
    Message('note_on', channel=9, note=70, velocity=51, time=0),
    Message('note_on', channel=0, note=56, velocity=88, time=1),
    Message('pitchwheel', channel=0, pitch=-175, time=1),
    Message('note_off', channel=9, note=42, velocity=64, time=4),
    Message('note_off', channel=9, note=70, velocity=64, time=0),
    Message('note_off', channel=7, note=49, velocity=64, time=13),
    Message('note_off', channel=7, note=61, velocity=64, time=1),
    Message('note_off', channel=7, note=68, velocity=64, time=1),
    Message('note_on', channel=9, note=70, velocity=21, time=3),
    Message('note_on', channel=7, note=56, velocity=56, time=1),
    Message('pitchwheel', channel=7, pitch=-175, time=1),
    Message('note_off', channel=9, note=70, velocity=64, time=4),
    Message('pitchwheel', channel=0, pitch=0, time=16),
    Message('note_on', channel=9, note=42, velocity=72, time=2),
    Message('note_on', channel=0, note=63, velocity=89, time=0),
    Message('note_on', channel=9, note=70, velocity=42, time=0),
    Message('note_off', channel=9, note=42, velocity=64, time=6),
    Message('note_off', channel=9, note=70, velocity=64, time=0),
    Message('pitchwheel', channel=7, pitch=0, time=16),
    Message('note_on', channel=7, note=63, velocity=57, time=2),
    Message('note_on', channel=9, note=70, velocity=43, time=0),
    Message('note_off', channel=9, note=70, velocity=64, time=6),
    Message('note_on', channel=9, note=46, velocity=69, time=17),
    Message('note_on', channel=9, note=70, velocity=71, time=1),
    Message('note_on', channel=0, note=68, velocity=70, time=1),
    Message('note_off', channel=9, note=46, velocity=64, time=4),
    Message('note_off', channel=9, note=70, velocity=64, time=1),
    Message('note_on', channel=9, note=70, velocity=36, time=18),
    Message('note_on', channel=7, note=68, velocity=38, time=1),
    Message('note_off', channel=9, note=70, velocity=64, time=5),
    Message('note_off', channel=0, note=56, velocity=64, time=5),
    Message('note_on', channel=0, note=56, velocity=83, time=11),
    Message('note_on', channel=9, note=42, velocity=64, time=1),
    Message('note_on', channel=9, note=70, velocity=43, time=1),
    Message('note_off', channel=9, note=42, velocity=64, time=5),
    Message('note_off', channel=9, note=70, velocity=64, time=1),
    Message('note_off', channel=7, note=56, velocity=64, time=5),
    Message('note_off', channel=3, note=80, velocity=64, time=2),
    Message('note_on', channel=7, note=56, velocity=51, time=9),
    Message('note_on', channel=9, note=70, velocity=58, time=2),
    Message('note_off', channel=9, note=70, velocity=64, time=6),
    Message('note_off', channel=0, note=63, velocity=64, time=6),
    Message('note_on', channel=9, note=42, velocity=64, time=11),
    Message('note_on', channel=0, note=63, velocity=93, time=0),
    Message('note_on', channel=9, note=70, velocity=61, time=1),
    Message('note_off', channel=9, note=42, velocity=64, time=5),
    Message('note_off', channel=9, note=70, velocity=64, time=1),
    Message('note_off', channel=7, note=63, velocity=64, time=6),
    Message('note_on', channel=7, note=63, velocity=61, time=11),
    Message('note_on', channel=9, note=70, velocity=34, time=1),
    Message('note_off', channel=9, note=70, velocity=64, time=6),
    Message('note_off', channel=0, note=68, velocity=64, time=9),
    MetaMessage('lyrics', text='have', time=3),
    Message('note_on', channel=3, note=78, velocity=79, time=0),
    Message('note_off', channel=4, note=60, velocity=64, time=2),
    Message('note_off', channel=4, note=56, velocity=64, time=0),
    Message('note_off', channel=4, note=63, velocity=64, time=1),
    Message('note_on', channel=4, note=56, velocity=64, time=1),
    Message('note_on', channel=0, note=68, velocity=67, time=0),
    Message('note_on', channel=4, note=66, velocity=62, time=1),
    Message('note_on', channel=4, note=61, velocity=62, time=0),
    Message('note_on', channel=9, note=42, velocity=66, time=0),
    Message('note_on', channel=9, note=70, velocity=47, time=1),
    Message('note_off', channel=9, note=42, velocity=64, time=5),
    Message('note_off', channel=9, note=70, velocity=64, time=1),
    Message('note_off', channel=7, note=68, velocity=64, time=9),
    Message('note_on', channel=7, note=68, velocity=35, time=7),
    Message('note_on', channel=9, note=70, velocity=65, time=2),
    Message('note_off', channel=9, note=70, velocity=64, time=6),
    Message('note_off', channel=0, note=56, velocity=64, time=11),
    MetaMessage('lyrics', text="n't ", time=5),
    Message('note_off', channel=3, note=78, velocity=64, time=0),
    Message('note_on', channel=3, note=77, velocity=83, time=0),
    Message('note_off', channel=4, note=61, velocity=64, time=0),
    Message('note_on', channel=4, note=61, velocity=72, time=1),
    Message('note_on', channel=9, note=46, velocity=72, time=0),
    Message('note_on', channel=0, note=56, velocity=82, time=0),
    Message('note_on', channel=9, note=70, velocity=67, time=1),
    Message('note_off', channel=9, note=46, velocity=64, time=5),
    Message('note_off', channel=9, note=70, velocity=64, time=1),
    Message('note_off', channel=7, note=56, velocity=64, time=11),
    Message('note_on', channel=7, note=56, velocity=50, time=6),
    Message('note_on', channel=9, note=70, velocity=36, time=1),
    Message('note_off', channel=9, note=70, velocity=64, time=6),
    Message('note_off', channel=0, note=68, velocity=64, time=7),
    Message('note_off', channel=3, note=77, velocity=64, time=3),
    Message('note_off', channel=4, note=66, velocity=64, time=7),
    Message('note_on', channel=4, note=65, velocity=69, time=0),
    Message('note_on', channel=9, note=70, velocity=43, time=1),
    Message('note_on', channel=0, note=68, velocity=64, time=1),
    MetaMessage('lyrics', text='found ', time=1),
    MetaMessage('lyrics', text='\r', time=0),
    Message('note_on', channel=3, note=73, velocity=73, time=0),
    Message('note_off', channel=9, note=70, velocity=64, time=4),
    Message('note_off', channel=7, note=68, velocity=64, time=7),
    Message('note_on', channel=9, note=70, velocity=71, time=11),
    Message('note_on', channel=7, note=68, velocity=32, time=1),
    Message('note_off', channel=9, note=70, velocity=64, time=5),
    Message('note_off', channel=0, note=56, velocity=64, time=11),
    Message('note_on', channel=9, note=42, velocity=75, time=6),
    Message('note_off', channel=4, note=56, velocity=64, time=1),
    Message('note_on', channel=0, note=54, velocity=90, time=0),
    Message('note_on', channel=9, note=70, velocity=77, time=0),
    Message('note_on', channel=4, note=58, velocity=59, time=1),
    Message('note_off', channel=9, note=42, velocity=64, time=4),
    Message('note_off', channel=9, note=70, velocity=64, time=1),
    Message('note_off', channel=7, note=56, velocity=64, time=11),
    Message('note_on', channel=7, note=54, velocity=58, time=7),
    Message('note_on', channel=9, note=70, velocity=32, time=0),
    Message('note_off', channel=9, note=70, velocity=64, time=6),
    Message('note_off', channel=0, note=63, velocity=64, time=9),
    Message('note_on', channel=9, note=42, velocity=78, time=8),
    Message('note_on', channel=0, note=63, velocity=79, time=1),
    Message('note_on', channel=9, note=70, velocity=44, time=0),
    Message('note_off', channel=9, note=42, velocity=64, time=5),
    Message('note_off', channel=9, note=70, velocity=64, time=1),
    Message('note_off', channel=7, note=63, velocity=64, time=9),
    Message('note_on', channel=7, note=63, velocity=47, time=9),
    Message('note_on', channel=9, note=70, velocity=58, time=0),
    Message('note_off', channel=0, note=68, velocity=64, time=4),
    Message('note_off', channel=9, note=70, velocity=64, time=2),
    Message('note_on', channel=9, note=46, velocity=54, time=17),
    Message('note_on', channel=0, note=68, velocity=60, time=0),
    Message('note_on', channel=9, note=70, velocity=80, time=1),
    Message('note_off', channel=7, note=68, velocity=64, time=4),
    Message('note_off', channel=9, note=46, velocity=64, time=1),
    Message('note_off', channel=9, note=70, velocity=64, time=1),
    Message('note_off', channel=3, note=73, velocity=64, time=14),
    Message('note_on', channel=7, note=68, velocity=28, time=3),
    Message('note_on', channel=9, note=70, velocity=38, time=1),
    Message('note_off', channel=9, note=70, velocity=64, time=6),
    Message('note_off', channel=0, note=63, velocity=64, time=6),
    Message('note_on', channel=9, note=42, velocity=75, time=11),
    Message('note_on', channel=0, note=63, velocity=71, time=1),
    Message('note_on', channel=9, note=70, velocity=51, time=0),
    Message('note_off', channel=9, note=42, velocity=64, time=5),
    Message('note_off', channel=9, note=70, velocity=64, time=1),
    Message('note_off', channel=7, note=63, velocity=64, time=6),
    Message('note_off', channel=0, note=63, velocity=64, time=11),
    Message('note_on', channel=7, note=63, velocity=39, time=1),
    Message('note_on', channel=9, note=70, velocity=51, time=0),
    Message('note_on', channel=0, note=63, velocity=76, time=1),
    Message('note_off', channel=9, note=70, velocity=64, time=5),
    Message('note_off', channel=0, note=63, velocity=64, time=16),
    Message('note_on', channel=9, note=42, velocity=92, time=1),
    Message('note_off', channel=7, note=63, velocity=64, time=0),
    Message('note_on', channel=9, note=70, velocity=80, time=1),
    Message('note_on', channel=7, note=63, velocity=44, time=1),
    Message('note_on', channel=0, note=63, velocity=72, time=2),
    Message('note_off', channel=9, note=42, velocity=64, time=2),
    Message('note_off', channel=9, note=70, velocity=64, time=1),
    Message('note_off', channel=7, note=63, velocity=64, time=16),
    Message('note_on', channel=9, note=42, velocity=56, time=1),
    Message('note_on', channel=9, note=70, velocity=43, time=1),
    Message('note_off', channel=4, note=65, velocity=64, time=1),
    Message('note_off', channel=4, note=58, velocity=64, time=1),
    Message('note_off', channel=4, note=61, velocity=64, time=0),
    Message('note_on', channel=7, note=63, velocity=40, time=1),
    Message('note_off', channel=9, note=42, velocity=64, time=2),
    Message('note_off', channel=9, note=70, velocity=64, time=1),
    Message('note_off', channel=0, note=68, velocity=64, time=15),
    Message('note_on', channel=9, note=42, velocity=69, time=2),
    MetaMessage('lyrics', text='what ', time=1),
    Message('note_on', channel=3, note=70, velocity=58, time=0),
    Message('note_on', channel=4, note=58, velocity=52, time=0),
    Message('note_on', channel=4, note=66, velocity=55, time=0),
    Message('note_on', channel=4, note=61, velocity=49, time=0),
    Message('note_on', channel=9, note=70, velocity=43, time=0),
    Message('note_on', channel=0, note=68, velocity=77, time=2),
    Message('note_off', channel=9, note=42, velocity=64, time=3),
    Message('note_off', channel=9, note=70, velocity=64, time=1),
    Message('note_off', channel=7, note=68, velocity=64, time=15),
    Message('note_on', channel=9, note=70, velocity=67, time=3),
    Message('note_on', channel=7, note=68, velocity=45, time=2),
    Message('note_off', channel=9, note=70, velocity=64, time=4),
    Message('note_off', channel=3, note=70, velocity=64, time=4),
    Message('note_off', channel=0, note=54, velocity=64, time=10),
    Message('note_off', channel=4, note=61, velocity=64, time=1),
    Message('note_off', channel=4, note=66, velocity=64, time=0),
    Message('note_off', channel=4, note=58, velocity=64, time=0),
    Message('note_on', channel=4, note=61, velocity=75, time=2),
    Message('note_on', channel=4, note=66, velocity=78, time=0),
    Message('note_on', channel=4, note=58, velocity=70, time=0),
    Message('note_on', channel=9, note=46, velocity=40, time=0),
    Message('note_on', channel=9, note=70, velocity=83, time=1),
    MetaMessage('lyrics', text="I'm ", time=2),
    Message('note_on', channel=3, note=70, velocity=78, time=0),
    Message('note_on', channel=0, note=54, velocity=86, time=0),
    Message('note_off', channel=9, note=46, velocity=64, time=3),
    Message('note_off', channel=9, note=70, velocity=64, time=1),
    Message('note_off', channel=7, note=54, velocity=64, time=14),
    Message('note_on', channel=9, note=70, velocity=22, time=4),
    Message('note_on', channel=7, note=54, velocity=54, time=2),
    Message('note_off', channel=3, note=70, velocity=64, time=4),
    Message('note_off', channel=9, note=70, velocity=64, time=0),
    Message('note_off', channel=4, note=58, velocity=64, time=14),
    Message('note_off', channel=4, note=66, velocity=64, time=0),
    Message('note_off', channel=4, note=61, velocity=64, time=0),
    Message('note_on', channel=4, note=58, velocity=84, time=2),
    Message('note_on', channel=4, note=61, velocity=85, time=0),
    MetaMessage('lyrics', text='look', time=1),
    Message('note_on', channel=3, note=70, velocity=79, time=0),
    Message('note_on', channel=4, note=66, velocity=81, time=0),
    Message('note_on', channel=9, note=46, velocity=54, time=0),
    Message('note_on', channel=0, note=61, velocity=74, time=0),
    Message('note_on', channel=9, note=70, velocity=58, time=1),
    Message('note_off', channel=9, note=46, velocity=64, time=5),
    Message('note_off', channel=9, note=70, velocity=64, time=1),
    Message('note_on', channel=7, note=61, velocity=42, time=17),
    Message('note_on', channel=9, note=70, velocity=75, time=1),
    Message('note_off', channel=9, note=70, velocity=64, time=6),
    Message('note_off', channel=3, note=70, velocity=64, time=9),
    Message('note_off', channel=4, note=58, velocity=64, time=7),
    Message('note_off', channel=4, note=66, velocity=64, time=1),
    Message('note_on', channel=4, note=65, velocity=60, time=0),
    Message('note_on', channel=4, note=56, velocity=60, time=0),
    Message('note_on', channel=9, note=42, velocity=92, time=0),
    MetaMessage('lyrics', text='ing ', time=1),
    Message('note_on', channel=3, note=73, velocity=67, time=0),
    Message('note_on', channel=9, note=70, velocity=51, time=0),
    Message('note_on', channel=0, note=49, velocity=86, time=3),
    Message('note_off', channel=9, note=42, velocity=64, time=2),
    Message('note_off', channel=9, note=70, velocity=64, time=1),
    Message('note_on', channel=9, note=70, velocity=21, time=18),
    Message('note_on', channel=7, note=49, velocity=54, time=3),
    Message('note_off', channel=3, note=73, velocity=64, time=2),
    Message('note_off', channel=9, note=70, velocity=64, time=1),
    Message('note_off', channel=0, note=61, velocity=64, time=9),
    MetaMessage('lyrics', text='for. ', time=6),
    MetaMessage('lyrics', text='\r', time=0),
    Message('note_on', channel=3, note=73, velocity=67, time=0),
    Message('note_off', channel=4, note=56, velocity=64, time=0),
    Message('note_off', channel=4, note=65, velocity=64, time=0),
    Message('note_off', channel=4, note=61, velocity=64, time=0),
    Message('note_on', channel=4, note=56, velocity=64, time=1),
    Message('note_on', channel=4, note=61, velocity=58, time=0),
    Message('note_on', channel=4, note=65, velocity=62, time=0),
    Message('note_on', channel=9, note=42, velocity=84, time=1),
    Message('note_on', channel=0, note=61, velocity=72, time=0),
    Message('note_on', channel=9, note=70, velocity=42, time=1),
    Message('note_off', channel=9, note=42, velocity=64, time=5),
    Message('note_off', channel=9, note=70, velocity=64, time=1),
    Message('note_off', channel=0, note=68, velocity=64, time=3),
    Message('note_off', channel=7, note=61, velocity=64, time=6),
    Message('note_on', channel=7, note=61, velocity=40, time=8),
    Message('note_on', channel=9, note=70, velocity=43, time=1),
    Message('note_off', channel=9, note=70, velocity=64, time=6),
    Message('note_off', channel=7, note=68, velocity=64, time=3),
    Message('note_off', channel=0, note=63, velocity=64, time=8),
    Message('note_on', channel=9, note=46, velocity=56, time=6),
    Message('note_on', channel=0, note=68, velocity=71, time=1),
    Message('note_on', channel=9, note=70, velocity=71, time=0),
    Message('note_off', channel=9, note=46, velocity=64, time=5),
    Message('note_off', channel=9, note=70, velocity=64, time=1),
    Message('note_off', channel=7, note=63, velocity=64, time=11),
    Message('note_on', channel=7, note=68, velocity=39, time=7),
    Message('note_on', channel=9, note=70, velocity=36, time=0),
    Message('note_off', channel=9, note=70, velocity=64, time=6),
    Message('note_off', channel=0, note=49, velocity=64, time=3),
    Message('note_on', channel=9, note=42, velocity=84, time=14),
    Message('note_on', channel=9, note=70, velocity=43, time=1),
    Message('note_on', channel=0, note=49, velocity=79, time=1),
    Message('note_off', channel=9, note=42, velocity=64, time=4),
    Message('note_off', channel=9, note=70, velocity=64, time=1),
    Message('note_off', channel=7, note=49, velocity=64, time=3),
    Message('note_on', channel=9, note=70, velocity=58, time=15),
    Message('note_on', channel=7, note=49, velocity=47, time=1),
    Message('note_off', channel=9, note=70, velocity=64, time=5),
    Message('note_off', channel=0, note=61, velocity=64, time=8),
    Message('note_on', channel=9, note=42, velocity=92, time=9),
    Message('note_on', channel=9, note=70, velocity=61, time=1),
    Message('note_on', channel=0, note=61, velocity=71, time=2),
    Message('note_off', channel=9, note=42, velocity=64, time=3),
    Message('note_off', channel=9, note=70, velocity=64, time=1),
    Message('note_off', channel=7, note=61, velocity=64, time=8),
    Message('note_on', channel=9, note=70, velocity=34, time=10),
    Message('note_on', channel=7, note=61, velocity=39, time=2),
    Message('note_off', channel=9, note=70, velocity=64, time=4),
    Message('note_off', channel=0, note=68, velocity=64, time=6),
    Message('note_on', channel=9, note=42, velocity=66, time=11),
    Message('note_on', channel=9, note=70, velocity=47, time=1),
    Message('note_on', channel=0, note=68, velocity=74, time=2),
    Message('note_off', channel=9, note=42, velocity=64, time=3),
    Message('note_off', channel=9, note=70, velocity=64, time=1),
    Message('note_off', channel=7, note=68, velocity=64, time=6),
    Message('note_on', channel=9, note=70, velocity=65, time=12),
    Message('note_on', channel=7, note=68, velocity=42, time=2),
    Message('note_off', channel=9, note=70, velocity=64, time=4),
    Message('note_off', channel=3, note=73, velocity=64, time=7),
    Message('note_on', channel=9, note=46, velocity=81, time=10),
    Message('note_off', channel=0, note=49, velocity=64, time=0),
    Message('note_on', channel=9, note=70, velocity=67, time=1),
    Message('note_on', channel=0, note=49, velocity=67, time=2),
    Message('note_off', channel=9, note=46, velocity=64, time=3),
    Message('note_off', channel=9, note=70, velocity=64, time=1),
    MetaMessage('lyrics', text='\n', time=3),
    Message('note_off', channel=7, note=49, velocity=64, time=14),
    Message('note_on', channel=9, note=70, velocity=36, time=1),
    Message('note_on', channel=7, note=49, velocity=35, time=2),
    Message('note_off', channel=9, note=70, velocity=64, time=4),
    Message('note_off', channel=0, note=61, velocity=64, time=6),
    Message('note_on', channel=9, note=42, velocity=78, time=11),
    Message('note_on', channel=0, note=61, velocity=67, time=1),
    Message('note_on', channel=9, note=70, velocity=43, time=0),
    Message('note_off', channel=9, note=42, velocity=64, time=5),
    Message('note_off', channel=9, note=70, velocity=64, time=1),
    Message('note_off', channel=7, note=61, velocity=64, time=6),
    Message('note_on', channel=7, note=61, velocity=35, time=12),
    Message('note_on', channel=9, note=70, velocity=71, time=0),
    Message('note_off', channel=9, note=70, velocity=64, time=6),
    Message('note_on', channel=9, note=42, velocity=92, time=17),
    Message('note_off', channel=0, note=49, velocity=64, time=0),
    Message('note_on', channel=9, note=70, velocity=77, time=1),
    Message('note_on', channel=0, note=49, velocity=84, time=1),
    Message('note_off', channel=9, note=42, velocity=64, time=4),
    Message('note_off', channel=9, note=70, velocity=64, time=1),
    Message('note_on', channel=9, note=42, velocity=60, time=17),
    Message('note_off', channel=7, note=49, velocity=64, time=0),
    Message('note_on', channel=9, note=70, velocity=32, time=1),
    Message('note_on', channel=7, note=49, velocity=52, time=1),
    Message('note_off', channel=9, note=42, velocity=64, time=4),
    Message('note_off', channel=9, note=70, velocity=64, time=1),
    Message('note_off', channel=0, note=68, velocity=64, time=1),
    Message('note_off', channel=0, note=61, velocity=64, time=9),
    Message('note_on', channel=9, note=42, velocity=64, time=7),
    Message('note_on', channel=9, note=70, velocity=44, time=1),
    Message('note_on', channel=0, note=61, velocity=71, time=1),
    Message('note_off', channel=4, note=65, velocity=64, time=1),
    Message('note_off', channel=4, note=61, velocity=64, time=0),
    Message('note_off', channel=4, note=56, velocity=64, time=0),
    Message('note_off', channel=9, note=42, velocity=64, time=3),
    Message('note_off', channel=9, note=70, velocity=64, time=1),
    Message('note_off', channel=7, note=68, velocity=64, time=1),
    Message('note_off', channel=7, note=61, velocity=64, time=9),
    Message('note_on', channel=9, note=70, velocity=58, time=8),
    Message('note_on', channel=7, note=61, velocity=39, time=1),
    Message('note_off', channel=9, note=70, velocity=64, time=5),
    Message('note_on', channel=9, note=46, velocity=62, time=17),
    Message('note_on', channel=9, note=70, velocity=80, time=1),
    Message('note_on', channel=0, note=68, velocity=70, time=2),
    Message('note_off', channel=9, note=46, velocity=64, time=3),
    Message('note_off', channel=9, note=70, velocity=64, time=1),
    Message('note_on', channel=9, note=70, velocity=38, time=18),
    Message('note_on', channel=7, note=68, velocity=38, time=2),
    Message('note_off', channel=9, note=70, velocity=64, time=4),
    Message('note_off', channel=0, note=49, velocity=64, time=11),
    Message('note_on', channel=9, note=46, velocity=69, time=6),
    Message('note_on', channel=9, note=70, velocity=51, time=1),
    Message('note_on', channel=0, note=49, velocity=78, time=1),
    Message('note_off', channel=9, note=46, velocity=64, time=4),
    Message('note_off', channel=9, note=70, velocity=64, time=1),
    Message('note_off', channel=7, note=49, velocity=64, time=11),
    Message('note_on', channel=9, note=70, velocity=51, time=7),
    Message('note_on', channel=7, note=49, velocity=46, time=1),
    Message('note_off', channel=9, note=70, velocity=64, time=5),
    Message('note_off', channel=0, note=61, velocity=64, time=9),
    Message('note_on', channel=9, note=42, velocity=81, time=8),
    Message('note_on', channel=9, note=70, velocity=80, time=1),
    Message('note_on', channel=0, note=61, velocity=77, time=2),
    Message('note_off', channel=9, note=42, velocity=64, time=3),
    Message('note_off', channel=9, note=70, velocity=64, time=1),
    Message('note_off', channel=7, note=61, velocity=64, time=9),
    Message('note_on', channel=9, note=70, velocity=43, time=9),
    Message('note_on', channel=7, note=61, velocity=45, time=2),
    Message('note_off', channel=9, note=70, velocity=64, time=4),
    Message('note_off', channel=0, note=68, velocity=64, time=3),
    MetaMessage('lyrics', text='But ', time=14),
    Message('note_on', channel=3, note=73, velocity=74, time=0),
    Message('note_on', channel=4, note=56, velocity=71, time=0),
    Message('note_on', channel=4, note=61, velocity=69, time=0),
    Message('note_on', channel=9, note=42, velocity=84, time=0),
    Message('note_on', channel=0, note=68, velocity=75, time=0),
    Message('note_on', channel=9, note=70, velocity=43, time=1),
    Message('note_off', channel=9, note=42, velocity=64, time=5),
    Message('note_off', channel=9, note=70, velocity=64, time=1),
    Message('note_off', channel=7, note=68, velocity=64, time=3),
    Message('note_off', channel=3, note=73, velocity=64, time=13),
    Message('note_on', channel=7, note=68, velocity=43, time=1),
    Message('note_on', channel=9, note=70, velocity=67, time=1),
    Message('note_off', channel=9, note=70, velocity=64, time=6),
    Message('note_off', channel=0, note=49, velocity=64, time=14),
    MetaMessage('lyrics', text='I ', time=2),
    Message('note_on', channel=3, note=73, velocity=89, time=0),
    Message('note_off', channel=4, note=61, velocity=64, time=0),
    Message('note_off', channel=4, note=56, velocity=64, time=0),
    Message('note_on', channel=4, note=56, velocity=69, time=1),
    Message('note_on', channel=4, note=61, velocity=73, time=0),
    Message('note_on', channel=9, note=46, velocity=78, time=0),
    Message('note_on', channel=9, note=70, velocity=83, time=1),
    Message('note_on', channel=0, note=49, velocity=76, time=2),
    Message('note_off', channel=9, note=46, velocity=64, time=3),
    Message('note_off', channel=9, note=70, velocity=64, time=1),
    Message('note_off', channel=7, note=49, velocity=64, time=14),
    Message('note_on', channel=9, note=70, velocity=22, time=4),
    Message('note_off', channel=3, note=73, velocity=64, time=2),
    Message('note_on', channel=7, note=49, velocity=44, time=0),
    Message('note_off', channel=9, note=70, velocity=64, time=4),
    Message('note_off', channel=0, note=61, velocity=64, time=12),
    MetaMessage('lyrics', text='still ', time=2),
    Message('note_on', channel=3, note=80, velocity=84, time=0),
    Message('note_off', channel=4, note=61, velocity=64, time=2),
    Message('note_off', channel=4, note=56, velocity=64, time=0),
    Message('note_on', channel=4, note=60, velocity=49, time=0),
    Message('note_on', channel=4, note=56, velocity=69, time=1),
    Message('note_on', channel=4, note=63, velocity=71, time=0),
    Message('note_on', channel=9, note=70, velocity=58, time=1),
    Message('note_on', channel=0, note=61, velocity=74, time=2),
    Message('note_off', channel=9, note=70, velocity=64, time=4),
    Message('note_off', channel=7, note=61, velocity=64, time=12),
    Message('note_on', channel=9, note=70, velocity=75, time=6),
    Message('note_on', channel=7, note=61, velocity=42, time=2),
    Message('note_off', channel=9, note=70, velocity=64, time=4),
    Message('note_off', channel=0, note=68, velocity=64, time=5),
    Message('note_off', channel=0, note=49, velocity=64, time=11),
    Message('note_off', channel=0, note=54, velocity=64, time=0),
    Message('note_off', channel=0, note=61, velocity=64, time=0),
    Message('note_on', channel=9, note=42, velocity=92, time=1),
    Message('pitchwheel', channel=0, pitch=103, time=0),
    Message('note_on', channel=9, note=70, velocity=51, time=1),
    Message('note_on', channel=0, note=56, velocity=88, time=1),
    Message('pitchwheel', channel=0, pitch=-175, time=1),
    Message('note_off', channel=9, note=42, velocity=64, time=3),
    Message('note_off', channel=9, note=70, velocity=64, time=1),
    Message('note_off', channel=7, note=68, velocity=64, time=5),
    Message('note_off', channel=7, note=49, velocity=64, time=11),
    Message('note_off', channel=7, note=54, velocity=64, time=0),
    Message('note_off', channel=7, note=61, velocity=64, time=0),
    Message('pitchwheel', channel=7, pitch=103, time=1),
    Message('note_on', channel=9, note=70, velocity=21, time=1),
    Message('note_on', channel=7, note=56, velocity=56, time=1),
    Message('pitchwheel', channel=7, pitch=-175, time=1),
    Message('note_off', channel=9, note=70, velocity=64, time=4),
    Message('pitchwheel', channel=0, pitch=0, time=16),
    Message('note_on', channel=9, note=42, velocity=54, time=1),
    Message('note_on', channel=0, note=63, velocity=89, time=1),
    Message('note_on', channel=9, note=70, velocity=42, time=0),
    Message('note_off', channel=9, note=42, velocity=64, time=5),
    Message('note_off', channel=9, note=70, velocity=64, time=1),
    Message('pitchwheel', channel=7, pitch=0, time=16),
    Message('note_on', channel=7, note=63, velocity=57, time=2),
    Message('note_on', channel=9, note=70, velocity=43, time=0),
    Message('note_off', channel=9, note=70, velocity=64, time=6),
    Message('note_on', channel=9, note=46, velocity=58, time=17),
    Message('note_on', channel=9, note=70, velocity=71, time=1),
    Message('note_on', channel=0, note=68, velocity=70, time=1),
    Message('note_off', channel=9, note=46, velocity=64, time=4),
    Message('note_off', channel=9, note=70, velocity=64, time=1),
    Message('note_on', channel=9, note=70, velocity=36, time=18),
    Message('note_on', channel=7, note=68, velocity=38, time=1),
    Message('note_off', channel=3, note=80, velocity=64, time=5),
    Message('note_off', channel=9, note=70, velocity=64, time=0),
    Message('note_off', channel=0, note=56, velocity=64, time=5),
    Message('note_on', channel=0, note=56, velocity=83, time=11),
    Message('note_on', channel=9, note=42, velocity=75, time=1),
    Message('note_on', channel=9, note=70, velocity=43, time=1),
    Message('note_off', channel=9, note=42, velocity=64, time=5),
    Message('note_off', channel=9, note=70, velocity=64, time=1),
    Message('note_off', channel=7, note=56, velocity=64, time=5),
    Message('note_on', channel=7, note=56, velocity=51, time=11),
    Message('note_on', channel=9, note=70, velocity=58, time=2),
    Message('note_off', channel=9, note=70, velocity=64, time=6),
    Message('note_off', channel=0, note=63, velocity=64, time=6),
    Message('note_on', channel=9, note=42, velocity=84, time=11),
    Message('note_on', channel=0, note=63, velocity=93, time=0),
    Message('note_on', channel=9, note=70, velocity=61, time=1),
    Message('note_off', channel=9, note=42, velocity=64, time=5),
    Message('note_off', channel=9, note=70, velocity=64, time=1),
    Message('note_off', channel=7, note=63, velocity=64, time=6),
    Message('note_on', channel=7, note=63, velocity=61, time=11),
    Message('note_on', channel=9, note=70, velocity=34, time=1),
    Message('note_off', channel=9, note=70, velocity=64, time=6),
    Message('note_off', channel=0, note=68, velocity=64, time=9),
    MetaMessage('lyrics', text='have', time=1),
    Message('note_on', channel=3, note=78, velocity=97, time=0),
    Message('note_off', channel=4, note=56, velocity=64, time=3),
    Message('note_off', channel=4, note=60, velocity=64, time=0),
    Message('note_off', channel=4, note=63, velocity=64, time=1),
    Message('note_on', channel=4, note=61, velocity=60, time=2),
    Message('note_on', channel=4, note=56, velocity=64, time=0),
    Message('note_on', channel=4, note=66, velocity=55, time=0),
    Message('note_on', channel=0, note=68, velocity=67, time=0),
    Message('note_on', channel=9, note=42, velocity=54, time=1),
    Message('note_on', channel=9, note=70, velocity=47, time=1),
    Message('note_off', channel=9, note=42, velocity=64, time=5),
    Message('note_off', channel=9, note=70, velocity=64, time=1),
    Message('note_off', channel=7, note=68, velocity=64, time=9),
    Message('note_on', channel=7, note=68, velocity=35, time=7),
    Message('note_on', channel=9, note=70, velocity=65, time=2),
    Message('note_off', channel=9, note=70, velocity=64, time=6),
    Message('note_off', channel=3, note=78, velocity=64, time=8),
    Message('note_off', channel=0, note=56, velocity=64, time=3),
    MetaMessage('lyrics', text="n't ", time=3),
    Message('note_on', channel=3, note=77, velocity=66, time=0),
    Message('note_off', channel=4, note=66, velocity=64, time=1),
    Message('note_off', channel=4, note=56, velocity=64, time=0),
    Message('note_off', channel=4, note=61, velocity=64, time=0),
    Message('note_on', channel=4, note=66, velocity=71, time=1),
    Message('note_on', channel=4, note=61, velocity=71, time=0),
    Message('note_on', channel=4, note=56, velocity=75, time=0),
    Message('note_on', channel=9, note=46, velocity=75, time=1),
    Message('note_on', channel=0, note=56, velocity=82, time=0),
    Message('note_on', channel=9, note=70, velocity=67, time=1),
    Message('note_off', channel=9, note=46, velocity=64, time=5),
    Message('note_off', channel=9, note=70, velocity=64, time=1),
    Message('note_off', channel=7, note=56, velocity=64, time=11),
    Message('note_on', channel=7, note=56, velocity=50, time=6),
    Message('note_on', channel=9, note=70, velocity=36, time=1),
    Message('note_off', channel=9, note=70, velocity=64, time=6),
    Message('note_off', channel=3, note=77, velocity=64, time=7),
    Message('note_off', channel=0, note=68, velocity=64, time=0),
    MetaMessage('lyrics', text='found ', time=8),
    MetaMessage('lyrics', text='\r', time=0),
    Message('note_on', channel=3, note=73, velocity=71, time=0),
    Message('note_off', channel=4, note=56, velocity=64, time=1),
    Message('note_off', channel=4, note=61, velocity=64, time=0),
    Message('note_off', channel=4, note=66, velocity=64, time=0),
    Message('note_on', channel=4, note=56, velocity=77, time=1),
    Message('note_on', channel=4, note=65, velocity=78, time=0),
    Message('note_on', channel=4, note=61, velocity=70, time=0),
    Message('note_on', channel=9, note=42, velocity=49, time=0),
    Message('note_on', channel=9, note=70, velocity=43, time=1),
    Message('note_on', channel=0, note=68, velocity=64, time=1),
    Message('note_off', channel=9, note=42, velocity=64, time=4),
    Message('note_off', channel=9, note=70, velocity=64, time=1),
    Message('note_off', channel=7, note=68, velocity=64, time=7),
    Message('note_on', channel=9, note=70, velocity=71, time=11),
    Message('note_on', channel=7, note=68, velocity=32, time=1),
    Message('note_off', channel=9, note=70, velocity=64, time=5),
    Message('note_off', channel=0, note=56, velocity=64, time=11),
    Message('note_off', channel=4, note=56, velocity=64, time=6),
    Message('note_on', channel=4, note=58, velocity=72, time=0),
    Message('note_on', channel=9, note=42, velocity=92, time=1),
    Message('note_on', channel=0, note=54, velocity=90, time=0),
    Message('note_on', channel=9, note=70, velocity=77, time=0),
    Message('note_off', channel=9, note=42, velocity=64, time=6),
    Message('note_off', channel=9, note=70, velocity=64, time=0),
    Message('note_off', channel=7, note=56, velocity=64, time=11),
    Message('note_on', channel=7, note=54, velocity=58, time=7),
    Message('note_on', channel=9, note=70, velocity=32, time=0),
    Message('note_off', channel=9, note=70, velocity=64, time=6),
    Message('note_off', channel=0, note=63, velocity=64, time=9),
    Message('note_on', channel=9, note=42, velocity=72, time=8),
    Message('note_on', channel=0, note=63, velocity=79, time=1),
    Message('note_on', channel=9, note=70, velocity=44, time=0),
    Message('note_off', channel=9, note=42, velocity=64, time=5),
    Message('note_off', channel=9, note=70, velocity=64, time=1),
    Message('note_off', channel=7, note=63, velocity=64, time=9),
    Message('note_on', channel=7, note=63, velocity=47, time=9),
    Message('note_on', channel=9, note=70, velocity=58, time=0),
    Message('note_off', channel=0, note=68, velocity=64, time=4),
    Message('note_off', channel=9, note=70, velocity=64, time=2),
    Message('note_on', channel=0, note=68, velocity=60, time=17),
    Message('note_on', channel=9, note=46, velocity=78, time=1),
    Message('note_on', channel=9, note=70, velocity=80, time=0),
    Message('note_off', channel=7, note=68, velocity=64, time=4),
    Message('note_off', channel=9, note=46, velocity=64, time=2),
    Message('note_off', channel=9, note=70, velocity=64, time=0),
    Message('note_off', channel=3, note=73, velocity=64, time=5),
    Message('note_on', channel=7, note=68, velocity=28, time=12),
    Message('note_on', channel=9, note=70, velocity=38, time=1),
    Message('note_off', channel=9, note=70, velocity=64, time=6),
    Message('note_off', channel=0, note=63, velocity=64, time=6),
    Message('note_on', channel=9, note=42, velocity=84, time=12),
    Message('note_on', channel=0, note=63, velocity=71, time=0),
    Message('note_on', channel=9, note=70, velocity=51, time=0),
    Message('note_off', channel=9, note=42, velocity=64, time=6),
    Message('note_off', channel=9, note=70, velocity=64, time=0),
    Message('note_off', channel=7, note=63, velocity=64, time=6),
    Message('note_off', channel=0, note=63, velocity=64, time=11),
    Message('note_on', channel=7, note=63, velocity=39, time=1),
    Message('note_on', channel=9, note=70, velocity=51, time=0),
    Message('note_on', channel=0, note=63, velocity=76, time=1),
    Message('note_off', channel=9, note=70, velocity=64, time=5),
    Message('note_off', channel=0, note=63, velocity=64, time=16),
    Message('note_off', channel=7, note=63, velocity=64, time=1),
    Message('note_on', channel=9, note=42, velocity=92, time=1),
    Message('note_on', channel=9, note=70, velocity=80, time=0),
    Message('note_on', channel=7, note=63, velocity=44, time=1),
    Message('note_on', channel=0, note=63, velocity=72, time=2),
    Message('note_off', channel=9, note=42, velocity=64, time=3),
    Message('note_off', channel=9, note=70, velocity=64, time=0),
    Message('note_off', channel=4, note=65, velocity=64, time=7),
    Message('note_off', channel=4, note=58, velocity=64, time=1),
    Message('note_off', channel=4, note=61, velocity=64, time=1),
    Message('note_off', channel=7, note=63, velocity=64, time=7),
    Message('note_on', channel=9, note=42, velocity=56, time=2),
    Message('note_on', channel=9, note=70, velocity=43, time=0),
    Message('note_on', channel=7, note=63, velocity=40, time=3),
    Message('note_off', channel=9, note=42, velocity=64, time=3),
    Message('note_off', channel=9, note=70, velocity=64, time=0),
    Message('note_off', channel=0, note=68, velocity=64, time=15),
    Message('note_on', channel=4, note=66, velocity=59, time=1),
    Message('note_on', channel=4, note=61, velocity=67, time=1),
    Message('note_on', channel=4, note=58, velocity=74, time=0),
    Message('note_on', channel=9, note=42, velocity=31, time=1),
    Message('note_on', channel=9, note=70, velocity=43, time=0),
    MetaMessage('lyrics', text='what ', time=1),
    Message('note_on', channel=3, note=70, velocity=57, time=0),
    Message('note_on', channel=0, note=68, velocity=77, time=1),
    Message('note_off', channel=9, note=42, velocity=64, time=4),
    Message('note_off', channel=9, note=70, velocity=64, time=0),
    Message('note_off', channel=7, note=68, velocity=64, time=15),
    Message('note_on', channel=9, note=70, velocity=67, time=3),
    Message('note_on', channel=7, note=68, velocity=45, time=2),
    Message('note_off', channel=9, note=70, velocity=64, time=4),
    Message('note_off', channel=3, note=70, velocity=64, time=2),
    Message('note_off', channel=0, note=54, velocity=64, time=12),
    Message('note_off', channel=4, note=58, velocity=64, time=4),
    Message('note_off', channel=4, note=61, velocity=64, time=0),
    Message('note_off', channel=4, note=66, velocity=64, time=0),
    Message('note_on', channel=9, note=46, velocity=72, time=0),
    Message('note_on', channel=9, note=70, velocity=83, time=0),
    MetaMessage('lyrics', text="I'm ", time=1),
    Message('note_on', channel=3, note=70, velocity=67, time=0),
    Message('note_on', channel=4, note=58, velocity=76, time=0),
    Message('note_on', channel=4, note=61, velocity=78, time=0),
    Message('note_on', channel=4, note=66, velocity=76, time=0),
    Message('note_on', channel=0, note=54, velocity=86, time=1),
    Message('note_off', channel=9, note=46, velocity=64, time=4),
    Message('note_off', channel=9, note=70, velocity=64, time=0),
    Message('note_off', channel=7, note=54, velocity=64, time=14),
    Message('note_on', channel=9, note=70, velocity=22, time=4),
    Message('note_on', channel=7, note=54, velocity=54, time=2),
    Message('note_off', channel=3, note=70, velocity=64, time=2),
    Message('note_off', channel=9, note=70, velocity=64, time=2),
    MetaMessage('lyrics', text='look', time=15),
    Message('note_on', channel=3, note=70, velocity=70, time=0),
    Message('note_off', channel=4, note=66, velocity=64, time=0),
    Message('note_off', channel=4, note=61, velocity=64, time=0),
    Message('note_off', channel=4, note=58, velocity=64, time=0),
    Message('note_on', channel=4, note=66, velocity=81, time=2),
    Message('note_on', channel=4, note=61, velocity=78, time=0),
    Message('note_on', channel=4, note=58, velocity=78, time=0),
    Message('note_on', channel=0, note=61, velocity=74, time=0),
    Message('note_on', channel=9, note=46, velocity=69, time=1),
    Message('note_on', channel=9, note=70, velocity=58, time=0),
    Message('note_off', channel=9, note=46, velocity=64, time=6),
    Message('note_off', channel=9, note=70, velocity=64, time=0),
    Message('note_on', channel=7, note=61, velocity=42, time=17),
    Message('note_on', channel=9, note=70, velocity=75, time=1),
    Message('note_off', channel=9, note=70, velocity=64, time=6),
    Message('note_off', channel=3, note=70, velocity=64, time=12),
    Message('note_off', channel=4, note=58, velocity=64, time=5),
    Message('note_off', channel=4, note=66, velocity=64, time=0),
    Message('note_on', channel=4, note=65, velocity=71, time=0),
    Message('note_on', channel=4, note=56, velocity=67, time=0),
    Message('note_on', channel=9, note=42, velocity=84, time=1),
    Message('note_on', channel=9, note=70, velocity=51, time=0),
    MetaMessage('lyrics', text='ing ', time=1),
    Message('note_on', channel=3, note=73, velocity=59, time=0),
    Message('note_on', channel=0, note=49, velocity=86, time=2),
    Message('note_off', channel=9, note=42, velocity=64, time=3),
    Message('note_off', channel=9, note=70, velocity=64, time=0),
    Message('note_on', channel=9, note=70, velocity=21, time=18),
    Message('note_on', channel=7, note=49, velocity=54, time=3),
    Message('note_off', channel=3, note=73, velocity=64, time=3),
    Message('note_off', channel=9, note=70, velocity=64, time=0),
    Message('note_off', channel=0, note=61, velocity=64, time=9),
    Message('note_off', channel=4, note=56, velocity=64, time=7),
    Message('note_off', channel=4, note=65, velocity=64, time=0),
    Message('note_off', channel=4, note=61, velocity=64, time=0),
    Message('note_on', channel=4, note=65, velocity=72, time=1),
    Message('note_on', channel=9, note=42, velocity=78, time=0),
    Message('note_on', channel=0, note=61, velocity=72, time=0),
    Message('note_on', channel=4, note=56, velocity=64, time=1),
    Message('note_on', channel=4, note=61, velocity=52, time=0),
    Message('note_on', channel=9, note=70, velocity=42, time=0),
    MetaMessage('lyrics', text='for. ', time=2),
    MetaMessage('lyrics', text='\r', time=0),
    Message('note_on', channel=3, note=73, velocity=52, time=0),
    Message('note_off', channel=9, note=42, velocity=64, time=3),
    Message('note_off', channel=9, note=70, velocity=64, time=1),
    Message('note_off', channel=0, note=68, velocity=64, time=3),
    Message('note_off', channel=7, note=61, velocity=64, time=6),
    Message('note_on', channel=7, note=61, velocity=40, time=8),
    Message('note_on', channel=9, note=70, velocity=43, time=1),
    Message('note_off', channel=9, note=70, velocity=64, time=6),
    Message('note_off', channel=7, note=68, velocity=64, time=3),
    Message('note_off', channel=0, note=63, velocity=64, time=8),
    Message('note_on', channel=9, note=46, velocity=69, time=7),
    Message('note_on', channel=0, note=68, velocity=71, time=0),
    Message('note_on', channel=9, note=70, velocity=71, time=0),
    Message('note_off', channel=9, note=46, velocity=64, time=6),
    Message('note_off', channel=9, note=70, velocity=64, time=0),
    Message('note_off', channel=7, note=63, velocity=64, time=11),
    Message('note_on', channel=7, note=68, velocity=39, time=7),
    Message('note_on', channel=9, note=70, velocity=36, time=0),
    Message('note_off', channel=9, note=70, velocity=64, time=6),
    Message('note_off', channel=0, note=49, velocity=64, time=3),
    Message('note_on', channel=9, note=42, velocity=60, time=14),
    Message('note_on', channel=9, note=70, velocity=43, time=1),
    Message('note_on', channel=0, note=49, velocity=79, time=1),
    Message('note_off', channel=9, note=42, velocity=64, time=4),
    Message('note_off', channel=9, note=70, velocity=64, time=1),
    Message('note_off', channel=7, note=49, velocity=64, time=3),
    Message('note_on', channel=9, note=70, velocity=58, time=15),
    Message('note_on', channel=7, note=49, velocity=47, time=1),
    Message('note_off', channel=9, note=70, velocity=64, time=5),
    Message('note_off', channel=0, note=61, velocity=64, time=8),
    Message('note_on', channel=9, note=42, velocity=92, time=9),
    Message('note_on', channel=9, note=70, velocity=61, time=1),
    Message('note_on', channel=0, note=61, velocity=71, time=2),
    Message('note_off', channel=9, note=42, velocity=64, time=3),
    Message('note_off', channel=9, note=70, velocity=64, time=1),
    Message('note_off', channel=7, note=61, velocity=64, time=8),
    Message('note_on', channel=9, note=70, velocity=34, time=10),
    Message('note_on', channel=7, note=61, velocity=39, time=2),
    Message('note_off', channel=9, note=70, velocity=64, time=4),
    Message('note_off', channel=0, note=68, velocity=64, time=6),
    Message('note_on', channel=9, note=42, velocity=64, time=11),
    Message('note_on', channel=9, note=70, velocity=47, time=1),
    Message('note_on', channel=0, note=68, velocity=74, time=2),
    Message('note_off', channel=9, note=42, velocity=64, time=3),
    Message('note_off', channel=9, note=70, velocity=64, time=1),
    Message('note_off', channel=3, note=73, velocity=64, time=1),
    Message('note_off', channel=7, note=68, velocity=64, time=5),
    Message('note_on', channel=9, note=70, velocity=65, time=12),
    Message('note_on', channel=7, note=68, velocity=42, time=2),
    Message('note_off', channel=9, note=70, velocity=64, time=4),
    Message('note_on', channel=9, note=46, velocity=84, time=17),
    Message('note_off', channel=0, note=49, velocity=64, time=0),
    Message('note_on', channel=9, note=70, velocity=67, time=1),
    Message('note_on', channel=0, note=49, velocity=67, time=2),
    Message('note_off', channel=9, note=46, velocity=64, time=3),
    Message('note_off', channel=9, note=70, velocity=64, time=1),
    Message('note_off', channel=7, note=49, velocity=64, time=17),
    Message('note_on', channel=9, note=70, velocity=36, time=1),
    Message('note_on', channel=7, note=49, velocity=35, time=2),
    Message('note_off', channel=9, note=70, velocity=64, time=4),
    Message('note_off', channel=0, note=61, velocity=64, time=6),
    Message('note_on', channel=9, note=42, velocity=78, time=11),
    Message('note_on', channel=0, note=61, velocity=67, time=1),
    Message('note_on', channel=9, note=70, velocity=43, time=0),
    Message('note_off', channel=9, note=42, velocity=64, time=5),
    Message('note_off', channel=9, note=70, velocity=64, time=1),
    Message('note_off', channel=7, note=61, velocity=64, time=6),
    Message('note_on', channel=7, note=61, velocity=35, time=12),
    Message('note_on', channel=9, note=70, velocity=71, time=0),
    Message('note_off', channel=9, note=70, velocity=64, time=6),
    Message('note_on', channel=9, note=42, velocity=92, time=17),
    Message('note_off', channel=0, note=49, velocity=64, time=0),
    Message('note_on', channel=9, note=70, velocity=77, time=1),
    Message('note_on', channel=0, note=49, velocity=84, time=1),
    Message('note_off', channel=9, note=42, velocity=64, time=4),
    Message('note_off', channel=9, note=70, velocity=64, time=1),
    Message('note_on', channel=8, note=61, velocity=28, time=9),
    Message('control_change', channel=8, control=1, value=0, time=1),
    Message('pitchwheel', channel=8, pitch=0, time=0),
    Message('note_off', channel=7, note=49, velocity=64, time=7),
    Message('note_on', channel=9, note=70, velocity=32, time=1),
    Message('note_on', channel=7, note=49, velocity=52, time=1),
    Message('note_off', channel=9, note=70, velocity=64, time=5),
    Message('note_off', channel=0, note=68, velocity=64, time=1),
    Message('note_off', channel=0, note=61, velocity=64, time=9),
    Message('note_on', channel=9, note=42, velocity=60, time=7),
    Message('note_off', channel=4, note=61, velocity=64, time=1),
    Message('note_on', channel=9, note=70, velocity=44, time=0),
    Message('note_off', channel=4, note=56, velocity=64, time=1),
    Message('note_off', channel=4, note=65, velocity=64, time=0),
    Message('note_on', channel=0, note=61, velocity=71, time=0),
    Message('note_off', channel=9, note=42, velocity=64, time=4),
    Message('note_off', channel=9, note=70, velocity=64, time=1),
    Message('note_off', channel=7, note=68, velocity=64, time=1),
    Message('note_off', channel=7, note=61, velocity=64, time=9),
    Message('note_on', channel=8, note=49, velocity=45, time=0),
    Message('note_on', channel=9, note=70, velocity=58, time=8),
    Message('note_on', channel=7, note=61, velocity=39, time=1),
    Message('note_off', channel=9, note=70, velocity=64, time=5),
    Message('note_on', channel=9, note=46, velocity=64, time=17),
    Message('note_on', channel=9, note=70, velocity=80, time=1),
    Message('note_on', channel=0, note=68, velocity=70, time=2),
    Message('note_off', channel=9, note=46, velocity=64, time=3),
    Message('note_off', channel=9, note=70, velocity=64, time=1),
    Message('note_off', channel=8, note=61, velocity=64, time=1),
    Message('note_on', channel=8, note=61, velocity=32, time=9),
    Message('note_on', channel=9, note=70, velocity=38, time=8),
    Message('note_on', channel=7, note=68, velocity=38, time=2),
    Message('note_off', channel=9, note=70, velocity=64, time=4),
    Message('note_off', channel=0, note=49, velocity=64, time=11),
    Message('note_on', channel=9, note=46, velocity=92, time=6),
    Message('note_on', channel=9, note=70, velocity=51, time=1),
    Message('note_on', channel=0, note=49, velocity=78, time=1),
    Message('note_off', channel=9, note=46, velocity=64, time=4),
    Message('note_off', channel=9, note=70, velocity=64, time=1),
    Message('note_off', channel=7, note=49, velocity=64, time=11),
    Message('note_on', channel=8, note=68, velocity=31, time=0),
    Message('note_on', channel=9, note=70, velocity=51, time=7),
    Message('note_on', channel=7, note=49, velocity=46, time=1),
    Message('note_off', channel=9, note=70, velocity=64, time=5),
    Message('note_off', channel=0, note=61, velocity=64, time=9),
    Message('note_on', channel=9, note=70, velocity=80, time=9),
    Message('note_on', channel=0, note=61, velocity=77, time=2),
    Message('note_off', channel=9, note=70, velocity=64, time=4),
    Message('note_off', channel=8, note=49, velocity=64, time=2),
    Message('note_off', channel=7, note=61, velocity=64, time=7),
    Message('note_on', channel=8, note=49, velocity=39, time=1),
    Message('note_on', channel=9, note=70, velocity=43, time=8),
    Message('note_on', channel=7, note=61, velocity=45, time=2),
    Message('note_off', channel=9, note=70, velocity=64, time=4),
    Message('note_off', channel=0, note=68, velocity=64, time=3),
    Message('note_on', channel=9, note=46, velocity=60, time=14),
    Message('note_on', channel=0, note=68, velocity=75, time=0),
    Message('note_on', channel=9, note=70, velocity=43, time=1),
    Message('note_off', channel=9, note=46, velocity=64, time=5),
    Message('note_off', channel=8, note=61, velocity=64, time=1),
    Message('note_off', channel=9, note=70, velocity=64, time=0),
    Message('note_off', channel=7, note=68, velocity=64, time=3),
    Message('note_on', channel=8, note=61, velocity=38, time=8),
    Message('note_on', channel=7, note=68, velocity=43, time=6),
    Message('note_on', channel=9, note=70, velocity=67, time=1),
    Message('note_on', channel=9, note=38, velocity=101, time=1),
    Message('note_off', channel=9, note=70, velocity=64, time=5),
    Message('note_off', channel=9, note=38, velocity=64, time=1),
    Message('note_off', channel=0, note=49, velocity=64, time=13),
    Message('note_on', channel=9, note=46, velocity=75, time=3),
    Message('note_on', channel=9, note=36, velocity=101, time=1),
    Message('note_off', channel=8, note=68, velocity=64, time=0),
    Message('note_on', channel=9, note=70, velocity=83, time=0),
    Message('note_on', channel=9, note=57, velocity=59, time=1),
    Message('note_on', channel=9, note=49, velocity=58, time=0),
    Message('note_on', channel=1, note=44, velocity=127, time=0),
    Message('note_on', channel=2, note=56, velocity=121, time=0),
    Message('control_change', channel=1, control=1, value=0, time=1),
    Message('pitchwheel', channel=1, pitch=0, time=0),
    Message('control_change', channel=2, control=1, value=0, time=0),
    Message('pitchwheel', channel=2, pitch=0, time=0),
    Message('note_off', channel=9, note=46, velocity=64, time=3),
    Message('note_off', channel=9, note=36, velocity=64, time=1),
    Message('pitchwheel', channel=2, pitch=719, time=0),
    Message('note_off', channel=9, note=70, velocity=64, time=0),
    Message('note_off', channel=9, note=57, velocity=64, time=1),
    Message('note_off', channel=9, note=49, velocity=64, time=0),
    Message('pitchwheel', channel=2, pitch=351, time=6),
    Message('note_on', channel=8, note=68, velocity=36, time=1),
    Message('note_off', channel=7, note=49, velocity=64, time=6),
    Message('note_on', channel=9, note=70, velocity=22, time=4),
    Message('note_on', channel=10, note=56, velocity=82, time=1),
    Message('control_change', channel=10, control=1, value=0, time=1),
    Message('pitchwheel', channel=10, pitch=0, time=0),
    Message('pitchwheel', channel=10, pitch=719, time=4),
    Message('note_off', channel=9, note=70, velocity=64, time=0),
    Message('pitchwheel', channel=10, pitch=351, time=7),
    Message('note_off', channel=0, note=61, velocity=64, time=5),
    Message('pitchwheel', channel=1, pitch=-118, time=1),
    Message('note_on', channel=9, note=70, velocity=58, time=5),
    Message('pitchwheel', channel=1, pitch=-469, time=3),
    Message('pitchwheel', channel=1, pitch=-703, time=2),
    Message('note_off', channel=9, note=70, velocity=64, time=1),
    Message('pitchwheel', channel=1, pitch=-937, time=2),
    Message('note_off', channel=8, note=49, velocity=64, time=3),
    Message('pitchwheel', channel=1, pitch=-1288, time=3),
    Message('pitchwheel', channel=2, pitch=-3471, time=0),
    Message('pitchwheel', channel=1, pitch=-1639, time=4),
    Message('note_off', channel=7, note=61, velocity=64, time=0),
    Message('pitchwheel', channel=1, pitch=-2341, time=3),
    Message('pitchwheel', channel=2, pitch=-7646, time=3),
    Message('note_on', channel=11, note=56, velocity=63, time=0),
    Message('note_on', channel=9, note=70, velocity=75, time=0),
    Message('control_change', channel=11, control=1, value=0, time=1),
    Message('pitchwheel', channel=11, pitch=0, time=0),
    Message('pitchwheel', channel=1, pitch=-2692, time=1),
    Message('note_off', channel=2, note=56, velocity=64, time=1),
    Message('pitchwheel', channel=1, pitch=-3160, time=2),
    Message('pitchwheel', channel=11, pitch=719, time=0),
    Message('note_off', channel=9, note=70, velocity=64, time=1),
    Message('pitchwheel', channel=1, pitch=-3628, time=1),
    Message('pitchwheel', channel=2, pitch=559, time=1),
    Message('note_on', channel=2, note=51, velocity=96, time=0),
    Message('pitchwheel', channel=1, pitch=-4681, time=2),
    Message('note_off', channel=0, note=68, velocity=64, time=1),
    Message('pitchwheel', channel=11, pitch=351, time=1),
    Message('pitchwheel', channel=1, pitch=-5032, time=1),
    Message('pitchwheel', channel=10, pitch=-3471, time=1),
    Message('pitchwheel', channel=1, pitch=-4330, time=4),
    Message('pitchwheel', channel=2, pitch=-3791, time=3),
    Message('note_off', channel=0, note=54, velocity=64, time=1),
    Message('note_on', channel=9, note=36, velocity=94, time=1),
    Message('pitchwheel', channel=1, pitch=-2458, time=0),
    Message('pitchwheel', channel=0, pitch=103, time=0),
    Message('pitchwheel', channel=10, pitch=-7646, time=1),
    Message('note_on', channel=9, note=70, velocity=51, time=0),
    Message('note_on', channel=9, note=42, velocity=32, time=1),
    Message('note_off', channel=1, note=44, velocity=64, time=0),
    Message('note_on', channel=1, note=37, velocity=99, time=0),
    Message('note_on', channel=6, note=56, velocity=44, time=0),
    Message('pitchwheel', channel=1, pitch=0, time=1),
    Message('control_change', channel=6, control=1, value=0, time=0),
    Message('pitchwheel', channel=6, pitch=0, time=0),
    Message('note_on', channel=6, note=61, velocity=44, time=0),
    Message('note_off', channel=10, note=56, velocity=64, time=1),
    Message('note_off', channel=9, note=36, velocity=64, time=2),
    Message('note_off', channel=9, note=70, velocity=64, time=1),
    Message('note_off', channel=9, note=42, velocity=64, time=1),
    Message('pitchwheel', channel=2, pitch=-7758, time=0),
    Message('pitchwheel', channel=10, pitch=559, time=1),
    Message('note_on', channel=10, note=51, velocity=57, time=0),
    Message('note_off', channel=8, note=61, velocity=64, time=1),
    Message('note_off', channel=7, note=68, velocity=64, time=2),
    Message('pitchwheel', channel=10, pitch=-3791, time=10),
    Message('note_off', channel=7, note=54, velocity=64, time=1),
    Message('pitchwheel', channel=7, pitch=103, time=1),
    Message('note_on', channel=9, note=70, velocity=21, time=1),
    Message('note_off', channel=9, note=70, velocity=64, time=6),
    Message('pitchwheel', channel=10, pitch=-7758, time=1),
    Message('note_off', channel=1, note=37, velocity=64, time=6),
    Message('pitchwheel', channel=11, pitch=-3471, time=0),
    Message('note_on', channel=9, note=42, velocity=73, time=10),
    Message('pitchwheel', channel=11, pitch=-7646, time=0),
    Message('note_on', channel=9, note=70, velocity=42, time=1),
    Message('note_on', channel=1, note=37, velocity=123, time=1),
    Message('note_off', channel=8, note=68, velocity=64, time=1),
    Message('note_off', channel=11, note=56, velocity=64, time=0),
    Message('note_off', channel=9, note=42, velocity=64, time=3),
    Message('note_off', channel=9, note=70, velocity=64, time=1),
    Message('pitchwheel', channel=11, pitch=559, time=1),
    Message('note_on', channel=11, note=51, velocity=38, time=0),
    Message('pitchwheel', channel=8, pitch=103, time=7),
    Message('note_off', channel=2, note=51, velocity=64, time=4),
    Message('pitchwheel', channel=2, pitch=431, time=2),
    Message('pitchwheel', channel=11, pitch=-3791, time=0),
    Message('note_on', channel=2, note=49, velocity=91, time=2),
    Message('note_on', channel=9, note=70, velocity=43, time=2),
    Message('note_on', channel=9, note=42, velocity=56, time=1),
    Message('note_off', channel=1, note=37, velocity=64, time=0),
    Message('pitchwheel', channel=11, pitch=-7758, time=5),
    Message('note_off', channel=9, note=70, velocity=64, time=0),
    Message('note_off', channel=9, note=42, velocity=64, time=1),
    Message('note_off', channel=2, note=49, velocity=64, time=4),
    Message('note_off', channel=10, note=51, velocity=64, time=7),
    Message('pitchwheel', channel=10, pitch=431, time=2),
    Message('note_on', channel=10, note=49, velocity=52, time=2),
    Message('note_on', channel=9, note=36, velocity=101, time=1),
    Message('note_on', channel=9, note=42, velocity=87, time=0),
    Message('note_on', channel=9, note=70, velocity=71, time=1),
    Message('note_on', channel=1, note=33, velocity=105, time=1),
    Message('note_off', channel=9, note=42, velocity=64, time=4),
    Message('note_off', channel=9, note=36, velocity=64, time=0),
    Message('note_off', channel=9, note=70, velocity=64, time=1),
    Message('note_off', channel=10, note=49, velocity=64, time=5),
    Message('note_off', channel=1, note=33, velocity=64, time=5),
    Message('note_on', channel=9, note=70, velocity=36, time=8),
    Message('note_on', channel=1, note=34, velocity=101, time=1),
    Message('note_off', channel=9, note=70, velocity=64, time=5),
    Message('note_off', channel=11, note=51, velocity=64, time=11),
    Message('pitchwheel', channel=11, pitch=431, time=2),
    Message('note_on', channel=11, note=49, velocity=33, time=2),
    Message('note_on', channel=2, note=49, velocity=109, time=1),
    Message('note_on', channel=9, note=42, velocity=75, time=1),
    Message('note_on', channel=9, note=70, velocity=43, time=1),
    Message('note_on', channel=1, note=37, velocity=127, time=1),
    Message('note_off', channel=1, note=34, velocity=64, time=2),
    Message('note_off', channel=9, note=42, velocity=64, time=2),
    Message('note_off', channel=9, note=70, velocity=64, time=1),
    Message('note_off', channel=11, note=49, velocity=64, time=4),
    Message('note_on', channel=10, note=49, velocity=70, time=12),
    Message('note_on', channel=9, note=42, velocity=73, time=1),
    Message('note_on', channel=9, note=70, velocity=58, time=1),
    Message('note_off', channel=9, note=42, velocity=64, time=5),
    Message('note_off', channel=9, note=70, velocity=64, time=1),
    Message('note_off', channel=1, note=37, velocity=64, time=8),
    Message('note_off', channel=2, note=49, velocity=64, time=8),
    Message('note_on', channel=2, note=49, velocity=95, time=1),
    Message('note_on', channel=9, note=42, velocity=93, time=1),
    Message('note_on', channel=9, note=70, velocity=61, time=0),
    Message('note_on', channel=9, note=36, velocity=101, time=1),
    Message('note_off', channel=9, note=42, velocity=64, time=5),
    Message('note_off', channel=9, note=70, velocity=64, time=0),
    Message('note_off', channel=9, note=36, velocity=64, time=1),
    Message('note_on', channel=11, note=49, velocity=51, time=14),
    Message('note_off', channel=10, note=49, velocity=64, time=1),
    Message('note_on', channel=10, note=49, velocity=56, time=1),
    Message('note_on', channel=9, note=70, velocity=34, time=1),
    Message('note_off', channel=9, note=70, velocity=64, time=6),
    Message('note_off', channel=2, note=49, velocity=64, time=16),
    Message('note_on', channel=9, note=42, velocity=56, time=1),
    Message('note_on', channel=9, note=70, velocity=47, time=1),
    Message('pitchwheel', channel=2, pitch=575, time=2),
    Message('note_on', channel=2, note=49, velocity=39, time=0),
    Message('note_off', channel=9, note=42, velocity=64, time=3),
    Message('note_off', channel=9, note=70, velocity=64, time=1),
    Message('note_off', channel=11, note=49, velocity=64, time=15),
    Message('note_off', channel=10, note=49, velocity=64, time=1),
    Message('note_on', channel=11, note=49, velocity=37, time=0),
    Message('note_on', channel=9, note=42, velocity=69, time=1),
    Message('note_on', channel=9, note=70, velocity=65, time=1),
    Message('pitchwheel', channel=10, pitch=575, time=2),
    Message('note_on', channel=10, note=49, velocity=16, time=0),
    Message('note_off', channel=9, note=42, velocity=64, time=3),
    Message('note_off', channel=9, note=70, velocity=64, time=1),
    Message('pitchwheel', channel=2, pitch=367, time=5),
    Message('note_off', channel=2, note=49, velocity=64, time=10),
    Message('note_on', channel=9, note=42, velocity=101, time=2),
    Message('note_on', channel=9, note=36, velocity=101, time=1),
    Message('note_on', channel=9, note=70, velocity=67, time=0),
    Message('pitchwheel', channel=2, pitch=431, time=1),
    Message('note_on', channel=2, note=49, velocity=99, time=0),
    Message('note_off', channel=9, note=42, velocity=64, time=4),
    Message('note_off', channel=9, note=36, velocity=64, time=1),
    Message('note_off', channel=9, note=70, velocity=64, time=0),
    Message('pitchwheel', channel=10, pitch=367, time=5),
    Message('note_off', channel=2, note=49, velocity=64, time=5),
    Message('note_off', channel=10, note=49, velocity=64, time=5),
    Message('note_off', channel=11, note=49, velocity=64, time=0),
    Message('note_on', channel=9, note=70, velocity=36, time=3),
    Message('pitchwheel', channel=10, pitch=431, time=1),
    Message('note_on', channel=10, note=49, velocity=60, time=0),
    Message('pitchwheel', channel=11, pitch=575, time=0),
    Message('note_on', channel=11, note=49, velocity=16, time=0),
    Message('note_off', channel=9, note=70, velocity=64, time=5),
    Message('note_off', channel=10, note=49, velocity=64, time=10),
    Message('note_on', channel=9, note=42, velocity=67, time=7),
    Message('note_on', channel=1, note=34, velocity=98, time=0),
    Message('note_on', channel=2, note=49, velocity=93, time=1),
    Message('note_on', channel=9, note=70, velocity=43, time=0),
    Message('note_off', channel=9, note=42, velocity=64, time=5),
    Message('note_off', channel=9, note=70, velocity=64, time=1),
    Message('pitchwheel', channel=11, pitch=367, time=4),
    Message('note_off', channel=11, note=49, velocity=64, time=10),
    Message('note_on', channel=9, note=42, velocity=73, time=3),
    Message('note_on', channel=10, note=49, velocity=54, time=1),
    Message('pitchwheel', channel=11, pitch=431, time=0),
    Message('note_on', channel=11, note=49, velocity=41, time=0),
    Message('note_on', channel=9, note=70, velocity=71, time=0),
    Message('note_off', channel=9, note=42, velocity=64, time=5),
    Message('note_off', channel=9, note=70, velocity=64, time=1),
    Message('note_off', channel=11, note=49, velocity=64, time=9),
    Message('note_off', channel=1, note=34, velocity=64, time=1),
    Message('note_off', channel=2, note=49, velocity=64, time=4),
    Message('note_on', channel=9, note=36, velocity=101, time=3),
    Message('note_on', channel=9, note=42, velocity=101, time=0),
    Message('note_on', channel=1, note=37, velocity=118, time=1),
    Message('note_on', channel=2, note=49, velocity=96, time=0),
    Message('note_on', channel=9, note=70, velocity=77, time=0),
    Message('note_off', channel=9, note=42, velocity=64, time=5),
    Message('note_off', channel=9, note=36, velocity=64, time=0),
    Message('note_off', channel=9, note=70, velocity=64, time=1),
    Message('note_off', channel=10, note=49, velocity=64, time=14),
    Message('note_off', channel=1, note=37, velocity=64, time=1),
    Message('note_on', channel=11, note=49, velocity=35, time=2),
    Message('note_on', channel=10, note=49, velocity=57, time=1),
    Message('note_on', channel=9, note=70, velocity=32, time=0),
    Message('note_off', channel=9, note=70, velocity=64, time=6),
    Message('note_on', channel=9, note=42, velocity=73, time=17),
    Message('note_on', channel=9, note=70, velocity=44, time=1),
    Message('note_on', channel=1, note=37, velocity=127, time=1),
    Message('note_off', channel=9, note=42, velocity=64, time=4),
    Message('note_off', channel=9, note=70, velocity=64, time=1),
    Message('note_off', channel=11, note=49, velocity=64, time=13),
    Message('note_on', channel=9, note=42, velocity=73, time=4),
    Message('note_on', channel=11, note=49, velocity=38, time=0),
    Message('note_on', channel=9, note=70, velocity=58, time=1),
    Message('note_off', channel=2, note=49, velocity=64, time=1),
    Message('note_on', channel=2, note=49, velocity=96, time=1),
    Message('note_off', channel=9, note=42, velocity=64, time=3),
    Message('note_off', channel=1, note=37, velocity=64, time=1),
    Message('note_off', channel=9, note=70, velocity=64, time=0),
    Message('note_off', channel=2, note=49, velocity=64, time=2),
    Message('note_on', channel=9, note=36, velocity=101, time=15),
    Message('note_on', channel=1, note=32, velocity=118, time=0),
    Message('note_on', channel=9, note=42, velocity=101, time=1),
    Message('note_on', channel=9, note=70, velocity=80, time=0),
    Message('note_off', channel=10, note=49, velocity=64, time=1),
    Message('note_on', channel=10, note=49, velocity=57, time=1),
    Message('note_off', channel=9, note=36, velocity=64, time=3),
    Message('note_off', channel=9, note=42, velocity=64, time=1),
    Message('note_off', channel=9, note=70, velocity=64, time=0),
    Message('note_off', channel=10, note=49, velocity=64, time=2),
    Message('note_off', channel=1, note=32, velocity=64, time=10),
    Message('note_on', channel=9, note=42, velocity=47, time=5),
    Message('note_on', channel=1, note=34, velocity=105, time=0),
    Message('note_on', channel=9, note=70, velocity=38, time=1),
    Message('note_off', channel=9, note=42, velocity=64, time=5),
    Message('note_off', channel=9, note=70, velocity=64, time=1),
    Message('note_off', channel=1, note=34, velocity=64, time=14),
    Message('note_on', channel=9, note=42, velocity=65, time=3),
    Message('pitchwheel', channel=2, pitch=367, time=0),
    Message('note_on', channel=2, note=49, velocity=81, time=0),
    Message('note_on', channel=1, note=37, velocity=127, time=1),
    Message('note_off', channel=11, note=49, velocity=64, time=0),
    Message('note_on', channel=9, note=70, velocity=51, time=0),
    Message('note_on', channel=11, note=49, velocity=38, time=1),
    Message('note_off', channel=9, note=42, velocity=64, time=4),
    Message('note_off', channel=9, note=70, velocity=64, time=1),
    Message('note_off', channel=11, note=49, velocity=64, time=1),
    Message('pitchwheel', channel=10, pitch=367, time=16),
    Message('note_on', channel=10, note=49, velocity=42, time=0),
    Message('note_on', channel=9, note=42, velocity=71, time=1),
    Message('note_on', channel=9, note=70, velocity=51, time=0),
    Message('note_off', channel=9, note=42, velocity=64, time=6),
    Message('note_off', channel=9, note=70, velocity=64, time=0),
    Message('note_off', channel=1, note=37, velocity=64, time=4),
    Message('note_off', channel=2, note=49, velocity=64, time=12),
    Message('note_on', channel=9, note=36, velocity=101, time=1),
    Message('note_on', channel=2, note=49, velocity=76, time=1),
    Message('note_on', channel=9, note=70, velocity=80, time=0),
    Message('note_on', channel=9, note=42, velocity=101, time=1),
    Message('note_off', channel=9, note=36, velocity=64, time=4),
    Message('note_off', channel=9, note=70, velocity=64, time=1),
    Message('note_off', channel=9, note=42, velocity=64, time=1),
    Message('note_off', channel=6, note=61, velocity=64, time=14),
    Message('note_off', channel=10, note=49, velocity=64, time=1),
    Message('pitchwheel', channel=11, pitch=367, time=0),
    Message('note_on', channel=11, note=49, velocity=23, time=0),
    Message('note_on', channel=10, note=49, velocity=37, time=2),
    Message('note_on', channel=9, note=70, velocity=43, time=0),
    Message('note_off', channel=9, note=70, velocity=64, time=6),
    Message('note_off', channel=6, note=56, velocity=64, time=11),
    Message('note_on', channel=9, note=36, velocity=101, time=6),
    Message('note_on', channel=5, note=66, velocity=76, time=0),
    Message('note_on', channel=5, note=58, velocity=46, time=0),
    Message('note_on', channel=5, note=61, velocity=46, time=0),
    Message('note_on', channel=6, note=58, velocity=53, time=0),
    Message('note_on', channel=0, note=61, velocity=113, time=0),
    Message('pitchwheel', channel=0, pitch=0, time=0),
    Message('note_off', channel=2, note=49, velocity=64, time=0),
    Message('control_change', channel=5, control=1, value=0, time=1),
    Message('pitchwheel', channel=5, pitch=0, time=0),
    Message('note_on', channel=6, note=61, velocity=53, time=0),
    Message('note_on', channel=6, note=66, velocity=53, time=0),
    Message('note_on', channel=9, note=70, velocity=43, time=0),
    Message('note_on', channel=9, note=42, velocity=48, time=1),
    Message('note_on', channel=0, note=66, velocity=127, time=0),
    Message('note_on', channel=2, note=49, velocity=50, time=1),
    Message('note_off', channel=9, note=36, velocity=64, time=3),
    Message('note_off', channel=9, note=70, velocity=64, time=1),
    Message('note_off', channel=9, note=42, velocity=64, time=1),
    Message('note_off', channel=11, note=49, velocity=64, time=14),
    Message('note_on', channel=9, note=42, velocity=59, time=2),
    Message('note_on', channel=7, note=61, velocity=68, time=0),
    Message('pitchwheel', channel=7, pitch=0, time=0),
    Message('note_off', channel=10, note=49, velocity=64, time=0),
    Message('note_on', channel=11, note=49, velocity=18, time=0),
    Message('note_on', channel=9, note=70, velocity=67, time=1),
    Message('note_on', channel=7, note=66, velocity=83, time=1),
    Message('note_on', channel=10, note=49, velocity=16, time=1),
    Message('note_off', channel=9, note=42, velocity=64, time=3),
    Message('note_off', channel=9, note=70, velocity=64, time=1),
    Message('note_off', channel=5, note=58, velocity=64, time=5),
    Message('note_off', channel=5, note=61, velocity=64, time=1),
    Message('note_off', channel=5, note=66, velocity=64, time=2),
    Message('note_off', channel=2, note=49, velocity=64, time=7),
    Message('note_off', channel=0, note=66, velocity=64, time=1),
    Message('note_off', channel=0, note=61, velocity=64, time=0),
    Message('pitchwheel', channel=0, pitch=367, time=0),
    Message('note_on', channel=9, note=46, velocity=101, time=1),
    Message('note_on', channel=0, note=61, velocity=115, time=0),
    Message('pitchwheel', channel=0, pitch=0, time=0),
    Message('note_on', channel=0, note=66, velocity=127, time=0),
    Message('note_on', channel=9, note=38, velocity=101, time=1),
    Message('note_on', channel=9, note=36, velocity=101, time=0),
    Message('note_on', channel=5, note=58, velocity=60, time=0),
    Message('note_on', channel=5, note=66, velocity=78, time=0),
    Message('note_on', channel=5, note=61, velocity=59, time=0),
    Message('note_on', channel=9, note=70, velocity=83, time=0),
    Message('note_on', channel=2, note=49, velocity=91, time=2),
    Message('note_off', channel=9, note=46, velocity=64, time=3),
    Message('note_off', channel=9, note=36, velocity=64, time=1),
    Message('note_off', channel=9, note=38, velocity=64, time=0),
    Message('note_off', channel=9, note=70, velocity=64, time=0),
    Message('note_off', channel=2, note=49, velocity=64, time=8),
    Message('note_on', channel=8, note=61, velocity=63, time=0),
    Message('pitchwheel', channel=8, pitch=0, time=0),
    Message('note_on', channel=8, note=66, velocity=78, time=2),
    Message('note_off', channel=10, note=49, velocity=64, time=5),
    Message('note_off', channel=7, note=66, velocity=64, time=1),
    Message('note_off', channel=7, note=61, velocity=64, time=0),
    Message('pitchwheel', channel=7, pitch=367, time=0),
    Message('note_off', channel=11, note=49, velocity=64, time=0),
    Message('note_on', channel=7, note=61, velocity=70, time=1),
    Message('pitchwheel', channel=7, pitch=0, time=0),
    Message('note_on', channel=7, note=66, velocity=84, time=0),
    Message('note_on', channel=9, note=70, velocity=22, time=1),
    Message('note_on', channel=11, note=49, velocity=16, time=1),
    Message('note_on', channel=10, note=49, velocity=52, time=1),
    Message('note_off', channel=9, note=70, velocity=64, time=4),
    Message('note_off', channel=5, note=61, velocity=64, time=6),
    Message('note_off', channel=6, note=61, velocity=64, time=0),
    Message('note_off', channel=10, note=49, velocity=64, time=2),
    Message('note_off', channel=5, note=66, velocity=64, time=1),
    Message('note_off', channel=5, note=58, velocity=64, time=0),
    Message('note_off', channel=0, note=66, velocity=64, time=4),
    Message('note_off', channel=0, note=61, velocity=64, time=0),
    Message('note_off', channel=6, note=58, velocity=64, time=4),
    Message('note_on', channel=6, note=56, velocity=53, time=0),
    Message('note_on', channel=9, note=46, velocity=87, time=1),
    Message('note_off', channel=6, note=66, velocity=64, time=0),
    Message('note_on', channel=9, note=70, velocity=58, time=0),
    Message('note_on', channel=1, note=34, velocity=103, time=1),
    Message('note_on', channel=5, note=65, velocity=78, time=0),
    Message('note_on', channel=5, note=61, velocity=60, time=0),
    Message('note_on', channel=5, note=56, velocity=61, time=0),
    Message('note_on', channel=6, note=65, velocity=53, time=0),
    Message('note_on', channel=6, note=61, velocity=53, time=0),
    Message('note_on', channel=0, note=61, velocity=122, time=0),
    Message('note_on', channel=0, note=65, velocity=127, time=1),
    Message('note_on', channel=2, note=49, velocity=81, time=0),
    Message('pitchwheel', channel=0, pitch=367, time=2),
    Message('note_off', channel=9, note=46, velocity=64, time=2),
    Message('note_off', channel=9, note=70, velocity=64, time=0),
    Message('note_off', channel=8, note=66, velocity=64, time=7),
    Message('note_off', channel=8, note=61, velocity=64, time=0),
    Message('pitchwheel', channel=8, pitch=367, time=0),
    Message('note_on', channel=8, note=61, velocity=65, time=1),
    Message('pitchwheel', channel=8, pitch=0, time=0),
    Message('note_on', channel=8, note=66, velocity=79, time=0),
    Message('note_off', channel=7, note=66, velocity=64, time=5),
    Message('note_off', channel=7, note=61, velocity=64, time=0),
    Message('note_off', channel=11, note=49, velocity=64, time=1),
    Message('note_on', channel=9, note=70, velocity=75, time=4),
    Message('note_on', channel=7, note=61, velocity=76, time=1),
    Message('note_on', channel=11, note=49, velocity=33, time=0),
    Message('note_on', channel=7, note=65, velocity=81, time=1),
    Message('note_on', channel=10, note=49, velocity=42, time=0),
    Message('pitchwheel', channel=7, pitch=367, time=2),
    Message('note_off', channel=9, note=70, velocity=64, time=2),
    Message('note_off', channel=11, note=49, velocity=64, time=7),
    Message('note_off', channel=2, note=49, velocity=64, time=9),
    Message('note_on', channel=9, note=36, velocity=99, time=1),
    Message('note_off', channel=1, note=34, velocity=64, time=0),
    Message('note_on', channel=1, note=37, velocity=118, time=1),
    Message('note_on', channel=9, note=70, velocity=51, time=0),
    Message('note_on', channel=9, note=42, velocity=45, time=1),
    Message('note_on', channel=2, note=49, velocity=91, time=2),
    Message('note_off', channel=9, note=36, velocity=64, time=2),
    Message('note_off', channel=9, note=70, velocity=64, time=1),
    Message('note_off', channel=9, note=42, velocity=64, time=1),
    Message('note_off', channel=8, note=66, velocity=64, time=3),
    Message('note_off', channel=8, note=61, velocity=64, time=0),
    Message('note_on', channel=8, note=61, velocity=70, time=6),
    Message('note_on', channel=8, note=65, velocity=75, time=1),
    Message('pitchwheel', channel=8, pitch=367, time=2),
    Message('note_off', channel=10, note=49, velocity=64, time=3),
    Message('note_off', channel=1, note=37, velocity=64, time=2),
    Message('note_on', channel=9, note=70, velocity=21, time=0),
    Message('note_on', channel=11, note=49, velocity=23, time=1),
    Message('note_on', channel=10, note=49, velocity=52, time=2),
    Message('note_off', channel=9, note=70, velocity=64, time=3),
    Message('note_on', channel=9, note=42, velocity=67, time=17),
    Message('note_on', channel=9, note=70, velocity=42, time=1),
    Message('note_on', channel=1, note=37, velocity=127, time=1),
    Message('note_off', channel=9, note=42, velocity=64, time=4),
    Message('note_off', channel=9, note=70, velocity=64, time=1),
    Message('note_off', channel=11, note=49, velocity=64, time=15),
    Message('note_on', channel=9, note=42, velocity=53, time=2),
    Message('note_off', channel=2, note=49, velocity=64, time=1),
    Message('note_on', channel=9, note=70, velocity=43, time=0),
    Message('note_on', channel=2, note=49, velocity=115, time=2),
    Message('note_on', channel=11, note=49, velocity=33, time=0),
    Message('note_off', channel=9, note=42, velocity=64, time=3),
    Message('note_off', channel=1, note=37, velocity=64, time=0),
    Message('note_off', channel=9, note=70, velocity=64, time=1),
    Message('note_off', channel=2, note=49, velocity=64, time=6),
    Message('pitchwheel', channel=2, pitch=31, time=1),
    Message('note_on', channel=9, note=36, velocity=101, time=10),
    Message('note_on', channel=9, note=42, velocity=78, time=1),
    Message('note_off', channel=10, note=49, velocity=64, time=0),
    Message('note_on', channel=9, note=70, velocity=71, time=0),
    Message('note_on', channel=1, note=32, velocity=112, time=1),
    Message('note_on', channel=2, note=44, velocity=74, time=1),
    Message('note_on', channel=10, note=49, velocity=76, time=0),
    Message('note_off', channel=9, note=36, velocity=64, time=3),
    Message('pitchwheel', channel=2, pitch=-47, time=0),
    Message('note_off', channel=9, note=42, velocity=64, time=1),
    Message('note_off', channel=9, note=70, velocity=64, time=0),
    Message('note_off', channel=2, note=44, velocity=64, time=2),
    Message('note_off', channel=10, note=49, velocity=64, time=4),
    Message('pitchwheel', channel=10, pitch=31, time=1),
    Message('note_off', channel=1, note=32, velocity=64, time=4),
    Message('note_on', channel=9, note=70, velocity=36, time=7),
    Message('note_on', channel=1, note=34, velocity=102, time=1),
    Message('note_on', channel=10, note=44, velocity=35, time=1),
    Message('pitchwheel', channel=10, pitch=-47, time=3),
    Message('note_off', channel=9, note=70, velocity=64, time=1),
    Message('note_off', channel=10, note=44, velocity=64, time=2),
    Message('note_off', channel=1, note=34, velocity=64, time=9),
    Message('note_on', channel=9, note=42, velocity=47, time=6),
    Message('note_off', channel=11, note=49, velocity=64, time=0),
    Message('pitchwheel', channel=2, pitch=431, time=1),
    Message('note_on', channel=2, note=49, velocity=88, time=0),
    Message('note_on', channel=9, note=70, velocity=43, time=0),
    Message('note_on', channel=1, note=37, velocity=127, time=1),
    Message('note_on', channel=11, note=49, velocity=57, time=0),
    Message('note_off', channel=9, note=42, velocity=64, time=4),
    Message('note_off', channel=9, note=70, velocity=64, time=1),
    Message('note_off', channel=11, note=49, velocity=64, time=5),
    Message('pitchwheel', channel=11, pitch=31, time=1),
    Message('note_on', channel=9, note=42, velocity=58, time=11),
    Message('pitchwheel', channel=10, pitch=431, time=1),
    Message('note_on', channel=10, note=49, velocity=49, time=0),
    Message('note_on', channel=9, note=70, velocity=58, time=0),
    Message('note_on', channel=11, note=44, velocity=16, time=1),
    Message('pitchwheel', channel=11, pitch=-47, time=3),
    Message('note_off', channel=9, note=42, velocity=64, time=1),
    Message('note_off', channel=9, note=70, velocity=64, time=1),
    Message('note_off', channel=11, note=44, velocity=64, time=1),
    Message('note_off', channel=1, note=37, velocity=64, time=6),
    Message('note_on', channel=9, note=42, velocity=101, time=10),
    Message('note_off', channel=2, note=49, velocity=64, time=0),
    Message('note_on', channel=9, note=70, velocity=61, time=1),
    Message('note_on', channel=9, note=36, velocity=101, time=1),
    Message('note_on', channel=2, note=49, velocity=81, time=0),
    Message('note_off', channel=9, note=42, velocity=64, time=4),
    Message('note_off', channel=9, note=70, velocity=64, time=1),
    Message('note_off', channel=9, note=36, velocity=64, time=1),
    Message('note_off', channel=10, note=49, velocity=64, time=16),
    Message('pitchwheel', channel=11, pitch=431, time=0),
    Message('note_on', channel=11, note=49, velocity=30, time=0),
    Message('note_on', channel=9, note=70, velocity=34, time=1),
    Message('note_on', channel=10, note=49, velocity=42, time=1),
    Message('note_off', channel=9, note=70, velocity=64, time=5),
    Message('note_on', channel=9, note=42, velocity=61, time=18),
    Message('note_on', channel=9, note=70, velocity=47, time=0),
    Message('note_off', channel=9, note=42, velocity=64, time=6),
    Message('note_off', channel=9, note=70, velocity=64, time=0),
    Message('note_off', channel=11, note=49, velocity=64, time=16),
    Message('note_on', channel=11, note=49, velocity=23, time=2),
    Message('note_on', channel=9, note=70, velocity=65, time=0),
    Message('note_on', channel=9, note=42, velocity=65, time=1),
    Message('note_off', channel=9, note=70, velocity=64, time=5),
    Message('note_off', channel=9, note=42, velocity=64, time=1),
    Message('note_off', channel=2, note=49, velocity=64, time=14),
    Message('note_on', channel=9, note=70, velocity=67, time=3),
    Message('note_on', channel=9, note=36, velocity=101, time=1),
    Message('note_on', channel=9, note=42, velocity=97, time=0),
    Message('note_on', channel=2, note=49, velocity=66, time=0),
    Message('note_off', channel=9, note=70, velocity=64, time=5),
    Message('note_off', channel=9, note=42, velocity=64, time=1),
    Message('note_off', channel=9, note=36, velocity=64, time=0),
    Message('note_off', channel=2, note=49, velocity=64, time=7),
    Message('note_off', channel=10, note=49, velocity=64, time=7),
    Message('note_on', channel=9, note=70, velocity=36, time=3),
    Message('note_on', channel=10, note=49, velocity=27, time=1),
    Message('note_off', channel=9, note=70, velocity=64, time=5),
    Message('note_off', channel=10, note=49, velocity=64, time=8),
    Message('note_on', channel=9, note=70, velocity=43, time=10),
    Message('note_on', channel=9, note=36, velocity=84, time=1),
    Message('note_on', channel=9, note=42, velocity=69, time=0),
    Message('note_on', channel=1, note=34, velocity=116, time=0),
    Message('pitchwheel', channel=2, pitch=367, time=0),
    Message('note_on', channel=2, note=49, velocity=81, time=0),
    Message('note_off', channel=9, note=70, velocity=64, time=5),
    Message('note_off', channel=9, note=42, velocity=64, time=1),
    Message('note_off', channel=9, note=36, velocity=64, time=0),
    Message('note_off', channel=11, note=49, velocity=64, time=13),
    Message('note_on', channel=9, note=42, velocity=56, time=3),
    Message('note_on', channel=11, note=49, velocity=16, time=1),
    Message('note_on', channel=9, note=70, velocity=71, time=0),
    Message('pitchwheel', channel=10, pitch=367, time=1),
    Message('note_on', channel=10, note=49, velocity=42, time=0),
    Message('note_off', channel=9, note=42, velocity=64, time=4),
    Message('note_off', channel=9, note=70, velocity=64, time=1),
    Message('note_off', channel=11, note=49, velocity=64, time=7),
    Message('note_off', channel=1, note=34, velocity=64, time=5),
    Message('note_off', channel=2, note=49, velocity=64, time=3),
    Message('note_on', channel=9, note=70, velocity=77, time=3),
    Message('note_on', channel=9, note=36, velocity=101, time=1),
    Message('note_on', channel=9, note=42, velocity=93, time=0),
    Message('note_on', channel=1, note=37, velocity=118, time=0),
    Message('note_off', channel=0, note=61, velocity=64, time=0),
    Message('note_off', channel=0, note=65, velocity=64, time=1),
    Message('note_on', channel=2, note=49, velocity=88, time=0),
    Message('note_off', channel=9, note=70, velocity=64, time=4),
    Message('note_off', channel=9, note=42, velocity=64, time=1),
    Message('note_off', channel=9, note=36, velocity=64, time=0),
    Message('note_off', channel=1, note=37, velocity=64, time=13),
    Message('note_off', channel=10, note=49, velocity=64, time=1),
    Message('note_on', channel=9, note=42, velocity=25, time=2),
    Message('pitchwheel', channel=11, pitch=367, time=1),
    Message('note_on', channel=11, note=49, velocity=23, time=0),
    Message('note_on', channel=9, note=70, velocity=32, time=0),
    Message('note_off', channel=7, note=61, velocity=64, time=1),
    Message('note_off', channel=7, note=65, velocity=64, time=1),
    Message('note_on', channel=10, note=49, velocity=49, time=0),
    Message('note_off', channel=9, note=42, velocity=64, time=3),
    Message('note_off', channel=9, note=70, velocity=64, time=1),
    Message('note_on', channel=1, note=37, velocity=127, time=18),
    Message('note_on', channel=9, note=70, velocity=44, time=0),
    Message('note_on', channel=9, note=42, velocity=46, time=1),
    Message('note_off', channel=9, note=70, velocity=64, time=5),
    Message('note_off', channel=9, note=42, velocity=64, time=1),
    Message('note_off', channel=8, note=61, velocity=64, time=9),
    Message('note_off', channel=8, note=65, velocity=64, time=1),
    Message('note_off', channel=11, note=49, velocity=64, time=3),
    Message('note_off', channel=1, note=37, velocity=64, time=3),
    Message('note_on', channel=9, note=70, velocity=58, time=1),
    Message('note_on', channel=9, note=42, velocity=58, time=1),
    Message('note_off', channel=2, note=49, velocity=64, time=0),
    Message('note_on', channel=11, note=49, velocity=30, time=0),
    Message('note_on', channel=2, note=49, velocity=104, time=1),
    Message('note_off', channel=9, note=70, velocity=64, time=4),
    Message('note_off', channel=9, note=42, velocity=64, time=1),
    Message('note_off', channel=2, note=49, velocity=64, time=5),
    Message('note_on', channel=9, note=36, velocity=101, time=12),
    Message('note_on', channel=9, note=42, velocity=101, time=0),
    Message('note_on', channel=9, note=70, velocity=80, time=0),
    Message('note_on', channel=1, note=32, velocity=116, time=1),
    Message('note_off', channel=10, note=49, velocity=64, time=0),
    Message('note_on', channel=10, note=49, velocity=65, time=1),
    Message('note_off', channel=9, note=42, velocity=64, time=4),
    Message('note_off', channel=9, note=36, velocity=64, time=0),
    Message('note_off', channel=9, note=70, velocity=64, time=0),
    Message('note_off', channel=10, note=49, velocity=64, time=6),
    Message('note_off', channel=1, note=32, velocity=64, time=3),
    Message('note_on', channel=1, note=34, velocity=109, time=9),
    Message('note_on', channel=9, note=70, velocity=38, time=0),
    Message('note_off', channel=9, note=70, velocity=64, time=6),
    Message('note_off', channel=1, note=34, velocity=64, time=12),
    Message('note_on', channel=9, note=42, velocity=67, time=5),
    Message('note_on', channel=1, note=37, velocity=127, time=1),
    Message('note_off', channel=11, note=49, velocity=64, time=0),
    Message('note_on', channel=9, note=70, velocity=51, time=0),
    Message('note_on', channel=2, note=49, velocity=80, time=1),
    Message('note_on', channel=11, note=49, velocity=46, time=0),
    Message('note_off', channel=9, note=42, velocity=64, time=4),
    Message('note_off', channel=9, note=70, velocity=64, time=1),
    Message('note_off', channel=11, note=49, velocity=64, time=5),
    Message('note_on', channel=9, note=38, velocity=91, time=13),
    Message('note_on', channel=9, note=70, velocity=51, time=0),
    Message('note_on', channel=9, note=42, velocity=71, time=1),
    Message('note_on', channel=10, note=49, velocity=41, time=0),
    Message('note_off', channel=9, note=38, velocity=64, time=5),
    Message('note_off', channel=9, note=70, velocity=64, time=0),
    Message('note_off', channel=9, note=42, velocity=64, time=1),
    Message('note_off', channel=1, note=37, velocity=64, time=15),
    Message('note_on', channel=9, note=42, velocity=101, time=2),
    Message('note_on', channel=9, note=70, velocity=80, time=0),
    Message('note_on', channel=9, note=36, velocity=101, time=1),
    Message('note_off', channel=5, note=56, velocity=64, time=0),
    Message('note_off', channel=2, note=49, velocity=64, time=0),
    Message('note_on', channel=2, note=49, velocity=91, time=1),
    Message('note_off', channel=9, note=42, velocity=64, time=4),
    Message('note_off', channel=9, note=70, velocity=64, time=0),
    Message('note_off', channel=9, note=36, velocity=64, time=1),
    Message('note_off', channel=5, note=61, velocity=64, time=3),
    Message('note_off', channel=5, note=65, velocity=64, time=0),
    Message('note_off', channel=6, note=61, velocity=64, time=12),
    Message('note_off', channel=6, note=65, velocity=64, time=0),
    Message('note_on', channel=11, note=49, velocity=22, time=2),
    Message('note_on', channel=9, note=70, velocity=43, time=0),
    Message('note_off', channel=10, note=49, velocity=64, time=1),
    Message('note_off', channel=6, note=56, velocity=64, time=1),
    Message('note_on', channel=10, note=49, velocity=52, time=0),
    Message('note_off', channel=9, note=70, velocity=64, time=4),
    Message('note_on', channel=6, note=65, velocity=53, time=16),
    Message('note_on', channel=6, note=61, velocity=53, time=0),
    Message('note_on', channel=9, note=36, velocity=35, time=1),
    Message('note_on', channel=9, note=42, velocity=65, time=0),
    Message('note_on', channel=5, note=65, velocity=68, time=0),
    Message('note_on', channel=5, note=56, velocity=54, time=0),
    Message('note_on', channel=6, note=56, velocity=53, time=0),
    Message('note_on', channel=0, note=61, velocity=110, time=1),
    Message('pitchwheel', channel=0, pitch=0, time=0),
    Message('note_on', channel=0, note=65, velocity=124, time=0),
    Message('note_on', channel=9, note=70, velocity=43, time=0),
    Message('note_on', channel=5, note=61, velocity=50, time=1),
    Message('note_off', channel=9, note=42, velocity=64, time=4),
    Message('note_off', channel=9, note=36, velocity=64, time=0),
    Message('note_off', channel=9, note=70, velocity=64, time=1),
    Message('note_on', channel=9, note=42, velocity=69, time=17),
    Message('note_on', channel=7, note=61, velocity=65, time=1),
    Message('pitchwheel', channel=7, pitch=0, time=0),
    Message('note_on', channel=7, note=65, velocity=78, time=0),
    Message('note_off', channel=11, note=49, velocity=64, time=0),
    Message('note_on', channel=9, note=70, velocity=67, time=0),
    Message('note_on', channel=11, note=49, velocity=33, time=1),
    Message('note_off', channel=9, note=42, velocity=64, time=4),
    Message('note_off', channel=9, note=70, velocity=64, time=1),
    Message('note_off', channel=5, note=56, velocity=64, time=3),
    Message('note_off', channel=5, note=61, velocity=64, time=3),
    Message('note_off', channel=5, note=65, velocity=64, time=1),
    Message('note_off', channel=0, note=61, velocity=64, time=7),
    Message('note_on', channel=9, note=46, velocity=93, time=3),
    Message('note_on', channel=5, note=56, velocity=55, time=0),
    Message('note_off', channel=2, note=49, velocity=64, time=0),
    Message('note_on', channel=9, note=57, velocity=66, time=1),
    Message('note_on', channel=9, note=49, velocity=65, time=0),
    Message('note_on', channel=0, note=61, velocity=127, time=0),
    Message('note_on', channel=9, note=70, velocity=83, time=0),
    Message('note_on', channel=9, note=36, velocity=101, time=1),
    Message('note_on', channel=9, note=38, velocity=101, time=0),
    Message('note_on', channel=5, note=65, velocity=78, time=0),
    Message('note_on', channel=5, note=61, velocity=55, time=0),
    Message('note_on', channel=2, note=49, velocity=109, time=1),
    Message('note_off', channel=9, note=46, velocity=64, time=3),
    Message('note_off', channel=9, note=57, velocity=64, time=1),
    Message('note_off', channel=9, note=49, velocity=64, time=0),
    Message('note_off', channel=9, note=70, velocity=64, time=0),
    Message('note_off', channel=9, note=36, velocity=64, time=1),
    Message('note_off', channel=9, note=38, velocity=64, time=0),
    Message('note_on', channel=8, note=61, velocity=60, time=8),
    Message('pitchwheel', channel=8, pitch=0, time=0),
    Message('note_on', channel=8, note=65, velocity=72, time=0),
    Message('note_off', channel=2, note=49, velocity=64, time=5),
    Message('note_off', channel=7, note=61, velocity=64, time=0),
    Message('pitchwheel', channel=2, pitch=159, time=1),
    Message('note_off', channel=10, note=49, velocity=64, time=2),
    Message('note_on', channel=7, note=61, velocity=84, time=1),
    Message('note_on', channel=9, note=70, velocity=22, time=0),
    Message('note_on', channel=10, note=49, velocity=70, time=2),
    Message('note_off', channel=9, note=70, velocity=64, time=4),
    Message('note_off', channel=6, note=61, velocity=64, time=2),
    Message('note_off', channel=5, note=61, velocity=64, time=7),
    Message('note_off', channel=0, note=61, velocity=64, time=1),
    Message('note_off', channel=5, note=65, velocity=64, time=4),
    Message('note_off', channel=10, note=49, velocity=64, time=0),
    Message('note_off', channel=6, note=56, velocity=64, time=1),
    Message('pitchwheel', channel=10, pitch=159, time=0),
    Message('note_on', channel=6, note=58, velocity=53, time=2),
    Message('note_on', channel=6, note=66, velocity=53, time=0),
    Message('note_on', channel=6, note=61, velocity=53, time=0),
    Message('note_off', channel=5, note=56, velocity=64, time=1),
    Message('note_on', channel=9, note=70, velocity=58, time=0),
    Message('note_on', channel=9, note=46, velocity=84, time=1),
    Message('note_on', channel=1, note=29, velocity=116, time=0),
    Message('note_on', channel=0, note=61, velocity=120, time=0),
    Message('note_on', channel=5, note=58, velocity=53, time=1),
    Message('note_on', channel=5, note=66, velocity=76, time=0),
    Message('note_on', channel=5, note=61, velocity=54, time=0),
    Message('note_on', channel=0, note=66, velocity=127, time=1),
    Message('note_off', channel=0, note=65, velocity=64, time=1),
    Message('note_off', channel=6, note=65, velocity=64, time=1),
    Message('note_off', channel=9, note=70, velocity=64, time=1),
    Message('note_off', channel=9, note=46, velocity=64, time=1),
    Message('note_off', channel=8, note=61, velocity=64, time=4),
    Message('note_on', channel=8, note=61, velocity=79, time=4),
    Message('note_off', channel=7, note=61, velocity=64, time=1),
    Message('note_off', channel=11, note=49, velocity=64, time=6),
    Message('note_on', channel=9, note=70, velocity=75, time=2),
    Message('note_on', channel=7, note=61, velocity=74, time=1),
    Message('note_on', channel=11, note=49, velocity=51, time=0),
    Message('note_on', channel=7, note=66, velocity=80, time=2),
    Message('note_off', channel=7, note=65, velocity=64, time=1),
    Message('note_off', channel=9, note=70, velocity=64, time=2),
    Message('note_off', channel=11, note=49, velocity=64, time=13),
    Message('pitchwheel', channel=11, pitch=159, time=1),
    Message('note_on', channel=9, note=42, velocity=97, time=4),
    Message('note_on', channel=9, note=70, velocity=51, time=0),
    Message('note_on', channel=9, note=36, velocity=101, time=1),
    Message('note_on', channel=1, note=30, velocity=119, time=0),
    Message('note_off', channel=1, note=29, velocity=64, time=1),
    Message('note_on', channel=2, note=54, velocity=104, time=1),
    Message('note_off', channel=9, note=42, velocity=64, time=3),
    Message('note_off', channel=9, note=70, velocity=64, time=0),
    Message('note_off', channel=9, note=36, velocity=64, time=1),
    Message('pitchwheel', channel=2, pitch=31, time=0),
    Message('note_off', channel=8, note=61, velocity=64, time=0),
    Message('note_on', channel=8, note=61, velocity=68, time=9),
    Message('note_on', channel=8, note=66, velocity=74, time=2),
    Message('note_off', channel=8, note=65, velocity=64, time=1),
    Message('note_on', channel=9, note=70, velocity=21, time=5),
    Message('note_on', channel=10, note=54, velocity=65, time=3),
    Message('note_off', channel=9, note=70, velocity=64, time=3),
    Message('pitchwheel', channel=10, pitch=31, time=1),
    Message('note_on', channel=9, note=42, velocity=59, time=17),
    Message('note_on', channel=9, note=70, velocity=42, time=0),
    Message('note_off', channel=9, note=42, velocity=64, time=6),
    Message('note_off', channel=9, note=70, velocity=64, time=0),
    Message('note_on', channel=9, note=42, velocity=31, time=18),
    Message('note_on', channel=9, note=70, velocity=43, time=0),
    Message('note_off', channel=2, note=54, velocity=64, time=1),
    Message('note_on', channel=11, note=54, velocity=46, time=1),
    Message('note_on', channel=2, note=54, velocity=107, time=1),
    Message('note_off', channel=9, note=42, velocity=64, time=3),
    Message('pitchwheel', channel=11, pitch=31, time=0),
    Message('note_off', channel=9, note=70, velocity=64, time=0),
    Message('note_off', channel=2, note=54, velocity=64, time=9),
    Message('pitchwheel', channel=2, pitch=-143, time=0),
    Message('note_on', channel=9, note=42, velocity=101, time=8),
    Message('note_on', channel=9, note=70, velocity=71, time=1),
    Message('note_on', channel=9, note=36, velocity=101, time=1),
    Message('note_off', channel=10, note=54, velocity=64, time=0),
    Message('note_on', channel=10, note=54, velocity=68, time=2),
    Message('note_off', channel=9, note=42, velocity=64, time=2),
    Message('note_off', channel=9, note=70, velocity=64, time=1),
    Message('note_off', channel=9, note=36, velocity=64, time=1),
    Message('note_off', channel=10, note=54, velocity=64, time=8),
    Message('pitchwheel', channel=10, pitch=-143, time=0),
    Message('note_on', channel=9, note=70, velocity=36, time=9),
    Message('note_off', channel=9, note=70, velocity=64, time=6),
    Message('note_on', channel=9, note=42, velocity=73, time=18),
    Message('note_off', channel=11, note=54, velocity=64, time=0),
    Message('note_on', channel=9, note=70, velocity=43, time=0),
    Message('note_on', channel=2, note=54, velocity=96, time=2),
    Message('note_on', channel=11, note=54, velocity=49, time=0),
    Message('note_off', channel=9, note=42, velocity=64, time=4),
    Message('note_off', channel=9, note=70, velocity=64, time=0),
    Message('note_off', channel=11, note=54, velocity=64, time=8),
    Message('pitchwheel', channel=11, pitch=-143, time=0),
    Message('note_on', channel=9, note=42, velocity=71, time=10),
    Message('note_on', channel=9, note=70, velocity=58, time=0),
    Message('note_on', channel=10, note=54, velocity=57, time=2),
    Message('note_off', channel=9, note=42, velocity=64, time=4),
    Message('note_off', channel=9, note=70, velocity=64, time=0),
    Message('note_on', channel=9, note=42, velocity=101, time=17),
    Message('note_off', channel=2, note=54, velocity=64, time=0),
    Message('note_on', channel=9, note=36, velocity=101, time=1),
    Message('note_on', channel=9, note=70, velocity=61, time=0),
    Message('note_on', channel=2, note=54, velocity=89, time=1),
    Message('note_off', channel=9, note=42, velocity=64, time=4),
    Message('note_off', channel=9, note=36, velocity=64, time=1),
    Message('note_off', channel=9, note=70, velocity=64, time=0),
    Message('note_off', channel=10, note=54, velocity=64, time=17),
    Message('note_on', channel=9, note=70, velocity=34, time=1),
    Message('note_on', channel=10, note=54, velocity=50, time=1),
    Message('note_on', channel=11, note=54, velocity=38, time=0),
    Message('note_off', channel=9, note=70, velocity=64, time=5),
    Message('note_off', channel=2, note=54, velocity=64, time=16),
    Message('note_on', channel=9, note=42, velocity=81, time=1),
    Message('note_on', channel=9, note=70, velocity=47, time=1),
    Message('note_on', channel=2, note=54, velocity=68, time=1),
    Message('note_off', channel=9, note=42, velocity=64, time=4),
    Message('note_off', channel=9, note=70, velocity=64, time=1),
    Message('note_off', channel=10, note=54, velocity=64, time=16),
    Message('note_off', channel=11, note=54, velocity=64, time=0),
    Message('note_on', channel=9, note=42, velocity=75, time=1),
    Message('note_on', channel=11, note=54, velocity=31, time=1),
    Message('note_on', channel=9, note=70, velocity=65, time=0),
    Message('note_on', channel=10, note=54, velocity=29, time=1),
    Message('note_off', channel=9, note=42, velocity=64, time=4),
    Message('note_off', channel=9, note=70, velocity=64, time=1),
    Message('note_off', channel=1, note=30, velocity=64, time=9),
    Message('pitchwheel', channel=0, pitch=79, time=3),
    Message('note_off', channel=2, note=54, velocity=64, time=3),
    Message('note_on', channel=9, note=36, velocity=101, time=3),
    Message('note_on', channel=9, note=42, velocity=97, time=0),
    Message('note_on', channel=9, note=70, velocity=67, time=0),
    Message('note_on', channel=1, note=37, velocity=122, time=1),
    Message('note_on', channel=2, note=54, velocity=98, time=0),
    Message('note_off', channel=9, note=42, velocity=64, time=5),
    Message('note_off', channel=9, note=36, velocity=64, time=0),
    Message('note_off', channel=9, note=70, velocity=64, time=0),
    Message('pitchwheel', channel=2, pitch=-367, time=6),
    Message('note_off', channel=2, note=54, velocity=64, time=2),
    Message('pitchwheel', channel=2, pitch=-143, time=0),
    Message('pitchwheel', channel=7, pitch=79, time=4),
    Message('note_off', channel=10, note=54, velocity=64, time=3),
    Message('note_off', channel=11, note=54, velocity=64, time=0),
    Message('note_on', channel=11, note=54, velocity=16, time=3),
    Message('note_on', channel=9, note=70, velocity=36, time=0),
    Message('note_on', channel=10, note=54, velocity=59, time=1),
    Message('note_off', channel=9, note=70, velocity=64, time=5),
    Message('pitchwheel', channel=10, pitch=-367, time=6),
    Message('note_off', channel=10, note=54, velocity=64, time=2),
    Message('pitchwheel', channel=10, pitch=-143, time=0),
    Message('note_on', channel=9, note=70, velocity=43, time=10),
    Message('note_on', channel=9, note=42, velocity=44, time=1),
    Message('note_on', channel=2, note=54, velocity=60, time=1),
    Message('note_off', channel=9, note=70, velocity=64, time=4),
    Message('note_off', channel=9, note=42, velocity=64, time=1),
    Message('pitchwheel', channel=8, pitch=79, time=2),
    Message('note_off', channel=11, note=54, velocity=64, time=11),
    Message('note_on', channel=9, note=42, velocity=55, time=3),
    Message('note_on', channel=11, note=54, velocity=40, time=1),
    Message('note_on', channel=9, note=70, velocity=71, time=0),
    Message('note_on', channel=10, note=54, velocity=21, time=2),
    Message('note_off', channel=9, note=42, velocity=64, time=3),
    Message('note_off', channel=0, note=66, velocity=64, time=0),
    Message('note_off', channel=9, note=70, velocity=64, time=1),
    Message('pitchwheel', channel=0, pitch=175, time=2),
    Message('pitchwheel', channel=11, pitch=-367, time=3),
    Message('note_off', channel=0, note=61, velocity=64, time=2),
    Message('note_off', channel=11, note=54, velocity=64, time=0),
    Message('pitchwheel', channel=11, pitch=-143, time=0),
    Message('note_off', channel=2, note=54, velocity=64, time=9),
    Message('note_on', channel=9, note=36, velocity=101, time=2),
    Message('note_on', channel=9, note=42, velocity=97, time=0),
    Message('note_on', channel=9, note=70, velocity=77, time=0),
    Message('note_on', channel=1, note=42, velocity=106, time=1),
    Message('note_on', channel=2, note=54, velocity=76, time=0),
    Message('note_off', channel=1, note=37, velocity=64, time=2),
    Message('note_off', channel=7, note=66, velocity=64, time=2),
    Message('note_off', channel=9, note=42, velocity=64, time=1),
    Message('note_off', channel=9, note=36, velocity=64, time=0),
    Message('note_off', channel=9, note=70, velocity=64, time=0),
    Message('pitchwheel', channel=7, pitch=175, time=2),
    Message('note_off', channel=7, note=61, velocity=64, time=5),
    Message('note_off', channel=10, note=54, velocity=64, time=9),
    Message('note_on', channel=9, note=70, velocity=32, time=2),
    Message('note_on', channel=10, note=54, velocity=37, time=1),
    Message('note_on', channel=11, note=54, velocity=16, time=0),
    Message('note_off', channel=9, note=70, velocity=64, time=5),
    Message('note_off', channel=1, note=42, velocity=64, time=7),
    Message('note_off', channel=8, note=66, velocity=64, time=7),
    Message('pitchwheel', channel=8, pitch=175, time=3),
    Message('note_on', channel=9, note=70, velocity=44, time=1),
    Message('note_on', channel=9, note=42, velocity=71, time=1),
    Message('note_on', channel=1, note=42, velocity=114, time=0),
    Message('note_off', channel=8, note=61, velocity=64, time=3),
    Message('note_off', channel=9, note=70, velocity=64, time=2),
    Message('note_off', channel=9, note=42, velocity=64, time=1),
    Message('note_off', channel=2, note=54, velocity=64, time=10),
    Message('note_off', channel=11, note=54, velocity=64, time=4),
    Message('note_on', channel=11, note=54, velocity=18, time=3),
    Message('note_on', channel=9, note=70, velocity=58, time=0),
    Message('note_on', channel=9, note=42, velocity=61, time=1),
    Message('note_on', channel=2, note=54, velocity=109, time=1),
    Message('note_off', channel=9, note=70, velocity=64, time=4),
    Message('note_off', channel=9, note=42, velocity=64, time=1),
    Message('pitchwheel', channel=2, pitch=-367, time=3),
    Message('note_off', channel=2, note=54, velocity=64, time=4),
    Message('pitchwheel', channel=2, pitch=-143, time=2),
    Message('note_off', channel=10, note=54, velocity=64, time=1),
    Message('note_off', channel=1, note=42, velocity=64, time=3),
    Message('note_on', channel=9, note=36, velocity=101, time=3),
    Message('note_on', channel=9, note=70, velocity=80, time=1),
    Message('note_on', channel=9, note=42, velocity=101, time=1),
    Message('note_on', channel=1, note=42, velocity=109, time=0),
    Message('note_on', channel=10, note=54, velocity=70, time=1),
    Message('note_off', channel=9, note=36, velocity=64, time=3),
    Message('note_off', channel=9, note=70, velocity=64, time=1),
    Message('note_off', channel=9, note=42, velocity=64, time=1),
    Message('pitchwheel', channel=10, pitch=-367, time=3),
    Message('note_off', channel=10, note=54, velocity=64, time=4),
    Message('pitchwheel', channel=10, pitch=-143, time=2),
    Message('note_on', channel=9, note=70, velocity=38, time=8),
    Message('note_off', channel=9, note=70, velocity=64, time=6),
    Message('note_off', channel=11, note=54, velocity=64, time=10),
    Message('note_on', channel=2, note=54, velocity=88, time=7),
    Message('note_on', channel=9, note=70, velocity=51, time=1),
    Message('note_on', channel=9, note=42, velocity=63, time=1),
    Message('note_on', channel=11, note=54, velocity=51, time=0),
    Message('note_off', channel=9, note=70, velocity=64, time=5),
    Message('note_off', channel=9, note=42, velocity=64, time=1),
    Message('pitchwheel', channel=11, pitch=-367, time=2),
    Message('note_off', channel=11, note=54, velocity=64, time=4),
    Message('pitchwheel', channel=11, pitch=-143, time=2),
    Message('note_on', channel=10, note=54, velocity=49, time=8),
    Message('note_on', channel=9, note=70, velocity=51, time=1),
    Message('note_on', channel=9, note=42, velocity=63, time=1),
    Message('note_off', channel=9, note=70, velocity=64, time=5),
    Message('note_off', channel=9, note=42, velocity=64, time=1),
    Message('note_off', channel=2, note=54, velocity=64, time=8),
    Message('note_on', channel=9, note=36, velocity=101, time=8),
    Message('note_on', channel=2, note=54, velocity=85, time=0),
    Message('note_on', channel=9, note=70, velocity=80, time=1),
    Message('note_on', channel=9, note=42, velocity=90, time=1),
    Message('note_off', channel=9, note=36, velocity=64, time=4),
    Message('note_off', channel=9, note=70, velocity=64, time=1),
    Message('note_off', channel=9, note=42, velocity=64, time=1),
    Message('note_off', channel=5, note=58, velocity=64, time=4),
    Message('note_off', channel=10, note=54, velocity=64, time=4),
    Message('note_off', channel=5, note=61, velocity=64, time=3),
    Message('note_off', channel=5, note=66, velocity=64, time=3),
    Message('note_on', channel=11, note=54, velocity=30, time=1),
    Message('note_off', channel=6, note=58, velocity=64, time=1),
    Message('note_on', channel=10, note=54, velocity=46, time=0),
    Message('note_off', channel=6, note=61, velocity=64, time=1),
    Message('note_on', channel=9, note=70, velocity=43, time=0),
    Message('note_off', channel=6, note=66, velocity=64, time=2),
    Message('note_off', channel=9, note=70, velocity=64, time=4),
    Message('note_on', channel=6, note=66, velocity=52, time=16),
    Message('note_on', channel=6, note=58, velocity=52, time=0),
    Message('note_on', channel=9, note=36, velocity=99, time=1),
    Message('note_on', channel=5, note=58, velocity=52, time=0),
    Message('note_on', channel=5, note=66, velocity=75, time=0),
    Message('note_on', channel=5, note=61, velocity=51, time=0),
    Message('note_on', channel=6, note=61, velocity=52, time=0),
    Message('note_on', channel=9, note=42, velocity=90, time=1),
    Message('note_on', channel=9, note=70, velocity=43, time=0),
    Message('note_on', channel=0, note=61, velocity=119, time=1),
    Message('pitchwheel', channel=0, pitch=0, time=0),
    Message('note_on', channel=0, note=66, velocity=127, time=0),
    Message('note_off', channel=9, note=36, velocity=64, time=4),
    Message('note_off', channel=9, note=42, velocity=64, time=1),
    Message('note_off', channel=9, note=70, velocity=64, time=0),
    Message('note_off', channel=11, note=54, velocity=64, time=8),
    Message('note_on', channel=11, note=54, velocity=27, time=8),
    Message('note_on', channel=9, note=42, velocity=45, time=2),
    Message('note_on', channel=9, note=70, velocity=67, time=0),
    Message('note_on', channel=7, note=61, velocity=73, time=1),
    Message('pitchwheel', channel=7, pitch=0, time=0),
    Message('note_on', channel=7, note=66, velocity=84, time=0),
    Message('note_off', channel=9, note=42, velocity=64, time=5),
    Message('note_off', channel=5, note=58, velocity=64, time=0),
    Message('note_off', channel=9, note=70, velocity=64, time=0),
    Message('note_off', channel=1, note=42, velocity=64, time=3),
    Message('note_off', channel=5, note=61, velocity=64, time=3),
    Message('note_off', channel=5, note=66, velocity=64, time=2),
    Message('note_off', channel=0, note=66, velocity=64, time=7),
    Message('note_off', channel=0, note=61, velocity=64, time=0),
    Message('note_on', channel=9, note=42, velocity=73, time=2),
    Message('note_off', channel=2, note=54, velocity=64, time=0),
    Message('note_on', channel=5, note=58, velocity=54, time=1),
    Message('note_on', channel=9, note=70, velocity=83, time=0),
    Message('note_on', channel=9, note=38, velocity=101, time=1),
    Message('note_on', channel=9, note=36, velocity=101, time=0),
    Message('note_on', channel=5, note=66, velocity=76, time=0),
    Message('note_on', channel=5, note=61, velocity=58, time=0),
    Message('note_on', channel=0, note=61, velocity=110, time=0),
    Message('note_on', channel=0, note=66, velocity=121, time=0),
    Message('note_on', channel=2, note=54, velocity=98, time=1),
    Message('note_off', channel=9, note=42, velocity=64, time=3),
    Message('note_off', channel=9, note=70, velocity=64, time=1),
    Message('note_off', channel=9, note=36, velocity=64, time=1),
    Message('note_off', channel=9, note=38, velocity=64, time=0),
    Message('note_on', channel=8, note=61, velocity=68, time=9),
    Message('pitchwheel', channel=8, pitch=0, time=0),
    Message('note_on', channel=8, note=66, velocity=79, time=0),
    Message('note_off', channel=6, note=61, velocity=64, time=5),
    Message('note_off', channel=7, note=66, velocity=64, time=0),
    Message('note_off', channel=7, note=61, velocity=64, time=0),
    Message('note_on', channel=9, note=42, velocity=67, time=2),
    Message('pitchwheel', channel=2, pitch=-319, time=0),
    Message('note_off', channel=10, note=54, velocity=64, time=0),
    Message('note_on', channel=9, note=70, velocity=22, time=1),
    Message('note_on', channel=7, note=61, velocity=65, time=1),
    Message('note_on', channel=7, note=66, velocity=75, time=0),
    Message('note_on', channel=10, note=54, velocity=59, time=1),
    Message('note_off', channel=2, note=54, velocity=64, time=1),
    Message('pitchwheel', channel=2, pitch=-143, time=1),
    Message('note_off', channel=9, note=42, velocity=64, time=1),
    Message('note_off', channel=9, note=70, velocity=64, time=1),
    Message('note_off', channel=5, note=61, velocity=64, time=6),
    Message('note_off', channel=5, note=66, velocity=64, time=4),
    Message('note_off', channel=5, note=58, velocity=64, time=0),
    Message('note_off', channel=0, note=66, velocity=64, time=1),
    Message('note_off', channel=6, note=58, velocity=64, time=2),
    Message('note_on', channel=6, note=56, velocity=54, time=2),
    Message('note_on', channel=6, note=65, velocity=54, time=1),
    Message('note_on', channel=6, note=61, velocity=54, time=0),
    Message('note_on', channel=9, note=46, velocity=101, time=1),
    Message('note_off', channel=0, note=61, velocity=64, time=0),
    Message('pitchwheel', channel=10, pitch=-319, time=0),
    Message('note_on', channel=9, note=70, velocity=58, time=1),
    Message('note_on', channel=5, note=61, velocity=58, time=1),
    Message('note_on', channel=5, note=65, velocity=77, time=0),
    Message('note_on', channel=5, note=56, velocity=59, time=0),
    Message('note_on', channel=0, note=61, velocity=126, time=0),
    Message('pitchwheel', channel=0, pitch=367, time=1),
    Message('note_on', channel=0, note=65, velocity=127, time=0),
    Message('note_off', channel=6, note=66, velocity=64, time=1),
    Message('note_off', channel=10, note=54, velocity=64, time=0),
    Message('pitchwheel', channel=0, pitch=0, time=1),
    Message('pitchwheel', channel=10, pitch=-143, time=0),
    Message('note_off', channel=9, note=46, velocity=64, time=1),
    Message('note_off', channel=9, note=70, velocity=64, time=1),
    Message('note_off', channel=8, note=66, velocity=64, time=6),
    Message('note_off', channel=8, note=61, velocity=64, time=0),
    Message('note_on', channel=8, note=61, velocity=60, time=4),
    Message('note_on', channel=8, note=66, velocity=69, time=0),
    Message('note_off', channel=7, note=66, velocity=64, time=1),
    Message('note_off', channel=11, note=54, velocity=64, time=5),
    Message('note_off', channel=7, note=61, velocity=64, time=1),
    Message('note_on', channel=9, note=70, velocity=75, time=1),
    Message('note_on', channel=7, note=61, velocity=79, time=1),
    Message('note_on', channel=11, note=54, velocity=40, time=0),
    Message('pitchwheel', channel=7, pitch=367, time=1),
    Message('note_on', channel=7, note=65, velocity=84, time=0),
    Message('pitchwheel', channel=7, pitch=0, time=2),
    Message('note_off', channel=9, note=70, velocity=64, time=2),
    Message('pitchwheel', channel=11, pitch=-319, time=16),
    Message('note_on', channel=1, note=37, velocity=111, time=1),
    Message('note_on', channel=9, note=70, velocity=51, time=1),
    Message('note_on', channel=9, note=36, velocity=101, time=1),
    Message('note_on', channel=9, note=42, velocity=90, time=0),
    Message('note_on', channel=2, note=49, velocity=93, time=1),
    Message('note_off', channel=11, note=54, velocity=64, time=0),
    Message('pitchwheel', channel=11, pitch=-143, time=1),
    Message('pitchwheel', channel=2, pitch=367, time=2),
    Message('note_off', channel=9, note=70, velocity=64, time=1),
    Message('note_off', channel=9, note=42, velocity=64, time=1),
    Message('note_off', channel=9, note=36, velocity=64, time=0),
    Message('note_off', channel=8, note=66, velocity=64, time=1),
    Message('note_off', channel=8, note=61, velocity=64, time=6),
    Message('note_on', channel=8, note=61, velocity=73, time=2),
    Message('pitchwheel', channel=8, pitch=367, time=1),
    Message('note_on', channel=8, note=65, velocity=79, time=0),
    Message('pitchwheel', channel=8, pitch=0, time=2),
    Message('note_on', channel=9, note=70, velocity=21, time=5),
    Message('note_on', channel=10, note=49, velocity=54, time=2),
    Message('pitchwheel', channel=10, pitch=367, time=3),
    Message('note_off', channel=9, note=70, velocity=64, time=1),
    Message('note_off', channel=1, note=37, velocity=64, time=5),
    Message('note_on', channel=9, note=42, velocity=32, time=12),
    Message('note_on', channel=1, note=37, velocity=127, time=0),
    Message('note_on', channel=9, note=70, velocity=42, time=1),
    Message('note_off', channel=9, note=42, velocity=64, time=5),
    Message('note_off', channel=9, note=70, velocity=64, time=1),
    Message('note_on', channel=9, note=42, velocity=44, time=17),
    Message('note_on', channel=9, note=70, velocity=43, time=1),
    Message('note_on', channel=11, note=49, velocity=35, time=1),
    Message('note_off', channel=2, note=49, velocity=64, time=1),
    Message('pitchwheel', channel=11, pitch=367, time=2),
    Message('note_off', channel=9, note=42, velocity=64, time=1),
    Message('note_on', channel=2, note=49, velocity=106, time=0),
    Message('note_off', channel=9, note=70, velocity=64, time=1),
    Message('pitchwheel', channel=2, pitch=303, time=5),
    Message('note_off', channel=1, note=37, velocity=64, time=5),
    Message('note_off', channel=2, note=49, velocity=64, time=1),
    Message('note_on', channel=9, note=42, velocity=97, time=6),
    Message('note_on', channel=1, note=32, velocity=106, time=0),
    Message('note_on', channel=2, note=46, velocity=82, time=1),
    Message('note_on', channel=9, note=70, velocity=71, time=0),
    Message('note_on', channel=9, note=36, velocity=101, time=1),
    Message('note_off', channel=10, note=49, velocity=64, time=1),
    Message('note_off', channel=9, note=42, velocity=64, time=3),
    Message('note_on', channel=10, note=49, velocity=67, time=0),
    Message('note_off', channel=9, note=70, velocity=64, time=1),
    Message('note_off', channel=9, note=36, velocity=64, time=1),
    Message('pitchwheel', channel=10, pitch=303, time=4),
    Message('note_off', channel=2, note=46, velocity=64, time=1),
    Message('pitchwheel', channel=2, pitch=159, time=3),
    Message('note_off', channel=10, note=49, velocity=64, time=2),
    Message('note_off', channel=1, note=32, velocity=64, time=2),
    Message('note_on', channel=1, note=34, velocity=99, time=4),
    Message('pitchwheel', channel=2, pitch=703, time=0),
    Message('note_on', channel=10, note=46, velocity=43, time=1),
    Message('note_on', channel=9, note=70, velocity=36, time=0),
    Message('note_off', channel=9, note=70, velocity=64, time=6),
    Message('note_off', channel=10, note=46, velocity=64, time=6),
    Message('pitchwheel', channel=10, pitch=159, time=3),
    Message('note_off', channel=1, note=34, velocity=64, time=5),
    Message('note_on', channel=9, note=42, velocity=81, time=3),
    Message('note_on', channel=1, note=37, velocity=127, time=0),
    Message('pitchwheel', channel=10, pitch=703, time=0),
    Message('note_on', channel=9, note=70, velocity=43, time=1),
    Message('note_off', channel=11, note=49, velocity=64, time=1),
    Message('pitchwheel', channel=2, pitch=431, time=1),
    Message('note_on', channel=2, note=49, velocity=83, time=0),
    Message('note_on', channel=11, note=49, velocity=48, time=2),
    Message('note_off', channel=9, note=42, velocity=64, time=1),
    Message('note_off', channel=9, note=70, velocity=64, time=1),
    Message('pitchwheel', channel=11, pitch=303, time=4),
    Message('note_off', channel=11, note=49, velocity=64, time=6),
    Message('note_on', channel=11, note=46, velocity=24, time=7),
    Message('note_on', channel=9, note=42, velocity=75, time=1),
    Message('note_on', channel=9, note=70, velocity=58, time=0),
    Message('pitchwheel', channel=10, pitch=431, time=2),
    Message('note_on', channel=10, note=49, velocity=44, time=0),
    Message('note_off', channel=9, note=42, velocity=64, time=4),
    Message('note_off', channel=9, note=70, velocity=64, time=0),
    Message('note_off', channel=11, note=46, velocity=64, time=5),
    Message('note_off', channel=1, note=37, velocity=64, time=2),
    Message('pitchwheel', channel=11, pitch=159, time=1),
    Message('pitchwheel', channel=11, pitch=703, time=8),
    Message('note_on', channel=9, note=36, velocity=101, time=1),
    Message('note_on', channel=9, note=42, velocity=97, time=0),
    Message('note_off', channel=2, note=49, velocity=64, time=0),
    Message('note_on', channel=2, note=49, velocity=82, time=1),
    Message('note_on', channel=9, note=70, velocity=61, time=0),
    Message('note_off', channel=9, note=42, velocity=64, time=5),
    Message('note_off', channel=9, note=36, velocity=64, time=0),
    Message('note_off', channel=9, note=70, velocity=64, time=1),
    Message('note_off', channel=10, note=49, velocity=64, time=17),
    Message('note_on', channel=10, note=49, velocity=43, time=1),
    Message('note_on', channel=9, note=70, velocity=34, time=0),
    Message('pitchwheel', channel=11, pitch=431, time=1),
    Message('note_on', channel=11, note=49, velocity=25, time=0),
    Message('note_off', channel=9, note=70, velocity=64, time=5),
    Message('note_off', channel=2, note=49, velocity=64, time=15),
    Message('note_on', channel=9, note=42, velocity=67, time=2),
    Message('note_on', channel=2, note=49, velocity=67, time=0),
    Message('note_on', channel=9, note=70, velocity=47, time=1),
    Message('note_off', channel=9, note=42, velocity=64, time=5),
    Message('note_off', channel=9, note=70, velocity=64, time=1),
    Message('note_off', channel=10, note=49, velocity=64, time=15),
    Message('note_off', channel=11, note=49, velocity=64, time=1),
    Message('note_on', channel=9, note=42, velocity=56, time=1),
    Message('note_on', channel=10, note=49, velocity=28, time=0),
    Message('note_on', channel=11, note=49, velocity=24, time=0),
    Message('note_on', channel=9, note=70, velocity=65, time=1),
    Message('note_off', channel=9, note=42, velocity=64, time=5),
    Message('note_off', channel=9, note=70, velocity=64, time=1),
    Message('note_off', channel=2, note=49, velocity=64, time=13),
    Message('note_on', channel=9, note=36, velocity=101, time=4),
    Message('note_on', channel=9, note=42, velocity=93, time=1),
    Message('note_on', channel=2, note=49, velocity=79, time=0),
    Message('note_on', channel=9, note=70, velocity=67, time=0),
    Message('note_off', channel=9, note=36, velocity=64, time=5),
    Message('note_off', channel=9, note=42, velocity=64, time=1),
    Message('note_off', channel=9, note=70, velocity=64, time=0),
    MetaMessage('lyrics', text='\n', time=1),
    Message('note_off', channel=2, note=49, velocity=64, time=7),
    Message('note_off', channel=0, note=65, velocity=64, time=2),
    Message('note_off', channel=0, note=61, velocity=64, time=2),
    Message('pitchwheel', channel=0, pitch=495, time=0),
    Message('note_off', channel=10, note=49, velocity=64, time=1),
    Message('note_off', channel=11, note=49, velocity=64, time=1),
    Message('note_on', channel=11, note=49, velocity=16, time=2),
    Message('note_on', channel=10, note=49, velocity=40, time=2),
    Message('note_on', channel=9, note=70, velocity=36, time=0),
    Message('note_off', channel=9, note=70, velocity=64, time=6),
    Message('note_off', channel=10, note=49, velocity=64, time=8),
    Message('note_off', channel=7, note=65, velocity=64, time=2),
    Message('note_off', channel=7, note=61, velocity=64, time=2),
    Message('pitchwheel', channel=7, pitch=495, time=0),
    Message('note_on', channel=9, note=42, velocity=81, time=5),
    Message('note_on', channel=9, note=70, velocity=43, time=1),
    Message('note_on', channel=1, note=34, velocity=110, time=1),
    Message('note_on', channel=2, note=49, velocity=77, time=1),
    Message('pitchwheel', channel=2, pitch=303, time=2),
    Message('note_off', channel=9, note=42, velocity=64, time=1),
    Message('note_off', channel=9, note=70, velocity=64, time=1),
    Message('note_off', channel=11, note=49, velocity=64, time=12),
    Message('note_on', channel=11, note=49, velocity=21, time=5),
    Message('note_on', channel=9, note=42, velocity=55, time=1),
    Message('note_on', channel=9, note=70, velocity=71, time=0),
    Message('note_on', channel=10, note=49, velocity=38, time=2),
    Message('pitchwheel', channel=10, pitch=303, time=2),
    Message('note_off', channel=9, note=42, velocity=64, time=2),
    Message('note_off', channel=9, note=70, velocity=64, time=0),
    Message('note_off', channel=8, note=65, velocity=64, time=1),
    Message('note_off', channel=8, note=61, velocity=64, time=2),
    Message('pitchwheel', channel=8, pitch=495, time=0),
    Message('note_off', channel=11, note=49, velocity=64, time=4),
    Message('note_off', channel=1, note=34, velocity=64, time=2),
    Message('note_on', channel=9, note=36, velocity=101, time=8),
    Message('note_on', channel=9, note=42, velocity=101, time=0),
    Message('note_on', channel=9, note=70, velocity=77, time=1),
    Message('note_on', channel=1, note=37, velocity=125, time=1),
    Message('note_off', channel=9, note=42, velocity=64, time=4),
    Message('note_off', channel=9, note=36, velocity=64, time=0),
    Message('note_off', channel=9, note=70, velocity=64, time=1),
    Message('note_on', channel=9, note=70, velocity=32, time=18),
    Message('note_off', channel=1, note=37, velocity=64, time=1),
    Message('note_on', channel=11, note=49, velocity=19, time=0),
    Message('pitchwheel', channel=11, pitch=303, time=2),
    Message('note_off', channel=9, note=70, velocity=64, time=3),
    Message('note_on', channel=9, note=42, velocity=101, time=17),
    Message('note_on', channel=9, note=70, velocity=44, time=1),
    Message('note_on', channel=1, note=37, velocity=127, time=1),
    Message('note_off', channel=9, note=42, velocity=64, time=4),
    Message('note_off', channel=9, note=70, velocity=64, time=1),
    Message('note_on', channel=9, note=42, velocity=44, time=17),
    Message('note_off', channel=1, note=37, velocity=64, time=1),
    Message('note_on', channel=9, note=70, velocity=58, time=0),
    Message('note_off', channel=2, note=49, velocity=64, time=2),
    Message('note_on', channel=2, note=49, velocity=109, time=2),
    Message('note_off', channel=9, note=42, velocity=64, time=1),
    Message('note_off', channel=9, note=70, velocity=64, time=1),
    Message('note_off', channel=2, note=49, velocity=64, time=8),
    Message('pitchwheel', channel=2, pitch=31, time=4),
    Message('note_on', channel=9, note=36, velocity=101, time=5),
    Message('note_on', channel=9, note=46, velocity=84, time=0),
    Message('note_on', channel=2, note=46, velocity=65, time=1),
    Message('note_on', channel=9, note=70, velocity=80, time=0),
    Message('note_on', channel=1, note=32, velocity=108, time=1),
    Message('note_off', channel=10, note=49, velocity=64, time=1),
    Message('note_on', channel=10, note=49, velocity=70, time=2),
    Message('note_off', channel=9, note=46, velocity=64, time=1),
    Message('note_off', channel=9, note=36, velocity=64, time=0),
    Message('note_off', channel=2, note=46, velocity=64, time=1),
    Message('note_off', channel=9, note=70, velocity=64, time=0),
    Message('pitchwheel', channel=2, pitch=-367, time=5),
    Message('note_off', channel=1, note=32, velocity=64, time=3),
    Message('note_off', channel=10, note=49, velocity=64, time=0),
    Message('pitchwheel', channel=10, pitch=31, time=4),
    Message('note_on', channel=1, note=34, velocity=105, time=6),
    Message('note_on', channel=10, note=46, velocity=26, time=0),
    Message('note_on', channel=9, note=70, velocity=38, time=0),
    Message('note_off', channel=10, note=46, velocity=64, time=6),
    Message('note_off', channel=9, note=70, velocity=64, time=0),
    Message('pitchwheel', channel=10, pitch=-367, time=5),
    Message('note_off', channel=1, note=34, velocity=64, time=8),
    Message('note_on', channel=9, note=46, velocity=101, time=5),
    Message('note_on', channel=9, note=70, velocity=51, time=0),
    Message('note_on', channel=9, note=38, velocity=80, time=1),
    Message('note_on', channel=1, note=37, velocity=127, time=0),
    Message('note_off', channel=11, note=49, velocity=64, time=0),
    Message('note_on', channel=2, note=49, velocity=86, time=1),
    Message('note_on', channel=11, note=49, velocity=51, time=1),
    Message('pitchwheel', channel=2, pitch=367, time=1),
    Message('note_off', channel=9, note=46, velocity=64, time=2),
    Message('note_off', channel=9, note=70, velocity=64, time=0),
    Message('note_off', channel=9, note=38, velocity=64, time=1),
    Message('note_off', channel=11, note=49, velocity=64, time=6),
    Message('pitchwheel', channel=11, pitch=31, time=4),
    Message('note_on', channel=11, note=46, velocity=16, time=6),
    Message('note_on', channel=9, note=70, velocity=51, time=1),
    Message('note_on', channel=9, note=38, velocity=88, time=1),
    Message('note_on', channel=10, note=49, velocity=47, time=1),
    Message('pitchwheel', channel=10, pitch=367, time=2),
    Message('note_off', channel=11, note=46, velocity=64, time=1),
    Message('note_off', channel=9, note=70, velocity=64, time=1),
    Message('note_off', channel=9, note=38, velocity=64, time=1),
    Message('pitchwheel', channel=11, pitch=-367, time=3),
    Message('note_off', channel=2, note=49, velocity=64, time=11),
    Message('note_off', channel=1, note=37, velocity=64, time=1),
    Message('note_on', channel=9, note=36, velocity=101, time=1),
    Message('note_on', channel=9, note=38, velocity=101, time=1),
    Message('note_on', channel=9, note=70, velocity=80, time=0),
    Message('note_on', channel=2, note=49, velocity=96, time=1),
    Message('note_off', channel=9, note=36, velocity=64, time=4),
    Message('note_off', channel=9, note=38, velocity=64, time=1),
    Message('note_off', channel=9, note=70, velocity=64, time=0),
    Message('note_off', channel=10, note=49, velocity=64, time=15),
    Message('note_on', channel=9, note=70, velocity=43, time=3),
    Message('note_on', channel=10, note=49, velocity=57, time=1),
    Message('note_on', channel=11, note=49, velocity=28, time=0),
    Message('pitchwheel', channel=11, pitch=367, time=2),
    Message('note_off', channel=9, note=70, velocity=64, time=3),
    MetaMessage('lyrics', text='I ', time=15),
    Message('note_on', channel=3, note=77, velocity=91, time=0),
    Message('note_on', channel=9, note=38, velocity=101, time=2),
    Message('note_on', channel=9, note=36, velocity=101, time=1),
    Message('note_on', channel=9, note=70, velocity=43, time=0),
    Message('note_off', channel=9, note=38, velocity=64, time=5),
    Message('note_off', channel=9, note=36, velocity=64, time=1),
    Message('note_off', channel=9, note=70, velocity=64, time=0),
    Message('note_off', channel=11, note=49, velocity=64, time=14),
    Message('note_on', channel=11, note=49, velocity=38, time=4),
    Message('note_on', channel=9, note=70, velocity=67, time=0),
    Message('note_off', channel=9, note=70, velocity=64, time=6),
    Message('note_off', channel=2, note=49, velocity=64, time=15),
    Message('note_on', channel=9, note=38, velocity=101, time=2),
    Message('note_on', channel=9, note=57, velocity=64, time=1),
    Message('note_on', channel=9, note=49, velocity=76, time=0),
    Message('note_on', channel=9, note=70, velocity=83, time=0),
    Message('note_on', channel=9, note=36, velocity=101, time=1),
    Message('note_on', channel=1, note=44, velocity=108, time=0),
    Message('note_on', channel=2, note=49, velocity=98, time=2),
    Message('note_off', channel=9, note=38, velocity=64, time=2),
    Message('note_off', channel=9, note=57, velocity=64, time=1),
    Message('note_off', channel=9, note=49, velocity=64, time=0),
    Message('note_off', channel=9, note=70, velocity=64, time=0),
    Message('note_off', channel=9, note=36, velocity=64, time=1),
    MetaMessage('lyrics', text='be', time=12),
    Message('note_off', channel=3, note=77, velocity=64, time=0),
    Message('note_on', channel=3, note=80, velocity=89, time=0),
    Message('note_off', channel=10, note=49, velocity=64, time=2),
    Message('note_on', channel=9, note=70, velocity=22, time=3),
    Message('note_on', channel=10, note=49, velocity=59, time=3),
    Message('note_off', channel=9, note=70, velocity=64, time=3),
    Message('note_off', channel=2, note=49, velocity=64, time=5),
    Message('pitchwheel', channel=1, pitch=-352, time=2),
    Message('note_off', channel=5, note=65, velocity=64, time=0),
    Message('note_off', channel=5, note=61, velocity=64, time=0),
    Message('note_off', channel=5, note=56, velocity=64, time=1),
    Message('pitchwheel', channel=1, pitch=-703, time=3),
    Message('pitchwheel', channel=1, pitch=-937, time=3),
    Message('pitchwheel', channel=1, pitch=-1171, time=3),
    Message('note_on', channel=9, note=70, velocity=58, time=1),
    Message('pitchwheel', channel=1, pitch=-1756, time=2),
    Message('note_off', channel=6, note=61, velocity=64, time=1),
    Message('pitchwheel', channel=1, pitch=-1990, time=3),
    Message('note_off', channel=6, note=56, velocity=64, time=0),
    Message('note_off', channel=9, note=70, velocity=64, time=0),
    Message('pitchwheel', channel=1, pitch=-2341, time=3),
    Message('note_off', channel=10, note=49, velocity=64, time=2),
    Message('pitchwheel', channel=1, pitch=-2575, time=1),
    Message('pitchwheel', channel=1, pitch=-2692, time=2),
    Message('pitchwheel', channel=1, pitch=-2926, time=3),
    Message('pitchwheel', channel=1, pitch=-3277, time=3),
    Message('note_off', channel=11, note=49, velocity=64, time=0),
    Message('note_on', channel=9, note=70, velocity=75, time=4),
    Message('note_off', channel=3, note=80, velocity=64, time=1),
    Message('note_on', channel=11, note=49, velocity=40, time=1),
    Message('pitchwheel', channel=1, pitch=-3043, time=2),
    Message('note_off', channel=9, note=70, velocity=64, time=2),
    Message('pitchwheel', channel=1, pitch=-2107, time=2),
    Message('pitchwheel', channel=1, pitch=-703, time=1),
    Message('pitchwheel', channel=1, pitch=0, time=4),
    MetaMessage('lyrics', text='lieve ', time=3),
    Message('note_on', channel=3, note=80, velocity=93, time=0),
    Message('note_off', channel=1, note=44, velocity=64, time=3),
    Message('note_on', channel=6, note=56, velocity=50, time=3),
    Message('note_on', channel=6, note=61, velocity=50, time=0),
    Message('note_on', channel=9, note=36, velocity=86, time=1),
    Message('note_on', channel=9, note=46, velocity=84, time=0),
    Message('note_off', channel=6, note=65, velocity=64, time=0),
    Message('note_on', channel=0, note=49, velocity=92, time=1),
    Message('note_on', channel=9, note=70, velocity=51, time=0),
    Message('note_on', channel=1, note=37, velocity=110, time=1),
    Message('note_off', channel=9, note=46, velocity=64, time=4),
    Message('note_off', channel=9, note=36, velocity=64, time=0),
    Message('note_off', channel=9, note=70, velocity=64, time=1),
    Message('note_off', channel=11, note=49, velocity=64, time=4),
    Message('note_on', channel=7, note=49, velocity=56, time=14),
    Message('note_on', channel=9, note=70, velocity=21, time=0),
    Message('note_on', channel=9, note=46, velocity=52, time=1),
    Message('note_off', channel=9, note=70, velocity=64, time=5),
    Message('note_off', channel=9, note=46, velocity=64, time=1),
    Message('note_off', channel=3, note=80, velocity=64, time=13),
    Message('note_on', channel=9, note=46, velocity=81, time=3),
    Message('note_on', channel=9, note=70, velocity=42, time=1),
    Message('note_on', channel=0, note=61, velocity=72, time=3),
    Message('note_off', channel=9, note=46, velocity=64, time=2),
    Message('note_off', channel=9, note=70, velocity=64, time=1),
    Message('note_on', channel=3, note=77, velocity=73, time=3),
    Message('note_off', channel=1, note=37, velocity=64, time=0),
    Message('note_on', channel=9, note=70, velocity=43, time=15),
    Message('note_on', channel=7, note=61, velocity=36, time=3),
    Message('note_off', channel=9, note=70, velocity=64, time=3),
    Message('note_on', channel=9, note=70, velocity=71, time=18),
    Message('note_on', channel=9, note=36, velocity=101, time=1),
    Message('note_on', channel=9, note=46, velocity=101, time=0),
    Message('note_on', channel=1, note=37, velocity=126, time=0),
    Message('note_on', channel=0, note=68, velocity=75, time=2),
    Message('note_off', channel=9, note=70, velocity=64, time=3),
    Message('note_off', channel=9, note=46, velocity=64, time=1),
    Message('note_off', channel=9, note=36, velocity=64, time=0),
    Message('note_on', channel=9, note=70, velocity=36, time=17),
    Message('note_on', channel=7, note=68, velocity=39, time=3),
    Message('note_off', channel=9, note=70, velocity=64, time=3),
    Message('note_on', channel=9, note=46, velocity=48, time=18),
    Message('note_on', channel=9, note=70, velocity=43, time=0),
    MetaMessage('lyrics', text='in ', time=3),
    Message('note_on', channel=3, note=75, velocity=64, time=0),
    Message('note_off', channel=3, note=77, velocity=64, time=2),
    Message('note_off', channel=9, note=46, velocity=64, time=1),
    Message('note_off', channel=9, note=70, velocity=64, time=0),
    Message('note_off', channel=1, note=37, velocity=64, time=6),
    Message('note_on', channel=9, note=46, velocity=56, time=11),
    Message('note_on', channel=9, note=70, velocity=58, time=1),
    Message('note_off', channel=9, note=46, velocity=64, time=5),
    Message('note_off', channel=9, note=70, velocity=64, time=1),
    MetaMessage('lyrics', text='the ', time=1),
    Message('note_off', channel=3, note=75, velocity=64, time=0),
    Message('note_on', channel=3, note=73, velocity=63, time=0),
    Message('note_off', channel=0, note=61, velocity=64, time=7),
    Message('note_on', channel=9, note=36, velocity=101, time=9),
    Message('note_on', channel=9, note=46, velocity=87, time=0),
    Message('note_on', channel=9, note=70, velocity=61, time=1),
    Message('note_on', channel=1, note=37, velocity=117, time=1),
    Message('note_on', channel=0, note=61, velocity=75, time=2),
    Message('note_off', channel=9, note=46, velocity=64, time=2),
    Message('note_off', channel=9, note=36, velocity=64, time=0),
    Message('note_off', channel=9, note=70, velocity=64, time=1),
    Message('note_off', channel=7, note=61, velocity=64, time=8),
    Message('note_off', channel=3, note=73, velocity=64, time=1),
    Message('note_on', channel=9, note=70, velocity=34, time=9),
    Message('note_on', channel=7, note=61, velocity=39, time=3),
    Message('note_off', channel=9, note=70, velocity=64, time=3),
    Message('note_off', channel=0, note=68, velocity=64, time=7),
    Message('note_on', channel=9, note=46, velocity=65, time=10),
    MetaMessage('lyrics', text='king', time=1),
    Message('note_on', channel=3, note=82, velocity=97, time=0),
    Message('note_off', channel=1, note=37, velocity=64, time=0),
    Message('note_on', channel=9, note=70, velocity=47, time=0),
    Message('note_on', channel=0, note=68, velocity=79, time=2),
    Message('note_off', channel=9, note=46, velocity=64, time=3),
    Message('note_off', channel=9, note=70, velocity=64, time=1),
    Message('note_off', channel=7, note=68, velocity=64, time=7),
    Message('note_on', channel=9, note=46, velocity=63, time=10),
    Message('note_on', channel=9, note=70, velocity=65, time=1),
    Message('note_on', channel=1, note=32, velocity=92, time=1),
    Message('note_on', channel=7, note=68, velocity=42, time=1),
    Message('note_off', channel=9, note=46, velocity=64, time=3),
    Message('note_off', channel=9, note=70, velocity=64, time=1),
    Message('note_off', channel=1, note=32, velocity=64, time=8),
    Message('note_on', channel=9, note=36, velocity=101, time=9),
    Message('note_on', channel=9, note=46, velocity=84, time=0),
    Message('note_on', channel=1, note=34, velocity=92, time=0),
    Message('note_on', channel=9, note=70, velocity=67, time=1),
    Message('note_off', channel=9, note=46, velocity=64, time=5),
    Message('note_off', channel=9, note=36, velocity=64, time=0),
    Message('note_off', channel=9, note=70, velocity=64, time=1),
    Message('note_on', channel=9, note=70, velocity=36, time=18),
    Message('note_off', channel=3, note=82, velocity=64, time=5),
    Message('note_off', channel=9, note=70, velocity=64, time=1),
    MetaMessage('lyrics', text='dom ', time=5),
    Message('note_on', channel=3, note=80, velocity=78, time=0),
    Message('note_off', channel=0, note=49, velocity=64, time=4),
    Message('note_off', channel=1, note=34, velocity=64, time=6),
    Message('note_on', channel=1, note=37, velocity=104, time=3),
    Message('note_on', channel=9, note=70, velocity=43, time=0),
    Message('note_on', channel=0, note=49, velocity=63, time=2),
    Message('note_off', channel=9, note=70, velocity=64, time=4),
    Message('note_off', channel=7, note=49, velocity=64, time=9),
    Message('note_on', channel=9, note=46, velocity=69, time=8),
    Message('note_on', channel=9, note=70, velocity=71, time=1),
    Message('note_on', channel=7, note=49, velocity=26, time=2),
    Message('note_off', channel=9, note=46, velocity=64, time=3),
    Message('note_off', channel=9, note=70, velocity=64, time=1),
    Message('note_off', channel=3, note=80, velocity=64, time=5),
    Message('note_off', channel=1, note=37, velocity=64, time=1),
    Message('note_off', channel=0, note=49, velocity=64, time=7),
    MetaMessage('lyrics', text='come, ', time=3),
    MetaMessage('lyrics', text='\r', time=0),
    Message('note_on', channel=3, note=80, velocity=84, time=0),
    Message('note_on', channel=9, note=46, velocity=87, time=1),
    Message('note_on', channel=0, note=49, velocity=84, time=0),
    Message('note_on', channel=9, note=36, velocity=101, time=1),
    Message('note_on', channel=9, note=70, velocity=77, time=0),
    Message('note_on', channel=1, note=37, velocity=121, time=1),
    Message('note_off', channel=9, note=46, velocity=64, time=4),
    Message('note_off', channel=9, note=36, velocity=64, time=1),
    Message('note_off', channel=9, note=70, velocity=64, time=0),
    Message('note_off', channel=7, note=49, velocity=64, time=13),
    Message('note_on', channel=7, note=49, velocity=48, time=4),
    Message('note_on', channel=9, note=70, velocity=32, time=1),
    Message('note_off', channel=9, note=70, velocity=64, time=6),
    Message('note_off', channel=0, note=61, velocity=64, time=3),
    Message('note_off', channel=1, note=37, velocity=64, time=10),
    Message('note_on', channel=9, note=46, velocity=58, time=4),
    Message('note_on', channel=9, note=70, velocity=44, time=1),
    Message('note_on', channel=0, note=61, velocity=84, time=1),
    Message('note_off', channel=9, note=46, velocity=64, time=4),
    Message('note_off', channel=9, note=70, velocity=64, time=1),
    Message('note_off', channel=0, note=68, velocity=64, time=3),
    Message('note_off', channel=7, note=61, velocity=64, time=0),
    Message('note_off', channel=3, note=80, velocity=64, time=5),
    Message('note_on', channel=3, note=77, velocity=56, time=5),
    Message('note_on', channel=9, note=46, velocity=63, time=4),
    Message('note_on', channel=9, note=70, velocity=58, time=1),
    Message('note_on', channel=7, note=61, velocity=48, time=1),
    Message('note_off', channel=9, note=46, velocity=64, time=4),
    Message('note_off', channel=9, note=70, velocity=64, time=1),
    Message('note_off', channel=7, note=68, velocity=64, time=3),
    Message('note_on', channel=9, note=36, velocity=99, time=14),
    Message('note_on', channel=0, note=68, velocity=83, time=0),
    Message('note_on', channel=9, note=46, velocity=81, time=1),
    Message('note_on', channel=9, note=70, velocity=80, time=0),
    Message('note_on', channel=1, note=37, velocity=114, time=1),
    Message('note_off', channel=9, note=36, velocity=64, time=4),
    Message('note_off', channel=9, note=46, velocity=64, time=1),
    Message('note_off', channel=9, note=70, velocity=64, time=0),
    Message('note_on', channel=7, note=68, velocity=47, time=17),
    Message('note_on', channel=9, note=70, velocity=38, time=1),
    Message('note_off', channel=9, note=70, velocity=64, time=6),
    Message('note_off', channel=0, note=61, velocity=64, time=7),
    Message('note_off', channel=3, note=77, velocity=64, time=1),
    Message('note_off', channel=1, note=37, velocity=64, time=7),
    Message('note_on', channel=9, note=46, velocity=63, time=2),
    Message('note_on', channel=0, note=61, velocity=81, time=1),
    Message('note_on', channel=9, note=70, velocity=51, time=0),
    Message('note_off', channel=9, note=46, velocity=64, time=5),
    Message('note_off', channel=9, note=70, velocity=64, time=1),
    Message('note_off', channel=7, note=61, velocity=64, time=7),
    Message('note_on', channel=7, note=61, velocity=45, time=11),
    Message('note_on', channel=9, note=70, velocity=51, time=0),
    Message('note_on', channel=9, note=46, velocity=51, time=1),
    Message('note_off', channel=9, note=70, velocity=64, time=5),
    Message('note_off', channel=9, note=46, velocity=64, time=1),
    Message('note_off', channel=0, note=68, velocity=64, time=11),
    Message('note_on', channel=9, note=36, velocity=101, time=5),
    Message('note_on', channel=9, note=46, velocity=63, time=1),
    Message('note_on', channel=9, note=70, velocity=80, time=0),
    Message('note_on', channel=1, note=37, velocity=116, time=1),
    Message('note_on', channel=0, note=72, velocity=87, time=1),
    Message('note_off', channel=9, note=36, velocity=64, time=3),
    Message('note_off', channel=9, note=46, velocity=64, time=1),
    Message('note_off', channel=9, note=70, velocity=64, time=0),
    Message('note_off', channel=7, note=68, velocity=64, time=12),
    Message('note_on', channel=9, note=70, velocity=43, time=6),
    Message('note_on', channel=9, note=46, velocity=69, time=1),
    Message('note_on', channel=7, note=72, velocity=50, time=1),
    Message('note_off', channel=9, note=70, velocity=64, time=4),
    Message('note_off', channel=9, note=46, velocity=64, time=1),
    MetaMessage('lyrics', text='then ', time=8),
    Message('note_on', channel=3, note=77, velocity=83, time=0),
    Message('note_off', channel=0, note=72, velocity=64, time=2),
    Message('note_on', channel=9, note=46, velocity=90, time=7),
    Message('note_on', channel=9, note=70, velocity=43, time=0),
    Message('note_on', channel=9, note=36, velocity=101, time=1),
    Message('note_on', channel=0, note=68, velocity=81, time=0),
    Message('note_off', channel=9, note=46, velocity=64, time=5),
    Message('note_off', channel=9, note=70, velocity=64, time=0),
    Message('note_off', channel=9, note=36, velocity=64, time=1),
    Message('note_off', channel=1, note=37, velocity=64, time=5),
    Message('note_off', channel=7, note=72, velocity=64, time=5),
    Message('note_on', channel=9, note=70, velocity=67, time=7),
    Message('note_on', channel=1, note=32, velocity=90, time=1),
    Message('note_on', channel=7, note=68, velocity=45, time=0),
    Message('note_off', channel=3, note=77, velocity=64, time=1),
    Message('note_off', channel=9, note=70, velocity=64, time=4),
    Message('note_off', channel=1, note=32, velocity=64, time=7),
    MetaMessage('lyrics', text='all ', time=2),
    Message('note_on', channel=3, note=77, velocity=80, time=0),
    Message('note_off', channel=0, note=61, velocity=64, time=2),
    Message('note_on', channel=9, note=46, velocity=71, time=6),
    Message('note_on', channel=1, note=34, velocity=110, time=1),
    Message('note_on', channel=9, note=70, velocity=83, time=0),
    Message('note_on', channel=9, note=38, velocity=101, time=1),
    Message('note_on', channel=9, note=36, velocity=101, time=0),
    Message('note_on', channel=0, note=61, velocity=77, time=0),
    Message('note_off', channel=9, note=46, velocity=64, time=4),
    Message('note_off', channel=9, note=70, velocity=64, time=1),
    Message('note_off', channel=9, note=36, velocity=64, time=1),
    Message('note_off', channel=9, note=38, velocity=64, time=0),
    Message('note_off', channel=7, note=61, velocity=64, time=10),
    Message('note_on', channel=9, note=70, velocity=22, time=7),
    Message('note_on', channel=9, note=46, velocity=63, time=1),
    Message('note_on', channel=7, note=61, velocity=41, time=0),
    Message('note_off', channel=9, note=70, velocity=64, time=5),
    Message('note_off', channel=9, note=46, velocity=64, time=1),
    MetaMessage('lyrics', text='the ', time=7),
    Message('note_on', channel=3, note=80, velocity=89, time=0),
    Message('note_off', channel=3, note=77, velocity=64, time=2),
    Message('note_off', channel=0, note=61, velocity=64, time=2),
    Message('note_off', channel=1, note=34, velocity=64, time=3),
    Message('note_on', channel=9, note=46, velocity=67, time=2),
    Message('note_on', channel=9, note=70, velocity=58, time=1),
    Message('note_on', channel=1, note=37, velocity=108, time=1),
    Message('note_on', channel=0, note=61, velocity=80, time=1),
    Message('note_off', channel=9, note=46, velocity=64, time=3),
    Message('note_off', channel=9, note=70, velocity=64, time=1),
    Message('note_off', channel=7, note=61, velocity=64, time=12),
    Message('note_on', channel=9, note=46, velocity=67, time=5),
    Message('note_on', channel=9, note=70, velocity=75, time=1),
    Message('note_on', channel=7, note=61, velocity=44, time=2),
    Message('note_off', channel=9, note=46, velocity=64, time=3),
    Message('note_off', channel=9, note=70, velocity=64, time=1),
    Message('note_off', channel=3, note=80, velocity=64, time=1),
    Message('note_off', channel=1, note=37, velocity=64, time=8),
    MetaMessage('lyrics', text='col', time=7),
    Message('note_on', channel=3, note=80, velocity=95, time=0),
    Message('note_on', channel=9, note=46, velocity=93, time=1),
    Message('note_on', channel=9, note=70, velocity=51, time=1),
    Message('note_on', channel=9, note=36, velocity=101, time=1),
    Message('note_on', channel=1, note=37, velocity=118, time=0),
    Message('note_off', channel=0, note=49, velocity=64, time=0),
    Message('note_on', channel=0, note=49, velocity=89, time=1),
    Message('note_off', channel=9, note=46, velocity=64, time=3),
    Message('note_off', channel=9, note=70, velocity=64, time=1),
    Message('note_off', channel=9, note=36, velocity=64, time=1),
    Message('note_on', channel=9, note=70, velocity=21, time=17),
    Message('note_off', channel=7, note=49, velocity=64, time=1),
    Message('note_on', channel=7, note=49, velocity=53, time=1),
    Message('note_off', channel=9, note=70, velocity=64, time=4),
    Message('note_off', channel=0, note=61, velocity=64, time=6),
    Message('note_off', channel=1, note=37, velocity=64, time=6),
    Message('note_on', channel=9, note=70, velocity=42, time=6),
    Message('note_on', channel=0, note=61, velocity=80, time=2),
    Message('note_off', channel=9, note=70, velocity=64, time=4),
    Message('note_off', channel=7, note=61, velocity=64, time=6),
    Message('note_off', channel=3, note=80, velocity=64, time=1),
    Message('note_off', channel=0, note=68, velocity=64, time=4),
    MetaMessage('lyrics', text='ours ', time=4),
    Message('note_on', channel=3, note=77, velocity=74, time=0),
    Message('note_on', channel=9, note=70, velocity=43, time=3),
    Message('note_on', channel=9, note=46, velocity=75, time=1),
    Message('note_on', channel=7, note=61, velocity=44, time=1),
    Message('note_off', channel=9, note=70, velocity=64, time=4),
    Message('note_off', channel=9, note=46, velocity=64, time=1),
    Message('note_off', channel=7, note=68, velocity=64, time=10),
    Message('note_on', channel=9, note=36, velocity=101, time=6),
    Message('note_on', channel=9, note=46, velocity=84, time=0),
    Message('note_on', channel=0, note=68, velocity=87, time=1),
    Message('note_on', channel=9, note=70, velocity=71, time=0),
    Message('note_on', channel=1, note=37, velocity=122, time=1),
    Message('note_off', channel=9, note=46, velocity=64, time=4),
    Message('note_off', channel=9, note=36, velocity=64, time=0),
    Message('note_off', channel=9, note=70, velocity=64, time=1),
    Message('note_on', channel=7, note=68, velocity=50, time=18),
    Message('note_on', channel=9, note=70, velocity=36, time=0),
    Message('note_off', channel=9, note=70, velocity=64, time=6),
    Message('note_off', channel=1, note=37, velocity=64, time=14),
    Message('note_on', channel=9, note=46, velocity=75, time=3),
    Message('note_on', channel=9, note=70, velocity=43, time=1),
    Message('note_off', channel=9, note=46, velocity=64, time=5),
    Message('note_off', channel=9, note=70, velocity=64, time=1),
    Message('note_off', channel=3, note=77, velocity=64, time=1),
    MetaMessage('lyrics', text='will ', time=2),
    Message('note_on', channel=3, note=75, velocity=54, time=0),
    Message('note_on', channel=9, note=46, velocity=75, time=14),
    Message('note_on', channel=9, note=70, velocity=58, time=1),
    Message('note_off', channel=9, note=46, velocity=64, time=5),
    Message('note_off', channel=9, note=70, velocity=64, time=1),
    Message('note_off', channel=0, note=61, velocity=64, time=3),
    Message('note_off', channel=3, note=75, velocity=64, time=10),
    Message('note_on', channel=9, note=36, velocity=101, time=4),
    Message('note_on', channel=9, note=46, velocity=84, time=0),
    Message('note_on', channel=9, note=70, velocity=61, time=1),
    Message('note_on', channel=1, note=37, velocity=117, time=1),
    Message('note_on', channel=0, note=61, velocity=83, time=1),
    Message('note_off', channel=9, note=46, velocity=64, time=3),
    Message('note_off', channel=9, note=36, velocity=64, time=0),
    Message('note_off', channel=9, note=70, velocity=64, time=1),
    Message('note_off', channel=7, note=61, velocity=64, time=3),
    Message('note_on', channel=9, note=70, velocity=34, time=15),
    Message('note_on', channel=7, note=61, velocity=47, time=2),
    Message('note_off', channel=9, note=70, velocity=64, time=4),
    Message('note_off', channel=0, note=68, velocity=64, time=1),
    MetaMessage('lyrics', text='bleed ', time=16),
    Message('note_on', channel=3, note=82, velocity=89, time=0),
    Message('note_on', channel=9, note=46, velocity=59, time=0),
    Message('note_on', channel=9, note=70, velocity=47, time=1),
    Message('note_on', channel=0, note=68, velocity=85, time=1),
    Message('note_off', channel=1, note=37, velocity=64, time=2),
    Message('note_off', channel=9, note=46, velocity=64, time=2),
    Message('note_off', channel=9, note=70, velocity=64, time=1),
    Message('note_off', channel=7, note=68, velocity=64, time=1),
    Message('note_on', channel=9, note=46, velocity=52, time=16),
    Message('note_on', channel=9, note=38, velocity=82, time=1),
    Message('note_on', channel=9, note=70, velocity=65, time=0),
    Message('note_on', channel=1, note=32, velocity=105, time=1),
    Message('note_on', channel=7, note=68, velocity=49, time=0),
    Message('note_off', channel=9, note=46, velocity=64, time=4),
    Message('note_off', channel=9, note=38, velocity=64, time=1),
    Message('note_off', channel=9, note=70, velocity=64, time=0),
    Message('note_off', channel=1, note=32, velocity=64, time=8),
    Message('note_on', channel=9, note=36, velocity=101, time=9),
    Message('note_on', channel=9, note=46, velocity=63, time=0),
    Message('note_on', channel=9, note=70, velocity=67, time=1),
    Message('note_on', channel=1, note=34, velocity=103, time=1),
    Message('note_off', channel=9, note=46, velocity=64, time=4),
    Message('note_off', channel=9, note=36, velocity=64, time=0),
    Message('note_off', channel=9, note=70, velocity=64, time=1),
    Message('note_on', channel=9, note=46, velocity=58, time=17),
    Message('note_off', channel=0, note=49, velocity=64, time=0),
    Message('note_on', channel=9, note=70, velocity=36, time=1),
    MetaMessage('lyrics', text='in', time=2),
    Message('note_on', channel=3, note=80, velocity=87, time=0),
    Message('note_off', channel=3, note=82, velocity=64, time=3),
    Message('note_off', channel=9, note=46, velocity=64, time=0),
    Message('note_off', channel=9, note=70, velocity=64, time=1),
    Message('note_off', channel=1, note=34, velocity=64, time=13),
    Message('note_on', channel=9, note=46, velocity=97, time=4),
    Message('note_off', channel=7, note=49, velocity=64, time=0),
    Message('note_on', channel=9, note=70, velocity=43, time=1),
    Message('note_on', channel=1, note=37, velocity=111, time=1),
    Message('note_on', channel=0, note=49, velocity=83, time=0),
    Message('note_off', channel=9, note=46, velocity=64, time=4),
    Message('note_off', channel=9, note=70, velocity=64, time=1),
    MetaMessage('lyrics', text='to ', time=10),
    Message('note_on', channel=3, note=77, velocity=73, time=0),
    Message('note_off', channel=3, note=80, velocity=64, time=1),
    Message('note_on', channel=9, note=70, velocity=71, time=7),
    Message('note_on', channel=7, note=49, velocity=47, time=1),
    Message('note_off', channel=9, note=70, velocity=64, time=5),
    Message('note_off', channel=1, note=37, velocity=64, time=8),
    Message('note_off', channel=0, note=49, velocity=64, time=7),
    Message('note_on', channel=9, note=46, velocity=73, time=2),
    Message('note_on', channel=9, note=70, velocity=77, time=1),
    Message('note_on', channel=9, note=36, velocity=101, time=1),
    Message('note_on', channel=1, note=37, velocity=116, time=0),
    Message('note_on', channel=0, note=49, velocity=92, time=0),
    Message('note_off', channel=9, note=46, velocity=64, time=4),
    Message('note_off', channel=9, note=70, velocity=64, time=1),
    Message('note_off', channel=9, note=36, velocity=64, time=1),
    MetaMessage('lyrics', text='one, ', time=2),
    MetaMessage('lyrics', text='\r', time=0),
    Message('note_on', channel=3, note=75, velocity=78, time=0),
    Message('note_off', channel=3, note=77, velocity=64, time=4),
    Message('note_off', channel=7, note=49, velocity=64, time=8),
    Message('note_on', channel=9, note=70, velocity=32, time=3),
    Message('note_on', channel=7, note=49, velocity=56, time=1),
    Message('note_off', channel=9, note=70, velocity=64, time=5),
    Message('note_off', channel=0, note=61, velocity=64, time=9),
    Message('note_off', channel=1, note=37, velocity=64, time=1),
    Message('note_on', channel=9, note=46, velocity=52, time=7),
    Message('note_on', channel=9, note=70, velocity=44, time=1),
    Message('note_on', channel=0, note=61, velocity=83, time=1),
    Message('note_off', channel=9, note=46, velocity=64, time=4),
    Message('note_off', channel=9, note=70, velocity=64, time=1),
    Message('note_off', channel=3, note=75, velocity=64, time=3),
    Message('note_on', channel=3, note=73, velocity=62, time=4),
    Message('note_off', channel=7, note=61, velocity=64, time=2),
    Message('note_on', channel=9, note=46, velocity=71, time=8),
    Message('note_off', channel=0, note=68, velocity=64, time=0),
    Message('note_on', channel=9, note=70, velocity=58, time=1),
    Message('note_on', channel=7, note=61, velocity=47, time=1),
    Message('note_off', channel=9, note=46, velocity=64, time=4),
    Message('note_off', channel=9, note=70, velocity=64, time=1),
    Message('note_on', channel=9, note=46, velocity=90, time=17),
    Message('note_on', channel=0, note=68, velocity=80, time=0),
    Message('note_off', channel=7, note=68, velocity=64, time=0),
    Message('note_on', channel=9, note=36, velocity=101, time=1),
    Message('note_on', channel=9, note=70, velocity=80, time=0),
    Message('note_on', channel=1, note=37, velocity=114, time=1),
    Message('note_off', channel=9, note=46, velocity=64, time=4),
    Message('note_off', channel=9, note=36, velocity=64, time=1),
    Message('note_off', channel=9, note=70, velocity=64, time=0),
    Message('note_off', channel=3, note=73, velocity=64, time=16),
    Message('note_on', channel=7, note=68, velocity=44, time=1),
    Message('note_on', channel=9, note=70, velocity=38, time=1),
    Message('note_off', channel=9, note=70, velocity=64, time=6),
    Message('note_off', channel=0, note=61, velocity=64, time=6),
    Message('note_on', channel=9, note=46, velocity=63, time=11),
    Message('note_on', channel=0, note=61, velocity=77, time=1),
    Message('note_on', channel=9, note=70, velocity=51, time=0),
    MetaMessage('lyrics', text='bleed ', time=1),
    Message('note_on', channel=3, note=82, velocity=89, time=0),
    Message('note_off', channel=9, note=46, velocity=64, time=4),
    Message('note_off', channel=9, note=70, velocity=64, time=1),
    Message('note_off', channel=7, note=61, velocity=64, time=6),
    Message('note_off', channel=1, note=37, velocity=64, time=6),
    Message('note_on', channel=9, note=46, velocity=67, time=5),
    Message('note_on', channel=7, note=61, velocity=41, time=1),
    Message('note_on', channel=9, note=70, velocity=51, time=0),
    Message('note_off', channel=9, note=46, velocity=64, time=5),
    Message('note_off', channel=9, note=70, velocity=64, time=1),
    Message('note_on', channel=9, note=46, velocity=73, time=17),
    Message('note_off', channel=0, note=68, velocity=64, time=1),
    Message('note_on', channel=9, note=70, velocity=80, time=0),
    Message('note_on', channel=9, note=36, velocity=101, time=1),
    Message('note_on', channel=1, note=37, velocity=121, time=0),
    Message('note_on', channel=0, note=72, velocity=80, time=1),
    Message('note_off', channel=9, note=46, velocity=64, time=3),
    Message('note_off', channel=9, note=70, velocity=64, time=1),
    Message('note_off', channel=9, note=36, velocity=64, time=1),
    Message('note_on', channel=9, note=46, velocity=67, time=16),
    Message('note_off', channel=7, note=68, velocity=64, time=1),
    Message('note_on', channel=9, note=70, velocity=43, time=0),
    Message('note_on', channel=7, note=72, velocity=44, time=2),
    Message('note_off', channel=9, note=46, velocity=64, time=3),
    Message('note_off', channel=9, note=70, velocity=64, time=1),
    Message('note_on', channel=9, note=46, velocity=97, time=17),
    Message('note_on', channel=9, note=70, velocity=43, time=1),
    Message('note_on', channel=9, note=36, velocity=101, time=1),
    Message('note_off', channel=0, note=72, velocity=64, time=1),
    Message('note_on', channel=0, note=68, velocity=68, time=0),
    Message('note_off', channel=9, note=46, velocity=64, time=3),
    Message('note_off', channel=1, note=37, velocity=64, time=0),
    Message('note_off', channel=9, note=70, velocity=64, time=1),
    Message('note_off', channel=9, note=36, velocity=64, time=1),
    Message('note_on', channel=9, note=70, velocity=67, time=17),
    Message('note_on', channel=1, note=32, velocity=106, time=1),
    Message('note_off', channel=7, note=72, velocity=64, time=1),
    Message('note_on', channel=7, note=68, velocity=32, time=0),
    Message('note_off', channel=9, note=70, velocity=64, time=4),
    Message('note_off', channel=1, note=32, velocity=64, time=5),
    Message('note_off', channel=0, note=61, velocity=64, time=6),
    Message('note_on', channel=9, note=46, velocity=78, time=6),
    Message('note_on', channel=9, note=70, velocity=83, time=1),
    Message('note_on', channel=9, note=36, velocity=101, time=1),
    Message('note_on', channel=9, note=38, velocity=101, time=0),
    Message('note_on', channel=1, note=34, velocity=110, time=0),
    Message('note_on', channel=0, note=61, velocity=67, time=0),
    Message('note_off', channel=9, note=46, velocity=64, time=4),
    Message('note_off', channel=9, note=70, velocity=64, time=1),
    Message('note_off', channel=9, note=38, velocity=64, time=1),
    Message('note_off', channel=9, note=36, velocity=64, time=0),
    Message('note_off', channel=7, note=61, velocity=64, time=10),
    Message('note_on', channel=9, note=70, velocity=22, time=7),
    Message('note_on', channel=7, note=61, velocity=31, time=1),
    Message('note_off', channel=3, note=82, velocity=64, time=4),
    Message('note_off', channel=9, note=70, velocity=64, time=1),
    MetaMessage('lyrics', text='in', time=2),
    Message('note_on', channel=3, note=80, velocity=89, time=0),
    Message('note_off', channel=1, note=34, velocity=64, time=13),
    Message('note_on', channel=9, note=46, velocity=53, time=3),
    Message('note_on', channel=9, note=70, velocity=58, time=0),
    Message('note_on', channel=1, note=37, velocity=119, time=1),
    Message('note_off', channel=9, note=46, velocity=64, time=5),
    Message('note_off', channel=9, note=70, velocity=64, time=0),
    Message('note_on', channel=9, note=70, velocity=75, time=18),
    Message('note_on', channel=9, note=46, velocity=63, time=1),
    Message('note_off', channel=6, note=61, velocity=64, time=1),
    Message('note_off', channel=3, note=80, velocity=64, time=1),
    MetaMessage('lyrics', text='to ', time=3),
    Message('note_on', channel=3, note=77, velocity=73, time=0),
    Message('note_off', channel=9, note=70, velocity=64, time=0),
    Message('note_off', channel=9, note=46, velocity=64, time=1),
    Message('note_off', channel=6, note=56, velocity=64, time=2),
    Message('note_off', channel=1, note=37, velocity=64, time=5),
    Message('note_on', channel=9, note=46, velocity=90, time=10),
    Message('note_on', channel=6, note=56, velocity=48, time=0),
    Message('note_on', channel=6, note=54, velocity=48, time=0),
    Message('note_on', channel=6, note=61, velocity=48, time=0),
    Message('note_on', channel=9, note=70, velocity=51, time=0),
    Message('note_on', channel=9, note=36, velocity=96, time=1),
    Message('note_on', channel=1, note=30, velocity=111, time=0),
    Message('note_on', channel=0, note=54, velocity=83, time=3),
    Message('note_off', channel=9, note=46, velocity=64, time=2),
    Message('note_off', channel=9, note=70, velocity=64, time=0),
    Message('note_off', channel=9, note=36, velocity=64, time=1),
    Message('note_on', channel=9, note=70, velocity=21, time=17),
    Message('note_on', channel=7, note=54, velocity=47, time=4),
    Message('note_off', channel=9, note=70, velocity=64, time=2),
    MetaMessage('lyrics', text='one, ', time=12),
    Message('note_on', channel=3, note=75, velocity=85, time=0),
    Message('note_off', channel=0, note=61, velocity=64, time=2),
    Message('note_off', channel=3, note=77, velocity=64, time=3),
    Message('note_on', channel=9, note=70, velocity=42, time=1),
    Message('note_on', channel=9, note=46, velocity=65, time=1),
    Message('note_on', channel=0, note=61, velocity=75, time=1),
    Message('note_off', channel=9, note=70, velocity=64, time=4),
    Message('note_off', channel=9, note=46, velocity=64, time=1),
    Message('note_off', channel=1, note=30, velocity=64, time=5),
    Message('note_off', channel=0, note=68, velocity=64, time=2),
    Message('note_off', channel=7, note=61, velocity=64, time=6),
    Message('note_on', channel=9, note=46, velocity=69, time=3),
    Message('note_on', channel=9, note=70, velocity=43, time=1),
    Message('note_on', channel=7, note=61, velocity=39, time=2),
    Message('note_off', channel=9, note=46, velocity=64, time=3),
    Message('note_off', channel=9, note=70, velocity=64, time=1),
    Message('note_off', channel=7, note=68, velocity=64, time=8),
    Message('note_on', channel=9, note=46, velocity=71, time=10),
    Message('note_on', channel=1, note=30, velocity=119, time=0),
    Message('note_on', channel=9, note=70, velocity=71, time=0),
    Message('note_on', channel=9, note=36, velocity=101, time=1),
    Message('note_on', channel=0, note=68, velocity=80, time=2),
    Message('note_off', channel=9, note=46, velocity=64, time=3),
    Message('note_off', channel=9, note=70, velocity=64, time=0),
    Message('note_off', channel=9, note=36, velocity=64, time=1),
    Message('note_on', channel=9, note=70, velocity=36, time=17),
    Message('note_on', channel=7, note=68, velocity=44, time=3),
    Message('note_on', channel=3, note=73, velocity=72, time=1),
    Message('note_off', channel=3, note=75, velocity=64, time=2),
    Message('note_off', channel=9, note=70, velocity=64, time=0),
    Message('note_on', channel=9, note=46, velocity=61, time=17),
    Message('note_on', channel=9, note=70, velocity=43, time=1),
    Message('note_off', channel=9, note=46, velocity=64, time=5),
    Message('note_off', channel=9, note=70, velocity=64, time=1),
    Message('note_off', channel=1, note=30, velocity=64, time=15),
    Message('note_on', channel=9, note=46, velocity=69, time=2),
    Message('note_on', channel=9, note=70, velocity=58, time=1),
    Message('note_off', channel=9, note=46, velocity=64, time=5),
    Message('note_off', channel=9, note=70, velocity=64, time=1),
    Message('note_off', channel=0, note=61, velocity=64, time=8),
    Message('note_on', channel=1, note=30, velocity=114, time=9),
    Message('note_on', channel=9, note=36, velocity=101, time=1),
    Message('note_on', channel=9, note=46, velocity=87, time=0),
    Message('note_on', channel=9, note=70, velocity=61, time=0),
    Message('note_on', channel=0, note=61, velocity=79, time=2),
    Message('note_off', channel=9, note=46, velocity=64, time=4),
    Message('note_off', channel=9, note=36, velocity=64, time=0),
    Message('note_off', channel=9, note=70, velocity=64, time=0),
    Message('note_off', channel=7, note=61, velocity=64, time=8),
    Message('note_on', channel=9, note=70, velocity=34, time=10),
    Message('note_on', channel=7, note=61, velocity=42, time=2),
    Message('note_off', channel=9, note=70, velocity=64, time=4),
    Message('note_off', channel=0, note=68, velocity=64, time=7),
    Message('note_on', channel=9, note=46, velocity=67, time=11),
    Message('note_on', channel=9, note=70, velocity=47, time=0),
    Message('note_on', channel=0, note=68, velocity=83, time=2),
    Message('note_off', channel=9, note=46, velocity=64, time=4),
    Message('note_off', channel=9, note=70, velocity=64, time=0),
    Message('note_off', channel=1, note=30, velocity=64, time=5),
    Message('note_off', channel=7, note=68, velocity=64, time=2),
    Message('note_on', channel=9, note=46, velocity=67, time=11),
    Message('note_on', channel=1, note=32, velocity=116, time=0),
    Message('note_on', channel=9, note=70, velocity=65, time=0),
    Message('note_off', channel=3, note=73, velocity=64, time=2),
    Message('note_on', channel=7, note=68, velocity=47, time=0),
    Message('note_off', channel=9, note=46, velocity=64, time=4),
    Message('note_off', channel=9, note=70, velocity=64, time=0),
    Message('note_off', channel=1, note=32, velocity=64, time=6),
    Message('note_on', channel=1, note=34, velocity=116, time=11),
    Message('note_on', channel=9, note=36, velocity=101, time=1),
    Message('note_on', channel=9, note=70, velocity=67, time=0),
    Message('note_on', channel=9, note=46, velocity=87, time=1),
    Message('note_off', channel=9, note=36, velocity=64, time=5),
    Message('note_off', channel=9, note=70, velocity=64, time=0),
    Message('note_off', channel=9, note=46, velocity=64, time=1),
    Message('note_off', channel=0, note=54, velocity=64, time=13),
    Message('note_on', channel=9, note=70, velocity=36, time=4),
    Message('note_off', channel=9, note=70, velocity=64, time=6),
    Message('note_off', channel=0, note=49, velocity=64, time=4),
    Message('note_off', channel=1, note=34, velocity=64, time=9),
    Message('note_off', channel=7, note=54, velocity=64, time=1),
    Message('note_on', channel=0, note=54, velocity=72, time=3),
    Message('note_on', channel=1, note=37, velocity=123, time=1),
    Message('note_on', channel=9, note=70, velocity=43, time=0),
    Message('note_on', channel=9, note=46, velocity=75, time=1),
    Message('note_off', channel=9, note=70, velocity=64, time=5),
    Message('note_off', channel=9, note=46, velocity=64, time=1),
    Message('note_off', channel=7, note=49, velocity=64, time=3),
    Message('note_on', channel=7, note=54, velocity=36, time=13),
    Message('note_on', channel=9, note=70, velocity=71, time=1),
    Message('note_on', channel=9, note=46, velocity=58, time=1),
    Message('note_off', channel=9, note=70, velocity=64, time=5),
    Message('note_off', channel=9, note=46, velocity=64, time=1),
    Message('note_off', channel=1, note=37, velocity=64, time=10),
    Message('note_off', channel=0, note=54, velocity=64, time=2),
    Message('note_on', channel=1, note=30, velocity=103, time=4),
    Message('note_on', channel=0, note=54, velocity=90, time=1),
    Message('note_on', channel=9, note=70, velocity=77, time=0),
    Message('note_on', channel=9, note=36, velocity=101, time=1),
    Message('note_on', channel=9, note=46, velocity=59, time=0),
    Message('note_off', channel=9, note=70, velocity=64, time=5),
    Message('note_off', channel=9, note=46, velocity=64, time=1),
    Message('note_off', channel=9, note=36, velocity=64, time=0),
    Message('note_off', channel=7, note=54, velocity=64, time=12),
    Message('note_on', channel=7, note=54, velocity=54, time=5),
    Message('note_on', channel=9, note=70, velocity=32, time=0),
    Message('note_off', channel=9, note=70, velocity=64, time=6),
    Message('note_off', channel=0, note=61, velocity=64, time=13),
    Message('note_off', channel=0, note=68, velocity=64, time=1),
    Message('note_on', channel=0, note=61, velocity=64, time=2),
    Message('note_on', channel=9, note=70, velocity=44, time=2),
    Message('note_off', channel=9, note=70, velocity=64, time=6),
    Message('note_off', channel=1, note=30, velocity=64, time=11),
    Message('note_off', channel=7, note=61, velocity=64, time=2),
    Message('note_off', channel=7, note=68, velocity=64, time=1),
    Message('note_on', channel=7, note=61, velocity=28, time=2),
    Message('note_on', channel=9, note=46, velocity=67, time=1),
    Message('note_on', channel=9, note=70, velocity=58, time=1),
    Message('note_off', channel=9, note=46, velocity=64, time=5),
    Message('note_off', channel=9, note=70, velocity=64, time=1),
    Message('note_on', channel=9, note=46, velocity=87, time=17),
    Message('note_on', channel=9, note=36, velocity=101, time=1),
    Message('note_on', channel=0, note=68, velocity=83, time=0),
    Message('note_on', channel=9, note=70, velocity=80, time=0),
    Message('note_on', channel=1, note=30, velocity=117, time=1),
    Message('note_off', channel=9, note=46, velocity=64, time=4),
    Message('note_off', channel=9, note=36, velocity=64, time=1),
    Message('note_off', channel=9, note=70, velocity=64, time=0),
    Message('note_on', channel=9, note=46, velocity=57, time=17),
    Message('note_on', channel=7, note=68, velocity=47, time=1),
    Message('note_on', channel=9, note=70, velocity=38, time=0),
    Message('note_off', channel=9, note=46, velocity=64, time=5),
    Message('note_off', channel=9, note=70, velocity=64, time=1),
    Message('note_off', channel=0, note=61, velocity=64, time=12),
    Message('note_on', channel=9, note=46, velocity=90, time=5),
    Message('note_on', channel=9, note=70, velocity=51, time=1),
    Message('note_on', channel=0, note=61, velocity=80, time=1),
    Message('note_off', channel=9, note=46, velocity=64, time=4),
    Message('note_off', channel=9, note=70, velocity=64, time=1),
    MetaMessage('lyrics', text='but ', time=4),
    Message('note_on', channel=3, note=73, velocity=84, time=0),
    Message('note_off', channel=7, note=61, velocity=64, time=8),
    Message('note_off', channel=1, note=30, velocity=64, time=5),
    Message('note_on', channel=9, note=70, velocity=51, time=1),
    Message('note_on', channel=7, note=61, velocity=44, time=1),
    Message('note_off', channel=9, note=70, velocity=64, time=5),
    Message('note_off', channel=3, note=73, velocity=64, time=4),
    Message('note_off', channel=0, note=68, velocity=64, time=8),
    MetaMessage('lyrics', text='yes ', time=5),
    Message('note_on', channel=3, note=82, velocity=94, time=0),
    Message('note_on', channel=9, note=36, velocity=101, time=0),
    Message('note_on', channel=9, note=46, velocity=78, time=0),
    Message('note_on', channel=9, note=70, velocity=80, time=1),
    Message('note_on', channel=1, note=30, velocity=114, time=1),
    Message('note_on', channel=0, note=72, velocity=84, time=0),
    Message('note_off', channel=9, note=46, velocity=64, time=4),
    Message('note_off', channel=9, note=36, velocity=64, time=0),
    Message('note_off', channel=9, note=70, velocity=64, time=1),
    Message('note_off', channel=7, note=68, velocity=64, time=12),
    Message('note_on', channel=9, note=46, velocity=71, time=5),
    Message('note_on', channel=9, note=70, velocity=43, time=1),
    Message('note_on', channel=7, note=72, velocity=48, time=1),
    Message('note_off', channel=9, note=46, velocity=64, time=4),
    Message('note_off', channel=9, note=70, velocity=64, time=1),
    Message('note_off', channel=0, note=72, velocity=64, time=13),
    Message('note_on', channel=9, note=46, velocity=65, time=4),
    Message('note_on', channel=9, note=70, velocity=43, time=1),
    Message('note_on', channel=9, note=36, velocity=101, time=1),
    Message('note_on', channel=0, note=68, velocity=83, time=1),
    Message('note_off', channel=3, note=82, velocity=64, time=1),
    Message('note_off', channel=9, note=46, velocity=64, time=2),
    Message('note_off', channel=9, note=70, velocity=64, time=1),
    Message('note_off', channel=9, note=36, velocity=64, time=1),
    Message('note_off', channel=1, note=30, velocity=64, time=3),
    MetaMessage('lyrics', text="I'm ", time=8),
    Message('note_on', channel=3, note=80, velocity=86, time=0),
    Message('note_off', channel=7, note=72, velocity=64, time=1),
    Message('note_on', channel=9, note=46, velocity=71, time=4),
    Message('note_on', channel=9, note=70, velocity=67, time=1),
    Message('note_on', channel=1, note=32, velocity=112, time=1),
    Message('note_on', channel=7, note=68, velocity=47, time=1),
    Message('note_off', channel=9, note=46, velocity=64, time=3),
    Message('note_off', channel=9, note=70, velocity=64, time=1),
    Message('note_off', channel=0, note=61, velocity=64, time=7),
    Message('note_off', channel=1, note=32, velocity=64, time=3),
    Message('note_on', channel=9, note=46, velocity=101, time=7),
    Message('note_on', channel=1, note=34, velocity=103, time=0),
    Message('note_on', channel=9, note=70, velocity=83, time=1),
    Message('note_on', channel=9, note=36, velocity=101, time=1),
    Message('note_on', channel=9, note=38, velocity=101, time=0),
    Message('note_on', channel=0, note=61, velocity=75, time=0),
    Message('note_off', channel=9, note=46, velocity=64, time=4),
    Message('note_off', channel=9, note=70, velocity=64, time=1),
    Message('note_off', channel=9, note=38, velocity=64, time=1),
    Message('note_off', channel=9, note=36, velocity=64, time=0),
    Message('note_off', channel=7, note=61, velocity=64, time=6),
    Message('note_off', channel=3, note=80, velocity=64, time=9),
    Message('note_on', channel=9, note=70, velocity=22, time=2),
    Message('note_on', channel=7, note=61, velocity=39, time=1),
    Message('note_off', channel=9, note=70, velocity=64, time=5),
    MetaMessage('lyrics', text='still ', time=7),
    Message('note_on', channel=3, note=80, velocity=75, time=0),
    Message('note_off', channel=0, note=61, velocity=64, time=0),
    Message('note_off', channel=1, note=34, velocity=64, time=1),
    Message('note_on', channel=9, note=46, velocity=78, time=9),
    Message('note_on', channel=1, note=37, velocity=118, time=0),
    Message('note_on', channel=0, note=61, velocity=83, time=1),
    Message('note_on', channel=9, note=70, velocity=58, time=0),
    Message('note_off', channel=9, note=46, velocity=64, time=5),
    Message('note_off', channel=9, note=70, velocity=64, time=1),
    Message('note_off', channel=7, note=61, velocity=64, time=7),
    Message('note_off', channel=3, note=80, velocity=64, time=4),
    Message('note_on', channel=3, note=77, velocity=80, time=3),
    Message('note_on', channel=9, note=46, velocity=71, time=3),
    Message('note_on', channel=7, note=61, velocity=47, time=1),
    Message('note_on', channel=9, note=70, velocity=75, time=0),
    Message('note_off', channel=9, note=46, velocity=64, time=5),
    Message('note_off', channel=9, note=70, velocity=64, time=1),
    Message('note_off', channel=1, note=37, velocity=64, time=6),
    Message('note_off', channel=6, note=54, velocity=64, time=4),
    Message('note_on', channel=9, note=46, velocity=87, time=7),
    Message('note_on', channel=1, note=37, velocity=127, time=0),
    Message('note_on', channel=9, note=70, velocity=51, time=1),
    Message('note_on', channel=9, note=36, velocity=101, time=1),
    Message('note_on', channel=0, note=49, velocity=97, time=0),
    Message('note_off', channel=9, note=46, velocity=64, time=4),
    Message('note_off', channel=9, note=70, velocity=64, time=1),
    Message('note_off', channel=9, note=36, velocity=64, time=1),
    MetaMessage('lyrics', text='run', time=6),
    Message('note_off', channel=3, note=77, velocity=64, time=0),
    Message('note_on', channel=3, note=80, velocity=81, time=0),
    Message('note_off', channel=0, note=68, velocity=64, time=10),
    Message('note_on', channel=9, note=70, velocity=21, time=1),
    Message('note_on', channel=7, note=49, velocity=61, time=1),
    Message('note_off', channel=9, note=70, velocity=64, time=5),
    Message('note_off', channel=0, note=61, velocity=64, time=8),
    Message('note_off', channel=1, note=37, velocity=64, time=7),
    Message('note_off', channel=7, note=68, velocity=64, time=2),
    Message('note_on', channel=9, note=46, velocity=61, time=1),
    Message('note_on', channel=9, note=70, velocity=42, time=0),
    Message('note_on', channel=0, note=61, velocity=82, time=2),
    Message('note_off', channel=9, note=46, velocity=64, time=4),
    Message('note_off', channel=9, note=70, velocity=64, time=0),
    Message('note_off', channel=7, note=61, velocity=64, time=8),
    Message('note_on', channel=9, note=46, velocity=73, time=9),
    Message('note_on', channel=9, note=70, velocity=43, time=1),
    Message('note_on', channel=7, note=61, velocity=46, time=2),
    Message('note_off', channel=9, note=46, velocity=64, time=3),
    Message('note_off', channel=9, note=70, velocity=64, time=1),
    Message('note_on', channel=9, note=46, velocity=87, time=17),
    Message('note_on', channel=1, note=37, velocity=121, time=0),
    Message('note_on', channel=9, note=70, velocity=71, time=1),
    Message('note_on', channel=9, note=36, velocity=101, time=1),
    Message('note_on', channel=0, note=68, velocity=79, time=0),
    Message('note_off', channel=9, note=46, velocity=64, time=4),
    Message('note_off', channel=9, note=70, velocity=64, time=1),
    Message('note_off', channel=9, note=36, velocity=64, time=1),
    Message('note_on', channel=9, note=70, velocity=36, time=17),
    Message('note_on', channel=7, note=68, velocity=42, time=1),
    Message('note_off', channel=9, note=70, velocity=64, time=5),
    Message('note_on', channel=9, note=46, velocity=71, time=17),
    Message('note_on', channel=9, note=70, velocity=43, time=1),
    MetaMessage('lyrics', text="nin'. ", time=1),
    MetaMessage('lyrics', text='\r', time=0),
    Message('note_off', channel=3, note=80, velocity=64, time=0),
    Message('note_on', channel=3, note=77, velocity=64, time=0),
    Message('note_off', channel=9, note=46, velocity=64, time=4),
    Message('note_off', channel=9, note=70, velocity=64, time=1),
    Message('note_off', channel=1, note=37, velocity=64, time=15),
    Message('note_on', channel=9, note=46, velocity=65, time=2),
    Message('note_on', channel=9, note=70, velocity=58, time=1),
    Message('note_off', channel=9, note=46, velocity=64, time=5),
    Message('note_off', channel=9, note=70, velocity=64, time=1),
    Message('note_off', channel=0, note=61, velocity=64, time=4),
    Message('note_on', channel=9, note=46, velocity=87, time=13),
    Message('note_on', channel=9, note=36, velocity=101, time=1),
    Message('note_on', channel=9, note=70, velocity=61, time=0),
    Message('note_on', channel=1, note=37, velocity=118, time=1),
    Message('note_on', channel=0, note=61, velocity=75, time=1),
    Message('note_off', channel=9, note=46, velocity=64, time=3),
    Message('note_off', channel=9, note=36, velocity=64, time=1),
    Message('note_off', channel=9, note=70, velocity=64, time=0),
    Message('note_off', channel=7, note=61, velocity=64, time=4),
    Message('note_on', channel=9, note=70, velocity=34, time=14),
    Message('note_on', channel=7, note=61, velocity=39, time=2),
    Message('note_off', channel=9, note=70, velocity=64, time=4),
    Message('note_off', channel=0, note=68, velocity=64, time=9),
    Message('note_on', channel=9, note=46, velocity=56, time=8),
    Message('note_on', channel=9, note=70, velocity=47, time=1),
    Message('note_on', channel=0, note=68, velocity=81, time=1),
    Message('note_off', channel=9, note=46, velocity=64, time=4),
    Message('note_off', channel=1, note=37, velocity=64, time=0),
    Message('note_off', channel=9, note=70, velocity=64, time=1),
    Message('note_off', channel=7, note=68, velocity=64, time=9),
    Message('note_on', channel=9, note=46, velocity=65, time=8),
    Message('note_on', channel=9, note=70, velocity=65, time=1),
    Message('note_on', channel=1, note=32, velocity=104, time=1),
    Message('note_on', channel=7, note=68, velocity=45, time=0),
    Message('note_off', channel=9, note=46, velocity=64, time=4),
    Message('note_off', channel=9, note=70, velocity=64, time=1),
    Message('note_off', channel=1, note=32, velocity=64, time=7),
    Message('note_off', channel=3, note=77, velocity=64, time=2),
    Message('note_on', channel=9, note=36, velocity=101, time=8),
    Message('note_on', channel=1, note=34, velocity=110, time=1),
    Message('note_on', channel=9, note=70, velocity=67, time=0),
    MetaMessage('lyrics', text='\n', time=1),
    Message('note_off', channel=9, note=36, velocity=64, time=4),
    Message('note_off', channel=9, note=70, velocity=64, time=1),
    Message('note_on', channel=9, note=46, velocity=55, time=17),
    Message('note_on', channel=9, note=70, velocity=36, time=1),
    Message('note_off', channel=0, note=49, velocity=64, time=3),
    Message('note_off', channel=9, note=46, velocity=64, time=2),
    Message('note_off', channel=9, note=70, velocity=64, time=1),
    Message('note_off', channel=1, note=34, velocity=64, time=15),
    Message('note_on', channel=9, note=46, velocity=93, time=2),
    Message('note_on', channel=9, note=70, velocity=43, time=1),
    Message('note_on', channel=1, note=37, velocity=115, time=1),
    Message('note_on', channel=0, note=49, velocity=72, time=0),
    Message('note_off', channel=7, note=49, velocity=64, time=2),
    Message('note_off', channel=9, note=46, velocity=64, time=2),
    Message('note_off', channel=9, note=70, velocity=64, time=1),
    Message('note_on', channel=9, note=70, velocity=71, time=18),
    Message('note_on', channel=7, note=49, velocity=36, time=1),
    Message('note_off', channel=9, note=70, velocity=64, time=5),
    Message('note_off', channel=1, note=37, velocity=64, time=10),
    Message('note_off', channel=0, note=49, velocity=64, time=3),
    Message('note_on', channel=9, note=36, velocity=101, time=4),
    Message('note_on', channel=9, note=46, velocity=90, time=0),
    Message('note_on', channel=0, note=49, velocity=92, time=0),
    Message('note_on', channel=9, note=70, velocity=77, time=1),
    Message('note_on', channel=1, note=37, velocity=114, time=1),
    Message('note_off', channel=9, note=46, velocity=64, time=4),
    Message('note_off', channel=9, note=36, velocity=64, time=0),
    Message('note_off', channel=9, note=70, velocity=64, time=1),
    Message('note_off', channel=7, note=49, velocity=64, time=13),
    Message('note_on', channel=7, note=49, velocity=56, time=4),
    Message('note_on', channel=9, note=70, velocity=32, time=1),
    Message('note_off', channel=9, note=70, velocity=64, time=6),
    Message('note_off', channel=0, note=61, velocity=64, time=7),
    Message('note_off', channel=0, note=68, velocity=64, time=1),
    Message('note_on', channel=9, note=46, velocity=75, time=9),
    Message('note_on', channel=9, note=70, velocity=44, time=1),
    Message('note_off', channel=1, note=37, velocity=64, time=1),
    Message('note_on', channel=0, note=61, velocity=83, time=0),
    Message('note_off', channel=9, note=46, velocity=64, time=4),
    Message('note_off', channel=9, note=70, velocity=64, time=1),
    Message('note_off', channel=7, note=61, velocity=64, time=7),
    Message('note_off', channel=7, note=68, velocity=64, time=1),
    Message('note_on', channel=9, note=46, velocity=71, time=9),
    Message('note_on', channel=9, note=70, velocity=58, time=1),
    Message('note_on', channel=7, note=61, velocity=47, time=1),
    Message('note_off', channel=9, note=46, velocity=64, time=4),
    Message('note_off', channel=9, note=70, velocity=64, time=1),
    Message('note_off', channel=0, note=54, velocity=64, time=10),
    Message('note_on', channel=9, note=46, velocity=78, time=7),
    Message('note_on', channel=9, note=70, velocity=80, time=1),
    Message('note_on', channel=9, note=36, velocity=101, time=1),
    Message('note_on', channel=1, note=37, velocity=119, time=0),
    Message('note_on', channel=0, note=68, velocity=82, time=0),
    Message('note_off', channel=9, note=46, velocity=64, time=4),
    Message('note_off', channel=9, note=70, velocity=64, time=1),
    Message('note_off', channel=9, note=36, velocity=64, time=1),
    Message('note_off', channel=7, note=54, velocity=64, time=9),
    Message('note_on', channel=9, note=70, velocity=38, time=8),
    Message('note_on', channel=7, note=68, velocity=46, time=1),
    Message('note_off', channel=9, note=70, velocity=64, time=5),
    Message('note_off', channel=0, note=61, velocity=64, time=6),
    Message('note_on', channel=9, note=46, velocity=67, time=12),
    Message('note_on', channel=9, note=70, velocity=51, time=0),
    Message('note_on', channel=0, note=61, velocity=80, time=2),
    Message('note_off', channel=9, note=46, velocity=64, time=4),
    Message('note_off', channel=9, note=70, velocity=64, time=0),
    Message('note_off', channel=1, note=37, velocity=64, time=6),
    Message('note_off', channel=7, note=61, velocity=64, time=0),
    Message('note_on', channel=9, note=38, velocity=73, time=12),
    Message('note_on', channel=9, note=46, velocity=67, time=0),
    Message('note_on', channel=9, note=70, velocity=51, time=0),
    Message('note_on', channel=7, note=61, velocity=44, time=2),
    Message('note_off', channel=9, note=46, velocity=64, time=4),
    Message('note_off', channel=9, note=38, velocity=64, time=0),
    Message('note_off', channel=9, note=70, velocity=64, time=0),
    Message('note_off', channel=0, note=68, velocity=64, time=6),
    MetaMessage('lyrics', text='You ', time=11),
    Message('note_on', channel=3, note=77, velocity=78, time=0),
    Message('note_on', channel=9, note=36, velocity=101, time=1),
    Message('note_on', channel=9, note=70, velocity=80, time=0),
    Message('note_on', channel=9, note=46, velocity=87, time=1),
    Message('note_on', channel=1, note=37, velocity=112, time=0),
    Message('note_on', channel=0, note=72, velocity=80, time=1),
    Message('note_off', channel=9, note=36, velocity=64, time=4),
    Message('note_off', channel=9, note=70, velocity=64, time=0),
    Message('note_off', channel=9, note=46, velocity=64, time=1),
    Message('note_off', channel=7, note=68, velocity=64, time=5),
    Message('note_on', channel=9, note=70, velocity=43, time=12),
    Message('note_on', channel=7, note=72, velocity=44, time=2),
    Message('note_off', channel=9, note=70, velocity=64, time=4),
    Message('note_off', channel=3, note=77, velocity=64, time=7),
    Message('note_off', channel=0, note=72, velocity=64, time=6),
    MetaMessage('lyrics', text='broke ', time=2),
    Message('note_on', channel=3, note=80, velocity=85, time=0),
    Message('note_on', channel=9, note=36, velocity=96, time=2),
    Message('note_on', channel=9, note=46, velocity=59, time=1),
    Message('note_on', channel=9, note=70, velocity=43, time=0),
    Message('note_on', channel=0, note=68, velocity=83, time=1),
    Message('note_off', channel=9, note=36, velocity=64, time=4),
    Message('note_off', channel=9, note=46, velocity=64, time=1),
    Message('note_off', channel=9, note=70, velocity=64, time=0),
    Message('note_off', channel=1, note=37, velocity=64, time=4),
    Message('note_off', channel=7, note=72, velocity=64, time=9),
    Message('note_on', channel=9, note=46, velocity=69, time=5),
    Message('note_on', channel=9, note=70, velocity=67, time=0),
    Message('note_on', channel=1, note=32, velocity=109, time=1),
    Message('note_on', channel=7, note=68, velocity=47, time=0),
    Message('note_off', channel=9, note=46, velocity=64, time=5),
    Message('note_off', channel=9, note=70, velocity=64, time=0),
    Message('note_off', channel=3, note=80, velocity=64, time=3),
    Message('note_off', channel=1, note=32, velocity=64, time=3),
    Message('note_off', channel=0, note=61, velocity=64, time=2),
    MetaMessage('lyrics', text='the ', time=6),
    Message('note_on', channel=3, note=77, velocity=73, time=0),
    Message('note_on', channel=1, note=34, velocity=106, time=3),
    Message('note_on', channel=0, note=61, velocity=80, time=1),
    Message('note_on', channel=9, note=70, velocity=83, time=0),
    Message('note_on', channel=9, note=36, velocity=101, time=1),
    Message('note_on', channel=9, note=38, velocity=101, time=0),
    Message('note_on', channel=9, note=46, velocity=93, time=0),
    Message('note_off', channel=9, note=70, velocity=64, time=5),
    Message('note_off', channel=9, note=46, velocity=64, time=1),
    Message('note_off', channel=9, note=38, velocity=64, time=0),
    Message('note_off', channel=9, note=36, velocity=64, time=0),
    Message('note_off', channel=7, note=61, velocity=64, time=7),
    Message('note_on', channel=7, note=61, velocity=44, time=10),
    Message('note_on', channel=9, note=70, velocity=22, time=0),
    Message('note_off', channel=9, note=70, velocity=64, time=6),
    Message('note_off', channel=0, note=61, velocity=64, time=7),
    Message('note_off', channel=3, note=77, velocity=64, time=1),
    MetaMessage('lyrics', text='bonds ', time=5),
    Message('note_on', channel=3, note=80, velocity=78, time=0),
    Message('note_off', channel=1, note=34, velocity=64, time=3),
    Message('note_on', channel=1, note=37, velocity=111, time=1),
    Message('note_on', channel=0, note=61, velocity=83, time=1),
    Message('note_on', channel=9, note=70, velocity=58, time=0),
    Message('note_off', channel=9, note=70, velocity=64, time=6),
    Message('note_off', channel=7, note=61, velocity=64, time=7),
    Message('note_off', channel=6, note=56, velocity=64, time=7),
    Message('note_off', channel=6, note=61, velocity=64, time=1),
    Message('note_on', channel=7, note=61, velocity=47, time=3),
    Message('note_on', channel=9, note=70, velocity=75, time=0),
    Message('note_on', channel=9, note=46, velocity=69, time=1),
    Message('note_off', channel=9, note=70, velocity=64, time=5),
    Message('note_off', channel=9, note=46, velocity=64, time=1),
    Message('note_off', channel=1, note=37, velocity=64, time=5),
    Message('note_off', channel=0, note=49, velocity=64, time=7),
    Message('note_off', channel=0, note=61, velocity=64, time=1),
    Message('note_off', channel=3, note=80, velocity=64, time=1),
    Message('note_off', channel=0, note=68, velocity=64, time=0),
    Message('pitchwheel', channel=0, pitch=127, time=1),
    Message('note_on', channel=6, note=56, velocity=51, time=1),
    Message('note_on', channel=1, note=37, velocity=119, time=1),
    Message('note_on', channel=6, note=61, velocity=51, time=0),
    Message('note_on', channel=0, note=49, velocity=92, time=0),
    Message('note_on', channel=9, note=70, velocity=51, time=0),
    Message('note_on', channel=9, note=36, velocity=96, time=1),
    Message('note_on', channel=9, note=46, velocity=93, time=0),
    Message('note_on', channel=3, note=75, velocity=57, time=2),
    Message('note_off', channel=9, note=70, velocity=64, time=3),
    Message('note_off', channel=9, note=46, velocity=64, time=1),
    Message('note_off', channel=9, note=36, velocity=64, time=0),
    Message('note_off', channel=7, note=49, velocity=64, time=12),
    Message('note_off', channel=7, note=61, velocity=64, time=1),
    Message('note_off', channel=7, note=68, velocity=64, time=1),
    Message('pitchwheel', channel=7, pitch=127, time=1),
    Message('note_off', channel=3, note=75, velocity=64, time=2),
    Message('note_on', channel=7, note=49, velocity=56, time=0),
    Message('note_on', channel=9, note=70, velocity=21, time=0),
    Message('note_on', channel=3, note=77, velocity=78, time=2),
    Message('note_off', channel=9, note=70, velocity=64, time=4),
    Message('note_on', channel=9, note=46, velocity=49, time=18),
    Message('note_on', channel=9, note=70, velocity=42, time=0),
    Message('note_off', channel=1, note=37, velocity=64, time=2),
    Message('note_on', channel=0, note=61, velocity=72, time=1),
    Message('note_off', channel=9, note=46, velocity=64, time=3),
    Message('note_off', channel=9, note=70, velocity=64, time=0),
    Message('note_on', channel=9, note=70, velocity=43, time=18),
    Message('note_on', channel=9, note=46, velocity=59, time=1),
    Message('note_on', channel=7, note=61, velocity=36, time=2),
    Message('note_off', channel=9, note=70, velocity=64, time=3),
    Message('note_off', channel=9, note=46, velocity=64, time=1),
    Message('note_off', channel=3, note=77, velocity=64, time=4),
    MetaMessage('lyrics', text='and ', time=11),
    Message('note_on', channel=3, note=75, velocity=67, time=0),
    Message('note_on', channel=9, note=36, velocity=86, time=1),
    Message('note_on', channel=1, note=37, velocity=127, time=1),
    Message('note_on', channel=9, note=70, velocity=71, time=0),
    Message('note_on', channel=9, note=46, velocity=87, time=1),
    Message('note_on', channel=0, note=68, velocity=75, time=2),
    Message('note_off', channel=9, note=36, velocity=64, time=2),
    Message('note_off', channel=9, note=70, velocity=64, time=1),
    Message('note_off', channel=9, note=46, velocity=64, time=1),
    Message('note_on', channel=9, note=70, velocity=36, time=17),
    Message('note_on', channel=7, note=68, velocity=39, time=3),
    Message('note_off', channel=9, note=70, velocity=64, time=3),
    Message('note_on', channel=9, note=70, velocity=43, time=18),
    Message('note_on', channel=9, note=46, velocity=55, time=1),
    Message('note_off', channel=1, note=37, velocity=64, time=0),
    MetaMessage('lyrics', text='you ', time=3),
    Message('note_on', channel=3, note=73, velocity=68, time=0),
    Message('note_off', channel=9, note=70, velocity=64, time=2),
    Message('note_off', channel=3, note=75, velocity=64, time=1),
    Message('note_off', channel=9, note=46, velocity=64, time=0),
    Message('note_on', channel=9, note=70, velocity=58, time=17),
    Message('note_on', channel=9, note=46, velocity=67, time=1),
    Message('note_off', channel=9, note=70, velocity=64, time=5),
    Message('note_off', channel=9, note=46, velocity=64, time=1),
    Message('note_off', channel=0, note=61, velocity=64, time=7),
    Message('note_off', channel=3, note=73, velocity=64, time=4),
    Message('note_on', channel=9, note=36, velocity=101, time=6),
    Message('note_on', channel=9, note=46, velocity=93, time=0),
    Message('note_on', channel=1, note=37, velocity=122, time=0),
    Message('note_on', channel=9, note=70, velocity=61, time=0),
    Message('note_on', channel=0, note=61, velocity=75, time=3),
    Message('note_off', channel=9, note=46, velocity=64, time=3),
    Message('note_off', channel=9, note=36, velocity=64, time=0),
    Message('note_off', channel=9, note=70, velocity=64, time=0),
    Message('note_off', channel=7, note=61, velocity=64, time=8),
    Message('note_on', channel=9, note=70, velocity=34, time=10),
    Message('note_on', channel=7, note=61, velocity=39, time=3),
    Message('note_off', channel=9, note=70, velocity=64, time=3),
    Message('note_off', channel=0, note=68, velocity=64, time=7),
    Message('note_on', channel=9, note=46, velocity=75, time=10),
    Message('note_on', channel=9, note=70, velocity=47, time=1),
    Message('note_on', channel=0, note=68, velocity=79, time=2),
    MetaMessage('lyrics', text='loosed ', time=1),
    Message('note_on', channel=3, note=82, velocity=97, time=0),
    Message('note_off', channel=9, note=46, velocity=64, time=2),
    Message('note_off', channel=9, note=70, velocity=64, time=1),
    Message('note_off', channel=1, note=37, velocity=64, time=3),
    Message('note_off', channel=7, note=68, velocity=64, time=4),
    Message('note_on', channel=9, note=70, velocity=65, time=11),
    Message('note_on', channel=9, note=46, velocity=69, time=1),
    Message('note_on', channel=1, note=32, velocity=112, time=0),
    Message('note_on', channel=7, note=68, velocity=42, time=1),
    Message('note_off', channel=9, note=70, velocity=64, time=4),
    Message('note_off', channel=9, note=46, velocity=64, time=1),
    Message('note_off', channel=1, note=32, velocity=64, time=7),
    Message('note_on', channel=9, note=36, velocity=99, time=9),
    Message('note_on', channel=9, note=70, velocity=67, time=1),
    Message('note_on', channel=9, note=46, velocity=87, time=1),
    Message('note_on', channel=1, note=34, velocity=110, time=0),
    Message('note_off', channel=9, note=36, velocity=64, time=4),
    Message('note_off', channel=9, note=70, velocity=64, time=1),
    Message('note_off', channel=9, note=46, velocity=64, time=1),
    Message('note_off', channel=3, note=82, velocity=64, time=5),
    MetaMessage('lyrics', text='the ', time=11),
    Message('note_on', channel=3, note=80, velocity=72, time=0),
    Message('note_on', channel=9, note=70, velocity=36, time=1),
    Message('note_off', channel=9, note=70, velocity=64, time=6),
    Message('note_off', channel=0, note=49, velocity=64, time=9),
    Message('note_off', channel=1, note=34, velocity=64, time=6),
    Message('note_on', channel=9, note=46, velocity=78, time=3),
    Message('note_on', channel=9, note=70, velocity=43, time=0),
    Message('note_on', channel=1, note=37, velocity=115, time=1),
    Message('note_on', channel=0, note=49, velocity=63, time=1),
    Message('note_off', channel=9, note=46, velocity=64, time=4),
    Message('note_off', channel=9, note=70, velocity=64, time=0),
    Message('note_off', channel=7, note=49, velocity=64, time=9),
    Message('note_on', channel=9, note=46, velocity=78, time=9),
    Message('note_on', channel=9, note=70, velocity=71, time=0),
    Message('note_on', channel=7, note=49, velocity=26, time=2),
    Message('note_off', channel=9, note=46, velocity=64, time=4),
    Message('note_off', channel=9, note=70, velocity=64, time=0),
    Message('note_off', channel=1, note=37, velocity=64, time=9),
    MetaMessage('lyrics', text='chains, ', time=2),
    MetaMessage('lyrics', text='\r', time=0),
    Message('note_on', channel=3, note=77, velocity=79, time=0),
    Message('note_off', channel=3, note=80, velocity=64, time=1),
    Message('note_off', channel=0, note=49, velocity=64, time=1),
    Message('note_on', channel=0, note=49, velocity=84, time=4),
    Message('note_on', channel=9, note=36, velocity=101, time=1),
    Message('note_on', channel=9, note=70, velocity=77, time=0),
    Message('note_on', channel=9, note=46, velocity=93, time=1),
    Message('note_on', channel=1, note=37, velocity=116, time=0),
    Message('note_off', channel=9, note=36, velocity=64, time=5),
    Message('note_off', channel=9, note=70, velocity=64, time=0),
    Message('note_off', channel=9, note=46, velocity=64, time=1),
    Message('note_off', channel=7, note=49, velocity=64, time=12),
    Message('note_on', channel=7, note=49, velocity=48, time=4),
    Message('note_on', channel=9, note=70, velocity=32, time=1),
    Message('note_off', channel=9, note=70, velocity=64, time=6),
    Message('pitchwheel', channel=3, pitch=-118, time=3),
    Message('note_off', channel=0, note=61, velocity=64, time=0),
    Message('pitchwheel', channel=3, pitch=-469, time=2),
    Message('pitchwheel', channel=3, pitch=-703, time=3),
    Message('pitchwheel', channel=3, pitch=-937, time=4),
    Message('pitchwheel', channel=3, pitch=-1288, time=1),
    Message('pitchwheel', channel=3, pitch=-1639, time=2),
    Message('note_off', channel=1, note=37, velocity=64, time=0),
    Message('pitchwheel', channel=3, pitch=-1873, time=3),
    Message('note_on', channel=9, note=70, velocity=44, time=0),
    Message('note_on', channel=9, note=46, velocity=59, time=1),
    Message('note_on', channel=0, note=61, velocity=84, time=0),
    Message('pitchwheel', channel=3, pitch=-2107, time=2),
    Message('note_off', channel=3, note=77, velocity=64, time=2),
    Message('note_off', channel=9, note=70, velocity=64, time=1),
    Message('pitchwheel', channel=3, pitch=-2341, time=1),
    Message('note_off', channel=9, note=46, velocity=64, time=0),
    Message('note_off', channel=0, note=68, velocity=64, time=2),
    Message('note_off', channel=7, note=61, velocity=64, time=0),
    Message('pitchwheel', channel=3, pitch=-2575, time=1),
    Message('note_on', channel=9, note=70, velocity=58, time=14),
    Message('note_on', channel=9, note=46, velocity=75, time=1),
    Message('note_on', channel=7, note=61, velocity=48, time=0),
    Message('pitchwheel', channel=3, pitch=-2224, time=4),
    Message('note_off', channel=9, note=70, velocity=64, time=1),
    Message('pitchwheel', channel=3, pitch=-1054, time=1),
    Message('note_off', channel=9, note=46, velocity=64, time=0),
    Message('note_off', channel=7, note=68, velocity=64, time=2),
    Message('pitchwheel', channel=3, pitch=0, time=1),
    Message('note_on', channel=3, note=75, velocity=70, time=5),
    Message('note_on', channel=0, note=68, velocity=83, time=8),
    Message('note_on', channel=9, note=36, velocity=101, time=1),
    Message('note_on', channel=9, note=70, velocity=80, time=0),
    Message('note_on', channel=9, note=46, velocity=93, time=1),
    Message('note_on', channel=1, note=37, velocity=117, time=0),
    Message('note_off', channel=9, note=36, velocity=64, time=5),
    Message('note_off', channel=9, note=70, velocity=64, time=0),
    Message('note_off', channel=9, note=46, velocity=64, time=1),
    Message('note_on', channel=7, note=68, velocity=47, time=16),
    Message('note_on', channel=9, note=70, velocity=38, time=1),
    Message('note_off', channel=9, note=70, velocity=64, time=6),
    Message('note_off', channel=0, note=61, velocity=64, time=7),
    Message('note_off', channel=3, note=75, velocity=64, time=5),
    Message('note_on', channel=3, note=73, velocity=67, time=3),
    Message('note_off', channel=1, note=37, velocity=64, time=1),
    Message('note_on', channel=0, note=61, velocity=81, time=2),
    Message('note_on', channel=9, note=70, velocity=51, time=0),
    Message('note_on', channel=9, note=46, velocity=53, time=1),
    Message('note_off', channel=9, note=70, velocity=64, time=5),
    Message('note_off', channel=9, note=46, velocity=64, time=1),
    Message('note_off', channel=7, note=61, velocity=64, time=6),
    Message('note_on', channel=7, note=61, velocity=45, time=11),
    Message('note_on', channel=9, note=70, velocity=51, time=0),
    Message('note_on', channel=9, note=46, velocity=75, time=1),
    Message('note_off', channel=9, note=70, velocity=64, time=5),
    Message('note_off', channel=9, note=46, velocity=64, time=1),
    Message('note_off', channel=3, note=73, velocity=64, time=2),
    Message('note_off', channel=0, note=68, velocity=64, time=9),
    Message('note_on', channel=9, note=36, velocity=91, time=5),
    Message('note_on', channel=9, note=70, velocity=80, time=1),
    Message('note_on', channel=9, note=46, velocity=93, time=1),
    Message('note_on', channel=1, note=37, velocity=112, time=0),
    Message('note_on', channel=0, note=72, velocity=87, time=1),
    Message('note_off', channel=9, note=36, velocity=64, time=3),
    Message('note_off', channel=9, note=70, velocity=64, time=1),
    Message('note_off', channel=9, note=46, velocity=64, time=1),
    Message('note_off', channel=7, note=68, velocity=64, time=11),
    Message('note_on', channel=9, note=70, velocity=43, time=6),
    Message('note_on', channel=7, note=72, velocity=50, time=2),
    Message('note_off', channel=9, note=70, velocity=64, time=4),
    Message('note_off', channel=0, note=72, velocity=64, time=11),
    MetaMessage('lyrics', text='car', time=1),
    Message('note_on', channel=3, note=77, velocity=73, time=0),
    Message('note_on', channel=9, note=36, velocity=72, time=6),
    Message('note_on', channel=9, note=70, velocity=43, time=0),
    Message('note_on', channel=9, note=46, velocity=75, time=1),
    Message('note_on', channel=0, note=68, velocity=81, time=0),
    Message('note_off', channel=9, note=36, velocity=64, time=5),
    Message('note_off', channel=9, note=70, velocity=64, time=0),
    Message('note_off', channel=9, note=46, velocity=64, time=1),
    Message('note_off', channel=1, note=37, velocity=64, time=4),
    Message('note_off', channel=7, note=72, velocity=64, time=6),
    Message('note_off', channel=3, note=77, velocity=64, time=7),
    Message('note_on', channel=9, note=70, velocity=67, time=0),
    Message('note_on', channel=9, note=46, velocity=78, time=1),
    Message('note_on', channel=1, note=32, velocity=106, time=0),
    Message('note_on', channel=7, note=68, velocity=45, time=0),
    Message('note_off', channel=9, note=70, velocity=64, time=5),
    Message('note_off', channel=9, note=46, velocity=64, time=1),
    Message('note_off', channel=1, note=32, velocity=64, time=7),
    MetaMessage('lyrics', text='ried ', time=2),
    Message('note_on', channel=3, note=80, velocity=73, time=0),
    Message('note_off', channel=0, note=61, velocity=64, time=1),
    Message('note_on', channel=1, note=34, velocity=110, time=6),
    Message('note_on', channel=9, note=70, velocity=83, time=1),
    Message('note_on', channel=9, note=36, velocity=101, time=1),
    Message('note_on', channel=9, note=38, velocity=101, time=0),
    Message('note_on', channel=9, note=46, velocity=93, time=0),
    Message('note_on', channel=0, note=61, velocity=77, time=0),
    Message('note_off', channel=9, note=70, velocity=64, time=5),
    Message('note_off', channel=9, note=46, velocity=64, time=1),
    Message('note_off', channel=9, note=38, velocity=64, time=0),
    Message('note_off', channel=9, note=36, velocity=64, time=0),
    Message('note_off', channel=7, note=61, velocity=64, time=10),
    Message('note_on', channel=9, note=70, velocity=22, time=7),
    Message('note_on', channel=7, note=61, velocity=41, time=1),
    Message('note_off', channel=9, note=70, velocity=64, time=5),
    Message('note_off', channel=3, note=80, velocity=64, time=8),
    MetaMessage('lyrics', text='the ', time=1),
    Message('note_on', channel=3, note=77, velocity=72, time=0),
    Message('note_off', channel=0, note=61, velocity=64, time=3),
    Message('note_off', channel=1, note=34, velocity=64, time=3),
    Message('note_on', channel=9, note=46, velocity=69, time=2),
    Message('note_on', channel=1, note=37, velocity=111, time=0),
    Message('note_on', channel=9, note=70, velocity=58, time=1),
    Message('note_on', channel=0, note=61, velocity=80, time=2),
    Message('note_off', channel=9, note=46, velocity=64, time=3),
    Message('note_off', channel=9, note=70, velocity=64, time=1),
    MetaMessage('lyrics', text='cross ', time=11),
    Message('note_on', channel=3, note=80, velocity=74, time=0),
    Message('note_off', channel=7, note=61, velocity=64, time=1),
    Message('note_off', channel=3, note=77, velocity=64, time=6),
    Message('note_on', channel=9, note=70, velocity=75, time=0),
    Message('note_on', channel=9, note=46, velocity=71, time=1),
    Message('note_on', channel=7, note=61, velocity=44, time=1),
    Message('note_off', channel=9, note=70, velocity=64, time=4),
    Message('note_off', channel=9, note=46, velocity=64, time=1),
    Message('note_off', channel=1, note=37, velocity=64, time=4),
    Message('note_on', channel=9, note=70, velocity=51, time=13),
    Message('note_on', channel=9, note=36, velocity=101, time=1),
    Message('note_on', channel=9, note=46, velocity=97, time=0),
    Message('note_on', channel=1, note=37, velocity=122, time=0),
    Message('note_off', channel=0, note=49, velocity=64, time=0),
    Message('note_on', channel=0, note=49, velocity=89, time=1),
    Message('note_off', channel=9, note=70, velocity=64, time=4),
    Message('note_off', channel=9, note=46, velocity=64, time=1),
    Message('note_off', channel=9, note=36, velocity=64, time=0),
    Message('note_on', channel=9, note=70, velocity=21, time=17),
    Message('note_off', channel=7, note=49, velocity=64, time=1),
    Message('note_on', channel=7, note=49, velocity=53, time=1),
    Message('note_on', channel=3, note=75, velocity=68, time=2),
    Message('note_off', channel=9, note=70, velocity=64, time=2),
    Message('note_off', channel=0, note=61, velocity=64, time=6),
    Message('note_off', channel=3, note=80, velocity=64, time=3),
    Message('note_off', channel=1, note=37, velocity=64, time=3),
    Message('note_on', channel=3, note=77, velocity=76, time=6),
    Message('note_on', channel=9, note=46, velocity=75, time=0),
    Message('note_on', channel=9, note=70, velocity=42, time=0),
    Message('note_on', channel=0, note=61, velocity=80, time=2),
    Message('note_off', channel=3, note=75, velocity=64, time=2),
    Message('note_off', channel=9, note=46, velocity=64, time=2),
    Message('note_off', channel=9, note=70, velocity=64, time=0),
    Message('note_off', channel=7, note=61, velocity=64, time=6),
    Message('note_off', channel=0, note=68, velocity=64, time=5),
    Message('note_on', channel=9, note=70, velocity=43, time=7),
    Message('note_on', channel=9, note=46, velocity=87, time=1),
    Message('note_on', channel=7, note=61, velocity=44, time=1),
    Message('note_off', channel=9, note=70, velocity=64, time=4),
    Message('note_off', channel=9, note=46, velocity=64, time=1),
    Message('note_off', channel=7, note=68, velocity=64, time=10),
    Message('note_on', channel=9, note=36, velocity=101, time=6),
    Message('note_on', channel=9, note=46, velocity=93, time=1),
    Message('note_on', channel=1, note=37, velocity=117, time=0),
    Message('note_on', channel=0, note=68, velocity=87, time=0),
    Message('note_on', channel=9, note=70, velocity=71, time=0),
    Message('note_off', channel=9, note=36, velocity=64, time=5),
    Message('note_off', channel=9, note=46, velocity=64, time=1),
    Message('note_off', channel=9, note=70, velocity=64, time=0),
    Message('note_off', channel=3, note=77, velocity=64, time=6),
    Message('note_on', channel=7, note=68, velocity=50, time=12),
    Message('note_on', channel=9, note=70, velocity=36, time=0),
    Message('note_off', channel=9, note=70, velocity=64, time=6),
    Message('note_on', channel=9, note=46, velocity=53, time=17),
    Message('note_on', channel=9, note=70, velocity=43, time=1),
    Message('note_off', channel=1, note=37, velocity=64, time=3),
    Message('note_off', channel=9, note=46, velocity=64, time=2),
    Message('note_off', channel=9, note=70, velocity=64, time=1),
    Message('note_on', channel=9, note=46, velocity=67, time=17),
    Message('note_on', channel=9, note=70, velocity=58, time=1),
    Message('note_off', channel=9, note=46, velocity=64, time=5),
    Message('note_off', channel=9, note=70, velocity=64, time=1),
    Message('note_off', channel=0, note=61, velocity=64, time=3),
    Message('note_on', channel=9, note=36, velocity=101, time=14),
    Message('note_on', channel=9, note=46, velocity=90, time=0),
    Message('note_on', channel=9, note=70, velocity=61, time=1),
    Message('note_on', channel=1, note=37, velocity=122, time=1),
    Message('note_on', channel=0, note=61, velocity=83, time=1),
    Message('note_off', channel=9, note=46, velocity=64, time=3),
    Message('note_off', channel=9, note=36, velocity=64, time=0),
    Message('note_off', channel=9, note=70, velocity=64, time=1),
    Message('note_off', channel=7, note=61, velocity=64, time=3),
    Message('note_on', channel=9, note=70, velocity=34, time=15),
    Message('note_on', channel=7, note=61, velocity=47, time=2),
    Message('note_off', channel=9, note=70, velocity=64, time=4),
    Message('note_off', channel=0, note=68, velocity=64, time=1),
    Message('note_on', channel=9, note=46, velocity=55, time=16),
    MetaMessage('lyrics', text='of ', time=1),
    Message('note_on', channel=3, note=82, velocity=93, time=0),
    Message('note_on', channel=9, note=70, velocity=47, time=0),
    Message('note_on', channel=0, note=68, velocity=85, time=1),
    Message('note_off', channel=9, note=46, velocity=64, time=4),
    Message('note_off', channel=9, note=70, velocity=64, time=1),
    Message('note_off', channel=7, note=68, velocity=64, time=1),
    Message('note_off', channel=1, note=37, velocity=64, time=3),
    Message('note_on', channel=9, note=46, velocity=59, time=13),
    Message('note_on', channel=9, note=70, velocity=65, time=1),
    Message('note_on', channel=1, note=32, velocity=106, time=1),
    Message('note_on', channel=7, note=68, velocity=49, time=0),
    Message('note_off', channel=9, note=46, velocity=64, time=4),
    Message('note_off', channel=9, note=70, velocity=64, time=1),
    Message('note_off', channel=1, note=32, velocity=64, time=8),
    Message('note_on', channel=9, note=36, velocity=101, time=9),
    Message('note_on', channel=9, note=46, velocity=87, time=0),
    Message('note_on', channel=1, note=34, velocity=103, time=0),
    Message('note_on', channel=9, note=70, velocity=67, time=1),
    Message('note_off', channel=9, note=46, velocity=64, time=5),
    Message('note_off', channel=9, note=36, velocity=64, time=0),
    Message('note_off', channel=9, note=70, velocity=64, time=1),
    Message('note_on', channel=9, note=46, velocity=61, time=17),
    Message('note_off', channel=0, note=49, velocity=64, time=0),
    Message('note_on', channel=9, note=70, velocity=36, time=1),
    Message('note_off', channel=9, note=46, velocity=64, time=5),
    Message('note_off', channel=9, note=70, velocity=64, time=1),
    Message('note_off', channel=3, note=82, velocity=64, time=6),
    Message('note_off', channel=1, note=34, velocity=64, time=4),
    MetaMessage('lyrics', text='my ', time=7),
    Message('note_on', channel=3, note=80, velocity=75, time=0),
    Message('note_on', channel=9, note=46, velocity=73, time=0),
    Message('note_on', channel=1, note=37, velocity=114, time=0),
    Message('note_off', channel=7, note=49, velocity=64, time=0),
    Message('note_on', channel=9, note=70, velocity=43, time=1),
    Message('note_on', channel=0, note=49, velocity=83, time=1),
    Message('note_off', channel=9, note=46, velocity=64, time=4),
    Message('note_off', channel=9, note=70, velocity=64, time=1),
    Message('note_on', channel=9, note=46, velocity=71, time=17),
    Message('note_on', channel=9, note=70, velocity=71, time=1),
    Message('note_on', channel=7, note=49, velocity=47, time=1),
    Message('note_off', channel=9, note=46, velocity=64, time=4),
    Message('note_off', channel=9, note=70, velocity=64, time=1),
    Message('note_off', channel=1, note=37, velocity=64, time=6),
    Message('note_off', channel=0, note=49, velocity=64, time=9),
    Message('note_on', channel=9, note=36, velocity=101, time=2),
    Message('note_on', channel=9, note=46, velocity=97, time=0),
    Message('note_on', channel=1, note=37, velocity=110, time=1),
    Message('note_on', channel=9, note=70, velocity=77, time=0),
    Message('note_on', channel=0, note=49, velocity=92, time=1),
    Message('note_off', channel=9, note=46, velocity=64, time=4),
    Message('note_off', channel=9, note=36, velocity=64, time=0),
    Message('note_off', channel=9, note=70, velocity=64, time=1),
    Message('note_off', channel=7, note=49, velocity=64, time=15),
    Message('note_on', channel=9, note=70, velocity=32, time=3),
    Message('note_on', channel=7, note=49, velocity=56, time=1),
    Message('note_off', channel=9, note=70, velocity=64, time=5),
    Message('note_off', channel=0, note=61, velocity=64, time=9),
    Message('note_off', channel=1, note=37, velocity=64, time=5),
    MetaMessage('lyrics', text='shame, ', time=3),
    Message('note_off', channel=3, note=80, velocity=64, time=0),
    Message('note_on', channel=3, note=77, velocity=68, time=0),
    Message('note_on', channel=9, note=46, velocity=60, time=0),
    Message('note_on', channel=9, note=70, velocity=44, time=1),
    Message('note_on', channel=0, note=61, velocity=83, time=1),
    Message('note_off', channel=9, note=46, velocity=64, time=4),
    Message('note_off', channel=9, note=70, velocity=64, time=1),
    Message('note_off', channel=7, note=61, velocity=64, time=9),
    Message('note_on', channel=9, note=46, velocity=73, time=8),
    Message('note_off', channel=0, note=68, velocity=64, time=0),
    Message('note_on', channel=9, note=70, velocity=58, time=1),
    Message('note_on', channel=7, note=61, velocity=47, time=1),
    Message('note_off', channel=9, note=46, velocity=64, time=4),
    Message('note_off', channel=9, note=70, velocity=64, time=1),
    Message('note_on', channel=9, note=46, velocity=101, time=17),
    Message('note_on', channel=0, note=68, velocity=80, time=0),
    Message('note_off', channel=7, note=68, velocity=64, time=0),
    Message('note_on', channel=1, note=37, velocity=118, time=1),
    Message('note_on', channel=9, note=70, velocity=80, time=0),
    Message('note_on', channel=9, note=36, velocity=101, time=1),
    Message('note_off', channel=9, note=46, velocity=64, time=4),
    Message('note_off', channel=9, note=70, velocity=64, time=1),
    Message('note_off', channel=9, note=36, velocity=64, time=1),
    Message('note_on', channel=7, note=68, velocity=44, time=16),
    Message('note_on', channel=9, note=70, velocity=38, time=1),
    Message('note_off', channel=9, note=70, velocity=64, time=6),
    Message('note_off', channel=0, note=61, velocity=64, time=6),
    Message('note_on', channel=9, note=46, velocity=73, time=11),
    Message('note_on', channel=0, note=61, velocity=77, time=1),
    Message('note_on', channel=9, note=70, velocity=51, time=0),
    Message('note_off', channel=9, note=46, velocity=64, time=5),
    Message('note_off', channel=9, note=70, velocity=64, time=1),
    Message('note_off', channel=3, note=77, velocity=64, time=5),
    Message('note_off', channel=7, note=61, velocity=64, time=1),
    Message('note_off', channel=1, note=37, velocity=64, time=7),
    Message('note_on', channel=9, note=46, velocity=75, time=4),
    Message('note_on', channel=7, note=61, velocity=41, time=1),
    Message('note_on', channel=9, note=70, velocity=51, time=0),
    Message('note_on', channel=9, note=38, velocity=47, time=1),
    Message('note_off', channel=9, note=46, velocity=64, time=4),
    Message('note_off', channel=9, note=70, velocity=64, time=1),
    Message('note_off', channel=9, note=38, velocity=64, time=1),
    Message('note_on', channel=9, note=46, velocity=101, time=16),
    Message('note_off', channel=0, note=68, velocity=64, time=1),
    Message('note_on', channel=9, note=70, velocity=80, time=0),
    Message('note_on', channel=9, note=36, velocity=101, time=1),
    Message('note_on', channel=1, note=37, velocity=118, time=0),
    Message('note_on', channel=0, note=72, velocity=80, time=1),
    Message('note_off', channel=9, note=46, velocity=64, time=3),
    Message('note_off', channel=9, note=70, velocity=64, time=1),
    Message('note_off', channel=9, note=36, velocity=64, time=1),
    Message('note_off', channel=7, note=68, velocity=64, time=17),
    Message('note_on', channel=9, note=70, velocity=43, time=0),
    MetaMessage('lyrics', text='of ', time=1),
    Message('note_on', channel=3, note=82, velocity=80, time=0),
    Message('note_on', channel=7, note=72, velocity=44, time=1),
    Message('note_off', channel=9, note=70, velocity=64, time=4),
    Message('note_on', channel=9, note=46, velocity=90, time=17),
    Message('note_on', channel=9, note=70, velocity=43, time=1),
    Message('note_on', channel=9, note=36, velocity=101, time=1),
    Message('note_off', channel=0, note=72, velocity=64, time=1),
    Message('note_on', channel=0, note=68, velocity=68, time=0),
    Message('note_off', channel=1, note=37, velocity=64, time=1),
    Message('note_off', channel=9, note=46, velocity=64, time=2),
    Message('note_off', channel=9, note=70, velocity=64, time=1),
    Message('note_off', channel=9, note=36, velocity=64, time=1),
    Message('note_on', channel=9, note=46, velocity=71, time=17),
    Message('note_on', channel=9, note=70, velocity=67, time=0),
    Message('note_on', channel=1, note=32, velocity=109, time=1),
    Message('note_off', channel=7, note=72, velocity=64, time=1),
    Message('note_on', channel=7, note=68, velocity=32, time=0),
    Message('note_off', channel=9, note=46, velocity=64, time=4),
    Message('note_off', channel=9, note=70, velocity=64, time=0),
    Message('note_off', channel=1, note=32, velocity=64, time=11),
    Message('note_off', channel=0, note=61, velocity=64, time=0),
    Message('note_on', channel=9, note=70, velocity=83, time=7),
    Message('note_on', channel=9, note=38, velocity=101, time=1),
    Message('note_on', channel=9, note=36, velocity=101, time=0),
    Message('note_on', channel=9, note=46, velocity=90, time=0),
    Message('note_on', channel=9, note=57, velocity=55, time=0),
    Message('note_on', channel=9, note=49, velocity=65, time=0),
    Message('note_on', channel=1, note=34, velocity=112, time=0),
    Message('note_on', channel=0, note=61, velocity=67, time=0),
    Message('note_off', channel=9, note=70, velocity=64, time=5),
    Message('note_off', channel=9, note=49, velocity=64, time=1),
    Message('note_off', channel=9, note=46, velocity=64, time=0),
    Message('note_off', channel=9, note=38, velocity=64, time=0),
    Message('note_off', channel=9, note=36, velocity=64, time=0),
    Message('note_off', channel=9, note=57, velocity=64, time=0),
    Message('note_off', channel=7, note=61, velocity=64, time=10),
    Message('note_on', channel=9, note=70, velocity=22, time=7),
    Message('note_on', channel=9, note=46, velocity=59, time=1),
    Message('note_on', channel=7, note=61, velocity=31, time=0),
    Message('note_off', channel=3, note=82, velocity=64, time=2),
    Message('note_off', channel=9, note=70, velocity=64, time=3),
    Message('note_off', channel=9, note=46, velocity=64, time=1),
    Message('note_off', channel=1, note=34, velocity=64, time=8),
    MetaMessage('lyrics', text='my ', time=6),
    Message('note_on', channel=3, note=80, velocity=82, time=0),
    Message('note_on', channel=9, note=46, velocity=90, time=3),
    Message('note_on', channel=9, note=70, velocity=58, time=0),
    Message('note_on', channel=1, note=37, velocity=114, time=1),
    Message('note_off', channel=9, note=46, velocity=64, time=5),
    Message('note_off', channel=9, note=70, velocity=64, time=0),
    Message('note_on', channel=9, note=70, velocity=75, time=18),
    Message('note_on', channel=9, note=46, velocity=78, time=1),
    Message('note_off', channel=9, note=70, velocity=64, time=5),
    Message('note_off', channel=9, note=46, velocity=64, time=1),
    Message('note_off', channel=1, note=37, velocity=64, time=15),
    Message('note_on', channel=6, note=54, velocity=50, time=0),
    Message('note_on', channel=9, note=70, velocity=51, time=2),
    Message('note_on', channel=9, note=36, velocity=101, time=1),
    Message('note_on', channel=9, note=46, velocity=97, time=0),
    Message('note_on', channel=1, note=30, velocity=107, time=0),
    Message('note_on', channel=0, note=54, velocity=83, time=3),
    Message('note_off', channel=9, note=70, velocity=64, time=2),
    Message('note_off', channel=9, note=46, velocity=64, time=1),
    Message('note_off', channel=9, note=36, velocity=64, time=0),
    Message('note_on', channel=9, note=70, velocity=21, time=17),
    Message('note_on', channel=7, note=54, velocity=47, time=4),
    Message('note_off', channel=9, note=70, velocity=64, time=2),
    Message('note_off', channel=3, note=80, velocity=64, time=3),
    Message('note_off', channel=0, note=61, velocity=64, time=11),
    MetaMessage('lyrics', text='shame, ', time=3),
    MetaMessage('lyrics', text='\r', time=0),
    Message('note_on', channel=3, note=75, velocity=74, time=0),
    Message('note_on', channel=9, note=70, velocity=42, time=1),
    Message('note_on', channel=9, note=46, velocity=59, time=1),
    Message('note_on', channel=0, note=61, velocity=75, time=1),
    Message('note_off', channel=9, note=70, velocity=64, time=4),
    Message('note_off', channel=9, note=46, velocity=64, time=1),
    Message('note_off', channel=1, note=30, velocity=64, time=0),
    Message('note_off', channel=0, note=68, velocity=64, time=7),
    Message('note_off', channel=7, note=61, velocity=64, time=6),
    Message('note_on', channel=9, note=70, velocity=43, time=4),
    Message('note_on', channel=9, note=46, velocity=75, time=1),
    Message('note_on', channel=7, note=61, velocity=39, time=1),
    Message('note_off', channel=9, note=70, velocity=64, time=4),
    Message('note_off', channel=9, note=46, velocity=64, time=1),
    Message('note_off', channel=7, note=68, velocity=64, time=7),
    Message('note_on', channel=9, note=36, velocity=101, time=9),
    Message('note_on', channel=1, note=30, velocity=117, time=1),
    Message('note_on', channel=9, note=70, velocity=71, time=0),
    Message('note_on', channel=9, note=46, velocity=93, time=1),
    Message('note_on', channel=0, note=68, velocity=80, time=2),
    Message('note_off', channel=9, note=36, velocity=64, time=2),
    Message('note_off', channel=9, note=70, velocity=64, time=1),
    Message('note_off', channel=9, note=46, velocity=64, time=1),
    Message('note_off', channel=3, note=75, velocity=64, time=16),
    Message('note_on', channel=9, note=70, velocity=36, time=1),
    Message('note_on', channel=7, note=68, velocity=44, time=3),
    Message('note_off', channel=9, note=70, velocity=64, time=3),
    Message('note_on', channel=3, note=73, velocity=69, time=17),
    Message('note_on', channel=9, note=46, velocity=67, time=1),
    Message('note_on', channel=9, note=70, velocity=43, time=0),
    Message('note_off', channel=9, note=46, velocity=64, time=6),
    Message('note_off', channel=9, note=70, velocity=64, time=0),
    Message('note_off', channel=1, note=30, velocity=64, time=12),
    Message('note_on', channel=9, note=46, velocity=65, time=5),
    Message('note_on', channel=9, note=70, velocity=58, time=1),
    Message('note_off', channel=9, note=46, velocity=64, time=5),
    Message('note_off', channel=9, note=70, velocity=64, time=1),
    Message('note_off', channel=0, note=61, velocity=64, time=8),
    Message('note_on', channel=9, note=36, velocity=101, time=9),
    Message('note_on', channel=9, note=46, velocity=87, time=0),
    Message('note_on', channel=1, note=30, velocity=114, time=1),
    Message('note_on', channel=9, note=70, velocity=61, time=0),
    Message('note_on', channel=0, note=61, velocity=79, time=2),
    Message('note_off', channel=9, note=46, velocity=64, time=3),
    Message('note_off', channel=9, note=36, velocity=64, time=0),
    Message('note_off', channel=9, note=70, velocity=64, time=1),
    Message('note_off', channel=7, note=61, velocity=64, time=8),
    Message('note_on', channel=9, note=70, velocity=34, time=10),
    Message('note_on', channel=7, note=61, velocity=42, time=2),
    Message('note_off', channel=9, note=70, velocity=64, time=4),
    Message('note_off', channel=0, note=68, velocity=64, time=7),
    Message('note_on', channel=9, note=46, velocity=61, time=10),
    Message('note_on', channel=9, note=70, velocity=47, time=1),
    Message('note_on', channel=0, note=68, velocity=83, time=2),
    Message('note_off', channel=1, note=30, velocity=64, time=2),
    Message('note_off', channel=9, note=46, velocity=64, time=1),
    Message('note_off', channel=9, note=70, velocity=64, time=1),
    Message('note_off', channel=7, note=68, velocity=64, time=7),
    Message('note_on', channel=9, note=46, velocity=75, time=10),
    Message('note_on', channel=1, note=32, velocity=108, time=1),
    Message('note_on', channel=9, note=70, velocity=65, time=0),
    Message('note_on', channel=7, note=68, velocity=47, time=2),
    Message('note_off', channel=9, note=46, velocity=64, time=3),
    Message('note_off', channel=9, note=70, velocity=64, time=1),
    Message('note_off', channel=1, note=32, velocity=64, time=2),
    Message('note_on', channel=9, note=46, velocity=69, time=15),
    Message('note_on', channel=1, note=34, velocity=118, time=0),
    Message('note_on', channel=9, note=70, velocity=67, time=1),
    Message('note_on', channel=9, note=36, velocity=101, time=1),
    Message('note_off', channel=9, note=46, velocity=64, time=4),
    Message('note_off', channel=9, note=70, velocity=64, time=1),
    Message('note_off', channel=9, note=36, velocity=64, time=1),
    Message('note_off', channel=0, note=54, velocity=64, time=13),
    Message('note_on', channel=9, note=70, velocity=36, time=4),
    Message('note_off', channel=9, note=70, velocity=64, time=6),
    Message('note_off', channel=0, note=49, velocity=64, time=4),
    Message('note_off', channel=1, note=34, velocity=64, time=9),
    Message('note_off', channel=7, note=54, velocity=64, time=1),
    Message('note_on', channel=9, note=46, velocity=59, time=3),
    Message('note_on', channel=1, note=37, velocity=119, time=0),
    Message('note_on', channel=0, note=54, velocity=72, time=0),
    Message('note_on', channel=9, note=70, velocity=43, time=1),
    Message('note_off', channel=9, note=46, velocity=64, time=5),
    Message('note_off', channel=9, note=70, velocity=64, time=1),
    Message('note_off', channel=3, note=73, velocity=64, time=3),
    Message('note_off', channel=7, note=49, velocity=64, time=1),
    Message('note_on', channel=7, note=54, velocity=36, time=13),
    Message('note_on', channel=9, note=46, velocity=81, time=1),
    Message('note_on', channel=9, note=70, velocity=71, time=0),
    Message('note_off', channel=9, note=46, velocity=64, time=6),
    Message('note_off', channel=9, note=70, velocity=64, time=0),
    Message('note_off', channel=1, note=37, velocity=64, time=7),
    Message('note_off', channel=0, note=54, velocity=64, time=6),
    Message('note_on', channel=9, note=36, velocity=101, time=4),
    Message('note_on', channel=9, note=46, velocity=97, time=1),
    Message('note_on', channel=1, note=30, velocity=111, time=0),
    Message('note_on', channel=0, note=54, velocity=90, time=0),
    Message('note_on', channel=9, note=70, velocity=77, time=0),
    Message('note_off', channel=9, note=36, velocity=64, time=5),
    Message('note_off', channel=9, note=46, velocity=64, time=1),
    Message('note_off', channel=9, note=70, velocity=64, time=0),
    Message('note_off', channel=7, note=54, velocity=64, time=13),
    Message('note_on', channel=7, note=54, velocity=54, time=5),
    Message('note_on', channel=9, note=70, velocity=32, time=0),
    Message('note_off', channel=9, note=70, velocity=64, time=6),
    Message('note_off', channel=0, note=61, velocity=64, time=13),
    Message('note_off', channel=0, note=68, velocity=64, time=1),
    Message('note_on', channel=0, note=61, velocity=64, time=2),
    Message('note_on', channel=9, note=46, velocity=55, time=2),
    Message('note_on', channel=9, note=70, velocity=44, time=0),
    Message('note_off', channel=9, note=46, velocity=64, time=6),
    Message('note_off', channel=9, note=70, velocity=64, time=0),
    Message('note_off', channel=1, note=30, velocity=64, time=10),
    Message('note_off', channel=7, note=61, velocity=64, time=3),
    Message('note_off', channel=7, note=68, velocity=64, time=1),
    Message('note_on', channel=7, note=61, velocity=28, time=2),
    Message('note_on', channel=9, note=46, velocity=73, time=1),
    Message('note_on', channel=9, note=70, velocity=58, time=1),
    Message('note_off', channel=9, note=46, velocity=64, time=5),
    Message('note_off', channel=9, note=70, velocity=64, time=1),
    Message('note_on', channel=9, note=36, velocity=101, time=17),
    Message('note_on', channel=9, note=46, velocity=90, time=0),
    Message('note_on', channel=0, note=68, velocity=83, time=1),
    Message('note_on', channel=9, note=70, velocity=80, time=0),
    Message('note_on', channel=1, note=30, velocity=118, time=1),
    Message('note_off', channel=9, note=46, velocity=64, time=4),
    Message('note_off', channel=9, note=36, velocity=64, time=0),
    Message('note_off', channel=9, note=70, velocity=64, time=1),
    Message('note_on', channel=7, note=68, velocity=47, time=18),
    Message('note_on', channel=9, note=70, velocity=38, time=0),
    Message('note_off', channel=9, note=70, velocity=64, time=6),
    Message('note_off', channel=0, note=61, velocity=64, time=12),
    Message('note_on', channel=9, note=46, velocity=67, time=5),
    Message('note_on', channel=9, note=70, velocity=51, time=1),
    Message('note_on', channel=0, note=61, velocity=80, time=1),
    MetaMessage('lyrics', text='you ', time=4),
    Message('note_on', channel=3, note=73, velocity=67, time=0),
    Message('note_off', channel=9, note=46, velocity=64, time=0),
    Message('note_off', channel=9, note=70, velocity=64, time=1),
    Message('note_off', channel=1, note=30, velocity=64, time=9),
    Message('note_off', channel=7, note=61, velocity=64, time=3),
    Message('note_on', channel=9, note=46, velocity=75, time=5),
    Message('note_on', channel=9, note=70, velocity=51, time=1),
    Message('note_on', channel=7, note=61, velocity=44, time=1),
    Message('note_off', channel=9, note=46, velocity=64, time=4),
    Message('note_off', channel=9, note=70, velocity=64, time=1),
    Message('note_off', channel=3, note=73, velocity=64, time=6),
    Message('note_off', channel=0, note=68, velocity=64, time=6),
    MetaMessage('lyrics', text='know ', time=1),
    Message('note_on', channel=3, note=82, velocity=91, time=0),
    Message('note_on', channel=9, note=46, velocity=97, time=4),
    Message('note_on', channel=9, note=70, velocity=80, time=1),
    Message('note_on', channel=9, note=36, velocity=99, time=1),
    Message('note_on', channel=1, note=30, velocity=110, time=0),
    Message('note_on', channel=0, note=72, velocity=84, time=0),
    Message('note_off', channel=9, note=46, velocity=64, time=4),
    Message('note_off', channel=9, note=70, velocity=64, time=1),
    Message('note_off', channel=9, note=36, velocity=64, time=1),
    Message('note_off', channel=7, note=68, velocity=64, time=11),
    Message('note_on', channel=9, note=70, velocity=43, time=6),
    Message('note_on', channel=7, note=72, velocity=48, time=1),
    Message('note_off', channel=9, note=70, velocity=64, time=5),
    Message('note_off', channel=0, note=72, velocity=64, time=13),
    Message('note_on', channel=9, note=36, velocity=84, time=4),
    Message('note_on', channel=9, note=46, velocity=63, time=0),
    Message('note_on', channel=9, note=70, velocity=43, time=1),
    Message('note_on', channel=0, note=68, velocity=83, time=2),
    Message('note_off', channel=3, note=82, velocity=64, time=2),
    Message('note_off', channel=9, note=46, velocity=64, time=1),
    Message('note_off', channel=9, note=36, velocity=64, time=0),
    Message('note_off', channel=9, note=70, velocity=64, time=1),
    Message('note_off', channel=1, note=30, velocity=64, time=9),
    MetaMessage('lyrics', text='I ', time=1),
    Message('note_on', channel=3, note=80, velocity=79, time=0),
    Message('note_off', channel=7, note=72, velocity=64, time=3),
    Message('note_on', channel=9, note=46, velocity=84, time=4),
    Message('note_on', channel=9, note=70, velocity=67, time=1),
    Message('note_on', channel=1, note=32, velocity=113, time=1),
    Message('note_on', channel=7, note=68, velocity=47, time=1),
    Message('note_off', channel=9, note=46, velocity=64, time=3),
    Message('note_off', channel=9, note=70, velocity=64, time=1),
    Message('note_off', channel=1, note=32, velocity=64, time=7),
    Message('note_off', channel=0, note=61, velocity=64, time=0),
    Message('note_on', channel=9, note=46, velocity=93, time=10),
    Message('note_on', channel=9, note=70, velocity=83, time=1),
    Message('note_on', channel=9, note=36, velocity=101, time=1),
    Message('note_on', channel=9, note=38, velocity=101, time=0),
    Message('note_on', channel=1, note=34, velocity=112, time=0),
    Message('note_on', channel=0, note=61, velocity=75, time=0),
    Message('note_off', channel=9, note=46, velocity=64, time=4),
    Message('note_off', channel=9, note=70, velocity=64, time=1),
    Message('note_off', channel=9, note=38, velocity=64, time=1),
    Message('note_off', channel=9, note=36, velocity=64, time=0),
    Message('note_off', channel=7, note=61, velocity=64, time=6),
    Message('note_off', channel=3, note=80, velocity=64, time=7),
    Message('note_on', channel=9, note=70, velocity=22, time=4),
    Message('note_on', channel=7, note=61, velocity=39, time=1),
    MetaMessage('lyrics', text='be', time=5),
    Message('note_on', channel=3, note=77, velocity=83, time=0),
    Message('note_off', channel=9, note=70, velocity=64, time=0),
    Message('note_off', channel=0, note=61, velocity=64, time=7),
    Message('note_off', channel=1, note=34, velocity=64, time=5),
    Message('note_on', channel=9, note=46, velocity=63, time=5),
    Message('note_on', channel=0, note=61, velocity=83, time=1),
    Message('note_on', channel=9, note=70, velocity=58, time=0),
    Message('note_on', channel=1, note=37, velocity=117, time=1),
    Message('note_off', channel=9, note=46, velocity=64, time=4),
    Message('note_off', channel=9, note=70, velocity=64, time=1),
    Message('note_off', channel=7, note=61, velocity=64, time=7),
    Message('note_on', channel=9, note=46, velocity=78, time=10),
    Message('note_on', channel=7, note=61, velocity=47, time=1),
    Message('note_on', channel=9, note=70, velocity=75, time=0),
    Message('note_off', channel=9, note=46, velocity=64, time=5),
    Message('note_off', channel=9, note=70, velocity=64, time=1),
    Message('note_off', channel=1, note=37, velocity=64, time=6),
    Message('note_off', channel=3, note=77, velocity=64, time=9),
    Message('note_on', channel=9, note=46, velocity=93, time=2),
    MetaMessage('lyrics', text='lieve ', time=1),
    Message('note_on', channel=3, note=80, velocity=84, time=0),
    Message('note_on', channel=9, note=36, velocity=101, time=0),
    Message('note_on', channel=9, note=70, velocity=51, time=0),
    Message('note_on', channel=1, note=37, velocity=116, time=1),
    Message('note_on', channel=0, note=49, velocity=97, time=0),
    Message('note_off', channel=9, note=46, velocity=64, time=4),
    Message('note_off', channel=9, note=36, velocity=64, time=1),
    Message('note_off', channel=9, note=70, velocity=64, time=0),
    Message('note_off', channel=6, note=54, velocity=64, time=3),
    Message('note_off', channel=0, note=68, velocity=64, time=14),
    Message('note_on', channel=9, note=70, velocity=21, time=1),
    Message('note_on', channel=7, note=49, velocity=61, time=1),
    Message('note_off', channel=9, note=70, velocity=64, time=5),
    Message('note_off', channel=0, note=61, velocity=64, time=8),
    Message('note_off', channel=7, note=68, velocity=64, time=9),
    Message('note_on', channel=9, note=70, velocity=42, time=1),
    Message('note_on', channel=9, note=46, velocity=55, time=1),
    Message('note_on', channel=0, note=61, velocity=82, time=1),
    Message('note_off', channel=9, note=70, velocity=64, time=4),
    Message('note_off', channel=9, note=46, velocity=64, time=1),
    Message('note_off', channel=1, note=37, velocity=64, time=5),
    Message('note_off', channel=7, note=61, velocity=64, time=2),
    Message('note_on', channel=9, note=70, velocity=43, time=10),
    Message('note_on', channel=9, note=46, velocity=71, time=1),
    Message('note_on', channel=7, note=61, velocity=46, time=1),
    Message('note_off', channel=9, note=70, velocity=64, time=4),
    Message('note_off', channel=9, note=46, velocity=64, time=1),
    Message('note_on', channel=9, note=46, velocity=93, time=17),
    Message('note_on', channel=9, note=70, velocity=71, time=0),
    Message('note_on', channel=9, note=36, velocity=101, time=1),
    Message('note_on', channel=1, note=37, velocity=117, time=0),
    Message('note_on', channel=0, note=68, velocity=79, time=0),
    Message('note_off', channel=9, note=46, velocity=64, time=5),
    Message('note_off', channel=9, note=70, velocity=64, time=0),
    Message('note_off', channel=9, note=36, velocity=64, time=1),
    Message('note_on', channel=9, note=70, velocity=36, time=17),
    Message('note_on', channel=7, note=68, velocity=42, time=1),
    Message('note_off', channel=9, note=70, velocity=64, time=5),
    Message('note_off', channel=3, note=80, velocity=64, time=8),
    MetaMessage('lyrics', text='it. ', time=2),
    MetaMessage('lyrics', text='\r', time=0),
    Message('note_on', channel=3, note=75, velocity=75, time=0),
    Message('note_on', channel=9, note=70, velocity=43, time=8),
    Message('note_off', channel=1, note=37, velocity=64, time=6),
    Message('note_off', channel=9, note=70, velocity=64, time=0),
    Message('note_on', channel=9, note=70, velocity=58, time=18),
    Message('note_on', channel=9, note=46, velocity=61, time=1),
    Message('note_off', channel=9, note=70, velocity=64, time=5),
    Message('note_off', channel=9, note=46, velocity=64, time=1),
    Message('note_off', channel=0, note=61, velocity=64, time=3),
    Message('note_on', channel=9, note=46, velocity=90, time=13),
    Message('note_on', channel=1, note=37, velocity=110, time=1),
    Message('note_on', channel=9, note=70, velocity=61, time=0),
    Message('note_on', channel=9, note=36, velocity=101, time=1),
    Message('note_on', channel=0, note=61, velocity=75, time=1),
    Message('pitchwheel', channel=3, pitch=234, time=2),
    Message('note_off', channel=9, note=46, velocity=64, time=1),
    Message('note_off', channel=9, note=70, velocity=64, time=1),
    Message('note_off', channel=9, note=36, velocity=64, time=1),
    Message('pitchwheel', channel=3, pitch=1170, time=1),
    Message('note_off', channel=7, note=61, velocity=64, time=2),
    Message('pitchwheel', channel=3, pitch=2574, time=1),
    Message('pitchwheel', channel=3, pitch=3393, time=5),
    Message('pitchwheel', channel=3, pitch=4446, time=1),
    Message('pitchwheel', channel=3, pitch=5616, time=2),
    Message('pitchwheel', channel=3, pitch=6903, time=3),
    Message('note_on', channel=9, note=70, velocity=34, time=2),
    Message('pitchwheel', channel=3, pitch=7956, time=2),
    Message('note_on', channel=7, note=61, velocity=39, time=0),
    Message('pitchwheel', channel=3, pitch=8191, time=3),
    Message('note_off', channel=9, note=70, velocity=64, time=1),
    Message('note_off', channel=0, note=68, velocity=64, time=9),
    Message('note_on', channel=9, note=70, velocity=47, time=9),
    Message('note_on', channel=9, note=46, velocity=55, time=1),
    Message('note_on', channel=0, note=68, velocity=81, time=0),
    Message('note_off', channel=9, note=70, velocity=64, time=5),
    Message('note_off', channel=9, note=46, velocity=64, time=1),
    Message('note_off', channel=1, note=37, velocity=64, time=1),
    Message('note_off', channel=7, note=68, velocity=64, time=7),
    Message('note_on', channel=9, note=46, velocity=71, time=8),
    Message('note_on', channel=1, note=32, velocity=101, time=1),
    Message('note_on', channel=9, note=70, velocity=65, time=0),
    Message('note_on', channel=7, note=68, velocity=45, time=1),
    Message('note_off', channel=9, note=46, velocity=64, time=4),
    Message('note_off', channel=9, note=70, velocity=64, time=1),
    Message('note_off', channel=1, note=32, velocity=64, time=6),
    Message('note_on', channel=9, note=46, velocity=90, time=11),
    Message('note_on', channel=1, note=34, velocity=108, time=0),
    Message('note_on', channel=9, note=70, velocity=67, time=1),
    Message('note_on', channel=9, note=36, velocity=101, time=1),
    Message('note_off', channel=9, note=46, velocity=64, time=4),
    Message('note_off', channel=9, note=70, velocity=64, time=1),
    Message('note_off', channel=9, note=36, velocity=64, time=1),
    MetaMessage('lyrics', text='\n', time=3),
    Message('note_on', channel=9, note=46, velocity=55, time=13),
    Message('note_on', channel=9, note=70, velocity=36, time=1),
    Message('note_off', channel=0, note=49, velocity=64, time=3),
    Message('note_off', channel=9, note=46, velocity=64, time=2),
    Message('note_off', channel=9, note=70, velocity=64, time=1),
    Message('note_off', channel=3, note=75, velocity=64, time=10),
    Message('note_off', channel=1, note=34, velocity=64, time=3),
    Message('note_on', channel=9, note=46, velocity=56, time=4),
    Message('note_on', channel=9, note=70, velocity=43, time=1),
    Message('note_on', channel=1, note=37, velocity=111, time=1),
    Message('note_on', channel=0, note=49, velocity=72, time=0),
    Message('note_off', channel=7, note=49, velocity=64, time=2),
    Message('note_off', channel=9, note=46, velocity=64, time=2),
    Message('note_off', channel=9, note=70, velocity=64, time=1),
    Message('note_on', channel=9, note=70, velocity=71, time=18),
    Message('note_on', channel=9, note=46, velocity=81, time=1),
    Message('note_on', channel=7, note=49, velocity=36, time=0),
    Message('note_off', channel=9, note=70, velocity=64, time=5),
    Message('note_off', channel=9, note=46, velocity=64, time=1),
    Message('note_off', channel=1, note=37, velocity=64, time=4),
    Message('note_off', channel=0, note=49, velocity=64, time=8),
    Message('note_on', channel=0, note=49, velocity=92, time=4),
    Message('note_on', channel=9, note=70, velocity=77, time=1),
    Message('note_on', channel=9, note=36, velocity=101, time=1),
    Message('note_on', channel=9, note=46, velocity=101, time=0),
    Message('note_on', channel=1, note=37, velocity=111, time=0),
    Message('note_off', channel=9, note=70, velocity=64, time=5),
    Message('note_off', channel=9, note=46, velocity=64, time=1),
    Message('note_off', channel=9, note=36, velocity=64, time=0),
    Message('note_off', channel=7, note=49, velocity=64, time=12),
    Message('note_on', channel=7, note=49, velocity=56, time=4),
    Message('note_on', channel=9, note=70, velocity=32, time=1),
    Message('note_off', channel=9, note=70, velocity=64, time=6),
    Message('note_off', channel=0, note=61, velocity=64, time=7),
    Message('note_off', channel=0, note=68, velocity=64, time=1),
    Message('note_on', channel=9, note=46, velocity=61, time=10),
    Message('note_on', channel=9, note=70, velocity=44, time=0),
    Message('note_on', channel=0, note=61, velocity=83, time=1),
    Message('note_off', channel=9, note=46, velocity=64, time=5),
    Message('note_off', channel=9, note=70, velocity=64, time=0),
    Message('note_off', channel=1, note=37, velocity=64, time=1),
    Message('note_off', channel=7, note=61, velocity=64, time=6),
    Message('note_off', channel=7, note=68, velocity=64, time=1),
    Message('note_on', channel=9, note=70, velocity=58, time=10),
    Message('note_on', channel=9, note=46, velocity=69, time=1),
    Message('note_on', channel=7, note=61, velocity=47, time=0),
    Message('note_off', channel=9, note=70, velocity=64, time=5),
    Message('note_off', channel=9, note=46, velocity=64, time=1),
    Message('note_off', channel=0, note=54, velocity=64, time=9),
    Message('note_on', channel=9, note=36, velocity=101, time=8),
    Message('note_on', channel=9, note=46, velocity=90, time=0),
    Message('note_on', channel=9, note=70, velocity=80, time=0),
    Message('note_on', channel=1, note=37, velocity=111, time=1),
    Message('note_on', channel=0, note=68, velocity=82, time=0),
    Message('note_off', channel=9, note=46, velocity=64, time=5),
    Message('note_off', channel=9, note=36, velocity=64, time=0),
    Message('note_off', channel=9, note=70, velocity=64, time=0),
    Message('note_off', channel=7, note=54, velocity=64, time=10),
    Message('pitchwheel', channel=3, pitch=6903, time=7),
    Message('note_on', channel=9, note=70, velocity=38, time=1),
    Message('note_on', channel=7, note=68, velocity=46, time=1),
    Message('pitchwheel', channel=3, pitch=1170, time=1),
    Message('pitchwheel', channel=3, pitch=0, time=2),
    Message('note_off', channel=9, note=70, velocity=64, time=2),
    Message('note_off', channel=0, note=61, velocity=64, time=6),
    Message('note_on', channel=9, note=46, velocity=69, time=11),
    Message('note_on', channel=9, note=70, velocity=51, time=1),
    Message('note_on', channel=0, note=61, velocity=80, time=2),
    Message('note_off', channel=9, note=46, velocity=64, time=3),
    Message('note_off', channel=9, note=70, velocity=64, time=1),
    Message('note_off', channel=1, note=37, velocity=64, time=6),
    Message('note_off', channel=7, note=61, velocity=64, time=0),
    Message('note_on', channel=9, note=46, velocity=67, time=12),
    Message('note_on', channel=9, note=70, velocity=51, time=0),
    Message('note_on', channel=7, note=61, velocity=44, time=2),
    Message('note_off', channel=9, note=46, velocity=64, time=4),
    Message('note_off', channel=9, note=70, velocity=64, time=0),
    Message('note_off', channel=0, note=68, velocity=64, time=6),
    Message('note_on', channel=9, note=36, velocity=99, time=11),
    Message('note_on', channel=9, note=46, velocity=71, time=1),
    Message('note_on', channel=9, note=70, velocity=80, time=0),
    Message('note_on', channel=1, note=37, velocity=123, time=1),
    Message('note_on', channel=0, note=72, velocity=80, time=1),
    Message('note_off', channel=9, note=36, velocity=64, time=3),
    Message('note_off', channel=9, note=46, velocity=64, time=1),
    Message('note_off', channel=9, note=70, velocity=64, time=0),
    Message('note_off', channel=7, note=68, velocity=64, time=6),
    Message('note_on', channel=9, note=70, velocity=43, time=12),
    Message('note_on', channel=7, note=72, velocity=44, time=2),
    Message('note_off', channel=9, note=70, velocity=64, time=4),
    Message('note_off', channel=0, note=72, velocity=64, time=13),
    MetaMessage('lyrics', text='But ', time=3),
    Message('note_on', channel=3, note=73, velocity=79, time=0),
    Message('note_on', channel=4, note=61, velocity=72, time=0),
    Message('note_on', channel=4, note=56, velocity=68, time=0),
    Message('note_on', channel=9, note=46, velocity=71, time=1),
    Message('note_on', channel=9, note=36, velocity=78, time=1),
    Message('note_on', channel=9, note=70, velocity=43, time=0),
    Message('note_on', channel=0, note=68, velocity=83, time=1),
    Message('note_off', channel=9, note=46, velocity=64, time=4),
    Message('note_off', channel=9, note=36, velocity=64, time=1),
    Message('note_off', channel=9, note=70, velocity=64, time=0),
    Message('note_off', channel=1, note=37, velocity=64, time=3),
    Message('note_off', channel=7, note=72, velocity=64, time=10),
    Message('note_on', channel=9, note=46, velocity=67, time=4),
    Message('note_on', channel=9, note=70, velocity=67, time=1),
    Message('note_on', channel=1, note=32, velocity=105, time=1),
    Message('note_on', channel=7, note=68, velocity=47, time=0),
    Message('note_off', channel=9, note=46, velocity=64, time=4),
    Message('note_off', channel=9, note=70, velocity=64, time=1),
    Message('note_off', channel=3, note=73, velocity=64, time=2),
    Message('note_off', channel=1, note=32, velocity=64, time=4),
    Message('note_off', channel=0, note=61, velocity=64, time=2),
    Message('note_off', channel=4, note=56, velocity=64, time=8),
    Message('note_off', channel=4, note=61, velocity=64, time=0),
    Message('note_on', channel=4, note=61, velocity=77, time=1),
    Message('note_on', channel=4, note=56, velocity=70, time=0),
    Message('note_on', channel=9, note=46, velocity=93, time=0),
    Message('note_on', channel=1, note=34, velocity=105, time=1),
    Message('note_on', channel=0, note=61, velocity=80, time=0),
    Message('note_on', channel=9, note=70, velocity=83, time=0),
    MetaMessage('lyrics', text='I ', time=1),
    Message('note_on', channel=3, note=73, velocity=91, time=0),
    Message('note_on', channel=9, note=38, velocity=101, time=0),
    Message('note_on', channel=9, note=36, velocity=101, time=0),
    Message('note_off', channel=9, note=46, velocity=64, time=4),
    Message('note_off', channel=9, note=70, velocity=64, time=1),
    Message('note_off', channel=9, note=36, velocity=64, time=1),
    Message('note_off', channel=9, note=38, velocity=64, time=0),
    Message('note_off', channel=7, note=61, velocity=64, time=7),
    Message('note_on', channel=7, note=61, velocity=44, time=10),
    Message('note_on', channel=9, note=70, velocity=22, time=0),
    Message('note_off', channel=9, note=70, velocity=64, time=6),
    Message('note_off', channel=0, note=61, velocity=64, time=7),
    Message('note_off', channel=1, note=34, velocity=64, time=1),
    Message('note_off', channel=4, note=56, velocity=64, time=6),
    Message('note_off', channel=4, note=61, velocity=64, time=0),
    Message('note_off', channel=3, note=73, velocity=64, time=1),
    Message('note_on', channel=4, note=56, velocity=67, time=1),
    Message('note_on', channel=4, note=60, velocity=59, time=1),
    Message('note_on', channel=4, note=63, velocity=70, time=0),
    Message('note_on', channel=9, note=46, velocity=75, time=0),
    Message('note_on', channel=1, note=37, velocity=111, time=1),
    Message('note_on', channel=0, note=61, velocity=83, time=0),
    Message('note_on', channel=9, note=70, velocity=58, time=0),
    MetaMessage('lyrics', text='still ', time=3),
    Message('note_on', channel=3, note=80, velocity=84, time=0),
    Message('note_off', channel=9, note=46, velocity=64, time=2),
    Message('note_off', channel=9, note=70, velocity=64, time=1),
    Message('note_off', channel=6, note=61, velocity=64, time=2),
    Message('note_off', channel=6, note=56, velocity=64, time=3),
    Message('note_off', channel=7, note=61, velocity=64, time=2),
    Message('note_on', channel=7, note=61, velocity=47, time=11),
    Message('note_on', channel=9, note=70, velocity=75, time=0),
    Message('note_on', channel=9, note=46, velocity=69, time=1),
    Message('note_off', channel=9, note=70, velocity=64, time=5),
    Message('note_off', channel=9, note=46, velocity=64, time=1),
    Message('note_off', channel=1, note=37, velocity=64, time=11),
    Message('note_off', channel=0, note=49, velocity=64, time=1),
    Message('note_off', channel=0, note=61, velocity=64, time=1),
    Message('note_off', channel=0, note=68, velocity=64, time=1),
    Message('note_on', channel=9, note=36, velocity=101, time=2),
    Message('note_on', channel=6, note=63, velocity=52, time=0),
    Message('note_on', channel=6, note=68, velocity=52, time=0),
    Message('note_on', channel=9, note=70, velocity=51, time=1),
    Message('note_on', channel=9, note=46, velocity=101, time=1),
    Message('note_on', channel=9, note=57, velocity=58, time=0),
    Message('note_on', channel=9, note=49, velocity=61, time=0),
    Message('note_on', channel=1, note=32, velocity=116, time=0),
    Message('note_on', channel=6, note=61, velocity=52, time=0),
    Message('note_on', channel=0, note=56, velocity=99, time=0),
    Message('pitchwheel', channel=0, pitch=-175, time=1),
    Message('note_off', channel=9, note=36, velocity=64, time=3),
    Message('note_off', channel=9, note=70, velocity=64, time=1),
    Message('note_off', channel=9, note=46, velocity=64, time=1),
    Message('note_off', channel=9, note=57, velocity=64, time=0),
    Message('note_off', channel=9, note=49, velocity=64, time=0),
    Message('note_off', channel=7, note=49, velocity=64, time=12),
    Message('note_off', channel=7, note=61, velocity=64, time=1),
    Message('note_off', channel=7, note=68, velocity=64, time=1),
    Message('note_on', channel=9, note=70, velocity=21, time=3),
    Message('note_on', channel=7, note=56, velocity=63, time=1),
    Message('pitchwheel', channel=7, pitch=-175, time=1),
    Message('note_off', channel=9, note=70, velocity=64, time=4),
    Message('pitchwheel', channel=0, pitch=0, time=16),
    Message('note_on', channel=9, note=46, velocity=56, time=2),
    Message('note_on', channel=0, note=63, velocity=100, time=0),
    Message('note_on', channel=9, note=70, velocity=42, time=0),
    Message('note_off', channel=9, note=46, velocity=64, time=6),
    Message('note_off', channel=9, note=70, velocity=64, time=0),
    Message('pitchwheel', channel=7, pitch=0, time=16),
    Message('note_on', channel=9, note=46, velocity=65, time=2),
    Message('note_on', channel=7, note=63, velocity=64, time=0),
    Message('note_on', channel=9, note=70, velocity=43, time=0),
    Message('note_off', channel=9, note=46, velocity=64, time=6),
    Message('note_off', channel=9, note=70, velocity=64, time=0),
    Message('note_off', channel=1, note=32, velocity=64, time=7),
    Message('note_on', channel=9, note=36, velocity=101, time=10),
    Message('note_on', channel=9, note=46, velocity=87, time=0),
    Message('note_on', channel=1, note=29, velocity=102, time=0),
    Message('note_on', channel=9, note=70, velocity=71, time=1),
    Message('note_on', channel=0, note=68, velocity=79, time=1),
    Message('note_off', channel=9, note=46, velocity=64, time=4),
    Message('note_off', channel=9, note=36, velocity=64, time=0),
    Message('note_off', channel=9, note=70, velocity=64, time=1),
    Message('note_on', channel=9, note=70, velocity=36, time=18),
    Message('note_on', channel=7, note=68, velocity=42, time=1),
    Message('note_off', channel=9, note=70, velocity=64, time=5),
    Message('note_off', channel=0, note=56, velocity=64, time=5),
    Message('note_off', channel=1, note=29, velocity=64, time=8),
    Message('note_on', channel=0, note=56, velocity=93, time=3),
    Message('note_on', channel=9, note=46, velocity=97, time=1),
    Message('note_on', channel=1, note=32, velocity=102, time=1),
    Message('note_on', channel=9, note=70, velocity=43, time=0),
    Message('note_off', channel=9, note=46, velocity=64, time=5),
    Message('note_off', channel=9, note=70, velocity=64, time=1),
    Message('note_off', channel=7, note=56, velocity=64, time=5),
    Message('note_off', channel=3, note=80, velocity=64, time=7),
    Message('note_on', channel=7, note=56, velocity=57, time=4),
    Message('note_on', channel=9, note=70, velocity=58, time=2),
    Message('note_off', channel=9, note=70, velocity=64, time=6),
    Message('note_off', channel=0, note=63, velocity=64, time=6),
    Message('note_on', channel=9, note=46, velocity=84, time=11),
    Message('note_on', channel=0, note=63, velocity=105, time=0),
    Message('note_on', channel=9, note=36, velocity=101, time=1),
    Message('note_on', channel=9, note=70, velocity=61, time=0),
    Message('note_off', channel=9, note=46, velocity=64, time=5),
    Message('note_off', channel=9, note=36, velocity=64, time=1),
    Message('note_off', channel=9, note=70, velocity=64, time=0),
    Message('note_off', channel=7, note=63, velocity=64, time=6),
    Message('note_on', channel=7, note=63, velocity=69, time=11),
    Message('note_on', channel=9, note=46, velocity=73, time=1),
    Message('note_on', channel=9, note=70, velocity=34, time=0),
    Message('note_off', channel=9, note=46, velocity=64, time=6),
    Message('note_off', channel=9, note=70, velocity=64, time=0),
    Message('note_off', channel=0, note=68, velocity=64, time=9),
    MetaMessage('lyrics', text='have', time=3),
    Message('note_on', channel=3, note=78, velocity=87, time=0),
    Message('note_off', channel=4, note=60, velocity=64, time=2),
    Message('note_off', channel=4, note=56, velocity=64, time=0),
    Message('note_off', channel=4, note=63, velocity=64, time=1),
    Message('note_on', channel=4, note=56, velocity=67, time=1),
    Message('note_on', channel=0, note=68, velocity=75, time=0),
    Message('note_on', channel=4, note=66, velocity=65, time=1),
    Message('note_on', channel=4, note=61, velocity=65, time=0),
    Message('note_on', channel=9, note=46, velocity=65, time=0),
    Message('note_on', channel=1, note=34, velocity=106, time=0),
    Message('note_on', channel=9, note=70, velocity=47, time=1),
    Message('note_off', channel=9, note=46, velocity=64, time=5),
    Message('note_off', channel=1, note=32, velocity=64, time=0),
    Message('note_off', channel=9, note=70, velocity=64, time=1),
    Message('note_off', channel=7, note=68, velocity=64, time=9),
    Message('note_on', channel=7, note=68, velocity=39, time=7),
    Message('note_on', channel=9, note=46, velocity=75, time=1),
    Message('note_on', channel=9, note=70, velocity=65, time=1),
    Message('note_off', channel=9, note=46, velocity=64, time=5),
    Message('note_off', channel=9, note=70, velocity=64, time=1),
    Message('note_off', channel=1, note=34, velocity=64, time=10),
    Message('note_off', channel=0, note=56, velocity=64, time=1),
    MetaMessage('lyrics', text="n't ", time=5),
    Message('note_off', channel=3, note=78, velocity=64, time=0),
    Message('note_on', channel=3, note=77, velocity=81, time=0),
    Message('note_off', channel=4, note=61, velocity=64, time=0),
    Message('note_on', channel=4, note=61, velocity=76, time=1),
    Message('note_on', channel=9, note=46, velocity=101, time=0),
    Message('note_on', channel=0, note=56, velocity=92, time=0),
    Message('note_on', channel=9, note=38, velocity=101, time=1),
    Message('note_on', channel=1, note=36, velocity=124, time=0),
    Message('note_on', channel=9, note=70, velocity=67, time=0),
    Message('note_on', channel=9, note=36, velocity=101, time=1),
    Message('note_off', channel=9, note=46, velocity=64, time=4),
    Message('note_off', channel=9, note=38, velocity=64, time=1),
    Message('note_off', channel=9, note=70, velocity=64, time=0),
    Message('note_off', channel=9, note=36, velocity=64, time=1),
    Message('note_off', channel=7, note=56, velocity=64, time=10),
    Message('note_on', channel=7, note=56, velocity=56, time=6),
    Message('note_on', channel=9, note=70, velocity=36, time=1),
    Message('note_off', channel=9, note=70, velocity=64, time=6),
    Message('note_off', channel=0, note=68, velocity=64, time=7),
    Message('note_off', channel=1, note=36, velocity=64, time=4),
    Message('note_off', channel=3, note=77, velocity=64, time=3),
    MetaMessage('lyrics', text='found ', time=2),
    MetaMessage('lyrics', text='\r', time=0),
    Message('note_on', channel=3, note=73, velocity=64, time=0),
    Message('note_off', channel=4, note=66, velocity=64, time=1),
    Message('note_on', channel=4, note=65, velocity=72, time=0),
    Message('note_on', channel=9, note=46, velocity=71, time=0),
    Message('note_on', channel=1, note=37, velocity=119, time=0),
    Message('note_on', channel=9, note=70, velocity=43, time=1),
    Message('note_on', channel=0, note=68, velocity=72, time=1),
    Message('note_off', channel=9, note=46, velocity=64, time=4),
    Message('note_off', channel=9, note=70, velocity=64, time=1),
    Message('note_off', channel=7, note=68, velocity=64, time=7),
    Message('note_on', channel=9, note=70, velocity=71, time=11),
    Message('note_on', channel=9, note=46, velocity=73, time=1),
    Message('note_on', channel=7, note=68, velocity=36, time=0),
    Message('note_off', channel=9, note=70, velocity=64, time=5),
    Message('note_off', channel=9, note=46, velocity=64, time=1),
    Message('note_off', channel=0, note=56, velocity=64, time=10),
    Message('note_off', channel=4, note=56, velocity=64, time=7),
    Message('note_on', channel=0, note=54, velocity=101, time=0),
    Message('note_on', channel=9, note=70, velocity=77, time=0),
    Message('note_on', channel=4, note=58, velocity=62, time=1),
    Message('note_on', channel=9, note=36, velocity=101, time=0),
    Message('note_on', channel=9, note=46, velocity=93, time=0),
    Message('note_on', channel=1, note=30, velocity=107, time=0),
    Message('note_off', channel=1, note=37, velocity=64, time=2),
    Message('note_off', channel=9, note=70, velocity=64, time=3),
    Message('note_off', channel=9, note=46, velocity=64, time=1),
    Message('note_off', channel=9, note=36, velocity=64, time=0),
    Message('note_off', channel=7, note=56, velocity=64, time=10),
    Message('note_on', channel=7, note=54, velocity=65, time=7),
    Message('note_on', channel=9, note=70, velocity=32, time=0),
    Message('note_off', channel=9, note=70, velocity=64, time=6),
    Message('note_off', channel=0, note=63, velocity=64, time=9),
    Message('note_on', channel=0, note=63, velocity=89, time=9),
    Message('note_on', channel=9, note=70, velocity=44, time=0),
    Message('note_on', channel=9, note=46, velocity=59, time=1),
    Message('note_off', channel=9, note=70, velocity=64, time=5),
    Message('note_off', channel=9, note=46, velocity=64, time=1),
    Message('note_off', channel=7, note=63, velocity=64, time=8),
    Message('note_on', channel=7, note=63, velocity=53, time=9),
    Message('note_on', channel=9, note=70, velocity=58, time=0),
    Message('note_on', channel=9, note=46, velocity=65, time=1),
    Message('note_off', channel=0, note=68, velocity=64, time=3),
    Message('note_off', channel=9, note=70, velocity=64, time=2),
    Message('note_off', channel=9, note=46, velocity=64, time=1),
    Message('note_off', channel=1, note=30, velocity=64, time=6),
    Message('note_on', channel=1, note=29, velocity=105, time=10),
    Message('note_on', channel=0, note=68, velocity=67, time=0),
    Message('note_on', channel=9, note=70, velocity=80, time=1),
    Message('note_on', channel=9, note=36, velocity=101, time=1),
    Message('note_on', channel=9, note=46, velocity=58, time=0),
    Message('note_off', channel=7, note=68, velocity=64, time=3),
    Message('note_off', channel=9, note=70, velocity=64, time=2),
    Message('note_off', channel=9, note=46, velocity=64, time=1),
    Message('note_off', channel=9, note=36, velocity=64, time=0),
    Message('note_on', channel=7, note=68, velocity=31, time=16),
    Message('note_on', channel=9, note=70, velocity=38, time=1),
    Message('note_on', channel=9, note=46, velocity=75, time=1),
    Message('note_off', channel=3, note=73, velocity=64, time=3),
    Message('note_off', channel=9, note=70, velocity=64, time=2),
    Message('note_off', channel=9, note=46, velocity=64, time=1),
    Message('note_off', channel=0, note=63, velocity=64, time=5),
    Message('note_off', channel=1, note=29, velocity=64, time=5),
    Message('note_on', channel=1, note=30, velocity=109, time=6),
    Message('note_on', channel=0, note=63, velocity=80, time=1),
    Message('note_on', channel=9, note=70, velocity=51, time=0),
    Message('note_on', channel=9, note=46, velocity=97, time=1),
    Message('note_off', channel=9, note=70, velocity=64, time=5),
    Message('note_off', channel=9, note=46, velocity=64, time=1),
    Message('note_off', channel=7, note=63, velocity=64, time=5),
    Message('note_off', channel=0, note=63, velocity=64, time=11),
    Message('note_on', channel=7, note=63, velocity=44, time=1),
    Message('note_on', channel=9, note=70, velocity=51, time=0),
    Message('note_on', channel=0, note=63, velocity=85, time=1),
    Message('note_off', channel=9, note=70, velocity=64, time=5),
    Message('note_off', channel=0, note=63, velocity=64, time=16),
    Message('note_off', channel=7, note=63, velocity=64, time=1),
    Message('note_on', channel=9, note=70, velocity=80, time=1),
    Message('note_on', channel=9, note=36, velocity=86, time=1),
    Message('note_on', channel=9, note=46, velocity=69, time=0),
    Message('note_on', channel=7, note=63, velocity=49, time=0),
    Message('note_on', channel=0, note=63, velocity=81, time=2),
    Message('note_off', channel=9, note=70, velocity=64, time=3),
    Message('note_off', channel=9, note=46, velocity=64, time=1),
    Message('note_off', channel=9, note=36, velocity=64, time=0),
    Message('note_off', channel=7, note=63, velocity=64, time=15),
    Message('note_on', channel=9, note=70, velocity=43, time=2),
    Message('note_off', channel=4, note=65, velocity=64, time=1),
    Message('note_on', channel=9, note=46, velocity=87, time=0),
    Message('note_off', channel=4, note=58, velocity=64, time=1),
    Message('note_off', channel=4, note=61, velocity=64, time=0),
    Message('note_on', channel=7, note=63, velocity=45, time=1),
    Message('note_off', channel=9, note=70, velocity=64, time=3),
    Message('note_off', channel=9, note=46, velocity=64, time=1),
    Message('note_off', channel=1, note=30, velocity=64, time=10),
    MetaMessage('lyrics', text='what ', time=2),
    Message('note_on', channel=3, note=70, velocity=54, time=0),
    Message('note_off', channel=0, note=68, velocity=64, time=2),
    Message('note_on', channel=1, note=32, velocity=112, time=2),
    Message('note_on', channel=4, note=58, velocity=54, time=1),
    Message('note_on', channel=4, note=66, velocity=57, time=0),
    Message('note_on', channel=4, note=61, velocity=51, time=0),
    Message('note_on', channel=9, note=70, velocity=43, time=0),
    Message('note_on', channel=9, note=36, velocity=80, time=1),
    Message('note_on', channel=9, note=46, velocity=61, time=0),
    Message('note_on', channel=0, note=68, velocity=87, time=1),
    Message('note_off', channel=9, note=70, velocity=64, time=4),
    Message('note_off', channel=9, note=46, velocity=64, time=1),
    Message('note_off', channel=9, note=36, velocity=64, time=0),
    Message('note_off', channel=7, note=68, velocity=64, time=14),
    Message('note_on', channel=9, note=70, velocity=67, time=3),
    Message('note_on', channel=9, note=46, velocity=65, time=1),
    Message('note_on', channel=7, note=68, velocity=50, time=1),
    Message('note_off', channel=9, note=70, velocity=64, time=4),
    Message('note_off', channel=9, note=46, velocity=64, time=1),
    Message('note_off', channel=3, note=70, velocity=64, time=4),
    Message('note_off', channel=1, note=32, velocity=64, time=3),
    Message('note_off', channel=0, note=54, velocity=64, time=6),
    Message('note_off', channel=4, note=61, velocity=64, time=1),
    Message('note_off', channel=4, note=66, velocity=64, time=0),
    Message('note_off', channel=4, note=58, velocity=64, time=0),
    Message('note_on', channel=4, note=61, velocity=79, time=2),
    Message('note_on', channel=4, note=66, velocity=82, time=0),
    Message('note_on', channel=4, note=58, velocity=74, time=0),
    Message('note_on', channel=1, note=34, velocity=116, time=0),
    MetaMessage('lyrics', text="I'm ", time=1),
    Message('note_on', channel=3, note=70, velocity=79, time=0),
    Message('note_on', channel=9, note=70, velocity=83, time=0),
    Message('note_on', channel=9, note=36, velocity=101, time=1),
    Message('note_on', channel=9, note=38, velocity=101, time=0),
    Message('note_on', channel=9, note=46, velocity=101, time=0),
    Message('note_on', channel=0, note=54, velocity=97, time=1),
    Message('note_off', channel=9, note=70, velocity=64, time=4),
    Message('note_off', channel=9, note=46, velocity=64, time=1),
    Message('note_off', channel=9, note=38, velocity=64, time=0),
    Message('note_off', channel=9, note=36, velocity=64, time=0),
    Message('note_off', channel=7, note=54, velocity=64, time=13),
    Message('note_on', channel=9, note=70, velocity=22, time=4),
    Message('note_on', channel=7, note=54, velocity=61, time=2),
    Message('note_off', channel=9, note=70, velocity=64, time=4),
    Message('note_off', channel=3, note=70, velocity=64, time=4),
    Message('note_off', channel=1, note=34, velocity=64, time=9),
    Message('note_off', channel=4, note=58, velocity=64, time=1),
    Message('note_off', channel=4, note=66, velocity=64, time=0),
    Message('note_off', channel=4, note=61, velocity=64, time=0),
    Message('note_on', channel=4, note=58, velocity=89, time=2),
    Message('note_on', channel=4, note=61, velocity=90, time=0),
    MetaMessage('lyrics', text='look', time=1),
    Message('note_on', channel=3, note=70, velocity=91, time=0),
    Message('note_on', channel=4, note=66, velocity=86, time=0),
    Message('note_on', channel=1, note=36, velocity=110, time=0),
    Message('note_on', channel=0, note=61, velocity=83, time=0),
    Message('note_on', channel=9, note=46, velocity=67, time=1),
    Message('note_on', channel=9, note=70, velocity=58, time=0),
    Message('note_off', channel=9, note=46, velocity=64, time=6),
    Message('note_off', channel=9, note=70, velocity=64, time=0),
    Message('note_on', channel=9, note=46, velocity=73, time=17),
    Message('note_on', channel=7, note=61, velocity=47, time=0),
    Message('note_on', channel=9, note=70, velocity=75, time=1),
    Message('note_off', channel=9, note=46, velocity=64, time=5),
    Message('note_off', channel=9, note=70, velocity=64, time=1),
    Message('note_off', channel=6, note=68, velocity=64, time=5),
    Message('note_off', channel=6, note=63, velocity=64, time=0),
    Message('note_off', channel=6, note=61, velocity=64, time=2),
    Message('note_off', channel=1, note=36, velocity=64, time=3),
    Message('note_off', channel=4, note=58, velocity=64, time=6),
    Message('note_off', channel=4, note=66, velocity=64, time=1),
    Message('note_on', channel=4, note=65, velocity=63, time=0),
    Message('note_on', channel=4, note=56, velocity=63, time=0),
    Message('note_on', channel=1, note=37, velocity=111, time=0),
    Message('note_on', channel=6, note=56, velocity=44, time=0),
    Message('note_on', channel=6, note=61, velocity=54, time=0),
    Message('note_on', channel=9, note=70, velocity=51, time=1),
    Message('note_on', channel=9, note=36, velocity=101, time=1),
    Message('note_on', channel=9, note=46, velocity=93, time=0),
    Message('note_off', channel=3, note=70, velocity=64, time=2),
    Message('note_on', channel=0, note=49, velocity=97, time=0),
    MetaMessage('lyrics', text='ing ', time=2),
    Message('note_on', channel=3, note=73, velocity=58, time=0),
    Message('note_off', channel=9, note=70, velocity=64, time=1),
    Message('note_off', channel=9, note=46, velocity=64, time=1),
    Message('note_off', channel=9, note=36, velocity=64, time=0),
    Message('note_on', channel=9, note=70, velocity=21, time=17),
    Message('note_on', channel=7, note=49, velocity=61, time=3),
    Message('note_off', channel=9, note=70, velocity=64, time=3),
    Message('note_off', channel=3, note=73, velocity=64, time=7),
    Message('note_off', channel=0, note=61, velocity=64, time=2),
    Message('note_off', channel=4, note=56, velocity=64, time=6),
    Message('note_off', channel=4, note=65, velocity=64, time=0),
    Message('note_off', channel=4, note=61, velocity=64, time=0),
    Message('note_on', channel=4, note=56, velocity=67, time=1),
    Message('note_on', channel=4, note=61, velocity=60, time=0),
    Message('note_on', channel=4, note=65, velocity=65, time=0),
    Message('note_on', channel=9, note=46, velocity=71, time=1),
    Message('note_on', channel=0, note=61, velocity=81, time=0),
    Message('note_on', channel=9, note=70, velocity=42, time=1),
    Message('note_off', channel=1, note=37, velocity=64, time=2),
    Message('note_off', channel=9, note=46, velocity=64, time=3),
    Message('note_off', channel=9, note=70, velocity=64, time=1),
    MetaMessage('lyrics', text='for. ', time=3),
    MetaMessage('lyrics', text='\r', time=0),
    Message('note_on', channel=3, note=73, velocity=61, time=0),
    Message('note_off', channel=0, note=68, velocity=64, time=0),
    Message('note_off', channel=7, note=61, velocity=64, time=6),
    Message('note_on', channel=9, note=46, velocity=78, time=8),
    Message('note_on', channel=7, note=61, velocity=45, time=0),
    Message('note_on', channel=9, note=70, velocity=43, time=1),
    Message('note_off', channel=9, note=46, velocity=64, time=5),
    Message('note_off', channel=9, note=70, velocity=64, time=1),
    Message('note_off', channel=7, note=68, velocity=64, time=3),
    Message('note_off', channel=0, note=63, velocity=64, time=8),
    Message('note_on', channel=9, note=36, velocity=101, time=6),
    Message('note_on', channel=9, note=46, velocity=90, time=0),
    Message('note_on', channel=0, note=68, velocity=80, time=1),
    Message('note_on', channel=9, note=70, velocity=71, time=0),
    Message('note_on', channel=1, note=37, velocity=115, time=1),
    Message('note_off', channel=9, note=46, velocity=64, time=4),
    Message('note_off', channel=9, note=36, velocity=64, time=0),
    Message('note_off', channel=9, note=70, velocity=64, time=1),
    Message('note_off', channel=7, note=63, velocity=64, time=11),
    Message('note_on', channel=7, note=68, velocity=44, time=7),
    Message('note_on', channel=9, note=70, velocity=36, time=0),
    Message('note_off', channel=9, note=70, velocity=64, time=6),
    Message('note_off', channel=0, note=49, velocity=64, time=3),
    Message('note_off', channel=1, note=37, velocity=64, time=7),
    Message('note_on', channel=9, note=46, velocity=71, time=7),
    Message('note_on', channel=9, note=70, velocity=43, time=1),
    Message('note_on', channel=0, note=49, velocity=89, time=1),
    Message('note_off', channel=9, note=46, velocity=64, time=4),
    Message('note_off', channel=9, note=70, velocity=64, time=1),
    Message('note_off', channel=7, note=49, velocity=64, time=3),
    Message('note_on', channel=9, note=46, velocity=75, time=14),
    Message('note_on', channel=9, note=70, velocity=58, time=1),
    Message('note_on', channel=7, note=49, velocity=53, time=1),
    Message('note_off', channel=9, note=46, velocity=64, time=4),
    Message('note_off', channel=9, note=70, velocity=64, time=1),
    Message('note_off', channel=0, note=61, velocity=64, time=8),
    Message('note_on', channel=9, note=36, velocity=101, time=9),
    Message('note_on', channel=9, note=46, velocity=90, time=0),
    Message('note_on', channel=1, note=37, velocity=111, time=1),
    Message('note_on', channel=9, note=70, velocity=61, time=0),
    Message('note_on', channel=0, note=61, velocity=80, time=2),
    Message('note_off', channel=9, note=46, velocity=64, time=3),
    Message('note_off', channel=9, note=36, velocity=64, time=0),
    Message('note_off', channel=9, note=70, velocity=64, time=1),
    Message('note_off', channel=7, note=61, velocity=64, time=8),
    Message('note_on', channel=9, note=70, velocity=34, time=10),
    Message('note_on', channel=7, note=61, velocity=44, time=2),
    Message('note_off', channel=9, note=70, velocity=64, time=4),
    Message('note_off', channel=0, note=68, velocity=64, time=6),
    Message('note_on', channel=9, note=70, velocity=47, time=12),
    Message('note_off', channel=1, note=37, velocity=64, time=1),
    Message('note_on', channel=0, note=68, velocity=83, time=1),
    Message('note_off', channel=9, note=70, velocity=64, time=4),
    Message('note_off', channel=7, note=68, velocity=64, time=6),
    Message('note_on', channel=9, note=46, velocity=60, time=11),
    Message('note_on', channel=1, note=32, velocity=101, time=0),
    Message('note_on', channel=9, note=70, velocity=65, time=1),
    Message('note_on', channel=7, note=68, velocity=47, time=2),
    Message('note_off', channel=9, note=46, velocity=64, time=3),
    Message('note_off', channel=9, note=70, velocity=64, time=1),
    Message('note_off', channel=1, note=32, velocity=64, time=4),
    Message('note_on', channel=9, note=36, velocity=101, time=13),
    Message('note_on', channel=9, note=46, velocity=87, time=0),
    Message('note_on', channel=1, note=34, velocity=98, time=0),
    Message('note_off', channel=0, note=49, velocity=64, time=0),
    Message('note_on', channel=9, note=70, velocity=67, time=1),
    Message('note_off', channel=3, note=73, velocity=64, time=1),
    Message('note_on', channel=0, note=49, velocity=75, time=1),
    Message('note_off', channel=9, note=46, velocity=64, time=3),
    Message('note_off', channel=9, note=36, velocity=64, time=0),
    MetaMessage('lyrics', text='\n', time=1),
    Message('note_off', channel=9, note=70, velocity=64, time=0),
    Message('note_on', channel=9, note=46, velocity=61, time=17),
    Message('note_off', channel=7, note=49, velocity=64, time=0),
    Message('note_on', channel=9, note=70, velocity=36, time=1),
    Message('note_on', channel=7, note=49, velocity=39, time=2),
    Message('note_off', channel=9, note=46, velocity=64, time=3),
    Message('note_off', channel=9, note=70, velocity=64, time=1),
    Message('note_off', channel=0, note=61, velocity=64, time=6),
    Message('note_on', channel=9, note=46, velocity=78, time=11),
    Message('note_on', channel=1, note=37, velocity=111, time=0),
    Message('note_off', channel=1, note=34, velocity=64, time=1),
    Message('note_on', channel=0, note=61, velocity=75, time=0),
    Message('note_on', channel=9, note=70, velocity=43, time=0),
    Message('note_off', channel=9, note=46, velocity=64, time=5),
    Message('note_off', channel=9, note=70, velocity=64, time=1),
    Message('note_off', channel=7, note=61, velocity=64, time=6),
    Message('note_on', channel=9, note=46, velocity=84, time=11),
    Message('note_on', channel=7, note=61, velocity=39, time=1),
    Message('note_on', channel=9, note=70, velocity=71, time=0),
    Message('note_off', channel=9, note=46, velocity=64, time=5),
    Message('note_off', channel=9, note=70, velocity=64, time=1),
    Message('note_off', channel=1, note=37, velocity=64, time=4),
    Message('note_on', channel=9, note=36, velocity=101, time=13),
    Message('note_on', channel=9, note=46, velocity=101, time=0),
    Message('note_on', channel=1, note=37, velocity=109, time=0),
    Message('note_off', channel=0, note=49, velocity=64, time=0),
    Message('note_on', channel=9, note=70, velocity=77, time=1),
    Message('note_on', channel=0, note=49, velocity=95, time=1),
    Message('note_off', channel=9, note=46, velocity=64, time=4),
    Message('note_off', channel=9, note=36, velocity=64, time=0),
    Message('note_off', channel=9, note=70, velocity=64, time=1),
    Message('note_off', channel=7, note=49, velocity=64, time=17),
    Message('note_on', channel=9, note=70, velocity=32, time=1),
    Message('note_on', channel=7, note=49, velocity=58, time=1),
    Message('note_off', channel=9, note=70, velocity=64, time=5),
    Message('note_off', channel=0, note=68, velocity=64, time=1),
    Message('note_off', channel=0, note=61, velocity=64, time=9),
    Message('note_off', channel=1, note=37, velocity=64, time=5),
    Message('note_on', channel=9, note=46, velocity=71, time=2),
    Message('note_on', channel=9, note=70, velocity=44, time=1),
    Message('note_on', channel=0, note=61, velocity=80, time=1),
    Message('note_off', channel=4, note=65, velocity=64, time=1),
    Message('note_off', channel=4, note=61, velocity=64, time=0),
    Message('note_off', channel=4, note=56, velocity=64, time=0),
    Message('note_off', channel=9, note=46, velocity=64, time=3),
    Message('note_off', channel=9, note=70, velocity=64, time=1),
    Message('note_off', channel=7, note=68, velocity=64, time=1),
    Message('note_off', channel=7, note=61, velocity=64, time=9),
    Message('note_on', channel=9, note=46, velocity=71, time=7),
    Message('note_on', channel=9, note=70, velocity=58, time=1),
    Message('note_on', channel=7, note=61, velocity=44, time=1),
    Message('note_off', channel=9, note=46, velocity=64, time=4),
    Message('note_off', channel=9, note=70, velocity=64, time=1),
    Message('note_on', channel=9, note=36, velocity=101, time=17),
    Message('note_on', channel=9, note=46, velocity=93, time=0),
    Message('note_on', channel=1, note=37, velocity=117, time=0),
    Message('note_on', channel=9, note=70, velocity=80, time=1),
    Message('note_on', channel=0, note=68, velocity=79, time=2),
    Message('note_off', channel=9, note=46, velocity=64, time=3),
    Message('note_off', channel=9, note=36, velocity=64, time=0),
    Message('note_off', channel=9, note=70, velocity=64, time=1),
    Message('note_on', channel=9, note=70, velocity=38, time=18),
    Message('note_on', channel=7, note=68, velocity=42, time=2),
    Message('note_off', channel=9, note=70, velocity=64, time=4),
    Message('note_off', channel=0, note=49, velocity=64, time=11),
    Message('note_on', channel=9, note=46, velocity=63, time=6),
    Message('note_on', channel=9, note=70, velocity=51, time=1),
    Message('note_on', channel=0, note=49, velocity=88, time=1),
    Message('note_off', channel=9, note=46, velocity=64, time=4),
    Message('note_off', channel=9, note=70, velocity=64, time=1),
    Message('note_off', channel=7, note=49, velocity=64, time=11),
    Message('note_off', channel=1, note=37, velocity=64, time=1),
    Message('note_on', channel=9, note=46, velocity=63, time=5),
    Message('note_on', channel=9, note=70, velocity=51, time=1),
    Message('note_on', channel=9, note=38, velocity=69, time=1),
    Message('note_on', channel=7, note=49, velocity=52, time=0),
    Message('note_off', channel=9, note=46, velocity=64, time=4),
    Message('note_off', channel=9, note=70, velocity=64, time=1),
    Message('note_off', channel=9, note=38, velocity=64, time=1),
    Message('note_off', channel=0, note=61, velocity=64, time=8),
    Message('note_on', channel=1, note=37, velocity=111, time=8),
    Message('note_on', channel=9, note=70, velocity=80, time=1),
    Message('note_on', channel=9, note=36, velocity=101, time=1),
    Message('note_on', channel=0, note=61, velocity=87, time=1),
    Message('note_off', channel=9, note=70, velocity=64, time=4),
    Message('note_off', channel=9, note=36, velocity=64, time=1),
    Message('note_off', channel=7, note=61, velocity=64, time=8),
    Message('note_on', channel=9, note=46, velocity=53, time=8),
    Message('note_on', channel=9, note=70, velocity=43, time=1),
    Message('note_on', channel=7, note=61, velocity=50, time=2),
    Message('note_off', channel=9, note=46, velocity=64, time=3),
    Message('note_off', channel=9, note=70, velocity=64, time=1),
    Message('note_off', channel=0, note=68, velocity=64, time=3),
    MetaMessage('lyrics', text='But ', time=11),
    Message('note_on', channel=3, note=73, velocity=56, time=0),
    Message('note_on', channel=4, note=56, velocity=75, time=3),
    Message('note_on', channel=4, note=61, velocity=72, time=0),
    Message('note_on', channel=9, note=46, velocity=87, time=0),
    Message('note_on', channel=0, note=68, velocity=84, time=0),
    Message('note_on', channel=9, note=70, velocity=43, time=1),
    Message('note_on', channel=9, note=36, velocity=94, time=1),
    Message('note_off', channel=9, note=46, velocity=64, time=4),
    Message('note_off', channel=9, note=70, velocity=64, time=1),
    Message('note_off', channel=9, note=36, velocity=64, time=1),
    Message('note_off', channel=7, note=68, velocity=64, time=2),
    Message('note_off', channel=1, note=37, velocity=64, time=4),
    Message('note_on', channel=9, note=46, velocity=75, time=10),
    Message('note_on', channel=7, note=68, velocity=48, time=0),
    Message('note_on', channel=9, note=70, velocity=67, time=1),
    Message('note_on', channel=1, note=32, velocity=96, time=1),
    Message('note_off', channel=9, note=46, velocity=64, time=4),
    Message('note_off', channel=3, note=73, velocity=64, time=1),
    Message('note_off', channel=9, note=70, velocity=64, time=0),
    Message('note_off', channel=1, note=32, velocity=64, time=1),
    Message('note_off', channel=0, note=49, velocity=64, time=13),
    MetaMessage('lyrics', text='I ', time=1),
    Message('note_on', channel=3, note=73, velocity=93, time=0),
    Message('note_off', channel=4, note=61, velocity=64, time=1),
    Message('note_off', channel=4, note=56, velocity=64, time=0),
    Message('note_on', channel=4, note=56, velocity=72, time=1),
    Message('note_on', channel=4, note=61, velocity=77, time=0),
    Message('note_on', channel=9, note=46, velocity=101, time=0),
    Message('note_on', channel=1, note=34, velocity=106, time=0),
    Message('note_on', channel=9, note=70, velocity=83, time=1),
    Message('note_on', channel=9, note=38, velocity=101, time=1),
    Message('note_on', channel=9, note=36, velocity=101, time=0),
    Message('note_on', channel=0, note=49, velocity=85, time=1),
    Message('note_off', channel=9, note=46, velocity=64, time=3),
    Message('note_off', channel=9, note=70, velocity=64, time=1),
    Message('note_off', channel=9, note=36, velocity=64, time=1),
    Message('note_off', channel=9, note=38, velocity=64, time=0),
    Message('note_off', channel=7, note=49, velocity=64, time=13),
    Message('note_on', channel=9, note=70, velocity=22, time=4),
    Message('note_on', channel=7, note=49, velocity=49, time=2),
    Message('note_off', channel=9, note=70, velocity=64, time=4),
    Message('note_off', channel=1, note=34, velocity=64, time=10),
    Message('note_off', channel=0, note=61, velocity=64, time=2),
    Message('note_off', channel=3, note=73, velocity=64, time=1),
    Message('note_off', channel=4, note=61, velocity=64, time=3),
    Message('note_off', channel=4, note=56, velocity=64, time=0),
    Message('note_on', channel=4, note=60, velocity=51, time=0),
    Message('note_on', channel=4, note=56, velocity=72, time=1),
    Message('note_on', channel=4, note=63, velocity=75, time=0),
    Message('note_on', channel=9, note=46, velocity=75, time=0),
    Message('note_on', channel=1, note=37, velocity=122, time=0),
    MetaMessage('lyrics', text='still ', time=1),
    Message('note_on', channel=3, note=80, velocity=93, time=0),
    Message('note_on', channel=9, note=70, velocity=58, time=0),
    Message('note_on', channel=0, note=61, velocity=83, time=2),
    Message('note_off', channel=9, note=46, velocity=64, time=3),
    Message('note_off', channel=9, note=70, velocity=64, time=1),
    Message('note_off', channel=7, note=61, velocity=64, time=12),
    Message('note_off', channel=6, note=56, velocity=64, time=4),
    Message('note_on', channel=9, note=46, velocity=84, time=2),
    Message('note_on', channel=9, note=70, velocity=75, time=0),
    Message('note_off', channel=6, note=61, velocity=64, time=1),
    Message('note_on', channel=7, note=61, velocity=47, time=1),
    Message('note_off', channel=9, note=46, velocity=64, time=4),
    Message('note_off', channel=9, note=70, velocity=64, time=0),
    Message('note_off', channel=0, note=68, velocity=64, time=5),
    Message('note_off', channel=1, note=37, velocity=64, time=5),
    Message('note_off', channel=0, note=49, velocity=64, time=6),
    Message('note_off', channel=0, note=54, velocity=64, time=0),
    Message('note_off', channel=0, note=61, velocity=64, time=0),
    Message('note_on', channel=6, note=61, velocity=49, time=1),
    Message('note_on', channel=6, note=63, velocity=49, time=0),
    Message('note_on', channel=6, note=68, velocity=49, time=0),
    Message('pitchwheel', channel=0, pitch=103, time=0),
    Message('note_on', channel=9, note=36, velocity=101, time=1),
    Message('note_on', channel=1, note=32, velocity=112, time=0),
    Message('note_on', channel=9, note=70, velocity=51, time=0),
    Message('note_on', channel=9, note=46, velocity=93, time=1),
    Message('note_on', channel=0, note=56, velocity=99, time=0),
    Message('pitchwheel', channel=0, pitch=-175, time=1),
    Message('note_off', channel=9, note=36, velocity=64, time=4),
    Message('note_off', channel=9, note=70, velocity=64, time=0),
    Message('note_off', channel=9, note=46, velocity=64, time=1),
    Message('note_off', channel=7, note=68, velocity=64, time=4),
    Message('note_off', channel=7, note=49, velocity=64, time=11),
    Message('note_off', channel=7, note=54, velocity=64, time=0),
    Message('note_off', channel=7, note=61, velocity=64, time=0),
    Message('pitchwheel', channel=7, pitch=103, time=1),
    Message('note_on', channel=9, note=70, velocity=21, time=1),
    Message('note_on', channel=7, note=56, velocity=63, time=1),
    Message('pitchwheel', channel=7, pitch=-175, time=1),
    Message('note_off', channel=9, note=70, velocity=64, time=4),
    Message('pitchwheel', channel=0, pitch=0, time=16),
    Message('note_on', channel=0, note=63, velocity=100, time=2),
    Message('note_on', channel=9, note=70, velocity=42, time=0),
    Message('note_on', channel=9, note=46, velocity=75, time=1),
    Message('note_off', channel=9, note=70, velocity=64, time=5),
    Message('note_off', channel=9, note=46, velocity=64, time=1),
    Message('pitchwheel', channel=7, pitch=0, time=15),
    Message('note_on', channel=7, note=63, velocity=64, time=2),
    Message('note_on', channel=9, note=70, velocity=43, time=0),
    Message('note_on', channel=9, note=46, velocity=65, time=1),
    Message('note_off', channel=9, note=70, velocity=64, time=5),
    Message('note_off', channel=9, note=46, velocity=64, time=1),
    Message('note_off', channel=1, note=32, velocity=64, time=13),
    Message('note_on', channel=9, note=36, velocity=101, time=3),
    Message('note_on', channel=1, note=29, velocity=101, time=0),
    Message('note_on', channel=9, note=70, velocity=71, time=1),
    Message('note_on', channel=9, note=46, velocity=58, time=1),
    Message('note_on', channel=0, note=68, velocity=79, time=0),
    Message('note_off', channel=9, note=36, velocity=64, time=4),
    Message('note_off', channel=9, note=70, velocity=64, time=1),
    Message('note_off', channel=9, note=46, velocity=64, time=1),
    Message('note_on', channel=9, note=70, velocity=36, time=17),
    Message('note_on', channel=9, note=46, velocity=71, time=1),
    Message('note_on', channel=7, note=68, velocity=42, time=0),
    Message('note_off', channel=9, note=70, velocity=64, time=5),
    Message('note_off', channel=9, note=46, velocity=64, time=1),
    Message('note_off', channel=0, note=56, velocity=64, time=4),
    Message('note_off', channel=3, note=80, velocity=64, time=3),
    Message('note_off', channel=1, note=29, velocity=64, time=5),
    Message('note_on', channel=0, note=56, velocity=93, time=3),
    Message('note_on', channel=1, note=32, velocity=116, time=1),
    Message('note_on', channel=9, note=70, velocity=43, time=1),
    Message('note_on', channel=9, note=46, velocity=101, time=1),
    Message('note_off', channel=9, note=70, velocity=64, time=5),
    Message('note_off', channel=9, note=46, velocity=64, time=1),
    Message('note_off', channel=7, note=56, velocity=64, time=4),
    Message('note_on', channel=7, note=56, velocity=57, time=11),
    Message('note_on', channel=9, note=70, velocity=58, time=2),
    Message('note_off', channel=9, note=70, velocity=64, time=6),
    Message('note_off', channel=0, note=63, velocity=64, time=6),
    Message('note_on', channel=0, note=63, velocity=105, time=11),
    Message('note_on', channel=9, note=70, velocity=61, time=1),
    Message('note_on', channel=9, note=36, velocity=101, time=1),
    Message('note_off', channel=9, note=70, velocity=64, time=5),
    Message('note_off', channel=9, note=36, velocity=64, time=1),
    Message('note_off', channel=7, note=63, velocity=64, time=5),
    Message('note_on', channel=7, note=63, velocity=69, time=11),
    Message('note_on', channel=9, note=70, velocity=34, time=1),
    Message('note_on', channel=9, note=46, velocity=71, time=1),
    Message('note_off', channel=9, note=70, velocity=64, time=5),
    Message('note_off', channel=9, note=46, velocity=64, time=1),
    Message('note_off', channel=1, note=32, velocity=64, time=8),
    Message('note_off', channel=0, note=68, velocity=64, time=0),
    Message('note_off', channel=4, note=56, velocity=64, time=4),
    Message('note_off', channel=4, note=60, velocity=64, time=0),
    Message('note_off', channel=4, note=63, velocity=64, time=1),
    MetaMessage('lyrics', text='have', time=1),
    Message('note_on', channel=3, note=78, velocity=89, time=0),
    Message('note_on', channel=4, note=61, velocity=63, time=1),
    Message('note_on', channel=4, note=56, velocity=67, time=0),
    Message('note_on', channel=4, note=66, velocity=57, time=0),
    Message('note_on', channel=0, note=68, velocity=75, time=0),
    Message('note_on', channel=1, note=34, velocity=102, time=1),
    Message('note_on', channel=9, note=70, velocity=47, time=1),
    Message('note_on', channel=9, note=46, velocity=58, time=1),
    Message('note_off', channel=9, note=70, velocity=64, time=5),
    Message('note_off', channel=9, note=46, velocity=64, time=1),
    Message('note_off', channel=7, note=68, velocity=64, time=8),
    Message('note_on', channel=7, note=68, velocity=39, time=7),
    Message('note_on', channel=9, note=70, velocity=65, time=2),
    Message('note_on', channel=9, note=46, velocity=71, time=1),
    Message('note_off', channel=9, note=70, velocity=64, time=5),
    Message('note_off', channel=9, note=46, velocity=64, time=1),
    Message('note_off', channel=0, note=56, velocity=64, time=10),
    Message('note_off', channel=3, note=78, velocity=64, time=4),
    Message('note_off', channel=4, note=66, velocity=64, time=0),
    Message('note_off', channel=4, note=56, velocity=64, time=0),
    Message('note_off', channel=4, note=61, velocity=64, time=0),
    MetaMessage('lyrics', text="n't ", time=1),
    Message('note_on', channel=3, note=77, velocity=81, time=0),
    Message('note_on', channel=4, note=66, velocity=75, time=0),
    Message('note_on', channel=4, note=61, velocity=75, time=0),
    Message('note_on', channel=4, note=56, velocity=79, time=0),
    Message('note_on', channel=0, note=56, velocity=92, time=1),
    Message('note_on', channel=9, note=38, velocity=101, time=1),
    Message('note_on', channel=9, note=46, velocity=101, time=0),
    Message('note_on', channel=1, note=36, velocity=118, time=0),
    Message('note_on', channel=9, note=70, velocity=67, time=0),
    Message('note_on', channel=9, note=36, velocity=101, time=1),
    Message('note_off', channel=1, note=34, velocity=64, time=3),
    Message('note_off', channel=9, note=46, velocity=64, time=2),
    Message('note_off', channel=9, note=38, velocity=64, time=0),
    Message('note_off', channel=9, note=70, velocity=64, time=0),
    Message('note_off', channel=9, note=36, velocity=64, time=1),
    Message('note_off', channel=7, note=56, velocity=64, time=10),
    Message('note_on', channel=7, note=56, velocity=56, time=6),
    Message('note_on', channel=9, note=70, velocity=36, time=1),
    Message('note_off', channel=9, note=70, velocity=64, time=6),
    Message('note_off', channel=1, note=36, velocity=64, time=5),
    Message('note_off', channel=0, note=68, velocity=64, time=2),
    Message('note_off', channel=3, note=77, velocity=64, time=7),
    Message('note_off', channel=4, note=56, velocity=64, time=2),
    Message('note_off', channel=4, note=61, velocity=64, time=0),
    Message('note_off', channel=4, note=66, velocity=64, time=0),
    MetaMessage('lyrics', text='found ', time=1),
    MetaMessage('lyrics', text='\r', time=0),
    Message('note_on', channel=3, note=73, velocity=79, time=0),
    Message('note_on', channel=4, note=56, velocity=81, time=0),
    Message('note_on', channel=4, note=65, velocity=82, time=0),
    Message('note_on', channel=4, note=61, velocity=74, time=0),
    Message('note_on', channel=9, note=46, velocity=71, time=0),
    Message('note_on', channel=1, note=37, velocity=121, time=0),
    Message('note_on', channel=9, note=70, velocity=43, time=1),
    Message('note_on', channel=0, note=68, velocity=72, time=1),
    Message('note_off', channel=9, note=46, velocity=64, time=4),
    Message('note_off', channel=9, note=70, velocity=64, time=1),
    Message('note_off', channel=7, note=68, velocity=64, time=7),
    Message('note_on', channel=9, note=46, velocity=71, time=10),
    Message('note_on', channel=9, note=70, velocity=71, time=1),
    Message('note_on', channel=7, note=68, velocity=36, time=1),
    Message('note_off', channel=9, note=46, velocity=64, time=4),
    Message('note_off', channel=9, note=70, velocity=64, time=1),
    Message('note_off', channel=0, note=56, velocity=64, time=11),
    Message('note_off', channel=1, note=37, velocity=64, time=2),
    Message('note_off', channel=4, note=56, velocity=64, time=4),
    Message('note_on', channel=4, note=58, velocity=76, time=0),
    Message('note_on', channel=1, note=30, velocity=106, time=0),
    Message('note_on', channel=9, note=46, velocity=93, time=1),
    Message('note_on', channel=0, note=54, velocity=101, time=0),
    Message('note_on', channel=9, note=70, velocity=77, time=0),
    Message('note_on', channel=9, note=36, velocity=101, time=1),
    Message('note_off', channel=9, note=46, velocity=64, time=5),
    Message('note_off', channel=9, note=70, velocity=64, time=0),
    Message('note_off', channel=9, note=36, velocity=64, time=1),
    Message('note_off', channel=7, note=56, velocity=64, time=10),
    Message('note_on', channel=7, note=54, velocity=65, time=7),
    Message('note_on', channel=9, note=70, velocity=32, time=0),
    Message('note_off', channel=9, note=70, velocity=64, time=6),
    Message('note_off', channel=0, note=63, velocity=64, time=9),
    Message('note_on', channel=9, note=46, velocity=78, time=8),
    Message('note_on', channel=0, note=63, velocity=89, time=1),
    Message('note_on', channel=9, note=70, velocity=44, time=0),
    Message('note_off', channel=9, note=46, velocity=64, time=5),
    Message('note_off', channel=9, note=70, velocity=64, time=1),
    Message('note_off', channel=7, note=63, velocity=64, time=9),
    Message('note_on', channel=7, note=63, velocity=53, time=9),
    Message('note_on', channel=9, note=70, velocity=58, time=0),
    Message('note_on', channel=9, note=46, velocity=69, time=1),
    Message('note_off', channel=0, note=68, velocity=64, time=3),
    Message('note_off', channel=9, note=70, velocity=64, time=2),
    Message('note_off', channel=9, note=46, velocity=64, time=1),
    Message('note_off', channel=1, note=30, velocity=64, time=11),
    Message('note_on', channel=1, note=29, velocity=112, time=5),
    Message('note_on', channel=0, note=68, velocity=67, time=0),
    Message('note_on', channel=9, note=70, velocity=80, time=1),
    Message('note_on', channel=9, note=36, velocity=101, time=1),
    Message('note_on', channel=9, note=46, velocity=58, time=0),
    Message('note_off', channel=7, note=68, velocity=64, time=3),
    Message('note_off', channel=9, note=70, velocity=64, time=2),
    Message('note_off', channel=9, note=46, velocity=64, time=1),
    Message('note_off', channel=9, note=36, velocity=64, time=0),
    Message('note_on', channel=7, note=68, velocity=31, time=16),
    Message('note_on', channel=9, note=70, velocity=38, time=1),
    Message('note_on', channel=9, note=46, velocity=75, time=1),
    Message('note_off', channel=9, note=70, velocity=64, time=5),
    Message('note_off', channel=9, note=46, velocity=64, time=1),
    Message('note_off', channel=0, note=63, velocity=64, time=5),
    Message('note_on', channel=9, note=46, velocity=101, time=11),
    Message('note_off', channel=1, note=29, velocity=64, time=0),
    Message('note_on', channel=1, note=30, velocity=104, time=0),
    Message('note_on', channel=0, note=63, velocity=80, time=1),
    Message('note_on', channel=9, note=70, velocity=51, time=0),
    Message('note_off', channel=9, note=46, velocity=64, time=5),
    Message('note_off', channel=9, note=70, velocity=64, time=1),
    Message('note_off', channel=3, note=73, velocity=64, time=3),
    Message('note_off', channel=7, note=63, velocity=64, time=3),
    Message('note_off', channel=0, note=63, velocity=64, time=11),
    Message('note_on', channel=7, note=63, velocity=44, time=1),
    Message('note_on', channel=9, note=70, velocity=51, time=0),
    Message('note_on', channel=0, note=63, velocity=85, time=1),
    Message('note_off', channel=9, note=70, velocity=64, time=5),
    Message('note_off', channel=0, note=63, velocity=64, time=16),
    Message('note_off', channel=7, note=63, velocity=64, time=1),
    Message('note_on', channel=9, note=46, velocity=53, time=1),
    Message('note_on', channel=9, note=70, velocity=80, time=0),
    Message('note_on', channel=9, note=36, velocity=101, time=1),
    Message('note_on', channel=7, note=63, velocity=49, time=0),
    Message('note_on', channel=0, note=63, velocity=81, time=2),
    Message('note_off', channel=9, note=46, velocity=64, time=3),
    Message('note_off', channel=9, note=70, velocity=64, time=0),
    Message('note_off', channel=9, note=36, velocity=64, time=1),
    Message('note_off', channel=4, note=65, velocity=64, time=6),
    Message('note_off', channel=4, note=58, velocity=64, time=1),
    Message('note_off', channel=4, note=61, velocity=64, time=1),
    Message('note_off', channel=7, note=63, velocity=64, time=7),
    Message('note_on', channel=9, note=70, velocity=43, time=2),
    Message('note_on', channel=9, note=46, velocity=78, time=1),
    Message('note_on', channel=7, note=63, velocity=45, time=2),
    Message('note_off', channel=9, note=70, velocity=64, time=3),
    Message('note_off', channel=9, note=46, velocity=64, time=1),
    Message('note_off', channel=1, note=30, velocity=64, time=5),
    Message('note_off', channel=0, note=68, velocity=64, time=9),
    MetaMessage('lyrics', text='what ', time=1),
    Message('note_on', channel=3, note=70, velocity=56, time=0),
    Message('note_on', channel=4, note=66, velocity=62, time=0),
    Message('note_on', channel=4, note=61, velocity=70, time=1),
    Message('note_on', channel=4, note=58, velocity=78, time=0),
    Message('note_on', channel=1, note=32, velocity=126, time=0),
    Message('note_on', channel=9, note=46, velocity=57, time=1),
    Message('note_on', channel=9, note=70, velocity=43, time=0),
    Message('note_on', channel=9, note=36, velocity=91, time=1),
    Message('note_on', channel=0, note=68, velocity=87, time=1),
    Message('note_off', channel=9, note=46, velocity=64, time=4),
    Message('note_off', channel=9, note=70, velocity=64, time=0),
    Message('note_off', channel=9, note=36, velocity=64, time=1),
    Message('note_off', channel=7, note=68, velocity=64, time=14),
    Message('note_on', channel=9, note=46, velocity=75, time=2),
    Message('note_on', channel=9, note=70, velocity=67, time=1),
    Message('note_on', channel=7, note=68, velocity=50, time=2),
    Message('note_off', channel=9, note=46, velocity=64, time=3),
    Message('note_off', channel=9, note=70, velocity=64, time=1),
    Message('note_off', channel=3, note=70, velocity=64, time=8),
    Message('note_off', channel=1, note=32, velocity=64, time=3),
    Message('note_off', channel=0, note=54, velocity=64, time=3),
    Message('note_on', channel=9, note=46, velocity=97, time=3),
    Message('note_on', channel=1, note=34, velocity=113, time=0),
    Message('note_off', channel=4, note=58, velocity=64, time=1),
    Message('note_off', channel=4, note=61, velocity=64, time=0),
    Message('note_off', channel=4, note=66, velocity=64, time=0),
    Message('note_on', channel=9, note=70, velocity=83, time=0),
    MetaMessage('lyrics', text="I'm ", time=1),
    Message('note_on', channel=3, note=70, velocity=78, time=0),
    Message('note_on', channel=4, note=58, velocity=80, time=0),
    Message('note_on', channel=4, note=61, velocity=82, time=0),
    Message('note_on', channel=4, note=66, velocity=80, time=0),
    Message('note_on', channel=9, note=38, velocity=101, time=0),
    Message('note_on', channel=9, note=36, velocity=101, time=0),
    Message('note_on', channel=0, note=54, velocity=97, time=1),
    Message('note_off', channel=9, note=46, velocity=64, time=3),
    Message('note_off', channel=9, note=70, velocity=64, time=1),
    Message('note_off', channel=9, note=36, velocity=64, time=1),
    Message('note_off', channel=9, note=38, velocity=64, time=0),
    Message('note_off', channel=7, note=54, velocity=64, time=13),
    Message('note_on', channel=9, note=70, velocity=22, time=4),
    Message('note_on', channel=7, note=54, velocity=61, time=2),
    Message('note_off', channel=9, note=70, velocity=64, time=4),
    Message('note_off', channel=3, note=70, velocity=64, time=5),
    Message('note_off', channel=1, note=34, velocity=64, time=5),
    Message('note_off', channel=4, note=66, velocity=64, time=5),
    Message('note_off', channel=4, note=61, velocity=64, time=0),
    Message('note_off', channel=4, note=58, velocity=64, time=0),
    MetaMessage('lyrics', text='look', time=2),
    Message('note_on', channel=3, note=70, velocity=90, time=0),
    Message('note_on', channel=4, note=66, velocity=86, time=0),
    Message('note_on', channel=4, note=61, velocity=82, time=0),
    Message('note_on', channel=4, note=58, velocity=82, time=0),
    Message('note_on', channel=9, note=46, velocity=71, time=0),
    Message('note_on', channel=1, note=36, velocity=113, time=0),
    Message('note_on', channel=0, note=61, velocity=83, time=0),
    Message('note_on', channel=9, note=70, velocity=58, time=1),
    Message('note_off', channel=9, note=46, velocity=64, time=5),
    Message('note_off', channel=9, note=70, velocity=64, time=1),
    Message('note_on', channel=9, note=46, velocity=81, time=17),
    Message('note_on', channel=7, note=61, velocity=47, time=0),
    Message('note_on', channel=9, note=70, velocity=75, time=1),
    Message('note_off', channel=9, note=46, velocity=64, time=5),
    Message('note_off', channel=9, note=70, velocity=64, time=1),
    Message('note_off', channel=6, note=68, velocity=64, time=1),
    Message('note_off', channel=6, note=61, velocity=64, time=7),
    Message('note_off', channel=1, note=36, velocity=64, time=2),
    Message('note_off', channel=6, note=63, velocity=64, time=0),
    Message('note_on', channel=6, note=56, velocity=41, time=6),
    Message('note_on', channel=6, note=61, velocity=48, time=0),
    Message('note_off', channel=4, note=58, velocity=64, time=1),
    Message('note_off', channel=4, note=66, velocity=64, time=0),
    Message('note_on', channel=4, note=65, velocity=75, time=0),
    Message('note_on', channel=4, note=56, velocity=70, time=0),
    Message('note_on', channel=9, note=36, velocity=101, time=0),
    Message('note_on', channel=9, note=46, velocity=87, time=0),
    Message('note_on', channel=1, note=37, velocity=115, time=0),
    Message('note_on', channel=9, note=70, velocity=51, time=1),
    MetaMessage('lyrics', text='ing ', time=3),
    Message('note_off', channel=3, note=70, velocity=64, time=0),
    Message('note_on', channel=3, note=73, velocity=56, time=0),
    Message('note_on', channel=0, note=49, velocity=97, time=0),
    Message('note_off', channel=9, note=46, velocity=64, time=2),
    Message('note_off', channel=9, note=36, velocity=64, time=0),
    Message('note_off', channel=9, note=70, velocity=64, time=1),
    Message('note_on', channel=9, note=70, velocity=21, time=18),
    Message('note_on', channel=9, note=46, velocity=57, time=1),
    Message('note_on', channel=7, note=49, velocity=61, time=2),
    Message('note_off', channel=9, note=70, velocity=64, time=3),
    Message('note_off', channel=9, note=46, velocity=64, time=1),
    Message('note_off', channel=3, note=73, velocity=64, time=5),
    Message('note_off', channel=0, note=61, velocity=64, time=3),
    Message('note_off', channel=4, note=56, velocity=64, time=7),
    Message('note_off', channel=4, note=65, velocity=64, time=0),
    Message('note_off', channel=4, note=61, velocity=64, time=0),
    Message('note_on', channel=4, note=65, velocity=76, time=1),
    Message('note_on', channel=9, note=46, velocity=69, time=0),
    Message('note_off', channel=1, note=37, velocity=64, time=0),
    Message('note_on', channel=0, note=61, velocity=81, time=0),
    Message('note_on', channel=4, note=56, velocity=67, time=1),
    Message('note_on', channel=4, note=61, velocity=54, time=0),
    Message('note_on', channel=9, note=70, velocity=42, time=0),
    MetaMessage('lyrics', text='for. ', time=1),
    MetaMessage('lyrics', text='\r', time=0),
    Message('note_on', channel=3, note=73, velocity=78, time=0),
    Message('note_off', channel=9, note=46, velocity=64, time=4),
    Message('note_off', channel=9, note=70, velocity=64, time=1),
    Message('note_off', channel=0, note=68, velocity=64, time=3),
    Message('note_off', channel=7, note=61, velocity=64, time=6),
    Message('note_on', channel=9, note=46, velocity=84, time=8),
    Message('note_on', channel=7, note=61, velocity=45, time=0),
    Message('note_on', channel=9, note=70, velocity=43, time=1),
    Message('note_off', channel=9, note=46, velocity=64, time=5),
    Message('note_off', channel=9, note=70, velocity=64, time=1),
    Message('note_off', channel=7, note=68, velocity=64, time=3),
    Message('note_off', channel=0, note=63, velocity=64, time=8),
    Message('note_on', channel=9, note=36, velocity=101, time=6),
    Message('note_on', channel=9, note=46, velocity=97, time=0),
    Message('note_on', channel=1, note=37, velocity=109, time=1),
    Message('note_on', channel=0, note=68, velocity=80, time=0),
    Message('note_on', channel=9, note=70, velocity=71, time=0),
    Message('note_off', channel=9, note=46, velocity=64, time=5),
    Message('note_off', channel=9, note=36, velocity=64, time=0),
    Message('note_off', channel=9, note=70, velocity=64, time=1),
    Message('note_off', channel=7, note=63, velocity=64, time=11),
    Message('note_on', channel=7, note=68, velocity=44, time=7),
    Message('note_on', channel=9, note=70, velocity=36, time=0),
    Message('note_off', channel=9, note=70, velocity=64, time=6),
    Message('note_off', channel=0, note=49, velocity=64, time=3),
    Message('note_on', channel=9, note=46, velocity=59, time=14),
    Message('note_on', channel=9, note=70, velocity=43, time=1),
    Message('note_on', channel=0, note=49, velocity=89, time=1),
    Message('note_off', channel=9, note=46, velocity=64, time=4),
    Message('note_off', channel=9, note=70, velocity=64, time=1),
    Message('note_off', channel=7, note=49, velocity=64, time=3),
    Message('note_off', channel=1, note=37, velocity=64, time=13),
    Message('note_on', channel=9, note=46, velocity=78, time=1),
    Message('note_on', channel=9, note=70, velocity=58, time=1),
    Message('note_on', channel=7, note=49, velocity=53, time=1),
    Message('note_off', channel=9, note=46, velocity=64, time=4),
    Message('note_off', channel=9, note=70, velocity=64, time=1),
    Message('note_off', channel=0, note=61, velocity=64, time=8),
    Message('note_on', channel=9, note=36, velocity=101, time=9),
    Message('note_on', channel=9, note=46, velocity=93, time=0),
    Message('note_on', channel=9, note=70, velocity=61, time=1),
    Message('note_on', channel=1, note=37, velocity=108, time=1),
    Message('note_on', channel=0, note=61, velocity=80, time=1),
    Message('note_off', channel=9, note=46, velocity=64, time=3),
    Message('note_off', channel=9, note=36, velocity=64, time=0),
    Message('note_off', channel=9, note=70, velocity=64, time=1),
    Message('note_off', channel=7, note=61, velocity=64, time=8),
    Message('note_on', channel=9, note=70, velocity=34, time=10),
    Message('note_on', channel=7, note=61, velocity=44, time=2),
    Message('note_off', channel=9, note=70, velocity=64, time=4),
    Message('note_off', channel=0, note=68, velocity=64, time=6),
    Message('note_on', channel=9, note=46, velocity=73, time=11),
    Message('note_on', channel=9, note=70, velocity=47, time=1),
    Message('note_off', channel=1, note=37, velocity=64, time=1),
    Message('note_on', channel=0, note=68, velocity=83, time=1),
    Message('note_off', channel=9, note=46, velocity=64, time=3),
    Message('note_off', channel=9, note=70, velocity=64, time=1),
    Message('note_off', channel=7, note=68, velocity=64, time=6),
    Message('note_on', channel=9, note=46, velocity=81, time=11),
    Message('note_on', channel=1, note=32, velocity=99, time=0),
    Message('note_on', channel=9, note=70, velocity=65, time=1),
    Message('note_on', channel=7, note=68, velocity=47, time=2),
    Message('note_off', channel=9, note=46, velocity=64, time=3),
    Message('note_off', channel=9, note=70, velocity=64, time=1),
    Message('note_off', channel=1, note=32, velocity=64, time=6),
    Message('note_on', channel=9, note=36, velocity=101, time=11),
    Message('note_on', channel=9, note=46, velocity=90, time=0),
    Message('note_on', channel=1, note=34, velocity=96, time=0),
    Message('note_off', channel=0, note=49, velocity=64, time=0),
    Message('note_on', channel=9, note=70, velocity=67, time=1),
    Message('note_on', channel=0, note=49, velocity=75, time=2),
    Message('note_off', channel=9, note=46, velocity=64, time=3),
    Message('note_off', channel=9, note=36, velocity=64, time=0),
    Message('note_off', channel=9, note=70, velocity=64, time=1),
    MetaMessage('lyrics', text='\n', time=4),
    Message('note_off', channel=3, note=73, velocity=64, time=4),
    Message('note_off', channel=7, note=49, velocity=64, time=9),
    Message('note_on', channel=9, note=70, velocity=36, time=1),
    Message('note_on', channel=7, note=49, velocity=39, time=2),
    Message('note_off', channel=9, note=70, velocity=64, time=4),
    Message('note_off', channel=0, note=61, velocity=64, time=6),
    Message('note_off', channel=1, note=34, velocity=64, time=4),
    Message('note_on', channel=1, note=37, velocity=118, time=7),
    Message('note_on', channel=0, note=61, velocity=75, time=1),
    Message('note_on', channel=9, note=70, velocity=43, time=0),
    Message('note_off', channel=9, note=70, velocity=64, time=6),
    Message('note_off', channel=7, note=61, velocity=64, time=6),
    Message('note_on', channel=9, note=46, velocity=71, time=11),
    Message('note_on', channel=7, note=61, velocity=39, time=1),
    Message('note_on', channel=9, note=70, velocity=71, time=0),
    Message('note_off', channel=9, note=46, velocity=64, time=5),
    Message('note_off', channel=9, note=70, velocity=64, time=1),
    Message('note_off', channel=1, note=37, velocity=64, time=10),
    Message('note_on', channel=9, note=46, velocity=93, time=7),
    Message('note_off', channel=0, note=49, velocity=64, time=0),
    Message('note_on', channel=1, note=37, velocity=104, time=1),
    Message('note_on', channel=9, note=70, velocity=77, time=0),
    Message('note_on', channel=9, note=36, velocity=101, time=1),
    Message('note_on', channel=0, note=49, velocity=95, time=0),
    Message('note_off', channel=9, note=46, velocity=64, time=4),
    Message('note_off', channel=9, note=70, velocity=64, time=1),
    Message('note_off', channel=9, note=36, velocity=64, time=1),
    Message('note_off', channel=7, note=49, velocity=64, time=16),
    Message('note_on', channel=9, note=70, velocity=32, time=1),
    Message('note_on', channel=7, note=49, velocity=58, time=1),
    Message('note_off', channel=9, note=70, velocity=64, time=5),
    Message('note_off', channel=0, note=68, velocity=64, time=1),
    Message('note_off', channel=0, note=61, velocity=64, time=9),
    Message('note_on', channel=9, note=46, velocity=58, time=7),
    Message('note_off', channel=4, note=61, velocity=64, time=1),
    Message('note_on', channel=9, note=70, velocity=44, time=0),
    Message('note_off', channel=4, note=56, velocity=64, time=1),
    Message('note_off', channel=4, note=65, velocity=64, time=0),
    Message('note_on', channel=0, note=61, velocity=80, time=0),
    Message('note_off', channel=1, note=37, velocity=64, time=2),
    Message('note_off', channel=9, note=46, velocity=64, time=2),
    Message('note_off', channel=9, note=70, velocity=64, time=1),
    Message('note_off', channel=7, note=68, velocity=64, time=1),
    Message('note_off', channel=7, note=61, velocity=64, time=9),
    Message('note_on', channel=9, note=46, velocity=75, time=7),
    Message('note_on', channel=9, note=38, velocity=81, time=1),
    Message('note_on', channel=9, note=70, velocity=58, time=0),
    Message('note_on', channel=7, note=61, velocity=44, time=1),
    Message('note_off', channel=9, note=46, velocity=64, time=4),
    Message('note_off', channel=9, note=38, velocity=64, time=1),
    Message('note_off', channel=9, note=70, velocity=64, time=0),
    Message('note_on', channel=9, note=46, velocity=90, time=17),
    Message('note_on', channel=9, note=70, velocity=80, time=1),
    Message('note_on', channel=9, note=36, velocity=101, time=1),
    Message('note_on', channel=1, note=37, velocity=111, time=0),
    Message('note_on', channel=0, note=68, velocity=79, time=1),
    Message('note_off', channel=9, note=46, velocity=64, time=3),
    Message('note_off', channel=9, note=70, velocity=64, time=1),
    Message('note_off', channel=9, note=36, velocity=64, time=1),
    Message('note_on', channel=9, note=70, velocity=38, time=17),
    Message('note_on', channel=7, note=68, velocity=42, time=2),
    Message('note_off', channel=9, note=70, velocity=64, time=4),
    Message('note_off', channel=0, note=49, velocity=64, time=11),
    Message('note_on', channel=9, note=46, velocity=55, time=6),
    Message('note_on', channel=9, note=70, velocity=51, time=1),
    Message('note_on', channel=0, note=49, velocity=88, time=1),
    Message('note_off', channel=9, note=46, velocity=64, time=4),
    Message('note_off', channel=9, note=70, velocity=64, time=1),
    Message('note_off', channel=1, note=37, velocity=64, time=6),
    Message('note_off', channel=7, note=49, velocity=64, time=5),
    Message('note_on', channel=9, note=46, velocity=81, time=6),
    Message('note_on', channel=9, note=70, velocity=51, time=1),
    Message('note_on', channel=9, note=38, velocity=94, time=1),
    Message('note_on', channel=7, note=49, velocity=52, time=0),
    Message('note_off', channel=9, note=46, velocity=64, time=4),
    Message('note_off', channel=9, note=70, velocity=64, time=1),
    Message('note_off', channel=9, note=38, velocity=64, time=1),
    Message('note_off', channel=0, note=61, velocity=64, time=8),
    Message('note_on', channel=9, note=46, velocity=87, time=8),
    Message('note_on', channel=9, note=70, velocity=80, time=1),
    Message('note_on', channel=9, note=36, velocity=101, time=1),
    Message('note_on', channel=1, note=37, velocity=111, time=0),
    Message('note_on', channel=0, note=61, velocity=87, time=1),
    Message('note_off', channel=9, note=46, velocity=64, time=3),
    Message('note_off', channel=9, note=70, velocity=64, time=1),
    Message('note_off', channel=9, note=36, velocity=64, time=1),
    Message('note_off', channel=7, note=61, velocity=64, time=8),
    Message('note_on', channel=9, note=46, velocity=61, time=8),
    Message('note_on', channel=9, note=70, velocity=43, time=1),
    Message('note_on', channel=7, note=61, velocity=50, time=2),
    Message('note_off', channel=9, note=46, velocity=64, time=3),
    Message('note_off', channel=9, note=70, velocity=64, time=1),
    Message('note_off', channel=0, note=68, velocity=64, time=3),
    Message('note_on', channel=9, note=46, velocity=87, time=14),
    Message('note_on', channel=0, note=68, velocity=84, time=0),
    MetaMessage('lyrics', text='I ', time=1),
    Message('note_on', channel=3, note=77, velocity=86, time=0),
    Message('note_on', channel=9, note=36, velocity=101, time=0),
    Message('note_on', channel=9, note=70, velocity=43, time=0),
    Message('note_off', channel=9, note=46, velocity=64, time=5),
    Message('note_off', channel=1, note=37, velocity=64, time=0),
    Message('note_off', channel=9, note=36, velocity=64, time=1),
    Message('note_off', channel=9, note=70, velocity=64, time=0),
    Message('note_off', channel=7, note=68, velocity=64, time=3),
    Message('note_on', channel=9, note=46, velocity=81, time=14),
    Message('note_on', channel=1, note=32, velocity=98, time=0),
    Message('note_on', channel=7, note=68, velocity=48, time=0),
    Message('note_on', channel=9, note=70, velocity=67, time=1),
    Message('note_off', channel=9, note=46, velocity=64, time=5),
    Message('note_off', channel=9, note=70, velocity=64, time=1),
    Message('note_off', channel=1, note=32, velocity=64, time=6),
    Message('note_off', channel=0, note=49, velocity=64, time=8),
    Message('note_on', channel=1, note=34, velocity=103, time=3),
    Message('note_on', channel=9, note=38, velocity=101, time=1),
    Message('note_on', channel=9, note=46, velocity=101, time=0),
    Message('note_on', channel=9, note=70, velocity=83, time=0),
    Message('note_on', channel=9, note=36, velocity=101, time=1),
    Message('note_on', channel=9, note=55, velocity=96, time=0),
    Message('note_on', channel=0, note=49, velocity=85, time=1),
    Message('note_off', channel=9, note=46, velocity=64, time=4),
    Message('note_off', channel=9, note=38, velocity=64, time=0),
    Message('note_off', channel=9, note=70, velocity=64, time=0),
    Message('note_off', channel=9, note=36, velocity=64, time=1),
    Message('note_off', channel=9, note=55, velocity=64, time=0),
    Message('note_off', channel=3, note=77, velocity=64, time=13),
    Message('note_off', channel=7, note=49, velocity=64, time=0),
    MetaMessage('lyrics', text='have ', time=3),
    Message('note_on', channel=3, note=80, velocity=77, time=0),
    Message('note_on', channel=9, note=70, velocity=22, time=1),
    Message('note_on', channel=7, note=49, velocity=49, time=2),
    Message('note_off', channel=9, note=70, velocity=64, time=4),
    Message('note_off', channel=0, note=61, velocity=64, time=12),
    Message('note_off', channel=1, note=34, velocity=64, time=5),
    Message('note_on', channel=1, note=37, velocity=105, time=0),
    Message('note_on', channel=9, note=70, velocity=58, time=1),
    Message('note_on', channel=9, note=46, velocity=78, time=1),
    Message('note_on', channel=0, note=61, velocity=83, time=1),
    Message('note_off', channel=9, note=70, velocity=64, time=4),
    Message('note_off', channel=9, note=46, velocity=64, time=1),
    Message('note_off', channel=7, note=61, velocity=64, time=11),
    Message('note_on', channel=9, note=46, velocity=87, time=5),
    Message('note_on', channel=9, note=70, velocity=75, time=1),
    Message('note_on', channel=7, note=61, velocity=47, time=2),
    Message('note_off', channel=9, note=46, velocity=64, time=3),
    Message('note_off', channel=9, note=70, velocity=64, time=1),
    Message('note_off', channel=3, note=80, velocity=64, time=1),
    Message('note_off', channel=6, note=61, velocity=64, time=3),
    Message('note_off', channel=6, note=56, velocity=64, time=0),
    Message('note_off', channel=0, note=68, velocity=64, time=1),
    Message('note_off', channel=1, note=37, velocity=64, time=3),
    MetaMessage('lyrics', text='climbed ', time=4),
    Message('note_on', channel=3, note=80, velocity=91, time=0),
    Message('note_off', channel=0, note=49, velocity=64, time=4),
    Message('note_off', channel=0, note=54, velocity=64, time=0),
    Message('note_off', channel=0, note=61, velocity=64, time=0),
    Message('pitchwheel', channel=0, pitch=103, time=1),
    Message('note_on', channel=9, note=70, velocity=51, time=1),
    Message('note_on', channel=1, note=37, velocity=105, time=1),
    Message('note_on', channel=2, note=49, velocity=95, time=0),
    Message('note_on', channel=2, note=56, velocity=61, time=2),
    Message('note_off', channel=9, note=70, velocity=64, time=3),
    Message('pitchwheel', channel=2, pitch=-58, time=1),
    Message('note_off', channel=7, note=68, velocity=64, time=4),
    Message('note_off', channel=7, note=49, velocity=64, time=11),
    Message('note_off', channel=7, note=54, velocity=64, time=0),
    Message('note_off', channel=7, note=61, velocity=64, time=0),
    Message('pitchwheel', channel=7, pitch=103, time=1),
    Message('note_on', channel=9, note=70, velocity=21, time=1),
    Message('note_on', channel=10, note=49, velocity=48, time=1),
    Message('note_on', channel=10, note=56, velocity=18, time=2),
    Message('note_off', channel=9, note=70, velocity=64, time=3),
    Message('pitchwheel', channel=10, pitch=-58, time=1),
    Message('note_on', channel=9, note=42, velocity=47, time=16),
    Message('note_off', channel=2, note=49, velocity=64, time=1),
    Message('note_on', channel=9, note=70, velocity=42, time=0),
    Message('note_off', channel=2, note=56, velocity=64, time=2),
    Message('note_off', channel=9, note=42, velocity=64, time=3),
    Message('note_off', channel=9, note=70, velocity=64, time=1),
    Message('note_off', channel=1, note=37, velocity=64, time=4),
    Message('note_off', channel=3, note=80, velocity=64, time=2),
    Message('note_on', channel=3, note=77, velocity=62, time=8),
    Message('pitchwheel', channel=2, pitch=431, time=0),
    Message('note_on', channel=2, note=49, velocity=91, time=2),
    Message('note_on', channel=2, note=56, velocity=57, time=2),
    Message('note_off', channel=10, note=49, velocity=64, time=0),
    Message('note_on', channel=11, note=49, velocity=31, time=0),
    Message('note_on', channel=9, note=70, velocity=43, time=0),
    Message('note_off', channel=10, note=56, velocity=64, time=2),
    Message('note_on', channel=11, note=56, velocity=16, time=0),
    Message('pitchwheel', channel=11, pitch=-58, time=4),
    Message('note_off', channel=9, note=70, velocity=64, time=0),
    Message('note_off', channel=2, note=49, velocity=64, time=8),
    Message('note_off', channel=2, note=56, velocity=64, time=2),
    Message('pitchwheel', channel=10, pitch=431, time=4),
    Message('note_on', channel=10, note=49, velocity=44, time=2),
    Message('note_on', channel=9, note=46, velocity=75, time=1),
    Message('note_on', channel=10, note=56, velocity=16, time=1),
    Message('note_on', channel=9, note=70, velocity=71, time=0),
    Message('note_off', channel=9, note=46, velocity=64, time=5),
    Message('note_off', channel=9, note=70, velocity=64, time=1),
    Message('note_off', channel=10, note=49, velocity=64, time=5),
    Message('note_off', channel=10, note=56, velocity=64, time=2),
    Message('note_off', channel=11, note=49, velocity=64, time=10),
    Message('note_on', channel=9, note=70, velocity=36, time=1),
    Message('note_off', channel=11, note=56, velocity=64, time=1),
    Message('note_off', channel=9, note=70, velocity=64, time=5),
    Message('note_off', channel=3, note=77, velocity=64, time=7),
    Message('pitchwheel', channel=11, pitch=431, time=6),
    Message('note_on', channel=11, note=49, velocity=28, time=2),
    Message('note_on', channel=2, note=49, velocity=109, time=1),
    Message('note_on', channel=2, note=56, velocity=75, time=2),
    Message('note_on', channel=9, note=70, velocity=43, time=0),
    Message('note_off', channel=9, note=70, velocity=64, time=6),
    Message('note_off', channel=11, note=49, velocity=64, time=4),
    Message('note_on', channel=10, note=49, velocity=60, time=12),
    Message('note_on', channel=10, note=56, velocity=30, time=2),
    Message('note_on', channel=9, note=70, velocity=58, time=0),
    Message('note_off', channel=9, note=70, velocity=64, time=6),
    Message('note_off', channel=2, note=49, velocity=64, time=16),
    Message('note_on', channel=9, note=42, velocity=42, time=1),
    Message('note_on', channel=2, note=49, velocity=95, time=0),
    Message('note_off', channel=2, note=56, velocity=64, time=1),
    Message('note_on', channel=9, note=70, velocity=61, time=0),
    Message('note_on', channel=2, note=56, velocity=61, time=1),
    Message('note_off', channel=9, note=42, velocity=64, time=4),
    Message('note_off', channel=9, note=70, velocity=64, time=1),
    Message('note_on', channel=11, note=49, velocity=43, time=15),
    Message('note_off', channel=10, note=49, velocity=64, time=1),
    Message('note_on', channel=10, note=49, velocity=48, time=1),
    Message('note_on', channel=11, note=56, velocity=16, time=0),
    Message('note_off', channel=10, note=56, velocity=64, time=1),
    Message('note_on', channel=9, note=70, velocity=34, time=0),
    Message('note_on', channel=10, note=56, velocity=18, time=1),
    Message('note_off', channel=9, note=70, velocity=64, time=5),
    Message('note_off', channel=2, note=49, velocity=64, time=16),
    MetaMessage('lyrics', text='high', time=1),
    Message('note_on', channel=3, note=82, velocity=82, time=0),
    Message('note_on', channel=9, note=42, velocity=58, time=0),
    Message('note_off', channel=2, note=56, velocity=64, time=1),
    Message('note_on', channel=9, note=70, velocity=47, time=0),
    Message('pitchwheel', channel=2, pitch=575, time=2),
    Message('note_on', channel=2, note=49, velocity=39, time=0),
    Message('note_on', channel=2, note=56, velocity=23, time=2),
    Message('note_off', channel=9, note=42, velocity=64, time=1),
    Message('note_off', channel=9, note=70, velocity=64, time=1),
    Message('note_off', channel=11, note=49, velocity=64, time=15),
    Message('note_off', channel=10, note=49, velocity=64, time=1),
    Message('note_on', channel=11, note=49, velocity=31, time=0),
    Message('note_off', channel=11, note=56, velocity=64, time=1),
    Message('note_off', channel=10, note=56, velocity=64, time=1),
    Message('note_on', channel=11, note=56, velocity=16, time=0),
    Message('note_on', channel=9, note=70, velocity=65, time=0),
    Message('pitchwheel', channel=10, pitch=575, time=2),
    Message('note_off', channel=9, note=70, velocity=64, time=4),
    Message('pitchwheel', channel=2, pitch=367, time=5),
    Message('note_off', channel=2, note=49, velocity=64, time=10),
    Message('note_on', channel=9, note=46, velocity=65, time=2),
    Message('note_off', channel=2, note=56, velocity=64, time=0),
    Message('note_on', channel=9, note=70, velocity=67, time=1),
    Message('pitchwheel', channel=2, pitch=431, time=1),
    Message('note_on', channel=2, note=49, velocity=99, time=0),
    Message('note_on', channel=2, note=56, velocity=65, time=2),
    Message('note_off', channel=9, note=46, velocity=64, time=2),
    Message('note_off', channel=9, note=70, velocity=64, time=1),
    Message('pitchwheel', channel=10, pitch=367, time=5),
    Message('note_off', channel=2, note=49, velocity=64, time=5),
    Message('note_off', channel=2, note=56, velocity=64, time=2),
    Message('note_off', channel=3, note=82, velocity=64, time=3),
    Message('note_off', channel=11, note=49, velocity=64, time=0),
    Message('note_off', channel=11, note=56, velocity=64, time=2),
    Message('note_on', channel=9, note=70, velocity=36, time=1),
    Message('pitchwheel', channel=10, pitch=431, time=1),
    Message('note_on', channel=10, note=49, velocity=51, time=0),
    Message('pitchwheel', channel=11, pitch=575, time=0),
    Message('note_on', channel=10, note=56, velocity=22, time=2),
    MetaMessage('lyrics', text='est ', time=1),
    Message('note_on', channel=3, note=80, velocity=79, time=0),
    Message('note_off', channel=9, note=70, velocity=64, time=2),
    Message('note_off', channel=10, note=49, velocity=64, time=10),
    Message('note_off', channel=10, note=56, velocity=64, time=2),
    Message('note_on', channel=9, note=42, velocity=42, time=5),
    Message('note_on', channel=2, note=49, velocity=93, time=1),
    Message('note_on', channel=9, note=70, velocity=43, time=0),
    Message('note_on', channel=2, note=56, velocity=59, time=2),
    Message('note_off', channel=9, note=42, velocity=64, time=3),
    Message('note_off', channel=9, note=70, velocity=64, time=1),
    Message('pitchwheel', channel=11, pitch=367, time=4),
    Message('note_on', channel=10, note=49, velocity=46, time=14),
    Message('pitchwheel', channel=11, pitch=431, time=0),
    Message('note_on', channel=11, note=49, velocity=35, time=0),
    Message('note_on', channel=9, note=70, velocity=71, time=0),
    Message('note_on', channel=10, note=56, velocity=17, time=2),
    Message('note_on', channel=11, note=56, velocity=16, time=0),
    Message('note_off', channel=9, note=70, velocity=64, time=4),
    Message('note_off', channel=3, note=80, velocity=64, time=4),
    Message('note_off', channel=11, note=49, velocity=64, time=5),
    Message('note_off', channel=11, note=56, velocity=64, time=2),
    MetaMessage('lyrics', text='moun', time=2),
    Message('note_on', channel=3, note=80, velocity=74, time=0),
    Message('note_off', channel=2, note=49, velocity=64, time=1),
    Message('note_off', channel=2, note=56, velocity=64, time=2),
    Message('note_on', channel=2, note=49, velocity=96, time=2),
    Message('note_on', channel=9, note=70, velocity=77, time=0),
    Message('note_on', channel=2, note=56, velocity=62, time=2),
    Message('note_off', channel=9, note=70, velocity=64, time=4),
    Message('note_off', channel=10, note=49, velocity=64, time=14),
    Message('note_off', channel=10, note=56, velocity=64, time=2),
    Message('note_on', channel=11, note=49, velocity=30, time=1),
    Message('note_on', channel=10, note=49, velocity=49, time=1),
    Message('note_on', channel=9, note=70, velocity=32, time=0),
    Message('note_on', channel=10, note=56, velocity=19, time=2),
    Message('note_off', channel=9, note=70, velocity=64, time=4),
    Message('note_on', channel=9, note=42, velocity=44, time=17),
    Message('note_on', channel=9, note=70, velocity=44, time=1),
    Message('note_off', channel=9, note=42, velocity=64, time=5),
    Message('note_off', channel=9, note=70, velocity=64, time=1),
    Message('note_off', channel=11, note=49, velocity=64, time=13),
    Message('note_off', channel=3, note=80, velocity=64, time=2),
    MetaMessage('lyrics', text='tains, ', time=2),
    MetaMessage('lyrics', text='\r', time=0),
    Message('note_on', channel=3, note=77, velocity=64, time=0),
    Message('note_on', channel=11, note=49, velocity=32, time=0),
    Message('note_on', channel=9, note=70, velocity=58, time=1),
    Message('note_off', channel=2, note=49, velocity=64, time=1),
    Message('note_on', channel=11, note=56, velocity=16, time=0),
    Message('note_on', channel=2, note=49, velocity=96, time=1),
    Message('note_off', channel=2, note=56, velocity=64, time=1),
    Message('note_on', channel=2, note=56, velocity=62, time=1),
    Message('note_off', channel=9, note=70, velocity=64, time=2),
    Message('note_off', channel=2, note=49, velocity=64, time=2),
    Message('note_off', channel=2, note=56, velocity=64, time=2),
    Message('note_on', channel=9, note=46, velocity=73, time=13),
    Message('note_on', channel=9, note=70, velocity=80, time=1),
    Message('note_off', channel=10, note=49, velocity=64, time=1),
    Message('note_on', channel=10, note=49, velocity=49, time=1),
    Message('note_off', channel=10, note=56, velocity=64, time=1),
    Message('note_on', channel=10, note=56, velocity=19, time=1),
    Message('note_off', channel=9, note=46, velocity=64, time=1),
    Message('note_off', channel=9, note=70, velocity=64, time=1),
    Message('note_off', channel=10, note=49, velocity=64, time=2),
    Message('note_off', channel=10, note=56, velocity=64, time=2),
    Message('note_on', channel=9, note=70, velocity=38, time=14),
    Message('note_off', channel=9, note=70, velocity=64, time=6),
    Message('note_off', channel=3, note=77, velocity=64, time=3),
    Message('note_on', channel=9, note=42, velocity=37, time=14),
    Message('pitchwheel', channel=2, pitch=367, time=0),
    Message('note_on', channel=2, note=49, velocity=81, time=0),
    Message('note_off', channel=11, note=49, velocity=64, time=1),
    Message('note_on', channel=9, note=70, velocity=51, time=0),
    Message('note_on', channel=2, note=56, velocity=47, time=1),
    Message('note_on', channel=11, note=49, velocity=32, time=0),
    Message('note_off', channel=11, note=56, velocity=64, time=1),
    Message('note_on', channel=11, note=56, velocity=16, time=1),
    Message('note_off', channel=9, note=42, velocity=64, time=2),
    Message('note_off', channel=9, note=70, velocity=64, time=1),
    Message('note_off', channel=11, note=49, velocity=64, time=1),
    Message('note_off', channel=11, note=56, velocity=64, time=2),
    Message('pitchwheel', channel=10, pitch=367, time=14),
    Message('note_on', channel=10, note=49, velocity=36, time=0),
    Message('note_on', channel=9, note=70, velocity=51, time=1),
    Message('note_on', channel=10, note=56, velocity=16, time=1),
    Message('note_off', channel=9, note=70, velocity=64, time=5),
    Message('note_off', channel=2, note=49, velocity=64, time=16),
    Message('note_off', channel=2, note=56, velocity=64, time=2),
    Message('note_on', channel=2, note=49, velocity=76, time=0),
    Message('note_on', channel=9, note=70, velocity=80, time=0),
    Message('note_on', channel=2, note=56, velocity=42, time=2),
    Message('note_off', channel=9, note=70, velocity=64, time=4),
    Message('note_off', channel=10, note=49, velocity=64, time=16),
    Message('pitchwheel', channel=11, pitch=367, time=0),
    Message('note_on', channel=11, note=49, velocity=19, time=0),
    Message('note_off', channel=10, note=56, velocity=64, time=2),
    Message('note_on', channel=10, note=49, velocity=31, time=0),
    Message('note_on', channel=9, note=70, velocity=43, time=0),
    Message('note_on', channel=10, note=56, velocity=16, time=2),
    Message('note_off', channel=9, note=70, velocity=64, time=4),
    MetaMessage('lyrics', text='I ', time=17),
    Message('note_on', channel=3, note=77, velocity=80, time=0),
    Message('note_on', channel=9, note=42, velocity=58, time=0),
    Message('note_off', channel=2, note=49, velocity=64, time=0),
    Message('note_on', channel=9, note=70, velocity=43, time=1),
    Message('note_off', channel=2, note=56, velocity=64, time=1),
    Message('note_on', channel=2, note=49, velocity=50, time=1),
    Message('note_on', channel=2, note=56, velocity=19, time=2),
    Message('note_off', channel=9, note=42, velocity=64, time=1),
    Message('note_off', channel=9, note=70, velocity=64, time=1),
    Message('note_off', channel=11, note=49, velocity=64, time=15),
    Message('note_off', channel=10, note=49, velocity=64, time=2),
    Message('note_on', channel=11, note=49, velocity=16, time=0),
    Message('note_on', channel=9, note=70, velocity=67, time=1),
    Message('note_off', channel=10, note=56, velocity=64, time=1),
    Message('note_on', channel=10, note=49, velocity=16, time=1),
    Message('note_off', channel=9, note=70, velocity=64, time=4),
    Message('note_off', channel=2, note=49, velocity=64, time=15),
    Message('note_on', channel=9, note=46, velocity=44, time=2),
    Message('note_off', channel=2, note=56, velocity=64, time=0),
    Message('note_on', channel=9, note=70, velocity=83, time=1),
    Message('note_on', channel=2, note=49, velocity=91, time=2),
    Message('note_on', channel=2, note=56, velocity=57, time=2),
    Message('note_off', channel=9, note=46, velocity=64, time=1),
    Message('note_off', channel=9, note=70, velocity=64, time=1),
    Message('note_off', channel=2, note=49, velocity=64, time=8),
    Message('note_off', channel=2, note=56, velocity=64, time=2),
    Message('note_off', channel=3, note=77, velocity=64, time=3),
    MetaMessage('lyrics', text='have ', time=2),
    Message('note_on', channel=3, note=80, velocity=74, time=0),
    Message('note_off', channel=10, note=49, velocity=64, time=0),
    Message('note_off', channel=11, note=49, velocity=64, time=1),
    Message('note_on', channel=9, note=70, velocity=22, time=2),
    Message('note_on', channel=10, note=49, velocity=44, time=2),
    Message('note_on', channel=10, note=56, velocity=16, time=2),
    Message('note_off', channel=9, note=70, velocity=64, time=2),
    Message('note_off', channel=10, note=49, velocity=64, time=8),
    Message('note_off', channel=10, note=56, velocity=64, time=2),
    Message('note_on', channel=9, note=46, velocity=90, time=7),
    Message('note_on', channel=9, note=70, velocity=58, time=1),
    Message('note_on', channel=2, note=49, velocity=81, time=2),
    Message('note_on', channel=2, note=56, velocity=47, time=2),
    Message('note_off', channel=9, note=46, velocity=64, time=1),
    Message('note_off', channel=9, note=70, velocity=64, time=1),
    Message('note_on', channel=9, note=70, velocity=75, time=18),
    Message('note_on', channel=11, note=49, velocity=28, time=1),
    Message('note_on', channel=10, note=49, velocity=36, time=1),
    Message('note_on', channel=10, note=56, velocity=16, time=2),
    Message('note_off', channel=9, note=70, velocity=64, time=2),
    Message('note_off', channel=3, note=80, velocity=64, time=2),
    Message('note_off', channel=11, note=49, velocity=64, time=5),
    MetaMessage('lyrics', text='run ', time=8),
    Message('note_on', channel=3, note=80, velocity=73, time=0),
    Message('note_off', channel=2, note=49, velocity=64, time=1),
    Message('note_on', channel=9, note=42, velocity=53, time=1),
    Message('note_off', channel=2, note=56, velocity=64, time=1),
    Message('note_on', channel=9, note=70, velocity=51, time=0),
    Message('note_on', channel=2, note=49, velocity=91, time=3),
    Message('note_off', channel=9, note=42, velocity=64, time=2),
    Message('note_on', channel=2, note=56, velocity=57, time=0),
    Message('note_off', channel=9, note=70, velocity=64, time=1),
    Message('note_off', channel=10, note=49, velocity=64, time=16),
    Message('note_off', channel=10, note=56, velocity=64, time=2),
    Message('note_on', channel=9, note=70, velocity=21, time=0),
    Message('note_on', channel=11, note=49, velocity=19, time=1),
    Message('note_on', channel=10, note=49, velocity=44, time=2),
    Message('note_on', channel=10, note=56, velocity=16, time=2),
    Message('note_off', channel=9, note=70, velocity=64, time=1),
    Message('note_on', channel=9, note=42, velocity=53, time=17),
    Message('note_on', channel=9, note=70, velocity=42, time=1),
    Message('note_off', channel=9, note=42, velocity=64, time=5),
    Message('note_off', channel=9, note=70, velocity=64, time=1),
    Message('note_off', channel=3, note=80, velocity=64, time=11),
    Message('note_off', channel=11, note=49, velocity=64, time=4),
    Message('note_on', channel=3, note=77, velocity=72, time=1),
    Message('note_off', channel=2, note=49, velocity=64, time=2),
    Message('note_on', channel=9, note=70, velocity=43, time=0),
    Message('note_off', channel=2, note=56, velocity=64, time=2),
    Message('note_on', channel=2, note=49, velocity=115, time=0),
    Message('note_on', channel=11, note=49, velocity=28, time=0),
    Message('note_on', channel=2, note=56, velocity=81, time=2),
    Message('note_off', channel=9, note=70, velocity=64, time=2),
    Message('note_off', channel=2, note=49, velocity=64, time=6),
    Message('pitchwheel', channel=2, pitch=31, time=1),
    Message('note_off', channel=2, note=56, velocity=64, time=1),
    Message('note_on', channel=9, note=46, velocity=81, time=9),
    Message('note_off', channel=10, note=49, velocity=64, time=1),
    Message('note_on', channel=9, note=70, velocity=71, time=0),
    Message('note_on', channel=2, note=44, velocity=74, time=2),
    Message('note_off', channel=10, note=56, velocity=64, time=0),
    Message('note_on', channel=10, note=49, velocity=65, time=0),
    Message('note_on', channel=2, note=51, velocity=40, time=2),
    Message('note_on', channel=10, note=56, velocity=36, time=0),
    Message('note_off', channel=9, note=46, velocity=64, time=1),
    Message('pitchwheel', channel=2, pitch=-47, time=0),
    Message('note_off', channel=9, note=70, velocity=64, time=1),
    Message('note_off', channel=2, note=44, velocity=64, time=2),
    Message('note_off', channel=2, note=51, velocity=64, time=2),
    Message('note_off', channel=10, note=49, velocity=64, time=2),
    Message('pitchwheel', channel=10, pitch=31, time=1),
    Message('note_off', channel=10, note=56, velocity=64, time=1),
    Message('note_on', channel=9, note=70, velocity=36, time=10),
    Message('note_on', channel=10, note=44, velocity=30, time=2),
    Message('pitchwheel', channel=10, pitch=-47, time=3),
    Message('note_off', channel=9, note=70, velocity=64, time=1),
    Message('note_off', channel=10, note=44, velocity=64, time=2),
    Message('note_off', channel=3, note=77, velocity=64, time=1),
    Message('note_on', channel=9, note=42, velocity=19, time=14),
    Message('note_off', channel=11, note=49, velocity=64, time=0),
    Message('pitchwheel', channel=2, pitch=431, time=1),
    Message('note_on', channel=2, note=49, velocity=88, time=0),
    Message('note_on', channel=9, note=70, velocity=43, time=0),
    Message('note_on', channel=11, note=49, velocity=49, time=1),
    Message('note_on', channel=2, note=56, velocity=54, time=1),
    Message('note_on', channel=11, note=56, velocity=19, time=1),
    Message('note_off', channel=9, note=42, velocity=64, time=2),
    Message('note_off', channel=9, note=70, velocity=64, time=1),
    Message('note_off', channel=11, note=49, velocity=64, time=5),
    Message('pitchwheel', channel=11, pitch=31, time=1),
    Message('note_off', channel=11, note=56, velocity=64, time=1),
    Message('pitchwheel', channel=10, pitch=431, time=11),
    Message('note_on', channel=10, note=49, velocity=42, time=0),
    Message('note_on', channel=9, note=70, velocity=58, time=0),
    Message('note_on', channel=11, note=44, velocity=16, time=1),
    Message('note_on', channel=10, note=56, velocity=16, time=1),
    Message('pitchwheel', channel=11, pitch=-47, time=2),
    Message('note_off', channel=9, note=70, velocity=64, time=2),
    Message('note_off', channel=11, note=44, velocity=64, time=1),
    Message('note_on', channel=9, note=42, velocity=47, time=16),
    Message('note_off', channel=2, note=49, velocity=64, time=0),
    Message('note_on', channel=9, note=70, velocity=61, time=1),
    Message('note_off', channel=2, note=56, velocity=64, time=1),
    Message('note_on', channel=2, note=49, velocity=81, time=0),
    Message('note_on', channel=2, note=56, velocity=47, time=2),
    Message('note_off', channel=9, note=42, velocity=64, time=2),
    Message('note_off', channel=9, note=70, velocity=64, time=1),
    Message('note_off', channel=10, note=49, velocity=64, time=17),
    Message('pitchwheel', channel=11, pitch=431, time=0),
    Message('note_on', channel=11, note=49, velocity=25, time=0),
    Message('note_on', channel=9, note=70, velocity=34, time=1),
    Message('note_off', channel=10, note=56, velocity=64, time=1),
    Message('note_on', channel=10, note=49, velocity=36, time=0),
    Message('note_on', channel=10, note=56, velocity=16, time=2),
    Message('note_off', channel=9, note=70, velocity=64, time=3),
    Message('note_on', channel=9, note=42, velocity=37, time=17),
    Message('note_on', channel=9, note=70, velocity=47, time=1),
    MetaMessage('lyrics', text='through ', time=3),
    Message('note_on', channel=3, note=82, velocity=87, time=0),
    Message('note_off', channel=9, note=42, velocity=64, time=2),
    Message('note_off', channel=9, note=70, velocity=64, time=1),
    Message('note_off', channel=11, note=49, velocity=64, time=16),
    Message('note_on', channel=11, note=49, velocity=19, time=2),
    Message('note_on', channel=9, note=70, velocity=65, time=0),
    Message('note_off', channel=9, note=70, velocity=64, time=6),
    Message('note_off', channel=2, note=49, velocity=64, time=15),
    Message('note_on', channel=9, note=46, velocity=90, time=2),
    Message('note_off', channel=2, note=56, velocity=64, time=0),
    Message('note_on', channel=9, note=70, velocity=67, time=1),
    Message('note_on', channel=2, note=49, velocity=66, time=1),
    Message('note_on', channel=2, note=56, velocity=32, time=2),
    Message('note_off', channel=9, note=46, velocity=64, time=2),
    Message('note_off', channel=9, note=70, velocity=64, time=1),
    Message('note_off', channel=3, note=82, velocity=64, time=8),
    Message('note_off', channel=2, note=49, velocity=64, time=0),
    Message('note_off', channel=2, note=56, velocity=64, time=2),
    Message('note_off', channel=10, note=49, velocity=64, time=5),
    Message('note_off', channel=10, note=56, velocity=64, time=2),
    Message('note_on', channel=9, note=70, velocity=36, time=1),
    Message('note_on', channel=10, note=49, velocity=23, time=1),
    MetaMessage('lyrics', text='the ', time=2),
    Message('note_on', channel=3, note=80, velocity=71, time=0),
    Message('note_off', channel=9, note=70, velocity=64, time=3),
    Message('note_off', channel=10, note=49, velocity=64, time=8),
    Message('note_on', channel=9, note=42, velocity=35, time=9),
    Message('note_on', channel=9, note=70, velocity=43, time=1),
    Message('pitchwheel', channel=2, pitch=367, time=1),
    Message('note_on', channel=2, note=49, velocity=81, time=0),
    Message('note_on', channel=2, note=56, velocity=47, time=2),
    Message('note_off', channel=9, note=42, velocity=64, time=2),
    Message('note_off', channel=9, note=70, velocity=64, time=1),
    Message('note_off', channel=11, note=49, velocity=64, time=14),
    Message('note_on', channel=11, note=49, velocity=16, time=4),
    Message('note_on', channel=9, note=70, velocity=71, time=0),
    Message('pitchwheel', channel=10, pitch=367, time=1),
    Message('note_on', channel=10, note=49, velocity=36, time=0),
    Message('note_on', channel=10, note=56, velocity=16, time=2),
    Message('note_off', channel=9, note=70, velocity=64, time=3),
    Message('note_off', channel=11, note=49, velocity=64, time=7),
    Message('note_off', channel=3, note=80, velocity=64, time=6),
    Message('note_off', channel=2, note=49, velocity=64, time=2),
    Message('note_on', channel=9, note=42, velocity=69, time=2),
    Message('note_off', channel=2, note=56, velocity=64, time=0),
    Message('note_on', channel=9, note=70, velocity=77, time=1),
    MetaMessage('lyrics', text='fields ', time=1),
    MetaMessage('lyrics', text='\r', time=0),
    Message('note_on', channel=3, note=77, velocity=61, time=0),
    Message('note_on', channel=2, note=49, velocity=88, time=1),
    Message('note_on', channel=2, note=56, velocity=54, time=2),
    Message('note_off', channel=9, note=42, velocity=64, time=1),
    Message('note_off', channel=9, note=70, velocity=64, time=1),
    Message('note_off', channel=10, note=49, velocity=64, time=15),
    Message('note_on', channel=9, note=42, velocity=56, time=2),
    Message('note_off', channel=10, note=56, velocity=64, time=0),
    Message('pitchwheel', channel=11, pitch=367, time=1),
    Message('note_on', channel=11, note=49, velocity=19, time=0),
    Message('note_on', channel=9, note=70, velocity=32, time=0),
    Message('note_on', channel=10, note=49, velocity=42, time=2),
    Message('note_on', channel=10, note=56, velocity=16, time=2),
    Message('note_off', channel=9, note=42, velocity=64, time=1),
    Message('note_off', channel=9, note=70, velocity=64, time=1),
    Message('note_on', channel=9, note=42, velocity=56, time=17),
    Message('note_on', channel=9, note=70, velocity=44, time=1),
    Message('note_off', channel=9, note=42, velocity=64, time=5),
    Message('note_off', channel=9, note=70, velocity=64, time=1),
    Message('note_off', channel=3, note=77, velocity=64, time=11),
    Message('note_off', channel=11, note=49, velocity=64, time=3),
    Message('note_on', channel=9, note=70, velocity=58, time=4),
    Message('note_off', channel=2, note=49, velocity=64, time=1),
    Message('note_on', channel=11, note=49, velocity=25, time=0),
    Message('note_on', channel=2, note=49, velocity=104, time=1),
    Message('note_off', channel=2, note=56, velocity=64, time=1),
    Message('note_on', channel=2, note=56, velocity=70, time=1),
    Message('note_off', channel=9, note=70, velocity=64, time=2),
    Message('note_off', channel=2, note=49, velocity=64, time=6),
    Message('note_off', channel=2, note=56, velocity=64, time=2),
    Message('note_on', channel=9, note=46, velocity=81, time=9),
    Message('note_on', channel=9, note=70, velocity=80, time=1),
    Message('note_off', channel=10, note=49, velocity=64, time=1),
    Message('note_on', channel=10, note=49, velocity=55, time=1),
    Message('note_off', channel=10, note=56, velocity=64, time=1),
    Message('note_on', channel=10, note=56, velocity=26, time=1),
    Message('note_off', channel=9, note=46, velocity=64, time=1),
    Message('note_off', channel=9, note=70, velocity=64, time=1),
    Message('note_off', channel=10, note=49, velocity=64, time=6),
    Message('note_off', channel=10, note=56, velocity=64, time=2),
    Message('note_on', channel=9, note=70, velocity=38, time=10),
    Message('note_off', channel=9, note=70, velocity=64, time=6),
    Message('note_off', channel=11, note=49, velocity=64, time=18),
    Message('note_on', channel=9, note=70, velocity=51, time=0),
    Message('note_on', channel=9, note=42, velocity=71, time=1),
    Message('note_on', channel=2, note=49, velocity=80, time=0),
    Message('note_on', channel=11, note=49, velocity=39, time=0),
    Message('note_on', channel=2, note=56, velocity=46, time=2),
    Message('note_on', channel=11, note=56, velocity=16, time=0),
    Message('note_off', channel=9, note=70, velocity=64, time=3),
    Message('note_off', channel=9, note=42, velocity=64, time=1),
    Message('note_off', channel=11, note=49, velocity=64, time=4),
    Message('note_off', channel=11, note=56, velocity=64, time=2),
    Message('note_on', channel=9, note=70, velocity=51, time=11),
    Message('note_on', channel=10, note=49, velocity=35, time=1),
    Message('note_on', channel=10, note=56, velocity=16, time=2),
    Message('note_off', channel=9, note=70, velocity=64, time=3),
    MetaMessage('lyrics', text='on', time=13),
    Message('note_on', channel=3, note=77, velocity=91, time=0),
    Message('note_on', channel=9, note=70, velocity=80, time=5),
    Message('note_off', channel=2, note=49, velocity=64, time=1),
    Message('note_on', channel=2, note=49, velocity=91, time=1),
    Message('note_off', channel=2, note=56, velocity=64, time=1),
    Message('note_on', channel=2, note=56, velocity=57, time=1),
    Message('note_off', channel=9, note=70, velocity=64, time=2),
    Message('note_on', channel=11, note=49, velocity=18, time=18),
    Message('note_on', channel=9, note=70, velocity=43, time=0),
    Message('note_off', channel=10, note=49, velocity=64, time=1),
    Message('note_on', channel=10, note=49, velocity=44, time=1),
    Message('note_off', channel=10, note=56, velocity=64, time=1),
    Message('note_on', channel=10, note=56, velocity=16, time=1),
    Message('note_off', channel=9, note=70, velocity=64, time=2),
    Message('note_on', channel=9, note=42, velocity=69, time=17),
    Message('note_on', channel=9, note=70, velocity=43, time=1),
    Message('note_off', channel=9, note=42, velocity=64, time=5),
    Message('note_off', channel=3, note=77, velocity=64, time=1),
    Message('note_off', channel=9, note=70, velocity=64, time=0),
    MetaMessage('lyrics', text='ly ', time=11),
    Message('note_on', channel=3, note=75, velocity=89, time=0),
    Message('note_off', channel=11, note=49, velocity=64, time=7),
    Message('note_on', channel=9, note=70, velocity=67, time=0),
    Message('note_on', channel=11, note=49, velocity=28, time=1),
    Message('note_off', channel=9, note=70, velocity=64, time=5),
    Message('note_on', channel=9, note=46, velocity=75, time=17),
    Message('note_off', channel=2, note=49, velocity=64, time=0),
    Message('note_on', channel=9, note=70, velocity=83, time=1),
    Message('note_off', channel=2, note=56, velocity=64, time=1),
    Message('note_on', channel=2, note=49, velocity=109, time=1),
    Message('note_on', channel=2, note=56, velocity=75, time=2),
    Message('note_off', channel=9, note=46, velocity=64, time=1),
    Message('note_off', channel=9, note=70, velocity=64, time=1),
    Message('note_off', channel=3, note=75, velocity=64, time=14),
    Message('note_off', channel=2, note=49, velocity=64, time=0),
    Message('pitchwheel', channel=2, pitch=159, time=1),
    Message('note_off', channel=2, note=56, velocity=64, time=1),
    Message('note_off', channel=10, note=49, velocity=64, time=1),
    Message('note_on', channel=9, note=70, velocity=22, time=1),
    Message('note_off', channel=10, note=56, velocity=64, time=1),
    Message('note_on', channel=10, note=49, velocity=60, time=1),
    MetaMessage('lyrics', text='to ', time=2),
    Message('note_on', channel=3, note=73, velocity=78, time=0),
    Message('note_on', channel=10, note=56, velocity=30, time=0),
    Message('note_off', channel=9, note=70, velocity=64, time=2),
    Message('note_off', channel=10, note=49, velocity=64, time=14),
    Message('pitchwheel', channel=10, pitch=159, time=1),
    Message('note_off', channel=10, note=56, velocity=64, time=1),
    Message('note_on', channel=9, note=46, velocity=81, time=1),
    Message('note_on', channel=9, note=70, velocity=58, time=1),
    Message('note_off', channel=9, note=46, velocity=64, time=5),
    Message('note_off', channel=9, note=70, velocity=64, time=1),
    Message('note_off', channel=11, note=49, velocity=64, time=16),
    Message('note_on', channel=9, note=70, velocity=75, time=2),
    Message('note_on', channel=11, note=49, velocity=43, time=1),
    Message('note_on', channel=11, note=56, velocity=16, time=2),
    Message('note_off', channel=9, note=70, velocity=64, time=3),
    Message('note_off', channel=3, note=73, velocity=64, time=7),
    Message('note_off', channel=11, note=49, velocity=64, time=6),
    Message('pitchwheel', channel=11, pitch=159, time=1),
    Message('note_off', channel=11, note=56, velocity=64, time=1),
    Message('note_on', channel=9, note=70, velocity=51, time=3),
    Message('note_on', channel=9, note=42, velocity=52, time=1),
    MetaMessage('lyrics', text='be ', time=1),
    Message('note_on', channel=3, note=75, velocity=73, time=0),
    Message('note_on', channel=2, note=54, velocity=104, time=1),
    Message('note_on', channel=2, note=61, velocity=70, time=2),
    Message('note_off', channel=9, note=70, velocity=64, time=1),
    Message('note_off', channel=9, note=42, velocity=64, time=1),
    Message('pitchwheel', channel=2, pitch=31, time=0),
    Message('note_on', channel=9, note=70, velocity=21, time=17),
    Message('note_on', channel=10, note=54, velocity=55, time=3),
    Message('note_on', channel=10, note=61, velocity=26, time=2),
    Message('note_off', channel=9, note=70, velocity=64, time=1),
    Message('pitchwheel', channel=10, pitch=31, time=1),
    Message('note_on', channel=9, note=42, velocity=69, time=16),
    Message('note_on', channel=9, note=70, velocity=42, time=1),
    Message('note_off', channel=9, note=42, velocity=64, time=5),
    Message('note_off', channel=9, note=70, velocity=64, time=1),
    Message('note_on', channel=9, note=70, velocity=43, time=18),
    Message('note_off', channel=2, note=54, velocity=64, time=1),
    Message('note_on', channel=11, note=54, velocity=39, time=1),
    Message('note_off', channel=2, note=61, velocity=64, time=1),
    Message('note_on', channel=2, note=54, velocity=107, time=0),
    Message('note_on', channel=11, note=61, velocity=16, time=1),
    Message('note_on', channel=2, note=61, velocity=73, time=1),
    Message('pitchwheel', channel=11, pitch=31, time=1),
    Message('note_off', channel=9, note=70, velocity=64, time=0),
    Message('note_off', channel=2, note=54, velocity=64, time=9),
    Message('pitchwheel', channel=2, pitch=-143, time=0),
    Message('note_off', channel=2, note=61, velocity=64, time=2),
    Message('note_on', channel=9, note=46, velocity=75, time=6),
    Message('note_on', channel=9, note=70, velocity=71, time=1),
    Message('note_off', channel=10, note=54, velocity=64, time=1),
    Message('note_off', channel=10, note=61, velocity=64, time=2),
    Message('note_on', channel=10, note=54, velocity=58, time=0),
    Message('note_off', channel=9, note=46, velocity=64, time=2),
    Message('note_on', channel=10, note=61, velocity=29, time=0),
    Message('note_off', channel=9, note=70, velocity=64, time=1),
    Message('note_off', channel=10, note=54, velocity=64, time=9),
    Message('pitchwheel', channel=10, pitch=-143, time=0),
    Message('note_off', channel=10, note=61, velocity=64, time=2),
    Message('note_on', channel=9, note=70, velocity=36, time=7),
    Message('note_off', channel=9, note=70, velocity=64, time=6),
    Message('note_off', channel=3, note=75, velocity=64, time=15),
    MetaMessage('lyrics', text='with ', time=2),
    Message('note_on', channel=3, note=73, velocity=47, time=0),
    Message('note_on', channel=9, note=42, velocity=47, time=1),
    Message('note_off', channel=11, note=54, velocity=64, time=0),
    Message('note_on', channel=9, note=70, velocity=43, time=0),
    Message('note_on', channel=2, note=54, velocity=96, time=2),
    Message('note_off', channel=11, note=61, velocity=64, time=0),
    Message('note_on', channel=11, note=54, velocity=42, time=0),
    Message('note_on', channel=2, note=61, velocity=62, time=2),
    Message('note_on', channel=11, note=61, velocity=16, time=0),
    Message('note_off', channel=9, note=42, velocity=64, time=2),
    Message('note_off', channel=9, note=70, velocity=64, time=0),
    Message('note_off', channel=11, note=54, velocity=64, time=8),
    Message('pitchwheel', channel=11, pitch=-143, time=0),
    Message('note_off', channel=11, note=61, velocity=64, time=2),
    Message('note_on', channel=9, note=70, velocity=58, time=8),
    Message('note_on', channel=10, note=54, velocity=49, time=2),
    Message('note_on', channel=10, note=61, velocity=19, time=2),
    Message('note_off', channel=9, note=70, velocity=64, time=2),
    Message('note_off', channel=3, note=73, velocity=64, time=6),
    Message('note_on', channel=9, note=42, velocity=63, time=11),
    Message('note_off', channel=2, note=54, velocity=64, time=0),
    Message('note_on', channel=9, note=70, velocity=61, time=1),
    Message('note_off', channel=2, note=61, velocity=64, time=1),
    Message('note_on', channel=2, note=54, velocity=89, time=0),
    MetaMessage('lyrics', text='you, ', time=2),
    Message('note_on', channel=3, note=73, velocity=59, time=0),
    Message('note_on', channel=2, note=61, velocity=55, time=0),
    Message('note_off', channel=9, note=42, velocity=64, time=2),
    Message('note_off', channel=9, note=70, velocity=64, time=1),
    Message('note_off', channel=10, note=54, velocity=64, time=17),
    Message('note_on', channel=9, note=70, velocity=34, time=1),
    Message('note_off', channel=10, note=61, velocity=64, time=1),
    Message('note_on', channel=10, note=54, velocity=43, time=0),
    Message('note_on', channel=11, note=54, velocity=32, time=0),
    Message('note_on', channel=10, note=61, velocity=16, time=2),
    Message('note_on', channel=11, note=61, velocity=16, time=0),
    Message('note_off', channel=9, note=70, velocity=64, time=3),
    Message('note_off', channel=2, note=54, velocity=64, time=16),
    Message('note_on', channel=9, note=42, velocity=59, time=1),
    Message('note_off', channel=2, note=61, velocity=64, time=1),
    Message('note_on', channel=9, note=70, velocity=47, time=0),
    Message('note_on', channel=2, note=54, velocity=68, time=1),
    Message('note_on', channel=2, note=61, velocity=34, time=2),
    Message('note_off', channel=9, note=42, velocity=64, time=2),
    Message('note_off', channel=9, note=70, velocity=64, time=1),
    Message('note_off', channel=10, note=54, velocity=64, time=16),
    Message('note_off', channel=11, note=54, velocity=64, time=0),
    Message('note_off', channel=10, note=61, velocity=64, time=2),
    Message('note_off', channel=11, note=61, velocity=64, time=0),
    Message('note_on', channel=11, note=54, velocity=26, time=0),
    Message('note_on', channel=9, note=70, velocity=65, time=0),
    Message('note_on', channel=10, note=54, velocity=24, time=1),
    Message('note_off', channel=9, note=70, velocity=64, time=5),
    Message('note_off', channel=2, note=54, velocity=64, time=15),
    Message('note_off', channel=2, note=61, velocity=64, time=2),
    Message('note_on', channel=9, note=46, velocity=81, time=1),
    Message('note_on', channel=9, note=70, velocity=67, time=0),
    Message('note_on', channel=2, note=54, velocity=98, time=1),
    Message('note_on', channel=2, note=61, velocity=64, time=2),
    Message('note_off', channel=9, note=46, velocity=64, time=3),
    Message('note_off', channel=9, note=70, velocity=64, time=0),
    Message('pitchwheel', channel=2, pitch=-367, time=6),
    Message('note_off', channel=2, note=54, velocity=64, time=2),
    Message('note_off', channel=2, note=61, velocity=64, time=2),
    Message('pitchwheel', channel=2, pitch=-143, time=0),
    Message('note_off', channel=10, note=54, velocity=64, time=5),
    Message('note_off', channel=11, note=54, velocity=64, time=0),
    Message('note_on', channel=11, note=54, velocity=16, time=3),
    Message('note_on', channel=9, note=70, velocity=36, time=0),
    Message('note_on', channel=10, note=54, velocity=50, time=1),
    Message('note_on', channel=10, note=61, velocity=21, time=2),
    Message('note_off', channel=9, note=70, velocity=64, time=3),
    Message('pitchwheel', channel=10, pitch=-367, time=6),
    Message('note_off', channel=10, note=54, velocity=64, time=2),
    Message('note_off', channel=10, note=61, velocity=64, time=2),
    Message('pitchwheel', channel=10, pitch=-143, time=0),
    Message('note_on', channel=9, note=70, velocity=43, time=8),
    Message('note_on', channel=9, note=42, velocity=40, time=1),
    Message('note_on', channel=2, note=54, velocity=60, time=1),
    Message('note_on', channel=2, note=61, velocity=26, time=2),
    Message('note_off', channel=9, note=70, velocity=64, time=2),
    Message('note_off', channel=9, note=42, velocity=64, time=1),
    Message('note_off', channel=11, note=54, velocity=64, time=13),
    Message('note_on', channel=11, note=54, velocity=34, time=4),
    Message('note_on', channel=9, note=70, velocity=71, time=0),
    Message('note_on', channel=10, note=54, velocity=18, time=2),
    Message('note_on', channel=11, note=61, velocity=16, time=0),
    Message('note_off', channel=3, note=73, velocity=64, time=2),
    Message('note_off', channel=9, note=70, velocity=64, time=2),
    Message('pitchwheel', channel=11, pitch=-367, time=5),
    Message('note_off', channel=11, note=54, velocity=64, time=2),
    Message('note_off', channel=11, note=61, velocity=64, time=2),
    Message('pitchwheel', channel=11, pitch=-143, time=0),
    Message('note_off', channel=2, note=54, velocity=64, time=7),
    Message('note_on', channel=9, note=42, velocity=49, time=2),
    Message('note_off', channel=2, note=61, velocity=64, time=0),
    Message('note_on', channel=9, note=70, velocity=77, time=0),
    Message('note_on', channel=2, note=54, velocity=76, time=1),
    Message('note_on', channel=2, note=61, velocity=42, time=2),
    Message('note_off', channel=9, note=42, velocity=64, time=3),
    Message('note_off', channel=9, note=70, velocity=64, time=0),
    Message('note_off', channel=10, note=54, velocity=64, time=16),
    Message('note_on', channel=9, note=70, velocity=32, time=2),
    Message('note_on', channel=10, note=54, velocity=31, time=1),
    Message('note_on', channel=11, note=54, velocity=16, time=0),
    Message('note_on', channel=10, note=61, velocity=16, time=2),
    Message('note_off', channel=9, note=70, velocity=64, time=3),
    Message('note_on', channel=9, note=42, velocity=69, time=17),
    Message('note_on', channel=9, note=70, velocity=44, time=1),
    Message('note_off', channel=9, note=42, velocity=64, time=5),
    Message('note_off', channel=9, note=70, velocity=64, time=1),
    Message('note_off', channel=2, note=54, velocity=64, time=11),
    Message('note_off', channel=2, note=61, velocity=64, time=2),
    Message('note_off', channel=11, note=54, velocity=64, time=2),
    Message('note_on', channel=11, note=54, velocity=16, time=3),
    Message('note_on', channel=9, note=70, velocity=58, time=0),
    Message('note_on', channel=2, note=54, velocity=109, time=2),
    Message('note_on', channel=2, note=61, velocity=75, time=2),
    Message('note_off', channel=9, note=70, velocity=64, time=2),
    Message('pitchwheel', channel=2, pitch=-367, time=4),
    Message('note_off', channel=2, note=54, velocity=64, time=4),
    Message('note_off', channel=2, note=61, velocity=64, time=2),
    Message('pitchwheel', channel=2, pitch=-143, time=0),
    Message('note_off', channel=10, note=54, velocity=64, time=1),
    Message('note_off', channel=10, note=61, velocity=64, time=2),
    Message('note_on', channel=9, note=46, velocity=67, time=5),
    Message('note_on', channel=9, note=70, velocity=80, time=0),
    Message('note_on', channel=10, note=54, velocity=60, time=2),
    Message('note_on', channel=10, note=61, velocity=30, time=2),
    Message('note_off', channel=9, note=46, velocity=64, time=2),
    Message('note_off', channel=9, note=70, velocity=64, time=0),
    Message('pitchwheel', channel=10, pitch=-367, time=4),
    Message('note_off', channel=10, note=54, velocity=64, time=4),
    Message('note_off', channel=10, note=61, velocity=64, time=2),
    Message('pitchwheel', channel=10, pitch=-143, time=0),
    Message('note_on', channel=9, note=70, velocity=38, time=8),
    Message('note_off', channel=9, note=70, velocity=64, time=6),
    Message('note_off', channel=11, note=54, velocity=64, time=10),
    Message('note_on', channel=2, note=54, velocity=88, time=7),
    Message('note_on', channel=9, note=46, velocity=65, time=1),
    Message('note_on', channel=9, note=70, velocity=51, time=0),
    Message('note_on', channel=2, note=61, velocity=54, time=1),
    Message('note_on', channel=11, note=54, velocity=43, time=0),
    Message('note_on', channel=11, note=61, velocity=16, time=2),
    Message('note_off', channel=9, note=46, velocity=64, time=3),
    Message('note_off', channel=9, note=70, velocity=64, time=0),
    Message('pitchwheel', channel=11, pitch=-367, time=3),
    Message('note_off', channel=11, note=54, velocity=64, time=4),
    Message('note_off', channel=11, note=61, velocity=64, time=2),
    Message('pitchwheel', channel=11, pitch=-143, time=0),
    Message('note_on', channel=10, note=54, velocity=42, time=8),
    Message('note_on', channel=9, note=70, velocity=51, time=1),
    Message('note_on', channel=10, note=61, velocity=16, time=1),
    Message('note_off', channel=9, note=70, velocity=64, time=5),
    Message('note_off', channel=2, note=54, velocity=64, time=9),
    MetaMessage('lyrics', text='on', time=2),
    Message('note_on', channel=3, note=77, velocity=77, time=0),
    Message('note_off', channel=2, note=61, velocity=64, time=0),
    Message('note_on', channel=9, note=42, velocity=75, time=6),
    Message('note_on', channel=2, note=54, velocity=85, time=0),
    Message('note_on', channel=9, note=70, velocity=80, time=1),
    Message('note_on', channel=2, note=61, velocity=51, time=1),
    Message('note_off', channel=9, note=42, velocity=64, time=4),
    Message('note_off', channel=9, note=70, velocity=64, time=1),
    Message('note_off', channel=10, note=54, velocity=64, time=9),
    Message('note_off', channel=10, note=61, velocity=64, time=2),
    Message('note_on', channel=11, note=54, velocity=25, time=5),
    Message('note_on', channel=10, note=54, velocity=39, time=1),
    Message('note_on', channel=9, note=70, velocity=43, time=1),
    Message('note_on', channel=9, note=42, velocity=59, time=1),
    Message('note_on', channel=10, note=61, velocity=16, time=0),
    Message('note_off', channel=9, note=70, velocity=64, time=5),
    Message('note_off', channel=9, note=42, velocity=64, time=1),
    Message('note_on', channel=9, note=42, velocity=69, time=16),
    Message('note_on', channel=9, note=70, velocity=43, time=1),
    Message('note_off', channel=3, note=77, velocity=64, time=5),
    Message('note_off', channel=9, note=42, velocity=64, time=0),
    Message('note_off', channel=9, note=70, velocity=64, time=1),
    MetaMessage('lyrics', text='ly ', time=6),
    Message('note_on', channel=3, note=75, velocity=78, time=0),
    Message('note_off', channel=11, note=54, velocity=64, time=2),
    Message('note_on', channel=11, note=54, velocity=23, time=8),
    Message('note_on', channel=9, note=70, velocity=67, time=2),
    Message('note_off', channel=9, note=70, velocity=64, time=6),
    Message('note_on', channel=9, note=46, velocity=78, time=17),
    Message('note_off', channel=2, note=54, velocity=64, time=0),
    Message('note_on', channel=9, note=70, velocity=83, time=1),
    Message('note_off', channel=2, note=61, velocity=64, time=1),
    Message('note_on', channel=2, note=54, velocity=98, time=1),
    Message('note_on', channel=2, note=61, velocity=64, time=2),
    Message('note_off', channel=9, note=46, velocity=64, time=1),
    Message('note_off', channel=9, note=70, velocity=64, time=1),
    Message('pitchwheel', channel=2, pitch=-319, time=17),
    Message('note_off', channel=10, note=54, velocity=64, time=0),
    Message('note_on', channel=9, note=70, velocity=22, time=1),
    Message('note_off', channel=3, note=75, velocity=64, time=1),
    Message('note_off', channel=10, note=61, velocity=64, time=0),
    Message('note_on', channel=10, note=54, velocity=50, time=1),
    Message('note_off', channel=2, note=54, velocity=64, time=1),
    Message('pitchwheel', channel=2, pitch=-143, time=1),
    Message('note_on', channel=10, note=61, velocity=21, time=0),
    MetaMessage('lyrics', text='to ', time=1),
    Message('note_on', channel=3, note=73, velocity=75, time=0),
    Message('note_off', channel=2, note=61, velocity=64, time=0),
    Message('note_off', channel=9, note=70, velocity=64, time=1),
    Message('note_on', channel=9, note=46, velocity=90, time=17),
    Message('pitchwheel', channel=10, pitch=-319, time=0),
    Message('note_on', channel=9, note=70, velocity=58, time=1),
    Message('note_off', channel=10, note=54, velocity=64, time=3),
    Message('pitchwheel', channel=10, pitch=-143, time=1),
    Message('note_off', channel=9, note=46, velocity=64, time=1),
    Message('note_off', channel=10, note=61, velocity=64, time=0),
    Message('note_off', channel=9, note=70, velocity=64, time=1),
    Message('note_off', channel=11, note=54, velocity=64, time=16),
    Message('note_on', channel=9, note=70, velocity=75, time=2),
    Message('note_on', channel=11, note=54, velocity=34, time=1),
    Message('note_on', channel=11, note=61, velocity=16, time=2),
    Message('note_off', channel=9, note=70, velocity=64, time=3),
    Message('note_off', channel=3, note=73, velocity=64, time=13),
    Message('pitchwheel', channel=11, pitch=-319, time=3),
    Message('note_on', channel=9, note=70, velocity=51, time=2),
    Message('note_on', channel=9, note=42, velocity=67, time=1),
    Message('note_on', channel=2, note=49, velocity=93, time=1),
    Message('note_off', channel=11, note=54, velocity=64, time=0),
    MetaMessage('lyrics', text='be ', time=1),
    Message('note_on', channel=3, note=75, velocity=68, time=0),
    Message('pitchwheel', channel=11, pitch=-143, time=0),
    Message('note_on', channel=2, note=56, velocity=59, time=1),
    Message('note_off', channel=11, note=61, velocity=64, time=0),
    Message('pitchwheel', channel=2, pitch=367, time=1),
    Message('note_off', channel=9, note=70, velocity=64, time=1),
    Message('note_off', channel=9, note=42, velocity=64, time=1),
    Message('note_on', channel=9, note=70, velocity=21, time=17),
    Message('note_on', channel=10, note=49, velocity=46, time=2),
    Message('note_on', channel=10, note=56, velocity=17, time=2),
    Message('pitchwheel', channel=10, pitch=367, time=1),
    Message('note_off', channel=9, note=70, velocity=64, time=1),
    Message('note_on', channel=9, note=42, velocity=38, time=17),
    Message('note_on', channel=9, note=70, velocity=42, time=1),
    Message('note_off', channel=9, note=42, velocity=64, time=5),
    Message('note_off', channel=9, note=70, velocity=64, time=1),
    Message('note_on', channel=9, note=70, velocity=43, time=18),
    Message('note_on', channel=11, note=49, velocity=30, time=1),
    Message('note_off', channel=2, note=49, velocity=64, time=1),
    Message('note_off', channel=2, note=56, velocity=64, time=2),
    Message('pitchwheel', channel=11, pitch=367, time=0),
    Message('note_on', channel=2, note=49, velocity=106, time=1),
    Message('note_off', channel=9, note=70, velocity=64, time=1),
    Message('note_on', channel=2, note=56, velocity=72, time=1),
    Message('pitchwheel', channel=2, pitch=303, time=4),
    Message('note_off', channel=2, note=49, velocity=64, time=6),
    Message('note_off', channel=2, note=56, velocity=64, time=2),
    Message('note_on', channel=9, note=46, velocity=87, time=4),
    Message('note_on', channel=2, note=46, velocity=82, time=1),
    Message('note_on', channel=9, note=70, velocity=71, time=0),
    Message('note_on', channel=2, note=53, velocity=48, time=2),
    Message('note_off', channel=10, note=49, velocity=64, time=0),
    Message('note_off', channel=10, note=56, velocity=64, time=2),
    Message('note_off', channel=9, note=46, velocity=64, time=1),
    Message('note_on', channel=10, note=49, velocity=57, time=0),
    Message('note_off', channel=9, note=70, velocity=64, time=1),
    Message('note_on', channel=10, note=56, velocity=28, time=1),
    Message('pitchwheel', channel=10, pitch=303, time=4),
    Message('note_off', channel=2, note=46, velocity=64, time=1),
    Message('note_off', channel=2, note=53, velocity=64, time=2),
    Message('pitchwheel', channel=2, pitch=159, time=1),
    Message('note_off', channel=10, note=49, velocity=64, time=2),
    Message('note_off', channel=10, note=56, velocity=64, time=2),
    Message('pitchwheel', channel=2, pitch=703, time=4),
    Message('note_on', channel=10, note=46, velocity=36, time=1),
    Message('note_on', channel=9, note=70, velocity=36, time=0),
    Message('note_on', channel=10, note=53, velocity=16, time=2),
    Message('note_off', channel=9, note=70, velocity=64, time=4),
    Message('note_off', channel=10, note=46, velocity=64, time=6),
    Message('note_off', channel=10, note=53, velocity=64, time=2),
    Message('pitchwheel', channel=10, pitch=159, time=1),
    Message('note_off', channel=3, note=75, velocity=64, time=7),
    MetaMessage('lyrics', text='with ', time=1),
    Message('note_on', channel=3, note=73, velocity=56, time=0),
    Message('note_on', channel=9, note=42, velocity=24, time=0),
    Message('pitchwheel', channel=10, pitch=703, time=0),
    Message('note_on', channel=9, note=70, velocity=43, time=1),
    Message('note_off', channel=11, note=49, velocity=64, time=1),
    Message('pitchwheel', channel=2, pitch=431, time=1),
    Message('note_on', channel=2, note=49, velocity=83, time=0),
    Message('note_on', channel=2, note=56, velocity=49, time=2),
    Message('note_on', channel=11, note=49, velocity=41, time=0),
    Message('note_off', channel=9, note=42, velocity=64, time=1),
    Message('note_on', channel=11, note=56, velocity=16, time=1),
    Message('note_off', channel=9, note=70, velocity=64, time=0),
    Message('pitchwheel', channel=11, pitch=303, time=4),
    Message('note_off', channel=11, note=49, velocity=64, time=6),
    Message('note_off', channel=11, note=56, velocity=64, time=2),
    Message('note_on', channel=11, note=46, velocity=20, time=5),
    Message('note_on', channel=9, note=70, velocity=58, time=1),
    Message('pitchwheel', channel=10, pitch=431, time=2),
    Message('note_on', channel=10, note=49, velocity=37, time=0),
    Message('note_on', channel=10, note=56, velocity=16, time=2),
    Message('note_off', channel=9, note=70, velocity=64, time=2),
    Message('note_off', channel=11, note=46, velocity=64, time=5),
    Message('pitchwheel', channel=11, pitch=159, time=3),
    Message('note_off', channel=3, note=73, velocity=64, time=2),
    Message('pitchwheel', channel=11, pitch=703, time=6),
    Message('note_on', channel=9, note=42, velocity=40, time=1),
    Message('note_off', channel=2, note=49, velocity=64, time=0),
    Message('note_on', channel=2, note=49, velocity=82, time=1),
    Message('note_on', channel=9, note=70, velocity=61, time=0),
    MetaMessage('lyrics', text='you. ', time=1),
    MetaMessage('lyrics', text='\r', time=0),
    Message('note_on', channel=3, note=73, velocity=64, time=0),
    Message('note_off', channel=2, note=56, velocity=64, time=0),
    Message('note_on', channel=2, note=56, velocity=48, time=1),
    Message('note_off', channel=9, note=42, velocity=64, time=3),
    Message('note_off', channel=9, note=70, velocity=64, time=1),
    Message('note_off', channel=10, note=49, velocity=64, time=17),
    Message('note_on', channel=10, note=49, velocity=36, time=1),
    Message('note_on', channel=9, note=70, velocity=34, time=0),
    Message('note_off', channel=10, note=56, velocity=64, time=1),
    Message('pitchwheel', channel=11, pitch=431, time=0),
    Message('note_on', channel=11, note=49, velocity=21, time=0),
    Message('note_on', channel=10, note=56, velocity=16, time=1),
    Message('note_off', channel=9, note=70, velocity=64, time=4),
    Message('note_off', channel=2, note=49, velocity=64, time=15),
    Message('note_on', channel=9, note=42, velocity=53, time=2),
    Message('note_off', channel=2, note=56, velocity=64, time=0),
    Message('note_on', channel=2, note=49, velocity=67, time=0),
    Message('note_on', channel=9, note=70, velocity=47, time=1),
    Message('note_on', channel=2, note=56, velocity=33, time=1),
    Message('note_off', channel=9, note=42, velocity=64, time=4),
    Message('note_off', channel=9, note=70, velocity=64, time=1),
    Message('note_off', channel=10, note=49, velocity=64, time=15),
    Message('note_off', channel=11, note=49, velocity=64, time=1),
    Message('note_off', channel=10, note=56, velocity=64, time=1),
    Message('note_on', channel=10, note=49, velocity=24, time=0),
    Message('note_on', channel=11, note=49, velocity=20, time=0),
    Message('note_on', channel=9, note=70, velocity=65, time=1),
    Message('note_off', channel=9, note=70, velocity=64, time=6),
    Message('note_off', channel=2, note=49, velocity=64, time=13),
    Message('note_off', channel=2, note=56, velocity=64, time=2),
    Message('note_on', channel=9, note=46, velocity=78, time=2),
    Message('note_on', channel=2, note=49, velocity=79, time=1),
    Message('note_on', channel=9, note=70, velocity=67, time=0),
    Message('note_on', channel=2, note=56, velocity=45, time=2),
    Message('note_off', channel=9, note=46, velocity=64, time=3),
    Message('note_off', channel=9, note=70, velocity=64, time=1),
    Message('note_off', channel=2, note=49, velocity=64, time=8),
    Message('note_off', channel=2, note=56, velocity=64, time=2),
    Message('note_off', channel=10, note=49, velocity=64, time=3),
    Message('note_off', channel=11, note=49, velocity=64, time=1),
    Message('note_on', channel=11, note=49, velocity=16, time=2),
    Message('note_on', channel=10, note=49, velocity=34, time=2),
    Message('note_on', channel=9, note=70, velocity=36, time=0),
    Message('note_on', channel=10, note=56, velocity=16, time=2),
    Message('note_off', channel=9, note=70, velocity=64, time=4),
    Message('note_off', channel=10, note=49, velocity=64, time=8),
    Message('note_off', channel=10, note=56, velocity=64, time=2),
    Message('note_on', channel=9, note=70, velocity=43, time=8),
    Message('note_on', channel=2, note=49, velocity=77, time=2),
    MetaMessage('lyrics', text='\n', time=1),
    Message('pitchwheel', channel=2, pitch=303, time=1),
    Message('note_on', channel=2, note=56, velocity=43, time=0),
    Message('note_off', channel=9, note=70, velocity=64, time=2),
    Message('note_off', channel=3, note=73, velocity=64, time=8),
    Message('note_off', channel=11, note=49, velocity=64, time=4),
    Message('note_on', channel=11, note=49, velocity=18, time=5),
    Message('note_on', channel=9, note=70, velocity=71, time=1),
    Message('note_on', channel=10, note=49, velocity=32, time=2),
    Message('pitchwheel', channel=10, pitch=303, time=2),
    Message('note_on', channel=10, note=56, velocity=16, time=0),
    Message('note_off', channel=9, note=70, velocity=64, time=2),
    Message('note_off', channel=11, note=49, velocity=64, time=7),
    Message('note_on', channel=9, note=42, velocity=29, time=10),
    Message('note_on', channel=9, note=70, velocity=77, time=1),
    Message('note_off', channel=9, note=42, velocity=64, time=5),
    Message('note_off', channel=9, note=70, velocity=64, time=1),
    Message('note_on', channel=9, note=70, velocity=32, time=18),
    Message('note_on', channel=11, note=49, velocity=16, time=1),
    Message('pitchwheel', channel=11, pitch=303, time=2),
    Message('note_off', channel=9, note=70, velocity=64, time=3),
    Message('note_on', channel=9, note=42, velocity=55, time=17),
    Message('note_on', channel=9, note=70, velocity=44, time=1),
    Message('note_off', channel=9, note=42, velocity=64, time=5),
    Message('note_off', channel=9, note=70, velocity=64, time=1),
    Message('note_on', channel=9, note=70, velocity=58, time=18),
    Message('note_off', channel=2, note=49, velocity=64, time=2),
    Message('note_off', channel=2, note=56, velocity=64, time=2),
    Message('note_on', channel=2, note=49, velocity=109, time=0),
    Message('note_on', channel=2, note=56, velocity=75, time=2),
    Message('note_off', channel=9, note=70, velocity=64, time=0),
    Message('note_off', channel=2, note=49, velocity=64, time=8),
    Message('note_off', channel=2, note=56, velocity=64, time=2),
    Message('pitchwheel', channel=2, pitch=31, time=2),
    Message('note_on', channel=9, note=46, velocity=59, time=5),
    Message('note_on', channel=2, note=46, velocity=65, time=1),
    Message('note_on', channel=9, note=70, velocity=80, time=0),
    Message('note_on', channel=2, note=53, velocity=31, time=2),
    Message('note_off', channel=10, note=49, velocity=64, time=0),
    Message('note_off', channel=10, note=56, velocity=64, time=2),
    Message('note_on', channel=10, note=49, velocity=60, time=0),
    Message('note_off', channel=9, note=46, velocity=64, time=1),
    Message('note_off', channel=2, note=46, velocity=64, time=1),
    Message('note_on', channel=10, note=56, velocity=30, time=0),
    Message('note_off', channel=9, note=70, velocity=64, time=0),
    Message('note_off', channel=2, note=53, velocity=64, time=2),
    Message('pitchwheel', channel=2, pitch=-367, time=3),
    Message('note_off', channel=10, note=49, velocity=64, time=3),
    Message('note_off', channel=10, note=56, velocity=64, time=2),
    Message('pitchwheel', channel=10, pitch=31, time=2),
    Message('note_on', channel=10, note=46, velocity=22, time=6),
    Message('note_on', channel=9, note=70, velocity=38, time=0),
    Message('note_off', channel=10, note=46, velocity=64, time=6),
    Message('note_off', channel=9, note=70, velocity=64, time=0),
    Message('pitchwheel', channel=10, pitch=-367, time=5),
    Message('note_on', channel=9, note=46, velocity=84, time=12),
    Message('note_on', channel=9, note=70, velocity=51, time=1),
    Message('note_off', channel=11, note=49, velocity=64, time=1),
    Message('note_on', channel=2, note=49, velocity=86, time=1),
    Message('note_on', channel=11, note=49, velocity=43, time=1),
    Message('pitchwheel', channel=2, pitch=367, time=1),
    Message('note_on', channel=2, note=56, velocity=52, time=0),
    Message('note_off', channel=9, note=46, velocity=64, time=1),
    Message('note_on', channel=11, note=56, velocity=16, time=0),
    Message('note_off', channel=9, note=70, velocity=64, time=1),
    Message('note_off', channel=11, note=49, velocity=64, time=7),
    Message('note_off', channel=11, note=56, velocity=64, time=2),
    Message('pitchwheel', channel=11, pitch=31, time=2),
    Message('note_on', channel=11, note=46, velocity=16, time=6),
    Message('note_on', channel=9, note=70, velocity=51, time=1),
    Message('note_on', channel=10, note=49, velocity=40, time=2),
    Message('pitchwheel', channel=10, pitch=367, time=2),
    Message('note_on', channel=10, note=56, velocity=16, time=0),
    Message('note_off', channel=11, note=46, velocity=64, time=1),
    Message('note_off', channel=9, note=70, velocity=64, time=1),
    Message('pitchwheel', channel=11, pitch=-367, time=4),
    Message('note_off', channel=2, note=49, velocity=64, time=11),
    Message('note_off', channel=2, note=56, velocity=64, time=2),
    Message('note_on', channel=9, note=42, velocity=47, time=1),
    Message('note_on', channel=9, note=70, velocity=80, time=0),
    Message('note_on', channel=2, note=49, velocity=96, time=1),
    Message('note_on', channel=2, note=56, velocity=62, time=2),
    Message('note_off', channel=9, note=42, velocity=64, time=3),
    Message('note_off', channel=9, note=70, velocity=64, time=0),
    Message('note_off', channel=10, note=49, velocity=64, time=15),
    Message('note_off', channel=10, note=56, velocity=64, time=2),
    Message('note_on', channel=9, note=70, velocity=43, time=1),
    Message('note_on', channel=10, note=49, velocity=49, time=1),
    Message('note_on', channel=11, note=49, velocity=24, time=0),
    Message('note_on', channel=10, note=56, velocity=19, time=2),
    Message('pitchwheel', channel=11, pitch=367, time=0),
    Message('note_off', channel=9, note=70, velocity=64, time=3),
    Message('note_on', channel=9, note=42, velocity=63, time=17),
    Message('note_on', channel=9, note=70, velocity=43, time=1),
    Message('note_off', channel=9, note=42, velocity=64, time=5),
    MetaMessage('lyrics', text='I ', time=1),
    Message('note_on', channel=3, note=77, velocity=73, time=0),
    Message('note_off', channel=9, note=70, velocity=64, time=0),
    Message('note_off', channel=11, note=49, velocity=64, time=14),
    Message('note_on', channel=11, note=49, velocity=32, time=4),
    Message('note_on', channel=9, note=70, velocity=67, time=0),
    Message('note_on', channel=11, note=56, velocity=16, time=2),
    Message('note_off', channel=9, note=70, velocity=64, time=4),
    Message('note_off', channel=2, note=49, velocity=64, time=15),
    Message('note_off', channel=2, note=56, velocity=64, time=2),
    Message('note_on', channel=9, note=46, velocity=41, time=1),
    Message('note_on', channel=9, note=70, velocity=83, time=0),
    Message('note_on', channel=2, note=49, velocity=98, time=3),
    Message('note_on', channel=2, note=56, velocity=64, time=2),
    Message('note_off', channel=9, note=46, velocity=64, time=1),
    Message('note_off', channel=9, note=70, velocity=64, time=0),
    Message('note_off', channel=3, note=77, velocity=64, time=15),
    Message('note_off', channel=10, note=49, velocity=64, time=0),
    Message('note_off', channel=10, note=56, velocity=64, time=2),
    Message('note_on', channel=9, note=70, velocity=22, time=1),
    Message('note_on', channel=10, note=49, velocity=50, time=3),
    MetaMessage('lyrics', text='have ', time=1),
    Message('note_on', channel=3, note=80, velocity=77, time=0),
    Message('note_on', channel=10, note=56, velocity=21, time=1),
    Message('note_off', channel=9, note=70, velocity=64, time=1),
    Message('note_off', channel=2, note=49, velocity=64, time=5),
    Message('note_off', channel=2, note=56, velocity=64, time=2),
    Message('note_on', channel=9, note=46, velocity=90, time=10),
    Message('note_on', channel=9, note=70, velocity=58, time=1),
    Message('note_off', channel=9, note=46, velocity=64, time=5),
    Message('note_off', channel=9, note=70, velocity=64, time=1),
    Message('note_off', channel=10, note=49, velocity=64, time=5),
    Message('note_off', channel=10, note=56, velocity=64, time=2),
    Message('note_off', channel=11, note=49, velocity=64, time=7),
    Message('note_off', channel=11, note=56, velocity=64, time=2),
    Message('note_on', channel=9, note=70, velocity=75, time=2),
    Message('note_on', channel=11, note=49, velocity=34, time=2),
    Message('note_on', channel=11, note=56, velocity=16, time=2),
    Message('note_off', channel=9, note=70, velocity=64, time=2),
    Message('note_off', channel=3, note=80, velocity=64, time=4),
    MetaMessage('lyrics', text='run, ', time=13),
    Message('note_on', channel=3, note=80, velocity=91, time=0),
    Message('note_on', channel=9, note=42, velocity=78, time=1),
    Message('note_on', channel=2, note=49, velocity=95, time=0),
    Message('note_on', channel=9, note=70, velocity=51, time=0),
    Message('note_on', channel=2, note=56, velocity=61, time=2),
    Message('note_off', channel=9, note=42, velocity=64, time=4),
    Message('note_off', channel=9, note=70, velocity=64, time=0),
    Message('pitchwheel', channel=2, pitch=-58, time=1),
    Message('note_off', channel=11, note=49, velocity=64, time=3),
    Message('note_off', channel=11, note=56, velocity=64, time=2),
    Message('note_on', channel=10, note=49, velocity=48, time=12),
    Message('note_on', channel=9, note=70, velocity=21, time=0),
    Message('note_on', channel=10, note=56, velocity=18, time=2),
    Message('note_off', channel=9, note=70, velocity=64, time=4),
    Message('pitchwheel', channel=10, pitch=-58, time=1),
    Message('note_on', channel=9, note=42, velocity=53, time=16),
    Message('note_off', channel=2, note=49, velocity=64, time=0),
    Message('note_on', channel=9, note=70, velocity=42, time=1),
    Message('note_off', channel=2, note=56, velocity=64, time=1),
    Message('note_off', channel=9, note=42, velocity=64, time=4),
    Message('note_off', channel=9, note=70, velocity=64, time=1),
    Message('note_off', channel=3, note=80, velocity=64, time=13),
    Message('pitchwheel', channel=2, pitch=431, time=1),
    Message('note_on', channel=2, note=49, velocity=91, time=2),
    Message('note_off', channel=10, note=49, velocity=64, time=1),
    Message('note_on', channel=11, note=49, velocity=31, time=0),
    Message('note_on', channel=2, note=56, velocity=57, time=1),
    Message('note_on', channel=9, note=70, velocity=43, time=0),
    Message('note_off', channel=10, note=56, velocity=64, time=1),
    Message('note_on', channel=11, note=56, velocity=16, time=0),
    Message('note_on', channel=3, note=77, velocity=76, time=2),
    Message('pitchwheel', channel=11, pitch=-58, time=3),
    Message('note_off', channel=9, note=70, velocity=64, time=0),
    Message('note_off', channel=2, note=49, velocity=64, time=5),
    Message('note_off', channel=2, note=56, velocity=64, time=2),
    Message('pitchwheel', channel=10, pitch=431, time=7),
    Message('note_on', channel=10, note=49, velocity=44, time=2),
    Message('note_on', channel=9, note=46, velocity=73, time=1),
    Message('note_on', channel=10, note=56, velocity=16, time=1),
    Message('note_on', channel=9, note=70, velocity=71, time=0),
    Message('note_off', channel=9, note=46, velocity=64, time=5),
    Message('note_off', channel=9, note=70, velocity=64, time=1),
    Message('note_off', channel=10, note=49, velocity=64, time=5),
    Message('note_off', channel=10, note=56, velocity=64, time=2),
    Message('note_off', channel=11, note=49, velocity=64, time=9),
    Message('note_off', channel=11, note=56, velocity=64, time=2),
    Message('note_on', channel=9, note=70, velocity=36, time=0),
    Message('note_off', channel=9, note=70, velocity=64, time=6),
    Message('note_off', channel=3, note=77, velocity=64, time=11),
    Message('pitchwheel', channel=11, pitch=431, time=2),
    Message('note_on', channel=11, note=49, velocity=28, time=2),
    Message('note_on', channel=2, note=49, velocity=109, time=1),
    Message('note_on', channel=9, note=42, velocity=59, time=1),
    Message('note_on', channel=2, note=56, velocity=75, time=1),
    Message('note_on', channel=9, note=70, velocity=43, time=0),
    Message('note_off', channel=9, note=42, velocity=64, time=5),
    Message('note_off', channel=9, note=70, velocity=64, time=1),
    Message('note_off', channel=11, note=49, velocity=64, time=4),
    Message('note_on', channel=10, note=49, velocity=60, time=12),
    Message('note_on', channel=10, note=56, velocity=30, time=2),
    Message('note_on', channel=9, note=70, velocity=58, time=0),
    Message('note_off', channel=9, note=70, velocity=64, time=6),
    Message('note_off', channel=2, note=49, velocity=64, time=16),
    Message('note_on', channel=2, note=49, velocity=95, time=1),
    Message('note_off', channel=2, note=56, velocity=64, time=1),
    Message('note_on', channel=9, note=70, velocity=61, time=0),
    Message('note_on', channel=2, note=56, velocity=61, time=1),
    Message('note_off', channel=9, note=70, velocity=64, time=5),
    Message('note_on', channel=11, note=49, velocity=43, time=15),
    Message('note_off', channel=10, note=49, velocity=64, time=1),
    Message('note_on', channel=10, note=49, velocity=48, time=1),
    Message('note_on', channel=11, note=56, velocity=16, time=0),
    Message('note_off', channel=10, note=56, velocity=64, time=1),
    Message('note_on', channel=9, note=70, velocity=34, time=0),
    Message('note_on', channel=10, note=56, velocity=18, time=1),
    Message('note_off', channel=9, note=70, velocity=64, time=5),
    Message('note_off', channel=2, note=49, velocity=64, time=16),
    Message('note_on', channel=9, note=42, velocity=65, time=1),
    MetaMessage('lyrics', text='I ', time=1),
    Message('note_on', channel=3, note=82, velocity=99, time=0),
    Message('note_off', channel=2, note=56, velocity=64, time=0),
    Message('note_on', channel=9, note=70, velocity=47, time=0),
    Message('pitchwheel', channel=2, pitch=575, time=2),
    Message('note_on', channel=2, note=49, velocity=39, time=0),
    Message('note_on', channel=2, note=56, velocity=19, time=2),
    Message('note_off', channel=9, note=42, velocity=64, time=1),
    Message('note_off', channel=9, note=70, velocity=64, time=1),
    Message('note_off', channel=11, note=49, velocity=64, time=15),
    Message('note_off', channel=10, note=49, velocity=64, time=1),
    Message('note_on', channel=11, note=49, velocity=31, time=0),
    Message('note_off', channel=11, note=56, velocity=64, time=1),
    Message('note_off', channel=10, note=56, velocity=64, time=1),
    Message('note_on', channel=11, note=56, velocity=16, time=0),
    Message('note_on', channel=9, note=70, velocity=65, time=0),
    Message('pitchwheel', channel=10, pitch=575, time=2),
    Message('note_off', channel=9, note=70, velocity=64, time=4),
    Message('pitchwheel', channel=2, pitch=367, time=5),
    Message('note_off', channel=2, note=49, velocity=64, time=10),
    Message('note_on', channel=9, note=46, velocity=87, time=2),
    Message('note_off', channel=2, note=56, velocity=64, time=0),
    Message('note_on', channel=9, note=70, velocity=67, time=1),
    Message('pitchwheel', channel=2, pitch=431, time=1),
    Message('note_on', channel=2, note=49, velocity=99, time=0),
    Message('note_on', channel=2, note=56, velocity=65, time=2),
    Message('note_off', channel=9, note=46, velocity=64, time=2),
    Message('note_off', channel=9, note=70, velocity=64, time=1),
    Message('pitchwheel', channel=10, pitch=367, time=5),
    Message('note_off', channel=3, note=82, velocity=64, time=3),
    Message('note_off', channel=2, note=49, velocity=64, time=2),
    Message('note_off', channel=2, note=56, velocity=64, time=2),
    Message('note_off', channel=11, note=49, velocity=64, time=3),
    Message('note_off', channel=11, note=56, velocity=64, time=2),
    MetaMessage('lyrics', text='have ', time=1),
    Message('note_on', channel=3, note=80, velocity=84, time=0),
    Message('note_on', channel=9, note=70, velocity=36, time=0),
    Message('pitchwheel', channel=10, pitch=431, time=1),
    Message('note_on', channel=10, note=49, velocity=51, time=0),
    Message('pitchwheel', channel=11, pitch=575, time=0),
    Message('note_on', channel=10, note=56, velocity=22, time=2),
    Message('note_off', channel=9, note=70, velocity=64, time=3),
    Message('note_off', channel=10, note=49, velocity=64, time=10),
    Message('note_off', channel=10, note=56, velocity=64, time=2),
    Message('note_on', channel=9, note=42, velocity=58, time=5),
    Message('note_on', channel=2, note=49, velocity=93, time=1),
    Message('note_on', channel=9, note=70, velocity=43, time=0),
    Message('note_on', channel=2, note=56, velocity=59, time=2),
    Message('note_off', channel=9, note=42, velocity=64, time=3),
    Message('note_off', channel=9, note=70, velocity=64, time=1),
    Message('pitchwheel', channel=11, pitch=367, time=4),
    Message('note_on', channel=10, note=49, velocity=46, time=14),
    Message('pitchwheel', channel=11, pitch=431, time=0),
    Message('note_on', channel=11, note=49, velocity=35, time=0),
    Message('note_on', channel=9, note=70, velocity=71, time=0),
    Message('note_on', channel=10, note=56, velocity=17, time=2),
    Message('note_on', channel=11, note=56, velocity=16, time=0),
    Message('note_off', channel=9, note=70, velocity=64, time=4),
    Message('note_off', channel=11, note=49, velocity=64, time=9),
    Message('note_off', channel=11, note=56, velocity=64, time=2),
    Message('note_off', channel=2, note=49, velocity=64, time=3),
    Message('note_off', channel=3, note=80, velocity=64, time=2),
    Message('note_off', channel=2, note=56, velocity=64, time=0),
    Message('note_on', channel=9, note=42, velocity=73, time=1),
    Message('note_on', channel=2, note=49, velocity=96, time=1),
    Message('note_on', channel=9, note=70, velocity=77, time=0),
    Message('note_on', channel=2, note=56, velocity=62, time=2),
    Message('note_off', channel=9, note=42, velocity=64, time=3),
    MetaMessage('lyrics', text='crawled. ', time=1),
    MetaMessage('lyrics', text='\r', time=0),
    Message('note_on', channel=3, note=77, velocity=66, time=0),
    Message('note_off', channel=9, note=70, velocity=64, time=0),
    Message('note_off', channel=10, note=49, velocity=64, time=14),
    Message('note_off', channel=10, note=56, velocity=64, time=2),
    Message('note_on', channel=11, note=49, velocity=30, time=1),
    Message('note_on', channel=10, note=49, velocity=49, time=1),
    Message('note_on', channel=9, note=70, velocity=32, time=0),
    Message('note_on', channel=10, note=56, velocity=19, time=2),
    Message('note_off', channel=9, note=70, velocity=64, time=4),
    Message('note_on', channel=9, note=42, velocity=41, time=17),
    Message('note_on', channel=9, note=70, velocity=44, time=1),
    Message('note_off', channel=9, note=42, velocity=64, time=5),
    Message('note_off', channel=9, note=70, velocity=64, time=1),
    Message('note_off', channel=11, note=49, velocity=64, time=13),
    Message('note_on', channel=11, note=49, velocity=32, time=4),
    Message('note_on', channel=9, note=70, velocity=58, time=1),
    Message('note_off', channel=2, note=49, velocity=64, time=1),
    Message('note_on', channel=11, note=56, velocity=16, time=0),
    Message('note_on', channel=2, note=49, velocity=96, time=1),
    Message('note_off', channel=2, note=56, velocity=64, time=1),
    Message('note_on', channel=2, note=56, velocity=62, time=1),
    Message('note_off', channel=9, note=70, velocity=64, time=2),
    Message('note_off', channel=2, note=49, velocity=64, time=2),
    Message('note_off', channel=2, note=56, velocity=64, time=2),
    Message('note_on', channel=9, note=46, velocity=75, time=14),
    Message('note_on', channel=9, note=70, velocity=80, time=0),
    Message('note_off', channel=10, note=49, velocity=64, time=1),
    Message('note_on', channel=10, note=49, velocity=49, time=1),
    Message('note_off', channel=3, note=77, velocity=64, time=1),
    Message('note_off', channel=10, note=56, velocity=64, time=0),
    Message('note_on', channel=10, note=56, velocity=19, time=1),
    Message('note_off', channel=9, note=46, velocity=64, time=2),
    Message('note_off', channel=9, note=70, velocity=64, time=0),
    Message('note_off', channel=10, note=49, velocity=64, time=2),
    Message('note_off', channel=10, note=56, velocity=64, time=2),
    Message('note_on', channel=9, note=70, velocity=38, time=14),
    Message('note_off', channel=9, note=70, velocity=64, time=6),
    Message('pitchwheel', channel=2, pitch=367, time=17),
    Message('note_on', channel=2, note=49, velocity=81, time=0),
    Message('note_off', channel=11, note=49, velocity=64, time=1),
    Message('note_on', channel=9, note=70, velocity=51, time=0),
    Message('note_on', channel=9, note=42, velocity=67, time=1),
    Message('note_on', channel=2, note=56, velocity=47, time=0),
    Message('note_on', channel=11, note=49, velocity=32, time=0),
    Message('note_off', channel=11, note=56, velocity=64, time=1),
    Message('note_on', channel=11, note=56, velocity=16, time=1),
    Message('note_off', channel=9, note=70, velocity=64, time=3),
    Message('note_off', channel=9, note=42, velocity=64, time=1),
    Message('note_off', channel=11, note=49, velocity=64, time=0),
    Message('note_off', channel=11, note=56, velocity=64, time=2),
    Message('pitchwheel', channel=10, pitch=367, time=14),
    Message('note_on', channel=10, note=49, velocity=36, time=0),
    Message('note_on', channel=9, note=70, velocity=51, time=1),
    Message('note_on', channel=10, note=56, velocity=16, time=1),
    Message('note_off', channel=9, note=70, velocity=64, time=5),
    Message('note_off', channel=2, note=49, velocity=64, time=16),
    Message('note_on', channel=9, note=42, velocity=40, time=2),
    Message('note_off', channel=2, note=56, velocity=64, time=0),
    Message('note_on', channel=2, note=49, velocity=76, time=0),
    Message('note_on', channel=9, note=70, velocity=80, time=0),
    Message('note_on', channel=2, note=56, velocity=42, time=2),
    Message('note_off', channel=9, note=42, velocity=64, time=4),
    Message('note_off', channel=9, note=70, velocity=64, time=0),
    Message('note_off', channel=10, note=49, velocity=64, time=16),
    Message('pitchwheel', channel=11, pitch=367, time=0),
    Message('note_on', channel=11, note=49, velocity=19, time=0),
    Message('note_off', channel=10, note=56, velocity=64, time=2),
    Message('note_on', channel=10, note=49, velocity=31, time=0),
    Message('note_on', channel=9, note=70, velocity=43, time=0),
    Message('note_on', channel=10, note=56, velocity=16, time=2),
    Message('note_off', channel=9, note=70, velocity=64, time=4),
    Message('note_off', channel=2, note=49, velocity=64, time=17),
    MetaMessage('lyrics', text='I ', time=1),
    Message('note_on', channel=3, note=77, velocity=78, time=0),
    Message('note_on', channel=9, note=42, velocity=59, time=0),
    Message('note_on', channel=9, note=70, velocity=43, time=0),
    Message('note_off', channel=2, note=56, velocity=64, time=1),
    Message('note_on', channel=2, note=49, velocity=50, time=1),
    Message('note_on', channel=2, note=56, velocity=19, time=2),
    Message('note_off', channel=9, note=42, velocity=64, time=2),
    Message('note_off', channel=9, note=70, velocity=64, time=0),
    Message('note_off', channel=11, note=49, velocity=64, time=15),
    Message('note_off', channel=10, note=49, velocity=64, time=2),
    Message('note_on', channel=11, note=49, velocity=16, time=0),
    Message('note_on', channel=9, note=70, velocity=67, time=1),
    Message('note_off', channel=10, note=56, velocity=64, time=1),
    Message('note_on', channel=10, note=49, velocity=16, time=1),
    Message('note_off', channel=9, note=70, velocity=64, time=4),
    Message('note_off', channel=2, note=49, velocity=64, time=15),
    Message('note_off', channel=2, note=56, velocity=64, time=2),
    Message('note_on', channel=9, note=70, velocity=83, time=1),
    Message('note_on', channel=9, note=46, velocity=49, time=1),
    Message('note_on', channel=2, note=49, velocity=91, time=1),
    Message('note_on', channel=2, note=56, velocity=57, time=2),
    Message('note_off', channel=9, note=70, velocity=64, time=2),
    Message('note_off', channel=9, note=46, velocity=64, time=1),
    Message('note_off', channel=2, note=49, velocity=64, time=7),
    Message('note_off', channel=2, note=56, velocity=64, time=2),
    Message('note_off', channel=10, note=49, velocity=64, time=5),
    Message('note_off', channel=3, note=77, velocity=64, time=1),
    Message('note_off', channel=11, note=49, velocity=64, time=0),
    Message('note_on', channel=9, note=70, velocity=22, time=2),
    MetaMessage('lyrics', text='have ', time=1),
    Message('note_on', channel=3, note=80, velocity=81, time=0),
    Message('note_on', channel=10, note=49, velocity=44, time=1),
    Message('note_on', channel=10, note=56, velocity=16, time=2),
    Message('note_off', channel=9, note=70, velocity=64, time=2),
    Message('note_off', channel=10, note=49, velocity=64, time=8),
    Message('note_off', channel=10, note=56, velocity=64, time=2),
    Message('note_on', channel=9, note=46, velocity=87, time=8),
    Message('note_on', channel=9, note=70, velocity=58, time=0),
    Message('note_on', channel=2, note=49, velocity=81, time=2),
    Message('note_on', channel=2, note=56, velocity=47, time=2),
    Message('note_off', channel=9, note=46, velocity=64, time=2),
    Message('note_off', channel=9, note=70, velocity=64, time=0),
    Message('note_on', channel=9, note=70, velocity=75, time=18),
    Message('note_on', channel=11, note=49, velocity=28, time=1),
    Message('note_on', channel=10, note=49, velocity=36, time=1),
    Message('note_on', channel=10, note=56, velocity=16, time=2),
    Message('note_off', channel=3, note=80, velocity=64, time=1),
    Message('note_off', channel=9, note=70, velocity=64, time=1),
    Message('note_off', channel=11, note=49, velocity=64, time=7),
    MetaMessage('lyrics', text='scaled ', time=7),
    Message('note_on', channel=3, note=80, velocity=91, time=0),
    Message('note_off', channel=2, note=49, velocity=64, time=2),
    Message('note_off', channel=2, note=56, velocity=64, time=2),
    Message('note_on', channel=9, note=70, velocity=51, time=0),
    Message('note_on', channel=9, note=42, velocity=69, time=1),
    Message('note_on', channel=2, note=49, velocity=91, time=2),
    Message('note_on', channel=2, note=56, velocity=57, time=2),
    Message('note_off', channel=9, note=70, velocity=64, time=1),
    Message('note_off', channel=9, note=42, velocity=64, time=1),
    Message('note_off', channel=10, note=49, velocity=64, time=15),
    Message('note_off', channel=10, note=56, velocity=64, time=2),
    Message('note_on', channel=9, note=70, velocity=21, time=0),
    Message('note_on', channel=11, note=49, velocity=19, time=1),
    Message('note_on', channel=10, note=49, velocity=44, time=2),
    Message('note_on', channel=10, note=56, velocity=16, time=2),
    Message('note_off', channel=9, note=70, velocity=64, time=1),
    Message('note_on', channel=9, note=42, velocity=48, time=17),
    Message('note_on', channel=9, note=70, velocity=42, time=1),
    Message('note_off', channel=9, note=42, velocity=64, time=5),
    Message('note_off', channel=9, note=70, velocity=64, time=1),
    Message('note_off', channel=3, note=80, velocity=64, time=11),
    Message('note_on', channel=3, note=77, velocity=71, time=3),
    Message('note_off', channel=11, note=49, velocity=64, time=1),
    Message('note_off', channel=2, note=49, velocity=64, time=3),
    Message('note_on', channel=9, note=70, velocity=43, time=0),
    Message('note_off', channel=2, note=56, velocity=64, time=2),
    Message('note_on', channel=2, note=49, velocity=115, time=0),
    Message('note_on', channel=11, note=49, velocity=28, time=0),
    Message('note_on', channel=2, note=56, velocity=81, time=2),
    Message('note_off', channel=9, note=70, velocity=64, time=2),
    Message('note_off', channel=2, note=49, velocity=64, time=6),
    Message('pitchwheel', channel=2, pitch=31, time=1),
    Message('note_off', channel=2, note=56, velocity=64, time=1),
    Message('note_on', channel=9, note=46, velocity=75, time=10),
    Message('note_off', channel=10, note=49, velocity=64, time=0),
    Message('note_on', channel=9, note=70, velocity=71, time=0),
    Message('note_on', channel=2, note=44, velocity=74, time=2),
    Message('note_off', channel=10, note=56, velocity=64, time=0),
    Message('note_on', channel=10, note=49, velocity=65, time=0),
    Message('note_on', channel=2, note=51, velocity=40, time=2),
    Message('note_on', channel=10, note=56, velocity=36, time=0),
    Message('pitchwheel', channel=2, pitch=-47, time=1),
    Message('note_off', channel=9, note=46, velocity=64, time=1),
    Message('note_off', channel=9, note=70, velocity=64, time=0),
    Message('note_off', channel=2, note=44, velocity=64, time=2),
    Message('note_off', channel=2, note=51, velocity=64, time=2),
    Message('note_off', channel=10, note=49, velocity=64, time=2),
    Message('pitchwheel', channel=10, pitch=31, time=1),
    Message('note_off', channel=10, note=56, velocity=64, time=1),
    Message('note_on', channel=9, note=70, velocity=36, time=10),
    Message('note_on', channel=10, note=44, velocity=30, time=2),
    Message('note_off', channel=3, note=77, velocity=64, time=3),
    Message('pitchwheel', channel=10, pitch=-47, time=0),
    Message('note_off', channel=9, note=70, velocity=64, time=1),
    Message('note_off', channel=10, note=44, velocity=64, time=2),
    Message('note_on', channel=9, note=42, velocity=51, time=15),
    Message('note_off', channel=11, note=49, velocity=64, time=0),
    Message('pitchwheel', channel=2, pitch=431, time=1),
    Message('note_on', channel=2, note=49, velocity=88, time=0),
    Message('note_on', channel=9, note=70, velocity=43, time=0),
    Message('note_on', channel=11, note=49, velocity=49, time=1),
    Message('note_on', channel=2, note=56, velocity=54, time=1),
    Message('note_on', channel=11, note=56, velocity=19, time=1),
    Message('note_off', channel=9, note=42, velocity=64, time=2),
    Message('note_off', channel=9, note=70, velocity=64, time=1),
    Message('note_off', channel=11, note=49, velocity=64, time=5),
    Message('pitchwheel', channel=11, pitch=31, time=1),
    Message('note_off', channel=11, note=56, velocity=64, time=1),
    Message('pitchwheel', channel=10, pitch=431, time=11),
    Message('note_on', channel=10, note=49, velocity=42, time=0),
    Message('note_on', channel=9, note=70, velocity=58, time=0),
    Message('note_on', channel=11, note=44, velocity=16, time=1),
    Message('note_on', channel=10, note=56, velocity=16, time=1),
    Message('pitchwheel', channel=11, pitch=-47, time=2),
    Message('note_off', channel=9, note=70, velocity=64, time=2),
    Message('note_off', channel=11, note=44, velocity=64, time=1),
    Message('note_off', channel=2, note=49, velocity=64, time=16),
    Message('note_on', channel=9, note=42, velocity=84, time=1),
    Message('note_on', channel=9, note=70, velocity=61, time=0),
    Message('note_off', channel=2, note=56, velocity=64, time=1),
    Message('note_on', channel=2, note=49, velocity=81, time=0),
    Message('note_on', channel=2, note=56, velocity=47, time=2),
    Message('note_off', channel=9, note=42, velocity=64, time=3),
    Message('note_off', channel=9, note=70, velocity=64, time=0),
    Message('note_off', channel=10, note=49, velocity=64, time=17),
    Message('pitchwheel', channel=11, pitch=431, time=0),
    Message('note_on', channel=11, note=49, velocity=25, time=0),
    Message('note_on', channel=9, note=70, velocity=34, time=1),
    Message('note_on', channel=9, note=42, velocity=52, time=1),
    Message('note_off', channel=10, note=56, velocity=64, time=0),
    Message('note_on', channel=10, note=49, velocity=36, time=0),
    Message('note_on', channel=10, note=56, velocity=16, time=2),
    Message('note_off', channel=9, note=70, velocity=64, time=3),
    Message('note_off', channel=9, note=42, velocity=64, time=1),
    MetaMessage('lyrics', text='these ', time=15),
    Message('note_on', channel=3, note=82, velocity=81, time=0),
    Message('note_on', channel=9, note=70, velocity=47, time=2),
    Message('note_on', channel=9, note=42, velocity=39, time=1),
    Message('note_off', channel=9, note=70, velocity=64, time=5),
    Message('note_off', channel=9, note=42, velocity=64, time=1),
    Message('note_off', channel=11, note=49, velocity=64, time=15),
    Message('note_on', channel=11, note=49, velocity=19, time=2),
    Message('note_on', channel=9, note=70, velocity=65, time=0),
    Message('note_off', channel=9, note=70, velocity=64, time=6),
    Message('note_off', channel=2, note=49, velocity=64, time=15),
    Message('note_on', channel=9, note=46, velocity=73, time=2),
    Message('note_off', channel=2, note=56, velocity=64, time=0),
    Message('note_on', channel=9, note=70, velocity=67, time=1),
    Message('note_on', channel=2, note=49, velocity=66, time=1),
    Message('note_on', channel=2, note=56, velocity=32, time=2),
    Message('note_off', channel=9, note=46, velocity=64, time=2),
    Message('note_off', channel=9, note=70, velocity=64, time=1),
    Message('note_off', channel=3, note=82, velocity=64, time=5),
    Message('note_off', channel=2, note=49, velocity=64, time=3),
    Message('note_off', channel=2, note=56, velocity=64, time=2),
    Message('note_off', channel=10, note=49, velocity=64, time=5),
    Message('note_off', channel=10, note=56, velocity=64, time=2),
    MetaMessage('lyrics', text='cit', time=1),
    Message('note_on', channel=3, note=80, velocity=87, time=0),
    Message('note_on', channel=9, note=70, velocity=36, time=0),
    Message('note_on', channel=10, note=49, velocity=23, time=1),
    Message('note_off', channel=9, note=70, velocity=64, time=5),
    Message('note_off', channel=10, note=49, velocity=64, time=8),
    Message('note_on', channel=9, note=42, velocity=87, time=10),
    Message('note_on', channel=9, note=70, velocity=43, time=0),
    Message('pitchwheel', channel=2, pitch=367, time=1),
    Message('note_on', channel=2, note=49, velocity=81, time=0),
    Message('note_on', channel=2, note=56, velocity=47, time=2),
    Message('note_off', channel=9, note=42, velocity=64, time=3),
    Message('note_off', channel=9, note=70, velocity=64, time=0),
    Message('note_off', channel=3, note=80, velocity=64, time=3),
    MetaMessage('lyrics', text='y ', time=1),
    Message('note_on', channel=3, note=77, velocity=73, time=0),
    Message('note_off', channel=11, note=49, velocity=64, time=10),
    Message('note_on', channel=11, note=49, velocity=16, time=4),
    Message('note_on', channel=9, note=70, velocity=71, time=0),
    Message('pitchwheel', channel=10, pitch=367, time=1),
    Message('note_on', channel=10, note=49, velocity=36, time=0),
    Message('note_on', channel=10, note=56, velocity=16, time=2),
    Message('note_off', channel=9, note=70, velocity=64, time=3),
    Message('note_off', channel=11, note=49, velocity=64, time=7),
    Message('note_off', channel=2, note=49, velocity=64, time=8),
    Message('note_off', channel=2, note=56, velocity=64, time=2),
    Message('note_on', channel=9, note=42, velocity=27, time=1),
    Message('note_on', channel=9, note=70, velocity=77, time=0),
    Message('note_on', channel=2, note=49, velocity=88, time=2),
    MetaMessage('lyrics', text='walls, ', time=1),
    Message('note_off', channel=3, note=77, velocity=64, time=0),
    Message('note_on', channel=3, note=75, velocity=73, time=0),
    Message('note_on', channel=2, note=56, velocity=54, time=1),
    Message('note_off', channel=9, note=42, velocity=64, time=2),
    Message('note_off', channel=9, note=70, velocity=64, time=0),
    Message('note_off', channel=10, note=49, velocity=64, time=15),
    Message('note_off', channel=10, note=56, velocity=64, time=2),
    Message('pitchwheel', channel=11, pitch=367, time=1),
    Message('note_on', channel=11, note=49, velocity=19, time=0),
    Message('note_on', channel=9, note=70, velocity=32, time=0),
    Message('note_on', channel=10, note=49, velocity=42, time=2),
    Message('note_on', channel=10, note=56, velocity=16, time=2),
    Message('note_off', channel=9, note=70, velocity=64, time=2),
    Message('note_on', channel=9, note=42, velocity=78, time=17),
    Message('note_on', channel=9, note=70, velocity=44, time=1),
    Message('note_off', channel=9, note=42, velocity=64, time=5),
    Message('note_off', channel=9, note=70, velocity=64, time=1),
    Message('note_on', channel=3, note=73, velocity=38, time=8),
    Message('note_off', channel=3, note=75, velocity=64, time=1),
    Message('note_off', channel=11, note=49, velocity=64, time=5),
    Message('note_on', channel=9, note=70, velocity=58, time=4),
    Message('note_off', channel=2, note=49, velocity=64, time=1),
    Message('note_on', channel=11, note=49, velocity=25, time=0),
    Message('note_on', channel=2, note=49, velocity=104, time=1),
    Message('note_off', channel=2, note=56, velocity=64, time=1),
    Message('note_on', channel=2, note=56, velocity=70, time=1),
    Message('note_off', channel=9, note=70, velocity=64, time=2),
    Message('note_off', channel=2, note=49, velocity=64, time=6),
    Message('note_off', channel=2, note=56, velocity=64, time=2),
    Message('note_on', channel=9, note=46, velocity=75, time=9),
    Message('note_on', channel=9, note=70, velocity=80, time=1),
    Message('note_off', channel=10, note=49, velocity=64, time=1),
    Message('note_on', channel=10, note=49, velocity=55, time=1),
    Message('note_off', channel=10, note=56, velocity=64, time=1),
    Message('note_on', channel=10, note=56, velocity=26, time=1),
    Message('note_off', channel=9, note=46, velocity=64, time=1),
    Message('note_off', channel=9, note=70, velocity=64, time=1),
    Message('note_off', channel=10, note=49, velocity=64, time=6),
    Message('note_off', channel=10, note=56, velocity=64, time=2),
    Message('note_on', channel=9, note=70, velocity=38, time=10),
    Message('note_off', channel=9, note=70, velocity=64, time=6),
    Message('note_on', channel=9, note=46, velocity=84, time=17),
    Message('note_off', channel=11, note=49, velocity=64, time=1),
    Message('note_on', channel=9, note=70, velocity=51, time=0),
    Message('note_on', channel=2, note=49, velocity=80, time=1),
    Message('note_on', channel=11, note=49, velocity=39, time=0),
    Message('note_on', channel=2, note=56, velocity=46, time=2),
    Message('note_on', channel=11, note=56, velocity=16, time=0),
    Message('note_off', channel=9, note=46, velocity=64, time=2),
    Message('note_off', channel=9, note=70, velocity=64, time=1),
    Message('note_off', channel=3, note=73, velocity=64, time=5),
    Message('note_off', channel=11, note=49, velocity=64, time=0),
    Message('note_off', channel=11, note=56, velocity=64, time=2),
    Message('note_on', channel=9, note=70, velocity=51, time=11),
    Message('note_on', channel=10, note=49, velocity=35, time=1),
    Message('note_on', channel=10, note=56, velocity=16, time=2),
    Message('note_off', channel=9, note=70, velocity=64, time=3),
    Message('note_on', channel=9, note=42, velocity=52, time=17),
    Message('note_on', channel=9, note=70, velocity=80, time=1),
    Message('note_off', channel=2, note=49, velocity=64, time=1),
    Message('note_on', channel=2, note=49, velocity=91, time=1),
    Message('note_off', channel=2, note=56, velocity=64, time=1),
    Message('note_on', channel=2, note=56, velocity=57, time=1),
    Message('note_off', channel=9, note=42, velocity=64, time=1),
    Message('note_off', channel=9, note=70, velocity=64, time=1),
    Message('note_on', channel=11, note=49, velocity=18, time=18),
    Message('note_on', channel=9, note=70, velocity=43, time=0),
    Message('note_off', channel=10, note=49, velocity=64, time=1),
    Message('note_on', channel=10, note=49, velocity=44, time=1),
    Message('note_off', channel=10, note=56, velocity=64, time=1),
    Message('note_on', channel=10, note=56, velocity=16, time=1),
    Message('note_off', channel=9, note=70, velocity=64, time=2),
    Message('note_on', channel=9, note=42, velocity=58, time=17),
    Message('note_on', channel=9, note=70, velocity=43, time=1),
    MetaMessage('lyrics', text='these ', time=1),
    Message('note_on', channel=3, note=82, velocity=84, time=0),
    Message('note_off', channel=9, note=42, velocity=64, time=4),
    Message('note_off', channel=9, note=70, velocity=64, time=1),
    Message('note_off', channel=11, note=49, velocity=64, time=18),
    Message('note_on', channel=9, note=70, velocity=67, time=0),
    Message('note_on', channel=11, note=49, velocity=28, time=1),
    Message('note_off', channel=9, note=70, velocity=64, time=5),
    Message('note_on', channel=9, note=46, velocity=51, time=17),
    Message('note_off', channel=2, note=49, velocity=64, time=0),
    Message('note_on', channel=9, note=70, velocity=83, time=1),
    Message('note_off', channel=2, note=56, velocity=64, time=1),
    Message('note_on', channel=2, note=49, velocity=109, time=1),
    Message('note_on', channel=2, note=56, velocity=75, time=2),
    Message('note_off', channel=9, note=46, velocity=64, time=1),
    Message('note_off', channel=9, note=70, velocity=64, time=1),
    Message('note_off', channel=2, note=49, velocity=64, time=14),
    Message('pitchwheel', channel=2, pitch=159, time=1),
    Message('note_off', channel=2, note=56, velocity=64, time=1),
    Message('note_off', channel=10, note=49, velocity=64, time=1),
    Message('note_on', channel=9, note=70, velocity=22, time=1),
    Message('note_off', channel=10, note=56, velocity=64, time=1),
    Message('note_on', channel=10, note=49, velocity=60, time=1),
    Message('note_on', channel=10, note=56, velocity=30, time=2),
    Message('note_off', channel=9, note=70, velocity=64, time=2),
    MetaMessage('lyrics', text='cit', time=11),
    Message('note_on', channel=3, note=80, velocity=79, time=0),
    Message('note_off', channel=3, note=82, velocity=64, time=2),
    Message('note_off', channel=10, note=49, velocity=64, time=1),
    Message('pitchwheel', channel=10, pitch=159, time=1),
    Message('note_off', channel=10, note=56, velocity=64, time=1),
    Message('note_on', channel=9, note=46, velocity=90, time=1),
    Message('note_on', channel=9, note=70, velocity=58, time=1),
    Message('note_off', channel=9, note=46, velocity=64, time=5),
    Message('note_off', channel=9, note=70, velocity=64, time=1),
    Message('note_off', channel=11, note=49, velocity=64, time=16),
    Message('note_on', channel=9, note=70, velocity=75, time=2),
    Message('note_on', channel=11, note=49, velocity=43, time=1),
    Message('note_on', channel=11, note=56, velocity=16, time=2),
    Message('note_off', channel=9, note=70, velocity=64, time=3),
    MetaMessage('lyrics', text='y ', time=3),
    Message('note_off', channel=3, note=80, velocity=64, time=0),
    Message('note_on', channel=3, note=77, velocity=73, time=0),
    Message('note_off', channel=11, note=49, velocity=64, time=10),
    Message('pitchwheel', channel=11, pitch=159, time=1),
    Message('note_off', channel=11, note=56, velocity=64, time=1),
    Message('note_on', channel=9, note=70, velocity=51, time=3),
    Message('note_on', channel=9, note=42, velocity=73, time=1),
    Message('note_on', channel=2, note=54, velocity=104, time=2),
    Message('note_on', channel=2, note=61, velocity=70, time=2),
    Message('note_off', channel=9, note=70, velocity=64, time=1),
    Message('note_off', channel=9, note=42, velocity=64, time=1),
    Message('pitchwheel', channel=2, pitch=31, time=0),
    Message('note_on', channel=9, note=70, velocity=21, time=17),
    Message('note_on', channel=10, note=54, velocity=55, time=3),
    Message('note_on', channel=10, note=61, velocity=26, time=2),
    Message('note_off', channel=9, note=70, velocity=64, time=1),
    Message('pitchwheel', channel=10, pitch=31, time=1),
    MetaMessage('lyrics', text='walls ', time=4),
    MetaMessage('lyrics', text='\r', time=0),
    Message('note_on', channel=3, note=75, velocity=75, time=0),
    Message('note_off', channel=3, note=77, velocity=64, time=5),
    Message('note_on', channel=9, note=42, velocity=35, time=7),
    Message('note_on', channel=9, note=70, velocity=42, time=1),
    Message('note_off', channel=9, note=42, velocity=64, time=5),
    Message('note_off', channel=9, note=70, velocity=64, time=1),
    Message('note_on', channel=9, note=70, velocity=43, time=18),
    Message('note_off', channel=2, note=54, velocity=64, time=1),
    Message('note_on', channel=11, note=54, velocity=39, time=1),
    Message('note_off', channel=2, note=61, velocity=64, time=1),
    Message('note_on', channel=2, note=54, velocity=107, time=0),
    Message('note_on', channel=11, note=61, velocity=16, time=1),
    Message('note_on', channel=2, note=61, velocity=73, time=1),
    Message('pitchwheel', channel=11, pitch=31, time=1),
    Message('note_off', channel=9, note=70, velocity=64, time=0),
    Message('note_off', channel=2, note=54, velocity=64, time=9),
    Message('pitchwheel', channel=2, pitch=-143, time=0),
    Message('note_off', channel=2, note=61, velocity=64, time=2),
    Message('note_on', channel=9, note=46, velocity=87, time=6),
    Message('note_on', channel=9, note=70, velocity=71, time=1),
    Message('note_off', channel=10, note=54, velocity=64, time=1),
    Message('note_off', channel=10, note=61, velocity=64, time=2),
    Message('note_on', channel=10, note=54, velocity=58, time=0),
    Message('note_off', channel=9, note=46, velocity=64, time=2),
    Message('note_on', channel=10, note=61, velocity=29, time=0),
    Message('note_off', channel=9, note=70, velocity=64, time=1),
    Message('note_off', channel=10, note=54, velocity=64, time=9),
    Message('pitchwheel', channel=10, pitch=-143, time=0),
    Message('note_off', channel=10, note=61, velocity=64, time=2),
    Message('note_on', channel=9, note=70, velocity=36, time=7),
    Message('note_off', channel=9, note=70, velocity=64, time=6),
    Message('note_off', channel=3, note=75, velocity=64, time=15),
    Message('note_on', channel=3, note=73, velocity=63, time=0),
    Message('note_on', channel=9, note=42, velocity=37, time=2),
    Message('note_off', channel=11, note=54, velocity=64, time=1),
    Message('note_on', channel=9, note=70, velocity=43, time=0),
    Message('note_on', channel=2, note=54, velocity=96, time=2),
    Message('note_off', channel=11, note=61, velocity=64, time=0),
    Message('note_on', channel=11, note=54, velocity=42, time=0),
    Message('note_on', channel=2, note=61, velocity=62, time=2),
    Message('note_on', channel=11, note=61, velocity=16, time=0),
    Message('note_off', channel=9, note=42, velocity=64, time=1),
    Message('note_off', channel=9, note=70, velocity=64, time=1),
    Message('note_off', channel=11, note=54, velocity=64, time=8),
    Message('pitchwheel', channel=11, pitch=-143, time=0),
    Message('note_off', channel=11, note=61, velocity=64, time=2),
    Message('note_on', channel=9, note=70, velocity=58, time=8),
    Message('note_on', channel=10, note=54, velocity=49, time=2),
    Message('note_on', channel=10, note=61, velocity=19, time=2),
    Message('note_off', channel=9, note=70, velocity=64, time=2),
    Message('note_on', channel=9, note=42, velocity=48, time=17),
    Message('note_off', channel=2, note=54, velocity=64, time=0),
    Message('note_on', channel=9, note=70, velocity=61, time=1),
    Message('note_off', channel=2, note=61, velocity=64, time=1),
    Message('note_on', channel=2, note=54, velocity=89, time=0),
    Message('note_on', channel=2, note=61, velocity=55, time=2),
    Message('note_off', channel=9, note=42, velocity=64, time=2),
    Message('note_off', channel=9, note=70, velocity=64, time=1),
    Message('note_off', channel=10, note=54, velocity=64, time=17),
    Message('note_on', channel=9, note=70, velocity=34, time=1),
    Message('note_off', channel=10, note=61, velocity=64, time=1),
    Message('note_on', channel=10, note=54, velocity=43, time=0),
    Message('note_on', channel=11, note=54, velocity=32, time=0),
    Message('note_on', channel=10, note=61, velocity=16, time=2),
    Message('note_on', channel=11, note=61, velocity=16, time=0),
    Message('note_off', channel=9, note=70, velocity=64, time=3),
    Message('note_off', channel=2, note=54, velocity=64, time=16),
    Message('note_on', channel=9, note=42, velocity=36, time=1),
    Message('note_off', channel=2, note=61, velocity=64, time=1),
    Message('note_on', channel=9, note=70, velocity=47, time=0),
    Message('note_on', channel=2, note=54, velocity=68, time=1),
    Message('note_on', channel=2, note=61, velocity=34, time=2),
    Message('note_off', channel=9, note=42, velocity=64, time=2),
    Message('note_off', channel=9, note=70, velocity=64, time=1),
    Message('note_off', channel=10, note=54, velocity=64, time=16),
    Message('note_off', channel=11, note=54, velocity=64, time=0),
    Message('note_off', channel=10, note=61, velocity=64, time=2),
    Message('note_off', channel=11, note=61, velocity=64, time=0),
    Message('note_on', channel=11, note=54, velocity=26, time=0),
    Message('note_on', channel=9, note=70, velocity=65, time=0),
    Message('note_on', channel=10, note=54, velocity=24, time=1),
    Message('note_off', channel=9, note=70, velocity=64, time=5),
    Message('note_off', channel=2, note=54, velocity=64, time=15),
    Message('note_on', channel=9, note=46, velocity=71, time=2),
    Message('note_off', channel=2, note=61, velocity=64, time=0),
    Message('note_on', channel=9, note=70, velocity=67, time=1),
    Message('note_on', channel=2, note=54, velocity=98, time=1),
    Message('note_on', channel=2, note=61, velocity=64, time=2),
    Message('note_off', channel=9, note=46, velocity=64, time=2),
    Message('note_off', channel=9, note=70, velocity=64, time=1),
    Message('pitchwheel', channel=2, pitch=-367, time=6),
    Message('note_off', channel=2, note=54, velocity=64, time=2),
    Message('note_off', channel=2, note=61, velocity=64, time=2),
    Message('pitchwheel', channel=2, pitch=-143, time=0),
    Message('note_off', channel=10, note=54, velocity=64, time=5),
    Message('note_off', channel=11, note=54, velocity=64, time=0),
    Message('note_on', channel=11, note=54, velocity=16, time=3),
    Message('note_on', channel=9, note=70, velocity=36, time=0),
    Message('note_on', channel=10, note=54, velocity=50, time=1),
    Message('note_on', channel=10, note=61, velocity=21, time=2),
    Message('note_off', channel=9, note=70, velocity=64, time=3),
    Message('pitchwheel', channel=10, pitch=-367, time=6),
    Message('note_off', channel=10, note=54, velocity=64, time=2),
    Message('note_off', channel=10, note=61, velocity=64, time=2),
    Message('pitchwheel', channel=10, pitch=-143, time=0),
    Message('note_off', channel=3, note=73, velocity=64, time=1),
    Message('note_on', channel=9, note=42, velocity=21, time=6),
    Message('note_on', channel=9, note=70, velocity=43, time=1),
    Message('note_on', channel=2, note=54, velocity=60, time=2),
    Message('note_on', channel=2, note=61, velocity=26, time=2),
    Message('note_off', channel=9, note=42, velocity=64, time=1),
    Message('note_off', channel=9, note=70, velocity=64, time=1),
    Message('note_off', channel=11, note=54, velocity=64, time=14),
    Message('note_on', channel=11, note=54, velocity=34, time=4),
    Message('note_on', channel=9, note=70, velocity=71, time=0),
    Message('note_on', channel=10, note=54, velocity=18, time=2),
    Message('note_on', channel=11, note=61, velocity=16, time=0),
    Message('note_off', channel=9, note=70, velocity=64, time=4),
    Message('pitchwheel', channel=11, pitch=-367, time=5),
    Message('note_off', channel=11, note=54, velocity=64, time=2),
    Message('note_off', channel=11, note=61, velocity=64, time=2),
    Message('pitchwheel', channel=11, pitch=-143, time=0),
    Message('note_off', channel=2, note=54, velocity=64, time=7),
    Message('note_on', channel=9, note=42, velocity=61, time=1),
    Message('note_off', channel=2, note=61, velocity=64, time=1),
    Message('note_on', channel=9, note=70, velocity=77, time=0),
    Message('note_on', channel=2, note=54, velocity=76, time=1),
    Message('note_on', channel=2, note=61, velocity=42, time=2),
    Message('note_off', channel=9, note=42, velocity=64, time=2),
    Message('note_off', channel=9, note=70, velocity=64, time=1),
    Message('note_off', channel=10, note=54, velocity=64, time=16),
    Message('note_on', channel=9, note=70, velocity=32, time=2),
    Message('note_on', channel=10, note=54, velocity=31, time=1),
    Message('note_on', channel=11, note=54, velocity=16, time=0),
    Message('note_on', channel=10, note=61, velocity=16, time=2),
    Message('note_off', channel=9, note=70, velocity=64, time=3),
    Message('note_on', channel=9, note=42, velocity=63, time=17),
    Message('note_on', channel=9, note=70, velocity=44, time=1),
    Message('note_off', channel=9, note=42, velocity=64, time=5),
    Message('note_off', channel=9, note=70, velocity=64, time=1),
    Message('note_off', channel=2, note=54, velocity=64, time=11),
    Message('note_off', channel=2, note=61, velocity=64, time=2),
    Message('note_off', channel=11, note=54, velocity=64, time=2),
    Message('note_on', channel=11, note=54, velocity=16, time=3),
    Message('note_on', channel=9, note=70, velocity=58, time=0),
    Message('note_on', channel=2, note=54, velocity=109, time=2),
    Message('note_on', channel=2, note=61, velocity=75, time=2),
    Message('note_off', channel=9, note=70, velocity=64, time=2),
    Message('pitchwheel', channel=2, pitch=-367, time=4),
    Message('note_off', channel=2, note=54, velocity=64, time=4),
    Message('note_off', channel=2, note=61, velocity=64, time=2),
    Message('pitchwheel', channel=2, pitch=-143, time=0),
    Message('note_off', channel=10, note=54, velocity=64, time=1),
    Message('note_off', channel=10, note=61, velocity=64, time=2),
    Message('note_on', channel=9, note=46, velocity=75, time=4),
    Message('note_on', channel=9, note=70, velocity=80, time=1),
    Message('note_on', channel=10, note=54, velocity=60, time=2),
    Message('note_on', channel=10, note=61, velocity=30, time=2),
    Message('note_off', channel=9, note=46, velocity=64, time=1),
    Message('note_off', channel=9, note=70, velocity=64, time=1),
    Message('pitchwheel', channel=10, pitch=-367, time=4),
    Message('note_off', channel=10, note=54, velocity=64, time=4),
    Message('note_off', channel=10, note=61, velocity=64, time=2),
    Message('pitchwheel', channel=10, pitch=-143, time=0),
    Message('note_on', channel=9, note=70, velocity=38, time=8),
    Message('note_off', channel=9, note=70, velocity=64, time=6),
    Message('note_off', channel=11, note=54, velocity=64, time=10),
    Message('note_on', channel=9, note=42, velocity=35, time=7),
    Message('note_on', channel=2, note=54, velocity=88, time=0),
    Message('note_on', channel=9, note=70, velocity=51, time=1),
    Message('note_on', channel=2, note=61, velocity=54, time=1),
    Message('note_on', channel=11, note=54, velocity=43, time=0),
    Message('note_on', channel=11, note=61, velocity=16, time=2),
    Message('note_off', channel=9, note=42, velocity=64, time=2),
    Message('note_off', channel=9, note=70, velocity=64, time=1),
    Message('pitchwheel', channel=11, pitch=-367, time=3),
    Message('note_off', channel=11, note=54, velocity=64, time=4),
    Message('note_off', channel=11, note=61, velocity=64, time=2),
    Message('pitchwheel', channel=11, pitch=-143, time=0),
    Message('note_on', channel=10, note=54, velocity=42, time=8),
    Message('note_on', channel=9, note=70, velocity=51, time=1),
    Message('note_on', channel=10, note=61, velocity=16, time=1),
    Message('note_off', channel=9, note=70, velocity=64, time=5),
    Message('note_off', channel=2, note=54, velocity=64, time=9),
    Message('note_off', channel=2, note=61, velocity=64, time=2),
    Message('note_on', channel=2, note=54, velocity=85, time=6),
    Message('note_on', channel=9, note=42, velocity=44, time=1),
    Message('note_on', channel=9, note=70, velocity=80, time=0),
    Message('note_on', channel=2, note=61, velocity=51, time=1),
    MetaMessage('lyrics', text='on', time=1),
    Message('note_on', channel=3, note=77, velocity=90, time=0),
    Message('note_off', channel=9, note=42, velocity=64, time=4),
    Message('note_off', channel=9, note=70, velocity=64, time=0),
    Message('note_off', channel=10, note=54, velocity=64, time=9),
    Message('note_off', channel=10, note=61, velocity=64, time=2),
    Message('note_on', channel=11, note=54, velocity=25, time=5),
    Message('note_on', channel=10, note=54, velocity=39, time=1),
    Message('note_on', channel=9, note=70, velocity=43, time=1),
    Message('note_on', channel=10, note=61, velocity=16, time=1),
    Message('note_off', channel=9, note=70, velocity=64, time=5),
    Message('note_on', channel=9, note=46, velocity=81, time=17),
    Message('note_on', channel=9, note=70, velocity=43, time=1),
    Message('note_off', channel=9, note=46, velocity=64, time=5),
    Message('note_off', channel=9, note=70, velocity=64, time=1),
    Message('note_off', channel=11, note=54, velocity=64, time=8),
    Message('note_off', channel=3, note=77, velocity=64, time=2),
    MetaMessage('lyrics', text='ly ', time=6),
    Message('note_on', channel=3, note=75, velocity=84, time=0),
    Message('note_on', channel=11, note=54, velocity=23, time=0),
    Message('note_on', channel=9, note=70, velocity=67, time=2),
    Message('note_off', channel=9, note=70, velocity=64, time=6),
    Message('note_off', channel=2, note=54, velocity=64, time=17),
    Message('note_on', channel=9, note=70, velocity=83, time=1),
    Message('note_off', channel=2, note=61, velocity=64, time=1),
    Message('note_on', channel=2, note=54, velocity=98, time=1),
    Message('note_on', channel=2, note=61, velocity=64, time=2),
    Message('note_off', channel=9, note=70, velocity=64, time=2),
    Message('note_off', channel=3, note=75, velocity=64, time=16),
    Message('pitchwheel', channel=2, pitch=-319, time=1),
    Message('note_off', channel=10, note=54, velocity=64, time=0),
    Message('note_on', channel=9, note=70, velocity=22, time=1),
    Message('note_off', channel=10, note=61, velocity=64, time=1),
    Message('note_on', channel=10, note=54, velocity=50, time=1),
    Message('note_off', channel=2, note=54, velocity=64, time=1),
    MetaMessage('lyrics', text='to ', time=1),
    Message('note_on', channel=3, note=73, velocity=84, time=0),
    Message('pitchwheel', channel=2, pitch=-143, time=0),
    Message('note_on', channel=10, note=61, velocity=21, time=0),
    Message('note_off', channel=2, note=61, velocity=64, time=1),
    Message('note_off', channel=9, note=70, velocity=64, time=1),
    Message('note_on', channel=9, note=46, velocity=84, time=17),
    Message('pitchwheel', channel=10, pitch=-319, time=0),
    Message('note_on', channel=9, note=70, velocity=58, time=1),
    Message('note_off', channel=10, note=54, velocity=64, time=3),
    Message('pitchwheel', channel=10, pitch=-143, time=1),
    Message('note_off', channel=9, note=46, velocity=64, time=1),
    Message('note_off', channel=10, note=61, velocity=64, time=0),
    Message('note_off', channel=9, note=70, velocity=64, time=1),
    Message('note_off', channel=11, note=54, velocity=64, time=16),
    Message('note_on', channel=9, note=70, velocity=75, time=2),
    Message('note_on', channel=11, note=54, velocity=34, time=1),
    Message('note_on', channel=11, note=61, velocity=16, time=2),
    Message('note_off', channel=9, note=70, velocity=64, time=3),
    Message('note_off', channel=3, note=73, velocity=64, time=12),
    Message('pitchwheel', channel=11, pitch=-319, time=4),
    Message('note_on', channel=9, note=70, velocity=51, time=2),
    Message('note_on', channel=9, note=42, velocity=90, time=1),
    Message('note_on', channel=2, note=49, velocity=93, time=1),
    Message('note_off', channel=11, note=54, velocity=64, time=0),
    Message('pitchwheel', channel=11, pitch=-143, time=1),
    Message('note_on', channel=2, note=56, velocity=59, time=1),
    Message('note_off', channel=11, note=61, velocity=64, time=0),
    Message('pitchwheel', channel=2, pitch=367, time=1),
    Message('note_off', channel=9, note=70, velocity=64, time=1),
    Message('note_off', channel=9, note=42, velocity=64, time=1),
    MetaMessage('lyrics', text='be ', time=3),
    Message('note_on', channel=3, note=75, velocity=68, time=0),
    Message('note_on', channel=9, note=70, velocity=21, time=14),
    Message('note_on', channel=10, note=49, velocity=46, time=2),
    Message('note_on', channel=10, note=56, velocity=17, time=2),
    Message('pitchwheel', channel=10, pitch=367, time=1),
    Message('note_off', channel=9, note=70, velocity=64, time=1),
    Message('note_on', channel=9, note=42, velocity=24, time=17),
    Message('note_on', channel=9, note=70, velocity=42, time=1),
    Message('note_off', channel=9, note=42, velocity=64, time=5),
    Message('note_off', channel=9, note=70, velocity=64, time=1),
    Message('note_on', channel=9, note=70, velocity=43, time=18),
    Message('note_on', channel=11, note=49, velocity=30, time=1),
    Message('note_off', channel=2, note=49, velocity=64, time=1),
    Message('note_off', channel=2, note=56, velocity=64, time=2),
    Message('pitchwheel', channel=11, pitch=367, time=0),
    Message('note_on', channel=2, note=49, velocity=106, time=1),
    Message('note_off', channel=9, note=70, velocity=64, time=1),
    Message('note_on', channel=2, note=56, velocity=72, time=1),
    Message('pitchwheel', channel=2, pitch=303, time=4),
    Message('note_off', channel=2, note=49, velocity=64, time=6),
    Message('note_off', channel=2, note=56, velocity=64, time=2),
    Message('note_on', channel=9, note=46, velocity=75, time=4),
    Message('note_on', channel=2, note=46, velocity=82, time=1),
    Message('note_on', channel=9, note=70, velocity=71, time=0),
    Message('note_on', channel=2, note=53, velocity=48, time=2),
    Message('note_off', channel=10, note=49, velocity=64, time=0),
    Message('note_off', channel=10, note=56, velocity=64, time=2),
    Message('note_off', channel=9, note=46, velocity=64, time=1),
    Message('note_on', channel=10, note=49, velocity=57, time=0),
    Message('note_off', channel=9, note=70, velocity=64, time=1),
    Message('note_on', channel=10, note=56, velocity=28, time=1),
    Message('pitchwheel', channel=10, pitch=303, time=4),
    Message('note_off', channel=2, note=46, velocity=64, time=1),
    Message('note_off', channel=2, note=53, velocity=64, time=2),
    Message('pitchwheel', channel=2, pitch=159, time=1),
    Message('note_off', channel=10, note=49, velocity=64, time=2),
    Message('note_off', channel=10, note=56, velocity=64, time=2),
    Message('pitchwheel', channel=2, pitch=703, time=4),
    Message('note_on', channel=10, note=46, velocity=36, time=1),
    Message('note_on', channel=9, note=70, velocity=36, time=0),
    Message('note_on', channel=10, note=53, velocity=16, time=2),
    Message('note_off', channel=9, note=70, velocity=64, time=4),
    Message('note_off', channel=10, note=46, velocity=64, time=6),
    Message('note_off', channel=3, note=75, velocity=64, time=1),
    Message('note_off', channel=10, note=53, velocity=64, time=1),
    Message('pitchwheel', channel=10, pitch=159, time=1),
    MetaMessage('lyrics', text='with ', time=4),
    Message('note_on', channel=3, note=73, velocity=38, time=0),
    Message('pitchwheel', channel=10, pitch=703, time=4),
    Message('note_on', channel=9, note=70, velocity=43, time=1),
    Message('note_off', channel=11, note=49, velocity=64, time=1),
    Message('pitchwheel', channel=2, pitch=431, time=1),
    Message('note_on', channel=2, note=49, velocity=83, time=0),
    Message('note_on', channel=2, note=56, velocity=49, time=2),
    Message('note_on', channel=11, note=49, velocity=41, time=0),
    Message('note_on', channel=11, note=56, velocity=16, time=2),
    Message('note_off', channel=9, note=70, velocity=64, time=0),
    Message('pitchwheel', channel=11, pitch=303, time=4),
    Message('note_off', channel=11, note=49, velocity=64, time=6),
    Message('note_off', channel=11, note=56, velocity=64, time=2),
    Message('note_on', channel=11, note=46, velocity=20, time=5),
    Message('note_on', channel=9, note=70, velocity=58, time=1),
    Message('pitchwheel', channel=10, pitch=431, time=2),
    Message('note_on', channel=10, note=49, velocity=37, time=0),
    Message('note_on', channel=10, note=56, velocity=16, time=2),
    Message('note_off', channel=9, note=70, velocity=64, time=2),
    Message('note_off', channel=3, note=73, velocity=64, time=5),
    Message('note_off', channel=11, note=46, velocity=64, time=0),
    Message('pitchwheel', channel=11, pitch=159, time=3),
    Message('pitchwheel', channel=11, pitch=703, time=8),
    Message('note_off', channel=2, note=49, velocity=64, time=1),
    Message('note_on', channel=9, note=42, velocity=56, time=1),
    Message('note_on', channel=2, note=49, velocity=82, time=0),
    Message('note_on', channel=9, note=70, velocity=61, time=0),
    Message('note_off', channel=2, note=56, velocity=64, time=1),
    Message('note_on', channel=2, note=56, velocity=48, time=1),
    MetaMessage('lyrics', text='you. ', time=4),
    MetaMessage('lyrics', text='\r', time=0),
    Message('note_on', channel=3, note=73, velocity=54, time=0),
    Message('note_off', channel=9, note=42, velocity=64, time=0),
    Message('note_off', channel=9, note=70, velocity=64, time=0),
    Message('note_off', channel=10, note=49, velocity=64, time=17),
    Message('note_on', channel=10, note=49, velocity=36, time=1),
    Message('note_on', channel=9, note=70, velocity=34, time=0),
    Message('note_off', channel=10, note=56, velocity=64, time=1),
    Message('pitchwheel', channel=11, pitch=431, time=0),
    Message('note_on', channel=11, note=49, velocity=21, time=0),
    Message('note_on', channel=10, note=56, velocity=16, time=1),
    Message('note_off', channel=9, note=70, velocity=64, time=4),
    Message('note_off', channel=2, note=49, velocity=64, time=15),
    Message('note_on', channel=9, note=42, velocity=61, time=2),
    Message('note_off', channel=2, note=56, velocity=64, time=0),
    Message('note_on', channel=2, note=49, velocity=67, time=0),
    Message('note_on', channel=9, note=70, velocity=47, time=1),
    Message('note_on', channel=2, note=56, velocity=33, time=1),
    Message('note_off', channel=9, note=42, velocity=64, time=4),
    Message('note_off', channel=9, note=70, velocity=64, time=1),
    Message('note_off', channel=10, note=49, velocity=64, time=15),
    Message('note_off', channel=11, note=49, velocity=64, time=1),
    Message('note_off', channel=10, note=56, velocity=64, time=1),
    Message('note_on', channel=10, note=49, velocity=24, time=0),
    Message('note_on', channel=11, note=49, velocity=20, time=0),
    Message('note_on', channel=9, note=70, velocity=65, time=1),
    Message('note_off', channel=9, note=70, velocity=64, time=6),
    Message('note_off', channel=2, note=49, velocity=64, time=13),
    Message('note_off', channel=2, note=56, velocity=64, time=2),
    Message('note_on', channel=9, note=46, velocity=69, time=3),
    Message('note_on', channel=2, note=49, velocity=79, time=0),
    Message('note_on', channel=9, note=70, velocity=67, time=0),
    Message('note_on', channel=2, note=56, velocity=45, time=2),
    Message('note_off', channel=9, note=46, velocity=64, time=4),
    Message('note_off', channel=9, note=70, velocity=64, time=0),
    Message('note_off', channel=2, note=49, velocity=64, time=8),
    Message('note_off', channel=2, note=56, velocity=64, time=2),
    Message('note_off', channel=10, note=49, velocity=64, time=3),
    Message('note_off', channel=11, note=49, velocity=64, time=1),
    Message('note_on', channel=11, note=49, velocity=16, time=2),
    Message('note_on', channel=10, note=49, velocity=34, time=2),
    Message('note_on', channel=9, note=70, velocity=36, time=0),
    Message('note_on', channel=10, note=56, velocity=16, time=2),
    Message('note_off', channel=9, note=70, velocity=64, time=4),
    Message('note_off', channel=10, note=49, velocity=64, time=8),
    Message('note_off', channel=10, note=56, velocity=64, time=2),
    Message('note_on', channel=9, note=42, velocity=52, time=7),
    Message('note_on', channel=9, note=70, velocity=43, time=1),
    Message('note_on', channel=2, note=49, velocity=77, time=2),
    Message('pitchwheel', channel=2, pitch=303, time=2),
    Message('note_on', channel=2, note=56, velocity=43, time=0),
    Message('note_off', channel=9, note=42, velocity=64, time=1),
    MetaMessage('lyrics', text='\n', time=1),
    Message('note_off', channel=9, note=70, velocity=64, time=0),
    Message('note_off', channel=11, note=49, velocity=64, time=12),
    Message('note_on', channel=11, note=49, velocity=18, time=5),
    Message('note_on', channel=9, note=70, velocity=71, time=1),
    Message('note_on', channel=10, note=49, velocity=32, time=2),
    Message('pitchwheel', channel=10, pitch=303, time=2),
    Message('note_on', channel=10, note=56, velocity=16, time=0),
    Message('note_off', channel=9, note=70, velocity=64, time=2),
    Message('note_off', channel=11, note=49, velocity=64, time=7),
    Message('note_on', channel=9, note=70, velocity=77, time=11),
    Message('note_on', channel=9, note=42, velocity=58, time=1),
    Message('note_off', channel=9, note=70, velocity=64, time=5),
    Message('note_off', channel=9, note=42, velocity=64, time=1),
    Message('note_on', channel=9, note=70, velocity=32, time=17),
    Message('note_on', channel=11, note=49, velocity=16, time=1),
    Message('pitchwheel', channel=11, pitch=303, time=2),
    Message('note_off', channel=3, note=73, velocity=64, time=3),
    Message('note_off', channel=9, note=70, velocity=64, time=0),
    Message('note_on', channel=9, note=70, velocity=44, time=18),
    Message('note_on', channel=9, note=42, velocity=58, time=1),
    Message('note_off', channel=9, note=70, velocity=64, time=5),
    Message('note_off', channel=9, note=42, velocity=64, time=1),
    Message('note_on', channel=9, note=70, velocity=58, time=17),
    Message('note_off', channel=2, note=49, velocity=64, time=2),
    Message('note_off', channel=2, note=56, velocity=64, time=2),
    Message('note_on', channel=2, note=49, velocity=109, time=0),
    Message('note_on', channel=2, note=56, velocity=75, time=2),
    Message('note_off', channel=9, note=70, velocity=64, time=0),
    Message('note_off', channel=2, note=49, velocity=64, time=8),
    Message('note_off', channel=2, note=56, velocity=64, time=2),
    Message('pitchwheel', channel=2, pitch=31, time=2),
    Message('note_on', channel=9, note=46, velocity=65, time=5),
    Message('note_on', channel=2, note=46, velocity=65, time=1),
    Message('note_on', channel=9, note=70, velocity=80, time=0),
    Message('note_on', channel=2, note=53, velocity=31, time=2),
    Message('note_off', channel=10, note=49, velocity=64, time=0),
    Message('note_off', channel=10, note=56, velocity=64, time=2),
    Message('note_on', channel=10, note=49, velocity=60, time=0),
    Message('note_off', channel=9, note=46, velocity=64, time=1),
    Message('note_off', channel=2, note=46, velocity=64, time=1),
    Message('note_on', channel=10, note=56, velocity=30, time=0),
    Message('note_off', channel=9, note=70, velocity=64, time=0),
    Message('note_off', channel=2, note=53, velocity=64, time=2),
    Message('pitchwheel', channel=2, pitch=-367, time=3),
    Message('note_off', channel=10, note=49, velocity=64, time=3),
    Message('note_off', channel=10, note=56, velocity=64, time=2),
    Message('pitchwheel', channel=10, pitch=31, time=2),
    Message('note_on', channel=10, note=46, velocity=22, time=6),
    Message('note_on', channel=9, note=70, velocity=38, time=0),
    Message('note_off', channel=10, note=46, velocity=64, time=6),
    Message('note_off', channel=9, note=70, velocity=64, time=0),
    Message('pitchwheel', channel=10, pitch=-367, time=5),
    Message('note_on', channel=9, note=46, velocity=84, time=12),
    Message('note_on', channel=9, note=70, velocity=51, time=1),
    Message('note_off', channel=11, note=49, velocity=64, time=1),
    Message('note_on', channel=2, note=49, velocity=86, time=1),
    Message('note_on', channel=11, note=49, velocity=43, time=1),
    Message('pitchwheel', channel=2, pitch=367, time=1),
    Message('note_on', channel=2, note=56, velocity=52, time=0),
    Message('note_off', channel=9, note=46, velocity=64, time=1),
    Message('note_on', channel=11, note=56, velocity=16, time=0),
    Message('note_off', channel=9, note=70, velocity=64, time=1),
    Message('note_off', channel=11, note=49, velocity=64, time=7),
    Message('note_off', channel=11, note=56, velocity=64, time=2),
    Message('pitchwheel', channel=11, pitch=31, time=2),
    Message('note_on', channel=11, note=46, velocity=16, time=6),
    Message('note_on', channel=9, note=70, velocity=51, time=1),
    Message('note_on', channel=10, note=49, velocity=40, time=2),
    Message('pitchwheel', channel=10, pitch=367, time=2),
    Message('note_on', channel=10, note=56, velocity=16, time=0),
    Message('note_off', channel=11, note=46, velocity=64, time=2),
    Message('note_off', channel=9, note=70, velocity=64, time=0),
    Message('pitchwheel', channel=11, pitch=-367, time=4),
    Message('note_off', channel=2, note=49, velocity=64, time=11),
    Message('note_off', channel=2, note=56, velocity=64, time=2),
    Message('note_on', channel=9, note=70, velocity=80, time=1),
    Message('note_on', channel=2, note=49, velocity=96, time=1),
    Message('note_on', channel=2, note=56, velocity=62, time=2),
    Message('note_off', channel=9, note=70, velocity=64, time=3),
    Message('note_off', channel=10, note=49, velocity=64, time=15),
    Message('note_off', channel=10, note=56, velocity=64, time=2),
    Message('note_on', channel=9, note=70, velocity=43, time=1),
    Message('note_on', channel=10, note=49, velocity=49, time=1),
    Message('note_on', channel=11, note=49, velocity=24, time=0),
    Message('note_on', channel=10, note=56, velocity=19, time=2),
    Message('pitchwheel', channel=11, pitch=367, time=0),
    Message('note_off', channel=9, note=70, velocity=64, time=3),
    Message('note_on', channel=4, note=61, velocity=72, time=16),
    Message('note_on', channel=4, note=56, velocity=68, time=0),
    Message('note_on', channel=9, note=38, velocity=53, time=1),
    Message('note_on', channel=9, note=70, velocity=43, time=1),
    MetaMessage('lyrics', text='But ', time=4),
    Message('note_on', channel=3, note=73, velocity=77, time=0),
    Message('note_off', channel=9, note=38, velocity=64, time=1),
    Message('note_off', channel=9, note=70, velocity=64, time=1),
    Message('note_off', channel=11, note=49, velocity=64, time=14),
    Message('note_on', channel=9, note=38, velocity=66, time=3),
    Message('note_on', channel=11, note=49, velocity=32, time=1),
    Message('note_on', channel=9, note=70, velocity=67, time=0),
    Message('note_on', channel=11, note=56, velocity=16, time=2),
    Message('note_off', channel=9, note=38, velocity=64, time=3),
    Message('note_off', channel=9, note=70, velocity=64, time=1),
    Message('note_off', channel=3, note=73, velocity=64, time=5),
    Message('note_off', channel=2, note=49, velocity=64, time=10),
    Message('note_off', channel=4, note=56, velocity=64, time=1),
    Message('note_off', channel=4, note=61, velocity=64, time=0),
    Message('note_on', channel=4, note=61, velocity=77, time=1),
    Message('note_on', channel=4, note=56, velocity=70, time=0),
    Message('note_on', channel=9, note=38, velocity=77, time=0),
    Message('note_off', channel=2, note=56, velocity=64, time=0),
    MetaMessage('lyrics', text='I ', time=1),
    Message('note_on', channel=3, note=73, velocity=93, time=0),
    Message('note_on', channel=9, note=70, velocity=83, time=0),
    Message('note_on', channel=2, note=49, velocity=98, time=3),
    Message('note_off', channel=9, note=38, velocity=64, time=2),
    Message('note_on', channel=2, note=56, velocity=64, time=0),
    Message('note_off', channel=9, note=70, velocity=64, time=1),
    Message('note_off', channel=10, note=49, velocity=64, time=15),
    Message('note_on', channel=9, note=38, velocity=101, time=2),
    Message('note_off', channel=10, note=56, velocity=64, time=0),
    Message('note_on', channel=9, note=70, velocity=22, time=1),
    Message('note_on', channel=10, note=49, velocity=50, time=3),
    Message('note_off', channel=9, note=38, velocity=64, time=2),
    Message('note_on', channel=10, note=56, velocity=21, time=0),
    Message('note_off', channel=9, note=70, velocity=64, time=1),
    Message('note_off', channel=2, note=49, velocity=64, time=5),
    Message('note_off', channel=2, note=56, velocity=64, time=2),
    Message('pitchwheel', channel=2, pitch=0, time=0),
    Message('note_off', channel=3, note=73, velocity=64, time=2),
    Message('note_off', channel=4, note=56, velocity=64, time=5),
    Message('note_off', channel=4, note=61, velocity=64, time=0),
    Message('note_on', channel=4, note=56, velocity=67, time=2),
    Message('note_on', channel=4, note=60, velocity=59, time=1),
    Message('note_on', channel=4, note=63, velocity=70, time=0),
    Message('note_on', channel=9, note=38, velocity=101, time=0),
    Message('note_on', channel=9, note=70, velocity=58, time=1),
    MetaMessage('lyrics', text='still ', time=2),
    Message('note_on', channel=3, note=80, velocity=93, time=0),
    Message('note_off', channel=9, note=38, velocity=64, time=3),
    Message('note_off', channel=9, note=70, velocity=64, time=1),
    Message('note_off', channel=10, note=49, velocity=64, time=5),
    Message('note_off', channel=10, note=56, velocity=64, time=2),
    Message('pitchwheel', channel=10, pitch=0, time=0),
    Message('note_off', channel=11, note=49, velocity=64, time=7),
    Message('note_off', channel=11, note=56, velocity=64, time=2),
    Message('note_on', channel=9, note=70, velocity=75, time=2),
    Message('note_on', channel=11, note=49, velocity=34, time=2),
    Message('note_on', channel=11, note=56, velocity=16, time=2),
    Message('note_off', channel=9, note=70, velocity=64, time=2),
    Message('note_on', channel=9, note=36, velocity=88, time=17),
    Message('note_on', channel=6, note=63, velocity=33, time=0),
    Message('note_on', channel=6, note=61, velocity=55, time=0),
    Message('note_on', channel=9, note=70, velocity=51, time=1),
    Message('note_on', channel=9, note=46, velocity=51, time=1),
    Message('note_on', channel=9, note=57, velocity=71, time=0),
    Message('note_on', channel=9, note=49, velocity=73, time=0),
    Message('note_on', channel=1, note=32, velocity=120, time=0),
    Message('note_on', channel=6, note=68, velocity=42, time=0),
    Message('note_on', channel=0, note=56, velocity=99, time=0),
    Message('pitchwheel', channel=0, pitch=-175, time=1),
    Message('note_off', channel=9, note=36, velocity=64, time=3),
    Message('note_off', channel=9, note=70, velocity=64, time=1),
    Message('note_off', channel=9, note=46, velocity=64, time=1),
    Message('note_off', channel=9, note=57, velocity=64, time=0),
    Message('note_off', channel=9, note=49, velocity=64, time=0),
    Message('note_off', channel=11, note=49, velocity=64, time=3),
    Message('note_off', channel=11, note=56, velocity=64, time=2),
    Message('pitchwheel', channel=11, pitch=0, time=0),
    Message('note_on', channel=9, note=70, velocity=21, time=12),
    Message('note_on', channel=7, note=56, velocity=63, time=1),
    Message('pitchwheel', channel=7, pitch=-175, time=1),
    Message('note_off', channel=9, note=70, velocity=64, time=4),
    Message('pitchwheel', channel=0, pitch=0, time=16),
    Message('note_on', channel=0, note=63, velocity=100, time=2),
    Message('note_on', channel=9, note=70, velocity=42, time=0),
    Message('note_off', channel=9, note=70, velocity=64, time=6),
    Message('pitchwheel', channel=7, pitch=0, time=16),
    Message('note_on', channel=7, note=63, velocity=64, time=2),
    Message('note_on', channel=9, note=70, velocity=43, time=0),
    Message('note_on', channel=9, note=46, velocity=75, time=1),
    Message('note_off', channel=9, note=70, velocity=64, time=5),
    Message('note_off', channel=9, note=46, velocity=64, time=1),
    Message('note_off', channel=1, note=32, velocity=64, time=14),
    Message('note_on', channel=9, note=36, velocity=76, time=2),
    Message('note_on', channel=1, note=30, velocity=111, time=1),
    Message('note_on', channel=9, note=70, velocity=71, time=0),
    Message('note_on', channel=9, note=46, velocity=93, time=1),
    Message('note_on', channel=0, note=68, velocity=79, time=0),
    Message('note_off', channel=9, note=36, velocity=64, time=4),
    Message('note_off', channel=9, note=70, velocity=64, time=1),
    Message('note_off', channel=9, note=46, velocity=64, time=1),
    Message('note_on', channel=9, note=70, velocity=36, time=17),
    Message('note_on', channel=7, note=68, velocity=42, time=1),
    Message('note_off', channel=9, note=70, velocity=64, time=5),
    Message('note_off', channel=0, note=56, velocity=64, time=5),
    Message('note_off', channel=3, note=80, velocity=64, time=3),
    Message('note_on', channel=0, note=56, velocity=93, time=8),
    Message('note_on', channel=9, note=46, velocity=58, time=2),
    Message('note_on', channel=9, note=70, velocity=43, time=0),
    Message('note_off', channel=1, note=30, velocity=64, time=1),
    Message('note_on', channel=1, note=32, velocity=120, time=0),
    Message('note_off', channel=9, note=46, velocity=64, time=5),
    Message('note_off', channel=9, note=70, velocity=64, time=0),
    Message('note_off', channel=7, note=56, velocity=64, time=5),
    Message('note_on', channel=7, note=56, velocity=57, time=11),
    Message('note_on', channel=9, note=70, velocity=58, time=2),
    Message('note_off', channel=9, note=70, velocity=64, time=6),
    Message('note_off', channel=0, note=63, velocity=64, time=6),
    Message('note_on', channel=0, note=63, velocity=105, time=11),
    Message('note_on', channel=9, note=36, velocity=101, time=1),
    Message('note_on', channel=9, note=70, velocity=61, time=0),
    Message('note_off', channel=9, note=36, velocity=64, time=6),
    Message('note_off', channel=9, note=70, velocity=64, time=0),
    Message('note_off', channel=7, note=63, velocity=64, time=6),
    Message('note_on', channel=9, note=46, velocity=81, time=11),
    Message('note_on', channel=7, note=63, velocity=69, time=0),
    Message('note_on', channel=9, note=70, velocity=34, time=1),
    Message('note_off', channel=9, note=46, velocity=64, time=5),
    Message('note_off', channel=9, note=70, velocity=64, time=1),
    Message('note_off', channel=0, note=68, velocity=64, time=9),
    MetaMessage('lyrics', text='have', time=4),
    Message('note_on', channel=3, note=78, velocity=89, time=0),
    Message('note_off', channel=4, note=60, velocity=64, time=1),
    Message('note_off', channel=4, note=56, velocity=64, time=0),
    Message('note_off', channel=1, note=32, velocity=64, time=0),
    Message('note_off', channel=4, note=63, velocity=64, time=1),
    Message('note_on', channel=4, note=56, velocity=67, time=1),
    Message('note_on', channel=0, note=68, velocity=75, time=0),
    Message('note_on', channel=4, note=66, velocity=65, time=1),
    Message('note_on', channel=4, note=61, velocity=65, time=0),
    Message('note_on', channel=9, note=46, velocity=84, time=0),
    Message('note_on', channel=1, note=34, velocity=105, time=0),
    Message('note_on', channel=9, note=70, velocity=47, time=1),
    Message('note_off', channel=9, note=46, velocity=64, time=5),
    Message('note_off', channel=9, note=70, velocity=64, time=1),
    Message('note_off', channel=7, note=68, velocity=64, time=9),
    Message('note_on', channel=7, note=68, velocity=39, time=7),
    Message('note_on', channel=9, note=70, velocity=65, time=2),
    Message('note_off', channel=9, note=70, velocity=64, time=6),
    Message('note_off', channel=3, note=78, velocity=64, time=9),
    Message('note_off', channel=0, note=56, velocity=64, time=2),
    MetaMessage('lyrics', text="n't ", time=5),
    Message('note_on', channel=3, note=77, velocity=90, time=0),
    Message('note_off', channel=4, note=61, velocity=64, time=0),
    Message('note_on', channel=4, note=61, velocity=76, time=1),
    Message('note_on', channel=9, note=46, velocity=90, time=0),
    Message('note_on', channel=0, note=56, velocity=92, time=0),
    Message('note_on', channel=9, note=70, velocity=67, time=1),
    Message('note_on', channel=9, note=36, velocity=101, time=1),
    Message('note_on', channel=9, note=38, velocity=101, time=0),
    Message('note_on', channel=1, note=36, velocity=108, time=0),
    Message('note_off', channel=9, note=46, velocity=64, time=4),
    Message('note_off', channel=9, note=70, velocity=64, time=1),
    Message('note_off', channel=9, note=38, velocity=64, time=1),
    Message('note_off', channel=9, note=36, velocity=64, time=0),
    Message('note_off', channel=1, note=34, velocity=64, time=0),
    Message('note_off', channel=7, note=56, velocity=64, time=10),
    Message('note_on', channel=7, note=56, velocity=56, time=6),
    Message('note_on', channel=9, note=70, velocity=36, time=1),
    Message('note_off', channel=9, note=70, velocity=64, time=6),
    Message('note_off', channel=0, note=68, velocity=64, time=7),
    Message('note_off', channel=3, note=77, velocity=64, time=5),
    Message('note_off', channel=1, note=36, velocity=64, time=3),
    Message('note_off', channel=4, note=66, velocity=64, time=2),
    Message('note_on', channel=4, note=65, velocity=72, time=0),
    Message('note_on', channel=1, note=37, velocity=111, time=0),
    Message('note_on', channel=9, note=70, velocity=43, time=1),
    Message('note_on', channel=0, note=68, velocity=72, time=1),
    MetaMessage('lyrics', text='found ', time=1),
    MetaMessage('lyrics', text='\r', time=0),
    Message('note_on', channel=3, note=73, velocity=74, time=0),
    Message('note_off', channel=9, note=70, velocity=64, time=4),
    Message('note_off', channel=7, note=68, velocity=64, time=7),
    Message('note_on', channel=9, note=46, velocity=73, time=11),
    Message('note_on', channel=9, note=70, velocity=71, time=0),
    Message('note_on', channel=7, note=68, velocity=36, time=1),
    Message('note_off', channel=9, note=46, velocity=64, time=5),
    Message('note_off', channel=9, note=70, velocity=64, time=0),
    Message('note_off', channel=0, note=56, velocity=64, time=11),
    Message('note_on', channel=9, note=36, velocity=71, time=6),
    Message('note_on', channel=9, note=46, velocity=93, time=0),
    Message('note_off', channel=4, note=56, velocity=64, time=1),
    Message('note_off', channel=1, note=37, velocity=64, time=0),
    Message('note_on', channel=0, note=54, velocity=101, time=0),
    Message('note_on', channel=9, note=70, velocity=77, time=0),
    Message('note_on', channel=4, note=58, velocity=62, time=1),
    Message('note_on', channel=1, note=30, velocity=118, time=0),
    Message('note_off', channel=9, note=46, velocity=64, time=4),
    Message('note_off', channel=9, note=36, velocity=64, time=0),
    Message('note_off', channel=9, note=70, velocity=64, time=1),
    Message('note_off', channel=7, note=56, velocity=64, time=11),
    Message('note_on', channel=7, note=54, velocity=65, time=7),
    Message('note_on', channel=9, note=70, velocity=32, time=0),
    Message('note_off', channel=9, note=70, velocity=64, time=6),
    Message('note_off', channel=0, note=63, velocity=64, time=9),
    Message('note_on', channel=9, note=46, velocity=65, time=8),
    Message('note_on', channel=0, note=63, velocity=89, time=1),
    Message('note_on', channel=9, note=70, velocity=44, time=0),
    Message('note_off', channel=9, note=46, velocity=64, time=5),
    Message('note_off', channel=9, note=70, velocity=64, time=1),
    Message('note_off', channel=7, note=63, velocity=64, time=9),
    Message('note_on', channel=9, note=46, velocity=69, time=8),
    Message('note_on', channel=7, note=63, velocity=53, time=1),
    Message('note_on', channel=9, note=70, velocity=58, time=0),
    Message('note_off', channel=0, note=68, velocity=64, time=4),
    Message('note_off', channel=9, note=46, velocity=64, time=1),
    Message('note_off', channel=9, note=70, velocity=64, time=1),
    Message('note_off', channel=1, note=30, velocity=64, time=9),
    Message('note_on', channel=1, note=29, velocity=113, time=8),
    Message('note_on', channel=0, note=68, velocity=67, time=0),
    Message('note_on', channel=9, note=36, velocity=101, time=1),
    Message('note_on', channel=9, note=70, velocity=80, time=0),
    Message('note_off', channel=7, note=68, velocity=64, time=4),
    Message('note_off', channel=9, note=36, velocity=64, time=2),
    Message('note_off', channel=9, note=70, velocity=64, time=0),
    Message('note_off', channel=3, note=73, velocity=64, time=2),
    Message('note_on', channel=9, note=46, velocity=81, time=15),
    Message('note_on', channel=7, note=68, velocity=31, time=0),
    Message('note_on', channel=9, note=70, velocity=38, time=1),
    Message('note_off', channel=9, note=46, velocity=64, time=5),
    Message('note_off', channel=9, note=70, velocity=64, time=1),
    Message('note_off', channel=0, note=63, velocity=64, time=6),
    Message('note_off', channel=1, note=29, velocity=64, time=4),
    Message('note_on', channel=9, note=46, velocity=101, time=7),
    Message('note_on', channel=1, note=30, velocity=126, time=0),
    Message('note_on', channel=0, note=63, velocity=80, time=1),
    Message('note_on', channel=9, note=70, velocity=51, time=0),
    Message('note_off', channel=9, note=46, velocity=64, time=5),
    Message('note_off', channel=9, note=70, velocity=64, time=1),
    Message('note_off', channel=7, note=63, velocity=64, time=6),
    Message('note_off', channel=0, note=63, velocity=64, time=11),
    Message('note_on', channel=7, note=63, velocity=44, time=1),
    Message('note_on', channel=9, note=70, velocity=51, time=0),
    Message('note_on', channel=0, note=63, velocity=85, time=1),
    Message('note_off', channel=9, note=70, velocity=64, time=5),
    Message('note_off', channel=0, note=63, velocity=64, time=16),
    Message('note_on', channel=9, note=36, velocity=80, time=1),
    Message('note_on', channel=9, note=46, velocity=55, time=0),
    Message('note_off', channel=7, note=63, velocity=64, time=0),
    Message('note_on', channel=9, note=70, velocity=80, time=1),
    Message('note_on', channel=7, note=63, velocity=49, time=1),
    Message('note_on', channel=0, note=63, velocity=81, time=2),
    Message('note_off', channel=9, note=46, velocity=64, time=2),
    Message('note_off', channel=9, note=36, velocity=64, time=0),
    Message('note_off', channel=9, note=70, velocity=64, time=1),
    Message('note_off', channel=7, note=63, velocity=64, time=16),
    Message('note_on', channel=9, note=46, velocity=63, time=1),
    Message('note_on', channel=9, note=70, velocity=43, time=1),
    Message('note_off', channel=4, note=65, velocity=64, time=1),
    Message('note_off', channel=4, note=58, velocity=64, time=1),
    Message('note_off', channel=4, note=61, velocity=64, time=0),
    Message('note_on', channel=7, note=63, velocity=45, time=1),
    Message('note_off', channel=9, note=46, velocity=64, time=2),
    Message('note_off', channel=9, note=70, velocity=64, time=1),
    MetaMessage('lyrics', text='what ', time=14),
    Message('note_on', channel=3, note=70, velocity=72, time=0),
    Message('note_off', channel=0, note=68, velocity=64, time=1),
    Message('note_on', channel=9, note=46, velocity=50, time=2),
    Message('note_on', channel=4, note=58, velocity=54, time=1),
    Message('note_on', channel=4, note=66, velocity=57, time=0),
    Message('note_on', channel=4, note=61, velocity=51, time=0),
    Message('note_on', channel=9, note=36, velocity=62, time=0),
    Message('note_on', channel=9, note=70, velocity=43, time=0),
    Message('note_on', channel=1, note=32, velocity=120, time=1),
    Message('note_on', channel=0, note=68, velocity=87, time=1),
    Message('note_off', channel=1, note=30, velocity=64, time=2),
    Message('note_off', channel=9, note=46, velocity=64, time=1),
    Message('note_off', channel=9, note=36, velocity=64, time=1),
    Message('note_off', channel=9, note=70, velocity=64, time=0),
    Message('note_off', channel=7, note=68, velocity=64, time=15),
    Message('note_on', channel=9, note=46, velocity=51, time=2),
    Message('note_on', channel=9, note=70, velocity=67, time=1),
    Message('note_on', channel=7, note=68, velocity=50, time=2),
    Message('note_off', channel=9, note=46, velocity=64, time=3),
    Message('note_off', channel=9, note=70, velocity=64, time=1),
    Message('note_off', channel=3, note=70, velocity=64, time=1),
    Message('note_off', channel=1, note=32, velocity=64, time=11),
    MetaMessage('lyrics', text="I'm ", time=2),
    Message('note_on', channel=3, note=70, velocity=85, time=0),
    Message('note_off', channel=0, note=54, velocity=64, time=0),
    Message('note_off', channel=4, note=61, velocity=64, time=1),
    Message('note_off', channel=4, note=66, velocity=64, time=0),
    Message('note_off', channel=4, note=58, velocity=64, time=0),
    Message('note_on', channel=4, note=61, velocity=79, time=2),
    Message('note_on', channel=4, note=66, velocity=82, time=0),
    Message('note_on', channel=4, note=58, velocity=74, time=0),
    Message('note_on', channel=9, note=46, velocity=97, time=0),
    Message('note_on', channel=9, note=70, velocity=83, time=1),
    Message('note_on', channel=9, note=36, velocity=101, time=1),
    Message('note_on', channel=9, note=38, velocity=101, time=0),
    Message('note_on', channel=1, note=34, velocity=103, time=0),
    Message('note_on', channel=0, note=54, velocity=97, time=1),
    Message('note_off', channel=9, note=46, velocity=64, time=3),
    Message('note_off', channel=9, note=70, velocity=64, time=1),
    Message('note_off', channel=9, note=38, velocity=64, time=1),
    Message('note_off', channel=9, note=36, velocity=64, time=0),
    Message('note_off', channel=7, note=54, velocity=64, time=13),
    Message('note_on', channel=9, note=70, velocity=22, time=4),
    Message('note_on', channel=7, note=54, velocity=61, time=2),
    Message('note_off', channel=3, note=70, velocity=64, time=1),
    Message('note_off', channel=9, note=70, velocity=64, time=3),
    Message('note_off', channel=1, note=34, velocity=64, time=10),
    MetaMessage('lyrics', text='look', time=3),
    Message('note_on', channel=3, note=70, velocity=87, time=0),
    Message('note_off', channel=4, note=58, velocity=64, time=1),
    Message('note_off', channel=4, note=66, velocity=64, time=0),
    Message('note_off', channel=4, note=61, velocity=64, time=0),
    Message('note_on', channel=4, note=58, velocity=89, time=2),
    Message('note_on', channel=4, note=61, velocity=90, time=0),
    Message('note_on', channel=4, note=66, velocity=86, time=1),
    Message('note_on', channel=1, note=36, velocity=110, time=0),
    Message('note_on', channel=0, note=61, velocity=83, time=0),
    Message('note_on', channel=9, note=46, velocity=69, time=1),
    Message('note_on', channel=9, note=70, velocity=58, time=0),
    Message('note_off', channel=9, note=46, velocity=64, time=6),
    Message('note_off', channel=9, note=70, velocity=64, time=0),
    Message('note_on', channel=9, note=46, velocity=87, time=17),
    Message('note_on', channel=7, note=61, velocity=47, time=0),
    Message('note_on', channel=9, note=70, velocity=75, time=1),
    Message('note_off', channel=9, note=46, velocity=64, time=5),
    Message('note_off', channel=9, note=70, velocity=64, time=1),
    Message('note_off', channel=6, note=61, velocity=64, time=5),
    Message('note_off', channel=6, note=63, velocity=64, time=0),
    Message('note_off', channel=6, note=68, velocity=64, time=2),
    Message('note_off', channel=3, note=70, velocity=64, time=4),
    Message('note_off', channel=4, note=58, velocity=64, time=5),
    Message('note_off', channel=4, note=66, velocity=64, time=1),
    Message('note_on', channel=4, note=65, velocity=63, time=0),
    Message('note_on', channel=4, note=56, velocity=63, time=0),
    Message('note_on', channel=1, note=37, velocity=121, time=0),
    Message('note_on', channel=6, note=56, velocity=38, time=0),
    Message('note_on', channel=6, note=61, velocity=45, time=0),
    Message('note_on', channel=9, note=36, velocity=86, time=1),
    Message('note_off', channel=1, note=36, velocity=64, time=0),
    Message('note_on', channel=9, note=70, velocity=51, time=0),
    MetaMessage('lyrics', text='ing ', time=1),
    Message('note_on', channel=3, note=73, velocity=73, time=0),
    Message('note_on', channel=9, note=46, velocity=93, time=0),
    Message('note_on', channel=0, note=49, velocity=97, time=2),
    Message('note_off', channel=9, note=36, velocity=64, time=3),
    Message('note_off', channel=9, note=70, velocity=64, time=0),
    Message('note_off', channel=9, note=46, velocity=64, time=1),
    Message('note_on', channel=9, note=70, velocity=21, time=17),
    Message('note_on', channel=7, note=49, velocity=61, time=3),
    Message('note_off', channel=3, note=73, velocity=64, time=2),
    Message('note_off', channel=9, note=70, velocity=64, time=1),
    Message('note_off', channel=0, note=61, velocity=64, time=9),
    Message('note_off', channel=4, note=56, velocity=64, time=6),
    Message('note_off', channel=4, note=65, velocity=64, time=0),
    Message('note_off', channel=4, note=61, velocity=64, time=0),
    Message('note_on', channel=4, note=56, velocity=67, time=1),
    Message('note_on', channel=4, note=61, velocity=60, time=0),
    Message('note_on', channel=4, note=65, velocity=65, time=0),
    MetaMessage('lyrics', text='for. ', time=1),
    MetaMessage('lyrics', text='\r', time=0),
    Message('note_on', channel=3, note=73, velocity=71, time=0),
    Message('note_on', channel=0, note=61, velocity=81, time=0),
    Message('note_on', channel=9, note=70, velocity=42, time=1),
    Message('note_off', channel=1, note=37, velocity=64, time=5),
    Message('note_off', channel=9, note=70, velocity=64, time=1),
    Message('note_off', channel=0, note=68, velocity=64, time=3),
    Message('note_off', channel=7, note=61, velocity=64, time=6),
    Message('note_on', channel=7, note=61, velocity=45, time=8),
    Message('note_on', channel=9, note=46, velocity=73, time=1),
    Message('note_on', channel=9, note=70, velocity=43, time=0),
    Message('note_off', channel=9, note=46, velocity=64, time=6),
    Message('note_off', channel=9, note=70, velocity=64, time=0),
    Message('note_off', channel=7, note=68, velocity=64, time=3),
    Message('note_off', channel=0, note=63, velocity=64, time=8),
    Message('note_on', channel=9, note=46, velocity=93, time=6),
    Message('note_on', channel=1, note=37, velocity=111, time=1),
    Message('note_on', channel=0, note=68, velocity=80, time=0),
    Message('note_on', channel=9, note=70, velocity=71, time=0),
    Message('note_on', channel=9, note=36, velocity=82, time=1),
    Message('note_off', channel=9, note=46, velocity=64, time=4),
    Message('note_off', channel=9, note=70, velocity=64, time=1),
    Message('note_off', channel=9, note=36, velocity=64, time=1),
    Message('note_off', channel=7, note=63, velocity=64, time=10),
    Message('note_on', channel=7, note=68, velocity=44, time=7),
    Message('note_on', channel=9, note=70, velocity=36, time=0),
    Message('note_off', channel=9, note=70, velocity=64, time=6),
    Message('note_off', channel=0, note=49, velocity=64, time=3),
    Message('note_on', channel=9, note=46, velocity=90, time=14),
    Message('note_on', channel=9, note=70, velocity=43, time=1),
    Message('note_on', channel=0, note=49, velocity=89, time=1),
    Message('note_off', channel=9, note=46, velocity=64, time=4),
    Message('note_off', channel=9, note=70, velocity=64, time=1),
    Message('note_off', channel=7, note=49, velocity=64, time=3),
    Message('note_off', channel=1, note=37, velocity=64, time=6),
    Message('note_on', channel=9, note=70, velocity=58, time=9),
    Message('note_on', channel=7, note=49, velocity=53, time=1),
    Message('note_off', channel=9, note=70, velocity=64, time=5),
    Message('note_off', channel=0, note=61, velocity=64, time=8),
    Message('note_on', channel=9, note=46, velocity=69, time=9),
    Message('note_on', channel=1, note=37, velocity=121, time=0),
    Message('note_on', channel=9, note=36, velocity=99, time=1),
    Message('note_on', channel=9, note=70, velocity=61, time=0),
    Message('note_on', channel=0, note=61, velocity=80, time=2),
    Message('note_off', channel=9, note=46, velocity=64, time=3),
    Message('note_off', channel=9, note=36, velocity=64, time=1),
    Message('note_off', channel=9, note=70, velocity=64, time=0),
    Message('note_off', channel=7, note=61, velocity=64, time=8),
    Message('note_on', channel=9, note=46, velocity=73, time=9),
    Message('note_on', channel=9, note=70, velocity=34, time=1),
    Message('note_on', channel=7, note=61, velocity=44, time=2),
    Message('note_off', channel=9, note=46, velocity=64, time=3),
    Message('note_off', channel=9, note=70, velocity=64, time=1),
    Message('note_off', channel=0, note=68, velocity=64, time=6),
    Message('note_on', channel=9, note=46, velocity=59, time=11),
    Message('note_on', channel=9, note=70, velocity=47, time=1),
    Message('note_on', channel=0, note=68, velocity=83, time=2),
    Message('note_off', channel=9, note=46, velocity=64, time=3),
    Message('note_off', channel=9, note=70, velocity=64, time=1),
    Message('note_off', channel=1, note=37, velocity=64, time=5),
    Message('note_off', channel=7, note=68, velocity=64, time=1),
    Message('note_on', channel=9, note=46, velocity=81, time=11),
    Message('note_on', channel=1, note=32, velocity=106, time=1),
    Message('note_on', channel=9, note=70, velocity=65, time=0),
    Message('note_on', channel=7, note=68, velocity=47, time=2),
    Message('note_off', channel=9, note=46, velocity=64, time=3),
    Message('note_off', channel=9, note=70, velocity=64, time=1),
    Message('note_on', channel=9, note=46, velocity=90, time=17),
    Message('note_off', channel=0, note=49, velocity=64, time=0),
    Message('note_off', channel=3, note=73, velocity=64, time=1),
    Message('note_on', channel=1, note=34, velocity=108, time=0),
    Message('note_on', channel=9, note=70, velocity=67, time=0),
    Message('note_on', channel=9, note=36, velocity=91, time=1),
    Message('note_off', channel=1, note=32, velocity=64, time=1),
    Message('note_on', channel=0, note=49, velocity=75, time=0),
    Message('note_off', channel=9, note=46, velocity=64, time=3),
    Message('note_off', channel=9, note=70, velocity=64, time=1),
    MetaMessage('lyrics', text='\n', time=1),
    Message('note_off', channel=9, note=36, velocity=64, time=0),
    Message('note_off', channel=7, note=49, velocity=64, time=16),
    Message('note_on', channel=9, note=70, velocity=36, time=1),
    Message('note_on', channel=7, note=49, velocity=39, time=2),
    Message('note_off', channel=9, note=70, velocity=64, time=4),
    Message('note_off', channel=0, note=61, velocity=64, time=6),
    Message('note_on', channel=9, note=46, velocity=65, time=11),
    Message('note_off', channel=1, note=34, velocity=64, time=0),
    Message('note_on', channel=1, note=37, velocity=117, time=0),
    Message('note_on', channel=0, note=61, velocity=75, time=1),
    Message('note_on', channel=9, note=70, velocity=43, time=0),
    Message('note_off', channel=9, note=46, velocity=64, time=5),
    Message('note_off', channel=9, note=70, velocity=64, time=1),
    Message('note_off', channel=7, note=61, velocity=64, time=6),
    Message('note_on', channel=9, note=46, velocity=75, time=11),
    Message('note_on', channel=7, note=61, velocity=39, time=1),
    Message('note_on', channel=9, note=70, velocity=71, time=0),
    Message('note_off', channel=9, note=46, velocity=64, time=5),
    Message('note_off', channel=9, note=70, velocity=64, time=1),
    Message('note_off', channel=1, note=37, velocity=64, time=9),
    Message('note_on', channel=9, note=46, velocity=87, time=8),
    Message('note_off', channel=0, note=49, velocity=64, time=0),
    Message('note_on', channel=9, note=36, velocity=101, time=1),
    Message('note_on', channel=9, note=70, velocity=77, time=0),
    Message('note_on', channel=1, note=37, velocity=114, time=1),
    Message('note_on', channel=0, note=49, velocity=95, time=0),
    Message('note_off', channel=9, note=46, velocity=64, time=4),
    Message('note_off', channel=9, note=36, velocity=64, time=1),
    Message('note_off', channel=9, note=70, velocity=64, time=0),
    Message('note_off', channel=7, note=49, velocity=64, time=17),
    Message('note_on', channel=9, note=70, velocity=32, time=1),
    Message('note_on', channel=7, note=49, velocity=58, time=1),
    Message('note_off', channel=9, note=70, velocity=64, time=5),
    Message('note_off', channel=0, note=68, velocity=64, time=1),
    Message('note_off', channel=0, note=61, velocity=64, time=9),
    Message('note_on', channel=9, note=46, velocity=59, time=7),
    Message('note_on', channel=9, note=70, velocity=44, time=1),
    Message('note_on', channel=0, note=61, velocity=80, time=1),
    Message('note_off', channel=4, note=65, velocity=64, time=1),
    Message('note_off', channel=4, note=61, velocity=64, time=0),
    Message('note_off', channel=4, note=56, velocity=64, time=0),
    Message('note_off', channel=9, note=46, velocity=64, time=3),
    Message('note_off', channel=9, note=70, velocity=64, time=1),
    Message('note_off', channel=7, note=68, velocity=64, time=1),
    Message('note_off', channel=1, note=37, velocity=64, time=8),
    Message('note_off', channel=7, note=61, velocity=64, time=1),
    Message('note_on', channel=9, note=46, velocity=84, time=7),
    Message('note_on', channel=9, note=70, velocity=58, time=1),
    Message('note_on', channel=9, note=38, velocity=71, time=1),
    Message('note_on', channel=7, note=61, velocity=44, time=0),
    Message('note_off', channel=9, note=46, velocity=64, time=4),
    Message('note_off', channel=9, note=70, velocity=64, time=1),
    Message('note_off', channel=9, note=38, velocity=64, time=1),
    Message('note_on', channel=9, note=46, velocity=90, time=16),
    Message('note_on', channel=9, note=70, velocity=80, time=1),
    Message('note_on', channel=9, note=36, velocity=86, time=1),
    Message('note_on', channel=1, note=37, velocity=114, time=0),
    Message('note_on', channel=0, note=68, velocity=79, time=1),
    Message('note_off', channel=9, note=46, velocity=64, time=3),
    Message('note_off', channel=9, note=70, velocity=64, time=1),
    Message('note_off', channel=9, note=36, velocity=64, time=1),
    Message('note_on', channel=9, note=70, velocity=38, time=17),
    Message('note_on', channel=7, note=68, velocity=42, time=2),
    Message('note_off', channel=9, note=70, velocity=64, time=4),
    Message('note_off', channel=0, note=49, velocity=64, time=11),
    Message('note_on', channel=9, note=46, velocity=63, time=6),
    Message('note_on', channel=9, note=70, velocity=51, time=1),
    Message('note_on', channel=0, note=49, velocity=88, time=1),
    Message('note_off', channel=9, note=46, velocity=64, time=4),
    Message('note_off', channel=9, note=70, velocity=64, time=1),
    Message('note_off', channel=1, note=37, velocity=64, time=11),
    Message('note_off', channel=7, note=49, velocity=64, time=0),
    Message('note_on', channel=9, note=46, velocity=84, time=6),
    Message('note_on', channel=9, note=70, velocity=51, time=1),
    Message('note_on', channel=9, note=38, velocity=57, time=1),
    Message('note_on', channel=7, note=49, velocity=52, time=0),
    Message('note_off', channel=9, note=46, velocity=64, time=4),
    Message('note_off', channel=9, note=70, velocity=64, time=1),
    Message('note_off', channel=9, note=38, velocity=64, time=1),
    Message('note_off', channel=0, note=61, velocity=64, time=8),
    Message('note_on', channel=9, note=46, velocity=93, time=8),
    Message('note_on', channel=1, note=37, velocity=111, time=0),
    Message('note_on', channel=9, note=36, velocity=94, time=1),
    Message('note_on', channel=9, note=70, velocity=80, time=0),
    Message('note_on', channel=0, note=61, velocity=87, time=2),
    Message('note_off', channel=9, note=46, velocity=64, time=3),
    Message('note_off', channel=9, note=36, velocity=64, time=1),
    Message('note_off', channel=9, note=70, velocity=64, time=0),
    Message('note_off', channel=7, note=61, velocity=64, time=9),
    Message('note_on', channel=9, note=70, velocity=43, time=9),
    Message('note_on', channel=7, note=61, velocity=50, time=2),
    Message('note_off', channel=9, note=70, velocity=64, time=4),
    Message('note_off', channel=0, note=68, velocity=64, time=3),
    MetaMessage('lyrics', text='But ', time=12),
    Message('note_on', channel=3, note=73, velocity=74, time=0),
    Message('note_on', channel=4, note=56, velocity=75, time=2),
    Message('note_on', channel=4, note=61, velocity=72, time=0),
    Message('note_on', channel=9, note=46, velocity=53, time=0),
    Message('note_on', channel=0, note=68, velocity=84, time=0),
    Message('note_on', channel=9, note=70, velocity=43, time=1),
    Message('note_on', channel=9, note=36, velocity=96, time=1),
    Message('note_off', channel=9, note=46, velocity=64, time=4),
    Message('note_off', channel=9, note=70, velocity=64, time=1),
    Message('note_off', channel=9, note=36, velocity=64, time=1),
    Message('note_off', channel=7, note=68, velocity=64, time=2),
    Message('note_off', channel=1, note=37, velocity=64, time=3),
    Message('note_off', channel=3, note=73, velocity=64, time=11),
    Message('note_on', channel=9, note=46, velocity=71, time=0),
    Message('note_on', channel=1, note=32, velocity=109, time=0),
    Message('note_on', channel=7, note=68, velocity=48, time=0),
    Message('note_on', channel=9, note=70, velocity=67, time=1),
    Message('note_off', channel=9, note=46, velocity=64, time=5),
    Message('note_off', channel=9, note=70, velocity=64, time=1),
    MetaMessage('lyrics', text='I ', time=14),
    Message('note_on', channel=3, note=73, velocity=99, time=0),
    Message('note_off', channel=0, note=49, velocity=64, time=0),
    Message('note_off', channel=4, note=61, velocity=64, time=2),
    Message('note_off', channel=4, note=56, velocity=64, time=0),
    Message('note_on', channel=4, note=56, velocity=72, time=1),
    Message('note_on', channel=4, note=61, velocity=77, time=0),
    Message('note_on', channel=9, note=46, velocity=87, time=0),
    Message('note_on', channel=9, note=55, velocity=101, time=1),
    Message('note_on', channel=1, note=34, velocity=109, time=0),
    Message('note_on', channel=9, note=70, velocity=83, time=0),
    Message('note_on', channel=9, note=38, velocity=101, time=1),
    Message('note_on', channel=9, note=36, velocity=101, time=0),
    Message('note_on', channel=0, note=49, velocity=85, time=1),
    Message('note_off', channel=1, note=32, velocity=64, time=1),
    Message('note_off', channel=9, note=46, velocity=64, time=2),
    Message('note_off', channel=9, note=55, velocity=64, time=1),
    Message('note_off', channel=9, note=70, velocity=64, time=0),
    Message('note_off', channel=9, note=38, velocity=64, time=1),
    Message('note_off', channel=9, note=36, velocity=64, time=0),
    Message('note_off', channel=7, note=49, velocity=64, time=13),
    Message('note_on', channel=9, note=46, velocity=61, time=3),
    Message('note_on', channel=9, note=70, velocity=22, time=1),
    Message('note_on', channel=7, note=49, velocity=49, time=2),
    Message('note_off', channel=3, note=73, velocity=64, time=3),
    Message('note_off', channel=9, note=46, velocity=64, time=0),
    Message('note_off', channel=9, note=70, velocity=64, time=1),
    Message('note_off', channel=0, note=61, velocity=64, time=12),
    Message('note_off', channel=1, note=34, velocity=64, time=2),
    MetaMessage('lyrics', text='still ', time=1),
    Message('note_on', channel=3, note=80, velocity=99, time=0),
    Message('note_off', channel=4, note=61, velocity=64, time=1),
    Message('note_off', channel=4, note=56, velocity=64, time=0),
    Message('note_on', channel=4, note=60, velocity=51, time=0),
    Message('note_on', channel=4, note=56, velocity=72, time=1),
    Message('note_on', channel=4, note=63, velocity=75, time=0),
    Message('note_on', channel=9, note=46, velocity=84, time=0),
    Message('note_on', channel=1, note=37, velocity=117, time=0),
    Message('note_on', channel=9, note=70, velocity=58, time=1),
    Message('note_on', channel=0, note=61, velocity=83, time=2),
    Message('note_off', channel=9, note=46, velocity=64, time=3),
    Message('note_off', channel=9, note=70, velocity=64, time=1),
    Message('note_off', channel=7, note=61, velocity=64, time=12),
    Message('note_on', channel=9, note=46, velocity=87, time=5),
    Message('note_off', channel=6, note=61, velocity=64, time=0),
    Message('note_on', channel=9, note=70, velocity=75, time=1),
    Message('note_on', channel=7, note=61, velocity=47, time=2),
    Message('note_off', channel=9, note=46, velocity=64, time=3),
    Message('note_off', channel=9, note=70, velocity=64, time=1),
    Message('note_off', channel=0, note=68, velocity=64, time=5),
    Message('note_off', channel=6, note=56, velocity=64, time=5),
    Message('note_off', channel=1, note=37, velocity=64, time=1),
    Message('note_on', channel=6, note=63, velocity=46, time=5),
    Message('note_on', channel=6, note=68, velocity=51, time=0),
    Message('note_on', channel=6, note=61, velocity=59, time=0),
    Message('note_off', channel=0, note=49, velocity=64, time=0),
    Message('note_off', channel=0, note=54, velocity=64, time=0),
    Message('note_off', channel=0, note=61, velocity=64, time=0),
    Message('note_on', channel=9, note=46, velocity=97, time=1),
    Message('note_on', channel=1, note=32, velocity=109, time=0),
    Message('pitchwheel', channel=0, pitch=103, time=0),
    Message('note_on', channel=9, note=70, velocity=51, time=1),
    Message('note_on', channel=9, note=36, velocity=101, time=1),
    Message('note_on', channel=9, note=57, velocity=59, time=0),
    Message('note_on', channel=9, note=49, velocity=59, time=0),
    Message('note_on', channel=0, note=56, velocity=99, time=0),
    Message('pitchwheel', channel=0, pitch=-175, time=1),
    Message('note_off', channel=9, note=46, velocity=64, time=3),
    Message('note_off', channel=9, note=70, velocity=64, time=1),
    Message('note_off', channel=9, note=36, velocity=64, time=1),
    Message('note_off', channel=9, note=57, velocity=64, time=0),
    Message('note_off', channel=9, note=49, velocity=64, time=0),
    Message('note_off', channel=7, note=68, velocity=64, time=4),
    Message('note_off', channel=7, note=49, velocity=64, time=11),
    Message('note_off', channel=7, note=54, velocity=64, time=0),
    Message('note_off', channel=7, note=61, velocity=64, time=0),
    Message('pitchwheel', channel=7, pitch=103, time=1),
    Message('note_on', channel=9, note=70, velocity=21, time=1),
    Message('note_on', channel=7, note=56, velocity=63, time=1),
    Message('pitchwheel', channel=7, pitch=-175, time=1),
    Message('note_off', channel=9, note=70, velocity=64, time=4),
    Message('pitchwheel', channel=0, pitch=0, time=16),
    Message('note_on', channel=0, note=63, velocity=100, time=2),
    Message('note_on', channel=9, note=70, velocity=42, time=0),
    Message('note_off', channel=9, note=70, velocity=64, time=6),
    Message('pitchwheel', channel=7, pitch=0, time=16),
    Message('note_on', channel=9, note=46, velocity=67, time=1),
    Message('note_on', channel=7, note=63, velocity=64, time=1),
    Message('note_on', channel=9, note=70, velocity=43, time=0),
    Message('note_off', channel=9, note=46, velocity=64, time=5),
    Message('note_off', channel=9, note=70, velocity=64, time=1),
    Message('note_off', channel=1, note=32, velocity=64, time=6),
    Message('note_on', channel=9, note=46, velocity=78, time=11),
    Message('note_on', channel=1, note=29, velocity=110, time=0),
    Message('note_on', channel=9, note=70, velocity=71, time=1),
    Message('note_on', channel=9, note=36, velocity=101, time=1),
    Message('note_on', channel=0, note=68, velocity=79, time=0),
    Message('note_off', channel=9, note=46, velocity=64, time=4),
    Message('note_off', channel=9, note=70, velocity=64, time=1),
    Message('note_off', channel=9, note=36, velocity=64, time=1),
    Message('note_on', channel=9, note=70, velocity=36, time=17),
    Message('note_on', channel=9, note=46, velocity=58, time=1),
    Message('note_on', channel=7, note=68, velocity=42, time=0),
    Message('note_off', channel=9, note=70, velocity=64, time=5),
    Message('note_off', channel=3, note=80, velocity=64, time=1),
    Message('note_off', channel=9, note=46, velocity=64, time=0),
    Message('note_off', channel=0, note=56, velocity=64, time=4),
    Message('note_off', channel=1, note=29, velocity=64, time=10),
    Message('note_on', channel=0, note=56, velocity=93, time=1),
    Message('note_on', channel=9, note=46, velocity=90, time=2),
    Message('note_on', channel=1, note=32, velocity=127, time=0),
    Message('note_on', channel=9, note=70, velocity=43, time=0),
    Message('note_off', channel=9, note=46, velocity=64, time=6),
    Message('note_off', channel=9, note=70, velocity=64, time=0),
    Message('note_off', channel=7, note=56, velocity=64, time=5),
    Message('note_on', channel=7, note=56, velocity=57, time=11),
    Message('note_on', channel=9, note=70, velocity=58, time=2),
    Message('note_off', channel=9, note=70, velocity=64, time=6),
    Message('note_off', channel=0, note=63, velocity=64, time=6),
    Message('note_on', channel=0, note=63, velocity=105, time=11),
    Message('note_on', channel=9, note=70, velocity=61, time=1),
    Message('note_on', channel=9, note=36, velocity=101, time=1),
    Message('note_off', channel=9, note=70, velocity=64, time=5),
    Message('note_off', channel=9, note=36, velocity=64, time=1),
    Message('note_off', channel=7, note=63, velocity=64, time=5),
    Message('note_on', channel=9, note=46, velocity=78, time=11),
    Message('note_on', channel=7, note=63, velocity=69, time=0),
    Message('note_on', channel=9, note=70, velocity=34, time=1),
    Message('note_off', channel=9, note=46, velocity=64, time=5),
    Message('note_off', channel=9, note=70, velocity=64, time=1),
    Message('note_off', channel=0, note=68, velocity=64, time=9),
    Message('note_off', channel=4, note=56, velocity=64, time=4),
    Message('note_off', channel=4, note=60, velocity=64, time=0),
    Message('note_off', channel=4, note=63, velocity=64, time=1),
    Message('note_on', channel=4, note=61, velocity=63, time=2),
    Message('note_on', channel=4, note=56, velocity=67, time=0),
    Message('note_on', channel=4, note=66, velocity=57, time=0),
    Message('note_off', channel=1, note=32, velocity=64, time=0),
    Message('note_on', channel=0, note=68, velocity=75, time=0),
    Message('note_on', channel=1, note=34, velocity=105, time=1),
    MetaMessage('lyrics', text='have', time=1),
    Message('note_on', channel=3, note=78, velocity=107, time=0),
    Message('note_on', channel=9, note=70, velocity=47, time=0),
    Message('note_off', channel=9, note=70, velocity=64, time=6),
    Message('note_off', channel=7, note=68, velocity=64, time=9),
    Message('note_on', channel=7, note=68, velocity=39, time=7),
    Message('note_on', channel=9, note=46, velocity=87, time=1),
    Message('note_on', channel=9, note=70, velocity=65, time=1),
    Message('note_off', channel=9, note=46, velocity=64, time=5),
    Message('note_off', channel=9, note=70, velocity=64, time=1),
    Message('note_off', channel=0, note=56, velocity=64, time=11),
    Message('note_off', channel=3, note=78, velocity=64, time=1),
    Message('note_off', channel=4, note=66, velocity=64, time=3),
    Message('note_off', channel=4, note=56, velocity=64, time=0),
    Message('note_off', channel=4, note=61, velocity=64, time=0),
    Message('note_on', channel=4, note=66, velocity=75, time=1),
    Message('note_on', channel=4, note=61, velocity=75, time=0),
    Message('note_on', channel=4, note=56, velocity=79, time=0),
    Message('note_off', channel=1, note=34, velocity=64, time=1),
    Message('note_on', channel=1, note=36, velocity=113, time=0),
    Message('note_on', channel=0, note=56, velocity=92, time=0),
    Message('note_on', channel=9, note=70, velocity=67, time=1),
    MetaMessage('lyrics', text="n't ", time=1),
    Message('note_on', channel=3, note=77, velocity=81, time=0),
    Message('note_on', channel=9, note=36, velocity=101, time=0),
    Message('note_on', channel=9, note=38, velocity=101, time=0),
    Message('note_on', channel=9, note=46, velocity=90, time=0),
    Message('note_off', channel=9, note=70, velocity=64, time=5),
    Message('note_off', channel=9, note=46, velocity=64, time=1),
    Message('note_off', channel=9, note=38, velocity=64, time=0),
    Message('note_off', channel=9, note=36, velocity=64, time=0),
    Message('note_off', channel=7, note=56, velocity=64, time=10),
    Message('note_on', channel=7, note=56, velocity=56, time=6),
    Message('note_on', channel=9, note=70, velocity=36, time=1),
    Message('note_off', channel=9, note=70, velocity=64, time=6),
    Message('note_off', channel=0, note=68, velocity=64, time=7),
    Message('note_off', channel=3, note=77, velocity=64, time=8),
    Message('note_off', channel=4, note=56, velocity=64, time=1),
    Message('note_off', channel=4, note=61, velocity=64, time=0),
    Message('note_off', channel=4, note=66, velocity=64, time=0),
    Message('note_on', channel=4, note=56, velocity=81, time=1),
    Message('note_on', channel=4, note=65, velocity=82, time=0),
    Message('note_on', channel=4, note=61, velocity=74, time=0),
    Message('note_on', channel=1, note=37, velocity=119, time=0),
    Message('note_off', channel=1, note=36, velocity=64, time=1),
    Message('note_on', channel=9, note=70, velocity=43, time=0),
    Message('note_on', channel=9, note=46, velocity=57, time=1),
    Message('note_on', channel=0, note=68, velocity=72, time=0),
    MetaMessage('lyrics', text='found ', time=1),
    MetaMessage('lyrics', text='\r', time=0),
    Message('note_on', channel=3, note=73, velocity=70, time=0),
    Message('note_off', channel=9, note=70, velocity=64, time=4),
    Message('note_off', channel=9, note=46, velocity=64, time=1),
    Message('note_off', channel=7, note=68, velocity=64, time=6),
    Message('note_on', channel=9, note=46, velocity=90, time=10),
    Message('note_on', channel=9, note=70, velocity=71, time=1),
    Message('note_on', channel=7, note=68, velocity=36, time=1),
    Message('note_off', channel=9, note=46, velocity=64, time=4),
    Message('note_off', channel=9, note=70, velocity=64, time=1),
    Message('note_off', channel=0, note=56, velocity=64, time=11),
    Message('note_off', channel=4, note=56, velocity=64, time=6),
    Message('note_on', channel=4, note=58, velocity=76, time=0),
    Message('note_on', channel=9, note=46, velocity=90, time=1),
    Message('note_off', channel=1, note=37, velocity=64, time=0),
    Message('note_on', channel=0, note=54, velocity=101, time=0),
    Message('note_on', channel=9, note=70, velocity=77, time=0),
    Message('note_on', channel=9, note=36, velocity=94, time=1),
    Message('note_on', channel=1, note=30, velocity=123, time=0),
    Message('note_off', channel=9, note=46, velocity=64, time=5),
    Message('note_off', channel=9, note=70, velocity=64, time=0),
    Message('note_off', channel=9, note=36, velocity=64, time=1),
    Message('note_off', channel=7, note=56, velocity=64, time=10),
    Message('note_on', channel=7, note=54, velocity=65, time=7),
    Message('note_on', channel=9, note=70, velocity=32, time=0),
    Message('note_off', channel=9, note=70, velocity=64, time=6),
    Message('note_off', channel=0, note=63, velocity=64, time=9),
    Message('note_on', channel=0, note=63, velocity=89, time=9),
    Message('note_on', channel=9, note=70, velocity=44, time=0),
    Message('note_on', channel=9, note=46, velocity=56, time=1),
    Message('note_off', channel=9, note=70, velocity=64, time=5),
    Message('note_off', channel=9, note=46, velocity=64, time=1),
    Message('note_off', channel=7, note=63, velocity=64, time=8),
    Message('note_on', channel=9, note=46, velocity=84, time=9),
    Message('note_on', channel=7, note=63, velocity=53, time=0),
    Message('note_on', channel=9, note=70, velocity=58, time=0),
    Message('note_off', channel=0, note=68, velocity=64, time=4),
    Message('note_off', channel=9, note=46, velocity=64, time=2),
    Message('note_off', channel=9, note=70, velocity=64, time=0),
    Message('note_off', channel=1, note=30, velocity=64, time=16),
    Message('note_on', channel=9, note=46, velocity=55, time=1),
    Message('note_on', channel=0, note=68, velocity=67, time=0),
    Message('note_on', channel=9, note=36, velocity=101, time=1),
    Message('note_on', channel=1, note=29, velocity=110, time=0),
    Message('note_on', channel=9, note=70, velocity=80, time=0),
    Message('note_off', channel=7, note=68, velocity=64, time=4),
    Message('note_off', channel=9, note=46, velocity=64, time=1),
    Message('note_off', channel=9, note=36, velocity=64, time=1),
    Message('note_off', channel=9, note=70, velocity=64, time=0),
    Message('note_off', channel=3, note=73, velocity=64, time=3),
    Message('note_on', channel=9, note=46, velocity=87, time=14),
    Message('note_on', channel=7, note=68, velocity=31, time=0),
    Message('note_on', channel=9, note=70, velocity=38, time=1),
    Message('note_off', channel=9, note=46, velocity=64, time=5),
    Message('note_off', channel=9, note=70, velocity=64, time=1),
    Message('note_off', channel=0, note=63, velocity=64, time=6),
    Message('note_off', channel=1, note=29, velocity=64, time=6),
    Message('note_on', channel=9, note=46, velocity=97, time=6),
    Message('note_on', channel=0, note=63, velocity=80, time=0),
    Message('note_on', channel=9, note=70, velocity=51, time=0),
    Message('note_on', channel=1, note=30, velocity=123, time=1),
    Message('note_off', channel=9, note=46, velocity=64, time=5),
    Message('note_off', channel=9, note=70, velocity=64, time=0),
    Message('note_off', channel=7, note=63, velocity=64, time=6),
    Message('note_off', channel=0, note=63, velocity=64, time=11),
    Message('note_on', channel=7, note=63, velocity=44, time=1),
    Message('note_on', channel=9, note=70, velocity=51, time=0),
    Message('note_on', channel=0, note=63, velocity=85, time=1),
    Message('note_off', channel=9, note=70, velocity=64, time=5),
    Message('note_off', channel=0, note=63, velocity=64, time=16),
    Message('note_off', channel=7, note=63, velocity=64, time=1),
    Message('note_on', channel=9, note=36, velocity=82, time=1),
    Message('note_on', channel=9, note=46, velocity=59, time=0),
    Message('note_on', channel=9, note=70, velocity=80, time=0),
    Message('note_on', channel=7, note=63, velocity=49, time=1),
    Message('note_on', channel=0, note=63, velocity=81, time=2),
    Message('note_off', channel=9, note=46, velocity=64, time=3),
    Message('note_off', channel=9, note=36, velocity=64, time=0),
    Message('note_off', channel=9, note=70, velocity=64, time=0),
    Message('note_off', channel=4, note=65, velocity=64, time=7),
    Message('note_off', channel=4, note=58, velocity=64, time=1),
    Message('note_off', channel=4, note=61, velocity=64, time=1),
    Message('note_off', channel=7, note=63, velocity=64, time=7),
    Message('note_on', channel=9, note=46, velocity=87, time=1),
    Message('note_on', channel=9, note=70, velocity=43, time=1),
    Message('note_on', channel=7, note=63, velocity=45, time=3),
    Message('note_off', channel=9, note=46, velocity=64, time=2),
    Message('note_off', channel=9, note=70, velocity=64, time=1),
    MetaMessage('lyrics', text='what ', time=14),
    Message('note_on', channel=3, note=70, velocity=59, time=0),
    Message('note_off', channel=0, note=68, velocity=64, time=1),
    Message('note_on', channel=4, note=66, velocity=62, time=1),
    Message('note_on', channel=4, note=61, velocity=70, time=1),
    Message('note_on', channel=4, note=58, velocity=78, time=0),
    Message('note_on', channel=9, note=36, velocity=50, time=0),
    Message('note_on', channel=9, note=46, velocity=63, time=0),
    Message('note_on', channel=9, note=70, velocity=43, time=1),
    Message('note_on', channel=1, note=32, velocity=124, time=1),
    Message('note_on', channel=0, note=68, velocity=87, time=1),
    Message('note_off', channel=1, note=30, velocity=64, time=2),
    Message('note_off', channel=9, note=46, velocity=64, time=1),
    Message('note_off', channel=9, note=36, velocity=64, time=0),
    Message('note_off', channel=9, note=70, velocity=64, time=1),
    Message('note_off', channel=7, note=68, velocity=64, time=15),
    Message('note_on', channel=9, note=46, velocity=90, time=2),
    Message('note_off', channel=3, note=70, velocity=64, time=1),
    Message('note_on', channel=9, note=70, velocity=67, time=0),
    Message('note_on', channel=7, note=68, velocity=50, time=2),
    Message('note_off', channel=9, note=46, velocity=64, time=3),
    Message('note_off', channel=9, note=70, velocity=64, time=1),
    Message('note_off', channel=0, note=54, velocity=64, time=14),
    MetaMessage('lyrics', text="I'm ", time=1),
    Message('note_on', channel=3, note=70, velocity=91, time=0),
    Message('note_on', channel=9, note=46, velocity=84, time=2),
    Message('note_off', channel=1, note=32, velocity=64, time=0),
    Message('note_on', channel=1, note=34, velocity=85, time=0),
    Message('note_off', channel=4, note=58, velocity=64, time=1),
    Message('note_off', channel=4, note=61, velocity=64, time=0),
    Message('note_off', channel=4, note=66, velocity=64, time=0),
    Message('note_on', channel=9, note=70, velocity=83, time=0),
    Message('note_on', channel=4, note=58, velocity=80, time=1),
    Message('note_on', channel=4, note=61, velocity=82, time=0),
    Message('note_on', channel=4, note=66, velocity=80, time=0),
    Message('note_on', channel=9, note=36, velocity=101, time=0),
    Message('note_on', channel=9, note=38, velocity=101, time=0),
    Message('note_on', channel=0, note=54, velocity=97, time=1),
    Message('note_off', channel=9, note=46, velocity=64, time=3),
    Message('note_off', channel=9, note=70, velocity=64, time=1),
    Message('note_off', channel=9, note=38, velocity=64, time=1),
    Message('note_off', channel=9, note=36, velocity=64, time=0),
    Message('note_off', channel=7, note=54, velocity=64, time=13),
    Message('note_on', channel=9, note=70, velocity=22, time=4),
    Message('note_off', channel=3, note=70, velocity=64, time=1),
    Message('note_on', channel=7, note=54, velocity=61, time=1),
    Message('note_off', channel=9, note=70, velocity=64, time=4),
    Message('note_off', channel=4, note=66, velocity=64, time=15),
    Message('note_off', channel=4, note=61, velocity=64, time=0),
    Message('note_off', channel=4, note=58, velocity=64, time=0),
    MetaMessage('lyrics', text='look', time=1),
    Message('note_on', channel=3, note=70, velocity=91, time=0),
    Message('note_on', channel=4, note=66, velocity=86, time=1),
    Message('note_on', channel=4, note=61, velocity=82, time=0),
    Message('note_on', channel=4, note=58, velocity=82, time=0),
    Message('note_on', channel=0, note=61, velocity=83, time=0),
    Message('note_on', channel=9, note=46, velocity=59, time=1),
    Message('note_off', channel=1, note=34, velocity=64, time=0),
    Message('note_on', channel=9, note=70, velocity=58, time=0),
    Message('note_on', channel=1, note=36, velocity=120, time=1),
    Message('note_off', channel=9, note=46, velocity=64, time=5),
    Message('note_off', channel=9, note=70, velocity=64, time=0),
    Message('note_off', channel=6, note=61, velocity=64, time=16),
    Message('note_on', channel=9, note=46, velocity=90, time=1),
    Message('note_on', channel=7, note=61, velocity=47, time=0),
    Message('note_on', channel=9, note=70, velocity=75, time=1),
    Message('note_off', channel=9, note=46, velocity=64, time=5),
    Message('note_off', channel=9, note=70, velocity=64, time=1),
    Message('note_off', channel=3, note=70, velocity=64, time=1),
    MetaMessage('lyrics', text='ing ', time=14),
    Message('note_on', channel=3, note=73, velocity=75, time=0),
    Message('note_on', channel=6, note=56, velocity=47, time=1),
    Message('note_off', channel=4, note=58, velocity=64, time=1),
    Message('note_off', channel=4, note=66, velocity=64, time=0),
    Message('note_on', channel=4, note=65, velocity=75, time=0),
    Message('note_on', channel=4, note=56, velocity=70, time=0),
    Message('note_on', channel=9, note=36, velocity=101, time=0),
    Message('note_on', channel=9, note=46, velocity=90, time=0),
    Message('note_off', channel=6, note=68, velocity=64, time=0),
    Message('note_on', channel=6, note=61, velocity=54, time=0),
    Message('note_on', channel=9, note=70, velocity=51, time=1),
    Message('note_on', channel=1, note=37, velocity=123, time=1),
    Message('note_off', channel=1, note=36, velocity=64, time=1),
    Message('note_on', channel=0, note=49, velocity=97, time=1),
    Message('note_off', channel=6, note=63, velocity=64, time=1),
    Message('note_off', channel=9, note=46, velocity=64, time=1),
    Message('note_off', channel=9, note=36, velocity=64, time=0),
    Message('note_off', channel=9, note=70, velocity=64, time=1),
    Message('note_on', channel=9, note=70, velocity=21, time=18),
    Message('note_on', channel=7, note=49, velocity=61, time=3),
    Message('note_off', channel=3, note=73, velocity=64, time=3),
    Message('note_off', channel=9, note=70, velocity=64, time=0),
    Message('note_off', channel=0, note=61, velocity=64, time=9),
    Message('note_off', channel=1, note=37, velocity=64, time=6),
    Message('note_off', channel=4, note=56, velocity=64, time=1),
    Message('note_off', channel=4, note=65, velocity=64, time=0),
    Message('note_off', channel=4, note=61, velocity=64, time=0),
    Message('note_on', channel=4, note=65, velocity=76, time=1),
    Message('note_on', channel=0, note=61, velocity=81, time=0),
    Message('note_on', channel=4, note=56, velocity=67, time=1),
    Message('note_on', channel=4, note=61, velocity=54, time=0),
    Message('note_on', channel=9, note=70, velocity=42, time=0),
    MetaMessage('lyrics', text='for. ', time=3),
    MetaMessage('lyrics', text='\r', time=0),
    Message('note_on', channel=3, note=73, velocity=78, time=0),
    Message('note_off', channel=9, note=70, velocity=64, time=3),
    Message('note_off', channel=0, note=68, velocity=64, time=3),
    Message('note_off', channel=7, note=61, velocity=64, time=6),
    Message('note_on', channel=9, note=46, velocity=90, time=8),
    Message('note_on', channel=7, note=61, velocity=45, time=0),
    Message('note_on', channel=9, note=70, velocity=43, time=1),
    Message('note_off', channel=9, note=46, velocity=64, time=5),
    Message('note_off', channel=9, note=70, velocity=64, time=1),
    Message('note_off', channel=7, note=68, velocity=64, time=3),
    Message('note_off', channel=0, note=63, velocity=64, time=8),
    Message('note_on', channel=9, note=46, velocity=93, time=6),
    Message('note_on', channel=9, note=36, velocity=99, time=1),
    Message('note_on', channel=0, note=68, velocity=80, time=0),
    Message('note_on', channel=9, note=70, velocity=71, time=0),
    Message('note_on', channel=1, note=37, velocity=114, time=1),
    Message('note_off', channel=9, note=46, velocity=64, time=4),
    Message('note_off', channel=9, note=36, velocity=64, time=1),
    Message('note_off', channel=9, note=70, velocity=64, time=0),
    Message('note_off', channel=7, note=63, velocity=64, time=11),
    Message('note_on', channel=7, note=68, velocity=44, time=7),
    Message('note_on', channel=9, note=70, velocity=36, time=0),
    Message('note_off', channel=9, note=70, velocity=64, time=6),
    Message('note_off', channel=0, note=49, velocity=64, time=3),
    Message('note_on', channel=9, note=46, velocity=59, time=14),
    Message('note_on', channel=9, note=70, velocity=43, time=1),
    Message('note_on', channel=0, note=49, velocity=89, time=1),
    Message('note_off', channel=9, note=46, velocity=64, time=4),
    Message('note_off', channel=9, note=70, velocity=64, time=1),
    Message('note_off', channel=7, note=49, velocity=64, time=3),
    Message('note_off', channel=1, note=37, velocity=64, time=2),
    Message('note_on', channel=9, note=46, velocity=73, time=12),
    Message('note_on', channel=9, note=70, velocity=58, time=1),
    Message('note_on', channel=7, note=49, velocity=53, time=1),
    Message('note_off', channel=9, note=46, velocity=64, time=4),
    Message('note_off', channel=9, note=70, velocity=64, time=1),
    Message('note_off', channel=0, note=61, velocity=64, time=8),
    Message('note_on', channel=9, note=46, velocity=57, time=9),
    Message('note_on', channel=1, note=37, velocity=121, time=1),
    Message('note_on', channel=9, note=70, velocity=61, time=0),
    Message('note_on', channel=9, note=36, velocity=94, time=1),
    Message('note_on', channel=0, note=61, velocity=80, time=1),
    Message('note_off', channel=9, note=46, velocity=64, time=3),
    Message('note_off', channel=9, note=70, velocity=64, time=1),
    Message('note_off', channel=9, note=36, velocity=64, time=1),
    Message('note_off', channel=7, note=61, velocity=64, time=7),
    Message('note_on', channel=9, note=46, velocity=97, time=9),
    Message('note_on', channel=9, note=70, velocity=34, time=1),
    Message('note_on', channel=7, note=61, velocity=44, time=2),
    Message('note_off', channel=9, note=46, velocity=64, time=3),
    Message('note_off', channel=9, note=70, velocity=64, time=1),
    Message('note_off', channel=0, note=68, velocity=64, time=6),
    Message('note_on', channel=9, note=46, velocity=101, time=11),
    Message('note_on', channel=9, note=70, velocity=47, time=1),
    Message('note_on', channel=0, note=68, velocity=83, time=2),
    Message('note_off', channel=9, note=46, velocity=64, time=3),
    Message('note_off', channel=1, note=37, velocity=64, time=0),
    Message('note_off', channel=9, note=70, velocity=64, time=1),
    Message('note_off', channel=7, note=68, velocity=64, time=6),
    Message('note_on', channel=9, note=70, velocity=65, time=12),
    Message('note_on', channel=1, note=32, velocity=110, time=1),
    Message('note_on', channel=7, note=68, velocity=47, time=1),
    Message('note_off', channel=3, note=73, velocity=64, time=1),
    Message('note_off', channel=9, note=70, velocity=64, time=3),
    Message('note_on', channel=9, note=46, velocity=93, time=17),
    Message('note_off', channel=0, note=49, velocity=64, time=0),
    Message('note_on', channel=9, note=36, velocity=96, time=1),
    Message('note_on', channel=9, note=70, velocity=67, time=0),
    Message('note_on', channel=1, note=34, velocity=108, time=1),
    Message('note_on', channel=0, note=49, velocity=75, time=1),
    Message('note_off', channel=9, note=46, velocity=64, time=3),
    Message('note_off', channel=9, note=36, velocity=64, time=1),
    Message('note_off', channel=1, note=32, velocity=64, time=0),
    Message('note_off', channel=9, note=70, velocity=64, time=0),
    MetaMessage('lyrics', text='\n', time=1),
    Message('note_off', channel=7, note=49, velocity=64, time=16),
    Message('note_on', channel=9, note=70, velocity=36, time=1),
    Message('note_on', channel=7, note=49, velocity=39, time=2),
    Message('note_off', channel=9, note=70, velocity=64, time=4),
    Message('note_off', channel=0, note=61, velocity=64, time=6),
    Message('note_off', channel=1, note=34, velocity=64, time=5),
    Message('note_on', channel=9, note=46, velocity=61, time=6),
    Message('note_on', channel=0, note=61, velocity=75, time=1),
    Message('note_on', channel=9, note=70, velocity=43, time=0),
    Message('note_on', channel=1, note=37, velocity=111, time=1),
    Message('note_off', channel=9, note=46, velocity=64, time=4),
    Message('note_off', channel=9, note=70, velocity=64, time=1),
    Message('note_off', channel=7, note=61, velocity=64, time=6),
    Message('note_on', channel=9, note=46, velocity=93, time=11),
    Message('note_on', channel=7, note=61, velocity=39, time=1),
    Message('note_on', channel=9, note=70, velocity=71, time=0),
    Message('note_off', channel=9, note=46, velocity=64, time=5),
    Message('note_off', channel=9, note=70, velocity=64, time=1),
    Message('note_off', channel=1, note=37, velocity=64, time=8),
    Message('note_on', channel=9, note=46, velocity=97, time=9),
    Message('note_off', channel=0, note=49, velocity=64, time=0),
    Message('note_on', channel=9, note=70, velocity=77, time=1),
    Message('note_on', channel=9, note=36, velocity=101, time=1),
    Message('note_on', channel=1, note=37, velocity=119, time=0),
    Message('note_on', channel=0, note=49, velocity=95, time=0),
    Message('note_off', channel=9, note=46, velocity=64, time=4),
    Message('note_off', channel=9, note=70, velocity=64, time=1),
    Message('note_off', channel=9, note=36, velocity=64, time=1),
    Message('note_off', channel=7, note=49, velocity=64, time=16),
    Message('note_on', channel=9, note=70, velocity=32, time=1),
    Message('note_on', channel=7, note=49, velocity=58, time=1),
    Message('note_off', channel=9, note=70, velocity=64, time=5),
    Message('note_off', channel=0, note=68, velocity=64, time=1),
    Message('note_off', channel=0, note=61, velocity=64, time=9),
    Message('note_off', channel=4, note=61, velocity=64, time=8),
    Message('note_on', channel=9, note=46, velocity=63, time=0),
    Message('note_on', channel=9, note=70, velocity=44, time=0),
    Message('note_off', channel=4, note=56, velocity=64, time=1),
    Message('note_off', channel=4, note=65, velocity=64, time=0),
    Message('note_on', channel=0, note=61, velocity=80, time=0),
    Message('note_off', channel=9, note=46, velocity=64, time=5),
    Message('note_off', channel=9, note=70, velocity=64, time=0),
    Message('note_off', channel=7, note=68, velocity=64, time=1),
    Message('note_off', channel=1, note=37, velocity=64, time=4),
    Message('note_off', channel=7, note=61, velocity=64, time=5),
    Message('note_on', channel=9, note=70, velocity=58, time=8),
    Message('note_on', channel=9, note=46, velocity=71, time=1),
    Message('note_on', channel=7, note=61, velocity=44, time=0),
    Message('note_off', channel=9, note=70, velocity=64, time=5),
    Message('note_off', channel=9, note=46, velocity=64, time=1),
    Message('note_on', channel=1, note=37, velocity=122, time=17),
    Message('note_on', channel=9, note=70, velocity=80, time=0),
    Message('note_on', channel=9, note=36, velocity=101, time=1),
    Message('note_on', channel=0, note=68, velocity=79, time=1),
    Message('note_off', channel=9, note=70, velocity=64, time=4),
    Message('note_off', channel=9, note=36, velocity=64, time=1),
    Message('note_on', channel=9, note=46, velocity=90, time=17),
    Message('note_on', channel=9, note=70, velocity=38, time=0),
    Message('note_on', channel=7, note=68, velocity=42, time=2),
    Message('note_off', channel=9, note=46, velocity=64, time=4),
    Message('note_off', channel=9, note=70, velocity=64, time=0),
    Message('note_off', channel=0, note=49, velocity=64, time=11),
    Message('note_on', channel=9, note=46, velocity=101, time=7),
    Message('note_on', channel=9, note=70, velocity=51, time=0),
    Message('note_on', channel=0, note=49, velocity=88, time=1),
    Message('note_off', channel=9, note=46, velocity=64, time=5),
    Message('note_off', channel=9, note=70, velocity=64, time=0),
    Message('note_off', channel=7, note=49, velocity=64, time=11),
    Message('note_off', channel=1, note=37, velocity=64, time=2),
    Message('note_on', channel=9, note=70, velocity=51, time=5),
    Message('note_on', channel=9, note=38, velocity=80, time=1),
    Message('note_on', channel=7, note=49, velocity=52, time=0),
    Message('note_off', channel=9, note=70, velocity=64, time=5),
    Message('note_off', channel=9, note=38, velocity=64, time=1),
    Message('note_off', channel=0, note=61, velocity=64, time=8),
    Message('note_on', channel=1, note=37, velocity=119, time=8),
    Message('note_on', channel=9, note=70, velocity=80, time=1),
    Message('note_on', channel=9, note=36, velocity=88, time=1),
    Message('note_on', channel=9, note=46, velocity=63, time=0),
    Message('note_on', channel=0, note=61, velocity=87, time=1),
    Message('note_off', channel=9, note=70, velocity=64, time=4),
    Message('note_off', channel=9, note=46, velocity=64, time=1),
    Message('note_off', channel=9, note=36, velocity=64, time=0),
    Message('note_off', channel=7, note=61, velocity=64, time=8),
    Message('note_on', channel=9, note=46, velocity=93, time=9),
    Message('note_on', channel=9, note=70, velocity=43, time=0),
    Message('note_on', channel=7, note=61, velocity=50, time=2),
    Message('note_off', channel=9, note=46, velocity=64, time=4),
    Message('note_off', channel=9, note=70, velocity=64, time=0),
    Message('note_off', channel=0, note=68, velocity=64, time=3),
    MetaMessage('lyrics', text='But ', time=12),
    Message('note_on', channel=3, note=75, velocity=71, time=0),
    Message('note_on', channel=4, note=61, velocity=72, time=1),
    Message('note_on', channel=4, note=56, velocity=68, time=0),
    Message('note_on', channel=0, note=68, velocity=84, time=1),
    Message('note_on', channel=9, note=46, velocity=87, time=1),
    Message('note_on', channel=9, note=70, velocity=43, time=0),
    Message('note_on', channel=9, note=36, velocity=101, time=1),
    Message('note_off', channel=9, note=46, velocity=64, time=5),
    Message('note_off', channel=9, note=70, velocity=64, time=0),
    Message('note_off', channel=9, note=36, velocity=64, time=1),
    Message('note_off', channel=7, note=68, velocity=64, time=2),
    Message('note_off', channel=1, note=37, velocity=64, time=1),
    Message('note_on', channel=1, note=32, velocity=106, time=13),
    Message('note_on', channel=7, note=68, velocity=48, time=0),
    Message('note_on', channel=9, note=70, velocity=67, time=1),
    Message('note_off', channel=3, note=75, velocity=64, time=4),
    Message('note_off', channel=9, note=70, velocity=64, time=2),
    Message('note_off', channel=1, note=32, velocity=64, time=12),
    MetaMessage('lyrics', text='I ', time=2),
    Message('note_on', channel=3, note=75, velocity=91, time=0),
    Message('note_off', channel=0, note=49, velocity=64, time=0),
    Message('note_off', channel=4, note=56, velocity=64, time=2),
    Message('note_off', channel=4, note=61, velocity=64, time=0),
    Message('note_on', channel=9, note=57, velocity=60, time=0),
    Message('note_on', channel=4, note=61, velocity=77, time=1),
    Message('note_on', channel=4, note=56, velocity=70, time=0),
    Message('note_on', channel=1, note=34, velocity=113, time=0),
    Message('note_on', channel=9, note=38, velocity=101, time=1),
    Message('note_on', channel=9, note=70, velocity=83, time=0),
    Message('note_on', channel=9, note=36, velocity=101, time=1),
    Message('note_on', channel=9, note=46, velocity=101, time=0),
    Message('note_on', channel=0, note=49, velocity=85, time=1),
    Message('note_off', channel=9, note=57, velocity=64, time=2),
    Message('note_off', channel=9, note=38, velocity=64, time=2),
    Message('note_off', channel=9, note=70, velocity=64, time=0),
    Message('note_off', channel=9, note=36, velocity=64, time=1),
    Message('note_off', channel=9, note=46, velocity=64, time=0),
    Message('note_off', channel=7, note=49, velocity=64, time=13),
    Message('note_on', channel=9, note=70, velocity=22, time=4),
    Message('note_on', channel=7, note=49, velocity=49, time=2),
    Message('note_off', channel=3, note=75, velocity=64, time=3),
    Message('note_off', channel=9, note=70, velocity=64, time=1),
    Message('note_off', channel=0, note=61, velocity=64, time=12),
    Message('note_off', channel=4, note=56, velocity=64, time=2),
    Message('note_off', channel=4, note=61, velocity=64, time=0),
    Message('note_on', channel=4, note=56, velocity=67, time=2),
    MetaMessage('lyrics', text='still ', time=1),
    Message('note_on', channel=3, note=75, velocity=93, time=0),
    Message('note_on', channel=4, note=60, velocity=59, time=0),
    Message('note_on', channel=4, note=63, velocity=70, time=0),
    Message('note_off', channel=1, note=34, velocity=64, time=0),
    Message('note_on', channel=1, note=37, velocity=121, time=0),
    Message('note_on', channel=9, note=70, velocity=58, time=1),
    Message('note_on', channel=9, note=46, velocity=73, time=1),
    Message('note_on', channel=0, note=61, velocity=83, time=1),
    Message('note_off', channel=9, note=70, velocity=64, time=4),
    Message('note_off', channel=9, note=46, velocity=64, time=1),
    Message('note_off', channel=7, note=61, velocity=64, time=11),
    Message('note_off', channel=6, note=61, velocity=64, time=2),
    Message('note_on', channel=9, note=46, velocity=90, time=4),
    Message('note_on', channel=9, note=70, velocity=75, time=0),
    Message('note_on', channel=7, note=61, velocity=47, time=2),
    Message('note_off', channel=9, note=46, velocity=64, time=4),
    Message('note_off', channel=9, note=70, velocity=64, time=0),
    Message('note_off', channel=0, note=68, velocity=64, time=5),
    Message('note_off', channel=6, note=56, velocity=64, time=5),
    Message('note_off', channel=1, note=37, velocity=64, time=3),
    Message('note_on', channel=6, note=63, velocity=49, time=3),
    Message('note_on', channel=6, note=68, velocity=43, time=0),
    Message('note_on', channel=6, note=61, velocity=51, time=0),
    Message('note_off', channel=0, note=49, velocity=64, time=0),
    Message('note_off', channel=0, note=54, velocity=64, time=0),
    Message('note_off', channel=0, note=61, velocity=64, time=0),
    Message('pitchwheel', channel=0, pitch=103, time=1),
    Message('note_on', channel=9, note=46, velocity=97, time=1),
    Message('note_on', channel=1, note=32, velocity=122, time=0),
    Message('note_on', channel=9, note=70, velocity=51, time=0),
    Message('note_on', channel=9, note=36, velocity=101, time=1),
    Message('note_on', channel=9, note=49, velocity=64, time=0),
    Message('note_on', channel=0, note=56, velocity=99, time=0),
    Message('pitchwheel', channel=0, pitch=-175, time=1),
    Message('note_off', channel=9, note=46, velocity=64, time=4),
    Message('note_off', channel=9, note=70, velocity=64, time=0),
    Message('note_off', channel=9, note=49, velocity=64, time=1),
    Message('note_off', channel=9, note=36, velocity=64, time=0),
    Message('note_off', channel=7, note=68, velocity=64, time=4),
    Message('note_off', channel=7, note=49, velocity=64, time=11),
    Message('note_off', channel=7, note=54, velocity=64, time=0),
    Message('note_off', channel=7, note=61, velocity=64, time=0),
    Message('pitchwheel', channel=7, pitch=103, time=1),
    Message('note_on', channel=9, note=70, velocity=21, time=1),
    Message('note_on', channel=7, note=56, velocity=63, time=1),
    Message('pitchwheel', channel=7, pitch=-175, time=1),
    Message('note_off', channel=9, note=70, velocity=64, time=4),
    Message('pitchwheel', channel=0, pitch=0, time=16),
    Message('note_on', channel=0, note=63, velocity=100, time=2),
    Message('note_on', channel=9, note=70, velocity=42, time=0),
    Message('note_on', channel=9, note=46, velocity=55, time=1),
    Message('note_off', channel=9, note=70, velocity=64, time=5),
    Message('note_off', channel=9, note=46, velocity=64, time=1),
    Message('pitchwheel', channel=7, pitch=0, time=15),
    Message('note_on', channel=9, note=46, velocity=73, time=2),
    Message('note_on', channel=7, note=63, velocity=64, time=0),
    Message('note_on', channel=9, note=70, velocity=43, time=0),
    Message('note_off', channel=9, note=46, velocity=64, time=6),
    Message('note_off', channel=9, note=70, velocity=64, time=0),
    Message('note_off', channel=1, note=32, velocity=64, time=6),
    Message('note_on', channel=9, note=46, velocity=57, time=11),
    Message('note_on', channel=1, note=29, velocity=115, time=0),
    Message('note_on', channel=9, note=70, velocity=71, time=1),
    Message('note_on', channel=9, note=36, velocity=101, time=1),
    Message('note_on', channel=0, note=68, velocity=79, time=0),
    Message('note_off', channel=9, note=46, velocity=64, time=4),
    Message('note_off', channel=9, note=70, velocity=64, time=1),
    Message('note_off', channel=9, note=36, velocity=64, time=1),
    Message('note_on', channel=9, note=46, velocity=90, time=16),
    Message('note_on', channel=9, note=70, velocity=36, time=1),
    Message('note_on', channel=7, note=68, velocity=42, time=1),
    Message('note_off', channel=9, note=46, velocity=64, time=4),
    Message('note_off', channel=9, note=70, velocity=64, time=1),
    Message('note_off', channel=0, note=56, velocity=64, time=5),
    Message('note_off', channel=1, note=29, velocity=64, time=8),
    Message('note_on', channel=0, note=56, velocity=93, time=3),
    Message('note_on', channel=9, note=46, velocity=93, time=1),
    Message('note_on', channel=1, note=32, velocity=127, time=0),
    Message('note_on', channel=9, note=70, velocity=43, time=1),
    Message('note_off', channel=3, note=75, velocity=64, time=4),
    Message('note_off', channel=9, note=46, velocity=64, time=1),
    Message('note_off', channel=9, note=70, velocity=64, time=1),
    Message('note_off', channel=7, note=56, velocity=64, time=5),
    Message('note_on', channel=7, note=56, velocity=57, time=11),
    Message('note_on', channel=9, note=70, velocity=58, time=2),
    Message('note_off', channel=9, note=70, velocity=64, time=6),
    Message('note_off', channel=0, note=63, velocity=64, time=6),
    Message('note_on', channel=9, note=46, velocity=63, time=11),
    Message('note_on', channel=0, note=63, velocity=105, time=0),
    Message('note_on', channel=9, note=70, velocity=61, time=1),
    Message('note_on', channel=9, note=36, velocity=101, time=1),
    Message('note_off', channel=9, note=46, velocity=64, time=4),
    Message('note_off', channel=9, note=70, velocity=64, time=1),
    Message('note_off', channel=9, note=36, velocity=64, time=1),
    Message('note_off', channel=7, note=63, velocity=64, time=5),
    Message('note_on', channel=9, note=46, velocity=87, time=11),
    Message('note_on', channel=7, note=63, velocity=69, time=0),
    Message('note_on', channel=9, note=70, velocity=34, time=1),
    Message('note_off', channel=9, note=46, velocity=64, time=5),
    Message('note_off', channel=9, note=70, velocity=64, time=1),
    Message('note_off', channel=0, note=68, velocity=64, time=9),
    Message('note_off', channel=4, note=60, velocity=64, time=5),
    Message('note_off', channel=4, note=56, velocity=64, time=0),
    Message('note_off', channel=4, note=63, velocity=64, time=1),
    MetaMessage('lyrics', text='have', time=1),
    Message('note_on', channel=3, note=77, velocity=84, time=0),
    Message('note_on', channel=4, note=56, velocity=67, time=0),
    Message('note_off', channel=1, note=32, velocity=64, time=0),
    Message('note_on', channel=0, note=68, velocity=75, time=0),
    Message('note_on', channel=4, note=66, velocity=65, time=1),
    Message('note_on', channel=4, note=61, velocity=65, time=0),
    Message('note_on', channel=9, note=46, velocity=59, time=0),
    Message('note_on', channel=1, note=34, velocity=113, time=0),
    Message('note_on', channel=9, note=70, velocity=47, time=1),
    Message('note_off', channel=9, note=46, velocity=64, time=5),
    Message('note_off', channel=9, note=70, velocity=64, time=1),
    Message('note_off', channel=7, note=68, velocity=64, time=9),
    Message('note_on', channel=7, note=68, velocity=39, time=7),
    Message('note_on', channel=9, note=46, velocity=87, time=2),
    Message('note_on', channel=9, note=70, velocity=65, time=0),
    Message('note_off', channel=9, note=46, velocity=64, time=6),
    Message('note_off', channel=9, note=70, velocity=64, time=0),
    Message('note_off', channel=3, note=77, velocity=64, time=5),
    Message('note_off', channel=0, note=56, velocity=64, time=6),
    Message('note_off', channel=4, note=61, velocity=64, time=5),
    MetaMessage('lyrics', text="n't ", time=1),
    Message('note_on', channel=3, note=75, velocity=87, time=0),
    Message('note_on', channel=4, note=61, velocity=76, time=0),
    Message('note_on', channel=1, note=36, velocity=126, time=0),
    Message('note_on', channel=0, note=56, velocity=92, time=0),
    Message('note_on', channel=9, note=70, velocity=67, time=1),
    Message('note_on', channel=9, note=38, velocity=101, time=1),
    Message('note_on', channel=9, note=36, velocity=101, time=0),
    Message('note_on', channel=9, note=46, velocity=97, time=0),
    Message('note_off', channel=1, note=34, velocity=64, time=4),
    Message('note_off', channel=9, note=70, velocity=64, time=1),
    Message('note_off', channel=9, note=46, velocity=64, time=1),
    Message('note_off', channel=9, note=36, velocity=64, time=0),
    Message('note_off', channel=9, note=38, velocity=64, time=0),
    Message('note_off', channel=7, note=56, velocity=64, time=10),
    Message('note_on', channel=7, note=56, velocity=56, time=6),
    Message('note_on', channel=9, note=70, velocity=36, time=1),
    Message('note_off', channel=9, note=70, velocity=64, time=6),
    Message('note_off', channel=3, note=75, velocity=64, time=3),
    Message('note_off', channel=0, note=68, velocity=64, time=4),
    MetaMessage('lyrics', text='found ', time=9),
    MetaMessage('lyrics', text='\r', time=0),
    Message('note_on', channel=3, note=73, velocity=84, time=0),
    Message('note_off', channel=4, note=66, velocity=64, time=1),
    Message('note_on', channel=4, note=65, velocity=72, time=0),
    Message('note_off', channel=1, note=36, velocity=64, time=0),
    Message('note_on', channel=1, note=37, velocity=123, time=0),
    Message('note_on', channel=9, note=70, velocity=43, time=1),
    Message('note_on', channel=9, note=46, velocity=81, time=1),
    Message('note_on', channel=0, note=68, velocity=72, time=0),
    Message('note_off', channel=9, note=70, velocity=64, time=5),
    Message('note_off', channel=9, note=46, velocity=64, time=1),
    Message('note_off', channel=7, note=68, velocity=64, time=6),
    Message('note_on', channel=9, note=46, velocity=90, time=10),
    Message('note_on', channel=9, note=70, velocity=71, time=1),
    Message('note_on', channel=7, note=68, velocity=36, time=1),
    Message('note_off', channel=9, note=46, velocity=64, time=4),
    Message('note_off', channel=9, note=70, velocity=64, time=1),
    Message('note_off', channel=0, note=56, velocity=64, time=11),
    Message('note_off', channel=1, note=37, velocity=64, time=4),
    Message('note_off', channel=4, note=56, velocity=64, time=3),
    Message('note_on', channel=9, note=46, velocity=97, time=0),
    Message('note_on', channel=0, note=54, velocity=101, time=0),
    Message('note_on', channel=9, note=70, velocity=77, time=0),
    Message('note_on', channel=4, note=58, velocity=62, time=1),
    Message('note_on', channel=9, note=36, velocity=101, time=0),
    Message('note_on', channel=1, note=30, velocity=125, time=0),
    Message('note_off', channel=9, note=46, velocity=64, time=5),
    Message('note_off', channel=9, note=70, velocity=64, time=0),
    Message('note_off', channel=9, note=36, velocity=64, time=1),
    Message('note_off', channel=7, note=56, velocity=64, time=10),
    Message('note_on', channel=7, note=54, velocity=65, time=7),
    Message('note_on', channel=9, note=70, velocity=32, time=0),
    Message('note_off', channel=9, note=70, velocity=64, time=6),
    Message('note_off', channel=0, note=63, velocity=64, time=9),
    Message('note_on', channel=9, note=46, velocity=69, time=8),
    Message('note_on', channel=0, note=63, velocity=89, time=1),
    Message('note_on', channel=9, note=70, velocity=44, time=0),
    Message('note_off', channel=9, note=46, velocity=64, time=5),
    Message('note_off', channel=9, note=70, velocity=64, time=1),
    Message('note_off', channel=7, note=63, velocity=64, time=9),
    Message('note_on', channel=9, note=46, velocity=81, time=8),
    Message('note_on', channel=7, note=63, velocity=53, time=1),
    Message('note_on', channel=9, note=70, velocity=58, time=0),
    Message('note_off', channel=0, note=68, velocity=64, time=4),
    Message('note_off', channel=9, note=46, velocity=64, time=1),
    Message('note_off', channel=9, note=70, velocity=64, time=1),
    Message('note_off', channel=1, note=30, velocity=64, time=13),
    Message('note_on', channel=1, note=29, velocity=108, time=4),
    Message('note_on', channel=0, note=68, velocity=67, time=0),
    Message('note_on', channel=9, note=36, velocity=101, time=1),
    Message('note_on', channel=9, note=70, velocity=80, time=0),
    Message('note_off', channel=7, note=68, velocity=64, time=4),
    Message('note_off', channel=9, note=36, velocity=64, time=2),
    Message('note_off', channel=9, note=70, velocity=64, time=0),
    Message('note_on', channel=9, note=46, velocity=93, time=17),
    Message('note_on', channel=7, note=68, velocity=31, time=0),
    Message('note_on', channel=9, note=70, velocity=38, time=1),
    Message('note_off', channel=3, note=73, velocity=64, time=3),
    Message('note_off', channel=9, note=46, velocity=64, time=2),
    Message('note_off', channel=9, note=70, velocity=64, time=1),
    Message('note_off', channel=0, note=63, velocity=64, time=6),
    Message('note_off', channel=1, note=29, velocity=64, time=4),
    Message('note_on', channel=9, note=46, velocity=101, time=7),
    Message('note_on', channel=1, note=30, velocity=123, time=0),
    Message('note_on', channel=0, note=63, velocity=80, time=1),
    Message('note_on', channel=9, note=70, velocity=51, time=0),
    Message('note_off', channel=9, note=46, velocity=64, time=5),
    Message('note_off', channel=9, note=70, velocity=64, time=1),
    Message('note_off', channel=7, note=63, velocity=64, time=6),
    Message('note_off', channel=0, note=63, velocity=64, time=11),
    Message('note_on', channel=7, note=63, velocity=44, time=1),
    Message('note_on', channel=9, note=70, velocity=51, time=0),
    Message('note_on', channel=0, note=63, velocity=85, time=1),
    Message('note_off', channel=9, note=70, velocity=64, time=5),
    Message('note_off', channel=0, note=63, velocity=64, time=16),
    Message('note_off', channel=7, note=63, velocity=64, time=1),
    Message('note_on', channel=9, note=70, velocity=80, time=1),
    Message('note_on', channel=9, note=36, velocity=101, time=1),
    Message('note_on', channel=9, note=46, velocity=56, time=0),
    Message('note_on', channel=7, note=63, velocity=49, time=0),
    Message('note_on', channel=0, note=63, velocity=81, time=2),
    Message('note_off', channel=9, note=70, velocity=64, time=3),
    Message('note_off', channel=9, note=46, velocity=64, time=1),
    Message('note_off', channel=9, note=36, velocity=64, time=0),
    Message('note_off', channel=7, note=63, velocity=64, time=15),
    Message('note_on', channel=9, note=46, velocity=90, time=1),
    Message('note_on', channel=9, note=70, velocity=43, time=1),
    Message('note_off', channel=4, note=65, velocity=64, time=1),
    Message('note_off', channel=4, note=58, velocity=64, time=1),
    Message('note_off', channel=4, note=61, velocity=64, time=0),
    Message('note_on', channel=7, note=63, velocity=45, time=1),
    Message('note_off', channel=9, note=46, velocity=64, time=2),
    Message('note_off', channel=9, note=70, velocity=64, time=1),
    Message('note_off', channel=0, note=68, velocity=64, time=15),
    MetaMessage('lyrics', text='what ', time=2),
    Message('note_on', channel=3, note=70, velocity=65, time=0),
    Message('note_on', channel=4, note=58, velocity=54, time=1),
    Message('note_on', channel=4, note=66, velocity=57, time=0),
    Message('note_on', channel=4, note=61, velocity=51, time=0),
    Message('note_on', channel=9, note=70, velocity=43, time=0),
    Message('note_on', channel=9, note=36, velocity=76, time=1),
    Message('note_on', channel=1, note=32, velocity=127, time=0),
    Message('note_on', channel=0, note=68, velocity=87, time=1),
    Message('note_off', channel=1, note=30, velocity=64, time=2),
    Message('note_off', channel=9, note=70, velocity=64, time=2),
    Message('note_off', channel=9, note=36, velocity=64, time=1),
    Message('note_off', channel=7, note=68, velocity=64, time=14),
    Message('note_on', channel=9, note=46, velocity=87, time=3),
    Message('note_on', channel=9, note=70, velocity=67, time=0),
    Message('note_on', channel=7, note=68, velocity=50, time=2),
    Message('note_off', channel=3, note=70, velocity=64, time=4),
    Message('note_off', channel=9, note=46, velocity=64, time=0),
    Message('note_off', channel=9, note=70, velocity=64, time=0),
    Message('note_off', channel=0, note=54, velocity=64, time=14),
    Message('note_off', channel=4, note=61, velocity=64, time=1),
    Message('note_off', channel=4, note=66, velocity=64, time=0),
    Message('note_off', channel=4, note=58, velocity=64, time=0),
    Message('note_off', channel=1, note=32, velocity=64, time=0),
    MetaMessage('lyrics', text="I'm ", time=1),
    Message('note_on', channel=3, note=70, velocity=93, time=0),
    Message('note_on', channel=4, note=61, velocity=79, time=1),
    Message('note_on', channel=4, note=66, velocity=82, time=0),
    Message('note_on', channel=4, note=58, velocity=74, time=0),
    Message('note_on', channel=9, note=46, velocity=81, time=1),
    Message('note_on', channel=9, note=70, velocity=83, time=0),
    Message('note_on', channel=9, note=38, velocity=101, time=1),
    Message('note_on', channel=9, note=36, velocity=96, time=0),
    Message('note_on', channel=1, note=34, velocity=104, time=0),
    Message('note_on', channel=0, note=54, velocity=97, time=1),
    Message('note_off', channel=9, note=46, velocity=64, time=4),
    Message('note_off', channel=9, note=70, velocity=64, time=0),
    Message('note_off', channel=9, note=36, velocity=64, time=1),
    Message('note_off', channel=9, note=38, velocity=64, time=0),
    Message('note_off', channel=7, note=54, velocity=64, time=13),
    Message('note_on', channel=9, note=70, velocity=22, time=4),
    Message('note_on', channel=7, note=54, velocity=61, time=2),
    Message('note_off', channel=3, note=70, velocity=64, time=3),
    Message('note_off', channel=9, note=70, velocity=64, time=1),
    Message('note_off', channel=4, note=58, velocity=64, time=14),
    Message('note_off', channel=4, note=66, velocity=64, time=0),
    Message('note_off', channel=4, note=61, velocity=64, time=0),
    Message('note_on', channel=4, note=58, velocity=89, time=2),
    Message('note_on', channel=4, note=61, velocity=90, time=0),
    MetaMessage('lyrics', text='look', time=1),
    Message('note_on', channel=3, note=70, velocity=97, time=0),
    Message('note_on', channel=4, note=66, velocity=86, time=0),
    Message('note_on', channel=0, note=61, velocity=83, time=0),
    Message('note_on', channel=9, note=46, velocity=61, time=1),
    Message('note_off', channel=1, note=34, velocity=64, time=0),
    Message('note_on', channel=9, note=70, velocity=58, time=0),
    Message('note_on', channel=1, note=36, velocity=120, time=1),
    Message('note_off', channel=9, note=46, velocity=64, time=5),
    Message('note_off', channel=9, note=70, velocity=64, time=0),
    Message('note_off', channel=6, note=61, velocity=64, time=8),
    Message('note_on', channel=9, note=46, velocity=93, time=9),
    Message('note_on', channel=7, note=61, velocity=47, time=0),
    Message('note_on', channel=9, note=70, velocity=75, time=1),
    Message('note_off', channel=9, note=46, velocity=64, time=5),
    Message('note_off', channel=9, note=70, velocity=64, time=1),
    Message('note_off', channel=3, note=70, velocity=64, time=15),
    Message('note_off', channel=4, note=58, velocity=64, time=1),
    Message('note_off', channel=6, note=63, velocity=64, time=0),
    Message('note_on', channel=6, note=56, velocity=46, time=0),
    Message('note_off', channel=4, note=66, velocity=64, time=1),
    Message('note_on', channel=4, note=65, velocity=63, time=0),
    Message('note_on', channel=4, note=56, velocity=63, time=0),
    Message('note_on', channel=9, note=46, velocity=93, time=0),
    Message('note_off', channel=6, note=68, velocity=64, time=0),
    Message('note_on', channel=6, note=61, velocity=52, time=0),
    Message('note_off', channel=1, note=36, velocity=64, time=1),
    Message('note_on', channel=9, note=70, velocity=51, time=0),
    Message('note_on', channel=9, note=36, velocity=101, time=1),
    Message('note_on', channel=9, note=57, velocity=48, time=0),
    Message('note_on', channel=9, note=49, velocity=45, time=0),
    Message('note_on', channel=1, note=37, velocity=127, time=0),
    MetaMessage('lyrics', text='ing ', time=1),
    Message('note_on', channel=3, note=68, velocity=79, time=0),
    Message('note_on', channel=0, note=49, velocity=97, time=1),
    Message('note_off', channel=9, note=46, velocity=64, time=2),
    Message('note_off', channel=9, note=70, velocity=64, time=1),
    Message('note_off', channel=9, note=36, velocity=64, time=1),
    Message('note_off', channel=9, note=57, velocity=64, time=0),
    Message('note_off', channel=9, note=49, velocity=64, time=0),
    Message('note_on', channel=9, note=70, velocity=21, time=17),
    Message('note_on', channel=7, note=49, velocity=61, time=3),
    Message('note_off', channel=9, note=70, velocity=64, time=3),
    Message('note_off', channel=3, note=68, velocity=64, time=3),
    Message('note_off', channel=0, note=61, velocity=64, time=6),
    Message('note_off', channel=4, note=56, velocity=64, time=6),
    Message('note_off', channel=4, note=65, velocity=64, time=0),
    Message('note_off', channel=4, note=61, velocity=64, time=0),
    Message('note_on', channel=4, note=56, velocity=67, time=1),
    Message('note_on', channel=4, note=61, velocity=60, time=0),
    Message('note_on', channel=4, note=65, velocity=65, time=0),
    Message('note_on', channel=9, note=46, velocity=65, time=1),
    Message('note_on', channel=0, note=61, velocity=81, time=0),
    Message('note_on', channel=9, note=70, velocity=42, time=1),
    MetaMessage('lyrics', text='for. ', time=4),
    MetaMessage('lyrics', text='\r', time=0),
    Message('note_on', channel=3, note=68, velocity=78, time=0),
    Message('note_off', channel=9, note=46, velocity=64, time=1),
    Message('note_off', channel=9, note=70, velocity=64, time=1),
    Message('note_off', channel=1, note=37, velocity=64, time=2),
    Message('note_off', channel=0, note=68, velocity=64, time=1),
    Message('note_off', channel=7, note=61, velocity=64, time=6),
    Message('note_on', channel=9, note=46, velocity=90, time=8),
    Message('note_on', channel=7, note=61, velocity=45, time=0),
    Message('note_on', channel=9, note=70, velocity=43, time=1),
    Message('note_off', channel=9, note=46, velocity=64, time=5),
    Message('note_off', channel=9, note=70, velocity=64, time=1),
    Message('note_off', channel=7, note=68, velocity=64, time=3),
    Message('note_off', channel=0, note=63, velocity=64, time=8),
    Message('note_on', channel=9, note=46, velocity=93, time=6),
    Message('note_on', channel=0, note=68, velocity=80, time=1),
    Message('note_on', channel=9, note=70, velocity=71, time=0),
    Message('note_on', channel=9, note=36, velocity=101, time=1),
    Message('note_on', channel=1, note=37, velocity=123, time=0),
    Message('note_off', channel=9, note=46, velocity=64, time=4),
    Message('note_off', channel=9, note=70, velocity=64, time=1),
    Message('note_off', channel=9, note=36, velocity=64, time=1),
    Message('note_off', channel=7, note=63, velocity=64, time=10),
    Message('note_on', channel=7, note=68, velocity=44, time=7),
    Message('note_on', channel=9, note=70, velocity=36, time=0),
    Message('note_off', channel=9, note=70, velocity=64, time=6),
    Message('note_off', channel=0, note=49, velocity=64, time=3),
    Message('note_on', channel=9, note=46, velocity=54, time=14),
    Message('note_on', channel=9, note=70, velocity=43, time=1),
    Message('note_on', channel=0, note=49, velocity=89, time=1),
    Message('note_off', channel=9, note=46, velocity=64, time=4),
    Message('note_off', channel=9, note=70, velocity=64, time=1),
    Message('note_off', channel=7, note=49, velocity=64, time=3),
    Message('note_off', channel=1, note=37, velocity=64, time=13),
    Message('note_on', channel=9, note=46, velocity=90, time=1),
    Message('note_on', channel=9, note=70, velocity=58, time=1),
    Message('note_on', channel=7, note=49, velocity=53, time=1),
    Message('note_off', channel=9, note=46, velocity=64, time=4),
    Message('note_off', channel=9, note=70, velocity=64, time=1),
    Message('note_off', channel=0, note=61, velocity=64, time=8),
    Message('note_on', channel=9, note=46, velocity=90, time=9),
    Message('note_on', channel=1, note=37, velocity=127, time=0),
    Message('note_on', channel=9, note=70, velocity=61, time=1),
    Message('note_on', channel=9, note=36, velocity=101, time=1),
    Message('note_on', channel=0, note=61, velocity=80, time=1),
    Message('note_off', channel=9, note=46, velocity=64, time=3),
    Message('note_off', channel=9, note=70, velocity=64, time=1),
    Message('note_off', channel=9, note=36, velocity=64, time=1),
    Message('note_off', channel=7, note=61, velocity=64, time=7),
    Message('note_on', channel=9, note=70, velocity=34, time=10),
    Message('note_on', channel=7, note=61, velocity=44, time=2),
    Message('note_off', channel=9, note=70, velocity=64, time=4),
    Message('note_off', channel=0, note=68, velocity=64, time=6),
    Message('note_on', channel=9, note=46, velocity=61, time=11),
    Message('note_on', channel=9, note=70, velocity=47, time=1),
    Message('note_on', channel=0, note=68, velocity=83, time=2),
    Message('note_off', channel=9, note=46, velocity=64, time=3),
    Message('note_off', channel=9, note=70, velocity=64, time=1),
    Message('note_off', channel=7, note=68, velocity=64, time=6),
    Message('note_off', channel=1, note=37, velocity=64, time=1),
    Message('note_on', channel=1, note=32, velocity=104, time=10),
    Message('note_on', channel=9, note=46, velocity=90, time=1),
    Message('note_on', channel=9, note=70, velocity=65, time=0),
    Message('note_on', channel=7, note=68, velocity=47, time=2),
    Message('note_off', channel=9, note=46, velocity=64, time=4),
    Message('note_off', channel=9, note=70, velocity=64, time=0),
    Message('note_off', channel=0, note=49, velocity=64, time=17),
    Message('note_on', channel=9, note=46, velocity=90, time=1),
    Message('note_on', channel=1, note=34, velocity=109, time=0),
    Message('note_on', channel=9, note=70, velocity=67, time=0),
    Message('note_on', channel=9, note=36, velocity=101, time=1),
    Message('note_on', channel=0, note=49, velocity=75, time=1),
    Message('note_off', channel=1, note=32, velocity=64, time=1),
    Message('note_off', channel=9, note=46, velocity=64, time=3),
    Message('note_off', channel=9, note=70, velocity=64, time=0),
    Message('note_off', channel=9, note=36, velocity=64, time=1),
    MetaMessage('lyrics', text='\n', time=1),
    Message('note_off', channel=7, note=49, velocity=64, time=15),
    Message('note_on', channel=9, note=46, velocity=58, time=1),
    Message('note_on', channel=9, note=70, velocity=36, time=0),
    Message('note_on', channel=7, note=49, velocity=39, time=2),
    Message('note_off', channel=9, note=46, velocity=64, time=4),
    Message('note_off', channel=9, note=70, velocity=64, time=0),
    Message('note_off', channel=3, note=68, velocity=64, time=1),
    Message('note_off', channel=0, note=61, velocity=64, time=5),
    Message('note_off', channel=1, note=34, velocity=64, time=9),
    Message('note_on', channel=9, note=46, velocity=87, time=2),
    Message('note_on', channel=1, note=37, velocity=127, time=0),
    Message('note_on', channel=0, note=61, velocity=75, time=1),
    Message('note_on', channel=9, note=70, velocity=43, time=0),
    Message('note_off', channel=9, note=46, velocity=64, time=5),
    Message('note_off', channel=9, note=70, velocity=64, time=1),
    Message('note_off', channel=7, note=61, velocity=64, time=6),
    Message('note_on', channel=9, note=46, velocity=90, time=12),
    Message('note_on', channel=7, note=61, velocity=39, time=0),
    Message('note_on', channel=9, note=70, velocity=71, time=0),
    Message('note_off', channel=9, note=46, velocity=64, time=6),
    Message('note_off', channel=9, note=70, velocity=64, time=0),
    Message('note_off', channel=1, note=37, velocity=64, time=3),
    Message('note_on', channel=1, note=37, velocity=110, time=14),
    Message('note_off', channel=0, note=49, velocity=64, time=0),
    Message('note_on', channel=9, note=70, velocity=77, time=1),
    Message('note_on', channel=9, note=36, velocity=101, time=1),
    Message('note_on', channel=9, note=46, velocity=97, time=0),
    Message('note_on', channel=0, note=49, velocity=95, time=0),
    Message('note_off', channel=9, note=70, velocity=64, time=5),
    Message('note_off', channel=9, note=46, velocity=64, time=1),
    Message('note_off', channel=9, note=36, velocity=64, time=0),
    Message('note_off', channel=7, note=49, velocity=64, time=16),
    Message('note_on', channel=9, note=70, velocity=32, time=1),
    Message('note_on', channel=7, note=49, velocity=58, time=1),
    Message('note_off', channel=9, note=70, velocity=64, time=5),
    Message('note_off', channel=0, note=68, velocity=64, time=1),
    Message('note_off', channel=0, note=61, velocity=64, time=9),
    Message('note_on', channel=9, note=70, velocity=44, time=8),
    Message('note_on', channel=9, note=46, velocity=61, time=1),
    Message('note_on', channel=0, note=61, velocity=80, time=0),
    Message('note_off', channel=4, note=65, velocity=64, time=1),
    Message('note_off', channel=4, note=61, velocity=64, time=0),
    Message('note_off', channel=4, note=56, velocity=64, time=0),
    Message('note_off', channel=9, note=70, velocity=64, time=4),
    Message('note_off', channel=9, note=46, velocity=64, time=1),
    Message('note_off', channel=7, note=68, velocity=64, time=0),
    Message('note_off', channel=7, note=61, velocity=64, time=9),
    Message('note_off', channel=1, note=37, velocity=64, time=1),
    Message('note_on', channel=9, note=46, velocity=67, time=7),
    Message('note_on', channel=9, note=70, velocity=58, time=0),
    Message('note_on', channel=9, note=38, velocity=84, time=1),
    Message('note_on', channel=7, note=61, velocity=44, time=0),
    Message('note_off', channel=9, note=46, velocity=64, time=5),
    Message('note_off', channel=9, note=70, velocity=64, time=0),
    Message('note_off', channel=9, note=38, velocity=64, time=1),
    Message('note_on', channel=1, note=37, velocity=121, time=16),
    Message('note_on', channel=9, note=70, velocity=80, time=1),
    Message('note_on', channel=9, note=36, velocity=101, time=1),
    Message('note_on', channel=9, note=46, velocity=87, time=0),
    Message('note_on', channel=0, note=68, velocity=79, time=1),
    Message('note_off', channel=9, note=70, velocity=64, time=4),
    Message('note_off', channel=9, note=46, velocity=64, time=1),
    Message('note_off', channel=9, note=36, velocity=64, time=0),
    Message('note_on', channel=9, note=70, velocity=38, time=17),
    Message('note_on', channel=7, note=68, velocity=42, time=2),
    Message('note_off', channel=9, note=70, velocity=64, time=4),
    Message('note_off', channel=0, note=49, velocity=64, time=11),
    Message('note_on', channel=9, note=70, velocity=51, time=7),
    Message('note_on', channel=0, note=49, velocity=88, time=1),
    Message('note_off', channel=9, note=70, velocity=64, time=5),
    Message('note_off', channel=7, note=49, velocity=64, time=11),
    Message('note_off', channel=1, note=37, velocity=64, time=1),
    Message('note_on', channel=9, note=46, velocity=84, time=5),
    Message('note_on', channel=9, note=70, velocity=51, time=1),
    Message('note_on', channel=9, note=38, velocity=101, time=1),
    Message('note_on', channel=7, note=49, velocity=52, time=0),
    Message('note_off', channel=9, note=46, velocity=64, time=4),
    Message('note_off', channel=9, note=70, velocity=64, time=1),
    Message('note_off', channel=9, note=38, velocity=64, time=1),
    Message('note_off', channel=0, note=61, velocity=64, time=8),
    Message('note_on', channel=9, note=46, velocity=61, time=8),
    Message('note_on', channel=1, note=37, velocity=125, time=0),
    Message('note_on', channel=9, note=70, velocity=80, time=1),
    Message('note_on', channel=9, note=36, velocity=101, time=1),
    Message('note_on', channel=0, note=61, velocity=87, time=1),
    Message('note_off', channel=9, note=46, velocity=64, time=3),
    Message('note_off', channel=9, note=70, velocity=64, time=1),
    Message('note_off', channel=9, note=36, velocity=64, time=1),
    Message('note_off', channel=7, note=61, velocity=64, time=8),
    Message('note_on', channel=9, note=46, velocity=78, time=8),
    Message('note_on', channel=9, note=70, velocity=43, time=1),
    Message('note_on', channel=7, note=61, velocity=50, time=2),
    Message('note_off', channel=9, note=46, velocity=64, time=3),
    Message('note_off', channel=9, note=70, velocity=64, time=1),
    Message('note_off', channel=0, note=68, velocity=64, time=3),
    MetaMessage('lyrics', text='But ', time=13),
    Message('note_on', channel=3, note=73, velocity=65, time=0),
    Message('note_on', channel=4, note=56, velocity=75, time=1),
    Message('note_on', channel=4, note=61, velocity=72, time=0),
    Message('note_on', channel=9, note=46, velocity=93, time=0),
    Message('note_on', channel=0, note=68, velocity=84, time=0),
    Message('note_on', channel=9, note=70, velocity=43, time=1),
    Message('note_on', channel=9, note=36, velocity=99, time=1),
    Message('note_off', channel=9, note=46, velocity=64, time=4),
    Message('note_off', channel=9, note=70, velocity=64, time=1),
    Message('note_off', channel=9, note=36, velocity=64, time=1),
    Message('note_off', channel=1, note=37, velocity=64, time=0),
    Message('note_off', channel=7, note=68, velocity=64, time=2),
    Message('note_on', channel=1, note=32, velocity=120, time=14),
    Message('note_on', channel=7, note=68, velocity=48, time=0),
    Message('note_on', channel=9, note=70, velocity=67, time=1),
    Message('note_off', channel=3, note=73, velocity=64, time=5),
    Message('note_off', channel=9, note=70, velocity=64, time=1),
    Message('note_off', channel=0, note=49, velocity=64, time=14),
    MetaMessage('lyrics', text='I ', time=1),
    Message('note_on', channel=3, note=73, velocity=97, time=0),
    Message('note_off', channel=4, note=61, velocity=64, time=1),
    Message('note_off', channel=4, note=56, velocity=64, time=0),
    Message('note_on', channel=4, note=56, velocity=72, time=1),
    Message('note_on', channel=4, note=61, velocity=77, time=0),
    Message('note_on', channel=9, note=46, velocity=57, time=0),
    Message('note_on', channel=1, note=34, velocity=116, time=0),
    Message('note_on', channel=9, note=70, velocity=83, time=1),
    Message('note_on', channel=9, note=38, velocity=101, time=1),
    Message('note_on', channel=9, note=36, velocity=101, time=0),
    Message('note_on', channel=9, note=49, velocity=61, time=0),
    Message('note_on', channel=9, note=57, velocity=59, time=0),
    Message('note_on', channel=0, note=49, velocity=85, time=1),
    Message('note_off', channel=9, note=46, velocity=64, time=3),
    Message('note_off', channel=1, note=32, velocity=64, time=0),
    Message('note_off', channel=9, note=70, velocity=64, time=1),
    Message('note_off', channel=9, note=49, velocity=64, time=1),
    Message('note_off', channel=9, note=38, velocity=64, time=0),
    Message('note_off', channel=9, note=36, velocity=64, time=0),
    Message('note_off', channel=9, note=57, velocity=64, time=0),
    Message('note_off', channel=7, note=49, velocity=64, time=13),
    Message('note_on', channel=9, note=46, velocity=71, time=3),
    Message('note_on', channel=9, note=70, velocity=22, time=1),
    Message('note_on', channel=7, note=49, velocity=49, time=2),
    Message('note_off', channel=9, note=46, velocity=64, time=3),
    Message('note_off', channel=9, note=70, velocity=64, time=1),
    Message('note_off', channel=3, note=73, velocity=64, time=7),
    Message('note_off', channel=0, note=61, velocity=64, time=5),
    Message('note_off', channel=1, note=34, velocity=64, time=2),
    MetaMessage('lyrics', text='still ', time=2),
    Message('note_on', channel=3, note=75, velocity=93, time=0),
    Message('note_off', channel=4, note=61, velocity=64, time=0),
    Message('note_off', channel=4, note=56, velocity=64, time=0),
    Message('note_on', channel=4, note=60, velocity=51, time=0),
    Message('note_on', channel=4, note=56, velocity=72, time=1),
    Message('note_on', channel=4, note=63, velocity=75, time=0),
    Message('note_on', channel=9, note=46, velocity=69, time=0),
    Message('note_on', channel=1, note=37, velocity=125, time=0),
    Message('note_on', channel=9, note=70, velocity=58, time=1),
    Message('note_on', channel=0, note=61, velocity=83, time=2),
    Message('note_off', channel=9, note=46, velocity=64, time=3),
    Message('note_off', channel=9, note=70, velocity=64, time=1),
    Message('note_off', channel=6, note=61, velocity=64, time=10),
    Message('note_off', channel=7, note=61, velocity=64, time=2),
    Message('note_on', channel=9, note=46, velocity=87, time=5),
    Message('note_on', channel=9, note=70, velocity=75, time=1),
    Message('note_on', channel=7, note=61, velocity=47, time=2),
    Message('note_off', channel=9, note=46, velocity=64, time=3),
    Message('note_off', channel=9, note=70, velocity=64, time=1),
    Message('note_off', channel=0, note=68, velocity=64, time=5),
    Message('note_off', channel=6, note=56, velocity=64, time=5),
    Message('note_off', channel=1, note=37, velocity=64, time=1),
    Message('note_on', channel=6, note=63, velocity=40, time=5),
    Message('note_off', channel=0, note=49, velocity=64, time=0),
    Message('note_off', channel=0, note=54, velocity=64, time=0),
    Message('note_off', channel=0, note=61, velocity=64, time=0),
    Message('note_on', channel=9, note=46, velocity=97, time=1),
    Message('note_on', channel=1, note=32, velocity=116, time=0),
    Message('note_on', channel=6, note=68, velocity=42, time=0),
    Message('note_on', channel=6, note=61, velocity=55, time=0),
    Message('pitchwheel', channel=0, pitch=103, time=0),
    Message('note_on', channel=9, note=55, velocity=101, time=1),
    Message('note_on', channel=9, note=70, velocity=51, time=0),
    Message('note_on', channel=9, note=36, velocity=101, time=1),
    Message('note_on', channel=0, note=56, velocity=99, time=0),
    Message('pitchwheel', channel=0, pitch=-175, time=1),
    Message('note_off', channel=9, note=46, velocity=64, time=3),
    Message('note_off', channel=9, note=55, velocity=64, time=1),
    Message('note_off', channel=9, note=70, velocity=64, time=0),
    Message('note_off', channel=9, note=36, velocity=64, time=1),
    Message('note_off', channel=7, note=68, velocity=64, time=4),
    Message('note_off', channel=7, note=49, velocity=64, time=11),
    Message('note_off', channel=7, note=54, velocity=64, time=0),
    Message('note_off', channel=7, note=61, velocity=64, time=0),
    Message('pitchwheel', channel=7, pitch=103, time=1),
    Message('note_on', channel=9, note=70, velocity=21, time=1),
    Message('note_on', channel=7, note=56, velocity=63, time=1),
    Message('pitchwheel', channel=7, pitch=-175, time=1),
    Message('note_off', channel=9, note=70, velocity=64, time=4),
    Message('pitchwheel', channel=0, pitch=0, time=16),
    Message('note_on', channel=0, note=63, velocity=100, time=2),
    Message('note_on', channel=9, note=70, velocity=42, time=0),
    Message('note_off', channel=9, note=70, velocity=64, time=6),
    Message('pitchwheel', channel=7, pitch=0, time=16),
    Message('note_on', channel=9, note=46, velocity=87, time=1),
    Message('note_on', channel=7, note=63, velocity=64, time=1),
    Message('note_on', channel=9, note=70, velocity=43, time=0),
    Message('note_off', channel=9, note=46, velocity=64, time=5),
    Message('note_off', channel=9, note=70, velocity=64, time=1),
    Message('note_off', channel=1, note=32, velocity=64, time=7),
    Message('note_on', channel=1, note=29, velocity=112, time=10),
    Message('note_on', channel=9, note=36, velocity=101, time=1),
    Message('note_on', channel=9, note=70, velocity=71, time=0),
    Message('note_on', channel=0, note=68, velocity=79, time=1),
    Message('note_off', channel=9, note=36, velocity=64, time=5),
    Message('note_off', channel=9, note=70, velocity=64, time=0),
    Message('note_off', channel=3, note=75, velocity=64, time=7),
    Message('note_on', channel=9, note=46, velocity=87, time=10),
    Message('note_on', channel=9, note=70, velocity=36, time=1),
    Message('note_on', channel=7, note=68, velocity=42, time=1),
    Message('note_off', channel=9, note=46, velocity=64, time=4),
    Message('note_off', channel=9, note=70, velocity=64, time=1),
    Message('note_off', channel=0, note=56, velocity=64, time=5),
    Message('note_off', channel=1, note=29, velocity=64, time=8),
    Message('note_on', channel=0, note=56, velocity=93, time=3),
    Message('note_on', channel=9, note=46, velocity=101, time=1),
    Message('note_on', channel=1, note=32, velocity=126, time=0),
    Message('note_on', channel=9, note=70, velocity=43, time=1),
    Message('note_off', channel=9, note=46, velocity=64, time=5),
    Message('note_off', channel=9, note=70, velocity=64, time=1),
    Message('note_off', channel=7, note=56, velocity=64, time=5),
    Message('note_on', channel=7, note=56, velocity=57, time=11),
    Message('note_on', channel=9, note=70, velocity=58, time=2),
    Message('note_off', channel=9, note=70, velocity=64, time=6),
    Message('note_off', channel=0, note=63, velocity=64, time=6),
    Message('note_on', channel=0, note=63, velocity=105, time=11),
    Message('note_on', channel=9, note=70, velocity=61, time=1),
    Message('note_on', channel=9, note=36, velocity=101, time=1),
    Message('note_off', channel=9, note=70, velocity=64, time=5),
    Message('note_off', channel=9, note=36, velocity=64, time=1),
    Message('note_off', channel=7, note=63, velocity=64, time=5),
    Message('note_on', channel=9, note=46, velocity=73, time=11),
    Message('note_on', channel=7, note=63, velocity=69, time=0),
    Message('note_on', channel=9, note=70, velocity=34, time=1),
    Message('note_off', channel=9, note=46, velocity=64, time=5),
    Message('note_off', channel=1, note=32, velocity=64, time=1),
    Message('note_off', channel=9, note=70, velocity=64, time=0),
    Message('note_off', channel=0, note=68, velocity=64, time=9),
    Message('note_off', channel=4, note=56, velocity=64, time=4),
    Message('note_off', channel=4, note=60, velocity=64, time=0),
    Message('note_off', channel=4, note=63, velocity=64, time=1),
    Message('note_on', channel=4, note=61, velocity=63, time=2),
    Message('note_on', channel=4, note=56, velocity=67, time=0),
    Message('note_on', channel=4, note=66, velocity=57, time=0),
    Message('note_on', channel=0, note=68, velocity=75, time=0),
    Message('note_on', channel=9, note=46, velocity=69, time=1),
    Message('note_on', channel=1, note=34, velocity=112, time=0),
    Message('note_on', channel=9, note=70, velocity=47, time=1),
    MetaMessage('lyrics', text='have', time=1),
    Message('note_on', channel=3, note=77, velocity=91, time=0),
    Message('note_off', channel=9, note=46, velocity=64, time=4),
    Message('note_off', channel=9, note=70, velocity=64, time=1),
    Message('note_off', channel=7, note=68, velocity=64, time=9),
    Message('note_on', channel=7, note=68, velocity=39, time=7),
    Message('note_on', channel=9, note=46, velocity=75, time=2),
    Message('note_on', channel=9, note=70, velocity=65, time=0),
    Message('note_off', channel=9, note=46, velocity=64, time=6),
    Message('note_off', channel=9, note=70, velocity=64, time=0),
    Message('note_off', channel=3, note=77, velocity=64, time=8),
    Message('note_off', channel=0, note=56, velocity=64, time=3),
    Message('note_off', channel=4, note=66, velocity=64, time=4),
    Message('note_off', channel=4, note=56, velocity=64, time=0),
    Message('note_off', channel=4, note=61, velocity=64, time=0),
    Message('note_on', channel=4, note=66, velocity=75, time=1),
    Message('note_on', channel=4, note=61, velocity=75, time=0),
    Message('note_on', channel=4, note=56, velocity=79, time=0),
    MetaMessage('lyrics', text="n't ", time=1),
    Message('note_on', channel=3, note=75, velocity=78, time=0),
    Message('note_on', channel=9, note=38, velocity=101, time=0),
    Message('note_on', channel=9, note=36, velocity=101, time=0),
    Message('note_on', channel=1, note=36, velocity=126, time=0),
    Message('note_on', channel=0, note=56, velocity=92, time=0),
    Message('note_off', channel=1, note=34, velocity=64, time=1),
    Message('note_on', channel=9, note=70, velocity=67, time=0),
    Message('note_on', channel=9, note=46, velocity=87, time=1),
    Message('note_off', channel=9, note=36, velocity=64, time=4),
    Message('note_off', channel=9, note=38, velocity=64, time=0),
    Message('note_off', channel=9, note=70, velocity=64, time=1),
    Message('note_off', channel=9, note=46, velocity=64, time=1),
    Message('note_off', channel=7, note=56, velocity=64, time=10),
    Message('note_on', channel=7, note=56, velocity=56, time=6),
    Message('note_on', channel=9, note=70, velocity=36, time=1),
    Message('note_off', channel=9, note=70, velocity=64, time=6),
    Message('note_off', channel=3, note=75, velocity=64, time=4),
    Message('note_off', channel=0, note=68, velocity=64, time=3),
    Message('note_off', channel=1, note=36, velocity=64, time=4),
    MetaMessage('lyrics', text='found ', time=5),
    MetaMessage('lyrics', text='\r', time=0),
    Message('note_on', channel=3, note=73, velocity=81, time=0),
    Message('note_off', channel=4, note=56, velocity=64, time=0),
    Message('note_off', channel=4, note=61, velocity=64, time=0),
    Message('note_off', channel=4, note=66, velocity=64, time=0),
    Message('note_on', channel=4, note=56, velocity=81, time=1),
    Message('note_on', channel=4, note=65, velocity=82, time=0),
    Message('note_on', channel=4, note=61, velocity=74, time=0),
    Message('note_on', channel=9, note=46, velocity=67, time=0),
    Message('note_on', channel=1, note=37, velocity=126, time=0),
    Message('note_on', channel=9, note=70, velocity=43, time=1),
    Message('note_on', channel=0, note=68, velocity=72, time=1),
    Message('note_off', channel=9, note=46, velocity=64, time=4),
    Message('note_off', channel=9, note=70, velocity=64, time=1),
    Message('note_off', channel=7, note=68, velocity=64, time=7),
    Message('note_on', channel=9, note=46, velocity=90, time=10),
    Message('note_on', channel=9, note=70, velocity=71, time=1),
    Message('note_on', channel=7, note=68, velocity=36, time=1),
    Message('note_off', channel=9, note=46, velocity=64, time=4),
    Message('note_off', channel=9, note=70, velocity=64, time=1),
    Message('note_off', channel=0, note=56, velocity=64, time=11),
    Message('note_off', channel=1, note=37, velocity=64, time=3),
    Message('note_off', channel=4, note=56, velocity=64, time=3),
    Message('note_on', channel=4, note=58, velocity=76, time=0),
    Message('note_on', channel=9, note=36, velocity=101, time=0),
    Message('note_on', channel=9, note=46, velocity=97, time=0),
    Message('note_on', channel=1, note=30, velocity=121, time=0),
    Message('note_on', channel=0, note=54, velocity=101, time=1),
    Message('note_on', channel=9, note=70, velocity=77, time=0),
    Message('note_off', channel=9, note=46, velocity=64, time=5),
    Message('note_off', channel=9, note=36, velocity=64, time=0),
    Message('note_off', channel=9, note=70, velocity=64, time=1),
    Message('note_off', channel=7, note=56, velocity=64, time=11),
    Message('note_on', channel=7, note=54, velocity=65, time=7),
    Message('note_on', channel=9, note=70, velocity=32, time=0),
    Message('note_off', channel=9, note=70, velocity=64, time=6),
    Message('note_off', channel=0, note=63, velocity=64, time=9),
    Message('note_on', channel=9, note=46, velocity=67, time=8),
    Message('note_on', channel=0, note=63, velocity=89, time=1),
    Message('note_on', channel=9, note=70, velocity=44, time=0),
    Message('note_off', channel=9, note=46, velocity=64, time=5),
    Message('note_off', channel=9, note=70, velocity=64, time=1),
    Message('note_off', channel=7, note=63, velocity=64, time=9),
    Message('note_on', channel=9, note=46, velocity=71, time=8),
    Message('note_on', channel=7, note=63, velocity=53, time=1),
    Message('note_on', channel=9, note=70, velocity=58, time=0),
    Message('note_off', channel=0, note=68, velocity=64, time=4),
    Message('note_off', channel=9, note=46, velocity=64, time=1),
    Message('note_off', channel=9, note=70, velocity=64, time=1),
    Message('note_off', channel=1, note=30, velocity=64, time=8),
    Message('note_on', channel=9, note=46, velocity=63, time=9),
    Message('note_on', channel=1, note=29, velocity=115, time=0),
    Message('note_on', channel=0, note=68, velocity=67, time=0),
    Message('note_on', channel=9, note=70, velocity=80, time=1),
    Message('note_on', channel=9, note=36, velocity=101, time=1),
    Message('note_off', channel=3, note=73, velocity=64, time=3),
    Message('note_off', channel=7, note=68, velocity=64, time=0),
    Message('note_off', channel=9, note=46, velocity=64, time=1),
    Message('note_off', channel=9, note=70, velocity=64, time=1),
    Message('note_off', channel=9, note=36, velocity=64, time=1),
    Message('note_on', channel=9, note=46, velocity=87, time=16),
    Message('note_on', channel=7, note=68, velocity=31, time=0),
    Message('note_on', channel=9, note=70, velocity=38, time=1),
    Message('note_off', channel=9, note=46, velocity=64, time=5),
    Message('note_off', channel=9, note=70, velocity=64, time=1),
    Message('note_off', channel=0, note=63, velocity=64, time=6),
    Message('note_off', channel=1, note=29, velocity=64, time=4),
    Message('note_on', channel=9, note=46, velocity=101, time=7),
    Message('note_on', channel=1, note=30, velocity=125, time=0),
    Message('note_on', channel=0, note=63, velocity=80, time=1),
    Message('note_on', channel=9, note=70, velocity=51, time=0),
    Message('note_off', channel=9, note=46, velocity=64, time=5),
    Message('note_off', channel=9, note=70, velocity=64, time=1),
    Message('note_off', channel=7, note=63, velocity=64, time=6),
    Message('note_off', channel=0, note=63, velocity=64, time=11),
    Message('note_on', channel=7, note=63, velocity=44, time=1),
    Message('note_on', channel=9, note=70, velocity=51, time=0),
    Message('note_on', channel=0, note=63, velocity=85, time=1),
    Message('note_off', channel=9, note=70, velocity=64, time=5),
    Message('note_off', channel=0, note=63, velocity=64, time=16),
    Message('note_on', channel=9, note=46, velocity=69, time=1),
    Message('note_off', channel=7, note=63, velocity=64, time=0),
    Message('note_on', channel=9, note=36, velocity=101, time=1),
    Message('note_on', channel=9, note=70, velocity=80, time=0),
    Message('note_on', channel=7, note=63, velocity=49, time=1),
    Message('note_on', channel=0, note=63, velocity=81, time=2),
    Message('note_off', channel=9, note=46, velocity=64, time=2),
    Message('note_off', channel=9, note=36, velocity=64, time=1),
    Message('note_off', channel=9, note=70, velocity=64, time=0),
    Message('note_off', channel=4, note=65, velocity=64, time=7),
    Message('note_off', channel=4, note=58, velocity=64, time=1),
    Message('note_off', channel=4, note=61, velocity=64, time=1),
    Message('note_off', channel=7, note=63, velocity=64, time=7),
    Message('note_on', channel=9, note=46, velocity=90, time=1),
    Message('note_on', channel=9, note=70, velocity=43, time=1),
    Message('note_on', channel=7, note=63, velocity=45, time=3),
    Message('note_off', channel=9, note=46, velocity=64, time=2),
    Message('note_off', channel=9, note=70, velocity=64, time=1),
    Message('note_off', channel=1, note=30, velocity=64, time=6),
    Message('note_off', channel=0, note=68, velocity=64, time=9),
    Message('note_on', channel=4, note=66, velocity=62, time=1),
    Message('note_on', channel=4, note=61, velocity=70, time=1),
    Message('note_on', channel=4, note=58, velocity=78, time=0),
    Message('note_on', channel=9, note=46, velocity=59, time=0),
    Message('note_on', channel=1, note=32, velocity=126, time=0),
    MetaMessage('lyrics', text='what ', time=1),
    Message('note_on', channel=3, note=70, velocity=61, time=0),
    Message('note_on', channel=9, note=70, velocity=43, time=0),
    Message('note_on', channel=9, note=36, velocity=84, time=1),
    Message('note_on', channel=0, note=68, velocity=87, time=1),
    Message('note_off', channel=9, note=46, velocity=64, time=3),
    Message('note_off', channel=9, note=70, velocity=64, time=1),
    Message('note_off', channel=9, note=36, velocity=64, time=1),
    Message('note_off', channel=7, note=68, velocity=64, time=14),
    Message('note_on', channel=9, note=46, velocity=84, time=3),
    Message('note_on', channel=9, note=70, velocity=67, time=0),
    Message('note_on', channel=7, note=68, velocity=50, time=2),
    Message('note_off', channel=9, note=46, velocity=64, time=4),
    Message('note_off', channel=9, note=70, velocity=64, time=0),
    Message('note_off', channel=3, note=70, velocity=64, time=1),
    Message('note_off', channel=0, note=54, velocity=64, time=13),
    Message('note_off', channel=1, note=32, velocity=64, time=1),
    MetaMessage('lyrics', text="I'm ", time=3),
    Message('note_on', channel=3, note=70, velocity=85, time=0),
    Message('note_off', channel=4, note=58, velocity=64, time=0),
    Message('note_off', channel=4, note=61, velocity=64, time=0),
    Message('note_off', channel=4, note=66, velocity=64, time=0),
    Message('note_on', channel=9, note=38, velocity=101, time=0),
    Message('note_on', channel=1, note=34, velocity=109, time=0),
    Message('note_on', channel=9, note=70, velocity=83, time=0),
    Message('note_on', channel=4, note=58, velocity=80, time=1),
    Message('note_on', channel=4, note=61, velocity=82, time=0),
    Message('note_on', channel=4, note=66, velocity=80, time=0),
    Message('note_on', channel=9, note=36, velocity=101, time=0),
    Message('note_on', channel=9, note=46, velocity=101, time=0),
    Message('note_on', channel=0, note=54, velocity=97, time=3),
    Message('note_off', channel=9, note=38, velocity=64, time=2),
    Message('note_off', channel=9, note=70, velocity=64, time=0),
    Message('note_off', channel=9, note=46, velocity=64, time=1),
    Message('note_off', channel=9, note=36, velocity=64, time=0),
    Message('note_off', channel=7, note=54, velocity=64, time=13),
    Message('note_on', channel=9, note=70, velocity=22, time=4),
    Message('note_on', channel=7, note=54, velocity=61, time=4),
    Message('note_off', channel=3, note=70, velocity=64, time=1),
    Message('note_off', channel=9, note=70, velocity=64, time=1),
    MetaMessage('lyrics', text='look', time=15),
    Message('note_on', channel=3, note=70, velocity=85, time=0),
    Message('note_off', channel=4, note=66, velocity=64, time=0),
    Message('note_off', channel=4, note=61, velocity=64, time=0),
    Message('note_off', channel=4, note=58, velocity=64, time=0),
    Message('note_off', channel=1, note=34, velocity=64, time=0),
    Message('note_on', channel=4, note=66, velocity=86, time=2),
    Message('note_on', channel=4, note=61, velocity=82, time=0),
    Message('note_on', channel=4, note=58, velocity=82, time=0),
    Message('note_on', channel=1, note=36, velocity=120, time=0),
    Message('note_on', channel=0, note=61, velocity=83, time=0),
    Message('note_on', channel=9, note=46, velocity=65, time=1),
    Message('note_on', channel=9, note=70, velocity=58, time=0),
    Message('note_off', channel=9, note=46, velocity=64, time=6),
    Message('note_off', channel=9, note=70, velocity=64, time=0),
    Message('note_off', channel=6, note=61, velocity=64, time=4),
    Message('note_on', channel=9, note=46, velocity=84, time=13),
    Message('note_on', channel=7, note=61, velocity=47, time=0),
    Message('note_on', channel=9, note=70, velocity=75, time=1),
    Message('note_off', channel=9, note=46, velocity=64, time=5),
    Message('note_off', channel=9, note=70, velocity=64, time=1),
    Message('note_off', channel=6, note=68, velocity=64, time=12),
    Message('note_off', channel=6, note=63, velocity=64, time=1),
    Message('note_off', channel=3, note=70, velocity=64, time=2),
    Message('note_off', channel=1, note=36, velocity=64, time=0),
    Message('note_on', channel=6, note=56, velocity=56, time=1),
    Message('note_on', channel=6, note=61, velocity=55, time=0),
    Message('note_off', channel=4, note=58, velocity=64, time=1),
    Message('note_off', channel=4, note=66, velocity=64, time=0),
    Message('note_on', channel=4, note=65, velocity=75, time=0),
    Message('note_on', channel=4, note=56, velocity=70, time=0),
    MetaMessage('lyrics', text='ing ', time=1),
    Message('note_on', channel=3, note=68, velocity=68, time=0),
    Message('note_on', channel=9, note=36, velocity=101, time=0),
    Message('note_on', channel=9, note=46, velocity=93, time=0),
    Message('note_on', channel=1, note=37, velocity=115, time=0),
    Message('note_on', channel=9, note=70, velocity=51, time=0),
    Message('note_on', channel=0, note=49, velocity=97, time=3),
    Message('note_off', channel=9, note=46, velocity=64, time=3),
    Message('note_off', channel=9, note=36, velocity=64, time=0),
    Message('note_off', channel=9, note=70, velocity=64, time=0),
    Message('note_on', channel=9, note=70, velocity=21, time=18),
    Message('note_on', channel=7, note=49, velocity=61, time=3),
    Message('note_off', channel=9, note=70, velocity=64, time=3),
    Message('note_off', channel=3, note=68, velocity=64, time=4),
    Message('note_off', channel=0, note=61, velocity=64, time=5),
    Message('note_off', channel=4, note=56, velocity=64, time=7),
    Message('note_off', channel=4, note=65, velocity=64, time=0),
    Message('note_off', channel=4, note=61, velocity=64, time=0),
    Message('note_on', channel=4, note=65, velocity=76, time=1),
    Message('note_on', channel=0, note=61, velocity=81, time=0),
    Message('note_on', channel=4, note=56, velocity=67, time=1),
    Message('note_on', channel=4, note=61, velocity=54, time=0),
    Message('note_on', channel=9, note=70, velocity=42, time=0),
    MetaMessage('lyrics', text='for. ', time=1),
    MetaMessage('lyrics', text='\r', time=0),
    Message('note_on', channel=3, note=68, velocity=74, time=0),
    Message('note_off', channel=1, note=37, velocity=64, time=5),
    Message('note_off', channel=9, note=70, velocity=64, time=0),
    Message('note_off', channel=0, note=68, velocity=64, time=3),
    Message('note_off', channel=7, note=61, velocity=64, time=6),
    Message('note_on', channel=7, note=61, velocity=45, time=8),
    Message('note_on', channel=9, note=46, velocity=78, time=1),
    Message('note_on', channel=9, note=70, velocity=43, time=0),
    Message('note_off', channel=9, note=46, velocity=64, time=6),
    Message('note_off', channel=9, note=70, velocity=64, time=0),
    Message('note_off', channel=7, note=68, velocity=64, time=3),
    Message('note_off', channel=0, note=63, velocity=64, time=8),
    Message('note_on', channel=9, note=46, velocity=90, time=6),
    Message('note_on', channel=0, note=68, velocity=80, time=1),
    Message('note_on', channel=9, note=70, velocity=71, time=0),
    Message('note_on', channel=9, note=36, velocity=101, time=1),
    Message('note_on', channel=1, note=37, velocity=122, time=0),
    Message('note_off', channel=9, note=46, velocity=64, time=4),
    Message('note_off', channel=9, note=70, velocity=64, time=1),
    Message('note_off', channel=9, note=36, velocity=64, time=1),
    Message('note_off', channel=7, note=63, velocity=64, time=10),
    Message('note_on', channel=7, note=68, velocity=44, time=7),
    Message('note_on', channel=9, note=70, velocity=36, time=0),
    Message('note_off', channel=9, note=70, velocity=64, time=6),
    Message('note_off', channel=0, note=49, velocity=64, time=3),
    Message('note_on', channel=9, note=46, velocity=60, time=14),
    Message('note_on', channel=9, note=70, velocity=43, time=1),
    Message('note_on', channel=0, note=49, velocity=89, time=1),
    Message('note_off', channel=9, note=46, velocity=64, time=4),
    Message('note_off', channel=9, note=70, velocity=64, time=1),
    Message('note_off', channel=7, note=49, velocity=64, time=3),
    Message('note_off', channel=1, note=37, velocity=64, time=3),
    Message('note_on', channel=9, note=46, velocity=73, time=11),
    Message('note_on', channel=9, note=70, velocity=58, time=1),
    Message('note_on', channel=7, note=49, velocity=53, time=1),
    Message('note_off', channel=9, note=46, velocity=64, time=4),
    Message('note_off', channel=9, note=70, velocity=64, time=1),
    Message('note_off', channel=0, note=61, velocity=64, time=8),
    Message('note_on', channel=9, note=70, velocity=61, time=10),
    Message('note_on', channel=9, note=36, velocity=101, time=1),
    Message('note_on', channel=1, note=37, velocity=127, time=0),
    Message('note_on', channel=0, note=61, velocity=80, time=1),
    Message('note_off', channel=9, note=70, velocity=64, time=4),
    Message('note_off', channel=9, note=36, velocity=64, time=1),
    Message('note_off', channel=7, note=61, velocity=64, time=7),
    Message('note_on', channel=9, note=46, velocity=84, time=9),
    Message('note_on', channel=9, note=70, velocity=34, time=1),
    Message('note_on', channel=7, note=61, velocity=44, time=2),
    Message('note_off', channel=9, note=46, velocity=64, time=3),
    Message('note_off', channel=9, note=70, velocity=64, time=1),
    Message('note_off', channel=0, note=68, velocity=64, time=6),
    Message('note_on', channel=9, note=46, velocity=73, time=11),
    Message('note_on', channel=9, note=70, velocity=47, time=1),
    Message('note_on', channel=0, note=68, velocity=83, time=2),
    Message('note_off', channel=1, note=37, velocity=64, time=2),
    Message('note_off', channel=9, note=46, velocity=64, time=1),
    Message('note_off', channel=9, note=70, velocity=64, time=1),
    Message('note_off', channel=7, note=68, velocity=64, time=6),
    Message('note_on', channel=9, note=46, velocity=87, time=11),
    Message('note_on', channel=9, note=70, velocity=65, time=1),
    Message('note_on', channel=1, note=32, velocity=101, time=1),
    Message('note_on', channel=7, note=68, velocity=47, time=1),
    Message('note_off', channel=9, note=46, velocity=64, time=3),
    Message('note_off', channel=9, note=70, velocity=64, time=1),
    Message('note_on', channel=1, note=34, velocity=109, time=17),
    Message('note_off', channel=0, note=49, velocity=64, time=0),
    Message('note_on', channel=9, note=38, velocity=94, time=1),
    Message('note_on', channel=9, note=46, velocity=84, time=0),
    Message('note_off', channel=1, note=32, velocity=64, time=0),
    Message('note_on', channel=9, note=70, velocity=67, time=0),
    Message('note_on', channel=9, note=36, velocity=101, time=1),
    Message('note_on', channel=0, note=49, velocity=75, time=1),
    Message('note_off', channel=9, note=46, velocity=64, time=4),
    Message('note_off', channel=9, note=38, velocity=64, time=0),
    Message('note_off', channel=9, note=70, velocity=64, time=0),
    Message('note_off', channel=9, note=36, velocity=64, time=1),
    Message('note_off', channel=7, note=49, velocity=64, time=16),
    Message('note_on', channel=9, note=70, velocity=36, time=1),
    Message('note_on', channel=7, note=49, velocity=39, time=2),
    Message('note_off', channel=9, note=70, velocity=64, time=4),
    Message('note_off', channel=0, note=61, velocity=64, time=6),
    Message('note_off', channel=1, note=34, velocity=64, time=9),
    Message('note_on', channel=9, note=46, velocity=67, time=2),
    Message('note_on', channel=1, note=37, velocity=119, time=0),
    Message('note_on', channel=0, note=61, velocity=75, time=1),
    Message('note_on', channel=9, note=70, velocity=43, time=0),
    Message('note_off', channel=9, note=46, velocity=64, time=5),
    Message('note_off', channel=9, note=70, velocity=64, time=1),
    Message('note_off', channel=7, note=61, velocity=64, time=6),
    Message('note_off', channel=3, note=68, velocity=64, time=1),
    Message('note_on', channel=9, note=46, velocity=77, time=10),
    Message('note_on', channel=7, note=61, velocity=39, time=1),
    Message('note_on', channel=9, note=70, velocity=71, time=0),
    Message('note_off', channel=9, note=46, velocity=64, time=5),
    Message('note_off', channel=9, note=70, velocity=64, time=1),
    Message('note_off', channel=1, note=37, velocity=64, time=5),
    Message('note_off', channel=0, note=49, velocity=64, time=12),
    Message('note_on', channel=9, note=36, velocity=101, time=1),
    Message('note_on', channel=9, note=46, velocity=97, time=0),
    Message('note_on', channel=1, note=37, velocity=127, time=0),
    Message('note_on', channel=9, note=70, velocity=77, time=0),
    Message('note_on', channel=0, note=49, velocity=95, time=1),
    MetaMessage('set_tempo', tempo=652174, time=3),
    Message('note_off', channel=9, note=46, velocity=64, time=2),
    Message('note_off', channel=9, note=36, velocity=64, time=0),
    Message('note_off', channel=9, note=70, velocity=64, time=0),
    Message('note_on', channel=8, note=61, velocity=31, time=9),
    Message('note_off', channel=7, note=49, velocity=64, time=8),
    Message('note_on', channel=9, note=70, velocity=32, time=1),
    Message('note_on', channel=7, note=49, velocity=58, time=1),
    Message('note_off', channel=9, note=70, velocity=64, time=5),
    Message('note_off', channel=0, note=68, velocity=64, time=1),
    Message('note_off', channel=0, note=61, velocity=64, time=9),
    Message('note_on', channel=9, note=46, velocity=78, time=7),
    Message('note_off', channel=4, note=61, velocity=64, time=1),
    Message('note_on', channel=9, note=70, velocity=44, time=0),
    Message('note_off', channel=4, note=56, velocity=64, time=1),
    Message('note_off', channel=4, note=65, velocity=64, time=0),
    Message('note_on', channel=0, note=61, velocity=80, time=0),
    Message('note_off', channel=1, note=37, velocity=64, time=3),
    Message('note_off', channel=9, note=46, velocity=64, time=1),
    Message('note_off', channel=9, note=70, velocity=64, time=1),
    Message('note_off', channel=7, note=68, velocity=64, time=1),
    Message('note_off', channel=7, note=61, velocity=64, time=9),
    Message('note_on', channel=8, note=49, velocity=50, time=0),
    Message('note_on', channel=9, note=46, velocity=84, time=7),
    Message('note_on', channel=9, note=70, velocity=58, time=1),
    Message('note_on', channel=7, note=61, velocity=44, time=1),
    Message('note_off', channel=9, note=46, velocity=64, time=4),
    Message('note_off', channel=9, note=70, velocity=64, time=1),
    Message('note_on', channel=9, note=46, velocity=61, time=17),
    Message('note_on', channel=1, note=37, velocity=121, time=0),
    Message('note_on', channel=9, note=70, velocity=80, time=1),
    Message('note_on', channel=9, note=36, velocity=101, time=1),
    Message('note_on', channel=0, note=68, velocity=79, time=1),
    Message('note_off', channel=9, note=46, velocity=64, time=3),
    Message('note_off', channel=9, note=70, velocity=64, time=1),
    Message('note_off', channel=9, note=36, velocity=64, time=1),
    Message('note_off', channel=8, note=61, velocity=64, time=0),
    Message('note_on', channel=8, note=61, velocity=35, time=9),
    MetaMessage('set_tempo', tempo=722892, time=4),
    Message('note_on', channel=9, note=46, velocity=87, time=3),
    Message('note_on', channel=9, note=70, velocity=38, time=1),
    Message('note_on', channel=7, note=68, velocity=42, time=2),
    Message('note_off', channel=9, note=46, velocity=64, time=3),
    Message('note_off', channel=9, note=70, velocity=64, time=1),
    Message('note_off', channel=0, note=49, velocity=64, time=11),
    Message('note_on', channel=9, note=46, velocity=97, time=6),
    Message('note_on', channel=9, note=70, velocity=51, time=1),
    Message('note_on', channel=0, note=49, velocity=88, time=1),
    Message('note_off', channel=9, note=46, velocity=64, time=4),
    Message('note_off', channel=9, note=70, velocity=64, time=1),
    Message('note_off', channel=1, note=37, velocity=64, time=2),
    Message('note_off', channel=7, note=49, velocity=64, time=9),
    Message('note_on', channel=8, note=68, velocity=34, time=0),
    Message('note_on', channel=9, note=70, velocity=51, time=7),
    Message('note_on', channel=7, note=49, velocity=52, time=1),
    Message('note_off', channel=9, note=70, velocity=64, time=5),
    Message('note_off', channel=0, note=61, velocity=64, time=9),
    Message('note_on', channel=9, note=46, velocity=73, time=8),
    Message('note_on', channel=9, note=70, velocity=80, time=1),
    Message('note_on', channel=9, note=36, velocity=101, time=1),
    Message('note_on', channel=1, note=37, velocity=123, time=0),
    Message('note_on', channel=0, note=61, velocity=87, time=3),
    Message('note_off', channel=9, note=46, velocity=64, time=1),
    Message('note_off', channel=9, note=70, velocity=64, time=1),
    Message('note_off', channel=9, note=36, velocity=64, time=1),
    Message('note_off', channel=8, note=49, velocity=64, time=1),
    Message('note_off', channel=7, note=61, velocity=64, time=7),
    Message('note_on', channel=8, note=49, velocity=43, time=1),
    Message('note_on', channel=9, note=46, velocity=90, time=7),
    Message('note_on', channel=9, note=70, velocity=43, time=1),
    Message('note_on', channel=7, note=61, velocity=50, time=4),
    Message('note_off', channel=9, note=46, velocity=64, time=1),
    Message('note_off', channel=9, note=70, velocity=64, time=1),
    Message('note_off', channel=0, note=68, velocity=64, time=3),
    Message('note_on', channel=9, note=46, velocity=68, time=14),
    Message('note_off', channel=1, note=37, velocity=64, time=0),
    Message('note_on', channel=0, note=68, velocity=84, time=0),
    Message('note_on', channel=9, note=70, velocity=43, time=1),
    Message('note_off', channel=9, note=46, velocity=64, time=5),
    Message('note_off', channel=8, note=61, velocity=64, time=1),
    Message('note_off', channel=9, note=70, velocity=64, time=0),
    Message('note_off', channel=7, note=68, velocity=64, time=3),
    MetaMessage('set_tempo', tempo=800000, time=3),
    Message('note_on', channel=8, note=61, velocity=42, time=7),
    Message('note_on', channel=9, note=46, velocity=90, time=4),
    Message('note_on', channel=1, note=32, velocity=98, time=0),
    Message('note_on', channel=7, note=68, velocity=48, time=0),
    Message('note_on', channel=9, note=70, velocity=67, time=1),
    Message('note_off', channel=9, note=46, velocity=64, time=5),
    Message('note_off', channel=9, note=70, velocity=64, time=1),
    Message('note_off', channel=0, note=49, velocity=64, time=14),
    Message('note_off', channel=1, note=32, velocity=64, time=1),
    Message('note_on', channel=9, note=46, velocity=101, time=2),
    Message('note_on', channel=1, note=34, velocity=112, time=0),
    Message('note_off', channel=8, note=68, velocity=64, time=1),
    Message('note_on', channel=9, note=70, velocity=83, time=0),
    Message('note_on', channel=9, note=36, velocity=101, time=1),
    Message('note_on', channel=0, note=49, velocity=85, time=1),
    Message('note_off', channel=9, note=46, velocity=64, time=3),
    Message('note_off', channel=9, note=70, velocity=64, time=1),
    Message('note_off', channel=9, note=36, velocity=64, time=1),
    Message('note_on', channel=8, note=68, velocity=40, time=7),
    Message('note_off', channel=7, note=49, velocity=64, time=6),
    Message('note_on', channel=9, note=70, velocity=22, time=4),
    Message('note_on', channel=7, note=49, velocity=49, time=2),
    Message('note_off', channel=9, note=70, velocity=64, time=4),
    Message('note_off', channel=0, note=61, velocity=64, time=14),
    Message('note_off', channel=1, note=34, velocity=64, time=1),
    Message('note_on', channel=9, note=46, velocity=78, time=2),
    Message('note_on', channel=9, note=70, velocity=58, time=1),
    Message('note_on', channel=1, note=37, velocity=121, time=1),
    Message('note_on', channel=0, note=61, velocity=83, time=1),
    MetaMessage('set_tempo', tempo=923077, time=2),
    Message('note_off', channel=9, note=46, velocity=64, time=1),
    Message('note_off', channel=9, note=70, velocity=64, time=1),
    Message('note_off', channel=8, note=49, velocity=64, time=5),
    Message('note_on', channel=8, note=49, velocity=41, time=6),
    Message('note_off', channel=7, note=61, velocity=64, time=3),
    Message('note_on', channel=9, note=46, velocity=93, time=3),
    Message('note_on', channel=9, note=70, velocity=75, time=1),
    Message('note_on', channel=7, note=61, velocity=47, time=2),
    Message('note_off', channel=9, note=46, velocity=64, time=3),
    Message('note_off', channel=9, note=70, velocity=64, time=1),
    Message('note_off', channel=0, note=68, velocity=64, time=5),
    Message('note_off', channel=0, note=49, velocity=64, time=3),
    Message('note_off', channel=1, note=37, velocity=64, time=3),
    MetaMessage('set_tempo', tempo=1000000, time=3),
    Message('note_on', channel=6, note=68, velocity=40, time=2),
    Message('note_on', channel=6, note=63, velocity=36, time=0),
    Message('note_off', channel=0, note=61, velocity=64, time=0),
    Message('pitchwheel', channel=0, pitch=103, time=1),
    Message('note_on', channel=9, note=36, velocity=85, time=1),
    Message('note_on', channel=9, note=46, velocity=93, time=0),
    Message('note_on', channel=1, note=25, velocity=127, time=0),
    Message('note_off', channel=0, note=54, velocity=64, time=0),
    Message('note_on', channel=0, note=49, velocity=95, time=0),
    Message('note_on', channel=0, note=56, velocity=97, time=4),
    Message('note_off', channel=9, note=46, velocity=64, time=2),
    Message('note_off', channel=9, note=36, velocity=64, time=0),
    Message('note_on', channel=0, note=61, velocity=87, time=3),
    Message('note_off', channel=7, note=68, velocity=64, time=2),
    Message('note_off', channel=8, note=61, velocity=64, time=0),
    Message('note_on', channel=0, note=68, velocity=84, time=2),
    Message('note_off', channel=7, note=49, velocity=64, time=1),
    Message('note_on', channel=8, note=61, velocity=39, time=3),
    Message('note_off', channel=7, note=61, velocity=64, time=5),
    Message('pitchwheel', channel=7, pitch=103, time=1),
    Message('note_off', channel=7, note=54, velocity=64, time=1),
    Message('note_on', channel=7, note=49, velocity=58, time=0),
    Message('note_on', channel=7, note=56, velocity=61, time=4),
    Message('note_on', channel=7, note=61, velocity=50, time=5),
    Message('note_on', channel=7, note=68, velocity=48, time=4),
    Message('pitchwheel', channel=7, pitch=0, time=2),
    Message('note_off', channel=8, note=68, velocity=64, time=11),
    Message('note_off', channel=8, note=49, velocity=64, time=3),
    Message('note_off', channel=8, note=61, velocity=64, time=8),
    Message('pitchwheel', channel=8, pitch=103, time=1),
    Message('note_on', channel=8, note=49, velocity=50, time=1),
    Message('note_on', channel=8, note=56, velocity=52, time=4),
    Message('note_on', channel=8, note=61, velocity=42, time=5),
    Message('note_on', channel=8, note=68, velocity=40, time=4),
    Message('note_off', channel=6, note=63, velocity=64, time=294),
    Message('note_off', channel=6, note=56, velocity=64, time=0),
    Message('note_off', channel=6, note=61, velocity=64, time=0),
    Message('note_off', channel=6, note=68, velocity=64, time=0),
    Message('note_off', channel=1, note=25, velocity=64, time=2),
    Message('note_off', channel=0, note=56, velocity=64, time=8),
    Message('note_off', channel=0, note=49, velocity=64, time=4),
    Message('note_off', channel=0, note=61, velocity=64, time=1),
    Message('note_off', channel=0, note=68, velocity=64, time=4),
    Message('pitchwheel', channel=0, pitch=0, time=0),
    Message('note_off', channel=7, note=56, velocity=64, time=15),
    Message('note_off', channel=7, note=49, velocity=64, time=4),
    Message('note_off', channel=7, note=61, velocity=64, time=1),
    Message('note_off', channel=7, note=68, velocity=64, time=4),
    Message('note_off', channel=8, note=56, velocity=64, time=30),
    Message('note_off', channel=8, note=49, velocity=64, time=4),
    Message('note_off', channel=8, note=61, velocity=64, time=1),
    Message('note_off', channel=8, note=68, velocity=64, time=4),
    Message('pitchwheel', channel=8, pitch=0, time=0),
    MetaMessage('end_of_track', time=0)])
])
